<svg width="186" height="173" viewBox="0 0 186 173" fill="none" xmlns="http://www.w3.org/2000/svg">
<path d="M88.9999 0H82.0642V8.31149H88.9999V0Z" fill="#D9E021"/>
<path d="M71.4893 0H64.5535V8.31149H71.4893V0Z" fill="#D9E021"/>
<path d="M53.9358 0H47V8.31149H53.9358V0Z" fill="#D9E021"/>
<path d="M88.9999 19.3231H82.0642V27.6346H88.9999V19.3231Z" fill="#D9E021"/>
<path d="M71.4893 19.3231H64.5535V27.6346H71.4893V19.3231Z" fill="#D9E021"/>
<path d="M53.9358 19.3231H47V27.6346H53.9358V19.3231Z" fill="#D9E021"/>
<path d="M88.9999 38.6885H82.0642V47H88.9999V38.6885Z" fill="#D9E021"/>
<path d="M71.4893 38.6885H64.5535V47H71.4893V38.6885Z" fill="#D9E021"/>
<path d="M53.9358 38.6885H47V47H53.9358V38.6885Z" fill="#D9E021"/>
<path d="M165.3 44.6C169.884 44.6 173.6 40.884 173.6 36.3C173.6 31.716 169.884 28 165.3 28C160.716 28 157 31.716 157 36.3C157 40.884 160.716 44.6 165.3 44.6Z" fill="#D9E021"/>
<path d="M17 108H0V125H17V108Z" fill="#D9E021"/>
<path d="M137.68 116.502H128V173H137.68V116.502Z" fill="#D9E021"/>
<path d="M160.733 97H151.053V173H160.733V97Z" fill="#D9E021"/>
<path d="M186 108.089H176.32V173H186V108.089Z" fill="#D9E021"/>
</svg>
