<svg xmlns="http://www.w3.org/2000/svg" xmlns:xlink="http://www.w3.org/1999/xlink" width="184.612" height="126.816" viewBox="0 0 184.612 126.816">
  <defs>
    <linearGradient id="linear-gradient" x1="0.83" y1="0.877" x2="-0.064" y2="-0.024" gradientUnits="objectBoundingBox">
      <stop offset="0" stop-color="#faed1e"/>
      <stop offset="0.149" stop-color="#f8cf21"/>
      <stop offset="0.429" stop-color="#f59e25"/>
      <stop offset="0.674" stop-color="#f37928"/>
      <stop offset="0.873" stop-color="#f1632a"/>
      <stop offset="1" stop-color="#f15b2b"/>
    </linearGradient>
    <linearGradient id="linear-gradient-2" x1="0.753" y1="0.846" x2="-0.049" y2="-0.01" xlink:href="#linear-gradient"/>
  </defs>
  <g id="Metricktank_Logo_RGB_FullColor_small" transform="translate(0.027 0.01)">
    <circle id="Ellipse_686" data-name="Ellipse 686" cx="10.048" cy="10.048" r="10.048" transform="translate(157.051 116.563) rotate(-59.358)" fill="#f05a27"/>
    <path id="Path_1385" data-name="Path 1385" d="M202.067,143.064a4.077,4.077,0,0,0,1-.084h.167a3.563,3.563,0,0,0,.921-.167c.084,0,.167,0,.167-.084.335-.084.67-.167.921-.251h.084a5.124,5.124,0,0,0,1-.419c.335-.167.586-.335.921-.5h0c.251-.167.5-.335.837-.586l.084-.084a4.785,4.785,0,0,0,.67-.586l.084-.084a5.051,5.051,0,0,0,.67-.67l.084-.084c.167-.167.335-.419.5-.586,0-.084.084-.084.084-.167l.5-.754c.084-.167.167-.251.251-.419a11.14,11.14,0,0,0,1.172-4.019v-1.424a11.358,11.358,0,0,0-.5-2.428c0-.084-.084-.167-.084-.251-.084-.167-.084-.251-.167-.419l-.251-.5a9.685,9.685,0,0,0-3.936-4.271,10.227,10.227,0,0,0-5.108-1.423,9.936,9.936,0,0,0-8.625,4.94,9.836,9.836,0,0,0-.419,9.378l.084.084a4.975,4.975,0,0,0,.335.67.435.435,0,0,1,.167.335,1.831,1.831,0,0,0,.251.419c.084.084.167.167.167.251.167.167.251.335.419.5l.167.167a3.869,3.869,0,0,0,.586.586l.167.167c.167.167.419.335.586.5l.084.084.754.5c.084,0,.167.084.251.084a.635.635,0,0,0,.335.167c.084.084.251.084.335.167s.167.084.251.167c.167.084.335.084.419.167.084,0,.084.084.167.084a1.21,1.21,0,0,0,.586.167h.084c.251.084.419.084.67.167h0a3.867,3.867,0,0,0,2.093.5Z" transform="translate(-31.252 -19.975)" fill="#f05a27"/>
    <path id="Path_1386" data-name="Path 1386" d="M10.044,123.1a10.4,10.4,0,0,1-4.438-1A9.982,9.982,0,0,1,1,108.7L51.241,5.706a10.018,10.018,0,1,1,18,8.792L19,117.492A9.962,9.962,0,0,1,10.044,123.1Z" transform="translate(0 -0.013)" fill="#f05a27"/>
    <g id="Group_1675" data-name="Group 1675" transform="translate(64.472 18.671)">
      <path id="Path_1387" data-name="Path 1387" d="M132.1,112.232,88.221,22.3,77,45.16l37.011,75.864a9.936,9.936,0,0,0,9.043,5.61,10.4,10.4,0,0,0,4.438-1A10,10,0,0,0,132.1,112.232Z" transform="translate(-77 -22.3)" fill="url(#linear-gradient)"/>
    </g>
    <path id="Path_1388" data-name="Path 1388" d="M143.4,1A10.028,10.028,0,0,0,130,5.609l-17,34.75L124.221,63.3,148,14.485A10.125,10.125,0,0,0,143.4,1Z" transform="translate(-18.384 0)" fill="#f05a27"/>
    <g id="Group_1676" data-name="Group 1676" transform="translate(124.761 18.671)">
      <path id="Path_1389" data-name="Path 1389" d="M160.221,22.3,149,45.16l30.731,62.885c.084-.167.167-.251.251-.419A17.639,17.639,0,0,1,195.138,99h0a13.858,13.858,0,0,1,2.68.251Z" transform="translate(-149 -22.3)" fill="url(#linear-gradient-2)"/>
    </g>
  </g>
</svg>
