<svg width="899" height="388" viewBox="0 0 899 388" fill="none" xmlns="http://www.w3.org/2000/svg">
<rect width="899" height="388" rx="24" fill="#F9F9FA"/>
<rect x="125" y="35" width="650" height="106.557" rx="6.55738" fill="#FDE8BE"/>
<rect x="125" y="208.771" width="650" height="127.869" rx="6.55738" fill="#FDD9BE"/>
<path d="M334.899 81.5908H337.238V76.77L339.069 74.6661L344.079 81.5908H346.894L340.62 73.0693L346.872 66.0916H343.928L337.427 73.4931H337.238V66.0916H334.899V81.5908ZM355.079 76.77C355.086 78.7453 353.618 79.6837 352.347 79.6837C350.946 79.6837 349.978 78.6696 349.978 77.0879V69.9664H347.715V77.3603C347.715 80.2437 349.297 81.7422 351.529 81.7422C353.277 81.7422 354.466 80.8189 355.003 79.5777H355.124V81.5908H357.349V69.9664H355.079V76.77ZM360.145 81.5908H362.355V79.7821H362.544C362.953 80.5237 363.785 81.8179 365.904 81.8179C368.719 81.8179 370.763 79.5626 370.763 75.8013C370.763 72.0324 368.689 69.815 365.881 69.815C363.725 69.815 362.945 71.1318 362.544 71.8508H362.408V66.0916H360.145V81.5908ZM362.362 75.7786C362.362 73.3493 363.422 71.7373 365.397 71.7373C367.448 71.7373 368.477 73.4704 368.477 75.7786C368.477 78.1095 367.418 79.888 365.397 79.888C363.452 79.888 362.362 78.2231 362.362 75.7786ZM377.887 81.8254C380.423 81.8254 382.216 80.5767 382.731 78.6847L380.589 78.2987C380.181 79.3961 379.197 79.9561 377.91 79.9561C375.973 79.9561 374.671 78.6998 374.611 76.4597H382.875V75.6575C382.875 71.4573 380.362 69.815 377.729 69.815C374.489 69.815 372.355 72.2822 372.355 75.8543C372.355 79.4642 374.459 81.8254 377.887 81.8254ZM374.618 74.7645C374.709 73.1147 375.905 71.6843 377.744 71.6843C379.499 71.6843 380.65 72.986 380.657 74.7645H374.618ZM384.959 81.5908H387.222V74.492C387.222 72.9709 388.395 71.8735 390 71.8735C390.469 71.8735 390.999 71.9568 391.18 72.0097V69.8453C390.953 69.815 390.507 69.7923 390.219 69.7923C388.857 69.7923 387.691 70.5643 387.268 71.813H387.146V69.9664H384.959V81.5908ZM394.975 74.6888C394.975 72.8346 396.11 71.7751 397.684 71.7751C399.221 71.7751 400.151 72.7817 400.151 74.4693V81.5908H402.414V74.1969C402.414 71.321 400.833 69.815 398.456 69.815C396.708 69.815 395.565 70.6248 395.028 71.8584H394.884V69.9664H392.712V81.5908H394.975V74.6888ZM410.033 81.8254C412.568 81.8254 414.362 80.5767 414.876 78.6847L412.735 78.2987C412.326 79.3961 411.342 79.9561 410.056 79.9561C408.118 79.9561 406.816 78.6998 406.756 76.4597H415.02V75.6575C415.02 71.4573 412.508 69.815 409.874 69.815C406.635 69.815 404.501 72.2822 404.501 75.8543C404.501 79.4642 406.605 81.8254 410.033 81.8254ZM406.763 74.7645C406.854 73.1147 408.05 71.6843 409.889 71.6843C411.645 71.6843 412.795 72.986 412.803 74.7645H406.763ZM422.531 69.9664H420.147V67.1814H417.884V69.9664H416.181V71.7827H417.884V78.6469C417.877 80.7583 419.489 81.78 421.275 81.7422C421.994 81.7346 422.478 81.5984 422.743 81.5L422.334 79.6307C422.183 79.661 421.903 79.7291 421.539 79.7291C420.805 79.7291 420.147 79.4869 420.147 78.1777V71.7827H422.531V69.9664ZM429.493 81.8254C432.028 81.8254 433.822 80.5767 434.336 78.6847L432.195 78.2987C431.786 79.3961 430.802 79.9561 429.516 79.9561C427.578 79.9561 426.277 78.6998 426.216 76.4597H434.48V75.6575C434.48 71.4573 431.968 69.815 429.334 69.815C426.095 69.815 423.961 72.2822 423.961 75.8543C423.961 79.4642 426.065 81.8254 429.493 81.8254ZM426.224 74.7645C426.314 73.1147 427.51 71.6843 429.349 71.6843C431.105 71.6843 432.255 72.986 432.263 74.7645H426.224ZM445.275 72.8044C444.806 70.9956 443.391 69.815 440.878 69.815C438.252 69.815 436.391 71.2 436.391 73.2585C436.391 74.9083 437.39 76.0056 439.569 76.49L441.537 76.9214C442.657 77.1711 443.179 77.6706 443.179 78.3971C443.179 79.2977 442.218 80.0015 440.735 80.0015C439.38 80.0015 438.51 79.4188 438.237 78.276L436.05 78.609C436.428 80.6675 438.139 81.8254 440.75 81.8254C443.557 81.8254 445.502 80.3345 445.502 78.2306C445.502 76.5884 444.458 75.5743 442.324 75.0823L440.477 74.6585C439.198 74.3558 438.646 73.9244 438.653 73.1374C438.646 72.2443 439.615 71.6086 440.901 71.6086C442.309 71.6086 442.96 72.3881 443.225 73.1676L445.275 72.8044ZM465.833 71.1318C465.303 67.8171 462.707 65.8797 459.43 65.8797C455.419 65.8797 452.46 68.8842 452.46 73.8412C452.46 78.7982 455.404 81.8027 459.43 81.8027C462.836 81.8027 465.326 79.6685 465.833 76.6035L463.472 76.5959C463.071 78.5788 461.406 79.6685 459.445 79.6685C456.789 79.6685 454.784 77.6328 454.784 73.8412C454.784 70.0799 456.782 68.0138 459.453 68.0138C461.428 68.0138 463.086 69.1263 463.472 71.1318H465.833ZM472.92 81.8254C476.197 81.8254 478.338 79.4264 478.338 75.8316C478.338 72.2141 476.197 69.815 472.92 69.815C469.643 69.815 467.501 72.2141 467.501 75.8316C467.501 79.4264 469.643 81.8254 472.92 81.8254ZM472.927 79.9259C470.786 79.9259 469.787 78.0566 469.787 75.824C469.787 73.599 470.786 71.707 472.927 71.707C475.054 71.707 476.053 73.599 476.053 75.824C476.053 78.0566 475.054 79.9259 472.927 79.9259ZM482.701 74.6888C482.701 72.8346 483.836 71.7751 485.41 71.7751C486.946 71.7751 487.877 72.7817 487.877 74.4693V81.5908H490.14V74.1969C490.14 71.321 488.558 69.815 486.182 69.815C484.434 69.815 483.291 70.6248 482.754 71.8584H482.61V69.9664H480.438V81.5908H482.701V74.6888ZM498.175 69.9664H495.791V67.1814H493.528V69.9664H491.825V71.7827H493.528V78.6469C493.521 80.7583 495.133 81.78 496.919 81.7422C497.638 81.7346 498.122 81.5984 498.387 81.5L497.978 79.6307C497.827 79.661 497.547 79.7291 497.184 79.7291C496.449 79.7291 495.791 79.4869 495.791 78.1777V71.7827H498.175V69.9664ZM500.252 81.5908H502.515V74.492C502.515 72.9709 503.688 71.8735 505.292 71.8735C505.761 71.8735 506.291 71.9568 506.473 72.0097V69.8453C506.246 69.815 505.799 69.7923 505.512 69.7923C504.149 69.7923 502.984 70.5643 502.56 71.813H502.439V69.9664H500.252V81.5908ZM512.485 81.8254C515.762 81.8254 517.904 79.4264 517.904 75.8316C517.904 72.2141 515.762 69.815 512.485 69.815C509.208 69.815 507.066 72.2141 507.066 75.8316C507.066 79.4264 509.208 81.8254 512.485 81.8254ZM512.493 79.9259C510.351 79.9259 509.352 78.0566 509.352 75.824C509.352 73.599 510.351 71.707 512.493 71.707C514.619 71.707 515.618 73.599 515.618 75.824C515.618 78.0566 514.619 79.9259 512.493 79.9259ZM522.266 66.0916H520.003V81.5908H522.266V66.0916ZM530.28 81.5908H532.618V76.1419H535.797C539.391 76.1419 541.17 73.9698 541.17 71.1091C541.17 68.256 539.407 66.0916 535.804 66.0916H530.28V81.5908ZM532.618 74.159V68.0971H535.554C537.87 68.0971 538.816 69.3534 538.816 71.1091C538.816 72.8649 537.87 74.159 535.585 74.159H532.618ZM545.566 66.0916H543.304V81.5908H545.566V66.0916ZM551.567 81.8481C553.49 81.8481 554.572 80.8719 555.003 80.0015H555.094V81.5908H557.304V73.8715C557.304 70.4886 554.64 69.815 552.793 69.815C550.689 69.815 548.752 70.6626 547.995 72.7817L550.122 73.266C550.455 72.4411 551.302 71.6465 552.824 71.6465C554.284 71.6465 555.033 72.4108 555.033 73.7277V73.7806C555.033 74.6056 554.186 74.5904 552.097 74.8326C549.895 75.0899 547.639 75.6651 547.639 78.3063C547.639 80.5918 549.357 81.8481 551.567 81.8481ZM552.059 80.0318C550.78 80.0318 549.857 79.4566 549.857 78.3366C549.857 77.1257 550.932 76.6943 552.241 76.5203C552.975 76.4219 554.716 76.2251 555.041 75.8997V77.3982C555.041 78.7755 553.944 80.0318 552.059 80.0318ZM562.154 74.6888C562.154 72.8346 563.29 71.7751 564.864 71.7751C566.4 71.7751 567.331 72.7817 567.331 74.4693V81.5908H569.594V74.1969C569.594 71.321 568.012 69.815 565.636 69.815C563.887 69.815 562.745 70.6248 562.207 71.8584H562.064V69.9664H559.892V81.5908H562.154V74.6888ZM577.212 81.8254C579.748 81.8254 581.541 80.5767 582.056 78.6847L579.914 78.2987C579.505 79.3961 578.522 79.9561 577.235 79.9561C575.298 79.9561 573.996 78.6998 573.935 76.4597H582.2V75.6575C582.2 71.4573 579.687 69.815 577.053 69.815C573.814 69.815 571.68 72.2822 571.68 75.8543C571.68 79.4642 573.784 81.8254 577.212 81.8254ZM573.943 74.7645C574.034 73.1147 575.229 71.6843 577.068 71.6843C578.824 71.6843 579.975 72.986 579.982 74.7645H573.943Z" fill="#17171C"/>
<rect x="141.395" y="112.049" width="195.082" height="59.0164" rx="6.55738" fill="#FBC55A"/>
<path d="M197.654 148.442L198.858 144.972H203.981L205.179 148.442H207.279L202.559 135.328H200.273L195.554 148.442H197.654ZM199.434 143.307L201.368 137.71H201.471L203.405 143.307H199.434ZM208.902 148.442H210.881V143.832H213.571C216.612 143.832 218.117 141.994 218.117 139.573C218.117 137.159 216.625 135.328 213.577 135.328H208.902V148.442ZM210.881 142.154V137.025H213.366C215.325 137.025 216.126 138.088 216.126 139.573C216.126 141.059 215.325 142.154 213.391 142.154H210.881ZM222.145 135.328H220.167V148.442H222.145V135.328ZM236.411 138.773H238.32C238.262 136.672 236.405 135.148 233.741 135.148C231.109 135.148 229.092 136.653 229.092 138.914C229.092 140.739 230.398 141.808 232.505 142.378L234.055 142.801C235.457 143.172 236.539 143.633 236.539 144.799C236.539 146.079 235.316 146.925 233.632 146.925C232.108 146.925 230.84 146.246 230.725 144.818H228.74C228.868 147.194 230.706 148.66 233.645 148.66C236.725 148.66 238.499 147.04 238.499 144.818C238.499 142.455 236.392 141.539 234.727 141.129L233.446 140.796C232.422 140.534 231.058 140.054 231.064 138.798C231.064 137.684 232.082 136.858 233.696 136.858C235.201 136.858 236.27 137.563 236.411 138.773ZM244.678 148.641C246.824 148.641 248.341 147.584 248.777 145.983L246.965 145.657C246.619 146.585 245.786 147.059 244.698 147.059C243.058 147.059 241.957 145.996 241.906 144.101H248.898V143.422C248.898 139.868 246.772 138.478 244.544 138.478C241.803 138.478 239.997 140.566 239.997 143.588C239.997 146.643 241.778 148.641 244.678 148.641ZM241.912 142.666C241.989 141.27 243.001 140.06 244.557 140.06C246.042 140.06 247.016 141.161 247.022 142.666H241.912ZM250.752 148.442H252.667V142.436C252.667 141.149 253.66 140.22 255.017 140.22C255.414 140.22 255.863 140.29 256.016 140.335V138.504C255.824 138.478 255.446 138.459 255.203 138.459C254.05 138.459 253.064 139.112 252.706 140.169H252.603V138.606H250.752V148.442ZM266.117 138.606H264.061L261.576 146.175H261.474L258.983 138.606H256.927L260.5 148.442H262.55L266.117 138.606ZM271.533 148.641C273.678 148.641 275.195 147.584 275.631 145.983L273.819 145.657C273.473 146.585 272.64 147.059 271.552 147.059C269.912 147.059 268.811 145.996 268.76 144.101H275.753V143.422C275.753 139.868 273.627 138.478 271.398 138.478C268.657 138.478 266.851 140.566 266.851 143.588C266.851 146.643 268.632 148.641 271.533 148.641ZM268.766 142.666C268.843 141.27 269.855 140.06 271.411 140.06C272.897 140.06 273.87 141.161 273.876 142.666H268.766ZM277.606 148.442H279.521V142.436C279.521 141.149 280.514 140.22 281.871 140.22C282.268 140.22 282.717 140.29 282.87 140.335V138.504C282.678 138.478 282.3 138.459 282.057 138.459C280.904 138.459 279.918 139.112 279.56 140.169H279.457V138.606H277.606V148.442Z" fill="#17171C"/>
<rect x="352.868" y="112.049" width="195.082" height="59.0164" rx="6.55738" fill="#FBC55A"/>
<path d="M415.824 138.773H417.732C417.675 136.672 415.818 135.148 413.154 135.148C410.522 135.148 408.504 136.653 408.504 138.914C408.504 140.739 409.811 141.808 411.918 142.378L413.467 142.801C414.87 143.172 415.952 143.633 415.952 144.799C415.952 146.079 414.729 146.925 413.045 146.925C411.521 146.925 410.253 146.246 410.137 144.818H408.152C408.28 147.194 410.118 148.66 413.058 148.66C416.138 148.66 417.912 147.04 417.912 144.818C417.912 142.455 415.805 141.539 414.14 141.129L412.859 140.796C411.834 140.534 410.47 140.054 410.477 138.798C410.477 137.684 411.495 136.858 413.109 136.858C414.614 136.858 415.683 137.563 415.824 138.773ZM423.995 148.641C426.32 148.641 427.824 147.245 428.036 145.33H426.172C425.929 146.393 425.103 147.021 424.008 147.021C422.388 147.021 421.344 145.67 421.344 143.524C421.344 141.418 422.407 140.092 424.008 140.092C425.225 140.092 425.967 140.86 426.172 141.783H428.036C427.831 139.797 426.211 138.478 423.976 138.478C421.203 138.478 419.41 140.566 419.41 143.569C419.41 146.534 421.139 148.641 423.995 148.641ZM431.728 142.602C431.728 141.033 432.72 140.137 434.084 140.137C435.403 140.137 436.191 140.976 436.191 142.417V148.442H438.106V142.186C438.106 139.733 436.761 138.478 434.737 138.478C433.207 138.478 432.285 139.144 431.824 140.207H431.702V135.328H429.813V148.442H431.728V142.602ZM444.629 148.641C446.775 148.641 448.292 147.584 448.728 145.983L446.916 145.657C446.57 146.585 445.737 147.059 444.649 147.059C443.009 147.059 441.908 145.996 441.857 144.101H448.85V143.422C448.85 139.868 446.724 138.478 444.495 138.478C441.754 138.478 439.948 140.566 439.948 143.588C439.948 146.643 441.729 148.641 444.629 148.641ZM441.863 142.666C441.94 141.27 442.952 140.06 444.508 140.06C445.993 140.06 446.967 141.161 446.973 142.666H441.863ZM454.386 148.634C456.179 148.634 456.883 147.539 457.229 146.912H457.389V148.442H459.259V135.328H457.344V140.201H457.229C456.883 139.592 456.23 138.478 454.398 138.478C452.023 138.478 450.274 140.355 450.274 143.544C450.274 146.726 451.997 148.634 454.386 148.634ZM454.808 147.002C453.098 147.002 452.208 145.497 452.208 143.524C452.208 141.571 453.079 140.105 454.808 140.105C456.48 140.105 457.376 141.469 457.376 143.524C457.376 145.593 456.46 147.002 454.808 147.002ZM467.952 144.363C467.958 146.035 466.716 146.829 465.64 146.829C464.455 146.829 463.636 145.971 463.636 144.632V138.606H461.721V144.863C461.721 147.303 463.059 148.57 464.949 148.57C466.428 148.57 467.433 147.789 467.888 146.739H467.99V148.442H469.873V138.606H467.952V144.363ZM474.09 135.328H472.175V148.442H474.09V135.328ZM480.634 148.641C482.78 148.641 484.297 147.584 484.733 145.983L482.921 145.657C482.575 146.585 481.742 147.059 480.654 147.059C479.014 147.059 477.913 145.996 477.862 144.101H484.855V143.422C484.855 139.868 482.728 138.478 480.5 138.478C477.759 138.478 475.953 140.566 475.953 143.588C475.953 146.643 477.734 148.641 480.634 148.641ZM477.868 142.666C477.945 141.27 478.957 140.06 480.513 140.06C481.998 140.06 482.972 141.161 482.978 142.666H477.868ZM486.708 148.442H488.623V142.436C488.623 141.149 489.616 140.22 490.973 140.22C491.37 140.22 491.819 140.29 491.972 140.335V138.504C491.78 138.478 491.402 138.459 491.159 138.459C490.006 138.459 489.02 139.112 488.662 140.169H488.559V138.606H486.708V148.442Z" fill="#17171C"/>
<rect x="564.345" y="112.049" width="195.082" height="59.0164" rx="6.55738" fill="#FBC55A"/>
<path d="M593.154 139.592C592.706 136.788 590.51 135.148 587.737 135.148C584.343 135.148 581.839 137.691 581.839 141.885C581.839 146.079 584.33 148.622 587.737 148.622C590.618 148.622 592.725 146.816 593.154 144.222L591.156 144.216C590.817 145.894 589.408 146.816 587.75 146.816C585.502 146.816 583.805 145.093 583.805 141.885C583.805 138.702 585.495 136.954 587.756 136.954C589.427 136.954 590.83 137.896 591.156 139.592H593.154ZM599.241 148.641C602.014 148.641 603.826 146.611 603.826 143.569C603.826 140.508 602.014 138.478 599.241 138.478C596.468 138.478 594.656 140.508 594.656 143.569C594.656 146.611 596.468 148.641 599.241 148.641ZM599.247 147.034C597.435 147.034 596.59 145.452 596.59 143.563C596.59 141.68 597.435 140.079 599.247 140.079C601.047 140.079 601.892 141.68 601.892 143.563C601.892 145.452 601.047 147.034 599.247 147.034ZM607.607 142.602C607.607 141.033 608.568 140.137 609.9 140.137C611.2 140.137 611.988 140.988 611.988 142.417V148.442H613.902V142.186C613.902 139.753 612.564 138.478 610.553 138.478C609.074 138.478 608.107 139.163 607.652 140.207H607.531V138.606H605.693V148.442H607.607V142.602ZM620.791 138.606H618.774V136.25H616.859V138.606H615.418V140.143H616.859V145.951C616.853 147.738 618.217 148.602 619.728 148.57C620.336 148.564 620.746 148.449 620.97 148.366L620.625 146.784C620.497 146.809 620.26 146.867 619.952 146.867C619.331 146.867 618.774 146.662 618.774 145.554V140.143H620.791V138.606ZM622.639 148.442H624.553V142.436C624.553 141.149 625.546 140.22 626.904 140.22C627.301 140.22 627.749 140.29 627.903 140.335V138.504C627.71 138.478 627.333 138.459 627.089 138.459C625.937 138.459 624.95 139.112 624.592 140.169H624.489V138.606H622.639V148.442ZM633.08 148.641C635.853 148.641 637.665 146.611 637.665 143.569C637.665 140.508 635.853 138.478 633.08 138.478C630.307 138.478 628.495 140.508 628.495 143.569C628.495 146.611 630.307 148.641 633.08 148.641ZM633.086 147.034C631.274 147.034 630.429 145.452 630.429 143.563C630.429 141.68 631.274 140.079 633.086 140.079C634.886 140.079 635.731 141.68 635.731 143.563C635.731 145.452 634.886 147.034 633.086 147.034ZM641.446 135.328H639.532V148.442H641.446V135.328ZM645.667 135.328H643.752V148.442H645.667V135.328ZM652.211 148.641C654.356 148.641 655.874 147.584 656.31 145.983L654.497 145.657C654.151 146.585 653.319 147.059 652.23 147.059C650.591 147.059 649.49 145.996 649.438 144.101H656.431V143.422C656.431 139.868 654.305 138.478 652.077 138.478C649.336 138.478 647.53 140.566 647.53 143.588C647.53 146.643 649.31 148.641 652.211 148.641ZM649.445 142.666C649.522 141.27 650.533 140.06 652.089 140.06C653.575 140.06 654.549 141.161 654.555 142.666H649.445ZM658.285 148.442H660.2V142.436C660.2 141.149 661.192 140.22 662.55 140.22C662.947 140.22 663.395 140.29 663.549 140.335V138.504C663.357 138.478 662.979 138.459 662.736 138.459C661.583 138.459 660.597 139.112 660.238 140.169H660.136V138.606H658.285V148.442ZM669.591 135.328V148.442H671.474V138.946H671.595L675.463 148.423H677.026L680.893 138.952H681.015V148.442H682.898V135.328H680.496L676.321 145.522H676.168L671.992 135.328H669.591ZM688.213 148.66C689.839 148.66 690.755 147.834 691.12 147.098H691.197V148.442H693.067V141.911C693.067 139.048 690.813 138.478 689.25 138.478C687.47 138.478 685.831 139.195 685.19 140.988L686.99 141.398C687.272 140.7 687.989 140.028 689.276 140.028C690.512 140.028 691.146 140.675 691.146 141.789V141.834C691.146 142.532 690.429 142.519 688.661 142.724C686.798 142.942 684.889 143.428 684.889 145.663C684.889 147.597 686.343 148.66 688.213 148.66ZM688.629 147.123C687.547 147.123 686.766 146.637 686.766 145.689C686.766 144.664 687.675 144.299 688.783 144.152C689.404 144.069 690.877 143.902 691.152 143.627V144.895C691.152 146.06 690.224 147.123 688.629 147.123ZM697.261 142.602C697.261 141.033 698.222 140.137 699.554 140.137C700.854 140.137 701.642 140.988 701.642 142.417V148.442H703.556V142.186C703.556 139.753 702.218 138.478 700.207 138.478C698.728 138.478 697.761 139.163 697.306 140.207H697.185V138.606H695.347V148.442H697.261V142.602ZM708.716 148.66C710.343 148.66 711.258 147.834 711.623 147.098H711.7V148.442H713.57V141.911C713.57 139.048 711.316 138.478 709.753 138.478C707.973 138.478 706.334 139.195 705.694 140.988L707.493 141.398C707.775 140.7 708.492 140.028 709.779 140.028C711.015 140.028 711.649 140.675 711.649 141.789V141.834C711.649 142.532 710.932 142.519 709.164 142.724C707.301 142.942 705.393 143.428 705.393 145.663C705.393 147.597 706.846 148.66 708.716 148.66ZM709.132 147.123C708.05 147.123 707.269 146.637 707.269 145.689C707.269 144.664 708.178 144.299 709.286 144.152C709.907 144.069 711.38 143.902 711.655 143.627V144.895C711.655 146.06 710.727 147.123 709.132 147.123ZM719.974 152.336C722.478 152.336 724.412 151.19 724.412 148.66V138.606H722.535V140.201H722.394C722.055 139.592 721.376 138.478 719.545 138.478C717.169 138.478 715.421 140.355 715.421 143.486C715.421 146.624 717.207 148.295 719.532 148.295C721.338 148.295 722.036 147.277 722.382 146.649H722.503V148.583C722.503 150.127 721.447 150.793 719.993 150.793C718.399 150.793 717.777 149.992 717.438 149.429L715.792 150.107C716.311 151.311 717.624 152.336 719.974 152.336ZM719.955 146.707C718.245 146.707 717.355 145.394 717.355 143.46C717.355 141.571 718.226 140.105 719.955 140.105C721.626 140.105 722.522 141.469 722.522 143.46C722.522 145.49 721.607 146.707 719.955 146.707ZM730.948 148.641C733.093 148.641 734.611 147.584 735.047 145.983L733.234 145.657C732.889 146.585 732.056 147.059 730.967 147.059C729.328 147.059 728.227 145.996 728.175 144.101H735.168V143.422C735.168 139.868 733.042 138.478 730.814 138.478C728.073 138.478 726.267 140.566 726.267 143.588C726.267 146.643 728.047 148.641 730.948 148.641ZM728.182 142.666C728.259 141.27 729.27 140.06 730.827 140.06C732.312 140.06 733.286 141.161 733.292 142.666H728.182ZM737.022 148.442H738.937V142.436C738.937 141.149 739.929 140.22 741.287 140.22C741.684 140.22 742.132 140.29 742.286 140.335V138.504C742.094 138.478 741.716 138.459 741.473 138.459C740.32 138.459 739.334 139.112 738.975 140.169H738.873V138.606H737.022V148.442Z" fill="#17171C"/>
<rect x="143.854" y="226.804" width="195.082" height="59.0164" rx="6.55738" fill="#FB9D5A"/>
<path d="M224.344 250.083H222.384V259.714H222.263L215.59 250.083H213.759V263.197H215.737V253.579H215.859L222.525 263.197H224.344V250.083ZM230.949 263.396C233.722 263.396 235.535 261.366 235.535 258.324C235.535 255.263 233.722 253.233 230.949 253.233C228.177 253.233 226.364 255.263 226.364 258.324C226.364 261.366 228.177 263.396 230.949 263.396ZM230.956 261.788C229.144 261.788 228.298 260.207 228.298 258.318C228.298 256.435 229.144 254.834 230.956 254.834C232.755 254.834 233.601 256.435 233.601 258.318C233.601 260.207 232.755 261.788 230.956 261.788ZM241.083 263.389C242.876 263.389 243.581 262.294 243.927 261.667H244.087V263.197H245.957V250.083H244.042V254.956H243.927C243.581 254.347 242.928 253.233 241.096 253.233C238.72 253.233 236.972 255.109 236.972 258.298C236.972 261.481 238.695 263.389 241.083 263.389ZM241.506 261.756C239.796 261.756 238.906 260.252 238.906 258.279C238.906 256.326 239.777 254.86 241.506 254.86C243.177 254.86 244.074 256.224 244.074 258.279C244.074 260.348 243.158 261.756 241.506 261.756ZM252.658 263.396C254.803 263.396 256.321 262.339 256.756 260.738L254.944 260.412C254.598 261.34 253.766 261.814 252.677 261.814C251.038 261.814 249.937 260.751 249.885 258.856H256.878V258.177C256.878 254.623 254.752 253.233 252.524 253.233C249.783 253.233 247.977 255.321 247.977 258.343C247.977 261.398 249.757 263.396 252.658 263.396ZM249.892 257.421C249.969 256.025 250.98 254.815 252.536 254.815C254.022 254.815 254.995 255.916 255.002 257.421H249.892ZM268.184 250.083H266.256L262.984 252.221V254.117L266.122 252.068H266.199V263.197H268.184V250.083Z" fill="#17171C"/>
<rect x="143.854" y="294.017" width="59.5628" height="59.0164" rx="6.55738" fill="#FB755A"/>
<path d="M152.323 330.41H154.302V325.8H156.991C160.033 325.8 161.538 323.962 161.538 321.541C161.538 319.127 160.046 317.295 156.998 317.295H152.323V330.41ZM154.302 324.122V318.992H156.786C158.746 318.992 159.546 320.055 159.546 321.541C159.546 323.027 158.746 324.122 156.812 324.122H154.302ZM167.453 330.609C170.226 330.609 172.038 328.579 172.038 325.537C172.038 322.476 170.226 320.446 167.453 320.446C164.681 320.446 162.868 322.476 162.868 325.537C162.868 328.579 164.681 330.609 167.453 330.609ZM167.46 329.001C165.648 329.001 164.802 327.42 164.802 325.531C164.802 323.648 165.648 322.047 167.46 322.047C169.259 322.047 170.105 323.648 170.105 325.531C170.105 327.42 169.259 329.001 167.46 329.001ZM177.587 330.602C179.38 330.602 180.085 329.507 180.431 328.88H180.591V330.41H182.46V317.295H180.546V322.169H180.431C180.085 321.56 179.432 320.446 177.6 320.446C175.224 320.446 173.476 322.322 173.476 325.511C173.476 328.694 175.199 330.602 177.587 330.602ZM178.01 328.969C176.3 328.969 175.41 327.464 175.41 325.492C175.41 323.539 176.281 322.073 178.01 322.073C179.681 322.073 180.578 323.437 180.578 325.492C180.578 327.561 179.662 328.969 178.01 328.969ZM194.375 317.295H192.447L189.175 319.434V321.33L192.313 319.281H192.39V330.41H194.375V317.295Z" fill="#17171C"/>
<rect x="355.327" y="294.017" width="59.5628" height="59.0164" rx="6.55738" fill="#FB755A"/>
<path d="M363.797 330.41H365.775V325.8H368.465C371.507 325.8 373.012 323.962 373.012 321.541C373.012 319.127 371.519 317.295 368.471 317.295H363.797V330.41ZM365.775 324.122V318.992H368.26C370.22 318.992 371.02 320.055 371.02 321.541C371.02 323.027 370.22 324.122 368.286 324.122H365.775ZM378.927 330.609C381.7 330.609 383.512 328.579 383.512 325.537C383.512 322.476 381.7 320.446 378.927 320.446C376.154 320.446 374.342 322.476 374.342 325.537C374.342 328.579 376.154 330.609 378.927 330.609ZM378.933 329.001C377.121 329.001 376.276 327.42 376.276 325.531C376.276 323.648 377.121 322.047 378.933 322.047C380.733 322.047 381.578 323.648 381.578 325.531C381.578 327.42 380.733 329.001 378.933 329.001ZM389.061 330.602C390.854 330.602 391.558 329.507 391.904 328.88H392.064V330.41H393.934V317.295H392.019V322.169H391.904C391.558 321.56 390.905 320.446 389.074 320.446C386.698 320.446 384.95 322.322 384.95 325.511C384.95 328.694 386.672 330.602 389.061 330.602ZM389.484 328.969C387.774 328.969 386.884 327.464 386.884 325.492C386.884 323.539 387.755 322.073 389.484 322.073C391.155 322.073 392.051 323.437 392.051 325.492C392.051 327.561 391.136 328.969 389.484 328.969ZM405.848 317.295H403.921L400.649 319.434V321.33L403.786 319.281H403.863V330.41H405.848V317.295Z" fill="#17171C"/>
<rect x="566.804" y="294.017" width="59.5628" height="59.0164" rx="6.55738" fill="#FB755A"/>
<path d="M575.273 330.41H577.252V325.8H579.941C582.983 325.8 584.488 323.962 584.488 321.541C584.488 319.127 582.996 317.295 579.948 317.295H575.273V330.41ZM577.252 324.122V318.992H579.737C581.696 318.992 582.497 320.055 582.497 321.541C582.497 323.027 581.696 324.122 579.762 324.122H577.252ZM590.404 330.609C593.176 330.609 594.989 328.579 594.989 325.537C594.989 322.476 593.176 320.446 590.404 320.446C587.631 320.446 585.819 322.476 585.819 325.537C585.819 328.579 587.631 330.609 590.404 330.609ZM590.41 329.001C588.598 329.001 587.752 327.42 587.752 325.531C587.752 323.648 588.598 322.047 590.41 322.047C592.209 322.047 593.055 323.648 593.055 325.531C593.055 327.42 592.209 329.001 590.41 329.001ZM600.537 330.602C602.331 330.602 603.035 329.507 603.381 328.88H603.541V330.41H605.411V317.295H603.496V322.169H603.381C603.035 321.56 602.382 320.446 600.55 320.446C598.175 320.446 596.426 322.322 596.426 325.511C596.426 328.694 598.149 330.602 600.537 330.602ZM600.96 328.969C599.25 328.969 598.36 327.464 598.36 325.492C598.36 323.539 599.231 322.073 600.96 322.073C602.631 322.073 603.528 323.437 603.528 325.492C603.528 327.561 602.612 328.969 600.96 328.969ZM617.325 317.295H615.397L612.125 319.434V321.33L615.263 319.281H615.34V330.41H617.325V317.295Z" fill="#17171C"/>
<rect x="211.886" y="294.017" width="59.5628" height="59.0164" rx="6.55738" fill="#FB755A"/>
<path d="M219.087 330.41H221.066V325.8H223.756C226.797 325.8 228.302 323.962 228.302 321.541C228.302 319.127 226.81 317.295 223.762 317.295H219.087V330.41ZM221.066 324.122V318.992H223.551C225.51 318.992 226.311 320.055 226.311 321.541C226.311 323.027 225.51 324.122 223.576 324.122H221.066ZM234.218 330.609C236.99 330.609 238.803 328.579 238.803 325.537C238.803 322.476 236.99 320.446 234.218 320.446C231.445 320.446 229.633 322.476 229.633 325.537C229.633 328.579 231.445 330.609 234.218 330.609ZM234.224 329.001C232.412 329.001 231.567 327.42 231.567 325.531C231.567 323.648 232.412 322.047 234.224 322.047C236.024 322.047 236.869 323.648 236.869 325.531C236.869 327.42 236.024 329.001 234.224 329.001ZM244.352 330.602C246.145 330.602 246.849 329.507 247.195 328.88H247.355V330.41H249.225V317.295H247.31V322.169H247.195C246.849 321.56 246.196 320.446 244.364 320.446C241.989 320.446 240.24 322.322 240.24 325.511C240.24 328.694 241.963 330.602 244.352 330.602ZM244.774 328.969C243.064 328.969 242.174 327.464 242.174 325.492C242.174 323.539 243.045 322.073 244.774 322.073C246.446 322.073 247.342 323.437 247.342 325.492C247.342 327.561 246.426 328.969 244.774 328.969ZM256.163 330.41H264.795V328.713H258.891V328.617L261.498 325.889C263.899 323.462 264.584 322.303 264.584 320.837C264.584 318.73 262.868 317.116 260.396 317.116C257.944 317.116 256.15 318.704 256.15 321.099H258.04C258.033 319.69 258.943 318.768 260.358 318.768C261.69 318.768 262.701 319.588 262.701 320.894C262.701 322.053 262.01 322.886 260.601 324.378L256.163 328.976V330.41Z" fill="#17171C"/>
<rect x="423.36" y="294.017" width="59.5628" height="59.0164" rx="6.55738" fill="#FB755A"/>
<path d="M430.562 330.41H432.541V325.8H435.23C438.272 325.8 439.777 323.962 439.777 321.541C439.777 319.127 438.285 317.295 435.237 317.295H430.562V330.41ZM432.541 324.122V318.992H435.025C436.985 318.992 437.785 320.055 437.785 321.541C437.785 323.027 436.985 324.122 435.051 324.122H432.541ZM445.692 330.609C448.465 330.609 450.277 328.579 450.277 325.537C450.277 322.476 448.465 320.446 445.692 320.446C442.919 320.446 441.107 322.476 441.107 325.537C441.107 328.579 442.919 330.609 445.692 330.609ZM445.699 329.001C443.886 329.001 443.041 327.42 443.041 325.531C443.041 323.648 443.886 322.047 445.699 322.047C447.498 322.047 448.343 323.648 448.343 325.531C448.343 327.42 447.498 329.001 445.699 329.001ZM455.826 330.602C457.619 330.602 458.324 329.507 458.669 328.88H458.83V330.41H460.699V317.295H458.785V322.169H458.669C458.324 321.56 457.67 320.446 455.839 320.446C453.463 320.446 451.715 322.322 451.715 325.511C451.715 328.694 453.438 330.602 455.826 330.602ZM456.249 328.969C454.539 328.969 453.649 327.464 453.649 325.492C453.649 323.539 454.52 322.073 456.249 322.073C457.92 322.073 458.817 323.437 458.817 325.492C458.817 327.561 457.901 328.969 456.249 328.969ZM467.638 330.41H476.27V328.713H470.366V328.617L472.972 325.889C475.374 323.462 476.059 322.303 476.059 320.837C476.059 318.73 474.343 317.116 471.871 317.116C469.418 317.116 467.625 318.704 467.625 321.099H469.514C469.508 319.69 470.417 318.768 471.832 318.768C473.164 318.768 474.176 319.588 474.176 320.894C474.176 322.053 473.484 322.886 472.076 324.378L467.638 328.976V330.41Z" fill="#17171C"/>
<rect x="634.836" y="294.017" width="59.5628" height="59.0164" rx="6.55738" fill="#FB755A"/>
<path d="M642.037 330.41H644.016V325.8H646.706C649.748 325.8 651.252 323.962 651.252 321.541C651.252 319.127 649.76 317.295 646.712 317.295H642.037V330.41ZM644.016 324.122V318.992H646.501C648.46 318.992 649.261 320.055 649.261 321.541C649.261 323.027 648.46 324.122 646.526 324.122H644.016ZM657.168 330.609C659.941 330.609 661.753 328.579 661.753 325.537C661.753 322.476 659.941 320.446 657.168 320.446C654.395 320.446 652.583 322.476 652.583 325.537C652.583 328.579 654.395 330.609 657.168 330.609ZM657.174 329.001C655.362 329.001 654.517 327.42 654.517 325.531C654.517 323.648 655.362 322.047 657.174 322.047C658.974 322.047 659.819 323.648 659.819 325.531C659.819 327.42 658.974 329.001 657.174 329.001ZM667.302 330.602C669.095 330.602 669.799 329.507 670.145 328.88H670.305V330.41H672.175V317.295H670.26V322.169H670.145C669.799 321.56 669.146 320.446 667.315 320.446C664.939 320.446 663.191 322.322 663.191 325.511C663.191 328.694 664.913 330.602 667.302 330.602ZM667.724 328.969C666.015 328.969 665.125 327.464 665.125 325.492C665.125 323.539 665.995 322.073 667.724 322.073C669.396 322.073 670.292 323.437 670.292 325.492C670.292 327.561 669.377 328.969 667.724 328.969ZM679.114 330.41H687.746V328.713H681.841V328.617L684.448 325.889C686.849 323.462 687.534 322.303 687.534 320.837C687.534 318.73 685.818 317.116 683.346 317.116C680.894 317.116 679.101 318.704 679.101 321.099H680.99C680.983 319.69 681.893 318.768 683.308 318.768C684.64 318.768 685.652 319.588 685.652 320.894C685.652 322.053 684.96 322.886 683.551 324.378L679.114 328.976V330.41Z" fill="#17171C"/>
<rect x="279.918" y="294.017" width="59.5628" height="59.0164" rx="6.55738" fill="#FB755A"/>
<path d="M286.838 330.41H288.817V325.8H291.506C294.548 325.8 296.053 323.962 296.053 321.541C296.053 319.127 294.561 317.295 291.512 317.295H286.838V330.41ZM288.817 324.122V318.992H291.301C293.261 318.992 294.061 320.055 294.061 321.541C294.061 323.027 293.261 324.122 291.327 324.122H288.817ZM301.968 330.609C304.741 330.609 306.553 328.579 306.553 325.537C306.553 322.476 304.741 320.446 301.968 320.446C299.195 320.446 297.383 322.476 297.383 325.537C297.383 328.579 299.195 330.609 301.968 330.609ZM301.975 329.001C300.162 329.001 299.317 327.42 299.317 325.531C299.317 323.648 300.162 322.047 301.975 322.047C303.774 322.047 304.619 323.648 304.619 325.531C304.619 327.42 303.774 329.001 301.975 329.001ZM312.102 330.602C313.895 330.602 314.599 329.507 314.945 328.88H315.105V330.41H316.975V317.295H315.061V322.169H314.945C314.599 321.56 313.946 320.446 312.115 320.446C309.739 320.446 307.991 322.322 307.991 325.511C307.991 328.694 309.713 330.602 312.102 330.602ZM312.525 328.969C310.815 328.969 309.925 327.464 309.925 325.492C309.925 323.539 310.796 322.073 312.525 322.073C314.196 322.073 315.093 323.437 315.093 325.492C315.093 327.561 314.177 328.969 312.525 328.969ZM328.48 330.589C331.156 330.589 333.122 328.989 333.116 326.811C333.122 325.153 332.117 323.962 330.375 323.693V323.59C331.745 323.238 332.636 322.162 332.629 320.689C332.636 318.762 331.054 317.116 328.531 317.116C326.123 317.116 324.189 318.57 324.125 320.702H326.04C326.085 319.498 327.218 318.768 328.505 318.768C329.844 318.768 330.721 319.582 330.714 320.792C330.721 322.06 329.703 322.892 328.249 322.892H327.141V324.506H328.249C330.068 324.506 331.118 325.428 331.118 326.747C331.118 328.022 330.01 328.886 328.467 328.886C327.045 328.886 325.937 328.156 325.86 326.991H323.85C323.933 329.129 325.828 330.589 328.48 330.589Z" fill="#17171C"/>
<rect x="491.395" y="294.017" width="59.5628" height="59.0164" rx="6.55738" fill="#FB755A"/>
<path d="M498.314 330.41H500.293V325.8H502.983C506.024 325.8 507.529 323.962 507.529 321.541C507.529 319.127 506.037 317.295 502.989 317.295H498.314V330.41ZM500.293 324.122V318.992H502.778C504.737 318.992 505.538 320.055 505.538 321.541C505.538 323.027 504.737 324.122 502.803 324.122H500.293ZM513.445 330.609C516.218 330.609 518.03 328.579 518.03 325.537C518.03 322.476 516.218 320.446 513.445 320.446C510.672 320.446 508.86 322.476 508.86 325.537C508.86 328.579 510.672 330.609 513.445 330.609ZM513.451 329.001C511.639 329.001 510.794 327.42 510.794 325.531C510.794 323.648 511.639 322.047 513.451 322.047C515.251 322.047 516.096 323.648 516.096 325.531C516.096 327.42 515.251 329.001 513.451 329.001ZM523.579 330.602C525.372 330.602 526.076 329.507 526.422 328.88H526.582V330.41H528.452V317.295H526.537V322.169H526.422C526.076 321.56 525.423 320.446 523.591 320.446C521.216 320.446 519.467 322.322 519.467 325.511C519.467 328.694 521.19 330.602 523.579 330.602ZM524.001 328.969C522.291 328.969 521.401 327.464 521.401 325.492C521.401 323.539 522.272 322.073 524.001 322.073C525.673 322.073 526.569 323.437 526.569 325.492C526.569 327.561 525.653 328.969 524.001 328.969ZM539.956 330.589C542.633 330.589 544.599 328.989 544.592 326.811C544.599 325.153 543.593 323.962 541.852 323.693V323.59C543.222 323.238 544.112 322.162 544.106 320.689C544.112 318.762 542.53 317.116 540.007 317.116C537.6 317.116 535.666 318.57 535.602 320.702H537.516C537.561 319.498 538.695 318.768 539.982 318.768C541.32 318.768 542.197 319.582 542.191 320.792C542.197 322.06 541.179 322.892 539.726 322.892H538.618V324.506H539.726C541.544 324.506 542.594 325.428 542.594 326.747C542.594 328.022 541.487 328.886 539.943 328.886C538.522 328.886 537.414 328.156 537.337 326.991H535.326C535.41 329.129 537.305 330.589 539.956 330.589Z" fill="#17171C"/>
<rect x="702.868" y="294.017" width="59.5628" height="59.0164" rx="6.55738" fill="#FB755A"/>
<path d="M709.788 330.41H711.767V325.8H714.456C717.498 325.8 719.003 323.962 719.003 321.541C719.003 319.127 717.511 317.295 714.463 317.295H709.788V330.41ZM711.767 324.122V318.992H714.251C716.211 318.992 717.011 320.055 717.011 321.541C717.011 323.027 716.211 324.122 714.277 324.122H711.767ZM724.918 330.609C727.691 330.609 729.503 328.579 729.503 325.537C729.503 322.476 727.691 320.446 724.918 320.446C722.146 320.446 720.333 322.476 720.333 325.537C720.333 328.579 722.146 330.609 724.918 330.609ZM724.925 329.001C723.112 329.001 722.267 327.42 722.267 325.531C722.267 323.648 723.112 322.047 724.925 322.047C726.724 322.047 727.569 323.648 727.569 325.531C727.569 327.42 726.724 329.001 724.925 329.001ZM735.052 330.602C736.845 330.602 737.55 329.507 737.895 328.88H738.056V330.41H739.925V317.295H738.011V322.169H737.895C737.55 321.56 736.897 320.446 735.065 320.446C732.689 320.446 730.941 322.322 730.941 325.511C730.941 328.694 732.664 330.602 735.052 330.602ZM735.475 328.969C733.765 328.969 732.875 327.464 732.875 325.492C732.875 323.539 733.746 322.073 735.475 322.073C737.146 322.073 738.043 323.437 738.043 325.492C738.043 327.561 737.127 328.969 735.475 328.969ZM751.43 330.589C754.107 330.589 756.072 328.989 756.066 326.811C756.072 325.153 755.067 323.962 753.325 323.693V323.59C754.696 323.238 755.586 322.162 755.579 320.689C755.586 318.762 754.004 317.116 751.481 317.116C749.073 317.116 747.139 318.57 747.075 320.702H748.99C749.035 319.498 750.168 318.768 751.455 318.768C752.794 318.768 753.671 319.582 753.665 320.792C753.671 322.06 752.653 322.892 751.199 322.892H750.091V324.506H751.199C753.018 324.506 754.068 325.428 754.068 326.747C754.068 328.022 752.96 328.886 751.417 328.886C749.995 328.886 748.888 328.156 748.811 326.991H746.8C746.883 329.129 748.779 330.589 751.43 330.589Z" fill="#17171C"/>
<rect x="355.327" y="226.804" width="195.082" height="59.0164" rx="6.55738" fill="#FB9D5A"/>
<path d="M434.551 250.083H432.592V259.714H432.47L425.797 250.083H423.966V263.197H425.944V253.579H426.066L432.732 263.197H434.551V250.083ZM441.157 263.396C443.929 263.396 445.742 261.366 445.742 258.324C445.742 255.263 443.929 253.233 441.157 253.233C438.384 253.233 436.571 255.263 436.571 258.324C436.571 261.366 438.384 263.396 441.157 263.396ZM441.163 261.788C439.351 261.788 438.505 260.207 438.505 258.318C438.505 256.435 439.351 254.834 441.163 254.834C442.962 254.834 443.808 256.435 443.808 258.318C443.808 260.207 442.962 261.788 441.163 261.788ZM451.29 263.389C453.083 263.389 453.788 262.294 454.134 261.667H454.294V263.197H456.164V250.083H454.249V254.956H454.134C453.788 254.347 453.135 253.233 451.303 253.233C448.927 253.233 447.179 255.109 447.179 258.298C447.179 261.481 448.902 263.389 451.29 263.389ZM451.713 261.756C450.003 261.756 449.113 260.252 449.113 258.279C449.113 256.326 449.984 254.86 451.713 254.86C453.384 254.86 454.281 256.224 454.281 258.279C454.281 260.348 453.365 261.756 451.713 261.756ZM462.865 263.396C465.01 263.396 466.528 262.339 466.964 260.738L465.151 260.412C464.805 261.34 463.973 261.814 462.884 261.814C461.245 261.814 460.144 260.751 460.092 258.856H467.085V258.177C467.085 254.623 464.959 253.233 462.731 253.233C459.99 253.233 458.184 255.321 458.184 258.343C458.184 261.398 459.964 263.396 462.865 263.396ZM460.099 257.421C460.176 256.025 461.187 254.815 462.743 254.815C464.229 254.815 465.202 255.916 465.209 257.421H460.099ZM473.415 263.197H482.048V261.5H476.143V261.404L478.75 258.676C481.151 256.249 481.836 255.09 481.836 253.624C481.836 251.517 480.12 249.903 477.648 249.903C475.196 249.903 473.403 251.491 473.403 253.886H475.292C475.285 252.477 476.195 251.555 477.61 251.555C478.942 251.555 479.954 252.375 479.954 253.681C479.954 254.84 479.262 255.673 477.853 257.165L473.415 261.763V263.197Z" fill="#17171C"/>
<rect x="566.804" y="226.804" width="195.082" height="59.0164" rx="6.55738" fill="#FB9D5A"/>
<path d="M645.746 250.083H643.786V259.714H643.665L636.992 250.083H635.161V263.197H637.139V253.579H637.261L643.927 263.197H645.746V250.083ZM652.351 263.396C655.124 263.396 656.936 261.366 656.936 258.324C656.936 255.263 655.124 253.233 652.351 253.233C649.579 253.233 647.766 255.263 647.766 258.324C647.766 261.366 649.579 263.396 652.351 263.396ZM652.358 261.788C650.545 261.788 649.7 260.207 649.7 258.318C649.7 256.435 650.545 254.834 652.358 254.834C654.157 254.834 655.002 256.435 655.002 258.318C655.002 260.207 654.157 261.788 652.358 261.788ZM662.485 263.389C664.278 263.389 664.983 262.294 665.328 261.667H665.489V263.197H667.358V250.083H665.444V254.956H665.328C664.983 254.347 664.329 253.233 662.498 253.233C660.122 253.233 658.374 255.109 658.374 258.298C658.374 261.481 660.097 263.389 662.485 263.389ZM662.908 261.756C661.198 261.756 660.308 260.252 660.308 258.279C660.308 256.326 661.179 254.86 662.908 254.86C664.579 254.86 665.476 256.224 665.476 258.279C665.476 260.348 664.56 261.756 662.908 261.756ZM674.06 263.396C676.205 263.396 677.723 262.339 678.158 260.738L676.346 260.412C676 261.34 675.168 261.814 674.079 261.814C672.44 261.814 671.338 260.751 671.287 258.856H678.28V258.177C678.28 254.623 676.154 253.233 673.925 253.233C671.185 253.233 669.379 255.321 669.379 258.343C669.379 261.398 671.159 263.396 674.06 263.396ZM671.294 257.421C671.37 256.025 672.382 254.815 673.938 254.815C675.424 254.815 676.397 255.916 676.404 257.421H671.294ZM689.176 263.377C691.853 263.377 693.819 261.776 693.812 259.598C693.819 257.94 692.813 256.749 691.071 256.48V256.377C692.442 256.025 693.332 254.949 693.326 253.476C693.332 251.549 691.75 249.903 689.227 249.903C686.819 249.903 684.886 251.357 684.821 253.489H686.736C686.781 252.285 687.914 251.555 689.202 251.555C690.54 251.555 691.417 252.369 691.411 253.579C691.417 254.847 690.399 255.679 688.945 255.679H687.838V257.293H688.945C690.764 257.293 691.814 258.215 691.814 259.534C691.814 260.809 690.706 261.673 689.163 261.673C687.742 261.673 686.634 260.943 686.557 259.778H684.546C684.629 261.917 686.525 263.377 689.176 263.377Z" fill="#17171C"/>
<path d="M241.394 173.115V186.64" stroke="#23232A" stroke-width="3.27869"/>
<path d="M452.869 219.426L462.334 203.033L443.404 203.033L452.869 219.426ZM451.23 172.705L451.23 204.672L454.508 204.672L454.508 172.705L451.23 172.705Z" fill="#23232A"/>
<path d="M664.344 173.115V186.64" stroke="#23232A" stroke-width="3.27869"/>
<path d="M239.754 187.459L665.983 187.459" stroke="#23232A" stroke-width="3.27869"/>
</svg>
