<svg width="98" height="98" viewBox="0 0 98 98" fill="none" xmlns="http://www.w3.org/2000/svg">
<path d="M38.6975 21.129C30.2839 15.2631 19.5186 13.9469 17.6251 16.0523C16.089 17.7578 21.8915 27.1009 20.9513 29.8313C20.0138 32.5617 11.7829 30.7953 10.8825 34.2672C10.4561 35.9171 16.7696 39.8975 16.6002 42.2015C16.4307 44.5056 11.5552 43.8541 11.1976 46.8361C10.9566 48.8408 15.4058 49.2831 15.2363 51.6718C15.0668 54.0606 11.8544 53.6236 11.9948 55.9383C12.1086 57.8159 15.6203 56.5791 16.5604 59.7359C17.4979 62.8927 38.7002 21.129 38.7002 21.129H38.6975Z" fill="#EF6122"/>
<path d="M20.7815 77.0133C30.7788 87.9826 59.489 95.4137 78.2469 80.909C81.3295 77.837 101.369 53.809 83.1966 29.2063C69.203 10.2657 27.058 16.9208 20.0612 37.3975C14.6693 53.176 14.6401 70.2734 20.7842 77.0133H20.7815Z" fill="#FAC20C"/>
<path d="M74.8174 95.7554H25.4399" stroke="black" stroke-width="2.66591" stroke-miterlimit="10" stroke-linecap="round"/>
<path d="M16.653 54.095C15.064 67.0293 20.117 81.2003 11.9841 82.0822C3.85114 82.9641 2.70973 73.4381 6.44647 72.3205C10.1832 71.203 11.0545 74.4524 10.4136 76.2877C9.85483 77.4821 11.1207 77.9932 12.323 76.6796C13.6578 75.2204 13.5174 70.5674 9.60324 69.2485C5.69171 67.9297 0.260051 69.2909 0.00581488 77.0133C-0.211345 83.5467 5.66522 90.0694 15.7473 88.0196C25.8294 85.9699 25.6016 83.5414 33.9623 88.4884C36.4676 89.9714 16.653 54.095 16.653 54.095Z" fill="#FAC20C"/>
<path d="M78.247 80.9089C68.6443 88.3612 70.2015 95.1038 63.3212 95.5514C56.4409 95.9989 57.4023 88.6155 52.2805 88.9518C47.1613 89.2881 46.2 95.6626 38.5199 95.5514C30.8399 95.4401 36.6793 86.2558 26.6105 85.6308C21.1153 85.2892 56.7587 77.6542 56.7587 77.6542L78.2444 80.9089H78.247Z" fill="#FAC20C"/>
<path opacity="0.5" d="M78.247 80.9089C68.6443 88.3612 70.2015 95.1038 63.3212 95.5514C56.4409 95.9989 57.4023 88.6155 52.2805 88.9518C47.1613 89.2881 46.2 95.6626 38.5199 95.5514C30.8399 95.4401 36.6793 86.2558 26.6105 85.6308C21.1153 85.2892 56.7587 77.6542 56.7587 77.6542L78.2444 80.9089H78.247Z" fill="url(#paint0_linear_32007_11232)"/>
<path d="M28.1201 26.7169C42.4527 16.5634 59.1343 22.1089 61.2662 23.5178C63.3981 24.9267 66.4198 23.253 64.7222 19.0236C59.0337 4.86055 43.7186 -0.827996 40.4055 0.0962596C37.5057 0.906638 41.5443 14.9903 38.6577 17.8425C36.3404 20.1306 34.762 18.3827 30.8214 17.0613C27.262 15.8669 28.1201 26.7169 28.1201 26.7169Z" fill="#EF6122"/>
<path d="M68.0531 59.6946C64.4691 61.8698 60.3923 61.1488 57.5728 57.4108" stroke="#C15833" stroke-width="1.80879" stroke-miterlimit="10" stroke-linecap="round"/>
<path opacity="0.3" d="M79.2401 57.7443C80.0416 57.7443 80.6913 57.0946 80.6913 56.2931C80.6913 55.4915 80.0416 54.8418 79.2401 54.8418C78.4386 54.8418 77.7888 55.4915 77.7888 56.2931C77.7888 57.0946 78.4386 57.7443 79.2401 57.7443Z" fill="#E83878"/>
<path opacity="0.3" d="M51.6793 57.6834C52.4808 57.6834 53.1306 57.0337 53.1306 56.2321C53.1306 55.4306 52.4808 54.7809 51.6793 54.7809C50.8778 54.7809 50.228 55.4306 50.228 56.2321C50.228 57.0337 50.8778 57.6834 51.6793 57.6834Z" fill="#E83878"/>
<path d="M49.9394 53.2423L89.2083 53.2423C93.9267 53.2423 97.7517 49.4173 97.7517 44.6989V44.6963C97.7517 39.9779 93.9267 36.1529 89.2083 36.1529L49.9394 36.1529C45.221 36.1529 41.396 39.9779 41.396 44.6963V44.6989C41.396 49.4173 45.221 53.2423 49.9394 53.2423Z" fill="#2D2DEA"/>
<path d="M58.8748 51.2349L88.9144 51.2349C92.5242 51.2349 95.4504 48.3086 95.4504 44.6989C95.4504 41.0891 92.5242 38.1629 88.9144 38.1629L58.8748 38.1629C55.2651 38.1629 52.3388 41.0891 52.3388 44.6989C52.3388 48.3086 55.2651 51.2349 58.8748 51.2349Z" fill="#02021C"/>
<path d="M81.0651 51.1977C83.1201 51.1977 84.786 49.5318 84.786 47.4768C84.786 45.4219 83.1201 43.756 81.0651 43.756C79.0101 43.756 77.3442 45.4219 77.3442 47.4768C77.3442 49.5318 79.0101 51.1977 81.0651 51.1977Z" fill="#2A93F2"/>
<path d="M70.3791 51.2004C72.434 51.2004 74.0999 49.5345 74.0999 47.4795C74.0999 45.4246 72.434 43.7587 70.3791 43.7587C68.3241 43.7587 66.6582 45.4246 66.6582 47.4795C66.6582 49.5345 68.3241 51.2004 70.3791 51.2004Z" fill="#2A93F2"/>
<path d="M64.7408 51.1766H86.7402V48.8779H64.7408V51.1766Z" fill="#02021C"/>
<path d="M85.0819 72.0874C88.6253 72.4767 89.2715 76.7987 88.2307 79.5079C87.0151 82.6674 84.4569 83.8088 80.887 83.491" fill="#F99F10"/>
<path d="M71.0008 78.3506L84.9229 71.0254L84.9335 70.9672C85.193 69.5874 84.282 68.258 82.9022 67.9984L80.4446 67.5376L78.7815 67.2251L65.8234 64.7966L64.4939 64.5477L61.7106 64.026C60.3308 63.7664 59.0014 64.6775 58.7418 66.0572L58.7339 66.1022L69.0596 77.9851C69.5389 78.5307 70.3573 78.6843 71.0008 78.348V78.3506Z" fill="white" stroke="#AEAEB5" stroke-width="0.888637"/>
<path d="M58.7341 66.1049L56.2739 79.2325C56.2712 79.2484 56.2712 79.2642 56.2686 79.2801L65.7548 74.1848L58.7341 66.1049Z" fill="#F1F2F2" stroke="#AEAEB5" stroke-width="0.888637"/>
<path d="M82.4681 84.1398L84.8384 71.2423L75.4792 75.999L82.4628 84.1769C82.4628 84.1769 82.1724 83.8369 82.4707 84.1425L82.4681 84.1398Z" fill="#F1F2F2" stroke="#AEAEB5" stroke-width="0.888637"/>
<path d="M75.4764 75.9963L71.0008 78.3506C70.3546 78.6843 69.5389 78.5333 69.0596 77.9878L65.7572 74.1875L56.271 79.2828C56.0406 80.6467 56.9436 81.947 58.3102 82.2039L79.5018 86.1737C80.871 86.4306 82.1872 85.5381 82.4626 84.1769L75.4791 75.9989L75.4764 75.9963Z" fill="#DEDEDE" stroke="#AEAEB5" stroke-width="0.888637"/>
<path d="M54.1266 69C59.0471 69.8501 62.3125 73.1102 61.7113 76.7754C61.1128 80.4406 56.5445 80.4433 52 79.67" fill="#F99F10"/>
<path d="M85.308 72.1742C83.0927 71.9091 80.7102 73.5967 80.547 76.5322C80.3838 79.4651 82.6929 80.787 83.6626 80.8708" fill="#F99F10"/>
<defs>
<linearGradient id="paint0_linear_32007_11232" x1="52.1428" y1="95.0323" x2="52.1428" y2="85.2018" gradientUnits="userSpaceOnUse">
<stop stop-color="#F49314"/>
<stop offset="0.59" stop-color="#F49314" stop-opacity="0.4"/>
<stop offset="1" stop-color="#F49314" stop-opacity="0"/>
</linearGradient>
</defs>
</svg>
