<svg width="25" height="17" viewBox="0 0 25 17" fill="none" xmlns="http://www.w3.org/2000/svg">
<path fill-rule="evenodd" clip-rule="evenodd" d="M10.9692 2.59653C9.66256 3.35188 8.71335 4.69787 8.71335 6.61662V8.14396L7.31035 7.4609C5.47866 6.56913 3.3712 7.28615 2.38133 8.97277C1.78997 9.98043 1.7587 11.5184 2.48749 12.8194C3.18396 14.0628 4.59567 15.112 6.96829 15.112H18.989C20.5556 15.112 21.5691 14.6906 22.1771 14.1682C22.7828 13.6479 23.0611 12.9664 23.0611 12.2803C23.0611 11.5699 22.7634 10.7769 22.1815 10.2104C21.6261 9.66971 20.7638 9.28697 19.497 9.4411L18.1319 9.6073L18.4304 8.29971C18.7858 6.74241 18.6752 5.45396 18.2057 4.46354C17.7442 3.49004 16.8899 2.70499 15.5464 2.2144C14.0336 1.66203 12.305 1.82433 10.9692 2.59653ZM9.97947 0.973167C11.821 -0.0913576 14.164 -0.306618 16.2272 0.446723C17.9857 1.08885 19.2642 2.19167 19.9661 3.67241C20.5108 4.8214 20.6792 6.13574 20.5233 7.53823C21.7736 7.6402 22.7975 8.14044 23.5523 8.87529C24.5217 9.81904 25 11.1027 25 12.2803C25 13.482 24.5024 14.6883 23.4599 15.584C22.4196 16.4776 20.9124 17 18.989 17H6.96829C3.9119 17 1.8337 15.595 0.785317 13.7233C-0.230774 11.9094 -0.261863 9.6715 0.697923 8.03613C1.93985 5.92 4.43633 4.77302 6.89029 5.32058C7.25251 3.35534 8.43257 1.86734 9.97947 0.973167Z" fill="#FF671D"/>
</svg>
