<svg width="213" height="35" viewBox="0 0 213 35" fill="none" xmlns="http://www.w3.org/2000/svg">
<path d="M60.1906 18.765C59.9658 24.8327 55.1716 29.5895 49.2162 29.5895C42.9237 29.5895 38.2793 24.4956 38.2793 18.353C38.2793 12.1729 43.3357 7.07898 49.5158 7.07898C52.2875 7.07898 55.0218 8.27754 57.344 10.4125L55.5461 12.6223C53.7857 11.0867 51.6508 10.0379 49.5158 10.0379C44.9838 10.0379 41.2757 13.746 41.2757 18.3155C41.2757 22.96 44.759 26.5557 49.2537 26.5557C53.2614 26.5557 56.4076 23.6342 57.0443 19.8512H47.9427V17.2293H60.228L60.1906 18.765Z" fill="white"/>
<path d="M70.6407 17.3046H68.9552C67.1199 17.3046 65.6217 18.8028 65.6217 20.6755V29.4026H62.6252V14.4205H65.0973V15.694C65.9213 14.87 67.1948 14.4205 68.6181 14.4205H71.8392L70.6407 17.3046Z" fill="white"/>
<path d="M86.9338 29.4025H84.3868V27.5297C82.4391 29.4399 79.3304 30.3763 76.1841 28.9905C73.8619 27.9792 72.1015 25.8442 71.6521 23.3347C70.7531 18.503 74.4986 14.1957 79.2554 14.1957C81.278 14.1957 83.0384 15.0197 84.3868 16.3306V14.4579H86.9712L86.9338 29.4025ZM83.8624 22.9976C84.5741 19.9638 82.2519 17.1921 79.2554 17.1921C76.671 17.1921 74.5361 19.327 74.5361 21.874C74.5361 24.7955 77.083 27.0428 80.0795 26.5184C81.9522 26.2188 83.4504 24.7955 83.8624 22.9976Z" fill="white"/>
<path d="M92.9641 13.5965V14.4205H97.7209V17.0424H92.9641V29.3651H90.0051V13.634C90.0051 10.3379 92.3648 8.39026 95.3238 8.39026H98.9195L97.7209 11.1994H95.3238C94.0128 11.2743 92.9641 12.3231 92.9641 13.5965Z" fill="white"/>
<path d="M113.602 29.4025H111.055V27.5297C109.107 29.4399 105.999 30.3763 102.852 28.9905C100.53 27.9792 98.7697 25.8442 98.3203 23.3347C97.4213 18.503 101.167 14.1957 105.924 14.1957C107.946 14.1957 109.707 15.0197 111.055 16.3306V14.4579H113.639L113.602 29.4025ZM110.531 22.9976C111.242 19.9638 108.92 17.1921 105.924 17.1921C103.302 17.1921 101.242 19.327 101.242 21.874C101.242 24.7955 103.789 27.0428 106.785 26.5184C108.62 26.2188 110.119 24.7955 110.531 22.9976Z" fill="white"/>
<path d="M129.595 20.5256V29.4025H126.599V20.5256C126.599 18.6528 125.063 17.1546 123.228 17.1546C121.355 17.1546 119.857 18.6528 119.857 20.5256V29.4025H116.86V14.4204H119.332V15.7313C120.419 14.7575 121.842 14.1957 123.34 14.1957C126.823 14.1957 129.595 17.0423 129.595 20.5256Z" fill="white"/>
<path d="M147.199 29.4025H144.652V27.5297C142.705 29.4399 139.596 30.3763 136.449 28.9905C134.127 27.9792 132.367 25.8442 131.917 23.3347C131.019 18.503 134.764 14.1957 139.521 14.1957C141.543 14.1957 143.304 15.0197 144.652 16.3306V14.4579H147.237L147.199 29.4025ZM144.128 22.9976C144.839 19.9638 142.517 17.1921 139.521 17.1921C136.899 17.1921 134.839 19.327 134.839 21.874C134.839 24.7955 137.386 27.0428 140.382 26.5184C142.18 26.2188 143.678 24.7955 144.128 22.9976Z" fill="white"/>
<path d="M167.649 29.4024H156.375V7.11658H159.372V26.3685H167.649V29.4024Z" fill="white"/>
<path d="M183.68 29.4027H181.133V27.4924C179.823 28.8034 177.987 29.6274 175.965 29.6274C171.657 29.6274 168.211 26.1441 168.211 21.8367C168.211 17.6043 171.657 14.0835 175.965 14.0835C177.987 14.0835 179.785 14.9075 181.096 16.2184V14.3082H183.68V29.4027ZM180.721 21.8367C180.721 19.2523 178.624 17.1174 175.965 17.1174C173.343 17.1174 171.245 19.2523 171.245 21.8367C171.245 24.496 173.343 26.5935 175.965 26.5935C178.624 26.5935 180.721 24.496 180.721 21.8367Z" fill="white"/>
<path d="M201.696 21.8741C201.696 26.144 198.213 29.6273 193.943 29.6273C191.92 29.6273 190.047 28.8033 188.736 27.4923V29.4026H186.189V8.31531H189.186V15.8812C190.422 14.7576 192.107 14.0834 193.943 14.0834C198.213 14.1209 201.696 17.5667 201.696 21.8741ZM198.625 21.8741C198.625 19.2522 196.49 17.1547 193.905 17.1547C191.321 17.1547 189.186 19.2522 189.186 21.8741C189.186 24.4585 191.321 26.556 193.905 26.556C196.49 26.556 198.625 24.4585 198.625 21.8741Z" fill="white"/>
<path d="M211.996 15.4315L210.686 17.6414C210.049 17.2668 208.963 16.6301 207.764 16.6301C206.64 16.6301 205.592 17.1919 205.592 18.1283C205.592 19.1396 206.753 19.5516 208.251 20.076C210.648 20.9 212.783 22.548 212.783 25.0201C212.783 27.5296 210.648 29.627 207.577 29.627C205.704 29.627 203.831 28.8779 202.595 28.0914L203.756 25.5819C204.618 26.1063 206.266 26.743 207.502 26.743C209 26.743 209.674 25.8441 209.674 24.9826C209.674 23.9713 208.738 23.372 206.678 22.5855C205.18 21.9862 202.745 20.9749 202.745 18.3156C202.745 15.8061 204.88 14.1206 207.727 14.1206C209.337 14.1206 210.723 14.6824 211.996 15.4315Z" fill="white"/>
<path d="M31.9867 15.3566C31.9493 14.7573 31.8369 14.0831 31.6496 13.3715C31.4623 12.6224 31.1627 11.8358 30.7507 10.9744C30.3387 10.1503 29.7769 9.25142 29.0652 8.38995C28.803 8.05286 28.4659 7.71576 28.1663 7.41612C28.6532 5.46845 27.567 3.78297 27.567 3.78297C25.6942 3.67061 24.4957 4.38225 24.0462 4.68189C23.9713 4.64444 23.8964 4.60698 23.8215 4.60698C23.5218 4.45716 23.1847 4.3448 22.8476 4.26989C22.5106 4.19498 22.1735 4.08261 21.7989 3.97025C21.4618 3.89534 21.0873 3.82043 20.7127 3.74552C20.6378 3.74552 20.6003 3.70806 20.5254 3.70806C19.7014 1.0862 17.3417 0 17.3417 0C14.7199 1.64803 14.233 3.97025 14.233 3.97025C14.233 3.97025 14.233 4.0077 14.1955 4.12007C14.0457 4.15752 13.8959 4.19498 13.746 4.23243C13.5588 4.30734 13.334 4.38225 13.1468 4.45716C12.9595 4.53207 12.7348 4.60698 12.5475 4.68189C12.1729 4.83171 11.7609 5.05645 11.3864 5.24372C11.0118 5.46845 10.6373 5.69318 10.3002 5.91791C10.2627 5.88046 10.2253 5.88046 10.2253 5.88046C6.59211 4.49462 3.37096 6.1801 3.37096 6.1801C3.14623 10.038 4.86917 12.4726 5.20627 12.922C5.13136 13.1468 5.05645 13.4089 4.98154 13.6337C4.71935 14.4951 4.53207 15.3941 4.38225 16.3304C4.3448 16.4428 4.3448 16.5926 4.3448 16.7425C1.01129 18.3905 0 21.7614 0 21.7614C2.80914 24.9826 6.03028 25.1699 6.03028 25.1699C6.44229 25.919 6.9292 26.5932 7.45358 27.2674C7.67831 27.5295 7.90304 27.7917 8.16522 28.0539C7.15393 30.9754 8.31505 33.3725 8.31505 33.3725C11.4238 33.4849 13.4839 32.0242 13.8959 31.6871C14.1955 31.7994 14.5326 31.8743 14.8322 31.9867C15.7686 32.2489 16.7799 32.3613 17.7537 32.4362C18.0159 32.4362 18.2407 32.4362 18.5028 32.4362H18.6152H18.6901H18.8399H18.9898C20.4505 34.5336 23.0349 34.8333 23.0349 34.8333C24.8702 32.8856 24.9826 30.9754 24.9826 30.5634C24.9826 30.5634 24.9826 30.5634 24.9826 30.5259C24.9826 30.4885 24.9826 30.451 24.9826 30.451C24.9826 30.4136 24.9826 30.3761 24.9826 30.3761C25.3571 30.1139 25.7317 29.8143 26.0688 29.5147C26.8179 28.8405 27.4546 28.0914 27.979 27.2674C28.0165 27.1924 28.0914 27.1175 28.1288 27.0426C30.1889 27.155 31.6496 25.7691 31.6496 25.7691C31.3125 23.5967 30.0765 22.548 29.8143 22.3607C29.8143 22.3607 29.8143 22.3607 29.7769 22.3607C29.7394 22.3607 29.7394 22.3607 29.7394 22.3607C29.7394 22.3607 29.7019 22.3607 29.7019 22.3233C29.7019 22.2109 29.7394 22.0611 29.7394 21.9487C29.7394 21.724 29.7769 21.4993 29.7769 21.2371V21.0498V20.9749V20.9374C29.7769 20.8625 29.7769 20.9 29.7769 20.8625V20.7127V20.5254C29.7769 20.4505 29.7769 20.4131 29.7769 20.3381C29.7769 20.2632 29.7769 20.2258 29.7394 20.1509L29.7019 19.9636L29.6645 19.7763C29.627 19.5516 29.5896 19.2894 29.5147 19.0647C29.2899 18.1283 28.9154 17.2668 28.4659 16.4428C27.979 15.6563 27.3797 14.9446 26.7055 14.3453C26.0313 13.746 25.2822 13.2591 24.4957 12.922C23.7091 12.5849 22.8851 12.3227 22.0611 12.2478C21.6491 12.2104 21.2371 12.1729 20.8251 12.1729H20.6752H20.6378C20.6378 12.1729 20.5629 12.1729 20.6003 12.1729H20.5254H20.3756C20.3007 12.1729 20.2632 12.1729 20.1883 12.1729C19.9636 12.1729 19.7763 12.2104 19.5516 12.2478C18.7276 12.3977 17.941 12.6973 17.2668 13.1093C16.5926 13.5213 15.9934 14.0457 15.5064 14.6075C15.0195 15.1693 14.645 15.8435 14.3828 16.4803C14.1206 17.117 13.9708 17.8287 13.9333 18.5028C13.9333 18.6527 13.9333 18.8399 13.9333 18.9898C13.9333 19.0272 13.9333 19.0647 13.9333 19.1021V19.2519C13.9333 19.3269 13.9333 19.4018 13.9333 19.4767C13.9708 19.8138 14.0082 20.1509 14.1206 20.4505C14.3079 21.0873 14.5701 21.6491 14.9446 22.136C15.3192 22.6229 15.7312 22.9975 16.1806 23.3346C16.6301 23.6342 17.117 23.8589 17.6039 24.0088C18.0908 24.1586 18.5403 24.196 19.0272 24.196C19.1021 24.196 19.1396 24.196 19.2145 24.196C19.252 24.196 19.2894 24.196 19.2894 24.196H19.3643C19.4018 24.196 19.4392 24.196 19.5141 24.196H19.5516H19.589C19.6265 24.196 19.664 24.196 19.664 24.196C19.7389 24.196 19.7763 24.1586 19.8138 24.1586C19.8512 24.1586 19.9261 24.1211 19.9636 24.1211C20.076 24.0837 20.1509 24.0837 20.2632 24.0462C20.4505 23.9713 20.6378 23.8964 20.8251 23.8215C21.0123 23.7466 21.1622 23.6342 21.312 23.5218C21.3494 23.4844 21.3869 23.4469 21.4244 23.4469C21.5742 23.3346 21.6116 23.1098 21.4993 22.96C21.3869 22.8102 21.1996 22.7727 21.0498 22.8851C21.0123 22.8851 20.9749 22.9226 20.9374 22.96C20.8251 23.0349 20.6752 23.0724 20.5254 23.1473C20.3756 23.1847 20.2258 23.2222 20.076 23.2596C20.0011 23.2596 19.9261 23.2971 19.8512 23.2971C19.8138 23.2971 19.7763 23.2971 19.7389 23.2971C19.7014 23.2971 19.664 23.2971 19.6265 23.2971C19.589 23.2971 19.5516 23.2971 19.5141 23.2971C19.4767 23.2971 19.4018 23.2971 19.3643 23.2971C19.3269 23.2971 19.3643 23.2971 19.3643 23.2971H19.3269C19.2894 23.2971 19.2894 23.2971 19.252 23.2971C19.2145 23.2971 19.177 23.2971 19.1396 23.2971C18.8025 23.2597 18.4279 23.1473 18.0908 22.9975C17.7537 22.8476 17.4166 22.6229 17.117 22.3607C16.8174 22.0985 16.5552 21.7614 16.3679 21.4243C16.1806 21.0873 16.0308 20.6752 15.9559 20.2258C15.9184 20.0011 15.9184 19.7763 15.9184 19.589C15.9184 19.5141 15.9184 19.4767 15.9184 19.4018V19.3643V19.3269C15.9184 19.2894 15.9184 19.2519 15.9184 19.2519C15.9184 19.1396 15.9559 19.0272 15.9559 18.9149C16.1057 17.9785 16.5926 17.0795 17.3043 16.4054C17.4916 16.2181 17.6788 16.0683 17.8661 15.9559C18.0534 15.8061 18.2781 15.6937 18.5028 15.5813C18.7276 15.469 18.9523 15.3941 19.2145 15.3192C19.4767 15.2442 19.7014 15.2068 19.9636 15.2068C20.076 15.2068 20.2258 15.2068 20.3382 15.2068C20.3756 15.2068 20.4131 15.2068 20.4131 15.2068H20.5254H20.6003C20.6003 15.2068 20.6378 15.2068 20.6003 15.2068H20.6378H20.7502C21.0123 15.2442 21.312 15.2817 21.5742 15.3192C22.0985 15.4315 22.6229 15.6188 23.1473 15.9184C24.1211 16.4803 24.9451 17.3043 25.4695 18.3156C25.7317 18.8399 25.919 19.3643 25.9939 19.9261C26.0313 20.076 26.0313 20.2258 26.0313 20.3381V20.4505V20.5629C26.0313 20.6003 26.0313 20.6378 26.0313 20.6752C26.0313 20.7127 26.0313 20.7502 26.0313 20.7876V20.8625V20.9749C26.0313 21.0498 26.0313 21.1622 26.0313 21.2371C26.0313 21.3869 25.9939 21.5367 25.9939 21.6865C25.9564 21.8364 25.9564 21.9862 25.919 22.136C25.8815 22.2858 25.8441 22.4356 25.8066 22.5855C25.7317 22.8851 25.6193 23.1847 25.507 23.4844C25.2822 24.0462 24.9826 24.608 24.608 25.1324C23.8589 26.1437 22.8476 26.9677 21.724 27.4921C21.1622 27.7543 20.5254 27.9415 19.9261 28.0539C19.6265 28.0914 19.2894 28.1288 18.9898 28.1288H18.9149H18.8774H18.765H18.6152H18.5403C18.5403 28.1288 18.5778 28.1288 18.5403 28.1288H18.5028C18.3156 28.1288 18.1658 28.1288 18.0159 28.0914C17.3417 28.0539 16.6675 27.9415 16.0308 27.7543C15.3941 27.567 14.7573 27.3048 14.158 27.0052C12.9595 26.3684 11.9107 25.507 11.0867 24.4582C10.6747 23.9338 10.3002 23.372 10.0005 22.7727C9.70089 22.1735 9.47616 21.5742 9.28888 20.9374C9.1016 20.3007 8.98924 19.664 8.95178 18.9898V18.8774V18.8399V18.7276V18.6901V18.5778V18.5403V18.5028V18.4279V18.2781V18.2407V18.1657C8.95178 18.0908 8.95178 18.0159 8.95178 17.941C8.95178 17.6039 8.98924 17.3043 9.02669 16.9672C9.06415 16.6301 9.13906 16.293 9.17651 15.9559C9.21397 15.6188 9.32633 15.2817 9.40125 14.9821C9.58852 14.3453 9.81325 13.7086 10.0754 13.1468C10.6373 11.9856 11.3489 10.9369 12.1729 10.1129C12.3977 9.88816 12.6224 9.70088 12.8471 9.51361C13.0719 9.32633 13.2966 9.13906 13.5588 8.98924C13.821 8.83942 14.0457 8.6896 14.3079 8.53977C14.4202 8.46486 14.5701 8.38995 14.6824 8.3525C14.7573 8.31504 14.8322 8.27759 14.8697 8.27759C14.9072 8.27759 15.0195 8.20268 15.057 8.20268C15.3192 8.09031 15.6188 7.97795 15.881 7.90304C15.9559 7.86558 16.0308 7.86558 16.1057 7.82813C16.1806 7.79067 16.2555 7.79067 16.3304 7.75322C16.4803 7.71576 16.6301 7.67831 16.7799 7.64085C16.8548 7.64085 16.9297 7.6034 17.0046 7.6034C17.0796 7.6034 17.1545 7.56594 17.2294 7.56594C17.3043 7.56594 17.3792 7.52849 17.4541 7.52849H17.5665H17.6788C17.7537 7.52849 17.8287 7.49103 17.9036 7.49103C17.9785 7.49103 18.0534 7.49103 18.1658 7.45358C18.2407 7.45358 18.353 7.41612 18.4279 7.41612C18.4654 7.41612 18.5403 7.41612 18.5778 7.41612H18.6901H18.7276H18.8025C18.8774 7.41612 18.9523 7.41612 19.0647 7.41612H19.177C19.177 7.41612 19.2145 7.41612 19.177 7.41612H19.2145H19.252C19.3269 7.41612 19.4018 7.41612 19.4767 7.41612C19.7763 7.41612 20.0385 7.41612 20.3007 7.41612C20.8625 7.45358 21.4244 7.49103 21.9487 7.6034C22.9975 7.79067 24.0088 8.12777 24.9077 8.57723C25.8066 9.02669 26.6306 9.55106 27.3423 10.1503C27.3797 10.1878 27.4172 10.2253 27.4546 10.2627C27.4921 10.3002 27.5295 10.3376 27.567 10.3751C27.6419 10.45 27.7168 10.5249 27.8292 10.5998C27.9415 10.6747 27.979 10.7496 28.0539 10.8245C28.1288 10.8994 28.2037 10.9744 28.2786 11.0493C28.5783 11.3864 28.8405 11.686 29.1027 12.0231C29.5896 12.6598 30.0016 13.334 30.3387 13.9333C30.3761 13.9708 30.3761 14.0082 30.4136 14.0457C30.451 14.0831 30.451 14.1206 30.4885 14.158C30.526 14.233 30.5634 14.3079 30.6009 14.3828C30.6383 14.4577 30.6758 14.5326 30.7132 14.6075C30.7507 14.6824 30.7881 14.7573 30.7881 14.8322C30.9005 15.1319 31.0129 15.3941 31.0878 15.6563C31.2376 16.0683 31.35 16.4428 31.4249 16.7799C31.4623 16.8923 31.5747 17.0046 31.7245 16.9672C31.8743 16.9672 31.9867 16.8548 31.9867 16.705C32.0616 16.2555 32.0242 15.8435 31.9867 15.3566Z" fill="#FF671D"/>
</svg>
