<svg width="213" height="33" viewBox="0 0 213 33" fill="none" xmlns="http://www.w3.org/2000/svg">
  <path d="M104.055 31.4682L104.058 31.4502L104.051 31.2216C104.072 31.2125 104 31.0988 103.834 30.8805C103.762 30.7667 103.415 30.4331 102.794 29.8795L99.3443 28.2055C99.168 28.3441 98.7974 28.5749 98.2323 28.8978C96.2562 29.8901 94.7434 30.6704 93.6937 31.2388C93.0266 31.6412 92.6996 31.9071 92.7126 32.0365C92.6397 32.1334 92.8026 32.2303 93.2012 32.3272C93.4668 32.3819 93.8521 32.4162 94.3569 32.4301C94.9495 32.4397 95.4861 32.4374 95.9667 32.4232C96.1252 32.4225 97.8791 32.3626 101.228 32.2436C102.183 32.1932 102.887 32.1053 103.34 31.98C103.771 31.8592 104.009 31.6886 104.055 31.4682Z" fill="#BCBCC8"/>
  <path d="M110.718 24.9251L110.491 24.6748C109.539 23.97 105.827 22.9662 99.3568 21.6635C99.4522 23.1591 99.4838 24.0128 99.4518 24.2246C99.1632 25.5419 99.0171 26.2626 99.0135 26.3868C99.0009 26.4775 98.9972 26.5382 99.0025 26.5691C99.0155 26.6904 99.0554 26.7942 99.1224 26.8804C99.2825 27.0856 99.6906 27.1742 100.347 27.1461C101.14 27.1294 102.292 26.989 103.802 26.725C106.586 26.1858 108.571 25.7589 109.758 25.4443C110.046 25.3725 110.269 25.2984 110.427 25.2221C110.582 25.1661 110.679 25.0671 110.718 24.9251Z" fill="#BCBCC8"/>
  <path d="M104.458 18.2986L104.448 18.2766C104.378 18.0775 103.684 17.9258 102.368 17.8216C101.446 17.758 100.841 17.7228 100.552 17.7158C100.04 17.6972 98.8988 17.6689 97.1273 17.631L95.3357 17.6091C94.2723 17.6036 93.4709 17.6167 92.9316 17.6481L91.131 18.1839C92.0554 18.3657 93.0685 18.6605 94.1705 19.0684C94.8089 19.3043 95.4097 19.5521 95.9728 19.8116L97.9229 20.8036C98.1791 20.9245 98.4852 20.9853 98.8411 20.9859C99.1763 20.981 99.5623 20.9029 99.9994 20.7514C100.342 20.6353 100.821 20.4313 101.435 20.1392C102.722 19.5087 103.583 19.0649 104.018 18.8077C104.209 18.687 104.339 18.5799 104.408 18.4863C104.466 18.3753 104.483 18.3127 104.458 18.2986Z" fill="#BCBCC8"/>
  <path d="M96.8328 24.9346L96.8081 25.3725C96.6825 26.5517 96.0785 27.8218 94.9962 29.1827C94.2838 29.9129 93.4609 30.5012 92.5274 30.9474C91.594 31.3937 90.55 31.6979 89.3955 31.8603C87.913 32.0379 85.9307 32.1482 83.4486 32.191C81.2499 32.2112 79.1185 32.1185 77.0543 31.9131C76.0222 31.8104 75.0069 31.6795 74.0084 31.5204L70.9773 31.2607C70.3559 31.1813 69.555 31.0015 68.5747 30.7216C65.2685 29.7175 63.1024 28.8982 62.0764 28.2638C60.7363 27.4135 60.056 26.45 60.0355 25.3732C60.1853 24.1842 60.8027 23.182 61.8878 22.3668C62.9979 21.6039 63.7549 21.1617 64.1589 21.0404C64.7774 20.7652 65.4716 20.5031 66.2417 20.254C70.8149 18.8665 75.9989 18.0785 81.7937 17.8901C83.812 17.8533 85.7469 17.9563 87.5982 18.1992C89.4414 18.4628 91.0435 18.9218 92.4045 19.576C95.4081 21.1881 96.8842 22.9742 96.8328 24.9346Z" fill="#BCBCC8"/>
  <path d="M206.055 31.4682L206.058 31.4502L206.051 31.2216C206.072 31.2125 206 31.0988 205.834 30.8805C205.762 30.7667 205.415 30.4331 204.794 29.8795L201.344 28.2055C201.168 28.3441 200.797 28.5749 200.232 28.8978C198.256 29.8901 196.743 30.6704 195.694 31.2388C195.027 31.6412 194.7 31.9071 194.713 32.0365C194.64 32.1334 194.803 32.2303 195.201 32.3272C195.467 32.3819 195.852 32.4162 196.357 32.4301C196.95 32.4397 197.486 32.4374 197.967 32.4232C198.125 32.4225 199.879 32.3626 203.228 32.2436C204.183 32.1932 204.887 32.1053 205.34 31.98C205.771 31.8592 206.009 31.6886 206.055 31.4682Z" fill="#BCBCC8"/>
  <path d="M212.718 24.9251L212.491 24.6748C211.539 23.97 207.827 22.9662 201.357 21.6635C201.452 23.1591 201.484 24.0128 201.452 24.2246C201.163 25.5419 201.017 26.2626 201.014 26.3868C201.001 26.4775 200.997 26.5382 201.002 26.5691C201.015 26.6904 201.055 26.7942 201.122 26.8804C201.283 27.0856 201.691 27.1742 202.347 27.1461C203.14 27.1294 204.292 26.989 205.802 26.725C208.586 26.1858 210.571 25.7589 211.758 25.4443C212.046 25.3725 212.269 25.2984 212.427 25.2221C212.582 25.1661 212.679 25.0671 212.718 24.9251Z" fill="#BCBCC8"/>
  <path d="M206.458 18.2986L206.448 18.2766C206.378 18.0775 205.684 17.9258 204.368 17.8216C203.446 17.758 202.841 17.7228 202.552 17.7158C202.04 17.6972 200.899 17.6689 199.127 17.631L197.336 17.6091C196.272 17.6036 195.471 17.6167 194.932 17.6481L193.131 18.1839C194.055 18.3657 195.069 18.6605 196.17 19.0684C196.809 19.3043 197.41 19.5521 197.973 19.8116L199.923 20.8036C200.179 20.9245 200.485 20.9853 200.841 20.9859C201.176 20.981 201.562 20.9029 201.999 20.7514C202.342 20.6353 202.821 20.4313 203.435 20.1392C204.722 19.5087 205.583 19.0649 206.018 18.8077C206.209 18.687 206.339 18.5799 206.408 18.4863C206.466 18.3753 206.483 18.3127 206.458 18.2986Z" fill="#BCBCC8"/>
  <path d="M198.833 24.9346L198.808 25.3725C198.683 26.5517 198.079 27.8218 196.996 29.1827C196.284 29.9129 195.461 30.5012 194.527 30.9474C193.594 31.3937 192.55 31.6979 191.396 31.8603C189.913 32.0379 187.931 32.1482 185.449 32.191C183.25 32.2112 181.119 32.1185 179.054 31.9131C178.022 31.8104 177.007 31.6795 176.008 31.5204L172.977 31.2607C172.356 31.1813 171.555 31.0015 170.575 30.7216C167.269 29.7175 165.102 28.8982 164.076 28.2638C162.736 27.4135 162.056 26.45 162.036 25.3732C162.185 24.1842 162.803 23.182 163.888 22.3668C164.998 21.6039 165.755 21.1617 166.159 21.0404C166.777 20.7652 167.472 20.5031 168.242 20.254C172.815 18.8665 177.999 18.0785 183.794 17.8901C185.812 17.8533 187.747 17.9563 189.598 18.1992C191.441 18.4628 193.044 18.9218 194.405 19.576C197.408 21.1881 198.884 22.9742 198.833 24.9346Z" fill="#BCBCC8"/>
  <path d="M155.052 15.4761L155.055 15.458L155.048 15.2294C155.069 15.2204 154.996 15.1066 154.831 14.8883C154.758 14.7745 154.412 14.4409 153.791 13.8873L150.341 12.2133C150.165 12.352 149.794 12.5828 149.229 12.9056C147.253 13.8979 145.74 14.6782 144.69 15.2466C144.023 15.649 143.696 15.9149 143.709 16.0443C143.636 16.1412 143.799 16.2381 144.198 16.335C144.463 16.3897 144.849 16.424 145.353 16.4379C145.946 16.4475 146.483 16.4452 146.963 16.4311C147.122 16.4303 148.876 16.3704 152.225 16.2514C153.18 16.201 153.883 16.1131 154.336 15.9878C154.767 15.867 155.006 15.6964 155.052 15.4761Z" fill="#BCBCC8"/>
  <path d="M161.715 8.93291L161.487 8.68264C160.535 7.97784 156.824 6.97404 150.353 5.67128C150.449 7.16686 150.48 8.02057 150.448 8.23239C150.16 9.54971 150.014 10.2705 150.01 10.3946C149.998 10.4853 149.994 10.546 149.999 10.5769C150.012 10.6982 150.052 10.802 150.119 10.8882C150.279 11.0934 150.687 11.182 151.343 11.1539C152.137 11.1372 153.289 10.9968 154.799 10.7328C157.583 10.1936 159.568 9.76671 160.755 9.45211C161.042 9.3803 161.265 9.30622 161.424 9.22988C161.579 9.1739 161.676 9.0749 161.715 8.93291Z" fill="#BCBCC8"/>
  <path d="M155.454 2.30642L155.445 2.28444C155.374 2.08529 154.681 1.93363 153.365 1.82946C152.443 1.76585 151.837 1.73059 151.548 1.72366C151.037 1.70501 149.895 1.67674 148.124 1.63883L146.332 1.61687C145.269 1.61145 144.468 1.62447 143.928 1.65594L142.128 2.19175C143.052 2.37349 144.065 2.66831 145.167 3.07621C145.805 3.31213 146.406 3.55988 146.969 3.81945L148.919 4.81141C149.176 4.9323 149.482 4.99307 149.838 4.99368C150.173 4.98884 150.559 4.91068 150.996 4.75923C151.339 4.64316 151.818 4.43909 152.432 4.14699C153.719 3.51649 154.579 3.07266 155.014 2.81551C155.206 2.69483 155.336 2.5877 155.404 2.49412C155.463 2.38306 155.479 2.32049 155.454 2.30642Z" fill="#BCBCC8"/>
  <path d="M148.197 8.94241L148.172 9.38036C148.047 10.5596 147.443 11.8296 146.36 13.1905C145.648 13.9207 144.825 14.509 143.892 14.9552C142.958 15.4015 141.914 15.7058 140.76 15.8681C139.277 16.0458 137.295 16.156 134.813 16.1988C132.614 16.219 130.483 16.1263 128.418 15.9209C127.386 15.8182 126.371 15.6873 125.373 15.5282L122.341 15.2685C121.72 15.1891 120.919 15.0094 119.939 14.7294C116.633 13.7253 114.467 12.906 113.44 12.2716C112.1 11.4213 111.42 10.4578 111.4 9.38101C111.549 8.19199 112.167 7.18986 113.252 6.37462C114.362 5.61167 115.119 5.16955 115.523 5.04825C116.141 4.77306 116.836 4.5109 117.606 4.26177C122.179 2.87432 127.363 2.08635 133.158 1.89788C135.176 1.8611 137.111 1.96413 138.962 2.20697C140.806 2.47064 142.408 2.9296 143.769 3.58386C146.772 5.19587 148.248 6.98206 148.197 8.94241Z" fill="#BCBCC8"/>
  <path d="M36.8328 9.08694L36.8081 9.52489C36.6825 10.7041 36.0785 11.9741 34.9962 13.335C34.2838 14.0653 33.4609 14.6535 32.5274 15.0997C31.594 15.546 30.55 15.8503 29.3955 16.0126C27.913 16.1903 25.9307 16.3005 23.4486 16.3434C21.2499 16.3635 19.1185 16.2709 17.0543 16.0654C16.0222 15.9627 15.0069 15.8318 14.0084 15.6727L10.9773 15.4131C10.3559 15.3336 9.55503 15.1539 8.57471 14.8739C5.26849 13.8698 3.10237 13.0506 2.07635 12.4162C0.736272 11.5659 0.055973 10.6023 0.0354639 9.52554C0.185277 8.33652 0.802717 7.33439 1.88778 6.51915C2.99789 5.7562 3.75494 5.31408 4.15893 5.19278C4.77735 4.91759 5.4716 4.65543 6.24168 4.4063C10.8149 3.01885 15.9989 2.23089 21.7937 2.04241C23.812 2.00563 25.7469 2.10866 27.5982 2.3515C29.4414 2.61517 31.0435 3.07413 32.4045 3.72839C35.4081 5.3404 36.8842 7.12659 36.8328 9.08694Z" fill="#BCBCC8"/>
  <path d="M44.5652 1.23917L44.575 1.25584L44.6326 1.46934C44.6636 1.47658 44.6002 1.58684 44.4426 1.80012C44.3792 1.91037 44.0132 2.24166 43.3444 2.79399L39.2161 4.5555C38.9389 4.43643 38.3741 4.24275 37.5216 3.97446C34.5809 3.16399 32.3233 2.52427 30.749 2.05529C29.7363 1.71876 29.2196 1.4898 29.1988 1.36841C29.0726 1.28223 29.2623 1.1824 29.7678 1.06894C30.1076 1.00245 30.6136 0.948071 31.286 0.905793C32.0773 0.862439 32.797 0.833401 33.4451 0.818668C33.6577 0.810188 36.0256 0.764076 40.5487 0.680339C41.843 0.671949 42.8118 0.712992 43.4554 0.803487C44.0686 0.891143 44.4385 1.03637 44.5652 1.23917Z" fill="#BCBCC8"/>
  <path d="M53.7807 7.27204L53.5546 7.56682C52.5437 8.40666 48.2709 9.67675 40.7362 11.3771C40.565 9.6554 40.4399 8.67335 40.3608 8.43094C39.7619 6.92614 39.4484 6.10244 39.4203 5.95986C39.3879 5.85607 39.3718 5.78636 39.3722 5.75073C39.3646 5.61089 39.3929 5.49039 39.457 5.3892C39.6104 5.14836 40.0843 5.03379 40.8789 5.0455C41.8368 5.03975 43.2494 5.16488 45.1167 5.42087C48.5685 5.95307 51.0382 6.38129 52.5261 6.70556C52.8857 6.77906 53.1682 6.85718 53.3734 6.93994C53.5707 6.99939 53.7065 7.1101 53.7807 7.27204Z" fill="#BCBCC8"/>
  <path d="M48.5427 15.366L48.5398 15.3925C48.5306 15.6317 47.6939 15.8605 46.0296 16.0788C44.8598 16.2207 44.0889 16.3062 43.7169 16.3354C43.0609 16.3945 41.5916 16.5108 39.309 16.6843L36.9935 16.8406C35.616 16.9243 34.5708 16.9674 33.858 16.9696L31.2994 16.4708C32.4232 16.1898 33.6154 15.7695 34.8757 15.2098C35.6061 14.886 36.2827 14.551 36.9056 14.2049L39.0238 12.8968C39.3062 12.736 39.6781 12.6423 40.1395 12.6157C40.5764 12.5969 41.1098 12.6607 41.7397 12.8069C42.2331 12.9184 42.9389 13.1235 43.8571 13.4222C45.7883 14.0697 47.0895 14.5289 47.7607 14.7995C48.0592 14.9274 48.2722 15.0439 48.3998 15.149C48.5219 15.2753 48.5695 15.3476 48.5427 15.366Z" fill="#BCBCC8"/>
</svg>