<svg width="213" height="33" viewBox="0 0 213 33" fill="none" xmlns="http://www.w3.org/2000/svg">
  <path d="M108.917 31.4682L108.913 31.4502L108.921 31.2216C108.9 31.2125 108.972 31.0988 109.138 30.8805C109.21 30.7667 109.557 30.4331 110.178 29.8795L113.627 28.2055C113.804 28.3441 114.174 28.5749 114.739 28.8978C116.715 29.8901 118.228 30.6704 119.278 31.2388C119.945 31.6412 120.272 31.9071 120.259 32.0365C120.332 32.1334 120.169 32.2303 119.77 32.3272C119.505 32.3819 119.12 32.4162 118.615 32.4301C118.022 32.4397 117.486 32.4374 117.005 32.4232C116.846 32.4225 115.093 32.3626 111.743 32.2436C110.789 32.1932 110.085 32.1053 109.632 31.98C109.201 31.8592 108.963 31.6886 108.917 31.4682Z" fill="#BCBCC8"/>
  <path d="M102.253 24.9251L102.481 24.6748C103.433 23.97 107.144 22.9662 113.615 21.6635C113.52 23.1591 113.488 24.0128 113.52 24.2246C113.808 25.5419 113.955 26.2626 113.958 26.3868C113.971 26.4775 113.974 26.5382 113.969 26.5691C113.956 26.6904 113.916 26.7942 113.849 26.8804C113.689 27.0856 113.281 27.1742 112.625 27.1461C111.831 27.1294 110.68 26.989 109.169 26.725C106.386 26.1858 104.4 25.7589 103.214 25.4443C102.926 25.3725 102.703 25.2984 102.545 25.2221C102.389 25.1661 102.292 25.0671 102.253 24.9251Z" fill="#BCBCC8"/>
  <path d="M108.514 18.2986L108.523 18.2766C108.594 18.0775 109.287 17.9258 110.604 17.8216C111.526 17.758 112.131 17.7228 112.42 17.7158C112.931 17.6972 114.073 17.6689 115.844 17.631L117.636 17.6091C118.699 17.6036 119.501 17.6167 120.04 17.6481L121.841 18.1839C120.916 18.3657 119.903 18.6605 118.801 19.0684C118.163 19.3043 117.562 19.5521 116.999 19.8116L115.049 20.8036C114.793 20.9245 114.486 20.9853 114.131 20.9859C113.795 20.981 113.409 20.9029 112.972 20.7514C112.629 20.6353 112.151 20.4313 111.536 20.1392C110.25 19.5087 109.389 19.0649 108.954 18.8077C108.762 18.687 108.632 18.5799 108.564 18.4863C108.506 18.3753 108.489 18.3127 108.514 18.2986Z" fill="#BCBCC8"/>
  <path d="M116.139 24.9346L116.164 25.3725C116.289 26.5517 116.893 27.8218 117.975 29.1827C118.688 29.9129 119.511 30.5012 120.444 30.9474C121.378 31.3937 122.422 31.6979 123.576 31.8603C125.059 32.0379 127.041 32.1482 129.523 32.191C131.722 32.2112 133.853 32.1185 135.917 31.9131C136.949 31.8104 137.965 31.6795 138.963 31.5204L141.994 31.2607C142.616 31.1813 143.417 31.0015 144.397 30.7216C147.703 29.7175 149.869 28.8982 150.895 28.2638C152.235 27.4135 152.916 26.45 152.936 25.3732C152.786 24.1842 152.169 23.182 151.084 22.3668C149.974 21.6039 149.217 21.1617 148.813 21.0404C148.194 20.7652 147.5 20.5031 146.73 20.254C142.157 18.8665 136.973 18.0785 131.178 17.8901C129.16 17.8533 127.225 17.9563 125.373 18.1992C123.53 18.4628 121.928 18.9218 120.567 19.576C117.564 21.1881 116.088 22.9742 116.139 24.9346Z" fill="#BCBCC8"/>
  <path d="M6.91662 31.4682L6.91331 31.4502L6.92065 31.2216C6.89954 31.2125 6.97187 31.0988 7.13764 30.8805C7.20998 30.7667 7.55664 30.4331 8.17765 29.8795L11.6274 28.2055C11.8036 28.3441 12.1743 28.5749 12.7394 28.8978C14.7154 29.8901 16.2283 30.6704 17.278 31.2388C17.945 31.6412 18.2721 31.9071 18.2591 32.0365C18.3319 32.1334 18.1691 32.2303 17.7704 32.3272C17.5048 32.3819 17.1196 32.4162 16.6148 32.4301C16.0221 32.4397 15.4856 32.4374 15.005 32.4232C14.8465 32.4225 13.0926 32.3626 9.74331 32.2436C8.78852 32.1932 8.0848 32.1053 7.63215 31.98C7.20113 31.8592 6.96262 31.6886 6.91662 31.4682Z" fill="#BCBCC8"/>
  <path d="M0.253186 24.9251L0.480917 24.6748C1.43317 23.97 5.14448 22.9662 11.6149 21.6635C11.5195 23.1591 11.4879 24.0128 11.5199 24.2246C11.8085 25.5419 11.9546 26.2626 11.9581 26.3868C11.9708 26.4775 11.9745 26.5382 11.9692 26.5691C11.9562 26.6904 11.9162 26.7942 11.8492 26.8804C11.6891 27.0856 11.2811 27.1742 10.625 27.1461C9.83145 27.1294 8.6795 26.989 7.16919 26.725C4.38557 26.1858 2.40038 25.7589 1.21362 25.4443C0.926019 25.3725 0.703008 25.2984 0.544579 25.2221C0.38944 25.1661 0.292311 25.0671 0.253186 24.9251Z" fill="#BCBCC8"/>
  <path d="M6.51405 18.2986L6.52324 18.2766C6.59407 18.0775 7.2875 17.9258 8.60354 17.8216C9.52552 17.758 10.131 17.7228 10.4199 17.7158C10.9314 17.6972 12.0729 17.6689 13.8443 17.631L15.636 17.6091C16.6994 17.6036 17.5007 17.6167 18.0401 17.6481L19.8406 18.1839C18.9163 18.3657 17.9032 18.6605 16.8012 19.0684C16.1628 19.3043 15.562 19.5521 14.9988 19.8116L13.0488 20.8036C12.7925 20.9245 12.4865 20.9853 12.1306 20.9859C11.7954 20.981 11.4093 20.9029 10.9723 20.7514C10.6292 20.6353 10.1505 20.4313 9.53635 20.1392C8.24965 19.5087 7.38881 19.0649 6.95384 18.8077C6.76239 18.687 6.63248 18.5799 6.5641 18.4863C6.50554 18.3753 6.48884 18.3127 6.51405 18.2986Z" fill="#BCBCC8"/>
  <path d="M14.1389 24.9346L14.1636 25.3725C14.2892 26.5517 14.8932 27.8218 15.9755 29.1827C16.6879 29.9129 17.5108 30.5012 18.4443 30.9474C19.3777 31.3937 20.4217 31.6979 21.5762 31.8603C23.0586 32.0379 25.041 32.1482 27.5231 32.191C29.7218 32.2112 31.8532 32.1185 33.9174 31.9131C34.9495 31.8104 35.9648 31.6795 36.9632 31.5204L39.9944 31.2607C40.6158 31.1813 41.4166 31.0015 42.397 30.7216C45.7032 29.7175 47.8693 28.8982 48.8953 28.2638C50.2354 27.4135 50.9157 26.45 50.9362 25.3732C50.7864 24.1842 50.169 23.182 49.0839 22.3668C47.9738 21.6039 47.2167 21.1617 46.8128 21.0404C46.1943 20.7652 45.5001 20.5031 44.73 20.254C40.1567 18.8665 34.9727 18.0785 29.178 17.8901C27.1597 17.8533 25.2248 17.9563 23.3735 18.1992C21.5303 18.4628 19.9282 18.9218 18.5672 19.576C15.5636 21.1881 14.0875 22.9742 14.1389 24.9346Z" fill="#BCBCC8"/>
  <path d="M57.92 15.4761L57.9167 15.458L57.9241 15.2294C57.903 15.2204 57.9753 15.1066 58.1411 14.8883C58.2134 14.7745 58.5601 14.4409 59.1811 13.8873L62.6308 12.2133C62.8071 12.352 63.1777 12.5828 63.7428 12.9056C65.7189 13.8979 67.2317 14.6782 68.2814 15.2466C68.9485 15.649 69.2755 15.9149 69.2625 16.0443C69.3354 16.1412 69.1725 16.2381 68.7739 16.335C68.5082 16.3897 68.123 16.424 67.6182 16.4379C67.0256 16.4475 66.489 16.4452 66.0084 16.4311C65.8499 16.4303 64.096 16.3704 60.7467 16.2514C59.7919 16.201 59.0882 16.1131 58.6356 15.9878C58.2045 15.867 57.966 15.6964 57.92 15.4761Z" fill="#BCBCC8"/>
  <path d="M51.2566 8.93291L51.4843 8.68264C52.4366 7.97784 56.1479 6.97404 62.6183 5.67128C62.5229 7.16686 62.4913 8.02057 62.5233 8.23239C62.8119 9.54971 62.958 10.2705 62.9616 10.3946C62.9742 10.4853 62.9779 10.546 62.9726 10.5769C62.9596 10.6982 62.9197 10.802 62.8527 10.8882C62.6926 11.0934 62.2845 11.182 61.6285 11.1539C60.8349 11.1372 59.6829 10.9968 58.1726 10.7328C55.389 10.1936 53.4038 9.76671 52.217 9.45211C51.9294 9.3803 51.7064 9.30622 51.548 9.22988C51.3929 9.1739 51.2957 9.0749 51.2566 8.93291Z" fill="#BCBCC8"/>
  <path d="M57.5175 2.30642L57.5267 2.28444C57.5975 2.08529 58.2909 1.93363 59.607 1.82946C60.5289 1.76585 61.1344 1.73059 61.4234 1.72366C61.9349 1.70501 63.0763 1.67674 64.8478 1.63883L66.6394 1.61687C67.7028 1.61145 68.5042 1.62447 69.0435 1.65594L70.8441 2.19175C69.9197 2.37349 68.9066 2.66831 67.8046 3.07621C67.1662 3.31213 66.5654 3.55988 66.0023 3.81945L64.0522 4.81141C63.796 4.9323 63.4899 4.99307 63.134 4.99368C62.7988 4.98884 62.4127 4.91068 61.9757 4.75923C61.6326 4.64316 61.154 4.43909 60.5398 4.14699C59.2531 3.51649 58.3922 3.07266 57.9573 2.81551C57.7658 2.69483 57.6359 2.5877 57.5675 2.49412C57.509 2.38306 57.4923 2.32049 57.5175 2.30642Z" fill="#BCBCC8"/>
  <path d="M64.7747 8.94241L64.7994 9.38036C64.925 10.5596 65.529 11.8296 66.6114 13.1905C67.3238 13.9207 68.1467 14.509 69.0801 14.9552C70.0136 15.4015 71.0576 15.7058 72.212 15.8681C73.6945 16.0458 75.6768 16.156 78.159 16.1988C80.3576 16.219 82.489 16.1263 84.5532 15.9209C85.5853 15.8182 86.6006 15.6873 87.5991 15.5282L90.6302 15.2685C91.2516 15.1891 92.0525 15.0094 93.0328 14.7294C96.3391 13.7253 98.5052 12.906 99.5312 12.2716C100.871 11.4213 101.552 10.4578 101.572 9.38101C101.422 8.19199 100.805 7.18986 99.7198 6.37462C98.6097 5.61167 97.8526 5.16955 97.4486 5.04825C96.8302 4.77306 96.1359 4.5109 95.3659 4.26177C90.7926 2.87432 85.6086 2.08635 79.8139 1.89788C77.7955 1.8611 75.8607 1.96413 74.0094 2.20697C72.1662 2.47064 70.564 2.9296 69.203 3.58386C66.1995 5.19587 64.7234 6.98206 64.7747 8.94241Z" fill="#BCBCC8"/>
  <path d="M176.139 9.08694L176.164 9.52489C176.289 10.7041 176.893 11.9741 177.975 13.335C178.688 14.0653 179.511 14.6535 180.444 15.0997C181.378 15.546 182.422 15.8503 183.576 16.0126C185.059 16.1903 187.041 16.3005 189.523 16.3434C191.722 16.3635 193.853 16.2709 195.917 16.0654C196.949 15.9627 197.965 15.8318 198.963 15.6727L201.994 15.4131C202.616 15.3336 203.417 15.1539 204.397 14.8739C207.703 13.8698 209.869 13.0506 210.895 12.4162C212.235 11.5659 212.916 10.6023 212.936 9.52554C212.786 8.33652 212.169 7.33439 211.084 6.51915C209.974 5.7562 209.217 5.31408 208.813 5.19278C208.194 4.91759 207.5 4.65543 206.73 4.4063C202.157 3.01885 196.973 2.23089 191.178 2.04241C189.16 2.00563 187.225 2.10866 185.373 2.3515C183.53 2.61517 181.928 3.07413 180.567 3.72839C177.564 5.3404 176.088 7.12659 176.139 9.08694Z" fill="#BCBCC8"/>
  <path d="M168.406 1.23917L168.397 1.25584L168.339 1.46934C168.308 1.47658 168.371 1.58684 168.529 1.80012C168.592 1.91037 168.959 2.24166 169.627 2.79399L173.756 4.5555C174.033 4.43643 174.598 4.24275 175.45 3.97446C178.391 3.16399 180.648 2.52427 182.223 2.05529C183.235 1.71876 183.752 1.4898 183.773 1.36841C183.899 1.28223 183.709 1.1824 183.204 1.06894C182.864 1.00245 182.358 0.948071 181.686 0.905793C180.894 0.862439 180.175 0.833401 179.527 0.818668C179.314 0.810188 176.946 0.764076 172.423 0.680339C171.129 0.671949 170.16 0.712992 169.516 0.803487C168.903 0.891143 168.533 1.03637 168.406 1.23917Z" fill="#BCBCC8"/>
  <path d="M159.191 7.27204L159.417 7.56682C160.428 8.40666 164.701 9.67675 172.236 11.3771C172.407 9.6554 172.532 8.67335 172.611 8.43094C173.21 6.92614 173.523 6.10244 173.551 5.95986C173.584 5.85607 173.6 5.78636 173.6 5.75073C173.607 5.61089 173.579 5.49039 173.515 5.3892C173.361 5.14836 172.887 5.03379 172.093 5.0455C171.135 5.03975 169.722 5.16488 167.855 5.42087C164.403 5.95307 161.933 6.38129 160.446 6.70556C160.086 6.77906 159.804 6.85718 159.598 6.93994C159.401 6.99939 159.265 7.1101 159.191 7.27204Z" fill="#BCBCC8"/>
  <path d="M164.429 15.366L164.432 15.3925C164.441 15.6317 165.278 15.8605 166.942 16.0788C168.112 16.2207 168.883 16.3062 169.255 16.3354C169.911 16.3945 171.38 16.5108 173.663 16.6843L175.978 16.8406C177.356 16.9243 178.401 16.9674 179.114 16.9696L181.672 16.4708C180.548 16.1898 179.356 15.7695 178.096 15.2098C177.366 14.886 176.689 14.551 176.066 14.2049L173.948 12.8968C173.666 12.736 173.294 12.6423 172.832 12.6157C172.395 12.5969 171.862 12.6607 171.232 12.8069C170.739 12.9184 170.033 13.1235 169.115 13.4222C167.183 14.0697 165.882 14.5289 165.211 14.7995C164.913 14.9274 164.699 15.0439 164.572 15.149C164.45 15.2753 164.402 15.3476 164.429 15.366Z" fill="#BCBCC8"/>
</svg>