<svg width="30" height="30" viewBox="0 0 30 30" fill="none" xmlns="http://www.w3.org/2000/svg">
<rect x="0.75" y="0.75" width="28.5" height="28.5" rx="14.25" stroke="#1866D4" stroke-width="1.5"/>
<path fill-rule="evenodd" clip-rule="evenodd" d="M21 13.2559C21.6213 13.2559 22.125 12.7522 22.125 12.1309C22.125 11.5095 21.6213 11.0059 21 11.0059L20.25 11.0059C20.8713 11.0059 21.375 10.5022 21.375 9.88086C21.375 9.25911 20.871 9.13086 20.25 9.13086L15.375 9.13086C13.2367 9.13086 12.75 9.50586 10.125 9.88086L10.125 16.2559C11.9625 16.2559 15 19.6309 15 22.6309C15 23.8166 16.6418 24.2584 17.25 22.0916C17.625 20.7559 16.5 18.1309 16.5 18.1309L22.5 18.1309C23.1213 18.1309 23.625 17.6272 23.625 17.0059C23.625 16.3841 23.121 15.5059 22.5 15.5059L21.75 15.5059C22.3713 15.5059 22.875 15.0022 22.875 14.3809C22.875 13.7595 22.3713 13.2559 21.75 13.2559L21 13.2559Z" fill="#1866D4"/>
<path fill-rule="evenodd" clip-rule="evenodd" d="M10.125 8.38086L6.375 8.38086L6.375 17.3809L10.125 17.3809L10.125 8.38086Z" fill="#1866D4"/>
<path d="M8.4375 10.2559C8.33395 10.2559 8.25 10.1719 8.25 10.0684C8.25 9.96481 8.33395 9.88086 8.4375 9.88086C8.54105 9.88086 8.625 9.96481 8.625 10.0684C8.625 10.1719 8.54105 10.2559 8.4375 10.2559" stroke="#1866D4" stroke-width="1" stroke-linecap="round" stroke-linejoin="round"/>
</svg>