<svg width="30" height="30" viewBox="0 0 25 26" fill="none" xmlns="http://www.w3.org/2000/svg">
  <path d="M16.1401 14.4402C16.2141 14.4402 16.2852 14.4101 16.3373 14.3581C16.5355 14.1569 21.1904 9.39886 21.1904 5.0513C21.1904 2.26537 18.924 0 16.1391 0C13.3541 0 11.0878 2.26537 11.0878 5.0513C11.0878 9.39886 15.7427 14.1569 15.9419 14.3581C15.9939 14.4111 16.065 14.4402 16.1401 14.4402ZM13.5814 5.0513C13.5814 3.63882 14.7266 2.49262 16.1401 2.49262C17.5536 2.49262 18.6978 3.63781 18.6978 5.0513C18.6978 6.46478 17.5526 7.60999 16.1401 7.60999C14.7276 7.60999 13.5814 6.46478 13.5814 5.0513Z" fill="#FF671D"/>
  <path d="M24.9034 21.9305C24.0595 18.9113 17.9561 17.4147 12.5704 16.0933C9.54023 15.3496 5.76827 14.4246 5.73524 13.6037C5.72823 13.4225 5.97949 12.7398 9.52922 11.5516C9.80551 11.4585 9.96668 11.1842 9.91262 10.8989C9.85856 10.6136 9.60229 10.4164 9.318 10.4304C4.13956 10.6807 0.501743 12.1602 0.0482666 14.1993C-0.172966 15.1944 0.26149 16.749 3.58398 18.5009L4.29773 18.8763C6.54509 20.0545 8.16879 20.9064 8.1808 21.6992C8.19482 22.6502 5.93745 24.0507 3.72713 25.296C3.58398 25.3761 3.5139 25.5433 3.55495 25.7024C3.59699 25.8616 3.74014 25.9717 3.90431 25.9717H23.0354C23.1315 25.9717 23.2226 25.9337 23.2907 25.8656C24.6971 24.4581 25.2397 23.1347 24.9034 21.9305Z" fill="#FBC55A"/>
</svg>