<svg width="28" height="29" viewBox="0 0 28 29" fill="none" xmlns="http://www.w3.org/2000/svg">
  <path d="M13.9997 6.78906C9.73936 6.78906 6.28467 10.2427 6.28467 14.5041C6.28467 18.7654 9.7383 22.2191 13.9997 22.2191C18.2611 22.2191 21.7147 18.7654 21.7147 14.5041C21.7147 10.2427 18.2611 6.78906 13.9997 6.78906ZM17.1162 12.0628L14.6081 18.3573C14.4226 18.8237 13.7495 18.7813 13.6223 18.2958L12.9926 15.8832C12.9449 15.7009 12.8029 15.5588 12.6206 15.5111L10.2079 14.8814C9.72239 14.7553 9.68104 14.0822 10.1464 13.8956L16.441 11.3875C16.865 11.219 17.2847 11.6388 17.1162 12.0628Z" fill="#FF671D"/>
  <path d="M27.0333 23.6259C26.7884 23.5422 26.5181 23.6037 26.3357 23.7871L25.3584 24.7644L23.1959 22.6019C24.9429 20.6207 26.0569 18.0777 26.2329 15.2781H27.2241C27.6523 15.2781 28 14.9314 28 14.5021C28 14.0728 27.6534 13.7262 27.2241 13.7262H26.2329C26.0569 10.9266 24.9429 8.38355 23.1959 6.40233L25.3584 4.23878L26.3357 5.21614C26.464 5.3444 26.6368 5.4133 26.8128 5.4133C26.887 5.4133 26.9612 5.40165 27.0333 5.3762C27.2771 5.2914 27.452 5.07621 27.4827 4.81968L27.9014 1.3491C27.9269 1.14345 27.8558 0.937798 27.7085 0.791512C27.5611 0.645226 27.3587 0.574202 27.1509 0.598583L23.6803 1.0173C23.4238 1.04804 23.2086 1.22295 23.1238 1.46676C23.039 1.71057 23.1015 1.98194 23.2849 2.16427L24.2623 3.14163L22.0998 5.30412C20.1186 3.55717 17.5755 2.44306 14.7759 2.26709V1.27595C14.7759 0.847695 14.4293 0.5 14 0.5C13.5707 0.5 13.2241 0.846635 13.2241 1.27595V2.26709C10.4245 2.44306 7.88142 3.55717 5.9002 5.30412L3.73772 3.14163L4.71508 2.16427C4.8974 1.98194 4.95995 1.71163 4.8762 1.46676C4.7914 1.22295 4.57621 1.04804 4.31968 1.0173L0.849097 0.598583C0.644508 0.574202 0.437798 0.645226 0.291512 0.791512C0.145226 0.937798 0.0741959 1.14345 0.0985769 1.3491L0.517315 4.81968C0.548056 5.07621 0.722963 5.2914 0.966773 5.3762C1.03886 5.40059 1.11304 5.4133 1.18724 5.4133C1.36321 5.4133 1.536 5.3444 1.66426 5.21614L2.64162 4.23878L4.80413 6.40127C3.05718 8.38249 1.94305 10.9255 1.76709 13.7251H0.77596C0.347702 13.7251 0 14.0717 0 14.5011C0 14.9304 0.346642 15.277 0.77596 15.277H1.76709C1.94305 18.0766 3.05718 20.6196 4.80413 22.6009L2.64162 24.7634L1.66426 23.786C1.48194 23.6037 1.21058 23.5422 0.966773 23.6249C0.722963 23.7097 0.548056 23.9249 0.517315 24.1814L0.0985769 27.652C0.0731358 27.8576 0.144166 28.0633 0.291512 28.2096C0.418718 28.3368 0.590445 28.4067 0.768532 28.4067C0.795033 28.4067 0.822595 28.4046 0.849097 28.4014L4.31968 27.9827C4.57621 27.952 4.7914 27.7771 4.8762 27.5333C4.96101 27.2894 4.89846 27.0181 4.71508 26.8357L3.73772 25.8584L5.9002 23.6959C7.88142 25.4428 10.4245 26.5569 13.2241 26.7329V27.7241C13.2241 28.1523 13.5707 28.5 14 28.5C14.4293 28.5 14.7759 28.1534 14.7759 27.7241V26.7329C17.5755 26.5569 20.1186 25.4428 22.0998 23.6959L24.2623 25.8584L23.2849 26.8357C23.1026 27.0181 23.0401 27.2884 23.1238 27.5333C23.2086 27.7771 23.4238 27.952 23.6803 27.9827L27.1509 28.4014C27.1785 28.4046 27.205 28.4067 27.2315 28.4067C27.4096 28.4067 27.5813 28.3368 27.7085 28.2096C27.8548 28.0633 27.9258 27.8576 27.9014 27.652L27.4827 24.1814C27.452 23.9249 27.2771 23.7097 27.0333 23.6249V23.6259ZM14.7749 25.1842V24.2715C14.7749 23.8432 14.4283 23.4955 13.999 23.4955C13.5696 23.4955 13.223 23.8422 13.223 24.2715V25.1842C7.93019 24.8026 3.69744 20.5698 3.31582 15.277H4.22851C4.65676 15.277 5.00447 14.9304 5.00447 14.5011C5.00447 14.0717 4.65782 13.7251 4.22851 13.7251H3.31582C3.69744 8.43231 7.93019 4.19955 13.223 3.81794V4.73063C13.223 5.15889 13.5696 5.50659 13.999 5.50659C14.4283 5.50659 14.7749 5.15995 14.7749 4.73063V3.81794C20.0677 4.19955 24.3005 8.43231 24.6821 13.7251H23.7694C23.3411 13.7251 22.9934 14.0717 22.9934 14.5011C22.9934 14.9304 23.3401 15.277 23.7694 15.277H24.6821C24.3005 20.5698 20.0677 24.8026 14.7749 25.1842Z" fill="#FBC55A"/>
</svg>