<svg width="46" height="51" viewBox="0 0 46 51" fill="none" xmlns="http://www.w3.org/2000/svg">
  <path d="M33.5161 25.2194C33.4725 24.8265 33.4288 24.3464 33.2542 23.8227C33.1233 23.2989 32.9051 22.7316 32.5995 22.1205C32.294 21.5095 31.9012 20.8984 31.4211 20.2874C31.2465 20.0692 31.0283 19.8073 30.7664 19.5891C31.1156 18.1924 30.33 17.014 30.33 17.014C29.0206 16.9267 28.1477 17.4068 27.8422 17.6686C27.7985 17.6686 27.7549 17.625 27.6676 17.5813C27.4494 17.4941 27.2311 17.4068 26.9692 17.3195C26.7074 17.2322 26.4891 17.1885 26.2273 17.1012C25.9654 17.0576 25.7035 17.014 25.4853 16.9703C25.4416 16.9703 25.398 16.9703 25.3544 16.9703C24.787 15.1372 23.1284 14.3516 23.1284 14.3516C21.2953 15.53 20.9461 17.1449 20.9461 17.1449C20.9461 17.1449 20.9461 17.1885 20.9461 17.2322C20.8588 17.2758 20.7279 17.2758 20.6406 17.3195C20.5097 17.3631 20.3787 17.4068 20.2042 17.4504C20.0732 17.4941 19.9423 17.5377 19.7677 17.625C19.5058 17.7559 19.2003 17.8869 18.9384 18.0178C18.6766 18.1487 18.4147 18.3233 18.1528 18.4979C18.1092 18.4979 18.1092 18.4543 18.1092 18.4543C15.5341 17.4941 13.2645 18.6725 13.2645 18.6725C13.0462 21.3785 14.2683 23.1244 14.5302 23.4299C14.4866 23.6045 14.3993 23.779 14.3556 23.9536C14.181 24.5647 14.0065 25.2194 13.9192 25.874C13.9192 25.9613 13.8755 26.0486 13.8755 26.1359C11.5186 27.3144 10.8203 29.7149 10.8203 29.7149C12.7844 31.9845 15.0976 32.1154 15.0976 32.1154C15.4031 32.6391 15.7086 33.1192 16.1015 33.5993C16.276 33.7739 16.4506 33.9922 16.5816 34.1667C15.8832 36.2181 16.6688 37.9203 16.6688 37.9203C18.8511 38.0076 20.2914 36.9601 20.597 36.6982C20.8152 36.7855 21.0334 36.8291 21.2516 36.9164C21.9063 37.091 22.6047 37.1783 23.303 37.2219C23.4776 37.2219 23.6522 37.2219 23.8268 37.2219H23.914H23.9577H24.045H24.1323C25.1798 38.7059 26.9692 38.9241 26.9692 38.9241C28.2786 37.5711 28.3223 36.2181 28.3223 35.9126C28.3223 35.8689 28.3223 35.8689 28.3223 35.8689V35.8253C28.5841 35.6507 28.846 35.4325 29.1079 35.2142C29.6316 34.7341 30.0681 34.2104 30.4609 33.643C30.5046 33.5993 30.5482 33.5557 30.5482 33.4684C32.0322 33.5557 33.036 32.5518 33.036 32.5518C32.7741 31.0242 31.9012 30.2823 31.7266 30.1513C31.7266 30.1513 31.7266 30.1513 31.683 30.1513C31.683 30.064 31.683 29.9767 31.683 29.8895C31.683 29.7149 31.683 29.5403 31.683 29.4094V29.1911V29.1475V29.1038C31.683 29.0602 31.683 29.0602 31.683 29.0602V28.9729V28.842C31.683 28.7983 31.683 28.7547 31.683 28.711C31.683 28.6674 31.683 28.6237 31.683 28.5801V28.4491V28.3182C31.6393 28.1436 31.6393 27.969 31.5957 27.8381C31.4211 27.1834 31.2029 26.5724 30.8537 26.005C30.5045 25.4376 30.1117 24.9575 29.6316 24.521C29.1515 24.0846 28.6278 23.779 28.0604 23.5172C27.493 23.2553 26.9256 23.1244 26.3146 23.0371C26.009 22.9934 25.7472 22.9934 25.4416 22.9934H25.3544H25.3107H25.2671H25.2234H25.1361C25.0925 22.9934 25.0488 22.9934 25.0052 22.9934C24.8742 22.9934 24.6997 23.0371 24.5687 23.0371C24.0013 23.1244 23.4339 23.3426 22.9538 23.6481C22.4737 23.9536 22.0373 24.3028 21.6881 24.6956C21.3389 25.0884 21.0771 25.5685 20.9025 26.0486C20.7279 26.5287 20.6406 27.0088 20.597 27.4889C20.597 27.6199 20.597 27.7072 20.597 27.8381C20.597 27.8818 20.597 27.8818 20.597 27.9254V28.0127C20.597 28.0563 20.597 28.1436 20.597 28.1873C20.6406 28.4055 20.6843 28.6674 20.7279 28.8856C20.8588 29.3221 21.0771 29.7149 21.2953 30.064C21.5572 30.4132 21.8627 30.6751 22.1682 30.8933C22.4737 31.1115 22.8229 31.2861 23.1721 31.3734C23.5212 31.4607 23.8268 31.5043 24.1759 31.5043C24.2196 31.5043 24.2632 31.5043 24.3069 31.5043H24.3505H24.3941C24.4378 31.5043 24.4814 31.5043 24.4814 31.5043C24.4814 31.5043 24.4814 31.5043 24.5251 31.5043H24.5687H24.6124C24.656 31.5043 24.6997 31.5043 24.7433 31.5043C24.787 31.5043 24.8306 31.5044 24.8743 31.4607C24.9615 31.4607 25.0052 31.4171 25.0925 31.4171C25.2234 31.3734 25.3544 31.3298 25.4853 31.2425C25.6162 31.1988 25.7035 31.1115 25.8345 31.0242C25.8781 31.0242 25.8781 30.9806 25.9217 30.937C26.0527 30.8497 26.0527 30.6751 25.9654 30.5878C25.8781 30.5005 25.7472 30.4569 25.6599 30.5441C25.6162 30.5441 25.6162 30.5878 25.5726 30.5878C25.4853 30.6314 25.398 30.6751 25.2671 30.7187C25.1798 30.7624 25.0488 30.7624 24.9615 30.806C24.9179 30.806 24.8306 30.806 24.787 30.806C24.7433 30.806 24.7433 30.806 24.6997 30.806C24.656 30.806 24.656 30.806 24.6124 30.806C24.5687 30.806 24.5687 30.806 24.5251 30.806C24.4814 30.806 24.4378 30.806 24.4378 30.806H24.3941H24.3505C24.3069 30.806 24.3069 30.806 24.2632 30.806C24.0013 30.7624 23.7831 30.7187 23.5212 30.5878C23.2594 30.5005 23.0411 30.3259 22.8229 30.1513C22.6047 29.9767 22.4301 29.7149 22.2992 29.4966C22.1682 29.2784 22.0373 28.9729 21.9936 28.6674C21.95 28.5364 21.95 28.3619 21.95 28.2309C21.95 28.1873 21.95 28.1436 21.95 28.1V28.0563V28.0127C21.95 27.9254 21.95 27.8381 21.9936 27.7508C22.1246 27.0961 22.4301 26.4851 22.9538 25.9613C23.0848 25.8304 23.2157 25.7431 23.3467 25.6122C23.4776 25.5249 23.6522 25.4376 23.7831 25.3503C23.9577 25.263 24.1323 25.2194 24.2632 25.1757C24.4378 25.1321 24.6124 25.0884 24.787 25.0884C24.8742 25.0884 24.9615 25.0884 25.0488 25.0884C25.0925 25.0884 25.0925 25.0884 25.0925 25.0884H25.1798H25.2234H25.3107C25.4853 25.0884 25.7035 25.1321 25.8781 25.1757C26.2709 25.263 26.6201 25.3939 26.9692 25.6122C27.6676 26.005 28.235 26.616 28.6278 27.3144C28.8024 27.6635 28.9333 28.0563 29.0206 28.4491C29.0206 28.5364 29.0642 28.6674 29.0642 28.7547V28.842V28.9292C29.0642 28.9729 29.0642 28.9729 29.0642 29.0165C29.0642 29.0602 29.0642 29.0602 29.0642 29.1038V29.1911V29.2784C29.0642 29.3221 29.0642 29.4094 29.0642 29.453C29.0642 29.5839 29.0642 29.6712 29.0206 29.8022C29.0206 29.8895 28.977 30.0204 28.977 30.1077C28.977 30.195 28.9333 30.3259 28.8897 30.4132C28.846 30.6314 28.7587 30.8497 28.6714 31.0242C28.4968 31.4171 28.2786 31.8099 28.0167 32.2027C27.493 32.901 26.7947 33.5121 25.9654 33.8612C25.5726 34.0358 25.1361 34.1667 24.6997 34.254C24.4814 34.2977 24.2632 34.2977 24.045 34.3413H24.0013H23.9577H23.8704H23.7831H23.7395C23.7395 34.3413 23.7831 34.3413 23.7395 34.3413C23.6085 34.3413 23.5212 34.3413 23.3903 34.3413C22.9102 34.2977 22.4301 34.2104 21.9936 34.0795C21.5572 33.9485 21.0771 33.7739 20.6843 33.5557C19.855 33.1192 19.113 32.5082 18.502 31.7662C18.1964 31.4171 17.9346 31.0242 17.76 30.5878C17.5418 30.1513 17.3672 29.7149 17.2362 29.2784C17.1053 28.842 17.018 28.3619 17.018 27.9254V27.8381V27.7945V27.7072V27.4453V27.4016V27.3144V27.2707C17.018 27.2271 17.018 27.1398 17.018 27.0961C17.018 26.8779 17.0617 26.616 17.0617 26.3978C17.1053 26.1796 17.149 25.9177 17.1926 25.6995C17.2362 25.4812 17.2799 25.2194 17.3672 25.0011C17.4981 24.5647 17.6727 24.1282 17.8473 23.6918C18.2401 22.8625 18.7202 22.1205 19.3312 21.5531C19.4622 21.4222 19.6368 21.2476 19.8113 21.1167C19.9859 20.9857 20.1605 20.8548 20.3351 20.7675C20.5097 20.6366 20.6843 20.5493 20.8588 20.462C20.9461 20.4183 21.0334 20.3747 21.1207 20.331C21.1644 20.331 21.208 20.2874 21.2516 20.2874C21.2953 20.2874 21.3389 20.2437 21.3826 20.2437C21.5572 20.1564 21.7754 20.1128 21.95 20.0255C21.9936 20.0255 22.0373 19.9819 22.0809 19.9819C22.1246 19.9819 22.1682 19.9382 22.2119 19.9382C22.2992 19.8946 22.4301 19.8946 22.5174 19.8509C22.561 19.8509 22.6047 19.8073 22.692 19.8073C22.7356 19.8073 22.7793 19.8073 22.8665 19.7636C22.9102 19.7636 22.9538 19.7636 23.0411 19.72H23.1284H23.2157C23.2594 19.72 23.303 19.72 23.3903 19.6763C23.4339 19.6763 23.5212 19.6763 23.5649 19.6327C23.6085 19.6327 23.6958 19.6327 23.7395 19.6327C23.7831 19.6327 23.8267 19.6327 23.8704 19.6327H23.9577H24.0013H24.045C24.0886 19.6327 24.1759 19.6327 24.2196 19.6327H24.3069C24.3069 19.6327 24.3505 19.6327 24.3069 19.6327H24.3505C24.3941 19.6327 24.4378 19.6327 24.4814 19.6327C24.6997 19.6327 24.8743 19.6327 25.0925 19.6327C25.4853 19.6327 25.8781 19.6763 26.2709 19.7636C27.0129 19.8946 27.7112 20.1564 28.3659 20.462C29.0206 20.7675 29.588 21.1603 30.0681 21.5968C30.1117 21.6404 30.1117 21.6404 30.1554 21.6841C30.199 21.7277 30.199 21.7277 30.2427 21.7713C30.2863 21.815 30.3736 21.8586 30.4173 21.9459C30.4609 22.0332 30.5482 22.0332 30.5919 22.1205C30.6355 22.2078 30.7228 22.2514 30.7664 22.2951C30.9847 22.5133 31.1592 22.7316 31.3338 22.9934C31.683 23.4299 31.9885 23.91 32.2067 24.3464C32.2067 24.3901 32.2504 24.3901 32.2504 24.4337C32.2504 24.4774 32.294 24.4774 32.294 24.521C32.3377 24.5647 32.3377 24.6083 32.3813 24.6956C32.425 24.7393 32.425 24.7829 32.4686 24.8702C32.5123 24.9138 32.5123 24.9575 32.5559 25.0448C32.6432 25.263 32.7305 25.4376 32.7741 25.6122C32.8614 25.9177 32.9487 26.1796 32.9924 26.3978C33.036 26.4851 33.1233 26.5724 33.2106 26.5287C33.2979 26.5287 33.3852 26.4414 33.3852 26.3541C33.5598 25.8304 33.5598 25.5249 33.5161 25.2194Z" fill="#FF671D"/>
  <path d="M45.4632 26.4871L41.2854 23.6102C39.7824 16.5516 34.2806 10.967 27.274 9.3236C29.181 7.1048 29.1079 3.7583 27.0065 1.65688C25.9385 0.588856 24.5183 0 23.0076 0C21.497 0 20.0768 0.588856 19.0107 1.65688C16.9093 3.7583 16.8362 7.1048 18.7432 9.3236C11.7366 10.9689 6.23477 16.5516 4.73183 23.6102L0.554012 26.4871C-0.159931 26.9778 -0.159931 28.0324 0.554012 28.5231L4.73183 31.3981C6.26171 38.5837 11.929 44.253 19.1165 45.7828L21.9916 49.9606C22.4823 50.6746 23.5368 50.6746 24.0276 49.9606L26.9026 45.7828C34.0882 44.253 39.7574 38.5857 41.2873 31.3981L45.4651 28.5231C46.179 28.0324 46.179 26.9778 45.4651 26.4871H45.4632ZM23.0076 43.0483C14.4365 43.0483 7.46445 36.0763 7.46445 27.5051C7.46445 18.9339 14.4365 11.9619 23.0076 11.9619C31.5788 11.9619 38.5508 18.9339 38.5508 27.5051C38.5508 36.0763 31.5788 43.0483 23.0076 43.0483ZM21.2257 3.87377C21.701 3.39652 22.3341 3.1348 23.0076 3.1348C23.6812 3.1348 24.3124 3.39652 24.7896 3.87377C25.773 4.85713 25.771 6.45436 24.7896 7.43772C23.8062 8.41915 22.209 8.41915 21.2276 7.43772C20.2442 6.45436 20.2442 4.85713 21.2276 3.87377H21.2257Z" fill="#FF671D"/>
</svg>