<svg width="30" height="30" viewBox="0 0 30 30" fill="none" xmlns="http://www.w3.org/2000/svg">
<rect x="0.75" y="0.75" width="28.5" height="28.5" rx="14.25" stroke="#1866D4" stroke-width="1.5"/>
<path fill-rule="evenodd" clip-rule="evenodd" d="M21 16.7441C21.6213 16.7441 22.125 17.2478 22.125 17.8691C22.125 18.4905 21.6213 18.9941 21 18.9941L20.25 18.9941C20.8713 18.9941 21.375 19.4978 21.375 20.1191C21.375 20.7409 20.871 20.8691 20.25 20.8691L15.375 20.8691C13.2367 20.8691 12.75 20.4941 10.125 20.1191L10.125 13.7441C11.9625 13.7441 15 10.3691 15 7.36914C15 6.18339 16.6418 5.74164 17.25 7.90839C17.625 9.24414 16.5 11.8691 16.5 11.8691L22.5 11.8691C23.1213 11.8691 23.625 12.3728 23.625 12.9941C23.625 13.6159 23.121 14.4941 22.5 14.4941L21.75 14.4941C22.3713 14.4941 22.875 14.9978 22.875 15.6191C22.875 16.2405 22.3713 16.7441 21.75 16.7441L21 16.7441Z" fill="#1866D4"/>
<path fill-rule="evenodd" clip-rule="evenodd" d="M10.125 21.6191L6.375 21.6191L6.375 12.6191L10.125 12.6191L10.125 21.6191Z" fill="#1866D4"/>
<path d="M8.4375 19.7441C8.33395 19.7441 8.25 19.8281 8.25 19.9316C8.25 20.0352 8.33395 20.1191 8.4375 20.1191C8.54105 20.1191 8.625 20.0352 8.625 19.9316C8.625 19.8281 8.54105 19.7441 8.4375 19.7441" stroke="#1866D4" stroke-width="1" stroke-linecap="round" stroke-linejoin="round"/>
</svg>
