<svg width="109" height="59" viewBox="0 0 109 59" fill="none" xmlns="http://www.w3.org/2000/svg">
  <path d="M31.7695 24L53.7695 2.00002L75.7695 24" stroke="#D8D8DF" stroke-width="2"/>
  <rect x="1.09907" y="23.097" width="103" height="35" rx="3" transform="rotate(-6.00146 1.09907 23.097)" fill="#F4F4F6"/>
  <rect x="1.09907" y="23.097" width="103" height="35" rx="3" transform="rotate(-6.00146 1.09907 23.097)" stroke="#D8D8DF" stroke-width="2"/>
  <path d="M17.5427 43.609C16.9301 43.6734 16.35 43.6258 15.8023 43.4661C15.2537 43.2986 14.7601 43.0408 14.3213 42.6928C13.8896 42.3359 13.5388 41.9063 13.2687 41.4037C13.0067 40.9004 12.8439 40.3464 12.7803 39.7417C12.7167 39.137 12.7608 38.5613 12.9124 38.0144C13.072 37.4667 13.3263 36.9775 13.6751 36.5466C14.032 36.115 14.4572 35.7605 14.951 35.4834C15.4527 35.2054 16.0138 35.0338 16.6344 34.9686C17.3027 34.8983 17.9032 34.9478 18.4358 35.117C18.9675 35.2783 19.4484 35.5294 19.8784 35.8703L18.8959 37.0837C18.6384 36.8534 18.3351 36.6842 17.9859 36.5761C17.6366 36.468 17.2393 36.4374 16.7937 36.4842C16.4039 36.5252 16.0529 36.6305 15.741 36.8C15.4361 36.9608 15.1777 37.181 14.9658 37.4607C14.753 37.7324 14.6014 38.05 14.5109 38.4135C14.4196 38.769 14.3957 39.1536 14.4392 39.5673C14.4835 39.989 14.5873 40.3642 14.7505 40.6929C14.9138 41.0216 15.1282 41.3008 15.3936 41.5303C15.6582 41.7518 15.9568 41.9135 16.2892 42.0153C16.6297 42.1162 16.9948 42.1462 17.3847 42.1052C17.8541 42.0559 18.2483 41.9421 18.5674 41.7637C18.8945 41.5845 19.1596 41.3515 19.3627 41.0647L20.5761 42.0473C20.2272 42.4781 19.8055 42.8281 19.3109 43.0973C18.8164 43.3665 18.227 43.537 17.5427 43.609ZM25.2443 42.8114C24.6316 42.8758 24.0471 42.8246 23.4906 42.6579C22.9421 42.4903 22.4484 42.2325 22.0096 41.8845C21.578 41.5277 21.2231 41.0984 20.9452 40.5967C20.6663 40.0871 20.4952 39.5299 20.4316 38.9252C20.368 38.3206 20.4165 37.7484 20.5769 37.2086C20.7445 36.6601 21.0027 36.1704 21.3516 35.7396C21.7075 35.3 22.1368 34.9451 22.6393 34.6751C23.141 34.3972 23.6982 34.226 24.3108 34.1616C24.9314 34.0963 25.5159 34.1475 26.0644 34.315C26.6121 34.4747 27.1018 34.7329 27.5335 35.0897C27.9723 35.4377 28.3307 35.8626 28.6086 36.3643C28.8866 36.866 29.0574 37.4191 29.121 38.0238C29.1845 38.6285 29.1325 39.2051 28.965 39.7536C28.7974 40.3021 28.5356 40.7962 28.1796 41.2358C27.8308 41.6667 27.4055 42.0211 26.9038 42.299C26.4101 42.5762 25.8569 42.747 25.2443 42.8114ZM25.0611 41.2982C25.6021 41.2413 26.0589 41.0727 26.4317 40.7921C26.8044 40.5116 27.08 40.1488 27.2584 39.7037C27.4448 39.2578 27.5083 38.7524 27.4489 38.1875C27.4054 37.7738 27.302 37.4026 27.1388 37.0738C26.9755 36.7451 26.7616 36.47 26.497 36.2484C26.2315 36.0189 25.9286 35.8537 25.5882 35.7527C25.2477 35.6518 24.8746 35.6226 24.4689 35.6653C23.9438 35.7205 23.4909 35.8887 23.1102 36.1701C22.7367 36.4426 22.4567 36.8019 22.2703 37.2478C22.0918 37.6929 22.0319 38.1939 22.0904 38.7509C22.1348 39.1725 22.239 39.5517 22.4031 39.8884C22.5752 40.2243 22.7895 40.5034 23.0462 40.7258C23.3108 40.9473 23.6133 41.1086 23.9537 41.2095C24.3021 41.3096 24.6712 41.3392 25.0611 41.2982ZM30.6701 42.1082L29.7881 33.7184L30.9338 33.598L34.9072 38.6824L34.2508 38.7514L37.068 32.9531L38.2137 32.8327L39.0957 41.2224L37.4846 41.3918L36.8949 35.7827L37.2152 35.8456L35.2512 39.8891L34.1533 40.0045L31.3913 36.4578L31.7035 36.3285L32.2932 41.9376L30.6701 42.1082ZM40.6306 41.0611L39.7486 32.6713L41.3716 32.5007L42.2536 40.8904L40.6306 41.0611ZM43.7964 40.7282L42.9144 32.3385L44.0481 32.2193L44.7081 33.7909L45.4195 40.5576L43.7964 40.7282ZM49.5964 40.1185L43.9424 34.1972L44.0481 32.2193L49.7022 38.1406L49.5964 40.1185ZM49.5964 40.1185L48.9654 38.5921L48.249 31.7777L49.884 31.6058L50.766 39.9955L49.5964 40.1185ZM56.1795 39.5471C55.5828 39.6098 55.0106 39.5614 54.4629 39.4018C53.9224 39.2334 53.4323 38.9712 52.9926 38.6152C52.561 38.2583 52.2065 37.8331 51.9294 37.3393C51.6594 36.8368 51.4926 36.2832 51.429 35.6786C51.3646 35.0659 51.4166 34.4893 51.585 33.9488C51.7526 33.4002 52.0148 32.9101 52.3716 32.4785C52.7276 32.0388 53.1608 31.6836 53.6713 31.4127C54.1809 31.1339 54.7461 30.9619 55.3666 30.8967C56.0588 30.8239 56.7091 30.8882 57.3175 31.0897C57.9251 31.2833 58.4445 31.5947 58.8757 32.0239L57.8932 33.2373C57.5947 32.9228 57.2409 32.6945 56.8318 32.5525C56.4227 32.4105 55.9835 32.3642 55.514 32.4136C54.981 32.4696 54.5201 32.6387 54.1315 32.9209C53.75 33.1943 53.466 33.5539 53.2797 33.9999C53.0924 34.4378 53.0281 34.9353 53.0866 35.4922C53.1452 36.0492 53.3084 36.5307 53.5764 36.9369C53.8514 37.3344 54.1964 37.6319 54.6114 37.8296C55.0343 38.0265 55.5003 38.0981 56.0095 38.0446C56.5346 37.9894 56.9741 37.8467 57.328 37.6164C57.681 37.3782 57.9373 37.0617 58.0969 36.6668C58.2556 36.264 58.3062 35.7881 58.2485 35.2391L59.3871 35.8555L55.7196 36.2048L55.5715 34.7966L59.844 34.3474L59.8678 34.5742C59.9732 35.5767 59.8824 36.4349 59.5955 37.1488C59.3077 37.8547 58.8676 38.4118 58.275 38.82C57.6895 39.2194 56.9911 39.4618 56.1795 39.5471ZM65.997 38.515C65.3207 38.5861 64.7278 38.5318 64.2182 38.352C63.7166 38.1715 63.2466 37.871 62.8083 37.4505L63.7694 36.2635C64.0503 36.5638 64.3635 36.7883 64.709 36.937C65.0536 37.0777 65.4606 37.1234 65.93 37.0741C66.3517 37.0297 66.6771 36.9111 66.9061 36.7181C67.1432 36.5242 67.2462 36.2801 67.2153 35.9857C67.1885 35.7311 67.0951 35.5318 66.9352 35.3877C66.7753 35.2437 66.5701 35.1285 66.3197 35.0422C66.0773 34.9551 65.8082 34.8828 65.5126 34.8254C65.2241 34.7592 64.9304 34.6815 64.6314 34.5922C64.3404 34.5022 64.0663 34.3822 63.8093 34.2322C63.5593 34.0735 63.3481 33.8624 63.1756 33.599C63.0023 33.3276 62.893 32.9771 62.8478 32.5475C62.7943 32.0383 62.872 31.5917 63.081 31.2078C63.29 30.8238 63.5993 30.5138 64.0089 30.2777C64.4184 30.0416 64.8937 29.8951 65.4347 29.8382C66.0076 29.778 66.536 29.831 67.0201 29.9973C67.5041 30.1636 67.9113 30.4024 68.2417 30.7135L67.2805 31.9005C67.0054 31.6559 66.7299 31.4838 66.454 31.3841C66.186 31.2836 65.8889 31.2504 65.5627 31.2847C65.1888 31.3241 64.9019 31.4266 64.7021 31.5924C64.5024 31.7582 64.4167 31.9764 64.4452 32.2469C64.4694 32.4776 64.5607 32.657 64.7189 32.7852C64.8772 32.9133 65.0771 33.017 65.3187 33.0962C65.5683 33.1745 65.8373 33.2468 66.1258 33.313C66.4223 33.3783 66.716 33.4561 67.007 33.5461C67.306 33.6354 67.5809 33.7633 67.8317 33.93C68.0905 34.0959 68.3073 34.3224 68.4823 34.6097C68.6565 34.889 68.7666 35.2475 68.8126 35.6851C68.8945 36.4648 68.6845 37.1063 68.1823 37.6095C67.6802 38.1128 66.9518 38.4146 65.997 38.515ZM74.1756 37.6672C73.5629 37.7316 72.9784 37.6805 72.4219 37.5137C71.8734 37.3462 71.3797 37.0884 70.9409 36.7403C70.5092 36.3835 70.1544 35.9543 69.8764 35.4526C69.5976 34.9429 69.4264 34.3858 69.3629 33.7811C69.2993 33.1764 69.3477 32.6042 69.5082 32.0645C69.6758 31.516 69.934 31.0263 70.2828 30.5955C70.6388 30.1558 71.0681 29.801 71.5706 29.531C72.0723 29.253 72.6294 29.0818 73.2421 29.0174C73.8626 28.9522 74.4472 29.0033 74.9957 29.1709C75.5434 29.3305 76.0331 29.5887 76.4648 29.9456C76.9036 30.2936 77.2619 30.7184 77.5399 31.2201C77.8179 31.7218 77.9887 32.275 78.0522 32.8797C78.1158 33.4843 78.0638 34.0609 77.8962 34.6094C77.7287 35.158 77.4669 35.6521 77.1109 36.0917C76.762 36.5225 76.3368 36.8769 75.8351 37.1549C75.3414 37.432 74.7882 37.6028 74.1756 37.6672ZM73.9923 36.1541C74.5334 36.0972 74.9902 35.9285 75.3629 35.648C75.7357 35.3675 76.0112 35.0047 76.1897 34.5596C76.3761 34.1137 76.4396 33.6083 76.3802 33.0434C76.3367 32.6297 76.2333 32.2584 76.0701 31.9297C75.9068 31.601 75.6929 31.3258 75.4282 31.1043C75.1628 30.8748 74.8599 30.7095 74.5194 30.6086C74.179 30.5076 73.8059 30.4785 73.4002 30.5211C72.875 30.5763 72.4222 30.7446 72.0415 31.0259C71.6679 31.2985 71.388 31.6577 71.2016 32.1037C71.0231 32.5488 70.9632 33.0498 71.0217 33.6067C71.0661 34.0284 71.1703 34.4076 71.3344 34.7443C71.5064 35.0801 71.7208 35.3592 71.9774 35.5816C72.2421 35.8032 72.5446 35.9644 72.885 36.0654C73.2334 36.1655 73.6025 36.1951 73.9923 36.1541ZM83.6465 36.6715C83.0339 36.7359 82.4493 36.6848 81.8928 36.518C81.3443 36.3505 80.8506 36.0927 80.4118 35.7447C79.9802 35.3878 79.6253 34.9586 79.3474 34.4569C79.0686 33.9472 78.8974 33.3901 78.8338 32.7854C78.7702 32.1808 78.8187 31.6086 78.9791 31.0688C79.1467 30.5203 79.4049 30.0306 79.7538 29.5998C80.1098 29.1601 80.539 28.8053 81.0415 28.5353C81.5432 28.2573 82.1004 28.0861 82.713 28.0217C83.3336 27.9565 83.9181 28.0077 84.4667 28.1752C85.0143 28.3348 85.504 28.593 85.9357 28.9499C86.3745 29.2979 86.7329 29.7228 87.0109 30.2244C87.2888 30.7261 87.4596 31.2793 87.5232 31.884C87.5867 32.4886 87.5347 33.0652 87.3672 33.6138C87.1996 34.1623 86.9378 34.6564 86.5818 35.096C86.233 35.5268 85.8077 35.8812 85.306 36.1592C84.8123 36.4364 84.2591 36.6071 83.6465 36.6715ZM83.4633 35.1584C84.0043 35.1015 84.4612 34.9328 84.8339 34.6523C85.2066 34.3718 85.4822 34.009 85.6606 33.5639C85.847 33.118 85.9105 32.6126 85.8511 32.0477C85.8076 31.634 85.7042 31.2627 85.541 30.934C85.3777 30.6053 85.1638 30.3301 84.8992 30.1086C84.6337 29.8791 84.3308 29.7139 83.9904 29.6129C83.6499 29.5119 83.2768 29.4828 82.8711 29.5254C82.346 29.5806 81.8931 29.7489 81.5124 30.0303C81.1389 30.3028 80.8589 30.6621 80.6725 31.108C80.494 31.5531 80.4341 32.0541 80.4927 32.611C80.537 33.0327 80.6412 33.4119 80.8053 33.7486C80.9774 34.0844 81.1917 34.3635 81.4484 34.5859C81.713 34.8075 82.0155 34.9687 82.3559 35.0697C82.7043 35.1698 83.0734 35.1994 83.4633 35.1584ZM89.0724 35.9684L88.1903 27.5786L89.3241 27.4594L89.984 29.031L90.6954 35.7978L89.0724 35.9684ZM94.8724 35.3586L89.2183 29.4373L89.3241 27.4594L94.9782 33.3807L94.8724 35.3586ZM94.8724 35.3586L94.2413 33.8322L93.5249 27.0178L95.1599 26.8459L96.0419 35.2357L94.8724 35.3586Z" fill="#454554"/>
</svg>