<svg width="24" height="25" viewBox="0 0 24 25" fill="none" xmlns="http://www.w3.org/2000/svg">
  <path fill-rule="evenodd" clip-rule="evenodd" d="M0.75 9.83984C0.75 7.6307 2.54086 5.83984 4.75 5.83984H19.25C21.4591 5.83984 23.25 7.6307 23.25 9.83984V19.1198C23.25 21.329 21.4591 23.1198 19.25 23.1198H4.75C2.54086 23.1198 0.75 21.329 0.75 19.1198V9.83984Z" stroke="#FF671D" stroke-width="1.5" stroke-linecap="round" stroke-linejoin="round"/>
  <path fill-rule="evenodd" clip-rule="evenodd" d="M14.25 1.52344H9.75C8.92157 1.52344 8.25 2.16815 8.25 2.96344V5.84344H15.75V2.96344C15.75 2.16815 15.0784 1.52344 14.25 1.52344Z" stroke="#FF671D" stroke-width="1.5" stroke-linecap="round" stroke-linejoin="round"/>
  <path fill-rule="evenodd" clip-rule="evenodd" d="M12 15.923C12.8284 15.923 13.5 15.2783 13.5 14.483C13.5 13.6877 12.8284 13.043 12 13.043C11.1716 13.043 10.5 13.6877 10.5 14.483C10.5 15.2783 11.1716 15.923 12 15.923Z" stroke="#FF671D" stroke-width="1.5" stroke-linecap="round" stroke-linejoin="round"/>
  <path fill-rule="evenodd" clip-rule="evenodd" d="M13.2742 8.91315L13.7162 10.309C13.8671 10.7897 14.3806 11.0756 14.8902 10.9628L16.3622 10.6354C16.9349 10.5115 17.5249 10.7602 17.8175 11.2488C18.11 11.7374 18.037 12.3519 17.6372 12.7647L16.6062 13.8312C16.2493 14.1997 16.2493 14.7703 16.6062 15.1388L17.6372 16.2053C18.0379 16.6179 18.1115 17.2331 17.8188 17.7222C17.526 18.2113 16.9353 18.4601 16.3622 18.3356L14.8902 18.0082C14.3806 17.8953 13.8671 18.1812 13.7162 18.662L13.2742 20.0559C13.1055 20.5961 12.5877 20.9661 12.0002 20.9661C11.4128 20.9661 10.8949 20.5961 10.7262 20.0559L10.2842 18.661C10.1333 18.1803 9.61982 17.8944 9.11021 18.0072L7.63821 18.3346C7.06469 18.4597 6.47325 18.2109 6.18034 17.7213C5.88742 17.2317 5.96161 16.6159 6.36321 16.2034L7.39421 15.1368C7.75116 14.7684 7.75116 14.1978 7.39421 13.8293L6.36321 12.7628C5.96346 12.35 5.89039 11.7354 6.18296 11.2468C6.47553 10.7582 7.06551 10.5096 7.63821 10.6335L9.11021 10.9608C9.61923 11.0739 10.1324 10.7889 10.2842 10.309L10.7262 8.91507C10.8944 8.37473 11.412 8.00435 11.9995 8.00391C12.5869 8.00346 13.1051 8.37307 13.2742 8.91315V8.91315Z" stroke="#FF671D" stroke-width="1.5" stroke-linecap="round" stroke-linejoin="round"/>
</svg>