<svg width="129" height="45" viewBox="0 0 129 45" fill="none" xmlns="http://www.w3.org/2000/svg">
<rect x="0.978516" y="0.484375" width="128" height="44" rx="22" fill="#1866D4"/>
<path d="M54.2449 21.049C53.9402 20.0472 53.1646 19.4379 52.0243 19.4379C50.4963 19.4379 49.3929 20.6197 49.3929 22.7479C49.3929 24.8899 50.4778 26.0763 52.0613 26.0763C53.4831 26.0763 54.3833 25.2223 54.411 23.8743H52.2321V22.5355H56.0684V23.6712C56.0684 26.1087 54.3926 27.6136 52.052 27.6136C49.4437 27.6136 47.671 25.7578 47.671 22.7663C47.671 19.7195 49.5268 17.9006 52.0012 17.9006C54.0925 17.9006 55.699 19.1932 55.9899 21.049H54.2449ZM57.5207 27.4844V20.3935H59.141V21.5753H59.2149C59.4734 20.7536 60.152 20.2919 60.9645 20.2919C61.1492 20.2919 61.4123 20.3104 61.5647 20.3381V21.8754C61.4216 21.8292 61.0707 21.7784 60.7891 21.7784C59.8704 21.7784 59.1918 22.4155 59.1918 23.3157V27.4844H57.5207ZM65.346 27.6229C63.2686 27.6229 61.9483 26.1594 61.9483 23.9666C61.9483 21.7692 63.2686 20.3011 65.346 20.3011C67.4234 20.3011 68.7437 21.7692 68.7437 23.9666C68.7437 26.1594 67.4234 27.6229 65.346 27.6229ZM65.3552 26.2841C66.4863 26.2841 67.0495 25.2592 67.0495 23.962C67.0495 22.6648 66.4863 21.6261 65.3552 21.6261C64.2057 21.6261 63.6425 22.6648 63.6425 23.962C63.6425 25.2592 64.2057 26.2841 65.3552 26.2841ZM73.573 20.3935V21.6861H72.1742V25.3516C72.1742 26.0256 72.5112 26.1733 72.9313 26.1733C73.139 26.1733 73.3283 26.1317 73.4206 26.1087L73.7022 27.4151C73.5222 27.4751 73.1944 27.5675 72.7189 27.5813C71.4633 27.6183 70.4938 26.9627 70.503 25.6286V21.6861H69.4966V20.3935H70.503V18.6946H72.1742V20.3935H73.573ZM78.0091 27.4844V18.0298H79.6803V21.5661H79.7495C80.0034 21.0536 80.5251 20.3011 81.7761 20.3011C83.415 20.3011 84.703 21.5845 84.703 23.9482C84.703 26.2841 83.4519 27.609 81.7808 27.609C80.562 27.609 80.0126 26.8842 79.7495 26.3672H79.6526V27.4844H78.0091ZM79.6479 23.9389C79.6479 25.3146 80.2481 26.2379 81.3145 26.2379C82.4178 26.2379 82.9995 25.2685 82.9995 23.9389C82.9995 22.6186 82.4271 21.6722 81.3145 21.6722C80.2388 21.6722 79.6479 22.5632 79.6479 23.9389ZM88.0342 27.6275C86.6816 27.6275 85.6613 26.8888 85.6613 25.4947C85.6613 23.8974 86.977 23.4865 88.3527 23.3388C89.6038 23.2049 90.107 23.1818 90.107 22.7017V22.674C90.107 21.9769 89.6823 21.5799 88.9067 21.5799C88.0896 21.5799 87.6187 21.9954 87.4525 22.4801L85.8921 22.2585C86.2615 20.9659 87.4063 20.3011 88.8975 20.3011C90.2501 20.3011 91.7782 20.8643 91.7782 22.7386V27.4844H90.1716V26.5103H90.1162C89.8115 27.1058 89.1468 27.6275 88.0342 27.6275ZM88.4681 26.3995C89.4745 26.3995 90.1116 25.7301 90.1116 24.9407V24.1051C89.8946 24.2805 89.0175 24.3913 88.5789 24.4513C87.8311 24.5575 87.2725 24.8253 87.2725 25.467C87.2725 26.081 87.771 26.3995 88.4681 26.3995ZM95.9599 27.609C94.2888 27.609 93.0377 26.2841 93.0377 23.9482C93.0377 21.5845 94.3257 20.3011 95.9646 20.3011C97.2156 20.3011 97.7373 21.0536 97.9912 21.5661H98.0604V18.0298H99.7362V27.4844H98.0928V26.3672H97.9912C97.7281 26.8842 97.1787 27.609 95.9599 27.609ZM96.4262 26.2379C97.4926 26.2379 98.0928 25.3146 98.0928 23.9389C98.0928 22.5632 97.5018 21.6722 96.4262 21.6722C95.3136 21.6722 94.7412 22.6186 94.7412 23.9389C94.7412 25.2685 95.3229 26.2379 96.4262 26.2379Z" fill="white"/>
<path fill-rule="evenodd" clip-rule="evenodd" d="M35.9785 19.7402V19.7402C36.5998 19.7402 37.1035 19.2366 37.1035 18.6152C37.1035 17.9939 36.5998 17.4902 35.9785 17.4902L35.2285 17.4902C35.8498 17.4902 36.3535 16.9866 36.3535 16.3652C36.3535 15.7435 35.8495 15.6152 35.2285 15.6152L30.3535 15.6152C28.2153 15.6152 27.7285 15.9902 25.1035 16.3652L25.1035 22.7402C26.941 22.7402 29.9785 26.1152 29.9785 29.1152C29.9785 30.301 31.6203 30.7427 32.2285 28.576C32.6035 27.2402 31.4785 24.6152 31.4785 24.6152L37.4785 24.6152C38.0998 24.6152 38.6035 24.1116 38.6035 23.4902C38.6035 22.8685 38.0995 21.9902 37.4785 21.9902L36.7285 21.9902C37.3498 21.9902 37.8535 21.4866 37.8535 20.8652C37.8535 20.2439 37.3498 19.7402 36.7285 19.7402L35.9785 19.7402" fill="white"/>
<path fill-rule="evenodd" clip-rule="evenodd" d="M25.1035 14.8652L21.3535 14.8652L21.3535 23.8652L25.1035 23.8652L25.1035 14.8652Z" fill="white"/>
<path d="M23.416 16.7402C23.3125 16.7402 23.2285 16.6563 23.2285 16.5527C23.2285 16.4492 23.3125 16.3652 23.416 16.3652C23.5196 16.3652 23.6035 16.4492 23.6035 16.5527C23.6035 16.6563 23.5196 16.7402 23.416 16.7402" stroke="white" stroke-width="2" stroke-linecap="round" stroke-linejoin="round"/>
</svg>
