<svg width="25" height="25" viewBox="0 0 141 141" fill="none" xmlns="http://www.w3.org/2000/svg">
  <rect width="141" height="141" rx="20.8889" transform="matrix(-1 0 0 1 141 0)" fill="#D8D8DF"/>
  <path d="M114.789 64.7701C114.608 63.1839 114.428 61.2453 113.705 59.1305C113.164 57.0156 112.261 54.7245 110.997 52.2572C109.733 49.7898 108.108 47.3225 106.121 44.8551C105.399 43.974 104.496 42.9165 103.413 42.0353C104.857 36.3957 101.607 31.6373 101.607 31.6373C96.1895 31.2848 92.5779 33.2234 91.3139 34.2808C91.1333 34.2808 90.9528 34.1046 90.5916 33.9284C89.6887 33.5759 88.7859 33.2234 87.7024 32.8709C86.6189 32.5185 85.7161 32.3422 84.6326 31.9897C83.5492 31.8135 82.4657 31.6373 81.5628 31.461C81.3822 31.461 81.2017 31.461 81.0211 31.461C78.6736 24.059 71.8117 20.8867 71.8117 20.8867C64.2275 25.6452 62.7829 32.166 62.7829 32.166C62.7829 32.166 62.7829 32.3422 62.7829 32.5185C62.4217 32.6947 61.88 32.6947 61.5188 32.8709C60.9771 33.0472 60.4354 33.2234 59.7131 33.3996C59.1713 33.5759 58.6296 33.7521 57.9073 34.1046C56.8238 34.6333 55.5598 35.162 54.4764 35.6907C53.3929 36.2195 52.3095 36.9244 51.226 37.6294C51.0454 37.6294 51.0454 37.4531 51.0454 37.4531C40.3914 33.5759 31.0014 38.3343 31.0014 38.3343C30.0986 49.2611 35.1547 56.3106 36.2381 57.5443C36.0576 58.2493 35.6964 58.9542 35.5159 59.6592C34.7935 62.1265 34.0712 64.7701 33.7101 67.4137C33.7101 67.7661 33.5295 68.1186 33.5295 68.4711C23.7784 73.2295 20.8892 82.9226 20.8892 82.9226C29.0151 92.087 38.5857 92.6158 38.5857 92.6158C39.8497 94.7306 41.1137 96.6692 42.7389 98.6079C43.4612 99.3128 44.1835 100.194 44.7253 100.899C41.836 109.182 45.0864 116.055 45.0864 116.055C54.1152 116.408 60.0742 112.178 61.3382 111.121C62.2411 111.473 63.144 111.649 64.0469 112.002C66.7555 112.707 69.6448 113.059 72.534 113.236C73.2563 113.236 73.9786 113.236 74.7009 113.236H75.062H75.2426H75.6038H75.9649C80.2988 119.228 87.7024 120.109 87.7024 120.109C93.1197 114.646 93.3003 109.182 93.3003 107.948C93.3003 107.772 93.3003 107.772 93.3003 107.772V107.596C94.3837 106.891 95.4672 106.01 96.5506 105.129C98.7175 103.19 100.523 101.075 102.148 98.7841C102.329 98.6079 102.51 98.4316 102.51 98.0791C108.649 98.4316 112.802 94.3781 112.802 94.3781C111.719 88.2098 108.108 85.2137 107.385 84.685C107.385 84.685 107.385 84.685 107.205 84.685C107.205 84.3325 107.205 83.9801 107.205 83.6276C107.205 82.9226 107.205 82.2177 107.205 81.689V80.8078V80.6315V80.4553C107.205 80.2791 107.205 80.2791 107.205 80.2791V79.9266V79.3979C107.205 79.2216 107.205 79.0454 107.205 78.8692C107.205 78.6929 107.205 78.5167 107.205 78.3404V77.8117V77.283C107.024 76.5781 107.024 75.8731 106.843 75.3444C106.121 72.7008 105.218 70.2335 103.774 67.9424C102.329 65.6513 100.704 63.7127 98.7176 61.9503C96.7312 60.1879 94.5643 58.9542 92.2168 57.8968C89.8693 56.8394 87.5218 56.3106 84.9937 55.9582C83.7297 55.7819 82.6463 55.7819 81.3822 55.7819H81.0211H80.8405H80.6599H80.4793H80.1182C79.9376 55.7819 79.757 55.7819 79.5765 55.7819C79.0347 55.7819 78.3124 55.9582 77.7707 55.9582C75.4232 56.3106 73.0757 57.1918 71.0894 58.4255C69.1031 59.6592 67.2973 61.0691 65.8526 62.6552C64.408 64.2414 63.3246 66.18 62.6023 68.1186C61.88 70.0572 61.5188 71.9959 61.3382 73.9345C61.3382 74.4632 61.3382 74.8157 61.3382 75.3444C61.3382 75.5206 61.3382 75.5206 61.3382 75.6969V76.0493C61.3382 76.2256 61.3382 76.5781 61.3382 76.7543C61.5188 77.6355 61.6994 78.6929 61.88 79.5741C62.4217 81.3365 63.3246 82.9226 64.2275 84.3325C65.3109 85.7425 66.575 86.7999 67.839 87.6811C69.103 88.5623 70.5477 89.2672 71.9923 89.6197C73.4369 89.9722 74.7009 90.1484 76.1455 90.1484C76.3261 90.1484 76.5066 90.1484 76.6872 90.1484H76.8678H77.0484C77.229 90.1484 77.4096 90.1484 77.4096 90.1484C77.4096 90.1484 77.4095 90.1484 77.5901 90.1484H77.7707H77.9513C78.1319 90.1484 78.3124 90.1484 78.493 90.1484C78.6736 90.1484 78.8542 90.1484 79.0348 89.9722C79.3959 89.9722 79.5765 89.7959 79.9376 89.7959C80.4794 89.6197 81.0211 89.4435 81.5628 89.091C82.1045 88.9147 82.4657 88.5623 83.0074 88.2098C83.188 88.2098 83.188 88.0336 83.3686 87.8573C83.9103 87.5048 83.9103 86.7999 83.5492 86.4474C83.188 86.0949 82.6463 85.9187 82.2851 86.2712C82.1045 86.2712 82.1046 86.4474 81.924 86.4474C81.5628 86.6236 81.2017 86.7999 80.6599 86.9761C80.2988 87.1524 79.757 87.1524 79.3959 87.3286C79.2153 87.3286 78.8542 87.3286 78.6736 87.3286C78.493 87.3286 78.493 87.3286 78.3125 87.3286C78.1319 87.3286 78.1319 87.3286 77.9513 87.3286C77.7707 87.3286 77.7707 87.3286 77.5901 87.3286C77.4095 87.3286 77.229 87.3286 77.229 87.3286H77.0484H76.8678C76.6872 87.3286 76.6873 87.3286 76.5067 87.3286C75.4232 87.1524 74.5203 86.9761 73.4369 86.4474C72.3534 86.0949 71.4505 85.39 70.5476 84.685C69.6448 83.9801 68.9225 82.9226 68.3808 82.0414C67.839 81.1603 67.2973 79.9266 67.1167 78.6929C66.9361 78.1642 66.9361 77.4592 66.9361 76.9305C66.9361 76.7543 66.9361 76.5781 66.9361 76.4018V76.2256V76.0493C66.9361 75.6969 66.9361 75.3444 67.1167 74.9919C67.6584 72.3483 68.9225 69.881 71.0894 67.7661C71.6311 67.2374 72.1729 66.8849 72.7146 66.3562C73.2563 66.0037 73.9786 65.6513 74.5203 65.2988C75.2426 64.9463 75.965 64.7701 76.5067 64.5938C77.229 64.4176 77.9513 64.2414 78.6736 64.2414C79.0347 64.2414 79.3959 64.2414 79.757 64.2414C79.9376 64.2414 79.9376 64.2414 79.9376 64.2414H80.2988H80.4793H80.8405C81.5628 64.2414 82.4657 64.4176 83.188 64.5938C84.8132 64.9463 86.2578 65.475 87.7024 66.3562C90.5916 67.9424 92.9391 70.4097 94.5643 73.2295C95.2866 74.6394 95.8283 76.2256 96.1895 77.8117C96.1895 78.1642 96.3701 78.6929 96.3701 79.0454V79.3979V79.7503C96.3701 79.9266 96.3701 79.9266 96.3701 80.1028C96.3701 80.2791 96.3701 80.2791 96.3701 80.4553V80.8078V81.1603C96.3701 81.3365 96.3701 81.689 96.3701 81.8652C96.3701 82.3939 96.3701 82.7464 96.1895 83.2751C96.1895 83.6276 96.0089 84.1563 96.0089 84.5088C96.0089 84.8613 95.8283 85.39 95.6477 85.7424C95.4672 86.6236 95.106 87.5048 94.7449 88.2098C94.0226 89.7959 93.1197 91.3821 92.0362 92.9682C89.8693 95.788 86.9801 98.2554 83.5492 99.6653C81.924 100.37 80.1182 100.899 78.3125 101.251C77.4096 101.428 76.5067 101.428 75.6038 101.604H75.4232H75.2426H74.8815H74.5203H74.3398C74.3398 101.604 74.5203 101.604 74.3398 101.604C73.798 101.604 73.4369 101.604 72.8952 101.604C70.9088 101.428 68.9225 101.075 67.1167 100.546C65.3109 100.018 63.3246 99.3128 61.6994 98.4316C58.2685 96.6692 55.1987 94.2019 52.6706 91.2058C51.4066 89.7959 50.3231 88.2098 49.6008 86.4474C48.6979 84.685 47.9756 82.9226 47.4339 81.1603C46.8922 79.3979 46.531 77.4592 46.531 75.6969V75.3444V75.1681V74.8157V73.7582V73.582V73.2295V73.0533C46.531 72.877 46.531 72.5246 46.531 72.3483C46.531 71.4671 46.7116 70.4097 46.7116 69.5285C46.8922 68.6473 47.0727 67.5899 47.2533 66.7087C47.4339 65.8275 47.6145 64.7701 47.9756 63.8889C48.5173 62.1265 49.2397 60.3641 49.962 58.6017C51.5871 55.2532 53.5735 52.2572 56.1015 49.9661C56.6433 49.4373 57.3656 48.7324 58.0879 48.2037C58.8102 47.675 59.5325 47.1462 60.2548 46.7938C60.9771 46.265 61.6994 45.9126 62.4217 45.5601C62.7829 45.3839 63.144 45.2076 63.5052 45.0314C63.6858 45.0314 63.8663 44.8551 64.0469 44.8551C64.2275 44.8551 64.4081 44.6789 64.5886 44.6789C65.311 44.3264 66.2138 44.1502 66.9361 43.7977C67.1167 43.7977 67.2973 43.6215 67.4779 43.6215C67.6585 43.6215 67.839 43.4452 68.0196 43.4452C68.3807 43.269 68.9225 43.269 69.2836 43.0928C69.4642 43.0928 69.6448 42.9165 70.0059 42.9165C70.1865 42.9165 70.3671 42.9165 70.7282 42.7403C70.9088 42.7403 71.0894 42.7403 71.4505 42.564H71.8117H72.1728C72.3534 42.564 72.534 42.564 72.8952 42.3878C73.0757 42.3878 73.4369 42.3878 73.6175 42.2116C73.798 42.2116 74.1592 42.2116 74.3398 42.2116C74.5203 42.2116 74.7009 42.2116 74.8815 42.2116H75.2426H75.4232H75.6038C75.7844 42.2116 76.1455 42.2116 76.3261 42.2116H76.6872C76.6872 42.2116 76.8678 42.2116 76.6872 42.2116H76.8678C77.0484 42.2116 77.229 42.2116 77.4096 42.2116C78.3125 42.2116 79.0348 42.2116 79.9376 42.2116C81.5628 42.2116 83.188 42.3878 84.8132 42.7403C87.883 43.269 90.7722 44.3264 93.4809 45.5601C96.1895 46.7938 98.537 48.3799 100.523 50.1423C100.704 50.3185 100.704 50.3185 100.884 50.4948C101.065 50.671 101.065 50.671 101.246 50.8472C101.426 51.0235 101.787 51.1997 101.968 51.5522C102.148 51.9047 102.51 51.9047 102.69 52.2572C102.871 52.6096 103.232 52.7859 103.413 52.9621C104.315 53.8433 105.038 54.7245 105.76 55.7819C107.205 57.5443 108.469 59.4829 109.372 61.2453C109.372 61.4216 109.552 61.4216 109.552 61.5978C109.552 61.774 109.733 61.774 109.733 61.9503C109.913 62.1265 109.913 62.3027 110.094 62.6552C110.274 62.8315 110.274 63.0077 110.455 63.3602C110.636 63.5364 110.636 63.7127 110.816 64.0651C111.177 64.9463 111.538 65.6513 111.719 66.3562C112.08 67.5899 112.441 68.6473 112.622 69.5285C112.803 69.881 113.164 70.2335 113.525 70.0572C113.886 70.0572 114.247 69.7048 114.247 69.3523C114.969 67.2374 114.969 66.0037 114.789 64.7701Z" fill="white"/>
</svg>