<svg width="129" height="45" viewBox="0 0 129 45" fill="none" xmlns="http://www.w3.org/2000/svg">
<rect x="1.5" y="1.23438" width="126.5" height="42.5" rx="21.25" stroke="#1866D4" stroke-width="1.5"/>
<path d="M54.0163 21.049C53.7116 20.0472 52.9361 19.4379 51.7958 19.4379C50.2678 19.4379 49.1644 20.6197 49.1644 22.7479C49.1644 24.8899 50.2493 26.0763 51.8327 26.0763C53.2546 26.0763 54.1548 25.2223 54.1825 23.8743H52.0036V22.5355H55.8398V23.6712C55.8398 26.1087 54.1641 27.6136 51.8235 27.6136C49.2152 27.6136 47.4425 25.7578 47.4425 22.7663C47.4425 19.7195 49.2983 17.9006 51.7727 17.9006C53.864 17.9006 55.4705 19.1932 55.7614 21.049H54.0163ZM57.2921 27.4844V20.3935H58.9125V21.5753H58.9864C59.2449 20.7536 59.9235 20.2919 60.736 20.2919C60.9207 20.2919 61.1838 20.3104 61.3362 20.3381V21.8754C61.1931 21.8292 60.8422 21.7784 60.5606 21.7784C59.6419 21.7784 58.9633 22.4155 58.9633 23.3157V27.4844H57.2921ZM65.1175 27.6229C63.0401 27.6229 61.7198 26.1594 61.7198 23.9666C61.7198 21.7692 63.0401 20.3011 65.1175 20.3011C67.1949 20.3011 68.5152 21.7692 68.5152 23.9666C68.5152 26.1594 67.1949 27.6229 65.1175 27.6229ZM65.1267 26.2841C66.2578 26.2841 66.821 25.2592 66.821 23.962C66.821 22.6648 66.2578 21.6261 65.1267 21.6261C63.9772 21.6261 63.414 22.6648 63.414 23.962C63.414 25.2592 63.9772 26.2841 65.1267 26.2841ZM73.3445 20.3935V21.6861H71.9457V25.3516C71.9457 26.0256 72.2827 26.1733 72.7028 26.1733C72.9105 26.1733 73.0998 26.1317 73.1921 26.1087L73.4737 27.4151C73.2937 27.4751 72.9659 27.5675 72.4904 27.5813C71.2347 27.6183 70.2653 26.9627 70.2745 25.6286V21.6861H69.2681V20.3935H70.2745V18.6946H71.9457V20.3935H73.3445ZM80.7905 30.2912C78.9855 30.2912 77.9652 29.4925 77.6605 28.5L79.1655 28.1353C79.3686 28.5508 79.8118 29.0263 80.8182 29.0263C81.7692 29.0263 82.4617 28.5969 82.4617 27.5536V26.2102H82.3786C82.1201 26.7319 81.5522 27.3828 80.3381 27.3828C78.7039 27.3828 77.4159 26.2287 77.4159 23.9158C77.4159 21.5845 78.7039 20.3011 80.3427 20.3011C81.5938 20.3011 82.1247 21.0536 82.3786 21.5661H82.4709V20.3935H84.119V27.5998C84.119 29.4141 82.7064 30.2912 80.7905 30.2912ZM80.8044 26.0717C81.8708 26.0717 82.4709 25.2592 82.4709 23.9066C82.4709 22.5632 81.88 21.6722 80.8044 21.6722C79.6918 21.6722 79.1194 22.6186 79.1194 23.9066C79.1194 25.2131 79.701 26.0717 80.8044 26.0717ZM88.7948 27.6229C86.7173 27.6229 85.397 26.1594 85.397 23.9666C85.397 21.7692 86.7173 20.3011 88.7948 20.3011C90.8722 20.3011 92.1925 21.7692 92.1925 23.9666C92.1925 26.1594 90.8722 27.6229 88.7948 27.6229ZM88.804 26.2841C89.935 26.2841 90.4982 25.2592 90.4982 23.962C90.4982 22.6648 89.935 21.6261 88.804 21.6261C87.6545 21.6261 87.0913 22.6648 87.0913 23.962C87.0913 25.2592 87.6545 26.2841 88.804 26.2841ZM96.5739 27.6229C94.4965 27.6229 93.1762 26.1594 93.1762 23.9666C93.1762 21.7692 94.4965 20.3011 96.5739 20.3011C98.6513 20.3011 99.9717 21.7692 99.9717 23.9666C99.9717 26.1594 98.6513 27.6229 96.5739 27.6229ZM96.5832 26.2841C97.7142 26.2841 98.2774 25.2592 98.2774 23.962C98.2774 22.6648 97.7142 21.6261 96.5832 21.6261C95.4337 21.6261 94.8705 22.6648 94.8705 23.962C94.8705 25.2592 95.4337 26.2841 96.5832 26.2841ZM103.891 27.609C102.22 27.609 100.969 26.2841 100.969 23.9482C100.969 21.5845 102.257 20.3011 103.896 20.3011C105.147 20.3011 105.669 21.0536 105.923 21.5661H105.992V18.0298H107.668V27.4844H106.024V26.3672H105.923C105.66 26.8842 105.11 27.609 103.891 27.609ZM104.358 26.2379C105.424 26.2379 106.024 25.3146 106.024 23.9389C106.024 22.5632 105.433 21.6722 104.358 21.6722C103.245 21.6722 102.673 22.6186 102.673 23.9389C102.673 25.2685 103.254 26.2379 104.358 26.2379Z" fill="#1866D4"/>
<path fill-rule="evenodd" clip-rule="evenodd" d="M35.75 25.2285C36.3713 25.2285 36.875 25.7322 36.875 26.3535C36.875 26.9748 36.3713 27.4785 35.75 27.4785L35 27.4785C35.6213 27.4785 36.125 27.9822 36.125 28.6035C36.125 29.2253 35.621 29.3535 35 29.3535L30.125 29.3535C27.9867 29.3535 27.5 28.9785 24.875 28.6035L24.875 22.2285C26.7125 22.2285 29.75 18.8535 29.75 15.8535C29.75 14.6678 31.3918 14.226 32 16.3928C32.375 17.7285 31.25 20.3535 31.25 20.3535L37.25 20.3535C37.8713 20.3535 38.375 20.8572 38.375 21.4785C38.375 22.1003 37.871 22.9785 37.25 22.9785L36.5 22.9785C37.1213 22.9785 37.625 23.4822 37.625 24.1035C37.625 24.7248 37.1213 25.2285 36.5 25.2285L35.75 25.2285Z" fill="#1866D4"/>
<path fill-rule="evenodd" clip-rule="evenodd" d="M24.875 30.1035L21.125 30.1035L21.125 21.1035L24.875 21.1035L24.875 30.1035Z" fill="#1866D4"/>
</svg>
