<svg width="129" height="45" viewBox="0 0 129 45" fill="none" xmlns="http://www.w3.org/2000/svg">
<rect x="0.978516" y="0.484375" width="128" height="44" rx="22" fill="#1866D4"/>
<path d="M54.2449 21.049C53.9402 20.0472 53.1646 19.4379 52.0243 19.4379C50.4963 19.4379 49.3929 20.6197 49.3929 22.7479C49.3929 24.8899 50.4778 26.0763 52.0613 26.0763C53.4831 26.0763 54.3833 25.2223 54.411 23.8743H52.2321V22.5355H56.0684V23.6712C56.0684 26.1087 54.3926 27.6136 52.052 27.6136C49.4437 27.6136 47.671 25.7578 47.671 22.7663C47.671 19.7195 49.5268 17.9006 52.0012 17.9006C54.0925 17.9006 55.699 19.1932 55.9899 21.049H54.2449ZM57.5207 27.4844V20.3935H59.141V21.5753H59.2149C59.4734 20.7536 60.152 20.2919 60.9645 20.2919C61.1492 20.2919 61.4123 20.3104 61.5647 20.3381V21.8754C61.4216 21.8292 61.0707 21.7784 60.7891 21.7784C59.8704 21.7784 59.1918 22.4155 59.1918 23.3157V27.4844H57.5207ZM65.346 27.6229C63.2686 27.6229 61.9483 26.1594 61.9483 23.9666C61.9483 21.7692 63.2686 20.3011 65.346 20.3011C67.4234 20.3011 68.7437 21.7692 68.7437 23.9666C68.7437 26.1594 67.4234 27.6229 65.346 27.6229ZM65.3552 26.2841C66.4863 26.2841 67.0495 25.2592 67.0495 23.962C67.0495 22.6648 66.4863 21.6261 65.3552 21.6261C64.2057 21.6261 63.6425 22.6648 63.6425 23.962C63.6425 25.2592 64.2057 26.2841 65.3552 26.2841ZM73.573 20.3935V21.6861H72.1742V25.3516C72.1742 26.0256 72.5112 26.1733 72.9313 26.1733C73.139 26.1733 73.3283 26.1317 73.4206 26.1087L73.7022 27.4151C73.5222 27.4751 73.1944 27.5675 72.7189 27.5813C71.4633 27.6183 70.4938 26.9627 70.503 25.6286V21.6861H69.4966V20.3935H70.503V18.6946H72.1742V20.3935H73.573ZM81.019 30.2912C79.214 30.2912 78.1938 29.4925 77.8891 28.5L79.394 28.1353C79.5972 28.5508 80.0403 29.0263 81.0467 29.0263C81.9977 29.0263 82.6902 28.5969 82.6902 27.5536V26.2102H82.6071C82.3486 26.7319 81.7808 27.3828 80.5666 27.3828C78.9324 27.3828 77.6444 26.2287 77.6444 23.9158C77.6444 21.5845 78.9324 20.3011 80.5712 20.3011C81.8223 20.3011 82.3532 21.0536 82.6071 21.5661H82.6994V20.3935H84.3475V27.5998C84.3475 29.4141 82.9349 30.2912 81.019 30.2912ZM81.0329 26.0717C82.0993 26.0717 82.6994 25.2592 82.6994 23.9066C82.6994 22.5632 82.1085 21.6722 81.0329 21.6722C79.9203 21.6722 79.3479 22.6186 79.3479 23.9066C79.3479 25.2131 79.9295 26.0717 81.0329 26.0717ZM89.0233 27.6229C86.9459 27.6229 85.6255 26.1594 85.6255 23.9666C85.6255 21.7692 86.9459 20.3011 89.0233 20.3011C91.1007 20.3011 92.421 21.7692 92.421 23.9666C92.421 26.1594 91.1007 27.6229 89.0233 27.6229ZM89.0325 26.2841C90.1635 26.2841 90.7267 25.2592 90.7267 23.962C90.7267 22.6648 90.1635 21.6261 89.0325 21.6261C87.883 21.6261 87.3198 22.6648 87.3198 23.962C87.3198 25.2592 87.883 26.2841 89.0325 26.2841ZM96.8024 27.6229C94.725 27.6229 93.4047 26.1594 93.4047 23.9666C93.4047 21.7692 94.725 20.3011 96.8024 20.3011C98.8799 20.3011 100.2 21.7692 100.2 23.9666C100.2 26.1594 98.8799 27.6229 96.8024 27.6229ZM96.8117 26.2841C97.9427 26.2841 98.5059 25.2592 98.5059 23.962C98.5059 22.6648 97.9427 21.6261 96.8117 21.6261C95.6622 21.6261 95.099 22.6648 95.099 23.962C95.099 25.2592 95.6622 26.2841 96.8117 26.2841ZM104.12 27.609C102.449 27.609 101.198 26.2841 101.198 23.9482C101.198 21.5845 102.486 20.3011 104.125 20.3011C105.376 20.3011 105.897 21.0536 106.151 21.5661H106.22V18.0298H107.896V27.4844H106.253V26.3672H106.151C105.888 26.8842 105.339 27.609 104.12 27.609ZM104.586 26.2379C105.653 26.2379 106.253 25.3146 106.253 23.9389C106.253 22.5632 105.662 21.6722 104.586 21.6722C103.474 21.6722 102.901 22.6186 102.901 23.9389C102.901 25.2685 103.483 26.2379 104.586 26.2379Z" fill="white"/>
<path fill-rule="evenodd" clip-rule="evenodd" d="M35.9785 25.2285V25.2285C36.5998 25.2285 37.1035 25.7322 37.1035 26.3535C37.1035 26.9748 36.5998 27.4785 35.9785 27.4785L35.2285 27.4785C35.8498 27.4785 36.3535 27.9822 36.3535 28.6035C36.3535 29.2253 35.8495 29.3535 35.2285 29.3535L30.3535 29.3535C28.2153 29.3535 27.7285 28.9785 25.1035 28.6035L25.1035 22.2285C26.941 22.2285 29.9785 18.8535 29.9785 15.8535C29.9785 14.6678 31.6203 14.226 32.2285 16.3928C32.6035 17.7285 31.4785 20.3535 31.4785 20.3535L37.4785 20.3535C38.0998 20.3535 38.6035 20.8572 38.6035 21.4785C38.6035 22.1003 38.0995 22.9785 37.4785 22.9785L36.7285 22.9785C37.3498 22.9785 37.8535 23.4822 37.8535 24.1035C37.8535 24.7248 37.3498 25.2285 36.7285 25.2285L35.9785 25.2285" fill="white"/>
<path fill-rule="evenodd" clip-rule="evenodd" d="M25.1035 30.1035L21.3535 30.1035L21.3535 21.1035L25.1035 21.1035L25.1035 30.1035Z" fill="white"/>
<path d="M23.416 28.2285C23.3125 28.2285 23.2285 28.3125 23.2285 28.416C23.2285 28.5196 23.3125 28.6035 23.416 28.6035C23.5196 28.6035 23.6035 28.5196 23.6035 28.416C23.6035 28.3125 23.5196 28.2285 23.416 28.2285" stroke="white" stroke-width="2" stroke-linecap="round" stroke-linejoin="round"/>
</svg>
