<svg width="64" height="64" viewBox="0 0 64 64" fill="none" xmlns="http://www.w3.org/2000/svg">
<g clip-path="url(#clip0_7838_654)">
<path d="M32 64C49.6731 64 64 49.6731 64 32C64 14.3269 49.6731 0 32 0C14.3269 0 0 14.3269 0 32C0 49.6731 14.3269 64 32 64Z" fill="#F4F4F6"/>
<path opacity="0.1" d="M30.4229 54.0412C39.8399 54.0412 47.4739 53.145 47.4739 52.0394C47.4739 50.9338 39.8399 50.0376 30.4229 50.0376C21.006 50.0376 13.3721 50.9338 13.3721 52.0394C13.3721 53.145 21.006 54.0412 30.4229 54.0412Z" fill="#080821"/>
<path d="M52.3166 34.7114C53.5867 33.9121 55.7947 32.8617 56.8455 34.7115C57.8961 36.5614 53.3479 40.3026 49.9912 41.0733" fill="#F99F10"/>
<path d="M52.3166 34.7114C53.5867 33.9121 55.7947 32.8617 56.8455 34.7115C57.8961 36.5614 53.3479 40.3026 49.9912 41.0733" stroke="#3A1103" stroke-width="0.672982" stroke-miterlimit="10" stroke-linecap="round"/>
<path d="M27.2721 15.6234C23.1769 12.7682 17.9371 12.1276 17.0155 13.1524C16.2679 13.9826 19.0921 18.5301 18.6345 19.859C18.1782 21.1881 14.1719 20.3283 13.7337 22.0182C13.5261 22.8212 16.5992 24.7585 16.5167 25.88C16.4341 27.0015 14.061 26.6843 13.8871 28.1358C13.7698 29.1116 15.9353 29.3268 15.8528 30.4895C15.7703 31.6522 14.2067 31.4394 14.275 32.5661C14.3305 33.4799 16.0397 32.878 16.4973 34.4145C16.9536 35.951 27.2734 15.6234 27.2734 15.6234H27.2721Z" fill="#EF6122"/>
<path d="M9.00267 42.892C9.12767 39.1333 11.7508 38.2993 13.6559 38.9412C15.5599 39.5831 15.4541 41.7964 14.9733 42.6291C14.2051 43.958 13.0772 43.3844 13.4987 42.4537C13.8106 41.5605 13.8687 40.3205 12.3928 40.7149C10.5585 41.206 11.1295 46.1377 14.9914 45.1684C17.6364 44.5046 17.4288 41.7035 17.2188 37.6187C16.6555 33.6666 17.2652 28.4848 18.946 23.566C22.3516 13.5995 42.866 10.3602 49.6759 19.5791C58.5223 31.5539 48.7671 43.2503 47.2667 44.7443C42.5928 48.3716 43.3507 51.6534 40.0018 51.8712C36.8193 52.0787 37.081 48.8447 34.976 48.6642C34.8523 48.6642 34.7286 48.6642 34.6048 48.6616C32.1338 48.8434 31.6569 51.9253 27.9303 51.8712C24.8935 51.8274 26.2457 49.1746 24.2168 47.9024C23.7914 47.7013 23.4227 47.5596 23.0824 47.4667C22.8143 47.41 22.5166 47.3688 22.1801 47.3481C22.1028 47.343 21.6349 47.3455 21.4982 47.3455C20.293 47.3674 19.5699 47.6523 16.8463 48.2066C11.939 49.2043 8.89695 46.072 9.00267 42.892Z" fill="#FAC20C" stroke="#3A1103" stroke-width="0.672982" stroke-miterlimit="10"/>
<path d="M22.3987 18.1675C29.3748 13.2254 37.4942 15.9245 38.5318 16.6103C39.5695 17.2961 41.0402 16.4814 40.214 14.4228C37.4452 7.52932 30.3015 4.02322 28.3783 5.21034C26.2283 6.53799 28.9326 12.4597 27.5276 13.848C26.3997 14.9617 25.6315 14.1109 23.7135 13.4677C21.9811 12.8864 22.3987 18.1675 22.3987 18.1675Z" fill="#EF6122"/>
<path d="M32.8458 31.6691H51.9592C54.2557 31.6691 56.1175 29.8073 56.1175 27.5107V27.5094C56.1175 25.2128 54.2557 23.3511 51.9592 23.3511H32.8458C30.5492 23.3511 28.6875 25.2128 28.6875 27.5094V27.5107C28.6875 29.8073 30.5492 31.6691 32.8458 31.6691Z" fill="#5545EF" stroke="#231735" stroke-width="0.672982" stroke-miterlimit="10"/>
<path d="M37.2516 30.2674H51.7554C53.279 30.2674 54.5139 29.0324 54.5139 27.5089C54.5139 25.9855 53.279 24.7505 51.7554 24.7505H37.2516C35.7282 24.7505 34.4932 25.9855 34.4932 27.5089C34.4932 29.0324 35.7282 30.2674 37.2516 30.2674Z" fill="#19052D"/>
<path d="M36.4307 27.9029L37.8021 26.6306C38.0251 26.423 38.386 26.4244 38.609 26.6306L39.6789 27.6282C39.902 27.8358 40.2628 27.8358 40.4858 27.6282L40.607 27.5161C40.83 27.3086 41.1909 27.3099 41.4139 27.5161L42.8924 28.8954C43.1154 29.1029 43.4763 29.1029 43.6993 28.8954L46.2065 26.5687C46.4295 26.3612 46.7903 26.3625 47.0133 26.5687L47.7713 27.2751C47.9943 27.4827 48.3552 27.4827 48.5781 27.2751C48.8011 27.0676 49.1621 27.0689 49.3851 27.2751L50.2745 28.1052C50.4975 28.3128 50.8584 28.3128 51.0814 28.1052L52.7481 26.5597" stroke="white" stroke-width="0.697209" stroke-miterlimit="10" stroke-linecap="round"/>
<path d="M31.1494 41.7535C29.3512 43.3879 27.3043 43.9925 26.1597 42.5939C24.8951 41.0484 26.032 39.2579 27.6896 37.7446" fill="#F99F10"/>
<path d="M31.1494 41.7535C29.3512 43.3879 27.3043 43.9925 26.1597 42.5939C24.8951 41.0484 26.032 39.2579 27.6896 37.7446" stroke="#3A1103" stroke-width="0.672982" stroke-miterlimit="10" stroke-linecap="round"/>
<path d="M24.8704 14.2386C21.3541 12.5835 17.924 11.7057 17.0153 13.1493C16.0331 14.7103 19.3818 18.0256 18.6343 19.8561C17.9356 21.5678 13.99 20.0983 13.7335 22.0151C13.5284 23.5491 16.5989 24.7556 16.5165 25.8769C16.4339 26.9984 14.0312 26.5408 13.8559 27.9935C13.7386 28.9693 15.935 29.3238 15.8513 30.4864C15.7688 31.6491 14.2735 31.4352 14.2735 32.563C14.2735 33.4808 16.9534 33.5594 17.0294 35.4684" stroke="#3A1103" stroke-width="0.672982" stroke-miterlimit="10"/>
<path d="M38.5299 16.6097C39.5676 17.2954 41.0383 16.4807 40.2121 14.4223C37.4433 7.52862 30.511 4.00968 28.3765 5.20976C26.1362 6.46907 28.9308 12.4591 27.5257 13.8474C26.7408 14.6233 25.7095 14.5898 24.7646 14.1928" stroke="#3A1103" stroke-width="0.672982" stroke-miterlimit="10"/>
<path d="M38.5721 16.6411C34.8404 14.4291 28.242 14.3118 22.3887 18.6893" stroke="#3A1103" stroke-width="0.672982" stroke-miterlimit="10"/>
<path d="M36.2948 35.7864C36.2368 33.9999 36.8298 32.8746 38.7323 33.5874C40.6349 34.3003 43.8445 34.598 45.3294 34.4795C46.8157 34.3608 47.5285 34.1817 47.5285 34.8958C47.5285 35.6098 46.2214 36.0249 46.1016 37.7483C45.983 39.4717 44.4375 40.6009 40.5151 40.0066C36.5926 39.4124 36.3541 37.6297 36.2948 35.7864Z" fill="black"/>
<path d="M41.911 35.0773C43.8769 35.2268 45.0008 35.054 45.0253 35.1946C45.0498 35.335 45.1658 36.6459 44.0882 36.6923C43.0106 36.7388 42.8714 35.8957 42.8714 35.8957C42.8714 35.8957 42.8481 36.6679 41.8183 36.6215C40.7884 36.575 40.6015 35.5451 40.6015 35.5451C40.6015 35.5451 40.4842 36.1768 39.5251 36.0362C38.5648 35.8957 38.6821 34.5616 38.753 34.4675C38.824 34.3734 39.7597 34.9122 41.9137 35.076L41.911 35.0773Z" fill="white"/>
</g>
<defs>
<clipPath id="clip0_7838_654">
<rect width="64" height="64" fill="white"/>
</clipPath>
</defs>
</svg>
