<svg width="129" height="45" viewBox="0 0 129 45" fill="none" xmlns="http://www.w3.org/2000/svg">
<rect x="1.72852" y="1.5332" width="126.5" height="42.5" rx="21.25" stroke="#BCBCC8" stroke-width="1.5"/>
<path d="M54.2449 21.3478C53.9402 20.3461 53.1646 19.7367 52.0243 19.7367C50.4963 19.7367 49.3929 20.9185 49.3929 23.0467C49.3929 25.1887 50.4778 26.3752 52.0613 26.3752C53.4831 26.3752 54.3833 25.5211 54.411 24.1731H52.2321V22.8343H56.0684V23.97C56.0684 26.4075 54.3926 27.9125 52.052 27.9125C49.4437 27.9125 47.671 26.0566 47.671 23.0652C47.671 20.0183 49.5268 18.1994 52.0012 18.1994C54.0925 18.1994 55.699 19.492 55.9899 21.3478H54.2449ZM57.5207 27.7832V20.6923H59.141V21.8741H59.2149C59.4734 21.0524 60.152 20.5907 60.9645 20.5907C61.1492 20.5907 61.4123 20.6092 61.5647 20.6369V22.1742C61.4216 22.128 61.0707 22.0772 60.7891 22.0772C59.8704 22.0772 59.1918 22.7143 59.1918 23.6145V27.7832H57.5207ZM65.346 27.9217C63.2686 27.9217 61.9483 26.4583 61.9483 24.2654C61.9483 22.068 63.2686 20.6 65.346 20.6C67.4234 20.6 68.7437 22.068 68.7437 24.2654C68.7437 26.4583 67.4234 27.9217 65.346 27.9217ZM65.3552 26.5829C66.4863 26.5829 67.0495 25.5581 67.0495 24.2608C67.0495 22.9636 66.4863 21.9249 65.3552 21.9249C64.2057 21.9249 63.6425 22.9636 63.6425 24.2608C63.6425 25.5581 64.2057 26.5829 65.3552 26.5829ZM73.573 20.6923V21.9849H72.1742V25.6504C72.1742 26.3244 72.5112 26.4721 72.9313 26.4721C73.139 26.4721 73.3283 26.4306 73.4206 26.4075L73.7022 27.714C73.5222 27.774 73.1944 27.8663 72.7189 27.8801C71.4633 27.9171 70.4938 27.2615 70.503 25.9274V21.9849H69.4966V20.6923H70.503V18.9934H72.1742V20.6923H73.573ZM81.019 30.59C79.214 30.59 78.1938 29.7914 77.8891 28.7988L79.394 28.4341C79.5972 28.8496 80.0403 29.3251 81.0467 29.3251C81.9977 29.3251 82.6902 28.8958 82.6902 27.8525V26.5091H82.6071C82.3486 27.0307 81.7808 27.6816 80.5666 27.6816C78.9324 27.6816 77.6444 26.5275 77.6444 24.2147C77.6444 21.8833 78.9324 20.6 80.5712 20.6C81.8223 20.6 82.3532 21.3525 82.6071 21.8649H82.6994V20.6923H84.3475V27.8986C84.3475 29.7129 82.9349 30.59 81.019 30.59ZM81.0329 26.3706C82.0993 26.3706 82.6994 25.5581 82.6994 24.2054C82.6994 22.862 82.1085 21.9711 81.0329 21.9711C79.9203 21.9711 79.3479 22.9174 79.3479 24.2054C79.3479 25.5119 79.9295 26.3706 81.0329 26.3706ZM89.0233 27.9217C86.9459 27.9217 85.6255 26.4583 85.6255 24.2654C85.6255 22.068 86.9459 20.6 89.0233 20.6C91.1007 20.6 92.421 22.068 92.421 24.2654C92.421 26.4583 91.1007 27.9217 89.0233 27.9217ZM89.0325 26.5829C90.1635 26.5829 90.7267 25.5581 90.7267 24.2608C90.7267 22.9636 90.1635 21.9249 89.0325 21.9249C87.883 21.9249 87.3198 22.9636 87.3198 24.2608C87.3198 25.5581 87.883 26.5829 89.0325 26.5829ZM96.8024 27.9217C94.725 27.9217 93.4047 26.4583 93.4047 24.2654C93.4047 22.068 94.725 20.6 96.8024 20.6C98.8799 20.6 100.2 22.068 100.2 24.2654C100.2 26.4583 98.8799 27.9217 96.8024 27.9217ZM96.8117 26.5829C97.9427 26.5829 98.5059 25.5581 98.5059 24.2608C98.5059 22.9636 97.9427 21.9249 96.8117 21.9249C95.6622 21.9249 95.099 22.9636 95.099 24.2608C95.099 25.5581 95.6622 26.5829 96.8117 26.5829ZM104.12 27.9078C102.449 27.9078 101.198 26.5829 101.198 24.247C101.198 21.8833 102.486 20.6 104.125 20.6C105.376 20.6 105.897 21.3525 106.151 21.8649H106.22V18.3287H107.896V27.7832H106.253V26.666H106.151C105.888 27.1831 105.339 27.9078 104.12 27.9078ZM104.586 26.5368C105.653 26.5368 106.253 25.6135 106.253 24.2377C106.253 22.862 105.662 21.9711 104.586 21.9711C103.474 21.9711 102.901 22.9174 102.901 24.2377C102.901 25.5673 103.483 26.5368 104.586 26.5368Z" fill="#BCBCC8"/>
<path fill-rule="evenodd" clip-rule="evenodd" d="M35.9785 25.5273V25.5273C36.5998 25.5273 37.1035 26.031 37.1035 26.6523C37.1035 27.2737 36.5998 27.7773 35.9785 27.7773L35.2285 27.7773C35.8498 27.7773 36.3535 28.281 36.3535 28.9023C36.3535 29.5241 35.8495 29.6523 35.2285 29.6523L30.3535 29.6523C28.2153 29.6523 27.7285 29.2773 25.1035 28.9023L25.1035 22.5273C26.941 22.5273 29.9785 19.1523 29.9785 16.1523C29.9785 14.9666 31.6203 14.5248 32.2285 16.6916C32.6035 18.0273 31.4785 20.6523 31.4785 20.6523L37.4785 20.6523C38.0998 20.6523 38.6035 21.156 38.6035 21.7773C38.6035 22.3991 38.0995 23.2773 37.4785 23.2773L36.7285 23.2773C37.3498 23.2773 37.8535 23.781 37.8535 24.4023C37.8535 25.0237 37.3498 25.5273 36.7285 25.5273L35.9785 25.5273" fill="#BCBCC8"/>
<path fill-rule="evenodd" clip-rule="evenodd" d="M25.1035 30.4023L21.3535 30.4023L21.3535 21.4023L25.1035 21.4023L25.1035 30.4023Z" fill="#BCBCC8"/>
<path d="M23.416 28.5273C23.3125 28.5273 23.2285 28.6113 23.2285 28.7148C23.2285 28.8184 23.3125 28.9023 23.416 28.9023C23.5196 28.9023 23.6035 28.8184 23.6035 28.7148C23.6035 28.6113 23.5196 28.5273 23.416 28.5273" stroke="#BCBCC8" stroke-width="2" stroke-linecap="round" stroke-linejoin="round"/>
</svg>
