<svg width="129" height="45" viewBox="0 0 129 45" fill="none" xmlns="http://www.w3.org/2000/svg">
<rect x="1.72852" y="1.5332" width="126.5" height="42.5" rx="21.25" stroke="#BCBCC8" stroke-width="1.5"/>
<path d="M54.2449 21.3478C53.9402 20.3461 53.1646 19.7367 52.0243 19.7367C50.4963 19.7367 49.3929 20.9185 49.3929 23.0467C49.3929 25.1887 50.4778 26.3752 52.0613 26.3752C53.4831 26.3752 54.3833 25.5211 54.411 24.1731H52.2321V22.8343H56.0684V23.97C56.0684 26.4075 54.3926 27.9125 52.052 27.9125C49.4437 27.9125 47.671 26.0566 47.671 23.0652C47.671 20.0183 49.5268 18.1994 52.0012 18.1994C54.0925 18.1994 55.699 19.492 55.9899 21.3478H54.2449ZM57.5207 27.7832V20.6923H59.141V21.8741H59.2149C59.4734 21.0524 60.152 20.5907 60.9645 20.5907C61.1492 20.5907 61.4123 20.6092 61.5647 20.6369V22.1742C61.4216 22.128 61.0707 22.0772 60.7891 22.0772C59.8704 22.0772 59.1918 22.7143 59.1918 23.6145V27.7832H57.5207ZM65.346 27.9217C63.2686 27.9217 61.9483 26.4583 61.9483 24.2654C61.9483 22.068 63.2686 20.6 65.346 20.6C67.4234 20.6 68.7437 22.068 68.7437 24.2654C68.7437 26.4583 67.4234 27.9217 65.346 27.9217ZM65.3552 26.5829C66.4863 26.5829 67.0495 25.5581 67.0495 24.2608C67.0495 22.9636 66.4863 21.9249 65.3552 21.9249C64.2057 21.9249 63.6425 22.9636 63.6425 24.2608C63.6425 25.5581 64.2057 26.5829 65.3552 26.5829ZM73.573 20.6923V21.9849H72.1742V25.6504C72.1742 26.3244 72.5112 26.4721 72.9313 26.4721C73.139 26.4721 73.3283 26.4306 73.4206 26.4075L73.7022 27.714C73.5222 27.774 73.1944 27.8663 72.7189 27.8801C71.4633 27.9171 70.4938 27.2615 70.503 25.9274V21.9849H69.4966V20.6923H70.503V18.9934H72.1742V20.6923H73.573ZM78.0091 27.7832V18.3287H79.6803V21.8649H79.7495C80.0034 21.3525 80.5251 20.6 81.7761 20.6C83.415 20.6 84.703 21.8833 84.703 24.247C84.703 26.5829 83.4519 27.9078 81.7808 27.9078C80.562 27.9078 80.0126 27.1831 79.7495 26.666H79.6526V27.7832H78.0091ZM79.6479 24.2377C79.6479 25.6135 80.2481 26.5368 81.3145 26.5368C82.4178 26.5368 82.9995 25.5673 82.9995 24.2377C82.9995 22.9174 82.4271 21.9711 81.3145 21.9711C80.2388 21.9711 79.6479 22.862 79.6479 24.2377ZM88.0342 27.9263C86.6816 27.9263 85.6613 27.1877 85.6613 25.7935C85.6613 24.1962 86.977 23.7853 88.3527 23.6376C89.6038 23.5037 90.107 23.4806 90.107 23.0005V22.9728C90.107 22.2757 89.6823 21.8787 88.9067 21.8787C88.0896 21.8787 87.6187 22.2942 87.4525 22.7789L85.8921 22.5574C86.2615 21.2647 87.4063 20.6 88.8975 20.6C90.2501 20.6 91.7782 21.1632 91.7782 23.0375V27.7832H90.1716V26.8091H90.1162C89.8115 27.4047 89.1468 27.9263 88.0342 27.9263ZM88.4681 26.6983C89.4745 26.6983 90.1116 26.0289 90.1116 25.2395V24.4039C89.8946 24.5794 89.0175 24.6902 88.5789 24.7502C87.8311 24.8564 87.2725 25.1241 87.2725 25.7658C87.2725 26.3798 87.771 26.6983 88.4681 26.6983ZM95.9599 27.9078C94.2888 27.9078 93.0377 26.5829 93.0377 24.247C93.0377 21.8833 94.3257 20.6 95.9646 20.6C97.2156 20.6 97.7373 21.3525 97.9912 21.8649H98.0604V18.3287H99.7362V27.7832H98.0928V26.666H97.9912C97.7281 27.1831 97.1787 27.9078 95.9599 27.9078ZM96.4262 26.5368C97.4926 26.5368 98.0928 25.6135 98.0928 24.2377C98.0928 22.862 97.5018 21.9711 96.4262 21.9711C95.3136 21.9711 94.7412 22.9174 94.7412 24.2377C94.7412 25.5673 95.3229 26.5368 96.4262 26.5368Z" fill="#BCBCC8"/>
<path fill-rule="evenodd" clip-rule="evenodd" d="M35.9785 20.0391V20.0391C36.5998 20.0391 37.1035 19.5354 37.1035 18.9141C37.1035 18.2927 36.5998 17.7891 35.9785 17.7891L35.2285 17.7891C35.8498 17.7891 36.3535 17.2854 36.3535 16.6641C36.3535 16.0423 35.8495 15.9141 35.2285 15.9141L30.3535 15.9141C28.2153 15.9141 27.7285 16.2891 25.1035 16.6641L25.1035 23.0391C26.941 23.0391 29.9785 26.4141 29.9785 29.4141C29.9785 30.5998 31.6203 31.0416 32.2285 28.8748C32.6035 27.5391 31.4785 24.9141 31.4785 24.9141L37.4785 24.9141C38.0998 24.9141 38.6035 24.4104 38.6035 23.7891C38.6035 23.1673 38.0995 22.2891 37.4785 22.2891L36.7285 22.2891C37.3498 22.2891 37.8535 21.7854 37.8535 21.1641C37.8535 20.5427 37.3498 20.0391 36.7285 20.0391L35.9785 20.0391" fill="#BCBCC8"/>
<path fill-rule="evenodd" clip-rule="evenodd" d="M25.1035 15.1641L21.3535 15.1641L21.3535 24.1641L25.1035 24.1641L25.1035 15.1641Z" fill="#BCBCC8"/>
<path d="M23.416 17.0391C23.3125 17.0391 23.2285 16.9551 23.2285 16.8516C23.2285 16.748 23.3125 16.6641 23.416 16.6641C23.5196 16.6641 23.6035 16.748 23.6035 16.8516C23.6035 16.9551 23.5196 17.0391 23.416 17.0391" stroke="#BCBCC8" stroke-width="2" stroke-linecap="round" stroke-linejoin="round"/>
</svg>
