<svg width="129" height="45" viewBox="0 0 129 45" fill="none" xmlns="http://www.w3.org/2000/svg">
<rect x="1.5" y="1.23438" width="126.5" height="42.5" rx="21.25" stroke="#1866D4" stroke-width="1.5"/>
<path d="M54.0163 21.049C53.7116 20.0472 52.9361 19.4379 51.7958 19.4379C50.2678 19.4379 49.1644 20.6197 49.1644 22.7479C49.1644 24.8899 50.2493 26.0763 51.8327 26.0763C53.2546 26.0763 54.1548 25.2223 54.1825 23.8743H52.0036V22.5355H55.8398V23.6712C55.8398 26.1087 54.1641 27.6136 51.8235 27.6136C49.2152 27.6136 47.4425 25.7578 47.4425 22.7663C47.4425 19.7195 49.2983 17.9006 51.7727 17.9006C53.864 17.9006 55.4705 19.1932 55.7614 21.049H54.0163ZM57.2921 27.4844V20.3935H58.9125V21.5753H58.9864C59.2449 20.7536 59.9235 20.2919 60.736 20.2919C60.9207 20.2919 61.1838 20.3104 61.3362 20.3381V21.8754C61.1931 21.8292 60.8422 21.7784 60.5606 21.7784C59.6419 21.7784 58.9633 22.4155 58.9633 23.3157V27.4844H57.2921ZM65.1175 27.6229C63.0401 27.6229 61.7198 26.1594 61.7198 23.9666C61.7198 21.7692 63.0401 20.3011 65.1175 20.3011C67.1949 20.3011 68.5152 21.7692 68.5152 23.9666C68.5152 26.1594 67.1949 27.6229 65.1175 27.6229ZM65.1267 26.2841C66.2578 26.2841 66.821 25.2592 66.821 23.962C66.821 22.6648 66.2578 21.6261 65.1267 21.6261C63.9772 21.6261 63.414 22.6648 63.414 23.962C63.414 25.2592 63.9772 26.2841 65.1267 26.2841ZM73.3445 20.3935V21.6861H71.9457V25.3516C71.9457 26.0256 72.2827 26.1733 72.7028 26.1733C72.9105 26.1733 73.0998 26.1317 73.1921 26.1087L73.4737 27.4151C73.2937 27.4751 72.9659 27.5675 72.4904 27.5813C71.2347 27.6183 70.2653 26.9627 70.2745 25.6286V21.6861H69.2681V20.3935H70.2745V18.6946H71.9457V20.3935H73.3445ZM77.7806 27.4844V18.0298H79.4517V21.5661H79.521C79.7749 21.0536 80.2966 20.3011 81.5476 20.3011C83.1865 20.3011 84.4745 21.5845 84.4745 23.9482C84.4745 26.2841 83.2234 27.609 81.5522 27.609C80.3335 27.609 79.7841 26.8842 79.521 26.3672H79.424V27.4844H77.7806ZM79.4194 23.9389C79.4194 25.3146 80.0196 26.2379 81.086 26.2379C82.1893 26.2379 82.771 25.2685 82.771 23.9389C82.771 22.6186 82.1985 21.6722 81.086 21.6722C80.0103 21.6722 79.4194 22.5632 79.4194 23.9389ZM87.8057 27.6275C86.453 27.6275 85.4328 26.8888 85.4328 25.4947C85.4328 23.8974 86.7485 23.4865 88.1242 23.3388C89.3753 23.2049 89.8785 23.1818 89.8785 22.7017V22.674C89.8785 21.9769 89.4538 21.5799 88.6782 21.5799C87.8611 21.5799 87.3902 21.9954 87.224 22.4801L85.6636 22.2585C86.0329 20.9659 87.1778 20.3011 88.669 20.3011C90.0216 20.3011 91.5496 20.8643 91.5496 22.7386V27.4844H89.9431V26.5103H89.8877C89.583 27.1058 88.9182 27.6275 87.8057 27.6275ZM88.2396 26.3995C89.246 26.3995 89.8831 25.7301 89.8831 24.9407V24.1051C89.6661 24.2805 88.789 24.3913 88.3504 24.4513C87.6025 24.5575 87.044 24.8253 87.044 25.467C87.044 26.081 87.5425 26.3995 88.2396 26.3995ZM95.7314 27.609C94.0603 27.609 92.8092 26.2841 92.8092 23.9482C92.8092 21.5845 94.0972 20.3011 95.736 20.3011C96.9871 20.3011 97.5088 21.0536 97.7627 21.5661H97.8319V18.0298H99.5077V27.4844H97.8642V26.3672H97.7627C97.4995 26.8842 96.9502 27.609 95.7314 27.609ZM96.1977 26.2379C97.2641 26.2379 97.8642 25.3146 97.8642 23.9389C97.8642 22.5632 97.2733 21.6722 96.1977 21.6722C95.0851 21.6722 94.5127 22.6186 94.5127 23.9389C94.5127 25.2685 95.0944 26.2379 96.1977 26.2379Z" fill="#1866D4"/>
<path fill-rule="evenodd" clip-rule="evenodd" d="M35.75 19.7402C36.3713 19.7402 36.875 19.2366 36.875 18.6152C36.875 17.9939 36.3713 17.4902 35.75 17.4902L35 17.4902C35.6213 17.4902 36.125 16.9866 36.125 16.3652C36.125 15.7435 35.621 15.6152 35 15.6152L30.125 15.6152C27.9867 15.6152 27.5 15.9902 24.875 16.3652L24.875 22.7402C26.7125 22.7402 29.75 26.1152 29.75 29.1152C29.75 30.301 31.3918 30.7427 32 28.576C32.375 27.2402 31.25 24.6152 31.25 24.6152L37.25 24.6152C37.8713 24.6152 38.375 24.1116 38.375 23.4902C38.375 22.8685 37.871 21.9902 37.25 21.9902L36.5 21.9902C37.1213 21.9902 37.625 21.4866 37.625 20.8652C37.625 20.2439 37.1213 19.7402 36.5 19.7402L35.75 19.7402Z" fill="#1866D4"/>
<path fill-rule="evenodd" clip-rule="evenodd" d="M24.875 14.8652L21.125 14.8652L21.125 23.8652L24.875 23.8652L24.875 14.8652Z" fill="#1866D4"/>
</svg>
