<svg width="16" height="17" viewBox="0 0 16 17" fill="none" xmlns="http://www.w3.org/2000/svg">
<path d="M15.7753 15.4031L12.8091 12.4586C13.9605 11.0219 14.5181 9.19831 14.3672 7.3628C14.2164 5.5273 13.3685 3.81941 11.998 2.59029C10.6275 1.36118 8.83851 0.704274 6.9989 0.75465C5.15928 0.805027 3.40887 1.55886 2.10758 2.86114C0.806291 4.16341 0.0530336 5.91516 0.00269517 7.75617C-0.0476432 9.59718 0.608763 11.3875 1.83694 12.7591C3.06512 14.1306 4.77172 14.9791 6.60583 15.1301C8.43994 15.2811 10.2621 14.7231 11.6978 13.5708L14.64 16.5153C14.7143 16.5903 14.8028 16.6498 14.9002 16.6904C14.9976 16.731 15.1021 16.752 15.2077 16.752C15.3132 16.752 15.4177 16.731 15.5152 16.6904C15.6126 16.6498 15.701 16.5903 15.7753 16.5153C15.9194 16.3661 16 16.1667 16 15.9592C16 15.7517 15.9194 15.5523 15.7753 15.4031ZM7.21243 13.5708C6.10552 13.5708 5.02346 13.2423 4.10309 12.6269C3.18272 12.0114 2.46538 11.1367 2.04178 10.1132C1.61818 9.08981 1.50735 7.96365 1.7233 6.87718C1.93925 5.79071 2.47228 4.79272 3.25499 4.00941C4.0377 3.22611 5.03493 2.69267 6.12058 2.47656C7.20622 2.26045 8.33153 2.37136 9.35419 2.79529C10.3768 3.21921 11.2509 3.93709 11.8659 4.85816C12.4809 5.77923 12.8091 6.86211 12.8091 7.96987C12.8091 9.45532 12.2195 10.8799 11.1699 11.9303C10.1203 12.9807 8.69676 13.5708 7.21243 13.5708Z" fill="#D8D8DF"/>
</svg>
