<svg width="30" height="30" viewBox="0 0 30 30" fill="none" xmlns="http://www.w3.org/2000/svg">
<rect x="0.75" y="0.75" width="28.5" height="28.5" rx="14.25" stroke="#BCBCC8" stroke-width="1.5"/>
<path d="M8.25 11.85C8.25 10.5899 8.25 9.95982 8.49524 9.47852C8.71095 9.05516 9.05516 8.71095 9.47852 8.49524C9.95982 8.25 10.5899 8.25 11.85 8.25H18.15C19.4101 8.25 20.0402 8.25 20.5215 8.49524C20.9448 8.71095 21.289 9.05516 21.5048 9.47852C21.75 9.95982 21.75 10.5899 21.75 11.85V15.9C21.75 17.1601 21.75 17.7902 21.5048 18.2715C21.289 18.6948 20.9448 19.039 20.5215 19.2548C20.0402 19.5 19.4101 19.5 18.15 19.5H13.2628C12.7948 19.5 12.5608 19.5 12.3369 19.5459C12.1383 19.5867 11.9461 19.6541 11.7656 19.7463C11.5621 19.8503 11.3794 19.9965 11.0139 20.2889L9.22482 21.7201C8.91275 21.9698 8.75672 22.0946 8.6254 22.0948C8.5112 22.0949 8.40317 22.043 8.33192 21.9537C8.25 21.8511 8.25 21.6513 8.25 21.2516V11.85Z" fill="#BCBCC8"/>
<path d="M11 12H19" stroke="white" stroke-width="1.5" stroke-linecap="round"/>
<path d="M11 16H16" stroke="white" stroke-width="1.5" stroke-linecap="round"/>
</svg>
