<svg width="31" height="29" viewBox="0 0 31 29" fill="none" xmlns="http://www.w3.org/2000/svg">
<path d="M30.7662 6.46051L27.9624 3.89526C27.782 3.73086 27.548 3.63953 27.3048 3.63953H16.957V1.46129C16.957 0.654157 16.3028 0 15.4957 0C14.6886 0 14.0333 0.654157 14.0333 1.46129V26.0852H12.8665C11.6267 26.0852 10.6221 27.0899 10.6221 28.3297V28.6904C10.6221 28.8537 10.7534 28.985 10.9166 28.985H20.0748C20.2369 28.985 20.3694 28.8537 20.3694 28.6904V28.3297C20.3694 27.0899 19.3647 26.0852 18.1249 26.0852H16.9581V10.2838H27.3059C27.5491 10.2838 27.7843 10.1925 27.9635 10.0281L30.7674 7.46287C31.0619 7.19344 31.0619 6.72994 30.7674 6.46051H30.7662Z" fill="#FF671D"/>
<path d="M3.68372 6.96875C3.44056 6.96875 3.20538 7.06008 3.02614 7.22448L0.221151 9.78973C-0.0733913 10.0592 -0.0733913 10.5227 0.221151 10.7921L3.02614 13.3573C3.20538 13.5217 3.44056 13.6131 3.68372 13.6131H12.8179V6.96989H3.68372V6.96875Z" fill="#FBC55A"/>
</svg>
