<svg width="30" height="27" viewBox="0 0 30 27" fill="none" xmlns="http://www.w3.org/2000/svg">
  <g clip-path="url(#clip0_5526_48249)">
  <path d="M9.8547 8.58991C10.5365 8.85169 11.2203 9.59905 11.812 10.1877C11.9753 10.3502 12.1363 10.5158 12.2933 10.6859C14.5877 13.1683 16.8382 15.9825 18.4446 18.9168C18.7972 19.5943 19.7879 21.4685 19.018 21.6422C18.8372 21.6829 2.68235 26.4064 0.522285 26.9914C0.386332 27.0282 0.209112 26.9406 0.0959441 26.7808C-0.00355239 26.6403 -0.0311481 26.475 0.0263219 26.3641C2.70133 21.2062 6.3108 14.3151 8.94227 9.18892C9.03265 9.00916 9.11569 8.79625 9.25291 8.66029C9.39418 8.52029 9.619 8.49928 9.85445 8.58966L9.8547 8.58991Z" fill="#F8CB18"/>
  <path d="M9.7158 8.82505C8.84539 8.74758 12.2756 14.126 12.746 14.7493C13.6893 15.9997 14.6286 17.2567 15.6757 18.4197C16.1119 18.9041 16.5605 19.379 17.0418 19.8046C17.5353 20.2408 18.0657 20.5942 18.5879 20.9636C18.8067 21.1183 19.0158 20.992 18.9561 20.7418C18.2659 17.8516 11.7022 9.53798 9.71554 8.82505H9.7158Z" fill="#F1AC18"/>
  <path d="M8.10232 10.8203C8.10232 10.8203 9.76135 16.3817 16.7995 22.2834L13.9668 23.1217C9.02918 18.839 6.74734 13.4404 6.74734 13.4404L8.10232 10.8203Z" fill="#F5295E"/>
  <path d="M5.49974 15.8477C5.49974 15.8477 6.67724 19.7916 11.4933 23.8297L9.07933 24.5312C5.70076 21.6007 4.26147 18.2275 4.26147 18.2275L5.49974 15.8477Z" fill="#F5295E"/>
  <path d="M3.16371 20.3323C3.16371 20.3323 3.66271 22.4916 6.86052 25.1729L5.14377 25.6684C2.90041 23.7225 2.32748 21.9382 2.32748 21.9382L3.16371 20.332V20.3323Z" fill="#F5295E"/>
  <path opacity="0.37" d="M6.16949 18.9984C8.10687 15.8195 9.34438 13.0395 8.93354 12.7891C8.52269 12.5387 6.61907 14.9127 4.68169 18.0917C2.7443 21.2706 1.50679 24.0506 1.91764 24.301C2.32848 24.5514 4.2321 22.1773 6.16949 18.9984Z" fill="white"/>
  <path opacity="0.43" d="M17.564 22.0618C17.564 22.0618 11.6585 19.2154 1.70227 26.6602L17.564 22.0618Z" fill="#AB7600"/>
  <path d="M11.6857 12.6602C12.0723 12.319 12.4176 11.9303 12.71 11.5058C13.0012 11.083 13.2442 10.6252 13.4328 10.148C13.6222 9.66875 13.7582 9.16646 13.8382 8.65733C13.9179 8.15023 13.9397 7.633 13.904 7.12083C13.8683 6.60841 13.7696 6.10105 13.6121 5.61218C13.5933 5.55395 13.5736 5.49597 13.5531 5.4385C13.5197 5.34483 13.3951 5.29318 13.3052 5.33496C13.208 5.38002 13.166 5.48256 13.2017 5.58281C13.2571 5.73826 13.306 5.89599 13.3483 6.05548C13.344 6.03953 13.3399 6.02384 13.3356 6.00789C13.4199 6.32612 13.4782 6.6512 13.5111 6.9788C13.5275 7.1426 13.5374 7.30716 13.5412 7.47173C13.5422 7.51299 13.5425 7.55401 13.5427 7.59527C13.5427 7.61527 13.5427 7.56565 13.5427 7.5697C13.5427 7.57426 13.5427 7.57882 13.5427 7.58337C13.5427 7.59401 13.5427 7.60464 13.5427 7.61553C13.5427 7.63679 13.5422 7.65831 13.542 7.67958C13.5407 7.76186 13.5376 7.84439 13.5333 7.92668C13.5156 8.25605 13.4733 8.58442 13.4078 8.90772C13.3916 8.98721 13.3741 9.0662 13.3551 9.14494C13.3506 9.16418 13.3457 9.18367 13.3409 9.20291C13.3384 9.21329 13.3356 9.22367 13.3331 9.23405C13.3321 9.23861 13.3308 9.24291 13.3298 9.24747C13.3235 9.27203 13.3341 9.23051 13.3351 9.22722C13.3232 9.26671 13.3138 9.30697 13.3027 9.34672C13.2581 9.50571 13.2078 9.66293 13.1518 9.81812C13.0399 10.1283 12.9052 10.4305 12.7488 10.7209C12.7293 10.7571 12.7093 10.7933 12.6893 10.829C12.6974 10.8149 12.7055 10.8004 12.7133 10.7862C12.5007 11.1632 12.251 11.5194 11.9662 11.8455C11.886 11.9374 11.8029 12.0268 11.7171 12.1136C11.729 12.1015 11.7409 12.0893 11.7528 12.0774C11.6561 12.1751 11.5561 12.2698 11.453 12.3607C11.3786 12.4263 11.3497 12.5453 11.4191 12.6271C11.4821 12.7015 11.6057 12.7314 11.6854 12.661L11.6857 12.6602Z" fill="#BB94E1"/>
  <path d="M19.0566 1.01469C19.011 0.988614 18.8077 0.893928 18.771 0.863801C18.7424 0.730379 18.8867 0.337203 18.675 0.335938C18.5464 0.394167 18.4272 0.577716 18.3257 0.67139C18.1978 0.630376 18.0715 0.566324 17.9424 0.528095C17.8869 0.503284 17.8244 0.522272 17.8031 0.58278C17.8206 0.737974 17.9654 0.850382 18.0209 0.993677C17.9297 1.12406 17.7897 1.2266 17.7003 1.3585C17.6634 1.58914 18.1122 1.40635 18.2355 1.39976C18.4773 1.82281 18.613 2.08535 18.6981 1.39166C18.7011 1.37774 18.7067 1.32483 18.7153 1.31419C18.827 1.28077 18.9467 1.26432 19.0611 1.24052C19.2449 1.22584 19.2014 1.05874 19.0568 1.01444L19.0566 1.01469Z" fill="#46B2FF"/>
  <path d="M15.4195 2.08283C15.5759 2.06992 15.624 2.2165 15.6101 2.35068L15.624 2.68006C15.4737 5.06443 17.6788 5.06342 17.6995 7.10702C17.7444 8.42123 16.2329 8.10958 15.8068 9.08708C15.6524 9.4243 15.6888 9.85596 15.8785 10.1755C15.9319 10.2636 16.0327 10.3727 16.0592 10.4724C16.082 10.6084 15.9263 10.697 15.8106 10.6395C15.4131 10.3038 15.3101 9.63696 15.4493 9.15037C15.779 7.9954 16.8109 8.22604 17.2859 7.55032C17.5127 6.99385 17.2935 6.33611 16.957 5.86673C16.5653 5.34621 16.0124 5.00519 15.6825 4.42542C15.363 3.86186 15.3139 3.26767 15.2942 2.63499C15.3028 2.45676 15.1995 2.15549 15.4197 2.08308L15.4195 2.08283Z" fill="#146ACF"/>
  <path d="M19.2501 18.6526C20.205 18.9136 21.1762 19.7007 21.1089 20.7787C20.9663 22.1889 21.9453 22.1638 23.0373 22.1669C23.9257 22.2031 24.7834 22.673 25.1913 23.4765C25.5508 24.1988 25.6234 25.0525 26.1366 25.6991C26.2419 25.8462 26.5369 25.9857 26.4265 26.1936C26.291 26.3396 26.1386 26.1713 26.0374 26.0693C25.448 25.5014 25.3209 24.6161 25.0272 23.8879C24.0429 21.3499 21.1871 23.5049 20.8137 21.359C20.7671 20.9425 20.838 20.4964 20.6797 20.0969C20.502 19.6445 19.9554 19.2911 19.5314 19.0896C19.3888 19.0065 19.1521 19.0118 19.0992 18.8308C19.0924 18.7372 19.1524 18.6592 19.2498 18.6523L19.2501 18.6526Z" fill="#FFC98C"/>
  <path d="M24.6627 10.7904C25.7149 10.9152 26.5554 11.675 27.561 11.9213C27.7048 11.9393 27.9428 11.8408 27.999 12.0286C27.8757 12.6416 26.4471 11.8264 26.1205 11.6547C25.4637 11.3631 24.6321 10.8567 23.905 11.1714C23.3832 11.4588 23.5105 12.3269 23.3057 12.8127C22.7257 13.9824 21.1753 13.1125 20.2011 13.5249C19.6266 13.6948 19.1185 14.1487 18.9742 14.7391C18.9046 14.8039 18.7924 14.8181 18.7276 14.7401C18.6003 14.4373 18.9476 14.0404 19.1327 13.8196C20.4132 12.5158 21.7279 13.4801 22.7887 12.9692C23.0695 12.7674 23.0908 12.3416 23.1414 12.0335C23.2313 11.1663 23.7614 10.6142 24.6627 10.7906V10.7904Z" fill="#FCEE21"/>
  <path d="M21.3841 6.06073C21.4213 5.89263 21.8671 5.2078 21.5745 5.17539C21.4545 5.17083 20.9134 5.53819 20.861 5.52654C20.8453 5.52299 20.7945 5.47869 20.778 5.46679L20.5344 5.28628C19.8722 4.6612 20.1448 5.52983 20.2362 5.89997C19.2878 6.39137 19.2759 6.41517 20.3182 6.61163C20.3947 6.79746 20.3828 7.2595 20.5003 7.40583C20.5471 7.42988 20.5709 7.4352 20.6241 7.43039C20.7646 7.3357 20.959 6.88025 21.0666 6.73569C21.1431 6.74227 21.5613 6.80683 21.6489 6.81493C21.7487 6.82885 21.8958 6.86202 21.9378 6.74126C21.9535 6.55037 21.4988 6.24048 21.3838 6.05997L21.3841 6.06073Z" fill="#F22B62"/>
  <path d="M29.3898 19.4234C29.4989 19.3629 29.6984 19.2284 29.5508 19.1051C29.3108 19.0261 29.03 19.1013 28.7837 19.0365C28.7609 18.9849 28.6176 18.536 28.5923 18.4699C28.5634 18.3795 28.5277 18.2451 28.4075 18.2588C28.1842 18.3469 28.191 18.8335 28.0515 19.0261C27.7801 19.0155 26.6945 18.954 27.4021 19.3879C27.4646 19.433 27.7712 19.6545 27.8264 19.6948C27.8166 19.7573 27.7203 20.1616 27.7069 20.235C27.6796 20.3495 27.6231 20.5318 27.7859 20.5639C27.8801 20.5702 27.9497 20.4811 28.0181 20.429C28.069 20.3907 28.3454 20.1621 28.39 20.1307C28.4713 20.1715 28.7844 20.4057 28.8675 20.4626C28.9601 20.5469 29.1543 20.6609 29.1905 20.4702C29.2087 20.3518 28.9766 19.7416 29.0067 19.7138C29.1204 19.6084 29.2642 19.5125 29.3903 19.4234H29.3898Z" fill="#ED1C24"/>
  <path d="M10.3761 0L10.9128 1.46029C10.9128 1.46029 9.45073 1.49245 8.86995 2.75501L8.24158 1.41042C8.24158 1.41042 8.78944 0.212158 10.3761 0Z" fill="#FFFF00"/>
  <path d="M25.3175 15.4569L26.0821 14.9258C26.0821 14.9258 26.3213 15.7676 27.1398 15.9132L26.456 16.4797C26.456 16.4797 25.6795 16.3435 25.3175 15.4567V15.4569Z" fill="#FFBC1F"/>
  <path d="M12.7531 1.52334L13.5177 0.992188C13.5177 0.992188 13.757 1.83398 14.5755 1.97956L13.8917 2.54616C13.8917 2.54616 13.1152 2.40995 12.7531 1.52309V1.52334Z" fill="#FF5959"/>
  <path d="M24.3571 6.54829L25.3997 5.82422C25.3997 5.82422 25.7258 6.9721 26.8423 7.17084L25.9098 7.94352C25.9098 7.94352 24.8511 7.75769 24.3571 6.54854V6.54829Z" fill="#A861F8"/>
  <path d="M21.6028 8.25781L22.5707 8.75707L22.8566 10.2242L21.8606 9.75963L21.6028 8.25781Z" fill="#FA7696"/>
  <path d="M17.0946 12.0396C17.0946 12.0396 18.1838 11.4082 17.9519 10.4844L19.1233 10.6408C19.1233 10.6408 19.3144 11.6325 18.2688 12.2994L17.0946 12.0396Z" fill="#FF8366"/>
  <path d="M22.8672 17.287L24.0999 17.1055C24.0999 17.1055 23.6419 18.2344 24.3561 18.7711L23.1256 19.0288C23.1256 19.0288 22.6001 18.4961 22.8674 17.2872L22.8672 17.287Z" fill="#0000FF"/>
  <path d="M15.9258 18.4036C16.1987 18.1279 16.5081 17.8905 16.8433 17.6955C16.8286 17.7041 16.8139 17.7125 16.7992 17.7211C17.1412 17.5234 17.5083 17.3709 17.8899 17.2689C17.8739 17.2732 17.8582 17.2773 17.8423 17.2816C18.0678 17.2218 18.2977 17.1793 18.5299 17.1563C18.6415 17.1451 18.7537 17.1385 18.8658 17.1363C18.879 17.136 18.8922 17.1358 18.9056 17.1358C18.9134 17.1358 18.9557 17.1358 18.921 17.1358C18.8851 17.1358 18.9347 17.1358 18.9413 17.1358C18.9562 17.1358 18.9712 17.136 18.9858 17.1363C19.0403 17.1373 19.095 17.1393 19.1494 17.1426C19.3641 17.1547 19.5778 17.1828 19.7882 17.2261C19.8416 17.237 19.895 17.2492 19.9479 17.2621C19.959 17.2649 19.9704 17.2677 19.9816 17.2704C19.9879 17.272 19.9945 17.2737 20.0008 17.2752C20.0233 17.2811 19.9601 17.2646 19.9826 17.2704C20.0097 17.2778 20.0368 17.2851 20.0639 17.2927C20.1671 17.3221 20.2697 17.3553 20.3707 17.392C20.5993 17.475 20.8206 17.5768 21.0325 17.696C21.0183 17.6879 21.0039 17.6798 20.9897 17.672C21.1596 17.7679 21.3231 17.875 21.4786 17.9927C21.5578 18.0527 21.6869 18.0391 21.7444 17.9545C21.8026 17.8692 21.791 17.753 21.7062 17.6887C21.3786 17.4408 21.0148 17.237 20.633 17.0856C20.2515 16.9342 19.8471 16.8325 19.439 16.7866C19.0183 16.7393 18.5884 16.7497 18.1709 16.8223C17.7326 16.8983 17.3038 17.0373 16.9055 17.2352C16.5065 17.4337 16.1334 17.6861 15.8083 17.9912C15.7691 18.0282 15.7306 18.0657 15.6926 18.1039C15.6554 18.1414 15.6275 18.1753 15.6204 18.23C15.6146 18.276 15.628 18.334 15.6587 18.3702C15.6906 18.4077 15.7344 18.4381 15.7847 18.4424C15.8311 18.4462 15.8906 18.4388 15.925 18.4041L15.9258 18.4036Z" fill="#F04070"/>
  <path d="M11.4606 9.08749C11.6986 8.78216 11.7988 8.38747 11.7687 8.00442C11.7543 7.8191 11.7064 7.63225 11.6274 7.4639C11.5857 7.37478 11.5353 7.28819 11.4768 7.20895C11.4105 7.11882 11.3307 7.04059 11.2507 6.96287C11.2396 6.95198 11.2282 6.9411 11.217 6.93021C11.2105 6.92388 11.1953 6.91401 11.192 6.90565C11.1991 6.92236 11.2079 6.9216 11.196 6.90945C11.1905 6.90388 11.1851 6.89831 11.1796 6.89299C11.1687 6.88185 11.1578 6.87071 11.1474 6.85957C11.1097 6.81932 11.0735 6.77704 11.0424 6.73122C11.0383 6.72539 11.0277 6.70109 11.0208 6.69805C11.0322 6.70337 11.0335 6.72236 11.0246 6.70387C11.0213 6.69704 11.0175 6.69046 11.0143 6.68387C11.0019 6.65856 10.9915 6.63248 10.9831 6.60564C10.9732 6.57374 10.9882 6.63172 10.9831 6.6059C10.9811 6.59602 10.9788 6.5864 10.977 6.57653C10.9732 6.55577 10.971 6.53475 10.9694 6.51349C10.9687 6.50235 10.9694 6.49096 10.9682 6.47982C10.9682 6.47855 10.9669 6.51349 10.9682 6.49754C10.9687 6.49197 10.9684 6.4864 10.9689 6.48083C10.97 6.45982 10.972 6.43855 10.975 6.41779C10.9778 6.39804 10.9813 6.3783 10.9854 6.3588C10.9874 6.34893 10.99 6.33905 10.9922 6.32943C10.9965 6.3107 10.9836 6.36032 10.9889 6.34184C10.991 6.33475 10.9927 6.32791 10.9948 6.32083C11.0188 6.23778 11.0515 6.15728 11.0859 6.07778C11.1216 5.99499 11.1596 5.91322 11.193 5.82967C11.2307 5.73524 11.2598 5.63802 11.2834 5.53903C11.3295 5.34687 11.3426 5.14788 11.3317 4.95091C11.31 4.55495 11.1712 4.16304 10.937 3.84278C10.9097 3.80556 10.8811 3.76936 10.851 3.73442C10.7993 3.67417 10.7026 3.6524 10.6378 3.70733C10.5775 3.75847 10.5555 3.85569 10.6107 3.9205C10.6707 3.99063 10.7254 4.06507 10.774 4.14355C10.7798 4.15292 10.7856 4.16254 10.7912 4.17216C10.811 4.20532 10.7788 4.14962 10.7922 4.17393C10.8036 4.19469 10.8153 4.2157 10.8262 4.23697C10.8472 4.27798 10.8669 4.31976 10.8851 4.36204C10.9216 4.44735 10.95 4.5347 10.9755 4.62356C10.9634 4.58128 10.9738 4.61723 10.976 4.62711C10.9786 4.63799 10.9813 4.64888 10.9836 4.65977C10.9889 4.68306 10.9938 4.70635 10.9983 4.72989C11.0069 4.77521 11.014 4.82104 11.0193 4.86686C11.0246 4.91268 11.0287 4.95876 11.0307 5.00484C11.0317 5.02712 11.0325 5.0494 11.0327 5.07168C11.0332 5.10915 11.0332 5.04914 11.0327 5.07573C11.0327 5.08839 11.0325 5.1013 11.032 5.11396C11.0294 5.20611 11.0203 5.29801 11.0044 5.3889C10.9963 5.43599 10.9846 5.48207 10.9745 5.52865C10.9745 5.52941 10.9829 5.49802 10.9783 5.51422C10.977 5.51878 10.9758 5.52333 10.9745 5.52814C10.9715 5.53878 10.9684 5.54966 10.9651 5.5603C10.9583 5.58308 10.951 5.60587 10.9434 5.6284C10.9148 5.71195 10.8791 5.79271 10.8436 5.87322C10.7702 6.03955 10.6937 6.21019 10.6715 6.39247C10.6596 6.48969 10.6651 6.58691 10.6902 6.68134C10.7216 6.79957 10.7846 6.9059 10.8641 6.99857C10.9069 7.04869 10.954 7.09477 11.0008 7.14085C11.0203 7.16009 11.0401 7.17908 11.0596 7.19807C11.0694 7.20769 11.0791 7.21705 11.0889 7.22667C11.1019 7.23908 11.0813 7.21908 11.0808 7.21857C11.0879 7.22515 11.0948 7.23224 11.1013 7.23933C11.1667 7.30541 11.2262 7.3763 11.2768 7.45427C11.2826 7.46314 11.2882 7.472 11.2935 7.48086C11.2968 7.48617 11.3158 7.51833 11.3016 7.49402C11.2882 7.47098 11.3057 7.50136 11.3089 7.50769C11.3148 7.51807 11.3203 7.52871 11.3257 7.53934C11.3454 7.57808 11.3631 7.61757 11.3791 7.65782C11.395 7.69833 11.4092 7.73935 11.4214 7.78112C11.4231 7.78694 11.4328 7.82239 11.4259 7.79682C11.4196 7.77251 11.4282 7.80593 11.4297 7.81277C11.435 7.83479 11.4396 7.85682 11.4439 7.87884C11.4603 7.96442 11.4692 8.05151 11.4705 8.13885C11.471 8.17227 11.4712 8.11429 11.4705 8.14062C11.4702 8.15126 11.4702 8.16164 11.4697 8.17227C11.469 8.1948 11.4677 8.21733 11.4659 8.23987C11.4626 8.28341 11.4573 8.32645 11.45 8.36949C11.4464 8.39025 11.4426 8.41076 11.4381 8.43126C11.4358 8.44164 11.4335 8.45177 11.4312 8.4619C11.43 8.46772 11.4284 8.47354 11.4269 8.47937C11.4221 8.49937 11.4274 8.47304 11.43 8.46797C11.4214 8.4857 11.4183 8.50949 11.4122 8.52823C11.4054 8.5495 11.3981 8.57076 11.3902 8.59177C11.375 8.63254 11.3581 8.67228 11.3391 8.71127C11.33 8.73001 11.3201 8.74849 11.3102 8.76697C11.2976 8.79051 11.3267 8.73861 11.3095 8.76773C11.3034 8.77811 11.2971 8.78824 11.2907 8.79836C11.2674 8.83533 11.2424 8.87077 11.2155 8.9052C11.1667 8.96799 11.1791 9.0723 11.2462 9.11787C11.3153 9.16496 11.4064 9.15458 11.4588 9.08723L11.4606 9.08749Z" fill="#00FF00"/>
  </g>
  <defs>
  <clipPath id="clip0_5526_48249">
  <rect width="29.6039" height="27" fill="white"/>
  </clipPath>
  </defs>
</svg>