<svg width="22" height="35" viewBox="0 0 22 35" fill="none" xmlns="http://www.w3.org/2000/svg">
<path d="M16.619 26.2181L15.4992 27.9317C17.4819 28.4699 18.6574 29.3056 18.6574 29.943C18.6574 30.9772 15.5984 32.5359 10.9942 32.5359C6.39005 32.5359 3.33102 30.9772 3.33102 29.943C3.33102 29.3056 4.50652 28.4699 6.48926 27.9317L5.38442 26.2031C3.0334 26.9533 1.34692 28.2144 1.34692 29.943C1.34692 32.9178 6.31939 34.5186 10.9942 34.5186C15.6691 34.5186 20.6402 32.9178 20.6402 29.943C20.6402 28.2144 18.9551 26.9546 16.6176 26.2181H16.619Z" fill="#FBC55A"/>
<path d="M21.9962 10.707C21.8508 5.04416 17.2833 0.329901 11.6273 0.0173385C5.26464 -0.334634 0 4.71801 0 10.9978C0 12.9968 0.532714 14.8681 1.46632 16.4771L9.69487 29.2351C10.3078 30.1851 11.698 30.1851 12.3109 29.2351L20.534 16.4771C21.5125 14.7907 22.0506 12.8147 21.9962 10.707ZM10.9981 16.3616C8.02606 16.3616 5.61933 13.9508 5.61933 10.9828C5.61933 8.01486 8.02606 5.59726 10.9981 5.59726C13.9702 5.59726 16.3796 8.01078 16.3796 10.9828C16.3796 13.9549 13.9729 16.3616 10.9981 16.3616Z" fill="#FF671D"/>
</svg>
