<svg width="18" height="18" viewBox="0 0 18 18" fill="none" xmlns="http://www.w3.org/2000/svg">
<path fill-rule="evenodd" clip-rule="evenodd" d="M9.02214 16.6654C13.2563 16.6654 16.6888 13.2329 16.6888 8.9987C16.6888 4.76452 13.2563 1.33203 9.02214 1.33203C4.78795 1.33203 1.35547 4.76452 1.35547 8.9987C1.35547 13.2329 4.78795 16.6654 9.02214 16.6654Z" stroke="#D8D8DF" stroke-linecap="round" stroke-linejoin="round"/>
<path fill-rule="evenodd" clip-rule="evenodd" d="M6.85547 7.66602C7.6839 7.66602 8.35547 6.99444 8.35547 6.16602C8.35547 5.33759 7.6839 4.66602 6.85547 4.66602C6.02704 4.66602 5.35547 5.33759 5.35547 6.16602C5.35547 6.99444 6.02704 7.66602 6.85547 7.66602Z" stroke="#D8D8DF" stroke-linecap="round" stroke-linejoin="round"/>
<path fill-rule="evenodd" clip-rule="evenodd" d="M10.5208 13.6647C10.9811 13.6647 11.3542 13.2916 11.3542 12.8314C11.3542 12.3711 10.9811 11.998 10.5208 11.998C10.0606 11.998 9.6875 12.3711 9.6875 12.8314C9.6875 13.2916 10.0606 13.6647 10.5208 13.6647Z" stroke="#D8D8DF" stroke-linecap="round" stroke-linejoin="round"/>
<path fill-rule="evenodd" clip-rule="evenodd" d="M13.5221 8.99935C14.1665 8.99935 14.6888 8.47701 14.6888 7.83268C14.6888 7.18835 14.1665 6.66602 13.5221 6.66602C12.8778 6.66602 12.3555 7.18835 12.3555 7.83268C12.3555 8.47701 12.8778 8.99935 13.5221 8.99935Z" stroke="#D8D8DF" stroke-linecap="round" stroke-linejoin="round"/>
<path d="M8.35547 6C9.84578 6.05677 11.2658 6.64844 12.3555 7.66667" stroke="#D8D8DF" stroke-linecap="round" stroke-linejoin="round"/>
<path d="M13.7539 8.97656L14.0206 9.33256C14.0206 9.33256 15.0206 10.6659 15.0206 13.6659" stroke="#D8D8DF" stroke-linecap="round" stroke-linejoin="round"/>
<path d="M12.2383 2.03711L12.3563 2.33378C12.8388 3.76328 13.0645 5.26692 13.0229 6.77511" stroke="#D8D8DF" stroke-linecap="round" stroke-linejoin="round"/>
<path d="M12.6896 8.66602C12.6061 10.0428 12.1099 11.3626 11.2656 12.4533" stroke="#D8D8DF" stroke-linecap="round" stroke-linejoin="round"/>
<path d="M10.1222 13.5645L10.0208 13.6671C10.0208 13.6671 8.35417 15.3338 4.6875 15.3338" stroke="#D8D8DF" stroke-linecap="round" stroke-linejoin="round"/>
<path d="M9.02214 1.33398C8.11008 2.30948 7.37669 3.43778 6.85547 4.66732" stroke="#D8D8DF" stroke-linecap="round" stroke-linejoin="round"/>
<path d="M6.07683 7.44727L6.02216 7.66593C5.65892 9.46892 5.89295 11.3412 6.68883 12.9993C7.82216 15.2699 10.6888 16.3326 10.6888 16.3326L10.9375 16.4253" stroke="#D8D8DF" stroke-linecap="round" stroke-linejoin="round"/>
<path d="M5.35391 6.16602C5.35391 6.16602 2.79657 6.34935 1.50391 7.48135" stroke="#D8D8DF" stroke-linecap="round" stroke-linejoin="round"/>
<path d="M1.54297 10.6878L1.68964 10.6652C1.68964 10.6652 6.27697 9.95982 10.0056 12.1785" stroke="#D8D8DF" stroke-linecap="round" stroke-linejoin="round"/>
</svg>
