<svg width="117" height="118" viewBox="0 0 117 118" fill="none" xmlns="http://www.w3.org/2000/svg">
<path d="M71.8156 26.6742C81.6648 19.8086 94.267 18.2681 96.4837 20.7323C98.2818 22.7284 91.4893 33.6638 92.5899 36.8595C93.6873 40.0552 103.323 37.9877 104.377 42.0513C104.876 43.9823 97.485 48.641 97.6834 51.3377C97.8819 54.0343 103.589 53.2718 104.008 56.762C104.29 59.1084 99.0816 59.626 99.28 62.4218C99.4784 65.2177 103.239 64.7062 103.075 67.4153C102.941 69.6129 98.8305 68.1654 97.7299 71.8601C96.6325 75.5548 71.8125 26.6742 71.8125 26.6742H71.8156Z" fill="#EF6122"/>
<path opacity="0.1" d="M65.0507 117.892C88.4753 117.892 107.465 116.005 107.465 113.677C107.465 111.348 88.4753 109.461 65.0507 109.461C41.6261 109.461 22.6367 111.348 22.6367 113.677C22.6367 116.005 41.6261 117.892 65.0507 117.892Z" fill="#080821"/>
<path d="M115.743 92.2694C115.44 83.2293 109.092 81.2235 104.481 82.7674C99.8728 84.3113 100.129 89.6342 101.292 91.6369C103.152 94.8332 105.881 93.4537 104.861 91.2153C104.106 89.0669 103.966 86.0846 107.538 87.0332C111.977 88.2144 110.595 100.076 101.249 97.7443C94.8469 96.1477 95.3491 89.411 95.8577 79.5866C97.221 70.0815 95.7454 57.6188 91.6772 45.7885C83.4348 21.818 33.7841 14.0273 17.3025 36.1997C-4.1083 65.0003 19.5019 93.1312 23.1333 96.7243C34.4455 105.448 32.6111 113.341 40.7162 113.865C48.4188 114.364 47.7855 106.586 52.8801 106.152C53.1796 106.152 53.4791 106.152 53.7785 106.146C59.7591 106.583 60.9134 113.995 69.9326 113.865C77.2827 113.76 74.0101 107.38 78.9206 104.32C79.9501 103.836 80.8423 103.495 81.6659 103.272C82.3148 103.135 83.0355 103.036 83.8498 102.987C84.0369 102.974 85.1694 102.98 85.5001 102.98C88.4171 103.033 90.1673 103.718 96.7593 105.051C108.636 107.451 115.999 99.9175 115.743 92.2694Z" fill="#FAC20C" stroke="#3A1103" stroke-width="1.82685" stroke-miterlimit="10"/>
<path d="M83.3308 32.8088C66.4468 20.9227 46.7955 27.4145 44.2841 29.0638C41.7727 30.7131 38.2131 28.7538 40.2128 23.8028C46.914 7.22307 64.2037 -1.20939 68.8583 1.64587C74.0621 4.83904 67.5168 19.0812 70.9174 22.4201C73.6471 25.0987 75.5065 23.0525 80.1487 21.5056C84.3416 20.1074 83.3308 32.8088 83.3308 32.8088Z" fill="#EF6122"/>
<path d="M32.3379 73.223C36.4458 75.0459 40.7534 73.8896 43.3766 69.8066" stroke="black" stroke-width="1.82685" stroke-miterlimit="10"/>
<path d="M58.0407 45.2812H11.7811C6.22273 45.2812 1.7168 49.7589 1.7168 55.2824V55.2855C1.7168 60.809 6.22273 65.2866 11.7811 65.2866H58.0407C63.599 65.2866 68.105 60.809 68.105 55.2855V55.2824C68.105 49.7589 63.599 45.2812 58.0407 45.2812Z" fill="#5545EF" stroke="#231735" stroke-width="1.82685" stroke-miterlimit="10"/>
<path d="M47.3773 48.6484H12.2739C8.58672 48.6484 5.59766 51.6193 5.59766 55.284C5.59766 58.9488 8.58672 61.9196 12.2739 61.9196H47.3773C51.0645 61.9196 54.0535 58.9488 54.0535 55.284C54.0535 51.6193 51.0645 48.6484 47.3773 48.6484Z" fill="#19052D"/>
<path d="M47.9916 56.6782L44.9031 53.6178C44.4008 53.1186 43.5866 53.1217 43.0874 53.6178L40.679 56.0178C40.1767 56.517 39.3655 56.517 38.8633 56.0178L38.5918 55.748C38.0896 55.2488 37.2753 55.2519 36.7762 55.748L33.4474 59.0658C32.9451 59.565 32.134 59.565 31.6317 59.0658L25.985 53.469C25.4827 52.9697 24.6684 52.9728 24.1693 53.469L22.4628 55.1682C21.9605 55.6674 21.1494 55.6674 20.6471 55.1682C20.1448 54.6689 19.3305 54.672 18.8314 55.1682L16.8285 57.165C16.3262 57.6643 15.5151 57.6643 15.0128 57.165L11.2598 53.4441" stroke="white" stroke-width="1.89261" stroke-miterlimit="10" stroke-linecap="round"/>
<path d="M77.5918 23.3486C86.0491 19.3687 94.2986 17.2579 96.4842 20.7294C98.8466 24.483 90.7923 32.4552 92.5904 36.8566C94.2707 40.9729 103.76 37.4394 104.377 42.0485C104.87 45.737 97.4856 48.6382 97.684 51.3348C97.8824 54.0315 103.661 52.9311 104.083 56.4244C104.365 58.7708 99.0822 59.6232 99.2837 62.419C99.4852 65.2148 103.184 64.7003 103.078 67.4125C102.985 69.8239 96.6331 69.7403 96.4501 74.3308" stroke="#3A1103" stroke-width="1.82685" stroke-miterlimit="10"/>
<path d="M44.7373 29.0462C42.2417 30.6952 38.7044 28.7363 40.6916 23.7862C47.3507 7.20957 64.0235 -1.25234 69.1574 1.63339C74.5455 4.6617 67.8243 19.0655 71.2035 22.4038C73.0915 24.2697 75.5716 24.1892 77.844 23.2345" stroke="#3A1103" stroke-width="1.82685" stroke-miterlimit="10"/>
<path d="M44.6387 29.1216C53.6137 23.8017 69.4835 23.5196 83.5613 34.0478" stroke="#3A1103" stroke-width="1.82685" stroke-miterlimit="10"/>
<mask id="path-12-inside-1_38112_35934" fill="white">
<path d="M12.7171 89.293C8.49871 89.7564 7.7294 94.9017 8.96842 98.1269C10.4155 101.888 13.4611 103.247 17.7109 102.869"/>
</mask>
<path d="M12.7171 89.293C8.49871 89.7564 7.7294 94.9017 8.96842 98.1269C10.4155 101.888 13.4611 103.247 17.7109 102.869" fill="#F99F10"/>
<path d="M8.96842 98.1269L7.26226 98.7834L7.26193 98.7825L8.96842 98.1269ZM12.9167 91.1101C11.696 91.2442 10.938 91.9917 10.5357 93.2365C10.1083 94.5588 10.1947 96.2213 10.6749 97.4713L7.26193 98.7825C6.50313 96.8073 6.35462 94.2845 7.05673 92.1121C7.78393 89.862 9.51981 87.8052 12.5174 87.4758L12.9167 91.1101ZM10.6746 97.4705C11.2602 98.9925 12.1052 99.8968 13.1289 100.427C14.1933 100.977 15.6367 101.218 17.5488 101.048L17.873 104.69C15.5352 104.898 13.3309 104.648 11.4484 103.674C9.52502 102.678 8.12378 101.023 7.26226 98.7834L10.6746 97.4705Z" fill="#3A1103" mask="url(#path-12-inside-1_38112_35934)"/>
<rect x="12.6343" y="86.4803" width="29.8758" height="19.0458" rx="2.64716" transform="rotate(-15.0995 12.6343 86.4803)" fill="white" stroke="#3A1103" stroke-width="1.82809"/>
<path d="M29.5765 95.2269L13.6076 87.7021L13.5899 87.6327M41.6797 79.2656L31.6572 94.6009C31.1913 95.3054 30.3141 95.5688 29.5762 95.2237" stroke="#3A1103" stroke-width="1.82809"/>
<mask id="path-16-inside-2_38112_35934" fill="white">
<path d="M12.3495 89.3445C14.9757 88.9473 17.873 90.8673 18.1757 94.3542C18.4784 97.838 15.7796 99.4963 14.6289 99.6319"/>
</mask>
<path d="M12.3495 89.3445C14.9757 88.9473 17.873 90.8673 18.1757 94.3542C18.4784 97.838 15.7796 99.4963 14.6289 99.6319" fill="#F99F10"/>
<path d="M18.1757 94.3542L16.3545 94.5124L16.3545 94.5123L18.1757 94.3542ZM14.8428 101.447C13.8401 101.566 12.9315 100.848 12.8134 99.8458C12.6952 98.8431 13.4123 97.9345 14.415 97.8164L14.8428 101.447ZM12.0761 87.537C15.7606 86.9797 19.6043 89.673 19.9969 94.1961L16.3545 94.5123C16.1418 92.0616 14.1907 90.9149 12.6229 91.1521L12.0761 87.537ZM19.9969 94.196C20.1957 96.484 19.3966 98.2605 18.3058 99.4719C17.2857 100.605 15.9375 101.318 14.8428 101.447L14.415 97.8164C14.4003 97.8181 14.5538 97.7924 14.8199 97.6438C15.066 97.5064 15.341 97.3005 15.5888 97.0254C16.0594 96.5028 16.4584 95.7081 16.3545 94.5124L19.9969 94.196Z" fill="#3A1103" mask="url(#path-16-inside-2_38112_35934)"/>
<path d="M46.3341 85.4768C41.4381 87.0748 38.2281 90.1992 39.7006 93.751C41.3283 97.6753 45.8483 97.4516 50.374 95.9852" fill="#F99F10"/>
<path d="M46.3341 85.4768C41.4381 87.0748 38.2281 90.1992 39.7006 93.751C41.3283 97.6753 45.8483 97.4516 50.374 95.9852" stroke="#3A1103" stroke-width="1.82685" stroke-miterlimit="10" stroke-linecap="round"/>
</svg>
