<svg width="71" height="72" viewBox="0 0 71 72" fill="none" xmlns="http://www.w3.org/2000/svg">
<path opacity="0.1" d="M31.2975 71.4224C44.8073 71.4224 55.7592 70.1359 55.7592 68.5491C55.7592 66.9622 44.8073 65.6758 31.2975 65.6758C17.7878 65.6758 6.83594 66.9622 6.83594 68.5491C6.83594 70.1359 17.7878 71.4224 31.2975 71.4224Z" fill="#080821"/>
<path d="M62.7053 43.6791C64.5273 42.5319 67.695 41.024 69.2024 43.6792C70.7098 46.3343 64.1848 51.7043 59.3693 52.8105" fill="#F99F10"/>
<path d="M62.7053 43.6791C64.5273 42.5319 67.695 41.024 69.2024 43.6792C70.7098 46.3343 64.1848 51.7043 59.3693 52.8105" stroke="#3A1103" stroke-width="0.643292" stroke-miterlimit="10" stroke-linecap="round"/>
<path d="M26.7767 16.2784C20.9017 12.1803 13.3846 11.2608 12.0624 12.7317C10.9899 13.9231 15.0415 20.4505 14.3851 22.358C13.7304 24.2655 7.98301 23.0314 7.35428 25.457C7.05655 26.6096 11.4651 29.3904 11.3468 31C11.2284 32.6097 7.82398 32.1545 7.57434 34.2378C7.40606 35.6384 10.5128 35.9474 10.3944 37.6162C10.2761 39.285 8.03295 38.9798 8.13096 40.5968C8.21047 41.9085 10.6625 41.0445 11.319 43.2499C11.9737 45.4553 26.7786 16.2784 26.7786 16.2784H26.7767Z" fill="#EF6122"/>
<path d="M0.570234 55.4216C0.749609 50.0266 4.5128 48.8295 7.24596 49.7509C9.97727 50.6723 9.82563 53.849 9.13587 55.0442C8.03373 56.9517 6.41565 56.1284 7.02035 54.7926C7.46786 53.5104 7.55107 51.7306 5.43371 52.2967C2.80225 53.0016 3.62147 60.0803 9.16176 58.689C12.9564 57.7361 12.6586 53.7158 12.3572 47.8526C11.5491 42.1801 12.4238 34.7425 14.8352 27.6823C19.7209 13.3769 49.1513 8.72749 58.9208 21.9598C71.6121 39.1477 57.6171 55.936 55.4646 58.0803C48.7593 63.2866 49.8466 67.9971 45.0424 68.3098C40.4766 68.6076 40.852 63.9656 37.8322 63.7066C37.6547 63.7066 37.4772 63.7066 37.2996 63.7029C33.7547 63.9638 33.0704 68.3875 27.7243 68.3098C23.3675 68.2469 25.3074 64.4392 22.3967 62.6131C21.7864 62.3245 21.2576 62.121 20.7694 61.9878C20.3847 61.9064 19.9576 61.8472 19.4749 61.8176C19.3639 61.8102 18.6927 61.8139 18.4967 61.8139C16.7676 61.8453 15.7302 62.2542 11.8228 63.0498C4.78279 64.4818 0.418597 59.9859 0.570234 55.4216Z" fill="#FAC20C" stroke="#3A1103" stroke-width="0.643292" stroke-miterlimit="10"/>
<path d="M19.79 19.9288C29.798 12.8353 41.4463 16.7095 42.9349 17.6938C44.4236 18.6781 46.5335 17.5088 45.3482 14.5541C41.376 4.6595 31.1276 -0.372916 28.3685 1.33107C25.284 3.23673 29.1637 11.7363 27.1481 13.7289C25.53 15.3275 24.4278 14.1064 21.6762 13.1831C19.1908 12.3487 19.79 19.9288 19.79 19.9288Z" fill="#EF6122"/>
<path d="M34.7742 39.3086L62.1945 39.3086C65.4893 39.3086 68.1602 36.6364 68.1602 33.34V33.3382C68.1602 30.0418 65.4893 27.3696 62.1945 27.3696L34.7742 27.3696C31.4794 27.3696 28.8085 30.0418 28.8085 33.3382V33.34C28.8085 36.6364 31.4794 39.3086 34.7742 39.3086Z" fill="#5545EF" stroke="#231735" stroke-width="0.643292" stroke-miterlimit="10"/>
<path d="M41.0984 37.3008H61.9059C64.0915 37.3008 65.8633 35.5281 65.8633 33.3415C65.8633 31.1548 64.0915 29.3821 61.9059 29.3821L41.0984 29.3821C38.9128 29.3821 37.141 31.1548 37.141 33.3415C37.141 35.5281 38.9128 37.3008 41.0984 37.3008Z" fill="#19052D"/>
<path d="M39.918 33.9071L41.8855 32.0811C42.2055 31.7832 42.7232 31.785 43.0432 32.0811L44.578 33.5131C44.8979 33.8109 45.4157 33.8109 45.7356 33.5131L45.9095 33.3521C46.2294 33.0542 46.7472 33.0561 47.0671 33.3521L49.1882 35.3318C49.5081 35.6296 50.0258 35.6296 50.3458 35.3318L53.9425 31.9922C54.2624 31.6944 54.7802 31.6962 55.1001 31.9922L56.1875 33.0061C56.5074 33.304 57.0252 33.304 57.3451 33.0061C57.665 32.7083 58.1828 32.7101 58.5027 33.0061L59.7787 34.1976C60.0986 34.4955 60.6164 34.4955 60.9363 34.1976L63.3274 31.9793" stroke="white" stroke-width="0.666451" stroke-miterlimit="10" stroke-linecap="round"/>
<path d="M32.3439 53.7852C29.7642 56.1312 26.8277 56.9989 25.1855 54.9915C23.3714 52.7732 25.0025 50.2033 27.3806 48.0312" fill="#F99F10"/>
<path d="M32.3439 53.7852C29.7642 56.1312 26.8277 56.9989 25.1855 54.9915C23.3714 52.7732 25.0025 50.2033 27.3806 48.0312" stroke="#3A1103" stroke-width="0.643292" stroke-miterlimit="10" stroke-linecap="round"/>
<path d="M23.3313 14.2933C18.2866 11.9177 13.3658 10.6577 12.0621 12.7299C10.653 14.9704 15.4573 19.729 14.3847 22.3562C13.3824 24.8132 7.72194 22.704 7.35394 25.4552C7.05991 27.6569 11.4648 29.3886 11.3464 30.9983C11.2281 32.6079 7.78111 31.9511 7.52962 34.0362C7.36134 35.4368 10.5124 35.9456 10.3922 37.6144C10.2739 39.2833 8.12877 38.9761 8.12877 40.595C8.12877 41.9123 11.9733 42.0252 12.0824 44.7653" stroke="#3A1103" stroke-width="0.643292" stroke-miterlimit="10"/>
<path d="M42.9315 17.6953C44.4202 18.6796 46.5301 17.5103 45.3448 14.5556C41.3726 4.66103 31.4275 -0.389887 28.3651 1.3326C25.1512 3.1402 29.1603 11.7379 27.1447 13.7305C26.0185 14.8443 24.5391 14.7962 23.1836 14.2263" stroke="#3A1103" stroke-width="0.643292" stroke-miterlimit="10"/>
<path d="M42.9944 17.7403C37.6409 14.5654 28.1747 14.3971 19.7773 20.6802" stroke="#3A1103" stroke-width="0.643292" stroke-miterlimit="10"/>
<path d="M39.7281 45.2215C39.6449 42.6572 40.4956 41.042 43.225 42.0651C45.9545 43.0882 50.5591 43.5156 52.6894 43.3454C54.8216 43.1752 55.8442 42.918 55.8442 43.943C55.8442 44.968 53.9691 45.5637 53.7971 48.0374C53.6269 50.5111 51.4097 52.1318 45.7825 51.2789C40.1553 50.4259 39.8132 47.8672 39.7281 45.2215Z" fill="black"/>
<path d="M47.7802 44.2014C50.6003 44.416 52.2128 44.1681 52.2479 44.3697C52.2831 44.5714 52.4495 46.453 50.9036 46.5196C49.3576 46.5862 49.1579 45.3762 49.1579 45.3762C49.1579 45.3762 49.1246 46.4845 47.6471 46.4179C46.1695 46.3513 45.9014 44.873 45.9014 44.873C45.9014 44.873 45.7331 45.7796 44.3573 45.5779C42.9796 45.3762 43.1479 43.4613 43.2496 43.3263C43.3513 43.1912 44.6938 43.9646 47.7839 44.1995L47.7802 44.2014Z" fill="white"/>
</svg>
