<svg width="30" height="31" viewBox="0 0 30 31" fill="none" xmlns="http://www.w3.org/2000/svg">
<rect x="0.75" y="1.00195" width="28.5" height="28.5" rx="14.25" stroke="#1866D4" stroke-width="1.5"/>
<path d="M8.25 12.102C8.25 10.8418 8.25 10.2118 8.49524 9.73047C8.71095 9.30711 9.05516 8.9629 9.47852 8.74719C9.95982 8.50195 10.5899 8.50195 11.85 8.50195H18.15C19.4101 8.50195 20.0402 8.50195 20.5215 8.74719C20.9448 8.9629 21.289 9.30711 21.5048 9.73047C21.75 10.2118 21.75 10.8418 21.75 12.102V16.152C21.75 17.4121 21.75 18.0421 21.5048 18.5234C21.289 18.9468 20.9448 19.291 20.5215 19.5067C20.0402 19.752 19.4101 19.752 18.15 19.752H13.2628C12.7948 19.752 12.5608 19.752 12.3369 19.7979C12.1383 19.8386 11.9461 19.9061 11.7656 19.9983C11.5621 20.1023 11.3794 20.2484 11.0139 20.5408L9.22482 21.9721C8.91275 22.2218 8.75672 22.3466 8.6254 22.3467C8.5112 22.3468 8.40317 22.2949 8.33192 22.2057C8.25 22.103 8.25 21.9032 8.25 21.5036V12.102Z" fill="#1866D4"/>
<path d="M11 12.252H19" stroke="white" stroke-width="1.5" stroke-linecap="round"/>
<path d="M11 16.252H16" stroke="white" stroke-width="1.5" stroke-linecap="round"/>
</svg>
