<svg width="18" height="18" viewBox="0 0 18 18" fill="none" xmlns="http://www.w3.org/2000/svg">
<g id="Group">
<g id="earth-1">
<path id="Oval" fill-rule="evenodd" clip-rule="evenodd" d="M9.00012 16.5C13.1423 16.5 16.5001 13.1421 16.5001 9C16.5001 4.85786 13.1423 1.5 9.00012 1.5C4.85799 1.5 1.50012 4.85786 1.50012 9C1.50012 13.1421 4.85799 16.5 9.00012 16.5Z" stroke="#000" stroke-width="1.5" stroke-linecap="round" stroke-linejoin="round"/>
<path id="Shape" fill-rule="evenodd" clip-rule="evenodd" d="M5.71933 11.5C6.02727 11.5 6.31802 11.3581 6.5075 11.1153C6.69698 10.8726 6.76406 10.5561 6.68933 10.2573L6.18933 8.25733C6.078 7.81227 5.67811 7.50005 5.21933 7.5H1.65066C1.08842 10.262 2.12276 13.1059 4.328 14.8613L5 11.5H5.71933Z" stroke="#000" stroke-width="1.5" stroke-linecap="round" stroke-linejoin="round"/>
<path id="Shape_2" fill-rule="evenodd" clip-rule="evenodd" d="M14.99 4.5H12.2807C11.8219 4.50005 11.422 4.81227 11.3107 5.25733L10.8107 7.25733C10.7359 7.55607 10.803 7.87257 10.9925 8.11532C11.182 8.35806 11.4727 8.49997 11.7807 8.5H12.8333L13.3607 11.6667C13.4412 12.1488 13.8585 12.5022 14.3473 12.502H15.6307C16.9902 9.93749 16.7404 6.81746 14.99 4.502V4.5Z" stroke="#000" stroke-width="1.5" stroke-linecap="round" stroke-linejoin="round"/>
</g>
</g>
</svg>
