<svg width="22" height="22" viewBox="-1 0 18 20" fill="none" xmlns="http://www.w3.org/2000/svg">
<g clip-path="url(#clip0_43705_148)">
<path d="M7.4481 0.190055L5.61743 1.62119C5.48927 1.72151 5.33561 1.78472 5.1744 1.80502L2.86822 2.08742C2.45941 2.13729 2.13758 2.4597 2.08713 2.86851L1.80473 5.17469C1.78501 5.33647 1.72122 5.48956 1.62091 5.61771L0.189767 7.44839C-0.0636387 7.77254 -0.0636387 8.22833 0.189767 8.55248L1.62091 10.3832C1.72122 10.5113 1.78443 10.665 1.80473 10.8262L2.08713 13.1324C2.137 13.5412 2.45941 13.863 2.86822 13.9135L5.1744 14.1959C5.33619 14.2156 5.48927 14.2794 5.61743 14.3797L7.4481 15.8108C7.77225 16.0642 8.22804 16.0642 8.55219 15.8108L10.3829 14.3797C10.511 14.2794 10.6647 14.2161 10.8259 14.1959L13.1321 13.9135C13.5409 13.8636 13.8627 13.5412 13.9132 13.1324L14.1956 10.8262C14.2153 10.6644 14.2791 10.5113 14.3794 10.3832L15.8099 8.5519C16.0634 8.22775 16.0634 7.77196 15.8099 7.44781L14.3788 5.61714C14.2785 5.48898 14.2153 5.33531 14.195 5.17411L13.9126 2.86793C13.8627 2.45912 13.5403 2.13729 13.1315 2.08684L10.8253 1.80444C10.6635 1.78472 10.5104 1.72093 10.3823 1.62061L8.55219 0.190055C8.22804 -0.0633517 7.77225 -0.0633517 7.4481 0.190055Z" fill="#FF671D"/>
<path d="M4.66602 7.75222L6.96876 10L11.066 6" stroke="white" stroke-width="1.5" stroke-linecap="square"/>
</g>
<defs>
<clipPath id="clip0_43705_148">
<rect width="16" height="16" fill="white" transform="matrix(-1 0 0 1 16 0)"/>
</clipPath>
</defs>
</svg>
