<svg enable-background="new 0 0 100 100" viewBox="0 0 100 100" xmlns="http://www.w3.org/2000/svg"><path d="m28.2 41.8c0 1.2.1 2.2.4 3 .3.7.6 1.5 1.1 2.4.2.3.2.5.2.8s-.2.7-.6 1l-2.1 1.4c-.3.2-.6.3-.9.3s-.7-.2-1-.5c-.5-.5-.9-1-1.2-1.6s-.7-1.2-1-2c-2.6 3.1-5.9 4.6-9.8 4.6-2.8 0-5-.8-6.7-2.4-1.6-1.6-2.5-3.7-2.5-6.4 0-2.8 1-5.1 3-6.9s4.7-2.6 8.1-2.6c1.1 0 2.3.1 3.5.3s2.5.4 3.8.7v-2.4c0-2.5-.5-4.3-1.6-5.3s-2.9-1.5-5.4-1.5c-1.2 0-2.4.1-3.6.4s-2.4.7-3.6 1.1c-.5.2-.9.4-1.2.4-.2.1-.4.1-.5.1-.5 0-.7-.3-.7-1v-1.6c0-.5.1-.9.2-1.2.2-.2.5-.5.9-.7 1.2-.6 2.6-1.1 4.2-1.5s3.4-.6 5.2-.6c4 0 6.9.9 8.7 2.7s2.8 4.5 2.8 8.2zm-13.6 5.1c1.1 0 2.2-.2 3.4-.6s2.3-1.1 3.2-2.1c.5-.6.9-1.3 1.1-2.1s.3-1.8.3-2.9v-1.4c-1-.2-2-.4-3.1-.6-.9-.2-2-.2-3-.2-2.2 0-3.9.4-5 1.3s-1.6 2.2-1.6 3.8.4 2.7 1.2 3.5c.9.9 2 1.3 3.5 1.3zm26.8 3.6c-.6 0-1-.1-1.3-.3s-.5-.7-.7-1.3l-7.8-25.7c-.2-.7-.3-1.1-.3-1.3 0-.5.3-.8.8-.8h3.3c.6 0 1.1.1 1.3.3.3.2.5.7.7 1.3l5.6 22 5.2-22c.2-.7.4-1.1.6-1.3.2-.3.6-.4 1.2-.4h2.7c.6 0 1.1.1 1.3.3.3.2.5.7.6 1.3l5.3 22.3 5.8-22.3c.2-.7.4-1.1.7-1.3s.7-.3 1.3-.3h3.1c.5 0 .8.3.8.8 0 .2 0 .3-.1.5s-.1.5-.2.8l-8 25.7c-.2.7-.4 1.1-.7 1.3s-.7.3-1.3.3h-2.9c-.6 0-1.1-.1-1.3-.3-.3-.2-.5-.7-.6-1.3l-5.2-21.5-5.1 21.4c-.2.7-.4 1.1-.6 1.3-.3.2-.7.3-1.3.3h-2.9zm42.7.9c-1.7 0-3.5-.2-5.1-.6-1.7-.4-3-.8-3.8-1.3-.5-.3-.9-.6-1-.9s-.2-.6-.2-.9v-1.7c0-.7.3-1 .8-1 .2 0 .4 0 .6.1s.5.2.8.3c1.1.5 2.4.9 3.7 1.2s2.6.4 4 .4c2.1 0 3.7-.4 4.9-1.1 1.1-.7 1.7-1.8 1.7-3.2 0-.9-.3-1.7-.9-2.3s-1.7-1.2-3.4-1.7l-5-1.7c-2.4-.8-4.2-1.9-5.3-3.4s-1.7-3.1-1.7-4.8c0-1.4.3-2.6.9-3.7s1.4-2 2.4-2.7c1-.8 2.1-1.3 3.5-1.7 1.3-.4 2.7-.6 4.2-.6.7 0 1.5 0 2.2.1.8.1 1.5.2 2.2.4s1.3.3 1.9.5 1.1.4 1.4.6c.5.3.8.5 1 .8s.3.6.3 1.1v1.6c0 .7-.3 1.1-.8 1.1-.3 0-.7-.1-1.3-.4-1.9-.9-4-1.3-6.4-1.3-1.9 0-3.4.3-4.4.9s-1.6 1.6-1.6 3c0 .9.3 1.7 1 2.4.7.6 1.9 1.3 3.7 1.8l4.7 1.5c2.4.8 4.1 1.8 5.2 3.2 1 1.4 1.5 2.9 1.5 4.7 0 1.4-.3 2.7-.9 3.9-.6 1.1-1.4 2.1-2.4 2.9s-2.3 1.4-3.7 1.9c-1.4.3-3 .6-4.7.6z" fill="#252f3e"/><g clip-rule="evenodd" fill="#f90" fill-rule="evenodd"><path d="m90.4 67.5c-10.9 8.1-26.8 12.4-40.5 12.4-19.2 0-36.4-7.1-49.5-18.9-1-.9-.1-2.2 1.1-1.5 14.1 8.3 31.5 13.2 49.5 13.2 12.1 0 25.5-2.5 37.8-7.7 1.8-.8 3.4 1.2 1.6 2.5z"/><path d="m94.9 62.3c-1.4-1.8-9.2-.9-12.8-.4-1.1.1-1.2-.8-.3-1.5 6.3-4.4 16.5-3.1 17.7-1.7 1.2 1.5-.3 11.8-6.2 16.7-.9.8-1.8.4-1.4-.6 1.5-3.3 4.4-10.7 3-12.5z"/></g></svg>