<?xml version="1.0" encoding="utf-8"?>
<!-- Generator: Adobe Illustrator 19.0.1, SVG Export Plug-In . SVG Version: 6.00 Build 0)  -->
<!DOCTYPE svg PUBLIC "-//W3C//DTD SVG 1.1//EN" "http://www.w3.org/Graphics/SVG/1.1/DTD/svg11.dtd">
<svg version="1.1" id="Layer_1" xmlns="http://www.w3.org/2000/svg" xmlns:xlink="http://www.w3.org/1999/xlink" x="0px" y="0px"
	 width="200px" height="200px" viewBox="0 0 200 200" style="enable-background:new 0 0 200 200;" xml:space="preserve">
<style type="text/css">
	.st0{fill:#B8E4FA;}
	.st1{opacity:0.35;fill:#FFFFFF;}
	.st2{fill:#FFFFFF;}
	.st3{fill:#231F20;}
	.st4{fill:#0082AE;}
	.st5{opacity:0.35;}
</style>
<g>
	
		<ellipse transform="matrix(0.9963 -8.548207e-02 8.548207e-02 0.9963 -5.5523 8.5239)" class="st0" cx="96.8" cy="69.1" rx="61.9" ry="30.5"/>
	<path class="st1" d="M95.1,40.7c-13-0.2-28.2,4.9-39.5,9.8c-1.2,3.4-1.8,7-1.8,10.7c0,19.9,18,36.1,40.2,36.1
		c22.2,0,40.2-16.2,40.2-36.1c0-6.3-1.8-12.2-5-17.4C120.2,42.4,107.7,40.9,95.1,40.7z"/>
	<path class="st2" d="M94,40.6c-7.2-0.4-19.6,3.3-29.9,7.1c-1.6,3.7-2.4,7.8-2.4,12c0,17.5,15.8,31.6,32.6,31.6
		c16.6,0,31.3-14.2,32.6-31.6c0.4-5.7-1.6-11-4.3-15.6C111.8,42.2,100.5,41,94,40.6z"/>
	<g>
		<path class="st3" d="M75.6,57.4c0.9-2,2.2-2.9,3.5-4.5c-0.1-0.4-0.5-1.7-0.5-2.1c0-2,1.6-3.6,3.6-3.6c0.5,0,0.9,0.1,1.3,0.3
			c5.9-4.5,13.6-6.4,21.4-4.7c0.7,0.2,1.4,0.4,2.1,0.6c-7.7-1.1-16.4,1.7-22.3,6.4c0.2,0.4,0.7,1.6,0.7,2.1c0,2-1.3,2.4-3.2,2.4
			c-0.4,0-0.9-0.1-1.3-0.2c-1.3,1.8-3,5.2-3.8,7.3c3.3,2.9,6.2,4,10,5.4c0-0.2,0.1-0.4,0.1-0.5c0-5.9,5.2-10.7,11.1-10.7
			c5.3,0,9.7,3.9,10.6,8.9c2.6-1.7,5.2-3,7.2-5.5c-0.5-0.6-0.9-2.1-0.9-2.9c0-1.8,1.4-3.2,3.2-3.2c0.3,0,0.5,0,0.7,0.1
			c1-2,1.7-4.2,2.2-6.4c-9.3-6.9-27.2-5.9-27.2-5.9s-14.3-0.7-23.9,4C71,49.3,72.8,53.7,75.6,57.4z"/>
		<path class="st3" d="M119.8,54.8c0.7,0.6,1,1.1,1.3,1.6c0.9,1.6-0.9,3-2.7,3c-0.2,0-0.4,0-0.5-0.1c-2,3.1-5.5,7.2-8.6,9.2
			c4.8,0.8,9.3,2.7,12.9,5.7c2.6-4.7,4.6-11.5,4.6-17.2c0-4.4-1.9-7.6-4.8-9.9C121.8,49.3,120.6,52.6,119.8,54.8z"/>
		<path class="st3" d="M80.9,84.4c1.6-4.4,5.5-7.8,9.2-10.8c-0.5-0.7-1.4-2.6-1.7-3.5c-4.5-1.4-8.5-4-11.6-7.4
			c0,0.1-0.1,0.2-0.1,0.3c-0.6,2.6-0.7,5.2-0.4,7.8c2.2,0.4,3.8,2.3,3.8,4.6c0,1.4-1.2,3.3-2.1,4.2C79.1,81.8,79.8,82.9,80.9,84.4z"
			/>
		<path class="st3" d="M80.7,88.1c-1.9-1.9-3.2-5.7-4.5-8c-0.2,0-0.5,0.1-0.7,0.1c-2.6,0-5.3-2.2-4.7-4.7c0.3-1.4,1.3-2.3,2.9-3.1
			c-0.4-2.9-0.5-7,0.2-10c0.2-0.9,0.6-1.3,0.9-2.1c-2.8-4.2-4.7-9.6-4.7-15.1c0-0.2,0-0.4,0-0.6c-4.8,2.4-8.4,6.2-8.4,12.2
			c0,13.2,7.6,26.2,19,31.3C80.7,88.2,80.7,88.2,80.7,88.1z"/>
		<path class="st3" d="M108.6,69.8c-1.5,4.2-5.4,7.2-10.1,7.2c-2.5,0-4.8-0.9-6.6-2.3c-3.8,2.9-7.2,8.1-8.9,12.5
			c0.8,0.8,1.3,1.5,2.2,2.3c2.6,0.7,6.2,0,9.1,0c11.4,0,21.6-5.1,27.4-14C117.8,72.8,113.2,70.3,108.6,69.8z"/>
	</g>
	<g>
		<g>
			<path class="st4" d="M75.3,59c0.9-2,2-3.8,3.3-5.4c-0.1-0.4-0.2-0.8-0.2-1.2c0-2,1.6-3.6,3.6-3.6c0.5,0,0.9,0.1,1.3,0.3
				c5.9-4.5,13.6-6.4,21.4-4.7c0.7,0.2,1.4,0.4,2.1,0.6c-7.7-1.1-15.6,1.3-21.5,6.1c0.2,0.4,0.3,0.9,0.3,1.4c0,2-1.6,3.6-3.6,3.6
				c-0.4,0-0.9-0.1-1.3-0.2c-1.3,1.8-2.4,3.8-3.2,5.9c2.8,3,6.2,5.4,10.1,6.8c0-0.2,0-0.4,0-0.6c0-5.9,4.8-10.7,10.7-10.7
				c5.3,0,9.7,3.9,10.6,8.9c2.6-1.7,5-3.8,6.9-6.3c-0.5-0.6-0.7-1.3-0.7-2c0-1.8,1.4-3.2,3.2-3.2c0.3,0,0.5,0,0.7,0.1
				c1-2,1.7-4.2,2.2-6.4c-9.3-6.9-27.2-5.9-27.2-5.9s-14.3-0.7-23.9,4C70.7,50.8,72.5,55.2,75.3,59z"/>
			<path class="st4" d="M120.3,55.3c0.7,0.6,1.1,1.4,1.1,2.4c0,1.8-1.4,3.2-3.2,3.2c-0.2,0-0.4,0-0.5-0.1c-2,3.1-4.7,5.8-7.8,7.8
				c4.6,0.7,9,2.7,12.6,5.6c2.6-4.7,4.1-10.1,4.1-15.8c0-4.4-1.9-7.6-4.8-9.9C121.5,50.9,121.1,53.1,120.3,55.3z"/>
			<path class="st4" d="M81.4,85.5c1.6-4.4,4.4-8.4,8.1-11.4c-0.5-0.7-1-1.6-1.3-2.4c-4.5-1.4-8.5-4-11.6-7.4c0,0.1-0.1,0.2-0.1,0.3
				c-0.6,2.6-0.7,5.2-0.4,7.8c2.2,0.4,3.8,2.3,3.8,4.6c0,1.4-0.6,2.6-1.5,3.4C79.2,82.2,80.2,83.9,81.4,85.5z"/>
			<path class="st4" d="M80.7,88.1c-1.9-1.9-3.5-4.1-4.7-6.4c-0.2,0-0.5,0.1-0.7,0.1c-2.6,0-4.7-2.1-4.7-4.7c0-1.9,1.1-3.4,2.6-4.2
				C72.8,70,72.9,67,73.6,64c0.2-0.9,0.4-1.7,0.7-2.5c-2.8-4.2-4.5-9.2-4.5-14.6c0-0.2,0-0.4,0-0.6c-4.8,2.4-8.4,6.2-8.4,12.2
				c0,13.2,7.9,24.6,19.3,29.7C80.6,88.2,80.6,88.1,80.7,88.1z"/>
			<path class="st4" d="M108.3,71.4c-1.5,4.2-5.4,7.2-10.1,7.2c-2.5,0-4.8-0.9-6.6-2.3c-3.8,2.9-6.6,6.9-8.3,11.4
				c0.8,0.8,1.6,1.6,2.5,2.4c2.6,0.7,5.4,1.1,8.2,1.1c11.4,0,21.5-5.9,27.3-14.8C117.4,73.5,112.9,71.8,108.3,71.4z"/>
		</g>
	</g>
	<polygon class="st2" points="108.7,68.6 118.6,66.3 108.6,65.8 116.7,59.6 107.5,62.9 113.8,54.2 105.1,59.9 108.2,49.8 
		102.2,58.2 102.1,47.6 98.2,57 95,47.5 95.1,58.7 89.5,48.7 92.6,59.3 83.5,52.7 90.6,61.7 79.3,57.5 88.2,64.1 76.8,64.5 
		88.5,67.5 76.8,70 88.3,70.8 78.6,77.1 88.6,73.4 81.7,82.3 90.4,75.2 87.3,87 94.1,77.4 93.1,88.7 97,78.4 100.3,89.3 101,78.4 
		105.9,87.7 103,77.1 112,84 106.2,75.2 116,79 108.5,71.6 118.5,72.4 	"/>
	<path class="st5" d="M3.2,87.6c30.7-30.7,55.2-40.2,77.5-44.5c2.9-0.6,3.5-7,3.5-7s0.4,4.7,2.5,5.4c2.1,0.6,4.7-7.4,4.7-7.4
		s-2.5,7.2,0,7.6c2.5,0.4,7-7,7-7s-1.9,6.4-0.6,6.8c1.2,0.4,7.4-9.3,7.4-9.3s-3.7,6.4-0.2,7c3.5,0.6,8.6-4.4,8.6-4.4s-4,4.6-2.2,5.2
		c7.6,2.7,13.8-7.2,13.8-7.2s-1.4,4.3-5.1,9.1c8,2.1,14-10,14-10l-6,12.1c3.1,1.6,15.5-12.6,15.5-12.6s-6.4,11.1-10.1,13.4
		c2.1,1.6,9.5-4.9,9.5-4.9s-6,7.4-3.7,7.8c3.3,2.7,15.5-13.8,15.5-13.8S150,43.5,143,51.1c5.9,2.9,20.4-15.9,20.4-15.9
		s-0.4,6-10.9,15.5c7.8-1,17.9-15.9,17.9-15.9s-3.7,11.1-12.6,19c7.7-0.8,20-19.8,20-19.8s-4.7,13.2-14.4,20.8
		c10.7,2.4,26.2-13.6,26.2-13.6s-6.1,11.3-14,16c8.9,3.4,21-10.6,21-10.6S184.4,65.3,165,64.5c-6.4-0.3-25.6-19.3-66.8-17.7
		C43.8,48.8,32.3,71.9,3.2,87.6z"/>
	<path class="st2" d="M4.5,85.2C35.2,54.5,59.7,45.1,82,40.7c2.9-0.6,3.5-7,3.5-7s0.4,4.7,2.5,5.4c2.1,0.6,4.7-7.4,4.7-7.4
		s-2.5,7.2,0,7.6c2.5,0.4,7-7,7-7s-1.9,6.4-0.6,6.8c1.2,0.4,7.4-9.3,7.4-9.3s-3.7,6.4-0.2,7c3.5,0.6,8.6-4.4,8.6-4.4s-4,4.6-2.2,5.2
		c7.6,2.7,13.8-7.2,13.8-7.2s-1.4,4.3-5.1,9.1c8,2.1,14-10,14-10l-6,12.1c3.1,1.6,15.5-12.6,15.5-12.6s-6.4,11.1-10.1,13.4
		c2.1,1.6,9.5-4.9,9.5-4.9s-6,7.4-3.7,7.8c3.3,2.7,15.5-13.8,15.5-13.8s-4.7,9.7-11.7,17.3c5.9,2.9,20.4-15.9,20.4-15.9
		s-0.4,6-10.9,15.5c7.8-1,17.9-15.9,17.9-15.9s-3.7,11.1-12.6,19c7.7-0.8,20-19.8,20-19.8s-4.7,13.2-14.4,20.8
		c10.7,2.4,26.2-13.6,26.2-13.6s-6.1,11.3-14,16c8.9,3.4,21-10.6,21-10.6S185.7,63,166.3,62.2c-6.4-0.3-25.6-19.3-66.8-17.7
		C45.1,46.5,33.6,69.6,4.5,85.2z"/>
	<path class="st5" d="M2.4,90.9c16.2,8.1,31.1-1.2,49.8,4c14.2,4,31.5,8.9,55,5.5c23.5-3.4,43.6-13.6,53.2-31.8
		c3-8.1,15.1,1.9,15.1,1.9s-8.9-3.7-8.7-2c0.2,1.8,13.3,7.8,13.3,7.8s-11.9-3.7-11.1-0.9c0.7,2.8,14.8,13.9,14.8,13.9
		s-16-12.2-17.3-10.5c-1.3,1.6,6.8,8.3,6.8,8.3s-13.5-8.3-18.2-5.9c-3.4,1.8,14,13.2,14,13.2s-11.3-8.7-14-6.4
		c-2.7,2.3,12.8,20.8,12.8,20.8s-17.5-19-19.3-18c-1.8,0.9,4.8,10,4.8,10s-8.7-9.5-11-7.8c-2.4,1.6,12.4,26.3,12.4,26.3
		s-16-25.2-22.6-21c10.4,22.7,6.5,26,6.5,26s-1.3-23.2-14.2-22.6c-6.5,0.3,3.1,17.3,3.1,17.3s-8.8-15.5-14.7-15.2
		c10.8,20.5,7,28.8,7,28.8s1.8-17.5-12.9-27.2c5.6,4.9-3.5,27.2-3.5,27.2s8-32.8-5.9-26.6c-2.2,1-0.2,16.4-0.2,16.4
		s-2.8-17.6-7-16.7c-2.4,0.5-15.5,24.4-15.5,24.4s10.7-25.8,7.4-24.7c-2.4,0.8-6.8,11.4-6.8,11.4s2.2-10.5,0-11.1
		c-2.2-0.6-14.2,11.1-14.2,11.1s9-10.5,7.4-12.7c-2.3-3.3-5.1-3.4-8.3-2.2c-4.7,1.8-11.1,10.5-11.1,10.5s6.4-8.8,5.3-12.1
		c-1.8-5.3-20.1,10.2-20.1,10.2s10.8-10.2,8.3-12.4c-2.5-2.2-15.9-1.5-20.1-1.5C10.5,96.8,6.2,93.9,2.4,90.9z"/>
	<path class="st2" d="M1.8,89.1c16.2,8.1,31.1-1.2,49.8,4c14.2,4,31.5,8.9,55,5.5c23.5-3.4,43.6-13.6,53.2-31.8
		c3-8.1,15.1,1.9,15.1,1.9s-8.9-3.7-8.7-2c0.2,1.8,13.3,7.8,13.3,7.8s-11.9-3.7-11.1-0.9c0.7,2.8,14.8,13.9,14.8,13.9
		S167.3,75.4,166,77c-1.3,1.6,6.8,8.3,6.8,8.3s-13.5-8.3-18.2-5.9c-3.4,1.8,14,13.2,14,13.2s-11.3-8.7-14-6.4
		c-2.7,2.3,12.8,20.8,12.8,20.8s-17.5-19-19.3-18c-1.8,0.9,4.8,10,4.8,10s-8.7-9.5-11-7.8c-2.4,1.6,12.4,26.3,12.4,26.3
		s-16-25.2-22.6-21c10.4,22.7,6.5,26,6.5,26s-1.3-23.2-14.2-22.6c-6.5,0.3,3.1,17.3,3.1,17.3s-8.8-15.5-14.7-15.2
		c10.8,20.5,7,28.8,7,28.8s1.8-17.5-12.9-27.2c5.6,4.9-3.5,27.2-3.5,27.2s8-32.8-5.9-26.6c-2.2,1-0.2,16.4-0.2,16.4
		s-2.8-17.6-7-16.7c-2.4,0.5-15.5,24.4-15.5,24.4s10.7-25.8,7.4-24.7c-2.4,0.8-6.8,11.4-6.8,11.4s2.2-10.5,0-11.1
		c-2.2-0.6-14.2,11.1-14.2,11.1s9-10.5,7.4-12.7c-2.3-3.3-5.1-3.4-8.3-2.2c-4.7,1.8-11.1,10.5-11.1,10.5s6.4-8.8,5.3-12.1
		C52.3,93.4,34,108.9,34,108.9s10.8-10.2,8.3-12.4C39.8,94.3,26.4,95,22.2,95C9.9,95,5.6,92.1,1.8,89.1z"/>
	<g>
		<path class="st2" d="M22.4,137.8c1.7,0,3.2,0.4,4,1.2c0.1,1.2-1,3.2-1.7,3.2c-0.8-0.3-1.6-0.5-2.6-0.5c-4,0-5.9,4.1-5.9,8.2
			c0,2.5,0.9,4.1,2.9,4.1c2.1,0,4.3-1.4,5.5-2.5c0.3,0.2,0.7,0.9,0.7,1.7c0,0.9-0.3,1.7-1,2.5c-1.4,1.4-3.8,2.6-7.2,2.6
			c-3.9,0-6.6-2.2-6.6-7.4C10.5,144,15,137.8,22.4,137.8L22.4,137.8z"/>
		<path class="st2" d="M28.2,151.8c0-2.6,0.9-7.1,4.2-10.4c2.8-2.9,6.2-3.6,9.3-3.6c2.1,0,4.8,0.7,6.6,1c-0.4,1.9-1.5,9.2-2,13.4
			c-0.2,1.8-0.3,4.3-0.2,5.2c-1.4,0.6-4.1,0.8-4.9,0.8c-0.4,0-0.5-1.8-0.3-3.5c0-0.6,0.1-1.4,0.2-1.7c-1.7,2.8-5.1,5.2-8.6,5.2
			C29.9,158.2,28.2,156.1,28.2,151.8L28.2,151.8z M35.3,153.8c2.1,0,6-3.8,7.1-10.9c0-0.4,0.1-0.6,0.2-1c-0.5-0.2-1.1-0.3-1.8-0.3
			c-1.6,0-3.3,0.5-4.8,2.5c-1.5,2.1-2.2,4.8-2.2,6.9C33.8,152.8,34.4,153.8,35.3,153.8L35.3,153.8z"/>
		<path class="st2" d="M59.2,137.8c1.8,0,3.5,0.7,4.3,1.5c0,1.2-1,3.3-2.5,2.7c-0.7-0.2-1.3-0.4-2.2-0.4c-1.2,0-2.2,0.5-2.2,1.6
			c0,0.8,0.6,1.4,3.5,3.5c2.1,1.5,2.9,2.9,2.9,4.8c0,3.2-3,6.6-8.3,6.6c-2.1,0-4-0.8-4.6-1.7c-0.8-1.3-0.2-3.9,0.7-3.5
			c1.1,0.6,3,1.2,4.5,1.2c1.4,0,2.4-0.7,2.4-1.5c0-0.7-0.7-1.4-3.3-3.3c-2.2-1.7-2.9-3.2-2.9-4.9C51.5,140.9,54.6,137.8,59.2,137.8
			L59.2,137.8z"/>
		<path class="st2" d="M74.2,137.8c1.8,0,3.5,0.7,4.3,1.5c0,1.2-1,3.3-2.5,2.7c-0.7-0.2-1.3-0.4-2.2-0.4c-1.2,0-2.2,0.5-2.2,1.6
			c0,0.8,0.6,1.4,3.5,3.5c2.1,1.5,2.9,2.9,2.9,4.8c0,3.2-3,6.6-8.3,6.6c-2.1,0-4-0.8-4.6-1.7c-0.8-1.3-0.2-3.9,0.7-3.5
			c1.1,0.6,3,1.2,4.5,1.2c1.4,0,2.4-0.7,2.4-1.5c0-0.7-0.7-1.4-3.3-3.3c-2.2-1.7-2.9-3.2-2.9-4.9C66.6,140.9,69.7,137.8,74.2,137.8
			L74.2,137.8z"/>
		<path class="st2" d="M81,151.8c0-2.6,0.9-7.1,4.2-10.4c2.8-2.9,6.2-3.6,9.3-3.6c2.1,0,4.9,0.7,6.6,1c-0.4,1.9-1.5,9.2-2,13.4
			c-0.2,1.8-0.3,4.3-0.2,5.2c-1.4,0.6-4.2,0.8-4.9,0.8c-0.4,0-0.5-1.8-0.4-3.5c0-0.6,0.1-1.4,0.2-1.7c-1.7,2.8-5.1,5.2-8.6,5.2
			C82.6,158.2,81,156.1,81,151.8L81,151.8z M88,153.8c2.1,0,6-3.8,7.1-10.9c0-0.4,0.1-0.6,0.2-1c-0.5-0.2-1.1-0.3-1.8-0.3
			c-1.6,0-3.3,0.5-4.8,2.5c-1.5,2.1-2.2,4.8-2.2,6.9C86.6,152.8,87.1,153.8,88,153.8L88,153.8z"/>
		<path class="st2" d="M110.9,143.5c2-3.2,4.6-5.7,8.3-5.7c3.1,0,4.1,2.9,3.5,7c-0.3,1.9-0.8,4.7-1.2,7.2c-0.3,2.1-0.5,4.1-0.5,5.4
			c-1.1,0.6-4.5,0.8-5.2,0.8c-0.3,0-0.4-2.4,0-4.9c0.3-2.1,1.1-5.9,1.4-8.1c0.2-1.3,0.2-2.8-1-2.8c-1.6,0-5.5,2.6-7.4,13.2
			c-0.1,0.9-0.5,1.4-1,1.7c-0.7,0.4-2.1,0.7-4.9,0.8c0.5-2.7,1.4-8.1,2-12.1c0.6-3.7,0.8-6,0.7-6.9c0.7-0.3,4.6-1.1,5.1-1.1
			c0.5,0,0.6,1.4,0.1,4.6c0,0.3-0.1,0.8-0.1,1H110.9z"/>
		<path class="st2" d="M130.2,158.2c-2.8,0-4.5-2.5-4.5-6.8c0-7.1,4.4-13.6,11.8-13.6c1.3,0,2.5,0.4,3.2,0.8c0.4-2,1.3-8.2,1.4-10
			c1.2-0.2,3.8-0.6,5-0.6c0.5,0,0.6,0.5,0.4,1.6c-1,6.6-2.9,19.1-3.3,21.9c-0.3,2.4-0.3,4.7-0.3,6c-1.4,0.6-4.2,0.7-5,0.7
			c-0.3,0-0.5-2-0.4-3.8c0-0.6,0.1-1.4,0.1-1.5C136.6,156.5,133.6,158.2,130.2,158.2L130.2,158.2z M133.1,153.7
			c1.9,0,5.8-3.6,6.9-9.9c0-0.4,0.2-1,0.3-1.4c-0.6-0.5-1.3-0.9-2.5-0.9c-4.4,0-6.4,5.3-6.4,9.1
			C131.4,152.7,132.1,153.7,133.1,153.7L133.1,153.7z"/>
		<path class="st2" d="M155.8,144.1c2.3-5.2,5.1-6.3,6.9-6.3c0.6,0,1.4,0.4,1.8,0.8c0.2,1.4-1,4.3-2,5.4c-0.5-0.3-1.2-0.5-1.9-0.5
			c-1.5,0-4.4,2.3-6.2,12.3c-0.1,0.8-0.4,1.2-0.9,1.4c-0.7,0.4-3.7,0.8-5.1,0.8c0.7-3.6,1.8-10.9,2.2-15.2c0.1-1.1,0.2-3.1,0.1-3.9
			c0.8-0.4,4.1-1.1,4.8-1.1c0.4,0,0.7,2.4,0.1,6.3H155.8z"/>
		<path class="st2" d="M164.2,151.8c0-2.6,0.9-7.1,4.2-10.4c2.8-2.9,6.2-3.6,9.3-3.6c2.1,0,4.8,0.7,6.6,1c-0.4,1.9-1.5,9.2-2,13.4
			c-0.2,1.8-0.3,4.3-0.2,5.2c-1.4,0.6-4.2,0.8-4.9,0.8c-0.4,0-0.5-1.8-0.4-3.5c0-0.6,0.1-1.4,0.2-1.7c-1.7,2.8-5.1,5.2-8.6,5.2
			C165.9,158.2,164.2,156.1,164.2,151.8L164.2,151.8z M171.2,153.8c2.1,0,6-3.8,7.1-10.9c0-0.4,0.1-0.6,0.2-1
			c-0.5-0.2-1.1-0.3-1.8-0.3c-1.6,0-3.3,0.5-4.8,2.5c-1.5,2.1-2.2,4.8-2.2,6.9C169.8,152.8,170.3,153.8,171.2,153.8L171.2,153.8z"/>
	</g>
</g>
</svg>
