<svg enable-background="new 0 0 200 200" viewBox="0 0 200 200" xmlns="http://www.w3.org/2000/svg"><path d="m190.8 65.5c-5.1 0-9.1 4.1-9.2 9.1l-40.5 9.1c-3.2-11.4-11-20.9-21.2-26.4l18-37c.8.3 1.7.4 2.6.4 5.1 0 9.2-4.1 9.2-9.2s-4.1-9.2-9.2-9.2-9.2 4.1-9.2 9.2c0 3 1.4 5.6 3.6 7.3l-18.1 37.1c-5.2-2.3-11-3.5-17.1-3.5-6 0-11.7 1.2-16.9 3.5l-17.7-36.9c2.3-1.7 3.8-4.4 3.8-7.4 0-5.1-4.1-9.2-9.2-9.2s-9.2 4.1-9.2 9.2 4.1 9.2 9.2 9.2c.8 0 1.6-.1 2.3-.3l17.8 36.8c-10.5 5.5-18.4 15.2-21.5 26.9l-40-9.5c0-5.1-4.1-9.2-9.2-9.2s-9.2 4.1-9.2 9.2 4.1 9.2 9.2 9.2c3.9 0 7.2-2.4 8.6-5.9l39.9 9.4c-.5 2.5-.7 5.1-.7 7.8 0 9.5 3.1 18.3 8.4 25.4l-32.3 25.8c-1.6-1.4-3.7-2.3-6-2.3-5.1 0-9.2 4.1-9.2 9.2s4.1 9.2 9.2 9.2 9.2-4.1 9.2-9.2c0-1.5-.4-3-1.1-4.3l32.3-25.8c7.5 8.7 18.5 14.3 30.8 14.8v41.4c-4.1.9-7.2 4.6-7.2 9 0 5.1 4.1 9.2 9.2 9.2s9.2-4.1 9.2-9.2c0-4.6-3.4-8.4-7.8-9.1v-41.3c12.3-.5 23.2-6.1 30.7-14.7l32.8 25.8c-.6 1.3-1 2.7-1 4.2 0 5.1 4.1 9.2 9.2 9.2s9.2-4.1 9.2-9.2-4.1-9.2-9.2-9.2c-2.4 0-4.5.9-6.1 2.3l-32.7-25.7c5.3-7.1 8.4-15.9 8.4-25.5 0-2.8-.3-5.6-.8-8.3l40.3-9c1.3 3.5 4.7 5.9 8.6 5.9 5.1 0 9.2-4.1 9.2-9.2s-4.3-9.1-9.4-9.1zm-50.2-59.8c3.2 0 5.8 2.6 5.8 5.8s-2.6 5.8-5.8 5.8-5.8-2.6-5.8-5.8 2.6-5.8 5.8-5.8zm-86.7 5.8c0-3.2 2.6-5.8 5.8-5.8s5.8 2.6 5.8 5.8-2.6 5.8-5.8 5.8c-3.2.1-5.8-2.6-5.8-5.8zm-44.7 69c-3.2 0-5.8-2.6-5.8-5.8s2.6-5.8 5.8-5.8 5.8 2.6 5.8 5.8-2.6 5.8-5.8 5.8zm17.8 78.6c-3.2 0-5.8-2.6-5.8-5.8s2.6-5.8 5.8-5.8 5.8 2.6 5.8 5.8-2.6 5.8-5.8 5.8zm146.2-11.6c3.2 0 5.8 2.6 5.8 5.8s-2.6 5.8-5.8 5.8-5.8-2.6-5.8-5.8 2.6-5.8 5.8-5.8zm-67.2 41c0 3.2-2.6 5.8-5.8 5.8s-5.8-2.6-5.8-5.8 2.6-5.8 5.8-5.8c3.1-.1 5.8 2.6 5.8 5.8zm-6.2-63c-16.7 0-30.3-13.6-30.3-30.3s13.6-30.3 30.3-30.3 30.3 13.6 30.3 30.3-13.6 30.3-30.3 30.3zm91-45c-3.2 0-5.8-2.6-5.8-5.8s2.6-5.8 5.8-5.8 5.8 2.6 5.8 5.8-2.6 5.8-5.8 5.8z"/></svg>