<?xml version="1.0" encoding="utf-8"?>
<!-- Generator: Adobe Illustrator 19.0.1, SVG Export Plug-In . SVG Version: 6.00 Build 0)  -->
<!DOCTYPE svg PUBLIC "-//W3C//DTD SVG 1.1//EN" "http://www.w3.org/Graphics/SVG/1.1/DTD/svg11.dtd">
<svg version="1.1" id="Layer_1" xmlns="http://www.w3.org/2000/svg" xmlns:xlink="http://www.w3.org/1999/xlink" x="0px" y="0px"
	 width="200px" height="200px" viewBox="0 0 200 200" style="enable-background:new 0 0 200 200;" xml:space="preserve">
<style type="text/css">
	.st0{fill:#FFFFFF;}
</style>
<g>
	<path class="st0" d="M190.8,65.5c-5.1,0-9.1,4.1-9.2,9.1l-40.5,9.1c-3.2-11.4-11-20.9-21.2-26.4l18-37c0.8,0.3,1.7,0.4,2.6,0.4
		c5.1,0,9.2-4.1,9.2-9.2s-4.1-9.2-9.2-9.2c-5.1,0-9.2,4.1-9.2,9.2c0,3,1.4,5.6,3.6,7.3l-18.1,37.1c-5.2-2.3-11-3.5-17.1-3.5
		c-6,0-11.7,1.2-16.9,3.5L65.1,19c2.3-1.7,3.8-4.4,3.8-7.4c0-5.1-4.1-9.2-9.2-9.2c-5.1,0-9.2,4.1-9.2,9.2s4.1,9.2,9.2,9.2
		c0.8,0,1.6-0.1,2.3-0.3l17.8,36.8c-10.5,5.5-18.4,15.2-21.5,26.9l-40-9.5c0,0,0,0,0,0c0-5.1-4.1-9.2-9.2-9.2
		c-5.1,0-9.2,4.1-9.2,9.2s4.1,9.2,9.2,9.2c3.9,0,7.2-2.4,8.6-5.9l39.9,9.4c-0.5,2.5-0.7,5.1-0.7,7.8c0,9.5,3.1,18.3,8.4,25.4
		L33,146.4c-1.6-1.4-3.7-2.3-6-2.3c-5.1,0-9.2,4.1-9.2,9.2s4.1,9.2,9.2,9.2c5.1,0,9.2-4.1,9.2-9.2c0-1.5-0.4-3-1.1-4.3l32.3-25.8
		c7.5,8.7,18.5,14.3,30.8,14.8l0,41.4c-4.1,0.9-7.2,4.6-7.2,9c0,5.1,4.1,9.2,9.2,9.2c5.1,0,9.2-4.1,9.2-9.2c0-4.6-3.4-8.4-7.8-9.1
		l0-41.3c12.3-0.5,23.2-6.1,30.7-14.7l32.8,25.8c-0.6,1.3-1,2.7-1,4.2c0,5.1,4.1,9.2,9.2,9.2c5.1,0,9.2-4.1,9.2-9.2
		s-4.1-9.2-9.2-9.2c-2.4,0-4.5,0.9-6.1,2.3l-32.7-25.7c5.3-7.1,8.4-15.9,8.4-25.5c0-2.8-0.3-5.6-0.8-8.3l40.3-9
		c1.3,3.5,4.7,5.9,8.6,5.9c5.1,0,9.2-4.1,9.2-9.2S195.9,65.5,190.8,65.5z M140.6,5.7c3.2,0,5.8,2.6,5.8,5.8c0,3.2-2.6,5.8-5.8,5.8
		c-3.2,0-5.8-2.6-5.8-5.8C134.8,8.3,137.4,5.7,140.6,5.7z M53.9,11.5c0-3.2,2.6-5.8,5.8-5.8c3.2,0,5.8,2.6,5.8,5.8
		c0,3.2-2.6,5.8-5.8,5.8C56.5,17.4,53.9,14.7,53.9,11.5z M9.2,80.5c-3.2,0-5.8-2.6-5.8-5.8c0-3.2,2.6-5.8,5.8-5.8
		c3.2,0,5.8,2.6,5.8,5.8C15,77.9,12.4,80.5,9.2,80.5z M27,159.1c-3.2,0-5.8-2.6-5.8-5.8c0-3.2,2.6-5.8,5.8-5.8
		c3.2,0,5.8,2.6,5.8,5.8C32.8,156.5,30.2,159.1,27,159.1z M173.2,147.5c3.2,0,5.8,2.6,5.8,5.8c0,3.2-2.6,5.8-5.8,5.8
		c-3.2,0-5.8-2.6-5.8-5.8C167.4,150.1,170,147.5,173.2,147.5z M106,188.5c0,3.2-2.6,5.8-5.8,5.8c-3.2,0-5.8-2.6-5.8-5.8
		c0-3.2,2.6-5.8,5.8-5.8C103.3,182.6,106,185.3,106,188.5z M99.8,125.5c-16.7,0-30.3-13.6-30.3-30.3s13.6-30.3,30.3-30.3
		s30.3,13.6,30.3,30.3S116.5,125.5,99.8,125.5z M190.8,80.5c-3.2,0-5.8-2.6-5.8-5.8c0-3.2,2.6-5.8,5.8-5.8c3.2,0,5.8,2.6,5.8,5.8
		C196.6,77.9,194,80.5,190.8,80.5z"/>
</g>
</svg>
