<?xml version="1.0" encoding="utf-8"?>
<!-- Generator: Adobe Illustrator 19.0.1, SVG Export Plug-In . SVG Version: 6.00 Build 0)  -->
<!DOCTYPE svg PUBLIC "-//W3C//DTD SVG 1.1//EN" "http://www.w3.org/Graphics/SVG/1.1/DTD/svg11.dtd">
<svg version="1.1" id="Layer_1" xmlns="http://www.w3.org/2000/svg" xmlns:xlink="http://www.w3.org/1999/xlink" x="0px" y="0px"
	 width="623px" height="208px" viewBox="275 16 623 208" style="enable-background:new 275 16 623 208;" xml:space="preserve">
<style type="text/css">
	.st0{display:none;}
	.st1{fill:#262626;}
	.st2{fill:#E6E7E8;}
	.st3{fill:url(#SVGID_1_);}
	.st4{fill:url(#SVGID_2_);}
	.st5{fill:#888888;}
	.st6{fill:url(#SVGID_3_);}
	.st7{fill:url(#SVGID_4_);}
	.st8{fill:url(#SVGID_5_);}
	.st9{fill:url(#SVGID_6_);}
	.st10{fill:url(#SVGID_7_);}
	.st11{fill:url(#SVGID_8_);}
	.st12{fill:url(#SVGID_9_);}
	.st13{fill:url(#SVGID_10_);}
	.st14{fill:url(#SVGID_11_);}
	.st15{fill:url(#SVGID_12_);}
	.st16{fill:url(#SVGID_13_);}
</style>
<rect x="233" y="-30" class="st0" width="665" height="260"/>
<g>
	<path class="st1" d="M659,49.2H516.9c-3.4,0-6.2-2.8-6.2-6.2V23.4c0-3.4,2.8-6.2,6.2-6.2H659c3.4,0,6.2,2.8,6.2,6.2V43
		C665.2,46.4,662.4,49.2,659,49.2z"/>
</g>
<g>
	<g>
		<path class="st2" d="M544.9,30.3c-0.4-0.5-1.3-1.5-2.9-1.5c-2.2,0-4,1.9-4,4.1c0,2.4,2,4.1,4,4.1c0.3,0,2.7,0,3.7-2.7h-5V33h6.8
			c-0.1,3.6-2.9,5.5-5.5,5.5c-3.1,0-5.5-2.5-5.5-5.5c0-3.1,2.4-5.6,5.5-5.6c1.8,0,3.8,1,4.8,2.9C546.8,30.3,544.9,30.3,544.9,30.3z"
			/>
	</g>
	<g>
		<path class="st2" d="M548.9,38.3v-8h1.4V31l0,0c0.6-0.9,1.7-0.9,2-0.9v1.5c-0.2,0-0.7,0.1-1.1,0.3c-0.5,0.3-0.9,0.9-0.9,2v4.4
			C550.3,38.3,548.9,38.3,548.9,38.3z"/>
	</g>
	<g>
		<path class="st2" d="M560.1,38.3V37l0,0c-0.6,1-1.6,1.4-2.7,1.4c-2.7,0-4.2-2.1-4.2-4.2c0-2,1.4-4.2,4.2-4.2
			c1.1,0,2.1,0.5,2.7,1.3l0,0v-1.1h1.5v8L560.1,38.3L560.1,38.3z M557.3,31.4c-1.8,0-2.7,1.6-2.7,2.9c0,1.4,1.1,2.8,2.7,2.8
			s2.8-1.3,2.8-2.8C560.1,32.6,558.9,31.4,557.3,31.4z"/>
	</g>
	<g>
		<path class="st2" d="M563.6,38.3v-6.6h-0.7v-1.4h0.7v-0.4c0-0.9,0.3-1.4,1-1.9c0.7-0.4,1.1-0.4,2-0.4V29c-1,0-1.4,0.4-1.4,0.9v0.4
			h1.4v1.4h-1.4v6.6H563.6z"/>
	</g>
	<g>
		<path class="st2" d="M573.8,38.3V37l0,0c-0.6,1-1.6,1.4-2.7,1.4c-2.7,0-4.2-2.1-4.2-4.2c0-2,1.4-4.2,4.2-4.2
			c1.1,0,2.1,0.5,2.7,1.3l0,0v-1.1h1.5v8L573.8,38.3L573.8,38.3z M571.1,31.4c-1.8,0-2.7,1.6-2.7,2.9c0,1.4,1.1,2.8,2.7,2.8
			c1.6,0,2.8-1.3,2.8-2.8C573.8,32.6,572.6,31.4,571.1,31.4z"/>
	</g>
	<g>
		<path class="st2" d="M582.8,38.3V34c0-0.6,0-2.5-2-2.5c-1.3,0-2.1,0.9-2.1,2.5v4.4h-1.5v-8h1.4v0.9l0,0c0.8-1.1,2-1.1,2.3-1.1
			c1.2,0,2.3,0.5,2.8,1.4c0.3,0.5,0.5,1.2,0.5,2.1v4.7L582.8,38.3L582.8,38.3z"/>
	</g>
	<g>
		<path class="st2" d="M592.8,38.3V37l0,0c-0.6,1-1.6,1.4-2.7,1.4c-2.7,0-4.2-2.1-4.2-4.2c0-2,1.4-4.2,4.2-4.2
			c1.1,0,2.1,0.5,2.7,1.3l0,0v-1.1h1.5v8L592.8,38.3L592.8,38.3z M590.1,31.4c-1.8,0-2.7,1.6-2.7,2.9c0,1.4,1.1,2.8,2.7,2.8
			c1.6,0,2.8-1.3,2.8-2.8C592.9,32.6,591.6,31.4,590.1,31.4z"/>
	</g>
	<g>
		<path class="st2" d="M604.4,30.3c-0.3-0.4-1.3-1.5-3-1.5c-2.2,0-4,1.8-4,4.1s1.8,4.1,3.9,4.1c1.1,0,2.2-0.5,2.9-1.4h1.9
			c-1.2,2.1-3.2,2.8-4.9,2.8c-3,0-5.5-2.6-5.5-5.6c0-3.1,2.5-5.5,5.5-5.5c0.8,0,2.1,0.2,3.3,1c1,0.7,1.4,1.4,1.6,1.9L604.4,30.3
			L604.4,30.3z"/>
	</g>
	<g>
		<path class="st2" d="M609.1,38.3h-1.5V27.6h1.5V38.3z"/>
	</g>
	<g>
		<path class="st2" d="M614.9,38.5c-2.7,0-4.3-2.2-4.3-4.3c0-2.2,1.8-4.2,4.3-4.2c2.4,0,4.3,1.9,4.3,4.2
			C619.2,36.2,617.6,38.5,614.9,38.5z M614.9,31.4c-1.7,0-2.8,1.4-2.8,2.8s1.1,2.8,2.8,2.8c1.6,0,2.8-1.3,2.8-2.9
			C617.7,32.8,616.6,31.4,614.9,31.4z"/>
	</g>
	<g>
		<path class="st2" d="M622.3,30.3v4.3c0,2,0.9,2.5,2,2.5c1.2,0,2.1-0.8,2.1-2.5v-4.3h1.5v8h-1.4v-0.9l0,0c-0.4,0.7-1.3,1.1-2.4,1.1
			c-0.9,0-1.7-0.3-2.3-0.8c-0.7-0.6-1.1-1.5-1.1-3.1v-4.3H622.3z"/>
	</g>
	<g>
		<path class="st2" d="M636.4,38.3v-1.1l0,0c-0.6,0.9-1.7,1.3-2.8,1.3c-2.7,0-4.2-2.1-4.2-4.2c0-2,1.3-4.2,4.2-4.2
			c1.1,0,2.1,0.5,2.7,1.2l0,0v-3.7h1.5v10.7C637.8,38.3,636.4,38.3,636.4,38.3z M633.6,31.4c-1.8,0-2.7,1.6-2.7,2.9
			c0,1.4,1.1,2.8,2.7,2.8c1.6,0,2.8-1.3,2.8-2.8C636.4,32.6,635.2,31.4,633.6,31.4z"/>
	</g>
</g>
<g>
	<path class="st1" d="M459.1,153.7h-82.6c-3.4,0-6.2-2.8-6.2-6.2v-8.2c0-3.4,2.8-6.2,6.2-6.2h82.6c3.4,0,6.2,2.8,6.2,6.2v8.2
		C465.3,150.9,462.5,153.7,459.1,153.7z"/>
</g>
<g>
	<path class="st1" d="M338.6,220.8h-55.5c-3.4,0-6.2-2.8-6.2-6.2v-5.4c0-3.4,2.8-6.2,6.2-6.2h55.5c3.4,0,6.2,2.8,6.2,6.2v5.4
		C344.8,218,342,220.8,338.6,220.8z"/>
</g>
<g>
	<path class="st1" d="M439.8,220.8h-55.5c-3.4,0-6.2-2.8-6.2-6.2v-5.4c0-3.4,2.8-6.2,6.2-6.2h55.5c3.4,0,6.2,2.8,6.2,6.2v5.4
		C446,218,443.2,220.8,439.8,220.8z"/>
</g>
<g>
	<path class="st1" d="M540.8,220.8h-55.5c-3.4,0-6.2-2.8-6.2-6.2v-5.4c0-3.4,2.8-6.2,6.2-6.2h55.5c3.4,0,6.2,2.8,6.2,6.2v5.4
		C547,218,544.2,220.8,540.8,220.8z"/>
</g>
<g>
	<path class="st1" d="M687.9,220.8h-55.5c-3.4,0-6.2-2.8-6.2-6.2v-5.4c0-3.4,2.8-6.2,6.2-6.2h55.5c3.4,0,6.2,2.8,6.2,6.2v5.4
		C694.1,218,691.3,220.8,687.9,220.8z"/>
</g>
<g>
	<path class="st1" d="M788.9,220.8h-55.5c-3.4,0-6.2-2.8-6.2-6.2v-5.4c0-3.4,2.8-6.2,6.2-6.2h55.5c3.4,0,6.2,2.8,6.2,6.2v5.4
		C795.1,218,792.4,220.8,788.9,220.8z"/>
</g>
<g>
	<path class="st1" d="M890.4,220.8h-55.5c-3.4,0-6.2-2.8-6.2-6.2v-5.4c0-3.4,2.8-6.2,6.2-6.2h55.5c3.4,0,6.2,2.8,6.2,6.2v5.4
		C896.6,218,893.8,220.8,890.4,220.8z"/>
</g>
<g>
	<g>
		<path class="st2" d="M389.4,144.7c0,0.3,0.1,1.6,1.5,1.6c0.8,0,1.5-0.6,1.5-1.5c0-1-0.8-1.2-1.5-1.5c-1.2-0.5-1.5-0.6-1.9-1
			s-0.6-1.1-0.6-1.7c0-1.1,0.8-2.5,2.5-2.5c1.5,0,2.6,1,2.6,2.5h-1.3c0-1-0.7-1.3-1.3-1.3c-0.8,0-1.2,0.7-1.2,1.2
			c0,0.9,0.8,1.1,1.2,1.2c1.1,0.4,2.8,0.8,2.8,3c0,1.6-1.1,2.7-2.8,2.7c-1.2,0-2.8-0.8-2.8-2.8h1.3V144.7z"/>
	</g>
	<g>
		<path class="st2" d="M395.7,144.5c0.3,1.3,1.4,1.8,2.2,1.8c0.9,0,1.6-0.6,1.9-1.1h1.3c-0.6,1.7-2.2,2.3-3.3,2.3
			c-1.9,0-3.4-1.6-3.4-3.6s1.6-3.6,3.5-3.6c1.8,0,3.4,1.5,3.4,3.5c0,0.2,0,0.6,0,0.6h-5.6V144.5z M400,143.6c-0.1-1-1-2-2.2-2
			c-1.2,0-2.1,1-2.2,2H400z"/>
	</g>
	<g>
		<path class="st2" d="M402.6,147.4v-6.8h1.2v0.6l0,0c0.5-0.8,1.4-0.8,1.7-0.8v1.3c-0.2,0-0.6,0.1-0.9,0.2c-0.4,0.2-0.7,0.7-0.7,1.7
			v3.7h-1.3V147.4z"/>
	</g>
	<g>
		<path class="st2" d="M409.9,147.4H409l-2.7-6.8h1.4l1.8,4.8l0,0l1.7-4.8h1.4L409.9,147.4z"/>
	</g>
	<g>
		<path class="st2" d="M414.8,139.8h-1.3v-1.5h1.3V139.8z M414.8,147.4h-1.3v-6.8h1.3V147.4z"/>
	</g>
	<g>
		<path class="st2" d="M421.5,142.9c-0.2-0.4-0.7-1.3-1.9-1.3c-1.6,0-2.2,1.4-2.2,2.4c0,1.2,0.7,2.4,2.2,2.4c1,0,1.6-0.6,1.9-1.2
			h1.4c-0.5,1.5-1.8,2.4-3.3,2.4c-2.2,0-3.5-1.8-3.5-3.6s1.3-3.6,3.5-3.6c1.9,0,3.1,1.4,3.3,2.4h-1.4V142.9z"/>
	</g>
	<g>
		<path class="st2" d="M425.1,144.5c0.3,1.3,1.4,1.8,2.2,1.8c0.9,0,1.6-0.6,1.9-1.1h1.3c-0.6,1.7-2.2,2.3-3.3,2.3
			c-1.9,0-3.4-1.6-3.4-3.6s1.6-3.6,3.5-3.6c1.8,0,3.4,1.5,3.4,3.5c0,0.2,0,0.6,0,0.6h-5.6V144.5z M429.4,143.6c-0.1-1-1-2-2.2-2
			c-1.2,0-2.1,1-2.2,2H429.4z"/>
	</g>
	<g>
		<path class="st2" d="M441.1,147.4l-1-2.7h-3.3l-1,2.7h-1.4l3.4-9h1.2l3.4,9H441.1z M439.7,143.5l-1.1-3.5l0,0l-1.2,3.5H439.7z"/>
	</g>
</g>
<g>
	<g>
		<path class="st2" d="M297.2,215.4V208h1.1v7.4H297.2z"/>
	</g>
	<g>
		<path class="st2" d="M303.6,215.4v-3c0-0.4,0-1.7-1.4-1.7c-0.9,0-1.5,0.6-1.5,1.7v3h-1v-5.5h1v0.6l0,0c0.6-0.7,1.4-0.7,1.6-0.7
			c0.9,0,1.6,0.4,2,1c0.2,0.4,0.3,0.8,0.4,1.4v3.3h-1.1V215.4z"/>
	</g>
	<g>
		<path class="st2" d="M306,215.4v-4.6h-0.5v-0.9h0.5v-0.3c0-0.6,0.2-1,0.7-1.3c0.4-0.3,0.7-0.3,1.4-0.3v1c-0.7,0-1,0.2-1,0.6v0.3h1
			v0.9h-1v4.6H306z"/>
	</g>
	<g>
		<path class="st2" d="M308.7,215.4v-5.5h1v0.5l0,0c0.4-0.6,1.2-0.6,1.4-0.7v1.1c-0.2,0-0.5,0.1-0.8,0.2c-0.3,0.2-0.6,0.6-0.6,1.4v3
			H308.7z"/>
	</g>
	<g>
		<path class="st2" d="M316.5,215.4v-0.9l0,0c-0.4,0.7-1.1,1-1.9,1c-1.9,0-2.9-1.4-2.9-2.9c0-1.4,1-2.9,2.9-2.9
			c0.8,0,1.5,0.3,1.9,0.9l0,0v-0.8h1v5.5L316.5,215.4L316.5,215.4z M314.6,210.7c-1.3,0-1.9,1.1-1.9,2c0,1,0.8,2,1.9,2
			s1.9-0.9,1.9-2C316.5,211.5,315.7,210.7,314.6,210.7z"/>
	</g>
	<g>
		<path class="st2" d="M326.3,215.4l-0.8-2.2h-2.7l-0.8,2.2h-1.1l2.8-7.4h1l2.8,7.4H326.3z M325.1,212.3l-0.9-2.8l0,0l-1,2.8H325.1z
			"/>
	</g>
</g>
<g>
	
		<linearGradient id="SVGID_1_" gradientUnits="userSpaceOnUse" x1="377.2" y1="-11.85" x2="446.9" y2="-11.85" gradientTransform="matrix(1 0 0 -1 0 200)">
		<stop  offset="0" style="stop-color:#7CC4D3"/>
		<stop  offset="1" style="stop-color:#0CB1D3"/>
	</linearGradient>
	<path class="st3" d="M444.3,221.8L444.3,221.8c-0.7,0-1.2-0.5-1.2-1.1s0.5-1.1,1.1-1.1h0.1c0.6,0,1.1,0.5,1.1,1.1
		S444.9,221.8,444.3,221.8z M439.2,221.8L439.2,221.8c-0.7,0-1.2-0.5-1.2-1.1s0.5-1.1,1.1-1.1h0.1c0.6,0,1.1,0.5,1.1,1.1
		S439.8,221.8,439.2,221.8z M434.1,221.8L434.1,221.8c-0.7,0-1.2-0.5-1.2-1.1s0.5-1.1,1.1-1.1h0.1c0.6,0,1.1,0.5,1.1,1.1
		S434.7,221.8,434.1,221.8z M429,221.8L429,221.8c-0.7,0-1.2-0.5-1.2-1.1s0.5-1.1,1.1-1.1h0.1c0.6,0,1.1,0.5,1.1,1.1
		S429.6,221.8,429,221.8z M423.9,221.8L423.9,221.8c-0.7,0-1.2-0.5-1.2-1.1s0.5-1.1,1.1-1.1h0.1c0.6,0,1.1,0.5,1.1,1.1
		S424.6,221.8,423.9,221.8z M418.9,221.8L418.9,221.8c-0.7,0-1.2-0.5-1.2-1.1s0.5-1.1,1.1-1.1h0.1c0.6,0,1.1,0.5,1.1,1.1
		S419.5,221.8,418.9,221.8z M413.8,221.8L413.8,221.8c-0.7,0-1.2-0.5-1.2-1.1s0.5-1.1,1.1-1.1h0.1c0.6,0,1.1,0.5,1.1,1.1
		S414.4,221.8,413.8,221.8z M408.7,221.8L408.7,221.8c-0.7,0-1.2-0.5-1.2-1.1s0.5-1.1,1.1-1.1h0.1c0.6,0,1.1,0.5,1.1,1.1
		S409.3,221.8,408.7,221.8z M403.6,221.8L403.6,221.8c-0.7,0-1.2-0.5-1.2-1.1s0.5-1.1,1.1-1.1h0.1c0.6,0,1.1,0.5,1.1,1.1
		S404.2,221.8,403.6,221.8z M398.5,221.8L398.5,221.8c-0.7,0-1.2-0.5-1.2-1.1s0.5-1.1,1.1-1.1h0.1c0.6,0,1.1,0.5,1.1,1.1
		S399.2,221.8,398.5,221.8z M393.5,221.8L393.5,221.8c-0.7,0-1.2-0.5-1.2-1.1s0.5-1.1,1.1-1.1h0.1c0.6,0,1.1,0.5,1.1,1.1
		S394.1,221.8,393.5,221.8z M388.4,221.8L388.4,221.8c-0.7,0-1.2-0.5-1.2-1.1s0.5-1.1,1.1-1.1h0.1c0.6,0,1.1,0.5,1.1,1.1
		S389,221.8,388.4,221.8z M383.3,221.8L383.3,221.8c-0.7,0-1.2-0.5-1.2-1.1s0.5-1.1,1.1-1.1h0.1c0.6,0,1.1,0.5,1.1,1.1
		S383.9,221.8,383.3,221.8z M378.5,221c-0.4,0-0.8-0.2-1-0.6c0,0,0-0.1-0.1-0.1c-0.3-0.6,0-1.2,0.5-1.5c0.6-0.3,1.2,0,1.5,0.5
		s0.1,1.2-0.4,1.5C378.9,220.9,378.7,221,378.5,221z M445.8,217.6c-0.6,0-1.1-0.5-1.1-1.1v-0.1c0-0.6,0.5-1.1,1.1-1.1
		c0.6,0,1.1,0.5,1.1,1.1v0.1C446.9,217.1,446.4,217.6,445.8,217.6z M378.3,215.9c-0.6,0-1.1-0.5-1.1-1.1v-0.1c0-0.6,0.5-1.1,1.1-1.1
		c0.6,0,1.1,0.5,1.1,1.1v0.1C379.4,215.4,378.9,215.9,378.3,215.9z M445.8,212.5c-0.6,0-1.1-0.5-1.1-1.1s0.5-1.1,1.1-1.1
		c0.6,0,1.1,0.5,1.1,1.1v0.1C446.9,212,446.4,212.5,445.8,212.5z M378.3,210.8c-0.6,0-1.1-0.5-1.1-1.1v-0.1c0-0.6,0.5-1.1,1.1-1.1
		c0.6,0,1.1,0.5,1.1,1.1v0.1C379.4,210.3,378.9,210.8,378.3,210.8z M445.8,207.4c-0.6,0-1.1-0.5-1.1-1.1v-0.1c0-0.6,0.5-1.1,1.1-1.1
		c0.6,0,1.1,0.5,1.1,1.1v0.1C446.9,206.9,446.4,207.4,445.8,207.4z M378.3,205.7c-0.6,0-1.1-0.5-1.1-1.1v-0.1c0-0.6,0.5-1.1,1.1-1.1
		c0.6,0,1.1,0.5,1.1,1.1v0.1C379.4,205.2,378.9,205.7,378.3,205.7z M443.4,204.1L443.4,204.1c-0.7,0-1.2-0.5-1.2-1.1
		s0.5-1.1,1.1-1.1h0.1c0.6,0,1.1,0.5,1.1,1.1S444,204.1,443.4,204.1z M438.3,204.1L438.3,204.1c-0.7,0-1.2-0.5-1.2-1.1
		s0.5-1.1,1.1-1.1h0.1c0.6,0,1.1,0.5,1.1,1.1S439,204.1,438.3,204.1z M433.3,204.1L433.3,204.1c-0.7,0-1.2-0.5-1.2-1.1
		s0.5-1.1,1.1-1.1h0.1c0.6,0,1.1,0.5,1.1,1.1S433.9,204.1,433.3,204.1z M428.2,204.1L428.2,204.1c-0.7,0-1.2-0.5-1.2-1.1
		s0.5-1.1,1.1-1.1h0.1c0.6,0,1.1,0.5,1.1,1.1S428.8,204.1,428.2,204.1z M423.1,204.1L423.1,204.1c-0.7,0-1.2-0.5-1.2-1.1
		s0.5-1.1,1.1-1.1h0.1c0.6,0,1.1,0.5,1.1,1.1S423.7,204.1,423.1,204.1z M418,204.1L418,204.1c-0.7,0-1.2-0.5-1.2-1.1
		s0.5-1.1,1.1-1.1h0.1c0.6,0,1.1,0.5,1.1,1.1S418.6,204.1,418,204.1z M412.9,204.1L412.9,204.1c-0.7,0-1.2-0.5-1.2-1.1
		s0.5-1.1,1.1-1.1h0.1c0.6,0,1.1,0.5,1.1,1.1S413.6,204.1,412.9,204.1z M407.9,204.1L407.9,204.1c-0.7,0-1.2-0.5-1.2-1.1
		s0.5-1.1,1.1-1.1h0.1c0.6,0,1.1,0.5,1.1,1.1S408.5,204.1,407.9,204.1z M402.8,204.1L402.8,204.1c-0.7,0-1.2-0.5-1.2-1.1
		s0.5-1.1,1.1-1.1h0.1c0.6,0,1.1,0.5,1.1,1.1S403.4,204.1,402.8,204.1z M397.7,204.1L397.7,204.1c-0.7,0-1.2-0.5-1.2-1.1
		s0.5-1.1,1.1-1.1h0.1c0.6,0,1.1,0.5,1.1,1.1S398.3,204.1,397.7,204.1z M392.6,204.1L392.6,204.1c-0.7,0-1.2-0.5-1.2-1.1
		s0.5-1.1,1.1-1.1h0.1c0.6,0,1.1,0.5,1.1,1.1S393.2,204.1,392.6,204.1z M387.5,204.1L387.5,204.1c-0.7,0-1.2-0.5-1.2-1.1
		s0.5-1.1,1.1-1.1h0.1c0.6,0,1.1,0.5,1.1,1.1S388.2,204.1,387.5,204.1z M382.5,204.1L382.5,204.1c-0.7,0-1.2-0.5-1.2-1.1
		s0.5-1.1,1.1-1.1h0.1c0.6,0,1.1,0.5,1.1,1.1S383.1,204.1,382.5,204.1z"/>
</g>
<g>
	<g>
		<path class="st2" d="M398.3,215.4V208h1.1v7.4H398.3z"/>
	</g>
	<g>
		<path class="st2" d="M404.7,215.4v-3c0-0.4,0-1.7-1.4-1.7c-0.9,0-1.5,0.6-1.5,1.7v3h-1v-5.5h1v0.6l0,0c0.6-0.7,1.4-0.7,1.6-0.7
			c0.9,0,1.6,0.4,2,1c0.2,0.4,0.3,0.8,0.4,1.4v3.3h-1.1V215.4z"/>
	</g>
	<g>
		<path class="st2" d="M407.1,215.4v-4.6h-0.5v-0.9h0.5v-0.3c0-0.6,0.2-1,0.7-1.3c0.4-0.3,0.7-0.3,1.4-0.3v1c-0.7,0-1,0.2-1,0.6v0.3
			h1v0.9h-1v4.6H407.1z"/>
	</g>
	<g>
		<path class="st2" d="M409.8,215.4v-5.5h1v0.5l0,0c0.4-0.6,1.2-0.6,1.4-0.7v1.1c-0.2,0-0.5,0.1-0.8,0.2c-0.3,0.2-0.6,0.6-0.6,1.4v3
			H409.8z"/>
	</g>
	<g>
		<path class="st2" d="M417.6,215.4v-0.9l0,0c-0.4,0.7-1.1,1-1.9,1c-1.9,0-2.9-1.4-2.9-2.9c0-1.4,1-2.9,2.9-2.9
			c0.8,0,1.5,0.3,1.9,0.9l0,0v-0.8h1v5.5L417.6,215.4L417.6,215.4z M415.7,210.7c-1.3,0-1.9,1.1-1.9,2c0,1,0.8,2,1.9,2
			c1.1,0,1.9-0.9,1.9-2C417.6,211.5,416.7,210.7,415.7,210.7z"/>
	</g>
	<g>
		<path class="st2" d="M422.8,208h1.9c2.1,0,2.3,1.5,2.3,2.1c0,0.8-0.4,1.2-0.7,1.4c0.3,0.2,1.1,0.7,1.1,1.8c0,0.8-0.4,2.2-2.5,2.2
			h-2.2L422.8,208L422.8,208z M423.9,211.1h0.9c1,0,1.2-0.6,1.2-1c0-1.1-1-1.1-1.3-1.1h-0.8L423.9,211.1L423.9,211.1z M423.9,214.4
			h1.2c1.1,0,1.3-0.8,1.3-1.2c0-0.3-0.1-0.5-0.3-0.7c-0.3-0.4-0.8-0.5-1.2-0.5h-1V214.4z"/>
	</g>
</g>
<g>
	
		<linearGradient id="SVGID_2_" gradientUnits="userSpaceOnUse" x1="478.3" y1="-11.85" x2="548" y2="-11.85" gradientTransform="matrix(1 0 0 -1 0 200)">
		<stop  offset="0" style="stop-color:#7CC4D3"/>
		<stop  offset="1" style="stop-color:#0CB1D3"/>
	</linearGradient>
	<path class="st4" d="M545.4,221.8L545.4,221.8c-0.7,0-1.2-0.5-1.2-1.1s0.5-1.1,1.1-1.1h0.1c0.6,0,1.1,0.5,1.1,1.1
		S546,221.8,545.4,221.8z M540.3,221.8L540.3,221.8c-0.7,0-1.2-0.5-1.2-1.1s0.5-1.1,1.1-1.1h0.1c0.6,0,1.1,0.5,1.1,1.1
		S540.9,221.8,540.3,221.8z M535.2,221.8L535.2,221.8c-0.7,0-1.2-0.5-1.2-1.1s0.5-1.1,1.1-1.1h0.1c0.6,0,1.1,0.5,1.1,1.1
		S535.8,221.8,535.2,221.8z M530.1,221.8L530.1,221.8c-0.7,0-1.2-0.5-1.2-1.1s0.5-1.1,1.1-1.1h0.1c0.6,0,1.1,0.5,1.1,1.1
		S530.7,221.8,530.1,221.8z M525,221.8L525,221.8c-0.7,0-1.2-0.5-1.2-1.1s0.5-1.1,1.1-1.1h0.1c0.6,0,1.1,0.5,1.1,1.1
		S525.7,221.8,525,221.8z M520,221.8L520,221.8c-0.7,0-1.2-0.5-1.2-1.1s0.5-1.1,1.1-1.1h0.1c0.6,0,1.1,0.5,1.1,1.1
		S520.6,221.8,520,221.8z M514.9,221.8L514.9,221.8c-0.7,0-1.2-0.5-1.2-1.1s0.5-1.1,1.1-1.1h0.1c0.6,0,1.1,0.5,1.1,1.1
		S515.5,221.8,514.9,221.8z M509.8,221.8L509.8,221.8c-0.7,0-1.2-0.5-1.2-1.1s0.5-1.1,1.1-1.1h0.1c0.6,0,1.1,0.5,1.1,1.1
		S510.4,221.8,509.8,221.8z M504.7,221.8L504.7,221.8c-0.7,0-1.2-0.5-1.2-1.1s0.5-1.1,1.1-1.1h0.1c0.6,0,1.1,0.5,1.1,1.1
		S505.3,221.8,504.7,221.8z M499.6,221.8L499.6,221.8c-0.7,0-1.2-0.5-1.2-1.1s0.5-1.1,1.1-1.1h0.1c0.6,0,1.1,0.5,1.1,1.1
		S500.2,221.8,499.6,221.8z M494.6,221.8L494.6,221.8c-0.7,0-1.2-0.5-1.2-1.1s0.5-1.1,1.1-1.1h0.1c0.6,0,1.1,0.5,1.1,1.1
		S495.2,221.8,494.6,221.8z M489.5,221.8L489.5,221.8c-0.7,0-1.2-0.5-1.2-1.1s0.5-1.1,1.1-1.1h0.1c0.6,0,1.1,0.5,1.1,1.1
		S490.1,221.8,489.5,221.8z M484.4,221.8L484.4,221.8c-0.7,0-1.2-0.5-1.2-1.1s0.5-1.1,1.1-1.1h0.1c0.6,0,1.1,0.5,1.1,1.1
		S485,221.8,484.4,221.8z M479.6,221c-0.4,0-0.8-0.2-1-0.6c0,0,0-0.1-0.1-0.1c-0.3-0.6,0-1.2,0.5-1.5c0.6-0.3,1.2,0,1.5,0.5
		s0.1,1.2-0.4,1.5C480,220.9,479.8,221,479.6,221z M546.9,217.6c-0.6,0-1.1-0.5-1.1-1.1v-0.1c0-0.6,0.5-1.1,1.1-1.1
		c0.6,0,1.1,0.5,1.1,1.1v0.1C548,217.1,547.5,217.6,546.9,217.6z M479.4,215.9c-0.6,0-1.1-0.5-1.1-1.1v-0.1c0-0.6,0.5-1.1,1.1-1.1
		s1.1,0.5,1.1,1.1v0.1C480.5,215.4,480,215.9,479.4,215.9z M546.9,212.5c-0.6,0-1.1-0.5-1.1-1.1s0.5-1.1,1.1-1.1
		c0.6,0,1.1,0.5,1.1,1.1v0.1C548,212,547.5,212.5,546.9,212.5z M479.4,210.8c-0.6,0-1.1-0.5-1.1-1.1v-0.1c0-0.6,0.5-1.1,1.1-1.1
		s1.1,0.5,1.1,1.1v0.1C480.5,210.3,480,210.8,479.4,210.8z M546.9,207.4c-0.6,0-1.1-0.5-1.1-1.1v-0.1c0-0.6,0.5-1.1,1.1-1.1
		c0.6,0,1.1,0.5,1.1,1.1v0.1C548,206.9,547.5,207.4,546.9,207.4z M479.4,205.7c-0.6,0-1.1-0.5-1.1-1.1v-0.1c0-0.6,0.5-1.1,1.1-1.1
		s1.1,0.5,1.1,1.1v0.1C480.5,205.2,480,205.7,479.4,205.7z M544.5,204.1L544.5,204.1c-0.7,0-1.2-0.5-1.2-1.1s0.5-1.1,1.1-1.1h0.1
		c0.6,0,1.1,0.5,1.1,1.1S545.1,204.1,544.5,204.1z M539.4,204.1L539.4,204.1c-0.7,0-1.2-0.5-1.2-1.1s0.5-1.1,1.1-1.1h0.1
		c0.6,0,1.1,0.5,1.1,1.1S540.1,204.1,539.4,204.1z M534.4,204.1L534.4,204.1c-0.7,0-1.2-0.5-1.2-1.1s0.5-1.1,1.1-1.1h0.1
		c0.6,0,1.1,0.5,1.1,1.1S535,204.1,534.4,204.1z M529.3,204.1L529.3,204.1c-0.7,0-1.2-0.5-1.2-1.1s0.5-1.1,1.1-1.1h0.1
		c0.6,0,1.1,0.5,1.1,1.1S529.9,204.1,529.3,204.1z M524.2,204.1L524.2,204.1c-0.7,0-1.2-0.5-1.2-1.1s0.5-1.1,1.1-1.1h0.1
		c0.6,0,1.1,0.5,1.1,1.1S524.8,204.1,524.2,204.1z M519.1,204.1L519.1,204.1c-0.7,0-1.2-0.5-1.2-1.1s0.5-1.1,1.1-1.1h0.1
		c0.6,0,1.1,0.5,1.1,1.1S519.7,204.1,519.1,204.1z M514,204.1L514,204.1c-0.7,0-1.2-0.5-1.2-1.1s0.5-1.1,1.1-1.1h0.1
		c0.6,0,1.1,0.5,1.1,1.1S514.7,204.1,514,204.1z M509,204.1L509,204.1c-0.7,0-1.2-0.5-1.2-1.1s0.5-1.1,1.1-1.1h0.1
		c0.6,0,1.1,0.5,1.1,1.1S509.6,204.1,509,204.1z M503.9,204.1L503.9,204.1c-0.7,0-1.2-0.5-1.2-1.1s0.5-1.1,1.1-1.1h0.1
		c0.6,0,1.1,0.5,1.1,1.1S504.5,204.1,503.9,204.1z M498.8,204.1L498.8,204.1c-0.7,0-1.2-0.5-1.2-1.1s0.5-1.1,1.1-1.1h0.1
		c0.6,0,1.1,0.5,1.1,1.1S499.4,204.1,498.8,204.1z M493.7,204.1L493.7,204.1c-0.7,0-1.2-0.5-1.2-1.1s0.5-1.1,1.1-1.1h0.1
		c0.6,0,1.1,0.5,1.1,1.1S494.3,204.1,493.7,204.1z M488.6,204.1L488.6,204.1c-0.7,0-1.2-0.5-1.2-1.1s0.5-1.1,1.1-1.1h0.1
		c0.6,0,1.1,0.5,1.1,1.1S489.2,204.1,488.6,204.1z M483.6,204.1L483.6,204.1c-0.7,0-1.2-0.5-1.2-1.1s0.5-1.1,1.1-1.1h0.1
		c0.6,0,1.1,0.5,1.1,1.1S484.2,204.1,483.6,204.1z"/>
</g>
<g>
	<g>
		<path class="st2" d="M498.3,215.4V208h1.1v7.4H498.3z"/>
	</g>
	<g>
		<path class="st2" d="M504.7,215.4v-3c0-0.4,0-1.7-1.4-1.7c-0.9,0-1.5,0.6-1.5,1.7v3h-1v-5.5h1v0.6l0,0c0.6-0.7,1.4-0.7,1.6-0.7
			c0.9,0,1.6,0.4,2,1c0.2,0.4,0.3,0.8,0.4,1.4v3.3h-1.1V215.4z"/>
	</g>
	<g>
		<path class="st2" d="M507.1,215.4v-4.6h-0.5v-0.9h0.5v-0.3c0-0.6,0.2-1,0.7-1.3c0.4-0.3,0.7-0.3,1.4-0.3v1c-0.7,0-1,0.2-1,0.6v0.3
			h1v0.9h-1v4.6H507.1z"/>
	</g>
	<g>
		<path class="st2" d="M509.8,215.4v-5.5h1v0.5l0,0c0.4-0.6,1.2-0.6,1.4-0.7v1.1c-0.2,0-0.5,0.1-0.8,0.2c-0.3,0.2-0.6,0.6-0.6,1.4v3
			H509.8z"/>
	</g>
	<g>
		<path class="st2" d="M517.6,215.4v-0.9l0,0c-0.4,0.7-1.1,1-1.9,1c-1.9,0-2.9-1.4-2.9-2.9c0-1.4,1-2.9,2.9-2.9
			c0.8,0,1.5,0.3,1.9,0.9l0,0v-0.8h1v5.5L517.6,215.4L517.6,215.4z M515.7,210.7c-1.3,0-1.9,1.1-1.9,2c0,1,0.8,2,1.9,2
			s1.9-0.9,1.9-2C517.6,211.5,516.7,210.7,515.7,210.7z"/>
	</g>
	<g>
		<path class="st2" d="M528.3,209.9c-0.2-0.2-0.9-1-2.1-1c-1.5,0-2.8,1.3-2.8,2.8c0,1.6,1.3,2.9,2.7,2.9c0.8,0,1.5-0.4,2-1h1.3
			c-0.8,1.5-2.2,2-3.4,2c-2.1,0-3.8-1.8-3.8-3.9c0-2.2,1.7-3.8,3.8-3.8c0.6,0,1.5,0.1,2.3,0.7c0.7,0.5,1,1,1.1,1.3H528.3z"/>
	</g>
</g>
<g>
	<path class="st1" d="M803.7,153.7h-82.6c-3.4,0-6.2-2.8-6.2-6.2v-8.2c0-3.4,2.8-6.2,6.2-6.2h82.6c3.4,0,6.2,2.8,6.2,6.2v8.2
		C809.9,150.9,807.1,153.7,803.7,153.7z"/>
</g>
<g>
	<g>
		<path class="st2" d="M736.7,144.7c0,0.3,0.1,1.6,1.5,1.6c0.8,0,1.5-0.6,1.5-1.5c0-1-0.8-1.2-1.5-1.5c-1.2-0.5-1.5-0.6-1.9-1
			c-0.4-0.4-0.6-1.1-0.6-1.7c0-1.1,0.8-2.5,2.5-2.5c1.5,0,2.6,1,2.6,2.5h-1.3c0-1-0.7-1.3-1.3-1.3c-0.8,0-1.2,0.7-1.2,1.2
			c0,0.9,0.8,1.1,1.2,1.2c1.1,0.4,2.8,0.8,2.8,3c0,1.6-1.1,2.7-2.8,2.7c-1.2,0-2.8-0.8-2.8-2.8h1.3V144.7z"/>
	</g>
	<g>
		<path class="st2" d="M743,144.5c0.3,1.3,1.4,1.8,2.2,1.8c0.9,0,1.6-0.6,1.9-1.1h1.3c-0.6,1.7-2.2,2.3-3.3,2.3
			c-1.9,0-3.4-1.6-3.4-3.6s1.6-3.6,3.5-3.6c1.8,0,3.4,1.5,3.4,3.5c0,0.2,0,0.6,0,0.6H743V144.5z M747.4,143.6c-0.1-1-1-2-2.2-2
			s-2.1,1-2.2,2H747.4z"/>
	</g>
	<g>
		<path class="st2" d="M750,147.4v-6.8h1.2v0.6l0,0c0.5-0.8,1.4-0.8,1.7-0.8v1.3c-0.2,0-0.6,0.1-0.9,0.2c-0.4,0.2-0.7,0.7-0.7,1.7
			v3.7H750V147.4z"/>
	</g>
	<g>
		<path class="st2" d="M757.3,147.4h-0.9l-2.7-6.8h1.4l1.8,4.8l0,0l1.7-4.8h1.4L757.3,147.4z"/>
	</g>
	<g>
		<path class="st2" d="M762.2,139.8h-1.3v-1.5h1.3V139.8z M762.2,147.4h-1.3v-6.8h1.3V147.4z"/>
	</g>
	<g>
		<path class="st2" d="M768.9,142.9c-0.2-0.4-0.7-1.3-1.9-1.3c-1.6,0-2.2,1.4-2.2,2.4c0,1.2,0.7,2.4,2.2,2.4c1,0,1.6-0.6,1.9-1.2
			h1.4c-0.5,1.5-1.8,2.4-3.3,2.4c-2.2,0-3.5-1.8-3.5-3.6s1.3-3.6,3.5-3.6c1.9,0,3.1,1.4,3.3,2.4h-1.4V142.9z"/>
	</g>
	<g>
		<path class="st2" d="M772.4,144.5c0.3,1.3,1.4,1.8,2.2,1.8c0.9,0,1.6-0.6,1.9-1.1h1.3c-0.6,1.7-2.2,2.3-3.3,2.3
			c-1.9,0-3.4-1.6-3.4-3.6s1.6-3.6,3.5-3.6c1.8,0,3.4,1.5,3.4,3.5c0,0.2,0,0.6,0,0.6h-5.6V144.5z M776.8,143.6c-0.1-1-1-2-2.2-2
			s-2.1,1-2.2,2H776.8z"/>
	</g>
	<g>
		<path class="st2" d="M782.8,138.3h2.3c2.6,0,2.8,1.9,2.8,2.5c0,1-0.5,1.4-0.8,1.7c0.4,0.2,1.3,0.8,1.3,2.2c0,0.9-0.5,2.6-3,2.6
			h-2.7v-9H782.8z M784.1,142.1h1.1c1.2,0,1.5-0.7,1.5-1.3c0-1.3-1.2-1.3-1.5-1.3h-1L784.1,142.1L784.1,142.1z M784.1,146.2h1.4
			c1.3,0,1.6-1,1.6-1.4c0-0.3-0.1-0.6-0.3-0.9c-0.4-0.5-1-0.6-1.5-0.6H784L784.1,146.2L784.1,146.2z"/>
	</g>
</g>
<g>
	<path class="st5" d="M415.3,134.5c0,0-0.1,0-0.2,0c-0.6-0.1-1-0.6-0.9-1.2v-0.1c0.1-0.6,0.7-1,1.3-0.9c0.6,0.1,1,0.6,0.9,1.3l0,0
		C416.4,134.1,415.9,134.5,415.3,134.5z M416.9,129.7c-0.2,0-0.3,0-0.5-0.1c-0.6-0.3-0.8-0.9-0.5-1.5s0.9-0.8,1.5-0.6
		c0.6,0.3,0.8,0.9,0.5,1.5v0.1C417.7,129.5,417.3,129.7,416.9,129.7z M419.5,125.4c-0.2,0-0.5-0.1-0.7-0.2c-0.5-0.4-0.6-1.1-0.2-1.6
		s1.1-0.6,1.6-0.2c0.5,0.4,0.6,1,0.2,1.5v0.1C420.1,125.3,419.8,125.4,419.5,125.4z M422.8,121.7c-0.3,0-0.6-0.1-0.8-0.3
		c-0.4-0.4-0.4-1.1,0-1.6l0,0c0.4-0.4,1.1-0.4,1.6,0c0.4,0.4,0.4,1.1,0,1.6l0,0C423.4,121.6,423.1,121.7,422.8,121.7z M426.7,118.4
		c-0.3,0-0.7-0.2-0.9-0.5c-0.4-0.5-0.3-1.2,0.2-1.6c0.5-0.4,1.2-0.3,1.6,0.2s0.3,1.2-0.2,1.5h-0.1
		C427.1,118.3,426.9,118.4,426.7,118.4z M430.9,115.6c-0.4,0-0.8-0.2-1-0.6c-0.3-0.5-0.1-1.2,0.4-1.5s1.2-0.2,1.5,0.4
		c0.3,0.5,0.2,1.2-0.4,1.5h-0.1C431.3,115.6,431.1,115.6,430.9,115.6z M435.4,113.3c-0.4,0-0.8-0.2-1-0.6c-0.3-0.6,0-1.2,0.5-1.5
		c0.6-0.3,1.2,0,1.5,0.5c0.3,0.6,0.1,1.2-0.5,1.5h-0.1C435.7,113.2,435.5,113.3,435.4,113.3z M440.4,111.2l-0.4-1l-0.4-1h0.1
		c0.6-0.2,1.2,0.1,1.4,0.6S441,110.9,440.4,111.2l-0.4-1L440.4,111.2z M444.7,109.5c-0.5,0-0.9-0.3-1.1-0.8
		c-0.2-0.6,0.1-1.2,0.7-1.4h0.1c0.6-0.2,1.2,0.1,1.4,0.7c0.2,0.6-0.1,1.2-0.7,1.4l0,0C445,109.5,444.8,109.5,444.7,109.5z
		 M449.6,108.1c-0.5,0-0.9-0.3-1.1-0.8c-0.2-0.6,0.2-1.2,0.8-1.4h0.1c0.6-0.2,1.2,0.2,1.4,0.8c0.2,0.6-0.2,1.2-0.8,1.4h-0.1
		C449.8,108.1,449.7,108.1,449.6,108.1z M454.5,106.9c-0.5,0-1-0.3-1.1-0.9c-0.1-0.6,0.2-1.2,0.8-1.3h0.1c0.6-0.1,1.2,0.2,1.3,0.8
		s-0.2,1.2-0.8,1.3h-0.1C454.6,106.8,454.5,106.9,454.5,106.9z M459.4,105.8c-0.5,0-1-0.4-1.1-0.9c-0.1-0.6,0.3-1.2,0.9-1.3
		s1.2,0.3,1.3,0.9c0.1,0.6-0.3,1.2-0.9,1.3h-0.1C459.5,105.8,459.5,105.8,459.4,105.8z M464.4,105c-0.5,0-1-0.4-1.1-0.9
		c-0.1-0.6,0.3-1.2,0.9-1.3h0.1c0.6-0.1,1.2,0.3,1.3,0.9c0.1,0.6-0.3,1.2-0.9,1.3l-0.2-1.1l0.1,1.1C464.5,105,464.4,105,464.4,105z
		 M469.4,104.3c-0.5,0-1-0.4-1.1-1s0.3-1.2,1-1.2h0.1c0.6-0.1,1.2,0.4,1.2,1s-0.4,1.2-1,1.2l-0.1-1.1l0.1,1.1
		C469.5,104.3,469.4,104.3,469.4,104.3z M474.4,103.7c-0.6,0-1.1-0.4-1.1-1c-0.1-0.6,0.4-1.2,1-1.2c0.6-0.1,1.2,0.4,1.2,1
		c0.1,0.6-0.4,1.2-1,1.2H474.4C474.5,103.7,474.4,103.7,474.4,103.7z M479.4,103.3c-0.6,0-1.1-0.4-1.1-1s0.4-1.1,1-1.2
		c0.6,0,1.2,0.4,1.2,1s-0.4,1.1-1,1.2H479.4C479.5,103.3,479.5,103.3,479.4,103.3z M484.5,103c-0.6,0-1.1-0.5-1.1-1
		c0-0.6,0.4-1.1,1-1.2h0.1c0.6,0,1.1,0.4,1.2,1.1c0,0.6-0.4,1.1-1.1,1.2L484.5,103L484.5,103z M489.5,102.8c-0.6,0-1.1-0.5-1.1-1.1
		s0.5-1.1,1.1-1.1s1.2,0.5,1.2,1.1S490.2,102.8,489.5,102.8L489.5,102.8C489.6,102.8,489.6,102.8,489.5,102.8z M494.6,102.7
		c-0.6,0-1.1-0.5-1.1-1.1s0.5-1.1,1.1-1.1s1.1,0.5,1.2,1.1C495.7,102.2,495.3,102.7,494.6,102.7L494.6,102.7L494.6,102.7z
		 M499.7,102.7c-0.6,0-1.1-0.5-1.1-1.1s0.5-1.1,1.1-1.1h0.1c0.6,0,1.1,0.5,1.1,1.1S500.3,102.7,499.7,102.7l0.1-1.1L499.7,102.7
		L499.7,102.7z M504.7,102.6c-0.6,0-1.1-0.5-1.1-1.1s0.4-1.1,1.1-1.2h0.1c0.6,0,1.1,0.5,1.1,1.1C505.9,102,505.4,102.5,504.7,102.6
		L504.7,102.6L504.7,102.6z M509.8,102.3c-0.6,0-1.1-0.4-1.1-1s0.4-1.1,1-1.2h0.1c0.6,0,1.1,0.4,1.2,1c0,0.6-0.4,1.1-1,1.2l-0.1-1.1
		L509.8,102.3L509.8,102.3z M514.8,101.9c-0.6,0-1-0.4-1.1-1c-0.1-0.6,0.4-1.2,1-1.2h0.1c0.6-0.1,1.2,0.4,1.2,1
		c0.1,0.6-0.4,1.2-1,1.2l0,0C514.9,101.9,514.8,101.9,514.8,101.9z M519.8,101.4c-0.6,0-1-0.4-1.1-1c-0.1-0.6,0.4-1.2,1-1.2
		c0.6-0.1,1.2,0.4,1.3,1s-0.3,1.2-0.9,1.2H520C519.9,101.4,519.9,101.4,519.8,101.4z M524.8,100.6c-0.5,0-1-0.4-1.1-0.9
		c-0.1-0.6,0.3-1.2,0.9-1.3h0.1c0.6-0.1,1.2,0.3,1.3,0.9c0.1,0.6-0.3,1.2-0.9,1.3l0,0C524.9,100.6,524.9,100.6,524.8,100.6z
		 M529.8,99.7c-0.5,0-1-0.4-1.1-0.9c-0.1-0.6,0.3-1.2,0.9-1.3h0.1c0.6-0.1,1.2,0.3,1.3,0.9c0.1,0.6-0.3,1.2-0.9,1.3l-0.2-1.1
		l0.2,1.1C529.9,99.7,529.9,99.7,529.8,99.7z M534.7,98.6c-0.5,0-0.9-0.3-1.1-0.8c-0.2-0.6,0.2-1.2,0.8-1.4c0.6-0.2,1.2,0.2,1.4,0.8
		c0.2,0.6-0.2,1.2-0.8,1.3h-0.1C534.9,98.6,534.8,98.6,534.7,98.6z M539.6,97.2c-0.5,0-0.9-0.3-1.1-0.8c-0.2-0.6,0.2-1.2,0.7-1.4
		c0.6-0.2,1.2,0.1,1.4,0.7c0.2,0.6-0.1,1.2-0.7,1.4h-0.1C539.8,97.2,539.7,97.2,539.6,97.2z M544.4,95.6c-0.5,0-0.9-0.3-1-0.7
		c-0.2-0.6,0.1-1.2,0.7-1.4h0.1c0.6-0.2,1.2,0.1,1.4,0.7c0.2,0.6-0.1,1.2-0.7,1.4l-0.4-1l0.3,1.1C544.6,95.6,544.5,95.6,544.4,95.6z
		 M549.1,93.8c-0.4,0-0.8-0.3-1-0.7c-0.2-0.6,0-1.2,0.6-1.5c0.6-0.2,1.2,0,1.5,0.6c0.2,0.6,0,1.2-0.6,1.4h-0.1
		C549.3,93.7,549.2,93.8,549.1,93.8z M553.6,91.7c-0.4,0-0.8-0.2-1-0.6c-0.3-0.5-0.1-1.2,0.5-1.5h0.1c0.6-0.3,1.2,0,1.5,0.5
		c0.3,0.6,0,1.2-0.5,1.5l-0.5-1l0.5,1C554,91.6,553.8,91.7,553.6,91.7z M558.1,89.3c-0.4,0-0.7-0.2-1-0.5c-0.3-0.5-0.1-1.2,0.4-1.5
		h0.1c0.5-0.3,1.2-0.1,1.5,0.4c0.3,0.5,0.1,1.2-0.4,1.5l-0.6-1l0.5,1C558.5,89.2,558.3,89.3,558.1,89.3z M562.4,86.6
		c-0.4,0-0.7-0.2-0.9-0.5c-0.3-0.5-0.2-1.2,0.3-1.5l0,0c0.5-0.3,1.2-0.2,1.5,0.3s0.2,1.2-0.3,1.5l0,0
		C562.8,86.5,562.6,86.6,562.4,86.6z M566.4,83.6c-0.3,0-0.6-0.1-0.9-0.4c-0.4-0.5-0.3-1.2,0.2-1.6h0.1c0.5-0.4,1.2-0.3,1.6,0.2
		s0.3,1.2-0.2,1.6l0,0C566.9,83.5,566.7,83.6,566.4,83.6z M570.3,80.3c-0.3,0-0.6-0.1-0.8-0.4c-0.4-0.5-0.4-1.2,0.1-1.6l0,0
		c0.5-0.4,1.2-0.4,1.6,0.1s0.4,1.2-0.1,1.6l0,0C570.8,80.2,570.6,80.3,570.3,80.3z M573.9,76.8c-0.3,0-0.5-0.1-0.8-0.3
		c-0.4-0.4-0.5-1.1,0-1.6c0.4-0.4,1.1-0.5,1.6-0.1c0.4,0.4,0.5,1.1,0.1,1.5l0,0C574.5,76.6,574.2,76.8,573.9,76.8z M577.1,72.9
		c-0.2,0-0.5-0.1-0.7-0.2c-0.5-0.4-0.6-1.1-0.2-1.6c0.4-0.5,1.1-0.6,1.6-0.2s0.6,1.1,0.2,1.5c0,0,0,0,0,0.1
		C577.8,72.8,577.5,72.9,577.1,72.9z M580.1,68.8c-0.2,0-0.4-0.1-0.6-0.2c-0.5-0.3-0.6-1-0.3-1.5s1-0.7,1.6-0.3
		c0.5,0.3,0.7,1,0.3,1.5v0.1C580.8,68.6,580.5,68.8,580.1,68.8z M582.7,64.5c-0.2,0-0.4,0-0.5-0.1c-0.5-0.3-0.7-1-0.4-1.5
		c0.3-0.5,1-0.8,1.5-0.5s0.8,0.9,0.5,1.5V64C583.5,64.2,583.1,64.5,582.7,64.5z M584.9,59.9c-0.1,0-0.3,0-0.4-0.1
		c-0.6-0.2-0.8-0.9-0.6-1.5v-0.1c0.2-0.6,0.9-0.8,1.5-0.6c0.6,0.2,0.8,0.9,0.6,1.5l-1-0.4l1,0.5C585.7,59.6,585.3,59.9,584.9,59.9z
		 M586.6,55.1c-0.1,0-0.2,0-0.3-0.1c-0.6-0.2-0.9-0.8-0.7-1.4c0.2-0.6,0.8-0.9,1.4-0.7c0.6,0.2,0.9,0.8,0.7,1.4v0.1
		C587.5,54.8,587.1,55.1,586.6,55.1z M587.8,50.2c-0.1,0-0.1,0-0.2,0c-0.6-0.1-1-0.6-0.9-1.3c0.1-0.6,0.6-1.1,1.2-1
		c0.6,0.1,1,0.6,1,1.2v0.1C588.9,49.8,588.4,50.2,587.8,50.2z"/>
</g>
<g>
	<path class="st5" d="M716.8,154.8c-0.6,0-1.1-0.5-1.1-1.1s0.5-1.1,1.1-1.1s1.2,0.5,1.2,1.1C717.9,154.3,717.5,154.8,716.8,154.8
		L716.8,154.8z M807.6,154.8c-0.6,0-1.1-0.5-1.1-1.1s0.5-1.1,1.1-1.1h0.1c0.6,0,1.1,0.5,1.1,1.1S808.2,154.8,807.6,154.8z
		 M802.6,154.8c-0.6,0-1.1-0.5-1.1-1.1s0.5-1.1,1.1-1.1h0.1c0.6,0,1.1,0.5,1.1,1.1S803.2,154.8,802.6,154.8z M797.5,154.8
		c-0.6,0-1.1-0.5-1.1-1.1s0.5-1.1,1.1-1.1h0.1c0.6,0,1.1,0.5,1.1,1.1S798.2,154.8,797.5,154.8z M792.5,154.8c-0.6,0-1.1-0.5-1.1-1.1
		s0.5-1.1,1.1-1.1h0.1c0.6,0,1.1,0.5,1.1,1.1S793.1,154.8,792.5,154.8z M787.5,154.8c-0.6,0-1.1-0.5-1.1-1.1s0.5-1.1,1.1-1.1h0.1
		c0.6,0,1.1,0.5,1.1,1.1S788.1,154.8,787.5,154.8z M782.4,154.8c-0.6,0-1.1-0.5-1.1-1.1s0.5-1.1,1.1-1.1h0.1c0.6,0,1.1,0.5,1.1,1.1
		S783,154.8,782.4,154.8z M777.4,154.8c-0.6,0-1.1-0.5-1.1-1.1s0.5-1.1,1.1-1.1h0.1c0.6,0,1.1,0.5,1.1,1.1S778,154.8,777.4,154.8z
		 M772.3,154.8c-0.6,0-1.1-0.5-1.1-1.1s0.5-1.1,1.1-1.1h0.1c0.6,0,1.1,0.5,1.1,1.1S772.9,154.8,772.3,154.8z M767.3,154.8
		c-0.6,0-1.1-0.5-1.1-1.1s0.5-1.1,1.1-1.1h0.1c0.6,0,1.1,0.5,1.1,1.1S767.9,154.8,767.3,154.8z M762.2,154.8L762.2,154.8
		c-0.7,0-1.2-0.5-1.2-1.1s0.5-1.1,1.1-1.1h0.1c0.6,0,1.1,0.5,1.1,1.1S762.9,154.8,762.2,154.8z M757.2,154.8c-0.6,0-1.1-0.5-1.1-1.1
		s0.5-1.1,1.1-1.1h0.1c0.6,0,1.1,0.5,1.1,1.1S757.8,154.8,757.2,154.8z M752.2,154.8c-0.6,0-1.1-0.5-1.1-1.1s0.5-1.1,1.1-1.1h0.1
		c0.6,0,1.1,0.5,1.1,1.1S752.8,154.8,752.2,154.8z M747.1,154.8c-0.6,0-1.1-0.5-1.1-1.1s0.5-1.1,1.1-1.1h0.1c0.6,0,1.1,0.5,1.1,1.1
		S747.7,154.8,747.1,154.8z M742.1,154.8c-0.6,0-1.1-0.5-1.1-1.1s0.5-1.1,1.1-1.1h0.1c0.6,0,1.1,0.5,1.1,1.1
		S742.7,154.8,742.1,154.8z M737,154.8c-0.6,0-1.1-0.5-1.1-1.1s0.5-1.1,1.1-1.1h0.1c0.6,0,1.1,0.5,1.1,1.1S737.6,154.8,737,154.8z
		 M732,154.8c-0.6,0-1.1-0.5-1.1-1.1s0.5-1.1,1.1-1.1h0.1c0.6,0,1.1,0.5,1.1,1.1S732.6,154.8,732,154.8z M726.9,154.8L726.9,154.8
		c-0.7,0-1.2-0.5-1.2-1.1s0.5-1.1,1.1-1.1h0.1c0.6,0,1.1,0.5,1.1,1.1S727.6,154.8,726.9,154.8z M721.9,154.8c-0.6,0-1.1-0.5-1.1-1.1
		s0.5-1.1,1.1-1.1h0.1c0.6,0,1.1,0.5,1.1,1.1S722.5,154.8,721.9,154.8z M809.8,151.3c-0.6,0-1.1-0.5-1.1-1.1v-0.1
		c0-0.6,0.5-1.1,1.1-1.1s1.1,0.5,1.1,1.1C810.9,150.8,810.4,151.3,809.8,151.3z M715.3,150.7c-0.6,0-1.1-0.5-1.1-1.1
		s0.5-1.1,1.1-1.1s1.1,0.5,1.1,1.1v0.1C716.4,150.2,715.9,150.7,715.3,150.7z M809.8,146.3c-0.6,0-1.1-0.5-1.1-1.1v-0.1
		c0-0.6,0.5-1.1,1.1-1.1s1.1,0.5,1.1,1.1C810.9,145.7,810.4,146.3,809.8,146.3z M715.3,145.6c-0.6,0-1.1-0.5-1.1-1.1
		s0.5-1.1,1.1-1.1s1.1,0.5,1.1,1.1v0.1C716.4,145.1,715.9,145.6,715.3,145.6z M809.8,141.2c-0.6,0-1.1-0.5-1.1-1.1V140
		c0-0.6,0.5-1.1,1.1-1.1s1.1,0.5,1.1,1.1S810.4,141.2,809.8,141.2z M715.3,140.6c-0.6,0-1.1-0.5-1.1-1.1s0.5-1.1,1.1-1.1
		s1.1,0.5,1.1,1.1v0.1C716.4,140.1,715.9,140.6,715.3,140.6z M809.8,136.2c-0.6,0-1.1-0.5-1.1-1.1V135c0-0.6,0.5-1.1,1.1-1.1
		s1.1,0.5,1.1,1.1S810.4,136.2,809.8,136.2z M715.4,135.5c-0.1,0-0.3,0-0.4-0.1c-0.6-0.2-0.9-0.8-0.6-1.4v-0.1
		c0.2-0.6,0.9-0.8,1.5-0.6c0.6,0.2,0.8,0.9,0.6,1.5C716.2,135.3,715.8,135.5,715.4,135.5z M805.8,134.6L805.8,134.6
		c-0.7,0-1.2-0.5-1.2-1.1s0.5-1.1,1.1-1.1s1.1,0.5,1.1,1.1S806.4,134.6,805.8,134.6z M800.7,134.6L800.7,134.6
		c-0.7,0-1.2-0.5-1.2-1.1s0.5-1.1,1.1-1.1s1.1,0.5,1.1,1.1S801.3,134.6,800.7,134.6z M795.7,134.6L795.7,134.6
		c-0.7,0-1.2-0.5-1.2-1.1s0.5-1.1,1.1-1.1s1.1,0.5,1.1,1.1S796.3,134.6,795.7,134.6z M790.6,134.6L790.6,134.6
		c-0.7,0-1.2-0.5-1.2-1.1s0.5-1.1,1.1-1.1s1.1,0.5,1.1,1.1S791.3,134.6,790.6,134.6z M785.6,134.6L785.6,134.6
		c-0.7,0-1.2-0.5-1.2-1.1s0.5-1.1,1.1-1.1h0.1c0.6,0,1.1,0.5,1.1,1.1S786.2,134.6,785.6,134.6z M780.6,134.6L780.6,134.6
		c-0.7,0-1.2-0.5-1.2-1.1s0.5-1.1,1.1-1.1s1.1,0.5,1.1,1.1S781.2,134.6,780.6,134.6z M775.5,134.6L775.5,134.6
		c-0.7,0-1.2-0.5-1.2-1.1s0.5-1.1,1.1-1.1s1.1,0.5,1.1,1.1S776.1,134.6,775.5,134.6z M770.5,134.6L770.5,134.6
		c-0.7,0-1.2-0.5-1.2-1.1s0.5-1.1,1.1-1.1s1.1,0.5,1.1,1.1S771.1,134.6,770.5,134.6z M765.4,134.6L765.4,134.6
		c-0.7,0-1.2-0.5-1.2-1.1s0.5-1.1,1.1-1.1s1.1,0.5,1.1,1.1S766,134.6,765.4,134.6z M760.4,134.6L760.4,134.6c-0.7,0-1.2-0.5-1.2-1.1
		s0.5-1.1,1.1-1.1s1.1,0.5,1.1,1.1S761,134.6,760.4,134.6z M755.3,134.6L755.3,134.6c-0.7,0-1.2-0.5-1.2-1.1s0.5-1.1,1.1-1.1
		s1.1,0.5,1.1,1.1S756,134.6,755.3,134.6z M750.3,134.6L750.3,134.6c-0.7,0-1.2-0.5-1.2-1.1s0.5-1.1,1.1-1.1s1.1,0.5,1.1,1.1
		S750.9,134.6,750.3,134.6z M745.3,134.6L745.3,134.6c-0.7,0-1.2-0.5-1.2-1.1s0.5-1.1,1.1-1.1s1.1,0.5,1.1,1.1
		S745.9,134.6,745.3,134.6z M740.2,134.6L740.2,134.6c-0.7,0-1.2-0.5-1.2-1.1s0.5-1.1,1.1-1.1c0.6,0,1.1,0.5,1.1,1.1
		S740.8,134.6,740.2,134.6z M735.2,134.6L735.2,134.6c-0.7,0-1.2-0.5-1.2-1.1s0.5-1.1,1.1-1.1c0.6,0,1.1,0.5,1.1,1.1
		S735.8,134.6,735.2,134.6z M730.1,134.6L730.1,134.6c-0.7,0-1.2-0.5-1.2-1.1s0.5-1.1,1.1-1.1h0.1c0.6,0,1.1,0.5,1.1,1.1
		S730.7,134.6,730.1,134.6z M725.1,134.6L725.1,134.6c-0.7,0-1.2-0.5-1.2-1.1s0.5-1.1,1.1-1.1s1.1,0.5,1.1,1.1
		S725.7,134.6,725.1,134.6z M720,134.6L720,134.6c-0.7,0-1.2-0.5-1.2-1.1s0.5-1.1,1.1-1.1c0.6,0,1.1,0.5,1.1,1.1
		S720.7,134.6,720,134.6z"/>
</g>
<g>
	<path class="st5" d="M760.3,134.6c-0.6,0-1-0.4-1.1-1s0.4-1.2,1-1.3s1.2,0.3,1.2,0.9l-1.1,0.2l1.1-0.1v0.1c0.1,0.6-0.4,1.2-1,1.2
		C760.4,134.6,760.4,134.6,760.3,134.6z M758.8,129.7c-0.4,0-0.8-0.2-1-0.7c-0.3-0.6,0-1.2,0.5-1.5c0.6-0.3,1.2,0,1.5,0.5v0.1
		c0.3,0.6,0,1.2-0.6,1.5C759.1,129.7,759,129.7,758.8,129.7z M756.2,125.4c-0.3,0-0.6-0.1-0.9-0.4c0,0,0,0,0-0.1
		c-0.4-0.5-0.3-1.2,0.2-1.6c0.5-0.4,1.2-0.3,1.6,0.2l0,0c0.4,0.5,0.3,1.2-0.2,1.6C756.6,125.3,756.4,125.4,756.2,125.4z
		 M752.8,121.7c-0.3,0-0.6-0.1-0.8-0.3c-0.4-0.4-0.5-1.1-0.1-1.6c0.4-0.4,1.1-0.5,1.6-0.1l0.1,0.1c0.4,0.4,0.4,1.1,0,1.6
		C753.4,121.6,753.1,121.7,752.8,121.7z M749,118.4c-0.2,0-0.4-0.1-0.6-0.2c0,0-0.1,0-0.1-0.1c-0.5-0.4-0.6-1.1-0.2-1.6
		c0.4-0.5,1.1-0.6,1.6-0.2l-0.7,0.9l0.7-0.9c0.5,0.4,0.6,1.1,0.3,1.6C749.7,118.2,749.3,118.4,749,118.4z M744.8,115.6
		c-0.2,0-0.4,0-0.5-0.1h-0.1c-0.5-0.3-0.7-1-0.4-1.5s1-0.7,1.5-0.4l-0.6,1l0.6-0.9c0.5,0.3,0.7,1,0.4,1.5
		C745.5,115.4,745.1,115.6,744.8,115.6z M740.3,113.3c-0.2,0-0.3,0-0.5-0.1h-0.1c-0.6-0.3-0.8-0.9-0.5-1.5c0.3-0.6,0.9-0.8,1.5-0.5
		l-0.5,1l0.5-1c0.6,0.3,0.8,0.9,0.5,1.5C741.1,113,740.7,113.3,740.3,113.3z M735.7,111.2c-0.1,0-0.3,0-0.4-0.1
		c-0.6-0.2-0.9-0.9-0.6-1.5c0.2-0.6,0.8-0.9,1.4-0.6h0.1c0.6,0.2,0.8,0.9,0.6,1.4C736.5,111,736.1,111.2,735.7,111.2z M730.9,109.5
		c-0.1,0-0.2,0-0.4-0.1c-0.6-0.2-0.9-0.8-0.7-1.4c0.2-0.6,0.8-0.9,1.4-0.7h0.1c0.6,0.2,0.9,0.8,0.7,1.4
		C731.8,109.2,731.4,109.5,730.9,109.5z M726.1,108.1c-0.1,0-0.2,0-0.3,0h-0.1c-0.6-0.2-0.9-0.8-0.8-1.4c0.2-0.6,0.8-0.9,1.4-0.8
		h0.1c0.6,0.2,0.9,0.8,0.8,1.4C727,107.8,726.6,108.1,726.1,108.1z M721.2,106.9c-0.1,0-0.2,0-0.2,0h-0.1c-0.6-0.1-1-0.7-0.8-1.3
		c0.1-0.6,0.7-1,1.3-0.8l0,0c0.6,0.1,1,0.7,0.8,1.3C722.2,106.5,721.7,106.9,721.2,106.9z M716.3,105.8c-0.1,0-0.1,0-0.2,0H716
		c-0.6-0.1-1-0.7-0.9-1.3s0.7-1,1.3-0.9l0,0c0.6,0.1,1,0.7,0.9,1.3C717.2,105.5,716.8,105.8,716.3,105.8z M711.3,105
		c-0.1,0-0.1,0-0.2,0c-0.6-0.1-1-0.7-0.9-1.3c0.1-0.6,0.6-1,1.2-0.9h0.1c0.6,0.1,1,0.7,0.9,1.3C712.3,104.6,711.8,105,711.3,105z
		 M706.3,104.3h-0.1c-0.6-0.1-1.1-0.6-1-1.2c0.1-0.6,0.6-1.1,1.2-1h0.1c0.6,0.1,1,0.6,1,1.2C707.3,103.9,706.8,104.3,706.3,104.3z
		 M701.2,103.7L701.2,103.7H701c-0.6-0.1-1.1-0.6-1-1.2c0.1-0.6,0.6-1.1,1.2-1l0,0c0.6,0.1,1.1,0.6,1,1.2
		C702.3,103.3,701.8,103.7,701.2,103.7z M696.2,103.3L696.2,103.3c-0.7,0-1.2-0.6-1.1-1.2c0-0.6,0.5-1.1,1.2-1h0.1
		c0.6,0,1.1,0.6,1,1.2C697.3,102.9,696.8,103.3,696.2,103.3z M691.2,103C691.1,103,691.1,103,691.2,103c-0.7,0-1.2-0.6-1.1-1.2
		c0-0.6,0.5-1.1,1.1-1.1h0.1c0.6,0,1.1,0.6,1,1.2C692.2,102.6,691.7,103,691.2,103z M686.1,102.8L686.1,102.8
		c-0.6,0-1.2-0.5-1.1-1.1c0-0.6,0.5-1.1,1.1-1.1h0.1c0.6,0,1.1,0.5,1.1,1.1C687.2,102.3,686.7,102.8,686.1,102.8z M681.1,102.7
		L681.1,102.7c-0.6,0-1.1-0.5-1.1-1.1s0.5-1.1,1.1-1.1l0,0h0.1c0.6,0,1.1,0.5,1.1,1.1C682.2,102.2,681.7,102.7,681.1,102.7z
		 M676,102.7L676,102.7c-0.6,0-1.1-0.5-1.1-1.1s0.5-1.1,1.1-1.1h0.1c0.6,0,1.1,0.5,1.1,1.1C677.1,102.2,676.6,102.7,676,102.7z
		 M671,102.6C670.9,102.6,670.9,102.6,671,102.6c-0.7,0-1.2-0.5-1.1-1.2c0-0.6,0.5-1.1,1.1-1.1h0.1c0.6,0,1.1,0.5,1.1,1.2
		C672,102.1,671.5,102.6,671,102.6z M665.9,102.3C665.9,102.3,665.8,102.3,665.9,102.3c-0.7,0-1.2-0.6-1.1-1.2c0-0.6,0.5-1.1,1.1-1
		h0.1c0.6,0,1.1,0.6,1,1.2C667,101.9,666.5,102.3,665.9,102.3z M660.9,101.9h-0.1c-0.6-0.1-1.1-0.6-1-1.2c0.1-0.6,0.6-1.1,1.2-1h0.1
		c0.6,0.1,1.1,0.6,1,1.2C661.9,101.5,661.4,101.9,660.9,101.9z M655.8,101.4h-0.1h-0.1c-0.6-0.1-1-0.6-1-1.2c0.1-0.6,0.6-1,1.2-1
		l0,0c0.6,0.1,1,0.6,1,1.2C656.9,101,656.4,101.4,655.8,101.4z M650.8,100.6c-0.1,0-0.1,0-0.2,0c-0.6-0.1-1-0.7-0.9-1.3
		c0.1-0.6,0.7-1,1.3-0.9h0.1c0.6,0.1,1,0.7,0.9,1.3C651.8,100.3,651.4,100.6,650.8,100.6z M645.9,99.7c-0.1,0-0.1,0-0.2,0h-0.1
		c-0.6-0.1-1-0.7-0.9-1.3c0.1-0.6,0.7-1,1.3-0.9l-0.2,1.1l0.3-1.1c0.6,0.1,1,0.7,0.9,1.3C646.9,99.4,646.4,99.7,645.9,99.7z
		 M641,98.6c-0.1,0-0.2,0-0.3,0c-0.6-0.2-1-0.8-0.8-1.4s0.7-1,1.3-0.8h0.1c0.6,0.2,1,0.8,0.8,1.4C641.9,98.2,641.5,98.6,641,98.6z
		 M636.1,97.2c-0.1,0-0.2,0-0.3-0.1c-0.6-0.2-0.9-0.8-0.8-1.4c0.2-0.6,0.8-0.9,1.4-0.7h0.1c0.6,0.2,0.9,0.8,0.7,1.4
		C637,96.9,636.6,97.2,636.1,97.2z M631.3,95.6c-0.1,0-0.3,0-0.4-0.1c-0.6-0.2-0.9-0.9-0.7-1.4c0.2-0.6,0.8-0.9,1.4-0.7h0.1
		c0.6,0.2,0.9,0.9,0.7,1.4C632.2,95.3,631.8,95.6,631.3,95.6z M626.6,93.8c-0.1,0-0.3,0-0.4-0.1h-0.1c-0.6-0.2-0.8-0.9-0.6-1.5
		c0.2-0.6,0.9-0.8,1.5-0.6l-0.4,1l0.5-1c0.6,0.2,0.8,0.9,0.6,1.4C627.5,93.5,627,93.8,626.6,93.8z M622,91.7c-0.2,0-0.3,0-0.5-0.1
		c-0.6-0.3-0.8-0.9-0.5-1.5s0.9-0.8,1.5-0.5h0.1c0.5,0.3,0.8,1,0.5,1.5C622.8,91.4,622.4,91.7,622,91.7z M617.6,89.3
		c-0.2,0-0.4-0.1-0.6-0.2c-0.5-0.3-0.7-1-0.4-1.5c0.3-0.5,1-0.7,1.5-0.4l-0.6,1l0.6-1l0,0c0.5,0.3,0.7,1,0.4,1.5
		C618.3,89.1,617.9,89.3,617.6,89.3z M613.3,86.6c-0.2,0-0.4-0.1-0.6-0.2l0,0c-0.5-0.3-0.6-1-0.3-1.5c0.3-0.5,1-0.6,1.5-0.3l0,0
		c0.5,0.3,0.6,1,0.3,1.5C614,86.4,613.7,86.6,613.3,86.6z M609.2,83.6c-0.2,0-0.5-0.1-0.7-0.3c-0.5-0.4-0.6-1.1-0.2-1.6
		s1-0.6,1.5-0.2c0,0,0.1,0,0.1,0.1c0.5,0.4,0.5,1.1,0.1,1.6C609.9,83.5,609.5,83.6,609.2,83.6z M605.4,80.3c-0.3,0-0.5-0.1-0.8-0.3
		c-0.5-0.4-0.5-1.1-0.1-1.6s1.1-0.5,1.6-0.1l0,0c0.5,0.4,0.5,1.1,0.1,1.6C606,80.2,605.7,80.3,605.4,80.3z M601.8,76.8
		c-0.3,0-0.6-0.1-0.8-0.4l0,0c-0.4-0.5-0.4-1.2,0.1-1.6s1.2-0.4,1.6,0.1l-0.8,0.8l0.8-0.7c0.4,0.4,0.4,1.2,0,1.6
		C602.3,76.7,602.1,76.8,601.8,76.8z M598.5,72.9c-0.3,0-0.7-0.1-0.9-0.4c0,0,0,0,0-0.1c-0.4-0.5-0.3-1.2,0.2-1.6s1.2-0.3,1.6,0.2
		l-0.9,0.7l0.9-0.6c0.4,0.5,0.3,1.2-0.2,1.6C599,72.8,598.8,72.9,598.5,72.9z M595.6,68.8c-0.4,0-0.7-0.2-0.9-0.5v-0.1
		c-0.3-0.5-0.2-1.2,0.3-1.5s1.2-0.2,1.5,0.3l-0.9,0.6l1-0.6c0.3,0.5,0.2,1.2-0.3,1.5C596,68.7,595.8,68.8,595.6,68.8z M593,64.5
		c-0.4,0-0.8-0.2-1-0.6v-0.1c-0.3-0.5-0.1-1.2,0.5-1.5c0.5-0.3,1.2-0.1,1.5,0.5l-1,0.5l1-0.5c0.3,0.5,0.1,1.2-0.4,1.5
		C593.3,64.4,593.2,64.5,593,64.5z M590.8,59.9c-0.4,0-0.8-0.3-1-0.7c-0.2-0.6,0-1.2,0.6-1.5c0.6-0.2,1.2,0,1.4,0.6v0.1
		c0.2,0.6,0,1.2-0.6,1.5C591.1,59.9,590.9,59.9,590.8,59.9z M589,55.1c-0.5,0-0.9-0.3-1.1-0.8v-0.1c-0.2-0.6,0.1-1.2,0.7-1.4
		c0.6-0.2,1.2,0.1,1.4,0.7l-1,0.5l1.1-0.3c0.2,0.6-0.1,1.2-0.7,1.4C589.3,55.1,589.1,55.1,589,55.1z M587.8,50.2
		c-0.5,0-1-0.4-1.1-0.9v-0.1c-0.1-0.6,0.4-1.2,1-1.2c0.6-0.1,1.2,0.4,1.2,1l0,0c0.1,0.6-0.3,1.2-0.9,1.3
		C587.9,50.2,587.9,50.2,587.8,50.2z"/>
</g>
<g>
	
		<linearGradient id="SVGID_3_" gradientUnits="userSpaceOnUse" x1="310.6847" y1="21.7064" x2="414" y2="21.7064" gradientTransform="matrix(1 0 0 -1 0 200)">
		<stop  offset="0" style="stop-color:#7CC4D3"/>
		<stop  offset="1" style="stop-color:#0CB1D3"/>
	</linearGradient>
	<path class="st6" d="M311.8,204.1c-0.1,0-0.1,0-0.2,0c-0.6-0.1-1-0.6-0.9-1.3v-0.1c0.1-0.6,0.7-1,1.3-0.9s1,0.7,0.9,1.3l0,0
		C312.8,203.7,312.4,204.1,311.8,204.1z M313.8,199.5c-0.2,0-0.4-0.1-0.6-0.2c-0.5-0.3-0.7-1-0.3-1.5v-0.1c0.4-0.5,1-0.6,1.5-0.3
		c0.5,0.4,0.6,1,0.3,1.5l0,0C314.5,199.3,314.2,199.5,313.8,199.5z M317.2,195.8c-0.3,0-0.6-0.1-0.8-0.4c-0.4-0.5-0.3-1.2,0.1-1.6
		c0.5-0.4,1.2-0.4,1.6,0.1c0.4,0.5,0.4,1.2-0.1,1.5l0,0C317.7,195.7,317.4,195.8,317.2,195.8z M321.3,192.9c-0.4,0-0.8-0.2-1-0.6
		c-0.3-0.5-0.1-1.2,0.4-1.5s1.2-0.1,1.5,0.4c0.3,0.5,0.1,1.2-0.4,1.5h-0.1C321.7,192.8,321.5,192.9,321.3,192.9z M325.9,190.7
		c-0.5,0-0.9-0.3-1-0.7c-0.2-0.6,0.1-1.2,0.7-1.4s1.2,0.1,1.5,0.6c0.2,0.6,0,1.2-0.6,1.4h-0.1C326.1,190.7,326,190.7,325.9,190.7z
		 M330.6,189c-0.5,0-0.9-0.3-1.1-0.8c-0.2-0.6,0.2-1.2,0.8-1.4c0.6-0.2,1.2,0.2,1.4,0.8c0.2,0.6-0.1,1.2-0.7,1.4l-0.3-1.1l0.3,1.1
		h-0.1C330.8,189,330.7,189,330.6,189z M335.5,187.8c-0.5,0-1-0.3-1.1-0.9c-0.1-0.6,0.2-1.2,0.8-1.3h0.1c0.6-0.1,1.2,0.3,1.3,0.9
		c0.1,0.6-0.3,1.2-0.9,1.3l-0.2-1.1l0.2,1.1C335.7,187.8,335.6,187.8,335.5,187.8z M340.5,186.9c-0.5,0-1-0.4-1.1-0.9
		c-0.1-0.6,0.3-1.2,0.9-1.3h0.1c0.6-0.1,1.2,0.3,1.3,0.9c0.1,0.6-0.3,1.2-0.9,1.3l-0.2-1.1l0.1,1.1
		C340.6,186.9,340.6,186.9,340.5,186.9z M345.5,186.3c-0.6,0-1.1-0.4-1.1-1c-0.1-0.6,0.4-1.2,1-1.2c0.6-0.1,1.2,0.4,1.2,1
		c0.1,0.6-0.4,1.2-1,1.2H345.5C345.6,186.2,345.5,186.3,345.5,186.3z M350.5,185.8c-0.6,0-1.1-0.5-1.1-1c0-0.6,0.4-1.1,1-1.2
		c0.6,0,1.2,0.4,1.2,1s-0.4,1.1-1,1.2H350.5C350.6,185.8,350.6,185.8,350.5,185.8z M355.6,185.6c-0.6,0-1.1-0.5-1.1-1.1
		s0.5-1.1,1.1-1.1s1.2,0.5,1.2,1.1C356.7,185.1,356.3,185.6,355.6,185.6L355.6,185.6L355.6,185.6z M360.7,185.5L360.7,185.5
		c-0.7,0-1.2-0.5-1.2-1.1s0.5-1.1,1.1-1.1h0.1c0.6,0,1.1,0.5,1.1,1.1S361.3,185.5,360.7,185.5z M365.7,185.4c-0.6,0-1.1-0.5-1.1-1.1
		s0.5-1.1,1.1-1.1c0.6,0,1.1,0.5,1.2,1.1c0,0.6-0.4,1.1-1,1.2C365.8,185.4,365.7,185.4,365.7,185.4L365.7,185.4z M370.7,185
		c-0.6,0-1-0.4-1.1-1c-0.1-0.6,0.4-1.2,1-1.2h0.1c0.6,0,1.2,0.4,1.2,1c0.1,0.6-0.4,1.2-1,1.2l-0.1-1.1l0.1,1.1
		C370.8,185,370.8,185,370.7,185z M375.7,184.4c-0.5,0-1-0.4-1.1-0.9c-0.1-0.6,0.3-1.2,0.9-1.3c0.6-0.1,1.2,0.3,1.3,0.9
		c0.1,0.6-0.3,1.2-0.9,1.3H375.7C375.8,184.4,375.8,184.4,375.7,184.4z M380.7,183.4c-0.5,0-1-0.3-1.1-0.9c-0.1-0.6,0.2-1.2,0.8-1.3
		s1.2,0.2,1.4,0.8c0.1,0.6-0.2,1.2-0.8,1.3h-0.1C380.9,183.4,380.8,183.4,380.7,183.4z M385.5,182c-0.5,0-0.9-0.3-1.1-0.8
		c-0.2-0.6,0.1-1.2,0.7-1.4c0.6-0.2,1.2,0.1,1.4,0.7c0.2,0.6-0.1,1.2-0.7,1.4h-0.1C385.8,182,385.7,182,385.5,182z M390.3,180.3
		c-0.4,0-0.8-0.2-1-0.7c-0.2-0.6,0-1.2,0.6-1.5h0.1c0.6-0.2,1.2,0,1.5,0.6c0.2,0.6,0,1.2-0.6,1.5l-0.4-1l0.4,1
		C390.6,180.2,390.4,180.3,390.3,180.3z M394.8,178c-0.4,0-0.8-0.2-1-0.6c-0.3-0.5-0.1-1.2,0.4-1.5s1.2-0.1,1.5,0.4
		c0.3,0.5,0.1,1.2-0.4,1.5h-0.1C395.2,178,395,178,394.8,178z M399.1,175.3c-0.3,0-0.7-0.2-0.9-0.5c-0.4-0.5-0.3-1.2,0.2-1.6
		c0.5-0.4,1.2-0.3,1.6,0.2c0.4,0.5,0.3,1.2-0.2,1.5l0,0C399.5,175.3,399.3,175.3,399.1,175.3z M403,172.1c-0.3,0-0.6-0.1-0.8-0.3
		c-0.4-0.4-0.4-1.1,0-1.6l0.1-0.1c0.5-0.4,1.2-0.4,1.6,0.1c0.4,0.5,0.4,1.2-0.1,1.6L403,171l0.7,0.8
		C403.5,172,403.2,172.1,403,172.1z M406.4,168.4c-0.2,0-0.5-0.1-0.7-0.2c-0.5-0.4-0.6-1.1-0.2-1.6c0.4-0.5,1.1-0.6,1.6-0.2
		c0.5,0.4,0.6,1.1,0.2,1.5l0,0C407,168.2,406.7,168.4,406.4,168.4z M409.3,164.2c-0.2,0-0.4,0-0.6-0.2c-0.5-0.3-0.7-1-0.4-1.5l0,0
		c0.3-0.5,1-0.7,1.5-0.4s0.7,1,0.4,1.5l-1-0.6l0.9,0.6C410,164,409.6,164.2,409.3,164.2z M411.5,159.7c-0.1,0-0.3,0-0.4-0.1
		c-0.6-0.2-0.8-0.9-0.6-1.4c0.2-0.6,0.9-0.9,1.5-0.6c0.6,0.2,0.9,0.8,0.6,1.4v0.1C412.3,159.4,411.9,159.7,411.5,159.7z
		 M412.9,154.8c-0.1,0-0.1,0-0.2,0c-0.6-0.1-1-0.6-0.9-1.3c0.1-0.6,0.6-1.1,1.2-1c0.6,0.1,1,0.6,1,1.2v0.1
		C413.9,154.4,413.4,154.8,412.9,154.8z"/>
</g>
<g>
	
		<linearGradient id="SVGID_4_" gradientUnits="userSpaceOnUse" x1="411.7872" y1="22.1064" x2="515" y2="22.1064" gradientTransform="matrix(1 0 0 -1 0 200)">
		<stop  offset="0" style="stop-color:#0CB1D3"/>
		<stop  offset="1" style="stop-color:#7CC4D3"/>
	</linearGradient>
	<path class="st7" d="M512.8,203.2c-0.1-0.6,0.3-1.2,0.9-1.3c0.6-0.1,1.2,0.3,1.3,0.9l-1.1,0.2l1.1-0.1l-1.1,0.2L512.8,203.2z
		 M512,199.5c-0.4,0-0.7-0.2-0.9-0.5c-0.4-0.5-0.2-1.2,0.3-1.6c0.5-0.4,1.2-0.2,1.5,0.3v0.1c0.3,0.5,0.2,1.2-0.3,1.5
		C512.4,199.4,512.2,199.5,512,199.5z M508.6,195.8c-0.3,0-0.5-0.1-0.7-0.3c-0.5-0.4-0.5-1.1-0.2-1.6c0.4-0.5,1.1-0.5,1.5-0.1l0,0
		c0.5,0.4,0.5,1.1,0.1,1.6C509.2,195.6,508.9,195.8,508.6,195.8z M504.4,192.9c-0.2,0-0.4,0-0.5-0.1h-0.1c-0.5-0.3-0.7-1-0.4-1.5
		c0.3-0.5,1-0.7,1.5-0.4l0,0c0.5,0.3,0.7,1,0.4,1.5C505.2,192.7,504.8,192.9,504.4,192.9z M499.9,190.7c-0.1,0-0.3,0-0.4-0.1h-0.1
		c-0.6-0.2-0.8-0.9-0.6-1.5s0.9-0.8,1.5-0.6l-0.4,1l0.4-1c0.6,0.2,0.9,0.9,0.6,1.4C500.8,190.4,500.3,190.7,499.9,190.7z M495.1,189
		c-0.1,0-0.2,0-0.3,0h-0.1c-0.6-0.2-0.9-0.8-0.7-1.4c0.2-0.6,0.8-0.9,1.4-0.7l0,0c0.6,0.2,0.9,0.8,0.8,1.4
		C496,188.7,495.6,189,495.1,189z M490.2,187.8c-0.1,0-0.2,0-0.3,0c-0.6-0.1-1-0.7-0.8-1.3c0.1-0.6,0.7-1,1.3-0.8h0.1
		c0.6,0.1,1,0.7,0.8,1.3C491.2,187.5,490.7,187.8,490.2,187.8z M485.3,186.9c-0.1,0-0.1,0-0.2,0c-0.6-0.1-1-0.7-0.9-1.3
		s0.6-1,1.2-0.9h0.1c0.6,0.1,1,0.7,0.9,1.3C486.3,186.5,485.8,186.9,485.3,186.9z M480.3,186.3C480.2,186.3,480.2,186.2,480.3,186.3
		h-0.2c-0.6-0.1-1-0.6-1-1.2c0.1-0.6,0.6-1.1,1.2-1l-0.1,1.1l0.2-1.1c0.6,0.1,1.1,0.6,1,1.2C481.3,185.8,480.8,186.3,480.3,186.3z
		 M475.2,185.8L475.2,185.8c-0.7,0-1.2-0.6-1.1-1.2c0-0.6,0.5-1.1,1.1-1h0.1c0.6,0,1.1,0.6,1,1.2
		C476.3,185.4,475.8,185.8,475.2,185.8z M470.2,185.6C470.2,185.6,470.1,185.6,470.2,185.6L470.2,185.6c-0.7,0-1.2-0.5-1.2-1.1
		s0.5-1.1,1.1-1.1h0.1c0.6,0,1.1,0.5,1.1,1.1C471.3,185.1,470.8,185.6,470.2,185.6z M465.1,185.5L465.1,185.5
		c-0.7,0-1.2-0.5-1.2-1.1s0.5-1.1,1.1-1.1h0.1c0.6,0,1.1,0.5,1.1,1.1S465.7,185.5,465.1,185.5z M460.1,185.4
		C460.1,185.4,460,185.4,460.1,185.4H460c-0.6,0-1.1-0.6-1-1.2c0-0.6,0.6-1.1,1.2-1l-0.1,1.1l0.1-1.1c0.6,0,1.1,0.5,1.1,1.1
		C461.1,184.9,460.7,185.4,460.1,185.4z M455,185h-0.1c-0.6-0.1-1.1-0.6-1-1.2c0.1-0.6,0.6-1.1,1.2-1h0.1c0.6,0.1,1,0.6,1,1.2
		C456.1,184.6,455.6,185,455,185z M450,184.4c-0.1,0-0.1,0-0.2,0h-0.1c-0.6-0.1-1-0.7-0.9-1.3c0.1-0.6,0.7-1,1.3-0.9l-0.2,1.1
		l0.2-1.1c0.6,0.1,1,0.7,0.9,1.3C451,184,450.6,184.4,450,184.4z M445.1,183.4c-0.1,0-0.2,0-0.3,0h-0.1c-0.6-0.1-1-0.7-0.8-1.3
		c0.1-0.6,0.7-1,1.3-0.8l-0.3,1.1l0.3-1.1c0.6,0.1,1,0.7,0.8,1.3C446,183,445.6,183.4,445.1,183.4z M440.2,182c-0.1,0-0.2,0-0.3,0
		h-0.1c-0.6-0.2-0.9-0.8-0.7-1.4c0.2-0.6,0.8-0.9,1.4-0.7l-0.4,1.1l0.4-1c0.6,0.2,0.9,0.8,0.7,1.4C441.1,181.7,440.7,182,440.2,182z
		 M435.5,180.3c-0.2,0-0.3,0-0.5-0.1c-0.6-0.2-0.8-0.9-0.6-1.5s0.9-0.8,1.4-0.6h0.1c0.6,0.3,0.8,0.9,0.6,1.5
		C436.3,180,435.9,180.3,435.5,180.3z M430.9,178c-0.2,0-0.4,0-0.5-0.1h-0.1c-0.5-0.3-0.7-1-0.4-1.5s1-0.7,1.5-0.4l-0.6,1l0.6-0.9
		c0.5,0.3,0.7,1,0.4,1.5C431.7,177.8,431.3,178,430.9,178z M426.7,175.3c-0.2,0-0.5-0.1-0.7-0.2c-0.5-0.4-0.6-1.1-0.3-1.6
		c0.4-0.5,1-0.6,1.5-0.3l0,0c0.5,0.4,0.6,1.1,0.2,1.6C427.4,175.2,427,175.3,426.7,175.3z M422.8,172.1c-0.3,0-0.6-0.1-0.8-0.3
		c-0.4-0.4-0.5-1.1,0-1.6c0.4-0.4,1.1-0.5,1.5-0.1l0.1,0.1c0.4,0.4,0.4,1.1,0,1.6C423.4,172,423.1,172.1,422.8,172.1z M419.4,168.4
		c-0.3,0-0.6-0.1-0.9-0.4l0,0c-0.4-0.5-0.3-1.2,0.2-1.6c0.5-0.4,1.2-0.3,1.6,0.2l0,0c0.4,0.5,0.3,1.2-0.2,1.6
		C419.9,168.3,419.6,168.4,419.4,168.4z M416.5,164.2c-0.4,0-0.8-0.2-1-0.6c-0.3-0.5-0.1-1.2,0.4-1.5s1.2-0.2,1.5,0.4l0,0
		c0.3,0.5,0.1,1.2-0.4,1.5C416.9,164.2,416.7,164.2,416.5,164.2z M414.3,159.7c-0.4,0-0.9-0.3-1-0.7v-0.1c-0.2-0.6,0.1-1.2,0.6-1.4
		c0.6-0.2,1.2,0.1,1.4,0.6l-1,0.4l1.1-0.4c0.2,0.6,0,1.2-0.6,1.4C414.6,159.7,414.4,159.7,414.3,159.7z M412.9,154.8
		c-0.5,0-1-0.4-1.1-0.9v-0.1c-0.1-0.6,0.4-1.2,1-1.2c0.6-0.1,1.2,0.4,1.2,1l0,0c0.1,0.6-0.3,1.2-0.9,1.3
		C413,154.8,412.9,154.8,412.9,154.8z"/>
</g>
<g>
	
		<linearGradient id="SVGID_5_" gradientUnits="userSpaceOnUse" x1="412.9" y1="-4.2" x2="412.9" y2="43.6" gradientTransform="matrix(1 0 0 -1 0 200)">
		<stop  offset="0" style="stop-color:#7CC4D3"/>
		<stop  offset="1" style="stop-color:#0CB1D3"/>
	</linearGradient>
	<path class="st8" d="M412.9,204.2c-0.6,0-1.1-0.5-1.1-1.1V203c0-0.6,0.5-1.1,1.1-1.1s1.1,0.5,1.1,1.1
		C414,203.7,413.5,204.2,412.9,204.2z M412.9,199.2c-0.6,0-1.1-0.5-1.1-1.1V198c0-0.6,0.5-1.1,1.1-1.1s1.1,0.5,1.1,1.1v0.1
		C414,198.7,413.5,199.2,412.9,199.2z M412.9,194.1c-0.6,0-1.1-0.5-1.1-1.1l0,0c0-0.6,0.5-1.1,1.1-1.1s1.1,0.5,1.1,1.1
		S413.5,194.1,412.9,194.1z M412.9,189.1c-0.6,0-1.1-0.5-1.1-1.1v-0.1c0-0.6,0.5-1.1,1.1-1.1s1.1,0.5,1.1,1.1v0.1
		C414,188.6,413.5,189.1,412.9,189.1z M412.9,184c-0.6,0-1.1-0.5-1.1-1.1v-0.1c0-0.6,0.5-1.1,1.1-1.1s1.1,0.5,1.1,1.1
		C414,183.5,413.5,184,412.9,184z M412.9,179c-0.6,0-1.1-0.5-1.1-1.1v-0.1c0-0.6,0.5-1.1,1.1-1.1s1.1,0.5,1.1,1.1
		S413.5,179,412.9,179z M412.9,173.9c-0.6,0-1.1-0.5-1.1-1.1v-0.1c0-0.6,0.5-1.1,1.1-1.1s1.1,0.5,1.1,1.1v0.1
		C414,173.4,413.5,173.9,412.9,173.9z M412.9,168.8c-0.6,0-1.1-0.5-1.1-1.1v-0.1c0-0.6,0.5-1.1,1.1-1.1s1.1,0.5,1.1,1.1
		S413.5,168.8,412.9,168.8z M412.9,163.8c-0.6,0-1.1-0.5-1.1-1.1v-0.1c0-0.6,0.5-1.1,1.1-1.1s1.1,0.5,1.1,1.1v0.1
		C414,163.3,413.5,163.8,412.9,163.8z M412.9,158.7c-0.6,0-1.1-0.5-1.1-1.1v-0.1c0-0.6,0.5-1.1,1.1-1.1s1.1,0.5,1.1,1.1
		S413.5,158.7,412.9,158.7z"/>
</g>
<g>
	
		<linearGradient id="SVGID_6_" gradientUnits="userSpaceOnUse" x1="625.5" y1="-11.85" x2="695.2" y2="-11.85" gradientTransform="matrix(1 0 0 -1 0 200)">
		<stop  offset="0" style="stop-color:#7CC4D3"/>
		<stop  offset="1" style="stop-color:#0CB1D3"/>
	</linearGradient>
	<path class="st9" d="M692.5,221.8L692.5,221.8c-0.7,0-1.2-0.5-1.2-1.1s0.5-1.1,1.1-1.1h0.1c0.6,0,1.1,0.5,1.1,1.1
		S693.1,221.8,692.5,221.8z M687.4,221.8L687.4,221.8c-0.7,0-1.2-0.5-1.2-1.1s0.5-1.1,1.1-1.1h0.1c0.6,0,1.1,0.5,1.1,1.1
		S688,221.8,687.4,221.8z M682.4,221.8L682.4,221.8c-0.7,0-1.2-0.5-1.2-1.1s0.5-1.1,1.1-1.1s1.1,0.5,1.1,1.1S683,221.8,682.4,221.8z
		 M677.3,221.8L677.3,221.8c-0.7,0-1.2-0.5-1.2-1.1s0.5-1.1,1.1-1.1h0.1c0.6,0,1.1,0.5,1.1,1.1S677.9,221.8,677.3,221.8z
		 M672.2,221.8L672.2,221.8c-0.7,0-1.2-0.5-1.2-1.1s0.5-1.1,1.1-1.1h0.1c0.6,0,1.1,0.5,1.1,1.1S672.8,221.8,672.2,221.8z
		 M667.1,221.8L667.1,221.8c-0.7,0-1.2-0.5-1.2-1.1s0.5-1.1,1.1-1.1h0.1c0.6,0,1.1,0.5,1.1,1.1S667.7,221.8,667.1,221.8z M662,221.8
		L662,221.8c-0.7,0-1.2-0.5-1.2-1.1s0.5-1.1,1.1-1.1c0.6,0,1.1,0.5,1.1,1.1S662.6,221.8,662,221.8z M657,221.8L657,221.8
		c-0.7,0-1.2-0.5-1.2-1.1s0.5-1.1,1.1-1.1h0.1c0.6,0,1.1,0.5,1.1,1.1S657.6,221.8,657,221.8z M651.9,221.8L651.9,221.8
		c-0.7,0-1.2-0.5-1.2-1.1s0.5-1.1,1.1-1.1h0.1c0.6,0,1.1,0.5,1.1,1.1S652.5,221.8,651.9,221.8z M646.8,221.8L646.8,221.8
		c-0.7,0-1.2-0.5-1.2-1.1s0.5-1.1,1.1-1.1h0.1c0.6,0,1.1,0.5,1.1,1.1S647.4,221.8,646.8,221.8z M641.7,221.8L641.7,221.8
		c-0.7,0-1.2-0.5-1.2-1.1s0.5-1.1,1.1-1.1c0.6,0,1.1,0.5,1.1,1.1S642.3,221.8,641.7,221.8z M636.6,221.8L636.6,221.8
		c-0.7,0-1.2-0.5-1.2-1.1s0.5-1.1,1.1-1.1h0.1c0.6,0,1.1,0.5,1.1,1.1S637.2,221.8,636.6,221.8z M631.5,221.8L631.5,221.8
		c-0.7,0-1.2-0.5-1.2-1.1s0.5-1.1,1.1-1.1h0.1c0.6,0,1.1,0.5,1.1,1.1S632.2,221.8,631.5,221.8z M626.8,221c-0.4,0-0.8-0.2-1-0.6
		v-0.1c-0.3-0.6,0-1.2,0.5-1.5c0.6-0.3,1.2,0,1.5,0.5s0.1,1.2-0.5,1.5C627.1,220.9,626.9,221,626.8,221z M694.1,217.6
		c-0.6,0-1.1-0.5-1.1-1.1v-0.1c0-0.6,0.5-1.1,1.1-1.1c0.6,0,1.1,0.5,1.1,1.1v0.1C695.2,217.1,694.7,217.6,694.1,217.6z M626.6,215.9
		c-0.6,0-1.1-0.5-1.1-1.1v-0.1c0-0.6,0.5-1.1,1.1-1.1c0.6,0,1.1,0.5,1.1,1.1v0.1C627.7,215.4,627.2,215.9,626.6,215.9z M694.1,212.5
		c-0.6,0-1.1-0.5-1.1-1.1s0.5-1.1,1.1-1.1c0.6,0,1.1,0.5,1.1,1.1v0.1C695.2,212,694.7,212.5,694.1,212.5z M626.6,210.8
		c-0.6,0-1.1-0.5-1.1-1.1v-0.1c0-0.6,0.5-1.1,1.1-1.1c0.6,0,1.1,0.5,1.1,1.1v0.1C627.7,210.3,627.2,210.8,626.6,210.8z M694.1,207.4
		c-0.6,0-1.1-0.5-1.1-1.1v-0.1c0-0.6,0.5-1.1,1.1-1.1c0.6,0,1.1,0.5,1.1,1.1v0.1C695.2,206.9,694.7,207.4,694.1,207.4z M626.6,205.7
		c-0.6,0-1.1-0.5-1.1-1.1v-0.1c0-0.6,0.5-1.1,1.1-1.1c0.6,0,1.1,0.5,1.1,1.1v0.1C627.7,205.2,627.2,205.7,626.6,205.7z M691.7,204.1
		L691.7,204.1c-0.7,0-1.2-0.5-1.2-1.1s0.5-1.1,1.1-1.1h0.1c0.6,0,1.1,0.5,1.1,1.1S692.3,204.1,691.7,204.1z M686.6,204.1
		L686.6,204.1c-0.7,0-1.2-0.5-1.2-1.1s0.5-1.1,1.1-1.1h0.1c0.6,0,1.1,0.5,1.1,1.1S687.2,204.1,686.6,204.1z M681.5,204.1
		c-0.6,0-1.1-0.5-1.1-1.1s0.5-1.1,1.1-1.1h0.1c0.6,0,1.1,0.5,1.1,1.1S682.1,204.1,681.5,204.1z M676.4,204.1L676.4,204.1
		c-0.7,0-1.2-0.5-1.2-1.1s0.5-1.1,1.1-1.1h0.1c0.6,0,1.1,0.5,1.1,1.1S677,204.1,676.4,204.1z M671.4,204.1L671.4,204.1
		c-0.7,0-1.2-0.5-1.2-1.1s0.5-1.1,1.1-1.1h0.1c0.6,0,1.1,0.5,1.1,1.1S672,204.1,671.4,204.1z M666.3,204.1L666.3,204.1
		c-0.7,0-1.2-0.5-1.2-1.1s0.5-1.1,1.1-1.1h0.1c0.6,0,1.1,0.5,1.1,1.1S666.9,204.1,666.3,204.1z M661.2,204.1c-0.6,0-1.1-0.5-1.1-1.1
		s0.5-1.1,1.1-1.1h0.1c0.6,0,1.1,0.5,1.1,1.1S661.8,204.1,661.2,204.1z M656.1,204.1L656.1,204.1c-0.7,0-1.2-0.5-1.2-1.1
		s0.5-1.1,1.1-1.1h0.1c0.6,0,1.1,0.5,1.1,1.1S656.7,204.1,656.1,204.1z M651,204.1L651,204.1c-0.7,0-1.2-0.5-1.2-1.1
		s0.5-1.1,1.1-1.1h0.1c0.6,0,1.1,0.5,1.1,1.1S651.6,204.1,651,204.1z M645.9,204.1L645.9,204.1c-0.7,0-1.2-0.5-1.2-1.1
		s0.5-1.1,1.1-1.1h0.1c0.6,0,1.1,0.5,1.1,1.1S646.6,204.1,645.9,204.1z M640.9,204.1L640.9,204.1c-0.7,0-1.2-0.5-1.2-1.1
		s0.5-1.1,1.1-1.1h0.1c0.6,0,1.1,0.5,1.1,1.1S641.5,204.1,640.9,204.1z M635.8,204.1L635.8,204.1c-0.7,0-1.2-0.5-1.2-1.1
		s0.5-1.1,1.1-1.1h0.1c0.6,0,1.1,0.5,1.1,1.1S636.4,204.1,635.8,204.1z M630.7,204.1L630.7,204.1c-0.7,0-1.2-0.5-1.2-1.1
		s0.5-1.1,1.1-1.1h0.1c0.6,0,1.1,0.5,1.1,1.1S631.3,204.1,630.7,204.1z"/>
</g>
<g>
	<g>
		<path class="st2" d="M646,215.4V208h1.1v7.4H646z"/>
	</g>
	<g>
		<path class="st2" d="M652.4,215.4v-3c0-0.4,0-1.7-1.4-1.7c-0.9,0-1.5,0.6-1.5,1.7v3h-1v-5.5h1v0.6l0,0c0.6-0.7,1.4-0.7,1.6-0.7
			c0.9,0,1.6,0.4,2,1c0.2,0.4,0.3,0.8,0.4,1.4v3.3h-1.1V215.4z"/>
	</g>
	<g>
		<path class="st2" d="M654.8,215.4v-4.6h-0.5v-0.9h0.5v-0.3c0-0.6,0.2-1,0.7-1.3c0.4-0.3,0.7-0.3,1.4-0.3v1c-0.7,0-1,0.2-1,0.6v0.3
			h1v0.9h-1v4.6H654.8z"/>
	</g>
	<g>
		<path class="st2" d="M657.5,215.4v-5.5h1v0.5l0,0c0.4-0.6,1.2-0.6,1.4-0.7v1.1c-0.2,0-0.5,0.1-0.8,0.2c-0.3,0.2-0.6,0.6-0.6,1.4v3
			H657.5z"/>
	</g>
	<g>
		<path class="st2" d="M665.3,215.4v-0.9l0,0c-0.4,0.7-1.1,1-1.9,1c-1.9,0-2.9-1.4-2.9-2.9c0-1.4,1-2.9,2.9-2.9
			c0.8,0,1.5,0.3,1.9,0.9l0,0v-0.8h1v5.5L665.3,215.4L665.3,215.4z M663.4,210.7c-1.3,0-1.9,1.1-1.9,2c0,1,0.8,2,1.9,2
			c1.1,0,1.9-0.9,1.9-2C665.3,211.5,664.4,210.7,663.4,210.7z"/>
	</g>
	<g>
		<path class="st2" d="M675.1,215.4l-0.8-2.2h-2.7l-0.8,2.2h-1.1l2.8-7.4h1l2.8,7.4H675.1z M673.9,212.3l-0.9-2.8l0,0l-1,2.8H673.9z
			"/>
	</g>
</g>
<g>
	
		<linearGradient id="SVGID_7_" gradientUnits="userSpaceOnUse" x1="726.6" y1="-11.85" x2="796.2964" y2="-11.85" gradientTransform="matrix(1 0 0 -1 0 200)">
		<stop  offset="0" style="stop-color:#7CC4D3"/>
		<stop  offset="1" style="stop-color:#0CB1D3"/>
	</linearGradient>
	<path class="st10" d="M793.6,221.8L793.6,221.8L793.6,221.8c-0.7,0-1.2-0.5-1.2-1.1s0.5-1.1,1.1-1.1h0.1l0,0c0.6,0,1.1,0.5,1.1,1.1
		C794.7,221.3,794.2,221.8,793.6,221.8z M788.5,221.8L788.5,221.8c-0.7,0-1.2-0.5-1.2-1.1s0.5-1.1,1.1-1.1h0.1
		c0.6,0,1.1,0.5,1.1,1.1S789.1,221.8,788.5,221.8z M783.4,221.8L783.4,221.8c-0.7,0-1.2-0.5-1.2-1.1s0.5-1.1,1.1-1.1
		s1.1,0.5,1.1,1.1S784.1,221.8,783.4,221.8z M778.4,221.8L778.4,221.8c-0.7,0-1.2-0.5-1.2-1.1s0.5-1.1,1.1-1.1h0.1
		c0.6,0,1.1,0.5,1.1,1.1S779,221.8,778.4,221.8z M773.3,221.8L773.3,221.8c-0.7,0-1.2-0.5-1.2-1.1s0.5-1.1,1.1-1.1h0.1
		c0.6,0,1.1,0.5,1.1,1.1S773.9,221.8,773.3,221.8z M768.2,221.8L768.2,221.8c-0.7,0-1.2-0.5-1.2-1.1s0.5-1.1,1.1-1.1h0.1
		c0.6,0,1.1,0.5,1.1,1.1S768.8,221.8,768.2,221.8z M763.1,221.8L763.1,221.8c-0.7,0-1.2-0.5-1.2-1.1s0.5-1.1,1.1-1.1
		s1.1,0.5,1.1,1.1S763.7,221.8,763.1,221.8z M758,221.8L758,221.8c-0.7,0-1.2-0.5-1.2-1.1s0.5-1.1,1.1-1.1h0.1
		c0.6,0,1.1,0.5,1.1,1.1S758.7,221.8,758,221.8z M753,221.8L753,221.8c-0.7,0-1.2-0.5-1.2-1.1s0.5-1.1,1.1-1.1h0.1
		c0.6,0,1.1,0.5,1.1,1.1S753.6,221.8,753,221.8z M747.9,221.8L747.9,221.8c-0.7,0-1.2-0.5-1.2-1.1s0.5-1.1,1.1-1.1h0.1
		c0.6,0,1.1,0.5,1.1,1.1S748.5,221.8,747.9,221.8z M742.8,221.8L742.8,221.8c-0.7,0-1.2-0.5-1.2-1.1s0.5-1.1,1.1-1.1
		c0.6,0,1.1,0.5,1.1,1.1S743.4,221.8,742.8,221.8z M737.7,221.8L737.7,221.8c-0.7,0-1.2-0.5-1.2-1.1s0.5-1.1,1.1-1.1h0.1
		c0.6,0,1.1,0.5,1.1,1.1S738.3,221.8,737.7,221.8z M732.6,221.8L732.6,221.8c-0.7,0-1.2-0.5-1.2-1.1s0.5-1.1,1.1-1.1h0.1
		c0.6,0,1.1,0.5,1.1,1.1S733.2,221.8,732.6,221.8z M727.8,221c-0.4,0-0.8-0.2-1-0.6v-0.1c-0.3-0.6,0-1.2,0.5-1.5
		c0.6-0.3,1.2,0,1.5,0.5s0.1,1.2-0.5,1.5C728.2,220.9,728,221,727.8,221z M795.1,217.6c-0.6,0-1.1-0.5-1.1-1.1v-0.1
		c0-0.6,0.5-1.1,1.1-1.1s1.1,0.5,1.1,1.1v0.1C796.3,217.1,795.8,217.6,795.1,217.6z M727.7,215.9c-0.6,0-1.1-0.5-1.1-1.1v-0.1
		c0-0.6,0.5-1.1,1.1-1.1s1.1,0.5,1.1,1.1v0.1C728.8,215.4,728.3,215.9,727.7,215.9z M795.1,212.5c-0.6,0-1.1-0.5-1.1-1.1v-0.1
		c0-0.6,0.5-1.1,1.1-1.1s1.1,0.5,1.1,1.1v0.1C796.3,212,795.8,212.5,795.1,212.5z M727.7,210.8c-0.6,0-1.1-0.5-1.1-1.1v-0.1
		c0-0.6,0.5-1.1,1.1-1.1s1.1,0.5,1.1,1.1v0.1C728.8,210.3,728.3,210.8,727.7,210.8z M795.1,207.4c-0.6,0-1.1-0.5-1.1-1.1
		s0.5-1.1,1.1-1.1s1.1,0.5,1.1,1.1v0.1C796.3,206.9,795.8,207.4,795.1,207.4z M727.7,205.7c-0.6,0-1.1-0.5-1.1-1.1v-0.1
		c0-0.6,0.5-1.1,1.1-1.1s1.1,0.5,1.1,1.1S728.3,205.7,727.7,205.7z M792.8,204.1L792.8,204.1c-0.7,0-1.2-0.5-1.2-1.1
		s0.5-1.1,1.1-1.1h0.1c0.6,0,1.1,0.5,1.1,1.1S793.4,204.1,792.8,204.1z M787.7,204.1L787.7,204.1c-0.7,0-1.2-0.5-1.2-1.1
		s0.5-1.1,1.1-1.1h0.1c0.6,0,1.1,0.5,1.1,1.1S788.3,204.1,787.7,204.1z M782.6,204.1L782.6,204.1c-0.7,0-1.2-0.5-1.2-1.1
		s0.5-1.1,1.1-1.1h0.1c0.6,0,1.1,0.5,1.1,1.1S783.2,204.1,782.6,204.1z M777.5,204.1c-0.6,0-1.1-0.5-1.1-1.1s0.5-1.1,1.1-1.1h0.1
		c0.6,0,1.1,0.5,1.1,1.1S778.1,204.1,777.5,204.1z M772.4,204.1L772.4,204.1c-0.7,0-1.2-0.5-1.2-1.1s0.5-1.1,1.1-1.1h0.1
		c0.6,0,1.1,0.5,1.1,1.1S773.1,204.1,772.4,204.1z M767.4,204.1L767.4,204.1c-0.7,0-1.2-0.5-1.2-1.1s0.5-1.1,1.1-1.1h0.1
		c0.6,0,1.1,0.5,1.1,1.1S768,204.1,767.4,204.1z M762.3,204.1L762.3,204.1c-0.7,0-1.2-0.5-1.2-1.1s0.5-1.1,1.1-1.1h0.1
		c0.6,0,1.1,0.5,1.1,1.1S762.9,204.1,762.3,204.1z M757.2,204.1L757.2,204.1c-0.7,0-1.2-0.5-1.2-1.1s0.5-1.1,1.1-1.1h0.1
		c0.6,0,1.1,0.5,1.1,1.1S757.8,204.1,757.2,204.1z M752.1,204.1L752.1,204.1c-0.7,0-1.2-0.5-1.2-1.1s0.5-1.1,1.1-1.1h0.1
		c0.6,0,1.1,0.5,1.1,1.1S752.7,204.1,752.1,204.1z M747,204.1L747,204.1c-0.7,0-1.2-0.5-1.2-1.1s0.5-1.1,1.1-1.1h0.1
		c0.6,0,1.1,0.5,1.1,1.1S747.6,204.1,747,204.1z M742,204.1L742,204.1c-0.7,0-1.2-0.5-1.2-1.1s0.5-1.1,1.1-1.1h0.1
		c0.6,0,1.1,0.5,1.1,1.1S742.6,204.1,742,204.1z M736.9,204.1L736.9,204.1c-0.7,0-1.2-0.5-1.2-1.1s0.5-1.1,1.1-1.1h0.1
		c0.6,0,1.1,0.5,1.1,1.1S737.5,204.1,736.9,204.1z M731.8,204.1L731.8,204.1c-0.7,0-1.2-0.5-1.2-1.1s0.5-1.1,1.1-1.1h0.1
		c0.6,0,1.1,0.5,1.1,1.1S732.4,204.1,731.8,204.1z"/>
</g>
<g>
	<g>
		<path class="st2" d="M747.1,215.4V208h1.1v7.4H747.1z"/>
	</g>
	<g>
		<path class="st2" d="M753.5,215.4v-3c0-0.4,0-1.7-1.4-1.7c-0.9,0-1.5,0.6-1.5,1.7v3h-1v-5.5h1v0.6l0,0c0.6-0.7,1.4-0.7,1.6-0.7
			c0.9,0,1.6,0.4,2,1c0.2,0.4,0.3,0.8,0.3,1.4v3.3h-1V215.4z"/>
	</g>
	<g>
		<path class="st2" d="M755.9,215.4v-4.6h-0.5v-0.9h0.5v-0.3c0-0.6,0.2-1,0.7-1.3c0.4-0.3,0.7-0.3,1.4-0.3v1c-0.7,0-1,0.2-1,0.6v0.3
			h1v0.9h-1v4.6H755.9z"/>
	</g>
	<g>
		<path class="st2" d="M758.6,215.4v-5.5h1v0.5l0,0c0.4-0.6,1.2-0.6,1.4-0.7v1.1c-0.2,0-0.5,0.1-0.8,0.2c-0.3,0.2-0.6,0.6-0.6,1.4v3
			H758.6z"/>
	</g>
	<g>
		<path class="st2" d="M766.3,215.4v-0.9l0,0c-0.4,0.7-1.1,1-1.9,1c-1.9,0-2.9-1.4-2.9-2.9c0-1.4,1-2.9,2.9-2.9
			c0.8,0,1.5,0.3,1.9,0.9l0,0v-0.8h1v5.5L766.3,215.4L766.3,215.4z M764.4,210.7c-1.3,0-1.9,1.1-1.9,2c0,1,0.8,2,1.9,2
			c1.1,0,1.9-0.9,1.9-2C766.4,211.5,765.5,210.7,764.4,210.7z"/>
	</g>
	<g>
		<path class="st2" d="M771.6,208h1.9c2.1,0,2.3,1.5,2.3,2.1c0,0.8-0.4,1.2-0.7,1.4c0.3,0.2,1.1,0.7,1.1,1.8c0,0.8-0.4,2.2-2.5,2.2
			h-2.2V208H771.6z M772.7,211.1h0.9c1,0,1.2-0.6,1.2-1c0-1.1-1-1.1-1.3-1.1h-0.8L772.7,211.1L772.7,211.1z M772.7,214.4h1.2
			c1.1,0,1.3-0.8,1.3-1.2c0-0.3-0.1-0.5-0.3-0.7c-0.3-0.4-0.8-0.5-1.2-0.5h-1V214.4z"/>
	</g>
</g>
<g>
	
		<linearGradient id="SVGID_8_" gradientUnits="userSpaceOnUse" x1="827.7" y1="-11.85" x2="897.3964" y2="-11.85" gradientTransform="matrix(1 0 0 -1 0 200)">
		<stop  offset="0" style="stop-color:#7CC4D3"/>
		<stop  offset="1" style="stop-color:#0CB1D3"/>
	</linearGradient>
	<path class="st11" d="M894.7,221.8L894.7,221.8L894.7,221.8c-0.7,0-1.2-0.5-1.2-1.1s0.5-1.1,1.1-1.1h0.1l0,0c0.6,0,1.1,0.5,1.1,1.1
		C895.8,221.3,895.3,221.8,894.7,221.8z M889.6,221.8L889.6,221.8c-0.7,0-1.2-0.5-1.2-1.1s0.5-1.1,1.1-1.1h0.1
		c0.6,0,1.1,0.5,1.1,1.1S890.2,221.8,889.6,221.8z M884.5,221.8L884.5,221.8c-0.7,0-1.2-0.5-1.2-1.1s0.5-1.1,1.1-1.1
		s1.1,0.5,1.1,1.1S885.2,221.8,884.5,221.8z M879.5,221.8L879.5,221.8c-0.7,0-1.2-0.5-1.2-1.1s0.5-1.1,1.1-1.1h0.1
		c0.6,0,1.1,0.5,1.1,1.1S880.1,221.8,879.5,221.8z M874.4,221.8L874.4,221.8c-0.7,0-1.2-0.5-1.2-1.1s0.5-1.1,1.1-1.1h0.1
		c0.6,0,1.1,0.5,1.1,1.1S875,221.8,874.4,221.8z M869.3,221.8L869.3,221.8c-0.7,0-1.2-0.5-1.2-1.1s0.5-1.1,1.1-1.1h0.1
		c0.6,0,1.1,0.5,1.1,1.1S869.9,221.8,869.3,221.8z M864.2,221.8L864.2,221.8c-0.7,0-1.2-0.5-1.2-1.1s0.5-1.1,1.1-1.1
		s1.1,0.5,1.1,1.1S864.8,221.8,864.2,221.8z M859.1,221.8L859.1,221.8c-0.7,0-1.2-0.5-1.2-1.1s0.5-1.1,1.1-1.1h0.1
		c0.6,0,1.1,0.5,1.1,1.1S859.7,221.8,859.1,221.8z M854.1,221.8L854.1,221.8c-0.7,0-1.2-0.5-1.2-1.1s0.5-1.1,1.1-1.1h0.1
		c0.6,0,1.1,0.5,1.1,1.1S854.7,221.8,854.1,221.8z M849,221.8L849,221.8c-0.7,0-1.2-0.5-1.2-1.1s0.5-1.1,1.1-1.1h0.1
		c0.6,0,1.1,0.5,1.1,1.1S849.6,221.8,849,221.8z M843.9,221.8L843.9,221.8c-0.7,0-1.2-0.5-1.2-1.1s0.5-1.1,1.1-1.1s1.1,0.5,1.1,1.1
		S844.5,221.8,843.9,221.8z M838.8,221.8L838.8,221.8c-0.7,0-1.2-0.5-1.2-1.1s0.5-1.1,1.1-1.1h0.1c0.6,0,1.1,0.5,1.1,1.1
		S839.4,221.8,838.8,221.8z M833.7,221.8L833.7,221.8c-0.7,0-1.2-0.5-1.2-1.1s0.5-1.1,1.1-1.1h0.1c0.6,0,1.1,0.5,1.1,1.1
		S834.3,221.8,833.7,221.8z M828.9,221c-0.4,0-0.8-0.2-1-0.6v-0.1c-0.3-0.6,0-1.2,0.5-1.5c0.6-0.3,1.2,0,1.5,0.5s0.1,1.2-0.5,1.5
		C829.3,220.9,829.1,221,828.9,221z M896.2,217.6c-0.6,0-1.1-0.5-1.1-1.1v-0.1c0-0.6,0.5-1.1,1.1-1.1s1.1,0.5,1.1,1.1v0.1
		C897.3,217.1,896.9,217.6,896.2,217.6z M828.8,215.9c-0.6,0-1.1-0.5-1.1-1.1v-0.1c0-0.6,0.5-1.1,1.1-1.1s1.1,0.5,1.1,1.1v0.1
		C829.9,215.4,829.4,215.9,828.8,215.9z M896.2,212.5c-0.6,0-1.1-0.5-1.1-1.1v-0.1c0-0.6,0.5-1.1,1.1-1.1s1.1,0.5,1.1,1.1v0.1
		C897.3,212,896.9,212.5,896.2,212.5z M828.8,210.8c-0.6,0-1.1-0.5-1.1-1.1v-0.1c0-0.6,0.5-1.1,1.1-1.1s1.1,0.5,1.1,1.1v0.1
		C829.9,210.3,829.4,210.8,828.8,210.8z M896.2,207.4c-0.6,0-1.1-0.5-1.1-1.1s0.5-1.1,1.1-1.1s1.1,0.5,1.1,1.1v0.1
		C897.3,206.9,896.9,207.4,896.2,207.4z M828.8,205.7c-0.6,0-1.1-0.5-1.1-1.1v-0.1c0-0.6,0.5-1.1,1.1-1.1s1.1,0.5,1.1,1.1
		S829.4,205.7,828.8,205.7z M893.9,204.1L893.9,204.1c-0.7,0-1.2-0.5-1.2-1.1s0.5-1.1,1.1-1.1h0.1c0.6,0,1.1,0.5,1.1,1.1
		S894.5,204.1,893.9,204.1z M888.8,204.1L888.8,204.1c-0.7,0-1.2-0.5-1.2-1.1s0.5-1.1,1.1-1.1h0.1c0.6,0,1.1,0.5,1.1,1.1
		S889.4,204.1,888.8,204.1z M883.7,204.1L883.7,204.1c-0.7,0-1.2-0.5-1.2-1.1s0.5-1.1,1.1-1.1h0.1c0.6,0,1.1,0.5,1.1,1.1
		S884.3,204.1,883.7,204.1z M878.6,204.1c-0.6,0-1.1-0.5-1.1-1.1s0.5-1.1,1.1-1.1h0.1c0.6,0,1.1,0.5,1.1,1.1
		S879.2,204.1,878.6,204.1z M873.5,204.1L873.5,204.1c-0.7,0-1.2-0.5-1.2-1.1s0.5-1.1,1.1-1.1h0.1c0.6,0,1.1,0.5,1.1,1.1
		S874.1,204.1,873.5,204.1z M868.5,204.1L868.5,204.1c-0.7,0-1.2-0.5-1.2-1.1s0.5-1.1,1.1-1.1h0.1c0.6,0,1.1,0.5,1.1,1.1
		S869.1,204.1,868.5,204.1z M863.4,204.1L863.4,204.1c-0.7,0-1.2-0.5-1.2-1.1s0.5-1.1,1.1-1.1h0.1c0.6,0,1.1,0.5,1.1,1.1
		S864,204.1,863.4,204.1z M858.3,204.1L858.3,204.1c-0.7,0-1.2-0.5-1.2-1.1s0.5-1.1,1.1-1.1h0.1c0.6,0,1.1,0.5,1.1,1.1
		S858.9,204.1,858.3,204.1z M853.2,204.1L853.2,204.1c-0.7,0-1.2-0.5-1.2-1.1s0.5-1.1,1.1-1.1h0.1c0.6,0,1.1,0.5,1.1,1.1
		S853.8,204.1,853.2,204.1z M848.1,204.1L848.1,204.1c-0.7,0-1.2-0.5-1.2-1.1s0.5-1.1,1.1-1.1h0.1c0.6,0,1.1,0.5,1.1,1.1
		S848.7,204.1,848.1,204.1z M843.1,204.1L843.1,204.1c-0.7,0-1.2-0.5-1.2-1.1s0.5-1.1,1.1-1.1h0.1c0.6,0,1.1,0.5,1.1,1.1
		S843.7,204.1,843.1,204.1z M838,204.1L838,204.1c-0.7,0-1.2-0.5-1.2-1.1s0.5-1.1,1.1-1.1h0.1c0.6,0,1.1,0.5,1.1,1.1
		S838.6,204.1,838,204.1z M832.9,204.1L832.9,204.1c-0.7,0-1.2-0.5-1.2-1.1s0.5-1.1,1.1-1.1h0.1c0.6,0,1.1,0.5,1.1,1.1
		S833.5,204.1,832.9,204.1z"/>
</g>
<g>
	<g>
		<path class="st2" d="M847.3,215.4V208h1.1v7.4H847.3z"/>
	</g>
	<g>
		<path class="st2" d="M853.7,215.4v-3c0-0.4,0-1.7-1.4-1.7c-0.9,0-1.5,0.6-1.5,1.7v3h-1v-5.5h1v0.6l0,0c0.6-0.7,1.4-0.7,1.6-0.7
			c0.9,0,1.6,0.4,2,1c0.2,0.4,0.3,0.8,0.3,1.4v3.3h-1V215.4z"/>
	</g>
	<g>
		<path class="st2" d="M856.1,215.4v-4.6h-0.5v-0.9h0.5v-0.3c0-0.6,0.2-1,0.7-1.3c0.4-0.3,0.7-0.3,1.4-0.3v1c-0.7,0-1,0.2-1,0.6v0.3
			h1v0.9h-1v4.6H856.1z"/>
	</g>
	<g>
		<path class="st2" d="M858.8,215.4v-5.5h1v0.5l0,0c0.4-0.6,1.2-0.6,1.4-0.7v1.1c-0.2,0-0.5,0.1-0.8,0.2c-0.3,0.2-0.6,0.6-0.6,1.4v3
			H858.8z"/>
	</g>
	<g>
		<path class="st2" d="M866.6,215.4v-0.9l0,0c-0.4,0.7-1.1,1-1.9,1c-1.9,0-2.9-1.4-2.9-2.9c0-1.4,1-2.9,2.9-2.9
			c0.8,0,1.5,0.3,1.9,0.9l0,0v-0.8h1v5.5L866.6,215.4L866.6,215.4z M864.7,210.7c-1.3,0-1.9,1.1-1.9,2c0,1,0.8,2,1.9,2
			c1.1,0,1.9-0.9,1.9-2C866.6,211.5,865.7,210.7,864.7,210.7z"/>
	</g>
	<g>
		<path class="st2" d="M877.3,209.9c-0.2-0.2-0.9-1-2.1-1c-1.5,0-2.8,1.3-2.8,2.8c0,1.6,1.3,2.9,2.7,2.9c0.8,0,1.5-0.4,2-1h1.3
			c-0.8,1.5-2.2,2-3.4,2c-2.1,0-3.8-1.8-3.8-3.9c0-2.2,1.7-3.8,3.8-3.8c0.6,0,1.5,0.1,2.3,0.7c0.7,0.5,1,1,1.1,1.3H877.3z"/>
	</g>
</g>
<g>
	
		<linearGradient id="SVGID_9_" gradientUnits="userSpaceOnUse" x1="660.1" y1="22.1564" x2="763.4" y2="22.1564" gradientTransform="matrix(1 0 0 -1 0 200)">
		<stop  offset="0" style="stop-color:#7CC4D3"/>
		<stop  offset="1" style="stop-color:#0CB1D3"/>
	</linearGradient>
	<path class="st12" d="M662.3,203.2l-2.2-0.3v-0.1c0.1-0.6,0.7-1,1.3-0.9C662,202,662.4,202.5,662.3,203.2l-1.1-0.2L662.3,203.2z
		 M663.1,199.5c-0.2,0-0.4-0.1-0.6-0.2c-0.5-0.3-0.6-1-0.3-1.5s1.1-0.7,1.6-0.3c0.5,0.3,0.7,1,0.3,1.5v0.1
		C663.8,199.3,663.5,199.5,663.1,199.5z M666.5,195.8c-0.3,0-0.6-0.1-0.8-0.4c-0.4-0.5-0.3-1.2,0.1-1.6c0.5-0.4,1.2-0.4,1.6,0.1
		s0.4,1.2-0.1,1.5l0,0C667,195.7,666.8,195.8,666.5,195.8z M670.7,192.9c-0.4,0-0.8-0.2-1-0.5c-0.3-0.5-0.1-1.2,0.4-1.5h0.1
		c0.5-0.3,1.2-0.1,1.5,0.4s0.1,1.2-0.4,1.5l0,0C671,192.8,670.8,192.9,670.7,192.9z M675.2,190.7c-0.4,0-0.9-0.3-1-0.7
		c-0.2-0.6,0.1-1.2,0.6-1.4c0.6-0.2,1.2,0,1.5,0.6c0.2,0.6,0,1.2-0.6,1.4h-0.1C675.5,190.7,675.3,190.7,675.2,190.7z M680,189
		c-0.5,0-0.9-0.3-1.1-0.8c-0.2-0.6,0.2-1.2,0.8-1.4c0.6-0.2,1.2,0.2,1.4,0.8c0.2,0.6-0.1,1.2-0.7,1.4h-0.1
		C680.2,189,680.1,189,680,189z M684.9,187.8c-0.5,0-1-0.3-1.1-0.9c-0.1-0.6,0.2-1.2,0.8-1.3h0.1c0.6-0.1,1.2,0.3,1.3,0.9
		c0.1,0.6-0.3,1.2-0.9,1.3l-0.2-1.1l0.2,1.1C685,187.8,684.9,187.8,684.9,187.8z M689.8,186.9c-0.5,0-1-0.4-1.1-0.9
		c-0.1-0.6,0.3-1.2,0.9-1.3h0.1c0.6-0.1,1.2,0.3,1.3,0.9c0.1,0.6-0.3,1.2-0.9,1.3l-0.2-1.1l0.1,1.1
		C690,186.9,689.9,186.9,689.8,186.9z M694.8,186.3c-0.6,0-1.1-0.4-1.1-1c-0.1-0.6,0.4-1.2,1-1.2c0.6-0.1,1.2,0.4,1.2,1
		c0.1,0.6-0.4,1.2-1,1.2H694.8C694.9,186.2,694.9,186.3,694.8,186.3z M699.9,185.8c-0.6,0-1.1-0.5-1.1-1c0-0.6,0.4-1.1,1-1.2
		c0.6,0,1.2,0.4,1.2,1S700.6,185.7,699.9,185.8L699.9,185.8L699.9,185.8z M704.9,185.6c-0.6,0-1.1-0.5-1.1-1.1s0.5-1.1,1.1-1.1
		c0.6,0,1.2,0.5,1.2,1.1S705.6,185.6,704.9,185.6L704.9,185.6L704.9,185.6z M710,185.5L710,185.5c-0.7,0-1.2-0.5-1.2-1.1
		s0.5-1.1,1.1-1.1c0.6,0,1.1,0.5,1.1,1.1S710.6,185.5,710,185.5z M715,185.4c-0.6,0-1.1-0.5-1.1-1.1s0.5-1.1,1.1-1.1
		s1.1,0.5,1.2,1.1c0,0.6-0.4,1.1-1,1.2C715.1,185.4,715.1,185.4,715,185.4C715.1,185.4,715,185.4,715,185.4z M720.1,185
		c-0.6,0-1-0.4-1.1-1s0.4-1.2,1-1.2h0.1c0.6,0,1.2,0.4,1.2,1c0.1,0.6-0.4,1.2-1,1.2l-0.1-1.1l0.1,1.1C720.2,185,720.1,185,720.1,185
		z M725.1,184.4c-0.5,0-1-0.4-1.1-0.9c-0.1-0.6,0.3-1.2,0.9-1.3c0.6-0.1,1.2,0.3,1.3,0.9c0.1,0.6-0.3,1.2-0.9,1.3H725.1
		C725.2,184.4,725.1,184.4,725.1,184.4z M730,183.4c-0.5,0-1-0.3-1.1-0.9c-0.1-0.6,0.2-1.2,0.8-1.3c0.6-0.1,1.2,0.2,1.4,0.8
		c0.1,0.6-0.2,1.2-0.8,1.3h-0.1C730.2,183.4,730.1,183.4,730,183.4z M734.9,182c-0.5,0-0.9-0.3-1.1-0.8c-0.2-0.6,0.2-1.2,0.7-1.4
		c0.6-0.2,1.2,0.1,1.4,0.7c0.2,0.6-0.1,1.2-0.7,1.4h-0.1C735.1,182,735,182,734.9,182z M739.6,180.3c-0.4,0-0.8-0.2-1-0.7
		c-0.2-0.6,0-1.2,0.6-1.5h0.1c0.6-0.2,1.2,0,1.5,0.6c0.2,0.6,0,1.2-0.6,1.5l-0.4-1l0.4,1C739.9,180.2,739.8,180.3,739.6,180.3z
		 M744.1,178c-0.4,0-0.8-0.2-1-0.6c-0.3-0.5-0.1-1.2,0.4-1.5s1.2-0.1,1.5,0.4s0.1,1.2-0.4,1.5h-0.1C744.5,178,744.3,178,744.1,178z
		 M748.4,175.3c-0.3,0-0.7-0.2-0.9-0.4c-0.4-0.5-0.3-1.2,0.2-1.6h0.1c0.5-0.4,1.2-0.2,1.6,0.3c0.4,0.5,0.2,1.2-0.3,1.6l0,0
		C748.9,175.3,748.6,175.3,748.4,175.3z M752.3,172.1c-0.3,0-0.6-0.1-0.8-0.3c-0.4-0.4-0.4-1.1,0-1.6l0.1-0.1
		c0.5-0.4,1.2-0.4,1.6,0.1c0.4,0.5,0.4,1.2-0.1,1.6l-0.8-0.8l0.7,0.8C752.9,172,752.6,172.1,752.3,172.1z M755.7,168.4
		c-0.3,0-0.5-0.1-0.7-0.3c-0.5-0.4-0.5-1.1-0.1-1.6s1.1-0.6,1.6-0.2c0.5,0.4,0.6,1.1,0.2,1.6l-0.1,0.1
		C756.3,168.3,756,168.4,755.7,168.4z M758.6,164.2c-0.2,0-0.4-0.1-0.6-0.2c-0.5-0.3-0.7-1-0.4-1.5s1-0.7,1.5-0.4s0.7,1,0.4,1.5v0.1
		C759.3,164,759,164.2,758.6,164.2z M760.8,159.7c-0.1,0-0.3,0-0.4-0.1c-0.6-0.2-0.8-0.9-0.6-1.5s0.9-0.9,1.4-0.6
		c0.6,0.2,0.9,0.8,0.6,1.4v0.1C761.7,159.4,761.2,159.7,760.8,159.7z M762.2,154.8c-0.1,0-0.1,0-0.2,0c-0.6-0.1-1-0.6-0.9-1.3
		c0.1-0.6,0.6-1.1,1.3-1c0.6,0.1,1,0.6,1,1.2v0.1C763.2,154.4,762.8,154.8,762.2,154.8z"/>
</g>
<g>
	
		<linearGradient id="SVGID_10_" gradientUnits="userSpaceOnUse" x1="761.0847" y1="21.7077" x2="864.4153" y2="21.7077" gradientTransform="matrix(1 0 0 -1 0 200)">
		<stop  offset="0" style="stop-color:#0CB1D3"/>
		<stop  offset="1" style="stop-color:#7CC4D3"/>
	</linearGradient>
	<path class="st13" d="M863.3,204.1c-0.5,0-1-0.4-1.1-0.9c-0.1-0.6,0.3-1.2,0.9-1.3c0.6-0.1,1.2,0.3,1.3,0.9v0.1
		c0.1,0.6-0.3,1.2-0.9,1.3C863.4,204.1,863.3,204.1,863.3,204.1z M861.3,199.5c-0.4,0-0.7-0.2-0.9-0.5v-0.1
		c-0.3-0.5-0.2-1.2,0.3-1.5s1.2-0.2,1.5,0.3l0,0c0.3,0.5,0.2,1.2-0.3,1.5C861.7,199.4,861.5,199.5,861.3,199.5z M857.9,195.8
		c-0.3,0-0.5-0.1-0.7-0.3c-0.5-0.4-0.5-1.1-0.2-1.6c0.4-0.5,1.1-0.5,1.5-0.1l0,0c0.5,0.4,0.5,1.1,0.1,1.6
		C858.5,195.6,858.2,195.8,857.9,195.8z M853.8,192.9c-0.2,0-0.4,0-0.6-0.2c-0.5-0.3-0.7-1-0.4-1.5s1-0.7,1.5-0.4h0.1
		c0.5,0.3,0.7,1,0.4,1.5C854.5,192.7,854.2,192.9,853.8,192.9z M849.2,190.7c-0.1,0-0.3,0-0.4-0.1h-0.1c-0.6-0.2-0.8-0.9-0.6-1.4
		c0.2-0.6,0.9-0.8,1.4-0.6l-0.4,1l0.5-1c0.6,0.2,0.9,0.9,0.6,1.4C850.1,190.4,849.7,190.7,849.2,190.7z M844.5,189
		c-0.1,0-0.2,0-0.3,0h-0.1c-0.6-0.2-0.9-0.8-0.7-1.4c0.2-0.6,0.8-0.9,1.4-0.7l-0.3,1.1l0.4-1.1c0.6,0.2,0.9,0.8,0.8,1.4
		C845.4,188.7,844.9,189,844.5,189z M839.6,187.8c-0.1,0-0.2,0-0.3,0c-0.6-0.1-1-0.7-0.9-1.3s0.7-1,1.3-0.9h0.1
		c0.6,0.1,1,0.7,0.8,1.3C840.5,187.5,840.1,187.8,839.6,187.8z M834.6,186.9c-0.1,0-0.1,0-0.2,0c-0.6-0.1-1-0.7-0.9-1.3
		s0.6-1,1.2-0.9h0.1c0.6,0.1,1,0.7,0.9,1.3C835.6,186.5,835.1,186.9,834.6,186.9z M829.6,186.3C829.6,186.3,829.5,186.2,829.6,186.3
		h-0.2c-0.6-0.1-1-0.6-1-1.2c0.1-0.6,0.6-1.1,1.2-1l-0.1,1.1l0.2-1.1c0.6,0.1,1.1,0.6,1,1.2C830.6,185.8,830.2,186.3,829.6,186.3z
		 M824.6,185.8C824.5,185.8,824.5,185.8,824.6,185.8c-0.7,0-1.2-0.6-1.1-1.2c0-0.6,0.5-1.1,1.1-1h0.1c0.6,0,1.1,0.6,1,1.2
		S825.1,185.8,824.6,185.8z M819.5,185.6L819.5,185.6c-0.6,0-1.2-0.5-1.1-1.1c0-0.6,0.5-1.1,1.1-1.1h0.1c0.6,0,1.1,0.5,1.1,1.1
		C820.6,185.1,820.1,185.6,819.5,185.6z M814.5,185.5c-0.6,0-1.1-0.5-1.1-1.1s0.5-1.1,1.1-1.1h0.1c0.6,0,1.1,0.5,1.1,1.1
		S815.1,185.5,814.5,185.5z M809.4,185.4L809.4,185.4L809.4,185.4c-0.7,0-1.2-0.6-1.1-1.2c0-0.6,0.6-1.1,1.2-1l-0.1,1.1l0.1-1.1
		c0.6,0,1.1,0.5,1.1,1.1C810.5,184.9,810,185.4,809.4,185.4z M804.4,185L804.4,185c-0.7-0.1-1.2-0.6-1.1-1.2c0.1-0.6,0.6-1.1,1.2-1
		h0.1c0.6,0.1,1,0.6,1,1.2C805.4,184.6,804.9,185,804.4,185z M799.4,184.4c-0.1,0-0.1,0-0.2,0h-0.1c-0.6-0.1-1-0.7-0.9-1.3
		s0.7-1,1.3-0.9l-0.2,1.1l0.2-1.1c0.6,0.1,1,0.7,0.9,1.3C800.4,184,799.9,184.4,799.4,184.4z M794.4,183.4c-0.1,0-0.2,0-0.3,0H794
		c-0.6-0.1-1-0.7-0.8-1.3c0.1-0.6,0.7-1,1.3-0.8l0,0c0.6,0.1,1,0.7,0.8,1.3C795.4,183,794.9,183.4,794.4,183.4z M789.5,182
		c-0.1,0-0.2,0-0.3,0h-0.1c-0.6-0.2-0.9-0.8-0.7-1.4c0.2-0.6,0.8-0.9,1.4-0.7l-0.4,1.1l0.4-1c0.6,0.2,0.9,0.8,0.7,1.4
		C790.4,181.7,790,182,789.5,182z M784.8,180.3c-0.1,0-0.3,0-0.4-0.1c-0.6-0.2-0.8-0.9-0.6-1.5s0.9-0.8,1.4-0.6h0.1
		c0.6,0.2,0.8,0.9,0.6,1.5C785.6,180,785.2,180.3,784.8,180.3z M780.3,178c-0.2,0-0.4,0-0.5-0.1h-0.1c-0.5-0.3-0.7-1-0.4-1.5
		s1-0.7,1.5-0.4l-0.5,1l0.6-0.9c0.5,0.3,0.7,1,0.4,1.5C781.1,177.8,780.7,178,780.3,178z M776,175.3c-0.2,0-0.5-0.1-0.7-0.2
		c-0.5-0.4-0.6-1.1-0.3-1.6c0.4-0.5,1-0.6,1.5-0.3h0.1c0.5,0.4,0.6,1.1,0.2,1.6C776.7,175.2,776.4,175.3,776,175.3z M772.1,172.1
		c-0.3,0-0.6-0.1-0.8-0.3c-0.4-0.4-0.5-1.1,0-1.6c0.4-0.4,1.1-0.5,1.5-0.1l0.1,0.1c0.4,0.4,0.4,1.1,0,1.6
		C772.7,172,772.4,172.1,772.1,172.1z M768.7,168.4c-0.3,0-0.6-0.1-0.8-0.4l-0.1-0.1c-0.4-0.5-0.3-1.2,0.2-1.6
		c0.5-0.4,1.2-0.3,1.6,0.2l-0.9,0.7l0.9-0.7c0.4,0.5,0.3,1.2-0.2,1.6C769.2,168.3,768.9,168.4,768.7,168.4z M765.8,164.2
		c-0.4,0-0.7-0.2-1-0.5v-0.1c-0.3-0.5-0.1-1.2,0.4-1.5s1.2-0.1,1.5,0.4l-1,0.6l1-0.5c0.3,0.5,0.1,1.2-0.4,1.5
		C766.2,164.2,766,164.2,765.8,164.2z M763.6,159.7c-0.4,0-0.8-0.3-1-0.7v-0.1c-0.2-0.6,0.1-1.2,0.7-1.4c0.6-0.2,1.2,0.1,1.4,0.7
		l-1,0.4l1-0.4c0.2,0.6,0,1.2-0.6,1.4C763.9,159.6,763.8,159.7,763.6,159.7z M762.2,154.8c-0.5,0-1-0.4-1.1-1v-0.1
		c-0.1-0.6,0.3-1.2,0.9-1.3c0.6-0.1,1.2,0.3,1.3,0.9v0.1c0.1,0.6-0.3,1.2-0.9,1.3C762.3,154.8,762.3,154.8,762.2,154.8z"/>
</g>
<g>
	
		<linearGradient id="SVGID_11_" gradientUnits="userSpaceOnUse" x1="762.2" y1="-4.2" x2="762.2" y2="43.6" gradientTransform="matrix(1 0 0 -1 0 200)">
		<stop  offset="0" style="stop-color:#7CC4D3"/>
		<stop  offset="1" style="stop-color:#0CB1D3"/>
	</linearGradient>
	<path class="st14" d="M762.2,204.2c-0.6,0-1.1-0.5-1.1-1.1V203c0-0.6,0.5-1.1,1.1-1.1s1.1,0.5,1.1,1.1
		C763.3,203.7,762.8,204.2,762.2,204.2z M762.2,199.2c-0.6,0-1.1-0.5-1.1-1.1V198c0-0.6,0.5-1.1,1.1-1.1s1.1,0.5,1.1,1.1v0.1
		C763.3,198.7,762.8,199.2,762.2,199.2z M762.2,194.1c-0.6,0-1.1-0.5-1.1-1.1l0,0c0-0.6,0.5-1.1,1.1-1.1s1.1,0.5,1.1,1.1
		S762.8,194.1,762.2,194.1z M762.2,189.1c-0.6,0-1.1-0.5-1.1-1.1v-0.1c0-0.6,0.5-1.1,1.1-1.1s1.1,0.5,1.1,1.1v0.1
		C763.3,188.6,762.8,189.1,762.2,189.1z M762.2,184c-0.6,0-1.1-0.5-1.1-1.1v-0.1c0-0.6,0.5-1.1,1.1-1.1s1.1,0.5,1.1,1.1
		C763.3,183.5,762.8,184,762.2,184z M762.2,179c-0.6,0-1.1-0.5-1.1-1.1v-0.1c0-0.6,0.5-1.1,1.1-1.1s1.1,0.5,1.1,1.1
		S762.8,179,762.2,179z M762.2,173.9c-0.6,0-1.1-0.5-1.1-1.1v-0.1c0-0.6,0.5-1.1,1.1-1.1s1.1,0.5,1.1,1.1v0.1
		C763.3,173.4,762.8,173.9,762.2,173.9z M762.2,168.8c-0.6,0-1.1-0.5-1.1-1.1v-0.1c0-0.6,0.5-1.1,1.1-1.1s1.1,0.5,1.1,1.1
		S762.8,168.8,762.2,168.8z M762.2,163.8c-0.6,0-1.1-0.5-1.1-1.1v-0.1c0-0.6,0.5-1.1,1.1-1.1s1.1,0.5,1.1,1.1v0.1
		C763.3,163.3,762.8,163.8,762.2,163.8z M762.2,158.7c-0.6,0-1.1-0.5-1.1-1.1v-0.1c0-0.6,0.5-1.1,1.1-1.1s1.1,0.5,1.1,1.1
		S762.8,158.7,762.2,158.7z"/>
</g>
<g>
	
		<linearGradient id="SVGID_12_" gradientUnits="userSpaceOnUse" x1="509.9" y1="166.6" x2="666.2" y2="166.6" gradientTransform="matrix(1 0 0 -1 0 200)">
		<stop  offset="0" style="stop-color:#FBED1D"/>
		<stop  offset="1" style="stop-color:#F05A2A"/>
	</linearGradient>
	<path class="st15" d="M663.5,50.2c-0.6,0-1.1-0.5-1.1-1.1s0.5-1.1,1.1-1.1h0.1c0.6,0,1.1,0.5,1.1,1.1S664.1,50.2,663.5,50.2
		l0.1-1.1L663.5,50.2L663.5,50.2z M658.5,50.2L658.5,50.2c-0.7,0-1.2-0.5-1.2-1.1s0.5-1.1,1.1-1.1c0.6,0,1.1,0.5,1.1,1.1
		C659.6,49.7,659.1,50.2,658.5,50.2z M653.4,50.2L653.4,50.2c-0.7,0-1.2-0.5-1.2-1.1s0.5-1.1,1.1-1.1s1.1,0.5,1.1,1.1
		C654.5,49.7,654,50.2,653.4,50.2z M648.4,50.2L648.4,50.2c-0.7,0-1.2-0.5-1.2-1.1s0.5-1.1,1.1-1.1s1.1,0.5,1.1,1.1
		C649.5,49.7,649,50.2,648.4,50.2z M643.3,50.2L643.3,50.2c-0.7,0-1.2-0.5-1.2-1.1s0.5-1.1,1.1-1.1c0.6,0,1.1,0.5,1.1,1.1
		C644.4,49.7,644,50.2,643.3,50.2z M638.3,50.2L638.3,50.2c-0.7,0-1.2-0.5-1.2-1.1s0.5-1.1,1.1-1.1c0.6,0,1.1,0.5,1.1,1.1
		C639.4,49.7,638.9,50.2,638.3,50.2z M633.3,50.2L633.3,50.2c-0.7,0-1.2-0.5-1.2-1.1s0.5-1.1,1.1-1.1h0.1c0.6,0,1.1,0.5,1.1,1.1
		S633.9,50.2,633.3,50.2z M628.2,50.2L628.2,50.2c-0.7,0-1.2-0.5-1.2-1.1s0.5-1.1,1.1-1.1c0.6,0,1.1,0.5,1.1,1.1
		C629.3,49.7,628.8,50.2,628.2,50.2z M623.2,50.2L623.2,50.2c-0.7,0-1.2-0.5-1.2-1.1s0.5-1.1,1.1-1.1c0.6,0,1.1,0.5,1.1,1.1
		S623.8,50.2,623.2,50.2z M618.1,50.2L618.1,50.2c-0.7,0-1.2-0.5-1.2-1.1s0.5-1.1,1.1-1.1s1.1,0.5,1.1,1.1
		C619.2,49.7,618.7,50.2,618.1,50.2z M613.1,50.2L613.1,50.2c-0.7,0-1.2-0.5-1.2-1.1s0.5-1.1,1.1-1.1s1.1,0.5,1.1,1.1
		C614.2,49.7,613.7,50.2,613.1,50.2z M608,50.2L608,50.2c-0.7,0-1.2-0.5-1.2-1.1s0.5-1.1,1.1-1.1h0.1c0.6,0,1.1,0.5,1.1,1.1
		S608.6,50.2,608,50.2z M603,50.2L603,50.2c-0.7,0-1.2-0.5-1.2-1.1s0.5-1.1,1.1-1.1c0.6,0,1.1,0.5,1.1,1.1
		C604.1,49.7,603.6,50.2,603,50.2z M597.9,50.2L597.9,50.2c-0.7,0-1.2-0.5-1.2-1.1s0.5-1.1,1.1-1.1s1.1,0.5,1.1,1.1
		C599,49.7,598.6,50.2,597.9,50.2z M592.9,50.2L592.9,50.2c-0.7,0-1.2-0.5-1.2-1.1s0.5-1.1,1.1-1.1h0.1c0.6,0,1.1,0.5,1.1,1.1
		S593.5,50.2,592.9,50.2z M587.9,50.2L587.9,50.2c-0.7,0-1.2-0.5-1.2-1.1s0.5-1.1,1.1-1.1s1.1,0.5,1.1,1.1S588.5,50.2,587.9,50.2z
		 M582.8,50.2L582.8,50.2c-0.7,0-1.2-0.5-1.2-1.1s0.5-1.1,1.1-1.1c0.6,0,1.1,0.5,1.1,1.1C583.9,49.7,583.4,50.2,582.8,50.2z
		 M577.8,50.2L577.8,50.2c-0.7,0-1.2-0.5-1.2-1.1s0.5-1.1,1.1-1.1c0.6,0,1.1,0.5,1.1,1.1C578.9,49.7,578.4,50.2,577.8,50.2z
		 M572.7,50.2L572.7,50.2c-0.7,0-1.2-0.5-1.2-1.1s0.5-1.1,1.1-1.1c0.6,0,1.1,0.5,1.1,1.1C573.8,49.7,573.3,50.2,572.7,50.2z
		 M567.7,50.2L567.7,50.2c-0.7,0-1.2-0.5-1.2-1.1s0.5-1.1,1.1-1.1h0.1c0.6,0,1.1,0.5,1.1,1.1C568.8,49.7,568.3,50.2,567.7,50.2z
		 M562.6,50.2L562.6,50.2c-0.7,0-1.2-0.5-1.2-1.1s0.5-1.1,1.1-1.1h0.1c0.6,0,1.1,0.5,1.1,1.1S563.2,50.2,562.6,50.2z M557.6,50.2
		L557.6,50.2c-0.7,0-1.2-0.5-1.2-1.1s0.5-1.1,1.1-1.1s1.1,0.5,1.1,1.1C558.7,49.7,558.2,50.2,557.6,50.2z M552.5,50.2L552.5,50.2
		c-0.7,0-1.2-0.5-1.2-1.1s0.5-1.1,1.1-1.1c0.6,0,1.1,0.5,1.1,1.1C553.6,49.7,553.2,50.2,552.5,50.2z M547.5,50.2L547.5,50.2
		c-0.7,0-1.2-0.5-1.2-1.1s0.5-1.1,1.1-1.1c0.6,0,1.1,0.5,1.1,1.1C548.6,49.7,548.1,50.2,547.5,50.2z M542.5,50.2L542.5,50.2
		c-0.7,0-1.2-0.5-1.2-1.1s0.5-1.1,1.1-1.1c0.6,0,1.1,0.5,1.1,1.1S543.1,50.2,542.5,50.2z M537.4,50.2L537.4,50.2
		c-0.7,0-1.2-0.5-1.2-1.1s0.5-1.1,1.1-1.1h0.1c0.6,0,1.1,0.5,1.1,1.1S538,50.2,537.4,50.2z M532.4,50.2L532.4,50.2
		c-0.7,0-1.2-0.5-1.2-1.1s0.5-1.1,1.1-1.1h0.1c0.6,0,1.1,0.5,1.1,1.1S533,50.2,532.4,50.2z M527.3,50.2L527.3,50.2
		c-0.7,0-1.2-0.5-1.2-1.1s0.5-1.1,1.1-1.1c0.6,0,1.1,0.5,1.1,1.1C528.4,49.7,527.9,50.2,527.3,50.2z M522.3,50.2L522.3,50.2
		c-0.7,0-1.2-0.5-1.2-1.1s0.5-1.1,1.1-1.1c0.6,0,1.1,0.5,1.1,1.1C523.4,49.7,522.9,50.2,522.3,50.2z M517.2,50.2L517.2,50.2
		c-0.7,0-1.2-0.5-1.2-1.1s0.5-1.1,1.1-1.1c0.6,0,1.1,0.5,1.1,1.1C518.3,49.7,517.9,50.2,517.2,50.2z M512.2,50.1c-0.1,0-0.1,0-0.2,0
		h-0.1c-0.6-0.2-1-0.8-0.8-1.4s0.8-1,1.4-0.8c0.6,0.2,1,0.7,0.8,1.3S512.7,50.1,512.2,50.1z M665.1,46.1c-0.6,0-1.1-0.5-1.1-1.1
		s0.5-1.1,1.1-1.1c0.6,0,1.1,0.5,1.1,1.1v0.1C666.2,45.6,665.7,46.1,665.1,46.1z M511,45.7c-0.6,0-1.1-0.5-1.1-1.1v-0.1
		c0-0.6,0.5-1.1,1.1-1.1s1.1,0.5,1.1,1.1S511.6,45.7,511,45.7z M665.1,41c-0.6,0-1.1-0.5-1.1-1.1s0.5-1.1,1.1-1.1
		c0.6,0,1.1,0.5,1.1,1.1V40C666.2,40.5,665.7,41,665.1,41z M511,40.6c-0.6,0-1.1-0.5-1.1-1.1v-0.1c0-0.6,0.5-1.1,1.1-1.1
		s1.1,0.5,1.1,1.1S511.6,40.6,511,40.6z M665.1,36c-0.6,0-1.1-0.5-1.1-1.1s0.5-1.1,1.1-1.1c0.6,0,1.1,0.5,1.1,1.1V35
		C666.2,35.5,665.7,36,665.1,36z M511,35.6c-0.6,0-1.1-0.5-1.1-1.1v-0.1c0-0.6,0.5-1.1,1.1-1.1s1.1,0.5,1.1,1.1v0.1
		C512.1,35.1,511.6,35.6,511,35.6z M665.1,30.9c-0.6,0-1.1-0.5-1.1-1.1v-0.1c0-0.6,0.5-1.1,1.1-1.1c0.6,0,1.1,0.5,1.1,1.1v0.1
		C666.2,30.4,665.7,30.9,665.1,30.9z M511,30.5c-0.6,0-1.1-0.5-1.1-1.1v-0.1c0-0.6,0.5-1.1,1.1-1.1s1.1,0.5,1.1,1.1
		C512.1,30,511.6,30.5,511,30.5z M665.1,25.9c-0.6,0-1.1-0.5-1.1-1.1v-0.1c0-0.6,0.5-1.1,1.1-1.1c0.6,0,1.1,0.5,1.1,1.1v0.1
		C666.2,25.4,665.7,25.9,665.1,25.9z M511,25.5c-0.6,0-1.1-0.5-1.1-1.1v-0.1c0-0.6,0.5-1.1,1.1-1.1s1.1,0.5,1.1,1.1
		S511.6,25.5,511,25.5z M665.1,20.8c-0.6,0-1.1-0.5-1.1-1.1s0.5-1.1,1.1-1.1c0.6,0,1.1,0.5,1.1,1.1v0.1
		C666.2,20.3,665.7,20.8,665.1,20.8z M511,20.4c-0.6,0-1.1-0.5-1.1-1.1v-0.1c0-0.6,0.5-1.1,1.1-1.1s1.1,0.5,1.1,1.1
		C512.1,19.9,511.6,20.4,511,20.4z M661.4,18.8c-0.6,0-1.1-0.5-1.1-1.1s0.5-1.1,1.1-1.1h0.1c0.6,0,1.1,0.5,1.1,1.1
		S662,18.8,661.4,18.8z M656.3,18.8c-0.6,0-1.1-0.5-1.1-1.1s0.5-1.1,1.1-1.1h0.1c0.6,0,1.1,0.5,1.1,1.1S656.9,18.8,656.3,18.8z
		 M651.3,18.8c-0.6,0-1.1-0.5-1.1-1.1s0.5-1.1,1.1-1.1h0.1c0.6,0,1.1,0.5,1.1,1.1S651.9,18.8,651.3,18.8z M646.2,18.8
		c-0.6,0-1.1-0.5-1.1-1.1s0.5-1.1,1.1-1.1h0.1c0.6,0,1.1,0.5,1.1,1.1S646.9,18.8,646.2,18.8z M641.2,18.8c-0.6,0-1.1-0.5-1.1-1.1
		s0.5-1.1,1.1-1.1h0.1c0.6,0,1.1,0.5,1.1,1.1S641.8,18.8,641.2,18.8z M636.2,18.8L636.2,18.8c-0.7,0-1.2-0.5-1.2-1.1
		s0.5-1.1,1.1-1.1h0.1c0.6,0,1.1,0.5,1.1,1.1S636.8,18.8,636.2,18.8z M631.1,18.8c-0.6,0-1.1-0.5-1.1-1.1s0.5-1.1,1.1-1.1h0.1
		c0.6,0,1.1,0.5,1.1,1.1S631.7,18.8,631.1,18.8z M626.1,18.8c-0.6,0-1.1-0.5-1.1-1.1s0.5-1.1,1.1-1.1h0.1c0.6,0,1.1,0.5,1.1,1.1
		S626.7,18.8,626.1,18.8z M621,18.8c-0.6,0-1.1-0.5-1.1-1.1s0.5-1.1,1.1-1.1h0.1c0.6,0,1.1,0.5,1.1,1.1S621.6,18.8,621,18.8z
		 M616,18.8c-0.6,0-1.1-0.5-1.1-1.1s0.5-1.1,1.1-1.1h0.1c0.6,0,1.1,0.5,1.1,1.1S616.6,18.8,616,18.8z M610.9,18.8L610.9,18.8
		c-0.7,0-1.2-0.5-1.2-1.1s0.5-1.1,1.1-1.1h0.1c0.6,0,1.1,0.5,1.1,1.1S611.5,18.8,610.9,18.8z M605.9,18.8c-0.6,0-1.1-0.5-1.1-1.1
		s0.5-1.1,1.1-1.1h0.1c0.6,0,1.1,0.5,1.1,1.1S606.5,18.8,605.9,18.8z M600.8,18.8c-0.6,0-1.1-0.5-1.1-1.1s0.5-1.1,1.1-1.1h0.1
		c0.6,0,1.1,0.5,1.1,1.1S601.5,18.8,600.8,18.8z M595.8,18.8L595.8,18.8c-0.7,0-1.2-0.5-1.2-1.1s0.5-1.1,1.1-1.1h0.1
		c0.6,0,1.1,0.5,1.1,1.1S596.4,18.8,595.8,18.8z M590.8,18.8c-0.6,0-1.1-0.5-1.1-1.1s0.5-1.1,1.1-1.1h0.1c0.6,0,1.1,0.5,1.1,1.1
		S591.4,18.8,590.8,18.8z M585.7,18.8c-0.6,0-1.1-0.5-1.1-1.1s0.5-1.1,1.1-1.1h0.1c0.6,0,1.1,0.5,1.1,1.1S586.3,18.8,585.7,18.8z
		 M580.7,18.8c-0.6,0-1.1-0.5-1.1-1.1s0.5-1.1,1.1-1.1h0.1c0.6,0,1.1,0.5,1.1,1.1S581.3,18.8,580.7,18.8z M575.6,18.8
		c-0.6,0-1.1-0.5-1.1-1.1s0.5-1.1,1.1-1.1h0.1c0.6,0,1.1,0.5,1.1,1.1S576.2,18.8,575.6,18.8z M570.6,18.8c-0.6,0-1.1-0.5-1.1-1.1
		s0.5-1.1,1.1-1.1h0.1c0.6,0,1.1,0.5,1.1,1.1S571.2,18.8,570.6,18.8z M565.5,18.8L565.5,18.8c-0.7,0-1.2-0.5-1.2-1.1
		s0.5-1.1,1.1-1.1h0.1c0.6,0,1.1,0.5,1.1,1.1S566.1,18.8,565.5,18.8z M560.5,18.8c-0.6,0-1.1-0.5-1.1-1.1s0.5-1.1,1.1-1.1h0.1
		c0.6,0,1.1,0.5,1.1,1.1S561.1,18.8,560.5,18.8z M555.4,18.8c-0.6,0-1.1-0.5-1.1-1.1s0.5-1.1,1.1-1.1h0.1c0.6,0,1.1,0.5,1.1,1.1
		S556.1,18.8,555.4,18.8z M550.4,18.8c-0.6,0-1.1-0.5-1.1-1.1s0.5-1.1,1.1-1.1h0.1c0.6,0,1.1,0.5,1.1,1.1S551,18.8,550.4,18.8z
		 M545.4,18.8c-0.6,0-1.1-0.5-1.1-1.1s0.5-1.1,1.1-1.1h0.1c0.6,0,1.1,0.5,1.1,1.1S546,18.8,545.4,18.8z M540.3,18.8L540.3,18.8
		c-0.7,0-1.2-0.5-1.2-1.1s0.5-1.1,1.1-1.1h0.1c0.6,0,1.1,0.5,1.1,1.1S540.9,18.8,540.3,18.8z M535.3,18.8L535.3,18.8
		c-0.7,0-1.2-0.5-1.2-1.1s0.5-1.1,1.1-1.1h0.1c0.6,0,1.1,0.5,1.1,1.1S535.9,18.8,535.3,18.8z M530.2,18.8c-0.6,0-1.1-0.5-1.1-1.1
		s0.5-1.1,1.1-1.1h0.1c0.6,0,1.1,0.5,1.1,1.1S530.8,18.8,530.2,18.8z M525.2,18.8c-0.6,0-1.1-0.5-1.1-1.1s0.5-1.1,1.1-1.1h0.1
		c0.6,0,1.1,0.5,1.1,1.1S525.8,18.8,525.2,18.8z M520.1,18.8c-0.6,0-1.1-0.5-1.1-1.1s0.5-1.1,1.1-1.1h0.1c0.6,0,1.1,0.5,1.1,1.1
		S520.8,18.8,520.1,18.8z M515.1,18.8c-0.6,0-1.1-0.5-1.1-1.1s0.5-1.1,1.1-1.1h0.1c0.6,0,1.1,0.5,1.1,1.1S515.7,18.8,515.1,18.8z"/>
</g>
<g>
	<path class="st5" d="M463.5,154.8L463.5,154.8c-0.7,0-1.2-0.5-1.2-1.1s0.5-1.1,1.1-1.1h0.1c0.6,0,1.1,0.5,1.1,1.1
		S464.1,154.8,463.5,154.8z M458.4,154.8L458.4,154.8c-0.7,0-1.2-0.5-1.2-1.1s0.5-1.1,1.1-1.1h0.1c0.6,0,1.1,0.5,1.1,1.1
		S459,154.8,458.4,154.8z M453.4,154.8L453.4,154.8c-0.7,0-1.2-0.5-1.2-1.1s0.5-1.1,1.1-1.1c0.6,0,1.1,0.5,1.1,1.1
		S454,154.8,453.4,154.8z M448.3,154.8L448.3,154.8c-0.7,0-1.2-0.5-1.2-1.1s0.5-1.1,1.1-1.1h0.1c0.6,0,1.1,0.5,1.1,1.1
		S448.9,154.8,448.3,154.8z M443.2,154.8L443.2,154.8c-0.7,0-1.2-0.5-1.2-1.1s0.5-1.1,1.1-1.1h0.1c0.6,0,1.1,0.5,1.1,1.1
		S443.8,154.8,443.2,154.8z M438.2,154.8L438.2,154.8c-0.7,0-1.2-0.5-1.2-1.1s0.5-1.1,1.1-1.1h0.1c0.6,0,1.1,0.5,1.1,1.1
		S438.8,154.8,438.2,154.8z M433.1,154.8L433.1,154.8c-0.7,0-1.2-0.5-1.2-1.1s0.5-1.1,1.1-1.1h0.1c0.6,0,1.1,0.5,1.1,1.1
		S433.7,154.8,433.1,154.8z M428.1,154.8L428.1,154.8c-0.7,0-1.2-0.5-1.2-1.1s0.5-1.1,1.1-1.1c0.6,0,1.1,0.5,1.1,1.1
		S428.7,154.8,428.1,154.8z M423,154.8L423,154.8c-0.7,0-1.2-0.5-1.2-1.1s0.5-1.1,1.1-1.1h0.1c0.6,0,1.1,0.5,1.1,1.1
		S423.6,154.8,423,154.8z M417.9,154.8L417.9,154.8c-0.7,0-1.2-0.5-1.2-1.1s0.5-1.1,1.1-1.1h0.1c0.6,0,1.1,0.5,1.1,1.1
		S418.6,154.8,417.9,154.8z M412.9,154.8L412.9,154.8c-0.7,0-1.2-0.5-1.2-1.1s0.5-1.1,1.1-1.1h0.1c0.6,0,1.1,0.5,1.1,1.1
		S413.5,154.8,412.9,154.8z M407.8,154.8L407.8,154.8c-0.7,0-1.2-0.5-1.2-1.1s0.5-1.1,1.1-1.1h0.1c0.6,0,1.1,0.5,1.1,1.1
		S408.4,154.8,407.8,154.8z M402.8,154.8L402.8,154.8c-0.7,0-1.2-0.5-1.2-1.1s0.5-1.1,1.1-1.1s1.1,0.5,1.1,1.1
		S403.4,154.8,402.8,154.8z M397.7,154.8L397.7,154.8c-0.7,0-1.2-0.5-1.2-1.1s0.5-1.1,1.1-1.1h0.1c0.6,0,1.1,0.5,1.1,1.1
		S398.3,154.8,397.7,154.8z M392.7,154.8L392.7,154.8c-0.7,0-1.2-0.5-1.2-1.1s0.5-1.1,1.1-1.1h0.1c0.6,0,1.1,0.5,1.1,1.1
		S393.3,154.8,392.7,154.8z M387.6,154.8L387.6,154.8c-0.7,0-1.2-0.5-1.2-1.1s0.5-1.1,1.1-1.1h0.1c0.6,0,1.1,0.5,1.1,1.1
		S388.2,154.8,387.6,154.8z M382.5,154.8L382.5,154.8c-0.7,0-1.2-0.5-1.2-1.1s0.5-1.1,1.1-1.1h0.1c0.6,0,1.1,0.5,1.1,1.1
		S383.2,154.8,382.5,154.8z M377.5,154.8L377.5,154.8c-0.7,0-1.2-0.5-1.2-1.1s0.5-1.1,1.1-1.1c0.6,0,1.1,0.5,1.1,1.1
		S378.1,154.8,377.5,154.8z M372.4,154.8L372.4,154.8c-0.7,0-1.2-0.5-1.2-1.1s0.5-1.1,1.1-1.1h0.1c0.6,0,1.1,0.5,1.1,1.1
		S373,154.8,372.4,154.8z M465,151.3c-0.6,0-1.1-0.5-1.1-1.1s0.5-1.1,1.1-1.1s1.1,0.5,1.1,1.1v0.1
		C466.1,150.8,465.6,151.3,465,151.3z M370.5,151.1c-0.6,0-1.1-0.5-1.1-1.1v-0.1c0-0.6,0.5-1.1,1.1-1.1s1.1,0.5,1.1,1.1
		S371.1,151.1,370.5,151.1z M465,146.3c-0.6,0-1.1-0.5-1.1-1.1v-0.1c0-0.6,0.5-1.1,1.1-1.1s1.1,0.5,1.1,1.1v0.1
		C466.1,145.8,465.6,146.3,465,146.3z M370.5,146c-0.6,0-1.1-0.5-1.1-1.1v-0.1c0-0.6,0.5-1.1,1.1-1.1s1.1,0.5,1.1,1.1
		S371.1,146,370.5,146z M465,141.2c-0.6,0-1.1-0.5-1.1-1.1s0.5-1.1,1.1-1.1s1.1,0.5,1.1,1.1v0.1C466.1,140.7,465.6,141.2,465,141.2z
		 M370.5,141c-0.6,0-1.1-0.5-1.1-1.1v-0.1c0-0.6,0.5-1.1,1.1-1.1s1.1,0.5,1.1,1.1v0.1C371.6,140.5,371.1,141,370.5,141z M465,136.1
		c-0.6,0-1.1-0.5-1.1-1.1s0.5-1.1,1.1-1.1s1.1,0.5,1.1,1.1l0,0C466.1,135.6,465.6,136.1,465,136.1z M370.5,135.9c-0.1,0-0.1,0-0.2,0
		c-0.6-0.1-1-0.6-0.9-1.2v-0.1c0.1-0.6,0.7-1,1.3-0.9s1,0.7,0.9,1.3C371.5,135.5,371,135.9,370.5,135.9z M460.9,134.6L460.9,134.6
		c-0.7,0-1.2-0.5-1.2-1.1s0.5-1.1,1.1-1.1h0.1c0.6,0,1.1,0.5,1.1,1.1S461.5,134.6,460.9,134.6z M455.8,134.6L455.8,134.6
		c-0.7,0-1.2-0.5-1.2-1.1s0.5-1.1,1.1-1.1h0.1c0.6,0,1.1,0.5,1.1,1.1S456.4,134.6,455.8,134.6z M450.8,134.6L450.8,134.6
		c-0.7,0-1.2-0.5-1.2-1.1s0.5-1.1,1.1-1.1h0.1c0.6,0,1.1,0.5,1.1,1.1S451.4,134.6,450.8,134.6z M445.7,134.6c-0.6,0-1.1-0.5-1.1-1.1
		s0.5-1.1,1.1-1.1h0.1c0.6,0,1.1,0.5,1.1,1.1S446.3,134.6,445.7,134.6z M440.6,134.6L440.6,134.6c-0.7,0-1.2-0.5-1.2-1.1
		s0.5-1.1,1.1-1.1h0.1c0.6,0,1.1,0.5,1.1,1.1S441.3,134.6,440.6,134.6z M435.6,134.6L435.6,134.6c-0.7,0-1.2-0.5-1.2-1.1
		s0.5-1.1,1.1-1.1h0.1c0.6,0,1.1,0.5,1.1,1.1S436.2,134.6,435.6,134.6z M430.5,134.6L430.5,134.6c-0.7,0-1.2-0.5-1.2-1.1
		s0.5-1.1,1.1-1.1h0.1c0.6,0,1.1,0.5,1.1,1.1S431.1,134.6,430.5,134.6z M425.5,134.6c-0.6,0-1.1-0.5-1.1-1.1s0.5-1.1,1.1-1.1h0.1
		c0.6,0,1.1,0.5,1.1,1.1S426.1,134.6,425.5,134.6z M420.4,134.6L420.4,134.6c-0.7,0-1.2-0.5-1.2-1.1s0.5-1.1,1.1-1.1h0.1
		c0.6,0,1.1,0.5,1.1,1.1S421,134.6,420.4,134.6z M415.4,134.6L415.4,134.6c-0.7,0-1.2-0.5-1.2-1.1s0.5-1.1,1.1-1.1h0.1
		c0.6,0,1.1,0.5,1.1,1.1S416,134.6,415.4,134.6z M410.3,134.6L410.3,134.6c-0.7,0-1.2-0.5-1.2-1.1s0.5-1.1,1.1-1.1h0.1
		c0.6,0,1.1,0.5,1.1,1.1S410.9,134.6,410.3,134.6z M405.2,134.6L405.2,134.6c-0.7,0-1.2-0.5-1.2-1.1s0.5-1.1,1.1-1.1h0.1
		c0.6,0,1.1,0.5,1.1,1.1S405.8,134.6,405.2,134.6z M400.2,134.6c-0.6,0-1.1-0.5-1.1-1.1s0.5-1.1,1.1-1.1h0.1c0.6,0,1.1,0.5,1.1,1.1
		S400.8,134.6,400.2,134.6z M395.1,134.6L395.1,134.6c-0.7,0-1.2-0.5-1.2-1.1s0.5-1.1,1.1-1.1h0.1c0.6,0,1.1,0.5,1.1,1.1
		S395.7,134.6,395.1,134.6z M390.1,134.6L390.1,134.6c-0.7,0-1.2-0.5-1.2-1.1s0.5-1.1,1.1-1.1h0.1c0.6,0,1.1,0.5,1.1,1.1
		S390.7,134.6,390.1,134.6z M385,134.6L385,134.6c-0.7,0-1.2-0.5-1.2-1.1s0.5-1.1,1.1-1.1h0.1c0.6,0,1.1,0.5,1.1,1.1
		S385.6,134.6,385,134.6z M379.9,134.6L379.9,134.6c-0.7,0-1.2-0.5-1.2-1.1s0.5-1.1,1.1-1.1h0.1c0.6,0,1.1,0.5,1.1,1.1
		S380.6,134.6,379.9,134.6z M374.9,134.6c-0.6,0-1.1-0.5-1.1-1.1s0.5-1.1,1.1-1.1h0.1c0.6,0,1.1,0.5,1.1,1.1
		S375.5,134.6,374.9,134.6z"/>
</g>
<g>
	
		<linearGradient id="SVGID_13_" gradientUnits="userSpaceOnUse" x1="276.1" y1="-11.85" x2="345.8" y2="-11.85" gradientTransform="matrix(1 0 0 -1 0 200)">
		<stop  offset="0" style="stop-color:#7CC4D3"/>
		<stop  offset="1" style="stop-color:#0CB1D3"/>
	</linearGradient>
	<path class="st16" d="M343.2,221.8L343.2,221.8L343.2,221.8c-0.7,0-1.2-0.5-1.2-1.1s0.5-1.1,1.1-1.1h0.1l0,0c0.6,0,1.1,0.5,1.1,1.1
		S343.8,221.8,343.2,221.8z M338.1,221.8L338.1,221.8c-0.7,0-1.2-0.5-1.2-1.1s0.5-1.1,1.1-1.1h0.1c0.6,0,1.1,0.5,1.1,1.1
		S338.7,221.8,338.1,221.8z M333,221.8L333,221.8c-0.7,0-1.2-0.5-1.2-1.1s0.5-1.1,1.1-1.1h0.1c0.6,0,1.1,0.5,1.1,1.1
		S333.6,221.8,333,221.8z M327.9,221.8L327.9,221.8c-0.7,0-1.2-0.5-1.2-1.1s0.5-1.1,1.1-1.1h0.1c0.6,0,1.1,0.5,1.1,1.1
		S328.6,221.8,327.9,221.8z M322.9,221.8L322.9,221.8c-0.7,0-1.2-0.5-1.2-1.1s0.5-1.1,1.1-1.1h0.1c0.6,0,1.1,0.5,1.1,1.1
		S323.5,221.8,322.9,221.8z M317.8,221.8L317.8,221.8c-0.7,0-1.2-0.5-1.2-1.1s0.5-1.1,1.1-1.1h0.1c0.6,0,1.1,0.5,1.1,1.1
		S318.4,221.8,317.8,221.8z M312.7,221.8L312.7,221.8c-0.7,0-1.2-0.5-1.2-1.1s0.5-1.1,1.1-1.1h0.1c0.6,0,1.1,0.5,1.1,1.1
		S313.3,221.8,312.7,221.8z M307.6,221.8L307.6,221.8c-0.7,0-1.2-0.5-1.2-1.1s0.5-1.1,1.1-1.1h0.1c0.6,0,1.1,0.5,1.1,1.1
		S308.2,221.8,307.6,221.8z M302.5,221.8L302.5,221.8c-0.7,0-1.2-0.5-1.2-1.1s0.5-1.1,1.1-1.1h0.1c0.6,0,1.1,0.5,1.1,1.1
		S303.1,221.8,302.5,221.8z M297.5,221.8L297.5,221.8c-0.7,0-1.2-0.5-1.2-1.1s0.5-1.1,1.1-1.1h0.1c0.6,0,1.1,0.5,1.1,1.1
		S298.1,221.8,297.5,221.8z M292.4,221.8L292.4,221.8c-0.7,0-1.2-0.5-1.2-1.1s0.5-1.1,1.1-1.1h0.1c0.6,0,1.1,0.5,1.1,1.1
		S293,221.8,292.4,221.8z M287.3,221.8L287.3,221.8c-0.7,0-1.2-0.5-1.2-1.1s0.5-1.1,1.1-1.1h0.1c0.6,0,1.1,0.5,1.1,1.1
		S287.9,221.8,287.3,221.8z M282.2,221.8L282.2,221.8c-0.7,0-1.2-0.5-1.2-1.1s0.5-1.1,1.1-1.1h0.1c0.6,0,1.1,0.5,1.1,1.1
		S282.8,221.8,282.2,221.8z M277.4,221c-0.4,0-0.8-0.2-1-0.6c0,0,0-0.1-0.1-0.1c-0.3-0.6,0-1.2,0.5-1.5c0.6-0.3,1.2,0,1.5,0.5
		c0.3,0.5,0.1,1.2-0.4,1.5C277.8,220.9,277.6,221,277.4,221z M344.7,217.6c-0.6,0-1.1-0.5-1.1-1.1v-0.1c0-0.6,0.5-1.1,1.1-1.1
		c0.6,0,1.1,0.5,1.1,1.1v0.1C345.8,217.1,345.3,217.6,344.7,217.6z M277.2,215.9c-0.6,0-1.1-0.5-1.1-1.1v-0.1c0-0.6,0.5-1.1,1.1-1.1
		c0.6,0,1.1,0.5,1.1,1.1v0.1C278.4,215.4,277.9,215.9,277.2,215.9z M344.7,212.5c-0.6,0-1.1-0.5-1.1-1.1v-0.1c0-0.6,0.5-1.1,1.1-1.1
		c0.6,0,1.1,0.5,1.1,1.1v0.1C345.8,212,345.3,212.5,344.7,212.5z M277.2,210.8c-0.6,0-1.1-0.5-1.1-1.1v-0.1c0-0.6,0.5-1.1,1.1-1.1
		c0.6,0,1.1,0.5,1.1,1.1v0.1C278.4,210.3,277.9,210.8,277.2,210.8z M344.7,207.4c-0.6,0-1.1-0.5-1.1-1.1v-0.1c0-0.6,0.5-1.1,1.1-1.1
		c0.6,0,1.1,0.5,1.1,1.1v0.1C345.8,206.9,345.3,207.4,344.7,207.4z M277.2,205.7c-0.6,0-1.1-0.5-1.1-1.1v-0.1c0-0.6,0.5-1.1,1.1-1.1
		c0.6,0,1.1,0.5,1.1,1.1v0.1C278.4,205.2,277.9,205.7,277.2,205.7z M342.3,204.1L342.3,204.1c-0.7,0-1.2-0.5-1.2-1.1
		s0.5-1.1,1.1-1.1h0.1c0.6,0,1.1,0.5,1.1,1.1S343,204.1,342.3,204.1z M337.3,204.1L337.3,204.1c-0.7,0-1.2-0.5-1.2-1.1
		s0.5-1.1,1.1-1.1h0.1c0.6,0,1.1,0.5,1.1,1.1S337.9,204.1,337.3,204.1z M332.2,204.1L332.2,204.1c-0.7,0-1.2-0.5-1.2-1.1
		s0.5-1.1,1.1-1.1h0.1c0.6,0,1.1,0.5,1.1,1.1S332.8,204.1,332.2,204.1z M327.1,204.1L327.1,204.1c-0.7,0-1.2-0.5-1.2-1.1
		s0.5-1.1,1.1-1.1h0.1c0.6,0,1.1,0.5,1.1,1.1S327.7,204.1,327.1,204.1z M322,204.1L322,204.1c-0.7,0-1.2-0.5-1.2-1.1
		s0.5-1.1,1.1-1.1h0.1c0.6,0,1.1,0.5,1.1,1.1S322.6,204.1,322,204.1z M316.9,204.1L316.9,204.1c-0.7,0-1.2-0.5-1.2-1.1
		s0.5-1.1,1.1-1.1h0.1c0.6,0,1.1,0.5,1.1,1.1S317.5,204.1,316.9,204.1z M311.9,204.1L311.9,204.1c-0.7,0-1.2-0.5-1.2-1.1
		s0.5-1.1,1.1-1.1h0.1c0.6,0,1.1,0.5,1.1,1.1S312.5,204.1,311.9,204.1z M306.8,204.1L306.8,204.1c-0.7,0-1.2-0.5-1.2-1.1
		s0.5-1.1,1.1-1.1h0.1c0.6,0,1.1,0.5,1.1,1.1S307.4,204.1,306.8,204.1z M301.7,204.1L301.7,204.1c-0.7,0-1.2-0.5-1.2-1.1
		s0.5-1.1,1.1-1.1h0.1c0.6,0,1.1,0.5,1.1,1.1S302.3,204.1,301.7,204.1z M296.6,204.1L296.6,204.1c-0.7,0-1.2-0.5-1.2-1.1
		s0.5-1.1,1.1-1.1h0.1c0.6,0,1.1,0.5,1.1,1.1S297.2,204.1,296.6,204.1z M291.5,204.1L291.5,204.1c-0.7,0-1.2-0.5-1.2-1.1
		s0.5-1.1,1.1-1.1h0.1c0.6,0,1.1,0.5,1.1,1.1S292.1,204.1,291.5,204.1z M286.4,204.1L286.4,204.1c-0.7,0-1.2-0.5-1.2-1.1
		s0.5-1.1,1.1-1.1h0.1c0.6,0,1.1,0.5,1.1,1.1S287.1,204.1,286.4,204.1z M281.4,204.1L281.4,204.1c-0.7,0-1.2-0.5-1.2-1.1
		s0.5-1.1,1.1-1.1h0.1c0.6,0,1.1,0.5,1.1,1.1S282,204.1,281.4,204.1z"/>
</g>
</svg>
