<?xml version="1.0" encoding="utf-8"?>
<!-- Generator: Adobe Illustrator 19.0.1, SVG Export Plug-In . SVG Version: 6.00 Build 0)  -->
<!DOCTYPE svg PUBLIC "-//W3C//DTD SVG 1.1//EN" "http://www.w3.org/Graphics/SVG/1.1/DTD/svg11.dtd">
<svg version="1.1" id="Layer_1" xmlns="http://www.w3.org/2000/svg" xmlns:xlink="http://www.w3.org/1999/xlink" x="0px" y="0px"
	 width="200px" height="200px" viewBox="0 0 200 200" style="enable-background:new 0 0 200 200;" xml:space="preserve">
<style type="text/css">
	.st0{fill:#EDBD1C;}
	.st1{fill:#41BDB0;}
	.st2{fill:#0CA3DD;}
	.st3{fill:#221F1F;}
	.st4{fill:#D6A229;}
	.st5{fill:#009A8E;}
</style>
<g>
	<path class="st0" d="M94.5,55.9H20.7c0,0,0,0.1-0.1,0.1h132.7c14.6,0,27.8-6.6,36.5-17.1c-18.3-23.8-47-39.1-79.3-39.1
		c-18.3,0-35.5,4.9-50.2,13.5C75,24.3,86.8,39,94.5,55.9z"/>
	<path class="st1" d="M190.2,160.3c-8.7-10.3-21.7-16.8-36.3-16.8H20.6c0,0,0,0.1,0.1,0.1h75.5c-7.1,17.4-18.6,32.5-33,44.2
		c-17.3-9.3-31.6-23.6-40.9-41c16.8,31.5,50,53,88.3,53C143.1,199.8,171.9,184.3,190.2,160.3z"/>
	<path class="st2" d="M98.3,127.9H142c15.6,0,28.1-12.5,28.2-28.1c0-15.5-12.5-28.1-28.1-28.1H98c2.2,8.4,3.5,17.7,3.5,28.1
		C101.5,110,100.3,119.4,98.3,127.9z"/>
	<path class="st3" d="M101.5,99.8c0-10.4-1.3-19.7-3.5-28.1H14.6c-2.6,8.9-4,18.3-4,28.1s1.4,19.2,4,28.1h83.7
		C100.3,119.4,101.5,110,101.5,99.8z"/>
	<path class="st4" d="M60.3,13.3C60.3,13.3,60.3,13.3,60.3,13.3C43.2,23.2,29.4,38,20.6,55.9h0.1h73.8C86.8,39,75,24.3,60.3,13.3z"
		/>
	<path class="st5" d="M63.2,187.8c14.4-11.7,25.8-26.8,33-44.2H20.6h0c0.5,1.1,1.1,2.1,1.7,3.2C31.6,164.1,45.9,178.5,63.2,187.8z"
		/>
</g>
</svg>
