<?xml version="1.0" encoding="utf-8"?>
<!-- Generator: Adobe Illustrator 20.1.0, SVG Export Plug-In . SVG Version: 6.00 Build 0)  -->
<svg version="1.1" id="Layer_1" xmlns="http://www.w3.org/2000/svg" xmlns:xlink="http://www.w3.org/1999/xlink" x="0px" y="0px"
	 width="540px" height="230px" viewBox="0 0 540 230" enable-background="new 0 0 540 230" xml:space="preserve">
<polygon opacity="3.000000e-02" fill="#BCBEC0" enable-background="new    " points="128.6,181.6 96.1,211.3 54.2,198 44.8,155 
	77.2,125.4 119.1,138.7 "/>
<polygon opacity="3.000000e-02" fill="#BCBEC0" enable-background="new    " points="167.2,133 155,178.7 109.3,190.9 75.9,157.5 
	88.2,111.8 133.8,99.6 "/>
<polygon opacity="3.000000e-02" fill="#BCBEC0" enable-background="new    " points="133.9,105.4 124.8,139.5 90.8,148.6 
	65.9,123.7 75,89.6 109,80.5 "/>
<polygon opacity="3.000000e-02" fill="#BCBEC0" enable-background="new    " points="511.2,168.8 495.2,189.1 469.6,185.4 
	460,161.4 476,141 501.7,144.8 "/>
<polygon opacity="3.000000e-02" fill="#BCBEC0" enable-background="new    " points="52.9,116.4 59.6,142.6 40.3,161.5 14.3,154.2 
	7.5,128 26.8,109.1 "/>
<polygon opacity="3.000000e-02" fill="#BCBEC0" enable-background="new    " points="102.9,141 96.2,166 71.2,172.7 52.9,154.4 
	59.6,129.4 84.6,122.7 "/>
<polygon opacity="3.000000e-02" fill="#BCBEC0" enable-background="new    " points="181.5,114.3 141.2,139.5 99.3,117.2 97.6,69.7 
	137.9,44.5 179.8,66.8 "/>
<polygon opacity="3.000000e-02" fill="#BCBEC0" enable-background="new    " points="184.5,69 175.6,102 142.7,110.8 118.6,86.7 
	127.4,53.7 160.4,44.9 "/>
<polygon opacity="3.000000e-02" fill="#BCBEC0" enable-background="new    " points="277.4,138 284.7,171.3 259.5,194.3 227,184 
	219.7,150.7 244.9,127.7 "/>
<polygon opacity="3.000000e-02" fill="#BCBEC0" enable-background="new    " points="172.3,183 145.6,204.3 113.9,191.8 
	108.8,158.1 135.5,136.9 167.2,149.3 "/>
<polygon opacity="3.000000e-02" fill="#BCBEC0" enable-background="new    " points="224.3,181.4 197.6,202.6 165.9,190.2 
	160.8,156.4 187.5,135.2 219.2,147.6 "/>
<polygon opacity="3.000000e-02" fill="#BCBEC0" enable-background="new    " points="397.1,66.3 387,103.8 349.5,113.9 322,86.4 
	332,48.8 369.6,38.8 "/>
<polygon opacity="3.000000e-02" fill="#BCBEC0" enable-background="new    " points="190.7,108.8 181.9,141.8 149,150.6 
	124.8,126.5 133.7,93.5 166.6,84.7 "/>
<polygon opacity="3.000000e-02" fill="#BCBEC0" enable-background="new    " points="181.5,136.4 172.7,169.4 139.8,178.2 
	115.6,154.1 124.5,121.1 157.4,112.3 "/>
<polygon opacity="3.000000e-02" fill="#BCBEC0" enable-background="new    " points="218.2,108 209.4,140.9 176.4,149.7 
	152.3,125.6 161.1,92.7 194.1,83.9 "/>
<polygon opacity="3.000000e-02" fill="#BCBEC0" enable-background="new    " points="227.9,69 219,101.9 186.1,110.8 162,86.7 
	170.8,53.7 203.7,44.9 "/>
<polygon opacity="3.000000e-02" fill="#BCBEC0" enable-background="new    " points="262.3,144.6 249.6,207.7 188.6,228.2 
	140.3,185.7 153,122.6 214,102 "/>
<polygon opacity="3.000000e-02" fill="#BCBEC0" enable-background="new    " points="294,73.4 281.3,136.5 220.3,157.1 172,114.5 
	184.7,51.4 245.7,30.9 "/>
<polygon opacity="3.000000e-02" fill="#BCBEC0" enable-background="new    " points="491,145.1 478.3,208.2 417.3,228.8 369,186.2 
	381.7,123.1 442.7,102.6 "/>
<polygon opacity="3.000000e-02" fill="#BCBEC0" enable-background="new    " points="266.5,114 257.7,146.9 224.7,155.7 
	200.6,131.6 209.5,98.7 242.4,89.8 "/>
<polygon opacity="3.000000e-02" fill="#BCBEC0" enable-background="new    " points="277.1,98.9 255.1,124.9 221.5,118.8 210,86.7 
	232.1,60.7 265.6,66.8 "/>
<polygon opacity="3.000000e-02" fill="#BCBEC0" enable-background="new    " points="313.2,107.2 304.4,140.2 271.5,149 
	247.3,124.9 256.2,91.9 289.1,83.1 "/>
<polygon opacity="3.000000e-02" fill="#BCBEC0" enable-background="new    " points="350.5,37.9 339.4,79.1 298.3,90.1 268.2,60 
	279.2,18.8 320.3,7.8 "/>
<polygon opacity="3.000000e-02" fill="#BCBEC0" enable-background="new    " points="304.9,68.1 274.6,106.6 226.1,99.5 207.9,54 
	238.2,15.5 286.8,22.6 "/>
<polygon opacity="3.000000e-02" fill="#BCBEC0" enable-background="new    " points="334.8,162.3 315.8,207.4 267.1,213.5 
	237.5,174.4 256.6,129.2 305.3,123.2 "/>
<polygon opacity="3.000000e-02" fill="#BCBEC0" enable-background="new    " points="363.4,85.2 354.6,118.1 321.7,126.9 
	297.5,102.8 306.4,69.9 339.3,61 "/>
<polygon opacity="3.000000e-02" fill="#BCBEC0" enable-background="new    " points="405.9,54.9 375.2,105.6 316,104.3 287.5,52.4 
	318.2,1.7 377.4,3 "/>
<polygon opacity="3.000000e-02" fill="#BCBEC0" enable-background="new    " points="352.9,126.3 343.9,159.9 310.2,168.9 
	285.6,144.3 294.6,110.7 328.3,101.7 "/>
<polygon opacity="3.000000e-02" fill="#BCBEC0" enable-background="new    " points="344,174.6 298,229 227.9,216.3 203.8,149.3 
	249.9,94.9 320,107.6 "/>
<polygon opacity="3.000000e-02" fill="#BCBEC0" enable-background="new    " points="397.1,154.8 381.7,212 324.5,227.3 
	282.7,185.5 298,128.3 355.2,112.9 "/>
<polygon opacity="3.000000e-02" fill="#BCBEC0" enable-background="new    " points="470,73.3 454.7,130.5 397.5,145.8 355.6,103.9 
	370.9,46.7 428.1,31.4 "/>
<polygon opacity="3.000000e-02" fill="#BCBEC0" enable-background="new    " points="368.6,95.6 353.3,152.8 296.1,168.1 
	254.2,126.3 269.6,69.1 326.8,53.7 "/>
<polygon opacity="3.000000e-02" fill="#BCBEC0" enable-background="new    " points="410.1,156.9 370.8,201.1 312.8,189.2 
	294.1,133 333.5,88.7 391.5,100.7 "/>
<polygon opacity="3.000000e-02" fill="#BCBEC0" enable-background="new    " points="430.6,109.2 417.7,157.4 369.5,170.3 
	334.3,135 347.2,86.8 395.4,73.9 "/>
<polygon opacity="3.000000e-02" fill="#BCBEC0" enable-background="new    " points="427.3,123.9 448.9,168.9 420.7,210.1 
	371,206.3 349.4,161.3 377.5,120.1 "/>
<polygon opacity="3.000000e-02" fill="#BCBEC0" enable-background="new    " points="482.3,103.5 493,152.2 456.2,185.8 
	408.6,170.7 397.9,122 434.8,88.4 "/>
<polygon opacity="3.000000e-02" fill="#BCBEC0" enable-background="new    " points="400.1,94.3 391.3,127.2 358.3,136.1 334.2,112 
	343,79 376,70.2 "/>
<polygon opacity="3.000000e-02" fill="#BCBEC0" enable-background="new    " points="437.4,92.9 415.3,118.9 381.8,112.8 
	370.3,80.7 392.3,54.7 425.9,60.8 "/>
<polygon opacity="3.000000e-02" fill="#BCBEC0" enable-background="new    " points="478.3,91.5 466.4,136 421.9,147.9 389.4,115.4 
	401.3,70.9 445.7,59 "/>
<polygon opacity="3.000000e-02" fill="#BCBEC0" enable-background="new    " points="504,133 464.2,157.9 422.7,135.8 421.1,88.9 
	460.9,64 502.3,86 "/>
<polygon opacity="3.000000e-02" fill="#BCBEC0" enable-background="new    " points="118.1,149.6 78.3,174.5 36.9,152.5 35.2,105.5 
	75,80.6 116.5,102.7 "/>
<polygon opacity="3.000000e-02" fill="#BCBEC0" enable-background="new    " points="537.7,142.4 512.5,165.4 480,155.1 
	472.7,121.8 497.9,98.8 530.4,109.1 "/>
<linearGradient id="SVGID_1_" gradientUnits="userSpaceOnUse" x1="282.4841" y1="227.6973" x2="282.4841" y2="26.2619">
	<stop  offset="0" style="stop-color:#FFF100"/>
	<stop  offset="1" style="stop-color:#F05A28"/>
</linearGradient>
<path fill="url(#SVGID_1_)" d="M309.6,149.7h-22.6v0h-5.2c0,0-0.1,0-0.1,0c-11.7,0-21.3-9.6-21.3-21.3c0-11.1,8.5-20.2,19.4-21.3
	c-0.4-1.7-1-3.4-1.8-5c-12.9,1.8-22.8,12.9-22.8,26.3c0,14.6,11.9,26.5,26.5,26.5c0,0,0,0,0,0v0h25.4l0.2-0.6
	C307.5,154.1,308.1,152.2,309.6,149.7z"/>
<line fill="none" stroke="#000000" stroke-width="0" stroke-linecap="round" stroke-linejoin="round" x1="330" y1="146.9" x2="330" y2="146.9"/>
<linearGradient id="SVGID_2_" gradientUnits="userSpaceOnUse" x1="249.1101" y1="40.6622" x2="249.1101" y2="186.4586">
	<stop  offset="0" style="stop-color:#B280B8"/>
	<stop  offset="1" style="stop-color:#8A4F9E"/>
</linearGradient>
<path fill="url(#SVGID_2_)" d="M260.2,147.8c-3.5,1.2-7.4,1.9-11.3,1.9h-14.2c-0.2,0.9-0.5,1.8-0.9,2.7c0.4,0.8,0.7,1.6,0.9,2.5
	h14.2v0c5.5,0,10.8-1.1,15.6-3.2C262.9,150.5,261.5,149.2,260.2,147.8z"/>
<linearGradient id="SVGID_3_" gradientUnits="userSpaceOnUse" x1="199.3667" y1="40.6622" x2="199.3667" y2="186.4586">
	<stop  offset="0" style="stop-color:#B280B8"/>
	<stop  offset="1" style="stop-color:#8A4F9E"/>
</linearGradient>
<path fill="url(#SVGID_3_)" d="M156.3,149.7h-14.5v0h-5.2c0,0-0.1,0-0.1,0c-11.7,0-21.3-9.6-21.3-21.3c0-11.8,9.6-21.3,21.3-21.3
	c0.1,0,0.2,0,0.3,0l0.3,0l5.6,0.2l-0.3-5.6c0-0.9-0.1-1.8-0.1-2.7c0-28,22.8-50.8,50.8-50.8c9.9,0,19.5,2.9,27.7,8.3
	c8,5.3,14.4,12.7,18.4,21.4l1.6,3.4l3.7-0.4c1.5-0.2,2.8-0.3,4.2-0.3c19.1,0,34.6,15.5,34.6,34.6c0,11.2-5.4,21.2-13.7,27.6
	c1.4,1.2,3,2.2,4.7,2.9c8.7-7.3,14.2-18.2,14.2-30.5c0-22-17.8-39.8-39.8-39.8c-1.6,0-3.2,0.1-4.8,0.3C235.2,56.3,215.8,43,193.2,43
	c-30.9,0-56,25.1-56,56c0,1,0,2,0.1,2.9c-0.2,0-0.5,0-0.7,0c-14.6,0-26.5,11.9-26.5,26.5c0,14.6,11.9,26.5,26.5,26.5c0,0,0,0,0,0v0
	h19.7c0.2-0.8,0.5-1.7,0.9-2.5C156.8,151.5,156.5,150.6,156.3,149.7z"/>
<linearGradient id="SVGID_4_" gradientUnits="userSpaceOnUse" x1="195.4855" y1="40.6622" x2="195.4855" y2="186.4586">
	<stop  offset="0" style="stop-color:#B280B8"/>
	<stop  offset="1" style="stop-color:#8A4F9E"/>
</linearGradient>
<path fill="url(#SVGID_4_)" d="M232.6,129.7c0.1-0.7,0.2-1.3,0.2-2c0-5.4-4.1-10.2-10.8-13.6c-1.7-0.9-3.5-1.6-5.5-2.3
	c-1-0.3-2-0.7-3.1-1c-0.5-0.1-1.1-0.3-1.6-0.4c-1.1-0.3-2.2-0.5-3.4-0.7c-1.1-0.2-2.3-0.4-3.5-0.6c-1.2-0.2-2.4-0.3-3.7-0.4
	c-1.9-0.1-3.8-0.2-5.8-0.2s-3.9,0.1-5.8,0.2c-1.2,0.1-2.5,0.2-3.7,0.4c-1.2,0.2-2.4,0.3-3.5,0.6c-1.1,0.2-2.3,0.5-3.4,0.7
	c-0.5,0.1-1.1,0.3-1.6,0.4c-1.1,0.3-2.1,0.6-3.1,1c-1.5,0.5-2.9,1.1-4.2,1.7c-7.5,3.5-12.1,8.5-12.1,14.3c0,0.7,0.1,1.4,0.2,2
	c-0.1,0.7-0.2,1.3-0.2,2c0,1,0.1,1.9,0.4,2.8c0.2,0.7,0.5,1.4,0.8,2c0.1,0.2,0.2,0.4,0.4,0.7c-0.1,0.2-0.2,0.4-0.4,0.7
	c-0.3,0.7-0.6,1.3-0.8,2c-0.3,0.9-0.4,1.9-0.4,2.8c0,0.7,0.1,1.4,0.2,2c-0.1,0.7-0.2,1.3-0.2,2c0,1,0.1,1.9,0.4,2.8
	c0.3,0.9,0.6,1.8,1.1,2.7c-0.5,0.8-0.8,1.6-1.1,2.5c-0.3,1-0.5,2-0.5,3.1c0,0.7,0.1,1.4,0.2,2c-0.1,0.7-0.2,1.3-0.2,2
	c0,6.4,5.8,12,14.9,15.4c0.5,0.2,1,0.4,1.5,0.5c1,0.3,2,0.7,3.1,1c2.6,0.7,5.5,1.3,8.5,1.7c1.2,0.2,2.4,0.3,3.7,0.4
	c1.9,0.1,3.8,0.2,5.8,0.2s3.9-0.1,5.8-0.2c1.2-0.1,2.5-0.2,3.7-0.4c3-0.4,5.9-1,8.5-1.7c1.1-0.3,2.1-0.6,3.1-1
	c0.5-0.2,1-0.3,1.5-0.5c1-0.4,1.9-0.8,2.8-1.2c0.4-0.2,0.9-0.4,1.3-0.6c6.7-3.5,10.8-8.3,10.8-13.6c0-0.7-0.1-1.4-0.2-2
	c0.1-0.7,0.2-1.3,0.2-2c0-1-0.2-2.1-0.5-3.1c-0.3-0.8-0.6-1.7-1.1-2.5c0.5-0.9,0.9-1.8,1.1-2.7c0.3-0.9,0.4-1.9,0.4-2.8
	c0-0.7-0.1-1.4-0.2-2c0.1-0.7,0.2-1.3,0.2-2c0-1.9-0.5-3.8-1.5-5.5c1-1.7,1.5-3.6,1.5-5.5C232.8,131.1,232.7,130.4,232.6,129.7z
	 M195.5,110.6c19.4,0,35.2,7.7,35.2,17.1c0,9.4-15.8,17.1-35.2,17.1c-19.4,0-35.2-7.7-35.2-17.1
	C160.3,118.3,176.1,110.6,195.5,110.6z M230,135.2c-3.3,7.8-17.5,13.6-34.5,13.6s-31.2-5.9-34.5-13.6c5.6,7,18.7,11.7,34.5,11.7
	C211.2,146.9,224.4,142.1,230,135.2z M195.5,162c12,0,22.5-2.8,29.2-7.1c2.1-1.4,3.9-2.9,5.3-4.6c-0.7,1.6-1.9,3.2-3.4,4.6
	c-5.9,5.4-17.6,9.1-31.1,9.1s-25.1-3.7-31.1-9.1c-1.6-1.4-2.7-3-3.4-4.6c1.3,1.7,3.1,3.2,5.3,4.6C173,159.3,183.5,162,195.5,162z
	 M195.5,179c-17,0-31.2-5.9-34.5-13.6c5.6,7,18.7,11.7,34.5,11.7c15.8,0,28.9-4.8,34.5-11.7C226.7,173.2,212.5,179,195.5,179z
	 M230.7,157.9c0,9.4-15.8,17.1-35.2,17.1c-19.4,0-35.2-7.7-35.2-17.1c0-1,0.2-2.1,0.6-3.1c0.1-0.2,0.1-0.3,0.2-0.5
	c0.1,0.2,0.3,0.3,0.4,0.5c5.8,6.6,18.7,11.2,34,11.2s28.2-4.5,34-11.2c0.1-0.2,0.3-0.3,0.4-0.5c0.1,0.2,0.1,0.3,0.2,0.5
	C230.5,155.9,230.7,156.9,230.7,157.9z M222.2,153.9c-6.5,3.7-16.1,6-26.8,6c-10.3,0-19.5-2.1-26-5.6c-2.6-1.4-4.7-2.9-6.2-4.6
	c-1.9-2.1-3-4.4-3-6.9c0-1.2,0.3-2.4,0.8-3.5c5.6,6.9,18.7,11.7,34.4,11.7c15.7,0,28.9-4.7,34.4-11.7c0.5,1.1,0.8,2.3,0.8,3.5
	c0,2.4-1.1,4.8-3,6.9C226.3,151.2,224.5,152.6,222.2,153.9z"/>
<linearGradient id="SVGID_5_" gradientUnits="userSpaceOnUse" x1="346.402" y1="227.6973" x2="346.402" y2="26.2619">
	<stop  offset="0" style="stop-color:#F8EC1D"/>
	<stop  offset="1" style="stop-color:#F05A2B"/>
</linearGradient>
<path fill="url(#SVGID_5_)" d="M382.7,140.4c-0.1-1.3-0.3-2.9-0.8-4.5c-0.4-1.7-1.1-3.5-2-5.4c-1-1.9-2.2-3.9-3.8-5.8
	c-0.6-0.8-1.3-1.5-2.1-2.2c1.1-4.4-1.4-8.3-1.4-8.3c-4.3-0.3-7,1.3-8,2c-0.2-0.1-0.3-0.1-0.5-0.2c-0.7-0.3-1.5-0.6-2.2-0.8
	c-0.8-0.2-1.5-0.5-2.3-0.7c-0.8-0.2-1.6-0.3-2.4-0.5c-0.1,0-0.3,0-0.4-0.1c-1.8-5.9-7.2-8.4-7.2-8.4c-5.9,3.8-7.1,9-7.1,9
	s0,0.1-0.1,0.3c-0.3,0.1-0.7,0.2-1,0.3c-0.5,0.1-0.9,0.3-1.4,0.5c-0.4,0.2-0.9,0.3-1.3,0.5c-0.9,0.4-1.8,0.8-2.7,1.3
	c-0.8,0.5-1.7,1-2.5,1.6c-0.1-0.1-0.2-0.1-0.2-0.1c-8.2-3.1-15.5,0.6-15.5,0.6c-0.7,8.7,3.3,14.3,4.1,15.3c-0.2,0.5-0.4,1.1-0.5,1.6
	c-0.6,2-1.1,4-1.3,6.1c0,0.3-0.1,0.6-0.1,0.9c-7.6,3.8-9.9,11.4-9.9,11.4c6.3,7.3,13.7,7.7,13.7,7.7c0,0,0,0,0,0
	c0.9,1.7,2,3.3,3.3,4.8c0.5,0.6,1.1,1.2,1.6,1.8c-2.3,6.6,0.3,12.1,0.3,12.1c7.1,0.3,11.7-3.1,12.7-3.9c0.7,0.2,1.4,0.5,2.1,0.6
	c2.2,0.6,4.4,0.9,6.6,1c0.6,0,1.1,0,1.7,0l0.3,0l0.2,0l0.4,0l0.4,0c0,0,0,0,0,0c3.3,4.7,9.2,5.4,9.2,5.4c4.7-5,4.4-9.9,4.4-9.9
	c0,0-0.1-0.1-0.1-0.1c0.9-0.6,1.8-1.3,2.6-2.1c1.7-1.5,3.1-3.2,4.3-5.1c0.1-0.2,0.2-0.3,0.3-0.5c4.7,0.3,8-2.9,8-2.9
	c-0.9-5.5-4.3-7.8-4.3-7.8c0,0-0.1,0-0.1,0c0-0.3,0.1-0.7,0.1-1c0-0.5,0-1.1,0.1-1.6l0-0.4l0-0.2l0-0.1c0-0.1,0-0.1,0-0.1l0-0.3
	l0-0.4c0-0.2,0-0.3,0-0.4c0-0.1,0-0.3,0-0.4l0-0.4l-0.1-0.4c-0.1-0.5-0.2-1.1-0.3-1.6c-0.5-2.1-1.3-4.1-2.4-5.9
	c-1.1-1.8-2.4-3.4-4-4.7c-1.5-1.3-3.2-2.4-5-3.2c-1.8-0.8-3.7-1.3-5.6-1.6c-0.9-0.1-1.9-0.2-2.8-0.2l-0.3,0l-0.1,0c0,0-0.1,0-0.1,0
	l-0.1,0l-0.3,0c-0.1,0-0.3,0-0.4,0c-0.5,0-0.9,0.1-1.4,0.2c-1.9,0.3-3.6,1-5.2,2c-1.6,0.9-2.9,2.1-4,3.4c-1.1,1.3-1.9,2.8-2.5,4.3
	c-0.6,1.5-0.9,3.1-1,4.6c0,0.4,0,0.8,0,1.1c0,0.1,0,0.2,0,0.3l0,0.3c0,0.2,0,0.4,0,0.5c0.1,0.8,0.2,1.5,0.4,2.2
	c0.4,1.4,1.1,2.7,1.9,3.8c0.8,1.1,1.8,2,2.8,2.7c1,0.7,2.1,1.2,3.2,1.5c1.1,0.3,2.2,0.5,3.2,0.5c0.1,0,0.3,0,0.4,0
	c0.1,0,0.1,0,0.2,0c0.1,0,0.1,0,0.2,0c0.1,0,0.2,0,0.3,0c0,0,0.1,0,0.1,0l0.1,0c0.1,0,0.1,0,0.2,0c0.1,0,0.2,0,0.4-0.1
	c0.1,0,0.2,0,0.4-0.1c0.2-0.1,0.5-0.1,0.7-0.2c0.4-0.1,0.9-0.3,1.3-0.5c0.4-0.2,0.7-0.4,1.1-0.7c0.1-0.1,0.2-0.1,0.3-0.2
	c0.4-0.3,0.4-0.8,0.1-1.2c-0.2-0.3-0.7-0.4-1-0.2c-0.1,0-0.2,0.1-0.3,0.1c-0.3,0.1-0.6,0.3-0.9,0.4c-0.3,0.1-0.7,0.2-1,0.3
	c-0.2,0-0.4,0.1-0.5,0.1c-0.1,0-0.2,0-0.3,0c-0.1,0-0.2,0-0.3,0c-0.1,0-0.2,0-0.3,0c-0.1,0-0.2,0-0.3,0c0,0-0.1,0,0,0l0,0l-0.1,0
	c0,0-0.1,0-0.1,0c-0.1,0-0.2,0-0.3,0c-0.8-0.1-1.6-0.3-2.4-0.7c-0.8-0.4-1.5-0.8-2.2-1.4c-0.7-0.6-1.3-1.3-1.7-2.2
	c-0.5-0.8-0.8-1.7-0.9-2.7c-0.1-0.5-0.1-1-0.1-1.5c0-0.1,0-0.3,0-0.4c0,0,0,0,0,0l0,0l0-0.1c0-0.1,0-0.1,0-0.2
	c0-0.3,0.1-0.5,0.1-0.8c0.4-2.1,1.4-4.1,3-5.7c0.4-0.4,0.8-0.7,1.3-1.1c0.5-0.3,1-0.6,1.5-0.8c0.5-0.2,1.1-0.4,1.6-0.6
	c0.6-0.1,1.1-0.2,1.7-0.3c0.3,0,0.6,0,0.9,0c0.1,0,0.1,0,0.2,0l0.2,0l0.1,0c0.1,0,0,0,0,0l0.1,0l0.2,0c0.6,0.1,1.2,0.1,1.9,0.3
	c1.2,0.3,2.4,0.7,3.5,1.3c2.2,1.2,4.1,3.2,5.3,5.5c0.6,1.2,1,2.4,1.2,3.7c0,0.3,0.1,0.6,0.1,1l0,0.2l0,0.2c0,0.1,0,0.2,0,0.2
	c0,0.1,0,0.2,0,0.2l0,0.2l0,0.2c0,0.2,0,0.4,0,0.6c0,0.4-0.1,0.7-0.1,1.1c0,0.4-0.1,0.7-0.2,1c-0.1,0.3-0.1,0.7-0.2,1
	c-0.2,0.7-0.4,1.4-0.7,2c-0.5,1.3-1.2,2.6-2.1,3.7c-1.7,2.3-4,4.2-6.6,5.4c-1.3,0.6-2.7,1-4.1,1.3c-0.7,0.1-1.4,0.2-2.1,0.2l-0.1,0
	l-0.1,0l-0.2,0l-0.4,0l-0.2,0c0.1,0,0,0,0,0l-0.1,0c-0.4,0-0.8,0-1.1-0.1c-1.5-0.1-3-0.4-4.5-0.8c-1.5-0.4-2.9-1-4.2-1.7
	c-2.7-1.4-5.1-3.4-7-5.8c-0.9-1.2-1.8-2.5-2.5-3.8c-0.7-1.3-1.2-2.7-1.6-4.2c-0.4-1.4-0.6-2.9-0.7-4.4l0-0.3l0-0.1l0-0.1l0-0.1
	l0-0.2l0-0.1l0-0.1l0-0.2l0-0.3l0-0.1c0,0,0,0,0,0l0-0.1c0-0.2,0-0.4,0-0.5c0-0.7,0.1-1.5,0.2-2.2c0.1-0.8,0.2-1.5,0.4-2.3
	c0.2-0.7,0.3-1.5,0.5-2.2c0.4-1.5,0.9-2.9,1.6-4.2c1.2-2.7,2.9-5,4.8-6.9c0.5-0.5,1-0.9,1.5-1.3c0.5-0.4,1.1-0.8,1.6-1.2
	c0.6-0.4,1.1-0.7,1.7-1c0.3-0.2,0.6-0.3,0.9-0.4c0.2-0.1,0.3-0.1,0.5-0.2c0.2-0.1,0.3-0.1,0.5-0.2c0.6-0.3,1.2-0.5,1.9-0.7
	c0.2,0,0.3-0.1,0.5-0.1c0.2,0,0.3-0.1,0.5-0.1c0.3-0.1,0.7-0.2,1-0.2c0.2,0,0.3-0.1,0.5-0.1c0.2,0,0.3-0.1,0.5-0.1
	c0.2,0,0.3-0.1,0.5-0.1l0.2,0l0.3,0c0.2,0,0.3-0.1,0.5-0.1c0.2,0,0.4,0,0.6-0.1c0.2,0,0.4,0,0.6-0.1c0.1,0,0.2,0,0.4,0l0.2,0l0.1,0
	l0.1,0c0.2,0,0.4,0,0.6,0l0.3,0c0,0,0.1,0,0,0l0.1,0l0.1,0c0.2,0,0.3,0,0.5,0c0.6,0,1.3,0,1.9,0c1.3,0.1,2.5,0.2,3.7,0.4
	c2.4,0.4,4.7,1.2,6.7,2.2c2.1,1,3.9,2.2,5.5,3.6c0.1,0.1,0.2,0.2,0.3,0.3c0.1,0.1,0.2,0.2,0.3,0.3c0.2,0.2,0.4,0.3,0.6,0.5
	c0.2,0.2,0.4,0.4,0.5,0.5c0.2,0.2,0.4,0.4,0.5,0.5c0.7,0.7,1.3,1.4,1.9,2.2c1.1,1.5,2,2.9,2.8,4.3c0,0.1,0.1,0.2,0.1,0.3
	c0,0.1,0.1,0.2,0.1,0.3c0.1,0.2,0.2,0.3,0.2,0.5c0.1,0.2,0.2,0.3,0.2,0.5c0.1,0.2,0.1,0.3,0.2,0.5c0.3,0.7,0.5,1.3,0.7,1.9
	c0.3,0.9,0.6,1.8,0.8,2.5c0.1,0.3,0.4,0.5,0.7,0.5c0.3,0,0.6-0.3,0.6-0.6C382.8,142.4,382.8,141.4,382.7,140.4z"/>
<linearGradient id="SVGID_6_" gradientUnits="userSpaceOnUse" x1="358.5049" y1="227.6973" x2="358.5049" y2="26.2619">
	<stop  offset="0" style="stop-color:#FFF100"/>
	<stop  offset="1" style="stop-color:#F05A28"/>
</linearGradient>
<path fill="url(#SVGID_6_)" d="M394.1,75.3c-1.6,0-3.2,0.1-4.8,0.3C380.5,56.3,361,43,338.4,43c-28,0-51.1,20.5-55.3,47.3
	c1.8,2.4,3.3,5.1,4.5,7.9c0.4-27.7,23-50,50.8-50c9.9,0,19.5,2.9,27.7,8.3c8,5.3,14.4,12.7,18.4,21.4l1.6,3.4l3.7-0.4
	c1.5-0.2,2.8-0.3,4.2-0.3c19.1,0,34.6,15.5,34.6,34.6c0,19.1-15.5,34.6-34.6,34.6h-0.8h-8.8h-5.3c0.5,2.5,0.3,5.2,0.3,5.2h4.9h9h0.8
	v0c22,0,39.8-17.8,39.8-39.8C433.9,93.1,416,75.3,394.1,75.3z"/>
</svg>
