<?xml version="1.0" encoding="utf-8"?>
<!-- Generator: Adobe Illustrator 20.1.0, SVG Export Plug-In . SVG Version: 6.00 Build 0)  -->
<svg version="1.1" baseProfile="basic" id="Layer_1"
	 xmlns="http://www.w3.org/2000/svg" xmlns:xlink="http://www.w3.org/1999/xlink" x="0px" y="0px" width="296px" height="130px"
	 viewBox="0 0 296 130" xml:space="preserve">
<polygon opacity="0.5" fill="#343C3E" points="66.7,102.6 48.1,119.6 24.2,112 18.8,87.4 37.3,70.5 61.3,78.1 "/>
<polygon opacity="0.5" fill="#343C3E" points="88.8,74.8 81.8,101 55.7,107.9 36.6,88.8 43.6,62.7 69.7,55.7 "/>
<polygon opacity="0.5" fill="#343C3E" points="69.8,59 64.6,78.5 45.1,83.7 30.9,69.5 36.1,50 55.5,44.8 "/>
<polygon opacity="0.5" fill="#343C3E" points="285.6,95.3 276.5,106.9 261.8,104.8 256.3,91.1 265.5,79.4 280.2,81.6 "/>
<polygon opacity="0.5" fill="#343C3E" points="292.9,82 279.9,89 267.3,81.2 267.8,66.4 280.9,59.4 293.4,67.3 "/>
<polygon opacity="0.5" fill="#343C3E" points="31.6,65.3 35.5,80.3 24.4,91.1 9.6,86.9 5.7,72 16.7,61.1 "/>
<polygon opacity="0.5" fill="#343C3E" points="35.5,80.7 33.6,96.1 19.3,102 7,92.7 8.9,77.3 23.2,71.3 "/>
<polygon opacity="0.5" fill="#343C3E" points="52,79.4 48.2,93.7 33.9,97.5 23.4,87.1 27.3,72.8 41.6,68.9 "/>
<polygon opacity="0.5" fill="#343C3E" points="97,64.1 73.9,78.5 50,65.8 49,38.6 72,24.2 96,37 "/>
<polygon opacity="0.5" fill="#343C3E" points="98.7,38.2 93.6,57.1 74.8,62.1 61,48.3 66,29.5 84.9,24.4 "/>
<polygon opacity="0.5" fill="#343C3E" points="151.9,77.7 156,96.7 141.6,109.9 123,104 118.8,84.9 133.3,71.8 "/>
<polygon opacity="0.5" fill="#343C3E" points="91.7,103.4 76.5,115.6 58.3,108.4 55.4,89.2 70.7,77 88.8,84.1 "/>
<polygon opacity="0.5" fill="#343C3E" points="121.5,102.5 106.2,114.6 88.1,107.5 85.2,88.2 100.4,76.1 118.6,83.2 "/>
<polygon opacity="0.5" fill="#343C3E" points="220.3,36.7 214.6,58.1 193.1,63.9 177.4,48.2 183.1,26.7 204.6,20.9 "/>
<polygon opacity="0.5" fill="#343C3E" points="102.3,61 97.2,79.8 78.4,84.9 64.6,71.1 69.6,52.2 88.5,47.2 "/>
<polygon opacity="0.5" fill="#343C3E" points="97,76.8 92,95.6 73.1,100.7 59.3,86.9 64.4,68 83.2,63 "/>
<polygon opacity="0.5" fill="#343C3E" points="118,60.5 113,79.3 94.1,84.4 80.3,70.6 85.3,51.8 104.2,46.7 "/>
<polygon opacity="0.5" fill="#343C3E" points="123.5,38.2 118.4,57 99.6,62.1 85.8,48.3 90.9,29.5 109.7,24.4 "/>
<polygon opacity="0.5" fill="#343C3E" points="143.2,81.4 136,117.5 101.1,129.3 73.4,105 80.7,68.9 115.6,57.1 "/>
<polygon opacity="0.5" fill="#343C3E" points="161.4,40.7 154.1,76.8 119.2,88.6 91.6,64.2 98.8,28.1 133.7,16.4 "/>
<polygon opacity="0.5" fill="#343C3E" points="274.1,81.7 266.8,117.8 231.9,129.6 204.3,105.2 211.5,69.2 246.4,57.4 "/>
<polygon opacity="0.5" fill="#343C3E" points="145.6,63.9 140.6,82.8 121.7,87.8 107.9,74 113,55.2 131.8,50.1 "/>
<polygon opacity="0.5" fill="#343C3E" points="151.7,55.3 139.1,70.2 119.9,66.7 113.3,48.3 125.9,33.5 145.1,37 "/>
<polygon opacity="0.5" fill="#343C3E" points="172.3,60.1 167.3,78.9 148.5,84 134.6,70.2 139.7,51.3 158.6,46.3 "/>
<polygon opacity="0.5" fill="#343C3E" points="193.7,20.4 187.3,44 163.8,50.3 146.6,33.1 152.9,9.5 176.4,3.2 "/>
<polygon opacity="0.5" fill="#343C3E" points="167.6,37.7 150.3,59.7 122.5,55.7 112.1,29.6 129.4,7.6 157.2,11.7 "/>
<polygon opacity="0.5" fill="#343C3E" points="184.7,91.6 173.8,117.4 146,120.9 129,98.5 140,72.6 167.8,69.2 "/>
<polygon opacity="0.5" fill="#343C3E" points="201.1,47.5 196,66.3 177.2,71.3 163.4,57.5 168.5,38.7 187.3,33.6 "/>
<polygon opacity="0.5" fill="#343C3E" points="225.4,30.1 207.8,59.1 173.9,58.4 157.6,28.7 175.2,-0.3 209.1,0.5 "/>
<polygon opacity="0.5" fill="#343C3E" points="195.1,71 189.9,90.2 170.6,95.3 156.6,81.3 161.7,62.1 181,56.9 "/>
<polygon opacity="0.5" fill="#343C3E" points="190,98.6 163.6,129.7 123.5,122.5 109.8,84.1 136.1,53 176.2,60.3 "/>
<polygon opacity="0.5" fill="#343C3E" points="220.3,87.3 211.5,120 178.8,128.7 154.9,104.8 163.6,72.1 196.4,63.3 "/>
<polygon opacity="0.5" fill="#343C3E" points="262,40.7 253.3,73.4 220.6,82.1 196.6,58.2 205.4,25.5 238.1,16.7 "/>
<polygon opacity="0.5" fill="#343C3E" points="204,53.4 195.3,86.1 162.6,94.9 138.6,71 147.4,38.3 180.1,29.5 "/>
<polygon opacity="0.5" fill="#343C3E" points="227.8,88.5 205.3,113.8 172.1,107 161.4,74.8 184,49.5 217.1,56.3 "/>
<polygon opacity="0.5" fill="#343C3E" points="239.5,61.2 232.1,88.8 204.6,96.1 184.4,76 191.8,48.4 219.4,41 "/>
<polygon opacity="0.5" fill="#343C3E" points="237.6,69.6 250,95.3 233.8,118.9 205.4,116.7 193.1,91 209.1,67.4 "/>
<polygon opacity="0.5" fill="#343C3E" points="269.1,57.9 275.2,85.8 254.2,105 226.9,96.4 220.8,68.5 241.9,49.3 "/>
<polygon opacity="0.5" fill="#343C3E" points="222.1,52.7 217,71.5 198.1,76.6 184.4,62.8 189.4,43.9 208.3,38.9 "/>
<polygon opacity="0.5" fill="#343C3E" points="243.4,51.9 230.8,66.8 211.6,63.3 205,44.9 217.6,30 236.8,33.5 "/>
<polygon opacity="0.5" fill="#343C3E" points="266.8,51.1 260,76.5 234.5,83.3 215.9,64.7 222.7,39.3 248.1,32.5 "/>
<polygon opacity="0.5" fill="#343C3E" points="281.5,74.8 258.7,89.1 235,76.4 234.1,49.6 256.8,35.4 280.5,47.9 "/>
<polygon opacity="0.5" fill="#343C3E" points="60.7,84.3 38,98.5 14.3,86 13.3,59.1 36.1,44.8 59.8,57.5 "/>
<polygon opacity="0.5" fill="#343C3E" points="300.8,80.2 286.4,93.3 267.8,87.5 263.6,68.4 278,55.3 296.6,61.1 "/>
<line opacity="0.5" fill="#343C3E" x1="182" y1="82.8" x2="182" y2="82.8"/>
<linearGradient id="SVGID_1_" gradientUnits="userSpaceOnUse" x1="142.2572" y1="100.0592" x2="142.2572" y2="21.4194" gradientTransform="matrix(1 0 0 -1 0 132)">
	<stop  offset="0" style="stop-color:#B180B9"/>
	<stop  offset="1" style="stop-color:#8A509F"/>
</linearGradient>
<path fill="url(#SVGID_1_)" d="M148.2,89.7c-1.9,0.6-4,1-6.1,1h-7.7c-0.1,0.5-0.3,1-0.5,1.5c0.2,0.4,0.4,0.9,0.5,1.3h7.7l0,0
	c3,0,5.8-0.6,8.4-1.7C149.7,91.2,148.9,90.5,148.2,89.7z"/>
<linearGradient id="SVGID_2_" gradientUnits="userSpaceOnUse" x1="115.3606" y1="100.0592" x2="115.3606" y2="21.4194" gradientTransform="matrix(1 0 0 -1 0 132)">
	<stop  offset="0" style="stop-color:#B180B9"/>
	<stop  offset="1" style="stop-color:#8A509F"/>
</linearGradient>
<path fill="url(#SVGID_2_)" d="M92.2,90.8h-7.8l0,0h-2.8h-0.1c-6.3,0-11.5-5.2-11.5-11.5c0-6.4,5.2-11.5,11.5-11.5
	c0.1,0,0.1,0,0.2,0h0.2l3,0.1l-0.2-3c0-0.5-0.1-1-0.1-1.5C84.6,48.3,96.9,36,112,36c5.3,0,10.5,1.6,14.9,4.5
	c4.3,2.9,7.8,6.9,9.9,11.5l0.9,1.8l2-0.2c0.8-0.1,1.5-0.2,2.3-0.2c10.3,0,18.7,8.4,18.7,18.7c0,6-2.9,11.4-7.4,14.9
	c0.8,0.6,1.6,1.2,2.5,1.6c4.7-3.9,7.7-9.8,7.7-16.5c0-11.9-9.6-21.5-21.5-21.5c-0.9,0-1.7,0.1-2.6,0.2
	c-4.7-10.5-15.2-17.6-27.4-17.6c-16.7,0-30.2,13.5-30.2,30.2c0,0.5,0,1.1,0.1,1.6c-0.1,0-0.3,0-0.4,0c-7.9,0-14.3,6.4-14.3,14.3
	s6.4,14.3,14.3,14.3l0,0l0,0h10.6c0.1-0.4,0.3-0.9,0.5-1.3C92.4,91.7,92.3,91.2,92.2,90.8z"/>
<linearGradient id="SVGID_3_" gradientUnits="userSpaceOnUse" x1="113.2563" y1="100.0592" x2="113.2563" y2="21.4194" gradientTransform="matrix(1 0 0 -1 0 132)">
	<stop  offset="0" style="stop-color:#B180B9"/>
	<stop  offset="1" style="stop-color:#8A509F"/>
</linearGradient>
<path fill="url(#SVGID_3_)" d="M133.3,80c0.1-0.4,0.1-0.7,0.1-1.1c0-2.9-2.2-5.5-5.8-7.3c-0.9-0.5-1.9-0.9-3-1.2
	c-0.5-0.2-1.1-0.4-1.7-0.5c-0.3-0.1-0.6-0.2-0.9-0.2c-0.6-0.2-1.2-0.3-1.8-0.4c-0.6-0.1-1.2-0.2-1.9-0.3c-0.6-0.1-1.3-0.2-2-0.2
	c-1-0.1-2.1-0.1-3.1-0.1s-2.1,0.1-3.1,0.1c-0.6,0.1-1.3,0.1-2,0.2c-0.6,0.1-1.3,0.2-1.9,0.3c-0.6,0.1-1.2,0.3-1.8,0.4
	c-0.3,0.1-0.6,0.2-0.9,0.2c-0.6,0.2-1.1,0.3-1.7,0.5c-0.8,0.3-1.6,0.6-2.3,0.9c-4,1.9-6.5,4.6-6.5,7.7c0,0.4,0.1,0.8,0.1,1.1
	c-0.1,0.4-0.1,0.7-0.1,1.1c0,0.5,0.1,1,0.2,1.5c0.1,0.4,0.3,0.8,0.4,1.1c0.1,0.1,0.1,0.2,0.2,0.4c-0.1,0.1-0.1,0.2-0.2,0.4
	c-0.2,0.4-0.3,0.7-0.4,1.1c-0.2,0.5-0.2,1-0.2,1.5c0,0.4,0.1,0.8,0.1,1.1c-0.1,0.4-0.1,0.7-0.1,1.1c0,0.5,0.1,1,0.2,1.5
	c0.2,0.5,0.3,1,0.6,1.5c-0.3,0.4-0.4,0.9-0.6,1.3C93.1,94,93,94.6,93,95.2c0,0.4,0.1,0.8,0.1,1.1C93.1,96.6,93,97,93,97.3
	c0,3.5,3.1,6.5,8,8.3c0.3,0.1,0.5,0.2,0.8,0.3c0.5,0.2,1.1,0.4,1.7,0.5c1.4,0.4,3,0.7,4.6,0.9c0.6,0.1,1.3,0.2,2,0.2
	c1,0.1,2.1,0.1,3.1,0.1s2.1-0.1,3.1-0.1c0.6-0.1,1.3-0.1,2-0.2c1.6-0.2,3.2-0.5,4.6-0.9c0.6-0.2,1.1-0.3,1.7-0.5
	c0.3-0.1,0.5-0.2,0.8-0.3c0.5-0.2,1-0.4,1.5-0.6c0.2-0.1,0.5-0.2,0.7-0.3c3.6-1.9,5.8-4.5,5.8-7.3c0-0.4-0.1-0.8-0.1-1.1
	c0.1-0.4,0.1-0.7,0.1-1.1c0-0.5-0.1-1.1-0.3-1.7c-0.2-0.4-0.3-0.9-0.6-1.3c0.3-0.5,0.5-1,0.6-1.5c0.2-0.5,0.2-1,0.2-1.5
	c0-0.4-0.1-0.8-0.1-1.1c0.1-0.4,0.1-0.7,0.1-1.1c0-1-0.3-2-0.8-3c0.5-0.9,0.8-1.9,0.8-3C133.4,80.7,133.4,80.3,133.3,80z
	 M113.3,69.7c10.5,0,19,4.2,19,9.2c0,5.1-8.5,9.2-19,9.2s-19-4.2-19-9.2S102.8,69.7,113.3,69.7z M131.9,82.9
	c-1.8,4.2-9.4,7.3-18.6,7.3s-16.8-3.2-18.6-7.3c3,3.8,10.1,6.3,18.6,6.3C121.8,89.2,128.9,86.7,131.9,82.9z M113.3,97.4
	c6.5,0,12.1-1.5,15.8-3.8c1.1-0.8,2.1-1.6,2.9-2.5c-0.4,0.9-1,1.7-1.8,2.5c-3.2,2.9-9.5,4.9-16.8,4.9s-13.5-2-16.8-4.9
	c-0.9-0.8-1.5-1.6-1.8-2.5c0.7,0.9,1.7,1.7,2.9,2.5C101.2,95.9,106.8,97.4,113.3,97.4z M113.3,106.6c-9.2,0-16.8-3.2-18.6-7.3
	c3,3.8,10.1,6.3,18.6,6.3s15.6-2.6,18.6-6.3C130.1,103.4,122.5,106.6,113.3,106.6z M132.3,95.2c0,5.1-8.5,9.2-19,9.2s-19-4.2-19-9.2
	c0-0.5,0.1-1.1,0.3-1.7c0.1-0.1,0.1-0.2,0.1-0.3c0.1,0.1,0.2,0.2,0.2,0.3c3.1,3.6,10.1,6,18.3,6s15.2-2.4,18.3-6
	c0.1-0.1,0.2-0.2,0.2-0.3c0.1,0.1,0.1,0.2,0.1,0.3C132.2,94.1,132.3,94.6,132.3,95.2z M127.7,93c-3.5,2-8.7,3.2-14.5,3.2
	c-5.6,0-10.5-1.1-14-3c-1.4-0.8-2.5-1.6-3.3-2.5c-1-1.1-1.6-2.4-1.6-3.7c0-0.6,0.2-1.3,0.4-1.9c3,3.7,10.1,6.3,18.6,6.3
	s15.6-2.5,18.6-6.3c0.3,0.6,0.4,1.2,0.4,1.9c0,1.3-0.6,2.6-1.6,3.7C129.9,91.6,129,92.3,127.7,93z"/>
<linearGradient id="SVGID_4_" gradientUnits="userSpaceOnUse" x1="194.9444" y1="-0.824" x2="194.9444" y2="107.8265" gradientTransform="matrix(1 0 0 -1 0 132)">
	<stop  offset="0" style="stop-color:#F6EC1B"/>
	<stop  offset="1" style="stop-color:#F15B2D"/>
</linearGradient>
<path fill="url(#SVGID_4_)" d="M214.3,85.7c-0.1-0.7-0.2-1.6-0.4-2.4c-0.2-0.9-0.6-1.9-1.1-2.9c-0.5-1-1.2-2.1-2.1-3.1
	c-0.3-0.4-0.7-0.8-1.1-1.2c0.6-2.4-0.8-4.5-0.8-4.5c-2.3-0.2-3.8,0.7-4.3,1.1c-0.1-0.1-0.2-0.1-0.3-0.1c-0.4-0.2-0.8-0.3-1.2-0.4
	c-0.4-0.1-0.8-0.3-1.2-0.4c-0.4-0.1-0.9-0.2-1.3-0.3c-0.1,0-0.2,0-0.2-0.1c-1-3.2-3.9-4.5-3.9-4.5c-3.2,2-3.8,4.9-3.8,4.9
	s0,0.1-0.1,0.2c-0.2,0.1-0.4,0.1-0.5,0.2c-0.3,0.1-0.5,0.2-0.8,0.3c-0.2,0.1-0.5,0.2-0.7,0.3c-0.5,0.2-1,0.4-1.5,0.7
	c-0.4,0.3-0.9,0.5-1.3,0.9c-0.1-0.1-0.1-0.1-0.1-0.1c-4.4-1.7-8.4,0.3-8.4,0.3c-0.4,4.7,1.8,7.7,2.2,8.3c-0.1,0.3-0.2,0.6-0.3,0.9
	c-0.3,1.1-0.6,2.2-0.7,3.3c0,0.2-0.1,0.3-0.1,0.5c-4.1,2-5.3,6.1-5.3,6.1c3.4,3.9,7.4,4.2,7.4,4.2l0,0c0.5,0.9,1.1,1.8,1.8,2.6
	c0.3,0.3,0.6,0.6,0.9,1c-1.2,3.6,0.2,6.5,0.2,6.5c3.8,0.2,6.3-1.7,6.9-2.1c0.4,0.1,0.8,0.3,1.1,0.3c1.2,0.3,2.4,0.5,3.6,0.5
	c0.3,0,0.6,0,0.9,0h0.2h0.1h0.2h0.2l0,0c1.8,2.5,5,2.9,5,2.9c2.5-2.7,2.4-5.3,2.4-5.3l-0.1-0.1c0.5-0.3,1-0.7,1.4-1.1
	c0.9-0.8,1.7-1.7,2.3-2.8c0.1-0.1,0.1-0.2,0.2-0.3c2.5,0.2,4.3-1.6,4.3-1.6c-0.5-3-2.3-4.2-2.3-4.2h-0.1c0-0.2,0.1-0.4,0.1-0.5
	c0-0.3,0-0.6,0.1-0.9v-0.2v-0.1v-0.1c0-0.1,0-0.1,0-0.1v-0.2v-0.2c0-0.1,0-0.2,0-0.2c0-0.1,0-0.2,0-0.2v-0.2l-0.1-0.2
	c-0.1-0.3-0.1-0.6-0.2-0.9c-0.3-1.1-0.7-2.2-1.3-3.2c-0.6-1-1.3-1.8-2.2-2.5c-0.8-0.7-1.7-1.3-2.7-1.7c-1-0.4-2-0.7-3-0.9
	c-0.5-0.1-1-0.1-1.5-0.1h-0.2h-0.1h-0.1h-0.1h-0.2c-0.1,0-0.2,0-0.2,0c-0.3,0-0.5,0.1-0.8,0.1c-1,0.2-1.9,0.5-2.8,1.1
	c-0.9,0.5-1.6,1.1-2.2,1.8c-0.6,0.7-1,1.5-1.3,2.3c-0.3,0.8-0.5,1.7-0.5,2.5c0,0.2,0,0.4,0,0.6c0,0.1,0,0.1,0,0.2v0.2
	c0,0.1,0,0.2,0,0.3c0.1,0.4,0.1,0.8,0.2,1.2c0.2,0.8,0.6,1.5,1,2c0.4,0.6,1,1.1,1.5,1.5s1.1,0.6,1.7,0.8c0.6,0.2,1.2,0.3,1.7,0.3
	c0.1,0,0.2,0,0.2,0s0.1,0,0.1,0c0.1,0,0.1,0,0.1,0s0.1,0,0.2,0h0.1h0.1c0.1,0,0.1,0,0.1,0c0.1,0,0.1,0,0.2-0.1c0.1,0,0.1,0,0.2-0.1
	c0.1-0.1,0.3-0.1,0.4-0.1c0.2-0.1,0.5-0.2,0.7-0.3s0.4-0.2,0.6-0.4c0.1-0.1,0.1-0.1,0.2-0.1c0.2-0.2,0.2-0.4,0.1-0.6
	c-0.1-0.2-0.4-0.2-0.5-0.1c-0.1,0-0.1,0.1-0.2,0.1c-0.2,0.1-0.3,0.2-0.5,0.2c-0.2,0.1-0.4,0.1-0.5,0.2c-0.1,0-0.2,0.1-0.3,0.1
	c-0.1,0-0.1,0-0.2,0c-0.1,0-0.1,0-0.2,0s-0.1,0-0.2,0c-0.1,0-0.1,0-0.2,0c0,0-0.1,0,0,0l0,0h-0.1h-0.1c-0.1,0-0.1,0-0.2,0
	c-0.4-0.1-0.9-0.2-1.3-0.4c-0.4-0.2-0.8-0.4-1.2-0.8c-0.4-0.3-0.7-0.7-0.9-1.2c-0.3-0.4-0.4-0.9-0.5-1.5c-0.1-0.3-0.1-0.5-0.1-0.8
	c0-0.1,0-0.2,0-0.2l0,0l0,0v-0.1c0-0.1,0-0.1,0-0.1c0-0.2,0.1-0.3,0.1-0.4c0.2-1.1,0.8-2.2,1.6-3.1c0.2-0.2,0.4-0.4,0.7-0.6
	c0.3-0.2,0.5-0.3,0.8-0.4c0.3-0.1,0.6-0.2,0.9-0.3c0.3-0.1,0.6-0.1,0.9-0.2c0.2,0,0.3,0,0.5,0c0.1,0,0.1,0,0.1,0h0.1h0.1
	c0.1,0,0,0,0,0h0.1h0.1c0.3,0.1,0.6,0.1,1,0.2c0.6,0.2,1.3,0.4,1.9,0.7c1.2,0.6,2.2,1.7,2.9,3c0.3,0.6,0.5,1.3,0.6,2
	c0,0.2,0.1,0.3,0.1,0.5v0.1v0.1c0,0.1,0,0.1,0,0.1c0,0.1,0,0.1,0,0.1v0.1v0.1c0,0.1,0,0.2,0,0.3c0,0.2-0.1,0.4-0.1,0.6
	c0,0.2-0.1,0.4-0.1,0.5c-0.1,0.2-0.1,0.4-0.1,0.5c-0.1,0.4-0.2,0.8-0.4,1.1c-0.3,0.7-0.6,1.4-1.1,2c-0.9,1.2-2.2,2.3-3.6,2.9
	c-0.7,0.3-1.5,0.5-2.2,0.7c-0.4,0.1-0.8,0.1-1.1,0.1h-0.1h-0.1h-0.1h-0.2h-0.1c0.1,0,0,0,0,0h-0.1c-0.2,0-0.4,0-0.6-0.1
	c-0.8-0.1-1.6-0.2-2.4-0.4c-0.8-0.2-1.6-0.5-2.3-0.9c-1.5-0.8-2.8-1.8-3.8-3.1c-0.5-0.6-1-1.3-1.3-2c-0.4-0.7-0.6-1.5-0.9-2.3
	c-0.2-0.8-0.3-1.6-0.4-2.4v-0.2v-0.1v-0.1v-0.1v-0.1v-0.1v-0.1v-0.1v-0.2V89l0,0V89c0-0.1,0-0.2,0-0.3c0-0.4,0.1-0.8,0.1-1.2
	c0.1-0.4,0.1-0.8,0.2-1.2c0.1-0.4,0.2-0.8,0.3-1.2c0.2-0.8,0.5-1.6,0.9-2.3c0.6-1.5,1.6-2.7,2.6-3.7c0.3-0.3,0.5-0.5,0.8-0.7
	s0.6-0.4,0.9-0.6c0.3-0.2,0.6-0.4,0.9-0.5c0.2-0.1,0.3-0.2,0.5-0.2c0.1-0.1,0.2-0.1,0.3-0.1c0.1-0.1,0.2-0.1,0.3-0.1
	c0.3-0.2,0.6-0.3,1-0.4c0.1,0,0.2-0.1,0.3-0.1c0.1,0,0.2-0.1,0.3-0.1c0.2-0.1,0.4-0.1,0.5-0.1c0.1,0,0.2-0.1,0.3-0.1
	c0.1,0,0.2-0.1,0.3-0.1c0.1,0,0.2-0.1,0.3-0.1h0.1h0.2c0.1,0,0.2-0.1,0.3-0.1c0.1,0,0.2,0,0.3-0.1c0.1,0,0.2,0,0.3-0.1
	c0.1,0,0.1,0,0.2,0h0.1h0.1h0.1c0.1,0,0.2,0,0.3,0h0.2c0,0,0.1,0,0,0h0.1h0.1c0.1,0,0.2,0,0.3,0c0.3,0,0.7,0,1,0
	c0.7,0.1,1.3,0.1,2,0.2c1.3,0.2,2.5,0.6,3.6,1.2c1.1,0.5,2.1,1.2,3,1.9c0.1,0.1,0.1,0.1,0.2,0.2c0.1,0.1,0.1,0.1,0.2,0.2
	c0.1,0.1,0.2,0.2,0.3,0.3s0.2,0.2,0.3,0.3c0.1,0.1,0.2,0.2,0.3,0.3c0.4,0.4,0.7,0.8,1,1.2c0.6,0.8,1.1,1.6,1.5,2.3
	c0,0.1,0.1,0.1,0.1,0.2s0.1,0.1,0.1,0.2c0.1,0.1,0.1,0.2,0.1,0.3c0.1,0.1,0.1,0.2,0.1,0.3c0.1,0.1,0.1,0.2,0.1,0.3
	c0.2,0.4,0.3,0.7,0.4,1c0.2,0.5,0.3,1,0.4,1.3c0.1,0.2,0.2,0.3,0.4,0.3s0.3-0.2,0.3-0.3C214.4,86.8,214.4,86.3,214.3,85.7z"/>
<linearGradient id="SVGID_5_" gradientUnits="userSpaceOnUse" x1="201.2571" y1="-0.824" x2="201.2571" y2="107.8265" gradientTransform="matrix(1 0 0 -1 0 132)">
	<stop  offset="0" style="stop-color:#FCEE1F"/>
	<stop  offset="1" style="stop-color:#F15B2A"/>
</linearGradient>
<path fill="url(#SVGID_5_)" d="M220.5,50.6c-0.9,0-1.7,0.1-2.6,0.2c-4.7-10.4-15.3-17.6-27.5-17.6c-15.1,0-27.6,11.1-29.8,25.5
	c1,1.3,1.8,2.8,2.4,4.3c0.2-14.9,12.4-27,27.4-27c5.3,0,10.5,1.6,14.9,4.5c4.3,2.9,7.8,6.9,9.9,11.5l0.9,1.8l2-0.2
	c0.8-0.1,1.5-0.2,2.3-0.2c10.3,0,18.7,8.4,18.7,18.7s-8.4,18.7-18.7,18.7H220h-4.7h-2.9c0.3,1.3,0.2,2.8,0.2,2.8h2.6h4.9h0.4l0,0
	c11.9,0,21.5-9.6,21.5-21.5C241.9,60.2,232.3,50.6,220.5,50.6z"/>
<linearGradient id="SVGID_6_" gradientUnits="userSpaceOnUse" x1="160.1973" y1="-0.824" x2="160.1973" y2="107.8265" gradientTransform="matrix(1 0 0 -1 0 132)">
	<stop  offset="0" style="stop-color:#FCEE1F"/>
	<stop  offset="1" style="stop-color:#F15B2A"/>
</linearGradient>
<path fill="url(#SVGID_6_)" d="M174.9,90.8h-12.2l0,0h-2.8h-0.1c-6.3,0-11.5-5.2-11.5-11.5c0-6,4.6-10.9,10.5-11.5
	c-0.2-0.9-0.5-1.8-1-2.7c-7,1-12.3,7-12.3,14.2c0,7.9,6.4,14.3,14.3,14.3l0,0l0,0h13.7l0.1-0.3C173.7,93.1,174.1,92.1,174.9,90.8z"
	/>
</svg>
