<?xml version="1.0" encoding="utf-8"?>
<!-- Generator: Adobe Illustrator 20.1.0, SVG Export Plug-In . SVG Version: 6.00 Build 0)  -->
<svg version="1.1" id="Layer_1" xmlns="http://www.w3.org/2000/svg" xmlns:xlink="http://www.w3.org/1999/xlink" x="0px" y="0px"
	 width="540px" height="230px" viewBox="0 0 540 230" enable-background="new 0 0 540 230" xml:space="preserve">
<path fill="#F37021" d="M146.6,126.1c0,0-27.4-9.4-35.3,12.4s-3.7,33.7-20.8,47.3c0,0,3-2.5,27.5-6c26.1-3.6,35.4,9.8,46.5-14.5
	C164.4,165.3,155.9,139.3,146.6,126.1L146.6,126.1z"/>
<path opacity="0.8" fill="#FFDE17" enable-background="new    " d="M151.5,135.5c0,0-14.8-6.4-23.7,7.1
	c-8.9,13.5-7.9,16.4-13.3,19.2c0,0,1.7,4.5,15.8,0.3c14.2-4.1,1.5,7,1.5,7s18.9,9.5,29.9-10.7C161.9,158.5,155.5,141.6,151.5,135.5
	L151.5,135.5z"/>
<path fill="#808285" d="M462.6,18.4c2.1,1.2,1.7,2.6,0.5,4.7s-2.2,2.1-4.1,0.6c-2.4-2-2.3-1.6-1.5-3.2
	C458.6,18.4,460.5,17.3,462.6,18.4z M520.5,10.9c0.8,1.1,0.2,1.8-1,2.5c-1.1,0.8-1.7,0.5-2.3-0.7c-0.8-1.6-0.8-1.4,0.1-2.1
	C518.4,9.9,519.7,9.8,520.5,10.9L520.5,10.9z M443.6,59.4c-0.9,1-1.7,0.6-2.6-0.3c-1-0.9-0.9-1.5,0.2-2.3c1.4-1.2,1.2-1.2,2.1-0.4
	C444.2,57.1,444.4,58.3,443.6,59.4z M397.4,28.4c1.9-1.3,2.9-0.3,4.2,1.6c1.3,1.9,0.8,2.7-1.2,3.7c-2.6,1.3-2.3,1.4-3.4-0.1
	C395.7,31.7,395.6,29.6,397.4,28.4L397.4,28.4z M436.6,31c1.9-3.4,4.3-2.6,7.8-0.8c3.4,1.9,3.4,3.6,1,6.8c-3.1,4.1-2.6,3.9-5.4,2.4
	C436.5,37.7,434.8,34.5,436.6,31z M414.7,98.9c-0.9,1-1.7,0.6-2.6-0.3c-1-0.9-0.9-1.5,0.2-2.3c1.4-1.2,1.2-1.2,2.1-0.4
	C415.2,96.7,415.6,97.9,414.7,98.9z M284.9,160.2c0.4,1.3-0.4,1.7-1.8,2.1c-1.3,0.4-1.8-0.1-1.9-1.5c-0.2-1.8-0.3-1.6,0.8-2
	C283.3,158.6,284.5,159,284.9,160.2z M316.8,174.1c0.4,1.3-0.4,1.7-1.8,2.1c-1.3,0.4-1.8-0.1-1.9-1.5c-0.2-1.8-0.3-1.6,0.8-2
	C315.2,172.5,316.4,172.9,316.8,174.1z M342.3,153.4c-1.3,0.3-1.7-0.5-2.1-1.8c-0.3-1.3,0.1-1.8,1.5-1.9c1.8-0.1,1.7-0.3,1.9,0.8
	C344.1,151.9,343.7,153.1,342.3,153.4z M168.6,31.7c-1.4,0-1.6-0.9-1.6-2.3s0.6-1.7,1.9-1.4c1.8,0.3,1.7,0.1,1.7,1.3
	C170.6,30.6,169.9,31.7,168.6,31.7L168.6,31.7z M488,154.5c-0.4-1.3,0.5-1.7,1.8-2.1c1.3-0.4,1.8,0.1,1.9,1.5c0.2,1.8,0.3,1.6-0.8,2
	C489.5,156.1,488.4,155.7,488,154.5z M456.2,140.4c-0.4-1.3,0.5-1.7,1.8-2.1s1.8,0.1,1.9,1.5c0.2,1.8,0.3,1.6-0.8,2
	C457.8,142,456.6,141.6,456.2,140.4z M150.1,16.6c-2.2,1.1-3.1-0.2-4.1-2.3s-0.4-3,1.9-3.7c3-0.9,2.6-1.1,3.5,0.7
	C152.4,13.4,152.2,15.5,150.1,16.6z M0.7,68.5c0.3-2,1.6-2.1,3.6-1.8s2.3,1.2,1.6,3c-0.8,2.5-0.5,2.4-2.2,2.1
	C1.8,71.7,0.4,70.5,0.7,68.5L0.7,68.5z M26.3,45c-1.1-3.3,0.9-4.5,4.2-5.4c3.3-1,4.5,0.1,5,3.5c0.6,4.6,1,4-1.7,4.9
	C30.4,49,27.4,48.3,26.3,45z M214.3,41.8c-2.2,1.1-3.1-0.2-4.1-2.3c-1.1-2.2-0.4-3,1.9-3.7c3-0.9,2.6-1.1,3.5,0.7
	C216.6,38.5,216.3,40.7,214.3,41.8z M110.5,192.6c-2.2,1.1-3.1-0.2-4.1-2.3c-1.1-2.2-0.4-3,1.9-3.7c3-0.9,2.6-1.1,3.5,0.7
	C112.8,189.4,112.6,191.5,110.5,192.6z M23.6,164.8c-0.9-1-0.4-1.8,0.7-2.6c1-0.9,1.6-0.7,2.3,0.5c1,1.5,1,1.3,0.2,2.1
	C25.6,165.6,24.5,165.8,23.6,164.8L23.6,164.8z M107.6,11.9c-1.4,0-1.6-0.9-1.6-2.3s0.6-1.7,1.9-1.4c1.8,0.3,1.7,0.1,1.7,1.3
	C109.7,10.9,109,11.9,107.6,11.9z M2.7,133.9c-1.4,0-1.6-0.9-1.6-2.3c0-1.4,0.6-1.7,1.9-1.4c1.8,0.3,1.7,0.1,1.7,1.3
	C4.7,132.8,4.1,133.9,2.7,133.9z M170.5,179.1c-2.3,0.6-2.9-0.8-3.5-3.1c-0.6-2.3,0.2-3,2.5-3.2c3.1-0.3,2.8-0.5,3.3,1.4
	C173.5,176.5,172.8,178.5,170.5,179.1z M344.9,199.1c-1.1-2.2,0.2-3.1,2.3-4.1s3-0.4,3.7,1.9c0.9,3,1.1,2.6-0.7,3.5
	C348.1,201.4,345.9,201.2,344.9,199.1L344.9,199.1z M201.6,49.4c-1.9-0.8-1.7-2.1-0.9-4c0.8-1.9,1.7-2,3.4-1
	c2.3,1.4,2.3,1.1,1.7,2.6C205.1,49,203.5,50.2,201.6,49.4z M473.4,60.3c-0.8-0.9-0.3-1.5,0.6-2.3c0.9-0.8,1.4-0.6,2,0.4
	c0.8,1.3,0.9,1.1,0.2,1.8C475.3,60.9,474.2,61.1,473.4,60.3L473.4,60.3z M510,121c0-1.4,0.9-1.6,2.3-1.6c1.4,0,1.7,0.6,1.4,1.9
	c-0.3,1.8-0.1,1.7-1.3,1.7C511,123,510,122.4,510,121L510,121z"/>
<path fill="#1B1B1B" stroke="#1B1B1B" stroke-miterlimit="10" d="M177.1,119c0-1.4,0.9-1.6,2.3-1.6c1.4,0,1.7,0.6,1.4,1.9
	c-0.3,1.8-0.1,1.7-1.3,1.7C178.2,121.1,177.1,120.4,177.1,119L177.1,119z"/>
<path fill="#808285" d="M421.8,129.7c0-1.4,0.9-1.6,2.3-1.6s1.7,0.6,1.4,1.9c-0.3,1.8-0.1,1.7-1.3,1.7
	C422.8,131.7,421.8,131.1,421.8,129.7L421.8,129.7z M38.6,133.1c0.9,1,0.4,1.8-0.7,2.6c-1,0.9-1.6,0.7-2.3-0.5c-1-1.5-1-1.3-0.2-2.1
	C36.4,132.4,37.6,132.2,38.6,133.1L38.6,133.1z"/>
<path fill="#707070" d="M195.1,67.1c-8.2,6.8-16.3,14.1-24.3,21.7c-0.1,0.1-0.3,0.1-0.3-0.1c-8.5-15.5-40-16.1-74-1.9
	c-0.3,0.1-0.5-0.2-0.2-0.4c6.7-4.5,14.2-8.8,22.2-12.5c31.4-14.5,63.2-17,76.5-7.3C195.3,66.8,195.3,67,195.1,67.1z"/>
<path fill="#4D4D4D" d="M240.8,166.4c-10.5,1.9-21.3,3.2-32.3,4.3c-0.1,0-0.2,0.2-0.2,0.3c6.3,16.5-13.7,40.9-46.7,57.3
	c-0.2,0.1-0.1,0.5,0.2,0.4c7.8-2.2,15.8-5.1,24-8.8c31.4-14.5,54-37,55.3-53.3C241.1,166.5,241,166.3,240.8,166.4L240.8,166.4z
	 M209.2,49.3c0,0-1.4,0.9-11,9.4c0,0,34.9,85.6,50.7,110.2c6.5-0.9,9.1-1.2,14.7-2.2L209.2,49.3L209.2,49.3z M340.8,1.6
	c0.4-0.1,6.4-0.2,8.6-0.2L391.2,91c0,0-3.8,4.3-5.5,6.2l-26.3-40.7L340.8,1.6z"/>
<path fill="#F7941E" d="M390.1,92.1c34.3-38.9,50.7-78.4,50.7-78.4S400.1,0.6,348.2,1.4c3,15.3,8.4,31.6,15.8,47.7
	C371.6,65.1,380.5,79.9,390.1,92.1z"/>
<path fill="#707070" d="M225.7,112.8c-9.5-20.5-17.6-40.6-23.4-57.7c-25.8,22.5-44.8,48.5-57.2,68.8c3.9,6.7,7.6,13.7,11,21
	c3.4,7.3,6.4,14.8,8.9,22c23.6,3.7,55.6,6.2,89.5,1.2C245.2,152.5,235.2,133.3,225.7,112.8L225.7,112.8z"/>
<path fill="#B3B3B3" d="M259.3,167.3c18-3,36.5-8.1,54.4-16.3c29.9-13.8,54.3-34.3,73.5-55.4c-10-12.6-19.3-27.9-27-44.6
	c-7.7-16.7-13.3-33.7-16.4-49.5c-28.5,0.9-60,6-89.8,19.8C236,29.4,220.1,40.1,206,51.8c5.8,17.3,14.1,37.9,23.8,59
	C239.6,132.1,249.8,151.6,259.3,167.3L259.3,167.3z"/>
<g opacity="0.3">
	<path fill="#FFFFFF" d="M434.4,14.1c0,0-43.1-10.8-80.3-9.4C354.2,4.8,356.7,64.7,434.4,14.1z"/>
</g>
<path fill="#F37021" d="M383.2,82.8l57.6-69c0,0-18.9,43-50.7,78.4C390.1,92.1,387.7,89.6,383.2,82.8z"/>
<path fill="#707070" d="M259.3,167.3c18-3,36.5-8.1,54.4-16.3c29.9-13.8,54.3-34.3,73.5-55.4c-9.2-11.6-17.7-25.3-25-40.4
	C347,25.8,212,68.8,215.7,78c4.2,10.6,9,21.7,14.2,33C239.6,132.1,249.8,151.6,259.3,167.3L259.3,167.3z"/>
<path fill="#4D4D4D" d="M232.8,117.4l0.3-0.1c48.6-13.7,81.3-29.2,100.1-39.8c20.4-11.4,29.4-19.8,29.5-19.9l0.4-0.3
	c0,0,0.7,1.5,1.6,3.1c-1.9,1.7-11,9.4-29.6,19.9c-19,10.7-51.8,26.3-100.8,40.1C233.5,118.8,232.8,117.4,232.8,117.4L232.8,117.4z"
	/>
<path fill="#707070" d="M316,71.6c-19.3-41.9-22.4-60.1-22.9-63.8c1.9-0.4,2.4-0.6,3.3-0.8c0.3,2.3,2.8,20.2,22.7,63.1L316,71.6z"/>
<path fill="#666666" d="M304.8,54.3c-0.2-0.4,0-0.8,0.3-1c0.4-0.2,0.8,0,1,0.3l0.1,0.1c0.2,0.4,0,0.8-0.4,1
	C305.4,54.9,305,54.7,304.8,54.3z M303,50.2L303,50.2c-0.2-0.5,0-0.9,0.4-1.1c0.4-0.2,0.8,0,1,0.4l0.1,0.1c0.2,0.4,0,0.8-0.4,0.9
	C303.6,50.7,303.2,50.5,303,50.2z M301.2,45.9L301.2,45.9c-0.2-0.5-0.1-0.9,0.3-1c0.4-0.1,0.8,0,0.9,0.4c0.1,0.4,0,0.8-0.4,1
	C301.7,46.4,301.3,46.3,301.2,45.9z M299.5,41.6L299.5,41.6c-0.2-0.5-0.1-0.9,0.3-1c0.4-0.1,0.8,0,0.9,0.4c0.1,0.4,0,0.8-0.4,1
	C300,42.1,299.7,42,299.5,41.6z M297.8,37.3l-0.1-0.2c-0.1-0.4,0.1-0.8,0.4-0.9c0.4-0.1,0.8,0.1,0.9,0.4c0.1,0.4,0,0.8-0.4,1
	C298.3,37.8,298,37.7,297.8,37.3z M296.2,33C296.2,33,296.2,32.9,296.2,33l-0.1-0.2c-0.1-0.4,0.1-0.8,0.4-0.9
	c0.4-0.1,0.8,0.1,0.9,0.4c0.1,0.4,0,0.8-0.4,1C296.7,33.3,296.3,33.3,296.2,33z M294.7,28.6l-0.1-0.2c-0.1-0.4,0.1-0.8,0.4-0.9
	c0.4-0.1,0.8,0.1,0.9,0.4V28c0.1,0.4-0.1,0.8-0.5,0.9C295.3,29,294.9,28.8,294.7,28.6L294.7,28.6z M293.3,24.2
	c0-0.1-0.1-0.2-0.1-0.2c-0.1-0.4,0.1-0.8,0.5-0.9c0.4-0.1,0.8,0.1,0.9,0.5s-0.1,0.8-0.5,0.9C293.8,24.5,293.4,24.4,293.3,24.2z
	 M291.9,19.8C291.9,19.7,291.9,19.7,291.9,19.8c0-0.1-0.1-0.2-0.1-0.2c-0.1-0.4,0.1-0.8,0.5-0.9c0.4-0.1,0.8,0.1,0.9,0.5
	c0.1,0.4-0.1,0.8-0.5,0.9C292.4,20.1,292.1,20,291.9,19.8z M290.8,15.3v-0.2c-0.1-0.4,0.2-0.8,0.5-0.9c0.4-0.1,0.8,0.2,0.9,0.5
	c0.1,0.4-0.1,0.8-0.5,0.9C291.2,15.6,291,15.5,290.8,15.3z M289.8,10.8c0-0.1,0-0.1-0.1-0.2v-0.1c-0.1-0.4,0.2-0.8,0.5-0.9
	c0.4-0.1,0.8,0.2,0.9,0.5v0.1c0.1,0.4-0.2,0.8-0.6,0.8C290.2,11.2,289.9,11,289.8,10.8L289.8,10.8z"/>
<path fill="#B2C4CD" d="M302.2,77.3c-5.8-12.5-0.3-27.4,12.2-33.1c12.5-5.8,27.4-0.3,33.1,12.2c5.8,12.5,0.3,27.4-12.2,33.1
	C322.8,95.3,307.9,89.8,302.2,77.3z"/>
<path fill="#FBB040" d="M345,57.6c5.1,11.1,0.3,24.3-10.9,29.3c-11.1,5.1-24.3,0.3-29.3-10.9c-5.1-11.1-0.3-24.3,10.9-29.3
	C326.7,41.7,339.9,46.6,345,57.6 M350,55.3c-6.4-13.9-22.9-20.1-36.9-13.6c-13.9,6.4-20.1,22.9-13.6,36.9
	c6.4,13.9,22.9,20.1,36.9,13.6C350.3,85.7,356.5,69.2,350,55.3z"/>
<path fill="#4D4D4D" d="M380.3,86.4c0,0-51.5,63.1-127.9,69.2c4.2,8.4,6.8,11.8,6.8,11.8s71.4-7.4,127.8-71.8L380.3,86.4L380.3,86.4
	z"/>
<path fill="#B2C4CD" d="M344,58.1c5.1,11,0.4,23.9-10.4,29.2c0.2-0.1,0.3-0.1,0.5-0.2C345.2,82,350,68.8,345,57.7
	s-18.3-15.9-29.3-10.9c-0.2,0.1-0.3,0.2-0.5,0.2C326.1,42.3,339,47.1,344,58.1z"/>
<path fill="#5A656B" d="M345,57.6c-5.1-11.1-18.3-15.9-29.3-10.9c-0.2,0.1-0.3,0.2-0.5,0.2C326.1,42.2,339,47,344,58
	c5.1,11,0.4,23.9-10.4,29.2c0.2-0.1,0.3-0.1,0.5-0.2C345.2,81.9,350,68.8,345,57.6z"/>
<path fill="#B2C4CD" d="M298.9,78.8c-2.4-5.3-3-10.9-2.1-16.2c-0.9,5.3-0.2,11,2.3,16.1c2.3,5.2,6.3,9.4,10.9,12.1
	C305.2,88.2,301.3,84,298.9,78.8z"/>
<path fill="#5A656B" d="M335.9,92.3c-13.8,6-29.9-0.1-36.3-13.9c-6.4-13.8-0.5-29.9,13-36.6c-0.2,0.1-0.4,0.2-0.6,0.2
	c-13.9,6.6-20,23.1-13.6,37c6.5,14,22.9,20.1,36.9,13.6L335.9,92.3z"/>
<g opacity="0.7">
	<path fill="#FFFFFF" d="M207.2,55.4c0,0,69.6-70.8,200-43.1c0,0-126-22.7-197.7,49.6C209.6,61.8,208,57.4,207.2,55.4z"/>
</g>
<path fill="#DBD1CF" d="M309.3,51.1c-6.5,6.4-8.6,16.3-4.6,25c4.4,9.5,14.6,14.4,24.5,12.4C304.7,84.4,311.1,49.3,309.3,51.1z"/>
<path fill="#424242" d="M173.8,168.2l-8.8-1.3c-8.4-24.5-19.9-43.1-19.9-43.1l4.8-7.5C149.9,116.3,166.5,143,173.8,168.2
	L173.8,168.2z"/>
<circle fill="#F37021" cx="347.3" cy="56.5" r="1.1"/>
<circle fill="#B3B3B3" cx="364.3" cy="63.7" r="0.7"/>
<circle fill="#B3B3B3" cx="361.3" cy="66" r="0.7"/>
<circle fill="#B3B3B3" cx="358.2" cy="68.2" r="0.7"/>
<circle fill="#B3B3B3" cx="354.5" cy="70.6" r="0.7"/>
<circle fill="#F37021" cx="302" cy="77.4" r="1.1"/>
<circle fill="#F37021" cx="335.1" cy="89.6" r="1.1"/>
<circle fill="#F37021" cx="314.2" cy="44.3" r="1.1"/>
<circle fill="#F37021" cx="348.1" cy="75.6" r="1.1"/>
<circle fill="#F37021" cx="301.3" cy="58.3" r="1.1"/>
<circle fill="#F37021" cx="316" cy="90.4" r="1.1"/>
<circle fill="#F37021" cx="333.3" cy="43.6" r="1.1"/>
<path fill="#B3B3B3" d="M169,90c13.8-18.5,33.5-35,33.5-35s7.9,21.8,9.4,25.2c0,0-1.6-1.8-6.3,1.1C200.9,84.3,151.4,125.5,169,90
	L169,90z"/>
<path fill="#4D4D4D" d="M291.4,109.1c-2.2-4.7-3.5-7.9-3.6-8.3l3.1-1.3c0.1,0.3,13.2,32.4,27,45.9l-2.3,2.4
	C305.6,138,296.3,119.7,291.4,109.1z"/>
<path fill="#B3B3B3" d="M302.6,89.6c-0.2-0.3,0-0.8,0.3-0.9c0.3-0.2,0.8-0.1,1,0.3c0.2,0.3,0.1,0.8-0.2,1h-0.1
	C303.2,90.1,302.8,90,302.6,89.6L302.6,89.6z M238,112.5C238,112.5,237.9,112.5,238,112.5c-0.1-0.5,0.1-0.9,0.5-1h0.1
	c0.4-0.1,0.8,0.1,0.9,0.5c0.1,0.4-0.1,0.8-0.5,0.9h-0.1C238.5,113,238.1,112.9,238,112.5z M242.4,111.3L242.4,111.3
	c-0.1-0.5,0.1-0.9,0.5-1c0.4-0.1,0.8,0.1,0.9,0.5c0.1,0.4-0.1,0.8-0.4,0.9h-0.1C242.9,111.8,242.5,111.6,242.4,111.3z M246.8,110
	C246.8,110,246.7,109.9,246.8,110c-0.1-0.5,0.1-0.9,0.5-1h0.1c0.4-0.1,0.8,0.1,0.9,0.5c0.1,0.4-0.1,0.8-0.5,0.9h-0.1
	C247.3,110.5,246.9,110.3,246.8,110z M251.2,108.8C251.2,108.8,251.1,108.7,251.2,108.8c-0.2-0.5,0.1-0.9,0.4-1h0.1
	c0.4-0.1,0.8,0.1,0.9,0.5c0.1,0.4-0.1,0.8-0.5,0.9H252C251.7,109.3,251.3,109.1,251.2,108.8L251.2,108.8z M255.5,107.4
	c-0.2-0.5,0.1-0.9,0.4-1h0.1c0.4-0.1,0.8,0.1,0.9,0.5c0.1,0.4-0.1,0.8-0.5,0.9h-0.1C256.1,107.9,255.7,107.8,255.5,107.4
	L255.5,107.4z M259.9,106.1L259.9,106.1c-0.1-0.5,0.1-0.9,0.5-1c0.4-0.1,0.8,0.1,0.9,0.5c0.1,0.4,0,0.8-0.4,0.9h-0.1
	C260.4,106.5,260.1,106.4,259.9,106.1L259.9,106.1z M264.3,104.7C264.3,104.7,264.2,104.7,264.3,104.7c-0.2-0.5,0.1-0.9,0.4-1
	c0.4-0.1,0.9,0.1,1,0.4c0.1,0.4,0,0.8-0.4,0.9h-0.1C264.8,105.2,264.4,105.1,264.3,104.7z M268.7,103.3
	C268.7,103.2,268.7,103.2,268.7,103.3c-0.2-0.4,0-0.8,0.4-1h0.1c0.4-0.1,0.8,0.1,0.9,0.5s-0.1,0.8-0.5,0.9h-0.1
	C269.1,103.8,268.8,103.6,268.7,103.3z M273,101.7c-0.2-0.5,0.1-0.9,0.4-1c0.4-0.1,0.8,0,1,0.4c0.1,0.4,0,0.8-0.4,0.9h-0.1
	C273.5,102.2,273.2,102.1,273,101.7z M277.3,100.3C277.3,100.3,277.3,100.2,277.3,100.3c-0.2-0.4,0-0.8,0.4-1h0.1
	c0.4-0.1,0.8,0.1,0.9,0.4c0.1,0.4-0.1,0.8-0.4,0.9h-0.1C277.8,100.8,277.5,100.6,277.3,100.3z M281.6,98.7
	C281.6,98.6,281.6,98.6,281.6,98.7c-0.2-0.4,0-0.8,0.4-1c0.4-0.1,0.8,0,1,0.4c0.1,0.4,0,0.8-0.4,0.9h-0.1
	C282.2,99.2,281.8,99,281.6,98.7z M285.9,97C285.9,97,285.9,96.9,285.9,97c-0.2-0.4,0-0.8,0.4-1c0.4-0.1,0.9,0,1,0.4s0,0.8-0.4,0.9
	h-0.1C286.4,97.5,286,97.3,285.9,97z M290.1,95.3c-0.2-0.4,0-0.8,0.4-1c0.4-0.1,0.8,0,1,0.4c0.1,0.4,0,0.8-0.3,0.9
	c0,0-0.1,0-0.1,0.1C290.7,95.8,290.3,95.7,290.1,95.3z M294.3,93.5c-0.2-0.4,0-0.8,0.4-1l0.1-0.1c0.4-0.2,0.8,0,0.9,0.4
	c0.2,0.4,0,0.8-0.4,0.9h-0.1C294.9,94,294.5,93.9,294.3,93.5z M298.5,91.7c-0.2-0.4,0-0.8,0.3-0.9l0.1-0.1c0.4-0.2,0.8,0,1,0.4
	c0.2,0.4,0,0.8-0.4,1h-0.1C299.1,92.1,298.7,91.9,298.5,91.7z M298.2,111.3c-0.2-0.4,0-0.8,0.3-1c0.4-0.2,0.8-0.1,0.9,0.3v0.1
	c0.2,0.4,0,0.8-0.4,1C298.8,111.8,298.4,111.6,298.2,111.3L298.2,111.3z M296.3,107L296.3,107c-0.3-0.5-0.1-0.9,0.3-1
	c0.4-0.2,0.8,0,0.9,0.4v0.1c0.2,0.4,0,0.8-0.4,1C296.9,107.6,296.5,107.4,296.3,107z M300.2,115.4c-0.2-0.4,0-0.8,0.3-1
	c0.4-0.2,0.8-0.1,0.9,0.3l0.1,0.1c0.2,0.4,0,0.8-0.3,0.9C300.8,115.9,300.4,115.8,300.2,115.4z M294.6,102.8c-0.2-0.4,0-0.9,0.4-1
	c0.4-0.1,0.8-0.1,0.9,0.4v0.1c0.1,0.4,0,0.8-0.4,0.9C295.1,103.3,294.7,103.1,294.6,102.8z M302.3,119.5c-0.2-0.3,0-0.8,0.3-1
	c0.4-0.2,0.8-0.1,0.9,0.2l0.1,0.1c0.2,0.4,0,0.8-0.3,1C303,120.1,302.5,119.9,302.3,119.5z M304.6,123.6c-0.2-0.3-0.1-0.8,0.3-1
	c0.3-0.2,0.8-0.1,0.9,0.2l0.1,0.1c0.2,0.3,0.1,0.8-0.3,1C305.1,124.1,304.7,124,304.6,123.6z M306.8,127.7c-0.2-0.3-0.1-0.8,0.3-1
	c0.3-0.2,0.8-0.1,1,0.2l0.1,0.1c0.2,0.3,0.1,0.8-0.3,1C307.5,128.1,307.1,128,306.8,127.7C306.9,127.7,306.9,127.7,306.8,127.7z
	 M309.2,131.6c-0.2-0.3-0.1-0.8,0.2-1c0.3-0.2,0.7-0.2,1,0.2l0.1,0.1c0.2,0.3,0.1,0.8-0.2,1C309.9,132.1,309.5,132,309.2,131.6
	C309.3,131.7,309.2,131.6,309.2,131.6z M311.8,135.3c-0.1-0.3,0-0.7,0.2-0.9c0.3-0.2,0.8-0.1,1,0.2l0.1,0.1c0.2,0.3,0.1,0.8-0.2,1
	c-0.3,0.2-0.8,0.1-1-0.2L311.8,135.3L311.8,135.3z M314.6,139.1c-0.1-0.3-0.1-0.7,0.2-0.9c0.3-0.2,0.7-0.2,1,0.1l0.1,0.1
	c0.2,0.3,0.2,0.8-0.2,1C315.4,139.6,314.9,139.6,314.6,139.1C314.6,139.2,314.6,139.2,314.6,139.1L314.6,139.1z M317.6,142.7
	c-0.1-0.3-0.1-0.7,0.2-0.9c0.3-0.3,0.7-0.3,1,0l0.1,0.1c0.3,0.3,0.2,0.8-0.1,1c-0.3,0.3-0.8,0.2-1-0.1
	C317.6,142.8,317.6,142.7,317.6,142.7z"/>
<path fill="#4D4D4D" d="M173.8,168.2c46.9,6,80.7-0.1,80.7-0.1l-6.5-11.3C247.9,156.8,208.4,172.5,173.8,168.2L173.8,168.2z"/>
<path fill="#B3B3B3" d="M361.9,51.3c-0.2-0.4,0-0.8,0.4-1c0.4-0.2,0.8,0,1,0.4v0.1c0.2,0.4,0,0.8-0.3,1c-0.4,0.2-0.8,0-1-0.3
	C362,51.3,361.9,51.3,361.9,51.3z M360,47.1c-0.2-0.4,0-0.9,0.3-1c0.4-0.2,0.8-0.1,0.9,0.3l0.1,0.1c0.2,0.4,0,0.8-0.4,0.9
	C360.6,47.6,360.2,47.5,360,47.1z M363.9,55.6c-0.2-0.4,0-0.8,0.3-1c0.4-0.2,0.8-0.1,0.9,0.3l0.1,0.1c0.2,0.4,0,0.8-0.3,1
	C364.5,56,364.1,55.8,363.9,55.6z M358.2,42.9c-0.2-0.4,0-0.9,0.3-1c0.4-0.2,0.7-0.1,0.9,0.3v0.1c0.2,0.4,0,0.8-0.4,0.9
	C358.8,43.4,358.4,43.2,358.2,42.9z M366,59.7c-0.2-0.3,0-0.8,0.3-1c0.4-0.2,0.8-0.1,0.9,0.2l0.1,0.1c0.2,0.4,0,0.8-0.3,0.9
	C366.7,60.2,366.2,60.1,366,59.7C366.1,59.7,366.1,59.7,366,59.7z M356.4,38.6L356.4,38.6c-0.2-0.5-0.1-0.9,0.3-1
	c0.4-0.1,0.8,0,0.9,0.4v0.1c0.2,0.4,0,0.8-0.4,0.9C357,39.1,356.6,38.9,356.4,38.6z M368.1,63.7c-0.2-0.3,0-0.8,0.3-0.9
	c0.4-0.2,0.8-0.1,1,0.3v0.1c0.2,0.3,0.1,0.8-0.3,1c-0.3,0.2-0.8,0.1-1-0.3C368.2,63.8,368.1,63.7,368.1,63.7z M354.7,34.3
	C354.7,34.3,354.7,34.2,354.7,34.3c-0.2-0.4,0-0.9,0.4-1c0.4-0.1,0.8,0,0.9,0.4v0.1c0.1,0.4-0.1,0.8-0.4,0.9
	C355.3,34.8,354.9,34.6,354.7,34.3z M370.5,67.8c-0.2-0.3-0.1-0.8,0.3-1c0.3-0.2,0.8-0.1,1,0.2l0.1,0.1c0.2,0.3,0.1,0.8-0.3,1
	C371.1,68.3,370.7,68.2,370.5,67.8z M353.2,29.9c-0.2-0.4,0-0.9,0.4-1c0.4-0.1,0.8,0,0.9,0.4v0.1c0.1,0.4-0.1,0.8-0.4,0.9
	C353.7,30.4,353.4,30.3,353.2,29.9z M372.7,71.7c-0.2-0.3-0.1-0.8,0.3-1c0.3-0.2,0.8-0.1,1,0.2l0.1,0.1c0.2,0.3,0.1,0.8-0.3,1
	C373.4,72.3,373,72.2,372.7,71.7C372.8,71.8,372.7,71.8,372.7,71.7z M351.7,25.6C351.7,25.5,351.6,25.5,351.7,25.6l-0.1-0.2
	c-0.1-0.4,0.1-0.8,0.5-0.9c0.4-0.1,0.8,0.1,0.9,0.5v0.1c0.1,0.4-0.1,0.8-0.5,0.9C352.2,26.1,351.8,25.9,351.7,25.6z M375.1,75.6
	c-0.2-0.3,0-0.7,0.3-0.9c0.3-0.2,0.8-0.1,1,0.2V75c0.2,0.3,0.1,0.8-0.2,1s-0.8,0.1-1-0.2L375.1,75.6
	C375.2,75.7,375.2,75.6,375.1,75.6L375.1,75.6z M350.2,21.2C350.2,21.1,350.2,21.1,350.2,21.2c0-0.1-0.1-0.2-0.1-0.2
	c-0.1-0.4,0.1-0.8,0.5-0.9c0.4-0.1,0.8,0.1,0.9,0.5v0.1c0.1,0.4-0.1,0.8-0.5,0.9C350.8,21.7,350.4,21.5,350.2,21.2z M377.6,79.5
	c-0.1-0.3,0-0.7,0.3-0.9c0.3-0.2,0.8-0.1,1,0.2l0.1,0.1c0.2,0.3,0.1,0.8-0.2,1c-0.3,0.2-0.8,0.1-1-0.2
	C377.7,79.7,377.6,79.6,377.6,79.5L377.6,79.5z M349,16.7L349,16.7c-0.1-0.5,0.1-0.9,0.5-1c0.4-0.1,0.8,0,0.9,0.4v0.1
	c0.1,0.4-0.1,0.8-0.5,0.9C349.5,17.2,349.1,17,349,16.7z M380.3,83.4c-0.1-0.3-0.1-0.7,0.2-0.9s0.7-0.2,1,0.1l0.1,0.1
	c0.2,0.3,0.1,0.8-0.2,1C381.1,83.9,380.6,83.8,380.3,83.4C380.3,83.5,380.3,83.4,380.3,83.4z M347.8,12.3L347.8,12.3
	c-0.1-0.5,0.1-0.9,0.5-1c0.4-0.1,0.7,0.1,0.9,0.5v0.1c0.1,0.4-0.2,0.8-0.5,0.9C348.3,12.7,347.9,12.6,347.8,12.3z M382.8,87.2
	c-0.1-0.3,0-0.7,0.2-0.9c0.3-0.2,0.8-0.1,1,0.2l0.1,0.1c0.2,0.3,0.2,0.8-0.1,1c-0.3,0.2-0.8,0.2-1-0.1l-0.1-0.1
	C382.9,87.3,382.8,87.2,382.8,87.2z M346.7,7.8V7.6c-0.1-0.4,0.2-0.8,0.5-0.9c0.4-0.1,0.8,0.2,0.9,0.5v0.1c0.1,0.4-0.1,0.8-0.5,0.9
	C347.2,8.2,346.8,8.1,346.7,7.8z M385.7,91c-0.1-0.3-0.1-0.7,0.2-0.9c0.3-0.2,0.7-0.2,1,0.1l0.1,0.1c0.2,0.3,0.2,0.8-0.2,1
	C386.4,91.5,385.9,91.5,385.7,91C385.7,91.1,385.7,91,385.7,91z M345.7,3.2c0-0.1,0-0.1-0.1-0.2c-0.1-0.4,0.2-0.8,0.6-0.9
	c0.4-0.1,0.8,0.1,0.8,0.5v0.1c0.1,0.4-0.2,0.8-0.6,0.8C346.2,3.7,345.9,3.5,345.7,3.2L345.7,3.2z"/>
<g opacity="0.7">
	<path fill="#FFFFFF" d="M203.7,58.6c0,0-13.4,11-23.8,27.1c0,0,10.8-16,25.7-21.9C205.6,63.8,203.7,58.6,203.7,58.6z"/>
</g>
<path fill="#B3B3B3" d="M228.1,115c-0.2-0.4,0-0.8,0.3-1c0.4-0.2,0.8-0.1,0.9,0.3v0.1c0.2,0.4,0,0.8-0.4,1
	C228.7,115.5,228.3,115.4,228.1,115L228.1,115z M226.3,110.8c-0.2-0.4,0-0.8,0.3-1c0.4-0.2,0.8-0.1,0.9,0.3v0.1c0.2,0.4,0,0.8-0.4,1
	C226.9,111.3,226.4,111.2,226.3,110.8L226.3,110.8z M230.1,119.1c-0.2-0.4,0-0.8,0.4-1c0.4-0.2,0.8,0,1,0.4v0.1
	c0.2,0.4,0,0.8-0.3,0.9C230.8,119.7,230.4,119.5,230.1,119.1L230.1,119.1L230.1,119.1z M224.3,106.6c-0.2-0.4,0-0.9,0.3-1
	c0.4-0.2,0.8-0.1,0.9,0.3l0.1,0.1c0.2,0.4,0,0.8-0.4,0.9C224.9,107.1,224.5,107,224.3,106.6L224.3,106.6z M232.2,123.4
	c-0.2-0.4,0-0.8,0.3-1c0.4-0.2,0.8-0.1,0.9,0.3l0.1,0.1c0.2,0.4,0,0.8-0.4,1C232.7,123.9,232.4,123.7,232.2,123.4L232.2,123.4z
	 M222.5,102.4L222.5,102.4c-0.3-0.5-0.1-0.9,0.3-1c0.4-0.2,0.7,0,0.9,0.4v0.1c0.2,0.4,0,0.8-0.4,1
	C223.1,102.9,222.7,102.7,222.5,102.4L222.5,102.4z M220.6,98.1c-0.2-0.4,0-0.9,0.3-1c0.4-0.2,0.8,0,0.9,0.3v0.1
	c0.2,0.4,0,0.8-0.4,0.9C221.2,98.7,220.8,98.5,220.6,98.1z M234.2,127.6c-0.2-0.4,0-0.8,0.3-1c0.4-0.2,0.8-0.1,0.9,0.3l0.1,0.1
	c0.2,0.4,0,0.8-0.3,1C234.8,128,234.4,127.9,234.2,127.6L234.2,127.6z M218.9,93.9c-0.2-0.4,0-0.9,0.3-1c0.4-0.2,0.8,0,0.9,0.3v0.1
	c0.2,0.4,0,0.8-0.4,0.9C219.4,94.4,219.1,94.2,218.9,93.9z M236.2,131.6c-0.2-0.4,0-0.8,0.3-0.9c0.4-0.2,0.8,0,1,0.3v0.1
	c0.2,0.3,0.1,0.8-0.3,1c-0.4,0.2-0.8,0.1-1-0.3C236.3,131.7,236.3,131.6,236.2,131.6L236.2,131.6z M217.1,89.6c-0.2-0.4,0-0.9,0.4-1
	c0.4-0.1,0.7-0.1,0.9,0.3c0,0,0,0.1,0.1,0.1c0.1,0.4,0,0.8-0.4,0.9C217.6,90.1,217.2,90,217.1,89.6z M238.3,135.8
	c-0.2-0.3,0-0.8,0.3-1c0.4-0.2,0.8-0.1,0.9,0.2l0.1,0.1c0.2,0.4,0,0.8-0.3,0.9C239,136.3,238.5,136.2,238.3,135.8
	C238.4,135.8,238.3,135.8,238.3,135.8z M215.3,85.3L215.3,85.3c-0.2-0.5-0.1-0.9,0.3-1c0.4-0.1,0.8,0,0.9,0.4v0.1
	c0.2,0.4,0,0.8-0.4,0.9C215.9,85.9,215.5,85.7,215.3,85.3L215.3,85.3z M240.5,139.9c-0.2-0.3,0-0.8,0.3-1c0.4-0.2,0.8-0.1,0.9,0.2
	l0.1,0.1c0.2,0.4,0,0.8-0.3,1C241.1,140.4,240.7,140.3,240.5,139.9z M213.6,81c-0.2-0.4,0-0.9,0.4-1c0.4-0.1,0.8,0,0.9,0.4v0.1
	c0.1,0.4,0,0.8-0.4,0.9C214.2,81.6,213.8,81.4,213.6,81z M242.7,144c-0.2-0.3-0.1-0.8,0.3-1c0.4-0.2,0.8-0.1,0.9,0.2l0.1,0.1
	c0.2,0.3,0.1,0.8-0.3,1C243.3,144.5,242.9,144.4,242.7,144z M211.9,76.7c-0.2-0.4,0-0.9,0.4-1c0.4-0.1,0.8,0,0.9,0.4v0.1
	c0.1,0.4-0.1,0.8-0.4,0.9C212.5,77.2,212.1,77.1,211.9,76.7z M244.9,147.9c-0.2-0.3,0-0.8,0.3-0.9c0.4-0.2,0.8-0.1,1,0.3v0.1
	c0.2,0.3,0.1,0.8-0.3,1c-0.3,0.2-0.8,0.1-1-0.3V147.9C244.9,148,244.9,147.9,244.9,147.9L244.9,147.9z M210.2,72.4
	c-0.2-0.4,0-0.9,0.4-1c0.4-0.1,0.8,0,0.9,0.4v0.1c0.1,0.4-0.1,0.8-0.4,0.9C210.8,72.9,210.4,72.8,210.2,72.4z M247.1,152.1
	c-0.2-0.3-0.1-0.8,0.3-1c0.3-0.2,0.8-0.1,0.9,0.2l0.1,0.1c0.2,0.3,0.1,0.8-0.3,1C247.8,152.6,247.3,152.4,247.1,152.1z M208.7,68.1
	l-0.1-0.2c-0.1-0.4,0.1-0.8,0.4-0.9c0.4-0.1,0.8,0.1,0.9,0.4v0.1c0.1,0.4,0,0.8-0.4,0.9C209.3,68.6,208.9,68.4,208.7,68.1
	L208.7,68.1z M249.5,156.1c-0.2-0.3-0.1-0.8,0.3-1c0.3-0.2,0.8-0.1,1,0.2l0.1,0.1c0.2,0.3,0.1,0.8-0.3,1
	C250.1,156.6,249.7,156.5,249.5,156.1z M207.1,63.7c-0.2-0.4,0-0.9,0.4-1s0.7,0,0.9,0.4v0.1c0.1,0.4-0.1,0.8-0.4,0.9
	C207.6,64.2,207.2,64.1,207.1,63.7z M205.6,59.4C205.6,59.4,205.6,59.3,205.6,59.4c-0.2-0.5,0-0.9,0.4-1c0.4-0.1,0.8,0,0.9,0.4v0.1
	c0.1,0.4-0.1,0.8-0.5,0.9C206.1,59.9,205.7,59.7,205.6,59.4L205.6,59.4z M254.1,164c-0.2-0.3,0-0.7,0.3-0.9c0.3-0.2,0.8-0.1,1,0.2
	l0.1,0.1c0.2,0.3,0.1,0.8-0.2,1c-0.3,0.2-0.8,0.1-1-0.2L254.1,164L254.1,164z M204.1,55C204.1,55,204.1,54.9,204.1,55
	c-0.2-0.5,0-0.9,0.4-1c0.4-0.1,0.8,0,0.9,0.4v0.1c0.1,0.4-0.1,0.8-0.5,0.9C204.6,55.5,204.3,55.3,204.1,55L204.1,55z"/>
<path fill="#4D4D4D" d="M209.2,49.3c0,0-1.4,0.9-11,9.4c0,0,34.9,85.6,50.7,110.2c6.5-0.9,9.1-1.2,14.7-2.2L209.2,49.3L209.2,49.3z
	 M340.8,1.6c0.4-0.1,6.4-0.2,8.6-0.2L391.2,91c0,0-3.8,4.3-5.5,6.2l-26.3-40.7L340.8,1.6z"/>
<path fill="#F7941E" d="M390.1,92.1c34.3-38.9,50.7-78.4,50.7-78.4S400.1,0.6,348.2,1.4c3,15.3,8.4,31.6,15.8,47.7
	C371.6,65.1,380.5,79.9,390.1,92.1z"/>
<path fill="#707070" d="M225.7,112.8c-9.5-20.5-17.6-40.6-23.4-57.7c-25.8,22.5-44.8,48.5-57.2,68.8c3.9,6.7,7.6,13.7,11,21
	c3.4,7.3,6.4,14.8,8.9,22c23.6,3.7,55.6,6.2,89.5,1.2C245.2,152.5,235.2,133.3,225.7,112.8L225.7,112.8z"/>
<path fill="#B3B3B3" d="M259.3,167.3c18-3,36.5-8.1,54.4-16.3c29.9-13.8,54.3-34.3,73.5-55.4c-10-12.6-19.3-27.9-27-44.6
	c-7.7-16.7-13.3-33.7-16.4-49.5c-28.5,0.9-60,6-89.8,19.8C236,29.4,220.1,40.1,206,51.8c5.8,17.3,14.1,37.9,23.8,59
	C239.6,132.1,249.8,151.6,259.3,167.3L259.3,167.3z"/>
<g opacity="0.3">
	<path fill="#FFFFFF" d="M434.4,14.1c0,0-43.1-10.8-80.3-9.4C354.2,4.8,356.7,64.7,434.4,14.1z"/>
</g>
<path fill="#F37021" d="M383.2,82.8l57.6-69c0,0-18.9,43-50.7,78.4C390.1,92.1,387.7,89.6,383.2,82.8z"/>
<path fill="#707070" d="M259.3,167.3c18-3,36.5-8.1,54.4-16.3c29.9-13.8,54.3-34.3,73.5-55.4c-9.2-11.6-17.7-25.3-25-40.4
	C347,25.8,212,68.8,215.7,78c4.2,10.6,9,21.7,14.2,33C239.6,132.1,249.8,151.6,259.3,167.3L259.3,167.3z"/>
<path fill="#4D4D4D" d="M232.8,117.4l0.3-0.1c48.6-13.7,81.3-29.2,100.1-39.8c20.4-11.4,29.4-19.8,29.5-19.9l0.4-0.3
	c0,0,0.7,1.5,1.6,3.1c-1.9,1.7-11,9.4-29.6,19.9c-19,10.7-51.8,26.3-100.8,40.1C233.5,118.8,232.8,117.4,232.8,117.4L232.8,117.4z"
	/>
<path fill="#707070" d="M316,71.6c-19.3-41.9-22.4-60.1-22.9-63.8c1.9-0.4,2.4-0.6,3.3-0.8c0.3,2.3,2.8,20.2,22.7,63.1L316,71.6z"/>
<path fill="#666666" d="M304.8,54.3c-0.2-0.4,0-0.8,0.3-1c0.4-0.2,0.8,0,1,0.3l0.1,0.1c0.2,0.4,0,0.8-0.4,1
	C305.4,54.9,305,54.7,304.8,54.3z M303,50.2L303,50.2c-0.2-0.5,0-0.9,0.4-1.1c0.4-0.2,0.8,0,1,0.4l0.1,0.1c0.2,0.4,0,0.8-0.4,0.9
	C303.6,50.7,303.2,50.5,303,50.2z M301.2,45.9L301.2,45.9c-0.2-0.5-0.1-0.9,0.3-1c0.4-0.1,0.8,0,0.9,0.4c0.1,0.4,0,0.8-0.4,1
	C301.7,46.4,301.3,46.3,301.2,45.9z M299.5,41.6L299.5,41.6c-0.2-0.5-0.1-0.9,0.3-1c0.4-0.1,0.8,0,0.9,0.4c0.1,0.4,0,0.8-0.4,1
	C300,42.1,299.7,42,299.5,41.6z M297.8,37.3l-0.1-0.2c-0.1-0.4,0.1-0.8,0.4-0.9c0.4-0.1,0.8,0.1,0.9,0.4c0.1,0.4,0,0.8-0.4,1
	C298.3,37.8,298,37.7,297.8,37.3z M296.2,33C296.2,33,296.2,32.9,296.2,33l-0.1-0.2c-0.1-0.4,0.1-0.8,0.4-0.9
	c0.4-0.1,0.8,0.1,0.9,0.4c0.1,0.4,0,0.8-0.4,1C296.7,33.3,296.3,33.3,296.2,33z M294.7,28.6l-0.1-0.2c-0.1-0.4,0.1-0.8,0.4-0.9
	c0.4-0.1,0.8,0.1,0.9,0.4V28c0.1,0.4-0.1,0.8-0.5,0.9C295.3,29,294.9,28.8,294.7,28.6L294.7,28.6z M293.3,24.2
	c0-0.1-0.1-0.2-0.1-0.2c-0.1-0.4,0.1-0.8,0.5-0.9c0.4-0.1,0.8,0.1,0.9,0.5s-0.1,0.8-0.5,0.9C293.8,24.5,293.4,24.4,293.3,24.2z
	 M291.9,19.8C291.9,19.7,291.9,19.7,291.9,19.8c0-0.1-0.1-0.2-0.1-0.2c-0.1-0.4,0.1-0.8,0.5-0.9c0.4-0.1,0.8,0.1,0.9,0.5
	c0.1,0.4-0.1,0.8-0.5,0.9C292.4,20.1,292.1,20,291.9,19.8z M290.8,15.3v-0.2c-0.1-0.4,0.2-0.8,0.5-0.9c0.4-0.1,0.8,0.2,0.9,0.5
	c0.1,0.4-0.1,0.8-0.5,0.9C291.2,15.6,291,15.5,290.8,15.3z M289.8,10.8c0-0.1,0-0.1-0.1-0.2v-0.1c-0.1-0.4,0.2-0.8,0.5-0.9
	c0.4-0.1,0.8,0.2,0.9,0.5v0.1c0.1,0.4-0.2,0.8-0.6,0.8C290.2,11.2,289.9,11,289.8,10.8L289.8,10.8z"/>
<path fill="#B2C4CD" d="M302.2,77.3c-5.8-12.5-0.3-27.4,12.2-33.1c12.5-5.8,27.4-0.3,33.1,12.2c5.8,12.5,0.3,27.4-12.2,33.1
	C322.8,95.3,307.9,89.8,302.2,77.3z"/>
<path fill="#FBB040" d="M345,57.6c5.1,11.1,0.3,24.3-10.9,29.3c-11.1,5.1-24.3,0.3-29.3-10.9c-5.1-11.1-0.3-24.3,10.9-29.3
	C326.7,41.7,339.9,46.6,345,57.6 M350,55.3c-6.4-13.9-22.9-20.1-36.9-13.6c-13.9,6.4-20.1,22.9-13.6,36.9
	c6.4,13.9,22.9,20.1,36.9,13.6C350.3,85.7,356.5,69.2,350,55.3z"/>
<path fill="#4D4D4D" d="M380.3,86.4c0,0-51.5,63.1-127.9,69.2c4.2,8.4,6.8,11.8,6.8,11.8s71.4-7.4,127.8-71.8L380.3,86.4L380.3,86.4
	z"/>
<path fill="#B2C4CD" d="M344,58.1c5.1,11,0.4,23.9-10.4,29.2c0.2-0.1,0.3-0.1,0.5-0.2C345.2,82,350,68.8,345,57.7
	s-18.3-15.9-29.3-10.9c-0.2,0.1-0.3,0.2-0.5,0.2C326.1,42.3,339,47.1,344,58.1z"/>
<path fill="#5A656B" d="M345,57.6c-5.1-11.1-18.3-15.9-29.3-10.9c-0.2,0.1-0.3,0.2-0.5,0.2C326.1,42.2,339,47,344,58
	c5.1,11,0.4,23.9-10.4,29.2c0.2-0.1,0.3-0.1,0.5-0.2C345.2,81.9,350,68.8,345,57.6z"/>
<path fill="#B2C4CD" d="M298.9,78.8c-2.4-5.3-3-10.9-2.1-16.2c-0.9,5.3-0.2,11,2.3,16.1c2.3,5.2,6.3,9.4,10.9,12.1
	C305.2,88.2,301.3,84,298.9,78.8z"/>
<path fill="#5A656B" d="M335.9,92.3c-13.8,6-29.9-0.1-36.3-13.9c-6.4-13.8-0.5-29.9,13-36.6c-0.2,0.1-0.4,0.2-0.6,0.2
	c-13.9,6.6-20,23.1-13.6,37c6.5,14,22.9,20.1,36.9,13.6L335.9,92.3z"/>
<g opacity="0.7">
	<path fill="#FFFFFF" d="M207.2,55.4c0,0,69.6-70.8,200-43.1c0,0-126-22.7-197.7,49.6C209.6,61.8,208,57.4,207.2,55.4z"/>
</g>
<path fill="#DBD1CF" d="M309.3,51.1c-6.5,6.4-8.6,16.3-4.6,25c4.4,9.5,14.6,14.4,24.5,12.4C304.7,84.4,311.1,49.3,309.3,51.1z"/>
<circle fill="#F37021" cx="347.3" cy="56.5" r="1.1"/>
<circle fill="#B3B3B3" cx="364.3" cy="63.7" r="0.7"/>
<circle fill="#B3B3B3" cx="361.3" cy="66" r="0.7"/>
<circle fill="#B3B3B3" cx="358.2" cy="68.2" r="0.7"/>
<circle fill="#B3B3B3" cx="354.5" cy="70.6" r="0.7"/>
<circle fill="#F37021" cx="302" cy="77.4" r="1.1"/>
<circle fill="#F37021" cx="335.1" cy="89.6" r="1.1"/>
<circle fill="#F37021" cx="314.2" cy="44.3" r="1.1"/>
<circle fill="#F37021" cx="348.1" cy="75.6" r="1.1"/>
<circle fill="#F37021" cx="301.3" cy="58.3" r="1.1"/>
<circle fill="#F37021" cx="316" cy="90.4" r="1.1"/>
<circle fill="#F37021" cx="333.3" cy="43.6" r="1.1"/>
<path fill="#B3B3B3" d="M169,90c13.8-18.5,33.5-35,33.5-35s7.9,21.8,9.4,25.2c0,0-1.6-1.8-6.3,1.1C200.9,84.3,151.4,125.5,169,90
	L169,90z"/>
<path fill="#4D4D4D" d="M291.4,109.1c-2.2-4.7-3.5-7.9-3.6-8.3l3.1-1.3c0.1,0.3,13.2,32.4,27,45.9l-2.3,2.4
	C305.6,138,296.3,119.7,291.4,109.1z"/>
<path fill="#B3B3B3" d="M302.6,89.6c-0.2-0.3,0-0.8,0.3-0.9c0.3-0.2,0.8-0.1,1,0.3c0.2,0.3,0.1,0.8-0.2,1h-0.1
	C303.2,90.1,302.8,90,302.6,89.6L302.6,89.6z M238,112.5C238,112.5,237.9,112.5,238,112.5c-0.1-0.5,0.1-0.9,0.5-1h0.1
	c0.4-0.1,0.8,0.1,0.9,0.5c0.1,0.4-0.1,0.8-0.5,0.9h-0.1C238.5,113,238.1,112.9,238,112.5z M242.4,111.3L242.4,111.3
	c-0.1-0.5,0.1-0.9,0.5-1c0.4-0.1,0.8,0.1,0.9,0.5c0.1,0.4-0.1,0.8-0.4,0.9h-0.1C242.9,111.8,242.5,111.6,242.4,111.3z M246.8,110
	C246.8,110,246.7,109.9,246.8,110c-0.1-0.5,0.1-0.9,0.5-1h0.1c0.4-0.1,0.8,0.1,0.9,0.5c0.1,0.4-0.1,0.8-0.5,0.9h-0.1
	C247.3,110.5,246.9,110.3,246.8,110z M251.2,108.8C251.2,108.8,251.1,108.7,251.2,108.8c-0.2-0.5,0.1-0.9,0.4-1h0.1
	c0.4-0.1,0.8,0.1,0.9,0.5c0.1,0.4-0.1,0.8-0.5,0.9H252C251.7,109.3,251.3,109.1,251.2,108.8L251.2,108.8z M255.5,107.4
	c-0.2-0.5,0.1-0.9,0.4-1h0.1c0.4-0.1,0.8,0.1,0.9,0.5c0.1,0.4-0.1,0.8-0.5,0.9h-0.1C256.1,107.9,255.7,107.8,255.5,107.4
	L255.5,107.4z M259.9,106.1L259.9,106.1c-0.1-0.5,0.1-0.9,0.5-1c0.4-0.1,0.8,0.1,0.9,0.5c0.1,0.4,0,0.8-0.4,0.9h-0.1
	C260.4,106.5,260.1,106.4,259.9,106.1L259.9,106.1z M264.3,104.7C264.3,104.7,264.2,104.7,264.3,104.7c-0.2-0.5,0.1-0.9,0.4-1
	c0.4-0.1,0.9,0.1,1,0.4c0.1,0.4,0,0.8-0.4,0.9h-0.1C264.8,105.2,264.4,105.1,264.3,104.7z M268.7,103.3
	C268.7,103.2,268.7,103.2,268.7,103.3c-0.2-0.4,0-0.8,0.4-1h0.1c0.4-0.1,0.8,0.1,0.9,0.5s-0.1,0.8-0.5,0.9h-0.1
	C269.1,103.8,268.8,103.6,268.7,103.3z M273,101.7c-0.2-0.5,0.1-0.9,0.4-1c0.4-0.1,0.8,0,1,0.4c0.1,0.4,0,0.8-0.4,0.9h-0.1
	C273.5,102.2,273.2,102.1,273,101.7z M277.3,100.3C277.3,100.3,277.3,100.2,277.3,100.3c-0.2-0.4,0-0.8,0.4-1h0.1
	c0.4-0.1,0.8,0.1,0.9,0.4c0.1,0.4-0.1,0.8-0.4,0.9h-0.1C277.8,100.8,277.5,100.6,277.3,100.3z M281.6,98.7
	C281.6,98.6,281.6,98.6,281.6,98.7c-0.2-0.4,0-0.8,0.4-1c0.4-0.1,0.8,0,1,0.4c0.1,0.4,0,0.8-0.4,0.9h-0.1
	C282.2,99.2,281.8,99,281.6,98.7z M285.9,97C285.9,97,285.9,96.9,285.9,97c-0.2-0.4,0-0.8,0.4-1c0.4-0.1,0.9,0,1,0.4s0,0.8-0.4,0.9
	h-0.1C286.4,97.5,286,97.3,285.9,97z M290.1,95.3c-0.2-0.4,0-0.8,0.4-1c0.4-0.1,0.8,0,1,0.4c0.1,0.4,0,0.8-0.3,0.9
	c0,0-0.1,0-0.1,0.1C290.7,95.8,290.3,95.7,290.1,95.3z M294.3,93.5c-0.2-0.4,0-0.8,0.4-1l0.1-0.1c0.4-0.2,0.8,0,0.9,0.4
	c0.2,0.4,0,0.8-0.4,0.9h-0.1C294.9,94,294.5,93.9,294.3,93.5z M298.5,91.7c-0.2-0.4,0-0.8,0.3-0.9l0.1-0.1c0.4-0.2,0.8,0,1,0.4
	c0.2,0.4,0,0.8-0.4,1h-0.1C299.1,92.1,298.7,91.9,298.5,91.7z M294.5,113c-0.2-0.4,0-0.8,0.3-1c0.4-0.2,0.8-0.1,0.9,0.3v0.1
	c0.2,0.4,0,0.8-0.4,1C295.1,113.6,294.6,113.4,294.5,113L294.5,113z M292.5,108.8L292.5,108.8c-0.3-0.5-0.1-0.9,0.3-1
	c0.4-0.1,0.8,0,0.9,0.4v0.1c0.2,0.4,0,0.8-0.4,1C293.1,109.4,292.7,109.2,292.5,108.8z M296.4,117.2c-0.2-0.4,0-0.8,0.3-1
	c0.4-0.2,0.8-0.1,0.9,0.3l0.1,0.1c0.2,0.4,0,0.8-0.3,0.9C297,117.7,296.6,117.6,296.4,117.2z M290.8,104.6
	C290.8,104.6,290.8,104.5,290.8,104.6c-0.2-0.4,0-0.9,0.4-1c0.4-0.1,0.8-0.1,0.9,0.4v0.1c0.1,0.4,0,0.8-0.4,0.9
	C291.3,105.1,291,104.9,290.8,104.6z M298.6,121.3c-0.2-0.3,0-0.8,0.3-1c0.4-0.2,0.8-0.1,0.9,0.2l0.1,0.1c0.2,0.4,0,0.8-0.3,1
	C299.2,121.8,298.7,121.7,298.6,121.3z M300.7,125.4c-0.2-0.3-0.1-0.8,0.3-1c0.3-0.2,0.8-0.1,0.9,0.2l0.1,0.1c0.2,0.4,0.1,0.8-0.3,1
	C301.4,125.9,300.9,125.8,300.7,125.4z M303.1,129.4c-0.2-0.3-0.1-0.8,0.3-1c0.3-0.2,0.8-0.1,1,0.2l0.1,0.1c0.2,0.3,0.1,0.8-0.3,1
	C303.7,129.9,303.3,129.8,303.1,129.4z M305.5,133.3c-0.2-0.3-0.1-0.8,0.2-1c0.3-0.2,0.7-0.2,1,0.2l0.1,0.1c0.2,0.3,0.1,0.8-0.2,1
	C306.2,133.8,305.7,133.7,305.5,133.3z M308,137c-0.1-0.3,0-0.7,0.2-0.9c0.3-0.2,0.8-0.1,1,0.2l0.1,0.1c0.2,0.3,0.1,0.8-0.2,1
	c-0.3,0.2-0.8,0.1-1-0.2L308,137C308.1,137.1,308,137.1,308,137z M310.8,140.9c-0.1-0.3-0.1-0.7,0.2-0.9c0.3-0.2,0.7-0.2,1,0.1
	l0.1,0.1c0.2,0.3,0.2,0.8-0.2,1C311.6,141.4,311.1,141.4,310.8,140.9C310.8,141,310.8,141,310.8,140.9L310.8,140.9z M313.8,144.5
	c-0.1-0.3-0.1-0.7,0.2-0.9c0.3-0.3,0.7-0.3,1,0l0.1,0.1c0.3,0.3,0.2,0.8-0.1,1c-0.3,0.3-0.8,0.2-1-0.1
	C313.8,144.6,313.8,144.5,313.8,144.5z"/>
<path fill="#4D4D4D" d="M173.8,168.2c46.4,6.2,80.7-0.1,80.7-0.1l-6.5-11.3C247.9,156.8,208.4,172.5,173.8,168.2L173.8,168.2z"/>
<path fill="#E6E6E6" d="M361.9,51.3c-0.2-0.4,0-0.8,0.4-1c0.4-0.2,0.8,0,1,0.4v0.1c0.2,0.4,0,0.8-0.3,1c-0.4,0.2-0.8,0-1-0.3
	C362,51.3,361.9,51.3,361.9,51.3z M360,47.1c-0.2-0.4,0-0.9,0.3-1c0.4-0.2,0.8-0.1,0.9,0.3l0.1,0.1c0.2,0.4,0,0.8-0.4,0.9
	C360.6,47.6,360.2,47.5,360,47.1z M363.9,55.6c-0.2-0.4,0-0.8,0.3-1c0.4-0.2,0.8-0.1,0.9,0.3l0.1,0.1c0.2,0.4,0,0.8-0.3,1
	C364.5,56,364.1,55.8,363.9,55.6z M358.2,42.9c-0.2-0.4,0-0.9,0.3-1c0.4-0.2,0.7-0.1,0.9,0.3v0.1c0.2,0.4,0,0.8-0.4,0.9
	C358.8,43.4,358.4,43.2,358.2,42.9z M366,59.7c-0.2-0.3,0-0.8,0.3-1c0.4-0.2,0.8-0.1,0.9,0.2l0.1,0.1c0.2,0.4,0,0.8-0.3,0.9
	C366.7,60.2,366.2,60.1,366,59.7C366.1,59.7,366.1,59.7,366,59.7z M356.4,38.6L356.4,38.6c-0.2-0.5-0.1-0.9,0.3-1
	c0.4-0.1,0.8,0,0.9,0.4v0.1c0.2,0.4,0,0.8-0.4,0.9C357,39.1,356.6,38.9,356.4,38.6z M368.1,63.7c-0.2-0.3,0-0.8,0.3-0.9
	c0.4-0.2,0.8-0.1,1,0.3v0.1c0.2,0.3,0.1,0.8-0.3,1c-0.3,0.2-0.8,0.1-1-0.3C368.2,63.8,368.1,63.7,368.1,63.7z M354.7,34.3
	C354.7,34.3,354.7,34.2,354.7,34.3c-0.2-0.4,0-0.9,0.4-1c0.4-0.1,0.8,0,0.9,0.4v0.1c0.1,0.4-0.1,0.8-0.4,0.9
	C355.3,34.8,354.9,34.6,354.7,34.3z M370.5,67.8c-0.2-0.3-0.1-0.8,0.3-1c0.3-0.2,0.8-0.1,1,0.2l0.1,0.1c0.2,0.3,0.1,0.8-0.3,1
	C371.1,68.3,370.7,68.2,370.5,67.8z M353.2,29.9c-0.2-0.4,0-0.9,0.4-1c0.4-0.1,0.8,0,0.9,0.4v0.1c0.1,0.4-0.1,0.8-0.4,0.9
	C353.7,30.4,353.4,30.3,353.2,29.9z M372.7,71.7c-0.2-0.3-0.1-0.8,0.3-1c0.3-0.2,0.8-0.1,1,0.2l0.1,0.1c0.2,0.3,0.1,0.8-0.3,1
	C373.4,72.3,373,72.2,372.7,71.7C372.8,71.8,372.7,71.8,372.7,71.7z M351.7,25.6C351.7,25.5,351.6,25.5,351.7,25.6l-0.1-0.2
	c-0.1-0.4,0.1-0.8,0.5-0.9c0.4-0.1,0.8,0.1,0.9,0.5v0.1c0.1,0.4-0.1,0.8-0.5,0.9C352.2,26.1,351.8,25.9,351.7,25.6z M375.1,75.6
	c-0.2-0.3,0-0.7,0.3-0.9c0.3-0.2,0.8-0.1,1,0.2V75c0.2,0.3,0.1,0.8-0.2,1s-0.8,0.1-1-0.2L375.1,75.6
	C375.2,75.7,375.2,75.6,375.1,75.6L375.1,75.6z M350.2,21.2C350.2,21.1,350.2,21.1,350.2,21.2c0-0.1-0.1-0.2-0.1-0.2
	c-0.1-0.4,0.1-0.8,0.5-0.9c0.4-0.1,0.8,0.1,0.9,0.5v0.1c0.1,0.4-0.1,0.8-0.5,0.9C350.8,21.7,350.4,21.5,350.2,21.2z M377.6,79.5
	c-0.1-0.3,0-0.7,0.3-0.9c0.3-0.2,0.8-0.1,1,0.2l0.1,0.1c0.2,0.3,0.1,0.8-0.2,1c-0.3,0.2-0.8,0.1-1-0.2
	C377.7,79.7,377.6,79.6,377.6,79.5L377.6,79.5z M349,16.7L349,16.7c-0.1-0.5,0.1-0.9,0.5-1c0.4-0.1,0.8,0,0.9,0.4v0.1
	c0.1,0.4-0.1,0.8-0.5,0.9C349.5,17.2,349.1,17,349,16.7z M380.3,83.4c-0.1-0.3-0.1-0.7,0.2-0.9s0.7-0.2,1,0.1l0.1,0.1
	c0.2,0.3,0.1,0.8-0.2,1C381.1,83.9,380.6,83.8,380.3,83.4C380.3,83.5,380.3,83.4,380.3,83.4z M347.8,12.3L347.8,12.3
	c-0.1-0.5,0.1-0.9,0.5-1c0.4-0.1,0.7,0.1,0.9,0.5v0.1c0.1,0.4-0.2,0.8-0.5,0.9C348.3,12.7,347.9,12.6,347.8,12.3z M382.8,87.2
	c-0.1-0.3,0-0.7,0.2-0.9c0.3-0.2,0.8-0.1,1,0.2l0.1,0.1c0.2,0.3,0.2,0.8-0.1,1c-0.3,0.2-0.8,0.2-1-0.1l-0.1-0.1
	C382.9,87.3,382.8,87.2,382.8,87.2z M346.7,7.8V7.6c-0.1-0.4,0.2-0.8,0.5-0.9c0.4-0.1,0.8,0.2,0.9,0.5v0.1c0.1,0.4-0.1,0.8-0.5,0.9
	C347.2,8.2,346.8,8.1,346.7,7.8z M385.7,91c-0.1-0.3-0.1-0.7,0.2-0.9c0.3-0.2,0.7-0.2,1,0.1l0.1,0.1c0.2,0.3,0.2,0.8-0.2,1
	C386.4,91.5,385.9,91.5,385.7,91C385.7,91.1,385.7,91,385.7,91z M345.7,3.2c0-0.1,0-0.1-0.1-0.2c-0.1-0.4,0.2-0.8,0.6-0.9
	c0.4-0.1,0.8,0.1,0.8,0.5v0.1c0.1,0.4-0.2,0.8-0.6,0.8C346.2,3.7,345.9,3.5,345.7,3.2L345.7,3.2z"/>
<g opacity="0.7">
	<path fill="#FFFFFF" d="M203.7,58.6c0,0-13.4,11-23.8,27.1c0,0,10.8-16,25.7-21.9C205.6,63.8,203.7,58.6,203.7,58.6z"/>
</g>
<path fill="#B3B3B3" d="M228.1,115c-0.2-0.4,0-0.8,0.3-1c0.4-0.2,0.8-0.1,0.9,0.3v0.1c0.2,0.4,0,0.8-0.4,1
	C228.7,115.5,228.3,115.4,228.1,115L228.1,115z M226.3,110.8c-0.2-0.4,0-0.8,0.3-1c0.4-0.2,0.8-0.1,0.9,0.3v0.1c0.2,0.4,0,0.8-0.4,1
	C226.9,111.3,226.4,111.2,226.3,110.8L226.3,110.8z M230.1,119.1c-0.2-0.4,0-0.8,0.4-1c0.4-0.2,0.8,0,1,0.4v0.1
	c0.2,0.4,0,0.8-0.3,0.9C230.8,119.7,230.4,119.5,230.1,119.1L230.1,119.1L230.1,119.1z M224.3,106.6c-0.2-0.4,0-0.9,0.3-1
	c0.4-0.2,0.8-0.1,0.9,0.3l0.1,0.1c0.2,0.4,0,0.8-0.4,0.9C224.9,107.1,224.5,107,224.3,106.6L224.3,106.6z M232.2,123.4
	c-0.2-0.4,0-0.8,0.3-1c0.4-0.2,0.8-0.1,0.9,0.3l0.1,0.1c0.2,0.4,0,0.8-0.4,1C232.7,123.9,232.4,123.7,232.2,123.4L232.2,123.4z
	 M222.5,102.4L222.5,102.4c-0.3-0.5-0.1-0.9,0.3-1c0.4-0.2,0.7,0,0.9,0.4v0.1c0.2,0.4,0,0.8-0.4,1
	C223.1,102.9,222.7,102.7,222.5,102.4L222.5,102.4z M220.6,98.1c-0.2-0.4,0-0.9,0.3-1c0.4-0.2,0.8,0,0.9,0.3v0.1
	c0.2,0.4,0,0.8-0.4,0.9C221.2,98.7,220.8,98.5,220.6,98.1z M234.2,127.6c-0.2-0.4,0-0.8,0.3-1c0.4-0.2,0.8-0.1,0.9,0.3l0.1,0.1
	c0.2,0.4,0,0.8-0.3,1C234.8,128,234.4,127.9,234.2,127.6L234.2,127.6z M218.9,93.9c-0.2-0.4,0-0.9,0.3-1c0.4-0.2,0.8,0,0.9,0.3v0.1
	c0.2,0.4,0,0.8-0.4,0.9C219.4,94.4,219.1,94.2,218.9,93.9z M236.2,131.6c-0.2-0.4,0-0.8,0.3-0.9c0.4-0.2,0.8,0,1,0.3v0.1
	c0.2,0.3,0.1,0.8-0.3,1c-0.4,0.2-0.8,0.1-1-0.3C236.3,131.7,236.3,131.6,236.2,131.6L236.2,131.6z M217.1,89.6c-0.2-0.4,0-0.9,0.4-1
	c0.4-0.1,0.7-0.1,0.9,0.3c0,0,0,0.1,0.1,0.1c0.1,0.4,0,0.8-0.4,0.9C217.6,90.1,217.2,90,217.1,89.6z M238.3,135.8
	c-0.2-0.3,0-0.8,0.3-1c0.4-0.2,0.8-0.1,0.9,0.2l0.1,0.1c0.2,0.4,0,0.8-0.3,0.9C239,136.3,238.5,136.2,238.3,135.8
	C238.4,135.8,238.3,135.8,238.3,135.8z M215.3,85.3L215.3,85.3c-0.2-0.5-0.1-0.9,0.3-1c0.4-0.1,0.8,0,0.9,0.4v0.1
	c0.2,0.4,0,0.8-0.4,0.9C215.9,85.9,215.5,85.7,215.3,85.3L215.3,85.3z M240.5,139.9c-0.2-0.3,0-0.8,0.3-1c0.4-0.2,0.8-0.1,0.9,0.2
	l0.1,0.1c0.2,0.4,0,0.8-0.3,1C241.1,140.4,240.7,140.3,240.5,139.9z M213.6,81c-0.2-0.4,0-0.9,0.4-1c0.4-0.1,0.8,0,0.9,0.4v0.1
	c0.1,0.4,0,0.8-0.4,0.9C214.2,81.6,213.8,81.4,213.6,81z M242.7,144c-0.2-0.3-0.1-0.8,0.3-1c0.4-0.2,0.8-0.1,0.9,0.2l0.1,0.1
	c0.2,0.3,0.1,0.8-0.3,1C243.3,144.5,242.9,144.4,242.7,144z M211.9,76.7c-0.2-0.4,0-0.9,0.4-1c0.4-0.1,0.8,0,0.9,0.4v0.1
	c0.1,0.4-0.1,0.8-0.4,0.9C212.5,77.2,212.1,77.1,211.9,76.7z M244.9,147.9c-0.2-0.3,0-0.8,0.3-0.9c0.4-0.2,0.8-0.1,1,0.3v0.1
	c0.2,0.3,0.1,0.8-0.3,1c-0.3,0.2-0.8,0.1-1-0.3V147.9C244.9,148,244.9,147.9,244.9,147.9L244.9,147.9z M210.2,72.4
	c-0.2-0.4,0-0.9,0.4-1c0.4-0.1,0.8,0,0.9,0.4v0.1c0.1,0.4-0.1,0.8-0.4,0.9C210.8,72.9,210.4,72.8,210.2,72.4z M247.1,152.1
	c-0.2-0.3-0.1-0.8,0.3-1c0.3-0.2,0.8-0.1,0.9,0.2l0.1,0.1c0.2,0.3,0.1,0.8-0.3,1C247.8,152.6,247.3,152.4,247.1,152.1z M208.7,68.1
	l-0.1-0.2c-0.1-0.4,0.1-0.8,0.4-0.9c0.4-0.1,0.8,0.1,0.9,0.4v0.1c0.1,0.4,0,0.8-0.4,0.9C209.3,68.6,208.9,68.4,208.7,68.1
	L208.7,68.1z M249.5,156.1c-0.2-0.3-0.1-0.8,0.3-1c0.3-0.2,0.8-0.1,1,0.2l0.1,0.1c0.2,0.3,0.1,0.8-0.3,1
	C250.1,156.6,249.7,156.5,249.5,156.1z M251.7,160c-0.2-0.3-0.1-0.8,0.3-1c0.3-0.2,0.8-0.1,1,0.2l0.1,0.1c0.2,0.3,0.1,0.8-0.3,1
	C252.3,160.6,251.9,160.4,251.7,160C251.7,160.1,251.7,160.1,251.7,160z M251.7,160c-0.2-0.3-0.1-0.8,0.3-1c0.3-0.2,0.8-0.1,1,0.2
	l0.1,0.1c0.2,0.3,0.1,0.8-0.3,1C252.3,160.6,251.9,160.4,251.7,160C251.7,160.1,251.7,160.1,251.7,160z M207.1,63.7
	c-0.2-0.4,0-0.9,0.4-1s0.7,0,0.9,0.4v0.1c0.1,0.4-0.1,0.8-0.4,0.9C207.6,64.2,207.2,64.1,207.1,63.7z M205.6,59.4
	C205.6,59.4,205.6,59.3,205.6,59.4c-0.2-0.5,0-0.9,0.4-1c0.4-0.1,0.8,0,0.9,0.4v0.1c0.1,0.4-0.1,0.8-0.5,0.9
	C206.1,59.9,205.7,59.7,205.6,59.4L205.6,59.4z M254.1,164c-0.2-0.3,0-0.7,0.3-0.9c0.3-0.2,0.8-0.1,1,0.2l0.1,0.1
	c0.2,0.3,0.1,0.8-0.2,1c-0.3,0.2-0.8,0.1-1-0.2L254.1,164L254.1,164z M204.1,55C204.1,55,204.1,54.9,204.1,55c-0.2-0.5,0-0.9,0.4-1
	c0.4-0.1,0.8,0,0.9,0.4v0.1c0.1,0.4-0.1,0.8-0.5,0.9C204.6,55.5,204.3,55.3,204.1,55L204.1,55z"/>
<path fill="#515254" d="M216.6,122.7c-28,25.2-24.6,47.5-24.6,47.5s-11.1-0.7-27.1-2.8c-2.2-5.6-1.3-4.1-7.5-19.1
	C157.4,148.3,193.8,132.9,216.6,122.7z"/>
<path fill="#424242" d="M173.8,168.2l-8.8-1.3c-8.4-24.5-19.9-43.1-19.9-43.1l4.8-7.5C149.9,116.3,166.5,143,173.8,168.2
	L173.8,168.2z"/>
<path fill="#4D4D4D" d="M119.5,162.9c-0.4-0.8,0-1.9,0.9-2.3l92.8-45.2c2.1-1,4.5-0.2,5.4,1.8c0.9,2-0.1,4.3-2.2,5.3l-94.7,41.2
	C120.8,164,119.9,163.8,119.5,162.9z"/>
<path fill="#2B2B2B" d="M240.6,169.7c0,0-14.6,7.1-31.1,6.5c0,0,0-2.5-1.2-5.4C208.3,170.8,227.4,171,240.6,169.7z"/>
<g opacity="0.7">
	<path fill="#FFFFFF" d="M207.2,55.4l-3.5,3.2l1.9,5.2l4-2L207.2,55.4z"/>
</g>
<path fill="#B3B3B3" d="M233.6,113.7L233.6,113.7c-0.1-0.5,0.1-0.9,0.5-1c0.4-0.1,0.8,0.1,0.9,0.5c0.1,0.4-0.1,0.8-0.4,0.9h-0.1
	C234.1,114.2,233.7,114.1,233.6,113.7z"/>
<path fill="#B3B3B3" d="M233.6,113.7L233.6,113.7c-0.1-0.5,0.1-0.9,0.5-1c0.4-0.1,0.8,0.1,0.9,0.5c0.1,0.4-0.1,0.8-0.4,0.9h-0.1
	C234.1,114.2,233.7,114.1,233.6,113.7z"/>
<path fill="#808285" d="M384,176.6c1.3-0.3,1.7,0.5,2.1,1.9c0.3,1.3-0.1,1.8-1.5,1.8c-1.8,0.1-1.7,0.2-1.9-0.8
	C382.3,178,382.7,176.9,384,176.6z M399.1,145.3c1.3-0.3,1.7,0.5,2.1,1.9c0.4,1.4-0.1,1.8-1.5,1.8c-1.8,0.1-1.7,0.2-1.9-0.8
	C397.4,146.7,397.8,145.6,399.1,145.3z M423.4,199.2c-2.3,0-2.5-1.5-2.5-3.7s0.9-2.7,3.1-2.3c2.9,0.5,2.6,0.2,2.7,2.1
	C426.7,197.4,425.7,199.2,423.4,199.2L423.4,199.2z M373.4,203.7c-3.5,1.8-5.1-0.3-6.8-3.8c-1.8-3.5-0.7-4.9,3-6.1
	c5-1.5,4.4-1.8,5.9,1.1C377.2,198.4,376.8,202,373.4,203.7L373.4,203.7z M303.3,179.5c-2.3,0-2.5-1.5-2.5-3.7s0.9-2.7,3.1-2.3
	c2.9,0.5,2.6,0.2,2.7,2.1C306.6,177.7,305.5,179.5,303.3,179.5L303.3,179.5z M536.2,94.6c-2.3,0-2.5-1.5-2.5-3.7
	c0-2.3,0.9-2.7,3.1-2.3c2.9,0.5,2.6,0.2,2.7,2.1C539.5,92.8,538.5,94.6,536.2,94.6L536.2,94.6z M430.5,160.9
	c1.3-0.3,1.7,0.5,2.1,1.9c0.3,1.3-0.1,1.8-1.5,1.8c-1.8,0.1-1.7,0.2-1.9-0.8C428.7,162.4,429.1,161.2,430.5,160.9z M235,190.2
	c-0.8-1.8,0.3-2.5,2.1-3.3c1.8-0.8,2.4-0.2,2.9,1.7c0.7,2.5,0.8,2.3-0.7,2.9C237.6,192.2,235.9,191.9,235,190.2L235,190.2z
	 M128,109.5c2,2.8,0.4,4.5-2.4,6.5s-4.2,1.2-5.7-1.9c-2-4.1-2.1-3.6,0.2-5.2C122.9,106.7,126,106.6,128,109.5L128,109.5z M137.9,44
	c0.3,2-1,2.3-2.9,2.6s-2.4-0.5-2.4-2.4c0.1-2.5-0.1-2.3,1.5-2.6C135.9,41.4,137.6,42.1,137.9,44z M92.5,161.9
	c-1.9,0.7-2.5-0.4-3.2-2.2c-0.7-1.9-0.1-2.4,1.8-2.9c2.5-0.6,2.3-0.7,2.8,0.8C94.6,159.4,94.3,161.1,92.5,161.9z M53.3,91.4
	c3.2-0.5,3.9,1.6,4.4,4.8c0.5,3.2-0.7,4-4,4c-4.3-0.1-3.9,0.2-4.3-2.3C48.8,94.6,50.1,91.9,53.3,91.4z M102.1,120.7
	c4.7-3.2,7.3-0.6,10.6,4.1c3.2,4.7,2.1,6.9-3.1,9.4c-6.8,3.2-6,3.4-8.6-0.4C97.7,129.1,97.5,123.9,102.1,120.7L102.1,120.7z
	 M253.3,179.7c3.2-0.5,3.9,1.6,4.4,4.8c0.5,3.2-0.7,4-4,4c-4.3-0.1-3.9,0.2-4.3-2.3C248.9,182.9,250.1,180.2,253.3,179.7z
	 M38.3,18.2c-0.2-1.4,0.7-1.7,2-1.9c1.4-0.2,1.7,0.3,1.7,1.7c0,1.8,0.1,1.7-1,1.8C39.5,20,38.5,19.6,38.3,18.2z M97.5,53.5
	c-2-0.4-2-1.7-1.6-3.6c0.4-2,1.3-2.2,3-1.5c2.4,0.9,2.3,0.7,2,2.3C100.7,52.6,99.4,53.9,97.5,53.5z M91.2,28.2c-1.6,0-1.8-1-1.8-2.5
	c0-1.6,0.6-1.9,2.2-1.6c2,0.3,1.9,0.2,1.9,1.4C93.4,27,92.8,28.2,91.2,28.2z M490.6,96c-0.6-1.2,0.2-1.8,1.4-2.4
	c1.2-0.6,1.8-0.1,2,1.1c0.5,1.7,0.6,1.6-0.5,2C492.5,97.4,491.2,97.3,490.6,96z M469.1,87.7c-0.6-1.4,0.2-2,1.6-2.7
	c1.4-0.6,1.9-0.2,2.3,1.3c0.5,1.9,0.6,1.8-0.5,2.3C471.1,89.3,469.7,89.1,469.1,87.7z"/>
<g>
	<path fill="none" d="M259.1,130.9c0.3-0.4,0.8-0.9,1.7-1.2l0.5-0.2l0.4,0.3c0.1,0.1,0.6,0.5,1,1.2c0.1,0.2,0.2,0.4,0.2,0.7
		c0.1,0.1,0.2,0.2,0.3,0.2c0,0,0,0,0.1,0.1c0.4,0,0.9,0.1,1.5,0.5l0.5,0.3v0.5c0,0.1,0,0.8-0.4,1.5c0,0.1,0,0.1,0,0.2
		c0.2,0.2,0.4,0.4,0.5,0.7c0,0.1,0,0.1,0.1,0.2l0.2,0.5l-0.3,0.4c-0.1,0.1-0.4,0.5-0.9,0.8c-0.1,0.3-0.3,0.6-0.5,0.9
		c-0.2,0.2-0.4,0.5-0.6,0.6c-0.2,0.2-0.4,0.3-0.6,0.4c-0.1,0.1-0.3,0.2-0.4,0.2l-0.2,0.1l0,0l0.5,0.9c0.6,1.2,1.9,2.1,3.2,2.1
		c0.5,0,1.1-0.1,1.6-0.4c0.9-0.4,1.5-1.2,1.8-2.1c0.3-0.9,0.3-1.9-0.2-2.7c-0.1-0.1-0.1-0.3-0.2-0.4l-0.2-0.4l-0.2-0.3l0.2-0.3
		l0.3-0.3c0.7-0.8,1.1-1.8,1.2-2.7c0.1-1.1,0-2.2-0.5-3c-0.9-1.9-2.8-3-4.9-3c-0.8,0-1.6,0.2-2.3,0.5c-0.1,0-0.2,0.1-0.3,0.1
		l-0.6,0.3l-0.5,0.3l-0.2-0.5l-0.3-0.6l0.2-0.1l0,0l-0.2,0.1c-0.3-0.7-1.1-1.2-1.8-1.2c-0.3,0-0.6,0.1-0.9,0.2c-1,0.5-1.4,1.7-1,2.6
		l0.3,0.6l0.7,1.4c0.3,0,0.7,0.1,1.1,0.4C258.9,131,259,131,259.1,130.9z"/>
	<path fill="none" d="M260,137.7L260,137.7L260,137.7z"/>
	<path fill="#4D4D4D" d="M270.1,136.6c1.6-2.1,1.9-4.9,0.7-7.2c-1.2-2.4-3.6-4-6.4-4c-1,0-2,0.2-2.9,0.7c-0.7-1-1.8-1.7-3-1.7
		c-0.6,0-1.1,0.1-1.6,0.4c-1.8,0.9-2.5,3-1.7,4.8l0.8,1.6l0.1-0.3l0.5-0.1c0,0,0.2,0,0.4,0c0.1,0,0.3,0,0.5,0l-0.7-1.4l-0.3-0.6
		c-0.5-1-0.1-2.2,1-2.6c0.3-0.1,0.6-0.2,0.9-0.2c0.8,0,1.5,0.5,1.8,1.2l0.2-0.1l0,0l-0.2,0.1l0.3,0.6l0.2,0.5l0.5-0.3l0.6-0.3
		c0.1,0,0.2-0.1,0.3-0.1c0.8-0.4,1.6-0.5,2.3-0.5c2.1,0,4,1.2,4.9,3c0.5,1,0.6,2.1,0.5,3c-0.1,1-0.6,2-1.2,2.7l-0.3,0.3l-0.2,0.3
		l0.2,0.3l0.2,0.4c0.1,0.1,0.2,0.3,0.2,0.4c0.4,0.9,0.5,1.9,0.2,2.7c-0.3,0.9-1,1.7-1.8,2.1c-0.5,0.2-1,0.4-1.6,0.4
		c-1.4,0-2.6-0.8-3.2-2.1l-0.5-0.9h-0.2c-0.2,0-0.5-0.1-0.7-0.2l0,0l0,0h-0.1h-0.1c-0.1,0.2-0.3,0.4-0.5,0.7l0.5,1.1
		c0.9,1.8,2.6,2.9,4.6,2.9c0.8,0,1.6-0.2,2.3-0.5c1.3-0.6,2.2-1.7,2.6-2.9c0.5-1.3,0.4-2.6-0.2-3.9
		C270.2,136.8,270.2,136.7,270.1,136.6z"/>
	<path fill="#4D4D4D" d="M260.2,138.8L260.2,138.8C260.2,138.8,260.3,138.8,260.2,138.8c0.2-0.1,0.2-0.1,0.3-0.2l0,0l0,0l0,0l0,0
		l0,0l0,0l0,0l0,0l0,0l0,0c0.1,0,0.1-0.1,0.2-0.1c0.2-0.2,0.4-0.4,0.5-0.6c0.1-0.2,0.2-0.4,0.3-0.7c0.1-0.2,0.1-0.5,0.1-0.7
		c0-0.2,0-0.5-0.1-0.7c0-0.1-0.1-0.2-0.1-0.3l0,0l0,0l0,0l0,0l0,0l0,0l0,0l0,0l-0.1-0.1c-0.1-0.2-0.3-0.3-0.5-0.5
		c-0.2-0.1-0.4-0.2-0.6-0.3c-0.2,0-0.3-0.1-0.5-0.1h-0.1c-0.2,0-0.4,0.1-0.5,0.1c0,0-0.1,0-0.1,0.1l0,0l0,0c0,0,0,0-0.1,0
		c-0.1,0-0.2,0.1-0.2,0.2c-0.1,0.1-0.2,0.3-0.3,0.4c-0.1,0.1-0.1,0.3-0.1,0.4c0,0.1,0,0.3,0,0.4c0,0.1,0.1,0.3,0.1,0.4l0,0l0,0l0,0
		l0,0l0,0l0,0l0,0l0,0l0,0l0,0l0,0c0,0,0,0,0.1,0.1l0.1,0.1l0.1,0.1l0,0l0,0c0,0,0.1,0,0.1-0.1v-0.1l0,0l0,0l-0.1-0.1l-0.1-0.1
		c0,0,0,0,0-0.1l0,0l0,0l0,0l0,0l0,0l0,0l0,0l0,0l0,0l0,0l0,0c0-0.1,0-0.2,0-0.3c0-0.1,0-0.2,0-0.3c0-0.1,0.1-0.2,0.1-0.3
		c0.1-0.1,0.1-0.2,0.2-0.2c0,0,0.1-0.1,0.2-0.1l0,0l0,0l0,0l0,0l0,0l0,0h0.1c0.1,0,0.2,0,0.3,0s0.3,0,0.4,0.1c0.1,0,0.1,0.1,0.2,0.1
		c0.1,0,0.1,0.1,0.2,0.1c0.1,0,0.1,0.1,0.1,0.1c0,0.1,0.1,0.1,0.1,0.2v0.1l0,0l0,0l0,0l0,0l0,0l0,0l0,0l0,0l0,0l0,0
		c0,0.1,0,0.1,0.1,0.2c0,0.1,0,0.3,0,0.4c0,0.3-0.1,0.6-0.3,0.9c-0.1,0.1-0.2,0.2-0.3,0.3c0,0-0.1,0-0.1,0.1l0,0l0,0l0,0l0,0l0,0
		l0,0c0,0,0,0-0.1,0l0,0l0,0l0,0h-0.1h-0.1h-0.1c-0.1,0-0.2,0-0.3,0h-0.1c-0.1,0-0.2,0-0.4,0c-0.3-0.1-0.7-0.2-0.9-0.4
		c-0.1-0.1-0.2-0.2-0.3-0.4c0-0.1-0.1-0.1-0.1-0.2l0,0l0,0l0,0l0,0l0,0l0,0l0,0l0,0c0,0,0-0.1-0.1-0.1c-0.1-0.2-0.1-0.3-0.1-0.5
		c0-0.2,0-0.4,0-0.5c0-0.4,0.1-0.7,0.3-1c0.1-0.2,0.2-0.3,0.3-0.5c0.1-0.1,0.2-0.3,0.4-0.4c0.1-0.1,0.3-0.2,0.4-0.3l0,0l0,0l0,0l0,0
		l0,0l0,0l0,0l0,0l0,0l0,0l0,0l0,0l0,0c0,0,0,0,0.1,0c0.1,0,0.2-0.1,0.2-0.1c0.1,0,0.2-0.1,0.3-0.1s0.2,0,0.3-0.1
		c0.2,0,0.4,0,0.5-0.1l0,0c0.3,0,0.7,0.1,0.9,0.2c0.1,0,0.2,0.1,0.2,0.1c0.1,0,0.1,0.1,0.2,0.1s0.1,0.1,0.2,0.1c0,0,0.1,0,0.1,0.1
		l0,0l0,0c0.1,0.1,0.1,0.1,0.2,0.2l0,0l0,0l0.1,0.1l0,0l0,0l0,0l0,0l0,0l0,0c0,0,0,0,0,0.1c0,0,0,0,0,0.1l0,0l0,0l0,0l0,0
		c0,0,0,0,0,0.1l0,0l0,0l0,0l0,0l0,0c0,0,0,0,0,0.1c0,0,0,0.1,0.1,0.1v0.1c0.1,0.1,0.1,0.3,0.1,0.4c0.1,0.3,0.1,0.6,0.1,0.8
		c0,0.3,0,0.5-0.1,0.8l0,0l0,0v0.1v0.1v0.1c0,0.1-0.1,0.2-0.1,0.3c-0.1,0.2-0.2,0.4-0.3,0.5l0,0l0,0c0,0,0,0,0,0.1c0,0,0,0,0,0.1
		l0,0c-0.1,0.1-0.1,0.1-0.2,0.2s-0.2,0.2-0.2,0.2v0.1l0,0c0,0,0,0,0.1,0l0,0c0.1,0,0.2-0.1,0.3-0.2s0.3-0.2,0.4-0.3
		c0.2-0.1,0.3-0.3,0.5-0.5c0.2-0.2,0.3-0.4,0.4-0.7c0-0.1,0.1-0.2,0.1-0.3c0.5-0.1,0.8-0.6,0.8-0.6v-0.1c-0.2-0.4-0.5-0.6-0.6-0.6
		c0,0,0,0,0-0.1c0-0.1,0-0.2,0-0.3c0-0.1,0-0.2-0.1-0.3c0-0.1,0-0.2-0.1-0.3c0,0,0,0,0-0.1c0.5-0.5,0.5-1.2,0.5-1.2
		c-0.4-0.3-0.8-0.3-1.1-0.3c-0.2,0-0.3,0-0.3,0l0,0l-0.1-0.1l-0.1-0.1l-0.1-0.1c-0.1-0.1-0.2-0.1-0.3-0.2c-0.1-0.1-0.2-0.1-0.3-0.2
		l0,0l0,0c0-0.3-0.1-0.6-0.2-0.8c-0.3-0.5-0.7-0.8-0.7-0.8c-1,0.4-1.4,1.1-1.4,1.2c-0.1,0-0.1,0-0.2,0c-0.2,0-0.5,0.1-0.7,0.2h-0.1
		c-0.5-0.4-1.1-0.5-1.5-0.5c-0.2,0-0.3,0-0.3,0c-0.5,1.1-0.1,1.9-0.1,1.9l0,0c-0.1,0.2-0.2,0.4-0.3,0.6c0,0.1-0.1,0.2-0.1,0.3
		c-0.8,0.1-1.3,0.7-1.3,0.7v0.1c0.3,0.7,0.9,1,1,1.1c0,0.1,0,0.2,0,0.3c0.1,0.3,0.1,0.5,0.2,0.8c0,0.1,0,0.1,0.1,0.2l0,0l0,0l0,0
		l0,0l0,0l0,0c-0.3,0.6-0.1,1.3-0.1,1.3c0.2,0.1,0.4,0.1,0.6,0.1c0.4,0,0.7-0.1,0.7-0.1l0,0c0.1,0.1,0.2,0.1,0.4,0.2
		c0.2,0.1,0.5,0.2,0.8,0.2c0,0,0,0,0.1,0c0,0,0,0,0,0.1c0.2,0.5,0.7,0.7,0.7,0.7C260.1,139.3,260.2,138.8,260.2,138.8z"/>
</g>
</svg>
