<?xml version="1.0" encoding="utf-8"?>
<!-- Generator: Adobe Illustrator 20.1.0, SVG Export Plug-In . SVG Version: 6.00 Build 0)  -->
<svg version="1.1" id="Layer_1" xmlns="http://www.w3.org/2000/svg" xmlns:xlink="http://www.w3.org/1999/xlink" x="0px" y="0px"
	 width="540px" height="287.7px" viewBox="0 0 540 287.7" enable-background="new 0 0 540 287.7" xml:space="preserve">
<g>
	<g>
		<path opacity="3.000000e-02" fill="#BCBEC0" enable-background="new    " d="M401.5,40.4L179.1,0L29.9,136.5l180.5,105.9
			L401.5,40.4z"/>
		<path opacity="3.000000e-02" fill="#BCBEC0" enable-background="new    " d="M183,167.4l69.8,113l209.4-17.6l16.1-133.5L183,167.4
			z"/>
		<path opacity="3.000000e-02" fill="#BCBEC0" enable-background="new    " d="M453.6,221.3l-333.2-13.9L81.1,36.8L336.4,0.6
			L431,178.8L453.6,221.3z"/>
		<path opacity="3.000000e-02" fill="#BCBEC0" enable-background="new    " d="M67.6,244.8l364.8,9.8l-122.3-224L29.9,136.5
			L67.6,244.8z"/>
		<path opacity="3.000000e-02" fill="#BCBEC0" enable-background="new    " d="M126,38.2l325.2,8.2l70.3,120.9l-85.4,113.1L126,38.2
			z"/>
		<path opacity="3.000000e-02" fill="#BCBEC0" enable-background="new    " d="M191,96L398.8,3.2l131.6,100.2L473,248.8L191,96z"/>
		<path opacity="3.000000e-02" fill="#BCBEC0" enable-background="new    " d="M69.6,138.2l-2,106.6l185.2,40.8L395.6,173
			L69.6,138.2z"/>
	</g>
	<path fill="none" d="M299.4,148.7v-4.1"/>
	
		<linearGradient id="SVGID_1_" gradientUnits="userSpaceOnUse" x1="442.2" y1="24.934" x2="442.2" y2="189.286" gradientTransform="matrix(1 0 0 1 0 38)">
		<stop  offset="0" style="stop-color:#E71E25"/>
		<stop  offset="1" style="stop-color:#A81D39"/>
	</linearGradient>
	<path fill="url(#SVGID_1_)" d="M482.1,97.1c-1.8,0-3.6,0.1-5.4,0.3c-9.9-21.6-31.8-36.7-57.1-36.7c-31.4,0-57.4,23-62.1,53.1
		c2,2.8,3.7,5.7,5.1,8.9c0.5-31.1,25.9-56.2,57-56.2c11.1,0,21.9,3.2,31.2,9.3c9,5.9,16.2,14.2,20.7,24l1.8,3.8l4.2-0.5
		c1.6-0.2,3.2-0.3,4.7-0.3c21.4,0,38.9,17.4,38.9,38.9c0,21.4-17.4,38.9-38.9,38.9h-8.8c-0.6,0.8-1.3,1.5-2,2.2l-3.6,3.6h14.4
		c24.7,0,44.7-20,44.7-44.7C526.8,117.1,506.8,97.1,482.1,97.1L482.1,97.1z"/>
	
		<linearGradient id="SVGID_2_" gradientUnits="userSpaceOnUse" x1="359.3" y1="24.934" x2="359.3" y2="189.286" gradientTransform="matrix(1 0 0 1 0 38)">
		<stop  offset="0" style="stop-color:#E71E25"/>
		<stop  offset="1" style="stop-color:#A81D39"/>
	</linearGradient>
	<path fill="url(#SVGID_2_)" d="M387,180.7h-31.1c-13.2-0.1-23.9-10.8-23.9-24c0-12.5,9.6-22.7,21.8-23.9c-0.5-1.9-1.2-3.8-2-5.6
		c-14.5,2-25.6,14.5-25.6,29.5c0,16.2,12.9,29.3,28.9,29.8h37.3l-3.6-3.6C388.4,182.2,387.7,181.5,387,180.7L387,180.7z"/>
	
		<linearGradient id="SVGID_3_" gradientUnits="userSpaceOnUse" x1="430.2" y1="24.934" x2="430.2" y2="189.286" gradientTransform="matrix(1 0 0 1 0 38)">
		<stop  offset="0" style="stop-color:#E71E25"/>
		<stop  offset="1" style="stop-color:#A81D39"/>
	</linearGradient>
	<path fill="url(#SVGID_3_)" d="M477.4,161.1c0-7.5-2.9-14.5-8.2-19.8c-5.3-5.3-12.3-8.2-19.8-8.2c-3.7,0-7.3,0.7-10.6,2.1l-1.5,4.8
		l-0.2,0.6l-5.2,16.1l8.8-1.3l-15.1,36.4l-0.1,0.3l2.6-26.6l-9.9,0.6v-0.2L424,137l0.1-0.6c-4-2.1-8.5-3.3-13.1-3.3
		c-7.5,0-14.5,2.9-19.8,8.2s-8.2,12.3-8.2,19.8s2.9,14.5,8.2,19.8l39,39l39-39C474.5,175.6,477.4,168.6,477.4,161.1L477.4,161.1z
		 M430.2,214.8l-36.5-36.5c-4.6-4.6-7.1-10.7-7.1-17.2s2.5-12.6,7.1-17.2s10.7-7.1,17.2-7.1c2.7,0,5.4,0.5,7.9,1.3l-1.4,7.2
		c-2-0.8-4.2-1.3-6.5-1.3c-4.6,0-8.9,1.8-12.1,5s-5,7.5-5,12.1s1.8,8.9,5,12.1l31.3,31.3l31.3-31.3c3.2-3.2,5-7.5,5-12.1
		s-1.8-8.9-5-12.1c-3.2-3.2-7.5-5-12.1-5c-3.3,0-6.5,1-9.2,2.7l2.9-9.1c2-0.5,4.1-0.8,6.3-0.8c6.5,0,12.6,2.5,17.2,7.1
		s7.1,10.7,7.1,17.2s-2.5,12.6-7.1,17.2L430.2,214.8L430.2,214.8z"/>
	
		<linearGradient id="SVGID_4_" gradientUnits="userSpaceOnUse" x1="193.7" y1="29.2" x2="193.7" y2="234.8271" gradientTransform="matrix(1 0 0 -1 0 288)">
		<stop  offset="0" style="stop-color:#F8EC1D"/>
		<stop  offset="1" style="stop-color:#F05A2B"/>
	</linearGradient>
	<path fill="url(#SVGID_4_)" d="M224.2,180.7H193h-0.1c-13.2,0-23.9-10.8-23.9-24c0-12.5,9.6-22.7,21.8-23.9c-0.5-1.9-1.2-3.8-2-5.6
		c-14.5,2-25.6,14.5-25.6,29.5c0,16.5,13.3,29.8,29.8,29.8h28.6l0.2-0.6C221.8,185.7,222.5,183.5,224.2,180.7z"/>
	
		<linearGradient id="SVGID_5_" gradientUnits="userSpaceOnUse" x1="319.65" y1="29.2" x2="319.65" y2="234.8271" gradientTransform="matrix(1 0 0 -1 0 288)">
		<stop  offset="0" style="stop-color:#F8EC1D"/>
		<stop  offset="1" style="stop-color:#F05A2B"/>
	</linearGradient>
	<path fill="url(#SVGID_5_)" d="M332.2,178.4c-4.1,1.5-8.5,2.3-13.1,2.3h-16.8c0,0.1,0.1,0.2,0.1,0.4l0.1,0.5l0.1,0.4v4.3h16.5
		c6.4,0,12.4-1.4,17.9-3.8c-1.4-1.1-2.8-2.2-4.1-3.5C332.7,179,332.4,178.7,332.2,178.4L332.2,178.4z"/>
	
		<linearGradient id="SVGID_6_" gradientUnits="userSpaceOnUse" x1="279.1" y1="29.2" x2="279.1" y2="234.8271" gradientTransform="matrix(1 0 0 -1 0 288)">
		<stop  offset="0" style="stop-color:#F8EC1D"/>
		<stop  offset="1" style="stop-color:#F05A2B"/>
	</linearGradient>
	<path fill="url(#SVGID_6_)" d="M319,97.1c-1.8,0-3.6,0.1-5.4,0.3c-9.9-21.6-31.8-36.7-57.1-36.7c-31.4,0-57.4,23-62.1,53.1
		c2,2.8,3.7,5.7,5.1,8.9c0.5-31.1,25.9-56.2,57-56.2c11.1,0,21.9,3.2,31.2,9.3c9,5.9,16.2,14.2,20.7,24l1.8,3.8l4.2-0.5
		c1.6-0.2,3.2-0.3,4.7-0.3c21.4,0,38.9,17.4,38.9,38.9c0,12.8-6.2,24.2-15.8,31.3c1.6,1.3,3.3,2.5,5.2,3.3
		c10-8.2,16.4-20.6,16.4-34.6C363.7,117.1,343.7,97.1,319,97.1L319,97.1z"/>
	<path fill="none" d="M247,177.5"/>
	
		<linearGradient id="SVGID_7_" gradientUnits="userSpaceOnUse" x1="156.25" y1="20.21" x2="156.25" y2="184.003" gradientTransform="matrix(1 0 0 1 0 38)">
		<stop  offset="0" style="stop-color:#B280B8"/>
		<stop  offset="1" style="stop-color:#8A4F9E"/>
	</linearGradient>
	<path fill="url(#SVGID_7_)" d="M168.6,178.6c-4,1.4-8.3,2.2-12.7,2.2H140c-0.2,1-0.6,2-1,3c0.4,0.9,0.8,1.8,1,2.8h16
		c6.2,0,12.1-1.3,17.5-3.6C171.7,181.6,170.1,180.2,168.6,178.6z"/>
	
		<linearGradient id="SVGID_8_" gradientUnits="userSpaceOnUse" x1="100.4" y1="20.21" x2="100.4" y2="184.003" gradientTransform="matrix(1 0 0 1 0 38)">
		<stop  offset="0" style="stop-color:#B280B8"/>
		<stop  offset="1" style="stop-color:#8A4F9E"/>
	</linearGradient>
	<path fill="url(#SVGID_8_)" d="M51.9,180.7h-22h-0.1c-13.2,0-23.9-10.8-23.9-24s10.8-24,24-24h0.7l6.3,0.2l-0.3-6.3
		c-0.1-1-0.1-2-0.1-3c0-31.5,25.6-57,57-57c11.1,0,21.9,3.2,31.2,9.3c9,5.9,16.2,14.2,20.7,24l1.8,3.8l4.2-0.5
		c1.6-0.2,3.2-0.3,4.7-0.3c21.4,0,38.9,17.4,38.9,38.9c0,12.6-6.1,23.9-15.4,31c1.6,1.3,3.3,2.4,5.2,3.3c9.8-8.2,16-20.5,16-34.2
		c0-24.7-20-44.7-44.7-44.7c-1.8,0-3.6,0.1-5.4,0.3c-9.9-21.6-31.8-36.7-57.1-36.7c-34.7,0-62.9,28.1-62.9,62.9c0,1.1,0,2.2,0.1,3.3
		H30c-16.7-0.1-30,13.3-30,29.7c0,16.5,13.3,29.8,29.8,29.8h22.1c0.2-0.9,0.6-1.9,1-2.8C52.5,182.7,52.1,181.7,51.9,180.7
		L51.9,180.7z"/>
	
		<linearGradient id="SVGID_9_" gradientUnits="userSpaceOnUse" x1="95.8" y1="20.21" x2="95.8" y2="184.003" gradientTransform="matrix(1 0 0 1 0 38)">
		<stop  offset="0" style="stop-color:#B280B8"/>
		<stop  offset="1" style="stop-color:#8A4F9E"/>
	</linearGradient>
	<path fill="url(#SVGID_9_)" d="M137.6,158.3c0.1-0.7,0.2-1.5,0.2-2.3c0-6-4.6-11.4-12.1-15.3c-1.9-1-4-1.8-6.2-2.6
		c-1.1-0.4-2.3-0.7-3.5-1.1c-0.6-0.2-1.2-0.3-1.8-0.5c-1.2-0.3-2.5-0.6-3.8-0.8s-2.6-0.4-4-0.6c-1.3-0.2-2.7-0.3-4.1-0.4
		c-2.1-0.2-4.3-0.2-6.5-0.2s-4.4,0.1-6.5,0.2c-1.4,0.1-2.8,0.2-4.1,0.4c-1.3,0.2-2.7,0.4-4,0.6c-1.3,0.2-2.5,0.5-3.8,0.8
		c-0.6,0.1-1.2,0.3-1.8,0.5c-1.2,0.3-2.3,0.7-3.5,1.1c-1.7,0.6-3.3,1.2-4.7,1.9c-8.4,3.9-13.6,9.6-13.6,16c0,0.8,0.1,1.5,0.2,2.3
		c-0.1,0.7-0.2,1.5-0.2,2.3c0,1.1,0.2,2.2,0.4,3.2c0.2,0.8,0.5,1.5,0.9,2.3c0.1,0.2,0.3,0.5,0.4,0.7c-0.1,0.2-0.3,0.5-0.4,0.7
		c-0.4,0.7-0.7,1.5-0.9,2.3c-0.3,1-0.4,2.1-0.4,3.2c0,0.8,0.1,1.5,0.2,2.3c-0.1,0.7-0.2,1.5-0.2,2.3c0,1.1,0.2,2.2,0.4,3.2
		c0.3,1,0.7,2,1.3,3c-0.5,0.9-0.9,1.8-1.2,2.8c-0.3,1.1-0.5,2.3-0.5,3.4c0,0.8,0.1,1.5,0.2,2.3c-0.1,0.7-0.2,1.5-0.2,2.3
		c0,7.2,6.5,13.4,16.7,17.3c0.5,0.2,1.1,0.4,1.6,0.6c1.1,0.4,2.3,0.7,3.5,1.1c3,0.8,6.2,1.5,9.5,1.9c1.3,0.2,2.7,0.3,4.1,0.4
		c2.1,0.2,4.3,0.2,6.5,0.2s4.4-0.1,6.5-0.2c1.4-0.1,2.8-0.2,4.1-0.4c3.4-0.4,6.6-1.1,9.5-1.9c1.2-0.3,2.3-0.7,3.5-1.1
		c0.6-0.2,1.1-0.4,1.6-0.6c1.1-0.4,2.1-0.8,3.1-1.3c0.5-0.2,1-0.5,1.4-0.7c7.5-3.9,12.1-9.3,12.1-15.3c0-0.8-0.1-1.5-0.2-2.3
		c0.1-0.7,0.2-1.5,0.2-2.3c0-1.2-0.2-2.3-0.5-3.4c-0.3-1-0.7-1.9-1.2-2.8c0.6-1,1-2,1.3-3s0.4-2.1,0.4-3.2c0-0.8-0.1-1.5-0.2-2.3
		c0.1-0.7,0.2-1.5,0.2-2.3c0-2.2-0.6-4.3-1.7-6.2c1.1-2,1.7-4.1,1.7-6.2C137.9,159.8,137.8,159,137.6,158.3L137.6,158.3z
		 M95.9,136.8c21.8,0,39.6,8.6,39.6,19.2s-17.7,19.2-39.6,19.2c-21.8,0-39.6-8.6-39.6-19.2C56.4,145.4,74.1,136.8,95.9,136.8z
		 M134.7,164.4c-3.7,8.7-19.7,15.3-38.8,15.3s-35.1-6.6-38.8-15.3c6.2,7.8,21.1,13.2,38.8,13.2S128.4,172.2,134.7,164.4z
		 M95.9,194.5c13.5,0,25.2-3.1,32.9-8c2.4-1.6,4.4-3.3,5.9-5.2c-0.8,1.8-2.1,3.6-3.8,5.2c-6.7,6-19.8,10.2-34.9,10.2
		s-28.2-4.1-34.9-10.2c-1.8-1.6-3.1-3.3-3.8-5.2c1.5,1.9,3.5,3.6,5.9,5.2C70.7,191.4,82.5,194.5,95.9,194.5z M95.9,213.7
		c-19.1,0-35.1-6.6-38.8-15.3c6.2,7.8,21.1,13.2,38.8,13.2s32.5-5.4,38.8-13.2C131,207.1,115,213.7,95.9,213.7z M135.5,190
		c0,10.6-17.7,19.2-39.6,19.2c-21.8,0-39.6-8.6-39.6-19.2c0-1.2,0.2-2.3,0.7-3.4c0.1-0.2,0.1-0.4,0.2-0.5c0.1,0.2,0.3,0.4,0.5,0.5
		c6.5,7.5,21,12.5,38.2,12.5s31.7-5.1,38.2-12.5c0.2-0.2,0.3-0.4,0.5-0.5c0.1,0.2,0.1,0.4,0.2,0.5
		C135.2,187.6,135.5,188.8,135.5,190z M126,185.4c-7.3,4.1-18,6.7-30.1,6.7c-11.5,0-21.9-2.4-29.2-6.2c-2.9-1.5-5.3-3.3-7-5.2
		c-2.2-2.4-3.4-5-3.4-7.7c0-1.4,0.3-2.7,0.9-4c6.3,7.8,21.1,13.1,38.7,13.1s32.4-5.3,38.7-13.1c0.6,1.3,0.9,2.6,0.9,4
		c0,2.7-1.2,5.4-3.4,7.7C130.6,182.4,128.5,184,126,185.4z"/>
	
		<linearGradient id="SVGID_10_" gradientUnits="userSpaceOnUse" x1="265.3828" y1="29.2" x2="265.3828" y2="234.8271" gradientTransform="matrix(1 0 0 -1 0 288)">
		<stop  offset="0" style="stop-color:#F8EC1D"/>
		<stop  offset="1" style="stop-color:#F05A2B"/>
	</linearGradient>
	<path fill="url(#SVGID_10_)" d="M306,170.3c-0.1-1.5-0.4-3.2-0.9-5.1c-0.5-1.9-1.2-4-2.3-6.1c-1.1-2.1-2.5-4.4-4.3-6.5
		c-0.7-0.8-1.5-1.7-2.3-2.5c1.2-5-1.5-9.3-1.5-9.3c-4.8-0.3-7.8,1.5-8.9,2.3c-0.2-0.1-0.4-0.2-0.6-0.2c-0.8-0.3-1.6-0.6-2.5-0.9
		c-0.9-0.3-1.7-0.5-2.6-0.7s-1.8-0.4-2.7-0.5c-0.2,0-0.3,0-0.5-0.1c-2.1-6.7-8.1-9.4-8.1-9.4c-6.7,4.2-7.9,10.1-7.9,10.1
		s0,0.1-0.1,0.3c-0.4,0.1-0.7,0.2-1.1,0.3c-0.5,0.2-1,0.3-1.5,0.5s-1,0.4-1.5,0.6c-1,0.4-2,0.9-3,1.5c-0.9,0.5-1.9,1.1-2.8,1.7
		c-0.1-0.1-0.2-0.1-0.2-0.1c-9.2-3.5-17.4,0.7-17.4,0.7c-0.7,9.8,3.7,16,4.6,17.1c-0.2,0.6-0.4,1.2-0.6,1.8
		c-0.7,2.2-1.2,4.5-1.5,6.9c0,0.3-0.1,0.7-0.1,1c-8.5,4.2-11.1,12.8-11.1,12.8c7.1,8.2,15.4,8.7,15.4,8.7l0,0
		c1.1,1.9,2.3,3.7,3.7,5.3c0.6,0.7,1.2,1.4,1.8,2c-2.6,7.4,0.4,13.6,0.4,13.6c7.9,0.3,13.1-3.5,14.2-4.3c0.8,0.3,1.6,0.5,2.4,0.7
		c2.4,0.6,4.9,1,7.4,1.1c0.6,0,1.2,0,1.9,0h0.3h0.2h0.4h0.4l0,0c3.7,5.3,10.3,6.1,10.3,6.1c5.3-5.6,4.9-11.1,4.9-11.1
		c-0.1,0-0.1-0.1-0.2-0.1c1-0.7,2-1.5,2.9-2.3c1.9-1.7,3.5-3.6,4.9-5.7c0.1-0.2,0.3-0.4,0.4-0.6c5.3,0.3,9-3.3,9-3.3
		c-1-6.2-4.8-8.8-4.8-8.8h-0.1c0-0.4,0.1-0.7,0.1-1.1c0-0.6,0.1-1.2,0.1-1.8v-0.4v-0.2v-0.1c0-0.2,0-0.1,0-0.2v-0.4v-0.5
		c0-0.2,0-0.3,0-0.5s0-0.3,0-0.5l-0.1-0.5l-0.1-0.5c-0.1-0.6-0.2-1.2-0.3-1.8c-0.6-2.4-1.5-4.6-2.7-6.7c-1.2-2-2.7-3.8-4.5-5.3
		c-1.7-1.5-3.6-2.7-5.7-3.6c-2-0.9-4.1-1.5-6.2-1.8c-1.1-0.1-2.1-0.2-3.1-0.2h-0.4h-0.1h-0.1h-0.2h-0.4c-0.1,0-0.3,0-0.4,0
		c-0.5,0.1-1.1,0.1-1.6,0.2c-2.1,0.4-4.1,1.1-5.8,2.2c-1.7,1-3.3,2.3-4.5,3.8s-2.2,3.1-2.8,4.8c-0.7,1.7-1,3.4-1.1,5.1
		c0,0.4,0,0.8,0,1.3c0,0.1,0,0.2,0,0.3v0.3c0,0.2,0,0.4,0,0.6c0.1,0.9,0.2,1.7,0.5,2.5c0.5,1.6,1.2,3,2.1,4.2s2,2.2,3.1,3
		c1.2,0.8,2.4,1.4,3.6,1.7c1.2,0.4,2.4,0.5,3.6,0.5c0.1,0,0.3,0,0.4,0s0.2,0,0.2,0c0.1,0,0.2,0,0.2,0c0.1,0,0.2,0,0.4,0h0.1h0.1
		c0.1,0,0.1,0,0.2,0c0.2,0,0.3,0,0.4-0.1c0.1,0,0.3-0.1,0.4-0.1c0.3-0.1,0.5-0.1,0.8-0.2c0.5-0.2,1-0.4,1.4-0.6
		c0.4-0.2,0.8-0.5,1.2-0.7c0.1-0.1,0.2-0.2,0.3-0.2c0.4-0.3,0.5-0.9,0.1-1.3c-0.3-0.3-0.8-0.4-1.1-0.2c-0.1,0.1-0.2,0.1-0.3,0.2
		c-0.3,0.2-0.7,0.3-1.1,0.4c-0.4,0.1-0.8,0.2-1.2,0.3c-0.2,0-0.4,0.1-0.6,0.1c-0.1,0-0.2,0-0.3,0c-0.1,0-0.2,0-0.3,0
		c-0.1,0-0.2,0-0.3,0c-0.1,0-0.2,0-0.4,0c0,0-0.1,0,0,0l0,0h-0.1c-0.1,0-0.1,0-0.2,0s-0.2,0-0.3,0c-0.9-0.1-1.8-0.4-2.7-0.8
		c-0.9-0.4-1.7-0.9-2.5-1.6c-0.8-0.7-1.4-1.5-1.9-2.4s-0.9-2-1-3c-0.1-0.5-0.1-1.1-0.1-1.6c0-0.1,0-0.3,0-0.5l0,0v-0.1v-0.1
		c0-0.1,0-0.1,0-0.2c0-0.3,0.1-0.6,0.1-0.9c0.4-2.3,1.6-4.6,3.4-6.4c0.5-0.4,0.9-0.8,1.5-1.2c0.5-0.4,1.1-0.7,1.7-0.9
		c0.6-0.3,1.2-0.5,1.8-0.7c0.6-0.2,1.3-0.3,1.9-0.3c0.3,0,0.6,0,1,0c0.1,0,0.2,0,0.2,0h0.3h0.2c0.1,0,0,0,0,0h0.1h0.3
		c0.7,0.1,1.4,0.2,2.1,0.3c1.4,0.3,2.7,0.8,4,1.5c2.5,1.4,4.6,3.5,5.9,6.1c0.7,1.3,1.1,2.7,1.3,4.1c0.1,0.4,0.1,0.7,0.1,1.1v0.3v0.3
		c0,0.1,0,0.2,0,0.3s0,0.2,0,0.3v0.2v0.3c0,0.2,0,0.5,0,0.6c0,0.4-0.1,0.8-0.1,1.2s-0.1,0.8-0.2,1.2s-0.2,0.8-0.3,1.2
		c-0.2,0.8-0.4,1.5-0.7,2.3c-0.6,1.5-1.4,2.9-2.3,4.2c-1.9,2.6-4.5,4.7-7.4,6c-1.5,0.7-3,1.1-4.6,1.4c-0.8,0.1-1.6,0.2-2.4,0.2H273
		h-0.1h-0.3h-0.4H272c0.1,0,0,0,0,0h-0.1c-0.4,0-0.9,0-1.3-0.1c-1.7-0.1-3.4-0.4-5.1-0.9c-1.6-0.5-3.2-1.1-4.7-1.9
		c-3-1.6-5.7-3.8-7.8-6.5c-1.1-1.3-2-2.8-2.8-4.3s-1.4-3.1-1.8-4.7c-0.4-1.6-0.7-3.3-0.8-4.9v-0.3v-0.1v-0.1v-0.1V178v-0.1v-0.1
		v-0.2v-0.4v-0.1l0,0v-0.2c0-0.2,0-0.4,0-0.6c0-0.8,0.1-1.7,0.2-2.5c0.1-0.8,0.2-1.7,0.4-2.5s0.4-1.7,0.6-2.5
		c0.5-1.6,1.1-3.2,1.7-4.7c1.4-3,3.2-5.6,5.4-7.8c0.5-0.5,1.1-1,1.7-1.5c0.6-0.5,1.2-0.9,1.8-1.3c0.6-0.4,1.3-0.8,1.9-1.1
		c0.3-0.2,0.7-0.3,1-0.5c0.2-0.1,0.3-0.2,0.5-0.2c0.2-0.1,0.3-0.1,0.5-0.2c0.7-0.3,1.4-0.5,2.1-0.8c0.2-0.1,0.4-0.1,0.5-0.2
		c0.2-0.1,0.4-0.1,0.5-0.2c0.4-0.1,0.7-0.2,1.1-0.3c0.2,0,0.4-0.1,0.6-0.1s0.4-0.1,0.6-0.1s0.4-0.1,0.6-0.1l0.3-0.1h0.3
		c0.2,0,0.4-0.1,0.6-0.1s0.4-0.1,0.6-0.1s0.5-0.1,0.6-0.1s0.3,0,0.4,0h0.3h0.1h0.2c0.2,0,0.4,0,0.6,0h0.3c0,0,0.1,0,0,0h0.1h0.1
		c0.2,0,0.4,0,0.5,0c0.7,0,1.4,0,2.1,0c1.4,0.1,2.8,0.2,4.2,0.5c2.7,0.5,5.3,1.4,7.6,2.5c2.3,1.1,4.4,2.5,6.2,4
		c0.1,0.1,0.2,0.2,0.3,0.3c0.1,0.1,0.2,0.2,0.3,0.3c0.2,0.2,0.4,0.4,0.6,0.6c0.2,0.2,0.4,0.4,0.6,0.6c0.2,0.2,0.4,0.4,0.6,0.6
		c0.8,0.8,1.5,1.6,2.1,2.4c1.3,1.6,2.3,3.3,3.1,4.9c0.1,0.1,0.1,0.2,0.2,0.3c0,0.1,0.1,0.2,0.1,0.3c0.1,0.2,0.2,0.4,0.3,0.6
		c0.1,0.2,0.2,0.4,0.3,0.6c0.1,0.2,0.2,0.4,0.2,0.6c0.3,0.7,0.6,1.4,0.8,2.1c0.4,1.1,0.6,2,0.9,2.9c0.1,0.3,0.4,0.6,0.7,0.5
		c0.4,0,0.6-0.3,0.6-0.7C306.2,172.6,306.2,171.5,306,170.3z"/>
</g>
</svg>
