<?xml version="1.0" encoding="utf-8"?>
<!-- Generator: Adobe Illustrator 20.1.0, SVG Export Plug-In . SVG Version: 6.00 Build 0)  -->
<svg version="1.1" id="Layer_1" xmlns="http://www.w3.org/2000/svg" xmlns:xlink="http://www.w3.org/1999/xlink" x="0px" y="0px"
	 width="400px" height="217.4px" viewBox="0 0 400 217.4" enable-background="new 0 0 400 217.4" xml:space="preserve">
<g>
	<polygon opacity="2.000000e-02" fill="#BCBEC0" points="302.7,34.4 154.9,2.8 54.3,116.6 173.7,202.5 	"/>
	<polygon opacity="2.000000e-02" fill="#BCBEC0" points="109.5,131.1 155.8,217.4 303.1,212 305.9,102.1 	"/>
	<polygon opacity="2.000000e-02" fill="#BCBEC0" points="336.1,168.9 114.5,158.3 96.9,27.1 258.2,0.4 321.1,136.4 	"/>
	<polygon opacity="2.000000e-02" fill="#BCBEC0" points="58.1,184.8 327.3,148.2 125.2,52.4 33,102.2 	"/>
	<polygon opacity="2.000000e-02" fill="#BCBEC0" points="96.9,27.1 313.2,33.4 359.9,125.7 303.1,212 	"/>
	<polygon opacity="2.000000e-02" fill="#BCBEC0" points="228.2,76.3 355.1,93.9 367,141.3 266.9,212 	"/>
	<polygon opacity="2.000000e-02" fill="#BCBEC0" points="34.3,103.5 33,184.8 156.1,216 251.1,130 	"/>
	
		<line fill="none" stroke="#00A651" stroke-width="0" stroke-linecap="round" stroke-linejoin="round" x1="212.2" y1="111.5" x2="212.2" y2="108.4"/>
	<g>
		<linearGradient id="SVGID_1_" gradientUnits="userSpaceOnUse" x1="203.8462" y1="43.2684" x2="203.8462" y2="185.7904">
			<stop  offset="0" style="stop-color:#B381B9"/>
			<stop  offset="1" style="stop-color:#8B4F9F"/>
		</linearGradient>
		<path fill="url(#SVGID_1_)" d="M256.2,74.7c-1.7,0-3.4,0.1-5,0.3c-9.3-20.4-29.9-34.5-53.8-34.5c-32.7,0-59.2,26.5-59.2,59.2
			c0,1,0,2.1,0.1,3.1c-0.3,0-0.5,0-0.8,0c-15.5,0-28,12.6-28,28c0,15.5,12.6,28,28,28c0,0,0,0,0,0v0h24.3c0.2-0.8,0.5-1.5,0.8-2.3
			c-0.5-1-0.8-2.1-1-3.2H143v0h-5.5c0,0-0.1,0-0.1,0c-12.4,0-22.5-10.1-22.5-22.6c0-12.4,10.1-22.6,22.6-22.6c0.1,0,0.2,0,0.3,0
			l0.3,0l5.9,0.2l-0.3-5.9c0-0.9-0.1-1.9-0.1-2.8c0-29.6,24.1-53.7,53.7-53.7c10.5,0,20.6,3,29.3,8.7c8.5,5.6,15.2,13.4,19.5,22.6
			l1.7,3.6l4-0.5c1.5-0.2,3-0.3,4.4-0.3c20.2,0,36.6,16.4,36.6,36.6c0,20.2-16.4,36.6-36.6,36.6H246c-0.2,1.1-0.6,2.1-1,3.2
			c0.3,0.8,0.6,1.5,0.8,2.3h10.3v0c23.2,0,42-18.8,42-42.1C298.2,93.5,279.4,74.7,256.2,74.7z"/>
		<linearGradient id="SVGID_2_" gradientUnits="userSpaceOnUse" x1="203.8462" y1="43.2684" x2="203.8462" y2="185.7904">
			<stop  offset="0" style="stop-color:#B381B9"/>
			<stop  offset="1" style="stop-color:#8B4F9F"/>
		</linearGradient>
		<path fill="url(#SVGID_2_)" d="M242,156.5c1.1-1.9,1.6-3.8,1.6-5.9c0-0.7-0.1-1.4-0.2-2.1c0.1-0.7,0.2-1.4,0.2-2.1
			c0-2.1-0.6-4-1.6-5.9c1.1-1.9,1.6-3.8,1.6-5.9c0-0.7-0.1-1.4-0.2-2.1c0.1-0.7,0.2-1.4,0.2-2.1c0-5.7-4.4-10.8-11.5-14.5
			c-1.8-0.9-3.7-1.7-5.9-2.5c-1.1-0.4-2.1-0.7-3.3-1c-0.6-0.2-1.1-0.3-1.7-0.4c-1.2-0.3-2.4-0.5-3.6-0.8c-1.2-0.2-2.5-0.4-3.8-0.6
			c-1.3-0.2-2.6-0.3-3.9-0.4c-2-0.2-4-0.2-6.1-0.2s-4.1,0.1-6.1,0.2c-1.3,0.1-2.6,0.2-3.9,0.4c-1.3,0.2-2.5,0.4-3.8,0.6
			c-1.2,0.2-2.4,0.5-3.6,0.8c-0.6,0.1-1.2,0.3-1.7,0.4c-1.1,0.3-2.2,0.6-3.3,1c-1.6,0.5-3.1,1.1-4.5,1.8c-8,3.7-12.9,9.1-12.9,15.2
			c0,0.7,0.1,1.4,0.2,2.1c-0.1,0.7-0.2,1.4-0.2,2.1c0,1,0.1,2,0.4,3c0.2,0.7,0.5,1.5,0.8,2.2c0.1,0.2,0.2,0.5,0.4,0.7
			c-0.1,0.2-0.3,0.5-0.4,0.7c-0.3,0.7-0.6,1.4-0.8,2.2c-0.3,1-0.4,2-0.4,3c0,0.7,0.1,1.4,0.2,2.1c-0.1,0.7-0.2,1.4-0.2,2.1
			c0,2.1,0.6,4,1.6,5.9c-1.1,1.9-1.6,3.8-1.6,5.9c0,0.7,0.1,1.4,0.2,2.1c-0.1,0.7-0.2,1.4-0.2,2.1c0,6.8,6.2,12.7,15.8,16.4
			c0.5,0.2,1,0.4,1.6,0.6c1.1,0.4,2.1,0.7,3.3,1c2.8,0.8,5.8,1.4,9,1.8c1.3,0.2,2.6,0.3,3.9,0.4c2,0.2,4,0.2,6.1,0.2
			s4.1-0.1,6.1-0.2c1.3-0.1,2.6-0.2,3.9-0.4c3.2-0.4,6.2-1,9-1.8c1.1-0.3,2.2-0.6,3.3-1c0.5-0.2,1-0.4,1.6-0.6c1-0.4,2-0.8,2.9-1.2
			c0.5-0.2,0.9-0.4,1.4-0.7c7.1-3.7,11.5-8.8,11.5-14.5c0-0.7-0.1-1.4-0.2-2.1c0.1-0.7,0.2-1.4,0.2-2.1
			C243.6,160.3,243,158.4,242,156.5z M203.8,168.8c-18.1,0-33.2-6.2-36.7-14.5c5.9,7.4,20,12.5,36.7,12.5c16.8,0,30.8-5.1,36.7-12.5
			C237.1,162.5,221.9,168.8,203.8,168.8z M203.8,112c20.7,0,37.5,8.2,37.5,18.2s-16.8,18.2-37.5,18.2s-37.5-8.2-37.5-18.2
			S183.2,112,203.8,112z M240.6,138.2c-3.5,8.3-18.6,14.5-36.7,14.5c-18.1,0-33.2-6.2-36.7-14.5c5.9,7.4,20,12.5,36.7,12.5
			C220.6,150.7,234.7,145.6,240.6,138.2z M166.4,146.3c0-1.3,0.3-2.6,0.8-3.8c6,7.4,20,12.4,36.7,12.4s30.7-5.1,36.7-12.4
			c0.5,1.2,0.8,2.5,0.8,3.8c0,10-16.8,18.2-37.5,18.2S166.4,156.3,166.4,146.3z M203.8,184.9c-18.1,0-33.2-6.2-36.7-14.5
			c5.9,7.4,20,12.5,36.7,12.5c16.8,0,30.8-5.1,36.7-12.5C237.1,178.6,221.9,184.9,203.8,184.9z M203.8,180.6
			c-20.7,0-37.5-8.2-37.5-18.2c0-1.3,0.3-2.6,0.8-3.8c6,7.4,20,12.4,36.7,12.4s30.7-5.1,36.7-12.4c0.5,1.2,0.8,2.5,0.8,3.8
			C241.3,172.4,224.5,180.6,203.8,180.6z"/>
	</g>
</g>
</svg>
