<?xml version="1.0" encoding="utf-8"?>
<!-- Generator: Adobe Illustrator 20.1.0, SVG Export Plug-In . SVG Version: 6.00 Build 0)  -->
<svg version="1.1" xmlns="http://www.w3.org/2000/svg" xmlns:xlink="http://www.w3.org/1999/xlink" x="0px" y="0px" width="540px"
	 height="230px" viewBox="0 0 540 230" enable-background="new 0 0 540 230" xml:space="preserve">
<g id="Layer_1">
	<polygon opacity="3.000000e-02" fill="#BCBEC0" points="128.6,181.6 96.1,211.3 54.2,198 44.8,155 77.2,125.4 119.1,138.7 	"/>
	<polygon opacity="3.000000e-02" fill="#BCBEC0" points="167.2,133 155,178.7 109.3,190.9 75.9,157.5 88.2,111.8 133.8,99.6 	"/>
	<polygon opacity="3.000000e-02" fill="#BCBEC0" points="133.9,105.4 124.8,139.5 90.8,148.6 65.9,123.7 75,89.6 109,80.5 	"/>
	<polygon opacity="3.000000e-02" fill="#BCBEC0" points="511.2,168.8 495.2,189.1 469.6,185.4 460,161.4 476,141 501.7,144.8 	"/>
	<polygon opacity="3.000000e-02" fill="#BCBEC0" points="52.9,116.4 59.6,142.6 40.3,161.5 14.3,154.2 7.5,128 26.8,109.1 	"/>
	<polygon opacity="3.000000e-02" fill="#BCBEC0" points="102.9,141 96.2,166 71.2,172.7 52.9,154.4 59.6,129.4 84.6,122.7 	"/>
	<polygon opacity="3.000000e-02" fill="#BCBEC0" points="181.5,114.3 141.2,139.5 99.3,117.2 97.6,69.7 137.9,44.5 179.8,66.8 	"/>
	<polygon opacity="3.000000e-02" fill="#BCBEC0" points="184.5,69 175.6,102 142.7,110.8 118.6,86.7 127.4,53.7 160.4,44.9 	"/>
	<polygon opacity="3.000000e-02" fill="#BCBEC0" points="277.4,138 284.7,171.3 259.5,194.3 227,184 219.7,150.7 244.9,127.7 	"/>
	<polygon opacity="3.000000e-02" fill="#BCBEC0" points="172.3,183 145.6,204.3 113.9,191.8 108.8,158.1 135.5,136.9 167.2,149.3 	
		"/>
	<polygon opacity="3.000000e-02" fill="#BCBEC0" points="224.3,181.4 197.6,202.6 165.9,190.2 160.8,156.4 187.5,135.2 219.2,147.6 
			"/>
	<polygon opacity="3.000000e-02" fill="#BCBEC0" points="397.1,66.3 387,103.8 349.5,113.9 322,86.4 332,48.8 369.6,38.8 	"/>
	<polygon opacity="3.000000e-02" fill="#BCBEC0" points="190.7,108.8 181.9,141.8 149,150.6 124.8,126.5 133.7,93.5 166.6,84.7 	"/>
	<polygon opacity="3.000000e-02" fill="#BCBEC0" points="181.5,136.4 172.7,169.4 139.8,178.2 115.6,154.1 124.5,121.1 157.4,112.3 
			"/>
	<polygon opacity="3.000000e-02" fill="#BCBEC0" points="218.2,108 209.4,140.9 176.4,149.7 152.3,125.6 161.1,92.7 194.1,83.9 	"/>
	<polygon opacity="3.000000e-02" fill="#BCBEC0" points="227.9,69 219,101.9 186.1,110.8 162,86.7 170.8,53.7 203.7,44.9 	"/>
	<polygon opacity="3.000000e-02" fill="#BCBEC0" points="262.3,144.6 249.6,207.7 188.6,228.2 140.3,185.7 153,122.6 214,102 	"/>
	<polygon opacity="3.000000e-02" fill="#BCBEC0" points="294,73.4 281.3,136.5 220.3,157.1 172,114.5 184.7,51.4 245.7,30.9 	"/>
	<polygon opacity="3.000000e-02" fill="#BCBEC0" points="491,145.1 478.3,208.2 417.3,228.8 369,186.2 381.7,123.1 442.7,102.6 	"/>
	<polygon opacity="3.000000e-02" fill="#BCBEC0" points="266.5,114 257.7,146.9 224.7,155.7 200.6,131.6 209.5,98.7 242.4,89.8 	"/>
	<polygon opacity="3.000000e-02" fill="#BCBEC0" points="277.1,98.9 255.1,124.9 221.5,118.8 210,86.7 232.1,60.7 265.6,66.8 	"/>
	<polygon opacity="3.000000e-02" fill="#BCBEC0" points="313.2,107.2 304.4,140.2 271.5,149 247.3,124.9 256.2,91.9 289.1,83.1 	"/>
	<polygon opacity="3.000000e-02" fill="#BCBEC0" points="350.5,37.9 339.4,79.1 298.3,90.1 268.2,60 279.2,18.8 320.3,7.8 	"/>
	<polygon opacity="3.000000e-02" fill="#BCBEC0" points="304.9,68.1 274.6,106.6 226.1,99.5 207.9,54 238.2,15.5 286.8,22.6 	"/>
	<polygon opacity="3.000000e-02" fill="#BCBEC0" points="334.8,162.3 315.8,207.4 267.1,213.5 237.5,174.4 256.6,129.2 305.3,123.2 
			"/>
	<polygon opacity="3.000000e-02" fill="#BCBEC0" points="363.4,85.2 354.6,118.1 321.7,126.9 297.5,102.8 306.4,69.9 339.3,61 	"/>
	<polygon opacity="3.000000e-02" fill="#BCBEC0" points="405.9,54.9 375.2,105.6 316,104.3 287.5,52.4 318.2,1.7 377.4,3 	"/>
	<polygon opacity="3.000000e-02" fill="#BCBEC0" points="352.9,126.3 343.9,159.9 310.2,168.9 285.6,144.3 294.6,110.7 328.3,101.7 
			"/>
	<polygon opacity="3.000000e-02" fill="#BCBEC0" points="344,174.6 298,229 227.9,216.3 203.8,149.3 249.9,94.9 320,107.6 	"/>
	<polygon opacity="3.000000e-02" fill="#BCBEC0" points="397.1,154.8 381.7,212 324.5,227.3 282.7,185.5 298,128.3 355.2,112.9 	"/>
	<polygon opacity="3.000000e-02" fill="#BCBEC0" points="470,73.3 454.7,130.5 397.5,145.8 355.6,103.9 370.9,46.7 428.1,31.4 	"/>
	<polygon opacity="3.000000e-02" fill="#BCBEC0" points="368.6,95.6 353.3,152.8 296.1,168.1 254.2,126.3 269.6,69.1 326.8,53.7 	
		"/>
	<polygon opacity="3.000000e-02" fill="#BCBEC0" points="410.1,156.9 370.8,201.1 312.8,189.2 294.1,133 333.5,88.7 391.5,100.7 	
		"/>
	<polygon opacity="3.000000e-02" fill="#BCBEC0" points="430.6,109.2 417.7,157.4 369.5,170.3 334.3,135 347.2,86.8 395.4,73.9 	"/>
	<polygon opacity="3.000000e-02" fill="#BCBEC0" points="427.3,123.9 448.9,168.9 420.7,210.1 371,206.3 349.4,161.3 377.5,120.1 	
		"/>
	<polygon opacity="3.000000e-02" fill="#BCBEC0" points="482.3,103.5 493,152.2 456.2,185.8 408.6,170.7 397.9,122 434.8,88.4 	"/>
	<polygon opacity="3.000000e-02" fill="#BCBEC0" points="400.1,94.3 391.3,127.2 358.3,136.1 334.2,112 343,79 376,70.2 	"/>
	<polygon opacity="3.000000e-02" fill="#BCBEC0" points="437.4,92.9 415.3,118.9 381.8,112.8 370.3,80.7 392.3,54.7 425.9,60.8 	"/>
	<polygon opacity="3.000000e-02" fill="#BCBEC0" points="478.3,91.5 466.4,136 421.9,147.9 389.4,115.4 401.3,70.9 445.7,59 	"/>
	<polygon opacity="3.000000e-02" fill="#BCBEC0" points="504,133 464.2,157.9 422.7,135.8 421.1,88.9 460.9,64 502.3,86 	"/>
	<polygon opacity="3.000000e-02" fill="#BCBEC0" points="118.1,149.6 78.3,174.5 36.9,152.5 35.2,105.5 75,80.6 116.5,102.7 	"/>
	<polygon opacity="3.000000e-02" fill="#BCBEC0" points="537.7,142.4 512.5,165.4 480,155.1 472.7,121.8 497.9,98.8 530.4,109.1 	
		"/>
</g>
<g id="Layer_2">
	<g>
		<linearGradient id="SVGID_1_" gradientUnits="userSpaceOnUse" x1="270" y1="16.4876" x2="270" y2="221.2098">
			<stop  offset="0" style="stop-color:#B280B8"/>
			<stop  offset="1" style="stop-color:#8A4F9E"/>
		</linearGradient>
		<path fill="url(#SVGID_1_)" d="M345.2,61.6c-2.5,0-4.9,0.2-7.2,0.4c-13.4-29.2-43-49.6-77.2-49.6c-46.9,0-85,38-85,85
			c0,1.5,0,3,0.1,4.4c-0.4,0-0.7,0-1.1,0c-22.2,0-40.3,18-40.3,40.3c0,22.2,18,40.3,40.3,40.3c0,0,0,0,0.1,0v0h34.9
			c0.3-1.1,0.7-2.2,1.2-3.3c-0.7-1.5-1.2-3-1.5-4.6h-26.8v0h-7.9c0,0-0.1,0-0.1,0c-17.8,0-32.3-14.6-32.3-32.4
			c0-17.9,14.5-32.4,32.4-32.4c0.2,0,0.3,0,0.5,0l0.4,0l8.5,0.2l-0.4-8.5c-0.1-1.4-0.1-2.7-0.1-4c0-42.5,34.6-77.1,77.1-77.1
			c15,0,29.6,4.3,42.1,12.5c12.2,8,21.9,19.2,28,32.5l2.4,5.2l5.7-0.7c2.2-0.3,4.3-0.4,6.3-0.4c29,0,52.6,23.6,52.6,52.6
			c0,29-23.6,52.5-52.5,52.6h-14.6c-0.3,1.5-0.8,3.1-1.5,4.6c0.5,1.1,0.9,2.2,1.2,3.3h14.9v0c33.4,0,60.4-27.1,60.4-60.4
			C405.6,88.6,378.5,61.6,345.2,61.6z"/>
		<linearGradient id="SVGID_2_" gradientUnits="userSpaceOnUse" x1="270" y1="16.4876" x2="270" y2="221.2098">
			<stop  offset="0" style="stop-color:#B280B8"/>
			<stop  offset="1" style="stop-color:#8A4F9E"/>
		</linearGradient>
		<path fill="url(#SVGID_2_)" d="M324.7,179.1c1.5-2.7,2.3-5.5,2.3-8.5c0-1-0.1-2.1-0.3-3.1c0.2-1,0.3-2,0.3-3.1
			c0-3-0.8-5.8-2.3-8.5c1.5-2.7,2.3-5.5,2.3-8.5c0-1-0.1-2.1-0.3-3.1c0.2-1,0.3-2,0.3-3.1c0-8.2-6.3-15.6-16.5-20.8
			c-2.6-1.3-5.4-2.5-8.4-3.6c-1.5-0.5-3.1-1-4.7-1.5c-0.8-0.2-1.6-0.4-2.5-0.6c-1.7-0.4-3.4-0.8-5.1-1.1c-1.8-0.3-3.6-0.6-5.4-0.8
			c-1.8-0.2-3.7-0.4-5.6-0.6c-2.9-0.2-5.8-0.3-8.8-0.3s-5.9,0.1-8.8,0.3c-1.9,0.1-3.8,0.3-5.6,0.6c-1.8,0.2-3.6,0.5-5.4,0.8
			c-1.8,0.3-3.5,0.7-5.1,1.1c-0.8,0.2-1.7,0.4-2.5,0.6c-1.6,0.4-3.2,0.9-4.7,1.5c-2.3,0.8-4.4,1.6-6.4,2.6
			c-11.4,5.3-18.5,13.1-18.5,21.8c0,1,0.1,2.1,0.3,3.1c-0.2,1-0.3,2-0.3,3.1c0,1.5,0.2,2.9,0.6,4.3c0.3,1.1,0.7,2.1,1.2,3.1
			c0.2,0.3,0.3,0.7,0.5,1c-0.2,0.3-0.4,0.7-0.5,1c-0.5,1-0.9,2.1-1.2,3.1c-0.4,1.4-0.6,2.9-0.6,4.3c0,1,0.1,2.1,0.3,3.1
			c-0.2,1-0.3,2-0.3,3.1c0,3,0.8,5.8,2.3,8.5c-1.5,2.7-2.3,5.5-2.3,8.5c0,1,0.1,2.1,0.3,3.1c-0.2,1-0.3,2-0.3,3.1
			c0,9.8,8.8,18.3,22.7,23.6c0.7,0.3,1.5,0.5,2.2,0.8c1.5,0.5,3.1,1,4.7,1.5c4,1.1,8.4,2,13,2.6c1.8,0.2,3.7,0.4,5.6,0.6
			c2.9,0.2,5.8,0.3,8.8,0.3s5.9-0.1,8.8-0.3c1.9-0.1,3.8-0.3,5.6-0.6c4.6-0.6,8.9-1.5,13-2.6c1.6-0.4,3.2-0.9,4.7-1.5
			c0.8-0.3,1.5-0.5,2.2-0.8c1.5-0.6,2.9-1.2,4.2-1.8c0.7-0.3,1.3-0.6,2-1c10.3-5.3,16.5-12.6,16.5-20.8c0-1-0.1-2.1-0.3-3.1
			c0.2-1,0.3-2,0.3-3.1C327.1,184.6,326.3,181.8,324.7,179.1z M270,196.8c-26,0-47.7-9-52.8-20.9c8.5,10.6,28.7,17.9,52.8,17.9
			c24.1,0,44.3-7.3,52.8-17.9C317.7,187.8,296,196.8,270,196.8z M270,115.3c29.7,0,53.8,11.7,53.8,26.1c0,14.4-24.2,26.1-53.8,26.1
			s-53.8-11.7-53.8-26.1C216.2,127,240.3,115.3,270,115.3z M322.8,152.8c-5,11.9-26.8,20.9-52.8,20.9c-26,0-47.7-9-52.8-20.9
			c8.5,10.6,28.7,17.9,52.8,17.9C294.1,170.7,314.3,163.4,322.8,152.8z M216.2,164.5c0-1.9,0.4-3.7,1.2-5.4
			c8.5,10.6,28.7,17.8,52.7,17.8s44.1-7.3,52.7-17.8c0.8,1.8,1.2,3.6,1.2,5.4c0,14.4-24.2,26.1-53.8,26.1S216.2,178.9,216.2,164.5z
			 M270,219.9c-26,0-47.7-9-52.8-20.9c8.5,10.6,28.7,17.9,52.8,17.9c24.1,0,44.3-7.3,52.8-17.9C317.7,210.9,296,219.9,270,219.9z
			 M270,213.7c-29.7,0-53.8-11.7-53.8-26.1c0-1.9,0.4-3.7,1.2-5.4C225.9,192.8,246,200,270,200s44.1-7.3,52.7-17.8
			c0.8,1.8,1.2,3.6,1.2,5.4C323.8,202,299.7,213.7,270,213.7z"/>
	</g>
</g>
</svg>
