<?xml version="1.0" encoding="utf-8"?>
<!-- Generator: Adobe Illustrator 20.1.0, SVG Export Plug-In . SVG Version: 6.00 Build 0)  -->
<svg version="1.1" id="Layer_1" xmlns="http://www.w3.org/2000/svg" xmlns:xlink="http://www.w3.org/1999/xlink" x="0px" y="0px"
	 width="454.2px" height="218px" viewBox="0 0 454.2 218" style="enable-background:new 0 0 454.2 218;" xml:space="preserve">
<style type="text/css">
	.st0{fill:url(#SVGID_1_);}
	.st1{fill:url(#SVGID_2_);}
	.st2{fill:url(#SVGID_3_);}
	.st3{fill:url(#SVGID_4_);}
	.st4{fill:url(#SVGID_5_);}
	.st5{fill:url(#SVGID_6_);}
	.st6{fill:url(#SVGID_7_);}
	.st7{fill:url(#SVGID_8_);}
	.st8{fill:url(#SVGID_9_);}
	.st9{fill:url(#SVGID_10_);}
	.st10{fill:url(#SVGID_11_);}
	.st11{fill:url(#SVGID_12_);}
	.st12{fill:url(#SVGID_13_);}
	.st13{fill:url(#SVGID_14_);}
	.st14{fill:url(#SVGID_15_);}
	.st15{fill:url(#SVGID_16_);}
	.st16{fill:url(#SVGID_17_);}
	.st17{fill:url(#SVGID_18_);}
	.st18{fill:url(#SVGID_19_);}
	.st19{fill:url(#SVGID_20_);}
	.st20{fill:url(#SVGID_21_);}
	.st21{fill:url(#SVGID_22_);}
	.st22{fill:url(#SVGID_23_);}
	.st23{fill:url(#SVGID_24_);}
	.st24{fill:url(#SVGID_25_);}
	.st25{fill:url(#SVGID_26_);}
	.st26{fill:url(#SVGID_27_);}
	.st27{fill:url(#SVGID_28_);}
	.st28{fill:url(#SVGID_29_);}
	.st29{fill:url(#SVGID_30_);}
	.st30{fill:url(#SVGID_31_);}
	.st31{fill:url(#SVGID_32_);}
	.st32{fill:url(#SVGID_33_);}
	.st33{fill:url(#SVGID_34_);}
	.st34{fill:url(#SVGID_35_);}
	.st35{fill:url(#SVGID_36_);}
	.st36{fill:url(#SVGID_37_);}
	.st37{fill:url(#SVGID_38_);}
	.st38{fill:url(#SVGID_39_);}
	.st39{fill:url(#SVGID_40_);}
	.st40{fill:url(#SVGID_41_);}
	.st41{fill:url(#SVGID_42_);}
	.st42{fill:url(#SVGID_43_);}
	.st43{fill:url(#SVGID_44_);}
	.st44{fill:url(#SVGID_45_);}
	.st45{fill:url(#SVGID_46_);}
	.st46{fill:url(#SVGID_47_);}
	.st47{fill:url(#SVGID_48_);}
	.st48{fill:url(#SVGID_49_);}
	.st49{fill:url(#SVGID_50_);}
	.st50{fill:url(#SVGID_51_);}
	.st51{fill:url(#SVGID_52_);}
	.st52{fill:url(#SVGID_53_);}
	.st53{fill:url(#SVGID_54_);}
	.st54{fill:url(#SVGID_55_);}
	.st55{fill:url(#SVGID_56_);}
	.st56{fill:url(#SVGID_57_);}
	.st57{fill:url(#SVGID_58_);}
	.st58{fill:url(#SVGID_59_);}
	.st59{fill:url(#SVGID_60_);}
	.st60{fill:url(#SVGID_61_);}
	.st61{fill:url(#SVGID_62_);}
	.st62{fill:url(#SVGID_63_);}
	.st63{fill:url(#SVGID_64_);}
	.st64{fill:url(#SVGID_65_);}
	.st65{fill:url(#SVGID_66_);}
	.st66{fill:url(#SVGID_67_);}
	.st67{fill:url(#SVGID_68_);}
	.st68{fill:url(#SVGID_69_);}
	.st69{fill:url(#SVGID_70_);}
	.st70{fill:url(#SVGID_71_);}
	.st71{fill:url(#SVGID_72_);}
	.st72{fill:url(#SVGID_73_);}
	.st73{fill:url(#SVGID_74_);}
	.st74{fill:url(#SVGID_75_);}
	.st75{fill:url(#SVGID_76_);}
	.st76{fill:url(#SVGID_77_);}
	.st77{fill:url(#SVGID_78_);}
	.st78{fill:url(#SVGID_79_);}
	.st79{fill:url(#SVGID_80_);}
	.st80{fill:url(#SVGID_81_);}
	.st81{fill:url(#SVGID_82_);}
	.st82{fill:url(#SVGID_83_);}
	.st83{fill:url(#SVGID_84_);}
	.st84{fill:url(#SVGID_85_);}
	.st85{fill:url(#SVGID_86_);}
	.st86{fill:url(#SVGID_87_);}
	.st87{fill:url(#SVGID_88_);}
	.st88{fill:url(#SVGID_89_);}
	.st89{fill:url(#SVGID_90_);}
	.st90{fill:url(#SVGID_91_);}
	.st91{fill:url(#SVGID_92_);}
	.st92{fill:url(#SVGID_93_);}
	.st93{fill:url(#SVGID_94_);}
	.st94{fill:url(#SVGID_95_);}
	.st95{fill:url(#SVGID_96_);}
	.st96{fill:url(#SVGID_97_);}
	.st97{fill:url(#SVGID_98_);}
	.st98{fill:url(#SVGID_99_);}
	.st99{fill:url(#SVGID_100_);}
	.st100{fill:url(#SVGID_101_);}
	.st101{fill:url(#SVGID_102_);}
	.st102{fill:url(#SVGID_103_);}
	.st103{fill:url(#SVGID_104_);}
	.st104{fill:url(#SVGID_105_);}
	.st105{fill:url(#SVGID_106_);}
	.st106{fill:url(#SVGID_107_);}
	.st107{fill:url(#SVGID_108_);}
	.st108{fill:url(#SVGID_109_);}
	.st109{fill:url(#SVGID_110_);}
	.st110{fill:url(#SVGID_111_);}
	.st111{fill:url(#SVGID_112_);}
	.st112{fill:none;}
	.st113{fill:url(#SVGID_113_);}
	.st114{fill:url(#SVGID_114_);}
	.st115{fill:none;stroke:url(#SVGID_115_);stroke-width:3;stroke-linecap:round;stroke-miterlimit:10;}
</style>
<g>
	
		<linearGradient id="SVGID_1_" gradientUnits="userSpaceOnUse" x1="123.8" y1="-82.7" x2="123.8" y2="-82.7" gradientTransform="matrix(1 0 0 1 0 118)">
		<stop  offset="0" style="stop-color:#B280B8"/>
		<stop  offset="1" style="stop-color:#8A4F9E"/>
	</linearGradient>
	<polygon class="st0" points="123.8,35.3 123.8,35.3 123.8,35.3 	"/>
	
		<linearGradient id="SVGID_2_" gradientUnits="userSpaceOnUse" x1="123.8" y1="-82.7" x2="123.8" y2="-82.7" gradientTransform="matrix(1 0 0 1 0 118)">
		<stop  offset="0" style="stop-color:#B280B8"/>
		<stop  offset="1" style="stop-color:#8A4F9E"/>
	</linearGradient>
	<path class="st1" d="M123.8,35.3L123.8,35.3L123.8,35.3z"/>
	
		<linearGradient id="SVGID_3_" gradientUnits="userSpaceOnUse" x1="122.6" y1="-67.1" x2="122.7" y2="-67.1" gradientTransform="matrix(1 0 0 1 0 118)">
		<stop  offset="0" style="stop-color:#B280B8"/>
		<stop  offset="1" style="stop-color:#8A4F9E"/>
	</linearGradient>
	<polygon class="st2" points="122.7,50.9 122.6,50.9 122.6,50.9 	"/>
	
		<linearGradient id="SVGID_4_" gradientUnits="userSpaceOnUse" x1="123.8" y1="-82.7" x2="123.8" y2="-82.7" gradientTransform="matrix(1 0 0 1 0 118)">
		<stop  offset="0" style="stop-color:#B280B8"/>
		<stop  offset="1" style="stop-color:#8A4F9E"/>
	</linearGradient>
	<polygon class="st3" points="123.8,35.3 123.8,35.3 123.8,35.3 	"/>
	
		<linearGradient id="SVGID_5_" gradientUnits="userSpaceOnUse" x1="127.8" y1="-80" x2="127.8" y2="-80" gradientTransform="matrix(1 0 0 1 0 118)">
		<stop  offset="0" style="stop-color:#B280B8"/>
		<stop  offset="1" style="stop-color:#8A4F9E"/>
	</linearGradient>
	<path class="st4" d="M127.8,38L127.8,38L127.8,38z"/>
	
		<linearGradient id="SVGID_6_" gradientUnits="userSpaceOnUse" x1="123.7" y1="-82.5" x2="123.7" y2="-82.5" gradientTransform="matrix(1 0 0 1 0 118)">
		<stop  offset="0" style="stop-color:#B280B8"/>
		<stop  offset="1" style="stop-color:#8A4F9E"/>
	</linearGradient>
	<path class="st5" d="M123.7,35.5L123.7,35.5L123.7,35.5z"/>
	
		<linearGradient id="SVGID_7_" gradientUnits="userSpaceOnUse" x1="123.7" y1="-82.5" x2="123.7" y2="-82.5" gradientTransform="matrix(1 0 0 1 0 118)">
		<stop  offset="0" style="stop-color:#B280B8"/>
		<stop  offset="1" style="stop-color:#8A4F9E"/>
	</linearGradient>
	<path class="st6" d="M123.7,35.5L123.7,35.5L123.7,35.5z"/>
	
		<linearGradient id="SVGID_8_" gradientUnits="userSpaceOnUse" x1="122.4" y1="-66.4" x2="122.4" y2="-66.4" gradientTransform="matrix(1 0 0 1 0 118)">
		<stop  offset="0" style="stop-color:#B280B8"/>
		<stop  offset="1" style="stop-color:#8A4F9E"/>
	</linearGradient>
	<circle class="st7" cx="122.4" cy="51.6" r="0"/>
	
		<linearGradient id="SVGID_9_" gradientUnits="userSpaceOnUse" x1="122.6" y1="-66.7" x2="122.6" y2="-66.7" gradientTransform="matrix(1 0 0 1 0 118)">
		<stop  offset="0" style="stop-color:#B280B8"/>
		<stop  offset="1" style="stop-color:#8A4F9E"/>
	</linearGradient>
	<path class="st8" d="M122.6,51.3L122.6,51.3L122.6,51.3z"/>
	
		<linearGradient id="SVGID_10_" gradientUnits="userSpaceOnUse" x1="144.3" y1="-42.5" x2="144.3" y2="-42.5" gradientTransform="matrix(1 0 0 1 0 118)">
		<stop  offset="0" style="stop-color:#B280B8"/>
		<stop  offset="1" style="stop-color:#8A4F9E"/>
	</linearGradient>
	<path class="st9" d="M144.3,75.5L144.3,75.5L144.3,75.5L144.3,75.5L144.3,75.5z"/>
	
		<linearGradient id="SVGID_11_" gradientUnits="userSpaceOnUse" x1="145" y1="-42.6" x2="145" y2="-42.6" gradientTransform="matrix(1 0 0 1 0 118)">
		<stop  offset="0" style="stop-color:#B280B8"/>
		<stop  offset="1" style="stop-color:#8A4F9E"/>
	</linearGradient>
	<path class="st10" d="M145,75.4L145,75.4L145,75.4L145,75.4z"/>
	
		<linearGradient id="SVGID_12_" gradientUnits="userSpaceOnUse" x1="119.65" y1="90.8" x2="119.65" y2="-101.9615" gradientTransform="matrix(1 0 0 1 0 118)">
		<stop  offset="0" style="stop-color:#B280B8"/>
		<stop  offset="1" style="stop-color:#8A4F9E"/>
	</linearGradient>
	<path class="st11" d="M119.2,53.6c0.3-0.1,0.6-0.2,0.9-0.3l0,0C119.9,53.4,119.6,53.5,119.2,53.6z"/>
	
		<linearGradient id="SVGID_13_" gradientUnits="userSpaceOnUse" x1="120.45" y1="90.8" x2="120.45" y2="-101.9615" gradientTransform="matrix(1 0 0 1 0 118)">
		<stop  offset="0" style="stop-color:#B280B8"/>
		<stop  offset="1" style="stop-color:#8A4F9E"/>
	</linearGradient>
	<path class="st12" d="M120.6,53.1L120.6,53.1c-0.1,0-0.2,0.1-0.3,0.1C120.4,53.2,120.5,53.1,120.6,53.1L120.6,53.1z"/>
	
		<linearGradient id="SVGID_14_" gradientUnits="userSpaceOnUse" x1="120.9" y1="90.8" x2="120.9" y2="-101.9615" gradientTransform="matrix(1 0 0 1 0 118)">
		<stop  offset="0" style="stop-color:#B280B8"/>
		<stop  offset="1" style="stop-color:#8A4F9E"/>
	</linearGradient>
	<path class="st13" d="M121,52.9c-0.1,0-0.2,0.1-0.2,0.1S120.9,52.9,121,52.9L121,52.9L121,52.9z"/>
	
		<linearGradient id="SVGID_15_" gradientUnits="userSpaceOnUse" x1="91.2" y1="-47.6" x2="91.2" y2="-47.6" gradientTransform="matrix(1 0 0 1 0 118)">
		<stop  offset="0" style="stop-color:#B280B8"/>
		<stop  offset="1" style="stop-color:#8A4F9E"/>
	</linearGradient>
	<polygon class="st14" points="91.2,70.4 91.2,70.4 91.2,70.4 	"/>
	
		<linearGradient id="SVGID_16_" gradientUnits="userSpaceOnUse" x1="91.3" y1="-45.1" x2="91.3" y2="-45.1" gradientTransform="matrix(1 0 0 1 0 118)">
		<stop  offset="0" style="stop-color:#B280B8"/>
		<stop  offset="1" style="stop-color:#8A4F9E"/>
	</linearGradient>
	<path class="st15" d="M91.3,72.9L91.3,72.9L91.3,72.9z"/>
	
		<linearGradient id="SVGID_17_" gradientUnits="userSpaceOnUse" x1="111.8" y1="90.8" x2="111.8" y2="-101.9615" gradientTransform="matrix(1 0 0 1 0 118)">
		<stop  offset="0" style="stop-color:#B280B8"/>
		<stop  offset="1" style="stop-color:#8A4F9E"/>
	</linearGradient>
	<path class="st16" d="M111.8,61.7C111.8,61.8,111.8,61.8,111.8,61.7L111.8,61.7L111.8,61.7C111.8,61.8,111.8,61.8,111.8,61.7z"/>
	
		<linearGradient id="SVGID_18_" gradientUnits="userSpaceOnUse" x1="104.5" y1="-50.1" x2="104.5" y2="-50.1" gradientTransform="matrix(1 0 0 1 0 118)">
		<stop  offset="0" style="stop-color:#B280B8"/>
		<stop  offset="1" style="stop-color:#8A4F9E"/>
	</linearGradient>
	<path class="st17" d="M104.5,67.9L104.5,67.9L104.5,67.9z"/>
	
		<linearGradient id="SVGID_19_" gradientUnits="userSpaceOnUse" x1="111.9375" y1="90.8" x2="111.9375" y2="-101.9615" gradientTransform="matrix(1 0 0 1 0 118)">
		<stop  offset="0" style="stop-color:#B280B8"/>
		<stop  offset="1" style="stop-color:#8A4F9E"/>
	</linearGradient>
	<path class="st18" d="M111.9,61.4C111.9,61.4,111.9,61.3,111.9,61.4C112,61.4,112,61.4,111.9,61.4L111.9,61.4z"/>
	
		<linearGradient id="SVGID_20_" gradientUnits="userSpaceOnUse" x1="103.5" y1="-50.6" x2="103.5" y2="-50.6" gradientTransform="matrix(1 0 0 1 0 118)">
		<stop  offset="0" style="stop-color:#B280B8"/>
		<stop  offset="1" style="stop-color:#8A4F9E"/>
	</linearGradient>
	<path class="st19" d="M103.5,67.4L103.5,67.4L103.5,67.4L103.5,67.4z"/>
	
		<linearGradient id="SVGID_21_" gradientUnits="userSpaceOnUse" x1="111.9" y1="-54.6" x2="111.9" y2="-54.6" gradientTransform="matrix(1 0 0 1 0 118)">
		<stop  offset="0" style="stop-color:#B280B8"/>
		<stop  offset="1" style="stop-color:#8A4F9E"/>
	</linearGradient>
	<path class="st20" d="M111.9,63.4L111.9,63.4L111.9,63.4z"/>
	
		<linearGradient id="SVGID_22_" gradientUnits="userSpaceOnUse" x1="93.3" y1="90.8" x2="93.3" y2="-101.9615" gradientTransform="matrix(1 0 0 1 0 118)">
		<stop  offset="0" style="stop-color:#B280B8"/>
		<stop  offset="1" style="stop-color:#8A4F9E"/>
	</linearGradient>
	<path class="st21" d="M93.3,74.5C93.3,74.5,93.3,74.4,93.3,74.5C93.3,74.4,93.3,74.5,93.3,74.5L93.3,74.5z"/>
	
		<linearGradient id="SVGID_23_" gradientUnits="userSpaceOnUse" x1="89.8" y1="-69.1" x2="89.8" y2="-69.1" gradientTransform="matrix(1 0 0 1 0 118)">
		<stop  offset="0" style="stop-color:#B280B8"/>
		<stop  offset="1" style="stop-color:#8A4F9E"/>
	</linearGradient>
	<path class="st22" d="M89.8,48.9L89.8,48.9L89.8,48.9z"/>
	
		<linearGradient id="SVGID_24_" gradientUnits="userSpaceOnUse" x1="109.8" y1="-67.7" x2="109.8" y2="-67.7" gradientTransform="matrix(1 0 0 1 0 118)">
		<stop  offset="0" style="stop-color:#B280B8"/>
		<stop  offset="1" style="stop-color:#8A4F9E"/>
	</linearGradient>
	<path class="st23" d="M109.8,50.3L109.8,50.3L109.8,50.3z"/>
	
		<linearGradient id="SVGID_25_" gradientUnits="userSpaceOnUse" x1="96" y1="-73.1" x2="96" y2="-73.1" gradientTransform="matrix(1 0 0 1 0 118)">
		<stop  offset="0" style="stop-color:#B280B8"/>
		<stop  offset="1" style="stop-color:#8A4F9E"/>
	</linearGradient>
	<path class="st24" d="M96,44.9L96,44.9L96,44.9z"/>
	
		<linearGradient id="SVGID_26_" gradientUnits="userSpaceOnUse" x1="91.2" y1="-47.6" x2="91.2" y2="-47.6" gradientTransform="matrix(1 0 0 1 0 118)">
		<stop  offset="0" style="stop-color:#B280B8"/>
		<stop  offset="1" style="stop-color:#8A4F9E"/>
	</linearGradient>
	<path class="st25" d="M91.2,70.4L91.2,70.4L91.2,70.4z"/>
	
		<linearGradient id="SVGID_27_" gradientUnits="userSpaceOnUse" x1="152.3" y1="90.8" x2="152.3" y2="-101.9615" gradientTransform="matrix(1 0 0 1 0 118)">
		<stop  offset="0" style="stop-color:#B280B8"/>
		<stop  offset="1" style="stop-color:#8A4F9E"/>
	</linearGradient>
	<path class="st26" d="M152.2,59c0.1,0.1,0.1,0.2,0.2,0.2l0,0C152.3,59.1,152.2,59,152.2,59L152.2,59z"/>
	
		<linearGradient id="SVGID_28_" gradientUnits="userSpaceOnUse" x1="91.1" y1="-45.3" x2="91.1" y2="-45.3" gradientTransform="matrix(1 0 0 1 0 118)">
		<stop  offset="0" style="stop-color:#B280B8"/>
		<stop  offset="1" style="stop-color:#8A4F9E"/>
	</linearGradient>
	<path class="st27" d="M91.1,72.7L91.1,72.7L91.1,72.7z"/>
	
		<linearGradient id="SVGID_29_" gradientUnits="userSpaceOnUse" x1="91.2" y1="-77.1" x2="91.2" y2="-77.1" gradientTransform="matrix(1 0 0 1 0 118)">
		<stop  offset="0" style="stop-color:#B280B8"/>
		<stop  offset="1" style="stop-color:#8A4F9E"/>
	</linearGradient>
	<path class="st28" d="M91.2,40.9L91.2,40.9L91.2,40.9L91.2,40.9z"/>
	
		<linearGradient id="SVGID_30_" gradientUnits="userSpaceOnUse" x1="10.7" y1="90.8004" x2="10.7" y2="-101.9611" gradientTransform="matrix(1 0 0 1 0 118)">
		<stop  offset="0" style="stop-color:#B280B8"/>
		<stop  offset="1" style="stop-color:#8A4F9E"/>
	</linearGradient>
	<path class="st29" d="M10.9,110.4L10.9,110.4L10.9,110.4c-0.2-0.1-0.3-0.2-0.4-0.4C10.6,110.2,10.8,110.3,10.9,110.4z"/>
	
		<linearGradient id="SVGID_31_" gradientUnits="userSpaceOnUse" x1="10" y1="90.8" x2="10" y2="-101.9615" gradientTransform="matrix(1 0 0 1 0 118)">
		<stop  offset="0" style="stop-color:#B280B8"/>
		<stop  offset="1" style="stop-color:#8A4F9E"/>
	</linearGradient>
	<path class="st30" d="M10,109.4L10,109.4C10,109.5,10,109.5,10,109.4C10,109.5,10,109.5,10,109.4L10,109.4z"/>
	
		<linearGradient id="SVGID_32_" gradientUnits="userSpaceOnUse" x1="83.8" y1="-20.2" x2="83.8" y2="-20.2" gradientTransform="matrix(1 0 0 1 0 118)">
		<stop  offset="0" style="stop-color:#B280B8"/>
		<stop  offset="1" style="stop-color:#8A4F9E"/>
	</linearGradient>
	<path class="st31" d="M83.8,97.8L83.8,97.8L83.8,97.8z"/>
	
		<linearGradient id="SVGID_33_" gradientUnits="userSpaceOnUse" x1="13.2" y1="-6.6" x2="13.4" y2="-6.6" gradientTransform="matrix(1 0 0 1 0 118)">
		<stop  offset="0" style="stop-color:#B280B8"/>
		<stop  offset="1" style="stop-color:#8A4F9E"/>
	</linearGradient>
	<path class="st32" d="M13.2,111.4L13.2,111.4c0.1,0,0.1,0,0.2,0C13.3,111.4,13.3,111.4,13.2,111.4L13.2,111.4z"/>
	
		<linearGradient id="SVGID_34_" gradientUnits="userSpaceOnUse" x1="171.85" y1="90.8" x2="171.85" y2="-101.9615" gradientTransform="matrix(1 0 0 1 0 118)">
		<stop  offset="0" style="stop-color:#B280B8"/>
		<stop  offset="1" style="stop-color:#8A4F9E"/>
	</linearGradient>
	<path class="st33" d="M172.4,152.8L172.4,152.8c-0.3,0-0.7,0-1.1-0.1C171.7,152.7,172.1,152.8,172.4,152.8L172.4,152.8z"/>
	
		<linearGradient id="SVGID_35_" gradientUnits="userSpaceOnUse" x1="13.8" y1="-6.5" x2="14.1" y2="-6.5" gradientTransform="matrix(1 0 0 1 0 118)">
		<stop  offset="0" style="stop-color:#B280B8"/>
		<stop  offset="1" style="stop-color:#8A4F9E"/>
	</linearGradient>
	<path class="st34" d="M14.1,111.5c-0.1,0-0.2,0-0.3,0C13.9,111.5,14,111.5,14.1,111.5L14.1,111.5z"/>
	
		<linearGradient id="SVGID_36_" gradientUnits="userSpaceOnUse" x1="14.0375" y1="-6.5" x2="14.0376" y2="-6.5" gradientTransform="matrix(1 0 0 1 0 118)">
		<stop  offset="0" style="stop-color:#B280B8"/>
		<stop  offset="1" style="stop-color:#8A4F9E"/>
	</linearGradient>
	<path class="st35" d="M14,111.5L14,111.5L14,111.5C14.1,111.5,14.1,111.5,14,111.5C14.1,111.5,14.1,111.5,14,111.5z"/>
	
		<linearGradient id="SVGID_37_" gradientUnits="userSpaceOnUse" x1="72.1" y1="-60.2" x2="72.1" y2="-60.2" gradientTransform="matrix(1 0 0 1 0 118)">
		<stop  offset="0" style="stop-color:#B280B8"/>
		<stop  offset="1" style="stop-color:#8A4F9E"/>
	</linearGradient>
	<path class="st36" d="M72.1,57.8L72.1,57.8L72.1,57.8L72.1,57.8z"/>
	
		<linearGradient id="SVGID_38_" gradientUnits="userSpaceOnUse" x1="200.25" y1="90.8" x2="200.25" y2="-101.9615" gradientTransform="matrix(1 0 0 1 0 118)">
		<stop  offset="0" style="stop-color:#B280B8"/>
		<stop  offset="1" style="stop-color:#8A4F9E"/>
	</linearGradient>
	<path class="st37" d="M200.3,35.2l-0.1-0.1L200.3,35.2z"/>
	
		<linearGradient id="SVGID_39_" gradientUnits="userSpaceOnUse" x1="73.6" y1="-59.8" x2="73.6" y2="-59.8" gradientTransform="matrix(1 0 0 1 0 118)">
		<stop  offset="0" style="stop-color:#B280B8"/>
		<stop  offset="1" style="stop-color:#8A4F9E"/>
	</linearGradient>
	<path class="st38" d="M73.6,58.2L73.6,58.2L73.6,58.2L73.6,58.2L73.6,58.2z"/>
	
		<linearGradient id="SVGID_40_" gradientUnits="userSpaceOnUse" x1="198.35" y1="90.8" x2="198.35" y2="-101.9615" gradientTransform="matrix(1 0 0 1 0 118)">
		<stop  offset="0" style="stop-color:#B280B8"/>
		<stop  offset="1" style="stop-color:#8A4F9E"/>
	</linearGradient>
	<path class="st39" d="M198.4,30.7c0,0.1-0.1,0.1-0.1,0.2l0,0C198.4,30.8,198.4,30.8,198.4,30.7z"/>
	
		<linearGradient id="SVGID_41_" gradientUnits="userSpaceOnUse" x1="184.7" y1="-9.1" x2="184.7" y2="-9.1" gradientTransform="matrix(1 0 0 1 0 118)">
		<stop  offset="0" style="stop-color:#B280B8"/>
		<stop  offset="1" style="stop-color:#8A4F9E"/>
	</linearGradient>
	<path class="st40" d="M184.7,108.9L184.7,108.9L184.7,108.9L184.7,108.9z"/>
	
		<linearGradient id="SVGID_42_" gradientUnits="userSpaceOnUse" x1="69.9" y1="-30.2804" x2="69.9" y2="-66.4133" gradientTransform="matrix(1 0 0 1 0 118)">
		<stop  offset="0" style="stop-color:#B280B8"/>
		<stop  offset="1" style="stop-color:#8A4F9E"/>
	</linearGradient>
	<path class="st41" d="M69.9,69.7L69.9,69.7L69.9,69.7z"/>
	
		<linearGradient id="SVGID_43_" gradientUnits="userSpaceOnUse" x1="197.65" y1="90.8" x2="197.65" y2="-101.9615" gradientTransform="matrix(1 0 0 1 0 118)">
		<stop  offset="0" style="stop-color:#B280B8"/>
		<stop  offset="1" style="stop-color:#8A4F9E"/>
	</linearGradient>
	<path class="st42" d="M197.7,31.4L197.7,31.4l-0.1,0.1C197.6,31.4,197.7,31.4,197.7,31.4L197.7,31.4z"/>
	
		<linearGradient id="SVGID_44_" gradientUnits="userSpaceOnUse" x1="148.3" y1="-68.8" x2="148.3" y2="-68.8" gradientTransform="matrix(1 0 0 1 0 118)">
		<stop  offset="0" style="stop-color:#B280B8"/>
		<stop  offset="1" style="stop-color:#8A4F9E"/>
	</linearGradient>
	<path class="st43" d="M148.3,49.2L148.3,49.2L148.3,49.2z"/>
	
		<linearGradient id="SVGID_45_" gradientUnits="userSpaceOnUse" x1="152.7" y1="-58.5" x2="152.7" y2="-58.5" gradientTransform="matrix(1 0 0 1 0 118)">
		<stop  offset="0" style="stop-color:#B280B8"/>
		<stop  offset="1" style="stop-color:#8A4F9E"/>
	</linearGradient>
	<path class="st44" d="M152.7,59.5L152.7,59.5L152.7,59.5z"/>
	
		<linearGradient id="SVGID_46_" gradientUnits="userSpaceOnUse" x1="152.1" y1="-67.8" x2="152.1" y2="-67.8" gradientTransform="matrix(1 0 0 1 0 118)">
		<stop  offset="0" style="stop-color:#B280B8"/>
		<stop  offset="1" style="stop-color:#8A4F9E"/>
	</linearGradient>
	<path class="st45" d="M152.1,50.2L152.1,50.2L152.1,50.2L152.1,50.2L152.1,50.2L152.1,50.2L152.1,50.2z"/>
	
		<linearGradient id="SVGID_47_" gradientUnits="userSpaceOnUse" x1="134.6" y1="-71" x2="134.8" y2="-71" gradientTransform="matrix(1 0 0 1 0 118)">
		<stop  offset="0" style="stop-color:#B280B8"/>
		<stop  offset="1" style="stop-color:#8A4F9E"/>
	</linearGradient>
	<path class="st46" d="M134.8,47c-0.1,0-0.1,0-0.2,0l0,0l0,0C134.6,47,134.7,47,134.8,47z"/>
	
		<linearGradient id="SVGID_48_" gradientUnits="userSpaceOnUse" x1="131.9" y1="-76.5" x2="131.9" y2="-76.5" gradientTransform="matrix(1 0 0 1 0 118)">
		<stop  offset="0" style="stop-color:#B280B8"/>
		<stop  offset="1" style="stop-color:#8A4F9E"/>
	</linearGradient>
	<circle class="st47" cx="131.9" cy="41.5" r="0"/>
	
		<linearGradient id="SVGID_49_" gradientUnits="userSpaceOnUse" x1="130.8" y1="-76.3" x2="130.8" y2="-76.3" gradientTransform="matrix(1 0 0 1 0 118)">
		<stop  offset="0" style="stop-color:#B280B8"/>
		<stop  offset="1" style="stop-color:#8A4F9E"/>
	</linearGradient>
	<path class="st48" d="M130.8,41.7L130.8,41.7L130.8,41.7L130.8,41.7z"/>
	
		<linearGradient id="SVGID_50_" gradientUnits="userSpaceOnUse" x1="191.7" y1="-39.1" x2="192.5" y2="-39.1" gradientTransform="matrix(1 0 0 1 0 118)">
		<stop  offset="0" style="stop-color:#B280B8"/>
		<stop  offset="1" style="stop-color:#8A4F9E"/>
	</linearGradient>
	<path class="st49" d="M192.5,78.9c-0.2,0-0.5,0-0.8,0C192,78.9,192.2,78.9,192.5,78.9L192.5,78.9z"/>
	
		<linearGradient id="SVGID_51_" gradientUnits="userSpaceOnUse" x1="226.9" y1="-76.1" x2="226.9" y2="-76.1" gradientTransform="matrix(1 0 0 1 0 118)">
		<stop  offset="0" style="stop-color:#B280B8"/>
		<stop  offset="1" style="stop-color:#8A4F9E"/>
	</linearGradient>
	<path class="st50" d="M226.9,41.9L226.9,41.9L226.9,41.9z"/>
	
		<linearGradient id="SVGID_52_" gradientUnits="userSpaceOnUse" x1="187.5" y1="-89" x2="187.5" y2="-89" gradientTransform="matrix(1 0 0 1 0 118)">
		<stop  offset="0" style="stop-color:#B280B8"/>
		<stop  offset="1" style="stop-color:#8A4F9E"/>
	</linearGradient>
	<path class="st51" d="M187.5,29L187.5,29L187.5,29L187.5,29L187.5,29z"/>
	
		<linearGradient id="SVGID_53_" gradientUnits="userSpaceOnUse" x1="227.2" y1="-76.5" x2="227.2" y2="-76.5" gradientTransform="matrix(1 0 0 1 0 118)">
		<stop  offset="0" style="stop-color:#B280B8"/>
		<stop  offset="1" style="stop-color:#8A4F9E"/>
	</linearGradient>
	<path class="st52" d="M227.2,41.5L227.2,41.5L227.2,41.5z"/>
	
		<linearGradient id="SVGID_54_" gradientUnits="userSpaceOnUse" x1="181.8" y1="-75.4" x2="181.8" y2="-75.4" gradientTransform="matrix(1 0 0 1 0 118)">
		<stop  offset="0" style="stop-color:#B280B8"/>
		<stop  offset="1" style="stop-color:#8A4F9E"/>
	</linearGradient>
	<path class="st53" d="M181.8,42.6L181.8,42.6L181.8,42.6z"/>
	
		<linearGradient id="SVGID_55_" gradientUnits="userSpaceOnUse" x1="181.6" y1="-74.9" x2="181.6" y2="-74.9" gradientTransform="matrix(1 0 0 1 0 118)">
		<stop  offset="0" style="stop-color:#B280B8"/>
		<stop  offset="1" style="stop-color:#8A4F9E"/>
	</linearGradient>
	<path class="st54" d="M181.6,43.1L181.6,43.1L181.6,43.1z"/>
	
		<linearGradient id="SVGID_56_" gradientUnits="userSpaceOnUse" x1="179.9" y1="-29.9" x2="179.9" y2="-29.9" gradientTransform="matrix(1 0 0 1 0 118)">
		<stop  offset="0" style="stop-color:#B280B8"/>
		<stop  offset="1" style="stop-color:#8A4F9E"/>
	</linearGradient>
	<path class="st55" d="M179.9,88.1L179.9,88.1L179.9,88.1z"/>
	
		<linearGradient id="SVGID_57_" gradientUnits="userSpaceOnUse" x1="181.3" y1="-32.1" x2="181.3" y2="-32.1" gradientTransform="matrix(1 0 0 1 0 118)">
		<stop  offset="0" style="stop-color:#B280B8"/>
		<stop  offset="1" style="stop-color:#8A4F9E"/>
	</linearGradient>
	<path class="st56" d="M181.3,85.9L181.3,85.9L181.3,85.9z"/>
	
		<linearGradient id="SVGID_58_" gradientUnits="userSpaceOnUse" x1="168.1" y1="5" x2="168.1" y2="5" gradientTransform="matrix(1 0 0 1 0 118)">
		<stop  offset="0" style="stop-color:#B280B8"/>
		<stop  offset="1" style="stop-color:#8A4F9E"/>
	</linearGradient>
	<path class="st57" d="M168.1,123L168.1,123L168.1,123z"/>
	
		<linearGradient id="SVGID_59_" gradientUnits="userSpaceOnUse" x1="174.9" y1="-58.4" x2="174.9" y2="-58.4" gradientTransform="matrix(1 0 0 1 0 118)">
		<stop  offset="0" style="stop-color:#B280B8"/>
		<stop  offset="1" style="stop-color:#8A4F9E"/>
	</linearGradient>
	<circle class="st58" cx="174.9" cy="59.6" r="0"/>
	
		<linearGradient id="SVGID_60_" gradientUnits="userSpaceOnUse" x1="95" y1="40.6" x2="95" y2="40.6" gradientTransform="matrix(1 0 0 1 0 118)">
		<stop  offset="0" style="stop-color:#B280B8"/>
		<stop  offset="1" style="stop-color:#8A4F9E"/>
	</linearGradient>
	<circle class="st59" cx="95" cy="158.6" r="0"/>
	
		<linearGradient id="SVGID_61_" gradientUnits="userSpaceOnUse" x1="164.9" y1="90.8" x2="164.9" y2="-101.9615" gradientTransform="matrix(1 0 0 1 0 118)">
		<stop  offset="0" style="stop-color:#B280B8"/>
		<stop  offset="1" style="stop-color:#8A4F9E"/>
	</linearGradient>
	<path class="st60" d="M165,150.6c0.1,0.1,0.2,0.1,0.2,0.2l0,0c-0.2-0.1-0.4-0.2-0.6-0.4C164.8,150.4,164.9,150.5,165,150.6z"/>
	
		<linearGradient id="SVGID_62_" gradientUnits="userSpaceOnUse" x1="69.4" y1="74.2" x2="69.4" y2="74.2" gradientTransform="matrix(1 0 0 1 0 118)">
		<stop  offset="0" style="stop-color:#B280B8"/>
		<stop  offset="1" style="stop-color:#8A4F9E"/>
	</linearGradient>
	<path class="st61" d="M69.4,192.2L69.4,192.2L69.4,192.2z"/>
	
		<linearGradient id="SVGID_63_" gradientUnits="userSpaceOnUse" x1="58.2" y1="61.3" x2="58.2" y2="61.3" gradientTransform="matrix(1 0 0 1 0 118)">
		<stop  offset="0" style="stop-color:#B280B8"/>
		<stop  offset="1" style="stop-color:#8A4F9E"/>
	</linearGradient>
	<path class="st62" d="M58.2,179.3L58.2,179.3L58.2,179.3z"/>
	
		<linearGradient id="SVGID_64_" gradientUnits="userSpaceOnUse" x1="219.6625" y1="-57.6" x2="219.6626" y2="-57.6" gradientTransform="matrix(1 0 0 1 0 118)">
		<stop  offset="0" style="stop-color:#B280B8"/>
		<stop  offset="1" style="stop-color:#8A4F9E"/>
	</linearGradient>
	<path class="st63" d="M219.7,60.4C219.6,60.4,219.6,60.4,219.7,60.4C219.6,60.4,219.6,60.4,219.7,60.4L219.7,60.4L219.7,60.4z"/>
	
		<linearGradient id="SVGID_65_" gradientUnits="userSpaceOnUse" x1="93.3375" y1="-43.5" x2="93.3376" y2="-43.5" gradientTransform="matrix(1 0 0 1 0 118)">
		<stop  offset="0" style="stop-color:#B280B8"/>
		<stop  offset="1" style="stop-color:#8A4F9E"/>
	</linearGradient>
	<path class="st64" d="M93.3,74.5C93.3,74.5,93.4,74.5,93.3,74.5C93.4,74.5,93.4,74.5,93.3,74.5C93.4,74.5,93.4,74.5,93.3,74.5
		L93.3,74.5z"/>
	
		<linearGradient id="SVGID_66_" gradientUnits="userSpaceOnUse" x1="141.9" y1="58.8" x2="142.2" y2="58.8" gradientTransform="matrix(1 0 0 1 0 118)">
		<stop  offset="0" style="stop-color:#B280B8"/>
		<stop  offset="1" style="stop-color:#8A4F9E"/>
	</linearGradient>
	<path class="st65" d="M141.9,176.8c0.1,0,0.2,0,0.3,0C142.1,176.8,142,176.8,141.9,176.8L141.9,176.8z"/>
	
		<linearGradient id="SVGID_67_" gradientUnits="userSpaceOnUse" x1="233.2" y1="-65.2" x2="233.2" y2="-65.2" gradientTransform="matrix(1 0 0 1 0 118)">
		<stop  offset="0" style="stop-color:#B280B8"/>
		<stop  offset="1" style="stop-color:#8A4F9E"/>
	</linearGradient>
	<path class="st66" d="M233.2,52.8L233.2,52.8L233.2,52.8L233.2,52.8z"/>
	
		<linearGradient id="SVGID_68_" gradientUnits="userSpaceOnUse" x1="49.9" y1="11.3" x2="49.9" y2="11.3" gradientTransform="matrix(1 0 0 1 0 118)">
		<stop  offset="0" style="stop-color:#B280B8"/>
		<stop  offset="1" style="stop-color:#8A4F9E"/>
	</linearGradient>
	<path class="st67" d="M49.9,129.3L49.9,129.3L49.9,129.3z"/>
	
		<linearGradient id="SVGID_69_" gradientUnits="userSpaceOnUse" x1="232.65" y1="-65.2" x2="232.6501" y2="-65.2" gradientTransform="matrix(1 0 0 1 0 118)">
		<stop  offset="0" style="stop-color:#B280B8"/>
		<stop  offset="1" style="stop-color:#8A4F9E"/>
	</linearGradient>
	<path class="st68" d="M232.6,52.8L232.6,52.8c0.1,0,0.1,0,0.1,0C232.7,52.8,232.7,52.8,232.6,52.8L232.6,52.8z"/>
	
		<linearGradient id="SVGID_70_" gradientUnits="userSpaceOnUse" x1="219.7" y1="-57.6" x2="219.7" y2="-57.6" gradientTransform="matrix(1 0 0 1 0 118)">
		<stop  offset="0" style="stop-color:#B280B8"/>
		<stop  offset="1" style="stop-color:#8A4F9E"/>
	</linearGradient>
	<path class="st69" d="M219.7,60.4L219.7,60.4L219.7,60.4L219.7,60.4z"/>
	
		<linearGradient id="SVGID_71_" gradientUnits="userSpaceOnUse" x1="234.4" y1="-65.2" x2="234.4" y2="-65.2" gradientTransform="matrix(1 0 0 1 0 118)">
		<stop  offset="0" style="stop-color:#B280B8"/>
		<stop  offset="1" style="stop-color:#8A4F9E"/>
	</linearGradient>
	<path class="st70" d="M234.4,52.8L234.4,52.8L234.4,52.8L234.4,52.8L234.4,52.8z"/>
	
		<linearGradient id="SVGID_72_" gradientUnits="userSpaceOnUse" x1="230.7" y1="90.8" x2="230.7" y2="-101.9615" gradientTransform="matrix(1 0 0 1 0 118)">
		<stop  offset="0" style="stop-color:#B280B8"/>
		<stop  offset="1" style="stop-color:#8A4F9E"/>
	</linearGradient>
	<path class="st71" d="M230.6,52.5c0.1,0,0.1,0,0.2,0C230.8,52.6,230.7,52.5,230.6,52.5L230.6,52.5z"/>
	
		<linearGradient id="SVGID_73_" gradientUnits="userSpaceOnUse" x1="238" y1="-66.6" x2="238" y2="-66.6" gradientTransform="matrix(1 0 0 1 0 118)">
		<stop  offset="0" style="stop-color:#B280B8"/>
		<stop  offset="1" style="stop-color:#8A4F9E"/>
	</linearGradient>
	<path class="st72" d="M238,51.4L238,51.4L238,51.4L238,51.4L238,51.4z"/>
	
		<linearGradient id="SVGID_74_" gradientUnits="userSpaceOnUse" x1="231.9375" y1="-65.3" x2="231.9376" y2="-65.3" gradientTransform="matrix(1 0 0 1 0 118)">
		<stop  offset="0" style="stop-color:#B280B8"/>
		<stop  offset="1" style="stop-color:#8A4F9E"/>
	</linearGradient>
	<path class="st73" d="M231.9,52.7L231.9,52.7C232,52.7,232,52.7,231.9,52.7C232,52.7,232,52.7,231.9,52.7L231.9,52.7z"/>
	
		<linearGradient id="SVGID_75_" gradientUnits="userSpaceOnUse" x1="221.7" y1="-57.5" x2="221.7" y2="-57.5" gradientTransform="matrix(1 0 0 1 0 118)">
		<stop  offset="0" style="stop-color:#B280B8"/>
		<stop  offset="1" style="stop-color:#8A4F9E"/>
	</linearGradient>
	<path class="st74" d="M221.7,60.5L221.7,60.5L221.7,60.5z"/>
	
		<linearGradient id="SVGID_76_" gradientUnits="userSpaceOnUse" x1="219.8" y1="-57.5" x2="220" y2="-57.5" gradientTransform="matrix(1 0 0 1 0 118)">
		<stop  offset="0" style="stop-color:#B280B8"/>
		<stop  offset="1" style="stop-color:#8A4F9E"/>
	</linearGradient>
	<path class="st75" d="M219.8,60.5c0.1,0,0.1,0,0.2,0C219.9,60.5,219.8,60.5,219.8,60.5L219.8,60.5z"/>
	
		<linearGradient id="SVGID_77_" gradientUnits="userSpaceOnUse" x1="221.75" y1="-57.5" x2="221.7501" y2="-57.5" gradientTransform="matrix(1 0 0 1 0 118)">
		<stop  offset="0" style="stop-color:#B280B8"/>
		<stop  offset="1" style="stop-color:#8A4F9E"/>
	</linearGradient>
	<path class="st76" d="M221.7,60.5h0.1l0,0C221.8,60.5,221.8,60.5,221.7,60.5C221.8,60.5,221.7,60.5,221.7,60.5z"/>
	
		<linearGradient id="SVGID_78_" gradientUnits="userSpaceOnUse" x1="227.5" y1="-66.4" x2="227.5" y2="-66.4" gradientTransform="matrix(1 0 0 1 0 118)">
		<stop  offset="0" style="stop-color:#B280B8"/>
		<stop  offset="1" style="stop-color:#8A4F9E"/>
	</linearGradient>
	<path class="st77" d="M227.5,51.6L227.5,51.6L227.5,51.6z"/>
	
		<linearGradient id="SVGID_79_" gradientUnits="userSpaceOnUse" x1="223.6222" y1="-57.7" x2="223.6223" y2="-57.7" gradientTransform="matrix(1 0 0 1 0 118)">
		<stop  offset="0" style="stop-color:#B280B8"/>
		<stop  offset="1" style="stop-color:#8A4F9E"/>
	</linearGradient>
	<path class="st78" d="M223.6,60.3C223.6,60.3,223.7,60.3,223.6,60.3C223.7,60.3,223.6,60.3,223.6,60.3L223.6,60.3z"/>
	
		<linearGradient id="SVGID_80_" gradientUnits="userSpaceOnUse" x1="124.2" y1="90.8" x2="124.2" y2="-101.9615" gradientTransform="matrix(1 0 0 1 0 118)">
		<stop  offset="0" style="stop-color:#B280B8"/>
		<stop  offset="1" style="stop-color:#8A4F9E"/>
	</linearGradient>
	<path class="st79" d="M124.6,96.6L124.6,96.6c-0.3,0-0.6,0-0.8-0.1C124.1,96.6,124.4,96.6,124.6,96.6z"/>
	
		<linearGradient id="SVGID_81_" gradientUnits="userSpaceOnUse" x1="106.3" y1="90.8" x2="106.3" y2="-101.9615" gradientTransform="matrix(1 0 0 1 0 118)">
		<stop  offset="0" style="stop-color:#B280B8"/>
		<stop  offset="1" style="stop-color:#8A4F9E"/>
	</linearGradient>
	<path class="st80" d="M106.6,133.8c-0.2,0.1-0.4,0.1-0.6,0.2C106.2,133.9,106.4,133.8,106.6,133.8L106.6,133.8z"/>
	
		<linearGradient id="SVGID_82_" gradientUnits="userSpaceOnUse" x1="123.5" y1="-21.5" x2="123.8" y2="-21.5" gradientTransform="matrix(1 0 0 1 0 118)">
		<stop  offset="0" style="stop-color:#B280B8"/>
		<stop  offset="1" style="stop-color:#8A4F9E"/>
	</linearGradient>
	<path class="st81" d="M123.8,96.5L123.8,96.5L123.8,96.5L123.8,96.5c-0.1,0-0.2,0-0.3,0C123.6,96.5,123.7,96.5,123.8,96.5z"/>
	
		<linearGradient id="SVGID_83_" gradientUnits="userSpaceOnUse" x1="107.9" y1="27.4" x2="107.9" y2="27.4" gradientTransform="matrix(1 0 0 1 0 118)">
		<stop  offset="0" style="stop-color:#B280B8"/>
		<stop  offset="1" style="stop-color:#8A4F9E"/>
	</linearGradient>
	<path class="st82" d="M107.9,145.4L107.9,145.4L107.9,145.4L107.9,145.4z"/>
	
		<linearGradient id="SVGID_84_" gradientUnits="userSpaceOnUse" x1="124.7" y1="-21.4" x2="125.5" y2="-21.4" gradientTransform="matrix(1 0 0 1 0 118)">
		<stop  offset="0" style="stop-color:#B280B8"/>
		<stop  offset="1" style="stop-color:#8A4F9E"/>
	</linearGradient>
	<path class="st83" d="M124.7,96.6c0.3,0,0.5,0,0.8,0C125.2,96.6,124.9,96.6,124.7,96.6L124.7,96.6z"/>
	
		<linearGradient id="SVGID_85_" gradientUnits="userSpaceOnUse" x1="107.9" y1="27.4" x2="107.9" y2="27.4" gradientTransform="matrix(1 0 0 1 0 118)">
		<stop  offset="0" style="stop-color:#B280B8"/>
		<stop  offset="1" style="stop-color:#8A4F9E"/>
	</linearGradient>
	<path class="st84" d="M107.9,145.4L107.9,145.4L107.9,145.4L107.9,145.4z"/>
	
		<linearGradient id="SVGID_86_" gradientUnits="userSpaceOnUse" x1="123.7" y1="-21.5" x2="123.7" y2="-21.5" gradientTransform="matrix(1 0 0 1 0 118)">
		<stop  offset="0" style="stop-color:#B280B8"/>
		<stop  offset="1" style="stop-color:#8A4F9E"/>
	</linearGradient>
	<path class="st85" d="M123.7,96.5L123.7,96.5L123.7,96.5L123.7,96.5z"/>
	
		<linearGradient id="SVGID_87_" gradientUnits="userSpaceOnUse" x1="101.35" y1="90.8" x2="101.35" y2="-101.9615" gradientTransform="matrix(1 0 0 1 0 118)">
		<stop  offset="0" style="stop-color:#B280B8"/>
		<stop  offset="1" style="stop-color:#8A4F9E"/>
	</linearGradient>
	<path class="st86" d="M101.2,90.8L101.2,90.8c0.1,0,0.2,0,0.3-0.1C101.4,90.7,101.3,90.8,101.2,90.8L101.2,90.8z"/>
	
		<linearGradient id="SVGID_88_" gradientUnits="userSpaceOnUse" x1="97.7" y1="90.8" x2="97.7" y2="-101.9615" gradientTransform="matrix(1 0 0 1 0 118)">
		<stop  offset="0" style="stop-color:#B280B8"/>
		<stop  offset="1" style="stop-color:#8A4F9E"/>
	</linearGradient>
	<path class="st87" d="M97.4,90.9c0.2,0,0.4,0,0.6,0C97.8,91,97.6,91,97.4,90.9L97.4,90.9z"/>
	
		<linearGradient id="SVGID_89_" gradientUnits="userSpaceOnUse" x1="122.9" y1="-21.6" x2="122.9" y2="-21.6" gradientTransform="matrix(1 0 0 1 0 118)">
		<stop  offset="0" style="stop-color:#B280B8"/>
		<stop  offset="1" style="stop-color:#8A4F9E"/>
	</linearGradient>
	<path class="st88" d="M122.9,96.4L122.9,96.4L122.9,96.4z"/>
	
		<linearGradient id="SVGID_90_" gradientUnits="userSpaceOnUse" x1="95.7" y1="-42.9" x2="96" y2="-42.9" gradientTransform="matrix(1 0 0 1 0 118)">
		<stop  offset="0" style="stop-color:#B280B8"/>
		<stop  offset="1" style="stop-color:#8A4F9E"/>
	</linearGradient>
	<path class="st89" d="M96,75.1L96,75.1c-0.1,0-0.2,0-0.3,0C95.9,75.1,96,75.1,96,75.1z"/>
	
		<linearGradient id="SVGID_91_" gradientUnits="userSpaceOnUse" x1="118.3" y1="-29" x2="118.3" y2="-29" gradientTransform="matrix(1 0 0 1 0 118)">
		<stop  offset="0" style="stop-color:#B280B8"/>
		<stop  offset="1" style="stop-color:#8A4F9E"/>
	</linearGradient>
	<path class="st90" d="M118.3,89L118.3,89L118.3,89z"/>
	
		<linearGradient id="SVGID_92_" gradientUnits="userSpaceOnUse" x1="121.4" y1="-22" x2="121.4" y2="-22" gradientTransform="matrix(1 0 0 1 0 118)">
		<stop  offset="0" style="stop-color:#B280B8"/>
		<stop  offset="1" style="stop-color:#8A4F9E"/>
	</linearGradient>
	<circle class="st91" cx="121.4" cy="96" r="0"/>
	
		<linearGradient id="SVGID_93_" gradientUnits="userSpaceOnUse" x1="66.3" y1="-20.8" x2="66.3" y2="-20.8" gradientTransform="matrix(1 0 0 1 0 118)">
		<stop  offset="0" style="stop-color:#B280B8"/>
		<stop  offset="1" style="stop-color:#8A4F9E"/>
	</linearGradient>
	<path class="st92" d="M66.3,97.2L66.3,97.2L66.3,97.2z"/>
	
		<linearGradient id="SVGID_94_" gradientUnits="userSpaceOnUse" x1="64.5" y1="-0.2" x2="64.5" y2="-0.2" gradientTransform="matrix(1 0 0 1 0 118)">
		<stop  offset="0" style="stop-color:#B280B8"/>
		<stop  offset="1" style="stop-color:#8A4F9E"/>
	</linearGradient>
	<path class="st93" d="M64.5,117.8L64.5,117.8L64.5,117.8z"/>
	
		<linearGradient id="SVGID_95_" gradientUnits="userSpaceOnUse" x1="29.1" y1="61.3" x2="29.1" y2="61.3" gradientTransform="matrix(1 0 0 1 0 118)">
		<stop  offset="0" style="stop-color:#B280B8"/>
		<stop  offset="1" style="stop-color:#8A4F9E"/>
	</linearGradient>
	<path class="st94" d="M29.1,179.3L29.1,179.3L29.1,179.3L29.1,179.3z"/>
	
		<linearGradient id="SVGID_96_" gradientUnits="userSpaceOnUse" x1="66.3" y1="7.1" x2="66.3" y2="7.1" gradientTransform="matrix(1 0 0 1 0 118)">
		<stop  offset="0" style="stop-color:#B280B8"/>
		<stop  offset="1" style="stop-color:#8A4F9E"/>
	</linearGradient>
	<path class="st95" d="M66.3,125.1L66.3,125.1L66.3,125.1z"/>
	
		<linearGradient id="SVGID_97_" gradientUnits="userSpaceOnUse" x1="28.2" y1="61.2" x2="28.5" y2="61.2" gradientTransform="matrix(1 0 0 1 0 118)">
		<stop  offset="0" style="stop-color:#B280B8"/>
		<stop  offset="1" style="stop-color:#8A4F9E"/>
	</linearGradient>
	<path class="st96" d="M28.2,179.2L28.2,179.2c0.1,0,0.2,0,0.3,0C28.4,179.2,28.3,179.2,28.2,179.2L28.2,179.2z"/>
	
		<linearGradient id="SVGID_98_" gradientUnits="userSpaceOnUse" x1="64" y1="90.8" x2="64" y2="-101.9615" gradientTransform="matrix(1 0 0 1 0 118)">
		<stop  offset="0" style="stop-color:#B280B8"/>
		<stop  offset="1" style="stop-color:#8A4F9E"/>
	</linearGradient>
	<path class="st97" d="M64.1,118.5c-0.1,0.2-0.1,0.3-0.2,0.5C64,118.9,64,118.7,64.1,118.5L64.1,118.5z"/>
	
		<linearGradient id="SVGID_99_" gradientUnits="userSpaceOnUse" x1="65.35" y1="90.8" x2="65.35" y2="-101.9615" gradientTransform="matrix(1 0 0 1 0 118)">
		<stop  offset="0" style="stop-color:#B280B8"/>
		<stop  offset="1" style="stop-color:#8A4F9E"/>
	</linearGradient>
	<path class="st98" d="M65.6,124.6c-0.2-0.1-0.3-0.3-0.5-0.4l0,0l0,0C65.3,124.4,65.5,124.5,65.6,124.6z"/>
	
		<linearGradient id="SVGID_100_" gradientUnits="userSpaceOnUse" x1="58.55" y1="90.8" x2="58.55" y2="-101.9615" gradientTransform="matrix(1 0 0 1 0 118)">
		<stop  offset="0" style="stop-color:#B280B8"/>
		<stop  offset="1" style="stop-color:#8A4F9E"/>
	</linearGradient>
	<path class="st99" d="M58.6,91.4c0,0.1-0.1,0.3-0.1,0.4C58.5,91.7,58.5,91.6,58.6,91.4L58.6,91.4z"/>
	
		<linearGradient id="SVGID_101_" gradientUnits="userSpaceOnUse" x1="34.75" y1="90.8" x2="34.75" y2="-101.9615" gradientTransform="matrix(1 0 0 1 0 118)">
		<stop  offset="0" style="stop-color:#B280B8"/>
		<stop  offset="1" style="stop-color:#8A4F9E"/>
	</linearGradient>
	<path class="st100" d="M34.9,144.9L34.9,144.9c-0.1,0-0.2,0-0.3-0.1C34.7,144.8,34.8,144.9,34.9,144.9z"/>
	
		<linearGradient id="SVGID_102_" gradientUnits="userSpaceOnUse" x1="66.3" y1="-20.8" x2="66.3" y2="-20.8" gradientTransform="matrix(1 0 0 1 0 118)">
		<stop  offset="0" style="stop-color:#B280B8"/>
		<stop  offset="1" style="stop-color:#8A4F9E"/>
	</linearGradient>
	<path class="st101" d="M66.3,97.2L66.3,97.2L66.3,97.2z"/>
	
		<linearGradient id="SVGID_103_" gradientUnits="userSpaceOnUse" x1="95.3" y1="-43" x2="95.5" y2="-43" gradientTransform="matrix(1 0 0 1 0 118)">
		<stop  offset="0" style="stop-color:#B280B8"/>
		<stop  offset="1" style="stop-color:#8A4F9E"/>
	</linearGradient>
	<path class="st102" d="M95.3,75c0.1,0,0.1,0,0.2,0C95.4,75,95.3,75,95.3,75L95.3,75z"/>
	
		<linearGradient id="SVGID_104_" gradientUnits="userSpaceOnUse" x1="66" y1="-20.3" x2="66" y2="-20.3" gradientTransform="matrix(1 0 0 1 0 118)">
		<stop  offset="0" style="stop-color:#B280B8"/>
		<stop  offset="1" style="stop-color:#8A4F9E"/>
	</linearGradient>
	<path class="st103" d="M66,97.7L66,97.7L66,97.7z"/>
	
		<linearGradient id="SVGID_105_" gradientUnits="userSpaceOnUse" x1="102.2556" y1="16.4" x2="102.7" y2="16.4" gradientTransform="matrix(1 0 0 1 0 118)">
		<stop  offset="0" style="stop-color:#B280B8"/>
		<stop  offset="1" style="stop-color:#8A4F9E"/>
	</linearGradient>
	<path class="st104" d="M102.3,134.4c0.1,0,0.3,0,0.4,0l0,0C102.5,134.4,102.4,134.4,102.3,134.4
		C102.2,134.4,102.3,134.4,102.3,134.4z"/>
	
		<linearGradient id="SVGID_106_" gradientUnits="userSpaceOnUse" x1="96" y1="-42.9" x2="96" y2="-42.9" gradientTransform="matrix(1 0 0 1 0 118)">
		<stop  offset="0" style="stop-color:#B280B8"/>
		<stop  offset="1" style="stop-color:#8A4F9E"/>
	</linearGradient>
	<path class="st105" d="M96,75.1L96,75.1L96,75.1L96,75.1z"/>
	
		<linearGradient id="SVGID_107_" gradientUnits="userSpaceOnUse" x1="123.8" y1="-82.7" x2="123.8" y2="-82.7" gradientTransform="matrix(1 0 0 1 0 118)">
		<stop  offset="0" style="stop-color:#B280B8"/>
		<stop  offset="1" style="stop-color:#8A4F9E"/>
	</linearGradient>
	<path class="st106" d="M123.8,35.3L123.8,35.3L123.8,35.3z"/>
	
		<linearGradient id="SVGID_108_" gradientUnits="userSpaceOnUse" x1="226.5" y1="-59.7" x2="226.5" y2="-59.7" gradientTransform="matrix(1 0 0 1 0 118)">
		<stop  offset="0" style="stop-color:#B280B8"/>
		<stop  offset="1" style="stop-color:#8A4F9E"/>
	</linearGradient>
	<path class="st107" d="M226.5,58.3L226.5,58.3L226.5,58.3z"/>
	
		<linearGradient id="SVGID_109_" gradientUnits="userSpaceOnUse" x1="122.7" y1="-67.4" x2="122.7" y2="-67.4" gradientTransform="matrix(1 0 0 1 0 118)">
		<stop  offset="0" style="stop-color:#B280B8"/>
		<stop  offset="1" style="stop-color:#8A4F9E"/>
	</linearGradient>
	<path class="st108" d="M122.7,50.6L122.7,50.6L122.7,50.6L122.7,50.6z"/>
	
		<linearGradient id="SVGID_110_" gradientUnits="userSpaceOnUse" x1="156.1" y1="90.8" x2="156.1" y2="-101.9615" gradientTransform="matrix(1 0 0 1 0 118)">
		<stop  offset="0" style="stop-color:#B280B8"/>
		<stop  offset="1" style="stop-color:#8A4F9E"/>
	</linearGradient>
	<path class="st109" d="M156.1,166.5L156.1,166.5C156.1,166.6,156.1,166.6,156.1,166.5L156.1,166.5z"/>
	
		<linearGradient id="SVGID_111_" gradientUnits="userSpaceOnUse" x1="226.5" y1="-59.7" x2="226.5" y2="-59.7" gradientTransform="matrix(1 0 0 1 0 118)">
		<stop  offset="0" style="stop-color:#B280B8"/>
		<stop  offset="1" style="stop-color:#8A4F9E"/>
	</linearGradient>
	<path class="st110" d="M226.5,58.3L226.5,58.3L226.5,58.3z"/>
	
		<linearGradient id="SVGID_112_" gradientUnits="userSpaceOnUse" x1="119.35" y1="90.8" x2="119.35" y2="-101.9615" gradientTransform="matrix(1 0 0 1 0 118)">
		<stop  offset="0" style="stop-color:#B280B8"/>
		<stop  offset="1" style="stop-color:#8A4F9E"/>
	</linearGradient>
	<path class="st111" d="M238.2,51C238.2,51.1,238.2,51.1,238.2,51C238.2,51.1,238.2,51.1,238.2,51L238.2,51c0.1-0.1,0.1-0.3,0.1-0.5
		c0-0.4-0.2-0.8-0.6-1.2c-0.4-0.4-0.9-0.8-1.5-1.1s-1.4-0.7-2.2-0.9c-0.8-0.3-1.7-0.5-2.6-0.6c-0.1,0-0.1,0-0.2,0
		c-0.1,0-0.1,0-0.2,0c-0.1,0-0.1,0-0.2,0c-0.1,0-0.1,0-0.2,0l0,0l-4.4-3.9c0,0,0,0,0.1,0s0.1-0.1,0.2-0.1c0,0,0.1,0,0.1-0.1l0.1-0.1
		c0,0,0.1,0,0.1-0.1l0.1-0.1l0.1-0.1l0,0c0-0.1,0.1-0.1,0.1-0.2l0,0c0-0.1,0.1-0.1,0.1-0.2l0,0c0-0.1,0-0.1,0.1-0.2
		c0-0.1,0.1-0.2,0.1-0.4l0,0l0,0l0,0l0,0l0,0c0-0.1,0-0.1,0-0.2c0-0.4-0.1-0.7-0.4-1.1c-0.3-0.3-0.7-0.7-1.3-1s-1.2-0.6-1.9-0.8
		s-1.5-0.4-2.4-0.5c-0.7-0.1-1.3-0.1-1.9-0.1c-0.6,0-1.2,0-1.7,0.1s-1,0.2-1.4,0.3s-0.7,0.3-1,0.5l-9-1.2c-0.2-0.3-0.4-0.5-0.7-0.7
		s-0.7-0.5-1.2-0.6c-0.4-0.2-1-0.4-1.5-0.5c-0.6-0.1-1.1-0.3-1.8-0.3c-0.1,0-0.2,0-0.2,0c-0.1,0-0.2,0-0.2,0c-0.1,0-0.2,0-0.2,0
		c-0.1,0-0.2,0-0.2,0l0.1,0.1l0,0l-0.1-0.1l-3.1-3.1l0,0h0.1c0.1,0,0.1-0.1,0.2-0.1c0,0,0.1,0,0.1-0.1c0.1,0,0.1-0.1,0.2-0.1
		c0,0,0.1,0,0.1-0.1l0.1-0.1l0,0c0.1,0,0.1-0.1,0.2-0.1l0,0c0.1-0.1,0.1-0.1,0.1-0.2l0,0c0-0.1,0.1-0.1,0.1-0.2l0,0
		c0-0.1,0.1-0.1,0.1-0.2l0,0l0,0l0,0l0,0l0,0l0,0l0,0v-0.3l0,0l0,0l0,0l0,0l0,0l0,0l0,0l0,0l0,0l0,0l0,0l0,0l0,0l0,0l0,0l0,0l0,0
		c0.1-0.3,0-0.6-0.2-0.9s-0.5-0.6-1-0.8c-0.4-0.3-1-0.5-1.6-0.7s-1.3-0.3-2.1-0.4c-0.6-0.1-1.1-0.1-1.7-0.1c-0.5,0-1.1,0-1.6,0.1
		s-0.9,0.2-1.3,0.3c-0.4,0.1-0.7,0.3-1,0.4l-8-1c-0.1-0.2-0.3-0.4-0.5-0.6c-0.3-0.2-0.6-0.4-0.9-0.5c-0.4-0.2-0.8-0.3-1.3-0.4
		s-1-0.2-1.5-0.3c-0.7-0.1-1.5-0.1-2.1-0.1c-0.7,0-1.3,0.1-1.9,0.2c-0.6,0.1-1.1,0.3-1.5,0.5s-0.7,0.5-0.9,0.7
		c-0.1,0.1-0.1,0.2-0.1,0.4v0.1l0,0v0.3c0,0.1,0,0.2,0,0.3c0,0.1,0.1,0.2,0.1,0.3c0,0.1,0.1,0.2,0.2,0.3l0,0l-5.2,2.1
		c-0.1,0-0.1,0-0.2,0c-0.1,0-0.1,0-0.2,0c-0.1,0-0.1,0-0.2,0c-0.1,0-0.1,0-0.2,0c-0.6-0.1-1.1-0.1-1.7-0.1c-0.6,0-1.1,0-1.6,0.1
		s-1,0.2-1.4,0.3c-0.4,0.1-0.8,0.3-1.2,0.5l-7.9-1c0-0.2-0.2-0.4-0.4-0.6s-0.5-0.4-0.8-0.6s-0.7-0.3-1.2-0.5c-0.5-0.1-1-0.2-1.5-0.3
		c-0.7-0.1-1.5-0.1-2.2-0.1s-1.4,0.1-2,0.2s-1.2,0.3-1.7,0.5s-0.9,0.5-1.1,0.8c-0.1,0.1-0.2,0.3-0.2,0.4s-0.1,0.2-0.1,0.4l0,0V31
		c0,0.1,0,0.1,0,0.2s0,0.1,0.1,0.2v0.1l-6.2,2.3c-0.1,0-0.1,0-0.2,0c-0.1,0-0.1,0-0.2,0c-0.1,0-0.1,0-0.2,0c-0.1,0-0.1,0-0.2,0
		c-0.6-0.1-1.1-0.1-1.7-0.1c-0.6,0-1.1,0-1.7,0.1c-0.5,0.1-1.1,0.2-1.6,0.3s-0.9,0.3-1.3,0.5l-7.8-1.1v-0.1l0,0l0,0l0,0l0,0l0,0l0,0
		l0,0l0,0l0,0l0,0l0,0l0,0l0,0l0,0l0,0l0,0l0,0c0-0.2-0.1-0.5-0.2-0.7s-0.4-0.4-0.7-0.6c-0.3-0.2-0.7-0.3-1.1-0.5
		c-0.4-0.1-0.9-0.2-1.5-0.3c-0.7-0.1-1.5-0.1-2.2-0.1s-1.5,0.1-2.1,0.2c-0.7,0.1-1.3,0.3-1.9,0.5c-0.6,0.2-1,0.5-1.4,0.8
		c-0.1,0.1-0.3,0.3-0.3,0.4c-0.1,0.1-0.1,0.3-0.2,0.4c0,0.1,0,0.3,0,0.4l0,0v0.4v0.1L99,36.8c-0.1,0-0.1,0-0.2,0s-0.1,0-0.2,0
		s-0.1,0-0.2,0s-0.1,0-0.2,0c-0.7-0.1-1.5-0.1-2.3-0.1s-1.5,0.1-2.3,0.3c-0.7,0.1-1.4,0.4-2,0.6c-0.6,0.3-1.1,0.5-1.5,0.9
		c-0.4,0.3-0.6,0.7-0.7,1c0,0.2,0,0.3,0,0.5l0,0l0.1,0.4c0,0.1,0,0.2,0.1,0.3c0,0,0,0,0,0.1s0.1,0.1,0.1,0.2l0,0
		c0.1,0.1,0.2,0.2,0.2,0.2s0,0,0.1,0.1s0.2,0.1,0.3,0.2c0,0,0.1,0,0.1,0.1c0.1,0.1,0.3,0.1,0.4,0.2h0.1c0.1,0.1,0.3,0.1,0.5,0.2l0,0
		c0.2,0.1,0.4,0.1,0.6,0.2l0,0c0.2,0.1,0.4,0.1,0.7,0.1c0.1,0,0.1,0,0.2,0l0,0c0.1,0,0.1,0,0.2,0l0,0h0.1l0,0c0.1,0,0.1,0,0.2,0
		l0.3,3.7c-0.3,0.1-0.6,0.2-0.9,0.3s-0.6,0.2-0.8,0.4c-0.3,0.1-0.5,0.3-0.7,0.4c-0.2,0.1-0.4,0.3-0.6,0.5s-0.3,0.3-0.5,0.5
		c-0.1,0.2-0.2,0.3-0.3,0.5c-0.1,0.2-0.1,0.3-0.1,0.5c0,0.1,0,0.2,0,0.2s0,0,0-0.1v0.3l-8.4,3.1l0,0c-0.1,0-0.1,0-0.2,0
		s-0.1,0-0.2,0s-0.1,0-0.2,0s-0.1,0-0.2,0c-0.8-0.1-1.7-0.2-2.5-0.1c-0.9,0-1.8,0.2-2.6,0.3c-0.9,0.2-1.7,0.4-2.4,0.8
		c-0.7,0.3-1.4,0.7-1.9,1.1s-0.8,0.9-1,1.3c-0.1,0.3-0.1,0.6-0.1,0.9c0,0,0,0,0-0.1l0.1,0.4c0,0.1,0.1,0.2,0.1,0.3v0.1
		c0,0.1,0.1,0.2,0.2,0.3l0,0c0.1,0.1,0.2,0.2,0.3,0.3c0,0,0,0,0.1,0.1s0.2,0.2,0.3,0.2l0,0c0.1,0.1,0.3,0.2,0.4,0.2
		c0,0,0.1,0,0.1,0.1c0.1,0.1,0.3,0.1,0.5,0.2l0,0c0.4,0.1,0.8,0.3,1.3,0.3c0.1,0,0.1,0,0.2,0l0,0c0.1,0,0.1,0,0.2,0l0,0H74l0,0h0.1
		l-0.3,4.9c-0.4,0.1-0.7,0.2-1.1,0.4c-0.4,0.1-0.7,0.3-1,0.5s-0.6,0.3-0.9,0.5S70.2,66,70,66.2c-0.6,0.5-0.9,1-1.1,1.5
		c-0.1,0.4-0.1,0.8-0.1,1.1l0,0l0.1,0.4c0,0.1,0.1,0.2,0.1,0.4v0.1c0.1,0.1,0.1,0.2,0.2,0.3l0,0c0.1,0.1,0.2,0.2,0.3,0.3l0.1,0.1
		c0.1,0.1,0.2,0.2,0.4,0.3l0,0c0.1,0.1,0.3,0.2,0.4,0.3c0,0,0.1,0,0.1,0.1c0.2,0.1,0.3,0.2,0.5,0.2l0,0c0.2,0.1,0.4,0.1,0.6,0.2l0,0
		c0.2,0.1,0.5,0.1,0.7,0.2c0.3,0.1,0.7,0.1,1.1,0.1l0,0c0.4,0,0.7,0,1.1,0.1l0,0c0.4,0,0.7,0,1.1,0l0,0c0.4,0,0.7-0.1,1.1-0.1l0,0
		c0.3,0,0.6-0.1,0.9-0.2c0.1,0,0.3-0.1,0.4-0.1c0.2-0.1,0.4-0.1,0.6-0.2c0.1,0,0.3-0.1,0.4-0.1c0.2-0.1,0.4-0.2,0.6-0.2
		c0.1,0,0.2-0.1,0.3-0.1c0.3-0.1,0.6-0.3,0.9-0.4l9.8,1.8c0,0.2,0,0.3,0,0.5l0,0l0.1,0.4c0,0.1,0.1,0.3,0.1,0.4v0.1
		c0.1,0.1,0.1,0.2,0.2,0.4c0,0,0,0,0,0.1c0.1,0.1,0.2,0.3,0.3,0.4l0.1,0.1c0.1,0.1,0.2,0.2,0.3,0.3l0.1,0.1c0.2,0.1,0.3,0.2,0.5,0.3
		c0,0,0.1,0,0.1,0.1c0.2,0.1,0.4,0.2,0.6,0.3l0,0c0.2,0.1,0.5,0.2,0.8,0.3l0,0c0.3,0.1,0.6,0.1,0.9,0.2c0.1,0,0.2,0,0.3,0l0,0
		c0.1,0,0.2,0,0.2,0s0,0,0.1,0s0.2,0,0.2,0l0,0c0.1,0,0.2,0,0.2,0l0.5,6.2c-0.4,0.1-0.8,0.3-1.2,0.5c-0.4,0.2-0.7,0.4-1.1,0.6
		c-0.3,0.2-0.7,0.4-0.9,0.7c-0.3,0.2-0.6,0.5-0.8,0.8c-0.5,0.7-0.9,1.3-1,2c-0.1,0.3-0.1,0.6,0,1l0,0l0.1,0.4c0,0.1,0,0.2,0.1,0.4
		V89c0,0.1,0.1,0.2,0.1,0.3v0.1c0.1,0.1,0.1,0.2,0.2,0.3c0,0,0,0,0,0.1c0.1,0.1,0.1,0.2,0.2,0.3l0.1,0.1c0.1,0.1,0.2,0.2,0.3,0.3
		l0,0c0.1,0.1,0.2,0.2,0.3,0.3c0.2,0.1,0.4,0.3,0.6,0.4c0,0,0.1,0,0.1,0.1c0.2,0.1,0.4,0.2,0.6,0.3l0,0c0.3,0.1,0.5,0.2,0.8,0.3l0,0
		c0.3,0.1,0.6,0.2,0.9,0.2c0.2,0,0.4,0.1,0.6,0.1l0,0c0.2,0,0.4,0.1,0.6,0.1l0,0c0.2,0,0.4,0,0.6,0l0,0c0.2,0,0.4,0,0.6,0l0,0
		c0.2,0,0.4,0,0.6,0l0,0c0.2,0,0.4,0,0.6,0l0,0c0.2,0,0.4,0,0.6-0.1l0,0c0.2,0,0.4-0.1,0.6-0.1l0,0c0.3-0.1,0.7-0.1,1-0.2
		c0.2,0,0.3-0.1,0.5-0.1c0.2-0.1,0.5-0.1,0.7-0.2s0.3-0.1,0.5-0.2c0.1,0,0.1,0,0.2-0.1c0.3-0.1,0.6-0.2,0.8-0.4c0,0,0.1,0,0.1-0.1
		c0.3-0.1,0.5-0.3,0.8-0.5l11.4,2.4l0,0l0,0l0,0v0.4c0,0.2,0,0.3,0.1,0.5v0.1c0,0.1,0.1,0.3,0.1,0.4l0,0c0.1,0.2,0.1,0.3,0.2,0.4
		c0,0,0,0.1,0.1,0.1c0.1,0.1,0.2,0.2,0.3,0.4c0,0,0,0,0.1,0.1s0.2,0.3,0.4,0.4l0.1,0.1c0.1,0.1,0.2,0.2,0.4,0.3l0.1,0.1
		c0.2,0.1,0.3,0.2,0.5,0.3c0,0,0.1,0,0.1,0.1c0.2,0.1,0.3,0.2,0.5,0.3c0.1,0,0.1,0.1,0.2,0.1c0,0,0,0,0.1,0c0.1,0.1,0.3,0.1,0.4,0.2
		l0,0c0.2,0.1,0.3,0.1,0.5,0.2l0,0c0.2,0.1,0.4,0.1,0.5,0.2l0,0c0.2,0,0.4,0.1,0.6,0.1c0.1,0,0.2,0,0.3,0.1l0,0c0.1,0,0.2,0,0.3,0
		c0,0,0,0,0.1,0s0.2,0,0.3,0l0,0l0,0c0.1,0,0.2,0,0.3,0l1.8,8.1c-0.4,0.2-0.8,0.4-1.2,0.6c-0.4,0.2-0.8,0.5-1.1,0.8
		c-0.4,0.3-0.7,0.6-1,0.9s-0.5,0.7-0.8,1c-0.2,0.4-0.4,0.7-0.5,1.1s-0.2,0.7-0.2,1.1s0,0.7,0.1,1.1l0,0c0-0.1,0-0.3,0-0.4v0.5
		c0,0.1,0,0.3,0,0.4s0,0.3,0.1,0.4c0,0.1,0.1,0.2,0.1,0.3l-11.5,6.8c-0.1,0-0.2-0.1-0.3-0.1c-0.1,0-0.2-0.1-0.3-0.1
		c-0.1,0-0.2-0.1-0.3-0.1c-0.1,0-0.2-0.1-0.3-0.1c-1-0.2-2-0.3-3-0.3s-2,0.1-3,0.3c-1,0.2-1.9,0.5-2.8,0.9s-1.8,0.9-2.5,1.5
		l-12.9-3.2l0,0l0,0c0-0.2,0-0.3,0-0.5l0,0c0-0.2,0-0.3,0-0.5l0,0c0-0.2,0-0.3-0.1-0.4c0-0.2-0.1-0.3-0.1-0.5l0,0l0,0l0,0l0,0
		c0,0.1,0,0.2,0,0.2v0.1c0-0.2,0-0.3-0.1-0.5c-0.1-0.6-0.4-1.2-0.8-1.8c-0.4-0.5-1-1-1.6-1.4c-0.7-0.4-1.4-0.7-2.3-0.9
		c-0.1,0-0.2-0.1-0.3-0.1c-0.1,0-0.2,0-0.3-0.1c-0.1,0-0.2,0-0.3-0.1c-0.1,0-0.2,0-0.2,0l0.3-8.7c0.2-0.1,0.5-0.2,0.7-0.3
		c0.1,0,0.1-0.1,0.2-0.1c0.2-0.1,0.3-0.1,0.5-0.2c0.1,0,0.2-0.1,0.3-0.1c0.1-0.1,0.3-0.1,0.4-0.2s0.2-0.1,0.3-0.2
		c0.1-0.1,0.2-0.1,0.4-0.2l0,0c0.2-0.1,0.4-0.3,0.5-0.4c0,0,0,0,0.1,0c0.2-0.1,0.3-0.3,0.5-0.4l0,0c0.2-0.1,0.3-0.3,0.5-0.5l0,0
		c0.2-0.2,0.3-0.3,0.4-0.5s0.2-0.3,0.3-0.5l0,0c0.1-0.2,0.2-0.3,0.3-0.5l0,0c0.1-0.1,0.2-0.3,0.2-0.4l0,0c0.1-0.1,0.1-0.3,0.2-0.4
		l0,0c0-0.1,0.1-0.3,0.1-0.4l0,0c0-0.1,0-0.3,0.1-0.4l0,0c0-0.1,0-0.3,0-0.4l0,0c0-0.1,0-0.3,0-0.4c0-0.2-0.1-0.3-0.1-0.5
		c0,0.1,0,0.1,0,0.2l0,0c0-0.3-0.1-0.7-0.3-1c-0.3-0.6-0.8-1.2-1.5-1.7s-1.6-0.8-2.6-1.1c-0.4-0.9-1.2-1-2.1-1s-1.7,0.1-2.6,0.2
		c-0.9,0.2-1.7,0.4-2.6,0.7c-0.8,0.3-1.6,0.7-2.3,1.1l-10.8-2.4v-0.1l0,0c0-0.2,0.1-0.3,0.1-0.5l0,0c0-0.1,0-0.3,0-0.4l0,0
		c0-0.1,0-0.3-0.1-0.4l-0.1-0.4v0.1v0.1v0.1c-0.1-0.5-0.2-0.9-0.5-1.3s-0.7-0.8-1.3-1.1c-0.5-0.3-1.2-0.5-1.9-0.7
		c-1-0.2-2.1-0.3-3.2-0.2c-1.1,0.1-2.3,0.2-3.4,0.5c-1.1,0.3-2.2,0.7-3.2,1.2s-1.9,1.1-2.7,1.8c-0.3,0.3-0.6,0.6-0.9,0.9
		c-0.2,0.3-0.4,0.6-0.6,0.9c-0.2,0.3-0.3,0.6-0.4,0.9c-0.1,0.3-0.1,0.6-0.1,0.9l-13,5.6c-0.1,0-0.2-0.1-0.2-0.1s-0.2-0.1-0.3-0.1
		c-0.1,0-0.2-0.1-0.3-0.1c-0.1,0-0.2,0-0.3-0.1c-1-0.2-2.2-0.3-3.4-0.3c-1.2,0.1-2.5,0.3-3.7,0.6c-1.3,0.3-2.5,0.8-3.7,1.4
		s-2.3,1.3-3.2,2.1c-1,0.8-1.7,1.6-2.1,2.4c-0.5,0.8-0.7,1.6-0.7,2.3c0,0.4,0.1,0.7,0.2,1l0,0l0.2,0.5c0.1,0.1,0.1,0.2,0.2,0.4
		l0.1,0.1c0.1,0.1,0.1,0.2,0.2,0.2l0.1,0.1c0.1,0.1,0.1,0.1,0.2,0.2c0,0,0.1,0.1,0.2,0.1c0.1,0.1,0.1,0.1,0.2,0.2l0,0
		c0.1,0.1,0.2,0.2,0.4,0.2l0,0c0.1,0.1,0.3,0.2,0.4,0.2l0,0c0.2,0.1,0.3,0.1,0.5,0.2l0,0c0.2,0.1,0.4,0.1,0.6,0.2
		c0.1,0,0.2,0,0.3,0.1l0,0c0.1,0,0.2,0,0.3,0.1c0,0,0,0,0.1,0s0.2,0,0.2,0l-3.5,9.7c-0.6,0.2-1.2,0.5-1.8,0.8s-1.2,0.6-1.7,0.9
		c-0.6,0.3-1.1,0.7-1.6,1.1s-1,0.8-1.5,1.2c-1.1,1-2,2.1-2.5,3.1c-0.6,1-0.9,2-0.9,2.9c0,0.7,0.2,1.3,0.5,1.9c0,0,0-0.1-0.1-0.1
		l0.2,0.5c0.1,0.1,0.1,0.2,0.2,0.4l0.1,0.1c0.1,0.1,0.1,0.2,0.2,0.2l0.1,0.1c0.1,0.1,0.1,0.1,0.2,0.2l0.1,0.1
		c0.1,0.1,0.2,0.2,0.3,0.3l0,0c0.1,0.1,0.2,0.2,0.4,0.3l0,0c0.1,0.1,0.3,0.2,0.4,0.2l0,0c0.2,0.1,0.3,0.1,0.5,0.2l0,0
		c0.2,0.1,0.4,0.1,0.6,0.2c0.2,0.1,0.5,0.1,0.7,0.2l0,0c0.2,0,0.5,0.1,0.7,0.1l0,0c0.2,0,0.5,0.1,0.8,0.1l0,0c0.2,0,0.5,0,0.8,0l0,0
		c0.3,0,0.5,0,0.8,0l0,0c0.3,0,0.5,0,0.8-0.1c0,0,0,0,0.1,0c0.3,0,0.5-0.1,0.8-0.1l0,0c0.3,0,0.6-0.1,0.8-0.2l0,0
		c0.3-0.1,0.6-0.1,0.8-0.2l0,0c0.3-0.1,0.5-0.1,0.8-0.2c0.1,0,0.2-0.1,0.2-0.1c0.2-0.1,0.4-0.1,0.6-0.2c0.1,0,0.2-0.1,0.3-0.1
		c0.2-0.1,0.3-0.1,0.5-0.2c0.1,0,0.2-0.1,0.3-0.1c0.1-0.1,0.2-0.1,0.4-0.2c0.4-0.2,0.9-0.4,1.3-0.6c0.1,0,0.1-0.1,0.2-0.1
		c0.4-0.2,0.9-0.5,1.3-0.7l12.6,3.7c-0.3,0.7-0.4,1.4-0.4,2.1c0,0.8,0.1,1.5,0.4,2.2c0,0,0,0,0-0.1c0.1,0.2,0.1,0.3,0.2,0.5
		s0.2,0.4,0.3,0.5c0,0.1,0.1,0.1,0.1,0.2c0.1,0.1,0.1,0.2,0.2,0.3c0,0.1,0.1,0.1,0.2,0.2c0.1,0.1,0.2,0.2,0.2,0.3
		c0.1,0.1,0.1,0.1,0.2,0.2c0.1,0.1,0.2,0.2,0.3,0.2c0.2,0.1,0.3,0.2,0.5,0.4l0,0c0.2,0.1,0.4,0.2,0.6,0.3l0,0
		c0.2,0.1,0.4,0.2,0.6,0.3l0,0c0.2,0.1,0.5,0.2,0.7,0.2c0.1,0,0.2,0.1,0.4,0.1l0,0c0.1,0,0.2,0.1,0.3,0.1c0,0,0,0,0.1,0
		s0.2,0,0.3,0.1l0,0c0,0,0,0,0.1,0l-2.9,13.5c-0.7,0.3-1.3,0.7-2,1.1c-0.7,0.4-1.3,0.8-1.9,1.3s-1.2,1-1.8,1.5
		c-0.6,0.5-1.1,1.1-1.6,1.7c-1.2,1.4-2.1,2.9-2.6,4.3c-0.6,1.5-0.8,2.9-0.7,4.2c0.1,0.9,0.3,1.8,0.7,2.6c0,0,0-0.1-0.1-0.1l0.2,0.5
		c0.1,0.2,0.2,0.3,0.3,0.5c0,0.1,0.1,0.1,0.1,0.2c0.1,0.1,0.2,0.2,0.2,0.3s0.1,0.1,0.1,0.2c0.1,0.1,0.2,0.2,0.3,0.3
		c0.1,0.1,0.1,0.1,0.2,0.2c0.1,0.1,0.2,0.2,0.4,0.4c0,0,0,0,0.1,0c0.2,0.1,0.3,0.3,0.5,0.4l0,0c0.2,0.1,0.3,0.2,0.5,0.3
		c0,0,0,0,0.1,0c0.2,0.1,0.4,0.2,0.6,0.3l0,0c0.2,0.1,0.4,0.2,0.7,0.3c0.3,0.1,0.6,0.2,0.8,0.2l0,0c0.3,0.1,0.6,0.1,0.9,0.2l0,0
		c0.3,0,0.6,0.1,0.9,0.1l0,0c0.3,0,0.6,0,0.9,0l0,0c0.3,0,0.6,0,0.9,0c0,0,0,0,0.1,0c0.3,0,0.6-0.1,0.9-0.1c0,0,0,0,0.1,0
		c0.3,0,0.6-0.1,0.9-0.2c0,0,0,0,0.1,0c0.3-0.1,0.6-0.1,0.9-0.2h0.1c0.3-0.1,0.6-0.2,0.9-0.3h0.1c0.3-0.1,0.6-0.2,1-0.3
		c0.1,0,0.1-0.1,0.2-0.1c0.2-0.1,0.5-0.2,0.7-0.3c0.1,0,0.2-0.1,0.3-0.1c0.2-0.1,0.4-0.2,0.6-0.3c0.1-0.1,0.2-0.1,0.4-0.2
		c0.2-0.1,0.4-0.2,0.6-0.3c0.1-0.1,0.2-0.1,0.4-0.2c0.2-0.1,0.4-0.2,0.5-0.3s0.2-0.1,0.3-0.2c0.2-0.1,0.4-0.3,0.6-0.4
		c0.1-0.1,0.2-0.1,0.3-0.2c0.3-0.2,0.6-0.4,0.8-0.6l15.8,5.3c-0.2,1.1-0.3,2.1-0.2,3.1c0.1,0.9,0.3,1.8,0.6,2.6c0,0,0-0.1-0.1-0.1
		l0.2,0.5c0.1,0.3,0.2,0.6,0.4,0.9c0,0.1,0.1,0.2,0.2,0.3c0.1,0.2,0.2,0.4,0.3,0.6c0.1,0.1,0.2,0.2,0.2,0.3c0.1,0.2,0.2,0.3,0.4,0.5
		c0.1,0.1,0.2,0.2,0.3,0.3s0.3,0.3,0.4,0.4c0.2,0.2,0.4,0.3,0.5,0.5c0,0,0,0,0.1,0c0.2,0.2,0.5,0.4,0.8,0.5l0,0
		c0.3,0.2,0.6,0.3,0.9,0.5l0,0c0.3,0.1,0.6,0.3,1,0.4c0.2,0.1,0.4,0.1,0.6,0.2c0,0,0,0,0.1,0c0.2,0.1,0.4,0.1,0.6,0.1c0,0,0,0,0.1,0
		c0.2,0,0.4,0.1,0.6,0.1l0,0c0.2,0,0.4,0.1,0.6,0.1l0,0c0.2,0,0.4,0,0.6,0.1l0,0c0.2,0,0.4,0,0.6,0c0,0,0,0,0.1,0c0.2,0,0.4,0,0.6,0
		c0,0,0,0,0.1,0c0.2,0,0.4,0,0.6,0c0,0,0,0,0.1,0c0.2,0,0.4,0,0.6-0.1l0,0c0.2,0,0.4-0.1,0.6-0.1H70c0.2,0,0.4-0.1,0.6-0.1
		c0.1,0,0.1,0,0.2,0s0.3-0.1,0.4-0.1s0.1,0,0.2-0.1c0.2,0,0.3-0.1,0.5-0.1H72c0.2-0.1,0.4-0.1,0.6-0.2c0.3-0.1,0.5-0.2,0.8-0.3
		c0.1,0,0.1-0.1,0.2-0.1c0.2-0.1,0.3-0.1,0.5-0.2c0.4-0.2,0.7-0.3,1-0.5c0,0,0.1,0,0.1-0.1c0.4-0.2,0.7-0.4,1.1-0.6
		c0.1-0.1,0.2-0.1,0.3-0.2c0.3-0.2,0.6-0.4,0.8-0.6c0.1-0.1,0.2-0.1,0.2-0.2c0.3-0.3,0.7-0.5,1-0.8c0.1-0.1,0.1-0.1,0.2-0.2
		c0.3-0.3,0.6-0.5,0.9-0.8c0,0,0,0,0-0.1c0.3-0.3,0.6-0.7,0.9-1l0,0c0.3-0.4,0.6-0.7,0.8-1.1l0,0c0.3-0.4,0.5-0.8,0.7-1.2
		c0.2-0.3,0.4-0.7,0.5-1l0,0c0.2-0.3,0.3-0.7,0.4-1l0,0c0.1-0.3,0.2-0.7,0.3-1l0,0c0.1-0.3,0.2-0.7,0.2-1l0,0c0.1-0.3,0.1-0.6,0.1-1
		l0,0c0-0.3,0.1-0.6,0.1-1l0,0c0-0.3,0-0.6,0-0.9c0,0,0,0,0-0.1c0-0.3-0.1-0.6-0.1-0.9l15.7-11.1c0.1,0,0.2,0.1,0.3,0.1l0,0
		c0.1,0,0.2,0.1,0.3,0.1c0,0,0,0,0.1,0s0.2,0.1,0.3,0.1l0,0c0.1,0,0.2,0.1,0.4,0.1c0.3,0.1,0.6,0.2,0.9,0.2l0,0
		c0.3,0.1,0.6,0.1,0.9,0.2l0,0c0.3,0,0.6,0.1,0.9,0.1l0,0c0.3,0,0.6,0,0.9,0l0,0c0.3,0,0.6,0,0.9,0c0,0,0,0,0.1,0
		c0.3,0,0.6,0,0.9-0.1c0,0,0,0,0.1,0c0.3,0,0.6-0.1,0.9-0.1l0,0c0.3-0.1,0.6-0.1,0.9-0.2l0,0c0.3-0.1,0.6-0.2,0.8-0.2l0,0
		c0.3-0.1,0.5-0.2,0.8-0.3c0.1,0,0.2-0.1,0.2-0.1c0.2-0.1,0.4-0.2,0.6-0.2c0.1,0,0.2-0.1,0.3-0.1c0.2-0.1,0.3-0.2,0.5-0.2
		c0.1-0.1,0.2-0.1,0.3-0.2c0.2-0.1,0.3-0.2,0.4-0.3s0.2-0.1,0.3-0.2c0.1-0.1,0.3-0.2,0.4-0.3s0.2-0.1,0.3-0.2
		c0.2-0.1,0.3-0.2,0.4-0.3s0.1-0.1,0.2-0.2c0.2-0.2,0.4-0.4,0.6-0.6l16.6,4.8v0.2c0,0.2,0,0.5,0.1,0.7c0,0.1,0,0.1,0,0.2
		c0,0.2,0.1,0.4,0.1,0.5s0,0.1,0,0.2c0.1,0.2,0.1,0.5,0.2,0.7c0,0,0,0,0,0.1c0.1,0.2,0.1,0.4,0.2,0.6c0,0.1,0.1,0.1,0.1,0.2
		c0.1,0.2,0.1,0.3,0.2,0.5c0,0.1,0.1,0.1,0.1,0.2c0.1,0.2,0.2,0.4,0.3,0.6v0.1c0.1,0.2,0.2,0.4,0.4,0.6c0,0.1,0.1,0.1,0.1,0.2
		c0.1,0.2,0.2,0.3,0.3,0.4c0,0.1,0.1,0.1,0.1,0.2c0.2,0.2,0.3,0.4,0.5,0.6l0.1,0.1c0.2,0.2,0.3,0.3,0.5,0.5c0.1,0.1,0.1,0.1,0.2,0.2
		c0.1,0.1,0.3,0.3,0.5,0.4c0.1,0,0.1,0.1,0.2,0.1c0.2,0.2,0.4,0.3,0.7,0.5l0,0c0.2,0.2,0.5,0.3,0.7,0.4h0.1c0.2,0.1,0.5,0.3,0.8,0.4
		l0,0c0.3,0.1,0.5,0.2,0.8,0.3c0,0,0,0,0.1,0c0.3,0.1,0.6,0.2,0.9,0.3c0.2,0.1,0.4,0.1,0.6,0.2c0,0,0,0,0.1,0c0.2,0,0.4,0.1,0.6,0.1
		c0,0,0,0,0.1,0c0.2,0,0.4,0.1,0.6,0.1l0,0c0.2,0,0.4,0.1,0.6,0.1l0,0l0,0c0.2,0,0.4,0,0.6,0l0,0c0.2,0,0.4,0,0.6,0c0,0,0,0,0.1,0
		c0.2,0,0.4,0,0.6,0c0,0,0,0,0.1,0c0.2,0,0.4,0,0.6,0l0,0c0.4,0,0.8-0.1,1.2-0.2l0,0c0.4-0.1,0.8-0.2,1.1-0.3h0.1
		c0.4-0.1,0.7-0.2,1.1-0.3c0.1,0,0.1,0,0.2-0.1c0.3-0.1,0.6-0.2,0.8-0.4c0.1,0,0.2-0.1,0.3-0.1c0.3-0.1,0.6-0.3,0.9-0.5h0.1
		c0.3-0.2,0.6-0.4,0.9-0.6c0.1-0.1,0.1-0.1,0.2-0.2c0.2-0.2,0.4-0.3,0.6-0.5c0.1,0,0.1-0.1,0.2-0.1c0.3-0.2,0.5-0.5,0.7-0.7
		s0.3-0.3,0.4-0.5c0.1-0.1,0.2-0.3,0.3-0.4l0.1-0.1c0.1-0.1,0.1-0.2,0.2-0.3l0.1-0.1c0.1-0.1,0.2-0.2,0.2-0.4c0,0,0,0,0-0.1
		c0.1-0.1,0.2-0.3,0.2-0.4v-0.1c0.1-0.1,0.1-0.3,0.2-0.4v-0.1c0.1-0.2,0.1-0.3,0.2-0.5l0,0c0.1-0.2,0.1-0.3,0.2-0.5
		c0.1-0.2,0.1-0.4,0.2-0.6c0,0,0,0,0-0.1c0-0.2,0.1-0.4,0.1-0.6l0,0c0-0.2,0.1-0.4,0.1-0.6c0,0,0,0,0-0.1c0-0.2,0-0.4,0-0.6v-0.4
		l0,0c0,0,0,0,0,0.1c0,0,0,0,0,0.1s0,0.2,0,0.3v0.1c0.1-0.6,0.1-1.2,0-1.8c0-0.6-0.2-1.2-0.3-1.8c-0.1-0.4-0.3-0.9-0.5-1.3l12-9.9
		l0,0c0.1,0,0.2,0.1,0.4,0.1l0,0c0.1,0,0.2,0.1,0.3,0.1c0,0,0,0,0.1,0s0.2,0.1,0.3,0.1l0,0c0.1,0,0.3,0.1,0.4,0.1
		c0.4,0.1,0.8,0.2,1.2,0.3l0,0c0.4,0.1,0.8,0.1,1.2,0.2l0,0c0.4,0,0.8,0.1,1.1,0.1l0,0c0.4,0,0.7,0,1.1,0l0,0c0.4,0,0.7-0.1,1.1-0.1
		l0,0c0.3-0.1,0.7-0.1,1-0.2h0.1c0.3-0.1,0.6-0.2,0.9-0.3c0,0,0.1,0,0.1-0.1c0.2-0.1,0.5-0.2,0.7-0.3c0.1,0,0.2-0.1,0.2-0.1
		c0.3-0.1,0.5-0.2,0.7-0.4c0,0,0,0,0.1,0c0.3-0.1,0.5-0.3,0.7-0.5c0.1,0,0.1-0.1,0.2-0.1c0.2-0.1,0.4-0.3,0.5-0.4l0.1-0.1
		c0.2-0.2,0.4-0.4,0.6-0.6l0.1-0.1c0.2-0.2,0.3-0.4,0.5-0.6l0,0c0.2-0.2,0.3-0.5,0.5-0.8l0,0c0.1-0.3,0.3-0.5,0.4-0.8l0,0
		c0.1-0.3,0.2-0.6,0.3-0.9v-0.1l0,0v-0.1l0,0v-0.1l0,0v-0.1l0.1-0.5v0.1l0,0c0.2-1.1,0.1-2.1-0.2-3.1c-0.3-1.2-0.9-2.3-1.7-3.3
		s-1.8-1.9-3-2.6c-1.2-0.7-2.5-1.3-4-1.6c-0.1,0-0.3-0.1-0.4-0.1c-0.1,0-0.3-0.1-0.4-0.1c-0.1,0-0.3,0-0.4-0.1c-0.1,0-0.3,0-0.4-0.1
		l-4.5-11c0.1-0.1,0.3-0.2,0.4-0.2c0.1,0,0.1-0.1,0.2-0.1c0.1-0.1,0.3-0.2,0.4-0.3c0.1-0.1,0.1-0.1,0.2-0.2c0.1-0.1,0.2-0.2,0.3-0.3
		c0.1-0.1,0.1-0.1,0.2-0.2c0.1-0.1,0.2-0.2,0.3-0.3l0,0c0.1-0.1,0.3-0.3,0.4-0.5l0,0c0.1-0.2,0.2-0.3,0.3-0.5l0,0
		c0.1-0.2,0.2-0.4,0.3-0.6l0,0c0.1-0.2,0.2-0.4,0.2-0.6c0-0.1,0-0.2,0.1-0.2l0,0c0-0.1,0-0.2,0.1-0.2c0,0,0,0,0-0.1s0-0.2,0-0.2l0,0
		c0-0.1,0-0.2,0-0.3v-0.5c0,0,0,0,0,0.1c0,0,0,0,0,0.1c0,0,0,0,0,0.1c0,0,0,0,0,0.1l0,0l0,0l0,0c0,0.1,0,0.1,0,0.2l0,0
		c0-0.2,0.1-0.4,0.1-0.6c0-0.4,0-0.8-0.1-1.2c-0.1-0.4-0.2-0.8-0.3-1.1c-0.1-0.3-0.2-0.5-0.4-0.8l9.2-6.5c0.1,0,0.2,0.1,0.3,0.1l0,0
		c0.1,0,0.2,0.1,0.3,0.1c0,0,0,0,0.1,0s0.2,0.1,0.3,0.1l0,0c0.1,0,0.2,0.1,0.3,0.1c0.3,0.1,0.6,0.1,1,0.2l0,0c0.3,0,0.6,0.1,0.9,0.1
		l0,0l0,0c0.3,0,0.6,0,0.9,0l0,0c0.3,0,0.6,0,0.9,0l0,0c0.3,0,0.6,0,0.9-0.1l0,0c0.3,0,0.6-0.1,0.8-0.1c0,0,0,0,0.1,0
		c0.3-0.1,0.5-0.1,0.7-0.2c0.3-0.1,0.6-0.2,0.9-0.3c0.2-0.1,0.4-0.1,0.5-0.2c0,0,0,0,0.1,0c0.2-0.1,0.4-0.2,0.6-0.3l0.1-0.1
		c0.1-0.1,0.3-0.2,0.4-0.3l0.1-0.1c0.2-0.1,0.3-0.3,0.5-0.4l0.1-0.1c0.1-0.1,0.3-0.3,0.4-0.4l0,0c0.1-0.2,0.2-0.3,0.3-0.5l0,0
		c0.1-0.2,0.2-0.4,0.3-0.5l0,0c0.1-0.2,0.1-0.4,0.2-0.6c0,0,0,0,0-0.1l0,0c0,0,0,0,0-0.1l0,0c0,0,0,0,0-0.1l0,0c0,0,0,0,0-0.1
		l0.1-0.5l0,0l0,0l0,0l0,0l0,0l0,0l0,0l0,0l0,0l0,0l0,0l0,0l0,0l0,0l0,0l0,0l0,0c0.2-0.8,0.1-1.6-0.2-2.4s-0.8-1.5-1.5-2.2
		s-1.6-1.3-2.6-1.8s-2.1-0.9-3.3-1.1c-0.1,0-0.2,0-0.3-0.1c-0.1,0-0.2,0-0.3-0.1c-0.1,0-0.2,0-0.3,0s-0.2,0-0.3,0l-4.2-7.6
		c0.1,0,0.2-0.1,0.3-0.1s0.1-0.1,0.2-0.1c0.1-0.1,0.2-0.1,0.3-0.2c0.1,0,0.1-0.1,0.2-0.1c0.1-0.1,0.2-0.1,0.2-0.2
		c0.1,0,0.1-0.1,0.2-0.1c0.1-0.1,0.1-0.1,0.2-0.2l0,0c0.1-0.1,0.2-0.2,0.3-0.3l0,0c0.1-0.1,0.2-0.2,0.3-0.4l0,0
		c0.1-0.1,0.2-0.3,0.2-0.4l0,0c0.1-0.1,0.1-0.3,0.2-0.4v-0.1l0,0v-0.1l0,0v-0.1l0,0v-0.1v-0.4V86l0,0l0,0c0-0.1,0-0.3,0-0.4
		c0-0.3,0-0.6-0.1-0.8c-0.1-0.3-0.2-0.5-0.3-0.8c-0.1-0.2-0.2-0.3-0.3-0.5l7.4-4.5c0.1,0,0.2,0,0.3,0.1l0,0c0.1,0,0.2,0,0.3,0.1
		c0,0,0,0,0.1,0s0.2,0,0.3,0.1l0,0c0.1,0,0.2,0,0.3,0.1c0.3,0,0.5,0.1,0.8,0.1l0,0c0.3,0,0.5,0.1,0.8,0.1l0,0l0,0c0.3,0,0.5,0,0.8,0
		l0,0c0.3,0,0.5,0,0.8,0l0,0c0.2,0,0.5,0,0.7-0.1l0,0c0.2,0,0.5-0.1,0.7-0.1c0,0,0,0,0.1,0c0.2,0,0.4-0.1,0.6-0.1
		c0.3-0.1,0.5-0.1,0.8-0.2c0.1,0,0.1,0,0.2-0.1c0.2-0.1,0.4-0.2,0.6-0.2c0.1,0,0.1-0.1,0.2-0.1c0,0,0.1,0,0.1-0.1
		c0.1-0.1,0.2-0.1,0.3-0.2c0,0,0.1,0,0.1-0.1c0.1-0.1,0.3-0.2,0.4-0.3c0,0,0.1,0,0.1-0.1c0.1-0.1,0.2-0.2,0.3-0.3l0,0
		c0.1-0.1,0.2-0.2,0.3-0.4l0,0c0.1-0.1,0.2-0.3,0.2-0.4l0,0c0.1-0.1,0.1-0.3,0.1-0.4l0,0l0,0l0,0l0,0l0,0l0,0l0,0l0,0l0.1-0.4l0,0
		l0,0l0,0l0,0l0,0l0,0l0,0l0,0l0,0l0,0l0,0l0,0c0.1-0.6,0-1.2-0.3-1.7c-0.3-0.6-0.7-1.1-1.4-1.6c-0.6-0.5-1.4-0.9-2.2-1.3
		c-0.9-0.4-1.8-0.6-2.9-0.8c-0.1,0-0.2,0-0.3,0s-0.2,0-0.3,0s-0.2,0-0.3,0s-0.2,0-0.3,0l-3.8-5.5c0.1,0,0.1,0,0.2-0.1
		c0,0,0.1,0,0.1-0.1c0.1,0,0.2-0.1,0.2-0.1l0.1-0.1c0.1,0,0.1-0.1,0.2-0.1l0.1-0.1c0.1,0,0.1-0.1,0.2-0.1l0,0
		c0.1-0.1,0.2-0.2,0.2-0.2l0,0c0.1-0.1,0.1-0.2,0.2-0.3l0,0c0.1-0.1,0.1-0.2,0.2-0.3l0,0c0-0.1,0.1-0.2,0.1-0.3c0,0,0,0,0-0.1l0,0
		l0,0l0,0c0,0,0,0,0-0.1l0,0c0,0,0,0,0-0.1l0.1-0.4l0,0c0-0.1,0-0.2,0-0.3c0-0.2,0-0.4-0.1-0.6s-0.2-0.4-0.3-0.6
		c-0.1-0.1-0.2-0.2-0.3-0.3l6.2-3.3c0.1,0,0.2,0,0.2,0l0,0c0.1,0,0.1,0,0.2,0l0,0c0.1,0,0.1,0,0.2,0l0,0c0.1,0,0.2,0,0.3,0
		c0.4,0.1,0.7,0.1,1.1,0.1l0,0c0.4,0,0.7,0,1.1,0l0,0c0.3,0,0.7,0,1,0l0,0c0.3,0,0.6-0.1,0.9-0.1l0,0c0.2,0,0.5-0.1,0.7-0.1
		c0.1,0,0.2-0.1,0.3-0.1c0.2,0,0.3-0.1,0.5-0.1c0.1,0,0.2-0.1,0.3-0.1h0.1c0.2-0.1,0.3-0.2,0.5-0.2c0,0,0,0,0.1,0
		c0.2-0.1,0.3-0.2,0.4-0.3l10.3,1.5c0.1,0.1,0.2,0.2,0.3,0.3c0,0,0,0.1,0.1,0.1c0.1,0.1,0.2,0.2,0.3,0.3l0,0
		c0.1,0.1,0.3,0.2,0.4,0.3l0.1,0.1c0.1,0.1,0.3,0.2,0.4,0.3l0,0c0.2,0.1,0.3,0.2,0.5,0.3c0,0,0.1,0,0.1,0.1c0.1,0,0.2,0.1,0.3,0.1
		c0.2,0.1,0.4,0.2,0.6,0.3c0.1,0,0.2,0.1,0.2,0.1c0.3,0.1,0.6,0.2,0.9,0.3l0,0c0.3,0.1,0.7,0.2,1.1,0.3l0,0c0.4,0.1,0.7,0.2,1.1,0.2
		c0.2,0,0.5,0.1,0.7,0.1l0,0c0.2,0,0.5,0,0.7,0.1l0,0c0.2,0,0.4,0,0.7,0l0,0c0.2,0,0.4,0,0.6,0l0,0c0.2,0,0.4,0,0.6,0l0,0
		c0.2,0,0.4,0,0.6-0.1l0,0c0.2,0,0.4-0.1,0.5-0.1l0,0c0.1,0,0.2,0,0.2-0.1c0.2,0,0.4-0.1,0.6-0.2h0.1c0.2-0.1,0.4-0.1,0.6-0.2
		c0.1-0.1,0.2-0.1,0.3-0.2l0,0c0.1-0.1,0.2-0.1,0.3-0.2c0,0,0.1,0,0.1-0.1c0.1-0.1,0.1-0.1,0.2-0.2c0,0,0,0,0.1-0.1s0.1-0.2,0.2-0.2
		l0,0c0.1-0.1,0.1-0.2,0.2-0.3l0,0c0-0.1,0.1-0.2,0.1-0.3l0.1-0.4l0,0l0,0l0,0c0-0.1,0-0.2,0.1-0.3c0-0.2,0-0.4-0.1-0.6
		s-0.2-0.4-0.3-0.6s-0.3-0.4-0.5-0.6c-0.1-0.1-0.2-0.2-0.4-0.3l5-3.1l0,0c0.1,0,0.1,0,0.2,0l0,0c0.1,0,0.1,0,0.2,0l0,0
		c0.1,0,0.1,0,0.2,0l0,0c0.1,0,0.1,0,0.2,0c0.2,0,0.4,0.1,0.7,0.1l0,0c0.2,0,0.4,0,0.6,0l0,0c0.2,0,0.4,0,0.6,0l0,0
		c0.2,0,0.4,0,0.6,0l0,0c0.2,0,0.4,0,0.6,0l0,0c0.2,0,0.3,0,0.5-0.1l0,0c0.2,0,0.3,0,0.5-0.1l0,0c0.1,0,0.2,0,0.3-0.1
		c0.2,0,0.4-0.1,0.6-0.2l0,0c0.2-0.1,0.4-0.1,0.5-0.2c0,0,0.1,0,0.1-0.1c0.2-0.1,0.3-0.2,0.4-0.3c0.1-0.1,0.2-0.1,0.2-0.2
		c0,0,0,0,0.1-0.1s0.1-0.1,0.2-0.2l0,0c0.1-0.1,0.1-0.2,0.1-0.2l0,0c0-0.1,0.1-0.2,0.1-0.3l0.1-0.4C238.2,51,238.2,51,238.2,51
		L238.2,51z M198.4,30.7c0,0.1-0.1,0.1-0.1,0.2l0,0C198.4,30.8,198.4,30.8,198.4,30.7z M197.7,31.4L197.7,31.4L197.7,31.4
		c0,0-0.1,0.1-0.2,0.1C197.6,31.4,197.7,31.4,197.7,31.4z M69.9,69.7L69.9,69.7C69.9,69.7,69.9,69.6,69.9,69.7L69.9,69.7z
		 M72.1,57.8L72.1,57.8L72.1,57.8L72.1,57.8z M73.7,58.2C73.6,58.2,73.6,58.2,73.7,58.2L73.7,58.2L73.7,58.2L73.7,58.2z M83.8,97.8
		L83.8,97.8L83.8,97.8L83.8,97.8z M10,109.4L10,109.4L10,109.4C10,109.5,10,109.5,10,109.4C10,109.5,10,109.5,10,109.4z M10.9,110.4
		L10.9,110.4c-0.1-0.1-0.3-0.2-0.4-0.4C10.6,110.2,10.8,110.3,10.9,110.4L10.9,110.4z M13.2,111.4L13.2,111.4L13.2,111.4
		c0.1,0,0.1,0,0.2,0C13.3,111.4,13.3,111.4,13.2,111.4z M14.1,111.5L14.1,111.5c-0.1,0-0.2,0-0.3,0C13.9,111.5,14,111.5,14.1,111.5z
		 M14,111.5L14,111.5C14.1,111.5,14.1,111.5,14,111.5C14.1,111.5,14.1,111.5,14,111.5L14,111.5z M172.4,152.8L172.4,152.8
		L172.4,152.8c-0.4,0-0.8,0-1.1-0.1C171.7,152.7,172.1,152.8,172.4,152.8z M184.7,108.9L184.7,108.9L184.7,108.9L184.7,108.9z
		 M192.5,78.9L192.5,78.9c-0.2,0-0.5,0-0.8,0C192,78.9,192.2,78.9,192.5,78.9z M227.2,41.5L227.2,41.5L227.2,41.5L227.2,41.5z
		 M226.9,41.9L226.9,41.9L226.9,41.9L226.9,41.9z M187.5,29L187.5,29L187.5,29L187.5,29L187.5,29z M166.2,34.4
		c0.2-0.1,0.4-0.2,0.6-0.3c0.2-0.1,0.3-0.2,0.5-0.3c0.1-0.1,0.2-0.2,0.3-0.4c0.1-0.1,0.1-0.3,0.1-0.4s0-0.3,0-0.4
		c0-0.1-0.1-0.3-0.2-0.4c-0.1-0.1-0.2-0.2-0.3-0.4l5.6-2.2c0.1,0,0.1,0,0.2,0c0.1,0,0.1,0,0.2,0c0.1,0,0.1,0,0.2,0
		c0.1,0,0.1,0,0.2,0c0.6,0.1,1.2,0.1,1.7,0.1c0.6,0,1.1,0,1.6-0.1s1-0.2,1.4-0.3c0.4-0.1,0.8-0.3,1.1-0.4l8.1,1
		c0.1,0.2,0.3,0.4,0.6,0.7c0.3,0.2,0.6,0.4,1,0.6s0.9,0.3,1.4,0.5c0.5,0.1,1.1,0.2,1.7,0.3c0.1,0,0.1,0,0.2,0c0.1,0,0.1,0,0.2,0
		c0.1,0,0.1,0,0.2,0c0.1,0,0.1,0,0.2,0l3.3,3.5c-0.2,0.1-0.4,0.2-0.6,0.3c-0.2,0.1-0.4,0.2-0.5,0.3s-0.3,0.2-0.4,0.4
		c-0.1,0.1-0.2,0.3-0.2,0.4c0,0.1-0.1,0.3,0,0.4c0,0.1,0.1,0.3,0.1,0.4c0.1,0.1,0.2,0.3,0.3,0.4s0.3,0.3,0.4,0.4l-5.6,2.6
		c-0.1,0-0.1,0-0.2,0c-0.1,0-0.1,0-0.2,0c-0.1,0-0.2,0-0.2,0c-0.1,0-0.2,0-0.2,0c-0.6-0.1-1.3-0.1-1.9-0.1c-0.6,0-1.2,0-1.8,0.1
		c-0.5,0.1-1.1,0.2-1.5,0.3c-0.5,0.1-0.8,0.3-1.2,0.5l-8.9-1.2c-0.1-0.3-0.3-0.5-0.6-0.8c-0.3-0.2-0.6-0.5-1-0.7s-0.9-0.4-1.4-0.5
		c-0.5-0.2-1.1-0.3-1.7-0.4c-0.1,0-0.1,0-0.2,0c-0.1,0-0.1,0-0.2,0c-0.1,0-0.1,0-0.2,0c-0.1,0-0.1,0-0.2,0l-2.5-3.6
		C165.8,34.6,166,34.5,166.2,34.4z M181.8,42.6L181.8,42.6L181.8,42.6L181.8,42.6z M181.6,43.1L181.6,43.1L181.6,43.1L181.6,43.1z
		 M133.4,37.4c0.2-0.1,0.5-0.2,0.7-0.3s0.4-0.2,0.6-0.4c0.2-0.1,0.3-0.3,0.4-0.4c0.1-0.1,0.2-0.3,0.3-0.4c0.1-0.1,0.1-0.3,0.1-0.4
		s0-0.3-0.1-0.4c-0.1-0.1-0.1-0.3-0.2-0.4l6.4-2.4c0.1,0,0.1,0,0.2,0c0.1,0,0.1,0,0.2,0c0.1,0,0.1,0,0.2,0c0.1,0,0.1,0,0.2,0
		c0.6,0.1,1.2,0.1,1.7,0.1c0.6,0,1.1,0,1.7-0.1c0.5-0.1,1-0.2,1.5-0.3c0.5-0.1,0.9-0.3,1.2-0.5l7.9,1c0,0.2,0.2,0.5,0.4,0.7
		s0.5,0.4,0.9,0.6s0.8,0.4,1.3,0.5s1.1,0.3,1.7,0.3c0.1,0,0.1,0,0.2,0c0.1,0,0.1,0,0.2,0c0.1,0,0.1,0,0.2,0s0.1,0,0.2,0l2.4,3.6
		c-0.3,0.1-0.5,0.2-0.7,0.3s-0.4,0.2-0.6,0.3c-0.2,0.1-0.3,0.2-0.5,0.4c-0.1,0.1-0.3,0.3-0.3,0.4s-0.1,0.1-0.1,0.2
		c0,0.1,0,0.1-0.1,0.2c0,0.1,0,0.1,0,0.2c0,0.1,0,0.1,0,0.2s0,0.2,0,0.3s0.1,0.2,0.1,0.3s0.1,0.2,0.2,0.3c0.1,0.1,0.1,0.2,0.2,0.3
		l-6.4,2.7c-0.1,0-0.1,0-0.2,0c-0.1,0-0.1,0-0.2,0c-0.1,0-0.1,0-0.2,0c-0.1,0-0.1,0-0.2,0c-0.6-0.1-1.3-0.1-1.9-0.1
		c-0.6,0-1.2,0-1.8,0.1s-1.1,0.2-1.6,0.4s-1,0.3-1.4,0.6l-8.8-1.3c0-0.3-0.2-0.6-0.4-0.8c-0.2-0.3-0.5-0.5-0.9-0.7s-0.8-0.4-1.3-0.6
		s-1-0.3-1.7-0.4c-0.1,0-0.1,0-0.2,0c-0.1,0-0.1,0-0.2,0c-0.1,0-0.1,0-0.2,0c-0.1,0-0.1,0-0.2,0l-1.6-3.8
		C132.9,37.6,133.1,37.5,133.4,37.4z M152.1,50.2L152.1,50.2L152.1,50.2L152.1,50.2L152.1,50.2L152.1,50.2L152.1,50.2z M148.3,49.2
		L148.3,49.2L148.3,49.2L148.3,49.2z M134.6,47c0.1,0,0.2,0,0.2,0C134.7,47,134.6,47,134.6,47L134.6,47L134.6,47z M131.8,41.5
		L131.8,41.5L131.8,41.5L131.8,41.5L131.8,41.5z M130.8,41.7L130.8,41.7L130.8,41.7L130.8,41.7z M130.1,47.3c0.1,0,0.1,0,0.2,0l0,0
		c0.1,0,0.1,0,0.2,0l0,0c0.1,0,0.1,0,0.2,0c0.3,0,0.6,0.1,1,0.1l0,0c0.3,0,0.6,0,1,0l0,0c0.3,0,0.6,0,0.9,0l0,0
		c0.3,0,0.6-0.1,0.9-0.1l0,0c0.2,0,0.5-0.1,0.7-0.1c0.1,0,0.2,0,0.3-0.1c0.2,0,0.3-0.1,0.5-0.1c0.1,0,0.2-0.1,0.3-0.1
		c0.2-0.1,0.3-0.1,0.5-0.2c0.1,0,0.2-0.1,0.2-0.1c0.2-0.1,0.4-0.2,0.6-0.3l8.9,1.3c0,0.1,0,0.2,0.1,0.3c0,0,0,0,0,0.1
		s0.1,0.2,0.2,0.3l0,0c0.1,0.1,0.1,0.2,0.2,0.3c0,0,0,0,0.1,0.1s0.2,0.2,0.3,0.3l0,0c0.1,0.1,0.2,0.2,0.3,0.3c0,0,0.1,0,0.1,0.1
		c0.1,0.1,0.3,0.2,0.4,0.2l0,0c0.1,0.1,0.3,0.1,0.5,0.2c0,0,0.1,0,0.1,0.1c0.2,0.1,0.3,0.1,0.5,0.2c0.3,0.1,0.6,0.2,0.9,0.2l0,0
		c0.3,0.1,0.6,0.1,0.9,0.2c0.1,0,0.2,0,0.2,0l0,0c0.1,0,0.1,0,0.2,0l0,0c0.1,0,0.1,0,0.2,0c0.1,0,0.2,0,0.2,0l2.2,4.3
		c-0.2,0.1-0.5,0.2-0.7,0.3c-0.3,0.1-0.5,0.3-0.7,0.4c-0.2,0.2-0.4,0.3-0.6,0.5c-0.2,0.2-0.3,0.4-0.4,0.6c-0.1,0.2-0.2,0.4-0.2,0.6
		c0,0.1,0,0.3,0,0.4c0,0,0,0,0-0.1v0.4c0,0.1,0,0.2,0,0.4c0,0.1,0.1,0.2,0.1,0.4c0,0.1,0.1,0.2,0.2,0.3l0,0l-7.3,3.5
		c-0.1,0-0.2,0-0.2-0.1c-0.1,0-0.2,0-0.2-0.1c-0.1,0-0.2,0-0.3-0.1c-0.1,0-0.2,0-0.3,0c-0.7-0.1-1.5-0.2-2.2-0.2s-1.4,0.1-2.1,0.2
		c-0.7,0.1-1.3,0.3-1.9,0.5c-0.6,0.2-1.1,0.5-1.6,0.8l-9.8-1.7v-0.1l0,0l0,0l0,0l0,0l0,0l0,0l0,0l0,0l0,0l0,0l0,0l0,0l0,0l0,0l0,0
		c0-0.4-0.1-0.7-0.3-1.1c-0.2-0.3-0.5-0.7-0.9-0.9c-0.4-0.3-0.9-0.5-1.4-0.7s-1.2-0.4-1.9-0.5c-0.1,0-0.2,0-0.3,0
		c-0.1,0-0.2,0-0.3,0c-0.1,0-0.2,0-0.3,0c-0.1,0-0.2,0-0.3,0L119,54c0.3-0.1,0.6-0.2,0.8-0.3c0.1,0,0.1-0.1,0.2-0.1s0.2-0.1,0.2-0.1
		c0.1,0,0.1-0.1,0.2-0.1s0.2-0.1,0.2-0.1l0,0c0.1-0.1,0.2-0.1,0.3-0.2l0,0c0.1-0.1,0.2-0.1,0.3-0.2l0,0c0.1-0.1,0.2-0.2,0.3-0.2l0,0
		c0.1-0.1,0.2-0.2,0.2-0.3c0.1-0.1,0.2-0.2,0.2-0.3l0,0c0.1-0.1,0.1-0.2,0.2-0.3l0,0c0-0.1,0.1-0.2,0.1-0.3l0,0c0-0.1,0-0.2,0-0.3
		v-0.4l0,0l0,0l0,0v0.1V51l0,0c0-0.2,0-0.3,0-0.5c0-0.1,0-0.1-0.1-0.2l7.3-3C129.9,47.2,130,47.2,130.1,47.3L130.1,47.3z
		 M152.7,59.5L152.7,59.5L152.7,59.5L152.7,59.5z M152.4,59.2c-0.1-0.1-0.1-0.2-0.2-0.2l0,0C152.2,59,152.3,59.1,152.4,59.2
		L152.4,59.2z M145,75.4L145,75.4L145,75.4L145,75.4z M144.3,75.5L144.3,75.5L144.3,75.5L144.3,75.5L144.3,75.5z M134.5,64.8
		L134.5,64.8L134.5,64.8z M120.2,53.3c-0.3,0.1-0.6,0.2-0.9,0.3C119.6,53.5,119.9,53.4,120.2,53.3L120.2,53.3z M120.6,53.1
		L120.6,53.1L120.6,53.1c-0.1,0-0.2,0.1-0.3,0.1C120.4,53.2,120.5,53.1,120.6,53.1z M120.7,53c0.1,0,0.2-0.1,0.2-0.1l0,0l0,0
		C120.9,52.9,120.8,53,120.7,53z M122.4,51.6L122.4,51.6L122.4,51.6L122.4,51.6L122.4,51.6z M122.6,51.3L122.6,51.3L122.6,51.3
		L122.6,51.3z M122.7,50.9C122.7,50.9,122.6,50.9,122.7,50.9C122.6,50.9,122.6,50.9,122.7,50.9C122.6,50.9,122.7,50.9,122.7,50.9z
		 M123.8,35.3L123.8,35.3L123.8,35.3L123.8,35.3L123.8,35.3L123.8,35.3L123.8,35.3L123.8,35.3L123.8,35.3L123.8,35.3L123.8,35.3z
		 M123.7,35.5L123.7,35.5L123.7,35.5L123.7,35.5L123.7,35.5L123.7,35.5L123.7,35.5z M98.8,40.6c0.3-0.1,0.6-0.2,0.8-0.3
		c0.3-0.1,0.5-0.2,0.7-0.4c0.2-0.1,0.4-0.3,0.6-0.4c0.2-0.2,0.3-0.3,0.4-0.5s0.2-0.3,0.2-0.4s0-0.3,0-0.4s-0.1-0.3-0.1-0.4l7.2-2.5
		c0.1,0,0.1,0,0.2,0s0.1,0,0.2,0s0.1,0,0.2,0s0.1,0,0.2,0c0.6,0.1,1.1,0.1,1.7,0.1s1.2,0,1.7-0.1c0.6-0.1,1.1-0.2,1.6-0.3
		s1-0.3,1.4-0.5l7.9,1.1c0,0.2,0.1,0.5,0.2,0.7c0.2,0.2,0.4,0.4,0.7,0.6c0.3,0.2,0.7,0.4,1.2,0.5s1,0.3,1.6,0.4c0.1,0,0.1,0,0.2,0
		l0,0c0.1,0,0.1,0,0.2,0l0,0l0,0l0,0l0,0l0,0l0,0l0,0h0.1c0,0,0,0,0.1,0l0,0l0,0l0,0c0.1,0,0.1,0,0.2,0l1.4,3.8
		c-0.3,0.1-0.6,0.2-0.8,0.3c-0.3,0.1-0.5,0.2-0.7,0.3s-0.4,0.3-0.6,0.4s-0.3,0.3-0.5,0.4c-0.1,0.2-0.2,0.3-0.3,0.5
		c-0.1,0.2-0.1,0.3-0.1,0.5s0,0.3,0.1,0.5c0,0.2,0.1,0.3,0.2,0.5l-7.4,2.9c-0.1,0-0.1,0-0.2,0s-0.1,0-0.2,0s-0.1,0-0.2,0
		s-0.1,0-0.2,0c-0.6-0.1-1.3-0.1-1.9-0.1s-1.3,0-1.9,0.1s-1.2,0.2-1.8,0.4c-0.6,0.2-1.1,0.4-1.6,0.6l-8.7-1.4c0.1-0.3,0-0.6-0.1-0.9
		c-0.1-0.3-0.4-0.5-0.7-0.8c-0.3-0.2-0.7-0.4-1.2-0.6c-0.5-0.2-1-0.3-1.6-0.4c-0.1,0-0.1,0-0.2,0s-0.1,0-0.2,0s-0.1,0-0.2,0
		s-0.1,0-0.2,0l-0.5-4C98.2,40.8,98.5,40.7,98.8,40.6z M109.8,50.3L109.8,50.3L109.8,50.3L109.8,50.3z M96,44.9L96,44.9L96,44.9
		L96,44.9z M91.2,40.9L91.2,40.9L91.2,40.9L91.2,40.9z M89.8,48.9L89.8,48.9L89.8,48.9L89.8,48.9z M91.1,72.7L91.1,72.7L91.1,72.7
		L91.1,72.7z M91.2,70.4L91.2,70.4L91.2,70.4L91.2,70.4L91.2,70.4L91.2,70.4L91.2,70.4L91.2,70.4L91.2,70.4z M91.3,72.9L91.3,72.9
		L91.3,72.9L91.3,72.9z M84,66.6L84,66.6c0-0.4,0-0.8-0.1-1.1c-0.1-0.4-0.3-0.7-0.6-1c-0.3-0.3-0.7-0.6-1.2-0.8s-1.1-0.4-1.8-0.5
		c-0.1,0-0.2,0-0.2,0c-0.1,0-0.2,0-0.3,0c-0.1,0-0.2,0-0.3,0c-0.1,0-0.2,0-0.3,0l0.2-5.2c0.4-0.1,0.7-0.2,1.1-0.4
		c0.3-0.1,0.7-0.3,1-0.4c0.3-0.2,0.6-0.3,0.9-0.5s0.5-0.4,0.7-0.6s0.4-0.4,0.5-0.6s0.2-0.4,0.3-0.6c0.1-0.2,0.1-0.4,0.1-0.6
		s0-0.4-0.1-0.5l8.4-3.1c0.1,0,0.1,0,0.2,0s0.1,0,0.2,0s0.1,0,0.2,0s0.1,0,0.2,0c0.6,0.1,1.3,0.2,1.9,0.2c0.7,0,1.3,0,2-0.1
		s1.3-0.2,1.9-0.4s1.1-0.4,1.6-0.6l8.8,1.4c0,0.3,0,0.6,0.2,0.9c0.2,0.3,0.4,0.6,0.7,0.8c0.3,0.3,0.8,0.5,1.3,0.7s1.1,0.3,1.7,0.5
		c0.1,0,0.2,0,0.2,0c0.1,0,0.2,0,0.2,0c0.1,0,0.2,0,0.2,0c0.1,0,0.2,0,0.2,0l1.1,4.9c-0.3,0.1-0.7,0.2-1,0.4
		c-0.3,0.1-0.6,0.3-0.9,0.4c-0.3,0.2-0.5,0.3-0.7,0.5s-0.4,0.4-0.6,0.6c-0.1,0.1-0.2,0.3-0.3,0.4c0,0,0,0.1-0.1,0.1l-0.1,0.1
		c0,0.1,0,0.1-0.1,0.2v0.1l0,0v-0.1v0.1l0,0c0,0.1-0.1,0.2-0.1,0.4l0,0v0.1c0,0.1,0,0.2,0,0.3v0.1l0,0l0,0l0,0l0,0
		c0,0.1,0,0.1,0.1,0.2c0,0,0,0,0,0.1l0,0l0,0c0,0.1,0.1,0.2,0.1,0.2l0,0l-8.9,3.8c-0.1,0-0.2,0-0.2-0.1c-0.1,0-0.2,0-0.2-0.1
		c-0.1,0-0.2,0-0.2-0.1c-0.1,0-0.2,0-0.3,0c-0.7-0.1-1.5-0.2-2.2-0.2s-1.5,0.1-2.2,0.2s-1.5,0.3-2.1,0.5c-0.7,0.2-1.3,0.5-1.9,0.8
		L84,66.6z M104.5,67.9L104.5,67.9L104.5,67.9L104.5,67.9z M103.5,67.4L103.5,67.4L103.5,67.4L103.5,67.4z M111.9,63.4L111.9,63.4
		L111.9,63.4L111.9,63.4z M111.9,61.4L111.9,61.4C111.9,61.4,111.9,61.3,111.9,61.4C112,61.4,112,61.4,111.9,61.4z M93.3,74.5
		L93.3,74.5C93.3,74.5,93.3,74.4,93.3,74.5C93.3,74.4,93.3,74.5,93.3,74.5z M93.4,74.5C93.4,74.5,93.3,74.5,93.4,74.5
		C93.3,74.5,93.3,74.5,93.4,74.5L93.4,74.5L93.4,74.5z M95.3,75L95.3,75c0.1,0,0.1,0,0.2,0C95.4,75,95.3,75,95.3,75z M96,75.1
		L96,75.1L96,75.1L96,75.1z M96,75.1c-0.1,0-0.2,0-0.3,0C95.9,75.1,96,75.1,96,75.1L96,75.1z M97.4,90.9L97.4,90.9
		c0.2,0,0.4,0,0.6,0C97.8,91,97.6,91,97.4,90.9z M101.2,90.8L101.2,90.8L101.2,90.8c0.1,0,0.2,0,0.3-0.1
		C101.4,90.7,101.3,90.8,101.2,90.8z M118.3,89L118.3,89L118.3,89L118.3,89L118.3,89z M121.4,96L121.4,96L121.4,96L121.4,96
		L121.4,96z M122.9,96.4L122.9,96.4L122.9,96.4L122.9,96.4z M121.7,86.8c-0.7,0.3-1.4,0.6-2,1l-11.3-2.3h-0.1c0-0.5,0-1-0.2-1.4
		s-0.5-0.9-0.9-1.2c-0.4-0.4-0.9-0.7-1.5-1s-1.3-0.5-2.1-0.7c-0.1,0-0.2,0-0.3-0.1c-0.1,0-0.2,0-0.3,0c-0.1,0-0.2,0-0.3,0
		c-0.1,0-0.2,0-0.3,0l-0.8-6.6c0.4-0.1,0.8-0.3,1.1-0.4c0.4-0.2,0.7-0.3,1-0.5s0.6-0.4,0.9-0.6s0.5-0.4,0.7-0.7
		c0.2-0.2,0.3-0.5,0.5-0.7c0.1-0.2,0.2-0.5,0.2-0.7s0.1-0.5,0-0.7c0-0.2-0.1-0.4-0.2-0.6l9-4c0.1,0,0.1,0,0.2,0.1
		c0.1,0,0.2,0,0.2,0.1c0.1,0,0.2,0,0.2,0c0.1,0,0.2,0,0.2,0c0.7,0.1,1.4,0.2,2.2,0.2c0.7,0,1.5-0.1,2.2-0.2s1.4-0.3,2-0.5
		s1.2-0.5,1.7-0.7l10.1,1.8c0,0.4,0.2,0.8,0.4,1.1c0.2,0.4,0.6,0.7,1,1s0.9,0.6,1.5,0.8c0.6,0.2,1.3,0.4,2,0.6c0.1,0,0.2,0,0.3,0
		s0.2,0,0.3,0s0.2,0,0.3,0s0.2,0,0.3,0l2.3,6.2c-0.4,0.1-0.7,0.3-1,0.5s-0.6,0.4-0.9,0.6c-0.3,0.2-0.5,0.4-0.7,0.6s-0.4,0.5-0.6,0.7
		c-0.2,0.3-0.3,0.5-0.3,0.8c-0.1,0.3-0.1,0.5-0.1,0.8s0.1,0.5,0.1,0.8c0.1,0.3,0.2,0.5,0.4,0.8l-9.2,4.9c-0.1,0-0.2-0.1-0.3-0.1
		s-0.2,0-0.3-0.1c-0.1,0-0.2,0-0.3-0.1c-0.1,0-0.2,0-0.3-0.1c-0.8-0.2-1.7-0.2-2.5-0.2s-1.7,0.1-2.5,0.2
		C123.1,86.3,122.4,86.5,121.7,86.8z M123.7,96.5L123.7,96.5L123.7,96.5L123.7,96.5z M124.6,96.6c-0.3,0-0.6,0-0.8-0.1l0,0l0,0l0,0
		c-0.1,0-0.2,0-0.3,0c0.1,0,0.2,0,0.3,0C124.1,96.6,124.4,96.6,124.6,96.6L124.6,96.6z M124.7,96.6L124.7,96.6c0.3,0,0.5,0,0.8,0
		C125.2,96.6,124.9,96.6,124.7,96.6z M107.9,145.4L107.9,145.4L107.9,145.4L107.9,145.4L107.9,145.4L107.9,145.4L107.9,145.4z
		 M106.6,133.8L106.6,133.8c-0.2,0.1-0.4,0.1-0.6,0.2C106.2,133.9,106.4,133.8,106.6,133.8z M102.7,134.4L102.7,134.4
		c-0.1,0-0.3,0-0.4,0h-0.1C102.4,134.4,102.5,134.4,102.7,134.4z M66.3,97.2L66.3,97.2L66.3,97.2L66.3,97.2L66.3,97.2L66.3,97.2
		L66.3,97.2z M66,97.7L66,97.7L66,97.7L66,97.7z M58.6,91.4L58.6,91.4c0,0.1-0.1,0.3-0.1,0.4C58.5,91.7,58.5,91.6,58.6,91.4z
		 M34.9,144.9c-0.1,0-0.2,0-0.3-0.1C34.7,144.8,34.8,144.9,34.9,144.9L34.9,144.9z M28.2,179.2L28.2,179.2L28.2,179.2
		c0.1,0,0.2,0,0.3,0C28.4,179.2,28.3,179.2,28.2,179.2z M29.1,179.3L29.1,179.3L29.1,179.3L29.1,179.3z M38.6,129.4
		c-1.1,0.4-2.1,1-3.1,1.6c-0.2,0.1-0.3,0.2-0.5,0.3c0.2-0.1,0.3-0.2,0.5-0.3l-12.3-3.5l-0.4-0.1c0.4-0.8,0.6-1.5,0.6-2.2
		c0.1-0.7-0.1-1.4-0.3-1.9c-0.3-0.6-0.7-1.1-1.3-1.5c-0.6-0.4-1.3-0.8-2.2-1c-0.1,0-0.2-0.1-0.3-0.1c-0.1,0-0.2,0-0.3-0.1
		c-0.1,0-0.2,0-0.3-0.1c-0.1,0-0.2,0-0.3,0l3.2-10c0.6-0.2,1.1-0.4,1.6-0.7c0.5-0.2,1.1-0.5,1.6-0.8s1-0.6,1.4-0.9s0.9-0.7,1.3-1
		c0.4-0.4,0.7-0.7,1-1.1s0.5-0.7,0.7-1s0.3-0.7,0.4-1s0.2-0.7,0.2-1L43,97.2c0.1,0,0.2,0.1,0.2,0.1c0.1,0,0.2,0.1,0.3,0.1
		s0.2,0.1,0.3,0.1s0.2,0,0.3,0.1c0.8,0.2,1.7,0.3,2.6,0.3c0.9,0,1.8-0.1,2.7-0.3c0.9-0.2,1.8-0.4,2.7-0.7c0.9-0.3,1.7-0.7,2.5-1.1
		l11.2,2.6c-0.2,0.6-0.3,1.2-0.2,1.7c0.1,0.5,0.3,1.1,0.6,1.5c0.3,0.5,0.8,0.9,1.4,1.2c0.6,0.4,1.3,0.6,2.2,0.8c0.1,0,0.2,0,0.3,0.1
		c0.1,0,0.2,0,0.3,0.1c0.1,0,0.2,0,0.3,0c0.1,0,0.2,0,0.3,0l-0.6,9.3c-0.5,0.2-1,0.4-1.5,0.7c-0.5,0.3-0.9,0.5-1.4,0.8
		c-0.4,0.3-0.9,0.6-1.2,1c-0.4,0.3-0.8,0.7-1.1,1.1c-0.2,0.2-0.3,0.4-0.5,0.6l0,0c0,0,0,0.1-0.1,0.1c0,0,0,0.1-0.1,0.1
		c-0.1,0.1-0.2,0.2-0.2,0.4l0,0l0,0l0,0l0,0c0,0.1-0.1,0.2-0.1,0.2c-0.1,0.1-0.1,0.2-0.2,0.4l0,0l0,0l0,0l0,0l0,0
		c0,0.1-0.1,0.2-0.1,0.2c0,0.1-0.1,0.2-0.1,0.3l0,0c0,0.1-0.1,0.2-0.1,0.3c0,0.1-0.1,0.2-0.1,0.3l0,0c0,0.1,0,0.2,0,0.3
		c0,0.1,0,0.2-0.1,0.3l0,0l0,0l0,0c0,0.1,0,0.2,0,0.3c0,0.1,0,0.2,0,0.3l0,0l0,0c0,0.1,0,0.1,0,0.2s0,0.2,0,0.3l0,0l0,0l-14.4,7.6
		c-0.1,0-0.2-0.1-0.3-0.1s-0.2-0.1-0.3-0.1s-0.2-0.1-0.3-0.1s-0.2-0.1-0.3-0.1c-0.9-0.3-1.9-0.4-3-0.4c-1,0-2.1,0.1-3.2,0.3
		C40.7,128.7,39.6,129,38.6,129.4z M66.3,125.1L66.3,125.1L66.3,125.1L66.3,125.1z M63.9,119c0.1-0.2,0.1-0.3,0.2-0.5l0,0
		C64,118.7,64,118.9,63.9,119z M65.1,124.2c0.2,0.1,0.3,0.3,0.5,0.4C65.5,124.5,65.3,124.4,65.1,124.2L65.1,124.2L65.1,124.2z
		 M49.9,129.3L49.9,129.3L49.9,129.3L49.9,129.3z M58.2,179.3L58.2,179.3L58.2,179.3L58.2,179.3z M69.4,192.2L69.4,192.2L69.4,192.2
		L69.4,192.2z M95.3,153.6c-0.2,0.6-0.4,1.1-0.4,1.7c-0.1,0.6-0.1,1.1-0.1,1.7c0,0.6,0.1,1.1,0.2,1.6l0,0l0,0l0,0l0,0l0,0l0,0
		l-5,3.4l-10.5,7.1c-0.1-0.1-0.2-0.1-0.4-0.2c-0.1-0.1-0.3-0.1-0.4-0.2c-0.1-0.1-0.3-0.1-0.4-0.2c-0.1,0-0.3-0.1-0.4-0.1
		c-1.2-0.4-2.4-0.5-3.6-0.5s-2.5,0.2-3.8,0.5s-2.5,0.8-3.7,1.4c-1.2,0.6-2.4,1.4-3.4,2.3L48,167.2c0-0.1,0.1-0.2,0.1-0.3
		c0,0,0,0,0-0.1c0.1-0.2,0.1-0.4,0.1-0.7l0,0c0-0.2,0.1-0.4,0.1-0.7c0,0,0,0,0-0.1c0-0.2,0-0.4,0-0.6c0,0,0,0,0-0.1s0-0.3,0-0.4
		c0-0.1,0-0.2,0-0.3s0-0.3,0-0.4c0-0.1,0-0.2,0-0.3s-0.1-0.3-0.1-0.4c0-0.1,0-0.1,0-0.2c-0.1-0.2-0.1-0.4-0.2-0.6l-0.2-0.4l0,0l0,0
		v0.1c-0.1-0.2-0.1-0.4-0.2-0.6c-0.4-0.8-1-1.6-1.7-2.2c-0.7-0.6-1.6-1.1-2.7-1.4c-0.1,0-0.3-0.1-0.4-0.1c-0.1,0-0.3-0.1-0.4-0.1
		c-0.1,0-0.3-0.1-0.4-0.1c-0.1,0-0.3,0-0.4-0.1l2.4-13.7c0.6-0.3,1.2-0.6,1.8-0.9c0.6-0.3,1.2-0.7,1.7-1.1c0.5-0.4,1.1-0.8,1.5-1.3
		c0.5-0.4,0.9-0.9,1.3-1.4c0.4-0.5,0.7-1,1-1.4c0.3-0.5,0.5-1,0.7-1.4c0.2-0.5,0.3-0.9,0.4-1.4c0.1-0.4,0.1-0.9,0.1-1.3l14.6-7.9
		c0.1,0,0.2,0.1,0.3,0.1c0.1,0,0.2,0.1,0.3,0.1c0.1,0,0.2,0.1,0.3,0.1c0.1,0,0.2,0.1,0.3,0.1c0.9,0.2,1.9,0.4,3,0.4s2.1-0.1,3.1-0.3
		c1-0.2,2.1-0.5,3-1c1-0.4,1.9-0.9,2.7-1.5l13.4,3.4c-0.1,0.8-0.1,1.5,0.1,2.3c0.2,0.7,0.5,1.4,1,2s1.1,1.2,1.9,1.7s1.7,0.9,2.7,1.1
		c0.1,0,0.2,0.1,0.4,0.1c0.1,0,0.2,0.1,0.4,0.1c0.1,0,0.2,0,0.4,0.1c0.1,0,0.2,0,0.4,0.1l1,12.6c-0.6,0.3-1.1,0.6-1.7,1
		c-0.5,0.4-1,0.7-1.5,1.2c-0.5,0.4-0.9,0.9-1.3,1.4s-0.8,1-1.1,1.6C95.8,152.5,95.5,153.1,95.3,153.6z M141.9,176.8L141.9,176.8
		c0.1,0,0.2,0,0.3,0C142.1,176.8,142,176.8,141.9,176.8z M163.2,136.9c-0.4,0.3-0.8,0.7-1.1,1.1c-0.3,0.4-0.6,0.8-0.9,1.2
		c-0.3,0.4-0.5,0.9-0.6,1.4c-0.2,0.5-0.3,1-0.3,1.5c-0.1,0.5,0,1,0,1.5c0.1,0.5,0.2,1,0.3,1.5c0.2,0.5,0.4,1,0.6,1.5l-12.1,9.6
		c-0.1-0.1-0.3-0.1-0.4-0.2c-0.1-0.1-0.3-0.1-0.4-0.2c-0.1,0-0.3-0.1-0.4-0.1c-0.1,0-0.3-0.1-0.4-0.1c-1.2-0.3-2.4-0.5-3.6-0.5
		c-1.2,0-2.3,0.1-3.4,0.4c-1.1,0.3-2.2,0.7-3.1,1.3c-1,0.6-1.9,1.2-2.7,2l-16.1-4.5l0,0c0-1-0.1-1.9-0.4-2.8
		c-0.3-0.9-0.8-1.7-1.4-2.5c-0.6-0.7-1.3-1.4-2.2-1.9c-0.9-0.5-1.8-1-2.9-1.3c-0.1,0-0.2-0.1-0.4-0.1c-0.1,0-0.2-0.1-0.4-0.1
		c-0.1,0-0.3,0-0.4-0.1c-0.1,0-0.3,0-0.4-0.1l-1.4-12.5c0.5-0.2,1-0.5,1.5-0.8s0.9-0.6,1.3-1s0.8-0.7,1.1-1.1
		c0.3-0.4,0.6-0.8,0.9-1.3c0.3-0.4,0.4-0.9,0.6-1.3c0.1-0.4,0.2-0.9,0.3-1.3c0-0.4,0-0.9,0-1.3c-0.1-0.4-0.2-0.8-0.3-1.2l11.7-7.1
		c0.1,0,0.2,0.1,0.3,0.1c0.1,0,0.2,0.1,0.3,0.1s0.2,0.1,0.3,0.1c0.1,0,0.2,0.1,0.3,0.1c1,0.2,2,0.3,3,0.3s2-0.1,2.9-0.3
		c0.9-0.2,1.8-0.5,2.7-0.9c0.8-0.4,1.6-0.8,2.2-1.4l13.7,3.1c0.1,0.7,0.3,1.4,0.7,2.1s0.9,1.3,1.5,1.9s1.4,1.1,2.2,1.5
		c0.9,0.4,1.8,0.8,2.9,1c0.1,0,0.3,0.1,0.4,0.1c0.1,0,0.3,0.1,0.4,0.1c0.1,0,0.3,0,0.4,0.1c0.1,0,0.3,0,0.4,0.1l4.2,11.5
		C164.1,136.3,163.6,136.6,163.2,136.9z M165.2,150.7c-0.1-0.1-0.2-0.1-0.2-0.2c-0.1-0.1-0.2-0.1-0.3-0.2
		C164.8,150.5,165,150.6,165.2,150.7L165.2,150.7z M168.1,123L168.1,123L168.1,123L168.1,123z M165,111.2c-0.1,0-0.2-0.1-0.3-0.1
		s-0.2-0.1-0.3-0.1s-0.2-0.1-0.3-0.1s-0.2-0.1-0.4-0.1c-1-0.2-2-0.3-2.9-0.3c-1,0-1.9,0.1-2.8,0.3c-0.9,0.2-1.7,0.5-2.5,0.8
		c-0.8,0.4-1.4,0.8-2,1.3l-13.5-3c-0.1-0.6-0.2-1.3-0.6-1.9c-0.3-0.6-0.7-1.1-1.3-1.6c-0.5-0.5-1.2-0.9-1.9-1.3s-1.6-0.6-2.5-0.8
		c-0.1,0-0.2,0-0.3-0.1c-0.1,0-0.2,0-0.3-0.1c-0.1,0-0.2,0-0.3,0s-0.2,0-0.3,0l-2.2-8.5c0.4-0.2,0.8-0.4,1.2-0.6s0.7-0.4,1-0.7
		c0.3-0.2,0.6-0.5,0.8-0.8s0.5-0.6,0.6-0.9c0.2-0.3,0.3-0.6,0.4-0.9c0.1-0.3,0.1-0.6,0.1-0.9s0-0.6-0.1-0.9s-0.2-0.6-0.3-0.8l9.3-5
		c0.1,0,0.2,0,0.3,0.1c0.1,0,0.2,0,0.3,0.1c0.1,0,0.2,0,0.3,0.1c0.1,0,0.2,0,0.3,0.1c0.8,0.2,1.7,0.2,2.5,0.2s1.6-0.1,2.4-0.2
		c0.8-0.1,1.5-0.3,2.1-0.6c0.7-0.3,1.2-0.6,1.7-1l11.8,2.2c0.1,0.5,0.4,1,0.7,1.4c0.4,0.5,0.8,0.9,1.4,1.3c0.6,0.4,1.2,0.8,1.9,1.1
		c0.7,0.3,1.5,0.5,2.4,0.7c0.1,0,0.2,0,0.3,0.1s0.2,0,0.3,0s0.2,0,0.3,0s0.2,0,0.3,0l4.1,8c-0.4,0.2-0.7,0.4-1,0.6s-0.6,0.5-0.9,0.7
		c-0.3,0.3-0.5,0.5-0.7,0.8s-0.3,0.6-0.5,1c-0.1,0.3-0.2,0.7-0.2,1s0,0.7,0.1,1s0.2,0.7,0.3,1c0.2,0.3,0.3,0.7,0.6,1L165,111.2z
		 M165.8,82L165.8,82L165.8,82z M179.9,88.1L179.9,88.1L179.9,88.1L179.9,88.1z M181.3,85.9L181.3,85.9L181.3,85.9L181.3,85.9z
		 M183.6,71.8c-0.2,0.2-0.4,0.4-0.5,0.6s-0.3,0.4-0.3,0.7c-0.1,0.2-0.1,0.5-0.1,0.7s0,0.5,0.1,0.7s0.2,0.5,0.3,0.7s0.3,0.5,0.5,0.7
		l-7.6,4.5c-0.1,0-0.2-0.1-0.3-0.1s-0.2-0.1-0.3-0.1s-0.2,0-0.3-0.1c-0.1,0-0.2,0-0.3-0.1c-0.8-0.2-1.7-0.2-2.5-0.2
		s-1.6,0.1-2.3,0.2s-1.4,0.3-2.1,0.6c-0.6,0.3-1.2,0.6-1.6,1l-11.5-2.1c-0.1-0.5-0.3-0.9-0.6-1.3s-0.7-0.8-1.2-1.2
		c-0.5-0.4-1.1-0.7-1.7-0.9c-0.7-0.3-1.4-0.5-2.2-0.6c-0.1,0-0.2,0-0.3,0s-0.2,0-0.3,0s-0.2,0-0.3,0s-0.2,0-0.3,0l-2.5-6.1
		c0.3-0.1,0.7-0.3,1-0.4c0.3-0.2,0.6-0.3,0.8-0.5c0.3-0.2,0.5-0.4,0.7-0.6s0.4-0.4,0.5-0.6s0.2-0.4,0.3-0.7c0.1-0.2,0.1-0.4,0-0.7
		c0-0.2-0.1-0.4-0.2-0.6c-0.1-0.2-0.2-0.4-0.3-0.6l7.6-3.7c0.1,0,0.2,0,0.2,0.1c0.1,0,0.2,0,0.2,0.1c0.1,0,0.2,0,0.2,0h0.2
		c0.7,0.1,1.5,0.2,2.2,0.2s1.4-0.1,2.1-0.2c0.7-0.1,1.3-0.3,1.8-0.5c0.6-0.2,1-0.4,1.4-0.7l10.2,1.6c0.1,0.4,0.4,0.7,0.7,1.1
		c0.3,0.3,0.7,0.7,1.2,1s1.1,0.6,1.7,0.8c0.6,0.2,1.4,0.4,2.1,0.5c0.1,0,0.2,0,0.3,0s0.2,0,0.3,0s0.2,0,0.3,0s0.2,0,0.3,0l3.8,5.8
		c-0.3,0.1-0.6,0.3-0.9,0.4C184.1,71.4,183.8,71.6,183.6,71.8z M174.9,59.6L174.9,59.6L174.9,59.6L174.9,59.6L174.9,59.6z
		 M175.2,59.3L175.2,59.3L175.2,59.3z M190.7,51.2c-0.2,0.1-0.4,0.3-0.6,0.4c-0.2,0.1-0.3,0.3-0.4,0.5c-0.1,0.2-0.2,0.3-0.3,0.5
		s-0.1,0.4-0.1,0.5c0,0.2,0.1,0.4,0.1,0.6c0.1,0.2,0.2,0.4,0.3,0.5c0.1,0.2,0.3,0.4,0.5,0.5l-6.4,3.4c-0.1,0-0.2,0-0.3-0.1
		c-0.1,0-0.2,0-0.3-0.1s-0.2,0-0.3,0s-0.2,0-0.3,0c-0.7-0.1-1.4-0.2-2.1-0.2c-0.7,0-1.4,0.1-2,0.2c-0.6,0.1-1.2,0.2-1.7,0.4
		s-1,0.4-1.4,0.7l-10-1.6c-0.1-0.3-0.3-0.7-0.6-1s-0.7-0.6-1.1-0.9c-0.4-0.3-1-0.5-1.5-0.7c-0.6-0.2-1.2-0.4-1.9-0.5
		c-0.1,0-0.2,0-0.2,0c-0.1,0-0.2,0-0.2,0c-0.1,0-0.2,0-0.2,0c-0.1,0-0.2,0-0.2,0l-2.5-4.6c0.3-0.1,0.6-0.2,0.8-0.3
		c0.3-0.1,0.5-0.2,0.7-0.4c0.2-0.1,0.4-0.3,0.5-0.4c0.2-0.2,0.3-0.3,0.4-0.5c0.1-0.2,0.2-0.3,0.2-0.5s0-0.3,0-0.5s-0.1-0.3-0.2-0.5
		c-0.1-0.2-0.2-0.3-0.4-0.5l6.3-2.8c0.1,0,0.2,0,0.2,0c0.1,0,0.2,0,0.2,0c0.1,0,0.2,0,0.2,0c0.1,0,0.2,0,0.2,0
		c0.6,0.1,1.3,0.1,1.9,0.1c0.6,0,1.2,0,1.8-0.1s1.1-0.2,1.6-0.4s0.9-0.3,1.2-0.6l9.1,1.3c0.1,0.3,0.3,0.6,0.6,0.8
		c0.3,0.3,0.7,0.5,1.1,0.7c0.4,0.2,1,0.4,1.5,0.6c0.6,0.2,1.2,0.3,1.9,0.4c0.1,0,0.2,0,0.3,0s0.2,0,0.3,0s0.2,0,0.3,0s0.2,0,0.3,0
		l3.5,4.3C191.2,51,190.9,51.1,190.7,51.2z M212.6,55.1L212.6,55.1L212.6,55.1z M219.6,60.4L219.6,60.4
		C219.7,60.4,219.7,60.4,219.6,60.4C219.7,60.4,219.7,60.4,219.6,60.4L219.6,60.4z M219.7,60.4L219.7,60.4L219.7,60.4L219.7,60.4z
		 M219.8,60.5L219.8,60.5c0.1,0,0.1,0,0.2,0C219.9,60.5,219.8,60.5,219.8,60.5z M221.8,60.5h-0.1l0,0l0,0l0,0H221.8L221.8,60.5
		L221.8,60.5z M223.6,60.3L223.6,60.3C223.6,60.3,223.7,60.3,223.6,60.3C223.7,60.3,223.6,60.3,223.6,60.3z M224.6,49.2
		c0.1,0.2,0.2,0.4,0.3,0.5c0.1,0.2,0.3,0.4,0.5,0.5c0.2,0.2,0.4,0.3,0.6,0.5l-5.3,3.2c-0.1,0-0.2,0-0.3-0.1c-0.1,0-0.2,0-0.3,0
		s-0.2,0-0.3,0s-0.2,0-0.3,0c-0.7-0.1-1.5-0.2-2.1-0.2s-1.3,0-1.9,0.1c-0.6,0.1-1.1,0.2-1.6,0.4s-0.8,0.4-1.1,0.7l-10.1-1.5
		c-0.2-0.3-0.5-0.6-0.8-0.9c-0.4-0.3-0.8-0.6-1.3-0.8s-1.1-0.5-1.7-0.7c-0.6-0.2-1.3-0.3-2-0.4c-0.1,0-0.2,0-0.2,0
		c-0.1,0-0.2,0-0.2,0h-0.2c-0.1,0-0.2,0-0.2,0l-3.6-4.3c0.2-0.1,0.5-0.2,0.7-0.3s0.4-0.2,0.5-0.4c0.2-0.1,0.3-0.3,0.4-0.4
		c0.1-0.1,0.2-0.3,0.2-0.5c0-0.1,0-0.1,0-0.2c0-0.1,0-0.1,0-0.2s0-0.1,0-0.2c0-0.1,0-0.1,0-0.2s-0.1-0.2-0.1-0.3s-0.1-0.2-0.2-0.3
		c-0.1-0.1-0.1-0.2-0.2-0.3c-0.1-0.1-0.2-0.2-0.3-0.3l5.5-2.7c0.1,0,0.1,0,0.2,0c0.1,0,0.1,0,0.2,0c0.1,0,0.2,0,0.2,0
		c0.1,0,0.2,0,0.2,0c0.7,0.1,1.3,0.1,1.9,0.1c0.6,0,1.2,0,1.7-0.1s1-0.2,1.5-0.3c0.4-0.2,0.8-0.3,1-0.5l9.1,1.2
		c0.2,0.3,0.5,0.5,0.8,0.8c0.4,0.2,0.8,0.5,1.3,0.7s1,0.4,1.6,0.6c0.6,0.2,1.2,0.3,1.9,0.4c0.1,0,0.2,0,0.2,0c0.1,0,0.2,0,0.2,0
		c0.1,0,0.2,0,0.2,0c0.1,0,0.2,0,0.2,0l4.5,4.1c-0.2,0.1-0.5,0.2-0.7,0.3s-0.4,0.2-0.5,0.4c-0.1,0.1-0.3,0.3-0.3,0.4
		c-0.1,0.2-0.1,0.3-0.1,0.5C224.5,48.9,224.6,49,224.6,49.2z M227.5,51.6L227.5,51.6L227.5,51.6L227.5,51.6z M230.6,52.5L230.6,52.5
		c0.1,0,0.1,0,0.2,0C230.8,52.6,230.7,52.5,230.6,52.5z M232,52.7C231.9,52.7,231.9,52.7,232,52.7C231.9,52.7,231.9,52.7,232,52.7
		L232,52.7L232,52.7z M232.6,52.8L232.6,52.8L232.6,52.8C232.7,52.8,232.7,52.8,232.6,52.8C232.7,52.8,232.7,52.8,232.6,52.8z
		 M233.2,52.8L233.2,52.8L233.2,52.8L233.2,52.8z M234.4,52.8L234.4,52.8L234.4,52.8L234.4,52.8L234.4,52.8z M238,51.4L238,51.4
		L238,51.4L238,51.4L238,51.4z"/>
	<line class="st112" x1="134.5" y1="64.8" x2="134.5" y2="64.8"/>
	<line class="st112" x1="202.7" y1="53.3" x2="212.9" y2="54.8"/>
	<line class="st112" x1="212.6" y1="55.1" x2="212.6" y2="55.1"/>
	<line class="st112" x1="175.2" y1="59.3" x2="175.2" y2="59.3"/>
	<line class="st112" x1="165.4" y1="57.5" x2="175.5" y2="59"/>
	<line class="st112" x1="126" y1="61.7" x2="126" y2="61.7"/>
	<line class="st112" x1="93.5" y1="68.3" x2="84" y2="66.6"/>
	<line class="st112" x1="147.9" y1="75.4" x2="145.5" y2="69.3"/>
	<line class="st112" x1="165.8" y1="82" x2="165.8" y2="82"/>
	<line class="st112" x1="108.4" y1="85.5" x2="119.7" y2="87.8"/>
	<line class="st112" x1="153.4" y1="113" x2="139.9" y2="110"/>
	
		<linearGradient id="SVGID_113_" gradientUnits="userSpaceOnUse" x1="35.25" y1="90.8" x2="35.25" y2="-101.9615" gradientTransform="matrix(1 0 0 1 0 118)">
		<stop  offset="0" style="stop-color:#B280B8"/>
		<stop  offset="1" style="stop-color:#8A4F9E"/>
	</linearGradient>
	<path class="st113" d="M35.5,131c-0.2,0.1-0.3,0.2-0.5,0.3"/>
	<line class="st112" x1="35.5" y1="131" x2="23.2" y2="127.6"/>
	<line class="st112" x1="149.1" y1="156.2" x2="161.2" y2="146.6"/>
	<line class="st112" x1="134.6" y1="158.9" x2="118.5" y2="154.3"/>
	<line class="st112" x1="63.3" y1="172.2" x2="48" y2="167.2"/>
</g>
<g>
	
		<linearGradient id="SVGID_114_" gradientUnits="userSpaceOnUse" x1="362.1" y1="17.1" x2="362.1" y2="199.2016" gradientTransform="matrix(1 0 0 -1 0 218)">
		<stop  offset="0" style="stop-color:#B280B8"/>
		<stop  offset="1" style="stop-color:#8A4F9E"/>
	</linearGradient>
	<path class="st114" d="M362.1,17.1c-50.7,0-91.9,41.1-91.9,91.9s41.1,91.9,91.9,91.9S454,159.7,454,109S412.9,17.1,362.1,17.1z
		 M362.2,188.1c-15.2,0-27.5-9.9-27.5-22.1h55C389.7,178.2,377.4,188.1,362.2,188.1z M404.9,159.1h-85.5v-15.7h85.5V159.1z
		 M404.6,135.1h-85.3c-10.3-12-12.6-22.3-12.6-22.3l25.6,5c-3.4-4.4-8-12.8-7.4-25c0,0-1.3-5.5,5.4-19.6c6.7-14.1,3.2-25.8,3.2-25.8
		s9.1,0.1,11.4,25.7c0,0,7.8-8.5,7.3-24.9s10.1-22,10.1-22s-4.2,9.9,1.7,20c5.8,9.7,5.9,19.5,6.6,30.7c0.1,1.2,0.4,2.9,1.1,3.9
		c0.5,0.7,1.2,1.4,2.1,1.5c0,0-5.2-30.4,10.3-40.4c0,0-2.8,14.2,2.1,22.1s13.3,20.3,10.2,37.1c-1.7,9.5-4.9,13.4-8,17.7l30.1-6.1
		C414.8,126.1,404.6,135.1,404.6,135.1z"/>
</g>
<linearGradient id="SVGID_115_" gradientUnits="userSpaceOnUse" x1="174" y1="109" x2="287.3" y2="109" gradientTransform="matrix(1 0 0 -1 0 218)">
	<stop  offset="0" style="stop-color:#B280B8"/>
	<stop  offset="1" style="stop-color:#8A4F9E"/>
</linearGradient>
<line class="st115" x1="285.8" y1="11.8" x2="175.5" y2="206.2"/>
</svg>
