<?xml version="1.0" encoding="utf-8"?>
<!-- Generator: Adobe Illustrator 20.1.0, SVG Export Plug-In . SVG Version: 6.00 Build 0)  -->
<svg version="1.0" id="Layer_1" xmlns="http://www.w3.org/2000/svg" xmlns:xlink="http://www.w3.org/1999/xlink" x="0px" y="0px"
	 width="238px" height="218px" viewBox="0 0 238 218" style="enable-background:new 0 0 238 218;" xml:space="preserve">
<style type="text/css">
	.st0{fill:#777777;}
</style>
<g>
	<path class="st0" d="M151.9,113.2v101.1c13.1-2.5,25.5-6.9,36.9-12.9V76.3L151.9,113.2z"/>
	<path class="st0" d="M126.8,138.2l-8.1,8.1l-8.1-8.1l-3.6-3.6V215c6.6,1,13.3,1.5,20.2,1.5c5.6,0,11.2-0.4,16.7-1v-94.4
		L126.8,138.2z"/>
	<path class="st0" d="M80,107.6l-17.7,17.7v74.2c11.4,6.4,23.7,11.3,36.9,14.1v-86.8L80,107.6z"/>
	<path class="st0" d="M24.8,162.8l-2.1,2.1c8.9,11.5,19.6,21.6,31.8,29.7v-61.4L24.8,162.8z"/>
	<path class="st0" d="M80,91.4l38.7,38.7l73.8-73.8L205.2,69l12.4-34.1L230,0.8c0-0.2-34,12.4-34,12.4l-34.1,12.4l12.7,12.7
		l-55.8,55.8L80,55.4l-76,76c2.7,7,5.9,13.8,9.7,20.1l3.1,3.1L80,91.4z"/>
</g>
</svg>
