<?xml version="1.0" encoding="utf-8"?>
<!-- Generator: Adobe Illustrator 20.1.0, SVG Export Plug-In . SVG Version: 6.00 Build 0)  -->
<svg version="1.1" id="Layer_1" xmlns="http://www.w3.org/2000/svg" xmlns:xlink="http://www.w3.org/1999/xlink" x="0px" y="0px"
	 width="238px" height="218px" viewBox="0 0 238 218" style="enable-background:new 0 0 238 218;" xml:space="preserve">
<style type="text/css">
	.st0{fill:url(#SVGID_1_);}
	.st1{fill:url(#SVGID_2_);}
	.st2{fill:url(#SVGID_3_);}
	.st3{fill:url(#SVGID_4_);}
	.st4{fill:url(#SVGID_5_);}
	.st5{fill:url(#SVGID_6_);}
	.st6{fill:url(#SVGID_7_);}
	.st7{fill:url(#SVGID_8_);}
	.st8{fill:url(#SVGID_9_);}
	.st9{fill:url(#SVGID_10_);}
	.st10{fill:url(#SVGID_11_);}
	.st11{fill:url(#SVGID_12_);}
	.st12{fill:url(#SVGID_13_);}
	.st13{fill:url(#SVGID_14_);}
	.st14{fill:url(#SVGID_15_);}
	.st15{fill:url(#SVGID_16_);}
	.st16{fill:url(#SVGID_17_);}
	.st17{fill:url(#SVGID_18_);}
	.st18{fill:url(#SVGID_19_);}
	.st19{fill:url(#SVGID_20_);}
	.st20{fill:url(#SVGID_21_);}
	.st21{fill:url(#SVGID_22_);}
	.st22{fill:url(#SVGID_23_);}
	.st23{fill:url(#SVGID_24_);}
	.st24{fill:url(#SVGID_25_);}
	.st25{fill:url(#SVGID_26_);}
	.st26{fill:url(#SVGID_27_);}
	.st27{fill:url(#SVGID_28_);}
	.st28{fill:url(#SVGID_29_);}
	.st29{fill:url(#SVGID_30_);}
	.st30{fill:url(#SVGID_31_);}
	.st31{fill:url(#SVGID_32_);}
</style>
<g>
	<g>
		<linearGradient id="SVGID_1_" gradientUnits="userSpaceOnUse" x1="120.1606" y1="281.6667" x2="120.1606" y2="6.2171">
			<stop  offset="0" style="stop-color:#FFF100"/>
			<stop  offset="1" style="stop-color:#F05A28"/>
		</linearGradient>
		<path class="st0" d="M117.2,174.7c2-2,3.9-3.9,5.9-5.9C121.1,170.8,119.2,172.8,117.2,174.7L117.2,174.7z"/>
	</g>
	<g>
		<linearGradient id="SVGID_2_" gradientUnits="userSpaceOnUse" x1="129.7801" y1="281.6667" x2="129.7801" y2="6.2171">
			<stop  offset="0" style="stop-color:#FFF100"/>
			<stop  offset="1" style="stop-color:#F05A28"/>
		</linearGradient>
		<path class="st1" d="M129.4,168.1c0.3,0.2,0.6,0.4,0.8,0.7C129.9,168.6,129.6,168.3,129.4,168.1z"/>
	</g>
	<g>
		<linearGradient id="SVGID_3_" gradientUnits="userSpaceOnUse" x1="106.1223" y1="281.6667" x2="106.1223" y2="6.2171">
			<stop  offset="0" style="stop-color:#FFF100"/>
			<stop  offset="1" style="stop-color:#F05A28"/>
		</linearGradient>
		<path class="st2" d="M106,180.8c0.1,0,0.2,0.1,0.3,0.1C106.2,180.8,106.1,180.8,106,180.8z"/>
	</g>
	<g>
		<linearGradient id="SVGID_4_" gradientUnits="userSpaceOnUse" x1="107.9777" y1="281.6667" x2="107.9777" y2="65.8464">
			<stop  offset="0" style="stop-color:#FFF100"/>
			<stop  offset="1" style="stop-color:#F05A28"/>
		</linearGradient>
		<path class="st3" d="M107.8,181.2c0.1,0,0.2,0,0.4,0C108,181.2,107.9,181.2,107.8,181.2z"/>
	</g>
	<g>
		<linearGradient id="SVGID_5_" gradientUnits="userSpaceOnUse" x1="138.6144" y1="281.6667" x2="138.6144" y2="6.2171">
			<stop  offset="0" style="stop-color:#FFF100"/>
			<stop  offset="1" style="stop-color:#F05A28"/>
		</linearGradient>
		<path class="st4" d="M139.5,211.8c-0.6,0.3-1.1,0.5-1.7,0.7C138.3,212.3,138.9,212.1,139.5,211.8z"/>
	</g>
	<g>
		<linearGradient id="SVGID_6_" gradientUnits="userSpaceOnUse" x1="136.6216" y1="281.6667" x2="136.6216" y2="6.2171">
			<stop  offset="0" style="stop-color:#FFF100"/>
			<stop  offset="1" style="stop-color:#F05A28"/>
		</linearGradient>
		<path class="st5" d="M137.2,212.7c-0.4,0.1-0.8,0.3-1.2,0.4C136.4,213,136.8,212.9,137.2,212.7z"/>
	</g>
	<g>
		<linearGradient id="SVGID_7_" gradientUnits="userSpaceOnUse" x1="107.0627" y1="281.6667" x2="107.0627" y2="6.2171">
			<stop  offset="0" style="stop-color:#FFF100"/>
			<stop  offset="1" style="stop-color:#F05A28"/>
		</linearGradient>
		<path class="st6" d="M106.9,181.1c0.1,0,0.2,0,0.4,0.1C107.1,181.1,107,181.1,106.9,181.1z"/>
	</g>
	<g>
		<linearGradient id="SVGID_8_" gradientUnits="userSpaceOnUse" x1="128.7752" y1="281.6667" x2="128.7752" y2="6.2171">
			<stop  offset="0" style="stop-color:#FFF100"/>
			<stop  offset="1" style="stop-color:#F05A28"/>
		</linearGradient>
		<path class="st7" d="M128.5,167.6c0.2,0.1,0.4,0.2,0.6,0.3C128.9,167.8,128.7,167.7,128.5,167.6z"/>
	</g>
	<g>
		<linearGradient id="SVGID_9_" gradientUnits="userSpaceOnUse" x1="124.0932" y1="281.6667" x2="124.0932" y2="6.2171">
			<stop  offset="0" style="stop-color:#FFF100"/>
			<stop  offset="1" style="stop-color:#F05A28"/>
		</linearGradient>
		<path class="st8" d="M123.9,168.2c0.1-0.1,0.2-0.1,0.3-0.2C124.1,168,124,168.1,123.9,168.2z"/>
	</g>
	<g>
		<linearGradient id="SVGID_10_" gradientUnits="userSpaceOnUse" x1="125.0051" y1="281.6667" x2="125.0051" y2="6.2171">
			<stop  offset="0" style="stop-color:#FFF100"/>
			<stop  offset="1" style="stop-color:#F05A28"/>
		</linearGradient>
		<path class="st9" d="M124.8,167.6c0.1-0.1,0.2-0.1,0.3-0.1C125.1,167.6,124.9,167.6,124.8,167.6z"/>
	</g>
	<g>
		<linearGradient id="SVGID_11_" gradientUnits="userSpaceOnUse" x1="127.852" y1="281.6667" x2="127.852" y2="6.2171">
			<stop  offset="0" style="stop-color:#FFF100"/>
			<stop  offset="1" style="stop-color:#F05A28"/>
		</linearGradient>
		<path class="st10" d="M127.6,167.3c0.2,0,0.4,0.1,0.5,0.2C127.9,167.4,127.8,167.4,127.6,167.3z"/>
	</g>
	<g>
		<linearGradient id="SVGID_12_" gradientUnits="userSpaceOnUse" x1="125.9331" y1="281.6667" x2="125.9331" y2="6.2171">
			<stop  offset="0" style="stop-color:#FFF100"/>
			<stop  offset="1" style="stop-color:#F05A28"/>
		</linearGradient>
		<path class="st11" d="M125.7,167.3c0.1,0,0.3,0,0.4,0C126,167.3,125.9,167.3,125.7,167.3z"/>
	</g>
	<g>
		<linearGradient id="SVGID_13_" gradientUnits="userSpaceOnUse" x1="126.9253" y1="281.6667" x2="126.9253" y2="6.2171">
			<stop  offset="0" style="stop-color:#FFF100"/>
			<stop  offset="1" style="stop-color:#F05A28"/>
		</linearGradient>
		<path class="st12" d="M126.7,167.2C126.7,167.2,126.7,167.2,126.7,167.2c0.2,0,0.3,0,0.5,0.1C127,167.3,126.8,167.2,126.7,167.2z"
			/>
	</g>
	<g>
		<linearGradient id="SVGID_14_" gradientUnits="userSpaceOnUse" x1="130.8537" y1="281.6667" x2="130.8537" y2="6.2171">
			<stop  offset="0" style="stop-color:#FFF100"/>
			<stop  offset="1" style="stop-color:#F05A28"/>
		</linearGradient>
		<path class="st13" d="M131.6,214.1c-0.5,0.1-1,0.1-1.5,0.2C130.6,214.2,131.1,214.1,131.6,214.1z"/>
	</g>
	<g>
		<linearGradient id="SVGID_15_" gradientUnits="userSpaceOnUse" x1="134.7867" y1="281.6667" x2="134.7867" y2="6.2171">
			<stop  offset="0" style="stop-color:#FFF100"/>
			<stop  offset="1" style="stop-color:#F05A28"/>
		</linearGradient>
		<path class="st14" d="M135.4,213.3c-0.4,0.1-0.8,0.2-1.3,0.3C134.6,213.5,135,213.4,135.4,213.3z"/>
	</g>
	<g>
		<linearGradient id="SVGID_16_" gradientUnits="userSpaceOnUse" x1="74.6098" y1="281.6667" x2="74.6098" y2="6.2171">
			<stop  offset="0" style="stop-color:#FFF100"/>
			<stop  offset="1" style="stop-color:#F05A28"/>
		</linearGradient>
		<path class="st15" d="M77.2,157.3c-1-1.1-2-2.2-3-3.3c-0.8-0.9-1.5-1.8-2.3-2.7c0.7,0.9,1.5,1.8,2.3,2.7
			C75.2,155.1,76.2,156.2,77.2,157.3z"/>
	</g>
	<g>
		<linearGradient id="SVGID_17_" gradientUnits="userSpaceOnUse" x1="64.0816" y1="281.6667" x2="64.0816" y2="6.2171">
			<stop  offset="0" style="stop-color:#FFF100"/>
			<stop  offset="1" style="stop-color:#F05A28"/>
		</linearGradient>
		<path class="st16" d="M64.1,138c0-0.2,0-0.4,0-0.6C64.1,137.6,64.1,137.8,64.1,138z"/>
	</g>
	<g>
		<linearGradient id="SVGID_18_" gradientUnits="userSpaceOnUse" x1="72.8018" y1="281.6667" x2="72.8018" y2="6.2171">
			<stop  offset="0" style="stop-color:#FFF100"/>
			<stop  offset="1" style="stop-color:#F05A28"/>
		</linearGradient>
		<path class="st17" d="M76.4,115.1c0.8,0.8,1.4,1.6,1.7,2.4C77.8,116.7,77.2,115.9,76.4,115.1c-2.9-2.9-5.9-5.9-8.9-8.8h0
			C70.5,109.2,73.5,112.2,76.4,115.1z"/>
	</g>
	<g>
		<linearGradient id="SVGID_19_" gradientUnits="userSpaceOnUse" x1="108.8125" y1="204.4658" x2="108.8125" y2="158.0791">
			<stop  offset="0" style="stop-color:#FFF100"/>
			<stop  offset="1" style="stop-color:#F05A28"/>
		</linearGradient>
		<path class="st18" d="M108.9,181.3c0,0-0.1,0-0.1,0C108.8,181.3,108.8,181.3,108.9,181.3z"/>
	</g>
	<g>
		<linearGradient id="SVGID_20_" gradientUnits="userSpaceOnUse" x1="127.0155" y1="281.6667" x2="127.0155" y2="125.9049">
			<stop  offset="0" style="stop-color:#FFF100"/>
			<stop  offset="1" style="stop-color:#F05A28"/>
		</linearGradient>
		<path class="st19" d="M127.3,214.4c0.1,0,0.2,0,0.4,0c-0.4,0-0.9,0-1.3,0C126.7,214.3,127,214.4,127.3,214.4z"/>
	</g>
	<g>
		<linearGradient id="SVGID_21_" gradientUnits="userSpaceOnUse" x1="128.8882" y1="281.6667" x2="128.8882" y2="6.2171">
			<stop  offset="0" style="stop-color:#FFF100"/>
			<stop  offset="1" style="stop-color:#F05A28"/>
		</linearGradient>
		<path class="st20" d="M129.5,214.3c-0.4,0-0.8,0-1.2,0.1C128.7,214.3,129.1,214.3,129.5,214.3z"/>
	</g>
	<g>
		<linearGradient id="SVGID_22_" gradientUnits="userSpaceOnUse" x1="132.7788" y1="281.6667" x2="132.7788" y2="6.2171">
			<stop  offset="0" style="stop-color:#FFF100"/>
			<stop  offset="1" style="stop-color:#F05A28"/>
		</linearGradient>
		<path class="st21" d="M133.7,213.7c-0.6,0.1-1.2,0.2-1.8,0.3C132.5,214,133.1,213.9,133.7,213.7z"/>
	</g>
	<g>
		<linearGradient id="SVGID_23_" gradientUnits="userSpaceOnUse" x1="124.8564" y1="281.6667" x2="124.8564" y2="6.2171">
			<stop  offset="0" style="stop-color:#FFF100"/>
			<stop  offset="1" style="stop-color:#F05A28"/>
		</linearGradient>
		<path class="st22" d="M125.8,214.3c-0.6,0-1.2-0.1-1.9-0.1C124.5,214.3,125.2,214.3,125.8,214.3z"/>
	</g>
	<g>
		<linearGradient id="SVGID_24_" gradientUnits="userSpaceOnUse" x1="66.2008" y1="281.6667" x2="66.2008" y2="6.2171">
			<stop  offset="0" style="stop-color:#FFF100"/>
			<stop  offset="1" style="stop-color:#F05A28"/>
		</linearGradient>
		<polygon class="st23" points="53.4,42.2 53.4,42.2 58.5,46.7 66.2,53.5 72.2,48.2 72.2,48.2 77.9,43.1 117.3,8.2 15.1,8.2 		"/>
	</g>
	<g>
		<linearGradient id="SVGID_25_" gradientUnits="userSpaceOnUse" x1="106.5154" y1="281.6667" x2="106.5154" y2="6.2171">
			<stop  offset="0" style="stop-color:#FFF100"/>
			<stop  offset="1" style="stop-color:#F05A28"/>
		</linearGradient>
		<path class="st24" d="M127.8,8.6L84,47.3L106.6,70c0.7-1.8,1.4-3.5,2.3-5.2c4.1-7.6,10.6-13.9,20.1-19.2V10.9
			C129,9.9,128.5,9.1,127.8,8.6z"/>
	</g>
	<g>
		<linearGradient id="SVGID_26_" gradientUnits="userSpaceOnUse" x1="25.8591" y1="281.6667" x2="25.8591" y2="6.2171">
			<stop  offset="0" style="stop-color:#FFF100"/>
			<stop  offset="1" style="stop-color:#F05A28"/>
		</linearGradient>
		<path class="st25" d="M3.4,92.2l44.9-44.9L4.6,8.6c-0.7,0.5-1.2,1.3-1.2,2.3V92.2z"/>
	</g>
	<g>
		<linearGradient id="SVGID_27_" gradientUnits="userSpaceOnUse" x1="55.7187" y1="281.6667" x2="55.7187" y2="6.2171">
			<stop  offset="0" style="stop-color:#FFF100"/>
			<stop  offset="1" style="stop-color:#F05A28"/>
		</linearGradient>
		<path class="st26" d="M104.5,78L78.6,52.1l-12.4,11l-12.5-11l-47,47h21.9c0-0.1,0.1-0.1,0.1-0.2c0.6-1.1,1.4-1.9,2.4-2.6
			c0.5-0.9,1.1-1.6,1.9-2.3c0.2-0.2,0.4-0.3,0.7-0.5c0.1-0.1,0.4-0.3,0.5-0.3c1.3-1.2,2.6-2.5,3.8-3.8c0.9-0.9,1.8-1.8,2.6-2.6
			c3.2-3.2,6.5-3.8,8.7-3.8c0,0,0,0,0,0c2.2,0,5.4,0.7,8.6,3.8c4.3,4.3,8.4,8.4,12.4,12.3h34.5C103.5,91.1,103.4,84.2,104.5,78z"/>
	</g>
	<g>
		<linearGradient id="SVGID_28_" gradientUnits="userSpaceOnUse" x1="173.3738" y1="281.6667" x2="173.3738" y2="6.2171">
			<stop  offset="0" style="stop-color:#FFF100"/>
			<stop  offset="1" style="stop-color:#F05A28"/>
		</linearGradient>
		<polygon class="st27" points="184.4,104.8 179,88.8 162.4,94.3 167.7,110.4 		"/>
	</g>
	<g>
		<linearGradient id="SVGID_29_" gradientUnits="userSpaceOnUse" x1="173.3755" y1="281.6667" x2="173.3755" y2="6.2171">
			<stop  offset="0" style="stop-color:#FFF100"/>
			<stop  offset="1" style="stop-color:#F05A28"/>
		</linearGradient>
		<path class="st28" d="M116.2,116.7c9.4,31.5,22,45.2,44.9,45.2c8.3,0,18-1.8,29.4-5.2c42.9-12.9,52.9-31.4,40-74.3
			c-9.4-31.5-22-45.2-44.9-45.2c-8.3,0-18,1.8-29.4,5.2C113.3,55.2,103.3,73.7,116.2,116.7z M137.9,88.7L146,86l-2.8-8.4
			c-1.1-3.4,0.7-7.1,4.1-8.2c0.7-0.2,1.4-0.3,2-0.3c2.7,0,5.3,1.7,6.1,4.4l2.8,8.4l16.7-5.6l-2.8-8.4c-1.1-3.4,0.7-7.1,4.1-8.2
			c0.7-0.2,1.4-0.3,2-0.3c2.7,0,5.3,1.7,6.1,4.4l2.8,8.4l8.1-2.7c0.7-0.2,1.4-0.3,2-0.3c2.7,0,5.3,1.7,6.2,4.4
			c1.1,3.4-0.7,7.1-4.1,8.2l-8.1,2.7l5.4,16.1l8.1-2.7c0.7-0.2,1.4-0.3,2-0.3c2.7,0,5.3,1.7,6.1,4.4c1.1,3.4-0.7,7.1-4.1,8.2
			l-8.1,2.7l2.8,8.4c1.1,3.4-0.7,7.1-4.1,8.2c-0.6,0.2-1.2,0.3-1.8,0.3c-0.1,0-0.3,0-0.4,0c-2.6-0.1-5.1-1.8-6-4.4l-2.8-8.4
			l-16.7,5.6l2.8,8.4c1.1,3.4-0.7,7.1-4.1,8.2c-0.6,0.2-1.2,0.3-1.8,0.3c-0.1,0-0.3,0-0.4,0c-2.6-0.1-5.1-1.8-6-4.4l-2.8-8.4
			l-8.1,2.7c-0.6,0.2-1.2,0.3-1.8,0.3c-0.1,0-0.3,0-0.4,0c-2.6-0.1-5.1-1.8-6-4.4c-1.1-3.4,0.7-7.1,4.1-8.2l8.1-2.7l-5.4-16.1
			L142,101c-0.6,0.2-1.2,0.3-1.8,0.3c-0.1,0-0.3,0-0.4,0c-2.6-0.1-5.1-1.8-6-4.4C132.8,93.5,134.6,89.8,137.9,88.7z"/>
	</g>
	<g>
		<linearGradient id="SVGID_30_" gradientUnits="userSpaceOnUse" x1="85.0804" y1="281.6667" x2="85.0804" y2="6.2171">
			<stop  offset="0" style="stop-color:#FFF100"/>
			<stop  offset="1" style="stop-color:#F05A28"/>
		</linearGradient>
		<path class="st29" d="M64.1,138c0-0.2,0-0.4,0-0.6s0-0.4,0.1-0.6c0-0.1,0-0.2,0.1-0.3c-0.3-0.2-0.5-0.4-0.8-0.7l-30.2-30.4
			c-0.1,0.2-0.2,0.4-0.3,0.5c-0.5,1.3-0.9,2.5-1.3,3.8c-0.7,2.5-1,5.1-1,7.7c0,3,0.3,6.1,0.9,9.1c0.4,2,0.9,4,1.5,6
			c0.9,2.9,2,5.8,3.2,8.6c0.8,1.9,1.8,3.7,2.7,5.5c0.5,0.9,1,1.8,1.5,2.7c0.6,1.1,1.3,2.1,1.9,3.2c1.3,2.1,2.7,4.1,4.1,6.1
			c1.4,2,2.9,4,4.4,5.9s3.1,3.8,4.7,5.7c0.8,0.9,1.6,1.8,2.5,2.8c10.6,11.7,22.2,22.3,35.7,30.5c9.3,5.6,19.1,9.9,30.1,10.7
			c0.6,0,1.2,0.1,1.9,0.1c0.2,0,0.4,0,0.6,0c0.4,0,0.9,0,1.3,0c0.2,0,0.4,0,0.6,0c0.4,0,0.8,0,1.2-0.1c0.2,0,0.4,0,0.6,0
			c0.5,0,1-0.1,1.5-0.2c0.1,0,0.2,0,0.3,0c0.6-0.1,1.2-0.2,1.8-0.3c0.2,0,0.3-0.1,0.5-0.1c0.4-0.1,0.8-0.2,1.3-0.3
			c0.2-0.1,0.4-0.1,0.6-0.2c0.4-0.1,0.8-0.3,1.2-0.4c0.2-0.1,0.4-0.1,0.5-0.2c0.6-0.2,1.1-0.5,1.7-0.7c0,0,0,0,0,0c0,0,0,0,0,0
			l-29.6-29.7c-0.3-0.3-0.5-0.6-0.7-0.9c-0.1,0-0.2,0-0.3,0c0,0-0.1,0-0.1,0c-0.2,0-0.4,0-0.6,0c-0.1,0-0.2,0-0.4,0
			c-0.2,0-0.4-0.1-0.6-0.1c-0.1,0-0.2,0-0.4-0.1c-0.2-0.1-0.4-0.1-0.6-0.2c-0.1,0-0.2-0.1-0.3-0.1c-0.3-0.1-0.6-0.2-0.9-0.4
			c-0.8-0.4-1.6-0.8-2.3-1.2c-0.8-0.4-1.5-0.9-2.2-1.4c-8.5-6-16.3-12.8-23.3-20.5c-1-1.1-2-2.2-3-3.3c-0.8-0.9-1.5-1.8-2.3-2.7
			c-2.2-2.8-4.3-5.6-6.2-8.6C64.8,141.2,64.2,139.6,64.1,138z"/>
	</g>
	<g>
		<linearGradient id="SVGID_31_" gradientUnits="userSpaceOnUse" x1="57.81" y1="281.6667" x2="57.81" y2="6.2171">
			<stop  offset="0" style="stop-color:#FFF100"/>
			<stop  offset="1" style="stop-color:#F05A28"/>
		</linearGradient>
		<path class="st30" d="M67.5,106.3c-2.4-2.4-4.8-4.8-7.2-7.2h0c-2.5-2.4-4.9-4.9-7.4-7.3c-0.3-0.3-0.6-0.5-0.9-0.8
			c-0.1-0.1-0.2-0.1-0.3-0.2c-0.2-0.1-0.4-0.3-0.6-0.4c-0.1-0.1-0.2-0.1-0.4-0.1c-0.2-0.1-0.4-0.2-0.6-0.2c-0.1,0-0.3,0-0.4,0
			c-0.2,0-0.3-0.1-0.5-0.1c0,0,0,0,0,0c-0.2,0-0.4,0-0.5,0.1c-0.1,0-0.3,0-0.4,0.1c-0.2,0-0.4,0.1-0.6,0.2c-0.1,0-0.2,0.1-0.4,0.1
			c-0.2,0.1-0.4,0.2-0.6,0.4c-0.1,0.1-0.2,0.1-0.3,0.2c-0.3,0.2-0.6,0.5-0.9,0.8c-1.1,1.1-2.2,2.2-3.2,3.2c-1.1,1.1-2.2,2.2-3.3,3.2
			c-0.6,0.6-1.3,1-1.8,1.4c2.6,2.7,5.2,5.3,7.8,7.9c7.8,7.9,15.5,15.6,23.3,23.4c2.7-2.8,5.3-5.4,8-8.1c1.8-1.8,2.4-3.6,1.7-5.3
			c-0.3-0.8-0.9-1.6-1.7-2.4C73.5,112.2,70.5,109.2,67.5,106.3z"/>
	</g>
	<g>
		<linearGradient id="SVGID_32_" gradientUnits="userSpaceOnUse" x1="134.951" y1="281.6667" x2="134.951" y2="6.2171">
			<stop  offset="0" style="stop-color:#FFF100"/>
			<stop  offset="1" style="stop-color:#F05A28"/>
		</linearGradient>
		<path class="st31" d="M115.4,176.5c-0.2,0.2-0.4,0.5-0.6,0.7c10.1,10.1,20.1,20.1,30.2,30.3c2.6-2.7,5.3-5.3,7.9-8
			c2.7-2.7,2.8-5.2,0.1-7.9c-7.6-7.6-15.2-15.2-22.8-22.8c-0.3-0.3-0.5-0.5-0.8-0.7c-0.1-0.1-0.2-0.1-0.3-0.2
			c-0.2-0.1-0.4-0.2-0.6-0.3c-0.1-0.1-0.2-0.1-0.4-0.1c-0.2-0.1-0.4-0.1-0.5-0.2c-0.1,0-0.3,0-0.4,0c-0.2,0-0.3-0.1-0.5-0.1
			c-0.2,0-0.4,0-0.5,0.1c-0.1,0-0.3,0-0.4,0c-0.2,0-0.4,0.1-0.6,0.2c-0.1,0-0.2,0.1-0.3,0.1c-0.2,0.1-0.4,0.2-0.6,0.3
			c-0.1,0.1-0.2,0.1-0.3,0.2c-0.3,0.2-0.6,0.4-0.8,0.7c-2,1.9-3.9,3.9-5.9,5.9C116.6,175.3,116,175.9,115.4,176.5z"/>
	</g>
</g>
</svg>
