<?xml version="1.0" encoding="utf-8"?>
<!-- Generator: Adobe Illustrator 20.1.0, SVG Export Plug-In . SVG Version: 6.00 Build 0)  -->
<svg version="1.1" id="Layer_1" xmlns="http://www.w3.org/2000/svg" xmlns:xlink="http://www.w3.org/1999/xlink" x="0px" y="0px"
	 width="238px" height="218px" viewBox="0 0 238 218" style="enable-background:new 0 0 238 218;" xml:space="preserve">
<style type="text/css">
	.st0{fill:url(#SVGID_1_);}
</style>
<linearGradient id="SVGID_1_" gradientUnits="userSpaceOnUse" x1="122.8456" y1="498" x2="122.8456" y2="280.7" gradientTransform="matrix(1 0 0 1 -4.978 -280)">
	<stop  offset="0" style="stop-color:#3BB0C9"/>
	<stop  offset="1" style="stop-color:#0078AA"/>
</linearGradient>
<path class="st0" d="M153.1,143.5c-1.6-1.9-4.8,0.6-6.7,1.1c-2.3,0.5-4.6,0.7-7,0.6c-2.8-0.1-5.6-0.8-8.1-2.1c-2.2-1-4.2-2.3-6-3.9
	c-1.9-1.7-3.5-3.7-4.7-6c-1.3-2.3-2.2-4.8-2.6-7.4c-0.2-1.7-0.3-3.4-0.3-5.1c0-1,0.1-2.1,0.3-3.1c1.1-6,4-11.4,8.3-15.7
	c5.3-4.9,12.3-7.7,19.5-7.7c5.9,0,11.6,1.5,16.8,4.4c6.2,3.5,11.3,8.7,14.5,15.1c1.6,3.2,2.7,6.6,3.3,10.2c1,7.5-0.1,15.1-3,22.1
	c-1.5,3.6-3.4,7.1-5.6,10.3c-4.6,6.4-10.9,11.5-18.1,14.7c-3.6,1.7-7.3,2.8-11.2,3.4c-2.8,0.5-5.7,0.7-8.6,0.6
	c-9.5-0.1-18.9-2.6-27.3-7c-11.1-6-20.1-15.1-25.9-26.3c-4.3-8.5-6.4-17.9-6.4-27.5c-0.1-19,7.3-37.2,20.4-50.8
	c6.3-6.1,14-10.7,22.4-13.3c3.1-1,6.4-1.9,9.6-2.4c2.8-0.5,5.6-0.7,8.3-1.3c0.9,0,2.6-0.1,3-0.1c5.8-0.2,11.5,0.2,17.2,1.2
	c11.6,2.1,22.6,7.1,31.8,14.5c4.2,3.3,8,7,11.5,11.1c3.6,4.5,6.7,9.3,9.5,14.3c2.9,5.4,5.1,11.1,6.5,17.1c0.3,0.8,1,1.3,1.8,1.3
	c1.9-0.3,1.5-2.5,1.5-3.8c0-2-0.1-4-0.3-6.1c-0.4-4-1.1-8-2.2-12c-3.6-14.2-11.2-27-21.9-37.1c1.6-7.7,0.3-15.8-3.8-22.6
	c-7.7-0.7-15.4,1.2-21.9,5.6c-3.5-1.6-7.1-2.8-10.7-3.7c-3.6-1.3-7.4-2-11.2-2.3c-3.3-9.9-10.4-18.2-19.6-23.1
	c-9.4,5.6-16.3,14.4-19.4,24.9c0.1,0.3,0.3,0.4,0.4,0.7c-4.5,1.2-8.9,2.8-13,4.9c-2.3,1.1-4.5,2.3-6.6,3.6c-1,0.6-2,1.2-3,1.9
	c-0.8,0.7-1.7,1.3-2.7,1.7c-0.1-0.2-0.1-0.3-0.1-0.5c-13.9-5-29.2-4.4-42.7,1.7c-1.5,14.9,2.5,29.8,11.2,41.9
	C48.9,85.2,47.8,89,47,93c-1.1,4-1.8,8.1-2,12.2c-12.7,6.7-22.4,17.9-27.1,31.5c9.5,11.6,22.9,19.2,37.7,21.2
	c3.7,6.6,8.2,12.7,13.4,18.1c-3.8,10.9-3.5,22.7,0.9,33.3c12.5,0.6,24.9-3.1,34.9-10.7c10.3,3.2,21.1,4.8,31.9,4.6
	c6.2,8,15.2,13.3,25.3,14.8c7.4-7.1,11.7-16.8,12.1-27.1c-0.1-0.1-0.2-0.2-0.4-0.3c2.5-1.7,4.9-3.6,7.2-5.7c2.5-2.3,4.8-4.7,7-7.3
	c2.2-2.5,4.1-5.2,5.8-8c8.1,0.2,16-2.7,22-8.1c-1-8.4-5.2-16.1-11.7-21.5c-0.1,0-0.3,0-0.3,0.1c0.8-6.8,0.4-13.7-1-20.4
	c-5.3-22.4-23.8-39.3-46.6-42.4c-5.1-0.8-10.3-0.7-15.4,0.3c-5,0.9-9.8,2.7-14.2,5.3c-15.8,9.4-23.7,28-19.4,46
	c2.3,7.7,7.2,14.3,14,18.5c3.5,2.1,7.3,3.6,11.3,4.3c2,0.3,4,0.5,6,0.5c0.9,0,1.8-0.2,2.7-0.1c1.9-0.2,3.8-0.7,5.6-1.5
	c2.2-0.9,3.9-2.3,6-3.3C153.7,146.3,153.9,144.7,153.1,143.5L153.1,143.5z"/>
</svg>
