<svg id="Layer_1" xmlns="http://www.w3.org/2000/svg" width="238" height="218" viewBox="0 0 238 218"><style>.st0{fill:url(#SVGID_1_)}.st1{fill:url(#SVGID_2_)}</style><linearGradient id="SVGID_1_" gradientUnits="userSpaceOnUse" x1="119" y1="232" x2="119" y2="-5.086"><stop offset="0" stop-color="#fff200"/><stop offset="1" stop-color="#f15a29"/></linearGradient><path class="st0" d="M174 73.7c-2 0-3.9.2-5.7.7-4.7-5.5-11.6-8.9-19.4-8.9-2.8 0-5.4.4-7.9 1.3h-.2c-4.3-4-10-6.5-16.3-6.8V25.6C124.6 11.5 113.1 0 99 0S73.4 11.5 73.4 25.6v45.2c-.1 0-.1 0-.2-.1-6.4-2.5-13.3-2.3-19.6.4-7.5 3.3-12.6 9.7-14.5 17-.5 1.8-.7 3.6-.8 5.4-.1 3.7.5 7.5 2.1 11.2l27.2 62.1c0 .1.1.1.1.2l4.7 10.7c0 .1.1.1.1.2l.5 1.2c.1.3.2.5.4.8 10.9 23.2 34.3 38.1 59.9 38.1 2.6 0 5.1-.2 7.6-.4 31.6-3.6 56.7-29.5 58.4-62 .1-.8.1-1.5.1-2.3V99.2c.2-14-11.3-25.5-25.4-25.5zm18.2 79.6c0 .6 0 1.2-.1 1.7-1.7 31.2-27.4 55.6-58.7 55.6-22.8 0-43.7-13.3-53.3-34-.1-.1-.2-.3-.2-.5l-.6-1.3-4.7-10.8s0-.1-.1-.1l-27.2-62.1c-4-9.2.2-20 9.4-24 4.5-2 9.4-2.1 13.9-.3s8.1 5.2 10.1 9.7l.1.3V25.6c0-10 8.2-18.2 18.2-18.2s18.2 8.2 18.2 18.2v42.8c2-.7 4.1-1.1 6.3-1.1 6.5 0 12.2 3.4 15.4 8.5 2.9-1.9 6.3-3 10-3 7.3 0 13.6 4.3 16.5 10.5 2.6-1.4 5.5-2.2 8.6-2.2 10 0 18.2 8.2 18.2 18.2v54z"/><linearGradient id="SVGID_2_" gradientUnits="userSpaceOnUse" x1="118.985" y1="232" x2="118.985" y2="-5.086"><stop offset="0" stop-color="#fff200"/><stop offset="1" stop-color="#f15a29"/></linearGradient><path class="st1" d="M174 92c-3.3 0-6.3 2.4-7 5.6-.6 2.7-3.2 4.6-6 4.3-2.8-.3-4.9-2.7-4.9-5.5V91c0-4-3.2-7.2-7.2-7.2s-7.2 3.2-7.2 7.2c0 3-2.5 5.5-5.5 5.5s-5.5-2.5-5.5-5.5v-5.5c0-4-3.2-7.2-7.2-7.2-3 0-5.6 1.8-6.7 4.5-1 2.5-3.6 3.9-6.2 3.4s-4.5-2.8-4.5-5.4V25.6c0-4-3.2-7.2-7.2-7.2s-7.2 3.2-7.2 7.2v88.2c0 2.6-1.8 4.9-4.4 5.4-2.6.5-5.1-.8-6.2-3.2L70.6 91.6c-.8-1.8-2.2-3.1-4-3.8-1.8-.7-3.7-.7-5.5.1a7.23 7.23 0 0 0-3.7 9.5l27.2 62s0 .1.1.1l4.8 10.9v.1l.4.8c.1.1.1.2.1.3 7.7 17 24.8 28 43.5 28 25.5 0 46.4-19.9 47.7-45.3v-.3-54.8c0-3.9-3.2-7.2-7.2-7.2z"/></svg>