<?xml version="1.0" encoding="utf-8"?>
<!-- Generator: Adobe Illustrator 20.1.0, SVG Export Plug-In . SVG Version: 6.00 Build 0)  -->
<svg version="1.1" id="Layer_1" xmlns="http://www.w3.org/2000/svg" xmlns:xlink="http://www.w3.org/1999/xlink" x="0px" y="0px"
	 width="238px" height="218px" viewBox="0 0 238 218" style="enable-background:new 0 0 238 218;" xml:space="preserve">
<style type="text/css">
	.st0{fill:url(#SVGID_1_);}
</style>
<g>
	<linearGradient id="SVGID_1_" gradientUnits="userSpaceOnUse" x1="120.7498" y1="229.9293" x2="117.702" y2="-40.6664">
		<stop  offset="0" style="stop-color:#FFF100"/>
		<stop  offset="1" style="stop-color:#F05A28"/>
	</linearGradient>
	<path class="st0" d="M233.2,63.5l-38.7-42.4c-3.1-3.4-7.6-5.4-12.2-5.4H55.7c-4.6,0-9.1,2-12.2,5.4L4.8,63.5c-2.8,3-4.3,7-4.3,11.1
		c0,4.1,1.5,8.1,4.3,11.1l102,111.2c3.1,3.4,7.6,5.4,12.2,5.4c4.6,0,9.1-2,12.2-5.4l102-111.2c2.8-3,4.3-7,4.3-11.1
		C237.5,70.5,236,66.5,233.2,63.5z M223,68.6h-33.6l-16.1-18.3l16.3-18.4L223,68.6z M145.1,26.7L166,50.3l-16.1,18.3H139l-16.4-18.5
		l20.7-23.4H145.1z M95.9,79.6l17.6,102.7L56.2,79.6H95.9z M136.5,79.6L119,181.5L101.5,79.6H136.5z M106.3,68.6L119,54.2l12.7,14.4
		H106.3z M142.1,79.6h42.2l-60,103.5L142.1,79.6z M157.1,68.6l12.5-14.1l12.5,14.1H157.1z M119,45.9l-17-19.3h34L119,45.9z
		 M94.7,26.7l20.7,23.4L99,68.6H88.6L72.3,50.1l20.7-23.4H94.7z M81.3,68.6H55.9l12.7-14.4L81.3,68.6z M50,79.6l55.7,99.8L14.1,79.6
		H50z M190.6,79.6h33.2l-90.4,98.6L190.6,79.6z M185.8,27.9l-16.2,18.3l-17.2-19.5h29.9C183.6,26.7,184.8,27.1,185.8,27.9z
		 M85.6,26.7l-17,19.3L52.5,27.7c0.9-0.7,2-1,3.2-1H85.6z M48.7,31.7l16.3,18.4L48.6,68.6H15L48.7,31.7z"/>
</g>
</svg>
