<svg id="Layer_1" xmlns="http://www.w3.org/2000/svg" width="238" height="218" viewBox="0 0 238 218"><style>.st0{fill:url(#SVGID_1_)}.st1{fill:url(#SVGID_2_)}.st2{fill:url(#SVGID_3_)}.st3{fill:url(#SVGID_4_)}.st4{fill:url(#SVGID_5_)}.st5{fill:url(#SVGID_6_)}.st6{fill:url(#SVGID_7_)}.st7{fill:url(#SVGID_8_)}.st8{fill:url(#SVGID_9_)}.st9{fill:url(#SVGID_10_)}.st10{fill:url(#SVGID_11_)}.st11{fill:url(#SVGID_12_)}.st12{fill:url(#SVGID_13_)}.st13{fill:url(#SVGID_14_)}</style><linearGradient id="SVGID_1_" gradientUnits="userSpaceOnUse" x1="119" y1="-6" x2="119" y2="225.078" gradientTransform="matrix(1 0 0 -1 0 220)"><stop offset="0" stop-color="#b280b8"/><stop offset="1" stop-color="#8a4f9e"/></linearGradient><path class="st0" d="M128.2 33.7v-8.4h4.2c2.4 0 4.3-1.9 4.3-4.3V4.3c0-2.4-1.9-4.3-4.3-4.3h-27.1C103 0 101 1.9 101 4.3V21c0 2.4 1.9 4.3 4.3 4.3h4.8v8.4c-18.6 1.8-35.5 9-49.3 20.1l-4.4-4.4.5-.5c1.7-1.7 1.7-4.4 0-6.1l-4.3-4.3c-.8-.8-2-1.3-3.1-1.3s-2.2.4-3.1 1.3L38 47.1c-1.7 1.7-1.7 4.4 0 6.1l4.3 4.3c.8.8 2 1.3 3.1 1.3s2.2-.4 3.1-1.3l4.4-4.4-3.9 3.7 4.1 4.1c-16.4 16.7-26.5 39.5-26.5 64.7 0 51 41.4 92.4 92.4 92.4s92.4-41.4 92.4-92.4c0-47.9-36.5-87.3-83.2-91.9zM119 200.3c-41.2 0-74.7-33.5-74.7-74.7S77.8 50.9 119 50.9s74.7 33.5 74.7 74.7-33.5 74.7-74.7 74.7z"/><linearGradient id="SVGID_2_" gradientUnits="userSpaceOnUse" x1="118.9" y1="-6" x2="118.9" y2="225.078" gradientTransform="matrix(1 0 0 -1 0 220)"><stop offset="0" stop-color="#b280b8"/><stop offset="1" stop-color="#8a4f9e"/></linearGradient><path class="st1" d="M119.7 65v-8.2c0-.4-.4-.8-.8-.8s-.8.4-.8.8V65h.9c.2-.1.5 0 .7 0z"/><linearGradient id="SVGID_3_" gradientUnits="userSpaceOnUse" x1="118.9" y1="-6" x2="118.9" y2="225.078" gradientTransform="matrix(1 0 0 -1 0 220)"><stop offset="0" stop-color="#b280b8"/><stop offset="1" stop-color="#8a4f9e"/></linearGradient><path class="st2" d="M118.1 186.3v9c0 .4.4.8.8.8s.8-.4.8-.8v-9h-1.6z"/><linearGradient id="SVGID_4_" gradientUnits="userSpaceOnUse" x1="151.35" y1="-6" x2="151.35" y2="225.078" gradientTransform="matrix(1 0 0 -1 0 220)"><stop offset="0" stop-color="#b280b8"/><stop offset="1" stop-color="#8a4f9e"/></linearGradient><path class="st3" d="M149.8 177.9c-.5.3-.9.5-1.4.8l4.4 7.7c.1.3.4.4.7.4.1 0 .3 0 .4-.1.4-.2.5-.7.3-1.1l-4.4-7.7z"/><linearGradient id="SVGID_5_" gradientUnits="userSpaceOnUse" x1="86.3" y1="-6" x2="86.3" y2="225.078" gradientTransform="matrix(1 0 0 -1 0 220)"><stop offset="0" stop-color="#b280b8"/><stop offset="1" stop-color="#8a4f9e"/></linearGradient><path class="st4" d="M87.7 73.6c.5-.3.9-.5 1.4-.8L85 65.7c-.2-.4-.7-.5-1.1-.3s-.5.7-.3 1.1l4.1 7.1z"/><linearGradient id="SVGID_6_" gradientUnits="userSpaceOnUse" x1="62.36" y1="-6" x2="62.36" y2="225.078" gradientTransform="matrix(1 0 0 -1 0 220)"><stop offset="0" stop-color="#b280b8"/><stop offset="1" stop-color="#8a4f9e"/></linearGradient><path class="st5" d="M58.5 92.1l7.3 4.2c.3-.5.5-.9.8-1.4l-7.3-4.2c-.4-.2-.9-.1-1.1.3-.2.4 0 .9.3 1.1z"/><linearGradient id="SVGID_7_" gradientUnits="userSpaceOnUse" x1="175.35" y1="-6" x2="175.35" y2="225.078" gradientTransform="matrix(1 0 0 -1 0 220)"><stop offset="0" stop-color="#b280b8"/><stop offset="1" stop-color="#8a4f9e"/></linearGradient><path class="st6" d="M179.3 160l-7.5-4.4c-.3.5-.5.9-.8 1.4l7.5 4.3c.1.1.3.1.4.1.3 0 .5-.1.7-.4.2-.3.1-.8-.3-1z"/><linearGradient id="SVGID_8_" gradientUnits="userSpaceOnUse" x1="53.55" y1="-6" x2="53.55" y2="225.077" gradientTransform="matrix(1 0 0 -1 0 220)"><stop offset="0" stop-color="#b280b8"/><stop offset="1" stop-color="#8a4f9e"/></linearGradient><path class="st7" d="M58.3 125.6v-.4h-8.7c-.4 0-.8.4-.8.8s.4.8.8.8h8.7v-1.2z"/><linearGradient id="SVGID_9_" gradientUnits="userSpaceOnUse" x1="184.35" y1="-6" x2="184.35" y2="225.078" gradientTransform="matrix(1 0 0 -1 0 220)"><stop offset="0" stop-color="#b280b8"/><stop offset="1" stop-color="#8a4f9e"/></linearGradient><path class="st8" d="M188.2 125.2h-8.5v1.6h8.5c.4 0 .8-.4.8-.8s-.4-.8-.8-.8z"/><linearGradient id="SVGID_10_" gradientUnits="userSpaceOnUse" x1="62.55" y1="-6" x2="62.55" y2="225.078" gradientTransform="matrix(1 0 0 -1 0 220)"><stop offset="0" stop-color="#b280b8"/><stop offset="1" stop-color="#8a4f9e"/></linearGradient><path class="st9" d="M58.5 160c-.4.2-.5.7-.3 1.1.1.3.4.4.7.4.1 0 .3 0 .4-.1L67 157c-.3-.5-.5-.9-.8-1.4l-7.7 4.4z"/><linearGradient id="SVGID_11_" gradientUnits="userSpaceOnUse" x1="175.5" y1="-6" x2="175.5" y2="225.078" gradientTransform="matrix(1 0 0 -1 0 220)"><stop offset="0" stop-color="#b280b8"/><stop offset="1" stop-color="#8a4f9e"/></linearGradient><path class="st10" d="M179.3 92.1c.4-.2.5-.7.3-1.1s-.7-.5-1.1-.3l-7.2 4.1c.3.5.5.9.8 1.4l7.2-4.1z"/><linearGradient id="SVGID_12_" gradientUnits="userSpaceOnUse" x1="86.5" y1="-6" x2="86.5" y2="225.078" gradientTransform="matrix(1 0 0 -1 0 220)"><stop offset="0" stop-color="#b280b8"/><stop offset="1" stop-color="#8a4f9e"/></linearGradient><path class="st11" d="M83.6 185.6c-.2.4-.1.9.3 1.1.1.1.3.1.4.1.3 0 .5-.1.7-.4l4.5-7.8c-.5-.3-.9-.5-1.4-.8l-4.5 7.8z"/><linearGradient id="SVGID_13_" gradientUnits="userSpaceOnUse" x1="151.522" y1="-6" x2="151.522" y2="225.078" gradientTransform="matrix(1 0 0 -1 0 220)"><stop offset="0" stop-color="#b280b8"/><stop offset="1" stop-color="#8a4f9e"/></linearGradient><path class="st12" d="M153.9 65.4c-.4-.2-.9-.1-1.1.3l-4.1 7.1c.5.3.9.5 1.4.8l4.1-7.1c.3-.4.1-.9-.3-1.1z"/><linearGradient id="SVGID_14_" gradientUnits="userSpaceOnUse" x1="119" y1="-6" x2="119" y2="225.078" gradientTransform="matrix(1 0 0 -1 0 220)"><stop offset="0" stop-color="#b280b8"/><stop offset="1" stop-color="#8a4f9e"/></linearGradient><path class="st13" d="M123.3 118.2l-1.5-45.1-2.7-3.3-2.7 3.3-1.5 45c-2.9 1.5-4.9 4.5-4.9 8 0 4.9 4 9 9 9 4.9 0 9-4 9-9 0-3.5-1.9-6.4-4.7-7.9zm-4.3 12c-2.3 0-4.1-1.9-4.1-4.1 0-1.9 1.3-3.5 3-4h2.2c1.7.5 3 2.1 3 4 0 2.2-1.8 4.1-4.1 4.1z"/></svg>