<?xml version="1.0" encoding="utf-8"?>
<!-- Generator: Adobe Illustrator 19.0.1, SVG Export Plug-In . SVG Version: 6.00 Build 0)  -->
<!DOCTYPE svg PUBLIC "-//W3C//DTD SVG 1.1//EN" "http://www.w3.org/Graphics/SVG/1.1/DTD/svg11.dtd">
<svg version="1.1" id="Layer_1" xmlns="http://www.w3.org/2000/svg" xmlns:xlink="http://www.w3.org/1999/xlink" x="0px" y="0px"
	 width="238px" height="218px" viewBox="-447 1252.3 238 218" style="enable-background:new -447 1252.3 238 218;"
	 xml:space="preserve">
<style type="text/css">
	.st0{fill:url(#SVGID_1_);}
	.st1{fill:url(#SVGID_2_);}
	.st2{fill:url(#SVGID_3_);}
	.st3{fill:url(#SVGID_4_);}
	.st4{fill:url(#SVGID_5_);}
</style>
<g>
	<linearGradient id="SVGID_1_" gradientUnits="userSpaceOnUse" x1="-373.9505" y1="1480.5657" x2="-373.9505" y2="1270.3522">
		<stop  offset="0" style="stop-color:#FFF100"/>
		<stop  offset="1" style="stop-color:#F05A28"/>
	</linearGradient>
	<path class="st0" d="M-306.2,1417.1c-11.3,2-23.5,3.1-36.3,3.1c-45.1,0-83.1-13.3-100.6-33c-0.9,2.6-1.4,5.2-1.4,7.9
		c0,26.4,46.7,48.8,102,48.8c13.8,0,27.1-1.4,39.2-3.9c-2.1-5.7-3.1-11.6-3.1-17.7C-306.5,1420.5-306.4,1418.8-306.2,1417.1z"/>
	<linearGradient id="SVGID_2_" gradientUnits="userSpaceOnUse" x1="-342.5585" y1="1480.5657" x2="-342.5585" y2="1270.3522">
		<stop  offset="0" style="stop-color:#FFF100"/>
		<stop  offset="1" style="stop-color:#F05A28"/>
	</linearGradient>
	<path class="st1" d="M-275.2,1375.1c6.3-2.7,13-4,19.9-4c1.6,0,3.3,0.1,4.9,0.2c6.3-6.3,9.9-13.3,9.9-20.6c0-2.7-0.5-5.3-1.4-7.9
		c-17.5,19.7-55.5,33-100.6,33c-45.1,0-83.1-13.3-100.6-33c-0.9,2.6-1.4,5.2-1.4,7.9c0,26.4,46.7,48.8,102,48.8
		c15.7,0,30.8-1.8,44.3-5c2-3,4.2-5.9,6.8-8.4C-286.8,1381.3-281.3,1377.7-275.2,1375.1z"/>
	<linearGradient id="SVGID_3_" gradientUnits="userSpaceOnUse" x1="-342.5585" y1="1480.5657" x2="-342.5585" y2="1270.3522">
		<stop  offset="0" style="stop-color:#FFF100"/>
		<stop  offset="1" style="stop-color:#F05A28"/>
	</linearGradient>
	<path class="st2" d="M-342.6,1355.2c55.3,0,102-22.3,102-48.8c0-26.4-46.7-48.8-102-48.8c-55.3,0-102,22.3-102,48.8
		C-444.6,1332.8-397.9,1355.2-342.6,1355.2z"/>
	<linearGradient id="SVGID_4_" gradientUnits="userSpaceOnUse" x1="-255.284" y1="1480.5657" x2="-255.284" y2="1270.3522">
		<stop  offset="0" style="stop-color:#FFF100"/>
		<stop  offset="1" style="stop-color:#F05A28"/>
	</linearGradient>
	<path class="st3" d="M-255.3,1377.5c-24.7,0-44.7,20-44.7,44.7c0,24.7,20,44.7,44.7,44.7s44.7-20,44.7-44.7
		C-210.6,1397.6-230.6,1377.5-255.3,1377.5z M-255.3,1460.5c-10.2,0-19.8-4-27-11.2c-7.2-7.2-11.2-16.8-11.2-27
		c0-10.2,4-19.8,11.2-27c7.2-7.2,16.8-11.2,27-11.2c10.2,0,19.8,4,27,11.2c7.2,7.2,11.2,16.8,11.2,27c0,10.2-4,19.8-11.2,27
		C-235.5,1456.5-245.1,1460.5-255.3,1460.5z"/>
	<linearGradient id="SVGID_5_" gradientUnits="userSpaceOnUse" x1="-255.284" y1="1480.5657" x2="-255.284" y2="1270.3522">
		<stop  offset="0" style="stop-color:#FFF100"/>
		<stop  offset="1" style="stop-color:#F05A28"/>
	</linearGradient>
	<path class="st4" d="M-241.8,1416.9v-4.9c0-7.4-6.1-13.5-13.5-13.5c-7.4,0-13.5,6.1-13.5,13.5v4.9c-2.8,0.8-4.9,3.4-4.9,6.4v16.1
		c0,3.7,3,6.6,6.6,6.6h23.5c3.7,0,6.6-3,6.6-6.6v-16.1C-236.9,1420.3-238.9,1417.7-241.8,1416.9z M-259.5,1416.6v-4.6
		c0-2.3,1.9-4.2,4.2-4.2c2.3,0,4.2,1.9,4.2,4.2v4.6H-259.5z M-250.2,1438.2c0,0.9-0.7,1.6-1.6,1.6h-0.1h-0.9h-2.5h-3.4
		c-0.9,0-1.6-0.7-1.6-1.6v-1.6c0-0.2,0-0.8,3-2c0,0,0,0,0.1,0c0.3-0.1,0.2-0.6,0.2-0.8c-0.2-0.2-0.4-0.6-0.5-1.1
		c0-0.1-0.1-0.3-0.2-0.4c-0.2-0.2-0.3-0.5-0.3-0.8c0-0.2,0.1-0.5,0.2-0.6c0,0,0.1-0.1,0.1-0.1c-0.1-0.4-0.3-1-0.1-1.4
		c0.1-0.2,0.2-0.3,0.5-0.5c0.3-0.6,1-0.9,2-0.9c1.1,0,2.4,0.4,2.6,1.4c0.1,0.6,0,1.1-0.1,1.4c0,0,0.1,0.1,0.1,0.1
		c0.1,0.2,0.2,0.4,0.2,0.6c0,0.3-0.1,0.6-0.3,0.9c-0.1,0.1-0.1,0.3-0.2,0.4c-0.1,0.6-0.3,0.9-0.5,1.1c-0.1,0.2-0.1,0.7,0.2,0.8
		c0,0,0.1,0,0.1,0c3,1.3,3,1.8,3,2V1438.2z"/>
</g>
</svg>
