<svg id="Layer_1" xmlns="http://www.w3.org/2000/svg" width="238" height="218" viewBox="0 0 238 218"><style>.st0{fill:url(#SVGID_1_)}.st1{fill:url(#SVGID_2_)}</style><linearGradient id="SVGID_1_" gradientUnits="userSpaceOnUse" x1="118.535" y1="213.024" x2="118.535" y2="15.814"><stop offset="0" stop-color="#fff200"/><stop offset="1" stop-color="#f15a29"/></linearGradient><path class="st0" d="M220.5 71.5c-9.1 0-16.5 7.4-16.5 16.5 0 2.6.6 5.1 1.7 7.3L185 106.5c-13.2 7.1-29.6 2.1-36.5-11.2l-23.5-45c5.9-2.5 10-8.4 10-15.2 0-9.1-7.4-16.5-16.5-16.5S102 26 102 35.1c0 6.8 4.1 12.7 10 15.2l-23.5 45c-6.9 13.3-23.4 18.3-36.5 11.2L31.4 95.4c1.1-2.2 1.7-4.7 1.7-7.4 0-9.1-7.4-16.5-16.5-16.5C7.4 71.5 0 78.9 0 88s7.4 16.5 16.5 16.5c1.7 0 3.3-.2 4.8-.7l15.5 64.9c.6 2.4 2.7 4 5.1 4h153c2.4 0 4.6-1.7 5.1-4l15.5-65c1.5.5 3.2.7 4.9.7 9.1 0 16.5-7.4 16.5-16.5.2-9-7.2-16.4-16.4-16.4z"/><linearGradient id="SVGID_2_" gradientUnits="userSpaceOnUse" x1="118.535" y1="213.024" x2="118.535" y2="15.814"><stop offset="0" stop-color="#fff200"/><stop offset="1" stop-color="#f15a29"/></linearGradient><path class="st1" d="M193.6 180.4h-150c-2.1 0-3.9 1.7-3.9 3.9v11.3c0 2.1 1.7 3.9 3.9 3.9h150c2.1 0 3.9-1.7 3.9-3.9v-11.3c-.1-2.2-1.8-3.9-3.9-3.9z"/></svg>