<?xml version="1.0" encoding="utf-8"?>
<!-- Generator: Adobe Illustrator 20.1.0, SVG Export Plug-In . SVG Version: 6.00 Build 0)  -->
<svg version="1.1" id="Layer_1" xmlns="http://www.w3.org/2000/svg" xmlns:xlink="http://www.w3.org/1999/xlink" x="0px" y="0px"
	 width="238px" height="218px" viewBox="0 0 238 218" style="enable-background:new 0 0 238 218;" xml:space="preserve">
<style type="text/css">
	.st0{fill:url(#SVGID_1_);}
	.st1{fill:url(#SVGID_2_);}
	.st2{fill:url(#SVGID_3_);}
	.st3{fill:url(#SVGID_4_);}
	.st4{fill:url(#SVGID_5_);}
	.st5{fill:url(#SVGID_6_);}
	.st6{fill:url(#SVGID_7_);}
	.st7{fill:url(#SVGID_8_);}
	.st8{fill:url(#SVGID_9_);}
	.st9{fill:url(#SVGID_10_);}
	.st10{fill:url(#SVGID_11_);}
</style>
<g>
	<g>
		<linearGradient id="SVGID_1_" gradientUnits="userSpaceOnUse" x1="118.8477" y1="251.0721" x2="118.8477" y2="-22.3475">
			<stop  offset="0" style="stop-color:#FFF100"/>
			<stop  offset="1" style="stop-color:#F05A28"/>
		</linearGradient>
		<path class="st0" d="M93.2,136.1c-16-16-15.3-33.9-15.3-34.7l0-0.3c0-22.5,18.3-40.9,40.9-40.9s40.9,18.3,40.9,40.9l0,0.3
			c0,0.8,0.7,18.7-15.3,34.7c-16,16-16.7,32.6-16.4,38.6h9.9c-0.3-3.3-0.6-17.5,13.5-31.6c18.6-18.6,18.3-39.8,18.2-42
			c-0.1-28-22.8-50.7-50.8-50.7c-28,0-50.7,22.7-50.8,50.7c-0.1,2.2-0.4,23.5,18.2,42c14.1,14.1,13.8,28.4,13.5,31.6h9.9
			C110,168.7,109.2,152,93.2,136.1z"/>
	</g>
	<linearGradient id="SVGID_2_" gradientUnits="userSpaceOnUse" x1="119" y1="251.0721" x2="119" y2="-22.3475">
		<stop  offset="0" style="stop-color:#FFF100"/>
		<stop  offset="1" style="stop-color:#F05A28"/>
	</linearGradient>
	<path class="st1" d="M133.7,189.4h-29.4c-2.7,0-4.9-2.2-4.9-4.9v0c0-2.7,2.2-4.9,4.9-4.9h29.4c2.7,0,4.9,2.2,4.9,4.9v0
		C138.6,187.3,136.4,189.4,133.7,189.4z"/>
	<linearGradient id="SVGID_3_" gradientUnits="userSpaceOnUse" x1="119" y1="251.0721" x2="119" y2="-22.3475">
		<stop  offset="0" style="stop-color:#FFF100"/>
		<stop  offset="1" style="stop-color:#F05A28"/>
	</linearGradient>
	<path class="st2" d="M133.7,203.3h-29.4c-2.7,0-4.9-2.2-4.9-4.9l0,0c0-2.7,2.2-4.9,4.9-4.9h29.4c2.7,0,4.9,2.2,4.9,4.9l0,0
		C138.6,201.1,136.4,203.3,133.7,203.3z"/>
	<linearGradient id="SVGID_4_" gradientUnits="userSpaceOnUse" x1="119" y1="251.0721" x2="119" y2="-22.3475">
		<stop  offset="0" style="stop-color:#FFF100"/>
		<stop  offset="1" style="stop-color:#F05A28"/>
	</linearGradient>
	<polygon class="st3" points="127.4,217.2 110.6,217.2 102,207.4 136,207.4 	"/>
	<g>
		
			<linearGradient id="SVGID_5_" gradientUnits="userSpaceOnUse" x1="5998.9282" y1="5897.875" x2="5998.9282" y2="5624.4556" gradientTransform="matrix(0 1 -1 0 4796.6577 -5940.168)">
			<stop  offset="0" style="stop-color:#FFF100"/>
			<stop  offset="1" style="stop-color:#F05A28"/>
		</linearGradient>
		<path class="st4" d="M199.7,49.5l-19.2,11.1c1,1.3,1.8,2.5,2.6,3.7c0.9,1.5,1.8,2.9,2.6,4.4l18.9-10.9c1.5-0.9,2.4-2.5,2.4-4.2
			c0-0.8-0.2-1.7-0.6-2.4C204.9,48.9,202,48.1,199.7,49.5z"/>
		
			<linearGradient id="SVGID_6_" gradientUnits="userSpaceOnUse" x1="5967.5024" y1="5897.875" x2="5967.5024" y2="5624.4556" gradientTransform="matrix(0 1 -1 0 4796.6577 -5940.168)">
			<stop  offset="0" style="stop-color:#FFF100"/>
			<stop  offset="1" style="stop-color:#F05A28"/>
		</linearGradient>
		<path class="st5" d="M171.8,18.5c0-1.7-0.9-3.3-2.4-4.2c-2.3-1.3-5.3-0.5-6.6,1.8l-11.7,20.2c0.8,0.4,1.6,0.8,2.4,1.2
			c1.9,1,3.8,2,5.5,3.1c0.2,0.1,0.4,0.2,0.5,0.3l11.6-20C171.6,20.2,171.8,19.4,171.8,18.5z"/>
		
			<linearGradient id="SVGID_7_" gradientUnits="userSpaceOnUse" x1="5955.2847" y1="5897.875" x2="5955.2847" y2="5624.4556" gradientTransform="matrix(0 1 -1 0 4796.6577 -5940.168)">
			<stop  offset="0" style="stop-color:#FFF100"/>
			<stop  offset="1" style="stop-color:#F05A28"/>
		</linearGradient>
		<path class="st6" d="M114.2,5.7v23.7c0.2,0,0.4,0,0.5,0c1.5-0.1,2.9-0.1,4.3-0.1c0.5,0,1.1,0,1.6,0l0.6,0c0.9,0,1.8,0.1,2.7,0.1
			V5.7c0-2.7-2.2-4.8-4.8-4.8S114.2,3,114.2,5.7z"/>
		
			<linearGradient id="SVGID_8_" gradientUnits="userSpaceOnUse" x1="5967.5015" y1="5897.875" x2="5967.5015" y2="5624.4556" gradientTransform="matrix(0 1 -1 0 4796.6577 -5940.168)">
			<stop  offset="0" style="stop-color:#FFF100"/>
			<stop  offset="1" style="stop-color:#F05A28"/>
		</linearGradient>
		<path class="st7" d="M78.4,41c1.5-1,3-1.8,4.5-2.6c1.3-0.7,2.6-1.4,4-2L75.2,16.1c-1.3-2.3-4.3-3.1-6.6-1.8
			c-1.5,0.9-2.4,2.5-2.4,4.2c0,0.8,0.2,1.7,0.6,2.4L78.4,41z"/>
		
			<linearGradient id="SVGID_9_" gradientUnits="userSpaceOnUse" x1="5998.9302" y1="5897.875" x2="5998.9302" y2="5624.4556" gradientTransform="matrix(0 1 -1 0 4796.6577 -5940.168)">
			<stop  offset="0" style="stop-color:#FFF100"/>
			<stop  offset="1" style="stop-color:#F05A28"/>
		</linearGradient>
		<path class="st8" d="M33.5,57.8l18.9,10.9c0.7-1.3,1.4-2.5,2.1-3.6c0.9-1.5,2-3,3.1-4.5L38.3,49.5c-2.3-1.3-5.3-0.5-6.6,1.8
			c-0.4,0.7-0.6,1.6-0.6,2.4C31.1,55.4,32,57,33.5,57.8z"/>
		
			<linearGradient id="SVGID_10_" gradientUnits="userSpaceOnUse" x1="6041.7725" y1="5897.875" x2="6041.7725" y2="5624.4556" gradientTransform="matrix(0 1 -1 0 4796.6577 -5940.168)">
			<stop  offset="0" style="stop-color:#FFF100"/>
			<stop  offset="1" style="stop-color:#F05A28"/>
		</linearGradient>
		<path class="st9" d="M219.8,101.6c0-2.7-2.2-4.8-4.8-4.8h-20.5c0.2,1.9,0.3,3.7,0.4,5.6l0,0.2c0,0.9,0.1,1.8,0.1,2.7
			c0,0.4,0,0.9,0,1.3h20C217.6,106.4,219.8,104.3,219.8,101.6z"/>
		
			<linearGradient id="SVGID_11_" gradientUnits="userSpaceOnUse" x1="6041.7725" y1="5897.875" x2="6041.7725" y2="5624.4556" gradientTransform="matrix(0 1 -1 0 4796.6577 -5940.168)">
			<stop  offset="0" style="stop-color:#FFF100"/>
			<stop  offset="1" style="stop-color:#F05A28"/>
		</linearGradient>
		<path class="st10" d="M43.1,102.2c0.1-1.8,0.2-3.6,0.4-5.4H23.1c-2.7,0-4.8,2.2-4.8,4.8c0,2.7,2.2,4.8,4.8,4.8h20
			c0-0.4,0-0.9,0-1.3C43.1,104.1,43.1,103.1,43.1,102.2z"/>
	</g>
</g>
</svg>
