<svg id="Layer_1" xmlns="http://www.w3.org/2000/svg" width="238" height="218" viewBox="0 0 238 218"><style>.st0{fill:url(#SVGID_1_)}.st1{fill:url(#SVGID_2_)}</style><linearGradient id="SVGID_1_" gradientUnits="userSpaceOnUse" x1="118.341" y1="238.667" x2="118.341" y2="-9.778"><stop offset="0" stop-color="#fff200"/><stop offset="1" stop-color="#f15a29"/></linearGradient><path class="st0" d="M155.1 153.6c-4.1-2.3-9.8-5.1-17.5-8.4-.1-.1-.3-.2-.6-.4-2.6-1.4-2-5.4-1.5-7.6 1.8-2 3.7-5.2 4.5-10.5.2-1.4.8-2.7 1.6-3.9 1.6-2.2 2.5-5.2 2.5-8.2 0-2.3-.5-4.4-1.6-6-.2-.4-.5-.7-.8-1 1.3-3.3 2.7-8.1 1.3-13.5-2.3-9.2-14.5-13.4-24.8-13.4-9.4 0-16.5 3.3-19.4 8.7-2.5 1.2-3.9 3-4.6 4.5-2.3 4.5-.7 9.8.7 13.5l-.9 1.2c-1.1 1.7-1.6 3.8-1.6 6.1 0 2.9.9 5.9 2.5 8 .8 1.1 1.4 2.5 1.6 3.9.8 5.3 2.7 8.6 4.6 10.6.5 2.2 1 6.1-1.5 7.5l-.6.3c-8.6 3.6-14.7 6.6-18.9 9.1-7.1 3.4-11.6 8-11.6 13.8 0 27.5 22.3 49.9 49.9 49.9 27.5 0 49.9-22.3 49.9-49.9-.1-6.1-5.3-10.9-13.2-14.3z"/><linearGradient id="SVGID_2_" gradientUnits="userSpaceOnUse" x1="119" y1="238.667" x2="119" y2="-9.778"><stop offset="0" stop-color="#fff200"/><stop offset="1" stop-color="#f15a29"/></linearGradient><path class="st1" d="M199.9 98.9L181 92.1v9.3h-16.8c-1.9-22-19.5-39.6-41.6-41.6v-22h9.1l-6.8-18.9L118.2 0l-6.8 18.9-6.8 18.9h8.9v22.1c-21.6 2.4-38.7 19.8-40.6 41.5H57v-9.3l-18.9 6.8-18.9 6.8 18.9 6.8 18.9 6.8v-8.7h19.5c1.1 0 2.1-.4 2.9-1.1 1.4-.8 2.4-2.2 2.4-4 0-20.2 16.5-36.7 36.7-36.7 20.2 0 36.7 16.5 36.7 36.7v.6c0 2.5 2 4.5 4.5 4.5H181v8.7l18.9-6.8 18.9-6.8-18.9-6.8z"/></svg>