<?xml version="1.0" encoding="utf-8"?>
<!-- Generator: Adobe Illustrator 20.1.0, SVG Export Plug-In . SVG Version: 6.00 Build 0)  -->
<svg version="1.1" id="Layer_1" xmlns="http://www.w3.org/2000/svg" xmlns:xlink="http://www.w3.org/1999/xlink" x="0px" y="0px"
	 width="238px" height="218px" viewBox="0 0 238 218" style="enable-background:new 0 0 238 218;" xml:space="preserve">
<style type="text/css">
	.st0{fill:url(#SVGID_1_);}
	.st1{fill:url(#SVGID_2_);}
	.st2{fill:url(#SVGID_3_);}
</style>
<g>
	<linearGradient id="SVGID_1_" gradientUnits="userSpaceOnUse" x1="64.9153" y1="160.8647" x2="64.9153" y2="124.7611">
		<stop  offset="0" style="stop-color:#3BB0C9"/>
		<stop  offset="1" style="stop-color:#0078AA"/>
	</linearGradient>
	<polygon class="st0" points="64.9,142.8 64.9,142.8 64.9,142.8 	"/>
	<linearGradient id="SVGID_2_" gradientUnits="userSpaceOnUse" x1="119" y1="217.9271" x2="119" y2="0.1407">
		<stop  offset="0" style="stop-color:#3BB0C9"/>
		<stop  offset="1" style="stop-color:#0078AA"/>
	</linearGradient>
	<path class="st1" d="M212.7,69.7c-17.1-47-49.7-76.9-74.2-68C132.2,4,127.2,8.6,123.4,15c-3.3,5.1-55.7,84.2-93.4,97.9
		c-5.5,2-9.9,6-12.4,11.3c-2.5,5.3-2.7,11.3-0.7,16.8c3.9,10.8,15.4,16.6,26.3,13.7c7.5,15.4,25.8,52.9,26,53.4
		c1.7,3.2,7.5,9.8,16.8,9.8c2.4,0,5.1-0.4,8-1.5l0.3-0.1c5.3-2,9.3-6.3,11.1-11.7c1.8-5.5,1-11.5-2.3-16.5l-27.8-38.3
		c45.1,0,104.3,19.3,105,19.5l0-0.1c3.5,1.2,7,1.8,10.3,1.8c3.1,0,6.1-0.5,8.9-1.5C224,160.6,229.8,116.7,212.7,69.7z M142.4,121.4
		c-3.8-7-7.2-14.6-10.1-22.5c-3.3-9.1-5.8-18.3-7.3-27.3c-3.8-22-2-40.7,4.4-52.2c0.2-0.3,0.4-0.6,0.5-0.7l0,0
		c2.9-4.9,6.7-8.4,11.2-10c2.1-0.7,4.2-1.1,6.4-1.1c19.4,0,44.7,27.3,58.3,64.7c15.2,41.7,11.2,83-8.8,90.3
		C181.2,168.2,158.8,151.3,142.4,121.4z M70.6,93.5c-0.4,7.8,1.1,16.9,4.5,26.1c3.3,9.2,8.1,17.1,13.4,22.9
		c-5.1-2.2-12-9.6-16.4-21.8C67.5,108.4,68.1,98.4,70.6,93.5z M76.2,142.2c-4.2-1.7-10-7.8-13.7-18.1c-3.6-9.9-3.3-18.6-1.1-22.7
		c-0.3,6.5,0.9,14.1,3.7,21.7C67.8,130.8,71.7,137.4,76.2,142.2z M82,117c-4.9-13.6-5.4-27.5-1.2-34.4c-1,9.7,0.7,21.4,5,33.3
		c4.2,11.5,10.2,21.4,17,28.2C95.2,141.1,86.8,130.3,82,117z M52.3,108.8c-0.1,5.4,0.9,11.6,3.2,17.8c2.3,6.4,5.7,12,9.4,16.2
		c-3.5-1-8.6-6.5-11.8-15.1C50,119.3,50.4,112,52.3,108.8z M64.9,142.8C64.9,142.8,64.9,142.8,64.9,142.8
		C64.9,142.8,64.9,142.8,64.9,142.8L64.9,142.8z M92.7,113.3C87.4,98.8,86.5,83.9,90,75c-0.4,11,1.7,23.8,6.4,36.8
		c4.8,13.3,11.7,24.8,19.3,33C107.1,140.3,98.1,128.1,92.7,113.3z M23.8,138.5c-1.3-3.7-1.2-7.6,0.5-11.1c1.6-3.5,4.6-6.2,8.2-7.5
		c3.6-1.3,7.3-3.1,11-5.4c-0.2,4.8,0.6,10.2,2.7,15.8c2,5.6,4.9,10.4,8.2,13.9c-4.2,0.7-8.2,1.7-11.9,3.1
		C34.9,149.9,26.5,146,23.8,138.5z M98.3,202.4c-1.1,3.3-3.5,5.8-6.7,7l-0.4,0.1c-10.8,3.9-15.5-4.8-15.6-4.8
		c-0.4-0.8-15.9-32.6-25.4-52.2c4.9-1.2,10.2-2,16-2.4l30.7,42.2C98.9,195.3,99.4,199,98.3,202.4z M135.8,149.9
		c-11.9-3.6-24.9-19.8-32.5-40.7c-7.6-21-8-42.7-0.8-52.7l0,0c5.1-6.5,9.8-12.7,13.7-18.2c-1.2,10.1-0.8,21.8,1.4,34.5
		c1.6,9.5,4.2,19.1,7.7,28.6c3,8.2,6.5,16.1,10.6,23.5c6.8,12.5,14.6,22.8,22.7,30.4C151.9,153.6,144.2,151.7,135.8,149.9z"/>
	<linearGradient id="SVGID_3_" gradientUnits="userSpaceOnUse" x1="156.2218" y1="217.9767" x2="156.2218" y2="0.2194">
		<stop  offset="0" style="stop-color:#3BB0C9"/>
		<stop  offset="1" style="stop-color:#0078AA"/>
	</linearGradient>
	<path class="st2" d="M178.5,84.2c-4.2-13.6-15.6-23.4-29.2-25c-1.8-0.2-3.2-0.2-4.6-0.1l-12.1,1.2l0.4,3.8c1.2,9.9,4,20.8,8.2,31.7
		c3.8,9.9,8.6,19.1,13.8,26.8l2.2,3.2l10.4-7.7c1.7-1.2,3.5-3.1,5.6-5.8c6.2-7.8,8.2-18.1,5.4-27.5L178.5,84.2z M171.5,86.7
		c2.1,7.2,0.6,14.9-4.1,20.8c-2.1,2.6-3.4,3.9-4.2,4.4l-4.2,3.1c-4.1-6.5-7.8-14.1-10.9-22.1c-3.5-8.9-5.9-17.9-7.2-26.1l4.5-0.4h0
		c0.8-0.1,1.8,0,3,0.1c10.7,1.2,19.7,9,23,19.8L171.5,86.7z"/>
</g>
</svg>
