<?xml version="1.0" encoding="utf-8"?>
<!-- Generator: Adobe Illustrator 19.0.1, SVG Export Plug-In . SVG Version: 6.00 Build 0)  -->
<!DOCTYPE svg PUBLIC "-//W3C//DTD SVG 1.1//EN" "http://www.w3.org/Graphics/SVG/1.1/DTD/svg11.dtd">
<svg version="1.1" id="Layer_1" xmlns="http://www.w3.org/2000/svg" xmlns:xlink="http://www.w3.org/1999/xlink" x="0px" y="0px"
	 width="20px" height="20px" viewBox="0 0 20 20" style="enable-background:new 0 0 20 20;" xml:space="preserve">
<style type="text/css">
	.st0{fill:#F05A28;}
</style>
<g>
	<path class="st0" d="M10,0C4.5,0,0,4.5,0,10s4.5,10,10,10s10-4.5,10-10S15.5,0,10,0z M10,18.6c-1.7,0-3-1.1-3-2.4h6
		C13,17.5,11.7,18.6,10,18.6z M14.7,15.5H5.3v-1.7h9.3V15.5z M14.6,12.8H5.3C4.2,11.5,4,10.4,4,10.4L6.7,11
		c-0.4-0.5-0.9-1.4-0.8-2.7c0,0-0.1-0.6,0.6-2.1c0.7-1.5,0.4-2.8,0.4-2.8s1,0,1.2,2.8c0,0,0.9-0.9,0.8-2.7S10,1,10,1
		s-0.5,1.1,0.2,2.2c0.6,1.1,0.6,2.1,0.7,3.3c0,0.1,0,0.3,0.1,0.4c0.1,0.1,0.1,0.2,0.2,0.2c0,0-0.6-3.3,1.1-4.4c0,0-0.3,1.5,0.2,2.4
		s1.4,2.2,1.1,4c-0.2,1-0.5,1.5-0.9,1.9l3.3-0.7C15.7,11.9,14.6,12.8,14.6,12.8z"/>
</g>
</svg>
