<?xml version="1.0" encoding="utf-8"?>
<!-- Generator: Adobe Illustrator 20.1.0, SVG Export Plug-In . SVG Version: 6.00 Build 0)  -->
<svg version="1.1" id="Layer_1" xmlns="http://www.w3.org/2000/svg" xmlns:xlink="http://www.w3.org/1999/xlink" x="0px" y="0px"
	 width="238px" height="218px" viewBox="0 0 238 218" style="enable-background:new 0 0 238 218;" xml:space="preserve">
<style type="text/css">
	.st0{fill:url(#SVGID_1_);}
	.st1{fill:url(#SVGID_2_);}
	.st2{fill:url(#SVGID_3_);}
</style>
<g>
	<linearGradient id="SVGID_1_" gradientUnits="userSpaceOnUse" x1="119.0003" y1="216.8402" x2="119.0003" y2="1.0357">
		<stop  offset="0" style="stop-color:#3BB0C9"/>
		<stop  offset="1" style="stop-color:#0078AA"/>
	</linearGradient>
	<path class="st0" d="M43.2,72.8c-3.7,7.3-6.3,15.3-7.7,23.7c-0.8,4.6-1.2,9.3-1.2,14.1c0,46.7,38,84.7,84.7,84.7
		c46.7,0,84.7-38,84.7-84.7c0-46.7-38-84.7-84.7-84.7C85.9,25.9,57.1,45,43.2,72.8z M41.8,110.6c0-2.9,0.2-5.7,0.5-8.5
		c3.1,2.4,6,5.4,6,8.5c0,5.9-5.4,1,3.7,10.1c-2.5,4.8-0.4,8.9-0.4,14c0,6.4,3.2,20.9,9.6,20.9l6.1,12.2
		C51.6,153.7,41.8,133.3,41.8,110.6z M61.1,78.4c6.4,0,12.9,0,12.9-6.4c0-6.4,12.9,0,12.9,0c6.4-6.4,6.4-6.4,0-9.6
		c-2.9-1.4,6.4,3.2,6.4-3.2c0-12.9-6.4,0,0-12.9c6.4-12.9,12.9,0,12.9-6.4c0-1.9,0.6-3.8,1.4-5.6c3.7-0.6,7.6-0.8,11.5-0.8
		c7.2,0,14.2,1,20.8,2.8c-0.7,6.7-6,18.1,0.1,18.1c6.4,0,19.3-6.4,12.9-12.9c3.7,1.5,7.6,3.8,11.3,6.5c-3.4,0.2-11.3,1.3-11.3,6.4
		c0,6.4-12.9,6.4-6.4,12.9c6.4,6.4-12.9,0-6.4,6.4c6.4,6.4,0,12.9,6.4,6.4c6.4-6.4,6.4-12.9,12.9-12.9c6.4,0,6.4,6.4,12.9,6.4
		c6.4,0-6.4-12.9,0-12.9c2,0,3.5-0.6,4.6-1.4c5.5,6.2,10,13.3,13.3,21c-10.5,1.2-18,6.2-18,6.2c-12.9-12.9-19.3,0-25.7,0
		c-6.4,0-6.4,12.9-6.4,12.9s-12.9,6.4-6.4,19.3c6.4,12.9,6.4,6.4,12.9,12.9c6.4,6.4,19.3-6.4,19.3-6.4s0,6.4,6.4,12.9
		c6.4,6.4-1.6,19.3-1.6,19.3l3.7,7.4c-14,14.3-33.5,23.2-55.1,23.2c-10.6,0-20.7-2.1-29.8-6c2.4-5.7,6.5-13.3,10.5-13.3
		c6.4,0,6.4,0,6.4-6.4c0-12.9,6.4-6.4,6.4-12.9c0-6.4-12.9-6.4-19.3-12.9c-6.4-6.4-9.6-12.9-16.1-12.9C74,117,74,117,67.5,117
		c-6.4,0-6.4-6.4-12.9,0c-5.6-5.6-6.3-20.9-10.7-24.8c1-4.1,2.4-8.2,4-12c4.4,3.5,1.7,11.1,6.6,11.1C61.1,91.3,54.7,78.4,61.1,78.4z
		"/>
	<linearGradient id="SVGID_2_" gradientUnits="userSpaceOnUse" x1="119" y1="216.8402" x2="119" y2="1.0357">
		<stop  offset="0" style="stop-color:#3BB0C9"/>
		<stop  offset="1" style="stop-color:#0078AA"/>
	</linearGradient>
	<path class="st1" d="M119,3.5c-0.9,0-1.6,0.7-1.6,1.6s0.7,1.6,1.6,1.6c57.2,0,103.8,46.6,103.8,103.8S176.2,214.4,119,214.4
		c-57.2,0-103.8-46.6-103.8-103.8c0-34.7,17.2-66.8,46-86.2c2.7,3.6,7,5.9,11.9,5.9c8.2,0,14.9-6.7,14.9-14.9S81.2,0.5,73,0.5
		S58.1,7.2,58.1,15.4c0,2.2,0.5,4.3,1.4,6.2c-29.8,20-47.5,53.1-47.5,89c0,59,48,107.1,107.1,107.1c59,0,107.1-48,107.1-107.1
		S178,3.5,119,3.5z M73,3.7c6.4,0,11.7,5.2,11.7,11.7S79.4,27,73,27s-11.7-5.2-11.7-11.7S66.6,3.7,73,3.7z"/>
	<linearGradient id="SVGID_3_" gradientUnits="userSpaceOnUse" x1="73.0069" y1="216.8402" x2="73.0069" y2="1.0357">
		<stop  offset="0" style="stop-color:#3BB0C9"/>
		<stop  offset="1" style="stop-color:#0078AA"/>
	</linearGradient>
	<circle class="st2" cx="73" cy="15.4" r="9.2"/>
</g>
</svg>
