<?xml version="1.0" encoding="utf-8"?>
<!-- Generator: Adobe Illustrator 20.1.0, SVG Export Plug-In . SVG Version: 6.00 Build 0)  -->
<svg version="1.1" id="Layer_1" xmlns="http://www.w3.org/2000/svg" xmlns:xlink="http://www.w3.org/1999/xlink" x="0px" y="0px"
	 width="238px" height="218px" viewBox="0 0 238 218" style="enable-background:new 0 0 238 218;" xml:space="preserve">
<style type="text/css">
	.st0{fill:url(#SVGID_1_);}
	.st1{fill:url(#SVGID_2_);}
	.st2{fill:url(#SVGID_3_);}
	.st3{fill:url(#SVGID_4_);}
	.st4{fill:url(#SVGID_5_);}
	.st5{fill:url(#SVGID_6_);}
	.st6{fill:url(#SVGID_7_);}
	.st7{fill:url(#SVGID_8_);}
	.st8{fill:url(#SVGID_9_);}
	.st9{fill:url(#SVGID_10_);}
	.st10{fill:url(#SVGID_11_);}
	.st11{fill:url(#SVGID_12_);}
</style>
<g>
	<linearGradient id="SVGID_1_" gradientUnits="userSpaceOnUse" x1="119" y1="272.3333" x2="119" y2="-1.2194">
		<stop  offset="0" style="stop-color:#FFF100"/>
		<stop  offset="1" style="stop-color:#F05A28"/>
	</linearGradient>
	<path class="st0" d="M123.3,1.3c-4.9,0-8.8,4-8.8,8.8s4,8.8,8.8,8.8c49.6,0,90,40.4,90,90s-40.4,90-90,90s-90-40.4-90-90
		c0-3.5,0.2-6.9,0.6-10.4l7.6,1.2c2.1,0.3,3.7-1.9,2.7-3.8L31.3,72c-0.8-1.5-2.9-1.9-4.1-0.6l-19.4,19c-1.5,1.5-0.7,4.1,1.4,4.5
		l7.1,1.1c-0.5,4.3-0.8,8.7-0.8,13c0,59.4,48.3,107.7,107.7,107.7S231,168.4,231,109C231,49.6,182.7,1.3,123.3,1.3z"/>
	<linearGradient id="SVGID_2_" gradientUnits="userSpaceOnUse" x1="112.5014" y1="272.3333" x2="112.5014" y2="-1.2194">
		<stop  offset="0" style="stop-color:#FFF100"/>
		<stop  offset="1" style="stop-color:#F05A28"/>
	</linearGradient>
	<path class="st1" d="M61.1,82.8l45.5,26.7c0,1.2,0.2,2.3,0.5,3.5c2.2,9,11.3,14.5,20.2,12.3c8.2-2,13.5-9.8,12.6-18l25-18.9
		c3.8-3,4.5-8.5,1.5-12.4c-3-3.8-8.5-4.5-12.4-1.5l-24.9,18.9c-3-1.1-6.4-1.4-9.8-0.6c-1.4,0.3-2.6,0.8-3.8,1.5L70,67.5
		c-4.2-2.5-9.6-1.1-12.1,3.1C55.4,74.9,56.9,80.3,61.1,82.8z"/>
	<linearGradient id="SVGID_3_" gradientUnits="userSpaceOnUse" x1="123.2765" y1="272.3333" x2="123.2765" y2="-1.2194">
		<stop  offset="0" style="stop-color:#FFF100"/>
		<stop  offset="1" style="stop-color:#F05A28"/>
	</linearGradient>
	<path class="st2" d="M120.2,173.6V186c0,1.7,1.4,3.1,3.1,3.1s3.1-1.4,3.1-3.1v-12.4c0-1.7-1.4-3.1-3.1-3.1S120.2,171.9,120.2,173.6
		z"/>
	<linearGradient id="SVGID_4_" gradientUnits="userSpaceOnUse" x1="123.2765" y1="272.3333" x2="123.2765" y2="-1.2194">
		<stop  offset="0" style="stop-color:#FFF100"/>
		<stop  offset="1" style="stop-color:#F05A28"/>
	</linearGradient>
	<path class="st3" d="M126.4,44.4V32c0-1.7-1.4-3.1-3.1-3.1s-3.1,1.4-3.1,3.1v12.4c0,1.7,1.4,3.1,3.1,3.1S126.4,46.1,126.4,44.4z"/>
	<linearGradient id="SVGID_5_" gradientUnits="userSpaceOnUse" x1="52.505" y1="272.3333" x2="52.505" y2="-1.2194">
		<stop  offset="0" style="stop-color:#FFF100"/>
		<stop  offset="1" style="stop-color:#F05A28"/>
	</linearGradient>
	<path class="st4" d="M43.2,109c0,1.7,1.4,3.1,3.1,3.1h12.4c1.7,0,3.1-1.4,3.1-3.1s-1.4-3.1-3.1-3.1H46.3
		C44.6,105.9,43.2,107.3,43.2,109z"/>
	<linearGradient id="SVGID_6_" gradientUnits="userSpaceOnUse" x1="194.0459" y1="272.3333" x2="194.0459" y2="-1.2194">
		<stop  offset="0" style="stop-color:#FFF100"/>
		<stop  offset="1" style="stop-color:#F05A28"/>
	</linearGradient>
	<path class="st5" d="M203.4,109c0-1.7-1.4-3.1-3.1-3.1h-12.4c-1.7,0-3.1,1.4-3.1,3.1s1.4,3.1,3.1,3.1h12.4
		C202,112.1,203.4,110.7,203.4,109z"/>
	<linearGradient id="SVGID_7_" gradientUnits="userSpaceOnUse" x1="158.6614" y1="272.3333" x2="158.6614" y2="-1.2194">
		<stop  offset="0" style="stop-color:#FFF100"/>
		<stop  offset="1" style="stop-color:#F05A28"/>
	</linearGradient>
	<path class="st6" d="M154,162.2c-1.5,0.9-2,2.7-1.1,4.2l6.2,10.8c0.6,1,1.6,1.5,2.7,1.5c0.5,0,1.1-0.1,1.5-0.4
		c1.5-0.9,2-2.7,1.1-4.2l-6.2-10.8C157.4,161.9,155.5,161.4,154,162.2z"/>
	<linearGradient id="SVGID_8_" gradientUnits="userSpaceOnUse" x1="61.9865" y1="272.3333" x2="61.9865" y2="-1.2194">
		<stop  offset="0" style="stop-color:#FFF100"/>
		<stop  offset="1" style="stop-color:#F05A28"/>
	</linearGradient>
	<path class="st7" d="M65.8,138.6l-10.8,6.2c-1.5,0.9-2,2.7-1.1,4.2c0.6,1,1.6,1.5,2.7,1.5c0.5,0,1.1-0.1,1.5-0.4l10.8-6.2
		c1.5-0.9,2-2.7,1.1-4.2C69.2,138.3,67.3,137.8,65.8,138.6z"/>
	<linearGradient id="SVGID_9_" gradientUnits="userSpaceOnUse" x1="184.5643" y1="272.3333" x2="184.5643" y2="-1.2194">
		<stop  offset="0" style="stop-color:#FFF100"/>
		<stop  offset="1" style="stop-color:#F05A28"/>
	</linearGradient>
	<path class="st8" d="M188.4,67.8L177.6,74c-1.5,0.9-2,2.7-1.1,4.2c0.6,1,1.6,1.5,2.7,1.5c0.5,0,1.1-0.1,1.5-0.4l10.8-6.2
		c1.5-0.9,2-2.7,1.1-4.2C191.8,67.5,189.9,67,188.4,67.8z"/>
	<linearGradient id="SVGID_10_" gradientUnits="userSpaceOnUse" x1="184.5661" y1="272.3333" x2="184.5661" y2="-1.2194">
		<stop  offset="0" style="stop-color:#FFF100"/>
		<stop  offset="1" style="stop-color:#F05A28"/>
	</linearGradient>
	<path class="st9" d="M180.7,138.6c-1.5-0.9-3.4-0.3-4.2,1.1c-0.9,1.5-0.3,3.4,1.1,4.2l10.8,6.2c0.5,0.3,1,0.4,1.5,0.4
		c1.1,0,2.1-0.6,2.7-1.5c0.9-1.5,0.3-3.4-1.1-4.2L180.7,138.6z"/>
	<linearGradient id="SVGID_11_" gradientUnits="userSpaceOnUse" x1="87.8907" y1="272.3333" x2="87.8907" y2="-1.2194">
		<stop  offset="0" style="stop-color:#FFF100"/>
		<stop  offset="1" style="stop-color:#F05A28"/>
	</linearGradient>
	<path class="st10" d="M88.3,163.4l-6.2,10.8c-0.9,1.5-0.3,3.4,1.1,4.2c0.5,0.3,1,0.4,1.5,0.4c1.1,0,2.1-0.6,2.7-1.5l6.2-10.8
		c0.9-1.5,0.3-3.4-1.1-4.2C91.1,161.4,89.2,161.9,88.3,163.4z"/>
	<linearGradient id="SVGID_12_" gradientUnits="userSpaceOnUse" x1="158.661" y1="272.3333" x2="158.661" y2="-1.2194">
		<stop  offset="0" style="stop-color:#FFF100"/>
		<stop  offset="1" style="stop-color:#F05A28"/>
	</linearGradient>
	<path class="st11" d="M155.6,56.2c1.1,0,2.1-0.6,2.7-1.5l6.2-10.8c0.9-1.5,0.3-3.4-1.1-4.2c-1.5-0.9-3.4-0.3-4.2,1.1l-6.2,10.8
		c-0.9,1.5-0.3,3.4,1.1,4.2C154.5,56.1,155,56.2,155.6,56.2z"/>
</g>
</svg>
