<?xml version="1.0" encoding="utf-8"?>
<!-- Generator: Adobe Illustrator 20.1.0, SVG Export Plug-In . SVG Version: 6.00 Build 0)  -->
<svg version="1.1" id="Layer_1" xmlns="http://www.w3.org/2000/svg" xmlns:xlink="http://www.w3.org/1999/xlink" x="0px" y="0px"
	 width="238px" height="218px" viewBox="0 0 238 218" enable-background="new 0 0 238 218" xml:space="preserve">
<g>
	<linearGradient id="SVGID_1_" gradientUnits="userSpaceOnUse" x1="119.1534" y1="216" x2="119.1534" y2="4.4108">
		<stop  offset="0" style="stop-color:#3BB0C9"/>
		<stop  offset="1" style="stop-color:#0078AA"/>
	</linearGradient>
	<path fill="url(#SVGID_1_)" d="M155.9,153.8c-4.1-2.3-9.8-5.1-17.5-8.4c-0.1-0.1-0.3-0.2-0.6-0.4c-2.6-1.4-2-5.4-1.5-7.7
		c1.8-2,3.7-5.2,4.5-10.5c0.2-1.4,0.8-2.8,1.6-3.9c1.6-2.2,2.5-5.2,2.5-8.2c0-2.3-0.5-4.4-1.6-6c-0.2-0.4-0.5-0.7-0.8-1
		c1.3-3.3,2.7-8.2,1.3-13.5c-2.3-9.2-14.5-13.4-24.8-13.4c-9.4,0-16.5,3.3-19.4,8.7c-2.5,1.2-3.9,3-4.6,4.5
		c-2.3,4.5-0.7,9.8,0.7,13.5c-0.3,0.4-0.6,0.8-0.9,1.2c-1.1,1.7-1.6,3.8-1.6,6.1c0,2.9,0.9,5.9,2.5,8.1c0.8,1.1,1.4,2.5,1.6,3.9
		c0.8,5.4,2.7,8.6,4.6,10.6c0.5,2.2,1,6.1-1.5,7.5c-0.2,0.1-0.4,0.2-0.6,0.3c-8.6,3.6-14.7,6.7-18.9,9.2c-7.1,3.4-11.6,8-11.6,13.8
		c0,27.6,22.4,50,50,50c27.6,0,50-22.4,50-50C169.1,162.1,163.9,157.2,155.9,153.8z"/>
	<linearGradient id="SVGID_2_" gradientUnits="userSpaceOnUse" x1="119.8128" y1="216" x2="119.8128" y2="4.4108">
		<stop  offset="0" style="stop-color:#3BB0C9"/>
		<stop  offset="1" style="stop-color:#0078AA"/>
	</linearGradient>
	<path fill="url(#SVGID_2_)" d="M200.8,99l-19-6.8v9.3H165c-1.9-22.1-19.6-39.7-41.6-41.6v-22h9.2l-6.8-19L119,0l-6.8,19l-6.8,19
		h8.9V60c-21.6,2.4-38.7,19.8-40.6,41.5H57.7v-9.3l-19,6.8l-19,6.8l19,6.8l19,6.8v-8.7h19.5c1.1,0,2.1-0.4,2.9-1.1
		c1.4-0.8,2.4-2.3,2.4-4c0-20.3,16.5-36.8,36.8-36.8c20.3,0,36.8,16.5,36.8,36.8c0,0.1,0,0.2,0,0.3c0,0.1,0,0.2,0,0.3
		c0,2.5,2,4.5,4.5,4.5h21.2v8.7l19-6.8l19-6.8L200.8,99z"/>
</g>
</svg>
