<?xml version="1.0" encoding="utf-8"?>
<!-- Generator: Adobe Illustrator 20.1.0, SVG Export Plug-In . SVG Version: 6.00 Build 0)  -->
<svg version="1.1" id="Layer_1" xmlns="http://www.w3.org/2000/svg" xmlns:xlink="http://www.w3.org/1999/xlink" x="0px" y="0px"
	 width="238px" height="218px" viewBox="0 0 238 218" enable-background="new 0 0 238 218" xml:space="preserve">
<g>
	<linearGradient id="SVGID_1_" gradientUnits="userSpaceOnUse" x1="203.9664" y1="196.0157" x2="203.9664" y2="31.7553">
		<stop  offset="0" style="stop-color:#FFF100"/>
		<stop  offset="1" style="stop-color:#F05A28"/>
	</linearGradient>
	<polygon fill="url(#SVGID_1_)" points="177.5,195.6 230.5,154.5 177.5,113.4 	"/>
	<linearGradient id="SVGID_2_" gradientUnits="userSpaceOnUse" x1="203.9664" y1="196.0157" x2="203.9664" y2="31.7553">
		<stop  offset="0" style="stop-color:#FFF100"/>
		<stop  offset="1" style="stop-color:#F05A28"/>
	</linearGradient>
	<polygon fill="url(#SVGID_2_)" points="177.5,24.1 177.5,106.2 230.5,65.1 	"/>
	<linearGradient id="SVGID_3_" gradientUnits="userSpaceOnUse" x1="93.471" y1="196.0157" x2="93.471" y2="31.7111">
		<stop  offset="0" style="stop-color:#FFF100"/>
		<stop  offset="1" style="stop-color:#F05A28"/>
	</linearGradient>
	<path fill="url(#SVGID_3_)" d="M87.7,93.2C66.5,73.1,38.7,62.1,9.5,62.1v24c22.6,0,44.1,8.4,60.7,23.7
		c-16.6,15.3-38.1,23.7-60.7,23.7v24c29.2,0,57-11.1,78.2-31.2l6.2,5.9c22.6,21.6,52.3,33.5,83.6,33.5v-24c-25.1,0-48.9-9.5-67-26.9
		l-5.4-5.2l5.4-5.2c18.1-17.3,41.9-26.9,67-26.9v-24c-31.3,0-60.9,11.9-83.6,33.5L87.7,93.2z"/>
</g>
</svg>
