<?xml version="1.0" encoding="utf-8"?>
<!-- Generator: Adobe Illustrator 20.1.0, SVG Export Plug-In . SVG Version: 6.00 Build 0)  -->
<svg version="1.1" id="Layer_1" xmlns="http://www.w3.org/2000/svg" xmlns:xlink="http://www.w3.org/1999/xlink" x="0px" y="0px"
	 width="238px" height="218px" viewBox="0 0 238 218" enable-background="new 0 0 238 218" xml:space="preserve">
<g>
	<linearGradient id="SVGID_1_" gradientUnits="userSpaceOnUse" x1="173.3011" y1="235.0578" x2="173.3011" y2="-10.0189">
		<stop  offset="0" style="stop-color:#B280B8"/>
		<stop  offset="1" style="stop-color:#8A4F9E"/>
	</linearGradient>
	<path fill="url(#SVGID_1_)" d="M154.9,114.2v101.1c13.1-2.5,25.5-6.9,36.9-12.9V77.3L154.9,114.2z"/>
	<linearGradient id="SVGID_2_" gradientUnits="userSpaceOnUse" x1="128.5359" y1="235.0578" x2="128.5359" y2="-10.0189">
		<stop  offset="0" style="stop-color:#B280B8"/>
		<stop  offset="1" style="stop-color:#8A4F9E"/>
	</linearGradient>
	<path fill="url(#SVGID_2_)" d="M129.8,139.2l-8.1,8.1l-8.1-8.1l-3.6-3.6V216c6.6,1,13.3,1.5,20.2,1.5c5.6,0,11.2-0.4,16.7-1v-94.4
		L129.8,139.2z"/>
	<linearGradient id="SVGID_3_" gradientUnits="userSpaceOnUse" x1="83.7708" y1="235.0578" x2="83.7708" y2="-10.0189">
		<stop  offset="0" style="stop-color:#B280B8"/>
		<stop  offset="1" style="stop-color:#8A4F9E"/>
	</linearGradient>
	<path fill="url(#SVGID_3_)" d="M83,108.6l-17.7,17.7v74.2c11.4,6.4,23.7,11.3,36.9,14.1v-86.8L83,108.6z"/>
	<linearGradient id="SVGID_4_" gradientUnits="userSpaceOnUse" x1="41.5588" y1="235.0578" x2="41.5588" y2="-10.0189">
		<stop  offset="0" style="stop-color:#B280B8"/>
		<stop  offset="1" style="stop-color:#8A4F9E"/>
	</linearGradient>
	<path fill="url(#SVGID_4_)" d="M27.8,163.8l-2.1,2.1c8.9,11.5,19.6,21.6,31.8,29.7v-61.4L27.8,163.8z"/>
	<linearGradient id="SVGID_5_" gradientUnits="userSpaceOnUse" x1="120.0362" y1="235.0578" x2="120.0362" y2="-10.0189">
		<stop  offset="0" style="stop-color:#B280B8"/>
		<stop  offset="1" style="stop-color:#8A4F9E"/>
	</linearGradient>
	<path fill="url(#SVGID_5_)" d="M83,92.4l38.7,38.7l73.8-73.8L208.2,70l12.4-34.1l12.4-34.1C233,1.6,199,14.2,199,14.2l-34.1,12.4
		l12.7,12.7l-55.8,55.8L83,56.4l-76,76c2.7,7,5.9,13.8,9.7,20.1l3.1,3.1L83,92.4z"/>
</g>
</svg>
