<?xml version="1.0" encoding="utf-8"?>
<!-- Generator: Adobe Illustrator 20.1.0, SVG Export Plug-In . SVG Version: 6.00 Build 0)  -->
<svg version="1.1" id="Layer_1" xmlns="http://www.w3.org/2000/svg" xmlns:xlink="http://www.w3.org/1999/xlink" x="0px" y="0px"
	 width="238px" height="218px" viewBox="0 0 238 218" style="enable-background:new 0 0 238 218;" xml:space="preserve">
<style type="text/css">
	.st0{fill:url(#SVGID_1_);}
	.st1{fill:url(#SVGID_2_);}
	.st2{fill:url(#SVGID_3_);}
	.st3{fill:url(#SVGID_4_);}
</style>
<g>
	<linearGradient id="SVGID_1_" gradientUnits="userSpaceOnUse" x1="200.532" y1="214.4512" x2="200.532" y2="4.0737">
		<stop  offset="0" style="stop-color:#3BB0C9"/>
		<stop  offset="1" style="stop-color:#0078AA"/>
	</linearGradient>
	<path class="st0" d="M235,116.7c-1.6,0-2.6,1.1-2.8,2.6c-2.6-0.5-5.3-0.5-7.9-0.5c-14.6,0.4-29.3,0.2-44-0.5
		c-5.7-0.3-11.5-0.6-17.1-0.9c0,0.3,0,0.6,0,0.8c0,0.3,0,0.6,0,1c5.6,0.4,11.2,0.7,17,0.9c14.7,0.7,29.6,0.9,44.2,0.5
		c2.8,0,5.6-0.2,8.2,0.7c0.5,0.7,1.4,1.2,2.5,1.2c1.6,0,3-1.2,3-3C237.9,117.9,236.7,116.7,235,116.7z"/>
	<linearGradient id="SVGID_2_" gradientUnits="userSpaceOnUse" x1="54.2202" y1="214.4512" x2="54.2202" y2="4.0737">
		<stop  offset="0" style="stop-color:#3BB0C9"/>
		<stop  offset="1" style="stop-color:#0078AA"/>
	</linearGradient>
	<path class="st1" d="M107.5,112c-0.2-0.2-0.5-0.4-0.9-0.2c-0.4,0-0.5,0.4-0.7,0.5l-2.3,7L101,94.6c0-0.5-0.4-0.9-0.9-0.9
		c-0.5,0-0.9,0.4-0.9,0.9l-3.5,53L93.5,13.1c0-0.5-0.4-0.9-0.9-0.9s-0.9,0.4-0.9,0.9l-2.5,117.1l-2.8-43.5c0-0.5-0.4-0.9-0.9-0.9
		c-0.5,0-0.9,0.4-0.9,0.9L82.1,113l-1.8-77.7c0-0.5-0.4-0.9-0.9-0.9s-0.9,0.4-0.9,0.9L75,143.5l-3.5-50.7c0-0.5-0.4-0.9-0.9-0.9
		c-0.5,0-0.9,0.4-0.9,0.9l-2.5,39.6l-3-78c0-0.5-0.4-0.9-0.9-0.9s-0.9,0.4-0.9,0.9l-1.9,113.4l-2.1-88c0-0.5-0.4-0.9-0.9-0.9
		c-0.5,0-0.9,0.4-0.9,0.9l-2.5,53.3L51,5.9C51,5.4,50.7,5,50.1,5c-0.5,0-0.9,0.4-0.9,0.9l-1.4,110.3L45.9,85c0-0.5-0.4-0.9-0.9-0.9
		c-0.5,0-0.9,0.4-0.9,0.9l-1.4,43.8l-2.3-64.9c0-0.5-0.4-0.9-0.9-0.9s-0.9,0.4-0.9,0.9L36.8,157l-1.8-72.2c0-0.5-0.4-0.9-0.9-0.9
		c-0.5,0-0.9,0.4-0.9,0.9l-2.6,42.4L28.4,86c0-0.5-0.4-0.9-0.9-0.9c-0.5,0-0.9,0.4-0.9,0.9l-0.5,26.7L24,13.4c0-0.5-0.4-0.9-0.9-0.9
		c-0.5,0-0.9,0.4-0.9,0.9l-3.3,143.8l-0.9-76.5c0-0.5-0.4-0.9-0.9-0.9c-0.5,0-0.9,0.4-0.9,0.9l-1.6,30.2L12.3,6.8
		c0-0.5-0.4-0.9-0.9-0.9c-0.5,0-0.9,0.4-0.9,0.9L9.3,113.4L6.5,91.1c0-0.5-0.5-0.9-0.9-0.9c-0.5,0-0.9,0.4-0.9,0.9l-2.5,22.8
		c-1.4,0.4-2.3,1.4-2.3,2.8c0,1.6,1.2,3,3,3c1.8,0,3-1.2,3-3c0-1.2-0.7-2.3-1.8-2.6l1.6-14.9l3.3,28.1c0,0.5,0.5,0.9,0.9,0.9
		c0.5,0,0.9-0.4,0.9-0.9l0.7-70l1.9,78.6c0,0.5,0.4,0.9,0.9,0.9c0.4,0,0.9-0.4,0.9-0.9l1.2-24.4l1.1,99.1c0,0.5,0.4,0.9,0.9,0.9
		s0.9-0.4,0.9-0.9l3.5-156.9l2.5,102.9c0,0.5,0.4,0.9,0.9,0.9c0.5,0,0.9-0.4,0.9-0.9l0.9-46.3l1.8,32.4c0,0.5,0.4,0.9,0.9,0.9
		c0.5,0,0.9-0.4,0.9-0.9l2.3-36.8l2.3,92.2c0,0.5,0.4,0.9,0.9,0.9c0.5,0,0.9-0.4,0.9-0.9l2.1-100.6l2.1,59.6c0,0.5,0.4,0.9,0.9,0.9
		c0.5,0,0.9-0.4,0.9-0.9l1.6-51.9l2.1,36.1c0,0.5,0.4,0.9,0.9,0.9c0.5,0,0.9-0.4,0.9-0.9l1.1-88.9l3.2,105.6c0,0.5,0.4,0.9,0.9,0.9
		c0.4,0,0.9-0.4,0.9-0.9l2.5-52.3L60,212.1c0,0.5,0.4,0.9,0.9,0.9c0.5,0,0.9-0.4,0.9-0.9l2.1-124.5l2.5,63.1c0,0.5,0.4,0.9,0.9,0.9
		c0.5,0,0.9-0.4,0.9-0.9l2.8-43.8l3.7,54.9c0,0.5,0.5,0.9,0.9,0.9c0.5,0,0.9-0.4,0.9-0.9l3-92.9l1.2,59.3c0,0.5,0.4,0.9,0.9,0.9
		c0.5,0,0.9-0.4,0.9-0.9l3-30.2l3.5,54.2c0,0.5,0.5,0.9,0.9,0.9c0.5,0,0.9-0.4,0.9-0.9l1.8-90l1.9,107c0,0.5,0.4,0.9,0.9,0.9
		c0.5,0,0.9-0.4,0.9-0.9l4.2-64.2l2.3,18.8c0,0.4,0.4,0.7,0.9,0.9c0.4,0,0.9-0.2,0.9-0.7l3.2-9.6l0.8,0.8c0.1-0.7,0.2-1.4,0.3-2.1
		L107.5,112z"/>
	<linearGradient id="SVGID_3_" gradientUnits="userSpaceOnUse" x1="135.5367" y1="214.4512" x2="135.5367" y2="4.0737">
		<stop  offset="0" style="stop-color:#3BB0C9"/>
		<stop  offset="1" style="stop-color:#0078AA"/>
	</linearGradient>
	<path class="st2" d="M163.1,117.4c-0.4-14.8-12.6-26.8-27.6-26.8c-13.4,0-24.6,9.6-27.1,22.3c-0.1,0.7-0.2,1.4-0.3,2.1
		c-0.1,1-0.2,2.1-0.2,3.1c0,15.2,12.4,27.6,27.6,27.6c14.9,0,27.1-11.9,27.6-26.6c0-0.3,0-0.6,0-1
		C163.1,117.9,163.1,117.6,163.1,117.4z M135.5,141.9c-13.1,0-23.7-10.6-23.7-23.7c0-13.1,10.6-23.7,23.7-23.7
		c13.1,0,23.7,10.6,23.7,23.7C159.3,131.3,148.6,141.9,135.5,141.9z"/>
	<linearGradient id="SVGID_4_" gradientUnits="userSpaceOnUse" x1="135.5364" y1="214.4512" x2="135.5364" y2="4.0737">
		<stop  offset="0" style="stop-color:#3BB0C9"/>
		<stop  offset="1" style="stop-color:#0078AA"/>
	</linearGradient>
	<circle class="st3" cx="135.5" cy="118.2" r="17.7"/>
</g>
</svg>
