<svg id="Layer_1" xmlns="http://www.w3.org/2000/svg" width="238" height="218" viewBox="0 0 238 218"><style>.st0{fill:url(#SVGID_1_)}.st1{fill:url(#SVGID_2_)}.st2{fill:url(#SVGID_3_)}.st3{fill:url(#SVGID_4_)}.st4{fill:url(#SVGID_5_)}.st5{fill:url(#SVGID_6_)}.st6{fill:url(#SVGID_7_)}.st7{fill:url(#SVGID_8_)}.st8{fill:url(#SVGID_9_)}</style><linearGradient id="SVGID_1_" gradientUnits="userSpaceOnUse" x1="119" y1="240.912" x2="119" y2="-54.574"><stop offset="0" stop-color="#fff200"/><stop offset="1" stop-color="#f15a29"/></linearGradient><path class="st0" d="M119 0C59.1 0 10.3 48.7 10.3 108.7S59.1 217.3 119 217.3s108.7-48.7 108.7-108.7S178.9 0 119 0zm0 212.1c-57 0-103.4-46.4-103.4-103.4S62 5.2 119 5.2c57 0 103.4 46.4 103.4 103.4S176 212.1 119 212.1z"/><linearGradient id="SVGID_2_" gradientUnits="userSpaceOnUse" x1="170.148" y1="240.912" x2="170.148" y2="-54.574"><stop offset="0" stop-color="#fff200"/><stop offset="1" stop-color="#f15a29"/></linearGradient><path class="st1" d="M127.6 84.3c-2.1 0-3.9 1.8-3.9 3.9v56c0 2.1 1.8 3.9 3.9 3.9h3.2v-38.9h5V148h1.8v-43.7h5V148h1.8v-38.3h5V148h1.8V99h5v49h1.8v-42.2h5V148h1.8v-40.5h5V148h1.8V94.7h5V148h1.8v-41.4h5V148h1.8v-35.8h5V148h1.8v-34.1h5V148h1.8v-38.9h5V148h1.8v-40.5h5v37.2l1.8-4.8v-36.4h5c-.3-6.6-1.3-13-2.9-19.2h-86.9z"/><linearGradient id="SVGID_3_" gradientUnits="userSpaceOnUse" x1="119" y1="240.912" x2="119" y2="-54.574"><stop offset="0" stop-color="#fff200"/><stop offset="1" stop-color="#f15a29"/></linearGradient><path class="st2" d="M50.6 178.5l.9-.9c1.1-.2 2.2-1.5 3.4-1.5.9 0 1.7 1 2 1 1.3 0 3.1-1.1 4.4-1.1.4 0 .9.2 1.3.4l-6.9 6.9c.4.3.8.7 1.2 1l7-7c.6.4 1.2.8 1.7 1 1.6.5 3.3.4 4.9.4.6 0 1.1.1 1.7.2l-9.7 9.7c.4.3.9.6 1.3.9L74.4 179c2.8.4 5.5 1 8.2 1.7l-12.5 12.5c.5.3.9.6 1.4.8l12.9-12.9 4.2 1.2c1.1.3 2.7.4 4 .6l-14.4 14.4c.5.2 1 .5 1.5.7l14.7-14.7c1.3.6 2.1 1.6 3.5 2.2 1.4.6 2.9 0 4.1.1L86.8 201c.6.2 1.1.4 1.7.6l15.1-15.1c1.9 1.1 3.4 2.8 5.9 3.1h.9l-14.2 14.2c.6.1 1.2.3 1.8.4l15-15h.1c2.4.2 5.1 1.5 7.5 2.3l-14.1 14.1c.7.1 1.3.2 2 .3l13.9-13.9c2.3.6 5.5 1.6 7.9 2l-12.4 12.4h2.3l12.2-12.2c1.5-.1 3-.7 4.5-.7 2.2 0 4 .3 6 .1l-12.1 12.1c.9-.1 1.7-.2 2.6-.3l12.5-12.5c5.9-1.8 11.7-3.9 17.1-7.1l-16.9 16.9c1.1-.3 2.2-.6 3.2-1l15.4-15.4c1.3 2 1.5 1.9 3.7 1.9 1.3 0 3-.3 4.7-.4l-6.1 6.1c1.9-1.1 3.9-2.2 5.7-3.5l2.7-2.7h.1c.3 0 .6.1 1 .1 11.7-8.4 21.4-19.4 28.4-32H33.4c4.6 8.5 10.4 16.1 17.2 22.7z"/><linearGradient id="SVGID_4_" gradientUnits="userSpaceOnUse" x1="68.392" y1="240.912" x2="68.392" y2="-54.574"><stop offset="0" stop-color="#fff200"/><stop offset="1" stop-color="#f15a29"/></linearGradient><path class="st3" d="M114.2 144.1V139c-.5.1-1.1.1-1.6.1-3 0-5.4-1.1-6.7-3-2.4.3-3.3-.6-4-1.7-.3-.5-.6-.8-1.2-1.1-2.3-1.1-5.1-1.6-8-2.1-1.5-.3-3.1-.5-4.6-.9-2.6-.6-5.3-1.4-7.9-2.1-3.2-.9-6.4-1.8-9.5-2.4l-1.4-.3c-5.2-1-10.4-2.1-15.2-4.3-.9.3-1.7.6-2 .6-2.2 0-3.7-.4-4.9-.6-2.1-.5-3.4-.8-6.9 1l-1.3.7c-2.1 1.1-4.2 2.3-6.6 2.6-1.6.2-3.1-.2-4.5-.6-1.4-.4-2.8-.8-4-.5-.4.1-.8.3-1.2.6 1.4 8.1 3.7 15.8 6.9 23.1h80.8c2-.1 3.8-1.8 3.8-4z"/><linearGradient id="SVGID_5_" gradientUnits="userSpaceOnUse" x1="36.279" y1="240.912" x2="36.279" y2="-54.574"><stop offset="0" stop-color="#fff200"/><stop offset="1" stop-color="#f15a29"/></linearGradient><path class="st4" d="M28.3 122.8c1.3.4 2.6.7 3.7.6 2-.3 4-1.4 5.9-2.4l1.3-.7c4.1-2.1 5.9-1.7 8.2-1.2 1 .2 2.2.5 3.8.6-.7-.5-1.2-.9-1.6-1.4-1.1-1-1.9-1.8-4.3-2.1-.8-.1-1.7-.1-2.6-.1-2.8 0-6.6 0-7.1-4.4-1.3-.1-2.7-.1-4.2 0s-3.1.2-4.7 0c-1.4-.2-2.7-.7-4-1.3l-1.5-.6c.1 4.4.4 8.7 1 12.9.3-.2.7-.3 1.1-.4 1.7-.4 3.4.1 5 .5z"/><linearGradient id="SVGID_6_" gradientUnits="userSpaceOnUse" x1="85.461" y1="240.912" x2="85.461" y2="-54.574"><stop offset="0" stop-color="#fff200"/><stop offset="1" stop-color="#f15a29"/></linearGradient><path class="st5" d="M89.1 116.1c-2.1-.1-4.2-.3-6.2-1.4-1.3-.7-2.1-1.5-2.7-2.1-1.1-1-1.2-1.1-3 .1-.8.6-1.1 1.4-1.5 2.4-.4 1.1-.9 2.3-2.1 3.1l-.6.5-.6-.5c-1.2-.9-2-1.8-2.8-2.6-1.7-1.8-2.4-2.6-4.9-1.9-1.3.3-2 1.3-2.8 2.5-.7 1-1.5 2.1-2.7 2.8-.2.1-1.2.6-2.4 1 4 1.6 8.5 2.5 12.9 3.4l1.4.3c3.1.6 6.4 1.6 9.6 2.5 2.6.7 5.3 1.5 7.8 2.1 1.5.3 3 .6 4.5.8 3.1.5 6.1 1 8.6 2.3 1 .5 1.5 1.2 1.9 1.8.6.8.8 1.1 2.7.8l.7-.1.3.7c1.4 2.8 5.1 2.7 6.9 2.5v-7.9l-.5 1.2c-2.1-.8-5.1-2-6.6-4.6-.1.1-.3.2-.4.2-.3.2-.8.4-.9.5l-.8.9-.7-.9c-.4-.5-.8-1.4-1.2-2.3-.3-.8-1-2.2-1.3-2.4-.4-.2-.7 0-1.4.5-.5.3-1.1.8-1.8.5-.3-.1-.7-.2-1-.3-1.9-.6-4.2-1.3-3.9-5.5-1.3-.7-2.9-.8-4.5-.9z"/><linearGradient id="SVGID_7_" gradientUnits="userSpaceOnUse" x1="67.722" y1="240.912" x2="67.722" y2="-54.574"><stop offset="0" stop-color="#fff200"/><stop offset="1" stop-color="#f15a29"/></linearGradient><path class="st6" d="M27 109.7c1.4.2 2.8.1 4.3 0 1.8-.1 3.6-.2 5.4.1l.8.1v.8c0 3.1 1.7 3.2 5.2 3.2 1 0 2 0 2.9.1 3 .4 4.1 1.5 5.4 2.6.7.7 1.5 1.4 2.8 2.1.1 0 .2.1.3.1 1.6-.6 3.6-1.4 4.1-1.7.8-.4 1.4-1.2 2-2.1.9-1.3 1.9-2.7 3.9-3.3 3.6-1 5.1.6 6.9 2.4.5.6 1.1 1.2 1.9 1.8.4-.5.6-1.1.9-1.7.5-1.1 1-2.4 2.3-3.3 3-2.1 4.1-1.3 5.6.1.6.6 1.2 1.2 2.3 1.7 1.6.9 3.4 1 5.3 1.1 2 .1 4.1.3 6.1 1.3l.6.3-.1.7c-.5 3.2.5 3.5 2.4 4 .3.1.5.2.8.3.1-.1.2-.1.3-.2.7-.5 1.9-1.3 3.4-.6.9.4 1.4 1.5 2.3 3.4.2.3.3.7.5 1 .1-.1.2-.1.3-.2.4-.2.9-.5 1.1-.7l1.2-1.3.5 1.7c.8 2.5 3.5 3.6 5.7 4.4V88.2c0-2.1-1.8-3.9-3.9-3.9h-86c-1.9 7.5-3 15.4-3 23.5.8.2 1.5.5 2.3.8.9.4 2.1.9 3.2 1.1z"/><linearGradient id="SVGID_8_" gradientUnits="userSpaceOnUse" x1="119.389" y1="240.912" x2="119.389" y2="-54.574"><stop offset="0" stop-color="#fff200"/><stop offset="1" stop-color="#f15a29"/></linearGradient><path class="st7" d="M50.4 48.9c1 0 1.9.3 2.7.9L65 42.2c-.1-.3-.1-.6-.1-.8 0-2.6 2.1-4.7 4.7-4.7 2.5 0 4.6 2 4.7 4.5l11.1 4c.9-.9 2.1-1.6 3.5-1.6 2.6 0 4.7 2.1 4.7 4.7v.2l11.4 5.2c.8-.8 2-1.3 3.2-1.3 1.4 0 2.6.6 3.5 1.6l11.1-4c.1-2.5 2.1-4.5 4.7-4.5 2.4 0 4.3 1.8 4.6 4.1l10.9 3c.9-1.1 2.2-1.9 3.7-1.9 1.7 0 3.1.9 3.9 2.2l10.7-1.9c.4-2.1 2.3-3.7 4.6-3.7 2.1 0 3.9 1.4 4.5 3.3l10.6 1c.8-1.5 2.3-2.5 4.1-2.5 2.3 0 4.2 1.6 4.6 3.8l11 2.1c-17.5-26.5-47.5-43.9-81.6-43.9-33.6 0-63.2 16.9-80.8 42.7l7.6-1.1c.4-2.2 2.3-3.8 4.5-3.8z"/><linearGradient id="SVGID_9_" gradientUnits="userSpaceOnUse" x1="119" y1="240.912" x2="119" y2="-54.574"><stop offset="0" stop-color="#fff200"/><stop offset="1" stop-color="#f15a29"/></linearGradient><path class="st8" d="M203.1 58.8l-14.2-2.7c-.8 1.3-2.3 2.2-3.9 2.2-2.1 0-3.9-1.4-4.5-3.3l-10.6-1c-.8 1.5-2.3 2.5-4.1 2.5-1.7 0-3.1-.9-3.9-2.2l-10.7 1.9c-.4 2.1-2.3 3.7-4.6 3.7-2.4 0-4.3-1.8-4.6-4.1L131 53c-.9 1.1-2.2 1.9-3.7 1.9-1.4 0-2.6-.6-3.5-1.6l-11.1 4c-.1 2.5-2.1 4.5-4.7 4.5s-4.7-2.1-4.7-4.7v-.2L92 51.8c-.8.8-2 1.3-3.2 1.3-2.5 0-4.6-2-4.7-4.5l-11.1-4c-.9 1-2.1 1.6-3.5 1.6-1 0-1.9-.3-2.7-.9L55 52.8c.1.3.1.6.1.8 0 2.6-2.1 4.7-4.7 4.7-1.7 0-3.2-.9-4-2.3l-10.7 1.6c-3.7 5.8-6.7 12.1-9 18.7h184.6c-2.2-6.1-4.9-12-8.2-17.5z"/></svg>