<svg id="Layer_1" xmlns="http://www.w3.org/2000/svg" width="238" height="218" viewBox="0 0 238 218"><style>.st0{fill:url(#SVGID_1_)}.st1{fill:url(#SVGID_2_)}.st2{fill:url(#SVGID_3_)}.st3{fill:url(#SVGID_4_)}</style><linearGradient id="SVGID_1_" gradientUnits="userSpaceOnUse" x1="116.507" y1="237" x2="116.507" y2="-12.402"><stop offset="0" stop-color="#fff200"/><stop offset="1" stop-color="#f15a29"/></linearGradient><path class="st0" d="M135.4 68.8c-7.1 0-13.8 2.7-18.9 7.5-5.1-4.9-11.8-7.5-18.9-7.5-7.4 0-14.3 2.9-19.5 8.1C72.9 82.1 70 89 70 96.4s2.9 14.3 8.1 19.5l38.4 38.4 38.4-38.4c5.2-5.2 8.1-12.1 8.1-19.5s-2.9-14.3-8.1-19.5c-5.2-5.2-12.1-8.1-19.5-8.1zm17 44.5l-35.9 35.9-35.9-35.9c-4.5-4.5-7-10.5-7-16.9 0-6.4 2.5-12.4 7-16.9 4.5-4.5 10.5-7 16.9-7 6.4 0 12.4 2.5 16.9 7l2 2 2-2c4.5-4.5 10.5-7 16.9-7 6.4 0 12.4 2.5 16.9 7 4.5 4.5 7 10.5 7 16.9.2 6.3-2.3 12.3-6.8 16.9z"/><linearGradient id="SVGID_2_" gradientUnits="userSpaceOnUse" x1="116.507" y1="237" x2="116.507" y2="-12.402"><stop offset="0" stop-color="#fff200"/><stop offset="1" stop-color="#f15a29"/></linearGradient><path class="st1" d="M135.4 79.5c-4.5 0-8.7 1.7-11.9 4.9l-2 2L119 89l-2.5 2.5L114 89l-2.5-2.5-2-2c-3.2-3.2-7.4-4.9-11.9-4.9s-8.7 1.7-11.9 4.9c-3.2 3.2-4.9 7.4-4.9 11.9s1.7 8.7 4.9 11.9l30.8 30.8 30.8-30.8c3.2-3.2 4.9-7.4 4.9-11.9s-1.7-8.7-4.9-11.9c-3.2-3.2-7.4-5-11.9-5z"/><linearGradient id="SVGID_3_" gradientUnits="userSpaceOnUse" x1="104.296" y1="237" x2="104.296" y2="-12.402"><stop offset="0" stop-color="#fff200"/><stop offset="1" stop-color="#f15a29"/></linearGradient><path class="st2" d="M105.5 23.8c22.8-3.6 45 2.2 62.6 14.4L160 49.4l38.6-.2L190 8.5l-8.4 11.4C159.3 4.2 131.1-3.2 102 1.3 42.5 10.7 2 66.5 11.3 126c1.8 11.5 5.4 22.2 10.3 32.1l20.2-10.4c-3.9-7.7-6.7-16.2-8.1-25.2-7.3-47 24.9-91.3 71.8-98.7z"/><linearGradient id="SVGID_4_" gradientUnits="userSpaceOnUse" x1="134.969" y1="237" x2="134.969" y2="-12.402"><stop offset="0" stop-color="#fff200"/><stop offset="1" stop-color="#f15a29"/></linearGradient><path class="st3" d="M226.7 92c-1.8-11.5-5.4-22.3-10.4-32.2L196 70.3c3.9 7.8 6.7 16.2 8.1 25.3 7.4 47-24.8 91.2-71.7 98.6-22.1 3.5-43.5-1.8-60.9-13.2l9-12.2-38.6.2 8.5 40.7 7.6-10.3c22.1 14.9 49.6 21.8 78 17.3 59.5-9.4 100-65.2 90.7-124.7z"/></svg>