<?xml version="1.0" encoding="utf-8"?>
<!-- Generator: Adobe Illustrator 20.1.0, SVG Export Plug-In . SVG Version: 6.00 Build 0)  -->
<svg version="1.1" id="Layer_1" xmlns="http://www.w3.org/2000/svg" xmlns:xlink="http://www.w3.org/1999/xlink" x="0px" y="0px"
	 width="238px" height="218px" viewBox="0 0 238 218" enable-background="new 0 0 238 218" xml:space="preserve">
<g>
	<linearGradient id="SVGID_1_" gradientUnits="userSpaceOnUse" x1="192.1389" y1="212.9531" x2="192.1389" y2="4.6793">
		<stop  offset="0" style="stop-color:#3BB0C9"/>
		<stop  offset="1" style="stop-color:#0078AA"/>
	</linearGradient>
	<path fill="url(#SVGID_1_)" d="M205.4,149.6c-0.2-0.1-0.3-0.3-0.7-0.5c-2-1.1-2.6-3.3-2.6-5.6c2.6-3,5-7.8,5.8-15.3
		c3-3.2,4.6-8,4.6-12.6c0-3.3-0.8-6.2-2.3-8.6c0,0,0,0,0-0.1c1.4-4.1,2.7-9.8,1.1-16c-3.1-12.4-18.3-18-32-18
		c-11.7,0-20.8,4.1-24.9,11c-3.1,1.8-4.9,4.2-5.9,6.1c-2.9,5.7-1.6,11.9,0,16.7c-0.1,0.1-0.1,0.2-0.2,0.3c-1.6,2.4-2.4,5.5-2.4,8.8
		c0,3.3,0.8,6.6,2.4,9.3c4.4,2.2,8.2,4.2,11.6,6.2c-0.5-2.1-0.9-4.7-0.9-7.9c-4.7,0-6.7-13.5,0-13.5c0-1.9-9-16.5,2-19.3
		c1.5-6.1,9.7-9,18.4-9c10.4,0,21.7,4.1,23.5,11.4c2,8-3.2,15.4-3.2,16.9c6.5,0,4.5,13.5-0.2,13.5c0,14.5-6.7,16.9-6.7,16.9v1.2
		c0,7.3,4.2,13.9,10.9,16.9c13.6,6.1,26.2,13,26.2,15.6v11.8c0,10.3-8.3,18.6-18.6,18.6h-28.5c0,3.2-0.9,6.1-2.4,8.7h30.9
		c15.1,0,27.3-12.2,27.3-27.3v-11.8C238.4,170.3,238.3,163.8,205.4,149.6z"/>
	<linearGradient id="SVGID_2_" gradientUnits="userSpaceOnUse" x1="87.2903" y1="212.9531" x2="87.2903" y2="4.6793">
		<stop  offset="0" style="stop-color:#3BB0C9"/>
		<stop  offset="1" style="stop-color:#0078AA"/>
	</linearGradient>
	<path fill="url(#SVGID_2_)" d="M122.2,122.7c-0.2-0.2-0.6-0.4-1.1-0.7c-4.6-2.6-3.6-9.8-2.7-13.8c3.3-3.6,6.6-9.4,8.1-18.9
		c0.4-2.5,1.4-5,2.9-7c2.9-3.9,4.5-9.4,4.5-14.7c0-4.1-1-7.9-2.8-10.8c-0.4-0.7-0.9-1.3-1.4-1.9c2.3-5.9,4.8-14.7,2.4-24.3
		C128,14.1,106,6.5,87.4,6.5c-16.9,0-29.8,5.9-34.9,15.7c-4.5,2.2-7,5.4-8.3,8c-4.1,8-1.3,17.7,1.2,24.4c-0.6,0.7-1.2,1.4-1.7,2.1
		c-1.9,3-2.9,6.8-2.9,11c0,5.3,1.6,10.6,4.4,14.5c1.5,2.1,2.5,4.5,2.9,7c1.4,9.6,4.9,15.5,8.3,19.1c1,4,1.9,11-2.7,13.6
		c-0.4,0.2-0.8,0.4-1,0.6c-51.8,21.9-52,31.2-52,34.9v28.2c0,15.1,12.2,27.3,27.3,27.3h58.5h42.1h18.1c15.1,0,27.3-12.2,27.3-27.3
		v-28.2C173.9,153.8,173.8,144.5,122.2,122.7z M165.2,185.7c0,10.3-8.3,18.6-18.6,18.6h-18.1H86.4H27.9c-10.3,0-18.6-8.3-18.6-18.6
		v-28.2c0-4.5,23-16.6,45.9-26.5c6.8-2.9,11.3-9.6,11.3-17.1v0c0-4.2-1.2-8.4-4-11.5c-2.9-3.3-6.4-10-6.4-22.9
		c-5.5,0-8.7-12.2-5.2-17.9c2.3-3.8,3.1-8.3,1.7-12.5c-2.6-7.7-4-17.5,6.5-20.1c2.4-9.5,14.9-13.8,28.3-13.8
		c16,0,33.4,6.3,36.2,17.6c1.5,6.2,0.3,12.1-1.3,16.8c-1.4,4.1-0.7,8.4,1.4,12.1c3.3,5.7,0.2,17.9-5.4,17.9
		c0,12.9-3.5,19.6-6.4,22.9c-2.8,3.1-4,7.3-4,11.5c0,7.4,4.4,14.1,11.3,17.1c22.9,9.9,45.9,22,45.9,26.5V185.7z"/>
</g>
</svg>
