<?xml version="1.0" encoding="utf-8"?>
<!-- Generator: Adobe Illustrator 20.1.0, SVG Export Plug-In . SVG Version: 6.00 Build 0)  -->
<svg version="1.1" id="Layer_1" xmlns="http://www.w3.org/2000/svg" xmlns:xlink="http://www.w3.org/1999/xlink" x="0px" y="0px"
	 width="238px" height="218px" viewBox="0 0 238 218" enable-background="new 0 0 238 218" xml:space="preserve">
<g>
	<linearGradient id="SVGID_1_" gradientUnits="userSpaceOnUse" x1="123.8104" y1="43.3746" x2="123.8104" y2="14.566">
		<stop  offset="0" style="stop-color:#B280B8"/>
		<stop  offset="1" style="stop-color:#8A4F9E"/>
	</linearGradient>
	<polygon fill="url(#SVGID_1_)" points="123.8,29 123.8,29 123.8,29 123.8,29 123.8,29 	"/>
	<linearGradient id="SVGID_2_" gradientUnits="userSpaceOnUse" x1="123.8109" y1="32.3854" x2="123.8109" y2="25.5494">
		<stop  offset="0" style="stop-color:#B280B8"/>
		<stop  offset="1" style="stop-color:#8A4F9E"/>
	</linearGradient>
	<polygon fill="url(#SVGID_2_)" points="123.8,29 123.8,29 123.8,29 	"/>
	<linearGradient id="SVGID_3_" gradientUnits="userSpaceOnUse" x1="122.6499" y1="63.9265" x2="122.6499" y2="25.3522">
		<stop  offset="0" style="stop-color:#B280B8"/>
		<stop  offset="1" style="stop-color:#8A4F9E"/>
	</linearGradient>
	<polygon fill="url(#SVGID_3_)" points="122.7,44.6 122.6,44.6 122.6,44.6 	"/>
	<linearGradient id="SVGID_4_" gradientUnits="userSpaceOnUse" x1="123.8101" y1="42.8869" x2="123.8101" y2="15.0549">
		<stop  offset="0" style="stop-color:#B280B8"/>
		<stop  offset="1" style="stop-color:#8A4F9E"/>
	</linearGradient>
	<polygon fill="url(#SVGID_4_)" points="123.8,29 123.8,29 123.8,29 123.8,29 123.8,29 	"/>
	<linearGradient id="SVGID_5_" gradientUnits="userSpaceOnUse" x1="127.8411" y1="33.9152" x2="127.8411" y2="29.5206">
		<stop  offset="0" style="stop-color:#B280B8"/>
		<stop  offset="1" style="stop-color:#8A4F9E"/>
	</linearGradient>
	<polygon fill="url(#SVGID_5_)" points="127.8,31.7 127.8,31.7 127.8,31.7 	"/>
	<linearGradient id="SVGID_6_" gradientUnits="userSpaceOnUse" x1="123.7318" y1="40.1823" x2="123.7318" y2="18.2097">
		<stop  offset="0" style="stop-color:#B280B8"/>
		<stop  offset="1" style="stop-color:#8A4F9E"/>
	</linearGradient>
	<polygon fill="url(#SVGID_6_)" points="123.7,29.2 123.7,29.2 123.7,29.2 	"/>
	<linearGradient id="SVGID_7_" gradientUnits="userSpaceOnUse" x1="123.7323" y1="31.6353" x2="123.7323" y2="26.7524">
		<stop  offset="0" style="stop-color:#B280B8"/>
		<stop  offset="1" style="stop-color:#8A4F9E"/>
	</linearGradient>
	<polygon fill="url(#SVGID_7_)" points="123.7,29.2 123.7,29.2 123.7,29.2 	"/>
	<linearGradient id="SVGID_8_" gradientUnits="userSpaceOnUse" x1="122.4076" y1="58.4742" x2="122.4076" y2="32.107">
		<stop  offset="0" style="stop-color:#B280B8"/>
		<stop  offset="1" style="stop-color:#8A4F9E"/>
	</linearGradient>
	<circle fill="url(#SVGID_8_)" cx="122.4" cy="45.3" r="0"/>
	<linearGradient id="SVGID_9_" gradientUnits="userSpaceOnUse" x1="122.565" y1="56.6816" x2="122.565" y2="33.2441">
		<stop  offset="0" style="stop-color:#B280B8"/>
		<stop  offset="1" style="stop-color:#8A4F9E"/>
	</linearGradient>
	<polygon fill="url(#SVGID_9_)" points="122.6,45 122.6,45 122.6,45 	"/>
	<linearGradient id="SVGID_10_" gradientUnits="userSpaceOnUse" x1="144.2885" y1="91.926" x2="144.2885" y2="46.5158">
		<stop  offset="0" style="stop-color:#B280B8"/>
		<stop  offset="1" style="stop-color:#8A4F9E"/>
	</linearGradient>
	<path fill="url(#SVGID_10_)" d="M144.3,69.2C144.3,69.2,144.3,69.2,144.3,69.2C144.3,69.2,144.3,69.2,144.3,69.2L144.3,69.2
		C144.3,69.2,144.3,69.2,144.3,69.2z"/>
	<linearGradient id="SVGID_11_" gradientUnits="userSpaceOnUse" x1="144.994" y1="77.1672" x2="144.994" y2="61.054">
		<stop  offset="0" style="stop-color:#B280B8"/>
		<stop  offset="1" style="stop-color:#8A4F9E"/>
	</linearGradient>
	<path fill="url(#SVGID_11_)" d="M145,69.1C145,69.1,145,69.1,145,69.1C145,69.1,145,69.1,145,69.1L145,69.1z"/>
	<linearGradient id="SVGID_12_" gradientUnits="userSpaceOnUse" x1="119.6916" y1="202.5" x2="119.6916" y2="9.7385">
		<stop  offset="0" style="stop-color:#B280B8"/>
		<stop  offset="1" style="stop-color:#8A4F9E"/>
	</linearGradient>
	<path fill="url(#SVGID_12_)" d="M119.2,47.3c0.3-0.1,0.6-0.2,0.9-0.3l0,0C119.9,47.1,119.6,47.2,119.2,47.3z"/>
	<linearGradient id="SVGID_13_" gradientUnits="userSpaceOnUse" x1="120.4387" y1="202.5" x2="120.4387" y2="9.7385">
		<stop  offset="0" style="stop-color:#B280B8"/>
		<stop  offset="1" style="stop-color:#8A4F9E"/>
	</linearGradient>
	<path fill="url(#SVGID_13_)" d="M120.6,46.8C120.6,46.8,120.6,46.8,120.6,46.8c-0.1,0-0.2,0.1-0.3,0.1
		C120.4,46.9,120.5,46.8,120.6,46.8C120.6,46.8,120.6,46.8,120.6,46.8z"/>
	<linearGradient id="SVGID_14_" gradientUnits="userSpaceOnUse" x1="120.8472" y1="202.5" x2="120.8472" y2="9.7385">
		<stop  offset="0" style="stop-color:#B280B8"/>
		<stop  offset="1" style="stop-color:#8A4F9E"/>
	</linearGradient>
	<path fill="url(#SVGID_14_)" d="M121,46.6c-0.1,0-0.2,0.1-0.2,0.1C120.8,46.7,120.9,46.6,121,46.6C121,46.6,121,46.6,121,46.6
		C121,46.6,121,46.6,121,46.6z"/>
	<linearGradient id="SVGID_15_" gradientUnits="userSpaceOnUse" x1="91.2032" y1="93.8896" x2="91.2032" y2="34.3193">
		<stop  offset="0" style="stop-color:#B280B8"/>
		<stop  offset="1" style="stop-color:#8A4F9E"/>
	</linearGradient>
	<polygon fill="url(#SVGID_15_)" points="91.2,64.1 91.2,64.1 91.2,64.1 91.2,64.1 91.2,64.1 	"/>
	<linearGradient id="SVGID_16_" gradientUnits="userSpaceOnUse" x1="91.2612" y1="74.218" x2="91.2612" y2="59.0812">
		<stop  offset="0" style="stop-color:#B280B8"/>
		<stop  offset="1" style="stop-color:#8A4F9E"/>
	</linearGradient>
	<polygon fill="url(#SVGID_16_)" points="91.3,66.6 91.3,66.6 91.3,66.6 	"/>
	<linearGradient id="SVGID_17_" gradientUnits="userSpaceOnUse" x1="111.7701" y1="202.5" x2="111.7701" y2="9.7385">
		<stop  offset="0" style="stop-color:#B280B8"/>
		<stop  offset="1" style="stop-color:#8A4F9E"/>
	</linearGradient>
	<path fill="url(#SVGID_17_)" d="M111.8,55.4C111.8,55.5,111.8,55.5,111.8,55.4L111.8,55.4L111.8,55.4
		C111.8,55.5,111.8,55.5,111.8,55.4z"/>
	<linearGradient id="SVGID_18_" gradientUnits="userSpaceOnUse" x1="104.5422" y1="80.4066" x2="104.5422" y2="42.809">
		<stop  offset="0" style="stop-color:#B280B8"/>
		<stop  offset="1" style="stop-color:#8A4F9E"/>
	</linearGradient>
	<polygon fill="url(#SVGID_18_)" points="104.5,61.6 104.5,61.6 104.5,61.6 	"/>
	<linearGradient id="SVGID_19_" gradientUnits="userSpaceOnUse" x1="111.9651" y1="202.5" x2="111.9651" y2="9.7385">
		<stop  offset="0" style="stop-color:#B280B8"/>
		<stop  offset="1" style="stop-color:#8A4F9E"/>
	</linearGradient>
	<path fill="url(#SVGID_19_)" d="M111.9,55.1c0,0,0-0.1,0.1-0.1C112,55.1,112,55.1,111.9,55.1L111.9,55.1z"/>
	<linearGradient id="SVGID_20_" gradientUnits="userSpaceOnUse" x1="103.5321" y1="84.0801" x2="103.5321" y2="38.1817">
		<stop  offset="0" style="stop-color:#B280B8"/>
		<stop  offset="1" style="stop-color:#8A4F9E"/>
	</linearGradient>
	<path fill="url(#SVGID_20_)" d="M103.5,61.1C103.5,61.1,103.5,61.1,103.5,61.1C103.5,61.1,103.5,61.1,103.5,61.1
		C103.5,61.1,103.5,61.1,103.5,61.1z"/>
	<linearGradient id="SVGID_21_" gradientUnits="userSpaceOnUse" x1="111.86" y1="59.0543" x2="111.86" y2="55.148">
		<stop  offset="0" style="stop-color:#B280B8"/>
		<stop  offset="1" style="stop-color:#8A4F9E"/>
	</linearGradient>
	<polygon fill="url(#SVGID_21_)" points="111.9,57.1 111.9,57.1 111.9,57.1 	"/>
	<linearGradient id="SVGID_22_" gradientUnits="userSpaceOnUse" x1="93.2789" y1="202.5" x2="93.2789" y2="9.7385">
		<stop  offset="0" style="stop-color:#B280B8"/>
		<stop  offset="1" style="stop-color:#8A4F9E"/>
	</linearGradient>
	<path fill="url(#SVGID_22_)" d="M93.3,68.2C93.3,68.2,93.3,68.1,93.3,68.2C93.3,68.1,93.3,68.2,93.3,68.2
		C93.3,68.2,93.3,68.2,93.3,68.2z"/>
	<linearGradient id="SVGID_23_" gradientUnits="userSpaceOnUse" x1="89.8158" y1="42.583" x2="89.8158" y2="42.583">
		<stop  offset="0" style="stop-color:#B280B8"/>
		<stop  offset="1" style="stop-color:#8A4F9E"/>
	</linearGradient>
	<polygon fill="url(#SVGID_23_)" points="89.8,42.6 89.8,42.6 89.8,42.6 	"/>
	<linearGradient id="SVGID_24_" gradientUnits="userSpaceOnUse" x1="109.7818" y1="47.1556" x2="109.7818" y2="40.8079">
		<stop  offset="0" style="stop-color:#B280B8"/>
		<stop  offset="1" style="stop-color:#8A4F9E"/>
	</linearGradient>
	<polygon fill="url(#SVGID_24_)" points="109.8,44 109.8,44 109.8,44 	"/>
	<linearGradient id="SVGID_25_" gradientUnits="userSpaceOnUse" x1="95.9738" y1="40.5836" x2="95.9738" y2="36.6774">
		<stop  offset="0" style="stop-color:#B280B8"/>
		<stop  offset="1" style="stop-color:#8A4F9E"/>
	</linearGradient>
	<polygon fill="url(#SVGID_25_)" points="96,38.6 96,38.6 96,38.6 	"/>
	<linearGradient id="SVGID_26_" gradientUnits="userSpaceOnUse" x1="91.2019" y1="79.9739" x2="91.2019" y2="48.2356">
		<stop  offset="0" style="stop-color:#B280B8"/>
		<stop  offset="1" style="stop-color:#8A4F9E"/>
	</linearGradient>
	<polygon fill="url(#SVGID_26_)" points="91.2,64.1 91.2,64.1 91.2,64.1 	"/>
	<linearGradient id="SVGID_27_" gradientUnits="userSpaceOnUse" x1="152.2948" y1="202.5" x2="152.2948" y2="9.7385">
		<stop  offset="0" style="stop-color:#B280B8"/>
		<stop  offset="1" style="stop-color:#8A4F9E"/>
	</linearGradient>
	<path fill="url(#SVGID_27_)" d="M152.2,52.7c0.1,0.1,0.1,0.2,0.2,0.2c0,0,0,0,0,0C152.3,52.8,152.2,52.7,152.2,52.7L152.2,52.7z"/>
	<linearGradient id="SVGID_28_" gradientUnits="userSpaceOnUse" x1="91.0985" y1="78.0906" x2="91.0985" y2="54.6531">
		<stop  offset="0" style="stop-color:#B280B8"/>
		<stop  offset="1" style="stop-color:#8A4F9E"/>
	</linearGradient>
	<polygon fill="url(#SVGID_28_)" points="91.1,66.4 91.1,66.4 91.1,66.4 	"/>
	<linearGradient id="SVGID_29_" gradientUnits="userSpaceOnUse" x1="91.2191" y1="202.5" x2="91.2191" y2="45.2734">
		<stop  offset="0" style="stop-color:#B280B8"/>
		<stop  offset="1" style="stop-color:#8A4F9E"/>
	</linearGradient>
	<path fill="url(#SVGID_29_)" d="M91.2,34.6C91.2,34.6,91.2,34.6,91.2,34.6C91.2,34.6,91.2,34.6,91.2,34.6
		C91.2,34.6,91.2,34.6,91.2,34.6z"/>
	<linearGradient id="SVGID_30_" gradientUnits="userSpaceOnUse" x1="10.705" y1="202.5" x2="10.705" y2="9.7385">
		<stop  offset="0" style="stop-color:#B280B8"/>
		<stop  offset="1" style="stop-color:#8A4F9E"/>
	</linearGradient>
	<path fill="url(#SVGID_30_)" d="M10.9,104.1C10.9,104.1,10.9,104.1,10.9,104.1C10.9,104.1,10.9,104.1,10.9,104.1
		c-0.2-0.1-0.3-0.2-0.4-0.4C10.6,103.9,10.8,104,10.9,104.1z"/>
	<linearGradient id="SVGID_31_" gradientUnits="userSpaceOnUse" x1="10.0359" y1="202.5" x2="10.0359" y2="9.7385">
		<stop  offset="0" style="stop-color:#B280B8"/>
		<stop  offset="1" style="stop-color:#8A4F9E"/>
	</linearGradient>
	<path fill="url(#SVGID_31_)" d="M10,103.1L10,103.1C10,103.2,10,103.2,10,103.1C10,103.2,10,103.2,10,103.1L10,103.1z"/>
	<linearGradient id="SVGID_32_" gradientUnits="userSpaceOnUse" x1="83.7814" y1="102.0231" x2="83.7814" y2="81.027">
		<stop  offset="0" style="stop-color:#B280B8"/>
		<stop  offset="1" style="stop-color:#8A4F9E"/>
	</linearGradient>
	<polygon fill="url(#SVGID_32_)" points="83.8,91.5 83.8,91.5 83.8,91.5 	"/>
	<linearGradient id="SVGID_33_" gradientUnits="userSpaceOnUse" x1="13.2799" y1="202.5" x2="13.2799" y2="9.7385">
		<stop  offset="0" style="stop-color:#B280B8"/>
		<stop  offset="1" style="stop-color:#8A4F9E"/>
	</linearGradient>
	<path fill="url(#SVGID_33_)" d="M13.2,105.1C13.2,105.1,13.2,105.1,13.2,105.1c0.1,0,0.1,0,0.2,0C13.3,105.1,13.3,105.1,13.2,105.1
		C13.2,105.1,13.2,105.1,13.2,105.1z"/>
	<linearGradient id="SVGID_34_" gradientUnits="userSpaceOnUse" x1="171.8625" y1="202.5" x2="171.8625" y2="9.7385">
		<stop  offset="0" style="stop-color:#B280B8"/>
		<stop  offset="1" style="stop-color:#8A4F9E"/>
	</linearGradient>
	<path fill="url(#SVGID_34_)" d="M172.4,146.5C172.4,146.5,172.4,146.5,172.4,146.5c-0.3,0-0.7,0-1.1-0.1
		C171.7,146.4,172.1,146.5,172.4,146.5C172.4,146.5,172.4,146.5,172.4,146.5z"/>
	<linearGradient id="SVGID_35_" gradientUnits="userSpaceOnUse" x1="13.9585" y1="202.5" x2="13.9585" y2="9.7385">
		<stop  offset="0" style="stop-color:#B280B8"/>
		<stop  offset="1" style="stop-color:#8A4F9E"/>
	</linearGradient>
	<path fill="url(#SVGID_35_)" d="M14.1,105.2c-0.1,0-0.2,0-0.3,0C13.9,105.2,14,105.2,14.1,105.2C14.1,105.2,14.1,105.2,14.1,105.2z
		"/>
	<linearGradient id="SVGID_36_" gradientUnits="userSpaceOnUse" x1="14.0405" y1="202.5" x2="14.0405" y2="132.6758">
		<stop  offset="0" style="stop-color:#B280B8"/>
		<stop  offset="1" style="stop-color:#8A4F9E"/>
	</linearGradient>
	<path fill="url(#SVGID_36_)" d="M14,105.2C14,105.2,14,105.2,14,105.2C14,105.2,14,105.2,14,105.2C14.1,105.2,14.1,105.2,14,105.2
		C14.1,105.2,14.1,105.2,14,105.2z"/>
	<linearGradient id="SVGID_37_" gradientUnits="userSpaceOnUse" x1="72.0616" y1="65.4557" x2="72.0616" y2="37.6237">
		<stop  offset="0" style="stop-color:#B280B8"/>
		<stop  offset="1" style="stop-color:#8A4F9E"/>
	</linearGradient>
	<path fill="url(#SVGID_37_)" d="M72.1,51.5C72.1,51.5,72.1,51.5,72.1,51.5C72.1,51.5,72.1,51.5,72.1,51.5
		C72.1,51.5,72.1,51.5,72.1,51.5z"/>
	<linearGradient id="SVGID_38_" gradientUnits="userSpaceOnUse" x1="200.228" y1="202.5" x2="200.228" y2="9.7385">
		<stop  offset="0" style="stop-color:#B280B8"/>
		<stop  offset="1" style="stop-color:#8A4F9E"/>
	</linearGradient>
	<polygon fill="url(#SVGID_38_)" points="200.3,28.9 200.2,28.8 200.3,28.9 	"/>
	<linearGradient id="SVGID_39_" gradientUnits="userSpaceOnUse" x1="73.6776" y1="202.5" x2="73.6776" y2="30.625">
		<stop  offset="0" style="stop-color:#B280B8"/>
		<stop  offset="1" style="stop-color:#8A4F9E"/>
	</linearGradient>
	<path fill="url(#SVGID_39_)" d="M73.6,51.9c0,0,0.1,0,0.1,0c0,0,0,0,0,0c0,0,0,0,0,0C73.7,51.9,73.6,51.9,73.6,51.9z"/>
	<linearGradient id="SVGID_40_" gradientUnits="userSpaceOnUse" x1="198.3883" y1="202.5" x2="198.3883" y2="9.7385">
		<stop  offset="0" style="stop-color:#B280B8"/>
		<stop  offset="1" style="stop-color:#8A4F9E"/>
	</linearGradient>
	<path fill="url(#SVGID_40_)" d="M198.4,24.4c0,0.1-0.1,0.1-0.1,0.2l0,0C198.4,24.5,198.4,24.5,198.4,24.4z"/>
	<linearGradient id="SVGID_41_" gradientUnits="userSpaceOnUse" x1="184.7279" y1="110.7028" x2="184.7279" y2="94.5895">
		<stop  offset="0" style="stop-color:#B280B8"/>
		<stop  offset="1" style="stop-color:#8A4F9E"/>
	</linearGradient>
	<path fill="url(#SVGID_41_)" d="M184.7,102.6C184.7,102.6,184.7,102.6,184.7,102.6C184.7,102.6,184.7,102.6,184.7,102.6
		C184.7,102.6,184.7,102.6,184.7,102.6z"/>
	<linearGradient id="SVGID_42_" gradientUnits="userSpaceOnUse" x1="69.8791" y1="81.4196" x2="69.8791" y2="45.2867">
		<stop  offset="0" style="stop-color:#B280B8"/>
		<stop  offset="1" style="stop-color:#8A4F9E"/>
	</linearGradient>
	<polygon fill="url(#SVGID_42_)" points="69.9,63.4 69.9,63.3 69.9,63.4 	"/>
	<linearGradient id="SVGID_43_" gradientUnits="userSpaceOnUse" x1="197.668" y1="202.5" x2="197.668" y2="9.7385">
		<stop  offset="0" style="stop-color:#B280B8"/>
		<stop  offset="1" style="stop-color:#8A4F9E"/>
	</linearGradient>
	<path fill="url(#SVGID_43_)" d="M197.7,25.1C197.7,25.1,197.7,25.1,197.7,25.1c0,0-0.1,0.1-0.1,0.1
		C197.6,25.1,197.7,25.1,197.7,25.1C197.7,25.1,197.7,25.1,197.7,25.1z"/>
	<linearGradient id="SVGID_44_" gradientUnits="userSpaceOnUse" x1="148.3001" y1="48.7753" x2="148.3001" y2="37.0565">
		<stop  offset="0" style="stop-color:#B280B8"/>
		<stop  offset="1" style="stop-color:#8A4F9E"/>
	</linearGradient>
	<polygon fill="url(#SVGID_44_)" points="148.3,42.9 148.3,42.9 148.3,42.9 	"/>
	<linearGradient id="SVGID_45_" gradientUnits="userSpaceOnUse" x1="152.7242" y1="54.1762" x2="152.7242" y2="52.2231">
		<stop  offset="0" style="stop-color:#B280B8"/>
		<stop  offset="1" style="stop-color:#8A4F9E"/>
	</linearGradient>
	<polygon fill="url(#SVGID_45_)" points="152.7,53.2 152.7,53.2 152.7,53.2 	"/>
	<linearGradient id="SVGID_46_" gradientUnits="userSpaceOnUse" x1="152.1233" y1="64.9059" x2="152.1233" y2="22.9138">
		<stop  offset="0" style="stop-color:#B280B8"/>
		<stop  offset="1" style="stop-color:#8A4F9E"/>
	</linearGradient>
	<path fill="url(#SVGID_46_)" d="M152.1,43.9C152.1,43.9,152.1,43.9,152.1,43.9C152.1,43.9,152.1,43.9,152.1,43.9L152.1,43.9
		C152.1,43.9,152.1,43.9,152.1,43.9C152.1,43.9,152.1,43.9,152.1,43.9L152.1,43.9z"/>
	<linearGradient id="SVGID_47_" gradientUnits="userSpaceOnUse" x1="134.6767" y1="202.5" x2="134.6767" y2="9.7385">
		<stop  offset="0" style="stop-color:#B280B8"/>
		<stop  offset="1" style="stop-color:#8A4F9E"/>
	</linearGradient>
	<path fill="url(#SVGID_47_)" d="M134.8,40.7c-0.1,0-0.1,0-0.2,0c0,0,0,0,0,0c0,0,0,0,0,0C134.6,40.7,134.7,40.7,134.8,40.7z"/>
	<linearGradient id="SVGID_48_" gradientUnits="userSpaceOnUse" x1="131.8499" y1="37.4018" x2="131.8499" y2="33.0073">
		<stop  offset="0" style="stop-color:#B280B8"/>
		<stop  offset="1" style="stop-color:#8A4F9E"/>
	</linearGradient>
	<circle fill="url(#SVGID_48_)" cx="131.9" cy="35.2" r="0"/>
	<linearGradient id="SVGID_49_" gradientUnits="userSpaceOnUse" x1="130.7664" y1="46.8337" x2="130.7664" y2="23.8845">
		<stop  offset="0" style="stop-color:#B280B8"/>
		<stop  offset="1" style="stop-color:#8A4F9E"/>
	</linearGradient>
	<path fill="url(#SVGID_49_)" d="M130.8,35.4C130.8,35.4,130.8,35.4,130.8,35.4C130.8,35.4,130.8,35.4,130.8,35.4
		C130.8,35.4,130.8,35.4,130.8,35.4z"/>
	<linearGradient id="SVGID_50_" gradientUnits="userSpaceOnUse" x1="192.0935" y1="202.5" x2="192.0935" y2="57.2132">
		<stop  offset="0" style="stop-color:#B280B8"/>
		<stop  offset="1" style="stop-color:#8A4F9E"/>
	</linearGradient>
	<path fill="url(#SVGID_50_)" d="M192.5,72.6c-0.2,0-0.5,0-0.8,0C192,72.6,192.2,72.6,192.5,72.6C192.5,72.6,192.5,72.6,192.5,72.6z
		"/>
	<linearGradient id="SVGID_51_" gradientUnits="userSpaceOnUse" x1="226.937" y1="39.0231" x2="226.937" y2="32.1871">
		<stop  offset="0" style="stop-color:#B280B8"/>
		<stop  offset="1" style="stop-color:#8A4F9E"/>
	</linearGradient>
	<polygon fill="url(#SVGID_51_)" points="226.9,35.6 226.9,35.6 226.9,35.6 	"/>
	<linearGradient id="SVGID_52_" gradientUnits="userSpaceOnUse" x1="187.4602" y1="57.59" x2="187.4602" y2="-12.2343">
		<stop  offset="0" style="stop-color:#B280B8"/>
		<stop  offset="1" style="stop-color:#8A4F9E"/>
	</linearGradient>
	<path fill="url(#SVGID_52_)" d="M187.5,22.7C187.5,22.7,187.5,22.7,187.5,22.7C187.5,22.7,187.5,22.7,187.5,22.7
		C187.5,22.7,187.5,22.7,187.5,22.7C187.5,22.7,187.5,22.7,187.5,22.7z"/>
	<linearGradient id="SVGID_53_" gradientUnits="userSpaceOnUse" x1="227.2389" y1="50.347" x2="227.2389" y2="20.0735">
		<stop  offset="0" style="stop-color:#B280B8"/>
		<stop  offset="1" style="stop-color:#8A4F9E"/>
	</linearGradient>
	<polygon fill="url(#SVGID_53_)" points="227.2,35.2 227.2,35.2 227.2,35.2 	"/>
	<linearGradient id="SVGID_54_" gradientUnits="userSpaceOnUse" x1="181.843" y1="55.0933" x2="181.843" y2="17.4957">
		<stop  offset="0" style="stop-color:#B280B8"/>
		<stop  offset="1" style="stop-color:#8A4F9E"/>
	</linearGradient>
	<polygon fill="url(#SVGID_54_)" points="181.8,36.3 181.8,36.3 181.8,36.3 	"/>
	<linearGradient id="SVGID_55_" gradientUnits="userSpaceOnUse" x1="181.6339" y1="51.9406" x2="181.6339" y2="21.6671">
		<stop  offset="0" style="stop-color:#B280B8"/>
		<stop  offset="1" style="stop-color:#8A4F9E"/>
	</linearGradient>
	<polygon fill="url(#SVGID_55_)" points="181.6,36.8 181.6,36.8 181.6,36.8 	"/>
	<linearGradient id="SVGID_56_" gradientUnits="userSpaceOnUse" x1="179.8674" y1="95.0265" x2="179.8674" y2="68.6593">
		<stop  offset="0" style="stop-color:#B280B8"/>
		<stop  offset="1" style="stop-color:#8A4F9E"/>
	</linearGradient>
	<polygon fill="url(#SVGID_56_)" points="179.9,81.8 179.9,81.8 179.9,81.8 	"/>
	<linearGradient id="SVGID_57_" gradientUnits="userSpaceOnUse" x1="181.3284" y1="93.478" x2="181.3284" y2="65.646">
		<stop  offset="0" style="stop-color:#B280B8"/>
		<stop  offset="1" style="stop-color:#8A4F9E"/>
	</linearGradient>
	<polygon fill="url(#SVGID_57_)" points="181.3,79.6 181.3,79.6 181.3,79.6 	"/>
	<linearGradient id="SVGID_58_" gradientUnits="userSpaceOnUse" x1="168.0891" y1="128.955" x2="168.0891" y2="104.5409">
		<stop  offset="0" style="stop-color:#B280B8"/>
		<stop  offset="1" style="stop-color:#8A4F9E"/>
	</linearGradient>
	<polygon fill="url(#SVGID_58_)" points="168.1,116.7 168.1,116.7 168.1,116.7 	"/>
	<linearGradient id="SVGID_59_" gradientUnits="userSpaceOnUse" x1="174.8797" y1="75.0208" x2="174.8797" y2="31.5637">
		<stop  offset="0" style="stop-color:#B280B8"/>
		<stop  offset="1" style="stop-color:#8A4F9E"/>
	</linearGradient>
	<circle fill="url(#SVGID_59_)" cx="174.9" cy="53.3" r="0"/>
	<linearGradient id="SVGID_60_" gradientUnits="userSpaceOnUse" x1="95.0042" y1="163.3137" x2="95.0042" y2="141.3411">
		<stop  offset="0" style="stop-color:#B280B8"/>
		<stop  offset="1" style="stop-color:#8A4F9E"/>
	</linearGradient>
	<circle fill="url(#SVGID_60_)" cx="95" cy="152.3" r="0"/>
	<linearGradient id="SVGID_61_" gradientUnits="userSpaceOnUse" x1="164.9397" y1="202.5" x2="164.9397" y2="9.7385">
		<stop  offset="0" style="stop-color:#B280B8"/>
		<stop  offset="1" style="stop-color:#8A4F9E"/>
	</linearGradient>
	<path fill="url(#SVGID_61_)" d="M165,144.3c0.1,0.1,0.2,0.1,0.2,0.2l0,0c-0.2-0.1-0.4-0.2-0.6-0.4
		C164.8,144.1,164.9,144.2,165,144.3z"/>
	<linearGradient id="SVGID_62_" gradientUnits="userSpaceOnUse" x1="69.4316" y1="189.0585" x2="69.4316" y2="182.7108">
		<stop  offset="0" style="stop-color:#B280B8"/>
		<stop  offset="1" style="stop-color:#8A4F9E"/>
	</linearGradient>
	<polygon fill="url(#SVGID_62_)" points="69.4,185.9 69.4,185.9 69.4,185.9 	"/>
	<linearGradient id="SVGID_63_" gradientUnits="userSpaceOnUse" x1="58.2173" y1="175.9747" x2="58.2173" y2="170.1154">
		<stop  offset="0" style="stop-color:#B280B8"/>
		<stop  offset="1" style="stop-color:#8A4F9E"/>
	</linearGradient>
	<polygon fill="url(#SVGID_63_)" points="58.2,173 58.2,173 58.2,173 	"/>
	<linearGradient id="SVGID_64_" gradientUnits="userSpaceOnUse" x1="219.6342" y1="94.6727" x2="219.6342" y2="13.618">
		<stop  offset="0" style="stop-color:#B280B8"/>
		<stop  offset="1" style="stop-color:#8A4F9E"/>
	</linearGradient>
	<path fill="url(#SVGID_64_)" d="M219.7,54.1C219.6,54.1,219.6,54.1,219.7,54.1C219.6,54.1,219.6,54.1,219.7,54.1
		C219.7,54.1,219.7,54.1,219.7,54.1C219.7,54.1,219.7,54.1,219.7,54.1z"/>
	<linearGradient id="SVGID_65_" gradientUnits="userSpaceOnUse" x1="93.3818" y1="202.5" x2="93.3818" y2="9.7385">
		<stop  offset="0" style="stop-color:#B280B8"/>
		<stop  offset="1" style="stop-color:#8A4F9E"/>
	</linearGradient>
	<path fill="url(#SVGID_65_)" d="M93.3,68.2C93.3,68.2,93.4,68.2,93.3,68.2C93.4,68.2,93.4,68.2,93.3,68.2
		C93.4,68.2,93.4,68.2,93.3,68.2C93.3,68.2,93.3,68.2,93.3,68.2z"/>
	<linearGradient id="SVGID_66_" gradientUnits="userSpaceOnUse" x1="142.0114" y1="202.5" x2="142.0114" y2="9.7385">
		<stop  offset="0" style="stop-color:#B280B8"/>
		<stop  offset="1" style="stop-color:#8A4F9E"/>
	</linearGradient>
	<path fill="url(#SVGID_66_)" d="M141.9,170.5c0.1,0,0.2,0,0.3,0C142.1,170.5,142,170.5,141.9,170.5L141.9,170.5z"/>
	<linearGradient id="SVGID_67_" gradientUnits="userSpaceOnUse" x1="233.2202" y1="48.2066" x2="233.2202" y2="44.7886">
		<stop  offset="0" style="stop-color:#B280B8"/>
		<stop  offset="1" style="stop-color:#8A4F9E"/>
	</linearGradient>
	<path fill="url(#SVGID_67_)" d="M233.2,46.5C233.2,46.5,233.2,46.5,233.2,46.5C233.2,46.5,233.2,46.5,233.2,46.5
		C233.2,46.5,233.2,46.5,233.2,46.5z"/>
	<linearGradient id="SVGID_68_" gradientUnits="userSpaceOnUse" x1="49.9201" y1="134.9369" x2="49.9201" y2="111.0111">
		<stop  offset="0" style="stop-color:#B280B8"/>
		<stop  offset="1" style="stop-color:#8A4F9E"/>
	</linearGradient>
	<polygon fill="url(#SVGID_68_)" points="49.9,123 49.9,123 49.9,123 	"/>
	<linearGradient id="SVGID_69_" gradientUnits="userSpaceOnUse" x1="232.6638" y1="70.4062" x2="232.6638" y2="22.5546">
		<stop  offset="0" style="stop-color:#B280B8"/>
		<stop  offset="1" style="stop-color:#8A4F9E"/>
	</linearGradient>
	<path fill="url(#SVGID_69_)" d="M232.6,46.5C232.6,46.5,232.6,46.5,232.6,46.5c0.1,0,0.1,0,0.1,0C232.7,46.5,232.7,46.5,232.6,46.5
		C232.6,46.5,232.6,46.5,232.6,46.5z"/>
	<linearGradient id="SVGID_70_" gradientUnits="userSpaceOnUse" x1="219.6924" y1="58.5414" x2="219.6924" y2="49.7524">
		<stop  offset="0" style="stop-color:#B280B8"/>
		<stop  offset="1" style="stop-color:#8A4F9E"/>
	</linearGradient>
	<path fill="url(#SVGID_70_)" d="M219.7,54.1C219.7,54.1,219.7,54.1,219.7,54.1C219.7,54.1,219.7,54.1,219.7,54.1
		C219.7,54.1,219.7,54.1,219.7,54.1z"/>
	<linearGradient id="SVGID_71_" gradientUnits="userSpaceOnUse" x1="234.3992" y1="73.5673" x2="234.3992" y2="19.3681">
		<stop  offset="0" style="stop-color:#B280B8"/>
		<stop  offset="1" style="stop-color:#8A4F9E"/>
	</linearGradient>
	<path fill="url(#SVGID_71_)" d="M234.4,46.5C234.4,46.5,234.4,46.5,234.4,46.5C234.4,46.5,234.4,46.5,234.4,46.5
		C234.4,46.5,234.4,46.5,234.4,46.5C234.4,46.5,234.4,46.5,234.4,46.5z"/>
	<linearGradient id="SVGID_72_" gradientUnits="userSpaceOnUse" x1="230.744" y1="202.5" x2="230.744" y2="9.7385">
		<stop  offset="0" style="stop-color:#B280B8"/>
		<stop  offset="1" style="stop-color:#8A4F9E"/>
	</linearGradient>
	<path fill="url(#SVGID_72_)" d="M230.6,46.2c0.1,0,0.1,0,0.2,0C230.8,46.3,230.7,46.2,230.6,46.2L230.6,46.2z"/>
	<linearGradient id="SVGID_73_" gradientUnits="userSpaceOnUse" x1="237.9628" y1="81.2759" x2="237.9628" y2="9.0103">
		<stop  offset="0" style="stop-color:#B280B8"/>
		<stop  offset="1" style="stop-color:#8A4F9E"/>
	</linearGradient>
	<path fill="url(#SVGID_73_)" d="M238,45.1C238,45.1,238,45.1,238,45.1L238,45.1L238,45.1C238,45.1,238,45.1,238,45.1z"/>
	<linearGradient id="SVGID_74_" gradientUnits="userSpaceOnUse" x1="231.944" y1="75.2333" x2="231.944" y2="17.6161">
		<stop  offset="0" style="stop-color:#B280B8"/>
		<stop  offset="1" style="stop-color:#8A4F9E"/>
	</linearGradient>
	<path fill="url(#SVGID_74_)" d="M231.9,46.4C231.9,46.4,231.9,46.4,231.9,46.4C232,46.4,232,46.4,231.9,46.4
		C232,46.4,232,46.4,231.9,46.4C231.9,46.4,231.9,46.4,231.9,46.4z"/>
	<linearGradient id="SVGID_75_" gradientUnits="userSpaceOnUse" x1="221.7042" y1="57.1475" x2="221.7042" y2="51.2881">
		<stop  offset="0" style="stop-color:#B280B8"/>
		<stop  offset="1" style="stop-color:#8A4F9E"/>
	</linearGradient>
	<polygon fill="url(#SVGID_75_)" points="221.7,54.2 221.7,54.2 221.7,54.2 	"/>
	<linearGradient id="SVGID_76_" gradientUnits="userSpaceOnUse" x1="219.8399" y1="202.5" x2="219.8399" y2="62.8516">
		<stop  offset="0" style="stop-color:#B280B8"/>
		<stop  offset="1" style="stop-color:#8A4F9E"/>
	</linearGradient>
	<path fill="url(#SVGID_76_)" d="M219.8,54.2c0.1,0,0.1,0,0.2,0C219.9,54.2,219.8,54.2,219.8,54.2C219.8,54.2,219.8,54.2,219.8,54.2
		z"/>
	<linearGradient id="SVGID_77_" gradientUnits="userSpaceOnUse" x1="221.7693" y1="73.26" x2="221.7693" y2="35.1741">
		<stop  offset="0" style="stop-color:#B280B8"/>
		<stop  offset="1" style="stop-color:#8A4F9E"/>
	</linearGradient>
	<path fill="url(#SVGID_77_)" d="M221.7,54.2c0,0,0.1,0,0.1,0c0,0,0,0,0,0C221.8,54.2,221.8,54.2,221.7,54.2
		C221.8,54.2,221.7,54.2,221.7,54.2z"/>
	<linearGradient id="SVGID_78_" gradientUnits="userSpaceOnUse" x1="227.4709" y1="46.9956" x2="227.4709" y2="43.5776">
		<stop  offset="0" style="stop-color:#B280B8"/>
		<stop  offset="1" style="stop-color:#8A4F9E"/>
	</linearGradient>
	<polygon fill="url(#SVGID_78_)" points="227.5,45.3 227.5,45.3 227.5,45.3 	"/>
	<linearGradient id="SVGID_79_" gradientUnits="userSpaceOnUse" x1="223.649" y1="69.8466" x2="223.649" y2="38.1083">
		<stop  offset="0" style="stop-color:#B280B8"/>
		<stop  offset="1" style="stop-color:#8A4F9E"/>
	</linearGradient>
	<path fill="url(#SVGID_79_)" d="M223.6,54C223.6,54,223.7,54,223.6,54C223.7,54,223.6,54,223.6,54C223.6,54,223.6,54,223.6,54z"/>
	<linearGradient id="SVGID_80_" gradientUnits="userSpaceOnUse" x1="124.2322" y1="202.5" x2="124.2322" y2="9.7385">
		<stop  offset="0" style="stop-color:#B280B8"/>
		<stop  offset="1" style="stop-color:#8A4F9E"/>
	</linearGradient>
	<path fill="url(#SVGID_80_)" d="M124.6,90.3L124.6,90.3c-0.3,0-0.6,0-0.8-0.1C124.1,90.3,124.4,90.3,124.6,90.3z"/>
	<linearGradient id="SVGID_81_" gradientUnits="userSpaceOnUse" x1="106.3239" y1="202.5" x2="106.3239" y2="9.7385">
		<stop  offset="0" style="stop-color:#B280B8"/>
		<stop  offset="1" style="stop-color:#8A4F9E"/>
	</linearGradient>
	<path fill="url(#SVGID_81_)" d="M106.6,127.5c-0.2,0.1-0.4,0.1-0.6,0.2C106.2,127.6,106.4,127.5,106.6,127.5
		C106.6,127.5,106.6,127.5,106.6,127.5z"/>
	<linearGradient id="SVGID_82_" gradientUnits="userSpaceOnUse" x1="123.6647" y1="202.5" x2="123.6647" y2="9.7385">
		<stop  offset="0" style="stop-color:#B280B8"/>
		<stop  offset="1" style="stop-color:#8A4F9E"/>
	</linearGradient>
	<path fill="url(#SVGID_82_)" d="M123.8,90.2C123.8,90.2,123.8,90.2,123.8,90.2C123.8,90.2,123.8,90.2,123.8,90.2
		C123.8,90.2,123.8,90.2,123.8,90.2c-0.1,0-0.2,0-0.3,0C123.6,90.2,123.7,90.2,123.8,90.2z"/>
	<linearGradient id="SVGID_83_" gradientUnits="userSpaceOnUse" x1="107.8956" y1="142.993" x2="107.8956" y2="135.1805">
		<stop  offset="0" style="stop-color:#B280B8"/>
		<stop  offset="1" style="stop-color:#8A4F9E"/>
	</linearGradient>
	<path fill="url(#SVGID_83_)" d="M107.9,139.1C107.9,139.1,107.9,139.1,107.9,139.1C107.9,139.1,107.9,139.1,107.9,139.1
		C107.9,139.1,107.9,139.1,107.9,139.1z"/>
	<linearGradient id="SVGID_84_" gradientUnits="userSpaceOnUse" x1="125.075" y1="202.5" x2="125.075" y2="98.1024">
		<stop  offset="0" style="stop-color:#B280B8"/>
		<stop  offset="1" style="stop-color:#8A4F9E"/>
	</linearGradient>
	<path fill="url(#SVGID_84_)" d="M124.7,90.3c0.3,0,0.5,0,0.8,0C125.2,90.3,124.9,90.3,124.7,90.3L124.7,90.3z"/>
	<linearGradient id="SVGID_85_" gradientUnits="userSpaceOnUse" x1="107.8989" y1="142.993" x2="107.8989" y2="135.1805">
		<stop  offset="0" style="stop-color:#B280B8"/>
		<stop  offset="1" style="stop-color:#8A4F9E"/>
	</linearGradient>
	<path fill="url(#SVGID_85_)" d="M107.9,139.1C107.9,139.1,107.9,139.1,107.9,139.1C107.9,139.1,107.9,139.1,107.9,139.1
		C107.9,139.1,107.9,139.1,107.9,139.1z"/>
	<linearGradient id="SVGID_86_" gradientUnits="userSpaceOnUse" x1="123.7277" y1="99.2595" x2="123.7277" y2="81.1931">
		<stop  offset="0" style="stop-color:#B280B8"/>
		<stop  offset="1" style="stop-color:#8A4F9E"/>
	</linearGradient>
	<path fill="url(#SVGID_86_)" d="M123.7,90.2C123.7,90.2,123.7,90.2,123.7,90.2C123.7,90.2,123.7,90.2,123.7,90.2
		C123.7,90.2,123.7,90.2,123.7,90.2z"/>
	<linearGradient id="SVGID_87_" gradientUnits="userSpaceOnUse" x1="101.3818" y1="202.5" x2="101.3818" y2="9.7385">
		<stop  offset="0" style="stop-color:#B280B8"/>
		<stop  offset="1" style="stop-color:#8A4F9E"/>
	</linearGradient>
	<path fill="url(#SVGID_87_)" d="M101.2,84.5C101.2,84.5,101.2,84.5,101.2,84.5c0.1,0,0.2,0,0.3-0.1
		C101.4,84.4,101.3,84.5,101.2,84.5C101.2,84.5,101.2,84.5,101.2,84.5z"/>
	<linearGradient id="SVGID_88_" gradientUnits="userSpaceOnUse" x1="97.679" y1="202.5" x2="97.679" y2="9.7385">
		<stop  offset="0" style="stop-color:#B280B8"/>
		<stop  offset="1" style="stop-color:#8A4F9E"/>
	</linearGradient>
	<path fill="url(#SVGID_88_)" d="M97.4,84.6c0.2,0,0.4,0,0.6,0C97.8,84.7,97.6,84.7,97.4,84.6L97.4,84.6z"/>
	<linearGradient id="SVGID_89_" gradientUnits="userSpaceOnUse" x1="122.9047" y1="95.23" x2="122.9047" y2="84.9761">
		<stop  offset="0" style="stop-color:#B280B8"/>
		<stop  offset="1" style="stop-color:#8A4F9E"/>
	</linearGradient>
	<polygon fill="url(#SVGID_89_)" points="122.9,90.1 122.9,90.1 122.9,90.1 	"/>
	<linearGradient id="SVGID_90_" gradientUnits="userSpaceOnUse" x1="95.9105" y1="202.5" x2="95.9105" y2="9.7385">
		<stop  offset="0" style="stop-color:#B280B8"/>
		<stop  offset="1" style="stop-color:#8A4F9E"/>
	</linearGradient>
	<path fill="url(#SVGID_90_)" d="M96,68.8C96,68.8,96,68.8,96,68.8c-0.1,0-0.2,0-0.3,0C95.9,68.8,96,68.8,96,68.8z"/>
	<linearGradient id="SVGID_91_" gradientUnits="userSpaceOnUse" x1="118.2804" y1="202.5" x2="118.2804" y2="118.5156">
		<stop  offset="0" style="stop-color:#B280B8"/>
		<stop  offset="1" style="stop-color:#8A4F9E"/>
	</linearGradient>
	<polygon fill="url(#SVGID_91_)" points="118.3,82.7 118.3,82.7 118.3,82.7 118.3,82.7 	"/>
	<linearGradient id="SVGID_92_" gradientUnits="userSpaceOnUse" x1="121.4388" y1="93.8843" x2="121.4388" y2="85.5836">
		<stop  offset="0" style="stop-color:#B280B8"/>
		<stop  offset="1" style="stop-color:#8A4F9E"/>
	</linearGradient>
	<circle fill="url(#SVGID_92_)" cx="121.4" cy="89.7" r="0"/>
	<linearGradient id="SVGID_93_" gradientUnits="userSpaceOnUse" x1="66.3222" y1="91.1342" x2="66.3222" y2="90.6459">
		<stop  offset="0" style="stop-color:#B280B8"/>
		<stop  offset="1" style="stop-color:#8A4F9E"/>
	</linearGradient>
	<polygon fill="url(#SVGID_93_)" points="66.3,90.9 66.3,90.9 66.3,90.9 	"/>
	<linearGradient id="SVGID_94_" gradientUnits="userSpaceOnUse" x1="64.4891" y1="123.4711" x2="64.4891" y2="99.5453">
		<stop  offset="0" style="stop-color:#B280B8"/>
		<stop  offset="1" style="stop-color:#8A4F9E"/>
	</linearGradient>
	<polygon fill="url(#SVGID_94_)" points="64.5,111.5 64.5,111.5 64.5,111.5 	"/>
	<linearGradient id="SVGID_95_" gradientUnits="userSpaceOnUse" x1="29.1091" y1="202.5" x2="29.1091" y2="175.1562">
		<stop  offset="0" style="stop-color:#B280B8"/>
		<stop  offset="1" style="stop-color:#8A4F9E"/>
	</linearGradient>
	<path fill="url(#SVGID_95_)" d="M29.1,173C29.1,173,29.1,173,29.1,173C29.1,173,29.1,173,29.1,173C29.1,173,29.1,173,29.1,173z"/>
	<linearGradient id="SVGID_96_" gradientUnits="userSpaceOnUse" x1="66.3387" y1="120.7308" x2="66.3387" y2="116.8245">
		<stop  offset="0" style="stop-color:#B280B8"/>
		<stop  offset="1" style="stop-color:#8A4F9E"/>
	</linearGradient>
	<polygon fill="url(#SVGID_96_)" points="66.3,118.8 66.3,118.8 66.3,118.8 	"/>
	<linearGradient id="SVGID_97_" gradientUnits="userSpaceOnUse" x1="28.3703" y1="202.5" x2="28.3703" y2="9.7385">
		<stop  offset="0" style="stop-color:#B280B8"/>
		<stop  offset="1" style="stop-color:#8A4F9E"/>
	</linearGradient>
	<path fill="url(#SVGID_97_)" d="M28.2,172.9C28.2,172.9,28.2,172.9,28.2,172.9c0.1,0,0.2,0,0.3,0C28.4,172.9,28.3,172.9,28.2,172.9
		C28.2,172.9,28.2,172.9,28.2,172.9z"/>
	<linearGradient id="SVGID_98_" gradientUnits="userSpaceOnUse" x1="64.018" y1="202.5" x2="64.018" y2="9.7385">
		<stop  offset="0" style="stop-color:#B280B8"/>
		<stop  offset="1" style="stop-color:#8A4F9E"/>
	</linearGradient>
	<path fill="url(#SVGID_98_)" d="M64.1,112.2c-0.1,0.2-0.1,0.3-0.2,0.5C64,112.6,64,112.4,64.1,112.2
		C64.1,112.2,64.1,112.2,64.1,112.2z"/>
	<linearGradient id="SVGID_99_" gradientUnits="userSpaceOnUse" x1="65.3891" y1="202.5" x2="65.3891" y2="9.7385">
		<stop  offset="0" style="stop-color:#B280B8"/>
		<stop  offset="1" style="stop-color:#8A4F9E"/>
	</linearGradient>
	<path fill="url(#SVGID_99_)" d="M65.6,118.3c-0.2-0.1-0.3-0.3-0.5-0.4l0,0l0,0C65.3,118.1,65.5,118.2,65.6,118.3z"/>
	<linearGradient id="SVGID_100_" gradientUnits="userSpaceOnUse" x1="58.5162" y1="202.5" x2="58.5162" y2="9.7385">
		<stop  offset="0" style="stop-color:#B280B8"/>
		<stop  offset="1" style="stop-color:#8A4F9E"/>
	</linearGradient>
	<path fill="url(#SVGID_100_)" d="M58.6,85.1c0,0.1-0.1,0.3-0.1,0.4C58.5,85.4,58.5,85.3,58.6,85.1C58.6,85.1,58.6,85.1,58.6,85.1z"
		/>
	<linearGradient id="SVGID_101_" gradientUnits="userSpaceOnUse" x1="34.7629" y1="202.5" x2="34.7629" y2="9.7385">
		<stop  offset="0" style="stop-color:#B280B8"/>
		<stop  offset="1" style="stop-color:#8A4F9E"/>
	</linearGradient>
	<path fill="url(#SVGID_101_)" d="M34.9,138.6C34.9,138.6,34.9,138.6,34.9,138.6c-0.1,0-0.2,0-0.3-0.1
		C34.7,138.5,34.8,138.6,34.9,138.6z"/>
	<linearGradient id="SVGID_102_" gradientUnits="userSpaceOnUse" x1="66.321" y1="114.8212" x2="66.321" y2="66.9696">
		<stop  offset="0" style="stop-color:#B280B8"/>
		<stop  offset="1" style="stop-color:#8A4F9E"/>
	</linearGradient>
	<polygon fill="url(#SVGID_102_)" points="66.3,90.9 66.3,90.9 66.3,90.9 	"/>
	<linearGradient id="SVGID_103_" gradientUnits="userSpaceOnUse" x1="95.3437" y1="202.5" x2="95.3437" y2="9.7385">
		<stop  offset="0" style="stop-color:#B280B8"/>
		<stop  offset="1" style="stop-color:#8A4F9E"/>
	</linearGradient>
	<path fill="url(#SVGID_103_)" d="M95.3,68.7c0.1,0,0.1,0,0.2,0C95.4,68.7,95.3,68.7,95.3,68.7C95.3,68.7,95.3,68.7,95.3,68.7z"/>
	<linearGradient id="SVGID_104_" gradientUnits="userSpaceOnUse" x1="66.0321" y1="106.3112" x2="66.0321" y2="76.5261">
		<stop  offset="0" style="stop-color:#B280B8"/>
		<stop  offset="1" style="stop-color:#8A4F9E"/>
	</linearGradient>
	<polygon fill="url(#SVGID_104_)" points="66,91.4 66,91.4 66,91.4 	"/>
	<linearGradient id="SVGID_105_" gradientUnits="userSpaceOnUse" x1="102.4594" y1="202.5" x2="102.4594" y2="124.7929">
		<stop  offset="0" style="stop-color:#B280B8"/>
		<stop  offset="1" style="stop-color:#8A4F9E"/>
	</linearGradient>
	<path fill="url(#SVGID_105_)" d="M102.3,128.1c0.1,0,0.3,0,0.4,0h0C102.5,128.1,102.4,128.1,102.3,128.1
		C102.2,128.1,102.3,128.1,102.3,128.1z"/>
	<linearGradient id="SVGID_106_" gradientUnits="userSpaceOnUse" x1="96.0208" y1="74.6627" x2="96.0208" y2="62.9439">
		<stop  offset="0" style="stop-color:#B280B8"/>
		<stop  offset="1" style="stop-color:#8A4F9E"/>
	</linearGradient>
	<path fill="url(#SVGID_106_)" d="M96,68.8C96,68.8,96,68.8,96,68.8C96,68.8,96,68.8,96,68.8C96,68.8,96,68.8,96,68.8z"/>
	<linearGradient id="SVGID_107_" gradientUnits="userSpaceOnUse" x1="123.8105" y1="39.4675" x2="123.8105" y2="18.4714">
		<stop  offset="0" style="stop-color:#B280B8"/>
		<stop  offset="1" style="stop-color:#8A4F9E"/>
	</linearGradient>
	<polygon fill="url(#SVGID_107_)" points="123.8,29 123.8,29 123.8,29 	"/>
	<linearGradient id="SVGID_108_" gradientUnits="userSpaceOnUse" x1="226.4557" y1="82.2943" x2="226.4557" y2="21.7474">
		<stop  offset="0" style="stop-color:#B280B8"/>
		<stop  offset="1" style="stop-color:#8A4F9E"/>
	</linearGradient>
	<polygon fill="url(#SVGID_108_)" points="226.5,52 226.5,52 226.5,52 	"/>
	<linearGradient id="SVGID_109_" gradientUnits="userSpaceOnUse" x1="122.6657" y1="202.5" x2="122.6657" y2="97.0312">
		<stop  offset="0" style="stop-color:#B280B8"/>
		<stop  offset="1" style="stop-color:#8A4F9E"/>
	</linearGradient>
	<path fill="url(#SVGID_109_)" d="M122.7,44.3L122.7,44.3C122.7,44.3,122.7,44.3,122.7,44.3C122.7,44.3,122.7,44.3,122.7,44.3z"/>
	<linearGradient id="SVGID_110_" gradientUnits="userSpaceOnUse" x1="156.0694" y1="202.5" x2="156.0694" y2="9.7385">
		<stop  offset="0" style="stop-color:#B280B8"/>
		<stop  offset="1" style="stop-color:#8A4F9E"/>
	</linearGradient>
	<path fill="url(#SVGID_110_)" d="M156.1,160.2L156.1,160.2C156.1,160.3,156.1,160.3,156.1,160.2
		C156.1,160.2,156.1,160.2,156.1,160.2z"/>
	<linearGradient id="SVGID_111_" gradientUnits="userSpaceOnUse" x1="226.4547" y1="53.4861" x2="226.4547" y2="50.5564">
		<stop  offset="0" style="stop-color:#B280B8"/>
		<stop  offset="1" style="stop-color:#8A4F9E"/>
	</linearGradient>
	<polygon fill="url(#SVGID_111_)" points="226.5,52 226.5,52 226.5,52 	"/>
	<linearGradient id="SVGID_112_" gradientUnits="userSpaceOnUse" x1="119.3652" y1="202.5" x2="119.3652" y2="9.7385">
		<stop  offset="0" style="stop-color:#B280B8"/>
		<stop  offset="1" style="stop-color:#8A4F9E"/>
	</linearGradient>
	<path fill="url(#SVGID_112_)" d="M238.2,44.7C238.2,44.8,238.2,44.8,238.2,44.7c0,0.1,0,0.1,0,0.1c0,0,0,0,0,0
		c0.1-0.2,0.1-0.4,0.1-0.6c0-0.4-0.2-0.8-0.6-1.2c-0.4-0.4-0.9-0.8-1.5-1.1c-0.6-0.3-1.4-0.7-2.2-0.9c-0.8-0.3-1.7-0.5-2.6-0.6
		c-0.1,0-0.1,0-0.2,0c-0.1,0-0.1,0-0.2,0c-0.1,0-0.1,0-0.2,0c-0.1,0-0.1,0-0.2,0h0l-4.4-3.9c0,0,0,0,0.1,0c0.1,0,0.1-0.1,0.2-0.1
		c0,0,0.1,0,0.1-0.1c0,0,0.1-0.1,0.1-0.1c0,0,0.1,0,0.1-0.1c0,0,0.1-0.1,0.1-0.1c0,0,0.1-0.1,0.1-0.1c0,0,0,0,0,0
		c0-0.1,0.1-0.1,0.1-0.2c0,0,0,0,0,0c0-0.1,0.1-0.1,0.1-0.2c0,0,0,0,0,0c0-0.1,0-0.1,0.1-0.2c0-0.1,0.1-0.2,0.1-0.4c0,0,0,0,0,0
		c0,0,0,0,0,0c0,0,0,0,0,0c0,0,0,0,0,0c0,0,0,0,0,0c0-0.1,0-0.1,0-0.2c0-0.4-0.1-0.7-0.4-1.1c-0.3-0.3-0.7-0.7-1.3-1
		c-0.6-0.3-1.2-0.6-1.9-0.8c-0.7-0.2-1.5-0.4-2.4-0.5c-0.7-0.1-1.3-0.1-1.9-0.1c-0.6,0-1.2,0-1.7,0.1c-0.5,0.1-1,0.2-1.4,0.3
		c-0.4,0.1-0.7,0.3-1,0.5l-9-1.2c-0.2-0.3-0.4-0.5-0.7-0.7c-0.3-0.2-0.7-0.5-1.2-0.6c-0.4-0.2-1-0.4-1.5-0.5
		c-0.6-0.1-1.1-0.3-1.8-0.3c-0.1,0-0.2,0-0.2,0c-0.1,0-0.2,0-0.2,0c-0.1,0-0.2,0-0.2,0c-0.1,0-0.2,0-0.2,0l0.1,0.1h0l-0.1-0.1
		l-3.1-3.1c0,0,0,0,0,0c0,0,0.1,0,0.1,0c0.1,0,0.1-0.1,0.2-0.1c0,0,0.1,0,0.1-0.1c0.1,0,0.1-0.1,0.2-0.1c0,0,0.1,0,0.1-0.1
		c0,0,0.1-0.1,0.1-0.1c0,0,0,0,0,0c0.1,0,0.1-0.1,0.2-0.1c0,0,0,0,0,0c0.1-0.1,0.1-0.1,0.1-0.2l0,0c0-0.1,0.1-0.1,0.1-0.2l0,0
		c0-0.1,0.1-0.1,0.1-0.2c0,0,0,0,0,0l0,0c0,0,0,0,0,0c0,0,0,0,0,0c0,0,0,0,0,0c0,0,0,0,0,0c0,0,0,0,0,0l0-0.3c0,0,0,0,0,0
		c0,0,0,0,0,0c0,0,0,0,0,0c0,0,0,0,0,0c0,0,0,0,0,0c0,0,0,0,0,0c0,0,0,0,0,0l0,0c0,0,0,0,0,0c0,0,0,0,0,0l0,0v0l0,0c0,0,0,0,0,0
		c0,0,0,0,0,0c0,0,0,0,0,0c0,0,0,0,0,0c0.1-0.3,0-0.6-0.2-0.9c-0.2-0.3-0.5-0.6-1-0.8c-0.4-0.3-1-0.5-1.6-0.7
		c-0.6-0.2-1.3-0.3-2.1-0.4c-0.6-0.1-1.1-0.1-1.7-0.1c-0.5,0-1.1,0-1.6,0.1c-0.5,0.1-0.9,0.2-1.3,0.3c-0.4,0.1-0.7,0.3-1,0.4l-8-1
		c-0.1-0.2-0.3-0.4-0.5-0.6c-0.3-0.2-0.6-0.4-0.9-0.5c-0.4-0.2-0.8-0.3-1.3-0.4c-0.5-0.1-1-0.2-1.5-0.3c-0.7-0.1-1.5-0.1-2.1-0.1
		c-0.7,0-1.3,0.1-1.9,0.2c-0.6,0.1-1.1,0.3-1.5,0.5c-0.4,0.2-0.7,0.5-0.9,0.7c-0.1,0.1-0.1,0.2-0.1,0.4c0,0,0,0.1,0,0.1c0,0,0,0,0,0
		l0,0.3c0,0.1,0,0.2,0,0.3c0,0.1,0.1,0.2,0.1,0.3c0,0.1,0.1,0.2,0.2,0.3c0,0,0,0,0,0l-5.2,2.1c-0.1,0-0.1,0-0.2,0
		c-0.1,0-0.1,0-0.2,0c-0.1,0-0.1,0-0.2,0c-0.1,0-0.1,0-0.2,0c-0.6-0.1-1.1-0.1-1.7-0.1c-0.6,0-1.1,0-1.6,0.1c-0.5,0.1-1,0.2-1.4,0.3
		c-0.4,0.1-0.8,0.3-1.2,0.5l-7.9-1c0-0.2-0.2-0.4-0.4-0.6c-0.2-0.2-0.5-0.4-0.8-0.6c-0.3-0.2-0.7-0.3-1.2-0.5
		c-0.5-0.1-1-0.2-1.5-0.3c-0.7-0.1-1.5-0.1-2.2-0.1s-1.4,0.1-2,0.2c-0.6,0.1-1.2,0.3-1.7,0.5c-0.5,0.2-0.9,0.5-1.1,0.8
		c-0.1,0.1-0.2,0.3-0.2,0.4c0,0.1-0.1,0.2-0.1,0.4c0,0,0,0,0,0l0,0.3c0,0.1,0,0.1,0,0.2c0,0.1,0,0.1,0.1,0.2c0,0,0,0.1,0,0.1
		l-6.2,2.3c-0.1,0-0.1,0-0.2,0c-0.1,0-0.1,0-0.2,0c-0.1,0-0.1,0-0.2,0c-0.1,0-0.1,0-0.2,0c-0.6-0.1-1.1-0.1-1.7-0.1
		c-0.6,0-1.1,0-1.7,0.1c-0.5,0.1-1.1,0.2-1.6,0.3c-0.5,0.1-0.9,0.3-1.3,0.5l-7.8-1.1c0,0,0-0.1,0-0.1c0,0,0,0,0,0c0,0,0,0,0,0l0,0
		c0,0,0,0,0,0l0,0c0,0,0,0,0,0c0,0,0,0,0,0v0v0c0,0,0,0,0,0c0,0,0,0,0,0c0,0,0,0,0,0v0l0,0c0,0,0,0,0,0c0,0,0,0,0,0c0,0,0,0,0,0
		c0-0.2-0.1-0.5-0.2-0.7c-0.1-0.2-0.4-0.4-0.7-0.6c-0.3-0.2-0.7-0.3-1.1-0.5c-0.4-0.1-0.9-0.2-1.5-0.3c-0.7-0.1-1.5-0.1-2.2-0.1
		c-0.7,0-1.5,0.1-2.1,0.2c-0.7,0.1-1.3,0.3-1.9,0.5c-0.6,0.2-1,0.5-1.4,0.8c-0.1,0.1-0.3,0.3-0.3,0.4c-0.1,0.1-0.1,0.3-0.2,0.4
		c0,0.1,0,0.3,0,0.4c0,0,0,0,0,0l0,0.4c0,0,0,0.1,0,0.1l-7.1,2.4c-0.1,0-0.1,0-0.2,0c-0.1,0-0.1,0-0.2,0c-0.1,0-0.1,0-0.2,0
		c-0.1,0-0.1,0-0.2,0c-0.7-0.1-1.5-0.1-2.3-0.1c-0.8,0-1.5,0.1-2.3,0.3c-0.7,0.1-1.4,0.4-2,0.6c-0.6,0.3-1.1,0.5-1.5,0.9
		c-0.4,0.3-0.6,0.7-0.7,1c0,0.2,0,0.3,0,0.5c0,0,0,0,0,0l0.1,0.4c0,0.1,0,0.2,0.1,0.3c0,0,0,0,0,0.1c0,0.1,0.1,0.1,0.1,0.2
		c0,0,0,0,0,0c0.1,0.1,0.2,0.2,0.2,0.2c0,0,0,0,0.1,0.1c0.1,0.1,0.2,0.1,0.3,0.2c0,0,0.1,0,0.1,0.1c0.1,0.1,0.3,0.1,0.4,0.2
		c0,0,0.1,0,0.1,0c0.1,0.1,0.3,0.1,0.5,0.2c0,0,0,0,0,0c0.2,0.1,0.4,0.1,0.6,0.2c0,0,0,0,0,0c0.2,0.1,0.4,0.1,0.7,0.1
		c0.1,0,0.1,0,0.2,0c0,0,0,0,0,0c0.1,0,0.1,0,0.2,0c0,0,0,0,0,0c0,0,0.1,0,0.1,0c0,0,0,0,0,0c0.1,0,0.1,0,0.2,0l0.3,3.7
		c-0.3,0.1-0.6,0.2-0.9,0.3c-0.3,0.1-0.6,0.2-0.8,0.4c-0.3,0.1-0.5,0.3-0.7,0.4c-0.2,0.1-0.4,0.3-0.6,0.5c-0.2,0.2-0.3,0.3-0.5,0.5
		c-0.1,0.2-0.2,0.3-0.3,0.5c-0.1,0.2-0.1,0.3-0.1,0.5c0,0.1,0,0.2,0,0.2c0,0,0,0,0-0.1l0,0.3l-8.4,3.1h0c-0.1,0-0.1,0-0.2,0
		c-0.1,0-0.1,0-0.2,0c-0.1,0-0.1,0-0.2,0c-0.1,0-0.1,0-0.2,0c-0.8-0.1-1.7-0.2-2.5-0.1c-0.9,0-1.8,0.2-2.6,0.3
		c-0.9,0.2-1.7,0.4-2.4,0.8c-0.7,0.3-1.4,0.7-1.9,1.1c-0.5,0.4-0.8,0.9-1,1.3c-0.1,0.3-0.1,0.6-0.1,0.9c0,0,0,0,0-0.1l0.1,0.4
		c0,0.1,0.1,0.2,0.1,0.3c0,0,0,0.1,0,0.1c0,0.1,0.1,0.2,0.2,0.3c0,0,0,0,0,0c0.1,0.1,0.2,0.2,0.3,0.3c0,0,0,0,0.1,0.1
		c0.1,0.1,0.2,0.2,0.3,0.2c0,0,0,0,0,0c0.1,0.1,0.3,0.2,0.4,0.2c0,0,0.1,0,0.1,0.1c0.1,0.1,0.3,0.1,0.5,0.2c0,0,0,0,0,0
		c0.4,0.1,0.8,0.3,1.3,0.3c0.1,0,0.1,0,0.2,0c0,0,0,0,0,0c0.1,0,0.1,0,0.2,0c0,0,0,0,0,0c0,0,0.1,0,0.1,0c0,0,0,0,0,0
		c0,0,0.1,0,0.1,0l-0.3,4.9c-0.4,0.1-0.7,0.2-1.1,0.4c-0.4,0.1-0.7,0.3-1,0.5c-0.3,0.2-0.6,0.3-0.9,0.5c-0.3,0.2-0.6,0.4-0.8,0.6
		c-0.6,0.5-0.9,1-1.1,1.5c-0.1,0.4-0.1,0.8-0.1,1.1c0,0,0,0,0,0l0.1,0.4c0,0.1,0.1,0.2,0.1,0.4c0,0,0,0.1,0,0.1
		c0.1,0.1,0.1,0.2,0.2,0.3c0,0,0,0,0,0c0.1,0.1,0.2,0.2,0.3,0.3c0,0,0.1,0.1,0.1,0.1c0.1,0.1,0.2,0.2,0.4,0.3c0,0,0,0,0,0
		c0.1,0.1,0.3,0.2,0.4,0.3c0,0,0.1,0,0.1,0.1c0.2,0.1,0.3,0.2,0.5,0.2c0,0,0,0,0,0c0.2,0.1,0.4,0.1,0.6,0.2c0,0,0,0,0,0
		c0.2,0.1,0.5,0.1,0.7,0.2c0.3,0.1,0.7,0.1,1.1,0.1l0,0c0.4,0,0.7,0,1.1,0.1h0c0.4,0,0.7,0,1.1,0c0,0,0,0,0,0c0.4,0,0.7-0.1,1.1-0.1
		c0,0,0,0,0,0c0.3,0,0.6-0.1,0.9-0.2c0.1,0,0.3-0.1,0.4-0.1c0.2-0.1,0.4-0.1,0.6-0.2c0.1,0,0.3-0.1,0.4-0.1c0.2-0.1,0.4-0.2,0.6-0.2
		c0.1,0,0.2-0.1,0.3-0.1c0.3-0.1,0.6-0.3,0.9-0.4l9.8,1.8c0,0.2,0,0.3,0,0.5c0,0,0,0,0,0l0.1,0.4c0,0.1,0.1,0.3,0.1,0.4
		c0,0,0,0.1,0,0.1c0.1,0.1,0.1,0.2,0.2,0.4c0,0,0,0,0,0.1c0.1,0.1,0.2,0.3,0.3,0.4c0,0,0.1,0.1,0.1,0.1c0.1,0.1,0.2,0.2,0.3,0.3
		c0,0,0.1,0.1,0.1,0.1c0.2,0.1,0.3,0.2,0.5,0.3c0,0,0.1,0,0.1,0.1c0.2,0.1,0.4,0.2,0.6,0.3c0,0,0,0,0,0c0.2,0.1,0.5,0.2,0.8,0.3
		c0,0,0,0,0,0c0.3,0.1,0.6,0.1,0.9,0.2c0.1,0,0.2,0,0.3,0c0,0,0,0,0,0c0.1,0,0.2,0,0.2,0c0,0,0,0,0.1,0c0.1,0,0.2,0,0.2,0h0
		c0.1,0,0.2,0,0.2,0l0.5,6.2c-0.4,0.1-0.8,0.3-1.2,0.5c-0.4,0.2-0.7,0.4-1.1,0.6c-0.3,0.2-0.7,0.4-0.9,0.7c-0.3,0.2-0.6,0.5-0.8,0.8
		c-0.5,0.7-0.9,1.3-1,2c-0.1,0.3-0.1,0.6,0,1c0,0,0,0,0,0l0.1,0.4c0,0.1,0,0.2,0.1,0.4c0,0,0,0.1,0,0.1c0,0.1,0.1,0.2,0.1,0.3
		c0,0,0,0.1,0,0.1c0.1,0.1,0.1,0.2,0.2,0.3c0,0,0,0,0,0.1c0.1,0.1,0.1,0.2,0.2,0.3c0,0,0.1,0.1,0.1,0.1c0.1,0.1,0.2,0.2,0.3,0.3
		c0,0,0,0,0,0c0.1,0.1,0.2,0.2,0.3,0.3c0.2,0.1,0.4,0.3,0.6,0.4c0,0,0.1,0,0.1,0.1c0.2,0.1,0.4,0.2,0.6,0.3c0,0,0,0,0,0
		c0.3,0.1,0.5,0.2,0.8,0.3c0,0,0,0,0,0c0.3,0.1,0.6,0.2,0.9,0.2c0.2,0,0.4,0.1,0.6,0.1c0,0,0,0,0,0c0.2,0,0.4,0.1,0.6,0.1l0,0
		c0.2,0,0.4,0,0.6,0c0,0,0,0,0,0c0.2,0,0.4,0,0.6,0l0,0c0.2,0,0.4,0,0.6,0l0,0c0.2,0,0.4,0,0.6,0c0,0,0,0,0,0c0.2,0,0.4,0,0.6-0.1
		c0,0,0,0,0,0c0.2,0,0.4-0.1,0.6-0.1l0,0c0.3-0.1,0.7-0.1,1-0.2c0.2,0,0.3-0.1,0.5-0.1c0.2-0.1,0.5-0.1,0.7-0.2
		c0.2-0.1,0.3-0.1,0.5-0.2c0.1,0,0.1,0,0.2-0.1c0.3-0.1,0.6-0.2,0.8-0.4c0,0,0.1,0,0.1-0.1c0.3-0.1,0.5-0.3,0.8-0.5l11.4,2.4v0l0,0
		c0,0,0,0,0,0l0,0.4c0,0.2,0,0.3,0.1,0.5c0,0,0,0.1,0,0.1c0,0.1,0.1,0.3,0.1,0.4c0,0,0,0,0,0c0.1,0.2,0.1,0.3,0.2,0.4
		c0,0,0,0.1,0.1,0.1c0.1,0.1,0.2,0.2,0.3,0.4c0,0,0,0,0.1,0.1c0.1,0.1,0.2,0.3,0.4,0.4c0,0,0.1,0.1,0.1,0.1c0.1,0.1,0.2,0.2,0.4,0.3
		c0,0,0.1,0.1,0.1,0.1c0.2,0.1,0.3,0.2,0.5,0.3c0,0,0.1,0,0.1,0.1c0.2,0.1,0.3,0.2,0.5,0.3c0.1,0,0.1,0.1,0.2,0.1c0,0,0,0,0.1,0
		c0.1,0.1,0.3,0.1,0.4,0.2c0,0,0,0,0,0c0.2,0.1,0.3,0.1,0.5,0.2l0,0c0.2,0.1,0.4,0.1,0.5,0.2c0,0,0,0,0,0c0.2,0,0.4,0.1,0.6,0.1
		c0.1,0,0.2,0,0.3,0.1c0,0,0,0,0,0c0.1,0,0.2,0,0.3,0c0,0,0,0,0.1,0c0.1,0,0.2,0,0.3,0h0l0,0c0.1,0,0.2,0,0.3,0l1.8,8.1
		c-0.4,0.2-0.8,0.4-1.2,0.6c-0.4,0.2-0.8,0.5-1.1,0.8c-0.4,0.3-0.7,0.6-1,0.9c-0.3,0.3-0.5,0.7-0.8,1c-0.2,0.4-0.4,0.7-0.5,1.1
		c-0.1,0.4-0.2,0.7-0.2,1.1c0,0.4,0,0.7,0.1,1.1c0,0,0,0,0,0c0-0.1,0-0.3,0-0.4l0,0.5c0,0.1,0,0.3,0,0.4c0,0.1,0,0.3,0.1,0.4
		c0,0.1,0.1,0.2,0.1,0.3l-11.5,6.8c-0.1,0-0.2-0.1-0.3-0.1c-0.1,0-0.2-0.1-0.3-0.1c-0.1,0-0.2-0.1-0.3-0.1c-0.1,0-0.2-0.1-0.3-0.1
		c-1-0.2-2-0.3-3-0.3c-1,0-2,0.1-3,0.3c-1,0.2-1.9,0.5-2.8,0.9c-0.9,0.4-1.8,0.9-2.5,1.5l-12.9-3.2c0,0,0,0,0,0c0,0,0,0,0,0
		c0-0.2,0-0.3,0-0.5c0,0,0,0,0,0c0-0.2,0-0.3,0-0.5c0,0,0,0,0,0c0-0.2,0-0.3-0.1-0.4c0-0.2-0.1-0.3-0.1-0.5c0,0,0,0,0,0c0,0,0,0,0,0
		c0,0,0,0,0,0c0,0,0,0,0,0c0,0.1,0,0.2,0,0.2c0,0,0,0.1,0,0.1c0-0.2,0-0.3-0.1-0.5c-0.1-0.6-0.4-1.2-0.8-1.8c-0.4-0.5-1-1-1.6-1.4
		c-0.7-0.4-1.4-0.7-2.3-0.9c-0.1,0-0.2-0.1-0.3-0.1c-0.1,0-0.2,0-0.3-0.1c-0.1,0-0.2,0-0.3-0.1c-0.1,0-0.2,0-0.2,0l0.3-8.7
		c0.2-0.1,0.5-0.2,0.7-0.3c0.1,0,0.1-0.1,0.2-0.1c0.2-0.1,0.3-0.1,0.5-0.2c0.1,0,0.2-0.1,0.3-0.1c0.1-0.1,0.3-0.1,0.4-0.2
		c0.1-0.1,0.2-0.1,0.3-0.2c0.1-0.1,0.2-0.1,0.4-0.2c0,0,0,0,0,0c0.2-0.1,0.4-0.3,0.5-0.4c0,0,0,0,0.1,0c0.2-0.1,0.3-0.3,0.5-0.4
		c0,0,0,0,0,0c0.2-0.1,0.3-0.3,0.5-0.5c0,0,0,0,0,0c0.2-0.2,0.3-0.3,0.4-0.5c0.1-0.2,0.2-0.3,0.3-0.5c0,0,0,0,0,0
		c0.1-0.2,0.2-0.3,0.3-0.5c0,0,0,0,0,0c0.1-0.1,0.2-0.3,0.2-0.4c0,0,0,0,0,0c0.1-0.1,0.1-0.3,0.2-0.4c0,0,0,0,0,0
		c0-0.1,0.1-0.3,0.1-0.4c0,0,0,0,0,0c0-0.1,0-0.3,0.1-0.4c0,0,0,0,0,0c0-0.1,0-0.3,0-0.4c0,0,0,0,0,0c0-0.1,0-0.3,0-0.4
		c0-0.2-0.1-0.3-0.1-0.5c0,0.1,0,0.1,0,0.2c0,0,0,0,0,0c0-0.3-0.1-0.7-0.3-1c-0.3-0.6-0.8-1.2-1.5-1.7c-0.7-0.5-1.6-0.8-2.6-1.1
		C78.7,86.1,77.9,86,77,86c-0.9,0-1.7,0.1-2.6,0.2c-0.9,0.2-1.7,0.4-2.6,0.7c-0.8,0.3-1.6,0.7-2.3,1.1l-10.8-2.4c0,0,0-0.1,0-0.1
		c0,0,0,0,0,0c0-0.2,0.1-0.3,0.1-0.5c0,0,0,0,0,0c0-0.1,0-0.3,0-0.4c0,0,0,0,0,0c0-0.1,0-0.3-0.1-0.4l-0.1-0.4c0,0,0,0.1,0,0.1
		c0,0,0,0.1,0,0.1c0,0,0,0.1,0,0.1c-0.1-0.5-0.2-0.9-0.5-1.3c-0.3-0.4-0.7-0.8-1.3-1.1c-0.5-0.3-1.2-0.5-1.9-0.7
		c-1-0.2-2.1-0.3-3.2-0.2c-1.1,0.1-2.3,0.2-3.4,0.5c-1.1,0.3-2.2,0.7-3.2,1.2c-1,0.5-1.9,1.1-2.7,1.8c-0.3,0.3-0.6,0.6-0.9,0.9
		c-0.2,0.3-0.4,0.6-0.6,0.9c-0.2,0.3-0.3,0.6-0.4,0.9c-0.1,0.3-0.1,0.6-0.1,0.9l-13,5.6c-0.1,0-0.2-0.1-0.2-0.1s-0.2-0.1-0.3-0.1
		c-0.1,0-0.2-0.1-0.3-0.1c-0.1,0-0.2,0-0.3-0.1c-1-0.2-2.2-0.3-3.4-0.3c-1.2,0.1-2.5,0.3-3.7,0.6c-1.3,0.3-2.5,0.8-3.7,1.4
		c-1.2,0.6-2.3,1.3-3.2,2.1c-1,0.8-1.7,1.6-2.1,2.4c-0.5,0.8-0.7,1.6-0.7,2.3c0,0.4,0.1,0.7,0.2,1c0,0,0,0,0,0l0.2,0.5
		c0.1,0.1,0.1,0.2,0.2,0.4c0,0,0.1,0.1,0.1,0.1c0.1,0.1,0.1,0.2,0.2,0.2c0,0,0.1,0.1,0.1,0.1c0.1,0.1,0.1,0.1,0.2,0.2
		c0,0,0.1,0.1,0.2,0.1c0.1,0.1,0.1,0.1,0.2,0.2c0,0,0,0,0,0c0.1,0.1,0.2,0.2,0.4,0.2c0,0,0,0,0,0c0.1,0.1,0.3,0.2,0.4,0.2
		c0,0,0,0,0,0c0.2,0.1,0.3,0.1,0.5,0.2c0,0,0,0,0,0c0.2,0.1,0.4,0.1,0.6,0.2c0.1,0,0.2,0,0.3,0.1l0,0c0.1,0,0.2,0,0.3,0.1
		c0,0,0,0,0.1,0c0.1,0,0.2,0,0.2,0l-3.5,9.7c-0.6,0.2-1.2,0.5-1.8,0.8c-0.6,0.3-1.2,0.6-1.7,0.9c-0.6,0.3-1.1,0.7-1.6,1.1
		c-0.5,0.4-1,0.8-1.5,1.2c-1.1,1-2,2.1-2.5,3.1c-0.6,1-0.9,2-0.9,2.9c0,0.7,0.2,1.3,0.5,1.9c0,0,0-0.1-0.1-0.1l0.2,0.5
		c0.1,0.1,0.1,0.2,0.2,0.4c0,0,0.1,0.1,0.1,0.1c0.1,0.1,0.1,0.2,0.2,0.2c0,0,0.1,0.1,0.1,0.1c0.1,0.1,0.1,0.1,0.2,0.2
		c0,0,0.1,0.1,0.1,0.1c0.1,0.1,0.2,0.2,0.3,0.3c0,0,0,0,0,0c0.1,0.1,0.2,0.2,0.4,0.3c0,0,0,0,0,0c0.1,0.1,0.3,0.2,0.4,0.2
		c0,0,0,0,0,0c0.2,0.1,0.3,0.1,0.5,0.2c0,0,0,0,0,0c0.2,0.1,0.4,0.1,0.6,0.2c0.2,0.1,0.5,0.1,0.7,0.2c0,0,0,0,0,0
		c0.2,0,0.5,0.1,0.7,0.1l0,0c0.2,0,0.5,0.1,0.8,0.1c0,0,0,0,0,0c0.2,0,0.5,0,0.8,0c0,0,0,0,0,0c0.3,0,0.5,0,0.8,0c0,0,0,0,0,0
		c0.3,0,0.5,0,0.8-0.1c0,0,0,0,0.1,0c0.3,0,0.5-0.1,0.8-0.1c0,0,0,0,0,0c0.3,0,0.6-0.1,0.8-0.2c0,0,0,0,0,0c0.3-0.1,0.6-0.1,0.8-0.2
		c0,0,0,0,0,0c0.3-0.1,0.5-0.1,0.8-0.2c0.1,0,0.2-0.1,0.2-0.1c0.2-0.1,0.4-0.1,0.6-0.2c0.1,0,0.2-0.1,0.3-0.1
		c0.2-0.1,0.3-0.1,0.5-0.2c0.1,0,0.2-0.1,0.3-0.1c0.1-0.1,0.2-0.1,0.4-0.2c0.4-0.2,0.9-0.4,1.3-0.6c0.1,0,0.1-0.1,0.2-0.1
		c0.4-0.2,0.9-0.5,1.3-0.7l12.6,3.7c-0.3,0.7-0.4,1.4-0.4,2.1c0,0.8,0.1,1.5,0.4,2.2c0,0,0,0,0-0.1c0.1,0.2,0.1,0.3,0.2,0.5
		c0.1,0.2,0.2,0.4,0.3,0.5c0,0.1,0.1,0.1,0.1,0.2c0.1,0.1,0.1,0.2,0.2,0.3c0,0.1,0.1,0.1,0.2,0.2c0.1,0.1,0.2,0.2,0.2,0.3
		c0.1,0.1,0.1,0.1,0.2,0.2c0.1,0.1,0.2,0.2,0.3,0.2c0.2,0.1,0.3,0.2,0.5,0.4c0,0,0,0,0,0c0.2,0.1,0.4,0.2,0.6,0.3c0,0,0,0,0,0
		c0.2,0.1,0.4,0.2,0.6,0.3c0,0,0,0,0,0c0.2,0.1,0.5,0.2,0.7,0.2c0.1,0,0.2,0.1,0.4,0.1l0,0c0.1,0,0.2,0.1,0.3,0.1c0,0,0,0,0.1,0
		c0.1,0,0.2,0,0.3,0.1c0,0,0,0,0,0c0,0,0,0,0.1,0l-2.9,13.5c-0.7,0.3-1.3,0.7-2,1.1c-0.7,0.4-1.3,0.8-1.9,1.3
		c-0.6,0.5-1.2,1-1.8,1.5c-0.6,0.5-1.1,1.1-1.6,1.7c-1.2,1.4-2.1,2.9-2.6,4.3c-0.6,1.5-0.8,2.9-0.7,4.2c0.1,0.9,0.3,1.8,0.7,2.6
		c0,0,0-0.1-0.1-0.1l0.2,0.5c0.1,0.2,0.2,0.3,0.3,0.5c0,0.1,0.1,0.1,0.1,0.2c0.1,0.1,0.2,0.2,0.2,0.3c0,0.1,0.1,0.1,0.1,0.2
		c0.1,0.1,0.2,0.2,0.3,0.3c0.1,0.1,0.1,0.1,0.2,0.2c0.1,0.1,0.2,0.2,0.4,0.4c0,0,0,0,0.1,0c0.2,0.1,0.3,0.3,0.5,0.4c0,0,0,0,0,0
		c0.2,0.1,0.3,0.2,0.5,0.3c0,0,0,0,0.1,0c0.2,0.1,0.4,0.2,0.6,0.3c0,0,0,0,0,0c0.2,0.1,0.4,0.2,0.7,0.3c0.3,0.1,0.6,0.2,0.8,0.2
		c0,0,0,0,0,0c0.3,0.1,0.6,0.1,0.9,0.2c0,0,0,0,0,0c0.3,0,0.6,0.1,0.9,0.1c0,0,0,0,0,0c0.3,0,0.6,0,0.9,0c0,0,0,0,0,0
		c0.3,0,0.6,0,0.9,0c0,0,0,0,0.1,0c0.3,0,0.6-0.1,0.9-0.1c0,0,0,0,0.1,0c0.3,0,0.6-0.1,0.9-0.2c0,0,0,0,0.1,0
		c0.3-0.1,0.6-0.1,0.9-0.2c0,0,0.1,0,0.1,0c0.3-0.1,0.6-0.2,0.9-0.3c0,0,0.1,0,0.1,0c0.3-0.1,0.6-0.2,1-0.3c0.1,0,0.1-0.1,0.2-0.1
		c0.2-0.1,0.5-0.2,0.7-0.3c0.1,0,0.2-0.1,0.3-0.1c0.2-0.1,0.4-0.2,0.6-0.3c0.1-0.1,0.2-0.1,0.4-0.2c0.2-0.1,0.4-0.2,0.6-0.3
		c0.1-0.1,0.2-0.1,0.4-0.2c0.2-0.1,0.4-0.2,0.5-0.3c0.1-0.1,0.2-0.1,0.3-0.2c0.2-0.1,0.4-0.3,0.6-0.4c0.1-0.1,0.2-0.1,0.3-0.2
		c0.3-0.2,0.6-0.4,0.8-0.6l15.8,5.3c-0.2,1.1-0.3,2.1-0.2,3.1c0.1,0.9,0.3,1.8,0.6,2.6c0,0,0-0.1-0.1-0.1l0.2,0.5
		c0.1,0.3,0.2,0.6,0.4,0.9c0,0.1,0.1,0.2,0.2,0.3c0.1,0.2,0.2,0.4,0.3,0.6c0.1,0.1,0.2,0.2,0.2,0.3c0.1,0.2,0.2,0.3,0.4,0.5
		c0.1,0.1,0.2,0.2,0.3,0.3c0.1,0.1,0.3,0.3,0.4,0.4c0.2,0.2,0.4,0.3,0.5,0.5c0,0,0,0,0.1,0c0.2,0.2,0.5,0.4,0.8,0.5l0,0
		c0.3,0.2,0.6,0.3,0.9,0.5c0,0,0,0,0,0c0.3,0.1,0.6,0.3,1,0.4c0.2,0.1,0.4,0.1,0.6,0.2c0,0,0,0,0.1,0c0.2,0.1,0.4,0.1,0.6,0.1
		c0,0,0,0,0.1,0c0.2,0,0.4,0.1,0.6,0.1c0,0,0,0,0,0c0.2,0,0.4,0.1,0.6,0.1l0,0c0.2,0,0.4,0,0.6,0.1c0,0,0,0,0,0c0.2,0,0.4,0,0.6,0
		c0,0,0,0,0.1,0c0.2,0,0.4,0,0.6,0c0,0,0,0,0.1,0c0.2,0,0.4,0,0.6,0c0,0,0,0,0.1,0c0.2,0,0.4,0,0.6-0.1c0,0,0,0,0,0
		c0.2,0,0.4-0.1,0.6-0.1c0,0,0.1,0,0.1,0c0.2,0,0.4-0.1,0.6-0.1c0.1,0,0.1,0,0.2,0c0.1,0,0.3-0.1,0.4-0.1c0.1,0,0.1,0,0.2-0.1
		c0.2,0,0.3-0.1,0.5-0.1c0,0,0.1,0,0.1,0c0.2-0.1,0.4-0.1,0.6-0.2c0.3-0.1,0.5-0.2,0.8-0.3c0.1,0,0.1-0.1,0.2-0.1
		c0.2-0.1,0.3-0.1,0.5-0.2c0.4-0.2,0.7-0.3,1-0.5c0,0,0.1,0,0.1-0.1c0.4-0.2,0.7-0.4,1.1-0.6c0.1-0.1,0.2-0.1,0.3-0.2
		c0.3-0.2,0.6-0.4,0.8-0.6c0.1-0.1,0.2-0.1,0.2-0.2c0.3-0.3,0.7-0.5,1-0.8c0.1-0.1,0.1-0.1,0.2-0.2c0.3-0.3,0.6-0.5,0.9-0.8
		c0,0,0,0,0-0.1c0.3-0.3,0.6-0.7,0.9-1c0,0,0,0,0,0c0.3-0.4,0.6-0.7,0.8-1.1c0,0,0,0,0,0c0.3-0.4,0.5-0.8,0.7-1.2
		c0.2-0.3,0.4-0.7,0.5-1c0,0,0,0,0,0c0.2-0.3,0.3-0.7,0.4-1c0,0,0,0,0,0c0.1-0.3,0.2-0.7,0.3-1c0,0,0,0,0,0c0.1-0.3,0.2-0.7,0.2-1
		c0,0,0,0,0,0c0.1-0.3,0.1-0.6,0.1-1c0,0,0,0,0,0c0-0.3,0.1-0.6,0.1-1c0,0,0,0,0,0c0-0.3,0-0.6,0-0.9c0,0,0,0,0-0.1
		c0-0.3-0.1-0.6-0.1-0.9l15.7-11.1c0.1,0,0.2,0.1,0.3,0.1c0,0,0,0,0,0c0.1,0,0.2,0.1,0.3,0.1c0,0,0,0,0.1,0c0.1,0,0.2,0.1,0.3,0.1
		c0,0,0,0,0,0c0.1,0,0.2,0.1,0.4,0.1c0.3,0.1,0.6,0.2,0.9,0.2c0,0,0,0,0,0c0.3,0.1,0.6,0.1,0.9,0.2c0,0,0,0,0,0
		c0.3,0,0.6,0.1,0.9,0.1c0,0,0,0,0,0c0.3,0,0.6,0,0.9,0c0,0,0,0,0,0c0.3,0,0.6,0,0.9,0c0,0,0,0,0.1,0c0.3,0,0.6,0,0.9-0.1
		c0,0,0,0,0.1,0c0.3,0,0.6-0.1,0.9-0.1c0,0,0,0,0,0c0.3-0.1,0.6-0.1,0.9-0.2c0,0,0,0,0,0c0.3-0.1,0.6-0.2,0.8-0.2c0,0,0,0,0,0
		c0.3-0.1,0.5-0.2,0.8-0.3c0.1,0,0.2-0.1,0.2-0.1c0.2-0.1,0.4-0.2,0.6-0.2c0.1,0,0.2-0.1,0.3-0.1c0.2-0.1,0.3-0.2,0.5-0.2
		c0.1-0.1,0.2-0.1,0.3-0.2c0.2-0.1,0.3-0.2,0.4-0.3c0.1-0.1,0.2-0.1,0.3-0.2c0.1-0.1,0.3-0.2,0.4-0.3c0.1-0.1,0.2-0.1,0.3-0.2
		c0.2-0.1,0.3-0.2,0.4-0.3c0.1-0.1,0.1-0.1,0.2-0.2c0.2-0.2,0.4-0.4,0.6-0.6l16.6,4.8l0,0.2c0,0.2,0,0.5,0.1,0.7c0,0.1,0,0.1,0,0.2
		c0,0.2,0.1,0.4,0.1,0.5c0,0.1,0,0.1,0,0.2c0.1,0.2,0.1,0.5,0.2,0.7c0,0,0,0,0,0.1c0.1,0.2,0.1,0.4,0.2,0.6c0,0.1,0.1,0.1,0.1,0.2
		c0.1,0.2,0.1,0.3,0.2,0.5c0,0.1,0.1,0.1,0.1,0.2c0.1,0.2,0.2,0.4,0.3,0.6c0,0,0,0.1,0,0.1c0.1,0.2,0.2,0.4,0.4,0.6
		c0,0.1,0.1,0.1,0.1,0.2c0.1,0.2,0.2,0.3,0.3,0.4c0,0.1,0.1,0.1,0.1,0.2c0.2,0.2,0.3,0.4,0.5,0.6c0,0,0.1,0.1,0.1,0.1
		c0.2,0.2,0.3,0.3,0.5,0.5c0.1,0.1,0.1,0.1,0.2,0.2c0.1,0.1,0.3,0.3,0.5,0.4c0.1,0,0.1,0.1,0.2,0.1c0.2,0.2,0.4,0.3,0.7,0.5
		c0,0,0,0,0,0c0.2,0.2,0.5,0.3,0.7,0.4c0,0,0.1,0,0.1,0c0.2,0.1,0.5,0.3,0.8,0.4c0,0,0,0,0,0c0.3,0.1,0.5,0.2,0.8,0.3c0,0,0,0,0.1,0
		c0.3,0.1,0.6,0.2,0.9,0.3c0.2,0.1,0.4,0.1,0.6,0.2c0,0,0,0,0.1,0c0.2,0,0.4,0.1,0.6,0.1c0,0,0,0,0.1,0c0.2,0,0.4,0.1,0.6,0.1
		c0,0,0,0,0,0c0.2,0,0.4,0.1,0.6,0.1l0,0l0,0c0.2,0,0.4,0,0.6,0c0,0,0,0,0,0c0.2,0,0.4,0,0.6,0c0,0,0,0,0.1,0c0.2,0,0.4,0,0.6,0
		c0,0,0,0,0.1,0c0.2,0,0.4,0,0.6,0c0,0,0,0,0,0c0.4,0,0.8-0.1,1.2-0.2c0,0,0,0,0,0c0.4-0.1,0.8-0.2,1.1-0.3c0,0,0.1,0,0.1,0
		c0.4-0.1,0.7-0.2,1.1-0.3c0.1,0,0.1,0,0.2-0.1c0.3-0.1,0.6-0.2,0.8-0.4c0.1,0,0.2-0.1,0.3-0.1c0.3-0.1,0.6-0.3,0.9-0.5
		c0,0,0.1,0,0.1,0c0.3-0.2,0.6-0.4,0.9-0.6c0.1-0.1,0.1-0.1,0.2-0.2c0.2-0.2,0.4-0.3,0.6-0.5c0.1,0,0.1-0.1,0.2-0.1
		c0.3-0.2,0.5-0.5,0.7-0.7c0.2-0.2,0.3-0.3,0.4-0.5c0.1-0.1,0.2-0.3,0.3-0.4c0,0,0.1-0.1,0.1-0.1c0.1-0.1,0.1-0.2,0.2-0.3
		c0,0,0.1-0.1,0.1-0.1c0.1-0.1,0.2-0.2,0.2-0.4c0,0,0,0,0-0.1c0.1-0.1,0.2-0.3,0.2-0.4c0,0,0-0.1,0-0.1c0.1-0.1,0.1-0.3,0.2-0.4
		c0,0,0-0.1,0-0.1c0.1-0.2,0.1-0.3,0.2-0.5c0,0,0,0,0,0c0.1-0.2,0.1-0.3,0.2-0.5c0.1-0.2,0.1-0.4,0.2-0.6c0,0,0,0,0-0.1
		c0-0.2,0.1-0.4,0.1-0.6c0,0,0,0,0,0c0-0.2,0.1-0.4,0.1-0.6c0,0,0,0,0-0.1c0-0.2,0-0.4,0-0.6l0-0.4c0,0,0,0,0,0c0,0,0,0,0,0.1
		c0,0,0,0,0,0.1c0,0.1,0,0.2,0,0.3c0,0,0,0.1,0,0.1c0.1-0.6,0.1-1.2,0-1.8c0-0.6-0.2-1.2-0.3-1.8c-0.1-0.4-0.3-0.9-0.5-1.3l12-9.9h0
		c0.1,0,0.2,0.1,0.4,0.1c0,0,0,0,0,0c0.1,0,0.2,0.1,0.3,0.1c0,0,0,0,0.1,0c0.1,0,0.2,0.1,0.3,0.1c0,0,0,0,0,0c0.1,0,0.3,0.1,0.4,0.1
		c0.4,0.1,0.8,0.2,1.2,0.3c0,0,0,0,0,0c0.4,0.1,0.8,0.1,1.2,0.2l0,0c0.4,0,0.8,0.1,1.1,0.1h0c0.4,0,0.7,0,1.1,0l0,0
		c0.4,0,0.7-0.1,1.1-0.1c0,0,0,0,0,0c0.3-0.1,0.7-0.1,1-0.2c0,0,0.1,0,0.1,0c0.3-0.1,0.6-0.2,0.9-0.3c0,0,0.1,0,0.1-0.1
		c0.2-0.1,0.5-0.2,0.7-0.3c0.1,0,0.2-0.1,0.2-0.1c0.3-0.1,0.5-0.2,0.7-0.4c0,0,0,0,0.1,0c0.3-0.1,0.5-0.3,0.7-0.5
		c0.1,0,0.1-0.1,0.2-0.1c0.2-0.1,0.4-0.3,0.5-0.4c0,0,0.1-0.1,0.1-0.1c0.2-0.2,0.4-0.4,0.6-0.6c0,0,0.1-0.1,0.1-0.1
		c0.2-0.2,0.3-0.4,0.5-0.6c0,0,0,0,0,0c0.2-0.2,0.3-0.5,0.5-0.8c0,0,0,0,0,0c0.1-0.3,0.3-0.5,0.4-0.8c0,0,0,0,0,0
		c0.1-0.3,0.2-0.6,0.3-0.9c0,0,0-0.1,0-0.1c0,0,0,0,0,0c0,0,0-0.1,0-0.1c0,0,0,0,0,0c0,0,0-0.1,0-0.1c0,0,0,0,0,0c0,0,0-0.1,0-0.1
		l0.1-0.5c0,0,0,0.1,0,0.1l0,0c0.2-1.1,0.1-2.1-0.2-3.1c-0.3-1.2-0.9-2.3-1.7-3.3c-0.8-1-1.8-1.9-3-2.6c-1.2-0.7-2.5-1.3-4-1.6
		c-0.1,0-0.3-0.1-0.4-0.1c-0.1,0-0.3-0.1-0.4-0.1c-0.1,0-0.3,0-0.4-0.1c-0.1,0-0.3,0-0.4-0.1l-4.5-11c0.1-0.1,0.3-0.2,0.4-0.2
		c0.1,0,0.1-0.1,0.2-0.1c0.1-0.1,0.3-0.2,0.4-0.3c0.1-0.1,0.1-0.1,0.2-0.2c0.1-0.1,0.2-0.2,0.3-0.3c0.1-0.1,0.1-0.1,0.2-0.2
		c0.1-0.1,0.2-0.2,0.3-0.3c0,0,0,0,0,0c0.1-0.1,0.3-0.3,0.4-0.5c0,0,0,0,0,0c0.1-0.2,0.2-0.3,0.3-0.5l0,0c0.1-0.2,0.2-0.4,0.3-0.6
		c0,0,0,0,0,0c0.1-0.2,0.2-0.4,0.2-0.6c0-0.1,0-0.2,0.1-0.2c0,0,0,0,0,0c0-0.1,0-0.2,0.1-0.2c0,0,0,0,0-0.1c0-0.1,0-0.2,0-0.2v0
		c0-0.1,0-0.2,0-0.3l0-0.5c0,0,0,0,0,0.1c0,0,0,0,0,0.1c0,0,0,0,0,0.1c0,0,0,0,0,0.1l0,0v0l0,0c0,0.1,0,0.1,0,0.2c0,0,0,0,0,0
		c0-0.2,0.1-0.4,0.1-0.6c0-0.4,0-0.8-0.1-1.2c-0.1-0.4-0.2-0.8-0.3-1.1c-0.1-0.3-0.2-0.5-0.4-0.8l9.2-6.5c0.1,0,0.2,0.1,0.3,0.1
		c0,0,0,0,0,0c0.1,0,0.2,0.1,0.3,0.1c0,0,0,0,0.1,0c0.1,0,0.2,0.1,0.3,0.1c0,0,0,0,0,0c0.1,0,0.2,0.1,0.3,0.1c0.3,0.1,0.6,0.1,1,0.2
		l0,0c0.3,0,0.6,0.1,0.9,0.1h0h0c0.3,0,0.6,0,0.9,0c0,0,0,0,0,0c0.3,0,0.6,0,0.9,0c0,0,0,0,0,0c0.3,0,0.6,0,0.9-0.1c0,0,0,0,0,0
		c0.3,0,0.6-0.1,0.8-0.1c0,0,0,0,0.1,0c0.3-0.1,0.5-0.1,0.7-0.2c0.3-0.1,0.6-0.2,0.9-0.3c0.2-0.1,0.4-0.1,0.5-0.2c0,0,0,0,0.1,0
		c0.2-0.1,0.4-0.2,0.6-0.3c0,0,0.1-0.1,0.1-0.1c0.1-0.1,0.3-0.2,0.4-0.3c0,0,0.1-0.1,0.1-0.1c0.2-0.1,0.3-0.3,0.5-0.4
		c0,0,0.1-0.1,0.1-0.1c0.1-0.1,0.3-0.3,0.4-0.4c0,0,0,0,0,0c0.1-0.2,0.2-0.3,0.3-0.5c0,0,0,0,0,0c0.1-0.2,0.2-0.4,0.3-0.5
		c0,0,0,0,0,0c0.1-0.2,0.1-0.4,0.2-0.6c0,0,0,0,0-0.1c0,0,0,0,0,0c0,0,0,0,0-0.1c0,0,0,0,0,0c0,0,0,0,0-0.1c0,0,0,0,0,0
		c0,0,0,0,0-0.1l0.1-0.5c0,0,0,0,0,0c0,0,0,0,0,0c0,0,0,0,0,0c0,0,0,0,0,0c0,0,0,0,0,0c0,0,0,0,0,0c0,0,0,0,0,0c0,0,0,0,0,0
		c0,0,0,0,0,0c0,0,0,0,0,0c0,0,0,0,0,0c0,0,0,0,0,0l0,0c0,0,0,0,0,0c0,0,0,0,0,0c0,0,0,0,0,0c0,0,0,0,0,0c0.2-0.8,0.1-1.6-0.2-2.4
		c-0.3-0.8-0.8-1.5-1.5-2.2c-0.7-0.7-1.6-1.3-2.6-1.8c-1-0.5-2.1-0.9-3.3-1.1c-0.1,0-0.2,0-0.3-0.1c-0.1,0-0.2,0-0.3-0.1
		c-0.1,0-0.2,0-0.3,0c-0.1,0-0.2,0-0.3,0l-4.2-7.6c0.1,0,0.2-0.1,0.3-0.1c0.1,0,0.1-0.1,0.2-0.1c0.1-0.1,0.2-0.1,0.3-0.2
		c0.1,0,0.1-0.1,0.2-0.1c0.1-0.1,0.2-0.1,0.2-0.2c0.1,0,0.1-0.1,0.2-0.1c0.1-0.1,0.1-0.1,0.2-0.2c0,0,0,0,0,0
		c0.1-0.1,0.2-0.2,0.3-0.3c0,0,0,0,0,0c0.1-0.1,0.2-0.2,0.3-0.4c0,0,0,0,0,0c0.1-0.1,0.2-0.3,0.2-0.4c0,0,0,0,0,0
		c0.1-0.1,0.1-0.3,0.2-0.4c0,0,0-0.1,0-0.1c0,0,0,0,0,0c0,0,0-0.1,0-0.1c0,0,0,0,0,0c0,0,0-0.1,0-0.1c0,0,0,0,0,0c0,0,0-0.1,0-0.1
		l0-0.4c0,0,0,0.1,0,0.1c0,0,0,0,0,0c0,0,0,0,0,0c0-0.1,0-0.3,0-0.4c0-0.3,0-0.6-0.1-0.8c-0.1-0.3-0.2-0.5-0.3-0.8
		c-0.1-0.2-0.2-0.3-0.3-0.5l7.4-4.5c0.1,0,0.2,0,0.3,0.1c0,0,0,0,0,0c0.1,0,0.2,0,0.3,0.1c0,0,0,0,0.1,0c0.1,0,0.2,0,0.3,0.1
		c0,0,0,0,0,0c0.1,0,0.2,0,0.3,0.1c0.3,0,0.5,0.1,0.8,0.1l0,0c0.3,0,0.5,0.1,0.8,0.1l0,0h0c0.3,0,0.5,0,0.8,0h0c0.3,0,0.5,0,0.8,0
		c0,0,0,0,0,0c0.2,0,0.5,0,0.7-0.1c0,0,0,0,0,0c0.2,0,0.5-0.1,0.7-0.1c0,0,0,0,0.1,0c0.2,0,0.4-0.1,0.6-0.1c0.3-0.1,0.5-0.1,0.8-0.2
		c0.1,0,0.1,0,0.2-0.1c0.2-0.1,0.4-0.2,0.6-0.2c0.1,0,0.1-0.1,0.2-0.1c0,0,0.1,0,0.1-0.1c0.1-0.1,0.2-0.1,0.3-0.2c0,0,0.1,0,0.1-0.1
		c0.1-0.1,0.3-0.2,0.4-0.3c0,0,0.1,0,0.1-0.1c0.1-0.1,0.2-0.2,0.3-0.3c0,0,0,0,0,0c0.1-0.1,0.2-0.2,0.3-0.4c0,0,0,0,0,0
		c0.1-0.1,0.2-0.3,0.2-0.4c0,0,0,0,0,0c0.1-0.1,0.1-0.3,0.1-0.4c0,0,0,0,0,0c0,0,0,0,0,0l0,0c0,0,0,0,0,0c0,0,0,0,0,0c0,0,0,0,0,0
		c0,0,0,0,0,0c0,0,0,0,0,0l0.1-0.4c0,0,0,0,0,0c0,0,0,0,0,0c0,0,0,0,0,0c0,0,0,0,0,0l0,0l0,0c0,0,0,0,0,0c0,0,0,0,0,0c0,0,0,0,0,0
		c0,0,0,0,0,0c0,0,0,0,0,0c0,0,0,0,0,0c0.1-0.6,0-1.2-0.3-1.7c-0.3-0.6-0.7-1.1-1.4-1.6c-0.6-0.5-1.4-0.9-2.2-1.3
		c-0.9-0.4-1.8-0.6-2.9-0.8c-0.1,0-0.2,0-0.3,0c-0.1,0-0.2,0-0.3,0c-0.1,0-0.2,0-0.3,0c-0.1,0-0.2,0-0.3,0l-3.8-5.5
		c0.1,0,0.1,0,0.2-0.1c0,0,0.1,0,0.1-0.1c0.1,0,0.2-0.1,0.2-0.1c0,0,0.1-0.1,0.1-0.1c0.1,0,0.1-0.1,0.2-0.1c0,0,0.1-0.1,0.1-0.1
		c0.1,0,0.1-0.1,0.2-0.1c0,0,0,0,0,0c0.1-0.1,0.2-0.2,0.2-0.2c0,0,0,0,0,0c0.1-0.1,0.1-0.2,0.2-0.3c0,0,0,0,0,0
		c0.1-0.1,0.1-0.2,0.2-0.3l0,0c0-0.1,0.1-0.2,0.1-0.3c0,0,0,0,0-0.1c0,0,0,0,0,0c0,0,0,0,0,0c0,0,0,0,0,0c0,0,0,0,0-0.1c0,0,0,0,0,0
		c0,0,0,0,0-0.1l0.1-0.4c0,0,0,0,0,0c0-0.1,0-0.2,0-0.3c0-0.2,0-0.4-0.1-0.6c-0.1-0.2-0.2-0.4-0.3-0.6c-0.1-0.1-0.2-0.2-0.3-0.3
		l6.2-3.3c0.1,0,0.2,0,0.2,0c0,0,0,0,0,0c0.1,0,0.1,0,0.2,0c0,0,0,0,0,0c0.1,0,0.1,0,0.2,0c0,0,0,0,0,0c0.1,0,0.2,0,0.3,0
		c0.4,0.1,0.7,0.1,1.1,0.1l0,0c0.4,0,0.7,0,1.1,0h0c0.3,0,0.7,0,1,0c0,0,0,0,0,0c0.3,0,0.6-0.1,0.9-0.1l0,0c0.2,0,0.5-0.1,0.7-0.1
		c0.1,0,0.2-0.1,0.3-0.1c0.2,0,0.3-0.1,0.5-0.1c0.1,0,0.2-0.1,0.3-0.1c0,0,0.1,0,0.1,0c0.2-0.1,0.3-0.2,0.5-0.2c0,0,0,0,0.1,0
		c0.2-0.1,0.3-0.2,0.4-0.3l10.3,1.5c0.1,0.1,0.2,0.2,0.3,0.3c0,0,0,0.1,0.1,0.1c0.1,0.1,0.2,0.2,0.3,0.3l0,0
		c0.1,0.1,0.3,0.2,0.4,0.3c0,0,0.1,0.1,0.1,0.1c0.1,0.1,0.3,0.2,0.4,0.3l0,0c0.2,0.1,0.3,0.2,0.5,0.3c0,0,0.1,0,0.1,0.1
		c0.1,0,0.2,0.1,0.3,0.1c0.2,0.1,0.4,0.2,0.6,0.3c0.1,0,0.2,0.1,0.2,0.1c0.3,0.1,0.6,0.2,0.9,0.3l0,0c0.3,0.1,0.7,0.2,1.1,0.3
		c0,0,0,0,0,0c0.4,0.1,0.7,0.2,1.1,0.2c0.2,0,0.5,0.1,0.7,0.1c0,0,0,0,0,0c0.2,0,0.5,0,0.7,0.1c0,0,0,0,0,0c0.2,0,0.4,0,0.7,0l0,0
		c0.2,0,0.4,0,0.6,0c0,0,0,0,0,0c0.2,0,0.4,0,0.6,0c0,0,0,0,0,0c0.2,0,0.4,0,0.6-0.1c0,0,0,0,0,0c0.2,0,0.4-0.1,0.5-0.1c0,0,0,0,0,0
		c0.1,0,0.2,0,0.2-0.1c0.2,0,0.4-0.1,0.6-0.2c0,0,0.1,0,0.1,0c0.2-0.1,0.4-0.1,0.6-0.2c0.1-0.1,0.2-0.1,0.3-0.2c0,0,0,0,0,0
		c0.1-0.1,0.2-0.1,0.3-0.2c0,0,0.1,0,0.1-0.1c0.1-0.1,0.1-0.1,0.2-0.2c0,0,0,0,0.1-0.1c0.1-0.1,0.1-0.2,0.2-0.2c0,0,0,0,0,0
		c0.1-0.1,0.1-0.2,0.2-0.3c0,0,0,0,0,0c0-0.1,0.1-0.2,0.1-0.3l0.1-0.4l0,0l0,0c0,0,0,0,0,0c0-0.1,0-0.2,0.1-0.3c0-0.2,0-0.4-0.1-0.6
		c-0.1-0.2-0.2-0.4-0.3-0.6c-0.1-0.2-0.3-0.4-0.5-0.6c-0.1-0.1-0.2-0.2-0.4-0.3l5-3.1h0c0.1,0,0.1,0,0.2,0l0,0c0.1,0,0.1,0,0.2,0
		c0,0,0,0,0,0c0.1,0,0.1,0,0.2,0l0,0c0.1,0,0.1,0,0.2,0c0.2,0,0.4,0.1,0.7,0.1c0,0,0,0,0,0c0.2,0,0.4,0,0.6,0c0,0,0,0,0,0
		c0.2,0,0.4,0,0.6,0c0,0,0,0,0,0c0.2,0,0.4,0,0.6,0h0c0.2,0,0.4,0,0.6,0c0,0,0,0,0,0c0.2,0,0.3,0,0.5-0.1c0,0,0,0,0,0
		c0.2,0,0.3,0,0.5-0.1c0,0,0,0,0,0c0.1,0,0.2,0,0.3-0.1c0.2,0,0.4-0.1,0.6-0.2l0,0c0.2-0.1,0.4-0.1,0.5-0.2c0,0,0.1,0,0.1-0.1
		c0.2-0.1,0.3-0.2,0.4-0.3c0.1-0.1,0.2-0.1,0.2-0.2c0,0,0,0,0.1-0.1c0.1-0.1,0.1-0.1,0.2-0.2c0,0,0,0,0,0c0.1-0.1,0.1-0.2,0.1-0.2
		c0,0,0,0,0,0c0-0.1,0.1-0.2,0.1-0.3l0.1-0.4C238.2,44.7,238.2,44.7,238.2,44.7C238.2,44.7,238.2,44.7,238.2,44.7z M198.4,24.4
		c0,0.1-0.1,0.1-0.1,0.2l0,0C198.4,24.5,198.4,24.5,198.4,24.4z M197.7,25.1C197.7,25.1,197.7,25.1,197.7,25.1
		C197.7,25.1,197.7,25.1,197.7,25.1c0,0-0.1,0.1-0.2,0.1C197.6,25.1,197.7,25.1,197.7,25.1z M69.9,63.4
		C69.9,63.4,69.9,63.4,69.9,63.4C69.9,63.4,69.9,63.3,69.9,63.4C69.9,63.4,69.9,63.4,69.9,63.4z M72.1,51.5
		C72.1,51.5,72.1,51.5,72.1,51.5C72.1,51.5,72.1,51.5,72.1,51.5C72.1,51.5,72.1,51.5,72.1,51.5z M73.7,51.9c-0.1,0-0.1,0-0.1,0
		C73.6,51.9,73.7,51.9,73.7,51.9C73.7,51.9,73.7,51.9,73.7,51.9C73.7,51.9,73.7,51.9,73.7,51.9z M83.8,91.5
		C83.8,91.5,83.8,91.5,83.8,91.5C83.8,91.5,83.8,91.5,83.8,91.5C83.8,91.5,83.8,91.5,83.8,91.5z M10,103.1L10,103.1L10,103.1
		C10,103.2,10,103.2,10,103.1C10,103.2,10,103.2,10,103.1z M10.9,104.1C10.9,104.1,10.9,104.1,10.9,104.1c-0.1-0.1-0.3-0.2-0.4-0.4
		C10.6,103.9,10.8,104,10.9,104.1C10.9,104.1,10.9,104.1,10.9,104.1z M13.2,105.1C13.2,105.1,13.2,105.1,13.2,105.1
		C13.2,105.1,13.2,105.1,13.2,105.1c0.1,0,0.1,0,0.2,0C13.3,105.1,13.3,105.1,13.2,105.1z M14.1,105.2
		C14.1,105.2,14.1,105.2,14.1,105.2c-0.1,0-0.2,0-0.3,0C13.9,105.2,14,105.2,14.1,105.2z M14,105.2C14,105.2,14,105.2,14,105.2
		C14.1,105.2,14.1,105.2,14,105.2C14.1,105.2,14.1,105.2,14,105.2C14,105.2,14,105.2,14,105.2z M172.4,146.5
		C172.4,146.5,172.4,146.5,172.4,146.5C172.4,146.5,172.4,146.5,172.4,146.5c-0.4,0-0.8,0-1.1-0.1
		C171.7,146.4,172.1,146.5,172.4,146.5z M184.7,102.6C184.7,102.6,184.7,102.6,184.7,102.6C184.7,102.6,184.7,102.6,184.7,102.6
		C184.7,102.6,184.7,102.6,184.7,102.6z M192.5,72.6C192.5,72.6,192.5,72.6,192.5,72.6c-0.2,0-0.5,0-0.8,0
		C192,72.6,192.2,72.6,192.5,72.6z M227.2,35.2C227.2,35.2,227.2,35.2,227.2,35.2C227.2,35.2,227.2,35.2,227.2,35.2
		C227.2,35.2,227.2,35.2,227.2,35.2z M226.9,35.6C226.9,35.6,226.9,35.6,226.9,35.6L226.9,35.6L226.9,35.6z M187.5,22.7
		C187.5,22.7,187.5,22.7,187.5,22.7C187.5,22.7,187.5,22.7,187.5,22.7C187.5,22.7,187.5,22.7,187.5,22.7
		C187.5,22.7,187.5,22.7,187.5,22.7z M166.2,28.1c0.2-0.1,0.4-0.2,0.6-0.3c0.2-0.1,0.3-0.2,0.5-0.3c0.1-0.1,0.2-0.2,0.3-0.4
		c0.1-0.1,0.1-0.3,0.1-0.4c0-0.1,0-0.3,0-0.4c0-0.1-0.1-0.3-0.2-0.4c-0.1-0.1-0.2-0.2-0.3-0.4l5.6-2.2c0.1,0,0.1,0,0.2,0
		c0.1,0,0.1,0,0.2,0c0.1,0,0.1,0,0.2,0c0.1,0,0.1,0,0.2,0c0.6,0.1,1.2,0.1,1.7,0.1c0.6,0,1.1,0,1.6-0.1c0.5-0.1,1-0.2,1.4-0.3
		c0.4-0.1,0.8-0.3,1.1-0.4l8.1,1c0.1,0.2,0.3,0.4,0.6,0.7c0.3,0.2,0.6,0.4,1,0.6c0.4,0.2,0.9,0.3,1.4,0.5c0.5,0.1,1.1,0.2,1.7,0.3
		c0.1,0,0.1,0,0.2,0c0.1,0,0.1,0,0.2,0c0.1,0,0.1,0,0.2,0c0.1,0,0.1,0,0.2,0l3.3,3.5c-0.2,0.1-0.4,0.2-0.6,0.3
		c-0.2,0.1-0.4,0.2-0.5,0.3c-0.1,0.1-0.3,0.2-0.4,0.4c-0.1,0.1-0.2,0.3-0.2,0.4c0,0.1-0.1,0.3,0,0.4c0,0.1,0.1,0.3,0.1,0.4
		c0.1,0.1,0.2,0.3,0.3,0.4c0.1,0.1,0.3,0.3,0.4,0.4l-5.6,2.6c-0.1,0-0.1,0-0.2,0c-0.1,0-0.1,0-0.2,0c-0.1,0-0.2,0-0.2,0
		c-0.1,0-0.2,0-0.2,0c-0.6-0.1-1.3-0.1-1.9-0.1c-0.6,0-1.2,0-1.8,0.1c-0.5,0.1-1.1,0.2-1.5,0.3c-0.5,0.1-0.8,0.3-1.2,0.5l-8.9-1.2
		c-0.1-0.3-0.3-0.5-0.6-0.8c-0.3-0.2-0.6-0.5-1-0.7c-0.4-0.2-0.9-0.4-1.4-0.5c-0.5-0.2-1.1-0.3-1.7-0.4c-0.1,0-0.1,0-0.2,0
		c-0.1,0-0.1,0-0.2,0c-0.1,0-0.1,0-0.2,0c-0.1,0-0.1,0-0.2,0l-2.5-3.6C165.8,28.3,166,28.2,166.2,28.1z M181.8,36.3
		C181.8,36.3,181.8,36.3,181.8,36.3L181.8,36.3C181.8,36.3,181.8,36.3,181.8,36.3z M181.6,36.8C181.6,36.8,181.6,36.8,181.6,36.8
		C181.6,36.8,181.6,36.8,181.6,36.8C181.6,36.8,181.6,36.8,181.6,36.8z M133.4,31.1c0.2-0.1,0.5-0.2,0.7-0.3
		c0.2-0.1,0.4-0.2,0.6-0.4c0.2-0.1,0.3-0.3,0.4-0.4c0.1-0.1,0.2-0.3,0.3-0.4c0.1-0.1,0.1-0.3,0.1-0.4c0-0.1,0-0.3-0.1-0.4
		c-0.1-0.1-0.1-0.3-0.2-0.4l6.4-2.4c0.1,0,0.1,0,0.2,0c0.1,0,0.1,0,0.2,0c0.1,0,0.1,0,0.2,0c0.1,0,0.1,0,0.2,0
		c0.6,0.1,1.2,0.1,1.7,0.1c0.6,0,1.1,0,1.7-0.1c0.5-0.1,1-0.2,1.5-0.3c0.5-0.1,0.9-0.3,1.2-0.5l7.9,1c0,0.2,0.2,0.5,0.4,0.7
		c0.2,0.2,0.5,0.4,0.9,0.6c0.4,0.2,0.8,0.4,1.3,0.5c0.5,0.1,1.1,0.3,1.7,0.3c0.1,0,0.1,0,0.2,0c0.1,0,0.1,0,0.2,0c0.1,0,0.1,0,0.2,0
		s0.1,0,0.2,0l2.4,3.6c-0.3,0.1-0.5,0.2-0.7,0.3c-0.2,0.1-0.4,0.2-0.6,0.3c-0.2,0.1-0.3,0.2-0.5,0.4c-0.1,0.1-0.3,0.3-0.3,0.4
		c0,0.1-0.1,0.1-0.1,0.2c0,0.1,0,0.1-0.1,0.2c0,0.1,0,0.1,0,0.2c0,0.1,0,0.1,0,0.2c0,0.1,0,0.2,0,0.3c0,0.1,0.1,0.2,0.1,0.3
		c0,0.1,0.1,0.2,0.2,0.3c0.1,0.1,0.1,0.2,0.2,0.3l-6.4,2.7c-0.1,0-0.1,0-0.2,0c-0.1,0-0.1,0-0.2,0c-0.1,0-0.1,0-0.2,0
		c-0.1,0-0.1,0-0.2,0c-0.6-0.1-1.3-0.1-1.9-0.1c-0.6,0-1.2,0-1.8,0.1c-0.6,0.1-1.1,0.2-1.6,0.4c-0.5,0.2-1,0.3-1.4,0.6l-8.8-1.3
		c0-0.3-0.2-0.6-0.4-0.8c-0.2-0.3-0.5-0.5-0.9-0.7c-0.4-0.2-0.8-0.4-1.3-0.6c-0.5-0.2-1-0.3-1.7-0.4c-0.1,0-0.1,0-0.2,0
		c-0.1,0-0.1,0-0.2,0c-0.1,0-0.1,0-0.2,0c-0.1,0-0.1,0-0.2,0l-1.6-3.8C132.9,31.3,133.1,31.2,133.4,31.1z M152.1,43.9L152.1,43.9
		C152.1,43.9,152.1,43.9,152.1,43.9C152.1,43.9,152.1,43.9,152.1,43.9L152.1,43.9C152.1,43.9,152.1,43.9,152.1,43.9
		C152.1,43.9,152.1,43.9,152.1,43.9z M148.3,42.9C148.3,42.9,148.3,42.9,148.3,42.9C148.3,42.9,148.3,42.9,148.3,42.9
		C148.3,42.9,148.3,42.9,148.3,42.9z M134.6,40.7c0.1,0,0.2,0,0.2,0C134.7,40.7,134.6,40.7,134.6,40.7
		C134.6,40.7,134.6,40.7,134.6,40.7C134.6,40.7,134.6,40.7,134.6,40.7z M131.8,35.2L131.8,35.2L131.8,35.2L131.8,35.2L131.8,35.2z
		 M130.8,35.4C130.8,35.4,130.8,35.4,130.8,35.4C130.8,35.4,130.8,35.4,130.8,35.4C130.8,35.4,130.8,35.4,130.8,35.4z M130.1,41
		c0.1,0,0.1,0,0.2,0c0,0,0,0,0,0c0.1,0,0.1,0,0.2,0c0,0,0,0,0,0c0.1,0,0.1,0,0.2,0c0.3,0,0.6,0.1,1,0.1l0,0c0.3,0,0.6,0,1,0
		c0,0,0,0,0,0c0.3,0,0.6,0,0.9,0l0,0c0.3,0,0.6-0.1,0.9-0.1l0,0c0.2,0,0.5-0.1,0.7-0.1c0.1,0,0.2,0,0.3-0.1c0.2,0,0.3-0.1,0.5-0.1
		c0.1,0,0.2-0.1,0.3-0.1c0.2-0.1,0.3-0.1,0.5-0.2c0.1,0,0.2-0.1,0.2-0.1c0.2-0.1,0.4-0.2,0.6-0.3l8.9,1.3c0,0.1,0,0.2,0.1,0.3
		c0,0,0,0,0,0.1c0,0.1,0.1,0.2,0.2,0.3l0,0c0.1,0.1,0.1,0.2,0.2,0.3c0,0,0,0,0.1,0.1c0.1,0.1,0.2,0.2,0.3,0.3c0,0,0,0,0,0
		c0.1,0.1,0.2,0.2,0.3,0.3c0,0,0.1,0,0.1,0.1c0.1,0.1,0.3,0.2,0.4,0.2c0,0,0,0,0,0c0.1,0.1,0.3,0.1,0.5,0.2c0,0,0.1,0,0.1,0.1
		c0.2,0.1,0.3,0.1,0.5,0.2c0.3,0.1,0.6,0.2,0.9,0.2c0,0,0,0,0,0c0.3,0.1,0.6,0.1,0.9,0.2c0.1,0,0.2,0,0.2,0l0,0c0.1,0,0.1,0,0.2,0
		c0,0,0,0,0,0c0.1,0,0.1,0,0.2,0c0.1,0,0.2,0,0.2,0l2.2,4.3c-0.2,0.1-0.5,0.2-0.7,0.3c-0.3,0.1-0.5,0.3-0.7,0.4
		c-0.2,0.2-0.4,0.3-0.6,0.5c-0.2,0.2-0.3,0.4-0.4,0.6c-0.1,0.2-0.2,0.4-0.2,0.6c0,0.1,0,0.3,0,0.4c0,0,0,0,0-0.1l0,0.4
		c0,0.1,0,0.2,0,0.4c0,0.1,0.1,0.2,0.1,0.4c0,0.1,0.1,0.2,0.2,0.3c0,0,0,0,0,0l-7.3,3.5c-0.1,0-0.2,0-0.2-0.1c-0.1,0-0.2,0-0.2-0.1
		c-0.1,0-0.2,0-0.3-0.1c-0.1,0-0.2,0-0.3,0c-0.7-0.1-1.5-0.2-2.2-0.2c-0.7,0-1.4,0.1-2.1,0.2c-0.7,0.1-1.3,0.3-1.9,0.5
		c-0.6,0.2-1.1,0.5-1.6,0.8l-9.8-1.7l0-0.1v0v0c0,0,0,0,0,0c0,0,0,0,0,0v0c0,0,0,0,0,0c0,0,0,0,0,0c0,0,0,0,0,0c0,0,0,0,0,0v0
		c0,0,0,0,0,0c0,0,0,0,0,0v0v0c0,0,0,0,0,0c0-0.4-0.1-0.7-0.3-1.1c-0.2-0.3-0.5-0.7-0.9-0.9c-0.4-0.3-0.9-0.5-1.4-0.7
		c-0.5-0.2-1.2-0.4-1.9-0.5c-0.1,0-0.2,0-0.3,0c-0.1,0-0.2,0-0.3,0c-0.1,0-0.2,0-0.3,0c-0.1,0-0.2,0-0.3,0l-1.2-4.5
		c0.3-0.1,0.6-0.2,0.8-0.3c0.1,0,0.1-0.1,0.2-0.1c0.1,0,0.2-0.1,0.2-0.1c0.1,0,0.1-0.1,0.2-0.1c0.1,0,0.2-0.1,0.2-0.1c0,0,0,0,0,0
		c0.1-0.1,0.2-0.1,0.3-0.2c0,0,0,0,0,0c0.1-0.1,0.2-0.1,0.3-0.2l0,0c0.1-0.1,0.2-0.2,0.3-0.2c0,0,0,0,0,0c0.1-0.1,0.2-0.2,0.2-0.3
		c0.1-0.1,0.2-0.2,0.2-0.3c0,0,0,0,0,0c0.1-0.1,0.1-0.2,0.2-0.3c0,0,0,0,0,0c0-0.1,0.1-0.2,0.1-0.3c0,0,0,0,0,0c0-0.1,0-0.2,0-0.3
		l0-0.4c0,0,0,0,0,0c0,0,0,0,0,0c0,0,0,0,0,0c0,0,0,0.1,0,0.1c0,0,0,0.1,0,0.1c0,0,0,0,0,0c0-0.2,0-0.3,0-0.5c0-0.1,0-0.1-0.1-0.2
		l7.3-3C129.9,40.9,130,40.9,130.1,41C130.1,41,130.1,41,130.1,41z M152.7,53.2C152.7,53.2,152.7,53.2,152.7,53.2L152.7,53.2
		L152.7,53.2z M152.4,52.9c-0.1-0.1-0.1-0.2-0.2-0.2l0,0C152.2,52.7,152.3,52.8,152.4,52.9C152.4,52.9,152.4,52.9,152.4,52.9z
		 M145,69.1L145,69.1C145,69.1,145,69.1,145,69.1C145,69.1,145,69.1,145,69.1z M144.3,69.2C144.3,69.2,144.3,69.2,144.3,69.2
		C144.3,69.2,144.3,69.2,144.3,69.2L144.3,69.2C144.3,69.2,144.3,69.2,144.3,69.2z M134.5,58.5L134.5,58.5L134.5,58.5z M120.2,47
		c-0.3,0.1-0.6,0.2-0.9,0.3C119.6,47.2,119.9,47.1,120.2,47L120.2,47z M120.6,46.8C120.6,46.8,120.6,46.8,120.6,46.8
		C120.6,46.8,120.6,46.8,120.6,46.8c-0.1,0-0.2,0.1-0.3,0.1C120.4,46.9,120.5,46.8,120.6,46.8z M120.7,46.7c0.1,0,0.2-0.1,0.2-0.1
		c0,0,0,0,0,0c0,0,0,0,0,0C120.9,46.6,120.8,46.7,120.7,46.7z M122.4,45.3L122.4,45.3C122.4,45.3,122.4,45.3,122.4,45.3
		C122.4,45.3,122.4,45.3,122.4,45.3C122.4,45.3,122.4,45.3,122.4,45.3z M122.6,45L122.6,45L122.6,45L122.6,45z M122.7,44.6
		C122.7,44.6,122.6,44.6,122.7,44.6C122.6,44.6,122.6,44.6,122.7,44.6C122.6,44.6,122.7,44.6,122.7,44.6z M123.8,29
		C123.8,29,123.8,29,123.8,29C123.8,29,123.8,29,123.8,29C123.8,29,123.8,29,123.8,29C123.8,29,123.8,29,123.8,29L123.8,29
		C123.8,29,123.8,29,123.8,29L123.8,29L123.8,29L123.8,29C123.8,29,123.8,29,123.8,29z M123.7,29.2L123.7,29.2L123.7,29.2
		L123.7,29.2C123.7,29.2,123.7,29.2,123.7,29.2L123.7,29.2C123.7,29.2,123.7,29.2,123.7,29.2z M98.8,34.3c0.3-0.1,0.6-0.2,0.8-0.3
		c0.3-0.1,0.5-0.2,0.7-0.4c0.2-0.1,0.4-0.3,0.6-0.4c0.2-0.2,0.3-0.3,0.4-0.5c0.1-0.2,0.2-0.3,0.2-0.4c0-0.1,0-0.3,0-0.4
		c0-0.1-0.1-0.3-0.1-0.4l7.2-2.5c0.1,0,0.1,0,0.2,0c0.1,0,0.1,0,0.2,0c0.1,0,0.1,0,0.2,0s0.1,0,0.2,0c0.6,0.1,1.1,0.1,1.7,0.1
		c0.6,0,1.2,0,1.7-0.1c0.6-0.1,1.1-0.2,1.6-0.3c0.5-0.1,1-0.3,1.4-0.5l7.9,1.1c0,0.2,0.1,0.5,0.2,0.7c0.2,0.2,0.4,0.4,0.7,0.6
		c0.3,0.2,0.7,0.4,1.2,0.5c0.5,0.1,1,0.3,1.6,0.4c0.1,0,0.1,0,0.2,0l0,0c0.1,0,0.1,0,0.2,0l0,0c0,0,0,0,0,0l0,0c0,0,0,0,0,0
		c0,0,0,0,0,0c0,0,0,0,0,0c0,0,0,0,0,0c0,0,0.1,0,0.1,0c0,0,0,0,0.1,0c0,0,0,0,0,0c0,0,0,0,0,0l0,0c0.1,0,0.1,0,0.2,0l1.4,3.8
		c-0.3,0.1-0.6,0.2-0.8,0.3c-0.3,0.1-0.5,0.2-0.7,0.3c-0.2,0.1-0.4,0.3-0.6,0.4c-0.2,0.1-0.3,0.3-0.5,0.4c-0.1,0.2-0.2,0.3-0.3,0.5
		c-0.1,0.2-0.1,0.3-0.1,0.5c0,0.2,0,0.3,0.1,0.5c0,0.2,0.1,0.3,0.2,0.5l-7.4,2.9c-0.1,0-0.1,0-0.2,0c-0.1,0-0.1,0-0.2,0
		c-0.1,0-0.1,0-0.2,0c-0.1,0-0.1,0-0.2,0c-0.6-0.1-1.3-0.1-1.9-0.1c-0.6,0-1.3,0-1.9,0.1c-0.6,0.1-1.2,0.2-1.8,0.4
		c-0.6,0.2-1.1,0.4-1.6,0.6l-8.7-1.4c0.1-0.3,0-0.6-0.1-0.9c-0.1-0.3-0.4-0.5-0.7-0.8c-0.3-0.2-0.7-0.4-1.2-0.6
		c-0.5-0.2-1-0.3-1.6-0.4c-0.1,0-0.1,0-0.2,0c-0.1,0-0.1,0-0.2,0c-0.1,0-0.1,0-0.2,0c-0.1,0-0.1,0-0.2,0l-0.5-4
		C98.2,34.5,98.5,34.4,98.8,34.3z M109.8,44L109.8,44L109.8,44C109.8,44,109.8,44,109.8,44z M96,38.6L96,38.6L96,38.6L96,38.6z
		 M91.2,34.6C91.2,34.6,91.2,34.6,91.2,34.6C91.2,34.6,91.2,34.6,91.2,34.6C91.2,34.6,91.2,34.6,91.2,34.6z M89.8,42.6L89.8,42.6
		L89.8,42.6L89.8,42.6z M91.1,66.4C91.1,66.4,91.1,66.4,91.1,66.4C91.1,66.4,91.1,66.4,91.1,66.4C91.1,66.4,91.1,66.4,91.1,66.4z
		 M91.2,64.1C91.2,64.1,91.2,64.1,91.2,64.1C91.2,64.1,91.2,64.1,91.2,64.1C91.2,64.1,91.2,64.1,91.2,64.1
		C91.2,64.1,91.2,64.1,91.2,64.1C91.2,64.1,91.2,64.1,91.2,64.1C91.2,64.1,91.2,64.1,91.2,64.1C91.2,64.1,91.2,64.1,91.2,64.1
		C91.2,64.1,91.2,64.1,91.2,64.1z M91.3,66.6C91.3,66.6,91.3,66.6,91.3,66.6C91.3,66.6,91.3,66.6,91.3,66.6
		C91.3,66.6,91.3,66.6,91.3,66.6z M84,60.3l-0.1,0c0.1-0.4,0.1-0.8,0-1.1c-0.1-0.4-0.3-0.7-0.6-1c-0.3-0.3-0.7-0.6-1.2-0.8
		c-0.5-0.2-1.1-0.4-1.8-0.5c-0.1,0-0.2,0-0.2,0c-0.1,0-0.2,0-0.3,0c-0.1,0-0.2,0-0.3,0c-0.1,0-0.2,0-0.3,0l0.2-5.2
		c0.4-0.1,0.7-0.2,1.1-0.4c0.3-0.1,0.7-0.3,1-0.4c0.3-0.2,0.6-0.3,0.9-0.5c0.3-0.2,0.5-0.4,0.7-0.6c0.2-0.2,0.4-0.4,0.5-0.6
		c0.1-0.2,0.2-0.4,0.3-0.6c0.1-0.2,0.1-0.4,0.1-0.6c0-0.2,0-0.4-0.1-0.5l8.4-3.1c0.1,0,0.1,0,0.2,0c0.1,0,0.1,0,0.2,0
		c0.1,0,0.1,0,0.2,0c0.1,0,0.1,0,0.2,0c0.6,0.1,1.3,0.2,1.9,0.2c0.7,0,1.3,0,2-0.1c0.7-0.1,1.3-0.2,1.9-0.4c0.6-0.2,1.1-0.4,1.6-0.6
		l8.8,1.4c0,0.3,0,0.6,0.2,0.9c0.2,0.3,0.4,0.6,0.7,0.8c0.3,0.3,0.8,0.5,1.3,0.7c0.5,0.2,1.1,0.3,1.7,0.5c0.1,0,0.2,0,0.2,0
		c0.1,0,0.2,0,0.2,0c0.1,0,0.2,0,0.2,0c0.1,0,0.2,0,0.2,0l1.1,4.9c-0.3,0.1-0.7,0.2-1,0.4c-0.3,0.1-0.6,0.3-0.9,0.4
		c-0.3,0.2-0.5,0.3-0.7,0.5c-0.2,0.2-0.4,0.4-0.6,0.6c-0.1,0.1-0.2,0.3-0.3,0.4c0,0,0,0.1-0.1,0.1c0,0-0.1,0.1-0.1,0.1
		c0,0.1,0,0.1-0.1,0.2c0,0,0,0.1,0,0.1l0,0c0,0,0-0.1,0-0.1c0,0,0,0.1,0,0.1l0,0c0,0.1-0.1,0.2-0.1,0.4c0,0,0,0,0,0c0,0,0,0.1,0,0.1
		c0,0.1,0,0.2,0,0.3c0,0,0,0.1,0,0.1c0,0,0,0,0,0c0,0,0,0,0,0c0,0,0,0,0,0l0,0c0,0.1,0,0.1,0.1,0.2c0,0,0,0,0,0.1c0,0,0,0,0,0
		c0,0,0,0,0,0c0,0.1,0.1,0.2,0.1,0.2c0,0,0,0,0,0l-8.9,3.8c-0.1,0-0.2,0-0.2-0.1c-0.1,0-0.2,0-0.2-0.1c-0.1,0-0.2,0-0.2-0.1
		c-0.1,0-0.2,0-0.3,0c-0.7-0.1-1.5-0.2-2.2-0.2c-0.7,0-1.5,0.1-2.2,0.2c-0.7,0.1-1.5,0.3-2.1,0.5c-0.7,0.2-1.3,0.5-1.9,0.8L84,60.3z
		 M104.5,61.6C104.5,61.6,104.5,61.6,104.5,61.6C104.5,61.6,104.5,61.6,104.5,61.6C104.5,61.6,104.5,61.6,104.5,61.6z M103.5,61.1
		C103.5,61.1,103.5,61.1,103.5,61.1C103.5,61.1,103.5,61.1,103.5,61.1C103.5,61.1,103.5,61.1,103.5,61.1z M111.9,57.1L111.9,57.1
		C111.9,57.1,111.9,57.1,111.9,57.1C111.9,57.1,111.9,57.1,111.9,57.1z M111.9,55.1L111.9,55.1c0,0,0-0.1,0.1-0.1
		C112,55.1,112,55.1,111.9,55.1z M93.3,68.2C93.3,68.2,93.3,68.2,93.3,68.2C93.3,68.2,93.3,68.1,93.3,68.2
		C93.3,68.1,93.3,68.2,93.3,68.2z M93.4,68.2C93.4,68.2,93.3,68.2,93.4,68.2C93.3,68.2,93.3,68.2,93.4,68.2
		C93.4,68.2,93.4,68.2,93.4,68.2C93.4,68.2,93.4,68.2,93.4,68.2z M95.3,68.7C95.3,68.7,95.3,68.7,95.3,68.7c0.1,0,0.1,0,0.2,0
		C95.4,68.7,95.3,68.7,95.3,68.7z M96,68.8C96,68.8,96,68.8,96,68.8C96,68.8,96,68.8,96,68.8C96,68.8,96,68.8,96,68.8z M96,68.8
		c-0.1,0-0.2,0-0.3,0C95.9,68.8,96,68.8,96,68.8C96,68.8,96,68.8,96,68.8z M97.4,84.6L97.4,84.6c0.2,0,0.4,0,0.6,0
		C97.8,84.7,97.6,84.7,97.4,84.6z M101.2,84.5C101.2,84.5,101.2,84.5,101.2,84.5C101.2,84.5,101.2,84.5,101.2,84.5
		c0.1,0,0.2,0,0.3-0.1C101.4,84.4,101.3,84.5,101.2,84.5z M118.3,82.7C118.3,82.7,118.3,82.7,118.3,82.7
		C118.3,82.7,118.3,82.7,118.3,82.7C118.3,82.7,118.3,82.7,118.3,82.7L118.3,82.7z M121.4,89.7L121.4,89.7
		C121.4,89.7,121.4,89.7,121.4,89.7C121.4,89.7,121.4,89.7,121.4,89.7L121.4,89.7z M122.9,90.1C122.9,90.1,122.9,90.1,122.9,90.1
		C122.9,90.1,122.9,90.1,122.9,90.1C122.9,90.1,122.9,90.1,122.9,90.1z M121.7,80.5c-0.7,0.3-1.4,0.6-2,1l-11.3-2.3l-0.1,0
		c0-0.5,0-1-0.2-1.4c-0.2-0.4-0.5-0.9-0.9-1.2c-0.4-0.4-0.9-0.7-1.5-1c-0.6-0.3-1.3-0.5-2.1-0.7c-0.1,0-0.2,0-0.3-0.1
		c-0.1,0-0.2,0-0.3,0c-0.1,0-0.2,0-0.3,0c-0.1,0-0.2,0-0.3,0l-0.8-6.6c0.4-0.1,0.8-0.3,1.1-0.4c0.4-0.2,0.7-0.3,1-0.5
		c0.3-0.2,0.6-0.4,0.9-0.6c0.3-0.2,0.5-0.4,0.7-0.7c0.2-0.2,0.3-0.5,0.5-0.7c0.1-0.2,0.2-0.5,0.2-0.7c0-0.2,0.1-0.5,0-0.7
		c0-0.2-0.1-0.4-0.2-0.6l9-4c0.1,0,0.1,0,0.2,0.1c0.1,0,0.2,0,0.2,0.1c0.1,0,0.2,0,0.2,0c0.1,0,0.2,0,0.2,0c0.7,0.1,1.4,0.2,2.2,0.2
		c0.7,0,1.5-0.1,2.2-0.2c0.7-0.1,1.4-0.3,2-0.5c0.6-0.2,1.2-0.5,1.7-0.7l10.1,1.8c0,0.4,0.2,0.8,0.4,1.1c0.2,0.4,0.6,0.7,1,1
		c0.4,0.3,0.9,0.6,1.5,0.8c0.6,0.2,1.3,0.4,2,0.6c0.1,0,0.2,0,0.3,0c0.1,0,0.2,0,0.3,0c0.1,0,0.2,0,0.3,0c0.1,0,0.2,0,0.3,0l2.3,6.2
		c-0.4,0.1-0.7,0.3-1,0.5c-0.3,0.2-0.6,0.4-0.9,0.6c-0.3,0.2-0.5,0.4-0.7,0.6c-0.2,0.2-0.4,0.5-0.6,0.7c-0.2,0.3-0.3,0.5-0.3,0.8
		c-0.1,0.3-0.1,0.5-0.1,0.8c0,0.3,0.1,0.5,0.1,0.8c0.1,0.3,0.2,0.5,0.4,0.8l-9.2,4.9c-0.1,0-0.2-0.1-0.3-0.1c-0.1,0-0.2,0-0.3-0.1
		c-0.1,0-0.2,0-0.3-0.1c-0.1,0-0.2,0-0.3-0.1c-0.8-0.2-1.7-0.2-2.5-0.2c-0.8,0-1.7,0.1-2.5,0.2C123.1,80,122.4,80.2,121.7,80.5z
		 M123.7,90.2C123.7,90.2,123.7,90.2,123.7,90.2C123.7,90.2,123.7,90.2,123.7,90.2C123.7,90.2,123.7,90.2,123.7,90.2z M124.6,90.3
		c-0.3,0-0.6,0-0.8-0.1c0,0,0,0,0,0c0,0,0,0,0,0c0,0,0,0,0,0c-0.1,0-0.2,0-0.3,0c0.1,0,0.2,0,0.3,0
		C124.1,90.3,124.4,90.3,124.6,90.3L124.6,90.3z M124.7,90.3L124.7,90.3c0.3,0,0.5,0,0.8,0C125.2,90.3,124.9,90.3,124.7,90.3z
		 M107.9,139.1C107.9,139.1,107.9,139.1,107.9,139.1C107.9,139.1,107.9,139.1,107.9,139.1C107.9,139.1,107.9,139.1,107.9,139.1
		C107.9,139.1,107.9,139.1,107.9,139.1C107.9,139.1,107.9,139.1,107.9,139.1C107.9,139.1,107.9,139.1,107.9,139.1z M106.6,127.5
		C106.6,127.5,106.6,127.5,106.6,127.5c-0.2,0.1-0.4,0.1-0.6,0.2C106.2,127.6,106.4,127.5,106.6,127.5z M102.7,128.1L102.7,128.1
		c-0.1,0-0.3,0-0.4,0c0,0-0.1,0-0.1,0C102.4,128.1,102.5,128.1,102.7,128.1z M66.3,90.9L66.3,90.9C66.3,90.9,66.3,90.9,66.3,90.9
		C66.3,90.9,66.3,90.9,66.3,90.9C66.3,90.9,66.3,90.9,66.3,90.9L66.3,90.9L66.3,90.9z M66,91.4C66,91.4,66,91.4,66,91.4
		C66,91.4,66,91.4,66,91.4L66,91.4z M58.6,85.1C58.6,85.1,58.6,85.1,58.6,85.1c0,0.1-0.1,0.3-0.1,0.4C58.5,85.4,58.5,85.3,58.6,85.1
		z M34.9,138.6c-0.1,0-0.2,0-0.3-0.1C34.7,138.5,34.8,138.6,34.9,138.6C34.9,138.6,34.9,138.6,34.9,138.6z M28.2,172.9
		C28.2,172.9,28.2,172.9,28.2,172.9C28.2,172.9,28.2,172.9,28.2,172.9c0.1,0,0.2,0,0.3,0C28.4,172.9,28.3,172.9,28.2,172.9z
		 M29.1,173C29.1,173,29.1,173,29.1,173C29.1,173,29.1,173,29.1,173C29.1,173,29.1,173,29.1,173z M38.6,123.1
		c-1.1,0.4-2.1,1-3.1,1.6c-0.2,0.1-0.3,0.2-0.5,0.3c0.2-0.1,0.3-0.2,0.5-0.3l-12.3-3.5l-0.4-0.1c0.4-0.8,0.6-1.5,0.6-2.2
		c0.1-0.7-0.1-1.4-0.3-1.9c-0.3-0.6-0.7-1.1-1.3-1.5c-0.6-0.4-1.3-0.8-2.2-1c-0.1,0-0.2-0.1-0.3-0.1c-0.1,0-0.2,0-0.3-0.1
		c-0.1,0-0.2,0-0.3-0.1c-0.1,0-0.2,0-0.3,0l3.2-10c0.6-0.2,1.1-0.4,1.6-0.7c0.5-0.2,1.1-0.5,1.6-0.8c0.5-0.3,1-0.6,1.4-0.9
		c0.4-0.3,0.9-0.7,1.3-1c0.4-0.4,0.7-0.7,1-1.1c0.3-0.4,0.5-0.7,0.7-1c0.2-0.3,0.3-0.7,0.4-1c0.1-0.3,0.2-0.7,0.2-1L43,90.9
		c0.1,0,0.2,0.1,0.2,0.1c0.1,0,0.2,0.1,0.3,0.1c0.1,0,0.2,0.1,0.3,0.1c0.1,0,0.2,0,0.3,0.1c0.8,0.2,1.7,0.3,2.6,0.3
		c0.9,0,1.8-0.1,2.7-0.3c0.9-0.2,1.8-0.4,2.7-0.7c0.9-0.3,1.7-0.7,2.5-1.1l11.2,2.6c-0.2,0.6-0.3,1.2-0.2,1.7
		c0.1,0.5,0.3,1.1,0.6,1.5c0.3,0.5,0.8,0.9,1.4,1.2c0.6,0.4,1.3,0.6,2.2,0.8c0.1,0,0.2,0,0.3,0.1c0.1,0,0.2,0,0.3,0.1
		c0.1,0,0.2,0,0.3,0c0.1,0,0.2,0,0.3,0l-0.6,9.3c-0.5,0.2-1,0.4-1.5,0.7c-0.5,0.3-0.9,0.5-1.4,0.8c-0.4,0.3-0.9,0.6-1.2,1
		c-0.4,0.3-0.8,0.7-1.1,1.1c-0.2,0.2-0.3,0.4-0.5,0.6c0,0,0,0,0,0c0,0,0,0.1-0.1,0.1c0,0,0,0.1-0.1,0.1c-0.1,0.1-0.2,0.2-0.2,0.4
		c0,0,0,0,0,0c0,0,0,0,0,0c0,0,0,0,0,0c0,0,0,0,0,0c0,0.1-0.1,0.2-0.1,0.2c-0.1,0.1-0.1,0.2-0.2,0.4c0,0,0,0,0,0c0,0,0,0,0,0
		c0,0,0,0,0,0s0,0,0,0l0,0c0,0.1-0.1,0.2-0.1,0.2c0,0.1-0.1,0.2-0.1,0.3c0,0,0,0,0,0c0,0.1-0.1,0.2-0.1,0.3c0,0.1-0.1,0.2-0.1,0.3
		l0,0c0,0.1,0,0.2,0,0.3c0,0.1,0,0.2-0.1,0.3l0,0c0,0,0,0,0,0c0,0,0,0,0,0c0,0.1,0,0.2,0,0.3c0,0.1,0,0.2,0,0.3c0,0,0,0,0,0
		c0,0,0,0,0,0c0,0.1,0,0.1,0,0.2c0,0.1,0,0.2,0,0.3c0,0,0,0,0,0l0,0l-14.4,7.6c-0.1,0-0.2-0.1-0.3-0.1s-0.2-0.1-0.3-0.1
		c-0.1,0-0.2-0.1-0.3-0.1c-0.1,0-0.2-0.1-0.3-0.1c-0.9-0.3-1.9-0.4-3-0.4c-1,0-2.1,0.1-3.2,0.3C40.7,122.4,39.6,122.7,38.6,123.1z
		 M66.3,118.8C66.3,118.8,66.3,118.8,66.3,118.8L66.3,118.8L66.3,118.8z M63.9,112.7c0.1-0.2,0.1-0.3,0.2-0.5c0,0,0,0,0,0
		C64,112.4,64,112.6,63.9,112.7z M65.1,117.9c0.2,0.1,0.3,0.3,0.5,0.4C65.5,118.2,65.3,118.1,65.1,117.9L65.1,117.9L65.1,117.9z
		 M49.9,123C49.9,123,49.9,123,49.9,123C49.9,123,49.9,123,49.9,123C49.9,123,49.9,123,49.9,123z M58.2,173
		C58.2,173,58.2,173,58.2,173L58.2,173L58.2,173z M69.4,185.9C69.4,185.9,69.4,185.9,69.4,185.9C69.4,185.9,69.4,185.9,69.4,185.9
		C69.4,185.9,69.4,185.9,69.4,185.9z M95.3,147.3c-0.2,0.6-0.4,1.1-0.4,1.7c-0.1,0.6-0.1,1.1-0.1,1.7c0,0.6,0.1,1.1,0.2,1.6
		c0,0,0,0,0,0c0,0,0,0,0,0v0v0l0,0l0,0l-5,3.4l-10.5,7.1c-0.1-0.1-0.2-0.1-0.4-0.2c-0.1-0.1-0.3-0.1-0.4-0.2
		c-0.1-0.1-0.3-0.1-0.4-0.2c-0.1,0-0.3-0.1-0.4-0.1c-1.2-0.4-2.4-0.5-3.6-0.5c-1.2,0-2.5,0.2-3.8,0.5c-1.3,0.3-2.5,0.8-3.7,1.4
		c-1.2,0.6-2.4,1.4-3.4,2.3L48,160.9c0-0.1,0.1-0.2,0.1-0.3c0,0,0,0,0-0.1c0.1-0.2,0.1-0.4,0.1-0.7c0,0,0,0,0,0
		c0-0.2,0.1-0.4,0.1-0.7c0,0,0,0,0-0.1c0-0.2,0-0.4,0-0.6c0,0,0,0,0-0.1c0-0.1,0-0.3,0-0.4c0-0.1,0-0.2,0-0.3c0-0.1,0-0.3,0-0.4
		c0-0.1,0-0.2,0-0.3c0-0.1-0.1-0.3-0.1-0.4c0-0.1,0-0.1,0-0.2c-0.1-0.2-0.1-0.4-0.2-0.6l-0.2-0.4c0,0,0,0,0,0c0,0,0,0,0,0
		c0,0,0,0.1,0,0.1c-0.1-0.2-0.1-0.4-0.2-0.6c-0.4-0.8-1-1.6-1.7-2.2c-0.7-0.6-1.6-1.1-2.7-1.4c-0.1,0-0.3-0.1-0.4-0.1
		c-0.1,0-0.3-0.1-0.4-0.1c-0.1,0-0.3-0.1-0.4-0.1c-0.1,0-0.3,0-0.4-0.1l2.4-13.7c0.6-0.3,1.2-0.6,1.8-0.9c0.6-0.3,1.2-0.7,1.7-1.1
		c0.5-0.4,1.1-0.8,1.5-1.3c0.5-0.4,0.9-0.9,1.3-1.4c0.4-0.5,0.7-1,1-1.4c0.3-0.5,0.5-1,0.7-1.4c0.2-0.5,0.3-0.9,0.4-1.4
		c0.1-0.4,0.1-0.9,0.1-1.3l14.6-7.9c0.1,0,0.2,0.1,0.3,0.1c0.1,0,0.2,0.1,0.3,0.1c0.1,0,0.2,0.1,0.3,0.1c0.1,0,0.2,0.1,0.3,0.1
		c0.9,0.2,1.9,0.4,3,0.4s2.1-0.1,3.1-0.3c1-0.2,2.1-0.5,3-1c1-0.4,1.9-0.9,2.7-1.5l13.4,3.4c-0.1,0.8-0.1,1.5,0.1,2.3
		c0.2,0.7,0.5,1.4,1,2c0.5,0.6,1.1,1.2,1.9,1.7c0.8,0.5,1.7,0.9,2.7,1.1c0.1,0,0.2,0.1,0.4,0.1c0.1,0,0.2,0.1,0.4,0.1
		c0.1,0,0.2,0,0.4,0.1c0.1,0,0.2,0,0.4,0.1l1,12.6c-0.6,0.3-1.1,0.6-1.7,1c-0.5,0.4-1,0.7-1.5,1.2c-0.5,0.4-0.9,0.9-1.3,1.4
		c-0.4,0.5-0.8,1-1.1,1.6C95.8,146.2,95.5,146.8,95.3,147.3z M141.9,170.5L141.9,170.5c0.1,0,0.2,0,0.3,0
		C142.1,170.5,142,170.5,141.9,170.5z M163.2,130.6c-0.4,0.3-0.8,0.7-1.1,1.1c-0.3,0.4-0.6,0.8-0.9,1.2c-0.3,0.4-0.5,0.9-0.6,1.4
		c-0.2,0.5-0.3,1-0.3,1.5c-0.1,0.5,0,1,0,1.5c0.1,0.5,0.2,1,0.3,1.5c0.2,0.5,0.4,1,0.6,1.5l-12.1,9.6c-0.1-0.1-0.3-0.1-0.4-0.2
		c-0.1-0.1-0.3-0.1-0.4-0.2c-0.1,0-0.3-0.1-0.4-0.1c-0.1,0-0.3-0.1-0.4-0.1c-1.2-0.3-2.4-0.5-3.6-0.5c-1.2,0-2.3,0.1-3.4,0.4
		c-1.1,0.3-2.2,0.7-3.1,1.3c-1,0.6-1.9,1.2-2.7,2l-16.1-4.5l0,0c0-1-0.1-1.9-0.4-2.8c-0.3-0.9-0.8-1.7-1.4-2.5
		c-0.6-0.7-1.3-1.4-2.2-1.9c-0.9-0.5-1.8-1-2.9-1.3c-0.1,0-0.2-0.1-0.4-0.1c-0.1,0-0.2-0.1-0.4-0.1c-0.1,0-0.3,0-0.4-0.1
		c-0.1,0-0.3,0-0.4-0.1l-1.4-12.5c0.5-0.2,1-0.5,1.5-0.8c0.5-0.3,0.9-0.6,1.3-1c0.4-0.4,0.8-0.7,1.1-1.1c0.3-0.4,0.6-0.8,0.9-1.3
		c0.3-0.4,0.4-0.9,0.6-1.3c0.1-0.4,0.2-0.9,0.3-1.3c0-0.4,0-0.9,0-1.3c-0.1-0.4-0.2-0.8-0.3-1.2l11.7-7.1c0.1,0,0.2,0.1,0.3,0.1
		c0.1,0,0.2,0.1,0.3,0.1s0.2,0.1,0.3,0.1c0.1,0,0.2,0.1,0.3,0.1c1,0.2,2,0.3,3,0.3c1,0,2-0.1,2.9-0.3c0.9-0.2,1.8-0.5,2.7-0.9
		c0.8-0.4,1.6-0.8,2.2-1.4l13.7,3.1c0.1,0.7,0.3,1.4,0.7,2.1c0.4,0.7,0.9,1.3,1.5,1.9c0.6,0.6,1.4,1.1,2.2,1.5
		c0.9,0.4,1.8,0.8,2.9,1c0.1,0,0.3,0.1,0.4,0.1c0.1,0,0.3,0.1,0.4,0.1c0.1,0,0.3,0,0.4,0.1c0.1,0,0.3,0,0.4,0.1l4.2,11.5
		C164.1,130,163.6,130.3,163.2,130.6z M165.2,144.4c-0.1-0.1-0.2-0.1-0.2-0.2c-0.1-0.1-0.2-0.1-0.3-0.2
		C164.8,144.2,165,144.3,165.2,144.4L165.2,144.4z M168.1,116.7C168.1,116.7,168.1,116.7,168.1,116.7
		C168.1,116.7,168.1,116.7,168.1,116.7C168.1,116.7,168.1,116.7,168.1,116.7z M165,104.9c-0.1,0-0.2-0.1-0.3-0.1
		c-0.1,0-0.2-0.1-0.3-0.1c-0.1,0-0.2-0.1-0.3-0.1c-0.1,0-0.2-0.1-0.4-0.1c-1-0.2-2-0.3-2.9-0.3c-1,0-1.9,0.1-2.8,0.3
		c-0.9,0.2-1.7,0.5-2.5,0.8c-0.8,0.4-1.4,0.8-2,1.3l-13.5-3c-0.1-0.6-0.2-1.3-0.6-1.9c-0.3-0.6-0.7-1.1-1.3-1.6
		c-0.5-0.5-1.2-0.9-1.9-1.3c-0.7-0.4-1.6-0.6-2.5-0.8c-0.1,0-0.2,0-0.3-0.1c-0.1,0-0.2,0-0.3-0.1c-0.1,0-0.2,0-0.3,0
		c-0.1,0-0.2,0-0.3,0l-2.2-8.5c0.4-0.2,0.8-0.4,1.2-0.6c0.4-0.2,0.7-0.4,1-0.7c0.3-0.2,0.6-0.5,0.8-0.8c0.2-0.3,0.5-0.6,0.6-0.9
		c0.2-0.3,0.3-0.6,0.4-0.9c0.1-0.3,0.1-0.6,0.1-0.9c0-0.3,0-0.6-0.1-0.9c-0.1-0.3-0.2-0.6-0.3-0.8l9.3-5c0.1,0,0.2,0,0.3,0.1
		c0.1,0,0.2,0,0.3,0.1c0.1,0,0.2,0,0.3,0.1c0.1,0,0.2,0,0.3,0.1c0.8,0.2,1.7,0.2,2.5,0.2c0.8,0,1.6-0.1,2.4-0.2
		c0.8-0.1,1.5-0.3,2.1-0.6c0.7-0.3,1.2-0.6,1.7-1l11.8,2.2c0.1,0.5,0.4,1,0.7,1.4c0.4,0.5,0.8,0.9,1.4,1.3c0.6,0.4,1.2,0.8,1.9,1.1
		c0.7,0.3,1.5,0.5,2.4,0.7c0.1,0,0.2,0,0.3,0.1s0.2,0,0.3,0c0.1,0,0.2,0,0.3,0c0.1,0,0.2,0,0.3,0l4.1,8c-0.4,0.2-0.7,0.4-1,0.6
		c-0.3,0.2-0.6,0.5-0.9,0.7c-0.3,0.3-0.5,0.5-0.7,0.8c-0.2,0.3-0.3,0.6-0.5,1c-0.1,0.3-0.2,0.7-0.2,1c0,0.3,0,0.7,0.1,1
		c0.1,0.3,0.2,0.7,0.3,1c0.2,0.3,0.3,0.7,0.6,1L165,104.9z M165.8,75.7C165.8,75.7,165.8,75.7,165.8,75.7
		C165.8,75.7,165.8,75.7,165.8,75.7z M179.9,81.8L179.9,81.8C179.9,81.8,179.9,81.8,179.9,81.8C179.9,81.8,179.9,81.8,179.9,81.8z
		 M181.3,79.6L181.3,79.6C181.3,79.6,181.3,79.6,181.3,79.6L181.3,79.6z M183.6,65.5c-0.2,0.2-0.4,0.4-0.5,0.6
		c-0.1,0.2-0.3,0.4-0.3,0.7c-0.1,0.2-0.1,0.5-0.1,0.7c0,0.2,0,0.5,0.1,0.7c0.1,0.2,0.2,0.5,0.3,0.7c0.1,0.2,0.3,0.5,0.5,0.7
		l-7.6,4.5c-0.1,0-0.2-0.1-0.3-0.1c-0.1,0-0.2-0.1-0.3-0.1c-0.1,0-0.2,0-0.3-0.1c-0.1,0-0.2,0-0.3-0.1c-0.8-0.2-1.7-0.2-2.5-0.2
		c-0.8,0-1.6,0.1-2.3,0.2c-0.7,0.1-1.4,0.3-2.1,0.6c-0.6,0.3-1.2,0.6-1.6,1l-11.5-2.1c-0.1-0.5-0.3-0.9-0.6-1.3
		c-0.3-0.4-0.7-0.8-1.2-1.2c-0.5-0.4-1.1-0.7-1.7-0.9c-0.7-0.3-1.4-0.5-2.2-0.6c-0.1,0-0.2,0-0.3,0c-0.1,0-0.2,0-0.3,0
		c-0.1,0-0.2,0-0.3,0c-0.1,0-0.2,0-0.3,0l-2.5-6.1c0.3-0.1,0.7-0.3,1-0.4c0.3-0.2,0.6-0.3,0.8-0.5c0.3-0.2,0.5-0.4,0.7-0.6
		c0.2-0.2,0.4-0.4,0.5-0.6c0.1-0.2,0.2-0.4,0.3-0.7c0.1-0.2,0.1-0.4,0-0.7c0-0.2-0.1-0.4-0.2-0.6c-0.1-0.2-0.2-0.4-0.3-0.6l7.6-3.7
		c0.1,0,0.2,0,0.2,0.1c0.1,0,0.2,0,0.2,0.1c0.1,0,0.2,0,0.2,0s0.2,0,0.2,0c0.7,0.1,1.5,0.2,2.2,0.2c0.7,0,1.4-0.1,2.1-0.2
		c0.7-0.1,1.3-0.3,1.8-0.5c0.6-0.2,1-0.4,1.4-0.7l10.2,1.6c0.1,0.4,0.4,0.7,0.7,1.1c0.3,0.3,0.7,0.7,1.2,1c0.5,0.3,1.1,0.6,1.7,0.8
		c0.6,0.2,1.4,0.4,2.1,0.5c0.1,0,0.2,0,0.3,0c0.1,0,0.2,0,0.3,0c0.1,0,0.2,0,0.3,0c0.1,0,0.2,0,0.3,0l3.8,5.8
		c-0.3,0.1-0.6,0.3-0.9,0.4C184.1,65.1,183.8,65.3,183.6,65.5z M174.9,53.3C174.9,53.3,174.9,53.3,174.9,53.3
		C174.9,53.3,174.9,53.3,174.9,53.3C174.9,53.3,174.9,53.3,174.9,53.3L174.9,53.3z M175.2,53C175.2,53,175.2,53,175.2,53
		C175.2,53,175.2,53,175.2,53z M190.7,44.9c-0.2,0.1-0.4,0.3-0.6,0.4c-0.2,0.1-0.3,0.3-0.4,0.5c-0.1,0.2-0.2,0.3-0.3,0.5
		c-0.1,0.2-0.1,0.4-0.1,0.5c0,0.2,0.1,0.4,0.1,0.6c0.1,0.2,0.2,0.4,0.3,0.5c0.1,0.2,0.3,0.4,0.5,0.5l-6.4,3.4c-0.1,0-0.2,0-0.3-0.1
		c-0.1,0-0.2,0-0.3-0.1s-0.2,0-0.3,0c-0.1,0-0.2,0-0.3,0c-0.7-0.1-1.4-0.2-2.1-0.2c-0.7,0-1.4,0.1-2,0.2c-0.6,0.1-1.2,0.2-1.7,0.4
		c-0.5,0.2-1,0.4-1.4,0.7l-10-1.6c-0.1-0.3-0.3-0.7-0.6-1c-0.3-0.3-0.7-0.6-1.1-0.9c-0.4-0.3-1-0.5-1.5-0.7
		c-0.6-0.2-1.2-0.4-1.9-0.5c-0.1,0-0.2,0-0.2,0c-0.1,0-0.2,0-0.2,0c-0.1,0-0.2,0-0.2,0c-0.1,0-0.2,0-0.2,0l-2.5-4.6
		c0.3-0.1,0.6-0.2,0.8-0.3c0.3-0.1,0.5-0.2,0.7-0.4c0.2-0.1,0.4-0.3,0.5-0.4c0.2-0.2,0.3-0.3,0.4-0.5c0.1-0.2,0.2-0.3,0.2-0.5
		c0-0.2,0-0.3,0-0.5c0-0.2-0.1-0.3-0.2-0.5c-0.1-0.2-0.2-0.3-0.4-0.5l6.3-2.8c0.1,0,0.2,0,0.2,0c0.1,0,0.2,0,0.2,0
		c0.1,0,0.2,0,0.2,0c0.1,0,0.2,0,0.2,0c0.6,0.1,1.3,0.1,1.9,0.1c0.6,0,1.2,0,1.8-0.1c0.6-0.1,1.1-0.2,1.6-0.4
		c0.5-0.2,0.9-0.3,1.2-0.6l9.1,1.3c0.1,0.3,0.3,0.6,0.6,0.8c0.3,0.3,0.7,0.5,1.1,0.7c0.4,0.2,1,0.4,1.5,0.6c0.6,0.2,1.2,0.3,1.9,0.4
		c0.1,0,0.2,0,0.3,0c0.1,0,0.2,0,0.3,0c0.1,0,0.2,0,0.3,0c0.1,0,0.2,0,0.3,0l3.5,4.3C191.2,44.7,190.9,44.8,190.7,44.9z M212.6,48.8
		C212.6,48.8,212.6,48.8,212.6,48.8C212.6,48.8,212.6,48.8,212.6,48.8z M219.6,54.1C219.6,54.1,219.6,54.1,219.6,54.1
		C219.7,54.1,219.7,54.1,219.6,54.1C219.7,54.1,219.7,54.1,219.6,54.1C219.6,54.1,219.6,54.1,219.6,54.1z M219.7,54.1
		C219.7,54.1,219.7,54.1,219.7,54.1C219.7,54.1,219.7,54.1,219.7,54.1C219.7,54.1,219.7,54.1,219.7,54.1z M219.8,54.2
		C219.8,54.2,219.8,54.2,219.8,54.2c0.1,0,0.1,0,0.2,0C219.9,54.2,219.8,54.2,219.8,54.2z M221.8,54.2c0,0-0.1,0-0.1,0l0,0
		c0,0,0,0,0,0l0,0C221.7,54.2,221.8,54.2,221.8,54.2C221.8,54.2,221.8,54.2,221.8,54.2C221.8,54.2,221.8,54.2,221.8,54.2z M223.6,54
		C223.6,54,223.6,54,223.6,54C223.6,54,223.7,54,223.6,54C223.7,54,223.6,54,223.6,54z M224.6,42.9c0.1,0.2,0.2,0.4,0.3,0.5
		c0.1,0.2,0.3,0.4,0.5,0.5c0.2,0.2,0.4,0.3,0.6,0.5l-5.3,3.2c-0.1,0-0.2,0-0.3-0.1c-0.1,0-0.2,0-0.3,0c-0.1,0-0.2,0-0.3,0
		c-0.1,0-0.2,0-0.3,0c-0.7-0.1-1.5-0.2-2.1-0.2s-1.3,0-1.9,0.1c-0.6,0.1-1.1,0.2-1.6,0.4c-0.5,0.2-0.8,0.4-1.1,0.7L202.7,47
		c-0.2-0.3-0.5-0.6-0.8-0.9c-0.4-0.3-0.8-0.6-1.3-0.8c-0.5-0.2-1.1-0.5-1.7-0.7c-0.6-0.2-1.3-0.3-2-0.4c-0.1,0-0.2,0-0.2,0
		c-0.1,0-0.2,0-0.2,0s-0.2,0-0.2,0c-0.1,0-0.2,0-0.2,0l-3.6-4.3c0.2-0.1,0.5-0.2,0.7-0.3c0.2-0.1,0.4-0.2,0.5-0.4
		c0.2-0.1,0.3-0.3,0.4-0.4c0.1-0.1,0.2-0.3,0.2-0.5c0-0.1,0-0.1,0-0.2c0-0.1,0-0.1,0-0.2c0-0.1,0-0.1,0-0.2c0-0.1,0-0.1,0-0.2
		c0-0.1-0.1-0.2-0.1-0.3c0-0.1-0.1-0.2-0.2-0.3c-0.1-0.1-0.1-0.2-0.2-0.3c-0.1-0.1-0.2-0.2-0.3-0.3l5.5-2.7c0.1,0,0.1,0,0.2,0
		c0.1,0,0.1,0,0.2,0c0.1,0,0.2,0,0.2,0c0.1,0,0.2,0,0.2,0c0.7,0.1,1.3,0.1,1.9,0.1c0.6,0,1.2,0,1.7-0.1c0.5-0.1,1-0.2,1.5-0.3
		c0.4-0.2,0.8-0.3,1-0.5l9.1,1.2c0.2,0.3,0.5,0.5,0.8,0.8c0.4,0.2,0.8,0.5,1.3,0.7c0.5,0.2,1,0.4,1.6,0.6c0.6,0.2,1.2,0.3,1.9,0.4
		c0.1,0,0.2,0,0.2,0c0.1,0,0.2,0,0.2,0c0.1,0,0.2,0,0.2,0c0.1,0,0.2,0,0.2,0l4.5,4.1c-0.2,0.1-0.5,0.2-0.7,0.3
		c-0.2,0.1-0.4,0.2-0.5,0.4c-0.1,0.1-0.3,0.3-0.3,0.4c-0.1,0.2-0.1,0.3-0.1,0.5C224.5,42.6,224.6,42.7,224.6,42.9z M227.5,45.3
		C227.5,45.3,227.5,45.3,227.5,45.3C227.5,45.3,227.5,45.3,227.5,45.3L227.5,45.3z M230.6,46.2L230.6,46.2c0.1,0,0.1,0,0.2,0
		C230.8,46.3,230.7,46.2,230.6,46.2z M232,46.4C231.9,46.4,231.9,46.4,232,46.4C231.9,46.4,231.9,46.4,232,46.4
		C232,46.4,232,46.4,232,46.4C232,46.4,232,46.4,232,46.4z M232.6,46.5C232.6,46.5,232.6,46.5,232.6,46.5
		C232.6,46.5,232.6,46.5,232.6,46.5C232.7,46.5,232.7,46.5,232.6,46.5C232.7,46.5,232.7,46.5,232.6,46.5z M233.2,46.5
		C233.2,46.5,233.2,46.5,233.2,46.5C233.2,46.5,233.2,46.5,233.2,46.5C233.2,46.5,233.2,46.5,233.2,46.5z M234.4,46.5
		C234.4,46.5,234.4,46.5,234.4,46.5C234.4,46.5,234.4,46.5,234.4,46.5C234.4,46.5,234.4,46.5,234.4,46.5
		C234.4,46.5,234.4,46.5,234.4,46.5z M238,45.1C238,45.1,238,45.1,238,45.1C238,45.1,238,45.1,238,45.1L238,45.1L238,45.1z"/>
	<linearGradient id="SVGID_113_" gradientUnits="userSpaceOnUse" x1="134.511" y1="58.4503" x2="134.511" y2="58.4503">
		<stop  offset="0" style="stop-color:#B280B8"/>
		<stop  offset="1" style="stop-color:#8A4F9E"/>
	</linearGradient>
	<line fill="url(#SVGID_113_)" x1="134.5" y1="58.5" x2="134.5" y2="58.5"/>
	<linearGradient id="SVGID_114_" gradientUnits="userSpaceOnUse" x1="207.8101" y1="202.5" x2="207.8101" y2="9.7385">
		<stop  offset="0" style="stop-color:#B280B8"/>
		<stop  offset="1" style="stop-color:#8A4F9E"/>
	</linearGradient>
	<line fill="url(#SVGID_114_)" x1="202.7" y1="47" x2="212.9" y2="48.5"/>
	<linearGradient id="SVGID_115_" gradientUnits="userSpaceOnUse" x1="212.6431" y1="86.6225" x2="212.6431" y2="10.9389">
		<stop  offset="0" style="stop-color:#B280B8"/>
		<stop  offset="1" style="stop-color:#8A4F9E"/>
	</linearGradient>
	<line fill="url(#SVGID_115_)" x1="212.6" y1="48.8" x2="212.6" y2="48.8"/>
	<linearGradient id="SVGID_116_" gradientUnits="userSpaceOnUse" x1="175.1565" y1="86.9456" x2="175.1565" y2="19.0745">
		<stop  offset="0" style="stop-color:#B280B8"/>
		<stop  offset="1" style="stop-color:#8A4F9E"/>
	</linearGradient>
	<line fill="url(#SVGID_116_)" x1="175.2" y1="53" x2="175.2" y2="53"/>
	<linearGradient id="SVGID_117_" gradientUnits="userSpaceOnUse" x1="170.4638" y1="202.5" x2="170.4638" y2="9.7385">
		<stop  offset="0" style="stop-color:#B280B8"/>
		<stop  offset="1" style="stop-color:#8A4F9E"/>
	</linearGradient>
	<line fill="url(#SVGID_117_)" x1="165.4" y1="51.2" x2="175.5" y2="52.7"/>
	<linearGradient id="SVGID_118_" gradientUnits="userSpaceOnUse" x1="125.9751" y1="74.4771" x2="125.9751" y2="36.3911">
		<stop  offset="0" style="stop-color:#B280B8"/>
		<stop  offset="1" style="stop-color:#8A4F9E"/>
	</linearGradient>
	<line fill="url(#SVGID_118_)" x1="126" y1="55.4" x2="126" y2="55.4"/>
	<linearGradient id="SVGID_119_" gradientUnits="userSpaceOnUse" x1="88.753" y1="202.5" x2="88.753" y2="9.7385">
		<stop  offset="0" style="stop-color:#B280B8"/>
		<stop  offset="1" style="stop-color:#8A4F9E"/>
	</linearGradient>
	<line fill="url(#SVGID_119_)" x1="93.5" y1="62" x2="84" y2="60.3"/>
	<linearGradient id="SVGID_120_" gradientUnits="userSpaceOnUse" x1="146.7004" y1="202.5" x2="146.7004" y2="9.7385">
		<stop  offset="0" style="stop-color:#B280B8"/>
		<stop  offset="1" style="stop-color:#8A4F9E"/>
	</linearGradient>
	<line fill="url(#SVGID_120_)" x1="147.9" y1="69.1" x2="145.5" y2="63"/>
	<linearGradient id="SVGID_121_" gradientUnits="userSpaceOnUse" x1="165.7958" y1="96.7455" x2="165.7958" y2="54.7534">
		<stop  offset="0" style="stop-color:#B280B8"/>
		<stop  offset="1" style="stop-color:#8A4F9E"/>
	</linearGradient>
	<line fill="url(#SVGID_121_)" x1="165.8" y1="75.7" x2="165.8" y2="75.7"/>
	<linearGradient id="SVGID_122_" gradientUnits="userSpaceOnUse" x1="114.0591" y1="202.5" x2="114.0591" y2="9.7385">
		<stop  offset="0" style="stop-color:#B280B8"/>
		<stop  offset="1" style="stop-color:#8A4F9E"/>
	</linearGradient>
	<line fill="url(#SVGID_122_)" x1="108.4" y1="79.2" x2="119.7" y2="81.5"/>
	<linearGradient id="SVGID_123_" gradientUnits="userSpaceOnUse" x1="146.6812" y1="202.5" x2="146.6812" y2="9.7385">
		<stop  offset="0" style="stop-color:#B280B8"/>
		<stop  offset="1" style="stop-color:#8A4F9E"/>
	</linearGradient>
	<line fill="url(#SVGID_123_)" x1="153.4" y1="106.7" x2="139.9" y2="103.7"/>
	<linearGradient id="SVGID_124_" gradientUnits="userSpaceOnUse" x1="35.2524" y1="202.5" x2="35.2524" y2="9.7385">
		<stop  offset="0" style="stop-color:#B280B8"/>
		<stop  offset="1" style="stop-color:#8A4F9E"/>
	</linearGradient>
	<path fill="url(#SVGID_124_)" d="M35.5,124.7c-0.2,0.1-0.3,0.2-0.5,0.3"/>
	<linearGradient id="SVGID_125_" gradientUnits="userSpaceOnUse" x1="29.3148" y1="202.5" x2="29.3148" y2="9.7385">
		<stop  offset="0" style="stop-color:#B280B8"/>
		<stop  offset="1" style="stop-color:#8A4F9E"/>
	</linearGradient>
	<line fill="url(#SVGID_125_)" x1="35.5" y1="124.7" x2="23.2" y2="121.3"/>
	<linearGradient id="SVGID_126_" gradientUnits="userSpaceOnUse" x1="155.1891" y1="202.5" x2="155.1891" y2="9.7385">
		<stop  offset="0" style="stop-color:#B280B8"/>
		<stop  offset="1" style="stop-color:#8A4F9E"/>
	</linearGradient>
	<line fill="url(#SVGID_126_)" x1="149.1" y1="149.9" x2="161.2" y2="140.3"/>
	<linearGradient id="SVGID_127_" gradientUnits="userSpaceOnUse" x1="126.5422" y1="202.5" x2="126.5422" y2="9.7385">
		<stop  offset="0" style="stop-color:#B280B8"/>
		<stop  offset="1" style="stop-color:#8A4F9E"/>
	</linearGradient>
	<line fill="url(#SVGID_127_)" x1="134.6" y1="152.6" x2="118.5" y2="148"/>
	<linearGradient id="SVGID_128_" gradientUnits="userSpaceOnUse" x1="55.6932" y1="202.5" x2="55.6932" y2="9.7385">
		<stop  offset="0" style="stop-color:#B280B8"/>
		<stop  offset="1" style="stop-color:#8A4F9E"/>
	</linearGradient>
	<line fill="url(#SVGID_128_)" x1="63.3" y1="165.9" x2="48" y2="160.9"/>
</g>
</svg>
