<?xml version="1.0" encoding="utf-8"?>
<!-- Generator: Adobe Illustrator 20.1.0, SVG Export Plug-In . SVG Version: 6.00 Build 0)  -->
<svg version="1.1" id="Layer_1" xmlns="http://www.w3.org/2000/svg" xmlns:xlink="http://www.w3.org/1999/xlink" x="0px" y="0px"
	 width="238px" height="218px" viewBox="0 0 238 218" style="enable-background:new 0 0 238 218;" xml:space="preserve">
<style type="text/css">
	.st0{fill:url(#SVGID_1_);}
	.st1{fill:url(#SVGID_2_);}
</style>
<g>
	<linearGradient id="SVGID_1_" gradientUnits="userSpaceOnUse" x1="118.7779" y1="215.5717" x2="118.7779" y2="-1.5858">
		<stop  offset="0" style="stop-color:#3BB0C9"/>
		<stop  offset="1" style="stop-color:#0078AA"/>
	</linearGradient>
	<path class="st0" d="M184.5,59.7c-2.1,0-4.3,0.1-6.3,0.4c-11.7-25.6-37.5-43.3-67.5-43.3c-41,0-74.3,33.3-74.3,74.3
		c0,1.3,0,2.6,0.1,3.9c-0.3,0-0.6,0-1,0c-19.4,0-35.2,15.8-35.2,35.2c0,19.4,15.8,35.2,35.2,35.2c0,0,0,0,0.1,0v0H66
		c0.3-1,0.6-1.9,1-2.9c-0.6-1.3-1-2.6-1.3-4H42.4v0h-6.9c0,0-0.1,0-0.1,0c-15.6,0-28.3-12.7-28.3-28.3c0-15.6,12.7-28.3,28.3-28.3
		c0.1,0,0.3,0,0.4,0l0.3,0l7.4,0.2l-0.4-7.4c-0.1-1.2-0.1-2.4-0.1-3.5c0-37.2,30.2-67.4,67.4-67.4c13.1,0,25.9,3.8,36.8,11
		c10.7,7,19.1,16.8,24.4,28.4l2.1,4.5l5-0.6c1.9-0.2,3.7-0.3,5.5-0.3c25.3,0,45.9,20.6,45.9,45.9c0,25.3-20.6,45.9-45.9,45.9h-12.7
		c-0.3,1.3-0.7,2.7-1.3,4c0.4,1,0.8,1.9,1,2.9h13v0c29.2,0,52.8-23.7,52.8-52.8C237.3,83.3,213.6,59.7,184.5,59.7z"/>
	<linearGradient id="SVGID_2_" gradientUnits="userSpaceOnUse" x1="118.7779" y1="215.5717" x2="118.7779" y2="-1.5858">
		<stop  offset="0" style="stop-color:#3BB0C9"/>
		<stop  offset="1" style="stop-color:#0078AA"/>
	</linearGradient>
	<path class="st1" d="M166.6,162.4c1.3-2.3,2-4.8,2-7.4c0-0.9-0.1-1.8-0.3-2.7c0.2-0.9,0.3-1.8,0.3-2.7c0-2.6-0.7-5.1-2-7.4
		c1.3-2.3,2-4.8,2-7.4c0-0.9-0.1-1.8-0.3-2.7c0.2-0.9,0.3-1.8,0.3-2.7c0-7.2-5.5-13.6-14.5-18.2c-2.2-1.2-4.7-2.2-7.4-3.1
		c-1.3-0.5-2.7-0.9-4.1-1.3c-0.7-0.2-1.4-0.4-2.2-0.6c-1.5-0.4-3-0.7-4.5-1c-1.5-0.3-3.1-0.5-4.7-0.7c-1.6-0.2-3.2-0.4-4.9-0.5
		c-2.5-0.2-5.1-0.3-7.7-0.3c-2.6,0-5.2,0.1-7.7,0.3c-1.7,0.1-3.3,0.3-4.9,0.5c-1.6,0.2-3.2,0.5-4.7,0.7c-1.5,0.3-3,0.6-4.5,1
		c-0.7,0.2-1.4,0.4-2.2,0.6c-1.4,0.4-2.8,0.8-4.1,1.3c-2,0.7-3.9,1.4-5.6,2.3c-10,4.7-16.2,11.4-16.2,19.1c0,0.9,0.1,1.8,0.3,2.7
		c-0.2,0.9-0.3,1.8-0.3,2.7c0,1.3,0.2,2.6,0.5,3.8c0.3,0.9,0.6,1.8,1.1,2.7c0.1,0.3,0.3,0.6,0.5,0.9c-0.2,0.3-0.3,0.6-0.5,0.9
		c-0.4,0.9-0.8,1.8-1.1,2.7c-0.3,1.2-0.5,2.5-0.5,3.8c0,0.9,0.1,1.8,0.3,2.7c-0.2,0.9-0.3,1.8-0.3,2.7c0,2.6,0.7,5.1,2,7.4
		c-1.3,2.3-2,4.8-2,7.4c0,0.9,0.1,1.8,0.3,2.7c-0.2,0.9-0.3,1.8-0.3,2.7c0,8.5,7.7,16,19.9,20.6c0.6,0.2,1.3,0.5,2,0.7
		c1.3,0.5,2.7,0.9,4.1,1.3c3.5,1,7.3,1.7,11.4,2.3c1.6,0.2,3.2,0.4,4.9,0.5c2.5,0.2,5.1,0.3,7.7,0.3c2.6,0,5.2-0.1,7.7-0.3
		c1.7-0.1,3.3-0.3,4.9-0.5c4-0.5,7.8-1.3,11.4-2.3c1.4-0.4,2.8-0.8,4.1-1.3c0.7-0.2,1.3-0.5,2-0.7c1.3-0.5,2.5-1,3.7-1.6
		c0.6-0.3,1.2-0.6,1.7-0.8c9-4.6,14.5-11,14.5-18.2c0-0.9-0.1-1.8-0.3-2.7c0.2-0.9,0.3-1.8,0.3-2.7
		C168.7,167.3,168,164.8,166.6,162.4z M118.8,177.9c-22.7,0-41.7-7.8-46.1-18.2c7.4,9.3,25,15.7,46.1,15.7
		c21.1,0,38.7-6.4,46.1-15.7C160.5,170,141.5,177.9,118.8,177.9z M118.8,106.6c26,0,47.1,10.2,47.1,22.8c0,12.6-21.1,22.8-47.1,22.8
		S71.7,142,71.7,129.4C71.7,116.9,92.8,106.6,118.8,106.6z M164.9,139.4c-4.4,10.4-23.4,18.2-46.1,18.2c-22.7,0-41.7-7.8-46.1-18.2
		c7.4,9.3,25,15.7,46.1,15.7C139.8,155.1,157.5,148.7,164.9,139.4z M71.7,149.6c0-1.6,0.4-3.2,1-4.7c7.5,9.2,25,15.6,46,15.6
		s38.6-6.3,46-15.6c0.7,1.5,1,3.1,1,4.7c0,12.6-21.1,22.8-47.1,22.8S71.7,162.2,71.7,149.6z M118.8,198.1
		c-22.7,0-41.7-7.8-46.1-18.2c7.4,9.3,25,15.7,46.1,15.7c21.1,0,38.7-6.4,46.1-15.7C160.5,190.2,141.5,198.1,118.8,198.1z
		 M118.8,192.7c-26,0-47.1-10.2-47.1-22.8c0-1.6,0.4-3.2,1-4.7c7.5,9.2,25,15.6,46,15.6s38.6-6.3,46-15.6c0.7,1.5,1,3.1,1,4.7
		C165.8,182.4,144.7,192.7,118.8,192.7z"/>
</g>
</svg>
