<?xml version="1.0" encoding="utf-8"?>
<!-- Generator: Adobe Illustrator 20.1.0, SVG Export Plug-In . SVG Version: 6.00 Build 0)  -->
<svg version="1.1" id="Layer_1" xmlns="http://www.w3.org/2000/svg" xmlns:xlink="http://www.w3.org/1999/xlink" x="0px" y="0px"
	 width="238px" height="218px" viewBox="0 0 238 218" enable-background="new 0 0 238 218" xml:space="preserve">
<g>
	<linearGradient id="SVGID_1_" gradientUnits="userSpaceOnUse" x1="119" y1="218" x2="119" y2="-0.6724">
		<stop  offset="0" style="stop-color:#3BB0C9"/>
		<stop  offset="1" style="stop-color:#0078AA"/>
	</linearGradient>
	<path fill="url(#SVGID_1_)" d="M228,109C228,48.9,179.1,0,119,0C58.9,0,10,48.9,10,109c0,60.1,48.9,109,109,109
		C179.1,218,228,169.1,228,109z M19.7,109c0-3.7,0.2-7.3,0.6-10.9c3.9,3,7.7,7,7.7,10.9c0,7.6-7,1.2,4.7,13
		c-3.2,6.1-0.6,11.4-0.6,18.1c0,8.3,4.1,26.9,12.4,26.9l7.9,15.7C32.3,164.5,19.7,138.2,19.7,109z M190,178.5
		c-18,18.4-43.2,29.8-71,29.8c-13.6,0-26.6-2.7-38.4-7.7c3.1-7.3,8.4-17.1,13.6-17.1c8.3,0,8.3,0,8.3-8.3c0-16.6,8.3-8.3,8.3-16.6
		c0-8.3-16.6-8.3-24.8-16.6c-8.3-8.3-12.4-16.6-20.7-16.6c-4.1-8.3-4.1-8.3-12.4-8.3c-8.3,0-8.3-8.3-16.6,0c-7.2-7.2-8.1-27-13.7-32
		c1.3-5.3,3-10.5,5.2-15.5c5.6,4.5,2.2,14.3,8.5,14.3c8.3,0,0-16.6,8.3-16.6c8.3,0,16.6,0,16.6-8.3c0-8.3,16.6,0,16.6,0
		c8.3-8.3,8.3-8.3,0-12.4c-3.7-1.9,8.3,4.1,8.3-4.1c0-16.6-8.3,0,0-16.6c8.3-16.6,16.6,0,16.6-8.3c0-2.5,0.7-4.9,1.8-7.2
		C109,10,114,9.7,119,9.7c9.3,0,18.3,1.3,26.8,3.7c-0.9,8.6-7.7,23.2,0.1,23.2c8.3,0,24.8-8.3,16.6-16.6c4.7,1.9,9.8,4.9,14.6,8.4
		c-4.4,0.3-14.6,1.7-14.6,8.2c0,8.3-16.6,8.3-8.3,16.6c8.3,8.3-16.6,0-8.3,8.3c8.3,8.3,0,16.6,8.3,8.3c8.3-8.3,8.3-16.6,16.6-16.6
		c8.3,0,8.3,8.3,16.6,8.3c8.3,0-8.3-16.6,0-16.6c2.5,0,4.5-0.8,6-1.8c7.1,8,12.9,17.1,17.1,27c-13.5,1.6-23.1,7.9-23.1,7.9
		c-16.6-16.6-24.8,0-33.1,0c-8.3,0-8.3,16.6-8.3,16.6s-16.6,8.3-8.3,24.8c8.3,16.6,8.3,8.3,16.6,16.6c8.3,8.3,24.8-8.3,24.8-8.3
		s0,8.3,8.3,16.6c8.3,8.3-2.1,24.8-2.1,24.8L190,178.5z"/>
</g>
</svg>
