<?xml version="1.0" encoding="utf-8"?>
<!-- Generator: Adobe Illustrator 20.1.0, SVG Export Plug-In . SVG Version: 6.00 Build 0)  -->
<svg version="1.1" id="Layer_1" xmlns="http://www.w3.org/2000/svg" xmlns:xlink="http://www.w3.org/1999/xlink" x="0px" y="0px"
	 width="238px" height="218px" viewBox="0 0 238 218" style="enable-background:new 0 0 238 218;" xml:space="preserve">
<style type="text/css">
	.st0{fill:url(#SVGID_1_);}
	.st1{fill:url(#SVGID_2_);}
	.st2{fill:url(#SVGID_3_);}
	.st3{fill:url(#SVGID_4_);}
	.st4{fill:url(#SVGID_5_);}
	.st5{fill:url(#SVGID_6_);}
	.st6{fill:url(#SVGID_7_);}
	.st7{fill:url(#SVGID_8_);}
	.st8{fill:url(#SVGID_9_);}
	.st9{fill:url(#SVGID_10_);}
	.st10{fill:url(#SVGID_11_);}
	.st11{fill:url(#SVGID_12_);}
	.st12{fill:url(#SVGID_13_);}
	.st13{fill:url(#SVGID_14_);}
	.st14{fill:url(#SVGID_15_);}
	.st15{fill:url(#SVGID_16_);}
	.st16{fill:url(#SVGID_17_);}
</style>
<g>
	<linearGradient id="SVGID_1_" gradientUnits="userSpaceOnUse" x1="58.109" y1="256.3333" x2="58.109" y2="7.3773">
		<stop  offset="0" style="stop-color:#FFF100"/>
		<stop  offset="1" style="stop-color:#F05A28"/>
	</linearGradient>
	<path class="st0" d="M61.4,159c-2.2-3.2-4.5-6.6-6.6-10.1C57,152.4,59.2,155.7,61.4,159z"/>
	<linearGradient id="SVGID_2_" gradientUnits="userSpaceOnUse" x1="63.672" y1="256.3333" x2="63.672" y2="7.3773">
		<stop  offset="0" style="stop-color:#FFF100"/>
		<stop  offset="1" style="stop-color:#F05A28"/>
	</linearGradient>
	<path class="st1" d="M65.9,165.3c-1.5-2-3-4.1-4.5-6.3C62.9,161.1,64.4,163.2,65.9,165.3z"/>
	<linearGradient id="SVGID_3_" gradientUnits="userSpaceOnUse" x1="44.478" y1="256.3333" x2="44.478" y2="7.3773">
		<stop  offset="0" style="stop-color:#FFF100"/>
		<stop  offset="1" style="stop-color:#F05A28"/>
	</linearGradient>
	<path class="st2" d="M46.4,134c-1.3-2.6-2.6-5.2-3.9-8C43.8,128.8,45.1,131.4,46.4,134z"/>
	<linearGradient id="SVGID_4_" gradientUnits="userSpaceOnUse" x1="75.0092" y1="256.3333" x2="75.0092" y2="7.3773">
		<stop  offset="0" style="stop-color:#FFF100"/>
		<stop  offset="1" style="stop-color:#F05A28"/>
	</linearGradient>
	<path class="st3" d="M77.3,179.4c-1.5-1.7-3-3.5-4.5-5.4C74.3,175.9,75.8,177.7,77.3,179.4z"/>
	<linearGradient id="SVGID_5_" gradientUnits="userSpaceOnUse" x1="146.6016" y1="256.3333" x2="146.6016" y2="7.3773">
		<stop  offset="0" style="stop-color:#FFF100"/>
		<stop  offset="1" style="stop-color:#F05A28"/>
	</linearGradient>
	<path class="st4" d="M149.7,191.3c-2.1,2.1-4.2,4.1-6.2,6C145.5,195.4,147.6,193.4,149.7,191.3z"/>
	<linearGradient id="SVGID_6_" gradientUnits="userSpaceOnUse" x1="179.8913" y1="256.3333" x2="179.8913" y2="7.3773">
		<stop  offset="0" style="stop-color:#FFF100"/>
		<stop  offset="1" style="stop-color:#F05A28"/>
	</linearGradient>
	<path class="st5" d="M183.2,148.8c-2.2,3.5-4.4,6.9-6.6,10.1C178.8,155.7,181,152.4,183.2,148.8z"/>
	<linearGradient id="SVGID_7_" gradientUnits="userSpaceOnUse" x1="91.3986" y1="256.3333" x2="91.3986" y2="7.3773">
		<stop  offset="0" style="stop-color:#FFF100"/>
		<stop  offset="1" style="stop-color:#F05A28"/>
	</linearGradient>
	<path class="st6" d="M94.5,197.3c-2-1.9-4.1-3.9-6.2-6C90.4,193.4,92.5,195.4,94.5,197.3z"/>
	<linearGradient id="SVGID_8_" gradientUnits="userSpaceOnUse" x1="100.2546" y1="256.3333" x2="100.2546" y2="7.3773">
		<stop  offset="0" style="stop-color:#FFF100"/>
		<stop  offset="1" style="stop-color:#F05A28"/>
	</linearGradient>
	<path class="st7" d="M102.1,204c-1.2-1-2.4-2.1-3.7-3.2C99.7,202,100.9,203,102.1,204z"/>
	<linearGradient id="SVGID_9_" gradientUnits="userSpaceOnUse" x1="137.7455" y1="256.3333" x2="137.7455" y2="7.3773">
		<stop  offset="0" style="stop-color:#FFF100"/>
		<stop  offset="1" style="stop-color:#F05A28"/>
	</linearGradient>
	<path class="st8" d="M139.6,200.8c-1.3,1.1-2.5,2.2-3.7,3.2C137.1,203,138.3,202,139.6,200.8z"/>
	<linearGradient id="SVGID_10_" gradientUnits="userSpaceOnUse" x1="31.6103" y1="256.3333" x2="31.6103" y2="7.3773">
		<stop  offset="0" style="stop-color:#FFF100"/>
		<stop  offset="1" style="stop-color:#F05A28"/>
	</linearGradient>
	<path class="st9" d="M21.9,31.7L21.9,31.7c0,0,7.2-3.3,19.3-8C29.1,28.3,21.9,31.7,21.9,31.7z"/>
	<linearGradient id="SVGID_11_" gradientUnits="userSpaceOnUse" x1="174.3281" y1="256.3333" x2="174.3281" y2="7.3773">
		<stop  offset="0" style="stop-color:#FFF100"/>
		<stop  offset="1" style="stop-color:#F05A28"/>
	</linearGradient>
	<path class="st10" d="M176.6,159c-1.5,2.2-3,4.3-4.5,6.3C173.6,163.2,175.1,161.1,176.6,159z"/>
	<linearGradient id="SVGID_12_" gradientUnits="userSpaceOnUse" x1="146.6273" y1="256.3333" x2="146.6273" y2="7.3773">
		<stop  offset="0" style="stop-color:#FFF100"/>
		<stop  offset="1" style="stop-color:#F05A28"/>
	</linearGradient>
	<path class="st11" d="M119,165.3c5.9-5.7,12.4-12.8,18.9-21.2c19.9-25.8,32-54.7,36.3-86.1c-14.4-5.2-33.8-11.4-55.3-16
		C119,90.7,119,130,119,165.3z"/>
	<linearGradient id="SVGID_13_" gradientUnits="userSpaceOnUse" x1="193.5221" y1="256.3333" x2="193.5221" y2="7.3773">
		<stop  offset="0" style="stop-color:#FFF100"/>
		<stop  offset="1" style="stop-color:#F05A28"/>
	</linearGradient>
	<path class="st12" d="M195.5,126.1c-1.3,2.7-2.6,5.4-3.9,8C192.9,131.4,194.2,128.8,195.5,126.1z"/>
	<linearGradient id="SVGID_14_" gradientUnits="userSpaceOnUse" x1="162.9911" y1="256.3333" x2="162.9911" y2="7.3773">
		<stop  offset="0" style="stop-color:#FFF100"/>
		<stop  offset="1" style="stop-color:#F05A28"/>
	</linearGradient>
	<path class="st13" d="M165.3,174c-1.5,1.9-3,3.6-4.5,5.4C162.2,177.7,163.7,175.9,165.3,174z"/>
	<linearGradient id="SVGID_15_" gradientUnits="userSpaceOnUse" x1="206.3897" y1="256.3333" x2="206.3897" y2="7.3773">
		<stop  offset="0" style="stop-color:#FFF100"/>
		<stop  offset="1" style="stop-color:#F05A28"/>
	</linearGradient>
	<path class="st14" d="M216.1,31.7c0,0-7.2-3.3-19.3-8C208.9,28.3,216.1,31.7,216.1,31.7L216.1,31.7z"/>
	<linearGradient id="SVGID_16_" gradientUnits="userSpaceOnUse" x1="119.0001" y1="256.3333" x2="119.0001" y2="7.3773">
		<stop  offset="0" style="stop-color:#FFF100"/>
		<stop  offset="1" style="stop-color:#F05A28"/>
	</linearGradient>
	<path class="st15" d="M138.5,5.4c-6.3-1.5-12.8-3-19.5-4.2c-6.7,1.3-13.2,2.7-19.5,4.2c6.3-1.5,12.8-3,19.5-4.2
		C125.7,2.5,132.2,3.9,138.5,5.4z"/>
	<linearGradient id="SVGID_17_" gradientUnits="userSpaceOnUse" x1="119" y1="256.3333" x2="119" y2="7.3773">
		<stop  offset="0" style="stop-color:#FFF100"/>
		<stop  offset="1" style="stop-color:#F05A28"/>
	</linearGradient>
	<path class="st16" d="M196.7,23.7c-14-5.4-34.6-12.5-58.2-18.2c-6.3-1.5-12.8-3-19.5-4.2c-6.7,1.3-13.2,2.7-19.5,4.2
		c-23.6,5.7-44.2,12.9-58.2,18.2c-12.1,4.7-19.3,8-19.3,8l0,0c0,9.8,0.6,19.2,1.7,28.2c0.2,1.8,0.5,3.6,0.7,5.3
		c1.8,12.4,4.6,23.9,8,34.8c2.9,9.3,6.4,18,10.2,26.1c1.3,2.7,2.6,5.4,3.9,8c2.7,5.2,5.5,10.1,8.4,14.8c2.2,3.5,4.4,6.9,6.6,10.1
		c1.5,2.2,3,4.3,4.5,6.3c2.3,3.1,4.5,6,6.8,8.8c1.5,1.9,3,3.6,4.5,5.4c3.8,4.3,7.5,8.3,11,11.8c2.1,2.1,4.2,4.1,6.2,6
		c1.3,1.2,2.6,2.4,3.9,3.6c1.3,1.1,2.5,2.2,3.7,3.2c10.1,8.6,16.9,12.8,16.9,12.8s6.8-4.2,16.9-12.8c1.2-1,2.4-2.1,3.7-3.2
		c1.3-1.1,2.6-2.3,3.9-3.6c2-1.9,4.1-3.9,6.2-6c3.6-3.6,7.3-7.5,11-11.8c1.5-1.7,3-3.5,4.5-5.4c2.3-2.8,4.6-5.7,6.8-8.8
		c1.5-2,3-4.1,4.5-6.3c2.2-3.2,4.5-6.6,6.6-10.1c2.9-4.7,5.7-9.6,8.4-14.8c1.3-2.6,2.6-5.2,3.9-8c3.8-8.1,7.3-16.9,10.2-26.1
		c3.4-10.8,6.2-22.4,8-34.8c0.3-1.8,0.5-3.5,0.7-5.3c1.1-9,1.7-18.4,1.7-28.2l0,0C216.1,31.7,208.9,28.3,196.7,23.7z M150.2,155.2
		c-11.4,14.6-22.8,25.3-31.2,32.3c-8.3-6.9-19.8-17.7-31.2-32.3C62.9,123.2,48.9,86.9,46,47.1c15.6-6.1,42.5-15.7,73-21.9
		c30.4,6.2,57.4,15.8,73,21.9C189.1,86.9,175.1,123.2,150.2,155.2z"/>
</g>
</svg>
