<?xml version="1.0" encoding="utf-8"?>
<!-- Generator: Adobe Illustrator 20.1.0, SVG Export Plug-In . SVG Version: 6.00 Build 0)  -->
<svg version="1.1" id="Layer_1" xmlns="http://www.w3.org/2000/svg" xmlns:xlink="http://www.w3.org/1999/xlink" x="0px" y="0px"
	 width="238px" height="218px" viewBox="0 0 238 218" style="enable-background:new 0 0 238 218;" xml:space="preserve">
<style type="text/css">
	.st0{fill:url(#SVGID_1_);}
	.st1{fill:url(#SVGID_2_);}
</style>
<g>
	<linearGradient id="SVGID_1_" gradientUnits="userSpaceOnUse" x1="189.7195" y1="258.3558" x2="189.7195" y2="1.2883">
		<stop  offset="0" style="stop-color:#FFF100"/>
		<stop  offset="1" style="stop-color:#F05A28"/>
	</linearGradient>
	<path class="st0" d="M200.2,139.8c-0.2-0.1-0.4-0.3-0.8-0.5c-3.3-1.8-2.5-6.9-1.9-9.7c2.3-2.6,4.7-6.6,5.7-13.3
		c0.3-1.8,1-3.5,2-4.9c2-2.8,3.2-6.6,3.2-10.3c0-2.9-0.7-5.5-2-7.6c-0.3-0.5-0.6-0.9-1-1.3c1.6-4.1,3.4-10.3,1.7-17.1
		c-2.9-11.7-18.3-17-31.4-17c-27.7,0-30.5,13.8-31.1,16.6c-1.5,6.2-0.2,12.6,1.5,17.3c-0.4,0.5-0.8,1-1.2,1.5
		c-1.3,2.1-2.1,4.8-2.1,7.7c0,3.7,1.1,7.4,3.1,10.2c1.1,1.5,1.8,3.2,2,4.9c1,6.8,3.5,10.9,5.8,13.4c0.2,0.8,0.4,1.7,0.5,2.7
		c12.9,8.7,14.4,14.7,14.4,19.7v25.9c0,10.1-4.6,19.1-11.8,25.1h18h29.6h12.7c10.6,0,19.2-8.6,19.2-19.2v-19.8
		C236.5,161.7,236.4,155.1,200.2,139.8z"/>
	<linearGradient id="SVGID_2_" gradientUnits="userSpaceOnUse" x1="81.6907" y1="258.3558" x2="81.6907" y2="1.2883">
		<stop  offset="0" style="stop-color:#FFF100"/>
		<stop  offset="1" style="stop-color:#F05A28"/>
	</linearGradient>
	<path class="st1" d="M161.3,152.3c0-3.3-0.2-11.9-47.5-31.9c-0.2-0.2-0.5-0.4-1.1-0.7c-4.3-2.4-3.3-9-2.4-12.7
		c3-3.3,6.1-8.6,7.4-17.3c0.3-2.3,1.3-4.6,2.7-6.4c2.7-3.6,4.1-8.6,4.1-13.5c0-3.8-0.9-7.2-2.6-9.9c-0.4-0.6-0.8-1.2-1.3-1.7
		c2.1-5.4,4.4-13.5,2.2-22.3c-3.8-15.3-23.9-22.2-41-22.2C66.3,13.6,54.5,19,49.7,28c-4.2,2-6.4,5-7.7,7.4
		c-3.8,7.4-1.2,16.3,1.1,22.4c-0.6,0.6-1.1,1.3-1.5,2c-1.8,2.7-2.7,6.2-2.7,10.1c0,4.8,1.4,9.7,4.1,13.3c1.4,1.9,2.3,4.1,2.7,6.5
		c1.3,8.9,4.5,14.2,7.6,17.5c0.9,3.7,1.7,10.1-2.5,12.5c-0.4,0.2-0.7,0.4-0.9,0.6c-47.6,20.1-47.8,28.7-47.8,32v25.9
		c0,13.8,11.2,25.1,25.1,25.1h53.8h38.7h14.4h2.3c13.8,0,25.1-11.2,25.1-25.1V152.3z"/>
</g>
</svg>
