<?xml version="1.0" encoding="utf-8"?>
<!-- Generator: Adobe Illustrator 20.1.0, SVG Export Plug-In . SVG Version: 6.00 Build 0)  -->
<svg version="1.1" id="Layer_1" xmlns="http://www.w3.org/2000/svg" xmlns:xlink="http://www.w3.org/1999/xlink" x="0px" y="0px"
	 width="238px" height="218px" viewBox="0 0 238 218" style="enable-background:new 0 0 238 218;" xml:space="preserve">
<style type="text/css">
	.st0{fill:url(#SVGID_1_);}
	.st1{fill:#F05A28;}
</style>
<g>
	<g>
		<linearGradient id="SVGID_1_" gradientUnits="userSpaceOnUse" x1="85.3328" y1="263.586" x2="85.3328" y2="15.4725">
			<stop  offset="0" style="stop-color:#FFF100"/>
			<stop  offset="1" style="stop-color:#F05A28"/>
		</linearGradient>
		<path class="st0" d="M146.2,217.1H0l7.7-37.2L78,116.4C102,95,114.1,77.5,114.1,63.9c0-4.8-1.3-8.3-3.8-10.7
			c-2.5-2.4-5.7-3.6-9.6-3.6C89,49.6,75.4,56.8,59.8,71L32.7,33.5C55.4,12.1,81.7,1.3,111.4,1.3c17.8,0,32.1,4.8,42.9,14.5
			c10.9,9.7,16.3,22.7,16.3,39.2c0,14.7-4.2,28.6-12.7,41.5c-8.4,12.9-22.9,28.2-43.4,45.8l-29.8,25.6v1.7h71.3L146.2,217.1z"/>
	</g>
</g>
<g>
	<g>
		<path class="st1" d="M188.5,217h-12.6l4-19.2h-11.2l-4.1,19.2H152l10-47.2h12.6l-3.6,17.5h11.2l3.6-17.5h12.7L188.5,217z"/>
	</g>
	<g>
		<path class="st1" d="M211.1,199.8l-3.6,17.2h-12.6l10-47.2h12.5c5.4,0,9.6,1.1,12.5,3.2c2.9,2.2,4.3,5.4,4.3,9.7
			c0,3.4-0.8,6.3-2.3,8.8c-1.5,2.5-3.8,4.4-6.8,5.7l7.2,16.7l1.3,3.1h-13.8l-6.3-17.2H211.1z M213.1,190.2h1.6c2,0,3.7-0.6,4.9-1.8
			c1.2-1.2,1.8-2.8,1.8-4.9c0-1.3-0.4-2.4-1.1-3.1c-0.7-0.7-1.8-1-3.2-1h-1.7L213.1,190.2z"/>
	</g>
</g>
</svg>
