<?xml version="1.0" encoding="utf-8"?>
<!-- Generator: Adobe Illustrator 19.0.1, SVG Export Plug-In . SVG Version: 6.00 Build 0)  -->
<!DOCTYPE svg PUBLIC "-//W3C//DTD SVG 1.1//EN" "http://www.w3.org/Graphics/SVG/1.1/DTD/svg11.dtd">
<svg version="1.1" id="Layer_1" xmlns="http://www.w3.org/2000/svg" xmlns:xlink="http://www.w3.org/1999/xlink" x="0px" y="0px"
	 width="20px" height="20px" viewBox="0 0 20 20" style="enable-background:new 0 0 20 20;" xml:space="preserve">
<style type="text/css">
	.st0{fill:url(#SVGID_1_);}
</style>
<g>
	<linearGradient id="SVGID_1_" gradientUnits="userSpaceOnUse" x1="10" y1="24.4981" x2="10" y2="6.2257">
		<stop  offset="0" style="stop-color:#FFF100"/>
		<stop  offset="1" style="stop-color:#F05A28"/>
	</linearGradient>
	<path class="st0" d="M19.2,8.8c0-0.3-0.1-0.7-0.2-1.2c-0.1-0.4-0.3-0.9-0.5-1.4c-0.2-0.5-0.6-1-1-1.5c-0.2-0.2-0.3-0.4-0.5-0.6
		c0.3-1.1-0.3-2.1-0.3-2.1c-1.1-0.1-1.8,0.3-2,0.5c0,0-0.1,0-0.1-0.1c-0.2-0.1-0.4-0.1-0.6-0.2c-0.2-0.1-0.4-0.1-0.6-0.2
		c-0.2,0-0.4-0.1-0.6-0.1c0,0-0.1,0-0.1,0C12.1,0.6,10.8,0,10.8,0C9.3,1,9,2.3,9,2.3s0,0,0,0.1c-0.1,0-0.2,0-0.2,0.1
		c-0.1,0-0.2,0.1-0.3,0.1C8.3,2.6,8.2,2.6,8,2.7C7.8,2.8,7.6,2.9,7.4,3C7.2,3.1,6.9,3.3,6.7,3.4c0,0-0.1,0-0.1,0
		C4.6,2.6,2.8,3.6,2.8,3.6c-0.2,2.2,0.8,3.6,1,3.9c0,0.1-0.1,0.3-0.1,0.4c-0.2,0.5-0.3,1-0.3,1.5c0,0.1,0,0.2,0,0.2
		c-1.9,0.9-2.5,2.9-2.5,2.9c1.6,1.8,3.5,2,3.5,2c0,0,0,0,0,0c0.2,0.4,0.5,0.8,0.8,1.2c0.1,0.2,0.3,0.3,0.4,0.5
		c-0.6,1.7,0.1,3.1,0.1,3.1c1.8,0.1,3-0.8,3.2-1c0.2,0.1,0.4,0.1,0.5,0.2c0.5,0.1,1.1,0.2,1.7,0.2c0.1,0,0.3,0,0.4,0l0.1,0l0,0
		l0.1,0l0.1,0l0,0C12.6,19.8,14,20,14,20c1.1-1.1,1.1-2.2,1.1-2.4l0,0c0,0,0,0,0,0c0,0,0,0,0,0c0,0,0,0,0,0c0,0,0,0,0-0.1
		c0.2-0.2,0.4-0.3,0.6-0.5c0.4-0.4,0.8-0.8,1.1-1.3c0,0,0.1-0.1,0.1-0.1c1.2,0.1,2-0.7,2-0.7c-0.2-1.2-0.9-1.8-1.1-2l0,0
		c0,0,0,0,0,0c0,0,0,0,0,0s0,0,0,0c0,0,0,0,0,0c0-0.1,0-0.1,0-0.2c0-0.1,0-0.3,0-0.4l0-0.1l0,0l0,0c0,0,0,0,0,0l0-0.1l0-0.1
		c0,0,0-0.1,0-0.1c0,0,0-0.1,0-0.1l0-0.1l0-0.1c0-0.1,0-0.3-0.1-0.4c-0.1-0.5-0.3-1-0.6-1.5c-0.3-0.5-0.6-0.9-1-1.2
		c-0.4-0.3-0.8-0.6-1.3-0.8C14.4,7.2,14,7.1,13.5,7c-0.2,0-0.5,0-0.7,0l-0.1,0l0,0c0,0,0,0,0,0l0,0l-0.1,0c0,0-0.1,0-0.1,0
		c-0.1,0-0.2,0-0.4,0.1c-0.5,0.1-0.9,0.3-1.3,0.5c-0.4,0.2-0.7,0.5-1,0.9C9.5,8.7,9.2,9.1,9.1,9.5c-0.1,0.4-0.2,0.8-0.3,1.2
		c0,0.1,0,0.2,0,0.3c0,0,0,0,0,0.1l0,0.1c0,0,0,0.1,0,0.1c0,0.2,0.1,0.4,0.1,0.6c0.1,0.4,0.3,0.7,0.5,1c0.2,0.3,0.4,0.5,0.7,0.7
		c0.3,0.2,0.5,0.3,0.8,0.4c0.3,0.1,0.5,0.1,0.8,0.1c0,0,0.1,0,0.1,0c0,0,0,0,0.1,0c0,0,0,0,0.1,0c0,0,0.1,0,0.1,0c0,0,0,0,0,0l0,0
		c0,0,0,0,0,0c0,0,0.1,0,0.1,0c0,0,0.1,0,0.1,0c0.1,0,0.1,0,0.2,0c0.1,0,0.2-0.1,0.3-0.1c0.1-0.1,0.2-0.1,0.3-0.2c0,0,0,0,0.1-0.1
		c0.1-0.1,0.1-0.2,0-0.3c-0.1-0.1-0.2-0.1-0.3,0c0,0,0,0-0.1,0c-0.1,0-0.2,0.1-0.2,0.1c-0.1,0-0.2,0-0.3,0.1c0,0-0.1,0-0.1,0
		c0,0,0,0-0.1,0c0,0,0,0-0.1,0c0,0,0,0-0.1,0c0,0-0.1,0-0.1,0c0,0,0,0,0,0l0,0l0,0c0,0,0,0,0,0c0,0-0.1,0-0.1,0
		c-0.2,0-0.4-0.1-0.6-0.2c-0.2-0.1-0.4-0.2-0.6-0.4c-0.2-0.2-0.3-0.3-0.4-0.5C10.1,12,10,11.8,10,11.5c0-0.1,0-0.2,0-0.4
		c0,0,0-0.1,0-0.1c0,0,0,0,0,0l0,0l0,0c0,0,0,0,0,0c0-0.1,0-0.1,0-0.2c0.1-0.5,0.4-1,0.8-1.4c0.1-0.1,0.2-0.2,0.3-0.3
		c0.1-0.1,0.2-0.2,0.4-0.2c0.1-0.1,0.3-0.1,0.4-0.1c0.1,0,0.3-0.1,0.4-0.1c0.1,0,0.1,0,0.2,0c0,0,0,0,0,0l0.1,0l0,0c0,0,0,0,0,0l0,0
		l0.1,0c0.2,0,0.3,0,0.5,0.1c0.3,0.1,0.6,0.2,0.9,0.3c0.6,0.3,1,0.8,1.3,1.4c0.1,0.3,0.3,0.6,0.3,0.9c0,0.1,0,0.2,0,0.2l0,0.1l0,0.1
		c0,0,0,0,0,0.1c0,0,0,0,0,0.1l0,0.1l0,0.1c0,0,0,0.1,0,0.1c0,0.1,0,0.2,0,0.3c0,0.1,0,0.2,0,0.3c0,0.1,0,0.2-0.1,0.3
		c0,0.2-0.1,0.3-0.2,0.5c-0.1,0.3-0.3,0.6-0.5,0.9c-0.4,0.6-1,1.1-1.7,1.4c-0.3,0.1-0.7,0.3-1,0.3c-0.2,0-0.4,0-0.5,0.1l0,0l0,0
		l-0.1,0l-0.1,0l0,0c0,0,0,0,0,0l0,0c-0.1,0-0.2,0-0.3,0c-0.4,0-0.8-0.1-1.1-0.2c-0.4-0.1-0.7-0.3-1.1-0.4c-0.7-0.4-1.3-0.9-1.8-1.5
		c-0.2-0.3-0.4-0.6-0.6-1c-0.2-0.3-0.3-0.7-0.4-1.1C6.1,11.6,6,11.2,6,10.9l0-0.1l0,0l0,0l0,0l0-0.1l0,0l0,0l0,0l0-0.1l0,0
		c0,0,0,0,0,0l0,0c0,0,0-0.1,0-0.1c0-0.2,0-0.4,0-0.6c0-0.2,0.1-0.4,0.1-0.6c0-0.2,0.1-0.4,0.1-0.6c0.1-0.4,0.2-0.7,0.4-1.1
		c0.3-0.7,0.7-1.3,1.2-1.8C8,5.7,8.1,5.6,8.2,5.4c0.1-0.1,0.3-0.2,0.4-0.3C8.8,5.1,8.9,5,9.1,4.9c0.1,0,0.2-0.1,0.2-0.1
		c0,0,0.1,0,0.1-0.1c0,0,0.1,0,0.1,0C9.7,4.6,9.8,4.6,10,4.5c0,0,0.1,0,0.1,0c0,0,0.1,0,0.1,0c0.1,0,0.2,0,0.2-0.1c0,0,0.1,0,0.1,0
		c0,0,0.1,0,0.1,0c0,0,0.1,0,0.1,0l0.1,0l0.1,0c0,0,0.1,0,0.1,0c0,0,0.1,0,0.1,0c0,0,0.1,0,0.1,0c0,0,0.1,0,0.1,0l0.1,0l0,0l0,0
		c0,0,0.1,0,0.1,0l0.1,0c0,0,0,0,0,0l0,0l0,0c0,0,0.1,0,0.1,0c0.2,0,0.3,0,0.5,0c0.3,0,0.6,0,0.9,0.1c0.6,0.1,1.2,0.3,1.7,0.6
		c0.5,0.3,1,0.6,1.4,0.9c0,0,0.1,0,0.1,0.1c0,0,0,0,0.1,0.1c0,0,0.1,0.1,0.1,0.1c0,0,0.1,0.1,0.1,0.1c0,0,0.1,0.1,0.1,0.1
		c0.2,0.2,0.3,0.4,0.5,0.6c0.3,0.4,0.5,0.7,0.7,1.1c0,0,0,0,0,0.1c0,0,0,0,0,0.1c0,0,0,0.1,0.1,0.1c0,0,0,0.1,0.1,0.1
		c0,0,0,0.1,0.1,0.1c0.1,0.2,0.1,0.3,0.2,0.5c0.1,0.2,0.1,0.5,0.2,0.6c0,0.1,0.1,0.1,0.2,0.1c0.1,0,0.1-0.1,0.1-0.2
		C19.2,9.3,19.2,9.1,19.2,8.8z"/>
</g>
</svg>
