<?xml version="1.0" encoding="utf-8"?>
<!-- Generator: Adobe Illustrator 20.1.0, SVG Export Plug-In . SVG Version: 6.00 Build 0)  -->
<svg version="1.1" id="Layer_1" xmlns="http://www.w3.org/2000/svg" xmlns:xlink="http://www.w3.org/1999/xlink" x="0px" y="0px"
	 width="238px" height="218px" viewBox="0 0 238 218" style="enable-background:new 0 0 238 218;" xml:space="preserve">
<style type="text/css">
	.st0{fill:url(#SVGID_1_);}
	.st1{fill:url(#SVGID_2_);}
</style>
<g>
	<linearGradient id="SVGID_1_" gradientUnits="userSpaceOnUse" x1="119" y1="215.7004" x2="119" y2="0.6126">
		<stop  offset="0" style="stop-color:#3BB0C9"/>
		<stop  offset="1" style="stop-color:#0078AA"/>
	</linearGradient>
	<path class="st0" d="M119,51.8c6.9,0,12.5,5.6,12.5,12.5c0,6.9-5.6,12.5-12.5,12.5s-12.5-5.6-12.5-12.5
		C106.5,57.4,112.1,51.8,119,51.8 M119,37.4c-14.9,0-26.9,12-26.9,26.9c0,14.9,12,26.9,26.9,26.9s26.9-12,26.9-26.9
		C145.9,49.4,133.9,37.4,119,37.4L119,37.4z"/>
	<linearGradient id="SVGID_2_" gradientUnits="userSpaceOnUse" x1="119" y1="215.7004" x2="119" y2="0.6126">
		<stop  offset="0" style="stop-color:#3BB0C9"/>
		<stop  offset="1" style="stop-color:#0078AA"/>
	</linearGradient>
	<path class="st1" d="M119,14.8c39.3,0,71.3,33.9,71.3,75.6c0,20.3-7.5,39.4-21.2,53.7l-23.2,24.4h0L119,196.7l-26.9-28.3h0
		l-23.2-24.4c-13.6-14.3-21.2-33.4-21.2-53.7C47.7,48.7,79.7,14.8,119,14.8 M119,0.4c-47.3,0-85.7,40.3-85.7,90
		c0,24.9,9.6,47.4,25.1,63.7h0l0.2,0.3l60.3,63.4l60.3-63.4l0.2-0.2h0c15.5-16.3,25.2-38.8,25.2-63.7C204.7,40.7,166.3,0.4,119,0.4
		L119,0.4z"/>
</g>
</svg>
