<?xml version="1.0" encoding="utf-8"?>
<!-- Generator: Adobe Illustrator 20.1.0, SVG Export Plug-In . SVG Version: 6.00 Build 0)  -->
<svg version="1.1" id="Layer_1" xmlns="http://www.w3.org/2000/svg" xmlns:xlink="http://www.w3.org/1999/xlink" x="0px" y="0px"
	 width="238px" height="218px" viewBox="0 0 238 218" enable-background="new 0 0 238 218" xml:space="preserve">
<g>
	<linearGradient id="SVGID_1_" gradientUnits="userSpaceOnUse" x1="121.5863" y1="217.1083" x2="121.5863" y2="-2.2911">
		<stop  offset="0" style="stop-color:#B280B8"/>
		<stop  offset="1" style="stop-color:#8A4F9E"/>
	</linearGradient>
	<circle fill="url(#SVGID_1_)" cx="121.6" cy="28.2" r="27.5"/>
	<linearGradient id="SVGID_2_" gradientUnits="userSpaceOnUse" x1="120.7154" y1="217.1083" x2="120.7154" y2="-2.2911">
		<stop  offset="0" style="stop-color:#B280B8"/>
		<stop  offset="1" style="stop-color:#8A4F9E"/>
	</linearGradient>
	<path fill="url(#SVGID_2_)" d="M212.5,137.3c0-5.3-2.1-9.8-5.2-12.1c-7.2-28.5-40.8-50.1-81.2-50.1c-17.9,0-34.5,4.3-48.1,11.5
		c-19.9-15.8-33.5-0.8-33.5-0.8c3.5,3.1,9.7,12.5,12.6,17c-6.1,6.9-10.4,14.8-12.4,23.2l-4.2,1.2c-8.3,2.3-13.2,10.8-10.9,19.1
		l4.4,16c2.3,8.3,10.8,13.2,19.1,10.9l5.1-1.4c5.7,6.1,12.8,11.4,21,15.6l-3.3,11.9c-2.2,7.9,2.5,16.1,10.4,18.3
		c6.2,1.7,12.7-0.7,16.3-6l9.5-14.1c4.6,0.6,9.3,0.9,14.1,0.9c5.8,0,11.5-0.5,17-1.3c-2.1,7.9,2.6,15.9,10.5,18.1v0
		c6.2,1.7,12.7-0.7,16.3-6l17.9-26.7c12.4-5.9,20.8-17,20.8-29.8c0-1.3-0.1-2.6-0.3-3.9C210.8,146.2,212.5,142,212.5,137.3z
		 M70,131.1c-4,0-7.3-3.3-7.3-7.3c0-4,3.3-7.3,7.3-7.3s7.3,3.3,7.3,7.3C77.3,127.8,74,131.1,70,131.1z M98.8,100.9
		c-2.2,1.2-4.9,0.4-6.1-1.8c-1.2-2.2-0.4-4.9,1.8-6.1c1.1-0.6,28.1-15.1,58.5-0.1c2.2,1.1,3.1,3.8,2,6c-0.8,1.6-2.4,2.5-4,2.5
		c-0.7,0-1.3-0.1-2-0.5C122.8,88,99.1,100.7,98.8,100.9z"/>
</g>
</svg>
