<?xml version="1.0" encoding="utf-8"?>
<!-- Generator: Adobe Illustrator 20.1.0, SVG Export Plug-In . SVG Version: 6.00 Build 0)  -->
<svg version="1.1" id="Layer_1" xmlns="http://www.w3.org/2000/svg" xmlns:xlink="http://www.w3.org/1999/xlink" x="0px" y="0px"
	 width="238px" height="218px" viewBox="0 0 238 218" style="enable-background:new 0 0 238 218;" xml:space="preserve">
<style type="text/css">
	.st0{fill:url(#SVGID_1_);}
	.st1{fill:url(#SVGID_2_);}
	.st2{fill:url(#SVGID_3_);}
	.st3{fill:url(#SVGID_4_);}
	.st4{fill:url(#SVGID_5_);}
	.st5{fill:url(#SVGID_6_);}
	.st6{fill:url(#SVGID_7_);}
	.st7{fill:url(#SVGID_8_);}
	.st8{fill:url(#SVGID_9_);}
	.st9{fill:url(#SVGID_10_);}
	.st10{fill:url(#SVGID_11_);}
	.st11{fill:url(#SVGID_12_);}
	.st12{fill:url(#SVGID_13_);}
	.st13{fill:url(#SVGID_14_);}
</style>
<g>
	<g>
		<linearGradient id="SVGID_1_" gradientUnits="userSpaceOnUse" x1="118.9153" y1="212.9562" x2="118.9153" y2="-0.3823">
			<stop  offset="0" style="stop-color:#3BB0C9"/>
			<stop  offset="1" style="stop-color:#0078AA"/>
		</linearGradient>
		<path class="st0" d="M118.1,186.1v9c0,0.4,0.4,0.8,0.8,0.8s0.8-0.4,0.8-0.8v-9c-0.2,0-0.5,0-0.7,0
			C118.7,186.1,118.4,186.1,118.1,186.1z"/>
		<linearGradient id="SVGID_2_" gradientUnits="userSpaceOnUse" x1="151.3378" y1="212.9562" x2="151.3378" y2="-0.3823">
			<stop  offset="0" style="stop-color:#3BB0C9"/>
			<stop  offset="1" style="stop-color:#0078AA"/>
		</linearGradient>
		<path class="st1" d="M149.8,177.7c-0.5,0.3-0.9,0.5-1.4,0.8l4.4,7.7c0.1,0.3,0.4,0.4,0.7,0.4c0.1,0,0.3,0,0.4-0.1
			c0.4-0.2,0.5-0.7,0.3-1.1L149.8,177.7z"/>
		<linearGradient id="SVGID_3_" gradientUnits="userSpaceOnUse" x1="86.5141" y1="212.9562" x2="86.5141" y2="-0.3823">
			<stop  offset="0" style="stop-color:#3BB0C9"/>
			<stop  offset="1" style="stop-color:#0078AA"/>
		</linearGradient>
		<path class="st2" d="M83.6,185.4c-0.2,0.4-0.1,0.9,0.3,1.1c0.1,0.1,0.3,0.1,0.4,0.1c0.3,0,0.5-0.1,0.7-0.4l4.5-7.8
			c-0.5-0.3-0.9-0.5-1.4-0.8L83.6,185.4z"/>
	</g>
	<g>
		<linearGradient id="SVGID_4_" gradientUnits="userSpaceOnUse" x1="119" y1="212.9562" x2="119" y2="-0.3823">
			<stop  offset="0" style="stop-color:#3BB0C9"/>
			<stop  offset="1" style="stop-color:#0078AA"/>
		</linearGradient>
		<path class="st3" d="M128.2,33.7v-8.4h4.2c2.4,0,4.3-1.9,4.3-4.3V4.3c0-2.4-1.9-4.3-4.3-4.3h-27.1C103,0,101,1.9,101,4.3V21
			c0,2.4,1.9,4.3,4.3,4.3h4.8v8.3c-18.6,1.8-35.5,9-49.2,20.1l-4.4-4.4l0.5-0.5c1.7-1.7,1.7-4.4,0-6.1l-4.3-4.3
			c-0.8-0.8-1.9-1.3-3.1-1.3c-1.1,0-2.2,0.4-3.1,1.3L38,47.1c-1.7,1.7-1.7,4.4,0,6.1l4.3,4.3c0.8,0.8,1.9,1.3,3.1,1.3
			c1.1,0,2.2-0.4,3.1-1.3l4.3-4.3l-3.7,3.7l4.1,4.1c-16.4,16.7-26.5,39.5-26.5,64.7c0,51,41.3,92.3,92.3,92.3
			c51,0,92.3-41.3,92.3-92.3C211.3,77.6,174.9,38.3,128.2,33.7z M119,200.1c-41.1,0-74.6-33.5-74.6-74.6c0-41.1,33.5-74.6,74.6-74.6
			s74.6,33.5,74.6,74.6C193.6,166.6,160.1,200.1,119,200.1z"/>
		<linearGradient id="SVGID_5_" gradientUnits="userSpaceOnUse" x1="118.9154" y1="212.9562" x2="118.9154" y2="-0.3823">
			<stop  offset="0" style="stop-color:#3BB0C9"/>
			<stop  offset="1" style="stop-color:#0078AA"/>
		</linearGradient>
		<path class="st4" d="M119.7,64.9v-8.1c0-0.4-0.4-0.8-0.8-0.8c-0.4,0-0.8,0.4-0.8,0.8v8.1c0.3,0,0.6,0,0.9,0
			C119.2,64.9,119.5,64.9,119.7,64.9z"/>
		<linearGradient id="SVGID_6_" gradientUnits="userSpaceOnUse" x1="86.3318" y1="212.9562" x2="86.3318" y2="-0.3823">
			<stop  offset="0" style="stop-color:#3BB0C9"/>
			<stop  offset="1" style="stop-color:#0078AA"/>
		</linearGradient>
		<path class="st5" d="M83.9,65.3c-0.4,0.2-0.5,0.7-0.3,1.1l4.1,7.1c0.5-0.3,0.9-0.5,1.4-0.8L85,65.6C84.8,65.2,84.3,65.1,83.9,65.3
			z"/>
		<linearGradient id="SVGID_7_" gradientUnits="userSpaceOnUse" x1="62.4498" y1="212.9562" x2="62.4498" y2="-0.3823">
			<stop  offset="0" style="stop-color:#3BB0C9"/>
			<stop  offset="1" style="stop-color:#0078AA"/>
		</linearGradient>
		<path class="st6" d="M58.6,92l7.3,4.2c0.3-0.5,0.5-0.9,0.8-1.4l-7.3-4.2c-0.4-0.2-0.9-0.1-1.1,0.3C58.1,91.3,58.2,91.8,58.6,92z"
			/>
		<linearGradient id="SVGID_8_" gradientUnits="userSpaceOnUse" x1="175.2615" y1="212.9562" x2="175.2615" y2="-0.3823">
			<stop  offset="0" style="stop-color:#3BB0C9"/>
			<stop  offset="1" style="stop-color:#0078AA"/>
		</linearGradient>
		<path class="st7" d="M179.2,159.8l-7.5-4.3c-0.3,0.5-0.5,0.9-0.8,1.4l7.5,4.3c0.1,0.1,0.3,0.1,0.4,0.1c0.3,0,0.5-0.1,0.7-0.4
			C179.7,160.5,179.6,160,179.2,159.8z"/>
		<linearGradient id="SVGID_9_" gradientUnits="userSpaceOnUse" x1="53.6682" y1="212.9562" x2="53.6682" y2="-0.3823">
			<stop  offset="0" style="stop-color:#3BB0C9"/>
			<stop  offset="1" style="stop-color:#0078AA"/>
		</linearGradient>
		<path class="st8" d="M58.4,125.5c0-0.1,0-0.3,0-0.4h-8.6c-0.4,0-0.8,0.4-0.8,0.8c0,0.4,0.4,0.8,0.8,0.8h8.7
			C58.4,126.3,58.4,125.9,58.4,125.5z"/>
		<linearGradient id="SVGID_10_" gradientUnits="userSpaceOnUse" x1="184.2463" y1="212.9562" x2="184.2463" y2="-0.3823">
			<stop  offset="0" style="stop-color:#3BB0C9"/>
			<stop  offset="1" style="stop-color:#0078AA"/>
		</linearGradient>
		<path class="st9" d="M188.1,125.1h-8.5c0,0.1,0,0.3,0,0.4c0,0.4,0,0.8,0,1.2h8.5c0.4,0,0.8-0.4,0.8-0.8
			C188.9,125.5,188.5,125.1,188.1,125.1z"/>
		<linearGradient id="SVGID_11_" gradientUnits="userSpaceOnUse" x1="62.6315" y1="212.9562" x2="62.6315" y2="-0.3823">
			<stop  offset="0" style="stop-color:#3BB0C9"/>
			<stop  offset="1" style="stop-color:#0078AA"/>
		</linearGradient>
		<path class="st10" d="M58.6,159.8c-0.4,0.2-0.5,0.7-0.3,1.1c0.1,0.3,0.4,0.4,0.7,0.4c0.1,0,0.3,0,0.4-0.1l7.7-4.4
			c-0.3-0.5-0.5-0.9-0.8-1.4L58.6,159.8z"/>
		<linearGradient id="SVGID_12_" gradientUnits="userSpaceOnUse" x1="175.4434" y1="212.9562" x2="175.4434" y2="-0.3823">
			<stop  offset="0" style="stop-color:#3BB0C9"/>
			<stop  offset="1" style="stop-color:#0078AA"/>
		</linearGradient>
		<path class="st11" d="M179.2,92c0.4-0.2,0.5-0.7,0.3-1.1c-0.2-0.4-0.7-0.5-1.1-0.3l-7.2,4.1c0.3,0.5,0.5,0.9,0.8,1.4L179.2,92z"/>
		<linearGradient id="SVGID_13_" gradientUnits="userSpaceOnUse" x1="151.52" y1="212.9562" x2="151.52" y2="-0.3823">
			<stop  offset="0" style="stop-color:#3BB0C9"/>
			<stop  offset="1" style="stop-color:#0078AA"/>
		</linearGradient>
		<path class="st12" d="M153.9,65.3c-0.4-0.2-0.9-0.1-1.1,0.3l-4.1,7.1c0.5,0.3,0.9,0.5,1.4,0.8l4.1-7.1
			C154.4,66,154.3,65.5,153.9,65.3z"/>
		<linearGradient id="SVGID_14_" gradientUnits="userSpaceOnUse" x1="119" y1="212.9562" x2="119" y2="-0.3823">
			<stop  offset="0" style="stop-color:#3BB0C9"/>
			<stop  offset="1" style="stop-color:#0078AA"/>
		</linearGradient>
		<path class="st13" d="M123.3,118.1l-1.5-45l-2.7-3.3l-2.7,3.3l-1.5,44.9c-2.9,1.5-4.9,4.5-4.9,8c0,4.9,4,9,9,9c4.9,0,8.9-4,8.9-9
			C128,122.5,126.1,119.6,123.3,118.1z M119,130.2c-2.3,0-4.2-1.9-4.2-4.2s1.9-4.2,4.2-4.2c2.3,0,4.2,1.9,4.2,4.2
			S121.4,130.2,119,130.2z"/>
	</g>
</g>
</svg>
