<?xml version="1.0" encoding="utf-8"?>
<!-- Generator: Adobe Illustrator 20.1.0, SVG Export Plug-In . SVG Version: 6.00 Build 0)  -->
<svg version="1.1" id="Layer_1" xmlns="http://www.w3.org/2000/svg" xmlns:xlink="http://www.w3.org/1999/xlink" x="0px" y="0px"
	 width="238px" height="218px" viewBox="0 0 238 218" enable-background="new 0 0 238 218" xml:space="preserve">
<g>
	
		<linearGradient id="SVGID_1_" gradientUnits="userSpaceOnUse" x1="119" y1="-2" x2="119" y2="227.0022" gradientTransform="matrix(1 0 0 -1 0 220)">
		<stop  offset="0" style="stop-color:#3BB0C9"/>
		<stop  offset="1" style="stop-color:#0078AA"/>
	</linearGradient>
	<path fill="url(#SVGID_1_)" d="M119,0C59.1,0,10.3,48.7,10.3,108.7S59.1,217.3,119,217.3s108.7-48.7,108.7-108.7S178.9,0,119,0z
		 M119,212.1c-57,0-103.4-46.4-103.4-103.4S62,5.2,119,5.2s103.4,46.4,103.4,103.4S176,212.1,119,212.1z"/>
	
		<linearGradient id="SVGID_2_" gradientUnits="userSpaceOnUse" x1="170.55" y1="-2" x2="170.55" y2="227.0022" gradientTransform="matrix(1 0 0 -1 0 220)">
		<stop  offset="0" style="stop-color:#3BB0C9"/>
		<stop  offset="1" style="stop-color:#0078AA"/>
	</linearGradient>
	<path fill="url(#SVGID_2_)" d="M127.6,84.3c-2.1,0-3.9,1.8-3.9,3.9v56c0,2.1,1.8,3.9,3.9,3.9h3.2v-38.9h5V148h1.8v-43.7h5V148h1.8
		v-38.3h5V148h1.8V99h5v49h1.8v-42.2h5V148h1.8v-40.5h5V148h1.8V94.7h5V148h1.8v-41.4h5V148h1.8v-35.8h5V148h1.8v-34.1h5V148h1.8
		v-38.9h5V148h1.8v-40.5h5v37.2l1.8-4.8v-36.4h5c-0.3-6.6-1.3-13-2.9-19.2L127.6,84.3L127.6,84.3z"/>
	
		<linearGradient id="SVGID_3_" gradientUnits="userSpaceOnUse" x1="119.15" y1="-2" x2="119.15" y2="227.0022" gradientTransform="matrix(1 0 0 -1 0 220)">
		<stop  offset="0" style="stop-color:#3BB0C9"/>
		<stop  offset="1" style="stop-color:#0078AA"/>
	</linearGradient>
	<path fill="url(#SVGID_3_)" d="M50.6,178.5l0.9-0.9c1.1-0.2,2.2-1.5,3.4-1.5c0.9,0,1.7,1,2,1c1.3,0,3.1-1.1,4.4-1.1
		c0.4,0,0.9,0.2,1.3,0.4l-6.9,6.9c0.4,0.3,0.8,0.7,1.2,1l7-7c0.6,0.4,1.2,0.8,1.7,1c1.6,0.5,3.3,0.4,4.9,0.4c0.6,0,1.1,0.1,1.7,0.2
		l-9.7,9.7c0.4,0.3,0.9,0.6,1.3,0.9L74.4,179c2.8,0.4,5.5,1,8.2,1.7l-12.5,12.5c0.5,0.3,0.9,0.6,1.4,0.8l12.9-12.9l4.2,1.2
		c1.1,0.3,2.7,0.4,4,0.6l-14.4,14.4c0.5,0.2,1,0.5,1.5,0.7l14.7-14.7c1.3,0.6,2.1,1.6,3.5,2.2c1.4,0.6,2.9,0,4.1,0.1L86.8,201
		c0.6,0.2,1.1,0.4,1.7,0.6l15.1-15.1c1.9,1.1,3.4,2.8,5.9,3.1h0.9l-14.2,14.2c0.6,0.1,1.2,0.3,1.8,0.4l15-15h0.1
		c2.4,0.2,5.1,1.5,7.5,2.3l-14.1,14.1c0.7,0.1,1.3,0.2,2,0.3l13.9-13.9c2.3,0.6,5.5,1.6,7.9,2l-12.4,12.4h2.3l12.2-12.2
		c1.5-0.1,3-0.7,4.5-0.7c2.2,0,4,0.3,6,0.1l-12.1,12.1c0.9-0.1,1.7-0.2,2.6-0.3l12.5-12.5c5.9-1.8,11.7-3.9,17.1-7.1l-16.9,16.9
		c1.1-0.3,2.2-0.6,3.2-1l15.4-15.4c1.3,2,1.5,1.9,3.7,1.9c1.3,0,3-0.3,4.7-0.4l-6.1,6.1c1.9-1.1,3.9-2.2,5.7-3.5l2.7-2.7h0.1
		c0.3,0,0.6,0.1,1,0.1c11.7-8.4,21.4-19.4,28.4-32H33.4C38,164.3,43.8,171.9,50.6,178.5L50.6,178.5z"/>
	
		<linearGradient id="SVGID_4_" gradientUnits="userSpaceOnUse" x1="68.45" y1="-2" x2="68.45" y2="227.0022" gradientTransform="matrix(1 0 0 -1 0 220)">
		<stop  offset="0" style="stop-color:#3BB0C9"/>
		<stop  offset="1" style="stop-color:#0078AA"/>
	</linearGradient>
	<path fill="url(#SVGID_4_)" d="M114.2,144.1V139c-0.5,0.1-1.1,0.1-1.6,0.1c-3,0-5.4-1.1-6.7-3c-2.4,0.3-3.3-0.6-4-1.7
		c-0.3-0.5-0.6-0.8-1.2-1.1c-2.3-1.1-5.1-1.6-8-2.1c-1.5-0.3-3.1-0.5-4.6-0.9c-2.6-0.6-5.3-1.4-7.9-2.1c-3.2-0.9-6.4-1.8-9.5-2.4
		l-1.4-0.3c-5.2-1-10.4-2.1-15.2-4.3c-0.9,0.3-1.7,0.6-2,0.6c-2.2,0-3.7-0.4-4.9-0.6c-2.1-0.5-3.4-0.8-6.9,1l-1.3,0.7
		c-2.1,1.1-4.2,2.3-6.6,2.6c-1.6,0.2-3.1-0.2-4.5-0.6s-2.8-0.8-4-0.5c-0.4,0.1-0.8,0.3-1.2,0.6c1.4,8.1,3.7,15.8,6.9,23.1h80.8
		C112.4,148,114.2,146.3,114.2,144.1L114.2,144.1z"/>
	
		<linearGradient id="SVGID_5_" gradientUnits="userSpaceOnUse" x1="36.2" y1="-2" x2="36.2" y2="227.0022" gradientTransform="matrix(1 0 0 -1 0 220)">
		<stop  offset="0" style="stop-color:#3BB0C9"/>
		<stop  offset="1" style="stop-color:#0078AA"/>
	</linearGradient>
	<path fill="url(#SVGID_5_)" d="M28.3,122.8c1.3,0.4,2.6,0.7,3.7,0.6c2-0.3,4-1.4,5.9-2.4l1.3-0.7c4.1-2.1,5.9-1.7,8.2-1.2
		c1,0.2,2.2,0.5,3.8,0.6c-0.7-0.5-1.2-0.9-1.6-1.4c-1.1-1-1.9-1.8-4.3-2.1c-0.8-0.1-1.7-0.1-2.6-0.1c-2.8,0-6.6,0-7.1-4.4
		c-1.3-0.1-2.7-0.1-4.2,0s-3.1,0.2-4.7,0c-1.4-0.2-2.7-0.7-4-1.3l-1.5-0.6c0.1,4.4,0.4,8.7,1,12.9c0.3-0.2,0.7-0.3,1.1-0.4
		C25,121.9,26.7,122.4,28.3,122.8z"/>
	
		<linearGradient id="SVGID_6_" gradientUnits="userSpaceOnUse" x1="85.45" y1="-2" x2="85.45" y2="227.0022" gradientTransform="matrix(1 0 0 -1 0 220)">
		<stop  offset="0" style="stop-color:#3BB0C9"/>
		<stop  offset="1" style="stop-color:#0078AA"/>
	</linearGradient>
	<path fill="url(#SVGID_6_)" d="M89.1,116.1c-2.1-0.1-4.2-0.3-6.2-1.4c-1.3-0.7-2.1-1.5-2.7-2.1c-1.1-1-1.2-1.1-3,0.1
		c-0.8,0.6-1.1,1.4-1.5,2.4c-0.4,1.1-0.9,2.3-2.1,3.1l-0.6,0.5l-0.6-0.5c-1.2-0.9-2-1.8-2.8-2.6c-1.7-1.8-2.4-2.6-4.9-1.9
		c-1.3,0.3-2,1.3-2.8,2.5c-0.7,1-1.5,2.1-2.7,2.8c-0.2,0.1-1.2,0.6-2.4,1c4,1.6,8.5,2.5,12.9,3.4l1.4,0.3c3.1,0.6,6.4,1.6,9.6,2.5
		c2.6,0.7,5.3,1.5,7.8,2.1c1.5,0.3,3,0.6,4.5,0.8c3.1,0.5,6.1,1,8.6,2.3c1,0.5,1.5,1.2,1.9,1.8c0.6,0.8,0.8,1.1,2.7,0.8l0.7-0.1
		l0.3,0.7c1.4,2.8,5.1,2.7,6.9,2.5v-7.9l-0.5,1.2c-2.1-0.8-5.1-2-6.6-4.6c-0.1,0.1-0.3,0.2-0.4,0.2c-0.3,0.2-0.8,0.4-0.9,0.5
		l-0.8,0.9l-0.7-0.9c-0.4-0.5-0.8-1.4-1.2-2.3c-0.3-0.8-1-2.2-1.3-2.4c-0.4-0.2-0.7,0-1.4,0.5c-0.5,0.3-1.1,0.8-1.8,0.5
		c-0.3-0.1-0.7-0.2-1-0.3c-1.9-0.6-4.2-1.3-3.9-5.5C92.3,116.3,90.7,116.2,89.1,116.1z"/>
	
		<linearGradient id="SVGID_7_" gradientUnits="userSpaceOnUse" x1="67.95" y1="-2" x2="67.95" y2="227.0022" gradientTransform="matrix(1 0 0 -1 0 220)">
		<stop  offset="0" style="stop-color:#3BB0C9"/>
		<stop  offset="1" style="stop-color:#0078AA"/>
	</linearGradient>
	<path fill="url(#SVGID_7_)" d="M27,109.7c1.4,0.2,2.8,0.1,4.3,0c1.8-0.1,3.6-0.2,5.4,0.1l0.8,0.1v0.8c0,3.1,1.7,3.2,5.2,3.2
		c1,0,2,0,2.9,0.1c3,0.4,4.1,1.5,5.4,2.6c0.7,0.7,1.5,1.4,2.8,2.1c0.1,0,0.2,0.1,0.3,0.1c1.6-0.6,3.6-1.4,4.1-1.7
		c0.8-0.4,1.4-1.2,2-2.1c0.9-1.3,1.9-2.7,3.9-3.3c3.6-1,5.1,0.6,6.9,2.4c0.5,0.6,1.1,1.2,1.9,1.8c0.4-0.5,0.6-1.1,0.9-1.7
		c0.5-1.1,1-2.4,2.3-3.3c3-2.1,4.1-1.3,5.6,0.1c0.6,0.6,1.2,1.2,2.3,1.7c1.6,0.9,3.4,1,5.3,1.1c2,0.1,4.1,0.3,6.1,1.3l0.6,0.3
		l-0.1,0.7c-0.5,3.2,0.5,3.5,2.4,4c0.3,0.1,0.5,0.2,0.8,0.3c0.1-0.1,0.2-0.1,0.3-0.2c0.7-0.5,1.9-1.3,3.4-0.6
		c0.9,0.4,1.4,1.5,2.3,3.4c0.2,0.3,0.3,0.7,0.5,1c0.1-0.1,0.2-0.1,0.3-0.2c0.4-0.2,0.9-0.5,1.1-0.7l1.2-1.3l0.5,1.7
		c0.8,2.5,3.5,3.6,5.7,4.4V88.2c0-2.1-1.8-3.9-3.9-3.9h-86c-1.9,7.5-3,15.4-3,23.5c0.8,0.2,1.5,0.5,2.3,0.8
		C24.7,109,25.9,109.5,27,109.7L27,109.7z"/>
	
		<linearGradient id="SVGID_8_" gradientUnits="userSpaceOnUse" x1="119.5" y1="-2" x2="119.5" y2="227.0022" gradientTransform="matrix(1 0 0 -1 0 220)">
		<stop  offset="0" style="stop-color:#3BB0C9"/>
		<stop  offset="1" style="stop-color:#0078AA"/>
	</linearGradient>
	<path fill="url(#SVGID_8_)" d="M50.4,48.9c1,0,1.9,0.3,2.7,0.9L65,42.2c-0.1-0.3-0.1-0.6-0.1-0.8c0-2.6,2.1-4.7,4.7-4.7
		c2.5,0,4.6,2,4.7,4.5l11.1,4c0.9-0.9,2.1-1.6,3.5-1.6c2.6,0,4.7,2.1,4.7,4.7v0.2l11.4,5.2c0.8-0.8,2-1.3,3.2-1.3
		c1.4,0,2.6,0.6,3.5,1.6l11.1-4c0.1-2.5,2.1-4.5,4.7-4.5c2.4,0,4.3,1.8,4.6,4.1l10.9,3c0.9-1.1,2.2-1.9,3.7-1.9
		c1.7,0,3.1,0.9,3.9,2.2l10.7-1.9c0.4-2.1,2.3-3.7,4.6-3.7c2.1,0,3.9,1.4,4.5,3.3l10.6,1c0.8-1.5,2.3-2.5,4.1-2.5
		c2.3,0,4.2,1.6,4.6,3.8l11,2.1c-17.5-26.5-47.5-43.9-81.6-43.9c-33.6,0-63.2,16.9-80.8,42.7l7.6-1.1C46.3,50.5,48.2,48.9,50.4,48.9
		z"/>
	
		<linearGradient id="SVGID_9_" gradientUnits="userSpaceOnUse" x1="119" y1="-2" x2="119" y2="227.0022" gradientTransform="matrix(1 0 0 -1 0 220)">
		<stop  offset="0" style="stop-color:#3BB0C9"/>
		<stop  offset="1" style="stop-color:#0078AA"/>
	</linearGradient>
	<path fill="url(#SVGID_9_)" d="M203.1,58.8l-14.2-2.7c-0.8,1.3-2.3,2.2-3.9,2.2c-2.1,0-3.9-1.4-4.5-3.3l-10.6-1
		c-0.8,1.5-2.3,2.5-4.1,2.5c-1.7,0-3.1-0.9-3.9-2.2l-10.7,1.9c-0.4,2.1-2.3,3.7-4.6,3.7c-2.4,0-4.3-1.8-4.6-4.1L131,53
		c-0.9,1.1-2.2,1.9-3.7,1.9c-1.4,0-2.6-0.6-3.5-1.6l-11.1,4c-0.1,2.5-2.1,4.5-4.7,4.5s-4.7-2.1-4.7-4.7v-0.2L92,51.8
		c-0.8,0.8-2,1.3-3.2,1.3c-2.5,0-4.6-2-4.7-4.5l-11.1-4c-0.9,1-2.1,1.6-3.5,1.6c-1,0-1.9-0.3-2.7-0.9L55,52.8
		c0.1,0.3,0.1,0.6,0.1,0.8c0,2.6-2.1,4.7-4.7,4.7c-1.7,0-3.2-0.9-4-2.3l-10.7,1.6c-3.7,5.8-6.7,12.1-9,18.7h184.6
		C209.1,70.2,206.4,64.3,203.1,58.8z"/>
</g>
</svg>
