<?xml version="1.0" encoding="utf-8"?>
<!-- Generator: Adobe Illustrator 19.0.1, SVG Export Plug-In . SVG Version: 6.00 Build 0)  -->
<!DOCTYPE svg PUBLIC "-//W3C//DTD SVG 1.1//EN" "http://www.w3.org/Graphics/SVG/1.1/DTD/svg11.dtd">
<svg version="1.1" id="Layer_1" xmlns="http://www.w3.org/2000/svg" xmlns:xlink="http://www.w3.org/1999/xlink" x="0px" y="0px"
	 width="60px" height="60px" viewBox="0 0 60 60" style="enable-background:new 0 0 60 60;" xml:space="preserve">
<style type="text/css">
	.st0{fill:#476BB2;}
	.st1{fill:#FFFFFF;}
</style>
<g>
	<path class="st0" d="M60.5,36.1l-5.2-22.4c-0.3-1.2-1.1-2.2-2.2-2.7l-20.9-10c-0.6-0.3-1.3-0.4-1.9-0.4c-0.5,0-1.1,0.2-1.5,0.4
		L8,11c-1.1,0.5-1.9,1.5-2.2,2.7L0.7,36.1c-0.2,1,0,2.1,0.5,3c0.1,0.1,0.1,0.2,0.2,0.3l14.4,18c0.8,0.9,1.9,1.5,3.1,1.5l23.2,0
		c1.2,0,2.4-0.5,3.1-1.5l14.4-18C60.5,38.5,60.7,37.3,60.5,36.1z M39,45.3c-0.1,0.2-0.2,0.4-0.1,0.7c0.2,0.6,0.6,1.2,1.1,2
		c0.2,0.3,0.5,0.6,0.7,1c0,0.1,0.1,0.2,0.2,0.3c0.3,0.7,0.1,1.5-0.5,1.8c-0.6,0.3-1.4,0-1.7-0.7c0-0.1-0.1-0.2-0.2-0.3
		c-0.2-0.4-0.2-0.8-0.4-1.1c-0.3-0.8-0.5-1.5-0.9-2.1c-0.2-0.3-0.4-0.3-0.6-0.4c0-0.1-0.2-0.3-0.3-0.5c-0.7,0.3-1.4,0.5-2.1,0.6
		c-3.2,0.7-6.5,0.4-9.4-0.7l-0.3,0.5c-0.2,0.1-0.4,0.1-0.5,0.3c-0.5,0.5-0.6,1.4-1,2.2c-0.1,0.4,0.1,0.7-0.1,1.1
		c0,0.1,0.1,0.2,0.1,0.3c0,0,0,0,0,0c0,0-0.2,0-0.2,0c-0.3,0.7-1.2,1-1.8,0.7c-0.6-0.3-0.9-1.1-0.6-1.8c0-0.1,0.1-0.2,0.1-0.3
		c0.2-0.4,0.4-0.7,0.7-1c0.5-0.7,0.9-1.4,1.1-2c0.1-0.2,0-0.5-0.1-0.7l0.2-0.5c-3.3-2-5.9-5.1-7.2-9l-0.5,0.1
		c-0.1-0.1-0.4-0.3-0.7-0.3c-0.7,0.1-1.4,0.3-2.2,0.6c-0.4,0.1-0.7,0.3-1.1,0.4c-0.1,0-0.2,0-0.3,0.1c0,0,0,0,0,0c0,0,0,0,0,0
		c-0.7,0.2-1.5-0.2-1.6-0.9c-0.2-0.7,0.3-1.3,1.1-1.5c0,0,0,0,0,0c0,0,0,0,0,0c0.1,0,0.2-0.1,0.3-0.1c0.4-0.1,0.8-0.1,1.2-0.1
		c0.9-0.1,1.6-0.2,2.2-0.4c0.2-0.1,0.4-0.4,0.5-0.5l0.5-0.2c-0.6-4.1,0.4-8,2.5-11.3l-0.4-0.4c0-0.2-0.1-0.5-0.3-0.7
		c-0.5-0.5-1.1-0.8-1.9-1.3c-0.4-0.2-0.7-0.3-1-0.6c-0.1-0.1-0.2-0.1-0.3-0.2c0,0,0,0,0,0c-0.6-0.5-0.7-1.3-0.3-1.8
		c0.2-0.3,0.6-0.5,1-0.4c0.3,0,0.6,0.1,0.9,0.3c0.1,0.1,0.2,0.2,0.3,0.2c0.3,0.3,0.5,0.6,0.8,0.9c0.6,0.6,1.1,1.1,1.7,1.5
		c0.3,0.2,0.5,0.1,0.7,0.1c0.1,0.1,0.3,0.2,0.5,0.3c2.1-2.3,4.9-3.9,8.2-4.7c0.8-0.2,1.5-0.3,2.3-0.3l0-0.5c0.2-0.2,0.4-0.4,0.4-0.6
		c0.1-0.7,0-1.4-0.1-2.3c-0.1-0.4-0.2-0.7-0.2-1.2c0-0.1,0-0.2,0-0.3c0,0,0,0,0,0c0-0.8,0.6-1.4,1.2-1.4s1.2,0.6,1.2,1.4
		c0,0.1,0,0.3,0,0.4c0,0.4-0.1,0.8-0.2,1.2c-0.1,0.9-0.2,1.6-0.1,2.3c0,0.3,0.2,0.5,0.4,0.6c0,0.1,0,0.4,0,0.6c4,0.4,7.7,2.2,10.4,5
		l0.5-0.3c0.2,0,0.5,0.1,0.8-0.1c0.6-0.4,1.1-0.9,1.7-1.5c0.3-0.3,0.5-0.6,0.8-0.9c0.1-0.1,0.2-0.2,0.3-0.2c0.6-0.5,1.4-0.4,1.9,0.1
		c0.4,0.5,0.3,1.4-0.3,1.8c-0.1,0.1-0.2,0.2-0.3,0.2c-0.4,0.3-0.7,0.4-1,0.6c-0.7,0.5-1.4,0.8-1.9,1.3c-0.2,0.2-0.2,0.5-0.2,0.7
		c-0.1,0.1-0.3,0.3-0.4,0.4c1.1,1.6,1.9,3.4,2.3,5.4c0.5,2,0.5,3.9,0.3,5.8l0.5,0.1c0.1,0.1,0.3,0.4,0.5,0.5
		c0.6,0.2,1.4,0.3,2.2,0.4c0.4,0,0.8,0,1.2,0.1c0.1,0,0.3,0.1,0.4,0.1c0.7,0.2,1.2,0.9,1.1,1.5c-0.2,0.7-0.9,1.1-1.6,0.9
		c0,0,0,0,0,0c0,0,0,0,0,0c-0.1,0-0.2,0-0.3-0.1c-0.4-0.1-0.7-0.3-1.1-0.4c-0.8-0.3-1.5-0.5-2.2-0.6c-0.3,0-0.5,0.1-0.7,0.3
		c-0.1,0-0.4-0.1-0.5-0.1c-1.2,3.8-3.7,7-7.2,9.1C38.9,45,39,45.3,39,45.3z"/>
	<path class="st0" d="M26.9,25.4c0.2,0.1,0.4,0.2,0.6,0.2c0.6,0,1.1-0.5,1.1-1.1l0,0L29,18c-0.4,0.1-0.9,0.1-1.3,0.2
		c-2.4,0.6-4.5,1.8-6.2,3.4L26.9,25.4L26.9,25.4z"/>
	<path class="st0" d="M32.5,24.5c0,0.2,0.1,0.4,0.2,0.6c0.4,0.5,1,0.5,1.5,0.2l0,0l5.3-3.8c-2-2-4.6-3.3-7.5-3.6L32.5,24.5
		L32.5,24.5z"/>
	<path class="st0" d="M36.7,28.4L36.7,28.4c-0.2,0.2-0.3,0.4-0.3,0.6c-0.1,0.6,0.2,1.2,0.8,1.3l0,0l6.3,1.8c0.1-1.4,0.1-2.8-0.3-4.2
		c-0.3-1.4-0.9-2.7-1.6-3.9L36.7,28.4z"/>
	<polygon class="st0" points="28.8,32.3 30.6,33.1 32.4,32.3 32.8,30.4 31.6,29 29.6,29 28.3,30.4 	"/>
	<path class="st0" d="M36.3,34.1L36.3,34.1c-0.1,0-0.2,0-0.3,0c-0.1,0-0.3,0-0.4,0.1c-0.5,0.3-0.8,0.9-0.5,1.4l0,0l2.5,6.1
		c2.4-1.5,4.3-3.9,5.2-6.5L36.3,34.1z"/>
	<path class="st0" d="M24,30.3c0.2-0.1,0.4-0.2,0.6-0.4c0.4-0.5,0.3-1.1-0.1-1.5l0,0L19.5,24c-1.5,2.4-2.1,5.2-1.8,8.1L24,30.3
		L24,30.3z"/>
	<path class="st0" d="M26.1,35c-0.1-0.5-0.6-0.8-1.1-0.9c-0.1,0-0.1,0-0.2,0l0,0l-6.4,1.1c1,2.8,2.9,5,5.2,6.5l2.5-6l0,0
		C26.2,35.5,26.2,35.2,26.1,35z"/>
	<path class="st0" d="M31.5,37c-0.1,0-0.3-0.2-0.5-0.3c-0.2-0.1-0.3-0.2-0.5-0.2c-0.4,0-0.7,0.5-0.9,0.5h0l-3.2,5.9
		c2.2,0.7,4.6,1,7,0.5c0.4-0.1,0.9-0.3,1.3-0.5L31.5,37L31.5,37z"/>
	<path class="st1" d="M46,35.8c0.2,0,0.4,0.1,0.5,0.1c0.2-0.1,0.4-0.3,0.7-0.3c0.7,0.1,1.4,0.3,2.2,0.6c0.4,0.1,0.7,0.3,1.1,0.4
		c0.1,0,0.2,0,0.3,0.1c0,0,0,0,0,0c0,0,0,0,0,0c0.7,0.2,1.5-0.2,1.6-0.9c0.2-0.7-0.3-1.3-1.1-1.5c-0.1,0-0.3-0.1-0.4-0.1
		c-0.4-0.1-0.8-0.1-1.2-0.1C49,34,48.3,34,47.7,33.8c-0.3-0.1-0.4-0.4-0.5-0.5l-0.5-0.1c0.3-1.9,0.2-3.9-0.3-5.8
		c-0.5-2-1.3-3.8-2.3-5.4c0.1-0.1,0.4-0.3,0.4-0.4c0-0.2,0-0.5,0.2-0.7c0.5-0.5,1.1-0.8,1.9-1.3c0.4-0.2,0.7-0.3,1-0.6
		c0.1-0.1,0.2-0.2,0.3-0.2c0.6-0.5,0.7-1.3,0.3-1.8c-0.4-0.5-1.3-0.6-1.9-0.1c-0.1,0.1-0.2,0.2-0.3,0.2c-0.3,0.3-0.5,0.6-0.8,0.9
		c-0.6,0.6-1.1,1.1-1.7,1.5c-0.2,0.1-0.6,0.1-0.8,0.1l-0.5,0.3c-2.7-2.8-6.4-4.7-10.4-5c0-0.2,0-0.5,0-0.6c-0.2-0.2-0.4-0.3-0.4-0.6
		c-0.1-0.7,0-1.4,0.1-2.3c0.1-0.4,0.2-0.7,0.2-1.2c0-0.1,0-0.2,0-0.4c0-0.8-0.6-1.4-1.2-1.4s-1.2,0.6-1.2,1.4c0,0,0,0,0,0
		c0,0.1,0,0.2,0,0.3c0,0.4,0.1,0.8,0.2,1.2c0.1,0.9,0.2,1.6,0.1,2.3c-0.1,0.3-0.2,0.5-0.4,0.6l0,0.5c-0.7,0.1-1.5,0.2-2.3,0.3
		c-3.2,0.7-6,2.4-8.2,4.7c-0.1-0.1-0.4-0.3-0.5-0.3c-0.2,0-0.4,0.1-0.7-0.1c-0.6-0.4-1.1-0.9-1.7-1.5c-0.3-0.3-0.5-0.6-0.8-0.9
		c-0.1-0.1-0.2-0.2-0.3-0.2c-0.3-0.2-0.6-0.3-0.9-0.3c-0.4,0-0.8,0.1-1,0.4c-0.4,0.5-0.3,1.4,0.3,1.8c0,0,0,0,0,0
		c0.1,0.1,0.2,0.2,0.3,0.2c0.4,0.3,0.7,0.4,1,0.6c0.7,0.5,1.4,0.8,1.9,1.3c0.2,0.2,0.2,0.6,0.3,0.7l0.4,0.4
		c-2.1,3.2-3.1,7.2-2.5,11.3L14,33.3c-0.1,0.2-0.3,0.5-0.5,0.5c-0.6,0.2-1.4,0.3-2.2,0.4c-0.4,0-0.8,0-1.2,0.1
		c-0.1,0-0.2,0.1-0.3,0.1c0,0,0,0,0,0c0,0,0,0,0,0c-0.7,0.2-1.2,0.9-1.1,1.5c0.2,0.7,0.9,1.1,1.6,0.9c0,0,0,0,0,0c0,0,0,0,0,0
		c0.1,0,0.2,0,0.3-0.1c0.4-0.1,0.7-0.3,1.1-0.4c0.8-0.3,1.5-0.5,2.2-0.6c0.3,0,0.6,0.2,0.7,0.3l0.5-0.1c1.3,3.9,3.9,7,7.2,9
		l-0.2,0.5c0.1,0.2,0.2,0.5,0.1,0.7c-0.2,0.6-0.7,1.3-1.1,2c-0.2,0.3-0.5,0.6-0.7,1c0,0.1-0.1,0.2-0.2,0.3c-0.3,0.7-0.1,1.5,0.5,1.8
		c0.6,0.3,1.6,0,2-0.7c0,0,0.2,0,0.2,0c0,0,0,0,0,0c0-0.1-0.1-0.2-0.1-0.3c0.2-0.4,0.1-0.8,0.2-1.1c0.3-0.8,0.5-1.7,0.9-2.2
		c0.1-0.1,0.3-0.2,0.5-0.3l0.3-0.5c2.9,1.1,6.1,1.4,9.4,0.7c0.7-0.2,1.4-0.4,2.1-0.6c0.1,0.1,0.2,0.4,0.3,0.5
		c0.2,0.1,0.4,0.1,0.6,0.4c0.3,0.6,0.6,1.3,0.9,2.1c0.1,0.4,0.2,0.7,0.4,1.1c0,0.1,0.1,0.2,0.2,0.3c0.3,0.7,1.1,1,1.7,0.7
		c0.6-0.3,0.9-1.1,0.5-1.8c0-0.1-0.1-0.2-0.2-0.3c-0.2-0.4-0.4-0.7-0.7-1c-0.5-0.7-0.9-1.4-1.1-2c-0.1-0.3,0-0.5,0.1-0.7
		c0-0.1-0.1-0.4-0.2-0.5C42.3,42.8,44.8,39.5,46,35.8z M43.2,28c0.3,1.4,0.4,2.8,0.3,4.2l-6.3-1.8l0,0c-0.6-0.2-0.9-0.7-0.8-1.3
		c0.1-0.2,0.2-0.4,0.3-0.6l0,0l4.9-4.4C42.3,25.2,42.8,26.5,43.2,28z M39.6,21.6l-5.3,3.8l0,0c-0.5,0.3-1.1,0.3-1.5-0.2
		c-0.2-0.2-0.2-0.4-0.2-0.6l0,0L32.1,18C35,18.3,37.6,19.6,39.6,21.6z M29.6,29h2l1.2,1.4l-0.4,1.9l-1.8,0.8l-1.8-0.9l-0.4-1.8
		L29.6,29z M27.7,18.2c0.4-0.1,0.9-0.2,1.3-0.2l-0.4,6.5l0,0c0,0.6-0.5,1.1-1.1,1.1c-0.2,0-0.5-0.1-0.6-0.2l0,0l-5.4-3.8
		C23.1,20,25.2,18.8,27.7,18.2z M19.5,24l4.9,4.4l0,0c0.4,0.4,0.5,1.1,0.1,1.5c-0.2,0.2-0.4,0.3-0.6,0.4l0,0l-6.3,1.8
		C17.4,29.3,18.1,26.4,19.5,24z M26.1,35.7l-2.5,6c-2.3-1.5-4.2-3.7-5.2-6.5l6.4-1.1l0,0c0.1,0,0.1,0,0.2,0c0.5,0,0.9,0.4,1.1,0.9
		C26.2,35.2,26.2,35.5,26.1,35.7L26.1,35.7z M33.5,43.4c-2.4,0.6-4.9,0.2-7-0.5l3.2-5.9h0c0.2,0,0.6-0.4,0.9-0.4
		c0.2,0,0.3-0.1,0.5,0c0.2,0.1,0.4,0.4,0.5,0.4h0l3.2,5.9C34.3,43.1,33.9,43.4,33.5,43.4z M37.6,41.7L35,35.7l0,0
		c-0.2-0.5,0-1.2,0.5-1.4c0.1-0.1,0.3-0.1,0.4-0.1c0.1,0,0.2,0,0.3,0l0,0l6.5,1.1C41.8,37.9,40,40.2,37.6,41.7z"/>
</g>
</svg>
