<svg id="Layer_1" xmlns="http://www.w3.org/2000/svg" width="238" height="218" viewBox="0 0 238 218"><style>.st0{fill:url(#SVGID_1_)}.st1{fill:url(#SVGID_2_)}</style><linearGradient id="SVGID_1_" gradientUnits="userSpaceOnUse" x1="119" y1="236" x2="119" y2="-12.14"><stop offset="0" stop-color="#fff200"/><stop offset="1" stop-color="#f15a29"/></linearGradient><path class="st0" d="M203.3 41.6c-.2-.2-.3-.4-.5-.6-.2-.2-.4-.3-.6-.5C180.8 19.4 151.4 6.3 119 6.3c-32.4 0-61.9 13.1-83.3 34.3-.2.2-.4.3-.5.4-.2.2-.3.4-.4.5C13.5 63 .4 92.5.4 124.9c0 31.7 12.3 61.4 34.7 83.8 2 2 4.5 3 7.1 3s5.2-1 7.1-3L63 195.2c3.9-3.9 3.9-10.3 0-14.2-3.9-3.9-10.3-3.9-14.2 0l-6 6c-12.2-14.9-19.6-32.9-21.5-52h6.5c5.6 0 10.1-4.5 10.1-10.1s-4.5-10.1-10.1-10.1h-6.5c2-19.6 9.8-37.5 21.6-52l3.3 3.3c2 2 4.5 3 7.1 3 2.6 0 5.2-1 7.1-3 3.9-3.9 3.9-10.3 0-14.2l-3.3-3.3C71.4 36.8 89.3 29 108.9 27v4c0 5.6 4.5 10.1 10.1 10.1s10.1-4.5 10.1-10.1v-4c19.6 2 37.5 9.8 52 21.6l-3.3 3.3c-3.9 3.9-3.9 10.3 0 14.2 2 2 4.5 2.9 7.1 2.9 2.6 0 5.2-1 7.1-3l3.3-3.3c11.8 14.5 19.6 32.4 21.6 52h-6.6c-5.6 0-10.1 4.5-10.1 10.1s4.5 10.1 10.1 10.1h6.6c-1.9 19.2-9.4 37.1-21.5 52l-6-6c-3.9-3.9-10.3-3.9-14.2 0-3.9 3.9-3.9 10.3 0 14.2l13.5 13.5c2 2 4.5 3 7.1 3 2.6 0 5.2-1 7.1-3 22.4-22.4 34.7-52.2 34.7-83.8 0-32.3-13.1-61.8-34.3-83.2z"/><linearGradient id="SVGID_2_" gradientUnits="userSpaceOnUse" x1="134.916" y1="236" x2="134.916" y2="-12.14"><stop offset="0" stop-color="#fff200"/><stop offset="1" stop-color="#f15a29"/></linearGradient><path class="st1" d="M172.5 68.8L141 93.4l-14.4 11.2c-7.9-3-17.1-1.2-23.3 5.3-8.3 8.7-7.9 22.4.7 30.6 8.7 8.3 22.4 7.9 30.6-.7 6.2-6.5 7.6-15.8 4.2-23.6l10.5-14.9 23.2-32.5z"/></svg>