<?xml version="1.0" encoding="utf-8"?>
<!-- Generator: Adobe Illustrator 20.1.0, SVG Export Plug-In . SVG Version: 6.00 Build 0)  -->
<svg version="1.1" id="Layer_1" xmlns="http://www.w3.org/2000/svg" xmlns:xlink="http://www.w3.org/1999/xlink" x="0px" y="0px"
	 width="238px" height="218px" viewBox="0 0 238 218" enable-background="new 0 0 238 218" xml:space="preserve">
<g>
	<linearGradient id="SVGID_1_" gradientUnits="userSpaceOnUse" x1="166.5074" y1="221.5199" x2="166.5074" y2="-1.1784">
		<stop  offset="0" style="stop-color:#FFF100"/>
		<stop  offset="1" style="stop-color:#F05A28"/>
	</linearGradient>
	<path fill="url(#SVGID_1_)" d="M166.7,114.1c-0.1,0.5-0.3,1.1-0.4,1.6C166.5,115.2,166.6,114.6,166.7,114.1z"/>
	<linearGradient id="SVGID_2_" gradientUnits="userSpaceOnUse" x1="160.7826" y1="221.5199" x2="160.7826" y2="-1.1784">
		<stop  offset="0" style="stop-color:#FFF100"/>
		<stop  offset="1" style="stop-color:#F05A28"/>
	</linearGradient>
	<path fill="url(#SVGID_2_)" d="M160.4,77.2c0.3,0.4,0.5,0.8,0.8,1.3C160.9,78,160.7,77.6,160.4,77.2z"/>
	<linearGradient id="SVGID_3_" gradientUnits="userSpaceOnUse" x1="164.585" y1="221.5199" x2="164.585" y2="-1.1784">
		<stop  offset="0" style="stop-color:#FFF100"/>
		<stop  offset="1" style="stop-color:#F05A28"/>
	</linearGradient>
	<path fill="url(#SVGID_3_)" d="M167.4,110.7c-0.1,0.9-0.3,1.9-0.5,2.8c0.7-3.4,1.1-6.8,1.1-10.4c0-9-2.5-17.4-6.8-24.7
		C166.7,87.8,169.2,99.1,167.4,110.7z"/>
	<linearGradient id="SVGID_4_" gradientUnits="userSpaceOnUse" x1="159.6862" y1="221.5199" x2="159.6862" y2="-1.1784">
		<stop  offset="0" style="stop-color:#FFF100"/>
		<stop  offset="1" style="stop-color:#F05A28"/>
	</linearGradient>
	<path fill="url(#SVGID_4_)" d="M159.6,75.9c0.1,0.1,0.1,0.2,0.2,0.3C159.7,76.1,159.7,76,159.6,75.9z"/>
	<linearGradient id="SVGID_5_" gradientUnits="userSpaceOnUse" x1="119.7539" y1="221.5199" x2="119.7539" y2="-1.1784">
		<stop  offset="0" style="stop-color:#FFF100"/>
		<stop  offset="1" style="stop-color:#F05A28"/>
	</linearGradient>
	<path fill="url(#SVGID_5_)" d="M214.2,146.6l7.4-22.8l-25.3-11.9c0.3-2.9,0.5-5.8,0.5-8.7c0-2.8-0.2-5.6-0.5-8.3l25.4-12l-7.4-22.8
		l-27.5,5.2c-2.8-5-6.2-9.6-10-13.8l13.5-24.7l-19.4-14.1L151.7,33c-5.1-2.3-10.6-4.2-16.2-5.4L132-0.2h-24l-3.5,27.7
		c-5.7,1.1-11.1,3-16.3,5.3L68.9,12.3L49.5,26.5L63,51c-3.8,4.2-7.2,8.8-10.1,13.8l-27.6-5.2l-7.4,22.8l25.3,11.9
		c-0.3,2.9-0.5,5.8-0.5,8.7c0,2.8,0.2,5.6,0.5,8.3l-25.4,12l7.4,22.8l27.5-5.2c2.8,5,6.2,9.6,10,13.8l-13.5,24.7l19.4,14.1
		l19.2-20.4c5.1,2.3,10.6,4.2,16.2,5.4l3.5,27.8h24l3.5-27.7c0.7-0.2,1.5-0.3,2.2-0.5l-19.2-26.4c-2.1-0.1-4.2-0.2-6.3-0.6
		c-26.5-4.2-44.7-29-40.5-55.6s29-44.7,55.6-40.5c13.9,2.2,25.4,10,32.7,20.8c0.1,0.1,0.1,0.2,0.2,0.3c0.2,0.3,0.4,0.6,0.6,0.9
		c0.3,0.4,0.5,0.8,0.8,1.3c0,0,0,0,0,0c4.3,7.2,6.8,15.7,6.8,24.7c0,3.6-0.4,7.1-1.1,10.4c0,0.2-0.1,0.4-0.1,0.6
		c-0.1,0.5-0.3,1.1-0.4,1.6c-0.1,0.3-0.1,0.5-0.2,0.8l19.5,26.7c0.4-0.6,0.7-1.2,1.1-1.8L214.2,146.6z"/>
	<linearGradient id="SVGID_6_" gradientUnits="userSpaceOnUse" x1="145.6982" y1="221.5199" x2="145.6982" y2="-1.1784">
		<stop  offset="0" style="stop-color:#FFF100"/>
		<stop  offset="1" style="stop-color:#F05A28"/>
	</linearGradient>
	<path fill="url(#SVGID_6_)" d="M153.8,118c4.9-11.6,3.8-25.3-4.1-36.2c-6-8.2-14.8-13.3-24.1-14.7c-4.9-0.8-10-0.6-14.8,0.7
		l15.9,21.8c4.5,6.1,3.1,14.7-3,19.1c-3.1,2.2-6.7,3-10.2,2.5c-3.5-0.5-6.7-2.4-9-5.5L88.5,83.9c-7.8,12.4-7.7,28.8,1.4,41.4
		c6,8.2,14.8,13.3,24.1,14.7c3,0.5,6,0.6,9.1,0.3l51.1,70.1c3.1,4.2,7.6,6.8,12.4,7.6c4.8,0.8,9.9-0.3,14.1-3.4
		c8.5-6.2,10.3-18,4.1-26.5L153.8,118z M192.2,194.2c4,0.6,6.7,4.4,6.1,8.3c-0.6,4-4.4,6.7-8.3,6.1c-4-0.6-6.7-4.4-6.1-8.3
		C184.5,196.3,188.2,193.6,192.2,194.2z"/>
</g>
</svg>
