<svg enable-background="new 0 0 681 551.5" viewBox="0 0 681 551.5" xmlns="http://www.w3.org/2000/svg"><path d="m676 202.8c-31.9-146.8-208-233.2-393.3-192.9s-309.6 192-277.7 338.8 208 233.3 393.3 193 309.6-192 277.7-338.9zm-347.9 256.3c-103.4 0-187.2-83.8-187.2-187.2s83.8-187.2 187.2-187.2 187.2 83.8 187.2 187.2-83.8 187.2-187.2 187.2z" fill="#0097a0"/><path d="m374.8 39.9c-132.3 0-239.6 107.3-239.6 239.6s107.3 239.6 239.6 239.6 239.6-107.3 239.6-239.6-107.3-239.6-239.6-239.6zm-46.7 416.2c-101.8 0-184.2-82.5-184.2-184.2s82.4-184.2 184.2-184.2 184.1 82.5 184.1 184.2-82.4 184.2-184.1 184.2z" fill="#5bc6cc"/><path d="m262.1 253.5-20.1-42.3c-4.8-10-9.8-21.4-11.5-26.7l-.4.4c.6 7.6.8 17.1.9 25l.5 43.6h-14.7v-90.1h16.9l21.9 44c3.7 7.5 6.8 15.2 9.2 23.2l.4-.4c-.4-4.6-1.3-17.4-1.3-25.7l-.3-41.1h14.2v90.1z"/><path d="m304.7 224.5v1c0 9.1 3.4 18.8 16.3 18.8 6.1 0 11.5-2.2 16.4-6.5l5.6 8.7c-6.6 5.7-15 8.8-23.7 8.7-18.6 0-30.3-13.4-30.3-34.5 0-11.6 2.5-19.3 8.2-25.8 5.3-6.1 11.9-8.9 20.2-8.9 6.7-.2 13.2 2.2 18.1 6.8 5.7 5.2 8.6 13.3 8.6 28.6v3zm12.7-27.7c-8.1 0-12.5 6.4-12.5 17.1h24.4c-.1-10.7-4.8-17.1-11.9-17.1z"/><path d="m420.2 253.8h-13.4l-8.1-30.3c-2.1-7.8-4.3-18-4.3-18h-.2s-1 6.5-4.3 18.6l-7.9 29.7h-13.4l-18-65.2 14.2-2 7.2 31.9c1.8 8.2 3.4 17.3 3.4 17.3h.4c1-6 2.2-11.9 3.8-17.7l8.5-30.5h13.9l7.4 29.8c2.7 10.7 4.2 18.8 4.2 18.8h.4s1.6-10 3.3-17.7l6.8-30.7h14.9z"/><path d="m250.8 369.5-7.8-13.9c-6.2-11.1-10.4-17.3-15.4-22.3-1.5-1.7-3.6-2.7-5.9-2.7v38.9h-14.7v-90.1h27.5c20.2 0 29.3 11.7 29.3 25.8 0 12.9-8.3 24.8-22.4 24.8 3.3 1.7 9.2 10.4 13.9 18l13.3 21.6zm-20.8-78h-8.2v28.5h7.7c7.8 0 12-1 14.7-3.8 2.5-2.5 4-6.2 4-10.9 0-9.1-4.9-13.8-18.2-13.8z"/><path d="m288.3 340.5v1c0 9.1 3.4 18.8 16.3 18.8 6.1 0 11.5-2.2 16.4-6.5l5.6 8.7c-6.6 5.7-15 8.8-23.7 8.7-18.6 0-30.3-13.4-30.3-34.5 0-11.6 2.5-19.3 8.2-25.8 5.3-6.1 11.9-8.9 20.2-8.9 6.7-.2 13.2 2.2 18.1 6.8 5.7 5.2 8.6 13.3 8.6 28.6v3zm12.7-27.7c-8.1 0-12.5 6.4-12.5 17.1h24.4c-.1-10.7-4.8-17.1-11.9-17.1z"/><path d="m354.5 370.9c-14.5 0-14.5-13-14.5-18.6v-56.1c.1-6.4-.3-12.9-1.3-19.3l14.7-3.3c1 4 1.2 9.5 1.2 18.1v55.9c0 8.9.4 10.3 1.4 11.9 1.2 1.3 3.1 1.7 4.7 1l2.3 8.9c-2.6 1-5.6 1.6-8.5 1.5z"/><path d="m379.4 293.8c-5.2 0-9.3-4.3-9.3-9.4v-.1c0-5.2 4.3-9.4 9.5-9.4s9.4 4.3 9.4 9.5-4.3 9.4-9.5 9.4c-.1 0-.1 0-.1 0zm-7.2 75.7v-64.9l14.5-2.6v67.5z"/><path d="m427.7 371.2c-18 0-28-12.6-28-33.9 0-24 14.3-35.4 29-35.4 7.2 0 12.4 1.7 18.2 7.2l-7.2 9.5c-3.9-3.5-7.3-5.1-11.1-5.1-4.5-.1-8.6 2.5-10.4 6.6-2 4-2.7 10.2-2.7 18.4 0 9 1.4 14.7 4.4 18 2.2 2.5 5.4 3.9 8.8 3.8 4.6 0 9-2.2 13.3-6.5l6.8 8.7c-6 6-12.3 8.7-21.1 8.7z"/><path d="m461 370.9c-5.3 0-9.7-4.3-9.7-9.6s4.3-9.7 9.6-9.7 9.7 4.3 9.7 9.6v.1c0 5.3-4.3 9.6-9.6 9.6zm0-17.4c-4.3-.2-7.9 3.1-8.1 7.4s3.1 7.9 7.4 8.1 7.9-3.1 8.1-7.4c0-.1 0-.2 0-.4.2-4.1-3.1-7.6-7.4-7.7zm1.9 13.1c-.4-.7-.6-1-1-1.8-1.1-2-1.4-2.5-1.8-2.6-.1-.1-.2-.1-.3-.1v4.5h-2.1v-10.8h4c1.7-.1 3.1 1.1 3.2 2.8v.4c.1 1.5-.9 2.8-2.4 3 .2.1.3.3.4.5.6.8 2.6 4.2 2.6 4.2zm-1.1-8.9c-.4-.1-.8-.2-1.2-.2h-.8v2.9h.7c.9 0 1.4-.1 1.6-.4.3-.3.4-.7.4-1.1.1-.5-.2-1-.7-1.2z" fill="#fff"/></svg>