<svg enable-background="new 0 0 384 56.5" viewBox="0 0 384 56.5" xmlns="http://www.w3.org/2000/svg" xmlns:xlink="http://www.w3.org/1999/xlink"><linearGradient id="a" gradientTransform="matrix(.3227 0 0 -.3227 -1167.6896 -434.6422)" gradientUnits="userSpaceOnUse" x1="3633.5613" x2="3801.6943" y1="-1363.4048" y2="-1363.4048"><stop offset="0" stop-color="#7acbbf"/><stop offset="1" stop-color="#3ea4db"/></linearGradient><g fill="#f05a28"><path d="m245.2 21.2c2.4 0 4.2.5 5.4 1.6 1.2 1 1.8 2.5 1.8 4.4 0 .9-.2 1.7-.5 2.4s-.8 1.4-1.4 1.9-1.4 1-2.3 1.3-1.9.4-3 .4h-3.8v8.1h-1.4v-20.1zm0 10.9c.9 0 1.7-.1 2.4-.4.7-.2 1.3-.6 1.8-1s.9-1 1.1-1.5c.3-.6.4-1.2.4-1.9 0-1.6-.5-2.7-1.4-3.6-1-.8-2.4-1.3-4.3-1.3h-3.8v9.7z"/><path d="m256.8 30.6c.2-.6.5-1.1.7-1.5.3-.5.6-.8 1-1.1s.8-.6 1.2-.7c.5-.2 1-.3 1.5-.3.3 0 .6 0 .9.1s.5.1.8.3l-.1.9c0 .2-.1.2-.3.2-.1 0-.3 0-.5-.1s-.5-.1-.9-.1c-.6 0-1 .1-1.5.2-.4.2-.8.4-1.1.7s-.6.7-.9 1.2-.5 1.1-.7 1.7v9.2h-1.4v-14.1h.7c.2 0 .3 0 .3.1s.1.2.1.3z"/><path d="m270.4 26.9c1 0 1.9.2 2.7.5s1.5.8 2 1.5c.6.6 1 1.4 1.3 2.3s.4 1.9.4 3-.1 2.1-.4 3-.7 1.7-1.3 2.3-1.2 1.1-2 1.5c-.8.3-1.7.5-2.7.5s-1.9-.2-2.7-.5-1.5-.8-2-1.5c-.6-.6-1-1.4-1.3-2.3s-.4-1.9-.4-3 .1-2.1.4-3 .7-1.7 1.3-2.3 1.2-1.1 2-1.5c.8-.3 1.7-.5 2.7-.5zm0 13.6c.8 0 1.6-.1 2.2-.4s1.2-.7 1.6-1.2.7-1.2.9-2 .3-1.6.3-2.6c0-.9-.1-1.8-.3-2.6s-.5-1.4-.9-2c-.4-.5-1-1-1.6-1.3s-1.4-.4-2.2-.4-1.6.1-2.2.4-1.2.7-1.6 1.3c-.4.5-.7 1.2-1 2-.2.8-.3 1.6-.3 2.6s.1 1.8.3 2.6.5 1.4 1 2c.4.5 1 1 1.6 1.2s1.4.4 2.2.4z"/><path d="m280.7 41.4v-14.2h.8c.2 0 .4.1.4.4l.1 2.1c.6-.8 1.2-1.4 1.9-1.9s1.5-.7 2.4-.7c1 0 1.9.3 2.5.9s1 1.4 1.3 2.5c.2-.6.4-1.1.7-1.5s.7-.8 1.1-1.1.8-.5 1.3-.6 1-.2 1.4-.2c.7 0 1.3.1 1.9.3s1 .6 1.4 1c.4.5.7 1 .9 1.7s.3 1.4.3 2.3v9.1h-1.4v-9.1c0-1.4-.3-2.4-.9-3.2-.6-.7-1.5-1.1-2.6-1.1-.5 0-1 .1-1.4.3-.5.2-.9.4-1.2.8s-.6.8-.8 1.3-.3 1.2-.3 1.9v9.1h-1.4v-9.1c0-1.4-.3-2.4-.8-3.2-.5-.7-1.3-1.1-2.4-1.1-.8 0-1.5.2-2.1.7-.7.5-1.2 1.1-1.8 1.9v10.8z"/><path d="m304.2 33.7v.3c0 1.1.1 2 .4 2.8.2.8.6 1.5 1.1 2s1 1 1.7 1.2c.6.3 1.4.4 2.2.4.7 0 1.3-.1 1.9-.2.5-.2 1-.3 1.3-.5.4-.2.6-.4.8-.5.2-.2.4-.2.5-.2s.2 0 .3.1l.4.5c-.2.3-.5.6-.9.8s-.8.5-1.3.6c-.5.2-1 .3-1.5.4s-1.1.2-1.6.2c-1 0-1.9-.2-2.7-.5s-1.5-.8-2.1-1.5c-.6-.6-1-1.4-1.3-2.4-.3-.9-.5-2-.5-3.2 0-1 .1-2 .4-2.8.3-.9.7-1.6 1.3-2.2.5-.6 1.2-1.1 2-1.5s1.7-.5 2.7-.5c.8 0 1.5.1 2.2.4s1.3.7 1.8 1.2.9 1.2 1.2 1.9c.3.8.4 1.7.4 2.7 0 .2 0 .4-.1.4-.1.1-.2.1-.3.1zm9.5-.9c0-.8-.1-1.4-.3-2s-.5-1.1-.9-1.5-.9-.7-1.4-1c-.5-.2-1.1-.3-1.8-.3s-1.4.1-2 .3-1.1.6-1.5 1-.8.9-1 1.5c-.3.6-.4 1.3-.5 2z"/><path d="m322.4 41.6c-1 0-1.7-.3-2.2-.8s-.8-1.4-.8-2.5v-9.7h-2c-.1 0-.2 0-.3-.1s-.1-.1-.1-.2v-.5l2.4-.2.3-5.1c0-.1.1-.2.1-.2.1-.1.1-.1.2-.1h.6v5.4h4.5v1h-4.5v9.6c0 .4 0 .7.1 1s.2.5.4.7.4.3.6.4.5.1.8.1.6-.1.9-.2c.2-.1.5-.2.6-.3.2-.1.3-.2.4-.3s.2-.1.3-.1.2 0 .2.1l.4.6c-.4.4-.8.7-1.4 1-.3.3-.9.4-1.5.4z"/><path d="m329.7 29.6c.7-.8 1.4-1.4 2.2-1.9s1.8-.7 2.8-.7c.8 0 1.5.1 2.1.4.6.2 1.1.6 1.5 1.1s.7 1 .9 1.7.3 1.4.3 2.2v9.1h-1.4v-9.1c0-1.3-.3-2.4-.9-3.1-.6-.8-1.5-1.1-2.8-1.1-.9 0-1.8.2-2.6.7s-1.5 1.1-2.1 2v10.7h-1.4v-21h1.4z"/><path d="m344.5 33.7v.3c0 1.1.1 2 .4 2.8.2.8.6 1.5 1.1 2s1 1 1.7 1.2c.6.3 1.4.4 2.2.4.7 0 1.3-.1 1.9-.2.5-.2 1-.3 1.3-.5.4-.2.6-.4.8-.5.2-.2.4-.2.5-.2s.2 0 .3.1l.4.5c-.2.3-.5.6-.9.8s-.8.5-1.3.6c-.5.2-1 .3-1.5.4s-1.1.2-1.6.2c-1 0-1.9-.2-2.7-.5s-1.5-.8-2.1-1.5c-.6-.6-1-1.4-1.3-2.4-.3-.9-.5-2-.5-3.2 0-1 .1-2 .4-2.8.3-.9.7-1.6 1.3-2.2.5-.6 1.2-1.1 2-1.5s1.7-.5 2.7-.5c.8 0 1.5.1 2.2.4s1.3.7 1.8 1.2.9 1.2 1.2 1.9c.3.8.4 1.7.4 2.7 0 .2 0 .4-.1.4-.1.1-.2.1-.3.1zm9.5-.9c0-.8-.1-1.4-.3-2s-.5-1.1-.9-1.5-.9-.7-1.4-1c-.5-.2-1.1-.3-1.8-.3s-1.4.1-2 .3-1.1.6-1.5 1-.8.9-1 1.5c-.3.6-.4 1.3-.5 2z"/><path d="m369.9 27.2v14.2h-.8c-.2 0-.4-.1-.4-.4l-.1-2.1c-.7.8-1.4 1.5-2.3 2s-1.8.7-2.9.7c-.8 0-1.5-.1-2.1-.4-.6-.2-1.1-.6-1.5-1.1s-.7-1-.9-1.7-.3-1.4-.3-2.2v-9.1h1.4v9.1c0 1.3.3 2.4.9 3.1.6.8 1.5 1.1 2.8 1.1.9 0 1.8-.2 2.6-.7s1.5-1.1 2.1-2v-10.5z"/><path d="m382.4 28.9c-.1.1-.2.2-.3.2s-.2-.1-.4-.2-.4-.3-.6-.4c-.3-.1-.6-.3-1-.4s-.9-.2-1.5-.2c-.5 0-1 .1-1.4.2s-.8.3-1.1.6c-.3.2-.5.5-.7.9-.2.3-.2.7-.2 1 0 .4.1.8.3 1.1s.5.5.9.8c.4.2.8.4 1.3.5.5.2 1 .3 1.4.5.5.2 1 .3 1.4.5.5.2.9.4 1.3.7s.7.6.9 1 .3.9.3 1.5-.1 1.2-.3 1.7-.5 1-1 1.4c-.4.4-.9.7-1.6.9-.6.2-1.3.3-2.1.3-1 0-1.9-.2-2.6-.5s-1.4-.7-1.9-1.2l.3-.5c0-.1.1-.1.2-.2.1 0 .1-.1.2-.1s.3.1.4.2c.2.2.4.3.7.5s.7.3 1.1.5 1 .2 1.6.2 1.1-.1 1.6-.2c.5-.2.8-.4 1.1-.7s.5-.6.7-1 .2-.8.2-1.2c0-.5-.1-.9-.3-1.2s-.5-.6-.9-.8-.8-.4-1.3-.6-1-.3-1.4-.5c-.5-.2-1-.3-1.4-.5-.5-.2-.9-.4-1.3-.7s-.7-.6-.9-1-.3-.9-.3-1.5c0-.5.1-1 .3-1.5s.5-.9.9-1.2c.4-.4.9-.6 1.5-.8s1.2-.3 2-.3c.9 0 1.6.1 2.3.4.7.2 1.3.6 1.8 1.1z"/><path d="m208.8 8.2c-12.4 0-22.4 10-22.4 22.4s10 22.4 22.4 22.4 22.4-10 22.4-22.4-10.1-22.4-22.4-22.4zm0 41.7c-3.7 0-6.7-2.4-6.7-5.4h13.4c0 3-3 5.4-6.7 5.4zm10.4-7h-20.9v-3.9h20.9zm-.1-5.9h-20.8c-2.5-2.9-3.1-5.4-3.1-5.4l6.2 1.2c-.8-1.1-2-3.1-1.8-6.1 0 0-.3-1.3 1.3-4.8 1.6-3.4.8-6.3.8-6.3s2.2 0 2.8 6.3c0 0 1.9-2.1 1.8-6.1s2.5-5.4 2.5-5.4-1 2.4.4 4.9c1.4 2.4 1.4 4.8 1.6 7.5 0 .3.1.7.3.9.1.2.3.3.5.4 0 0-1.3-7.4 2.5-9.9 0 0-.7 3.5.5 5.4s3.2 4.9 2.5 9.1c-.4 2.3-1.2 3.3-1.9 4.3l7.4-1.5c-1 3.3-3.5 5.5-3.5 5.5z"/></g><path d="m162.9 53.5c-.1 0-.3 0-.4-.1-.5-.2-.7-.8-.5-1.3l22.9-48.6c.2-.5.8-.7 1.3-.5s.7.8.5 1.3l-23 48.7c-.1.3-.5.5-.8.5z" fill="#d1d3d4"/><g transform="matrix(.32269905 0 0 .32269905 1.377071 28.793512)"><g clip-rule="evenodd" fill-rule="evenodd"><path d="m159.1 46.8c2.3-3.4 4-5.9 5.7-8.4 12.8 5.4 22.5.7 24.5-11.4-3.7 1.3-7.4 3.2-11.2 4-14.3 3-27.7-7.4-25.7-23.6 1.5-12.7 11.4-24.1 25.6-26.8 7.3-1.4 14.2.1 19.8 5.8.5-1.8 1-3.4 1.5-5.1h8.6c-.4 2.9-.8 5.6-1.3 8.3-2.3 12.7-4.5 25.4-6.9 38.1-1.2 6.4-4.1 12.1-9.1 16.5-7.6 6.8-16.2 9.1-26 5.6-1.8-.9-3.5-2-5.5-3zm3.7-38.4c0 7 5.2 13.3 14.4 12.4 5.9-.6 10.2-4 13.6-8.6 2.9-4.1 3.5-8.6 1.8-13.3s-6-8.2-10.8-8.3c-10.5-.4-19 8.9-19 17.8z" fill="#272324"/><path d="m291.8 50.1c-.9.1-1.6.3-2.3.3-2.4 0-4.8 0-7.1 0-.5-4.2 7.4-51 11.5-69.2 1.3-.1 2.7-.1 4-.2h4.6c-.3 1.8-.5 3.2-.8 5.1 2.5-1.4 4.8-2.7 7.1-3.7 5.5-2.5 11.2-2.9 17-1.3 10.5 2.9 16.8 13.3 14.6 24.1-2.7 14.2-11.6 22.5-25.4 25.8-5.8 1.4-11.3.2-16.3-3-.7-.5-1.3-1-2.5-1.8-1.5 8.1-2.9 16-4.4 23.9zm38.3-46.8c0-7.5-5.7-13.2-13-12.8-8 .5-14.4 5.8-16.7 12.6-2.2 6.7-.5 11.6 3.8 15 3.3 2.7 7.1 3 11.3 2.2 7.8-1.4 14.6-9.2 14.6-17z" fill="#272324"/><path d="m280.5 30.5c-3.3 0-5.8 0-8.5 0 0-1.7 0-3.2 0-4.6-3.3 1.5-6.4 3.3-9.7 4.3-8.3 2.6-16.1 1.6-22.5-4.6-6.5-6.3-8-14.3-5.3-22.8 3.8-12.2 12.3-19.6 24.6-22.3 6.4-1.4 12.8-.4 18.1 4.1.6.5 1.3 1 2.1 1.6.4-1.8.8-3.4 1.2-5.1h8.9c-3.2 16.6-6.1 33-8.9 49.4zm-5.8-27.4c-.1-8-6.6-13.9-14.3-12.6-9.4 1.6-17.1 8.8-16.2 19.7.3 4.6 4 9.1 8.5 10.2 11.9 2.8 22.3-7.7 22-17.3z" fill="#272324"/><path d="m484.3 9.2c-13.6 0-26.4 0-39.2 0-.3 6.6 4.6 11.6 11.6 12.1 4.9.3 9.1-1.6 13.2-4.1 1.1-.7 2.1-1.4 3.5-2.4 1.6 2.6 3.1 4.9 4.8 7.5-8.7 7.1-18.1 10.9-29.3 8.3-9.6-2.3-16.4-12.8-15.1-23 1.5-11.8 7.7-20.2 18.6-25.2 6.1-2.8 12.5-3.2 18.7-1.2 7.6 2.4 11.7 8.1 13 16.4.7 3.6.2 7.4.2 11.6zm-37.7-8.8h27.6c-.4-5.5-3.2-9-8-10.7-7.5-2.5-17.2 2.8-19.6 10.7z" fill="#272324"/><path d="m349.7 30.5c-3.7 0-6.8 0-10.5 0 4.1-23.1 8.1-46 12.1-69h10.5c-1.2 7.2-2.4 14.1-3.7 21.7 1.9-.8 3.1-1.4 4.4-1.9 9.4-3.5 21.4.1 24.4 11.2.8 3.1.9 6.5.5 9.7-1.2 8.6-2.8 17.1-4.3 25.6-.1.8-.5 1.6-.8 2.6-3.2 0-6.4 0-10 0 .4-2.7.6-5.2 1-7.6 1.3-7.1 2.6-14.2 3.9-21.3 1.2-6.7-5-12.3-11.5-10.6-7.6 2-10.4 7.5-11.5 14.6-1.4 8.3-3 16.5-4.5 25z" fill="#272324"/><path d="m415.6-34.9h8.3c.5 0 1.1.2 2 .4-.9 5-1.7 10-2.6 15.3h15.1c1.5 3.1-.7 5.7-.4 8.9-5.3 1.2-10.6.1-16.2.7-.5 2.1-1.1 4.4-1.5 6.7-1 5.2-1.8 10.3-2.7 15.5-.5 2.8.4 5 3.5 7.1 3.1.3 6.9.6 11 1-.5 3.2-1 6.3-1.6 9.9-4.7-.2-9.1.5-13.6-.7-7.1-1.7-10.6-7.4-9.9-14.7.4-4.9 1.5-9.8 2.3-14.7 1.6-9.1 3.2-18.1 4.9-27.2.4-2.6.9-5.2 1.4-8.2z" fill="#272324"/><path d="m222.5-16.6c5.4-3 11.2-2.5 17.5-2.3-.6 3.3-1.2 6.2-1.8 9.5-2.4.2-4.6.4-6.9.5-5.9.4-9.7 3.3-11 8.9-1.4 5.9-2.3 12-3.4 18-.7 4-1.4 8.1-2.1 12.4-3.3 0-6.5 0-9.7 0-.2-3.7 5.8-39.7 8.3-49.4 2.2 0 4.6-.1 7 .1.4 0 .9.8 1.3 1.3-.1.6-.2 1.1-.5 2.1.7-.6 1-.9 1.3-1.1z" fill="#272324"/><path d="m397.8 30.6c-3.7 0-6.7 0-10.3 0 2.5-16.6 5.7-32.9 8.6-49.4h10.3c-2.9 16.5-5.8 32.8-8.6 49.4z" fill="#272324"/><path d="m409.7-30.2c-1.7 5.5-4.6 7.9-8.5 7.3-2.7-.4-4.3-2.2-4.4-4.9-.1-3.4 2.4-6.7 5.7-7.5 3.4-.7 5.5.7 7.2 5.1z" fill="#272425"/><path d="m163.9-30.6-17.4-2.6-6.3-7.4 9.3-4.5 15.5 2 8 7.1zm-40.1-12.6-4.3-6.1 9.4-3.8 13.7 1.7 5.7 5.8-9.3 4.5zm-11.8 4.8-15-2.2-2.6-6.4 10.7-4 13.5 1.7 4.2 6.1zm-28.1 2.9-14.7-2.3-.8-6.8 12.1-4.2 13.3 1.8 2.5 6.5zm1.2 8.8-15 6.6-16.5-3.1.3-8.8 14.4-5.3 14.7 2.3zm-58.7 56.5-21.5-6.2 5.6-17 22.1-9.7 18.7 4.3-.8 15.7zm24.8-11.8 22.5 5.8 2.1 21.6-26.7 18.4-26.7-9 4.4-23.7zm44.2-6.6 23.2 5.3 7.7 19.7-20.5 16.6-27.8-8-2.4-21.5zm.8-.9-3.8-14.5 15.6-8.4 19.8 3.7 7.2 13.5-15.8 11zm11.4-23.6-4.1-10.4 12.8-6.2 17.2 2.7 6.7 9.8-12.9 7.8zm30.8-27.6 6.2 7.4-10.9 5.8-17.1-2.7-4.3-7.9 10.9-4.8zm-32 27.8-15.6 8.3-19.2-4-1.2-11.1 15-6.6 16.9 2.9zm-10.1-27.3 15 2.2 4.2 7.9-12.8 6.2-16.8-2.9-2.1-8.3z" fill="url(#a)"/></g><g transform="translate(0 -55)"><path d="m50 110.6c-5.3 1-9.9 5.5-10.4 10.4-.5 5.1 3.9 8.6 9.6 7.4 5.7-1.1 10.3-6.2 10.2-11.2.1-4.6-4.1-7.5-9.4-6.6z"/><path d="m51.8 67.2c-4.1.6-7.6 3.3-7.9 6.2-.3 3 3.1 5 7.4 4.3s7.8-3.6 7.8-6.6c0-2.7-3.2-4.5-7.3-3.9z"/><path d="m31.8 79.9c-3.6-1-8.8.7-11.7 3.9-3 3.3-2.6 7 1.2 8.2s9.4-.8 12.2-4.3c2.8-3.4 2-6.8-1.7-7.8z"/><path d="m80.5 93.4c-4.2-1.2-9.3.8-11.5 4.6-2.3 3.9-.5 8.3 4 9.7 4.6 1.4 10-.9 12-5.1 1.9-3.9-.2-8-4.5-9.2z"/><path d="m78 76.3-26-6.6-28.2 15-5.7 28 31.8 11 31.3-22.2zm-27.9 39.9-24.5-8.1 3.7-21.8 22.5-12.2 20.9 5.4 1.8 20z"/><path d="m31.2 104.5c-2-3.2-7.5-3.4-12.3-.6-5 2.9-7.8 8.1-6 11.7 1.9 3.7 7.8 4 13.1.7 5-3.2 7.3-8.5 5.2-11.8z"/><path d="m80.9 74.4c-2.4-2.2-7.1-2.4-10.5-.4-3.5 2.1-4.6 5.7-2.3 8.2 2.4 2.5 7.4 2.8 11.1.5 3.5-2.3 4.2-6 1.7-8.3z"/><path d="m33.5 47.8c-3.6.4-7 2.5-7.5 4.7s2.2 3.7 6 3.2 7.1-2.7 7.4-4.9c.4-2.1-2.3-3.4-5.9-3z"/><path d="m15 57.3c-3-.7-7.6.5-10.4 2.9-2.9 2.4-2.7 5.2.4 6 3.2.9 8.1-.6 10.8-3.1 2.6-2.5 2.2-5-.8-5.8z"/><path d="m33.3 49.7-25.7 11.2-7.1 20.1 25.6 7.6 28.6-15.6.4-18.3zm16.1 21.9-22.3 11.8-19.8-5.7 5-15.7 20.4-9 17.4 4z"/><path d="m12.3 75.2c-1.4-2.3-6-2.4-10.4-.4-4.5 2.1-7.1 5.8-5.9 8.2 1.3 2.6 6.2 2.8 10.9.5 4.5-2.2 6.9-6 5.4-8.3z"/><path d="m57.9 53.2c-1.8-1.7-5.8-1.8-9-.3-3.3 1.5-4.7 4.3-2.9 6.1 1.8 1.9 6.1 2 9.4.3 3.2-1.6 4.3-4.4 2.5-6.1z"/><path d="m115.3 106.7c-1.3-4.3-6.1-6.9-10.8-6-4.8.9-8 5-7.1 9.4.9 4.6 6 7.7 11.1 6.7s8.1-5.6 6.8-10.1z"/><path d="m102.6 64.8c-.8-2.6-4.4-4.2-8.2-3.7s-6.4 3.1-5.9 5.7c.6 2.8 4.3 4.6 8.3 4 4.1-.6 6.6-3.3 5.8-6z"/><path d="m129 85.1c-4.4-1.1-8.7.7-9.8 4.2-1.1 3.6 1.7 7.5 6.4 8.8s9.3-.8 10.1-4.6c.7-3.6-2.3-7.3-6.7-8.4z"/><path d="m122 69.5-26.8-6-23 13.7 2.3 25.4 33.2 9.8 24-20zm-16 36.2-25.5-7.3-2.5-19.7 18.2-11.2 21.6 5 7 18.2z"/><path d="m124.3 67.8c-2.9-2.1-7.4-2.2-10.2-.4-2.9 1.9-2.9 5.2 0 7.5 3 2.3 7.9 2.5 10.7.4 2.8-2 2.5-5.4-.5-7.5z"/><path d="m113.6 41.8c-.8-1.9-4-3-7.1-2.6-3.2.4-5.2 2.2-4.5 4.1.7 2 4 3.2 7.3 2.8 3.2-.5 5.2-2.4 4.3-4.3z"/><path d="m94.1 47.4c-3.2-.6-6.8.5-8.2 2.5-1.4 2.1.2 4.4 3.6 5.2 3.4.7 7.2-.5 8.4-2.7 1.1-2.1-.6-4.3-3.8-5z"/><path d="m136.7 55.9c-3.7-.7-7.2.5-7.9 2.8-.7 2.4 1.7 5.1 5.6 5.9s7.6-.6 8.1-3.1c.5-2.3-2.1-4.8-5.8-5.6z"/><path d="m130.2 45.1-22.9-4.3-18.3 9.7 4 17.2 27.5 6.4 18.6-13.2zm-11.4 24.6-21.2-4.8-3.6-13.4 14.4-7.9 18.4 3.5 6.6 12.5z"/><path d="m132.1 43.9c-2.6-1.5-6.4-1.6-8.6-.3-2.3 1.3-2.2 3.7.4 5.3s6.7 1.7 9 .3c2.2-1.5 1.8-3.8-.8-5.3z"/><path d="m91.2 27.9c-.4-1.5-3.1-2.4-5.9-2.1-2.9.3-5 1.7-4.7 3.2s3 2.5 6 2.2c3-.2 5-1.8 4.6-3.3z"/><path d="m73 32.4c-2.7-.5-6.1.4-7.6 1.9-1.5 1.6-.4 3.4 2.4 4 2.9.6 6.4-.4 7.8-2.1 1.4-1.6.2-3.3-2.6-3.8z"/><path d="m105.3 30.5-19.6-3.3-17.6 7.6 1.1 13.2 22.9 4.8 18.3-10zm-14 19-17.7-3.6-1.2-10.3 13.9-6.2 15.7 2.7 3.7 9.7z"/><path d="m76.8 44.2c-1.9-1.5-5.7-1.6-8.5-.3-2.9 1.3-3.8 3.7-1.9 5.3s5.9 1.8 8.9.3c2.8-1.4 3.5-3.8 1.5-5.3z"/><path d="m107.2 29.6c-2-1.1-5.4-1.2-7.6-.2-2.3 1.1-2.5 2.9-.6 4.1 2 1.3 5.6 1.4 7.9.2 2.3-1.1 2.3-3 .3-4.1z"/><path d="m121.7 24.6c-.8-1.4-3.6-2.2-6.3-1.9s-4.4 1.6-3.7 3.1c.7 1.4 3.6 2.4 6.4 2.1 2.9-.5 4.5-1.9 3.6-3.3z"/><path d="m142.1 34.9c-3.1-.5-6.1.4-6.6 2-.5 1.7 1.7 3.6 4.9 4.2 3.3.6 6.3-.4 6.7-2.2.4-1.7-1.9-3.5-5-4z"/><path d="m136.2 27-20-3.1-15 7.2 4.7 12.3 23.4 4.4 15.1-9.3zm-8.6 17.7-18.1-3.4-4-9.6 11.8-5.8 16 2.6 6.1 9.1z"/><path d="m137.7 26.1c-2.3-1.1-5.6-1.2-7.4-.2-1.9 1-1.7 2.7.6 3.9s5.8 1.3 7.7.2c1.8-1.1 1.4-2.8-.9-3.9z"/><path d="m127.9 11.7c-.8-1.1-3.3-1.7-5.7-1.5s-3.7 1.3-3 2.4 3.3 1.8 5.8 1.6c2.4-.3 3.7-1.4 2.9-2.5z"/><path d="m113.7 14.9c-2.5-.4-5.1.3-5.8 1.4-.8 1.2.7 2.5 3.3 2.9s5.3-.3 6-1.5c.5-1.2-1-2.4-3.5-2.8z"/><path d="m146.1 19.6c-2.7-.4-5.3.3-5.7 1.5-.4 1.3 1.6 2.7 4.4 3.1 2.9.4 5.5-.3 5.8-1.6.3-1.2-1.7-2.6-4.5-3z"/><path d="m140.7 13.5-17.7-2.4-12.7 5.5 4.9 9.3 20.3 3.3 12.7-6.9zm-6.8 13.5-15.8-2.5-4.1-7.3 10-4.5 14.2 2 5.7 6.9z"/><path d="m120.4 23.3c-2-1-5.2-1.1-7.2-.2s-2.1 2.6-.1 3.7c2.1 1.1 5.4 1.2 7.5.2 2-1 1.8-2.6-.2-3.7z"/><path d="m142 12.9c-2-.8-4.9-.9-6.5-.1s-1.4 2.1.7 3 5.1 1 6.7.1 1.2-2.2-.9-3z"/><path d="m68.2 15.3c-2.6.3-4.7 1.4-4.6 2.6s2.4 2 5.1 1.8c2.7-.3 4.8-1.5 4.6-2.7s-2.5-1.9-5.1-1.7z"/><path d="m56.3 20.6c-2.4-.4-5.5.3-7 1.6s-.8 2.8 1.7 3.2 5.8-.3 7.2-1.7c1.4-1.3.5-2.7-1.9-3.1z"/><path d="m85.6 19.1-17.2-2.7-16.8 6.1-.6 10.5 19.5 3.7 17.7-7.8zm-15.3 15-15.2-2.8.2-8.2 13.3-5 13.7 2.2 1.8 7.7z"/><path d="m58.2 30c-1.5-1.2-4.8-1.2-7.5-.2-2.7 1.1-3.8 2.9-2.4 4.2 1.5 1.3 5 1.4 7.8.2 2.7-1.1 3.6-3 2.1-4.2z"/><path d="m87.4 18.3c-1.6-.9-4.6-1-6.8-.2-2.2.9-2.7 2.3-1.1 3.3s4.8 1.1 7 .2c2.2-.8 2.6-2.3.9-3.3z"/><path d="m84.4 5.7c-.3-.9-2.4-1.5-4.7-1.3s-4 1.1-3.8 2.1 2.3 1.6 4.7 1.4 4.1-1.2 3.8-2.2z"/><path d="m69.8 8.6c-2.2-.3-4.8.2-6 1.2s-.4 2.1 1.9 2.5c2.3.3 5-.2 6.2-1.3 1-1 .1-2.1-2.1-2.4z"/><path d="m97.9 12.6c-2.4-.3-5 .2-5.9 1.3s.3 2.3 2.7 2.7c2.5.4 5.2-.3 6-1.4.9-1-.4-2.2-2.8-2.6z"/><path d="m95.5 7.4-15.4-2.1-14.2 4.8.7 8 17.4 2.8 14.7-6zm-12 11.6-13.5-2.1-.8-6.3 11.2-3.9 12.4 1.7 2.3 6z"/><path d="m97.1 6.8c-1.5-.7-4.2-.8-6-.1-1.9.7-2.2 1.8-.7 2.6s4.3.8 6.2.1c1.8-.7 2-1.9.5-2.6z"/><path d="m109.4 3.5c-.5-.9-2.7-1.5-4.9-1.3s-3.6 1.1-3.2 2c.5.9 2.7 1.5 5 1.3 2.2-.1 3.6-1.1 3.1-2z"/><path d="m120.7 5.1-15.7-2-12.5 4.6 2.9 7.6 17.7 2.6 12.7-5.7zm-8.6 11-13.8-2-2.5-6 9.9-3.7 12.5 1.6 3.9 5.7z"/><path d="m122.1 4.5c-1.7-.7-4.3-.7-5.9-.1s-1.6 1.8 0 2.5c1.7.7 4.5.8 6.1.1s1.5-1.8-.2-2.5z"/><path d="m132.6 1.5c-.8-.9-3.1-1.4-5.2-1.2s-3.3 1-2.6 1.9 3 1.5 5.2 1.3c2.3-.3 3.4-1.2 2.6-2z"/><path d="m149.1 7.7c-2.4-.3-4.6.2-5 1.2-.3 1 1.5 2.1 4 2.4s4.8-.2 5-1.3c.3-.9-1.5-2-4-2.3z"/><path d="m144.1 2.9-15.9-1.9-11 4.4 4.9 7.2 18 2.5 10.9-5.3zm-5.5 10.5-14-1.9-4-5.7 8.7-3.5 12.7 1.6 5.2 5.4z"/><path d="m145.3 2.4c-1.8-.7-4.4-.7-5.8-.1s-1.1 1.7.7 2.4c1.9.7 4.6.8 6 .1s1-1.7-.9-2.4z"/><path d="m168.3 24c-1.4-1.4-4.6-2.2-7.2-1.9s-3.6 1.6-2.3 3 4.6 2.4 7.3 2c2.7-.3 3.7-1.7 2.2-3.1z"/><path d="m172.9 16.7c-2.8-.4-5.1.3-5.1 1.5-.1 1.2 2.2 2.6 5.1 3s5.3-.3 5.2-1.5c-.1-1.3-2.4-2.6-5.2-3z"/><path d="m166.1 11-17.9-2.3-11 5.2 7.2 8.8 20.6 3.1 10.6-6.6zm-3.2 12.7-16-2.4-5.9-6.9 8.6-4.2 14.3 1.9 7.3 6.5z"/><path d="m167.2 10.3c-2.2-.8-5-.8-6.4-.1s-.8 2 1.4 2.8c2.2.9 5.2.9 6.6.1 1.4-.7.6-2-1.6-2.8z"/></g></g></svg>