<?xml version="1.0" encoding="utf-8"?>
<!-- Generator: Adobe Illustrator 19.0.1, SVG Export Plug-In . SVG Version: 6.00 Build 0)  -->
<!DOCTYPE svg PUBLIC "-//W3C//DTD SVG 1.1//EN" "http://www.w3.org/Graphics/SVG/1.1/DTD/svg11.dtd">
<svg version="1.1" id="Layer_1" xmlns="http://www.w3.org/2000/svg" xmlns:xlink="http://www.w3.org/1999/xlink" x="0px" y="0px"
	 width="400px" height="100px" viewBox="0 0 400 100" style="enable-background:new 0 0 400 100;" xml:space="preserve">
<style type="text/css">
	.st0{fill:#F05A28;}
</style>
<g>
	<g>
		<path class="st0" d="M119.7,30.8c4.8,0,8.5,1.1,10.9,3.2c2.4,2.1,3.7,5.1,3.7,9c0,1.8-0.3,3.5-1,5c-0.7,1.5-1.6,2.8-2.9,3.9
			c-1.3,1.1-2.8,1.9-4.6,2.6c-1.8,0.6-3.8,0.9-6.1,0.9H112v16.5h-3V30.8H119.7z M119.7,52.9c1.8,0,3.4-0.3,4.8-0.8
			c1.4-0.5,2.6-1.2,3.6-2.1c1-0.9,1.8-1.9,2.3-3.1c0.5-1.2,0.8-2.5,0.8-4c0-3.2-1-5.6-2.9-7.3c-1.9-1.7-4.8-2.6-8.7-2.6H112v19.8
			H119.7z"/>
		<path class="st0" d="M143.3,49.9c0.4-1.2,1-2.2,1.5-3.1c0.6-0.9,1.2-1.7,2-2.3c0.7-0.6,1.6-1.1,2.5-1.5c0.9-0.3,1.9-0.5,3.1-0.5
			c0.6,0,1.2,0.1,1.8,0.2c0.6,0.1,1.1,0.3,1.5,0.6l-0.2,1.9c-0.1,0.3-0.3,0.5-0.6,0.5c-0.2,0-0.6-0.1-1.1-0.2
			c-0.5-0.1-1.1-0.2-1.9-0.2c-1.1,0-2.1,0.2-3,0.5c-0.9,0.3-1.6,0.8-2.3,1.5c-0.7,0.7-1.3,1.5-1.8,2.5c-0.5,1-1,2.1-1.4,3.4v18.7
			h-2.8V42.9h1.5c0.3,0,0.6,0.1,0.7,0.2c0.1,0.1,0.2,0.4,0.3,0.7L143.3,49.9z"/>
		<path class="st0" d="M171,42.5c2.1,0,3.9,0.4,5.6,1.1c1.6,0.7,3,1.7,4.1,3c1.1,1.3,2,2.9,2.6,4.7c0.6,1.8,0.9,3.9,0.9,6.1
			c0,2.3-0.3,4.3-0.9,6.1c-0.6,1.8-1.4,3.4-2.6,4.7c-1.1,1.3-2.5,2.3-4.1,3c-1.6,0.7-3.5,1-5.6,1s-3.9-0.3-5.6-1
			c-1.6-0.7-3-1.7-4.2-3c-1.1-1.3-2-2.9-2.6-4.7c-0.6-1.8-0.9-3.9-0.9-6.1c0-2.3,0.3-4.3,0.9-6.1c0.6-1.8,1.5-3.4,2.6-4.7
			c1.1-1.3,2.5-2.3,4.2-3C167.1,42.8,168.9,42.5,171,42.5z M171,70c1.7,0,3.2-0.3,4.5-0.9c1.3-0.6,2.4-1.4,3.2-2.5
			c0.9-1.1,1.5-2.4,1.9-4c0.4-1.6,0.6-3.3,0.6-5.2c0-1.9-0.2-3.7-0.6-5.2c-0.4-1.6-1.1-2.9-1.9-4c-0.9-1.1-1.9-2-3.2-2.6
			c-1.3-0.6-2.8-0.9-4.5-0.9c-1.7,0-3.2,0.3-4.5,0.9c-1.3,0.6-2.4,1.5-3.2,2.6c-0.9,1.1-1.5,2.5-1.9,4s-0.7,3.3-0.7,5.2
			c0,1.9,0.2,3.7,0.7,5.2c0.4,1.6,1.1,2.9,1.9,4c0.9,1.1,1.9,1.9,3.2,2.5C167.8,69.7,169.3,70,171,70z"/>
		<path class="st0" d="M191.9,71.8V42.9h1.5c0.5,0,0.8,0.2,0.8,0.7l0.3,4.2c1.1-1.6,2.4-2.9,3.9-3.9c1.5-1,3.1-1.5,4.9-1.5
			c2.1,0,3.8,0.6,5.1,1.8c1.3,1.2,2.1,2.9,2.6,5.1c0.3-1.2,0.8-2.2,1.5-3.1c0.6-0.9,1.3-1.6,2.2-2.2c0.8-0.6,1.7-1,2.7-1.3
			c1-0.3,1.9-0.4,2.9-0.4c1.4,0,2.7,0.2,3.9,0.7c1.1,0.5,2.1,1.2,2.9,2.1c0.8,0.9,1.4,2.1,1.8,3.4c0.4,1.4,0.6,2.9,0.6,4.6v18.5
			h-2.8V53.4c0-2.8-0.6-5-1.8-6.5c-1.2-1.5-3-2.2-5.2-2.2c-1,0-2,0.2-2.9,0.6c-0.9,0.4-1.7,0.9-2.4,1.6c-0.7,0.7-1.3,1.6-1.7,2.7
			c-0.4,1.1-0.6,2.3-0.6,3.8v18.5h-2.8V53.4c0-2.8-0.6-5-1.7-6.4s-2.7-2.2-4.9-2.2c-1.6,0-3,0.5-4.4,1.4c-1.3,0.9-2.5,2.2-3.6,3.9
			v21.9H191.9z"/>
		<path class="st0" d="M239.7,56.2v0.6c0,2.2,0.3,4.1,0.8,5.7c0.5,1.6,1.2,3,2.1,4.1c0.9,1.1,2.1,1.9,3.4,2.5
			c1.3,0.6,2.8,0.8,4.4,0.8c1.5,0,2.7-0.2,3.8-0.5c1.1-0.3,2-0.7,2.7-1.1c0.7-0.4,1.3-0.8,1.7-1.1c0.4-0.3,0.7-0.5,0.9-0.5
			c0.3,0,0.4,0.1,0.6,0.3l0.8,0.9c-0.5,0.6-1.1,1.1-1.8,1.6c-0.8,0.5-1.6,0.9-2.6,1.3c-0.9,0.4-1.9,0.6-3,0.9
			c-1.1,0.2-2.2,0.3-3.2,0.3c-2,0-3.8-0.3-5.4-1c-1.6-0.7-3-1.7-4.2-3c-1.2-1.3-2.1-2.9-2.7-4.8c-0.6-1.9-0.9-4.1-0.9-6.5
			c0-2.1,0.3-4,0.9-5.7c0.6-1.8,1.4-3.3,2.6-4.5s2.5-2.3,4.1-3c1.6-0.7,3.4-1.1,5.5-1.1c1.6,0,3.1,0.3,4.5,0.8
			c1.4,0.6,2.6,1.4,3.6,2.5c1,1.1,1.8,2.4,2.4,4c0.6,1.6,0.9,3.4,0.9,5.4c0,0.4-0.1,0.7-0.2,0.9c-0.1,0.2-0.3,0.2-0.6,0.2H239.7z
			 M258.9,54.5c0-1.5-0.2-2.9-0.7-4.2c-0.4-1.2-1-2.3-1.8-3.1c-0.8-0.9-1.7-1.5-2.8-2c-1.1-0.5-2.3-0.7-3.6-0.7
			c-1.5,0-2.8,0.2-4,0.7s-2.2,1.1-3.1,2c-0.9,0.9-1.6,1.9-2.1,3.1c-0.5,1.2-0.9,2.6-1,4.1H258.9z"/>
		<path class="st0" d="M276.8,72.3c-2,0-3.5-0.5-4.6-1.6c-1.1-1.1-1.6-2.8-1.6-5V45.9h-4.2c-0.2,0-0.4-0.1-0.5-0.2
			c-0.1-0.1-0.2-0.3-0.2-0.5v-1.1l4.9-0.3l0.7-10.3c0-0.2,0.1-0.3,0.2-0.5c0.1-0.1,0.3-0.2,0.5-0.2h1.3v11h9.1v2.1h-9.1v19.6
			c0,0.8,0.1,1.5,0.3,2c0.2,0.6,0.5,1,0.8,1.4c0.4,0.4,0.8,0.6,1.3,0.8c0.5,0.2,1,0.3,1.6,0.3c0.7,0,1.3-0.1,1.8-0.3
			c0.5-0.2,0.9-0.4,1.3-0.7c0.4-0.2,0.7-0.5,0.9-0.7s0.4-0.3,0.6-0.3c0.2,0,0.3,0.1,0.5,0.3l0.8,1.2c-0.7,0.8-1.7,1.5-2.8,2
			C279.2,72,278,72.3,276.8,72.3z"/>
		<path class="st0" d="M291.5,47.8c1.3-1.6,2.9-2.9,4.6-3.9c1.7-1,3.6-1.5,5.8-1.5c1.6,0,3,0.3,4.2,0.8c1.2,0.5,2.2,1.2,3,2.2
			c0.8,0.9,1.4,2.1,1.8,3.4c0.4,1.3,0.6,2.8,0.6,4.5v18.5h-2.8V53.4c0-2.7-0.6-4.8-1.9-6.4c-1.2-1.5-3.1-2.3-5.7-2.3
			c-1.9,0-3.6,0.5-5.3,1.4c-1.6,1-3.1,2.3-4.4,4v21.7h-2.8V29.6h2.8V47.8z"/>
		<path class="st0" d="M321.7,56.2v0.6c0,2.2,0.3,4.1,0.8,5.7c0.5,1.6,1.2,3,2.1,4.1c0.9,1.1,2.1,1.9,3.4,2.5
			c1.3,0.6,2.8,0.8,4.4,0.8c1.5,0,2.7-0.2,3.8-0.5c1.1-0.3,2-0.7,2.7-1.1c0.7-0.4,1.3-0.8,1.7-1.1c0.4-0.3,0.7-0.5,0.9-0.5
			c0.3,0,0.4,0.1,0.6,0.3l0.8,0.9c-0.5,0.6-1.1,1.1-1.8,1.6c-0.8,0.5-1.6,0.9-2.6,1.3c-0.9,0.4-1.9,0.6-3,0.9
			c-1.1,0.2-2.2,0.3-3.2,0.3c-2,0-3.8-0.3-5.4-1c-1.6-0.7-3-1.7-4.2-3c-1.2-1.3-2.1-2.9-2.7-4.8c-0.6-1.9-0.9-4.1-0.9-6.5
			c0-2.1,0.3-4,0.9-5.7c0.6-1.8,1.4-3.3,2.6-4.5s2.5-2.3,4.1-3c1.6-0.7,3.4-1.1,5.5-1.1c1.6,0,3.1,0.3,4.5,0.8
			c1.4,0.6,2.6,1.4,3.6,2.5c1,1.1,1.8,2.4,2.4,4c0.6,1.6,0.9,3.4,0.9,5.4c0,0.4-0.1,0.7-0.2,0.9c-0.1,0.2-0.3,0.2-0.6,0.2H321.7z
			 M340.9,54.5c0-1.5-0.2-2.9-0.7-4.2c-0.4-1.2-1-2.3-1.8-3.1c-0.8-0.9-1.7-1.5-2.8-2c-1.1-0.5-2.3-0.7-3.6-0.7
			c-1.5,0-2.8,0.2-4,0.7c-1.2,0.5-2.2,1.1-3.1,2c-0.9,0.9-1.6,1.9-2.1,3.1c-0.5,1.2-0.9,2.6-1,4.1H340.9z"/>
		<path class="st0" d="M373.4,42.9v28.9h-1.5c-0.5,0-0.8-0.3-0.8-0.8l-0.3-4.3c-1.3,1.7-2.9,3-4.6,4c-1.8,1-3.7,1.5-5.8,1.5
			c-1.6,0-3-0.3-4.2-0.8c-1.2-0.5-2.2-1.2-3-2.2c-0.8-0.9-1.4-2.1-1.8-3.4s-0.6-2.8-0.6-4.5V42.9h2.8v18.5c0,2.7,0.6,4.8,1.9,6.4
			c1.2,1.5,3.1,2.3,5.7,2.3c1.9,0,3.6-0.5,5.3-1.4c1.6-1,3.1-2.3,4.4-4V42.9H373.4z"/>
		<path class="st0" d="M398.7,46.5c-0.2,0.3-0.4,0.4-0.7,0.4c-0.2,0-0.5-0.1-0.8-0.4c-0.3-0.2-0.8-0.5-1.3-0.8
			c-0.6-0.3-1.2-0.6-2-0.8c-0.8-0.2-1.8-0.4-3-0.4c-1,0-2,0.1-2.9,0.4c-0.9,0.3-1.6,0.7-2.2,1.2c-0.6,0.5-1.1,1.1-1.4,1.8
			c-0.3,0.7-0.5,1.4-0.5,2.1c0,0.9,0.2,1.7,0.7,2.3c0.5,0.6,1.1,1.1,1.8,1.5c0.7,0.4,1.6,0.8,2.6,1.1c1,0.3,1.9,0.6,2.9,0.9
			c1,0.3,2,0.7,2.9,1c1,0.4,1.8,0.8,2.6,1.4c0.7,0.6,1.3,1.2,1.8,2.1c0.5,0.8,0.7,1.8,0.7,3c0,1.3-0.2,2.4-0.7,3.5
			c-0.4,1.1-1.1,2-2,2.8c-0.9,0.8-1.9,1.4-3.2,1.9c-1.3,0.5-2.7,0.7-4.3,0.7c-2,0-3.8-0.3-5.3-1s-2.8-1.5-3.9-2.5l0.6-1
			c0.1-0.2,0.2-0.3,0.3-0.3c0.1-0.1,0.3-0.1,0.5-0.1c0.3,0,0.6,0.2,0.9,0.5c0.4,0.3,0.8,0.6,1.4,1c0.6,0.4,1.3,0.7,2.2,1
			c0.9,0.3,2,0.5,3.3,0.5c1.2,0,2.3-0.2,3.2-0.5c0.9-0.3,1.7-0.8,2.3-1.4c0.6-0.6,1.1-1.3,1.4-2c0.3-0.8,0.5-1.6,0.5-2.5
			c0-1-0.2-1.8-0.7-2.4c-0.5-0.6-1.1-1.2-1.8-1.6c-0.8-0.4-1.6-0.8-2.6-1.1c-1-0.3-1.9-0.6-2.9-0.9c-1-0.3-2-0.6-2.9-1
			c-1-0.4-1.8-0.8-2.6-1.4c-0.8-0.6-1.4-1.2-1.8-2c-0.5-0.8-0.7-1.8-0.7-3c0-1,0.2-2,0.7-3c0.4-0.9,1.1-1.8,1.9-2.5
			c0.8-0.7,1.8-1.3,3-1.7c1.2-0.4,2.5-0.6,4-0.6c1.8,0,3.3,0.3,4.7,0.8c1.4,0.5,2.6,1.3,3.7,2.3L398.7,46.5z"/>
	</g>
	<g>
		<path class="st0" d="M45.6,4.4C20.4,4.4,0,24.8,0,50s20.4,45.6,45.6,45.6S91.2,75.2,91.2,50S70.8,4.4,45.6,4.4z M45.7,89.3
			c-7.5,0-13.7-4.9-13.7-10.9h27.3C59.3,84.4,53.2,89.3,45.7,89.3z M66.8,74.9H24.4v-7.8h42.5V74.9z M66.7,63H24.3
			c-5.1-6-6.3-11.1-6.3-11.1l12.7,2.5c-1.7-2.2-4-6.3-3.7-12.4c0,0-0.6-2.7,2.7-9.7c3.3-7,1.6-12.8,1.6-12.8s4.5,0.1,5.7,12.8
			c0,0,3.9-4.2,3.6-12.4s5-10.9,5-10.9s-2.1,4.9,0.9,9.9c2.9,4.8,2.9,9.7,3.3,15.3c0,0.6,0.2,1.4,0.5,1.9c0.2,0.4,0.6,0.7,1,0.7
			c0,0-2.6-15.1,5.1-20.1c0,0-1.4,7,1.1,11c2.4,3.9,6.6,10.1,5.1,18.4c-0.9,4.7-2.4,6.7-4,8.8l15-3C71.8,58.5,66.7,63,66.7,63z"/>
	</g>
</g>
</svg>
