<svg enable-background="new 0 0 200 200" viewBox="0 0 200 200" xmlns="http://www.w3.org/2000/svg"><g clip-rule="evenodd" fill-rule="evenodd"><path d="m73.3-.2c-11.1 0-20 9-20 20 0 11.1 8.9 20 20 20h20v-20c.1-11-8.9-20-20-20zm0 53.5h-53.3c-11.1 0-20 9-20 20 0 11.1 8.9 20 20 20h53.3c11.1 0 20-9 20-20 0-11.1-8.9-20-20-20z" fill="#36c5f0"/><path d="m200 73.3c0-11.1-8.9-20-20-20s-20 9-20 20v20h20c11 0 20-9 20-20zm-53.3 0v-53.4c0-11-8.9-20-20-20s-20 9-20 20v53.4c0 11.1 8.9 20 20 20 11 0 20-9 20-20z" fill="#2eb67d"/><path d="m126.7 200.2c11.1 0 20-9 20-20 0-11.1-8.9-20-20-20h-20v20c-.1 11 8.9 20 20 20zm0-53.5h53.3c11.1 0 20-9 20-20 0-11.1-8.9-20-20-20h-53.3c-11.1 0-20 9-20 20 0 11.1 8.9 20 20 20z" fill="#ecb22e"/><path d="m0 126.7c0 11.1 8.9 20 20 20s20-9 20-20v-20h-20c-11 0-20 9-20 20zm53.3 0v53.4c0 11.1 8.9 20 20 20s20-9 20-20v-53.4c0-11.1-8.9-20-20-20-11 0-20 9-20 20z" fill="#e01e5a"/></g></svg>