<?xml version="1.0" encoding="utf-8"?>
<!-- Generator: Adobe Illustrator 19.0.1, SVG Export Plug-In . SVG Version: 6.00 Build 0)  -->
<!DOCTYPE svg PUBLIC "-//W3C//DTD SVG 1.1//EN" "http://www.w3.org/Graphics/SVG/1.1/DTD/svg11.dtd">
<svg version="1.1" id="Layer_1" xmlns="http://www.w3.org/2000/svg" xmlns:xlink="http://www.w3.org/1999/xlink" x="0px" y="0px"
	 width="200px" height="200px" viewBox="70 0 200 200" style="enable-background:new 70 0 200 200;" xml:space="preserve">
<style type="text/css">
	.st0{fill:#FFFFFF;}
</style>
<g id="Layer_1_1_">
</g>
<g id="Layer_3">
</g>
<g id="Layer_4">
</g>
<g id="Layer_2">
	<g>
		
			<rect x="155.9" y="86.6" transform="matrix(-0.9482 0.3176 -0.3176 -0.9482 363.0016 141.1279)" class="st0" width="28.1" height="27.2"/>
		<g>
			
				<rect x="155.9" y="86.6" transform="matrix(-0.9482 0.3176 -0.3176 -0.9482 363.0016 141.1279)" class="st0" width="28.1" height="27.2"/>
			<path class="st0" d="M261.6,72.5C241,3.7,211.3-12.2,142.5,8.4S57.8,58.7,78.4,127.5s50.4,84.7,119.1,64.1
				S282.2,141.3,261.6,72.5z M226.9,117.1l-13,4.3l4.5,13.4c1.8,5.4-1.1,11.4-6.6,13.1c-1.1,0.3-2.4,0.6-3.5,0.5
				c-4.2-0.2-8.2-2.9-9.6-7l-4.5-13.4l-26.7,9l4.5,13.4c1.8,5.4-1.1,11.4-6.6,13.1c-1.1,0.3-2.4,0.6-3.5,0.5c-4.2-0.2-8.2-2.9-9.6-7
				l-4.5-13.4l-13,4.3c-1.1,0.3-2.4,0.6-3.5,0.5c-4.2-0.2-8.2-2.9-9.6-7c-1.8-5.4,1.1-11.4,6.6-13.1l13-4.3l-8.6-25.7l-13,4.3
				c-1.1,0.3-2.4,0.6-3.5,0.5c-4.2-0.2-8.2-2.9-9.6-7c-1.8-5.4,1.1-11.4,6.6-13.1l13-4.3L121.7,65c-1.8-5.4,1.1-11.4,6.6-13.1
				c5.4-1.8,11.4,1.1,13.1,6.6l4.5,13.4l26.7-9l-4.5-13.4c-1.8-5.4,1.1-11.4,6.6-13.1c5.4-1.8,11.4,1.1,13.1,6.6l4.5,13.4l13-4.3
				c5.4-1.8,11.4,1.1,13.1,6.6c1.8,5.4-1.1,11.4-6.6,13.1l-13,4.3l8.6,25.7l13-4.3c5.4-1.8,11.4,1.1,13.1,6.6
				C235.2,109.4,232.4,115.3,226.9,117.1z"/>
		</g>
	</g>
</g>
</svg>
