<?xml version="1.0" encoding="utf-8"?>
<!-- Generator: Adobe Illustrator 20.1.0, SVG Export Plug-In . SVG Version: 6.00 Build 0)  -->
<svg version="1.1" id="Layer_1" xmlns="http://www.w3.org/2000/svg" xmlns:xlink="http://www.w3.org/1999/xlink" x="0px" y="0px"
	 width="197.1px" height="251.6px" viewBox="0 0 197.1 251.6" enable-background="new 0 0 197.1 251.6" xml:space="preserve">
<circle cx="98.5" cy="153.1" r="98.5"/>
<path d="M98.5,251.6c-1.1,0-2.2,0-3.3-0.1C96.3,251.6,97.4,251.6,98.5,251.6z M117.8,249.7c1.4-0.3,2.7-0.6,4.1-0.9
	C120.6,249.1,119.2,249.4,117.8,249.7z"/>
<path fill="#707070" d="M37.3,230.2c5.3,4.2,11.1,7.9,17.3,11c-3.7-7.7-6.7-15.5-8.8-21.7C42.6,222,39.8,225.7,37.3,230.2z"/>
<path fill="#4D4D4D" d="M148.4,219.1c1.8-5,2.9-8.7,3.4-10.5c1-3.2,1.7-5.4,2.6-9c1-3.8,2.6-10.6,3.9-19.5
	c2.2-15.8,3.2-38.6-2.1-64.8c-2.5-12.7-6.5-26.1-12.6-40c-0.9-2-2.9-6.7-2.9-6.7c0.2,0.5,0.4,0.9,0.6,1.4c0,0-2.9,1-10.2,2.1
	c-10.7,1.9-22.3,2.8-34.2,2.8c-13.1,0-25.8-1.2-37.4-3.4c-0.5,1.2-1,2.5-1.5,3.8C70.1,77.7,83.3,79,97,79c1.7,0,3.4,0,5.2-0.1
	c0.8,0,1.7,0,2.5-0.1c1.1,0,2.2-0.1,3.3-0.1c0.8,0,1.7-0.1,2.5-0.1c1.1-0.1,2.2-0.1,3.2-0.2c0.8-0.1,1.7-0.1,2.5-0.2
	c1.1-0.1,2.1-0.2,3.2-0.3l2.4-0.3c1.1-0.1,2.1-0.3,3.2-0.4c0.8-0.1,1.5-0.2,2.3-0.3c1.1-0.2,2.2-0.3,3.3-0.5l2.1-0.3
	c0.3-0.1,0.6-0.1,0.9-0.2l-0.5,0.1l0.5,1c2.6,5.8,15.6,35.8,16.4,73.2c-14.1,3-32.6,2.8-38,2.6c0.3-7,0.4-13.4,0.4-19.2
	c-0.9,0.8-1.9,1.5-3,2.1c0,16.9-1.3,38.3-5.1,64.2c-0.3,2-0.6,4-0.9,6.1v0.2H79.6c-0.7,0-1.4,0-2.1-0.1c-0.6,0-1.2,0-1.7-0.1
	c-0.7,0-1.4,0-2.1-0.1c-0.6,0-1.1,0-1.7-0.1c-0.7,0-1.4-0.1-2-0.1s-1.1-0.1-1.7-0.1c-0.7,0-1.3-0.1-2-0.1h-0.9
	c-5.3-0.3-10.3-0.6-15.2-1v1.7c0.1-0.2,0.3-0.3,0.5-0.3h0.1c0.3,0,0.6,0.3,0.6,0.7c0,0.3-0.3,0.6-0.6,0.6h-0.1
	c-0.2,0-0.4-0.1-0.5-0.3v1.5c5.8,0.5,12.9,1,15.3,1.1c10,0.5,20.7,0.8,31.7,0.8c15.5,0,30.5-0.5,43.9-1.6h-0.2c0,0-0.1,1.7-0.4,4.7
	c-0.7,6.4-2.3,18.7-6.2,32c1.3-0.5,2.5-1,3.8-1.6c0.1-0.1,0.3-0.1,0.4-0.2h0.1c0.5-1.1,1.1-2.4,1.9-4.1c1.3-3,3-6.7,4.5-10.5
	c0.3-0.6,0.5-1.2,0.8-1.9C146.5,224.2,147.5,221.5,148.4,219.1c0,1.1,0,10.6-3.6,21c3.5-1.9,6.8-3.9,10.1-6.2
	c1.1-0.7,2.1-1.5,3.2-2.3C155.2,226.1,152,221.9,148.4,219.1L148.4,219.1z M61.9,73.9c-0.1,0.3-0.3,0.5-0.6,0.5h-0.1
	c-0.3-0.1-0.6-0.4-0.5-0.7s0.3-0.6,0.7-0.5l-0.1,0.6l0.1-0.6h0.1C61.8,73.2,62,73.6,61.9,73.9z M65.4,75.1L65.4,75.1
	c-0.4-0.1-0.7-0.4-0.7-0.7c0.1-0.3,0.3-0.6,0.7-0.5h0.1c0.3,0.1,0.6,0.4,0.5,0.7C65.9,74.9,65.7,75.1,65.4,75.1z M69.4,75.7h-0.2
	c-0.3,0-0.6-0.4-0.5-0.7s0.4-0.6,0.7-0.5L69.3,75l0.2-0.6c0.3,0,0.6,0.4,0.5,0.7C70,75.4,69.7,75.7,69.4,75.7z M73.5,76.2
	C73.5,76.2,73.4,76.2,73.5,76.2h-0.2c-0.3,0-0.6-0.4-0.5-0.7c0-0.3,0.3-0.6,0.7-0.5h0.1c0.3,0,0.6,0.4,0.5,0.7
	C74.1,75.9,73.8,76.2,73.5,76.2z M77.6,76.6C77.5,76.6,77.5,76.6,77.6,76.6c-0.4,0-0.7-0.3-0.7-0.7s0.3-0.6,0.6-0.6h0.1
	c0.3,0,0.6,0.3,0.6,0.7C78.2,76.3,77.9,76.6,77.6,76.6z M81.7,76.9C81.6,76.9,81.6,76.9,81.7,76.9c-0.4,0-0.7-0.3-0.7-0.7
	c0-0.3,0.3-0.6,0.6-0.6h0.1c0.3,0,0.6,0.3,0.6,0.7C82.2,76.7,82,76.9,81.7,76.9z M85.7,77.2L85.7,77.2c-0.4,0-0.7-0.3-0.7-0.7
	s0.3-0.6,0.7-0.6v0.6l0.1-0.6c0.3,0,0.6,0.3,0.6,0.6C86.4,76.9,86.1,77.2,85.7,77.2z M89.8,77.4c-0.4,0-0.7-0.3-0.7-0.6
	s0.2-0.6,0.6-0.6h0.1c0.3,0,0.6,0.3,0.6,0.6C90.5,77.1,90.2,77.4,89.8,77.4z M93.9,77.4c-0.4,0-0.7-0.3-0.7-0.6s0.2-0.6,0.6-0.6h0.1
	c0.3,0,0.6,0.3,0.6,0.6C94.6,77.2,94.3,77.4,93.9,77.4z M98.1,77.5L98.1,77.5c-0.4,0-0.7-0.3-0.7-0.6s0.3-0.6,0.6-0.6v0.6l0.1-0.6
	c0.3,0,0.6,0.3,0.6,0.6S98.4,77.4,98.1,77.5z M102.2,77.4C102.2,77.4,102.1,77.4,102.2,77.4c-0.4,0-0.7-0.3-0.7-0.6s0.2-0.6,0.6-0.6
	h0.1c0.3,0,0.6,0.3,0.6,0.6S102.5,77.4,102.2,77.4z M106.3,77.2C106.3,77.2,106.2,77.2,106.3,77.2c-0.4,0-0.7-0.3-0.7-0.6
	s0.2-0.6,0.5-0.6h0.1c0.4,0,0.6,0.3,0.6,0.6C106.9,76.9,106.6,77.2,106.3,77.2z M110.4,77L110.4,77c-0.4,0-0.7-0.3-0.7-0.6
	s0.2-0.6,0.6-0.7v0.6v-0.6c0.3,0,0.6,0.2,0.7,0.6C111,76.7,110.7,77,110.4,77z M114.5,76.7C114.5,76.7,114.4,76.7,114.5,76.7
	c-0.4,0-0.7-0.2-0.7-0.6c0-0.3,0.2-0.6,0.5-0.7h0.1c0.3,0,0.6,0.2,0.7,0.6S114.8,76.7,114.5,76.7z M118.6,76.3
	C118.5,76.3,118.5,76.3,118.6,76.3c-0.4,0-0.7-0.2-0.7-0.5s0.2-0.6,0.5-0.7h0.1c0.3,0,0.6,0.2,0.7,0.6
	C119.2,76,118.9,76.3,118.6,76.3z M122.7,75.8L122.7,75.8h-0.2c-0.3,0-0.6-0.2-0.6-0.6c0-0.3,0.2-0.7,0.5-0.7h0.1
	c0.3-0.1,0.7,0.2,0.7,0.5S123,75.8,122.7,75.8z M126.7,75.3L126.7,75.3h-0.2c-0.3,0-0.6-0.2-0.6-0.5c-0.1-0.3,0.2-0.7,0.5-0.7
	l0.1,0.6v-0.6c0.3-0.1,0.7,0.2,0.7,0.5S127.1,75.2,126.7,75.3z M130.8,74.6h-0.1c-0.3,0-0.6-0.2-0.7-0.5c-0.1-0.3,0.1-0.7,0.5-0.7
	h0.1c0.3-0.1,0.7,0.2,0.7,0.5S131.1,74.6,130.8,74.6z M54.7,207.1C54.7,207.1,54.6,207.1,54.7,207.1h-0.2c-0.3,0-0.6-0.3-0.6-0.7
	s0.3-0.6,0.7-0.6l-0.1,0.6l0.1-0.6c0.3,0,0.6,0.3,0.6,0.7C55.3,206.8,55,207.1,54.7,207.1z M58.8,207.4
	C58.7,207.4,58.7,207.4,58.8,207.4c-0.4,0-0.7-0.3-0.7-0.7c0-0.3,0.3-0.6,0.6-0.6h0.1c0.3,0,0.6,0.3,0.6,0.7S59.1,207.4,58.8,207.4z
	 M62.9,207.7C62.8,207.7,62.8,207.7,62.9,207.7c-0.4,0-0.7-0.3-0.7-0.7c0-0.3,0.2-0.6,0.6-0.6h0.1c0.3,0,0.6,0.3,0.6,0.7
	C63.4,207.4,63.2,207.7,62.9,207.7z M66.9,207.9c-0.4,0-0.7-0.3-0.7-0.7c0-0.3,0.2-0.6,0.6-0.6h0.1c0.3,0,0.6,0.3,0.6,0.7
	C67.6,207.7,67.3,207.9,66.9,207.9z M71,208.1L71,208.1c-0.4,0-0.7-0.3-0.7-0.7s0.3-0.6,0.7-0.6v0.6l0.1-0.6c0.3,0,0.6,0.3,0.6,0.6
	C71.7,207.9,71.4,208.1,71,208.1z M75.1,208.3c-0.4,0-0.7-0.3-0.7-0.7c0-0.3,0.2-0.6,0.6-0.6h0.1c0.3,0,0.6,0.3,0.6,0.7
	S75.5,208.3,75.1,208.3z M79.2,208.5c-0.4,0-0.7-0.3-0.7-0.6s0.2-0.6,0.6-0.6h0.1c0.3,0,0.6,0.3,0.6,0.6
	C79.9,208.2,79.6,208.5,79.2,208.5z M83.3,208.6c-0.4,0-0.7-0.3-0.7-0.6s0.2-0.6,0.6-0.6h0.1c0.3,0,0.6,0.3,0.6,0.6
	C84,208.3,83.7,208.6,83.3,208.6z M87.4,208.7L87.4,208.7c-0.4,0-0.7-0.3-0.7-0.6s0.3-0.6,0.6-0.6v0.6l0.1-0.6
	c0.3,0,0.6,0.3,0.6,0.6S87.8,208.7,87.4,208.7z M91.5,208.8c-0.4,0-0.7-0.3-0.7-0.6s0.2-0.6,0.6-0.6h0.1c0.3,0,0.6,0.3,0.6,0.6
	C92.2,208.5,91.9,208.8,91.5,208.8z M95.6,208.8c-0.3,0-0.7-0.3-0.7-0.6s0.2-0.6,0.6-0.6h0.1c0.3,0,0.6,0.3,0.6,0.6
	S96,208.8,95.6,208.8z M149.5,205.4c0,0.3-0.2,0.7-0.5,0.7h-0.1h-0.1c-0.3,0-0.6-0.2-0.6-0.6c0-0.3,0.2-0.7,0.5-0.7h0.1
	C149.1,204.8,149.4,205,149.5,205.4L149.5,205.4z M144.6,205.3l0.1,0.6l0.1,0.6h-0.1h-0.1c-0.3,0-0.6-0.2-0.6-0.6
	C144,205.6,144.3,205.3,144.6,205.3v0.6V205.3z M151,150.6h0.1c0.3-0.1,0.7,0.1,0.7,0.5c0.1,0.3-0.1,0.7-0.5,0.7h-0.2
	c-0.3,0-0.6-0.2-0.6-0.5S150.6,150.7,151,150.6z M154.9,149.6h0.1c0.3-0.1,0.7,0.1,0.8,0.4c0.1,0.3-0.1,0.7-0.4,0.8h-0.2
	c-0.3,0-0.6-0.2-0.6-0.4C154.4,150,154.6,149.7,154.9,149.6L154.9,149.6z M138.5,71.9h0.1c0.3-0.1,0.7,0.1,0.7,0.5
	c0.1,0.3-0.1,0.7-0.5,0.7h-0.1c-0.3,0-0.6-0.2-0.7-0.5C138,72.2,138.2,71.9,138.5,71.9z M134.5,72.7c0.4-0.1,0.7,0.1,0.8,0.5
	s-0.1,0.7-0.5,0.7h-0.1h-0.1c-0.3,0-0.6-0.2-0.6-0.5C133.9,73,134.2,72.7,134.5,72.7L134.5,72.7z M147,151.5
	c0.4-0.1,0.8,0.1,0.8,0.5c0.1,0.3-0.2,0.7-0.5,0.7h-0.1h-0.1c-0.3,0-0.6-0.2-0.6-0.5C146.4,151.8,146.6,151.5,147,151.5L147,151.5z
	 M142.9,152.1h0.1c0.3,0,0.7,0.2,0.7,0.5s-0.2,0.7-0.5,0.7h-0.1c-0.3,0-0.6-0.2-0.7-0.5C142.4,152.5,142.6,152.1,142.9,152.1z
	 M138.9,152.6h0.1c0.3,0,0.6,0.2,0.7,0.6c0,0.3-0.2,0.6-0.6,0.7H139c-0.3,0-0.6-0.2-0.7-0.5C138.3,152.9,138.5,152.6,138.9,152.6z
	 M134.8,153h0.1c0.3,0,0.6,0.2,0.7,0.6c0,0.3-0.2,0.6-0.6,0.7c-0.3,0-0.6-0.2-0.7-0.6C134.3,153.3,134.5,153,134.8,153z
	 M130.8,153.2h0.1c0.3,0,0.6,0.3,0.6,0.6s-0.3,0.6-0.6,0.6s-0.7-0.3-0.7-0.6S130.4,153.2,130.8,153.2L130.8,153.2z M126.7,153.4
	L126.7,153.4c0.4,0,0.7,0.3,0.7,0.6s-0.3,0.6-0.6,0.6s-0.7-0.3-0.7-0.6S126.3,153.4,126.7,153.4z M122.6,153.4
	c0.4,0,0.7,0.3,0.7,0.6s-0.3,0.6-0.6,0.6s-0.7-0.3-0.7-0.6S122.2,153.4,122.6,153.4z M118.5,153.4L118.5,153.4
	c0.4,0,0.7,0.3,0.7,0.6s-0.3,0.6-0.6,0.6h-0.1c-0.3,0-0.6-0.3-0.6-0.6S118.1,153.4,118.5,153.4z M114.4,153.3L114.4,153.3
	c0.4,0,0.7,0.3,0.7,0.7c0,0.3-0.3,0.6-0.6,0.6s-0.7-0.3-0.6-0.7C113.8,153.5,114,153.2,114.4,153.3z M99.7,208.8
	c-0.3,0-0.7-0.3-0.7-0.6s0.2-0.6,0.6-0.6h0.1c0.3,0,0.6,0.3,0.6,0.6S100.1,208.8,99.7,208.8z M103.9,208.8L103.9,208.8
	c-0.4,0-0.7-0.3-0.7-0.6s0.3-0.6,0.6-0.6v0.6l0.1-0.6c0.4,0,0.6,0.3,0.6,0.6S104.2,208.8,103.9,208.8z M107.4,199.6
	c2.4-16.5,3.8-31.1,4.5-44c1.4,0,3.7,0.1,6.6,0.1c8.1,0,20.9-0.4,31.6-2.7c0.1,14.8-1.8,30.6-7,46.5c-0.5,1.6-1.1,3.2-1.7,4.9
	c-10.7,0.8-22.6,1.4-34.9,1.5C106.8,203.7,107.1,201.6,107.4,199.6z M107.9,208.7c-0.3,0-0.7-0.3-0.7-0.6s0.2-0.6,0.6-0.6h0.1
	c0.3,0,0.6,0.3,0.6,0.6S108.3,208.7,107.9,208.7z M112.1,208.6C112.1,208.6,112,208.6,112.1,208.6c-0.4,0-0.7-0.3-0.7-0.6
	s0.2-0.6,0.6-0.6h0.1c0.3,0,0.6,0.3,0.6,0.6S112.4,208.6,112.1,208.6z M116.2,208.5L116.2,208.5c-0.4,0-0.7-0.3-0.7-0.6
	s0.3-0.6,0.6-0.6v0.6l0.1-0.6c0.3,0,0.6,0.2,0.7,0.6S116.5,208.5,116.2,208.5z M120.3,208.3C120.2,208.3,120.2,208.3,120.3,208.3
	c-0.4,0-0.7-0.3-0.7-0.6s0.2-0.6,0.5-0.6h0.1c0.4,0,0.6,0.3,0.6,0.6S120.6,208.3,120.3,208.3z M124.3,208.1c-0.4,0-0.7-0.3-0.7-0.6
	s0.2-0.6,0.5-0.6h0.1c0.3,0,0.6,0.3,0.6,0.6C125,207.8,124.7,208.1,124.3,208.1z M128.5,207.9C128.4,207.9,128.4,207.9,128.5,207.9
	c-0.4,0-0.7-0.3-0.7-0.6s0.2-0.6,0.5-0.7h0.1c0.3,0,0.6,0.2,0.7,0.6S128.8,207.8,128.5,207.9z M132.6,207.6h-0.1
	c-0.3,0-0.6-0.3-0.6-0.6s0.2-0.6,0.6-0.7v0.6v-0.6c0.3,0,0.6,0.2,0.7,0.6S132.9,207.6,132.6,207.6L132.6,207.6z M136.6,207.3
	c-0.4,0-0.7-0.2-0.7-0.6c0-0.3,0.2-0.6,0.5-0.7h0.1c0.3,0,0.6,0.2,0.7,0.6S137,207.3,136.6,207.3z M140.7,206.9
	c-0.4,0-0.7-0.2-0.7-0.6c0-0.3,0.2-0.6,0.5-0.7h0.1c0.3,0,0.6,0.2,0.7,0.6S141.1,206.9,140.7,206.9z M43.9,203.5l-3.3-0.3
	c-0.3-1.1-0.6-2.3-0.9-3.4c0,0,0.1,1.1,2.2,8c-0.1-0.3-0.1-0.5-0.1-0.5s1.3,0.1,3.3,0.3L43.9,203.5z M42.4,205.9
	c-0.4,0-0.7-0.4-0.7-0.7s0.3-0.6,0.6-0.6h0.1c0.3,0,0.6,0.4,0.5,0.7C43,205.7,42.7,205.9,42.4,205.9z M55,74.5
	c0.5-1.2,1.1-2.5,1.7-3.7c-1.3-0.3-2.7-0.6-4-0.9c0.1-0.3,0.3-0.6,0.4-0.9c-0.8,1.8-2.9,6.7-3,7c0.3-0.8,0.6-1.6,1-2.4
	C52.3,73.9,53.7,74.2,55,74.5z M52.6,71.8c0.1-0.3,0.4-0.5,0.7-0.5h0.1c0.3,0.1,0.5,0.4,0.4,0.8c-0.1,0.3-0.3,0.5-0.6,0.5H53
	C52.8,72.5,52.6,72.2,52.6,71.8z"/>
<path fill="#F7941D" d="M97,0c0,0,15,17,29.6,41.4C111.5,15.7,97,0,97,0z M52.7,69.9c1.3,0.3,2.7,0.6,4,0.9l0.9-1.8
	c0.3-0.7,0.7-1.4,1-2.2c-0.6-0.2-1-0.3-1-0.3C70.2,36,94.9,5.3,94.9,5.3c10,67.8-22.7,65.1-33.7,62.3c-0.2,0.5-0.4,0.9-0.6,1.4
	c-0.3,0.8-0.7,1.6-1,2.4c11.6,2.2,24.3,3.4,37.4,3.4c11.9,0,23.4-1,34.2-2.8l-1.6-3.4L97,0c0,0-23.5,25.5-41.9,64.6
	c-0.7,1.4-1.4,2.9-2,4.4C53,69.3,52.8,69.6,52.7,69.9z"/>
<path fill="#707070" d="M122.1,248.8c4.1-1,8.1-2.3,12-3.8c3.9-13.3,5.6-25.5,6.2-32c0.3-2.9,0.4-4.7,0.4-4.7h0.2
	c-13.4,1-28.3,1.6-43.9,1.6c-11,0-21.6-0.3-31.7-0.8h0.3c0,0-1.5,0.5-1.5,3.7c0,0.5,0,1.1,0.1,1.7c0.4,2.7,5.3,21.8,5.4,32.7
	c1,0.3,1.9,0.6,2.9,0.8c0.1,0,0.2,0.1,0.3,0.1c3,0.8,6,1.5,9.1,2h0.2c3.1,0.5,6.3,0.9,9.6,1.1h0.1c1.1,0.1,2.2,0.1,3.3,0.2
	l-0.7-30.5c0-2,1.5-3.7,3.4-3.7s3.4,1.6,3.4,3.7l-0.7,30.5h0.3c0.3-10.1,0.5-21.4,0.5-30.6c4.4,14.2,10.7,23.1,16.3,28.7
	c1.4-0.3,2.7-0.6,4.1-0.9C122,248.8,122,248.8,122.1,248.8z"/>
<path fill="#B3B3B3" d="M54.1,76.4c0.3-0.6,0.5-1.3,0.8-1.9L51,73.6c-0.3,0.8-0.6,1.6-1,2.4c-4.8,11.7-9,24.4-12,37.8
	c0.4,0.1,1.6,0.5,3.6,0.9C44.3,102.7,48.3,89.9,54.1,76.4z M72.7,118.2L72.7,118.2z M45.5,115.5c5.4,1,14.1,2.1,26.9,2.8
	c-0.2-1.3-0.3-2.7-0.3-4.1v-0.6v-0.5c0-9.8,5.7-18.2,14-22.2c2.8-4.6,5.9-8.2,9.1-10.2c1.9-1.2,3.8-1.9,5.8-1.9h1.1
	c-1.7,0-3.4,0.1-5.2,0.1c-13.7,0-26.9-1.3-39-3.7c-0.2,0.5-0.4,1.1-0.6,1.6C52.8,88.4,48.5,101.5,45.5,115.5L45.5,115.5z
	 M73.7,121.6c0,0.1,0.1,0.2,0.1,0.3C73.7,121.8,73.7,121.7,73.7,121.6z M73.6,121.4C73.6,121.5,73.6,121.5,73.6,121.4
	C73.6,121.5,73.6,121.5,73.6,121.4z M43.9,203.5c0,0-0.5-1.3-1.2-3.8c-3-10.3-10.1-41.1-1.7-82.1c-1.8-0.4-2.9-0.7-3.6-0.9
	c-2.4,11.7-3.8,24-3.8,36.6c0,16.2,2.3,31.8,6.1,46.4c0.3,1.1,0.6,2.3,0.9,3.4C41.7,203.3,42.8,203.4,43.9,203.5L43.9,203.5z
	 M37.8,119.8c0.1-0.3,0.4-0.6,0.7-0.5h0.1c0.3,0.1,0.5,0.4,0.5,0.8c-0.1,0.3-0.3,0.5-0.6,0.5h-0.2C38,120.4,37.8,120.1,37.8,119.8z"
	/>
<path fill="#B3B3B3" d="M63,199.7c-1.4-13.2,2.5-48.2,10.6-77.1c-0.1-0.4-0.3-0.8-0.4-1.2c-13.5-0.7-22.6-1.9-28.3-2.9
	c-5,25.5-5.7,53.7,3.5,81.3c0.5,1.5,1,2.9,1.5,4.4c4.8,0.4,9.9,0.8,15.2,1C64.1,205.1,63.4,203.1,63,199.7z M46.6,122.1h-0.2
	c-0.3-0.1-0.6-0.4-0.5-0.7c0.1-0.3,0.4-0.6,0.7-0.5s0.6,0.4,0.6,0.7C47.1,121.9,46.9,122.1,46.6,122.1z M71.1,123.1
	c0.3,0,0.7,0.3,0.6,0.7c0,0.3-0.2,0.6-0.6,0.6H71c-0.3,0-0.6-0.3-0.6-0.7S70.7,123.1,71.1,123.1z M67,122.9c0.3,0,0.7,0.3,0.6,0.7
	c0,0.3-0.2,0.6-0.6,0.6h-0.1c-0.3,0-0.6-0.3-0.6-0.7C66.3,123.1,66.6,122.9,67,122.9z M62.9,122.6c0.3,0,0.6,0.3,0.6,0.7
	c0,0.3-0.3,0.6-0.6,0.6h-0.1c-0.3,0-0.6-0.3-0.6-0.7C62.2,122.9,62.5,122.6,62.9,122.6z M58.8,122.3c0.3,0,0.6,0.3,0.6,0.7
	c0,0.3-0.3,0.6-0.6,0.6h-0.2c-0.3,0-0.6-0.3-0.6-0.7C58.1,122.5,58.4,122.3,58.8,122.3z M54.7,121.9L54.7,121.9
	c0.4,0,0.7,0.4,0.6,0.7c0,0.3-0.3,0.6-0.6,0.6h-0.2c-0.3,0-0.6-0.3-0.6-0.7C54.1,122.1,54.4,121.9,54.7,121.9z M50.7,121.4
	c0.3,0.1,0.6,0.4,0.6,0.7c0,0.3-0.3,0.5-0.6,0.5h-0.1h-0.1c-0.3-0.1-0.6-0.4-0.5-0.7S50.3,121.4,50.7,121.4z M133.1,75.7l0.5-0.1
	c-0.3,0.1-0.6,0.1-0.9,0.2C132.8,75.8,132.9,75.7,133.1,75.7z"/>
<path fill="#F3AB5C" d="M83.3,26.5c0,0-11.3,16.2-22.2,41.1c11.1,2.8,43.7,5.6,33.7-62.3c0,0-24.7,30.7-37.3,61.2c0,0,0.3,0.1,1,0.3
	C64.9,53.8,73.1,40.2,83.3,26.5z"/>
<path fill="#F37021" d="M129.6,68.6l1.6,3.4c7.2-1.1,10.2-2.1,10.2-2.1c-0.2-0.5-0.4-0.9-0.6-1.4c-0.9-1.9-1.7-3.9-2.6-5.8
	c-3.6-7.6-7.5-14.7-11.5-21.4C112,17,97,0,97,0L129.6,68.6z"/>
<path fill="#707070" d="M112.4,132.1c3.4-2.7,6-6.4,7.5-10.5C118.4,125.7,115.8,129.4,112.4,132.1z M73.6,122.6
	c-8.1,28.9-12,63.9-10.6,77.1c0.4,3.4,1.1,5.4,2.2,5.4h0.9c0.7,0,1.3,0.1,2,0.1c0.6,0,1.1,0.1,1.7,0.1c0.7,0,1.4,0.1,2,0.1
	s1.1,0,1.7,0.1c0.7,0,1.4,0,2.1,0.1c0.6,0,1.1,0,1.7,0.1c0.7,0,1.4,0,2.1,0.1h23.8v-0.2c0.3-2.1,0.6-4.1,0.9-6.1
	c3.8-25.8,5-47.3,5.1-64.2c-3.7,2.2-8,3.5-12.6,3.5C86.1,138.9,77,132.1,73.6,122.6L73.6,122.6z M101.3,203.4l-1.2-0.2
	c0.1-0.3,0.4-0.6,0.7-0.5C101.1,202.7,101.4,203,101.3,203.4l-0.6-0.1L101.3,203.4z M107.5,146.9c0,0.3-0.3,0.6-0.6,0.6
	s-0.6-0.3-0.6-0.6v-0.1c0-0.3,0.3-0.6,0.6-0.6C107.3,146.2,107.6,146.5,107.5,146.9l-0.6-0.1L107.5,146.9L107.5,146.9z M107.6,142.9
	c0,0.3-0.3,0.6-0.6,0.6s-0.6-0.3-0.6-0.6v-0.1c0-0.3,0.3-0.6,0.6-0.6S107.6,142.4,107.6,142.9l-0.6-0.1L107.6,142.9L107.6,142.9z
	 M106.8,138.2c0.3,0,0.6,0.2,0.7,0.5v0.1c0,0.3-0.2,0.6-0.6,0.7c-0.3,0-0.6-0.3-0.6-0.6C106.2,138.5,106.4,138.2,106.8,138.2z
	 M106.8,150.3c0.4,0,0.6,0.3,0.6,0.6v0.1c0,0.3-0.3,0.6-0.6,0.6s-0.6-0.3-0.6-0.7C106.2,150.6,106.5,150.3,106.8,150.3L106.8,150.3z
	 M106.6,154.4c0.3,0,0.6,0.3,0.6,0.6v0.1c0,0.3-0.3,0.6-0.6,0.6s-0.6-0.3-0.6-0.7C106,154.7,106.3,154.3,106.6,154.4L106.6,154.4z
	 M106.4,158.4c0.3,0,0.6,0.3,0.6,0.6v0.1c0,0.3-0.3,0.6-0.6,0.6h-0.1c-0.3,0-0.6-0.3-0.6-0.7C105.7,158.7,106.1,158.4,106.4,158.4
	L106.4,158.4z M105.4,163c0-0.3,0.3-0.6,0.7-0.6c0.3,0,0.6,0.3,0.6,0.7L106,163l0.6,0.1c0,0.3-0.3,0.6-0.6,0.6
	S105.4,163.4,105.4,163C105.4,163.1,105.4,163,105.4,163z M105.7,166.5c0.3,0,0.6,0.3,0.6,0.6v0.1c0,0.3-0.3,0.5-0.6,0.5h-0.1
	c-0.3,0-0.6-0.4-0.5-0.7C105.1,166.8,105.4,166.5,105.7,166.5L105.7,166.5z M104.6,171c0-0.3,0.3-0.6,0.7-0.5c0.3,0,0.6,0.4,0.5,0.7
	l-0.6-0.1l0.6,0.2c0,0.3-0.3,0.6-0.6,0.6h-0.1c-0.3,0-0.6-0.3-0.6-0.7C104.6,171.2,104.6,171.1,104.6,171z M104.9,174.6
	c0.3,0,0.6,0.3,0.6,0.6v0.1c0,0.3-0.3,0.5-0.6,0.5h-0.1c-0.3,0-0.6-0.4-0.5-0.7C104.2,174.8,104.5,174.5,104.9,174.6L104.9,174.6z
	 M104.4,178.6c0.3,0,0.6,0.3,0.5,0.6l-0.6-0.1l0.6,0.1v0.1c0,0.3-0.3,0.5-0.6,0.5h-0.1c-0.3-0.1-0.6-0.4-0.5-0.7
	C103.7,178.8,104.1,178.6,104.4,178.6L104.4,178.6z M103.2,183.1c0.1-0.3,0.4-0.6,0.7-0.5c0.3,0.1,0.6,0.4,0.5,0.7l-0.6-0.1l0.6,0.2
	c0,0.3-0.3,0.6-0.6,0.6h-0.1c-0.3,0-0.6-0.4-0.5-0.7V183.1z M102.6,187.1c0.1-0.3,0.4-0.6,0.7-0.5c0.3,0.1,0.6,0.4,0.5,0.7l-0.6-0.1
	l0.6,0.2c0,0.3-0.3,0.6-0.6,0.6h-0.1c-0.3,0-0.6-0.4-0.5-0.7V187.1z M102,191.1c0.1-0.3,0.4-0.6,0.7-0.5c0.3,0.1,0.6,0.4,0.5,0.7
	l-0.6-0.1l0.6,0.2c0,0.3-0.3,0.5-0.6,0.5h-0.1C102.2,191.9,101.9,191.5,102,191.1L102,191.1L102,191.1z M102.1,194.7
	c0.3,0.1,0.6,0.3,0.5,0.7v0.1c-0.1,0.3-0.3,0.5-0.6,0.5h-0.1c-0.3-0.1-0.6-0.4-0.5-0.7C101.5,194.9,101.8,194.6,102.1,194.7z
	 M100.8,199.1c0.1-0.3,0.4-0.6,0.7-0.5c0.3,0.1,0.6,0.4,0.5,0.7l-0.6-0.1l0.6,0.2v0.1c-0.1,0.2-0.3,0.4-0.6,0.4h-0.1
	c-0.2,0-0.4-0.2-0.5-0.4C100.8,199.4,100.7,199.3,100.8,199.1C100.7,199.3,100.8,199.2,100.8,199.1L100.8,199.1z"/>
<path fill="#707070" d="M96.8,137.7c-9.5,0-17.8-5.4-21.9-13.3C79,132.3,87.3,137.8,96.8,137.7c4.6,0,8.9-1.3,12.6-3.5
	C105.7,136.5,101.4,137.7,96.8,137.7z M73.8,121.9c0.2,0.6,0.5,1.2,0.8,1.8C74.3,123.1,74,122.5,73.8,121.9z M158.3,180.1
	c1.3-8.7,2.1-17.6,2.1-26.7c0-13.1-1.5-25.9-4.1-38.1C161.4,141.4,160.4,164.2,158.3,180.1z M143,199.5c5.2-15.9,7-31.7,7-46.5
	c-10.7,2.2-23.5,2.7-31.6,2.7c-2.9,0-5.2-0.1-6.6-0.1c-0.7,12.9-2.1,27.6-4.5,44c-0.3,2.1-0.6,4.2-1,6.3c12.3-0.2,24.2-0.7,34.9-1.5
	C141.9,202.7,142.5,201.1,143,199.5L143,199.5z"/>
<path fill="#707070" d="M95.2,80.7c-3.3,2-6.3,5.6-9.1,10.2c3.2-1.6,6.8-2.4,10.7-2.4c3.3,0,6.4,0.6,9.2,1.8c-0.8-4.5-1.5-7.6-2-9.3
	c-0.3-1.2-0.5-1.8-0.5-1.8l-0.1-0.4h0.1c0.3,0,1.6,0,3-0.1c0.1,0.4,0.3,1,0.5,1.9c0.6,2.2,1.5,6,2.4,11.4
	c7.2,4.3,12.1,12.2,12.1,21.2v1.1c0,7.7-3.5,14.5-9,19.1c0,5.8-0.1,12.3-0.4,19.2c5.3,0.2,23.9,0.4,38-2.6
	c-0.8-37.4-13.8-67.4-16.4-73.2c-0.3-0.7-0.5-1-0.5-1c-0.1,0-0.3,0-0.4,0.1l-2.1,0.3c-1.1,0.2-2.2,0.4-3.3,0.5
	c-0.8,0.1-1.5,0.2-2.3,0.3c-1.1,0.1-2.1,0.3-3.2,0.4l-2.4,0.3c-1.1,0.1-2.1,0.2-3.2,0.3c-0.8,0.1-1.6,0.1-2.5,0.2
	c-1.1,0.1-2.2,0.2-3.2,0.2c-0.8,0.1-1.7,0.1-2.5,0.1c-1.1,0.1-2.2,0.1-3.3,0.1c-0.8,0-1.7,0.1-2.5,0.1h-1.1
	C99.1,78.9,97.1,79.6,95.2,80.7z M109,83.5c0-0.3,0.3-0.6,0.6-0.6s0.6,0.3,0.6,0.6s-0.3,0.6-0.6,0.6S109,83.8,109,83.5z M109.6,86.8
	c0-0.3,0.3-0.6,0.6-0.6s0.6,0.3,0.6,0.6s-0.3,0.6-0.6,0.6S109.6,87.1,109.6,86.8z M110.8,91.2c-0.3,0-0.6-0.3-0.6-0.6
	s0.3-0.6,0.6-0.6s0.6,0.3,0.6,0.6S111.1,91.2,110.8,91.2z M108.8,79.5c0.3,0,0.6,0.3,0.6,0.6s-0.3,0.6-0.6,0.6s-0.5-0.2-0.6-0.4
	v-0.2C108.3,79.8,108.5,79.5,108.8,79.5z"/>
<path fill="#4D4D4D" d="M107,80.5c-0.2-0.9-0.4-1.5-0.5-1.9c-1.5,0.1-2.7,0.1-3,0.1h-0.1l0.1,0.4c0,0,0.2,0.6,0.5,1.8
	c0.5,1.8,1.2,4.9,2,9.3c1.2,0.5,2.3,1,3.3,1.7C108.4,86.5,107.6,82.7,107,80.5z M109.4,134.2C109.4,134.2,109.4,134.3,109.4,134.2
	c1.1-0.6,2-1.3,3-2.1C111.5,132.9,110.5,133.6,109.4,134.2z"/>
<path fill="#707070" d="M73.3,120.5l0.3,0.9L73.3,120.5z M72.7,118.4c0,0.2,0.1,0.4,0.2,0.7C72.8,118.8,72.8,118.6,72.7,118.4z
	 M73.2,121.4c-0.3-1-0.5-2-0.7-3.1c-12.8-0.7-21.5-1.8-26.9-2.8l-0.6,3C50.6,119.5,59.7,120.7,73.2,121.4z M41.7,114.7
	c-2-0.4-3.1-0.8-3.6-0.9c-0.2,0.7-0.3,1.2-0.5,2.4v0.1c0,0.1-0.1,0.3-0.1,0.4c0.6,0.2,1.8,0.5,3.6,0.9
	C41.2,116.7,41.4,115.7,41.7,114.7z"/>
<path fill="#666666" d="M62.8,123.9L62.8,123.9c0.4,0,0.6-0.3,0.7-0.6c0-0.3-0.3-0.6-0.6-0.7c-0.3,0-0.6,0.2-0.7,0.6
	C62.2,123.6,62.4,123.9,62.8,123.9z M71,124.3L71,124.3c0.4,0,0.7-0.3,0.7-0.6s-0.3-0.6-0.6-0.7c-0.4,0-0.6,0.2-0.7,0.6
	S70.6,124.3,71,124.3z M38.3,120.5h0.2c0.3,0,0.5-0.2,0.6-0.5s-0.1-0.7-0.5-0.8h-0.1c-0.3-0.1-0.7,0.1-0.7,0.5S38,120.4,38.3,120.5z
	 M66.9,124.1L66.9,124.1c0.4,0,0.7-0.3,0.7-0.6s-0.3-0.6-0.6-0.7c-0.3,0-0.6,0.2-0.7,0.6C66.3,123.8,66.5,124.1,66.9,124.1z
	 M54.6,123.1h0.2c0.3,0,0.6-0.2,0.6-0.6c0-0.3-0.2-0.7-0.5-0.7h-0.1c-0.3,0-0.6,0.2-0.7,0.6C54,122.8,54.3,123.1,54.6,123.1z
	 M50.5,122.6h0.2c0.3,0,0.5-0.2,0.6-0.5c0-0.3-0.2-0.7-0.6-0.7c-0.3-0.1-0.7,0.2-0.7,0.5S50.1,122.6,50.5,122.6z M58.7,123.6h0.2
	c0.3,0,0.5-0.2,0.6-0.6c0-0.3-0.3-0.7-0.6-0.7s-0.6,0.2-0.7,0.6C58.1,123.2,58.3,123.5,58.7,123.6z M46.6,120.8
	c-0.3-0.1-0.7,0.2-0.7,0.5c-0.1,0.3,0.2,0.7,0.5,0.7h0.2c0.3,0,0.5-0.2,0.6-0.5C47.2,121.2,47,120.9,46.6,120.8z M74.5,123.7
	c0.1,0.3,0.2,0.5,0.4,0.8C74.8,124.2,74.7,123.9,74.5,123.7z"/>
<path fill="#B2C4CD" d="M109.2,128.3l0.2-0.2c0.1-0.1,0.2-0.1,0.2-0.2c-0.1,0.1-0.2,0.1-0.2,0.2L109.2,128.3z"/>
<path fill="#FBB040" d="M72.3,115.3c0,0.2,0,0.4,0.1,0.6c0,0.2,0.1,0.4,0.1,0.7c0,0.2,0.1,0.4,0.1,0.5c0,0.2,0.1,0.5,0.1,0.7
	s0.1,0.3,0.1,0.5v0.1c0,0.2,0.1,0.4,0.2,0.7c0,0.1,0.1,0.2,0.1,0.4c0.1,0.3,0.2,0.6,0.2,0.9c0,0.1,0,0.2,0.1,0.2l0.3,0.9v0.2
	c0,0.1,0.1,0.2,0.1,0.3c0.2,0.6,0.5,1.2,0.8,1.8c0.1,0.3,0.3,0.5,0.4,0.8c4.1,7.9,12.4,13.3,21.9,13.3c4.6,0,8.9-1.3,12.6-3.5
	c1-0.6,2.1-1.3,3-2.1c3.4-2.8,6-6.4,7.5-10.5v-0.1c0.1-0.3,0.2-0.7,0.3-1c0-0.1,0-0.2,0.1-0.2c0.1-0.3,0.2-0.6,0.2-0.9
	c0-0.1,0.1-0.2,0.1-0.4c0.1-0.3,0.1-0.5,0.2-0.8c0-0.2,0.1-0.3,0.1-0.5s0.1-0.5,0.1-0.7s0.1-0.4,0.1-0.5c0-0.2,0.1-0.4,0.1-0.7
	c0-0.2,0-0.4,0.1-0.6c0-0.2,0-0.4,0.1-0.7v-0.6v-0.9c0-9-4.9-16.9-12.1-21.2c-1.1-0.6-2.2-1.2-3.3-1.7c-2.9-1.2-6-1.8-9.2-1.8
	c-3.8,0-7.4,0.9-10.7,2.4c-8.3,4-14,12.4-14,22.2v1.5C72.2,114.9,72.2,115.1,72.3,115.3L72.3,115.3z M77.6,109.2
	c0.4-1.9,1.1-3.7,2-5.4c0.1-0.2,0.2-0.4,0.4-0.6c0.2-0.3,0.4-0.7,0.6-1c0.3-0.5,0.7-1,1.1-1.5l0.1-0.1c0.4-0.4,0.7-0.9,1.2-1.3
	l0.1-0.1c0.4-0.4,0.9-0.8,1.3-1.2l1.2-0.9c0.1-0.1,0.2-0.1,0.3-0.2c0.1-0.1,0.2-0.1,0.3-0.2c0.1,0,0.2-0.1,0.2-0.1
	c0.2-0.1,0.5-0.3,0.7-0.4c0.4-0.2,0.7-0.4,1.1-0.6h0.1c0.3-0.1,0.5-0.3,0.8-0.4c0.6-0.2,1.2-0.4,1.7-0.6c0.3-0.1,0.6-0.2,1-0.3h0.1
	c0.2,0,0.3-0.1,0.5-0.1s0.4-0.1,0.6-0.1h0.2c0.3-0.1,0.6-0.1,0.9-0.1h0.3c0.3,0,0.6-0.1,0.9-0.1h2.9c0.8,0.1,1.7,0.2,2.5,0.3
	c0.2,0,0.3,0.1,0.5,0.1c0.8,0.2,1.6,0.4,2.3,0.7c0.4,0.2,0.8,0.3,1.2,0.5c0.8,0.4,1.6,0.8,2.3,1.2c0.3,0.2,0.5,0.3,0.8,0.5
	c0.1,0.1,0.2,0.2,0.3,0.2c0.3,0.2,0.7,0.5,1,0.7c0.1,0,0.1,0.1,0.2,0.1c0.4,0.3,0.7,0.6,1.1,1l0.3,0.3c0.4,0.4,0.8,0.8,1.1,1.3
	c0.1,0.1,0.2,0.3,0.3,0.4c0.3,0.3,0.5,0.7,0.8,1c0.1,0.1,0.1,0.2,0.2,0.3c0,0.1,0.1,0.1,0.1,0.2c0.1,0.2,0.3,0.4,0.4,0.6
	s0.2,0.4,0.4,0.6c0,0.1,0.1,0.1,0.1,0.2l0.3,0.6c0.1,0.1,0.1,0.3,0.2,0.4c0.2,0.4,0.4,0.8,0.5,1.2c0.2,0.4,0.3,0.8,0.4,1.3
	c0,0.1,0.1,0.3,0.1,0.4c0.1,0.3,0.2,0.6,0.2,0.9c0,0.2,0.1,0.3,0.1,0.5c0.1,0.3,0.1,0.6,0.2,0.9c0,0.2,0.1,0.3,0.1,0.5
	c0,0.3,0.1,0.6,0.1,0.9v0.4c0,0.5,0.1,0.9,0.1,1.4v0.4c0,1.4-0.2,2.8-0.5,4.2c-0.1,0.3-0.2,0.5-0.2,0.8c-0.1,0.2-0.1,0.4-0.2,0.6
	c-0.2,0.5-0.3,0.9-0.5,1.4c0,0.1-0.1,0.2-0.1,0.3c-0.2,0.5-0.5,1.1-0.8,1.6c-0.1,0.2-0.2,0.3-0.3,0.4c-0.2,0.4-0.4,0.7-0.7,1.1
	c-0.1,0.2-0.2,0.4-0.4,0.5c-0.2,0.2-0.3,0.5-0.5,0.7l-0.2,0.2c-0.1,0.2-0.3,0.4-0.4,0.5c-0.2,0.3-0.5,0.6-0.7,0.8l-0.5,0.5
	c-0.3,0.3-0.6,0.5-0.9,0.8l-0.2,0.2l-0.2,0.2c-0.4,0.3-0.8,0.7-1.3,1l-0.1,0.1l-1.5,0.9c-0.2,0.1-0.3,0.2-0.5,0.2
	c-0.4,0.2-0.7,0.4-1.1,0.5l-0.6,0.3c-0.4,0.1-0.7,0.3-1.1,0.4c-0.2,0.1-0.4,0.1-0.7,0.2c-0.4,0.1-0.7,0.2-1.1,0.3
	c-0.2,0.1-0.4,0.1-0.7,0.1c-0.4,0.1-0.8,0.1-1.2,0.2c-0.2,0-0.4,0.1-0.6,0.1c-0.6,0.1-1.2,0.1-1.9,0.1c-0.6,0-1.2,0-1.8-0.1
	c-0.2,0-0.4,0-0.6-0.1c-0.4-0.1-0.8-0.1-1.3-0.2c-0.2,0-0.4-0.1-0.6-0.1c-0.4-0.1-0.8-0.2-1.3-0.3c-0.2,0-0.3-0.1-0.5-0.1
	c-0.6-0.2-1.1-0.4-1.6-0.6c-0.1,0-0.2-0.1-0.3-0.1c-0.4-0.2-0.9-0.4-1.3-0.6c-0.2-0.1-0.3-0.2-0.5-0.3c-0.3-0.2-0.7-0.4-1-0.6
	c-0.2-0.1-0.3-0.2-0.5-0.3c-0.4-0.3-0.7-0.5-1.1-0.8c-0.1-0.1-0.2-0.1-0.3-0.2c-0.4-0.4-0.9-0.7-1.3-1.1l-0.3-0.3l-0.9-0.9
	c-0.1-0.1-0.2-0.3-0.4-0.4c-0.3-0.3-0.5-0.6-0.7-1c-0.1-0.1-0.2-0.3-0.3-0.4c-0.3-0.5-0.6-0.9-0.9-1.4c-0.1-0.3-0.3-0.5-0.4-0.8
	s-0.2-0.5-0.4-0.8c-0.1-0.2-0.1-0.3-0.2-0.5s-0.2-0.5-0.3-0.7v-0.1c-0.1-0.3-0.2-0.7-0.3-1c-0.5-1.6-0.7-3.3-0.8-5V114v-0.2
	c0-0.9,0.1-1.8,0.2-2.7C77.4,110,77.5,109.6,77.6,109.2L77.6,109.2z M81.8,129.6c-0.4,0.4-1,0.4-1.4,0s-0.4-1,0-1.4
	c0,0,0.1,0,0.1-0.1c0.4-0.3,0.9-0.3,1.3,0.1c0.3,0.3,0.4,0.9,0.1,1.2C81.9,129.5,81.9,129.5,81.8,129.6z M96.8,136.3
	c-0.5,0-1-0.4-1-1v-0.2c0.1-0.4,0.5-0.8,0.9-0.8c0.5,0,0.8,0.3,0.9,0.8v0.2C97.7,135.9,97.3,136.3,96.8,136.3z M113.1,129.6
	c-0.2,0.2-0.5,0.3-0.7,0.3s-0.5-0.1-0.6-0.3c0,0,0-0.1-0.1-0.1c-0.3-0.4-0.3-0.9,0.1-1.2c0.2-0.2,0.4-0.3,0.6-0.3s0.4,0.1,0.6,0.2
	c0,0,0.1,0,0.1,0.1C113.5,128.6,113.5,129.2,113.1,129.6z M119.8,113.3c0,0.5-0.4,1-1,1c-0.5,0-1-0.4-1-1c0-0.5,0.4-1,1-1
	S119.8,112.7,119.8,113.3z M113.1,97c0.3,0.3,0.4,0.9,0.1,1.3c0,0,0,0.1-0.1,0.1c-0.4,0.4-1,0.4-1.4,0s-0.4-1,0-1.4
	c0,0,0.1,0,0.1-0.1C112.2,96.6,112.7,96.6,113.1,97z M96.8,90.2c0.5,0,0.8,0.3,0.9,0.8v0.2c0,0.5-0.4,1-1,1c-0.5,0-1-0.4-1-1V91
	C95.9,90.6,96.3,90.2,96.8,90.2z M80.5,97c0.3-0.3,0.9-0.4,1.3-0.1c0,0,0.1,0,0.1,0.1c0.4,0.4,0.4,1,0,1.4s-1,0.4-1.4,0
	c0,0,0-0.1-0.1-0.1C80.1,97.9,80.1,97.3,80.5,97z M74.7,112.3c0.5,0,1,0.4,1,1c0,0.5-0.4,1-1,1c-0.5,0-1-0.4-1-1
	S74.2,112.3,74.7,112.3z"/>
<path fill="#B2C4CD" d="M85.5,97l-1.2,0.9c-0.5,0.4-0.9,0.8-1.3,1.2l0.1-0.1C83.8,98.4,84.6,97.7,85.5,97z M82.9,99.2
	c-0.4,0.4-0.8,0.8-1.2,1.3l-0.1,0.1C82,100.1,82.5,99.7,82.9,99.2z M87.1,96.1c-0.2,0.1-0.5,0.3-0.7,0.4c-0.1,0-0.2,0.1-0.2,0.1
	c-0.1,0.1-0.2,0.1-0.3,0.2C86.2,96.6,86.7,96.3,87.1,96.1z M89.1,95.1c-0.3,0.1-0.6,0.3-0.8,0.4h-0.1C88.5,95.3,88.8,95.2,89.1,95.1
	z M95.6,93.5h1.2H95.6z M93.1,93.8c0.3-0.1,0.6-0.1,0.9-0.1C93.7,93.7,93.4,93.8,93.1,93.8z M92.9,93.9c-0.2,0-0.4,0.1-0.6,0.1
	s-0.3,0.1-0.5,0.1C92.2,94,92.6,94,92.9,93.9z M94.4,93.6c0.3,0,0.6-0.1,0.9-0.1C94.9,93.6,94.7,93.6,94.4,93.6z M114.4,105.5
	c-0.2-0.4-0.4-0.7-0.5-1c-0.2-0.4-0.5-0.8-0.7-1.2c-0.8-1.2-1.7-2.3-2.7-3.2c-1-1-2.2-1.9-3.4-2.6c-1.1-0.7-2.3-1.3-3.6-1.8
	c-2.1-0.8-4.4-1.2-6.7-1.2c-2,0-3.9,0.3-5.8,0.9L89.2,96c-0.6,0.2-1.1,0.5-1.7,0.8c-1.1,0.6-2.1,1.3-3.1,2.1s-1.8,1.6-2.6,2.6
	c-1,1.2-1.9,2.5-2.6,4c-0.5,1.1-1,2.2-1.3,3.4c0,0.1-0.1,0.2-0.1,0.4c-0.4,1.4-0.6,2.9-0.6,4.4v-0.5v0.5c0,1.7,0.3,3.4,0.8,5
	c0.1,0.4,0.2,0.7,0.3,1c0-0.4,2.1,0.7,5.5,2.1c6.3,2.7,17,6.4,25.5,1.9c1-0.5,2-1.2,2.9-2c1.3-1.1,2.5-2.4,3.7-4
	c0.3-1.3,0.5-2.7,0.5-4.2C116.3,110.7,115.6,107.9,114.4,105.5L114.4,105.5z M79.1,104.6c0.1-0.3,0.3-0.6,0.4-0.8
	c-0.9,1.7-1.6,3.5-2,5.4c0-0.2,0.1-0.3,0.1-0.5C78,107.2,78.5,105.9,79.1,104.6z"/>
<path fill="none" d="M116.4,113.6"/>
<path fill="#B2C4CD" d="M90.8,94.4c0.3-0.1,0.6-0.2,1-0.3C91.5,94.2,91.1,94.3,90.8,94.4z"/>
<path fill="none" d="M77.2,113.1"/>
<path fill="none" d="M105.8,95.7c0.4,0.2,0.8,0.4,1.1,0.6"/>
<path fill="#5A656B" d="M77.2,113.1v0.5c0-1.5,0.3-3,0.6-4.4c0-0.1,0.1-0.2,0.1-0.4c0.3-1.2,0.8-2.3,1.3-3.4c0.7-1.4,1.6-2.8,2.6-4
	c0.8-0.9,1.7-1.8,2.6-2.6c1-0.8,2-1.5,3.1-2.1c0.6-0.3,1.1-0.6,1.7-0.8c0.6-0.2,1.2-0.5,1.8-0.6c1.8-0.6,3.8-0.9,5.8-0.9
	c2.4,0,4.6,0.4,6.7,1.2c1.3,0.5,2.5,1.1,3.6,1.8c1.2,0.8,2.4,1.6,3.4,2.6s1.9,2.1,2.7,3.2c0.3,0.4,0.5,0.8,0.7,1.2
	c0.2,0.3,0.4,0.7,0.5,1c1.2,2.5,1.9,5.2,2,8.1v-0.4c0-0.5,0-0.9-0.1-1.4v-0.4c0-0.3-0.1-0.6-0.1-0.9c0-0.2-0.1-0.3-0.1-0.5
	c0-0.3-0.1-0.6-0.2-0.9c0-0.2-0.1-0.3-0.1-0.5c-0.1-0.3-0.2-0.6-0.2-0.9c0-0.1-0.1-0.3-0.1-0.4c-0.1-0.4-0.3-0.8-0.4-1.3
	c-0.2-0.4-0.3-0.8-0.5-1.2c-0.1-0.1-0.1-0.3-0.2-0.4l-0.3-0.6c0-0.1-0.1-0.1-0.1-0.2c-0.1-0.2-0.2-0.4-0.4-0.6
	c-0.1-0.2-0.2-0.4-0.4-0.6c0-0.1-0.1-0.1-0.1-0.2c-0.1-0.1-0.1-0.2-0.2-0.3c-0.2-0.3-0.5-0.7-0.8-1c-0.1-0.1-0.2-0.3-0.3-0.4
	c-0.4-0.4-0.7-0.9-1.1-1.3l-0.3-0.3c-0.4-0.3-0.7-0.7-1.1-1c-0.1,0-0.1-0.1-0.2-0.1c-0.3-0.3-0.6-0.5-1-0.7
	c-0.1-0.1-0.2-0.2-0.3-0.2c-0.3-0.2-0.5-0.3-0.8-0.5c-0.4-0.2-0.8-0.4-1.1-0.6c0.4,0.2,0.8,0.4,1.1,0.6c-0.7-0.5-1.5-0.9-2.3-1.2
	c-0.4-0.2-0.8-0.3-1.2-0.5c-0.7-0.3-1.5-0.5-2.3-0.7c-0.2,0-0.3-0.1-0.5-0.1c-0.8-0.2-1.6-0.3-2.5-0.3h-2.9c-0.3,0-0.6,0.1-0.9,0.1
	h-0.3c-0.3,0-0.6,0.1-0.9,0.1H93c-0.4,0.1-0.7,0.2-1.1,0.2h-0.1c-0.3,0.1-0.6,0.2-1,0.3c-0.6,0.2-1.2,0.4-1.7,0.6
	c-0.3,0.1-0.6,0.3-0.9,0.4c-0.4,0.2-0.8,0.4-1.1,0.6c-0.4,0.2-0.9,0.5-1.3,0.8c-0.1,0.1-0.2,0.1-0.3,0.2c-0.9,0.6-1.7,1.3-2.5,2.1
	L82.9,99l-0.1,0.1c-0.4,0.4-0.9,0.9-1.3,1.4s-0.8,1-1.1,1.5c-0.2,0.3-0.4,0.7-0.6,1c-0.1,0.2-0.3,0.4-0.4,0.6
	c-0.1,0.3-0.3,0.6-0.4,0.8c-0.6,1.3-1.1,2.7-1.4,4.1c0,0.2-0.1,0.3-0.1,0.5c-0.1,0.4-0.1,0.8-0.2,1.2
	C77.2,111.3,77.2,112.2,77.2,113.1L77.2,113.1z"/>
<path fill="none" d="M83,99.2C82.9,99.2,82.9,99.2,83,99.2 M83,99.2C83,99.2,83,99.1,83,99.2 M90.8,94.4c0.3-0.1,0.6-0.2,1-0.3
	 M90.8,94.4c-0.6,0.2-1.2,0.4-1.7,0.6 M91.9,94.1C91.8,94.1,91.8,94.1,91.9,94.1 M107,96.4c0.3,0.2,0.5,0.3,0.8,0.5"/>
<path fill="#5A656B" d="M121.4,114.3v-0.6v1c0,0.2,0,0.4-0.1,0.7c0,0.2,0,0.4-0.1,0.6c0,0.2-0.1,0.4-0.1,0.7c0,0.2-0.1,0.4-0.1,0.5
	c0,0.2-0.1,0.5-0.1,0.7s-0.1,0.3-0.1,0.5c-0.1,0.3-0.1,0.5-0.2,0.8c0,0.1-0.1,0.2-0.1,0.4c-0.1,0.3-0.2,0.6-0.2,0.9
	c0,0.1,0,0.2-0.1,0.2c-0.1,0.3-0.2,0.7-0.3,1v0.1c-1.5,4.2-4.1,7.8-7.5,10.6c-0.9,0.8-1.9,1.5-3,2.1c-3.7,2.2-8,3.5-12.6,3.5
	c-9.5,0-17.8-5.4-21.9-13.3c-0.1-0.3-0.3-0.5-0.4-0.8c-0.3-0.6-0.5-1.2-0.8-1.8c0-0.1-0.1-0.2-0.1-0.3v-0.1v-0.1l-0.3-0.9
	c0-0.1,0-0.2-0.1-0.2c-0.1-0.3-0.2-0.6-0.2-0.9c0-0.1-0.1-0.2-0.1-0.4c-0.1-0.2-0.1-0.4-0.2-0.7v-0.1c0-0.2-0.1-0.3-0.1-0.5
	s-0.1-0.5-0.1-0.7s-0.1-0.4-0.1-0.5c0-0.2-0.1-0.4-0.1-0.7c0-0.2,0-0.4-0.1-0.6c0-0.2,0-0.4-0.1-0.7v-0.6v-0.4v0.6
	c0,1.4,0.1,2.8,0.3,4.1c0.2,1,0.4,2.1,0.7,3.1c0.1,0.4,0.2,0.8,0.4,1.2C76.9,132.2,86,139,96.7,139c4.6,0,8.9-1.3,12.6-3.5
	c1.1-0.6,2.1-1.3,3-2.1C117.9,128.8,121.4,121.9,121.4,114.3z"/>
<path fill="none" d="M73.6,121.5L73.6,121.5 M72.7,118.2c0-0.2-0.1-0.3-0.1-0.5 M72.4,116.5c0,0.2,0.1,0.4,0.1,0.5 M72.2,114.1v0.6
	 M72.3,115.9c0-0.2,0-0.4-0.1-0.6 M120.6,119.4c0-0.1,0.1-0.2,0.1-0.4 M120.9,118.2c0-0.2,0.1-0.3,0.1-0.5 M120.3,120.5
	c0-0.1,0-0.2,0.1-0.2 M119.9,121.6C119.9,121.6,119.9,121.5,119.9,121.6 M121.1,117.1c0-0.2,0.1-0.4,0.1-0.5 M121.3,115.9
	c0-0.2,0-0.4,0.1-0.6 M121.4,114.1v0.6 M73.3,120.5c0-0.1,0-0.2-0.1-0.2 M72.9,119c0,0.1,0.1,0.2,0.1,0.4"/>
<path fill="#FFFFFF" d="M43.9,203.5c0.6,0.1,1.4,0.1,2.2,0.2c-0.7-0.1-1.4-0.1-2-0.2H43.9z"/>
<path d="M58,75.1c0.5-1.3,1-2.5,1.5-3.8c-1-0.2-1.9-0.4-2.9-0.6c-0.6,1.2-1.1,2.5-1.7,3.7C56,74.7,57,74.9,58,75.1z M57.3,72.3
	c0.4,0.1,0.6,0.4,0.6,0.8c-0.1,0.3-0.3,0.5-0.6,0.5h-0.2c-0.3-0.1-0.6-0.4-0.5-0.7C56.7,72.5,57,72.3,57.3,72.3z"/>
<path opacity="0.6" fill="#FFFFFF" enable-background="new    " d="M58,75.1c0.5-1.3,1-2.5,1.5-3.8c-1-0.2-1.9-0.4-2.9-0.6
	c-0.6,1.2-1.1,2.5-1.7,3.7C56,74.7,57,74.9,58,75.1z M57.3,72.3c0.4,0.1,0.6,0.4,0.6,0.8c-0.1,0.3-0.3,0.5-0.6,0.5h-0.2
	c-0.3-0.1-0.6-0.4-0.5-0.7C56.7,72.5,57,72.3,57.3,72.3z"/>
<path fill="#F3AD60" d="M60.6,68.9c0.2-0.5,0.4-0.9,0.6-1.4c-1.1-0.3-2-0.6-2.6-0.8c-0.4,0.7-0.7,1.4-1,2.2l-0.9,1.8
	c1,0.2,1.9,0.4,2.9,0.6C59.9,70.6,60.2,69.7,60.6,68.9z"/>
<path d="M44.9,118.5c-1.5-0.3-2.8-0.6-3.9-0.8c-8.4,41-1.4,71.7,1.7,82.1c0.7,2.5,1.2,3.8,1.2,3.8H44c0.7,0.1,1.4,0.1,2,0.2
	c0.8,0.1,1.7,0.2,2.6,0.2c0.4,0,0.9,0.1,1.3,0.1H50c-0.5-1.4-1.1-2.9-1.5-4.4C39.2,172.2,39.9,144,44.9,118.5z M41.9,120.6
	c0.1-0.3,0.4-0.6,0.7-0.5s0.6,0.4,0.5,0.7c-0.1,0.3-0.3,0.5-0.6,0.5h-0.2C42,121.3,41.8,120.9,41.9,120.6z"/>
<path opacity="0.9" fill="#FFFFFF" enable-background="new    " d="M44.9,118.5c-1.5-0.3-2.8-0.6-3.9-0.8c-8.4,41-1.4,71.7,1.7,82.1
	c0.7,2.5,1.2,3.8,1.2,3.8H44c0.7,0.1,1.4,0.1,2,0.2c0.8,0.1,1.7,0.2,2.6,0.2c0.4,0,0.9,0.1,1.3,0.1H50c-0.5-1.4-1.1-2.9-1.5-4.4
	C39.2,172.2,39.9,144,44.9,118.5z M41.9,120.6c0.1-0.3,0.4-0.6,0.7-0.5s0.6,0.4,0.5,0.7c-0.1,0.3-0.3,0.5-0.6,0.5h-0.2
	C42,121.3,41.8,120.9,41.9,120.6z"/>
<path d="M54.1,76.4c-5.8,13.4-9.8,26.3-12.5,38.3c1.1,0.2,2.3,0.5,3.9,0.8c3-14,7.2-27.1,11.8-38.8c0.2-0.5,0.4-1.1,0.6-1.6l-3-0.6
	C54.7,75.1,54.4,75.8,54.1,76.4z"/>
<path opacity="0.9" fill="#FFFFFF" enable-background="new    " d="M54.1,76.4c-5.8,13.4-9.8,26.3-12.5,38.3
	c1.1,0.2,2.3,0.5,3.9,0.8c3-14,7.2-27.1,11.8-38.8c0.2-0.5,0.4-1.1,0.6-1.6l-3-0.6C54.7,75.1,54.4,75.8,54.1,76.4z"/>
<path fill="#F4D8BA" d="M83.3,26.5C73.1,40.2,64.9,53.8,58.6,66.8c0.6,0.2,1.5,0.5,2.6,0.8C72.1,42.6,83.3,26.5,83.3,26.5z"/>
<path d="M45.5,115.5c-1.6-0.3-2.8-0.5-3.9-0.8l-0.6,3c1.1,0.2,2.4,0.5,3.9,0.8L45.5,115.5z"/>
<path opacity="0.6" fill="#FFFFFF" enable-background="new    " d="M45.5,115.5c-1.6-0.3-2.8-0.5-3.9-0.8l-0.6,3
	c1.1,0.2,2.4,0.5,3.9,0.8L45.5,115.5z"/>
<path d="M42.3,121.3h0.2c0.3,0,0.5-0.2,0.6-0.5s-0.2-0.7-0.5-0.7c-0.3-0.1-0.7,0.1-0.7,0.5S42,121.3,42.3,121.3z"/>
<path opacity="0.7" fill="#FFFFFF" enable-background="new    " d="M42.3,121.3h0.2c0.3,0,0.5-0.2,0.6-0.5s-0.2-0.7-0.5-0.7
	c-0.3-0.1-0.7,0.1-0.7,0.5S42,121.3,42.3,121.3z"/>
<path fill="#DBD1CF" d="M112.2,121.8c-0.9,0.8-1.9,1.4-2.9,2c-8.5,4.5-19.2,0.8-25.5-1.9c-3.3-1.4-5.5-2.6-5.5-2.1v0.1
	c0.1,0.2,0.2,0.5,0.3,0.7c0.1,0.2,0.1,0.3,0.2,0.5c0.1,0.3,0.2,0.5,0.4,0.8c0.1,0.3,0.3,0.5,0.4,0.8c0.3,0.5,0.6,1,0.9,1.4
	c0.1,0.1,0.2,0.3,0.3,0.4c0.2,0.3,0.5,0.7,0.7,1c0.1,0.2,0.2,0.3,0.4,0.4l0.9,0.9l0.3,0.3c0.4,0.4,0.8,0.8,1.3,1.1
	c0.1,0.1,0.2,0.1,0.3,0.2c0.4,0.3,0.7,0.6,1.1,0.8c0.2,0.1,0.3,0.2,0.5,0.3c0.3,0.2,0.7,0.4,1,0.6c0.2,0.1,0.3,0.2,0.5,0.3
	c0.4,0.2,0.8,0.4,1.3,0.6c0.1,0,0.2,0.1,0.3,0.1c0.5,0.2,1.1,0.4,1.6,0.6c0.2,0,0.3,0.1,0.5,0.1c0.4,0.1,0.8,0.2,1.3,0.3
	c0.2,0,0.4,0.1,0.6,0.1c0.4,0.1,0.8,0.1,1.3,0.2c0.2,0,0.4,0,0.6,0.1c0.6,0.1,1.2,0.1,1.8,0.1c0.6,0,1.3,0,1.9-0.1
	c0.2,0,0.4-0.1,0.6-0.1c0.4-0.1,0.8-0.1,1.2-0.2c0.2,0,0.5-0.1,0.7-0.1c0.4-0.1,0.7-0.2,1.1-0.3c0.2-0.1,0.4-0.1,0.7-0.2
	c0.4-0.1,0.7-0.3,1.1-0.4l0.6-0.3c0.4-0.2,0.7-0.3,1.1-0.5c0.2-0.1,0.3-0.2,0.5-0.2l1.5-0.9l0.1-0.1c0.4-0.3,0.9-0.6,1.3-1l0.2-0.2
	c0.1-0.1,0.2-0.1,0.2-0.2c0.3-0.3,0.6-0.5,0.9-0.8l0.5-0.5c0.3-0.3,0.5-0.5,0.7-0.8c0.1-0.2,0.3-0.3,0.4-0.5l0.2-0.2
	c0.2-0.2,0.3-0.5,0.5-0.7c0.1-0.2,0.3-0.4,0.4-0.5c0.2-0.3,0.4-0.7,0.7-1.1c0.1-0.1,0.2-0.3,0.3-0.4c0.3-0.5,0.5-1.1,0.8-1.6
	c0-0.1,0.1-0.2,0.1-0.3c0.2-0.5,0.4-0.9,0.5-1.4c0.1-0.2,0.1-0.4,0.2-0.6c0.1-0.3,0.2-0.5,0.2-0.8
	C114.7,119.4,113.5,120.7,112.2,121.8L112.2,121.8z"/>
<path fill="none" d="M81.8,125.8l0.9,0.9 M80.7,124.4c0.2,0.3,0.5,0.7,0.7,1 M101.2,132.2c0.4-0.1,0.7-0.2,1.1-0.3 M107.9,129.3
	c0.4-0.3,0.9-0.6,1.3-1 M106.2,130.3l1.5-0.9 M115,120.5c0.2-0.5,0.4-0.9,0.5-1.4 M102.9,131.7c0.4-0.1,0.7-0.3,1.1-0.4
	 M104.6,131.1c0.4-0.2,0.7-0.3,1.1-0.5 M93.1,132.4c0.4,0.1,0.8,0.1,1.3,0.2 M91.3,131.9c0.4,0.1,0.8,0.2,1.3,0.3 M95,132.6
	c0.6,0.1,1.2,0.1,1.8,0.1 M99.3,132.6c0.4-0.1,0.8-0.1,1.2-0.2 M87.6,130.5c0.4,0.2,0.8,0.4,1.3,0.6 M89.2,131.2
	c0.5,0.2,1.1,0.4,1.6,0.6 M83,127.1c0.4,0.4,0.8,0.8,1.3,1.1 M113.2,123.9c0.2-0.3,0.4-0.7,0.7-1.1 M114.1,122.4
	c0.3-0.5,0.5-1.1,0.8-1.6 M86.1,129.6c0.3,0.2,0.7,0.4,1,0.6 M84.5,128.4c0.4,0.3,0.7,0.6,1.1,0.8 M96.8,132.7c0.6,0,1.3,0,1.9-0.1
	 M80.4,123.9c-0.3-0.5-0.6-0.9-0.9-1.4 M110.5,127.2c-0.3,0.3-0.6,0.5-0.9,0.8 M111.7,125.9c-0.2,0.3-0.5,0.6-0.7,0.8"/>
<path fill="#F37021" d="M96.8,92.1c0.5,0,1-0.4,1-1v-0.2c-0.1-0.4-0.5-0.8-0.9-0.8c-0.5,0-0.8,0.3-0.9,0.8v0.2
	C95.8,91.7,96.3,92.1,96.8,92.1z"/>
<path fill="#B3B3B3" d="M108.8,80.7c0.3,0,0.6-0.2,0.6-0.6c0-0.3-0.3-0.6-0.6-0.6s-0.6,0.3-0.6,0.6v0.2
	C108.4,80.5,108.6,80.7,108.8,80.7z"/>
<circle fill="#B3B3B3" cx="109.6" cy="83.5" r="0.6"/>
<circle fill="#B3B3B3" cx="110.2" cy="86.8" r="0.6"/>
<circle fill="#B3B3B3" cx="110.8" cy="90.6" r="0.6"/>
<path fill="#F37021" d="M96.8,134.4c-0.5,0-0.8,0.3-0.9,0.8v0.2c0,0.5,0.4,1,1,1c0.5,0,1-0.4,1-1v-0.2
	C97.6,134.8,97.3,134.4,96.8,134.4z M117.9,113.3c0,0.5,0.4,1,1,1c0.5,0,1-0.4,1-1c0-0.5-0.4-1-1-1
	C118.4,112.3,117.9,112.7,117.9,113.3z M74.7,114.2c0.5,0,1-0.4,1-1c0-0.5-0.4-1-1-1c-0.5,0-1,0.4-1,1S74.2,114.2,74.7,114.2z
	 M111.7,98.3c0.4,0.4,1,0.4,1.4,0c0,0,0-0.1,0.1-0.1c0.3-0.4,0.3-0.9-0.1-1.3c-0.3-0.3-0.9-0.4-1.3-0.1c0,0-0.1,0-0.1,0.1
	C111.4,97.3,111.4,97.9,111.7,98.3z M81.8,128.2c-0.3-0.3-0.9-0.4-1.3-0.1c0,0-0.1,0-0.1,0.1c-0.4,0.4-0.4,1,0,1.4s1,0.4,1.4,0
	c0,0,0-0.1,0.1-0.1C82.2,129.1,82.2,128.6,81.8,128.2L81.8,128.2z M113,128.2c-0.2-0.1-0.4-0.2-0.6-0.2s-0.4,0.1-0.6,0.3
	c-0.3,0.3-0.4,0.9-0.1,1.2c0,0,0,0.1,0.1,0.1c0.2,0.2,0.4,0.3,0.6,0.3c0.3,0,0.5-0.1,0.7-0.3C113.5,129.2,113.5,128.6,113,128.2
	L113,128.2L113,128.2z M80.5,98.3c0.4,0.4,1,0.4,1.4,0s0.4-1,0-1.4c0,0-0.1,0-0.1-0.1c-0.4-0.3-0.9-0.3-1.3,0.1S80.1,97.9,80.5,98.3
	C80.4,98.3,80.5,98.3,80.5,98.3z"/>
<path fill="#B3B3B3" d="M64.2,214.6c-0.1-0.7-0.1-1.2-0.1-1.7c0-3.2,1.5-3.7,1.5-3.7h-0.3c-2.3-0.1-9.5-0.7-15.3-1.1v0.1
	c-0.1,1.4-0.1,2.8,0,4.2c0.9,12.7,8,24.5,8,24.5c-3.7-5.8-6.5-11.7-8.6-16.6c-0.4-0.9-0.7-1.8-1.1-2.6c-0.8-2-1.4-3.9-1.9-5.4
	c-0.9-2.6-1.3-4.2-1.4-4.5v-0.1c-2-0.2-3.3-0.3-3.3-0.3s0,0.2,0.1,0.5c0.2,0.7,0.6,2.2,1.3,4.3c0.6,2,1.5,4.6,2.5,7.5
	c2.2,6.2,5.2,14.1,8.8,21.7c0.1,0,0.2,0.1,0.2,0.1c0.5,0.3,1,0.5,1.6,0.8c1.1,0.5,2.1,1,3.2,1.4h0.1c1.1,0.5,2.2,0.9,3.3,1.3
	c1.1,0.4,2.2,0.8,3.2,1.2c0.1,0,0.1,0,0.2,0.1c1.1,0.4,2.2,0.7,3.4,1.1C69.6,236.4,64.6,217.3,64.2,214.6L64.2,214.6z M106.8,139.5
	c0.4,0,0.6-0.3,0.6-0.7v-0.1c0-0.3-0.3-0.6-0.7-0.5c-0.3,0-0.6,0.3-0.6,0.7C106.2,139.2,106.5,139.5,106.8,139.5z M104.2,179.9
	C104.2,179.9,104.3,179.9,104.2,179.9c0.4,0,0.7-0.2,0.7-0.5v-0.1l-0.6-0.1l0.6,0.1c0-0.3-0.2-0.6-0.5-0.6s-0.7,0.2-0.7,0.6
	C103.6,179.5,103.9,179.8,104.2,179.9z M106.6,155.7c0.4,0,0.6-0.3,0.7-0.6V155c0-0.3-0.2-0.6-0.6-0.6c-0.3,0-0.6,0.3-0.7,0.6
	C106,155.4,106.2,155.6,106.6,155.7L106.6,155.7z M106.8,151.6c0.4,0,0.6-0.3,0.7-0.6v-0.1c0-0.3-0.3-0.6-0.6-0.6s-0.6,0.3-0.6,0.6
	C106.2,151.3,106.4,151.6,106.8,151.6L106.8,151.6z M106.9,146.2c-0.4,0-0.6,0.3-0.6,0.6v0.1c0,0.3,0.3,0.6,0.6,0.6s0.6-0.3,0.6-0.6
	l-0.6-0.1h0.6C107.6,146.5,107.3,146.2,106.9,146.2z M104.7,175.9C104.7,175.9,104.8,175.9,104.7,175.9c0.4,0,0.7-0.2,0.7-0.5v-0.1
	c0-0.3-0.2-0.6-0.6-0.6c-0.3,0-0.7,0.3-0.7,0.6C104.1,175.5,104.4,175.8,104.7,175.9z M106,163.8c0.4,0,0.6-0.3,0.7-0.6L106,163
	l0.6,0.1c0-0.3-0.2-0.6-0.6-0.7c-0.3,0-0.6,0.2-0.7,0.6v0.1C105.4,163.4,105.6,163.7,106,163.8L106,163.8z M105.6,167.8
	c0.4,0,0.7-0.2,0.7-0.5v-0.1c0-0.3-0.2-0.6-0.6-0.6s-0.7,0.3-0.7,0.6S105.2,167.8,105.6,167.8z M106.3,159.7c0.4,0,0.6-0.2,0.7-0.6
	V159c0-0.3-0.2-0.6-0.6-0.6c-0.3,0-0.6,0.3-0.7,0.6C105.7,159.4,105.9,159.7,106.3,159.7L106.3,159.7z M105.2,171.8
	c0.4,0,0.6-0.2,0.7-0.6l-0.6-0.2l0.6,0.1c0-0.3-0.2-0.7-0.5-0.7s-0.7,0.2-0.7,0.5v0.1C104.6,171.5,104.8,171.8,105.2,171.8
	L105.2,171.8z M103.1,187.9C103.2,187.9,103.2,187.9,103.1,187.9c0.4,0,0.7-0.2,0.7-0.5l-0.6-0.2l0.6,0.1c0.1-0.3-0.2-0.7-0.5-0.7
	c-0.3-0.1-0.7,0.2-0.7,0.5v0.1C102.6,187.6,102.8,187.9,103.1,187.9L103.1,187.9z M103.7,183.9C103.7,183.9,103.8,183.9,103.7,183.9
	c0.4,0,0.7-0.2,0.7-0.5l-0.6-0.2l0.6,0.1c0.1-0.3-0.2-0.7-0.5-0.7c-0.3-0.1-0.7,0.2-0.7,0.5v0.1
	C103.1,183.6,103.4,183.9,103.7,183.9L103.7,183.9z M101.9,196L101.9,196c0.4,0,0.7-0.2,0.7-0.5v-0.1c0.1-0.3-0.2-0.6-0.5-0.7
	c-0.3,0-0.7,0.2-0.7,0.6C101.3,195.6,101.6,195.9,101.9,196z M102.5,192C102.6,192,102.6,192,102.5,192c0.4,0,0.7-0.2,0.7-0.5
	l-0.6-0.2l0.6,0.1c0.1-0.3-0.2-0.7-0.5-0.7c-0.3-0.1-0.7,0.2-0.7,0.5v0.1C102,191.6,102.2,191.9,102.5,192L102.5,192z M106.9,142.2
	c-0.3,0-0.6,0.3-0.6,0.6v0.1c0,0.3,0.3,0.6,0.6,0.6s0.6-0.3,0.6-0.6l-0.6-0.1h0.6C107.6,142.4,107.3,142.2,106.9,142.2z M101.3,200
	c0.3,0,0.6-0.2,0.7-0.4v-0.1l-0.6-0.2l0.6,0.1c0.1-0.3-0.2-0.7-0.5-0.7c-0.3-0.1-0.7,0.2-0.7,0.5v0.4
	C100.9,199.8,101,199.9,101.3,200z M100.8,202.7c-0.3-0.1-0.7,0.2-0.7,0.5l1.2,0.2l-0.6-0.1l0.6,0.1
	C101.4,203,101.1,202.7,100.8,202.7z M118.5,154.7L118.5,154.7c0.4,0,0.7-0.3,0.7-0.6s-0.3-0.6-0.6-0.6h-0.1c-0.3,0-0.6,0.3-0.6,0.6
	C117.8,154.4,118.1,154.7,118.5,154.7z M139,153.8C139.1,153.8,139.1,153.8,139,153.8c0.4,0,0.7-0.3,0.6-0.7c0-0.3-0.3-0.6-0.7-0.6
	h-0.1c-0.3,0-0.5,0.3-0.5,0.7C138.4,153.6,138.7,153.8,139,153.8z M126.8,154.6c0.4,0,0.6-0.3,0.6-0.6s-0.3-0.6-0.6-0.6h-0.1
	c-0.3,0-0.6,0.3-0.6,0.6C126.1,154.4,126.4,154.6,126.8,154.6z M130.9,154.5c0.4,0,0.6-0.3,0.6-0.6s-0.3-0.6-0.6-0.6h-0.1
	c-0.3,0-0.6,0.3-0.5,0.6C130.2,154.2,130.6,154.5,130.9,154.5z M135,154.2c0.4,0,0.6-0.3,0.6-0.7c0-0.3-0.3-0.6-0.7-0.6h-0.1
	c-0.3,0-0.5,0.3-0.5,0.7S134.7,154.2,135,154.2z M122.7,154.7c0.3,0,0.6-0.3,0.6-0.6s-0.3-0.6-0.6-0.6h-0.1c-0.3,0-0.6,0.3-0.6,0.6
	S122.3,154.7,122.7,154.7z M147.1,152.7h0.2c0.3-0.1,0.6-0.4,0.5-0.7s-0.4-0.6-0.7-0.5H147c-0.3,0.1-0.6,0.4-0.5,0.7
	C146.5,152.5,146.8,152.7,147.1,152.7z M114.4,154.5C114.5,154.5,114.5,154.5,114.4,154.5c0.4,0,0.6-0.3,0.7-0.6
	c0-0.3-0.2-0.6-0.6-0.7h-0.1c-0.4,0-0.6,0.2-0.6,0.6C113.8,154.2,114.1,154.5,114.4,154.5z M143.1,153.3
	C143.2,153.3,143.2,153.3,143.1,153.3c0.4,0,0.7-0.4,0.6-0.7c0-0.3-0.4-0.6-0.7-0.5h-0.1c-0.3,0-0.5,0.4-0.5,0.7
	C142.5,153.1,142.8,153.3,143.1,153.3z M155.2,150.8h0.2c0.3-0.1,0.5-0.4,0.4-0.8c-0.1-0.3-0.4-0.5-0.8-0.4h-0.1
	c-0.3,0.1-0.5,0.4-0.4,0.8C154.6,150.6,154.9,150.8,155.2,150.8L155.2,150.8z M151.2,151.9h0.2c0.3-0.1,0.6-0.4,0.5-0.7
	s-0.4-0.6-0.7-0.5h-0.1c-0.3,0.1-0.5,0.4-0.4,0.7C150.6,151.7,150.9,151.9,151.2,151.9z M69.5,74.4L69.3,75L69.5,74.4
	c-0.4-0.1-0.7,0.2-0.8,0.5s0.2,0.7,0.5,0.7h0.2c0.3,0,0.6-0.2,0.6-0.5C70.1,74.8,69.8,74.5,69.5,74.4z M61.4,73.1L61.4,73.1
	l-0.2,0.6L61.4,73.1c-0.4-0.1-0.7,0.2-0.8,0.5s0.2,0.7,0.5,0.7h0.1c0.3,0,0.5-0.2,0.6-0.5C62,73.6,61.8,73.2,61.4,73.1z M65.5,73.8
	L65.5,73.8c-0.4-0.1-0.7,0.2-0.8,0.5s0.2,0.7,0.6,0.7h0.1c0.3,0,0.6-0.2,0.6-0.5S65.8,73.9,65.5,73.8z M106.2,76L106.2,76
	c-0.4,0-0.7,0.3-0.6,0.6c0,0.3,0.3,0.6,0.7,0.6c0.3,0,0.6-0.3,0.6-0.6C106.9,76.2,106.6,76,106.2,76z M114.4,75.4
	c-0.4,0-0.6,0.3-0.6,0.7c0,0.3,0.3,0.6,0.7,0.6h0.1c0.3,0,0.6-0.3,0.6-0.7S114.7,75.4,114.4,75.4z M118.4,75L118.4,75
	c-0.4,0-0.6,0.3-0.6,0.7c0,0.3,0.3,0.5,0.7,0.5h0.1c0.3,0,0.6-0.3,0.6-0.7C119.1,75.3,118.8,75,118.4,75z M98,76.2l-0.1,0.6L98,76.2
	c-0.4,0-0.7,0.3-0.7,0.6s0.3,0.6,0.6,0.6H98c0.3,0,0.6-0.3,0.6-0.6C98.7,76.5,98.4,76.2,98,76.2z M110.3,75.8v0.6V75.8
	c-0.4,0-0.7,0.3-0.7,0.7c0,0.3,0.3,0.6,0.6,0.6h0.1c0.3,0,0.6-0.3,0.6-0.7C110.9,76,110.6,75.7,110.3,75.8z M73.6,74.9
	c-0.4-0.1-0.8,0.2-0.8,0.5s0.2,0.7,0.5,0.7h0.2c0.3,0,0.6-0.2,0.6-0.6C74.1,75.3,73.9,75,73.6,74.9z M102.1,76.1L102.1,76.1
	c-0.4,0-0.7,0.3-0.7,0.6s0.3,0.6,0.7,0.6c0.3,0,0.6-0.3,0.6-0.6C102.8,76.4,102.5,76.1,102.1,76.1z M138.7,73.1h0.1
	c0.3-0.1,0.6-0.4,0.5-0.7c-0.1-0.3-0.4-0.6-0.7-0.5h-0.1c-0.3,0.1-0.5,0.4-0.4,0.7C138.1,72.9,138.4,73.1,138.7,73.1L138.7,73.1z
	 M53.1,72.6h0.2c0.3,0,0.5-0.2,0.6-0.5s-0.1-0.7-0.4-0.8h-0.1c-0.3-0.1-0.6,0.1-0.7,0.5C52.6,72.2,52.8,72.5,53.1,72.6z M126.5,74
	v0.6V74c-0.4,0.1-0.7,0.4-0.6,0.7c0,0.3,0.3,0.5,0.6,0.5h0.2c0.3-0.1,0.6-0.4,0.5-0.7S126.9,74,126.5,74z M134.6,73.9h0.2
	c0.3-0.1,0.6-0.4,0.5-0.7s-0.4-0.6-0.7-0.5h-0.1c-0.3,0.1-0.6,0.4-0.5,0.7C134.1,73.7,134.3,73.9,134.6,73.9z M130.6,73.4h-0.1
	c-0.3,0.1-0.5,0.4-0.5,0.7c0.1,0.3,0.3,0.5,0.7,0.5h0.1c0.3-0.1,0.6-0.4,0.5-0.7S130.9,73.3,130.6,73.4z M122.5,74.6
	c-0.4,0.1-0.7,0.4-0.6,0.7c0,0.3,0.3,0.6,0.6,0.6h0.2c0.3,0,0.6-0.4,0.5-0.7S122.8,74.5,122.5,74.6z M77.6,75.3
	c-0.5,0-0.7,0.2-0.7,0.6s0.3,0.7,0.6,0.7h0.1c0.3,0,0.6-0.2,0.6-0.6C78.2,75.7,78,75.4,77.6,75.3z M94,76.2L94,76.2
	c-0.4,0-0.7,0.3-0.7,0.6s0.3,0.6,0.7,0.6c0.3,0,0.6-0.3,0.6-0.6S94.3,76.2,94,76.2z M81.7,75.7L81.7,75.7c-0.4,0-0.7,0.2-0.7,0.6
	c0,0.3,0.3,0.6,0.6,0.7h0.1c0.3,0,0.6-0.2,0.6-0.6S82.1,75.7,81.7,75.7z M85.8,75.9l-0.1,0.6L85.8,75.9c-0.4,0-0.7,0.2-0.7,0.6
	s0.2,0.6,0.6,0.7h0.1c0.3,0,0.6-0.3,0.6-0.6C86.4,76.2,86.1,75.9,85.8,75.9z M89.9,76.1L89.9,76.1c-0.4,0-0.7,0.3-0.7,0.6
	s0.3,0.6,0.7,0.6c0.3,0,0.6-0.3,0.6-0.6S90.2,76.1,89.9,76.1z"/>
<path d="M57.1,73.5h0.2c0.3,0,0.6-0.2,0.6-0.5c0.1-0.3-0.2-0.7-0.5-0.7h-0.1c-0.3-0.1-0.7,0.1-0.7,0.5
	C56.5,73.1,56.7,73.5,57.1,73.5z"/>
<path opacity="0.9" fill="#FFFFFF" enable-background="new    " d="M57.1,73.5h0.2c0.3,0,0.6-0.2,0.6-0.5c0.1-0.3-0.2-0.7-0.5-0.7
	h-0.1c-0.3-0.1-0.7,0.1-0.7,0.5C56.5,73.1,56.7,73.5,57.1,73.5z"/>
<path fill="#FFFFFF" d="M45.3,207.6C45.2,207.6,45.2,207.6,45.3,207.6C45.2,207.6,45.2,207.6,45.3,207.6c1.5,0.2,3.2,0.4,4.8,0.5
	V208H50L45.3,207.6z"/>
<path d="M46.6,212.2c0.5,1.5,1.2,3.3,1.9,5.4c0.3,0.8,0.7,1.7,1.1,2.6c2.1,5,4.9,10.8,8.6,16.6c0,0-7.2-11.8-8-24.5
	c-0.1-1.4-0.1-2.8,0-4.2c-1.7-0.1-3.3-0.3-4.9-0.4C45.3,208,45.7,209.7,46.6,212.2L46.6,212.2z"/>
<path opacity="0.9" fill="#FFFFFF" enable-background="new    " d="M46.6,212.2c0.5,1.5,1.2,3.3,1.9,5.4c0.3,0.8,0.7,1.7,1.1,2.6
	c2.1,5,4.9,10.8,8.6,16.6c0,0-7.2-11.8-8-24.5c-0.1-1.4-0.1-2.8,0-4.2c-1.7-0.1-3.3-0.3-4.9-0.4C45.3,208,45.7,209.7,46.6,212.2
	L46.6,212.2z"/>
<path fill="#B3B3B3" d="M141.3,206.2c0-0.3-0.3-0.6-0.7-0.6h-0.1c-0.3,0-0.5,0.3-0.5,0.7c0,0.3,0.3,0.6,0.7,0.6h0.1
	C141.1,206.9,141.3,206.6,141.3,206.2z M50.5,206.8C50.5,206.8,50.6,206.8,50.5,206.8c0.4,0,0.6-0.2,0.7-0.6c0-0.3-0.2-0.6-0.6-0.7
	h-0.1c-0.2,0-0.4,0.1-0.5,0.3v0.7C50.2,206.6,50.3,206.7,50.5,206.8z M136.6,206h-0.1c-0.3,0-0.5,0.3-0.5,0.7c0,0.3,0.3,0.6,0.7,0.6
	c0.3,0,0.6-0.3,0.6-0.7S136.9,206,136.6,206z M148.7,204.8c-0.3,0-0.6,0.4-0.5,0.7c0,0.3,0.3,0.6,0.6,0.6h0.2c0.3,0,0.6-0.4,0.5-0.7
	C149.4,205,149.1,204.8,148.7,204.8z M42.5,204.7L42.5,204.7c-0.4,0-0.7,0.2-0.7,0.6c0,0.3,0.3,0.7,0.6,0.7h0.1
	c0.3,0,0.6-0.2,0.6-0.5C43.1,205,42.8,204.7,42.5,204.7z M144,206c0,0.3,0.3,0.6,0.6,0.6h0.2l-0.1-0.6l-0.1-0.6v0.6l-0.1-0.6
	C144.3,205.3,144,205.6,144,206L144,206z M132.5,206.3v0.6V206.3c-0.4,0-0.7,0.3-0.7,0.7c0,0.3,0.3,0.6,0.6,0.6h0.1
	c0.3,0,0.6-0.3,0.6-0.7S132.8,206.3,132.5,206.3L132.5,206.3z M128.4,206.6c-0.4,0-0.7,0.3-0.6,0.7c0,0.3,0.3,0.6,0.7,0.6
	c0.3,0,0.6-0.3,0.6-0.7S128.7,206.6,128.4,206.6L128.4,206.6z M67,206.7c-0.5,0-0.7,0.2-0.7,0.6c0,0.3,0.3,0.6,0.6,0.7
	c0.3,0,0.6-0.3,0.6-0.6C67.6,207,67.3,206.7,67,206.7z M120.2,207.1L120.2,207.1c-0.4,0-0.7,0.3-0.6,0.6c0,0.3,0.3,0.6,0.7,0.6
	c0.3,0,0.6-0.3,0.6-0.6S120.6,207,120.2,207.1z M91.6,207.5L91.6,207.5c-0.4,0-0.7,0.3-0.7,0.6s0.3,0.6,0.7,0.6
	c0.3,0,0.6-0.3,0.6-0.6S91.9,207.5,91.6,207.5z M71.1,206.9l-0.1,0.6L71.1,206.9c-0.4,0-0.7,0.2-0.7,0.6s0.2,0.6,0.6,0.7h0.1
	c0.3,0,0.6-0.3,0.6-0.6C71.7,207.2,71.4,206.9,71.1,206.9z M116.1,207.2l-0.1,0.6L116.1,207.2c-0.4,0-0.7,0.3-0.7,0.6
	s0.3,0.6,0.6,0.6h0.1c0.3,0,0.6-0.3,0.6-0.7S116.5,207.2,116.1,207.2L116.1,207.2z M99.7,207.6c-0.4,0-0.7,0.3-0.7,0.6
	s0.3,0.6,0.7,0.6s0.6-0.3,0.6-0.6S100.1,207.6,99.7,207.6z M107.9,207.5L107.9,207.5c-0.4,0-0.7,0.3-0.7,0.6s0.3,0.6,0.7,0.6
	c0.3,0,0.6-0.3,0.6-0.6S108.3,207.5,107.9,207.5z M95.6,207.6c-0.4,0-0.7,0.3-0.7,0.6s0.3,0.6,0.7,0.6s0.6-0.3,0.6-0.6
	S96,207.6,95.6,207.6z M103.8,207.5l-0.1,0.6L103.8,207.5c-0.4,0-0.7,0.3-0.7,0.6s0.3,0.6,0.6,0.6h0.1c0.3,0,0.6-0.3,0.6-0.6
	C104.5,207.8,104.2,207.5,103.8,207.5z M112,207.4L112,207.4c-0.4,0-0.7,0.3-0.7,0.6s0.3,0.6,0.7,0.6c0.3,0,0.6-0.3,0.6-0.6
	C112.7,207.6,112.4,207.4,112,207.4z M83.4,207.4L83.4,207.4c-0.4,0-0.7,0.3-0.7,0.6s0.3,0.6,0.7,0.6c0.3,0,0.6-0.3,0.6-0.6
	S83.7,207.4,83.4,207.4z M75.2,207.1L75.2,207.1c-0.5,0-0.7,0.3-0.7,0.6s0.3,0.6,0.6,0.7c0.3,0,0.6-0.3,0.6-0.6
	C75.8,207.4,75.5,207.1,75.2,207.1z M54.7,205.9l-0.1,0.6L54.7,205.9c-0.4,0-0.7,0.2-0.8,0.6s0.2,0.6,0.6,0.7h0.1
	c0.3,0,0.6-0.3,0.6-0.6C55.3,206.2,55.1,205.9,54.7,205.9z M79.3,207.2L79.3,207.2c-0.4,0-0.7,0.3-0.7,0.6s0.3,0.6,0.7,0.6
	c0.3,0,0.6-0.3,0.6-0.6S79.6,207.2,79.3,207.2z M124.3,206.9L124.3,206.9c-0.4,0-0.7,0.3-0.6,0.6c0,0.3,0.3,0.6,0.7,0.6
	c0.3,0,0.6-0.3,0.6-0.6C124.9,207.1,124.7,206.9,124.3,206.9z M58.8,206.2L58.8,206.2c-0.4,0-0.7,0.2-0.7,0.6c0,0.3,0.3,0.6,0.6,0.7
	h0.1c0.3,0,0.6-0.2,0.6-0.6C59.4,206.5,59.2,206.2,58.8,206.2z M87.4,207.5l-0.1,0.6L87.4,207.5C87.4,207.5,87.3,207.5,87.4,207.5
	c-0.4,0-0.7,0.3-0.7,0.6s0.3,0.6,0.6,0.6h0.1c0.3,0,0.6-0.3,0.6-0.6S87.8,207.5,87.4,207.5z M62.9,206.4L62.9,206.4
	c-0.5,0-0.7,0.2-0.7,0.6c0,0.3,0.3,0.6,0.6,0.7h0.1c0.3,0,0.6-0.2,0.6-0.6C63.5,206.8,63.3,206.5,62.9,206.4z"/>
<path fill="#2B2B2B" d="M101.6,221c-0.1,9.1-0.3,20.4-0.5,30.6c1.3,0,2.6-0.1,4-0.2h0.5c1.3-0.1,2.6-0.2,3.8-0.3h0.4
	c2.7-0.3,5.4-0.7,8.1-1.3C112.3,244.1,106,235.2,101.6,221z"/>
<path fill="#4D4D4D" d="M101.4,221.1c0-2-1.5-3.7-3.4-3.7s-3.4,1.6-3.4,3.7l0.7,30.5c1.1,0,2.2,0.1,3.3,0.1h2.2
	C100.8,251.7,101.4,221.1,101.4,221.1z"/>
<path fill="#2B2B2B" d="M138.4,243.2c2.2-1,4.3-2,6.4-3.1c3.6-10.3,3.6-19.8,3.6-20.9v-0.1c-0.8,2.4-1.9,5.1-2.9,7.7
	c-0.3,0.6-0.5,1.2-0.8,1.9c-1.6,3.8-3.2,7.5-4.5,10.5C139.4,240.8,138.8,242.2,138.4,243.2C138.3,243.2,138.3,243.2,138.4,243.2
	C138.3,243.2,138.4,243.2,138.4,243.2L138.4,243.2z"/>
<path d="M49.9,206.1c0-0.1,0.1-0.2,0.1-0.3v-1.7c0,0-0.6,0-1.4-0.1c-0.7-0.1-1.7-0.1-2.6-0.2c-0.8-0.1-1.6-0.1-2.2-0.2l1.2,4.1h0.1
	L50,208h0.1v-1.5C50,206.3,49.9,206.2,49.9,206.1L49.9,206.1z M46.5,206.4C46.5,206.4,46.4,206.4,46.5,206.4c-0.4,0-0.7-0.3-0.7-0.7
	c0-0.3,0.3-0.6,0.6-0.6h0.1c0.3,0,0.6,0.4,0.5,0.7C47.1,206.1,46.8,206.4,46.5,206.4z"/>
<path opacity="0.6" fill="#FFFFFF" enable-background="new    " d="M49.9,206.1c0-0.1,0.1-0.2,0.1-0.3v-1.7c0,0-0.6,0-1.4-0.1
	c-0.7-0.1-1.7-0.1-2.6-0.2c-0.8-0.1-1.6-0.1-2.2-0.2l1.2,4.1h0.1L50,208h0.1v-1.5C50,206.3,49.9,206.2,49.9,206.1L49.9,206.1z
	 M46.5,206.4C46.5,206.4,46.4,206.4,46.5,206.4c-0.4,0-0.7-0.3-0.7-0.7c0-0.3,0.3-0.6,0.6-0.6h0.1c0.3,0,0.6,0.4,0.5,0.7
	C47.1,206.1,46.8,206.4,46.5,206.4z"/>
<path fill="#FFFFFF" d="M48.6,204c0.8,0.1,1.4,0.1,1.4,0.1h-0.1C49.5,204.1,49.1,204,48.6,204z M48.6,204c-0.9-0.1-1.7-0.2-2.6-0.2
	C47,203.8,47.9,203.9,48.6,204z"/>
<path opacity="0.9" fill="#FFFFFF" enable-background="new    " d="M48.6,204c-0.9-0.1-1.7-0.2-2.6-0.2
	C47,203.8,47.9,203.9,48.6,204z"/>
<path fill="none" d="M50,208L50,208"/>
<path fill="#FFFFFF" d="M50,206.5v-0.7c-0.1,0.1-0.1,0.2-0.1,0.3S50,206.3,50,206.5z M46.6,205.1L46.6,205.1c-0.4,0-0.7,0.2-0.7,0.6
	c0,0.3,0.3,0.7,0.6,0.7h0.1c0.3,0,0.6-0.2,0.6-0.6C47.2,205.5,46.9,205.2,46.6,205.1z"/>
<g>
	<path fill="#4D4D4D" d="M134,180.4c-0.1,0-0.2,0-0.3,0c-1.2-2.4-3.7-3.9-6.4-3.9c-3.9,0-7.1,3.1-7.2,7c-1.8,0.2-3.2,1.8-3.2,3.6
		c0,2,1.6,3.7,3.7,3.7h1.8l-0.2-0.3l0.2-0.5c0-0.1,0.1-0.4,0.4-0.8h-1.5l-0.6,0c-1.1,0-2.1-0.9-2.1-2c0-1.1,0.9-2,2-2l0.1,0l0.7,0
		l0.5,0l0-0.5l0-0.7c0-0.1,0-0.2,0-0.3c0-3.1,2.5-5.6,5.6-5.6c1.1,0,2.1,0.3,3,0.9c0.9,0.6,1.6,1.4,2,2.3l0.2,0.4l0.2,0.3l0.4,0
		l0.4-0.1c0.2,0,0.3,0,0.4,0c2,0,3.6,1.6,3.6,3.6c0,2-1.6,3.6-3.6,3.6h-1.1c-0.1,0.3-0.3,0.6-0.6,0.7l0,0l0,0l0,0.1l0,0.1
		c0.1,0.2,0.3,0.4,0.4,0.7h1.3c2.9,0,5.2-2.4,5.2-5.2C139.3,182.8,136.9,180.4,134,180.4z"/>
	<path fill="#4D4D4D" d="M131.4,190.5C131.4,190.5,131.4,190.5,131.4,190.5c0,0,0-0.1,0-0.1c0-0.1,0-0.1,0-0.2l0,0l0,0l0,0
		c0,0,0,0,0,0l0,0l0-0.1c0,0,0,0,0-0.1c0,0,0,0,0,0l0,0l0,0c0-0.1,0-0.1,0-0.2c-0.1-0.3-0.2-0.5-0.3-0.7c-0.1-0.2-0.3-0.4-0.5-0.6
		c-0.2-0.2-0.4-0.3-0.6-0.4c-0.2-0.1-0.4-0.2-0.7-0.2c-0.1,0-0.2,0-0.3,0c0,0,0,0,0,0l0,0l0,0c0,0,0,0,0,0l0,0l0,0c0,0,0,0,0,0
		c-0.1,0-0.1,0-0.2,0c-0.2,0-0.4,0.1-0.6,0.2c-0.2,0.1-0.3,0.2-0.5,0.4c-0.1,0.2-0.2,0.3-0.3,0.5c-0.1,0.2-0.1,0.4-0.1,0.5
		c0,0,0,0.1,0,0.1c0,0,0,0,0,0l0,0c0,0,0,0,0,0.1c0,0.1,0,0.2,0,0.3c0,0.2,0.1,0.3,0.2,0.5c0.1,0.1,0.2,0.2,0.3,0.3
		c0.1,0.1,0.3,0.1,0.4,0.2c0.1,0,0.3,0.1,0.4,0.1c0,0,0,0,0,0c0,0,0,0,0,0c0,0,0,0,0,0c0,0,0,0,0,0c0,0,0,0,0,0c0,0,0,0,0,0
		c0,0,0,0,0,0l0,0c0,0,0,0,0,0c0,0,0,0,0,0c0,0,0,0,0,0c0,0,0.1,0,0.1,0c0.1,0,0.1,0,0.1-0.1c0,0,0.1-0.1,0.1-0.1c0,0,0,0,0,0
		c0,0,0-0.1,0-0.1c0,0,0,0-0.1,0c0,0,0,0,0,0c0,0,0,0,0,0c0,0-0.1,0-0.1,0c0,0-0.1,0-0.1,0c0,0,0,0-0.1,0c0,0,0,0,0,0c0,0,0,0,0,0
		c0,0,0,0,0,0c0,0,0,0,0,0c0,0,0,0,0,0c0,0,0,0,0,0l0,0l0,0c0,0,0,0,0,0c0,0,0,0,0,0c-0.1,0-0.2,0-0.3-0.1c-0.1,0-0.2-0.1-0.3-0.2
		c-0.1-0.1-0.2-0.2-0.2-0.3c-0.1-0.1-0.1-0.2-0.1-0.3c0-0.1,0-0.1,0-0.2c0,0,0,0,0,0c0,0,0,0,0,0c0,0,0,0,0,0l0,0l0,0c0,0,0,0,0,0
		c0,0,0-0.1,0-0.1c0-0.2,0.2-0.5,0.4-0.7c0,0,0.1-0.1,0.2-0.1c0.1,0,0.1-0.1,0.2-0.1c0.1,0,0.1-0.1,0.2-0.1c0.1,0,0.1,0,0.2,0
		c0,0,0.1,0,0.1,0c0,0,0,0,0,0c0,0,0,0,0,0c0,0,0,0,0,0l0,0l0,0c0,0,0,0,0,0l0,0l0,0c0.1,0,0.1,0,0.2,0c0.1,0,0.3,0.1,0.4,0.2
		c0.3,0.1,0.5,0.4,0.6,0.7c0.1,0.1,0.1,0.3,0.1,0.4c0,0,0,0.1,0,0.1l0,0l0,0c0,0,0,0,0,0c0,0,0,0,0,0l0,0l0,0c0,0,0,0,0,0.1
		c0,0,0,0.1,0,0.1c0,0,0,0.1,0,0.1c0,0,0,0.1,0,0.1c0,0.1,0,0.2-0.1,0.2c-0.1,0.2-0.1,0.3-0.2,0.4c-0.2,0.3-0.5,0.5-0.8,0.6
		c-0.2,0.1-0.3,0.1-0.5,0.1c-0.1,0-0.2,0-0.3,0l0,0l0,0l0,0l0,0h0c0,0,0,0,0,0l0,0c0,0-0.1,0-0.1,0c-0.2,0-0.4,0-0.5-0.1
		c-0.2-0.1-0.3-0.1-0.5-0.2c-0.3-0.2-0.6-0.4-0.8-0.7c-0.1-0.1-0.2-0.3-0.3-0.5c-0.1-0.2-0.1-0.3-0.2-0.5c0-0.2-0.1-0.3-0.1-0.5l0,0
		l0,0l0,0l0,0l0,0l0,0l0,0l0,0l0,0l0,0v0c0,0,0,0,0,0v0c0,0,0,0,0,0l0,0c0,0,0,0,0-0.1c0-0.1,0-0.2,0-0.3c0-0.1,0-0.2,0-0.3
		c0-0.1,0-0.2,0.1-0.3c0-0.2,0.1-0.3,0.2-0.5c0.1-0.3,0.3-0.6,0.6-0.8c0.1-0.1,0.1-0.1,0.2-0.2c0.1-0.1,0.1-0.1,0.2-0.1
		c0.1,0,0.1-0.1,0.2-0.1c0,0,0.1,0,0.1-0.1c0,0,0,0,0.1,0c0,0,0,0,0.1,0c0.1,0,0.1-0.1,0.2-0.1c0,0,0,0,0.1,0c0,0,0,0,0.1,0
		c0,0,0.1,0,0.1,0c0,0,0,0,0.1,0c0,0,0,0,0.1,0c0,0,0,0,0.1,0l0,0l0,0c0,0,0,0,0.1,0c0,0,0,0,0.1,0c0,0,0,0,0.1,0c0,0,0,0,0,0l0,0
		l0,0l0,0c0,0,0,0,0.1,0l0,0c0,0,0,0,0,0l0,0l0,0c0,0,0,0,0.1,0c0,0,0.1,0,0.1,0c0,0,0.1,0,0.1,0c0.2,0,0.3,0,0.4,0
		c0.3,0.1,0.6,0.1,0.8,0.3c0.2,0.1,0.5,0.3,0.7,0.4c0,0,0,0,0,0c0,0,0,0,0,0c0,0,0,0,0.1,0.1c0,0,0,0,0.1,0.1c0,0,0,0,0.1,0.1
		c0.1,0.1,0.2,0.2,0.2,0.3c0.1,0.2,0.2,0.4,0.3,0.5c0,0,0,0,0,0c0,0,0,0,0,0c0,0,0,0,0,0.1c0,0,0,0,0,0.1c0,0,0,0,0,0.1
		c0,0.1,0.1,0.2,0.1,0.2c0,0.1,0.1,0.2,0.1,0.3c0,0,0,0.1,0.1,0.1c0,0,0,0,0,0c0,0,0.1,0,0.1-0.1c0-0.1,0-0.2,0-0.3
		c0-0.2,0-0.3-0.1-0.5c-0.1-0.2-0.1-0.4-0.2-0.6c-0.1-0.2-0.3-0.5-0.5-0.7c-0.1-0.1-0.2-0.2-0.2-0.3c0.1-0.5-0.2-1-0.2-1
		c0,0-0.1,0-0.1,0c-0.4,0-0.7,0.2-0.8,0.2c0,0,0,0-0.1,0c-0.1,0-0.2-0.1-0.3-0.1c-0.1,0-0.2-0.1-0.3-0.1c-0.1,0-0.2,0-0.3-0.1
		c0,0,0,0-0.1,0c-0.2-0.7-0.9-1-0.9-1c-0.7,0.4-0.8,1.1-0.8,1.1c0,0,0,0,0,0c0,0-0.1,0-0.1,0c-0.1,0-0.1,0-0.2,0.1
		c-0.1,0-0.1,0-0.2,0.1c-0.1,0-0.2,0.1-0.3,0.2c-0.1,0.1-0.2,0.1-0.3,0.2c0,0,0,0,0,0c0,0,0,0,0,0c-0.3-0.1-0.6-0.1-0.8-0.1
		c-0.6,0-1,0.2-1,0.2c-0.1,1,0.4,1.7,0.5,1.8c0,0.1,0,0.1-0.1,0.2c-0.1,0.2-0.1,0.5-0.2,0.7c0,0,0,0.1,0,0.1
		c-0.9,0.4-1.2,1.4-1.2,1.4c0.8,0.9,1.6,0.9,1.6,0.9c0,0,0,0,0,0c0.1,0.2,0.2,0.4,0.4,0.6c0.1,0.1,0.1,0.1,0.2,0.2
		c-0.3,0.8,0,1.4,0,1.4c0,0,0.1,0,0.1,0c0.8,0,1.3-0.4,1.4-0.5c0.1,0,0.2,0.1,0.3,0.1c0.3,0.1,0.5,0.1,0.8,0.1c0.1,0,0.1,0,0.2,0
		c0,0,0,0,0,0l0,0l0,0l0,0l0,0c0,0,0,0,0,0c0.4,0.6,1.1,0.6,1.1,0.6c0.6-0.6,0.5-1.2,0.5-1.2c0,0,0,0,0,0c0.1-0.1,0.2-0.2,0.3-0.2
		c0.2-0.2,0.4-0.4,0.5-0.6c0,0,0,0,0-0.1c0,0,0,0,0.1,0c0.5,0,0.9-0.3,0.9-0.3C131.8,190.8,131.4,190.5,131.4,190.5z"/>
	<polygon fill="#FFFFFF" points="125.7,189.4 125.7,189.4 125.7,189.4 	"/>
</g>
</svg>
