<?xml version="1.0" encoding="utf-8"?>
<!-- Generator: Adobe Illustrator 19.0.1, SVG Export Plug-In . SVG Version: 6.00 Build 0)  -->
<!DOCTYPE svg PUBLIC "-//W3C//DTD SVG 1.1//EN" "http://www.w3.org/Graphics/SVG/1.1/DTD/svg11.dtd">
<svg version="1.1" id="Layer_1" xmlns="http://www.w3.org/2000/svg" xmlns:xlink="http://www.w3.org/1999/xlink" x="0px" y="0px"
	 width="200px" height="200px" viewBox="0 0 200 200" style="enable-background:new 0 0 200 200;" xml:space="preserve">
<style type="text/css">
	.st0{fill:#009348;}
	.st1{fill:#39B44A;}
	.st2{fill:#006937;}
	.st3{fill:#89C540;}
</style>
<g>
	<polygon class="st0" points="50,186.6 50,186.6 50,186.6 	"/>
	<polygon class="st0" points="150,186.6 150,186.6 150,186.6 	"/>
	<polygon class="st0" points="50,186.6 150,186.6 100,100.1 	"/>
	<polygon class="st1" points="150,13.4 150,13.4 150,13.4 	"/>
	<polygon class="st2" points="0,100 0,100 0,100 	"/>
	<polygon class="st2" points="100,100 100,100 0,100 50,186.6 50,186.6 50,186.6 50,186.6 100,100.1 	"/>
	<polygon class="st3" points="200,100 200,100 200,100 200,100 150,13.4 150,13.4 150,13.4 150,13.4 100,99.9 100,100 100,100 
		100,100 100,100.1 150,186.6 150,186.6 150,186.6 150,186.6 200,100 	"/>
	<polygon class="st1" points="100,100 100,100 100,100 100,99.9 150,13.4 50,13.4 50,13.4 50,13.4 50,13.4 50,13.4 0,100 0,100 
		0,100 0,100 100,100 	"/>
</g>
</svg>
