<svg width="987" height="452" viewBox="0 0 987 452" fill="none" xmlns="http://www.w3.org/2000/svg">
<g clip-path="url(#clip0)">
<path d="M987 0H0V452H987V0Z" fill="url(#paint0_linear)"/>
<path d="M990.807 -11.1387H-0.806396V460.975H990.807V-11.1387Z" fill="url(#paint1_radial)"/>
<path d="M190.326 414.549C189.154 413.316 189.154 411.344 190.326 410.234C191.499 409.002 193.374 409.002 194.43 410.234C195.602 411.467 195.602 413.439 194.43 414.549C193.843 415.165 193.14 415.412 192.319 415.412C191.733 415.535 190.912 415.165 190.326 414.549ZM205.332 398.894C204.16 397.661 204.16 395.689 205.332 394.579C206.505 393.347 208.263 393.347 209.436 394.579C210.608 395.812 210.608 397.784 209.436 398.894C208.849 399.51 208.146 399.757 207.325 399.757C206.622 399.757 205.801 399.51 205.332 398.894ZM220.221 383.239C219.049 382.006 219.049 380.034 220.221 378.925C221.394 377.692 223.269 377.692 224.324 378.925C225.497 380.157 225.497 382.129 224.324 383.239C223.738 383.855 223.035 384.102 222.331 384.102C221.511 384.102 220.807 383.855 220.221 383.239Z" fill="#FFA801"/>
<path d="M166.879 414.549C165.707 413.316 165.707 411.344 166.879 410.234C168.052 409.002 169.927 409.002 170.982 410.234C172.155 411.467 172.155 413.439 170.982 414.549C170.396 415.165 169.693 415.412 168.872 415.412C168.286 415.535 167.465 415.165 166.879 414.549ZM181.885 398.894C180.713 397.661 180.713 395.689 181.885 394.579C183.058 393.347 184.816 393.347 185.989 394.579C187.161 395.812 187.161 397.784 185.989 398.894C185.402 399.51 184.699 399.757 183.878 399.757C183.175 399.757 182.354 399.51 181.885 398.894ZM196.774 383.239C195.602 382.006 195.602 380.034 196.774 378.925C197.946 377.692 199.822 377.692 200.877 378.925C202.05 380.157 202.05 382.129 200.877 383.239C200.291 383.855 199.588 384.102 198.884 384.102C198.064 384.102 197.36 383.855 196.774 383.239Z" fill="#FFA801"/>
<path d="M213.773 414.549C212.601 413.316 212.601 411.344 213.773 410.234C214.945 409.002 216.821 409.002 217.876 410.234C219.049 411.467 219.049 413.439 217.876 414.549C217.29 415.165 216.587 415.412 215.766 415.412C215.18 415.535 214.359 415.165 213.773 414.549ZM228.779 398.894C227.607 397.661 227.607 395.689 228.779 394.579C229.951 393.347 231.71 393.347 232.882 394.579C234.055 395.812 234.055 397.784 232.882 398.894C232.296 399.51 231.593 399.757 230.772 399.757C230.069 399.757 229.248 399.51 228.779 398.894ZM243.668 383.239C242.496 382.006 242.496 380.034 243.668 378.925C244.84 377.692 246.716 377.692 247.771 378.925C248.943 380.157 248.943 382.129 247.771 383.239C247.185 383.855 246.482 384.102 245.778 384.102C244.958 384.102 244.254 383.855 243.668 383.239Z" fill="#FFA801"/>
<path d="M829.437 407.112C829.567 407.24 829.827 407.368 829.957 407.624C830.087 407.752 830.217 407.88 830.346 408.136C830.346 408.136 830.346 408.136 830.346 408.264C830.476 408.392 830.606 408.52 830.736 408.776C830.736 408.776 830.736 408.904 830.866 408.904C830.996 409.032 830.996 409.16 831.126 409.416C831.126 409.544 831.126 409.544 831.256 409.672C831.386 409.8 831.386 409.928 831.516 410.056C831.516 410.184 831.646 410.184 831.646 410.312C831.646 410.44 831.776 410.568 831.776 410.696C831.776 410.824 831.776 410.952 831.905 411.08C831.905 411.208 832.035 411.336 832.035 411.464C832.035 411.592 832.035 411.72 832.165 411.848C832.165 411.976 832.165 411.976 832.165 412.104C832.165 412.36 832.165 412.616 832.165 412.872H841C841 412.36 841 411.72 840.87 411.208C840.87 410.952 840.87 410.824 840.74 410.568C840.74 410.184 840.61 409.928 840.61 409.544C840.61 409.288 840.48 409.032 840.35 408.776C840.22 408.52 840.22 408.264 840.091 408.008C839.961 407.752 839.831 407.368 839.701 407.112C839.571 406.984 839.571 406.728 839.441 406.6C839.311 406.216 839.181 405.96 838.921 405.576C838.791 405.448 838.791 405.32 838.661 405.192C838.402 404.808 838.272 404.552 838.012 404.168C838.012 404.04 837.882 404.04 837.882 403.912C837.622 403.528 837.362 403.144 837.102 402.888L836.972 402.76C836.713 402.376 836.323 401.992 835.933 401.736C833.075 398.792 829.047 397 824.5 397H824.37C823.85 397 823.331 397 822.941 397.128C822.811 397.128 822.681 397.128 822.421 397.128C822.031 397.128 821.772 397.256 821.382 397.256C821.252 397.256 821.122 397.256 820.862 397.384C820.472 397.512 820.083 397.512 819.693 397.64C819.433 397.768 819.173 397.768 818.913 397.896C818.783 397.896 818.654 398.024 818.524 398.024C815.665 399.048 813.197 400.968 811.378 403.272L811.248 403.4C810.858 403.912 810.598 404.424 810.209 404.936C810.209 404.936 810.209 405.064 810.079 405.064C809.819 405.576 809.429 406.216 809.169 406.856V406.984C808.909 407.496 808.78 408.008 808.65 408.648C808.65 408.776 808.52 409.032 808.52 409.16C808.39 409.672 808.26 410.056 808.26 410.568C808.26 410.696 808.26 410.952 808.13 411.08C808 411.72 808 412.36 808 413H816.835C816.835 412.744 816.835 412.488 816.835 412.104C816.835 411.976 816.835 411.976 816.835 411.848C816.835 411.592 816.835 411.464 816.965 411.336C816.965 411.208 816.965 411.208 817.095 411.08C817.095 410.952 817.224 410.696 817.224 410.568C817.224 410.44 817.224 410.44 817.354 410.312C817.484 410.056 817.614 409.8 817.614 409.672C817.874 409.16 818.264 408.776 818.524 408.264C818.524 408.264 818.524 408.264 818.653 408.136C818.783 408.008 819.043 407.752 819.173 407.624C819.173 407.624 819.173 407.624 819.303 407.496C819.563 407.368 819.693 407.112 819.953 406.984C820.213 406.728 820.602 406.6 820.862 406.472C820.862 406.472 820.862 406.472 820.992 406.472C821.252 406.344 821.642 406.216 821.902 406.088C822.161 405.96 822.551 405.96 822.941 405.832C823.071 405.832 823.071 405.832 823.201 405.832C823.591 405.832 823.85 405.704 824.24 405.704H824.37C826.579 405.448 828.138 405.96 829.437 407.112Z" fill="#FFA801"/>
<g opacity="0.5">
<path opacity="0.5" d="M-74.0749 357.354C-2.59346 357.354 55.3537 299.407 55.3537 227.925C55.3537 156.444 -2.59346 98.4966 -74.0749 98.4966C-145.556 98.4966 -203.503 156.444 -203.503 227.925C-203.503 299.407 -145.556 357.354 -74.0749 357.354Z" stroke="white" stroke-opacity="0.4" stroke-width="2" stroke-miterlimit="10"/>
<path opacity="0.5" d="M-74.0748 552.85C105.376 552.85 250.85 407.376 250.85 227.925C250.85 48.474 105.376 -97 -74.0748 -97C-253.526 -97 -399 48.474 -399 227.925C-399 407.376 -253.526 552.85 -74.0748 552.85Z" stroke="white" stroke-opacity="0.4" stroke-width="2" stroke-miterlimit="10"/>
<path opacity="0.5" d="M-74.0749 488.204C69.673 488.204 186.204 371.673 186.204 227.925C186.204 84.1772 69.673 -32.3535 -74.0749 -32.3535C-217.823 -32.3535 -334.354 84.1772 -334.354 227.925C-334.354 371.673 -217.823 488.204 -74.0749 488.204Z" stroke="white" stroke-opacity="0.4" stroke-width="2" stroke-miterlimit="10"/>
<path opacity="0.5" d="M-74.0748 424.234C34.3436 424.234 122.234 336.344 122.234 227.925C122.234 119.507 34.3436 31.6162 -74.0748 31.6162C-182.493 31.6162 -270.384 119.507 -270.384 227.925C-270.384 336.344 -182.493 424.234 -74.0748 424.234Z" stroke="white" stroke-opacity="0.4" stroke-width="2" stroke-miterlimit="10"/>
</g>
<g opacity="0.5">
<path opacity="0.5" d="M1060.07 355.504C1131.56 355.504 1189.5 297.557 1189.5 226.076C1189.5 154.594 1131.56 96.647 1060.07 96.647C988.593 96.647 930.646 154.594 930.646 226.076C930.646 297.557 988.593 355.504 1060.07 355.504Z" stroke="white" stroke-opacity="0.4" stroke-width="2" stroke-miterlimit="10"/>
<path opacity="0.5" d="M1060.07 551.001C1239.53 551.001 1385 405.527 1385 226.076C1385 46.6243 1239.53 -98.8496 1060.07 -98.8496C880.624 -98.8496 735.15 46.6243 735.15 226.076C735.15 405.527 880.624 551.001 1060.07 551.001Z" stroke="white" stroke-opacity="0.4" stroke-width="2" stroke-miterlimit="10"/>
<path opacity="0.5" d="M1060.07 486.354C1203.82 486.354 1320.35 369.823 1320.35 226.075C1320.35 82.3276 1203.82 -34.2031 1060.07 -34.2031C916.327 -34.2031 799.796 82.3276 799.796 226.075C799.796 369.823 916.327 486.354 1060.07 486.354Z" stroke="white" stroke-opacity="0.4" stroke-width="2" stroke-miterlimit="10"/>
<path opacity="0.5" d="M1060.08 422.385C1168.49 422.385 1256.38 334.494 1256.38 226.076C1256.38 117.657 1168.49 29.7666 1060.08 29.7666C951.657 29.7666 863.766 117.657 863.766 226.076C863.766 334.494 951.657 422.385 1060.08 422.385Z" stroke="white" stroke-opacity="0.4" stroke-width="2" stroke-miterlimit="10"/>
</g>
<g clip-path="url(#clip1)">
<path opacity="0.5" d="M493.306 500.613C645.354 500.613 768.613 377.354 768.613 225.306C768.613 73.2589 645.354 -50 493.306 -50C341.259 -50 218 73.2589 218 225.306C218 377.354 341.259 500.613 493.306 500.613Z" fill="url(#paint2_linear)"/>
<path opacity="0.5" d="M493.306 363.317C569.527 363.317 631.317 301.527 631.317 225.306C631.317 149.086 569.527 87.2964 493.306 87.2964C417.086 87.2964 355.296 149.086 355.296 225.306C355.296 301.527 417.086 363.317 493.306 363.317Z" fill="url(#paint3_linear)"/>
</g>
<path d="M931.524 320C930.893 320 930.262 319.748 929.757 319.245C928.748 318.239 928.748 316.73 929.757 315.723L942 303.522C943.01 302.516 944.65 302.516 945.534 303.522L953.233 311.195L963.709 300.755C964.718 299.748 966.233 299.748 967.243 300.755C968.252 301.761 968.252 303.27 967.243 304.277L955 316.478C953.99 317.484 952.35 317.484 951.466 316.478L943.767 308.805L933.291 319.245C932.786 319.748 932.155 320 931.524 320Z" fill="#FF7C02"/>
<circle cx="176" cy="156" r="6" fill="#FFB227"/>
</g>
<defs>
<linearGradient id="paint0_linear" x1="493.497" y1="19.1473" x2="493.497" y2="452.082" gradientUnits="userSpaceOnUse">
<stop stop-color="#161619"/>
<stop offset="1"/>
</linearGradient>
<radialGradient id="paint1_radial" cx="0" cy="0" r="1" gradientUnits="userSpaceOnUse" gradientTransform="translate(496.747 227.412) rotate(-156.793) scale(568.224 541.789)">
<stop offset="0.546875" stop-color="#FF8500"/>
<stop offset="1" stop-color="#FFB800"/>
</radialGradient>
<linearGradient id="paint2_linear" x1="576.489" y1="375.189" x2="412.044" y2="78.8843" gradientUnits="userSpaceOnUse">
<stop stop-color="#F26522"/>
<stop offset="1" stop-color="#D93C1C"/>
</linearGradient>
<linearGradient id="paint3_linear" x1="535.007" y1="300.444" x2="452.569" y2="151.904" gradientUnits="userSpaceOnUse">
<stop stop-color="#F26522"/>
<stop offset="1" stop-color="#D93C1C"/>
</linearGradient>
<clipPath id="clip0">
<rect width="987" height="452" fill="white"/>
</clipPath>
<clipPath id="clip1">
<rect width="550.613" height="550.613" fill="white" transform="translate(218 -50)"/>
</clipPath>
</defs>
</svg>
