<svg width="311" height="305" viewBox="0 0 311 305" fill="none" xmlns="http://www.w3.org/2000/svg">
<path d="M155.5 305C241.38 305 311 294.703 311 282C311 269.297 241.38 259 155.5 259C69.6197 259 0 269.297 0 282C0 294.703 69.6197 305 155.5 305Z" fill="url(#paint0_radial_31468_10994)"/>
<path opacity="0.5" d="M277.963 246.676C277.963 246.423 277.894 246.183 277.779 245.958C277.56 245.549 277.238 245.183 276.835 245.07C276.697 245.042 276.559 245.028 276.409 245C276.122 245 275.857 245.085 275.604 245.268C275.005 245.634 274.395 246.014 273.797 246.38C273.612 246.507 273.463 246.676 273.348 246.887C273.21 247.07 273.117 247.296 273.06 247.549C272.991 247.803 272.979 248.07 273.037 248.324C273.037 248.577 273.106 248.817 273.221 249.042C273.44 249.451 273.762 249.817 274.165 249.93C274.303 249.958 274.441 249.972 274.591 250C274.878 250 275.143 249.915 275.396 249.732C275.995 249.366 276.605 248.986 277.203 248.62C277.388 248.493 277.537 248.324 277.652 248.113C277.79 247.93 277.883 247.704 277.94 247.451C278.009 247.197 278.021 246.93 277.963 246.676Z" fill="white"/>
<path d="M268.61 193.626C261.893 199.027 253.331 202.506 244.415 204.894C239.383 206.242 234.254 207.258 229.271 208.054C228.733 208.14 228.208 208.226 227.671 208.299C184.423 215.207 140.381 217.094 96.693 213.897C91.7221 213.529 86.6535 213.064 81.6703 212.292C76.9559 211.557 72.3148 210.553 67.8691 209.096C61.2371 206.94 55.0449 203.792 49.7442 199.076C48.5962 198.048 47.6191 196.823 47.0206 195.402C45.1886 191.005 47.4847 187.269 51.0266 184.513C53.1029 182.884 55.6189 181.598 57.9883 180.68C62.2264 179.05 66.489 177.764 70.7759 176.736C73.9636 175.964 77.1513 175.327 80.3513 174.8C101.725 178.597 123.954 177.544 145.779 176.442C173.015 175.058 200.251 173.674 227.475 172.289C232.226 172.057 237.099 171.763 241.728 170.722C243.438 171.003 245.124 171.297 246.821 171.616C253.136 172.816 259.365 174.359 265.459 176.331C267.352 176.944 268.879 178.022 270.015 179.369C273.422 183.411 273.264 189.878 268.61 193.626Z" fill="#625950"/>
<g style="mix-blend-mode:multiply" opacity="0.3" clip-path="url(#clip0_31468_10994)">
<path d="M144.769 207.537L144.344 204.708L141.445 205.094L141.91 208L144.769 207.537Z" fill="#625950"/>
<path d="M167.305 199.476L166.84 196.607L154.24 198.544L154.665 201.413L167.305 199.476Z" fill="#625950"/>
<path d="M150.181 202.11L153.041 201.684L152.616 198.817L149.717 199.281L150.181 202.11Z" fill="#625950"/>
<path d="M149.292 206.837L148.828 203.971L145.969 204.434L146.394 207.303L149.292 206.837Z" fill="#625950"/>
<path d="M140.789 200.639L141.214 203.505L144.075 203.079L143.65 200.173L140.789 200.639Z" fill="#625950"/>
<path d="M154.898 203.042L155.361 205.948L168.001 203.971L167.538 201.143L154.898 203.042Z" fill="#625950"/>
<path d="M150.876 206.607L153.737 206.181L153.273 203.272L150.451 203.738L150.876 206.607Z" fill="#625950"/>
<path d="M145.271 199.94L145.736 202.846L148.558 202.382L148.133 199.514L145.271 199.94Z" fill="#625950"/>
<path d="M141.755 198.855L138.237 175.836L137 176.069L140.556 199.011L141.755 198.855Z" fill="#625950"/>
<path d="M143.418 198.545L139.63 173.899L138.393 174.132L142.219 198.778L143.418 198.545Z" fill="#625950"/>
<path d="M146.277 198.159L142.258 172L141.021 172.193L145.002 198.314L146.277 198.159Z" fill="#625950"/>
<path d="M147.9 197.886L144.229 174.055L143.029 174.248L146.703 198.081L147.9 197.886Z" fill="#625950"/>
<path d="M150.721 197.459L147.475 176.264L146.275 176.457L149.484 197.655L150.721 197.459Z" fill="#625950"/>
<path d="M152.383 197.189L148.982 175.217L147.785 175.41L151.186 197.344L152.383 197.189Z" fill="#625950"/>
</g>
<path d="M260.183 153.733C260.109 154.235 260.024 154.737 259.902 155.227C258.754 160.028 255.309 164.536 251.01 167.145C248.14 168.884 245.001 169.986 241.728 170.721C238.394 171.468 234.913 171.836 231.456 172.056C230.98 172.093 230.504 172.117 230.015 172.142C229.221 172.191 228.44 172.228 227.658 172.264C227.597 172.264 227.536 172.264 227.475 172.264C226.999 172.289 226.522 172.313 226.034 172.338C199.286 173.698 172.526 175.057 145.767 176.417C123.953 177.531 101.725 178.585 80.3387 174.775C75.3556 173.893 70.4336 172.742 65.5604 171.272C62.7635 170.427 59.4781 168.786 59.4903 165.859C59.4903 163.801 61.2124 162.209 62.8246 160.935C63.8383 160.126 64.8642 159.343 65.8901 158.571C77.7861 149.715 90.7446 143.359 104.363 138.925C107.917 137.773 111.52 136.744 115.159 135.838C118.188 136.659 121.303 137.161 124.417 137.467C131.88 138.19 139.379 137.822 146.866 137.553C158.713 137.136 170.56 137.002 182.407 137.136C186.572 137.185 190.785 137.259 194.975 137.185C195.72 137.173 196.465 137.149 197.21 137.136C199.201 137.075 201.191 136.977 203.17 136.83C203.768 136.781 204.367 136.732 204.965 136.671C209.924 136.193 214.809 135.311 219.499 133.756C219.658 133.707 219.817 133.658 219.976 133.597C221.014 133.719 222.052 133.854 223.078 133.976C224.605 134.16 226.107 134.356 227.634 134.564C229.368 134.785 231.102 135.017 232.837 135.25C233.838 135.385 234.84 135.52 235.841 135.667C236.94 135.814 238.027 135.973 239.127 136.132C246.027 137.112 253.819 138.937 257.825 144.338C258.314 144.988 258.741 145.686 259.096 146.445C259.377 147.033 259.621 147.633 259.792 148.246C260.012 148.968 260.158 149.715 260.232 150.463C260.341 151.553 260.317 152.643 260.17 153.733H260.183Z" fill="#67677E"/>
<path d="M290.242 250.898C279.848 260.255 266.902 266.318 253.76 271.058C225.021 281.42 194.878 285.952 164.357 286.76C161.817 286.834 159.276 286.871 156.723 286.883C156.369 286.883 156.027 286.883 155.673 286.883C153.511 286.895 151.337 286.883 149.176 286.858C148.369 286.858 147.576 286.834 146.769 286.822C145.682 286.797 144.583 286.785 143.484 286.748C117.152 286.111 90.7094 283.049 64.7802 278.958C56.4383 277.635 47.9499 276.166 40.4753 272.222C34.5639 269.111 29.3243 264.187 26.7473 258.136C26.4419 257.426 26.1732 256.703 25.9534 255.968C25.8923 255.785 25.8435 255.589 25.7824 255.405C25.5748 254.658 25.416 253.898 25.2939 253.127C25.2939 253.102 25.2817 253.09 25.2817 253.065C25.0374 251.51 24.9885 249.967 25.0862 248.423C25.1229 247.762 25.1962 247.101 25.2939 246.451C25.3061 246.353 25.3183 246.268 25.3427 246.17C25.4526 245.508 25.587 244.859 25.758 244.21C26.4419 241.466 27.6022 238.808 29.0801 236.298C31.3273 232.452 34.3441 228.936 37.5929 225.96C42.918 221.097 48.8537 217.227 55.2292 214.14C59.2841 212.168 63.5222 210.515 67.8824 209.106C72.267 210.539 76.8471 211.544 81.4882 212.266C81.5615 212.279 81.6104 212.291 81.6837 212.303C82.1722 212.377 82.6485 212.45 83.1493 212.524C83.8821 212.634 84.6149 212.732 85.3477 212.818C85.6164 212.854 85.8851 212.891 86.1538 212.916L86.9599 213.014C87.6194 213.087 88.2667 213.161 88.9263 213.234L89.7568 213.32C90.6484 213.418 91.5522 213.491 92.4438 213.565C93.8727 213.687 95.2895 213.81 96.7063 213.908C140.394 217.105 184.424 215.218 227.684 208.31C228.221 208.225 228.759 208.151 229.284 208.065C234.255 207.257 239.397 206.24 244.429 204.905C246.603 205.42 248.777 205.971 250.939 206.559C255.702 207.833 260.428 209.278 265.094 210.882C265.424 210.993 265.753 211.103 266.071 211.225C266.865 211.507 267.647 211.789 268.44 212.071C268.782 212.193 269.124 212.315 269.466 212.45C270.932 212.989 272.398 213.553 273.851 214.128C274.279 214.3 274.706 214.471 275.121 214.643C276.367 215.145 277.613 215.659 278.846 216.198C279.396 216.431 279.933 216.664 280.483 216.909C280.874 217.08 281.252 217.252 281.643 217.423C282.168 217.656 282.706 217.901 283.231 218.146C290.303 221.391 298.034 226.23 298.938 233.983C299.707 240.535 295.139 246.5 290.229 250.91L290.242 250.898Z" fill="#9A8E8E"/>
<path d="M230.857 124.851C230.515 128.366 227.083 130.681 223.871 132.102C222.6 132.666 221.306 133.155 219.999 133.596C208.14 137.663 195.071 137.295 182.43 137.148C170.583 137.001 158.736 137.148 146.889 137.565C139.402 137.834 131.891 138.202 124.44 137.479C121.314 137.173 118.199 136.671 115.183 135.85C113.204 135.323 111.262 134.662 109.393 133.829C106.328 132.47 103.128 130.167 102.859 126.823C102.749 125.353 103.238 123.884 104.007 122.634C104.422 121.973 104.899 121.373 105.436 120.821C107.512 118.69 110.407 117.355 113.241 116.277C118.199 114.379 123.305 112.958 128.483 111.819C131.292 111.194 134.101 110.668 136.935 110.178C140.196 110.827 143.628 111.011 146.925 111.145C159.188 111.611 171.438 112.076 183.7 112.529C192.103 112.848 201.007 113.019 208.811 110.349C210.106 110.729 211.388 111.145 212.671 111.586C216.066 112.725 219.413 114.036 222.686 115.506C222.955 115.616 223.211 115.738 223.468 115.861C225.226 116.669 226.948 117.588 228.353 118.923C229.953 120.454 231.089 122.634 230.881 124.839L230.857 124.851Z" fill="#A59292"/>
<g style="mix-blend-mode:multiply" opacity="0.3" clip-path="url(#clip1_31468_10994)">
<path d="M157.941 128H161.405L163.831 123.371L162.151 120.169L157.939 128H157.941ZM176.781 120.038L174.887 123.649L177.105 127.947L179 124.321L176.781 120.038ZM176.205 118.933L172.163 111.139L170.169 114.632L174.31 122.546L176.206 118.931L176.205 118.933ZM169.906 123.699L172.161 127.999H176.007L171.826 120.03L169.906 123.699ZM161.578 119.068L159.693 115.454L157.285 120.053L159.134 123.609L161.578 119.068ZM156.721 121.149L155 124.524L156.894 127.94L158.572 124.715L156.721 121.149ZM169.528 115.671L167.522 119.188L169.333 122.605L171.256 118.935L169.528 115.673V115.671ZM161.964 111L160.233 114.344L166.964 127.126L168.759 123.705L165.357 117.223L161.964 111Z" fill="#A59292"/>
</g>
<path d="M219.522 103.135C218.679 104.666 217.311 105.842 215.882 106.822C213.659 108.353 211.278 109.492 208.786 110.349C200.982 113.031 192.09 112.848 183.675 112.529C171.413 112.064 159.163 111.598 146.9 111.145C146.265 111.121 145.618 111.096 144.958 111.059C144.397 111.035 143.822 110.998 143.261 110.961C142.43 110.9 141.587 110.839 140.745 110.741C140.439 110.716 140.134 110.68 139.829 110.643C138.852 110.52 137.874 110.374 136.922 110.178C133.099 109.418 129.52 108.034 126.736 105.352C125.295 103.968 124.11 102.155 124.098 100.171C124.098 99.3868 124.256 98.6642 124.562 97.9905C125.746 95.3326 129.007 93.5689 131.927 92.4543C142.125 88.5716 151.639 86.6364 161.117 85.877C161.422 85.8525 161.74 85.828 162.057 85.8035C162.595 85.7667 163.12 85.73 163.645 85.7055C163.987 85.681 164.317 85.6687 164.659 85.6565C176.518 85.0441 188.438 86.0974 201.702 87.2733C206.441 87.702 211.4 88.1919 215.357 90.8253C217.042 91.9399 218.459 93.5689 219.351 95.4061C220.572 97.8925 220.841 100.746 219.522 103.147V103.135Z" fill="#BBAEA3"/>
<g style="mix-blend-mode:multiply" opacity="0.2">
<path d="M219.524 103.135C218.682 104.666 217.314 105.842 215.885 106.822C213.662 108.353 211.28 109.492 208.789 110.35C200.984 113.032 192.093 112.848 183.678 112.53C171.415 112.064 159.165 111.599 146.903 111.146C143.617 111.023 140.173 110.827 136.912 110.178C133.089 109.419 129.511 108.035 126.726 105.352C125.285 103.968 124.1 102.156 124.088 100.171C124.088 99.3875 124.247 98.6648 124.552 97.9912C125.041 98.971 125.773 99.8529 126.641 100.539C128.277 101.825 130.305 102.511 132.32 103.001C136.863 104.14 141.553 104.507 146.219 104.826C154.487 105.389 162.756 105.781 171.024 106.014C183.458 106.357 196.05 106.308 208.141 103.356C211.989 102.413 216.104 100.931 218.107 97.5012C218.511 96.8153 218.877 96.0192 219.365 95.3945C220.587 97.8809 220.856 100.735 219.536 103.135H219.524Z" fill="#BBAEA3"/>
</g>
<g style="mix-blend-mode:multiply" opacity="0.3">
<path d="M230.857 124.851C230.515 128.366 227.083 130.681 223.871 132.102C222.6 132.665 221.306 133.155 219.999 133.596C208.14 137.663 195.071 137.295 182.43 137.148C170.583 137.001 158.736 137.148 146.889 137.565C139.402 137.834 131.891 138.202 124.44 137.479C121.314 137.173 118.199 136.671 115.183 135.85C113.204 135.323 111.262 134.662 109.393 133.829C106.328 132.469 103.128 130.167 102.859 126.823C102.749 125.353 103.238 123.883 104.007 122.634C104.422 121.973 104.899 121.373 105.436 120.821C105.363 121.544 105.461 122.242 105.766 122.793C106.401 123.908 107.635 124.508 108.819 125.01C114.609 127.497 120.666 129.309 126.871 130.387C137.228 132.2 147.829 132.016 158.345 131.808C173.527 131.514 188.72 131.232 203.804 129.481C207.297 129.077 210.827 128.575 214.051 127.19C217.275 125.806 220.219 123.406 221.55 120.148C222.124 118.727 222.527 117.012 223.455 115.873C225.214 116.681 226.936 117.6 228.341 118.935C229.941 120.466 231.077 122.646 230.869 124.851H230.857Z" fill="#A59292"/>
</g>
<g style="mix-blend-mode:multiply" opacity="0.3">
<path d="M251.01 167.144C248.14 168.883 245.001 169.986 241.728 170.721C237.099 171.762 232.225 172.043 227.474 172.288C200.238 173.672 173.002 175.056 145.778 176.441C123.965 177.555 101.736 178.608 80.3505 174.799C75.3673 173.917 70.4453 172.766 65.5721 171.296C62.7752 170.451 59.4898 168.81 59.502 165.883C59.502 163.825 61.2241 162.233 62.8363 160.959C63.85 160.15 64.8759 159.366 65.9019 158.595C66.2438 161.387 68.1125 163.972 70.6163 165.307C72.6682 166.397 75.0376 166.752 77.3459 167.046C115.171 171.933 153.522 169.128 191.554 166.323C208.067 165.111 224.751 163.862 240.567 158.974C247.834 156.733 255.761 152.74 257.532 145.342C257.617 145.024 257.691 144.669 257.825 144.362C258.314 145.011 258.741 145.71 259.095 146.469C262.625 153.793 257.935 162.955 250.985 167.169L251.01 167.144Z" fill="#67677E"/>
</g>
<g style="mix-blend-mode:multiply" opacity="0.3">
<path d="M268.61 193.626C261.893 199.027 253.331 202.506 244.415 204.894C239.383 206.241 234.254 207.258 229.271 208.054C228.733 208.14 228.208 208.226 227.671 208.299C184.423 215.207 140.381 217.093 96.693 213.897C91.7221 213.529 86.6535 213.064 81.6703 212.292C76.9559 211.557 72.3148 210.553 67.8691 209.095C61.2371 206.94 55.0449 203.792 49.7442 199.076C48.5962 198.047 47.6191 196.822 47.0206 195.402C45.1886 191.005 47.4847 187.269 51.0266 184.513C50.8801 185.505 50.7946 186.46 51.1121 187.061C52.3213 189.425 54.9472 190.662 57.4143 191.641C88.2901 203.951 122.512 204.159 155.696 202.591C182.92 201.318 210.083 198.966 237.112 195.549C242.876 194.814 248.653 194.042 254.308 192.768C256.519 192.266 258.754 191.678 260.598 190.355C263.481 188.31 264.971 184.88 267.12 182.076C267.914 181.047 268.903 180.091 270.015 179.356C273.422 183.398 273.264 189.865 268.61 193.613V193.626Z" fill="#9A99A4"/>
</g>
<g style="mix-blend-mode:multiply" opacity="0.1">
<path d="M290.24 250.897C279.846 260.255 266.9 266.318 253.758 271.058C193.778 292.676 127.727 288.928 64.7786 278.97C56.4368 277.648 47.9484 276.178 40.4737 272.234C32.9991 268.29 26.5748 261.431 25.2679 253.065C24.3519 247.211 26.0252 241.454 29.0541 236.297C29.2984 238.269 30.3487 240.058 31.5701 241.625C36.3334 247.75 43.6737 251.253 50.9651 253.861C72.2777 261.455 95.1781 263.072 117.736 264.64C167.555 268.082 219.109 271.303 266.045 254.192C271.138 252.33 276.304 250.138 280.066 246.219C283.816 242.299 285.807 236.224 283.547 231.263C282.338 228.606 280.005 226.425 279.529 223.535C279.162 221.281 280.078 219.101 281.642 217.423C282.167 217.656 282.704 217.901 283.229 218.146C290.301 221.391 298.032 226.229 298.936 233.983C299.706 240.535 295.138 246.5 290.228 250.91L290.24 250.897Z" fill="#6E7073"/>
</g>
<g style="mix-blend-mode:multiply" opacity="0.3">
<path d="M212.648 111.586C211.573 112.223 210.425 112.75 209.252 113.166C206.858 113.999 204.33 114.342 201.814 114.599C196.672 115.114 191.494 115.273 186.34 115.42C171.745 115.849 157.137 116.277 142.579 115.261C137.962 114.942 133.235 114.44 129.083 112.395C128.875 112.284 128.655 112.162 128.533 111.954C128.509 111.917 128.497 111.868 128.484 111.819C131.293 111.194 134.103 110.668 136.936 110.178C140.197 110.827 143.629 111.011 146.927 111.145C159.189 111.611 171.439 112.076 183.702 112.529C192.105 112.848 201.008 113.019 208.813 110.349C210.107 110.729 211.39 111.145 212.672 111.586H212.648Z" fill="#A59292"/>
</g>
<g style="mix-blend-mode:multiply" opacity="0.3">
<path d="M227.66 134.577C225.73 136.242 223.128 137.051 220.625 137.651C214.823 139.01 208.863 139.562 202.939 140.076C191.63 141.044 180.308 141.877 168.986 142.599C157.31 143.346 145.621 143.995 133.933 143.579C124.394 143.236 114.831 142.17 105.671 139.476C105.231 139.353 104.767 139.194 104.389 138.937C107.943 137.786 111.546 136.757 115.185 135.85C118.214 136.671 121.329 137.173 124.443 137.479C131.906 138.202 139.405 137.835 146.892 137.565C158.739 137.149 170.586 137.014 182.433 137.149C195.074 137.296 208.142 137.663 220.002 133.597C222.567 133.903 225.119 134.234 227.66 134.564V134.577Z" fill="#67677E"/>
</g>
<g style="mix-blend-mode:multiply" opacity="0.3">
<path d="M246.821 171.616C244.696 172.669 242.094 173.098 239.713 173.404C189.54 179.712 138.902 186.032 88.546 181.525C82.8423 181.022 77.0043 180.324 71.8868 177.752C71.4593 177.532 71.0197 177.287 70.8242 176.858C70.7998 176.821 70.7876 176.772 70.7754 176.736C73.9631 175.964 77.1508 175.327 80.3508 174.8C101.724 178.597 123.953 177.544 145.779 176.442C173.015 175.058 200.251 173.674 227.475 172.289C232.226 172.057 237.099 171.763 241.728 170.722C243.438 171.003 245.123 171.297 246.821 171.616Z" fill="#9A99A4"/>
</g>
<g style="mix-blend-mode:multiply" opacity="0.2">
<path d="M250.924 206.535C249.251 207.882 247.187 208.899 245.208 209.695C236.109 213.345 226.363 215.072 216.653 216.529C170.852 223.388 124.221 224.626 78.1274 220.192C70.1886 219.432 61.9201 218.379 55.2148 214.129C59.2697 212.157 63.5078 210.503 67.868 209.095C72.3138 210.552 76.9549 211.557 81.6693 212.292C86.6524 213.063 91.721 213.541 96.6919 213.896C140.38 217.093 184.409 215.207 227.67 208.299C228.207 208.213 228.744 208.139 229.27 208.054C234.24 207.245 239.382 206.229 244.414 204.894C246.588 205.408 248.762 205.959 250.924 206.547V206.535Z" fill="#6E7073"/>
</g>
<path d="M73.7203 189.411C71.5463 189.411 71.5463 192.792 73.7203 192.792C75.8944 192.792 75.8944 189.411 73.7203 189.411Z" fill="#746A61"/>
<path d="M85.2496 184.108C83.0756 184.108 83.0756 187.489 85.2496 187.489C87.4236 187.489 87.4236 184.108 85.2496 184.108Z" fill="#746A61"/>
<path d="M90.4773 191.544C90.3552 191.36 90.1964 191.213 90.001 191.103C89.8666 191.042 89.7323 190.993 89.5979 190.931C89.3048 190.846 88.9995 190.846 88.7063 190.931C88.572 190.993 88.4376 191.042 88.3033 191.103C88.0468 191.25 87.8514 191.458 87.6926 191.715C87.5338 192.034 87.3629 192.352 87.2041 192.671C87.0819 192.867 87.0087 193.075 87.0087 193.295C86.9598 193.516 86.972 193.749 87.0331 193.969C87.0819 194.19 87.1919 194.385 87.3384 194.545C87.4606 194.728 87.6193 194.875 87.8148 194.986L88.2178 195.157C88.5109 195.243 88.8163 195.243 89.1094 195.157C89.2437 195.096 89.3781 195.047 89.5124 194.986C89.7689 194.839 89.9643 194.63 90.1109 194.373C90.2697 194.055 90.4407 193.736 90.5994 193.418C90.7216 193.222 90.7948 193.014 90.7948 192.793C90.8437 192.573 90.8315 192.34 90.7704 192.12C90.7216 191.899 90.6116 191.703 90.4651 191.544H90.4773Z" fill="#746A61"/>
<path d="M101.348 195.205C101.19 195.046 101.031 194.887 100.872 194.728C100.726 194.568 100.542 194.446 100.335 194.372C100.139 194.262 99.9195 194.213 99.6874 194.225C99.4554 194.225 99.2355 194.262 99.0401 194.372C98.8325 194.446 98.6493 194.556 98.5027 194.728L98.234 195.071C98.0874 195.34 98.002 195.622 98.002 195.928C98.0264 196.075 98.0386 196.222 98.063 196.381C98.1485 196.663 98.2829 196.92 98.4905 197.128C98.6493 197.288 98.808 197.447 98.9668 197.606C99.1134 197.765 99.2966 197.888 99.5042 197.961C99.6996 198.071 99.9195 198.12 100.152 198.108C100.384 198.108 100.603 198.071 100.799 197.961C101.006 197.888 101.19 197.777 101.336 197.606C101.422 197.496 101.507 197.373 101.605 197.263C101.752 196.994 101.837 196.712 101.837 196.406C101.813 196.259 101.8 196.112 101.776 195.952C101.69 195.671 101.556 195.414 101.348 195.205Z" fill="#746A61"/>
<path d="M115.757 188.456C115.599 188.297 115.428 188.174 115.22 188.101C115.025 187.991 114.805 187.942 114.573 187.954L114.121 188.015C113.84 188.101 113.583 188.236 113.376 188.444C113.29 188.554 113.205 188.677 113.107 188.787C112.96 189.056 112.875 189.338 112.875 189.644V190.122C112.875 190.355 112.912 190.575 113.022 190.771C113.095 190.979 113.205 191.163 113.376 191.31C113.535 191.469 113.706 191.592 113.913 191.665C114.109 191.775 114.328 191.824 114.56 191.812C114.707 191.788 114.854 191.775 115.012 191.751C115.293 191.665 115.55 191.53 115.757 191.322L116.026 190.979C116.173 190.71 116.258 190.428 116.258 190.122V189.644C116.258 189.412 116.222 189.191 116.112 188.995C116.038 188.787 115.928 188.603 115.757 188.456Z" fill="#746A61"/>
<path d="M127.545 197.606C125.371 197.606 125.371 200.987 127.545 200.987C129.719 200.987 129.719 197.606 127.545 197.606Z" fill="#746A61"/>
<path d="M167.373 184.502C167.263 184.416 167.141 184.331 167.031 184.233C166.762 184.086 166.481 184 166.176 184L165.724 184.061C165.443 184.147 165.187 184.282 164.979 184.49C164.82 184.649 164.661 184.808 164.503 184.968C164.344 185.115 164.222 185.298 164.148 185.507C164.038 185.703 163.99 185.923 164.002 186.156C164.002 186.388 164.038 186.609 164.148 186.805C164.222 187.013 164.332 187.197 164.503 187.344L164.845 187.613C165.113 187.76 165.394 187.846 165.7 187.846L166.151 187.785C166.432 187.699 166.689 187.564 166.896 187.356C167.055 187.197 167.214 187.038 167.373 186.878C167.532 186.731 167.654 186.548 167.727 186.339C167.837 186.143 167.886 185.923 167.874 185.69C167.874 185.458 167.837 185.237 167.727 185.041C167.654 184.833 167.544 184.649 167.373 184.502Z" fill="#746A61"/>
<path d="M181.127 189.903C181.017 189.817 180.895 189.731 180.785 189.633C180.516 189.486 180.235 189.4 179.93 189.4C179.783 189.425 179.637 189.437 179.478 189.462C179.197 189.547 178.94 189.682 178.733 189.89C178.574 190.05 178.415 190.209 178.256 190.368C178.098 190.515 177.976 190.699 177.902 190.907C177.792 191.103 177.744 191.323 177.756 191.556C177.756 191.789 177.792 192.009 177.902 192.205C177.976 192.413 178.085 192.597 178.256 192.744C178.366 192.83 178.489 192.916 178.598 193.014C178.867 193.161 179.148 193.246 179.453 193.246L179.905 193.185C180.186 193.099 180.443 192.965 180.65 192.756L181.127 192.279C181.285 192.132 181.408 191.948 181.481 191.74C181.591 191.544 181.64 191.323 181.627 191.091C181.627 190.858 181.591 190.637 181.481 190.441C181.408 190.233 181.298 190.05 181.127 189.903Z" fill="#746A61"/>
<path d="M189.773 201.477C189.663 201.391 189.541 201.305 189.431 201.207C189.162 201.06 188.881 200.975 188.576 200.975H188.099C187.867 200.975 187.648 201.011 187.452 201.122C187.244 201.195 187.061 201.305 186.915 201.477C186.756 201.624 186.634 201.807 186.56 202.016C186.451 202.212 186.402 202.432 186.414 202.665C186.438 202.812 186.451 202.959 186.475 203.118C186.561 203.4 186.695 203.657 186.902 203.865L187.244 204.135C187.513 204.282 187.794 204.367 188.099 204.367H188.576C188.808 204.367 189.028 204.331 189.223 204.22C189.431 204.147 189.614 204.037 189.76 203.865C189.919 203.718 190.041 203.535 190.115 203.326C190.225 203.13 190.273 202.91 190.261 202.677L190.2 202.224C190.115 201.942 189.98 201.685 189.773 201.477Z" fill="#746A61"/>
<path d="M212.845 191.837C212.687 191.678 212.516 191.555 212.308 191.482C212.112 191.372 211.893 191.323 211.661 191.335C211.514 191.359 211.367 191.372 211.209 191.396C210.928 191.482 210.671 191.617 210.464 191.837L210.195 192.18C210.048 192.449 209.963 192.731 209.963 193.037V193.515C209.963 193.748 210 193.968 210.109 194.164C210.183 194.372 210.293 194.556 210.464 194.703C210.622 194.862 210.793 194.985 211.001 195.058C211.196 195.169 211.416 195.218 211.648 195.205L212.1 195.144C212.381 195.058 212.638 194.924 212.845 194.715C212.931 194.605 213.016 194.483 213.114 194.372C213.261 194.103 213.346 193.821 213.346 193.515V193.037C213.346 192.805 213.309 192.584 213.199 192.388C213.126 192.18 213.016 191.996 212.845 191.849V191.837Z" fill="#746A61"/>
<path d="M209.915 182.932C209.829 182.65 209.695 182.393 209.487 182.185L209.011 181.707C208.852 181.548 208.681 181.425 208.473 181.352C208.278 181.242 208.058 181.193 207.826 181.205C207.594 181.205 207.374 181.242 207.179 181.352C206.971 181.425 206.788 181.536 206.641 181.707C206.556 181.817 206.47 181.94 206.373 182.05C206.226 182.32 206.141 182.601 206.141 182.907C206.165 183.054 206.177 183.201 206.202 183.361C206.287 183.642 206.422 183.9 206.629 184.108C206.788 184.267 206.947 184.426 207.106 184.585C207.252 184.745 207.435 184.867 207.643 184.941C207.838 185.051 208.058 185.1 208.29 185.088C208.522 185.088 208.742 185.051 208.938 184.941C209.145 184.867 209.328 184.757 209.475 184.585C209.56 184.475 209.646 184.353 209.744 184.243C209.89 183.973 209.976 183.691 209.976 183.385C209.951 183.238 209.939 183.091 209.915 182.932Z" fill="#746A61"/>
<path d="M200.606 187.477H198.2C197.772 187.477 197.308 187.66 197.003 187.966C196.844 188.113 196.722 188.297 196.648 188.505C196.538 188.701 196.49 188.922 196.502 189.155C196.526 189.596 196.661 190.049 196.99 190.355C197.32 190.661 197.723 190.845 198.187 190.845H200.593C201.021 190.845 201.485 190.661 201.79 190.355C201.949 190.208 202.071 190.024 202.144 189.816C202.254 189.62 202.303 189.4 202.291 189.167C202.267 188.726 202.132 188.273 201.803 187.966C201.473 187.66 201.07 187.477 200.606 187.477Z" fill="#746A61"/>
<path d="M225.119 200.497C222.945 200.497 222.945 203.878 225.119 203.878C227.293 203.878 227.293 200.497 225.119 200.497Z" fill="#746A61"/>
<path d="M237.613 184.108C235.439 184.108 235.439 187.489 237.613 187.489C239.787 187.489 239.787 184.108 237.613 184.108Z" fill="#746A61"/>
<path d="M249.777 178.94C249.704 178.731 249.594 178.548 249.423 178.401L249.081 178.131C248.812 177.984 248.531 177.898 248.226 177.898C248.079 177.923 247.933 177.935 247.774 177.96C247.493 178.045 247.237 178.18 247.029 178.388C246.711 178.719 246.394 179.038 246.089 179.368C245.93 179.515 245.808 179.699 245.734 179.907C245.624 180.103 245.576 180.324 245.588 180.556C245.588 180.789 245.624 181.009 245.734 181.205C245.808 181.414 245.918 181.597 246.089 181.744C246.198 181.83 246.321 181.916 246.431 182.014C246.699 182.161 246.98 182.247 247.285 182.247C247.432 182.222 247.579 182.21 247.737 182.185C248.018 182.1 248.275 181.965 248.482 181.757C248.8 181.426 249.117 181.107 249.423 180.777C249.582 180.63 249.704 180.446 249.777 180.238C249.887 180.042 249.936 179.821 249.924 179.589C249.924 179.356 249.887 179.136 249.777 178.94Z" fill="#746A61"/>
<path d="M246.016 193.282C244.477 191.739 242.095 194.127 243.634 195.671L243.915 195.952C245.454 197.496 247.836 195.107 246.297 193.564L246.016 193.282Z" fill="#746A61"/>
<path d="M226.07 180.728C223.896 180.728 223.896 184.108 226.07 184.108C228.244 184.108 228.244 180.728 226.07 180.728Z" fill="#746A61"/>
<path d="M96.0578 205.322C95.9479 205.237 95.8258 205.151 95.7158 205.053C95.4471 204.906 95.1662 204.82 94.8609 204.82H94.3846C94.1525 204.82 93.9327 204.857 93.7372 204.967C93.5296 205.041 93.3464 205.151 93.1999 205.322C93.0411 205.469 92.9189 205.653 92.8457 205.861C92.7357 206.057 92.6869 206.278 92.6991 206.511C92.7235 206.658 92.7357 206.805 92.7602 206.964C92.8457 207.245 92.98 207.503 93.1876 207.711C93.2976 207.797 93.4197 207.882 93.5296 207.98C93.7983 208.127 94.0792 208.213 94.3846 208.213H94.8609C95.0929 208.213 95.3128 208.176 95.5082 208.066C95.7158 207.993 95.899 207.882 96.0456 207.711C96.2044 207.564 96.3265 207.38 96.3998 207.172C96.5097 206.976 96.5586 206.756 96.5464 206.523C96.5219 206.376 96.5097 206.229 96.4853 206.07C96.3998 205.788 96.2654 205.531 96.0578 205.322Z" fill="#746A61"/>
<path d="M69.1402 199.541C68.9936 199.382 68.8104 199.259 68.6028 199.186C68.4074 199.076 68.1876 199.027 67.9555 199.039L67.5036 199.1C67.2227 199.186 66.9662 199.321 66.7586 199.529L66.4899 199.872C66.3433 200.141 66.2578 200.423 66.2578 200.729V201.207C66.2578 201.44 66.2945 201.66 66.4044 201.856C66.4777 202.064 66.5876 202.248 66.7586 202.395C66.9051 202.554 67.0883 202.677 67.296 202.75C67.4914 202.86 67.7112 202.909 67.9433 202.897C68.0898 202.873 68.2364 202.86 68.3952 202.836C68.6761 202.75 68.9326 202.615 69.1402 202.407L69.4089 202.064C69.5555 201.795 69.641 201.513 69.641 201.207V200.729C69.641 200.496 69.6043 200.276 69.4944 200.08C69.4211 199.872 69.3112 199.688 69.1402 199.541Z" fill="#746A61"/>
<path d="M54.4957 192.78C52.3217 192.78 52.3217 196.161 54.4957 196.161C56.6697 196.161 56.6697 192.78 54.4957 192.78Z" fill="#746A61"/>
<path d="M120.339 207.245C118.165 207.245 118.165 210.626 120.339 210.626C122.513 210.626 122.513 207.245 120.339 207.245Z" fill="#746A61"/>
<path d="M187.244 182.589C187.353 182.393 187.402 182.173 187.39 181.94C187.366 181.793 187.353 181.646 187.329 181.487C187.244 181.205 187.109 180.948 186.902 180.739L186.56 180.47C186.291 180.323 186.01 180.237 185.705 180.237H185.228C184.996 180.237 184.776 180.274 184.581 180.384C184.373 180.458 184.19 180.568 184.044 180.739C183.885 180.886 183.763 181.07 183.689 181.278C183.58 181.474 183.531 181.695 183.543 181.928L183.604 182.381C183.689 182.662 183.824 182.92 184.031 183.128L184.373 183.397C184.642 183.544 184.923 183.63 185.228 183.63H185.705C185.937 183.63 186.157 183.593 186.352 183.483C186.56 183.41 186.743 183.299 186.889 183.128C187.048 182.981 187.17 182.797 187.244 182.589Z" fill="#746A61"/>
<g style="mix-blend-mode:screen" opacity="0.3">
<path d="M162.059 85.7915C161.875 86.0978 161.68 86.404 161.46 86.6857C161.24 86.9919 161.008 87.2981 160.776 87.6043C160.19 88.5352 159.53 89.417 158.871 90.3112C158.053 91.4502 157.1 92.4669 156.257 93.5814C155.378 94.6348 154.694 95.7739 153.998 96.9497C153.302 98.1256 152.593 99.3014 151.677 100.342C149.882 102.474 147.622 104.127 145.534 105.903C143.763 107.348 142.065 108.892 140.746 110.741C140.441 110.717 140.135 110.68 139.83 110.643C139.83 110.631 139.855 110.607 139.855 110.594C140.49 109.504 141.259 108.463 142.175 107.581C143.067 106.663 144.056 105.842 145.07 105.083C147.317 103.319 149.747 101.714 151.531 99.3871C152.422 98.2848 153.118 97.0477 153.851 95.8596C154.535 94.6225 155.268 93.4345 156.037 92.2586C156.453 91.6585 156.892 91.1073 157.369 90.5561C157.821 90.0049 158.297 89.466 158.785 88.9394C159.298 88.3882 159.787 87.8248 160.239 87.2368C160.532 86.7714 160.825 86.3182 161.106 85.8528C161.411 85.8283 161.729 85.8038 162.046 85.7793L162.059 85.7915Z" fill="#BBAEA3"/>
</g>
<g style="mix-blend-mode:screen" opacity="0.3">
<path d="M164.648 85.6446C163.927 87.1022 163.085 88.4862 162.205 89.8458C161.216 91.2788 160.178 92.6629 159.189 94.0837C158.236 95.529 157.442 97.0233 156.648 98.5543C155.83 100.061 154.951 101.531 153.876 102.878C151.714 105.622 149.1 107.973 146.328 110.055C145.864 110.398 145.412 110.729 144.948 111.06C144.386 111.035 143.812 110.999 143.25 110.962C144.068 110.398 144.887 109.835 145.705 109.259C146.377 108.782 147.048 108.316 147.696 107.826C148.343 107.324 148.978 106.81 149.601 106.258C150.236 105.72 150.81 105.107 151.372 104.482C151.934 103.87 152.483 103.233 152.96 102.547C154.999 99.8404 156.489 96.815 158.285 93.9857C160.044 91.2053 162.132 88.6209 163.622 85.6691C163.964 85.6446 164.294 85.6324 164.636 85.6201L164.648 85.6446Z" fill="#BBAEA3"/>
</g>
<g style="mix-blend-mode:screen" opacity="0.4">
<path d="M231.456 172.055C230.98 172.091 230.504 172.116 230.015 172.14C229.075 170.732 228.208 169.274 227.414 167.78C227.133 167.241 226.864 166.69 226.595 166.139C225.692 164.608 224.776 163.077 223.86 161.533C222.724 159.574 221.6 157.602 220.354 155.703C219.109 153.841 217.655 152.212 216.006 150.694C214.382 149.163 212.733 147.693 211.231 146.027C208.483 143.038 206.028 139.793 203.17 136.841C203.768 136.792 204.367 136.743 204.965 136.682C207.64 139.78 209.948 143.087 212.77 146.003C216.019 149.334 219.658 152.298 222.455 156.083C223.896 158.018 224.959 160.149 225.936 162.305C226.437 163.432 226.937 164.546 227.475 165.649L228.892 168.013C229.722 169.385 230.565 170.732 231.444 172.067L231.456 172.055Z" fill="#67677E"/>
</g>
<g style="mix-blend-mode:screen" opacity="0.4">
<path d="M227.657 172.275C227.657 172.275 227.535 172.275 227.474 172.275C226.998 172.3 226.522 172.324 226.033 172.349C224.8 170.475 223.603 168.589 222.43 166.666C221.026 164.375 219.719 162.036 218.119 159.88C216.531 157.725 214.589 155.949 212.61 154.234C210.644 152.531 208.702 150.878 206.858 149.077C203.133 145.476 199.701 141.655 195.951 138.115C195.634 137.809 195.316 137.503 194.986 137.196C195.731 137.184 196.476 137.16 197.221 137.147C198.882 138.874 200.482 140.65 202.107 142.426C203.829 144.276 205.637 146.015 207.517 147.73C211.328 151.172 215.346 154.503 218.693 158.594C222.137 162.795 224.47 167.768 227.596 172.19C227.621 172.214 227.633 172.251 227.657 172.275Z" fill="#67677E"/>
</g>
<g style="mix-blend-mode:screen" opacity="0.4">
<path d="M260.242 150.461C259.179 149.984 258.129 149.506 257.078 149.016C255.991 148.477 254.88 148.061 253.781 147.62C252.681 147.154 251.533 146.811 250.385 146.37C248.077 145.562 245.793 144.643 243.656 143.345C239.796 141.042 236.437 138.042 232.871 135.249C233.873 135.384 234.874 135.518 235.876 135.665C238.88 138.287 241.824 140.908 245.304 142.782C249.811 145.219 254.684 146.383 259.228 148.012C259.435 148.085 259.631 148.159 259.826 148.232C260.046 148.955 260.193 149.702 260.266 150.449L260.242 150.461Z" fill="#67677E"/>
</g>
<g style="mix-blend-mode:screen" opacity="0.4">
<path d="M260.182 153.731C260.108 154.234 260.023 154.736 259.901 155.226C259.107 154.944 258.325 154.662 257.531 154.393C254.515 153.376 251.522 152.543 248.469 151.649C245.501 150.706 242.558 149.567 239.834 148.073C234.277 145.096 229.501 141.226 224.763 137.6C223.04 136.29 221.306 134.979 219.535 133.742C219.694 133.693 219.853 133.644 220.011 133.583C221.05 133.705 222.088 133.84 223.114 133.963C224.03 134.661 224.921 135.408 225.813 136.131C228.024 137.98 230.198 139.866 232.53 141.63C234.888 143.418 237.428 144.998 240.103 146.358C245.562 149.102 251.412 150.988 257.226 152.776C258.215 153.082 259.205 153.401 260.194 153.719L260.182 153.731Z" fill="#67677E"/>
</g>
<g style="mix-blend-mode:screen" opacity="0.2">
<path d="M280.491 216.896C279.478 217.337 278.476 217.766 277.462 218.182C271.918 220.803 266.299 223.069 260.767 225.654C255.209 227.993 249.726 230.614 244.12 232.905C241.31 234.191 238.465 235.379 235.619 236.616C234.911 236.934 234.202 237.228 233.506 237.559L231.418 238.588C230.037 239.286 228.67 240.009 227.314 240.78C225.958 241.54 224.639 242.348 223.369 243.193C222.111 244.075 220.877 245.018 219.668 245.974C218.459 246.929 217.274 247.909 216.114 248.913C214.942 249.918 213.769 250.897 212.645 251.975C210.398 254.07 208.114 256.103 205.794 258.05C204.609 259.006 203.473 260.022 202.301 260.99C201.116 261.97 199.931 262.913 198.71 263.832C188.951 271.327 178.448 277.721 168.066 284.409C166.845 285.193 165.611 285.989 164.378 286.773C161.837 286.846 159.297 286.883 156.744 286.895C157.355 286.515 157.953 286.123 158.564 285.731L162.301 283.404C163.559 282.657 164.829 281.934 166.087 281.212C168.64 279.73 171.193 278.236 173.745 276.766C176.31 275.308 178.851 273.814 181.33 272.234C183.834 270.58 186.35 268.976 188.768 267.212C191.186 265.461 193.519 263.562 195.876 261.713C198.246 259.814 200.554 257.83 202.85 255.809C205.195 253.874 207.516 251.889 209.861 249.93C212.169 247.909 214.6 246.084 217.03 244.234C219.473 242.409 221.928 240.56 224.554 238.992C227.228 237.351 229.976 235.795 232.773 234.374C235.595 233.027 238.465 231.753 241.323 230.48C242.043 230.173 242.739 229.843 243.472 229.536L245.646 228.655C247.087 228.067 248.541 227.466 249.97 226.854C251.399 226.242 252.84 225.592 254.245 224.931C255.686 224.319 257.115 223.694 258.532 223.02C259.899 222.359 261.267 221.698 262.623 220.987C263.967 220.277 265.31 219.542 266.678 218.893C269.414 217.521 272.15 216.149 274.873 214.789L275.142 214.667C276.388 215.169 277.633 215.684 278.867 216.223C279.417 216.455 279.954 216.688 280.504 216.933L280.491 216.896Z" fill="#9A8E8E"/>
</g>
<path d="M210.478 92.3733L210.136 92.1038C209.867 91.9568 209.586 91.8711 209.281 91.8711H208.316C208.084 91.8711 207.864 91.9078 207.669 92.0181C207.461 92.0916 207.278 92.2018 207.131 92.3733C206.973 92.5203 206.851 92.704 206.777 92.9122C206.667 93.1082 206.619 93.3286 206.631 93.5614C206.655 93.7083 206.667 93.8553 206.692 94.0145C206.777 94.2963 206.912 94.5535 207.119 94.7617L207.461 95.0311C207.73 95.1781 208.011 95.2639 208.316 95.2639H209.281C209.513 95.2639 209.733 95.2271 209.928 95.1169C210.136 95.0434 210.319 94.9332 210.466 94.7617C210.625 94.6147 210.747 94.431 210.82 94.2228C210.93 94.0268 210.979 93.8063 210.967 93.5736C210.942 93.4266 210.93 93.2796 210.905 93.1204C210.82 92.8387 210.686 92.5815 210.478 92.3733Z" fill="white"/>
<path d="M120.878 118.508C120.646 118.152 120.304 117.834 119.876 117.736L119.424 117.675C119.119 117.675 118.838 117.748 118.569 117.908C117.934 118.238 117.299 118.557 116.652 118.887C116.456 118.998 116.298 119.145 116.176 119.328C116.029 119.488 115.931 119.684 115.87 119.904C115.797 120.124 115.785 120.357 115.846 120.578C115.846 120.798 115.919 121.006 116.041 121.202C116.273 121.558 116.615 121.876 117.043 121.974L117.495 122.035C117.8 122.035 118.081 121.962 118.35 121.802L120.267 120.823C120.462 120.712 120.621 120.565 120.743 120.382C120.89 120.222 120.988 120.026 121.049 119.806C121.122 119.586 121.134 119.353 121.073 119.132C121.073 118.912 121 118.704 120.878 118.508Z" fill="white"/>
<path d="M87.3977 149.422C87.2877 149.336 87.1656 149.251 87.0557 149.153C86.787 149.006 86.5061 148.92 86.2007 148.92H85.7244C85.4924 148.92 85.2725 148.957 85.0771 149.067C84.8695 149.14 84.6863 149.251 84.5397 149.422C84.3809 149.569 84.2588 149.753 84.1855 149.961C84.0756 150.157 84.0267 150.377 84.0389 150.61L84.1 151.063C84.1855 151.345 84.3199 151.602 84.5275 151.811C84.6374 151.896 84.7595 151.982 84.8695 152.08C85.1382 152.227 85.4191 152.313 85.7244 152.313H86.2007C86.4328 152.313 86.6526 152.276 86.848 152.166C87.0557 152.092 87.2389 151.982 87.3854 151.811C87.5442 151.664 87.6664 151.48 87.7396 151.272C87.8496 151.076 87.8984 150.855 87.8862 150.622L87.8251 150.169C87.7396 149.888 87.6053 149.63 87.3977 149.422Z" fill="white"/>
<path d="M65.2922 183.154L64.9502 182.884C64.6815 182.737 64.4006 182.651 64.0953 182.651H63.6189C63.3869 182.651 63.167 182.688 62.9716 182.798C62.764 182.872 62.5808 182.982 62.4342 183.154C62.2755 183.301 62.1533 183.484 62.08 183.692C61.9701 183.888 61.9213 184.109 61.9335 184.342L61.9945 184.795C62.08 185.077 62.2144 185.334 62.422 185.542L62.764 185.811C63.0327 185.958 63.3136 186.044 63.6189 186.044H64.0953C64.3273 186.044 64.5472 186.007 64.7426 185.897C64.9502 185.824 65.1334 185.713 65.28 185.542C65.4387 185.395 65.5609 185.211 65.6342 185.003C65.7441 184.807 65.7929 184.587 65.7807 184.354C65.7563 184.207 65.7441 184.06 65.7197 183.901C65.6342 183.619 65.4998 183.362 65.2922 183.154Z" fill="white"/>
<path d="M279.762 238.345C279.762 238.345 279.737 238.259 279.725 238.222C279.676 238.088 279.615 237.928 279.554 237.806V237.782C279.554 237.782 279.517 237.745 279.505 237.733C279.407 237.586 279.297 237.426 279.163 237.304C279.004 237.145 278.833 237.022 278.626 236.949C278.43 236.838 278.21 236.789 277.978 236.802C277.746 236.802 277.527 236.838 277.331 236.949C277.123 237.022 276.94 237.132 276.794 237.304C276.708 237.414 276.623 237.537 276.525 237.647C276.378 237.916 276.293 238.198 276.293 238.504C276.317 238.639 276.33 238.786 276.354 238.921C276.317 239.043 276.305 239.166 276.305 239.3C276.305 239.533 276.342 239.753 276.452 239.949C276.525 240.158 276.635 240.341 276.806 240.488C276.916 240.574 277.038 240.66 277.148 240.758C277.417 240.905 277.698 240.991 278.003 240.991L278.455 240.929C278.736 240.844 278.992 240.709 279.2 240.501C279.334 240.378 279.432 240.219 279.53 240.072C279.53 240.06 279.554 240.035 279.554 240.023V239.998C279.627 239.864 279.688 239.704 279.749 239.57C279.762 239.533 279.774 239.496 279.786 239.46C279.823 239.276 279.859 239.092 279.859 238.896C279.859 238.712 279.823 238.529 279.786 238.345H279.762Z" fill="white"/>
<g style="mix-blend-mode:multiply" opacity="0.3">
<path d="M172.949 245.483C172.88 244.621 172.742 243.621 172.465 242.586C172.188 241.483 171.739 240.345 171.151 239.069C170.529 237.862 169.734 236.552 168.662 235.276C168.282 234.793 167.798 234.276 167.348 233.862C168.074 231 166.484 228.552 166.484 228.552C163.753 228.379 161.99 229.414 161.333 229.862C161.229 229.793 161.125 229.759 161.022 229.759C160.572 229.552 160.088 229.379 159.604 229.276C159.12 229.172 158.602 229 158.083 228.828C157.599 228.724 157.046 228.621 156.493 228.517C156.389 228.517 156.32 228.448 156.216 228.448C154.937 224.586 151.445 223 151.445 223C147.608 225.414 146.882 228.828 146.882 228.828C146.882 228.828 146.882 228.897 146.812 229.034L146.19 229.207C145.914 229.31 145.568 229.414 145.326 229.552C145.049 229.655 144.704 229.759 144.462 229.897C143.908 230.103 143.321 230.448 142.768 230.724C142.214 231.069 141.661 231.379 141.177 231.724C141.073 231.621 141.004 231.621 141.004 231.621C135.68 229.586 130.944 232.069 130.944 232.069C130.633 237.724 133.156 241.276 133.64 241.931C133.537 242.276 133.433 242.655 133.295 242.966C132.914 244.241 132.638 245.552 132.43 246.931C132.361 247.103 132.361 247.31 132.361 247.552C127.487 249.931 126 254.862 126 254.862C130.114 259.586 134.85 259.862 134.85 259.862C135.473 260.966 136.164 261.931 136.925 262.931C137.271 263.31 137.582 263.69 137.962 264.069C136.475 268.345 138.169 271.862 138.169 271.862C142.733 272.034 145.741 269.897 146.363 269.379C146.812 269.552 147.296 269.655 147.746 269.828C149.129 270.207 150.615 270.379 152.033 270.483H153.831C155.974 273.552 159.777 274 159.777 274C162.474 271.138 162.647 268.345 162.647 267.759V267.586V267.483C163.2 267.103 163.753 266.655 164.237 266.207C165.343 265.207 166.277 264.138 167.037 262.931C167.106 262.828 167.21 262.724 167.245 262.621C170.287 262.793 172.396 260.759 172.396 260.759C171.912 257.586 170.08 256.034 169.699 255.759H169.596C169.596 255.759 169.526 255.759 169.526 255.69C169.526 255.517 169.596 255.31 169.596 255.138C169.596 254.828 169.665 254.483 169.665 254.103V252.793C169.665 252.69 169.665 252.621 169.596 252.517L169.526 252.241L169.457 251.966C169.388 251.655 169.354 251.241 169.25 250.931C168.939 249.552 168.386 248.31 167.729 247.103C167.003 245.966 166.138 244.897 165.136 244.034C164.133 243.172 163.061 242.448 161.886 241.966C160.711 241.483 159.535 241.103 158.325 240.966C157.703 240.897 157.115 240.862 156.527 240.862H156.251C156.251 240.862 156.147 240.862 156.182 240.862H155.559C155.248 240.862 154.937 240.931 154.626 240.966C153.416 241.172 152.275 241.621 151.272 242.241C150.27 242.862 149.405 243.621 148.679 244.448C147.953 245.276 147.4 246.241 147.02 247.172C146.64 248.103 146.398 249.138 146.363 250.138V251.552C146.432 252.034 146.467 252.552 146.64 252.966C146.916 253.897 147.296 254.724 147.85 255.448C148.403 256.172 148.991 256.724 149.647 257.207C150.304 257.655 151.03 257.966 151.722 258.207C152.413 258.448 153.105 258.483 153.796 258.483H154.73C154.833 258.483 154.902 258.414 154.937 258.414C154.972 258.414 155.11 258.345 155.144 258.345C155.317 258.276 155.421 258.276 155.594 258.241L156.424 257.931C156.7 257.828 156.908 257.655 157.15 257.483C157.219 257.414 157.253 257.379 157.322 257.379C157.53 257.207 157.599 256.897 157.426 256.655C157.253 256.414 156.977 256.379 156.769 256.552C156.7 256.552 156.666 256.621 156.596 256.655C156.424 256.759 156.216 256.828 155.974 256.931L155.317 257.103C155.214 257.103 155.11 257.172 155.006 257.172H154.28H153.969C153.485 257.103 152.932 256.966 152.448 256.724C152.067 256.448 151.583 256.103 151.134 255.724C150.685 255.345 150.304 254.862 150.028 254.345C149.751 253.862 149.544 253.241 149.405 252.586C149.336 252.276 149.336 251.931 149.336 251.655V251.379V251.172C149.336 251 149.405 250.862 149.405 250.69C149.613 249.31 150.339 248 151.376 247C151.653 246.724 151.929 246.517 152.206 246.345C152.482 246.138 152.828 245.966 153.139 245.793C153.45 245.621 153.796 245.517 154.176 245.414C154.557 245.31 154.902 245.241 155.283 245.241H156.216H156.424C156.804 245.31 157.253 245.345 157.634 245.414C158.394 245.586 159.155 245.862 159.95 246.276C161.367 247.103 162.577 248.31 163.373 249.793C163.753 250.552 164.029 251.31 164.133 252.138C164.202 252.345 164.202 252.586 164.202 252.759V254.069C164.202 254.276 164.133 254.517 164.133 254.724C164.064 254.931 164.064 255.172 164.029 255.379L163.857 256.034C163.753 256.483 163.58 256.897 163.407 257.345C163.096 258.172 162.647 259 162.093 259.759C160.987 261.241 159.5 262.448 157.876 263.207C157.046 263.586 156.112 263.862 155.248 264.034C154.799 264.103 154.315 264.138 153.865 264.138H153.208H153.139C152.863 264.138 152.655 264.138 152.413 264.069C151.411 264 150.443 263.862 149.509 263.586C148.576 263.31 147.642 262.931 146.743 262.483C144.98 261.552 143.459 260.276 142.249 258.759C141.627 258 141.108 257.172 140.659 256.276C140.209 255.414 139.898 254.517 139.621 253.586C139.345 252.655 139.172 251.724 139.137 250.724V249.621V249.172C139.137 248.69 139.207 248.241 139.241 247.759C139.276 247.276 139.414 246.759 139.449 246.276C139.483 245.793 139.656 245.276 139.794 244.862C140.071 243.931 140.417 243 140.797 242.172C141.627 240.483 142.664 238.931 143.874 237.724C144.22 237.379 144.531 237.103 144.876 236.862C145.222 236.586 145.533 236.31 145.914 236.103C146.294 235.897 146.64 235.655 147.02 235.448C147.193 235.345 147.4 235.241 147.573 235.172C147.677 235.103 147.78 235.069 147.85 235.069C147.919 235.069 148.057 234.966 148.126 234.966C148.507 234.793 148.956 234.621 149.336 234.517C149.44 234.448 149.544 234.448 149.647 234.414C149.751 234.379 149.855 234.345 149.959 234.31L150.615 234.138C150.719 234.138 150.823 234.069 150.927 234.069C151.03 234.069 151.134 234 151.238 234C151.341 234 151.445 233.931 151.549 233.931H151.86C151.964 233.931 152.067 233.862 152.171 233.862C152.275 233.862 152.379 233.862 152.551 233.793C152.655 233.793 152.828 233.724 152.932 233.724H154.038H155.698C156.527 233.793 157.357 233.828 158.118 234C159.639 234.276 161.16 234.759 162.474 235.414C163.787 236.069 164.997 236.828 166.035 237.724L166.207 237.897L166.38 238.069C166.484 238.172 166.588 238.276 166.761 238.414C166.934 238.552 166.968 238.621 167.072 238.759L167.383 239.103C167.832 239.586 168.213 240.034 168.593 240.517C169.319 241.448 169.907 242.448 170.391 243.31C170.46 243.379 170.46 243.414 170.494 243.483C170.529 243.552 170.564 243.586 170.598 243.655L170.771 244L170.944 244.345C171.013 244.448 171.048 244.552 171.048 244.69C171.22 245.138 171.359 245.517 171.497 245.897C171.704 246.517 171.877 247.034 171.981 247.552C172.05 247.724 172.188 247.862 172.43 247.828C172.638 247.828 172.811 247.655 172.811 247.448C173.053 246.793 173.018 246.207 172.949 245.483Z" fill="#9A8E8E"/>
</g>
<g style="mix-blend-mode:multiply" opacity="0.3" clip-path="url(#clip2_31468_10994)">
<path d="M155.261 148.324H154.642C154.287 148.324 154 148.633 154 149.017C154 149.401 154.287 149.71 154.642 149.71H155.263C155.618 149.71 155.905 149.401 155.905 149.017C155.905 148.633 155.618 148.324 155.263 148.324H155.261ZM167.125 158.423H166.505C166.149 158.423 165.863 158.732 165.863 159.116C165.863 159.499 166.149 159.809 166.505 159.809H167.125C167.481 159.809 167.767 159.499 167.767 159.116C167.767 158.732 167.481 158.423 167.125 158.423ZM166.606 151.808C166.606 151.425 166.319 151.115 165.964 151.115H163.821C163.465 151.115 163.179 151.427 163.179 151.808C163.179 152.19 163.465 152.5 163.821 152.502H165.964C166.319 152.502 166.606 152.192 166.606 151.808ZM186.958 147.466L186.305 143.507C186.121 142.021 184.916 140.932 183.529 141.004H158.397C157.46 140.963 156.669 141.753 156.63 142.766C156.625 142.929 156.638 143.094 156.672 143.253L157.36 147.466C157.36 147.499 157.36 147.53 157.381 147.563C157.463 148.076 157.221 148.283 157.005 148.359C156.671 148.489 156.499 148.885 156.619 149.246C156.711 149.521 156.949 149.702 157.219 149.704H185.241C186.179 149.739 186.966 148.945 186.998 147.93C187.004 147.773 186.989 147.618 186.958 147.466ZM178.408 163.347C178.136 161.812 177.324 161.245 176.408 161.245H169.769C169.412 161.249 169.126 161.562 169.127 161.946C169.127 162.297 169.372 162.594 169.697 162.631C169.909 162.672 170.136 162.967 170.279 163.708L170.961 167.801C171.219 169.072 172.255 169.984 173.46 170L177.42 169.982C178.358 170.019 179.147 169.229 179.183 168.216C179.189 168.061 179.176 167.908 179.145 167.758L178.408 163.349V163.347ZM169.63 159.856H176.834C176.887 159.854 176.94 159.844 176.994 159.827C177.661 159.685 177.693 159.099 177.605 158.515L176.688 153.069C176.436 151.656 175.676 151.099 174.677 151.099H168.071C167.718 151.103 167.433 151.416 167.437 151.8C167.441 152.145 167.679 152.436 167.995 152.479C168.214 152.522 168.455 152.838 168.596 153.649L169.292 157.81V157.824C169.364 158.125 169.196 158.435 168.917 158.513C168.912 158.513 168.906 158.517 168.898 158.517C168.564 158.647 168.392 159.043 168.512 159.405C168.604 159.679 168.843 159.86 169.112 159.863H169.63V159.856Z" fill="#67677E"/>
</g>
<g clip-path="url(#clip3_31468_10994)">
<path d="M204.382 72.7535C202.713 75.9621 200.419 78.7764 197.725 81.1776C192.971 85.4017 186.926 88.3247 180.649 89.7379C171.601 91.7909 162.128 91.0184 153.048 88.9847C152.25 88.8045 151.453 88.6243 150.657 88.426C146.849 87.4752 142.979 86.2648 140.014 83.724C137.048 81.1923 135.197 77.0189 136.468 73.361C136.539 73.1573 136.618 72.9634 136.697 72.7785C137.482 70.9839 138.904 69.5299 140.347 68.1685C143.28 65.422 146.452 62.9306 149.805 60.717C152.808 58.731 155.951 56.965 159.213 55.4448C160.876 55.9925 162.586 56.4164 164.284 56.7485C174.576 58.7307 185.442 57.5923 195.101 53.6038C195.516 53.718 195.931 53.8411 196.354 53.9741C199.884 55.0579 203.341 56.7273 205.164 59.8344C205.351 60.1582 205.52 60.4805 205.669 60.8195C207.296 64.5571 206.28 69.0898 204.372 72.7619L204.382 72.7535Z" fill="#DFDBD8"/>
<path d="M207.219 43.0027C207.156 43.4617 207.056 43.9178 206.903 44.3426C205.843 47.5438 202.666 49.8621 199.57 51.5043C198.118 52.2738 196.636 52.959 195.111 53.5955C185.461 57.5847 174.585 58.7315 164.294 56.7402C162.596 56.4081 160.886 55.9841 159.223 55.4365C159.07 55.3882 158.917 55.3399 158.774 55.2833C157.704 54.9273 156.658 54.5095 155.634 54.0478C153.256 52.9716 151.039 51.5987 149.144 49.8869C148.592 49.3893 148.071 48.8666 147.579 48.31C147.121 47.7923 146.693 47.2497 146.286 46.6813C144.624 44.3418 143.649 41.4645 143.467 38.5851C143.198 34.4438 144.552 30.3103 147.821 27.7536C149.304 26.5863 151.07 25.8139 152.853 25.1703C160.44 22.4489 168.54 22.0323 176.437 23.2737C177.193 23.3961 177.948 23.5275 178.692 23.6763C180.127 23.9606 181.557 24.2992 182.984 24.692C183.805 24.9195 184.616 25.1554 185.417 25.4177C190.213 26.9365 194.807 29.0309 199.058 31.517C203.379 34.054 207.869 38.0868 207.228 43.0034L207.219 43.0027Z" fill="#6C655F"/>
<path d="M206.903 44.3424C205.843 47.5437 202.667 49.8619 199.57 51.5041C198.118 52.2736 196.636 52.9589 195.111 53.5954C185.462 57.5845 174.585 58.7313 164.294 56.74C162.596 56.4079 160.886 55.984 159.223 55.4363C154.098 53.7646 149.344 50.9938 146.286 46.6812C144.624 44.3417 143.649 41.4643 143.467 38.585C143.721 38.8685 143.995 39.1445 144.305 39.4233C147.226 42.0516 151.12 43.3184 154.901 44.4945C168.169 48.6364 182.617 52.5516 195.722 47.9851C199.418 46.6987 203.111 44.7299 206.903 44.3424Z" fill="#5E5853"/>
<g style="mix-blend-mode:multiply" opacity="0.3">
<path d="M204.381 72.7541C202.712 75.9626 200.418 78.777 197.724 81.1782C192.97 85.4023 186.925 88.3253 180.648 89.7385C171.6 91.7915 162.127 91.019 153.047 88.9853C152.25 88.8051 151.452 88.6249 150.656 88.4266C146.849 87.4758 142.978 86.2654 140.013 83.7246C137.048 81.1929 135.196 77.0195 136.467 73.3616C136.538 73.1579 136.618 72.964 136.696 72.7791C136.75 72.9197 136.804 73.0603 136.875 73.2114C137.996 75.8726 140.399 77.8149 142.988 79.144C148.715 82.0814 155.424 82.3662 161.87 82.4579C168.068 82.5484 174.349 82.518 180.342 80.9826C189.917 78.5431 198.396 72.1799 203.331 63.7221C203.852 62.8348 204.348 61.9001 205.13 61.215C205.308 61.065 205.485 60.9241 205.678 60.8118C207.305 64.5494 206.289 69.0821 204.381 72.7541Z" fill="#DFDBD8"/>
</g>
<g style="mix-blend-mode:multiply" opacity="0.3">
<path d="M196.364 53.9573C191.853 58.7459 185.081 60.8211 178.575 62.1984C174.592 63.035 170.568 63.6864 166.521 64.1451C161.525 64.7211 156.16 64.95 151.759 62.5067C150.999 62.0838 150.247 61.5524 149.846 60.7754C149.83 60.7469 149.822 60.7281 149.815 60.7003C152.819 58.7142 155.961 56.9482 159.224 55.428C160.887 55.9757 162.596 56.3996 164.295 56.7317C174.587 58.714 185.453 57.5755 195.112 53.5871C195.527 53.7012 195.941 53.8244 196.364 53.9573Z" fill="#DFDBD8"/>
</g>
<path d="M178.692 23.6771C177.911 25.4174 177.046 27.0602 175.989 28.5517C173.968 31.5509 171.347 34.067 168.568 36.3797C165.818 38.6583 163.16 40.9531 160.276 43.3032C157.382 45.6616 154.187 47.7418 150.62 49.2657C150.134 49.4735 149.639 49.6806 149.135 49.8689C148.584 49.3712 148.062 48.8486 147.571 48.2919C148.86 47.8372 150.127 47.3081 151.373 46.6955C154.873 44.9663 158.006 42.7356 160.812 40.3249C163.617 37.9142 166.066 35.3575 168.372 32.8534C170.756 30.2826 173.072 27.8975 175.219 25.0626C175.632 24.4944 176.038 23.8893 176.429 23.2556C177.184 23.378 177.939 23.5094 178.684 23.6583L178.692 23.6771Z" fill="#877E77"/>
<path d="M185.416 25.4177C185.336 25.6207 185.255 25.8327 185.165 26.035C184.669 27.2061 184.108 28.3723 183.492 29.5342L183.01 30.3973C182.849 30.685 182.662 30.9615 182.493 31.2394L181.432 32.9125C181.102 33.4781 180.676 33.9816 180.293 34.5158L179.119 36.0983L177.85 37.6005L177.229 38.3527L176.922 38.7382L176.59 39.0945C173.136 42.9647 169.667 46.6792 165.798 50.0805C163.592 52.0103 161.243 53.7561 158.773 55.2924C157.703 54.9364 156.657 54.5186 155.633 54.0569C162.581 49.9488 168.847 44.6507 174.037 38.6141L175.253 37.2077L176.399 35.7414C177.2 34.8031 177.881 33.7554 178.605 32.7474C178.782 32.4882 178.975 32.2486 179.134 31.988L179.62 31.189L180.592 29.5999C181.211 28.5201 181.767 27.4172 182.287 26.2934C182.531 25.7666 182.756 25.2383 182.983 24.7011C183.804 24.9286 184.615 25.1645 185.415 25.4268L185.416 25.4177Z" fill="#877E77"/>
<path d="M157.411 27.3715C155.528 26.7978 153.449 27.4548 152.259 28.9996C151.859 29.5234 152.013 30.3904 152.576 30.7434C153.174 31.1173 153.912 30.9837 154.343 30.4259C154.363 30.4002 154.393 30.3752 154.414 30.3405C154.535 30.2134 154.672 30.1058 154.809 30.0073C154.973 29.9109 155.136 29.8326 155.316 29.7648C155.504 29.7157 155.701 29.6764 155.906 29.6559C156.09 29.6521 156.283 29.667 156.465 29.6994C156.492 29.7015 156.519 29.7127 156.546 29.7239C156.87 29.8218 157.22 29.8218 157.527 29.6728C157.805 29.5397 158.075 29.2606 158.162 28.9762C158.358 28.3547 158.077 27.578 157.402 27.3708L157.411 27.3715Z" fill="white"/>
<path d="M195.857 67.8957L195.616 67.6768C195.422 67.5526 195.217 67.473 194.988 67.4552C194.876 67.4647 194.765 67.4652 194.645 67.474C194.429 67.5209 194.229 67.6054 194.061 67.747L193.282 68.405C193.154 68.5043 193.052 68.6328 192.985 68.7822C192.891 68.9205 192.842 69.0804 192.838 69.2529C192.825 69.4246 192.839 69.5895 192.911 69.7406C192.954 69.8986 193.026 70.0406 193.145 70.1591C193.223 70.2288 193.31 70.2992 193.387 70.3779C193.58 70.5021 193.786 70.5818 194.015 70.5996C194.126 70.59 194.237 70.5895 194.357 70.5807C194.573 70.5338 194.773 70.4493 194.941 70.3077C195.198 70.0911 195.454 69.8746 195.721 69.6497C195.848 69.5505 195.95 69.4219 196.017 69.2725C196.111 69.1343 196.16 68.9744 196.164 68.8019C196.178 68.6301 196.163 68.4652 196.092 68.3141C196.049 68.1562 195.977 68.0141 195.857 67.8957Z" fill="white"/>
<g style="mix-blend-mode:multiply" opacity="0.8" clip-path="url(#clip4_31468_10994)">
<path d="M180.917 71.9783C181.867 70.8635 182.553 69.5366 182.844 68.1045L176.887 68.1045C176.56 68.9381 175.696 69.5613 174.775 69.5613L163.997 69.5613L163.646 71.98L180.917 71.98L180.917 71.9783Z" fill="#DFDBD8"/>
<path d="M168.378 62.0357L169.376 62.4287L181.541 62.4287C180.318 60.9456 178.416 60.0166 176.158 60.0166L166.396 60.0166C166.73 60.939 167.436 61.6641 168.38 62.0357L168.378 62.0357Z" fill="#DFDBD8"/>
<path d="M169.231 63.3281L168.134 63.7162C167.075 64.0911 166.152 64.826 165.551 65.76L175.324 65.76C176.24 65.76 176.921 66.3766 177.013 67.2036L182.973 67.2036C183.094 65.7715 182.79 64.4429 182.159 63.3298L169.231 63.3298L169.231 63.3281Z" fill="#DFDBD8"/>
<path d="M163.518 72.8779L163.202 75.0615L163.166 75.3015L173.944 75.3015C176.208 75.3015 178.387 74.3676 180.04 72.8779L163.518 72.8779Z" fill="#DFDBD8"/>
<path d="M168.604 78.6734L168.962 76.2021L163.035 76.2021L162.678 78.6734L168.604 78.6734Z" fill="#DFDBD8"/>
<path d="M162.548 79.5732L162.197 82.0001L168.124 82.0001L168.475 79.5732L162.548 79.5732Z" fill="#DFDBD8"/>
<path d="M167.925 62.8758C166.643 62.371 165.709 61.317 165.379 60C164.668 61.317 163.43 62.371 162 62.8758C163.284 63.3806 164.217 64.4362 164.546 65.7516C165.257 64.4345 166.495 63.3806 167.925 62.8758Z" fill="#DFDBD8"/>
<path d="M165.379 60C165.709 61.317 166.643 62.371 167.925 62.8758C166.495 63.3806 165.257 64.4362 164.546 65.7516C164.216 64.4345 163.282 63.3806 162 62.8758C163.43 62.371 164.668 61.317 165.379 60Z" fill="#DFDBD8"/>
</g>
</g>
<g clip-path="url(#clip5_31468_10994)">
<path d="M192.93 14.7401L192.896 14.9852C192.228 19.472 188.53 22.7196 184.508 25.1299C183.764 25.5792 183.013 25.9945 182.256 26.3894C180.383 27.3699 178.447 28.3026 176.361 28.6703C172.697 29.3171 168.827 28.112 165.92 25.8243C164.963 25.0754 164.102 24.2107 163.338 23.2711C161.781 21.3511 160.624 19.0907 159.867 16.7418C159.481 15.5503 159.192 14.3179 159.068 13.072C159.013 12.5341 158.992 11.9962 159.006 11.4584C159.109 7.61836 161.175 3.88049 164.398 1.73581C168.193 -0.803764 171.072 -0.0548275 174.797 0.837087C179.177 1.87879 183.082 1.17751 187.159 3.78517C190.844 6.14773 193.461 10.4507 192.937 14.7401L192.93 14.7401Z" fill="#65657A"/>
<g style="mix-blend-mode:multiply" opacity="0.5">
<path d="M192.931 14.7403L192.896 14.9855C192.228 19.4723 188.53 22.7199 184.508 25.1301C183.764 25.5795 183.014 25.9948 182.256 26.3897C180.383 27.3701 178.448 28.3029 176.361 28.6706C172.697 29.3174 168.827 28.1123 165.921 25.8246C164.963 25.0757 164.103 24.211 163.338 23.2714C161.782 21.3514 160.625 19.091 159.867 16.7421C159.482 15.5506 159.192 14.3182 159.068 13.0723C161.052 17.171 164.585 20.3369 169.378 21.5489C176.161 23.2646 183.489 20.9225 189.136 16.8306C190.3 15.9863 191.471 15.0467 192.882 14.7472C192.896 14.7472 192.917 14.7403 192.931 14.7403Z" fill="#65657A"/>
</g>
<g style="mix-blend-mode:multiply" opacity="0.3">
<path d="M190.875 27.2005C190.834 27.466 190.523 28.0629 190.344 28.2671C189.194 29.6016 188.359 29.624 186.692 30.23C183.118 31.544 179.255 32.3815 175.488 31.8164C173.311 31.4896 171.239 30.7066 169.179 29.9236C166.845 29.0385 164.379 28.0581 162.857 26.0904C162.21 25.2598 160.693 24.1908 160.872 23.1696C161.333 23.1968 162.782 22.8993 163.25 22.9334C164.015 23.8798 164.958 25.0691 165.915 25.8181C168.828 28.1125 172.692 29.3176 176.355 28.664C178.442 28.2964 180.384 27.3636 182.25 26.3832C183.001 25.9883 183.756 25.5165 184.5 25.0671C187.156 25.6005 185.912 25.5891 188.219 26.1338C188.267 26.27 190.896 27.0575 190.875 27.2005Z" fill="#6C655F"/>
</g>
<path d="M168.159 2.41708C168.111 2.3558 168.063 2.28772 168.008 2.22644C167.891 2.1107 167.746 2.029 167.588 1.98814L167.333 1.9541C167.161 1.9541 167.002 1.99495 166.851 2.08346L166.045 2.62814C165.935 2.68942 165.845 2.77112 165.776 2.87325C165.694 2.96176 165.639 3.0707 165.604 3.19325C165.563 3.3158 165.556 3.44517 165.59 3.56772C165.59 3.69027 165.632 3.80602 165.701 3.91495L165.852 4.10559C165.969 4.22134 166.114 4.30304 166.272 4.34389C166.355 4.35751 166.437 4.36431 166.527 4.37793C166.699 4.37793 166.858 4.33708 167.009 4.24857L167.815 3.70389C167.925 3.64261 168.015 3.56091 168.083 3.45878C168.166 3.37027 168.221 3.26134 168.256 3.13878C168.297 3.01623 168.304 2.88687 168.269 2.76431C168.269 2.64176 168.228 2.52602 168.159 2.41708Z" fill="white"/>
<g style="mix-blend-mode:multiply" opacity="0.4" clip-path="url(#clip6_31468_10994)">
<path d="M184 9.07271L171 8.3568V7.71591L184 7V9.07271Z" fill="#65657A"/>
<path d="M184 12.0571L171 11.3412V10.7016L184 9.98438V12.0571Z" fill="#65657A"/>
<path d="M180.739 15.0415L171 14.3269V13.6873L180.739 12.9727V15.0415Z" fill="#65657A"/>
<path d="M180.739 18.0256L171 17.3123V16.6726L180.739 15.958V18.0256Z" fill="#65657A"/>
<path d="M177.5 21.0141L171 20.2982V19.6573L177.5 18.9414V21.0141Z" fill="#65657A"/>
<path d="M177.5 24.0004L171 23.2845V22.6436L177.5 21.9277V24.0004Z" fill="#65657A"/>
</g>
</g>
<defs>
<radialGradient id="paint0_radial_31468_10994" cx="0" cy="0" r="1" gradientUnits="userSpaceOnUse" gradientTransform="translate(155.5 282) rotate(90) scale(23 155.5)">
<stop stop-color="#C0C0CA"/>
<stop offset="1" stop-color="#D9D9D9" stop-opacity="0"/>
</radialGradient>
<clipPath id="clip0_31468_10994">
<rect width="31" height="36" fill="white" transform="translate(137 172)"/>
</clipPath>
<clipPath id="clip1_31468_10994">
<rect width="24" height="17" fill="white" transform="translate(155 111)"/>
</clipPath>
<clipPath id="clip2_31468_10994">
<rect width="33" height="29" fill="white" transform="translate(154 141)"/>
</clipPath>
<clipPath id="clip3_31468_10994">
<rect width="69.4369" height="68.3686" fill="white" transform="translate(140.352 20.2969) rotate(4.44358)"/>
</clipPath>
<clipPath id="clip4_31468_10994">
<rect width="21" height="22" fill="white" transform="translate(162 60)"/>
</clipPath>
<clipPath id="clip5_31468_10994">
<rect width="34" height="32" fill="white" transform="translate(159)"/>
</clipPath>
<clipPath id="clip6_31468_10994">
<rect width="13" height="17" fill="white" transform="translate(171 7)"/>
</clipPath>
</defs>
</svg>
