<svg width="2117" height="290" viewBox="0 0 2117 290" fill="none" xmlns="http://www.w3.org/2000/svg">
<rect width="2117" height="290" fill="url(#paint0_linear_21668_2855)"/>
<rect width="2117" height="290" fill="url(#paint1_linear_21668_2855)"/>
<rect width="2117" height="290" fill="url(#paint2_radial_21668_2855)"/>
<rect width="2117" height="290" fill="url(#paint3_linear_21668_2855)"/>
<rect width="2117" height="290" fill="url(#paint4_linear_21668_2855)"/>
<mask id="mask0_21668_2855" style="mask-type:alpha" maskUnits="userSpaceOnUse" x="682" y="0" width="1061" height="285">
<rect x="682" width="1061" height="285" fill="#C4C4C4"/>
</mask>
<g mask="url(#mask0_21668_2855)">
<circle cx="1404.89" cy="-45.8901" r="255.703" transform="rotate(-106.236 1404.89 -45.8901)" fill="url(#paint5_radial_21668_2855)"/>
<mask id="mask1_21668_2855" style="mask-type:alpha" maskUnits="userSpaceOnUse" x="1149" y="-302" width="512" height="512">
<circle cx="1404.89" cy="-45.8901" r="255.703" transform="rotate(-106.236 1404.89 -45.8901)" fill="url(#paint6_radial_21668_2855)"/>
</mask>
<g mask="url(#mask1_21668_2855)">
<path d="M1494.65 -63.243C1432.58 -215.783 1586.61 -262.459 1644.79 -169.965C1678.57 -99.3428 1761.82 78.0173 1621.04 155.917C1445.06 253.292 1257.01 330.08 1285.47 216.239C1326.37 52.6398 1548.37 68.7854 1494.65 -63.243Z" fill="url(#paint7_radial_21668_2855)"/>
<path d="M1494.65 -63.243C1432.58 -215.783 1586.61 -262.459 1644.79 -169.965C1678.57 -99.3428 1761.82 78.0173 1621.04 155.917C1445.06 253.292 1257.01 330.08 1285.47 216.239C1326.37 52.6398 1548.37 68.7854 1494.65 -63.243Z" fill="url(#paint8_radial_21668_2855)"/>
<path d="M1285.47 -5.30039C1325.42 94.381 1239.16 215.993 1049.55 89.988C915.903 2.76868 1131.61 -357.043 1317.6 -301.161C1461.42 -257.953 1408.77 -161.288 1339.59 -133.646C1279.23 -109.527 1245.53 -104.982 1285.47 -5.30039Z" fill="url(#paint9_radial_21668_2855)"/>
<path d="M1285.47 -5.30039C1325.42 94.381 1239.16 215.993 1049.55 89.988C915.903 2.76868 1131.61 -357.043 1317.6 -301.161C1461.42 -257.953 1408.77 -161.288 1339.59 -133.646C1279.23 -109.527 1245.53 -104.982 1285.47 -5.30039Z" fill="url(#paint10_radial_21668_2855)" fill-opacity="0.5"/>
</g>
<circle cx="1404.89" cy="-45.8899" r="255.703" transform="rotate(-4.73629 1404.89 -45.8899)" fill="url(#paint11_radial_21668_2855)" fill-opacity="0.75"/>
<circle cx="1404.89" cy="-45.8899" r="255.703" transform="rotate(-4.73629 1404.89 -45.8899)" fill="url(#paint12_radial_21668_2855)"/>
<circle cx="1404.89" cy="-45.8899" r="255.703" transform="rotate(-4.73629 1404.89 -45.8899)" fill="url(#paint13_radial_21668_2855)"/>
<circle cx="1404.89" cy="-45.8899" r="255.703" transform="rotate(-4.73629 1404.89 -45.8899)" fill="url(#paint14_radial_21668_2855)"/>
</g>
<mask id="mask2_21668_2855" style="mask-type:alpha" maskUnits="userSpaceOnUse" x="1039" y="107" width="626" height="178">
<rect x="1039" y="107" width="626" height="178" fill="#C4C4C4"/>
</mask>
<g mask="url(#mask2_21668_2855)">
<path opacity="0.5" d="M1127.94 189.149C1171.75 237.654 1227.55 273.79 1289.75 293.927C1351.94 314.063 1418.34 317.49 1482.26 303.862C1546.18 290.235 1605.37 260.033 1653.89 216.293" stroke="url(#paint15_linear_21668_2855)" stroke-width="7.47213"/>
<rect x="1131.55" y="199.716" width="8.68988" height="7.37729" rx="2.63147" transform="rotate(-44.2754 1131.55 199.716)" fill="#F5762E"/>
<rect width="7.65848" height="1.45846" transform="matrix(0.733805 -0.67936 0.673899 0.738824 1120.22 199.053)" fill="#FA6D1D"/>
<rect width="7.65848" height="1.45846" transform="matrix(0.733805 -0.67936 0.673899 0.738824 1133.14 187.097)" fill="#FA6D1D"/>
<rect x="1087.63" y="217.863" width="38.2246" height="18.2243" rx="1.00998" transform="rotate(-42.7936 1087.63 217.863)" fill="#FB9D5A"/>
<rect x="1131.43" y="177.309" width="38.2246" height="18.2243" rx="1.00998" transform="rotate(-42.7936 1131.43 177.309)" fill="#FB9D5A"/>
<path d="M1121.32 192.987C1118.57 190.014 1118.75 185.373 1121.72 182.62V182.62C1124.69 179.868 1129.34 180.047 1132.09 183.02L1139.76 191.301C1141.46 193.143 1141.35 196.018 1139.51 197.724L1135.41 201.516C1133.57 203.221 1130.69 203.11 1128.99 201.269L1121.32 192.987Z" fill="url(#paint16_linear_21668_2855)"/>
<rect width="7.65848" height="2.32873" rx="0.302993" transform="matrix(0.733805 -0.67936 0.673899 0.738824 1109.73 212.474)" fill="#FFE589"/>
<rect width="7.65848" height="2.32873" rx="0.302993" transform="matrix(0.733805 -0.67936 0.673899 0.738824 1153.53 171.926)" fill="#FFE589"/>
<rect width="7.65848" height="2.32873" rx="0.302993" transform="matrix(0.733805 -0.67936 0.673899 0.738824 1116.42 206.289)" fill="#FA6D1D"/>
<rect width="7.65848" height="2.32873" rx="0.302993" transform="matrix(0.733805 -0.67936 0.673899 0.738824 1160.22 165.736)" fill="#FFE589"/>
<rect width="7.65848" height="2.32873" rx="0.302993" transform="matrix(0.733805 -0.67936 0.673899 0.738824 1111.9 214.819)" fill="#FFE589"/>
<rect width="7.65848" height="2.32873" rx="0.302993" transform="matrix(0.733805 -0.67936 0.673899 0.738824 1155.71 174.268)" fill="#FFE589"/>
<rect width="7.65848" height="2.32873" rx="0.302993" transform="matrix(0.733805 -0.67936 0.673899 0.738824 1118.59 208.63)" fill="#FFE589"/>
<rect width="7.65848" height="2.32873" rx="0.302993" transform="matrix(0.733805 -0.67936 0.673899 0.738824 1162.39 168.077)" fill="#FFE589"/>
<rect width="7.65848" height="2.32873" rx="0.302993" transform="matrix(0.733805 -0.67936 0.673899 0.738824 1107.59 210.158)" fill="#FA6D1D"/>
<rect width="7.65848" height="2.32873" rx="0.302993" transform="matrix(0.733805 -0.67936 0.673899 0.738824 1151.39 169.606)" fill="#FFE589"/>
<rect width="7.65848" height="2.32873" rx="0.302993" transform="matrix(0.733805 -0.67936 0.673899 0.738824 1105.45 207.844)" fill="#FA6D1D"/>
<rect width="7.65848" height="2.32873" rx="0.302993" transform="matrix(0.733805 -0.67936 0.673899 0.738824 1149.25 167.291)" fill="#FA6D1D"/>
<rect width="7.72251" height="2.34821" rx="0.302993" transform="matrix(0.733805 -0.67936 0.673899 0.738824 1114.27 203.97)" fill="#FA6D1D"/>
<rect width="7.72251" height="2.34821" rx="0.302993" transform="matrix(0.733805 -0.67936 0.673899 0.738824 1158.07 163.416)" fill="#FFE589"/>
<rect width="7.65848" height="2.32873" rx="0.302993" transform="matrix(0.733805 -0.67936 0.673899 0.738824 1103.3 205.527)" fill="#FA6D1D"/>
<rect width="7.65848" height="2.32873" rx="0.302993" transform="matrix(0.733805 -0.67936 0.673899 0.738824 1147.1 164.974)" fill="#FA6D1D"/>
<rect width="7.65848" height="2.32873" rx="0.302993" transform="matrix(0.733805 -0.67936 0.673899 0.738824 1112.13 201.65)" fill="#FA6D1D"/>
<rect width="7.65848" height="2.32873" rx="0.302993" transform="matrix(0.733805 -0.67936 0.673899 0.738824 1155.93 161.099)" fill="#FFE589"/>
<rect width="7.65848" height="2.32873" rx="0.302993" transform="matrix(0.733805 -0.67936 0.673899 0.738824 1109.99 199.333)" fill="#FA6D1D"/>
<rect width="7.65848" height="2.32873" rx="0.302993" transform="matrix(0.733805 -0.67936 0.673899 0.738824 1153.79 158.785)" fill="#FFE589"/>
<rect width="7.65848" height="2.32873" rx="0.302993" transform="matrix(0.733805 -0.67936 0.673899 0.738824 1096.35 224.866)" fill="#FA6D1D"/>
<rect width="7.65848" height="2.32873" rx="0.302993" transform="matrix(0.733805 -0.67936 0.673899 0.738824 1140.15 184.315)" fill="#FFE589"/>
<rect width="7.65848" height="2.32873" rx="0.302993" transform="matrix(0.733805 -0.67936 0.673899 0.738824 1103.04 218.675)" fill="#FFE589"/>
<rect width="7.65848" height="2.32873" rx="0.302993" transform="matrix(0.733805 -0.67936 0.673899 0.738824 1146.84 178.122)" fill="#FA6D1D"/>
<rect width="7.65848" height="2.32873" rx="0.302993" transform="matrix(0.733805 -0.67936 0.673899 0.738824 1098.52 227.208)" fill="#FFE589"/>
<rect width="7.65848" height="2.32873" rx="0.302993" transform="matrix(0.733805 -0.67936 0.673899 0.738824 1142.32 186.657)" fill="#FFE589"/>
<rect width="7.65848" height="2.32873" rx="0.302993" transform="matrix(0.733805 -0.67936 0.673899 0.738824 1105.21 221.02)" fill="#FFE589"/>
<rect width="7.65848" height="2.32873" rx="0.302993" transform="matrix(0.733805 -0.67936 0.673899 0.738824 1149.01 180.466)" fill="#FFE589"/>
<rect width="7.65848" height="2.32873" rx="0.302993" transform="matrix(0.733805 -0.67936 0.673899 0.738824 1094.2 222.55)" fill="#FA6D1D"/>
<rect width="7.65848" height="2.32873" rx="0.302993" transform="matrix(0.733805 -0.67936 0.673899 0.738824 1138.01 181.996)" fill="#FA6D1D"/>
<rect width="7.65848" height="2.32873" rx="0.302993" transform="matrix(0.733805 -0.67936 0.673899 0.738824 1092.06 220.233)" fill="#FA6D1D"/>
<rect width="7.65848" height="2.32873" rx="0.302993" transform="matrix(0.733805 -0.67936 0.673899 0.738824 1135.86 179.679)" fill="#FA6D1D"/>
<rect width="7.72251" height="2.34821" rx="0.302993" transform="matrix(0.733805 -0.67936 0.673899 0.738824 1100.89 216.361)" fill="#FFE589"/>
<rect width="7.72251" height="2.34821" rx="0.302993" transform="matrix(0.733805 -0.67936 0.673899 0.738824 1144.69 175.808)" fill="#FA6D1D"/>
<rect width="7.65848" height="2.32873" rx="0.302993" transform="matrix(0.733805 -0.67936 0.673899 0.738824 1089.92 217.916)" fill="#FA6D1D"/>
<rect width="7.65848" height="2.32873" rx="0.302993" transform="matrix(0.733805 -0.67936 0.673899 0.738824 1133.72 177.365)" fill="#FA6D1D"/>
<rect width="7.65848" height="2.32873" rx="0.302993" transform="matrix(0.733805 -0.67936 0.673899 0.738824 1098.75 214.045)" fill="#FA6D1D"/>
<rect width="7.65848" height="2.32873" rx="0.302993" transform="matrix(0.733805 -0.67936 0.673899 0.738824 1142.55 173.491)" fill="#FA6D1D"/>
<rect width="7.65848" height="2.32873" rx="0.302993" transform="matrix(0.733805 -0.67936 0.673899 0.738824 1096.6 211.723)" fill="#FA6D1D"/>
<rect width="7.65848" height="2.32873" rx="0.302993" transform="matrix(0.733805 -0.67936 0.673899 0.738824 1140.4 171.174)" fill="#FA6D1D"/>
<path d="M1126.74 169.398C1127.46 170.183 1127.94 171.184 1128.15 172.343C1128.35 173.502 1128.27 174.797 1127.92 176.153C1127.57 177.51 1126.95 178.901 1126.1 180.249C1125.24 181.596 1124.18 182.873 1122.95 184.006C1121.73 185.14 1120.37 186.107 1118.96 186.854C1117.55 187.6 1116.12 188.111 1114.74 188.358C1113.36 188.604 1112.06 188.58 1110.92 188.289C1109.78 187.997 1108.82 187.443 1108.1 186.658L1117.42 178.028L1126.74 169.398Z" fill="#EF5B3E"/>
<path d="M1126.74 169.399C1127.47 170.184 1127.94 171.185 1128.15 172.344C1128.35 173.503 1128.27 174.797 1127.92 176.154C1127.57 177.51 1126.95 178.902 1126.1 180.249C1125.24 181.597 1124.18 182.874 1122.95 184.007C1121.73 185.14 1120.37 186.108 1118.96 186.854C1117.55 187.601 1116.12 188.112 1114.74 188.358C1113.36 188.605 1112.06 188.581 1110.92 188.29C1109.78 187.998 1108.82 187.444 1108.1 186.659C1108.1 186.659 1114.29 185.169 1119.54 180.317C1124.78 175.464 1126.74 169.399 1126.74 169.399Z" fill="#FB9D5A"/>
<path d="M1122.12 175.467L1112.28 172.42L1114.56 182.463" stroke="#F3C001" stroke-width="0.908979"/>
<circle cx="1112.38" cy="172.535" r="1.46721" transform="rotate(-42.7936 1112.38 172.535)" fill="#F3C001"/>
<path fill-rule="evenodd" clip-rule="evenodd" d="M1088.43 218.657C1088.05 218.247 1088.07 217.608 1088.48 217.229L1115.05 192.633C1115.46 192.254 1116.1 192.279 1116.48 192.688L1121.46 198.068L1123.95 195.761L1121.43 193.04C1119.77 191.243 1119.17 188.838 1119.62 186.607C1119.44 186.712 1119.26 186.812 1119.07 186.909C1117.67 187.656 1116.23 188.167 1114.85 188.413C1113.47 188.66 1112.17 188.636 1111.03 188.345C1109.89 188.053 1108.93 187.499 1108.21 186.714L1108.21 186.713L1108.21 186.71L1113.95 181.395L1112.28 174.037C1111.96 173.99 1111.65 173.838 1111.41 173.582C1110.86 172.987 1110.9 172.059 1111.49 171.509C1112.09 170.958 1113.02 170.994 1113.57 171.589C1113.8 171.844 1113.93 172.162 1113.96 172.485L1121.16 174.716L1126.85 169.451C1127.58 170.236 1128.05 171.236 1128.26 172.395C1128.31 172.706 1128.35 173.026 1128.36 173.355C1128.4 174.254 1128.29 175.215 1128.03 176.209C1127.68 177.565 1127.06 178.957 1126.21 180.304C1126.11 180.463 1126 180.62 1125.9 180.777C1128.16 180.494 1130.53 181.27 1132.2 183.073L1134.71 185.792L1137.21 183.484L1132.23 178.106C1131.85 177.696 1131.87 177.057 1132.28 176.678L1158.85 152.082C1159.26 151.703 1159.9 151.728 1160.28 152.137L1171.29 164.028C1171.67 164.437 1171.64 165.076 1171.23 165.455L1144.66 190.051C1144.25 190.43 1143.62 190.406 1143.24 189.996L1138.2 184.554L1135.7 186.862L1139.86 191.354C1141.57 193.196 1141.46 196.071 1139.62 197.777L1135.52 201.569C1133.68 203.274 1130.8 203.163 1129.1 201.321L1124.94 196.832L1122.45 199.138L1127.49 204.579C1127.86 204.988 1127.84 205.627 1127.43 206.006L1100.86 230.602C1100.45 230.981 1099.81 230.957 1099.44 230.547L1088.43 218.657ZM1114.72 180.682L1113.17 173.884C1113.29 173.825 1113.39 173.751 1113.49 173.662C1113.58 173.573 1113.67 173.473 1113.73 173.367L1120.39 175.429L1117.53 178.081L1114.72 180.682Z" fill="url(#paint17_linear_21668_2855)" fill-opacity="0.4"/>
<path d="M1134.44 187.091C1134.27 186.947 1134.07 186.767 1133.79 186.619C1133.54 186.454 1133.23 186.305 1132.87 186.172C1132.51 186.039 1132.12 185.939 1131.69 185.873C1131.53 185.85 1131.34 185.827 1131.15 185.838C1130.76 185.13 1129.99 184.949 1129.99 184.949C1129.41 185.417 1129.23 185.95 1129.21 186.175C1129.19 186.192 1129.15 186.19 1129.1 186.206C1128.98 186.254 1128.85 186.302 1128.71 186.367C1128.57 186.432 1128.46 186.498 1128.32 186.563C1128.2 186.646 1128.07 186.729 1127.96 186.795C1127.95 186.812 1127.93 186.828 1127.91 186.845C1126.98 186.311 1125.99 186.627 1125.99 186.627C1125.68 187.816 1126.15 188.613 1126.15 188.613C1126.15 188.613 1126.17 188.631 1126.19 188.649C1126.17 188.7 1126.11 188.751 1126.09 188.802C1126.06 188.87 1126.02 188.939 1125.96 189.024C1125.93 189.092 1125.89 189.16 1125.85 189.263C1125.79 189.418 1125.71 189.589 1125.66 189.744C1125.6 189.898 1125.56 190.07 1125.51 190.243C1125.5 190.26 1125.48 190.242 1125.48 190.242C1124.05 190.838 1123.56 192.195 1123.56 192.195C1124.5 193.39 1125.67 193.636 1125.9 193.661C1125.95 193.749 1125.98 193.855 1126.03 193.943C1126.19 194.261 1126.37 194.597 1126.58 194.899C1126.61 194.935 1126.63 194.988 1126.66 195.024C1126.14 196.414 1126.76 197.668 1126.76 197.668C1128.44 197.844 1129.45 197.008 1129.45 197.008C1129.78 197.105 1130.09 197.185 1130.43 197.231C1130.57 197.235 1130.73 197.258 1130.85 197.279C1131.34 198.39 1132.32 198.786 1132.32 198.786C1133.25 197.983 1133.45 196.998 1133.47 196.773C1133.6 196.725 1133.7 196.659 1133.83 196.611C1134.17 196.431 1134.49 196.198 1134.79 195.947C1134.87 195.88 1134.94 195.813 1135.01 195.746L1135.05 195.712L1135.06 195.695L1135.1 195.662L1135.14 195.628C1136.14 195.834 1136.96 195.236 1136.96 195.236C1136.98 194.176 1136.49 193.604 1136.37 193.479C1136.35 193.461 1136.35 193.461 1136.35 193.461L1136.34 193.443C1136.38 193.271 1136.4 193.08 1136.43 192.89C1136.46 192.491 1136.44 192.108 1136.39 191.724C1136.39 191.69 1136.39 191.655 1136.36 191.619C1137 191.084 1137.04 190.286 1137.04 190.286C1136.35 189.76 1135.7 189.791 1135.58 189.804C1135.58 189.804 1135.58 189.804 1135.56 189.821C1135.53 189.785 1135.49 189.749 1135.46 189.714C1135.39 189.642 1135.33 189.57 1135.28 189.516L1135.19 189.427L1135.18 189.409L1135.16 189.391C1135.14 189.373 1135.14 189.373 1135.14 189.373L1135.11 189.337L1135.06 189.284C1135.04 189.266 1135.03 189.248 1135.01 189.23C1134.99 189.212 1134.98 189.194 1134.96 189.176L1134.91 189.122L1134.86 189.069C1134.78 189.014 1134.71 188.942 1134.64 188.905C1134.32 188.703 1134 188.537 1133.63 188.438C1133.27 188.339 1132.93 188.294 1132.56 188.299C1132.2 188.305 1131.86 188.381 1131.53 188.492C1131.19 188.602 1130.91 188.767 1130.62 188.966C1130.48 189.066 1130.37 189.166 1130.25 189.284L1130.21 189.318L1130.19 189.334L1130.17 189.351L1130.16 189.368L1130.12 189.402C1130.1 189.418 1130.08 189.435 1130.07 189.452C1130.01 189.502 1129.96 189.587 1129.9 189.638C1129.7 189.892 1129.55 190.2 1129.47 190.51C1129.38 190.82 1129.34 191.131 1129.34 191.427C1129.35 191.722 1129.42 192.02 1129.53 192.284C1129.65 192.549 1129.79 192.779 1129.96 192.993C1130.01 193.047 1130.04 193.083 1130.09 193.136C1130.11 193.154 1130.11 193.154 1130.12 193.172L1130.16 193.208C1130.17 193.226 1130.21 193.262 1130.22 193.28C1130.33 193.353 1130.44 193.443 1130.55 193.516C1130.77 193.645 1131.01 193.722 1131.23 193.782C1131.47 193.824 1131.7 193.814 1131.91 193.786C1132.12 193.758 1132.33 193.695 1132.51 193.597C1132.68 193.498 1132.83 193.399 1132.97 193.265C1132.99 193.248 1133.01 193.231 1133.03 193.214L1133.04 193.197L1133.06 193.181C1133.08 193.164 1133.1 193.147 1133.1 193.147C1133.1 193.147 1133.1 193.147 1133.12 193.13L1133.13 193.113L1133.15 193.097C1133.17 193.08 1133.19 193.063 1133.21 193.046C1133.22 193.029 1133.24 193.013 1133.24 192.978C1133.28 192.944 1133.28 192.91 1133.32 192.876C1133.35 192.808 1133.39 192.739 1133.41 192.653C1133.45 192.585 1133.45 192.516 1133.47 192.429C1133.49 192.413 1133.48 192.395 1133.48 192.36C1133.5 192.274 1133.43 192.202 1133.36 192.2C1133.29 192.198 1133.22 192.23 1133.22 192.299C1133.2 192.316 1133.22 192.334 1133.2 192.351C1133.18 192.402 1133.16 192.454 1133.12 192.522C1133.1 192.574 1133.05 192.624 1133.03 192.676C1133.01 192.692 1132.98 192.726 1132.96 192.743C1132.94 192.76 1132.94 192.76 1132.92 192.776C1132.9 192.793 1132.9 192.793 1132.89 192.81C1132.87 192.827 1132.87 192.827 1132.85 192.844C1132.83 192.86 1132.81 192.877 1132.81 192.877L1132.8 192.894L1132.78 192.911C1132.76 192.927 1132.76 192.927 1132.74 192.944C1132.62 193.027 1132.51 193.093 1132.35 193.14C1132.21 193.205 1132.05 193.217 1131.9 193.23C1131.74 193.242 1131.57 193.202 1131.43 193.162C1131.29 193.123 1131.12 193.048 1130.99 192.94C1130.92 192.903 1130.85 192.831 1130.8 192.777C1130.78 192.759 1130.77 192.741 1130.75 192.723L1130.73 192.706L1130.72 192.688C1130.68 192.652 1130.65 192.616 1130.64 192.563C1130.44 192.244 1130.33 191.876 1130.35 191.459C1130.35 191.355 1130.37 191.269 1130.38 191.165C1130.4 191.079 1130.44 190.976 1130.46 190.89C1130.5 190.787 1130.55 190.701 1130.59 190.633C1130.65 190.548 1130.7 190.463 1130.77 190.396C1130.81 190.362 1130.85 190.329 1130.88 190.295C1130.9 190.278 1130.9 190.278 1130.9 190.278L1130.94 190.245L1130.96 190.228L1130.99 190.194C1131.06 190.127 1131.17 190.061 1131.26 190.012C1131.46 189.897 1131.65 189.816 1131.88 189.771C1132.32 189.664 1132.78 189.696 1133.21 189.832C1133.42 189.908 1133.62 190.019 1133.81 190.147C1133.84 190.182 1133.91 190.219 1133.94 190.255L1133.98 190.291L1134.01 190.327C1134.03 190.345 1134.03 190.345 1134.04 190.363C1134.06 190.381 1134.06 190.381 1134.08 190.399L1134.11 190.434L1134.14 190.47C1134.16 190.488 1134.19 190.524 1134.21 190.542C1134.26 190.596 1134.29 190.631 1134.33 190.702C1134.36 190.738 1134.39 190.808 1134.42 190.844C1134.46 190.88 1134.49 190.951 1134.5 191.003C1134.57 191.11 1134.62 191.233 1134.65 191.338C1134.73 191.566 1134.79 191.812 1134.83 192.074C1134.88 192.562 1134.82 193.081 1134.61 193.544C1134.52 193.766 1134.38 193.988 1134.24 194.192C1134.16 194.294 1134.07 194.378 1134 194.479L1133.98 194.496L1133.96 194.513L1133.93 194.547L1133.89 194.58L1133.87 194.597C1133.89 194.58 1133.87 194.597 1133.87 194.597C1133.82 194.647 1133.78 194.681 1133.73 194.731C1133.51 194.898 1133.28 195.047 1133.05 195.161C1132.82 195.275 1132.56 195.388 1132.31 195.45C1131.8 195.59 1131.26 195.624 1130.72 195.555C1130.46 195.529 1130.21 195.469 1129.97 195.357C1129.71 195.261 1129.47 195.149 1129.25 195.021C1129.03 194.892 1128.81 194.728 1128.64 194.549L1128.61 194.513L1128.59 194.495L1128.56 194.46L1128.46 194.352L1128.44 194.334L1128.41 194.298L1128.39 194.28C1128.38 194.263 1128.34 194.227 1128.33 194.209C1128.24 194.119 1128.16 193.995 1128.08 193.905C1128.01 193.799 1127.93 193.675 1127.87 193.568C1127.8 193.462 1127.72 193.338 1127.67 193.215C1127.56 192.985 1127.47 192.739 1127.37 192.492C1127.22 192.001 1127.13 191.512 1127.17 191.044C1127.17 190.939 1127.18 190.801 1127.2 190.68C1127.22 190.559 1127.24 190.438 1127.28 190.335C1127.31 190.214 1127.34 190.111 1127.38 190.008C1127.4 189.956 1127.42 189.905 1127.44 189.853C1127.46 189.837 1127.46 189.802 1127.48 189.785C1127.5 189.768 1127.5 189.734 1127.52 189.717C1127.56 189.614 1127.63 189.512 1127.67 189.409C1127.69 189.392 1127.69 189.358 1127.71 189.341C1127.72 189.324 1127.73 189.289 1127.74 189.272C1127.76 189.221 1127.82 189.171 1127.84 189.119C1127.85 189.102 1127.86 189.068 1127.89 189.034C1127.91 189.017 1127.93 189 1127.95 188.949C1127.97 188.932 1127.98 188.915 1128 188.864L1128.04 188.83L1128.08 188.797C1128.09 188.78 1128.11 188.763 1128.13 188.712C1128.15 188.695 1128.19 188.661 1128.19 188.627C1128.2 188.61 1128.24 188.576 1128.26 188.559C1128.28 188.543 1128.3 188.526 1128.31 188.509L1128.35 188.475L1128.37 188.459L1128.39 188.442C1128.4 188.425 1128.44 188.391 1128.46 188.375L1128.49 188.341C1128.49 188.341 1128.51 188.324 1128.49 188.341L1128.51 188.324C1128.53 188.307 1128.55 188.291 1128.57 188.274C1128.66 188.19 1128.73 188.123 1128.82 188.039C1128.98 187.888 1129.16 187.754 1129.36 187.639C1129.71 187.407 1130.1 187.246 1130.49 187.12C1130.88 186.993 1131.26 186.936 1131.63 186.931C1131.66 186.932 1131.66 186.932 1131.7 186.933C1131.73 186.934 1131.73 186.934 1131.77 186.935C1131.8 186.936 1131.85 186.921 1131.9 186.94C1131.96 186.959 1131.99 186.925 1132.04 186.944C1132.09 186.963 1132.15 186.948 1132.18 186.949C1132.36 186.954 1132.51 186.977 1132.68 187.017C1132.99 187.062 1133.3 187.142 1133.56 187.237C1133.58 187.255 1133.6 187.238 1133.61 187.256C1133.63 187.274 1133.65 187.257 1133.66 187.275C1133.7 187.276 1133.72 187.294 1133.77 187.313C1133.8 187.314 1133.82 187.332 1133.87 187.351C1133.9 187.352 1133.92 187.37 1133.97 187.389C1134.09 187.445 1134.19 187.483 1134.28 187.538C1134.43 187.63 1134.57 187.704 1134.67 187.777C1134.72 187.796 1134.79 187.798 1134.81 187.746C1134.85 187.713 1134.85 187.643 1134.82 187.607C1134.69 187.325 1134.57 187.2 1134.44 187.091Z" fill="url(#paint18_linear_21668_2855)"/>
</g>
<ellipse cx="1101.8" cy="43.798" rx="8" ry="8" transform="rotate(-15 1101.8 43.798)" fill="url(#paint19_radial_21668_2855)"/>
<ellipse cx="195.709" cy="230.709" rx="11.5" ry="11.5" transform="rotate(-30 195.709 230.709)" fill="url(#paint20_radial_21668_2855)"/>
<ellipse cx="263.971" cy="120.971" rx="31.8198" ry="31.8198" transform="rotate(-15 263.971 120.971)" fill="url(#paint21_radial_21668_2855)"/>
<ellipse cx="85.9059" cy="42.906" rx="12.9872" ry="12.9872" transform="rotate(-15 85.9059 42.906)" fill="url(#paint22_radial_21668_2855)"/>
<defs>
<linearGradient id="paint0_linear_21668_2855" x1="18.5" y1="-12.4999" x2="771" y2="290" gradientUnits="userSpaceOnUse">
<stop stop-color="#110122"/>
<stop offset="1" stop-color="#30015B"/>
</linearGradient>
<linearGradient id="paint1_linear_21668_2855" x1="960.5" y1="60" x2="1033" y2="416" gradientUnits="userSpaceOnUse">
<stop stop-color="#48008C" stop-opacity="0"/>
<stop offset="0.717436" stop-color="#A000A0"/>
<stop offset="1" stop-color="#D12D70"/>
</linearGradient>
<radialGradient id="paint2_radial_21668_2855" cx="0" cy="0" r="1" gradientUnits="userSpaceOnUse" gradientTransform="translate(1336 -12.5) rotate(90) scale(177 1292.1)">
<stop stop-color="#190031"/>
<stop offset="1" stop-color="#22004D" stop-opacity="0"/>
</radialGradient>
<linearGradient id="paint3_linear_21668_2855" x1="2129.5" y1="8.28433e-05" x2="1630" y2="215" gradientUnits="userSpaceOnUse">
<stop stop-color="#8B2836"/>
<stop offset="1" stop-color="#8B2836" stop-opacity="0"/>
</linearGradient>
<linearGradient id="paint4_linear_21668_2855" x1="1865" y1="-50.5001" x2="2127.5" y2="290" gradientUnits="userSpaceOnUse">
<stop stop-color="#C82180" stop-opacity="0"/>
<stop offset="1" stop-color="#FD723B"/>
</linearGradient>
<radialGradient id="paint5_radial_21668_2855" cx="0" cy="0" r="1" gradientUnits="userSpaceOnUse" gradientTransform="translate(1314.16 -131.547) rotate(32.4712) scale(380.551)">
<stop offset="0.602695" stop-color="#0028B5"/>
<stop offset="1" stop-color="#1A4CFF"/>
</radialGradient>
<radialGradient id="paint6_radial_21668_2855" cx="0" cy="0" r="1" gradientUnits="userSpaceOnUse" gradientTransform="translate(1314.16 -131.547) rotate(32.4712) scale(380.551)">
<stop offset="0.602695" stop-color="#0028B5"/>
<stop offset="1" stop-color="#1A4CFF"/>
</radialGradient>
<radialGradient id="paint7_radial_21668_2855" cx="0" cy="0" r="1" gradientUnits="userSpaceOnUse" gradientTransform="translate(1292.19 342.504) rotate(-67.2188) scale(608.114 583.149)">
<stop stop-color="#00A486" stop-opacity="0"/>
<stop offset="1" stop-color="#00A486"/>
</radialGradient>
<radialGradient id="paint8_radial_21668_2855" cx="0" cy="0" r="1" gradientUnits="userSpaceOnUse" gradientTransform="translate(1140.62 -295.631) rotate(51.1038) scale(566.702 437.832)">
<stop stop-color="#FFF500"/>
<stop offset="1" stop-color="#FFF500" stop-opacity="0"/>
</radialGradient>
<radialGradient id="paint9_radial_21668_2855" cx="0" cy="0" r="1" gradientUnits="userSpaceOnUse" gradientTransform="translate(1311.73 278.1) rotate(-82.0674) scale(548.331 743.618)">
<stop stop-color="#00A486" stop-opacity="0"/>
<stop offset="1" stop-color="#00A486"/>
</radialGradient>
<radialGradient id="paint10_radial_21668_2855" cx="0" cy="0" r="1" gradientUnits="userSpaceOnUse" gradientTransform="translate(1331.08 -263.241) rotate(102.732) scale(473.399 308.063)">
<stop stop-color="#FFF500"/>
<stop offset="1" stop-color="#FFF500" stop-opacity="0"/>
</radialGradient>
<radialGradient id="paint11_radial_21668_2855" cx="0" cy="0" r="1" gradientUnits="userSpaceOnUse" gradientTransform="translate(1560.03 172.408) rotate(-125.484) scale(532.411)">
<stop offset="0.921191" stop-color="#B363FF" stop-opacity="0"/>
<stop offset="1" stop-color="#921FFF"/>
</radialGradient>
<radialGradient id="paint12_radial_21668_2855" cx="0" cy="0" r="1" gradientUnits="userSpaceOnUse" gradientTransform="translate(1509.13 -359.847) rotate(103.664) scale(617.805)">
<stop offset="0.821907" stop-color="#BA26FF" stop-opacity="0"/>
<stop offset="1" stop-color="#B923FF"/>
</radialGradient>
<radialGradient id="paint13_radial_21668_2855" cx="0" cy="0" r="1" gradientUnits="userSpaceOnUse" gradientTransform="translate(1183.53 -199.802) rotate(31.1235) scale(527.917)">
<stop offset="0.804113" stop-color="#FC6AFF" stop-opacity="0"/>
<stop offset="0.945321" stop-color="#FF6E30"/>
</radialGradient>
<radialGradient id="paint14_radial_21668_2855" cx="0" cy="0" r="1" gradientUnits="userSpaceOnUse" gradientTransform="translate(1187.21 -191.831) rotate(30.4895) scale(520.887)">
<stop offset="0.951401" stop-color="#FF9900" stop-opacity="0"/>
<stop offset="1" stop-color="#FFF500"/>
</radialGradient>
<linearGradient id="paint15_linear_21668_2855" x1="1140.5" y1="202.959" x2="1664.73" y2="220.446" gradientUnits="userSpaceOnUse">
<stop stop-color="#FF7D41"/>
<stop offset="0.0779766" stop-color="#FF8E44" stop-opacity="0.6"/>
<stop offset="1" stop-color="#FC5E63" stop-opacity="0"/>
</linearGradient>
<linearGradient id="paint16_linear_21668_2855" x1="1134.89" y1="184.057" x2="1120.46" y2="192.052" gradientUnits="userSpaceOnUse">
<stop stop-color="#FB9D5A"/>
<stop offset="1" stop-color="#FD6F42"/>
</linearGradient>
<linearGradient id="paint17_linear_21668_2855" x1="1167.49" y1="158.799" x2="1093.55" y2="223.226" gradientUnits="userSpaceOnUse">
<stop stop-color="#FFE600"/>
<stop offset="0.487671" stop-color="#FFA113"/>
<stop offset="1" stop-color="#D233A6"/>
</linearGradient>
<linearGradient id="paint18_linear_21668_2855" x1="1129.02" y1="199.31" x2="1136.15" y2="188.574" gradientUnits="userSpaceOnUse">
<stop stop-color="#FFF100"/>
<stop offset="1" stop-color="#FFFEF9"/>
</linearGradient>
<radialGradient id="paint19_radial_21668_2855" cx="0" cy="0" r="1" gradientUnits="userSpaceOnUse" gradientTransform="translate(1097.7 40.077) rotate(33.3391) scale(13.5247)">
<stop offset="0.594625" stop-color="#523379"/>
<stop offset="1" stop-color="#F0F4F9"/>
</radialGradient>
<radialGradient id="paint20_radial_21668_2855" cx="0" cy="0" r="1" gradientUnits="userSpaceOnUse" gradientTransform="translate(189.826 225.36) rotate(33.3391) scale(19.4418)">
<stop offset="0.594625" stop-color="#46180A"/>
<stop offset="1" stop-color="#FF9C28"/>
</radialGradient>
<radialGradient id="paint21_radial_21668_2855" cx="0" cy="0" r="1" gradientUnits="userSpaceOnUse" gradientTransform="translate(247.691 106.171) rotate(33.3391) scale(53.7941)">
<stop offset="0.594625" stop-color="#540E41"/>
<stop offset="1" stop-color="#FC6C39"/>
</radialGradient>
<radialGradient id="paint22_radial_21668_2855" cx="0" cy="0" r="1" gradientUnits="userSpaceOnUse" gradientTransform="translate(79.2614 36.8654) rotate(33.3391) scale(21.9559)">
<stop offset="0.594625" stop-color="#3C0F60"/>
<stop offset="1" stop-color="#D113F0"/>
</radialGradient>
</defs>
</svg>
