<svg width="727" height="869" viewBox="0 0 727 869" fill="none" xmlns="http://www.w3.org/2000/svg">
<g clip-path="url(#clip0)">
<path d="M152.71 512.84C103.06 512.84 62.6699 472.45 62.6699 422.8C62.6699 373.15 103.06 332.76 152.71 332.76C202.36 332.76 242.75 373.15 242.75 422.8C242.75 472.45 202.35 512.84 152.71 512.84Z" fill="#F7F8FA"/>
<path d="M304.799 574.9C220.929 574.9 152.699 506.67 152.699 422.8C152.699 338.93 220.929 270.7 304.799 270.7C388.669 270.7 456.899 338.93 456.899 422.8C456.899 506.67 388.669 574.9 304.799 574.9Z" stroke="#E9EDF2" stroke-width="4" stroke-miterlimit="10"/>
<path d="M564.341 868.35C563.591 868.35 562.831 868.06 562.261 867.49C561.111 866.34 561.111 864.48 562.261 863.33L576.561 849.03C577.661 847.93 579.621 847.93 580.721 849.03L589.761 858.07L601.981 845.85C603.131 844.7 604.991 844.7 606.141 845.85C607.291 847 607.291 848.86 606.141 850.01L591.841 864.31C590.741 865.41 588.781 865.41 587.681 864.31L578.641 855.27L566.421 867.49C565.841 868.07 565.091 868.35 564.341 868.35Z" fill="#E9EDF2"/>
<path d="M304.8 717.53C142.29 717.53 10.0703 585.32 10.0703 422.8C10.0703 260.28 142.29 128.07 304.8 128.07C467.31 128.07 599.53 260.29 599.53 422.8C599.53 585.31 467.32 717.53 304.8 717.53Z" stroke="#E9EDF2" stroke-width="4" stroke-miterlimit="10"/>
<path d="M707.87 447.38C695.12 658.64 519.21 826.61 304.8 826.61C82.14 826.61 -99 645.46 -99 422.8C-99 200.14 82.14 19 304.8 19" stroke="#E9EDF2" stroke-width="38" stroke-miterlimit="10" stroke-linecap="round" stroke-linejoin="round"/>
<path d="M305.35 187.7C272.62 187.7 246 161.07 246 128.35C246 95.63 272.63 69 305.35 69C338.07 69 364.7 95.63 364.7 128.35C364.7 161.07 338.07 187.7 305.35 187.7Z" fill="white" stroke="#E9EDF2" stroke-width="4" stroke-miterlimit="10"/>
<path d="M296.321 126.81H286.961V146.73H296.321V126.81Z" fill="#F2CC0C"/>
<path d="M310.02 118.39H300.66V146.74H310.02V118.39Z" fill="#FF9830"/>
<path d="M323.731 109.96H314.371V146.73H323.731V109.96Z" fill="#F15B2B"/>
<path d="M418.943 244.362C418.193 244.362 417.432 244.073 416.862 243.503C415.712 242.353 415.712 240.493 416.862 239.343L431.162 225.043C432.262 223.943 434.222 223.943 435.322 225.043L444.362 234.083L456.582 221.862C457.732 220.712 459.593 220.712 460.743 221.862C461.893 223.012 461.893 224.873 460.743 226.023L446.443 240.323C445.343 241.423 443.382 241.423 442.282 240.323L433.243 231.283L421.022 243.503C420.442 244.083 419.693 244.362 418.943 244.362Z" fill="#E9EDF2"/>
</g>
<defs>
<clipPath id="clip0">
<rect width="844.87" height="868.35" fill="white" transform="translate(-118)"/>
</clipPath>
</defs>
</svg>
