<svg width="1920" height="465" viewBox="0 0 1920 465" fill="none" xmlns="http://www.w3.org/2000/svg">
<g clip-path="url(#clip0)">
<path d="M1861.72 384.1C1859.51 383.95 1857.84 382.04 1857.99 379.84C1858.14 377.63 1860.04 375.97 1862.25 376.12C1864.45 376.26 1866.12 378.17 1865.97 380.37C1865.83 382.49 1864.07 384.11 1861.98 384.11C1861.9 384.11 1861.81 384.1 1861.72 384.1ZM1898.38 378.16C1897.93 376 1899.32 373.88 1901.48 373.44V373.43C1903.65 372.98 1905.76 374.37 1906.21 376.54C1906.66 378.7 1905.27 380.82 1903.11 381.27C1902.83 381.32 1902.56 381.35 1902.29 381.35C1900.43 381.35 1898.77 380.05 1898.38 378.16ZM1821.07 375.72C1818.99 374.97 1817.9 372.69 1818.64 370.61C1819.37 368.53 1821.66 367.44 1823.74 368.18V368.17C1825.83 368.91 1826.91 371.2 1826.18 373.28C1825.6 374.92 1824.05 375.95 1822.41 375.95C1821.96 375.95 1821.51 375.87 1821.07 375.72ZM1936.82 365.65C1935.8 363.69 1936.56 361.27 1938.52 360.25C1940.48 359.23 1942.9 360 1943.92 361.96C1944.93 363.92 1944.17 366.33 1942.21 367.35C1941.62 367.66 1940.99 367.8 1940.37 367.8C1938.92 367.8 1937.53 367.02 1936.82 365.65ZM1784.21 356.62C1782.41 355.35 1781.98 352.85 1783.25 351.05C1784.53 349.24 1787.02 348.81 1788.83 350.09C1790.63 351.36 1791.06 353.86 1789.79 355.66C1789.01 356.76 1787.77 357.35 1786.52 357.35C1785.72 357.35 1784.91 357.12 1784.21 356.62ZM1970.43 343.2C1968.92 341.58 1969.01 339.05 1970.62 337.54C1972.24 336.03 1974.77 336.12 1976.28 337.73C1977.79 339.35 1977.7 341.88 1976.09 343.39C1975.32 344.11 1974.33 344.46 1973.36 344.46C1972.29 344.46 1971.22 344.04 1970.43 343.2ZM1753.87 328.31C1752.47 326.6 1752.72 324.08 1754.43 322.69C1756.15 321.29 1758.67 321.55 1760.06 323.26C1761.46 324.97 1761.2 327.49 1759.49 328.88C1758.75 329.49 1757.86 329.78 1756.97 329.78C1755.81 329.78 1754.66 329.28 1753.87 328.31ZM1996.79 312.54C1994.9 311.39 1994.31 308.93 1995.45 307.04C1996.6 305.15 1999.06 304.56 2000.95 305.7C2002.84 306.85 2003.44 309.31 2002.29 311.2C2001.53 312.44 2000.22 313.12 1998.87 313.12C1998.16 313.12 1997.44 312.93 1996.79 312.54ZM1732.24 292.9C1731.36 290.87 1732.29 288.51 1734.31 287.63C1736.34 286.75 1738.69 287.67 1739.58 289.7C1740.46 291.72 1739.53 294.08 1737.51 294.96C1736.99 295.19 1736.45 295.3 1735.91 295.3C1734.37 295.3 1732.9 294.4 1732.24 292.9ZM2013.91 275.91C2011.78 275.31 2010.54 273.1 2011.13 270.98C2011.72 268.85 2013.93 267.61 2016.06 268.2C2018.19 268.8 2019.43 271 2018.83 273.13C2018.34 274.9 2016.73 276.05 2014.98 276.05C2014.63 276.05 2014.27 276.01 2013.91 275.91ZM1721.02 252.94C1720.72 250.75 1722.25 248.73 1724.44 248.43C1726.63 248.13 1728.65 249.66 1728.95 251.85C1729.25 254.04 1727.72 256.06 1725.53 256.36C1725.35 256.38 1725.16 256.4 1724.98 256.4C1723.01 256.4 1721.3 254.94 1721.02 252.94ZM2016.44 232.02C2016.44 231.96 2016.45 231.91 2016.45 231.85C2016.45 231.8 2016.44 231.75 2016.44 231.7V231.69C2016.44 229.48 2018.23 227.69 2020.44 227.69C2022.65 227.68 2024.44 229.47 2024.44 231.68C2024.44 231.74 2024.44 231.79 2024.44 231.85C2024.44 231.91 2024.44 231.96 2024.44 232.02C2024.44 232.02 2024.44 232.02 2024.45 232.02C2024.45 234.23 2022.65 236.02 2020.44 236.02C2018.24 236.02 2016.44 234.23 2016.44 232.02ZM1724.41 215.95C1722.22 215.65 1720.68 213.64 1720.98 211.45C1721.27 209.26 1723.29 207.72 1725.47 208.02C1727.66 208.31 1729.2 210.33 1728.9 212.52C1728.63 214.52 1726.92 215.98 1724.95 215.98C1724.77 215.98 1724.59 215.97 1724.41 215.95ZM2011.04 192.75C2010.44 190.62 2011.68 188.41 2013.81 187.81C2015.93 187.21 2018.14 188.45 2018.74 190.57C2019.34 192.7 2018.1 194.91 2015.98 195.51C2015.61 195.61 2015.25 195.66 2014.89 195.66C2013.15 195.66 2011.54 194.51 2011.04 192.75ZM1734.19 176.72C1732.16 175.84 1731.23 173.48 1732.11 171.45C1732.98 169.43 1735.34 168.49 1737.37 169.37C1739.39 170.25 1740.33 172.61 1739.45 174.64C1738.79 176.15 1737.32 177.05 1735.77 177.05C1735.24 177.05 1734.7 176.94 1734.19 176.72ZM1995.29 156.72C1994.13 154.84 1994.73 152.38 1996.61 151.23C1998.5 150.07 2000.96 150.66 2002.11 152.55C2003.27 154.43 2002.67 156.89 2000.79 158.05C2000.14 158.45 1999.41 158.64 1998.7 158.64C1997.36 158.64 1996.04 157.96 1995.29 156.72ZM1754.24 141.61C1752.52 140.21 1752.26 137.7 1753.66 135.98C1755.05 134.26 1757.57 134 1759.28 135.4C1760.99 136.79 1761.26 139.31 1759.86 141.02C1759.07 142 1757.92 142.5 1756.76 142.5C1755.87 142.5 1754.98 142.21 1754.24 141.61ZM1970.39 126.28C1968.78 124.77 1968.69 122.24 1970.19 120.63C1971.7 119.01 1974.23 118.92 1975.84 120.42C1977.46 121.93 1977.55 124.46 1976.05 126.07C1975.26 126.92 1974.19 127.35 1973.12 127.35C1972.14 127.35 1971.16 126.99 1970.39 126.28ZM1782.99 113.18C1781.71 111.38 1782.14 108.89 1783.94 107.61C1785.74 106.33 1788.24 106.76 1789.52 108.56C1790.79 110.36 1790.37 112.85 1788.57 114.14C1787.87 114.63 1787.06 114.87 1786.26 114.87C1785 114.87 1783.77 114.28 1782.99 113.18ZM1938.24 103.63H1938.23C1936.27 102.62 1935.5 100.21 1936.52 98.24C1937.53 96.28 1939.95 95.51 1941.91 96.53C1943.87 97.54 1944.64 99.95 1943.63 101.92C1942.91 103.29 1941.52 104.08 1940.07 104.08C1939.45 104.08 1938.82 103.94 1938.24 103.63ZM1818.32 93.55C1817.58 91.47 1818.66 89.18 1820.74 88.44C1822.82 87.69 1825.11 88.78 1825.85 90.86C1826.6 92.94 1825.51 95.23 1823.43 95.97C1822.99 96.13 1822.53 96.21 1822.09 96.21C1820.44 96.21 1818.9 95.19 1818.32 93.55ZM1901.16 90.54C1899 90.09 1897.6 87.98 1898.04 85.81C1898.49 83.65 1900.6 82.26 1902.77 82.7C1904.93 83.14 1906.33 85.25 1905.88 87.42C1905.49 89.31 1903.83 90.62 1901.97 90.62C1901.7 90.62 1901.43 90.59 1901.16 90.54ZM1857.65 84.23C1857.5 82.02 1859.16 80.11 1861.37 79.96C1863.57 79.81 1865.48 81.47 1865.63 83.68C1865.78 85.88 1864.12 87.79 1861.92 87.94C1861.82 87.95 1861.73 87.95 1861.64 87.95C1859.55 87.95 1857.8 86.34 1857.65 84.23Z" fill="#E0E5EC"/>
<path d="M1872.02 343.94C1810.31 343.94 1760.1 293.73 1760.1 232.02C1760.1 170.31 1810.31 120.1 1872.02 120.1C1933.73 120.1 1983.94 170.31 1983.94 232.02C1983.94 293.73 1933.73 343.94 1872.02 343.94ZM1872.02 125.1C1813.06 125.1 1765.1 173.07 1765.1 232.02C1765.1 290.97 1813.07 338.94 1872.02 338.94C1930.98 338.94 1978.94 290.97 1978.94 232.02C1978.94 173.07 1930.98 125.1 1872.02 125.1Z" fill="#E0E5EC"/>
<path d="M1872.02 464.04C1865.12 464.04 1859.52 458.44 1859.52 451.54C1859.52 444.64 1865.12 439.04 1872.02 439.04C1986.17 439.04 2079.04 346.17 2079.04 232.02C2079.04 117.87 1986.17 25 1872.02 25C1757.87 25 1665 117.87 1665 232.02C1665 238.92 1659.4 244.52 1652.5 244.52C1645.6 244.52 1640 238.92 1640 232.02C1640 170.05 1664.13 111.78 1707.96 67.96C1751.78 24.13 1810.04 0 1872.02 0C1934 0 1992.26 24.13 2036.08 67.96C2079.9 111.78 2104.04 170.05 2104.04 232.02C2104.04 293.99 2079.91 352.26 2036.08 396.08C1992.26 439.9 1933.99 464.04 1872.02 464.04Z" fill="white"/>
<path d="M1872.02 464.04C1865.13 464.04 1859.52 458.43 1859.52 451.54C1859.52 444.65 1865.13 439.04 1872.02 439.04C1878.91 439.04 1884.52 444.65 1884.52 451.54C1884.52 458.43 1878.91 464.04 1872.02 464.04Z" fill="#E0E5EC"/>
<path d="M1851.94 238.362C1851.19 238.362 1850.43 238.073 1849.86 237.503C1848.71 236.353 1848.71 234.493 1849.86 233.343L1864.16 219.043C1865.26 217.943 1867.22 217.943 1868.32 219.043L1877.36 228.083L1889.58 215.862C1890.73 214.712 1892.59 214.712 1893.74 215.862C1894.89 217.012 1894.89 218.873 1893.74 220.023L1879.44 234.323C1878.34 235.423 1876.38 235.423 1875.28 234.323L1866.24 225.283L1854.02 237.503C1853.44 238.083 1852.69 238.362 1851.94 238.362Z" fill="#E9EDF2"/>
</g>
<path d="M-49 422.5H230.6" stroke="white" stroke-width="25" stroke-miterlimit="10" stroke-linecap="round" stroke-linejoin="round"/>
<path d="M120.151 334.88C114.391 334.88 109.711 330.2 109.711 324.44C109.711 318.68 114.401 314 120.151 314C125.901 314 130.591 318.68 130.591 324.44C130.591 330.2 125.911 334.88 120.151 334.88Z" fill="#E9EDF2"/>
<path d="M162.87 334.88C157.11 334.88 152.43 330.2 152.43 324.44C152.43 318.68 157.11 314 162.87 314C168.63 314 173.31 318.68 173.31 324.44C173.31 330.2 168.62 334.88 162.87 334.88Z" fill="#E9EDF2"/>
<path d="M77.44 377.59C71.68 377.59 67 372.91 67 367.15C67 361.39 71.68 356.71 77.44 356.71C83.2 356.71 87.88 361.39 87.88 367.15C87.88 372.91 83.2 377.59 77.44 377.59Z" fill="#E9EDF2"/>
<path d="M120.151 377.59C114.391 377.59 109.711 372.91 109.711 367.15C109.711 361.39 114.391 356.71 120.151 356.71C125.911 356.71 130.591 361.39 130.591 367.15C130.591 372.91 125.911 377.59 120.151 377.59Z" fill="#E9EDF2"/>
<path d="M162.87 377.59C157.11 377.59 152.43 372.91 152.43 367.15C152.43 361.39 157.11 356.71 162.87 356.71C168.63 356.71 173.31 361.39 173.31 367.15C173.31 372.91 168.62 377.59 162.87 377.59Z" fill="#E9EDF2"/>
<path d="M77.44 420.31C71.68 420.31 67 415.62 67 409.87C67 404.11 71.68 399.43 77.44 399.43C83.2 399.43 87.88 404.11 87.88 409.87C87.88 415.62 83.2 420.31 77.44 420.31Z" fill="#E9EDF2"/>
<path d="M120.151 420.31C114.391 420.31 109.711 415.63 109.711 409.87C109.711 404.11 114.391 399.43 120.151 399.43C125.911 399.43 130.591 404.11 130.591 409.87C130.591 415.62 125.911 420.31 120.151 420.31Z" fill="#E9EDF2"/>
<path d="M230.6 435C223.71 435 218.1 429.39 218.1 422.5C218.1 415.61 223.71 410 230.6 410C237.49 410 243.1 415.61 243.1 422.5C243.1 429.39 237.49 435 230.6 435Z" fill="#E9EDF2"/>
<defs>
<clipPath id="clip0">
<rect width="464.04" height="464.04" fill="white" transform="translate(1640)"/>
</clipPath>
</defs>
</svg>
