<?xml version="1.0" encoding="utf-8"?>
<!-- Generator: Adobe Illustrator 24.3.0, SVG Export Plug-In . SVG Version: 6.00 Build 0)  -->
<svg version="1.1" id="Layer_1" xmlns="http://www.w3.org/2000/svg" xmlns:xlink="http://www.w3.org/1999/xlink" x="0px" y="0px"
	 viewBox="0 0 1920 1080" style="enable-background:new 0 0 1920 1080;" xml:space="preserve">
<style type="text/css">
	.st0{fill:#3274D9;}
	.st1{fill:#2A62D1;}
	.st2{opacity:0.5;}
	.st3{fill:url(#SVGID_1_);}
	.st4{fill:url(#SVGID_2_);}
	.st5{fill:none;stroke:#2A62D1;stroke-width:4;stroke-miterlimit:10;}
	.st6{fill:url(#SVGID_3_);}
	.st7{fill:#FFFFFF;}
	.st8{fill:none;stroke:#2A62D1;stroke-width:8;stroke-linecap:round;stroke-linejoin:round;stroke-dasharray:0,40;}
	.st9{fill:none;stroke:#5293E2;stroke-width:3;stroke-miterlimit:10;}
	.st10{fill:#5293E2;}
	.st11{fill:#8AB8FF;}
	.st12{fill:url(#SVGID_4_);}
</style>
<g id="Layer_1_1_">
	<rect class="st0" width="1920" height="1080"/>
	<polygon class="st1" points="1826,996 1805,996 1826,975 	"/>
</g>
<g class="st2">
	<rect x="-634.1" y="670.2" class="st1" width="1166.6" height="21.1"/>
	<linearGradient id="SVGID_1_" gradientUnits="userSpaceOnUse" x1="-29.9037" y1="716.14" x2="217.5363" y2="716.14">
		<stop  offset="0" style="stop-color:#D3137C;stop-opacity:0"/>
		<stop  offset="1" style="stop-color:#F06126"/>
	</linearGradient>
	<rect x="-29.9" y="705.6" class="st3" width="247.4" height="21.1"/>
	<rect x="-18.7" y="350.1" class="st1" width="314.3" height="21.1"/>
	<rect x="-395.3" y="821.3" class="st1" width="556.7" height="21.1"/>
	<rect x="-553.7" y="904.5" class="st1" width="1342" height="21.1"/>
	<rect x="-14.5" y="966.2" class="st1" width="1457.2" height="21.1"/>
	<linearGradient id="SVGID_2_" gradientUnits="userSpaceOnUse" x1="1016.8828" y1="1025.7363" x2="1141.9094" y2="1025.7363">
		<stop  offset="0" style="stop-color:#D3137C;stop-opacity:0"/>
		<stop  offset="1" style="stop-color:#F06126"/>
	</linearGradient>
	<rect x="1016.9" y="1015.2" class="st4" width="125" height="21.1"/>
</g>
<circle class="st5" cx="452.5" cy="570.7" r="351.5"/>
<image style="overflow:visible;opacity:0.75;enable-background:new    ;" width="572" height="572" xlink:href="A4E30ED602927E8A.png"  transform="matrix(1 0 0 1 166 285)">
</image>
<linearGradient id="SVGID_3_" gradientUnits="userSpaceOnUse" x1="256.98" y1="509.29" x2="648" y2="509.29" gradientTransform="matrix(1 0 0 -1 0 1080)">
	<stop  offset="0" style="stop-color:#FABD0B"/>
	<stop  offset="0.49" style="stop-color:#F15F26"/>
	<stop  offset="1" style="stop-color:#3D7BD9;stop-opacity:0"/>
</linearGradient>
<circle class="st6" cx="452.5" cy="570.7" r="195.5"/>
<image style="overflow:visible;opacity:0.75;enable-background:new    ;" width="522" height="522" xlink:href="A4E30ED602927E8D.png"  transform="matrix(1 0 0 1 191 310)">
</image>
<ellipse class="st7" cx="452.5" cy="570.7" rx="170.5" ry="170.3"/>
<circle class="st8" cx="452.5" cy="570.7" r="564.5"/>
<circle class="st9" cx="710.5" cy="813.5" r="40"/>
<path class="st10" d="M992,890.2c-4.1,0-7.5-3.4-7.5-7.5s3.4-7.5,7.5-7.5s7.5,3.4,7.5,7.5S996.1,890.2,992,890.2L992,890.2z"/>
<rect x="161.6" y="275.2" class="st11" width="12.5" height="12.5"/>
<rect x="149.1" y="287.7" class="st11" width="12.5" height="12.5"/>
<path class="st10" d="M1727.1,315.1c-1.4,0-2.5-1.1-2.5-2.4c0-1.4,1.1-2.5,2.4-2.5c1.4,0,2.5,1.1,2.5,2.4c0,0,0,0,0,0
	C1729.5,314,1728.4,315.1,1727.1,315.1z"/>
<path class="st10" d="M1717,325.1c-1.4,0-2.5-1.1-2.5-2.5c0-1.4,1.1-2.5,2.5-2.5c1.4,0,2.5,1.1,2.5,2.5c0,0,0,0,0,0
	C1719.5,324,1718.4,325.1,1717,325.1C1717,325.1,1717,325.1,1717,325.1z"/>
<path class="st10" d="M1707,335.2c-1.4,0-2.5-1.1-2.5-2.5c0-1.4,1.1-2.5,2.5-2.5c1.4,0,2.5,1.1,2.5,2.5c0,0,0,0,0,0
	C1709.5,334.1,1708.4,335.2,1707,335.2z"/>
<path class="st10" d="M709.8,697.9c0-3.1,2.5-5.7,5.7-5.7c3.1,0,5.7,2.5,5.7,5.7c0,0,0,0,0,0h6.8c0-6.9-5.6-12.5-12.5-12.5
	S703,691,703,697.9H709.8z"/>
<circle class="st0" cx="833.9" cy="156.8" r="6.5"/>
<path class="st1" d="M877.3,186c-6.9,0-12.5,5.6-12.5,12.5s5.6,12.5,12.5,12.5s12.5-5.6,12.5-12.5l0,0
	C889.8,191.6,884.2,186,877.3,186z M877.3,204.2c-3.1,0-5.7-2.5-5.7-5.7s2.5-5.7,5.7-5.7s5.7,2.5,5.7,5.7v0
	C883,201.7,880.4,204.2,877.3,204.2L877.3,204.2L877.3,204.2z"/>
<g id="Layer_6">
	
		<linearGradient id="SVGID_4_" gradientUnits="userSpaceOnUse" x1="604.0168" y1="5142.4297" x2="399.7368" y2="5205.4399" gradientTransform="matrix(1 0 0 1 0 -4622)">
		<stop  offset="0" style="stop-color:#FFF100"/>
		<stop  offset="1" style="stop-color:#F05A28"/>
	</linearGradient>
	<path class="st12" d="M367.1,537.2h-3.3c-1.9,0.1-3.3,1.7-3.2,3.6c0.1,1.7,1.5,3.1,3.2,3.2h3.3c1.9,0.1,3.5-1.3,3.6-3.2
		c0.1-1.9-1.3-3.5-3.2-3.6C367.4,537.1,367.3,537.1,367.1,537.2z M430.5,587.2h-3.3c-1.9,0.1-3.3,1.7-3.2,3.6
		c0.1,1.7,1.5,3.1,3.2,3.2h3.3c1.9,0.1,3.5-1.3,3.6-3.2c0.1-1.9-1.3-3.5-3.2-3.6C430.7,587.1,430.6,587.1,430.5,587.2z M427.7,554.5
		c0-1.9-1.5-3.4-3.4-3.4h-11.4c-1.9,0-3.4,1.5-3.4,3.4c0,1.9,1.5,3.4,3.4,3.4h11.4C426.2,558,427.7,556.4,427.7,554.5L427.7,554.5z
		 M536.3,533l-3.5-19.6c-1-7.4-7.4-12.8-14.9-12.4H383.9c-5-0.2-9.2,3.7-9.4,8.7c0,0,0,0,0,0c0,0.8,0,1.6,0.2,2.4l3.7,20.9
		c0,0.2,0.1,0.3,0.1,0.5l0,0c0.4,2.5-0.9,3.6-2,3.9l0,0c-1.8,0.7-2.7,2.6-2,4.4c0.5,1.3,1.8,2.2,3.2,2.2h149.5
		c5,0.2,9.2-3.8,9.4-8.8C536.6,534.5,536.5,533.8,536.3,533z M490.7,611.5c-1.5-7.6-5.8-10.4-10.7-10.4h-35.4
		c-1.9,0-3.5,1.6-3.4,3.5c0,1.8,1.3,3.2,3.1,3.4l0,0c1.1,0.2,2.3,1.7,3.1,5.3l3.7,20.2c1.4,6.3,6.9,10.8,13.3,10.9l21.1-0.1
		c5,0.2,9.3-3.7,9.5-8.7c0-0.8,0-1.6-0.2-2.3L490.7,611.5z M443.8,594.2h38.5c0.3,0,0.6-0.1,0.9-0.1c3.6-0.8,3.7-3.7,3.3-6.5
		l-4.9-26.9c-1.3-7-5.4-9.8-10.7-9.8h-35.2c-1.9,0-3.4,1.5-3.5,3.4c0,1.8,1.3,3.2,3.1,3.4l0,0c1.2,0.2,2.5,1.8,3.2,5.8l3.7,20.6l0,0
		c0.4,1.5-0.5,3-2,3.4c0,0,0,0,0,0h-0.2l0,0c-1.8,0.6-2.7,2.5-2.1,4.3c0.5,1.4,1.8,2.3,3.3,2.3L443.8,594.2L443.8,594.2z"/>
</g>
<path class="st0" d="M877.3,204.2c-3.1,0-5.7-2.5-5.7-5.7s2.5-5.7,5.7-5.7s5.7,2.5,5.7,5.7v0C883,201.7,880.4,204.2,877.3,204.2
	L877.3,204.2L877.3,204.2z"/>
</svg>
