<svg width="3061" height="420" viewBox="0 0 3061 420" fill="none" xmlns="http://www.w3.org/2000/svg">
<g clip-path="url(#clip0)">
<rect width="3061" height="420" fill="#010038"/>
<rect x="-1" y="-158" width="3062" height="643" fill="url(#paint0_linear)"/>
<rect x="-1" y="-158" width="3062" height="643" fill="url(#paint1_radial)"/>
<rect x="-1" y="-158" width="3062" height="643" fill="url(#paint2_radial)"/>
<ellipse opacity="0.25" cx="724.5" cy="175" rx="435.5" ry="439" fill="url(#paint3_radial)"/>
<g opacity="0.5">
<g opacity="0.8">
<rect width="6.65559" height="51.7657" transform="matrix(-1 0 0 1 753.629 37.5599)" fill="url(#paint4_linear)"/>
<circle r="3.15709" transform="matrix(-1 0 0 1 750.247 37.3423)" fill="#26CED9"/>
<rect width="6.65559" height="51.7657" transform="matrix(-1 0 0 1 709.258 27.2854)" fill="url(#paint5_linear)"/>
<circle r="3.15709" transform="matrix(-1 0 0 1 706.048 26.9892)" fill="#26CED9"/>
</g>
<g opacity="0.25">
<rect width="6.65559" height="51.7657" transform="matrix(-1 0 0 1 665.627 15.4535)" fill="url(#paint6_linear)"/>
<circle r="3.15709" transform="matrix(-1 0 0 1 662.417 15.1571)" fill="#26CED9"/>
</g>
<g opacity="0.25">
<rect width="6.65559" height="51.7657" transform="matrix(-1 0 0 1 798 50.2103)" fill="url(#paint7_linear)"/>
<circle r="3.15709" transform="matrix(-1 0 0 1 794.79 49.9139)" fill="#26CED9"/>
</g>
<g opacity="0.5">
<rect width="6.65559" height="56.9423" transform="matrix(-1 0 0 1 775.814 64.5052)" fill="url(#paint8_linear)"/>
<circle r="3.15709" transform="matrix(-1 0 0 1 772.347 64.4183)" fill="#26CED9"/>
<rect width="5.91608" height="74.6905" transform="matrix(-1 0 0 1 687.072 35.8868)" fill="url(#paint9_linear)"/>
<circle r="3.15709" transform="matrix(-1 0 0 1 683.948 35.8634)" fill="#26CED9"/>
</g>
</g>
<g opacity="0.7">
<rect width="6.65559" height="60.6398" transform="matrix(-1 0 0 1 731.443 29.0088)" fill="url(#paint10_linear)"/>
<circle r="3.15709" transform="matrix(-1 0 0 1 728.146 29.2079)" fill="#26CED9"/>
</g>
<ellipse opacity="0.08" rx="325" ry="123.5" transform="matrix(-1 0 0 1 731 68.5)" fill="url(#paint11_radial)"/>
<rect width="6" height="139" transform="matrix(-1 0 0 1 664 75)" fill="url(#paint12_linear)"/>
<circle r="3" transform="matrix(-1 0 0 1 661.002 75)" fill="#26CED9"/>
<rect width="6" height="95" transform="matrix(-1 0 0 1 752 178)" fill="url(#paint13_linear)"/>
<circle r="3" transform="matrix(-1 0 0 1 749 178)" fill="#26CED9"/>
<rect width="6" height="95" transform="matrix(-1 0 0 1 774 184)" fill="url(#paint14_linear)"/>
<circle r="3" transform="matrix(-1 0 0 1 771 184)" fill="#26CED9"/>
<g opacity="0.8">
<rect width="6" height="73" transform="matrix(-1 0 0 1 796 190)" fill="url(#paint15_linear)"/>
<circle r="3" transform="matrix(-1 0 0 1 793 190)" fill="#26CED9"/>
</g>
<g opacity="0.7">
<rect width="6" height="64" transform="matrix(-1 0 0 1 818 199)" fill="url(#paint16_linear)"/>
<circle r="3" transform="matrix(-1 0 0 1 815 199)" fill="#26CED9"/>
</g>
<g opacity="0.5">
<rect width="6" height="95" transform="matrix(-1 0 0 1 862 136)" fill="url(#paint17_linear)"/>
<circle r="3" transform="matrix(-1 0 0 1 859 136)" fill="#26CED9"/>
</g>
<g opacity="0.3">
<rect width="6" height="46" transform="matrix(-1 0 0 1 884 149)" fill="url(#paint18_linear)"/>
<circle r="3" transform="matrix(-1 0 0 1 881 149)" fill="#26CED9"/>
</g>
<g opacity="0.5">
<rect width="6" height="52" transform="matrix(-1 0 0 1 840 205)" fill="url(#paint19_linear)"/>
<circle r="3" transform="matrix(-1 0 0 1 837 205)" fill="#26CED9"/>
</g>
<g opacity="0.3">
<rect width="6" height="41" transform="matrix(-1 0 0 1 862 214)" fill="url(#paint20_linear)"/>
<circle r="3" transform="matrix(-1 0 0 1 859 214)" fill="#26CED9"/>
</g>
<rect width="6" height="46" transform="matrix(-1 0 0 1 686 96)" fill="url(#paint21_linear)"/>
<circle r="3.15709" transform="matrix(-1 0 0 1 682.847 96.1571)" fill="#26CED9"/>
<rect width="6" height="75" transform="matrix(-1 0 0 1 730 248)" fill="url(#paint22_linear)"/>
<circle r="3.15709" transform="matrix(-1 0 0 1 726.843 248.157)" fill="#26CED9"/>
<rect width="6" height="68" transform="matrix(-1 0 0 1 708 239)" fill="url(#paint23_linear)"/>
<circle r="3.15709" transform="matrix(-1 0 0 1 704.843 239.157)" fill="#26CED9"/>
<g opacity="0.7">
<rect width="6" height="46" transform="matrix(-1 0 0 1 685.996 217)" fill="url(#paint24_linear)"/>
<circle r="3.15709" transform="matrix(-1 0 0 1 682.843 217.157)" fill="#26CED9"/>
</g>
<g opacity="0.6">
<rect width="6" height="46" transform="matrix(-1 0 0 1 663.996 187)" fill="url(#paint25_linear)"/>
<circle r="3.15709" transform="matrix(-1 0 0 1 660.843 187.157)" fill="#26CED9"/>
</g>
<g opacity="0.6">
<rect width="6.31418" height="145.226" transform="matrix(-1 -1.74846e-07 -1.74846e-07 1 641.805 69.1569)" fill="url(#paint26_linear)"/>
<circle r="3.15709" transform="matrix(-1 -1.74846e-07 -1.74846e-07 1 638.648 69.1571)" fill="#26CED9"/>
</g>
<g opacity="0.5">
<rect width="5.99998" height="115" transform="matrix(-1 -1.74846e-07 -1.74846e-07 1 620 63)" fill="url(#paint27_linear)"/>
<ellipse rx="3" ry="3" transform="matrix(-1 -1.74846e-07 -1.74846e-07 1 617 63)" fill="#26CED9"/>
</g>
<g opacity="0.2">
<rect width="5.99999" height="31" transform="matrix(-1 -1.74846e-07 -1.74846e-07 1 554 32)" fill="url(#paint28_linear)"/>
<ellipse rx="3" ry="3" transform="matrix(-1 -1.74846e-07 -1.74846e-07 1 551 32)" fill="#26CED9"/>
</g>
<g opacity="0.3">
<rect width="6" height="51" transform="matrix(-1 0 0 1 576 42)" fill="url(#paint29_linear)" fill-opacity="0.8"/>
<circle r="3" transform="matrix(-1 0 0 1 573 42)" fill="#2DD28D"/>
</g>
<g opacity="0.4">
<rect width="6" height="97" transform="matrix(-1 0 0 1 598 54)" fill="url(#paint30_linear)" fill-opacity="0.8"/>
<circle r="3" transform="matrix(-1 0 0 1 595 54)" fill="#2DD28D"/>
</g>
<rect width="6" height="71" transform="matrix(-1 0 0 1 686 140)" fill="url(#paint31_linear)" fill-opacity="0.8"/>
<circle r="3" transform="matrix(-1 0 0 1 683 140)" fill="#2DD28D"/>
<rect width="6" height="71" transform="matrix(-1 0 0 1 708 159)" fill="url(#paint32_linear)" fill-opacity="0.8"/>
<circle r="3" transform="matrix(-1 0 0 1 705 159)" fill="#2DD28D"/>
<g opacity="0.7">
<rect width="6" height="101" transform="matrix(-1 0 0 1 840 120)" fill="url(#paint33_linear)" fill-opacity="0.8"/>
<circle r="3" transform="matrix(-1 0 0 1 837 120)" fill="#2DD28D"/>
</g>
<rect width="6" height="71" transform="matrix(-1 0 0 1 730 170)" fill="url(#paint34_linear)" fill-opacity="0.8"/>
<circle r="3" transform="matrix(-1 0 0 1 727 170)" fill="#2DD28D"/>
<g opacity="0.4">
<rect width="6" height="72" transform="matrix(-1 0 0 1 752 260)" fill="url(#paint35_linear)" fill-opacity="0.8"/>
<circle r="3" transform="matrix(-1 0 0 1 749 260)" fill="#2DD28D"/>
<rect width="6" height="60" transform="matrix(-1 0 0 1 774 270)" fill="url(#paint36_linear)" fill-opacity="0.8"/>
<circle r="3" transform="matrix(-1 0 0 1 771 270)" fill="#2DD28D"/>
<g opacity="0.8">
<rect width="6" height="36" transform="matrix(-1 0 0 1 796 294)" fill="url(#paint37_linear)" fill-opacity="0.8"/>
<circle r="3" transform="matrix(-1 0 0 1 793 294)" fill="#2DD28D"/>
</g>
</g>
<g opacity="0.8">
<rect x="2189.1" y="143.157" width="6.31418" height="145.226" fill="url(#paint38_linear)"/>
<circle cx="2192.25" cy="143.157" r="3.15709" fill="#26CED9"/>
<g opacity="0.3">
<rect x="2189" y="-11" width="6" height="95" fill="url(#paint39_linear)"/>
</g>
<rect x="2167" y="151" width="6" height="84" fill="url(#paint40_linear)"/>
<circle cx="2170.15" cy="151.157" r="3.15709" fill="#26CED9"/>
<g opacity="0.3">
<rect x="2167" y="14" width="6" height="46" fill="url(#paint41_linear)"/>
<circle cx="2170.15" cy="14.1571" r="3.15709" fill="#26CED9"/>
</g>
<rect x="2144.9" y="154.157" width="6.31418" height="145.226" fill="url(#paint42_linear)"/>
<circle cx="2148.05" cy="154.157" r="3.15709" fill="#26CED9"/>
<g opacity="0.8">
<rect x="1990" y="252" width="7" height="66" fill="url(#paint43_linear)"/>
<circle cx="1993.36" cy="252.157" r="3.15709" fill="#26CED9"/>
</g>
<g opacity="0.5">
<rect x="1968" y="272" width="6" height="55" fill="url(#paint44_linear)"/>
<circle cx="1971.26" cy="272.157" r="3.15709" fill="#26CED9"/>
</g>
<rect x="2101" y="160" width="5.99998" height="109" fill="url(#paint45_linear)"/>
<circle cx="2103.85" cy="160.157" r="3.15709" fill="#26CED9"/>
<g opacity="0.4">
<rect x="1946" y="275" width="6" height="72" fill="url(#paint46_linear)"/>
<circle cx="1949.16" cy="275.157" r="3.15709" fill="#26CED9"/>
</g>
<g opacity="0.4">
<rect x="1924" y="279" width="6" height="42" fill="url(#paint47_linear)"/>
<circle cx="1927.16" cy="279.157" r="3.15709" fill="#26CED9"/>
</g>
<g opacity="0.4">
<rect x="1924" y="326" width="6" height="42" fill="url(#paint48_linear)"/>
<circle cx="1927.16" cy="326.157" r="3.15709" fill="#26CED9"/>
</g>
<g opacity="0.4">
<rect x="1968" y="319" width="6" height="42" fill="url(#paint49_linear)"/>
<circle cx="1971.16" cy="319.157" r="3.15709" fill="#26CED9"/>
</g>
<g opacity="0.4">
<rect x="2123" y="264" width="6" height="42" fill="url(#paint50_linear)"/>
<circle cx="2126.16" cy="264.157" r="3.15709" fill="#26CED9"/>
</g>
<g opacity="0.4">
<rect x="2167" y="251" width="6" height="42" fill="url(#paint51_linear)"/>
<circle cx="2170.16" cy="251.157" r="3.15709" fill="#26CED9"/>
</g>
<g opacity="0.3">
<rect x="1903" y="281" width="6" height="42" fill="url(#paint52_linear)"/>
<circle cx="1906.16" cy="281.157" r="3.15709" fill="#26CED9"/>
</g>
<g opacity="0.3">
<rect x="1903" y="330" width="6" height="42" fill="url(#paint53_linear)"/>
<circle cx="1906.16" cy="330.157" r="3.15709" fill="#26CED9"/>
</g>
<g opacity="0.15">
<rect x="1882" y="283" width="6" height="42" fill="url(#paint54_linear)"/>
<circle cx="1885.16" cy="283.157" r="3.15709" fill="#26CED9"/>
</g>
<g opacity="0.15">
<rect x="1882" y="336" width="6" height="42" fill="url(#paint55_linear)"/>
<circle cx="1885.16" cy="336.157" r="3.15709" fill="#26CED9"/>
</g>
<g opacity="0.15">
<rect x="1861" y="353" width="6" height="42" fill="url(#paint56_linear)"/>
<circle cx="1864.16" cy="353.157" r="3.15709" fill="#26CED9"/>
</g>
<rect x="2123" y="158" width="5.99999" height="75" fill="url(#paint57_linear)"/>
<circle cx="2125.95" cy="158.157" r="3.15709" fill="#26CED9"/>
<rect x="2079" y="269" width="6" height="61" fill="url(#paint58_linear)"/>
<circle cx="2081.75" cy="269.157" r="3.15709" fill="#26CED9"/>
<rect x="2034.4" y="173.157" width="6.31418" height="145.226" fill="url(#paint59_linear)"/>
<circle cx="2037.56" cy="173.157" r="3.15709" fill="#26CED9"/>
<rect x="2034" y="279" width="6.99998" height="107" fill="url(#paint60_linear)"/>
<circle cx="2037.56" cy="279.157" r="3.15709" fill="#26CED9"/>
<rect x="2056" y="269" width="6.99999" height="79" fill="url(#paint61_linear)"/>
<circle cx="2059.66" cy="269.157" r="3.15709" fill="#26CED9"/>
<g opacity="0.2">
<rect x="2255.39" y="-35.8428" width="6.31418" height="145.226" fill="url(#paint62_linear)"/>
</g>
<g opacity="0.2">
<rect x="2211.2" y="-23.8431" width="6.31418" height="145.226" fill="url(#paint63_linear)"/>
</g>
<g opacity="0.2">
<rect x="2233" y="-33" width="6" height="69" fill="url(#paint64_linear)"/>
</g>
<g opacity="0.1">
<rect x="2299" y="-41" width="6" height="69" fill="url(#paint65_linear)"/>
</g>
<g opacity="0.1">
<rect x="2277" y="-39" width="6" height="69" fill="url(#paint66_linear)"/>
</g>
<rect x="2078.18" y="162.157" width="6.31418" height="145.226" fill="url(#paint67_linear)" fill-opacity="0.8"/>
<circle cx="2081.34" cy="162.157" r="3.15709" fill="#2DD28D"/>
<rect x="2211" y="253" width="6" height="51" fill="url(#paint68_linear)" fill-opacity="0.8"/>
<circle cx="2214.16" cy="253.157" r="3.15709" fill="#2DD28D"/>
<rect x="2189" y="256" width="6" height="51" fill="url(#paint69_linear)" fill-opacity="0.8"/>
<circle cx="2192.16" cy="256.157" r="3.15709" fill="#2DD28D"/>
<g opacity="0.7">
<rect x="2234" y="245" width="6" height="23" fill="url(#paint70_linear)" fill-opacity="0.8"/>
<circle cx="2237.16" cy="245.157" r="3.15709" fill="#2DD28D"/>
</g>
<g opacity="0.4">
<rect x="2255" y="235" width="6" height="23" fill="url(#paint71_linear)" fill-opacity="0.8"/>
<circle cx="2258.16" cy="235.157" r="3.15709" fill="#2DD28D"/>
</g>
<rect x="2212" y="105" width="6" height="71" fill="url(#paint72_linear)" fill-opacity="0.8"/>
<circle cx="2214.67" cy="105.157" r="3.15709" fill="#2DD28D"/>
<rect x="2189.49" y="87" width="6" height="71" fill="url(#paint73_linear)" fill-opacity="0.8"/>
<circle cx="2192.16" cy="87.1571" r="3.15709" fill="#2DD28D"/>
<g opacity="0.4">
<rect x="2167.49" y="50" width="6" height="71" fill="url(#paint74_linear)" fill-opacity="0.8"/>
<circle cx="2170.16" cy="50.1571" r="3.15709" fill="#2DD28D"/>
</g>
<rect x="2011.51" y="184" width="7" height="51" fill="url(#paint75_linear)"/>
<circle cx="2015.04" cy="184.157" r="3.15709" fill="#26CED9"/>
<rect x="2011.51" y="310" width="7" height="51" fill="url(#paint76_linear)"/>
<circle cx="2015.04" cy="310.157" r="3.15709" fill="#26CED9"/>
<rect x="2056" y="167" width="7" height="66" fill="url(#paint77_linear)" fill-opacity="0.8"/>
<circle cx="2059.63" cy="167.157" r="3.15709" fill="#2DD28D"/>
</g>
<rect x="-2" y="420" width="421" height="526" transform="rotate(-90 -2 420)" fill="url(#paint78_linear)"/>
<rect x="3061" y="-1" width="421" height="526" transform="rotate(90 3061 -1)" fill="url(#paint79_linear)"/>
<g opacity="0.5">
<g opacity="0.8">
<rect width="6.65559" height="51.7657" transform="matrix(-1 0 0 1 2630.63 180.56)" fill="url(#paint80_linear)"/>
<circle r="3.15709" transform="matrix(-1 0 0 1 2627.25 180.342)" fill="#26CED9"/>
<rect width="6.65559" height="51.7657" transform="matrix(-1 0 0 1 2586.26 170.285)" fill="url(#paint81_linear)"/>
<circle r="3.15709" transform="matrix(-1 0 0 1 2583.05 169.989)" fill="#26CED9"/>
</g>
<g opacity="0.25">
<rect width="6.65559" height="51.7657" transform="matrix(-1 0 0 1 2542.63 158.453)" fill="url(#paint82_linear)"/>
<circle r="3.15709" transform="matrix(-1 0 0 1 2539.42 158.157)" fill="#26CED9"/>
</g>
<g opacity="0.25">
<rect width="6.65559" height="51.7657" transform="matrix(-1 0 0 1 2675 193.21)" fill="url(#paint83_linear)"/>
<circle r="3.15709" transform="matrix(-1 0 0 1 2671.79 192.914)" fill="#26CED9"/>
</g>
<g opacity="0.5">
<rect width="6.65559" height="56.9423" transform="matrix(-1 0 0 1 2652.81 207.505)" fill="url(#paint84_linear)"/>
<circle r="3.15709" transform="matrix(-1 0 0 1 2649.35 207.418)" fill="#26CED9"/>
<rect width="5.91608" height="74.6905" transform="matrix(-1 0 0 1 2564.07 178.887)" fill="url(#paint85_linear)"/>
<circle r="3.15709" transform="matrix(-1 0 0 1 2560.95 178.863)" fill="#26CED9"/>
</g>
</g>
<g opacity="0.7">
<rect width="6.65559" height="60.6398" transform="matrix(-1 0 0 1 2608.44 172.009)" fill="url(#paint86_linear)"/>
<circle r="3.15709" transform="matrix(-1 0 0 1 2605.15 172.208)" fill="#26CED9"/>
</g>
<ellipse opacity="0.08" rx="325" ry="123.5" transform="matrix(-1 0 0 1 2608 211.5)" fill="url(#paint87_radial)"/>
<g opacity="0.5">
<g opacity="0.8">
<rect x="420.371" y="157.56" width="6.65559" height="51.7657" fill="url(#paint88_linear)"/>
<circle cx="423.753" cy="157.342" r="3.15709" fill="#26CED9"/>
<rect x="464.742" y="147.285" width="6.65559" height="51.7657" fill="url(#paint89_linear)"/>
<circle cx="467.952" cy="146.989" r="3.15709" fill="#26CED9"/>
</g>
<g opacity="0.25">
<rect x="508.373" y="135.453" width="6.65559" height="51.7657" fill="url(#paint90_linear)"/>
<circle cx="511.583" cy="135.157" r="3.15709" fill="#26CED9"/>
</g>
<g opacity="0.25">
<rect x="376" y="170.21" width="6.65559" height="51.7657" fill="url(#paint91_linear)"/>
<circle cx="379.21" cy="169.914" r="3.15709" fill="#26CED9"/>
</g>
<g opacity="0.5">
<rect x="398.186" y="184.505" width="6.65559" height="56.9423" fill="url(#paint92_linear)"/>
<circle cx="401.653" cy="184.418" r="3.15709" fill="#26CED9"/>
<rect x="486.928" y="155.887" width="5.91608" height="74.6905" fill="url(#paint93_linear)"/>
<circle cx="490.052" cy="155.863" r="3.15709" fill="#26CED9"/>
</g>
</g>
<g opacity="0.7">
<rect x="442.557" y="149.009" width="6.65559" height="60.6398" fill="url(#paint94_linear)"/>
<circle cx="445.854" cy="149.208" r="3.15709" fill="#26CED9"/>
</g>
<ellipse opacity="0.08" cx="443" cy="188.5" rx="325" ry="123.5" fill="url(#paint95_radial)"/>
<ellipse opacity="0.2" cx="2172.5" cy="147" rx="523.5" ry="302" fill="url(#paint96_radial)"/>
</g>
<defs>
<linearGradient id="paint0_linear" x1="1925.51" y1="485" x2="1925.51" y2="-158" gradientUnits="userSpaceOnUse">
<stop stop-color="#4C34C5"/>
<stop offset="1" stop-color="#020041" stop-opacity="0"/>
</linearGradient>
<radialGradient id="paint1_radial" cx="0" cy="0" r="1" gradientUnits="userSpaceOnUse" gradientTransform="translate(1530 485) rotate(-90) scale(349.123 3200.62)">
<stop stop-color="#E8404E"/>
<stop offset="0.461538" stop-color="#E93B83" stop-opacity="0.5"/>
<stop offset="1" stop-color="#4B2FD7" stop-opacity="0"/>
</radialGradient>
<radialGradient id="paint2_radial" cx="0" cy="0" r="1" gradientUnits="userSpaceOnUse" gradientTransform="translate(1530 508.786) rotate(-90) scale(153.844 1403.91)">
<stop stop-color="#F2BE56"/>
<stop offset="1" stop-color="#F37F2D" stop-opacity="0"/>
</radialGradient>
<radialGradient id="paint3_radial" cx="0" cy="0" r="1" gradientUnits="userSpaceOnUse" gradientTransform="translate(724.5 175) rotate(90) scale(439 435.5)">
<stop stop-color="#26CED9"/>
<stop offset="1" stop-color="#7646FF" stop-opacity="0"/>
</radialGradient>
<linearGradient id="paint4_linear" x1="3.3278" y1="0" x2="3.3278" y2="51.7657" gradientUnits="userSpaceOnUse">
<stop stop-color="#5A9AFB" stop-opacity="0.57"/>
<stop offset="1" stop-color="#5282E0" stop-opacity="0"/>
</linearGradient>
<linearGradient id="paint5_linear" x1="3.3278" y1="0" x2="3.3278" y2="51.7657" gradientUnits="userSpaceOnUse">
<stop stop-color="#5A9AFB" stop-opacity="0.57"/>
<stop offset="1" stop-color="#5282E0" stop-opacity="0"/>
</linearGradient>
<linearGradient id="paint6_linear" x1="3.3278" y1="0" x2="3.3278" y2="51.7657" gradientUnits="userSpaceOnUse">
<stop stop-color="#5A9AFB" stop-opacity="0.57"/>
<stop offset="1" stop-color="#5282E0" stop-opacity="0"/>
</linearGradient>
<linearGradient id="paint7_linear" x1="3.3278" y1="0" x2="3.3278" y2="51.7657" gradientUnits="userSpaceOnUse">
<stop stop-color="#5A9AFB" stop-opacity="0.57"/>
<stop offset="1" stop-color="#5282E0" stop-opacity="0"/>
</linearGradient>
<linearGradient id="paint8_linear" x1="3.3278" y1="0" x2="3.3278" y2="56.9423" gradientUnits="userSpaceOnUse">
<stop stop-color="#5A9AFB" stop-opacity="0.57"/>
<stop offset="1" stop-color="#5282E0" stop-opacity="0"/>
</linearGradient>
<linearGradient id="paint9_linear" x1="2.95804" y1="0" x2="2.95804" y2="74.6905" gradientUnits="userSpaceOnUse">
<stop stop-color="#5A9AFB" stop-opacity="0.57"/>
<stop offset="1" stop-color="#5282E0" stop-opacity="0"/>
</linearGradient>
<linearGradient id="paint10_linear" x1="3.3278" y1="0" x2="3.3278" y2="60.6398" gradientUnits="userSpaceOnUse">
<stop stop-color="#5A9AFB" stop-opacity="0.57"/>
<stop offset="1" stop-color="#5282E0" stop-opacity="0"/>
</linearGradient>
<radialGradient id="paint11_radial" cx="0" cy="0" r="1" gradientUnits="userSpaceOnUse" gradientTransform="translate(325 123.5) rotate(90) scale(123.5 325)">
<stop stop-color="#26CED9"/>
<stop offset="1" stop-color="#1900B5" stop-opacity="0"/>
</radialGradient>
<linearGradient id="paint12_linear" x1="3" y1="0" x2="3" y2="139" gradientUnits="userSpaceOnUse">
<stop stop-color="#5A9AFB" stop-opacity="0.57"/>
<stop offset="1" stop-color="#5282E0" stop-opacity="0"/>
</linearGradient>
<linearGradient id="paint13_linear" x1="3" y1="0" x2="3" y2="95" gradientUnits="userSpaceOnUse">
<stop stop-color="#5A9AFB" stop-opacity="0.57"/>
<stop offset="1" stop-color="#5282E0" stop-opacity="0"/>
</linearGradient>
<linearGradient id="paint14_linear" x1="3" y1="0" x2="3" y2="95" gradientUnits="userSpaceOnUse">
<stop stop-color="#5A9AFB" stop-opacity="0.57"/>
<stop offset="1" stop-color="#5282E0" stop-opacity="0"/>
</linearGradient>
<linearGradient id="paint15_linear" x1="3" y1="0" x2="3" y2="73" gradientUnits="userSpaceOnUse">
<stop stop-color="#5A9AFB" stop-opacity="0.57"/>
<stop offset="1" stop-color="#5282E0" stop-opacity="0"/>
</linearGradient>
<linearGradient id="paint16_linear" x1="3" y1="0" x2="3" y2="64" gradientUnits="userSpaceOnUse">
<stop stop-color="#5A9AFB" stop-opacity="0.57"/>
<stop offset="1" stop-color="#5282E0" stop-opacity="0"/>
</linearGradient>
<linearGradient id="paint17_linear" x1="3" y1="0" x2="3" y2="95" gradientUnits="userSpaceOnUse">
<stop stop-color="#5A9AFB" stop-opacity="0.57"/>
<stop offset="1" stop-color="#5282E0" stop-opacity="0"/>
</linearGradient>
<linearGradient id="paint18_linear" x1="3" y1="0" x2="3" y2="46" gradientUnits="userSpaceOnUse">
<stop stop-color="#5A9AFB" stop-opacity="0.57"/>
<stop offset="1" stop-color="#5282E0" stop-opacity="0"/>
</linearGradient>
<linearGradient id="paint19_linear" x1="3" y1="0" x2="3" y2="52" gradientUnits="userSpaceOnUse">
<stop stop-color="#5A9AFB" stop-opacity="0.57"/>
<stop offset="1" stop-color="#5282E0" stop-opacity="0"/>
</linearGradient>
<linearGradient id="paint20_linear" x1="3" y1="0" x2="3" y2="41" gradientUnits="userSpaceOnUse">
<stop stop-color="#5A9AFB" stop-opacity="0.57"/>
<stop offset="1" stop-color="#5282E0" stop-opacity="0"/>
</linearGradient>
<linearGradient id="paint21_linear" x1="3" y1="0" x2="3" y2="46" gradientUnits="userSpaceOnUse">
<stop stop-color="#5A9AFB" stop-opacity="0.57"/>
<stop offset="1" stop-color="#5282E0" stop-opacity="0"/>
</linearGradient>
<linearGradient id="paint22_linear" x1="3" y1="0" x2="3" y2="75" gradientUnits="userSpaceOnUse">
<stop stop-color="#5A9AFB" stop-opacity="0.57"/>
<stop offset="1" stop-color="#5282E0" stop-opacity="0"/>
</linearGradient>
<linearGradient id="paint23_linear" x1="3" y1="0" x2="3" y2="68" gradientUnits="userSpaceOnUse">
<stop stop-color="#5A9AFB" stop-opacity="0.57"/>
<stop offset="1" stop-color="#5282E0" stop-opacity="0"/>
</linearGradient>
<linearGradient id="paint24_linear" x1="3" y1="0" x2="3" y2="46" gradientUnits="userSpaceOnUse">
<stop stop-color="#5A9AFB" stop-opacity="0.57"/>
<stop offset="1" stop-color="#5282E0" stop-opacity="0"/>
</linearGradient>
<linearGradient id="paint25_linear" x1="3" y1="0" x2="3" y2="46" gradientUnits="userSpaceOnUse">
<stop stop-color="#5A9AFB" stop-opacity="0.57"/>
<stop offset="1" stop-color="#5282E0" stop-opacity="0"/>
</linearGradient>
<linearGradient id="paint26_linear" x1="3.15709" y1="0" x2="3.15709" y2="145.226" gradientUnits="userSpaceOnUse">
<stop stop-color="#5A9AFB" stop-opacity="0.57"/>
<stop offset="1" stop-color="#5282E0" stop-opacity="0"/>
</linearGradient>
<linearGradient id="paint27_linear" x1="2.99999" y1="0" x2="2.99999" y2="115" gradientUnits="userSpaceOnUse">
<stop stop-color="#5A9AFB" stop-opacity="0.57"/>
<stop offset="1" stop-color="#5282E0" stop-opacity="0"/>
</linearGradient>
<linearGradient id="paint28_linear" x1="3" y1="0" x2="3" y2="31" gradientUnits="userSpaceOnUse">
<stop stop-color="#5A9AFB" stop-opacity="0.57"/>
<stop offset="1" stop-color="#5282E0" stop-opacity="0"/>
</linearGradient>
<linearGradient id="paint29_linear" x1="3" y1="0" x2="3" y2="51" gradientUnits="userSpaceOnUse">
<stop stop-color="#5AFBFB" stop-opacity="0.57"/>
<stop offset="1" stop-color="#5282E0" stop-opacity="0"/>
</linearGradient>
<linearGradient id="paint30_linear" x1="3" y1="0" x2="3" y2="97" gradientUnits="userSpaceOnUse">
<stop stop-color="#5AFBFB" stop-opacity="0.57"/>
<stop offset="1" stop-color="#5282E0" stop-opacity="0"/>
</linearGradient>
<linearGradient id="paint31_linear" x1="3" y1="0" x2="3" y2="71" gradientUnits="userSpaceOnUse">
<stop stop-color="#5AFBE8" stop-opacity="0.57"/>
<stop offset="1" stop-color="#5282E0" stop-opacity="0"/>
</linearGradient>
<linearGradient id="paint32_linear" x1="3" y1="0" x2="3" y2="71" gradientUnits="userSpaceOnUse">
<stop stop-color="#5AFBE8" stop-opacity="0.57"/>
<stop offset="1" stop-color="#5282E0" stop-opacity="0"/>
</linearGradient>
<linearGradient id="paint33_linear" x1="3" y1="0" x2="3" y2="101" gradientUnits="userSpaceOnUse">
<stop stop-color="#5AFBE8" stop-opacity="0.57"/>
<stop offset="1" stop-color="#5282E0" stop-opacity="0"/>
</linearGradient>
<linearGradient id="paint34_linear" x1="3" y1="0" x2="3" y2="71" gradientUnits="userSpaceOnUse">
<stop stop-color="#5AFBE8" stop-opacity="0.57"/>
<stop offset="1" stop-color="#5282E0" stop-opacity="0"/>
</linearGradient>
<linearGradient id="paint35_linear" x1="3" y1="0" x2="3" y2="72" gradientUnits="userSpaceOnUse">
<stop stop-color="#5AFBE8" stop-opacity="0.57"/>
<stop offset="1" stop-color="#5282E0" stop-opacity="0"/>
</linearGradient>
<linearGradient id="paint36_linear" x1="3" y1="0" x2="3" y2="60" gradientUnits="userSpaceOnUse">
<stop stop-color="#5AFBE8" stop-opacity="0.57"/>
<stop offset="1" stop-color="#5282E0" stop-opacity="0"/>
</linearGradient>
<linearGradient id="paint37_linear" x1="3" y1="0" x2="3" y2="36" gradientUnits="userSpaceOnUse">
<stop stop-color="#5AFBE8" stop-opacity="0.57"/>
<stop offset="1" stop-color="#5282E0" stop-opacity="0"/>
</linearGradient>
<linearGradient id="paint38_linear" x1="2192.25" y1="143.157" x2="2192.25" y2="288.383" gradientUnits="userSpaceOnUse">
<stop stop-color="#5A9AFB" stop-opacity="0.57"/>
<stop offset="1" stop-color="#5282E0" stop-opacity="0"/>
</linearGradient>
<linearGradient id="paint39_linear" x1="2192" y1="-11" x2="2192" y2="84" gradientUnits="userSpaceOnUse">
<stop stop-color="#5A9AFB" stop-opacity="0.57"/>
<stop offset="1" stop-color="#5282E0" stop-opacity="0"/>
</linearGradient>
<linearGradient id="paint40_linear" x1="2170" y1="151" x2="2170" y2="235" gradientUnits="userSpaceOnUse">
<stop stop-color="#5A9AFB" stop-opacity="0.57"/>
<stop offset="1" stop-color="#5282E0" stop-opacity="0"/>
</linearGradient>
<linearGradient id="paint41_linear" x1="2170" y1="14" x2="2170" y2="60" gradientUnits="userSpaceOnUse">
<stop stop-color="#5A9AFB" stop-opacity="0.57"/>
<stop offset="1" stop-color="#5282E0" stop-opacity="0"/>
</linearGradient>
<linearGradient id="paint42_linear" x1="2148.05" y1="154.157" x2="2148.05" y2="299.383" gradientUnits="userSpaceOnUse">
<stop stop-color="#5A9AFB" stop-opacity="0.57"/>
<stop offset="1" stop-color="#5282E0" stop-opacity="0"/>
</linearGradient>
<linearGradient id="paint43_linear" x1="1993.5" y1="252" x2="1993.5" y2="318" gradientUnits="userSpaceOnUse">
<stop stop-color="#5A9AFB" stop-opacity="0.57"/>
<stop offset="1" stop-color="#5282E0" stop-opacity="0"/>
</linearGradient>
<linearGradient id="paint44_linear" x1="1971" y1="272" x2="1971" y2="327" gradientUnits="userSpaceOnUse">
<stop stop-color="#5A9AFB" stop-opacity="0.57"/>
<stop offset="1" stop-color="#5282E0" stop-opacity="0"/>
</linearGradient>
<linearGradient id="paint45_linear" x1="2104" y1="160" x2="2104" y2="269" gradientUnits="userSpaceOnUse">
<stop stop-color="#5A9AFB" stop-opacity="0.57"/>
<stop offset="1" stop-color="#5282E0" stop-opacity="0"/>
</linearGradient>
<linearGradient id="paint46_linear" x1="1949" y1="275" x2="1949" y2="347" gradientUnits="userSpaceOnUse">
<stop stop-color="#5A9AFB" stop-opacity="0.57"/>
<stop offset="1" stop-color="#5282E0" stop-opacity="0"/>
</linearGradient>
<linearGradient id="paint47_linear" x1="1927" y1="279" x2="1927" y2="321" gradientUnits="userSpaceOnUse">
<stop stop-color="#5A9AFB" stop-opacity="0.57"/>
<stop offset="1" stop-color="#5282E0" stop-opacity="0"/>
</linearGradient>
<linearGradient id="paint48_linear" x1="1927" y1="326" x2="1927" y2="368" gradientUnits="userSpaceOnUse">
<stop stop-color="#5A9AFB" stop-opacity="0.57"/>
<stop offset="1" stop-color="#5282E0" stop-opacity="0"/>
</linearGradient>
<linearGradient id="paint49_linear" x1="1971" y1="319" x2="1971" y2="361" gradientUnits="userSpaceOnUse">
<stop stop-color="#5A9AFB" stop-opacity="0.57"/>
<stop offset="1" stop-color="#5282E0" stop-opacity="0"/>
</linearGradient>
<linearGradient id="paint50_linear" x1="2126" y1="264" x2="2126" y2="306" gradientUnits="userSpaceOnUse">
<stop stop-color="#5A9AFB" stop-opacity="0.57"/>
<stop offset="1" stop-color="#5282E0" stop-opacity="0"/>
</linearGradient>
<linearGradient id="paint51_linear" x1="2170" y1="251" x2="2170" y2="293" gradientUnits="userSpaceOnUse">
<stop stop-color="#5A9AFB" stop-opacity="0.57"/>
<stop offset="1" stop-color="#5282E0" stop-opacity="0"/>
</linearGradient>
<linearGradient id="paint52_linear" x1="1906" y1="281" x2="1906" y2="323" gradientUnits="userSpaceOnUse">
<stop stop-color="#5A9AFB" stop-opacity="0.57"/>
<stop offset="1" stop-color="#5282E0" stop-opacity="0"/>
</linearGradient>
<linearGradient id="paint53_linear" x1="1906" y1="330" x2="1906" y2="372" gradientUnits="userSpaceOnUse">
<stop stop-color="#5A9AFB" stop-opacity="0.57"/>
<stop offset="1" stop-color="#5282E0" stop-opacity="0"/>
</linearGradient>
<linearGradient id="paint54_linear" x1="1885" y1="283" x2="1885" y2="325" gradientUnits="userSpaceOnUse">
<stop stop-color="#5A9AFB" stop-opacity="0.57"/>
<stop offset="1" stop-color="#5282E0" stop-opacity="0"/>
</linearGradient>
<linearGradient id="paint55_linear" x1="1885" y1="336" x2="1885" y2="378" gradientUnits="userSpaceOnUse">
<stop stop-color="#5A9AFB" stop-opacity="0.57"/>
<stop offset="1" stop-color="#5282E0" stop-opacity="0"/>
</linearGradient>
<linearGradient id="paint56_linear" x1="1864" y1="353" x2="1864" y2="395" gradientUnits="userSpaceOnUse">
<stop stop-color="#5A9AFB" stop-opacity="0.57"/>
<stop offset="1" stop-color="#5282E0" stop-opacity="0"/>
</linearGradient>
<linearGradient id="paint57_linear" x1="2126" y1="158" x2="2126" y2="233" gradientUnits="userSpaceOnUse">
<stop stop-color="#5A9AFB" stop-opacity="0.57"/>
<stop offset="1" stop-color="#5282E0" stop-opacity="0"/>
</linearGradient>
<linearGradient id="paint58_linear" x1="2082" y1="269" x2="2082" y2="330" gradientUnits="userSpaceOnUse">
<stop stop-color="#5A9AFB" stop-opacity="0.57"/>
<stop offset="1" stop-color="#5282E0" stop-opacity="0"/>
</linearGradient>
<linearGradient id="paint59_linear" x1="2037.56" y1="173.157" x2="2037.56" y2="318.383" gradientUnits="userSpaceOnUse">
<stop stop-color="#5A9AFB" stop-opacity="0.57"/>
<stop offset="1" stop-color="#5282E0" stop-opacity="0"/>
</linearGradient>
<linearGradient id="paint60_linear" x1="2037.5" y1="279" x2="2037.5" y2="386" gradientUnits="userSpaceOnUse">
<stop stop-color="#5A9AFB" stop-opacity="0.57"/>
<stop offset="1" stop-color="#5282E0" stop-opacity="0"/>
</linearGradient>
<linearGradient id="paint61_linear" x1="2059.5" y1="269" x2="2059.5" y2="348" gradientUnits="userSpaceOnUse">
<stop stop-color="#5A9AFB" stop-opacity="0.57"/>
<stop offset="1" stop-color="#5282E0" stop-opacity="0"/>
</linearGradient>
<linearGradient id="paint62_linear" x1="2258.55" y1="-35.8428" x2="2258.55" y2="109.383" gradientUnits="userSpaceOnUse">
<stop stop-color="#5A9AFB" stop-opacity="0.57"/>
<stop offset="1" stop-color="#5282E0" stop-opacity="0"/>
</linearGradient>
<linearGradient id="paint63_linear" x1="2214.35" y1="-23.8431" x2="2214.35" y2="121.383" gradientUnits="userSpaceOnUse">
<stop stop-color="#5A9AFB" stop-opacity="0.57"/>
<stop offset="1" stop-color="#5282E0" stop-opacity="0"/>
</linearGradient>
<linearGradient id="paint64_linear" x1="2236" y1="-33" x2="2236" y2="36" gradientUnits="userSpaceOnUse">
<stop stop-color="#5A9AFB" stop-opacity="0.57"/>
<stop offset="1" stop-color="#5282E0" stop-opacity="0"/>
</linearGradient>
<linearGradient id="paint65_linear" x1="2302" y1="-41" x2="2302" y2="28" gradientUnits="userSpaceOnUse">
<stop stop-color="#5A9AFB" stop-opacity="0.57"/>
<stop offset="1" stop-color="#5282E0" stop-opacity="0"/>
</linearGradient>
<linearGradient id="paint66_linear" x1="2280" y1="-39" x2="2280" y2="30" gradientUnits="userSpaceOnUse">
<stop stop-color="#5A9AFB" stop-opacity="0.57"/>
<stop offset="1" stop-color="#5282E0" stop-opacity="0"/>
</linearGradient>
<linearGradient id="paint67_linear" x1="2081.34" y1="162.157" x2="2081.34" y2="307.383" gradientUnits="userSpaceOnUse">
<stop stop-color="#5AFBFB" stop-opacity="0.57"/>
<stop offset="1" stop-color="#5282E0" stop-opacity="0"/>
</linearGradient>
<linearGradient id="paint68_linear" x1="2214" y1="253" x2="2214" y2="304" gradientUnits="userSpaceOnUse">
<stop stop-color="#5AFBFB" stop-opacity="0.57"/>
<stop offset="1" stop-color="#5282E0" stop-opacity="0"/>
</linearGradient>
<linearGradient id="paint69_linear" x1="2192" y1="256" x2="2192" y2="307" gradientUnits="userSpaceOnUse">
<stop stop-color="#5AFBFB" stop-opacity="0.57"/>
<stop offset="1" stop-color="#5282E0" stop-opacity="0"/>
</linearGradient>
<linearGradient id="paint70_linear" x1="2237" y1="245" x2="2237" y2="268" gradientUnits="userSpaceOnUse">
<stop stop-color="#5AFBFB" stop-opacity="0.57"/>
<stop offset="1" stop-color="#5282E0" stop-opacity="0"/>
</linearGradient>
<linearGradient id="paint71_linear" x1="2258" y1="235" x2="2258" y2="258" gradientUnits="userSpaceOnUse">
<stop stop-color="#5AFBFB" stop-opacity="0.57"/>
<stop offset="1" stop-color="#5282E0" stop-opacity="0"/>
</linearGradient>
<linearGradient id="paint72_linear" x1="2215" y1="105" x2="2215" y2="176" gradientUnits="userSpaceOnUse">
<stop stop-color="#5AFBE8" stop-opacity="0.57"/>
<stop offset="1" stop-color="#5282E0" stop-opacity="0"/>
</linearGradient>
<linearGradient id="paint73_linear" x1="2192.49" y1="87" x2="2192.49" y2="158" gradientUnits="userSpaceOnUse">
<stop stop-color="#5AFBE8" stop-opacity="0.57"/>
<stop offset="1" stop-color="#5282E0" stop-opacity="0"/>
</linearGradient>
<linearGradient id="paint74_linear" x1="2170.49" y1="50" x2="2170.49" y2="121" gradientUnits="userSpaceOnUse">
<stop stop-color="#5AFBE8" stop-opacity="0.57"/>
<stop offset="1" stop-color="#5282E0" stop-opacity="0"/>
</linearGradient>
<linearGradient id="paint75_linear" x1="2015.01" y1="184" x2="2015.01" y2="235" gradientUnits="userSpaceOnUse">
<stop stop-color="#5A9AFB" stop-opacity="0.57"/>
<stop offset="1" stop-color="#5282E0" stop-opacity="0"/>
</linearGradient>
<linearGradient id="paint76_linear" x1="2015.01" y1="310" x2="2015.01" y2="361" gradientUnits="userSpaceOnUse">
<stop stop-color="#5A9AFB" stop-opacity="0.57"/>
<stop offset="1" stop-color="#5282E0" stop-opacity="0"/>
</linearGradient>
<linearGradient id="paint77_linear" x1="2059.5" y1="167" x2="2059.5" y2="233" gradientUnits="userSpaceOnUse">
<stop stop-color="#5AFBE8" stop-opacity="0.57"/>
<stop offset="1" stop-color="#5282E0" stop-opacity="0"/>
</linearGradient>
<linearGradient id="paint78_linear" x1="208.5" y1="420" x2="208.5" y2="946" gradientUnits="userSpaceOnUse">
<stop stop-color="#010038"/>
<stop offset="1" stop-color="#010038" stop-opacity="0"/>
</linearGradient>
<linearGradient id="paint79_linear" x1="3271.5" y1="-1" x2="3271.5" y2="525" gradientUnits="userSpaceOnUse">
<stop stop-color="#010038"/>
<stop offset="1" stop-color="#010038" stop-opacity="0"/>
</linearGradient>
<linearGradient id="paint80_linear" x1="3.3278" y1="0" x2="3.3278" y2="51.7657" gradientUnits="userSpaceOnUse">
<stop stop-color="#5A9AFB" stop-opacity="0.57"/>
<stop offset="1" stop-color="#5282E0" stop-opacity="0"/>
</linearGradient>
<linearGradient id="paint81_linear" x1="3.3278" y1="0" x2="3.3278" y2="51.7657" gradientUnits="userSpaceOnUse">
<stop stop-color="#5A9AFB" stop-opacity="0.57"/>
<stop offset="1" stop-color="#5282E0" stop-opacity="0"/>
</linearGradient>
<linearGradient id="paint82_linear" x1="3.3278" y1="0" x2="3.3278" y2="51.7657" gradientUnits="userSpaceOnUse">
<stop stop-color="#5A9AFB" stop-opacity="0.57"/>
<stop offset="1" stop-color="#5282E0" stop-opacity="0"/>
</linearGradient>
<linearGradient id="paint83_linear" x1="3.3278" y1="0" x2="3.3278" y2="51.7657" gradientUnits="userSpaceOnUse">
<stop stop-color="#5A9AFB" stop-opacity="0.57"/>
<stop offset="1" stop-color="#5282E0" stop-opacity="0"/>
</linearGradient>
<linearGradient id="paint84_linear" x1="3.3278" y1="0" x2="3.3278" y2="56.9423" gradientUnits="userSpaceOnUse">
<stop stop-color="#5A9AFB" stop-opacity="0.57"/>
<stop offset="1" stop-color="#5282E0" stop-opacity="0"/>
</linearGradient>
<linearGradient id="paint85_linear" x1="2.95804" y1="0" x2="2.95804" y2="74.6905" gradientUnits="userSpaceOnUse">
<stop stop-color="#5A9AFB" stop-opacity="0.57"/>
<stop offset="1" stop-color="#5282E0" stop-opacity="0"/>
</linearGradient>
<linearGradient id="paint86_linear" x1="3.3278" y1="0" x2="3.3278" y2="60.6398" gradientUnits="userSpaceOnUse">
<stop stop-color="#5A9AFB" stop-opacity="0.57"/>
<stop offset="1" stop-color="#5282E0" stop-opacity="0"/>
</linearGradient>
<radialGradient id="paint87_radial" cx="0" cy="0" r="1" gradientUnits="userSpaceOnUse" gradientTransform="translate(325 123.5) rotate(90) scale(123.5 325)">
<stop stop-color="#26CED9"/>
<stop offset="1" stop-color="#1900B5" stop-opacity="0"/>
</radialGradient>
<linearGradient id="paint88_linear" x1="423.699" y1="157.56" x2="423.699" y2="209.326" gradientUnits="userSpaceOnUse">
<stop stop-color="#5A9AFB" stop-opacity="0.57"/>
<stop offset="1" stop-color="#5282E0" stop-opacity="0"/>
</linearGradient>
<linearGradient id="paint89_linear" x1="468.07" y1="147.285" x2="468.07" y2="199.051" gradientUnits="userSpaceOnUse">
<stop stop-color="#5A9AFB" stop-opacity="0.57"/>
<stop offset="1" stop-color="#5282E0" stop-opacity="0"/>
</linearGradient>
<linearGradient id="paint90_linear" x1="511.701" y1="135.453" x2="511.701" y2="187.219" gradientUnits="userSpaceOnUse">
<stop stop-color="#5A9AFB" stop-opacity="0.57"/>
<stop offset="1" stop-color="#5282E0" stop-opacity="0"/>
</linearGradient>
<linearGradient id="paint91_linear" x1="379.328" y1="170.21" x2="379.328" y2="221.976" gradientUnits="userSpaceOnUse">
<stop stop-color="#5A9AFB" stop-opacity="0.57"/>
<stop offset="1" stop-color="#5282E0" stop-opacity="0"/>
</linearGradient>
<linearGradient id="paint92_linear" x1="401.513" y1="184.505" x2="401.513" y2="241.448" gradientUnits="userSpaceOnUse">
<stop stop-color="#5A9AFB" stop-opacity="0.57"/>
<stop offset="1" stop-color="#5282E0" stop-opacity="0"/>
</linearGradient>
<linearGradient id="paint93_linear" x1="489.886" y1="155.887" x2="489.886" y2="230.577" gradientUnits="userSpaceOnUse">
<stop stop-color="#5A9AFB" stop-opacity="0.57"/>
<stop offset="1" stop-color="#5282E0" stop-opacity="0"/>
</linearGradient>
<linearGradient id="paint94_linear" x1="445.884" y1="149.009" x2="445.884" y2="209.649" gradientUnits="userSpaceOnUse">
<stop stop-color="#5A9AFB" stop-opacity="0.57"/>
<stop offset="1" stop-color="#5282E0" stop-opacity="0"/>
</linearGradient>
<radialGradient id="paint95_radial" cx="0" cy="0" r="1" gradientUnits="userSpaceOnUse" gradientTransform="translate(443 188.5) rotate(90) scale(123.5 325)">
<stop stop-color="#26CED9"/>
<stop offset="1" stop-color="#1900B5" stop-opacity="0"/>
</radialGradient>
<radialGradient id="paint96_radial" cx="0" cy="0" r="1" gradientUnits="userSpaceOnUse" gradientTransform="translate(2172.5 147) rotate(90) scale(302 523.5)">
<stop stop-color="#26CED9"/>
<stop offset="1" stop-color="#9482ED" stop-opacity="0"/>
</radialGradient>
<clipPath id="clip0">
<rect width="3061" height="420" fill="white"/>
</clipPath>
</defs>
</svg>
