<svg width="1920" height="293" style="background: #0D0D3D;" viewBox="0 0 1920 293" fill="none" xmlns="http://www.w3.org/2000/svg">
<path opacity="0.2" d="M361 135H217V157H361V135Z" fill="#1E1ED7"/>
<path opacity="0.2" d="M65 135H0V157H65V135Z" fill="#1E1ED7"/>
<path opacity="0.2" d="M66 93H0V114H66V93Z" fill="#1E1ED7"/>
<path d="M66 6H0V27H66V6Z" fill="url(#paint0_linear)"/>
<path d="M250 48H22V69H250V48Z" fill="#1E1ED7" fill-opacity="0.7"/>
<path opacity="0.2" d="M196.7 92.5H87.2998V156.2H196.7V92.5Z" fill="#1E1ED7"/>
<path d="M22 6H0V27H22V6Z" fill="url(#paint1_linear)"/>
<path d="M23.2998 0.199951H21.2998V32.8H23.2998V0.199951Z" fill="#FFD44D"/>
<path d="M162.4 48.1001H116V69.3001H162.4V48.1001Z" fill="url(#paint2_linear)"/>
<path d="M163.9 43H161.9V75.6H163.9V43Z" fill="#ED5A29"/>
<g opacity="0.8">
<path opacity="0.8" d="M122.7 124.5C122.7 125.5 123.5 126.3 124.5 126.3H130V115.4H124.5C123.5 115.4 122.7 116.2 122.7 117.2V124.5Z" stroke="#1E1ED7" stroke-width="1.75" stroke-linecap="round" stroke-linejoin="round"/>
<path opacity="0.8" d="M160.8 126.3H155.3V115.4H160.8C161.8 115.4 162.6 116.2 162.6 117.2V124.5C162.6 125.5 161.8 126.3 160.8 126.3Z" stroke="#1E1ED7" stroke-width="1.75" stroke-linecap="round" stroke-linejoin="round"/>
<path opacity="0.8" d="M158.9 115.4C158 107.1 151 100.9 142.6 100.9C134.2 100.9 127.3 107.1 126.4 115.4" stroke="#1E1ED7" stroke-width="1.75" stroke-linecap="round" stroke-linejoin="round"/>
<path opacity="0.8" d="M133.6 140.7V142.7C133.6 147.7 137.7 151.8 142.7 151.8C147.7 151.8 151.8 147.7 151.8 142.7V140.7" stroke="#1E1ED7" stroke-width="1.75" stroke-linecap="round" stroke-linejoin="round"/>
<path opacity="0.8" d="M129.9 120.4C131.2 121.3 132.8 121.8 134.4 121.8C138.2 121.6 141.4 119.1 142.6 115.4C143.7 119 147 121.6 150.8 121.8C152.4 121.8 154 121.3 155.3 120.4" stroke="#1E1ED7" stroke-width="1.75" stroke-linecap="round" stroke-linejoin="round"/>
<path opacity="0.8" d="M142.6 133.6C149.6 133.6 155.3 127.9 155.3 120.9C155.3 113.9 149.6 108.2 142.6 108.2C135.6 108.2 129.9 113.9 129.9 120.9C129.9 127.9 135.6 133.6 142.6 133.6Z" stroke="#1E1ED7" stroke-width="1.75" stroke-linecap="round" stroke-linejoin="round"/>
<path opacity="0.8" d="M166.4 155.4C162.6 145.5 153.2 139 142.6 139C132 139 122.6 145.5 118.8 155.4" stroke="#1E1ED7" stroke-width="1.75" stroke-linecap="round" stroke-linejoin="round"/>
<path opacity="0.8" d="M129.9 126.3C129.6 131 126.9 135.2 122.6 137.2" stroke="#1E1ED7" stroke-width="1.75" stroke-linecap="round" stroke-linejoin="round"/>
<path opacity="0.8" d="M155.4 126.3C155.7 131 158.4 135.2 162.7 137.2" stroke="#1E1ED7" stroke-width="1.75" stroke-linecap="round" stroke-linejoin="round"/>
</g>
<path d="M126.3 194H32V200.2H126.3V194Z" fill="url(#paint3_linear)"/>
<path opacity="0.13" d="M1438.4 265H1510.4V287H1438.4V265Z" fill="#1E1ED7"/>
<path d="M1672 221H1920V243H1672V221Z" fill="#1E1ED7" fill-opacity="0.7"/>
<path opacity="0.75" d="M1528.3 265.3H1848.9V286.7H1528.3V265.3Z" fill="#1E1ED7" fill-opacity="0.7"/>
<path d="M1596.7 265.3H1643.1V286.5H1596.7V265.3Z" fill="url(#paint4_linear)"/>
<path d="M1708.6 221.3H1755V242.6H1708.6V221.3Z" fill="url(#paint5_linear)"/>
<path d="M1706.8 216.1H1708.8V248.7H1706.8V216.1Z" fill="#00E2B6"/>
<path d="M1595.2 260.2H1597.2V292.8H1595.2V260.2Z" fill="#ED5A29"/>
<path opacity="0.3" d="M1879.1 197.9C1873.63 197.9 1869.2 193.467 1869.2 188C1869.2 182.532 1873.63 178.1 1879.1 178.1C1884.57 178.1 1889 182.532 1889 188C1889 193.467 1884.57 197.9 1879.1 197.9Z" fill="#00BCB7"/>
<path opacity="0.3" d="M1707.5 197.9C1702.03 197.9 1697.6 193.467 1697.6 188C1697.6 182.532 1702.03 178.1 1707.5 178.1C1712.97 178.1 1717.4 182.532 1717.4 188C1717.4 193.467 1712.97 197.9 1707.5 197.9Z" fill="#00BCB7"/>
<path d="M1728.6 189H1856.4C1857 189 1857.4 188.6 1857.4 188C1857.4 187.4 1857 187 1856.4 187H1728.5C1727.9 187 1727.5 187.4 1727.5 188C1727.5 188.6 1728 189 1728.6 189Z" fill="#00BCB7"/>
<path d="M1737 198.3C1737.3 198.3 1737.5 198.2 1737.7 198C1738.1 197.6 1738.1 197 1737.7 196.6L1729.2 188.1L1737.7 179.6C1738.1 179.2 1738.1 178.6 1737.7 178.2C1737.3 177.8 1736.7 177.8 1736.3 178.2L1727.1 187.4C1726.9 187.6 1726.8 187.8 1726.8 188.1C1726.8 188.4 1726.9 188.6 1727.1 188.8L1736.3 198C1736.5 198.2 1736.8 198.3 1737 198.3Z" fill="#00BCB7"/>
<path opacity="0.7" d="M1879.2 190.5C1877.87 190.5 1876.8 189.425 1876.8 188.1C1876.8 186.774 1877.87 185.7 1879.2 185.7C1880.53 185.7 1881.6 186.774 1881.6 188.1C1881.6 189.425 1880.53 190.5 1879.2 190.5Z" fill="#00E2B6"/>
<path opacity="0.7" d="M1707.6 190.5C1706.27 190.5 1705.2 189.425 1705.2 188.1C1705.2 186.774 1706.27 185.7 1707.6 185.7C1708.93 185.7 1710 186.774 1710 188.1C1710 189.425 1708.93 190.5 1707.6 190.5Z" fill="#00E2B6"/>
<path opacity="0.3" d="M1779.5 52.6999C1774.03 52.6999 1769.6 48.2675 1769.6 42.7999C1769.6 37.3323 1774.03 32.8999 1779.5 32.8999C1784.97 32.8999 1789.4 37.3323 1789.4 42.7999C1789.4 48.2675 1784.97 52.6999 1779.5 52.6999Z" fill="#ED5A29"/>
<path opacity="0.3" d="M1490.1 52.6999C1484.63 52.6999 1480.2 48.2675 1480.2 42.7999C1480.2 37.3323 1484.63 32.8999 1490.1 32.8999C1495.57 32.8999 1500 37.3323 1500 42.7999C1500 48.2675 1495.57 52.6999 1490.1 52.6999Z" fill="#ED5A29"/>
<path opacity="0.3" d="M1707 89.6C1701.53 89.6 1697.1 85.1677 1697.1 79.7C1697.1 74.2324 1701.53 69.8 1707 69.8C1712.47 69.8 1716.9 74.2324 1716.9 79.7C1716.9 85.1677 1712.47 89.6 1707 89.6Z" fill="#245EFF"/>
<path opacity="0.3" d="M1616.6 89.6C1611.13 89.6 1606.7 85.1677 1606.7 79.7C1606.7 74.2324 1611.13 69.8 1616.6 69.8C1622.07 69.8 1626.5 74.2324 1626.5 79.7C1626.5 85.1677 1622.07 89.6 1616.6 89.6Z" fill="#245EFF"/>
<path opacity="0.3" d="M1707 163C1701.53 163 1697.1 158.568 1697.1 153.1C1697.1 147.632 1701.53 143.2 1707 143.2C1712.47 143.2 1716.9 147.632 1716.9 153.1C1716.9 158.568 1712.47 163 1707 163Z" fill="#00BCB7"/>
<path opacity="0.3" d="M1524.3 163C1518.83 163 1514.4 158.568 1514.4 153.1C1514.4 147.632 1518.83 143.2 1524.3 143.2C1529.77 143.2 1534.2 147.632 1534.2 153.1C1534.2 158.568 1529.77 163 1524.3 163Z" fill="#00BCB7"/>
<path opacity="0.75" d="M1511.2 43.8H1757.8C1758.4 43.8 1758.8 43.4 1758.8 42.8C1758.8 42.2 1758.4 41.8 1757.8 41.8H1511.2C1510.6 41.8 1510.2 42.2 1510.2 42.8C1510.2 43.4 1510.6 43.8 1511.2 43.8Z" fill="#FF7F00"/>
<path opacity="0.75" d="M1798.49 44H1919.51C1919.8 44 1920 43.6 1920 43C1920 42.4 1919.8 42 1919.51 42H1798.49C1798.2 42 1798 42.4 1798 43C1798 43.6 1798.2 44 1798.49 44Z" fill="#FF7F00"/>
<path opacity="0.75" d="M1519.6 53.0999C1519.9 53.0999 1520.1 52.9999 1520.3 52.7999C1520.7 52.3999 1520.7 51.8 1520.3 51.4L1511.8 42.9L1520.3 34.4C1520.7 34 1520.7 33.4 1520.3 33C1519.9 32.6 1519.3 32.6 1518.9 33L1509.7 42.2C1509.5 42.4 1509.4 42.6 1509.4 42.9C1509.4 43.2 1509.5 43.3999 1509.7 43.5999L1518.9 52.7999C1519.1 52.9999 1519.4 53.0999 1519.6 53.0999Z" fill="#FF7F00"/>
<path d="M1724.3 72.4998C1724.5 72.4998 1724.6 72.4998 1724.8 72.3998L1760.4 54.1998C1760.9 53.9998 1761.1 53.2998 1760.8 52.8998C1760.5 52.3998 1759.9 52.1998 1759.5 52.4998L1723.8 70.6998C1723.3 70.8998 1723.1 71.5998 1723.4 71.9998C1723.6 72.2998 1723.9 72.4998 1724.3 72.4998Z" fill="#245EFF"/>
<path opacity="0.75" d="M1636.1 80.7H1686.6C1687.2 80.7 1687.6 80.3 1687.6 79.7C1687.6 79.1 1687.2 78.7 1686.6 78.7H1636.1C1635.5 78.7 1635.1 79.1 1635.1 79.7C1635.1 80.3 1635.6 80.7 1636.1 80.7Z" fill="#245EFF"/>
<path opacity="0.75" d="M1644.6 89.9C1644.9 89.9 1645.1 89.8 1645.3 89.6C1645.7 89.2 1645.7 88.6 1645.3 88.2L1636.8 79.7L1645.3 71.2C1645.7 70.8 1645.7 70.2 1645.3 69.8C1644.9 69.4 1644.3 69.4 1643.9 69.8L1634.7 79C1634.5 79.2 1634.4 79.4 1634.4 79.7C1634.4 80 1634.5 80.2 1634.7 80.4L1643.9 89.6C1644.1 89.8 1644.3 89.9 1644.6 89.9Z" fill="#245EFF"/>
<path opacity="0.7" d="M1544.3 154.3H1688.6C1689.2 154.3 1689.6 153.9 1689.6 153.3C1689.6 152.7 1689.2 152.3 1688.6 152.3H1544.3C1543.7 152.3 1543.3 152.7 1543.3 153.3C1543.3 153.9 1543.8 154.3 1544.3 154.3Z" fill="#00E2B6"/>
<path opacity="0.7" d="M1552.8 163.5C1553.1 163.5 1553.3 163.4 1553.5 163.2C1553.9 162.8 1553.9 162.2 1553.5 161.8L1545 153.3L1553.5 144.8C1553.9 144.4 1553.9 143.8 1553.5 143.4C1553.1 143 1552.5 143 1552.1 143.4L1542.9 152.6C1542.7 152.8 1542.6 153 1542.6 153.3C1542.6 153.6 1542.7 153.8 1542.9 154L1552.1 163.2C1552.3 163.4 1552.5 163.5 1552.8 163.5Z" fill="#00E2B6"/>
<path d="M1779.6 45.3C1778.27 45.3 1777.2 44.2255 1777.2 42.9C1777.2 41.5745 1778.27 40.5 1779.6 40.5C1780.93 40.5 1782 41.5745 1782 42.9C1782 44.2255 1780.93 45.3 1779.6 45.3Z" fill="#FF7F00"/>
<path d="M1707.4 82.1C1706.07 82.1 1705 81.0255 1705 79.7C1705 78.3746 1706.07 77.3 1707.4 77.3C1708.73 77.3 1709.8 78.3746 1709.8 79.7C1709.8 81.0255 1708.73 82.1 1707.4 82.1Z" fill="#3171FF"/>
<path opacity="0.7" d="M1707.4 155.3C1706.07 155.3 1705 154.225 1705 152.9C1705 151.575 1706.07 150.5 1707.4 150.5C1708.73 150.5 1709.8 151.575 1709.8 152.9C1709.8 154.225 1708.73 155.3 1707.4 155.3Z" fill="#00E2B6"/>
<path opacity="0.7" d="M1524.4 155.3C1523.07 155.3 1522 154.225 1522 152.9C1522 151.575 1523.07 150.5 1524.4 150.5C1525.73 150.5 1526.8 151.575 1526.8 152.9C1526.8 154.225 1525.73 155.3 1524.4 155.3Z" fill="#00E2B6"/>
<path d="M1616.7 82.1C1615.37 82.1 1614.3 81.0255 1614.3 79.7C1614.3 78.3746 1615.37 77.3 1616.7 77.3C1618.03 77.3 1619.1 78.3746 1619.1 79.7C1619.1 81.0255 1618.03 82.1 1616.7 82.1Z" fill="#3171FF"/>
<path d="M1490.2 45.3C1488.87 45.3 1487.8 44.2255 1487.8 42.9C1487.8 41.5745 1488.87 40.5 1490.2 40.5C1491.53 40.5 1492.6 41.5745 1492.6 42.9C1492.6 44.2255 1491.53 45.3 1490.2 45.3Z" fill="#FF7F00"/>
<path d="M1707.8 136.9C1708.4 136.9 1708.8 136.5 1708.8 135.9V96.8999C1708.8 96.2999 1708.4 95.8999 1707.8 95.8999C1707.2 95.8999 1706.8 96.2999 1706.8 96.8999V135.9C1706.8 136.5 1707.2 136.9 1707.8 136.9Z" fill="#245EFF"/>
<defs>
<linearGradient id="paint0_linear" x1="-0.00854185" y1="16.4596" x2="65.9981" y2="16.4596" gradientUnits="userSpaceOnUse">
<stop stop-color="#EFC90C"/>
<stop offset="1" stop-color="#FF9530"/>
</linearGradient>
<linearGradient id="paint1_linear" x1="-0.0122802" y1="16.4961" x2="22.0056" y2="16.4961" gradientUnits="userSpaceOnUse">
<stop offset="0.00031407" stop-color="#FF780A" stop-opacity="0"/>
<stop offset="1" stop-color="#4C0505" stop-opacity="0.5"/>
</linearGradient>
<linearGradient id="paint2_linear" x1="115.979" y1="58.6826" x2="162.417" y2="58.6826" gradientUnits="userSpaceOnUse">
<stop offset="0.00031407" stop-color="#230068" stop-opacity="0"/>
<stop offset="1" stop-color="#230068" stop-opacity="0.5"/>
</linearGradient>
<linearGradient id="paint3_linear" x1="31.9535" y1="197.111" x2="126.273" y2="197.111" gradientUnits="userSpaceOnUse">
<stop stop-color="#F7DB2A"/>
<stop offset="0.999" stop-color="#00E2B6"/>
</linearGradient>
<linearGradient id="paint4_linear" x1="1643.12" y1="275.883" x2="1596.68" y2="275.883" gradientUnits="userSpaceOnUse">
<stop offset="0.00031407" stop-color="#230068" stop-opacity="0"/>
<stop offset="1" stop-color="#230068" stop-opacity="0.5"/>
</linearGradient>
<linearGradient id="paint5_linear" x1="1755.04" y1="231.938" x2="1708.6" y2="231.938" gradientUnits="userSpaceOnUse">
<stop offset="0.00031407" stop-color="#230068" stop-opacity="0"/>
<stop offset="1" stop-color="#230068" stop-opacity="0.5"/>
</linearGradient>
</defs>
</svg>
