<?xml version="1.0" encoding="utf-8"?>
<!-- Generator: Adobe Illustrator 24.1.2, SVG Export Plug-In . SVG Version: 6.00 Build 0)  -->
<svg version="1.1" xmlns="http://www.w3.org/2000/svg" xmlns:xlink="http://www.w3.org/1999/xlink" x="0px" y="0px"
	 viewBox="0 0 4426.7 1080" style="enable-background:new 0 0 4426.7 1080;" xml:space="preserve">
<style type="text/css">
	.st0{fill:#3274D9;}
	.st1{fill:#5293E2;}
	.st2{fill:none;stroke:#2A62D1;stroke-width:4;stroke-miterlimit:10;}
	.st3{fill:none;stroke:url(#SVGID_1_);stroke-width:25;stroke-linecap:round;stroke-linejoin:round;stroke-miterlimit:10;}
	
		.st4{fill:none;stroke:#2A62D1;stroke-width:8;stroke-linecap:round;stroke-linejoin:round;stroke-miterlimit:10;stroke-dasharray:0,40;}
	.st5{fill:url(#SVGID_2_);}
	.st6{fill:#FFFFFF;}
	.st7{fill:#3D7BD9;stroke:#5293E2;stroke-width:3;stroke-miterlimit:10;}
	.st8{fill:url(#SVGID_3_);}
	.st9{fill:#FADE2A;}
	.st10{fill:#00E5B9;}
</style>
<g id="Layer_1">
	<rect y="4.4" class="st0" width="4426.7" height="1080"/>
	<polygon class="st1" points="2163.3,1031.6 2142.3,1031.6 2163.3,1010.6 	"/>
	<circle class="st2" cx="1510.4" cy="669.1" r="160.1"/>
	
		<linearGradient id="SVGID_1_" gradientUnits="userSpaceOnUse" x1="4342.9614" y1="4219.8579" x2="5249.8491" y2="4219.8579" gradientTransform="matrix(1.799754e-02 -0.9998 0.9998 1.799754e-02 -2841.2043 5564.0352)">
		<stop  offset="4.237690e-03" style="stop-color:#5794F2"/>
		<stop  offset="0.8579" style="stop-color:#3274D9"/>
	</linearGradient>
	<circle class="st3" cx="1464.3" cy="844.4" r="440.9"/>
	<circle class="st4" cx="1914.3" cy="91" r="440.9"/>
	<g>
		
			<image style="overflow:visible;opacity:0.75;" width="572" height="572" xlink:href="C5C3B4FF710913B9.png"  transform="matrix(1 0 0 1 1420.2538 289.479)">
		</image>
		<g>
			<linearGradient id="SVGID_2_" gradientUnits="userSpaceOnUse" x1="1510.3239" y1="575.2891" x2="1901.3499" y2="575.2891">
				<stop  offset="1.729911e-02" style="stop-color:#3274D9"/>
				<stop  offset="0.6376" style="stop-color:#FACA10"/>
				<stop  offset="1" style="stop-color:#F05B2D"/>
			</linearGradient>
			<circle class="st5" cx="1705.8" cy="575.3" r="195.5"/>
		</g>
	</g>
	<g>
		
			<image style="overflow:visible;opacity:0.75;" width="522" height="522" xlink:href="C5C3B4FF710913BB.png"  transform="matrix(1 0 0 1 1445.2538 314.479)">
		</image>
		<g>
			<ellipse class="st6" cx="1705.8" cy="575.3" rx="170.5" ry="170.3"/>
		</g>
	</g>
	<line class="st4" x1="575.4" y1="143.6" x2="1425.3" y2="993.6"/>
	<circle class="st7" cx="1412.8" cy="981.1" r="40"/>
	<path class="st1" d="M2077.4,575.7c-4.1,0-7.5-3.4-7.5-7.5s3.4-7.5,7.5-7.5c4.1,0,7.5,3.4,7.5,7.5S2081.5,575.7,2077.4,575.7z"/>
	
		<linearGradient id="SVGID_3_" gradientUnits="userSpaceOnUse" x1="1704.9884" y1="630.6064" x2="1706.0844" y2="421.308" gradientTransform="matrix(1 0 0 -1 0 1078.3)">
		<stop  offset="0.3984" style="stop-color:#FACA10"/>
		<stop  offset="0.6498" style="stop-color:#F48C20"/>
		<stop  offset="0.8622" style="stop-color:#F05B2D"/>
	</linearGradient>
	<path class="st8" d="M1810.5,609.7c0,1.5-1.2,2.5-2.5,2.5h-204.4c-1.5,0-2.5-1.2-2.5-2.5c0-1.3,1.2-2.5,2.5-2.5h204.2
		C1809.3,607.1,1810.5,608.3,1810.5,609.7z M1623.9,598.4h147.7l19.3-48.7l-82.3,7v-12.1h-70.9v18l-24,2L1623.9,598.4z
		 M1697.7,538.5h-49.4v-12.9h49.6L1697.7,538.5z M1782.6,620.1h-153.5c-1.5,0-2.5,1.2-2.5,2.5c0,1.3,1.2,2.5,2.5,2.5h153.3
		c1.5,0,2.5-1.2,2.5-2.5C1784.9,621.2,1783.9,620.1,1782.6,620.1z"/>
	<circle class="st2" cx="1464.3" cy="844.4" r="632.8"/>
	<circle class="st7" cx="1790.8" cy="300.1" r="40"/>
	<g>
		<path class="st1" d="M1486.1,441.7c-1.4,0-2.5-1.1-2.5-2.5c0-1.4,1.1-2.5,2.5-2.5s2.5,1.1,2.5,2.5
			C1488.6,440.6,1487.5,441.7,1486.1,441.7z"/>
		<path class="st1" d="M1496.2,441.7c-1.4,0-2.5-1.1-2.5-2.5c0-1.4,1.1-2.5,2.5-2.5s2.5,1.1,2.5,2.5
			C1498.6,440.6,1497.5,441.7,1496.2,441.7z"/>
		<path class="st1" d="M1476.1,451.8c-1.4,0-2.5-1.1-2.5-2.5c0-1.4,1.1-2.5,2.5-2.5s2.5,1.1,2.5,2.5
			C1478.6,450.7,1477.5,451.8,1476.1,451.8z"/>
		<path class="st1" d="M1486.1,451.8c-1.4,0-2.5-1.1-2.5-2.5c0-1.4,1.1-2.5,2.5-2.5s2.5,1.1,2.5,2.5
			C1488.6,450.7,1487.5,451.8,1486.1,451.8z"/>
		<path class="st1" d="M1496.2,451.8c-1.4,0-2.5-1.1-2.5-2.5c0-1.4,1.1-2.5,2.5-2.5s2.5,1.1,2.5,2.5
			C1498.6,450.7,1497.5,451.8,1496.2,451.8z"/>
		<path class="st1" d="M1476.1,461.8c-1.4,0-2.5-1.1-2.5-2.5c0-1.4,1.1-2.5,2.5-2.5s2.5,1.1,2.5,2.5
			C1478.6,460.7,1477.5,461.8,1476.1,461.8z"/>
		<path class="st1" d="M1486.1,461.8c-1.4,0-2.5-1.1-2.5-2.5c0-1.4,1.1-2.5,2.5-2.5s2.5,1.1,2.5,2.5
			C1488.6,460.7,1487.5,461.8,1486.1,461.8z"/>
	</g>
	<path class="st9" d="M1412.8,993.6c-6.9,0-12.5-5.6-12.5-12.5s5.6-12.5,12.5-12.5c6.9,0,12.5,5.6,12.5,12.5
		S1419.7,993.6,1412.8,993.6z"/>
	<g>
		
			<rect x="1626.1" y="143.8" transform="matrix(-1 -1.224647e-16 1.224647e-16 -1 3264.7996 300.1538)" class="st10" width="12.5" height="12.5"/>
		
			<rect x="1613.6" y="156.3" transform="matrix(-1 -1.224647e-16 1.224647e-16 -1 3239.7996 325.1538)" class="st10" width="12.5" height="12.5"/>
	</g>
	<rect x="1823.3" y="785.6" class="st9" width="15" height="15"/>
	<path class="st1" d="M1924.6,989.3c-0.5,0-1-0.2-1.4-0.6c-0.8-0.8-0.8-2,0-2.8l9.7-9.7c0.8-0.8,2.1-0.8,2.8,0l6.1,6.1l8.3-8.3
		c0.8-0.8,2-0.8,2.8,0s0.8,2,0,2.8l-9.7,9.7c-0.8,0.8-2.1,0.8-2.8,0l-6.1-6.1l-8.3,8.3C1925.7,989.1,1925.2,989.3,1924.6,989.3z"/>
	<path class="st10" d="M1790.8,287.6c-6.9,0-12.5,5.6-12.5,12.5c0,6.9,5.6,12.5,12.5,12.5c6.9,0,12.5-5.6,12.5-12.5
		C1803.3,293.2,1797.7,287.6,1790.8,287.6z M1790.8,305.8c-3.1,0-5.7-2.5-5.7-5.7c0-3.1,2.5-5.7,5.7-5.7c3.1,0,5.7,2.5,5.7,5.7
		C1796.5,303.2,1794,305.8,1790.8,305.8z"/>
</g>
<g id="Layer_2">
</g>
</svg>
