<?xml version="1.0" encoding="utf-8"?>
<!-- Generator: Adobe Illustrator 24.2.0, SVG Export Plug-In . SVG Version: 6.00 Build 0)  -->
<svg version="1.1" xmlns="http://www.w3.org/2000/svg" xmlns:xlink="http://www.w3.org/1999/xlink" x="0px" y="0px"
	 viewBox="0 0 2000 145" style="enable-background:new 0 0 2000 145;" xml:space="preserve">
<style type="text/css">
	.st0{fill:#1252AF;}
	.st1{opacity:0.3;}
	.st2{opacity:0.6;}
	.st3{fill:url(#SVGID_1_);}
	.st4{fill:url(#SVGID_2_);}
	.st5{fill:url(#SVGID_3_);}
	.st6{fill:url(#SVGID_4_);}
	.st7{fill:url(#SVGID_5_);}
	.st8{fill:url(#SVGID_6_);}
	.st9{fill:url(#SVGID_7_);}
	.st10{fill:url(#SVGID_8_);}
	.st11{fill:none;stroke:#0A2767;stroke-width:3;stroke-miterlimit:10;}
	.st12{fill:url(#SVGID_9_);}
	.st13{fill:url(#SVGID_10_);}
	.st14{fill:url(#SVGID_11_);}
	.st15{fill:url(#SVGID_12_);}
	.st16{fill:url(#SVGID_13_);}
	.st17{fill:url(#SVGID_14_);}
	.st18{fill:url(#SVGID_15_);}
	.st19{fill:url(#SVGID_16_);}
	.st20{opacity:0.3;fill:#0A2767;}
	.st21{opacity:0.25;fill:#0A2767;}
</style>
<g id="background">
	<rect x="-2.4" y="-2.7" class="st0" width="2005.6" height="148.1"/>
</g>
<g id="Layer_1">
	<g class="st1">
		<g class="st2">
			<linearGradient id="SVGID_1_" gradientUnits="userSpaceOnUse" x1="675.3965" y1="82.3395" x2="675.3965" y2="145.5091">
				<stop  offset="0" style="stop-color:#0A2767"/>
				<stop  offset="0.9972" style="stop-color:#153FA7;stop-opacity:0"/>
			</linearGradient>
			<rect x="635.6" y="81.5" class="st3" width="79.6" height="62.9"/>
			<linearGradient id="SVGID_2_" gradientUnits="userSpaceOnUse" x1="583.6232" y1="67.715" x2="583.6232" y2="145.7737">
				<stop  offset="0" style="stop-color:#0A2767"/>
				<stop  offset="0.9972" style="stop-color:#153FA7;stop-opacity:0"/>
			</linearGradient>
			<rect x="543.8" y="66.6" class="st4" width="79.6" height="77.8"/>
			<linearGradient id="SVGID_3_" gradientUnits="userSpaceOnUse" x1="493.696" y1="11.915" x2="493.696" y2="148.4261">
				<stop  offset="0" style="stop-color:#0A2767"/>
				<stop  offset="0.9972" style="stop-color:#153FA7;stop-opacity:0"/>
			</linearGradient>
			<rect x="453.9" y="10" class="st5" width="79.6" height="136"/>
			<linearGradient id="SVGID_4_" gradientUnits="userSpaceOnUse" x1="404.5599" y1="44.3515" x2="404.5599" y2="146.1965">
				<stop  offset="0" style="stop-color:#0A2767"/>
				<stop  offset="0.9972" style="stop-color:#153FA7;stop-opacity:0"/>
			</linearGradient>
			<rect x="364.8" y="42.9" class="st6" width="79.6" height="101.5"/>
			<linearGradient id="SVGID_5_" gradientUnits="userSpaceOnUse" x1="315.4238" y1="121.9327" x2="315.4238" y2="144.7927">
				<stop  offset="0" style="stop-color:#0A2767"/>
				<stop  offset="0.9972" style="stop-color:#153FA7;stop-opacity:0"/>
			</linearGradient>
			<rect x="275.6" y="121.6" class="st7" width="79.6" height="22.8"/>
			<linearGradient id="SVGID_6_" gradientUnits="userSpaceOnUse" x1="225.7602" y1="62.7213" x2="225.7602" y2="145.8641">
				<stop  offset="0" style="stop-color:#0A2767"/>
				<stop  offset="0.9972" style="stop-color:#153FA7;stop-opacity:0"/>
			</linearGradient>
			<rect x="186" y="61.6" class="st8" width="79.6" height="82.8"/>
			<linearGradient id="SVGID_7_" gradientUnits="userSpaceOnUse" x1="135.3055" y1="39.3805" x2="135.3055" y2="147.9292">
				<stop  offset="0" style="stop-color:#0A2767"/>
				<stop  offset="0.9972" style="stop-color:#153FA7;stop-opacity:0"/>
			</linearGradient>
			<rect x="95.5" y="37.9" class="st9" width="79.6" height="108.1"/>
			<linearGradient id="SVGID_8_" gradientUnits="userSpaceOnUse" x1="45.642" y1="52.3999" x2="45.642" y2="147.6936">
				<stop  offset="0" style="stop-color:#0A2767"/>
				<stop  offset="0.9972" style="stop-color:#153FA7;stop-opacity:0"/>
			</linearGradient>
			<rect x="5.8" y="51.1" class="st10" width="79.6" height="94.9"/>
		</g>
		<g>
			<line class="st11" x1="635.6" y1="81.5" x2="715.2" y2="81.5"/>
			<line class="st11" x1="543.8" y1="66.6" x2="623.4" y2="66.6"/>
			<line class="st11" x1="453.9" y1="10" x2="533.5" y2="10"/>
			<line class="st11" x1="364.8" y1="42.9" x2="444.4" y2="42.9"/>
			<line class="st11" x1="275.6" y1="121.6" x2="355.2" y2="121.6"/>
			<line class="st11" x1="186" y1="61.6" x2="265.6" y2="61.6"/>
			<line class="st11" x1="95.5" y1="37.9" x2="175.1" y2="37.9"/>
			<line class="st11" x1="5.8" y1="51.1" x2="85.4" y2="51.1"/>
		</g>
		<g class="st2">
			<linearGradient id="SVGID_9_" gradientUnits="userSpaceOnUse" x1="1954.642" y1="52.3999" x2="1954.642" y2="147.6936">
				<stop  offset="0" style="stop-color:#0A2767"/>
				<stop  offset="0.9972" style="stop-color:#153FA7;stop-opacity:0"/>
			</linearGradient>
			<rect x="1914.8" y="51.1" class="st12" width="79.6" height="94.9"/>
			<linearGradient id="SVGID_10_" gradientUnits="userSpaceOnUse" x1="1864.9785" y1="111.5632" x2="1864.9785" y2="143.148">
				<stop  offset="0" style="stop-color:#0A2767"/>
				<stop  offset="0.9972" style="stop-color:#153FA7;stop-opacity:0"/>
			</linearGradient>
			<rect x="1825.2" y="111.1" class="st13" width="79.6" height="31.5"/>
			<linearGradient id="SVGID_11_" gradientUnits="userSpaceOnUse" x1="1775.5786" y1="41.8774" x2="1775.5786" y2="147.884">
				<stop  offset="0" style="stop-color:#0A2767"/>
				<stop  offset="0.9972" style="stop-color:#153FA7;stop-opacity:0"/>
			</linearGradient>
			<rect x="1735.8" y="40.4" class="st14" width="79.6" height="105.6"/>
			<linearGradient id="SVGID_12_" gradientUnits="userSpaceOnUse" x1="1685.2028" y1="58.2763" x2="1685.2028" y2="147.5873">
				<stop  offset="0" style="stop-color:#0A2767"/>
				<stop  offset="0.9972" style="stop-color:#153FA7;stop-opacity:0"/>
			</linearGradient>
			<rect x="1645.4" y="57" class="st15" width="79.6" height="89"/>
			<linearGradient id="SVGID_13_" gradientUnits="userSpaceOnUse" x1="1596.8578" y1="115.8345" x2="1596.8578" y2="143.0707">
				<stop  offset="0" style="stop-color:#0A2767"/>
				<stop  offset="0.9972" style="stop-color:#153FA7;stop-opacity:0"/>
			</linearGradient>
			<rect x="1557.1" y="115.5" class="st16" width="79.6" height="27.1"/>
			<linearGradient id="SVGID_14_" gradientUnits="userSpaceOnUse" x1="1506.9305" y1="79.6553" x2="1506.9305" y2="145.5577">
				<stop  offset="0" style="stop-color:#0A2767"/>
				<stop  offset="0.9972" style="stop-color:#153FA7;stop-opacity:0"/>
			</linearGradient>
			<rect x="1467.1" y="78.7" class="st17" width="79.6" height="65.7"/>
			<linearGradient id="SVGID_15_" gradientUnits="userSpaceOnUse" x1="1416.7396" y1="135.3225" x2="1416.7396" y2="146.1932">
				<stop  offset="0" style="stop-color:#0A2767"/>
				<stop  offset="0.9972" style="stop-color:#153FA7;stop-opacity:0"/>
			</linearGradient>
			<rect x="1376.9" y="135.2" class="st18" width="79.6" height="10.8"/>
			<linearGradient id="SVGID_16_" gradientUnits="userSpaceOnUse" x1="1327.6035" y1="87.1459" x2="1327.6035" y2="145.4221">
				<stop  offset="0" style="stop-color:#0A2767"/>
				<stop  offset="0.9972" style="stop-color:#153FA7;stop-opacity:0"/>
			</linearGradient>
			<rect x="1287.8" y="86.3" class="st19" width="79.6" height="58.1"/>
		</g>
		<g>
			<line class="st11" x1="1914.8" y1="51.1" x2="1994.4" y2="51.1"/>
			<line class="st11" x1="1825.2" y1="111.1" x2="1904.8" y2="111.1"/>
			<line class="st11" x1="1735.8" y1="40.4" x2="1815.4" y2="40.4"/>
			<line class="st11" x1="1645.4" y1="57" x2="1725" y2="57"/>
			<line class="st11" x1="1557.1" y1="115.5" x2="1636.7" y2="115.5"/>
			<line class="st11" x1="1467.1" y1="78.7" x2="1546.7" y2="78.7"/>
			<line class="st11" x1="1376.9" y1="135.2" x2="1456.5" y2="135.2"/>
			<line class="st11" x1="1287.8" y1="86.3" x2="1367.4" y2="86.3"/>
		</g>
	</g>
	<path class="st20" d="M1581.6,63.5c-1.2,1.2-1.2,3.1,0,4.3c0.6,0.6,1.4,0.9,2.1,0.9c0.8,0,1.6-0.3,2.1-0.9c1.2-1.2,1.2-3.1,0-4.3
		C1584.7,62.3,1582.8,62.3,1581.6,63.5z M1594.8,63.5c-1.2,1.2-1.2,3.1,0,4.3c0.6,0.6,1.4,0.9,2.1,0.9c0.8,0,1.5-0.3,2.1-0.9
		c1.2-1.2,1.2-3.1,0-4.3C1597.9,62.3,1596,62.3,1594.8,63.5z M1581.6,51.1c-1.2,1.2-1.2,3.1,0,4.3c0.6,0.6,1.4,0.9,2.1,0.9
		c0.8,0,1.6-0.3,2.1-0.9c1.2-1.2,1.2-3.1,0-4.3C1584.7,49.9,1582.8,49.9,1581.6,51.1z M1594.8,51.1c-1.2,1.2-1.2,3.1,0,4.3
		c0.6,0.6,1.4,0.9,2.1,0.9c0.8,0,1.5-0.3,2.1-0.9c1.2-1.2,1.2-3.1,0-4.3C1597.9,49.9,1596,49.9,1594.8,51.1z M1594.8,38.4
		c-1.2,1.2-1.2,3.1,0,4.3c0.6,0.6,1.4,0.9,2.1,0.9c0.8,0,1.5-0.3,2.1-0.9c1.2-1.2,1.2-3.1,0-4.3C1597.9,37.2,1596,37.2,1594.8,38.4z
		 M1607.4,51.1c-1.2,1.2-1.2,3.1,0,4.3c0.6,0.6,1.4,0.9,2.1,0.9c0.8,0,1.6-0.3,2.1-0.9c1.2-1.2,1.2-3.1,0-4.3
		C1610.5,49.9,1608.5,49.9,1607.4,51.1z M1609.5,43.5c0.8,0,1.6-0.3,2.1-0.9c1.2-1.2,1.2-3.1,0-4.3c-1.2-1.2-3.1-1.2-4.3,0
		c-1.2,1.2-1.2,3.1,0,4.3C1607.9,43.3,1608.7,43.5,1609.5,43.5z"/>
	<path class="st20" d="M1425.5,81.1v-3.2c0-4.5-3.6-8.1-8.1-8.1s-8.1,3.6-8.1,8.1v3.2c-2.7,0-4.8,2.2-4.8,4.8v11.3
		c0,2.7,2.2,4.8,4.8,4.8h16.1c2.7,0,4.8-2.2,4.8-4.8V85.9C1430.3,83.2,1428.1,81.1,1425.5,81.1z M1412.5,77.8c0-2.7,2.2-4.8,4.8-4.8
		s4.8,2.2,4.8,4.8v3.2h-9.7V77.8z M1427.1,97.2c0,0.9-0.7,1.6-1.6,1.6h-16.1c-0.9,0-1.6-0.7-1.6-1.6V85.9c0-0.9,0.7-1.6,1.6-1.6
		h16.1c0.9,0,1.6,0.7,1.6,1.6V97.2z"/>
	<path class="st20" d="M999.7,29.4c-0.1,0-0.2,0-0.3,0.1L970,39.8c-0.6,0.2-1,0.7-1.2,1.2c-3.8,12.6-3.6,27,1.2,39.8
		c4.9,12.7,14.5,23.8,29.3,29.3c0.4,0.2,0.9,0.2,1.3,0c14.8-5.5,24.4-16.5,29.3-29.3c4.9-12.7,5.1-27.2,1.2-39.8
		c-0.2-0.6-0.6-1-1.2-1.2l-29.4-10.3C1000.3,29.4,1000,29.3,999.7,29.4z M1000,33.2l27.8,9.8c3.3,11.6,3.1,24.8-1.4,36.4
		c-4.5,11.7-13,21.7-26.4,26.8c-13.3-5.2-21.9-15.1-26.4-26.8c-4.4-11.6-4.7-24.9-1.4-36.4L1000,33.2z"/>
	<path class="st20" d="M321.3,62.5l-6.5,6.5l-2.5-2.5c-0.5-0.6-1.5-0.7-2.1-0.2s-0.7,1.5-0.2,2.1c0.1,0.1,0.1,0.1,0.2,0.2l3.6,3.6
		c0.3,0.3,0.7,0.4,1.1,0.4c0.4,0,0.8-0.2,1.1-0.4l7.6-7.6c0.6-0.6,0.6-1.6,0-2.1c0,0,0,0,0,0C322.8,61.9,321.9,61.9,321.3,62.5z
		 M317.1,52.1c-8.4,0-15.2,6.8-15.2,15.2s6.8,15.2,15.2,15.2s15.2-6.8,15.2-15.2S325.5,52.1,317.1,52.1z M317.1,79.5
		c-6.7,0-12.1-5.4-12.1-12.1s5.4-12.1,12.1-12.1s12.1,5.4,12.1,12.1S323.8,79.5,317.1,79.5z"/>
	<path class="st21" d="M1256.8,66.3c-1.1,0-2,0.9-2,2s0.9,2,2,2s2-0.9,2-2C1258.8,67.2,1257.9,66.3,1256.8,66.3z M1249,131.5
		c-1.1-0.3-2.1,0.4-2.4,1.4c-0.3,1.1,0.4,2.1,1.4,2.4c0.2,0,0.3,0.1,0.5,0.1c0.9,0,1.7-0.6,1.9-1.5
		C1250.7,132.8,1250.1,131.8,1249,131.5z M1250.1,19.6L1250.1,19.6c0.2,1,1,1.6,2,1.6c0.1,0,0.2,0,0.4,0c1.1-0.2,1.8-1.2,1.6-2.3
		c-0.2-1.1-1.2-1.8-2.3-1.6S1249.9,18.5,1250.1,19.6z M1254.3,51.9c0.1,1.1,0.9,1.9,2,1.9h0.1c1.1-0.1,1.9-1,1.8-2.1
		c-0.1-1.1-1-1.9-2.1-1.9C1255,49.9,1254.2,50.9,1254.3,51.9z M1252.5,115.4c-1.1-0.2-2.1,0.5-2.3,1.6c-0.2,1.1,0.5,2.1,1.6,2.3
		c0.1,0,0.2,0,0.4,0c0.9,0,1.8-0.7,1.9-1.6c0,0,0,0,0,0C1254.3,116.6,1253.6,115.6,1252.5,115.4z M1252.7,35.7c0.1,1,1,1.7,2,1.7
		c0.1,0,0.2,0,0.2,0c1.1-0.1,1.8-1.1,1.7-2.2c0,0,0,0,0,0c-0.1-1.1-1.1-1.9-2.2-1.7C1253.3,33.6,1252.6,34.6,1252.7,35.7z
		 M1256.4,82.8c-1.1-0.1-2,0.8-2.1,1.8c-0.1,1.1,0.8,2,1.9,2.1h0.1c1,0,1.9-0.8,2-1.9c0,0,0,0,0,0
		C1258.3,83.8,1257.5,82.8,1256.4,82.8z M747.3,101.8c-0.1-1.1-1.1-1.9-2.2-1.7c-1.1,0.1-1.9,1.1-1.7,2.2c0.1,1,1,1.7,2,1.7
		c0.1,0,0.2,0,0.3,0C746.7,103.8,747.5,102.8,747.3,101.8z M749.9,117.9c-0.2-1.1-1.2-1.8-2.3-1.6s-1.8,1.2-1.6,2.3
		c0.2,0.9,1,1.6,1.9,1.6c0.1,0,0.2,0,0.4,0C749.5,120,750.2,118.9,749.9,117.9z M743.9,87.6c1.1-0.1,1.9-1,1.8-2.1
		c-0.1-1.1-1-1.9-2.1-1.8c-1.1,0.1-1.9,1-1.8,2.1c0.1,1,0.9,1.8,2,1.8C743.8,87.6,743.8,87.6,743.9,87.6z M1255,99.1
		c-1.1-0.1-2.1,0.6-2.2,1.7c-0.1,1.1,0.6,2.1,1.7,2.2c0.1,0,0.2,0,0.2,0c1,0,1.8-0.7,2-1.7C1256.8,100.3,1256.1,99.3,1255,99.1z
		 M745,37.7c0.1,0,0.2,0,0.2,0c1,0,1.8-0.7,2-1.7c0.1-1.1-0.6-2.1-1.7-2.2c-1.1-0.1-2.1,0.6-2.2,1.7C743.2,36.6,743.9,37.6,745,37.7
		z M747.5,21.4c0.1,0,0.2,0,0.4,0c0.9,0,1.8-0.7,1.9-1.6c0.2-1.1-0.5-2.1-1.6-2.3c-1.1-0.2-2.1,0.5-2.3,1.6
		C745.7,20.2,746.4,21.2,747.5,21.4z M751,5.4c0.2,0,0.3,0.1,0.5,0.1c0.9,0,1.7-0.6,1.9-1.5c0.3-1.1-0.4-2.1-1.4-2.4
		c-1.1-0.3-2.1,0.4-2.4,1.4C749.3,4,750,5.1,751,5.4z M751.2,132.4c-1.1,0.3-1.7,1.4-1.4,2.4c0.2,0.9,1,1.5,1.9,1.5
		c0.2,0,0.3,0,0.5-0.1c1.1-0.3,1.7-1.4,1.4-2.4C753.3,132.7,752.2,132.1,751.2,132.4z M743.2,71.2c1.1,0,2-0.9,2-2
		c0-0.1,0-0.2,0-0.3c0-0.1,0-0.2,0-0.3c0-1.1-0.9-2-2-2c-1.1,0-2,0.9-2,2c0,0.1,0,0.2,0,0.3c0,0.1,0,0.2,0,0.3
		C741.2,70.3,742.1,71.2,743.2,71.2z M743.6,54.1h0.1c1,0,1.9-0.8,2-1.9c0.1-1.1-0.8-2-1.9-2.1c-1.1-0.1-2,0.8-2.1,1.9
		C741.7,53.1,742.5,54,743.6,54.1z M1070.9-2.7c18.7,18.5,30.3,44.1,30.3,72.3c0,30-13.1,57.1-33.9,75.7h3.9
		c20.1-19,32.6-45.9,32.6-75.7c0-28.1-11.1-53.6-29.2-72.3H1070.9z M1248.4,5.1c0.2,0,0.3,0,0.5-0.1c1.1-0.3,1.7-1.4,1.4-2.4
		c-0.3-1.1-1.4-1.7-2.4-1.4c-1.1,0.3-1.7,1.4-1.4,2.4C1246.7,4.5,1247.5,5.1,1248.4,5.1z M1184.1-2.7c8.8,22.4,13.7,46.8,13.7,72.3
		c0,26.8-5.4,52.4-15,75.7h2.8c9.5-23.4,14.8-48.9,14.8-75.7c0-25.5-4.8-49.9-13.5-72.3H1184.1z M814.9-2.7h-2.8
		c-8.7,22.5-13.5,46.9-13.5,72.3c0,26.8,5.3,52.3,14.8,75.7h2.8c-9.7-23.3-15-48.9-15-75.7C801.2,44.2,806.1,19.7,814.9-2.7z
		 M897.8,69.7c0-28.3,11.6-53.9,30.3-72.3h-3.7c-18.1,18.8-29.2,44.3-29.2,72.3c0,29.8,12.6,56.7,32.6,75.7h3.9
		C910.9,126.8,897.8,99.7,897.8,69.7z"/>
</g>
</svg>
