<svg width="804" height="228" viewBox="0 0 804 228" fill="none" xmlns="http://www.w3.org/2000/svg">
<path d="M817 0H0V228H817V0Z" fill="url(#paint0_radial)"/>
<mask id="mask0" mask-type="alpha" maskUnits="userSpaceOnUse" x="295" y="0" width="410" height="226">
<rect x="295" width="410" height="226" fill="#C4C4C4"/>
</mask>
<g mask="url(#mask0)">
<circle opacity="0.2" cx="492" cy="112" r="128" stroke="#FF8616" stroke-width="2"/>
<circle opacity="0.2" cx="492" cy="112" r="177" stroke="#FF8616" stroke-width="2"/>
</g>

<circle opacity="0.2" cx="492" cy="112" r="81" fill="#FF8616"/>
<g opacity="0.8">
<path d="M515.16 143H465.516C462.596 143 460 140.404 460 137.16V87.516C460 84.5957 462.596 82 465.516 82H515.16C518.08 82 520.676 84.5957 520.676 87.516V137.16C521 140.404 518.404 143 515.16 143ZM465.516 84.5957C463.894 84.5957 462.271 85.8936 462.271 87.8404V137.16C462.271 138.782 463.569 140.404 465.516 140.404H515.16C516.782 140.404 518.404 139.106 518.404 137.16V87.516C518.404 85.8936 517.106 84.2713 515.16 84.2713H465.516V84.5957Z" fill="#FFCB54"/>
<path d="M490.5 143C489.851 143 489.202 142.351 489.202 141.702V83.2979C489.202 82.6489 489.851 82 490.5 82C491.149 82 491.798 82.6489 491.798 83.2979V141.702C491.798 142.351 491.149 143 490.5 143Z" fill="#FFCB54"/>
<path d="M518.745 113.798H462.255C461.628 113.798 461 113.149 461 112.5C461 111.851 461.628 111.202 462.255 111.202H518.745C519.372 111.202 520 111.851 520 112.5C520 113.149 519.372 113.798 518.745 113.798Z" fill="#FFCB54"/>
<path d="M475.899 104.064C475.25 104.064 474.601 103.415 474.601 102.766V93.032C474.601 92.3831 475.25 91.7341 475.899 91.7341C476.548 91.7341 477.197 92.3831 477.197 93.032V102.766C476.872 103.415 476.548 104.064 475.899 104.064Z" fill="#FFCB54"/>
<path d="M480.766 98.8723H471.032C470.383 98.8723 469.734 98.5479 469.734 97.8989C469.734 97.25 470.383 96.6011 471.032 96.6011H480.766C481.415 96.6011 482.064 97.25 482.064 97.8989C482.064 98.5479 481.415 98.8723 480.766 98.8723Z" fill="#FFCB54"/>
<path d="M471.032 133.266C470.707 133.266 470.383 133.266 470.058 132.941C469.734 132.617 469.734 131.644 470.058 131.319L479.792 121.585C480.117 121.261 481.09 121.261 481.415 121.585C481.739 121.909 481.739 122.883 481.415 123.207L471.681 132.941C471.681 132.941 471.356 133.266 471.032 133.266Z" fill="#FFCB54"/>
<path d="M480.766 133.266C480.441 133.266 480.117 133.266 479.792 132.941L470.058 123.207C469.734 122.883 469.734 121.909 470.058 121.585C470.383 121.261 471.356 121.261 471.681 121.585L481.415 131.319C481.739 131.644 481.739 132.617 481.415 132.941C481.415 132.941 481.09 133.266 480.766 133.266Z" fill="#FFCB54"/>
<path d="M509.968 98.872H500.234C499.585 98.872 498.936 98.2231 498.936 97.5741C498.936 96.9252 499.585 96.2763 500.234 96.2763H509.968C510.617 96.2763 511.266 96.9252 511.266 97.5741C511.266 98.2231 510.617 98.872 509.968 98.872Z" fill="#FFCB54"/>
<path d="M509.968 123.532H500.234C499.585 123.532 498.936 122.883 498.936 122.234C498.936 121.585 499.585 120.936 500.234 120.936H509.968C510.617 120.936 511.266 121.585 511.266 122.234C511.266 122.883 510.617 123.532 509.968 123.532Z" fill="#FFCB54"/>
<path d="M509.968 133.266H500.234C499.585 133.266 498.936 132.617 498.936 131.968C498.936 131.319 499.585 130.67 500.234 130.67H509.968C510.617 130.67 511.266 131.319 511.266 131.968C511.266 132.617 510.617 133.266 509.968 133.266Z" fill="#FFCB54"/>
</g>
<defs>
<radialGradient id="paint0_radial" cx="0" cy="0" r="1" gradientUnits="userSpaceOnUse" gradientTransform="scale(961 380.3)">
<stop stop-color="#FFCC56"/>
<stop offset="1" stop-color="#FFA928"/>
</radialGradient>
</defs>
</svg>
