<svg width="812" height="221" viewBox="0 0 812 221" fill="none" xmlns="http://www.w3.org/2000/svg">
<rect x="812" width="221" height="812" transform="rotate(90 812 0)" fill="url(#paint0_linear)"/>
<rect x="812" width="221" height="812" transform="rotate(90 812 0)" fill="#010038"/>
<rect width="812" height="221" fill="url(#paint1_linear)"/>
<rect width="812" height="221" fill="url(#paint2_radial)"/>
<rect width="812" height="221" fill="url(#paint3_radial)"/>
<ellipse opacity="0.45" cx="695.069" cy="54.0697" rx="1.06946" ry="1.06946" transform="rotate(180 695.069 54.0697)" fill="#7646FF"/>
<ellipse opacity="0.45" cx="39.0692" cy="13.0697" rx="1.06946" ry="1.06946" transform="rotate(180 39.0692 13.0697)" fill="#7646FF"/>
<ellipse opacity="0.45" cx="538.632" cy="83.1844" rx="1.06946" ry="1.06946" transform="rotate(180 538.632 83.1844)" fill="#7646FF"/>
<circle cx="476.025" cy="58.3326" r="1.1827" fill="#361C81"/>
<circle cx="680.511" cy="36.9069" r="1.06946" fill="#361C81"/>
<g filter="url(#filter0_d)">
<circle cx="730.443" cy="7.06946" r="1.06946" fill="#7646FF"/>
</g>
<g filter="url(#filter1_d)">
<circle cx="667.069" cy="70.0695" r="1.06946" fill="#7646FF"/>
</g>
<g filter="url(#filter2_d)">
<circle cx="795.069" cy="23.0695" r="1.06946" fill="#7646FF"/>
</g>
<g opacity="0.8" filter="url(#filter3_d)">
<circle cx="465.069" cy="25.0695" r="1.06946" fill="#7646FF"/>
</g>
<g filter="url(#filter4_d)">
<circle cx="220.069" cy="19.0695" r="1.06946" fill="#7646FF"/>
</g>
<g filter="url(#filter5_d)">
<circle cx="420.069" cy="12.0695" r="1.06946" fill="#7646FF"/>
</g>
<ellipse opacity="0.25" cx="728.007" cy="38.7333" rx="1.06946" ry="1.06946" transform="rotate(-90 728.007 38.7333)" fill="#7646FF"/>
<ellipse opacity="0.25" rx="0.913389" ry="0.913389" transform="matrix(4.37114e-08 -1 -1 -4.37114e-08 431.913 50.756)" fill="#7646FF"/>
<ellipse opacity="0.25" rx="0.913389" ry="0.913389" transform="matrix(4.37114e-08 -1 -1 -4.37114e-08 276.913 25.9133)" fill="#7646FF"/>
<ellipse opacity="0.55" rx="0.913389" ry="0.913389" transform="matrix(4.37114e-08 -1 -1 -4.37114e-08 525.688 49.5383)" fill="#7646FF"/>
<ellipse opacity="0.55" rx="0.913389" ry="0.913389" transform="matrix(4.37114e-08 -1 -1 -4.37114e-08 34.9128 76.9133)" fill="#7646FF"/>
<ellipse opacity="0.55" rx="0.913389" ry="0.913389" transform="matrix(4.37114e-08 -1 -1 -4.37114e-08 102.913 19.9133)" fill="#7646FF"/>
<ellipse opacity="0.55" rx="0.913389" ry="0.913389" transform="matrix(4.37114e-08 -1 -1 -4.37114e-08 154.913 19.9133)" fill="#7646FF"/>
<ellipse opacity="0.55" rx="0.913389" ry="0.913389" transform="matrix(4.37114e-08 -1 -1 -4.37114e-08 364.913 6.91327)" fill="#7646FF"/>
<ellipse opacity="0.55" rx="0.913389" ry="0.913389" transform="matrix(4.37114e-08 -1 -1 -4.37114e-08 358.913 80.9133)" fill="#7646FF"/>
<ellipse opacity="0.55" rx="0.913389" ry="0.913389" transform="matrix(4.37114e-08 -1 -1 -4.37114e-08 118.913 9.91327)" fill="#7646FF"/>
<ellipse opacity="0.55" rx="0.913389" ry="0.913389" transform="matrix(4.37114e-08 -1 -1 -4.37114e-08 9.91278 45.9133)" fill="#7646FF"/>
<g opacity="0.7">
<g opacity="0.5">
<g opacity="0.8">
<rect x="735.365" y="68.2183" width="5.00446" height="38.9236" fill="url(#paint4_linear)"/>
<circle cx="737.907" cy="68.0545" r="2.37387" fill="#26CED9"/>
<rect x="768.729" y="60.4932" width="5.00446" height="38.9236" fill="url(#paint5_linear)"/>
<circle cx="771.141" cy="60.2704" r="2.37387" fill="#26CED9"/>
</g>
<g opacity="0.25">
<rect x="801.535" y="51.5967" width="5.00446" height="38.9236" fill="url(#paint6_linear)"/>
<circle cx="803.948" cy="51.3739" r="2.37387" fill="#26CED9"/>
</g>
<g opacity="0.25">
<rect x="702" y="77.731" width="5.00446" height="38.9236" fill="url(#paint7_linear)"/>
<circle cx="704.415" cy="77.5081" r="2.37387" fill="#26CED9"/>
</g>
<g opacity="0.5">
<rect x="718.682" y="88.4795" width="5.00446" height="42.8159" fill="url(#paint8_linear)"/>
<circle cx="721.29" cy="88.4144" r="2.37387" fill="#26CED9"/>
<rect x="785.408" y="66.9609" width="4.44841" height="56.1611" fill="url(#paint9_linear)"/>
<circle cx="787.757" cy="66.9432" r="2.37387" fill="#26CED9"/>
</g>
</g>
<g opacity="0.7">
<rect x="752.045" y="61.7891" width="5.00446" height="45.5962" fill="url(#paint10_linear)"/>
<circle cx="754.524" cy="61.9388" r="2.37387" fill="#26CED9"/>
</g>
</g>
<defs>
<filter id="filter0_d" x="724.69" y="6" width="11.5059" height="11.5059" filterUnits="userSpaceOnUse" color-interpolation-filters="sRGB">
<feFlood flood-opacity="0" result="BackgroundImageFix"/>
<feColorMatrix in="SourceAlpha" type="matrix" values="0 0 0 0 0 0 0 0 0 0 0 0 0 0 0 0 0 0 127 0"/>
<feOffset dy="4.6835"/>
<feGaussianBlur stdDeviation="2.34175"/>
<feColorMatrix type="matrix" values="0 0 0 0 0 0 0 0 0 0 0 0 0 0 0 0 0 0 0.25 0"/>
<feBlend mode="normal" in2="BackgroundImageFix" result="effect1_dropShadow"/>
<feBlend mode="normal" in="SourceGraphic" in2="effect1_dropShadow" result="shape"/>
</filter>
<filter id="filter1_d" x="661.316" y="69" width="11.5059" height="11.5059" filterUnits="userSpaceOnUse" color-interpolation-filters="sRGB">
<feFlood flood-opacity="0" result="BackgroundImageFix"/>
<feColorMatrix in="SourceAlpha" type="matrix" values="0 0 0 0 0 0 0 0 0 0 0 0 0 0 0 0 0 0 127 0"/>
<feOffset dy="4.6835"/>
<feGaussianBlur stdDeviation="2.34175"/>
<feColorMatrix type="matrix" values="0 0 0 0 0 0 0 0 0 0 0 0 0 0 0 0 0 0 0.25 0"/>
<feBlend mode="normal" in2="BackgroundImageFix" result="effect1_dropShadow"/>
<feBlend mode="normal" in="SourceGraphic" in2="effect1_dropShadow" result="shape"/>
</filter>
<filter id="filter2_d" x="789.316" y="22" width="11.5059" height="11.5059" filterUnits="userSpaceOnUse" color-interpolation-filters="sRGB">
<feFlood flood-opacity="0" result="BackgroundImageFix"/>
<feColorMatrix in="SourceAlpha" type="matrix" values="0 0 0 0 0 0 0 0 0 0 0 0 0 0 0 0 0 0 127 0"/>
<feOffset dy="4.6835"/>
<feGaussianBlur stdDeviation="2.34175"/>
<feColorMatrix type="matrix" values="0 0 0 0 0 0 0 0 0 0 0 0 0 0 0 0 0 0 0.25 0"/>
<feBlend mode="normal" in2="BackgroundImageFix" result="effect1_dropShadow"/>
<feBlend mode="normal" in="SourceGraphic" in2="effect1_dropShadow" result="shape"/>
</filter>
<filter id="filter3_d" x="459.316" y="24" width="11.5059" height="11.5059" filterUnits="userSpaceOnUse" color-interpolation-filters="sRGB">
<feFlood flood-opacity="0" result="BackgroundImageFix"/>
<feColorMatrix in="SourceAlpha" type="matrix" values="0 0 0 0 0 0 0 0 0 0 0 0 0 0 0 0 0 0 127 0"/>
<feOffset dy="4.6835"/>
<feGaussianBlur stdDeviation="2.34175"/>
<feColorMatrix type="matrix" values="0 0 0 0 0 0 0 0 0 0 0 0 0 0 0 0 0 0 0.25 0"/>
<feBlend mode="normal" in2="BackgroundImageFix" result="effect1_dropShadow"/>
<feBlend mode="normal" in="SourceGraphic" in2="effect1_dropShadow" result="shape"/>
</filter>
<filter id="filter4_d" x="214.316" y="18" width="11.5059" height="11.5059" filterUnits="userSpaceOnUse" color-interpolation-filters="sRGB">
<feFlood flood-opacity="0" result="BackgroundImageFix"/>
<feColorMatrix in="SourceAlpha" type="matrix" values="0 0 0 0 0 0 0 0 0 0 0 0 0 0 0 0 0 0 127 0"/>
<feOffset dy="4.6835"/>
<feGaussianBlur stdDeviation="2.34175"/>
<feColorMatrix type="matrix" values="0 0 0 0 0 0 0 0 0 0 0 0 0 0 0 0 0 0 0.25 0"/>
<feBlend mode="normal" in2="BackgroundImageFix" result="effect1_dropShadow"/>
<feBlend mode="normal" in="SourceGraphic" in2="effect1_dropShadow" result="shape"/>
</filter>
<filter id="filter5_d" x="414.316" y="11" width="11.5059" height="11.5059" filterUnits="userSpaceOnUse" color-interpolation-filters="sRGB">
<feFlood flood-opacity="0" result="BackgroundImageFix"/>
<feColorMatrix in="SourceAlpha" type="matrix" values="0 0 0 0 0 0 0 0 0 0 0 0 0 0 0 0 0 0 127 0"/>
<feOffset dy="4.6835"/>
<feGaussianBlur stdDeviation="2.34175"/>
<feColorMatrix type="matrix" values="0 0 0 0 0 0 0 0 0 0 0 0 0 0 0 0 0 0 0.25 0"/>
<feBlend mode="normal" in2="BackgroundImageFix" result="effect1_dropShadow"/>
<feBlend mode="normal" in="SourceGraphic" in2="effect1_dropShadow" result="shape"/>
</filter>
<linearGradient id="paint0_linear" x1="812" y1="673" x2="1032.5" y2="452.5" gradientUnits="userSpaceOnUse">
<stop stop-color="#FEA958"/>
<stop offset="1" stop-color="#FB8B5B"/>
</linearGradient>
<linearGradient id="paint1_linear" x1="510.883" y1="221" x2="510.883" y2="0" gradientUnits="userSpaceOnUse">
<stop stop-color="#4C34C5"/>
<stop offset="1" stop-color="#020041" stop-opacity="0"/>
</linearGradient>
<radialGradient id="paint2_radial" cx="0" cy="0" r="1" gradientUnits="userSpaceOnUse" gradientTransform="translate(556 232) rotate(-90) scale(184 1019.89)">
<stop stop-color="#E8404E"/>
<stop offset="0.461538" stop-color="#E93B83" stop-opacity="0.5"/>
<stop offset="1" stop-color="#4B2FD7" stop-opacity="0"/>
</radialGradient>
<radialGradient id="paint3_radial" cx="0" cy="0" r="1" gradientUnits="userSpaceOnUse" gradientTransform="translate(593 235) rotate(-90) scale(86 605.516)">
<stop stop-color="#F2BE56"/>
<stop offset="1" stop-color="#FF5E2B" stop-opacity="0"/>
</radialGradient>
<linearGradient id="paint4_linear" x1="737.867" y1="68.2183" x2="737.867" y2="107.142" gradientUnits="userSpaceOnUse">
<stop stop-color="#5A9AFB" stop-opacity="0.57"/>
<stop offset="1" stop-color="#5282E0" stop-opacity="0"/>
</linearGradient>
<linearGradient id="paint5_linear" x1="771.231" y1="60.4932" x2="771.231" y2="99.4167" gradientUnits="userSpaceOnUse">
<stop stop-color="#5A9AFB" stop-opacity="0.57"/>
<stop offset="1" stop-color="#5282E0" stop-opacity="0"/>
</linearGradient>
<linearGradient id="paint6_linear" x1="804.037" y1="51.5967" x2="804.037" y2="90.5202" gradientUnits="userSpaceOnUse">
<stop stop-color="#5A9AFB" stop-opacity="0.57"/>
<stop offset="1" stop-color="#5282E0" stop-opacity="0"/>
</linearGradient>
<linearGradient id="paint7_linear" x1="704.502" y1="77.731" x2="704.502" y2="116.655" gradientUnits="userSpaceOnUse">
<stop stop-color="#5A9AFB" stop-opacity="0.57"/>
<stop offset="1" stop-color="#5282E0" stop-opacity="0"/>
</linearGradient>
<linearGradient id="paint8_linear" x1="721.184" y1="88.4795" x2="721.184" y2="131.295" gradientUnits="userSpaceOnUse">
<stop stop-color="#5A9AFB" stop-opacity="0.57"/>
<stop offset="1" stop-color="#5282E0" stop-opacity="0"/>
</linearGradient>
<linearGradient id="paint9_linear" x1="787.632" y1="66.9609" x2="787.632" y2="123.122" gradientUnits="userSpaceOnUse">
<stop stop-color="#5A9AFB" stop-opacity="0.57"/>
<stop offset="1" stop-color="#5282E0" stop-opacity="0"/>
</linearGradient>
<linearGradient id="paint10_linear" x1="754.547" y1="61.7891" x2="754.547" y2="107.385" gradientUnits="userSpaceOnUse">
<stop stop-color="#5A9AFB" stop-opacity="0.57"/>
<stop offset="1" stop-color="#5282E0" stop-opacity="0"/>
</linearGradient>
</defs>
</svg>
