<svg width="2117" height="290" viewBox="0 0 2117 290" fill="none" xmlns="http://www.w3.org/2000/svg">
<rect width="2117" height="290" fill="url(#paint0_linear_21668_2855)"/>
<rect width="2117" height="290" fill="url(#paint1_linear_21668_2855)"/>
<rect width="2117" height="290" fill="url(#paint2_radial_21668_2855)"/>
<rect width="2117" height="290" fill="url(#paint3_linear_21668_2855)"/>
<rect width="2117" height="290" fill="url(#paint4_linear_21668_2855)"/>
<mask id="mask0_21668_2855" style="mask-type:alpha" maskUnits="userSpaceOnUse" x="803" y="0" width="1061" height="285">
<rect x="803" width="1061" height="285" fill="#C4C4C4"/>
</mask>
<g mask="url(#mask0_21668_2855)">
<circle cx="1525.89" cy="-45.8901" r="255.703" transform="rotate(-106.236 1525.89 -45.8901)" fill="url(#paint5_radial_21668_2855)"/>
<mask id="mask1_21668_2855" style="mask-type:alpha" maskUnits="userSpaceOnUse" x="1270" y="-302" width="512" height="512">
<circle cx="1525.89" cy="-45.8901" r="255.703" transform="rotate(-106.236 1525.89 -45.8901)" fill="url(#paint6_radial_21668_2855)"/>
</mask>
<g mask="url(#mask1_21668_2855)">
<path d="M1615.65 -63.243C1553.58 -215.783 1707.61 -262.459 1765.79 -169.965C1799.57 -99.3428 1882.82 78.0173 1742.04 155.917C1566.06 253.292 1378.01 330.08 1406.47 216.239C1447.37 52.6398 1669.37 68.7854 1615.65 -63.243Z" fill="url(#paint7_radial_21668_2855)"/>
<path d="M1615.65 -63.243C1553.58 -215.783 1707.61 -262.459 1765.79 -169.965C1799.57 -99.3428 1882.82 78.0173 1742.04 155.917C1566.06 253.292 1378.01 330.08 1406.47 216.239C1447.37 52.6398 1669.37 68.7854 1615.65 -63.243Z" fill="url(#paint8_radial_21668_2855)"/>
<path d="M1406.47 -5.30039C1446.42 94.381 1360.16 215.993 1170.55 89.988C1036.9 2.76868 1252.61 -357.043 1438.6 -301.161C1582.42 -257.953 1529.77 -161.288 1460.59 -133.646C1400.23 -109.527 1366.53 -104.982 1406.47 -5.30039Z" fill="url(#paint9_radial_21668_2855)"/>
<path d="M1406.47 -5.30039C1446.42 94.381 1360.16 215.993 1170.55 89.988C1036.9 2.76868 1252.61 -357.043 1438.6 -301.161C1582.42 -257.953 1529.77 -161.288 1460.59 -133.646C1400.23 -109.527 1366.53 -104.982 1406.47 -5.30039Z" fill="url(#paint10_radial_21668_2855)" fill-opacity="0.5"/>
</g>
<circle cx="1525.89" cy="-45.8899" r="255.703" transform="rotate(-4.73629 1525.89 -45.8899)" fill="url(#paint11_radial_21668_2855)" fill-opacity="0.75"/>
<circle cx="1525.89" cy="-45.8899" r="255.703" transform="rotate(-4.73629 1525.89 -45.8899)" fill="url(#paint12_radial_21668_2855)"/>
<circle cx="1525.89" cy="-45.8899" r="255.703" transform="rotate(-4.73629 1525.89 -45.8899)" fill="url(#paint13_radial_21668_2855)"/>
<circle cx="1525.89" cy="-45.8899" r="255.703" transform="rotate(-4.73629 1525.89 -45.8899)" fill="url(#paint14_radial_21668_2855)"/>
<circle cx="1525.89" cy="-45.8899" r="255.703" transform="rotate(-4.73629 1525.89 -45.8899)" fill="url(#paint15_linear_21668_2855)" fill-opacity="0.3"/>
</g>
<mask id="mask2_21668_2855" style="mask-type:alpha" maskUnits="userSpaceOnUse" x="1266" y="112" width="626" height="178">
<rect width="626" height="178" transform="matrix(-1 0 0 1 1892 112)" fill="#C4C4C4"/>
</mask>
<g mask="url(#mask2_21668_2855)">
<path opacity="0.5" d="M1739.23 204.233C1691.64 241.845 1634.98 266.282 1574.94 275.086C1514.9 283.891 1453.61 276.754 1397.22 254.392C1340.83 232.03 1291.33 195.232 1253.7 147.696" stroke="url(#paint16_linear_21668_2855)" stroke-width="7.47213"/>
<rect width="8.06557" height="6.84728" rx="2.63147" transform="matrix(-0.589597 -0.807697 -0.807697 0.589597 1734.29 213.345)" fill="#F5762E"/>
<rect width="7.10826" height="1.35368" transform="matrix(-0.610286 -0.792181 -0.787633 0.616144 1744.76 214.491)" fill="#FA6D1D"/>
<rect width="7.10826" height="1.35368" transform="matrix(-0.610286 -0.792181 -0.787633 0.616144 1734.79 201.551)" fill="#FA6D1D"/>
<rect width="35.4784" height="16.915" rx="1.00998" transform="matrix(-0.610286 -0.792181 -0.792181 0.610286 1771.68 236.749)" fill="#FB9D5A"/>
<rect width="35.4784" height="16.915" rx="1.00998" transform="matrix(-0.610286 -0.792181 -0.792181 0.610286 1737.87 192.857)" fill="#FB9D5A"/>
<path d="M1744.7 208.77C1747.67 206.475 1748.23 202.2 1745.93 199.221V199.221C1743.64 196.242 1739.36 195.687 1736.39 197.982L1728.35 204.176C1726.36 205.707 1725.99 208.561 1727.52 210.55L1730.28 214.137C1731.81 216.125 1734.67 216.495 1736.66 214.963L1744.7 208.77Z" fill="url(#paint17_linear_21668_2855)"/>
<rect width="7.10826" height="2.16143" rx="0.302993" transform="matrix(-0.610286 -0.792181 -0.787633 0.616144 1752.29 228.397)" fill="#FFE589"/>
<rect width="7.10826" height="2.16143" rx="0.302993" transform="matrix(-0.610286 -0.792181 -0.787633 0.616144 1718.47 184.511)" fill="#FFE589"/>
<rect width="7.10826" height="2.16143" rx="0.302993" transform="matrix(-0.610286 -0.792181 -0.787633 0.616144 1747.12 221.702)" fill="#FA6D1D"/>
<rect width="7.10826" height="2.16143" rx="0.302993" transform="matrix(-0.610286 -0.792181 -0.787633 0.616144 1713.31 177.812)" fill="#FFE589"/>
<rect width="7.10826" height="2.16143" rx="0.302993" transform="matrix(-0.610286 -0.792181 -0.787633 0.616144 1749.94 230.207)" fill="#FFE589"/>
<rect width="7.10826" height="2.16143" rx="0.302993" transform="matrix(-0.610286 -0.792181 -0.787633 0.616144 1716.12 186.318)" fill="#FFE589"/>
<rect width="7.10826" height="2.16143" rx="0.302993" transform="matrix(-0.610286 -0.792181 -0.787633 0.616144 1744.78 223.509)" fill="#FFE589"/>
<rect width="7.10826" height="2.16143" rx="0.302993" transform="matrix(-0.610286 -0.792181 -0.787633 0.616144 1710.97 179.619)" fill="#FFE589"/>
<rect width="7.10826" height="2.16143" rx="0.302993" transform="matrix(-0.610286 -0.792181 -0.787633 0.616144 1754.61 226.609)" fill="#FA6D1D"/>
<rect width="7.10826" height="2.16143" rx="0.302993" transform="matrix(-0.610286 -0.792181 -0.787633 0.616144 1720.79 182.72)" fill="#FFE589"/>
<rect width="7.10826" height="2.16143" rx="0.302993" transform="matrix(-0.610286 -0.792181 -0.787633 0.616144 1756.93 224.822)" fill="#FA6D1D"/>
<rect width="7.10826" height="2.16143" rx="0.302993" transform="matrix(-0.610286 -0.792181 -0.787633 0.616144 1723.12 180.932)" fill="#FA6D1D"/>
<rect width="7.1677" height="2.1795" rx="0.302993" transform="matrix(-0.610286 -0.792181 -0.787633 0.616144 1749.45 219.912)" fill="#FA6D1D"/>
<rect width="7.1677" height="2.1795" rx="0.302993" transform="matrix(-0.610286 -0.792181 -0.787633 0.616144 1715.64 176.021)" fill="#FFE589"/>
<rect width="7.10826" height="2.16143" rx="0.302993" transform="matrix(-0.610286 -0.792181 -0.787633 0.616144 1759.25 223.035)" fill="#FA6D1D"/>
<rect width="7.10826" height="2.16143" rx="0.302993" transform="matrix(-0.610286 -0.792181 -0.787633 0.616144 1725.44 179.145)" fill="#FA6D1D"/>
<rect width="7.10826" height="2.16143" rx="0.302993" transform="matrix(-0.610286 -0.792181 -0.787633 0.616144 1751.77 218.121)" fill="#FA6D1D"/>
<rect width="7.10826" height="2.16143" rx="0.302993" transform="matrix(-0.610286 -0.792181 -0.787633 0.616144 1717.96 174.232)" fill="#FFE589"/>
<rect width="7.10826" height="2.16143" rx="0.302993" transform="matrix(-0.610286 -0.792181 -0.787633 0.616144 1754.09 216.332)" fill="#FA6D1D"/>
<rect width="7.10826" height="2.16143" rx="0.302993" transform="matrix(-0.610286 -0.792181 -0.787633 0.616144 1720.28 172.446)" fill="#FFE589"/>
<rect width="7.10826" height="2.16143" rx="0.302993" transform="matrix(-0.610286 -0.792181 -0.787633 0.616144 1762.62 241.809)" fill="#FA6D1D"/>
<rect width="7.10826" height="2.16143" rx="0.302993" transform="matrix(-0.610286 -0.792181 -0.787633 0.616144 1728.8 197.92)" fill="#FFE589"/>
<rect width="7.10826" height="2.16143" rx="0.302993" transform="matrix(-0.610286 -0.792181 -0.787633 0.616144 1757.46 235.108)" fill="#FFE589"/>
<rect width="7.10826" height="2.16143" rx="0.302993" transform="matrix(-0.610286 -0.792181 -0.787633 0.616144 1723.64 191.217)" fill="#FA6D1D"/>
<rect width="7.10826" height="2.16143" rx="0.302993" transform="matrix(-0.610286 -0.792181 -0.787633 0.616144 1760.27 243.616)" fill="#FFE589"/>
<rect width="7.10826" height="2.16143" rx="0.302993" transform="matrix(-0.610286 -0.792181 -0.787633 0.616144 1726.46 199.728)" fill="#FFE589"/>
<rect width="7.10826" height="2.16143" rx="0.302993" transform="matrix(-0.610286 -0.792181 -0.787633 0.616144 1755.11 236.918)" fill="#FFE589"/>
<rect width="7.10826" height="2.16143" rx="0.302993" transform="matrix(-0.610286 -0.792181 -0.787633 0.616144 1721.29 193.027)" fill="#FFE589"/>
<rect width="7.10826" height="2.16143" rx="0.302993" transform="matrix(-0.610286 -0.792181 -0.787633 0.616144 1764.94 240.021)" fill="#FA6D1D"/>
<rect width="7.10826" height="2.16143" rx="0.302993" transform="matrix(-0.610286 -0.792181 -0.787633 0.616144 1731.13 196.129)" fill="#FA6D1D"/>
<rect width="7.10826" height="2.16143" rx="0.302993" transform="matrix(-0.610286 -0.792181 -0.787633 0.616144 1767.26 238.232)" fill="#FA6D1D"/>
<rect width="7.10826" height="2.16143" rx="0.302993" transform="matrix(-0.610286 -0.792181 -0.787633 0.616144 1733.45 194.341)" fill="#FA6D1D"/>
<rect width="7.1677" height="2.1795" rx="0.302993" transform="matrix(-0.610286 -0.792181 -0.787633 0.616144 1759.78 233.322)" fill="#FFE589"/>
<rect width="7.1677" height="2.1795" rx="0.302993" transform="matrix(-0.610286 -0.792181 -0.787633 0.616144 1725.96 189.432)" fill="#FA6D1D"/>
<rect width="7.10826" height="2.16143" rx="0.302993" transform="matrix(-0.610286 -0.792181 -0.787633 0.616144 1769.58 236.443)" fill="#FA6D1D"/>
<rect width="7.10826" height="2.16143" rx="0.302993" transform="matrix(-0.610286 -0.792181 -0.787633 0.616144 1735.77 192.556)" fill="#FA6D1D"/>
<rect width="7.10826" height="2.16143" rx="0.302993" transform="matrix(-0.610286 -0.792181 -0.787633 0.616144 1762.1 231.534)" fill="#FA6D1D"/>
<rect width="7.10826" height="2.16143" rx="0.302993" transform="matrix(-0.610286 -0.792181 -0.787633 0.616144 1728.29 187.644)" fill="#FA6D1D"/>
<rect width="7.10826" height="2.16143" rx="0.302993" transform="matrix(-0.610286 -0.792181 -0.787633 0.616144 1764.42 229.742)" fill="#FA6D1D"/>
<rect width="7.10826" height="2.16143" rx="0.302993" transform="matrix(-0.610286 -0.792181 -0.787633 0.616144 1730.61 185.855)" fill="#FA6D1D"/>
<path d="M1743.39 186.344C1742.6 186.95 1742.01 187.791 1741.64 188.821C1741.28 189.85 1741.15 191.047 1741.26 192.343C1741.37 193.638 1741.72 195.008 1742.3 196.373C1742.87 197.738 1743.65 199.072 1744.59 200.299C1745.54 201.525 1746.63 202.62 1747.8 203.522C1748.98 204.423 1750.21 205.113 1751.44 205.551C1752.66 205.99 1753.85 206.169 1754.94 206.079C1756.03 205.988 1756.99 205.63 1757.78 205.024L1750.58 195.684L1743.39 186.344Z" fill="#EF5B3E"/>
<path d="M1743.39 186.344C1742.6 186.95 1742.01 187.792 1741.64 188.821C1741.28 189.851 1741.15 191.047 1741.26 192.343C1741.37 193.639 1741.72 195.008 1742.3 196.374C1742.87 197.739 1743.65 199.073 1744.59 200.299C1745.54 201.526 1746.63 202.621 1747.8 203.522C1748.98 204.423 1750.21 205.113 1751.44 205.552C1752.66 205.991 1753.85 206.17 1754.94 206.079C1756.03 205.989 1756.99 205.63 1757.78 205.024C1757.78 205.024 1752.34 202.702 1748.29 197.45C1744.25 192.198 1743.39 186.344 1743.39 186.344Z" fill="#FB9D5A"/>
<path d="M1746.68 192.613L1756.15 191.347L1752.51 200.185" stroke="#F3C001" stroke-width="0.908979"/>
<circle r="1.3618" transform="matrix(-0.610286 -0.792181 -0.792181 0.610286 1756.04 191.436)" fill="#F3C001"/>
<path fill-rule="evenodd" clip-rule="evenodd" d="M1770.77 237.395C1771.21 237.055 1771.29 236.421 1770.95 235.979L1750.53 209.474C1750.19 209.032 1749.56 208.949 1749.12 209.29L1743.78 213.399L1741.86 210.902L1744.59 208.801C1746.39 207.414 1747.3 205.304 1747.24 203.193C1747.39 203.317 1747.54 203.437 1747.69 203.555C1748.87 204.456 1750.1 205.146 1751.32 205.584C1752.55 206.023 1753.74 206.202 1754.83 206.112C1755.92 206.021 1756.88 205.663 1757.67 205.057L1757.67 205.056L1757.67 205.054L1753.26 199.33L1755.94 192.826C1756.23 192.825 1756.52 192.732 1756.76 192.543C1757.36 192.084 1757.47 191.229 1757.01 190.633C1756.55 190.037 1755.7 189.927 1755.1 190.386C1754.85 190.575 1754.69 190.833 1754.62 191.112L1747.65 192.043L1743.28 186.374C1742.56 186.93 1742 187.685 1741.63 188.602C1741.59 188.685 1741.56 188.769 1741.53 188.854C1741.17 189.883 1741.04 191.08 1741.15 192.376C1741.26 193.671 1741.61 195.041 1742.18 196.406C1742.25 196.567 1742.32 196.727 1742.4 196.887C1740.37 196.278 1738.08 196.621 1736.28 198.013L1733.55 200.112L1731.63 197.614L1736.96 193.507C1737.4 193.166 1737.48 192.532 1737.14 192.09L1716.72 165.585C1716.38 165.143 1715.75 165.061 1715.31 165.401L1703.51 174.492C1703.06 174.832 1702.98 175.466 1703.32 175.908L1723.74 202.413C1724.08 202.855 1724.72 202.937 1725.16 202.597L1730.55 198.44L1732.48 200.939L1728.24 204.206C1726.25 205.738 1725.88 208.592 1727.41 210.58L1730.17 214.167C1731.71 216.156 1734.56 216.526 1736.55 214.994L1740.79 211.728L1742.71 214.225L1737.32 218.38C1736.88 218.72 1736.79 219.355 1737.14 219.797L1757.55 246.302C1757.89 246.744 1758.53 246.826 1758.97 246.485L1770.77 237.395ZM1752.62 198.499L1755.08 192.527C1755 192.46 1754.92 192.383 1754.85 192.295C1754.79 192.208 1754.73 192.115 1754.69 192.019L1748.29 192.875L1750.47 195.714L1752.62 198.499Z" fill="url(#paint18_linear_21668_2855)" fill-opacity="0.4"/>
<path d="M1733.61 201.344C1733.78 201.238 1733.99 201.104 1734.27 201.011C1734.52 200.9 1734.83 200.811 1735.18 200.745C1735.53 200.678 1735.9 200.648 1736.31 200.655C1736.46 200.658 1736.63 200.666 1736.81 200.706C1737.27 200.118 1738.01 200.072 1738.01 200.072C1738.46 200.589 1738.54 201.105 1738.53 201.315C1738.55 201.333 1738.58 201.337 1738.63 201.36C1738.73 201.423 1738.84 201.486 1738.96 201.567C1739.08 201.649 1739.16 201.726 1739.28 201.807C1739.38 201.902 1739.49 201.997 1739.57 202.074C1739.59 202.092 1739.6 202.111 1739.62 202.129C1740.55 201.784 1741.41 202.226 1741.41 202.226C1741.51 203.362 1740.95 204.018 1740.95 204.018C1740.95 204.018 1740.93 204.032 1740.91 204.046C1740.92 204.096 1740.97 204.151 1740.98 204.201C1741 204.269 1741.02 204.337 1741.06 204.424C1741.08 204.492 1741.11 204.56 1741.13 204.661C1741.16 204.811 1741.2 204.98 1741.23 205.13C1741.26 205.28 1741.27 205.445 1741.28 205.609C1741.3 205.627 1741.31 205.613 1741.31 205.613C1742.53 206.381 1742.77 207.698 1742.77 207.698C1741.72 208.646 1740.61 208.69 1740.4 208.678C1740.34 208.751 1740.3 208.843 1740.24 208.916C1740.05 209.182 1739.83 209.462 1739.59 209.706C1739.55 209.733 1739.53 209.779 1739.49 209.807C1739.76 211.161 1738.99 212.211 1738.99 212.211C1737.43 212.112 1736.64 211.191 1736.64 211.191C1736.32 211.23 1736.03 211.255 1735.7 211.243C1735.57 211.226 1735.43 211.223 1735.31 211.223C1734.69 212.163 1733.74 212.375 1733.74 212.375C1733 211.495 1732.98 210.564 1732.99 210.354C1732.88 210.291 1732.8 210.214 1732.69 210.151C1732.41 209.933 1732.15 209.671 1731.91 209.394C1731.85 209.321 1731.8 209.249 1731.74 209.176L1731.71 209.14L1731.7 209.121L1731.67 209.085L1731.64 209.049C1730.7 209.083 1730.04 208.407 1730.04 208.407C1730.18 207.434 1730.72 206.988 1730.85 206.891C1730.87 206.877 1730.87 206.877 1730.87 206.877L1730.88 206.863C1730.87 206.699 1730.88 206.521 1730.89 206.343C1730.92 205.973 1730.99 205.625 1731.1 205.282C1731.11 205.25 1731.11 205.218 1731.15 205.191C1730.64 204.601 1730.73 203.865 1730.73 203.865C1731.45 203.491 1732.03 203.619 1732.14 203.65C1732.14 203.65 1732.14 203.65 1732.15 203.668C1732.19 203.641 1732.23 203.613 1732.26 203.586C1732.33 203.53 1732.41 203.475 1732.46 203.434L1732.55 203.364L1732.57 203.351L1732.59 203.337C1732.6 203.323 1732.6 203.323 1732.6 203.323L1732.64 203.295L1732.69 203.254C1732.71 203.24 1732.73 203.226 1732.75 203.212C1732.77 203.199 1732.78 203.185 1732.8 203.171L1732.86 203.13L1732.91 203.088C1733 203.051 1733.07 202.996 1733.14 202.972C1733.46 202.838 1733.79 202.735 1734.13 202.701C1734.48 202.666 1734.8 202.678 1735.13 202.74C1735.47 202.801 1735.76 202.922 1736.05 203.075C1736.34 203.229 1736.57 203.423 1736.8 203.65C1736.92 203.763 1737 203.872 1737.1 203.999L1737.13 204.036L1737.14 204.054L1737.16 204.072L1737.17 204.09L1737.2 204.126C1737.21 204.145 1737.23 204.163 1737.24 204.181C1737.28 204.235 1737.32 204.322 1737.36 204.376C1737.51 204.64 1737.6 204.945 1737.62 205.242C1737.65 205.538 1737.65 205.83 1737.6 206.1C1737.54 206.37 1737.43 206.631 1737.29 206.855C1737.15 207.08 1736.97 207.268 1736.79 207.438C1736.74 207.48 1736.7 207.507 1736.65 207.549C1736.63 207.563 1736.63 207.563 1736.61 207.577L1736.57 207.604C1736.56 207.618 1736.52 207.646 1736.5 207.659C1736.4 207.71 1736.28 207.775 1736.17 207.826C1735.95 207.91 1735.72 207.943 1735.5 207.963C1735.28 207.965 1735.07 207.92 1734.88 207.862C1734.7 207.804 1734.51 207.714 1734.37 207.597C1734.22 207.479 1734.1 207.366 1733.99 207.22C1733.98 207.202 1733.96 207.184 1733.95 207.166L1733.94 207.148L1733.92 207.13C1733.91 207.111 1733.89 207.093 1733.89 207.093C1733.89 207.093 1733.89 207.093 1733.88 207.075L1733.87 207.057L1733.85 207.039C1733.84 207.021 1733.82 207.003 1733.81 206.984C1733.8 206.966 1733.78 206.948 1733.79 206.916C1733.76 206.88 1733.76 206.848 1733.73 206.811C1733.71 206.743 1733.69 206.675 1733.68 206.593C1733.66 206.524 1733.67 206.46 1733.66 206.378C1733.65 206.36 1733.66 206.346 1733.67 206.314C1733.66 206.232 1733.73 206.177 1733.8 206.186C1733.86 206.194 1733.92 206.235 1733.91 206.299C1733.93 206.317 1733.91 206.331 1733.92 206.349C1733.93 206.399 1733.94 206.449 1733.97 206.518C1733.98 206.568 1734.02 206.622 1734.03 206.672C1734.04 206.691 1734.07 206.727 1734.08 206.745C1734.1 206.763 1734.1 206.763 1734.11 206.781C1734.13 206.8 1734.13 206.8 1734.14 206.818C1734.15 206.836 1734.15 206.836 1734.17 206.854C1734.18 206.872 1734.2 206.89 1734.2 206.89L1734.21 206.909L1734.22 206.927C1734.24 206.945 1734.24 206.945 1734.25 206.963C1734.35 207.058 1734.44 207.135 1734.58 207.203C1734.7 207.284 1734.84 207.32 1734.98 207.355C1735.12 207.391 1735.29 207.38 1735.42 207.366C1735.55 207.351 1735.72 207.309 1735.86 207.23C1735.93 207.207 1736 207.152 1736.05 207.11C1736.07 207.096 1736.09 207.083 1736.11 207.069L1736.12 207.055L1736.14 207.041C1736.18 207.014 1736.21 206.986 1736.24 206.94C1736.47 206.678 1736.62 206.358 1736.67 205.974C1736.68 205.878 1736.68 205.796 1736.69 205.7C1736.68 205.618 1736.66 205.518 1736.66 205.436C1736.64 205.335 1736.6 205.249 1736.58 205.181C1736.54 205.094 1736.5 205.008 1736.44 204.935C1736.42 204.899 1736.39 204.862 1736.36 204.826C1736.35 204.808 1736.35 204.808 1736.35 204.808L1736.32 204.772L1736.31 204.753L1736.28 204.717C1736.22 204.644 1736.13 204.567 1736.06 204.509C1735.9 204.373 1735.73 204.269 1735.53 204.193C1735.15 204.027 1734.71 203.984 1734.3 204.042C1734.1 204.079 1733.9 204.149 1733.71 204.237C1733.67 204.265 1733.6 204.288 1733.57 204.316L1733.53 204.344L1733.49 204.371C1733.48 204.385 1733.48 204.385 1733.46 204.399C1733.44 204.413 1733.44 204.413 1733.42 204.426L1733.39 204.454L1733.35 204.482C1733.33 204.496 1733.3 204.523 1733.28 204.537C1733.22 204.578 1733.19 204.606 1733.15 204.666C1733.11 204.693 1733.07 204.753 1733.04 204.781C1733 204.808 1732.96 204.868 1732.94 204.914C1732.86 205.001 1732.8 205.106 1732.75 205.198C1732.65 205.395 1732.56 205.61 1732.48 205.843C1732.36 206.282 1732.33 206.766 1732.45 207.222C1732.5 207.441 1732.59 207.664 1732.69 207.873C1732.74 207.978 1732.81 208.068 1732.86 208.173L1732.88 208.191L1732.89 208.209L1732.92 208.246L1732.94 208.282L1732.96 208.3C1732.94 208.282 1732.96 208.3 1732.96 208.3C1733 208.355 1733.03 208.391 1733.07 208.446C1733.24 208.631 1733.43 208.804 1733.62 208.944C1733.82 209.084 1734.04 209.228 1734.26 209.323C1734.7 209.53 1735.19 209.645 1735.69 209.664C1735.93 209.681 1736.18 209.665 1736.42 209.6C1736.67 209.553 1736.9 209.487 1737.12 209.403C1737.35 209.32 1737.57 209.204 1737.75 209.066L1737.79 209.038L1737.81 209.024L1737.84 208.997L1737.95 208.914L1737.97 208.9L1738 208.872L1738.02 208.858C1738.04 208.845 1738.08 208.817 1738.09 208.803C1738.18 208.734 1738.28 208.633 1738.37 208.564C1738.45 208.477 1738.54 208.376 1738.62 208.288C1738.69 208.201 1738.79 208.1 1738.85 207.995C1738.99 207.802 1739.11 207.591 1739.24 207.38C1739.45 206.954 1739.61 206.52 1739.65 206.086C1739.66 205.99 1739.67 205.862 1739.67 205.748C1739.67 205.634 1739.67 205.52 1739.65 205.419C1739.65 205.305 1739.63 205.205 1739.61 205.105C1739.6 205.055 1739.59 205.004 1739.58 204.954C1739.56 204.936 1739.57 204.904 1739.56 204.886C1739.54 204.868 1739.55 204.836 1739.53 204.818C1739.51 204.717 1739.46 204.613 1739.44 204.513C1739.43 204.494 1739.43 204.462 1739.42 204.444C1739.4 204.426 1739.41 204.394 1739.39 204.376C1739.38 204.326 1739.34 204.271 1739.33 204.221C1739.32 204.203 1739.32 204.171 1739.29 204.135C1739.28 204.117 1739.27 204.098 1739.26 204.048C1739.24 204.03 1739.23 204.012 1739.22 203.962L1739.19 203.925L1739.16 203.889C1739.15 203.871 1739.13 203.853 1739.12 203.803C1739.11 203.785 1739.08 203.748 1739.09 203.716C1739.07 203.698 1739.05 203.662 1739.03 203.644C1739.02 203.625 1739 203.607 1738.99 203.589L1738.96 203.553L1738.95 203.535L1738.93 203.516C1738.92 203.498 1738.89 203.462 1738.88 203.444L1738.85 203.407C1738.85 203.407 1738.84 203.389 1738.85 203.407L1738.84 203.389C1738.82 203.371 1738.81 203.353 1738.79 203.335C1738.73 203.244 1738.67 203.171 1738.6 203.081C1738.47 202.917 1738.33 202.768 1738.17 202.632C1737.88 202.364 1737.55 202.157 1737.21 201.981C1736.88 201.805 1736.53 201.694 1736.2 201.632C1736.17 201.628 1736.17 201.628 1736.14 201.623C1736.11 201.619 1736.11 201.619 1736.07 201.615C1736.04 201.61 1736 201.588 1735.95 201.597C1735.9 201.607 1735.87 201.571 1735.82 201.58C1735.77 201.589 1735.72 201.567 1735.69 201.563C1735.53 201.541 1735.38 201.537 1735.22 201.548C1734.93 201.541 1734.63 201.565 1734.38 201.613C1734.37 201.627 1734.35 201.608 1734.33 201.622C1734.32 201.636 1734.3 201.618 1734.28 201.632C1734.25 201.627 1734.23 201.641 1734.18 201.651C1734.15 201.646 1734.13 201.66 1734.08 201.67C1734.05 201.665 1734.03 201.679 1733.98 201.689C1733.87 201.721 1733.77 201.74 1733.68 201.777C1733.53 201.838 1733.39 201.884 1733.29 201.935C1733.24 201.945 1733.17 201.936 1733.16 201.886C1733.13 201.85 1733.14 201.786 1733.18 201.758C1733.34 201.52 1733.47 201.423 1733.61 201.344Z" fill="url(#paint19_linear_21668_2855)"/>
</g>
<ellipse cx="1237.8" cy="68.798" rx="8" ry="8" transform="rotate(-15 1237.8 68.798)" fill="url(#paint20_radial_21668_2855)" fill-opacity="0.4"/>
<ellipse cx="195.709" cy="230.709" rx="11.5" ry="11.5" transform="rotate(-30 195.709 230.709)" fill="url(#paint21_radial_21668_2855)"/>
<ellipse cx="263.971" cy="120.971" rx="31.8198" ry="31.8198" transform="rotate(-15 263.971 120.971)" fill="url(#paint22_radial_21668_2855)"/>
<ellipse cx="85.9059" cy="42.906" rx="12.9872" ry="12.9872" transform="rotate(-15 85.9059 42.906)" fill="url(#paint23_radial_21668_2855)"/>
<defs>
<linearGradient id="paint0_linear_21668_2855" x1="18.5" y1="-12.4999" x2="771" y2="290" gradientUnits="userSpaceOnUse">
<stop stop-color="#110122"/>
<stop offset="1" stop-color="#30015B"/>
</linearGradient>
<linearGradient id="paint1_linear_21668_2855" x1="960.5" y1="60" x2="1033" y2="416" gradientUnits="userSpaceOnUse">
<stop stop-color="#48008C" stop-opacity="0"/>
<stop offset="0.717436" stop-color="#A000A0"/>
<stop offset="1" stop-color="#D12D70"/>
</linearGradient>
<radialGradient id="paint2_radial_21668_2855" cx="0" cy="0" r="1" gradientUnits="userSpaceOnUse" gradientTransform="translate(1336 -12.5) rotate(90) scale(177 1292.1)">
<stop stop-color="#190031"/>
<stop offset="1" stop-color="#22004D" stop-opacity="0"/>
</radialGradient>
<linearGradient id="paint3_linear_21668_2855" x1="2129.5" y1="8.28433e-05" x2="1630" y2="215" gradientUnits="userSpaceOnUse">
<stop stop-color="#8B2836"/>
<stop offset="1" stop-color="#8B2836" stop-opacity="0"/>
</linearGradient>
<linearGradient id="paint4_linear_21668_2855" x1="1865" y1="-50.5001" x2="2127.5" y2="290" gradientUnits="userSpaceOnUse">
<stop stop-color="#C82180" stop-opacity="0"/>
<stop offset="1" stop-color="#FD723B"/>
</linearGradient>
<radialGradient id="paint5_radial_21668_2855" cx="0" cy="0" r="1" gradientUnits="userSpaceOnUse" gradientTransform="translate(1435.16 -131.547) rotate(32.4712) scale(380.551)">
<stop offset="0.602695" stop-color="#0028B5"/>
<stop offset="1" stop-color="#1A4CFF"/>
</radialGradient>
<radialGradient id="paint6_radial_21668_2855" cx="0" cy="0" r="1" gradientUnits="userSpaceOnUse" gradientTransform="translate(1435.16 -131.547) rotate(32.4712) scale(380.551)">
<stop offset="0.602695" stop-color="#0028B5"/>
<stop offset="1" stop-color="#1A4CFF"/>
</radialGradient>
<radialGradient id="paint7_radial_21668_2855" cx="0" cy="0" r="1" gradientUnits="userSpaceOnUse" gradientTransform="translate(1413.19 342.504) rotate(-67.2188) scale(608.114 583.149)">
<stop stop-color="#00A486" stop-opacity="0"/>
<stop offset="1" stop-color="#00A486"/>
</radialGradient>
<radialGradient id="paint8_radial_21668_2855" cx="0" cy="0" r="1" gradientUnits="userSpaceOnUse" gradientTransform="translate(1261.62 -295.631) rotate(51.1038) scale(566.702 437.832)">
<stop stop-color="#FFF500"/>
<stop offset="1" stop-color="#FFF500" stop-opacity="0"/>
</radialGradient>
<radialGradient id="paint9_radial_21668_2855" cx="0" cy="0" r="1" gradientUnits="userSpaceOnUse" gradientTransform="translate(1432.73 278.1) rotate(-82.0674) scale(548.331 743.618)">
<stop stop-color="#00A486" stop-opacity="0"/>
<stop offset="1" stop-color="#00A486"/>
</radialGradient>
<radialGradient id="paint10_radial_21668_2855" cx="0" cy="0" r="1" gradientUnits="userSpaceOnUse" gradientTransform="translate(1452.08 -263.241) rotate(102.732) scale(473.399 308.063)">
<stop stop-color="#FFF500"/>
<stop offset="1" stop-color="#FFF500" stop-opacity="0"/>
</radialGradient>
<radialGradient id="paint11_radial_21668_2855" cx="0" cy="0" r="1" gradientUnits="userSpaceOnUse" gradientTransform="translate(1681.03 172.408) rotate(-125.484) scale(532.411)">
<stop offset="0.921191" stop-color="#B363FF" stop-opacity="0"/>
<stop offset="1" stop-color="#921FFF"/>
</radialGradient>
<radialGradient id="paint12_radial_21668_2855" cx="0" cy="0" r="1" gradientUnits="userSpaceOnUse" gradientTransform="translate(1630.13 -359.847) rotate(103.664) scale(617.805)">
<stop offset="0.821907" stop-color="#BA26FF" stop-opacity="0"/>
<stop offset="1" stop-color="#B923FF"/>
</radialGradient>
<radialGradient id="paint13_radial_21668_2855" cx="0" cy="0" r="1" gradientUnits="userSpaceOnUse" gradientTransform="translate(1304.53 -199.802) rotate(31.1235) scale(527.917)">
<stop offset="0.804113" stop-color="#FC6AFF" stop-opacity="0"/>
<stop offset="0.945321" stop-color="#FF6E30"/>
</radialGradient>
<radialGradient id="paint14_radial_21668_2855" cx="0" cy="0" r="1" gradientUnits="userSpaceOnUse" gradientTransform="translate(1308.21 -191.831) rotate(30.4895) scale(520.887)">
<stop offset="0.951401" stop-color="#FF9900" stop-opacity="0"/>
<stop offset="1" stop-color="#FFF500"/>
</radialGradient>
<linearGradient id="paint15_linear_21668_2855" x1="1269.69" y1="44.1531" x2="1558.75" y2="85.6624" gradientUnits="userSpaceOnUse">
<stop stop-color="#3001B5"/>
<stop offset="1" stop-color="#0133B5" stop-opacity="0"/>
</linearGradient>
<linearGradient id="paint16_linear_21668_2855" x1="1725.6" y1="214.928" x2="1280.56" y2="177.814" gradientUnits="userSpaceOnUse">
<stop stop-color="#FF7D41"/>
<stop offset="0.0532625" stop-color="#FF8E44" stop-opacity="0.6"/>
<stop offset="0.599999" stop-color="#FE824C" stop-opacity="0.448681"/>
<stop offset="1" stop-color="#FC5E63" stop-opacity="0"/>
</linearGradient>
<linearGradient id="paint17_linear_21668_2855" x1="1733.66" y1="198.498" x2="1745.63" y2="208.048" gradientUnits="userSpaceOnUse">
<stop stop-color="#FB9D5A"/>
<stop offset="1" stop-color="#FD6F42"/>
</linearGradient>
<linearGradient id="paint18_linear_21668_2855" x1="1707.76" y1="170.359" x2="1765.42" y2="240.705" gradientUnits="userSpaceOnUse">
<stop stop-color="#FFE600"/>
<stop offset="0.487671" stop-color="#FFA113"/>
<stop offset="1" stop-color="#D233A6"/>
</linearGradient>
<linearGradient id="paint19_linear_21668_2855" x1="1736.67" y1="213.364" x2="1731.81" y2="202.436" gradientUnits="userSpaceOnUse">
<stop stop-color="#FFF100"/>
<stop offset="1" stop-color="#FFFEF9"/>
</linearGradient>
<radialGradient id="paint20_radial_21668_2855" cx="0" cy="0" r="1" gradientUnits="userSpaceOnUse" gradientTransform="translate(1233.7 65.077) rotate(33.3391) scale(13.5247)">
<stop offset="0.594625" stop-color="#523379"/>
<stop offset="1" stop-color="#F0F4F9"/>
</radialGradient>
<radialGradient id="paint21_radial_21668_2855" cx="0" cy="0" r="1" gradientUnits="userSpaceOnUse" gradientTransform="translate(189.826 225.36) rotate(33.3391) scale(19.4418)">
<stop offset="0.594625" stop-color="#46180A"/>
<stop offset="1" stop-color="#FF9C28"/>
</radialGradient>
<radialGradient id="paint22_radial_21668_2855" cx="0" cy="0" r="1" gradientUnits="userSpaceOnUse" gradientTransform="translate(247.691 106.171) rotate(33.3391) scale(53.7941)">
<stop offset="0.594625" stop-color="#540E41"/>
<stop offset="1" stop-color="#FC6C39"/>
</radialGradient>
<radialGradient id="paint23_radial_21668_2855" cx="0" cy="0" r="1" gradientUnits="userSpaceOnUse" gradientTransform="translate(79.2614 36.8654) rotate(33.3391) scale(21.9559)">
<stop offset="0.594625" stop-color="#3C0F60"/>
<stop offset="1" stop-color="#D113F0"/>
</radialGradient>
</defs>
</svg>
