<svg width="1920" height="419" viewBox="0 0 1920 419" fill="none" xmlns="http://www.w3.org/2000/svg">
<mask id="mask0" mask-type="alpha" maskUnits="userSpaceOnUse" x="-8" y="0" width="1935" height="419">
<rect x="-8" width="1935" height="419" fill="#C4C4C4"/>
</mask>
<g mask="url(#mask0)">
<path d="M1936.2 -1.5H-15.2V434H1936.2V-1.5Z" fill="url(#paint0_linear)"/>
<path opacity="0.3" d="M1381.8 604C1646.07 604 1860.3 389.768 1860.3 125.5C1860.3 -138.768 1646.07 -353 1381.8 -353C1117.53 -353 903.3 -138.768 903.3 125.5C903.3 389.768 1117.53 604 1381.8 604Z" fill="url(#paint1_linear)"/>
<path opacity="0.5" d="M1834.8 -44.1C1833.3 118.3 1424.4 246.2 921.5 241.7C418.6 237.1 12.1001 101.8 13.6001 -60.6C15.1001 -223 423.9 -350.9 926.8 -346.4C1429.7 -341.9 1836.3 -206.5 1834.8 -44.1Z" fill="url(#paint2_radial)"/>
<path opacity="0.5" d="M1523.7 155.6C1532.9 136.6 1558.4 84.5 1593.9 61.2C1629.4 37.9 1668.4 36.1 1703.9 50.5C1739.4 64.9 1765.3 99.6 1765.3 99.6C1765.3 99.6 1779.9 117.4 1792 135.3C1804.1 153.2 1828.7 185.8 1828.7 185.8L1514.2 176.4L1523.7 155.6Z" fill="url(#paint3_linear)"/>
<path d="M1891.2 108.9V117.7" stroke="#1D3B84" stroke-width="2" stroke-miterlimit="10"/>
<path d="M1857.7 108.9V117.7" stroke="#1D3B84" stroke-width="2" stroke-miterlimit="10"/>
<path d="M1824.1 108.9V117.7" stroke="#1D3B84" stroke-width="2" stroke-miterlimit="10"/>
<path d="M1793.3 108.9V117.7" stroke="#1057BC" stroke-width="2" stroke-miterlimit="10"/>
<path d="M1759.7 108.9V117.7" stroke="#009CD3" stroke-width="2" stroke-miterlimit="10"/>
<path d="M1726.2 108.9V117.7" stroke="#00E2B6" stroke-width="2" stroke-miterlimit="10"/>
<path d="M1692.6 108.9V117.7" stroke="#00E2B6" stroke-width="2" stroke-miterlimit="10"/>
<path d="M1660.5 108.9V117.7" stroke="#00E2B6" stroke-width="2" stroke-miterlimit="10"/>
<path d="M1626.9 108.9V117.7" stroke="#00E2B6" stroke-width="2" stroke-miterlimit="10"/>
<path d="M1593.4 108.9V117.7" stroke="#00E2B6" stroke-width="2" stroke-miterlimit="10"/>
<path d="M1559.9 108.9V117.7" stroke="#009CD3" stroke-width="2" stroke-miterlimit="10"/>
<path d="M1525.1 108.9V117.7" stroke="#1057BC" stroke-width="2" stroke-miterlimit="10"/>
<path d="M1491.5 108.9V117.7" stroke="#1D3B84" stroke-width="2" stroke-miterlimit="10"/>
<path d="M1458 108.9V117.7" stroke="#1D3B84" stroke-width="2" stroke-miterlimit="10"/>
<path d="M1424.5 108.9V117.7" stroke="#1D3B84" stroke-width="2" stroke-miterlimit="10"/>
<path d="M1392.3 108.9V117.7" stroke="#1D3B84" stroke-width="2" stroke-miterlimit="10"/>
<path d="M1358.7 108.9V117.7" stroke="#1D3B84" stroke-width="2" stroke-miterlimit="10"/>
<path d="M1325.2 108.9V117.7" stroke="#1D3B84" stroke-width="2" stroke-miterlimit="10"/>
<path d="M1291.7 108.9V117.7" stroke="#1D3B84" stroke-width="2" stroke-miterlimit="10"/>
<path d="M1260.9 108.9V117.7" stroke="#1D3B84" stroke-width="2" stroke-miterlimit="10"/>
<path d="M1227.3 108.9V117.7" stroke="#1D3B84" stroke-width="2" stroke-miterlimit="10"/>
<path d="M1193.8 108.9V117.7" stroke="#1D3B84" stroke-width="2" stroke-miterlimit="10"/>
<path opacity="0.7" d="M1160.2 108.9V117.7" stroke="#1D3B84" stroke-width="2" stroke-miterlimit="10"/>
<path opacity="0.7" d="M1128.1 108.9V117.7" stroke="#1D3B84" stroke-width="2" stroke-miterlimit="10"/>
<path opacity="0.4" d="M1094.5 108.9V117.7" stroke="#1D3B84" stroke-width="2" stroke-miterlimit="10"/>
<path opacity="0.4" d="M1061 108.9V117.7" stroke="#1D3B84" stroke-width="2" stroke-miterlimit="10"/>
<path opacity="0.2" d="M1027.5 108.9V117.7" stroke="#1D3B84" stroke-width="2" stroke-miterlimit="10"/>
<path opacity="0.5" d="M707.6 424.4C707.6 384.4 740 352 780 352C820 352 852.4 384.4 852.4 424.4H939.3C939.3 336.6 867.9 265.2 780.1 265.2C692.3 265.2 620.9 336.6 620.9 424.4H707.6Z" fill="url(#paint4_linear)"/>
<path opacity="0.5" d="M763.4 114.9V174.3H736.1V176.3H763.4V235.7H736.1V237.7H763.4V297.1H736.1V299.1H763.4V358.5H736.1V360.5H763.4V476.4H765.4V360.6H905.9V476.5H907.9V360.6H1048.4V476.5H1050.4V360.6H1189.1V476.5H1191.1V360.6H1331.6V476.5H1333.6V360.6H1474V476.5H1476V360.6H1616.5V476.5H1618.5V360.6H1759V476.5H1761V360.6H1901.5V476.5H1903.5V360.6H1937.2V358.6H1903.5V299.2H1937.2V297.2H1903.5V237.8H1937.2V235.8H1903.5V176.4H1937.2V174.4H1903.5V115H1937.2V113H1903.5V53.6H1938.2V51.6H737.2V53.6H763.5V113H736.2V115H763.4V114.9ZM765.4 53.5H905.9V112.9H765.4V53.5ZM1333.6 114.9H1474V174.3H1333.5V114.9H1333.6ZM1331.6 174.3H1191.1V114.9H1331.6V174.3ZM1476 114.9H1616.5V174.3H1476V114.9ZM1616.5 176.3V235.7H1476V176.3H1616.5ZM1474 235.8H1333.5V176.4H1474V235.8ZM1331.6 235.8H1191.1V176.4H1331.6V235.8ZM1189.1 235.8H1050.4V176.4H1189.1V235.8ZM1050.4 174.3V114.9H1189.1V174.3H1050.4ZM1050.4 112.9V53.5H1189.1V112.9H1050.4ZM1191.1 53.5H1331.6V112.9H1191.1V53.5ZM1333.6 53.5H1474V112.9H1333.5V53.5H1333.6ZM1476 53.5H1616.5V112.9H1476V53.5ZM1618.5 53.5H1759V112.9H1618.5V53.5ZM1759 114.9V174.3H1618.5V114.9H1759ZM1759 176.3V235.7H1618.5V176.3H1759ZM1759 237.8V297.2H1618.5V237.8H1759ZM1616.5 297.2H1476V237.8H1616.5V297.2ZM1474 297.2H1333.5V237.8H1474V297.2ZM1331.6 297.2H1191.1V237.8H1331.6V297.2ZM1189.1 297.2H1050.4V237.8H1189.1V297.2ZM1048.4 297.2H907.9V237.8H1048.4V297.2ZM907.9 235.8V176.4H1048.4V235.8H907.9ZM907.9 174.3V114.9H1048.4V174.3H907.9ZM907.9 112.9V53.5H1048.4V112.9H907.9ZM1901.5 112.9H1761V53.5H1901.5V112.9ZM1901.5 174.3H1761V114.9H1901.5V174.3ZM1901.5 235.8H1761V176.4H1901.5V235.8ZM1901.5 297.2H1761V237.8H1901.5V297.2ZM1761 358.6V299.2H1901.5V358.6H1761ZM1618.5 358.6V299.2H1759V358.6H1618.5ZM1476 358.6V299.2H1616.5V358.6H1476ZM1333.6 358.6V299.2H1474V358.6H1333.6ZM1191.1 358.6V299.2H1331.6V358.6H1191.1ZM1050.4 358.6V299.2H1189.1V358.6H1050.4ZM907.9 358.6V299.2H1048.4V358.6H907.9ZM765.4 299.2H905.9V358.6H765.4V299.2ZM765.4 237.8H905.9V297.2H765.4V237.8ZM765.4 176.3H905.9V235.7H765.4V176.3ZM765.4 114.9H905.9V174.3H765.4V114.9Z" fill="url(#paint5_linear)"/>
<path opacity="0.2" d="M389 345.6H-85L389 -128.4V345.6Z" fill="url(#paint6_linear)"/>
<g opacity="0.3">
<path opacity="0.3" d="M58.8 -12.8C83.8 -6.19999 108.2 3.80001 131.2 17.1C199.1 56.3 247.7 119.6 268 195.4C288.3 271.2 277.9 350.3 238.7 418.2C235.5 423.7 232.2 429 228.7 434.3C229.5 434.2 230.4 434.2 231.2 434.1C234.4 429.2 237.5 424.3 240.4 419.2C279.9 350.8 290.4 271.1 269.9 194.8C249.5 118.5 200.5 54.8 132.1 15.3C109.6 2.29999 86.0001 -7.50001 61.6001 -14.1C60.7001 -13.7 59.7 -13.2 58.8 -12.8Z" fill="url(#paint7_linear)"/>
</g>
<g opacity="0.2">
<path opacity="0.2" d="M360.3 -3.5C359.6 -3.4 358.8 -3.20001 358.1 -3.10001C392.2 43.4 417.1 95.3 432.1 151.4C447.7 209.6 451.8 269.2 444.5 328.7C439.2 371.4 428.1 412.7 411.3 452.1C412 452.3 412.6 452.4 413.2 452.6C430 413.1 441.1 371.7 446.4 328.9C453.8 269.2 449.6 209.2 434 150.8C419.1 94.9 394.3 43 360.3 -3.5Z" fill="#1947BC"/>
</g>
<g opacity="0.3">
<path opacity="0.3" d="M80.3001 105.1C53.3001 89.5 23.6001 80.9 -6.6999 79.5C-6.8999 80.2 -7.1999 80.8 -7.3999 81.5C22.8001 82.8 52.4001 91.3 79.3001 106.8C170 159.2 201.2 275.5 148.8 366.2C132 395.3 108.4 418.8 80.2001 435.3C81.1001 435.5 82.0001 435.8 82.9001 436C110.7 419.4 133.9 396 150.5 367.2C203.4 275.7 171.9 158.1 80.3001 105.1Z" fill="url(#paint8_linear)"/>
</g>
<path d="M52.6999 203.1C51.3999 204.4 51.3999 206.5 52.6999 207.8C53.2999 208.4 54.1999 208.8 54.9999 208.8C55.7999 208.8 56.6999 208.5 57.2999 207.8C58.5999 206.5 58.5999 204.4 57.2999 203.1C56.0999 201.9 53.9999 201.9 52.6999 203.1ZM86.1999 169.7C84.8999 171 84.8999 173.1 86.1999 174.3C86.7999 174.9 87.6999 175.3 88.4999 175.3C89.2999 175.3 90.1999 175 90.7999 174.3C92.0999 173 92.0999 170.9 90.7999 169.7C89.5999 168.4 87.4999 168.4 86.1999 169.7ZM69.4999 186.4C68.1999 187.7 68.1999 189.8 69.4999 191.1C70.0999 191.7 70.9999 192.1 71.7999 192.1C72.5999 192.1 73.4999 191.8 74.0999 191.1C75.3999 189.8 75.3999 187.7 74.0999 186.4C72.7999 185.1 70.7999 185.1 69.4999 186.4ZM59.8999 169.7C58.5999 171 58.5999 173.1 59.8999 174.3C60.4999 174.9 61.3999 175.3 62.1999 175.3C62.9999 175.3 63.8999 175 64.4999 174.3C65.7999 173 65.7999 170.9 64.4999 169.7C63.2999 168.4 61.1999 168.4 59.8999 169.7ZM43.1999 186.4C41.8999 187.7 41.8999 189.8 43.1999 191.1C43.7999 191.7 44.6999 192.1 45.4999 192.1C46.2999 192.1 47.1999 191.8 47.7999 191.1C49.0999 189.8 49.0999 187.7 47.7999 186.4C46.4999 185.1 44.4999 185.1 43.1999 186.4ZM26.4999 203.1C25.1999 204.4 25.1999 206.5 26.4999 207.8C27.0999 208.4 27.9999 208.8 28.7999 208.8C29.5999 208.8 30.4999 208.5 31.0999 207.8C32.3999 206.5 32.3999 204.4 31.0999 203.1C29.7999 201.9 27.6999 201.9 26.4999 203.1ZM78.9999 203.1C77.6999 204.4 77.6999 206.5 78.9999 207.8C79.5999 208.4 80.4999 208.8 81.2999 208.8C82.0999 208.8 82.9999 208.5 83.5999 207.8C84.8999 206.5 84.8999 204.4 83.5999 203.1C82.3999 201.9 80.2999 201.9 78.9999 203.1ZM95.6999 186.4C94.3999 187.7 94.3999 189.8 95.6999 191.1C96.2999 191.7 97.1999 192.1 97.9999 192.1C98.7999 192.1 99.6999 191.8 100.3 191.1C101.6 189.8 101.6 187.7 100.3 186.4C99.0999 185.1 96.9999 185.1 95.6999 186.4ZM117.1 169.7C115.8 168.4 113.7 168.4 112.4 169.7C111.1 171 111.1 173.1 112.4 174.3C113 174.9 113.9 175.3 114.7 175.3C115.5 175.3 116.4 175 117 174.3C118.4 173.1 118.4 171 117.1 169.7Z" fill="#062C70"/>
<path d="M2.59995 253.3C1.29995 254.6 1.29995 256.7 2.59995 258C3.19995 258.6 4.09995 259 4.89995 259C5.69995 259 6.59995 258.7 7.19995 258C8.49995 256.7 8.49995 254.6 7.19995 253.3C5.89995 252.1 3.79995 252.1 2.59995 253.3ZM36 219.9C34.7 221.2 34.7 223.3 36 224.5C36.5999 225.1 37.5 225.5 38.3 225.5C39.1 225.5 40 225.2 40.6 224.5C41.9 223.2 41.9 221.1 40.6 219.9C39.4 218.6 37.2999 218.6 36 219.9ZM19.3 236.6C18 237.9 18 240 19.3 241.3C19.9 241.9 20.7999 242.3 21.5999 242.3C22.3999 242.3 23.3 242 23.9 241.3C25.2 240 25.2 237.9 23.9 236.6C22.7 235.3 20.6 235.3 19.3 236.6ZM9.69995 219.9C8.39995 221.2 8.39995 223.3 9.69995 224.5C10.2999 225.1 11.2 225.5 12 225.5C12.7999 225.5 13.7 225.2 14.3 224.5C15.6 223.2 15.6 221.1 14.3 219.9C13.1 218.6 10.9999 218.6 9.69995 219.9ZM-7.00005 236.6C-8.30005 237.9 -8.30005 240 -7.00005 241.3C-6.40005 241.9 -5.50004 242.3 -4.70004 242.3C-3.90005 242.3 -3.00005 242 -2.40005 241.3C-1.10005 240 -1.10005 237.9 -2.40005 236.6C-3.60005 235.3 -5.70005 235.3 -7.00005 236.6ZM-23.7 253.3C-25 254.6 -25 256.7 -23.7 258C-23.1 258.6 -22.2 259 -21.4 259C-20.6 259 -19.7 258.7 -19.1 258C-17.8 256.7 -17.8 254.6 -19.1 253.3C-20.4 252.1 -22.4 252.1 -23.7 253.3ZM28.9 253.3C27.6 254.6 27.6 256.7 28.9 258C29.5 258.6 30.3999 259 31.1999 259C31.9999 259 32.9 258.7 33.5 258C34.7999 256.7 34.7999 254.6 33.5 253.3C32.2 252.1 30.1 252.1 28.9 253.3ZM45.6 236.6C44.3 237.9 44.3 240 45.6 241.3C46.2 241.9 47.0999 242.3 47.8999 242.3C48.7 242.3 49.6 242 50.2 241.3C51.5 240 51.5 237.9 50.2 236.6C48.8999 235.3 46.9 235.3 45.6 236.6ZM67 219.9C65.7 218.6 63.6 218.6 62.3 219.9C61 221.2 61 223.3 62.3 224.5C62.9 225.1 63.8 225.5 64.6 225.5C65.4 225.5 66.2999 225.2 66.8999 224.5C68.2 223.2 68.2 221.2 67 219.9Z" fill="#062C70"/>
<path opacity="0.2" d="M216.5 28.9H252.8C254.5 28.9 255.9 30.3 255.9 32V68.3C255.9 70 254.5 71.4 252.8 71.4H216.5C214.8 71.4 213.4 70 213.4 68.3V32C213.4 30.3 214.8 28.9 216.5 28.9Z" fill="#1057BC"/>
<path opacity="0.2" d="M157.7 28.9H194C195.7 28.9 197.1 30.3 197.1 32V68.3C197.1 70 195.7 71.4 194 71.4H157.7C156 71.4 154.6 70 154.6 68.3V32C154.6 30.3 156 28.9 157.7 28.9Z" fill="#1057BC"/>
<path opacity="0.2" d="M275.3 28.9H311.6C313.3 28.9 314.7 30.3 314.7 32V68.3C314.7 70 313.3 71.4 311.6 71.4H275.3C273.6 71.4 272.2 70 272.2 68.3V32C272.2 30.3 273.6 28.9 275.3 28.9Z" fill="#1057BC"/>
<path opacity="0.2" d="M98.8002 28.9H135.1C136.8 28.9 138.2 30.3 138.2 32V68.3C138.2 70 136.8 71.4 135.1 71.4H98.8002C97.1002 71.4 95.7002 70 95.7002 68.3V32C95.8002 30.3 97.1002 28.9 98.8002 28.9Z" fill="#E90089"/>
<path opacity="0.2" d="M40.0001 28.9H76.3001C78.0001 28.9 79.4001 30.3 79.4001 32V68.3C79.4001 70 78.0001 71.4 76.3001 71.4H40.0001C38.3001 71.4 36.9001 70 36.9001 68.3V32C36.9001 30.3 38.3001 28.9 40.0001 28.9Z" fill="#1057BC"/>
<path opacity="0.2" d="M-18.7999 28.9H17.5001C19.2001 28.9 20.6001 30.3 20.6001 32V68.3C20.6001 70 19.2001 71.4 17.5001 71.4H-18.7999C-20.4999 71.4 -21.8999 70 -21.8999 68.3V32C-21.8999 30.3 -20.4999 28.9 -18.7999 28.9Z" fill="#1057BC"/>
<path d="M116.5 55.2C113.5 55.2 111 52.8 111 49.7C111 46.7 113.4 44.2 116.5 44.2C119.6 44.2 122 46.6 122 49.7C121.9 52.7 119.5 55.2 116.5 55.2Z" fill="url(#paint9_linear)"/>
<path d="M241.9 58.1H225.5L241.9 41.7V58.1Z" fill="url(#paint10_linear)"/>
<path d="M185 54.6C185.1 54.2 185.1 53.7 185.1 53.2C185.1 49.3 181.9 46.2 178.1 46.2C175.3 46.2 173 47.8 171.8 50.1C171.2 49.8 170.6 49.7 169.9 49.7C167.5 49.7 165.6 51.6 165.6 54C165.6 54.2 165.6 54.4 165.6 54.6H185Z" fill="url(#paint11_linear)"/>
<path d="M54.3 53.7C54.3 51.2 56.3 49.3 58.7 49.3C61.1 49.3 63.1001 51.3 63.1001 53.7H68.4C68.4 48.3 64.0001 43.9 58.6001 43.9C53.2001 43.9 48.8 48.3 48.8 53.7H54.3Z" fill="url(#paint12_linear)"/>
<path d="M302.2 47.9H295V40.8H292V47.9H284.8V51H292V58.1H295V51H302.2V47.9Z" fill="#1057BC"/>
<path d="M799.2 446.4V444.4C863.2 444.4 895.2 373.8 926.2 305.5C955.3 241.5 982.7 181 1034.4 181C1086.2 181 1112.3 227.7 1142.6 281.7C1153.1 300.5 1164 320 1176.8 339.3C1193.7 364.8 1215.7 385.8 1240.2 399.9C1264.8 414.1 1291.6 421 1317.5 420.1C1368.1 418.2 1413 386.8 1444 331.6C1464.6 295 1480.4 255.9 1495.7 218C1514.9 170.5 1533 125.7 1557.9 92.9C1585.9 56.1 1618.8 39.3 1661.6 39.9C1692.9 40.3 1720.6 52.4 1746.4 76.7C1769.4 98.3 1788.7 127.5 1807.4 155.8C1840.1 205.1 1874 256.1 1928.2 269.4L1927.7 271.3C1872.7 257.9 1838.6 206.5 1805.7 156.9C1787 128.8 1767.7 99.7 1744.9 78.2C1719.5 54.2 1692.1 42.3 1661.4 41.9C1660.7 41.9 1660 41.9 1659.3 41.9C1568.7 41.9 1535.6 123.9 1497.3 218.8C1482 256.7 1466.1 295.9 1445.5 332.6C1414.1 388.4 1368.6 420.2 1317.3 422.1C1291 423.1 1263.8 416 1238.9 401.7C1214.1 387.4 1191.9 366.3 1174.8 340.5C1161.9 321.1 1151 301.6 1140.5 282.8C1125.4 255.9 1111.2 230.5 1094.7 212.3C1076.5 192.3 1057.3 183 1034.1 183C983.7 183 956.5 242.9 927.8 306.4C896.8 375.2 864.5 446.4 799.2 446.4Z" fill="url(#paint13_linear)"/>
<path d="M1317.8 249.2H1273.4V254.4H1317.8V249.2Z" fill="url(#paint14_linear)"/>
<path opacity="0.3" d="M1317.9 254.4H1273.4V446.8H1317.9V254.4Z" fill="url(#paint15_linear)"/>
<path d="M1280.6 347.7H1251L1280.6 318.1V347.7Z" fill="url(#paint16_linear)"/>
<path d="M1630 146.9V165.5H1648.6V146.9H1630ZM1611.4 184.1H1630V165.5H1611.4V184.1Z" fill="url(#paint17_linear)"/>
<path opacity="0.3" d="M1730.1 204.5H1669.1V447.2H1730.1V204.5Z" fill="url(#paint18_linear)"/>
<path d="M1683.9 237C1683.4 237 1682.8 236.8 1682.4 236.4C1681.6 235.6 1681.6 234.2 1682.4 233.4L1692.8 223C1693.6 222.2 1695 222.2 1695.8 223L1702.4 229.6L1711.3 220.7C1712.1 219.9 1713.5 219.9 1714.3 220.7C1715.1 221.5 1715.1 222.9 1714.3 223.7L1703.9 234.1C1703.1 234.9 1701.7 234.9 1700.9 234.1L1694.3 227.5L1685.4 236.4C1685 236.8 1684.4 237 1683.9 237Z" fill="url(#paint19_linear)"/>
<path d="M1730.2 198.9H1669.1V204.6H1730.2V198.9Z" fill="url(#paint20_linear)"/>
<path d="M186.1 370H103V413.1H186.1V370Z" fill="url(#paint21_linear)"/>
<path d="M103 370H186.1" stroke="#1057BC" stroke-width="2" stroke-miterlimit="10"/>
<path d="M85.9999 315.6H2.8999V411.8H85.9999V315.6Z" fill="url(#paint22_linear)"/>
<path d="M2.8999 315.5H85.9999" stroke="#1057BC" stroke-width="2" stroke-miterlimit="10"/>
<path d="M1518.5 307.3H1517.3V312.2H1518.5V307.3Z" fill="#EFC90C"/>
<path d="M1519.7 307.3H1518.5V312.2H1519.7V307.3Z" fill="#EFC80D"/>
<path d="M1520.9 307.3H1519.7V312.2H1520.9V307.3Z" fill="#F0C70D"/>
<path d="M1522.1 307.3H1520.9V312.2H1522.1V307.3Z" fill="#F0C60E"/>
<path d="M1523.3 307.3H1522.1V312.2H1523.3V307.3Z" fill="#F0C50F"/>
<path d="M1524.5 307.3H1523.3V312.2H1524.5V307.3Z" fill="#F1C410"/>
<path d="M1525.8 307.3H1524.6V312.2H1525.8V307.3Z" fill="#F1C310"/>
<path d="M1527 307.3H1525.8V312.2H1527V307.3Z" fill="#F1C211"/>
<path d="M1528.2 307.3H1527V312.2H1528.2V307.3Z" fill="#F2C112"/>
<path d="M1529.4 307.3H1528.2V312.2H1529.4V307.3Z" fill="#F2C012"/>
<path d="M1530.6 307.3H1529.4V312.2H1530.6V307.3Z" fill="#F2BF13"/>
<path d="M1531.8 307.3H1530.6V312.2H1531.8V307.3Z" fill="#F2BE14"/>
<path d="M1533 307.3H1531.8V312.2H1533V307.3Z" fill="#F3BD14"/>
<path d="M1534.2 307.3H1533V312.2H1534.2V307.3Z" fill="#F3BC15"/>
<path d="M1535.4 307.3H1534.2V312.2H1535.4V307.3Z" fill="#F3BB16"/>
<path d="M1536.6 307.3H1535.4V312.2H1536.6V307.3Z" fill="#F4BA17"/>
<path d="M1537.8 307.3H1536.6V312.2H1537.8V307.3Z" fill="#F4B917"/>
<path d="M1539 307.3H1537.8V312.2H1539V307.3Z" fill="#F4B818"/>
<path d="M1540.2 307.3H1539V312.2H1540.2V307.3Z" fill="#F5B719"/>
<path d="M1541.4 307.3H1540.2V312.2H1541.4V307.3Z" fill="#F5B619"/>
<path d="M1542.6 307.3H1541.4V312.2H1542.6V307.3Z" fill="#F5B51A"/>
<path d="M1543.9 307.3H1542.7V312.2H1543.9V307.3Z" fill="#F6B41B"/>
<path d="M1545.1 307.3H1543.9V312.2H1545.1V307.3Z" fill="#F6B31C"/>
<path d="M1546.3 307.3H1545.1V312.2H1546.3V307.3Z" fill="#F6B21C"/>
<path d="M1547.5 307.3H1546.3V312.2H1547.5V307.3Z" fill="#F7B11D"/>
<path d="M1548.7 307.3H1547.5V312.2H1548.7V307.3Z" fill="#F7B01E"/>
<path d="M1549.9 307.3H1548.7V312.2H1549.9V307.3Z" fill="#F7AE1E"/>
<path d="M1551.1 307.3H1549.9V312.2H1551.1V307.3Z" fill="#F7AD1F"/>
<path d="M1552.3 307.3H1551.1V312.2H1552.3V307.3Z" fill="#F8AC20"/>
<path d="M1553.5 307.3H1552.3V312.2H1553.5V307.3Z" fill="#F8AB20"/>
<path d="M1554.7 307.3H1553.5V312.2H1554.7V307.3Z" fill="#F8AA21"/>
<path d="M1555.9 307.3H1554.7V312.2H1555.9V307.3Z" fill="#F9A922"/>
<path d="M1557.1 307.3H1555.9V312.2H1557.1V307.3Z" fill="#F9A823"/>
<path d="M1558.3 307.3H1557.1V312.2H1558.3V307.3Z" fill="#F9A723"/>
<path d="M1559.5 307.3H1558.3V312.2H1559.5V307.3Z" fill="#FAA624"/>
<path d="M1560.8 307.3H1559.6V312.2H1560.8V307.3Z" fill="#FAA525"/>
<path d="M1562 307.3H1560.8V312.2H1562V307.3Z" fill="#FAA425"/>
<path d="M1563.2 307.3H1562V312.2H1563.2V307.3Z" fill="#FBA326"/>
<path d="M1564.4 307.3H1563.2V312.2H1564.4V307.3Z" fill="#FBA227"/>
<path d="M1565.6 307.3H1564.4V312.2H1565.6V307.3Z" fill="#FBA128"/>
<path d="M1566.8 307.3H1565.6V312.2H1566.8V307.3Z" fill="#FCA028"/>
<path d="M1568 307.3H1566.8V312.2H1568V307.3Z" fill="#FC9F29"/>
<path d="M1569.2 307.3H1568V312.2H1569.2V307.3Z" fill="#FC9E2A"/>
<path d="M1570.4 307.3H1569.2V312.2H1570.4V307.3Z" fill="#FC9D2A"/>
<path d="M1571.6 307.3H1570.4V312.2H1571.6V307.3Z" fill="#FD9C2B"/>
<path d="M1572.8 307.3H1571.6V312.2H1572.8V307.3Z" fill="#FD9B2C"/>
<path d="M1574 307.3H1572.8V312.2H1574V307.3Z" fill="#FD9A2C"/>
<path d="M1575.2 307.3H1574V312.2H1575.2V307.3Z" fill="#FE992D"/>
<path d="M1576.4 307.3H1575.2V312.2H1576.4V307.3Z" fill="#FE982E"/>
<path d="M1577.7 307.3H1576.5V312.2H1577.7V307.3Z" fill="#FE972F"/>
<path d="M1578.9 307.3H1577.7V312.2H1578.9V307.3Z" fill="#FF962F"/>
<path d="M1580.1 307.3H1578.9V312.2H1580.1V307.3Z" fill="#FF9530"/>
<path d="M1487.9 310.3C1487.9 308.9 1489 307.8 1490.4 307.8C1491.8 307.8 1492.9 308.9 1492.9 310.3C1492.9 311.7 1491.8 312.8 1490.4 312.8C1489 312.8 1487.9 311.7 1487.9 310.3ZM1464.6 310.3C1464.6 308.9 1465.7 307.8 1467.1 307.8C1468.5 307.8 1469.6 308.9 1469.6 310.3C1469.6 311.7 1468.5 312.8 1467.1 312.8C1465.7 312.8 1464.6 311.7 1464.6 310.3ZM1441.3 310.3C1441.3 308.9 1442.4 307.8 1443.8 307.8C1445.2 307.8 1446.3 308.9 1446.3 310.3C1446.3 311.7 1445.2 312.8 1443.8 312.8C1442.4 312.8 1441.3 311.7 1441.3 310.3ZM1418 310.3C1418 308.9 1419.1 307.8 1420.5 307.8C1421.9 307.8 1423 308.9 1423 310.3C1423 311.7 1421.9 312.8 1420.5 312.8C1419.1 312.8 1418 311.7 1418 310.3ZM1394.7 310.3C1394.7 308.9 1395.8 307.8 1397.2 307.8C1398.6 307.8 1399.7 308.9 1399.7 310.3C1399.7 311.7 1398.6 312.8 1397.2 312.8C1395.8 312.8 1394.7 311.7 1394.7 310.3ZM1371.4 310.3C1371.4 308.9 1372.5 307.8 1373.9 307.8C1375.3 307.8 1376.4 308.9 1376.4 310.3C1376.4 311.7 1375.3 312.8 1373.9 312.8C1372.5 312.8 1371.4 311.7 1371.4 310.3ZM1348.1 310.3C1348.1 308.9 1349.2 307.8 1350.6 307.8C1352 307.8 1353.1 308.9 1353.1 310.3C1353.1 311.7 1352 312.8 1350.6 312.8C1349.2 312.8 1348.1 311.7 1348.1 310.3ZM1324.8 310.3C1324.8 308.9 1325.9 307.8 1327.3 307.8C1328.7 307.8 1329.8 308.9 1329.8 310.3C1329.8 311.7 1328.7 312.8 1327.3 312.8C1325.9 312.8 1324.8 311.7 1324.8 310.3ZM1301.5 310.3C1301.5 308.9 1302.6 307.8 1304 307.8C1305.4 307.8 1306.5 308.9 1306.5 310.3C1306.5 311.7 1305.4 312.8 1304 312.8C1302.6 312.8 1301.5 311.7 1301.5 310.3ZM1278.2 310.3C1278.2 308.9 1279.3 307.8 1280.7 307.8C1282.1 307.8 1283.2 308.9 1283.2 310.3C1283.2 311.7 1282.1 312.8 1280.7 312.8C1279.3 312.8 1278.2 311.7 1278.2 310.3Z" fill="url(#paint23_linear)"/>
<path opacity="0.68" d="M1809.7 405.5H1690.1V265.1H1809.7V405.5Z" fill="url(#paint24_linear)"/>
<path d="M1690.2 264.7H1809.7" stroke="#C11A5E" stroke-width="2" stroke-miterlimit="10"/>
<path d="M1875.5 342.9H1782.6V454.5H1875.5V342.9Z" fill="url(#paint25_linear)"/>
<path d="M1782.6 342.9H1875.5" stroke="#1057BC" stroke-width="2" stroke-miterlimit="10"/>
<path d="M1645.1 324.3H1552.2V412.4H1645.1V324.3Z" fill="url(#paint26_linear)"/>
<path d="M1552.2 324.3H1645.2" stroke="url(#paint27_linear)" stroke-width="2" stroke-miterlimit="10"/>
<path d="M1528.6 395.1H1435.7V413.1H1528.6V395.1Z" fill="url(#paint28_linear)"/>
<path d="M1435.7 395.1H1528.6" stroke="#1057BC" stroke-width="2" stroke-miterlimit="10"/>
<path d="M1718.5 370.4H1625.6V412.9H1718.5V370.4Z" fill="url(#paint29_linear)"/>
<path d="M1625.6 370.4H1718.6" stroke="#1057BC" stroke-width="2" stroke-miterlimit="10"/>
<path d="M1891.5 292.7H1853.7V303.3H1891.5V292.7Z" fill="#ED5A29"/>
<path d="M1853.7 292.6H1891.5" stroke="url(#paint30_linear)" stroke-width="2" stroke-miterlimit="10"/>
</g>
<defs>
<linearGradient id="paint0_linear" x1="960.437" y1="-0.1823" x2="960.437" y2="612.254" gradientUnits="userSpaceOnUse">
<stop stop-color="#0A2767"/>
<stop offset="0.4264" stop-color="#061B4A"/>
<stop offset="1" stop-color="#00091E"/>
</linearGradient>
<linearGradient id="paint1_linear" x1="1573.66" y1="524.433" x2="1309.93" y2="-23.9074" gradientUnits="userSpaceOnUse">
<stop stop-color="#153FA7"/>
<stop offset="0.9972" stop-color="#153FA7" stop-opacity="0"/>
</linearGradient>
<radialGradient id="paint2_radial" cx="0" cy="0" r="1" gradientUnits="userSpaceOnUse" gradientTransform="translate(924.168 -52.3709) rotate(0.518853) scale(910.653 294.011)">
<stop stop-color="#00A49A"/>
<stop offset="0.1332" stop-color="#058EA4" stop-opacity="0.8668"/>
<stop offset="0.3235" stop-color="#0A76AE" stop-opacity="0.6765"/>
<stop offset="0.5244" stop-color="#0D65B6" stop-opacity="0.4756"/>
<stop offset="0.7407" stop-color="#0F5ABB" stop-opacity="0.2593"/>
<stop offset="1" stop-color="#1057BC" stop-opacity="0"/>
</radialGradient>
<linearGradient id="paint3_linear" x1="1677.24" y1="42.2949" x2="1671.96" y2="169.051" gradientUnits="userSpaceOnUse">
<stop stop-color="#1D3B84"/>
<stop offset="0.9972" stop-color="#1D3B84" stop-opacity="0"/>
</linearGradient>
<linearGradient id="paint4_linear" x1="779.985" y1="275.882" x2="779.985" y2="410.693" gradientUnits="userSpaceOnUse">
<stop offset="0.00103089" stop-color="#0A2767"/>
<stop offset="1" stop-color="#0A2767" stop-opacity="0.3"/>
</linearGradient>
<linearGradient id="paint5_linear" x1="1394.88" y1="402.504" x2="1325.52" y2="184.523" gradientUnits="userSpaceOnUse">
<stop offset="0.00103089" stop-color="#1D3B84"/>
<stop offset="0.9907" stop-color="#1D3B84" stop-opacity="0"/>
</linearGradient>
<linearGradient id="paint6_linear" x1="-85" y1="108.597" x2="388.964" y2="108.597" gradientUnits="userSpaceOnUse">
<stop stop-color="#153FA7"/>
<stop offset="0.9972" stop-color="#153FA7" stop-opacity="0"/>
</linearGradient>
<linearGradient id="paint7_linear" x1="189.133" y1="428.72" x2="162.051" y2="10.5922" gradientUnits="userSpaceOnUse">
<stop stop-color="#763BC4"/>
<stop offset="0.9972" stop-color="#1D3B84" stop-opacity="0"/>
</linearGradient>
<linearGradient id="paint8_linear" x1="75.0378" y1="119.458" x2="131.184" y2="406.797" gradientUnits="userSpaceOnUse">
<stop stop-color="#245EFF"/>
<stop offset="1" stop-color="#0A2767" stop-opacity="0"/>
</linearGradient>
<linearGradient id="paint9_linear" x1="110.997" y1="49.7151" x2="121.928" y2="49.7151" gradientUnits="userSpaceOnUse">
<stop stop-color="#EFC90C"/>
<stop offset="1" stop-color="#FF9530"/>
</linearGradient>
<linearGradient id="paint10_linear" x1="225.485" y1="49.9427" x2="241.882" y2="49.9427" gradientUnits="userSpaceOnUse">
<stop stop-color="#F7DB2A"/>
<stop offset="0.999" stop-color="#00E2B6"/>
</linearGradient>
<linearGradient id="paint11_linear" x1="165.662" y1="50.3979" x2="185.182" y2="50.3979" gradientUnits="userSpaceOnUse">
<stop stop-color="#F7DB2A"/>
<stop offset="0.999" stop-color="#00E2B6"/>
</linearGradient>
<linearGradient id="paint12_linear" x1="49.0096" y1="48.8046" x2="68.5295" y2="48.8046" gradientUnits="userSpaceOnUse">
<stop stop-color="#F7DB2A"/>
<stop offset="0.999" stop-color="#00E2B6"/>
</linearGradient>
<linearGradient id="paint13_linear" x1="799.192" y1="243.084" x2="1928.44" y2="243.084" gradientUnits="userSpaceOnUse">
<stop stop-color="#011535"/>
<stop offset="0.2616" stop-color="#153FA7"/>
<stop offset="0.4571" stop-color="#763BC4"/>
<stop offset="0.6715" stop-color="#245EFF"/>
<stop offset="0.7628" stop-color="#00E2B6"/>
<stop offset="0.8276" stop-color="#245EFF"/>
<stop offset="1" stop-color="#763BC4"/>
</linearGradient>
<linearGradient id="paint14_linear" x1="1273.43" y1="251.804" x2="1317.86" y2="251.804" gradientUnits="userSpaceOnUse">
<stop stop-color="#F7DB2A"/>
<stop offset="0.999" stop-color="#00E2B6"/>
</linearGradient>
<linearGradient id="paint15_linear" x1="1295.64" y1="255.027" x2="1295.64" y2="444.526" gradientUnits="userSpaceOnUse">
<stop stop-color="#245EFF"/>
<stop offset="0.9963" stop-color="#245EFF" stop-opacity="0"/>
</linearGradient>
<linearGradient id="paint16_linear" x1="1260.01" y1="353.55" x2="1283.54" y2="330.014" gradientUnits="userSpaceOnUse">
<stop stop-color="#FAC40C"/>
<stop offset="1" stop-color="#ED5A29"/>
</linearGradient>
<linearGradient id="paint17_linear" x1="1611.45" y1="165.541" x2="1648.64" y2="165.541" gradientUnits="userSpaceOnUse">
<stop stop-color="#F7DB2A"/>
<stop offset="0.999" stop-color="#00E2B6"/>
</linearGradient>
<linearGradient id="paint18_linear" x1="1699.59" y1="184.776" x2="1699.59" y2="438.617" gradientUnits="userSpaceOnUse">
<stop stop-color="#245EFF"/>
<stop offset="0.9963" stop-color="#245EFF" stop-opacity="0"/>
</linearGradient>
<linearGradient id="paint19_linear" x1="1681.75" y1="228.534" x2="1714.93" y2="228.534" gradientUnits="userSpaceOnUse">
<stop stop-color="#EFC90C"/>
<stop offset="1" stop-color="#FF9530"/>
</linearGradient>
<linearGradient id="paint20_linear" x1="1669.06" y1="201.806" x2="1730.13" y2="201.806" gradientUnits="userSpaceOnUse">
<stop stop-color="#EFC90C"/>
<stop offset="1" stop-color="#FF9530"/>
</linearGradient>
<linearGradient id="paint21_linear" x1="144.541" y1="370.634" x2="144.541" y2="413.855" gradientUnits="userSpaceOnUse">
<stop stop-color="#1D3B84"/>
<stop offset="0.9972" stop-color="#1D3B84" stop-opacity="0"/>
</linearGradient>
<linearGradient id="paint22_linear" x1="44.4677" y1="316.927" x2="44.4677" y2="413.51" gradientUnits="userSpaceOnUse">
<stop stop-color="#1D3B84"/>
<stop offset="0.9972" stop-color="#1D3B84" stop-opacity="0"/>
</linearGradient>
<linearGradient id="paint23_linear" x1="1278.2" y1="310.312" x2="1492.89" y2="310.312" gradientUnits="userSpaceOnUse">
<stop stop-color="#D30B59" stop-opacity="0"/>
<stop offset="1" stop-color="#FF4200"/>
</linearGradient>
<linearGradient id="paint24_linear" x1="1763.05" y1="255.241" x2="1740.01" y2="395.499" gradientUnits="userSpaceOnUse">
<stop stop-color="#D71C5C"/>
<stop offset="0.0832521" stop-color="#BD2068" stop-opacity="0.9135"/>
<stop offset="0.2029" stop-color="#9D2576" stop-opacity="0.7892"/>
<stop offset="0.3281" stop-color="#852880" stop-opacity="0.6592"/>
<stop offset="0.4593" stop-color="#742B88" stop-opacity="0.5228"/>
<stop offset="0.6007" stop-color="#692D8D" stop-opacity="0.376"/>
<stop offset="0.7701" stop-color="#662D8E" stop-opacity="0.2"/>
<stop offset="1" stop-color="#662D8E" stop-opacity="0"/>
</linearGradient>
<linearGradient id="paint25_linear" x1="1829.03" y1="344.471" x2="1829.03" y2="456.524" gradientUnits="userSpaceOnUse">
<stop stop-color="#1D3B84"/>
<stop offset="0.9972" stop-color="#1D3B84" stop-opacity="0"/>
</linearGradient>
<linearGradient id="paint26_linear" x1="1598.7" y1="325.563" x2="1598.7" y2="413.972" gradientUnits="userSpaceOnUse">
<stop stop-color="#1D3B84"/>
<stop offset="0.9972" stop-color="#1D3B84" stop-opacity="0"/>
</linearGradient>
<linearGradient id="paint27_linear" x1="-nan" y1="-nan" x2="-nan" y2="-nan" gradientUnits="userSpaceOnUse">
<stop stop-color="#FAC40C"/>
<stop offset="1" stop-color="#F08D3F"/>
</linearGradient>
<linearGradient id="paint28_linear" x1="1482.16" y1="395.387" x2="1482.16" y2="413.434" gradientUnits="userSpaceOnUse">
<stop stop-color="#1D3B84"/>
<stop offset="0.9972" stop-color="#1D3B84" stop-opacity="0"/>
</linearGradient>
<linearGradient id="paint29_linear" x1="1672.11" y1="370.994" x2="1672.11" y2="413.651" gradientUnits="userSpaceOnUse">
<stop stop-color="#1D3B84"/>
<stop offset="0.9972" stop-color="#1D3B84" stop-opacity="0"/>
</linearGradient>
<linearGradient id="paint30_linear" x1="-nan" y1="-nan" x2="-nan" y2="-nan" gradientUnits="userSpaceOnUse">
<stop stop-color="#FAC40C"/>
<stop offset="1" stop-color="#F08D3F"/>
</linearGradient>
</defs>
</svg>
