<svg xmlns="http://www.w3.org/2000/svg" viewBox="0 0 1920 524"><defs><style>.cls-1{fill:#05294c;}.cls-2{fill:#14427b;}.cls-3,.cls-4{fill:none;stroke:#083f75;}.cls-3{stroke-miterlimit:10;stroke-width:4px;}.cls-4{stroke-linecap:round;stroke-linejoin:round;stroke-width:8px;stroke-dasharray:0 40;}</style></defs><g id="Layer_1" data-name="Layer 1"><rect class="cls-1" width="1920" height="524"/></g><g id="Layer_3" data-name="Layer 3"><rect class="cls-2" x="317" y="384.72" width="15" height="15" transform="translate(649 784.44) rotate(180)"/><rect class="cls-2" x="302" y="399.72" width="15" height="15" transform="translate(619 814.44) rotate(180)"/><path class="cls-2" d="M1553.29,99.52a3,3,0,1,1,3-3A3,3,0,0,1,1553.29,99.52Z"/><path class="cls-2" d="M1565.57,99.52a3,3,0,1,1,3-3A3,3,0,0,1,1565.57,99.52Z"/><path class="cls-2" d="M1541,111.79a3,3,0,1,1,3-3A3,3,0,0,1,1541,111.79Z"/><path class="cls-2" d="M1553.29,111.79a3,3,0,1,1,3-3A3,3,0,0,1,1553.29,111.79Z"/><path class="cls-2" d="M1565.57,111.79a3,3,0,1,1,3-3A3,3,0,0,1,1565.57,111.79Z"/><path class="cls-2" d="M1541,124.07a3,3,0,1,1,3-3A3,3,0,0,1,1541,124.07Z"/><path class="cls-2" d="M1553.29,124.07a3,3,0,1,1,3-3A3,3,0,0,1,1553.29,124.07Z"/><circle class="cls-3" cx="960" cy="261.72" r="219.52"/><circle class="cls-3" cx="960" cy="261.72" r="328.5"/><circle class="cls-4" cx="960" cy="261.72" r="375.5"/><circle class="cls-3" cx="960" cy="261.72" r="547.5"/><circle class="cls-3" cx="960" cy="261.72" r="818.5"/><circle class="cls-2" cx="1301.49" cy="416.6" r="6.78"/><path class="cls-2" d="M1301.49,403.6a13,13,0,1,0,13,13A13,13,0,0,0,1301.49,403.6Z"/><path class="cls-2" d="M609.74,133.63a9,9,0,1,1,9-9A9,9,0,0,1,609.74,133.63Z"/><path class="cls-2" d="M1174.74,318.63a9,9,0,1,1,9-9A9,9,0,0,1,1174.74,318.63Z"/><circle class="cls-1" cx="1301.49" cy="416.6" r="5.91"/></g></svg>