<?xml version="1.0" encoding="utf-8"?>
<!-- Generator: Adobe Illustrator 23.0.6, SVG Export Plug-In . SVG Version: 6.00 Build 0)  -->
<svg version="1.1" id="Layer_1" xmlns="http://www.w3.org/2000/svg" xmlns:xlink="http://www.w3.org/1999/xlink" x="0px" y="0px"
	 viewBox="0 0 763 356" style="enable-background:new 0 0 763 356;" xml:space="preserve">
<style type="text/css">
	.st0{fill:#F0F3F5;}
	.st1{fill:#FCEE21;}
	.st2{fill:#D9E021;}
	.st3{fill:#8CC63F;}
	.st4{fill:#FFFFFF;}
	.st5{fill:#3FA9F5;}
	.st6{fill:#E8ECEE;}
	.st7{fill:#05294C;}
	.st8{fill:#253D7F;}
	.st9{fill:#1A53B7;}
	.st10{fill:none;stroke:#E8ECEE;stroke-width:3;stroke-miterlimit:10;}
	.st11{fill:none;stroke:#E8ECEE;stroke-width:7;stroke-linecap:round;stroke-linejoin:round;stroke-dasharray:0,40;}
	.st12{fill:none;stroke:url(#SVGID_1_);stroke-width:25;stroke-linecap:round;stroke-linejoin:round;}
	.st13{fill:#FFFFFF;stroke:url(#SVGID_2_);stroke-width:3;stroke-miterlimit:10;}
	.st14{fill:none;stroke:url(#SVGID_3_);stroke-width:25;stroke-linecap:round;stroke-linejoin:round;}
	.st15{fill:#FBCA0A;}
	.st16{fill:#FFFFFF;stroke:#8AB8FF;stroke-width:3;stroke-miterlimit:10;}
	.st17{fill:#FFFFFF;stroke:#E8ECEE;stroke-width:3;stroke-miterlimit:10;}
	.st18{fill:url(#SVGID_4_);}
	.st19{fill:#FF9830;}
	.st20{fill:#00E5B9;}
	.st21{fill:#F05A28;}
	.st22{fill:url(#SVGID_5_);}
	.st23{fill:url(#SVGID_6_);}
</style>
<path class="st0" d="M351.4,0c-0.3,0.2-0.6,0.4-0.9,0.6l7,10.3l-7.1-10.3c-53,36.5-112.9,61.9-176,74.7
	C113.5,87.7,50.8,88.2-10.2,76.6c-61.1-11.3-119.4-34.4-171.6-68c-4.4-2.8-8.7-5.7-13-8.7h-42c13.3,10.6,27.2,20.5,41.6,29.7
	c55,35.3,116.3,59.6,180.5,71.5c30.9,5.8,62.2,8.7,93.6,8.7c33.8,0,67.4-3.4,100.5-10.2C245.8,86.1,308.8,59.4,364.6,21
	c9.9-6.7,19.5-13.8,28.9-21.2h-42.1V0z"/>
<path class="st1" d="M763,37.5c-2.5,0.2-5.2,0.2-8,0.2c-27.3,0-41-7.8-54.4-15.5c-12.8-7.3-26-14.7-51.2-15.2v0c0,0-1,0-1.4,0
	s-1.5,0-1.5,0c-25.2,0.5-38.4,8-51.2,15.2c-13.4,7.6-27.2,15.5-54.4,15.5s-41.1-7.7-54.5-15.4C473.2,14.8,459.5,7,432.6,7
	s-40.5,7.8-53.8,15.3c-13.4,7.6-27.2,15.5-54.5,15.5s-41.1-7.8-54.4-15.5C256.7,14.8,243,7,216.1,7s-40.5,7.8-53.8,15.3
	c-13.4,7.6-27.2,15.5-54.4,15.5S66.8,30,53.4,22.3C40.4,14.8,26.7,7-0.1,7v87.6c26.9,0,40.5,7.8,53.8,15.3
	c13.4,7.6,27.2,15.5,54.5,15.5s41.1-7.8,54.5-15.5c13.2-7.5,26.9-15.3,53.8-15.3s40.5,7.8,53.8,15.3c13.4,7.6,27.2,15.5,54.5,15.5
	s41.1-7.8,54.4-15.5s26.9-15.3,53.8-15.3s40.5,7.8,53.8,15.3c13.4,7.6,27.2,15.5,54.5,15.5s41.1-7.8,54.5-15.5
	c13-7.4,26.4-15,52.5-15.3c26,0.2,39.5,7.9,52.5,15.3c13.4,7.6,27.2,15.5,54.5,15.5c2.8,0,5.5-0.1,8-0.2V37.5H763z"/>
<path class="st2" d="M763,125.1c-2.5,0.2-5.2,0.2-8,0.2c-27.2,0-41.1-7.8-54.5-15.5c-12.8-7.3-26-14.7-51.2-15.2c-0.4,0-0.9,0-1.3,0
	s-0.8,0-1.3,0c-25.2,0.5-38.4,8-51.2,15.2c-13.4,7.6-27.2,15.5-54.5,15.5s-41.1-7.8-54.5-15.5c-13.2-7.5-26.9-15.3-53.8-15.3
	s-40.5,7.8-53.8,15.3c-13.4,7.6-27.2,15.5-54.5,15.5s-41.1-7.8-54.5-15.5c-13.2-7.5-26.9-15.3-53.8-15.3s-40.4,7.8-53.6,15.3
	s-27.2,15.5-54.4,15.5s-41.1-7.8-54.5-15.5c-13.2-7.5-26.9-15.3-53.7-15.3v87.6c26.9,0,40.5,7.8,53.8,15.3
	c13.4,7.6,27.2,15.5,54.5,15.5s41.1-7.8,54.4-15.5c13.2-7.5,26.9-15.3,53.8-15.3s40.5,7.8,53.8,15.3s27.1,15.5,54.4,15.5
	s41.1-7.8,54.5-15.5c13.2-7.5,26.9-15.3,53.8-15.3s40.5,7.8,53.8,15.3c13.4,7.6,27.2,15.5,54.5,15.5s41.1-7.8,54.4-15.5
	c13-7.4,26.4-15,52.5-15.3c26,0.2,39.5,7.9,52.5,15.3c13.4,7.6,27.2,15.5,54.5,15.5c2.8,0,5.4-0.1,7.9-0.2L763,125.1L763,125.1z"/>
<g>
	<rect x="43.3" y="147.2" class="st3" width="9.4" height="67.2"/>
	<rect x="65.8" y="87.5" class="st4" width="9.4" height="126.9"/>
	<rect x="90.4" y="56.3" class="st1" width="9.4" height="158.1"/>
</g>
<path class="st3" d="M763,212.8c-2.5,0.2-5.2,0.2-8,0.2c-27.2,0-41.1-7.8-54.5-15.5c-12.8-7.3-26-14.7-51.2-15.2c-0.4,0-0.9,0-1.3,0
	s-0.8,0-1.3,0c-25.2,0.5-38.4,8-51.2,15.2c-13.4,7.6-27.2,15.5-54.5,15.5s-41.1-7.8-54.5-15.5c-13.2-7.5-26.9-15.3-53.8-15.3
	s-40.5,7.8-53.8,15.3c-13.4,7.6-27.2,15.5-54.5,15.5s-41.1-7.8-54.5-15.5c-13.2-7.5-26.9-15.3-53.8-15.3s-40.5,7.8-53.8,15.3
	c-13.4,7.6-27.2,15.5-54.5,15.5s-41.1-7.8-54.5-15.5c-13-7.5-26.7-15.3-53.6-15.3v87.6c26.9,0,40.5,7.8,53.8,15.3
	c13.4,7.6,27.2,15.5,54.5,15.5s41.1-7.9,54.4-15.5c13.2-7.5,26.9-15.3,53.8-15.3s40.5,7.8,53.8,15.3c13.4,7.6,27.2,15.5,54.5,15.5
	s41.1-7.9,54.5-15.5c13.2-7.5,26.9-15.3,53.8-15.3s40.5,7.8,53.8,15.3c13.4,7.6,27.2,15.5,54.5,15.5s41.1-7.9,54.5-15.5
	c13-7.4,26.4-15,52.5-15.3c26,0.2,39.5,7.9,52.5,15.3c13.4,7.6,27.2,15.5,54.5,15.5c2.7,0,5.3-0.1,7.8-0.2L763,212.8L763,212.8z"/>
<rect x="645.1" y="213" class="st1" width="6.7" height="90.7"/>
<rect x="662.7" y="226.2" class="st2" width="6.7" height="77.5"/>
<path class="st5" d="M763,299.7c-2.5,0.2-5.2,0.2-8,0.2c-27.2,0-41.1-7.9-54.5-15.5c-12.8-7.3-26-14.8-51.2-15.2c-0.4,0-0.9,0-1.3,0
	s-0.8,0-1.3,0c-25.2,0.5-38.4,8-51.2,15.2c-13.4,7.6-27.2,15.5-54.5,15.5s-41.1-7.9-54.5-15.5c-13.2-7.5-26.9-15.3-53.8-15.3
	s-40.5,7.8-53.8,15.3c-13.4,7.6-27.2,15.5-54.5,15.5s-41.1-7.9-54.5-15.5c-13.2-7.5-26.9-15.3-53.8-15.3s-40.4,7.8-53.6,15.3
	s-27.2,15.5-54.4,15.5S67,292,53.6,284.4c-13.2-7.5-26.9-15.3-53.7-15.3v87.6c26.9,0,40.5,7.8,53.8,15.3
	c13.4,7.6,27.2,15.5,54.5,15.5s41.1-7.8,54.4-15.5c13.2-7.5,26.9-15.3,53.8-15.3s40.5,7.8,53.8,15.3c13.4,7.6,27.2,15.5,54.5,15.5
	s41.1-7.8,54.5-15.5c13.2-7.5,26.9-15.3,53.8-15.3s40.5,7.8,53.8,15.3c13.4,7.6,27.2,15.5,54.5,15.5s41.1-7.8,54.5-15.5
	c13-7.4,26.4-15,52.5-15.3c26,0.2,39.5,7.9,52.5,15.3c13.4,7.6,27.2,15.5,54.5,15.5c2.7,0,5.3-0.1,7.8-0.2v-87.6H763z"/>
<path class="st4" d="M118.1,377h-10.9v-41.8c0-0.3,0.2-0.5,0.5-0.5h10c0.2,0,0.4,0.2,0.4,0.5V377z"/>
<path class="st4" d="M134.6,377h-10.9v-54.5c0-0.3,0.2-0.5,0.5-0.5h10c0.2,0,0.4,0.2,0.4,0.5V377z"/>
<polygon class="st6" points="57.2,0 -175.4,232.6 -172.6,235.4 62.8,0 "/>
<path class="st1" d="M-0.1,16.6c26.9,0,40.5,7.8,53.8,15.3c13.4,7.6,27.2,15.5,54.5,15.5s41.1-7.8,54.5-15.5
	c13.2-7.5,26.9-15.3,53.8-15.3s40.5,7.8,53.8,15.3c13.4,7.6,27.2,15.5,54.5,15.5s41.1-7.8,54.4-15.5s26.9-15.3,53.8-15.3
	s40.5,7.8,53.8,15.3c13.4,7.6,27.2,15.5,54.5,15.5s41.1-7.8,54.5-15.5c13-7.4,26.4-15,52.5-15.3c26,0.2,39.5,7.9,52.5,15.3
	c13.4,7.6,27.2,15.5,54.5,15.5c2.8,0,5.5-0.1,8-0.2V0H0.2v16.6H-0.1z"/>
<rect x="207.9" y="211.5" class="st2" width="3.9" height="4.7"/>
<rect x="198.1" y="211.5" class="st2" width="3.9" height="4.7"/>
<rect x="188.4" y="211.5" class="st2" width="3.9" height="4.7"/>
<rect x="207.9" y="222.4" class="st2" width="3.9" height="4.7"/>
<rect x="198.1" y="222.4" class="st2" width="3.9" height="4.7"/>
<rect x="188.4" y="222.4" class="st2" width="3.9" height="4.7"/>
<rect x="207.9" y="233.4" class="st2" width="3.9" height="4.7"/>
<rect x="198.1" y="233.4" class="st2" width="3.9" height="4.7"/>
<rect x="188.4" y="233.4" class="st2" width="3.9" height="4.7"/>
<rect x="207.9" y="244.3" class="st2" width="3.9" height="4.7"/>
<rect x="198.1" y="244.3" class="st2" width="3.9" height="4.7"/>
<rect x="188.4" y="244.3" class="st2" width="3.9" height="4.7"/>
<g>
	<rect x="525.2" y="40.7" class="st2" width="6.7" height="8.1"/>
	<rect x="508.4" y="40.7" class="st2" width="6.7" height="8.1"/>
	<rect x="491.5" y="40.7" class="st2" width="6.7" height="8.1"/>
	<rect x="525.2" y="59.6" class="st2" width="6.7" height="8.1"/>
	<rect x="508.4" y="59.6" class="st2" width="6.7" height="8.1"/>
	<rect x="491.5" y="59.6" class="st2" width="6.7" height="8.1"/>
	<rect x="525.2" y="78.4" class="st2" width="6.7" height="8.1"/>
	<rect x="508.4" y="78.4" class="st2" width="6.7" height="8.1"/>
	<rect x="491.5" y="78.4" class="st2" width="6.7" height="8.1"/>
</g>
<g>
	<rect x="683.3" y="135.1" class="st1" width="5.5" height="6.7"/>
	<rect x="669.5" y="135.1" class="st1" width="5.5" height="6.7"/>
	<rect x="683.3" y="150.5" class="st1" width="5.5" height="6.7"/>
	<rect x="669.5" y="150.5" class="st1" width="5.5" height="6.7"/>
</g>
<circle class="st2" cx="709.2" cy="224.9" r="3.4"/>
<circle class="st2" cx="306.1" cy="84.6" r="6.1"/>
<path class="st1" d="M351.2,150.4h-10.9V95.9c0-0.3,0.2-0.5,0.5-0.4h10c0.2,0,0.4,0.2,0.4,0.4V150.4L351.2,150.4z"/>
<path class="st1" d="M367.7,150.4h-10.9V95.9c0-0.3,0.2-0.5,0.5-0.4h10c0.2,0,0.4,0.2,0.4,0.4V150.4L367.7,150.4z"/>
<path class="st5" d="M741.6,312.5h-18.7V272c0-0.2,0.2-0.4,0.4-0.5h17.8c0.2,0,0.4,0.2,0.4,0.5L741.6,312.5L741.6,312.5z"/>
<rect x="630.4" y="300.6" class="st5" width="14" height="14"/>
<rect x="711.7" y="56.2" class="st3" width="14" height="14"/>
<rect x="629.1" y="236.3" class="st5" width="6.7" height="67.4"/>
<rect x="401.7" y="321.6" class="st2" width="14" height="14"/>
</svg>
