<?xml version="1.0" encoding="utf-8"?>
<!-- Generator: Adobe Illustrator 24.2.0, SVG Export Plug-In . SVG Version: 6.00 Build 0)  -->
<svg version="1.1" id="Layer_1" xmlns="http://www.w3.org/2000/svg" xmlns:xlink="http://www.w3.org/1999/xlink" x="0px" y="0px"
	 viewBox="0 0 1157 712" style="enable-background:new 0 0 1157 712;" xml:space="preserve">
<style type="text/css">
	.st0{fill:#0B0B3D;}
	.st1{opacity:0.7;fill:url(#SVGID_3_);}
	.st2{opacity:0.5;fill:#1E1ED7;enable-background:new    ;}
	.st3{fill:url(#SVGID_4_);}
	.st4{fill:#1F50EA;}
	.st5{opacity:0.2;fill:#1E1ED7;enable-background:new    ;}
	.st6{opacity:0.4;fill:#1E1ED7;enable-background:new    ;}
	.st7{opacity:0.7;fill:#1E1ED7;}
	.st8{fill:#1E1ED7;}
	.st9{opacity:0.15;fill:#1E1ED7;enable-background:new    ;}
	.st10{opacity:0.3;fill:#1E1ED7;enable-background:new    ;}
	.st11{fill:none;stroke:#1E1ED7;stroke-width:2.1807;stroke-linecap:round;stroke-linejoin:round;}
	.st12{opacity:0.5;fill:#1E1ED7;}
	.st13{opacity:0.6;}
	.st14{fill:url(#SVGID_5_);}
	.st15{fill:#FC0000;}
	.st16{opacity:0.4;fill:#0D044C;}
</style>
<rect id="SVGID_1_" x="0" y="0" class="st0" width="1168.7" height="722.7"/>
<radialGradient id="SVGID_3_" cx="1389.3407" cy="-278.9651" r="260.9559" gradientTransform="matrix(4.0247 0 0 -1.3602 -4961.8799 -21.5719)" gradientUnits="userSpaceOnUse">
	<stop  offset="3.140703e-04" style="stop-color:#0C109F"/>
	<stop  offset="1" style="stop-color:#0C109F;stop-opacity:0"/>
</radialGradient>
<ellipse class="st1" cx="629.8" cy="357.9" rx="1050.2" ry="355"/>
<rect x="116.1" y="188.1" class="st2" width="243" height="27.2"/>
<linearGradient id="SVGID_4_" gradientUnits="userSpaceOnUse" x1="123.1483" y1="510.3" x2="164.7483" y2="510.3" gradientTransform="matrix(1 0 0 -1 0 712)">
	<stop  offset="3.140703e-04" style="stop-color:#000D4C;stop-opacity:0"/>
	<stop  offset="1" style="stop-color:#000D4C;stop-opacity:0.5"/>
</linearGradient>
<rect x="123.1" y="188.1" class="st3" width="41.6" height="27.2"/>
<g>
	<rect x="164.5" y="181.7" class="st4" width="2.6" height="41.5"/>
</g>
<rect x="993.4" y="475" class="st5" width="201.6" height="27.2"/>
<circle class="st6" cx="887" cy="663" r="12.7"/>
<circle class="st6" cx="1107.2" cy="663" r="12.7"/>
<path class="st7" d="M1082.1,662.2l-11.8-11.8c-0.5-0.5-1.3-0.5-1.8,0s-0.5,1.3,0,1.8l9.6,9.6H916.2c-0.7,0-1.3,0.6-1.3,1.3
	s0.6,1.3,1.3,1.3h161.9l-9.6,9.6c-0.5,0.5-0.5,1.3,0,1.8c0.2,0.3,0.6,0.4,0.9,0.4c0.3,0,0.6-0.1,0.9-0.4l11.8-11.8
	c0.3-0.2,0.4-0.6,0.4-0.9S1082.3,662.4,1082.1,662.2z"/>
<circle class="st8" cx="886.9" cy="663.1" r="3.1"/>
<circle class="st8" cx="1107.1" cy="663.1" r="3.1"/>
<rect x="115.7" y="140.1" class="st5" width="18.1" height="27.4"/>
<rect x="-158" y="140.9" class="st5" width="103.6" height="27.4"/>
<rect x="-104.7" y="462.3" class="st9" width="303.8" height="27.4"/>
<rect x="992.4" y="423.6" class="st6" width="223.4" height="27.4"/>
<rect x="109.6" y="411.3" class="st6" width="265.4" height="27.4"/>
<rect x="54.1" y="359.5" class="st9" width="202.9" height="27.4"/>
<rect x="801.6" y="276.8" class="st9" width="296" height="27.4"/>
<rect x="253.4" y="276.8" class="st9" width="244.1" height="27.4"/>
<rect x="1021.6" y="322.5" class="st9" width="76.2" height="27.4"/>
<rect x="653.8" y="554.7" class="st9" width="208.4" height="27.4"/>
<rect x="1099.7" y="374.4" class="st6" width="116.1" height="27.4"/>
<rect x="226.3" y="585.2" class="st10" width="319.7" height="27.4"/>
<rect x="-25" y="643.4" class="st2" width="411.3" height="27.4"/>
<rect x="461" y="578.7" class="st4" width="2.7" height="41.8"/>
<circle class="st6" cx="-50.2" cy="546" r="12.7"/>
<circle class="st6" cx="170" cy="546" r="12.7"/>
<path class="st8" d="M142.9,547.3h-164c-0.7,0-1.3-0.6-1.3-1.3s0.6-1.3,1.3-1.3h164c0.7,0,1.3,0.6,1.3,1.3
	C144.2,546.8,143.7,547.3,142.9,547.3z"/>
<path class="st8" d="M132.1,559.2c-0.3,0-0.7-0.1-0.9-0.4c-0.5-0.5-0.5-1.3,0-1.8l10.9-10.9l-10.9-10.9c-0.5-0.5-0.5-1.3,0-1.8
	s1.3-0.5,1.8,0l11.8,11.8c0.2,0.2,0.4,0.6,0.4,0.9s-0.1,0.7-0.4,0.9L133,558.8C132.8,559,132.4,559.2,132.1,559.2z"/>
<circle class="st8" cx="-50.3" cy="546.1" r="3.1"/>
<circle class="st8" cx="169.9" cy="546.1" r="3.1"/>
<g>
	<rect x="-33.7" y="140.9" class="st6" width="128.2" height="74.7"/>
	<path id="Oval_5_2_" class="st11" d="M27.8,181.3c8,0,14.4-6.5,14.4-14.4s-6.5-14.4-14.4-14.4c-8,0-14.4,6.5-14.4,14.4
		S19.8,181.3,27.8,181.3z"/>
	<path id="Shape_40_2_" class="st11" d="M15.4,159.5c4.5,4.7,10.7,7.3,17.2,7.3c3.3,0,6.5-0.7,9.5-2"/>
	<path id="Shape_41_2_" class="st11" d="M1,214.3c0-14.8,12-26.8,26.8-26.8s26.8,12,26.8,26.8"/>
	<path id="Shape_42_2_" class="st11" d="M17.5,189.5v2.1c0,5.7,4.6,10.3,10.3,10.3s10.3-4.6,10.3-10.3v-2.1"/>
	<path id="Shape_43_2_" class="st11" d="M11.3,193.2v21.1"/>
	<path id="Shape_44_2_" class="st11" d="M44.3,193.2v21.1"/>
</g>
<rect x="1091.2" y="524.8" class="st5" width="359.8" height="27.4"/>
<g>
	<rect x="828.2" y="423.6" class="st6" width="140.4" height="78.4"/>
	<path id="Shape_507_2_" class="st11" d="M873.1,461.2c0,1.3,1,2.3,2.3,2.3h7v-14h-7c-1.3,0-2.3,1-2.3,2.3V461.2z"/>
	<path id="Shape_508_2_" class="st11" d="M922.1,463.5h-7v-14h7c1.3,0,2.3,1,2.3,2.3v9.3C924.4,462.4,923.4,463.5,922.1,463.5z"/>
	<path id="Shape_509_2_" class="st11" d="M919.6,449.5c-1.2-10.6-10.2-18.6-20.8-18.6c-10.7,0-19.7,8-20.8,18.6"/>
	<path id="Shape_510_2_" class="st11" d="M887.1,481.9v2.5c0,6.4,5.2,11.7,11.7,11.7c6.4,0,11.7-5.2,11.7-11.7v-2.5"/>
	<path id="Shape_511_2_" class="st11" d="M882.4,455.9c1.7,1.2,3.7,1.8,5.8,1.8c4.9-0.3,9-3.5,10.5-8.2c1.4,4.6,5.6,7.9,10.5,8.2
		c2.1,0,4.1-0.6,5.8-1.8"/>
	<path id="Oval_41_2_" class="st11" d="M898.8,472.8c9,0,16.3-7.3,16.3-16.3s-7.3-16.3-16.3-16.3s-16.3,7.3-16.3,16.3
		C882.4,465.5,889.7,472.8,898.8,472.8z"/>
	<path id="Shape_512_2_" class="st11" d="M929.2,500.8c-4.8-12.6-17-21-30.5-21s-25.7,8.4-30.5,21"/>
	<path id="Shape_513_2_" class="st11" d="M882.4,463.5c-0.3,6-3.9,11.4-9.3,14"/>
	<path id="Shape_514_2_" class="st11" d="M915.1,463.5c0.3,6,3.9,11.4,9.3,14"/>
</g>
<rect x="975.6" y="22.1" class="st6" width="135.2" height="78.7"/>
<path id="Oval_4_1_" class="st11" d="M1043.6,71.4c9.1,0,16.4-7.4,16.4-16.4s-7.4-16.4-16.4-16.4s-16.4,7.4-16.4,16.4
	S1034.5,71.4,1043.6,71.4z"/>
<path id="Shape_34_1_" class="st11" d="M1029.4,46.6c7.9,8.2,20,10.6,30.4,6.1"/>
<path id="Shape_35_1_" class="st11" d="M1031.8,80.7v2.4c0,6.5,5.3,11.7,11.7,11.7s11.7-5.3,11.7-11.7v-2.4"/>
<path id="Shape_36_1_" class="st11" d="M1072.6,99.5c-4.1-12.6-15.8-21.1-29-21.1s-25,8.5-29,21.1"/>
<path id="Shape_37_1_" class="st11" d="M1017.7,59.6c0,1.3,1.1,2.3,2.3,2.3h7v-14h-7c-1.3,0-2.3,1.1-2.3,2.3V59.6z"/>
<path id="Shape_38_1_" class="st11" d="M1067,62h-7V47.9h7c1.3,0,2.3,1.1,2.3,2.3v9.4C1069.4,60.9,1068.3,62,1067,62z"/>
<path id="Shape_39_1_" class="st11" d="M1064.6,47.9c-1.2-10.7-10.2-18.8-21-18.8s-19.8,8.1-21,18.8"/>
<rect x="1134.8" y="22.3" class="st5" width="69.1" height="27.4"/>
<path class="st10" d="M600.9,555.7v27.4h27.4v-27.4H600.9z M573.5,610.4h27.4V583h-27.4V610.4z"/>
<rect x="712.1" y="106.3" class="st5" width="218.9" height="27.4"/>
<rect x="857.1" y="162.8" class="st6" width="668.6" height="27.4"/>
<g>
	<g>
		<circle class="st6" cx="569.7" cy="488.3" r="12.7"/>
		<circle class="st6" cx="789.9" cy="488.3" r="12.7"/>
		<path class="st7" d="M762.8,489.6h-164c-0.7,0-1.3-0.6-1.3-1.3c0-0.7,0.6-1.3,1.3-1.3h164c0.7,0,1.3,0.6,1.3,1.3
			S763.6,489.6,762.8,489.6z"/>
		<path class="st7" d="M752,501.5c-0.3,0-0.7-0.1-0.9-0.4c-0.5-0.5-0.5-1.3,0-1.8l10.9-10.9l-10.9-10.9c-0.5-0.5-0.5-1.3,0-1.8
			s1.3-0.5,1.8,0l11.8,11.8c0.2,0.2,0.4,0.6,0.4,0.9s-0.1,0.7-0.4,0.9l-11.8,11.8C752.7,501.3,752.3,501.5,752,501.5z"/>
		<circle class="st8" cx="569.6" cy="488.4" r="3.1"/>
	</g>
	<circle class="st8" cx="789.8" cy="488.4" r="3.1"/>
</g>
<rect x="1134.7" y="73.4" class="st12" width="286" height="27.4"/>
<rect id="Rectangle_110_2_" x="1147.6" y="137.5" class="st2" width="11.7" height="10.9"/>
<rect id="Rectangle_110_1_" x="1035.8" y="137.5" class="st2" width="100" height="10.9"/>
<g>
	<rect id="Rectangle_110_8_" x="239" y="638.2" class="st8" width="8.3" height="7.8"/>
	<rect id="Rectangle_110_7_" x="159.5" y="638.2" class="st8" width="71.1" height="7.8"/>
</g>
<rect id="Rectangle_110_10_" x="1046" y="405.5" class="st10" width="26.1" height="6"/>
<rect id="Rectangle_110_9_" x="1006.1" y="122.7" class="st10" width="57.5" height="5"/>
<g class="st13">
	<circle class="st6" cx="162.6" cy="69.3" r="12.7"/>
	<circle class="st6" cx="533.9" cy="69.3" r="12.7"/>
	<circle class="st6" cx="255.5" cy="116.6" r="12.7"/>
	<circle class="st6" cx="371.6" cy="116.6" r="12.7"/>
	<path class="st8" d="M506.8,70.6H190.4c-0.7,0-1.3-0.6-1.3-1.3c0-0.7,0.6-1.3,1.3-1.3h316.4c0.7,0,1.3,0.6,1.3,1.3
		C508.1,70,507.5,70.6,506.8,70.6z"/>
	<path class="st8" d="M496,82.4c-0.3,0-0.7-0.1-0.9-0.4c-0.5-0.5-0.5-1.3,0-1.8L506,69.3l-10.9-10.9c-0.5-0.5-0.5-1.3,0-1.8
		s1.3-0.5,1.8,0l11.8,11.8c0.2,0.2,0.4,0.6,0.4,0.9s-0.1,0.7-0.4,0.9L496.9,82C496.7,82.3,496.3,82.4,496,82.4z"/>
	<path class="st8" d="M140.2,59.5c-0.2,0-0.4,0-0.6-0.1L93.9,36.1c-0.6-0.3-0.9-1.1-0.6-1.7c0.3-0.6,1.1-0.9,1.7-0.6l45.8,23.3
		c0.6,0.3,0.9,1.1,0.6,1.7C141.1,59.3,140.7,59.5,140.2,59.5z"/>
	<path class="st8" d="M233.4,107.4c-0.2,0-0.4,0-0.6-0.1L187.1,84c-0.6-0.3-0.9-1.1-0.6-1.7c0.3-0.6,1.1-0.9,1.7-0.6L234,105
		c0.6,0.3,0.9,1.1,0.6,1.7C234.3,107.1,233.9,107.4,233.4,107.4z"/>
	<path class="st8" d="M346.5,117.9h-64.8c-0.7,0-1.3-0.6-1.3-1.3c0-0.7,0.6-1.3,1.3-1.3h64.8c0.7,0,1.3,0.6,1.3,1.3
		S347.2,117.9,346.5,117.9z"/>
	<path class="st8" d="M335.7,129.7c-0.3,0-0.7-0.1-0.9-0.4c-0.5-0.5-0.5-1.3,0-1.8l10.9-10.9l-10.9-10.9c-0.5-0.5-0.5-1.3,0-1.8
		s1.3-0.5,1.8,0l11.8,11.8c0.2,0.2,0.4,0.6,0.4,0.9s-0.1,0.7-0.4,0.9l-11.8,11.8C336.3,129.6,336,129.7,335.7,129.7z"/>
	<circle class="st8" cx="162.5" cy="69.4" r="3.1"/>
	<circle class="st8" cx="255.1" cy="116.6" r="3.1"/>
	<circle class="st8" cx="371.5" cy="116.6" r="3.1"/>
	<circle class="st8" cx="533.7" cy="69.4" r="3.1"/>
	<g>
		<circle class="st6" cx="69.6" cy="21.9" r="12.7"/>
		<circle class="st6" cx="603.2" cy="21.9" r="12.7"/>
		<path class="st8" d="M574.7,24.3H97.4c-0.7,0-1.3-0.6-1.3-1.3c0-0.7,0.6-1.3,1.3-1.3h477.3c0.7,0,1.3,0.6,1.3,1.3
			C576,23.7,575.4,24.3,574.7,24.3z"/>
		<path class="st8" d="M565.2,36.1c-0.3,0-0.7-0.1-0.9-0.4c-0.5-0.5-0.5-1.3,0-1.8L575.2,23l-10.9-10.9c-0.5-0.5-0.5-1.3,0-1.8
			s1.3-0.5,1.8,0l11.8,11.8c0.5,0.5,0.5,1.3,0,1.8l-11.8,11.8C565.9,36,565.5,36.1,565.2,36.1z"/>
		<path class="st8" d="M45.3,24.3h-152c-0.2,0-0.3-0.6-0.3-1.3c0-0.7,0.1-1.3,0.3-1.3h152c0.2,0,0.3,0.6,0.3,1.3
			C45.5,23.7,45.4,24.3,45.3,24.3z"/>
		<circle class="st8" cx="69.5" cy="21.8" r="3.1"/>
		<circle class="st8" cx="602.9" cy="21.8" r="3.1"/>
	</g>
	<rect id="Rectangle_110_19_" x="-4.4" y="105.8" class="st10" width="47.5" height="4.2"/>
	<rect id="Rectangle_110_18_" x="27.6" y="91.1" class="st10" width="102" height="2.9"/>
</g>
<linearGradient id="SVGID_5_" gradientUnits="userSpaceOnUse" x1="240.5" y1="287.05" x2="282.1" y2="287.05" gradientTransform="matrix(1 0 0 -1 0 712)">
	<stop  offset="3.140703e-04" style="stop-color:#000D4C;stop-opacity:0"/>
	<stop  offset="1" style="stop-color:#000D4C;stop-opacity:0.5"/>
</linearGradient>
<rect x="240.5" y="411.3" class="st14" width="41.6" height="27.3"/>
<rect x="281.1" y="404.6" class="st4" width="3.2" height="41.8"/>
<g id="markers">
	<rect x="-681.9" y="1605.8" class="st15" width="11.9" height="22.5"/>
	<rect x="1908.5" y="-0.1" class="st15" width="11.9" height="22.5"/>
</g>
<rect id="SVGID_2_" class="st16" width="1168.7" height="722.7"/>
</svg>
