<?xml version="1.0" encoding="utf-8"?>
<!-- Generator: Adobe Illustrator 24.3.0, SVG Export Plug-In . SVG Version: 6.00 Build 0)  -->
<svg version="1.1" id="Layer_1" xmlns="http://www.w3.org/2000/svg" xmlns:xlink="http://www.w3.org/1999/xlink" x="0px" y="0px"
	 viewBox="0 0 4426.7 1080" style="enable-background:new 0 0 4426.7 1080;" xml:space="preserve">
<style type="text/css">
	.st0{fill:#3274D9;}
	.st1{fill:#2A62D1;}
	.st2{opacity:0.5;}
	.st3{fill:url(#SVGID_1_);}
	.st4{fill:url(#SVGID_2_);}
	.st5{fill:none;stroke:#2A62D1;stroke-width:4;stroke-miterlimit:10;}
	.st6{fill:url(#SVGID_3_);}
	.st7{fill:#FFFFFF;}
	.st8{fill:none;stroke:#2A62D1;stroke-width:8;stroke-linecap:round;stroke-linejoin:round;stroke-dasharray:0,40;}
	.st9{fill:none;stroke:#5293E2;stroke-width:3;stroke-miterlimit:10;}
	.st10{fill:#5293E2;}
	.st11{fill:#8AB8FF;}
	.st12{fill:url(#SVGID_4_);}
</style>
<rect class="st0" width="4426.7" height="1080"/>
<g>
	<g id="Layer_1_1_">
		<polygon class="st1" points="3083.9,996 3062.9,996 3083.9,975 		"/>
	</g>
	<g class="st2">
		<rect x="623.8" y="670.2" class="st1" width="1166.6" height="21.1"/>
		<linearGradient id="SVGID_1_" gradientUnits="userSpaceOnUse" x1="1227.9763" y1="716.14" x2="1475.4164" y2="716.14">
			<stop  offset="0" style="stop-color:#D3137C;stop-opacity:0"/>
			<stop  offset="1" style="stop-color:#F06126"/>
		</linearGradient>
		<rect x="1228" y="705.6" class="st3" width="247.4" height="21.1"/>
		<rect x="1239.2" y="350.1" class="st1" width="314.3" height="21.1"/>
		<rect x="862.5" y="821.3" class="st1" width="556.7" height="21.1"/>
		<rect x="704.2" y="904.5" class="st1" width="1342" height="21.1"/>
		<rect x="1243.4" y="966.2" class="st1" width="1457.2" height="21.1"/>
		<linearGradient id="SVGID_2_" gradientUnits="userSpaceOnUse" x1="2274.7629" y1="1025.7363" x2="2399.7896" y2="1025.7363">
			<stop  offset="0" style="stop-color:#D3137C;stop-opacity:0"/>
			<stop  offset="1" style="stop-color:#F06126"/>
		</linearGradient>
		<rect x="2274.8" y="1015.2" class="st4" width="125" height="21.1"/>
	</g>
	<circle class="st5" cx="1710.4" cy="570.7" r="351.5"/>
	
		<image style="overflow:visible;opacity:0.75;enable-background:new    ;" width="572" height="572" xlink:href="BFDC5627E161B2FD.png"  transform="matrix(1 0 0 1 1423.8801 285)">
	</image>
	
		<linearGradient id="SVGID_3_" gradientUnits="userSpaceOnUse" x1="1514.8601" y1="509.29" x2="1905.8801" y2="509.29" gradientTransform="matrix(1 0 0 -1 0 1080)">
		<stop  offset="0" style="stop-color:#FABD0B"/>
		<stop  offset="0.49" style="stop-color:#F15F26"/>
		<stop  offset="1" style="stop-color:#3D7BD9;stop-opacity:0"/>
	</linearGradient>
	<circle class="st6" cx="1710.4" cy="570.7" r="195.5"/>
	
		<image style="overflow:visible;opacity:0.75;enable-background:new    ;" width="522" height="522" xlink:href="BFDC5627E161B2FF.png"  transform="matrix(1 0 0 1 1448.8801 310)">
	</image>
	<ellipse class="st7" cx="1710.4" cy="570.7" rx="170.5" ry="170.3"/>
	<circle class="st8" cx="1710.4" cy="570.7" r="564.5"/>
	<circle class="st9" cx="1968.4" cy="813.5" r="40"/>
	<path class="st10" d="M2249.9,890.2c-4.1,0-7.5-3.4-7.5-7.5s3.4-7.5,7.5-7.5s7.5,3.4,7.5,7.5S2254,890.2,2249.9,890.2L2249.9,890.2
		z"/>
	<rect x="1419.5" y="275.2" class="st11" width="12.5" height="12.5"/>
	<rect x="1407" y="287.7" class="st11" width="12.5" height="12.5"/>
	<path class="st10" d="M2984.9,315.1c-1.4,0-2.5-1.1-2.5-2.4c0-1.4,1.1-2.5,2.4-2.5c1.4,0,2.5,1.1,2.5,2.4c0,0,0,0,0,0
		C2987.4,314,2986.3,315.1,2984.9,315.1z"/>
	<path class="st10" d="M2974.9,325.1c-1.4,0-2.5-1.1-2.5-2.5c0-1.4,1.1-2.5,2.5-2.5c1.4,0,2.5,1.1,2.5,2.5c0,0,0,0,0,0
		C2977.3,324,2976.2,325.1,2974.9,325.1C2974.9,325.1,2974.9,325.1,2974.9,325.1z"/>
	<path class="st10" d="M2964.9,335.2c-1.4,0-2.5-1.1-2.5-2.5c0-1.4,1.1-2.5,2.5-2.5c1.4,0,2.5,1.1,2.5,2.5c0,0,0,0,0,0
		C2967.3,334.1,2966.2,335.2,2964.9,335.2z"/>
	<path class="st10" d="M1967.7,697.9c0-3.1,2.5-5.7,5.7-5.7c3.1,0,5.7,2.5,5.7,5.7c0,0,0,0,0,0h6.8c0-6.9-5.6-12.5-12.5-12.5
		s-12.5,5.6-12.5,12.5H1967.7z"/>
	<circle class="st0" cx="2091.8" cy="156.8" r="6.5"/>
	<path class="st1" d="M2135.2,186c-6.9,0-12.5,5.6-12.5,12.5s5.6,12.5,12.5,12.5s12.5-5.6,12.5-12.5l0,0
		C2147.7,191.6,2142.1,186,2135.2,186z M2135.2,204.2c-3.1,0-5.7-2.5-5.7-5.7s2.5-5.7,5.7-5.7s5.7,2.5,5.7,5.7v0
		C2140.9,201.7,2138.3,204.2,2135.2,204.2L2135.2,204.2L2135.2,204.2z"/>
	<g id="Layer_6">
		
			<linearGradient id="SVGID_4_" gradientUnits="userSpaceOnUse" x1="1861.897" y1="5142.4297" x2="1657.6169" y2="5205.4399" gradientTransform="matrix(1 0 0 1 0 -4622)">
			<stop  offset="0" style="stop-color:#FFF100"/>
			<stop  offset="1" style="stop-color:#F05A28"/>
		</linearGradient>
		<path class="st12" d="M1625,537.2h-3.3c-1.9,0.1-3.3,1.7-3.2,3.6c0.1,1.7,1.5,3.1,3.2,3.2h3.3c1.9,0.1,3.5-1.3,3.6-3.2
			c0.1-1.9-1.3-3.5-3.2-3.6C1625.3,537.1,1625.1,537.1,1625,537.2z M1688.4,587.2h-3.3c-1.9,0.1-3.3,1.7-3.2,3.6
			c0.1,1.7,1.5,3.1,3.2,3.2h3.3c1.9,0.1,3.5-1.3,3.6-3.2s-1.3-3.5-3.2-3.6C1688.6,587.1,1688.5,587.1,1688.4,587.2z M1685.6,554.5
			c0-1.9-1.5-3.4-3.4-3.4h-11.4c-1.9,0-3.4,1.5-3.4,3.4c0,1.9,1.5,3.4,3.4,3.4h11.4C1684,558,1685.6,556.4,1685.6,554.5
			L1685.6,554.5z M1794.2,533l-3.5-19.6c-1-7.4-7.4-12.8-14.9-12.4h-134.1c-5-0.2-9.2,3.7-9.4,8.7c0,0,0,0,0,0c0,0.8,0,1.6,0.2,2.4
			l3.7,20.9c0,0.2,0.1,0.3,0.1,0.5l0,0c0.4,2.5-0.9,3.6-2,3.9l0,0c-1.8,0.7-2.7,2.6-2,4.4c0.5,1.3,1.8,2.2,3.2,2.2h149.5
			c5,0.2,9.2-3.8,9.4-8.8C1794.5,534.5,1794.4,533.8,1794.2,533z M1748.6,611.5c-1.4-7.6-5.8-10.4-10.7-10.4h-35.4
			c-1.9,0-3.5,1.6-3.4,3.5c0,1.8,1.3,3.2,3.1,3.4l0,0c1.1,0.2,2.3,1.7,3.1,5.3l3.7,20.2c1.4,6.3,6.9,10.8,13.3,10.9l21.2-0.1
			c5,0.2,9.3-3.7,9.5-8.7c0-0.8,0-1.6-0.2-2.3L1748.6,611.5z M1701.7,594.2h38.5c0.3,0,0.6-0.1,0.8-0.1c3.6-0.8,3.7-3.7,3.3-6.5
			l-4.9-26.9c-1.3-7-5.4-9.8-10.7-9.8h-35.2c-1.9,0-3.4,1.5-3.5,3.4c0,1.8,1.3,3.2,3.1,3.4l0,0c1.2,0.2,2.5,1.8,3.2,5.8l3.7,20.6
			l0,0c0.4,1.5-0.5,3-2,3.4c0,0,0,0,0,0h-0.2l0,0c-1.8,0.6-2.7,2.5-2.1,4.3c0.5,1.4,1.8,2.3,3.3,2.3L1701.7,594.2L1701.7,594.2z"/>
	</g>
	<path class="st0" d="M2135.2,204.2c-3.1,0-5.7-2.5-5.7-5.7s2.5-5.7,5.7-5.7s5.7,2.5,5.7,5.7v0
		C2140.9,201.7,2138.3,204.2,2135.2,204.2L2135.2,204.2L2135.2,204.2z"/>
</g>
</svg>
