<svg width="1920" height="343" viewBox="0 0 1920 343" fill="none" xmlns="http://www.w3.org/2000/svg">
<rect width="1920" height="343" fill="black"/>
<path fill-rule="evenodd" clip-rule="evenodd" d="M1588.96 340V317.49H1513.29V340H1510.32V317.49H1434.65V340H1431.68V317.49H1356V340H1353.03V317.49H1277.07V340H1274.09V317.49H1217V314.516H1274.09V285.124H1217V282.15H1274.09V252.759H1217V249.786H1274.09V220.393H1217V217.42H1274.09V188.028H1217V185.055H1274.09L1274.09 155.661H1217V152.687H1274.09V123.296H1217V120.322H1274.09V90.9296H1217V87.956H1274.09L1274.09 58.5649H1217V55.5912H1274.09V26.2004H1217V23.2267H1274.09V3.94702H1277.07V23.2267H1353.03V3.94702H1356V23.2267H1431.68V3.94702H1434.65V23.2267H1510.32V3.94702H1513.29V23.2267H1588.96V3.94702H1591.93V23.2267H1667.6V3.94702H1670.58V23.2267H1746.25V3.94702H1749.22V23.2267H1824.89V3.94702H1827.86V23.2267H1903.53V3.94702H1906.51V23.2267H1982.18V3.94702H1985.15V23.2267H2030V26.2004H1985.15V55.5912H2030V58.5649H1985.15V87.956H2030V90.9296H1985.15V120.322H2030V123.296H1985.15V152.687H2030V155.661H1985.15V185.055H2030V188.028H1985.15V217.42H2030V220.393H1985.15V249.786H2030V252.759H1985.15V282.15H2030V285.124H1985.15V314.516H2030V317.49H1985.15V340H1982.18V317.49H1906.51V340H1903.53V317.49H1827.86V340H1824.89V317.49H1749.22V340H1746.25V317.49H1670.58V340H1667.6V317.49H1591.93V340H1588.96ZM1670.58 314.516H1746.25V285.124H1670.58V314.516ZM1667.6 285.124V314.516H1591.93V285.124H1667.6ZM1670.58 282.15H1746.25V252.759H1670.58V282.15ZM1667.6 252.759V282.15H1591.93V252.759H1667.6ZM1670.58 249.786H1746.25V220.393H1670.58V249.786ZM1667.6 220.393V249.786H1591.93V220.393H1667.6ZM1670.58 217.42H1746.25V188.028H1670.58V217.42ZM1667.6 188.028V217.42H1591.93V188.028H1667.6ZM1670.58 185.055H1746.25V155.661H1670.58V185.055ZM1667.6 155.661V185.055H1591.93V155.661H1667.6ZM1670.58 152.687H1746.25V123.296H1670.58V152.687ZM1667.6 123.296V152.687H1591.93V123.296H1667.6ZM1670.58 120.322H1746.25V90.9296H1670.58V120.322ZM1667.6 90.9296V120.322H1591.93V90.9296H1667.6ZM1670.58 87.956H1746.25V58.5649H1670.58V87.956ZM1667.6 58.5649V87.956H1591.93V58.5649H1667.6ZM1670.58 55.5912H1746.25V26.2004H1670.58V55.5912ZM1667.6 26.2004V55.5912H1591.93V26.2004H1667.6ZM1749.22 58.5649V87.956H1824.89V58.5649H1749.22ZM1749.22 90.9296V120.322H1824.89V90.9296H1749.22ZM1749.22 123.296V152.687H1824.89V123.296H1749.22ZM1749.22 155.661V185.055H1824.89V155.661H1749.22ZM1749.22 188.028V217.42H1824.89V188.028H1749.22ZM1749.22 220.393V249.786H1824.89V220.393H1749.22ZM1749.22 252.759V282.15H1824.89V252.759H1749.22ZM1749.22 285.124V314.516H1824.89V285.124H1749.22ZM1749.22 26.2004V55.5912H1824.89V26.2004H1749.22ZM1827.86 314.516H1903.53V285.124H1827.86V314.516ZM1827.86 282.15H1903.53V252.759H1827.86V282.15ZM1827.86 249.786H1903.53V220.393H1827.86V249.786ZM1827.86 217.42H1903.53V188.028H1827.86V217.42ZM1827.86 185.055H1903.53V155.661H1827.86V185.055ZM1827.86 152.687H1903.53V123.296H1827.86V152.687ZM1827.86 120.322H1903.53V90.9296H1827.86V120.322ZM1827.86 87.956H1903.53V58.5649H1827.86V87.956ZM1827.86 55.5912H1903.53V26.2004H1827.86V55.5912ZM1906.51 58.5649V87.956H1982.18V58.5649H1906.51ZM1906.51 90.9296V120.322H1982.18V90.9296H1906.51ZM1906.51 123.296V152.687H1982.18V123.296H1906.51ZM1906.51 155.661V185.055H1982.18V155.661H1906.51ZM1906.51 188.028V217.42H1982.18V188.028H1906.51ZM1906.51 220.393V249.786H1982.18V220.393H1906.51ZM1906.51 252.759V282.15H1982.18V252.759H1906.51ZM1906.51 285.124V314.516H1982.18V285.124H1906.51ZM1906.51 26.2004V55.5912H1982.18V26.2004H1906.51ZM1353.03 314.516H1277.07V285.124H1353.03V314.516ZM1353.03 282.15H1277.07V252.759H1353.03V282.15ZM1353.03 249.786H1277.07V220.393H1353.03V249.786ZM1353.03 217.42H1277.07V188.028H1353.03V217.42ZM1353.03 185.055H1277.07L1277.07 155.661H1353.03L1353.03 185.055ZM1353.03 152.687H1277.07V123.296H1353.03V152.687ZM1353.03 120.322H1277.07V90.9296H1353.03V120.322ZM1353.03 87.956H1277.07L1277.07 58.5649H1353.03V87.956ZM1353.03 55.5912H1277.07V26.2004H1353.03V55.5912ZM1356 26.2004V55.5912H1431.68V26.2004H1356ZM1356 58.5649V87.956H1431.68V58.5649H1356ZM1356 90.9296V120.322H1431.68V90.9296H1356ZM1356 123.296V152.687H1431.68V123.296H1356ZM1356 155.661L1356 185.055H1431.68L1431.68 155.661H1356ZM1356 188.028V217.42H1431.68V188.028H1356ZM1356 220.393V249.786H1431.68V220.393H1356ZM1356 252.759V282.15H1431.68V252.759H1356ZM1356 285.124V314.516H1431.68V285.124H1356ZM1510.32 314.516H1434.65V285.124H1510.32V314.516ZM1510.32 282.15H1434.65V252.759H1510.32V282.15ZM1510.32 249.786H1434.65V220.393H1510.32V249.786ZM1510.32 217.42H1434.65V188.028H1510.32V217.42ZM1510.32 185.055H1434.65L1434.65 155.661H1510.32V185.055ZM1510.32 152.687H1434.65V123.296H1510.32V152.687ZM1510.32 120.322H1434.65V90.9296H1510.32V120.322ZM1510.32 87.956H1434.65V58.5649H1510.32V87.956ZM1510.32 55.5912H1434.65V26.2004H1510.32V55.5912ZM1513.29 26.2004V55.5912H1588.96V26.2004H1513.29ZM1513.29 58.5649V87.956H1588.96V58.5649H1513.29ZM1513.29 90.9296V120.322H1588.96V90.9296H1513.29ZM1513.29 123.296V152.687H1588.96V123.296H1513.29ZM1513.29 155.661V185.055H1588.96V155.661H1513.29ZM1513.29 188.028V217.42H1588.96V188.028H1513.29ZM1513.29 220.393V249.786H1588.96V220.393H1513.29ZM1513.29 252.759V282.15H1588.96V252.759H1513.29ZM1513.29 285.124V314.516H1588.96V285.124H1513.29Z" fill="url(#paint0_radial)" fill-opacity="0.3"/>
<path fill-rule="evenodd" clip-rule="evenodd" d="M256.961 340V317.49H181.293V340H178.319V317.49H102.65V340H99.6762V317.49H24.0038V340H21.0301V317.49H-54.9329V340H-57.9065V317.49H-115V314.516H-57.9065V285.124H-115V282.15H-57.9065V252.759H-115V249.786H-57.9065V220.393H-115V217.42H-57.9065V188.028H-115V185.055H-57.9065L-57.9065 155.661H-115V152.687H-57.9065V123.296H-115V120.322H-57.9065V90.9296H-115V87.956H-57.9065L-57.9065 58.5649H-115V55.5912H-57.9065V26.2004H-115V23.2267H-57.9065V3.94702H-54.9328V23.2267H21.0301V3.94702H24.0038V23.2267H99.6762V3.94702H102.65V23.2267H178.319V3.94702H181.293V23.2267H256.961V3.94702H259.935V23.2267H335.604V3.94702H338.577V23.2267H414.245V3.94702H417.219V23.2267H492.889V3.94702H495.863V23.2267H571.533V3.94702H574.506V23.2267H650.179V3.94702H653.152V23.2267H698V26.2004H653.152V55.5912H698V58.5649H653.152V87.956H698V90.9296H653.152V120.322H698V123.296H653.152V152.687H698V155.661H653.152V185.055H698V188.028H653.152V217.42H698V220.393H653.152V249.786H698V252.759H653.152V282.15H698V285.124H653.152V314.516H698V317.49H653.152V340H650.179V317.49H574.506V340H571.533V317.49H495.863V340H492.889V317.49H417.219V340H414.245V317.49H338.577V340H335.604V317.49H259.935V340H256.961ZM338.577 314.516H414.245V285.124H338.577V314.516ZM335.604 285.124V314.516H259.935V285.124H335.604ZM338.577 282.15H414.245V252.759H338.577V282.15ZM335.604 252.759V282.15H259.935V252.759H335.604ZM338.577 249.786H414.245V220.393H338.577V249.786ZM335.604 220.393V249.786H259.935V220.393H335.604ZM338.577 217.42H414.245V188.028H338.577V217.42ZM335.604 188.028V217.42H259.935V188.028H335.604ZM338.577 185.055H414.245V155.661H338.577V185.055ZM335.604 155.661V185.055H259.935V155.661H335.604ZM338.577 152.687H414.245V123.296H338.577V152.687ZM335.604 123.296V152.687H259.935V123.296H335.604ZM338.577 120.322H414.245V90.9296H338.577V120.322ZM335.604 90.9296V120.322H259.935V90.9296H335.604ZM338.577 87.956H414.245V58.5649H338.577V87.956ZM335.604 58.5649V87.956H259.935V58.5649H335.604ZM338.577 55.5912H414.245V26.2004H338.577V55.5912ZM335.604 26.2004V55.5912H259.935V26.2004H335.604ZM417.219 58.5649V87.956H492.889V58.5649H417.219ZM417.219 90.9296V120.322H492.889V90.9296H417.219ZM417.219 123.296V152.687H492.889V123.296H417.219ZM417.219 155.661V185.055H492.889V155.661H417.219ZM417.219 188.028V217.42H492.889V188.028H417.219ZM417.219 220.393V249.786H492.889V220.393H417.219ZM417.219 252.759V282.15H492.889V252.759H417.219ZM417.219 285.124V314.516H492.889V285.124H417.219ZM417.219 26.2004V55.5912H492.889V26.2004H417.219ZM495.863 314.516H571.533V285.124H495.863V314.516ZM495.863 282.15H571.533V252.759H495.863V282.15ZM495.863 249.786H571.533V220.393H495.863V249.786ZM495.863 217.42H571.533V188.028H495.863V217.42ZM495.863 185.055H571.533V155.661H495.863V185.055ZM495.863 152.687H571.533V123.296H495.863V152.687ZM495.863 120.322H571.533V90.9296H495.863V120.322ZM495.863 87.956H571.533V58.5649H495.863V87.956ZM495.863 55.5912H571.533V26.2004H495.863V55.5912ZM574.506 58.5649V87.956H650.179V58.5649H574.506ZM574.506 90.9296V120.322H650.179V90.9296H574.506ZM574.506 123.296V152.687H650.179V123.296H574.506ZM574.506 155.661V185.055H650.179V155.661H574.506ZM574.506 188.028V217.42H650.179V188.028H574.506ZM574.506 220.393V249.786H650.179V220.393H574.506ZM574.506 252.759V282.15H650.179V252.759H574.506ZM574.506 285.124V314.516H650.179V285.124H574.506ZM574.506 26.2004V55.5912H650.179V26.2004H574.506ZM21.0301 314.516H-54.9329V285.124H21.0301V314.516ZM21.0301 282.15H-54.9328V252.759H21.0301V282.15ZM21.0301 249.786H-54.9328V220.393H21.0301V249.786ZM21.0301 217.42H-54.9328V188.028H21.0301V217.42ZM21.0301 185.055H-54.9328L-54.9328 155.661H21.0301L21.0301 185.055ZM21.0301 152.687H-54.9328V123.296H21.0301V152.687ZM21.0301 120.322H-54.9328V90.9296H21.0301V120.322ZM21.0301 87.956H-54.9328L-54.9328 58.5649H21.0301V87.956ZM21.0301 55.5912H-54.9328V26.2004H21.0301V55.5912ZM24.0038 26.2004V55.5912H99.6762V26.2004H24.0038ZM24.0038 58.5649V87.956H99.6762V58.5649H24.0038ZM24.0038 90.9296V120.322H99.6762V90.9296H24.0038ZM24.0038 123.296V152.687H99.6762V123.296H24.0038ZM24.0038 155.661L24.0038 185.055H99.6762L99.6762 155.661H24.0038ZM24.0038 188.028V217.42H99.6762V188.028H24.0038ZM24.0038 220.393V249.786H99.6762V220.393H24.0038ZM24.0038 252.759V282.15H99.6762V252.759H24.0038ZM24.0038 285.124V314.516H99.6762V285.124H24.0038ZM178.319 314.516H102.65V285.124H178.319V314.516ZM178.319 282.15H102.65V252.759H178.319V282.15ZM178.319 249.786H102.65V220.393H178.319V249.786ZM178.319 217.42H102.65V188.028H178.319V217.42ZM178.319 185.055H102.65L102.65 155.661H178.319V185.055ZM178.319 152.687H102.65V123.296H178.319V152.687ZM178.319 120.322H102.65V90.9296H178.319V120.322ZM178.319 87.956H102.65V58.5649H178.319V87.956ZM178.319 55.5912H102.65V26.2004H178.319V55.5912ZM181.293 26.2004V55.5912H256.961V26.2004H181.293ZM181.293 58.5649V87.956H256.961V58.5649H181.293ZM181.293 90.9296V120.322H256.961V90.9296H181.293ZM181.293 123.296V152.687H256.961V123.296H181.293ZM181.293 155.661V185.055H256.961V155.661H181.293ZM181.293 188.028V217.42H256.961V188.028H181.293ZM181.293 220.393V249.786H256.961V220.393H181.293ZM181.293 252.759V282.15H256.961V252.759H181.293ZM181.293 285.124V314.516H256.961V285.124H181.293Z" fill="url(#paint1_radial)" fill-opacity="0.3"/>
<defs>
<radialGradient id="paint0_radial" cx="0" cy="0" r="1" gradientUnits="userSpaceOnUse" gradientTransform="translate(1623.5 171.974) rotate(90) scale(167.998 406.431)">
<stop stop-color="#8438F8"/>
<stop offset="1" stop-color="#8438F8" stop-opacity="0"/>
</radialGradient>
<radialGradient id="paint1_radial" cx="0" cy="0" r="1" gradientUnits="userSpaceOnUse" gradientTransform="translate(291.5 171.974) rotate(90) scale(167.998 406.431)">
<stop stop-color="#3840F8"/>
<stop offset="1" stop-color="#8438F8" stop-opacity="0"/>
</radialGradient>
</defs>
</svg>
