<svg width="986" height="448" viewBox="0 0 986 448" fill="none" xmlns="http://www.w3.org/2000/svg">
<path d="M985.998 0H-35.9385V448H985.998V0Z" fill="url(#paint0_radial)"/>
<g opacity="0.3">
<path opacity="0.3" d="M75.485 6.71387H-35.9368V15.2647H75.485V6.71387Z" fill="#15158C"/>
<path opacity="0.3" d="M361.518 44.4004H-35.9368V52.9512H361.518V44.4004Z" fill="#15158C"/>
<path opacity="0.3" d="M605.974 65.3027H16.4785V73.8536H605.974V65.3027Z" fill="#15158C"/>
<path opacity="0.3" d="M472.179 85.1279H421.602V93.6788H472.179V85.1279Z" fill="#15158C"/>
</g>
<g opacity="0.3">
<path opacity="0.3" d="M900.564 312.961H202.498V321.512H900.564V312.961Z" fill="#15158C"/>
<path opacity="0.3" d="M547.031 333.356H212.322V341.907H547.031V333.356Z" fill="#15158C"/>
<path opacity="0.3" d="M290.85 353.118H220.371V361.669H290.85V353.118Z" fill="#15158C"/>
<path opacity="0.3" d="M429.335 374.083H299.089V382.634H429.335V374.083Z" fill="#15158C"/>
<path opacity="0.3" d="M810.248 411.707H235.012V420.258H810.248V411.707Z" fill="#15158C"/>
<path opacity="0.3" d="M986 432.673H465.271V441.224H986V432.673Z" fill="#15158C"/>
</g>
<g opacity="0.08">
<path opacity="0.08" d="M547.094 333.355H272.723V341.906H547.094V333.355Z" fill="url(#paint1_linear)"/>
</g>
<g opacity="0.08">
<path opacity="0.08" d="M290.913 353.181H229.435V361.731H290.913V353.181Z" fill="url(#paint2_linear)"/>
</g>
<g opacity="0.08">
<path opacity="0.08" d="M472.18 85.1279H422.046V93.6788H472.18V85.1279Z" fill="url(#paint3_linear)"/>
</g>
<g opacity="0.08">
<path opacity="0.08" d="M429.398 374.083H367.92V382.634H429.398V374.083Z" fill="url(#paint4_linear)"/>
</g>
<g opacity="0.08">
<path opacity="0.08" d="M810.248 411.706H535.876V420.257H810.248V411.706Z" fill="url(#paint5_linear)"/>
</g>
<g opacity="0.08">
<path opacity="0.08" d="M900.691 312.771H626.319V321.321H900.691V312.771Z" fill="url(#paint6_linear)"/>
</g>
<g opacity="0.08">
<path opacity="0.08" d="M361.518 44.4014H87.147V52.9522H361.518V44.4014Z" fill="url(#paint7_linear)"/>
</g>
<g opacity="0.3">
<path opacity="0.3" d="M605.911 65.3662H331.54V73.7904H605.911V65.3662Z" fill="url(#paint8_linear)"/>
</g>
<path opacity="0.15" d="M986 108.754H868.24V130.289H986V108.754Z" fill="#1E1ED7"/>
<path opacity="0.15" d="M26.429 227.579H-35.9368V249.115H26.429V227.579Z" fill="#1E1ED7"/>
<path opacity="0.15" d="M986 148.911H775.642V170.447H986V148.911Z" fill="#1E1ED7"/>
<g opacity="0.6">
<path opacity="0.6" d="M917.487 143.273H916.282V176.147H917.487V143.273Z" fill="#161699"/>
</g>
<path opacity="0.15" d="M-35.8535 356.825L-35.8535 447.971H75.188V356.825H-35.8535Z" fill="#1E1ED7"/>
<path d="M75.1682 355.397H-36V358.121H75.1682V355.397Z" fill="#0707A5"/>
<g opacity="0.59">
<path opacity="0.59" d="M75.1682 355.397H-36V358.121H75.1682V355.397Z" fill="url(#paint9_linear)"/>
</g>
<g opacity="0.59">
<path opacity="0.59" d="M626.383 57.2588H515.215V59.9824H626.383V57.2588Z" fill="url(#paint10_linear)"/>
</g>
<g opacity="0.5">
<path opacity="0.5" d="M847.769 370.662H795.544V372.119H847.769V370.662Z" fill="url(#paint11_linear)"/>
</g>
<g opacity="0.5">
<path opacity="0.5" d="M826.473 385.357H774.248V386.814H826.473V385.357Z" fill="url(#paint12_linear)"/>
</g>
<g opacity="0.5">
<path opacity="0.5" d="M800.234 366.419H748.009V367.876H800.234V366.419Z" fill="url(#paint13_linear)"/>
</g>
<path opacity="0.59" d="M107.746 417.725H-28.9014V425.705H107.746V417.725Z" fill="url(#paint14_linear)"/>
<path d="M109.584 417.66H107.492V425.641H109.584V417.66Z" fill="#FF7300"/>
<path d="M107.555 424.312H106.161V425.642H107.555V424.312Z" fill="#FF5906"/>
<path d="M107.555 419.054H106.161V420.384H107.555V419.054Z" fill="#FF5906"/>
<path d="M106.478 422.221H105.084V423.551H106.478V422.221Z" fill="#FF5906"/>
<path d="M102.739 418.864H101.344V420.194H102.739V418.864Z" fill="#FF5906"/>
<path d="M95.64 422.791H94.2456V424.121H95.64V422.791Z" fill="#FF5906"/>
<path d="M84.7386 419.878H83.3442V421.208H84.7386V419.878Z" fill="#FF5906"/>
<path d="M104.323 421.208H102.929V422.538H104.323V421.208Z" fill="#FF5906"/>
<path d="M98.9359 418.674H97.5415V420.004H98.9359V418.674Z" fill="#FF5906"/>
<path d="M89.3021 422.221H87.9077V423.551H89.3021V422.221Z" fill="#FF5906"/>
<path d="M102.041 414.62H100.647V415.95H102.041V414.62Z" fill="#FF5906"/>
<path d="M43.6053 418.674H42.2109V420.004H43.6053V418.674Z" fill="#D3137C"/>
<path d="M62.1756 422.475H60.7812V423.805H62.1756V422.475Z" fill="#D3137C"/>
<path d="M90.6331 419.054H89.2388V420.384H90.6331V419.054Z" fill="#FF1AA3"/>
<path d="M76.1824 419.117H74.7881V420.447H76.1824V419.117Z" fill="#FF5906"/>
<path d="M57.5487 410.693H56.1543V412.023H57.5487V410.693Z" fill="#FF5906"/>
<path d="M81.95 428.429H80.5557V429.759H81.95V428.429Z" fill="#FF5906"/>
<path d="M27.8236 421.588H26.4292V422.918H27.8236V421.588Z" fill="#FF5906"/>
<path opacity="0.59" d="M854.424 373.955H509.003V382.506H854.424V373.955Z" fill="url(#paint15_linear)"/>
<path d="M856.388 373.955H854.17V382.506H856.388V373.955Z" fill="#FF7300"/>
<path d="M854.233 381.05H852.712V382.507H854.233V381.05Z" fill="#FF5906"/>
<path d="M854.233 375.412H852.712V376.869H854.233V375.412Z" fill="#FF5906"/>
<path d="M853.156 378.833H851.635V380.29H853.156V378.833Z" fill="#FF5906"/>
<path d="M849.163 375.223H847.642V376.679H849.163V375.223Z" fill="#FF5906"/>
<path d="M841.557 379.466H840.036V380.923H841.557V379.466Z" fill="#FF5906"/>
<path d="M829.896 376.299H828.375V377.756H829.896V376.299Z" fill="#FF5906"/>
<path d="M850.811 377.756H849.29V379.213H850.811V377.756Z" fill="#FF5906"/>
<path d="M845.107 374.969H843.586V376.426H845.107V374.969Z" fill="#FF5906"/>
<path d="M834.839 378.833H833.318V380.29H834.839V378.833Z" fill="#FF5906"/>
<path d="M848.402 370.726H846.881V372.182H848.402V370.726Z" fill="#FF5906"/>
<path d="M739.389 376.933H737.868V378.389H739.389V376.933Z" fill="#D3137C"/>
<path d="M786.037 375.032H784.516V376.489H786.037V375.032Z" fill="#D3137C"/>
<path d="M805.875 379.022H804.354V380.479H805.875V379.022Z" fill="#D3137C"/>
<path d="M836.233 375.476H834.712V376.932H836.233V375.476Z" fill="#FF1AA3"/>
<path d="M820.832 375.476H819.311V376.932H820.832V375.476Z" fill="#FF5906"/>
<path d="M800.931 366.545H799.41V368.002H800.931V366.545Z" fill="#FF5906"/>
<path d="M826.98 385.42H825.459V386.877H826.98V385.42Z" fill="#FF5906"/>
<path d="M769.241 378.136H767.72V379.593H769.241V378.136Z" fill="#FF5906"/>
<g opacity="0.5">
<path opacity="0.5" d="M617.636 68.5332H591.017V69.9267H617.636V68.5332Z" fill="url(#paint16_linear)"/>
</g>
<path d="M617.573 68.5332H616.052V69.99H617.573V68.5332Z" fill="#FF5906"/>
<path d="M626.383 57.2588H624.862V59.9824H626.383V57.2588Z" fill="#FF5906"/>
<g opacity="0.5">
<path opacity="0.5" d="M584.679 51.2412H558.059V52.6347H584.679V51.2412Z" fill="url(#paint17_linear)"/>
</g>
<path d="M584.679 51.2412H583.158V52.698H584.679V51.2412Z" fill="#FF5906"/>
<g opacity="0.6">
<g opacity="0.6">
<path opacity="0.6" d="M226.266 408.793H224.238V423.994H226.266V408.793Z" fill="#15158C"/>
</g>
<g opacity="0.6">
<g opacity="0.6">
<path opacity="0.6" d="M211.055 413.906L209.621 415.34L215.265 420.986L216.699 419.552L211.055 413.906Z" fill="#15158C"/>
</g>
<g opacity="0.6">
<path opacity="0.6" d="M219.449 413.907L213.805 419.553L215.239 420.987L220.883 415.341L219.449 413.907Z" fill="#15158C"/>
</g>
</g>
</g>
<g opacity="0.6">
<g opacity="0.6">
<path opacity="0.6" d="M192.738 309.477H190.71V324.678H192.738V309.477Z" fill="#15158C"/>
</g>
<g opacity="0.6">
<g opacity="0.6">
<path opacity="0.6" d="M177.445 314.57L176.011 316.004L181.656 321.65L183.089 320.216L177.445 314.57Z" fill="#15158C"/>
</g>
<g opacity="0.6">
<path opacity="0.6" d="M185.884 314.527L180.24 320.173L181.674 321.607L187.318 315.961L185.884 314.527Z" fill="#15158C"/>
</g>
</g>
</g>
<g opacity="0.3">
<path opacity="0.3" d="M268.414 0V122.499" stroke="#0707A5" stroke-miterlimit="10"/>
<path opacity="0.3" d="M155.661 0V122.499" stroke="#0707A5" stroke-miterlimit="10"/>
<path opacity="0.3" d="M42.908 0V122.499" stroke="#0707A5" stroke-miterlimit="10"/>
</g>
<g opacity="0.3">
<path opacity="0.3" d="M891.691 396.948V448" stroke="#0707A5" stroke-miterlimit="10"/>
<path opacity="0.3" d="M778.938 396.948V448" stroke="#0707A5" stroke-miterlimit="10"/>
<path opacity="0.3" d="M666.185 396.948V448" stroke="#0707A5" stroke-miterlimit="10"/>
<path opacity="0.3" d="M553.433 396.948V448" stroke="#0707A5" stroke-miterlimit="10"/>
</g>
<defs>
<radialGradient id="paint0_radial" cx="0" cy="0" r="1" gradientUnits="userSpaceOnUse" gradientTransform="translate(479.009 388.34) rotate(-90) scale(606.12 1444.48)">
<stop stop-color="#170F69"/>
<stop offset="1" stop-color="#090237"/>
</radialGradient>
<linearGradient id="paint1_linear" x1="272.697" y1="337.605" x2="547.061" y2="337.605" gradientUnits="userSpaceOnUse">
<stop stop-color="#D3137C" stop-opacity="0"/>
<stop offset="1" stop-color="#FF5906"/>
</linearGradient>
<linearGradient id="paint2_linear" x1="229.463" y1="357.479" x2="290.914" y2="357.479" gradientUnits="userSpaceOnUse">
<stop stop-color="#D3137C" stop-opacity="0"/>
<stop offset="1" stop-color="#FF5906"/>
</linearGradient>
<linearGradient id="paint3_linear" x1="422.044" y1="89.3701" x2="472.18" y2="89.3701" gradientUnits="userSpaceOnUse">
<stop stop-color="#D3137C" stop-opacity="0"/>
<stop offset="1" stop-color="#FF5906"/>
</linearGradient>
<linearGradient id="paint4_linear" x1="367.889" y1="378.337" x2="429.34" y2="378.337" gradientUnits="userSpaceOnUse">
<stop stop-color="#D3137C" stop-opacity="0"/>
<stop offset="1" stop-color="#FF5906"/>
</linearGradient>
<linearGradient id="paint5_linear" x1="535.9" y1="416" x2="810.264" y2="416" gradientUnits="userSpaceOnUse">
<stop stop-color="#D3137C" stop-opacity="0"/>
<stop offset="1" stop-color="#FF5906"/>
</linearGradient>
<linearGradient id="paint6_linear" x1="626.33" y1="317.052" x2="900.693" y2="317.052" gradientUnits="userSpaceOnUse">
<stop stop-color="#D3137C" stop-opacity="0"/>
<stop offset="1" stop-color="#FF5906"/>
</linearGradient>
<linearGradient id="paint7_linear" x1="87.1368" y1="48.6913" x2="361.501" y2="48.6913" gradientUnits="userSpaceOnUse">
<stop stop-color="#D3137C" stop-opacity="0"/>
<stop offset="1" stop-color="#FF5906"/>
</linearGradient>
<linearGradient id="paint8_linear" x1="331.562" y1="69.5992" x2="605.903" y2="69.5992" gradientUnits="userSpaceOnUse">
<stop stop-color="#D3137C" stop-opacity="0"/>
<stop offset="1" stop-color="#FF5906"/>
</linearGradient>
<linearGradient id="paint9_linear" x1="-36" y1="356.732" x2="75.1874" y2="356.732" gradientUnits="userSpaceOnUse">
<stop stop-color="#D3137C" stop-opacity="0"/>
<stop offset="1" stop-color="#FF5906"/>
</linearGradient>
<linearGradient id="paint10_linear" x1="515.224" y1="58.6302" x2="626.411" y2="58.6302" gradientUnits="userSpaceOnUse">
<stop stop-color="#D3137C" stop-opacity="0"/>
<stop offset="1" stop-color="#FF5906"/>
</linearGradient>
<linearGradient id="paint11_linear" x1="795.572" y1="371.408" x2="847.775" y2="371.408" gradientUnits="userSpaceOnUse">
<stop stop-color="#D3137C" stop-opacity="0"/>
<stop offset="0.9973" stop-color="#FF5906"/>
</linearGradient>
<linearGradient id="paint12_linear" x1="774.273" y1="386.105" x2="826.476" y2="386.105" gradientUnits="userSpaceOnUse">
<stop stop-color="#D3137C" stop-opacity="0"/>
<stop offset="0.9973" stop-color="#FF5906"/>
</linearGradient>
<linearGradient id="paint13_linear" x1="748.002" y1="367.172" x2="800.206" y2="367.172" gradientUnits="userSpaceOnUse">
<stop stop-color="#D3137C" stop-opacity="0"/>
<stop offset="0.9973" stop-color="#FF5906"/>
</linearGradient>
<linearGradient id="paint14_linear" x1="-28.9298" y1="421.7" x2="107.746" y2="421.7" gradientUnits="userSpaceOnUse">
<stop stop-color="#D3137C" stop-opacity="0"/>
<stop offset="1" stop-color="#FF5906"/>
</linearGradient>
<linearGradient id="paint15_linear" x1="509.034" y1="378.245" x2="854.456" y2="378.245" gradientUnits="userSpaceOnUse">
<stop stop-color="#D3137C" stop-opacity="0"/>
<stop offset="1" stop-color="#FF5906"/>
</linearGradient>
<linearGradient id="paint16_linear" x1="590.998" y1="69.2133" x2="617.598" y2="69.2133" gradientUnits="userSpaceOnUse">
<stop stop-color="#D3137C" stop-opacity="0"/>
<stop offset="0.9973" stop-color="#FF5906"/>
</linearGradient>
<linearGradient id="paint17_linear" x1="558.064" y1="51.9196" x2="584.664" y2="51.9196" gradientUnits="userSpaceOnUse">
<stop stop-color="#D3137C" stop-opacity="0"/>
<stop offset="0.9973" stop-color="#FF5906"/>
</linearGradient>
</defs>
</svg>
