<?xml version="1.0" encoding="utf-8"?>
<!-- Generator: Adobe Illustrator 23.0.6, SVG Export Plug-In . SVG Version: 6.00 Build 0)  -->
<svg version="1.1" id="Layer_1" xmlns="http://www.w3.org/2000/svg" xmlns:xlink="http://www.w3.org/1999/xlink" x="0px" y="0px"
	 viewBox="0 0 763 356.2" style="enable-background:new 0 0 763 356.2;" xml:space="preserve">
<style type="text/css">
	.st0{fill:#05294C;}
	.st1{fill:#253D7F;}
	.st2{fill:#1A53B7;}
	.st3{fill:#E8ECEE;}
	.st4{fill:#FBCA0A;}
	.st5{fill:#F05A28;}
	.st6{fill:url(#SVGID_1_);}
	.st7{fill:url(#SVGID_2_);}
</style>
<rect id="Rectangle_197" class="st0" width="763" height="356"/>
<path class="st1" d="M763,312.8c-9.9-7.2-19.2-15.2-27.8-23.8c-76.7-76.7-91.7-195.7-36.4-289h-3.5
	c-54.9,94.4-39.4,213.9,37.7,291.1c9.3,9.3,19.3,17.8,30,25.5V312.8z"/>
<path class="st2" d="M763,65.6c-51.1-4.4-101.3-16.8-148.7-36.9c-19.6-8.3-38.7-17.9-57.1-28.7h-5.9c19.9,11.9,40.5,22.4,61.8,31.4
	c47.8,20.2,98.4,32.7,149.9,37.1V65.6L763,65.6z"/>
<polygon class="st3" points="-70.6,230.7 -72.7,232.9 50.4,356 54.7,356 "/>
<path class="st4" d="M622.3,77.2c-3.9,0-7-3.1-7-7s3.1-7,7-7s7,3.1,7,7S626.1,77.2,622.3,77.2z"/>
<rect x="51" y="292" class="st5" width="15" height="15"/>
<path class="st1" d="M707.8,302c-1.4,0-2.5-1.1-2.5-2.4c0-1.4,1.1-2.5,2.4-2.5c1.4,0,2.5,1.1,2.5,2.4l0,0
	C710.2,300.9,709.1,302,707.8,302z"/>
<path class="st1" d="M697.7,312.1c-1.4,0-2.5-1.1-2.5-2.5s1.1-2.5,2.5-2.5s2.5,1.1,2.5,2.5l0,0C700.2,311,699.1,312.1,697.7,312.1
	L697.7,312.1z"/>
<path class="st1" d="M687.7,322.1c-1.4,0-2.5-1.1-2.5-2.5s1.1-2.5,2.5-2.5s2.5,1.1,2.5,2.5l0,0C690.1,321,689,322.1,687.7,322.1z"/>
<polygon class="st1" points="0,301.4 0,305.6 50.4,356 54.6,356 "/>
<path class="st2" d="M665.7,121.1c0-44.3,12.1-85.7,33.2-121.1h-3.4c-20.8,35.6-32.7,76.9-32.7,121.1c0,80.5,39.5,151.7,100.3,195.4
	v-3.7C704,269.6,665.7,199.8,665.7,121.1z"/>
<g>
	
		<linearGradient id="SVGID_1_" gradientUnits="userSpaceOnUse" x1="644.5" y1="739.35" x2="763" y2="739.35" gradientTransform="matrix(1 0 0 1 0 -500)">
		<stop  offset="0" style="stop-color:#213368"/>
		<stop  offset="0.24" style="stop-color:#172C5B"/>
		<stop  offset="0.69" style="stop-color:#072247"/>
		<stop  offset="1" style="stop-color:#021E40"/>
	</linearGradient>
	<path class="st6" d="M763,171.3L648.2,286.1c-2.3,2.3-3.7,5.5-3.7,8.8c0,6.9,5.6,12.5,12.5,12.5c3.3,0,6.5-1.3,8.8-3.7l97.2-97.2
		V171.3z"/>
	
		<linearGradient id="SVGID_2_" gradientUnits="userSpaceOnUse" x1="644.5" y1="275" x2="669.5" y2="275" gradientTransform="matrix(1 0 0 -1 0 570)">
		<stop  offset="0" style="stop-color:#FADE2A"/>
		<stop  offset="1" style="stop-color:#00E5B9"/>
	</linearGradient>
	<path class="st7" d="M657,307.5c-6.9,0-12.5-5.6-12.5-12.5s5.6-12.5,12.5-12.5s12.5,5.6,12.5,12.5l0,0
		C669.5,301.9,663.9,307.5,657,307.5z"/>
</g>
</svg>
