<?xml version="1.0" encoding="utf-8"?>
<!-- Generator: Adobe Illustrator 24.2.0, SVG Export Plug-In . SVG Version: 6.00 Build 0)  -->
<svg version="1.1" xmlns="http://www.w3.org/2000/svg" xmlns:xlink="http://www.w3.org/1999/xlink" x="0px" y="0px"
	 viewBox="0 0 2000 145" style="enable-background:new 0 0 2000 145;" xml:space="preserve">
<style type="text/css">
	.st0{fill:#1252AF;}
	.st1{opacity:0.3;fill:#0A2767;}
	.st2{opacity:0.3;}
	.st3{opacity:0.6;}
	.st4{fill:url(#SVGID_1_);}
	.st5{fill:url(#SVGID_2_);}
	.st6{fill:url(#SVGID_3_);}
	.st7{fill:url(#SVGID_4_);}
	.st8{fill:url(#SVGID_5_);}
	.st9{fill:url(#SVGID_6_);}
	.st10{fill:url(#SVGID_7_);}
	.st11{fill:url(#SVGID_8_);}
	.st12{fill:none;stroke:#0A2767;stroke-width:3;stroke-miterlimit:10;}
	.st13{opacity:0.25;fill:#0A2767;}
</style>
<g id="background">
	<rect x="-2.4" y="-2.7" class="st0" width="2005.6" height="148.1"/>
	<path class="st1" d="M1401.5,29v13.8h13.8V29H1401.5z M1387.8,56.6h13.8V42.8h-13.8V56.6z"/>
	<polygon class="st1" points="673.2,120.4 648.4,120.4 673.2,95.6 	"/>
</g>
<g id="Layer_1">
	<g class="st2">
		<g class="st3">
			<linearGradient id="SVGID_1_" gradientUnits="userSpaceOnUse" x1="1336.2759" y1="94.1396" x2="1336.2759" y2="143.6337">
				<stop  offset="0" style="stop-color:#0A2767"/>
				<stop  offset="0.9972" style="stop-color:#153FA7;stop-opacity:0"/>
			</linearGradient>
			<rect x="1296.5" y="93.4" class="st4" width="79.6" height="49.3"/>
			<linearGradient id="SVGID_2_" gradientUnits="userSpaceOnUse" x1="1244.5027" y1="82.6811" x2="1244.5027" y2="143.8411">
				<stop  offset="0" style="stop-color:#0A2767"/>
				<stop  offset="0.9972" style="stop-color:#153FA7;stop-opacity:0"/>
			</linearGradient>
			<rect x="1204.7" y="81.8" class="st5" width="79.6" height="60.9"/>
			<linearGradient id="SVGID_3_" gradientUnits="userSpaceOnUse" x1="1154.5753" y1="38.961" x2="1154.5753" y2="145.9193">
				<stop  offset="0" style="stop-color:#0A2767"/>
				<stop  offset="0.9972" style="stop-color:#153FA7;stop-opacity:0"/>
			</linearGradient>
			<rect x="1114.8" y="37.5" class="st6" width="79.6" height="106.6"/>
			<linearGradient id="SVGID_4_" gradientUnits="userSpaceOnUse" x1="1065.4393" y1="64.3755" x2="1065.4393" y2="144.1723">
				<stop  offset="0" style="stop-color:#0A2767"/>
				<stop  offset="0.9972" style="stop-color:#153FA7;stop-opacity:0"/>
			</linearGradient>
			<rect x="1025.6" y="63.3" class="st7" width="79.6" height="79.5"/>
			<linearGradient id="SVGID_5_" gradientUnits="userSpaceOnUse" x1="976.3032" y1="125.1613" x2="976.3032" y2="143.0724">
				<stop  offset="0" style="stop-color:#0A2767"/>
				<stop  offset="0.9972" style="stop-color:#153FA7;stop-opacity:0"/>
			</linearGradient>
			<rect x="936.5" y="124.9" class="st8" width="79.6" height="17.8"/>
			<linearGradient id="SVGID_6_" gradientUnits="userSpaceOnUse" x1="886.6396" y1="78.7684" x2="886.6396" y2="143.9118">
				<stop  offset="0" style="stop-color:#0A2767"/>
				<stop  offset="0.9972" style="stop-color:#153FA7;stop-opacity:0"/>
			</linearGradient>
			<rect x="846.8" y="77.9" class="st9" width="79.6" height="64.9"/>
			<linearGradient id="SVGID_7_" gradientUnits="userSpaceOnUse" x1="796.1849" y1="60.4806" x2="796.1849" y2="145.5299">
				<stop  offset="0" style="stop-color:#0A2767"/>
				<stop  offset="0.9972" style="stop-color:#153FA7;stop-opacity:0"/>
			</linearGradient>
			<rect x="756.4" y="59.3" class="st10" width="79.6" height="84.7"/>
			<linearGradient id="SVGID_8_" gradientUnits="userSpaceOnUse" x1="706.5214" y1="70.6815" x2="706.5214" y2="145.3453">
				<stop  offset="0" style="stop-color:#0A2767"/>
				<stop  offset="0.9972" style="stop-color:#153FA7;stop-opacity:0"/>
			</linearGradient>
			<rect x="666.7" y="69.6" class="st11" width="79.6" height="74.4"/>
		</g>
		<g>
			<line class="st12" x1="1296.5" y1="93.4" x2="1376.1" y2="93.4"/>
			<line class="st12" x1="1204.7" y1="81.8" x2="1284.3" y2="81.8"/>
			<line class="st12" x1="1114.8" y1="37.5" x2="1194.4" y2="37.5"/>
			<line class="st12" x1="1025.6" y1="63.3" x2="1105.2" y2="63.3"/>
			<line class="st12" x1="936.5" y1="124.9" x2="1016.1" y2="124.9"/>
			<line class="st12" x1="846.8" y1="77.9" x2="926.4" y2="77.9"/>
			<line class="st12" x1="756.4" y1="59.3" x2="836" y2="59.3"/>
			<line class="st12" x1="666.7" y1="69.6" x2="746.3" y2="69.6"/>
		</g>
	</g>
	<path class="st1" d="M288,62.2V59c0-4.5-3.6-8.1-8.1-8.1s-8.1,3.6-8.1,8.1v3.2c-2.7,0-4.8,2.2-4.8,4.8v11.3c0,2.7,2.2,4.8,4.8,4.8
		H288c2.7,0,4.8-2.2,4.8-4.8V67.1C292.8,64.4,290.7,62.2,288,62.2z M275.1,59c0-2.7,2.2-4.8,4.8-4.8s4.8,2.2,4.8,4.8v3.2h-9.7V59z
		 M289.6,78.4c0,0.9-0.7,1.6-1.6,1.6h-16.1c-0.9,0-1.6-0.7-1.6-1.6V67.1c0-0.9,0.7-1.6,1.6-1.6H288c0.9,0,1.6,0.7,1.6,1.6V78.4z"/>
	<path class="st1" d="M1720.3,62.5l-6.5,6.5l-2.5-2.5c-0.5-0.6-1.5-0.7-2.1-0.2c-0.6,0.5-0.7,1.5-0.2,2.1c0.1,0.1,0.1,0.1,0.2,0.2
		l3.6,3.6c0.3,0.3,0.7,0.4,1.1,0.4c0.4,0,0.8-0.2,1.1-0.4l7.6-7.6c0.6-0.6,0.6-1.6,0-2.1c0,0,0,0,0,0
		C1721.9,61.9,1720.9,61.9,1720.3,62.5z M1716.2,52.1c-8.4,0-15.2,6.8-15.2,15.2s6.8,15.2,15.2,15.2s15.2-6.8,15.2-15.2
		S1724.6,52.1,1716.2,52.1z M1716.2,79.5c-6.7,0-12.1-5.4-12.1-12.1s5.4-12.1,12.1-12.1c6.7,0,12.1,5.4,12.1,12.1
		S1722.9,79.5,1716.2,79.5z"/>
	<path class="st13" d="M538.4,66.3c-1.1,0-2,0.9-2,2s0.9,2,2,2s2-0.9,2-2C540.4,67.2,539.5,66.3,538.4,66.3z M530.7,131.5
		c-1.1-0.3-2.1,0.4-2.4,1.4c-0.3,1.1,0.4,2.1,1.4,2.4c0.2,0,0.3,0.1,0.5,0.1c0.9,0,1.7-0.6,1.9-1.5
		C532.4,132.8,531.7,131.8,530.7,131.5z M531.8,19.6L531.8,19.6c0.2,1,1,1.6,2,1.6c0.1,0,0.2,0,0.4,0c1.1-0.2,1.8-1.2,1.6-2.3
		c-0.2-1.1-1.2-1.8-2.3-1.6S531.5,18.5,531.8,19.6z M535.9,51.9c0.1,1.1,0.9,1.9,2,1.9h0.1c1.1-0.1,1.9-1,1.8-2.1
		c-0.1-1.1-1-1.9-2.1-1.9C536.7,49.9,535.9,50.9,535.9,51.9z M534.2,115.4c-1.1-0.2-2.1,0.5-2.3,1.6c-0.2,1.1,0.5,2.1,1.6,2.3
		c0.1,0,0.2,0,0.4,0c0.9,0,1.8-0.7,1.9-1.6c0,0,0,0,0,0C536,116.6,535.3,115.6,534.2,115.4z M534.4,35.7c0.1,1,1,1.7,2,1.7
		c0.1,0,0.2,0,0.2,0c1.1-0.1,1.8-1.1,1.7-2.2c0,0,0,0,0,0c-0.1-1.1-1.1-1.9-2.2-1.7C535,33.6,534.2,34.6,534.4,35.7z M538.1,82.8
		c-1.1-0.1-2,0.8-2.1,1.8c-0.1,1.1,0.8,2,1.9,2.1h0.1c1,0,1.9-0.8,2-1.9c0,0,0,0,0,0C540,83.8,539.2,82.8,538.1,82.8z M29,101.8
		c-0.1-1.1-1.1-1.9-2.2-1.7c-1.1,0.1-1.9,1.1-1.7,2.2c0.1,1,1,1.7,2,1.7c0.1,0,0.2,0,0.3,0C28.4,103.8,29.1,102.8,29,101.8z
		 M31.6,117.9c-0.2-1.1-1.2-1.8-2.3-1.6s-1.8,1.2-1.6,2.3c0.2,0.9,1,1.6,1.9,1.6c0.1,0,0.2,0,0.4,0C31.1,120,31.8,118.9,31.6,117.9z
		 M25.6,87.6c1.1-0.1,1.9-1,1.8-2.1c-0.1-1.1-1-1.9-2.1-1.8c-1.1,0.1-1.9,1-1.8,2.1c0.1,1,0.9,1.8,2,1.8
		C25.5,87.6,25.5,87.6,25.6,87.6z M536.7,99.1c-1.1-0.1-2.1,0.6-2.2,1.7c-0.1,1.1,0.6,2.1,1.7,2.2c0.1,0,0.2,0,0.2,0
		c1,0,1.8-0.7,2-1.7C538.5,100.3,537.7,99.3,536.7,99.1z M26.7,37.7c0.1,0,0.2,0,0.2,0c1,0,1.8-0.7,2-1.7c0.1-1.1-0.6-2.1-1.7-2.2
		c-1.1-0.1-2.1,0.6-2.2,1.7C24.8,36.6,25.6,37.6,26.7,37.7z M29.2,21.4c0.1,0,0.2,0,0.4,0c0.9,0,1.8-0.7,1.9-1.6
		c0.2-1.1-0.5-2.1-1.6-2.3c-1.1-0.2-2.1,0.5-2.3,1.6C27.4,20.2,28.1,21.2,29.2,21.4z M32.7,5.4c0.2,0,0.3,0.1,0.5,0.1
		c0.9,0,1.7-0.6,1.9-1.5c0.3-1.1-0.4-2.1-1.4-2.4c-1.1-0.3-2.1,0.4-2.4,1.4C31,4,31.6,5.1,32.7,5.4z M32.8,132.4
		c-1.1,0.3-1.7,1.4-1.4,2.4c0.2,0.9,1,1.5,1.9,1.5c0.2,0,0.3,0,0.5-0.1c1.1-0.3,1.7-1.4,1.4-2.4C35,132.7,33.9,132.1,32.8,132.4z
		 M24.9,71.2c1.1,0,2-0.9,2-2c0-0.1,0-0.2,0-0.3c0-0.1,0-0.2,0-0.3c0-1.1-0.9-2-2-2c-1.1,0-2,0.9-2,2c0,0.1,0,0.2,0,0.3
		c0,0.1,0,0.2,0,0.3C22.9,70.3,23.8,71.2,24.9,71.2z M25.3,54.1h0.1c1,0,1.9-0.8,2-1.9c0.1-1.1-0.8-2-1.9-2.1
		c-1.1-0.1-2,0.8-2.1,1.9C23.3,53.1,24.2,54,25.3,54.1z M352.6-2.7c18.7,18.5,30.3,44.1,30.3,72.3c0,30-13.1,57.1-33.9,75.7h3.9
		c20.1-19,32.6-45.9,32.6-75.7c0-28.1-11.1-53.6-29.2-72.3H352.6z M530,5.1c0.2,0,0.3,0,0.5-0.1c1.1-0.3,1.7-1.4,1.4-2.4
		c-0.3-1.1-1.4-1.7-2.4-1.4c-1.1,0.3-1.7,1.4-1.4,2.4C528.4,4.5,529.2,5.1,530,5.1z M465.8-2.7c8.8,22.4,13.7,46.8,13.7,72.3
		c0,26.8-5.4,52.4-15,75.7h2.8c9.5-23.4,14.8-48.9,14.8-75.7c0-25.5-4.8-49.9-13.5-72.3H465.8z M96.5-2.7h-2.8
		C85,19.8,80.2,44.2,80.2,69.7c0,26.8,5.3,52.3,14.8,75.7h2.8c-9.7-23.3-15-48.9-15-75.7C82.9,44.2,87.7,19.7,96.5-2.7z M179.5,69.7
		c0-28.3,11.6-53.9,30.3-72.3h-3.7c-18.1,18.8-29.2,44.3-29.2,72.3c0,29.8,12.6,56.7,32.6,75.7h3.9
		C192.6,126.8,179.5,99.7,179.5,69.7z"/>
	<path class="st13" d="M1976.1,66.3c-1.1,0-2,0.9-2,2s0.9,2,2,2s2-0.9,2-2C1978.1,67.2,1977.2,66.3,1976.1,66.3z M1968.4,131.5
		c-1.1-0.3-2.1,0.4-2.4,1.4c-0.3,1.1,0.4,2.1,1.4,2.4c0.2,0,0.3,0.1,0.5,0.1c0.9,0,1.7-0.6,1.9-1.5
		C1970.1,132.8,1969.4,131.8,1968.4,131.5z M1969.4,19.6L1969.4,19.6c0.2,1,1,1.6,2,1.6c0.1,0,0.2,0,0.4,0c1.1-0.2,1.8-1.2,1.6-2.3
		c-0.2-1.1-1.2-1.8-2.3-1.6S1969.2,18.5,1969.4,19.6z M1973.6,51.9c0.1,1.1,0.9,1.9,2,1.9h0.1c1.1-0.1,1.9-1,1.8-2.1
		c-0.1-1.1-1-1.9-2.1-1.9C1974.4,49.9,1973.5,50.9,1973.6,51.9z M1971.9,115.4c-1.1-0.2-2.1,0.5-2.3,1.6c-0.2,1.1,0.5,2.1,1.6,2.3
		c0.1,0,0.2,0,0.4,0c0.9,0,1.8-0.7,1.9-1.6c0,0,0,0,0,0C1973.6,116.6,1972.9,115.6,1971.9,115.4z M1972,35.7c0.1,1,1,1.7,2,1.7
		c0.1,0,0.2,0,0.2,0c1.1-0.1,1.8-1.1,1.7-2.2c0,0,0,0,0,0c-0.1-1.1-1.1-1.9-2.2-1.7C1972.7,33.6,1971.9,34.6,1972,35.7z
		 M1975.7,82.8c-1.1-0.1-2,0.8-2.1,1.8c-0.1,1.1,0.8,2,1.9,2.1h0.1c1,0,1.9-0.8,2-1.9c0,0,0,0,0,0
		C1977.7,83.8,1976.8,82.8,1975.7,82.8z M1466.7,101.8c-0.1-1.1-1.1-1.9-2.2-1.7c-1.1,0.1-1.9,1.1-1.7,2.2c0.1,1,1,1.7,2,1.7
		c0.1,0,0.2,0,0.3,0C1466,103.8,1466.8,102.8,1466.7,101.8z M1469.3,117.9c-0.2-1.1-1.2-1.8-2.3-1.6s-1.8,1.2-1.6,2.3
		c0.2,0.9,1,1.6,1.9,1.6c0.1,0,0.2,0,0.4,0C1468.8,120,1469.5,118.9,1469.3,117.9z M1463.2,87.6c1.1-0.1,1.9-1,1.8-2.1
		c-0.1-1.1-1-1.9-2.1-1.8c-1.1,0.1-1.9,1-1.8,2.1c0.1,1,0.9,1.8,2,1.8C1463.1,87.6,1463.2,87.6,1463.2,87.6z M1974.3,99.1
		c-1.1-0.1-2.1,0.6-2.2,1.7c-0.1,1.1,0.6,2.1,1.7,2.2c0.1,0,0.2,0,0.2,0c1,0,1.8-0.7,2-1.7C1976.2,100.3,1975.4,99.3,1974.3,99.1z
		 M1464.4,37.7c0.1,0,0.2,0,0.2,0c1,0,1.8-0.7,2-1.7c0.1-1.1-0.6-2.1-1.7-2.2c-1.1-0.1-2.1,0.6-2.2,1.7
		C1462.5,36.6,1463.3,37.6,1464.4,37.7z M1466.9,21.4c0.1,0,0.2,0,0.4,0c0.9,0,1.8-0.7,1.9-1.6c0.2-1.1-0.5-2.1-1.6-2.3
		c-1.1-0.2-2.1,0.5-2.3,1.6C1465.1,20.2,1465.8,21.2,1466.9,21.4z M1470.4,5.4c0.2,0,0.3,0.1,0.5,0.1c0.9,0,1.7-0.6,1.9-1.5
		c0.3-1.1-0.4-2.1-1.4-2.4c-1.1-0.3-2.1,0.4-2.4,1.4C1468.7,4,1469.3,5.1,1470.4,5.4z M1470.5,132.4c-1.1,0.3-1.7,1.4-1.4,2.4
		c0.2,0.9,1,1.5,1.9,1.5c0.2,0,0.3,0,0.5-0.1c1.1-0.3,1.7-1.4,1.4-2.4C1472.7,132.7,1471.6,132.1,1470.5,132.4z M1462.6,71.2
		c1.1,0,2-0.9,2-2c0-0.1,0-0.2,0-0.3c0-0.1,0-0.2,0-0.3c0-1.1-0.9-2-2-2c-1.1,0-2,0.9-2,2c0,0.1,0,0.2,0,0.3c0,0.1,0,0.2,0,0.3
		C1460.6,70.3,1461.5,71.2,1462.6,71.2z M1462.9,54.1h0.1c1,0,1.9-0.8,2-1.9c0.1-1.1-0.8-2-1.9-2.1c-1.1-0.1-2,0.8-2.1,1.9
		C1461,53.1,1461.8,54,1462.9,54.1z M1790.2-2.7c18.7,18.5,30.3,44.1,30.3,72.3c0,30-13.1,57.1-33.9,75.7h3.9
		c20.1-19,32.6-45.9,32.6-75.7c0-28.1-11.1-53.6-29.2-72.3H1790.2z M1967.7,5.1c0.2,0,0.3,0,0.5-0.1c1.1-0.3,1.7-1.4,1.4-2.4
		c-0.3-1.1-1.4-1.7-2.4-1.4c-1.1,0.3-1.7,1.4-1.4,2.4C1966,4.5,1966.8,5.1,1967.7,5.1z M1903.5-2.7c8.8,22.4,13.7,46.8,13.7,72.3
		c0,26.8-5.4,52.4-15,75.7h2.8c9.5-23.4,14.8-48.9,14.8-75.7c0-25.5-4.8-49.9-13.5-72.3H1903.5z M1534.2-2.7h-2.8
		c-8.7,22.5-13.5,46.9-13.5,72.3c0,26.8,5.3,52.3,14.8,75.7h2.8c-9.7-23.3-15-48.9-15-75.7C1520.6,44.2,1525.4,19.7,1534.2-2.7z
		 M1617.2,69.7c0-28.3,11.6-53.9,30.3-72.3h-3.7c-18.1,18.8-29.2,44.3-29.2,72.3c0,29.8,12.6,56.7,32.6,75.7h3.9
		C1630.3,126.8,1617.2,99.7,1617.2,69.7z"/>
</g>
</svg>
