<?xml version="1.0" encoding="utf-8"?>
<!-- Generator: Adobe Illustrator 23.0.6, SVG Export Plug-In . SVG Version: 6.00 Build 0)  -->
<svg version="1.1" id="Layer_1" xmlns="http://www.w3.org/2000/svg" xmlns:xlink="http://www.w3.org/1999/xlink" x="0px" y="0px"
	 viewBox="0 0 1157 712" style="enable-background:new 0 0 1157 712;" xml:space="preserve">
<style type="text/css">
	.st0{fill:#F0F3F5;}
	.st1{fill:#FCEE21;}
	.st2{fill:#D9E021;}
	.st3{fill:#8CC63F;}
	.st4{fill:#FFFFFF;}
	.st5{fill:#3FA9F5;}
	.st6{fill:#E8ECEE;}
	.st7{fill:#05294C;}
	.st8{fill:#253D7F;}
	.st9{fill:#1A53B7;}
	.st10{fill:none;stroke:#E8ECEE;stroke-width:3;stroke-miterlimit:10;}
	.st11{fill:none;stroke:#E8ECEE;stroke-width:7;stroke-linecap:round;stroke-linejoin:round;stroke-dasharray:0,40;}
	.st12{fill:none;stroke:url(#SVGID_1_);stroke-width:25;stroke-linecap:round;stroke-linejoin:round;}
	.st13{fill:#FFFFFF;stroke:url(#SVGID_2_);stroke-width:3;stroke-miterlimit:10;}
	.st14{fill:none;stroke:url(#SVGID_3_);stroke-width:25;stroke-linecap:round;stroke-linejoin:round;}
	.st15{fill:#FBCA0A;}
	.st16{fill:#FFFFFF;stroke:#8AB8FF;stroke-width:3;stroke-miterlimit:10;}
	.st17{fill:#FFFFFF;stroke:#E8ECEE;stroke-width:3;stroke-miterlimit:10;}
	.st18{fill:url(#SVGID_4_);}
	.st19{fill:#FF9830;}
	.st20{fill:#00E5B9;}
	.st21{fill:#F05A28;}
	.st22{fill:url(#SVGID_5_);}
	.st23{fill:url(#SVGID_6_);}
</style>
<path class="st0" d="M1508.4,0c-0.3,0.2-0.6,0.4-0.9,0.6l7,10.3l-7.1-10.3c-53,36.5-112.9,61.9-176,74.7
	c-60.9,12.4-123.6,12.9-184.6,1.3c-61.1-11.3-119.4-34.4-171.6-68c-4.4-2.8-8.7-5.7-13-8.7h-42c13.3,10.6,27.2,20.5,41.6,29.7
	c55,35.3,116.3,59.6,180.5,71.5c30.9,5.8,62.2,8.7,93.6,8.7c33.8,0,67.4-3.4,100.5-10.2c66.4-13.5,129.4-40.2,185.2-78.6
	c9.9-6.7,19.5-13.8,28.9-21.2h-42.1V0z"/>
<path class="st1" d="M1920,37.5c-2.5,0.2-5.2,0.2-8,0.2c-27.3,0-41-7.8-54.4-15.5c-12.8-7.3-26-14.7-51.2-15.2v0c0,0-1,0-1.4,0
	s-1.5,0-1.5,0c-25.2,0.5-38.4,8-51.2,15.2c-13.4,7.6-27.2,15.5-54.4,15.5s-41.1-7.7-54.5-15.4c-13.2-7.5-26.9-15.3-53.8-15.3
	s-40.5,7.8-53.8,15.3c-13.4,7.6-27.2,15.5-54.5,15.5s-41.1-7.8-54.4-15.5C1413.7,14.8,1400,7,1373.1,7s-40.5,7.8-53.8,15.3
	c-13.4,7.6-27.2,15.5-54.4,15.5s-41.1-7.8-54.5-15.5c-13-7.5-26.7-15.3-53.5-15.3v87.6c26.9,0,40.5,7.8,53.8,15.3
	c13.4,7.6,27.2,15.5,54.5,15.5s41.1-7.8,54.5-15.5c13.2-7.5,26.9-15.3,53.8-15.3s40.5,7.8,53.8,15.3c13.4,7.6,27.2,15.5,54.5,15.5
	s41.1-7.8,54.4-15.5s26.9-15.3,53.8-15.3s40.5,7.8,53.8,15.3c13.4,7.6,27.2,15.5,54.5,15.5s41.1-7.8,54.5-15.5
	c13-7.4,26.4-15,52.5-15.3c26,0.2,39.5,7.9,52.5,15.3c13.4,7.6,27.2,15.5,54.5,15.5c2.8,0,5.5-0.1,8-0.2V37.5H1920z"/>
<path class="st2" d="M1920,125.1c-2.5,0.2-5.2,0.2-8,0.2c-27.2,0-41.1-7.8-54.5-15.5c-12.8-7.3-26-14.7-51.2-15.2
	c-0.4,0-0.9,0-1.3,0s-0.8,0-1.3,0c-25.2,0.5-38.4,8-51.2,15.2c-13.4,7.6-27.2,15.5-54.5,15.5s-41.1-7.8-54.5-15.5
	c-13.2-7.5-26.9-15.3-53.8-15.3s-40.5,7.8-53.8,15.3c-13.4,7.6-27.2,15.5-54.5,15.5s-41.1-7.8-54.5-15.5
	c-13.2-7.5-26.9-15.3-53.8-15.3s-40.4,7.8-53.6,15.3s-27.2,15.5-54.4,15.5s-41.1-7.8-54.5-15.5c-13.2-7.5-26.9-15.3-53.7-15.3v87.6
	c26.9,0,40.5,7.8,53.8,15.3c13.4,7.6,27.2,15.5,54.5,15.5s41.1-7.8,54.4-15.5c13.2-7.5,26.9-15.3,53.8-15.3s40.5,7.8,53.8,15.3
	s27.1,15.5,54.4,15.5s41.1-7.8,54.5-15.5c13.2-7.5,26.9-15.3,53.8-15.3s40.5,7.8,53.8,15.3c13.4,7.6,27.2,15.5,54.5,15.5
	s41.1-7.8,54.4-15.5c13-7.4,26.4-15,52.5-15.3c26,0.2,39.5,7.9,52.5,15.3c13.4,7.6,27.2,15.5,54.5,15.5c2.8,0,5.4-0.1,7.9-0.2
	L1920,125.1L1920,125.1z"/>
<path class="st3" d="M1920,212.8c-2.5,0.2-5.2,0.2-8,0.2c-27.2,0-41.1-7.8-54.5-15.5c-12.8-7.3-26-14.7-51.2-15.2
	c-0.4,0-0.9,0-1.3,0s-0.8,0-1.3,0c-25.2,0.5-38.4,8-51.2,15.2c-13.4,7.6-27.2,15.5-54.5,15.5s-41.1-7.8-54.5-15.5
	c-13.2-7.5-26.9-15.3-53.8-15.3s-40.5,7.8-53.8,15.3c-13.4,7.6-27.2,15.5-54.5,15.5s-41.1-7.8-54.5-15.5
	c-13.2-7.5-26.9-15.3-53.8-15.3s-40.5,7.8-53.8,15.3c-13.4,7.6-27.2,15.5-54.5,15.5s-41.1-7.8-54.5-15.5
	c-13-7.5-26.7-15.3-53.6-15.3v87.6c26.9,0,40.5,7.8,53.8,15.3c13.4,7.6,27.2,15.5,54.5,15.5s41.1-7.9,54.4-15.5
	c13.2-7.5,26.9-15.3,53.8-15.3s40.5,7.8,53.8,15.3c13.4,7.6,27.2,15.5,54.5,15.5s41.1-7.9,54.5-15.5c13.2-7.5,26.9-15.3,53.8-15.3
	s40.5,7.8,53.8,15.3c13.4,7.6,27.2,15.5,54.5,15.5s41.1-7.9,54.5-15.5c13-7.4,26.4-15,52.5-15.3c26,0.2,39.5,7.9,52.5,15.3
	c13.4,7.6,27.2,15.5,54.5,15.5c2.7,0,5.3-0.1,7.8-0.2L1920,212.8L1920,212.8z"/>
<path class="st5" d="M1920,299.7c-2.5,0.2-5.2,0.2-8,0.2c-27.2,0-41.1-7.9-54.5-15.5c-12.8-7.3-26-14.8-51.2-15.2
	c-0.4,0-0.9,0-1.3,0s-0.8,0-1.3,0c-25.2,0.5-38.4,8-51.2,15.2c-13.4,7.6-27.2,15.5-54.5,15.5s-41.1-7.9-54.5-15.5
	c-13.2-7.5-26.9-15.3-53.8-15.3s-40.5,7.8-53.8,15.3c-13.4,7.6-27.2,15.5-54.5,15.5s-41.1-7.9-54.5-15.5
	c-13.2-7.5-26.9-15.3-53.8-15.3s-40.4,7.8-53.6,15.3s-27.2,15.5-54.4,15.5s-41.1-7.9-54.5-15.5c-13.2-7.5-26.9-15.3-53.7-15.3v87.6
	c26.9,0,40.5,7.8,53.8,15.3c13.4,7.6,27.2,15.5,54.5,15.5s41.1-7.8,54.4-15.5c13.2-7.5,26.9-15.3,53.8-15.3s40.5,7.8,53.8,15.3
	c13.4,7.6,27.2,15.5,54.5,15.5s41.1-7.8,54.5-15.5c13.2-7.5,26.9-15.3,53.8-15.3s40.5,7.8,53.8,15.3c13.4,7.6,27.2,15.5,54.5,15.5
	s41.1-7.8,54.5-15.5c13-7.4,26.4-15,52.5-15.3c26,0.2,39.5,7.9,52.5,15.3c13.4,7.6,27.2,15.5,54.5,15.5c2.7,0,5.3-0.1,7.8-0.2v-87.6
	H1920z"/>
<polygon class="st6" points="1214.2,0 981.6,232.6 984.4,235.4 1219.8,0 "/>
<path class="st1" d="M1156.9,16.6c26.9,0,40.5,7.8,53.8,15.3c13.4,7.6,27.2,15.5,54.5,15.5s41.1-7.8,54.5-15.5
	c13.2-7.5,26.9-15.3,53.8-15.3s40.5,7.8,53.8,15.3c13.4,7.6,27.2,15.5,54.5,15.5s41.1-7.8,54.4-15.5s26.9-15.3,53.8-15.3
	s40.5,7.8,53.8,15.3c13.4,7.6,27.2,15.5,54.5,15.5s41.1-7.8,54.5-15.5c13-7.4,26.4-15,52.5-15.3c26,0.2,39.5,7.9,52.5,15.3
	c13.4,7.6,27.2,15.5,54.5,15.5c2.8,0,5.5-0.1,8-0.2V0h-763.1v16.6H1156.9z"/>
<polygon class="st6" points="1086.4,586.7 1084.3,588.9 1207.4,712 1211.7,712 "/>
<circle class="st10" cx="66.6" cy="879.9" r="271.4"/>
<circle class="st10" cx="66.5" cy="879.9" r="486.5"/>
<circle class="st10" cx="66.5" cy="879.9" r="748.4"/>
<circle class="st11" cx="66.5" cy="879.9" r="584.9"/>
<linearGradient id="SVGID_1_" gradientUnits="userSpaceOnUse" x1="-136" y1="359.5" x2="207" y2="359.5" gradientTransform="matrix(1 0 0 1 0 212)">
	<stop  offset="0.16" style="stop-color:#FFFFFF;stop-opacity:0"/>
	<stop  offset="1" style="stop-color:#E8ECEE"/>
</linearGradient>
<line class="st12" x1="194.5" y1="412.5" x2="-123.5" y2="730.5"/>
<linearGradient id="SVGID_2_" gradientUnits="userSpaceOnUse" x1="170.5" y1="200.5" x2="218.5" y2="200.5" gradientTransform="matrix(1 0 0 1 0 212)">
	<stop  offset="0" style="stop-color:#FADE2A"/>
	<stop  offset="1" style="stop-color:#F05A28"/>
</linearGradient>
<path class="st13" d="M194.5,390c12.4,0,22.5,10.1,22.5,22.5S206.9,435,194.5,435S172,424.9,172,412.5l0,0
	C172,400.1,182.1,390,194.5,390z"/>
<linearGradient id="SVGID_3_" gradientUnits="userSpaceOnUse" x1="-162" y1="573.5" x2="181" y2="573.5" gradientTransform="matrix(1 0 0 1 0 212)">
	<stop  offset="0.16" style="stop-color:#FFFFFF;stop-opacity:0"/>
	<stop  offset="1" style="stop-color:#E8ECEE"/>
</linearGradient>
<line class="st14" x1="168.5" y1="626.5" x2="-149.5" y2="944.5"/>
<path class="st15" d="M168.5,614c6.9,0,12.5,5.6,12.5,12.5s-5.6,12.5-12.5,12.5s-12.5-5.6-12.5-12.5l0,0
	C156,619.6,161.6,614,168.5,614z"/>
<line class="st10" x1="850.8" y1="95.2" x2="989.5" y2="234"/>
<path class="st16" d="M985,242.5c-6.9,0-12.5-5.6-12.5-12.5s5.6-12.5,12.5-12.5s12.5,5.6,12.5,12.5l0,0
	C997.5,236.9,991.9,242.5,985,242.5z"/>
<line class="st10" x1="850.8" y1="95.2" x2="512" y2="95.2"/>
<circle class="st17" cx="512" cy="96" r="40"/>
<linearGradient id="SVGID_4_" gradientUnits="userSpaceOnUse" x1="499.5" y1="-116" x2="524.5" y2="-116" gradientTransform="matrix(1 0 0 1 0 212)">
	<stop  offset="0" style="stop-color:#FADE2A"/>
	<stop  offset="1" style="stop-color:#00E5B9"/>
</linearGradient>
<path class="st18" d="M505.9,108.5h-6.4V95h6.4V108.5z M515.2,89.2h-6.4v19.3h6.4V89.2z M524.5,83.5h-6.4v25h6.4V83.5z"/>
<path class="st6" d="M850.3,83.7c-6.9,0-12.5,5.6-12.5,12.5s5.6,12.5,12.5,12.5s12.5-5.6,12.5-12.5l0,0
	C862.7,89.3,857.2,83.7,850.3,83.7z M850.3,101.9c-3.1,0-5.7-2.5-5.7-5.7s2.5-5.7,5.7-5.7c3.1,0,5.7,2.5,5.7,5.7l0,0
	C855.9,99.3,853.4,101.9,850.3,101.9z"/>
<circle class="st4" cx="850.3" cy="96.2" r="5.7"/>
<path class="st19" d="M96.7,59c-1.4,0-2.5-1.1-2.5-2.5s1.1-2.5,2.5-2.5s2.5,1.1,2.5,2.5l0,0C99.2,57.9,98.1,59,96.7,59z"/>
<path class="st19" d="M106.8,59c-1.4,0-2.5-1.1-2.5-2.4c0-1.4,1.1-2.5,2.4-2.5c1.4,0,2.5,1.1,2.5,2.4l0,0
	C109.2,57.9,108.1,59,106.8,59z"/>
<path class="st19" d="M86.7,69.1c-1.4,0-2.5-1.1-2.5-2.5s1.1-2.5,2.5-2.5s2.5,1.1,2.5,2.5l0,0C89.1,68,88,69.1,86.7,69.1z"/>
<path class="st19" d="M96.7,69.1c-1.4,0-2.5-1.1-2.5-2.5s1.1-2.5,2.5-2.5s2.5,1.1,2.5,2.5l0,0C99.2,68,98.1,69.1,96.7,69.1
	L96.7,69.1z"/>
<path class="st19" d="M106.8,69.1c-1.4,0-2.5-1.1-2.5-2.4s1.1-2.5,2.4-2.5s2.5,1.1,2.5,2.4l0,0C109.2,68,108.1,69.1,106.8,69.1z"/>
<path class="st19" d="M86.7,79.1c-1.4,0-2.5-1.1-2.5-2.5s1.1-2.5,2.5-2.5s2.5,1.1,2.5,2.5l0,0C89.1,78,88,79.1,86.7,79.1z"/>
<path class="st19" d="M96.7,79.1c-1.4,0-2.5-1.1-2.5-2.5s1.1-2.5,2.5-2.5s2.5,1.1,2.5,2.5l0,0C99.2,78,98.1,79.1,96.7,79.1z"/>
<path class="st6" d="M433.7,620.6c-3.9,0-7-3.1-7-7s3.1-7,7-7s7,3.1,7,7S437.6,620.6,433.7,620.6z"/>
<path class="st6" d="M582.7,43.6c-3.9,0-7-3.1-7-7s3.1-7,7-7s7,3.1,7,7S586.6,43.6,582.7,43.6z"/>
<rect x="705" y="651" class="st6" width="15" height="15"/>
<path class="st6" d="M1119.8,151c-1.4,0-2.5-1.1-2.5-2.4c0-1.4,1.1-2.5,2.4-2.5c1.4,0,2.5,1.1,2.5,2.4l0,0
	C1122.2,149.9,1121.1,151,1119.8,151z"/>
<path class="st6" d="M1109.7,161.1c-1.4,0-2.5-1.1-2.5-2.5s1.1-2.5,2.5-2.5s2.5,1.1,2.5,2.5l0,0
	C1112.2,160,1111.1,161.1,1109.7,161.1L1109.7,161.1z"/>
<path class="st6" d="M1099.7,171.1c-1.4,0-2.5-1.1-2.5-2.5s1.1-2.5,2.5-2.5s2.5,1.1,2.5,2.5l0,0C1102.1,170,1101,171.1,1099.7,171.1
	z"/>
<polygon class="st6" points="1122,213 1101,213 1122,192 "/>
<path class="st20" d="M68.2,353.6c-1.1,0-2-0.9-2-2c0-0.5,0.2-1,0.6-1.4l9.7-9.7c0.8-0.8,2-0.8,2.8,0l6.1,6.1l8.3-8.3
	c0.8-0.8,2-0.8,2.8,0s0.8,2,0,2.8l-9.7,9.7c-0.8,0.8-2,0.8-2.8,0l-6.2-6.1l-8.3,8.3C69.3,353.4,68.7,353.6,68.2,353.6z"/>
<circle class="st17" cx="1085.3" cy="588.2" r="40"/>
<path class="st6" d="M1085.3,575.7h12.5v12.5h-12.5V575.7z M1072.8,600.7h12.5v-12.5h-12.5V600.7z"/>
</svg>
