<svg width="800" height="224" viewBox="0 0 800 224" fill="none" xmlns="http://www.w3.org/2000/svg">
<rect width="800" height="224" fill="url(#paint0_linear)"/>
<rect width="8.00001" height="217" transform="matrix(-4.37114e-08 -1 -1 4.37114e-08 598 36)" fill="url(#paint1_linear)"/>
<circle r="3.99957" transform="matrix(-4.37114e-08 -1 -1 4.37114e-08 597.657 31.9997)" fill="#FFD273"/>
<rect width="8.00001" height="188" transform="matrix(-4.37114e-08 -1 -1 4.37114e-08 777 170)" fill="url(#paint2_linear)"/>
<circle r="3.99957" transform="matrix(-4.37114e-08 -1 -1 4.37114e-08 776.657 166)" fill="#FFCA61"/>
<rect width="8.00001" height="188" transform="matrix(-4.37114e-08 -1 -1 4.37114e-08 541 184)" fill="url(#paint3_linear)"/>
<circle r="3.99957" transform="matrix(-4.37114e-08 -1 -1 4.37114e-08 540.657 180)" fill="#FFCA61"/>
<rect width="8.00001" height="188" transform="matrix(-4.37114e-08 -1 -1 4.37114e-08 617 204)" fill="url(#paint4_linear)"/>
<circle r="3.99957" transform="matrix(-4.37114e-08 -1 -1 4.37114e-08 616.657 200)" fill="#FFCA61"/>
<path fill-rule="evenodd" clip-rule="evenodd" d="M507.731 224V208.996H457.742V224H455.777V208.996H405.785V224H403.821V208.996H353.828V224H351.864V208.996H301.684V224H299.719V208.996H262V207.014H299.719V187.422H262V185.439H299.719L299.719 165.849H262V163.867H299.719V144.275H262V142.292H299.719V122.702H262V120.719H299.719V101.127H262V99.1445H299.719V79.5536H262V77.5715H299.719V57.9789H262V55.9968H299.719V36.4062H262V34.4241H299.719V14.8332H262V12.8511H299.719V0H301.684V12.8511H351.864V0H353.828V12.8511H403.821V0H405.785V12.8511H455.777V0H457.742V12.8511H507.731V0H509.696V12.8511H559.68V0H561.645V12.8511H611.637V0H613.602V12.8511H663.59V0H665.555V12.8511H715.544V0H717.509V12.8511H767.504V0H769.469V12.8511H799.094V14.8332H769.469V34.4241H799.094V36.4062H769.469V55.9968H799.094V57.9789H769.469V77.5715H799.094V79.5536H769.469V99.1445H799.094V101.127H769.469V120.719H799.094V122.702H769.469V142.292H799.094V144.275H769.469V163.867H799.094V165.849H769.469V185.439H799.094V187.422H769.469V207.014H799.094V208.996H769.469V224H767.504V208.996H717.509V224H715.544V208.996H665.555V224H663.59V208.996H613.602V224H611.637V208.996H561.645V224H559.68V208.996H509.696V224H507.731ZM561.645 207.014H611.637V187.422H561.645V207.014ZM559.68 187.422V207.014H509.696V187.422H559.68ZM561.645 185.439H611.637V165.849H561.645V185.439ZM559.68 165.849V185.439H509.696V165.849H559.68ZM561.645 163.867H611.637V144.275H561.645V163.867ZM559.68 144.275V163.867H509.696V144.275H559.68ZM561.645 142.292H611.637V122.702H561.645V142.292ZM559.68 122.702V142.292H509.696V122.702H559.68ZM561.645 120.719H611.637V101.127H561.645V120.719ZM559.68 101.127V120.719H509.696V101.127H559.68ZM561.645 99.1445H611.637V79.5536H561.645V99.1445ZM559.68 79.5536V99.1445H509.696V79.5536H559.68ZM561.645 77.5715H611.637V57.9789H561.645V77.5715ZM559.68 57.9789V77.5715H509.696V57.9789H559.68ZM561.645 55.9968H611.637V36.4062H561.645V55.9968ZM559.68 36.4062V55.9968H509.696V36.4062H559.68ZM561.645 34.4241H611.637V14.8332H561.645V34.4241ZM559.68 14.8332V34.4241H509.696V14.8332H559.68ZM613.602 36.4062V55.9968H663.59V36.4062H613.602ZM613.602 57.9789V77.5715H663.59V57.9789H613.602ZM613.602 79.5536V99.1445H663.59V79.5536H613.602ZM613.602 101.127V120.719H663.59V101.127H613.602ZM613.602 122.702V142.292H663.59V122.702H613.602ZM613.602 144.275V163.867H663.59V144.275H613.602ZM613.602 165.849V185.439H663.59V165.849H613.602ZM613.602 187.422V207.014H663.59V187.422H613.602ZM613.602 14.8332V34.4241H663.59V14.8332H613.602ZM665.555 207.014H715.544V187.422H665.555V207.014ZM665.555 185.439H715.544V165.849H665.555V185.439ZM665.555 163.867H715.544V144.275H665.555V163.867ZM665.555 142.292H715.544V122.702H665.555V142.292ZM665.555 120.719H715.544V101.127H665.555V120.719ZM665.555 99.1445H715.544V79.5536H665.555V99.1445ZM665.555 77.5715H715.544V57.9789H665.555V77.5715ZM665.555 55.9968H715.544V36.4062H665.555V55.9968ZM665.555 34.4241H715.544V14.8332H665.555V34.4241ZM717.509 36.4062V55.9968H767.504V36.4062H717.509ZM717.509 57.9789V77.5715H767.504V57.9789H717.509ZM717.509 79.5536V99.1445H767.504V79.5536H717.509ZM717.509 101.127V120.719H767.504V101.127H717.509ZM717.509 122.702V142.292H767.504V122.702H717.509ZM717.509 144.275V163.867H767.504V144.275H717.509ZM717.509 165.849V185.439H767.504V165.849H717.509ZM717.509 187.422V207.014H767.504V187.422H717.509ZM717.509 14.8332V34.4241H767.504V14.8332H717.509ZM351.864 207.014H301.684V187.422H351.864V207.014ZM351.864 185.439H301.684L301.684 165.849H351.864V185.439ZM351.864 163.867H301.684V144.275H351.864V163.867ZM351.864 142.292H301.684V122.702H351.864V142.292ZM351.864 120.719H301.684V101.127H351.864L351.864 120.719ZM351.864 99.1445H301.684V79.5536H351.864V99.1445ZM351.864 77.5715H301.684V57.9789H351.864V77.5715ZM351.864 55.9968H301.684V36.4062H351.864V55.9968ZM351.864 34.4241H301.684V14.8332H351.864V34.4241ZM353.828 14.8332V34.4241H403.821V14.8332H353.828ZM353.828 36.4062V55.9968H403.821V36.4062H353.828ZM353.828 57.9789V77.5715H403.821V57.9789H353.828ZM353.828 79.5536V99.1445H403.821V79.5536H353.828ZM353.828 101.127L353.828 120.719H403.821L403.821 101.127H353.828ZM353.828 122.702V142.292H403.821V122.702H353.828ZM353.828 144.275V163.867H403.821V144.275H353.828ZM353.828 165.849V185.439H403.821V165.849H353.828ZM353.828 187.422V207.014H403.821V187.422H353.828ZM455.777 207.014H405.785V187.422H455.777V207.014ZM455.777 185.439H405.785V165.849H455.777V185.439ZM455.777 163.867H405.785V144.275H455.777V163.867ZM455.777 142.292H405.785V122.702H455.777V142.292ZM455.777 120.719H405.785V101.127H455.777L455.777 120.719ZM455.777 99.1445H405.785V79.5536H455.777V99.1445ZM455.777 77.5715H405.785V57.9789H455.777V77.5715ZM455.777 55.9968H405.785V36.4062H455.777V55.9968ZM455.777 34.4241H405.785V14.8332H455.777V34.4241ZM457.742 14.8332V34.4241H507.731V14.8332H457.742ZM457.742 36.4062V55.9968H507.731V36.4062H457.742ZM457.742 57.9789V77.5715H507.731V57.9789H457.742ZM457.742 79.5536V99.1445H507.731V79.5536H457.742ZM457.742 101.127V120.719H507.731L507.731 101.127H457.742ZM457.742 122.702V142.292H507.731V122.702H457.742ZM457.742 144.275V163.867H507.731V144.275H457.742ZM457.742 165.849V185.439H507.731V165.849H457.742ZM457.742 187.422V207.014H507.731V187.422H457.742Z" fill="url(#paint5_radial)" fill-opacity="0.4"/>
<rect width="12" height="282" transform="matrix(-4.37114e-08 -1 -1 4.37114e-08 692 86)" fill="url(#paint6_linear)"/>
<circle r="5.99936" transform="matrix(-4.37114e-08 -1 -1 4.37114e-08 691.485 79.9997)" fill="#FFE5B3"/>
<defs>
<linearGradient id="paint0_linear" x1="134" y1="49" x2="441.064" y2="479.657" gradientUnits="userSpaceOnUse">
<stop stop-color="#FECB61"/>
<stop offset="1" stop-color="#FB8543"/>
</linearGradient>
<linearGradient id="paint1_linear" x1="4" y1="0" x2="4" y2="217" gradientUnits="userSpaceOnUse">
<stop stop-color="#FCBC6B"/>
<stop offset="1" stop-color="#FDA350" stop-opacity="0"/>
</linearGradient>
<linearGradient id="paint2_linear" x1="4" y1="0" x2="4" y2="188" gradientUnits="userSpaceOnUse">
<stop stop-color="#FEB458"/>
<stop offset="1" stop-color="#FDA350" stop-opacity="0"/>
</linearGradient>
<linearGradient id="paint3_linear" x1="4" y1="0" x2="4" y2="188" gradientUnits="userSpaceOnUse">
<stop stop-color="#FEB458"/>
<stop offset="1" stop-color="#FDA350" stop-opacity="0"/>
</linearGradient>
<linearGradient id="paint4_linear" x1="4" y1="0" x2="4" y2="188" gradientUnits="userSpaceOnUse">
<stop stop-color="#FEB458"/>
<stop offset="1" stop-color="#FDA350" stop-opacity="0"/>
</linearGradient>
<radialGradient id="paint5_radial" cx="0" cy="0" r="1" gradientUnits="userSpaceOnUse" gradientTransform="translate(637 115.528) rotate(90) scale(108.465 260.07)">
<stop stop-color="#FFCA61"/>
<stop offset="1" stop-color="#FDA752" stop-opacity="0"/>
</radialGradient>
<linearGradient id="paint6_linear" x1="6.00001" y1="0" x2="6.00001" y2="282" gradientUnits="userSpaceOnUse">
<stop stop-color="#FEBA65"/>
<stop offset="1" stop-color="#FDA350" stop-opacity="0"/>
</linearGradient>
</defs>
</svg>
