<svg width="557" height="301" viewBox="0 0 557 301" fill="none" 
xmlns="http://www.w3.org/2000/svg">
<path opacity="0.2" d="M275.35 300.683C403.185 300.683 506.816 287.124 506.816 
270.398C506.816 253.672 403.185 240.112 275.35 240.112C147.514 240.112 43.8828 253.672 
43.8828 270.398C43.8828 287.124 147.514 300.683 275.35 300.683Z" 
fill="url(#paint0_radial_27899_11297)"/>
<g clip-path="url(#clip0_27899_11297)">
<path d="M537.72 211.371C537.72 250.118 419.154 281.522 272.878 281.522C126.601 
281.522 8.03516 250.118 8.03516 211.371C8.03516 172.625 126.601 141.221 272.878 
141.221C419.154 141.221 537.72 172.625 537.72 211.371Z" 
fill="url(#paint1_linear_27899_11297)"/>
<path d="M529.685 211.501C529.685 248.981 414.725 279.359 272.896 279.359C131.068 
279.359 16.1074 248.981 16.1074 211.501C16.1074 174.022 131.068 143.644 272.896 
143.644C414.725 143.644 529.685 174.022 529.685 211.501Z" 
fill="url(#paint2_linear_27899_11297)"/>
<path d="M275.759 267.591C367.401 267.591 441.692 247.283 441.692 222.231C441.692 
197.179 367.401 176.871 275.759 176.871C184.117 176.871 109.826 197.179 109.826 
222.231C109.826 247.283 184.117 267.591 275.759 267.591Z" 
fill="url(#paint3_linear_27899_11297)"/>
<path d="M275.759 267.591C367.401 267.591 441.692 247.283 441.692 222.231C441.692 
197.179 367.401 176.871 275.759 176.871C184.117 176.871 109.826 197.179 109.826 
222.231C109.826 247.283 184.117 267.591 275.759 267.591Z" 
fill="url(#paint4_linear_27899_11297)"/>
<path d="M275.759 267.566C366.985 267.566 440.938 247.36 440.938 222.435C440.938 
197.51 366.985 177.304 275.759 177.304C184.533 177.304 110.58 197.51 110.58 
222.435C110.58 247.36 184.533 267.566 275.759 267.566Z" 
fill="url(#paint5_linear_27899_11297)"/>
<path d="M275.759 267.529C366.568 267.529 440.184 247.429 440.184 222.633C440.184 
197.837 366.568 177.736 275.759 177.736C184.949 177.736 111.334 197.837 111.334 
222.633C111.334 247.429 184.949 267.529 275.759 267.529Z" 
fill="url(#paint6_linear_27899_11297)"/>
<path d="M275.759 267.505C366.152 267.505 439.429 247.506 439.429 222.837C439.429 
198.167 366.152 178.169 275.759 178.169C185.366 178.169 112.088 198.167 112.088 
222.837C112.088 247.506 185.366 267.505 275.759 267.505Z" 
fill="url(#paint7_linear_27899_11297)"/>
<path d="M275.759 267.467C365.739 267.467 438.682 247.574 438.682 223.035C438.682 
198.495 365.739 178.602 275.759 178.602C185.779 178.602 112.836 198.495 112.836 
223.035C112.836 247.574 185.779 267.467 275.759 267.467Z" 
fill="url(#paint8_linear_27899_11297)"/>
<path d="M275.759 267.443C365.322 267.443 437.928 247.652 437.928 223.238C437.928 
198.825 365.322 179.034 275.759 179.034C186.195 179.034 113.59 198.825 113.59 
223.238C113.59 247.652 186.195 267.443 275.759 267.443Z" 
fill="url(#paint9_linear_27899_11297)"/>
<path d="M275.759 267.406C364.906 267.406 437.173 247.72 437.173 223.436C437.173 
199.153 364.906 179.467 275.759 179.467C186.612 179.467 114.344 199.153 114.344 
223.436C114.344 247.72 186.612 267.406 275.759 267.406Z" 
fill="url(#paint10_linear_27899_11297)"/>
<path d="M275.76 267.381C364.491 267.381 436.421 247.797 436.421 223.64C436.421 
199.483 364.491 179.899 275.76 179.899C187.03 179.899 115.1 199.483 115.1 223.64C115.1 
247.797 187.03 267.381 275.76 267.381Z" fill="url(#paint11_linear_27899_11297)"/>
<path d="M275.759 267.344C364.076 267.344 435.672 247.866 435.672 223.838C435.672 
199.81 364.076 180.332 275.759 180.332C187.441 180.332 115.846 199.81 115.846 
223.838C115.846 247.866 187.441 267.344 275.759 267.344Z" 
fill="url(#paint12_linear_27899_11297)"/>
<path d="M275.758 267.313C363.66 267.313 434.917 247.937 434.917 224.036C434.917 
200.135 363.66 180.759 275.758 180.759C187.857 180.759 116.6 200.135 116.6 
224.036C116.6 247.937 187.857 267.313 275.758 267.313Z" 
fill="url(#paint13_linear_27899_11297)"/>
<path d="M275.758 267.282C363.243 267.282 434.163 248.011 434.163 224.24C434.163 
200.468 363.243 181.197 275.758 181.197C188.274 181.197 117.354 200.468 117.354 
224.24C117.354 248.011 188.274 267.282 275.758 267.282Z" 
fill="url(#paint14_linear_27899_11297)"/>
<path d="M275.758 267.251C362.826 267.251 433.409 248.083 433.409 224.438C433.409 
200.792 362.826 181.624 275.758 181.624C188.69 181.624 118.107 200.792 118.107 
224.438C118.107 248.083 188.69 267.251 275.758 267.251Z" 
fill="url(#paint15_linear_27899_11297)"/>
<path d="M275.758 267.22C362.413 267.22 432.661 248.157 432.661 224.641C432.661 
201.126 362.413 182.062 275.758 182.062C189.103 182.062 118.855 201.126 118.855 
224.641C118.855 248.157 189.103 267.22 275.758 267.22Z" 
fill="url(#paint16_linear_27899_11297)"/>
<path d="M275.758 267.189C361.997 267.189 431.907 248.229 431.907 224.839C431.907 
201.45 361.997 182.489 275.758 182.489C189.52 182.489 119.609 201.45 119.609 
224.839C119.609 248.229 189.52 267.189 275.758 267.189Z" 
fill="url(#paint17_linear_27899_11297)"/>
<path d="M275.758 267.158C361.58 267.158 431.153 248.303 431.153 225.043C431.153 
201.783 361.58 182.928 275.758 182.928C189.936 182.928 120.363 201.783 120.363 
225.043C120.363 248.303 189.936 267.158 275.758 267.158Z" 
fill="url(#paint18_linear_27899_11297)"/>
<path d="M275.76 267.128C361.166 267.128 430.401 248.374 430.401 225.241C430.401 
202.108 361.166 183.354 275.76 183.354C190.354 183.354 121.119 202.108 121.119 
225.241C121.119 248.374 190.354 267.128 275.76 267.128Z" 
fill="url(#paint19_linear_27899_11297)"/>
<path d="M275.758 267.096C360.751 267.096 429.651 248.448 429.651 225.445C429.651 
202.441 360.751 183.793 275.758 183.793C190.765 183.793 121.865 202.441 121.865 
225.445C121.865 248.448 190.765 267.096 275.758 267.096Z" 
fill="url(#paint20_linear_27899_11297)"/>
<path d="M275.758 267.067C360.334 267.067 428.897 248.521 428.897 225.644C428.897 
202.766 360.334 184.221 275.758 184.221C191.182 184.221 122.619 202.766 122.619 
225.644C122.619 248.521 191.182 267.067 275.758 267.067Z" 
fill="url(#paint21_linear_27899_11297)"/>
<path d="M275.758 267.035C359.918 267.035 428.143 248.595 428.143 225.847C428.143 
203.1 359.918 184.659 275.758 184.659C191.598 184.659 123.373 203.1 123.373 
225.847C123.373 248.595 191.598 267.035 275.758 267.035Z" 
fill="url(#paint22_linear_27899_11297)"/>
<path d="M275.76 267.004C359.503 267.004 427.391 248.666 427.391 226.044C427.391 
203.423 359.503 185.085 275.76 185.085C192.016 185.085 124.129 203.423 124.129 
226.044C124.129 248.666 192.016 267.004 275.76 267.004Z" 
fill="url(#paint23_linear_27899_11297)"/>
<path d="M275.758 266.967C359.088 266.967 426.641 248.734 426.641 226.242C426.641 
203.751 359.088 185.518 275.758 185.518C192.428 185.518 124.875 203.751 124.875 
226.242C124.875 248.734 192.428 266.967 275.758 266.967Z" 
fill="url(#paint24_linear_27899_11297)"/>
<path d="M275.758 266.942C358.672 266.942 425.887 248.811 425.887 226.446C425.887 
204.081 358.672 185.95 275.758 185.95C192.844 185.95 125.629 204.081 125.629 
226.446C125.629 248.811 192.844 266.942 275.758 266.942Z" 
fill="url(#paint25_linear_27899_11297)"/>
<path d="M275.76 266.906C358.257 266.906 425.134 248.88 425.134 226.645C425.134 
204.409 358.257 186.384 275.76 186.384C193.262 186.384 126.385 204.409 126.385 
226.645C126.385 248.88 193.262 266.906 275.76 266.906Z" 
fill="url(#paint26_linear_27899_11297)"/>
<path d="M275.76 266.88C357.844 266.88 424.387 248.957 424.387 226.848C424.387 204.739 
357.844 186.815 275.76 186.815C193.675 186.815 127.133 204.739 127.133 226.848C127.133 
248.957 193.675 266.88 275.76 266.88Z" fill="url(#paint27_linear_27899_11297)"/>
<path d="M275.758 266.843C357.426 266.843 423.631 249.025 423.631 227.045C423.631 
205.066 357.426 187.248 275.758 187.248C194.09 187.248 127.885 205.066 127.885 
227.045C127.885 249.025 194.09 266.843 275.758 266.843Z" 
fill="url(#paint28_linear_27899_11297)"/>
<path d="M275.76 266.818C357.011 266.818 422.878 249.103 422.878 227.249C422.878 
205.396 357.011 187.681 275.76 187.681C194.508 187.681 128.641 205.396 128.641 
227.249C128.641 249.103 194.508 266.818 275.76 266.818Z" 
fill="url(#paint29_linear_27899_11297)"/>
<path d="M275.759 266.781C356.594 266.781 422.124 249.171 422.124 227.447C422.124 
205.724 356.594 188.113 275.759 188.113C194.924 188.113 129.395 205.724 129.395 
227.447C129.395 249.171 194.924 266.781 275.759 266.781Z" fill="#F5F5F5"/>
<path d="M275.758 266.688C356.395 266.688 421.765 249.12 421.765 227.447C421.765 
205.775 356.395 188.206 275.758 188.206C195.121 188.206 129.752 205.775 129.752 
227.447C129.752 249.12 195.121 266.688 275.758 266.688Z" 
fill="url(#paint30_linear_27899_11297)"/>
<path d="M275.759 266.589C356.195 266.589 421.401 249.065 421.401 227.447C421.401 
205.829 356.195 188.305 275.759 188.305C195.323 188.305 130.117 205.829 130.117 
227.447C130.117 249.065 195.323 266.589 275.759 266.589Z" 
fill="url(#paint31_linear_27899_11297)"/>
<path d="M275.76 266.491C355.998 266.491 421.043 249.011 421.043 227.448C421.043 
205.885 355.998 188.404 275.76 188.404C195.522 188.404 130.477 205.885 130.477 
227.448C130.477 249.011 195.522 266.491 275.76 266.491Z" 
fill="url(#paint32_linear_27899_11297)"/>
<path d="M275.758 266.392C355.795 266.392 420.677 248.956 420.677 227.447C420.677 
205.939 355.795 188.503 275.758 188.503C195.722 188.503 130.84 205.939 130.84 
227.447C130.84 248.956 195.722 266.392 275.758 266.392Z" 
fill="url(#paint33_linear_27899_11297)"/>
<path d="M275.759 266.299C355.594 266.299 420.313 248.905 420.313 227.448C420.313 
205.99 355.594 188.596 275.759 188.596C195.924 188.596 131.205 205.99 131.205 
227.448C131.205 248.905 195.924 266.299 275.759 266.299Z" 
fill="url(#paint34_linear_27899_11297)"/>
<path d="M275.758 266.2C355.395 266.2 419.953 248.85 419.953 227.447C419.953 206.045 
355.395 188.694 275.758 188.694C196.121 188.694 131.562 206.045 131.562 
227.447C131.562 248.85 196.121 266.2 275.758 266.2Z" 
fill="url(#paint35_linear_27899_11297)"/>
<path d="M275.759 266.101C355.194 266.101 419.589 248.795 419.589 227.447C419.589 
206.099 355.194 188.793 275.759 188.793C196.323 188.793 131.928 206.099 131.928 
227.447C131.928 248.795 196.323 266.101 275.759 266.101Z" 
fill="url(#paint36_linear_27899_11297)"/>
<path d="M419.226 227.448C419.226 248.746 354.99 266.009 275.759 266.009C196.529 
266.009 132.287 248.746 132.287 227.448C132.287 206.149 196.523 188.893 275.759 
188.893C354.996 188.893 419.226 206.155 419.226 227.448Z" 
fill="url(#paint37_linear_27899_11297)"/>
<path d="M418.866 227.447C418.866 248.69 354.79 265.91 275.758 265.91C196.726 265.91 
132.65 248.69 132.65 227.447C132.65 206.204 196.719 188.991 275.758 188.991C354.797 
188.991 418.866 206.235 418.866 227.447Z" fill="url(#paint38_linear_27899_11297)"/>
<path d="M418.501 227.448C418.501 248.636 354.593 265.812 275.758 265.812C196.924 
265.812 132.984 248.636 132.984 227.448C132.984 206.261 196.893 189.091 275.758 
189.091C354.624 189.091 418.501 206.236 418.501 227.448Z" 
fill="url(#paint39_linear_27899_11297)"/>
<path d="M418.142 227.447C418.142 248.585 354.388 265.718 275.758 265.718C197.127 
265.718 133.373 248.585 133.373 227.447C133.373 206.309 197.121 189.183 275.758 
189.183C354.394 189.183 418.142 206.315 418.142 227.447Z" 
fill="url(#paint40_linear_27899_11297)"/>
<path d="M417.778 227.447C417.778 248.529 354.191 265.619 275.758 265.619C197.326 
265.619 133.732 248.529 133.732 227.447C133.732 206.365 197.319 189.281 275.758 
189.281C354.198 189.281 417.778 206.371 417.778 227.447Z" 
fill="url(#paint41_linear_27899_11297)"/>
<path d="M417.42 227.448C417.42 248.462 353.994 265.521 275.759 265.521C197.524 
265.521 134.098 248.474 134.098 227.448C134.098 206.421 197.518 189.381 275.759 
189.381C354 189.381 417.42 206.421 417.42 227.448Z" 
fill="url(#paint42_linear_27899_11297)"/>
<path d="M417.056 227.447C417.056 248.425 353.791 265.422 275.76 265.422C197.728 
265.422 134.463 248.425 134.463 227.447C134.463 206.47 197.722 189.479 275.76 
189.479C353.797 189.479 417.056 206.476 417.056 227.447Z" 
fill="url(#paint43_linear_27899_11297)"/>
<path d="M416.691 227.448C416.691 248.369 353.592 265.323 275.771 265.323C197.95 
265.323 134.852 248.369 134.852 227.448C134.852 206.526 197.919 189.548 275.759 
189.548C353.598 189.548 416.691 206.532 416.691 227.448Z" 
fill="url(#paint44_linear_27899_11297)"/>
<path d="M416.333 227.447C416.333 248.313 353.395 265.23 275.759 265.23C198.123 265.23 
135.186 248.313 135.186 227.447C135.186 206.581 198.117 189.671 275.759 
189.671C353.401 189.671 416.333 206.587 416.333 227.447Z" 
fill="url(#paint45_linear_27899_11297)"/>
<path d="M415.969 227.447C415.969 248.258 353.192 265.15 275.76 265.15C198.328 265.15 
135.545 248.276 135.545 227.447C135.545 206.618 198.322 189.745 275.76 189.745C353.198 
189.745 415.969 206.637 415.969 227.447Z" fill="url(#paint46_linear_27899_11297)"/>
<path d="M415.615 227.448C415.615 248.209 352.998 265.032 275.764 265.032C198.531 
265.032 135.914 248.209 135.914 227.448C135.914 206.687 198.524 189.869 275.764 
189.869C353.005 189.869 415.615 206.693 415.615 227.448Z" 
fill="url(#paint47_linear_27899_11297)"/>
<path d="M415.244 227.448C415.244 248.153 352.819 264.934 275.759 264.934C198.698 
264.934 136.248 248.153 136.248 227.448C136.248 206.742 198.673 189.962 275.74 
189.962C352.807 189.962 415.244 206.749 415.244 227.448Z" 
fill="url(#paint48_linear_27899_11297)"/>
<path d="M414.885 227.448C414.885 248.097 352.59 264.841 275.758 264.841C198.926 
264.841 136.631 248.097 136.631 227.448C136.631 206.798 198.92 190.061 275.758 
190.061C352.596 190.061 414.885 206.798 414.885 227.448Z" 
fill="url(#paint49_linear_27899_11297)"/>
<path d="M414.521 227.448C414.521 248.048 352.393 264.742 275.759 264.742C199.124 
264.742 136.996 248.054 136.996 227.448C136.996 206.842 199.118 190.166 275.759 
190.166C352.399 190.166 414.521 206.854 414.521 227.448Z" 
fill="url(#paint50_linear_27899_11297)"/>
<path d="M414.158 227.447C414.158 247.992 352.196 264.642 275.76 264.642C199.323 
264.642 137.355 247.992 137.355 227.447C137.355 206.902 199.292 190.258 275.76 
190.258C352.227 190.258 414.158 206.909 414.158 227.447Z" 
fill="url(#paint51_linear_27899_11297)"/>
<path d="M413.798 227.447C413.798 247.936 351.991 264.532 275.758 264.532C199.526 
264.532 137.719 247.924 137.719 227.447C137.719 206.971 199.526 190.363 275.758 
190.363C351.991 190.363 413.798 206.958 413.798 227.447Z" 
fill="url(#paint52_linear_27899_11297)"/>
<path d="M413.433 227.448C413.433 247.887 351.793 264.452 275.758 264.452C199.723 
264.452 138.102 247.887 138.102 227.448C138.102 207.008 199.742 190.45 275.783 
190.45C351.824 190.45 413.433 207.014 413.433 227.448Z" 
fill="url(#paint53_linear_27899_11297)"/>
<path d="M413.074 227.448C413.074 247.844 351.595 264.352 275.758 264.352C199.921 
264.352 138.441 247.831 138.441 227.448C138.441 207.064 199.915 190.549 275.758 
190.549C351.601 190.549 413.074 207.07 413.074 227.448Z" 
fill="url(#paint54_linear_27899_11297)"/>
<path d="M412.71 227.448C412.71 247.776 351.392 264.254 275.759 264.254C200.126 
264.254 138.801 247.776 138.801 227.448C138.801 207.119 200.119 190.642 275.759 
190.642C351.398 190.642 412.71 207.119 412.71 227.448Z" 
fill="url(#paint55_linear_27899_11297)"/>
</g>
<path opacity="0.4" d="M275.041 254.329C375.057 254.329 456.136 242.291 456.136 
227.443C456.136 212.594 375.057 200.557 275.041 200.557C175.026 200.557 93.9473 
212.594 93.9473 227.443C93.9473 242.291 175.026 254.329 275.041 254.329Z" 
fill="url(#paint56_radial_27899_11297)"/>
<path d="M307.858 228.111C354.824 233.87 347.685 224.019 345.052 222.891C342.418 
221.763 335.651 221.092 315.056 219.436C294.462 217.78 286.075 217.036 285.967 
215.62C285.859 214.205 302.266 213.545 327.187 213.821C362.857 214.241 367.494 209.519 
372.551 209.525C377.609 209.531 384.244 213.269 381.064 217.06C377.885 220.852 364.141 
221.775 361.231 222.411C358.322 223.047 354.776 228.188 359.827 229.466C364.879 
230.744 381.322 226.077 381.322 226.077C381.322 226.077 382.756 224.907 384.112 
223.995C385.467 223.083 385.605 222.693 387.057 221.596C387.057 221.596 403.855 
222.195 401.377 225.993C398.899 229.79 419.44 228.177 421.174 235.147C422.908 242.118 
355.016 242.346 326.707 240.703C298.397 239.059 284.977 232.844 256.026 
229.478C227.074 226.113 193.701 227.415 190.312 225.741C186.922 224.067 260.891 
222.345 307.858 228.111Z" fill="url(#paint57_linear_27899_11297)"/>
<path d="M150.445 228.714C154.417 236.009 173.35 241.594 205.379 240.202C237.408 
238.81 259.028 234.641 280.709 233.171C302.39 231.702 351.612 232.325 373.929 
230.946C396.245 229.566 403.744 218.096 403.744 218.096L150.445 228.714Z" 
fill="#C16526"/>
<path d="M151.165 207.16C141.242 215.259 145.442 227.905 157.032 232.446C171.124 
237.977 198.863 239.045 233.712 235.278C268.561 231.51 287.2 228.919 314.699 
229.615C341.863 230.263 380.275 227.317 394.025 223.052C409.209 218.342 411.308 
205.025 402.286 198.671C393.263 192.318 182.54 181.556 151.165 207.16Z" 
fill="#FFDA99"/>
<path d="M148.767 210.862C151.293 201.984 173.519 188.666 271.01 184.821C368.501 
180.975 400.782 194.167 403.956 200.772C406.751 206.609 403.83 213.418 360.564 
216.736C317.299 220.053 307.353 214.588 246.708 221.469C184.756 228.452 144.844 
224.654 148.767 210.862Z" fill="#E38D3F"/>
<path d="M148.502 192.559C151.981 198.456 154.555 202.128 179.631 208.691C207.227 
215.889 244.577 214.552 279.906 212.938C315.234 211.324 343.676 203.813 361.943 
200.838C380.21 197.862 404.248 192.877 407.596 183.794C410.943 174.712 148.502 192.559 
148.502 192.559Z" fill="#C16526"/>
<path d="M150.516 169.865C139.879 179.325 145.404 191.461 153.185 196.411C161.644 
201.81 188.226 211.3 245.031 211.3C298.645 211.3 311.081 206.501 347.285 
200.502C383.489 194.503 401.559 191.689 407.492 183.651C412.639 176.668 406.94 166.907 
404.018 164.544C401.097 162.18 361.785 154.885 289.682 157.555C217.579 160.224 150.516 
169.865 150.516 169.865Z" fill="#FFDA99"/>
<path d="M403.404 165.084C395.539 152.93 276.139 142.467 207.654 151.814C137.393 
161.412 143.284 178.264 157.352 185.277C173.453 193.303 230.984 200.562 291.347 
194.467C351.71 188.372 383.181 184.671 393.205 180.381C403.23 176.092 406.967 170.567 
403.404 165.084Z" fill="#E38D3F"/>
<path d="M149.475 161.43C157.327 170.428 166.872 176.481 199.591 179.427C232.31 
182.372 268.826 184.022 325.463 178.611C382.101 173.2 401.376 161.814 404.687 
154.249C407.999 146.684 149.475 161.43 149.475 161.43Z" fill="#C16526"/>
<path d="M152.042 134.967C140.812 144.242 141.844 160.098 158.269 167.626C174.695 
175.155 214.361 179.265 276.451 178.113C338.541 176.961 387.44 166.967 401.148 
157.518C414.856 148.069 406.967 132.016 398.802 128.153C387.89 123.005 152.042 134.967 
152.042 134.967Z" fill="#FFDA99"/>
<path d="M400.451 131.009C392.053 106.329 153.38 105.735 149.516 139.941C145.653 
174.148 412.317 165.971 400.451 131.009Z" fill="#E38D3F"/>
<path d="M243.113 161.802C295.305 161.802 332.457 159.048 364.552 152.269C396.647 
145.49 399.634 139.605 400.774 133.468C401.914 127.331 386.82 121.8 364.816 
118.123C342.811 114.445 285.22 113.281 285.22 113.281C285.22 113.281 352.458 115.825 
367.653 119.532C382.849 123.24 387.672 128.033 387.258 133.21C386.844 138.387 384.979 
144.716 341.276 153.727C297.572 162.738 211.216 160.188 193.146 158.568C209.723 
160.633 226.408 161.711 243.113 161.796V161.802Z" fill="#BF6B2C"/>
<path d="M150.445 136.013C154.405 143.62 173.242 149.445 205.169 148.011C237.096 
146.577 258.615 142.204 280.205 140.674C301.796 139.145 350.844 139.792 373.071 
138.353C395.297 136.913 402.802 124.927 402.802 124.927L150.445 136.013Z" 
fill="#C16526"/>
<path d="M150.192 114C140.24 122.093 144.487 134.739 156.065 139.28C170.151 144.811 
197.891 145.879 232.739 142.112C267.588 138.344 286.227 135.753 313.727 136.443C340.89 
137.09 379.308 134.145 393.052 129.886C408.236 125.176 410.336 111.858 401.313 
105.505C392.29 99.1524 181.573 88.378 150.192 114Z" fill="#FFDA99"/>
<path d="M147.794 118.026C150.32 109.375 172.547 96.3573 270.037 92.5779C367.528 
88.7985 399.803 101.726 402.983 108.175C405.778 113.875 402.857 120.516 359.592 
123.773C316.326 127.031 306.38 121.667 245.735 128.386C183.783 135.201 143.889 131.494 
147.794 118.026Z" fill="#E38D3F"/>
<path d="M197.084 111.434C198.481 101.577 226.875 97.3778 272.768 94.5522C318.661 
91.7267 361.2 98.1517 366.186 103.881C370.265 108.536 355.987 112.933 324.612 
111.434C293.237 109.934 254.585 119.628 227.079 120.888C199.573 122.148 196.532 
115.375 197.084 111.434Z" fill="#EFA554"/>
<path d="M147.529 99.723C151.009 105.794 153.582 109.573 178.664 116.334C206.26 
123.743 243.604 122.363 278.933 120.702C314.261 119.04 342.703 111.307 360.97 
108.248C379.237 105.188 403.282 100.053 406.623 90.7004C409.965 81.3478 147.529 99.723 
147.529 99.723Z" fill="#C16526"/>
<path d="M149.545 77.4366C138.908 86.7232 144.434 98.6314 152.214 103.509C160.673 
108.812 187.255 118.134 244.06 118.134C297.674 118.134 310.11 113.431 346.314 
107.504C382.519 101.577 400.588 98.8473 406.521 90.9525C411.668 84.0956 405.969 
74.5091 403.054 72.1874C400.138 69.8658 360.808 62.7029 288.711 65.3245C216.614 
67.9461 149.545 77.4366 149.545 77.4366Z" fill="#FFDA99"/>
<path d="M403.401 71.9172C395.507 59.7631 275.651 49.3007 206.908 58.6413C136.383 
68.2398 142.298 85.0972 156.42 92.1041C172.575 100.137 230.322 107.42 290.913 
101.295C351.503 95.1696 383.094 91.5042 393.131 87.2089C403.167 82.9135 407.001 
77.4244 403.401 71.9172Z" fill="#E38D3F"/>
<path d="M148.502 68.2642C156.355 77.2628 165.899 83.3158 198.624 86.2614C231.349 
89.2069 267.853 90.8567 324.491 85.4395C381.128 80.0223 400.403 68.6421 403.714 
61.0833C407.026 53.5244 148.502 68.2642 148.502 68.2642Z" fill="#C16526"/>
<path d="M151.079 41.8024C139.849 51.071 140.881 66.9265 157.307 74.4554C173.732 
81.9842 213.398 86.0936 275.488 84.9418C337.579 83.7899 386.435 73.7835 400.143 
64.3469C413.851 54.9104 405.962 38.8509 397.797 34.9875C386.915 29.8403 151.079 
41.8024 151.079 41.8024Z" fill="#FFDA99"/>
<path d="M400.445 38.19C392.046 13.0239 152.419 12.394 148.544 47.3026C144.668 82.2111 
412.359 73.8544 400.445 38.19Z" fill="#E38D3F"/>
<path d="M233.525 234.9C182.64 244.354 190.355 228.205 193.241 226.357C196.126 224.51 
203.439 223.418 225.738 220.706C248.036 217.995 257.155 216.771 257.269 
214.461C257.383 212.151 239.602 211.072 212.588 211.546C173.918 212.223 168.891 
204.503 163.395 204.515C157.9 204.527 150.713 210.64 154.163 216.837C157.612 223.034 
172.514 224.558 175.664 225.595C178.813 226.633 182.658 235.05 177.187 237.144C171.716 
239.237 153.887 231.6 153.887 231.6C153.887 231.6 152.333 229.681 150.887 
228.187C149.442 226.693 149.262 226.057 147.69 224.27C147.69 224.27 129.471 225.217 
132.17 231.468C134.87 237.72 115.062 222.677 113.172 234.105C119.907 249.693 190.985 
273.489 213.104 255.567C243.789 252.855 258.337 242.681 289.7 237.18C321.063 231.678 
357.255 233.802 360.927 231.061C364.598 228.319 284.445 225.463 233.525 234.9Z" 
fill="url(#paint58_linear_27899_11297)"/>
<path d="M376.081 107.198C358.744 108.014 334.771 112.315 332.642 111.703C330.512 
111.091 328.16 108.86 327.146 103.107C326.546 99.8491 329.15 97.4074 331.49 
95.9077C349.691 93.3881 363.885 90.8085 363.717 87.7669C363.429 83.4776 309.035 87.425 
305.37 84.0955C301.704 80.766 300.96 73.7231 301.572 68.9958C302.496 61.797 310.799 
49.8288 325.569 45.8874C340.338 41.946 357.184 45.6175 361.929 39.8883C366.674 34.1592 
351.347 34.4892 353.926 28.7601C356.506 23.031 384.042 31.8496 384.438 29.36C385.529 
22.989 348.809 17.2958 309.173 16.342C269.537 15.3881 200.704 20.8653 196.847 
22.851C192.989 24.8367 195.425 28.1482 196.391 27.9082C197.356 27.6682 223.812 30.0199 
218.659 36.9068C216.859 39.3484 211.562 40.5722 205.269 41.6461C178.093 44.7836 
164.266 39.8164 152.999 44.4716C141.733 49.1269 150.738 56.0198 152.465 61.407C154.193 
66.7942 153.665 69.9737 152.591 72.9492C152.022 74.581 151.152 75.9488 149.592 
76.5487C147.417 77.2748 145.573 78.7533 144.391 80.718C141.949 85.1993 145.333 90.8804 
160.954 94.5579C160.954 94.5579 166.281 95.6497 167.169 99.957C168.285 105.464 166.485 
108.236 159.706 108.914C147.498 110.113 143.965 128.711 169.743 127.775C183.199 
127.289 189.756 131.416 193.895 136.257C194.261 136.695 194.615 137.145 194.957 
137.595C195.725 138.609 196.409 139.635 197.033 140.649C199.102 144.188 199.432 
147.158 195.407 147.248C191.381 147.338 182.899 147.02 180.517 150.277C178.135 153.535 
181.537 158.784 189.954 161.022C205.419 165.143 222.445 159.258 221.899 
175.419V176.235C221.899 176.235 221.899 180.225 217.015 181.226C213.764 181.166 
210.237 181.226 206.517 181.328C190.374 181.886 184.225 184.04 184.405 187.381C184.632 
191.581 193.655 191.041 203.326 196.122C209.841 199.518 214.046 203.387 226.188 
204.341C238.33 205.295 240.226 198.978 247.533 196.962C254.84 194.946 258.043 193.363 
256.891 190.255C256.231 188.455 250.736 185.456 240.022 183.446C235.193 181.646 
234.575 178.083 234.575 176.985V176.667L234.707 177.135C234.707 169.81 234.149 160.698 
236.878 158.13C241.63 153.649 262.518 158.688 263.064 152.989C263.61 147.29 231.047 
148.19 224.262 147.59C217.477 146.99 223.446 132.724 223.572 132.418C224.173 131.129 
225.059 129.995 226.164 129.101C231.863 124.937 239.458 124.211 238.642 
121.062C237.826 117.912 200.53 118.278 183.565 115.705C166.599 113.131 170.271 99.6931 
171.902 97.9234C172.333 97.4631 172.848 97.0904 173.42 96.8255C197.416 99.6031 208.587 
90.9284 204.729 87.8689C200.872 84.8094 161.038 78.8823 157.793 76.7166C155.669 
75.2829 154.091 68.8879 157.907 62.3789C161.008 57.0997 163.426 56.0138 189.858 
58.7794C212.054 62.7448 255.398 62.9788 275.86 62.8468C304.56 62.7088 299.977 80.88 
297.517 85.2413C294.319 90.9404 268.469 92.9801 267.72 99.0392C266.97 105.098 280 
102.639 307.811 99.0392L317.614 97.7554C326.564 100.401 326.768 112.621 320.535 
114.037C313.283 115.669 297.079 116.994 296.989 120.144C296.899 123.293 303.9 126.143 
350.813 124.061C397.725 121.98 393.418 106.46 376.081 107.198Z" fill="#C16526"/>
<path opacity="0.51" d="M245.461 212.272C256.379 212.638 257.159 213.694 257.201 
214.726C257.243 215.758 256.901 217.072 240.535 219.129C224.17 221.187 203.551 223.653 
198.686 224.817C193.821 225.98 191.025 227.36 191.121 231.505C191.217 235.651 195.596 
238.734 210.726 238.164C225.856 237.595 242.521 233.767 242.521 233.767C242.521 
233.767 220.115 239.448 204.271 239.448C188.427 239.448 187.414 232.489 188.673 
228.65C189.933 224.811 191.373 221.451 203.071 219.987C214.769 218.524 243.799 215.944 
246.738 214.87C249.678 213.796 245.461 212.272 245.461 212.272Z" fill="#682A00"/>
<path opacity="0.51" d="M224.205 204.112C231.704 205.066 235.987 204.16 238.375 
202.786C240.763 201.412 242.67 199.001 246.774 197.423C250.877 195.845 258.316 195.023 
258.316 190.932C258.316 186.841 248.207 185.317 242.172 183.895C236.137 182.473 
235.171 178.496 235.135 174.897C235.099 171.297 234.949 165.628 235.669 
161.825C236.389 158.021 238.669 156.965 241.746 156.467C244.824 155.97 253.343 156.653 
259.084 156.012C264.825 155.37 264.897 152.772 262.521 151.146C260.146 149.521 254.026 
149.185 254.026 149.185C254.026 149.185 260.625 149.736 261.273 151.53C261.921 153.324 
259.372 154.062 254.386 154.026C249.401 153.99 236.689 153.084 233.702 156.227C230.714 
159.371 229.448 178.694 232.07 182.479C234.691 186.265 247.811 186.529 250.289 
188.478C252.767 190.428 253.385 192.234 248.453 194.256C243.522 196.277 242.604 
200.369 237.265 202.654C231.926 204.94 224.205 204.112 224.205 204.112Z" 
fill="#682A00"/>
<path opacity="0.51" d="M319.312 124.619C358.558 126.083 377.629 122.016 384.852 
118.098C392.075 114.181 390.15 108.656 380.005 107.576C369.861 106.496 337.958 111.853 
334.01 111.853C330.063 111.853 327.705 106.94 327.267 103.533C326.829 100.125 330.177 
97.0957 332.666 96.2918C335.156 95.488 347.064 94.8281 356.243 92.4404C365.421 90.0528 
364.587 88.505 363.808 87.7792C363.028 87.0533 356.267 85.8655 341.173 86.1714C341.173 
86.1714 363.094 86.4174 362.506 88.733C361.918 91.0487 344.083 93.4543 335.678 
94.4081C327.273 95.362 326.013 99.5673 326.235 102.357C326.457 105.146 326.613 111.853 
330.327 113.431C334.04 115.009 357.497 110.432 370.731 109.832C383.964 109.232 387.084 
112.291 383.197 116.467C379.309 120.642 362.554 122.946 347.202 123.906C331.851 
124.865 319.312 124.619 319.312 124.619Z" fill="#682A00"/>
<path d="M162.09 44.376C147.734 45.9297 148.712 51.2989 150.422 55.0483C150.422 
55.0483 148.25 51.9288 151.502 48.6053C154.753 45.2818 162.09 44.376 162.09 44.376Z" 
fill="#E89F6D"/>
<path d="M146.949 80.2861C144.873 82.2298 145.197 84.5695 147.795 86.9631C150.392 
89.3567 155.299 90.9585 155.299 90.9585C155.299 90.9585 149.246 88.4209 147.213 
85.6193C146.63 84.8597 146.291 83.9416 146.241 82.9857C146.194 82.0345 146.441 81.092 
146.949 80.2861V80.2861Z" fill="#E89F6D"/>
<path d="M190.23 86.1055C190.23 86.1055 199.025 88.1392 200.873 88.6551C202.721 89.171 
204.502 90.6828 200.141 92.0265C195.78 93.3703 190.23 92.7644 190.23 92.7644C192.818 
92.8381 195.406 92.637 197.951 92.1645C201.311 91.4026 202.553 89.8789 200.723 
89.021C198.893 88.1631 190.23 86.1055 190.23 86.1055Z" fill="#E89F6D"/>
<path d="M159.092 111.337C159.092 111.337 152.085 113.065 152.397 118.41C152.709 
123.755 164.995 123.953 164.995 123.953C164.995 123.953 153.849 122.711 153.597 
117.954C153.345 113.197 159.092 111.337 159.092 111.337Z" fill="#E89F6D"/>
<path d="M197.405 148.219C192.504 148.429 183.007 148.033 182.491 152.28C181.975 
156.527 191.352 159.113 198.509 159.923C205.666 160.733 206.733 160.835 206.733 
160.835C206.733 160.835 195.293 159.035 190.086 157.541C184.879 156.048 183.955 153.66 
184.909 151.464C185.863 149.269 197.405 148.219 197.405 148.219Z" fill="#E89F6D"/>
<path d="M207.701 183.164C196.417 183.356 187.904 184.808 186.704 186.764C185.504 
188.72 187.826 189.56 189.242 189.703C190.658 189.847 196.879 190.099 199.566 
190.975C202.254 191.851 202.386 191.905 202.386 191.905C199.736 190.878 196.994 
190.106 194.197 189.602C189.602 188.774 187.676 188.768 187.778 187.202C187.88 185.636 
193.669 184.352 199.008 183.716C201.89 183.338 204.794 183.154 207.701 
183.164V183.164Z" fill="#E89F6D"/>
<path d="M165 206.62C159.529 205.534 155.048 209.8 155.306 214.359C155.563 218.918 
163.182 221.006 163.182 221.006C163.182 221.006 156.961 219.92 156.313 214.599C155.665 
209.278 160.945 207.124 161.713 206.758C162.798 206.569 163.903 206.523 165 206.62Z" 
fill="#E89F6D"/>
<path d="M281.621 93.8672C272.868 96.8667 269.574 97.3946 269.808 99.7163C270.042 
102.038 275.208 101.81 281.741 101.306C288.274 100.802 298.91 99.2604 298.91 
99.2604C298.91 99.2604 288.987 100.496 280.223 100.85C271.458 101.204 270.672 100.058 
270.672 98.9484C270.672 97.8386 281.621 93.8672 281.621 93.8672Z" fill="#E89F6D"/>
<path d="M325.414 110.371C324.364 112.813 325.084 114.085 321.695 115.284C318.305 
116.484 300.098 117.558 299.048 120.084C297.998 122.609 304.25 123.035 313.896 
122.999C323.543 122.963 328.054 122.567 328.054 122.567C328.054 122.567 322.247 
122.867 312.546 122.705C302.846 122.543 299.906 121.559 300.128 120.306C300.35 119.052 
301.928 118.32 310.537 117.522C319.145 116.724 322.919 116.13 323.974 114.996C325.03 
113.863 325.414 110.371 325.414 110.371Z" fill="#E89F6D"/>
<path opacity="0.6" d="M275.154 61.8452C322.589 61.8452 361.043 53.5888 361.043 
43.404C361.043 33.2193 322.589 24.9629 275.154 24.9629C227.719 24.9629 189.266 33.2193 
189.266 43.404C189.266 53.5888 227.719 61.8452 275.154 61.8452Z" 
fill="url(#paint59_radial_27899_11297)"/>
<path d="M329.552 20.4457C329.304 20.6318 328.998 20.7233 328.688 20.7036C328.324 
20.7507 327.956 20.6585 327.656 20.4457C327.296 19.9529 326.894 19.4913 326.457 
19.0659C326.101 18.7077 325.727 18.3692 325.335 18.052L324.999 17.7821L324.633 
17.5181C324.513 17.4175 324.387 17.3253 324.255 17.2422L324.057 17.0982L323.847 
16.9542C322.475 16.0475 321.031 15.2569 319.528 14.5906C318.64 14.1886 317.662 13.7987 
316.6 13.3908L315.814 13.1208L315.004 12.8389L314.116 12.5569L313.661 12.4129L313.199 
12.2809C310.374 11.4678 307.506 10.8148 304.608 10.3252C301.11 9.74263 297.583 9.34215 
294.044 9.12543C292.152 9.00544 290.22 8.92946 288.248 8.89746H279.82L279.01 
8.93945H278.23L277.456 8.98745L276.64 9.04144L275.83 9.10143L274.301 9.23941L273.545 
9.3054L272.801 9.38938C271.799 9.50337 270.809 9.62335 269.849 9.76733L269.135 
9.86931L268.416 9.97729L267.018 10.2233C266.1 10.3852 265.218 10.5652 264.33 
10.7632C263.442 10.9611 262.614 11.1711 261.793 11.4051C260.971 11.639 260.167 11.873 
259.435 12.125C256.761 12.9808 254.238 14.2477 251.954 15.8804C251.055 16.5411 250.236 
17.3041 249.512 18.154C249.203 18.5349 248.918 18.9357 248.661 19.3538C248.423 19.734 
248.222 20.1357 248.061 20.5537C247.912 20.9392 247.816 21.3426 247.773 
21.7535V23.1932C247.957 24.0625 248.35 24.8737 248.919 25.5569C249.64 26.4329 250.487 
27.1971 251.432 27.8245C252.643 28.623 253.924 29.3098 255.26 29.8762C258.756 31.3292 
262.404 32.3857 266.136 33.0257C268.23 33.4217 270.449 33.7276 272.735 33.9556C275.021 
34.1835 277.372 34.3335 279.766 34.3935H283.365C284.487 34.3935 285.597 34.3395 
286.695 34.2795C288.902 34.1535 291.044 33.9136 293.078 33.6016C296.611 33.1044 
300.059 32.1233 303.324 30.6861C304.479 30.1617 305.557 29.4814 306.528 
28.6644C306.908 28.3423 307.248 27.9757 307.541 27.5726C307.68 27.3959 307.802 27.2071 
307.907 27.0087C308.008 26.8266 308.096 26.6382 308.171 26.4447C308.239 26.2487 
308.293 26.0483 308.333 25.8448V24.765C308.285 24.5852 308.225 24.4089 308.153 
24.2371C307.719 23.4162 307.073 22.7264 306.282 22.2394C304.482 20.9856 301.482 
19.9417 298.051 19.2399C296.232 18.8978 294.395 18.6575 292.55 18.52C291.596 18.448 
290.624 18.4 289.658 18.37H286.893C285.993 18.37 285.093 18.448 284.253 18.526C283.413 
18.604 282.543 18.7119 281.739 18.8379C280.936 18.9639 280.162 19.1259 279.442 
19.2998C278.752 19.4647 278.071 19.665 277.402 19.8998C274.871 20.7336 273.239 21.8435 
272.669 22.9773C272.596 23.1133 272.535 23.2559 272.489 23.4032V23.7872C272.472 
24.0576 272.524 24.3278 272.639 24.573C272.973 25.1898 273.477 25.6978 274.091 
26.0368C274.941 26.5672 275.859 26.9808 276.82 27.2666C277.94 27.618 279.085 27.8828 
280.246 28.0585C281.482 28.2425 282.723 28.3684 283.971 28.4364H287.457C288.009 
28.3944 288.542 28.3464 289.082 28.2925C289.622 28.2385 290.084 28.1665 290.546 
28.0885L290.942 28.0165C291.483 27.903 292.045 27.9382 292.568 28.1185C293.024 28.3105 
292.934 28.5924 292.376 28.7184L291.932 28.8324C291.422 28.9584 290.858 29.0783 
290.252 29.1923C289.646 29.3063 288.992 29.3963 288.302 29.4743C287.955 29.5103 
287.601 29.5523 287.235 29.5763L286.677 29.6243H283.761C282.096 29.6244 280.432 
29.5403 278.776 29.3723C277.089 29.2188 275.414 28.9562 273.761 28.5864C272.256 
28.2466 270.789 27.7583 269.381 27.1286C268.236 26.691 267.197 26.0141 266.334 
25.1429C266.037 24.7905 265.813 24.3827 265.674 23.9431C265.682 23.8402 265.663 
23.7368 265.62 23.6432V23.3252C265.614 23.1246 265.626 22.9238 265.656 22.7253C265.892 
21.7566 266.442 20.8935 267.222 20.2717C268.405 19.2857 269.743 18.5013 271.181 
17.9501C273.198 17.1368 275.287 16.5162 277.42 16.0963C280.089 15.5614 282.791 15.2086 
285.507 15.0405C286.227 14.9985 286.971 14.9565 287.709 14.9325H289.904C291.35 14.9325 
292.814 14.9325 294.278 15.0225C297.187 15.1423 300.087 15.4247 302.964 
15.8684C305.624 16.2668 308.252 16.8542 310.829 17.6261C312.978 18.2557 315.052 
19.1187 317.014 20.1997C318.488 20.9789 319.77 22.075 320.769 23.4092C320.953 23.6878 
321.113 23.9807 321.249 24.2851L321.339 24.507L321.411 24.729C321.408 24.7676 321.411 
24.8065 321.423 24.8436C321.434 24.8806 321.453 24.9151 321.477 24.945C321.543 25.023 
321.477 25.089 321.525 25.1729V26.0428C321.521 26.3306 321.493 26.6175 321.441 
26.9007C321.418 27.0638 321.38 27.2245 321.327 27.3806L321.489 27.4166H321.669C322.581 
27.6626 326.942 28.9943 328.172 31.6159L327.758 31.7419H327.668C323.757 32.7876 
319.717 33.2704 315.67 33.1757L315.148 33.4577C312.977 34.5693 310.71 35.4828 308.375 
36.1872C307.146 36.5772 305.85 36.9311 304.488 37.2611V37.477C304.488 37.993 304.122 
40.3446 297.619 42.7322C297.619 42.7322 288.488 42.3603 283.299 
39.7867H278.908C275.446 39.7327 271.973 39.5587 268.59 39.2528C267.47 39.1528 266.358 
39.0368 265.254 38.9048C263.736 39.3307 256.495 41.1485 245.457 40.9985C245.457 
40.9985 241.336 37.999 244.953 34.4355C244.083 34.1176 243.237 33.7876 242.44 
33.4457C240.68 32.7211 238.981 31.8586 237.358 30.8661V30.8661C237.358 30.8661 225.828 
30.6201 215.93 26.6667V42.6782C225.828 46.6196 237.37 46.8776 237.37 46.8776C238.99 
47.8614 240.688 43.926 242.446 44.6639C243.261 44.9999 244.071 50.1231 244.959 
50.435C241.36 54.0345 245.463 57.034 245.463 57.034C256.483 57.178 263.724 55.3603 
265.26 54.9403C266.37 55.0663 267.474 55.1863 268.596 55.2763C271.985 55.5882 275.452 
55.7682 278.914 55.8162H283.419C288.614 58.3898 297.739 58.7497 297.739 
58.7497C304.242 56.3861 304.608 54.0285 304.608 53.5005V53.2846C305.97 52.9546 307.272 
52.5947 308.501 52.2167C310.818 51.4979 313.065 50.5703 315.214 49.4452L315.73 
49.1572C319.97 49.2903 324.204 48.76 328.28 47.5855V31.8799C328.416 31.8919 328.552 
31.8919 328.688 31.8799C329.186 31.8799 329.564 31.7239 329.576 31.5499C329.6 31.2685 
329.6 30.9855 329.576 30.7041L329.552 20.4457Z" fill="#F9B121"/>
<path d="M229.43 23.3293H240.079V8.47559H228.141V20.7497C228.353 21.7021 228.796 
22.5879 229.43 23.3293V23.3293Z" fill="#CD8B17"/>
<path d="M329.577 31.5682C329.601 31.2847 329.601 30.9997 329.577 
30.7163V19.918L322.259 15.1907L311.112 10.0795L288.094 6.79199L267.655 8.53172L256.179 
10.2115L242.627 23.7874L258.932 33.3079L265.621 34.2437C265.615 34.3476 265.615 
34.4518 265.621 34.5557V34.8736C265.612 34.9754 265.633 35.0776 265.681 
35.1676C265.815 35.6079 266.038 36.0162 266.335 36.3674C266.489 36.549 266.655 36.7194 
266.833 36.8773L272.832 36.2774C272.732 36.1504 272.647 36.0114 272.58 35.8635C272.485 
35.6589 272.438 35.4352 272.442 35.2096L277.02 35.8455L285.268 34.9876L292.749 
34.1957V28.4726L285.436 28.9886L268.369 26.4569L271.171 17.9743L282.977 
16.5885L308.455 17.3744L322.061 30.4043L329.445 31.7601C329.529 31.6761 329.577 
31.6221 329.577 31.5682Z" fill="#F5B116"/>
<path d="M329.428 18.8671C329.187 17.9664 328.767 17.1236 328.192 16.3895C327.291 
15.2418 326.213 14.2437 325.001 13.4319C323.132 12.1703 321.133 11.1144 319.038 
10.2824C318.054 9.87447 316.98 9.49653 315.786 9.08259C317.526 6.71896 313.674 4.61329 
313.674 4.61329C309.5 4.44148 305.322 4.81456 301.244 5.72311L300.434 5.60313C299.301 
5.44716 298.143 5.29718 296.943 5.1712C295.743 5.04522 294.507 4.91924 293.29 
4.81725C292.072 4.71527 290.77 4.62528 289.468 4.55329H288.784C285.911 1.33779 277.596 
0 277.596 0C268.327 2.03968 266.558 4.89524 266.558 4.89524C266.558 4.89524 266.558 
4.95523 266.462 5.06921L264.926 5.22519C264.206 5.29718 263.51 5.39316 262.802 
5.47715C262.094 5.56114 261.386 5.66912 260.697 5.7771C259.299 5.98107 257.913 6.21504 
256.551 6.485C255.189 6.75495 253.942 7.01891 252.694 7.32487L252.37 7.27087C244.314 
6.27075 236.158 6.38784 228.134 7.61882C227.09 12.3401 233.263 15.3576 234.481 
15.8975C234.19 16.1732 233.917 16.4678 233.665 16.7794C232.776 17.7546 232.067 18.8799 
231.571 20.1029C231.505 20.2709 231.457 20.4328 231.397 20.6008C219.543 22.6285 
216.021 26.8038 216.021 26.8038C225.92 30.7392 237.462 31.0032 237.462 31.0032C239.086 
31.9953 240.785 32.8598 242.543 33.5888C243.353 33.9247 244.169 34.2547 245.051 
34.5726C241.452 38.1721 245.555 41.1356 245.555 41.1356C256.575 41.2856 263.816 
39.4679 265.352 39.042C266.456 39.1799 267.559 39.2879 268.681 39.3899C272.071 39.6959 
275.544 39.8698 279.006 39.9238H283.421C288.616 42.4974 297.741 42.8694 297.741 
42.8694C304.244 40.5057 304.61 38.1481 304.61 37.6202V37.3862C305.972 37.0563 307.273 
36.6963 308.503 36.3184C310.817 35.6042 313.064 34.6867 315.216 33.5768L315.732 
33.2888C319.965 33.414 324.193 32.8839 328.264 31.7171C327.064 29.0535 322.685 27.7817 
321.767 27.5177H321.587L321.425 27.4817C321.472 27.3221 321.51 27.1598 321.539 
26.9958C321.589 26.7126 321.615 26.4256 321.617 26.138V25.2681C321.626 25.1889 321.609 
25.1092 321.569 25.0401C321.536 24.9698 321.514 24.895 321.503 24.8182L321.431 
24.6022L321.341 24.3802C321.209 24.0741 321.048 23.7809 320.861 23.5044C319.868 
22.1644 318.584 21.0671 317.106 20.2949C315.141 19.2126 313.062 18.3496 310.909 
17.7213C308.331 16.9472 305.7 16.3597 303.038 15.9635C300.161 15.5176 297.261 15.2332 
294.351 15.1117C292.888 15.0397 291.424 15.0157 289.978 15.0277H287.758C287.02 15.0277 
286.283 15.0877 285.557 15.1357C282.84 15.3012 280.138 15.654 277.47 16.1915C275.339 
16.6096 273.252 17.2283 271.237 18.0392C269.8 18.5954 268.462 19.3815 267.278 
20.3668C266.49 20.9913 265.938 21.865 265.712 22.8445C265.677 23.0424 265.663 23.2435 
265.67 23.4444V23.7563C265.66 23.86 265.681 23.9642 265.73 24.0563C265.856 24.4597 
266.06 24.8346 266.33 25.1601C267.151 26.0435 268.148 26.7445 269.257 27.2178C270.664 
27.8481 272.132 28.3345 273.637 28.6696C275.289 29.0418 276.965 29.3063 278.652 
29.4614C280.306 29.6293 281.968 29.7134 283.631 29.7134H286.553L287.11 29.6654C287.468 
29.6498 287.824 29.6158 288.178 29.5634C288.862 29.4794 289.516 29.3894 290.128 
29.2755C290.74 29.1615 291.298 29.0475 291.808 28.9215L292.246 28.8075C292.81 28.6576 
292.9 28.3696 292.444 28.2076C291.921 28.0273 291.359 27.9921 290.818 28.1056L290.422 
28.1776C289.954 28.2556 289.468 28.3276 288.958 28.3816C288.448 28.4356 287.908 
28.4836 287.332 28.5196H283.847C282.599 28.4596 281.356 28.3335 280.122 
28.1416C278.959 27.9673 277.812 27.7046 276.69 27.3558C275.747 27.0866 274.844 26.6954 
274.002 26.1919C273.388 25.8515 272.883 25.344 272.545 24.7282C272.432 24.4824 272.382 
24.2122 272.401 23.9423V23.6483C272.395 23.6106 272.395 23.5721 272.401 
23.5344C272.448 23.3894 272.509 23.2489 272.581 23.1144C273.151 21.9806 274.782 
20.8708 277.308 20.0309C277.944 19.8209 278.628 19.623 279.348 19.431C280.068 19.239 
280.847 19.113 281.651 18.9751C282.455 18.8371 283.277 18.7471 284.159 18.6631C285.041 
18.5791 285.899 18.5251 286.805 18.5011H289.51C290.476 18.5011 291.454 18.5851 292.402 
18.6511C294.247 18.7976 296.084 19.044 297.903 19.389C301.364 20.0609 304.328 21.1047 
306.14 22.3885C306.93 22.8675 307.578 23.5488 308.017 24.3622C308.089 24.534 308.149 
24.7104 308.197 24.8901V25.2921C308.203 25.3339 308.203 25.3763 308.197 
25.4181V25.988C308.162 26.1926 308.108 26.3935 308.035 26.5879C307.961 26.7812 307.875 
26.9696 307.777 27.1518C307.669 27.3466 307.547 27.5331 307.411 27.7097C307.116 
28.1149 306.774 28.4834 306.391 28.8075C305.415 29.6086 304.336 30.2745 303.182 
30.7872C299.913 32.221 296.464 33.2019 292.93 33.7028C290.896 34.0147 288.73 34.2487 
286.553 34.3747C285.455 34.4407 284.339 34.4767 283.217 34.4947H279.732C277.332 
34.4347 274.986 34.2847 272.701 34.0567C270.415 33.8288 268.201 33.5168 266.102 
33.1269C262.371 32.4812 258.724 31.4249 255.225 29.9774C253.891 29.4075 252.61 28.7189 
251.398 27.9197C250.452 27.2957 249.606 26.531 248.89 25.652C248.317 24.9748 247.922 
24.164 247.745 23.2944V22.0946C247.789 21.6845 247.883 21.2815 248.027 20.8948C248.192 
20.4783 248.392 20.0769 248.626 19.6949C248.886 19.2767 249.172 18.8759 249.484 
18.4951C250.205 17.6455 251.023 16.8826 251.92 16.2215C254.205 14.5878 256.731 13.3207 
259.407 12.4661C260.163 12.2141 260.949 11.9681 261.764 11.7402C262.58 11.5122 263.39 
11.3022 264.296 11.1043C265.202 10.9063 266.096 10.7263 266.99 10.5644L268.387 
10.3184L269.101 10.2044L269.815 10.1024C270.775 9.96446 271.765 9.84447 272.767 
9.72449L273.517 9.64651L274.272 9.57452L275.796 9.44254L276.612 9.38255L277.422 
9.32256L278.196 9.28056H278.976L279.762 9.19058H288.22C290.196 9.21857 292.128 9.29456 
294.015 9.41854C297.555 9.63458 301.082 10.0351 304.58 10.6184C307.479 11.1038 310.347 
11.7568 313.17 12.5741L313.638 12.706L314.094 12.85L314.976 13.132L315.792 
13.4139L316.602 13.7079C317.658 14.0918 318.642 14.4938 319.529 14.9077C321.033 
15.5764 322.48 16.3669 323.855 17.2713L324.065 17.4153L324.215 17.5893C324.347 17.6793 
324.479 17.7692 324.599 17.8652L324.965 18.1352L325.301 18.4052C325.694 18.7123 
326.071 19.0408 326.428 19.389C326.865 19.8139 327.266 20.2733 327.628 20.7628C327.925 
20.98 328.295 21.0745 328.66 21.0267C329.152 21.0267 329.536 20.8708 329.542 
20.6968C329.624 20.0853 329.585 19.4636 329.428 18.8671V18.8671Z" fill="#FFE96C"/>
<path d="M315.817 33.2344H315.757L315.235 33.5163C313.071 34.6356 310.81 35.5553 
308.48 36.2639C308.006 36.4139 307.52 36.5579 307.016 36.7018C306.206 36.9178 305.39 
37.1398 304.581 37.3377V37.5597C304.581 38.0696 304.215 40.4153 297.766 
42.7849V58.7784C304.215 56.4148 304.581 54.0571 304.581 53.5412V53.3313C305.132 
53.1993 305.66 53.0553 306.206 52.9113L307.016 52.6834L308.48 52.2574C310.805 51.5483 
313.061 50.6266 315.217 49.5038L315.649 49.2699L315.817 33.2344Z" fill="#CC8008"/>
<path d="M245.111 50.7104V40.65C244.134 39.7081 242.292 37.2905 245.111 
34.5129C244.242 34.195 243.396 33.865 242.598 33.5291C240.84 32.8001 239.141 31.9356 
237.517 30.9435V30.9435C237.517 30.9435 225.986 30.7035 216.088 
26.7441V42.7377C225.986 46.6731 237.529 46.937 237.529 46.937C239.162 47.9243 240.866 
48.7886 242.628 49.5226C243.444 49.8586 244.254 54.9818 245.141 55.2937L244.937 
50.7104H245.111Z" fill="#EC9E21"/>
<path d="M283.42 39.8632H279.058C275.591 39.8092 272.123 39.6352 268.734 
39.3293C267.636 39.2273 266.55 39.1133 265.482 38.9873V54.9868C266.556 55.1008 267.642 
55.2208 268.734 55.3168C272.123 55.6227 275.591 55.8027 279.058 
55.8507H283.42V39.8632Z" fill="#CC8008"/>
<path d="M85.5654 241.66C91.4101 242.448 96.3802 241.364 96.6665 239.24C96.9528 
237.116 92.4469 234.755 86.6022 233.967C80.7576 233.18 75.7874 234.263 75.5011 
236.388C75.2148 238.512 79.7208 240.873 85.5654 241.66Z" fill="#D5863B"/>
<defs>
<radialGradient id="paint0_radial_27899_11297" cx="0" cy="0" r="1" 
gradientUnits="userSpaceOnUse" gradientTransform="translate(274.946 276.225) 
rotate(90) scale(30.276 231.467)">
<stop offset="0.274301" stop-color="#79441F"/>
<stop offset="0.904521" stop-color="#BE9C60" stop-opacity="0"/>
</radialGradient>
<linearGradient id="paint1_linear_27899_11297" x1="260.53" y1="142.658" x2="291.966" 
y2="316.754" gradientUnits="userSpaceOnUse">
<stop stop-color="#FFF4DE"/>
<stop offset="0.18" stop-color="#FDECC9"/>
<stop offset="1" stop-color="#FFF2D6"/>
</linearGradient>
<linearGradient id="paint2_linear_27899_11297" x1="260.924" y1="145.034" x2="291.265" 
y2="313.464" gradientUnits="userSpaceOnUse">
<stop stop-color="#FFECC5"/>
<stop offset="0.18" stop-color="#F1D396"/>
<stop offset="1" stop-color="#FFECC5"/>
</linearGradient>
<linearGradient id="paint3_linear_27899_11297" x1="164.031" y1="174.201" x2="368.494" 
y2="262.103" gradientUnits="userSpaceOnUse">
<stop stop-color="#E3E3E3"/>
<stop offset="1" stop-color="#F7F7F7"/>
</linearGradient>
<linearGradient id="paint4_linear_27899_11297" x1="164.031" y1="174.201" x2="368.494" 
y2="262.103" gradientUnits="userSpaceOnUse">
<stop stop-color="#E3E3E3"/>
<stop offset="1" stop-color="#F7F7F7"/>
</linearGradient>
<linearGradient id="paint5_linear_27899_11297" x1="164.537" y1="174.615" x2="368.074" 
y2="262.121" gradientUnits="userSpaceOnUse">
<stop stop-color="#E4E4E4"/>
<stop offset="1" stop-color="#F7F7F7"/>
</linearGradient>
<linearGradient id="paint6_linear_27899_11297" x1="165.044" y1="175.035" x2="367.647" 
y2="262.14" gradientUnits="userSpaceOnUse">
<stop stop-color="#E4E4E4"/>
<stop offset="1" stop-color="#F7F7F7"/>
</linearGradient>
<linearGradient id="paint7_linear_27899_11297" x1="165.557" y1="175.456" x2="367.227" 
y2="262.158" gradientUnits="userSpaceOnUse">
<stop stop-color="#E5E5E5"/>
<stop offset="1" stop-color="#F7F7F7"/>
</linearGradient>
<linearGradient id="paint8_linear_27899_11297" x1="166.064" y1="175.876" x2="366.807" 
y2="262.177" gradientUnits="userSpaceOnUse">
<stop stop-color="#E6E6E6"/>
<stop offset="1" stop-color="#F7F7F7"/>
</linearGradient>
<linearGradient id="paint9_linear_27899_11297" x1="166.571" y1="176.29" x2="366.386" 
y2="262.202" gradientUnits="userSpaceOnUse">
<stop stop-color="#E6E6E6"/>
<stop offset="1" stop-color="#F7F7F7"/>
</linearGradient>
<linearGradient id="paint10_linear_27899_11297" x1="167.077" y1="176.71" x2="365.966" 
y2="262.22" gradientUnits="userSpaceOnUse">
<stop stop-color="#E7E7E7"/>
<stop offset="1" stop-color="#F7F7F7"/>
</linearGradient>
<linearGradient id="paint11_linear_27899_11297" x1="167.586" y1="177.13" x2="365.547" 
y2="262.239" gradientUnits="userSpaceOnUse">
<stop stop-color="#E8E8E8"/>
<stop offset="1" stop-color="#F6F6F6"/>
</linearGradient>
<linearGradient id="paint12_linear_27899_11297" x1="168.091" y1="177.551" x2="365.125" 
y2="262.257" gradientUnits="userSpaceOnUse">
<stop stop-color="#E9E9E9"/>
<stop offset="1" stop-color="#F6F6F6"/>
</linearGradient>
<linearGradient id="paint13_linear_27899_11297" x1="168.598" y1="177.965" x2="364.699" 
y2="262.276" gradientUnits="userSpaceOnUse">
<stop stop-color="#E9E9E9"/>
<stop offset="1" stop-color="#F6F6F6"/>
</linearGradient>
<linearGradient id="paint14_linear_27899_11297" x1="169.104" y1="178.385" x2="364.278" 
y2="262.294" gradientUnits="userSpaceOnUse">
<stop stop-color="#EAEAEA"/>
<stop offset="1" stop-color="#F6F6F6"/>
</linearGradient>
<linearGradient id="paint15_linear_27899_11297" x1="169.617" y1="178.806" x2="363.858" 
y2="262.313" gradientUnits="userSpaceOnUse">
<stop stop-color="#EBEBEB"/>
<stop offset="1" stop-color="#F6F6F6"/>
</linearGradient>
<linearGradient id="paint16_linear_27899_11297" x1="170.124" y1="179.226" x2="363.438" 
y2="262.337" gradientUnits="userSpaceOnUse">
<stop stop-color="#EBEBEB"/>
<stop offset="1" stop-color="#F6F6F6"/>
</linearGradient>
<linearGradient id="paint17_linear_27899_11297" x1="170.631" y1="179.646" x2="363.017" 
y2="262.356" gradientUnits="userSpaceOnUse">
<stop stop-color="#ECECEC"/>
<stop offset="1" stop-color="#F6F6F6"/>
</linearGradient>
<linearGradient id="paint18_linear_27899_11297" x1="171.138" y1="180.06" x2="362.597" 
y2="262.374" gradientUnits="userSpaceOnUse">
<stop stop-color="#EDEDED"/>
<stop offset="1" stop-color="#F6F6F6"/>
</linearGradient>
<linearGradient id="paint19_linear_27899_11297" x1="171.646" y1="180.48" x2="362.172" 
y2="262.393" gradientUnits="userSpaceOnUse">
<stop stop-color="#EDEDED"/>
<stop offset="1" stop-color="#F6F6F6"/>
</linearGradient>
<linearGradient id="paint20_linear_27899_11297" x1="172.151" y1="180.9" x2="361.75" 
y2="262.411" gradientUnits="userSpaceOnUse">
<stop stop-color="#EEEEEE"/>
<stop offset="1" stop-color="#F6F6F6"/>
</linearGradient>
<linearGradient id="paint21_linear_27899_11297" x1="172.658" y1="181.322" x2="361.33" 
y2="262.431" gradientUnits="userSpaceOnUse">
<stop stop-color="#EFEFEF"/>
<stop offset="1" stop-color="#F6F6F6"/>
</linearGradient>
<linearGradient id="paint22_linear_27899_11297" x1="173.165" y1="181.736" x2="360.909" 
y2="262.456" gradientUnits="userSpaceOnUse">
<stop stop-color="#EFEFEF"/>
<stop offset="1" stop-color="#F6F6F6"/>
</linearGradient>
<linearGradient id="paint23_linear_27899_11297" x1="173.673" y1="182.155" x2="360.491" 
y2="262.473" gradientUnits="userSpaceOnUse">
<stop stop-color="#F0F0F0"/>
<stop offset="1" stop-color="#F6F6F6"/>
</linearGradient>
<linearGradient id="paint24_linear_27899_11297" x1="174.185" y1="182.576" x2="360.069" 
y2="262.492" gradientUnits="userSpaceOnUse">
<stop stop-color="#F1F1F1"/>
<stop offset="1" stop-color="#F5F5F5"/>
</linearGradient>
<linearGradient id="paint25_linear_27899_11297" x1="174.691" y1="182.996" x2="359.642" 
y2="262.51" gradientUnits="userSpaceOnUse">
<stop stop-color="#F2F2F2"/>
<stop offset="1" stop-color="#F5F5F5"/>
</linearGradient>
<linearGradient id="paint26_linear_27899_11297" x1="175.2" y1="183.411" x2="359.224" 
y2="262.53" gradientUnits="userSpaceOnUse">
<stop stop-color="#F2F2F2"/>
<stop offset="1" stop-color="#F5F5F5"/>
</linearGradient>
<linearGradient id="paint27_linear_27899_11297" x1="175.707" y1="183.83" x2="358.804" 
y2="262.547" gradientUnits="userSpaceOnUse">
<stop stop-color="#F3F3F3"/>
<stop offset="1" stop-color="#F5F5F5"/>
</linearGradient>
<linearGradient id="paint28_linear_27899_11297" x1="176.212" y1="184.25" x2="358.381" 
y2="262.566" gradientUnits="userSpaceOnUse">
<stop stop-color="#F4F4F4"/>
<stop offset="1" stop-color="#F5F5F5"/>
</linearGradient>
<linearGradient id="paint29_linear_27899_11297" x1="176.72" y1="184.671" x2="357.963" 
y2="262.591" gradientUnits="userSpaceOnUse">
<stop stop-color="#F4F4F4"/>
<stop offset="1" stop-color="#F5F5F5"/>
</linearGradient>
<linearGradient id="paint30_linear_27899_11297" x1="181.49" y1="197.514" x2="384.223" 
y2="261.892" gradientUnits="userSpaceOnUse">
<stop stop-color="#F5F5F5"/>
<stop offset="1" stop-color="#F5F5F5"/>
</linearGradient>
<linearGradient id="paint31_linear_27899_11297" x1="181.72" y1="197.588" x2="383.952" 
y2="261.805" gradientUnits="userSpaceOnUse">
<stop stop-color="#F5F5F5"/>
<stop offset="1" stop-color="#F5F5F5"/>
</linearGradient>
<linearGradient id="paint32_linear_27899_11297" x1="181.956" y1="197.663" x2="383.687" 
y2="261.72" gradientUnits="userSpaceOnUse">
<stop stop-color="#F4F4F4"/>
<stop offset="1" stop-color="#F4F4F4"/>
</linearGradient>
<linearGradient id="paint33_linear_27899_11297" x1="182.189" y1="197.737" x2="383.414" 
y2="261.633" gradientUnits="userSpaceOnUse">
<stop stop-color="#F4F4F4"/>
<stop offset="1" stop-color="#F4F4F4"/>
</linearGradient>
<linearGradient id="paint34_linear_27899_11297" x1="182.424" y1="197.811" x2="383.148" 
y2="261.546" gradientUnits="userSpaceOnUse">
<stop stop-color="#F4F4F4"/>
<stop offset="1" stop-color="#F4F4F4"/>
</linearGradient>
<linearGradient id="paint35_linear_27899_11297" x1="182.658" y1="197.885" x2="382.875" 
y2="261.466" gradientUnits="userSpaceOnUse">
<stop stop-color="#F4F4F4"/>
<stop offset="1" stop-color="#F4F4F4"/>
</linearGradient>
<linearGradient id="paint36_linear_27899_11297" x1="182.888" y1="197.959" x2="382.61" 
y2="261.379" gradientUnits="userSpaceOnUse">
<stop stop-color="#F4F4F4"/>
<stop offset="1" stop-color="#F4F4F4"/>
</linearGradient>
<linearGradient id="paint37_linear_27899_11297" x1="183.123" y1="198.034" x2="382.339" 
y2="261.293" gradientUnits="userSpaceOnUse">
<stop stop-color="#F3F3F3"/>
<stop offset="1" stop-color="#F3F3F3"/>
</linearGradient>
<linearGradient id="paint38_linear_27899_11297" x1="183.357" y1="198.108" x2="382.066" 
y2="261.213" gradientUnits="userSpaceOnUse">
<stop stop-color="#F3F3F3"/>
<stop offset="1" stop-color="#F3F3F3"/>
</linearGradient>
<linearGradient id="paint39_linear_27899_11297" x1="183.592" y1="198.183" x2="381.8" 
y2="261.127" gradientUnits="userSpaceOnUse">
<stop stop-color="#F3F3F3"/>
<stop offset="1" stop-color="#F3F3F3"/>
</linearGradient>
<linearGradient id="paint40_linear_27899_11297" x1="183.82" y1="198.256" x2="381.528" 
y2="261.039" gradientUnits="userSpaceOnUse">
<stop stop-color="#F3F3F3"/>
<stop offset="1" stop-color="#F3F3F3"/>
</linearGradient>
<linearGradient id="paint41_linear_27899_11297" x1="184.056" y1="198.33" x2="381.263" 
y2="260.953" gradientUnits="userSpaceOnUse">
<stop stop-color="#F3F3F3"/>
<stop offset="1" stop-color="#F3F3F3"/>
</linearGradient>
<linearGradient id="paint42_linear_27899_11297" x1="184.291" y1="198.405" x2="380.991" 
y2="260.867" gradientUnits="userSpaceOnUse">
<stop stop-color="#F3F3F3"/>
<stop offset="1" stop-color="#F3F3F3"/>
</linearGradient>
<linearGradient id="paint43_linear_27899_11297" x1="184.526" y1="198.479" x2="380.726" 
y2="260.78" gradientUnits="userSpaceOnUse">
<stop stop-color="#F2F2F2"/>
<stop offset="1" stop-color="#F2F2F2"/>
</linearGradient>
<linearGradient id="paint44_linear_27899_11297" x1="184.761" y1="198.553" x2="380.454" 
y2="260.7" gradientUnits="userSpaceOnUse">
<stop stop-color="#F2F2F2"/>
<stop offset="1" stop-color="#F2F2F2"/>
</linearGradient>
<linearGradient id="paint45_linear_27899_11297" x1="184.99" y1="198.627" x2="380.188" 
y2="260.613" gradientUnits="userSpaceOnUse">
<stop stop-color="#F2F2F2"/>
<stop offset="1" stop-color="#F2F2F2"/>
</linearGradient>
<linearGradient id="paint46_linear_27899_11297" x1="185.225" y1="198.701" x2="379.917" 
y2="260.526" gradientUnits="userSpaceOnUse">
<stop stop-color="#F2F2F2"/>
<stop offset="1" stop-color="#F2F2F2"/>
</linearGradient>
<linearGradient id="paint47_linear_27899_11297" x1="185.458" y1="198.776" x2="379.649" 
y2="260.44" gradientUnits="userSpaceOnUse">
<stop stop-color="#F2F2F2"/>
<stop offset="1" stop-color="#F2F2F2"/>
</linearGradient>
<linearGradient id="paint48_linear_27899_11297" x1="185.694" y1="198.85" x2="379.378" 
y2="260.354" gradientUnits="userSpaceOnUse">
<stop stop-color="#F1F1F1"/>
<stop offset="1" stop-color="#F1F1F1"/>
</linearGradient>
<linearGradient id="paint49_linear_27899_11297" x1="185.928" y1="198.924" x2="379.112" 
y2="260.267" gradientUnits="userSpaceOnUse">
<stop stop-color="#F1F1F1"/>
<stop offset="1" stop-color="#F1F1F1"/>
</linearGradient>
<linearGradient id="paint50_linear_27899_11297" x1="186.163" y1="198.998" x2="378.84" 
y2="260.187" gradientUnits="userSpaceOnUse">
<stop stop-color="#F1F1F1"/>
<stop offset="1" stop-color="#F1F1F1"/>
</linearGradient>
<linearGradient id="paint51_linear_27899_11297" x1="186.393" y1="199.071" x2="378.575" 
y2="260.1" gradientUnits="userSpaceOnUse">
<stop stop-color="#F1F1F1"/>
<stop offset="1" stop-color="#F1F1F1"/>
</linearGradient>
<linearGradient id="paint52_linear_27899_11297" x1="186.627" y1="199.146" x2="378.302" 
y2="260.013" gradientUnits="userSpaceOnUse">
<stop stop-color="#F1F1F1"/>
<stop offset="1" stop-color="#F1F1F1"/>
</linearGradient>
<linearGradient id="paint53_linear_27899_11297" x1="186.861" y1="199.221" x2="378.036" 
y2="259.927" gradientUnits="userSpaceOnUse">
<stop stop-color="#F0F0F0"/>
<stop offset="1" stop-color="#F0F0F0"/>
</linearGradient>
<linearGradient id="paint54_linear_27899_11297" x1="187.096" y1="199.294" x2="377.764" 
y2="259.841" gradientUnits="userSpaceOnUse">
<stop stop-color="#F0F0F0"/>
<stop offset="1" stop-color="#F0F0F0"/>
</linearGradient>
<linearGradient id="paint55_linear_27899_11297" x1="187.332" y1="199.369" x2="377.499" 
y2="259.76" gradientUnits="userSpaceOnUse">
<stop stop-color="#F0F0F0"/>
<stop offset="1" stop-color="#F0F0F0"/>
</linearGradient>
<radialGradient id="paint56_radial_27899_11297" cx="0" cy="0" r="1" 
gradientUnits="userSpaceOnUse" gradientTransform="translate(274.726 232.616) 
rotate(90) scale(26.8777 181.094)">
<stop offset="0.274301" stop-color="#79441F"/>
<stop offset="0.904521" stop-color="#BE9C60" stop-opacity="0"/>
</radialGradient>
<linearGradient id="paint57_linear_27899_11297" x1="304.978" y1="218.452" x2="306.91" 
y2="250.139" gradientUnits="userSpaceOnUse">
<stop stop-color="#C16526"/>
<stop offset="1" stop-color="#F9AE56"/>
</linearGradient>
<linearGradient id="paint58_linear_27899_11297" x1="219.107" y1="222.189" x2="222.197" 
y2="273.18" gradientUnits="userSpaceOnUse">
<stop stop-color="#C16526"/>
<stop offset="1" stop-color="#F9AE56"/>
</linearGradient>
<radialGradient id="paint59_radial_27899_11297" cx="0" cy="0" r="1" 
gradientUnits="userSpaceOnUse" gradientTransform="translate(274.944 41.352) rotate(90) 
scale(18.4411 85.8887)">
<stop offset="0.63" stop-color="#7A4018"/>
<stop offset="1" stop-color="#764022" stop-opacity="0"/>
</radialGradient>
<clipPath id="clip0_27899_11297">
<rect width="556.88" height="144.628" fill="white" transform="translate(0 142.457)"/>
</clipPath>
</defs>
</svg>

