<svg xmlns="http://www.w3.org/2000/svg" width="800" height="225" viewBox="0 0 800 225" fill="none">
<rect width="800" height="224" fill="#105AC1"/>
<path fill-rule="evenodd" clip-rule="evenodd" d="M508.731 224.007V209.137H458.742V224.007H456.777V209.137H406.784V224.007H404.819V209.137H354.829V224.007H352.865V209.137H302.683V224.007H300.718V209.137H263V207.172H300.718V187.754H263V185.79H300.718L300.718 166.373H263V164.409H300.718V144.991H263V143.027H300.718V123.61H263V121.645H300.718V102.227H263V100.263H300.718V80.8458H263V78.8813H300.718V59.4633H263V57.4988H300.718V38.0823H263V36.1178H300.718V16.7013H263V14.7368H300.718V2H302.683V14.7368H352.865V2H354.829V14.7368H404.819V2H406.784V14.7368H456.777V2H458.742V14.7368H508.731V2H510.696V14.7368H560.682V2H562.646V14.7368H612.636V2H614.6V14.7368H664.59V2H666.555V14.7368H716.544V2H718.509V14.7368H768.502V2H770.467V14.7368H800.094V16.7013H770.467V36.1178H800.094V38.0823H770.467V57.4988H800.094V59.4633H770.467V78.8813H800.094V80.8458H770.467V100.263H800.094V102.227H770.467V121.645H800.094V123.61H770.467V143.027H800.094V144.991H770.467V164.409H800.094V166.373H770.467V185.79H800.094V187.754H770.467V207.172H800.094V209.137H770.467V224.007H768.502V209.137H718.509V224.007H716.544V209.137H666.555V224.007H664.59V209.137H614.6V224.007H612.636V209.137H562.646V224.007H560.682V209.137H510.696V224.007H508.731ZM562.646 207.172H612.636V187.754H562.646V207.172ZM560.682 187.754V207.172H510.696V187.754H560.682ZM562.646 185.79H612.636V166.373H562.646V185.79ZM560.682 166.373V185.79H510.696V166.373H560.682ZM562.646 164.409H612.636V144.991H562.646V164.409ZM560.682 144.991V164.409H510.696V144.991H560.682ZM562.646 143.027H612.636V123.61H562.646V143.027ZM560.682 123.61V143.027H510.696V123.61H560.682ZM562.646 121.645H612.636V102.227H562.646V121.645ZM560.682 102.227V121.645H510.696V102.227H560.682ZM562.646 100.263H612.636V80.8458H562.646V100.263ZM560.682 80.8458V100.263H510.696V80.8458H560.682ZM562.646 78.8813H612.636V59.4633H562.646V78.8813ZM560.682 59.4633V78.8813H510.696V59.4633H560.682ZM562.646 57.4988H612.636V38.0823H562.646V57.4988ZM560.682 38.0823V57.4988H510.696V38.0823H560.682ZM562.646 36.1178H612.636V16.7013H562.646V36.1178ZM560.682 16.7013V36.1178H510.696V16.7013H560.682ZM614.6 38.0823V57.4988H664.59V38.0823H614.6ZM614.6 59.4633V78.8813H664.59V59.4633H614.6ZM614.6 80.8458V100.263H664.59V80.8458H614.6ZM614.6 102.227V121.645H664.59V102.227H614.6ZM614.6 123.61V143.027H664.59V123.61H614.6ZM614.6 144.991V164.409H664.59V144.991H614.6ZM614.6 166.373V185.79H664.59V166.373H614.6ZM614.6 187.754V207.172H664.59V187.754H614.6ZM614.6 16.7013V36.1178H664.59V16.7013H614.6ZM666.555 207.172H716.544V187.754H666.555V207.172ZM666.555 185.79H716.544V166.373H666.555V185.79ZM666.555 164.409H716.544V144.991H666.555V164.409ZM666.555 143.027H716.544V123.61H666.555V143.027ZM666.555 121.645H716.544V102.227H666.555V121.645ZM666.555 100.263H716.544V80.8458H666.555V100.263ZM666.555 78.8813H716.544V59.4633H666.555V78.8813ZM666.555 57.4988H716.544V38.0823H666.555V57.4988ZM666.555 36.1178H716.544V16.7013H666.555V36.1178ZM718.509 38.0823V57.4988H768.502V38.0823H718.509ZM718.509 59.4633V78.8813H768.502V59.4633H718.509ZM718.509 80.8458V100.263H768.502V80.8458H718.509ZM718.509 102.227V121.645H768.502V102.227H718.509ZM718.509 123.61V143.027H768.502V123.61H718.509ZM718.509 144.991V164.409H768.502V144.991H718.509ZM718.509 166.373V185.79H768.502V166.373H718.509ZM718.509 187.754V207.172H768.502V187.754H718.509ZM718.509 16.7013V36.1178H768.502V16.7013H718.509ZM352.865 207.172H302.683V187.754H352.865V207.172ZM352.865 185.79H302.683L302.683 166.373H352.865V185.79ZM352.865 164.409H302.683V144.991H352.865V164.409ZM352.865 143.027H302.683V123.61H352.865V143.027ZM352.865 121.645H302.683V102.227H352.865L352.865 121.645ZM352.865 100.263H302.683V80.8458H352.865V100.263ZM352.865 78.8813H302.683V59.4633H352.865V78.8813ZM352.865 57.4988H302.683V38.0823H352.865V57.4988ZM352.865 36.1178H302.683V16.7013H352.865V36.1178ZM354.829 16.7013V36.1178H404.819V16.7013H354.829ZM354.829 38.0823V57.4988H404.819V38.0823H354.829ZM354.829 59.4633V78.8813H404.819V59.4633H354.829ZM354.829 80.8458V100.263H404.819V80.8458H354.829ZM354.829 102.227L354.829 121.645H404.819L404.819 102.227H354.829ZM354.829 123.61V143.027H404.819V123.61H354.829ZM354.829 144.991V164.409H404.819V144.991H354.829ZM354.829 166.373V185.79H404.819V166.373H354.829ZM354.829 187.754V207.172H404.819V187.754H354.829ZM456.777 207.172H406.784V187.754H456.777V207.172ZM456.777 185.79H406.784V166.373H456.777V185.79ZM456.777 164.409H406.784V144.991H456.777V164.409ZM456.777 143.027H406.784V123.61H456.777V143.027ZM456.777 121.645H406.784V102.227H456.777L456.777 121.645ZM456.777 100.263H406.784V80.8458H456.777V100.263ZM456.777 78.8813H406.784V59.4633H456.777V78.8813ZM456.777 57.4988H406.784V38.0823H456.777V57.4988ZM456.777 36.1178H406.784V16.7013H456.777V36.1178ZM458.742 16.7013V36.1178H508.731V16.7013H458.742ZM458.742 38.0823V57.4988H508.731V38.0823H458.742ZM458.742 59.4633V78.8813H508.731V59.4633H458.742ZM458.742 80.8458V100.263H508.731V80.8458H458.742ZM458.742 102.227V121.645H508.731L508.731 102.227H458.742ZM458.742 123.61V143.027H508.731V123.61H458.742ZM458.742 144.991V164.409H508.731V144.991H458.742ZM458.742 166.373V185.79H508.731V166.373H458.742ZM458.742 187.754V207.172H508.731V187.754H458.742Z" fill="url(#paint0_radial)" fill-opacity="0.2"/>
<rect width="12" height="282" transform="matrix(-4.37114e-08 -1 -1 4.37114e-08 693 86)" fill="url(#paint1_linear)"/>
<circle r="5.99936" transform="matrix(-4.37114e-08 -1 -1 4.37114e-08 692.485 79.9997)" fill="#17DDA2"/>
<rect width="8.1598" height="191.755" transform="matrix(-4.37114e-08 -1 -1 4.37114e-08 745.754 169.16)" fill="url(#paint2_linear)"/>
<circle r="4.07946" transform="matrix(-4.37114e-08 -1 -1 4.37114e-08 745.405 165.08)" fill="#FFC865"/>
<rect width="8.1598" height="191.755" transform="matrix(-4.37114e-08 -1 -1 4.37114e-08 628.754 204.16)" fill="url(#paint3_linear)"/>
<circle r="4.07946" transform="matrix(-4.37114e-08 -1 -1 4.37114e-08 628.405 200.08)" fill="#FC9E5B"/>
<rect width="8.1598" height="191.755" transform="matrix(-4.37114e-08 -1 -1 4.37114e-08 534.754 183.16)" fill="url(#paint4_linear)"/>
<circle r="4.07946" transform="matrix(-4.37114e-08 -1 -1 4.37114e-08 534.405 179.08)" fill="#24AFEA"/>
<rect width="8.1598" height="191.755" transform="matrix(-4.37114e-08 -1 -1 4.37114e-08 574.754 34.1599)" fill="url(#paint5_linear)"/>
<circle r="4.07946" transform="matrix(-4.37114e-08 -1 -1 4.37114e-08 574.405 30.0797)" fill="#FC9E5B"/>
<defs>
<radialGradient id="paint0_radial" cx="0" cy="0" r="1" gradientUnits="userSpaceOnUse" gradientTransform="translate(638 116.5) rotate(90) scale(107.5 260.071)">
<stop offset="0.444739" stop-color="#4A9EEC"/>
<stop offset="1" stop-color="#1866D4" stop-opacity="0"/>
</radialGradient>
<linearGradient id="paint1_linear" x1="6.00001" y1="0" x2="6.00001" y2="282" gradientUnits="userSpaceOnUse">
<stop stop-color="#13B5BF"/>
<stop offset="1" stop-color="#1866D4" stop-opacity="0"/>
</linearGradient>
<linearGradient id="paint2_linear" x1="4.0799" y1="0" x2="4.0799" y2="191.755" gradientUnits="userSpaceOnUse">
<stop stop-color="#FB925B"/>
<stop offset="1" stop-color="#1866D4" stop-opacity="0"/>
</linearGradient>
<linearGradient id="paint3_linear" x1="4.0799" y1="0" x2="4.0799" y2="191.755" gradientUnits="userSpaceOnUse">
<stop stop-color="#FC6D5B"/>
<stop offset="1" stop-color="#1866D4" stop-opacity="0"/>
</linearGradient>
<linearGradient id="paint4_linear" x1="4.0799" y1="0" x2="4.0799" y2="191.755" gradientUnits="userSpaceOnUse">
<stop stop-color="#308ADD"/>
<stop offset="1" stop-color="#1866D4" stop-opacity="0"/>
</linearGradient>
<linearGradient id="paint5_linear" x1="4.0799" y1="0" x2="4.0799" y2="191.755" gradientUnits="userSpaceOnUse">
<stop stop-color="#FC6D5B"/>
<stop offset="1" stop-color="#1866D4" stop-opacity="0"/>
</linearGradient>
</defs>
</svg>