<svg xmlns="http://www.w3.org/2000/svg" width="502" height="304" viewBox="0 0 502 304" fill="none">
<path d="M280.145 133.691L340.695 106.678L401.245 133.691L340.695 160.711L280.145 133.691Z" fill="#FFEB53"/>
<path d="M340.389 143.191C333.202 143.191 327.371 140.362 327.371 136.871V143.191C327.371 146.681 333.196 149.511 340.389 149.511C347.583 149.511 353.408 146.681 353.408 143.191V136.871C353.408 140.362 347.583 143.191 340.389 143.191Z" fill="#FFD73F"/>
<path d="M340.389 143.19C347.579 143.19 353.408 140.361 353.408 136.871C353.408 133.38 347.579 130.551 340.389 130.551C333.2 130.551 327.371 133.38 327.371 136.871C327.371 140.361 333.2 143.19 340.389 143.19Z" fill="#FFF55D"/>
<path d="M370.971 129.849C363.951 129.849 358.256 127.02 358.256 123.529V129.849C358.256 133.34 363.945 136.169 370.971 136.169C377.998 136.169 383.687 133.34 383.687 129.849V123.529C383.687 127.02 377.998 129.849 370.971 129.849Z" fill="#FFD73F"/>
<path d="M370.971 129.848C377.994 129.848 383.687 127.019 383.687 123.529C383.687 120.038 377.994 117.209 370.971 117.209C363.949 117.209 358.256 120.038 358.256 123.529C358.256 127.019 363.949 129.848 370.971 129.848Z" fill="#FFF55D"/>
<path d="M340.997 116.507C333.809 116.507 327.979 113.678 327.979 110.188V116.507C327.979 119.998 333.803 122.827 340.997 122.827C348.19 122.827 354.015 119.998 354.015 116.507V110.188C354.015 113.678 348.19 116.507 340.997 116.507Z" fill="#FFD73F"/>
<path d="M340.997 116.507C348.187 116.507 354.015 113.677 354.015 110.187C354.015 106.697 348.187 103.867 340.997 103.867C333.807 103.867 327.979 106.697 327.979 110.187C327.979 113.677 333.807 116.507 340.997 116.507Z" fill="#FFF55D"/>
<path d="M310.421 129.849C303.4 129.849 297.705 127.02 297.705 123.529V129.849C297.705 133.34 303.394 136.169 310.421 136.169C317.447 136.169 323.136 133.34 323.136 129.849V123.529C323.136 127.02 317.447 129.849 310.421 129.849Z" fill="#FFD73F"/>
<path d="M310.421 129.848C317.443 129.848 323.136 127.019 323.136 123.529C323.136 120.038 317.443 117.209 310.421 117.209C303.398 117.209 297.705 120.038 297.705 123.529C297.705 127.019 303.398 129.848 310.421 129.848Z" fill="#FFF55D"/>
<path d="M340.695 160.71L280.145 133.689V168.265L340.695 195.279V160.71Z" fill="#FB755A"/>
<path d="M340.695 160.71L401.246 133.689V168.265L340.695 195.279V160.71Z" fill="#2A57B0"/>
<path d="M280.145 99.2829L340.695 72.2695L401.245 99.2829L340.695 126.303L280.145 99.2829Z" fill="#FFEB53"/>
<path d="M340.389 108.785C333.202 108.785 327.371 105.955 327.371 102.465V108.785C327.371 112.275 333.196 115.104 340.389 115.104C347.583 115.104 353.408 112.275 353.408 108.785V102.465C353.408 105.955 347.583 108.785 340.389 108.785Z" fill="#FFD73F"/>
<path d="M340.389 108.784C347.579 108.784 353.408 105.955 353.408 102.464C353.408 98.974 347.579 96.1445 340.389 96.1445C333.2 96.1445 327.371 98.974 327.371 102.464C327.371 105.955 333.2 108.784 340.389 108.784Z" fill="#FFF55D"/>
<path d="M370.969 95.4408C363.949 95.4408 358.254 92.6116 358.254 89.1211V95.4408C358.254 98.9313 363.943 101.761 370.969 101.761C377.996 101.761 383.685 98.9313 383.685 95.4408V89.1211C383.685 92.6116 377.996 95.4408 370.969 95.4408Z" fill="#FFD73F"/>
<path d="M370.969 95.4422C377.992 95.4422 383.685 92.6128 383.685 89.1225C383.685 85.6322 377.992 82.8027 370.969 82.8027C363.947 82.8027 358.254 85.6322 358.254 89.1225C358.254 92.6128 363.947 95.4422 370.969 95.4422Z" fill="#FFF55D"/>
<path d="M340.997 82.101C333.809 82.101 327.979 79.2718 327.979 75.7812V82.101C327.979 85.5915 333.803 88.4207 340.997 88.4207C348.19 88.4207 354.015 85.5915 354.015 82.101V75.7812C354.015 79.2718 348.19 82.101 340.997 82.101Z" fill="#FFD73F"/>
<path d="M340.997 82.1004C348.187 82.1004 354.015 79.271 354.015 75.7807C354.015 72.2904 348.187 69.4609 340.997 69.4609C333.807 69.4609 327.979 72.2904 327.979 75.7807C327.979 79.271 333.807 82.1004 340.997 82.1004Z" fill="#FFF55D"/>
<path d="M310.421 95.4408C303.4 95.4408 297.705 92.6116 297.705 89.1211V95.4408C297.705 98.9313 303.394 101.761 310.421 101.761C317.447 101.761 323.136 98.9313 323.136 95.4408V89.1211C323.136 92.6116 317.447 95.4408 310.421 95.4408Z" fill="#FFD73F"/>
<path d="M310.421 95.4422C317.443 95.4422 323.136 92.6128 323.136 89.1225C323.136 85.6322 317.443 82.8027 310.421 82.8027C303.398 82.8027 297.705 85.6322 297.705 89.1225C297.705 92.6128 303.398 95.4422 310.421 95.4422Z" fill="#FFF55D"/>
<path d="M340.695 126.304L280.145 99.2832V133.859L340.695 160.873V126.304Z" fill="#CE64CE"/>
<path d="M340.695 126.304L401.246 99.2832V133.859L340.695 160.873V126.304Z" fill="#EC6D13"/>
<path d="M280.145 64.8747L340.695 37.8613L401.245 64.8747L340.695 91.8951L280.145 64.8747Z" fill="#E0528D"/>
<path d="M370.971 61.0346C363.951 61.0346 358.256 58.2053 358.256 54.7148V61.0346C358.256 64.5251 363.945 67.3543 370.971 67.3543C377.998 67.3543 383.687 64.5251 383.687 61.0346V54.7148C383.687 58.2053 377.998 61.0346 370.971 61.0346Z" fill="#C32F6D"/>
<path d="M370.971 61.034C377.994 61.034 383.687 58.2046 383.687 54.7143C383.687 51.224 377.994 48.3945 370.971 48.3945C363.949 48.3945 358.256 51.224 358.256 54.7143C358.256 58.2046 363.949 61.034 370.971 61.034Z" fill="#F2639F"/>
<path d="M340.999 47.6928C333.811 47.6928 327.98 44.8635 327.98 41.373V47.6928C327.98 51.1833 333.805 54.0125 340.999 54.0125C348.192 54.0125 354.017 51.1833 354.017 47.6928V41.373C354.017 44.8635 348.192 47.6928 340.999 47.6928Z" fill="#C32F6D"/>
<path d="M340.999 47.6922C348.189 47.6922 354.017 44.8628 354.017 41.3725C354.017 37.8822 348.189 35.0527 340.999 35.0527C333.809 35.0527 327.98 37.8822 327.98 41.3725C327.98 44.8628 333.809 47.6922 340.999 47.6922Z" fill="#F2639F"/>
<path d="M310.421 61.0346C303.4 61.0346 297.705 58.2053 297.705 54.7148V61.0346C297.705 64.5251 303.394 67.3543 310.421 67.3543C317.447 67.3543 323.136 64.5251 323.136 61.0346V54.7148C323.136 58.2053 317.447 61.0346 310.421 61.0346Z" fill="#C32F6D"/>
<path d="M310.421 61.034C317.443 61.034 323.136 58.2046 323.136 54.7143C323.136 51.224 317.443 48.3945 310.421 48.3945C303.398 48.3945 297.705 51.224 297.705 54.7143C297.705 58.2046 303.398 61.034 310.421 61.034Z" fill="#F2639F"/>
<path d="M340.695 91.8944L280.145 64.874V99.45L340.695 126.463V91.8944Z" fill="#FFD73F"/>
<path d="M340.695 91.8944L401.246 64.874V99.45L340.695 126.463V91.8944Z" fill="#C32F6D"/>
<path d="M280.145 30.7624L340.695 3.74902L401.245 30.7624L340.695 57.7827L280.145 30.7624Z" fill="#FE924E"/>
<path d="M370.971 26.9223C363.951 26.9223 358.256 24.093 358.256 20.6025V26.9223C358.256 30.4128 363.945 33.242 370.971 33.242C377.998 33.242 383.687 30.4128 383.687 26.9223V20.6025C383.687 24.093 377.998 26.9223 370.971 26.9223Z" fill="#EF7325"/>
<path d="M370.971 26.9217C377.994 26.9217 383.687 24.0923 383.687 20.602C383.687 17.1117 377.994 14.2822 370.971 14.2822C363.949 14.2822 358.256 17.1117 358.256 20.602C358.256 24.0923 363.949 26.9217 370.971 26.9217Z" fill="#FEC59C"/>
<path d="M370.971 25.9813C377.994 25.9813 383.687 23.1518 383.687 19.6615C383.687 16.1712 377.994 13.3418 370.971 13.3418C363.949 13.3418 358.256 16.1712 358.256 19.6615C358.256 23.1518 363.949 25.9813 370.971 25.9813Z" fill="#FFA667"/>
<path d="M340.999 13.5805C333.811 13.5805 327.98 10.7512 327.98 7.26074V13.5805C327.98 17.071 333.805 19.9002 340.999 19.9002C348.192 19.9002 354.017 17.071 354.017 13.5805V7.26074C354.017 10.7512 348.192 13.5805 340.999 13.5805Z" fill="#EF7325"/>
<path d="M340.999 13.5799C348.189 13.5799 354.017 10.7505 354.017 7.26016C354.017 3.76987 348.189 0.94043 340.999 0.94043C333.809 0.94043 327.98 3.76987 327.98 7.26016C327.98 10.7505 333.809 13.5799 340.999 13.5799Z" fill="#FEC59C"/>
<path d="M340.999 12.6395C348.189 12.6395 354.017 9.81003 354.017 6.31973C354.017 2.82944 348.189 0 340.999 0C333.809 0 327.98 2.82944 327.98 6.31973C327.98 9.81003 333.809 12.6395 340.999 12.6395Z" fill="#FFA667"/>
<path d="M310.421 26.9223C303.4 26.9223 297.705 24.093 297.705 20.6025V26.9223C297.705 30.4128 303.394 33.242 310.421 33.242C317.447 33.242 323.136 30.4128 323.136 26.9223V20.6025C323.136 24.093 317.447 26.9223 310.421 26.9223Z" fill="#EF7325"/>
<path d="M310.421 26.9217C317.443 26.9217 323.136 24.0923 323.136 20.602C323.136 17.1117 317.443 14.2822 310.421 14.2822C303.398 14.2822 297.705 17.1117 297.705 20.602C297.705 24.0923 303.398 26.9217 310.421 26.9217Z" fill="#FEC59C"/>
<path d="M310.421 25.9813C317.443 25.9813 323.136 23.1518 323.136 19.6615C323.136 16.1712 317.443 13.3418 310.421 13.3418C303.398 13.3418 297.705 16.1712 297.705 19.6615C297.705 23.1518 303.398 25.9813 310.421 25.9813Z" fill="#FFA667"/>
<path d="M340.695 57.7831L280.145 30.7627V65.3387L340.695 92.352V57.7831Z" fill="#F57A2D"/>
<path d="M340.695 57.7831L401.246 30.7627V65.3387L340.695 92.352V57.7831Z" fill="#E44C2F"/>
<path d="M219.736 160.685L280.287 133.672L340.837 160.685L280.287 187.706L219.736 160.685Z" fill="#FFEB53"/>
<path d="M279.981 170.185C272.794 170.185 266.963 167.356 266.963 163.865V170.185C266.963 173.675 272.788 176.505 279.981 176.505C287.175 176.505 293 173.675 293 170.185V163.865C293 167.356 287.175 170.185 279.981 170.185Z" fill="#FFD73F"/>
<path d="M279.981 170.184C287.171 170.184 293 167.355 293 163.865C293 160.374 287.171 157.545 279.981 157.545C272.791 157.545 266.963 160.374 266.963 163.865C266.963 167.355 272.791 170.184 279.981 170.184Z" fill="#FFF55D"/>
<path d="M310.561 156.845C303.541 156.845 297.846 154.016 297.846 150.525V156.845C297.846 160.336 303.535 163.165 310.561 163.165C317.587 163.165 323.277 160.336 323.277 156.845V150.525C323.277 154.016 317.587 156.845 310.561 156.845Z" fill="#FFD73F"/>
<path d="M310.561 156.845C317.584 156.845 323.277 154.015 323.277 150.525C323.277 147.035 317.584 144.205 310.561 144.205C303.539 144.205 297.846 147.035 297.846 150.525C297.846 154.015 303.539 156.845 310.561 156.845Z" fill="#FFF55D"/>
<path d="M280.593 143.503C273.405 143.503 267.574 140.674 267.574 137.184V143.503C267.574 146.994 273.399 149.823 280.593 149.823C287.786 149.823 293.611 146.994 293.611 143.503V137.184C293.611 140.674 287.786 143.503 280.593 143.503Z" fill="#FFD73F"/>
<path d="M280.593 143.503C287.782 143.503 293.611 140.673 293.611 137.183C293.611 133.693 287.782 130.863 280.593 130.863C273.403 130.863 267.574 133.693 267.574 137.183C267.574 140.673 273.403 143.503 280.593 143.503Z" fill="#FFF55D"/>
<path d="M250.012 156.845C242.992 156.845 237.297 154.016 237.297 150.525V156.845C237.297 160.336 242.986 163.165 250.012 163.165C257.039 163.165 262.728 160.336 262.728 156.845V150.525C262.728 154.016 257.039 156.845 250.012 156.845Z" fill="#FFD73F"/>
<path d="M250.012 156.845C257.035 156.845 262.728 154.015 262.728 150.525C262.728 147.035 257.035 144.205 250.012 144.205C242.99 144.205 237.297 147.035 237.297 150.525C237.297 154.015 242.99 156.845 250.012 156.845Z" fill="#FFF55D"/>
<path d="M280.287 187.706L219.736 160.686V195.262L280.287 222.275V187.706Z" fill="#FB755A"/>
<path d="M280.287 187.706L340.837 160.686V195.262L280.287 222.275V187.706Z" fill="#E44C2F"/>
<path d="M219.736 126.279L280.287 99.2656L340.837 126.279L280.287 153.299L219.736 126.279Z" fill="#FFEB53"/>
<path d="M279.981 135.779C272.794 135.779 266.963 132.949 266.963 129.459V135.779C266.963 139.269 272.788 142.098 279.981 142.098C287.175 142.098 293 139.269 293 135.779V129.459C293 132.949 287.175 135.779 279.981 135.779Z" fill="#FFD73F"/>
<path d="M279.981 135.778C287.171 135.778 293 132.949 293 129.458C293 125.968 287.171 123.139 279.981 123.139C272.791 123.139 266.963 125.968 266.963 129.458C266.963 132.949 272.791 135.778 279.981 135.778Z" fill="#FFF55D"/>
<path d="M310.559 122.437C303.539 122.437 297.844 119.608 297.844 116.117V122.437C297.844 125.927 303.533 128.757 310.559 128.757C317.586 128.757 323.275 125.927 323.275 122.437V116.117C323.275 119.608 317.586 122.437 310.559 122.437Z" fill="#FFD73F"/>
<path d="M310.559 122.438C317.582 122.438 323.275 119.609 323.275 116.119C323.275 112.628 317.582 109.799 310.559 109.799C303.537 109.799 297.844 112.628 297.844 116.119C297.844 119.609 303.537 122.438 310.559 122.438Z" fill="#FFF55D"/>
<path d="M280.591 109.097C273.403 109.097 267.572 106.268 267.572 102.777V109.097C267.572 112.588 273.397 115.417 280.591 115.417C287.784 115.417 293.609 112.588 293.609 109.097V102.777C293.609 106.268 287.784 109.097 280.591 109.097Z" fill="#FFD73F"/>
<path d="M280.591 109.096C287.78 109.096 293.609 106.267 293.609 102.777C293.609 99.2865 287.78 96.457 280.591 96.457C273.401 96.457 267.572 99.2865 267.572 102.777C267.572 106.267 273.401 109.096 280.591 109.096Z" fill="#FFF55D"/>
<path d="M250.012 122.437C242.992 122.437 237.297 119.608 237.297 116.117V122.437C237.297 125.927 242.986 128.757 250.012 128.757C257.039 128.757 262.728 125.927 262.728 122.437V116.117C262.728 119.608 257.039 122.437 250.012 122.437Z" fill="#FFD73F"/>
<path d="M250.012 122.438C257.035 122.438 262.728 119.609 262.728 116.119C262.728 112.628 257.035 109.799 250.012 109.799C242.99 109.799 237.297 112.628 237.297 116.119C237.297 119.609 242.99 122.438 250.012 122.438Z" fill="#FFF55D"/>
<path d="M280.287 153.3L219.736 126.279V160.855L280.287 187.869V153.3Z" fill="#CE64CE"/>
<path d="M280.287 153.3L340.837 126.279V160.855L280.287 187.869V153.3Z" fill="#A131A1"/>
<path d="M219.736 91.8708L280.287 64.8574L340.837 91.8708L280.287 118.891L219.736 91.8708Z" fill="#FFEB53"/>
<path d="M279.981 101.372C272.794 101.372 266.963 98.5432 266.963 95.0527V101.372C266.963 104.863 272.788 107.692 279.981 107.692C287.175 107.692 293 104.863 293 101.372V95.0527C293 98.5432 287.175 101.372 279.981 101.372Z" fill="#FED538"/>
<path d="M279.981 101.372C287.171 101.372 293 98.5424 293 95.0522C293 91.5619 287.171 88.7324 279.981 88.7324C272.791 88.7324 266.963 91.5619 266.963 95.0522C266.963 98.5424 272.791 101.372 279.981 101.372Z" fill="#FFFAA6"/>
<path d="M310.561 88.0307C303.541 88.0307 297.846 85.2014 297.846 81.7109V88.0307C297.846 91.5212 303.535 94.3504 310.561 94.3504C317.587 94.3504 323.277 91.5212 323.277 88.0307V81.7109C323.277 85.2014 317.587 88.0307 310.561 88.0307Z" fill="#FED538"/>
<path d="M310.561 88.0301C317.584 88.0301 323.277 85.2007 323.277 81.7104C323.277 78.2201 317.584 75.3906 310.561 75.3906C303.539 75.3906 297.846 78.2201 297.846 81.7104C297.846 85.2007 303.539 88.0301 310.561 88.0301Z" fill="#FFFAA6"/>
<path d="M280.593 74.6908C273.405 74.6908 267.574 71.8616 267.574 68.3711V74.6908C267.574 78.1813 273.399 81.0106 280.593 81.0106C287.786 81.0106 293.611 78.1813 293.611 74.6908V68.3711C293.611 71.8616 287.786 74.6908 280.593 74.6908Z" fill="#FED538"/>
<path d="M280.593 74.6902C287.782 74.6902 293.611 71.8608 293.611 68.3705C293.611 64.8802 287.782 62.0508 280.593 62.0508C273.403 62.0508 267.574 64.8802 267.574 68.3705C267.574 71.8608 273.403 74.6902 280.593 74.6902Z" fill="#FFFAA6"/>
<path d="M250.012 88.0307C242.992 88.0307 237.297 85.2014 237.297 81.7109V88.0307C237.297 91.5212 242.986 94.3504 250.012 94.3504C257.039 94.3504 262.728 91.5212 262.728 88.0307V81.7109C262.728 85.2014 257.039 88.0307 250.012 88.0307Z" fill="#FED538"/>
<path d="M250.012 88.0301C257.035 88.0301 262.728 85.2007 262.728 81.7104C262.728 78.2201 257.035 75.3906 250.012 75.3906C242.99 75.3906 237.297 78.2201 237.297 81.7104C237.297 85.2007 242.99 88.0301 250.012 88.0301Z" fill="#FFFAA6"/>
<path d="M279.981 100.43C287.171 100.43 293 97.601 293 94.1108C293 90.6205 287.171 87.791 279.981 87.791C272.791 87.791 266.963 90.6205 266.963 94.1108C266.963 97.601 272.791 100.43 279.981 100.43Z" fill="#FFF55D"/>
<path d="M310.561 87.0887C317.584 87.0887 323.277 84.2592 323.277 80.769C323.277 77.2787 317.584 74.4492 310.561 74.4492C303.539 74.4492 297.846 77.2787 297.846 80.769C297.846 84.2592 303.539 87.0887 310.561 87.0887Z" fill="#FFF55D"/>
<path d="M280.593 73.7488C287.782 73.7488 293.611 70.9194 293.611 67.4291C293.611 63.9388 287.782 61.1094 280.593 61.1094C273.403 61.1094 267.574 63.9388 267.574 67.4291C267.574 70.9194 273.403 73.7488 280.593 73.7488Z" fill="#FFF55D"/>
<path d="M250.012 87.0887C257.035 87.0887 262.728 84.2592 262.728 80.769C262.728 77.2787 257.035 74.4492 250.012 74.4492C242.99 74.4492 237.297 77.2787 237.297 80.769C237.297 84.2592 242.99 87.0887 250.012 87.0887Z" fill="#FFF55D"/>
<path d="M280.287 118.891L219.736 91.8711V126.447L280.287 153.46V118.891Z" fill="#FFD73F"/>
<path d="M280.287 118.891L340.837 91.8711V126.447L280.287 153.46V118.891Z" fill="#FEC126"/>
<path d="M159.643 187.478L220.193 160.465L280.743 187.478L220.193 214.499L159.643 187.478Z" fill="#FFEB53"/>
<path d="M219.889 196.978C212.702 196.978 206.871 194.149 206.871 190.658V196.978C206.871 200.468 212.696 203.298 219.889 203.298C227.083 203.298 232.908 200.468 232.908 196.978V190.658C232.908 194.149 227.083 196.978 219.889 196.978Z" fill="#FFD73F"/>
<path d="M219.889 196.977C227.079 196.977 232.908 194.148 232.908 190.658C232.908 187.167 227.079 184.338 219.889 184.338C212.7 184.338 206.871 187.167 206.871 190.658C206.871 194.148 212.7 196.977 219.889 196.977Z" fill="#FFF55D"/>
<path d="M250.469 183.64C243.449 183.64 237.754 180.811 237.754 177.32V183.64C237.754 187.131 243.443 189.96 250.469 189.96C257.496 189.96 263.185 187.131 263.185 183.64V177.32C263.185 180.811 257.496 183.64 250.469 183.64Z" fill="#FFD73F"/>
<path d="M250.469 183.639C257.492 183.639 263.185 180.81 263.185 177.32C263.185 173.829 257.492 171 250.469 171C243.447 171 237.754 173.829 237.754 177.32C237.754 180.81 243.447 183.639 250.469 183.639Z" fill="#FFF55D"/>
<path d="M220.497 170.296C213.309 170.296 207.479 167.467 207.479 163.977V170.296C207.479 173.787 213.303 176.616 220.497 176.616C227.69 176.616 233.515 173.787 233.515 170.296V163.977C233.515 167.467 227.69 170.296 220.497 170.296Z" fill="#FFD73F"/>
<path d="M220.497 170.296C227.687 170.296 233.515 167.466 233.515 163.976C233.515 160.486 227.687 157.656 220.497 157.656C213.307 157.656 207.479 160.486 207.479 163.976C207.479 167.466 213.307 170.296 220.497 170.296Z" fill="#FFF55D"/>
<path d="M189.919 183.64C182.898 183.64 177.203 180.811 177.203 177.32V183.64C177.203 187.131 182.892 189.96 189.919 189.96C196.945 189.96 202.634 187.131 202.634 183.64V177.32C202.634 180.811 196.945 183.64 189.919 183.64Z" fill="#FFD73F"/>
<path d="M189.919 183.639C196.941 183.639 202.634 180.81 202.634 177.32C202.634 173.829 196.941 171 189.919 171C182.896 171 177.203 173.829 177.203 177.32C177.203 180.81 182.896 183.639 189.919 183.639Z" fill="#FFF55D"/>
<path d="M220.193 214.499L159.643 187.479V222.054L220.193 249.068V214.499Z" fill="#FFD73F"/>
<path d="M220.191 214.499L280.742 187.479V222.054L220.191 249.068V214.499Z" fill="#A131A1"/>
<path d="M159.643 153.072L220.193 126.059L280.743 153.072L220.193 180.092L159.643 153.072Z" fill="#4776D1"/>
<path d="M219.889 162.572C212.702 162.572 206.871 159.742 206.871 156.252V162.572C206.871 166.062 212.696 168.891 219.889 168.891C227.083 168.891 232.908 166.062 232.908 162.572V156.252C232.908 159.742 227.083 162.572 219.889 162.572Z" fill="#2A57B0"/>
<path d="M219.889 162.571C227.079 162.571 232.908 159.742 232.908 156.251C232.908 152.761 227.079 149.932 219.889 149.932C212.7 149.932 206.871 152.761 206.871 156.251C206.871 159.742 212.7 162.571 219.889 162.571Z" fill="#7BA4F4"/>
<path d="M250.466 149.23C243.445 149.23 237.75 146.401 237.75 142.91V149.23C237.75 152.72 243.439 155.55 250.466 155.55C257.492 155.55 263.181 152.72 263.181 149.23V142.91C263.181 146.401 257.492 149.23 250.466 149.23Z" fill="#2A57B0"/>
<path d="M250.466 149.231C257.488 149.231 263.181 146.402 263.181 142.912C263.181 139.421 257.488 136.592 250.466 136.592C243.443 136.592 237.75 139.421 237.75 142.912C237.75 146.402 243.443 149.231 250.466 149.231Z" fill="#7BA4F4"/>
<path d="M220.497 135.892C213.309 135.892 207.479 133.063 207.479 129.572V135.892C207.479 139.383 213.303 142.212 220.497 142.212C227.69 142.212 233.515 139.383 233.515 135.892V129.572C233.515 133.063 227.69 135.892 220.497 135.892Z" fill="#2A57B0"/>
<path d="M220.497 135.891C227.687 135.891 233.515 133.062 233.515 129.572C233.515 126.081 227.687 123.252 220.497 123.252C213.307 123.252 207.479 126.081 207.479 129.572C207.479 133.062 213.307 135.891 220.497 135.891Z" fill="#7BA4F4"/>
<path d="M189.919 149.23C182.898 149.23 177.203 146.401 177.203 142.91V149.23C177.203 152.72 182.892 155.55 189.919 155.55C196.945 155.55 202.634 152.72 202.634 149.23V142.91C202.634 146.401 196.945 149.23 189.919 149.23Z" fill="#2A57B0"/>
<path d="M189.919 149.231C196.941 149.231 202.634 146.402 202.634 142.912C202.634 139.421 196.941 136.592 189.919 136.592C182.896 136.592 177.203 139.421 177.203 142.912C177.203 146.402 182.896 149.231 189.919 149.231Z" fill="#7BA4F4"/>
<path d="M219.889 161.632C227.079 161.632 232.908 158.802 232.908 155.312C232.908 151.822 227.079 148.992 219.889 148.992C212.7 148.992 206.871 151.822 206.871 155.312C206.871 158.802 212.7 161.632 219.889 161.632Z" fill="#5081E2"/>
<path d="M250.466 148.29C257.488 148.29 263.181 145.46 263.181 141.97C263.181 138.48 257.488 135.65 250.466 135.65C243.443 135.65 237.75 138.48 237.75 141.97C237.75 145.46 243.443 148.29 250.466 148.29Z" fill="#5081E2"/>
<path d="M220.497 134.95C227.687 134.95 233.515 132.121 233.515 128.63C233.515 125.14 227.687 122.311 220.497 122.311C213.307 122.311 207.479 125.14 207.479 128.63C207.479 132.121 213.307 134.95 220.497 134.95Z" fill="#5081E2"/>
<path d="M189.919 148.29C196.941 148.29 202.634 145.46 202.634 141.97C202.634 138.48 196.941 135.65 189.919 135.65C182.896 135.65 177.203 138.48 177.203 141.97C177.203 145.46 182.896 148.29 189.919 148.29Z" fill="#5081E2"/>
<path d="M220.193 180.093L159.643 153.072V187.648L220.193 214.662V180.093Z" fill="#5081E2"/>
<path d="M220.191 180.093L280.742 153.072V187.648L220.191 214.662V180.093Z" fill="#2A57B0"/>
<path d="M99.0859 214.49L159.636 187.477L220.187 214.49L159.636 241.51L99.0859 214.49Z" fill="#FFEB53"/>
<path d="M159.334 223.992C152.146 223.992 146.315 221.162 146.315 217.672V223.992C146.315 227.482 152.14 230.311 159.334 230.311C166.527 230.311 172.352 227.482 172.352 223.992V217.672C172.352 221.162 166.527 223.992 159.334 223.992Z" fill="#FFD73F"/>
<path d="M159.334 223.991C166.524 223.991 172.352 221.162 172.352 217.671C172.352 214.181 166.524 211.352 159.334 211.352C152.144 211.352 146.315 214.181 146.315 217.671C146.315 221.162 152.144 223.991 159.334 223.991Z" fill="#FFFAA6"/>
<path d="M159.334 223.05C166.524 223.05 172.352 220.22 172.352 216.73C172.352 213.24 166.524 210.41 159.334 210.41C152.144 210.41 146.315 213.24 146.315 216.73C146.315 220.22 152.144 223.05 159.334 223.05Z" fill="#FFF55D"/>
<path d="M189.911 210.65C182.891 210.65 177.195 207.821 177.195 204.33V210.65C177.195 214.14 182.885 216.97 189.911 216.97C196.937 216.97 202.626 214.14 202.626 210.65V204.33C202.626 207.821 196.937 210.65 189.911 210.65Z" fill="#FFD73F"/>
<path d="M189.911 210.649C196.933 210.649 202.626 207.82 202.626 204.329C202.626 200.839 196.933 198.01 189.911 198.01C182.888 198.01 177.195 200.839 177.195 204.329C177.195 207.82 182.888 210.649 189.911 210.649Z" fill="#FFFAA6"/>
<path d="M159.939 197.308C152.752 197.308 146.921 194.479 146.921 190.988V197.308C146.921 200.799 152.746 203.628 159.939 203.628C167.133 203.628 172.958 200.799 172.958 197.308V190.988C172.958 194.479 167.133 197.308 159.939 197.308Z" fill="#FFD73F"/>
<path d="M159.939 197.307C167.129 197.307 172.958 194.478 172.958 190.988C172.958 187.497 167.129 184.668 159.939 184.668C152.749 184.668 146.921 187.497 146.921 190.988C146.921 194.478 152.749 197.307 159.939 197.307Z" fill="#FFFAA6"/>
<path d="M129.361 210.65C122.341 210.65 116.646 207.821 116.646 204.33V210.65C116.646 214.14 122.335 216.97 129.361 216.97C136.387 216.97 142.077 214.14 142.077 210.65V204.33C142.077 207.821 136.387 210.65 129.361 210.65Z" fill="#FFD73F"/>
<path d="M129.361 210.649C136.384 210.649 142.077 207.82 142.077 204.329C142.077 200.839 136.384 198.01 129.361 198.01C122.338 198.01 116.646 200.839 116.646 204.329C116.646 207.82 122.338 210.649 129.361 210.649Z" fill="#FFFAA6"/>
<path d="M189.911 209.708C196.933 209.708 202.626 206.878 202.626 203.388C202.626 199.898 196.933 197.068 189.911 197.068C182.888 197.068 177.195 199.898 177.195 203.388C177.195 206.878 182.888 209.708 189.911 209.708Z" fill="#FFF55D"/>
<path d="M159.939 196.366C167.129 196.366 172.958 193.537 172.958 190.046C172.958 186.556 167.129 183.727 159.939 183.727C152.749 183.727 146.921 186.556 146.921 190.046C146.921 193.537 152.749 196.366 159.939 196.366Z" fill="#FFF55D"/>
<path d="M129.36 209.708C136.383 209.708 142.076 206.878 142.076 203.388C142.076 199.898 136.383 197.068 129.36 197.068C122.337 197.068 116.645 199.898 116.645 203.388C116.645 206.878 122.337 209.708 129.36 209.708Z" fill="#FFF55D"/>
<path d="M159.636 241.511L99.0859 214.49V249.066L159.636 276.08V241.511Z" fill="#FFD73F"/>
<path d="M159.637 241.511L220.187 214.49V249.066L159.637 276.08V241.511Z" fill="#FEC126"/>
<path d="M340.391 40.2641C333.204 40.2641 327.373 37.4348 327.373 33.9443V40.2641C327.373 43.7546 333.198 46.5838 340.391 46.5838C347.585 46.5838 353.41 43.7546 353.41 40.2641V33.9443C353.41 37.4348 347.585 40.2641 340.391 40.2641Z" fill="#EF7325"/>
<path d="M340.391 40.2635C347.581 40.2635 353.41 37.4341 353.41 33.9438C353.41 30.4535 347.581 27.624 340.391 27.624C333.202 27.624 327.373 30.4535 327.373 33.9438C327.373 37.4341 333.202 40.2635 340.391 40.2635Z" fill="#FEC59C"/>
<path d="M340.391 39.3231C347.581 39.3231 353.41 36.4936 353.41 33.0033C353.41 29.513 347.581 26.6836 340.391 26.6836C333.202 26.6836 327.373 29.513 327.373 33.0033C327.373 36.4936 333.202 39.3231 340.391 39.3231Z" fill="#FFA667"/>
<g filter="url(#filter0_d_28795_11720)">
<path d="M255.5 259.696L284.447 247.293L313.394 259.696L284.447 272.102L255.5 259.696Z" fill="black" fill-opacity="0.05" shape-rendering="crispEdges"/>
</g>
<path d="M254.318 226.781L283.856 213.525L313.393 226.781L283.856 240.04L254.318 226.781Z" fill="#BE55BE"/>
<path d="M283.856 240.038L254.318 226.779V259.595L283.856 272.851V240.038Z" fill="#CE64CE"/>
<path d="M283.855 240.038L313.393 226.779V259.595L283.855 272.851V240.038Z" fill="#A131A1"/>
<path d="M284.09 225.677C276.578 225.677 270.484 222.72 270.484 219.072V225.677C270.484 229.325 276.572 232.282 284.09 232.282C291.608 232.282 297.695 229.325 297.695 225.677V219.072C297.695 222.72 291.608 225.677 284.09 225.677Z" fill="#A131A1"/>
<path d="M284.09 225.678C291.604 225.678 297.695 222.721 297.695 219.074C297.695 215.426 291.604 212.469 284.09 212.469C276.576 212.469 270.484 215.426 270.484 219.074C270.484 222.721 276.576 225.678 284.09 225.678Z" fill="#E5A4E5"/>
<path d="M284.09 224.737C291.604 224.737 297.695 221.78 297.695 218.132C297.695 214.484 291.604 211.527 284.09 211.527C276.576 211.527 270.484 214.484 270.484 218.132C270.484 221.78 276.576 224.737 284.09 224.737Z" fill="#CE64CE"/>
<g filter="url(#filter1_d_28795_11720)">
<path d="M437.434 238.059L466.38 225.656L495.327 238.059L466.38 250.465L437.434 238.059Z" fill="black" fill-opacity="0.05" shape-rendering="crispEdges"/>
</g>
<path d="M436.252 205.144L465.789 191.889L495.327 205.144L465.789 218.403L436.252 205.144Z" fill="#F2639F"/>
<path d="M465.789 218.401L436.252 205.143V237.959L465.789 251.214V218.401Z" fill="#DD4283"/>
<path d="M465.789 218.401L495.327 205.143V237.959L465.789 251.214V218.401Z" fill="#C32F6D"/>
<path d="M466.023 204.04C458.512 204.04 452.418 201.083 452.418 197.436V204.04C452.418 207.688 458.505 210.645 466.023 210.645C473.541 210.645 479.629 207.688 479.629 204.04V197.436C479.629 201.083 473.541 204.04 466.023 204.04Z" fill="#DD4283"/>
<path d="M466.023 204.042C473.538 204.042 479.629 201.085 479.629 197.437C479.629 193.789 473.538 190.832 466.023 190.832C458.509 190.832 452.418 193.789 452.418 197.437C452.418 201.085 458.509 204.042 466.023 204.042Z" fill="#F8B5D1"/>
<path d="M466.023 203.1C473.538 203.1 479.629 200.143 479.629 196.495C479.629 192.848 473.538 189.891 466.023 189.891C458.509 189.891 452.418 192.848 452.418 196.495C452.418 200.143 458.509 203.1 466.023 203.1Z" fill="#F2639F"/>
<path d="M472.168 240.27L475.624 239.086L477.602 233.004L475.611 229.897L472.168 240.265L472.168 240.27ZM490.235 225.175L488.678 229.719L491.293 233.663L492.853 229.102L490.24 225.174L490.235 225.175ZM489.558 224.151L484.78 216.793L483.112 221.238L488.002 228.701L489.563 224.151L489.558 224.151ZM483.706 231.398L486.364 235.409L490.203 234.094L485.283 226.715L483.711 231.398L483.706 231.398ZM474.929 228.825L472.688 225.254L470.728 231.29L472.927 234.805L474.929 228.82L474.929 228.825ZM470.272 232.743L468.884 237.224L471.111 240.562L472.472 236.269L470.272 232.743ZM482.561 222.584L480.885 227.123L483.023 230.37L484.6 225.687L482.561 222.584ZM474.531 219.5L473.123 223.819L481.09 236.207L482.558 231.78L478.539 225.569L474.536 219.494L474.531 219.5Z" fill="#FFA667"/>
<path d="M338.988 193.369L369.467 179.691L399.945 193.369L369.467 207.05L338.988 193.369Z" fill="#FFEB53"/>
<path d="M369.467 207.05L338.988 193.369V227.231L369.467 240.908V207.05Z" fill="#FED538"/>
<path d="M369.467 207.05L399.945 193.369V227.231L369.467 240.908V207.05Z" fill="#F5B921"/>
<g filter="url(#filter2_d_28795_11720)">
<path d="M22.1816 272.868L51.1284 260.465L80.0751 272.868L51.1284 285.273L22.1816 272.868Z" fill="black" fill-opacity="0.05" shape-rendering="crispEdges"/>
</g>
<path d="M21 239.953L50.5375 226.697L80.075 239.953L50.5375 253.211L21 239.953Z" fill="#FB9D5A"/>
<path d="M50.5375 253.21L21 239.951V272.767L50.5375 286.023V253.21Z" fill="#F57A2D"/>
<path d="M50.5381 253.21L80.0756 239.951V272.767L50.5381 286.023V253.21Z" fill="#E44C2F"/>
<path d="M50.7705 238.849C43.259 238.849 37.165 235.892 37.165 232.244V238.849C37.165 242.497 43.2525 245.454 50.7705 245.454C58.2885 245.454 64.376 242.497 64.376 238.849V232.244C64.376 235.892 58.2885 238.849 50.7705 238.849Z" fill="#F57A2D"/>
<path d="M50.7705 238.85C58.2846 238.85 64.376 235.893 64.376 232.245C64.376 228.598 58.2846 225.641 50.7705 225.641C43.2564 225.641 37.165 228.598 37.165 232.245C37.165 235.893 43.2564 238.85 50.7705 238.85Z" fill="#FEC59C"/>
<path d="M50.7705 237.909C58.2846 237.909 64.376 234.952 64.376 231.304C64.376 227.656 58.2846 224.699 50.7705 224.699C43.2564 224.699 37.165 227.656 37.165 231.304C37.165 234.952 43.2564 237.909 50.7705 237.909Z" fill="#FB9D5A"/>
<g clip-path="url(#clip0_28795_11720)">
<path d="M278.669 250.069C278.636 249.65 278.57 249.157 278.442 248.604C278.317 248.051 278.131 247.435 277.86 246.776C277.587 246.117 277.234 245.417 276.772 244.711C276.594 244.435 276.397 244.155 276.185 243.882C276.502 242.587 275.799 241.231 275.799 241.231C274.589 240.86 273.821 241.167 273.535 241.326C273.486 241.292 273.44 241.259 273.392 241.225C273.185 241.086 272.973 240.952 272.756 240.823C272.539 240.698 272.317 240.575 272.089 240.463C271.86 240.352 271.63 240.248 271.395 240.151C271.354 240.134 271.313 240.117 271.27 240.103C270.744 238.13 269.23 237 269.23 237C267.539 237.767 267.218 239.327 267.218 239.327C267.218 239.327 267.21 239.364 267.2 239.42C267.108 239.428 267.013 239.434 266.919 239.442C266.791 239.453 266.661 239.475 266.533 239.495C266.406 239.52 266.275 239.542 266.15 239.573C265.895 239.632 265.642 239.707 265.397 239.799C265.157 239.888 264.922 239.994 264.692 240.114C264.659 240.089 264.634 240.073 264.634 240.073C262.295 238.538 260.216 239.221 260.216 239.221C260.027 241.898 261.151 243.874 261.373 244.242C261.317 244.395 261.266 244.555 261.217 244.716C261.044 245.291 260.916 245.894 260.834 246.528C260.821 246.617 260.811 246.712 260.804 246.804C258.638 247.451 258 249.692 258 249.692C259.805 252.385 261.907 253.025 261.907 253.025C261.907 253.025 261.912 253.025 261.912 253.022C262.18 253.605 262.489 254.174 262.836 254.718C262.982 254.947 263.135 255.168 263.293 255.385C262.634 257.286 263.385 259.173 263.385 259.173C265.395 259.728 266.715 259 266.99 258.824C267.19 258.944 267.394 259.061 267.598 259.164C268.216 259.482 268.847 259.733 269.48 259.912C269.638 259.957 269.796 259.999 269.955 260.035L270.031 260.052L270.082 260.06L270.182 260.08L270.279 260.096C271.224 261.796 272.891 262.396 272.891 262.396C274.076 261.313 274.142 259.979 274.142 259.686V259.627C274.142 259.605 274.142 259.588 274.142 259.566C274.39 259.435 274.627 259.287 274.852 259.122C275.327 258.768 275.741 258.333 276.083 257.841C276.113 257.797 276.147 257.746 276.177 257.699C277.518 258.101 278.46 257.333 278.46 257.333C278.238 255.759 277.444 254.83 277.275 254.649C277.275 254.649 277.268 254.64 277.257 254.632C277.247 254.621 277.242 254.615 277.242 254.615C277.242 254.615 277.222 254.598 277.214 254.587C277.222 254.495 277.229 254.409 277.234 254.317C277.245 254.155 277.25 253.99 277.25 253.828V253.571L277.245 253.468L277.237 253.329C277.237 253.281 277.232 253.237 277.227 253.195C277.227 253.153 277.219 253.108 277.214 253.064L277.199 252.932L277.181 252.804C277.158 252.631 277.13 252.458 277.094 252.285C276.954 251.596 276.719 250.917 276.407 250.284C276.096 249.65 275.713 249.064 275.276 248.543C274.842 248.021 274.354 247.569 273.841 247.197C273.33 246.823 272.794 246.536 272.258 246.335C271.99 246.235 271.722 246.154 271.461 246.095L271.362 246.073L271.336 246.067C271.336 246.067 271.3 246.059 271.303 246.059L271.262 246.05L271.165 246.036C271.129 246.031 271.088 246.023 271.055 246.02C270.92 246 270.785 245.989 270.652 245.986C270.121 245.969 269.62 246.059 269.179 246.24C268.737 246.424 268.354 246.695 268.04 247.027C267.728 247.362 267.486 247.756 267.32 248.183C267.151 248.61 267.059 249.07 267.034 249.536C267.026 249.65 267.024 249.768 267.026 249.885C267.026 249.913 267.026 249.944 267.026 249.974V250.066C267.034 250.122 267.036 250.181 267.041 250.237C267.064 250.479 267.103 250.717 267.161 250.951C267.279 251.42 267.465 251.858 267.698 252.254C267.927 252.648 268.203 252.991 268.494 253.278C268.785 253.566 269.099 253.795 269.408 253.971C269.717 254.144 270.026 254.261 270.317 254.325C270.353 254.333 270.391 254.342 270.425 254.347C270.445 254.353 270.463 254.353 270.483 254.358C270.504 254.364 270.522 254.364 270.542 254.37C270.573 254.375 270.603 254.375 270.634 254.381C270.642 254.381 270.652 254.381 270.66 254.384H270.688C270.708 254.386 270.723 254.389 270.744 254.389C270.782 254.392 270.815 254.392 270.848 254.392C270.882 254.392 270.917 254.395 270.951 254.392C271.017 254.392 271.081 254.386 271.145 254.381C271.272 254.367 271.39 254.339 271.5 254.303C271.609 254.266 271.712 254.219 271.806 254.172C271.832 254.158 271.86 254.141 271.885 254.124C271.987 254.06 272.003 253.904 271.921 253.775C271.849 253.664 271.729 253.611 271.632 253.647C271.607 253.655 271.584 253.664 271.558 253.672C271.474 253.697 271.385 253.717 271.293 253.728C271.198 253.736 271.101 253.742 271.002 253.736C270.951 253.733 270.9 253.728 270.848 253.722C270.823 253.719 270.797 253.717 270.772 253.708C270.746 253.7 270.718 253.697 270.695 253.691C270.672 253.686 270.644 253.68 270.619 253.672C270.588 253.661 270.555 253.655 270.524 253.644C270.524 253.644 270.506 253.641 270.524 253.644H270.494C270.478 253.636 270.465 253.633 270.453 253.627C270.425 253.619 270.397 253.605 270.368 253.597C270.141 253.507 269.911 253.382 269.689 253.22C269.467 253.058 269.255 252.857 269.064 252.623C268.872 252.388 268.704 252.123 268.576 251.838C268.446 251.554 268.351 251.247 268.31 250.937C268.287 250.784 268.28 250.627 268.285 250.477C268.285 250.435 268.285 250.396 268.29 250.354C268.29 250.365 268.29 250.348 268.29 250.345V250.298C268.295 250.278 268.295 250.259 268.298 250.239C268.305 250.158 268.318 250.08 268.328 250.002C268.433 249.377 268.729 248.816 269.191 248.442C269.306 248.35 269.429 248.269 269.564 248.199C269.697 248.132 269.837 248.079 269.985 248.04C270.131 248.001 270.284 247.979 270.442 247.968C270.601 247.959 270.762 247.968 270.925 247.99C271.007 248.001 271.088 248.018 271.17 248.037L271.226 248.051L271.293 248.071L271.334 248.082C271.351 248.085 271.334 248.082 271.341 248.082H271.359L271.426 248.107C271.604 248.166 271.78 248.233 271.954 248.317C272.301 248.484 272.641 248.704 272.958 248.972C273.591 249.505 274.127 250.228 274.459 251.026C274.627 251.425 274.74 251.838 274.799 252.249C274.814 252.352 274.824 252.455 274.829 252.558L274.834 252.637V252.715C274.839 252.743 274.839 252.765 274.839 252.793C274.839 252.818 274.839 252.846 274.839 252.865V253.005C274.834 253.055 274.832 253.133 274.829 253.181C274.821 253.29 274.811 253.396 274.801 253.502C274.788 253.608 274.773 253.711 274.755 253.814C274.735 253.915 274.714 254.018 274.689 254.118C274.64 254.319 274.576 254.515 274.505 254.702C274.357 255.076 274.16 255.416 273.92 255.72C273.443 256.323 272.792 256.753 272.051 256.948C271.681 257.043 271.29 257.085 270.889 257.063C270.69 257.052 270.486 257.026 270.282 256.985L270.246 256.979L270.215 256.971L270.149 256.954L270.049 256.932L269.998 256.92C270.024 256.926 269.993 256.92 269.998 256.92L269.978 256.915C269.868 256.887 269.758 256.856 269.651 256.82C269.217 256.683 268.788 256.496 268.369 256.265C267.953 256.036 267.547 255.762 267.167 255.45C266.403 254.825 265.719 254.052 265.185 253.186C264.914 252.757 264.682 252.304 264.488 251.844C264.294 251.384 264.143 250.912 264.028 250.44C263.916 249.969 263.847 249.497 263.819 249.031L263.814 248.944V248.866L263.809 248.791V248.565C263.809 248.565 263.809 248.565 263.809 248.557V248.515C263.809 248.459 263.809 248.403 263.809 248.347C263.817 248.124 263.834 247.892 263.86 247.666C263.885 247.44 263.924 247.214 263.967 246.994C264.011 246.773 264.062 246.553 264.123 246.343C264.243 245.916 264.391 245.515 264.565 245.141C264.914 244.395 265.377 243.773 265.928 243.315C266.066 243.201 266.209 243.095 266.36 243C266.508 242.905 266.664 242.822 266.822 242.746C266.98 242.671 267.144 242.604 267.312 242.551C267.394 242.52 267.483 242.498 267.567 242.473C267.611 242.462 267.654 242.45 267.695 242.439C267.738 242.428 267.782 242.417 267.825 242.408C268.001 242.369 268.18 242.344 268.362 242.325C268.407 242.319 268.453 242.316 268.497 242.311C268.543 242.305 268.589 242.305 268.635 242.302C268.727 242.294 268.819 242.294 268.913 242.291C268.959 242.291 269.008 242.291 269.053 242.291C269.099 242.291 269.145 242.291 269.194 242.291C269.24 242.291 269.288 242.294 269.334 242.297H269.406L269.477 242.305C269.526 242.308 269.572 242.311 269.62 242.316C269.674 242.316 269.728 242.328 269.781 242.33C269.825 242.336 269.899 242.342 269.939 242.347C269.973 242.353 270.008 242.355 270.039 242.361L270.108 242.369L270.141 242.375L270.179 242.381C270.233 242.392 270.287 242.397 270.34 242.408L270.42 242.422C270.42 242.422 270.448 242.428 270.425 242.422H270.442L270.476 242.431C270.522 242.439 270.568 242.448 270.611 242.456C270.792 242.495 270.976 242.537 271.155 242.584C271.515 242.685 271.867 242.813 272.209 242.964C272.896 243.268 273.545 243.662 274.127 244.116C274.714 244.569 275.238 245.079 275.692 245.604C275.72 245.637 275.748 245.671 275.776 245.704C275.802 245.738 275.833 245.771 275.858 245.805C275.914 245.872 275.965 245.939 276.019 246.006C276.073 246.073 276.124 246.14 276.175 246.207C276.223 246.274 276.274 246.338 276.323 246.408C276.517 246.676 276.696 246.943 276.857 247.211C277.181 247.742 277.439 248.261 277.645 248.743C277.658 248.774 277.671 248.802 277.684 248.833L277.72 248.922C277.745 248.981 277.768 249.039 277.791 249.098C277.814 249.157 277.837 249.212 277.857 249.271C277.88 249.33 277.898 249.385 277.919 249.438C277.995 249.659 278.067 249.868 278.123 250.064C278.217 250.379 278.286 250.661 278.34 250.904C278.363 251.001 278.442 251.082 278.529 251.093C278.618 251.107 278.69 251.04 278.69 250.943C278.7 250.694 278.69 250.398 278.667 250.064L278.669 250.069Z" fill="#FFD73F"/>
</g>
<path d="M31.8651 271.973L31.5883 270.115L29.8516 269.885L30.1094 271.753L31.8651 271.973Z" fill="#FFD73F"/>
<path d="M45.6209 270.801L45.344 268.893L37.625 267.984L37.9018 269.856L45.6209 270.801Z" fill="#FFD73F"/>
<path d="M35.1694 269.52L36.9047 269.746L36.6468 267.862L34.8926 267.637L35.1694 269.52Z" fill="#FFD73F"/>
<path d="M34.5975 272.341L34.3207 270.457L32.584 270.248L32.8419 272.103L34.5975 272.341Z" fill="#FFD73F"/>
<path d="M29.4258 266.973L29.6851 268.838L31.4393 269.052L31.1625 267.177L29.4258 266.973Z" fill="#FFD73F"/>
<path d="M38.0508 270.926L38.3276 272.818L46.0481 273.774L45.7713 271.882L38.0508 270.926Z" fill="#FFD73F"/>
<path d="M35.5952 272.457L37.3319 272.688L37.0726 270.804L35.3184 270.59L35.5952 272.457Z" fill="#FFD73F"/>
<path d="M32.1602 267.307L32.4384 269.184L34.1737 269.392L33.9158 267.534L32.1602 267.307Z" fill="#FFD73F"/>
<path d="M29.9976 266L27.8559 251.145L27.1172 251.064L29.2779 265.93L29.9976 266Z" fill="#FFD73F"/>
<path d="M31.0323 266.138L28.7055 250.141L27.9668 250.082L30.2761 266.04L31.0323 266.138Z" fill="#FFD73F"/>
<path d="M32.7504 266.353L30.3129 249.368L29.5742 249.291L32.0117 266.261L32.7504 266.353Z" fill="#FFD73F"/>
<path d="M33.7667 266.467L31.5331 250.969L30.793 250.891L33.028 266.374L33.7667 266.467Z" fill="#FFD73F"/>
<path d="M35.4839 266.68L33.5082 252.868L32.7695 252.789L34.7452 266.588L35.4839 266.68Z" fill="#FFD73F"/>
<path d="M36.4995 266.792L34.432 252.444L33.6934 252.365L35.7608 266.7L36.4995 266.792Z" fill="#FFD73F"/>
<path d="M374.291 216.755L373.859 216.909C373.612 216.997 373.445 217.268 373.488 217.516C373.53 217.763 373.761 217.889 374.009 217.801L374.441 217.647C374.688 217.559 374.855 217.288 374.812 217.04C374.769 216.793 374.539 216.667 374.291 216.755V216.755ZM383.668 220.314L383.236 220.468C382.988 220.556 382.821 220.827 382.864 221.074C382.907 221.322 383.138 221.452 383.386 221.364L383.818 221.21C384.065 221.122 384.232 220.851 384.189 220.604C384.147 220.356 383.915 220.226 383.668 220.314ZM382.586 216.171C382.544 215.923 382.312 215.792 382.065 215.881L380.571 216.42C380.323 216.508 380.156 216.779 380.199 217.026C380.242 217.274 380.473 217.405 380.72 217.312L382.215 216.777C382.462 216.689 382.629 216.418 382.586 216.171V216.171ZM396.309 208.222L395.419 205.803C395.13 204.882 394.172 204.479 393.212 204.873L375.683 211.257C375.025 211.472 374.559 212.179 374.648 212.841C374.659 212.945 374.691 213.048 374.731 213.139L375.67 215.679C375.67 215.679 375.684 215.717 375.696 215.736C375.807 216.047 375.661 216.239 375.522 216.346C375.303 216.511 375.226 216.813 375.349 217.016C375.442 217.167 375.63 217.227 375.819 217.16L395.36 210.123C396.017 209.909 396.483 209.196 396.393 208.525C396.381 208.421 396.35 208.323 396.314 208.226L396.309 208.222ZM392.077 220.711C391.721 219.776 391.092 219.609 390.451 219.837L385.816 221.483C385.568 221.571 385.402 221.846 385.445 222.094C385.481 222.327 385.687 222.461 385.923 222.404C386.077 222.377 386.269 222.517 386.449 222.956L387.371 225.442C387.688 226.204 388.508 226.541 389.349 226.261L392.111 225.278C392.77 225.079 393.241 224.375 393.162 223.703C393.15 223.598 393.123 223.495 393.082 223.399L392.076 220.706L392.077 220.711ZM385.568 220.617L390.596 218.827C390.635 218.812 390.668 218.794 390.706 218.769C391.155 218.502 391.113 218.118 390.987 217.759L389.751 214.451C389.419 213.594 388.83 213.423 388.131 213.672L383.527 215.329C383.28 215.422 383.118 215.693 383.161 215.94C383.201 216.163 383.397 216.292 383.623 216.242C383.782 216.214 383.985 216.363 384.17 216.847L385.107 219.372C385.192 219.549 385.113 219.79 384.924 219.907C384.915 219.913 384.905 219.919 384.896 219.925C384.677 220.091 384.594 220.387 384.718 220.591C384.811 220.752 384.999 220.811 385.193 220.739L385.553 220.614L385.563 220.613L385.568 220.617Z" fill="#ED5C2B"/>
<defs>
<filter id="filter0_d_28795_11720" x="233.734" y="237.187" width="85.8775" height="52.7935" filterUnits="userSpaceOnUse" color-interpolation-filters="sRGB">
<feFlood flood-opacity="0" result="BackgroundImageFix"/>
<feColorMatrix in="SourceAlpha" type="matrix" values="0 0 0 0 0 0 0 0 0 0 0 0 0 0 0 0 0 0 127 0" result="hardAlpha"/>
<feOffset dx="-7.7736" dy="3.8868"/>
<feGaussianBlur stdDeviation="6.99624"/>
<feComposite in2="hardAlpha" operator="out"/>
<feColorMatrix type="matrix" values="0 0 0 0 0 0 0 0 0 0 0 0 0 0 0 0 0 0 0.17 0"/>
<feBlend mode="normal" in2="BackgroundImageFix" result="effect1_dropShadow_28795_11720"/>
<feBlend mode="normal" in="SourceGraphic" in2="effect1_dropShadow_28795_11720" result="shape"/>
</filter>
<filter id="filter1_d_28795_11720" x="415.668" y="215.551" width="85.8775" height="52.7935" filterUnits="userSpaceOnUse" color-interpolation-filters="sRGB">
<feFlood flood-opacity="0" result="BackgroundImageFix"/>
<feColorMatrix in="SourceAlpha" type="matrix" values="0 0 0 0 0 0 0 0 0 0 0 0 0 0 0 0 0 0 127 0" result="hardAlpha"/>
<feOffset dx="-7.7736" dy="3.8868"/>
<feGaussianBlur stdDeviation="6.99624"/>
<feComposite in2="hardAlpha" operator="out"/>
<feColorMatrix type="matrix" values="0 0 0 0 0 0 0 0 0 0 0 0 0 0 0 0 0 0 0.17 0"/>
<feBlend mode="normal" in2="BackgroundImageFix" result="effect1_dropShadow_28795_11720"/>
<feBlend mode="normal" in="SourceGraphic" in2="effect1_dropShadow_28795_11720" result="shape"/>
</filter>
<filter id="filter2_d_28795_11720" x="0.415572" y="250.359" width="85.8785" height="52.7935" filterUnits="userSpaceOnUse" color-interpolation-filters="sRGB">
<feFlood flood-opacity="0" result="BackgroundImageFix"/>
<feColorMatrix in="SourceAlpha" type="matrix" values="0 0 0 0 0 0 0 0 0 0 0 0 0 0 0 0 0 0 127 0" result="hardAlpha"/>
<feOffset dx="-7.7736" dy="3.8868"/>
<feGaussianBlur stdDeviation="6.99624"/>
<feComposite in2="hardAlpha" operator="out"/>
<feColorMatrix type="matrix" values="0 0 0 0 0 0 0 0 0 0 0 0 0 0 0 0 0 0 0.17 0"/>
<feBlend mode="normal" in2="BackgroundImageFix" result="effect1_dropShadow_28795_11720"/>
<feBlend mode="normal" in="SourceGraphic" in2="effect1_dropShadow_28795_11720" result="shape"/>
</filter>
<clipPath id="clip0_28795_11720">
<rect width="20.6975" height="25.4014" fill="white" transform="translate(258 237)"/>
</clipPath>
</defs>
</svg>
