<svg width="1920" height="370" viewBox="0 0 1920 370" fill="none" xmlns="http://www.w3.org/2000/svg">
<g clip-path="url(#clip0_27279_10615)">
<rect width="1920" height="370" fill="white"/>
<rect x="-9" y="-208" width="1935" height="599" fill="#FBC55A"/>
<g opacity="0.6">
<path d="M936.655 350.148H931.928C931.083 350.148 930.398 350.833 930.398 351.678V363.611C930.398 364.456 931.083 365.141 931.928 365.141H936.655C937.5 365.141 938.185 364.456 938.185 363.611V351.678C938.185 350.833 937.5 350.148 936.655 350.148Z" fill="#FDDB97"/>
<path d="M948.112 350.148H943.385C942.54 350.148 941.855 350.833 941.855 351.678V363.611C941.855 364.456 942.54 365.141 943.385 365.141H948.112C948.957 365.141 949.642 364.456 949.642 363.611V351.678C949.642 350.833 948.957 350.148 948.112 350.148Z" fill="#FDDB97"/>
<path d="M959.448 350.148H954.721C953.876 350.148 953.191 350.833 953.191 351.678V363.611C953.191 364.456 953.876 365.141 954.721 365.141H959.448C960.293 365.141 960.978 364.456 960.978 363.611V351.678C960.978 350.833 960.293 350.148 959.448 350.148Z" fill="#FDDB97"/>
<path d="M975.008 336.364H916.389C915.544 336.364 914.859 337.049 914.859 337.894V342.59C914.859 343.435 915.544 344.12 916.389 344.12H975.008C975.853 344.12 976.538 343.435 976.538 342.59V337.894C976.538 337.049 975.853 336.364 975.008 336.364Z" stroke="#FDDB97" stroke-width="3.40953" stroke-miterlimit="10"/>
<path d="M974.743 344.121H916.645V383.193H974.743V344.121Z" stroke="#FDDB97" stroke-width="3.40953" stroke-miterlimit="10"/>
<path d="M921.358 328.716H970.034C970.875 328.716 971.563 329.404 971.563 330.246V336.364H919.828V330.246C919.828 329.404 920.517 328.716 921.358 328.716Z" stroke="#FDDB97" stroke-width="3.40953" stroke-miterlimit="10"/>
<path d="M925.413 322.122H965.981C966.822 322.122 967.511 322.81 967.511 323.652V328.7H923.883V323.652C923.883 322.81 924.571 322.122 925.413 322.122Z" stroke="#FDDB97" stroke-width="3.40953" stroke-miterlimit="10"/>
<path d="M976.536 268.028L973.324 271.241C972.727 271.837 971.763 271.837 971.167 271.241L960.979 261.052C960.382 260.455 960.382 259.492 960.979 258.895L976.689 243.184C977.286 242.587 978.249 242.587 978.846 243.184L989.034 253.372C989.63 253.969 989.63 254.933 989.034 255.529L985.531 259.033" stroke="#FDDB97" stroke-width="3.40953" stroke-miterlimit="10"/>
<path d="M978.786 258.491L975.984 261.293C974.252 263.025 974.252 265.834 975.984 267.567C977.717 269.299 980.526 269.299 982.258 267.567L985.059 264.765C986.792 263.033 986.792 260.224 985.059 258.491C983.327 256.759 980.518 256.759 978.786 258.491Z" stroke="#FDDB97" stroke-width="3.40953" stroke-miterlimit="10"/>
<path d="M898 185.173V190.114C898 193.164 900.472 195.637 903.522 195.637C906.572 195.637 909.045 193.164 909.045 190.114V185.173C909.045 182.123 906.572 179.65 903.522 179.65C900.472 179.65 898 182.123 898 185.173Z" stroke="#FDDB97" stroke-width="3.40953" stroke-miterlimit="10"/>
<path d="M926.23 322.309V314.246C926.23 311.851 927.195 309.547 928.906 307.858L952.694 284.377" stroke="#FDDB97" stroke-width="3.40953" stroke-miterlimit="10"/>
<path d="M951.367 284.818L967.687 286.583" stroke="#FDDB97" stroke-width="3.40953"/>
<path d="M927.249 310.495L925.811 309.057C924.358 307.604 923.547 305.646 923.547 303.611V289.2C923.547 286.921 924.449 284.733 926.071 283.127L936.182 273.015" stroke="#FDDB97" stroke-width="3.40953" stroke-miterlimit="10"/>
<path d="M932.18 277.099L938.796 270.263L946.073 271.365M954.674 272.468C955.027 272.291 963.201 266.44 964.819 264.97" stroke="#FDDB97" stroke-width="3.40953"/>
<circle cx="958.868" cy="238.065" r="4.41066" stroke="#FDDB97" stroke-width="3.40953"/>
<circle cx="949.606" cy="272.468" r="4.41066" stroke="#FDDB97" stroke-width="3.40953"/>
<path d="M967.97 268.043V308.308C967.97 311.352 967.359 314.351 966.165 317.15L964.039 322.122" stroke="#FDDB97" stroke-width="3.40953" stroke-miterlimit="10"/>
<path d="M916.066 181.991L927.34 204.938L929.773 202.95C930.568 202.307 931.761 202.674 932.052 203.638L935.05 213.444L934.209 207.432C934.209 199.875 940.588 193.786 948.252 194.291C955.258 194.75 960.551 200.869 960.551 207.891V222.944L963.824 224.505C966.226 225.652 968.108 227.626 969.163 230.073L975.343 244.53" stroke="#FDDB97" stroke-width="3.40953" stroke-miterlimit="10"/>
<path d="M925.041 283.418L923.909 282.286C922.915 281.291 922.349 279.93 922.349 278.522V265.091C922.349 261.985 923.083 258.925 924.506 256.172L926.693 251.919V242.648L916.888 216.932C916.475 215.846 916.643 214.622 917.331 213.689L919.29 210.996L913.477 201.312" stroke="#FDDB97" stroke-width="3.40953" stroke-miterlimit="10"/>
<path d="M925.789 253.502L933.508 246.004L947.622 247.768L956.002 240.711" stroke="#FDDB97" stroke-width="3.40953"/>
<path d="M942.988 195.01L944.518 181.364C944.809 179.391 945.91 178.243 947.639 178.243C949.352 178.243 950.423 179.36 950.759 181.364L952.289 195.01" stroke="#FDDB97" stroke-width="3.40953" stroke-miterlimit="10"/>
<path d="M906.073 180.232L905.828 176.361" stroke="#FDDB97" stroke-width="3.40953" stroke-miterlimit="10"/>
<path d="M915.114 176.361L913.585 200.716C913.294 202.689 912.193 203.837 910.464 203.837C908.751 203.837 907.68 202.72 907.343 200.716L906.961 194.612" stroke="#FDDB97" stroke-width="3.40953" stroke-miterlimit="10"/>
<path d="M937.698 198.681L932.206 186.09C931.472 184.239 931.855 182.694 933.338 181.838C934.822 180.981 936.306 181.409 937.591 182.97L945.744 194.03" stroke="#FDDB97" stroke-width="3.40953" stroke-miterlimit="10"/>
<path d="M934.945 204.51L923.885 196.356C922.325 195.117 921.882 193.587 922.753 192.103C923.61 190.619 925.125 190.252 927.006 190.971L939.596 196.463" stroke="#FDDB97" stroke-width="3.40953" stroke-miterlimit="10"/>
<path d="M959.496 202.552L972.545 204.081C974.518 204.372 975.665 205.474 975.665 207.202C975.665 208.915 974.549 209.986 972.545 210.323L960.582 211.761" stroke="#FDDB97" stroke-width="3.40953" stroke-miterlimit="10"/>
<path d="M955.242 197.259L967.832 191.767C969.683 191.033 971.228 191.415 972.084 192.899C972.941 194.383 972.513 195.867 970.952 197.152L960.275 205.015" stroke="#FDDB97" stroke-width="3.40953" stroke-miterlimit="10"/>
<path d="M949.414 194.489L957.567 183.429C958.807 181.868 960.336 181.424 961.82 182.296C963.304 183.153 963.671 184.668 962.952 186.549L957.46 199.14" stroke="#FDDB97" stroke-width="3.40953" stroke-miterlimit="10"/>
<path d="M915.863 154.924C915.863 154.924 919.599 152.603 919.599 161.017C919.599 169.431 910.559 168.911 910.559 168.911C910.559 168.911 901.319 169.63 901.411 160.757C901.549 147.815 909.105 145 909.105 145C909.105 145 914.582 147.861 914.551 151.624C914.505 156.673 914.888 155.755 914.888 155.755L915.642 155.145L915.863 154.924Z" stroke="#FDDB97" stroke-width="3.40953" stroke-miterlimit="10" stroke-linecap="round"/>
<path d="M915.866 168.055H918.512C919.491 168.055 920.287 168.85 920.287 169.829V175.168C920.287 176.147 919.491 176.942 918.512 176.942H902.45C901.471 176.942 900.676 176.147 900.676 175.168V169.829C900.676 168.85 901.471 168.055 902.45 168.055H904.852" stroke="#FDDB97" stroke-width="3.40953" stroke-miterlimit="10"/>
<path d="M1816.93 -16.9385H1866.08C1868.25 -16.9385 1870.02 -15.1683 1870.02 -13.0047V327.736H1813V-13.0047C1813 -15.1683 1814.77 -16.9385 1816.93 -16.9385Z" stroke="#FDDB97" stroke-width="3.93351" stroke-miterlimit="10"/>
<path d="M1870.02 327.756H1813V389.339H1870.02V327.756Z" stroke="#FDDB97" stroke-width="3.93351" stroke-miterlimit="10"/>
<path d="M1870.02 327.736H1813.02L1841.52 -16.9385L1870.02 327.736Z" stroke="#FDDB97" stroke-width="3.93351" stroke-miterlimit="10"/>
<path d="M1550.05 88.4308L1623.92 43.8615C1627.85 41.4815 1632.87 44.3138 1632.87 48.9163V382.99C1632.87 386.255 1630.23 388.89 1626.97 388.89H1554.02C1550.77 388.89 1548.14 386.255 1548.12 383.01L1547.2 93.5053C1547.2 91.4401 1548.28 89.5126 1550.05 88.4308Z" stroke="#FDDB97" stroke-width="3.96953" stroke-miterlimit="10"/>
<path d="M1547 116.399H1632.53" stroke="#FDDB97" stroke-width="3.96953" stroke-miterlimit="10"/>
<path d="M1547 125.959H1632.53" stroke="#FDDB97" stroke-width="3.96953" stroke-miterlimit="10"/>
<path d="M1547 135.518H1632.53" stroke="#FDDB97" stroke-width="3.96953" stroke-miterlimit="10"/>
<path d="M1547 211.989H1632.53" stroke="#FDDB97" stroke-width="3.96953" stroke-miterlimit="10"/>
<path d="M1547 221.549H1632.53" stroke="#FDDB97" stroke-width="3.96953" stroke-miterlimit="10"/>
<path d="M1547 231.107H1632.53" stroke="#FDDB97" stroke-width="3.96953" stroke-miterlimit="10"/>
<path d="M1547 240.667H1632.53" stroke="#FDDB97" stroke-width="3.96953" stroke-miterlimit="10"/>
<path d="M1547 250.226H1632.53" stroke="#FDDB97" stroke-width="3.96953" stroke-miterlimit="10"/>
<path d="M1560.18 256H1555.58C1555.26 256 1555 256.258 1555 256.575V261.176C1555 261.494 1555.26 261.752 1555.58 261.752H1560.18C1560.49 261.752 1560.75 261.494 1560.75 261.176V256.575C1560.75 256.258 1560.49 256 1560.18 256Z" fill="#FDDB97"/>
<path d="M1560.18 266H1555.58C1555.26 266 1555 266.258 1555 266.575V271.176C1555 271.494 1555.26 271.752 1555.58 271.752H1560.18C1560.49 271.752 1560.75 271.494 1560.75 271.176V266.575C1560.75 266.258 1560.49 266 1560.18 266Z" fill="#FDDB97"/>
<path d="M1560.18 276H1555.58C1555.26 276 1555 276.258 1555 276.575V281.176C1555 281.494 1555.26 281.752 1555.58 281.752H1560.18C1560.49 281.752 1560.75 281.494 1560.75 281.176V276.575C1560.75 276.258 1560.49 276 1560.18 276Z" fill="#FDDB97"/>
<path d="M1560.18 286H1555.58C1555.26 286 1555 286.258 1555 286.575V291.176C1555 291.494 1555.26 291.752 1555.58 291.752H1560.18C1560.49 291.752 1560.75 291.494 1560.75 291.176V286.575C1560.75 286.258 1560.49 286 1560.18 286Z" fill="#FDDB97"/>
<path d="M1560.18 296H1555.58C1555.26 296 1555 296.258 1555 296.575V301.176C1555 301.494 1555.26 301.752 1555.58 301.752H1560.18C1560.49 301.752 1560.75 301.494 1560.75 301.176V296.575C1560.75 296.258 1560.49 296 1560.18 296Z" fill="white"/>
<path d="M1560.18 306H1555.58C1555.26 306 1555 306.258 1555 306.575V311.176C1555 311.494 1555.26 311.752 1555.58 311.752H1560.18C1560.49 311.752 1560.75 311.494 1560.75 311.176V306.575C1560.75 306.258 1560.49 306 1560.18 306Z" fill="white"/>
<path d="M1560.18 316H1555.58C1555.26 316 1555 316.258 1555 316.575V321.176C1555 321.494 1555.26 321.752 1555.58 321.752H1560.18C1560.49 321.752 1560.75 321.494 1560.75 321.176V316.575C1560.75 316.258 1560.49 316 1560.18 316Z" fill="white"/>
<path d="M1560.18 326H1555.58C1555.26 326 1555 326.258 1555 326.575V331.176C1555 331.494 1555.26 331.752 1555.58 331.752H1560.18C1560.49 331.752 1560.75 331.494 1560.75 331.176V326.575C1560.75 326.258 1560.49 326 1560.18 326Z" fill="#FDDB97"/>
<path d="M1560.18 336H1555.58C1555.26 336 1555 336.258 1555 336.575V341.176C1555 341.494 1555.26 341.752 1555.58 341.752H1560.18C1560.49 341.752 1560.75 341.494 1560.75 341.176V336.575C1560.75 336.258 1560.49 336 1560.18 336Z" fill="#FDDB97"/>
<path d="M1560.18 346H1555.58C1555.26 346 1555 346.258 1555 346.575V351.176C1555 351.494 1555.26 351.752 1555.58 351.752H1560.18C1560.49 351.752 1560.75 351.494 1560.75 351.176V346.575C1560.75 346.258 1560.49 346 1560.18 346Z" fill="#FDDB97"/>
<path d="M1560.18 356H1555.58C1555.26 356 1555 356.258 1555 356.575V361.176C1555 361.494 1555.26 361.752 1555.58 361.752H1560.18C1560.49 361.752 1560.75 361.494 1560.75 361.176V356.575C1560.75 356.258 1560.49 356 1560.18 356Z" fill="#FDDB97"/>
<path d="M1592.18 256H1587.58C1587.26 256 1587 256.258 1587 256.575V261.176C1587 261.494 1587.26 261.752 1587.58 261.752H1592.18C1592.49 261.752 1592.75 261.494 1592.75 261.176V256.575C1592.75 256.258 1592.49 256 1592.18 256Z" fill="#FDDB97"/>
<path d="M1592.18 266H1587.58C1587.26 266 1587 266.258 1587 266.575V271.176C1587 271.494 1587.26 271.752 1587.58 271.752H1592.18C1592.49 271.752 1592.75 271.494 1592.75 271.176V266.575C1592.75 266.258 1592.49 266 1592.18 266Z" fill="white"/>
<path d="M1592.18 276H1587.58C1587.26 276 1587 276.258 1587 276.575V281.176C1587 281.494 1587.26 281.752 1587.58 281.752H1592.18C1592.49 281.752 1592.75 281.494 1592.75 281.176V276.575C1592.75 276.258 1592.49 276 1592.18 276Z" fill="#FDDB97"/>
<path d="M1592.18 286H1587.58C1587.26 286 1587 286.258 1587 286.575V291.176C1587 291.494 1587.26 291.752 1587.58 291.752H1592.18C1592.49 291.752 1592.75 291.494 1592.75 291.176V286.575C1592.75 286.258 1592.49 286 1592.18 286Z" fill="#FDDB97"/>
<path d="M1592.18 296H1587.58C1587.26 296 1587 296.258 1587 296.575V301.176C1587 301.494 1587.26 301.752 1587.58 301.752H1592.18C1592.49 301.752 1592.75 301.494 1592.75 301.176V296.575C1592.75 296.258 1592.49 296 1592.18 296Z" fill="#FDDB97"/>
<path d="M1592.18 306H1587.58C1587.26 306 1587 306.258 1587 306.575V311.176C1587 311.494 1587.26 311.752 1587.58 311.752H1592.18C1592.49 311.752 1592.75 311.494 1592.75 311.176V306.575C1592.75 306.258 1592.49 306 1592.18 306Z" fill="#FDDB97"/>
<path d="M1592.18 316H1587.58C1587.26 316 1587 316.258 1587 316.575V321.176C1587 321.494 1587.26 321.752 1587.58 321.752H1592.18C1592.49 321.752 1592.75 321.494 1592.75 321.176V316.575C1592.75 316.258 1592.49 316 1592.18 316Z" fill="#FDDB97"/>
<path d="M1592.18 326H1587.58C1587.26 326 1587 326.258 1587 326.575V331.176C1587 331.494 1587.26 331.752 1587.58 331.752H1592.18C1592.49 331.752 1592.75 331.494 1592.75 331.176V326.575C1592.75 326.258 1592.49 326 1592.18 326Z" fill="white"/>
<path d="M1592.18 336H1587.58C1587.26 336 1587 336.258 1587 336.575V341.176C1587 341.494 1587.26 341.752 1587.58 341.752H1592.18C1592.49 341.752 1592.75 341.494 1592.75 341.176V336.575C1592.75 336.258 1592.49 336 1592.18 336Z" fill="#FDDB97"/>
<path d="M1592.18 346H1587.58C1587.26 346 1587 346.258 1587 346.575V351.176C1587 351.494 1587.26 351.752 1587.58 351.752H1592.18C1592.49 351.752 1592.75 351.494 1592.75 351.176V346.575C1592.75 346.258 1592.49 346 1592.18 346Z" fill="#FDDB97"/>
<path d="M1592.18 356H1587.58C1587.26 356 1587 356.258 1587 356.575V361.176C1587 361.494 1587.26 361.752 1587.58 361.752H1592.18C1592.49 361.752 1592.75 361.494 1592.75 361.176V356.575C1592.75 356.258 1592.49 356 1592.18 356Z" fill="#FDDB97"/>
<path d="M1571.05 256H1566.45C1566.13 256 1565.87 256.258 1565.87 256.575V261.176C1565.87 261.494 1566.13 261.752 1566.45 261.752H1571.05C1571.37 261.752 1571.62 261.494 1571.62 261.176V256.575C1571.62 256.258 1571.37 256 1571.05 256Z" fill="#FDDB97"/>
<path d="M1571.05 266H1566.45C1566.13 266 1565.87 266.258 1565.87 266.575V271.176C1565.87 271.494 1566.13 271.752 1566.45 271.752H1571.05C1571.37 271.752 1571.62 271.494 1571.62 271.176V266.575C1571.62 266.258 1571.37 266 1571.05 266Z" fill="#FDDB97"/>
<path d="M1571.05 276H1566.45C1566.13 276 1565.87 276.258 1565.87 276.575V281.176C1565.87 281.494 1566.13 281.752 1566.45 281.752H1571.05C1571.37 281.752 1571.62 281.494 1571.62 281.176V276.575C1571.62 276.258 1571.37 276 1571.05 276Z" fill="#FDDB97"/>
<path d="M1571.05 286H1566.45C1566.13 286 1565.87 286.258 1565.87 286.575V291.176C1565.87 291.494 1566.13 291.752 1566.45 291.752H1571.05C1571.37 291.752 1571.62 291.494 1571.62 291.176V286.575C1571.62 286.258 1571.37 286 1571.05 286Z" fill="#FDDB97"/>
<path d="M1571.05 296H1566.45C1566.13 296 1565.87 296.258 1565.87 296.575V301.176C1565.87 301.494 1566.13 301.752 1566.45 301.752H1571.05C1571.37 301.752 1571.62 301.494 1571.62 301.176V296.575C1571.62 296.258 1571.37 296 1571.05 296Z" fill="white"/>
<path d="M1571.05 306H1566.45C1566.13 306 1565.87 306.258 1565.87 306.575V311.176C1565.87 311.494 1566.13 311.752 1566.45 311.752H1571.05C1571.37 311.752 1571.62 311.494 1571.62 311.176V306.575C1571.62 306.258 1571.37 306 1571.05 306Z" fill="#FDDB97"/>
<path d="M1571.05 316H1566.45C1566.13 316 1565.87 316.258 1565.87 316.575V321.176C1565.87 321.494 1566.13 321.752 1566.45 321.752H1571.05C1571.37 321.752 1571.62 321.494 1571.62 321.176V316.575C1571.62 316.258 1571.37 316 1571.05 316Z" fill="#FDDB97"/>
<path d="M1571.05 326H1566.45C1566.13 326 1565.87 326.258 1565.87 326.575V331.176C1565.87 331.494 1566.13 331.752 1566.45 331.752H1571.05C1571.37 331.752 1571.62 331.494 1571.62 331.176V326.575C1571.62 326.258 1571.37 326 1571.05 326Z" fill="#FDDB97"/>
<path d="M1571.05 336H1566.45C1566.13 336 1565.87 336.258 1565.87 336.575V341.176C1565.87 341.494 1566.13 341.752 1566.45 341.752H1571.05C1571.37 341.752 1571.62 341.494 1571.62 341.176V336.575C1571.62 336.258 1571.37 336 1571.05 336Z" fill="#FDDB97"/>
<path d="M1571.05 346H1566.45C1566.13 346 1565.87 346.258 1565.87 346.575V351.176C1565.87 351.494 1566.13 351.752 1566.45 351.752H1571.05C1571.37 351.752 1571.62 351.494 1571.62 351.176V346.575C1571.62 346.258 1571.37 346 1571.05 346Z" fill="#FDDB97"/>
<path d="M1571.05 356H1566.45C1566.13 356 1565.87 356.258 1565.87 356.575V361.176C1565.87 361.494 1566.13 361.752 1566.45 361.752H1571.05C1571.37 361.752 1571.62 361.494 1571.62 361.176V356.575C1571.62 356.258 1571.37 356 1571.05 356Z" fill="#FDDB97"/>
<path d="M1603.05 256H1598.45C1598.13 256 1597.87 256.258 1597.87 256.575V261.176C1597.87 261.494 1598.13 261.752 1598.45 261.752H1603.05C1603.37 261.752 1603.62 261.494 1603.62 261.176V256.575C1603.62 256.258 1603.37 256 1603.05 256Z" fill="#FDDB97"/>
<path d="M1603.05 266H1598.45C1598.13 266 1597.87 266.258 1597.87 266.575V271.176C1597.87 271.494 1598.13 271.752 1598.45 271.752H1603.05C1603.37 271.752 1603.62 271.494 1603.62 271.176V266.575C1603.62 266.258 1603.37 266 1603.05 266Z" fill="#FDDB97"/>
<path d="M1603.05 276H1598.45C1598.13 276 1597.87 276.258 1597.87 276.575V281.176C1597.87 281.494 1598.13 281.752 1598.45 281.752H1603.05C1603.37 281.752 1603.62 281.494 1603.62 281.176V276.575C1603.62 276.258 1603.37 276 1603.05 276Z" fill="#FDDB97"/>
<path d="M1603.05 286H1598.45C1598.13 286 1597.87 286.258 1597.87 286.575V291.176C1597.87 291.494 1598.13 291.752 1598.45 291.752H1603.05C1603.37 291.752 1603.62 291.494 1603.62 291.176V286.575C1603.62 286.258 1603.37 286 1603.05 286Z" fill="#FDDB97"/>
<path d="M1603.05 296H1598.45C1598.13 296 1597.87 296.258 1597.87 296.575V301.176C1597.87 301.494 1598.13 301.752 1598.45 301.752H1603.05C1603.37 301.752 1603.62 301.494 1603.62 301.176V296.575C1603.62 296.258 1603.37 296 1603.05 296Z" fill="#FDDB97"/>
<path d="M1603.05 306H1598.45C1598.13 306 1597.87 306.258 1597.87 306.575V311.176C1597.87 311.494 1598.13 311.752 1598.45 311.752H1603.05C1603.37 311.752 1603.62 311.494 1603.62 311.176V306.575C1603.62 306.258 1603.37 306 1603.05 306Z" fill="white"/>
<path d="M1603.05 316H1598.45C1598.13 316 1597.87 316.258 1597.87 316.575V321.176C1597.87 321.494 1598.13 321.752 1598.45 321.752H1603.05C1603.37 321.752 1603.62 321.494 1603.62 321.176V316.575C1603.62 316.258 1603.37 316 1603.05 316Z" fill="#FDDB97"/>
<path d="M1603.05 326H1598.45C1598.13 326 1597.87 326.258 1597.87 326.575V331.176C1597.87 331.494 1598.13 331.752 1598.45 331.752H1603.05C1603.37 331.752 1603.62 331.494 1603.62 331.176V326.575C1603.62 326.258 1603.37 326 1603.05 326Z" fill="#FDDB97"/>
<path d="M1603.05 336H1598.45C1598.13 336 1597.87 336.258 1597.87 336.575V341.176C1597.87 341.494 1598.13 341.752 1598.45 341.752H1603.05C1603.37 341.752 1603.62 341.494 1603.62 341.176V336.575C1603.62 336.258 1603.37 336 1603.05 336Z" fill="#FDDB97"/>
<path d="M1603.05 346H1598.45C1598.13 346 1597.87 346.258 1597.87 346.575V351.176C1597.87 351.494 1598.13 351.752 1598.45 351.752H1603.05C1603.37 351.752 1603.62 351.494 1603.62 351.176V346.575C1603.62 346.258 1603.37 346 1603.05 346Z" fill="#FDDB97"/>
<path d="M1603.05 356H1598.45C1598.13 356 1597.87 356.258 1597.87 356.575V361.176C1597.87 361.494 1598.13 361.752 1598.45 361.752H1603.05C1603.37 361.752 1603.62 361.494 1603.62 361.176V356.575C1603.62 356.258 1603.37 356 1603.05 356Z" fill="white"/>
<path d="M1582.02 256H1577.42C1577.1 256 1576.84 256.258 1576.84 256.575V261.176C1576.84 261.494 1577.1 261.752 1577.42 261.752H1582.02C1582.34 261.752 1582.6 261.494 1582.6 261.176V256.575C1582.6 256.258 1582.34 256 1582.02 256Z" fill="#FDDB97"/>
<path d="M1582.02 266H1577.42C1577.1 266 1576.84 266.258 1576.84 266.575V271.176C1576.84 271.494 1577.1 271.752 1577.42 271.752H1582.02C1582.34 271.752 1582.6 271.494 1582.6 271.176V266.575C1582.6 266.258 1582.34 266 1582.02 266Z" fill="white"/>
<path d="M1582.02 276H1577.42C1577.1 276 1576.84 276.258 1576.84 276.575V281.176C1576.84 281.494 1577.1 281.752 1577.42 281.752H1582.02C1582.34 281.752 1582.6 281.494 1582.6 281.176V276.575C1582.6 276.258 1582.34 276 1582.02 276Z" fill="#FDDB97"/>
<path d="M1582.02 286H1577.42C1577.1 286 1576.84 286.258 1576.84 286.575V291.176C1576.84 291.494 1577.1 291.752 1577.42 291.752H1582.02C1582.34 291.752 1582.6 291.494 1582.6 291.176V286.575C1582.6 286.258 1582.34 286 1582.02 286Z" fill="#FDDB97"/>
<path d="M1582.02 296H1577.42C1577.1 296 1576.84 296.258 1576.84 296.575V301.176C1576.84 301.494 1577.1 301.752 1577.42 301.752H1582.02C1582.34 301.752 1582.6 301.494 1582.6 301.176V296.575C1582.6 296.258 1582.34 296 1582.02 296Z" fill="#FDDB97"/>
<path d="M1582.02 306H1577.42C1577.1 306 1576.84 306.258 1576.84 306.575V311.176C1576.84 311.494 1577.1 311.752 1577.42 311.752H1582.02C1582.34 311.752 1582.6 311.494 1582.6 311.176V306.575C1582.6 306.258 1582.34 306 1582.02 306Z" fill="#FDDB97"/>
<path d="M1582.02 316H1577.42C1577.1 316 1576.84 316.258 1576.84 316.575V321.176C1576.84 321.494 1577.1 321.752 1577.42 321.752H1582.02C1582.34 321.752 1582.6 321.494 1582.6 321.176V316.575C1582.6 316.258 1582.34 316 1582.02 316Z" fill="#FDDB97"/>
<path d="M1582.02 326H1577.42C1577.1 326 1576.84 326.258 1576.84 326.575V331.176C1576.84 331.494 1577.1 331.752 1577.42 331.752H1582.02C1582.34 331.752 1582.6 331.494 1582.6 331.176V326.575C1582.6 326.258 1582.34 326 1582.02 326Z" fill="#FDDB97"/>
<path d="M1582.02 336H1577.42C1577.1 336 1576.84 336.258 1576.84 336.575V341.176C1576.84 341.494 1577.1 341.752 1577.42 341.752H1582.02C1582.34 341.752 1582.6 341.494 1582.6 341.176V336.575C1582.6 336.258 1582.34 336 1582.02 336Z" fill="#FDDB97"/>
<path d="M1582.02 346H1577.42C1577.1 346 1576.84 346.258 1576.84 346.575V351.176C1576.84 351.494 1577.1 351.752 1577.42 351.752H1582.02C1582.34 351.752 1582.6 351.494 1582.6 351.176V346.575C1582.6 346.258 1582.34 346 1582.02 346Z" fill="#FDDB97"/>
<path d="M1582.02 356H1577.42C1577.1 356 1576.84 356.258 1576.84 356.575V361.176C1576.84 361.494 1577.1 361.752 1577.42 361.752H1582.02C1582.34 361.752 1582.6 361.494 1582.6 361.176V356.575C1582.6 356.258 1582.34 356 1582.02 356Z" fill="#FDDB97"/>
<path d="M1614.02 256H1609.42C1609.1 256 1608.84 256.258 1608.84 256.575V261.176C1608.84 261.494 1609.1 261.752 1609.42 261.752H1614.02C1614.34 261.752 1614.6 261.494 1614.6 261.176V256.575C1614.6 256.258 1614.34 256 1614.02 256Z" fill="#FDDB97"/>
<path d="M1614.02 266H1609.42C1609.1 266 1608.84 266.258 1608.84 266.575V271.176C1608.84 271.494 1609.1 271.752 1609.42 271.752H1614.02C1614.34 271.752 1614.6 271.494 1614.6 271.176V266.575C1614.6 266.258 1614.34 266 1614.02 266Z" fill="#FDDB97"/>
<path d="M1614.02 276H1609.42C1609.1 276 1608.84 276.258 1608.84 276.575V281.176C1608.84 281.494 1609.1 281.752 1609.42 281.752H1614.02C1614.34 281.752 1614.6 281.494 1614.6 281.176V276.575C1614.6 276.258 1614.34 276 1614.02 276Z" fill="#FDDB97"/>
<path d="M1614.02 286H1609.42C1609.1 286 1608.84 286.258 1608.84 286.575V291.176C1608.84 291.494 1609.1 291.752 1609.42 291.752H1614.02C1614.34 291.752 1614.6 291.494 1614.6 291.176V286.575C1614.6 286.258 1614.34 286 1614.02 286Z" fill="#FDDB97"/>
<path d="M1614.02 296H1609.42C1609.1 296 1608.84 296.258 1608.84 296.575V301.176C1608.84 301.494 1609.1 301.752 1609.42 301.752H1614.02C1614.34 301.752 1614.6 301.494 1614.6 301.176V296.575C1614.6 296.258 1614.34 296 1614.02 296Z" fill="#FDDB97"/>
<path d="M1614.02 306H1609.42C1609.1 306 1608.84 306.258 1608.84 306.575V311.176C1608.84 311.494 1609.1 311.752 1609.42 311.752H1614.02C1614.34 311.752 1614.6 311.494 1614.6 311.176V306.575C1614.6 306.258 1614.34 306 1614.02 306Z" fill="#FDDB97"/>
<path d="M1614.02 316H1609.42C1609.1 316 1608.84 316.258 1608.84 316.575V321.176C1608.84 321.494 1609.1 321.752 1609.42 321.752H1614.02C1614.34 321.752 1614.6 321.494 1614.6 321.176V316.575C1614.6 316.258 1614.34 316 1614.02 316Z" fill="#FDDB97"/>
<path d="M1614.02 326H1609.42C1609.1 326 1608.84 326.258 1608.84 326.575V331.176C1608.84 331.494 1609.1 331.752 1609.42 331.752H1614.02C1614.34 331.752 1614.6 331.494 1614.6 331.176V326.575C1614.6 326.258 1614.34 326 1614.02 326Z" fill="white"/>
<path d="M1614.02 336H1609.42C1609.1 336 1608.84 336.258 1608.84 336.575V341.176C1608.84 341.494 1609.1 341.752 1609.42 341.752H1614.02C1614.34 341.752 1614.6 341.494 1614.6 341.176V336.575C1614.6 336.258 1614.34 336 1614.02 336Z" fill="#FDDB97"/>
<path d="M1614.02 346H1609.42C1609.1 346 1608.84 346.258 1608.84 346.575V351.176C1608.84 351.494 1609.1 351.752 1609.42 351.752H1614.02C1614.34 351.752 1614.6 351.494 1614.6 351.176V346.575C1614.6 346.258 1614.34 346 1614.02 346Z" fill="white"/>
<path d="M1614.02 356H1609.42C1609.1 356 1608.84 356.258 1608.84 356.575V361.176C1608.84 361.494 1609.1 361.752 1609.42 361.752H1614.02C1614.34 361.752 1614.6 361.494 1614.6 361.176V356.575C1614.6 356.258 1614.34 356 1614.02 356Z" fill="#FDDB97"/>
<path d="M1625.18 256H1620.58C1620.26 256 1620 256.258 1620 256.575V261.176C1620 261.494 1620.26 261.752 1620.58 261.752H1625.18C1625.49 261.752 1625.75 261.494 1625.75 261.176V256.575C1625.75 256.258 1625.49 256 1625.18 256Z" fill="#FDDB97"/>
<path d="M1625.18 266H1620.58C1620.26 266 1620 266.258 1620 266.575V271.176C1620 271.494 1620.26 271.752 1620.58 271.752H1625.18C1625.49 271.752 1625.75 271.494 1625.75 271.176V266.575C1625.75 266.258 1625.49 266 1625.18 266Z" fill="#FDDB97"/>
<path d="M1625.18 276H1620.58C1620.26 276 1620 276.258 1620 276.575V281.176C1620 281.494 1620.26 281.752 1620.58 281.752H1625.18C1625.49 281.752 1625.75 281.494 1625.75 281.176V276.575C1625.75 276.258 1625.49 276 1625.18 276Z" fill="#FDDB97"/>
<path d="M1625.18 286H1620.58C1620.26 286 1620 286.258 1620 286.575V291.176C1620 291.494 1620.26 291.752 1620.58 291.752H1625.18C1625.49 291.752 1625.75 291.494 1625.75 291.176V286.575C1625.75 286.258 1625.49 286 1625.18 286Z" fill="#FDDB97"/>
<path d="M1625.18 296H1620.58C1620.26 296 1620 296.258 1620 296.575V301.176C1620 301.494 1620.26 301.752 1620.58 301.752H1625.18C1625.49 301.752 1625.75 301.494 1625.75 301.176V296.575C1625.75 296.258 1625.49 296 1625.18 296Z" fill="#FDDB97"/>
<path d="M1625.18 306H1620.58C1620.26 306 1620 306.258 1620 306.575V311.176C1620 311.494 1620.26 311.752 1620.58 311.752H1625.18C1625.49 311.752 1625.75 311.494 1625.75 311.176V306.575C1625.75 306.258 1625.49 306 1625.18 306Z" fill="#FDDB97"/>
<path d="M1625.18 316H1620.58C1620.26 316 1620 316.258 1620 316.575V321.176C1620 321.494 1620.26 321.752 1620.58 321.752H1625.18C1625.49 321.752 1625.75 321.494 1625.75 321.176V316.575C1625.75 316.258 1625.49 316 1625.18 316Z" fill="#FDDB97"/>
<path d="M1625.18 326H1620.58C1620.26 326 1620 326.258 1620 326.575V331.176C1620 331.494 1620.26 331.752 1620.58 331.752H1625.18C1625.49 331.752 1625.75 331.494 1625.75 331.176V326.575C1625.75 326.258 1625.49 326 1625.18 326Z" fill="#FDDB97"/>
<path d="M1625.18 336H1620.58C1620.26 336 1620 336.258 1620 336.575V341.176C1620 341.494 1620.26 341.752 1620.58 341.752H1625.18C1625.49 341.752 1625.75 341.494 1625.75 341.176V336.575C1625.75 336.258 1625.49 336 1625.18 336Z" fill="#FDDB97"/>
<path d="M1625.18 346H1620.58C1620.26 346 1620 346.258 1620 346.575V351.176C1620 351.494 1620.26 351.752 1620.58 351.752H1625.18C1625.49 351.752 1625.75 351.494 1625.75 351.176V346.575C1625.75 346.258 1625.49 346 1625.18 346Z" fill="#FDDB97"/>
<path d="M1625.18 356H1620.58C1620.26 356 1620 356.258 1620 356.575V361.176C1620 361.494 1620.26 361.752 1620.58 361.752H1625.18C1625.49 361.752 1625.75 361.494 1625.75 361.176V356.575C1625.75 356.258 1625.49 356 1625.18 356Z" fill="white"/>
<path d="M1547 368H1632.53" stroke="#FDDB97" stroke-width="3.96953" stroke-miterlimit="10"/>
<circle cx="1577.62" cy="191.574" r="5.67075" stroke="#FDDB97" stroke-width="3.96953"/>
<path d="M1577.62 197.812V211.988" stroke="#FDDB97" stroke-width="3.96953"/>
<circle cx="1605.41" cy="153.58" r="5.67075" stroke="#FDDB97" stroke-width="3.96953"/>
<path d="M1605.12 160.385V175.129" stroke="#FDDB97" stroke-width="3.96953"/>
<path d="M1547.85 168.891L1564.86 155.848L1583.58 164.354L1600.31 154.714" stroke="#FDDB97" stroke-width="3.96953"/>
<path d="M1611.65 154.147L1620.44 156.132L1632.91 141.955M1547.85 200.08L1561.74 186.754L1572.52 190.44" stroke="#FDDB97" stroke-width="3.96953"/>
<path d="M1581.88 189.022L1593.78 179.098L1613.91 189.022L1633.2 166.906" stroke="#FDDB97" stroke-width="3.96953"/>
<path d="M1581.31 115.586V101.409" stroke="#FDDB97" stroke-width="3.96953"/>
<path d="M1590.1 115.586V97.4395" stroke="#FDDB97" stroke-width="3.96953"/>
<path d="M1598.6 115.586L1598.6 79.293" stroke="#FDDB97" stroke-width="3.96953"/>
<path d="M1607.68 115.585L1607.68 82.1279" stroke="#FDDB97" stroke-width="3.96953"/>
<path d="M1616.18 115.586L1616.18 61.1465" stroke="#FDDB97" stroke-width="3.96953"/>
<path d="M1948.86 213H1896.93C1894.76 213 1893 214.761 1893 216.934V385.967C1893 388.139 1894.76 389.901 1896.93 389.901H1948.86C1951.03 389.901 1952.79 388.139 1952.79 385.967V216.934C1952.79 214.761 1951.03 213 1948.86 213Z" stroke="#FDDB97" stroke-width="3.93351" stroke-miterlimit="10"/>
<path d="M1910.33 231.862H1904.53C1904.31 231.862 1904.13 232.038 1904.13 232.256V253.518C1904.13 253.735 1904.31 253.911 1904.53 253.911H1910.33C1910.55 253.911 1910.72 253.735 1910.72 253.518V232.256C1910.72 232.038 1910.55 231.862 1910.33 231.862Z" fill="#FDDB97"/>
<path d="M1925.79 231.862H1919.98C1919.77 231.862 1919.59 232.038 1919.59 232.256V253.518C1919.59 253.735 1919.77 253.911 1919.98 253.911H1925.79C1926 253.911 1926.18 253.735 1926.18 253.518V232.256C1926.18 232.038 1926 231.862 1925.79 231.862Z" fill="#FDDB97"/>
<path d="M1910.33 261.149H1904.53C1904.31 261.149 1904.13 261.326 1904.13 261.543V282.805C1904.13 283.022 1904.31 283.198 1904.53 283.198H1910.33C1910.55 283.198 1910.72 283.022 1910.72 282.805V261.543C1910.72 261.326 1910.55 261.149 1910.33 261.149Z" fill="#FDDB97"/>
<path d="M1925.79 261.149H1919.98C1919.77 261.149 1919.59 261.326 1919.59 261.543V282.805C1919.59 283.022 1919.77 283.198 1919.98 283.198H1925.79C1926 283.198 1926.18 283.022 1926.18 282.805V261.543C1926.18 261.326 1926 261.149 1925.79 261.149Z" fill="#FDDB97"/>
<path d="M1910.33 290.436H1904.53C1904.31 290.436 1904.13 290.612 1904.13 290.829V312.091C1904.13 312.308 1904.31 312.484 1904.53 312.484H1910.33C1910.55 312.484 1910.72 312.308 1910.72 312.091V290.829C1910.72 290.612 1910.55 290.436 1910.33 290.436Z" fill="#FDDB97"/>
<path d="M1925.79 290.436H1919.98C1919.77 290.436 1919.59 290.612 1919.59 290.829V312.091C1919.59 312.308 1919.77 312.484 1919.98 312.484H1925.79C1926 312.484 1926.18 312.308 1926.18 312.091V290.829C1926.18 290.612 1926 290.436 1925.79 290.436Z" fill="#FDDB97"/>
<path d="M1910.33 319.703H1904.53C1904.31 319.703 1904.13 319.879 1904.13 320.096V341.358C1904.13 341.576 1904.31 341.752 1904.53 341.752H1910.33C1910.55 341.752 1910.72 341.576 1910.72 341.358V320.096C1910.72 319.879 1910.55 319.703 1910.33 319.703Z" fill="#FDDB97"/>
<path d="M1925.79 319.703H1919.98C1919.77 319.703 1919.59 319.879 1919.59 320.096V341.358C1919.59 341.576 1919.77 341.752 1919.98 341.752H1925.79C1926 341.752 1926.18 341.576 1926.18 341.358V320.096C1926.18 319.879 1926 319.703 1925.79 319.703Z" fill="#FDDB97"/>
<path d="M1910.33 348.989H1904.53C1904.31 348.989 1904.13 349.165 1904.13 349.383V370.645C1904.13 370.862 1904.31 371.038 1904.53 371.038H1910.33C1910.55 371.038 1910.72 370.862 1910.72 370.645V349.383C1910.72 349.165 1910.55 348.989 1910.33 348.989Z" fill="#FDDB97"/>
<path d="M1925.79 348.989H1919.98C1919.77 348.989 1919.59 349.165 1919.59 349.383V370.645C1919.59 370.862 1919.77 371.038 1919.98 371.038H1925.79C1926 371.038 1926.18 370.862 1926.18 370.645V349.383C1926.18 349.165 1926 348.989 1925.79 348.989Z" fill="#FDDB97"/>
<path d="M1522.38 314H1471.71C1470.21 314 1469 315.214 1469 316.712V386.745C1469 388.242 1470.21 389.457 1471.71 389.457H1522.38C1523.88 389.457 1525.09 388.242 1525.09 386.745V316.712C1525.09 315.214 1523.88 314 1522.38 314Z" stroke="#FDDB97" stroke-width="3.93351" stroke-miterlimit="10"/>
<path d="M1485.16 324.21H1478.34C1477.59 324.21 1476.98 324.817 1476.98 325.566V332.386C1476.98 333.135 1477.59 333.742 1478.34 333.742H1485.16C1485.91 333.742 1486.52 333.135 1486.52 332.386V325.566C1486.52 324.817 1485.91 324.21 1485.16 324.21Z" fill="#FDDB97"/>
<path d="M1500.46 324.21H1493.64C1492.9 324.21 1492.29 324.817 1492.29 325.566V332.386C1492.29 333.135 1492.9 333.742 1493.64 333.742H1500.46C1501.21 333.742 1501.82 333.135 1501.82 332.386V325.566C1501.82 324.817 1501.21 324.21 1500.46 324.21Z" fill="#FDDB97"/>
<path d="M1515.76 324.21H1508.94C1508.19 324.21 1507.59 324.817 1507.59 325.566V332.386C1507.59 333.135 1508.19 333.742 1508.94 333.742H1515.76C1516.51 333.742 1517.12 333.135 1517.12 332.386V325.566C1517.12 324.817 1516.51 324.21 1515.76 324.21Z" fill="white"/>
<path d="M1485.16 339.383H1478.34C1477.59 339.383 1476.98 339.99 1476.98 340.739V347.559C1476.98 348.308 1477.59 348.915 1478.34 348.915H1485.16C1485.91 348.915 1486.52 348.308 1486.52 347.559V340.739C1486.52 339.99 1485.91 339.383 1485.16 339.383Z" fill="#FDDB97"/>
<path d="M1500.46 339.383H1493.64C1492.9 339.383 1492.29 339.99 1492.29 340.739V347.559C1492.29 348.308 1492.9 348.915 1493.64 348.915H1500.46C1501.21 348.915 1501.82 348.308 1501.82 347.559V340.739C1501.82 339.99 1501.21 339.383 1500.46 339.383Z" fill="white"/>
<path d="M1515.76 339.383H1508.94C1508.19 339.383 1507.59 339.99 1507.59 340.739V347.559C1507.59 348.308 1508.19 348.915 1508.94 348.915H1515.76C1516.51 348.915 1517.12 348.308 1517.12 347.559V340.739C1517.12 339.99 1516.51 339.383 1515.76 339.383Z" fill="#FDDB97"/>
<path d="M1485.16 354.556H1478.34C1477.59 354.556 1476.98 355.163 1476.98 355.912V362.732C1476.98 363.481 1477.59 364.088 1478.34 364.088H1485.16C1485.91 364.088 1486.52 363.481 1486.52 362.732V355.912C1486.52 355.163 1485.91 354.556 1485.16 354.556Z" fill="#FDDB97"/>
<path d="M1500.46 354.556H1493.64C1492.9 354.556 1492.29 355.163 1492.29 355.912V362.732C1492.29 363.481 1492.9 364.088 1493.64 364.088H1500.46C1501.21 364.088 1501.82 363.481 1501.82 362.732V355.912C1501.82 355.163 1501.21 354.556 1500.46 354.556Z" fill="#FDDB97"/>
<path d="M1515.76 354.556H1508.94C1508.19 354.556 1507.59 355.163 1507.59 355.912V362.732C1507.59 363.481 1508.19 364.088 1508.94 364.088H1515.76C1516.51 364.088 1517.12 363.481 1517.12 362.732V355.912C1517.12 355.163 1516.51 354.556 1515.76 354.556Z" fill="#FDDB97"/>
<path d="M1485.16 369.715H1478.34C1477.59 369.715 1476.98 370.322 1476.98 371.071V377.891C1476.98 378.64 1477.59 379.247 1478.34 379.247H1485.16C1485.91 379.247 1486.52 378.64 1486.52 377.891V371.071C1486.52 370.322 1485.91 369.715 1485.16 369.715Z" fill="#FDDB97"/>
<path d="M1500.46 369.715H1493.64C1492.9 369.715 1492.29 370.322 1492.29 371.071V377.891C1492.29 378.64 1492.9 379.247 1493.64 379.247H1500.46C1501.21 379.247 1501.82 378.64 1501.82 377.891V371.071C1501.82 370.322 1501.21 369.715 1500.46 369.715Z" fill="#FDDB97"/>
<path d="M1515.76 369.715H1508.94C1508.19 369.715 1507.59 370.322 1507.59 371.071V377.891C1507.59 378.64 1508.19 379.247 1508.94 379.247H1515.76C1516.51 379.247 1517.12 378.64 1517.12 377.891V371.071C1517.12 370.322 1516.51 369.715 1515.76 369.715Z" fill="#FDDB97"/>
<path d="M510.098 351H472.86C471.759 351 470.867 351.892 470.867 352.993V404.464C470.867 405.564 471.759 406.457 472.86 406.457H510.098C511.199 406.457 512.091 405.564 512.091 404.464V352.993C512.091 351.892 511.199 351 510.098 351Z" stroke="#FDDB97" stroke-width="3.93351" stroke-miterlimit="10"/>
<path d="M482.743 358.504H477.731C477.181 358.504 476.734 358.95 476.734 359.5V364.513C476.734 365.063 477.181 365.509 477.731 365.509H482.743C483.293 365.509 483.74 365.063 483.74 364.513V359.5C483.74 358.95 483.293 358.504 482.743 358.504Z" fill="white"/>
<path d="M493.993 358.504H488.981C488.431 358.504 487.984 358.95 487.984 359.5V364.513C487.984 365.063 488.431 365.509 488.981 365.509H493.993C494.543 365.509 494.99 365.063 494.99 364.513V359.5C494.99 358.95 494.543 358.504 493.993 358.504Z" fill="#FDDB97"/>
<path d="M505.235 358.504H500.223C499.673 358.504 499.227 358.95 499.227 359.5V364.513C499.227 365.063 499.673 365.509 500.223 365.509H505.235C505.786 365.509 506.232 365.063 506.232 364.513V359.5C506.232 358.95 505.786 358.504 505.235 358.504Z" fill="#FDDB97"/>
<path d="M482.743 369.655H477.731C477.181 369.655 476.734 370.101 476.734 370.652V375.664C476.734 376.215 477.181 376.661 477.731 376.661H482.743C483.293 376.661 483.74 376.215 483.74 375.664V370.652C483.74 370.101 483.293 369.655 482.743 369.655Z" fill="#FDDB97"/>
<path d="M493.993 369.655H488.981C488.431 369.655 487.984 370.101 487.984 370.652V375.664C487.984 376.215 488.431 376.661 488.981 376.661H493.993C494.543 376.661 494.99 376.215 494.99 375.664V370.652C494.99 370.101 494.543 369.655 493.993 369.655Z" fill="#FDDB97"/>
<path d="M505.235 369.655H500.223C499.673 369.655 499.227 370.101 499.227 370.652V375.664C499.227 376.215 499.673 376.661 500.223 376.661H505.235C505.786 376.661 506.232 376.215 506.232 375.664V370.652C506.232 370.101 505.786 369.655 505.235 369.655Z" fill="white"/>
<path d="M4.10701 243H15.6891C16.5408 243 17.2376 243.697 17.2376 244.549V251.873C17.2376 252.725 16.5408 253.421 15.6891 253.421H2.55859V244.549C2.55859 243.697 3.25538 243 4.10701 243V243Z" stroke="#FDDB97" stroke-width="3.09683" stroke-miterlimit="10"/>
<path d="M-1.84221 260.979H6.95278C7.80441 260.979 8.50119 261.675 8.50119 262.527V270.207H-3.39062V262.527C-3.39062 261.675 -2.69384 260.979 -1.84221 260.979Z" stroke="#FDDB97" stroke-width="3.09683" stroke-miterlimit="10"/>
<path d="M5.94531 270.223H15.8397C16.6913 270.223 17.3881 270.919 17.3881 271.771V277.485H5.94531V270.223Z" stroke="#FDDB97" stroke-width="3.09683" stroke-miterlimit="10"/>
<path d="M-10.7133 270.223H-0.818942V277.485H-12.2617V271.771C-12.2617 270.919 -11.5649 270.223 -10.7133 270.223Z" stroke="#FDDB97" stroke-width="3.09683" stroke-miterlimit="10"/>
<path d="M15.2823 277.47H5.94531V338.094H15.2823V277.47Z" stroke="#FDDB97" stroke-width="3.09683" stroke-miterlimit="10"/>
<path d="M-0.81931 277.47H-10.1562V338.094H-0.81931V277.47Z" stroke="#FDDB97" stroke-width="3.09683" stroke-miterlimit="10"/>
<path d="M2.55469 249.023V260.978" stroke="#FDDB97" stroke-width="3.09683" stroke-miterlimit="10"/>
<path d="M31.3711 310.345V338.109" stroke="#FDDB97" stroke-width="3.09683" stroke-miterlimit="10"/>
<path d="M50.4922 322.237V338.11" stroke="#FDDB97" stroke-width="3.09683" stroke-miterlimit="10"/>
<path d="M69.6172 328.757V338.109" stroke="#FDDB97" stroke-width="3.09683" stroke-miterlimit="10"/>
<path d="M88.7422 330.831V338.109" stroke="#FDDB97" stroke-width="3.09683" stroke-miterlimit="10"/>
<path d="M107.863 328.803V338.109" stroke="#FDDB97" stroke-width="3.09683" stroke-miterlimit="10"/>
<path d="M126.984 322.407V338.109" stroke="#FDDB97" stroke-width="3.09683" stroke-miterlimit="10"/>
<path d="M146.109 310.515V338.109" stroke="#FDDB97" stroke-width="3.09683" stroke-miterlimit="10"/>
<path d="M15.2969 277.47C29.0003 304.321 56.9028 322.717 89.1098 322.717C121.317 322.717 149.219 304.321 162.923 277.47" stroke="#FDDB97" stroke-width="3.09683" stroke-miterlimit="10"/>
<path d="M204.75 310.376V338.141" stroke="#FDDB97" stroke-width="3.09683" stroke-miterlimit="10"/>
<path d="M223.875 322.269V338.141" stroke="#FDDB97" stroke-width="3.09683" stroke-miterlimit="10"/>
<path d="M242.992 328.788V338.141" stroke="#FDDB97" stroke-width="3.09683" stroke-miterlimit="10"/>
<path d="M-84 338.109V348.144H262.163V322.733C229.956 322.733 202.054 304.336 188.351 277.485" stroke="#FDDB97" stroke-width="3.09683" stroke-miterlimit="10"/>
<path d="M-10.1715 277.47C-23.8749 304.321 -51.7774 322.717 -83.9844 322.717V338.094H262.133" stroke="#FDDB97" stroke-width="3.09683" stroke-miterlimit="10"/>
<path d="M15.7803 355.422H-10.9453V390.403H15.7803V355.422Z" stroke="#FDDB97" stroke-width="3.09683" stroke-miterlimit="10"/>
<path d="M-13.2383 348.175H18.0706V353.888C18.0706 354.74 17.3739 355.437 16.5222 355.437H-11.6899C-12.5415 355.437 -13.2383 354.74 -13.2383 353.888V348.175Z" stroke="#FDDB97" stroke-width="3.09683" stroke-miterlimit="10"/>
<path d="M8.1459 348.175H-3.29688V390.418H8.1459V348.175Z" stroke="#FDDB97" stroke-width="3.09683" stroke-miterlimit="10"/>
<path d="M177.17 243H188.752C189.603 243 190.3 243.697 190.3 244.549V251.873C190.3 252.725 189.603 253.421 188.752 253.421H175.621V244.549C175.621 243.697 176.318 243 177.17 243Z" stroke="#FDDB97" stroke-width="3.09683" stroke-miterlimit="10"/>
<path d="M171.24 260.979H180.035C180.886 260.979 181.583 261.675 181.583 262.527V270.207H169.691V262.527C169.691 261.675 170.388 260.979 171.24 260.979Z" stroke="#FDDB97" stroke-width="3.09683" stroke-miterlimit="10"/>
<path d="M179.012 270.223H188.906C189.758 270.223 190.454 270.919 190.454 271.771V277.485H179.012V270.223Z" stroke="#FDDB97" stroke-width="3.09683" stroke-miterlimit="10"/>
<path d="M162.353 270.223H172.247V277.485H160.805V271.771C160.805 270.919 161.501 270.223 162.353 270.223Z" stroke="#FDDB97" stroke-width="3.09683" stroke-miterlimit="10"/>
<path d="M188.349 277.47H179.012V338.078H188.349V277.47Z" stroke="#FDDB97" stroke-width="3.09683" stroke-miterlimit="10"/>
<path d="M172.251 277.47H162.914V338.078H172.251V277.47Z" stroke="#FDDB97" stroke-width="3.09683" stroke-miterlimit="10"/>
<path d="M175.621 249.023V260.978" stroke="#FDDB97" stroke-width="3.09683" stroke-miterlimit="10"/>
<path d="M188.851 355.422H162.125V390.403H188.851V355.422Z" stroke="#FDDB97" stroke-width="3.09683" stroke-miterlimit="10"/>
<path d="M159.848 348.175H191.157V353.888C191.157 354.74 190.46 355.437 189.608 355.437H161.396C160.544 355.437 159.848 354.74 159.848 353.888V348.175Z" stroke="#FDDB97" stroke-width="3.09683" stroke-miterlimit="10"/>
<path d="M181.216 348.175H169.773V390.418H181.216V348.175Z" stroke="#FDDB97" stroke-width="3.09683" stroke-miterlimit="10"/>
<path d="M6.00745 277.47H5.96094" stroke="#FDDB97" stroke-width="3.09683" stroke-miterlimit="10"/>
<path d="M15.2812 293.435C31.8802 316.213 58.7452 331.032 89.0941 331.032C119.443 331.032 146.308 316.213 162.907 293.435" stroke="#FDDB97" stroke-width="3.09683" stroke-miterlimit="10"/>
<path d="M188.352 293.466C204.951 316.229 231.816 331.033 262.149 331.033" stroke="#FDDB97" stroke-width="3.09683" stroke-miterlimit="10"/>
<path d="M332.548 151H265.934C263.761 151 262 152.761 262 154.934V387.005C262 389.178 263.761 390.939 265.934 390.939H332.548C334.72 390.939 336.481 389.178 336.481 387.005V154.934C336.481 152.761 334.72 151 332.548 151Z" stroke="#FDDB97" stroke-width="3.93351" stroke-miterlimit="10"/>
<path d="M274.176 163H269.575C269.258 163 269 163.258 269 163.575V168.176C269 168.494 269.258 168.752 269.575 168.752H274.176C274.494 168.752 274.752 168.494 274.752 168.176V163.575C274.752 163.258 274.494 163 274.176 163Z" fill="#FDDB97"/>
<path d="M285.047 163H280.446C280.129 163 279.871 163.258 279.871 163.575V168.176C279.871 168.494 280.129 168.752 280.446 168.752H285.047C285.365 168.752 285.623 168.494 285.623 168.176V163.575C285.623 163.258 285.365 163 285.047 163Z" fill="#FDDB97"/>
<path d="M296.02 163H291.419C291.101 163 290.844 163.258 290.844 163.575V168.176C290.844 168.494 291.101 168.752 291.419 168.752H296.02C296.338 168.752 296.595 168.494 296.595 168.176V163.575C296.595 163.258 296.338 163 296.02 163Z" fill="#FDDB97"/>
<path d="M274.176 176.114H269.575C269.258 176.114 269 176.372 269 176.689V181.291C269 181.608 269.258 181.866 269.575 181.866H274.176C274.494 181.866 274.752 181.608 274.752 181.291V176.689C274.752 176.372 274.494 176.114 274.176 176.114Z" fill="#FDDB97"/>
<path d="M285.047 176.114H280.446C280.129 176.114 279.871 176.372 279.871 176.689V181.291C279.871 181.608 280.129 181.866 280.446 181.866H285.047C285.365 181.866 285.623 181.608 285.623 181.291V176.689C285.623 176.372 285.365 176.114 285.047 176.114Z" fill="#FDDB97"/>
<path d="M296.02 176.114H291.419C291.101 176.114 290.844 176.372 290.844 176.689V181.291C290.844 181.608 291.101 181.866 291.419 181.866H296.02C296.338 181.866 296.595 181.608 296.595 181.291V176.689C296.595 176.372 296.338 176.114 296.02 176.114Z" fill="white"/>
<path d="M274.176 189.229H269.575C269.258 189.229 269 189.486 269 189.804V194.405C269 194.723 269.258 194.98 269.575 194.98H274.176C274.494 194.98 274.752 194.723 274.752 194.405V189.804C274.752 189.486 274.494 189.229 274.176 189.229Z" fill="#FDDB97"/>
<path d="M285.047 189.229H280.446C280.129 189.229 279.871 189.486 279.871 189.804V194.405C279.871 194.723 280.129 194.98 280.446 194.98H285.047C285.365 194.98 285.623 194.723 285.623 194.405V189.804C285.623 189.486 285.365 189.229 285.047 189.229Z" fill="#FDDB97"/>
<path d="M296.02 189.229H291.419C291.101 189.229 290.844 189.486 290.844 189.804V194.405C290.844 194.723 291.101 194.98 291.419 194.98H296.02C296.338 194.98 296.595 194.723 296.595 194.405V189.804C296.595 189.486 296.338 189.229 296.02 189.229Z" fill="#FDDB97"/>
<path d="M274.176 202.331H269.575C269.258 202.331 269 202.589 269 202.906V207.507C269 207.825 269.258 208.083 269.575 208.083H274.176C274.494 208.083 274.752 207.825 274.752 207.507V202.906C274.752 202.589 274.494 202.331 274.176 202.331Z" fill="white"/>
<path d="M285.047 202.331H280.446C280.129 202.331 279.871 202.589 279.871 202.906V207.507C279.871 207.825 280.129 208.083 280.446 208.083H285.047C285.365 208.083 285.623 207.825 285.623 207.507V202.906C285.623 202.589 285.365 202.331 285.047 202.331Z" fill="white"/>
<path d="M296.02 202.331H291.419C291.101 202.331 290.844 202.589 290.844 202.906V207.507C290.844 207.825 291.101 208.083 291.419 208.083H296.02C296.338 208.083 296.595 207.825 296.595 207.507V202.906C296.595 202.589 296.338 202.331 296.02 202.331Z" fill="#FDDB97"/>
<path d="M274.176 215.446H269.575C269.258 215.446 269 215.704 269 216.021V220.623C269 220.94 269.258 221.198 269.575 221.198H274.176C274.494 221.198 274.752 220.94 274.752 220.623V216.021C274.752 215.704 274.494 215.446 274.176 215.446Z" fill="#FDDB97"/>
<path d="M285.047 215.446H280.446C280.129 215.446 279.871 215.704 279.871 216.021V220.623C279.871 220.94 280.129 221.198 280.446 221.198H285.047C285.365 221.198 285.623 220.94 285.623 220.623V216.021C285.623 215.704 285.365 215.446 285.047 215.446Z" fill="#FDDB97"/>
<path d="M296.02 215.446H291.419C291.101 215.446 290.844 215.704 290.844 216.021V220.623C290.844 220.94 291.101 221.198 291.419 221.198H296.02C296.338 221.198 296.595 220.94 296.595 220.623V216.021C296.595 215.704 296.338 215.446 296.02 215.446Z" fill="#FDDB97"/>
<path d="M274.176 228.561H269.575C269.258 228.561 269 228.818 269 229.136V233.737C269 234.055 269.258 234.312 269.575 234.312H274.176C274.494 234.312 274.752 234.055 274.752 233.737V229.136C274.752 228.818 274.494 228.561 274.176 228.561Z" fill="#FDDB97"/>
<path d="M285.047 228.561H280.446C280.129 228.561 279.871 228.818 279.871 229.136V233.737C279.871 234.055 280.129 234.312 280.446 234.312H285.047C285.365 234.312 285.623 234.055 285.623 233.737V229.136C285.623 228.818 285.365 228.561 285.047 228.561Z" fill="#FDDB97"/>
<path d="M296.02 228.561H291.419C291.101 228.561 290.844 228.818 290.844 229.136V233.737C290.844 234.055 291.101 234.312 291.419 234.312H296.02C296.338 234.312 296.595 234.055 296.595 233.737V229.136C296.595 228.818 296.338 228.561 296.02 228.561Z" fill="white"/>
<path d="M274.176 241.675H269.575C269.258 241.675 269 241.932 269 242.25V246.851C269 247.169 269.258 247.426 269.575 247.426H274.176C274.494 247.426 274.752 247.169 274.752 246.851V242.25C274.752 241.932 274.494 241.675 274.176 241.675Z" fill="#FDDB97"/>
<path d="M285.047 241.675H280.446C280.129 241.675 279.871 241.932 279.871 242.25V246.851C279.871 247.169 280.129 247.426 280.446 247.426H285.047C285.365 247.426 285.623 247.169 285.623 246.851V242.25C285.623 241.932 285.365 241.675 285.047 241.675Z" fill="#FDDB97"/>
<path d="M296.02 241.675H291.419C291.101 241.675 290.844 241.932 290.844 242.25V246.851C290.844 247.169 291.101 247.426 291.419 247.426H296.02C296.338 247.426 296.595 247.169 296.595 246.851V242.25C296.595 241.932 296.338 241.675 296.02 241.675Z" fill="#FDDB97"/>
<path d="M274.176 254.789H269.575C269.258 254.789 269 255.047 269 255.364V259.965C269 260.283 269.258 260.541 269.575 260.541H274.176C274.494 260.541 274.752 260.283 274.752 259.965V255.364C274.752 255.047 274.494 254.789 274.176 254.789Z" fill="#FDDB97"/>
<path d="M285.047 254.789H280.446C280.129 254.789 279.871 255.047 279.871 255.364V259.965C279.871 260.283 280.129 260.541 280.446 260.541H285.047C285.365 260.541 285.623 260.283 285.623 259.965V255.364C285.623 255.047 285.365 254.789 285.047 254.789Z" fill="#FDDB97"/>
<path d="M296.02 254.789H291.419C291.101 254.789 290.844 255.047 290.844 255.364V259.965C290.844 260.283 291.101 260.541 291.419 260.541H296.02C296.338 260.541 296.595 260.283 296.595 259.965V255.364C296.595 255.047 296.338 254.789 296.02 254.789Z" fill="#FDDB97"/>
<path d="M274.176 267H269.575C269.258 267 269 267.258 269 267.575V272.176C269 272.494 269.258 272.752 269.575 272.752H274.176C274.494 272.752 274.752 272.494 274.752 272.176V267.575C274.752 267.258 274.494 267 274.176 267Z" fill="#FDDB97"/>
<path d="M285.047 267H280.446C280.129 267 279.871 267.258 279.871 267.575V272.176C279.871 272.494 280.129 272.752 280.446 272.752H285.047C285.365 272.752 285.623 272.494 285.623 272.176V267.575C285.623 267.258 285.365 267 285.047 267Z" fill="#FDDB97"/>
<path d="M296.02 267H291.419C291.101 267 290.844 267.258 290.844 267.575V272.176C290.844 272.494 291.101 272.752 291.419 272.752H296.02C296.338 272.752 296.595 272.494 296.595 272.176V267.575C296.595 267.258 296.338 267 296.02 267Z" fill="#FDDB97"/>
<path d="M274.176 280.114H269.575C269.258 280.114 269 280.372 269 280.689V285.291C269 285.608 269.258 285.866 269.575 285.866H274.176C274.494 285.866 274.752 285.608 274.752 285.291V280.689C274.752 280.372 274.494 280.114 274.176 280.114Z" fill="#FDDB97"/>
<path d="M285.047 280.114H280.446C280.129 280.114 279.871 280.372 279.871 280.689V285.291C279.871 285.608 280.129 285.866 280.446 285.866H285.047C285.365 285.866 285.623 285.608 285.623 285.291V280.689C285.623 280.372 285.365 280.114 285.047 280.114Z" fill="#FDDB97"/>
<path d="M296.02 280.114H291.419C291.101 280.114 290.844 280.372 290.844 280.689V285.291C290.844 285.608 291.101 285.866 291.419 285.866H296.02C296.338 285.866 296.595 285.608 296.595 285.291V280.689C296.595 280.372 296.338 280.114 296.02 280.114Z" fill="#FDDB97"/>
<path d="M274.176 293.229H269.575C269.258 293.229 269 293.486 269 293.804V298.405C269 298.723 269.258 298.98 269.575 298.98H274.176C274.494 298.98 274.752 298.723 274.752 298.405V293.804C274.752 293.486 274.494 293.229 274.176 293.229Z" fill="#FDDB97"/>
<path d="M285.047 293.229H280.446C280.129 293.229 279.871 293.486 279.871 293.804V298.405C279.871 298.723 280.129 298.98 280.446 298.98H285.047C285.365 298.98 285.623 298.723 285.623 298.405V293.804C285.623 293.486 285.365 293.229 285.047 293.229Z" fill="white"/>
<path d="M296.02 293.229H291.419C291.101 293.229 290.844 293.486 290.844 293.804V298.405C290.844 298.723 291.101 298.98 291.419 298.98H296.02C296.338 298.98 296.595 298.723 296.595 298.405V293.804C296.595 293.486 296.338 293.229 296.02 293.229Z" fill="#FDDB97"/>
<path d="M274.176 306.331H269.575C269.258 306.331 269 306.589 269 306.906V311.507C269 311.825 269.258 312.083 269.575 312.083H274.176C274.494 312.083 274.752 311.825 274.752 311.507V306.906C274.752 306.589 274.494 306.331 274.176 306.331Z" fill="#FDDB97"/>
<path d="M285.047 306.331H280.446C280.129 306.331 279.871 306.589 279.871 306.906V311.507C279.871 311.825 280.129 312.083 280.446 312.083H285.047C285.365 312.083 285.623 311.825 285.623 311.507V306.906C285.623 306.589 285.365 306.331 285.047 306.331Z" fill="#FDDB97"/>
<path d="M296.02 306.331H291.419C291.101 306.331 290.844 306.589 290.844 306.906V311.507C290.844 311.825 291.101 312.083 291.419 312.083H296.02C296.338 312.083 296.595 311.825 296.595 311.507V306.906C296.595 306.589 296.338 306.331 296.02 306.331Z" fill="#FDDB97"/>
<path d="M274.176 319.446H269.575C269.258 319.446 269 319.704 269 320.021V324.623C269 324.94 269.258 325.198 269.575 325.198H274.176C274.494 325.198 274.752 324.94 274.752 324.623V320.021C274.752 319.704 274.494 319.446 274.176 319.446Z" fill="#FDDB97"/>
<path d="M285.047 319.446H280.446C280.129 319.446 279.871 319.704 279.871 320.021V324.623C279.871 324.94 280.129 325.198 280.446 325.198H285.047C285.365 325.198 285.623 324.94 285.623 324.623V320.021C285.623 319.704 285.365 319.446 285.047 319.446Z" fill="#FDDB97"/>
<path d="M296.02 319.446H291.419C291.101 319.446 290.844 319.704 290.844 320.021V324.623C290.844 324.94 291.101 325.198 291.419 325.198H296.02C296.338 325.198 296.595 324.94 296.595 324.623V320.021C296.595 319.704 296.338 319.446 296.02 319.446Z" fill="#FDDB97"/>
<path d="M274.176 332.561H269.575C269.258 332.561 269 332.818 269 333.136V337.737C269 338.055 269.258 338.312 269.575 338.312H274.176C274.494 338.312 274.752 338.055 274.752 337.737V333.136C274.752 332.818 274.494 332.561 274.176 332.561Z" fill="#FDDB97"/>
<path d="M285.047 332.561H280.446C280.129 332.561 279.871 332.818 279.871 333.136V337.737C279.871 338.055 280.129 338.312 280.446 338.312H285.047C285.365 338.312 285.623 338.055 285.623 337.737V333.136C285.623 332.818 285.365 332.561 285.047 332.561Z" fill="#FDDB97"/>
<path d="M296.02 332.561H291.419C291.101 332.561 290.844 332.818 290.844 333.136V337.737C290.844 338.055 291.101 338.312 291.419 338.312H296.02C296.338 338.312 296.595 338.055 296.595 337.737V333.136C296.595 332.818 296.338 332.561 296.02 332.561Z" fill="white"/>
<path d="M274.176 345.675H269.575C269.258 345.675 269 345.932 269 346.25V350.851C269 351.169 269.258 351.426 269.575 351.426H274.176C274.494 351.426 274.752 351.169 274.752 350.851V346.25C274.752 345.932 274.494 345.675 274.176 345.675Z" fill="#FDDB97"/>
<path d="M285.047 345.675H280.446C280.129 345.675 279.871 345.932 279.871 346.25V350.851C279.871 351.169 280.129 351.426 280.446 351.426H285.047C285.365 351.426 285.623 351.169 285.623 350.851V346.25C285.623 345.932 285.365 345.675 285.047 345.675Z" fill="#FDDB97"/>
<path d="M296.02 345.675H291.419C291.101 345.675 290.844 345.932 290.844 346.25V350.851C290.844 351.169 291.101 351.426 291.419 351.426H296.02C296.338 351.426 296.595 351.169 296.595 350.851V346.25C296.595 345.932 296.338 345.675 296.02 345.675Z" fill="#FDDB97"/>
<path d="M274.176 358.789H269.575C269.258 358.789 269 359.047 269 359.364V363.965C269 364.283 269.258 364.541 269.575 364.541H274.176C274.494 364.541 274.752 364.283 274.752 363.965V359.364C274.752 359.047 274.494 358.789 274.176 358.789Z" fill="#FDDB97"/>
<path d="M285.047 358.789H280.446C280.129 358.789 279.871 359.047 279.871 359.364V363.965C279.871 364.283 280.129 364.541 280.446 364.541H285.047C285.365 364.541 285.623 364.283 285.623 363.965V359.364C285.623 359.047 285.365 358.789 285.047 358.789Z" fill="#FDDB97"/>
<path d="M296.02 358.789H291.419C291.101 358.789 290.844 359.047 290.844 359.364V363.965C290.844 364.283 291.101 364.541 291.419 364.541H296.02C296.338 364.541 296.595 364.283 296.595 363.965V359.364C296.595 359.047 296.338 358.789 296.02 358.789Z" fill="#FDDB97"/>
<path d="M307.176 163H302.575C302.258 163 302 163.258 302 163.575V168.176C302 168.494 302.258 168.752 302.575 168.752H307.176C307.494 168.752 307.752 168.494 307.752 168.176V163.575C307.752 163.258 307.494 163 307.176 163Z" fill="#FDDB97"/>
<path d="M318.047 163H313.446C313.129 163 312.871 163.258 312.871 163.575V168.176C312.871 168.494 313.129 168.752 313.446 168.752H318.047C318.365 168.752 318.623 168.494 318.623 168.176V163.575C318.623 163.258 318.365 163 318.047 163Z" fill="white"/>
<path d="M329.02 163H324.419C324.101 163 323.844 163.258 323.844 163.575V168.176C323.844 168.494 324.101 168.752 324.419 168.752H329.02C329.338 168.752 329.595 168.494 329.595 168.176V163.575C329.595 163.258 329.338 163 329.02 163Z" fill="white"/>
<path d="M307.176 176.114H302.575C302.258 176.114 302 176.372 302 176.689V181.291C302 181.608 302.258 181.866 302.575 181.866H307.176C307.494 181.866 307.752 181.608 307.752 181.291V176.689C307.752 176.372 307.494 176.114 307.176 176.114Z" fill="#FDDB97"/>
<path d="M318.047 176.114H313.446C313.129 176.114 312.871 176.372 312.871 176.689V181.291C312.871 181.608 313.129 181.866 313.446 181.866H318.047C318.365 181.866 318.623 181.608 318.623 181.291V176.689C318.623 176.372 318.365 176.114 318.047 176.114Z" fill="#FDDB97"/>
<path d="M329.02 176.114H324.419C324.101 176.114 323.844 176.372 323.844 176.689V181.291C323.844 181.608 324.101 181.866 324.419 181.866H329.02C329.338 181.866 329.595 181.608 329.595 181.291V176.689C329.595 176.372 329.338 176.114 329.02 176.114Z" fill="#FDDB97"/>
<path d="M307.176 189.229H302.575C302.258 189.229 302 189.486 302 189.804V194.405C302 194.723 302.258 194.98 302.575 194.98H307.176C307.494 194.98 307.752 194.723 307.752 194.405V189.804C307.752 189.486 307.494 189.229 307.176 189.229Z" fill="#FDDB97"/>
<path d="M318.047 189.229H313.446C313.129 189.229 312.871 189.486 312.871 189.804V194.405C312.871 194.723 313.129 194.98 313.446 194.98H318.047C318.365 194.98 318.623 194.723 318.623 194.405V189.804C318.623 189.486 318.365 189.229 318.047 189.229Z" fill="#FDDB97"/>
<path d="M329.02 189.229H324.419C324.101 189.229 323.844 189.486 323.844 189.804V194.405C323.844 194.723 324.101 194.98 324.419 194.98H329.02C329.338 194.98 329.595 194.723 329.595 194.405V189.804C329.595 189.486 329.338 189.229 329.02 189.229Z" fill="#FDDB97"/>
<path d="M307.176 202.331H302.575C302.258 202.331 302 202.589 302 202.906V207.507C302 207.825 302.258 208.083 302.575 208.083H307.176C307.494 208.083 307.752 207.825 307.752 207.507V202.906C307.752 202.589 307.494 202.331 307.176 202.331Z" fill="#FDDB97"/>
<path d="M318.047 202.331H313.446C313.129 202.331 312.871 202.589 312.871 202.906V207.507C312.871 207.825 313.129 208.083 313.446 208.083H318.047C318.365 208.083 318.623 207.825 318.623 207.507V202.906C318.623 202.589 318.365 202.331 318.047 202.331Z" fill="#FDDB97"/>
<path d="M329.02 202.331H324.419C324.101 202.331 323.844 202.589 323.844 202.906V207.507C323.844 207.825 324.101 208.083 324.419 208.083H329.02C329.338 208.083 329.595 207.825 329.595 207.507V202.906C329.595 202.589 329.338 202.331 329.02 202.331Z" fill="white"/>
<path d="M307.176 215.446H302.575C302.258 215.446 302 215.704 302 216.021V220.623C302 220.94 302.258 221.198 302.575 221.198H307.176C307.494 221.198 307.752 220.94 307.752 220.623V216.021C307.752 215.704 307.494 215.446 307.176 215.446Z" fill="#FDDB97"/>
<path d="M318.047 215.446H313.446C313.129 215.446 312.871 215.704 312.871 216.021V220.623C312.871 220.94 313.129 221.198 313.446 221.198H318.047C318.365 221.198 318.623 220.94 318.623 220.623V216.021C318.623 215.704 318.365 215.446 318.047 215.446Z" fill="#FDDB97"/>
<path d="M329.02 215.446H324.419C324.101 215.446 323.844 215.704 323.844 216.021V220.623C323.844 220.94 324.101 221.198 324.419 221.198H329.02C329.338 221.198 329.595 220.94 329.595 220.623V216.021C329.595 215.704 329.338 215.446 329.02 215.446Z" fill="#FDDB97"/>
<path d="M307.176 228.561H302.575C302.258 228.561 302 228.818 302 229.136V233.737C302 234.055 302.258 234.312 302.575 234.312H307.176C307.494 234.312 307.752 234.055 307.752 233.737V229.136C307.752 228.818 307.494 228.561 307.176 228.561Z" fill="#FDDB97"/>
<path d="M318.047 228.561H313.446C313.129 228.561 312.871 228.818 312.871 229.136V233.737C312.871 234.055 313.129 234.312 313.446 234.312H318.047C318.365 234.312 318.623 234.055 318.623 233.737V229.136C318.623 228.818 318.365 228.561 318.047 228.561Z" fill="#FDDB97"/>
<path d="M329.02 228.561H324.419C324.101 228.561 323.844 228.818 323.844 229.136V233.737C323.844 234.055 324.101 234.312 324.419 234.312H329.02C329.338 234.312 329.595 234.055 329.595 233.737V229.136C329.595 228.818 329.338 228.561 329.02 228.561Z" fill="#FDDB97"/>
<path d="M307.176 241.675H302.575C302.258 241.675 302 241.932 302 242.25V246.851C302 247.169 302.258 247.426 302.575 247.426H307.176C307.494 247.426 307.752 247.169 307.752 246.851V242.25C307.752 241.932 307.494 241.675 307.176 241.675Z" fill="#FDDB97"/>
<path d="M318.047 241.675H313.446C313.129 241.675 312.871 241.932 312.871 242.25V246.851C312.871 247.169 313.129 247.426 313.446 247.426H318.047C318.365 247.426 318.623 247.169 318.623 246.851V242.25C318.623 241.932 318.365 241.675 318.047 241.675Z" fill="#FDDB97"/>
<path d="M329.02 241.675H324.419C324.101 241.675 323.844 241.932 323.844 242.25V246.851C323.844 247.169 324.101 247.426 324.419 247.426H329.02C329.338 247.426 329.595 247.169 329.595 246.851V242.25C329.595 241.932 329.338 241.675 329.02 241.675Z" fill="#FDDB97"/>
<path d="M307.176 254.789H302.575C302.258 254.789 302 255.047 302 255.364V259.965C302 260.283 302.258 260.541 302.575 260.541H307.176C307.494 260.541 307.752 260.283 307.752 259.965V255.364C307.752 255.047 307.494 254.789 307.176 254.789Z" fill="#FDDB97"/>
<path d="M318.047 254.789H313.446C313.129 254.789 312.871 255.047 312.871 255.364V259.965C312.871 260.283 313.129 260.541 313.446 260.541H318.047C318.365 260.541 318.623 260.283 318.623 259.965V255.364C318.623 255.047 318.365 254.789 318.047 254.789Z" fill="#FDDB97"/>
<path d="M329.02 254.789H324.419C324.101 254.789 323.844 255.047 323.844 255.364V259.965C323.844 260.283 324.101 260.541 324.419 260.541H329.02C329.338 260.541 329.595 260.283 329.595 259.965V255.364C329.595 255.047 329.338 254.789 329.02 254.789Z" fill="#FDDB97"/>
<path d="M307.176 267H302.575C302.258 267 302 267.258 302 267.575V272.176C302 272.494 302.258 272.752 302.575 272.752H307.176C307.494 272.752 307.752 272.494 307.752 272.176V267.575C307.752 267.258 307.494 267 307.176 267Z" fill="white"/>
<path d="M318.047 267H313.446C313.129 267 312.871 267.258 312.871 267.575V272.176C312.871 272.494 313.129 272.752 313.446 272.752H318.047C318.365 272.752 318.623 272.494 318.623 272.176V267.575C318.623 267.258 318.365 267 318.047 267Z" fill="white"/>
<path d="M329.02 267H324.419C324.101 267 323.844 267.258 323.844 267.575V272.176C323.844 272.494 324.101 272.752 324.419 272.752H329.02C329.338 272.752 329.595 272.494 329.595 272.176V267.575C329.595 267.258 329.338 267 329.02 267Z" fill="#FDDB97"/>
<path d="M307.176 280.114H302.575C302.258 280.114 302 280.372 302 280.689V285.291C302 285.608 302.258 285.866 302.575 285.866H307.176C307.494 285.866 307.752 285.608 307.752 285.291V280.689C307.752 280.372 307.494 280.114 307.176 280.114Z" fill="#FDDB97"/>
<path d="M318.047 280.114H313.446C313.129 280.114 312.871 280.372 312.871 280.689V285.291C312.871 285.608 313.129 285.866 313.446 285.866H318.047C318.365 285.866 318.623 285.608 318.623 285.291V280.689C318.623 280.372 318.365 280.114 318.047 280.114Z" fill="white"/>
<path d="M329.02 280.114H324.419C324.101 280.114 323.844 280.372 323.844 280.689V285.291C323.844 285.608 324.101 285.866 324.419 285.866H329.02C329.338 285.866 329.595 285.608 329.595 285.291V280.689C329.595 280.372 329.338 280.114 329.02 280.114Z" fill="#FDDB97"/>
<path d="M307.176 293.229H302.575C302.258 293.229 302 293.486 302 293.804V298.405C302 298.723 302.258 298.98 302.575 298.98H307.176C307.494 298.98 307.752 298.723 307.752 298.405V293.804C307.752 293.486 307.494 293.229 307.176 293.229Z" fill="#FDDB97"/>
<path d="M318.047 293.229H313.446C313.129 293.229 312.871 293.486 312.871 293.804V298.405C312.871 298.723 313.129 298.98 313.446 298.98H318.047C318.365 298.98 318.623 298.723 318.623 298.405V293.804C318.623 293.486 318.365 293.229 318.047 293.229Z" fill="#FDDB97"/>
<path d="M329.02 293.229H324.419C324.101 293.229 323.844 293.486 323.844 293.804V298.405C323.844 298.723 324.101 298.98 324.419 298.98H329.02C329.338 298.98 329.595 298.723 329.595 298.405V293.804C329.595 293.486 329.338 293.229 329.02 293.229Z" fill="#FDDB97"/>
<path d="M307.176 306.331H302.575C302.258 306.331 302 306.589 302 306.906V311.507C302 311.825 302.258 312.083 302.575 312.083H307.176C307.494 312.083 307.752 311.825 307.752 311.507V306.906C307.752 306.589 307.494 306.331 307.176 306.331Z" fill="#FDDB97"/>
<path d="M318.047 306.331H313.446C313.129 306.331 312.871 306.589 312.871 306.906V311.507C312.871 311.825 313.129 312.083 313.446 312.083H318.047C318.365 312.083 318.623 311.825 318.623 311.507V306.906C318.623 306.589 318.365 306.331 318.047 306.331Z" fill="#FDDB97"/>
<path d="M329.02 306.331H324.419C324.101 306.331 323.844 306.589 323.844 306.906V311.507C323.844 311.825 324.101 312.083 324.419 312.083H329.02C329.338 312.083 329.595 311.825 329.595 311.507V306.906C329.595 306.589 329.338 306.331 329.02 306.331Z" fill="#FDDB97"/>
<path d="M307.176 319.446H302.575C302.258 319.446 302 319.704 302 320.021V324.623C302 324.94 302.258 325.198 302.575 325.198H307.176C307.494 325.198 307.752 324.94 307.752 324.623V320.021C307.752 319.704 307.494 319.446 307.176 319.446Z" fill="white"/>
<path d="M318.047 319.446H313.446C313.129 319.446 312.871 319.704 312.871 320.021V324.623C312.871 324.94 313.129 325.198 313.446 325.198H318.047C318.365 325.198 318.623 324.94 318.623 324.623V320.021C318.623 319.704 318.365 319.446 318.047 319.446Z" fill="white"/>
<path d="M329.02 319.446H324.419C324.101 319.446 323.844 319.704 323.844 320.021V324.623C323.844 324.94 324.101 325.198 324.419 325.198H329.02C329.338 325.198 329.595 324.94 329.595 324.623V320.021C329.595 319.704 329.338 319.446 329.02 319.446Z" fill="#FDDB97"/>
<path d="M307.176 332.561H302.575C302.258 332.561 302 332.818 302 333.136V337.737C302 338.055 302.258 338.312 302.575 338.312H307.176C307.494 338.312 307.752 338.055 307.752 337.737V333.136C307.752 332.818 307.494 332.561 307.176 332.561Z" fill="white"/>
<path d="M318.047 332.561H313.446C313.129 332.561 312.871 332.818 312.871 333.136V337.737C312.871 338.055 313.129 338.312 313.446 338.312H318.047C318.365 338.312 318.623 338.055 318.623 337.737V333.136C318.623 332.818 318.365 332.561 318.047 332.561Z" fill="#FDDB97"/>
<path d="M329.02 332.561H324.419C324.101 332.561 323.844 332.818 323.844 333.136V337.737C323.844 338.055 324.101 338.312 324.419 338.312H329.02C329.338 338.312 329.595 338.055 329.595 337.737V333.136C329.595 332.818 329.338 332.561 329.02 332.561Z" fill="#FDDB97"/>
<path d="M307.176 345.675H302.575C302.258 345.675 302 345.932 302 346.25V350.851C302 351.169 302.258 351.426 302.575 351.426H307.176C307.494 351.426 307.752 351.169 307.752 350.851V346.25C307.752 345.932 307.494 345.675 307.176 345.675Z" fill="white"/>
<path d="M318.047 345.675H313.446C313.129 345.675 312.871 345.932 312.871 346.25V350.851C312.871 351.169 313.129 351.426 313.446 351.426H318.047C318.365 351.426 318.623 351.169 318.623 350.851V346.25C318.623 345.932 318.365 345.675 318.047 345.675Z" fill="#FDDB97"/>
<path d="M329.02 345.675H324.419C324.101 345.675 323.844 345.932 323.844 346.25V350.851C323.844 351.169 324.101 351.426 324.419 351.426H329.02C329.338 351.426 329.595 351.169 329.595 350.851V346.25C329.595 345.932 329.338 345.675 329.02 345.675Z" fill="#FDDB97"/>
<path d="M307.176 358.789H302.575C302.258 358.789 302 359.047 302 359.364V363.965C302 364.283 302.258 364.541 302.575 364.541H307.176C307.494 364.541 307.752 364.283 307.752 363.965V359.364C307.752 359.047 307.494 358.789 307.176 358.789Z" fill="white"/>
<path d="M318.047 358.789H313.446C313.129 358.789 312.871 359.047 312.871 359.364V363.965C312.871 364.283 313.129 364.541 313.446 364.541H318.047C318.365 364.541 318.623 364.283 318.623 363.965V359.364C318.623 359.047 318.365 358.789 318.047 358.789Z" fill="#FDDB97"/>
<path d="M329.02 358.789H324.419C324.101 358.789 323.844 359.047 323.844 359.364V363.965C323.844 364.283 324.101 364.541 324.419 364.541H329.02C329.338 364.541 329.595 364.283 329.595 363.965V359.364C329.595 359.047 329.338 358.789 329.02 358.789Z" fill="#FDDB97"/>
<path d="M398.916 277H361.301C360.03 277 359 278.03 359 279.301V387.414C359 388.684 360.03 389.714 361.301 389.714H398.916C400.186 389.714 401.216 388.684 401.216 387.414V279.301C401.216 278.03 400.186 277 398.916 277Z" stroke="#FDDB97" stroke-width="3.93351" stroke-miterlimit="10"/>
<path d="M371.493 284.593H366.892C366.574 284.593 366.316 284.85 366.316 285.168V289.769C366.316 290.087 366.574 290.344 366.892 290.344H371.493C371.81 290.344 372.068 290.087 372.068 289.769V285.168C372.068 284.85 371.81 284.593 371.493 284.593Z" fill="#FDDB97"/>
<path d="M382.364 284.593H377.763C377.445 284.593 377.188 284.85 377.188 285.168V289.769C377.188 290.087 377.445 290.344 377.763 290.344H382.364C382.682 290.344 382.939 290.087 382.939 289.769V285.168C382.939 284.85 382.682 284.593 382.364 284.593Z" fill="#FDDB96"/>
<path d="M393.337 284.593H388.735C388.418 284.593 388.16 284.85 388.16 285.168V289.769C388.16 290.087 388.418 290.344 388.735 290.344H393.337C393.654 290.344 393.912 290.087 393.912 289.769V285.168C393.912 284.85 393.654 284.593 393.337 284.593Z" fill="#FDDB96"/>
<path d="M371.493 297.707H366.892C366.574 297.707 366.316 297.965 366.316 298.282V302.883C366.316 303.201 366.574 303.459 366.892 303.459H371.493C371.81 303.459 372.068 303.201 372.068 302.883V298.282C372.068 297.965 371.81 297.707 371.493 297.707Z" fill="#FDDB97"/>
<path d="M382.364 297.707H377.763C377.445 297.707 377.188 297.965 377.188 298.282V302.883C377.188 303.201 377.445 303.459 377.763 303.459H382.364C382.682 303.459 382.939 303.201 382.939 302.883V298.282C382.939 297.965 382.682 297.707 382.364 297.707Z" fill="#FDDB97"/>
<path d="M393.337 297.707H388.735C388.418 297.707 388.16 297.965 388.16 298.282V302.883C388.16 303.201 388.418 303.459 388.735 303.459H393.337C393.654 303.459 393.912 303.201 393.912 302.883V298.282C393.912 297.965 393.654 297.707 393.337 297.707Z" fill="#FDDB97"/>
<path d="M371.493 310.821H366.892C366.574 310.821 366.316 311.079 366.316 311.396V315.998C366.316 316.315 366.574 316.573 366.892 316.573H371.493C371.81 316.573 372.068 316.315 372.068 315.998V311.396C372.068 311.079 371.81 310.821 371.493 310.821Z" fill="#FDDB97"/>
<path d="M382.364 310.821H377.763C377.445 310.821 377.188 311.079 377.188 311.396V315.998C377.188 316.315 377.445 316.573 377.763 316.573H382.364C382.682 316.573 382.939 316.315 382.939 315.998V311.396C382.939 311.079 382.682 310.821 382.364 310.821Z" fill="white"/>
<path d="M393.337 310.821H388.735C388.418 310.821 388.16 311.079 388.16 311.396V315.998C388.16 316.315 388.418 316.573 388.735 316.573H393.337C393.654 316.573 393.912 316.315 393.912 315.998V311.396C393.912 311.079 393.654 310.821 393.337 310.821Z" fill="#FDDB97"/>
<path d="M371.493 323.924H366.892C366.574 323.924 366.316 324.181 366.316 324.499V329.1C366.316 329.418 366.574 329.675 366.892 329.675H371.493C371.81 329.675 372.068 329.418 372.068 329.1V324.499C372.068 324.181 371.81 323.924 371.493 323.924Z" fill="#FDDB97"/>
<path d="M382.364 323.924H377.763C377.445 323.924 377.188 324.181 377.188 324.499V329.1C377.188 329.418 377.445 329.675 377.763 329.675H382.364C382.682 329.675 382.939 329.418 382.939 329.1V324.499C382.939 324.181 382.682 323.924 382.364 323.924Z" fill="white"/>
<path d="M393.337 323.924H388.735C388.418 323.924 388.16 324.181 388.16 324.499V329.1C388.16 329.418 388.418 329.675 388.735 329.675H393.337C393.654 329.675 393.912 329.418 393.912 329.1V324.499C393.912 324.181 393.654 323.924 393.337 323.924Z" fill="#FDDB97"/>
<path d="M371.493 337.039H366.892C366.574 337.039 366.316 337.297 366.316 337.614V342.215C366.316 342.533 366.574 342.791 366.892 342.791H371.493C371.81 342.791 372.068 342.533 372.068 342.215V337.614C372.068 337.297 371.81 337.039 371.493 337.039Z" fill="#FDDB97"/>
<path d="M382.364 337.039H377.763C377.445 337.039 377.188 337.297 377.188 337.614V342.215C377.188 342.533 377.445 342.791 377.763 342.791H382.364C382.682 342.791 382.939 342.533 382.939 342.215V337.614C382.939 337.297 382.682 337.039 382.364 337.039Z" fill="#FDDB97"/>
<path d="M393.337 337.039H388.735C388.418 337.039 388.16 337.297 388.16 337.614V342.215C388.16 342.533 388.418 342.791 388.735 342.791H393.337C393.654 342.791 393.912 342.533 393.912 342.215V337.614C393.912 337.297 393.654 337.039 393.337 337.039Z" fill="#FDDB97"/>
<path d="M371.493 350.153H366.892C366.574 350.153 366.316 350.411 366.316 350.728V355.33C366.316 355.647 366.574 355.905 366.892 355.905H371.493C371.81 355.905 372.068 355.647 372.068 355.33V350.728C372.068 350.411 371.81 350.153 371.493 350.153Z" fill="white"/>
<path d="M382.364 350.153H377.763C377.445 350.153 377.188 350.411 377.188 350.728V355.33C377.188 355.647 377.445 355.905 377.763 355.905H382.364C382.682 355.905 382.939 355.647 382.939 355.33V350.728C382.939 350.411 382.682 350.153 382.364 350.153Z" fill="#FDDB97"/>
<path d="M393.337 350.153H388.735C388.418 350.153 388.16 350.411 388.16 350.728V355.33C388.16 355.647 388.418 355.905 388.735 355.905H393.337C393.654 355.905 393.912 355.647 393.912 355.33V350.728C393.912 350.411 393.654 350.153 393.337 350.153Z" fill="white"/>
<path d="M371.493 363.268H366.892C366.574 363.268 366.316 363.525 366.316 363.843V368.444C366.316 368.762 366.574 369.019 366.892 369.019H371.493C371.81 369.019 372.068 368.762 372.068 368.444V363.843C372.068 363.525 371.81 363.268 371.493 363.268Z" fill="#FDDB97"/>
<path d="M382.364 363.268H377.763C377.445 363.268 377.188 363.525 377.188 363.843V368.444C377.188 368.762 377.445 369.019 377.763 369.019H382.364C382.682 369.019 382.939 368.762 382.939 368.444V363.843C382.939 363.525 382.682 363.268 382.364 363.268Z" fill="white"/>
<path d="M393.337 363.268H388.735C388.418 363.268 388.16 363.525 388.16 363.843V368.444C388.16 368.762 388.418 369.019 388.735 369.019H393.337C393.654 369.019 393.912 368.762 393.912 368.444V363.843C393.912 363.525 393.654 363.268 393.337 363.268Z" fill="#FDDB97"/>
<path d="M1693.54 299.512H1712.69V363.258H1689.6V303.445C1689.6 301.282 1691.37 299.512 1693.54 299.512Z" stroke="#FDDB97" stroke-width="3.96953" stroke-miterlimit="10"/>
<path d="M1758.79 299.512H1777.95C1780.11 299.512 1781.88 301.282 1781.88 303.445V363.258H1758.79V299.512Z" stroke="#FDDB97" stroke-width="3.96953" stroke-miterlimit="10"/>
<path d="M1747.29 274.061H1724.2V363.258H1747.29V274.061Z" stroke="#FDDB97" stroke-width="3.96953" stroke-miterlimit="10"/>
<path d="M1797.44 384.815V367.192C1797.44 365.019 1795.68 363.258 1793.5 363.258H1675.93C1673.76 363.258 1672 365.019 1672 367.192V384.815C1672 386.987 1673.76 388.748 1675.93 388.748H1793.5C1795.68 388.748 1797.44 386.987 1797.44 384.815Z" stroke="#FDDB97" stroke-width="3.96953" stroke-miterlimit="10"/>
<path d="M1701.15 306.907V355.863" stroke="#FDDB97" stroke-width="3.96953" stroke-miterlimit="10"/>
<path d="M1712.83 182.409L1712.83 291.855" stroke="#FDDB97" stroke-width="3.96953" stroke-miterlimit="10"/>
<path d="M1758.76 182.409L1758.76 291.855" stroke="#FDDB97" stroke-width="3.96953" stroke-miterlimit="10"/>
<path d="M1736.08 183.544L1736.08 265.77" stroke="#FDDB97" stroke-width="3.96953" stroke-miterlimit="10"/>
<path d="M1736.08 65.0254L1736.08 110.391" stroke="#FDDB97" stroke-width="3.96953" stroke-miterlimit="10"/>
<path d="M1735.74 281.455V355.862" stroke="#FDDB97" stroke-width="3.96953" stroke-miterlimit="10"/>
<path d="M1770.34 306.828V355.941" stroke="#FDDB97" stroke-width="3.96953" stroke-miterlimit="10"/>
<path d="M1765.11 110.495H1747.29V75.1307H1761.18C1763.34 75.1307 1765.11 76.9009 1765.11 79.0645V110.495Z" stroke="#FDDB97" stroke-width="3.96953" stroke-miterlimit="10"/>
<path d="M1724.21 110.495H1706.4V79.0645C1706.4 76.9009 1708.17 75.1307 1710.33 75.1307H1724.21V110.495Z" stroke="#FDDB97" stroke-width="3.96953" stroke-miterlimit="10"/>
<path d="M1724.02 28.6139V14.3934C1724.02 10.4006 1727.26 7.15527 1731.26 7.15527H1739.24C1743.23 7.15527 1746.48 10.4006 1746.48 14.3934V28.6139" stroke="#FDDB97" stroke-width="3.96953" stroke-miterlimit="10"/>
<path d="M1740.6 7.15527L1729.86 7.15527V-19.4172C1729.86 -22.3872 1732.26 -24.7868 1735.23 -24.7868C1738.2 -24.7868 1740.6 -22.3872 1740.6 -19.4172V7.15527V7.15527Z" stroke="#FDDB97" stroke-width="3.96953" stroke-miterlimit="10"/>
<path d="M1700.92 299.794V173.336M1724.17 181.559V299.794" stroke="#FDDB97" stroke-width="3.96953" stroke-miterlimit="10"/>
<path d="M1747.42 299.794V182.126M1770.1 174.471V299.794" stroke="#FDDB97" stroke-width="3.96953" stroke-miterlimit="10"/>
<path d="M1756.51 75.1304V61.2443C1756.51 59.0807 1754.74 57.3105 1752.58 57.3105H1719.22C1717.06 57.3105 1715.29 59.0807 1715.29 61.2443V75.1304" stroke="#FDDB97" stroke-width="3.96953" stroke-miterlimit="10"/>
<path d="M1751.95 57.2909L1748.01 41.2412H1722.43L1718.49 57.2909" stroke="#FDDB97" stroke-width="3.96953" stroke-miterlimit="10"/>
<path d="M1723.98 28.6143L1722.43 41.2416" stroke="#FDDB97" stroke-width="3.96953" stroke-miterlimit="10" stroke-linecap="round"/>
<path d="M1748.01 41.2416L1746.46 28.6143" stroke="#FDDB97" stroke-width="3.96953" stroke-miterlimit="10" stroke-linecap="round"/>
<circle cx="1717.37" cy="150.653" r="5.67075" stroke="#FDDB97" stroke-width="3.96953"/>
<circle cx="1736.08" cy="131.373" r="5.67075" stroke="#FDDB97" stroke-width="3.96953"/>
<circle cx="1753.66" cy="161.995" r="5.67075" stroke="#FDDB97" stroke-width="3.96953"/>
<rect x="1700.92" y="110.391" width="69.1832" height="72.0185" rx="4.5366" stroke="#FDDB97" stroke-width="3.96953"/>
<path d="M1716.8 110.958L1716.8 144.983" stroke="#FDDB97" stroke-width="3.96953"/>
<path d="M1717.36 156.324L1717.36 182.41" stroke="#FDDB97" stroke-width="3.96953"/>
<path d="M1753.66 167.665L1753.66 182.409" stroke="#FDDB97" stroke-width="3.96953"/>
<path d="M1736.08 138.178L1736.08 182.41" stroke="#FDDB97" stroke-width="3.96953"/>
<path d="M1736.08 110.958V125.702" stroke="#FDDB97" stroke-width="3.96953"/>
<path d="M1753.66 110.958V156.324" stroke="#FDDB97" stroke-width="3.96953"/>
<line x1="1525" y1="331" x2="1548" y2="331" stroke="#FDDB97" stroke-width="4"/>
<line x1="1633" y1="245" x2="1700" y2="245" stroke="#FDDB97" stroke-width="4"/>
<line x1="1633" y1="281" x2="1700" y2="281" stroke="#FDDB97" stroke-width="4"/>
<line x1="1667" y1="245" x2="1667" y2="392" stroke="#FDDB97" stroke-width="4"/>
<line x1="1792" y1="290" x2="1792" y2="364" stroke="#FDDB97" stroke-width="4"/>
<line x1="1770" y1="290" x2="1811" y2="290" stroke="#FDDB97" stroke-width="4"/>
<line x1="1870" y1="341" x2="1893" y2="341" stroke="#FDDB97" stroke-width="4"/>
<line x1="1870" y1="355" x2="1893" y2="355" stroke="#FDDB97" stroke-width="4"/>
<line x1="1870" y1="369" x2="1893" y2="369" stroke="#FDDB97" stroke-width="4"/>
<line x1="1633" y1="317" x2="1690" y2="317" stroke="#FDDB97" stroke-width="4"/>
<line x1="1633" y1="299" x2="1700" y2="299" stroke="#FDDB97" stroke-width="4"/>
<line x1="1633" y1="263" x2="1701" y2="263" stroke="#FDDB97" stroke-width="4"/>
<line x1="1633" y1="335" x2="1690" y2="335" stroke="#FDDB97" stroke-width="4"/>
<line x1="1784" y1="311" x2="1811" y2="311" stroke="#FDDB97" stroke-width="4"/>
<line x1="1633" y1="353" x2="1690" y2="353" stroke="#FDDB97" stroke-width="4"/>
<line x1="1782" y1="332" x2="1811" y2="332" stroke="#FDDB97" stroke-width="4"/>
<line x1="1782" y1="353" x2="1811" y2="353" stroke="#FDDB97" stroke-width="4"/>
<line x1="1633" y1="371" x2="1672" y2="371" stroke="#FDDB97" stroke-width="4"/>
<line x1="1525" y1="351" x2="1548" y2="351" stroke="#FDDB97" stroke-width="4"/>
<line x1="541" y1="317.459" x2="703" y2="317.459" stroke="#FDDB97" stroke-width="4"/>
<line x1="541" y1="345.676" x2="703" y2="345.676" stroke="#FDDB97" stroke-width="4"/>
<line x1="577" y1="303.784" x2="577" y2="388.433" stroke="#FDDB97" stroke-width="4"/>
<line x1="619" y1="303.784" x2="619" y2="388.433" stroke="#FDDB97" stroke-width="4"/>
<line x1="661" y1="303.784" x2="661" y2="388.433" stroke="#FDDB97" stroke-width="4"/>
<line x1="541" y1="359.784" x2="703" y2="359.784" stroke="#FDDB97" stroke-width="4"/>
<line x1="541" y1="331.567" x2="703" y2="331.567" stroke="#FDDB97" stroke-width="4"/>
<mask id="path-377-inside-1_27279_10615" fill="white">
<rect x="538" y="303" width="168" height="87" rx="3"/>
</mask>
<rect x="538" y="303" width="168" height="87" rx="3" stroke="#FDDB97" stroke-width="8" mask="url(#path-377-inside-1_27279_10615)"/>
<path d="M557 304V293H683V304" stroke="#FDDB97" stroke-width="5" stroke-linecap="round" stroke-linejoin="round"/>
<path d="M649 292.5V281" stroke="#FDDB97" stroke-width="5" stroke-linecap="round" stroke-linejoin="round"/>
<path d="M1772 33H1764C1762.9 33 1762 33.8954 1762 35V43C1762 44.1046 1762.9 45 1764 45H1772C1773.1 45 1774 44.1046 1774 43V35C1774 33.8954 1773.1 33 1772 33Z" stroke="#FDDB97" stroke-width="3"/>
<path d="M422 349H421C419.895 349 419 349.895 419 351V352C419 353.105 419.895 354 421 354H422C423.105 354 424 353.105 424 352V351C424 349.895 423.105 349 422 349Z" fill="#FDDB97"/>
<path d="M422 339H421C419.895 339 419 339.895 419 341V342C419 343.105 419.895 344 421 344H422C423.105 344 424 343.105 424 342V341C424 339.895 423.105 339 422 339Z" fill="#FDDB97"/>
<path d="M452.82 367.49H451.82C450.716 367.49 449.82 368.386 449.82 369.49V370.49C449.82 371.595 450.716 372.49 451.82 372.49H452.82C453.925 372.49 454.82 371.595 454.82 370.49V369.49C454.82 368.386 453.925 367.49 452.82 367.49Z" fill="#FDDB97"/>
<path d="M452.82 357.49H451.82C450.716 357.49 449.82 358.386 449.82 359.49V360.49C449.82 361.595 450.716 362.49 451.82 362.49H452.82C453.925 362.49 454.82 361.595 454.82 360.49V359.49C454.82 358.386 453.925 357.49 452.82 357.49Z" fill="#FDDB97"/>
<path d="M440.758 349.85H432.758C431.653 349.85 430.758 350.745 430.758 351.85V359.85C430.758 360.954 431.653 361.85 432.758 361.85H440.758C441.862 361.85 442.758 360.954 442.758 359.85V351.85C442.758 350.745 441.862 349.85 440.758 349.85Z" stroke="#FDDB97" stroke-width="3"/>
<path d="M680.82 285.489H679.82C678.716 285.489 677.82 286.385 677.82 287.489V288.489C677.82 289.594 678.716 290.489 679.82 290.489H680.82C681.925 290.489 682.82 289.594 682.82 288.489V287.489C682.82 286.385 681.925 285.489 680.82 285.489Z" fill="#FDDB97"/>
<path d="M680.82 275.489H679.82C678.716 275.489 677.82 276.385 677.82 277.489V278.489C677.82 279.594 678.716 280.489 679.82 280.489H680.82C681.925 280.489 682.82 279.594 682.82 278.489V277.489C682.82 276.385 681.925 275.489 680.82 275.489Z" fill="#FDDB97"/>
<path d="M668.758 267.85H660.758C659.653 267.85 658.758 268.745 658.758 269.85V277.85C658.758 278.954 659.653 279.85 660.758 279.85H668.758C669.862 279.85 670.758 278.954 670.758 277.85V269.85C670.758 268.745 669.862 267.85 668.758 267.85Z" stroke="#FDDB97" stroke-width="3"/>
<path d="M252 127H251C249.895 127 249 127.895 249 129V130C249 131.105 249.895 132 251 132H252C253.105 132 254 131.105 254 130V129C254 127.895 253.105 127 252 127Z" fill="#FDDB97"/>
<path d="M252 117H251C249.895 117 249 117.895 249 119V120C249 121.105 249.895 122 251 122H252C253.105 122 254 121.105 254 120V119C254 117.895 253.105 117 252 117Z" fill="#FDDB97"/>
<path d="M282.82 145.49H281.82C280.716 145.49 279.82 146.386 279.82 147.49V148.49C279.82 149.595 280.716 150.49 281.82 150.49H282.82C283.925 150.49 284.82 149.595 284.82 148.49V147.49C284.82 146.386 283.925 145.49 282.82 145.49Z" fill="#FDDB97"/>
<path d="M282.82 135.49H281.82C280.716 135.49 279.82 136.386 279.82 137.49V138.49C279.82 139.595 280.716 140.49 281.82 140.49H282.82C283.925 140.49 284.82 139.595 284.82 138.49V137.49C284.82 136.386 283.925 135.49 282.82 135.49Z" fill="#FDDB97"/>
<path d="M270.758 127.85H262.758C261.653 127.85 260.758 128.745 260.758 129.85V137.85C260.758 138.954 261.653 139.85 262.758 139.85H270.758C271.862 139.85 272.758 138.954 272.758 137.85V129.85C272.758 128.745 271.862 127.85 270.758 127.85Z" stroke="#FDDB97" stroke-width="3"/>
<path d="M209 218H201C199.895 218 199 218.895 199 220V228C199 229.105 199.895 230 201 230H209C210.105 230 211 229.105 211 228V220C211 218.895 210.105 218 209 218Z" stroke="#FDDB97" stroke-width="3"/>
<path d="M209 242H201C199.895 242 199 242.895 199 244V252C199 253.105 199.895 254 201 254H209C210.105 254 211 253.105 211 252V244C211 242.895 210.105 242 209 242Z" stroke="#FDDB97" stroke-width="3"/>
<path d="M228 230H220C218.895 230 218 230.895 218 232V240C218 241.105 218.895 242 220 242H228C229.105 242 230 241.105 230 240V232C230 230.895 229.105 230 228 230Z" stroke="#FDDB97" stroke-width="3"/>
<path d="M8 220H7C5.89543 220 5 220.895 5 222V223C5 224.105 5.89543 225 7 225H8C9.10457 225 10 224.105 10 223V222C10 220.895 9.10457 220 8 220Z" fill="#FDDB97"/>
<path d="M8 210H7C5.89543 210 5 210.895 5 212V213C5 214.105 5.89543 215 7 215H8C9.10457 215 10 214.105 10 213V212C10 210.895 9.10457 210 8 210Z" fill="#FDDB97"/>
<path d="M38.8203 238.49H37.8203C36.7157 238.49 35.8203 239.386 35.8203 240.49V241.49C35.8203 242.595 36.7157 243.49 37.8203 243.49H38.8203C39.9249 243.49 40.8203 242.595 40.8203 241.49V240.49C40.8203 239.386 39.9249 238.49 38.8203 238.49Z" fill="#FDDB97"/>
<path d="M38.8203 228.49H37.8203C36.7157 228.49 35.8203 229.386 35.8203 230.49V231.49C35.8203 232.595 36.7157 233.49 37.8203 233.49H38.8203C39.9249 233.49 40.8203 232.595 40.8203 231.49V230.49C40.8203 229.386 39.9249 228.49 38.8203 228.49Z" fill="#FDDB97"/>
<path d="M26.7578 220.85H18.7578C17.6532 220.85 16.7578 221.745 16.7578 222.85V230.85C16.7578 231.954 17.6532 232.85 18.7578 232.85H26.7578C27.8624 232.85 28.7578 231.954 28.7578 230.85V222.85C28.7578 221.745 27.8624 220.85 26.7578 220.85Z" stroke="#FDDB97" stroke-width="3"/>
<path d="M161.302 -41.5599C80 -14.9998 -52 87.0002 -101.999 194" stroke="#FDDB96" stroke-width="4" stroke-linecap="round" stroke-dasharray="7.32 18.29"/>
</g>
</g>
<defs>
<clipPath id="clip0_27279_10615">
<rect width="1920" height="370" fill="white"/>
</clipPath>
</defs>
</svg>
