<svg width="676" height="777" viewBox="0 0 676 777" fill="none" xmlns="http://www.w3.org/2000/svg">
<path opacity="0.1" d="M804.912 286.634C803.969 271.546 801.142 254.572 796.429 236.655C791.716 217.795 784.176 197.991 773.808 176.302C763.441 155.556 749.303 132.924 731.395 111.234C724.797 102.747 716.315 94.2602 708.775 86.7161C721.027 37.6796 693.694 -4.75591 693.694 -4.75591C646.568 -7.58495 616.408 10.3323 605.097 17.8763C603.212 16.9333 601.327 15.9903 599.442 15.9903C591.902 12.2183 583.42 9.38924 574.937 7.50322C566.454 5.6172 557.972 2.78817 548.546 -0.040863C540.064 -1.92688 530.638 -3.8129 521.213 -5.69893C519.328 -5.69893 518.386 -6.64194 516.501 -6.64194C495.765 -72.6527 436.387 -100 436.387 -100C370.41 -58.5075 358.157 -0.040863 358.157 -0.040863C358.157 -0.040863 358.157 0.902145 357.215 3.73118C353.445 4.67419 349.675 5.6172 345.905 6.56021C341.192 8.44624 335.537 10.3323 330.824 12.2183C326.112 14.1043 320.457 15.9903 315.744 17.8763C306.319 21.6484 295.951 27.3064 286.526 32.0215C277.101 37.6796 267.676 43.3376 259.193 48.9957C258.25 48.0527 257.308 48.0527 257.308 48.0527C165.883 13.1613 84.8268 55.5968 84.8268 55.5968C79.1716 152.727 122.528 214.023 131.01 225.339C129.125 230.997 127.24 237.598 125.355 243.256C118.757 264.945 114.045 287.577 110.275 311.153C109.332 313.982 109.332 317.754 109.332 321.526C25.448 363.018 0 447.889 0 447.889C70.689 528.988 151.746 533.703 151.746 533.703C162.113 552.563 174.366 569.538 187.561 586.512C193.216 593.113 198.872 599.714 205.469 606.315C180.021 679.87 209.239 740.223 209.239 740.223C287.468 743.052 339.307 706.274 349.675 697.787C357.215 700.616 365.698 702.502 373.238 705.331C396.801 711.932 422.249 714.761 446.754 716.647C453.352 716.647 459.007 716.647 465.605 716.647H468.432H470.317H474.087H477.857C514.616 769.456 579.649 777 579.649 777C625.833 727.963 628.66 679.87 628.66 669.497C628.66 669.497 628.66 669.497 628.66 668.554C628.66 667.611 628.66 666.668 628.66 666.668C628.66 665.725 628.66 664.782 628.66 664.782C638.086 658.181 647.511 650.637 655.994 643.092C674.844 626.118 690.867 607.258 704.062 586.512C705.005 584.626 706.89 582.74 707.832 580.854C759.671 583.683 796.429 548.791 796.429 548.791C787.946 494.097 756.843 467.692 750.245 462.977C750.245 462.977 750.245 462.977 749.303 462.977C748.36 462.977 748.36 462.977 748.36 462.977C748.36 462.977 747.418 462.977 747.418 462.034C747.418 459.205 748.36 455.433 748.36 452.604C748.36 446.946 749.303 441.288 749.303 434.687V429.972V428.086V427.143C749.303 425.257 749.303 426.2 749.303 425.257V421.485V416.77C749.303 414.884 749.303 413.941 749.303 412.055C749.303 410.169 749.303 409.226 748.36 407.34L747.418 402.625L746.475 397.91C745.533 392.252 744.59 385.651 742.705 379.992C737.05 356.417 727.625 334.728 716.315 313.982C704.062 294.178 688.982 276.261 672.016 261.173C655.051 246.085 636.201 233.826 616.408 225.339C596.615 216.852 575.879 210.251 555.144 208.365C544.776 207.422 534.409 206.478 524.041 206.478H520.271H519.328C519.328 206.478 517.443 206.478 518.386 206.478H516.501H512.731C510.846 206.478 509.903 206.478 508.018 206.478C502.363 206.478 497.65 207.422 491.995 208.365C471.26 212.137 451.467 219.681 434.501 230.054C417.536 240.427 402.456 253.629 390.203 267.774C377.95 281.919 368.525 298.894 361.927 314.925C355.33 330.956 351.56 348.873 350.617 365.847C350.617 369.619 350.617 374.334 350.617 378.106C350.617 379.049 350.617 379.992 350.617 380.935V384.708C350.617 386.594 350.617 388.48 350.617 390.366C351.56 398.853 352.502 407.34 355.33 414.884C360.042 430.915 366.64 445.06 376.065 457.319C385.49 469.578 395.858 479.009 407.168 487.496C418.479 495.04 430.731 500.698 442.984 504.47C455.237 508.242 466.547 509.185 478.8 509.185C480.685 509.185 481.627 509.185 483.512 509.185C484.455 509.185 485.398 509.185 485.398 509.185H487.283C488.225 509.185 489.168 509.185 491.053 509.185H491.995H492.938C493.88 509.185 494.823 509.185 494.823 509.185C496.708 509.185 497.65 508.242 498.593 508.242C499.535 508.242 501.42 507.299 502.363 507.299C505.19 506.356 507.075 506.356 509.903 505.413C514.616 503.527 519.328 501.641 524.041 499.755C528.753 497.869 532.523 495.04 536.294 492.211C537.236 491.268 538.179 490.325 539.121 490.325C542.891 487.496 543.834 481.838 541.006 478.066C538.179 474.294 533.466 473.351 529.696 476.18C528.753 476.18 527.811 477.123 526.868 478.066C524.041 479.952 520.271 480.895 516.501 482.781C512.731 483.724 508.961 484.667 505.19 485.61C503.305 485.61 501.42 486.553 499.535 486.553C498.593 486.553 497.65 486.553 496.708 486.553C495.765 486.553 494.823 486.553 493.88 486.553C492.938 486.553 491.995 486.553 491.053 486.553C490.11 486.553 488.225 486.553 487.283 486.553C487.283 486.553 486.34 486.553 487.283 486.553H486.34C485.398 486.553 485.398 486.553 484.455 486.553C483.513 486.553 482.57 486.553 481.627 486.553C473.145 485.61 463.72 482.781 455.237 479.009C446.754 475.237 438.272 469.578 430.731 462.977C423.191 456.376 416.594 447.889 411.881 439.402C407.168 430.915 403.398 420.542 401.513 409.226C400.571 403.568 400.571 397.91 400.571 393.195C400.571 391.309 400.571 390.366 400.571 388.48V387.537V386.594C400.571 385.651 400.571 384.708 400.571 384.708C400.571 381.878 401.513 379.049 401.513 376.22C405.283 352.645 417.536 330.013 435.444 313.039C440.157 308.324 444.869 304.552 449.582 301.723C454.294 297.951 459.95 295.121 465.605 292.292C471.26 289.463 476.915 287.577 483.512 285.691C490.11 283.805 495.765 282.862 502.363 282.862C505.19 282.862 508.961 282.862 511.788 282.862C512.731 282.862 513.673 282.862 513.673 282.862H516.501H518.386C519.328 282.862 518.386 282.862 518.386 282.862H519.328H522.156C528.753 283.805 536.294 284.748 542.891 285.691C556.086 288.52 569.282 293.235 582.477 300.78C606.983 314.925 627.718 335.671 640.913 361.132C647.511 374.334 652.224 387.537 654.109 401.682C655.051 405.454 655.051 409.226 655.051 412.055V414.884V417.713C655.051 418.656 655.051 419.599 655.051 420.542C655.051 421.485 655.051 422.428 655.051 423.371V425.257V428.086C655.051 429.972 655.051 432.801 655.051 434.687C655.051 438.459 654.109 442.231 654.109 446.003C653.166 449.775 653.166 453.547 652.223 457.319C651.281 461.091 650.338 464.863 649.396 468.635C647.511 476.18 644.683 483.724 641.856 491.268C636.201 505.413 628.66 519.558 619.235 532.76C600.385 558.221 574.937 578.968 546.661 592.17C532.523 598.771 516.501 603.486 501.42 606.315C493.88 607.258 485.398 608.201 477.857 608.201H475.972H475.03H472.202H468.432H466.547C467.49 608.201 466.547 608.201 466.547 608.201H465.605C460.892 608.201 457.122 608.201 453.352 607.258C436.387 606.315 419.421 603.486 403.398 598.771C387.375 594.056 371.353 587.455 356.272 579.911C326.112 563.88 299.721 542.19 278.986 515.786C268.618 502.584 259.193 488.439 251.653 473.351C244.113 458.262 238.457 443.174 233.745 427.143C229.032 411.112 226.205 395.081 225.262 378.106V375.277V374.334V371.505V370.562V367.733V366.79V365.847V363.961V360.189V359.246V357.36C225.262 355.474 225.262 353.588 225.262 351.702C225.262 343.215 226.205 335.671 227.147 327.184C228.09 318.697 229.975 310.21 230.917 301.723C231.86 293.235 234.687 284.748 236.572 277.204C241.285 261.173 246.94 245.142 253.538 230.997C267.676 201.763 285.583 175.359 306.319 154.613C311.974 148.955 317.629 144.24 323.284 139.525C328.939 134.81 334.594 130.095 341.192 126.323C347.79 122.551 353.445 118.778 360.042 115.006C362.87 113.12 366.64 111.234 369.468 110.291C371.353 109.348 373.238 108.405 374.18 108.405C375.123 108.405 377.95 106.519 378.893 106.519C385.49 103.69 393.031 100.861 399.628 98.9753C401.513 98.0323 403.398 98.0322 405.283 97.0892C407.168 96.1462 409.053 96.1462 410.938 95.2032C414.709 94.2602 418.479 93.3172 422.249 92.3742C424.134 92.3742 426.019 91.4312 427.904 91.4312C429.789 91.4312 431.674 90.4882 433.559 90.4882C435.444 90.4882 437.329 89.5452 439.214 89.5452H442.042H444.869C446.754 89.5452 448.639 88.6021 450.524 88.6021C452.409 88.6021 454.294 88.6021 457.122 87.6591C459.007 87.6591 461.835 86.7161 463.72 86.7161C464.662 86.7161 466.547 86.7161 467.49 86.7161H470.317H471.26H473.145C475.03 86.7161 476.915 86.7161 479.742 86.7161H482.57C482.57 86.7161 483.513 86.7161 482.57 86.7161H483.512H484.455C486.34 86.7161 488.225 86.7161 490.11 86.7161C497.65 86.7161 504.248 86.7161 510.846 86.7161C524.983 87.6591 539.121 88.6021 552.316 91.4312C578.707 96.1462 604.155 104.633 626.775 115.949C649.396 127.266 670.131 140.468 688.039 155.556C688.982 156.499 689.924 157.442 690.867 158.385C691.809 159.328 692.752 160.271 693.694 161.214C695.579 163.1 697.464 164.986 700.292 166.872C703.12 168.758 704.062 170.644 705.947 172.53C707.832 174.416 709.717 176.302 711.602 178.188C719.142 186.675 725.74 194.219 732.338 202.706C744.59 218.738 754.958 235.712 763.441 250.8C764.383 251.743 764.383 252.686 765.326 253.629C766.268 254.572 766.268 255.515 767.211 256.458C768.153 258.344 769.096 260.23 770.038 262.116C770.981 264.002 771.923 265.888 772.866 267.774C773.808 269.66 774.751 271.546 774.751 273.432C777.579 280.976 780.406 287.577 782.291 294.178C786.061 304.552 788.889 313.982 790.774 322.469C791.716 325.298 794.544 328.127 798.314 327.184C802.084 327.184 804.912 324.355 804.912 320.583C806.797 309.267 805.854 298.894 804.912 286.634Z" fill="#9292A5"/>
</svg>
