<svg width="825" height="307" viewBox="0 0 825 307" fill="none" xmlns="http://www.w3.org/2000/svg">
<path opacity="0.15" d="M0.680876 252.085H143.591V298H219.925V252.085H253.787V190.1H219.925V4.14443H118.912L0.680876 190.1V252.085ZM145.313 190.1H79.3102V187.804L143.017 86.7913H145.313V190.1ZM411.202 306.035C491.123 306.179 540.768 248.928 540.912 151.646C541.055 54.9378 491.123 0.126875 411.202 0.126875C331.138 0.126875 281.779 54.6509 281.492 151.646C281.205 248.498 331.138 305.892 411.202 306.035ZM411.202 241.18C383.653 241.18 363.852 213.488 364.139 151.646C364.426 91.2393 383.653 64.4078 411.202 64.4078C438.751 64.4078 458.121 91.2393 458.265 151.646C458.408 213.488 438.751 241.18 411.202 241.18ZM571.451 252.085H714.361V298H790.695V252.085H824.557V190.1H790.695V4.14443H689.682L571.451 190.1V252.085ZM716.083 190.1H650.08V187.804L713.787 86.7913H716.083V190.1Z" fill="white"/>
</svg>
