<svg width="32" height="32" viewBox="0 0 32 32" fill="none" xmlns="http://www.w3.org/2000/svg">
<path fill-rule="evenodd" clip-rule="evenodd" d="M1.625 2.625C1.625 2.07271 2.07272 1.625 2.625 1.625H29.375C29.9273 1.625 30.375 2.07272 30.375 2.625V29.375C30.375 29.9273 29.9273 30.375 29.375 30.375H2.625C2.07271 30.375 1.625 29.9273 1.625 29.375V2.625Z" stroke="#EF5B3E" stroke-width="1.5" stroke-linecap="round" stroke-linejoin="round"/>
<path fill-rule="evenodd" clip-rule="evenodd" d="M11 20.375C14.1066 20.375 16.625 17.8566 16.625 14.75C16.625 11.6434 14.1066 9.125 11 9.125C7.8934 9.125 5.375 11.6434 5.375 14.75C5.375 17.8566 7.8934 20.375 11 20.375Z" stroke="#EF5B3E" stroke-width="1.5" stroke-linecap="round" stroke-linejoin="round"/>
<path fill-rule="evenodd" clip-rule="evenodd" d="M19.125 5.375H12.875C12.1846 5.375 11.625 5.93464 11.625 6.625V9.16C14.2366 9.45206 16.2979 11.5134 16.59 14.125H19.125C19.8154 14.125 20.375 13.5654 20.375 12.875V6.625C20.375 5.93464 19.8154 5.375 19.125 5.375Z" stroke="#EF5B3E" stroke-width="1.5" stroke-linecap="round" stroke-linejoin="round"/>
<path d="M24.125 9.125H27.875" stroke="#EF5B3E" stroke-width="1.5" stroke-linecap="round" stroke-linejoin="round"/>
<path d="M24.125 11.625H26.625" stroke="#EF5B3E" stroke-width="1.5" stroke-linecap="round" stroke-linejoin="round"/>
<path d="M5.375 24.125H16.625" stroke="#EF5B3E" stroke-width="1.5" stroke-linecap="round" stroke-linejoin="round"/>
<path d="M5.375 26.625H9.125" stroke="#EF5B3E" stroke-width="1.5" stroke-linecap="round" stroke-linejoin="round"/>
<path d="M19.125 17.25L23.275 20.7087" stroke="#EF5B3E" stroke-width="1.5" stroke-linecap="round" stroke-linejoin="round"/>
<path fill-rule="evenodd" clip-rule="evenodd" d="M22.875 21.375C22.875 20.8227 23.3227 20.375 23.875 20.375H26.875C27.4273 20.375 27.875 20.8227 27.875 21.375V26.875C27.875 27.4273 27.4273 27.875 26.875 27.875H23.875C23.3227 27.875 22.875 27.4273 22.875 26.875V21.375Z" stroke="#EF5B3E" stroke-width="1.5" stroke-linecap="round" stroke-linejoin="round"/>
<path d="M11.625 26.625H12.875" stroke="#EF5B3E" stroke-width="1.5" stroke-linecap="round" stroke-linejoin="round"/>
<path d="M24.125 6.625H27.875" stroke="#EF5B3E" stroke-width="1.5" stroke-linecap="round" stroke-linejoin="round"/>
</svg>
