<svg width="36" height="36" viewBox="0 0 36 36" fill="none" xmlns="http://www.w3.org/2000/svg">
<path d="M7.58966 22.7404C7.58966 24.8311 5.89992 26.5208 3.80923 26.5208C1.71854 26.5208 0.0288086 24.8311 0.0288086 22.7404C0.0288086 20.6497 1.71854 18.96 3.80923 18.96H7.58966V22.7404ZM9.47987 22.7404C9.47987 20.6497 11.1696 18.96 13.2603 18.96C15.351 18.96 17.0407 20.6497 17.0407 22.7404V32.1914C17.0407 34.2821 15.351 35.9719 13.2603 35.9719C11.1696 35.9719 9.47987 34.2821 9.47987 32.1914V22.7404Z" fill="#E01E5A"/>
<path d="M13.2601 7.56085C11.1694 7.56085 9.4797 5.87111 9.4797 3.78042C9.4797 1.68973 11.1694 0 13.2601 0C15.3508 0 17.0405 1.68973 17.0405 3.78042V7.56085H13.2601ZM13.2601 9.4797C15.3508 9.4797 17.0405 11.1694 17.0405 13.2601C17.0405 15.3508 15.3508 17.0405 13.2601 17.0405H3.78042C1.68973 17.0405 0 15.3508 0 13.2601C0 11.1694 1.68973 9.4797 3.78042 9.4797H13.2601Z" fill="#36C5F0"/>
<path d="M28.411 13.2601C28.411 11.1694 30.1008 9.4797 32.1914 9.4797C34.2821 9.4797 35.9719 11.1694 35.9719 13.2601C35.9719 15.3508 34.2821 17.0405 32.1914 17.0405H28.411V13.2601ZM26.5208 13.2601C26.5208 15.3508 24.8311 17.0405 22.7404 17.0405C20.6497 17.0405 18.96 15.3508 18.96 13.2601V3.78042C18.96 1.68973 20.6497 0 22.7404 0C24.8311 0 26.5208 1.68973 26.5208 3.78042V13.2601Z" fill="#2EB67D"/>
<path d="M22.7404 28.411C24.8311 28.411 26.5208 30.1008 26.5208 32.1914C26.5208 34.2821 24.8311 35.9719 22.7404 35.9719C20.6497 35.9719 18.96 34.2821 18.96 32.1914V28.411H22.7404ZM22.7404 26.5208C20.6497 26.5208 18.96 24.8311 18.96 22.7404C18.96 20.6497 20.6497 18.96 22.7404 18.96H32.2201C34.3108 18.96 36.0005 20.6497 36.0005 22.7404C36.0005 24.8311 34.3108 26.5208 32.2201 26.5208H22.7404Z" fill="#ECB22E"/>
</svg>
