<svg width="752" height="122" viewBox="0 0 752 122" fill="none" xmlns="http://www.w3.org/2000/svg">
<rect opacity="0.7" width="752" height="122" rx="10" fill="#B0C6F2"/>
<mask id="mask0_28328_10610" style="mask-type:alpha" maskUnits="userSpaceOnUse" x="0" y="0" width="752" height="122">
<rect width="752" height="122" rx="10" fill="#B0C6F2"/>
</mask>
<g mask="url(#mask0_28328_10610)">
<g opacity="0.3">
<path d="M672.013 5.52565C670.935 2.07666 668.348 -0.725645 665.115 -2.45014L599.369 -33.9222C597.644 -34.7844 595.704 -35 593.979 -35C592.255 -35 590.315 -35 588.59 -34.5689L522.844 -2.88127C519.611 -1.37233 517.239 1.42998 516.377 5.09453L500.21 76.0144C499.563 79.679 500.426 83.3435 502.581 86.3614L548.065 142.623C550.652 145.21 554.316 146.934 557.981 147.15H630.409C634.29 147.581 637.954 145.857 640.325 142.623L685.809 86.3614C687.965 83.3435 688.827 79.679 688.396 76.0144L672.013 5.52565Z" fill="#326DE6"/>
<path d="M661.888 73.2068C661.672 73.2068 661.457 73.2068 661.457 72.9913C661.457 72.7757 661.026 72.7757 660.595 72.7757C659.732 72.5601 658.87 72.5601 658.008 72.5601C657.577 72.5601 657.146 72.5601 656.714 72.3446H656.499C654.128 72.129 651.541 71.6979 649.17 71.0512C648.523 70.8357 647.876 70.189 647.661 69.5423C647.876 69.5423 647.661 69.5423 647.661 69.5423L645.936 69.1112C646.799 62.8599 646.368 56.393 645.074 50.1417C643.565 43.8904 640.978 37.8547 637.529 32.4656L638.823 31.1723V30.9567C638.823 30.31 639.038 29.4478 639.47 29.0166C641.41 27.2921 643.35 25.9988 645.505 24.7054C645.936 24.4898 646.367 24.2743 646.799 24.0587C647.661 23.6276 648.308 23.1965 649.17 22.7653C649.385 22.5498 649.601 22.5498 649.816 22.3342C650.032 22.1186 649.816 22.1186 649.816 21.9031C651.757 20.3942 652.188 17.8074 650.679 15.8674C650.032 15.0051 648.739 14.3584 647.661 14.3584C646.583 14.3584 645.505 14.7895 644.643 15.4362L644.427 15.6518C644.212 15.8674 643.996 16.0829 643.781 16.0829C643.134 16.7296 642.487 17.3763 642.056 18.023C641.841 18.4541 641.41 18.6697 641.194 18.8852C639.685 20.6097 637.745 22.3342 635.805 23.6276C635.374 23.8431 634.943 24.0587 634.512 24.0587C634.296 24.0587 633.865 24.0587 633.649 23.8431H633.434L631.709 24.921C629.985 23.1965 628.045 21.472 626.32 19.7475C618.344 13.4962 608.429 9.61606 598.297 8.53825L598.082 6.81375V7.02931C597.435 6.59819 597.219 5.9515 597.004 5.30482C597.004 2.93363 597.004 0.562452 597.435 -2.02429V-2.23985C597.435 -2.67098 597.65 -3.1021 597.65 -3.53323C597.866 -4.39547 597.866 -5.25772 598.082 -6.11997V-7.41334C598.297 -9.56896 596.573 -11.7246 594.417 -11.9401C593.124 -12.1557 591.83 -11.509 590.753 -10.4312C589.89 -9.56896 589.459 -8.49115 589.459 -7.41334V-6.33553C589.459 -5.47328 589.675 -4.61104 589.89 -3.74879C590.106 -3.31766 590.106 -2.88654 590.106 -2.45542V-2.23985C590.537 0.131327 590.537 2.50251 590.537 5.08925C590.321 5.73594 590.106 6.38262 589.459 6.81375V7.24487L589.244 8.96937C586.872 9.18493 584.501 9.61605 581.914 10.0472C571.783 12.2028 562.514 17.5918 555.4 25.1365L554.107 24.2743H553.891C553.676 24.2743 553.46 24.4898 553.029 24.4898C552.598 24.4898 552.167 24.2743 551.736 24.0587C549.796 22.5498 547.856 20.8253 546.347 19.1008C546.131 18.6697 545.7 18.4541 545.484 18.2385C544.838 17.5918 544.407 16.9452 543.76 16.2985C543.544 16.0829 543.329 16.0829 543.113 15.8674C542.898 15.6518 542.898 15.6518 542.898 15.6518C542.036 15.0051 540.958 14.574 539.88 14.574C538.587 14.574 537.509 15.0051 536.862 16.0829C535.569 18.023 536 20.6097 537.724 22.1186C537.94 22.1186 537.94 22.3342 537.94 22.3342C537.94 22.3342 538.371 22.7653 538.587 22.7653C539.233 23.1965 540.095 23.6276 540.958 24.0587C541.389 24.2743 541.82 24.4898 542.251 24.7054C544.407 25.9988 546.562 27.2921 548.287 29.0166C548.718 29.4478 549.149 30.31 548.933 30.9567V30.7411L550.227 32.0345C550.011 32.4656 549.796 32.6812 549.58 33.1123C542.898 43.6748 540.095 56.1774 542.036 68.4645L540.311 68.8956C540.311 69.1112 540.095 69.1112 540.095 69.1112C539.88 69.7578 539.233 70.189 538.587 70.6201C536.215 71.2668 533.844 71.6979 531.257 71.9135C530.826 71.9135 530.395 71.9135 529.964 72.129C529.102 72.129 528.24 72.3446 527.377 72.3446C527.162 72.3446 526.946 72.5601 526.515 72.5601C526.299 72.5601 526.299 72.5601 526.084 72.7757C523.713 73.2068 522.204 75.3625 522.635 77.7336C523.066 79.6737 525.006 80.9671 526.946 80.7515C527.377 80.7515 527.593 80.7515 528.024 80.5359C528.24 80.5359 528.24 80.5359 528.24 80.3204C528.24 80.1048 528.886 80.3204 529.102 80.3204C529.964 80.1048 530.826 79.6737 531.473 79.4581C531.904 79.2426 532.335 79.027 532.766 79.027H532.982C535.353 78.1648 537.509 77.5181 540.095 77.0869H540.311C540.958 77.0869 541.604 77.3025 542.036 77.7336C542.251 77.7336 542.251 77.9492 542.251 77.9492L544.191 77.7336C547.425 87.6495 553.46 96.4875 561.867 102.954C563.807 104.463 565.532 105.757 567.687 106.835L566.61 108.343C566.61 108.559 566.825 108.559 566.825 108.559C567.256 109.206 567.256 110.068 567.041 110.715C566.178 112.87 564.885 115.026 563.592 116.966V117.181C563.376 117.613 563.161 117.828 562.729 118.259C562.298 118.69 561.867 119.553 561.221 120.415C561.005 120.63 561.005 120.846 560.789 121.062C560.789 121.062 560.789 121.277 560.574 121.277C559.496 123.433 560.358 126.02 562.298 127.097C562.729 127.313 563.376 127.528 563.807 127.528C565.532 127.528 567.041 126.451 567.903 124.942C567.903 124.942 567.903 124.726 568.119 124.726C568.119 124.511 568.334 124.295 568.55 124.079C568.765 123.217 569.196 122.571 569.412 121.708L569.843 120.415C570.49 118.044 571.567 115.888 572.645 113.732C573.076 113.086 573.723 112.655 574.37 112.439C574.585 112.439 574.585 112.439 574.585 112.224L575.448 110.499C581.483 112.87 587.735 113.948 594.202 113.948C598.082 113.948 601.962 113.517 605.842 112.439C608.213 112.008 610.584 111.146 612.74 110.499L613.602 112.008C613.818 112.008 613.818 112.008 613.818 112.224C614.464 112.439 615.111 112.87 615.542 113.517C616.62 115.673 617.698 117.828 618.344 120.199V120.415L618.776 121.708C618.991 122.571 619.207 123.433 619.638 124.079C619.853 124.295 619.853 124.511 620.069 124.726C620.069 124.726 620.069 124.942 620.284 124.942C621.147 126.451 622.656 127.528 624.38 127.528C625.027 127.528 625.458 127.313 626.105 127.097C626.967 126.666 627.829 125.804 628.045 124.726C628.26 123.648 628.26 122.571 627.829 121.493C627.829 121.277 627.614 121.277 627.614 121.277C627.614 121.062 627.398 120.846 627.182 120.63C626.751 119.768 626.32 119.122 625.674 118.475C625.458 118.044 625.242 117.828 624.811 117.397V116.966C623.302 115.026 622.225 112.87 621.362 110.715C621.147 110.068 621.147 109.206 621.578 108.559C621.578 108.343 621.793 108.343 621.793 108.343L621.147 106.619C632.14 99.9365 640.547 89.5895 644.427 77.3025L646.152 77.5181C646.368 77.5181 646.368 77.3025 646.368 77.3025C646.799 76.8714 647.445 76.6558 648.092 76.6558H648.308C650.679 77.0869 653.05 77.7336 655.206 78.5959H655.421C655.852 78.8114 656.283 79.027 656.714 79.027C657.577 79.4581 658.223 79.8893 659.086 80.1048C659.301 80.1048 659.517 80.3204 659.948 80.3204C660.163 80.3204 660.163 80.3204 660.379 80.5359C660.81 80.7515 661.026 80.7515 661.457 80.7515C663.397 80.7515 665.121 79.4581 665.768 77.7336C665.553 75.3625 663.828 73.638 661.888 73.2068V73.2068ZM599.591 66.5244L593.77 69.3267L587.95 66.5244L586.441 60.2731L590.537 55.0996H597.004L601.099 60.2731L599.591 66.5244V66.5244ZM634.727 52.5129C635.805 57.0397 636.021 61.5665 635.589 66.0933L615.111 60.2731C613.171 59.842 612.093 57.9019 612.524 55.9619C612.74 55.3152 612.955 54.8841 613.387 54.4529L629.554 39.7947C631.925 43.6748 633.649 47.9861 634.727 52.5129V52.5129ZM623.087 31.8189L605.411 44.3215C603.902 45.1838 601.746 44.9682 600.668 43.4593C600.237 43.0282 600.022 42.597 600.022 41.9503L598.728 20.1786C608.213 21.2564 616.62 25.3521 623.087 31.8189V31.8189ZM584.07 20.8253L588.381 19.963L587.304 41.5192C587.304 43.4593 585.579 44.9682 583.639 44.9682C582.992 44.9682 582.561 44.7527 581.914 44.5371L564.023 31.8189C569.627 26.4299 576.525 22.5498 584.07 20.8253ZM557.772 39.7947L573.723 54.0218C575.232 55.3152 575.448 57.4708 574.154 58.9797C573.723 59.6264 573.292 59.842 572.43 60.0575L551.52 66.0933C550.874 57.0397 553.029 47.7705 557.772 39.7947V39.7947ZM554.107 76.2247L575.448 72.5601C577.172 72.5601 578.897 73.638 579.112 75.3625C579.328 76.0091 579.328 76.8714 578.897 77.5181L570.705 97.3498C563.161 92.3919 557.125 84.8472 554.107 76.2247V76.2247ZM603.04 102.954C600.022 103.601 597.004 104.032 593.77 104.032C589.244 104.032 584.501 103.17 580.19 101.877L590.753 82.6916C591.83 81.3982 593.555 80.9671 595.064 81.8293C595.71 82.2604 596.142 82.6916 596.788 83.3382L607.135 102.092C605.842 102.308 604.548 102.523 603.04 102.954V102.954ZM629.338 84.2005C626.105 89.374 621.578 93.9008 616.404 97.1342L607.997 76.8714C607.566 75.1469 608.429 73.4224 609.938 72.7757C610.584 72.5601 611.231 72.3446 611.878 72.3446L633.434 76.0091C632.356 79.027 631.063 81.8293 629.338 84.2005Z" fill="white"/>
</g>
</g>
<g opacity="0.6">
<rect opacity="0.7" x="335" y="23" width="9.00001" height="255" transform="rotate(90 335 23)" fill="url(#paint0_linear_28328_10610)"/>
<rect opacity="0.7" x="455" y="40.2764" width="8.00002" height="395" transform="rotate(90 455 40.2764)" fill="url(#paint1_linear_28328_10610)"/>
<rect opacity="0.7" x="398" y="73" width="9.00001" height="293" transform="rotate(90 398 73)" fill="url(#paint2_linear_28328_10610)"/>
<rect opacity="0.7" x="335" y="90" width="9.00001" height="320" transform="rotate(90 335 90)" fill="url(#paint3_linear_28328_10610)"/>
<rect opacity="0.7" x="221" y="56" width="9.00001" height="221" transform="rotate(90 221 56)" fill="url(#paint4_linear_28328_10610)"/>
<ellipse cx="334.405" cy="27.368" rx="4.2432" ry="4.368" fill="#5889EB"/>
<ellipse cx="454.757" cy="44.368" rx="4.2432" ry="4.368" fill="#5889EB"/>
<ellipse cx="397.96" cy="77.6621" rx="4.368" ry="4.2432" fill="#5889EB"/>
<ellipse cx="334.405" cy="94.5106" rx="4.2432" ry="4.368" fill="#5889EB"/>
<ellipse cx="220.405" cy="60.5106" rx="4.2432" ry="4.368" fill="#5889EB"/>
</g>
<defs>
<linearGradient id="paint0_linear_28328_10610" x1="339.5" y1="23" x2="339.5" y2="278" gradientUnits="userSpaceOnUse">
<stop stop-color="#8AABEE"/>
<stop offset="1" stop-color="#8AABEE" stop-opacity="0"/>
</linearGradient>
<linearGradient id="paint1_linear_28328_10610" x1="459" y1="40.2764" x2="459" y2="435.276" gradientUnits="userSpaceOnUse">
<stop stop-color="#8AABEE"/>
<stop offset="1" stop-color="#8AABEE" stop-opacity="0"/>
</linearGradient>
<linearGradient id="paint2_linear_28328_10610" x1="402.5" y1="73" x2="402.5" y2="366" gradientUnits="userSpaceOnUse">
<stop stop-color="#8AABEE"/>
<stop offset="1" stop-color="#8AABEE" stop-opacity="0"/>
</linearGradient>
<linearGradient id="paint3_linear_28328_10610" x1="339.5" y1="90" x2="339.5" y2="410" gradientUnits="userSpaceOnUse">
<stop stop-color="#8AABEE"/>
<stop offset="1" stop-color="#8AABEE" stop-opacity="0"/>
</linearGradient>
<linearGradient id="paint4_linear_28328_10610" x1="225.5" y1="56" x2="225.5" y2="277" gradientUnits="userSpaceOnUse">
<stop stop-color="#8AABEE"/>
<stop offset="1" stop-color="#8AABEE" stop-opacity="0"/>
</linearGradient>
</defs>
</svg>
