<svg width="578" height="268" viewBox="0 0 578 268" fill="none" xmlns="http://www.w3.org/2000/svg">
<path opacity="0.3" d="M289.988 193.172C170.729 193.172 77.2969 163.692 77.2969 126.065C77.2969 88.4391 170.729 58.9587 289.988 58.9587C409.247 58.9587 502.679 88.4391 502.679 126.065C502.679 163.692 409.247 193.172 289.988 193.172ZM289.988 62.3585C174.592 62.3585 80.7252 90.9262 80.7252 126.043C80.7252 161.159 174.592 189.727 289.988 189.727C405.384 189.727 499.251 161.159 499.251 126.043C499.251 90.9262 405.384 62.3585 289.988 62.3585Z" fill="#D8D8DF"/>
<path opacity="0.3" d="M289.989 221.512C216.006 221.512 146.435 211.495 94.0732 193.309C41.1405 174.941 12 150.275 12 123.875C12 97.4749 41.1405 72.7862 94.0732 54.418C146.435 36.2323 216.006 26.2154 289.989 26.2154C363.971 26.2154 433.542 36.2323 485.904 54.418C538.837 72.7862 567.977 97.4521 567.977 123.875C567.977 150.298 538.837 174.941 485.904 193.332C433.542 211.517 363.971 221.534 289.989 221.534V221.512ZM289.989 29.638C138.595 29.638 15.4283 71.8963 15.4283 123.875C15.4283 175.854 138.595 218.089 289.989 218.089C441.382 218.089 564.549 175.831 564.549 123.875C564.549 71.9191 441.405 29.638 289.989 29.638Z" fill="#D8D8DF"/>
<g filter="url(#filter0_d_25475_349)">
<path d="M289.989 172.682C316.989 172.682 338.876 150.83 338.876 123.875C338.876 96.9196 316.989 75.068 289.989 75.068C262.989 75.068 241.102 96.9196 241.102 123.875C241.102 150.83 262.989 172.682 289.989 172.682Z" fill="white"/>
</g>
<path opacity="0.3" d="M153.315 123.875C153.315 105.803 199.323 90.1505 259.112 86.0433C260.826 84.6514 262.655 83.3964 264.574 82.2327C198.568 85.7466 149.887 102.769 149.887 123.875C149.887 144.981 198.568 162.003 264.574 165.517C262.677 164.353 260.849 163.121 259.112 161.707C199.3 157.599 153.315 141.947 153.315 123.875Z" fill="#D8D8DF"/>
<path opacity="0.3" d="M430.092 123.875C430.092 102.769 381.41 85.7466 315.404 82.2327C317.301 83.3964 319.13 84.6286 320.867 86.0433C380.656 90.1505 426.664 105.803 426.664 123.875C426.664 141.947 380.656 157.599 320.867 161.707C319.153 163.098 317.301 164.353 315.404 165.517C381.41 162.003 430.092 144.981 430.092 123.875Z" fill="#D8D8DF"/>
<path opacity="0.3" d="M200.374 123.875C200.374 115.683 219.732 109.089 244.759 105.415C245.284 104.137 245.878 102.882 246.518 101.65C218.475 105.552 196.945 113.287 196.945 123.897C196.945 134.508 218.475 142.22 246.518 146.145C245.878 144.912 245.284 143.657 244.759 142.38C219.732 138.683 200.374 132.089 200.374 123.92V123.875Z" fill="#D8D8DF"/>
<path opacity="0.3" d="M383.055 123.875C383.055 113.265 361.526 105.552 333.482 101.628C334.122 102.86 334.717 104.115 335.242 105.393C360.269 109.089 379.627 115.683 379.627 123.852C379.627 132.021 360.269 138.638 335.242 142.312C334.717 143.589 334.122 144.844 333.482 146.076C361.526 142.175 383.055 134.439 383.055 123.829V123.875Z" fill="#D8D8DF"/>
<path d="M317.189 122.145C317.099 121.151 316.929 120.001 316.594 118.736C316.265 117.471 315.774 116.088 315.061 114.652C314.345 113.218 313.411 111.724 312.196 110.281C311.722 109.714 311.206 109.156 310.646 108.612C311.479 105.298 309.63 102.425 309.63 102.425C306.44 102.225 304.412 103.415 303.661 103.959C303.536 103.905 303.41 103.852 303.283 103.8C302.739 103.58 302.181 103.375 301.608 103.193C301.035 103.013 300.448 102.846 299.849 102.704C299.25 102.564 298.638 102.445 298.015 102.349C297.906 102.332 297.797 102.318 297.688 102.302C296.303 97.8582 292.31 96 292.31 96C287.858 98.8234 287.01 102.776 287.01 102.776C287.01 102.776 286.988 102.863 286.962 103.01C286.715 103.079 286.469 103.151 286.223 103.229C285.881 103.333 285.544 103.46 285.203 103.581C284.866 103.713 284.527 103.843 284.192 103.991C283.52 104.281 282.854 104.605 282.203 104.97C281.57 105.325 280.95 105.714 280.346 106.136C280.259 106.095 280.19 106.065 280.19 106.065C274.024 103.709 268.549 106.543 268.549 106.543C268.05 113.103 271.011 117.236 271.598 117.986C271.453 118.392 271.317 118.801 271.19 119.214C270.733 120.699 270.393 122.226 270.182 123.803C270.151 124.029 270.124 124.257 270.099 124.486C264.401 127.298 262.713 133.066 262.713 133.066C267.467 138.535 273.013 138.872 273.013 138.872C273.017 138.868 273.022 138.863 273.027 138.859C273.733 140.117 274.548 141.314 275.466 142.43C275.851 142.897 276.254 143.349 276.672 143.785C274.938 148.743 276.916 152.87 276.916 152.87C282.209 153.069 285.688 150.555 286.42 149.972C286.948 150.149 287.481 150.309 288.02 150.449C289.647 150.868 291.313 151.114 292.978 151.188C293.394 151.206 293.81 151.214 294.225 151.211L294.426 151.21L294.558 151.206L294.821 151.198L295.081 151.186L295.087 151.194C297.581 154.751 301.967 155.255 301.967 155.255C305.088 151.965 305.266 148.704 305.266 147.997C305.266 147.997 305.266 147.974 305.265 147.95C305.265 147.891 305.263 147.851 305.263 147.851C305.263 147.851 305.262 147.851 305.262 147.85C305.26 147.801 305.258 147.752 305.254 147.699C305.908 147.241 306.534 146.746 307.124 146.217C308.372 145.086 309.463 143.802 310.368 142.413C310.453 142.283 310.536 142.152 310.617 142.019C314.147 142.221 316.637 139.834 316.637 139.834C316.051 136.156 313.955 134.36 313.518 134.022C313.518 134.022 313.499 134.007 313.473 133.987C313.449 133.969 313.433 133.958 313.433 133.958H313.432C313.409 133.942 313.384 133.926 313.356 133.909C313.377 133.687 313.397 133.466 313.41 133.244C313.437 132.848 313.446 132.451 313.449 132.056L313.445 131.76L313.443 131.613L313.442 131.539C313.44 131.437 313.44 131.475 313.439 131.436L313.428 131.189L313.409 130.856C313.403 130.738 313.394 130.641 313.385 130.538C313.376 130.436 313.367 130.334 313.354 130.232L313.319 129.927L313.276 129.623C313.216 129.218 313.139 128.817 313.048 128.421C312.678 126.835 312.059 125.331 311.243 123.978C310.425 122.625 309.408 121.427 308.262 120.417C307.115 119.406 305.831 118.594 304.484 117.988C303.137 117.381 301.72 116.991 300.312 116.813C299.607 116.721 298.904 116.685 298.21 116.693L297.95 116.699L297.885 116.7C297.869 116.7 297.787 116.703 297.796 116.703L297.688 116.71L297.431 116.726C297.332 116.733 297.231 116.74 297.145 116.75C296.788 116.785 296.434 116.834 296.084 116.9C294.685 117.162 293.364 117.668 292.202 118.364C291.039 119.059 290.027 119.933 289.206 120.918C288.385 121.903 287.746 122.994 287.306 124.124C286.866 125.255 286.62 126.42 286.551 127.555C286.535 127.839 286.528 128.121 286.532 128.4C286.533 128.469 286.534 128.539 286.537 128.609L286.546 128.836C286.556 128.972 286.566 129.107 286.577 129.242C286.632 129.816 286.738 130.366 286.891 130.897C287.198 131.959 287.69 132.92 288.298 133.736C288.906 134.555 289.63 135.23 290.401 135.756C291.172 136.284 291.995 136.66 292.811 136.901C293.628 137.143 294.44 137.245 295.205 137.243C295.301 137.244 295.395 137.24 295.49 137.238C295.541 137.237 295.591 137.233 295.642 137.231C295.693 137.227 295.744 137.225 295.794 137.222C295.875 137.213 295.956 137.205 296.037 137.197C296.056 137.195 296.082 137.192 296.106 137.189L296.181 137.179C296.23 137.172 296.279 137.166 296.329 137.159C296.429 137.147 296.516 137.127 296.607 137.111C296.697 137.094 296.785 137.076 296.873 137.053C297.049 137.012 297.219 136.96 297.386 136.909C297.719 136.799 298.032 136.666 298.324 136.518C298.616 136.368 298.884 136.199 299.133 136.024C299.204 135.973 299.274 135.92 299.342 135.867C299.61 135.657 299.653 135.267 299.437 135.003C299.251 134.775 298.93 134.714 298.672 134.857C298.609 134.891 298.545 134.925 298.48 134.958C298.257 135.066 298.024 135.165 297.778 135.245C297.531 135.323 297.274 135.388 297.008 135.434C296.875 135.453 296.74 135.473 296.603 135.483C296.534 135.49 296.466 135.494 296.396 135.496C296.327 135.499 296.254 135.504 296.192 135.501C296.126 135.5 296.06 135.499 295.993 135.498C295.911 135.494 295.828 135.49 295.744 135.486C295.743 135.485 295.701 135.485 295.735 135.484L295.707 135.481L295.651 135.477C295.614 135.472 295.577 135.47 295.54 135.466C295.465 135.457 295.391 135.449 295.316 135.437C294.718 135.353 294.113 135.18 293.528 134.915C292.944 134.651 292.383 134.286 291.879 133.832C291.375 133.38 290.934 132.832 290.589 132.215C290.243 131.599 290.002 130.911 289.89 130.191C289.833 129.833 289.809 129.461 289.819 129.095C289.824 128.995 289.828 128.894 289.833 128.793C289.834 128.82 289.835 128.779 289.836 128.776L289.84 128.739L289.846 128.665C289.85 128.616 289.855 128.567 289.861 128.518C289.881 128.32 289.911 128.123 289.946 127.927C290.223 126.359 291.007 124.831 292.221 123.667C292.525 123.378 292.852 123.109 293.2 122.868C293.55 122.629 293.92 122.417 294.306 122.238C294.693 122.06 295.097 121.915 295.51 121.802C295.924 121.69 296.349 121.616 296.78 121.579C296.995 121.56 297.212 121.552 297.429 121.552C297.487 121.552 297.53 121.554 297.576 121.556L297.751 121.561L297.86 121.565C297.905 121.566 297.86 121.567 297.879 121.568L297.924 121.571L298.099 121.583C298.567 121.62 299.032 121.686 299.491 121.79C300.408 121.994 301.301 122.332 302.134 122.793C303.798 123.716 305.219 125.158 306.089 126.897C306.528 127.762 306.833 128.697 306.986 129.661C307.023 129.902 307.05 130.145 307.071 130.388L307.084 130.571L307.093 130.755C307.097 130.815 307.097 130.878 307.099 130.938C307.1 130.999 307.103 131.066 307.101 131.112L307.1 131.271L307.097 131.449C307.091 131.567 307.082 131.761 307.076 131.88C307.056 132.146 307.034 132.412 306.998 132.676C306.967 132.939 306.921 133.2 306.873 133.46C306.821 133.719 306.766 133.978 306.699 134.234C306.569 134.748 306.405 135.253 306.21 135.746C305.821 136.734 305.298 137.671 304.673 138.536C303.414 140.264 301.698 141.676 299.747 142.564C298.771 143.005 297.742 143.328 296.684 143.503C296.156 143.593 295.62 143.645 295.082 143.664L294.983 143.668L294.897 143.669L294.725 143.671L294.461 143.67H294.329C294.402 143.669 294.319 143.669 294.321 143.668L294.267 143.666C293.979 143.659 293.692 143.645 293.406 143.624C292.26 143.537 291.129 143.333 290.032 143.014C288.934 142.697 287.868 142.271 286.86 141.735C284.847 140.659 283.046 139.181 281.635 137.404C280.926 136.519 280.308 135.566 279.798 134.564C279.287 133.562 278.886 132.511 278.589 131.437C278.294 130.362 278.111 129.261 278.039 128.155L278.026 127.948L278.023 127.896L278.021 127.85L278.018 127.759L278.011 127.576L278.009 127.53L278.008 127.468L278.007 127.339L278.003 127.082L278.002 127.032C278.002 127.039 278.002 127.041 278.002 127.015L278.003 126.915C278.003 126.782 278.008 126.645 278.011 126.509C278.034 125.962 278.077 125.402 278.149 124.838C278.221 124.275 278.313 123.71 278.428 123.151C278.545 122.591 278.681 122.036 278.836 121.489C279.149 120.396 279.538 119.339 280.001 118.339C280.927 116.339 282.14 114.573 283.596 113.152C283.96 112.796 284.337 112.46 284.729 112.144C285.121 111.829 285.529 111.537 285.948 111.264C286.364 110.988 286.797 110.738 287.239 110.507C287.459 110.388 287.686 110.284 287.911 110.175C288.026 110.124 288.14 110.074 288.254 110.023C288.368 109.972 288.483 109.923 288.599 109.877C289.06 109.681 289.535 109.517 290.013 109.363C290.133 109.326 290.254 109.29 290.374 109.253C290.493 109.216 290.616 109.187 290.738 109.153C290.98 109.084 291.226 109.026 291.471 108.966C291.593 108.934 291.718 108.912 291.841 108.885C291.964 108.86 292.087 108.831 292.211 108.807C292.336 108.785 292.461 108.762 292.584 108.74L292.77 108.706L292.958 108.677C293.084 108.658 293.208 108.639 293.334 108.62C293.473 108.597 293.616 108.586 293.755 108.565C293.871 108.551 294.06 108.528 294.175 108.514C294.264 108.505 294.352 108.496 294.44 108.487L294.617 108.468L294.706 108.458L294.811 108.451C294.953 108.442 295.094 108.433 295.236 108.423L295.448 108.409C295.446 108.408 295.526 108.406 295.458 108.406L295.503 108.404L295.593 108.4C295.714 108.394 295.834 108.389 295.955 108.383C296.436 108.368 296.914 108.368 297.389 108.384C298.337 108.424 299.268 108.527 300.173 108.695C301.983 109.032 303.688 109.614 305.228 110.375C306.773 111.13 308.154 112.058 309.357 113.068C309.432 113.131 309.507 113.195 309.58 113.258C309.653 113.322 309.726 113.387 309.799 113.451C309.945 113.578 310.083 113.712 310.224 113.841C310.364 113.971 310.499 114.104 310.634 114.235C310.765 114.37 310.9 114.501 311.026 114.636C311.535 115.175 312.008 115.72 312.432 116.271C313.285 117.369 313.966 118.476 314.51 119.522C314.544 119.588 314.578 119.652 314.611 119.717C314.643 119.783 314.675 119.847 314.706 119.912C314.77 120.042 314.834 120.169 314.891 120.296C314.95 120.423 315.01 120.549 315.065 120.673C315.12 120.799 315.173 120.922 315.226 121.043C315.43 121.533 315.614 121.998 315.765 122.441C316.015 123.152 316.196 123.795 316.338 124.351C316.395 124.575 316.606 124.723 316.835 124.702C317.072 124.68 317.255 124.484 317.26 124.246C317.273 123.651 317.258 122.947 317.189 122.145Z" fill="url(#paint0_linear_25475_349)"/>
<g filter="url(#filter1_d_25475_349)">
<path d="M474.04 132.66C496.963 132.66 515.545 114.108 515.545 91.2229C515.545 68.3379 496.963 49.786 474.04 49.786C451.118 49.786 432.535 68.3379 432.535 91.2229C432.535 114.108 451.118 132.66 474.04 132.66Z" fill="white"/>
</g>
<g filter="url(#filter2_d_25475_349)">
<path d="M90.5 157C113.972 157 133 137.972 133 114.5C133 91.0279 113.972 72 90.5 72C67.0279 72 48 91.0279 48 114.5C48 137.972 67.0279 157 90.5 157Z" fill="white"/>
</g>
<g filter="url(#filter3_d_25475_349)">
<path d="M191.367 172.157C205.505 172.157 216.965 160.715 216.965 146.601C216.965 132.487 205.505 121.046 191.367 121.046C177.23 121.046 165.77 132.487 165.77 146.601C165.77 160.715 177.23 172.157 191.367 172.157Z" fill="white"/>
</g>
<g filter="url(#filter4_d_25475_349)">
<path d="M370.919 95.9005C386.394 95.9005 398.94 83.3759 398.94 67.9261C398.94 52.4762 386.394 39.9516 370.919 39.9516C355.444 39.9516 342.898 52.4762 342.898 67.9261C342.898 83.3759 355.444 95.9005 370.919 95.9005Z" fill="white"/>
</g>
<g filter="url(#filter5_d_25475_349)">
<path d="M165.771 67.9489C181.246 67.9489 193.791 55.4243 193.791 39.9744C193.791 24.5246 181.246 12 165.771 12C150.295 12 137.75 24.5246 137.75 39.9744C137.75 55.4243 150.295 67.9489 165.771 67.9489Z" fill="white"/>
<path d="M193.291 39.9744C193.291 55.1474 180.971 67.4489 165.771 67.4489C150.571 67.4489 138.25 55.1474 138.25 39.9744C138.25 24.8015 150.571 12.5 165.771 12.5C180.971 12.5 193.291 24.8015 193.291 39.9744Z" stroke="#F4F4F6"/>
</g>
<path d="M186.504 135.204C186.204 136.904 185.804 139.504 185.604 142.104C185.204 146.704 185.404 149.804 185.404 149.804L178.904 156.004C178.904 156.004 178.404 152.604 178.204 148.704C178.104 146.304 178.004 144.204 178.004 142.904V142.704C178.004 142.604 178.104 141.804 178.904 140.904C179.904 139.904 186.604 134.604 186.504 135.204Z" fill="#1496FF"/>
<path d="M186.504 135.204C186.204 136.904 185.804 139.504 185.604 142.104C185.604 142.104 178.404 141.204 178.004 143.004C178.004 142.904 178.104 141.904 179.004 141.004C179.904 140.104 186.604 134.604 186.504 135.204Z" fill="#1284EA"/>
<path d="M178.004 142.504V142.904C178.104 142.604 178.204 142.404 178.504 142.004C179.004 141.404 179.804 141.204 180.204 141.204C182.004 141.004 184.504 140.704 187.204 140.604C191.704 140.404 194.804 140.804 194.804 140.804L201.304 134.604C201.304 134.604 197.904 134.004 194.004 133.504C191.504 133.204 189.204 133.004 188.004 133.004C187.904 133.004 187.004 132.904 186.204 133.704C185.204 134.604 180.604 139.004 178.704 140.804C177.904 141.604 178.004 142.504 178.004 142.504Z" fill="#B4DC00"/>
<path d="M201.004 150.404C199.204 150.604 196.704 150.904 194.004 151.004C189.504 151.204 186.404 150.804 186.404 150.804L179.904 157.004C179.904 157.004 183.304 157.704 187.204 158.104C189.604 158.404 191.704 158.504 192.904 158.604C193.004 158.604 193.104 158.504 193.204 158.504C193.304 158.504 194.204 158.304 195.004 157.504C196.004 156.604 201.504 150.304 201.004 150.404Z" fill="#6F2DA8"/>
<path d="M201.005 150.404C199.205 150.604 196.705 150.904 194.005 151.004C194.005 151.004 194.505 158.204 192.805 158.504C192.905 158.504 194.105 158.404 194.905 157.604C195.905 156.804 201.505 150.304 201.005 150.404Z" fill="#591F91"/>
<path d="M193.205 158.604H192.805C193.105 158.504 193.305 158.404 193.705 158.204C194.405 157.704 194.605 156.804 194.705 156.504C195.005 154.804 195.405 152.204 195.605 149.604C196.005 145.004 195.705 141.904 195.705 141.904L202.205 135.704C202.205 135.704 202.705 139.104 202.905 143.004C203.105 145.504 203.105 147.804 203.105 149.004C203.105 149.104 203.205 150.004 202.305 150.804C201.405 151.704 196.805 156.104 194.905 157.904C194.205 158.704 193.305 158.604 193.205 158.604Z" fill="#73BE28"/>
<g filter="url(#filter6_d_25475_349)">
<path d="M538.267 192.442C553.742 192.442 566.287 179.917 566.287 164.468C566.287 149.018 553.742 136.493 538.267 136.493C522.791 136.493 510.246 149.018 510.246 164.468C510.246 179.917 522.791 192.442 538.267 192.442Z" fill="white"/>
</g>
<g filter="url(#filter7_d_25475_349)">
<path d="M223.96 253C243.588 253 259.5 237.114 259.5 217.519C259.5 197.923 243.588 182.037 223.96 182.037C204.332 182.037 188.42 197.923 188.42 217.519C188.42 237.114 204.332 253 223.96 253Z" fill="white"/>
</g>
<g filter="url(#filter8_d_25475_349)">
<path d="M408.996 245.447C435.075 245.447 456.215 224.342 456.215 198.306C456.215 172.271 435.075 151.165 408.996 151.165C382.918 151.165 361.777 172.271 361.777 198.306C361.777 224.342 382.918 245.447 408.996 245.447Z" fill="white"/>
</g>
<path d="M402.206 198.855H406.978L404.448 194.957L399.828 202H397.722L403.357 193.551C403.599 193.203 404.008 193 404.463 193C404.902 193 405.311 193.203 405.554 193.536L411.219 202H409.098L408.114 200.42H403.266L402.206 198.855ZM424.141 200.42V193.087H422.353V201.145C422.353 201.362 422.444 201.58 422.611 201.739C422.793 201.899 423.02 202 423.262 202H431.427L432.488 200.435H424.141V200.42ZM394.51 199.116C396.252 199.116 397.661 197.768 397.661 196.101C397.661 194.435 396.252 193.087 394.51 193.087H386.679V202H388.466V194.652H394.389C395.222 194.652 395.889 195.29 395.889 196.101C395.889 196.899 395.222 197.551 394.389 197.551H389.345L394.677 202H397.283L393.692 199.116H394.51ZM375.651 202C373.075 202 371 200 371 197.551C371 195.087 373.09 193.101 375.651 193.101H381.059C383.634 193.101 385.709 195.101 385.709 197.551C385.709 200.014 383.619 202 381.059 202H375.651ZM380.937 200.435C382.604 200.435 383.952 199.145 383.952 197.551C383.952 195.957 382.604 194.667 380.937 194.667H375.757C374.105 194.652 372.742 195.957 372.742 197.551C372.742 199.145 374.09 200.435 375.757 200.435H380.937ZM414.946 202C412.37 202 410.295 200 410.295 197.551C410.295 195.087 412.386 193.101 414.946 193.101H421.384L420.323 194.667H415.067C413.401 194.667 412.052 195.957 412.052 197.551C412.052 199.145 413.401 200.435 415.067 200.435H421.52L420.475 202H414.946ZM436.865 200.435C435.487 200.435 434.321 199.551 433.972 198.333H441.622L442.682 196.768H433.972C434.321 195.551 435.487 194.667 436.881 194.667H442.137L443.198 193.101H436.759C434.184 193.101 432.109 195.101 432.109 197.551C432.109 200.014 434.199 202 436.759 202H442.289L443.349 200.435H436.865ZM444.137 194.043C444.137 193.609 444.5 193.261 444.955 193.261C445.409 193.261 445.773 193.609 445.773 194.043C445.773 194.478 445.409 194.826 444.955 194.826C444.5 194.826 444.137 194.478 444.137 194.043ZM444.955 195.043C445.53 195.043 446 194.594 446 194.043C446 193.493 445.53 193.043 444.955 193.043C444.379 193.043 443.91 193.493 443.91 194.043C443.91 194.594 444.379 195.043 444.955 195.043ZM444.849 193.449C445.015 193.449 445.076 193.449 445.152 193.478C445.364 193.551 445.379 193.725 445.379 193.797C445.379 193.812 445.379 193.855 445.364 193.884C445.349 193.928 445.333 194.014 445.212 194.072C445.197 194.087 445.197 194.087 445.167 194.101L445.44 194.565H445.182L444.94 194.13H444.788V194.565H444.561V193.449H444.849ZM444.94 193.957C445.015 193.957 445.091 193.957 445.137 193.884C445.152 193.855 445.167 193.826 445.167 193.783C445.167 193.725 445.137 193.667 445.076 193.652C445.031 193.638 444.97 193.638 444.864 193.638H444.803V193.957H444.94Z" fill="#ED1C24"/>
<path fill-rule="evenodd" clip-rule="evenodd" d="M485.997 98.9122L482.701 96.7398L479.952 101.331L476.756 100.397L473.941 104.693L474.085 106.045L489.388 103.226L488.499 93.6647L485.997 98.9122ZM471.725 94.792L474.181 94.454C474.578 94.6318 474.855 94.7002 475.332 94.8213C476.074 95.0147 476.932 95.2003 478.204 94.5595C478.499 94.413 479.116 93.8484 479.364 93.528L489.423 91.7033L490.449 104.123L473.216 107.229L471.725 94.792ZM490.41 90.3162L489.417 90.5057L487.511 70.7972L455.008 74.5658L459.013 107.061L462.817 106.508C462.514 106.074 462.039 105.549 461.232 104.877C460.111 103.947 460.507 102.364 461.17 101.366C462.043 99.68 466.55 97.5349 466.294 94.8389C466.202 93.8581 466.046 92.5824 465.136 91.7072C465.102 92.0706 465.163 92.4203 465.163 92.4203C465.163 92.4203 464.79 91.9436 464.602 91.293C464.417 91.0429 464.272 90.9648 464.075 90.6307C463.934 91.0156 463.954 91.463 463.954 91.463C463.954 91.463 463.649 90.7401 463.598 90.1306C463.416 90.4041 463.371 90.9218 463.371 90.9218C463.371 90.9218 462.975 89.7828 463.065 89.1694C462.883 88.636 462.346 87.5772 462.498 85.1703C463.491 85.8658 465.675 85.6997 466.525 84.4454C466.808 84.0293 467.001 82.8962 466.384 80.6632C465.987 79.2312 465.007 77.0978 464.624 76.287L464.579 76.3202C464.78 76.9727 465.196 78.3383 465.356 79.0026C465.839 81.0129 465.968 81.7123 465.741 82.6383C465.548 83.4432 465.087 83.9707 463.915 84.5607C462.742 85.1527 461.187 83.7128 461.088 83.6347C459.949 82.7282 459.068 81.2473 458.97 80.5284C458.868 79.7411 459.423 79.2683 459.704 78.6255C459.304 78.7408 458.857 78.944 458.857 78.944C458.857 78.944 459.39 78.3911 460.048 77.9144C460.322 77.7347 460.48 77.6194 460.767 77.381C460.351 77.3752 460.013 77.385 460.013 77.385C460.013 77.385 460.707 77.0099 461.426 76.7383C460.9 76.7149 460.396 76.7344 460.396 76.7344C460.396 76.7344 461.943 76.0428 463.164 75.5348C464.004 75.191 464.825 75.2926 465.286 75.9588C465.892 76.8321 466.527 77.3068 467.875 77.6018C468.703 77.2345 468.953 77.047 469.992 76.7637C470.907 75.7576 471.626 75.6267 471.626 75.6267C471.626 75.6267 471.27 75.9529 471.174 76.4667C471.694 76.0584 472.262 75.7165 472.262 75.7165C472.262 75.7165 472.042 75.9881 471.837 76.4198L471.883 76.4902C472.489 76.1268 473.2 75.8416 473.2 75.8416C473.2 75.8416 472.997 76.0995 472.759 76.4316C473.216 76.4277 474.142 76.4511 474.499 76.4921C476.621 76.539 477.061 74.2259 477.875 73.9368C478.895 73.5734 479.35 73.3526 481.087 75.0582C482.578 76.5234 483.742 79.1432 483.164 79.7313C482.679 80.2177 481.722 79.5418 480.663 78.2192C480.102 77.5198 479.68 76.6934 479.481 75.6423C479.313 74.7553 478.663 74.2415 478.663 74.2415C478.663 74.2415 479.04 75.0836 479.04 75.8259C479.04 76.2323 479.09 77.7483 479.741 78.5982C479.677 78.7232 479.647 79.2136 479.575 79.3073C478.819 78.393 477.193 77.7386 476.93 77.5452C477.826 78.2797 479.888 79.9677 480.679 81.5853C481.427 83.115 480.986 84.5177 481.365 84.8811C481.472 84.9847 482.974 86.8563 483.263 87.7979C483.768 89.437 483.293 91.1601 482.634 92.2288L480.792 92.516C480.522 92.4417 480.341 92.4027 480.099 92.264C480.231 92.0276 480.497 91.4395 480.499 91.3184L480.396 91.1367C479.821 91.9494 478.862 92.7387 478.063 93.1919C477.018 93.7839 475.814 93.6921 475.031 93.4498C472.806 92.7641 470.701 91.2598 470.195 90.8651C470.195 90.8651 470.18 91.1797 470.276 91.252C470.836 91.885 472.122 93.0298 473.364 93.8269L470.717 94.118L471.969 103.865C471.415 103.945 471.329 103.984 470.721 104.07C470.186 102.179 469.162 100.942 468.043 100.223C467.056 99.5882 465.694 99.4456 464.389 99.7035L464.305 99.8011C465.212 99.7074 466.282 99.8383 467.38 100.534C468.459 101.216 469.328 102.978 469.648 104.039C470.059 105.394 470.342 106.844 469.238 108.382C468.453 109.474 466.163 110.077 464.311 108.772C464.805 109.567 465.474 110.218 466.372 110.339C467.708 110.521 468.976 110.288 469.848 109.394C470.592 108.628 470.989 107.026 470.883 105.34L472.061 105.17L472.487 108.196L492 105.846L490.41 90.3162ZM478.538 82.0952C478.483 82.2202 478.397 82.3003 478.526 82.7047L478.534 82.7282L478.553 82.7809L478.606 82.9021C478.838 83.3748 479.092 83.8222 479.516 84.0508C479.626 84.0332 479.741 84.0196 479.858 84.0137C480.257 83.9961 480.509 84.0586 480.669 84.1465C480.683 84.0664 480.687 83.9512 480.677 83.7793C480.646 83.1795 480.796 82.1597 479.643 81.6224C479.208 81.4212 478.598 81.4818 478.395 81.7357C478.432 81.7396 478.465 81.7475 478.491 81.7572C478.801 81.8627 478.594 81.9682 478.538 82.0952ZM481.769 87.6924C481.618 87.6084 480.911 87.6416 480.415 87.7002C479.469 87.8116 478.448 88.1398 478.223 88.3137C477.817 88.6282 478 89.1772 478.301 89.4019C479.145 90.0309 479.884 90.4549 480.663 90.3513C481.142 90.2888 481.564 89.5308 481.863 88.8412C482.07 88.3684 482.07 87.8585 481.769 87.6924ZM473.394 82.8376C473.661 82.5836 472.065 82.2515 470.827 83.0955C469.914 83.7187 469.885 85.055 470.758 85.8111C470.846 85.8853 470.918 85.94 470.985 85.983C471.241 85.8618 471.532 85.7407 471.866 85.6333C472.432 85.4496 472.901 85.3539 473.288 85.3051C473.474 85.098 473.689 84.7346 473.634 84.0762C473.562 83.1795 472.884 83.3221 473.394 82.8376Z" fill="#632CA6"/>
<path d="M365.643 70.3742L361.669 61.7168C359.342 63.5965 357.997 66.3837 358 69.3219C358 74.7937 362.572 79.2294 368.21 79.2294C368.695 79.2293 369.179 79.196 369.659 79.13L365.697 70.4945C365.68 70.4536 365.66 70.4151 365.643 70.3742ZM368.211 54C366.938 53.9986 365.669 54.1472 364.433 54.4424L366.76 59.5158C367.24 59.4498 367.725 59.4166 368.21 59.4164C373.849 59.4164 378.418 63.8509 378.418 69.3216C378.422 72.2604 377.077 75.0483 374.749 76.9285L377.076 82C381.255 79.2452 384 74.596 384 69.3223C384 60.8606 376.93 54 368.211 54ZM382.429 79.832H382.582V80.3122H382.686V79.8305H382.839V79.7453H382.429V79.832ZM383.208 80.1195L383.054 79.7469H382.946V80.3122H383.05V79.9538L383.177 80.2598H383.238L383.365 79.9538V80.3122H383.47V79.7473H383.362L383.208 80.1195Z" fill="black"/>
<path d="M223.234 229.236C216.856 229.236 211.689 224.086 211.689 217.732C211.689 211.38 216.856 206.23 223.234 206.23C229.609 206.23 234.779 211.38 234.779 217.732C234.779 224.086 229.609 229.236 223.234 229.236ZM244.692 213.49C242.722 204.467 231.862 199.16 220.434 201.635C209.007 204.111 201.339 213.433 203.308 222.455C205.277 231.478 216.138 236.786 227.565 234.31C238.993 231.834 246.66 222.512 244.692 213.49Z" fill="#37808C"/>
<path d="M223.181 229.018C216.911 229.018 211.83 223.954 211.83 217.708C211.83 211.463 216.911 206.4 223.181 206.4C229.449 206.4 234.531 211.463 234.531 217.708C234.531 223.954 229.449 229.018 223.181 229.018ZM226.056 203.463C217.903 203.463 211.291 210.05 211.291 218.174C211.291 226.298 217.903 232.885 226.056 232.885C234.21 232.885 240.822 226.298 240.822 218.174C240.822 210.05 234.21 203.463 226.056 203.463Z" fill="#9BD3CD"/>
<path d="M219.081 216.52L217.843 213.933C217.547 213.321 217.243 212.628 217.14 212.302L217.116 212.326C217.156 212.787 217.164 213.368 217.172 213.854L217.203 216.52H216.301V211.012H217.339L218.681 213.703C218.937 214.212 219.177 214.865 219.249 215.12L219.273 215.096C219.249 214.817 219.193 214.029 219.193 213.528L219.177 211.012H220.048V216.52H219.081Z" fill="#1B1A19"/>
<path d="M222.468 213.058C221.973 213.058 221.701 213.448 221.701 214.101H223.195C223.195 213.448 222.908 213.058 222.468 213.058ZM221.693 214.745V214.809C221.693 215.366 221.901 215.955 222.692 215.955C223.067 215.955 223.395 215.82 223.698 215.557L224.042 216.091C223.619 216.449 223.131 216.624 222.588 216.624C221.446 216.624 220.727 215.804 220.727 214.515C220.727 213.806 220.878 213.336 221.23 212.939C221.557 212.564 221.957 212.397 222.468 212.397C222.868 212.397 223.235 212.501 223.579 212.811C223.93 213.13 224.106 213.623 224.106 214.562V214.745H221.693Z" fill="#1B1A19"/>
<path d="M228.78 216.536H227.957L227.462 214.682C227.334 214.204 227.198 213.583 227.198 213.583H227.182C227.182 213.583 227.118 213.981 226.919 214.722L226.431 216.536H225.608L224.506 212.548L225.377 212.429L225.816 214.379C225.928 214.881 226.024 215.438 226.024 215.438H226.048C226.048 215.438 226.128 214.913 226.279 214.355L226.799 212.493H227.662L228.117 214.308C228.285 214.96 228.373 215.454 228.373 215.454H228.397C228.397 215.454 228.492 214.841 228.596 214.371L229.012 212.493H229.922L228.78 216.536Z" fill="#1B1A19"/>
<path d="M217.109 218.842H216.606V220.586H217.077C217.557 220.586 217.812 220.522 217.98 220.355C218.132 220.203 218.228 219.973 218.228 219.686C218.228 219.129 217.924 218.842 217.109 218.842ZM218.387 223.61L217.908 222.759C217.525 222.082 217.269 221.7 216.965 221.397C216.861 221.294 216.782 221.238 216.606 221.23V223.61H215.703V218.102H217.389C218.627 218.102 219.186 218.819 219.186 219.678C219.186 220.466 218.675 221.19 217.812 221.19C218.012 221.294 218.379 221.827 218.667 222.289L219.482 223.61H218.387Z" fill="#1B1A19"/>
<path d="M221.462 220.148C220.967 220.148 220.695 220.538 220.695 221.19H222.189C222.189 220.538 221.902 220.148 221.462 220.148ZM220.687 221.835V221.899C220.687 222.456 220.895 223.045 221.686 223.045C222.062 223.045 222.389 222.91 222.693 222.647L223.036 223.18C222.613 223.539 222.125 223.714 221.582 223.714C220.44 223.714 219.721 222.894 219.721 221.604C219.721 220.896 219.873 220.426 220.224 220.028C220.552 219.654 220.951 219.487 221.462 219.487C221.862 219.487 222.229 219.591 222.573 219.901C222.924 220.219 223.1 220.713 223.1 221.652V221.835H220.687Z" fill="#1B1A19"/>
<path d="M224.746 223.698C223.859 223.698 223.859 222.902 223.859 222.56V219.129C223.859 218.58 223.835 218.285 223.779 217.951L224.682 217.752C224.746 217.999 224.754 218.333 224.754 218.858V222.273C224.754 222.814 224.778 222.902 224.842 222.997C224.89 223.069 225.026 223.109 225.129 223.061L225.273 223.602C225.113 223.666 224.946 223.698 224.746 223.698Z" fill="#1B1A19"/>
<path d="M225.833 223.61V219.646L226.72 219.487V223.61H225.833ZM226.272 218.986C225.953 218.986 225.705 218.723 225.705 218.405C225.705 218.078 225.961 217.816 226.288 217.816C226.6 217.816 226.863 218.07 226.863 218.405C226.863 218.723 226.6 218.986 226.272 218.986Z" fill="#1B1A19"/>
<path d="M229.235 223.714C228.133 223.714 227.518 222.942 227.518 221.644C227.518 220.18 228.396 219.479 229.299 219.479C229.739 219.479 230.058 219.583 230.418 219.917L229.978 220.498C229.739 220.283 229.531 220.188 229.299 220.188C229.02 220.188 228.788 220.331 228.66 220.594C228.54 220.84 228.492 221.214 228.492 221.716C228.492 222.265 228.58 222.615 228.764 222.814C228.892 222.958 229.083 223.045 229.299 223.045C229.579 223.045 229.85 222.91 230.114 222.647L230.529 223.18C230.162 223.547 229.779 223.714 229.235 223.714Z" fill="#1B1A19"/>
<path d="M231.326 222.888C231.312 222.883 231.283 222.878 231.251 222.878H231.203V223.058H231.248C231.305 223.058 231.331 223.052 231.348 223.036C231.364 223.02 231.374 222.996 231.374 222.969C231.374 222.928 231.358 222.901 231.326 222.888ZM231.396 223.435C231.371 223.39 231.359 223.373 231.334 223.325C231.268 223.206 231.248 223.172 231.224 223.163C231.217 223.16 231.211 223.158 231.203 223.158V223.435H231.072V222.772H231.32C231.438 222.772 231.516 222.85 231.516 222.966C231.516 223.066 231.449 223.147 231.367 223.149C231.38 223.16 231.387 223.166 231.395 223.177C231.433 223.225 231.554 223.435 231.554 223.435H231.396ZM231.28 222.634C231.028 222.634 230.825 222.843 230.825 223.107C230.825 223.371 231.028 223.584 231.28 223.584C231.532 223.584 231.736 223.371 231.736 223.107C231.736 222.843 231.532 222.634 231.28 222.634ZM231.28 223.698C230.956 223.698 230.689 223.438 230.689 223.107C230.689 222.778 230.956 222.516 231.28 222.516C231.603 222.516 231.87 222.778 231.87 223.107C231.87 223.438 231.603 223.698 231.28 223.698Z" fill="#1B1A19"/>
<g clip-path="url(#clip0_25475_349)">
<path d="M62.1782 111.635C62.1782 111.635 61.6227 111.076 60.5081 111.076C59.8457 111.076 59.1886 111.393 59.2029 112.058C59.233 113.457 63.2319 114.578 63.2291 116.86C63.2286 117.287 63.4801 119.955 59.3 120.153C59.2203 120.157 57.6366 120.243 56 118.993L56.8735 117.564C58.4599 118.824 58.9987 118.558 59.126 118.553C60.5316 118.5 60.5146 117.531 60.5081 117.265C60.468 115.6 56.482 114.806 56.5691 112.27C56.6357 110.326 58.5236 109.545 60.0615 109.545C61.7231 109.545 63.0082 110.338 63.0082 110.338L62.1782 111.635Z" fill="black"/>
<path d="M70.879 109.545C67.9342 109.451 67.1171 111.304 67.1171 111.304L67.1305 109.756H64.4531V124.995H67.1305L67.1038 118.526C67.1038 118.526 68.1881 120.156 70.1761 120.156C73.9713 120.156 75.1762 116.681 75.1762 114.737C75.1762 112.587 74.1855 109.651 70.879 109.545ZM69.7065 118.566C67.9069 118.566 67.1016 116.905 67.1016 114.856C67.1016 112.806 67.9605 111.145 69.7065 111.145C71.6151 111.145 72.3113 112.806 72.3113 114.856C72.3114 116.741 71.4679 118.566 69.7065 118.566Z" fill="black"/>
<path d="M79.0995 104.994H76.3418V119.915H79.0995V104.994Z" fill="black"/>
<path d="M83.5436 116.079C83.5436 116.079 83.3561 118.315 85.5784 118.301C85.7738 118.3 87.8274 118.447 87.8983 115.603L87.8943 109.756H90.5851V119.915H87.8983L87.8943 118.553C86.4217 120.246 84.5762 120.153 84.4806 120.153C80.8125 120.155 80.8125 116.873 80.8125 116.873V109.756H83.5435L83.5436 116.079Z" fill="black"/>
<path d="M99.5279 113.593C99.5279 113.593 99.7153 111.358 97.4931 111.371C97.2977 111.372 95.2441 111.226 95.1732 114.069L95.1772 119.916H92.4863V109.757H95.1732L95.1772 111.12C96.6498 109.427 98.4952 109.519 98.5909 109.519C102.259 109.518 102.259 112.8 102.259 112.8V119.916H99.528L99.5279 113.593Z" fill="black"/>
<path d="M106.824 119.916H104.133V104.994H106.824V113.771L107.105 113.771L110.773 109.611L112.808 110.484L109.34 114.161L113.45 119.254L110.92 120.087L106.909 114.568L106.824 114.565V119.916Z" fill="black"/>
<path d="M124 115.616L115.82 119.585V117.852L122.206 114.737L115.82 111.701V109.889L124 113.936V115.616Z" fill="#6AB361"/>
</g>
<path d="M538.061 145.706L539.109 147.673C539.344 148.036 539.599 148.358 539.9 148.657C540.781 149.527 541.602 150.456 542.357 151.436C544.132 153.767 545.329 156.354 546.184 159.153C546.697 160.863 546.975 162.617 546.996 164.39C547.082 169.692 545.264 174.245 541.599 178.028C541.003 178.628 540.359 179.179 539.674 179.674C539.311 179.674 539.139 179.396 538.99 179.14C538.717 178.664 538.536 178.142 538.455 177.6C538.326 176.959 538.241 176.318 538.283 175.655V175.356C538.254 175.292 537.934 145.857 538.061 145.706Z" fill="#599636"/>
<path d="M538.063 145.641C538.02 145.555 537.977 145.62 537.934 145.662C537.955 146.091 537.806 146.474 537.571 146.839C537.314 147.202 536.973 147.481 536.631 147.78C534.73 149.426 533.233 151.414 532.035 153.638C530.441 156.63 529.619 159.838 529.386 163.214C529.279 164.432 529.771 168.729 530.155 169.969C531.202 173.261 533.084 176.019 535.521 178.414C536.119 178.99 536.759 179.525 537.422 180.039C537.614 180.039 537.635 179.867 537.679 179.739C537.764 179.466 537.828 179.188 537.872 178.905L538.301 175.699L538.063 145.641Z" fill="#6CAC48"/>
<path d="M539.111 180.977C539.154 180.486 539.389 180.079 539.645 179.673C539.388 179.566 539.197 179.354 539.047 179.118C538.918 178.893 538.811 178.657 538.728 178.412C538.429 177.515 538.365 176.573 538.279 175.655V175.1C538.172 175.185 538.15 175.912 538.15 176.019C538.088 176.989 537.959 177.953 537.765 178.905C537.702 179.29 537.659 179.674 537.422 180.017C537.422 180.059 537.422 180.102 537.443 180.166C537.828 181.299 537.933 182.454 537.998 183.63V184.059C537.998 184.572 537.977 184.464 538.403 184.635C538.575 184.699 538.766 184.721 538.938 184.849C539.067 184.849 539.087 184.742 539.087 184.656L539.024 183.951V181.984C539.003 181.64 539.067 181.299 539.109 180.978L539.111 180.977Z" fill="#C2BFBF"/>
<path d="M175.548 46.9348L169.749 43.5851C168.935 43.1161 167.893 43.3951 167.421 44.2097C167.239 44.5305 167.167 44.8835 167.202 45.2266V51.7729C167.202 52.7085 167.962 53.4688 168.9 53.4688C169.836 53.4688 170.596 52.7085 170.596 51.7729V48.0086L173.844 49.8846C174.659 50.3561 175.703 50.0747 176.172 49.2601C176.644 48.4455 176.365 47.4038 175.548 46.9348Z" fill="#29B5E8"/>
<path d="M161.127 39.7566C161.137 39.1518 160.819 38.589 160.295 38.2854L154.497 34.9382C154.245 34.7926 153.956 34.716 153.667 34.716C153.073 34.716 152.52 35.0345 152.223 35.5479C151.764 36.3427 152.038 37.3622 152.833 37.8213L156.175 39.7492L152.833 41.6795C152.448 41.9017 152.172 42.2596 152.058 42.6891C151.942 43.1186 152.001 43.5679 152.223 43.9529C152.52 44.4664 153.073 44.7848 153.665 44.7848C153.956 44.7848 154.245 44.7083 154.497 44.5626L160.295 41.2154C160.814 40.9143 161.132 40.3564 161.127 39.7566Z" fill="#29B5E8"/>
<path d="M155.812 32.566L161.611 35.9132C162.287 36.3057 163.121 36.1774 163.654 35.6565C163.993 35.3455 164.202 34.9012 164.202 34.4075V27.6983C164.202 26.7603 163.442 26 162.507 26C161.569 26 160.808 26.7603 160.808 27.6983V31.517L157.515 29.6163C156.701 29.1448 155.659 29.4237 155.188 30.2383C154.716 31.0529 154.998 32.0946 155.812 32.566Z" fill="#29B5E8"/>
<path d="M168.851 40.0281C168.851 40.1565 168.777 40.3342 168.686 40.428L166.388 42.7261C166.297 42.8174 166.116 42.8915 165.988 42.8915H165.403C165.275 42.8915 165.094 42.8174 165.003 42.7261L162.702 40.428C162.611 40.3342 162.537 40.1565 162.537 40.0281V39.4431C162.537 39.3123 162.611 39.1345 162.702 39.0432L165.003 36.7426C165.094 36.6513 165.275 36.5772 165.403 36.5772H165.988C166.116 36.5772 166.297 36.6513 166.388 36.7426L168.686 39.0432C168.777 39.1345 168.851 39.3123 168.851 39.4431V40.0281ZM166.8 39.7467V39.722C166.8 39.6282 166.746 39.4974 166.679 39.4283L166 38.7519C165.934 38.6828 165.803 38.6285 165.707 38.6285H165.682C165.588 38.6285 165.457 38.6828 165.388 38.7519L164.712 39.4283C164.645 39.4949 164.591 39.6258 164.591 39.722V39.7467C164.591 39.843 164.645 39.9738 164.712 40.0405L165.388 40.7193C165.457 40.7859 165.588 40.8402 165.682 40.8402H165.707C165.803 40.8402 165.934 40.7859 166 40.7193L166.679 40.0405C166.746 39.9738 166.8 39.843 166.8 39.7467Z" fill="#29B5E8"/>
<path d="M169.749 35.9132L175.547 32.566C176.361 32.097 176.643 31.0529 176.171 30.2383C175.7 29.4237 174.658 29.1448 173.844 29.6163L170.595 31.4923V27.6983C170.595 26.7603 169.835 26 168.899 26C167.961 26 167.201 26.7603 167.201 27.6983V34.2742C167.169 34.6148 167.236 34.9703 167.421 35.2912C167.892 36.1058 168.934 36.3847 169.749 35.9132Z" fill="#29B5E8"/>
<path d="M162.773 43.3877C162.388 43.3136 161.976 43.3753 161.611 43.5851L155.812 46.9348C154.998 47.4038 154.716 48.4455 155.188 49.2601C155.659 50.0771 156.701 50.3561 157.515 49.8846L160.808 47.9839V51.7729C160.808 52.7085 161.569 53.4688 162.507 53.4688C163.442 53.4688 164.202 52.7085 164.202 51.7729V45.0637C164.202 44.2171 163.583 43.516 162.773 43.3877Z" fill="#29B5E8"/>
<path d="M179.169 35.5282C178.7 34.7111 177.656 34.4322 176.842 34.9037L171.043 38.2509C170.488 38.5717 170.182 39.1592 170.192 39.7566C170.187 40.3515 170.493 40.9316 171.043 41.2475L176.842 44.5972C177.656 45.0662 178.698 44.7873 179.169 43.9727C179.641 43.1581 179.359 42.1164 178.545 41.6449L175.262 39.7492L178.545 37.8534C179.362 37.3844 179.641 36.3428 179.169 35.5282Z" fill="#29B5E8"/>
<defs>
<filter id="filter0_d_25475_349" x="230.102" y="65.068" width="119.775" height="119.614" filterUnits="userSpaceOnUse" color-interpolation-filters="sRGB">
<feFlood flood-opacity="0" result="BackgroundImageFix"/>
<feColorMatrix in="SourceAlpha" type="matrix" values="0 0 0 0 0 0 0 0 0 0 0 0 0 0 0 0 0 0 127 0" result="hardAlpha"/>
<feOffset dy="1"/>
<feGaussianBlur stdDeviation="5.5"/>
<feComposite in2="hardAlpha" operator="out"/>
<feColorMatrix type="matrix" values="0 0 0 0 0 0 0 0 0 0 0 0 0 0 0 0 0 0 0.09 0"/>
<feBlend mode="normal" in2="BackgroundImageFix" result="effect1_dropShadow_25475_349"/>
<feBlend mode="normal" in="SourceGraphic" in2="effect1_dropShadow_25475_349" result="shape"/>
</filter>
<filter id="filter1_d_25475_349" x="421.535" y="39.786" width="105.012" height="104.874" filterUnits="userSpaceOnUse" color-interpolation-filters="sRGB">
<feFlood flood-opacity="0" result="BackgroundImageFix"/>
<feColorMatrix in="SourceAlpha" type="matrix" values="0 0 0 0 0 0 0 0 0 0 0 0 0 0 0 0 0 0 127 0" result="hardAlpha"/>
<feOffset dy="1"/>
<feGaussianBlur stdDeviation="5.5"/>
<feComposite in2="hardAlpha" operator="out"/>
<feColorMatrix type="matrix" values="0 0 0 0 0 0 0 0 0 0 0 0 0 0 0 0 0 0 0.09 0"/>
<feBlend mode="normal" in2="BackgroundImageFix" result="effect1_dropShadow_25475_349"/>
<feBlend mode="normal" in="SourceGraphic" in2="effect1_dropShadow_25475_349" result="shape"/>
</filter>
<filter id="filter2_d_25475_349" x="37" y="62" width="107" height="107" filterUnits="userSpaceOnUse" color-interpolation-filters="sRGB">
<feFlood flood-opacity="0" result="BackgroundImageFix"/>
<feColorMatrix in="SourceAlpha" type="matrix" values="0 0 0 0 0 0 0 0 0 0 0 0 0 0 0 0 0 0 127 0" result="hardAlpha"/>
<feOffset dy="1"/>
<feGaussianBlur stdDeviation="5.5"/>
<feComposite in2="hardAlpha" operator="out"/>
<feColorMatrix type="matrix" values="0 0 0 0 0 0 0 0 0 0 0 0 0 0 0 0 0 0 0.09 0"/>
<feBlend mode="normal" in2="BackgroundImageFix" result="effect1_dropShadow_25475_349"/>
<feBlend mode="normal" in="SourceGraphic" in2="effect1_dropShadow_25475_349" result="shape"/>
</filter>
<filter id="filter3_d_25475_349" x="154.77" y="111.046" width="73.1953" height="73.1115" filterUnits="userSpaceOnUse" color-interpolation-filters="sRGB">
<feFlood flood-opacity="0" result="BackgroundImageFix"/>
<feColorMatrix in="SourceAlpha" type="matrix" values="0 0 0 0 0 0 0 0 0 0 0 0 0 0 0 0 0 0 127 0" result="hardAlpha"/>
<feOffset dy="1"/>
<feGaussianBlur stdDeviation="5.5"/>
<feComposite in2="hardAlpha" operator="out"/>
<feColorMatrix type="matrix" values="0 0 0 0 0 0 0 0 0 0 0 0 0 0 0 0 0 0 0.09 0"/>
<feBlend mode="normal" in2="BackgroundImageFix" result="effect1_dropShadow_25475_349"/>
<feBlend mode="normal" in="SourceGraphic" in2="effect1_dropShadow_25475_349" result="shape"/>
</filter>
<filter id="filter4_d_25475_349" x="331.898" y="29.9516" width="78.041" height="77.9489" filterUnits="userSpaceOnUse" color-interpolation-filters="sRGB">
<feFlood flood-opacity="0" result="BackgroundImageFix"/>
<feColorMatrix in="SourceAlpha" type="matrix" values="0 0 0 0 0 0 0 0 0 0 0 0 0 0 0 0 0 0 127 0" result="hardAlpha"/>
<feOffset dy="1"/>
<feGaussianBlur stdDeviation="5.5"/>
<feComposite in2="hardAlpha" operator="out"/>
<feColorMatrix type="matrix" values="0 0 0 0 0 0 0 0 0 0 0 0 0 0 0 0 0 0 0.09 0"/>
<feBlend mode="normal" in2="BackgroundImageFix" result="effect1_dropShadow_25475_349"/>
<feBlend mode="normal" in="SourceGraphic" in2="effect1_dropShadow_25475_349" result="shape"/>
</filter>
<filter id="filter5_d_25475_349" x="126.75" y="2" width="78.041" height="77.9489" filterUnits="userSpaceOnUse" color-interpolation-filters="sRGB">
<feFlood flood-opacity="0" result="BackgroundImageFix"/>
<feColorMatrix in="SourceAlpha" type="matrix" values="0 0 0 0 0 0 0 0 0 0 0 0 0 0 0 0 0 0 127 0" result="hardAlpha"/>
<feOffset dy="1"/>
<feGaussianBlur stdDeviation="5.5"/>
<feComposite in2="hardAlpha" operator="out"/>
<feColorMatrix type="matrix" values="0 0 0 0 0 0 0 0 0 0 0 0 0 0 0 0 0 0 0.09 0"/>
<feBlend mode="normal" in2="BackgroundImageFix" result="effect1_dropShadow_25475_349"/>
<feBlend mode="normal" in="SourceGraphic" in2="effect1_dropShadow_25475_349" result="shape"/>
</filter>
<filter id="filter6_d_25475_349" x="499.246" y="126.493" width="78.043" height="77.9489" filterUnits="userSpaceOnUse" color-interpolation-filters="sRGB">
<feFlood flood-opacity="0" result="BackgroundImageFix"/>
<feColorMatrix in="SourceAlpha" type="matrix" values="0 0 0 0 0 0 0 0 0 0 0 0 0 0 0 0 0 0 127 0" result="hardAlpha"/>
<feOffset dy="1"/>
<feGaussianBlur stdDeviation="5.5"/>
<feComposite in2="hardAlpha" operator="out"/>
<feColorMatrix type="matrix" values="0 0 0 0 0 0 0 0 0 0 0 0 0 0 0 0 0 0 0.09 0"/>
<feBlend mode="normal" in2="BackgroundImageFix" result="effect1_dropShadow_25475_349"/>
<feBlend mode="normal" in="SourceGraphic" in2="effect1_dropShadow_25475_349" result="shape"/>
</filter>
<filter id="filter7_d_25475_349" x="177.42" y="172.037" width="93.0801" height="92.9629" filterUnits="userSpaceOnUse" color-interpolation-filters="sRGB">
<feFlood flood-opacity="0" result="BackgroundImageFix"/>
<feColorMatrix in="SourceAlpha" type="matrix" values="0 0 0 0 0 0 0 0 0 0 0 0 0 0 0 0 0 0 127 0" result="hardAlpha"/>
<feOffset dy="1"/>
<feGaussianBlur stdDeviation="5.5"/>
<feComposite in2="hardAlpha" operator="out"/>
<feColorMatrix type="matrix" values="0 0 0 0 0 0 0 0 0 0 0 0 0 0 0 0 0 0 0.09 0"/>
<feBlend mode="normal" in2="BackgroundImageFix" result="effect1_dropShadow_25475_349"/>
<feBlend mode="normal" in="SourceGraphic" in2="effect1_dropShadow_25475_349" result="shape"/>
</filter>
<filter id="filter8_d_25475_349" x="350.777" y="141.165" width="116.438" height="116.283" filterUnits="userSpaceOnUse" color-interpolation-filters="sRGB">
<feFlood flood-opacity="0" result="BackgroundImageFix"/>
<feColorMatrix in="SourceAlpha" type="matrix" values="0 0 0 0 0 0 0 0 0 0 0 0 0 0 0 0 0 0 127 0" result="hardAlpha"/>
<feOffset dy="1"/>
<feGaussianBlur stdDeviation="5.5"/>
<feComposite in2="hardAlpha" operator="out"/>
<feColorMatrix type="matrix" values="0 0 0 0 0 0 0 0 0 0 0 0 0 0 0 0 0 0 0.09 0"/>
<feBlend mode="normal" in2="BackgroundImageFix" result="effect1_dropShadow_25475_349"/>
<feBlend mode="normal" in="SourceGraphic" in2="effect1_dropShadow_25475_349" result="shape"/>
</filter>
<linearGradient id="paint0_linear_25475_349" x1="289.989" y1="168.583" x2="289.989" y2="114.446" gradientUnits="userSpaceOnUse">
<stop stop-color="#FFF200"/>
<stop offset="1" stop-color="#F15A29"/>
</linearGradient>
<clipPath id="clip0_25475_349">
<rect width="68" height="20" fill="white" transform="translate(56 105)"/>
</clipPath>
</defs>
</svg>
