<?xml version="1.0" encoding="utf-8"?>
<!-- Generator: Adobe Illustrator 19.0.1, SVG Export Plug-In . SVG Version: 6.00 Build 0)  -->
<!DOCTYPE svg PUBLIC "-//W3C//DTD SVG 1.1//EN" "http://www.w3.org/Graphics/SVG/1.1/DTD/svg11.dtd">
<svg version="1.1" id="Layer_1" xmlns="http://www.w3.org/2000/svg" xmlns:xlink="http://www.w3.org/1999/xlink" x="0px" y="0px"
	 width="400px" height="170px" viewBox="0 0 400 170" style="enable-background:new 0 0 400 170;" xml:space="preserve">
<style type="text/css">
	.st0{fill:#797979;}
	.st1{fill:none;stroke:#797979;stroke-miterlimit:10;}
	.st2{fill:#E6E7E8;}
	.st3{fill:url(#SVGID_1_);}
</style>
<path class="st0" d="M76.5,103.7c0,0.4-0.1,0.9-0.3,1.3c-0.2,0.4-0.4,0.7-0.8,0.9c-0.4,0.3-0.8,0.5-1.2,0.6c-0.5,0.1-1,0.2-1.5,0.2
	c-0.6,0-1.2-0.1-1.8-0.3c-0.6-0.2-1.1-0.5-1.6-0.9l0.9-1.4c0.4,0.3,0.7,0.6,1.1,0.8c0.4,0.1,0.7,0.3,1.1,0.3c0.4,0,0.7-0.1,1.1-0.4
	c0.3-0.2,0.4-0.6,0.4-0.9c0-0.1,0-0.3-0.1-0.4s-0.1-0.3-0.3-0.4c-0.1-0.1-0.4-0.4-0.6-0.5s-0.5-0.4-0.9-0.6
	c-0.3-0.2-0.5-0.4-0.8-0.6c-0.2-0.2-0.5-0.4-0.7-0.6c-0.2-0.2-0.4-0.5-0.5-0.8s-0.2-0.6-0.2-1s0.1-0.8,0.3-1.1
	c0.2-0.4,0.4-0.6,0.7-0.9c0.4-0.3,0.7-0.4,1.1-0.6c0.4-0.1,0.9-0.2,1.3-0.2c0.5,0,1.1,0.1,1.6,0.2s0.9,0.4,1.3,0.6l-0.8,1.3
	c-0.5-0.4-1.1-0.6-1.7-0.6c-0.4,0-0.6,0.1-0.9,0.3c-0.2,0.1-0.4,0.4-0.4,0.7c0,0.3,0.1,0.6,0.3,0.7c0.4,0.4,0.7,0.6,1.1,0.9
	c0.5,0.4,0.9,0.7,1.3,1c0.3,0.2,0.6,0.5,0.8,0.8c0.2,0.2,0.3,0.5,0.4,0.8C76.4,103.1,76.5,103.4,76.5,103.7 M85.4,101.3
	c0.1-0.9-0.2-1.8-0.6-2.6c-0.4-0.6-1.1-1-1.8-0.9c-0.8,0-1.5,0.4-1.9,1c-0.5,0.9-0.8,1.8-0.7,2.8c-0.1,0.9,0.2,1.8,0.7,2.6
	c0.4,0.6,1.1,1,1.9,1c0.4,0,0.9-0.1,1.2-0.4c0.4-0.3,0.6-0.6,0.8-1c0.2-0.4,0.4-0.8,0.4-1.3C85.3,102.2,85.4,101.7,85.4,101.3
	 M88.1,101.2c0,0.7-0.1,1.5-0.4,2.2c-0.2,0.6-0.6,1.2-1,1.7c-0.9,1-2.1,1.6-3.4,1.6c-0.3,0-0.6,0-0.9-0.1s-0.5-0.1-0.8-0.3
	c-0.3-0.1-0.5-0.3-0.7-0.5c-0.3-0.2-0.5-0.5-0.7-0.8v6.4h-2.6V96.3h2.6v1.5c0.4-0.6,0.9-1,1.6-1.3c0.6-0.3,1.3-0.4,1.9-0.4
	s1.2,0.1,1.8,0.4s1,0.6,1.4,1c0.4,0.5,0.7,1,0.9,1.6C88.1,99.8,88.1,100.5,88.1,101.2 M89.3,91.7h2.6v14.7h-2.6V91.7z M100.6,106.4
	v-1.3c-0.4,0.5-1,0.9-1.6,1.3c-0.6,0.3-1.2,0.4-1.8,0.4c-0.7,0-1.4-0.1-2-0.5c-0.6-0.3-1-0.8-1.2-1.4c-0.1-0.1-0.1-0.3-0.1-0.4
	s-0.1-0.4-0.1-0.6s-0.1-0.5-0.1-0.7v-6.7h2.6v5.8c0,0.4,0,0.8,0.1,1.1c0.1,0.3,0.1,0.5,0.3,0.7c0.4,0.6,1,0.9,1.6,0.9
	c0.9,0.1,1.7-0.4,2.1-1.3c0.1-0.2,0.1-0.5,0.2-0.7c0.1-0.4,0.1-0.7,0.1-1.1v-5.4h2.6v10.1L100.6,106.4L100.6,106.4z M112,106.4v-5.8
	c0-0.4,0-0.8-0.1-1.1c-0.1-0.3-0.1-0.5-0.3-0.7c-0.4-0.6-1-0.9-1.6-0.9c-0.4,0-0.9,0.1-1.3,0.3c-0.4,0.2-0.6,0.5-0.8,0.9
	c-0.1,0.2-0.1,0.5-0.2,0.7c-0.1,0.4-0.1,0.7-0.1,1.1v5.4H105v-10h2.7v1.3c0.4-0.5,1-0.9,1.6-1.3c0.6-0.3,1.2-0.4,1.8-0.4
	c0.7,0,1.4,0.1,2,0.5s0.9,0.8,1.2,1.4c0.1,0.1,0.1,0.3,0.1,0.4c0.1,0.1,0.1,0.4,0.1,0.5c0,0.2,0.1,0.5,0.1,0.7v6.7L112,106.4
	L112,106.4z M123.1,106.6l-4-5.5v5.3h-2.7V91.7h2.7v8.7h0.3l3.5-4.1l2,0.9l-3.4,3.6l4,5L123.1,106.6z M127.9,106.2v-1.8l6.2-3.1
	l-6.2-3.1v-1.8l8,4v1.6L127.9,106.2z M128.7,93.9c0.5,0,0.9,0.4,0.9,0.9s-0.4,0.9-0.9,0.9s-0.9-0.4-0.9-0.9
	C127.7,94.4,128.2,93.9,128.7,93.9z M128.7,94.1c-0.4,0-0.7,0.4-0.7,0.8s0.4,0.7,0.7,0.7c0.4,0,0.7-0.4,0.7-0.7
	C129.5,94.4,129.1,94.1,128.7,94.1z M128.5,95.3L128.5,95.3l-0.1-1h0.3c0.1,0,0.2,0,0.3,0.1c0.1,0.1,0.1,0.1,0.1,0.2
	s-0.1,0.2-0.2,0.2c0.1,0,0.1,0.1,0.1,0.2s0,0.1,0.1,0.3H129c-0.1-0.1-0.1-0.1-0.1-0.3c0-0.1-0.1-0.2-0.2-0.1h-0.1L128.5,95.3
	L128.5,95.3z M128.5,94.8h0.1c0.1,0,0.2-0.1,0.2-0.1c0-0.1-0.1-0.1-0.3-0.1h-0.1v0.2H128.5z"/>
<g id="zJpV3u.tif_1_">
	<path class="st0" d="M287.6,75.9l-1.1-2.3c1.6-1.6,2.2-3.5,1.1-5.5c-0.9-2-2.6-2.8-4.8-2.6l-1.1-2.3c2.3-0.7,6.2,0.1,8,3.6
		C291.7,70,290.5,73.9,287.6,75.9z M280.7,66.4l3.6,8.1c-1.5,0.4-3.7-0.4-4.7-2.3C278.5,70.1,279.1,67.7,280.7,66.4z M360.8,67.8V72
		c0,0.4-0.2,0.6-0.6,0.6h-0.4c-0.1-0.2-0.1-6.2,0-6.5h0.6c0.4-0.1,0.6,0.1,0.9,0.4c0.6,0.8,1.1,1.6,1.7,2.4c0.1,0.1,0.1,0.1,0.1,0.2
		l0.2-0.2c0.6-0.9,1.2-1.8,1.8-2.6c0.1-0.1,0.2-0.2,0.4-0.2h1V72c0,0.4-0.2,0.6-0.6,0.7h-0.4v-0.9V71v-0.9v-0.9v-0.9v-0.9l-0.2,0.2
		c-0.6,0.9-1.2,1.7-1.8,2.6l-0.1,0.1c-0.2,0.2-0.3,0.3-0.5,0c-0.4-0.6-0.8-1.1-1.2-1.7c-0.2-0.3-0.4-0.6-0.6-0.9
		C361,67.8,360.9,67.8,360.8,67.8C360.9,67.7,360.9,67.7,360.8,67.8L360.8,67.8z M341.4,72.6v-6.5h0.7c0.1,0,0.1,0.1,0.2,0.1
		c0.6,0.7,1.1,1.4,1.6,2.1l1.7,2.1l0.2,0.2v-0.3v-3.5v-0.3c0.1-0.2,0.2-0.4,0.5-0.4h0.6v6.5h-0.7c-0.1,0-0.1-0.1-0.2-0.1l-1.7-2.1
		c-0.6-0.7-1.1-1.3-1.6-2.1c-0.1-0.1-0.1-0.1-0.2-0.2v4.2c-0.1,0.2-0.2,0.4-0.5,0.4C341.8,72.6,341.6,72.6,341.4,72.6z M324.5,72.6
		v-6.5h2.9c1.4,0.1,2.5,1.1,2.8,2.5c0.1,0.9,0.1,1.6-0.3,2.4c-0.5,1-1.3,1.5-2.4,1.6c-0.6,0.1-1.3,0-1.8,0S325,72.6,324.5,72.6z
		 M325.6,71.6c0.6,0,1.2,0.1,1.8,0c0.9-0.1,1.6-0.7,1.8-1.6c0.1-0.4,0.1-0.7,0-1.1c-0.1-1.1-0.9-1.7-1.9-1.8c-0.5-0.1-1.1,0-1.6,0
		h-0.1C325.6,68.6,325.6,70,325.6,71.6L325.6,71.6z M351,72.6h-1.1c1-2.2,2-4.3,2.9-6.5h1.1c1,2.1,1.9,4.3,2.9,6.5h-1.1
		c-0.1-0.4-0.4-0.7-0.5-1.1s-0.1-0.3-0.5-0.3h-3c-0.1,0-0.3,0.1-0.4,0.2c-0.1,0.3-0.3,0.6-0.4,0.9C351.1,72.5,351,72.5,351,72.6
		L351,72.6z M354.8,70.3c-0.1-0.4-0.3-0.7-0.5-1.1c-0.1-0.4-0.3-0.6-0.4-1s-0.3-0.6-0.5-1c-0.5,1.1-0.9,2.1-1.3,3.1H354.8
		L354.8,70.3z M302,66.1c1,2.2,1.9,4.3,2.9,6.5h-1.1c-0.1,0-0.1-0.1-0.1-0.1c-0.1-0.4-0.4-0.7-0.5-1.1c-0.1-0.1-0.1-0.2-0.3-0.2
		h-3.2h-0.1c-0.2,0.4-0.4,0.9-0.6,1.3h-1.1c0.1-0.1,0.1-0.2,0.1-0.3c0.9-2,1.8-4,2.7-6c0.1-0.2,0.2-0.2,0.4-0.2
		C301.4,66.1,301.7,66.1,302,66.1L302,66.1z M300,70.3h2.8c-0.4-1-0.9-2.1-1.3-3.1C301,68.3,300.5,69.3,300,70.3z M316.2,66.1h2.9
		c0.3,0,0.6,0,0.9,0.1c1.2,0.4,1.7,1.5,1.6,2.5c-0.1,1.1-1,1.9-2.1,2h-2.1v1.4c0,0.4-0.3,0.6-0.6,0.6h-0.4
		C316.2,70.4,316.2,68.3,316.2,66.1z M317.3,69.6h2.1c0.5,0,0.9-0.3,1-0.8c0.3-0.8-0.1-1.8-1.2-1.8h-1.9V69.6L317.3,69.6z
		 M307.8,66.1h2.9c0.3,0,0.6,0,0.8,0.1c1.2,0.3,1.8,1.4,1.6,2.4c-0.1,1.2-0.9,2-2.1,2h-2.1v1.3c0,0.4-0.3,0.6-0.6,0.6h-0.4
		C307.8,72.5,307.8,66.1,307.8,66.1z M308.9,67.1v2.6h2.1c0.6,0,1.1-0.6,1.1-1.2c0.1-0.6-0.4-1.2-0.9-1.3c-0.1-0.1-0.3-0.1-0.5-0.1
		h-1.6C309,67.1,309,67.1,308.9,67.1L308.9,67.1z M383,71.3c0.3-0.1,0.5-0.4,0.8-0.5c0.1,0.1,0.1,0.1,0.1,0.1c0.4,0.6,1,0.9,1.7,0.9
		c0.4,0,0.9,0,1.3-0.1c0.3-0.1,0.6-0.4,0.6-0.7c0.1-0.4,0-0.6-0.4-0.9c-0.2-0.1-0.4-0.2-0.6-0.3c-0.4-0.1-0.8-0.1-1.2-0.2
		c-0.4-0.1-0.7-0.2-1.1-0.4c-1.2-0.5-1.2-2.2-0.2-2.8c0.4-0.3,0.9-0.4,1.3-0.5c0.6-0.1,1.2-0.1,1.8,0.1c0.5,0.1,0.9,0.4,1.2,0.9
		c-0.3,0.1-0.5,0.4-0.8,0.5c-0.3-0.4-0.6-0.6-1.1-0.6c-0.5-0.1-0.9-0.1-1.3,0.1c-0.2,0.1-0.4,0.2-0.5,0.4c-0.4,0.4-0.3,0.9,0.2,1.1
		c0.3,0.1,0.6,0.2,1,0.3c0.4,0.1,0.9,0.1,1.3,0.3c0.2,0.1,0.4,0.1,0.6,0.3c0.6,0.4,0.9,0.9,0.9,1.7c-0.1,0.7-0.4,1.2-1.1,1.6
		c-0.3,0.1-0.6,0.2-1,0.3c-0.7,0.1-1.4,0.1-2.1-0.2S383.3,71.9,383,71.3L383,71.3z M380.3,66.9c-0.2,0.2-0.5,0.4-0.7,0.7
		c-0.6-0.6-1.3-0.8-2.2-0.6c-0.6,0.1-1.1,0.4-1.4,0.9c-0.7,0.9-0.6,2.3,0.2,3.1c0.7,0.7,2.1,1.1,3.4,0l0.4,0.4
		c0.1,0.1,0.2,0.2,0.4,0.3c-0.5,0.7-1.9,1.3-3.2,1c-1.3-0.4-2.5-1.5-2.6-3.1c-0.1-1.4,0.7-2.8,2.1-3.3
		C377.8,65.6,379.3,66,380.3,66.9z M332.3,66.1h1.2c0.1,0,0.1,0.1,0.2,0.2c0.4,0.5,0.6,1.1,1,1.6c0.2,0.4,0.4,0.7,0.7,1.1
		c0.1-0.1,0.1-0.1,0.1-0.2c0.5-0.9,1.1-1.6,1.6-2.5c0.1-0.1,0.2-0.2,0.4-0.2h1c-0.1,0.1-0.1,0.2-0.1,0.3l-2.3,3.4
		c-0.1,0.1-0.1,0.3-0.1,0.4V72c0,0.2-0.1,0.4-0.2,0.5s-0.2,0.1-0.4,0.1h-0.5v-0.3v-2.1c0-0.2-0.1-0.4-0.1-0.5
		c-0.7-1.1-1.5-2.2-2.2-3.3C332.5,66.3,332.4,66.2,332.3,66.1L332.3,66.1z M371.2,66.1v6c-0.1,0.2-0.2,0.4-0.5,0.4h-0.6v-0.3v-5.5
		c0-0.4,0.3-0.8,0.7-0.7C371,66.1,371.1,66.1,371.2,66.1z M290.5,75.2c-0.1-0.1-0.1-0.3,0-0.5c0.1,0.1,0.1,0.1,0.1,0.3
		c0.1-0.1,0.1-0.1,0.1-0.2h0.1v0.4c0-0.1-0.1-0.1-0.1-0.1l-0.1,0.1L290.5,75.2C290.6,75.2,290.5,75.2,290.5,75.2L290.5,75.2z
		 M290.3,74.8c0,0.1-0.1,0.3-0.1,0.4h-0.1c0-0.1-0.1-0.3-0.1-0.4H290.3L290.3,74.8z"/>
</g>
<g transform="translate(-24 -20)">
	<g id="g26">
		<path id="path4" class="st0" d="M297.9,128.6c-0.2,0.3-0.7,0.5-1.3,0.5C297.2,129.2,297.7,129,297.9,128.6
			c0.4-0.6,0.4-1.1,0.3-1.7C298.3,127.5,298.3,128.1,297.9,128.6z"/>
		<path id="polygon6" class="st0" d="M307.5,126.7l-0.4-5.6L307.5,126.7l-7.7,1.4L307.5,126.7z"/>
		<path id="path8" class="st0" d="M296.5,129.1"/>
		<path id="path10" class="st0" d="M307.5,120.5l-0.4,0.1l-0.9-8.9l-14.6,1.7l1.8,14.7l1.7-0.3c-0.1-0.1-0.1-0.1-0.2-0.3l-1.2,0.2
			l-1.7-14.1l14-1.5l0.9,9l0.3-0.1l0.4,5.6l-7.7,1.4l-0.1-1.4l-1.3,0.2c0.1,0.5,0.1,1.1-0.3,1.7c-0.2,0.3-0.7,0.6-1.3,0.5h-0.1
			c-0.3-0.1-0.6-0.1-0.8-0.3c0.2,0.4,0.5,0.6,0.9,0.7c0.6,0.1,1.2,0,1.6-0.4s0.5-1.1,0.5-1.8l0.5-0.1l0.2,1.3l8.8-1.1L307.5,120.5
			L307.5,120.5z"/>
		<path id="path12" class="st0" d="M296.7,129.1h-0.1H296.7z"/>
		<path id="polygon14" class="st0" d="M307,126.3l-0.4-4.3l-1.1,2.3l-1.5-1l-1.2,2.1l-1.4-0.4l-1.3,1.9l0.1,0.6L307,126.3L307,126.3
			z"/>
		<path id="path16" class="st0" d="M294.3,127.1c-0.5-0.4-0.4-1.1,0-1.6c0.4-0.8,2.4-1.7,2.3-3c-0.1-0.4-0.1-1-0.5-1.4v0.4
			c0,0-0.1-0.2-0.3-0.5c-0.1-0.1-0.1-0.1-0.2-0.3c-0.1,0.1-0.1,0.4-0.1,0.4s-0.1-0.4-0.1-0.6c-0.1,0.1-0.1,0.4-0.1,0.4
			s-0.2-0.5-0.1-0.8c-0.1-0.2-0.4-0.7-0.3-1.8c0.4,0.3,1.4,0.2,1.8-0.4c0.1-0.2,0.2-0.7-0.1-1.7c-0.2-0.6-0.6-1.6-0.8-2
			c0.1,0.3,0.3,0.9,0.4,1.2c0.2,0.9,0.3,1.2,0.1,1.6c-0.1,0.4-0.3,0.6-0.9,0.9c-0.5,0.3-1.2-0.4-1.3-0.4c-0.5-0.4-0.9-1.1-0.9-1.4
			c-0.1-0.4,0.2-0.6,0.4-0.9c-0.2,0.1-0.4,0.1-0.4,0.1s0.2-0.3,0.6-0.5c0.1-0.1,0.2-0.1,0.4-0.2h-0.4c0,0,0.3-0.1,0.6-0.3h-0.5
			c0,0,0.7-0.3,1.3-0.6c0.4-0.1,0.7-0.1,1,0.2c0.3,0.4,0.6,0.6,1.1,0.7c0.4-0.1,0.5-0.3,0.9-0.4c0.4-0.4,0.7-0.5,0.7-0.5
			s-0.1,0.1-0.2,0.4c0.2-0.2,0.5-0.4,0.5-0.4s-0.1,0.1-0.2,0.3v0.1l0.6-0.3c0,0-0.1,0.1-0.2,0.3h0.8c1,0,1.1-1,1.5-1.1
			s0.6-0.3,1.4,0.5c0.6,0.6,1.2,1.8,0.9,2.1c-0.2,0.2-0.6-0.1-1.1-0.7c-0.3-0.3-0.4-0.7-0.5-1.1s-0.4-0.6-0.4-0.6s0.1,0.4,0.1,0.7
			c0,0.2,0,0.9,0.3,1.3c0,0.1-0.1,0.3-0.1,0.4c-0.4-0.4-1.1-0.7-1.2-0.8c0.4,0.4,1.3,1.1,1.7,1.8c0.4,0.7,0.1,1.3,0.3,1.5
			c0.1,0.1,0.7,0.9,0.9,1.3c0.2,0.7,0,1.5-0.3,2l-0.9,0.1c-0.1-0.1-0.2-0.1-0.3-0.1c0.1-0.1,0.2-0.4,0.2-0.4l-0.1-0.1
			c-0.3,0.4-0.7,0.7-1.1,0.9c-0.5,0.3-1,0.2-1.3,0.1c-1-0.3-1.9-1-2.2-1.1c0,0,0,0.1,0.1,0.2c0.3,0.3,0.9,0.8,1.4,1.1l-1.2,0.1
			l0.6,4.4c-0.3,0.1-0.3,0.1-0.6,0.1c-0.2-0.9-0.7-1.4-1.2-1.8c-0.4-0.3-1.1-0.4-1.6-0.2l-0.1,0.1c0.4-0.1,0.9,0,1.3,0.4
			c0.5,0.3,0.9,1.1,1,1.6c0,0.1,0.1,0.2,0.1,0.3l1.3-0.2l0.1,1.4l-0.6-5.6l1.1-0.1c0.2,0.1,0.3,0.1,0.5,0.1c0.4,0.1,0.7,0.1,1.3-0.1
			c0.1-0.1,0.4-0.4,0.5-0.5l4.5-0.8l-0.3,0.1l-0.9-9l-14,1.4l1.7,14.1l1.2-0.2c0.1,0.1,0.1,0.2,0.2,0.3
			C294.9,127.6,294.7,127.3,294.3,127.1L294.3,127.1z"/>
		<path id="path18" class="st0" d="M298.6,118.5c0.1,0.1,0.1,0.1,0.1,0.1c0.1-0.1,0.2-0.1,0.4-0.1c0.3-0.1,0.5-0.1,0.6-0.1
			c0.1-0.1,0.2-0.3,0.1-0.6c-0.1-0.4-0.4-0.4-0.1-0.6c0.1-0.1-0.6-0.3-1.1,0.1C298.2,117.5,298.2,118.1,298.6,118.5z"/>
		<path id="path20" class="st0" d="M302.1,116.8c0,0.1-0.1,0.1,0,0.3v0.1c0.1,0.2,0.2,0.4,0.4,0.5h0.1c0.2,0,0.3,0,0.4,0.1v-0.1
			c0-0.3,0.1-0.7-0.5-1c-0.2-0.1-0.5-0.1-0.6,0.1h0.1C302.2,116.6,302.1,116.7,302.1,116.8L302.1,116.8z"/>
		<path id="path22" class="st0" d="M295.7,128.8c0.3,0.2,0.6,0.3,0.8,0.4C296.3,129.1,296,129,295.7,128.8z"/>
		<path id="path24" class="st0" d="M302,120c0.4,0.3,0.7,0.5,1.1,0.4c0.2,0,0.4-0.4,0.6-0.7c0.1-0.2,0.1-0.4-0.1-0.5
			c-0.1-0.1-0.4,0-0.6,0c-0.4,0.1-0.9,0.2-1,0.3C301.8,119.7,301.9,120,302,120z"/>
	</g>
	<g id="g42">
		<path id="polygon28" class="st0" d="M321.1,125.5l3.3-8.2l1.6,3.8h-2.1l-0.6,1.6h3.3l1.3,2.8h2l-4.4-10.1h-2l-4.3,10.1
			L321.1,125.5L321.1,125.5z"/>
		<path id="path30" class="st0" d="M314.4,115.4H310v10.1h4.4c3.1,0,4.8-1.8,4.8-5.3C319.2,117,317.6,115.4,314.4,115.4z
			 M314.1,123.9h-2.2V117h2.2c2.1,0,3.1,1.1,3.1,3.1C317.3,122.7,316.3,123.9,314.1,123.9z"/>
		<path id="polygon32" class="st0" d="M328.8,117h2.9v8.4h1.8V117h2.9v-1.6h-7.7v1.6H328.8z"/>
		<path id="path34" class="st0" d="M374.8,117c1,0,2,0.2,2.8,0.6v-1.7c-0.9-0.4-1.8-0.5-3-0.5c-3.6,0-5.5,1.6-5.5,5
			c0,3.5,1.8,5.3,5.3,5.3c1.2,0,2.3-0.2,3.1-0.6v-5.3h-3.1l-0.6,1.6h1.8v2.3c-0.4,0.1-0.8,0.1-1.1,0.1c-2.3,0-3.4-1.2-3.4-3.6
			C371.2,118.1,372.4,117,374.8,117z"/>
		<path id="path36" class="st0" d="M362.9,115.3c-3.4,0-5.1,1.7-5.1,5.1c0.1,3.4,1.8,5.1,5.1,5.1c3.3,0,5-1.7,5-5.1
			C368,117,366.3,115.3,362.9,115.3z M362.9,124c-2.1,0-3.1-1.2-3.1-3.5s1.1-3.5,3.1-3.5s3.1,1.1,3.1,3.5
			C366,122.8,365,124,362.9,124z"/>
		<path id="polygon38" class="st0" d="M337.4,125.5l3.3-8.2l1.6,3.8h-2.1l-0.6,1.6h3.3l1.3,2.8h2l-4.4-10.1h-2l-4.3,10.1
			L337.4,125.5L337.4,125.5z"/>
		<path id="path40" class="st0" d="M351.8,115.4h-4.4v10.1h4.4c3.1,0,4.8-1.8,4.8-5.3C356.6,117,355,115.4,351.8,115.4z
			 M351.6,123.9h-2.2V117h2.2c2.1,0,3.1,1.1,3.1,3.1C354.7,122.7,353.7,123.9,351.6,123.9z"/>
	</g>
</g>
<g>
	<path class="st0" d="M71.5,38.8L68.7,33c-0.6-1.3-1.3-2.9-1.6-3.7L67,29.4c0.1,1.1,0.1,2.3,0.1,3.4l0.1,6h-2.1V26.4h2.3l3,6
		c0.5,1,0.9,2.1,1.3,3.2l0.1-0.1c-0.1-0.6-0.2-2.4-0.2-3.5v-5.6h2v12.4H71.5z M77.4,34.8v0.1c0,1.3,0.5,2.6,2.3,2.6
		c0.9,0,1.6-0.3,2.3-0.9l0.8,1.2c-0.9,0.8-2.1,1.2-3.3,1.2c-2.6,0-4.2-1.8-4.2-4.8c0-1.6,0.4-2.6,1.1-3.5s1.6-1.2,2.8-1.2
		c0.9,0,1.8,0.3,2.5,0.9c0.8,0.7,1.2,1.8,1.2,4v0.4H77.4L77.4,34.8z M79.1,31c-1.1,0-1.7,0.9-1.7,2.3h3.3C80.7,31.9,80.1,31,79.1,31
		z M93.3,38.8h-1.8l-1.1-4.2c-0.3-1.1-0.6-2.5-0.6-2.5h-0.1c0,0-0.1,0.9-0.6,2.6L88,38.8h-1.8l-2.5-8.9l2-0.3l1,4.4
		c0.3,1.1,0.5,2.4,0.5,2.4h0.1c0.1-0.9,0.3-1.6,0.5-2.4l1.1-4.2h1.9l1,4.1c0.4,1.5,0.6,2.6,0.6,2.6h0.1c0,0,0.2-1.3,0.4-2.4l0.9-4.3
		h2.1C95.9,29.8,93.3,38.8,93.3,38.8z M107.3,38.8l-1.1-1.9c-0.9-1.5-1.4-2.4-2.1-3.1c-0.2-0.2-0.5-0.4-0.8-0.4v5.3h-2.1V26.4h3.8
		c2.8,0,4,1.6,4,3.5c0,1.8-1.1,3.4-3.1,3.4c0.4,0.2,1.3,1.4,1.9,2.5l1.8,3H107.3z M104.5,28h-1.1v3.9h1.1c1.1,0,1.6-0.1,2.1-0.5
		c0.4-0.4,0.6-0.9,0.6-1.5C106.9,28.7,106.3,28,104.5,28L104.5,28z M112.5,34.8v0.1c0,1.3,0.5,2.6,2.3,2.6c0.9,0,1.6-0.3,2.3-0.9
		l0.8,1.2c-0.9,0.8-2.1,1.2-3.3,1.2c-2.6,0-4.2-1.8-4.2-4.8c0-1.6,0.4-2.6,1.1-3.5s1.6-1.2,2.8-1.2c0.9,0,1.8,0.3,2.5,0.9
		c0.8,0.7,1.2,1.8,1.2,4v0.4H112.5L112.5,34.8z M114.2,31c-1.1,0-1.7,0.9-1.7,2.3h3.3C115.8,31.9,115.2,31,114.2,31z M121.6,39
		c-2,0-2-1.8-2-2.6v-7.7c0-0.9,0-1.8-0.1-2.6l2.1-0.4c0.1,0.6,0.1,1.3,0.1,2.5v7.7c0,1.2,0.1,1.4,0.2,1.6c0.1,0.2,0.4,0.2,0.6,0.1
		l0.4,1.2C122.4,38.9,122,39,121.6,39L121.6,39z M125,28.4c-0.7,0-1.3-0.6-1.3-1.3s0.6-1.3,1.3-1.3s1.3,0.6,1.3,1.3
		S125.8,28.4,125,28.4L125,28.4z M124.1,38.8v-8.9l2-0.4v9.3H124.1z M131.7,39c-2.5,0-3.8-1.7-3.8-4.7c0-3.3,2-4.9,4-4.9
		c1,0,1.7,0.2,2.5,1l-1,1.3c-0.6-0.5-1-0.7-1.5-0.7c-0.6,0-1.2,0.4-1.4,0.9c-0.3,0.6-0.4,1.4-0.4,2.6c0,1.2,0.2,2.1,0.6,2.5
		c0.3,0.4,0.7,0.5,1.2,0.5c0.6,0,1.2-0.3,1.8-0.9l0.9,1.2C133.7,38.6,132.9,39,131.7,39L131.7,39z M136.3,39c-0.7,0-1.3-0.6-1.3-1.3
		s0.6-1.3,1.3-1.3s1.3,0.6,1.3,1.3C137.5,38.4,137,39,136.3,39z M136.3,36.6c-0.6,0-1.1,0.4-1.1,1s0.4,1.1,1,1.1
		c0.6,0,1.1-0.4,1.1-1v-0.1C137.3,37,136.8,36.6,136.3,36.6z M136.5,38.4c-0.1-0.1-0.1-0.1-0.1-0.2c-0.1-0.3-0.2-0.4-0.2-0.4h-0.1
		v0.6h-0.3V37h0.6c0.2,0,0.4,0.1,0.4,0.4v0.1c0,0.2-0.1,0.4-0.4,0.4l0.1,0.1c0.1,0.1,0.4,0.6,0.4,0.6L136.5,38.4L136.5,38.4z
		 M136.3,37.1H136v0.4h0.1c0.1,0,0.2,0,0.2-0.1c0.1-0.1,0.1-0.1,0.1-0.1C136.5,37.3,136.4,37.2,136.3,37.1L136.3,37.1z"/>
	<path class="st1" d="M58.3,31.2c-1.1-4.8-6.9-7.7-12.9-6.3c-6.1,1.3-10.2,6.3-9.2,11.1s6.9,7.7,12.9,6.3C55.2,41,59.4,36,58.3,31.2
		z M47.2,38c-2.5,0-4.5-2-4.5-4.5s2-4.5,4.5-4.5s4.5,2,4.5,4.5S49.7,38,47.2,38z"/>
	<path class="st1" d="M48.2,27.3c-3.5,0-6.4,2.8-6.4,6.4c0,3.6,2.8,6.4,6.4,6.4c3.6,0,6.4-2.8,6.4-6.4
		C54.6,30.2,51.8,27.3,48.2,27.3z"/>
</g>
<path class="st0" d="M71.2,71.2h6.2l-3.3-5.3l-6,9.5h-2.7L72.7,64c0.3-0.5,0.9-0.7,1.4-0.7c0.6,0,1.1,0.3,1.4,0.7l7.3,11.4h-2.7
	l-1.3-2.1h-6.2C72.7,73.3,71.2,71.2,71.2,71.2z M99.6,73.3v-9.9h-2.3v10.9c0,0.3,0.1,0.6,0.4,0.8s0.5,0.4,0.9,0.4h10.6l1.3-2.1H99.6
	V73.3z M61.2,71.5c2.3,0,4-1.8,4-4c0-2.3-1.8-4-4-4H51.1v12.1h2.3v-9.9h7.7c1.1,0,1.9,0.9,1.9,2s-0.9,2-1.9,2h-6.5l7,6h3.3l-4.7-3.9
	L61.2,71.5L61.2,71.5z M36.8,75.4c-3.3,0-6-2.7-6-6s2.7-6,6-6h7c3.3,0,6,2.7,6,6s-2.7,6-6,6H36.8z M43.7,73.3c2.1,0,3.9-1.8,3.9-3.9
	s-1.8-3.9-3.9-3.9H37c-2.1,0-3.9,1.8-3.9,3.9s1.8,3.9,3.9,3.9H43.7z M87.7,75.4c-3.3,0-6-2.7-6-6s2.7-6,6-6H96l-1.3,2.1h-6.8
	c-2.1,0-3.9,1.8-3.9,3.9s1.8,3.9,3.9,3.9h8.4L95,75.4H87.7z M116.1,73.3c-1.8,0-3.3-1.2-3.8-2.8h9.9l1.3-2.1h-11.2
	c0.5-1.6,2-2.8,3.8-2.8h6.8l1.3-2.1H116c-3.3,0-6,2.7-6,6s2.7,6,6,6h7.2l1.3-2.1L116.1,73.3L116.1,73.3z"/>
<g>
	<path class="st2" d="M158.1,130c-0.3,7.8-6.5,13.9-14.1,13.9c-8.1,0-14.1-6.6-14.1-14.5c0-8,6.5-14.5,14.5-14.5
		c3.6,0,7.1,1.5,10.1,4.3l-2.3,2.9c-2.3-2-5-3.3-7.7-3.3c-5.8,0-10.6,4.8-10.6,10.7c0,6,4.5,10.6,10.3,10.6c5.2,0,9.2-3.8,10-8.6
		h-11.7V128h15.8V130z"/>
	<path class="st2" d="M171.6,128.1h-2.2c-2.4,0-4.3,1.9-4.3,4.3v11.3h-3.9v-19.3h3.2v1.6c1-1,2.7-1.6,4.5-1.6h4.2L171.6,128.1z"/>
	<path class="st2" d="M192.6,143.7h-3.3v-2.4c-2.5,2.5-6.5,3.7-10.6,1.9c-3-1.3-5.2-4.1-5.8-7.3c-1.1-6.2,3.6-11.8,9.8-11.8
		c2.6,0,4.9,1,6.6,2.7v-2.4h3.3V143.7z M188.6,135.4c0.9-3.9-2.1-7.5-5.9-7.5c-3.4,0-6.1,2.7-6.1,6.1c0,3.8,3.3,6.7,7.1,6
		C186.1,139.6,188.1,137.8,188.6,135.4z"/>
	<path class="st2" d="M200.3,123.3v1.1h6.1v3.4h-6.1v15.9h-3.8v-20.2c0-4.2,3-6.7,6.9-6.7h4.6l-1.5,3.6h-3.1
		C201.7,120.3,200.3,121.7,200.3,123.3z"/>
	<path class="st2" d="M226.9,143.7h-3.3v-2.4c-2.5,2.5-6.5,3.7-10.6,1.9c-3-1.3-5.2-4.1-5.8-7.3c-1.1-6.2,3.6-11.8,9.8-11.8
		c2.6,0,4.9,1,6.6,2.7v-2.4h3.3V143.7z M223,135.4c0.9-3.9-2.1-7.5-5.9-7.5c-3.4,0-6.1,2.7-6.1,6.1c0,3.8,3.3,6.7,7.1,6
		C220.5,139.6,222.4,137.8,223,135.4z"/>
	<path class="st2" d="M247.5,132.3v11.4h-3.9v-11.4c0-2.4-2-4.3-4.3-4.3c-2.4,0-4.4,1.9-4.4,4.3v11.4h-3.9v-19.3h3.2v1.7
		c1.4-1.2,3.2-2,5.2-2C243.9,124.1,247.5,127.7,247.5,132.3z"/>
	<path class="st2" d="M270.2,143.7h-3.3v-2.4c-2.5,2.5-6.5,3.7-10.6,1.9c-3-1.3-5.2-4.1-5.8-7.3c-1.1-6.2,3.6-11.8,9.8-11.8
		c2.6,0,4.9,1,6.6,2.7v-2.4h3.3V143.7z M266.2,135.4c0.9-3.9-2.1-7.5-5.9-7.5c-3.4,0-6.1,2.7-6.1,6.1c0,3.8,3.3,6.7,7.1,6
		C263.7,139.6,265.7,137.8,266.2,135.4z"/>
</g>
<g>
	<path class="st2" d="M155.1,157.7c0.3,2,1.9,3.4,3.8,3.4c1.5,0,2.7-0.8,3.4-1.6l0.9,1.1c-1.2,1.4-2.8,2-4.3,2
		c-3.2,0-5.3-2.6-5.3-5.6c0-3,2.3-5.2,5.2-5.2c3,0,5.3,2.4,5.3,5.8H155.1z M162.5,156.5c-0.3-1.8-1.9-3.2-3.7-3.2
		c-1.7,0-3.4,1.2-3.7,3.2H162.5z"/>
	<path class="st2" d="M174.9,156.2v6.2h-1.5v-6.2c0-1.6-1.3-2.9-2.9-2.9c-1.6,0-2.9,1.3-2.9,2.9v6.2h-1.5V152h1.3v1.1
		c0.8-0.8,1.9-1.3,3.1-1.3C173,151.8,174.9,153.8,174.9,156.2z"/>
	<path class="st2" d="M177.5,159v-10.3h1.5v3.3h3.6v1.3h-3.6v5.7c0,1.1,0.9,1.9,1.9,1.9h1.7v1.5h-1.7
		C178.9,162.4,177.5,161,177.5,159z"/>
	<path class="st2" d="M185.2,157.7c0.3,2,1.9,3.4,3.8,3.4c1.5,0,2.7-0.8,3.4-1.6l0.9,1.1c-1.2,1.4-2.8,2-4.3,2
		c-3.2,0-5.3-2.6-5.3-5.6c0-3,2.3-5.2,5.2-5.2c3,0,5.3,2.4,5.3,5.8H185.2z M192.5,156.5c-0.3-1.8-1.9-3.2-3.7-3.2
		c-1.7,0-3.4,1.2-3.7,3.2H192.5z"/>
	<path class="st2" d="M201.7,153.4h-1.1c-1.6,0-2.9,1-2.9,2.6v6.4h-1.5V152h1.3v1.1c0.5-0.6,1.6-1.1,2.7-1.1h1.4V153.4z"/>
	<path class="st2" d="M205,160.9v5.7h-1.4V152h1.3v1.7c1-1.1,2.5-1.9,4.1-1.9c3,0,5.4,2.4,5.4,5.4c0,3-2.4,5.4-5.4,5.4
		C207.3,162.6,205.9,161.9,205,160.9z M205,157.2c0,2.2,1.8,3.9,3.9,3.9c2.2,0,3.9-1.7,3.9-3.9s-1.7-3.9-3.9-3.9
		C206.7,153.3,205,155,205,157.2z"/>
	<path class="st2" d="M221.9,153.4h-1.1c-1.6,0-2.9,1-2.9,2.6v6.4h-1.5V152h1.3v1.1c0.5-0.6,1.6-1.1,2.7-1.1h1.4V153.4z"/>
	<path class="st2" d="M225.5,150c0,0.6-0.4,1-1,1c-0.5,0-1-0.4-1-1c0-0.5,0.5-1,1-1C225.1,149.1,225.5,149.5,225.5,150z
		 M225.3,162.4h-1.5V152h1.5V162.4z"/>
	<path class="st2" d="M233.9,152.7l-0.7,1.1c-0.3-0.2-1.1-0.7-2.2-0.7c-1.1,0-2,0.5-2,1.4c0,0.9,1.1,1.3,2.1,1.6
		c1.7,0.6,3.2,1.7,3.2,3.4c0,1.7-1.5,3-3.4,3c-1.1,0-2.4-0.4-3.3-1l0.6-1.3c0.7,0.4,1.7,0.8,2.6,0.8c1.4,0,2-0.9,2-1.7
		c0-0.9-0.8-1.4-2.4-2c-1.2-0.5-2.7-1.1-2.7-2.8c0-1.6,1.4-2.8,3.4-2.8C232.2,151.8,233.2,152.3,233.9,152.7z"/>
	<path class="st2" d="M237.5,157.7c0.3,2,1.9,3.4,3.8,3.4c1.5,0,2.7-0.8,3.4-1.6l0.9,1.1c-1.2,1.4-2.8,2-4.3,2
		c-3.2,0-5.3-2.6-5.3-5.6c0-3,2.3-5.2,5.2-5.2c3,0,5.3,2.4,5.3,5.8H237.5z M244.8,156.5c-0.3-1.8-1.9-3.2-3.7-3.2
		c-1.7,0-3.4,1.2-3.7,3.2H244.8z"/>
</g>
<linearGradient id="SVGID_1_" gradientUnits="userSpaceOnUse" x1="200" y1="136.5423" x2="200" y2="35.1615">
	<stop  offset="0" style="stop-color:#FFF100"/>
	<stop  offset="1" style="stop-color:#F05A28"/>
</linearGradient>
<path class="st3" d="M250.9,49.6c-0.2-1.9-0.5-4-1.1-6.4c-0.6-2.4-1.5-5-2.9-7.6c-1.3-2.7-3.1-5.5-5.4-8.2c-0.9-1.1-1.9-2.1-2.9-3.1
	c1.6-6.2-1.9-11.6-1.9-11.6c-6-0.4-9.8,1.9-11.2,2.9c-0.2-0.1-0.5-0.2-0.7-0.3c-1-0.4-2.1-0.8-3.1-1.1c-1.1-0.3-2.2-0.7-3.3-0.9
	c-1.1-0.3-2.3-0.5-3.4-0.7c-0.2,0-0.4-0.1-0.6-0.1c-2.6-8.3-10.1-11.8-10.1-11.8c-8.3,5.3-9.9,12.7-9.9,12.7s0,0.2-0.1,0.4
	c-0.5,0.1-0.9,0.3-1.4,0.4c-0.6,0.2-1.3,0.4-1.9,0.7c-0.6,0.2-1.3,0.5-1.9,0.8c-1.3,0.5-2.5,1.1-3.7,1.8c-1.2,0.7-2.3,1.4-3.5,2.2
	c-0.2-0.1-0.3-0.1-0.3-0.1c-11.5-4.4-21.8,0.9-21.8,0.9c-0.9,12.3,4.6,20,5.7,21.4c-0.3,0.8-0.5,1.5-0.8,2.3
	c-0.9,2.8-1.5,5.6-1.9,8.6c-0.1,0.4-0.1,0.9-0.2,1.3C152.1,59.2,148.9,70,148.9,70c8.9,10.2,19.3,10.9,19.3,10.9c0,0,0,0,0,0
	c1.3,2.4,2.8,4.6,4.6,6.7c0.7,0.9,1.5,1.7,2.3,2.5c-3.2,9.3,0.5,17,0.5,17c9.9,0.4,16.4-4.3,17.8-5.4c1,0.3,2,0.6,3,0.9
	c3,0.8,6.2,1.2,9.3,1.4c0.8,0,1.6,0,2.3,0l0.4,0l0.2,0l0.5,0l0.5,0l0,0c4.7,6.7,12.9,7.6,12.9,7.6c5.8-6.2,6.2-12.3,6.2-13.6l0,0
	c0,0,0,0,0-0.1c0-0.1,0-0.2,0-0.2l0,0c0-0.1,0-0.2,0-0.3c1.2-0.9,2.4-1.8,3.5-2.8c2.3-2.1,4.4-4.5,6.1-7.1c0.2-0.2,0.3-0.5,0.5-0.7
	c6.6,0.4,11.3-4.1,11.3-4.1c-1.1-6.9-5-10.3-5.8-10.9l0,0c0,0,0,0-0.1-0.1c0,0-0.1-0.1-0.1-0.1c0,0,0,0,0,0c0,0-0.1-0.1-0.1-0.1
	c0-0.4,0.1-0.8,0.1-1.2c0.1-0.7,0.1-1.5,0.1-2.2l0-0.6l0-0.3l0-0.1c0-0.2,0-0.1,0-0.2l0-0.5l0-0.6c0-0.2,0-0.4,0-0.6
	c0-0.2,0-0.4-0.1-0.6l-0.1-0.6l-0.1-0.6c-0.1-0.8-0.3-1.5-0.4-2.3c-0.7-3-1.9-5.8-3.4-8.3c-1.5-2.5-3.4-4.8-5.6-6.7
	c-2.1-1.9-4.6-3.4-7.1-4.5c-2.5-1.1-5.2-1.9-7.8-2.2c-1.3-0.2-2.6-0.2-3.9-0.2l-0.5,0l-0.1,0c0,0-0.2,0-0.2,0l-0.2,0l-0.5,0
	c-0.2,0-0.4,0-0.5,0c-0.7,0.1-1.3,0.2-2,0.3c-2.6,0.5-5.1,1.4-7.3,2.7c-2.2,1.3-4.1,2.9-5.6,4.8c-1.5,1.8-2.7,3.9-3.6,6
	c-0.8,2.1-1.3,4.3-1.4,6.4c0,0.5,0,1.1,0,1.6c0,0.1,0,0.3,0,0.4l0,0.4c0,0.3,0,0.5,0.1,0.8c0.1,1.1,0.3,2.1,0.6,3.1
	c0.6,2,1.5,3.8,2.6,5.3c1.1,1.5,2.5,2.8,3.9,3.8c1.4,1,3,1.7,4.5,2.1c1.5,0.5,3.1,0.6,4.5,0.6c0.2,0,0.4,0,0.5,0c0.1,0,0.2,0,0.3,0
	c0.1,0,0.2,0,0.3,0c0.2,0,0.3,0,0.5,0c0,0,0.1,0,0.1,0l0.1,0c0.1,0,0.2,0,0.3,0c0.2,0,0.4-0.1,0.5-0.1c0.2,0,0.3-0.1,0.5-0.1
	c0.3-0.1,0.6-0.2,1-0.3c0.6-0.2,1.2-0.5,1.8-0.7c0.5-0.3,1-0.6,1.5-0.9c0.1-0.1,0.3-0.2,0.4-0.3c0.5-0.4,0.6-1.1,0.2-1.6
	c-0.3-0.4-1-0.5-1.4-0.3c-0.1,0.1-0.2,0.1-0.4,0.2c-0.4,0.2-0.9,0.4-1.3,0.5c-0.5,0.1-0.9,0.3-1.4,0.4c-0.3,0-0.5,0.1-0.8,0.1
	c-0.1,0-0.3,0-0.4,0c-0.1,0-0.3,0-0.4,0c-0.1,0-0.2,0-0.4,0c-0.2,0-0.3,0-0.5,0c0,0-0.1,0,0,0l-0.1,0l-0.1,0c-0.1,0-0.1,0-0.2,0
	c-0.1,0-0.3,0-0.4-0.1c-1.1-0.2-2.3-0.5-3.3-1c-1.1-0.5-2.1-1.2-3.1-2c-0.9-0.8-1.8-1.9-2.4-3c-0.6-1.2-1.1-2.4-1.3-3.8
	c-0.1-0.7-0.2-1.4-0.1-2.1c0-0.2,0-0.4,0-0.6c0,0.1,0,0,0,0l0-0.1l0-0.1c0-0.1,0-0.2,0-0.3c0-0.4,0.1-0.7,0.2-1.1
	c0.5-2.9,2-5.8,4.3-8c0.6-0.5,1.2-1,1.8-1.5c0.7-0.4,1.3-0.8,2.1-1.2c0.7-0.3,1.5-0.6,2.3-0.8c0.8-0.2,1.6-0.3,2.4-0.4
	c0.4,0,0.8-0.1,1.2,0c0.1,0,0.2,0,0.3,0l0.3,0l0.2,0c0.1,0,0,0,0,0l0.1,0l0.3,0c0.9,0.1,1.7,0.2,2.6,0.4c1.7,0.4,3.4,1,5,1.9
	c3.1,1.7,5.8,4.4,7.4,7.7c0.8,1.6,1.4,3.4,1.7,5.2c0.1,0.5,0.1,0.9,0.2,1.4l0,0.3l0,0.3c0,0.1,0,0.2,0,0.3c0,0.1,0,0.2,0,0.3l0,0.3
	l0,0.3c0,0.2,0,0.6,0,0.8c0,0.5-0.1,1-0.1,1.5c-0.1,0.5-0.1,1-0.2,1.5c-0.1,0.5-0.2,1-0.3,1.4c-0.2,1-0.5,1.9-0.9,2.8
	c-0.7,1.9-1.7,3.6-2.9,5.2c-2.4,3.2-5.6,5.9-9.2,7.5c-1.8,0.8-3.8,1.4-5.7,1.8c-1,0.2-2,0.3-3,0.3l-0.2,0l-0.2,0l-0.3,0l-0.5,0
	l-0.2,0c0.1,0,0,0,0,0l-0.1,0c-0.5,0-1.1,0-1.6-0.1c-2.1-0.2-4.3-0.5-6.3-1.1c-2.1-0.6-4.1-1.4-5.9-2.4c-3.8-2-7.1-4.8-9.8-8.1
	c-1.3-1.7-2.5-3.4-3.4-5.3c-1-1.9-1.7-3.8-2.3-5.9c-0.6-2-0.9-4.1-1-6.1l0-0.4l0-0.1l0-0.1l0-0.2l0-0.3l0-0.1l0-0.1l0-0.2l0-0.5
	l0-0.1c0,0,0,0,0,0l0-0.2c0-0.2,0-0.5,0-0.8c0-1,0.1-2.1,0.3-3.1c0.1-1.1,0.3-2.1,0.5-3.2c0.2-1,0.5-2.1,0.8-3.1
	c0.6-2,1.3-4,2.2-5.9c1.7-3.7,4-7.1,6.7-9.7c0.7-0.7,1.4-1.3,2.1-1.9c0.7-0.6,1.5-1.1,2.3-1.6c0.8-0.5,1.6-1,2.4-1.4
	c0.4-0.2,0.8-0.4,1.3-0.6c0.2-0.1,0.4-0.2,0.6-0.3c0.2-0.1,0.4-0.2,0.6-0.3c0.9-0.4,1.8-0.7,2.6-1c0.2-0.1,0.5-0.1,0.7-0.2
	c0.2-0.1,0.5-0.1,0.7-0.2c0.5-0.1,0.9-0.2,1.4-0.3c0.2-0.1,0.5-0.1,0.7-0.2c0.2,0,0.5-0.1,0.7-0.1c0.2,0,0.5-0.1,0.7-0.1l0.3-0.1
	l0.4-0.1c0.2,0,0.5-0.1,0.7-0.1c0.3,0,0.5-0.1,0.8-0.1c0.2,0,0.6-0.1,0.8-0.1c0.2,0,0.3,0,0.5-0.1l0.3,0l0.2,0l0.2,0
	c0.3,0,0.5,0,0.8-0.1l0.4,0c0,0,0.1,0,0,0l0.1,0l0.2,0c0.2,0,0.5,0,0.7,0c0.9,0,1.8,0,2.7,0c1.8,0.1,3.5,0.3,5.2,0.6
	c3.4,0.6,6.6,1.7,9.5,3.1c2.9,1.4,5.5,3.2,7.7,5c0.1,0.1,0.3,0.2,0.4,0.4c0.1,0.1,0.3,0.2,0.4,0.4c0.3,0.2,0.5,0.5,0.8,0.7
	c0.3,0.2,0.5,0.5,0.8,0.7c0.2,0.3,0.5,0.5,0.7,0.8c1,1,1.8,2,2.6,3.1c1.6,2.1,2.9,4.1,3.9,6.1c0.1,0.1,0.1,0.2,0.2,0.4
	c0.1,0.1,0.1,0.2,0.2,0.4c0.1,0.2,0.2,0.5,0.3,0.7c0.1,0.2,0.2,0.5,0.3,0.7c0.1,0.2,0.2,0.5,0.3,0.7c0.4,0.9,0.7,1.8,1,2.6
	c0.5,1.3,0.8,2.5,1.1,3.6c0.1,0.4,0.5,0.7,0.9,0.7c0.4,0,0.8-0.4,0.8-0.9C251.1,52.4,251.1,51.1,250.9,49.6z"/>
<g>
	<path class="st0" d="M337,30.4h-2.3c-0.6,0-1.1,0.1-1.4,0.4c-0.3,0.3-0.4,0.7-0.4,1.3V40h-1.4v-8c0-0.6,0.1-1.3,0.4-1.8
		c0.6-0.9,1.7-1.1,2.5-1.1h2.5V30.4z"/>
	<path class="st0" d="M328.2,38.8c-0.6,0-1.1-0.1-1.4-0.4c-0.3-0.3-0.4-0.7-0.4-1.3v-6.7h2.9v-1.2h-2.9v-3.2h-1.4v11.2
		c0,0.6,0.1,1.3,0.4,1.8c0.6,0.9,1.7,1.1,2.5,1.1h2.5v-1.2L328.2,38.8L328.2,38.8z"/>
	<path class="st0" d="M292.6,25.9v3.2h-2.9c-1.7,0-2.8,0.5-3.4,1.1c-1,1-1,2.4-1,2.5c0,0.2,0,3.3,0,3.5c0,0.2,0,1.5,1,2.5
		c0.6,0.6,1.7,1.1,3.4,1.1h1.3c0.8,0,1.9-0.2,2.5-1.1c0.3-0.5,0.4-1.2,0.4-1.8V25.9L292.6,25.9L292.6,25.9z M292.1,38.4
		c-0.3,0.3-0.7,0.4-1.4,0.4h-1.2c-1.1,0-1.8-0.3-2.3-0.8c-0.5-0.5-0.7-1.1-0.7-1.7v-3.6c0-0.5,0.2-1.2,0.7-1.7
		c0.4-0.4,1.1-0.8,2.3-0.8h3V37C292.6,37.7,292.4,38.1,292.1,38.4z"/>
	<path class="st0" d="M349.4,31.1c0.4-0.4,1.1-0.8,2.3-0.8h3.3v-1.2h-3.1c-1.7,0-2.8,0.5-3.4,1.1c-1,1-1,2.4-1,2.5
		c0,0.1,0,3.4,0,3.5c0,0.2,0,1.5,1,2.5c0.6,0.6,1.7,1.1,3.4,1.1h3.1v-1.2h-3.3c-1.1,0-1.8-0.3-2.3-0.8c-0.5-0.5-0.7-1.1-0.7-1.7
		v-3.6C348.7,32.3,348.9,31.6,349.4,31.1z"/>
	<path class="st0" d="M323.7,32.8c0-0.2,0-1.5-1-2.5c-0.6-0.6-1.7-1.1-3.4-1.1h-3v1.2h3.2c1.1,0,1.8,0.3,2.3,0.8
		c0.5,0.5,0.7,1.1,0.7,1.7v1H318c-0.8,0-1.9,0.2-2.5,1.1c-0.3,0.5-0.4,1.2-0.4,1.8v0.4c0,0.6,0.1,1.3,0.4,1.8
		c0.6,0.9,1.7,1.1,2.5,1.1h2.8c0.8,0,1.9-0.2,2.5-1.1c0.3-0.5,0.4-1.2,0.4-1.8C323.7,37.1,323.7,33.5,323.7,32.8z M321.9,38.4
		c-0.3,0.3-0.7,0.4-1.4,0.4h-2.4c-0.6,0-1.1-0.1-1.4-0.4c-0.3-0.3-0.4-0.7-0.4-1.3v-0.3c0-0.6,0.1-1.1,0.4-1.3
		c0.3-0.3,0.7-0.4,1.4-0.4h4.2v2C322.3,37.7,322.2,38.1,321.9,38.4z"/>
	<path class="st0" d="M346.2,32.8c0-0.2,0-1.5-1-2.5c-0.6-0.6-1.7-1.1-3.4-1.1h-3v1.2h3.2c1.1,0,1.8,0.3,2.3,0.8
		c0.5,0.5,0.7,1.1,0.7,1.7v1h-4.3c-0.8,0-1.9,0.2-2.5,1.1c-0.3,0.5-0.4,1.2-0.4,1.8v0.4c0,0.6,0.1,1.3,0.4,1.8
		c0.6,0.9,1.7,1.1,2.5,1.1h2.8c0.8,0,1.9-0.2,2.5-1.1c0.3-0.5,0.4-1.2,0.4-1.8C346.2,37.1,346.2,33.5,346.2,32.8z M344.5,38.4
		c-0.3,0.3-0.7,0.4-1.4,0.4h-2.4c-0.6,0-1.1-0.1-1.4-0.4c-0.3-0.3-0.4-0.7-0.4-1.3v-0.3c0-0.6,0.1-1.1,0.4-1.3
		c0.3-0.3,0.7-0.4,1.4-0.4h4.2v2C344.9,37.7,344.7,38.1,344.5,38.4z"/>
	<polygon class="st0" points="304.7,29.2 303.3,29.2 299.9,38.1 296.4,29.2 295,29.2 299.2,40 297.9,43.2 299.3,43.2 	"/>
	<path class="st0" d="M313.9,32.8c0-0.2,0-1.5-1-2.5c-0.6-0.6-1.6-1.1-3.3-1.1h-0.2c-1.6,0-2.6,0.5-3.3,1.1c-1,1-1,2.4-1,2.5
		c0,0.2,0,6.6,0,7.2h1.4v-7.2c0-0.5,0.2-1.2,0.7-1.7c0.4-0.4,1.2-0.7,2.3-0.7c1.1,0,1.9,0.3,2.3,0.7c0.5,0.5,0.7,1.1,0.7,1.7V40h1.4
		C313.9,39.4,313.9,33,313.9,32.8z"/>
	<path class="st0" d="M363.3,30.3c-0.6-0.6-1.6-1.1-3.3-1.1h-0.2c-1.6,0-2.6,0.5-3.3,1.1c-1,1-1,2.4-1,2.5v3.5c0,0.2,0,1.5,1,2.5
		c0.6,0.6,1.6,1.1,3.3,1.1h3.2v-1.2H360c-1.1,0-1.9-0.3-2.3-0.7c-0.5-0.5-0.7-1.1-0.7-1.7v-1.3h7.3v-2.3
		C364.3,32.7,364.3,31.3,363.3,30.3z M357,33.8v-1.1c0-0.5,0.2-1.2,0.7-1.7c0.4-0.4,1.2-0.7,2.3-0.7c1.1,0,1.9,0.3,2.3,0.7
		c0.5,0.5,0.7,1.1,0.7,1.7v1.1H357z"/>
	<path class="st0" d="M271.5,27.2c-0.2,1.2-0.5,3-0.7,4.8c-0.3,3.2-0.1,5.3-0.1,5.3l-4.5,4.2c0,0-0.3-2.4-0.5-5.1
		c-0.1-1.7-0.1-3.1-0.1-4c0,0,0-0.1,0-0.1c0-0.1,0.1-0.7,0.7-1.2C266.9,30.4,271.6,26.8,271.5,27.2z"/>
	<path class="st0" d="M271.5,27.2c-0.2,1.2-0.5,3-0.7,4.8c0,0-4.9-0.6-5.2,0.6c0-0.1,0.1-0.8,0.7-1.3
		C266.9,30.6,271.6,26.8,271.5,27.2z"/>
	<path class="st0" d="M265.6,32.2c0,0.1,0,0.2,0,0.3c0-0.2,0.1-0.4,0.3-0.6c0.4-0.5,1-0.6,1.2-0.6c1.2-0.2,3-0.4,4.8-0.4
		c3.2-0.1,5.3,0.2,5.3,0.2l4.5-4.2c0,0-2.3-0.4-5-0.8c-1.7-0.2-3.3-0.3-4.1-0.4c-0.1,0-0.7-0.1-1.3,0.5c-0.6,0.6-3.8,3.6-5.1,4.9
		C265.5,31.6,265.6,32.2,265.6,32.2z"/>
	<path class="st0" d="M281.5,37.7c-1.2,0.2-3,0.4-4.8,0.4c-3.2,0.1-5.3-0.2-5.3-0.2l-4.5,4.2c0,0,2.4,0.5,5,0.8
		c1.6,0.2,3.1,0.3,4,0.3c0.1,0,0.2,0,0.2,0c0.1,0,0.7-0.1,1.3-0.7C278.1,42,281.9,37.6,281.5,37.7z"/>
	<path class="st0" d="M281.5,37.7c-1.2,0.2-3,0.4-4.8,0.4c0,0,0.3,5-0.9,5.2c0.1,0,0.9,0,1.5-0.6C277.9,42.1,281.9,37.6,281.5,37.7z
		"/>
	<path class="st0" d="M276.1,43.3c-0.1,0-0.2,0-0.3,0c0.2,0,0.4-0.1,0.6-0.3c0.5-0.3,0.6-0.9,0.7-1.2c0.2-1.2,0.5-3,0.6-4.8
		c0.3-3.2,0.1-5.3,0.1-5.3l4.5-4.2c0,0,0.3,2.4,0.5,5c0.1,1.8,0.1,3.3,0.2,4.2c0,0.1,0,0.7-0.5,1.2c-0.6,0.6-3.8,3.7-5.1,4.9
		C276.8,43.4,276.2,43.3,276.1,43.3z"/>
</g>
</svg>
