<svg width="32" height="32" viewBox="0 0 32 32" fill="none" xmlns="http://www.w3.org/2000/svg">
<path d="M17.25 19.125H29.125C29.8154 19.125 30.375 18.5654 30.375 17.875V2.875C30.375 2.18464 29.8154 1.625 29.125 1.625H14.125" stroke="#EF5B3E" stroke-width="1.5" stroke-linecap="round" stroke-linejoin="round"/>
<path d="M7.875 14.75V18.5" stroke="#EF5B3E" stroke-width="1.5" stroke-linecap="round" stroke-linejoin="round"/>
<path fill-rule="evenodd" clip-rule="evenodd" d="M10.375 30.375L11 22.875H14.125V18.5C14.125 15.0482 11.3268 12.25 7.875 12.25C4.42322 12.25 1.625 15.0482 1.625 18.5V22.875H4.75L5.375 30.375H10.375Z" stroke="#EF5B3E" stroke-width="1.5" stroke-linecap="round" stroke-linejoin="round"/>
<path fill-rule="evenodd" clip-rule="evenodd" d="M9.33393 6.00011C10.3161 6.00092 11.2882 5.80233 12.1914 5.41636C11.9537 3.56787 10.5643 2.07651 8.73724 1.70878C6.91018 1.34104 5.05197 2.17876 4.11768 3.79136C5.4857 5.20343 7.36786 6.0004 9.33393 6.00011V6.00011Z" stroke="#EF5B3E" stroke-width="1.5" stroke-linecap="round" stroke-linejoin="round"/>
<path fill-rule="evenodd" clip-rule="evenodd" d="M7.875 10.375C10.2912 10.375 12.25 8.41625 12.25 6C12.25 3.58375 10.2912 1.625 7.875 1.625C5.45875 1.625 3.5 3.58375 3.5 6C3.5 8.41625 5.45875 10.375 7.875 10.375Z" stroke="#EF5B3E" stroke-width="1.5" stroke-linecap="round" stroke-linejoin="round"/>
<path d="M16.625 6.625L19.75 9.75L16.625 12.875" stroke="#EF5B3E" stroke-width="1.5" stroke-linecap="round" stroke-linejoin="round"/>
<path d="M22.875 10.375H27.875" stroke="#EF5B3E" stroke-width="1.5" stroke-linecap="round" stroke-linejoin="round"/>
</svg>
