<svg width="25" height="25" viewBox="0 0 25 25" fill="none" xmlns="http://www.w3.org/2000/svg">
<path d="M22.88 15.067L15.25 22.697L11.5 23.447L12.25 19.697L19.88 12.067C20.0771 11.8702 20.311 11.7142 20.5683 11.6078C20.8257 11.5014 21.1015 11.4468 21.38 11.447C21.6571 11.4459 21.9317 11.5002 22.1876 11.6066C22.4435 11.7131 22.6755 11.8696 22.87 12.067V12.067C23.0678 12.2633 23.225 12.4966 23.3326 12.7536C23.4401 13.0106 23.496 13.2863 23.4969 13.565C23.4978 13.8436 23.4438 14.1197 23.338 14.3774C23.2321 14.6351 23.0765 14.8695 22.88 15.067V15.067Z" stroke="#EF5B3E" stroke-width="1.5" stroke-linecap="round" stroke-linejoin="round"/>
<path d="M8.5 20.447H2.5C2.10218 20.447 1.72064 20.289 1.43933 20.0077C1.15803 19.7264 1 19.3448 1 18.947V2.44702C1 2.0492 1.15803 1.66766 1.43933 1.38636C1.72064 1.10506 2.10218 0.947021 2.5 0.947021H17.5C17.8978 0.947021 18.2794 1.10506 18.5607 1.38636C18.842 1.66766 19 2.0492 19 2.44702V9.19702" stroke="#EF5B3E" stroke-width="1.5" stroke-linecap="round" stroke-linejoin="round"/>
<path d="M5.5 5.94702H14.5" stroke="#EF5B3E" stroke-width="1.5" stroke-linecap="round" stroke-linejoin="round"/>
<path d="M5.5 11.447H13" stroke="#EF5B3E" stroke-width="1.5" stroke-linecap="round" stroke-linejoin="round"/>
</svg>
