<svg width="23" height="22" viewBox="0 0 23 22" fill="none" xmlns="http://www.w3.org/2000/svg">
<path d="M1.01001 2.44702C1.01001 2.0492 1.16804 1.66766 1.44934 1.38635C1.73065 1.10505 2.11219 0.947021 2.51001 0.947021H20.51C20.9078 0.947021 21.2894 1.10505 21.5707 1.38635C21.852 1.66766 22.01 2.0492 22.01 2.44702V18.947C22.01 19.3448 21.852 19.7264 21.5707 20.0077C21.2894 20.289 20.9078 20.447 20.51 20.447H2.5C2.10218 20.447 1.72064 20.289 1.43933 20.0077C1.15803 19.7264 1 19.3448 1 18.947L1.01001 2.44702Z" stroke="#ECA313" stroke-width="1.5" stroke-linecap="round" stroke-linejoin="round"/>
<path d="M17.5 7.59717H10" stroke="#ECA313" stroke-width="1.5" stroke-linecap="round" stroke-linejoin="round"/>
<path d="M17.5 13.5972H10" stroke="#ECA313" stroke-width="1.5" stroke-linecap="round" stroke-linejoin="round"/>
<path d="M6.25995 13.2272C6.31432 13.2182 6.37 13.2213 6.4231 13.2361C6.47619 13.2508 6.52539 13.2768 6.56738 13.3125C6.60938 13.3482 6.64312 13.3926 6.66626 13.4426C6.68939 13.4926 6.70135 13.5471 6.70135 13.6022C6.70135 13.6573 6.68939 13.7117 6.66626 13.7617C6.64312 13.8117 6.60938 13.856 6.56738 13.8917C6.52539 13.9274 6.47619 13.9535 6.4231 13.9682C6.37 13.983 6.31432 13.9861 6.25995 13.9772C6.171 13.9626 6.09015 13.9168 6.0318 13.8481C5.97345 13.7794 5.94141 13.6923 5.94141 13.6022C5.94141 13.512 5.97345 13.4249 6.0318 13.3562C6.09015 13.2875 6.171 13.2417 6.25995 13.2272" stroke="#ECA313" stroke-width="1.5" stroke-linecap="round" stroke-linejoin="round"/>
<path d="M6.25995 7.202C6.31432 7.1931 6.37 7.19617 6.4231 7.21092C6.47619 7.22566 6.52539 7.25166 6.56738 7.28733C6.60938 7.32301 6.64312 7.36745 6.66626 7.41746C6.68939 7.46747 6.70135 7.5219 6.70135 7.577C6.70135 7.63211 6.68939 7.68654 6.66626 7.73655C6.64312 7.78656 6.60938 7.83088 6.56738 7.86656C6.52539 7.90223 6.47619 7.92835 6.4231 7.94309C6.37 7.95784 6.31432 7.96091 6.25995 7.952C6.171 7.93743 6.09015 7.89167 6.0318 7.82298C5.97345 7.75428 5.94141 7.66714 5.94141 7.577C5.94141 7.48687 5.97345 7.39973 6.0318 7.33103C6.09015 7.26234 6.171 7.21658 6.25995 7.202" stroke="#ECA313" stroke-width="1.5" stroke-linecap="round" stroke-linejoin="round"/>
</svg>
