<svg width="23" height="23" viewBox="0 0 23 23" fill="none" xmlns="http://www.w3.org/2000/svg">
<circle cx="11.5" cy="11.5" r="10.75" stroke="#7E6CDA" stroke-width="1.5"/>
<path d="M8 6.58073V16.4193C7.99984 16.5234 8.02505 16.6257 8.07297 16.7154C8.12089 16.805 8.18975 16.8787 8.27232 16.9287C8.35489 16.9788 8.44812 17.0033 8.5422 16.9997C8.63629 16.996 8.72775 16.9644 8.80699 16.9082L15.759 11.988C15.8329 11.9355 15.8937 11.8633 15.9358 11.778C15.9779 11.6928 16 11.5972 16 11.5C16 11.4028 15.9779 11.3072 15.9358 11.222C15.8937 11.1367 15.8329 11.0645 15.759 11.012L8 6.58073ZM8.75 6.9703L15.1502 11.5L8.75 16.0297V6.9703ZM8.75 16.4204V16.4193C8.75 16.4197 8.75 16.42 8.75 16.4204Z" stroke="#7E6CDA" stroke-width="1.5"/>
</svg>
