<svg width="30" height="30" viewBox="0 0 30 30" fill="none" xmlns="http://www.w3.org/2000/svg">
<circle cx="15" cy="15" r="15" fill="#FDE8BE"/>
<path d="M21.3 11.09L22.21 10.19C22.3983 10.0017 22.5041 9.7463 22.5041 9.48C22.5041 9.2137 22.3983 8.9583 22.21 8.77C22.0217 8.5817 21.7663 8.47591 21.5 8.47591C21.2337 8.47591 20.9783 8.5817 20.79 8.77L19.89 9.68C18.4886 8.59585 16.7669 8.00764 14.995 8.00764C13.2232 8.00764 11.5015 8.59585 10.1 9.68L9.19003 8.76C9.0004 8.5717 8.74373 8.46644 8.47649 8.46737C8.20925 8.46831 7.95333 8.57537 7.76503 8.765C7.57672 8.95463 7.47146 9.2113 7.4724 9.47854C7.47334 9.74577 7.5804 10.0017 7.77003 10.19L8.69003 11.1C7.59304 12.4975 6.99782 14.2233 7.00003 16C6.99676 17.2754 7.29849 18.5331 7.88005 19.6683C8.46161 20.8034 9.30614 21.783 10.3432 22.5254C11.3803 23.2679 12.5798 23.7516 13.8418 23.9362C15.1038 24.1208 16.3917 24.0011 17.598 23.5869C18.8043 23.1727 19.8941 22.4761 20.7764 21.5552C21.6588 20.6342 22.3082 19.5157 22.6705 18.2928C23.0328 17.0699 23.0974 15.7781 22.859 14.5251C22.6206 13.2722 22.0861 12.0944 21.3 11.09V11.09ZM15 22C13.8133 22 12.6533 21.6481 11.6666 20.9888C10.6799 20.3295 9.91087 19.3925 9.45675 18.2961C9.00262 17.1997 8.8838 15.9933 9.11531 14.8295C9.34683 13.6656 9.91827 12.5965 10.7574 11.7574C11.5965 10.9182 12.6656 10.3468 13.8295 10.1153C14.9934 9.88378 16.1998 10.0026 17.2961 10.4567C18.3925 10.9108 19.3296 11.6799 19.9888 12.6666C20.6481 13.6533 21 14.8133 21 16C21 17.5913 20.3679 19.1174 19.2427 20.2426C18.1174 21.3679 16.5913 22 15 22ZM13 7H17C17.2652 7 17.5196 6.89464 17.7071 6.70711C17.8947 6.51957 18 6.26522 18 6C18 5.73478 17.8947 5.48043 17.7071 5.29289C17.5196 5.10536 17.2652 5 17 5H13C12.7348 5 12.4805 5.10536 12.2929 5.29289C12.1054 5.48043 12 5.73478 12 6C12 6.26522 12.1054 6.51957 12.2929 6.70711C12.4805 6.89464 12.7348 7 13 7V7ZM16 13C16 12.7348 15.8947 12.4804 15.7071 12.2929C15.5196 12.1054 15.2652 12 15 12C14.7348 12 14.4805 12.1054 14.2929 12.2929C14.1054 12.4804 14 12.7348 14 13V14.89C13.7736 15.0925 13.614 15.359 13.5423 15.6542C13.4707 15.9495 13.4904 16.2595 13.5988 16.5433C13.7072 16.8271 13.8992 17.0712 14.1494 17.2435C14.3996 17.4158 14.6962 17.508 15 17.508C15.3038 17.508 15.6004 17.4158 15.8507 17.2435C16.1009 17.0712 16.2929 16.8271 16.4013 16.5433C16.5097 16.2595 16.5294 15.9495 16.4577 15.6542C16.3861 15.359 16.2265 15.0925 16 14.89V13Z" fill="#ECA313"/>
</svg>
