<svg width="32" height="32" viewBox="0 0 32 32" fill="none" xmlns="http://www.w3.org/2000/svg">
<circle cx="16" cy="16" r="16" fill="#CEC6F6"/>
<path d="M25.3119 14.7685C25.2735 14.4275 25.2351 14.0107 25.0814 13.556C24.9661 13.1013 24.774 12.6087 24.5051 12.0782C24.2361 11.5477 23.8904 11.0172 23.4677 10.4867C23.314 10.2973 23.1219 10.0699 22.8914 9.88044C23.1988 8.66789 22.5072 7.6448 22.5072 7.6448C21.3546 7.56902 20.5862 7.98583 20.3172 8.21318C20.2788 8.21318 20.2404 8.17529 20.1636 8.1374C19.9715 8.06162 19.7794 7.98583 19.5488 7.91005C19.3183 7.83426 19.1262 7.79637 18.8957 7.72059C18.6652 7.68269 18.4346 7.6448 18.2425 7.60691C18.2041 7.60691 18.1657 7.60691 18.1273 7.60691C17.6278 6.01543 16.1678 5.33337 16.1678 5.33337C14.5542 6.35646 14.2468 7.75848 14.2468 7.75848C14.2468 7.75848 14.2468 7.79637 14.2468 7.83426C14.17 7.87215 14.0547 7.87215 13.9779 7.91005C13.8626 7.94794 13.7473 7.98583 13.5937 8.02372C13.4784 8.06162 13.3631 8.09951 13.2095 8.17529C12.9789 8.28897 12.71 8.40265 12.4795 8.51632C12.2489 8.63 12.0184 8.78157 11.7879 8.93314C11.7495 8.93314 11.7495 8.89525 11.7495 8.89525C9.48267 8.06162 7.4848 9.08471 7.4848 9.08471C7.2927 11.434 8.36847 12.9497 8.59899 13.215C8.56057 13.3665 8.48373 13.5181 8.44531 13.6697C8.29163 14.2002 8.13795 14.7685 8.06111 15.3369C8.06111 15.4127 8.02269 15.4885 8.02269 15.5643C5.94798 16.5874 5.33325 18.6714 5.33325 18.6714C7.06217 20.6418 9.09847 20.7555 9.09847 20.7555C9.36741 21.2102 9.63635 21.627 9.98213 22.0439C10.1358 22.1954 10.2895 22.3849 10.4048 22.5365C9.79003 24.3174 10.4816 25.7952 10.4816 25.7952C12.4026 25.871 13.6705 24.9616 13.9394 24.7342C14.1315 24.81 14.3236 24.8479 14.5157 24.9237C15.0921 25.0752 15.7068 25.151 16.3215 25.1889C16.4752 25.1889 16.6289 25.1889 16.7826 25.1889H16.8594H16.8978H16.9747H17.0515C17.9736 26.4772 19.5488 26.6667 19.5488 26.6667C20.7014 25.492 20.7399 24.3174 20.7399 24.0521C20.7399 24.0143 20.7399 24.0143 20.7399 24.0143V23.9764C20.9704 23.8248 21.2009 23.6353 21.4314 23.4459C21.8925 23.0291 22.2767 22.5743 22.6225 22.0817C22.6609 22.0439 22.6993 22.006 22.6993 21.9302C24.0056 22.006 24.8893 21.1344 24.8893 21.1344C24.6588 19.8082 23.8903 19.164 23.7367 19.0504C23.7367 19.0504 23.7367 19.0504 23.6983 19.0504C23.6983 18.9746 23.6983 18.8988 23.6983 18.823C23.6983 18.6714 23.6983 18.5199 23.6983 18.4062V18.2167V18.1788V18.141C23.6983 18.1031 23.6983 18.1031 23.6983 18.1031V18.0273V17.9136C23.6983 17.8757 23.6983 17.8378 23.6983 17.7999C23.6983 17.762 23.6983 17.7241 23.6983 17.6862V17.5726V17.4589C23.6598 17.3073 23.6598 17.1558 23.6214 17.0421C23.4677 16.4737 23.2756 15.9432 22.9683 15.4506C22.6609 14.958 22.3151 14.5412 21.8925 14.1623C21.4699 13.7833 21.0088 13.5181 20.5093 13.2907C20.0099 13.0634 19.5104 12.9497 18.9725 12.8739C18.7036 12.836 18.4731 12.836 18.2041 12.836H18.1273H18.0889H18.0504H18.012H17.9352C17.8968 12.836 17.8583 12.836 17.8199 12.836C17.7046 12.836 17.551 12.8739 17.4357 12.8739C16.9362 12.9497 16.4368 13.1392 16.0142 13.4044C15.5915 13.6697 15.2073 13.9728 14.9 14.3138C14.5926 14.6549 14.3621 15.0717 14.2084 15.4885C14.0547 15.9053 13.9779 16.3221 13.9394 16.7389C13.9394 16.8526 13.9394 16.9284 13.9394 17.0421C13.9394 17.08 13.9394 17.08 13.9394 17.1179V17.1936C13.9394 17.2315 13.9394 17.3073 13.9394 17.3452C13.9779 17.5347 14.0163 17.762 14.0547 17.9515C14.17 18.3304 14.3621 18.6714 14.5542 18.9746C14.7847 19.2777 15.0536 19.5051 15.3226 19.6945C15.5915 19.884 15.8989 20.0356 16.2063 20.1114C16.5136 20.1871 16.7826 20.225 17.0899 20.225C17.1283 20.225 17.1668 20.225 17.2052 20.225H17.2436H17.282C17.3204 20.225 17.3589 20.225 17.3589 20.225C17.3589 20.225 17.3589 20.225 17.3973 20.225H17.4357H17.4741C17.5125 20.225 17.551 20.225 17.5894 20.225C17.6278 20.225 17.6662 20.225 17.7047 20.1871C17.7815 20.1871 17.8199 20.1492 17.8968 20.1492C18.012 20.1113 18.1273 20.0735 18.2425 19.9977C18.3578 19.9598 18.4346 19.884 18.5499 19.8082C18.5883 19.8082 18.5883 19.7703 18.6267 19.7324C18.742 19.6566 18.742 19.5051 18.6652 19.4293C18.5883 19.3535 18.4731 19.3156 18.3962 19.3914C18.3578 19.3914 18.3578 19.4293 18.3194 19.4293C18.2425 19.4672 18.1657 19.5051 18.0504 19.543C17.9736 19.5809 17.8583 19.5809 17.7815 19.6188C17.7431 19.6188 17.6662 19.6188 17.6278 19.6188C17.5894 19.6188 17.5894 19.6188 17.551 19.6188C17.5126 19.6188 17.5125 19.6188 17.4741 19.6188C17.4357 19.6188 17.4357 19.6188 17.3973 19.6188C17.3589 19.6188 17.3204 19.6188 17.3204 19.6188H17.282H17.2436C17.2052 19.6188 17.2052 19.6188 17.1668 19.6188C16.9362 19.5809 16.7441 19.543 16.5136 19.4293C16.2831 19.3535 16.091 19.2019 15.8989 19.0504C15.7068 18.8988 15.5531 18.6714 15.4378 18.482C15.3226 18.2925 15.2073 18.0273 15.1689 17.762C15.1305 17.6484 15.1305 17.4968 15.1305 17.3831C15.1305 17.3452 15.1305 17.3073 15.1305 17.2694V17.2315V17.1936C15.1305 17.1179 15.1305 17.0421 15.1689 16.9663C15.2842 16.3979 15.5531 15.8674 16.0142 15.4127C16.1294 15.299 16.2447 15.2233 16.3599 15.1096C16.4752 15.0338 16.6289 14.958 16.7441 14.8822C16.8978 14.8064 17.0515 14.7685 17.1668 14.7307C17.3205 14.6928 17.4741 14.6549 17.6278 14.6549C17.7046 14.6549 17.7815 14.6549 17.8583 14.6549C17.8968 14.6549 17.8968 14.6549 17.8968 14.6549H17.9736H18.012H18.0889C18.2425 14.6549 18.4346 14.6928 18.5883 14.7307C18.9341 14.8064 19.2415 14.9201 19.5488 15.1096C20.1636 15.4506 20.663 15.9811 21.0088 16.5874C21.1625 16.8905 21.2778 17.2315 21.3546 17.5726C21.3546 17.6484 21.393 17.762 21.393 17.8378V17.9136V17.9894C21.393 18.0273 21.393 18.0273 21.393 18.0652C21.393 18.1031 21.393 18.1031 21.393 18.141V18.2167V18.2925C21.393 18.3304 21.393 18.4062 21.393 18.4441C21.393 18.5578 21.393 18.6336 21.3546 18.7472C21.3546 18.823 21.3162 18.9367 21.3162 19.0125C21.3162 19.0883 21.2778 19.2019 21.2393 19.2777C21.2009 19.4672 21.1241 19.6566 21.0472 19.8082C20.8935 20.1492 20.7014 20.4903 20.4709 20.8313C20.0099 21.4376 19.3952 21.9681 18.6652 22.2712C18.3194 22.4228 17.9352 22.5365 17.551 22.6122C17.3589 22.6501 17.1668 22.6501 16.9747 22.688H16.9362H16.8978H16.821H16.7441H16.7057C16.7441 22.688 16.7057 22.688 16.7057 22.688C16.5905 22.688 16.5136 22.688 16.3984 22.688C15.9757 22.6501 15.5531 22.5743 15.1689 22.4607C14.7847 22.347 14.3621 22.1954 14.0163 22.006C13.2863 21.627 12.6331 21.0965 12.0953 20.4524C11.8263 20.1492 11.5958 19.8082 11.4421 19.4293C11.25 19.0504 11.0963 18.6714 10.9811 18.2925C10.8658 17.9136 10.789 17.4968 10.789 17.1179V17.0421V17.0042V16.9284V16.701V16.6632V16.5874V16.5495C10.789 16.5116 10.789 16.4358 10.789 16.3979C10.789 16.2084 10.8274 15.9811 10.8274 15.7916C10.8658 15.6022 10.9042 15.3748 10.9426 15.1854C10.9811 14.9959 11.0195 14.7685 11.0963 14.5791C11.2116 14.2002 11.3653 13.8212 11.519 13.4423C11.8647 12.7224 12.2874 12.0782 12.8252 11.5856C12.9405 11.4719 13.0942 11.3203 13.2479 11.2067C13.4016 11.093 13.5552 10.9793 13.7089 10.9035C13.8626 10.7899 14.0163 10.7141 14.17 10.6383C14.2468 10.6004 14.3236 10.5625 14.4005 10.5246C14.4389 10.5246 14.4773 10.4867 14.5157 10.4867C14.5542 10.4867 14.5926 10.4488 14.631 10.4488C14.7847 10.373 14.9768 10.3352 15.1305 10.2594C15.1689 10.2594 15.2073 10.2215 15.2457 10.2215C15.2842 10.2215 15.3226 10.1836 15.361 10.1836C15.4378 10.1457 15.5531 10.1457 15.63 10.1078C15.6684 10.1078 15.7068 10.0699 15.7836 10.0699C15.8221 10.0699 15.8605 10.0699 15.9373 10.032C15.9757 10.032 16.0141 10.032 16.091 9.99412H16.1678H16.2447C16.2831 9.99412 16.3215 9.99412 16.3984 9.95623C16.4368 9.95623 16.5136 9.95623 16.552 9.91834C16.5905 9.91834 16.6673 9.91834 16.7057 9.91834C16.7441 9.91834 16.7826 9.91834 16.821 9.91834H16.8978H16.9362H16.9747C17.0131 9.91834 17.0899 9.91834 17.1283 9.91834H17.2052C17.2052 9.91834 17.2436 9.91834 17.2052 9.91834H17.2436C17.282 9.91834 17.3205 9.91834 17.3589 9.91834C17.551 9.91834 17.7047 9.91834 17.8968 9.91834C18.2425 9.91834 18.5883 9.95623 18.9341 10.032C19.5873 10.1457 20.202 10.373 20.7783 10.6383C21.3546 10.9035 21.8541 11.2446 22.2767 11.6235C22.3151 11.6614 22.3151 11.6614 22.3535 11.6993C22.392 11.7372 22.3919 11.7372 22.4304 11.7751C22.4688 11.8129 22.5456 11.8508 22.584 11.9266C22.6225 12.0024 22.6993 12.0024 22.7377 12.0782C22.7762 12.154 22.853 12.1919 22.8914 12.2298C23.0835 12.4192 23.2372 12.6087 23.3909 12.836C23.6982 13.215 23.9672 13.6318 24.1593 14.0107C24.1593 14.0486 24.1977 14.0486 24.1977 14.0865C24.1977 14.1244 24.2361 14.1244 24.2361 14.1623C24.2746 14.2002 24.2746 14.2381 24.313 14.3138C24.3514 14.3517 24.3514 14.3896 24.3898 14.4654C24.4282 14.5033 24.4282 14.5412 24.4667 14.617C24.5435 14.8064 24.6203 14.958 24.6588 15.1096C24.7356 15.3748 24.8124 15.6022 24.8509 15.7916C24.8893 15.8674 24.9661 15.9432 25.043 15.9053C25.1198 15.9053 25.1966 15.8295 25.1966 15.7537C25.3503 15.299 25.3503 15.0338 25.3119 14.7685Z" fill="#7E6CDA"/>
</svg>
