<svg width="20" height="20" viewBox="0 0 20 20" fill="none" xmlns="http://www.w3.org/2000/svg">
<g clip-path="url(#clip0_29170_13449)">
<path d="M2.60335 4.09061C2.8728 4.36138 3.31132 4.36138 3.58209 4.09061C3.85154 3.81984 3.85154 3.38 3.58209 3.10923L2.38146 1.90596C2.11201 1.63519 1.67349 1.63519 1.40272 1.90596C1.13327 2.17673 1.13327 2.61656 1.40272 2.88733L2.60335 4.09061ZM9.69357 2.59147C10.0753 2.59147 10.3857 2.28107 10.3857 1.89803V0.693435C10.3857 0.310395 10.0753 0 9.69357 0C9.31185 0 9.00145 0.310395 9.00145 0.693435V1.89671C9.00145 2.27975 9.31185 2.59015 9.69357 2.59015V2.59147ZM16.7838 4.09061L17.9844 2.88733C18.2539 2.61656 18.2539 2.17673 17.9844 1.90596C17.715 1.63519 17.2765 1.63519 17.0057 1.90596L15.8064 3.10923C15.5369 3.38 15.5369 3.81984 15.8064 4.09061C16.0758 4.36138 16.5143 4.36138 16.7838 4.09061ZM15.6096 14.9914L14.6189 6.93964C14.5476 6.35451 14.2399 5.81297 13.7538 5.41936C13.2691 5.02444 12.639 4.80518 11.9865 4.79989H7.41514C6.75604 4.79593 6.11808 5.01255 5.62541 5.40748C5.13274 5.8024 4.81971 6.34791 4.74706 6.93832L3.75512 15.0007C3.12508 15.1103 2.53599 15.4035 2.0737 15.8539C1.47537 16.4338 1.13459 17.2276 1.13459 18.0597C1.13459 18.5828 1.34857 19.0794 1.72236 19.4413C2.09484 19.8019 2.59411 20.0013 3.11055 20.0013H16.3109C16.826 20.0013 17.3266 19.8032 17.6978 19.4413C18.0703 19.0794 18.2856 18.5828 18.2856 18.0597C18.2856 17.2276 17.9448 16.4351 17.3465 15.8539C16.8696 15.3903 16.2594 15.0931 15.6082 14.9914H15.6096ZM6.62528 10.6314C6.96605 10.3725 7.45212 10.4412 7.70968 10.7833L8.83107 12.2745L11.2178 8.03196C11.4278 7.65817 11.9007 7.52609 12.2731 7.73742C12.6456 7.94875 12.7777 8.42161 12.5677 8.7954L10.0502 13.2717C10.0502 13.2717 10.0476 13.2757 10.0476 13.2783C9.93396 13.4764 9.78603 13.6402 9.60903 13.7644C9.41751 13.8978 9.19958 13.9797 8.97372 13.9982C8.92881 14.0034 8.8839 14.0061 8.83899 14.0061C8.65143 14.0061 8.46388 13.9638 8.29085 13.8806C8.0914 13.7842 7.91309 13.6349 7.7744 13.4487L6.47471 11.721C6.21714 11.3789 6.28451 10.8916 6.6266 10.6327L6.62528 10.6314ZM16.62 18.3252C16.5421 18.4018 16.4311 18.448 16.3096 18.448H3.10923C2.98904 18.448 2.87677 18.4018 2.79884 18.3252C2.72223 18.2499 2.6826 18.1548 2.6826 18.0597C2.6826 17.6555 2.84771 17.2632 3.15018 16.97C3.45397 16.6755 3.87003 16.5064 4.30855 16.5064H15.1103C15.5501 16.5064 15.9662 16.6768 16.2687 16.97C16.5711 17.2632 16.7362 17.6555 16.7362 18.0597C16.7362 18.1548 16.6979 18.2512 16.62 18.3252ZM2.58354 8.41368C2.58354 8.03064 2.27315 7.72025 1.89143 7.72025H0.692115C0.310395 7.72025 0 8.03064 0 8.41368C0 8.79673 0.310395 9.10712 0.692115 9.10712H1.89143C2.27315 9.10712 2.58354 8.79673 2.58354 8.41368ZM18.6937 7.72025H17.4931C17.1113 7.72025 16.801 8.03064 16.801 8.41368C16.801 8.79673 17.1113 9.10712 17.4931 9.10712H18.6937C19.0754 9.10712 19.3858 8.79673 19.3858 8.41368C19.3858 8.03064 19.0754 7.72025 18.6937 7.72025Z" fill="#EF5B3E"/>
</g>
<defs>
<clipPath id="clip0_29170_13449">
<rect width="19.3845" height="20" fill="white"/>
</clipPath>
</defs>
</svg>
