<svg width="25" height="22" viewBox="0 0 25 22" fill="none" xmlns="http://www.w3.org/2000/svg">
<path fill-rule="evenodd" clip-rule="evenodd" d="M12.5 10C14.1569 10 15.5 9.32843 15.5 8.5C15.5 7.67157 14.1569 7 12.5 7C10.8431 7 9.5 7.67157 9.5 8.5C9.5 9.32843 10.8431 10 12.5 10Z" stroke="#EF5B3E" stroke-width="1.5" stroke-linecap="round" stroke-linejoin="round"/>
<path fill-rule="evenodd" clip-rule="evenodd" d="M12.5 4C14.1569 4 15.5 3.32843 15.5 2.5C15.5 1.67157 14.1569 1 12.5 1C10.8431 1 9.5 1.67157 9.5 2.5C9.5 3.32843 10.8431 4 12.5 4Z" stroke="#EF5B3E" stroke-width="1.5" stroke-linecap="round" stroke-linejoin="round"/>
<path fill-rule="evenodd" clip-rule="evenodd" d="M19.5 7C21.1569 7 22.5 6.32843 22.5 5.5C22.5 4.67157 21.1569 4 19.5 4C17.8431 4 16.5 4.67157 16.5 5.5C16.5 6.32843 17.8431 7 19.5 7Z" stroke="#EF5B3E" stroke-width="1.5" stroke-linecap="round" stroke-linejoin="round"/>
<path fill-rule="evenodd" clip-rule="evenodd" d="M6 7C7.65685 7 9 6.32843 9 5.5C9 4.67157 7.65685 4 6 4C4.34315 4 3 4.67157 3 5.5C3 6.32843 4.34315 7 6 7Z" stroke="#EF5B3E" stroke-width="1.5" stroke-linecap="round" stroke-linejoin="round"/>
<path d="M10.237 3.48438L8.08203 4.42137" stroke="#EF5B3E" stroke-width="1.5" stroke-linecap="round" stroke-linejoin="round"/>
<path d="M17.1947 4.5414L14.7617 3.4834" stroke="#EF5B3E" stroke-width="1.5" stroke-linecap="round" stroke-linejoin="round"/>
<path d="M3.574 6.38086L1.6 7.23886C1.23541 7.39798 0.999807 7.75806 1 8.15586V14.8559C1.00011 15.2478 1.2292 15.6036 1.586 15.7659L11.6 20.3199C11.8532 20.4353 12.1431 20.44 12.4 20.3329L23.383 15.7559C23.7555 15.6005 23.998 15.2364 23.998 14.8329V8.15586C23.9982 7.75806 23.7626 7.39798 23.398 7.23886L21.7 6.49986" stroke="#EF5B3E" stroke-width="1.5" stroke-linecap="round" stroke-linejoin="round"/>
<path d="M12 12.5V20.408" stroke="#EF5B3E" stroke-width="1.5" stroke-linecap="round" stroke-linejoin="round"/>
<path d="M23.815 7.57715L12 12.5001" stroke="#EF5B3E" stroke-width="1.5" stroke-linecap="round" stroke-linejoin="round"/>
<path d="M12.0006 12.5L1.18164 7.58203" stroke="#EF5B3E" stroke-width="1.5" stroke-linecap="round" stroke-linejoin="round"/>
</svg>
