<svg width="33" height="33" viewBox="0 0 33 33" fill="none" xmlns="http://www.w3.org/2000/svg">
<circle cx="16.5" cy="16.5" r="16.5" fill="#FDC9BE"/>
<path d="M17 8C14.8783 8 12.8434 8.84297 11.3431 10.3431C9.84293 11.8434 9 13.8781 9 16C9 18.1219 9.84297 20.1566 11.3431 21.6569C12.8434 23.1572 14.8781 24 17 24C19.1219 24 21.1566 23.1572 22.6569 21.6569C24.1572 20.1567 25 18.1219 25 16C24.9975 13.8791 24.1539 11.8458 22.6542 10.3459C21.1544 8.84621 19.121 8.00264 17.0001 8H17ZM19.7622 17.0594H16.5393C16.3381 17.0575 16.1528 16.9494 16.0523 16.7751L13.9668 13.05C13.8136 12.7758 13.9115 12.4289 14.1859 12.2756C14.4602 12.1222 14.8068 12.2202 14.9602 12.4946L16.8807 15.9278H19.7603H19.7602C20.0743 15.9278 20.329 16.1823 20.329 16.4964C20.329 16.8104 20.0743 17.0651 19.7602 17.0651L19.7622 17.0594Z" fill="#EF5B3E"/>
</svg>
