<svg width="32" height="32" viewBox="0 0 32 32" fill="none" xmlns="http://www.w3.org/2000/svg">
<circle cx="16" cy="16" r="16" fill="#FDD9BE"/>
<path d="M17.1429 15.024V23.6904C17.1429 23.8612 17.0043 23.9999 16.8335 23.9999H14.3573C14.1865 23.9999 14.0478 23.8612 14.0478 23.6904V15.024C14.0478 14.8532 14.1865 14.7145 14.3573 14.7145H16.8335C17.0043 14.7145 17.1429 14.8532 17.1429 15.024ZM23.0238 12.2384H20.5476C20.3768 12.2384 20.2382 12.377 20.2382 12.5478V23.6907C20.2382 23.8615 20.3768 24.0001 20.5476 24.0001H23.0238C23.1946 24.0001 23.3332 23.8615 23.3332 23.6907L23.3335 12.5478C23.3335 12.377 23.1946 12.2384 23.0238 12.2384V12.2384ZM10.6431 17.1907H8.16685C7.99605 17.1907 7.85742 17.3294 7.85742 17.5002V23.6905C7.85742 23.8613 7.99605 23.9999 8.16685 23.9999H10.6431C10.8139 23.9999 10.9525 23.8613 10.9525 23.6905L10.9527 17.5002C10.9527 17.3294 10.8141 17.1907 10.6431 17.1907V17.1907ZM22.8696 6.6668H20.3933C20.1368 6.6668 19.9289 6.87436 19.9289 7.1312C19.9289 7.38778 20.1365 7.5956 20.3933 7.5956H21.7038C15.7963 12.9516 8.31593 14.398 8.2375 14.4124C7.98552 14.4591 7.81906 14.7014 7.86578 14.9534C7.91352 15.2074 8.15708 15.3721 8.40677 15.3254C8.73917 15.2639 16.3007 13.8104 22.4051 8.21772V9.60736C22.4051 9.86394 22.6127 10.0718 22.8695 10.0718C23.1261 10.0718 23.3339 9.8642 23.3339 9.60736V7.13115C23.3339 6.87559 23.1215 6.66675 22.8695 6.66675L22.8696 6.6668Z" fill="#EC6D13"/>
</svg>
