<svg width="18" height="18" viewBox="0 0 18 18" fill="none" xmlns="http://www.w3.org/2000/svg">
<path fill-rule="evenodd" clip-rule="evenodd" d="M1.33203 2.33203C1.33203 1.77975 1.77975 1.33203 2.33203 1.33203H15.6654C16.2176 1.33203 16.6654 1.77975 16.6654 2.33203V15.6654C16.6654 16.2176 16.2176 16.6654 15.6654 16.6654H2.33203C1.77975 16.6654 1.33203 16.2176 1.33203 15.6654V2.33203Z" stroke="#1866D4" stroke-linecap="round" stroke-linejoin="round"/>
<path d="M5.33203 5.33203H7.9987" stroke="#1866D4" stroke-linecap="round" stroke-linejoin="round"/>
<path d="M3.33203 8H7.9987" stroke="#1866D4" stroke-linecap="round" stroke-linejoin="round"/>
<path d="M3.33203 10.6641H14.6654" stroke="#1866D4" stroke-linecap="round" stroke-linejoin="round"/>
<path d="M3.33203 13.332H11.332" stroke="#1866D4" stroke-linecap="round" stroke-linejoin="round"/>
<path fill-rule="evenodd" clip-rule="evenodd" d="M10 4.5C10 4.22386 10.2239 4 10.5 4H14.1667C14.4428 4 14.6667 4.22386 14.6667 4.5V8.16667C14.6667 8.44281 14.4428 8.66667 14.1667 8.66667H10.5C10.2239 8.66667 10 8.44281 10 8.16667V4.5Z" stroke="#1866D4" stroke-linecap="round" stroke-linejoin="round"/>
</svg>
