<svg width="32" height="32" viewBox="0 0 32 32" fill="none" xmlns="http://www.w3.org/2000/svg">
<circle cx="16" cy="16" r="16" fill="#FAC2D9"/>
<path fill-rule="evenodd" clip-rule="evenodd" d="M22.0043 8C22.5542 8 22.9999 8.45086 22.9999 9.00413V12.9957C22.9999 13.5503 22.5532 14 21.9985 14H16.5V15.4999H20.0014C20.5529 15.4999 21.0001 15.9469 21.0001 16.5023V17.9999H23.0011C23.5528 17.9999 24 18.4509 24 19.0042V22.9956C24 23.5502 23.5515 23.9999 22.997 23.9999H18.0032C17.4492 23.9999 17.0002 23.5489 17.0002 22.9956V19.0042C17.0002 18.4496 17.4494 17.9999 17.9992 17.9999H20.0002V16.7477C20.0002 16.6109 19.8871 16.4999 19.752 16.4999H12.2483C12.1112 16.4999 12 16.6078 12 16.7477V17.9999H14.0011C14.5527 17.9999 15.0001 18.4509 15.0001 19.0042V22.9956C15.0001 23.5502 14.5516 23.9999 13.9971 23.9999H9.00282C8.44905 23.9999 8 23.5489 8 22.9956V19.0042C8 18.4496 8.44905 17.9999 8.99885 17.9999H10.9999V16.5023C10.9999 15.9487 11.4478 15.4999 11.9986 15.4999H15.4998V14H10.0013C9.44815 14 8.99995 13.5489 8.99995 12.9957V9.00413C8.99995 8.44951 9.4498 8 9.99551 8H22.0043Z" fill="#E0528D"/>
</svg>
