<svg width="28" height="28" viewBox="0 0 28 28" fill="none" xmlns="http://www.w3.org/2000/svg">
<circle cx="14" cy="14" r="14" fill="#CEC6F6"/>
<path d="M19.2665 13.899C19.73 13.9084 20.1942 13.9162 20.6577 13.9254C20.724 13.9267 20.7902 13.928 20.8548 13.9288C21.0301 13.9324 21.2122 13.8251 21.2259 13.6339C21.237 13.4669 21.1185 13.2678 20.931 13.2628C20.4675 13.2534 20.0033 13.2456 19.5397 13.2364C19.4735 13.2351 19.4073 13.2338 19.3427 13.233C19.1674 13.2294 18.9853 13.3367 18.9716 13.5279C18.96 13.6965 19.08 13.8962 19.2665 13.899Z" fill="#7E6CDA"/>
<path d="M18.9517 11.3368C19.3748 11.1459 19.7978 10.9549 20.221 10.764C20.2805 10.7373 20.3404 10.7091 20.4015 10.6831C20.5607 10.6099 20.6577 10.409 20.578 10.2434C20.5018 10.083 20.3101 9.98966 20.1383 10.0668C19.7152 10.2578 19.2922 10.4488 18.869 10.6397C18.8095 10.6664 18.7495 10.6946 18.6885 10.7205C18.5293 10.7937 18.4323 10.9946 18.5119 11.1603C18.5883 11.3209 18.78 11.4141 18.9517 11.3368V11.3368Z" fill="#7E6CDA"/>
<path d="M18.6003 16.3877C19.0154 16.594 19.4313 16.8026 19.8465 17.0089C19.9052 17.038 19.9639 17.0669 20.0236 17.098C20.1817 17.176 20.4032 17.0737 20.4591 16.9121C20.5237 16.7288 20.4415 16.5605 20.2731 16.4765C19.858 16.2702 19.4421 16.0616 19.0269 15.8553C18.9682 15.8262 18.9095 15.7973 18.8498 15.7662C18.6917 15.6882 18.4702 15.7905 18.4143 15.9521C18.3496 16.1356 18.4318 16.3039 18.6003 16.3877Z" fill="#7E6CDA"/>
<path d="M11.1811 18.9708C11.1666 18.8315 11.1529 18.6907 11.1384 18.5514C11.101 18.1863 11.0642 17.8197 11.0267 17.4548C11.0233 17.4227 11.0206 17.3892 11.0172 17.3571C11.207 17.2438 11.404 17.1262 11.5375 16.9508C11.6684 16.7778 11.7433 16.5644 11.7473 16.3476C11.7499 16.2332 11.751 16.1182 11.7537 16.0038C11.7546 15.9699 11.7556 15.936 11.7551 15.9015C12.0629 15.9078 12.3713 15.9126 12.6791 15.9188C12.6801 15.867 12.6818 15.8134 12.6827 15.7615C12.6824 15.7308 12.6837 15.7005 12.684 15.6682C12.6854 15.584 12.6877 15.5019 12.6891 15.4176C12.6981 14.9864 12.7048 14.556 12.7139 14.1249C12.7255 13.4981 12.738 12.8698 12.7496 12.2431C12.7553 11.9729 12.7599 11.7006 12.7657 11.4305C12.767 11.3463 12.7694 11.2642 12.7708 11.1799C12.7721 11.0957 12.7744 11.0136 12.7758 10.9292C12.5862 10.9253 12.3966 10.9213 12.2069 10.9173C11.5785 10.905 10.9518 10.8932 10.3235 10.8809C9.8224 10.8709 9.32063 10.8625 8.81945 10.8525C8.66526 10.8502 8.51171 10.8371 8.3623 10.8855C8.10322 10.9691 7.91386 11.2251 7.90228 11.4964C7.90127 11.5213 7.90027 11.5462 7.90089 11.5716C7.67058 11.5657 7.44006 11.5598 7.21106 11.5597C6.83523 11.5568 6.49515 11.7521 6.34135 12.1037C6.27297 12.2603 6.27095 12.4183 6.26789 12.583C6.26025 13.002 6.2524 13.4212 6.24477 13.8402C6.24305 13.9477 6.23983 14.0548 6.23811 14.1623C6.23853 14.5521 6.48363 14.9212 6.86777 15.0339C7.07262 15.0946 7.29796 15.0768 7.51095 15.0811C7.61845 15.0829 7.72614 15.0845 7.83522 15.0869C7.83526 15.0959 7.83454 15.1064 7.83458 15.1154C7.83153 15.5093 8.11993 15.829 8.51945 15.836C8.61057 15.8383 8.70074 15.8384 8.79186 15.8407C8.84667 16.4636 8.90217 17.0847 8.95841 17.7082C8.99336 18.1065 9.02881 18.5032 9.06531 18.9022C9.07207 18.9754 9.07509 19.0486 9.08406 19.1208C9.10774 19.282 9.24039 19.4055 9.40199 19.4163C9.46015 19.4198 9.51643 19.4189 9.57428 19.4187C9.99123 19.4273 10.4071 19.4337 10.824 19.4425C10.8308 19.4434 10.8368 19.4422 10.8442 19.4416C10.8601 19.4425 10.8743 19.4429 10.8899 19.4402C11.0895 19.4193 11.2041 19.2416 11.1895 19.0535C11.1887 19.028 11.1841 18.9992 11.1811 18.9708L11.1811 18.9708Z" fill="#7E6CDA"/>
<path d="M16.8817 18.1057C16.882 18.0923 16.8818 18.0805 16.882 18.0672C16.8832 17.989 16.8845 17.9106 16.8872 17.833C16.8931 17.505 16.8997 17.1755 16.9056 16.8476C16.9144 16.358 16.9251 15.8678 16.9339 15.3782C16.9445 14.8006 16.9559 14.2249 16.9665 13.6473C16.9782 13.0667 16.9886 12.4856 16.9998 11.9066C17.0103 11.3959 17.0188 10.8861 17.0287 10.377C17.0349 10.019 17.0427 9.66148 17.0489 9.30351C17.0508 9.20698 17.0526 9.11053 17.0545 9.014C17.056 8.92239 17.0631 8.82963 17.0268 8.74467C16.9416 8.54783 16.6972 8.45467 16.5054 8.55202C16.4826 8.56298 16.46 8.5774 16.4381 8.5904C16.3227 8.65642 16.2058 8.72179 16.0899 8.7894C15.6636 9.03237 15.2358 9.27493 14.8097 9.51796C14.3079 9.80273 13.8056 10.0891 13.3038 10.3739C13.0149 10.5379 12.7248 10.826 12.4359 10.99C12.4341 11.053 12.4343 10.994 12.4325 11.057C12.4319 11.0835 12.4313 11.1102 12.4307 11.1367C12.4283 11.2262 12.4272 11.3164 12.4262 11.4066C12.4191 11.7961 12.4113 12.1871 12.4042 12.5766C12.3933 13.1592 12.3817 13.7432 12.3709 14.3257C12.3641 14.6851 12.3567 15.0461 12.3499 15.4056C12.349 15.4957 12.3464 15.5854 12.3455 15.6755C12.3449 15.7105 12.3448 15.7439 12.3427 15.7784C12.3417 15.835 12.34 15.8896 12.339 15.9463C12.3418 15.823 12.3499 15.7852 12.3499 15.8795C12.7752 16.1442 13.202 16.4823 13.6288 16.7476C14.1202 17.0523 14.6117 17.3569 15.1016 17.661C15.4438 17.8739 15.7865 18.0853 16.1287 18.298C16.1795 18.3302 16.2294 18.3603 16.2803 18.3925C16.2898 18.398 16.2979 18.4029 16.308 18.407C16.3161 18.412 16.3256 18.4175 16.3351 18.423C16.5702 18.5474 16.8617 18.3643 16.8817 18.1057Z" fill="#7E6CDA"/>
</svg>
