<svg width="30" height="30" viewBox="0 0 30 30" fill="none" xmlns="http://www.w3.org/2000/svg">
<circle cx="15" cy="15" r="15" fill="#FDBEC4"/>
<path d="M25.7859 14.5753C24.5732 13.4917 20.1685 8.13867 15.1669 8.13867C10.1656 8.13867 5.76042 13.4919 4.54794 14.5753C4.43454 14.6763 4.43454 14.8533 4.54794 14.9545C5.76047 16.0381 9.94232 21.3911 15.1669 21.3911C20.3915 21.3911 24.5734 16.0379 25.7859 14.954C25.8991 14.8532 25.8991 14.6762 25.7859 14.5752M15.1669 18.5874C13.0556 18.5874 11.3442 16.8758 11.3442 14.7647C11.3442 12.6538 13.0556 10.942 15.1669 10.942C17.278 10.942 18.9897 12.6536 18.9897 14.7647C18.9897 16.8758 17.278 18.5874 15.1669 18.5874Z" fill="#F04C59"/>
<path d="M15.1669 12.9805C14.1814 12.9805 13.3828 13.7792 13.3828 14.7645C13.3828 15.7498 14.1813 16.5486 15.1669 16.5486C16.1522 16.5486 16.9509 15.7499 16.9509 14.7645C16.9509 13.7792 16.1522 12.9805 15.1669 12.9805Z" fill="#F04C59"/>
</svg>
