<svg width="30" height="30" viewBox="0 0 30 30" fill="none" xmlns="http://www.w3.org/2000/svg">
<circle cx="15" cy="15" r="15" fill="#EABDEA"/>
<path d="M12.3359 21.8137C12.3359 22.1828 12.6312 22.478 13.0003 22.478H13.4431C13.517 23.0685 14.0151 23.5297 14.624 23.5297H15.2698C15.8787 23.5297 16.3768 23.0684 16.4507 22.478H16.8935C17.2626 22.478 17.5579 22.1828 17.5579 21.8137V20.6328H12.3362L12.3359 21.8137Z" fill="#BE55BE"/>
<path d="M14.9552 9.83789C12.2798 9.83789 10.1025 12.0152 10.1025 14.6906C10.1025 15.0965 10.1579 15.4839 10.2502 15.853C10.4162 16.6096 10.7115 17.2369 11.2096 18.1041C11.5601 18.713 11.8739 18.9529 12.0768 19.2296H17.8338C18.0368 18.9343 18.3505 18.7129 18.701 18.1041C19.1991 17.2369 19.4944 16.6096 19.6604 15.853C19.7526 15.4839 19.808 15.0965 19.808 14.6906C19.7896 12.0151 17.6307 9.83789 14.9554 9.83789H14.9552Z" fill="#BE55BE"/>
<path d="M14.9362 8.25124C15.2683 8.25124 15.5267 7.99297 15.5267 7.66074V6.5905C15.5267 6.25842 15.2684 6 14.9362 6C14.6041 6 14.3457 6.25827 14.3457 6.5905V7.66074C14.3643 7.99282 14.6225 8.25124 14.9362 8.25124Z" fill="#BE55BE"/>
<path d="M11.6891 8.41703C11.7814 8.63847 12.0028 8.7861 12.2242 8.7861C12.2981 8.7861 12.3719 8.76768 12.4457 8.74927C12.7409 8.62006 12.8886 8.28796 12.7594 7.97428L12.3535 6.97788C12.2242 6.68263 11.8921 6.535 11.5785 6.66421C11.2832 6.79342 11.1356 7.12551 11.2648 7.43919L11.6891 8.41703Z" fill="#BE55BE"/>
<path d="M10.3418 9.32205L9.58529 8.5655C9.36385 8.34405 8.97636 8.34405 8.75494 8.5655C8.53352 8.78694 8.5335 9.17443 8.75494 9.39584L9.5115 10.1524C9.62214 10.263 9.76977 10.3184 9.9174 10.3184C10.065 10.3184 10.2127 10.263 10.3233 10.1524C10.5633 9.91239 10.5633 9.54331 10.3419 9.32205H10.3418Z" fill="#BE55BE"/>
<path d="M8.60749 11.4988L7.61108 11.0929C7.31583 10.9637 6.96533 11.1113 6.8361 11.4066C6.70686 11.7019 6.85451 12.0523 7.14977 12.1816L8.14617 12.5875C8.21999 12.6243 8.2938 12.6243 8.36761 12.6243C8.58906 12.6243 8.81049 12.4951 8.90271 12.2552C9.05034 11.9601 8.90271 11.6096 8.60746 11.4988L8.60749 11.4988Z" fill="#BE55BE"/>
<path d="M23.0374 11.4251C22.9081 11.1299 22.576 10.9823 22.2624 11.1115L21.266 11.5174C20.9707 11.6466 20.8231 11.9787 20.9523 12.2924C21.0445 12.5138 21.266 12.6614 21.4874 12.6614C21.5612 12.6614 21.635 12.643 21.7088 12.6246L22.7052 12.2187C23.0189 12.0709 23.1665 11.7203 23.0373 11.4252L23.0374 11.4251Z" fill="#BE55BE"/>
<path d="M21.1348 8.58307C20.9134 8.36163 20.5259 8.36163 20.3045 8.58307L19.5479 9.33963C19.3265 9.56107 19.3265 9.94856 19.5479 10.17C19.6586 10.2806 19.8062 10.336 19.9538 10.336C20.1014 10.336 20.2491 10.2806 20.3597 10.17L21.1163 9.41342C21.3563 9.17357 21.3563 8.80449 21.1348 8.58307H21.1348Z" fill="#BE55BE"/>
<path d="M17.4269 8.7493C17.5007 8.78613 17.5745 8.78613 17.6483 8.78613C17.8698 8.78613 18.0912 8.65691 18.1834 8.41706L18.5893 7.42065C18.7185 7.1254 18.5709 6.7749 18.2756 6.64567C17.9804 6.51643 17.6299 6.66408 17.5007 6.95934L17.0948 7.95574C17.0025 8.28798 17.1317 8.62023 17.4268 8.74927L17.4269 8.7493Z" fill="#BE55BE"/>
</svg>
