<svg width="28" height="28" viewBox="0 0 28 28" fill="none" xmlns="http://www.w3.org/2000/svg">
<circle cx="14" cy="14" r="14" fill="#B0C6F2"/>
<path d="M17.2247 7.375C15.4457 7.375 14.175 8.96141 12.9043 10.1303C13.0737 10.1303 13.3278 10.0468 13.582 10.0468C14.0056 10.0468 14.4291 10.1303 14.8527 10.2973C15.5304 9.62937 16.2081 8.87791 17.2247 8.87791C17.733 8.87791 18.326 9.1284 18.7496 9.46238C19.5968 10.2973 19.5968 11.6333 18.7496 12.4682L16.547 14.6391C16.2081 14.9731 15.5304 15.2235 15.0221 15.2235C13.8361 15.2235 13.2431 14.4721 12.8195 13.5536L11.7182 14.6391C12.396 15.8915 13.4125 16.81 14.9374 16.81C15.954 16.81 16.8859 16.3925 17.4789 15.7245L19.6815 13.5536C20.4439 12.8022 20.9522 11.8837 20.9522 10.7983C20.7828 8.96141 19.0885 7.375 17.2247 7.375V7.375ZM13.582 17.4779L12.8195 18.2294C12.4807 18.5634 11.803 18.8138 11.2947 18.8138C10.7864 18.8138 10.1934 18.5634 9.7698 18.2294C8.92265 17.3944 8.92265 15.975 9.7698 15.2235L11.9724 13.0527C12.3113 12.7187 12.989 12.4682 13.4973 12.4682C14.6833 12.4682 15.2763 13.3032 15.6999 14.1381L16.8012 13.0527C16.1234 11.8002 15.1069 10.8818 13.582 10.8818C12.5654 10.8818 11.6335 11.2993 11.0405 11.9672L8.83793 14.1381C7.39777 15.5575 7.39777 17.8119 8.83793 19.1478C10.1934 20.4837 12.5654 20.5672 13.8361 19.1478L15.4457 17.5614C15.1916 17.6449 14.9374 17.6449 14.6833 17.6449C14.2597 17.6449 13.9208 17.6449 13.582 17.4779V17.4779Z" fill="#4776D1"/>
</svg>
