<svg width="90" height="46" viewBox="0 0 90 46" fill="none" xmlns="http://www.w3.org/2000/svg">
<rect y="3" width="90" height="40" rx="20" fill="#FF6224"/>
<path d="M24.504 30.112C23.4213 30.112 22.5627 29.7573 21.928 29.048C21.3307 28.3387 21.032 27.48 21.032 26.472V25.968C21.032 25.1467 21.1813 24.288 21.48 23.392C21.7787 22.496 22.1707 21.6 22.656 20.704C23.1787 19.808 23.776 18.968 24.448 18.184C25.1573 17.4 25.904 16.7093 26.688 16.112H29.488C28.2187 17.232 27.1547 18.408 26.296 19.64C25.4373 20.8347 24.8773 21.9733 24.616 23.056H24.728C25.7733 23.056 26.576 23.392 27.136 24.064C27.696 24.736 27.976 25.5013 27.976 26.36V26.696C27.976 27.6667 27.6587 28.488 27.024 29.16C26.3893 29.7947 25.5493 30.112 24.504 30.112ZM35.368 30.112C34.2853 30.112 33.4267 29.7573 32.792 29.048C32.1947 28.3387 31.896 27.48 31.896 26.472V25.968C31.896 25.1467 32.0453 24.288 32.344 23.392C32.6427 22.496 33.0347 21.6 33.52 20.704C34.0427 19.808 34.64 18.968 35.312 18.184C36.0213 17.4 36.768 16.7093 37.552 16.112H40.352C39.0827 17.232 38.0187 18.408 37.16 19.64C36.3013 20.8347 35.7413 21.9733 35.48 23.056H35.592C36.6373 23.056 37.44 23.392 38 24.064C38.56 24.736 38.84 25.5013 38.84 26.36V26.696C38.84 27.6667 38.5227 28.488 37.888 29.16C37.2533 29.7947 36.4133 30.112 35.368 30.112Z" fill="white"/>
<path d="M64.496 15.888C65.5787 15.888 66.4373 16.2427 67.072 16.952C67.6693 17.6613 67.968 18.52 67.968 19.528L67.968 20.032C67.968 20.8533 67.8187 21.712 67.52 22.608C67.2213 23.504 66.8293 24.4 66.344 25.296C65.8213 26.192 65.224 27.032 64.552 27.816C63.8427 28.6 63.096 29.2907 62.312 29.888L59.512 29.888C60.7813 28.768 61.8453 27.592 62.704 26.36C63.5627 25.1653 64.1227 24.0267 64.384 22.944L64.272 22.944C63.2267 22.944 62.424 22.608 61.864 21.936C61.304 21.264 61.024 20.4987 61.024 19.64L61.024 19.304C61.024 18.3333 61.3413 17.512 61.976 16.84C62.6107 16.2053 63.4507 15.888 64.496 15.888ZM53.632 15.888C54.7147 15.888 55.5733 16.2427 56.208 16.952C56.8053 17.6613 57.104 18.52 57.104 19.528L57.104 20.032C57.104 20.8533 56.9547 21.712 56.656 22.608C56.3573 23.504 55.9653 24.4 55.48 25.296C54.9573 26.192 54.36 27.032 53.688 27.816C52.9787 28.6 52.232 29.2907 51.448 29.888L48.648 29.888C49.9173 28.768 50.9813 27.592 51.84 26.36C52.6987 25.1653 53.2587 24.0267 53.52 22.944L53.408 22.944C52.3627 22.944 51.56 22.608 51 21.936C50.44 21.264 50.16 20.4987 50.16 19.64L50.16 19.304C50.16 18.3333 50.4773 17.512 51.112 16.84C51.7467 16.2053 52.5867 15.888 53.632 15.888Z" fill="white"/>
</svg>
