<svg width="18" height="18" viewBox="0 0 18 18" fill="none" xmlns="http://www.w3.org/2000/svg">
<path d="M16.8285 15.6379L13.6304 12.6289C16.2742 9.41387 15.7625 4.75618 12.4364 2.20063C9.11034 -0.35492 4.33445 0.139703 1.69066 3.31353C-0.953141 6.48736 -0.441439 11.1863 2.84199 13.7418C5.65635 15.9264 9.62205 15.9264 12.4364 13.7418L15.5919 16.792C15.933 17.1217 16.4447 17.1217 16.7859 16.792C17.127 16.4622 17.127 15.9676 16.8285 15.6379ZM7.66052 13.7418C4.3771 13.7418 1.69066 11.145 1.69066 7.97122C1.69066 4.7974 4.3771 2.20063 7.66052 2.20063C10.9439 2.20063 13.6304 4.7974 13.6304 7.97122C13.6304 11.145 10.9866 13.7418 7.66052 13.7418Z" fill="white"/>
</svg>
