<svg width="20" height="20" viewBox="0 0 20 20" fill="none" xmlns="http://www.w3.org/2000/svg">
<path d="M7.20859 12.4172H12.7914C13.3656 12.4172 13.7215 11.7963 13.4344 11.3006L10.6429 6.46626C10.3558 5.97055 9.64049 5.97055 9.35583 6.46626L6.56442 11.3006C6.2773 11.7963 6.63681 12.4172 7.20736 12.4172H7.20859ZM10 0C4.47853 0 0 4.47853 0 10C0 15.5215 4.47853 20 10 20C15.5215 20 20 15.5215 20 10C20 4.47853 15.5215 0 10 0ZM10.0258 4.57423C13.0233 4.58896 15.4405 7.02945 15.4258 10.027C15.411 13.0245 12.9706 15.4417 9.97301 15.427C6.97546 15.4123 4.55828 12.9718 4.57301 9.97423C4.58773 6.97669 7.02822 4.55951 10.0258 4.57423ZM2.89325 13.0748C2.8319 13.0957 2.77423 13.1043 2.71411 13.1043C2.47117 13.1043 2.24172 12.9472 2.16319 12.7043C1.8908 11.8663 1.7546 10.9656 1.7546 10.0258C1.7546 9.50429 1.79755 8.95951 1.88466 8.41104C2.53988 5.08344 5.09571 2.51534 8.4 1.8454C8.71534 1.7816 9.02086 1.98405 9.08466 2.29816C9.14847 2.61227 8.94601 2.91902 8.6319 2.98282C5.78896 3.55706 3.58896 5.7681 3.02945 8.61227C2.95706 9.07853 2.91902 9.56319 2.91902 10.0233C2.91902 10.838 3.03804 11.6209 3.27239 12.3423C3.37055 12.6466 3.20614 12.9742 2.89816 13.0724L2.89202 13.0748H2.89325ZM16.3252 15.4687C14.8 17.2834 12.6061 18.2798 10.1485 18.2798C7.6908 18.2798 5.35951 17.2687 3.77423 15.5055C3.55951 15.2675 3.58037 14.8994 3.81718 14.6883C4.05521 14.4736 4.42331 14.4945 4.63436 14.7325C5.97914 16.2282 8.03681 17.1239 10.1448 17.1239C12.2528 17.1239 14.1337 16.2724 15.4344 14.7239C15.6405 14.481 16.0049 14.4454 16.2515 14.654C16.4982 14.8601 16.5264 15.2245 16.3215 15.4712L16.3239 15.4687H16.3252ZM17.8933 12.6663C17.8098 12.9067 17.5865 13.0552 17.3448 13.0552C17.281 13.0552 17.2172 13.0429 17.1534 13.0233C16.8515 12.919 16.692 12.589 16.7963 12.2847C16.8982 11.989 16.9902 11.6785 17.0663 11.3595C17.1534 10.9215 17.2 10.4528 17.2 9.98896C17.2 6.5865 14.7742 3.63804 11.4294 2.97791C11.1166 2.91656 10.8994 2.61227 10.9571 2.29939C11.0147 1.9865 11.3043 1.77791 11.6147 1.83313C11.6209 1.83313 11.6466 1.83926 11.6528 1.84172C15.5362 2.60736 18.3571 6.03558 18.3571 9.98896C18.3571 10.5276 18.3043 11.0736 18.1975 11.6061C18.108 11.9853 18.0061 12.3337 17.8908 12.6675H17.8933V12.6663Z" fill="#EF5B3E"/>
</svg>
