<svg width="55" height="40" viewBox="0 0 55 40" fill="none" xmlns="http://www.w3.org/2000/svg">
<path opacity="0.7" fill-rule="evenodd" clip-rule="evenodd" d="M24.1322 6.45239C21.2576 8.18283 19.1694 11.2664 19.1694 15.6621V19.1612L16.0828 17.5963C12.053 15.5533 7.41665 17.196 5.23892 21.0599C3.93793 23.3684 3.86915 26.8917 5.47247 29.8722C7.0047 32.7208 10.1105 35.1246 15.3302 35.1246H41.7757C45.2223 35.1246 47.452 34.159 48.7896 32.9623C50.1222 31.7704 50.7344 30.2089 50.7344 28.6371C50.7344 27.0098 50.0796 25.1931 48.7993 23.8951C47.5774 22.6566 45.6804 21.7797 42.8933 22.1328L39.8903 22.5136L40.5468 19.518C41.3287 15.9503 41.0855 12.9986 40.0526 10.7296C39.0373 8.49935 37.1579 6.70086 34.202 5.57694C30.8739 4.3115 27.0711 4.68331 24.1322 6.45239ZM21.9548 2.73337C26.0061 0.294612 31.1607 -0.198534 35.6998 1.52732C39.5686 2.99838 42.3813 5.52487 43.9254 8.91714C45.1237 11.5494 45.4942 14.5605 45.1512 17.7735C47.902 18.0071 50.1544 19.1531 51.8151 20.8366C53.9478 22.9986 55 25.9395 55 28.6371C55 31.3903 53.9053 34.1538 51.6117 36.2057C49.3231 38.2529 46.0073 39.4497 41.7757 39.4497H15.3302C8.60618 39.4497 4.03415 36.231 1.7277 31.9431C-0.507703 27.7875 -0.576099 22.6607 1.53543 18.9141C4.26767 14.0662 9.75992 11.4386 15.1586 12.693C15.9555 8.19075 18.5517 4.78186 21.9548 2.73337Z" fill="#EF5B3E"/>
</svg>
