<svg width="33" height="33" viewBox="0 0 33 33" fill="none" xmlns="http://www.w3.org/2000/svg">
<circle cx="16.5" cy="16.5" r="16.5" fill="#FDE8BE"/>
<path fill-rule="evenodd" clip-rule="evenodd" d="M26.9238 13.9369C27.3786 15.1878 27.6062 16.4386 27.6062 17.8032C27.6062 19.1677 27.3788 20.4186 26.9238 21.6695L23.1712 20.0775C23.5123 19.3951 23.626 18.5993 23.626 17.8031C23.626 17.0071 23.5123 16.2112 23.1712 15.5288L26.9238 13.9369Z" fill="#ECA313"/>
<path fill-rule="evenodd" clip-rule="evenodd" d="M21.2379 7.90967C23.6259 9.04685 25.559 10.9799 26.6961 13.3679L22.9435 14.9599V14.7325L25.2179 12.0034L22.1476 13.5954C21.5791 12.7993 20.6694 12.1171 19.6459 11.6623L21.2379 7.90967Z" fill="#ECA313"/>
<path fill-rule="evenodd" clip-rule="evenodd" d="M10.435 15.5287C10.0939 16.211 9.98018 17.0069 9.98018 17.803C9.98018 18.5991 10.0939 19.395 10.435 20.0774L6.68237 21.6694C6.22757 20.4185 6 19.1676 6 17.8031C6 16.4385 6.2274 15.1876 6.68237 13.9368L10.435 15.5287Z" fill="#ECA313"/>
<path fill-rule="evenodd" clip-rule="evenodd" d="M13.9602 11.6626C12.4819 12.345 11.3448 13.482 10.6624 14.9604L6.90979 13.3684C8.04697 10.9803 9.98003 9.04729 12.368 7.91016L13.96 11.6628L13.9602 11.6626Z" fill="#ECA313"/>
<path fill-rule="evenodd" clip-rule="evenodd" d="M16.8029 7C18.1675 7 19.4184 7.2274 20.6692 7.68237L19.0773 11.435C18.3949 11.0939 17.599 10.9802 16.8029 10.9802C16.0068 10.9802 15.2109 11.0939 14.5285 11.435L12.9366 7.68237C14.1874 7.22757 15.4383 7 16.8029 7H16.8029Z" fill="#ECA313"/>
<path fill-rule="evenodd" clip-rule="evenodd" d="M23.8534 13.1407L21.1242 16.3247C20.2145 17.3482 19.3049 18.3716 18.5088 19.3949C16.6894 21.8967 13.3918 18.7125 16.5758 17.0069L23.8534 13.1407H23.8534ZM16.8029 17.8033C17.3714 17.8033 17.7127 18.2581 17.7127 18.7131C17.7127 19.2816 17.3716 19.7366 16.8029 19.7366C16.2344 19.7366 15.8932 19.2818 15.8932 18.7131C15.8932 18.2583 16.2343 17.8033 16.8029 17.8033Z" fill="#ECA313"/>
</svg>
