<svg width="32" height="32" viewBox="0 0 32 32" fill="none" xmlns="http://www.w3.org/2000/svg">
<circle cx="16" cy="16" r="16" fill="#CEC6F6"/>
<path d="M23.3987 16.0117C23.3987 20.1689 20.0288 23.5387 15.8717 23.5387C11.7146 23.5387 8.34473 20.1689 8.34473 16.0117C8.34473 11.8546 11.7146 8.48474 15.8717 8.48474C20.0288 8.48474 23.3987 11.8546 23.3987 16.0117Z" stroke="#7E6CDA" stroke-width="1.35486" stroke-linejoin="round"/>
<path d="M11.3554 16.0002C11.3554 17.6631 10.0074 19.011 8.34482 19.011C6.68196 19.011 5.33398 17.6631 5.33398 16.0002C5.33398 14.3376 6.68196 12.9896 8.34482 12.9896C10.0074 12.9896 11.3554 14.3376 11.3554 16.0002Z" fill="#7E6CDA"/>
<path d="M23.0976 9.67758C23.0976 11.3402 21.7499 12.6882 20.087 12.6882C18.4241 12.6882 17.0762 11.3402 17.0762 9.67758C17.0762 8.01472 18.4241 6.66675 20.087 6.66675C21.7499 6.66675 23.0976 8.01472 23.0976 9.67758Z" fill="#7E6CDA"/>
<path d="M23.0976 22.3226C23.0976 23.9855 21.7499 25.3334 20.087 25.3334C18.4241 25.3334 17.0762 23.9855 17.0762 22.3226C17.0762 20.6597 18.4241 19.3118 20.087 19.3118C21.7499 19.3118 23.0976 20.6597 23.0976 22.3226Z" fill="#7E6CDA"/>
</svg>
