<svg width="33" height="33" viewBox="0 0 33 33" fill="none" xmlns="http://www.w3.org/2000/svg">
<circle cx="16.5" cy="16.5" r="16.5" fill="#FDD9BE"/>
<path d="M10.0102 22.0907C9.9259 22.6246 10.3754 23.0741 10.9093 22.9898C12.1175 22.8212 13.1852 22.2593 14 21.4444L11.5556 19C10.7408 19.8148 10.1788 20.8825 10.0103 22.0907L10.0102 22.0907Z" fill="#EC6D13"/>
<path d="M24.2687 9.92409C24.3006 9.41518 23.8553 8.96984 23.3462 9.0016C19.7837 9.16066 16.6029 10.5602 14.2487 12.8504C12.531 12.3732 9.95429 12.5005 9.00031 14.918C9.79548 15.1406 10.7499 15.5542 11.7041 16.1903C11.6722 16.2539 11.6405 16.3175 11.6086 16.3811C11.4178 16.731 11.5131 17.1446 11.7677 17.3989L15.8709 21.5022C16.1571 21.7884 16.5707 21.852 16.8887 21.6612C16.9523 21.6293 17.0159 21.5976 17.0795 21.5657C17.7157 22.52 18.1292 23.4743 18.3518 24.2695C20.8011 23.2198 20.8966 20.7386 20.4194 19.0211C22.7098 16.6675 24.1096 13.4865 24.2685 9.92392L24.2687 9.92409ZM18.8611 11.8008C19.5926 11.0693 20.7378 11.0693 21.4694 11.8008C22.2009 12.5324 22.2009 13.6776 21.4694 14.4091C20.7378 15.1407 19.5926 15.1407 18.8611 14.4091C18.1294 13.6776 18.1612 12.5005 18.8611 11.8008Z" fill="#EC6D13"/>
</svg>
