<svg width="28" height="28" viewBox="0 0 28 28" fill="none" xmlns="http://www.w3.org/2000/svg">
<circle cx="14" cy="14" r="14" fill="#FDD9BE"/>
<path d="M9.59099 14.3865H7.04688C7.10289 15.3658 7.34161 16.3058 7.76655 17.1715H10.1441C9.81324 16.286 9.6304 15.3461 9.59099 14.3865ZM7.83397 10.7899C7.69335 11.0588 7.56977 11.3378 7.46421 11.6259C7.46139 11.6336 7.45858 11.6414 7.45562 11.6494C7.28475 12.1308 7.16201 12.6301 7.09501 13.1378C7.09248 13.1571 7.09009 13.1763 7.08769 13.1956C7.06911 13.3462 7.05546 13.4974 7.04688 13.6491H9.59099C9.64856 12.6714 9.85279 11.715 10.22 10.7899H7.83397ZM11.7711 19.8101C11.236 19.2373 10.811 18.5937 10.4604 17.8909H8.19134C8.33463 18.1178 8.4903 18.3385 8.66075 18.5502C8.79587 18.7179 8.94029 18.8798 9.09526 19.0349C10.0059 19.9452 11.1163 20.5702 12.3234 20.8757C12.3375 20.8793 12.3516 20.8828 12.3657 20.8863C12.6117 20.9469 12.8617 20.9944 13.1147 21.0282C13.1147 21.0282 13.1361 21.0085 13.1543 21.0085C12.657 20.6761 12.1959 20.2711 11.7711 19.8101ZM13.1147 7.08299V7.06731C11.1111 7.34307 9.3762 8.46094 8.27875 10.0525H10.5526C10.8654 9.42539 11.2705 8.83608 11.7711 8.30109C12.1959 7.84027 12.657 7.43196 13.1543 7.10119C13.1361 7.10119 13.1147 7.10119 13.1147 7.08299ZM10.4061 14.4063C10.4406 15.3461 10.6431 16.3058 11.0136 17.1715H13.6153V14.4063H10.4061ZM11.0878 10.8096C10.6827 11.715 10.4604 12.6911 10.4061 13.6689H13.6153V10.8096H11.0878ZM11.3808 17.9106C11.6574 18.3913 11.9737 18.8703 12.3589 19.2751C12.7475 19.7 13.1543 20.0687 13.6153 20.3649V17.9106H11.3808ZM12.3589 8.85414C12.0263 9.22285 11.7151 9.64754 11.473 10.0722H13.6153V7.78428C13.1543 8.07894 12.7475 8.43113 12.3589 8.85414ZM14.3332 17.9106V20.4175C14.8124 20.1065 15.2553 19.718 15.6621 19.2751C16.049 18.8521 16.3833 18.3913 16.6582 17.9106H14.3332ZM14.3332 14.4063V17.1715H17.009C17.3779 16.286 17.5803 15.3461 17.6183 14.4063H14.3332ZM15.6818 8.83608C15.2767 8.39165 14.8321 8.02295 14.3529 7.71009V10.0525H16.5859C16.3256 9.6278 16.0326 9.22285 15.6818 8.83608ZM16.9529 10.7899H14.3529V13.6491H17.6363C17.5803 12.6714 17.3597 11.6953 16.9529 10.7899ZM16.8871 7.57991C16.8676 7.57138 16.8481 7.56312 16.8285 7.55486L16.8006 7.5431C16.7818 7.53526 16.7628 7.52742 16.7438 7.51972C16.7253 7.51216 16.7069 7.50475 16.6885 7.49761C16.6706 7.49047 16.6527 7.48347 16.6347 7.47661C16.6167 7.46961 16.5987 7.46275 16.5806 7.45589C16.5638 7.44945 16.5469 7.44315 16.5298 7.437C16.0043 7.24355 15.4536 7.11211 14.8865 7.04688L14.9062 7.10119C14.9062 7.10119 14.8865 7.10119 14.8701 7.12092C15.3657 7.45169 15.8465 7.84027 16.2713 8.30109C16.7504 8.83608 17.1555 9.44513 17.4716 10.0722H19.9047C19.1581 8.98166 18.1129 8.11169 16.8871 7.57991ZM21.0708 13.1074C21.0705 13.1057 21.0704 13.1039 21.0701 13.1021C21.0681 13.0871 21.066 13.0721 21.0639 13.0573C21.0624 13.0459 21.0607 13.0347 21.059 13.0234C21.0393 12.8886 21.0159 12.7551 20.9886 12.6229C20.9855 12.6077 20.9823 12.5924 20.979 12.5772C20.9723 12.5447 20.9651 12.5121 20.9575 12.4797C20.954 12.4638 20.9503 12.448 20.9467 12.4321C20.9389 12.399 20.9309 12.3659 20.9226 12.333C20.9189 12.3181 20.9151 12.3031 20.9112 12.2881C20.9032 12.2563 20.8947 12.2246 20.886 12.1929C20.8818 12.1771 20.8773 12.1613 20.8729 12.1455C20.8532 12.0751 20.8325 12.0052 20.8107 11.9358C20.7738 11.8181 20.7338 11.7017 20.6911 11.5868C20.6656 11.5186 20.6391 11.451 20.6117 11.3838C20.5288 11.181 20.4366 10.9828 20.3358 10.7899H17.8027C18.1699 11.715 18.374 12.6911 18.43 13.6689H21.1222C21.1121 13.4802 21.095 13.293 21.0708 13.1074ZM18.43 14.3865C18.3921 15.3461 18.2093 16.286 17.8767 17.1715H20.4043C20.5835 16.8062 20.7329 16.4278 20.8483 16.0388C20.8526 16.0244 20.8569 16.01 20.8609 15.9956C20.8633 15.9875 20.8656 15.9795 20.868 15.9714C20.9783 15.5853 21.0553 15.1889 21.0952 14.7849C21.1083 14.6529 21.1173 14.5201 21.1222 14.3865H18.43ZM17.5458 17.9106C17.2115 18.5937 16.7883 19.2373 16.2516 19.8283C15.83 20.2891 15.3657 20.6761 14.8701 21.0085C14.8865 21.0282 14.926 21.0448 14.9424 21.0448C15.0172 21.0359 15.0919 21.0259 15.1662 21.0147C15.1673 21.0145 15.1683 21.0144 15.1695 21.0141C15.1838 21.012 15.1983 21.0098 15.2127 21.0074C15.2283 21.005 15.2438 21.0025 15.2591 21C15.2742 20.9976 15.2892 20.9951 15.3042 20.9924C15.3171 20.9902 15.3302 20.9879 15.3431 20.9855C16.8993 20.7052 18.2778 19.9139 19.2992 18.7917C19.3062 18.784 19.3132 18.7761 19.3201 18.7683C19.5607 18.4977 19.7864 18.2144 19.9779 17.9106H17.5458Z" fill="#FB9D5A"/>
</svg>
