<svg width="32" height="32" viewBox="0 0 32 32" fill="none" xmlns="http://www.w3.org/2000/svg">
<circle cx="16" cy="16" r="16" fill="#FDE8BE"/>
<path d="M14.7082 8.0007C14.5287 8.01363 14.3693 8.11802 14.2887 8.27572C14.208 8.43329 14.218 8.62082 14.3147 8.7694C14.4116 8.918 14.5811 9.00589 14.761 9.00061H17.2246C17.3619 9.00352 17.4946 8.95218 17.5929 8.85809C17.6911 8.76399 17.7465 8.63519 17.7465 8.50059C17.7465 8.36611 17.6911 8.23718 17.5929 8.14308C17.4946 8.04899 17.3619 7.99766 17.2246 8.00069H14.761C14.7433 7.99977 14.7257 7.99977 14.7082 8.00069L14.7082 8.0007ZM17.2813 9.99962C17.2625 9.99923 17.2435 9.99989 17.2246 10.0016H14.761C14.7433 10.0007 14.7257 10.0007 14.7082 10.0016C14.536 10.0227 14.3866 10.1282 14.3115 10.2814C14.2363 10.4346 14.2459 10.6147 14.3368 10.7595C14.4277 10.9044 14.5874 10.994 14.761 10.9976H17.2246C17.3622 11.0094 17.4989 10.966 17.6033 10.8775C17.7078 10.7888 17.7711 10.6625 17.7788 10.5274C17.7866 10.3922 17.7379 10.2597 17.6442 10.1602C17.5504 10.0609 17.4196 10.0028 17.2813 9.99962L17.2813 9.99962ZM14.761 11.9976C14.6249 11.9971 14.4942 12.0498 14.398 12.144C14.3018 12.2382 14.2481 12.3662 14.2486 12.4995V17.1576H12.6733C12.5418 17.1568 12.4151 17.2059 12.3198 17.2943C12.2242 17.3829 12.1672 17.504 12.1608 17.6326C12.1542 17.7612 12.1985 17.8873 12.2845 17.9847L15.6045 21.756C15.7015 21.8659 15.8424 21.9291 15.9907 21.9291C16.1392 21.9291 16.2801 21.8659 16.3771 21.756L19.6971 17.9847C19.7831 17.8873 19.8274 17.7612 19.8208 17.6326C19.8144 17.504 19.7574 17.3829 19.6618 17.2943C19.5664 17.2059 19.4398 17.1568 19.3083 17.1576H17.734V12.4995C17.7346 12.3667 17.6811 12.2393 17.5856 12.145C17.49 12.0509 17.3601 11.9979 17.2246 11.9976L14.761 11.9976ZM22.114 19.6145V19.6144C21.9774 19.6155 21.847 19.6701 21.7517 19.766C21.6566 19.8621 21.6046 19.9914 21.6075 20.1251V22.4356C21.6075 22.7559 21.3583 23.0001 21.0313 23.0001H10.9506C10.6236 23.0001 10.3744 22.7559 10.3744 22.4356V20.1251C10.3771 19.9899 10.3237 19.8592 10.2264 19.7631C10.129 19.6672 9.99618 19.6137 9.85793 19.6155C9.72252 19.618 9.59371 19.6731 9.49994 19.7687C9.40603 19.8644 9.35483 19.9925 9.35752 20.1251V22.4356C9.35752 23.2926 10.0758 24 10.9507 24H21.0314C21.9063 24 22.6285 23.2925 22.6285 22.4356V20.1251C22.6315 19.99 22.5784 19.8595 22.4815 19.7633C22.3847 19.6671 22.2521 19.6134 22.1141 19.6144L22.114 19.6145Z" fill="#ECA313"/>
</svg>
