<svg width="30" height="30" viewBox="0 0 30 30" fill="none" xmlns="http://www.w3.org/2000/svg">
<circle cx="15" cy="15" r="15" fill="#FDC9BE"/>
<path d="M21.8198 19.3627C22.4248 19.9642 22.4004 20.9265 21.7955 21.5521C21.1662 22.1533 20.197 22.1533 19.592 21.5279L11.9651 13.7568C11.3105 13.1311 10.9238 12.9385 10.3911 13.1068C9.85834 13.2995 9.10732 13.2995 8.40489 12.8421C6.90387 11.8801 7.00129 10.0753 7.00129 10.0753L7.12213 9.88265C7.12213 9.88265 8.47801 10.7488 8.64758 10.8453C8.86586 11.0136 9.61588 11.3506 10.2939 10.3159C10.9962 9.28127 10.4156 8.63195 10.2219 8.51139C10.0523 8.41508 8.69642 7.52525 8.69642 7.52525L8.81727 7.3325C8.81727 7.3325 10.3913 6.53836 11.868 7.40467C11.868 7.45308 12.2315 7.66947 12.3766 7.78979C13.3215 8.63184 13.3215 9.5702 13.1519 10.3402C13.0059 11.038 13.1519 11.2785 13.7082 11.8802L21.8198 19.3627ZM21.2626 19.8679C20.9479 19.555 20.4394 19.555 20.1006 19.8679C19.8103 20.1806 19.8103 20.71 20.1006 20.9983C20.4396 21.3115 20.948 21.3594 21.2626 21.0225C21.5772 20.734 21.5772 20.1805 21.2626 19.8679V19.8679Z" fill="#EF5B3E"/>
</svg>
