<svg width="18" height="18" viewBox="0 0 18 18" fill="none" xmlns="http://www.w3.org/2000/svg">
<path fill-rule="evenodd" clip-rule="evenodd" d="M13.1667 2.5C12.4593 3.20733 11.14 3.14 10 2L9 2.99933L14.3333 8.33267L16.6667 5.99933L13.1667 2.5Z" stroke="#1866D4" stroke-linecap="round" stroke-linejoin="round"/>
<path d="M8.95893 7.62539L6.43026 5.09739C6.88737 4.08638 6.67069 2.89797 5.88621 2.11334C5.10172 1.3287 3.91335 1.1118 2.90226 1.56872L4.33293 2.99872V4.33205H2.99959L1.56893 2.90205C1.11182 3.91306 1.32849 5.10146 2.11298 5.8861C2.89747 6.67074 4.08583 6.88763 5.09693 6.43072L7.62559 8.95872" stroke="#1866D4" stroke-linecap="round" stroke-linejoin="round"/>
<path d="M9.03906 10.3731L11.5677 12.9017C11.1106 13.9127 11.3273 15.1011 12.1118 15.8858C12.8963 16.6704 14.0846 16.8873 15.0957 16.4304L13.6651 14.9984V13.6651H14.9984L16.4291 15.0964C16.8862 14.0854 16.6695 12.897 15.885 12.1123C15.1005 11.3277 13.9122 11.1108 12.9011 11.5677L10.3724 9.03906" stroke="#1866D4" stroke-linecap="round" stroke-linejoin="round"/>
<path d="M11.2917 5.29297L1.62502 14.9596C1.23437 15.3503 1.23437 15.9837 1.62502 16.3743C2.01567 16.765 2.64904 16.765 3.03968 16.3743L12.7064 6.70764" stroke="#1866D4" stroke-linecap="round" stroke-linejoin="round"/>
</svg>
