<svg width="22" height="22" viewBox="0 0 27 22" fill="none" xmlns="http://www.w3.org/2000/svg">
<g id="Group">
<g id="hierarchy-7">
<path id="Oval" fill-rule="evenodd" clip-rule="evenodd" d="M4.7474 20.5807C6.58834 20.5807 8.08073 19.0883 8.08073 17.2474C8.08073 15.4064 6.58834 13.9141 4.7474 13.9141C2.90645 13.9141 1.41406 15.4064 1.41406 17.2474C1.41406 19.0883 2.90645 20.5807 4.7474 20.5807Z" stroke="#1866D4" stroke-linecap="round" stroke-linejoin="round"/>
<path id="Oval_2" fill-rule="evenodd" clip-rule="evenodd" d="M17.2474 20.5807C19.0883 20.5807 20.5807 19.0883 20.5807 17.2474C20.5807 15.4064 19.0883 13.9141 17.2474 13.9141C15.4064 13.9141 13.9141 15.4064 13.9141 17.2474C13.9141 19.0883 15.4064 20.5807 17.2474 20.5807Z" stroke="#1866D4" stroke-linecap="round" stroke-linejoin="round"/>
<path id="Oval_3" fill-rule="evenodd" clip-rule="evenodd" d="M10.9974 8.08073C12.8383 8.08073 14.3307 6.58834 14.3307 4.7474C14.3307 2.90645 12.8383 1.41406 10.9974 1.41406C9.15645 1.41406 7.66406 2.90645 7.66406 4.7474C7.66406 6.58834 9.15645 8.08073 10.9974 8.08073Z" stroke="#1866D4" stroke-linecap="round" stroke-linejoin="round"/>
<path id="Shape" d="M8.07812 17.2461H13.9115" stroke="#1866D4" stroke-linecap="round" stroke-linejoin="round"/>
<path id="Shape_2" d="M12.6484 7.625L15.9234 14.1867" stroke="#1866D4" stroke-linecap="round" stroke-linejoin="round"/>
<path id="Shape_3" d="M9.33115 7.66406L6.07031 14.1857" stroke="#1866D4" stroke-linecap="round" stroke-linejoin="round"/>
</g>
</g>
</svg>
