<svg width="28" height="29" viewBox="0 0 28 29" fill="none" xmlns="http://www.w3.org/2000/svg">
<path d="M3.75992 5.93048C4.14989 6.32306 4.78281 6.32306 5.17278 5.93048C5.56276 5.53791 5.56276 4.90077 5.17278 4.5082L3.43947 2.76332C3.04949 2.37075 2.41658 2.37075 2.0266 2.76332C1.63662 3.1559 1.63662 3.79303 2.0266 4.18561L3.75992 5.93048ZM14.0008 3.75603C14.5522 3.75603 14.9997 3.30553 14.9997 2.75045V1.00558C14.9997 0.450498 14.5522 0 14.0008 0C13.4494 0 13.0019 0.450498 13.0019 1.00558V2.75045C13.0019 3.30553 13.4494 3.75603 14.0008 3.75603ZM24.2417 5.93048L25.975 4.18561C26.365 3.79303 26.365 3.1559 25.975 2.76332C25.585 2.37075 24.9521 2.37075 24.5621 2.76332L22.8288 4.5082C22.4388 4.90077 22.4388 5.53791 22.8288 5.93048C23.2188 6.32306 23.8517 6.32306 24.2417 5.93048ZM22.5451 21.7365L21.1147 10.0606C21.0108 9.21188 20.5665 8.42753 19.8656 7.85556C19.1648 7.28359 18.2562 6.96422 17.3124 6.95778H10.71C9.75741 6.95215 8.83601 7.26669 8.12478 7.83947C7.41275 8.41224 6.96124 9.20383 6.85656 10.0598L5.42451 21.7494C4.5143 21.9079 3.66402 22.3334 2.99515 22.9859C2.13129 23.8273 1.63902 24.9769 1.63902 26.1844C1.63902 26.943 1.94828 27.663 2.4877 28.1883C3.02552 28.712 3.74633 29 4.49192 29H23.5608C24.3056 29 25.0272 28.712 25.565 28.1883C26.1037 27.663 26.4137 26.943 26.4137 26.1844C26.4137 24.9777 25.9215 23.8281 25.0576 22.9859C24.3679 22.3141 23.4873 21.8821 22.5467 21.7357L22.5451 21.7365ZM9.57041 15.4159C10.0635 15.041 10.7651 15.1399 11.1375 15.6363L12.7581 17.7979L16.2048 11.647C16.5085 11.1056 17.1909 10.9133 17.7288 11.219C18.2666 11.5247 18.4568 12.2117 18.1539 12.7531L14.5178 19.2427C14.5178 19.2427 14.5146 19.2491 14.513 19.2515C14.3484 19.5395 14.1351 19.7761 13.8801 19.9563C13.6044 20.1501 13.288 20.2676 12.9627 20.2957C12.898 20.303 12.8333 20.3062 12.7685 20.3062C12.4968 20.3062 12.2267 20.2443 11.9766 20.1236C11.6889 19.9844 11.4316 19.768 11.2302 19.4977L9.35225 16.9926C8.97985 16.4963 9.07814 15.79 9.57121 15.4151L9.57041 15.4159ZM24.0067 26.5705C23.8941 26.6807 23.7334 26.7483 23.5592 26.7483H4.49032C4.31611 26.7483 4.15549 26.6807 4.04281 26.5705C3.93173 26.4619 3.87579 26.3228 3.87579 26.1852C3.87579 25.5995 4.11393 25.0308 4.55026 24.6052C4.98818 24.1789 5.58913 23.9327 6.22364 23.9327H21.8251C22.4596 23.9327 23.0606 24.1789 23.4985 24.6052C23.9348 25.0308 24.1738 25.5995 24.1738 26.1852C24.1738 26.3228 24.1178 26.4619 24.0067 26.5705ZM3.73115 12.1996C3.73115 11.6446 3.28363 11.1941 2.73223 11.1941H0.998915C0.447514 11.1941 0 11.6446 0 12.1996C0 12.7547 0.447514 13.2052 0.998915 13.2052H2.73223C3.28363 13.2052 3.73115 12.7547 3.73115 12.1996ZM27.0011 11.1941H25.2678C24.7164 11.1941 24.2689 11.6446 24.2689 12.1996C24.2689 12.7547 24.7164 13.2052 25.2678 13.2052H27.0011C27.5525 13.2052 28 12.7547 28 12.1996C28 11.6446 27.5525 11.1941 27.0011 11.1941Z" fill="url(#paint0_linear_29071_13676)"/>
<path d="M3.75992 5.93048C4.14989 6.32306 4.78281 6.32306 5.17278 5.93048C5.56276 5.53791 5.56276 4.90077 5.17278 4.5082L3.43947 2.76332C3.04949 2.37075 2.41658 2.37075 2.0266 2.76332C1.63662 3.1559 1.63662 3.79303 2.0266 4.18561L3.75992 5.93048ZM14.0008 3.75603C14.5522 3.75603 14.9997 3.30553 14.9997 2.75045V1.00558C14.9997 0.450498 14.5522 0 14.0008 0C13.4494 0 13.0019 0.450498 13.0019 1.00558V2.75045C13.0019 3.30553 13.4494 3.75603 14.0008 3.75603ZM24.2417 5.93048L25.975 4.18561C26.365 3.79303 26.365 3.1559 25.975 2.76332C25.585 2.37075 24.9521 2.37075 24.5621 2.76332L22.8288 4.5082C22.4388 4.90077 22.4388 5.53791 22.8288 5.93048C23.2188 6.32306 23.8517 6.32306 24.2417 5.93048ZM22.5451 21.7365L21.1147 10.0606C21.0108 9.21188 20.5665 8.42753 19.8656 7.85556C19.1648 7.28359 18.2562 6.96422 17.3124 6.95778H10.71C9.75741 6.95215 8.83601 7.26669 8.12478 7.83947C7.41275 8.41224 6.96124 9.20383 6.85656 10.0598L5.42451 21.7494C4.5143 21.9079 3.66402 22.3334 2.99515 22.9859C2.13129 23.8273 1.63902 24.9769 1.63902 26.1844C1.63902 26.943 1.94828 27.663 2.4877 28.1883C3.02552 28.712 3.74633 29 4.49192 29H23.5608C24.3056 29 25.0272 28.712 25.565 28.1883C26.1037 27.663 26.4137 26.943 26.4137 26.1844C26.4137 24.9777 25.9215 23.8281 25.0576 22.9859C24.3679 22.3141 23.4873 21.8821 22.5467 21.7357L22.5451 21.7365ZM9.57041 15.4159C10.0635 15.041 10.7651 15.1399 11.1375 15.6363L12.7581 17.7979L16.2048 11.647C16.5085 11.1056 17.1909 10.9133 17.7288 11.219C18.2666 11.5247 18.4568 12.2117 18.1539 12.7531L14.5178 19.2427C14.5178 19.2427 14.5146 19.2491 14.513 19.2515C14.3484 19.5395 14.1351 19.7761 13.8801 19.9563C13.6044 20.1501 13.288 20.2676 12.9627 20.2957C12.898 20.303 12.8333 20.3062 12.7685 20.3062C12.4968 20.3062 12.2267 20.2443 11.9766 20.1236C11.6889 19.9844 11.4316 19.768 11.2302 19.4977L9.35225 16.9926C8.97985 16.4963 9.07814 15.79 9.57121 15.4151L9.57041 15.4159ZM24.0067 26.5705C23.8941 26.6807 23.7334 26.7483 23.5592 26.7483H4.49032C4.31611 26.7483 4.15549 26.6807 4.04281 26.5705C3.93173 26.4619 3.87579 26.3228 3.87579 26.1852C3.87579 25.5995 4.11393 25.0308 4.55026 24.6052C4.98818 24.1789 5.58913 23.9327 6.22364 23.9327H21.8251C22.4596 23.9327 23.0606 24.1789 23.4985 24.6052C23.9348 25.0308 24.1738 25.5995 24.1738 26.1852C24.1738 26.3228 24.1178 26.4619 24.0067 26.5705ZM3.73115 12.1996C3.73115 11.6446 3.28363 11.1941 2.73223 11.1941H0.998915C0.447514 11.1941 0 11.6446 0 12.1996C0 12.7547 0.447514 13.2052 0.998915 13.2052H2.73223C3.28363 13.2052 3.73115 12.7547 3.73115 12.1996ZM27.0011 11.1941H25.2678C24.7164 11.1941 24.2689 11.6446 24.2689 12.1996C24.2689 12.7547 24.7164 13.2052 25.2678 13.2052H27.0011C27.5525 13.2052 28 12.7547 28 12.1996C28 11.6446 27.5525 11.1941 27.0011 11.1941Z" fill="#FA6D1D"/>
<defs>
<linearGradient id="paint0_linear_29071_13676" x1="14.0048" y1="0.459875" x2="14.0048" y2="38.9268" gradientUnits="userSpaceOnUse">
<stop stop-color="#F9C84C"/>
<stop offset="0.27624" stop-color="#F1A03B"/>
<stop offset="0.57" stop-color="#F17A31"/>
<stop offset="0.84" stop-color="#F0632A"/>
<stop offset="1" stop-color="#F05A28"/>
</linearGradient>
</defs>
</svg>
