<svg width="32" height="32" viewBox="0 0 32 32" fill="none" xmlns="http://www.w3.org/2000/svg">
<circle cx="16" cy="16" r="16" fill="#FDBEC4"/>
<path d="M25.3117 14.7685C25.2732 14.4275 25.2348 14.0107 25.0811 13.556C24.9659 13.1013 24.7738 12.6087 24.5048 12.0782C24.2359 11.5477 23.8901 11.0172 23.4675 10.4867C23.3138 10.2973 23.1217 10.0699 22.8912 9.88044C23.1985 8.66789 22.507 7.6448 22.507 7.6448C21.3544 7.56902 20.5859 7.98583 20.317 8.21318C20.2786 8.21318 20.2402 8.17529 20.1633 8.1374C19.9712 8.06162 19.7791 7.98583 19.5486 7.91005C19.3181 7.83426 19.126 7.79637 18.8954 7.72059C18.6649 7.68269 18.4344 7.6448 18.2423 7.60691C18.2039 7.60691 18.1655 7.60691 18.127 7.60691C17.6276 6.01543 16.1676 5.33337 16.1676 5.33337C14.5539 6.35646 14.2466 7.75848 14.2466 7.75848C14.2466 7.75848 14.2466 7.79637 14.2466 7.83426C14.1697 7.87215 14.0545 7.87215 13.9776 7.91005C13.8624 7.94794 13.7471 7.98583 13.5934 8.02372C13.4782 8.06162 13.3629 8.09951 13.2092 8.17529C12.9787 8.28897 12.7097 8.40265 12.4792 8.51632C12.2487 8.63 12.0182 8.78157 11.7877 8.93314C11.7492 8.93314 11.7492 8.89525 11.7492 8.89525C9.48243 8.06162 7.48456 9.08471 7.48456 9.08471C7.29246 11.434 8.36823 12.9497 8.59875 13.215C8.56033 13.3665 8.48349 13.5181 8.44507 13.6697C8.29139 14.2002 8.13771 14.7685 8.06086 15.3369C8.06086 15.4127 8.02244 15.4885 8.02244 15.5643C5.94774 16.5874 5.33301 18.6714 5.33301 18.6714C7.06193 20.6418 9.09822 20.7555 9.09822 20.7555C9.36717 21.2102 9.6361 21.627 9.98189 22.0439C10.1356 22.1954 10.2893 22.3849 10.4045 22.5365C9.78979 24.3174 10.4814 25.7952 10.4814 25.7952C12.4024 25.871 13.6703 24.9616 13.9392 24.7342C14.1313 24.81 14.3234 24.8479 14.5155 24.9237C15.0918 25.0752 15.7065 25.151 16.3213 25.1889C16.475 25.1889 16.6286 25.1889 16.7823 25.1889H16.8592H16.8976H16.9744H17.0513C17.9733 26.4772 19.5486 26.6667 19.5486 26.6667C20.7012 25.492 20.7396 24.3174 20.7396 24.0521C20.7396 24.0143 20.7396 24.0143 20.7396 24.0143V23.9764C20.9701 23.8248 21.2007 23.6353 21.4312 23.4459C21.8922 23.0291 22.2764 22.5743 22.6222 22.0817C22.6606 22.0439 22.6991 22.006 22.6991 21.9302C24.0054 22.006 24.889 21.1344 24.889 21.1344C24.6585 19.8082 23.8901 19.164 23.7364 19.0504C23.7364 19.0504 23.7364 19.0504 23.698 19.0504C23.698 18.9746 23.698 18.8988 23.698 18.823C23.698 18.6714 23.698 18.5199 23.698 18.4062V18.2167V18.1788V18.141C23.698 18.1031 23.698 18.1031 23.698 18.1031V18.0273V17.9136C23.698 17.8757 23.698 17.8378 23.698 17.7999C23.698 17.762 23.698 17.7241 23.698 17.6862V17.5726V17.4589C23.6596 17.3073 23.6596 17.1558 23.6212 17.0421C23.4675 16.4737 23.2754 15.9432 22.968 15.4506C22.6606 14.958 22.3149 14.5412 21.8922 14.1623C21.4696 13.7833 21.0086 13.5181 20.5091 13.2907C20.0096 13.0634 19.5102 12.9497 18.9723 12.8739C18.7033 12.836 18.4728 12.836 18.2039 12.836H18.127H18.0886H18.0502H18.0118H17.9349C17.8965 12.836 17.8581 12.836 17.8197 12.836C17.7044 12.836 17.5507 12.8739 17.4355 12.8739C16.936 12.9497 16.4365 13.1392 16.0139 13.4044C15.5913 13.6697 15.2071 13.9728 14.8997 14.3138C14.5923 14.6549 14.3618 15.0717 14.2081 15.4885C14.0545 15.9053 13.9776 16.3221 13.9392 16.7389C13.9392 16.8526 13.9392 16.9284 13.9392 17.0421C13.9392 17.08 13.9392 17.08 13.9392 17.1179V17.1936C13.9392 17.2315 13.9392 17.3073 13.9392 17.3452C13.9776 17.5347 14.016 17.762 14.0545 17.9515C14.1697 18.3304 14.3618 18.6714 14.5539 18.9746C14.7844 19.2777 15.0534 19.5051 15.3223 19.6945C15.5913 19.884 15.8986 20.0356 16.206 20.1114C16.5134 20.1871 16.7823 20.225 17.0897 20.225C17.1281 20.225 17.1665 20.225 17.2049 20.225H17.2434H17.2818C17.3202 20.225 17.3586 20.225 17.3586 20.225C17.3586 20.225 17.3586 20.225 17.397 20.225H17.4355H17.4739C17.5123 20.225 17.5507 20.225 17.5891 20.225C17.6276 20.225 17.666 20.225 17.7044 20.1871C17.7813 20.1871 17.8197 20.1492 17.8965 20.1492C18.0118 20.1113 18.127 20.0735 18.2423 19.9977C18.3576 19.9598 18.4344 19.884 18.5497 19.8082C18.5881 19.8082 18.5881 19.7703 18.6265 19.7324C18.7418 19.6566 18.7418 19.5051 18.6649 19.4293C18.5881 19.3535 18.4728 19.3156 18.396 19.3914C18.3576 19.3914 18.3576 19.4293 18.3191 19.4293C18.2423 19.4672 18.1655 19.5051 18.0502 19.543C17.9734 19.5809 17.8581 19.5809 17.7812 19.6188C17.7428 19.6188 17.666 19.6188 17.6276 19.6188C17.5891 19.6188 17.5892 19.6188 17.5507 19.6188C17.5123 19.6188 17.5123 19.6188 17.4739 19.6188C17.4355 19.6188 17.4355 19.6188 17.397 19.6188C17.3586 19.6188 17.3202 19.6188 17.3202 19.6188H17.2818H17.2434C17.2049 19.6188 17.2049 19.6188 17.1665 19.6188C16.936 19.5809 16.7439 19.543 16.5134 19.4293C16.2828 19.3535 16.0907 19.2019 15.8986 19.0504C15.7065 18.8988 15.5529 18.6714 15.4376 18.482C15.3223 18.2925 15.2071 18.0273 15.1687 17.762C15.1302 17.6484 15.1302 17.4968 15.1302 17.3831C15.1302 17.3452 15.1302 17.3073 15.1302 17.2694V17.2315V17.1936C15.1302 17.1179 15.1302 17.0421 15.1687 16.9663C15.2839 16.3979 15.5529 15.8674 16.0139 15.4127C16.1292 15.299 16.2444 15.2233 16.3597 15.1096C16.475 15.0338 16.6286 14.958 16.7439 14.8822C16.8976 14.8064 17.0513 14.7685 17.1665 14.7307C17.3202 14.6928 17.4739 14.6549 17.6276 14.6549C17.7044 14.6549 17.7812 14.6549 17.8581 14.6549C17.8965 14.6549 17.8965 14.6549 17.8965 14.6549H17.9733H18.0118H18.0886C18.2423 14.6549 18.4344 14.6928 18.5881 14.7307C18.9339 14.8064 19.2412 14.9201 19.5486 15.1096C20.1633 15.4506 20.6628 15.9811 21.0086 16.5874C21.1623 16.8905 21.2775 17.2315 21.3544 17.5726C21.3544 17.6484 21.3928 17.762 21.3928 17.8378V17.9136V17.9894C21.3928 18.0273 21.3928 18.0273 21.3928 18.0652C21.3928 18.1031 21.3928 18.1031 21.3928 18.141V18.2167V18.2925C21.3928 18.3304 21.3928 18.4062 21.3928 18.4441C21.3928 18.5578 21.3928 18.6336 21.3544 18.7472C21.3544 18.823 21.3159 18.9367 21.3159 19.0125C21.3159 19.0883 21.2775 19.2019 21.2391 19.2777C21.2007 19.4672 21.1238 19.6566 21.047 19.8082C20.8933 20.1492 20.7012 20.4903 20.4707 20.8313C20.0096 21.4376 19.3949 21.9681 18.6649 22.2712C18.3191 22.4228 17.9349 22.5365 17.5507 22.6122C17.3586 22.6501 17.1665 22.6501 16.9744 22.688H16.936H16.8976H16.8207H16.7439H16.7055C16.7439 22.688 16.7055 22.688 16.7055 22.688C16.5902 22.688 16.5134 22.688 16.3981 22.688C15.9755 22.6501 15.5529 22.5743 15.1687 22.4607C14.7845 22.347 14.3618 22.1954 14.016 22.006C13.2861 21.627 12.6329 21.0965 12.095 20.4524C11.8261 20.1492 11.5955 19.8082 11.4419 19.4293C11.2498 19.0504 11.0961 18.6714 10.9808 18.2925C10.8656 17.9136 10.7887 17.4968 10.7887 17.1179V17.0421V17.0042V16.9284V16.701V16.6632V16.5874V16.5495C10.7887 16.5116 10.7887 16.4358 10.7887 16.3979C10.7887 16.2084 10.8271 15.9811 10.8271 15.7916C10.8656 15.6022 10.904 15.3748 10.9424 15.1854C10.9808 14.9959 11.0192 14.7685 11.0961 14.5791C11.2113 14.2002 11.365 13.8212 11.5187 13.4423C11.8645 12.7224 12.2871 12.0782 12.825 11.5856C12.9403 11.4719 13.0939 11.3203 13.2476 11.2067C13.4013 11.093 13.555 10.9793 13.7087 10.9035C13.8624 10.7899 14.016 10.7141 14.1697 10.6383C14.2466 10.6004 14.3234 10.5625 14.4002 10.5246C14.4387 10.5246 14.4771 10.4867 14.5155 10.4867C14.5539 10.4867 14.5924 10.4488 14.6308 10.4488C14.7845 10.373 14.9766 10.3352 15.1302 10.2594C15.1687 10.2594 15.2071 10.2215 15.2455 10.2215C15.2839 10.2215 15.3223 10.1836 15.3608 10.1836C15.4376 10.1457 15.5529 10.1457 15.6297 10.1078C15.6681 10.1078 15.7065 10.0699 15.7834 10.0699C15.8218 10.0699 15.8602 10.0699 15.9371 10.032C15.9755 10.032 16.0139 10.032 16.0907 9.99412H16.1676H16.2444C16.2828 9.99412 16.3213 9.99412 16.3981 9.95623C16.4365 9.95623 16.5134 9.95623 16.5518 9.91834C16.5902 9.91834 16.6671 9.91834 16.7055 9.91834C16.7439 9.91834 16.7823 9.91834 16.8207 9.91834H16.8976H16.936H16.9744C17.0128 9.91834 17.0897 9.91834 17.1281 9.91834H17.2049C17.2049 9.91834 17.2434 9.91834 17.2049 9.91834H17.2434C17.2818 9.91834 17.3202 9.91834 17.3586 9.91834C17.5507 9.91834 17.7044 9.91834 17.8965 9.91834C18.2423 9.91834 18.5881 9.95623 18.9339 10.032C19.587 10.1457 20.2017 10.373 20.778 10.6383C21.3544 10.9035 21.8538 11.2446 22.2764 11.6235C22.3149 11.6614 22.3149 11.6614 22.3533 11.6993C22.3917 11.7372 22.3917 11.7372 22.4301 11.7751C22.4685 11.8129 22.5454 11.8508 22.5838 11.9266C22.6222 12.0024 22.6991 12.0024 22.7375 12.0782C22.7759 12.154 22.8528 12.1919 22.8912 12.2298C23.0833 12.4192 23.237 12.6087 23.3906 12.836C23.698 13.215 23.9669 13.6318 24.159 14.0107C24.159 14.0486 24.1975 14.0486 24.1975 14.0865C24.1975 14.1244 24.2359 14.1244 24.2359 14.1623C24.2743 14.2002 24.2743 14.2381 24.3127 14.3138C24.3511 14.3517 24.3512 14.3896 24.3896 14.4654C24.428 14.5033 24.428 14.5412 24.4664 14.617C24.5433 14.8064 24.6201 14.958 24.6585 15.1096C24.7354 15.3748 24.8122 15.6022 24.8506 15.7916C24.889 15.8674 24.9659 15.9432 25.0427 15.9053C25.1196 15.9053 25.1964 15.8295 25.1964 15.7537C25.3501 15.299 25.3501 15.0338 25.3117 14.7685Z" fill="#F04C59"/>
</svg>
