<svg width="30" height="30" viewBox="0 0 30 30" fill="none" xmlns="http://www.w3.org/2000/svg">
<circle cx="15" cy="15" r="15" fill="#FDE8BE"/>
<path d="M21.2078 18.2384C21.2078 18.2384 20.2234 18.1748 20.2234 17.1591L20.2236 14.1112C20.2236 11.3063 17.9337 8.9834 15.1277 8.9834C12.3228 8.9834 10.0328 11.3486 10.0328 14.0155H10.0001V17.1587C10.0001 17.1587 10.0319 18.238 9.01575 18.238H8V20.2381H22.2233V18.238L21.2078 18.2384Z" fill="#ECA313"/>
<path d="M16.1283 8.01589C16.1283 8.57682 15.6735 9.03178 15.1124 9.03178C14.5515 9.03178 14.0967 8.5768 14.0967 8.01589C14.0967 7.45478 14.5515 7 15.1124 7C15.6735 7 16.1283 7.45479 16.1283 8.01589Z" fill="#ECA313"/>
<path d="M15.1119 23.1609C16.2351 23.1609 17.1439 22.2402 17.1439 21.1289L13.0801 21.1291C13.0801 22.2401 13.9887 23.1609 15.1119 23.1609V23.1609Z" fill="#ECA313"/>
</svg>
