<svg xmlns="http://www.w3.org/2000/svg" width="16" height="16" fill="none"><path fill="#000" d="M13.208 7.23c.027.094.027.189.027.284 0 1.246-1.517 1.463-2.574 1.463-4.091 0-7.14-2.547-7.14-3.32 0-.053 0-.108.014-.162l-.312.759a1.6 1.6 0 0 0-.121.61c0 1.517 3.44 3.82 7.37 3.82 1.734 0 3.061-.65 3.061-1.829 0-.095 0-.163-.149-.854z"/><path fill="#E00" d="M10.662 8.977c1.057 0 2.574-.217 2.574-1.463 0-.095 0-.19-.027-.285l-.623-2.723c-.15-.596-.271-.867-1.328-1.395C10.445 2.69 8.671 2 8.142 2c-.487 0-.636.637-1.219.637-.556 0-.976-.474-1.504-.474-.501 0-.826.338-1.084 1.056 0 0-.704 1.992-.799 2.29-.014.054-.027.108-.014.162 0 .76 3.049 3.306 7.14 3.306m2.737-.962c.149.691.149.759.149.854 0 1.178-1.328 1.829-3.062 1.829-3.929 0-7.37-2.303-7.37-3.82q0-.326.122-.61C1.829 6.335 0 6.593 0 8.205c0 2.642 6.273 5.907 11.231 5.907 3.807 0 4.769-1.72 4.769-3.076 0-1.083-.935-2.29-2.601-3.02"/></svg>