<svg xmlns="http://www.w3.org/2000/svg" width="12" height="14" fill="none"><g clip-path="url(#a)"><path fill="#000" d="M11.033 4.773c-.08.063-1.514.87-1.514 2.667 0 2.077 1.824 2.812 1.878 2.83-.008.045-.29 1.007-.961 1.987-.6.862-1.225 1.723-2.177 1.723s-1.197-.553-2.296-.553c-1.071 0-1.452.572-2.323.572-.87 0-1.478-.798-2.177-1.778C.653 11.07 0 9.282 0 7.585 0 4.864 1.77 3.42 3.511 3.42c.926 0 1.697.608 2.278.608.553 0 1.415-.644 2.468-.644.4 0 1.833.036 2.776 1.389M7.757 2.232c.436-.517.744-1.234.744-1.95 0-.1-.009-.2-.027-.282-.708.027-1.551.472-2.06 1.061-.398.454-.77 1.17-.77 1.897 0 .11.018.219.026.254.045.008.118.018.19.018.636 0 1.435-.426 1.897-.998"/></g><defs><clipPath id="a"><path fill="#fff" d="M0 0h11.396v14H0z"/></clipPath></defs></svg>