<svg xmlns="http://www.w3.org/2000/svg" width="15" height="14" fill="none"><path fill="#81B5A1" fill-rule="evenodd" d="M7.471 0C3.287 0 0 3.287 0 7.471c0 2.192.897 4.184 2.291 5.579.498.498 1.395.498 1.992.1.797-.698 1.993-1.096 3.188-1.096 1.295 0 2.291.398 3.188 1.095.598.498 1.395.399 1.992-.199 1.395-1.394 2.291-3.287 2.291-5.479C14.842 3.387 11.556 0 7.472 0m-.1 11.356c-2.29 0-3.785-1.693-3.785-3.785S5.08 3.785 7.372 3.785c2.29 0 3.785 1.694 3.785 3.786s-1.494 3.785-3.785 3.785" clip-rule="evenodd"/></svg>