<svg xmlns="http://www.w3.org/2000/svg" width="16" height="16" viewBox="0 0 16 16" fill="none"><g clip-path="url(#a)"><path fill="#3CC48F" d="M8.005 15.206a7.2 7.2 0 1 0 0-14.4 7.2 7.2 0 0 0 0 14.4"/><path fill="#AEFFDC" d="M8.006 16C3.589 16 0 12.411 0 8.006 0 3.589 3.589 0 8.006 0s8.006 3.589 8.006 8.006C16 12.41 12.412 16 8.006 16m0-14.413a6.416 6.416 0 0 0-6.407 6.407 6.416 6.416 0 0 0 6.407 6.407 6.416 6.416 0 0 0 6.407-6.407 6.416 6.416 0 0 0-6.407-6.407"/></g><defs><clipPath id="a"><path fill="#fff" d="M0 0h16v16H0z"/></clipPath></defs></svg>