<svg xmlns="http://www.w3.org/2000/svg" width="14" height="9" fill="none"><path fill="#0770E3" d="M7 8.831a.8.8 0 0 0 .42-.112l1.532-.882a1.67 1.67 0 0 1 1.022-.21c1.861.217 3.163.567 3.548.68a.21.21 0 0 0 .217-.07c.063-.078.14-.204.203-.385a1.2 1.2 0 0 0 .056-.427.2.2 0 0 0-.147-.182c-.602-.175-3.268-.896-6.851-.896s-6.249.72-6.85.896a.2.2 0 0 0-.148.182c-.007.098 0 .245.056.427.056.181.14.307.203.384.05.063.14.091.217.07.385-.112 1.694-.462 3.548-.678.357-.042.714.035 1.022.21l1.532.881a.84.84 0 0 0 .42.112M4.446 3.87a.606.606 0 0 0 .833.224.606.606 0 0 0 .223-.833L4.124.875C4.082.798 3.99.77 3.907.777c-.112.007-.266.063-.448.168s-.308.21-.37.3a.23.23 0 0 0-.022.239zm-1.26 1.707a.64.64 0 0 0 .462.063.6.6 0 0 0 .37-.287.64.64 0 0 0 .064-.462.6.6 0 0 0-.287-.37L1.409 3.142a.23.23 0 0 0-.238.021c-.091.063-.196.189-.301.37-.105.183-.161.337-.168.449-.007.09.028.175.098.217zM7.61 3.023c0 .168-.07.322-.175.434A.6.6 0 0 1 7 3.632a.64.64 0 0 1-.434-.175.6.6 0 0 1-.175-.434V.273c0-.091.056-.161.14-.196C6.63.028 6.791 0 7 0c.21 0 .37.028.469.077.077.042.14.105.14.196zm1.945.847a.606.606 0 0 1-.833.224.606.606 0 0 1-.223-.833L9.876.875c.042-.077.133-.105.217-.098.112.007.266.063.448.168s.308.21.37.3c.05.07.064.162.022.239zm1.26 1.707a.64.64 0 0 1-.462.063.6.6 0 0 1-.371-.287.64.64 0 0 1-.063-.462.6.6 0 0 1 .287-.37l2.386-1.379a.23.23 0 0 1 .238.021c.091.063.196.189.301.37.105.183.161.337.168.449.007.09-.028.175-.098.217z"/></svg>