<svg xmlns="http://www.w3.org/2000/svg" width="17" height="17" viewBox="0 0 17 17" fill="none"><path fill="#4285F4" d="M16.346 8.848q-.001-.85-.145-1.636H8.666v3.098h4.306a3.7 3.7 0 0 1-1.608 2.407v2.015h2.596c1.513-1.396 2.386-3.447 2.386-5.884"/><path fill="#34A853" d="M8.667 16.667c2.16 0 3.971-.713 5.295-1.935l-2.597-2.014c-.712.48-1.621.77-2.698.77-2.08 0-3.847-1.403-4.48-3.294H1.525v2.065a7.99 7.99 0 0 0 7.142 4.407"/><path fill="#FBBC05" d="M4.186 10.187c-.16-.48-.255-.99-.255-1.52 0-.531.095-1.04.255-1.52V5.08H1.524a7.9 7.9 0 0 0-.858 3.585c0 1.295.313 2.51.858 3.586l2.073-1.615z"/><path fill="#EA4335" d="M8.667 3.852c1.178 0 2.226.407 3.062 1.193l2.29-2.291C12.632 1.459 10.828.667 8.668.667 5.54.667 2.842 2.463 1.525 5.08l2.662 2.065c.633-1.89 2.4-3.294 4.48-3.294"/></svg>