<svg xmlns="http://www.w3.org/2000/svg" width="501" height="355" viewBox="0 0 501 355" fill="none"><path fill="#FF671D" d="M198.083 349v-18.96h6.943c4.037 0 5.981 2.176 5.981 4.981 0 2.37-1.454 3.555-3.194 3.999v.185c1.879.102 3.935 1.759 3.935 4.694 0 2.907-1.991 5.101-6.398 5.101zm2.861-2.453h4.129c2.749 0 3.832-1.195 3.832-2.787 0-1.805-1.435-3.286-3.731-3.286h-4.23zm0-8.305h3.832c1.926 0 3.426-1.166 3.426-2.999 0-1.574-1.083-2.768-3.352-2.768h-3.906zm19.443 11.045c-4.009 0-6.629-2.935-6.629-7.332 0-4.425 2.62-7.36 6.629-7.36s6.628 2.935 6.628 7.36c0 4.397-2.62 7.332-6.628 7.332m.009-2.324c2.601 0 3.823-2.286 3.823-5.017 0-2.722-1.222-5.037-3.823-5.037-2.62 0-3.842 2.315-3.842 5.037 0 2.731 1.222 5.017 3.842 5.017m15.177 2.324c-4.008 0-6.628-2.935-6.628-7.332 0-4.425 2.62-7.36 6.628-7.36 4.009 0 6.629 2.935 6.629 7.36 0 4.397-2.62 7.332-6.629 7.332m.01-2.324c2.601 0 3.823-2.286 3.823-5.017 0-2.722-1.222-5.037-3.823-5.037-2.62 0-3.842 2.315-3.842 5.037 0 2.731 1.222 5.017 3.842 5.017m15.825-12.183v2.222h-2.916v7.823c0 1.601.806 1.898 1.704 1.898.444 0 .786-.084.972-.121l.5 2.287c-.324.12-.917.287-1.796.296-2.185.046-4.157-1.203-4.148-3.786v-8.397h-2.083v-2.222h2.083v-3.407h2.768v3.407zm5.615 5.777V349h-2.769v-18.96h2.731v7.054h.176c.667-1.536 2-2.499 4.213-2.499 2.925 0 4.869 1.814 4.869 5.36V349h-2.768v-8.712c0-2.083-1.139-3.295-3.046-3.295-1.972 0-3.406 1.296-3.406 3.564M276.016 349v-18.96h2.861v16.497h8.591V349zm20.554.259c-3.37-.028-6.925-2.12-6.916-9.1 0-6.592 2.75-10.378 7.157-10.378 3.388 0 5.749 2.185 6.184 5.184h-2.824c-.389-1.574-1.537-2.685-3.36-2.685-2.778 0-4.407 2.556-4.416 6.86h.139c.972-1.601 2.703-2.564 4.702-2.564 3.287 0 5.925 2.601 5.916 6.231.009 3.638-2.62 6.489-6.582 6.452m-.009-2.407c2.166 0 3.823-1.768 3.814-4.008.009-2.195-1.583-3.944-3.75-3.944-2.184 0-3.869 1.851-3.879 3.971 0 2.13 1.611 3.981 3.815 3.981"/><path fill="#fff" d="M141.654 44.1c-.554 14.285-11.818 25.51-25.843 25.51-14.818 0-25.754-11.996-25.754-26.459.038-14.613 11.845-26.464 26.458-26.553 6.528 0 12.966 2.817 18.434 7.847l-4.231 5.202c-4.148-3.616-9.173-6.1-14.203-6.1-10.736.039-19.415 8.757-19.41 19.493 0 10.936 8.202 19.41 18.789 19.41 9.428 0 16.848-6.882 18.345-15.789h-21.428v-6.177h28.932zM166.266 40.661h-3.97c-4.354.017-7.87 3.566-7.853 7.92V69.15h-7.054V33.868h5.823v3c1.941-1.941 4.935-3 8.318-3h7.581zM204.721 69.15h-6v-4.437a17.26 17.26 0 0 1-19.316 3.46c-9.211-3.959-13.471-14.634-9.511-23.851a18.15 18.15 0 0 1 16.72-10.986 17.15 17.15 0 0 1 12.085 5.024v-4.437h6.1zm-7.209-15.085c1.469-5.978-2.185-12.017-8.163-13.487-5.979-1.47-12.018 2.185-13.488 8.163-1.469 5.979 2.185 12.018 8.164 13.488 1.497.366 3.061.421 4.58.155a11.09 11.09 0 0 0 8.879-8.319zM218.924 31.927v1.94h11.225v6.173h-11.203v29.02h-6.993V32.016c0-7.764 5.546-12.35 12.522-12.35h8.447l-2.773 6.616h-5.674a5.786 5.786 0 0 0-5.551 5.646M267.433 69.15h-5.995v-4.437a17.27 17.27 0 0 1-19.316 3.439c-9.212-3.96-13.471-14.635-9.511-23.852a18.15 18.15 0 0 1 16.72-10.986 17.14 17.14 0 0 1 12.084 5.024v-4.437h6.101zm-7.143-15.084c1.436-5.957-2.23-11.946-8.186-13.382s-11.945 2.23-13.382 8.185c-1.436 5.956 2.23 11.946 8.186 13.382a11.093 11.093 0 0 0 13.382-8.185M305.097 48.243V69.15h-7.06V48.243a7.941 7.941 0 0 0-15.877 0V69.15h-7.055V33.868h5.823v3.09a14.12 14.12 0 0 1 9.428-3.617c8.136 0 14.741 6.589 14.741 14.73zM346.551 69.15h-6v-4.437a17.27 17.27 0 0 1-19.316 3.439c-9.211-3.96-13.47-14.635-9.511-23.852a18.15 18.15 0 0 1 16.721-10.986 17.15 17.15 0 0 1 12.084 5.024v-4.437h6.1zm-7.209-15.084c1.425-5.957-2.246-11.946-8.202-13.371s-11.946 2.246-13.371 8.202c-.2.826-.299 1.67-.305 2.518-.033 6.128 4.902 11.119 11.03 11.152a11.09 11.09 0 0 0 10.848-8.507zM394.711 69.144h-26.553V16.665h7.06v45.336h19.493zM432.461 69.15h-5.995v-4.498a17.2 17.2 0 0 1-12.167 5.025c-10.11 0-18.301-8.192-18.301-18.301 0-10.11 8.191-18.301 18.301-18.301 4.536 0 8.89 1.808 12.084 5.024v-4.497h6.1zm-6.965-17.819c-.022-6.161-5.041-11.136-11.203-11.113s-11.135 5.04-11.113 11.202c.022 6.128 4.985 11.091 11.113 11.114 6.156.033 11.17-4.936 11.203-11.092zM474.885 51.42c-.022 10.071-8.185 18.234-18.256 18.257a17.4 17.4 0 0 1-12.262-5.03v4.503h-5.906V19.488h7.054v17.818a16.64 16.64 0 0 1 11.202-4.231c10.06.1 18.168 8.28 18.168 18.345m-7.209 0c.039-6.128-4.897-11.12-11.025-11.158s-11.119 4.897-11.158 11.025 4.897 11.12 11.025 11.158h.066c6.09-.011 11.031-4.936 11.07-11.025zM499.142 36.252l-3.083 5.202c-1.503-.882-4.059-2.379-6.882-2.379-2.646 0-5.119 1.32-5.119 3.527 0 2.38 2.734 3.328 6.267 4.587 5.645 1.94 10.67 5.823 10.67 11.646s-5.025 10.853-12.262 10.853c-4.409 0-8.818-1.764-11.729-3.616l2.734-5.912c2.03 1.237 5.912 2.734 8.818 2.734 3.532 0 5.118-2.118 5.118-4.143 0-2.384-2.218-3.793-7.054-5.645-3.532-1.414-9.267-3.793-9.267-10.06 0-5.906 5.03-9.877 11.735-9.877 3.882-.006 7.143 1.32 10.054 3.083"/><path fill="#FF671D" d="M75.328 36.075a25 25 0 0 0-.793-4.675 30.2 30.2 0 0 0-2.119-5.646 29.5 29.5 0 0 0-3.97-6 26 26 0 0 0-2.12-2.29c1.149-4.587-1.408-8.558-1.408-8.558a13.2 13.2 0 0 0-8.318 2.119c-.167-.1-.36-.16-.555-.178a12 12 0 0 0-2.251-.793c-.793-.177-1.586-.443-2.468-.704-.799-.177-1.664-.355-2.562-.554-.172 0-.261-.09-.439-.09A15.36 15.36 0 0 0 40.927 0c-6.178 3.882-7.32 9.35-7.32 9.35a1.5 1.5 0 0 1-.089.35l-1.059.243c-.444.178-.97.355-1.414.527s-.965.355-1.409.555c-.881.35-1.852.882-2.734 1.32-.881.554-1.763 1.059-2.556 1.591a.27.27 0 0 0-.178-.088c-8.557-3.267-16.143.615-16.143.615-.705 9.084 3.444 14.819 4.237 15.789-.178.555-.355 1.148-.555 1.664a47 47 0 0 0-1.409 6.35c0 .266-.088.62-.088.97C2.38 43.129 0 51.154 0 51.154c6.616 7.592 14.291 8.03 14.291 8.03a37.5 37.5 0 0 0 3.328 4.936c.527.62 1.059 1.236 1.663 1.852a17.64 17.64 0 0 0 .355 12.528 20.5 20.5 0 0 0 13.144-3.97c.704.265 1.497.443 2.218.703 2.252.577 4.559.932 6.882 1.06h2.928c3.439 4.94 9.54 5.645 9.54 5.645 4.325-4.586 4.586-9.084 4.586-10.054v-.444a29 29 0 0 0 2.562-2.024 25.7 25.7 0 0 0 4.497-5.296c.089-.172.26-.35.35-.555 4.852.266 8.318-3 8.318-3-.793-5.113-3.704-7.587-4.32-8.025h-.177a.09.09 0 0 1-.09-.088c0-.267.09-.616.09-.882 0-.555.088-1.06.088-1.664v-2.102a.8.8 0 0 0-.088-.444l-.09-.438-.088-.443a10.6 10.6 0 0 0-.35-1.664 22.5 22.5 0 0 0-2.534-6.183 22.6 22.6 0 0 0-4.148-4.942 19.4 19.4 0 0 0-5.202-3.327 16.8 16.8 0 0 0-5.734-1.586c-.97-.089-1.941-.178-2.912-.178h-1.563a8.6 8.6 0 0 0-1.503.178 15.7 15.7 0 0 0-5.38 2.024 18 18 0 0 0-4.142 3.533 16.3 16.3 0 0 0-2.651 4.436 15.3 15.3 0 0 0-1.054 4.764v2.29c.061.766.216 1.52.46 2.246a11.9 11.9 0 0 0 1.941 3.966 12.6 12.6 0 0 0 2.89 2.828 12.8 12.8 0 0 0 3.327 1.592c1.082.316 2.202.46 3.328.438h1.497c.177 0 .266-.09.355-.09s.26-.088.35-.088c.265-.089.443-.089.703-.172l1.326-.554c.41-.183.799-.422 1.148-.705.089-.088.177-.177.26-.177a.755.755 0 0 0 .09-1.148.73.73 0 0 0-1.054-.172c-.09 0-.178.083-.267.172-.316.166-.637.31-.97.444l-1.06.266c-.177 0-.354.083-.554.083H44.92a8.3 8.3 0 0 1-2.467-.704 9.3 9.3 0 0 1-2.29-1.498 8.5 8.5 0 0 1-1.77-2.218 9.6 9.6 0 0 1-.965-2.823 9 9 0 0 1-.089-1.497v-.765c0-.267.09-.555.09-.793a10.53 10.53 0 0 1 3.171-5.912q.6-.609 1.326-1.06c.466-.343.97-.637 1.497-.881a9.4 9.4 0 0 1 1.664-.616 6.1 6.1 0 0 1 1.763-.266h1.952l1.941.266c1.276.26 2.49.738 3.605 1.409a14.02 14.02 0 0 1 5.468 5.645 11.9 11.9 0 0 1 1.237 3.794c.072.316.1.643.089.97v2.119c0 .349-.09.704-.09 1.059-.016.355-.077.71-.176 1.054q-.136.534-.261 1.059-.298 1.08-.721 2.118a18.2 18.2 0 0 1-2.113 3.882 17.38 17.38 0 0 1-11.03 6.86c-.738.106-1.476.161-2.219.178h-1.137a5.8 5.8 0 0 1-1.236-.089c-1.58-.083-3.15-.35-4.67-.793a27 27 0 0 1-4.436-1.764 22.7 22.7 0 0 1-7.21-5.994 23.6 23.6 0 0 1-2.55-3.955 25.5 25.5 0 0 1-1.665-4.325 19.8 19.8 0 0 1-.793-4.587V42.16q.015-1.138.156-2.269c.088-.798.266-1.591.355-2.384.127-.777.299-1.542.526-2.29q.634-2.222 1.592-4.326a23 23 0 0 1 4.936-7.143c.554-.555 1.059-.97 1.591-1.409.516-.46 1.07-.876 1.664-1.236.527-.355 1.148-.705 1.764-1.06q.415-.276.881-.443a1.8 1.8 0 0 1 .438-.172c.09 0 .355-.178.444-.178a17 17 0 0 1 1.974-.726c.178-.089.355-.089.555-.178.2-.088.355-.088.555-.177l1.059-.266c.172 0 .35-.09.554-.09.206 0 .355-.082.555-.082s.355-.089.555-.089h.554c.178 0 .355-.089.555-.089.21.011.416-.022.615-.088.178 0 .444-.09.616-.09h4.436c1.304.056 2.601.2 3.882.439a26 26 0 0 1 6.971 2.296 29 29 0 0 1 5.507 3.699l.26.266.267.26c.178.178.444.356.616.555l.554.527.527.555c.71.793 1.325 1.497 1.941 2.29a39 39 0 0 1 2.912 4.498c.088.088.088.177.177.266.067.072.1.166.089.266l.266.527.26.554c.106.167.167.36.178.555.266.704.555 1.325.704 1.941q.484 1.298.793 2.645c.084.31.394.505.71.444.333.005.61-.26.616-.593v-.028a6.4 6.4 0 0 0 .333-3.261M242.999 111.79c-2.703 0-4.805-1.536-4.805-4.332 0-3.231 2.759-3.935 5.453-4.25 2.555-.296 3.592-.277 3.592-1.286v-.065c0-1.611-.916-2.546-2.703-2.546-1.861 0-2.898.972-3.305 1.981l-2.602-.592c.926-2.593 3.296-3.63 5.87-3.63 2.259 0 5.517.824 5.517 4.963v9.443h-2.703v-1.945h-.111c-.528 1.065-1.851 2.259-4.203 2.259m.602-2.222c2.305 0 3.647-1.536 3.647-3.221v-1.833c-.398.398-2.527.639-3.425.759-1.602.213-2.916.74-2.916 2.222 0 1.37 1.129 2.073 2.694 2.073m16.48-12.312v2.222h-2.917v7.822c0 1.602.806 1.898 1.704 1.898.444 0 .787-.083.972-.12l.5 2.286c-.324.121-.917.287-1.796.297-2.185.046-4.157-1.204-4.148-3.787v-8.396h-2.083v-2.222h2.083v-3.407h2.768v3.407z"/><path fill="#fff" d="M147.701 248.155a33 33 0 0 1 3.019-.663 22 22 0 0 1 3.829-.295 8.9 8.9 0 0 1 3.388.516 5.2 5.2 0 0 1 2.135 1.547 5.8 5.8 0 0 1 1.105 2.356c.24.989.364 2.002.368 3.02v9.132h-4.492v-8.617a6.16 6.16 0 0 0-.589-3.093 2.41 2.41 0 0 0-2.209-.884 5.2 5.2 0 0 0-1.031.074c-.368 0-.663.074-.958.074v12.446h-4.565zm-8.395 7.438a6.13 6.13 0 0 0-.81-3.314 3.095 3.095 0 0 0-4.861 0 5.53 5.53 0 0 0-.883 3.314 5.94 5.94 0 0 0 .883 3.388 2.985 2.985 0 0 0 4.861 0 6.4 6.4 0 0 0 .81-3.388m4.639 0a10.3 10.3 0 0 1-.515 3.461 7.9 7.9 0 0 1-1.62 2.725 7.37 7.37 0 0 1-5.744 2.357 9.1 9.1 0 0 1-3.241-.589 7.4 7.4 0 0 1-2.503-1.768 7.65 7.65 0 0 1-1.62-2.725 10.46 10.46 0 0 1 0-6.922 8 8 0 0 1 1.62-2.651 7.2 7.2 0 0 1 2.503-1.694 7.6 7.6 0 0 1 3.167-.59 8.7 8.7 0 0 1 3.167.59c.93.407 1.779.981 2.503 1.694a8 8 0 0 1 1.62 2.651 8.8 8.8 0 0 1 .663 3.461m-24.817 8.543c-3.461 0-6.112-.957-7.879-2.872-1.841-1.915-2.725-4.64-2.725-8.175a13.5 13.5 0 0 1 .81-4.713 9.52 9.52 0 0 1 5.744-5.597 12 12 0 0 1 4.345-.737c.815-.006 1.629.068 2.43.221a26 26 0 0 1 1.915.442q.713.222 1.399.516c.294.098.568.248.81.441l-1.399 3.83a9.2 9.2 0 0 0-2.283-.884 12 12 0 0 0-2.946-.368 6.9 6.9 0 0 0-2.135.368 4.4 4.4 0 0 0-1.841 1.179 7.1 7.1 0 0 0-1.326 2.062 9.7 9.7 0 0 0-.515 3.093c-.019.917.079 1.833.294 2.725a6.8 6.8 0 0 0 1.031 2.209 5.54 5.54 0 0 0 1.915 1.473 6.5 6.5 0 0 0 2.798.515 13 13 0 0 0 1.841-.147q.751-.073 1.473-.294a10 10 0 0 0 1.105-.369 4.6 4.6 0 0 1 .883-.368l1.326 3.83a9 9 0 0 1-2.872 1.104c-1.366.38-2.78.554-4.198.516m-18.189-10.09a3 3 0 0 0-.22-1.104 4 4 0 0 0-.516-.958 2.95 2.95 0 0 0-.884-.736 3.5 3.5 0 0 0-1.325-.295 2.5 2.5 0 0 0-1.326.295 2 2 0 0 0-.883.663 3.5 3.5 0 0 0-.59 1.031q-.212.573-.294 1.178h6.038zm-10.677 1.694a10 10 0 0 1 .662-3.756 7 7 0 0 1 1.768-2.651 7.4 7.4 0 0 1 2.43-1.62 7.9 7.9 0 0 1 2.872-.516 7.16 7.16 0 0 1 5.449 2.063q1.989 2.099 1.989 6.186v.884c0 .294-.074.589-.074.81H94.975c.046.911.543 1.74 1.325 2.209a5.67 5.67 0 0 0 3.093.81c.815.003 1.629-.071 2.43-.221a9.3 9.3 0 0 0 1.989-.589l.589 3.682a6.5 6.5 0 0 1-.958.369q-.685.21-1.399.294c-.515.074-1.031.147-1.62.221q-.844.09-1.694.074a9.5 9.5 0 0 1-3.755-.663 7 7 0 0 1-2.651-1.768 6 6 0 0 1-1.547-2.651 8.4 8.4 0 0 1-.515-3.167m-3.02-.073a10.3 10.3 0 0 1-.589 3.461 8 8 0 0 1-1.62 2.651 7.1 7.1 0 0 1-2.65 1.694 10.4 10.4 0 0 1-3.535.589q-.886.014-1.768-.073l-1.767-.221a14 14 0 0 1-1.694-.295c-.515-.147-1.03-.221-1.399-.368v-22.536l4.566-.736v8.027a10.5 10.5 0 0 1 1.62-.515 6.9 6.9 0 0 1 1.767-.147 7.6 7.6 0 0 1 3.02.589 5.56 5.56 0 0 1 2.209 1.694 7.5 7.5 0 0 1 1.325 2.651c.367 1.141.541 2.336.516 3.535m-4.639-.148c0-2.945-1.104-4.418-3.24-4.418q-.706.019-1.399.147a9 9 0 0 0-1.105.442v8.322c.29.068.588.092.884.074.368 0 .737.073 1.105.073a3.28 3.28 0 0 0 2.798-1.252 5.78 5.78 0 0 0 .957-3.388m-14.875 7.66c-.81.221-1.767.442-3.02.662-1.264.211-2.546.31-3.828.295a8.9 8.9 0 0 1-3.388-.515 5.2 5.2 0 0 1-2.136-1.547 6.3 6.3 0 0 1-1.104-2.357 12.6 12.6 0 0 1-.368-3.019v-8.985h4.492v8.396a6.7 6.7 0 0 0 .589 3.166 2.29 2.29 0 0 0 2.209.958q.518.014 1.031-.074c.368 0 .663-.074.957-.074v-12.446h4.566zm-21.061.515c-.442-.663-.957-1.473-1.547-2.283a28 28 0 0 0-1.914-2.43c-.663-.81-1.4-1.547-2.136-2.357a27 27 0 0 0-2.209-1.988v8.985h-4.787v-21.21h4.787v8.027c1.252-1.326 2.504-2.651 3.756-4.124 1.251-1.4 2.43-2.725 3.534-3.904h5.67c-1.472 1.694-2.871 3.388-4.344 4.935-1.473 1.62-3.02 3.167-4.64 4.787a39.7 39.7 0 0 1 4.934 5.008 65 65 0 0 1 4.566 6.407h-5.67zm193.452-17.233-3.093 3.682a7.24 7.24 0 0 0-5.302-2.725 5.916 5.916 0 0 0-5.891 6.113 5.89 5.89 0 0 0 5.891 6.186 7.79 7.79 0 0 0 5.302-2.504l3.167 3.314a12.9 12.9 0 0 1-8.69 3.83c-5.888.21-10.831-4.394-11.04-10.282a10 10 0 0 1-.006-.544c0-6.113 4.86-10.679 11.267-10.679a12.67 12.67 0 0 1 8.395 3.609m2.577 17.675v-22.315h5.229v22.315zm25.922-8.101c0 5.008-3.535 8.322-8.837 8.322s-8.911-3.314-8.911-8.322 3.535-8.248 8.911-8.248c5.302 0 8.837 3.24 8.837 8.248m-12.519.074c0 2.504 1.473 4.197 3.608 4.197 2.136 0 3.609-1.693 3.609-4.197s-1.473-4.198-3.609-4.198c-2.135 0-3.608 1.694-3.608 4.198m31.15 8.027h-5.229v-2.651a5.74 5.74 0 0 1-5.302 2.872c-3.535 0-5.818-2.43-5.818-6.186v-10.237h5.229v8.764c0 1.915 1.031 3.093 2.725 3.093 1.988 0 3.166-1.62 3.166-3.83v-8.027h5.229zm20.471 0h-5.228V262a6 6 0 0 1-4.86 2.357c-4.566 0-7.585-3.388-7.585-8.396 0-4.934 2.945-8.248 7.437-8.248 1.954-.08 3.824.8 5.008 2.357v-8.249h5.228zm-5.228-8.027c0-2.504-1.473-4.198-3.608-4.198-2.136 0-3.609 1.694-3.609 4.198s1.473 4.271 3.609 4.271c2.209-.074 3.608-1.767 3.608-4.271m24.301 8.027-9.72-12.962v12.962h-5.008v-21.063h4.713l9.721 13.036v-13.036h5.007v21.063zm23.27-10.605v10.605h-5.081v-1.841a5.9 5.9 0 0 1-4.934 2.136c-3.461 0-5.596-2.136-5.596-5.082 0-3.093 2.209-4.861 6.259-4.934h4.271v-.221c0-1.62-1.031-2.578-3.166-2.578a12.4 12.4 0 0 0-4.86 1.326l-1.473-3.462a16.9 16.9 0 0 1 7.511-1.841c4.492.074 7.069 2.283 7.069 5.892m-5.081 5.155v-1.473h-3.314c-1.546 0-2.356.516-2.356 1.768 0 1.178.81 1.915 2.283 1.915a3.365 3.365 0 0 0 3.387-2.21m19.147 4.64a9.3 9.3 0 0 1-4.345 1.105c-3.167 0-5.376-1.768-5.376-5.156v-7.143h-2.283v-3.388h2.283v-4.492h5.155v4.492h4.271v3.461h-4.271v6.334c0 1.252.516 1.841 1.473 1.767a6.1 6.1 0 0 0 1.988-.515zm7.953-20.032a2.69 2.69 0 0 1-2.582 2.797q-.07.002-.143.002a2.762 2.762 0 0 1 0-5.524 2.59 2.59 0 0 1 2.725 2.725m-5.376 20.842v-16.202h5.155v16.202zm13.255 0-6.112-16.202h5.376l3.461 11.489 3.535-11.489h5.155l-6.113 16.202zm28.646-6.702h-11.414a3.79 3.79 0 0 0 3.829 3.02 5.8 5.8 0 0 0 3.903-1.62l2.725 2.651a9.2 9.2 0 0 1-7.069 2.872c-5.303 0-8.616-3.314-8.616-8.248 0-5.008 3.461-8.322 8.468-8.322 5.671 0 8.469 3.756 8.174 9.647m-5.007-2.798a3.057 3.057 0 0 0-3.167-3.314c-1.841 0-3.019 1.325-3.387 3.314zm26.216-8.175-3.093 3.682a7.24 7.24 0 0 0-5.302-2.725 5.915 5.915 0 0 0-5.892 6.113 5.89 5.89 0 0 0 5.892 6.186 7.79 7.79 0 0 0 5.302-2.504l3.166 3.314a12.9 12.9 0 0 1-8.689 3.83c-5.888.21-10.831-4.394-11.041-10.282a11 11 0 0 1-.005-.544c0-6.113 4.86-10.679 11.267-10.679a12.83 12.83 0 0 1 8.395 3.609m18.189 9.574c0 5.008-3.535 8.322-8.837 8.322s-8.911-3.314-8.911-8.322 3.535-8.248 8.911-8.248c5.302 0 8.837 3.24 8.837 8.248m-12.446.074c0 2.504 1.473 4.197 3.609 4.197 2.135 0 3.608-1.693 3.608-4.197s-1.473-4.198-3.608-4.198c-2.136 0-3.609 1.694-3.609 4.198m31.813-2.21v10.237h-5.155v-8.764a2.772 2.772 0 0 0-2.872-3.093c-1.914 0-3.093 1.326-3.314 3.314v8.617h-5.228v-16.202h5.228v2.651a5.98 5.98 0 0 1 5.45-2.872c3.534-.074 5.891 2.356 5.891 6.112M321.785 297.72h143.877v1.941H321.785zM34 297.72h116.286v1.941H34zm158.195-178.062h1.59V270.38h-1.59z"/><path fill="#fff" d="M192.195 119.658h1.589V270.38h-1.589z"/><path fill="#fff" d="M192.195 119.658h1.589V270.38h-1.589z"/><path fill="#fff" d="M194.328 270.925h-1.708v-.971h-.233v-149.87h1.941z"/><path fill="#fff" fill-rule="evenodd" d="m84.427 170.364-2.674.594c0-.371-.075-.742-.075-1.114a15.4 15.4 0 0 1 2.229-8.021l5.199 4.605q.127.139.297.223a8.5 8.5 0 0 0-.595 2.451c-.148.074-.37.074-.52.148zm10.1-15.745v7.278a6.5 6.5 0 0 0-2.005 1.04c-.223-.148-.446-.371-.669-.52l-5.273-3.713a14.65 14.65 0 0 1 7.947-4.085m-36.17 16.785c2.526-11.066 4.68-20.424 7.205-31.491 1.114-4.976 1.857-6.313 6.387-8.912 6.239-3.639 10.918-6.239 17.602-10.101 4.16-2.376 4.976-2.228 4.976 2.897v25.697a20.08 20.08 0 0 0-12.18 6.165l-2.228-1.56a1.08 1.08 0 0 1-.52-.743 3.6 3.6 0 0 0-1.188-1.782 2.43 2.43 0 0 0-3.046 3.788c.338.298.748.503 1.189.594.297.074.594.074.891.148.24.054.468.155.669.297l2.08 1.857a20.34 20.34 0 0 0-3.492 11.438c0 .743.075 1.485.149 2.228l-4.53.965a4.6 4.6 0 0 0-.966.075l-.669.222c-2.97.595-5.941 1.263-8.986 1.931-4.085.966-4.234.149-3.342-3.713m41.443-9.507v-7.278a15.6 15.6 0 0 1 7.947 4.011l-5.718 4.084c-.075.075-.149.149-.223.149a8.3 8.3 0 0 0-2.006-.966m12.775 8.542-7.13-1.634a7 7 0 0 0-.594-2.229c.074-.074.148-.148.223-.148l5.273-4.679a15.5 15.5 0 0 1 2.302 8.095 1.45 1.45 0 0 0-.074.595m-9.284-39.289c3.862 1.856 6.61 3.193 10.472 5.05 5.348 2.599 10.695 5.199 16.117 7.724 1.337 5.793 2.673 11.586 3.936 17.379.817 3.491 1.188 5.348 2.005 8.764 1.263 5.422 1.114 5.867-4.456 4.605l-13.74-3.119q.093-.89.074-1.783a19.9 19.9 0 0 0-3.565-11.512l1.932-1.782c.232-.197.515-.326.817-.372a3.9 3.9 0 0 0 2.005-.742 2.43 2.43 0 0 0-3.039-3.793l-.006.005a3 3 0 0 0-.892 1.04c-.148.297-.222.52-.371.817-.079.241-.236.45-.445.594l-2.229 1.559a20.28 20.28 0 0 0-12.18-6.164v-15.671c.074-3.639.371-4.085 3.565-2.599m-4.753 46.79q-.699.135-1.411.148a8 8 0 0 1-1.337-.074l-.223.446-3.268 6.016c1.58.535 3.234.811 4.902.817a16.3 16.3 0 0 0 4.976-.817l-3.268-5.942q-.226-.272-.371-.594m5.793-3.937 7.13 1.634a15.4 15.4 0 0 1-5.793 7.056l-2.823-6.833a11.6 11.6 0 0 0 1.486-1.857m-21.464 1.56 7.13-1.634a9.9 9.9 0 0 0 1.56 1.931l-.224.446-2.599 6.387a15.3 15.3 0 0 1-5.867-7.13m58.376 12.552c-3.416 4.233-4.976 6.238-8.392 10.472-3.863 4.827-6.982 8.764-10.844 13.591-2.748 3.491-4.753 3.565-9.284 3.565H81.53c-5.942 0-6.387 0-10.027-4.605a1473 1473 0 0 1-10.026-12.626c-2.822-3.564-3.565-4.456-6.387-8.021-4.382-5.496-5.125-7.501 1.708-8.986l21.093-4.754a20.86 20.86 0 0 0 8.838 10.695l-.966 2.228a1.3 1.3 0 0 1-.594.669 3.37 3.37 0 0 0-1.485 1.559 2.442 2.442 0 0 0 4.365 2.188l.014-.028.003-.006c.201-.42.327-.873.371-1.337a3.6 3.6 0 0 0-.074-.891 1.34 1.34 0 0 1 .148-.743l1.189-2.153a20.8 20.8 0 0 0 7.352 1.336 19.7 19.7 0 0 0 7.427-1.411l1.189 2.154c.162.267.215.586.148.892a3.34 3.34 0 0 0 .297 2.079 2.441 2.441 0 1 0 4.386-2.145l-.004-.009a3.1 3.1 0 0 0-.817-1.114 4.5 4.5 0 0 0-.743-.52.92.92 0 0 1-.445-.594l-.966-2.377a20.37 20.37 0 0 0 8.764-10.694l23.247 5.273c4.679 1.262 4.382 2.896 1.708 6.313" clip-rule="evenodd"/><path fill="#fff" d="M312.198 186.718h-12.374v28.921h28.847v-12.373h-16.473zm61.941.075v16.473h-16.398l-.149-.15v12.523h28.921v-28.921h-12.448zm-74.315-28.996h12.448l-.074-.075v-16.473h16.398l.075.149v-12.522h-28.847zm57.768-28.921v12.373h16.547v16.548h12.374v-28.921z"/><path fill="#fff" d="m356.099 157.797-16.547-16.548h18.038v-12.373h-28.921v12.522l16.473 16.399zm-14.907 28.921h-10.958l13.715 13.715 2.833 2.833h-18.113v12.373h28.921v-12.523l-8.199-8.199zm32.946-28.921v18.038l-2.833-2.832-13.715-13.641v10.957l8.274 8.2 8.199 8.199h12.448v-28.921zm-45.469 16.398-16.399-16.398h-12.522v28.921h12.448V168.68l16.473 16.473z" opacity=".8"/><path fill="#fff" d="M166.67 292.491v2.453h7.702v3.507h-7.702v2.774h8.481v3.507H162.75v-15.748h12.401v3.507zm22.736.39v11.851h-3.874v-1.33c-.733.986-1.971 1.605-3.461 1.605-2.568 0-4.378-1.903-4.378-4.584v-7.542h3.736v6.67c0 1.307.825 2.224 2.017 2.224s2.086-.894 2.086-2.063v-6.831zm10.748-.275v3.232c-2.407 0-3.897 1.375-3.897 3.553v5.341h-3.874v-11.851h3.874v2.155c.78-1.49 2.178-2.43 3.897-2.43m1.557 6.189c0-3.416 2.957-6.189 6.602-6.189 3.622 0 6.556 2.773 6.556 6.189s-2.934 6.212-6.556 6.212c-3.645 0-6.602-2.797-6.602-6.212m9.467 0c0-1.627-1.284-2.957-2.865-2.957-1.605 0-2.912 1.33-2.912 2.957 0 1.628 1.307 2.98 2.912 2.98 1.581 0 2.865-1.352 2.865-2.98m19.092 0c0 3.645-2.27 6.212-5.433 6.212-1.604 0-2.957-.665-3.897-1.811v5.479h-3.874v-15.794h3.874v1.536c.94-1.146 2.293-1.811 3.897-1.811 3.163 0 5.433 2.567 5.433 6.189m-3.737 0c0-1.719-1.192-2.957-2.888-2.957-1.582 0-2.705 1.238-2.705 2.957 0 1.742 1.123 2.98 2.705 2.98 1.696 0 2.888-1.238 2.888-2.98m14.416 2.201 2.154 2.177c-1.054 1.077-3.072 1.834-4.859 1.834-3.668 0-6.442-2.59-6.442-6.235 0-3.599 2.682-6.166 6.258-6.166 3.76 0 6.052 2.682 6.052 7.175h-8.642c.298 1.352 1.261 2.269 2.613 2.269 1.009 0 2.086-.413 2.866-1.054m-5.433-3.393h4.882c-.275-1.215-1.1-2.04-2.315-2.04-1.261 0-2.2.802-2.567 2.04m16.409 3.943 5.822-4.356c1.765-1.329 2.269-2.2 2.269-3.163 0-1.077-.94-1.765-2.086-1.765-1.467 0-2.567.711-3.759 1.971l-2.453-2.429c1.674-2.018 3.714-3.095 6.304-3.095 3.53 0 6.006 2.155 6.006 5.157 0 2.086-.872 3.714-3.622 5.594l-2.476 1.765h6.258v3.507h-12.263zm14.369-4.7c0-4.767 3.004-8.137 7.244-8.137 4.264 0 7.267 3.37 7.267 8.137 0 4.791-3.003 8.161-7.267 8.161-4.24 0-7.244-3.37-7.244-8.161m10.476 0c0-2.681-1.33-4.584-3.232-4.584-1.88 0-3.209 1.903-3.209 4.584 0 2.683 1.329 4.608 3.209 4.608 1.902 0 3.232-1.925 3.232-4.608m6.026 4.7 5.822-4.356c1.765-1.329 2.269-2.2 2.269-3.163 0-1.077-.94-1.765-2.086-1.765-1.467 0-2.567.711-3.759 1.971l-2.453-2.429c1.674-2.018 3.714-3.095 6.304-3.095 3.53 0 6.006 2.155 6.006 5.157 0 2.086-.872 3.714-3.622 5.594l-2.476 1.765h6.258v3.507h-12.263zm22.026.183h-7.634l-.344-2.98 7.129-9.742h4.769v9.467h1.993v3.255h-1.993v3.003h-3.92zm0-3.255v-5.41l-3.92 5.41z"/></svg>