<svg width="191" height="32" viewBox="0 0 191 32" fill="none" xmlns="http://www.w3.org/2000/svg">
<path d="M50.2976 14.0447C50.174 13.657 50.0078 13.3097 49.799 13.0028C49.5945 12.6918 49.3494 12.4276 49.0639 12.2102C48.7784 11.9886 48.4524 11.8203 48.0859 11.7053C47.7237 11.5902 47.3253 11.5327 46.8906 11.5327C46.1534 11.5327 45.4886 11.7223 44.8963 12.1016C44.304 12.4808 43.8352 13.0369 43.4901 13.7699C43.1491 14.4986 42.9787 15.3913 42.9787 16.4482C42.9787 17.5092 43.1513 18.4062 43.4964 19.1392C43.8416 19.8722 44.3146 20.4283 44.9155 20.8075C45.5163 21.1868 46.2003 21.3764 46.9673 21.3764C47.679 21.3764 48.299 21.2315 48.8274 20.9418C49.3601 20.652 49.7713 20.2429 50.0611 19.7145C50.3551 19.1818 50.5021 18.5554 50.5021 17.8352L51.0135 17.9311H47.2678V16.3011H52.4134V17.7905C52.4134 18.8899 52.179 19.8445 51.7102 20.6541C51.2457 21.4595 50.6023 22.0817 49.7798 22.5206C48.9616 22.9595 48.0241 23.179 46.9673 23.179C45.7827 23.179 44.7429 22.9062 43.848 22.3608C42.9574 21.8153 42.2628 21.0419 41.7642 20.0405C41.2656 19.0348 41.0163 17.8416 41.0163 16.4609C41.0163 15.4169 41.1612 14.4794 41.451 13.6484C41.7408 12.8175 42.1477 12.1122 42.6719 11.5327C43.2003 10.9489 43.8203 10.5036 44.532 10.1967C45.2479 9.88565 46.0298 9.73011 46.8778 9.73011C47.5852 9.73011 48.2436 9.83452 48.853 10.0433C49.4666 10.2521 50.0121 10.5483 50.4893 10.9318C50.9709 11.3153 51.3693 11.7713 51.6847 12.2997C52 12.8239 52.2131 13.4055 52.3239 14.0447H50.2976ZM54.4972 23V13.1818H56.3445V14.7415H56.4468C56.6258 14.2131 56.9411 13.7976 57.3928 13.495C57.8488 13.1882 58.3644 13.0348 58.9397 13.0348C59.059 13.0348 59.1996 13.0391 59.3616 13.0476C59.5278 13.0561 59.6577 13.0668 59.7515 13.0795V14.9077C59.6748 14.8864 59.5384 14.8629 59.3424 14.8374C59.1464 14.8075 58.9503 14.7926 58.7543 14.7926C58.3026 14.7926 57.8999 14.8885 57.5462 15.0803C57.1968 15.2678 56.9198 15.5298 56.7153 15.8665C56.5107 16.1989 56.4084 16.5781 56.4084 17.0043V23H54.4972ZM63.9048 23.2173C63.2826 23.2173 62.7201 23.1023 62.2173 22.8722C61.7144 22.6378 61.316 22.299 61.022 21.8558C60.7322 21.4126 60.5873 20.8693 60.5873 20.2259C60.5873 19.6719 60.6938 19.2159 60.9069 18.858C61.12 18.5 61.4076 18.2166 61.7698 18.0078C62.1321 17.799 62.5369 17.6413 62.9843 17.5348C63.4318 17.4283 63.8877 17.3473 64.3522 17.2919C64.9403 17.2237 65.4176 17.1683 65.784 17.1257C66.1505 17.0788 66.4169 17.0043 66.583 16.902C66.7492 16.7997 66.8323 16.6335 66.8323 16.4034V16.3587C66.8323 15.8004 66.6747 15.3679 66.3593 15.0611C66.0482 14.7543 65.5838 14.6009 64.9659 14.6009C64.3224 14.6009 63.8153 14.7436 63.4446 15.0291C63.0781 15.3104 62.8245 15.6236 62.6839 15.9688L60.8877 15.5597C61.1008 14.9631 61.4119 14.4815 61.821 14.1151C62.2343 13.7443 62.7095 13.4759 63.2464 13.3097C63.7833 13.1392 64.348 13.054 64.9403 13.054C65.3323 13.054 65.7478 13.1009 66.1867 13.1946C66.6299 13.2841 67.0433 13.4503 67.4268 13.6932C67.8146 13.9361 68.1321 14.2834 68.3792 14.7351C68.6264 15.1825 68.7499 15.7642 68.7499 16.4801V23H66.8835V21.6577H66.8068C66.6832 21.9048 66.4978 22.1477 66.2507 22.3864C66.0035 22.625 65.686 22.8232 65.2982 22.9808C64.9105 23.1385 64.446 23.2173 63.9048 23.2173ZM64.3203 21.6832C64.8487 21.6832 65.3004 21.5788 65.6754 21.37C66.0546 21.1612 66.3423 20.8885 66.5383 20.5518C66.7386 20.2109 66.8387 19.8466 66.8387 19.4588V18.1932C66.7705 18.2614 66.6384 18.3253 66.4424 18.3849C66.2507 18.4403 66.0312 18.4893 65.784 18.532C65.5369 18.5703 65.2961 18.6065 65.0617 18.6406C64.8274 18.6705 64.6313 18.696 64.4737 18.7173C64.1029 18.7642 63.7642 18.843 63.4573 18.9538C63.1548 19.0646 62.9119 19.2244 62.7286 19.4332C62.5497 19.6378 62.4602 19.9105 62.4602 20.2514C62.4602 20.7244 62.6349 21.0824 62.9843 21.3253C63.3338 21.5639 63.7791 21.6832 64.3203 21.6832ZM75.6982 13.1818V14.7159H70.1499V13.1818H75.6982ZM71.6712 23V12.044C71.6712 11.4304 71.8054 10.9212 72.0739 10.5163C72.3423 10.1072 72.6982 9.80256 73.1413 9.60227C73.5845 9.39773 74.0661 9.29545 74.586 9.29545C74.9695 9.29545 75.2976 9.32741 75.5703 9.39134C75.8431 9.45099 76.0455 9.50639 76.1776 9.55753L75.7301 11.1044C75.6406 11.0788 75.5256 11.049 75.385 11.0149C75.2443 10.9766 75.0739 10.9574 74.8736 10.9574C74.4091 10.9574 74.0767 11.0724 73.8764 11.3026C73.6804 11.5327 73.5824 11.8651 73.5824 12.2997V23H71.6712ZM79.9585 23.2173C79.3364 23.2173 78.7739 23.1023 78.271 22.8722C77.7682 22.6378 77.3697 22.299 77.0757 21.8558C76.7859 21.4126 76.6411 20.8693 76.6411 20.2259C76.6411 19.6719 76.7476 19.2159 76.9607 18.858C77.1737 18.5 77.4614 18.2166 77.8236 18.0078C78.1858 17.799 78.5906 17.6413 79.0381 17.5348C79.4855 17.4283 79.9415 17.3473 80.406 17.2919C80.994 17.2237 81.4713 17.1683 81.8378 17.1257C82.2043 17.0788 82.4706 17.0043 82.6368 16.902C82.803 16.7997 82.8861 16.6335 82.8861 16.4034V16.3587C82.8861 15.8004 82.7284 15.3679 82.4131 15.0611C82.102 14.7543 81.6375 14.6009 81.0196 14.6009C80.3761 14.6009 79.869 14.7436 79.4983 15.0291C79.1318 15.3104 78.8783 15.6236 78.7376 15.9688L76.9415 15.5597C77.1546 14.9631 77.4656 14.4815 77.8747 14.1151C78.2881 13.7443 78.7632 13.4759 79.3001 13.3097C79.8371 13.1392 80.4017 13.054 80.994 13.054C81.3861 13.054 81.8016 13.1009 82.2405 13.1946C82.6837 13.2841 83.097 13.4503 83.4805 13.6932C83.8683 13.9361 84.1858 14.2834 84.433 14.7351C84.6801 15.1825 84.8037 15.7642 84.8037 16.4801V23H82.9372V21.6577H82.8605C82.7369 21.9048 82.5516 22.1477 82.3044 22.3864C82.0572 22.625 81.7398 22.8232 81.352 22.9808C80.9642 23.1385 80.4997 23.2173 79.9585 23.2173ZM80.374 21.6832C80.9024 21.6832 81.3541 21.5788 81.7291 21.37C82.1084 21.1612 82.396 20.8885 82.5921 20.5518C82.7923 20.2109 82.8925 19.8466 82.8925 19.4588V18.1932C82.8243 18.2614 82.6922 18.3253 82.4962 18.3849C82.3044 18.4403 82.0849 18.4893 81.8378 18.532C81.5906 18.5703 81.3499 18.6065 81.1155 18.6406C80.8811 18.6705 80.6851 18.696 80.5274 18.7173C80.1567 18.7642 79.8179 18.843 79.5111 18.9538C79.2085 19.0646 78.9656 19.2244 78.7824 19.4332C78.6034 19.6378 78.5139 19.9105 78.5139 20.2514C78.5139 20.7244 78.6886 21.0824 79.0381 21.3253C79.3875 21.5639 79.8328 21.6832 80.374 21.6832ZM88.9906 17.1705V23H87.0793V13.1818H88.9139V14.7798H89.0353C89.2612 14.2599 89.6148 13.8423 90.0964 13.527C90.5822 13.2116 91.1937 13.054 91.9309 13.054C92.5999 13.054 93.1859 13.1946 93.6887 13.4759C94.1915 13.7528 94.5815 14.1662 94.8585 14.7159C95.1354 15.2656 95.2739 15.9453 95.2739 16.755V23H93.3627V16.9851C93.3627 16.2734 93.1773 15.7173 92.8066 15.3168C92.4359 14.9119 91.9266 14.7095 91.2789 14.7095C90.8357 14.7095 90.4415 14.8054 90.0964 14.9972C89.7555 15.1889 89.4849 15.4702 89.2846 15.8409C89.0886 16.2074 88.9906 16.6506 88.9906 17.1705ZM100.424 23.2173C99.8022 23.2173 99.2397 23.1023 98.7369 22.8722C98.234 22.6378 97.8356 22.299 97.5416 21.8558C97.2518 21.4126 97.1069 20.8693 97.1069 20.2259C97.1069 19.6719 97.2135 19.2159 97.4265 18.858C97.6396 18.5 97.9272 18.2166 98.2894 18.0078C98.6517 17.799 99.0565 17.6413 99.5039 17.5348C99.9514 17.4283 100.407 17.3473 100.872 17.2919C101.46 17.2237 101.937 17.1683 102.304 17.1257C102.67 17.0788 102.936 17.0043 103.103 16.902C103.269 16.7997 103.352 16.6335 103.352 16.4034V16.3587C103.352 15.8004 103.194 15.3679 102.879 15.0611C102.568 14.7543 102.103 14.6009 101.485 14.6009C100.842 14.6009 100.335 14.7436 99.9642 15.0291C99.5977 15.3104 99.3441 15.6236 99.2035 15.9688L97.4073 15.5597C97.6204 14.9631 97.9315 14.4815 98.3406 14.1151C98.7539 13.7443 99.2291 13.4759 99.766 13.3097C100.303 13.1392 100.868 13.054 101.46 13.054C101.852 13.054 102.267 13.1009 102.706 13.1946C103.15 13.2841 103.563 13.4503 103.946 13.6932C104.334 13.9361 104.652 14.2834 104.899 14.7351C105.146 15.1825 105.27 15.7642 105.27 16.4801V23H103.403V21.6577H103.326C103.203 21.9048 103.017 22.1477 102.77 22.3864C102.523 22.625 102.206 22.8232 101.818 22.9808C101.43 23.1385 100.966 23.2173 100.424 23.2173ZM100.84 21.6832C101.368 21.6832 101.82 21.5788 102.195 21.37C102.574 21.1612 102.862 20.8885 103.058 20.5518C103.258 20.2109 103.358 19.8466 103.358 19.4588V18.1932C103.29 18.2614 103.158 18.3253 102.962 18.3849C102.77 18.4403 102.551 18.4893 102.304 18.532C102.056 18.5703 101.816 18.6065 101.581 18.6406C101.347 18.6705 101.151 18.696 100.993 18.7173C100.623 18.7642 100.284 18.843 99.9769 18.9538C99.6744 19.0646 99.4315 19.2244 99.2483 19.4332C99.0693 19.6378 98.9798 19.9105 98.9798 20.2514C98.9798 20.7244 99.1545 21.0824 99.5039 21.3253C99.8534 21.5639 100.299 21.6832 100.84 21.6832ZM123.564 16.4545C123.564 17.8523 123.308 19.054 122.797 20.0597C122.285 21.0611 121.584 21.8324 120.694 22.3736C119.807 22.9105 118.8 23.179 117.67 23.179C116.537 23.179 115.525 22.9105 114.634 22.3736C113.748 21.8324 113.049 21.0589 112.537 20.0533C112.026 19.0476 111.77 17.848 111.77 16.4545C111.77 15.0568 112.026 13.8572 112.537 12.8558C113.049 11.8501 113.748 11.0788 114.634 10.5419C115.525 10.0007 116.537 9.73011 117.67 9.73011C118.8 9.73011 119.807 10.0007 120.694 10.5419C121.584 11.0788 122.285 11.8501 122.797 12.8558C123.308 13.8572 123.564 15.0568 123.564 16.4545ZM121.608 16.4545C121.608 15.3892 121.435 14.4922 121.09 13.7635C120.749 13.0305 120.28 12.4766 119.684 12.1016C119.091 11.7223 118.42 11.5327 117.67 11.5327C116.916 11.5327 116.243 11.7223 115.65 12.1016C115.058 12.4766 114.589 13.0305 114.244 13.7635C113.903 14.4922 113.733 15.3892 113.733 16.4545C113.733 17.5199 113.903 18.419 114.244 19.152C114.589 19.8807 115.058 20.4347 115.65 20.8139C116.243 21.1889 116.916 21.3764 117.67 21.3764C118.42 21.3764 119.091 21.1889 119.684 20.8139C120.28 20.4347 120.749 19.8807 121.09 19.152C121.435 18.419 121.608 17.5199 121.608 16.4545ZM127.514 17.1705V23H125.603V13.1818H127.437V14.7798H127.559C127.785 14.2599 128.138 13.8423 128.62 13.527C129.106 13.2116 129.717 13.054 130.454 13.054C131.123 13.054 131.709 13.1946 132.212 13.4759C132.715 13.7528 133.105 14.1662 133.382 14.7159C133.659 15.2656 133.797 15.9453 133.797 16.755V23H131.886V16.9851C131.886 16.2734 131.701 15.7173 131.33 15.3168C130.959 14.9119 130.45 14.7095 129.802 14.7095C129.359 14.7095 128.965 14.8054 128.62 14.9972C128.279 15.1889 128.008 15.4702 127.808 15.8409C127.612 16.2074 127.514 16.6506 127.514 17.1705ZM147.117 14.1662H145.123C145.046 13.7401 144.903 13.3651 144.694 13.0412C144.486 12.7173 144.23 12.4425 143.927 12.2166C143.625 11.9908 143.286 11.8203 142.911 11.7053C142.54 11.5902 142.146 11.5327 141.728 11.5327C140.974 11.5327 140.299 11.7223 139.702 12.1016C139.11 12.4808 138.641 13.0369 138.296 13.7699C137.955 14.5028 137.785 15.3977 137.785 16.4545C137.785 17.5199 137.955 18.419 138.296 19.152C138.641 19.8849 139.112 20.4389 139.709 20.8139C140.305 21.1889 140.976 21.3764 141.722 21.3764C142.135 21.3764 142.527 21.321 142.898 21.2102C143.273 21.0952 143.612 20.9268 143.915 20.7053C144.217 20.4837 144.473 20.2131 144.682 19.8935C144.895 19.5696 145.042 19.1989 145.123 18.7812L147.117 18.7876C147.01 19.4311 146.804 20.0234 146.497 20.5646C146.194 21.1016 145.804 21.5661 145.327 21.9581C144.854 22.3459 144.313 22.6463 143.704 22.8594C143.094 23.0724 142.429 23.179 141.709 23.179C140.576 23.179 139.566 22.9105 138.679 22.3736C137.793 21.8324 137.094 21.0589 136.583 20.0533C136.076 19.0476 135.822 17.848 135.822 16.4545C135.822 15.0568 136.078 13.8572 136.589 12.8558C137.101 11.8501 137.799 11.0788 138.686 10.5419C139.572 10.0007 140.58 9.73011 141.709 9.73011C142.404 9.73011 143.052 9.83026 143.652 10.0305C144.258 10.2266 144.801 10.5163 145.282 10.8999C145.764 11.2791 146.162 11.7436 146.478 12.2933C146.793 12.8388 147.006 13.4631 147.117 14.1662ZM151.914 23.2173C151.292 23.2173 150.73 23.1023 150.227 22.8722C149.724 22.6378 149.325 22.299 149.031 21.8558C148.742 21.4126 148.597 20.8693 148.597 20.2259C148.597 19.6719 148.703 19.2159 148.916 18.858C149.129 18.5 149.417 18.2166 149.779 18.0078C150.142 17.799 150.546 17.6413 150.994 17.5348C151.441 17.4283 151.897 17.3473 152.362 17.2919C152.95 17.2237 153.427 17.1683 153.793 17.1257C154.16 17.0788 154.426 17.0043 154.592 16.902C154.759 16.7997 154.842 16.6335 154.842 16.4034V16.3587C154.842 15.8004 154.684 15.3679 154.369 15.0611C154.058 14.7543 153.593 14.6009 152.975 14.6009C152.332 14.6009 151.825 14.7436 151.454 15.0291C151.088 15.3104 150.834 15.6236 150.693 15.9688L148.897 15.5597C149.11 14.9631 149.421 14.4815 149.83 14.1151C150.244 13.7443 150.719 13.4759 151.256 13.3097C151.793 13.1392 152.357 13.054 152.95 13.054C153.342 13.054 153.757 13.1009 154.196 13.1946C154.639 13.2841 155.053 13.4503 155.436 13.6932C155.824 13.9361 156.142 14.2834 156.389 14.7351C156.636 15.1825 156.759 15.7642 156.759 16.4801V23H154.893V21.6577H154.816C154.693 21.9048 154.507 22.1477 154.26 22.3864C154.013 22.625 153.695 22.8232 153.308 22.9808C152.92 23.1385 152.455 23.2173 151.914 23.2173ZM152.33 21.6832C152.858 21.6832 153.31 21.5788 153.685 21.37C154.064 21.1612 154.352 20.8885 154.548 20.5518C154.748 20.2109 154.848 19.8466 154.848 19.4588V18.1932C154.78 18.2614 154.648 18.3253 154.452 18.3849C154.26 18.4403 154.041 18.4893 153.793 18.532C153.546 18.5703 153.306 18.6065 153.071 18.6406C152.837 18.6705 152.641 18.696 152.483 18.7173C152.112 18.7642 151.774 18.843 151.467 18.9538C151.164 19.0646 150.921 19.2244 150.738 19.4332C150.559 19.6378 150.47 19.9105 150.47 20.2514C150.47 20.7244 150.644 21.0824 150.994 21.3253C151.343 21.5639 151.789 21.6832 152.33 21.6832ZM160.946 9.90909V23H159.035V9.90909H160.946ZM165.159 9.90909V23H163.247V9.90909H165.159Z" fill="black"/>
<path d="M21.9655 19.5209C22.1906 19.1391 22.3093 18.7039 22.3093 18.2607C22.3093 17.8174 22.1906 17.3822 21.9655 17.0004L18.2115 10.5043C17.9916 10.1205 17.6735 9.80218 17.2901 9.58182C16.9066 9.36154 16.4716 9.24723 16.0293 9.2505C15.5881 9.24768 15.1539 9.3623 14.7716 9.58266C14.3892 9.80294 14.0724 10.121 13.8535 10.5043L10.093 17.0004C9.86989 17.3829 9.75238 17.8179 9.75238 18.2607C9.75238 18.7036 9.86989 19.1384 10.093 19.5209C10.3126 19.9054 10.6303 20.2246 11.0138 20.4461C11.3972 20.6675 11.8326 20.7832 12.2753 20.7812H19.7897C20.2315 20.7827 20.6658 20.6668 21.0481 20.4454C21.4303 20.2239 21.7469 19.9049 21.9655 19.5209ZM11.8205 18.5204C11.7736 18.4419 11.7489 18.3522 11.7489 18.2607C11.7489 18.1692 11.7736 18.0794 11.8205 18.0008L15.5811 11.5046C15.6255 11.425 15.6906 11.3588 15.7695 11.3131C15.8483 11.2673 15.9382 11.2438 16.0293 11.2448C16.1213 11.244 16.2119 11.2676 16.2918 11.3132C16.3716 11.3589 16.438 11.425 16.484 11.5046L20.238 18.0008C20.2849 18.0794 20.3096 18.1692 20.3096 18.2607C20.3096 18.3522 20.2849 18.4419 20.238 18.5204C20.1935 18.6001 20.1284 18.6663 20.0496 18.7121C19.9707 18.7578 19.8809 18.7814 19.7897 18.7804H12.2753C12.1833 18.7812 12.0927 18.7576 12.0129 18.7119C11.933 18.6662 11.8666 18.6002 11.8205 18.5204ZM18.6207 24.7114C17.0899 25.1676 15.4657 25.2125 13.912 24.8413C13.6554 24.7805 13.3851 24.8236 13.1601 24.961C12.9351 25.0985 12.7735 25.3193 12.7104 25.5754C12.6796 25.7029 12.6743 25.8353 12.6948 25.965C12.7155 26.0946 12.7615 26.2188 12.8303 26.3306C12.8991 26.4422 12.9894 26.5393 13.0959 26.6159C13.2024 26.6926 13.3229 26.7474 13.4508 26.7772C14.3011 26.9848 15.1733 27.0895 16.0487 27.089C17.1155 27.0882 18.1765 26.9329 19.1987 26.6278C19.4488 26.5485 19.6574 26.3736 19.7791 26.1412C19.9007 25.9087 19.9256 25.6376 19.8482 25.3869C19.7743 25.135 19.6038 24.9225 19.3738 24.796C19.1438 24.6694 18.8731 24.6389 18.6207 24.7114ZM13.139 7.28864C13.2356 7.28806 13.3317 7.27494 13.4249 7.24966C14.9549 6.78912 16.5796 6.74208 18.1336 7.11328C18.2612 7.14413 18.3935 7.14944 18.5231 7.1289C18.6527 7.10829 18.7769 7.06221 18.8886 6.99334C19.0003 6.92448 19.0973 6.83424 19.174 6.72768C19.2506 6.62118 19.3053 6.50048 19.3351 6.37269C19.366 6.24513 19.3714 6.11272 19.3508 5.9831C19.3302 5.85347 19.284 5.72926 19.2152 5.61753C19.1464 5.50579 19.0561 5.40878 18.9496 5.33213C18.8431 5.25548 18.7226 5.20068 18.5948 5.17092C17.7436 4.96915 16.8716 4.86887 15.9968 4.87212C14.9236 4.87279 13.8561 5.02811 12.8273 5.33332C12.5767 5.41393 12.368 5.59007 12.2465 5.82355C12.1249 6.05702 12.1002 6.32898 12.1778 6.58054C12.2406 6.78624 12.3681 6.96621 12.5412 7.09376C12.7144 7.22131 12.924 7.28966 13.139 7.28864ZM9.80723 24.0098C9.98854 23.8162 10.0861 23.5588 10.0788 23.2936C10.0716 23.0285 9.95994 22.7769 9.76826 22.5936C8.60954 21.4936 7.75866 20.1096 7.30016 18.579C7.22099 18.3289 7.04621 18.1202 6.81382 17.9985C6.58144 17.8769 6.31036 17.852 6.05972 17.9294C5.80965 18.0086 5.60104 18.1834 5.47937 18.4159C5.3577 18.6483 5.33285 18.9194 5.41024 19.1701C5.96382 21.0373 7.00122 22.7249 8.41728 24.0617C8.59251 24.23 8.82394 24.3272 9.06675 24.3346C9.20582 24.3341 9.34336 24.3052 9.47078 24.2493C9.59814 24.1933 9.7127 24.1119 9.80723 24.0098ZM5.22836 13.408C5.16959 13.6654 5.21435 13.9357 5.35284 14.1604C5.49133 14.3853 5.71256 14.5466 5.96886 14.6099C6.04667 14.6163 6.12478 14.6163 6.20259 14.6099C6.42758 14.6096 6.64582 14.5329 6.82163 14.3925C6.99744 14.2521 7.12032 14.0562 7.1703 13.8368C7.54048 12.2877 8.31091 10.863 9.40448 9.70522C9.49485 9.6103 9.5657 9.4985 9.61267 9.37613C9.65965 9.25376 9.68198 9.12326 9.67834 8.99226C9.67469 8.86125 9.64525 8.73222 9.59162 8.61267C9.53792 8.49306 9.46112 8.38528 9.36563 8.29555C9.17318 8.11456 8.91693 8.01709 8.65286 8.02438C8.38886 8.03168 8.1383 8.14323 7.95616 8.33453C6.62163 9.7447 5.68099 11.4808 5.22836 13.3691V13.408ZM26.8367 18.5335C26.8675 18.4059 26.8728 18.2735 26.8522 18.1439C26.8316 18.0143 26.7856 17.89 26.7168 17.7783C26.6479 17.6666 26.5577 17.5696 26.4512 17.4929C26.3446 17.4163 26.2241 17.3615 26.0963 17.3317C25.839 17.2729 25.5686 17.3176 25.3439 17.4561C25.1192 17.5946 24.9579 17.8159 24.8947 18.0723C24.5229 19.6273 23.7478 21.0569 22.6476 22.2168C22.5571 22.3117 22.4865 22.4236 22.4395 22.5459C22.3925 22.6683 22.37 22.7988 22.3737 22.9298C22.3773 23.0608 22.4069 23.1898 22.4605 23.3094C22.5142 23.429 22.591 23.5368 22.6865 23.6265C22.87 23.8024 23.1143 23.9002 23.3684 23.8993C23.5039 23.8996 23.6381 23.8728 23.763 23.8204C23.888 23.7679 24.0012 23.6909 24.0959 23.594C25.4356 22.1806 26.3807 20.44 26.8367 18.5465V18.5335ZM22.2447 7.9383C22.1536 8.03277 22.0822 8.14445 22.0347 8.26688C21.9872 8.38931 21.9646 8.52 21.9683 8.65126C21.9718 8.78253 22.0017 8.91181 22.0559 9.03142C22.1101 9.15104 22.1875 9.25862 22.2838 9.3479C23.4422 10.4492 24.295 11.8326 24.7583 13.3626C24.8197 13.5684 24.9457 13.749 25.1176 13.8777C25.2896 14.0064 25.4983 14.0763 25.7131 14.0771C25.8102 14.0784 25.9068 14.063 25.9988 14.0317C26.1231 13.9932 26.2386 13.9305 26.3386 13.8472C26.4386 13.764 26.5212 13.6617 26.5815 13.5464C26.6419 13.431 26.6788 13.305 26.6903 13.1754C26.7018 13.0457 26.6875 12.915 26.6483 12.7909C26.0867 10.9258 25.0479 9.23955 23.6348 7.89926C23.4433 7.72422 23.1912 7.63046 22.9318 7.63776C22.6725 7.64499 22.4262 7.75277 22.2447 7.9383ZM5.39723 6.3922C5.5287 6.39274 5.65896 6.36712 5.78049 6.31694C5.90201 6.26676 6.01243 6.19297 6.10523 6.09982L6.54682 5.67764C6.7408 5.49807 6.85587 5.24894 6.86682 4.9848C6.87776 4.72066 6.78381 4.46296 6.60531 4.26794C6.51693 4.1711 6.41011 4.09273 6.29123 4.03734C6.17237 3.98195 6.04374 3.95063 5.91273 3.9452C5.78171 3.93976 5.65092 3.96035 5.52789 4.0057C5.40486 4.05106 5.29201 4.12032 5.19586 4.2095C5.0205 4.36541 4.85162 4.5278 4.68924 4.69021C4.59636 4.78257 4.52278 4.89239 4.47249 5.01335C4.42218 5.13431 4.39621 5.26401 4.39621 5.39501C4.39621 5.52602 4.42218 5.65572 4.47249 5.77668C4.52278 5.89764 4.59636 6.00746 4.68924 6.09982C4.78182 6.19326 4.89226 6.2673 5.01382 6.3175C5.1354 6.3677 5.26571 6.39309 5.39723 6.3922ZM10.2488 3.14412C10.3828 3.14656 10.5158 3.11997 10.6386 3.06617C10.8205 2.98821 11.0152 2.9167 11.2036 2.84524C11.3284 2.79974 11.443 2.72987 11.5405 2.63962C11.638 2.54937 11.7165 2.4406 11.7715 2.31965C11.8266 2.19869 11.857 2.06803 11.861 1.93521C11.865 1.80239 11.8424 1.67003 11.7947 1.54601C11.75 1.42061 11.6804 1.3055 11.5903 1.20748C11.5002 1.10946 11.3915 1.03059 11.2703 0.975456C11.1492 0.920314 11.018 0.890086 10.885 0.88656C10.7519 0.883034 10.6196 0.906272 10.4957 0.954918C10.2749 1.03287 10.0606 1.11733 9.84627 1.20828C9.60467 1.3115 9.41344 1.5056 9.31379 1.7487C9.21414 1.9918 9.21402 2.26438 9.3136 2.50751C9.38861 2.69306 9.51827 2.85144 9.68531 2.96165C9.85235 3.07187 10.0488 3.12867 10.2488 3.12461V3.14412ZM21.3485 3.03366L21.907 3.28051C22.0391 3.34225 22.1835 3.37334 22.3293 3.37147C22.5193 3.3715 22.7052 3.31709 22.8652 3.21462C23.0252 3.11215 23.1525 2.96591 23.232 2.7933C23.3345 2.55577 23.3411 2.28776 23.2502 2.04551C23.1594 1.80326 22.9783 1.6056 22.7449 1.49407L22.0954 1.21478C21.8507 1.11594 21.577 1.1178 21.3336 1.22001C21.0904 1.32222 20.8972 1.51648 20.7964 1.76044C20.7101 2.00035 20.7192 2.26424 20.822 2.49759C20.9247 2.73095 21.1133 2.91589 21.3485 3.01415V3.03366ZM29.1423 11.1539C29.2145 11.3439 29.3423 11.5076 29.5092 11.6236C29.6762 11.7396 29.8743 11.8022 30.0776 11.8035C30.1955 11.8045 30.3124 11.7825 30.4218 11.7385C30.5472 11.6938 30.6622 11.6243 30.7602 11.5341C30.8582 11.4441 30.9372 11.3352 30.9923 11.214C31.0474 11.0929 31.0776 10.9618 31.0811 10.8287C31.0847 10.6956 31.0614 10.5632 31.0128 10.4393C30.9348 10.2249 30.8505 10.004 30.7596 9.7897C30.6563 9.54803 30.4622 9.3568 30.2191 9.25709C29.9761 9.15744 29.7037 9.15744 29.4606 9.25702C29.219 9.36026 29.0278 9.55437 28.9281 9.79744C28.8285 10.0406 28.8284 10.3132 28.9279 10.5563C29.0319 10.7576 29.1034 10.946 29.1748 11.1343L29.1423 11.1539ZM1.99395 16.0324C1.99395 15.8376 1.99395 15.6427 1.99395 15.4478C2.00005 15.3167 1.98006 15.1857 1.93528 15.0624C1.89051 14.9391 1.82188 14.8259 1.73311 14.7292C1.64435 14.6326 1.53729 14.5544 1.41821 14.4994C1.29912 14.4444 1.17034 14.4134 1.03923 14.4084C0.774368 14.3996 0.516749 14.4956 0.322204 14.6756C0.12766 14.8556 0.0118217 15.105 0 15.3699C0 15.5843 0 15.8116 0 16.0195C0.00171525 16.2836 0.107859 16.5364 0.295248 16.7227C0.482637 16.9089 0.736077 17.0134 1.00023 17.0134C1.13375 17.0169 1.26657 16.9935 1.39093 16.9448C1.5153 16.8961 1.62875 16.823 1.7244 16.7297C1.82004 16.6365 1.89593 16.5251 1.94781 16.4019C1.99969 16.2788 2.02651 16.1466 2.02646 16.013L1.99395 16.0324ZM15.9513 1.99428H16.6008C16.8582 1.99612 17.1062 1.89734 17.2918 1.71896C17.4774 1.54058 17.586 1.2967 17.5946 1.03937C17.6006 0.908288 17.5806 0.777242 17.5359 0.653901C17.4911 0.530556 17.4225 0.417314 17.3337 0.320684C17.2449 0.224054 17.1379 0.146007 17.0188 0.0909555C16.8997 0.0359042 16.7709 0.0050041 16.6398 0H15.9903H15.9318C15.6671 0.00341693 15.4144 0.11097 15.2284 0.299432C15.0424 0.487894 14.938 0.742048 14.9381 1.00685C14.9482 1.26936 15.0606 1.51751 15.2511 1.69834C15.4416 1.87917 15.6952 1.97836 15.9578 1.97478L15.9513 1.99428ZM16.0163 30.0057H15.4252C15.2941 29.9996 15.1632 30.0195 15.0399 30.0643C14.9165 30.1091 14.8033 30.1779 14.7068 30.2666C14.6101 30.3554 14.532 30.4625 14.477 30.5816C14.422 30.7007 14.3911 30.8295 14.3861 30.9606C14.38 31.0917 14.3999 31.2227 14.4446 31.346C14.4894 31.4694 14.5582 31.5827 14.647 31.6793C14.7357 31.7759 14.8428 31.854 14.9619 31.9091C15.081 31.9641 15.2097 31.995 15.3409 32H15.9903C16.1213 32 16.2511 31.9741 16.3722 31.9238C16.4931 31.8734 16.6029 31.7996 16.6953 31.7066C16.7876 31.6136 16.8606 31.5033 16.9101 31.382C16.9597 31.2606 16.9849 31.1307 16.9841 30.9996C16.9896 30.7425 16.8951 30.4932 16.7207 30.3043C16.5462 30.1153 16.3053 30.0013 16.0487 29.9862L16.0163 30.0057ZM25.9014 25.9002C25.7585 26.0431 25.6156 26.1859 25.4662 26.3224C25.3689 26.4104 25.2901 26.5168 25.2342 26.6355C25.1782 26.7541 25.1462 26.8826 25.1402 27.0137C25.1341 27.1448 25.1542 27.2757 25.199 27.399C25.2438 27.5223 25.3126 27.6355 25.4013 27.732C25.4948 27.8337 25.6082 27.9149 25.7345 27.9708C25.8607 28.0266 25.9971 28.0559 26.1352 28.0569C26.377 28.0507 26.6081 27.9558 26.7846 27.7905C26.96 27.6346 27.1289 27.4722 27.2913 27.3098C27.3841 27.2174 27.4579 27.1076 27.5082 26.9866C27.5585 26.8657 27.5844 26.736 27.5844 26.605C27.5844 26.474 27.5585 26.3443 27.5082 26.2233C27.4579 26.1023 27.3841 25.9926 27.2913 25.9002C27.1082 25.7281 26.8676 25.6307 26.6164 25.6271C26.3652 25.6235 26.1219 25.714 25.934 25.8806L25.9014 25.9002ZM30.2464 20.8202C30.1258 20.7701 29.9964 20.7444 29.8657 20.7445C29.7351 20.7445 29.6058 20.7703 29.4852 20.8204C29.3645 20.8705 29.2549 20.9438 29.1626 21.0363C29.0704 21.1288 28.9973 21.2385 28.9475 21.3593C28.8695 21.5476 28.7852 21.7361 28.7007 21.918C28.5961 22.1546 28.5877 22.4226 28.6774 22.6652C28.7672 22.9078 28.948 23.1059 29.1814 23.2173C29.3134 23.279 29.4577 23.31 29.6035 23.3082C29.7935 23.3084 29.9798 23.2549 30.1407 23.1537C30.3016 23.0526 30.4305 22.908 30.5126 22.7366C30.6101 22.5287 30.7011 22.3078 30.7921 22.0869C30.8906 21.8479 30.8922 21.5798 30.7964 21.3397C30.7005 21.0996 30.5149 20.9062 30.2789 20.8006L30.2464 20.8202ZM27.2717 4.64469C27.1798 4.551 27.0702 4.47663 26.9492 4.42582C26.8282 4.37502 26.6983 4.34883 26.5671 4.34883C26.4358 4.34883 26.3059 4.37502 26.185 4.42582C26.0639 4.47663 25.9543 4.551 25.8624 4.64469C25.7688 4.73661 25.6944 4.84634 25.6436 4.96735C25.5928 5.08838 25.5665 5.21832 25.5665 5.34957C25.5665 5.48083 25.5928 5.61078 25.6436 5.73179C25.6944 5.85282 25.7688 5.96246 25.8624 6.05439C26.0053 6.1973 26.1482 6.34675 26.2845 6.49613C26.3786 6.59654 26.4924 6.67661 26.6186 6.73133C26.7448 6.78611 26.881 6.8144 27.0185 6.81446C27.2598 6.80595 27.4902 6.71142 27.668 6.5481C27.862 6.36853 27.977 6.11948 27.988 5.85535C27.9989 5.59121 27.905 5.33342 27.7265 5.13841C27.6486 4.95651 27.4666 4.78767 27.3043 4.62526L27.2717 4.64469ZM32 15.9285C31.9966 15.6648 31.89 15.4131 31.703 15.2272C31.516 15.0413 31.2634 14.9363 30.9997 14.9347C30.7345 14.938 30.481 15.0454 30.294 15.2337C30.1069 15.422 30.0014 15.6761 29.9997 15.9415V15.9999C29.9997 16.2013 29.9997 16.4093 29.9997 16.6106C29.9908 16.8745 30.086 17.1313 30.2645 17.3257C30.4431 17.5201 30.6908 17.6365 30.9544 17.65H30.9997C31.2572 17.6518 31.5052 17.5531 31.6908 17.3747C31.8764 17.1963 31.985 16.9524 31.9935 16.6951C31.9935 16.4677 31.9935 16.2338 31.9935 15.9999L32 15.9285ZM21.3681 28.9208L20.8029 29.1418C20.6775 29.1866 20.5623 29.256 20.4641 29.3459C20.3659 29.4359 20.2867 29.5446 20.231 29.6657C20.1754 29.7867 20.1444 29.9176 20.14 30.0508C20.1356 30.1839 20.1579 30.3165 20.2054 30.441C20.2776 30.631 20.4054 30.7948 20.5724 30.9108C20.7393 31.0267 20.9375 31.0894 21.1407 31.0906C21.2586 31.0916 21.3756 31.0695 21.4849 31.0256L22.1344 30.7787C22.376 30.6754 22.5677 30.4817 22.6685 30.2389C22.7692 29.9962 22.771 29.7236 22.6735 29.4795C22.5765 29.2384 22.3889 29.0449 22.1509 28.9405C21.913 28.8361 21.6435 28.829 21.4004 28.9208H21.3681ZM2.84481 20.7941C2.80008 20.6687 2.7305 20.5536 2.64042 20.4556C2.55035 20.3576 2.4416 20.2787 2.32044 20.2236C2.19928 20.1684 2.06819 20.1382 1.93513 20.1347C1.80207 20.1311 1.66976 20.1544 1.54585 20.203C1.41994 20.247 1.30423 20.316 1.20573 20.406C1.10723 20.4959 1.02787 20.6049 0.97264 20.7263C0.917402 20.8477 0.887398 20.9791 0.88432 21.1124C0.881235 21.2458 0.905146 21.3784 0.95472 21.5023C1.03266 21.7166 1.11718 21.9375 1.20811 22.1519C1.2829 22.3331 1.40988 22.4879 1.57297 22.5967C1.73605 22.7054 1.92781 22.7631 2.12382 22.7625C2.25547 22.7623 2.38581 22.7358 2.50707 22.6845C2.62782 22.6347 2.73761 22.5616 2.83007 22.4693C2.92253 22.377 2.99581 22.2674 3.04588 22.1468C3.09594 22.026 3.12179 21.8966 3.12183 21.766C3.12187 21.6354 3.09619 21.506 3.04619 21.3853C3.02021 21.1774 2.96825 20.9825 2.87732 20.7941H2.84481ZM2.8058 8.76333C2.56932 8.65862 2.30135 8.65024 2.05881 8.73997C1.81626 8.82976 1.61825 9.01056 1.50684 9.24403C1.40942 9.45837 1.31204 9.67277 1.22761 9.89363C1.12841 10.1376 1.12939 10.4108 1.2303 10.654C1.33123 10.8972 1.52384 11.0909 1.76657 11.1929C1.88909 11.2391 2.01888 11.2633 2.14982 11.2643C2.35083 11.2605 2.54614 11.1966 2.71051 11.0808C2.87488 10.9651 3.00074 10.8027 3.07204 10.6147C3.14998 10.4263 3.22799 10.238 3.31892 10.0561C3.41995 9.82003 3.4263 9.55418 3.33684 9.31354C3.24738 9.07296 3.06896 8.87597 2.83831 8.76333H2.8058ZM5.68947 25.4584C5.51083 25.2635 5.26239 25.1472 4.99828 25.135C4.73418 25.1229 4.47595 25.2158 4.28015 25.3935C4.18313 25.4825 4.10458 25.5897 4.04911 25.7091C3.99365 25.8285 3.96242 25.9578 3.95699 26.0894C3.95156 26.2209 3.97213 26.3523 4.01756 26.4759C4.063 26.5995 4.13228 26.7129 4.22163 26.8096C4.37751 26.9785 4.53987 27.1474 4.70225 27.3098C4.79406 27.4024 4.90342 27.476 5.02381 27.5262C5.14421 27.5764 5.27331 27.6022 5.40374 27.6022C5.53521 27.6027 5.66547 27.5771 5.78699 27.5269C5.90851 27.4767 6.01893 27.4029 6.11173 27.3098C6.29814 27.1213 6.40269 26.8669 6.40269 26.6017C6.40269 26.3366 6.29814 26.0822 6.11173 25.8937C6.00132 25.7508 5.85837 25.6208 5.72198 25.4584H5.68947ZM10.6581 28.9274C10.4698 28.8494 10.2813 28.7714 10.093 28.6804C9.85549 28.5779 9.58752 28.5714 9.34534 28.6622C9.10317 28.7531 8.90554 28.9342 8.79398 29.1677C8.69146 29.4052 8.68493 29.6733 8.77581 29.9156C8.86662 30.1578 9.04774 30.3554 9.28115 30.4669C9.48896 30.5644 9.7033 30.6618 9.93062 30.7463C10.0518 30.7976 10.1822 30.8241 10.3139 30.8243C10.5149 30.8204 10.71 30.7565 10.8744 30.6408C11.0388 30.525 11.1648 30.3626 11.2361 30.1746C11.3177 29.9361 11.3069 29.6757 11.206 29.4447C11.105 29.2138 10.921 29.0292 10.6904 28.9274H10.6581Z" fill="#FF6224"/>
</svg>
