<svg width="27" height="22" viewBox="0 0 27 22" fill="none" xmlns="http://www.w3.org/2000/svg">
<path d="M2.53125 15.1875V2.53125C2.53125 1.5975 3.285 0.84375 4.21875 0.84375H22.7812C23.715 0.84375 24.4688 1.5975 24.4688 2.53125V15.1875" stroke="#FB755A" stroke-width="1.5" stroke-linecap="round" stroke-linejoin="round"/>
<path d="M16.4025 15.1875C15.8062 16.2338 14.6925 16.875 13.5 16.875C12.3075 16.875 11.1938 16.2338 10.5975 15.1875H0.84375V16.875C0.84375 18.7425 2.35125 20.25 4.21875 20.25H22.7812C24.6487 20.25 26.1562 18.7425 26.1562 16.875V15.1875H16.4025Z" stroke="#FB755A" stroke-width="1.5" stroke-linecap="round" stroke-linejoin="round"/>
<path d="M12.2845 5.15254C12.0033 5.01754 11.6658 5.02879 11.3958 5.18629C11.1258 5.33254 10.9683 5.61379 10.957 5.91754V10.1025C10.957 10.4063 11.1258 10.6875 11.3958 10.8338C11.6658 10.9913 12.0033 11.0025 12.2845 10.8675L16.2108 9.01129C16.6158 8.83129 16.8745 8.43754 16.8745 7.99879C16.8745 7.56004 16.6158 7.16629 16.2108 6.98629L12.2845 5.13004V5.15254Z" stroke="#FB755A" stroke-width="1.5" stroke-linecap="round" stroke-linejoin="round"/>
</svg>
