<svg width="25" height="25" viewBox="0 0 25 25" fill="none" xmlns="http://www.w3.org/2000/svg">
<path d="M9.19922 17.7746C9.19922 15.9746 7.69922 14.4746 5.89922 14.4746C5.79922 14.4746 5.79922 14.4746 5.69922 14.4746" stroke="#FF6829" stroke-width="1.5" stroke-linecap="round" stroke-linejoin="round"/>
<path d="M5.80078 10.4746C5.90078 10.4746 5.90078 10.4746 6.00078 10.4746C7.70078 10.4746 9.20078 8.97462 9.20078 7.17462" stroke="#FF6829" stroke-width="1.5" stroke-linecap="round" stroke-linejoin="round"/>
<path d="M12.1992 6.37463V18.3746" stroke="#FF6829" stroke-width="1.5" stroke-linecap="round" stroke-linejoin="round"/>
<path d="M15.1992 17.7746C15.1992 15.9746 16.6992 14.4746 18.4992 14.4746C18.5992 14.4746 18.5992 14.4746 18.6992 14.4746" stroke="#FF6829" stroke-width="1.5" stroke-linecap="round" stroke-linejoin="round"/>
<path d="M18.5996 10.4746C18.4996 10.4746 18.4996 10.4746 18.3996 10.4746C16.5996 10.4746 15.0996 8.97462 15.0996 7.17462" stroke="#FF6829" stroke-width="1.5" stroke-linecap="round" stroke-linejoin="round"/>
<path d="M23.4 12.3746C23.4 11.0746 22.5 9.87461 21.2 9.47461C21.8 8.87461 22 7.97461 21.8 7.07461C21.6 6.17461 20.7 5.67461 19.9 5.57461C19.8 5.47461 19.6 5.27461 19.5 5.17461C20.1 3.67461 19.4 1.97461 18 1.27461C16.5 0.574613 14.8 1.27461 14.1 2.67461C13.7 2.07461 13 1.77461 12.3 1.77461C11.6 1.77461 10.9 2.07461 10.5 2.67461C9.7 1.37461 7.9 0.674613 6.4 1.37461C5 2.07461 4.3 3.77461 4.9 5.27461C4.8 5.37461 4.6 5.57461 4.5 5.67461C3.6 5.77461 2.9 6.27461 2.6 7.17461C2.3 7.97461 2.5 8.87461 3.1 9.47461C1.8 9.87461 1 11.0746 1 12.3746C1 13.6746 1.9 14.8746 3.2 15.2746C2.6 15.8746 2.4 16.7746 2.6 17.6746C2.9 18.4746 3.7 19.0746 4.5 19.1746C4.6 19.2746 4.8 19.4746 4.9 19.5746C4.3 21.0746 5 22.7746 6.4 23.4746C7.9 24.1746 9.6 23.4746 10.3 22.0746C10.7 22.6746 11.4 22.9746 12.1 22.9746C12.8 22.9746 13.5 22.6746 13.9 22.0746C14.6 23.4746 16.4 24.1746 17.8 23.4746C19.3 22.7746 20 21.0746 19.3 19.5746C19.5 19.4746 19.6 19.3746 19.7 19.1746C20.6 19.0746 21.3 18.4746 21.6 17.6746C21.9 16.8746 21.7 15.8746 21 15.2746C22.6 14.9746 23.5 13.7746 23.4 12.3746Z" stroke="#FF6829" stroke-width="1.5" stroke-linecap="round" stroke-linejoin="round"/>
</svg>
