<svg width="24" height="24" viewBox="0 0 24 24" fill="none" xmlns="http://www.w3.org/2000/svg">
<path d="M4.5 18H3.75C2.09 18 0.75 16.66 0.75 15V12C0.75 10.34 2.09 9 3.75 9H4.5C4.91 9 5.25 9.34 5.25 9.75V17.25C5.25 17.66 4.91 18 4.5 18Z" stroke="#FB755A" stroke-width="1.5" stroke-linecap="round" stroke-linejoin="round"/>
<path d="M20.25 18H19.5C19.09 18 18.75 17.66 18.75 17.25V9.75C18.75 9.34 19.09 9 19.5 9H20.25C21.91 9 23.25 10.34 23.25 12V15C23.25 16.66 21.91 18 20.25 18Z" stroke="#FB755A" stroke-width="1.5" stroke-linecap="round" stroke-linejoin="round"/>
<path d="M3.75 9C3.75 4.44 7.44 0.75 12 0.75C14.19 0.75 16.29 1.62 17.83 3.17C19.38 4.72 20.25 6.82 20.25 9" stroke="#FB755A" stroke-width="1.5" stroke-linecap="round" stroke-linejoin="round"/>
<path d="M15 21.75H17.25C18.91 21.75 20.25 20.41 20.25 18.75V18" stroke="#FB755A" stroke-width="1.5" stroke-linecap="round" stroke-linejoin="round"/>
<path d="M13.5 23.25H12C11.17 23.25 10.5 22.58 10.5 21.75C10.5 20.92 11.17 20.25 12 20.25H13.5C14.33 20.25 15 20.92 15 21.75C15 22.58 14.33 23.25 13.5 23.25Z" stroke="#FB755A" stroke-width="1.5" stroke-linecap="round" stroke-linejoin="round"/>
<path d="M9 15.44C10.7 16.99 13.3 16.99 15 15.44" stroke="#FB755A" stroke-width="1.5" stroke-linecap="round" stroke-linejoin="round"/>
<path d="M9 9.97998V11.29" stroke="#FB755A" stroke-width="1.5" stroke-linecap="round" stroke-linejoin="round"/>
<path d="M15 9.97998V11.29" stroke="#FB755A" stroke-width="1.5" stroke-linecap="round" stroke-linejoin="round"/>
</svg>
