<?xml version="1.0" encoding="utf-8"?>
<!-- Generator: Adobe Illustrator 23.0.6, SVG Export Plug-In . SVG Version: 6.00 Build 0)  -->
<svg version="1.1" id="Layer_1" xmlns="http://www.w3.org/2000/svg" xmlns:xlink="http://www.w3.org/1999/xlink" x="0px" y="0px"
	 viewBox="0 0 428 394" style="enable-background:new 0 0 428 394;" xml:space="preserve">
<style type="text/css">
	.st0{fill:#FBCA0A;}
	.st1{fill:#8AB8FF;}
	.st2{fill:#F24965;}
</style>
<g transform="translate(-1178 -4415)">
	<path class="st0" d="M1577,4732.9c-1.1,0-2-0.9-2-2c0-0.5,0.2-1,0.6-1.4l9.7-9.7c0.8-0.7,2-0.7,2.8,0l6.1,6.1l8.3-8.3
		c0.8-0.8,2.1-0.7,2.8,0.1c0.7,0.8,0.7,2,0,2.8l-9.7,9.7c-0.8,0.7-2,0.7-2.8,0l-6.1-6.1l-8.3,8.3
		C1578,4732.7,1577.5,4732.9,1577,4732.9z"/>
	<path class="st1" d="M1587.5,4484c-6.9,0-12.5-5.6-12.5-12.5c0-6.9,5.6-12.5,12.5-12.5s12.5,5.6,12.5,12.5l0,0
		C1600,4478.4,1594.4,4484,1587.5,4484z"/>
	<path class="st2" d="M1246,4809c-3.9,0-7-3.1-7-7c0-3.9,3.1-7,7-7s7,3.1,7,7C1253,4805.9,1249.9,4809,1246,4809z"/>
</g>
</svg>
