<svg xmlns="http://www.w3.org/2000/svg" width="476.999" height="437" viewBox="0 0 476.999 437"><g transform="translate(-1155.001 -3721)"><circle cx="195.5" cy="195.5" r="195.5" transform="translate(1180 3721)" fill="#8ab8ff"/><g transform="translate(1355 3881)" fill="none" stroke="#8ab8ff" stroke-width="4"><circle cx="138.5" cy="138.5" r="138.5" stroke="none"/><circle cx="138.5" cy="138.5" r="136.5" fill="none"/></g><circle cx="163.5" cy="163.5" r="163.5" transform="translate(1212 3753)" fill="#fff"/><g transform="translate(-1350.029 3292.641)"><path d="M2517.53,459.269a2.455,2.455,0,1,1,2.455-2.455A2.457,2.457,0,0,1,2517.53,459.269Z" fill="#fbca0a"/><path d="M2527.575,459.269a2.455,2.455,0,1,1,2.455-2.455A2.458,2.458,0,0,1,2527.575,459.269Z" fill="#fbca0a"/><path d="M2507.485,469.314a2.455,2.455,0,1,1,2.456-2.455A2.457,2.457,0,0,1,2507.485,469.314Z" fill="#fbca0a"/><path d="M2517.53,469.314a2.455,2.455,0,1,1,2.455-2.455A2.457,2.457,0,0,1,2517.53,469.314Z" fill="#fbca0a"/><path d="M2527.575,469.314a2.455,2.455,0,1,1,2.455-2.455A2.458,2.458,0,0,1,2527.575,469.314Z" fill="#fbca0a"/><path d="M2507.485,479.359a2.456,2.456,0,1,1,2.456-2.456A2.458,2.458,0,0,1,2507.485,479.359Z" fill="#fbca0a"/><path d="M2517.53,479.359a2.456,2.456,0,1,1,2.455-2.456A2.458,2.458,0,0,1,2517.53,479.359Z" fill="#fbca0a"/></g><rect width="15" height="15" transform="translate(1606.029 3866.359)" fill="#00e5b9"/></g></svg>