<svg width="48" height="48" viewBox="0 0 48 48" fill="none" xmlns="http://www.w3.org/2000/svg">
<circle opacity="0.15" cx="24" cy="24" r="24" fill="#EC6D13"/>
<circle opacity="0.2" cx="24" cy="24" r="18" fill="#EC6D13"/>
<path d="M31.5 19.75L35.5 22.5V33C35.5 33.8284 34.8284 34.5 34 34.5H14C13.1716 34.5 12.5 33.8284 12.5 33V22.5L16.5 19.75" stroke="#FF671D" stroke-width="1.5" stroke-linecap="round" stroke-linejoin="round"/>
<path d="M15.5 31.5L20.5 27.5H27.5L32.5 31.5" stroke="#FF671D" stroke-width="1.5" stroke-linecap="round" stroke-linejoin="round"/>
<path d="M35.5 22.5L29.5 26.5" stroke="#FF671D" stroke-width="1.5" stroke-linecap="round" stroke-linejoin="round"/>
<path d="M12.5 22.5L18.5 26.5" stroke="#FF671D" stroke-width="1.5" stroke-linecap="round" stroke-linejoin="round"/>
<path d="M31.5 25.167V12.5C31.5 11.9477 31.0523 11.5 30.5 11.5H17.5C16.9477 11.5 16.5 11.9477 16.5 12.5V25.167" stroke="#FF671D" stroke-width="1.5" stroke-linecap="round" stroke-linejoin="round"/>
<path d="M28.9883 18.3073C28.9671 18.1155 28.946 17.881 28.8615 17.6252C28.7981 17.3695 28.6924 17.0924 28.5445 16.794C28.3966 16.4956 28.2064 16.1972 27.974 15.8988C27.8894 15.7922 27.7838 15.6643 27.657 15.5577C27.826 14.8757 27.4457 14.3002 27.4457 14.3002C26.8117 14.2575 26.3891 14.492 26.2412 14.6199C26.2201 14.6199 26.1989 14.5986 26.1567 14.5773C26.051 14.5346 25.9454 14.492 25.8186 14.4494C25.6918 14.4067 25.5861 14.3854 25.4593 14.3428C25.3326 14.3215 25.2058 14.3002 25.1001 14.2789C25.079 14.2789 25.0578 14.2789 25.0367 14.2789C24.762 13.3837 23.959 13 23.959 13C23.0715 13.5755 22.9025 14.3641 22.9025 14.3641C22.9025 14.3641 22.9025 14.3854 22.9025 14.4067C22.8602 14.4281 22.7968 14.4281 22.7545 14.4494C22.6911 14.4707 22.6277 14.492 22.5432 14.5133C22.4798 14.5346 22.4164 14.556 22.3319 14.5986C22.2051 14.6625 22.0572 14.7265 21.9304 14.7904C21.8036 14.8544 21.6768 14.9396 21.5501 15.0249C21.5289 15.0249 21.5289 15.0036 21.5289 15.0036C20.2822 14.5346 19.1834 15.1101 19.1834 15.1101C19.0777 16.4316 19.6694 17.2842 19.7962 17.4334C19.775 17.5187 19.7328 17.6039 19.7116 17.6892C19.6271 17.9876 19.5426 18.3073 19.5003 18.627C19.5003 18.6696 19.4792 18.7123 19.4792 18.7549C18.3381 19.3304 18 20.5027 18 20.5027C18.9509 21.611 20.0709 21.675 20.0709 21.675C20.2188 21.9307 20.3667 22.1652 20.5569 22.3996C20.6414 22.4849 20.7259 22.5915 20.7893 22.6767C20.4512 23.6785 20.8316 24.5098 20.8316 24.5098C21.8882 24.5524 22.5855 24.0409 22.7334 23.913C22.8391 23.9556 22.9447 23.9769 23.0504 24.0195C23.3673 24.1048 23.7054 24.1474 24.0435 24.1687C24.1281 24.1687 24.2126 24.1687 24.2971 24.1687H24.3394H24.3605H24.4028H24.445C24.9522 24.8934 25.8186 25 25.8186 25C26.4525 24.3393 26.4736 23.6785 26.4736 23.5293C26.4736 23.508 26.4736 23.508 26.4736 23.508V23.4867C26.6004 23.4014 26.7272 23.2949 26.854 23.1883C27.1076 22.9538 27.3189 22.698 27.5091 22.421C27.5302 22.3996 27.5513 22.3783 27.5513 22.3357C28.2698 22.3783 28.7558 21.8881 28.7558 21.8881C28.629 21.1421 28.2064 20.7798 28.1219 20.7158C28.1219 20.7158 28.1219 20.7158 28.1007 20.7158C28.1007 20.6732 28.1007 20.6306 28.1007 20.5879C28.1007 20.5027 28.1007 20.4174 28.1007 20.3535V20.2469V20.2256V20.2043C28.1007 20.1829 28.1007 20.1829 28.1007 20.1829V20.1403V20.0764C28.1007 20.0551 28.1007 20.0337 28.1007 20.0124C28.1007 19.9911 28.1007 19.9698 28.1007 19.9485V19.8845V19.8206C28.0796 19.7353 28.0796 19.6501 28.0585 19.5861C27.974 19.2664 27.8683 18.968 27.6993 18.6909C27.5302 18.4139 27.34 18.1794 27.1076 17.9663C26.8751 17.7531 26.6216 17.6039 26.3469 17.476C26.0721 17.3481 25.7974 17.2842 25.5016 17.2416C25.3537 17.2202 25.2269 17.2202 25.079 17.2202H25.0367H25.0156H24.9945H24.9733H24.9311C24.9099 17.2202 24.8888 17.2202 24.8677 17.2202C24.8043 17.2202 24.7197 17.2416 24.6563 17.2416C24.3816 17.2842 24.1069 17.3908 23.8745 17.54C23.6421 17.6892 23.4307 17.8597 23.2617 18.0515C23.0926 18.2433 22.9658 18.4778 22.8813 18.7123C22.7968 18.9467 22.7545 19.1812 22.7334 19.4156C22.7334 19.4796 22.7334 19.5222 22.7334 19.5861C22.7334 19.6075 22.7334 19.6075 22.7334 19.6288V19.6714C22.7334 19.6927 22.7334 19.7353 22.7334 19.7567C22.7545 19.8632 22.7757 19.9911 22.7968 20.0977C22.8602 20.3108 22.9658 20.5027 23.0715 20.6732C23.1983 20.8437 23.3462 20.9716 23.4941 21.0782C23.642 21.1847 23.8111 21.27 23.9802 21.3126C24.1492 21.3552 24.2971 21.3766 24.4662 21.3766C24.4873 21.3766 24.5084 21.3766 24.5296 21.3766H24.5507H24.5718C24.593 21.3766 24.6141 21.3766 24.6141 21.3766C24.6141 21.3766 24.6141 21.3766 24.6352 21.3766H24.6563H24.6775C24.6986 21.3766 24.7197 21.3766 24.7409 21.3766C24.762 21.3766 24.7831 21.3766 24.8043 21.3552C24.8465 21.3552 24.8677 21.3339 24.9099 21.3339C24.9733 21.3126 25.0367 21.2913 25.1001 21.2487C25.1635 21.2274 25.2058 21.1847 25.2692 21.1421C25.2903 21.1421 25.2903 21.1208 25.3114 21.0995C25.3748 21.0568 25.3748 20.9716 25.3326 20.929C25.2903 20.8863 25.2269 20.865 25.1846 20.9076C25.1635 20.9076 25.1635 20.929 25.1424 20.929C25.1001 20.9503 25.0578 20.9716 24.9945 20.9929C24.9522 21.0142 24.8888 21.0142 24.8465 21.0355C24.8254 21.0355 24.7831 21.0355 24.762 21.0355C24.7409 21.0355 24.7409 21.0355 24.7197 21.0355C24.6986 21.0355 24.6986 21.0355 24.6775 21.0355C24.6564 21.0355 24.6563 21.0355 24.6352 21.0355C24.6141 21.0355 24.593 21.0355 24.593 21.0355H24.5718H24.5507C24.5296 21.0355 24.5296 21.0355 24.5084 21.0355C24.3816 21.0142 24.276 20.9929 24.1492 20.929C24.0224 20.8863 23.9168 20.8011 23.8111 20.7158C23.7054 20.6306 23.6209 20.5027 23.5575 20.3961C23.4941 20.2895 23.4307 20.1403 23.4096 19.9911C23.3885 19.9272 23.3885 19.8419 23.3885 19.778C23.3885 19.7567 23.3885 19.7353 23.3885 19.714V19.6927V19.6714C23.3885 19.6288 23.3885 19.5861 23.4096 19.5435C23.473 19.2238 23.6209 18.9254 23.8745 18.6696C23.9379 18.6057 24.0013 18.5631 24.0647 18.4991C24.1281 18.4565 24.2126 18.4139 24.276 18.3712C24.3605 18.3286 24.445 18.3073 24.5084 18.286C24.593 18.2647 24.6775 18.2433 24.762 18.2433C24.8043 18.2433 24.8465 18.2433 24.8888 18.2433C24.9099 18.2433 24.9099 18.2433 24.9099 18.2433H24.9522H24.9733H25.0156C25.1001 18.2433 25.2058 18.2647 25.2903 18.286C25.4805 18.3286 25.6495 18.3925 25.8186 18.4991C26.1567 18.6909 26.4314 18.9893 26.6216 19.3304C26.7061 19.5009 26.7695 19.6927 26.8117 19.8845C26.8117 19.9272 26.8329 19.9911 26.8329 20.0337V20.0764V20.119C26.8329 20.1403 26.8329 20.1403 26.8329 20.1616C26.8329 20.1829 26.8329 20.1829 26.8329 20.2043V20.2469V20.2895C26.8329 20.3108 26.8329 20.3535 26.8329 20.3748C26.8329 20.4387 26.8329 20.4814 26.8117 20.5453C26.8117 20.5879 26.7906 20.6519 26.7906 20.6945C26.7906 20.7371 26.7695 20.8011 26.7483 20.8437C26.7272 20.9503 26.6849 21.0568 26.6427 21.1421C26.5582 21.3339 26.4525 21.5258 26.3257 21.7176C26.0721 22.0586 25.734 22.357 25.3326 22.5275C25.1424 22.6128 24.9311 22.6767 24.7197 22.7194C24.6141 22.7407 24.5084 22.7407 24.4028 22.762H24.3816H24.3605H24.3182H24.276H24.2549C24.1915 22.762 24.1492 22.762 24.0858 22.762C23.8534 22.7407 23.6209 22.698 23.4096 22.6341C23.1983 22.5702 22.9658 22.4849 22.7757 22.3783C22.3742 22.1652 22.0149 21.8668 21.7191 21.5044C21.5712 21.3339 21.4444 21.1421 21.3599 20.929C21.2542 20.7158 21.1697 20.5027 21.1063 20.2895C21.0429 20.0764 21.0006 19.8419 21.0006 19.6288V19.5861V19.5648V19.5222V19.3943V19.373V19.3304V19.3091C21.0006 19.2877 21.0006 19.2451 21.0006 19.2238C21.0006 19.1172 21.0218 18.9893 21.0218 18.8828C21.0429 18.7762 21.064 18.6483 21.0852 18.5417C21.1063 18.4352 21.1274 18.3073 21.1697 18.2007C21.2331 17.9876 21.3176 17.7744 21.4021 17.5613C21.5923 17.1563 21.8248 16.794 22.1206 16.5169C22.184 16.4529 22.2685 16.3677 22.353 16.3037C22.4376 16.2398 22.5221 16.1758 22.6066 16.1332C22.6911 16.0693 22.7757 16.0266 22.8602 15.984C22.9025 15.9627 22.9447 15.9414 22.987 15.9201C23.0081 15.9201 23.0292 15.8988 23.0504 15.8988C23.0715 15.8988 23.0926 15.8774 23.1138 15.8774C23.1983 15.8348 23.3039 15.8135 23.3885 15.7709C23.4096 15.7709 23.4307 15.7496 23.4519 15.7496C23.473 15.7496 23.4941 15.7282 23.5153 15.7282C23.5575 15.7069 23.6209 15.7069 23.6632 15.6856C23.6843 15.6856 23.7054 15.6643 23.7477 15.6643C23.7688 15.6643 23.79 15.6643 23.8322 15.643C23.8534 15.643 23.8745 15.643 23.9168 15.6217H23.959H24.0013C24.0224 15.6217 24.0435 15.6217 24.0858 15.6004C24.1069 15.6004 24.1492 15.6004 24.1703 15.579C24.1915 15.579 24.2337 15.579 24.2549 15.579C24.276 15.579 24.2971 15.579 24.3182 15.579H24.3605H24.3816H24.4028C24.4239 15.579 24.4662 15.579 24.4873 15.579H24.5296H24.5507C24.5718 15.579 24.593 15.579 24.6141 15.579C24.7197 15.579 24.8043 15.579 24.9099 15.579C25.1001 15.579 25.2903 15.6004 25.4805 15.643C25.8397 15.7069 26.1778 15.8348 26.4948 15.984C26.8117 16.1332 27.0864 16.325 27.3189 16.5382C27.34 16.5595 27.34 16.5595 27.3612 16.5808C27.3823 16.6021 27.3823 16.6021 27.4034 16.6234C27.4245 16.6448 27.4668 16.6661 27.4879 16.7087C27.5091 16.7513 27.5513 16.7513 27.5725 16.794C27.5936 16.8366 27.6359 16.8579 27.657 16.8792C27.7626 16.9858 27.8472 17.0924 27.9317 17.2202C28.1007 17.4334 28.2487 17.6679 28.3543 17.881C28.3543 17.9023 28.3755 17.9023 28.3755 17.9236C28.3755 17.9449 28.3966 17.9449 28.3966 17.9663C28.4177 17.9876 28.4177 18.0089 28.4388 18.0515C28.46 18.0728 28.46 18.0941 28.4811 18.1368C28.5022 18.1581 28.5022 18.1794 28.5234 18.222C28.5656 18.3286 28.6079 18.4139 28.629 18.4991C28.6713 18.6483 28.7136 18.7762 28.7347 18.8828C28.7558 18.9254 28.7981 18.968 28.8403 18.9467C28.8826 18.9467 28.9249 18.9041 28.9249 18.8615C29.0094 18.6057 29.0094 18.4565 28.9883 18.3073Z" fill="#FF671D"/>
</svg>
