<svg version="1.1" id="Layer_1" xmlns="http://www.w3.org/2000/svg" xmlns:xlink="http://www.w3.org/1999/xlink" x="0px" y="0px"
	 viewBox="0 0 1920 1973" style="enable-background:new 0 0 1920 1973;" xml:space="preserve">
<style type="text/css">
	.st0{opacity:0.7;fill:url(#SVGID_1_);}
	.st1{opacity:0.7;fill:url(#SVGID_2_);}
	.st2{fill:#E8ECEE;}
	.st3{fill:none;stroke:#E8ECEE;stroke-width:3;stroke-miterlimit:10;}
	
		.st4{fill:none;stroke:#E8ECEE;stroke-width:7;stroke-linecap:round;stroke-linejoin:round;stroke-miterlimit:10;stroke-dasharray:0,40;}
	.st5{fill:#FFFFFF;}
</style>
<linearGradient id="SVGID_1_" gradientUnits="userSpaceOnUse" x1="-544.7361" y1="77.3508" x2="809.2983" y2="77.3508" gradientTransform="matrix(-0.5499 0.8352 -0.8352 -0.5499 559.406 222.2473)">
	<stop  offset="0.1587" style="stop-color:#FFFFFF;stop-opacity:0"/>
	<stop  offset="1" style="stop-color:#F0F3F5"/>
</linearGradient>
<circle class="st0" cx="422.1" cy="290.2" r="677"/>
<linearGradient id="SVGID_2_" gradientUnits="userSpaceOnUse" x1="-402.9904" y1="-1594.3641" x2="1288.2291" y2="-1594.3641" gradientTransform="matrix(-0.1341 0.991 -0.991 -0.1341 171.3099 718.7485)">
	<stop  offset="0.1587" style="stop-color:#FFFFFF;stop-opacity:0"/>
	<stop  offset="1" style="stop-color:#F0F3F5"/>
</linearGradient>
<circle class="st1" cx="1691.9" cy="1371.1" r="845.6"/>
<g>
	<path class="st2" d="M995.5,185.2c-1.4,0-2.5-1.1-2.5-2.5c0-1.4,1.1-2.5,2.5-2.5s2.5,1.1,2.5,2.5
		C997.9,184.1,996.8,185.2,995.5,185.2z"/>
	<path class="st2" d="M1005.5,185.2c-1.4,0-2.5-1.1-2.5-2.5c0-1.4,1.1-2.5,2.5-2.5s2.5,1.1,2.5,2.5
		C1008,184.1,1006.9,185.2,1005.5,185.2z"/>
	<path class="st2" d="M985.4,195.2c-1.4,0-2.5-1.1-2.5-2.5c0-1.4,1.1-2.5,2.5-2.5c1.4,0,2.5,1.1,2.5,2.5
		C987.9,194.1,986.8,195.2,985.4,195.2z"/>
	<path class="st2" d="M995.5,195.2c-1.4,0-2.5-1.1-2.5-2.5c0-1.4,1.1-2.5,2.5-2.5s2.5,1.1,2.5,2.5
		C997.9,194.1,996.8,195.2,995.5,195.2z"/>
	<path class="st2" d="M1005.5,195.2c-1.4,0-2.5-1.1-2.5-2.5c0-1.4,1.1-2.5,2.5-2.5s2.5,1.1,2.5,2.5
		C1008,194.1,1006.9,195.2,1005.5,195.2z"/>
	<path class="st2" d="M985.4,205.3c-1.4,0-2.5-1.1-2.5-2.5s1.1-2.5,2.5-2.5c1.4,0,2.5,1.1,2.5,2.5S986.8,205.3,985.4,205.3z"/>
	<path class="st2" d="M995.5,205.3c-1.4,0-2.5-1.1-2.5-2.5s1.1-2.5,2.5-2.5s2.5,1.1,2.5,2.5S996.8,205.3,995.5,205.3z"/>
</g>
<path class="st2" d="M1099.5,897.8c-3.9,0-7-3.1-7-7c0-3.9,3.1-7,7-7s7,3.1,7,7C1106.5,894.7,1103.3,897.8,1099.5,897.8z"/>
<path class="st2" d="M1645.5,347.3c-6.9,0-12.5-5.6-12.5-12.5c0-6.9,5.6-12.5,12.5-12.5s12.5,5.6,12.5,12.5
	C1658,341.7,1652.4,347.3,1645.5,347.3z"/>
<g>
	
		<rect x="168.5" y="214.3" transform="matrix(-1 -1.224647e-16 1.224647e-16 -1 349.4438 441.082)" class="st2" width="12.5" height="12.5"/>
	
		<rect x="156" y="226.8" transform="matrix(-1 -1.224647e-16 1.224647e-16 -1 324.4438 466.082)" class="st2" width="12.5" height="12.5"/>
</g>
<rect x="1740" y="1501" class="st2" width="15" height="15"/>
<g>
	<path class="st2" d="M129.5,636.2c-1.4,0-2.5-1.1-2.5-2.5s1.1-2.5,2.5-2.5c1.4,0,2.5,1.1,2.5,2.5S130.9,636.2,129.5,636.2z"/>
	<path class="st2" d="M119.5,646.2c-1.4,0-2.5-1.1-2.5-2.5s1.1-2.5,2.5-2.5c1.4,0,2.5,1.1,2.5,2.5S120.8,646.2,119.5,646.2z"/>
	<path class="st2" d="M109.4,656.3c-1.4,0-2.5-1.1-2.5-2.5c0-1.4,1.1-2.5,2.5-2.5s2.5,1.1,2.5,2.5
		C111.9,655.2,110.8,656.3,109.4,656.3z"/>
</g>
<path class="st2" d="M1664.3,710.3h-6.4v-13.5h6.4V710.3z M1673.7,691h-6.4v19.3h6.4V691z M1683,685.3h-6.4v25h6.4V685.3z"/>
<polygon class="st2" points="142,1746 121,1746 142,1725 "/>
<g>
	<g>
		<circle class="st3" cx="1099.3" cy="475.9" r="1118.4"/>
	</g>
</g>
<circle class="st4" cx="-90" cy="1174.5" r="479.3"/>
<line class="st4" x1="2183.7" y1="840.1" x2="-395.8" y2="2329.3"/>
<circle class="st3" cx="1590.3" cy="731.9" r="461.3"/>
<circle class="st3" cx="1455.1" cy="414.1" r="284.1"/>
<g>
	<circle class="st5" cx="1426" cy="1163.4" r="6.8"/>
	<path class="st2" d="M1426,1150.4c-7.2,0-13,5.8-13,13s5.8,13,13,13c7.2,0,13-5.8,13-13S1433.2,1150.4,1426,1150.4z M1426,1169.3
		c-3.3,0-5.9-2.6-5.9-5.9c0-3.3,2.6-5.9,5.9-5.9c3.3,0,5.9,2.6,5.9,5.9C1432,1166.7,1429.3,1169.3,1426,1169.3z"/>
</g>
<g>
	<circle class="st5" cx="368" cy="1322.4" r="6.8"/>
	<path class="st2" d="M368,1309.4c-7.2,0-13,5.8-13,13s5.8,13,13,13c7.2,0,13-5.8,13-13S375.2,1309.4,368,1309.4z M368,1328.3
		c-3.3,0-5.9-2.6-5.9-5.9c0-3.3,2.6-5.9,5.9-5.9c3.3,0,5.9,2.6,5.9,5.9C374,1325.7,371.3,1328.3,368,1328.3z"/>
</g>
</svg>
