<svg width="26" height="26" viewBox="0 0 26 26" fill="none" xmlns="http://www.w3.org/2000/svg">
<path d="M7.15 18.2C8.19 18.2 9.1 17.29 9.1 16.25V16.12L12.74 12.48H13H13.26L15.34 14.56V14.69C15.34 15.73 16.25 16.64 17.29 16.64C18.33 16.64 19.24 15.73 19.24 14.69V14.56L23.92 9.75C25.09 9.75 26 8.84 26 7.8C26 6.76 25.09 5.85 24.05 5.85C23.01 5.85 22.1 6.76 22.1 7.8V7.93L17.42 12.61H17.16L14.95 10.4C14.95 9.36 14.04 8.45 13 8.45C11.96 8.45 11.05 9.36 11.05 10.4L7.15 14.3C6.11 14.3 5.2 15.21 5.2 16.25C5.2 17.29 6.11 18.2 7.15 18.2ZM24.7 23.4H2.6V1.3C2.6 0.52 2.08 0 1.3 0C0.52 0 0 0.52 0 1.3V24.7C0 25.48 0.52 26 1.3 26H24.7C25.48 26 26 25.48 26 24.7C26 23.92 25.48 23.4 24.7 23.4Z" fill="#FBCB08"/>
</svg>
