<svg width="13" height="12" viewBox="0 0 13 12" fill="none" xmlns="http://www.w3.org/2000/svg">
<path d="M6.62471 11L12.0662 5.11264C12.1684 5.01039 12.2321 4.87592 12.2464 4.73206C12.2606 4.58821 12.2247 4.44384 12.1446 4.3235L9.93547 1.27857C9.8784 1.19296 9.80108 1.12277 9.71037 1.07421C9.61966 1.02566 9.51837 1.00025 9.41548 1.00024H3.83228C3.72939 1.00025 3.6281 1.02566 3.53739 1.07421C3.44668 1.12277 3.36936 1.19296 3.31229 1.27857L1.10485 4.3235C1.02475 4.44384 0.988782 4.58821 1.00306 4.73206C1.01734 4.87592 1.08098 5.01039 1.18318 5.11264L6.62471 11Z" stroke="#757575" stroke-width="1.5" stroke-linecap="round" stroke-linejoin="round"/>
<path d="M1.00488 4.75H12.2446" stroke="#757575" stroke-width="1.5" stroke-linecap="round" stroke-linejoin="round"/>
<path d="M6.62451 1V10.9998" stroke="#757575" stroke-width="1.5" stroke-linecap="round" stroke-linejoin="round"/>
</svg>
