<?xml version="1.0" encoding="utf-8"?>
<!-- Generator: Adobe Illustrator 20.1.0, SVG Export Plug-In . SVG Version: 6.00 Build 0)  -->
<svg version="1.1" id="Layer_1" xmlns="http://www.w3.org/2000/svg" xmlns:xlink="http://www.w3.org/1999/xlink" x="0px" y="0px"
	 width="238px" height="218px" viewBox="0 0 238 218" style="enable-background:new 0 0 238 218;" xml:space="preserve">
<style type="text/css">
	.st0{fill:url(#SVGID_1_);}
	.st1{fill:url(#SVGID_2_);}
	.st2{fill:url(#SVGID_3_);}
	.st3{fill:url(#SVGID_4_);}
	.st4{fill:url(#SVGID_5_);}
	.st5{fill:url(#SVGID_6_);}
	.st6{fill:url(#SVGID_7_);}
	.st7{fill:url(#SVGID_8_);}
	.st8{fill:url(#SVGID_9_);}
</style>
<g>
	<g>
		<g>
			<linearGradient id="SVGID_1_" gradientUnits="userSpaceOnUse" x1="180.2081" y1="258.0136" x2="180.2081" y2="-54.3067">
				<stop  offset="0" style="stop-color:#FFF100"/>
				<stop  offset="1" style="stop-color:#F05A28"/>
			</linearGradient>
			<path class="st0" d="M179.9,138l32.4,13.4c-10.3,22.7-28.2,40.6-50.9,50.9L148,169.9C162.1,163.3,173.2,152.1,179.9,138
				 M178.4,134.1c-6.3,14.9-18.2,27.5-34.2,34.3l15.7,37.9c26.5-11.1,46.1-31.8,56.4-56.4L178.4,134.1L178.4,134.1z"/>
		</g>
		<g>
			<linearGradient id="SVGID_2_" gradientUnits="userSpaceOnUse" x1="201.6347" y1="258.0136" x2="201.6347" y2="-54.3067">
				<stop  offset="0" style="stop-color:#FFF100"/>
				<stop  offset="1" style="stop-color:#F05A28"/>
			</linearGradient>
			<path class="st1" d="M178.7,133.2l37.9,15.7c10.1-24.7,10.9-53.2,0-79.8l-37.9,15.7C185.3,100.9,184.8,118.2,178.7,133.2z"/>
		</g>
		<g>
			<linearGradient id="SVGID_3_" gradientUnits="userSpaceOnUse" x1="119.0037" y1="258.0136" x2="119.0037" y2="-54.3067">
				<stop  offset="0" style="stop-color:#FFF100"/>
				<stop  offset="1" style="stop-color:#F05A28"/>
			</linearGradient>
			<path class="st2" d="M119,173.5c-8.5,0-16.7-1.7-24.3-4.7l-15.7,37.8c12.6,5.1,26.1,7.9,39.9,7.9c13.3,0,26.8-2.5,39.9-7.9
				l-15.7-37.9C135.4,171.9,127.3,173.5,119,173.5z"/>
		</g>
		<g>
			<linearGradient id="SVGID_4_" gradientUnits="userSpaceOnUse" x1="57.7955" y1="258.0136" x2="57.7955" y2="-54.3067">
				<stop  offset="0" style="stop-color:#FFF100"/>
				<stop  offset="1" style="stop-color:#F05A28"/>
			</linearGradient>
			<path class="st3" d="M76.6,15.7L90,48.1c-14,6.7-25.2,17.9-31.9,31.9L25.7,66.6C36,43.9,53.9,26,76.6,15.7 M78.2,11.7
				C51.7,22.9,32.1,43.6,21.7,68.2l37.9,15.7c6.6-15.5,18.7-27.7,34.2-34.2L78.2,11.7L78.2,11.7z"/>
		</g>
		<g>
			<linearGradient id="SVGID_5_" gradientUnits="userSpaceOnUse" x1="57.7877" y1="258.0136" x2="57.7877" y2="-54.3067">
				<stop  offset="0" style="stop-color:#FFF100"/>
				<stop  offset="1" style="stop-color:#F05A28"/>
			</linearGradient>
			<path class="st4" d="M58.1,138c6.7,14.1,17.9,25.3,31.9,31.9l-13.4,32.3C53.9,192,36,174.1,25.7,151.4L58.1,138 M59.6,134.1
				l-37.9,15.7c11.1,26.5,31.8,46.1,56.4,56.4l15.7-37.8C78.7,162,66.3,149.9,59.6,134.1L59.6,134.1z"/>
		</g>
		<g>
			<linearGradient id="SVGID_6_" gradientUnits="userSpaceOnUse" x1="180.2162" y1="258.0136" x2="180.2162" y2="-54.3067">
				<stop  offset="0" style="stop-color:#FFF100"/>
				<stop  offset="1" style="stop-color:#F05A28"/>
			</linearGradient>
			<path class="st5" d="M161.4,15.7C184.1,26,202,43.9,212.3,66.6L179.9,80C173.2,65.9,162.1,54.7,148,48L161.4,15.7 M159.8,11.7
				l-15.7,37.8c15.1,6.4,27.5,18.5,34.2,34.3l37.9-15.7C205.1,41.7,184.4,22.1,159.8,11.7L159.8,11.7z"/>
		</g>
		<g>
			<linearGradient id="SVGID_7_" gradientUnits="userSpaceOnUse" x1="118.9999" y1="258.0136" x2="118.9999" y2="-54.3067">
				<stop  offset="0" style="stop-color:#FFF100"/>
				<stop  offset="1" style="stop-color:#F05A28"/>
			</linearGradient>
			<path class="st6" d="M119,44.5L119,44.5L119,44.5c8.5,0,16.7,1.7,24.3,4.7l15.7-37.8c-12.6-5.1-26.1-7.9-39.9-7.9
				c-13.3,0-26.8,2.5-39.9,7.9l15.7,37.9C102.6,46.1,110.7,44.5,119,44.5z"/>
		</g>
		<g>
			<linearGradient id="SVGID_8_" gradientUnits="userSpaceOnUse" x1="36.3554" y1="258.0136" x2="36.3554" y2="-54.3067">
				<stop  offset="0" style="stop-color:#FFF100"/>
				<stop  offset="1" style="stop-color:#F05A28"/>
			</linearGradient>
			<path class="st7" d="M59.2,84.8L21.3,69.1c-10.1,24.7-10.9,53.2,0,79.8l37.9-15.7C52.9,117.6,52.9,100.4,59.2,84.8z"/>
		</g>
	</g>
	<g>
		<linearGradient id="SVGID_9_" gradientUnits="userSpaceOnUse" x1="119" y1="258.0136" x2="119" y2="-54.3067">
			<stop  offset="0" style="stop-color:#FFF100"/>
			<stop  offset="1" style="stop-color:#F05A28"/>
		</linearGradient>
		<path class="st8" d="M180,218.1H58c-26.5,0-48-21.6-48-48V48c0-26.5,21.6-48,48-48H180c26.5,0,48,21.6,48,48V170
			C228.1,196.5,206.5,218.1,180,218.1z M58,3.9c-24.3,0-44,19.8-44,44V170c0,24.3,19.8,44,44,44H180c24.3,0,44-19.8,44-44V48
			c0-24.3-19.8-44-44-44H58z"/>
	</g>
</g>
</svg>
