<svg xmlns="http://www.w3.org/2000/svg" width="166" height="199">
  <path fill="#E3E2E2" d="M44.2 181.1L29.6 184l3 14.6 14.6-2.9zM96.6 162l64.5-12.9-3-14.6-64.4 12.9zm-25.8-10l2.9 14.6 14.6-2.9-2.9-14.7zm-.7 39.1l-2.9-14.6-14.6 2.9 2.9 14.6zM28 175.7l14.6-2.9-2.9-14.6-14.7 2.9zm134.8-18.3l-64.5 12.9 3 14.6 64.5-12.9zm-87.3 17.4l2.9 14.7 14.6-3-2.9-14.6zm-24.6-3.6l14.6-3-3-14.6-14.6 3zm-27.4-18.3l6.2-1.3L6.3 34.7.1 36zm8.5-1.7l6.2-1.3L13 24.4l-6.2 1.3zm14.5-2.9l6.1-1.3L23.9 3.7l-6.1 1.2zm8.4-1.7l6.2-1.3L34.8 13.7 28.6 15zm14.3-2.9l6.2-1.2L53.8 34.7l-6.1 1.2zm8.5-1.7l6.2-1.2L61.5 28.9l-6.2 1.2z"/>
</svg>
