<svg width="28" height="28" viewBox="0 0 28 28" fill="none" xmlns="http://www.w3.org/2000/svg">
<path d="M14 16.8C14.84 16.8 15.4 16.24 15.4 15.4C15.4 14.56 14.84 14 14 14C13.16 14 12.6 14.56 12.6 15.4C12.6 16.24 13.16 16.8 14 16.8ZM21 16.8C21.84 16.8 22.4 16.24 22.4 15.4C22.4 14.56 21.84 14 21 14C20.16 14 19.6 14.56 19.6 15.4C19.6 16.24 20.16 16.8 21 16.8ZM14 22.4C14.84 22.4 15.4 21.84 15.4 21C15.4 20.16 14.84 19.6 14 19.6C13.16 19.6 12.6 20.16 12.6 21C12.6 21.84 13.16 22.4 14 22.4ZM21 22.4C21.84 22.4 22.4 21.84 22.4 21C22.4 20.16 21.84 19.6 21 19.6C20.16 19.6 19.6 20.16 19.6 21C19.6 21.84 20.16 22.4 21 22.4ZM7 16.8C7.84 16.8 8.4 16.24 8.4 15.4C8.4 14.56 7.84 14 7 14C6.16 14 5.6 14.56 5.6 15.4C5.6 16.24 6.16 16.8 7 16.8ZM23.8 2.8H22.4V1.4C22.4 0.56 21.84 0 21 0C20.16 0 19.6 0.56 19.6 1.4V2.8H8.4V1.4C8.4 0.56 7.84 0 7 0C6.16 0 5.6 0.56 5.6 1.4V2.8H4.2C1.82 2.8 0 4.62 0 7V23.8C0 26.18 1.82 28 4.2 28H23.8C26.18 28 28 26.18 28 23.8V7C28 4.62 26.18 2.8 23.8 2.8ZM25.2 23.8C25.2 24.64 24.64 25.2 23.8 25.2H4.2C3.36 25.2 2.8 24.64 2.8 23.8V11.2H25.2V23.8ZM25.2 8.4H2.8V7C2.8 6.16 3.36 5.6 4.2 5.6H23.8C24.64 5.6 25.2 6.16 25.2 7V8.4ZM7 22.4C7.84 22.4 8.4 21.84 8.4 21C8.4 20.16 7.84 19.6 7 19.6C6.16 19.6 5.6 20.16 5.6 21C5.6 21.84 6.16 22.4 7 22.4Z" fill="#86AEF3"/>
</svg>
