<?xml version="1.0" encoding="utf-8"?>
<!-- Generator: Adobe Illustrator 19.0.1, SVG Export Plug-In . SVG Version: 6.00 Build 0)  -->
<!DOCTYPE svg PUBLIC "-//W3C//DTD SVG 1.1//EN" "http://www.w3.org/Graphics/SVG/1.1/DTD/svg11.dtd">
<svg version="1.1" id="Layer_1" xmlns="http://www.w3.org/2000/svg" xmlns:xlink="http://www.w3.org/1999/xlink" x="0px" y="0px"
	 width="25px" height="24.3px" viewBox="-787 388.7 25 24.3" style="enable-background:new -787 388.7 25 24.3;"
	 xml:space="preserve">
<style type="text/css">
	.st0{fill:#E3E2E2;}
</style>
<g>
	<g>
		<path class="st0" d="M-765.9,404.2C-765.9,404.2-765.9,404.2-765.9,404.2c-0.4-0.2-0.4-0.8-0.3-1.1c0.2-0.3,0.5-0.7,0.6-1.4
			c0-0.2,0.1-0.4,0.2-0.5c0.2-0.3,0.3-0.7,0.3-1.1c0-0.3-0.1-0.6-0.2-0.8c0,0-0.1-0.1-0.1-0.1c0.2-0.4,0.4-1.1,0.2-1.8
			c-0.3-1.2-2-1.8-3.3-1.8c-3,0-3.2,1.5-3.3,1.8c-0.2,0.7,0,1.3,0.2,1.8c0,0-0.1,0.1-0.1,0.2c-0.1,0.2-0.2,0.5-0.2,0.8
			c0,0.4,0.1,0.8,0.3,1.1c0.1,0.2,0.2,0.3,0.2,0.5c0.1,0.7,0.4,1.2,0.6,1.4c0,0.1,0,0.2,0,0.3c1.4,0.9,1.5,1.6,1.5,2.1v2.8
			c0,1.1-0.5,2-1.3,2.7h1.9h3.2h1.4c1.1,0,2-0.9,2-2v-2.1C-762,406.5-762,405.8-765.9,404.2z"/>
	</g>
	<g>
		<path class="st0" d="M-770,405.5c0-0.4,0-1.3-5.1-3.4c0,0-0.1,0-0.1-0.1c-0.5-0.3-0.4-1-0.3-1.4c0.3-0.4,0.7-0.9,0.8-1.8
			c0-0.2,0.1-0.5,0.3-0.7c0.3-0.4,0.4-0.9,0.4-1.4c0-0.4-0.1-0.8-0.3-1.1c0-0.1-0.1-0.1-0.1-0.2c0.2-0.6,0.5-1.4,0.2-2.4
			c-0.4-1.6-2.6-2.4-4.4-2.4c-1.7,0-2.9,0.6-3.4,1.5c-0.4,0.2-0.7,0.5-0.8,0.8c-0.4,0.8-0.1,1.7,0.1,2.4c-0.1,0.1-0.1,0.1-0.2,0.2
			c-0.2,0.3-0.3,0.7-0.3,1.1c0,0.5,0.2,1,0.4,1.4c0.1,0.2,0.2,0.4,0.3,0.7c0.1,0.9,0.5,1.5,0.8,1.9c0.1,0.4,0.2,1.1-0.3,1.3
			c0,0-0.1,0-0.1,0.1c-5.1,2.1-5.1,3.1-5.1,3.4v2.8c0,1.5,1.2,2.7,2.7,2.7h5.7h4.1h1.5h0.2c1.5,0,2.7-1.2,2.7-2.7V405.5z"/>
	</g>
</g>
</svg>
