<?xml version="1.0" encoding="utf-8"?>
<!-- Generator: Adobe Illustrator 20.1.0, SVG Export Plug-In . SVG Version: 6.00 Build 0)  -->
<svg version="1.1" id="Layer_1" xmlns:xl="http://www.w3.org/1999/xlink"
	 xmlns="http://www.w3.org/2000/svg" xmlns:xlink="http://www.w3.org/1999/xlink" x="0px" y="0px" width="125px" height="125px"
	 viewBox="0 0 125 125" enable-background="new 0 0 125 125" xml:space="preserve">
<g>
	<linearGradient id="SVGID_1_" gradientUnits="userSpaceOnUse" x1="62.5992" y1="144.3333" x2="62.5992" y2="13.8688">
		<stop  offset="0" style="stop-color:#F8EC1D"/>
		<stop  offset="1" style="stop-color:#F05A2B"/>
	</linearGradient>
	<path fill="url(#SVGID_1_)" d="M97.3,40.5c-1.1,0-2.2,0.1-3.3,0.2c-6.2-13.5-19.8-22.9-35.6-22.9c-21.6,0-39.2,17.6-39.2,39.2
		c0,0.7,0,1.4,0.1,2.1h-0.5C8.5,59,0.2,67.3,0.2,77.5c0,10.3,8.3,18.6,18.6,18.6h13.8l0.1-0.5c0-0.1,0.4-1.5,1.5-3.1H18.8h-0.1
		c-8.2,0-14.9-6.7-14.9-14.9c0-8.2,6.7-14.9,14.9-14.9h0.4l3.9,0.1L22.8,59V57c0-19.7,16-35.6,35.6-35.6c6.9,0,13.7,2,19.4,5.8
		c5.6,3.7,10.1,8.9,12.9,15l1.1,2.4l2.6-0.3c1-0.1,2-0.2,2.9-0.2c13.4,0,24.2,10.9,24.2,24.2c0,13.4-10.9,24.2-24.2,24.2H83.5v3.6
		h13.7c15.4,0,27.8-12.5,27.8-27.9C125.2,53,112.7,40.5,97.3,40.5z"/>
	<linearGradient id="SVGID_2_" gradientUnits="userSpaceOnUse" x1="60.0189" y1="144.3333" x2="60.0189" y2="13.8688">
		<stop  offset="0" style="stop-color:#F8EC1D"/>
		<stop  offset="1" style="stop-color:#F05A2B"/>
	</linearGradient>
	<path fill="url(#SVGID_2_)" d="M81.9,97.4C81.8,97.4,81.8,97.4,81.9,97.4c-0.1-0.2,0-0.4,0-0.7c0-0.4,0-0.7,0-1.1l0-0.3l0-0.1
		l0-0.1c0-0.1,0-0.1,0-0.1l0-0.2l0-0.3c0-0.1,0-0.2,0-0.3c0-0.1,0-0.2,0-0.3l0-0.3l0-0.3c-0.1-0.4-0.1-0.8-0.2-1.1
		c-0.3-1.5-0.9-2.9-1.7-4.1c-0.8-1.3-1.7-2.4-2.8-3.3c-1.1-0.9-2.3-1.7-3.5-2.3c-1.3-0.6-2.6-0.9-3.9-1.1c-0.7-0.1-1.3-0.1-2-0.1
		l-0.2,0l-0.1,0c0,0-0.1,0-0.1,0l-0.1,0l-0.2,0c-0.1,0-0.2,0-0.3,0c-0.3,0-0.7,0.1-1,0.1c-1.3,0.2-2.5,0.7-3.6,1.4
		c-1.1,0.6-2,1.5-2.8,2.4c-0.8,0.9-1.4,1.9-1.8,3c-0.4,1.1-0.6,2.1-0.7,3.2c0,0.3,0,0.5,0,0.8c0,0.1,0,0.1,0,0.2l0,0.2
		c0,0.1,0,0.3,0,0.4c0.1,0.5,0.2,1,0.3,1.5c0.3,1,0.7,1.9,1.3,2.6c0.6,0.8,1.2,1.4,2,1.9c0.7,0.5,1.5,0.8,2.2,1.1
		c0.8,0.2,1.5,0.3,2.2,0.3c0.1,0,0.2,0,0.3,0c0,0,0.1,0,0.1,0c0,0,0.1,0,0.1,0c0.1,0,0.2,0,0.2,0c0,0,0,0,0.1,0l0.1,0
		c0,0,0.1,0,0.1,0c0.1,0,0.2,0,0.3,0c0.1,0,0.2,0,0.2-0.1c0.2,0,0.3-0.1,0.5-0.1c0.3-0.1,0.6-0.2,0.9-0.4c0.3-0.1,0.5-0.3,0.8-0.5
		c0.1,0,0.1-0.1,0.2-0.1c0.3-0.2,0.3-0.6,0.1-0.8c-0.2-0.2-0.5-0.3-0.7-0.1c-0.1,0-0.1,0.1-0.2,0.1c-0.2,0.1-0.4,0.2-0.7,0.3
		c-0.2,0.1-0.5,0.1-0.7,0.2c-0.1,0-0.2,0-0.4,0c-0.1,0-0.1,0-0.2,0c-0.1,0-0.1,0-0.2,0c-0.1,0-0.1,0-0.2,0c-0.1,0-0.2,0-0.2,0
		c0,0,0,0,0,0l0,0l-0.1,0c0,0-0.1,0-0.1,0c-0.1,0-0.1,0-0.2,0c-0.6-0.1-1.1-0.2-1.7-0.5c-0.5-0.2-1.1-0.6-1.5-1
		c-0.5-0.4-0.9-0.9-1.2-1.5c-0.3-0.6-0.5-1.2-0.7-1.9c-0.1-0.3-0.1-0.7-0.1-1c0-0.1,0-0.2,0-0.3c0,0,0,0,0,0l0,0l0-0.1
		c0,0,0-0.1,0-0.1c0-0.2,0-0.4,0.1-0.5c0.3-1.5,1-2.9,2.1-4c0.3-0.3,0.6-0.5,0.9-0.7c0.3-0.2,0.7-0.4,1-0.6c0.4-0.2,0.7-0.3,1.1-0.4
		c0.4-0.1,0.8-0.2,1.2-0.2c0.2,0,0.4,0,0.6,0c0.1,0,0.1,0,0.1,0l0.2,0l0.1,0c0,0,0,0,0,0l0,0l0.2,0c0.4,0,0.9,0.1,1.3,0.2
		c0.9,0.2,1.7,0.5,2.5,0.9c1.6,0.9,2.9,2.2,3.7,3.8c0.4,0.8,0.7,1.7,0.8,2.6c0,0.2,0.1,0.5,0.1,0.7l0,0.2l0,0.2c0,0.1,0,0.1,0,0.2
		c0,0.1,0,0.1,0,0.2l0,0.1l0,0.2c0,0.1,0,0.3,0,0.4c0,0.2,0,0.5-0.1,0.7c0,0.2-0.1,0.5-0.1,0.7c0,0.2-0.1,0.5-0.2,0.7
		c-0.1,0.5-0.3,0.9-0.5,1.4c-0.4,0.9-0.8,1.8-1.4,2.6c-1.2,1.6-2.8,2.9-4.6,3.8c-0.9,0.4-1.9,0.7-2.9,0.9c-0.5,0.1-1,0.1-1.5,0.1
		l-0.1,0l-0.1,0l-0.2,0l-0.2,0l-0.1,0c0.1,0,0,0,0,0l-0.1,0c-0.3,0-0.5,0-0.8,0c-1.1-0.1-2.1-0.3-3.1-0.6c-1-0.3-2-0.7-3-1.2
		c-1.9-1-3.6-2.4-4.9-4c-0.7-0.8-1.2-1.7-1.7-2.6c-0.5-0.9-0.9-1.9-1.1-2.9c-0.3-1-0.4-2-0.5-3.1l0-0.2l0,0l0,0l0-0.1l0-0.2l0,0
		l0-0.1l0-0.1l0-0.2l0,0c0,0,0,0,0,0l0-0.1c0-0.1,0-0.3,0-0.4c0-0.5,0.1-1,0.1-1.6c0.1-0.5,0.2-1.1,0.3-1.6c0.1-0.5,0.2-1,0.4-1.5
		c0.3-1,0.7-2,1.1-2.9c0.9-1.9,2-3.5,3.3-4.8c0.3-0.3,0.7-0.6,1.1-0.9c0.4-0.3,0.7-0.6,1.1-0.8c0.4-0.3,0.8-0.5,1.2-0.7
		c0.2-0.1,0.4-0.2,0.6-0.3c0.1,0,0.2-0.1,0.3-0.1c0.1,0,0.2-0.1,0.3-0.1c0.4-0.2,0.9-0.3,1.3-0.5c0.1,0,0.2-0.1,0.3-0.1
		c0.1,0,0.2-0.1,0.3-0.1c0.2-0.1,0.5-0.1,0.7-0.2c0.1,0,0.2-0.1,0.3-0.1c0.1,0,0.2-0.1,0.3-0.1c0.1,0,0.2,0,0.3-0.1l0.2,0l0.2,0
		c0.1,0,0.2,0,0.3-0.1c0.1,0,0.3,0,0.4-0.1c0.1,0,0.3,0,0.4,0c0.1,0,0.2,0,0.2,0l0.2,0l0.1,0l0.1,0c0.1,0,0.3,0,0.4,0l0.2,0
		c0,0,0.1,0,0,0l0,0l0.1,0c0.1,0,0.2,0,0.3,0c0.4,0,0.9,0,1.3,0c0.9,0,1.8,0.1,2.6,0.3c1.7,0.3,3.3,0.9,4.7,1.6
		c1.4,0.7,2.7,1.6,3.8,2.5c0.1,0.1,0.1,0.1,0.2,0.2c0.1,0.1,0.1,0.1,0.2,0.2c0.1,0.1,0.3,0.2,0.4,0.4c0.1,0.1,0.3,0.2,0.4,0.4
		c0.1,0.1,0.2,0.2,0.4,0.4c0.5,0.5,0.9,1,1.3,1.5c0.8,1,1.4,2.1,1.9,3c0,0.1,0.1,0.1,0.1,0.2c0,0.1,0.1,0.1,0.1,0.2
		c0.1,0.1,0.1,0.2,0.2,0.4c0.1,0.1,0.1,0.2,0.2,0.4c0.1,0.1,0.1,0.2,0.2,0.3c0.2,0.5,0.4,0.9,0.5,1.3c0.2,0.7,0.4,1.3,0.5,1.8
		c0.1,0.2,0.2,0.3,0.5,0.3c0.2,0,0.4-0.2,0.4-0.4c0-0.6,0-1.2-0.1-2c-0.1-0.9-0.2-2-0.6-3.2c-0.3-1.2-0.8-2.5-1.4-3.8
		c-0.7-1.3-1.5-2.7-2.7-4.1c-0.4-0.5-0.9-1-1.4-1.6c0.8-3.1-0.9-5.8-0.9-5.8c-3-0.2-4.9,0.9-5.6,1.4c-0.1-0.1-0.2-0.1-0.4-0.1
		c-0.5-0.2-1-0.4-1.6-0.6c-0.5-0.2-1.1-0.3-1.6-0.5c-0.6-0.1-1.1-0.2-1.7-0.3c-0.1,0-0.2,0-0.3,0c-1.3-4.1-5-5.9-5-5.9
		c-4.1,2.6-4.9,6.3-4.9,6.3s0,0.1,0,0.2c-0.2,0.1-0.5,0.1-0.7,0.2c-0.3,0.1-0.6,0.2-0.9,0.3c-0.3,0.1-0.6,0.2-0.9,0.4
		c-0.6,0.3-1.2,0.6-1.9,0.9c-0.6,0.3-1.2,0.7-1.7,1.1c-0.1,0-0.1-0.1-0.1-0.1C45.1,69.2,40,71.9,40,71.9c-0.5,6.1,2.3,10,2.8,10.7
		c-0.1,0.4-0.3,0.8-0.4,1.1c-0.4,1.4-0.7,2.8-0.9,4.3c0,0.2-0.1,0.4-0.1,0.6c-5.3,2.6-6.9,8-6.9,8c4.4,5.1,9.6,5.4,9.6,5.4
		c0,0,0,0,0,0c0.7,1.2,1.4,2.3,2.3,3.3c0.4,0.4,0.7,0.9,1.1,1.3c-1.6,4.6,0.2,8.5,0.2,8.5c4.9,0.2,8.2-2.2,8.9-2.7
		c0.5,0.2,1,0.3,1.5,0.4c1.5,0.4,3.1,0.6,4.6,0.7c0.4,0,0.8,0,1.2,0l0.2,0l0.1,0l0.2,0l0.3,0c0,0,0,0,0,0c2.3,3.3,6.4,3.8,6.4,3.8
		c3.3-3.5,3.1-6.9,3.1-6.9c0,0-0.1-0.1-0.1-0.1c0.6-0.4,1.3-0.9,1.8-1.4c1.2-1.1,2.2-2.2,3-3.5c0.1-0.1,0.2-0.2,0.2-0.4
		c3.3,0.2,5.6-2,5.6-2C84.2,99.1,81.9,97.4,81.9,97.4z"/>
</g>
</svg>
