<?xml version="1.0" encoding="utf-8"?>
<!-- Generator: Adobe Illustrator 20.1.0, SVG Export Plug-In . SVG Version: 6.00 Build 0)  -->
<svg version="1.1" id="Layer_1" xmlns="http://www.w3.org/2000/svg" xmlns:xlink="http://www.w3.org/1999/xlink" x="0px" y="0px"
	 width="238px" height="218px" viewBox="0 0 238 218" style="enable-background:new 0 0 238 218;" xml:space="preserve">
<style type="text/css">
	.st0{fill:url(#SVGID_1_);}
	.st1{fill:url(#SVGID_2_);}
</style>
<g>
	<linearGradient id="SVGID_1_" gradientUnits="userSpaceOnUse" x1="118.7988" y1="244.9312" x2="118.7988" y2="-27.1993">
		<stop  offset="0" style="stop-color:#FFF100"/>
		<stop  offset="1" style="stop-color:#F05A28"/>
	</linearGradient>
	<path class="st0" d="M237.2,88.1c-0.9-2.6-3-4.5-5.6-5c-0.6-0.1-1.1-0.7-1.1-1.3v-4.4c0-3.3-2.7-6-6-6c-3.3,0-6,2.7-6,6v4.4
		c0,4,1.8,7.7,4.7,10.2l-79.8,95.7l-8.4,9.9c-1.8,2.1-4.7,3-7.4,2.2L21.8,167.2c-5.7-2-9.5-7.3-9.5-13.4v-6.1l0,0v-10.9
		c0.3-2.4,2.8-4,5.2-3.3l4.2,1.3L121.8,165c3.7,1.1,7.8-0.1,10.3-3.1l95.4-114.7c4.6-5.6,1.8-14.1-5.3-15.7L109.9,5.1
		c-3.4-0.8-7,0.3-9.4,2.9L2.6,114.3c-2.3,2.5-3,5.7-2.3,8.7v41.7c0,5.6,3.8,10.1,9.8,11.5l118.3,36.3c1.1,0.5,2.3,0.7,3.6,0.7
		c3.5,0,7.1-1.7,9.7-4.7l94.2-112.8C237.5,93.5,238.1,90.7,237.2,88.1z M107.8,12.2l112.7,26.5l-62.1,74.7L44.1,81.3L107.8,12.2z
		 M34.5,91.7c0.8-2.9,3.8-4.6,6.7-3.8l107.7,30.4c2.9,0.8,4.6,3.8,3.8,6.7c-0.7,2.4-2.9,4-5.3,4c-0.5,0-1-0.1-1.5-0.2L38.2,98.4
		C35.3,97.6,33.7,94.6,34.5,91.7z M22.1,104.1c0.8-2.9,3.8-4.6,6.7-3.8l107.7,30.4c2.9,0.8,4.6,3.8,3.8,6.7c-0.7,2.4-2.9,4-5.3,4
		c-0.5,0-1-0.1-1.5-0.2L25.9,110.8C23,110,21.3,107,22.1,104.1z"/>
</g>
<g>
	<linearGradient id="SVGID_2_" gradientUnits="userSpaceOnUse" x1="130.5291" y1="244.9312" x2="130.5291" y2="-27.1993">
		<stop  offset="0" style="stop-color:#FFF100"/>
		<stop  offset="1" style="stop-color:#F05A28"/>
	</linearGradient>
	<path class="st1" d="M145.5,34.1c0.2,0.1,3.2,2.2,2.7,5.9c0.1,0,0.2,0.1,0.3,0.1c0.6,0.2,1.1,0.4,1.7,0.7c0.5,0.2,1,0.5,1.5,0.7
		c0.5,0.3,0.9,0.5,1.4,0.8c0.1,0.1,0.2,0.1,0.3,0.2c0.9-0.2,3.1-0.7,5.8-0.1c0.2,0,0.5,0.1,0.7,0.2c0,0.1,0.6,2.6-1.6,4.9
		c0.3,0.5,0.6,1.1,0.8,1.6c0.6,1.4,0.9,2.7,1,3.9c0.1,1.2,0,2.4-0.2,3.4c-0.2,1-0.5,1.9-0.8,2.7c-0.3,0.6-0.5,1.2-0.8,1.6
		c-0.1,0.2-0.4,0.3-0.6,0.3c-0.3-0.1-0.4-0.2-0.3-0.4c0.1-0.5,0.2-1,0.2-1.6c0-0.4,0.1-0.8,0.1-1.2c0-0.1,0-0.2,0-0.3
		c0-0.1,0-0.2,0-0.3c0-0.1,0-0.2,0-0.3l0-0.2l0-0.2c-0.1-0.9-0.3-1.9-0.7-2.9c-0.2-0.5-0.4-1-0.7-1.5c-0.1-0.1-0.1-0.3-0.2-0.4
		c-0.1-0.1-0.2-0.3-0.2-0.4c-0.1-0.1-0.2-0.3-0.3-0.4l-0.1-0.2l-0.1-0.2c-0.8-1-1.7-2-2.9-2.9c-1.2-0.9-2.6-1.7-4.3-2.3
		c-0.8-0.3-1.7-0.6-2.6-0.8c-0.2-0.1-0.5-0.1-0.7-0.2c-0.2,0-0.5-0.1-0.7-0.1c-0.1,0-0.2,0-0.4-0.1l-0.4-0.1c-0.1,0-0.3,0-0.4-0.1
		l-0.7-0.1c-0.1,0-0.3,0-0.4,0c-0.1,0-0.3,0-0.4,0c-0.1,0-0.3,0-0.4,0l-0.2,0l-0.2,0c-0.1,0-0.3,0-0.4,0c-0.1,0-0.3,0-0.4,0
		c-0.1,0-0.3,0-0.4,0c-0.3,0-0.5,0-0.8,0c-0.1,0-0.3,0-0.4,0c-0.1,0-0.3,0-0.4,0c-0.5,0-1.1,0-1.6,0.1c-0.1,0-0.3,0-0.4,0
		c-0.1,0-0.3,0-0.4,0c-0.3,0-0.5,0.1-0.8,0.1c-0.5,0.1-1.1,0.2-1.6,0.3c-0.5,0.1-1.1,0.3-1.6,0.4c-0.5,0.2-1,0.3-1.5,0.5
		c-2,0.8-3.9,1.9-5.7,3.2c-0.9,0.7-1.7,1.4-2.5,2.2c-0.4,0.4-0.7,0.8-1.1,1.2c-0.3,0.4-0.7,0.8-1,1.2c-0.3,0.4-0.6,0.8-0.8,1.2
		c-0.1,0.1-0.1,0.2-0.2,0.3l-0.2,0.3l-0.2,0.3l-0.1,0.3c-0.4,0.9-0.7,1.7-0.8,2.6c-0.1,0.9-0.2,1.8-0.1,2.6c0.1,0.9,0.3,1.7,0.6,2.5
		c0.6,1.6,1.8,3.1,3.3,4.4c0.8,0.6,1.6,1.2,2.6,1.6c0.9,0.5,2,0.9,3.1,1.2c0.3,0.1,0.5,0.1,0.8,0.2l0.4,0.1c0.9,0.2,1.4,0.2,2,0.3
		c1.1,0.1,2.3,0.1,3.4-0.1c2.3-0.3,4.6-1,6.5-2c1-0.5,1.9-1.1,2.7-1.8c0.4-0.3,0.8-0.7,1.1-1.1c0.2-0.2,0.3-0.4,0.5-0.6
		c0.2-0.2,0.3-0.4,0.5-0.6c0.1-0.2,0.3-0.4,0.4-0.6c0-0.1,0.1-0.2,0.2-0.3l0.1-0.1l0.2-0.4l0.1-0.1l0.1-0.1c0.1-0.2,0.2-0.4,0.2-0.6
		c0.3-0.8,0.3-1.5,0.3-2.3c-0.1-1.5-0.9-2.9-2.2-3.9c-0.6-0.5-1.4-1-2.2-1.3c-0.4-0.2-0.8-0.3-1.3-0.5c-0.9-0.2-1.1-0.2-1.3-0.3
		c-0.4-0.1-0.9-0.1-1.3-0.1c-0.4,0-0.9,0-1.4,0.1c-0.5,0.1-0.9,0.1-1.3,0.2c-0.4,0.1-0.9,0.2-1.3,0.4c-1.7,0.6-3.1,1.6-4,2.8
		c-0.1,0.1-0.2,0.3-0.3,0.4c-0.2,0.3-0.2,0.4-0.3,0.4c-0.2,0.3-0.3,0.6-0.4,0.8c-0.2,0.6-0.2,1.1-0.2,1.7c0.1,0.5,0.3,1.1,0.6,1.5
		c0.3,0.5,0.7,0.8,1.2,1.2c0.5,0.3,1,0.6,1.5,0.8l0.2,0.1l0.4,0.1l0.2,0l0.2,0l0.2,0c0.1,0,0.3,0,0.4,0.1c0.3,0,0.6,0,0.8,0
		c0.3,0,0.6,0,0.8-0.1l0.2,0c0.1,0,0.2,0,0.3,0c0.2,0,0.3,0.1,0.4,0.3c0.1,0.2-0.1,0.5-0.4,0.6l-0.3,0.1c-0.3,0.1-0.7,0.1-1,0.2
		c-0.3,0.1-0.7,0.1-1.1,0.1c-0.2,0-0.4,0-0.6,0l-0.3,0c-0.1,0-0.2,0-0.3,0l-0.5-0.1c-0.4-0.1-0.5-0.1-0.6-0.1
		c-0.8-0.2-1.5-0.4-2.2-0.8c-0.7-0.4-1.3-0.8-1.9-1.4c-0.5-0.6-1-1.2-1.2-2c-0.3-0.8-0.3-1.6-0.2-2.5c0.1-0.4,0.2-0.9,0.4-1.3
		c0-0.1,0.1-0.2,0.1-0.3l0.1-0.2l0.1-0.2c0.1-0.2,0.2-0.4,0.4-0.6c0.5-0.9,1.3-1.7,2.2-2.5c0.9-0.8,2-1.5,3.2-2c1.2-0.6,2.6-1,4-1.3
		c1.4-0.3,2.9-0.4,4.4-0.3c0.4,0,0.7,0.1,1.1,0.1c0.1,0,0.2,0,0.3,0l0.3,0l0.5,0.1c0.1,0,0.1,0,0.2,0c0.6,0.1,1.2,0.3,1.8,0.5
		c1.3,0.4,2.5,1,3.6,1.8c1.1,0.7,2,1.6,2.7,2.6c0.7,1,1.2,2.1,1.4,3.3c0.2,1.2,0.2,2.5-0.1,3.8c-0.1,0.3-0.2,0.6-0.3,1l-0.1,0.2
		l-0.1,0.2c0,0.1-0.1,0.2-0.1,0.2c0,0.1-0.1,0.2-0.1,0.2l-0.1,0.3l-0.1,0.2l-0.2,0.5c-0.2,0.3-0.3,0.6-0.5,0.9
		c-0.1,0.2-0.2,0.4-0.4,0.5c0.1,0,1.9,1.9,0.8,5.1c-0.2,0.1-3.2,1.2-6.4,0.5c-0.1,0-0.3-0.1-0.4-0.1c-0.1,0.1-0.3,0.2-0.4,0.2
		c-1.5,0.9-3.1,1.6-4.8,2.2c-0.8,0.3-1.7,0.6-2.6,0.8c0.1,0.1-1.2,2.9-6.3,5c-0.2-0.1-4.1-1.3-5.1-4.5l-0.3-0.1l-0.3,0l-0.3-0.1
		c-0.4-0.1-0.8-0.2-1.2-0.3c-1.6-0.4-3.1-0.9-4.6-1.6c-0.5-0.2-0.9-0.5-1.4-0.7c-0.9,0.3-5.1,1.4-10,0.4c-0.2,0-0.4-0.1-0.6-0.1
		c0-0.2-0.2-3.6,3.6-7c-0.2-0.4-0.4-0.8-0.6-1.3c-0.4-1-0.7-2.1-0.9-3.2c0,0-5.3-1.4-7.7-6.6c0.2-0.2,4.1-4,10.8-5
		c0.1-0.2,0.2-0.3,0.4-0.5c0.9-1.2,1.8-2.2,2.9-3.3c0.3-0.3,0.6-0.6,0.9-0.8c-0.3-0.7-1.5-4.5,1.8-9.4c0.2,0,3.3-0.5,7,0.3
		c1.5,0.3,3.2,0.9,4.6,1.8l0.1,0.1c0.8-0.2,1.5-0.4,2.3-0.5c0.8-0.1,1.6-0.2,2.4-0.3c0.4,0,0.8-0.1,1.2-0.1c0.4,0,0.8,0,1.2-0.1
		c0.3,0,0.5,0,0.8,0c0.1-0.1,0.1-0.2,0.1-0.2C137.6,38,139.9,35.3,145.5,34.1z"/>
</g>
</svg>
