<svg width="29" height="29" viewBox="0 0 29 29" fill="none" xmlns="http://www.w3.org/2000/svg">
<path d="M27.55 0H10.15C9.76544 0 9.39662 0.152767 9.12469 0.424695C8.85277 0.696623 8.7 1.06544 8.7 1.45V7.25H5.8C5.41544 7.25 5.04662 7.40277 4.7747 7.6747C4.50277 7.94662 4.35 8.31544 4.35 8.7V14.5H1.45C1.06544 14.5 0.696623 14.6528 0.424695 14.9247C0.152767 15.1966 0 15.5654 0 15.95L0 27.55C0 27.9346 0.152767 28.3034 0.424695 28.5753C0.696623 28.8472 1.06544 29 1.45 29H13.05C13.4346 29 13.8034 28.8472 14.0753 28.5753C14.3472 28.3034 14.5 27.9346 14.5 27.55V24.65H20.3C20.6846 24.65 21.0534 24.4972 21.3253 24.2253C21.5972 23.9534 21.75 23.5846 21.75 23.2V20.3H27.55C27.9346 20.3 28.3034 20.1472 28.5753 19.8753C28.8472 19.6034 29 19.2346 29 18.85V1.45C29 1.06544 28.8472 0.696623 28.5753 0.424695C28.3034 0.152767 27.9346 0 27.55 0ZM11.6 26.1H2.9V17.4H11.6V26.1ZM18.85 21.75H14.5V15.95C14.5 15.5654 14.3472 15.1966 14.0753 14.9247C13.8034 14.6528 13.4346 14.5 13.05 14.5H7.25V10.15H18.85V21.75ZM26.1 17.4H21.75V8.7C21.75 8.31544 21.5972 7.94662 21.3253 7.6747C21.0534 7.40277 20.6846 7.25 20.3 7.25H11.6V2.9H26.1V17.4Z" fill="#3865AB"/>
<path d="M11.6 26.1H2.9V17.4H11.6V26.1ZM4.35 14.5H1.45C1.06544 14.5 0.696623 14.6528 0.424695 14.9247C0.152767 15.1966 0 15.5654 0 15.95L0 27.55C0 27.9346 0.152767 28.3034 0.424695 28.5753C0.696623 28.8472 1.06544 29 1.45 29H13.05C13.4346 29 13.8034 28.8472 14.0753 28.5753C14.3472 28.3034 14.5 27.9346 14.5 27.55V15.95C14.5 15.5654 14.3472 15.1966 14.0753 14.9247C13.8034 14.6528 13.4346 14.5 13.05 14.5H4.35Z" fill="#84AFF1"/>
</svg>
