<svg xmlns="http://www.w3.org/2000/svg" id="Layer_1" width="200" height="200" viewBox="-149 -50 200 200">
  <linearGradient id="SVGID_2_" x1="337.3585" x2="337.3585" y1="775.9098" y2="548.2657" gradientTransform="rotate(-11.333 -2850.9135124 2606.60583762)" gradientUnits="userSpaceOnUse">
    <stop offset="0" stop-color="#f9ec1c"/>
    <stop offset="1" stop-color="#f05a2b"/>
  </linearGradient>
  <path fill="url(#SVGID_2_)" d="M-87.7 131.1l-14.6 2.9 3 14.6 14.6-2.9z"/>
  <linearGradient id="SVGID_3_" x1="432.767" x2="432.767" y1="775.9098" y2="548.2657" gradientTransform="rotate(-11.333 -2850.9135124 2606.60583762)" gradientUnits="userSpaceOnUse">
    <stop offset="0" stop-color="#f9ec1c"/>
    <stop offset="1" stop-color="#f05a2b"/>
  </linearGradient>
  <path fill="url(#SVGID_3_)" d="M-35.3 112l64.5-12.9-3-14.6-64.4 12.9z"/>
  <linearGradient id="SVGID_4_" x1="384.0121" x2="384.0121" y1="775.9098" y2="548.2657" gradientTransform="rotate(-11.333 -2850.9135124 2606.60583762)" gradientUnits="userSpaceOnUse">
    <stop offset="0" stop-color="#f9ec1c"/>
    <stop offset="1" stop-color="#f05a2b"/>
  </linearGradient>
  <path fill="url(#SVGID_4_)" d="M-61.1 102l2.9 14.6 14.6-2.9-2.9-14.7z"/>
  <linearGradient id="SVGID_5_" x1="360.6852" x2="360.6852" y1="775.9098" y2="548.2657" gradientTransform="rotate(-11.333 -2850.9135124 2606.60583762)" gradientUnits="userSpaceOnUse">
    <stop offset="0" stop-color="#f9ec1c"/>
    <stop offset="1" stop-color="#f05a2b"/>
  </linearGradient>
  <path fill="url(#SVGID_5_)" d="M-61.9 141.1l-2.9-14.6-14.6 2.9 2.9 14.6z"/>
  <linearGradient id="SVGID_6_" x1="337.3585" x2="337.3585" y1="775.9098" y2="548.2657" gradientTransform="rotate(-11.333 -2850.9135124 2606.60583762)" gradientUnits="userSpaceOnUse">
    <stop offset="0" stop-color="#f9ec1c"/>
    <stop offset="1" stop-color="#f05a2b"/>
  </linearGradient>
  <path fill="url(#SVGID_6_)" d="M-103.9 125.7l14.6-2.9-2.9-14.6-14.7 2.9z"/>
  <linearGradient id="SVGID_7_" x1="432.767" x2="432.767" y1="775.9098" y2="548.2657" gradientTransform="rotate(-11.333 -2850.9135124 2606.60583762)" gradientUnits="userSpaceOnUse">
    <stop offset="0" stop-color="#f9ec1c"/>
    <stop offset="1" stop-color="#f05a2b"/>
  </linearGradient>
  <path fill="url(#SVGID_7_)" d="M30.8 107.4l-64.5 12.9 3 14.6L33.8 122z"/>
  <linearGradient id="SVGID_8_" x1="384.0121" x2="384.0121" y1="775.9098" y2="548.2657" gradientTransform="rotate(-11.333 -2850.9135124 2606.60583762)" gradientUnits="userSpaceOnUse">
    <stop offset="0" stop-color="#f9ec1c"/>
    <stop offset="1" stop-color="#f05a2b"/>
  </linearGradient>
  <path fill="url(#SVGID_8_)" d="M-56.5 124.8l2.9 14.7 14.6-3-2.9-14.6z"/>
  <linearGradient id="SVGID_9_" x1="360.6852" x2="360.6852" y1="775.9098" y2="548.2657" gradientTransform="rotate(-11.333 -2850.9135124 2606.60583762)" gradientUnits="userSpaceOnUse">
    <stop offset="0" stop-color="#f9ec1c"/>
    <stop offset="1" stop-color="#f05a2b"/>
  </linearGradient>
  <path fill="url(#SVGID_9_)" d="M-81 121.2l14.6-3-3-14.6-14.6 3z"/>
  <linearGradient id="SVGID_10_" x1="333.0553" x2="333.0553" y1="771.4882" y2="555.5873" gradientTransform="rotate(-11.333 -2850.9135124 2606.60583762)" gradientUnits="userSpaceOnUse">
    <stop offset="0" stop-color="#f9ec1c"/>
    <stop offset="1" stop-color="#f05a2b"/>
  </linearGradient>
  <path fill="url(#SVGID_10_)" d="M-108.5 102.9l6.2-1.3-23.4-116.9-6.2 1.3z"/>
  <linearGradient id="SVGID_11_" x1="341.7068" x2="341.7068" y1="777.4757" y2="545.6728" gradientTransform="rotate(-11.333 -2850.9135124 2606.60583762)" gradientUnits="userSpaceOnUse">
    <stop offset="0" stop-color="#f9ec1c"/>
    <stop offset="1" stop-color="#f05a2b"/>
  </linearGradient>
  <path fill="url(#SVGID_11_)" d="M-100 101.2l6.2-1.3L-119-25.6l-6.2 1.3z"/>
  <linearGradient id="SVGID_12_" x1="356.478" x2="356.478" y1="789.8828" y2="525.1284" gradientTransform="rotate(-11.333 -2850.9135124 2606.60583762)" gradientUnits="userSpaceOnUse">
    <stop offset="0" stop-color="#f9ec1c"/>
    <stop offset="1" stop-color="#f05a2b"/>
  </linearGradient>
  <path fill="url(#SVGID_12_)" d="M-85.5 98.3l6.1-1.3-28.7-143.3-6.1 1.2z"/>
  <linearGradient id="SVGID_13_" x1="365.1294" x2="365.1294" y1="781.7094" y2="538.6624" gradientTransform="rotate(-11.333 -2850.9135124 2606.60583762)" gradientUnits="userSpaceOnUse">
    <stop offset="0" stop-color="#f9ec1c"/>
    <stop offset="1" stop-color="#f05a2b"/>
  </linearGradient>
  <path fill="url(#SVGID_13_)" d="M-77.1 96.6l6.2-1.3-26.3-131.6-6.2 1.3z"/>
  <linearGradient id="SVGID_14_" x1="379.7133" x2="379.7133" y1="765.1417" y2="566.0963" gradientTransform="rotate(-11.333 -2850.9135124 2606.60583762)" gradientUnits="userSpaceOnUse">
    <stop offset="0" stop-color="#f9ec1c"/>
    <stop offset="1" stop-color="#f05a2b"/>
  </linearGradient>
  <path fill="url(#SVGID_14_)" d="M-62.8 93.7l6.2-1.2-21.6-107.8-6.1 1.2z"/>
  <linearGradient id="SVGID_15_" x1="388.3647" x2="388.3647" y1="768.0134" y2="561.3411" gradientTransform="rotate(-11.333 -2850.9135124 2606.60583762)" gradientUnits="userSpaceOnUse">
    <stop offset="0" stop-color="#f9ec1c"/>
    <stop offset="1" stop-color="#f05a2b"/>
  </linearGradient>
  <path fill="url(#SVGID_15_)" d="M-54.3 92l6.2-1.2-22.4-111.9-6.2 1.2z"/>
</svg>
