<svg width="30" height="29" viewBox="0 0 30 29" fill="none" xmlns="http://www.w3.org/2000/svg">
<path d="M28.5108 19.6889L21.9723 13.1453C22.1086 12.4778 22.1762 11.798 22.1742 11.1166C22.1735 9.2475 21.7026 7.40869 20.8051 5.77013C19.9076 4.13157 18.6123 2.74611 17.0391 1.74179C15.4659 0.737458 13.6654 0.146659 11.8041 0.0239814C9.94269 -0.0986967 8.0805 0.250703 6.38954 1.0399C6.17558 1.13709 5.98841 1.28497 5.84418 1.47078C5.69996 1.65659 5.60299 1.87477 5.56165 2.10649C5.5203 2.33821 5.53582 2.57653 5.60687 2.80091C5.67791 3.02528 5.80234 3.22898 5.96945 3.39444L12.2641 9.68137L9.65949 12.2912L3.38248 5.98389C3.21536 5.82203 3.01226 5.70226 2.7899 5.63443C2.56754 5.56661 2.33228 5.55267 2.1035 5.59377C1.87471 5.63488 1.65894 5.72984 1.47395 5.87085C1.28896 6.01186 1.14004 6.19487 1.03945 6.40483C0.248609 8.10435 -0.100396 9.97669 0.0248997 11.8477C0.150195 13.7186 0.745719 15.5275 1.75607 17.1059C2.76643 18.6843 4.15878 19.981 5.80362 20.8754C7.44845 21.7697 9.29232 22.2327 11.1637 22.2213C11.8465 22.2239 12.5277 22.1557 13.1964 22.0176L19.7214 28.5707C19.8552 28.706 20.0142 28.8135 20.1895 28.8871C20.3648 28.9608 20.5528 28.9991 20.7429 28.9998C20.9329 29.0006 21.1212 28.9638 21.2971 28.8915C21.4729 28.8193 21.6328 28.713 21.7677 28.5788L21.7758 28.5707C22.0481 28.2998 22.202 27.9317 22.2035 27.5472C22.205 27.1627 22.0541 26.7933 21.7839 26.5203L21.7758 26.5121L14.6871 19.4091C14.5098 19.2327 14.2899 19.1052 14.0489 19.039C13.8079 18.9729 13.5539 18.9704 13.3116 19.0317C12.6131 19.2192 11.8936 19.3168 11.1705 19.3222C8.99495 19.341 6.90102 18.4934 5.3491 16.9656C3.79718 15.4378 2.91431 13.3549 2.89463 11.175V11.1166C2.89275 10.6308 2.93173 10.1457 3.01117 9.66644L8.68244 15.3695C8.95276 15.6424 9.32016 15.7965 9.70388 15.7981C10.0876 15.7996 10.4562 15.6484 10.7287 15.3776L10.7368 15.3695L15.3443 10.7161C15.605 10.4457 15.7506 10.0845 15.7506 9.70853C15.7506 9.33261 15.605 8.97137 15.3443 8.70099L9.70286 3.01288C10.1808 2.93401 10.6644 2.89495 11.1488 2.8961C13.322 2.90006 15.4049 3.76789 16.9403 5.30912C18.4756 6.85034 19.3379 8.939 19.3379 11.1166C19.3334 11.8412 19.2364 12.5622 19.0493 13.2621C18.9879 13.5045 18.9902 13.7588 19.056 14C19.1218 14.2413 19.2488 14.4614 19.4246 14.6389L26.5147 21.7433C26.647 21.8886 26.8073 22.0056 26.9859 22.0871C27.1645 22.1687 27.3577 22.2131 27.554 22.2177C27.7502 22.2223 27.9453 22.187 28.1276 22.114C28.3098 22.041 28.4754 21.9317 28.6143 21.7928C28.7532 21.6538 28.8626 21.4881 28.9359 21.3057C29.0091 21.1232 29.0447 20.9278 29.0405 20.7311C29.0363 20.5345 28.9923 20.3408 28.9113 20.1616C28.8303 19.9825 28.7139 19.8217 28.5691 19.6889H28.5108Z" fill="#3865AB"/>
</svg>
