<?xml version="1.0" encoding="utf-8"?>
<!-- Generator: Adobe Illustrator 20.1.0, SVG Export Plug-In . SVG Version: 6.00 Build 0)  -->
<svg version="1.1" id="Layer_1" xmlns="http://www.w3.org/2000/svg" xmlns:xlink="http://www.w3.org/1999/xlink" x="0px" y="0px"
	 width="238px" height="238px" viewBox="0 0 238 238" style="enable-background:new 0 0 238 238;" xml:space="preserve">
<style type="text/css">
	.st0{fill:none;}
	.st1{fill:url(#SVGID_1_);}
	.st2{fill:url(#SVGID_2_);}
	.st3{fill:url(#SVGID_3_);}
	.st4{fill:url(#SVGID_4_);}
</style>
<g>
	<path class="st0" d="M118.7,156.9c1,0,2-0.4,2.7-1.1l43.7-43.7c2.4-2.4,0.7-6.6-2.7-6.6h-19.8c-2.1,0-3.9-1.7-3.9-3.9V34.4
		c0-2.1-1.7-3.9-3.9-3.9h-32.2c-2.1,0-3.9,1.7-3.9,3.9v67.3c0,2.1-1.7,3.9-3.9,3.9H75c-3.4,0-5.2,4.2-2.7,6.6l43.7,43.7
		C116.7,156.5,117.7,156.9,118.7,156.9z"/>
	<path class="st0" d="M195.7,183.8c3.5,0,6.4,2.8,6.4,6.4s-2.8,6.4-6.4,6.4c-3.5,0-6.4-2.8-6.4-6.4S192.2,183.8,195.7,183.8z
		 M172.6,183.8c3.5,0,6.4,2.8,6.4,6.4s-2.8,6.4-6.4,6.4s-6.4-2.8-6.4-6.4S169,183.8,172.6,183.8z"/>
	<polygon class="st0" points="158.3,134.1 162.1,130.3 158.3,134.1 	"/>
	<linearGradient id="SVGID_1_" gradientUnits="userSpaceOnUse" x1="118.6602" y1="244.7028" x2="118.6602" y2="0.8801">
		<stop  offset="0" style="stop-color:#FFF100"/>
		<stop  offset="1" style="stop-color:#F05A28"/>
	</linearGradient>
	<path class="st1" d="M89.8,144.9l18.5,18.5c2.8,2.8,6.4,4.3,10.4,4.3s7.6-1.5,10.4-4.3l18.5-18.5h0l10.8-10.8l0,0l3.8-3.8
		l10.6-10.6c4.2-4.2,5.4-10.5,3.2-16c-2.3-5.5-7.6-9-13.5-9h-12.9V34.4c0-8.1-6.6-14.6-14.6-14.6h-32.2c-8.1,0-14.6,6.6-14.6,14.6
		v60.4H75c-5.9,0-11.3,3.5-13.5,9c-2.3,5.5-1,11.8,3.2,16L79,134.1h0L89.8,144.9L89.8,144.9z M72.3,112.1c-2.4-2.4-0.7-6.6,2.7-6.6
		h19.8c2.1,0,3.9-1.7,3.9-3.9V34.4c0-2.1,1.7-3.9,3.9-3.9h32.2c2.1,0,3.9,1.7,3.9,3.9v67.3c0,2.1,1.7,3.9,3.9,3.9h19.8
		c3.4,0,5.2,4.2,2.7,6.6l-43.7,43.7c-0.8,0.8-1.7,1.1-2.7,1.1s-2-0.4-2.7-1.1L72.3,112.1z"/>
	<linearGradient id="SVGID_2_" gradientUnits="userSpaceOnUse" x1="119.9436" y1="244.7028" x2="119.9436" y2="0.8801">
		<stop  offset="0" style="stop-color:#FFF100"/>
		<stop  offset="1" style="stop-color:#F05A28"/>
	</linearGradient>
	<path class="st2" d="M209.7,134.1h-36l-10.8,10.8h46.8c2.1,0,3.9,1.7,3.9,3.9v55.8c0,2.1-1.7,3.9-3.9,3.9H30.2
		c-2.1,0-3.9-1.7-3.9-3.9v-55.8c0-2.1,1.7-3.9,3.9-3.9h44.2l-10.8-10.8H30.2c-8.1,0-14.6,6.6-14.6,14.6v55.8
		c0,8.1,6.6,14.6,14.6,14.6h179.5c8.1,0,14.6-6.6,14.6-14.6v-55.8C224.3,140.7,217.8,134.1,209.7,134.1z"/>
	<linearGradient id="SVGID_3_" gradientUnits="userSpaceOnUse" x1="172.5582" y1="244.7028" x2="172.5582" y2="0.8801">
		<stop  offset="0" style="stop-color:#FFF100"/>
		<stop  offset="1" style="stop-color:#F05A28"/>
	</linearGradient>
	<circle class="st3" cx="172.6" cy="190.1" r="6.4"/>
	<linearGradient id="SVGID_4_" gradientUnits="userSpaceOnUse" x1="195.6591" y1="244.7028" x2="195.6591" y2="0.8801">
		<stop  offset="0" style="stop-color:#FFF100"/>
		<stop  offset="1" style="stop-color:#F05A28"/>
	</linearGradient>
	<circle class="st4" cx="195.7" cy="190.1" r="6.4"/>
</g>
</svg>
