<?xml version="1.0" encoding="utf-8"?>
<!-- Generator: Adobe Illustrator 19.0.1, SVG Export Plug-In . SVG Version: 6.00 Build 0)  -->
<!DOCTYPE svg PUBLIC "-//W3C//DTD SVG 1.1//EN" "http://www.w3.org/Graphics/SVG/1.1/DTD/svg11.dtd">
<svg version="1.1" id="Layer_1" xmlns="http://www.w3.org/2000/svg" xmlns:xlink="http://www.w3.org/1999/xlink" x="0px" y="0px"
	 width="10px" height="10px" viewBox="0 0 10 10" style="enable-background:new 0 0 10 10;" xml:space="preserve">
<style type="text/css">
	.st0{fill:#C5C4C4;}
</style>
<g>
	<path class="st0" d="M5,0C2.2,0,0,2.2,0,5s2.2,5,5,5s5-2.2,5-5S7.8,0,5,0z M5.5,8.1H4.1V6.7h1.4V8.1z M6.1,5.3
		C5.6,5.7,5.5,5.9,5.5,6.2H4.1c0-0.6,0.3-0.9,0.9-1.4c0.4-0.4,0.6-0.7,0.6-0.9c0-0.3-0.1-0.5-0.5-0.5c-0.6,0-0.6,0.5-0.6,0.8H2.9
		c0-0.1,0-0.1,0-0.1c0-1.2,0.9-2.1,2.2-2.1c1.3,0,2,0.9,2,1.7C7.1,4.4,6.6,4.8,6.1,5.3z"/>
</g>
</svg>
