<svg width="28" height="30" viewBox="0 0 28 30" fill="none" xmlns="http://www.w3.org/2000/svg">
<path d="M25.2305 11.2687V11.0343C25.2394 8.6833 24.4835 6.39149 23.0738 4.49569C21.6641 2.5999 19.675 1.20013 17.3989 0.50213H17.3109C16.1362 0.147774 14.9119 -0.0209955 13.6837 0.00208367C10.757 0.160495 8.00197 1.41461 5.98096 3.50841C3.95995 5.60222 2.82534 8.37785 2.80875 11.2687C1.98761 11.5537 1.27641 12.0831 0.773303 12.7837C0.270199 13.4844 0 14.3218 0 15.1803C0 16.0389 0.270199 16.8763 0.773303 17.5769C1.27641 18.2776 1.98761 18.807 2.80875 19.0919C3.09722 21.8216 4.40467 24.3479 6.47684 26.1795C8.549 28.0111 11.2378 29.0172 14.0203 29.0021H14.3418C17.0318 28.8738 19.5887 27.8097 21.5588 25.9988C23.529 24.1878 24.785 21.7471 25.104 19.1096C25.9348 18.8407 26.6598 18.323 27.1783 17.6286C27.6968 16.9343 27.9829 16.0978 27.9968 15.2356C28.0107 14.3733 27.7517 13.5283 27.2559 12.818C26.7601 12.1078 26.0521 11.5676 25.2305 11.2728V11.2687ZM14.2717 26.2376C12.2432 26.2952 10.2619 25.6273 8.69355 24.3571C7.12515 23.0869 6.07543 21.3001 5.73804 19.3264H22.2256C21.8835 21.1939 20.9118 22.8927 19.4681 24.1472C18.0243 25.4017 16.1932 26.1383 14.2717 26.2376ZM23.829 16.5619H4.21019C4.02255 16.5677 3.83564 16.5362 3.66056 16.4694C3.48547 16.4026 3.32579 16.3018 3.19098 16.1729C3.05617 16.044 2.94898 15.8898 2.87579 15.7193C2.80259 15.5488 2.76487 15.3655 2.76487 15.1803C2.76487 14.9952 2.80259 14.8119 2.87579 14.6414C2.94898 14.4709 3.05617 14.3166 3.19098 14.1878C3.32579 14.0589 3.48547 13.9581 3.66056 13.8912C3.83564 13.8244 4.02255 13.793 4.21019 13.7988H7.01307C7.38476 13.7988 7.74122 13.6531 8.00404 13.3939C8.26686 13.1347 8.41452 12.7831 8.41452 12.4165C8.41452 12.0499 8.26686 11.6984 8.00404 11.4391C7.74122 11.1799 7.38476 11.0343 7.01307 11.0343H5.61163C5.67436 9.60036 6.08989 8.20302 6.82236 6.96284C7.55483 5.72266 8.58225 4.67687 9.81596 3.91573V8.26844C9.81596 8.63503 9.96361 8.98661 10.2264 9.24583C10.4893 9.50505 10.8457 9.65068 11.2174 9.65068C11.5891 9.65068 11.9455 9.50505 12.2084 9.24583C12.4712 8.98661 12.6188 8.63503 12.6188 8.26844V2.86549C12.9991 2.80299 13.3826 2.76137 13.7675 2.74082H14.0203C14.4899 2.7478 14.9584 2.78947 15.4217 2.86549V8.26844C15.4217 8.63503 15.5694 8.98661 15.8322 9.24583C16.095 9.50505 16.4515 9.65068 16.8232 9.65068C17.1949 9.65068 17.5513 9.50505 17.8141 9.24583C18.077 8.98661 18.2246 8.63503 18.2246 8.26844V3.87372C18.8171 4.21424 19.37 4.61777 19.8734 5.07708C20.682 5.8516 21.3244 6.77858 21.7625 7.80291C22.2006 8.82723 22.4254 9.92798 22.4234 11.0397H21.0206C20.6489 11.0397 20.2925 11.1853 20.0297 11.4445C19.7668 11.7038 19.6192 12.0554 19.6192 12.4219C19.6192 12.7885 19.7668 13.1401 20.0297 13.3993C20.2925 13.6586 20.6489 13.8042 21.0206 13.8042H23.8235C24.0112 13.7984 24.1981 13.8298 24.3731 13.8967C24.5482 13.9635 24.7079 14.0643 24.8427 14.1932C24.9775 14.322 25.0847 14.4763 25.1579 14.6468C25.2311 14.8173 25.2688 15.0006 25.2688 15.1858C25.2688 15.3709 25.2311 15.5542 25.1579 15.7247C25.0847 15.8952 24.9775 16.0495 24.8427 16.1783C24.7079 16.3072 24.5482 16.408 24.3731 16.4748C24.1981 16.5417 24.0112 16.5731 23.8235 16.5673L23.829 16.5619Z" fill="#3865AB"/>
<path d="M2.83496 19.293C3.17015 21.9815 4.49427 24.4553 6.55608 26.2448C8.6179 28.0343 11.274 29.0151 14.0204 29.0012H14.3419C16.9992 28.8742 19.5276 27.8338 21.4886 26.0605C23.4497 24.2873 24.7195 21.893 25.0781 19.293H2.83496ZM14.2718 26.2367C12.2433 26.2943 10.2621 25.6264 8.69366 24.3562C7.12526 23.086 6.07554 21.2992 5.73815 19.3255H22.2257C21.8837 21.193 20.9119 22.8918 19.4682 24.1463C18.0244 25.4008 16.1933 26.1374 14.2718 26.2367Z" fill="#84AFF1"/>
</svg>
