<?xml version="1.0" encoding="utf-8"?>
<!-- Generator: Adobe Illustrator 20.1.0, SVG Export Plug-In . SVG Version: 6.00 Build 0)  -->
<svg version="1.1" id="Layer_1" xmlns="http://www.w3.org/2000/svg" xmlns:xlink="http://www.w3.org/1999/xlink" x="0px" y="0px"
	 width="238px" height="218px" viewBox="0 0 238 218" style="enable-background:new 0 0 238 218;" xml:space="preserve">
<style type="text/css">
	.st0{fill:url(#SVGID_1_);}
	.st1{fill:url(#SVGID_2_);}
</style>
<linearGradient id="SVGID_1_" gradientUnits="userSpaceOnUse" x1="120.8073" y1="198.6298" x2="120.8073" y2="16.4203">
	<stop  offset="0" style="stop-color:#FFF100"/>
	<stop  offset="1" style="stop-color:#F05A28"/>
</linearGradient>
<path class="st0" d="M186.8,16.3c9.4,0,17,7.6,17,17v98.1c0,9.4-7.6,17-17,17h-65.2h-6.5l-4.7,4.5l-28.9,27.3l0-15.5l0-16.3H65.3
	H54.8c-9.4,0-17-7.6-17-17V33.3c0-9.4,7.6-17,17-17H186.8 M186.8,0h-132C36.4,0,21.5,14.9,21.5,33.3v98.1
	c0,18.4,14.9,33.3,33.3,33.3h10.4h0l0,53.3l56.3-53.3h65.2c18.4,0,33.3-14.9,33.3-33.3V33.3C220.1,14.9,205.2,0,186.8,0L186.8,0z"/>
<linearGradient id="SVGID_2_" gradientUnits="userSpaceOnUse" x1="118.1969" y1="150.2037" x2="118.1969" y2="62.4627">
	<stop  offset="0" style="stop-color:#FBED1D"/>
	<stop  offset="1" style="stop-color:#F05A2A"/>
</linearGradient>
<path class="st1" d="M162.3,74.9c-0.1-1.6-0.4-3.5-1-5.5c-0.5-2.1-1.3-4.3-2.5-6.6c-1.2-2.3-2.7-4.7-4.6-7.1
	c-0.8-0.9-1.6-1.8-2.5-2.7c1.3-5.4-1.6-10-1.6-10c-5.2-0.3-8.5,1.6-9.7,2.5c-0.2-0.1-0.4-0.2-0.6-0.3c-0.9-0.4-1.8-0.7-2.7-1
	c-0.9-0.3-1.9-0.6-2.9-0.8c-1-0.2-2-0.4-3-0.6c-0.2,0-0.4-0.1-0.5-0.1c-2.2-7.2-8.7-10.2-8.7-10.2c-7.2,4.6-8.6,11-8.6,11
	s0,0.1-0.1,0.4c-0.4,0.1-0.8,0.2-1.2,0.4c-0.6,0.2-1.1,0.4-1.7,0.6c-0.5,0.2-1.1,0.4-1.6,0.7c-1.1,0.5-2.2,1-3.2,1.6
	c-1,0.6-2,1.2-3,1.9c-0.1-0.1-0.3-0.1-0.3-0.1c-10-3.8-18.9,0.8-18.9,0.8c-0.8,10.6,4,17.3,4.9,18.5c-0.2,0.7-0.5,1.3-0.7,2
	c-0.7,2.4-1.3,4.9-1.6,7.4c0,0.4-0.1,0.7-0.1,1.1c-9.2,4.6-12,13.9-12,13.9c7.7,8.9,16.7,9.4,16.7,9.4c0,0,0,0,0,0
	c1.1,2,2.5,4,4,5.8c0.6,0.8,1.3,1.5,2,2.2c-2.8,8,0.4,14.7,0.4,14.7c8.6,0.3,14.2-3.8,15.4-4.7c0.9,0.3,1.7,0.5,2.6,0.8
	c2.6,0.7,5.3,1.1,8,1.2c0.7,0,1.3,0,2,0l0.3,0l0.2,0l0.4,0l0.4,0l0,0c4,5.8,11.2,6.6,11.2,6.6c5.1-5.3,5.3-10.6,5.3-11.8l0,0
	c0,0,0,0,0-0.1c0-0.1,0-0.2,0-0.2l0,0c0-0.1,0-0.2,0-0.2c1.1-0.7,2.1-1.5,3-2.4c2-1.8,3.8-3.9,5.3-6.2c0.1-0.2,0.3-0.4,0.4-0.6
	c5.7,0.3,9.8-3.5,9.8-3.5c-0.9-6-4.3-8.9-5.1-9.4l0,0c0,0,0,0-0.1-0.1c0,0-0.1,0-0.1,0l0,0c0,0-0.1-0.1-0.1-0.1
	c0-0.4,0.1-0.7,0.1-1.1c0-0.6,0.1-1.3,0.1-1.9l0-0.5l0-0.2l0-0.1c0-0.2,0-0.1,0-0.2l0-0.4l0-0.5c0-0.2,0-0.3,0-0.5
	c0-0.2,0-0.3,0-0.5l-0.1-0.5l-0.1-0.5c-0.1-0.7-0.2-1.3-0.4-1.9c-0.6-2.6-1.6-5-2.9-7.2c-1.3-2.2-3-4.1-4.8-5.8
	c-1.9-1.6-3.9-3-6.1-3.9c-2.2-1-4.5-1.6-6.8-1.9c-1.1-0.1-2.3-0.2-3.4-0.2l-0.4,0l-0.1,0c0,0-0.2,0-0.1,0l-0.2,0l-0.4,0
	c-0.2,0-0.3,0-0.5,0c-0.6,0.1-1.2,0.1-1.7,0.2c-2.3,0.4-4.4,1.2-6.3,2.4c-1.9,1.1-3.5,2.5-4.9,4.1c-1.3,1.6-2.4,3.4-3.1,5.2
	c-0.7,1.8-1.1,3.7-1.2,5.6c0,0.5,0,0.9,0,1.4c0,0.1,0,0.2,0,0.3l0,0.4c0,0.2,0,0.4,0.1,0.7c0.1,0.9,0.3,1.8,0.5,2.7
	c0.5,1.7,1.3,3.3,2.3,4.6c1,1.3,2.2,2.4,3.4,3.3c1.3,0.9,2.6,1.5,3.9,1.9c1.3,0.4,2.6,0.6,3.9,0.6c0.2,0,0.3,0,0.5,0
	c0.1,0,0.2,0,0.2,0c0.1,0,0.2,0,0.2,0c0.1,0,0.3,0,0.4,0c0,0,0.1,0,0.1,0l0.1,0c0.1,0,0.2,0,0.2,0c0.2,0,0.3-0.1,0.5-0.1
	c0.1,0,0.3-0.1,0.4-0.1c0.3-0.1,0.6-0.1,0.8-0.2c0.5-0.2,1-0.4,1.5-0.6c0.5-0.2,0.9-0.5,1.3-0.8c0.1-0.1,0.2-0.2,0.3-0.3
	c0.4-0.3,0.5-1,0.2-1.4c-0.3-0.4-0.8-0.5-1.2-0.2c-0.1,0.1-0.2,0.1-0.3,0.2c-0.4,0.2-0.7,0.3-1.1,0.5c-0.4,0.1-0.8,0.2-1.2,0.3
	c-0.2,0-0.4,0.1-0.7,0.1c-0.1,0-0.2,0-0.3,0c-0.1,0-0.2,0-0.3,0c-0.1,0-0.2,0-0.3,0c-0.1,0-0.3,0-0.4,0c0,0-0.1,0,0,0l0,0l-0.1,0
	c-0.1,0-0.1,0-0.2,0c-0.1,0-0.2,0-0.4,0c-1-0.1-2-0.4-2.9-0.8c-0.9-0.4-1.9-1-2.7-1.8c-0.8-0.7-1.5-1.6-2.1-2.6
	c-0.6-1-1-2.1-1.1-3.3c-0.1-0.6-0.1-1.2-0.1-1.8c0-0.2,0-0.3,0-0.5c0,0,0,0,0,0l0-0.1l0-0.1c0-0.1,0-0.2,0-0.2c0-0.3,0.1-0.6,0.1-1
	c0.4-2.5,1.7-5,3.7-6.9c0.5-0.5,1-0.9,1.6-1.3c0.6-0.4,1.2-0.7,1.8-1c0.6-0.3,1.3-0.5,2-0.7c0.7-0.2,1.4-0.3,2.1-0.4
	c0.3,0,0.7,0,1.1,0c0.1,0,0.2,0,0.2,0l0.3,0l0.2,0c0.1,0,0,0,0,0l0.1,0l0.3,0c0.8,0.1,1.5,0.2,2.3,0.3c1.5,0.3,2.9,0.9,4.3,1.6
	c2.7,1.5,5,3.8,6.4,6.7c0.7,1.4,1.2,2.9,1.5,4.5c0.1,0.4,0.1,0.8,0.1,1.2l0,0.3l0,0.3c0,0.1,0,0.2,0,0.3c0,0.1,0,0.2,0,0.3l0,0.3
	l0,0.3c0,0.2,0,0.5,0,0.7c0,0.4-0.1,0.9-0.1,1.3c-0.1,0.4-0.1,0.8-0.2,1.3c-0.1,0.4-0.2,0.8-0.3,1.3c-0.2,0.8-0.5,1.7-0.8,2.4
	c-0.6,1.6-1.5,3.1-2.5,4.5c-2,2.8-4.8,5.1-8,6.5c-1.6,0.7-3.3,1.2-5,1.5c-0.9,0.1-1.7,0.2-2.6,0.3l-0.2,0l-0.1,0l-0.3,0l-0.4,0
	l-0.2,0c0.1,0,0,0,0,0l-0.1,0c-0.5,0-0.9,0-1.4-0.1c-1.9-0.1-3.7-0.5-5.5-1c-1.8-0.5-3.5-1.2-5.1-2.1c-3.3-1.7-6.2-4.1-8.5-7
	c-1.1-1.4-2.2-3-3-4.6c-0.8-1.6-1.5-3.3-2-5.1c-0.5-1.7-0.8-3.5-0.9-5.3l0-0.3l0-0.1l0-0.1l0-0.1l0-0.3l0-0.1l0-0.1l0-0.2l0-0.4
	l0-0.1c0,0,0,0,0,0l0-0.2c0-0.2,0-0.4,0-0.7c0-0.9,0.1-1.8,0.2-2.7c0.1-0.9,0.3-1.8,0.5-2.7c0.2-0.9,0.4-1.8,0.7-2.7
	c0.5-1.8,1.1-3.5,1.9-5.1c1.5-3.2,3.5-6.1,5.8-8.4c0.6-0.6,1.2-1.1,1.8-1.6c0.6-0.5,1.3-1,2-1.4c0.7-0.4,1.4-0.9,2.1-1.2
	c0.4-0.2,0.7-0.4,1.1-0.5c0.2-0.1,0.4-0.2,0.6-0.2c0.2-0.1,0.4-0.2,0.6-0.2c0.7-0.3,1.5-0.6,2.3-0.8c0.2-0.1,0.4-0.1,0.6-0.2
	c0.2-0.1,0.4-0.1,0.6-0.2c0.4-0.1,0.8-0.2,1.2-0.3c0.2-0.1,0.4-0.1,0.6-0.1c0.2,0,0.4-0.1,0.6-0.1c0.2,0,0.4-0.1,0.6-0.1l0.3-0.1
	l0.3,0c0.2,0,0.4-0.1,0.6-0.1c0.2,0,0.5-0.1,0.7-0.1c0.2,0,0.5-0.1,0.7-0.1c0.1,0,0.3,0,0.4,0l0.3,0l0.1,0l0.2,0c0.2,0,0.5,0,0.7,0
	l0.3,0c0,0,0.1,0,0,0l0.1,0l0.1,0c0.2,0,0.4,0,0.6,0c0.8,0,1.6,0,2.3,0c1.5,0.1,3,0.2,4.5,0.5c2.9,0.5,5.7,1.5,8.2,2.7
	c2.5,1.2,4.7,2.7,6.7,4.4c0.1,0.1,0.2,0.2,0.4,0.3c0.1,0.1,0.2,0.2,0.4,0.3c0.2,0.2,0.5,0.4,0.7,0.6c0.2,0.2,0.4,0.4,0.7,0.6
	c0.2,0.2,0.4,0.4,0.6,0.7c0.8,0.9,1.6,1.8,2.3,2.6c1.4,1.8,2.5,3.6,3.4,5.3c0.1,0.1,0.1,0.2,0.2,0.3c0.1,0.1,0.1,0.2,0.2,0.3
	c0.1,0.2,0.2,0.4,0.3,0.6c0.1,0.2,0.2,0.4,0.3,0.6c0.1,0.2,0.2,0.4,0.3,0.6c0.3,0.8,0.6,1.5,0.9,2.3c0.4,1.2,0.7,2.2,0.9,3.1
	c0.1,0.4,0.4,0.6,0.8,0.6c0.4,0,0.7-0.4,0.7-0.7C162.4,77.4,162.4,76.2,162.3,74.9z"/>
</svg>
