<svg width="14" height="14" viewBox="0 0 14 14" fill="none" xmlns="http://www.w3.org/2000/svg">
<path d="M6.97551 6.38775C4.08571 6.38775 1 5.45714 1 3.69388C1 1.93061 4.08571 1 6.97551 1C9.86531 1 12.951 1.93061 12.951 3.69388C12.951 5.45714 9.91429 6.38775 6.97551 6.38775ZM6.97551 1.97959C3.93878 1.97959 1.97959 3.00816 1.97959 3.69388C1.97959 4.37959 3.93878 5.40816 6.97551 5.40816C10.0122 5.40816 11.9714 4.37959 11.9714 3.69388C11.9714 3.00816 10.0612 1.97959 6.97551 1.97959Z" fill="#757575" stroke="#757575" stroke-width="0.5"/>
<path d="M6.97551 9.66941C4.08571 9.66941 1 8.7388 1 6.97553V3.6939C1 3.40002 1.19592 3.2041 1.4898 3.2041C1.78367 3.2041 1.97959 3.40002 1.97959 3.6939V6.97553C1.97959 7.66124 3.93878 8.68982 6.97551 8.68982C10.0122 8.68982 11.9714 7.66124 11.9714 6.97553V3.6939C11.9714 3.40002 12.1673 3.2041 12.4612 3.2041C12.7551 3.2041 12.951 3.40002 12.951 3.6939V6.97553C13 8.7388 9.91428 9.66941 6.97551 9.66941Z" fill="#757575" stroke="#757575" stroke-width="0.5"/>
<path d="M6.97551 13.0001C4.08571 13.0001 1 12.0695 1 10.3062V6.97564C1 6.68176 1.19592 6.48584 1.4898 6.48584C1.78367 6.48584 1.97959 6.68176 1.97959 6.97564V10.3062C1.97959 10.992 3.93878 12.0205 6.97551 12.0205C10.0122 12.0205 11.9714 10.992 11.9714 10.3062V6.97564C11.9714 6.68176 12.1673 6.48584 12.4612 6.48584C12.7551 6.48584 12.951 6.68176 12.951 6.97564V10.3062C13 12.0695 9.91428 13.0001 6.97551 13.0001Z" fill="#757575" stroke="#757575" stroke-width="0.5"/>
</svg>
