<svg width="29" height="29" viewBox="0 0 29 29" fill="none" xmlns="http://www.w3.org/2000/svg">
<path d="M28.4522 14.5093C28.4522 6.82034 22.1967 0.564941 14.5078 0.564941C6.81881 0.564941 0.563477 6.82034 0.563477 14.5093C0.563477 22.1983 6.81874 28.4537 14.5078 28.4537C22.1968 28.4537 28.4522 22.1983 28.4522 14.5093ZM1.17803 14.5093C1.17803 7.15925 7.15778 1.17949 14.5078 1.17949C21.8579 1.17949 27.8376 7.15925 27.8376 14.5093C27.8376 21.8593 21.8578 27.8391 14.5078 27.8391C7.15772 27.8391 1.17796 21.8593 1.17796 14.5093H1.17803Z" fill="#3B697E"/>
<path d="M22.0461 17.1333C23.3207 17.1333 24.354 16.1 24.354 14.8254C24.354 13.5508 23.3207 12.5176 22.0461 12.5176C20.7715 12.5176 19.7383 13.5508 19.7383 14.8254C19.7383 16.1 20.7715 17.1333 22.0461 17.1333Z" fill="#3B697E"/>
<path d="M14.4533 25.9421C15.7279 25.9421 16.7612 24.9088 16.7612 23.6343C16.7612 22.3597 15.7279 21.3264 14.4533 21.3264C13.1788 21.3264 12.1455 22.3597 12.1455 23.6343C12.1455 24.9088 13.1788 25.9421 14.4533 25.9421Z" fill="#3B697E"/>
<path d="M14.137 14.99L15.5729 11.4237L16.8749 15.1437H18.0443C18.093 15.7275 18.2688 16.2935 18.5595 16.8022C18.8501 17.3109 19.2485 17.7498 19.7266 18.0883L15.9536 21.8614L16.2433 22.151L20.0813 18.313C20.6868 18.6531 21.3702 18.8303 22.0647 18.8274C22.7593 18.8244 23.4411 18.6414 24.0438 18.2962C24.6464 17.9509 25.1492 17.4553 25.5031 16.8577C25.8569 16.2601 26.0498 15.5809 26.0627 14.8865C26.0757 14.1921 25.9083 13.5063 25.577 12.8959C25.2457 12.2855 24.7617 11.7714 24.1724 11.404C23.583 11.0365 22.9085 10.8282 22.2146 10.7993C21.5206 10.7704 20.8311 10.922 20.2133 11.2393L16.2746 7.49756C16.656 7.04165 16.8469 6.45616 16.8074 5.86303C16.7679 5.2699 16.5012 4.71487 16.0627 4.31353C15.6242 3.91219 15.0477 3.69549 14.4534 3.70857C13.8591 3.72164 13.2928 3.96348 12.8724 4.38372C12.4519 4.80396 12.2098 5.37019 12.1965 5.96448C12.1832 6.55877 12.3996 7.1353 12.8007 7.57399C13.2019 8.01267 13.7568 8.2797 14.3499 8.31944C14.943 8.35918 15.5286 8.16858 15.9847 7.78733L19.8451 11.4547C19.2989 11.8127 18.8483 12.2984 18.5323 12.8698C18.2163 13.4412 18.0444 14.0811 18.0314 14.734H17.1656L15.5997 10.2599L13.8603 14.5803H11.918L10.2675 18.4001L8.8116 14.7602L8.80737 14.762V14.7229H7.33558C7.30933 14.1289 7.05498 13.568 6.62548 13.157C6.19599 12.7459 5.62448 12.5164 5.02998 12.5162C4.43548 12.516 3.86383 12.7452 3.43408 13.156C3.00434 13.5668 2.74963 14.1275 2.72302 14.7214C2.69641 15.3153 2.89994 15.8966 3.29122 16.3442C3.6825 16.7918 4.23137 17.0712 4.8235 17.1241C5.41563 17.1771 6.00539 16.9996 6.46992 16.6287C6.93445 16.2577 7.23796 15.7218 7.31722 15.1326H8.51911L10.2529 19.4668L12.1873 14.99H14.137ZM22.0464 11.2056C22.7596 11.2056 23.4569 11.4171 24.0499 11.8133C24.643 12.2096 25.1052 12.7728 25.3782 13.4318C25.6511 14.0907 25.7226 14.8159 25.5834 15.5154C25.4443 16.215 25.1008 16.8575 24.5965 17.3619C24.0921 17.8663 23.4495 18.2097 22.75 18.3489C22.0504 18.488 21.3253 18.4166 20.6663 18.1436C20.0074 17.8707 19.4442 17.4084 19.0479 16.8154C18.6516 16.2223 18.4401 15.5251 18.4402 14.8118C18.4412 13.8557 18.8215 12.9391 19.4976 12.263C20.1736 11.587 21.0903 11.2067 22.0464 11.2056Z" fill="#3B697E"/>
</svg>
