<svg width="25" height="22" viewBox="0 0 25 22" fill="none" xmlns="http://www.w3.org/2000/svg">
<rect x="7.82227" y="9.77783" width="10.7556" height="10.2667" fill="white"/>
<path d="M15.6285 16.9556C16.1716 16.9556 16.6119 16.5172 16.6119 15.9763C16.6119 15.4355 16.1716 14.9971 15.6285 14.9971C15.0853 14.9971 14.645 15.4355 14.645 15.9763C14.645 16.5172 15.0853 16.9556 15.6285 16.9556Z" fill="#7D64FF"/>
<path d="M19.348 0L13.2751 8.25379L8.17867 4.55172L0 22H24.4444L19.348 0ZM11.5688 18.172L10.1161 16.1814V18.172H8.77166V10.7743L10.1161 11.7464V15.4917L11.9047 13.0403L12.9247 13.7785L11.4234 15.8362L13.1274 18.1713H11.5688V18.172ZM15.6287 18.2548C14.3644 18.2548 13.3401 17.2341 13.3401 15.976C13.3401 15.4746 13.5027 15.0117 13.7785 14.6351L16.0735 11.489L17.0935 12.2272L15.999 13.7278C17.0871 13.904 17.9172 14.8433 17.9172 15.9767C17.9172 17.2341 16.8929 18.2548 15.6287 18.2548Z" fill="#7D64FF"/>
</svg>
