<svg xmlns="http://www.w3.org/2000/svg" width="36" height="36" fill="none"><circle cx="18" cy="18" r="18" fill="#F4F4F6"/><g fill="#00C7FD" clip-path="url(#a)"><path d="M7.24 12.367H5.321v1.982h1.92v-1.982ZM7.192 22.697v-7.148H5.37v7.14h1.823v.008Zm12.073.07v-1.75c-.266 0-.492-.014-.655-.042a.732.732 0 0 1-.43-.198c-.096-.098-.158-.24-.192-.43a4.703 4.703 0 0 1-.04-.691v-2.491h1.317v-1.616h-1.318v-2.78h-1.823v6.908c0 .585.048 1.08.143 1.474.096.389.26.706.485.946.226.24.526.41.888.515.369.106.833.155 1.386.155h.24Zm10.434-.07V12.219h-1.823v10.478h1.823Zm-15.33-6.442c-.505-.565-1.215-.847-2.117-.847a2.577 2.577 0 0 0-2.103 1.037l-.095.134v-1.03H8.258v7.14h1.81v-3.802.26-.127c.02-.67.177-1.164.477-1.481.321-.339.71-.508 1.154-.508.526 0 .929.17 1.195.494.26.324.396.783.396 1.369v3.796h1.837v-4.05c.007-1.017-.253-1.82-.758-2.385Zm12.565 2.857c0-.515-.09-.995-.26-1.446a3.889 3.889 0 0 0-.73-1.178c-.315-.34-.69-.6-1.127-.79a3.591 3.591 0 0 0-1.448-.283c-.498 0-.97.099-1.407.29a3.67 3.67 0 0 0-1.14.79 3.69 3.69 0 0 0-.765 1.178c-.19.452-.28.938-.28 1.453 0 .515.09 1.002.267 1.454.177.452.43.847.744 1.178.314.332.703.6 1.154.79.45.198.95.297 1.482.297 1.543 0 2.499-.727 3.073-1.404l-1.311-1.03c-.274.338-.93.797-1.749.797-.512 0-.935-.12-1.256-.367-.321-.24-.54-.579-.656-.995l-.02-.063h5.429v-.67Zm-5.415-.656c0-.522.58-1.432 1.83-1.44 1.25 0 1.837.91 1.837 1.433l-3.667.007Zm10.256 3.338a.67.67 0 0 0-.143-.22.66.66 0 0 0-.471-.205.635.635 0 0 0-.26.058.646.646 0 0 0-.212.148.723.723 0 0 0-.198.487.695.695 0 0 0 .198.486.66.66 0 0 0 .471.205.636.636 0 0 0 .26-.056.645.645 0 0 0 .212-.149.723.723 0 0 0 .198-.487.723.723 0 0 0-.055-.267Zm-.11.493a.532.532 0 0 1-.512.346.533.533 0 0 1-.512-.346.63.63 0 0 1 0-.452.533.533 0 0 1 .512-.346c.076.001.15.015.22.043a.532.532 0 0 1 .293.304c.027.07.04.14.04.226a.603.603 0 0 1-.04.225Zm-.382-.162a.209.209 0 0 0 .13-.063.212.212 0 0 0 .055-.156c0-.077-.02-.134-.069-.176-.04-.042-.116-.064-.204-.064h-.3v.798h.143v-.325h.102l.191.325h.15l-.198-.339Zm-.075-.12H31.038v-.226H31.208c.02 0 .041.007.062.015a.07.07 0 0 1 .04.035c.014.014.014.035.014.063 0 .029-.007.05-.013.064a.179.179 0 0 1-.041.035.192.192 0 0 1-.062.014Z"/></g><defs><clipPath id="a"><path fill="#fff" d="M5 12h27v11H5z"/></clipPath></defs></svg>