<svg xmlns="http://www.w3.org/2000/svg" width="36" height="36" viewBox="0 0 36 36" fill="none"><circle cx="18" cy="18" r="18" fill="#FF671D"/><path fill="#fff" d="M28.974 16.5c-.046-.416-.092-.925-.276-1.479a8.926 8.926 0 0 0-.692-1.8 11.43 11.43 0 0 0-1.245-1.94 5.074 5.074 0 0 0-.691-.74c.369-1.477-.461-2.724-.461-2.724-1.383-.092-2.306.416-2.628.693-.046 0-.092-.046-.185-.093-.23-.092-.46-.184-.737-.277-.277-.092-.507-.138-.784-.23-.277-.047-.553-.093-.784-.14h-.138C19.753 5.832 18 5 18 5c-1.936 1.247-2.305 2.956-2.305 2.956v.092c-.092.046-.23.046-.322.092a5.796 5.796 0 0 1-.462.139 3.18 3.18 0 0 0-.46.185c-.277.138-.6.277-.877.415-.276.139-.553.323-.83.508-.045 0-.045-.046-.045-.046-2.72-1.016-5.118.23-5.118.23-.23 2.864 1.06 4.711 1.337 5.035-.046.184-.138.37-.185.554-.184.646-.368 1.34-.46 2.032 0 .092-.047.185-.047.277C5.737 18.716 5 21.256 5 21.256c2.075 2.401 4.518 2.54 4.518 2.54.323.554.646 1.062 1.06 1.57.185.185.37.416.508.6-.738 2.17.092 3.972.092 3.972 2.305.092 3.827-1.016 4.15-1.293.23.092.46.138.691.23.692.185 1.43.278 2.167.324h.876C20.168 30.769 22.059 31 22.059 31c1.383-1.432 1.429-2.863 1.429-3.186v-.093c.277-.185.553-.416.83-.646a9.739 9.739 0 0 0 1.43-1.663c.045-.046.091-.092.091-.185 1.568.093 2.628-.97 2.628-.97-.276-1.616-1.198-2.4-1.383-2.54h-.046v-1.939c-.046-.185-.046-.37-.092-.508-.185-.693-.415-1.34-.784-1.94a7.105 7.105 0 0 0-1.29-1.57c-.508-.462-1.061-.785-1.66-1.062-.6-.277-1.2-.416-1.845-.508-.323-.046-.6-.046-.922-.046H19.984c-.138 0-.323.046-.461.046-.6.092-1.199.323-1.706.647a6.338 6.338 0 0 0-1.337 1.108 4.473 4.473 0 0 0-.83 1.432 5.997 5.997 0 0 0-.323 1.524v.738c.046.231.093.508.139.74.138.461.369.877.6 1.246.276.37.599.647.921.878.323.23.692.415 1.06.508.37.092.692.138 1.061.138h.599c.046 0 .093 0 .139-.046.092 0 .138-.046.23-.046.139-.046.277-.092.415-.185.139-.046.23-.138.369-.23.046 0 .046-.047.092-.093a.244.244 0 0 0 .046-.37c-.092-.092-.23-.138-.322-.046-.046 0-.046.046-.093.046-.092.047-.184.093-.322.139-.093.046-.23.046-.323.092H19.2c-.276-.046-.507-.092-.784-.23-.276-.093-.507-.278-.737-.462-.23-.185-.415-.462-.553-.693a2.478 2.478 0 0 1-.323-.878c-.046-.138-.046-.323-.046-.461V19.455c0-.093 0-.185.046-.277a3.645 3.645 0 0 1 1.014-1.894c.138-.138.277-.23.415-.37.138-.092.323-.184.461-.276.184-.093.369-.139.507-.185.185-.046.369-.092.553-.092h.554a2.7 2.7 0 0 1 .6.092c.414.092.783.23 1.152.462.737.415 1.337 1.062 1.752 1.8.184.37.322.786.415 1.201 0 .093.046.231.046.324V20.979c0 .138 0 .23-.046.37 0 .091-.046.23-.046.322 0 .093-.047.231-.093.324-.046.23-.138.461-.23.646a8.416 8.416 0 0 1-.692 1.247c-.553.739-1.29 1.385-2.167 1.755a6.43 6.43 0 0 1-1.337.416c-.23.046-.46.046-.691.092h-.692a7.587 7.587 0 0 1-1.475-.277c-.461-.139-.968-.323-1.383-.554a7.563 7.563 0 0 1-2.306-1.894c-.322-.37-.599-.785-.783-1.247a8.677 8.677 0 0 1-.554-1.385 5.158 5.158 0 0 1-.23-1.432v-.877c0-.231.046-.508.046-.739.046-.23.092-.508.138-.739.046-.23.092-.508.185-.739.138-.462.322-.923.507-1.385.415-.878.922-1.663 1.567-2.263.139-.139.323-.323.508-.462a3.85 3.85 0 0 1 .553-.37c.184-.138.369-.23.553-.323l.277-.138c.046 0 .092-.046.138-.046.046 0 .092-.046.138-.046.185-.093.415-.14.6-.231.046 0 .092-.047.138-.047.046 0 .092-.046.138-.046.092-.046.23-.046.323-.092.046 0 .092-.046.184-.046.047 0 .093 0 .185-.046.046 0 .092 0 .184-.047h.185c.046 0 .092 0 .184-.046.046 0 .138 0 .184-.046H20.076c.415 0 .83.046 1.245.139.784.138 1.521.415 2.213.738a7.193 7.193 0 0 1 1.798 1.201l.092.092.093.093c.046.046.138.092.184.184.046.093.138.093.184.185.046.093.139.139.185.185.23.23.415.462.6.739.368.462.69.97.921 1.431 0 .047.046.047.046.093s.046.046.046.092c.047.046.047.093.093.185.046.046.046.092.092.185.046.046.046.092.092.184.092.231.184.416.23.6.093.324.185.601.231.832.046.092.139.185.23.139a.198.198 0 0 0 .185-.185c.184-.554.184-.878.138-1.2Z"/></svg>