<svg xmlns="http://www.w3.org/2000/svg" width="36" height="36" fill="none"><circle cx="18" cy="18" r="18" fill="#EDD5DC"/><path fill="#4F1870" fill-rule="evenodd" d="m13.988 18.632-.824.165c0-.118-.024-.236-.024-.33 0-.872.236-1.697.683-2.451l1.603 1.414a.326.326 0 0 0 .094.07c-.094.26-.165.496-.188.755-.048.023-.118.023-.165.047 0-.024-1.179.33-1.179.33ZM17.1 13.8v2.239c-.236.07-.424.188-.613.33-.07-.048-.141-.118-.212-.166l-1.626-1.13c.66-.684 1.509-1.108 2.451-1.273ZM6 18.938l2.216-9.662c.33-1.532.565-1.932 1.956-2.734 1.909-1.107 3.346-1.885 5.396-3.087 1.273-.73 1.532-.683 1.532.896v7.87c-1.437.19-2.757.85-3.723 1.886l-.684-.471c-.094-.047-.141-.142-.165-.236a1.21 1.21 0 0 0-.353-.542c-.33-.26-.801-.212-1.037.118-.26.33-.212.801.118 1.037a.865.865 0 0 0 .353.188c.095.024.189.024.283.048.07.023.141.047.212.094l.636.565c-.707 1.014-1.06 2.263-1.06 3.512 0 .235.024.447.047.683l-1.39.307c-.095 0-.213 0-.307.023l-.212.07c-.919.19-1.814.378-2.757.59-1.273.283-1.32.023-1.06-1.155Zm12.703-2.898V13.8c.919.166 1.743.59 2.427 1.226l-1.744 1.25c-.024.023-.047.046-.07.046-.19-.117-.401-.235-.613-.282Zm3.912 2.615-2.192-.495a2.266 2.266 0 0 0-.189-.683c.024-.023.048-.047.071-.047l1.626-1.438c.448.755.707 1.627.707 2.475-.023.07-.047.141-.023.188ZM19.786 6.613c1.178.566 2.026.99 3.205 1.555 1.65.802 3.275 1.603 4.949 2.357.4 1.768.824 3.559 1.201 5.326.26 1.06.354 1.65.613 2.687.377 1.673.33 1.79-1.367 1.414l-4.218-.967c.024-.188.024-.353.024-.542 0-1.249-.354-2.498-1.085-3.535l.59-.542c.07-.07.165-.094.259-.117.236-.024.424-.095.613-.236.33-.26.353-.73.117-1.037-.259-.33-.73-.354-1.037-.118a.96.96 0 0 0-.282.33c-.047.094-.071.165-.118.26a.366.366 0 0 1-.142.188l-.683.471a6.299 6.299 0 0 0-3.723-1.885V7.39c0-1.108.094-1.25 1.084-.778Zm-1.461 14.328a2.924 2.924 0 0 1-.425.047c-.141 0-.282 0-.4-.023l-.07.141-1.014 1.838c.471.166 1.013.26 1.508.26.518 0 1.013-.095 1.532-.26l-1.014-1.814a.512.512 0 0 1-.117-.189Zm1.767-1.201 2.192.494a4.706 4.706 0 0 1-1.768 2.168l-.872-2.097c.165-.165.307-.353.448-.566Zm-6.575.47 2.192-.494c.141.236.306.4.471.59l-.07.14-.802 1.956a4.433 4.433 0 0 1-1.79-2.191Zm17.887 3.866c-1.037 1.296-1.532 1.909-2.569 3.205-1.178 1.484-2.144 2.686-3.323 4.17-.848 1.061-1.46 1.085-2.851 1.085h-9.545c-1.814 0-1.956 0-3.063-1.414-1.108-1.39-1.98-2.474-3.064-3.865-.872-1.084-1.084-1.367-1.956-2.45-1.343-1.674-1.579-2.31.519-2.758l6.457-1.461a6.383 6.383 0 0 0 2.71 3.276l-.306.683c-.048.094-.095.165-.189.212a1.074 1.074 0 0 0-.448.471c-.188.354-.023.825.33 1.014.354.188.825.023 1.014-.33.07-.142.094-.283.117-.4 0-.095 0-.19-.023-.284 0-.07 0-.165.047-.235l.354-.66c.73.283 1.484.4 2.262.4.777 0 1.555-.14 2.286-.424l.353.66c.047.095.07.189.047.283-.047.236 0 .424.095.636a.767.767 0 0 0 1.013.33.767.767 0 0 0 .33-1.013.61.61 0 0 0-.26-.33.845.845 0 0 0-.235-.165.367.367 0 0 1-.141-.189l-.307-.73c1.25-.754 2.215-1.909 2.687-3.276l7.117 1.626c1.46.377 1.367.872.542 1.933Z" clip-rule="evenodd"/><path fill="#4F1870" fill-rule="evenodd" d="M18.7 16.04V13.8c.92.166 1.745.59 2.428 1.226l-1.744 1.25c-.023.023-.047.046-.07.046-.189-.118-.401-.235-.613-.282Zm3.913 2.615-2.192-.495a2.263 2.263 0 0 0-.188-.683c.023-.024.047-.047.07-.047l1.626-1.438c.448.754.707 1.626.707 2.475-.023.07-.047.141-.023.188ZM19.785 6.613c1.178.566 2.026.99 3.205 1.555 1.65.802 3.276 1.603 4.949 2.357.4 1.767.825 3.559 1.202 5.326.259 1.06.353 1.65.612 2.687.377 1.673.33 1.79-1.366 1.413l-4.219-.966c.024-.188.024-.353.024-.542 0-1.249-.354-2.498-1.084-3.535l.589-.542c.07-.07.165-.094.26-.118.235-.023.423-.094.612-.235.33-.26.353-.73.118-1.037-.26-.33-.73-.354-1.037-.118a.96.96 0 0 0-.283.33c-.047.094-.07.165-.118.26a.366.366 0 0 1-.141.188l-.684.471a6.3 6.3 0 0 0-3.723-1.885V7.39c0-1.108.094-1.25 1.084-.778Zm.306 13.126 2.192.495a4.705 4.705 0 0 1-1.768 2.168l-.872-2.097a3.64 3.64 0 0 0 .448-.566Zm-2.215 3.441v-2.192c.141 0 .306-.023.424-.047a.38.38 0 0 0 .094.165l1.014 1.815a4.86 4.86 0 0 1-1.532.259Zm13.527.896c-1.037 1.296-1.532 1.908-2.569 3.204-1.178 1.485-2.144 2.687-3.323 4.172-.848 1.06-1.46 1.084-2.851 1.084H17.9v-7.8a6.34 6.34 0 0 0 2.286-.425l.353.66c.047.094.07.189.047.283-.047.235 0 .424.094.636a.767.767 0 0 0 1.014.33.767.767 0 0 0 .33-1.013.61.61 0 0 0-.26-.33.848.848 0 0 0-.235-.165.366.366 0 0 1-.142-.189l-.306-.73c1.249-.754 2.215-1.91 2.686-3.276l7.117 1.626c1.438.377 1.344.872.519 1.933Z" clip-rule="evenodd"/></svg>