<svg xmlns="http://www.w3.org/2000/svg" width="36" height="36" fill="none"><mask id="a" width="36" height="36" x="0" y="0" maskUnits="userSpaceOnUse" style="mask-type:alpha"><circle cx="18" cy="18" r="18" fill="#D9D9D9"/></mask><g mask="url(#a)"><circle cx="18" cy="18" r="18" fill="#F4F4F6"/><path fill="#252F3E" d="M12.004 17.169c0 .349.038.632.104.84.075.208.17.435.302.68.042.065.065.14.066.218 0 .094-.057.189-.18.283l-.595.397a.45.45 0 0 1-.245.085c-.095 0-.19-.047-.284-.132a2.926 2.926 0 0 1-.34-.444 7.297 7.297 0 0 1-.293-.558c-.736.87-1.662 1.304-2.777 1.304-.794 0-1.426-.227-1.89-.68-.462-.453-.698-1.058-.698-1.814 0-.803.283-1.455.86-1.946.575-.491 1.341-.737 2.313-.737.322 0 .653.029 1.002.076.35.047.708.123 1.086.208v-.69c0-.718-.15-1.22-.443-1.512-.303-.293-.813-.434-1.54-.434-.33 0-.671.038-1.02.123-.35.085-.69.188-1.02.32-.108.049-.219.09-.332.124a.576.576 0 0 1-.15.028c-.133 0-.2-.095-.2-.293v-.463c0-.151.02-.264.067-.33a.71.71 0 0 1 .265-.2c.33-.169.727-.31 1.19-.424.463-.123.954-.18 1.473-.18 1.125 0 1.947.255 2.476.765.52.51.784 1.285.784 2.324v3.061h.019Zm-3.836 1.436c.312 0 .633-.057.974-.17.34-.114.642-.321.897-.605.15-.18.264-.378.32-.604.058-.227.095-.501.095-.822v-.397a7.886 7.886 0 0 0-.869-.16 7.105 7.105 0 0 0-.888-.057c-.632 0-1.095.123-1.407.378-.312.255-.463.614-.463 1.086 0 .444.113.775.35 1.002.226.236.557.349.991.349Zm7.586 1.02c-.17 0-.283-.028-.359-.094-.076-.057-.142-.19-.198-.369l-2.22-7.303a1.633 1.633 0 0 1-.085-.377c0-.151.075-.237.226-.237h.926c.18 0 .302.029.368.095.076.057.133.19.19.369l1.587 6.253 1.473-6.253c.047-.19.104-.312.18-.369.075-.057.208-.095.378-.095h.755c.18 0 .302.029.378.095.075.057.142.19.18.369l1.492 6.329 1.635-6.33c.056-.188.122-.311.188-.368.076-.057.199-.095.369-.095h.879c.15 0 .236.076.236.237 0 .047-.01.094-.02.151-.014.08-.037.16-.066.236l-2.276 7.303c-.057.188-.123.311-.198.368a.604.604 0 0 1-.36.094H20.6c-.18 0-.302-.028-.378-.094-.076-.066-.142-.19-.18-.378l-1.464-6.093-1.454 6.084c-.047.189-.104.312-.18.378-.075.066-.208.094-.378.094h-.812Zm12.139.255c-.491 0-.983-.056-1.455-.17-.472-.113-.84-.236-1.086-.378-.152-.085-.255-.18-.293-.264a.668.668 0 0 1-.057-.265v-.482c0-.198.076-.293.218-.293a.53.53 0 0 1 .17.03c.056.018.141.056.235.093.322.142.671.255 1.04.331.378.076.746.114 1.124.114.595 0 1.058-.104 1.38-.312.32-.208.49-.51.49-.898a.92.92 0 0 0-.254-.66c-.17-.18-.492-.34-.955-.492l-1.37-.425c-.69-.217-1.2-.538-1.511-.964a2.25 2.25 0 0 1-.472-1.37c0-.396.085-.746.255-1.048.168-.304.4-.568.68-.775.283-.217.605-.378.982-.491a4.1 4.1 0 0 1 1.19-.161c.209 0 .425.01.633.038.218.028.416.066.614.104.19.046.369.094.54.151.17.057.301.113.396.17a.816.816 0 0 1 .283.236c.057.075.085.18.085.312v.444c0 .198-.075.302-.217.302-.076 0-.198-.038-.36-.113-.538-.246-1.142-.369-1.813-.369-.538 0-.964.085-1.256.265-.293.18-.445.453-.445.84a.893.893 0 0 0 .284.671c.19.18.539.36 1.04.52l1.341.425c.68.217 1.171.52 1.464.907.293.387.435.831.435 1.322 0 .406-.085.775-.246 1.096a2.54 2.54 0 0 1-.69.832 3.042 3.042 0 0 1-1.049.529 4.49 4.49 0 0 1-1.35.198Z"/><path fill="#F90" fill-rule="evenodd" d="M29.68 24.471c-3.108 2.296-7.624 3.514-11.506 3.514-5.442 0-10.345-2.012-14.048-5.356-.293-.265-.028-.623.321-.416 4.005 2.324 8.946 3.732 14.057 3.732 3.448 0 7.236-.718 10.721-2.192.52-.236.965.34.454.718Z" clip-rule="evenodd"/><path fill="#F90" fill-rule="evenodd" d="M30.974 22.998c-.396-.51-2.626-.246-3.637-.123-.302.038-.35-.227-.075-.425 1.776-1.247 4.695-.888 5.035-.473.34.425-.095 3.344-1.757 4.743-.255.217-.501.104-.387-.18.378-.935 1.218-3.042.821-3.542Z" clip-rule="evenodd"/></g></svg>