<svg xmlns="http://www.w3.org/2000/svg" width="36" height="36" fill="none"><mask id="a" width="36" height="36" x="0" y="0" maskUnits="userSpaceOnUse" style="mask-type:alpha"><circle cx="18" cy="18" r="18" fill="#D9D9D9"/></mask><g mask="url(#a)"><circle cx="18" cy="18" r="18" fill="#F4F4F6"/><path fill="#FFB000" d="m18.293 22.7 2.107 3.6-2.107 3.6h-4.188L12 26.3l2.104-3.6h4.19Z"/><path fill="#64BA00" d="m18.293 14.3 2.107 3.6-2.107 3.6h-4.188L12 17.9l2.104-3.6h4.19Z"/><path fill="#F96E10" d="m11.398 19.1 1.802 2.998-1.802 3.002H7.802L6 22.098 7.802 19.1h3.596Z"/><path fill="#0298EC" d="M27.307 7.1 30 11.897 27.307 16.7h-5.413L19.2 11.897 21.894 7.1h5.413Z"/></g></svg>