<svg xmlns="http://www.w3.org/2000/svg" width="36" height="36" viewBox="0 0 36 36" fill="none"><mask id="a" width="36" height="36" x="0" y="0" maskUnits="userSpaceOnUse" style="mask-type:alpha"><circle cx="18" cy="18" r="18" fill="#D9D9D9"/></mask><g mask="url(#a)"><circle cx="18" cy="18" r="18" fill="#F4F4F6"/><path fill="#000" d="M25.657 16.714c.042.147.042.295.042.443 0 1.94-2.361 2.276-4.006 2.276-6.367 0-11.11-3.963-11.11-5.165 0-.084 0-.168.02-.253l-.485 1.18c-.126.296-.19.633-.19.95 0 2.36 5.356 5.945 11.47 5.945 2.699 0 4.765-1.012 4.765-2.846 0-.148 0-.253-.232-1.328l-.274-1.202Z"/><path fill="#E00" d="M21.693 19.433c1.644 0 4.006-.337 4.006-2.276 0-.148 0-.296-.042-.443l-.97-4.238c-.232-.928-.422-1.35-2.066-2.171-1.265-.654-4.027-1.73-4.85-1.73-.758 0-.99.992-1.897.992-.864 0-1.518-.738-2.34-.738-.78 0-1.286.527-1.687 1.644 0 0-1.096 3.1-1.244 3.563-.02.085-.042.169-.02.253 0 1.18 4.743 5.144 11.11 5.144Zm4.259-1.496c.232 1.075.232 1.18.232 1.328 0 1.834-2.066 2.846-4.765 2.846-6.114 0-11.47-3.584-11.47-5.945 0-.338.064-.654.19-.95-2.192.106-5.038.507-5.038 3.016 0 4.111 9.761 9.192 17.477 9.192 5.925 0 7.422-2.677 7.422-4.786 0-1.687-1.455-3.563-4.048-4.701Z"/></g></svg>