<svg xmlns="http://www.w3.org/2000/svg" width="36" height="36" fill="none"><circle cx="18" cy="18" r="18" fill="#F4F4F6"/><path fill="#1496FF" d="M14.136 8.86c-.253 1.434-.59 3.628-.76 5.822-.337 3.881-.168 6.497-.168 6.497l-5.485 5.232s-.422-2.87-.59-6.16c-.085-2.025-.17-3.797-.17-4.894v-.169c0-.084.085-.76.76-1.519.844-.844 6.497-5.316 6.413-4.81Z"/><path fill="#1284EA" d="M14.136 8.86c-.253 1.434-.59 3.628-.76 5.822 0 0-6.075-.76-6.412.759 0-.085.084-.928.844-1.688.76-.76 6.412-5.4 6.328-4.894Z"/><path fill="#B4DC00" d="M6.964 15.02v.337c.085-.253.17-.422.422-.76.422-.506 1.097-.675 1.435-.675 1.518-.168 3.628-.421 5.906-.506 3.797-.168 6.413.169 6.413.169l5.485-5.232s-2.87-.506-6.16-.928c-2.11-.253-4.05-.422-5.063-.422-.084 0-.843-.084-1.518.591-.844.76-4.726 4.472-6.329 5.991-.675.675-.59 1.434-.59 1.434Z"/><path fill="#6F2DA8" d="M26.372 21.686c-1.52.168-3.629.422-5.907.506-3.797.169-6.413-.169-6.413-.169l-5.485 5.232s2.87.59 6.16.928c2.025.253 3.797.337 4.81.422.084 0 .169-.085.253-.085.084 0 .844-.168 1.519-.843.843-.76 5.484-6.076 5.063-5.991Z"/><path fill="#591F91" d="M26.371 21.686c-1.518.168-3.628.421-5.906.506 0 0 .422 6.075-1.013 6.328.084 0 1.097-.084 1.772-.76.844-.674 5.57-6.159 5.147-6.075Z"/><path fill="#73BE28" d="M19.79 28.604h-.338c.253-.084.422-.168.76-.337.59-.422.759-1.182.843-1.435.253-1.434.591-3.628.76-5.822.337-3.881.084-6.497.084-6.497l5.485-5.232s.422 2.87.59 6.16c.17 2.11.17 4.05.17 5.063 0 .084.084.844-.676 1.519-.76.759-4.64 4.472-6.244 5.99-.59.676-1.35.591-1.434.591Z"/></svg>