<svg width="170" height="63" viewBox="0 0 170 63" fill="none" xmlns="http://www.w3.org/2000/svg">
<path d="M81.8994 37.9382H84.0965V33.5114H88.5233V31.3143H84.0965V26.8956H81.8994V31.3143H77.4807V33.5114H81.8994V37.9382Z" fill="#BCBCC8"/>
<path d="M127.048 60.171C125.587 60.171 124.206 59.5214 123.272 58.344L109.062 40.6824C108.128 39.505 107.763 38.0027 108.128 36.5411L113.203 14.4946C113.528 13.033 114.502 11.8555 115.842 11.2059L136.386 1.3804C137.036 1.05559 137.767 0.893188 138.498 0.893188C139.229 0.893188 139.959 1.05559 140.609 1.3804L161.153 11.1653C162.493 11.8149 163.467 12.9924 163.792 14.454L168.867 36.5005C169.192 37.9621 168.867 39.4644 167.934 40.6418L153.723 58.3034C152.789 59.4402 151.409 60.1304 149.947 60.1304L127.048 60.171Z" fill="#326DE6"/>
<path d="M138.457 1.90826C139.026 1.90826 139.594 2.03006 140.122 2.27367L160.666 12.0586C161.722 12.5864 162.534 13.5608 162.777 14.6977L167.852 36.7441C168.137 37.9216 167.852 39.1396 167.081 40.0734L152.871 57.735C152.14 58.6688 151.003 59.1966 149.825 59.1966H127.048C125.871 59.1966 124.734 58.6688 124.003 57.735L109.793 40.0734C109.062 39.1396 108.778 37.9216 109.021 36.7441L114.096 14.6977C114.381 13.5202 115.152 12.5458 116.208 12.0586L136.752 2.23307C137.28 2.03006 137.889 1.90826 138.457 1.90826ZM138.457 0C137.604 0 136.752 0.203006 135.94 0.568418L115.396 10.3939C113.772 11.1653 112.635 12.5864 112.229 14.3322L107.154 36.3787C106.748 38.1246 107.154 39.911 108.29 41.3321L122.501 58.9936C123.597 60.3741 125.262 61.1455 127.008 61.1455H149.785C151.531 61.1455 153.195 60.3741 154.292 58.9936L168.502 41.3321C169.639 39.9516 170.045 38.1246 169.639 36.3787L164.564 14.3322C164.158 12.5864 163.021 11.1653 161.397 10.3939L140.934 0.568418C140.162 0.203006 139.31 0 138.457 0Z" fill="white"/>
<path d="M159.042 34.9983C159.001 34.9983 159.001 34.9983 159.042 34.9983H159.001C158.961 34.9983 158.92 34.9983 158.92 34.9577C158.839 34.9577 158.758 34.9171 158.677 34.9171C158.392 34.8765 158.149 34.8359 157.905 34.8359C157.783 34.8359 157.662 34.8359 157.499 34.7953H157.459C156.606 34.7141 155.916 34.6329 155.266 34.4299C154.982 34.3081 154.901 34.1457 154.82 33.9833C154.82 33.9427 154.779 33.9427 154.779 33.9021L154.251 33.7397C154.495 31.872 154.414 29.9231 153.967 28.0149C153.52 26.1066 152.749 24.3202 151.693 22.6961L152.099 22.3307V22.2495C152.099 22.0465 152.14 21.8435 152.302 21.6405C152.789 21.1939 153.399 20.8285 154.129 20.3818C154.251 20.3006 154.373 20.26 154.495 20.1788C154.738 20.057 154.941 19.9352 155.185 19.7728C155.226 19.7322 155.307 19.6916 155.388 19.6104C155.429 19.5698 155.469 19.5698 155.469 19.5292C156.038 19.042 156.159 18.23 155.753 17.7022C155.55 17.418 155.185 17.2556 154.82 17.2556C154.495 17.2556 154.211 17.3774 153.926 17.5804C153.886 17.621 153.886 17.621 153.845 17.6616C153.764 17.7022 153.723 17.7834 153.642 17.824C153.439 18.027 153.277 18.1894 153.114 18.3924C153.033 18.4736 152.952 18.5954 152.83 18.6766C152.262 19.2856 151.734 19.7728 151.206 20.1382C151.084 20.2194 150.962 20.26 150.841 20.26C150.759 20.26 150.678 20.26 150.597 20.2194H150.516L150.029 20.5443C149.501 19.9758 148.932 19.4886 148.364 19.0014C145.928 17.0931 142.964 15.9157 139.878 15.6315L139.838 15.1037C139.797 15.0631 139.797 15.0631 139.756 15.0225C139.635 14.9007 139.472 14.7789 139.432 14.4947C139.391 13.845 139.472 13.1142 139.553 12.3022V12.2616C139.553 12.1398 139.594 11.9774 139.635 11.8556C139.675 11.612 139.716 11.3684 139.756 11.0842V10.8406V10.7187C139.756 9.98792 139.188 9.37891 138.498 9.37891C138.173 9.37891 137.848 9.54131 137.605 9.78492C137.361 10.0285 137.239 10.3533 137.239 10.7187V10.8V11.0436C137.239 11.3278 137.28 11.5714 137.361 11.815C137.402 11.9368 137.402 12.0586 137.442 12.221V12.2616C137.523 13.0736 137.645 13.8044 137.564 14.4541C137.523 14.7383 137.361 14.8601 137.239 14.9819C137.199 15.0225 137.199 15.0225 137.158 15.0631L137.117 15.5909C136.387 15.6721 135.656 15.7533 134.925 15.9157C131.799 16.6059 129.038 18.1894 126.886 20.463L126.48 20.1788H126.399C126.317 20.1788 126.236 20.2194 126.155 20.2194C126.033 20.2194 125.911 20.1788 125.79 20.0976C125.262 19.7322 124.734 19.2044 124.166 18.5954C124.084 18.5142 124.003 18.3924 123.881 18.3112C123.719 18.1082 123.557 17.9458 123.354 17.7428C123.313 17.7022 123.232 17.6616 123.151 17.5804C123.11 17.5398 123.069 17.5398 123.069 17.4992C122.826 17.2962 122.501 17.1743 122.176 17.1743C121.811 17.1743 121.445 17.3368 121.242 17.621C120.836 18.1488 120.958 18.9608 121.527 19.448C121.567 19.448 121.567 19.4886 121.608 19.4886C121.689 19.5292 121.73 19.6104 121.811 19.651C122.054 19.8134 122.257 19.9352 122.501 20.057C122.623 20.0976 122.745 20.1788 122.866 20.26C123.597 20.7067 124.206 21.0721 124.693 21.5187C124.896 21.7217 124.896 21.9247 124.896 22.1277V22.2089L125.302 22.5743C125.221 22.6961 125.14 22.7773 125.099 22.8991C123.069 26.1066 122.298 29.8825 122.826 33.6179L122.298 33.7803C122.298 33.8209 122.257 33.8209 122.257 33.8615C122.176 34.0239 122.054 34.1863 121.811 34.3081C121.202 34.5111 120.471 34.5923 119.618 34.6735H119.578C119.456 34.6735 119.293 34.6735 119.172 34.7141C118.928 34.7141 118.684 34.7547 118.4 34.7953C118.319 34.7953 118.238 34.8359 118.157 34.8359C118.116 34.8359 118.075 34.8359 118.035 34.8765C117.304 35.0389 116.857 35.7291 116.979 36.3787C117.101 36.9472 117.629 37.3126 118.278 37.3126C118.4 37.3126 118.481 37.3126 118.603 37.272C118.644 37.272 118.684 37.272 118.684 37.2314C118.766 37.2314 118.847 37.1908 118.928 37.1908C119.212 37.1096 119.415 37.0284 119.659 36.9066C119.781 36.866 119.902 36.7848 120.024 36.7442H120.065C120.836 36.4599 121.527 36.2163 122.176 36.1351H122.257C122.501 36.1351 122.663 36.2569 122.785 36.3381C122.826 36.3381 122.826 36.3787 122.866 36.3787L123.435 36.2975C124.409 39.302 126.277 41.9817 128.754 43.9306C129.322 44.3772 129.89 44.7426 130.499 45.108L130.256 45.6358C130.256 45.6764 130.296 45.6764 130.296 45.717C130.378 45.8794 130.459 46.0825 130.378 46.3667C130.134 46.9757 129.769 47.5847 129.322 48.2749V48.3155C129.241 48.4373 129.16 48.5185 129.078 48.6403C128.916 48.8433 128.794 49.0463 128.632 49.2899C128.591 49.3305 128.551 49.4118 128.51 49.493C128.51 49.5336 128.469 49.5742 128.469 49.5742C128.145 50.2644 128.388 51.0358 128.997 51.32C129.16 51.4012 129.322 51.4418 129.484 51.4418C129.972 51.4418 130.459 51.117 130.702 50.6704C130.702 50.6298 130.743 50.5892 130.743 50.5892C130.784 50.508 130.824 50.4268 130.865 50.3862C130.987 50.102 131.027 49.899 131.108 49.6554C131.149 49.5336 131.19 49.4118 131.23 49.2899C131.514 48.4779 131.717 47.8283 132.083 47.2599C132.245 47.0163 132.448 46.9757 132.611 46.8945C132.651 46.8945 132.651 46.8945 132.692 46.8539L132.976 46.3261C134.763 47.0163 136.711 47.3817 138.66 47.3817C139.838 47.3817 141.056 47.2599 142.193 46.9757C142.923 46.8133 143.614 46.6103 144.304 46.3667L144.547 46.8133C144.588 46.8133 144.588 46.8133 144.629 46.8539C144.832 46.8945 144.994 46.9757 145.156 47.2193C145.481 47.7877 145.725 48.4779 146.009 49.2493V49.2899C146.05 49.4118 146.09 49.5336 146.131 49.6554C146.212 49.899 146.253 50.1426 146.374 50.3862C146.415 50.4674 146.456 50.508 146.496 50.5892C146.496 50.6298 146.537 50.6704 146.537 50.6704C146.78 51.1576 147.268 51.4418 147.755 51.4418C147.917 51.4418 148.08 51.4012 148.242 51.32C148.526 51.1576 148.77 50.914 148.851 50.5892C148.932 50.2644 148.932 49.899 148.77 49.5742C148.77 49.5336 148.729 49.5336 148.729 49.493C148.689 49.4118 148.648 49.3305 148.608 49.2899C148.486 49.0463 148.323 48.8433 148.161 48.6403C148.08 48.5185 147.999 48.4373 147.917 48.3155V48.2749C147.471 47.5847 147.065 46.9757 146.862 46.3667C146.78 46.0825 146.862 45.92 146.902 45.717C146.902 45.6764 146.943 45.6764 146.943 45.6358L146.74 45.1486C148.892 43.89 150.719 42.1035 152.099 39.9111C152.83 38.7742 153.399 37.5156 153.805 36.2569L154.292 36.3381C154.332 36.3381 154.332 36.2975 154.373 36.2975C154.535 36.2163 154.657 36.0945 154.901 36.0945H154.982C155.632 36.1757 156.322 36.4193 157.093 36.7036H157.134C157.256 36.7442 157.377 36.8254 157.499 36.866C157.743 36.9878 157.946 37.069 158.23 37.1502C158.311 37.1502 158.392 37.1908 158.474 37.1908C158.514 37.1908 158.555 37.1908 158.595 37.2314C158.717 37.272 158.798 37.272 158.92 37.272C159.529 37.272 160.057 36.866 160.22 36.3381C160.22 35.8509 159.773 35.2013 159.042 34.9983ZM140.244 33.0088L138.457 33.8615L136.671 33.0088L136.224 31.1006L137.442 29.5577H139.432L140.65 31.1006L140.244 33.0088ZM150.841 28.7863C151.165 30.1668 151.247 31.5472 151.125 32.887L144.913 31.1006C144.344 30.9382 144.02 30.3698 144.141 29.8013C144.182 29.6389 144.263 29.4765 144.385 29.3547L149.298 24.9292C149.988 26.066 150.516 27.3653 150.841 28.7863ZM147.349 22.4931L142.03 26.269C141.584 26.5532 140.975 26.472 140.609 26.0254C140.487 25.9036 140.447 25.7412 140.406 25.5788L140.041 18.9608C142.842 19.2856 145.4 20.5443 147.349 22.4931ZM135.575 19.1638C136.021 19.0826 136.427 19.0014 136.874 18.9202L136.508 25.4164C136.468 25.9848 136.021 26.472 135.412 26.472C135.25 26.472 135.047 26.4314 134.925 26.3502L129.525 22.4931C131.19 20.8285 133.26 19.6916 135.575 19.1638ZM127.576 24.9292L132.408 29.2329C132.854 29.5983 132.895 30.2886 132.529 30.7352C132.408 30.8976 132.245 31.0194 132.042 31.06L125.749 32.887C125.505 30.1262 126.114 27.3247 127.576 24.9292ZM126.48 35.9321L132.935 34.8359C133.463 34.7953 133.95 35.1607 134.072 35.6885C134.113 35.9321 134.113 36.1351 134.032 36.3381L131.555 42.3065C129.281 40.8449 127.454 38.6118 126.48 35.9321ZM141.299 44.0118C140.365 44.2148 139.432 44.3366 138.457 44.3366C137.036 44.3366 135.656 44.093 134.357 43.687L137.564 37.881C137.889 37.5156 138.417 37.3532 138.863 37.5968C139.066 37.7186 139.229 37.881 139.35 38.0434L142.477 43.687C142.111 43.8088 141.705 43.89 141.299 44.0118ZM149.217 38.3682C148.202 39.9923 146.862 41.2915 145.319 42.3065L142.761 36.1757C142.639 35.6885 142.842 35.1607 143.329 34.9171C143.492 34.8359 143.695 34.7953 143.898 34.7953L150.394 35.8915C150.15 36.7848 149.744 37.5968 149.217 38.3682Z" fill="white"/>
<path d="M58.9238 27.8001C58.8267 26.744 58.6396 25.5175 58.2791 24.1752C57.9256 22.8329 57.3919 21.3611 56.6225 19.8348C55.8462 18.3086 54.8412 16.721 53.5242 15.1879C53.0113 14.5883 52.4568 13.9886 51.8468 13.4163C52.7479 9.89358 50.7447 6.84101 50.7447 6.84101C47.2929 6.62979 45.1026 7.89033 44.2916 8.4695C44.153 8.41499 44.0213 8.35367 43.8826 8.29916C43.2935 8.06749 42.6904 7.84945 42.0735 7.65185C41.4566 7.46106 40.819 7.28391 40.1743 7.134C39.5228 6.9841 38.8643 6.86145 38.192 6.75925C38.0741 6.73881 37.9563 6.72518 37.8385 6.71155C36.3274 1.97599 32.0092 0 32.0092 0C27.1918 3.00487 26.2769 7.20214 26.2769 7.20214C26.2769 7.20214 26.2561 7.29753 26.2284 7.44744C25.965 7.52239 25.6947 7.59734 25.4313 7.6791C25.0639 7.78813 24.6965 7.9244 24.3292 8.05386C23.9618 8.19695 23.5945 8.33323 23.234 8.48994C22.5062 8.79656 21.7854 9.14406 21.0853 9.53245C20.3991 9.9072 19.7337 10.3228 19.0752 10.7726C18.9781 10.7317 18.9088 10.6976 18.9088 10.6976C12.2408 8.19014 6.3145 11.2086 6.3145 11.2086C5.77385 18.1859 8.97615 22.574 9.61384 23.378C9.45442 23.8073 9.30886 24.2433 9.17023 24.6862C8.6781 26.267 8.31074 27.8887 8.082 29.5649C8.04734 29.8034 8.01962 30.0487 7.99189 30.294C1.82296 33.2784 0 39.4108 0 39.4108C5.14309 45.2229 11.1387 45.584 11.1387 45.584C11.1457 45.5772 11.1526 45.5772 11.1526 45.5704C11.9151 46.9059 12.7953 48.1801 13.7865 49.3657C14.2024 49.8631 14.6391 50.34 15.0896 50.8034C13.2112 56.0772 15.353 60.4653 15.353 60.4653C21.0784 60.6765 24.8421 58.0055 25.6323 57.3855C26.2007 57.5763 26.7829 57.7466 27.3651 57.8897C29.1257 58.3326 30.9279 58.5983 32.73 58.6733C33.1806 58.6937 33.6311 58.7005 34.0816 58.7005H34.2965L34.4421 58.6937L34.7263 58.6869L35.0035 58.6733L35.0105 58.6801C37.7068 62.4617 42.4548 63 42.4548 63C45.8304 59.5045 46.0244 56.0363 46.0244 55.28C46.0244 55.28 46.0244 55.2528 46.0244 55.2323C46.0244 55.171 46.0244 55.1301 46.0244 55.1301C46.0244 55.0756 46.0175 55.0279 46.0175 54.9734C46.7245 54.4828 47.4038 53.9581 48.0415 53.3994C49.3931 52.2002 50.5714 50.8306 51.5488 49.3589C51.6389 49.2226 51.729 49.0795 51.8191 48.9364C55.6383 49.1544 58.3277 46.6129 58.3277 46.6129C57.6969 42.7018 55.4303 40.794 54.9521 40.4328C54.9521 40.4328 54.9313 40.4192 54.9035 40.3988C54.8758 40.3783 54.862 40.3647 54.862 40.3647C54.8342 40.3511 54.8065 40.3306 54.7788 40.3102C54.7996 40.0717 54.8204 39.84 54.8342 39.6016C54.862 39.1791 54.8758 38.7567 54.8758 38.341V38.0276V37.8709V37.7891C54.8758 37.6801 54.8758 37.721 54.8758 37.6801L54.862 37.4212L54.8412 37.0668C54.8342 36.9442 54.8273 36.8352 54.8134 36.7262C54.8065 36.6171 54.7926 36.5081 54.7788 36.3991L54.7372 36.072L54.6887 35.7518C54.6263 35.3225 54.5431 34.8933 54.4391 34.4708C54.0371 32.7878 53.3717 31.1866 52.4845 29.7489C51.5973 28.3112 50.5021 27.037 49.2614 25.9604C48.0207 24.8838 46.6344 24.0185 45.1719 23.378C43.7163 22.7307 42.1844 22.3219 40.6595 22.1311C39.8971 22.0357 39.1346 21.9948 38.386 22.0016L38.1019 22.0084H38.0325C38.0117 22.0084 37.9286 22.0084 37.9355 22.0084L37.8177 22.0153L37.5404 22.0357C37.4364 22.0425 37.3255 22.0493 37.2285 22.0629C36.8403 22.097 36.4591 22.1515 36.0779 22.2197C34.5668 22.499 33.139 23.0373 31.8775 23.7732C30.616 24.5159 29.5277 25.4426 28.6336 26.4851C27.7464 27.5344 27.0532 28.6927 26.5819 29.892C26.1036 31.0912 25.8402 32.3313 25.764 33.5373C25.7432 33.8371 25.7363 34.1369 25.7432 34.4367C25.7432 34.5117 25.7432 34.5866 25.7501 34.6616L25.757 34.9001C25.7709 35.0432 25.7778 35.1862 25.7917 35.3293C25.8541 35.9426 25.965 36.5217 26.1313 37.0873C26.4641 38.2184 26.9978 39.2336 27.6562 40.1058C28.3147 40.9779 29.098 41.6934 29.9297 42.2521C30.7615 42.8108 31.6557 43.2128 32.5359 43.4718C33.4162 43.7307 34.2965 43.8397 35.1283 43.8329C35.2323 43.8329 35.3362 43.8329 35.4333 43.8261C35.4887 43.8261 35.5442 43.8193 35.5996 43.8193C35.6551 43.8193 35.7105 43.8125 35.766 43.8125C35.8561 43.8056 35.9393 43.792 36.0294 43.7852C36.0502 43.7852 36.0779 43.7784 36.1056 43.7784L36.1888 43.7648C36.2442 43.758 36.2928 43.7511 36.3482 43.7443C36.4591 43.7307 36.5492 43.7103 36.6463 43.6898C36.7433 43.6694 36.8403 43.6557 36.9374 43.6285C37.1245 43.5876 37.3117 43.5331 37.4919 43.4786C37.8523 43.3628 38.192 43.2197 38.5039 43.0629C38.8158 42.9062 39.1069 42.7223 39.3772 42.5383C39.4535 42.4838 39.5297 42.4293 39.606 42.3679C39.8971 42.1431 39.9387 41.7275 39.7099 41.4481C39.5089 41.2028 39.1624 41.1415 38.8851 41.2914C38.8158 41.3254 38.7465 41.3663 38.6772 41.4004C38.4346 41.5162 38.185 41.6184 37.9216 41.707C37.6513 41.7888 37.3741 41.8569 37.0899 41.9046C36.9443 41.925 36.7988 41.9455 36.6532 41.9591C36.577 41.9659 36.5076 41.9727 36.4314 41.9727C36.3551 41.9727 36.2789 41.9796 36.2096 41.9796C36.1403 41.9796 36.064 41.9796 35.9947 41.9727C35.9046 41.9659 35.8145 41.9659 35.7244 41.9591C35.7244 41.9591 35.6759 41.9591 35.7175 41.9591H35.6897L35.6273 41.9727C35.5858 41.9659 35.5442 41.9659 35.5095 41.9591C35.4263 41.9523 35.3501 41.9387 35.2669 41.9319C34.6223 41.8433 33.9638 41.6593 33.3331 41.3731C32.7023 41.0938 32.0923 40.7054 31.5517 40.2216C31.0041 39.7378 30.5258 39.1587 30.1585 38.5045C29.7842 37.8504 29.5208 37.1213 29.403 36.3514C29.3406 35.9698 29.3129 35.5746 29.3267 35.1862C29.3336 35.0772 29.3336 34.975 29.3406 34.866C29.3406 34.8932 29.3406 34.8524 29.3406 34.8456V34.8047L29.3475 34.7229C29.3544 34.6684 29.3544 34.6207 29.3614 34.5662C29.3822 34.355 29.4168 34.1437 29.4515 33.9393C29.7495 32.27 30.5952 30.6483 31.9121 29.4082C32.2379 29.1016 32.5914 28.8154 32.9726 28.5565C33.3539 28.3043 33.7489 28.0795 34.1718 27.8887C34.5876 27.6979 35.0243 27.548 35.4749 27.4254C35.9254 27.3095 36.3829 27.2278 36.8473 27.1869C37.0829 27.1665 37.3117 27.1596 37.5473 27.1596C37.6097 27.1596 37.6582 27.1596 37.7068 27.1596L37.8939 27.1665L38.0117 27.1733C38.0603 27.1733 38.0117 27.1733 38.0325 27.1733H38.0811L38.2682 27.1869C38.7742 27.2278 39.2802 27.2959 39.7723 27.4049C40.7635 27.623 41.7339 27.9841 42.635 28.4747C44.4371 29.4559 45.969 30.989 46.9117 32.8355C47.3899 33.7554 47.7157 34.7502 47.882 35.7722C47.9236 36.0312 47.9514 36.2901 47.9722 36.549L47.986 36.7466L47.9929 36.9442C47.9999 37.0123 47.9999 37.0737 47.9999 37.1418C47.9999 37.2031 48.0068 37.2781 47.9999 37.3258V37.4961L47.9929 37.6869C47.986 37.8164 47.9791 38.0208 47.9722 38.1434C47.9514 38.4296 47.9236 38.709 47.889 38.9883C47.8543 39.2677 47.8058 39.547 47.7573 39.8196C47.7018 40.0921 47.6394 40.3715 47.5701 40.6441C47.4315 41.1892 47.2513 41.7274 47.0434 42.2521C46.6205 43.3014 46.0591 44.2962 45.3798 45.2229C44.0213 47.0626 42.1637 48.5617 40.0496 49.5088C38.996 49.9789 37.8801 50.3196 36.7364 50.5104C36.168 50.6058 35.5858 50.6603 35.0035 50.6807L34.8996 50.6875H34.8094H34.6223H34.3381H34.1926C34.2688 50.6875 34.1787 50.6875 34.1856 50.6875H34.1302C33.8183 50.6807 33.5063 50.6671 33.2014 50.6398C31.9606 50.5513 30.7407 50.3332 29.5485 49.9925C28.3633 49.6587 27.2057 49.2021 26.1175 48.6298C23.941 47.4851 21.9933 45.9179 20.4684 44.0237C19.699 43.0834 19.0336 42.0681 18.4791 41.0052C17.9246 39.9422 17.4948 38.8248 17.1691 37.6801C16.8502 36.5354 16.6492 35.3702 16.573 34.1914L16.5591 33.9734L16.5522 33.9189V33.8712V33.7758L16.5452 33.585V33.5373V33.4692V33.3329L16.5383 33.0604V33.0058C16.5383 33.0127 16.5383 33.0127 16.5383 32.9854V32.8764C16.5383 32.7333 16.5452 32.5902 16.5452 32.4471C16.566 31.8679 16.6145 31.2683 16.6908 30.6687C16.767 30.0691 16.871 29.4695 16.9958 28.8767C17.1205 28.2839 17.2661 27.6911 17.4394 27.1119C17.779 25.9468 18.2018 24.8225 18.7009 23.7596C19.699 21.6337 21.016 19.7531 22.5894 18.2472C22.9845 17.8725 23.3934 17.5114 23.8163 17.1775C24.2391 16.8436 24.6827 16.5302 25.1332 16.244C25.5838 15.951 26.0482 15.6853 26.5334 15.44C26.769 15.3105 27.0186 15.2015 27.2612 15.0857C27.3859 15.0311 27.5107 14.9766 27.6285 14.9221C27.7533 14.8676 27.8781 14.8131 28.0028 14.7654C28.5019 14.561 29.0148 14.3838 29.5347 14.2203C29.6664 14.1794 29.798 14.1454 29.9228 14.1045C30.0545 14.0636 30.1862 14.0363 30.3179 13.9955C30.5813 13.9205 30.8447 13.8592 31.1081 13.7979C31.2398 13.7638 31.3784 13.7433 31.5101 13.7093C31.6418 13.682 31.7735 13.6548 31.9121 13.6275C32.0438 13.6003 32.1824 13.5798 32.3141 13.5526L32.5152 13.5185L32.7162 13.4912C32.8548 13.4708 32.9865 13.4504 33.1251 13.4299C33.2776 13.4027 33.4301 13.3958 33.5826 13.3686C33.7074 13.355 33.9153 13.3277 34.0331 13.3141C34.1302 13.3073 34.2272 13.2936 34.3173 13.2868L34.5114 13.2664L34.6084 13.2596L34.7193 13.2528C34.8718 13.2459 35.0243 13.2323 35.1768 13.2255L35.4055 13.2119C35.4055 13.2119 35.4887 13.2119 35.4194 13.2119H35.4679L35.565 13.2051C35.6967 13.1982 35.8284 13.1914 35.9531 13.1846C36.473 13.171 36.9928 13.171 37.5058 13.1846C38.5316 13.2255 39.5367 13.3345 40.514 13.5117C42.4686 13.8728 44.3193 14.486 45.9828 15.2969C47.6533 16.1009 49.1505 17.0889 50.4467 18.1587C50.5298 18.2268 50.6061 18.2949 50.6893 18.3631C50.7655 18.4312 50.8487 18.4994 50.9249 18.5675C51.0844 18.7038 51.2299 18.8469 51.3824 18.9831C51.5349 19.1194 51.6804 19.2625 51.826 19.4056C51.9646 19.5487 52.1102 19.6849 52.2488 19.8348C52.8033 20.4072 53.3093 20.9864 53.7668 21.5724C54.6887 22.7375 55.4234 23.9163 56.0126 25.0269C56.0472 25.0951 56.0888 25.1632 56.1235 25.2313C56.1581 25.2995 56.1928 25.3676 56.2274 25.4358C56.2968 25.572 56.3661 25.7083 56.4285 25.8446C56.4908 25.9809 56.5602 26.1103 56.6156 26.2466C56.678 26.3829 56.7334 26.5123 56.7889 26.6418C57.0107 27.1596 57.2117 27.657 57.3711 28.1272C57.6414 28.8835 57.8355 29.5649 57.988 30.1577C58.0504 30.3962 58.2791 30.5529 58.5287 30.5324C58.7851 30.512 58.9861 30.3008 58.9861 30.0487C59.0139 29.4014 58.9931 28.6518 58.9238 27.8001Z" fill="url(#paint0_linear_17833_322)"/>
<defs>
<linearGradient id="paint0_linear_17833_322" x1="29.5014" y1="77.1723" x2="29.5014" y2="19.6119" gradientUnits="userSpaceOnUse">
<stop stop-color="#FFF200"/>
<stop offset="1" stop-color="#F15A29"/>
</linearGradient>
</defs>
</svg>
