<svg width="542" height="304" viewBox="0 0 542 304" fill="none" xmlns="http://www.w3.org/2000/svg">
<ellipse cx="470" cy="154.5" rx="72" ry="72.5" fill="#FDE8BE"/>
<circle cx="469.911" cy="152.734" r="50.6106" fill="white"/>
<g clip-path="url(#clip0_18199_437)">
<path d="M459.065 183.696L458.255 178.574L453.182 179.337L453.938 184.513L459.065 183.696Z" fill="url(#paint0_linear_18199_437)"/>
<path d="M499.272 169.201L498.462 164.025L475.903 167.567L476.713 172.689L499.272 169.201Z" fill="url(#paint1_linear_18199_437)"/>
<path d="M468.725 173.942L473.798 173.179L473.043 168.003L467.916 168.766L468.725 173.942Z" fill="url(#paint2_linear_18199_437)"/>
<path d="M467.052 182.497L466.243 177.321L461.169 178.138L461.925 183.26L467.052 182.497Z" fill="url(#paint3_linear_18199_437)"/>
<path d="M451.941 171.272L452.696 176.449L457.823 175.631L457.014 170.455L451.941 171.272Z" fill="url(#paint4_linear_18199_437)"/>
<path d="M477.144 175.631L477.954 180.808L500.513 177.266L499.703 172.144L477.144 175.631Z" fill="url(#paint5_linear_18199_437)"/>
<path d="M469.967 182.007L475.04 181.244L474.284 176.067L469.157 176.885L469.967 182.007Z" fill="url(#paint6_linear_18199_437)"/>
<path d="M459.928 170.019L460.738 175.196L465.811 174.378L465.055 169.256L459.928 170.019Z" fill="url(#paint7_linear_18199_437)"/>
<path d="M453.614 168.003L447.353 126.754L445.195 127.081L451.509 168.384L453.614 168.003Z" fill="url(#paint8_linear_18199_437)"/>
<path d="M456.636 167.567L449.836 123.212L447.677 123.593L454.423 167.894L456.636 167.567Z" fill="url(#paint9_linear_18199_437)"/>
<path d="M461.655 166.804L454.531 119.779L452.373 120.106L459.497 167.131L461.655 166.804Z" fill="url(#paint10_linear_18199_437)"/>
<path d="M464.624 166.314L458.093 123.484L455.935 123.811L462.465 166.64L464.624 166.314Z" fill="url(#paint11_linear_18199_437)"/>
<path d="M469.642 165.551L463.868 127.462L461.709 127.789L467.484 165.878L469.642 165.551Z" fill="url(#paint12_linear_18199_437)"/>
<path d="M472.611 165.06L466.566 125.555L464.408 125.882L470.452 165.387L472.611 165.06Z" fill="url(#paint13_linear_18199_437)"/>
</g>
<path d="M183 14.0001L297.361 123.654" stroke="#FFD685" stroke-width="2"/>
<path d="M180.5 59L297.36 135.654" stroke="#FBBB5A" stroke-width="2"/>
<path d="M182 106L297.361 148.654" stroke="#FB9D5A" stroke-width="2"/>
<path d="M182 151.654L297.36 151.654" stroke="#FB8A5A" stroke-width="2"/>
<path d="M181 200L297.361 164.654" stroke="#FB755A" stroke-width="2"/>
<path d="M181 247L297.361 177.654" stroke="#F5533D" stroke-width="2"/>
<path d="M180.779 293.5L297 189.654" stroke="#EF3A49" stroke-width="2"/>
<path d="M415.127 154.707C415.517 154.317 415.517 153.683 415.127 153.293L408.763 146.929C408.372 146.538 407.739 146.538 407.348 146.929C406.958 147.319 406.958 147.953 407.348 148.343L413.005 154L407.348 159.657C406.958 160.047 406.958 160.681 407.348 161.071C407.739 161.462 408.372 161.462 408.763 161.071L415.127 154.707ZM346.419 155H414.419V153H346.419V155Z" fill="#9292A5"/>
<path d="M416.537 133.499C417.089 133.479 417.52 133.015 417.499 132.463L417.166 123.469C417.146 122.917 416.682 122.486 416.13 122.507C415.578 122.527 415.147 122.991 415.168 123.543L415.464 131.538L407.469 131.834C406.917 131.854 406.486 132.318 406.507 132.87C406.527 133.422 406.991 133.853 407.543 133.832L416.537 133.499ZM331.82 55.2328L415.82 133.233L417.18 131.767L333.18 53.7672L331.82 55.2328Z" fill="#9292A5"/>
<circle cx="321.062" cy="153.062" r="49.0624" fill="#393946"/>
<path d="M283.42 141.818L287.114 148.003V152H288.645V148.003L292.339 141.818H290.594L287.934 146.447H287.824L285.165 141.818H283.42ZM295.362 152.154C297.515 152.154 298.922 150.578 298.922 148.217C298.922 145.84 297.515 144.264 295.362 144.264C293.21 144.264 291.803 145.84 291.803 148.217C291.803 150.578 293.21 152.154 295.362 152.154ZM295.367 150.906C293.96 150.906 293.304 149.678 293.304 148.212C293.304 146.75 293.96 145.507 295.367 145.507C296.764 145.507 297.421 146.75 297.421 148.212C297.421 149.678 296.764 150.906 295.367 150.906ZM305.139 148.833C305.144 150.131 304.179 150.747 303.344 150.747C302.424 150.747 301.788 150.081 301.788 149.042V144.364H300.301V149.221C300.301 151.115 301.34 152.099 302.807 152.099C303.955 152.099 304.736 151.493 305.089 150.678H305.168V152H306.63V144.364H305.139V148.833ZM308.347 152H309.834V147.337C309.834 146.337 310.604 145.616 311.658 145.616C311.967 145.616 312.315 145.671 312.434 145.706V144.284C312.285 144.264 311.992 144.249 311.803 144.249C310.908 144.249 310.142 144.756 309.864 145.577H309.784V144.364H308.347V152ZM320.082 152.154C321.887 152.154 323.055 151.07 323.219 149.584H321.772C321.584 150.409 320.942 150.896 320.092 150.896C318.834 150.896 318.024 149.847 318.024 148.182C318.024 146.546 318.849 145.517 320.092 145.517C321.037 145.517 321.613 146.114 321.772 146.83H323.219C323.06 145.288 321.802 144.264 320.067 144.264C317.915 144.264 316.522 145.885 316.522 148.217C316.522 150.518 317.865 152.154 320.082 152.154ZM326.015 147.466C326.015 146.248 326.786 145.552 327.845 145.552C328.869 145.552 329.481 146.203 329.481 147.322V152H330.967V147.143C330.967 145.239 329.923 144.264 328.352 144.264C327.164 144.264 326.448 144.781 326.09 145.607H325.995V141.818H324.529V152H326.015V147.466ZM335.887 152.154C338.04 152.154 339.447 150.578 339.447 148.217C339.447 145.84 338.04 144.264 335.887 144.264C333.735 144.264 332.328 145.84 332.328 148.217C332.328 150.578 333.735 152.154 335.887 152.154ZM335.892 150.906C334.485 150.906 333.829 149.678 333.829 148.212C333.829 146.75 334.485 145.507 335.892 145.507C337.289 145.507 337.946 146.75 337.946 148.212C337.946 149.678 337.289 150.906 335.892 150.906ZM340.826 152H342.313V144.364H340.826V152ZM341.577 143.185C342.089 143.185 342.517 142.788 342.517 142.3C342.517 141.813 342.089 141.411 341.577 141.411C341.06 141.411 340.637 141.813 340.637 142.3C340.637 142.788 341.06 143.185 341.577 143.185ZM347.249 152.154C349.054 152.154 350.222 151.07 350.386 149.584H348.94C348.751 150.409 348.109 150.896 347.259 150.896C346.001 150.896 345.191 149.847 345.191 148.182C345.191 146.546 346.016 145.517 347.259 145.517C348.204 145.517 348.78 146.114 348.94 146.83H350.386C350.227 145.288 348.969 144.264 347.234 144.264C345.082 144.264 343.69 145.885 343.69 148.217C343.69 150.518 345.032 152.154 347.249 152.154ZM354.987 152.154C356.653 152.154 357.831 151.334 358.169 150.091L356.762 149.837C356.494 150.558 355.847 150.926 355.002 150.926C353.729 150.926 352.874 150.101 352.834 148.629H358.263V148.102C358.263 145.343 356.613 144.264 354.883 144.264C352.755 144.264 351.353 145.885 351.353 148.232C351.353 150.603 352.735 152.154 354.987 152.154ZM352.839 147.516C352.899 146.432 353.685 145.492 354.893 145.492C356.046 145.492 356.802 146.347 356.807 147.516H352.839ZM298.339 169.154C300.492 169.154 301.899 167.578 301.899 165.217C301.899 162.84 300.492 161.264 298.339 161.264C296.187 161.264 294.78 162.84 294.78 165.217C294.78 167.578 296.187 169.154 298.339 169.154ZM298.344 167.906C296.937 167.906 296.281 166.678 296.281 165.212C296.281 163.75 296.937 162.507 298.344 162.507C299.741 162.507 300.398 163.75 300.398 165.212C300.398 166.678 299.741 167.906 298.344 167.906ZM306.913 161.364H305.267V160.678C305.267 160.001 305.545 159.634 306.271 159.634C306.58 159.634 306.798 159.703 306.937 159.748L307.285 158.545C307.077 158.465 306.644 158.341 306.043 158.341C304.835 158.341 303.776 159.047 303.776 160.479V161.364H302.597V162.557H303.776V169H305.267V162.557H306.913V161.364ZM313.814 169.169C315.077 169.169 315.787 168.528 316.071 167.956H316.131V169H317.582V163.929C317.582 161.707 315.832 161.264 314.619 161.264C313.237 161.264 311.964 161.821 311.467 163.213L312.864 163.531C313.083 162.989 313.64 162.467 314.639 162.467C315.599 162.467 316.091 162.969 316.091 163.835V163.869C316.091 164.411 315.534 164.401 314.162 164.56C312.715 164.729 311.233 165.107 311.233 166.842C311.233 168.344 312.362 169.169 313.814 169.169ZM314.137 167.976C313.297 167.976 312.69 167.598 312.69 166.862C312.69 166.067 313.396 165.783 314.256 165.669C314.738 165.604 315.882 165.475 316.096 165.261V166.246C316.096 167.151 315.375 167.976 314.137 167.976ZM322.484 172.023C324.428 172.023 325.929 171.133 325.929 169.169V161.364H324.472V162.602H324.363C324.1 162.129 323.573 161.264 322.151 161.264C320.306 161.264 318.949 162.721 318.949 165.152C318.949 167.588 320.336 168.886 322.141 168.886C323.543 168.886 324.085 168.095 324.353 167.608H324.448V169.109C324.448 170.308 323.627 170.825 322.499 170.825C321.261 170.825 320.779 170.203 320.515 169.766L319.237 170.293C319.64 171.227 320.659 172.023 322.484 172.023ZM322.469 167.653C321.142 167.653 320.45 166.634 320.45 165.132C320.45 163.665 321.127 162.527 322.469 162.527C323.767 162.527 324.463 163.586 324.463 165.132C324.463 166.708 323.752 167.653 322.469 167.653ZM330.934 169.154C332.599 169.154 333.778 168.334 334.116 167.091L332.709 166.837C332.44 167.558 331.794 167.926 330.949 167.926C329.676 167.926 328.821 167.101 328.781 165.629H334.21V165.102C334.21 162.343 332.56 161.264 330.83 161.264C328.702 161.264 327.3 162.885 327.3 165.232C327.3 167.603 328.682 169.154 330.934 169.154ZM328.786 164.516C328.846 163.432 329.631 162.492 330.839 162.492C331.993 162.492 332.749 163.347 332.754 164.516H328.786ZM337.066 164.466C337.066 163.248 337.812 162.552 338.846 162.552C339.855 162.552 340.467 163.213 340.467 164.322V169H341.953V164.143C341.953 162.254 340.914 161.264 339.353 161.264C338.205 161.264 337.454 161.796 337.101 162.607H337.006V161.364H335.58V169H337.066V164.466ZM347.231 161.364H345.665V159.534H344.179V161.364H343.06V162.557H344.179V167.066C344.174 168.453 345.233 169.124 346.406 169.099C346.878 169.094 347.197 169.005 347.371 168.94L347.102 167.712C347.003 167.732 346.819 167.777 346.58 167.777C346.098 167.777 345.665 167.618 345.665 166.758V162.557H347.231V161.364Z" fill="white"/>
<circle cx="321.062" cy="45.0624" r="29.0624" fill="#393946"/>
<path d="M312.019 51.1018L312.953 48.4072H316.93L317.86 51.1018H319.491L315.827 40.92H314.052L310.388 51.1018H312.019ZM313.401 47.1146L314.902 42.7694H314.982L316.483 47.1146H313.401ZM320.681 51.1018H322.217V47.5223H324.305C326.667 47.5223 327.835 46.0954 327.835 44.2162C327.835 42.3419 326.677 40.92 324.31 40.92H320.681V51.1018ZM322.217 46.2197V42.2375H324.146C325.668 42.2375 326.289 43.0627 326.289 44.2162C326.289 45.3696 325.668 46.2197 324.166 46.2197H322.217ZM330.892 40.92H329.356V51.1018H330.892V40.92Z" fill="white"/>
<path d="M27.3558 7.54545H25.9663L23.6072 9.08736V10.4538L25.8693 8.97656H25.9247V17H27.3558V7.54545ZM33.2049 17.157C35.3885 17.157 36.6673 15.375 36.6673 12.2773C36.6673 9.20277 35.37 7.41619 33.2049 7.41619C31.0352 7.41619 29.7425 9.19815 29.7379 12.2773C29.7379 15.3704 31.0167 17.1523 33.2049 17.157ZM33.2049 15.9244C31.9261 15.9244 31.1552 14.641 31.1552 12.2773C31.1598 9.92294 31.9308 8.62571 33.2049 8.62571C34.4744 8.62571 35.25 9.92294 35.25 12.2773C35.25 14.641 34.479 15.9244 33.2049 15.9244ZM42.6364 19.6591C43.7766 19.6591 44.4968 19.0636 44.9077 17.9464L47.8391 9.92294L46.348 9.90909L44.5522 15.4119H44.4783L42.6825 9.90909H41.2053L43.7997 17.0923L43.6289 17.5632C43.2781 18.505 42.7841 18.5835 42.027 18.3757L41.6946 19.5067C41.8608 19.5806 42.2209 19.6591 42.6364 19.6591ZM51.942 17.1431C53.4885 17.1431 54.5827 16.3814 54.8966 15.2273L53.5901 14.9918C53.3408 15.6612 52.7407 16.0028 51.9559 16.0028C50.7741 16.0028 49.98 15.2365 49.9431 13.87H54.9843V13.3807C54.9843 10.8185 53.4516 9.81676 51.8451 9.81676C49.8692 9.81676 48.5674 11.3217 48.5674 13.5007C48.5674 15.7028 49.8508 17.1431 51.942 17.1431ZM49.9477 12.8359C50.0031 11.8295 50.7325 10.957 51.8543 10.957C52.9253 10.957 53.627 11.7511 53.6317 12.8359H49.9477ZM58.5794 17.157C59.752 17.157 60.4121 16.5614 60.6752 16.0305H60.7306V17H62.0787V12.2912C62.0787 10.2276 60.4537 9.81676 59.3272 9.81676C58.0439 9.81676 56.862 10.3338 56.4004 11.6264L57.6976 11.9219C57.9007 11.4187 58.4178 10.9339 59.3457 10.9339C60.2367 10.9339 60.6937 11.4002 60.6937 12.2035V12.2358C60.6937 12.739 60.1767 12.7298 58.9025 12.8775C57.5591 13.0344 56.1834 13.3853 56.1834 14.9964C56.1834 16.3906 57.2314 17.157 58.5794 17.157ZM58.8794 16.049C58.0993 16.049 57.536 15.6982 57.536 15.0149C57.536 14.2763 58.1916 14.0131 58.9902 13.907C59.438 13.8469 60.4998 13.7269 60.6983 13.5284V14.4425C60.6983 15.2827 60.0289 16.049 58.8794 16.049ZM63.9172 17H65.2975V12.6697C65.2975 11.7418 66.0131 11.0724 66.9917 11.0724C67.278 11.0724 67.6011 11.1232 67.7119 11.1555V9.83523C67.5734 9.81676 67.301 9.80291 67.1256 9.80291C66.2947 9.80291 65.5837 10.2738 65.3252 11.0355H65.2513V9.90909H63.9172V17ZM75.3337 17.1431C77.3327 17.1431 78.6391 15.6797 78.6391 13.4869C78.6391 11.2802 77.3327 9.81676 75.3337 9.81676C73.3348 9.81676 72.0283 11.2802 72.0283 13.4869C72.0283 15.6797 73.3348 17.1431 75.3337 17.1431ZM75.3383 15.9844C74.0319 15.9844 73.4225 14.8441 73.4225 13.4822C73.4225 12.125 74.0319 10.9709 75.3383 10.9709C76.6356 10.9709 77.2449 12.125 77.2449 13.4822C77.2449 14.8441 76.6356 15.9844 75.3383 15.9844ZM81.5602 7.54545H80.1799V17H81.5602V7.54545ZM86.0716 17.1385C87.3643 17.1385 87.8721 16.3491 88.1214 15.8967H88.2368V17H89.5848V7.54545H88.2045V11.0586H88.1214C87.8721 10.62 87.4012 9.81676 86.0809 9.81676C84.3682 9.81676 83.1079 11.1694 83.1079 13.4684C83.1079 15.7628 84.3497 17.1385 86.0716 17.1385ZM86.3763 15.9613C85.1437 15.9613 84.502 14.8764 84.502 13.4545C84.502 12.0465 85.1299 10.9893 86.3763 10.9893C87.5812 10.9893 88.2275 11.9727 88.2275 13.4545C88.2275 14.9457 87.5674 15.9613 86.3763 15.9613ZM96.3756 7.54545H94.9953V17H96.3756V7.54545ZM101.289 17.1431C102.835 17.1431 103.929 16.3814 104.243 15.2273L102.937 14.9918C102.688 15.6612 102.087 16.0028 101.303 16.0028C100.121 16.0028 99.3267 15.2365 99.2898 13.87H104.331V13.3807C104.331 10.8185 102.798 9.81676 101.192 9.81676C99.2159 9.81676 97.9141 11.3217 97.9141 13.5007C97.9141 15.7028 99.1974 17.1431 101.289 17.1431ZM99.2944 12.8359C99.3498 11.8295 100.079 10.957 101.201 10.957C102.272 10.957 102.974 11.7511 102.978 12.8359H99.2944ZM108.835 19.8068C110.641 19.8068 112.035 18.9805 112.035 17.157V9.90909H110.682V11.0586H110.581C110.336 10.62 109.847 9.81676 108.526 9.81676C106.813 9.81676 105.553 11.1694 105.553 13.4268C105.553 15.6889 106.841 16.8938 108.517 16.8938C109.819 16.8938 110.322 16.1598 110.571 15.7074H110.659V17.1016C110.659 18.2141 109.897 18.6942 108.849 18.6942C107.7 18.6942 107.252 18.1172 107.007 17.7109L105.821 18.2003C106.195 19.0682 107.141 19.8068 108.835 19.8068ZM108.822 15.7489C107.589 15.7489 106.947 14.8026 106.947 13.4084C106.947 12.0465 107.575 10.9893 108.822 10.9893C110.027 10.9893 110.673 11.9727 110.673 13.4084C110.673 14.8718 110.013 15.7489 108.822 15.7489ZM115.949 17.157C117.122 17.157 117.782 16.5614 118.045 16.0305H118.101V17H119.449V12.2912C119.449 10.2276 117.824 9.81676 116.697 9.81676C115.414 9.81676 114.232 10.3338 113.771 11.6264L115.068 11.9219C115.271 11.4187 115.788 10.9339 116.716 10.9339C117.607 10.9339 118.064 11.4002 118.064 12.2035V12.2358C118.064 12.739 117.547 12.7298 116.273 12.8775C114.929 13.0344 113.554 13.3853 113.554 14.9964C113.554 16.3906 114.601 17.157 115.949 17.157ZM116.25 16.049C115.469 16.049 114.906 15.6982 114.906 15.0149C114.906 14.2763 115.562 14.0131 116.36 13.907C116.808 13.8469 117.87 13.7269 118.068 13.5284V14.4425C118.068 15.2827 117.399 16.049 116.25 16.049ZM124.274 17.1431C125.95 17.1431 127.035 16.1367 127.187 14.7564H125.844C125.668 15.5227 125.073 15.9751 124.283 15.9751C123.115 15.9751 122.363 15.0011 122.363 13.4545C122.363 11.9357 123.129 10.9801 124.283 10.9801C125.161 10.9801 125.696 11.5341 125.844 12.1989H127.187C127.039 10.7678 125.871 9.81676 124.26 9.81676C122.261 9.81676 120.969 11.3217 120.969 13.4869C120.969 15.6243 122.215 17.1431 124.274 17.1431ZM129.536 19.6591C130.676 19.6591 131.396 19.0636 131.807 17.9464L134.739 9.92294L133.247 9.90909L131.452 15.4119H131.378L129.582 9.90909H128.105L130.699 17.0923L130.528 17.5632C130.177 18.505 129.684 18.5835 128.926 18.3757L128.594 19.5067C128.76 19.5806 129.12 19.6591 129.536 19.6591ZM141.543 17.157C142.716 17.157 143.376 16.5614 143.639 16.0305H143.695V17H145.043V12.2912C145.043 10.2276 143.418 9.81676 142.291 9.81676C141.008 9.81676 139.826 10.3338 139.364 11.6264L140.661 11.9219C140.865 11.4187 141.382 10.9339 142.31 10.9339C143.201 10.9339 143.658 11.4002 143.658 12.2035V12.2358C143.658 12.739 143.141 12.7298 141.866 12.8775C140.523 13.0344 139.147 13.3853 139.147 14.9964C139.147 16.3906 140.195 17.157 141.543 17.157ZM141.843 16.049C141.063 16.049 140.5 15.6982 140.5 15.0149C140.5 14.2763 141.155 14.0131 141.954 13.907C142.402 13.8469 143.464 13.7269 143.662 13.5284V14.4425C143.662 15.2827 142.993 16.049 141.843 16.049ZM146.881 19.6591H148.261V15.8967H148.344C148.594 16.3491 149.102 17.1385 150.394 17.1385C152.112 17.1385 153.358 15.7628 153.358 13.4684C153.358 11.1694 152.093 9.81676 150.38 9.81676C149.065 9.81676 148.589 10.62 148.344 11.0586H148.229V9.90909H146.881V19.6591ZM148.234 13.4545C148.234 11.9727 148.88 10.9893 150.085 10.9893C151.336 10.9893 151.964 12.0465 151.964 13.4545C151.964 14.8764 151.317 15.9613 150.085 15.9613C148.898 15.9613 148.234 14.9457 148.234 13.4545ZM154.904 19.6591H156.285V15.8967H156.368C156.617 16.3491 157.125 17.1385 158.418 17.1385C160.135 17.1385 161.381 15.7628 161.381 13.4684C161.381 11.1694 160.116 9.81676 158.404 9.81676C157.088 9.81676 156.613 10.62 156.368 11.0586H156.252V9.90909H154.904V19.6591ZM156.257 13.4545C156.257 11.9727 156.903 10.9893 158.108 10.9893C159.359 10.9893 159.987 12.0465 159.987 13.4545C159.987 14.8764 159.341 15.9613 158.108 15.9613C156.922 15.9613 156.257 14.9457 156.257 13.4545Z" fill="#393946"/>
<circle cx="176.5" cy="12.5" r="9.5" fill="#FFD685"/>
<path d="M130.348 58.7898C130.348 57.6587 131.041 57.0124 132.001 57.0124C132.938 57.0124 133.506 57.6264 133.506 58.6559V63H134.886V58.4897C134.886 56.7354 133.921 55.8168 132.472 55.8168C131.405 55.8168 130.708 56.3107 130.381 57.0632H130.293V55.9091H128.968V63H130.348V58.7898ZM139.71 65.8068C141.516 65.8068 142.91 64.9805 142.91 63.157V55.9091H141.557V57.0586H141.456C141.211 56.62 140.722 55.8168 139.401 55.8168C137.688 55.8168 136.428 57.1694 136.428 59.4268C136.428 61.6889 137.716 62.8938 139.392 62.8938C140.694 62.8938 141.197 62.1598 141.446 61.7074H141.534V63.1016C141.534 64.2141 140.772 64.6942 139.724 64.6942C138.575 64.6942 138.127 64.1172 137.882 63.7109L136.696 64.2003C137.07 65.0682 138.016 65.8068 139.71 65.8068ZM139.697 61.7489C138.464 61.7489 137.822 60.8026 137.822 59.4084C137.822 58.0465 138.45 56.9893 139.697 56.9893C140.902 56.9893 141.548 57.9727 141.548 59.4084C141.548 60.8718 140.888 61.7489 139.697 61.7489ZM144.761 63H146.141V55.9091H144.761V63ZM145.458 54.815C145.934 54.815 146.331 54.4457 146.331 53.9933C146.331 53.5408 145.934 53.1669 145.458 53.1669C144.978 53.1669 144.585 53.5408 144.585 53.9933C144.585 54.4457 144.978 54.815 145.458 54.815ZM149.379 58.7898C149.379 57.6587 150.071 57.0124 151.031 57.0124C151.968 57.0124 152.536 57.6264 152.536 58.6559V63H153.917V58.4897C153.917 56.7354 152.952 55.8168 151.502 55.8168C150.436 55.8168 149.739 56.3107 149.411 57.0632H149.323V55.9091H147.998V63H149.379V58.7898ZM156.857 55.9091H155.343L157.522 59.4545L155.315 63H156.83L158.422 60.3501L160.02 63H161.529L159.299 59.4545L161.511 55.9091H160.001L158.422 58.6697L156.857 55.9091Z" fill="#393946"/>
<circle cx="176.5" cy="58.5" r="9.5" fill="#FBBB5A"/>
<path d="M149.091 100.545H147.665V110H149.091V100.545ZM152.595 100.545H151.169V110H152.595V100.545ZM159.829 103.029H161.205C161.163 101.515 159.824 100.416 157.904 100.416C156.007 100.416 154.552 101.501 154.552 103.131C154.552 104.446 155.494 105.217 157.013 105.628L158.13 105.933C159.141 106.201 159.921 106.533 159.921 107.373C159.921 108.297 159.04 108.906 157.826 108.906C156.727 108.906 155.813 108.417 155.73 107.387H154.299C154.391 109.1 155.716 110.157 157.835 110.157C160.055 110.157 161.334 108.989 161.334 107.387C161.334 105.684 159.815 105.023 158.615 104.728L157.692 104.488C156.953 104.299 155.97 103.952 155.974 103.048C155.974 102.244 156.708 101.649 157.872 101.649C158.957 101.649 159.728 102.157 159.829 103.029Z" fill="#393946"/>
<circle cx="176.5" cy="105.5" r="9.5" fill="#FB9D5A"/>
<path d="M63.5017 150.62C63.1785 148.598 61.5951 147.416 59.5961 147.416C57.1494 147.416 55.3444 149.249 55.3444 152.273C55.3444 155.297 57.1402 157.129 59.5961 157.129C61.6736 157.129 63.1924 155.827 63.5017 153.958L62.0613 153.953C61.8167 155.163 60.801 155.827 59.6054 155.827C57.985 155.827 56.7616 154.586 56.7616 152.273C56.7616 149.978 57.9804 148.718 59.61 148.718C60.8149 148.718 61.8259 149.397 62.0613 150.62H63.5017ZM66.4782 147.545H65.0978V157H66.4782V147.545ZM71.322 157.143C73.3209 157.143 74.6274 155.68 74.6274 153.487C74.6274 151.28 73.3209 149.817 71.322 149.817C69.3231 149.817 68.0166 151.28 68.0166 153.487C68.0166 155.68 69.3231 157.143 71.322 157.143ZM71.3266 155.984C70.0202 155.984 69.4108 154.844 69.4108 153.482C69.4108 152.125 70.0202 150.971 71.3266 150.971C72.6238 150.971 73.2332 152.125 73.2332 153.482C73.2332 154.844 72.6238 155.984 71.3266 155.984ZM80.66 154.059C80.6646 155.264 79.769 155.837 78.9934 155.837C78.1394 155.837 77.5485 155.218 77.5485 154.253V149.909H76.1681V154.419C76.1681 156.178 77.133 157.092 78.4949 157.092C79.5613 157.092 80.286 156.529 80.6138 155.772H80.6877V157H82.0449V149.909H80.66V154.059ZM86.5541 157.138C87.8467 157.138 88.3545 156.349 88.6038 155.897H88.7192V157H90.0672V147.545H88.6869V151.059H88.6038C88.3545 150.62 87.8836 149.817 86.5633 149.817C84.8506 149.817 83.5903 151.169 83.5903 153.468C83.5903 155.763 84.8321 157.138 86.5541 157.138ZM86.8588 155.961C85.6262 155.961 84.9845 154.876 84.9845 153.455C84.9845 152.047 85.6123 150.989 86.8588 150.989C88.0637 150.989 88.71 151.973 88.71 153.455C88.71 154.946 88.0498 155.961 86.8588 155.961ZM96.2152 152.407H92.0234V153.602H96.2152V152.407ZM99.4352 152.79C99.4352 151.659 100.128 151.012 101.088 151.012C102.025 151.012 102.593 151.626 102.593 152.656V157H103.973V152.49C103.973 150.735 103.008 149.817 101.559 149.817C100.492 149.817 99.7953 150.311 99.4675 151.063H99.3798V149.909H98.0549V157H99.4352V152.79ZM107.888 157.157C109.061 157.157 109.721 156.561 109.984 156.031H110.039V157H111.387V152.291C111.387 150.228 109.762 149.817 108.636 149.817C107.352 149.817 106.171 150.334 105.709 151.626L107.006 151.922C107.209 151.419 107.726 150.934 108.654 150.934C109.545 150.934 110.002 151.4 110.002 152.203V152.236C110.002 152.739 109.485 152.73 108.211 152.877C106.868 153.034 105.492 153.385 105.492 154.996C105.492 156.391 106.54 157.157 107.888 157.157ZM108.188 156.049C107.408 156.049 106.845 155.698 106.845 155.015C106.845 154.276 107.5 154.013 108.299 153.907C108.747 153.847 109.808 153.727 110.007 153.528V154.442C110.007 155.283 109.338 156.049 108.188 156.049ZM116.536 149.909H115.082V148.21H113.701V149.909H112.663V151.017H113.701V155.204C113.697 156.492 114.68 157.115 115.769 157.092C116.208 157.088 116.503 157.005 116.665 156.945L116.416 155.804C116.323 155.823 116.153 155.864 115.931 155.864C115.483 155.864 115.082 155.717 115.082 154.918V151.017H116.536V149.909ZM118.063 157H119.443V149.909H118.063V157ZM118.76 148.815C119.235 148.815 119.632 148.446 119.632 147.993C119.632 147.541 119.235 147.167 118.76 147.167C118.28 147.167 117.887 147.541 117.887 147.993C117.887 148.446 118.28 148.815 118.76 148.815ZM127.366 149.909H125.884L124.093 155.366H124.019L122.223 149.909H120.741L123.317 157H124.795L127.366 149.909ZM131.465 157.143C133.012 157.143 134.106 156.381 134.42 155.227L133.114 154.992C132.864 155.661 132.264 156.003 131.479 156.003C130.297 156.003 129.503 155.237 129.467 153.87H134.508V153.381C134.508 150.819 132.975 149.817 131.369 149.817C129.393 149.817 128.091 151.322 128.091 153.501C128.091 155.703 129.374 157.143 131.465 157.143ZM129.471 152.836C129.527 151.83 130.256 150.957 131.378 150.957C132.449 150.957 133.15 151.751 133.155 152.836H129.471ZM141.543 157.157C142.716 157.157 143.376 156.561 143.639 156.031H143.695V157H145.043V152.291C145.043 150.228 143.418 149.817 142.291 149.817C141.008 149.817 139.826 150.334 139.364 151.626L140.661 151.922C140.865 151.419 141.382 150.934 142.31 150.934C143.201 150.934 143.658 151.4 143.658 152.203V152.236C143.658 152.739 143.141 152.73 141.866 152.877C140.523 153.034 139.147 153.385 139.147 154.996C139.147 156.391 140.195 157.157 141.543 157.157ZM141.843 156.049C141.063 156.049 140.5 155.698 140.5 155.015C140.5 154.276 141.155 154.013 141.954 153.907C142.402 153.847 143.464 153.727 143.662 153.528V154.442C143.662 155.283 142.993 156.049 141.843 156.049ZM146.881 159.659H148.261V155.897H148.344C148.594 156.349 149.102 157.138 150.394 157.138C152.112 157.138 153.358 155.763 153.358 153.468C153.358 151.169 152.093 149.817 150.38 149.817C149.065 149.817 148.589 150.62 148.344 151.059H148.229V149.909H146.881V159.659ZM148.234 153.455C148.234 151.973 148.88 150.989 150.085 150.989C151.336 150.989 151.964 152.047 151.964 153.455C151.964 154.876 151.317 155.961 150.085 155.961C148.898 155.961 148.234 154.946 148.234 153.455ZM154.904 159.659H156.285V155.897H156.368C156.617 156.349 157.125 157.138 158.418 157.138C160.135 157.138 161.381 155.763 161.381 153.468C161.381 151.169 160.116 149.817 158.404 149.817C157.088 149.817 156.613 150.62 156.368 151.059H156.252V149.909H154.904V159.659ZM156.257 153.455C156.257 151.973 156.903 150.989 158.108 150.989C159.359 150.989 159.987 152.047 159.987 153.455C159.987 154.876 159.341 155.961 158.108 155.961C156.922 155.961 156.257 154.946 156.257 153.455Z" fill="#393946"/>
<circle cx="176.5" cy="152.5" r="9.5" fill="#FB8A5A"/>
<path d="M129.802 204H135.513V202.772H131.229V194.545H129.802V204ZM137.029 204H138.41V196.909H137.029V204ZM137.727 195.815C138.202 195.815 138.599 195.446 138.599 194.993C138.599 194.541 138.202 194.167 137.727 194.167C137.246 194.167 136.854 194.541 136.854 194.993C136.854 195.446 137.246 195.815 137.727 195.815ZM141.647 199.79C141.647 198.659 142.34 198.012 143.3 198.012C144.237 198.012 144.805 198.626 144.805 199.656V204H146.185V199.49C146.185 197.735 145.22 196.817 143.771 196.817C142.704 196.817 142.007 197.311 141.679 198.063H141.592V196.909H140.267V204H141.647V199.79ZM152.528 201.059C152.533 202.264 151.637 202.837 150.862 202.837C150.008 202.837 149.417 202.218 149.417 201.253V196.909H148.036V201.419C148.036 203.178 149.001 204.092 150.363 204.092C151.429 204.092 152.154 203.529 152.482 202.772H152.556V204H153.913V196.909H152.528V201.059ZM156.857 196.909H155.343L157.522 200.455L155.315 204H156.83L158.422 201.35L160.02 204H161.529L159.299 200.455L161.511 196.909H160.001L158.422 199.67L156.857 196.909Z" fill="#393946"/>
<circle cx="176.5" cy="199.5" r="9.5" fill="#FB755A"/>
<path d="M91.6022 251H93.0287V248.059L94.1459 246.776L97.202 251H98.9193L95.0922 245.802L98.9055 241.545H97.1096L93.1441 246.06H93.0287V241.545H91.6022V251ZM104.172 248.059C104.176 249.264 103.281 249.837 102.505 249.837C101.651 249.837 101.06 249.218 101.06 248.253V243.909H99.6799V248.419C99.6799 250.178 100.645 251.092 102.007 251.092C103.073 251.092 103.798 250.529 104.126 249.772H104.199V251H105.557V243.909H104.172V248.059ZM107.522 251H108.87V249.897H108.986C109.235 250.349 109.743 251.138 111.035 251.138C112.753 251.138 113.999 249.763 113.999 247.468C113.999 245.169 112.734 243.817 111.021 243.817C109.706 243.817 109.23 244.62 108.986 245.059H108.902V241.545H107.522V251ZM108.875 247.455C108.875 245.973 109.521 244.989 110.726 244.989C111.977 244.989 112.605 246.047 112.605 247.455C112.605 248.876 111.959 249.961 110.726 249.961C109.54 249.961 108.875 248.946 108.875 247.455ZM118.605 251.143C120.152 251.143 121.246 250.381 121.56 249.227L120.253 248.992C120.004 249.661 119.404 250.003 118.619 250.003C117.437 250.003 116.643 249.237 116.606 247.87H121.647V247.381C121.647 244.819 120.115 243.817 118.508 243.817C116.532 243.817 115.23 245.322 115.23 247.501C115.23 249.703 116.514 251.143 118.605 251.143ZM116.611 246.836C116.666 245.83 117.396 244.957 118.517 244.957C119.588 244.957 120.29 245.751 120.295 246.836H116.611ZM123.179 251H124.559V246.67C124.559 245.742 125.275 245.072 126.253 245.072C126.54 245.072 126.863 245.123 126.974 245.156V243.835C126.835 243.817 126.563 243.803 126.387 243.803C125.556 243.803 124.845 244.274 124.587 245.036H124.513V243.909H123.179V251ZM129.548 246.79C129.548 245.659 130.241 245.012 131.201 245.012C132.138 245.012 132.706 245.626 132.706 246.656V251H134.086V246.49C134.086 244.735 133.122 243.817 131.672 243.817C130.606 243.817 129.909 244.311 129.581 245.063H129.493V243.909H128.168V251H129.548V246.79ZM138.994 251.143C140.54 251.143 141.634 250.381 141.948 249.227L140.642 248.992C140.393 249.661 139.792 250.003 139.008 250.003C137.826 250.003 137.032 249.237 136.995 247.87H142.036V247.381C142.036 244.819 140.503 243.817 138.897 243.817C136.921 243.817 135.619 245.322 135.619 247.501C135.619 249.703 136.903 251.143 138.994 251.143ZM136.999 246.836C137.055 245.83 137.784 244.957 138.906 244.957C139.977 244.957 140.679 245.751 140.683 246.836H136.999ZM146.878 243.909H145.423V242.21H144.043V243.909H143.004V245.017H144.043V249.204C144.038 250.492 145.022 251.115 146.111 251.092C146.55 251.088 146.845 251.005 147.007 250.945L146.758 249.804C146.665 249.823 146.494 249.864 146.273 249.864C145.825 249.864 145.423 249.717 145.423 248.918V245.017H146.878V243.909ZM151.384 251.143C152.931 251.143 154.025 250.381 154.339 249.227L153.032 248.992C152.783 249.661 152.183 250.003 151.398 250.003C150.216 250.003 149.422 249.237 149.385 247.87H154.427V247.381C154.427 244.819 152.894 243.817 151.287 243.817C149.312 243.817 148.01 245.322 148.01 247.501C148.01 249.703 149.293 251.143 151.384 251.143ZM149.39 246.836C149.445 245.83 150.175 244.957 151.297 244.957C152.368 244.957 153.069 245.751 153.074 246.836H149.39ZM161.272 245.64C160.986 244.537 160.122 243.817 158.59 243.817C156.988 243.817 155.852 244.662 155.852 245.917C155.852 246.924 156.461 247.593 157.791 247.888L158.991 248.152C159.674 248.304 159.993 248.609 159.993 249.052C159.993 249.601 159.407 250.031 158.502 250.031C157.676 250.031 157.145 249.675 156.978 248.978L155.644 249.181C155.875 250.437 156.918 251.143 158.511 251.143C160.224 251.143 161.41 250.234 161.41 248.95C161.41 247.949 160.773 247.33 159.471 247.03L158.345 246.771C157.565 246.587 157.228 246.324 157.232 245.843C157.228 245.299 157.819 244.911 158.603 244.911C159.462 244.911 159.859 245.386 160.021 245.862L161.272 245.64Z" fill="#393946"/>
<circle cx="176.5" cy="246.5" r="9.5" fill="#F5533D"/>
<path d="M121.75 297C124.631 297 126.297 295.213 126.297 292.259C126.297 289.318 124.631 287.545 121.847 287.545H118.689V297H121.75ZM120.116 295.754V288.792H121.759C123.827 288.792 124.894 290.029 124.894 292.259C124.894 294.498 123.827 295.754 121.671 295.754H120.116ZM130.947 297.143C132.946 297.143 134.252 295.68 134.252 293.487C134.252 291.28 132.946 289.817 130.947 289.817C128.948 289.817 127.642 291.28 127.642 293.487C127.642 295.68 128.948 297.143 130.947 297.143ZM130.952 295.984C129.645 295.984 129.036 294.844 129.036 293.482C129.036 292.125 129.645 290.971 130.952 290.971C132.249 290.971 132.858 292.125 132.858 293.482C132.858 294.844 132.249 295.984 130.952 295.984ZM138.78 297.143C140.456 297.143 141.541 296.137 141.693 294.756H140.35C140.174 295.523 139.579 295.975 138.789 295.975C137.621 295.975 136.869 295.001 136.869 293.455C136.869 291.936 137.635 290.98 138.789 290.98C139.666 290.98 140.202 291.534 140.35 292.199H141.693C141.545 290.768 140.377 289.817 138.766 289.817C136.767 289.817 135.475 291.322 135.475 293.487C135.475 295.624 136.721 297.143 138.78 297.143ZM143.169 297H144.549V294.484L145.237 293.796L147.647 297H149.341L146.276 292.951L149.148 289.909H147.495L144.67 292.91H144.549V287.545H143.169V297ZM153.17 297.143C154.716 297.143 155.81 296.381 156.124 295.227L154.818 294.992C154.568 295.661 153.968 296.003 153.183 296.003C152.002 296.003 151.208 295.237 151.171 293.87H156.212V293.381C156.212 290.819 154.679 289.817 153.073 289.817C151.097 289.817 149.795 291.322 149.795 293.501C149.795 295.703 151.078 297.143 153.17 297.143ZM151.175 292.836C151.231 291.83 151.96 290.957 153.082 290.957C154.153 290.957 154.855 291.751 154.859 292.836H151.175ZM157.743 297H159.124V292.67C159.124 291.742 159.839 291.072 160.818 291.072C161.104 291.072 161.427 291.123 161.538 291.156V289.835C161.4 289.817 161.127 289.803 160.952 289.803C160.121 289.803 159.41 290.274 159.151 291.036H159.078V289.909H157.743V297Z" fill="#393946"/>
<ellipse cx="176.285" cy="292.5" rx="9.48855" ry="9.5" fill="#EF3A49"/>
<rect x="195" y="142" width="41" height="19" rx="9.5" fill="#E6E6EA"/>
<path d="M203.815 147.559H202.874V154H203.815V147.559ZM206.938 154.098C208.3 154.098 209.19 153.1 209.19 151.606C209.19 150.103 208.3 149.106 206.938 149.106C205.576 149.106 204.686 150.103 204.686 151.606C204.686 153.1 205.576 154.098 206.938 154.098ZM206.941 153.308C206.051 153.308 205.636 152.531 205.636 151.603C205.636 150.679 206.051 149.892 206.941 149.892C207.825 149.892 208.24 150.679 208.24 151.603C208.24 152.531 207.825 153.308 206.941 153.308ZM212.088 155.912C213.318 155.912 214.268 155.349 214.268 154.107V149.169H213.346V149.952H213.277C213.11 149.653 212.777 149.106 211.877 149.106C210.71 149.106 209.852 150.028 209.852 151.566C209.852 153.107 210.729 153.928 211.871 153.928C212.758 153.928 213.101 153.428 213.271 153.119H213.33V154.069C213.33 154.827 212.811 155.154 212.097 155.154C211.314 155.154 211.009 154.761 210.842 154.484L210.034 154.818C210.289 155.409 210.934 155.912 212.088 155.912ZM212.078 153.148C211.239 153.148 210.802 152.503 210.802 151.553C210.802 150.625 211.229 149.905 212.078 149.905C212.899 149.905 213.34 150.575 213.34 151.553C213.34 152.55 212.89 153.148 212.078 153.148ZM217.651 149.169H216.61V148.735C216.61 148.307 216.786 148.074 217.245 148.074C217.44 148.074 217.578 148.118 217.667 148.147L217.887 147.386C217.755 147.335 217.481 147.257 217.1 147.257C216.336 147.257 215.666 147.703 215.666 148.609V149.169H214.921V149.924H215.666V154H216.61V149.924H217.651V149.169ZM218.444 154H219.384V151.021C219.384 150.37 219.84 149.918 220.375 149.918C220.897 149.918 221.259 150.263 221.259 150.789V154H222.196V150.921C222.196 150.339 222.552 149.918 223.165 149.918C223.662 149.918 224.071 150.194 224.071 150.848V154H225.011V150.76C225.011 149.656 224.395 149.106 223.52 149.106C222.825 149.106 222.303 149.439 222.07 149.955H222.02C221.809 149.427 221.366 149.106 220.721 149.106C220.083 149.106 219.608 149.424 219.406 149.955H219.347V149.169H218.444V154ZM228.35 149.169H227.359V148.011H226.418V149.169H225.711V149.924H226.418V152.777C226.415 153.654 227.085 154.079 227.828 154.063C228.126 154.06 228.328 154.003 228.438 153.962L228.268 153.185C228.205 153.198 228.089 153.226 227.938 153.226C227.633 153.226 227.359 153.126 227.359 152.582V149.924H228.35V149.169Z" fill="#404041"/>
<rect x="204.746" y="19" width="72" height="19" rx="9.5" transform="rotate(46.3427 204.746 19)" fill="#E6E6EA"/>
<path d="M202.444 34.1109C203.232 34.9369 204.238 34.9983 204.99 34.4242L204.358 33.7621C203.898 34.036 203.395 33.9553 203.024 33.5661C202.474 32.9904 202.601 32.1614 203.363 31.434C204.112 30.7197 204.943 30.6479 205.486 31.2168C205.898 31.6492 205.877 32.1737 205.619 32.5592L206.251 33.2213C206.887 32.4754 206.806 31.4524 206.048 30.6583C205.108 29.673 203.758 29.7437 202.691 30.762C201.638 31.7673 201.475 33.0961 202.444 34.1109ZM208.018 36.9099C207.427 37.4789 206.723 37.3066 206.359 36.9244C205.957 36.5034 205.984 35.9212 206.459 35.4674L208.601 33.4242L207.951 32.7438L205.728 34.8652C204.861 35.6924 204.865 36.5979 205.505 37.2692C206.007 37.7948 206.625 37.8872 207.152 37.6927L207.187 37.7291L206.582 38.3066L207.22 38.9756L210.715 35.6405L210.064 34.9579L208.018 36.9099ZM213.111 39.8599C213.521 39.1999 213.47 38.4357 212.749 37.6802C211.995 36.8906 211.045 36.7281 210.426 37.3187C209.93 37.7921 209.886 38.4073 210.366 39.2016L210.801 39.917C211.047 40.3254 211.047 40.6257 210.828 40.8342C210.558 41.0926 210.07 41.0055 209.645 40.5595C209.256 40.1522 209.181 39.7233 209.447 39.3135L208.719 38.7514C208.209 39.4558 208.351 40.3023 209.101 41.0873C209.906 41.9315 210.912 42.0886 211.545 41.485C212.039 41.0138 212.044 40.4088 211.58 39.626L211.177 38.9492C210.901 38.4778 210.873 38.1879 211.111 37.9644C211.378 37.7059 211.847 37.8148 212.216 38.2016C212.62 38.6248 212.572 39.0442 212.414 39.3475L213.111 39.8599ZM216.178 41.3654L215.494 40.6486L216.332 39.8496L215.682 39.1692L214.845 39.9682L214.356 39.4562L213.81 39.9774L214.299 40.4893L212.235 42.4587C211.598 43.0622 211.753 43.84 212.277 44.3662C212.486 44.5802 212.665 44.6867 212.771 44.7382L213.216 44.079C213.163 44.0421 213.063 43.9775 212.958 43.8683C212.748 43.6475 212.632 43.3801 213.025 43.0045L214.948 41.1697L215.632 41.8865L216.178 41.3654ZM214.577 46.827C215.517 47.8123 216.853 47.768 217.934 46.7366C219.022 45.6987 219.129 44.3664 218.188 43.3812C217.248 42.3959 215.913 42.4402 214.825 43.4781C213.744 44.5094 213.637 45.8417 214.577 46.827ZM215.151 46.2843C214.536 45.6403 214.812 44.8036 215.483 44.1631C216.152 43.5247 217.007 43.2823 217.622 43.9262C218.232 44.5657 217.95 45.4089 217.281 46.0472C216.609 46.6877 215.761 46.9237 215.151 46.2843ZM216.805 49.0202L217.454 49.7006L219.609 47.6444C220.08 47.1949 220.722 47.2122 221.092 47.5991C221.452 47.9768 221.451 48.4773 221.071 48.8399L218.748 51.0568L219.395 51.7349L221.623 49.6092C222.044 49.2075 222.594 49.1737 223.018 49.6174C223.361 49.977 223.443 50.4639 222.969 50.9155L220.689 53.0911L221.338 53.7715L223.682 51.5351C224.481 50.773 224.454 49.947 223.85 49.3144C223.37 48.8115 222.768 48.6639 222.235 48.8516L222.2 48.8152C222.437 48.298 222.363 47.7557 221.918 47.2892C221.477 46.8273 220.919 46.703 220.396 46.9243L220.354 46.881L220.923 46.3382L220.3 45.6851L216.805 49.0202ZM228.665 54.4512L227.946 53.698L228.26 53.3984C228.569 53.1031 228.859 53.0699 229.176 53.4021C229.311 53.5432 229.375 53.6737 229.415 53.7569L230.118 53.3908C230.063 53.2605 229.931 53.0082 229.668 52.7329C229.141 52.1799 228.355 52.0036 227.7 52.6289L227.295 53.0154L226.78 52.4761L226.234 52.9972L226.748 53.5365L223.799 56.3505L224.451 57.0331L227.4 54.2191L228.118 54.9723L228.665 54.4512ZM226.92 59.7621C227.86 60.7473 229.196 60.703 230.277 59.6717C231.364 58.6338 231.471 57.3015 230.531 56.3162C229.591 55.3309 228.255 55.3753 227.167 56.4131C226.087 57.4445 225.98 58.7768 226.92 59.7621ZM227.493 59.2193C226.879 58.5754 227.154 57.7387 227.825 57.0982C228.494 56.4598 229.35 56.2173 229.964 56.8613C230.575 57.5007 230.292 58.3439 229.623 58.9823C228.952 59.6228 228.103 59.8588 227.493 59.2193ZM229.147 61.9553L229.797 62.6357L231.931 60.599C232.388 60.1626 233.055 60.2005 233.515 60.6829C233.65 60.8239 233.777 61.0071 233.813 61.0769L234.464 60.4559C234.408 60.379 234.287 60.2382 234.204 60.1518C233.813 59.7422 233.247 59.6132 232.75 59.844L232.715 59.8076L233.27 59.2778L232.643 58.6202L229.147 61.9553ZM231.372 64.2864L232.021 64.9668L234.176 62.9106C234.647 62.4611 235.289 62.4784 235.659 62.8652C236.019 63.243 236.018 63.7435 235.638 64.1061L233.315 66.323L233.962 67.0011L236.19 64.8754C236.611 64.4737 237.161 64.4399 237.584 64.8836C237.928 65.2431 238.01 65.73 237.536 66.1817L235.256 68.3573L235.905 69.0377L238.249 66.8012C239.048 66.0391 239.021 65.2132 238.417 64.5806C237.937 64.0777 237.335 63.9301 236.802 64.1178L236.767 64.0814C237.004 63.5642 236.93 63.0218 236.484 62.5554C236.044 62.0934 235.486 61.9691 234.962 62.1904L234.921 62.1472L235.49 61.6044L234.867 60.9513L231.372 64.2864ZM237.546 70.9124C238.098 71.4904 238.702 71.5357 239.087 71.4157L239.114 71.443L238.636 71.899L239.27 72.5634L241.591 70.3487C242.608 69.3781 242.046 68.3839 241.516 67.8287C240.913 67.1961 240.102 66.8568 239.248 67.2372L239.712 68.0155C240.056 67.879 240.538 67.9059 240.974 68.3632C241.393 68.8024 241.378 69.247 240.983 69.6248L240.967 69.64C240.719 69.8767 240.48 69.6175 239.808 69.0589C239.099 68.4706 238.279 67.9575 237.485 68.7153C236.797 69.371 236.912 70.248 237.546 70.9124ZM238.234 70.5392C237.867 70.1546 237.775 69.712 238.112 69.3907C238.476 69.0433 238.914 69.2426 239.342 69.5863C239.582 69.7788 240.14 70.2457 240.332 70.2502L239.881 70.6801C239.467 71.0753 238.774 71.1058 238.234 70.5392ZM245.064 71.6379L244.38 70.9211L245.218 70.1221L244.568 69.4417L243.731 70.2408L243.242 69.7288L242.696 70.2499L243.185 70.7619L241.121 72.7312C240.484 73.3347 240.639 74.1125 241.163 74.6387C241.372 74.8527 241.551 74.9593 241.657 75.0107L242.102 74.3515C242.049 74.3147 241.948 74.25 241.844 74.1408C241.634 73.9201 241.518 73.6526 241.911 73.277L243.834 71.4422L244.518 72.159L245.064 71.6379Z" fill="#404041"/>
<rect x="207.166" y="65.7134" width="59.7817" height="19" rx="9.5" transform="rotate(34.5088 207.166 65.7134)" fill="#E6E6EA"/>
<path d="M206.839 80.1758C207.497 80.6283 208.098 80.5488 208.451 80.3523L208.482 80.3737L208.107 80.918L208.864 81.4383L210.682 78.7947C211.478 77.6361 210.725 76.7783 210.092 76.3435C209.372 75.8481 208.509 75.6822 207.75 76.2297L208.365 76.8963C208.673 76.6922 209.15 76.6197 209.671 76.9778C210.172 77.3217 210.248 77.7599 209.938 78.2109L209.926 78.229C209.731 78.5115 209.445 78.3068 208.672 77.8979C207.858 77.4675 206.95 77.1335 206.328 78.038C205.79 78.8207 206.082 79.6554 206.839 80.1758ZM207.435 79.6695C206.997 79.3684 206.816 78.954 207.08 78.5705C207.365 78.1558 207.835 78.2611 208.324 78.5097C208.599 78.6489 209.241 78.9913 209.429 78.9565L209.076 79.4697C208.752 79.9414 208.081 80.1132 207.435 79.6695ZM211.372 83.2808C212.313 83.9276 213.31 83.7813 213.929 83.0652L213.175 82.5467C212.78 82.9092 212.271 82.9333 211.828 82.6286C211.172 82.1778 211.126 81.3405 211.723 80.4723C212.309 79.6196 213.108 79.3788 213.756 79.8243C214.249 80.1629 214.335 80.6806 214.162 81.1108L214.916 81.6293C215.385 80.7689 215.097 79.7841 214.192 79.1623C213.07 78.3907 211.763 78.7367 210.928 79.9523C210.103 81.1523 210.216 82.4861 211.372 83.2808ZM215.367 86.0274C216.308 86.6742 217.306 86.528 217.924 85.8118L217.17 85.2933C216.775 85.6558 216.266 85.68 215.823 85.3753C215.167 84.9244 215.121 84.0871 215.718 83.2189C216.304 82.3662 217.103 82.1255 217.751 82.5709C218.244 82.9095 218.33 83.4272 218.157 83.8574L218.911 84.376C219.38 83.5155 219.092 82.5308 218.187 81.9089C217.065 81.1374 215.758 81.4834 214.923 82.6989C214.098 83.8989 214.211 85.2327 215.367 86.0274ZM219.401 88.8008C220.269 89.3977 221.178 89.3924 221.799 88.8656L221.157 88.2291C220.758 88.5087 220.29 88.4689 219.849 88.1659C219.186 87.7098 219.036 86.9731 219.542 86.1916L222.372 88.1375L222.561 87.8627C223.55 86.4243 223.076 85.2703 222.175 84.6502C221.065 83.8875 219.753 84.23 218.912 85.4533C218.062 86.6896 218.227 87.9936 219.401 88.8008ZM219.944 85.6129C220.364 85.0692 221.11 84.8609 221.74 85.2939C222.341 85.7073 222.428 86.424 222.012 87.0348L219.944 85.6129ZM226.93 89.4273C227.195 88.6974 226.989 87.9599 226.128 87.3683C225.229 86.75 224.265 86.786 223.78 87.4909C223.392 88.0559 223.476 88.667 224.108 89.346L224.68 89.957C225.005 90.3063 225.066 90.6003 224.895 90.8491C224.683 91.1575 224.188 91.1722 223.68 90.823C223.217 90.504 223.056 90.0996 223.231 89.6441L222.404 89.2431C222.049 90.0372 222.362 90.8364 223.256 91.4512C224.218 92.1123 225.235 92.0596 225.73 91.3391C226.117 90.7767 225.998 90.1835 225.383 89.5125L224.85 88.9326C224.484 88.5278 224.396 88.25 224.584 87.9822C224.792 87.6746 225.273 87.685 225.714 87.9879C226.196 88.3193 226.235 88.7395 226.142 89.0689L226.93 89.4273ZM230.697 92.0172C230.962 91.2873 230.756 90.5497 229.895 89.9581C228.996 89.3398 228.032 89.3758 227.547 90.0808C227.159 90.6458 227.243 91.2568 227.875 91.9358L228.447 92.5469C228.772 92.8961 228.833 93.1901 228.662 93.4389C228.45 93.7473 227.955 93.7621 227.447 93.4128C226.984 93.0939 226.823 92.6894 226.998 92.2339L226.171 91.833C225.816 92.627 226.129 93.4263 227.023 94.041C227.985 94.7021 229.002 94.6494 229.497 93.9289C229.884 93.3665 229.765 92.7733 229.15 92.1024L228.617 91.5224C228.251 91.1176 228.163 90.8398 228.351 90.5721C228.559 90.2645 229.04 90.2748 229.481 90.5777C229.963 90.9092 230.002 91.3294 229.909 91.6587L230.697 92.0172ZM235.622 92.0175L234.847 91.4847L231.198 96.7927L231.973 97.3255L235.622 92.0175ZM234.491 99.1751C235.613 99.9467 236.911 99.6293 237.758 98.3982C238.61 97.1594 238.441 95.8335 237.319 95.0619C236.196 94.2904 234.898 94.6077 234.046 95.8466C233.2 97.0777 233.369 98.4036 234.491 99.1751ZM234.941 98.5263C234.207 98.0221 234.305 97.1467 234.831 96.3821C235.355 95.6201 236.142 95.2074 236.876 95.7117C237.604 96.2124 237.501 97.0955 236.977 97.8575C236.451 98.6221 235.669 99.0271 234.941 98.5263ZM237.707 103.588C238.72 104.285 239.822 104.359 240.526 103.335L243.323 99.2663L242.564 98.7442L242.12 99.3896L242.063 99.3504C242.095 99.0097 242.13 98.3699 241.389 97.8602C240.427 97.1992 239.198 97.4721 238.326 98.7395C237.453 100.009 237.711 101.183 238.652 101.83C239.383 102.332 239.949 102.115 240.263 101.957L240.313 101.991L239.775 102.773C239.345 103.398 238.732 103.373 238.144 102.969C237.498 102.525 237.47 102.028 237.489 101.706L236.634 101.523C236.509 102.154 236.755 102.934 237.707 103.588ZM239.265 101.305C238.573 100.829 238.578 100.05 239.116 99.2673C239.642 98.5027 240.402 98.1515 241.102 98.6326C241.779 99.0977 241.762 99.8992 241.208 100.705C240.643 101.527 239.934 101.764 239.265 101.305ZM246.531 102.903C246.797 102.173 246.59 101.436 245.729 100.844C244.83 100.226 243.866 100.262 243.382 100.967C242.993 101.532 243.077 102.143 243.709 102.822L244.282 103.433C244.606 103.782 244.668 104.076 244.497 104.325C244.285 104.634 243.79 104.648 243.282 104.299C242.818 103.98 242.657 103.576 242.833 103.12L242.005 102.719C241.65 103.513 241.963 104.312 242.857 104.927C243.819 105.588 244.836 105.536 245.332 104.815C245.718 104.253 245.599 103.659 244.984 102.989L244.452 102.409C244.085 102.004 243.997 101.726 244.185 101.458C244.393 101.151 244.874 101.161 245.315 101.464C245.797 101.795 245.836 102.216 245.743 102.545L246.531 102.903Z" fill="#404041"/>
<rect x="198.667" y="101.658" width="78.1676" height="19" rx="9.5" transform="rotate(20.3935 198.667 101.658)" fill="#E6E6EA"/>
<path d="M201.929 115.694L202.849 116.036L205.801 111.986L205.848 112.004L205.437 116.999L206.354 117.34L210.276 111.926L209.315 111.568L206.402 115.811L206.346 115.79L206.862 110.656L205.913 110.303L202.951 114.524L202.895 114.503L203.457 109.39L202.499 109.034L201.929 115.694ZM208.625 118.184L209.507 118.512L211.19 113.983L210.309 113.656L208.625 118.184ZM211.014 113.122C211.317 113.235 211.659 113.094 211.766 112.805C211.874 112.516 211.709 112.183 211.405 112.07C211.099 111.956 210.759 112.102 210.652 112.391C210.544 112.68 210.707 113.009 211.014 113.122ZM212.408 116.53C212.676 115.808 213.272 115.559 213.885 115.787C214.484 116.01 214.7 116.537 214.456 117.194L213.425 119.968L214.306 120.296L215.377 117.416C215.793 116.295 215.395 115.48 214.47 115.135C213.789 114.882 213.226 115.032 212.838 115.435L212.782 115.414L213.056 114.677L212.21 114.363L210.527 118.891L211.408 119.219L212.408 116.53ZM216.985 121.392C217.81 121.699 218.322 121.316 218.588 121.086L218.662 121.113L218.4 121.818L219.261 122.138L221.506 116.1L220.624 115.773L219.79 118.016L219.737 117.996C219.682 117.657 219.572 117.032 218.729 116.719C217.635 116.312 216.509 116.877 215.963 118.345C215.419 119.81 215.885 120.983 216.985 121.392ZM217.459 120.713C216.672 120.42 216.519 119.575 216.857 118.667C217.191 117.768 217.843 117.242 218.639 117.538C219.409 117.824 219.588 118.605 219.236 119.552C218.882 120.504 218.219 120.996 217.459 120.713ZM222.226 123.344C223.503 123.819 224.685 123.195 225.205 121.794C225.729 120.385 225.242 119.14 223.966 118.666C222.689 118.191 221.508 118.816 220.984 120.225C220.463 121.625 220.95 122.87 222.226 123.344ZM222.505 122.606C221.67 122.295 221.552 121.423 221.875 120.553C222.197 119.686 222.86 119.094 223.695 119.404C224.523 119.712 224.638 120.594 224.316 121.46C223.993 122.33 223.333 122.914 222.505 122.606ZM226.033 124.656L226.929 124.989L229.065 122.061L229.132 122.086L228.837 125.698L229.736 126.032L232.749 121.998L231.838 121.66L229.726 124.642L229.681 124.626L230.028 120.987L229.117 120.648L226.99 123.642L226.946 123.626L227.295 119.971L226.384 119.632L226.033 124.656ZM236.402 124.614C236.481 123.842 236.1 123.177 235.122 122.813C234.099 122.433 233.173 122.703 232.875 123.505C232.636 124.147 232.866 124.719 233.645 125.224L234.349 125.677C234.749 125.936 234.88 126.206 234.775 126.49C234.645 126.84 234.168 126.975 233.59 126.76C233.063 126.564 232.808 126.211 232.868 125.727L231.967 125.54C231.817 126.396 232.315 127.095 233.332 127.473C234.426 127.88 235.4 127.581 235.704 126.761C235.942 126.121 235.682 125.575 234.922 125.074L234.264 124.642C233.81 124.339 233.657 124.091 233.774 123.785C233.9 123.436 234.37 123.329 234.871 123.515C235.419 123.719 235.56 124.117 235.55 124.459L236.402 124.614ZM239.969 129.941C240.957 130.308 241.837 130.081 242.311 129.419L241.533 128.958C241.215 129.326 240.75 129.402 240.249 129.216C239.494 128.935 239.169 128.257 239.47 127.376L242.689 128.573L242.805 128.26C243.414 126.624 242.673 125.62 241.647 125.239C240.385 124.77 239.196 125.422 238.679 126.813C238.156 128.22 238.634 129.444 239.969 129.941ZM239.718 126.717C239.993 126.087 240.666 125.703 241.382 125.969C242.066 126.224 242.326 126.897 242.071 127.591L239.718 126.717ZM248.178 127.734L247.231 127.382L244.792 130.442L244.745 130.424L244.893 126.513L243.947 126.161L243.909 131.301L244.852 131.652L248.178 127.734ZM248.912 133.265C249.9 133.632 250.779 133.406 251.254 132.743L250.475 132.283C250.157 132.651 249.693 132.727 249.192 132.54C248.437 132.26 248.112 131.582 248.413 130.7L251.632 131.897L251.748 131.585C252.356 129.949 251.615 128.945 250.59 128.564C249.328 128.095 248.139 128.747 247.622 130.138C247.099 131.544 247.577 132.769 248.912 133.265ZM248.661 130.041C248.935 129.412 249.608 129.028 250.325 129.294C251.009 129.548 251.268 130.222 251.014 130.916L248.661 130.041ZM253.582 131.837C253.85 131.115 254.446 130.866 255.059 131.094C255.658 131.317 255.875 131.844 255.63 132.501L254.599 135.275L255.48 135.603L256.551 132.723C256.968 131.603 256.569 130.787 255.644 130.443C254.963 130.189 254.4 130.339 254.012 130.742L253.956 130.721L254.23 129.984L253.384 129.67L251.701 134.198L252.582 134.526L253.582 131.837ZM260.294 132.238L259.365 131.893L259.768 130.808L258.887 130.481L258.484 131.565L257.82 131.319L257.557 132.026L258.22 132.273L257.226 134.947C256.918 135.768 257.398 136.4 258.099 136.644C258.38 136.745 258.588 136.762 258.706 136.762L258.817 135.975C258.754 135.964 258.635 135.95 258.494 135.898C258.208 135.792 257.986 135.602 258.176 135.092L259.102 132.601L260.031 132.946L260.294 132.238ZM264.012 134.879C264.091 134.107 263.711 133.442 262.732 133.078C261.709 132.698 260.783 132.967 260.485 133.769C260.246 134.412 260.476 134.984 261.255 135.488L261.959 135.941C262.36 136.201 262.491 136.471 262.385 136.754C262.255 137.105 261.779 137.24 261.201 137.025C260.673 136.829 260.418 136.476 260.478 135.991L259.578 135.804C259.427 136.661 259.925 137.36 260.943 137.738C262.036 138.144 263.01 137.845 263.315 137.026C263.552 136.386 263.292 135.84 262.532 135.339L261.874 134.907C261.42 134.603 261.267 134.355 261.384 134.05C261.511 133.701 261.98 133.593 262.481 133.78C263.029 133.984 263.17 134.382 263.16 134.724L264.012 134.879Z" fill="#404041"/>
<rect x="352.151" y="58.7856" width="78.1676" height="19" rx="9.5" transform="rotate(43.675 352.151 58.7856)" fill="#E6E6EA"/>
<path d="M356.448 70.601L353.294 73.9041C352.779 74.4388 352.255 74.4865 351.809 74.0608C351.397 73.6677 351.345 73.1483 351.712 72.7594L351.014 72.0926C350.263 72.8797 350.433 73.8858 351.222 74.6394C352.077 75.4561 353.136 75.4672 353.995 74.5731L357.148 71.27L356.448 70.601ZM359.416 75.7745L360.094 76.4218C360.786 75.6561 360.643 74.4848 359.696 73.5812C358.761 72.6885 357.534 72.539 356.768 73.342C356.149 73.9903 356.25 74.8133 356.805 75.7303L357.212 76.4061C357.585 77.0137 357.813 77.5446 357.417 77.9586C356.983 78.4135 356.262 78.299 355.663 77.7277C355.122 77.2108 354.902 76.5396 355.345 75.9932L354.64 75.3199C353.88 76.2073 354.035 77.3516 355.079 78.3486C356.174 79.3933 357.353 79.4194 358.107 78.63C358.908 77.7906 358.471 76.7507 358.018 76.0404L357.676 75.4877C357.401 75.0469 357.08 74.4137 357.508 73.97C357.885 73.5742 358.527 73.6261 359.101 74.1734C359.635 74.6838 359.776 75.2968 359.416 75.7745ZM363.861 82.1318C365.283 80.6418 365.254 78.8873 364.048 77.7361C362.838 76.5806 361.086 76.6345 359.663 78.1245C358.243 79.6122 358.268 81.3669 359.478 82.5224C360.684 83.6735 362.438 83.6218 363.861 82.1318ZM363.164 81.4672C362.081 82.6023 360.891 82.6454 360.091 81.8809C359.288 81.1141 359.278 79.9264 360.362 78.7913C361.446 77.6561 362.633 77.6109 363.436 78.3776C364.236 79.1421 364.248 80.332 363.164 81.4672ZM370.593 84.1071L369.897 83.4425L366.63 86.8638L366.587 86.8226L367.483 81.138L366.833 80.5168L362.385 85.1757L363.088 85.8468L366.35 82.43L366.393 82.4713L365.499 88.1491L366.145 88.766L370.593 84.1071ZM368.481 89.7785L367.826 89.153L367.56 89.386C366.919 89.9525 366.18 90.4346 365.849 90.658L366.332 91.1185C366.725 90.9247 367.618 90.4725 368.21 89.9939L368.481 89.7785ZM368.946 93.9452L369.626 94.5946L371.396 92.7406L371.437 92.7797C371.347 93.12 371.226 93.7479 371.863 94.356C372.709 95.164 373.971 95.0725 375.05 93.942C376.132 92.8091 376.145 91.5474 375.301 90.7416C374.653 90.1226 374.041 90.2947 373.714 90.3957L373.657 90.3414L374.198 89.775L373.533 89.1408L368.946 93.9452ZM372.532 91.5242C373.229 90.794 374.01 90.6135 374.604 91.1804C375.22 91.769 375.032 92.5854 374.37 93.2792C373.701 93.9798 372.872 94.2103 372.265 93.6304C371.68 93.0722 371.83 92.259 372.532 91.5242ZM374.023 96.2875L374.703 96.9369L376.74 94.8031C377.177 94.3459 377.844 94.3527 378.327 94.8131C378.468 94.9478 378.603 95.1249 378.642 95.1929L379.264 94.5423C379.204 94.4681 379.076 94.3331 378.99 94.2506C378.58 93.8596 378.008 93.7571 377.523 94.0109L377.486 93.9761L378.016 93.421L377.359 92.7933L374.023 96.2875ZM377.632 99.8689C378.617 100.809 379.95 100.703 380.981 99.6224C382.02 98.535 382.064 97.1992 381.079 96.2587C380.094 95.3182 378.762 95.4247 377.724 96.5121C376.692 97.5926 376.647 98.9284 377.632 99.8689ZM378.18 99.3001C377.536 98.6854 377.772 97.8368 378.413 97.1657C379.052 96.4969 379.895 96.2149 380.539 96.8296C381.178 97.4399 380.935 98.2953 380.297 98.9641C379.656 99.6352 378.819 99.9104 378.18 99.3001ZM384.927 100.019L384.21 99.3351L385.01 98.4979L384.329 97.8485L383.53 98.6856L383.018 98.1969L382.497 98.7429L383.009 99.2316L381.039 101.295C380.431 101.927 380.622 102.697 381.17 103.198C381.388 103.402 381.573 103.5 381.681 103.547L382.094 102.868C382.04 102.833 381.936 102.774 381.827 102.669C381.606 102.459 381.478 102.197 381.854 101.803L383.689 99.881L384.406 100.565L384.927 100.019ZM383.582 105.549C384.567 106.49 385.899 106.383 386.931 105.303C387.969 104.216 388.014 102.88 387.029 101.939C386.044 100.999 384.712 101.105 383.673 102.193C382.642 103.273 382.597 104.609 383.582 105.549ZM384.129 104.981C383.486 104.366 383.722 103.517 384.363 102.846C385.001 102.177 385.844 101.895 386.488 102.51C387.127 103.12 386.885 103.976 386.246 104.645C385.605 105.316 384.769 105.591 384.129 104.981ZM385.964 107.689L386.628 108.323L387.147 107.779L387.204 107.834C387.114 108.174 386.993 108.802 387.63 109.41C388.476 110.218 389.738 110.126 390.817 108.996C391.899 107.863 391.912 106.601 391.068 105.795C390.419 105.176 389.807 105.349 389.48 105.45L389.439 105.41L391.092 103.679L390.412 103.03L385.964 107.689ZM388.298 106.578C388.996 105.848 389.777 105.667 390.37 106.234C390.987 106.823 390.799 107.639 390.136 108.333C389.468 109.034 388.639 109.264 388.031 108.684C387.447 108.126 387.597 107.313 388.298 106.578ZM393.388 112.007C392.823 112.603 392.113 112.464 391.731 112.099C391.31 111.697 391.31 111.114 391.764 110.639L393.807 108.498L393.127 107.849L391.005 110.071C390.178 110.938 390.223 111.842 390.894 112.483C391.42 112.985 392.042 113.048 392.559 112.829L392.596 112.864L392.018 113.469L392.687 114.108L396.023 110.614L395.341 109.962L393.388 112.007ZM398.472 112.952L397.719 112.233L398.019 111.919C398.314 111.609 398.602 111.563 398.934 111.88C399.075 112.015 399.145 112.142 399.189 112.223L399.874 111.825C399.813 111.697 399.67 111.451 399.394 111.189C398.842 110.661 398.049 110.521 397.423 111.176L397.036 111.581L396.497 111.066L395.976 111.612L396.515 112.127L393.7 115.075L394.383 115.727L397.198 112.779L397.951 113.498L398.472 112.952Z" fill="#404041"/>
<rect x="192.344" y="187.037" width="76.7904" height="19" rx="9.5" transform="rotate(-18.1559 192.344 187.037)" fill="#E6E6EA"/>
<path d="M204.522 191.829C204.103 191.176 203.391 190.893 202.399 191.218C201.361 191.558 200.806 192.346 201.072 193.159C201.286 193.811 201.822 194.115 202.746 194.024L203.579 193.939C204.053 193.893 204.324 194.022 204.418 194.309C204.535 194.665 204.247 195.067 203.661 195.259C203.126 195.435 202.707 195.317 202.451 194.901L201.631 195.316C202.047 196.08 202.872 196.316 203.903 195.978C205.012 195.614 205.587 194.773 205.314 193.943C205.102 193.294 204.558 193.029 203.651 193.111L202.867 193.183C202.323 193.229 202.049 193.13 201.95 192.818C201.831 192.467 202.132 192.09 202.64 191.923C203.196 191.741 203.554 191.965 203.759 192.238L204.522 191.829ZM207.693 196.539C208.431 196.297 208.771 195.758 208.8 194.948L208.994 189.131L208.026 189.439L208.032 193.382L207.984 193.398L205.653 190.217L204.697 190.531L207.901 194.63L207.891 194.971C207.864 195.655 207.56 195.811 207.026 195.837L207.051 196.64C207.174 196.653 207.424 196.627 207.693 196.539ZM213.473 188.894C213.053 188.24 212.341 187.958 211.349 188.283C210.312 188.623 209.756 189.411 210.023 190.224C210.236 190.875 210.773 191.179 211.696 191.088L212.529 191.004C213.004 190.958 213.275 191.087 213.369 191.374C213.486 191.73 213.197 192.132 212.611 192.324C212.076 192.5 211.657 192.382 211.402 191.966L210.581 192.381C210.997 193.145 211.823 193.381 212.854 193.042C213.962 192.679 214.537 191.838 214.265 191.007C214.052 190.359 213.508 190.094 212.602 190.176L211.818 190.248C211.274 190.294 211 190.195 210.901 189.883C210.782 189.531 211.082 189.155 211.59 188.988C212.146 188.806 212.504 189.029 212.71 189.303L213.473 188.894ZM216.152 186.774L215.21 187.083L214.85 185.983L213.956 186.276L214.317 187.376L213.644 187.596L213.879 188.314L214.552 188.093L215.441 190.804C215.711 191.639 216.48 191.833 217.181 191.587C217.464 191.491 217.637 191.375 217.729 191.301L217.326 190.616C217.27 190.648 217.168 190.711 217.025 190.758C216.735 190.853 216.443 190.843 216.274 190.326L215.446 187.8L216.387 187.491L216.152 186.774ZM220.437 190.556C221.438 190.227 221.985 189.502 221.943 188.688L221.047 188.813C221.028 189.299 220.712 189.648 220.204 189.815C219.439 190.065 218.762 189.738 218.448 188.861L221.711 187.791L221.608 187.474C221.064 185.815 219.859 185.492 218.819 185.833C217.54 186.253 217.016 187.503 217.479 188.914C217.946 190.34 219.083 191 220.437 190.556ZM218.231 188.191C218.054 187.527 218.341 186.808 219.067 186.57C219.76 186.342 220.383 186.707 220.616 187.409L218.231 188.191ZM223.199 189.547L224.093 189.254L223.165 186.424C222.962 185.805 223.254 185.233 223.762 185.066C224.258 184.904 224.71 185.12 224.873 185.619L225.874 188.67L226.765 188.378L225.805 185.452C225.624 184.899 225.83 184.388 226.413 184.197C226.885 184.042 227.36 184.178 227.564 184.799L228.546 187.794L229.439 187.501L228.43 184.423C228.086 183.374 227.329 183.043 226.498 183.315C225.837 183.532 225.445 184.011 225.385 184.574L225.337 184.59C224.972 184.153 224.451 183.986 223.838 184.187C223.231 184.386 222.879 184.836 222.853 185.404L222.796 185.423L222.551 184.675L221.694 184.957L223.199 189.547ZM232.217 186.689C233.053 186.415 233.215 185.796 233.28 185.45L233.355 185.426L233.589 186.14L234.462 185.854L232.454 179.733L231.561 180.026L232.307 182.301L232.253 182.318C231.998 182.087 231.523 181.667 230.668 181.948C229.559 182.311 229.031 183.454 229.519 184.943C230.006 186.428 231.102 187.055 232.217 186.689ZM232.164 185.863C231.366 186.124 230.72 185.558 230.418 184.638C230.119 183.726 230.301 182.909 231.108 182.644C231.888 182.388 232.516 182.887 232.83 183.847C233.147 184.812 232.935 185.61 232.164 185.863ZM236.122 180.225L237.724 185.109C237.863 185.533 237.763 185.824 237.339 185.963L237.195 186.01L237.447 186.778C237.511 186.761 237.567 186.742 237.63 186.721C238.581 186.41 238.921 185.742 238.619 184.822L237.016 179.932L236.122 180.225ZM236.332 179.372C236.64 179.271 236.819 178.948 236.723 178.655C236.627 178.362 236.29 178.204 235.982 178.305C235.672 178.407 235.497 178.732 235.593 179.025C235.689 179.318 236.021 179.474 236.332 179.372ZM241.519 183.642C242.813 183.218 243.348 181.993 242.883 180.573C242.414 179.145 241.258 178.475 239.964 178.899C238.67 179.324 238.135 180.548 238.603 181.977C239.069 183.397 240.225 184.067 241.519 183.642ZM241.276 182.891C240.43 183.168 239.794 182.56 239.505 181.678C239.216 180.799 239.366 179.923 240.212 179.645C241.052 179.37 241.691 179.988 241.979 180.866C242.268 181.748 242.116 182.616 241.276 182.891ZM246.741 179.719C247 180.498 246.542 181.058 246.04 181.223C245.487 181.404 244.973 181.129 244.768 180.505L243.846 177.692L242.952 177.985L243.91 180.905C244.283 182.044 245.102 182.431 245.984 182.142C246.674 181.915 247.024 181.397 247.075 180.837L247.123 180.821L247.384 181.616L248.262 181.328L246.757 176.738L245.86 177.032L246.741 179.719ZM249.295 180.99L250.188 180.697L249.269 177.893C249.072 177.293 249.393 176.707 250.027 176.5C250.212 176.439 250.432 176.403 250.51 176.401L250.23 175.546C250.137 175.563 249.957 175.612 249.844 175.649C249.306 175.826 248.945 176.282 248.94 176.83L248.892 176.845L248.653 176.116L247.789 176.399L249.295 180.99ZM252.356 176.967C252.116 176.235 252.427 175.669 253.049 175.466C253.655 175.267 254.153 175.544 254.372 176.21L255.294 179.022L256.188 178.729L255.23 175.809C254.858 174.674 254.038 174.284 253.1 174.592C252.409 174.818 252.063 175.286 252.01 175.842L251.954 175.861L251.709 175.114L250.851 175.395L252.356 179.986L253.25 179.693L252.356 176.967ZM258.587 178.055C259.346 177.806 259.647 177.28 259.705 176.881L259.741 176.869L259.946 177.497L260.819 177.211L259.819 174.162C259.381 172.826 258.242 172.905 257.513 173.144C256.682 173.417 256.027 174.002 256.002 174.937L256.905 174.853C256.929 174.484 257.161 174.061 257.762 173.864C258.339 173.674 258.734 173.879 258.904 174.399L258.911 174.42C259.018 174.746 258.681 174.85 257.888 175.216C257.051 175.603 256.235 176.122 256.577 177.165C256.873 178.068 257.714 178.341 258.587 178.055ZM258.546 177.274C258.041 177.44 257.602 177.332 257.457 176.89C257.3 176.412 257.669 176.102 258.163 175.864C258.44 175.73 259.102 175.427 259.188 175.256L259.382 175.848C259.561 176.392 259.29 177.03 258.546 177.274ZM260.727 170.462L259.834 170.755L261.841 176.875L262.735 176.582L260.727 170.462Z" fill="#404041"/>
<rect x="189.11" y="231.542" width="83.3244" height="19" rx="9.5" transform="rotate(-31.3604 189.11 231.542)" fill="#E6E6EA"/>
<path d="M202.082 233.413C201.525 232.872 200.767 232.759 199.875 233.303C198.943 233.871 198.582 234.765 199.027 235.495C199.384 236.081 199.976 236.254 200.854 235.955L201.646 235.682C202.097 235.529 202.391 235.593 202.548 235.851C202.743 236.17 202.554 236.628 202.027 236.949C201.547 237.242 201.112 237.223 200.768 236.877L200.064 237.468C200.643 238.117 201.501 238.158 202.427 237.593C203.424 236.986 203.791 236.036 203.336 235.289C202.981 234.706 202.391 234.572 201.527 234.859L200.78 235.108C200.261 235.278 199.972 235.244 199.804 234.963C199.608 234.648 199.815 234.213 200.271 233.934C200.771 233.63 201.17 233.766 201.433 233.985L202.082 233.413ZM206.624 235.035C207.523 234.487 207.89 233.656 207.663 232.873L206.82 233.2C206.912 233.677 206.684 234.089 206.227 234.367C205.54 234.786 204.806 234.622 204.3 233.84L207.233 232.053L207.059 231.768C206.151 230.277 204.904 230.238 203.969 230.808C202.82 231.508 202.596 232.845 203.369 234.113C204.15 235.394 205.407 235.777 206.624 235.035ZM203.936 233.237C203.612 232.632 203.727 231.865 204.379 231.468C205.002 231.088 205.692 231.301 206.079 231.931L203.936 233.237ZM209.082 233.423L209.885 232.933L208.35 230.414C208.021 229.874 208.2 229.231 208.769 228.884C208.936 228.783 209.142 228.698 209.218 228.677L208.75 227.909C208.663 227.947 208.499 228.036 208.397 228.098C207.914 228.393 207.667 228.919 207.787 229.453L207.744 229.48L207.344 228.824L206.568 229.297L209.082 233.423ZM212.974 225.393L212.112 225.919L213.005 229.728L212.962 229.755L209.982 227.217L209.12 227.742L213.133 230.954L213.992 230.43L212.974 225.393ZM216.092 229.151L216.895 228.661L214.381 224.536L213.578 225.025L216.092 229.151ZM213.595 224.142C213.872 223.973 213.972 223.618 213.812 223.354C213.651 223.091 213.288 223.014 213.011 223.183C212.732 223.353 212.636 223.71 212.796 223.973C212.957 224.236 213.316 224.312 213.595 224.142ZM219.612 227.119C220.587 226.525 220.862 225.555 220.461 224.698L219.679 225.174C219.849 225.682 219.663 226.157 219.204 226.437C218.524 226.851 217.741 226.551 217.193 225.651C216.654 224.768 216.761 223.94 217.433 223.531C217.943 223.22 218.451 223.352 218.772 223.686L219.554 223.21C218.961 222.43 217.944 222.291 217.007 222.862C215.844 223.571 215.625 224.905 216.393 226.164C217.151 227.408 218.415 227.849 219.612 227.119ZM223.793 224.572C224.692 224.023 225.059 223.192 224.832 222.41L223.989 222.736C224.081 223.214 223.853 223.625 223.396 223.903C222.709 224.322 221.975 224.158 221.469 223.376L224.402 221.589L224.228 221.304C223.32 219.814 222.073 219.774 221.138 220.344C219.989 221.044 219.765 222.382 220.538 223.649C221.319 224.93 222.576 225.313 223.793 224.572ZM221.105 222.773C220.781 222.168 220.896 221.402 221.548 221.004C222.171 220.624 222.861 220.837 223.248 221.467L221.105 222.773ZM229.695 220.971C230.447 220.512 230.463 219.873 230.447 219.521L230.514 219.481L230.906 220.122L231.69 219.645L228.338 214.144L227.535 214.634L228.78 216.677L228.732 216.707C228.431 216.54 227.873 216.24 227.104 216.708C226.108 217.315 225.854 218.549 226.67 219.886C227.483 221.221 228.693 221.581 229.695 220.971ZM229.455 220.178C228.738 220.615 227.98 220.211 227.476 219.384C226.977 218.565 226.967 217.727 227.692 217.285C228.393 216.858 229.118 217.201 229.643 218.063C230.172 218.931 230.148 219.756 229.455 220.178ZM232.685 219.038L233.488 218.549L230.974 214.423L230.171 214.913L232.685 219.038ZM230.188 214.029C230.465 213.861 230.565 213.505 230.404 213.242C230.244 212.979 229.88 212.902 229.604 213.07C229.325 213.241 229.229 213.597 229.389 213.86C229.55 214.124 229.909 214.199 230.188 214.029ZM235.608 212.98C235.05 212.44 234.292 212.327 233.401 212.871C232.469 213.439 232.108 214.333 232.553 215.063C232.91 215.649 233.502 215.822 234.38 215.523L235.171 215.25C235.623 215.096 235.916 215.161 236.073 215.419C236.268 215.738 236.079 216.196 235.553 216.517C235.072 216.81 234.637 216.791 234.293 216.444L233.589 217.036C234.169 217.684 235.026 217.725 235.953 217.161C236.949 216.553 237.317 215.604 236.862 214.857C236.507 214.274 235.917 214.14 235.053 214.427L234.306 214.676C233.787 214.845 233.497 214.812 233.33 214.531C233.134 214.216 233.34 213.78 233.797 213.502C234.296 213.198 234.696 213.334 234.959 213.553L235.608 212.98ZM240.109 214.628C241.084 214.034 241.358 213.063 240.957 212.206L240.176 212.683C240.345 213.191 240.159 213.665 239.7 213.945C239.021 214.359 238.237 214.059 237.689 213.159C237.151 212.276 237.258 211.448 237.929 211.039C238.439 210.728 238.947 210.86 239.269 211.195L240.05 210.718C239.457 209.938 238.44 209.799 237.503 210.37C236.34 211.079 236.122 212.413 236.889 213.673C237.647 214.916 238.911 215.358 240.109 214.628ZM244.249 212.105C245.412 211.396 245.653 210.081 244.875 208.806C244.093 207.522 242.814 207.134 241.651 207.842C240.488 208.551 240.247 209.866 241.029 211.15C241.807 212.425 243.086 212.813 244.249 212.105ZM243.841 211.429C243.08 211.892 242.322 211.445 241.839 210.653C241.358 209.863 241.303 208.975 242.063 208.512C242.818 208.052 243.581 208.508 244.063 209.297C244.545 210.09 244.595 210.969 243.841 211.429ZM247.733 204.209L246.871 204.735L247.764 208.544L247.721 208.57L244.741 206.033L243.879 206.558L247.892 209.77L248.751 209.246L247.733 204.209ZM252.532 207.056C253.432 206.508 253.798 205.677 253.571 204.894L252.728 205.221C252.82 205.698 252.592 206.11 252.136 206.388C251.448 206.807 250.714 206.643 250.208 205.861L253.141 204.074L252.968 203.789C252.059 202.298 250.812 202.259 249.878 202.829C248.728 203.529 248.504 204.866 249.277 206.134C250.058 207.415 251.315 207.798 252.532 207.056ZM249.844 205.258C249.52 204.653 249.635 203.886 250.287 203.489C250.911 203.109 251.6 203.322 251.988 203.952L249.844 205.258ZM254.991 205.444L255.794 204.954L254.258 202.435C253.929 201.895 254.108 201.252 254.678 200.905C254.844 200.804 255.05 200.719 255.126 200.698L254.658 199.93C254.571 199.968 254.408 200.057 254.305 200.119C253.822 200.414 253.575 200.94 253.695 201.475L253.652 201.501L253.253 200.845L252.477 201.318L254.991 205.444ZM259.318 204.928C259.981 204.524 260.189 203.922 260.032 203.126L258.893 197.419L258.02 197.94L258.927 201.778L258.884 201.804L255.888 199.239L255.028 199.763L259.085 203.022L259.152 203.357C259.282 204.029 259.023 204.25 258.508 204.397L258.716 205.173C258.839 205.157 259.076 205.075 259.318 204.928Z" fill="#404041"/>
<rect opacity="0.8" x="186.898" y="274.022" width="72" height="19" rx="9.5" transform="rotate(-41.3042 186.898 274.022)" fill="#E6E6EA"/>
<path d="M202.563 276.362C203.421 275.609 203.523 274.606 202.98 273.831L202.293 274.435C202.548 274.906 202.446 275.405 202.042 275.76C201.445 276.286 200.621 276.126 199.926 275.334C199.243 274.557 199.205 273.723 199.796 273.204C200.245 272.81 200.768 272.852 201.143 273.126L201.83 272.522C201.111 271.856 200.086 271.894 199.261 272.619C198.238 273.518 198.253 274.869 199.227 275.978C200.188 277.071 201.509 277.288 202.563 276.362ZM206.205 273.162C207.228 272.263 207.238 270.927 206.252 269.805C205.26 268.675 203.933 268.514 202.91 269.413C201.887 270.312 201.877 271.648 202.869 272.777C203.855 273.9 205.182 274.061 206.205 273.162ZM205.686 272.567C205.017 273.155 204.193 272.845 203.58 272.148C202.97 271.454 202.763 270.589 203.432 270.001C204.095 269.418 204.926 269.735 205.537 270.429C206.149 271.126 206.35 271.984 205.686 272.567ZM207.301 268.251C206.792 267.672 206.856 267.03 207.347 266.598C207.827 266.177 208.394 266.236 208.857 266.763L210.81 268.986L211.517 268.365L209.488 266.057C208.7 265.159 207.793 265.123 207.051 265.775C206.505 266.254 206.37 266.82 206.541 267.353L206.496 267.392L205.977 266.802L205.299 267.398L208.488 271.027L209.194 270.406L207.301 268.251ZM210.836 262.532L210.092 263.186L209.328 262.316L208.622 262.937L209.386 263.807L208.854 264.274L209.352 264.841L209.884 264.374L211.767 266.517C212.344 267.178 213.127 267.055 213.675 266.553C213.897 266.353 214.011 266.178 214.066 266.075L213.426 265.603C213.387 265.654 213.318 265.752 213.205 265.852C212.976 266.053 212.704 266.158 212.345 265.75L210.59 263.753L211.335 263.099L210.836 262.532ZM215.8 264.744C216.4 264.216 216.471 263.615 216.366 263.225L216.395 263.2L216.831 263.696L217.521 263.09L215.403 260.68C214.475 259.624 213.459 260.144 212.882 260.651C212.225 261.228 211.853 262.024 212.198 262.893L212.995 262.461C212.873 262.112 212.919 261.631 213.394 261.214C213.85 260.814 214.294 260.847 214.655 261.258L214.669 261.274C214.896 261.532 214.627 261.76 214.041 262.408C213.424 263.093 212.878 263.891 213.603 264.715C214.229 265.429 215.11 265.35 215.8 264.744ZM215.456 264.042C215.056 264.393 214.61 264.466 214.303 264.117C213.971 263.739 214.188 263.309 214.549 262.896C214.751 262.664 215.241 262.125 215.253 261.934L215.664 262.402C216.042 262.832 216.044 263.525 215.456 264.042ZM218.329 262.38L219.035 261.759L215.846 258.13L215.14 258.751L218.329 262.38ZM215.005 257.877C215.248 257.664 215.285 257.296 215.082 257.064C214.878 256.833 214.507 256.82 214.263 257.034C214.018 257.25 213.985 257.618 214.188 257.849C214.392 258.081 214.759 258.093 215.005 257.877ZM218.666 258.266C218.157 257.687 218.221 257.044 218.712 256.613C219.192 256.191 219.758 256.25 220.221 256.777L222.175 259L222.881 258.38L220.853 256.071C220.064 255.173 219.157 255.137 218.415 255.789C217.87 256.269 217.735 256.835 217.906 257.367L217.861 257.407L217.342 256.816L216.664 257.412L219.852 261.041L220.559 260.42L218.666 258.266ZM225.324 256.363C226.116 255.667 226.333 254.786 225.975 254.054L225.2 254.521C225.374 254.975 225.22 255.42 224.819 255.773C224.214 256.305 223.463 256.269 222.829 255.587L225.409 253.32L225.189 253.069C224.037 251.758 222.802 251.934 221.98 252.657C220.969 253.545 220.979 254.901 221.959 256.016C222.949 257.143 224.254 257.303 225.324 256.363ZM222.367 255.055C221.942 254.515 221.923 253.741 222.498 253.236C223.046 252.755 223.762 252.846 224.252 253.399L222.367 255.055ZM227.468 254.35L228.174 253.729L226.227 251.513C225.81 251.038 225.875 250.374 226.376 249.933C226.522 249.805 226.71 249.685 226.782 249.652L226.188 248.976C226.109 249.029 225.963 249.145 225.873 249.223C225.448 249.597 225.296 250.158 225.506 250.664L225.468 250.697L224.962 250.121L224.279 250.721L227.468 254.35ZM227.971 245.333L227.264 245.954L231.516 250.793L232.222 250.172L227.971 245.333ZM234.633 248.184C235.656 247.285 235.666 245.949 234.68 244.826C233.688 243.697 232.361 243.535 231.338 244.434C230.315 245.333 230.305 246.67 231.297 247.799C232.283 248.921 233.61 249.083 234.633 248.184ZM234.114 247.589C233.445 248.176 232.621 247.867 232.008 247.17C231.398 246.475 231.191 245.61 231.86 245.023C232.523 244.44 233.354 244.756 233.965 245.451C234.577 246.148 234.778 247.006 234.114 247.589ZM239.7 246.148C240.623 245.336 240.965 244.286 240.145 243.353L236.886 239.644L236.194 240.252L236.711 240.84L236.659 240.886C236.336 240.771 235.724 240.58 235.049 241.174C234.172 241.944 234.135 243.203 235.151 244.359C236.168 245.516 237.369 245.554 238.227 244.8C238.893 244.215 238.82 243.613 238.744 243.269L238.789 243.23L239.416 243.943C239.917 244.513 239.743 245.101 239.206 245.572C238.618 246.089 238.129 245.995 237.821 245.897L237.434 246.681C238.016 246.957 238.832 246.91 239.7 246.148ZM237.868 244.077C237.237 244.632 236.483 244.436 235.856 243.722C235.243 243.025 235.089 242.202 235.727 241.641C236.344 241.1 237.117 241.312 237.763 242.047C238.421 242.796 238.477 243.542 237.868 244.077ZM241.198 237.425C240.556 236.989 239.79 237.008 239.006 237.697C238.186 238.418 237.984 239.361 238.549 240.004C239.002 240.519 239.615 240.587 240.428 240.14L241.16 239.735C241.579 239.506 241.879 239.519 242.078 239.746C242.325 240.027 242.218 240.51 241.755 240.917C241.332 241.289 240.9 241.346 240.502 241.063L239.91 241.767C240.593 242.306 241.445 242.199 242.26 241.482C243.137 240.712 243.335 239.713 242.758 239.056C242.307 238.544 241.703 238.513 240.902 238.945L240.209 239.32C239.727 239.576 239.436 239.593 239.222 239.345C238.975 239.068 239.103 238.604 239.505 238.251C239.944 237.865 240.361 237.93 240.658 238.101L241.198 237.425Z" fill="#404041"/>
<defs>
<linearGradient id="paint0_linear_18199_437" x1="458.567" y1="197.651" x2="446.325" y2="118.858" gradientUnits="userSpaceOnUse">
<stop stop-color="#FAED1E"/>
<stop offset="1" stop-color="#F15B2B"/>
</linearGradient>
<linearGradient id="paint1_linear_18199_437" x1="491.284" y1="192.567" x2="479.041" y2="113.774" gradientUnits="userSpaceOnUse">
<stop stop-color="#FAED1E"/>
<stop offset="1" stop-color="#F15B2B"/>
</linearGradient>
<linearGradient id="paint2_linear_18199_437" x1="474.564" y1="195.165" x2="462.322" y2="116.372" gradientUnits="userSpaceOnUse">
<stop stop-color="#FAED1E"/>
<stop offset="1" stop-color="#F15B2B"/>
</linearGradient>
<linearGradient id="paint3_linear_18199_437" x1="466.563" y1="196.408" x2="454.321" y2="117.615" gradientUnits="userSpaceOnUse">
<stop stop-color="#FAED1E"/>
<stop offset="1" stop-color="#F15B2B"/>
</linearGradient>
<linearGradient id="paint4_linear_18199_437" x1="458.562" y1="197.651" x2="446.32" y2="118.858" gradientUnits="userSpaceOnUse">
<stop stop-color="#FAED1E"/>
<stop offset="1" stop-color="#F15B2B"/>
</linearGradient>
<linearGradient id="paint5_linear_18199_437" x1="491.284" y1="192.567" x2="479.042" y2="113.774" gradientUnits="userSpaceOnUse">
<stop stop-color="#FAED1E"/>
<stop offset="1" stop-color="#F15B2B"/>
</linearGradient>
<linearGradient id="paint6_linear_18199_437" x1="474.562" y1="195.166" x2="462.32" y2="116.372" gradientUnits="userSpaceOnUse">
<stop stop-color="#FAED1E"/>
<stop offset="1" stop-color="#F15B2B"/>
</linearGradient>
<linearGradient id="paint7_linear_18199_437" x1="466.563" y1="196.408" x2="454.321" y2="117.615" gradientUnits="userSpaceOnUse">
<stop stop-color="#FAED1E"/>
<stop offset="1" stop-color="#F15B2B"/>
</linearGradient>
<linearGradient id="paint8_linear_18199_437" x1="456.855" y1="196.349" x2="445.244" y2="121.621" gradientUnits="userSpaceOnUse">
<stop stop-color="#FAED1E"/>
<stop offset="1" stop-color="#F15B2B"/>
</linearGradient>
<linearGradient id="paint9_linear_18199_437" x1="460.138" y1="197.962" x2="447.672" y2="117.729" gradientUnits="userSpaceOnUse">
<stop stop-color="#FAED1E"/>
<stop offset="1" stop-color="#F15B2B"/>
</linearGradient>
<linearGradient id="paint10_linear_18199_437" x1="465.483" y1="198.996" x2="452.265" y2="113.927" gradientUnits="userSpaceOnUse">
<stop stop-color="#FAED1E"/>
<stop offset="1" stop-color="#F15B2B"/>
</linearGradient>
<linearGradient id="paint11_linear_18199_437" x1="468.018" y1="195.705" x2="455.968" y2="118.15" gradientUnits="userSpaceOnUse">
<stop stop-color="#FAED1E"/>
<stop offset="1" stop-color="#F15B2B"/>
</linearGradient>
<linearGradient id="paint12_linear_18199_437" x1="472.522" y1="191.665" x2="461.818" y2="122.771" gradientUnits="userSpaceOnUse">
<stop stop-color="#FAED1E"/>
<stop offset="1" stop-color="#F15B2B"/>
</linearGradient>
<linearGradient id="paint13_linear_18199_437" x1="475.641" y1="192.199" x2="464.527" y2="120.664" gradientUnits="userSpaceOnUse">
<stop stop-color="#FAED1E"/>
<stop offset="1" stop-color="#F15B2B"/>
</linearGradient>
<clipPath id="clip0_18199_437">
<rect width="55.3186" height="64.7345" fill="white" transform="translate(445.195 119.779)"/>
</clipPath>
</defs>
</svg>
