<svg width="383" height="153" viewBox="0 0 383 153" fill="none" xmlns="http://www.w3.org/2000/svg">
<path d="M154.707 33.7071C155.098 33.3166 155.098 32.6834 154.707 32.2929L148.343 25.9289C147.953 25.5384 147.319 25.5384 146.929 25.9289C146.538 26.3195 146.538 26.9526 146.929 27.3431L152.586 33L146.929 38.6569C146.538 39.0474 146.538 39.6805 146.929 40.0711C147.319 40.4616 147.953 40.4616 148.343 40.0711L154.707 33.7071ZM23 34L154 34V32L23 32L23 34Z" fill="#505062"/>
<path d="M154.707 120.707C155.098 120.317 155.098 119.683 154.707 119.293L148.343 112.929C147.953 112.538 147.319 112.538 146.929 112.929C146.538 113.319 146.538 113.953 146.929 114.343L152.586 120L146.929 125.657C146.538 126.047 146.538 126.681 146.929 127.071C147.319 127.462 147.953 127.462 148.343 127.071L154.707 120.707ZM23 121L154 121V119L23 119L23 121Z" fill="#505062"/>
<rect y="1" width="133" height="66" rx="33" fill="#FDE8BE"/>
<rect x="157" width="226" height="66" rx="33" fill="#FBC55A"/>
<rect x="157" y="87" width="226" height="66" rx="33" fill="#FB9D5A"/>
<path d="M217.767 114.364H215.761L212.869 116.222V118.153L215.591 116.415H215.659V126H217.767V114.364ZM225.023 126.222C227.83 126.227 229.506 124.011 229.506 120.193C229.506 116.398 227.818 114.205 225.023 114.205C222.227 114.205 220.545 116.392 220.54 120.193C220.54 124.006 222.216 126.222 225.023 126.222ZM225.023 124.443C223.574 124.443 222.665 122.989 222.67 120.193C222.676 117.42 223.58 115.96 225.023 115.96C226.472 115.96 227.375 117.42 227.381 120.193C227.381 122.989 226.477 124.443 225.023 124.443ZM230.996 116.131H234.592V126H236.683V116.131H240.28V114.364H230.996V116.131ZM242.07 126H246.78C249.445 126 250.751 124.642 250.751 122.83C250.751 121.068 249.501 120.034 248.263 119.972V119.858C249.399 119.591 250.297 118.795 250.297 117.381C250.297 115.648 249.047 114.364 246.524 114.364H242.07V126ZM244.178 124.239V120.83H246.501C247.803 120.83 248.609 121.625 248.609 122.665C248.609 123.591 247.973 124.239 246.445 124.239H244.178ZM244.178 119.312V116.102H246.308C247.547 116.102 248.189 116.756 248.189 117.653C248.189 118.676 247.359 119.312 246.263 119.312H244.178Z" fill="#141414"/>
<circle cx="183.5" cy="112.5" r="1.5" fill="black"/>
<circle cx="187.5" cy="112.5" r="1.5" fill="black"/>
<circle cx="187.5" cy="117.5" r="1.5" fill="black"/>
<circle cx="187.5" cy="122.5" r="1.5" fill="black"/>
<circle cx="187.5" cy="127.5" r="1.5" fill="black"/>
<circle cx="195.5" cy="112.5" r="1.5" fill="black"/>
<circle cx="195.5" cy="117.5" r="1.5" fill="black"/>
<circle cx="195.5" cy="122.5" r="1.5" fill="black"/>
<circle cx="195.5" cy="127.5" r="1.5" fill="black"/>
<circle cx="183.5" cy="117.5" r="1.5" fill="black"/>
<circle cx="183.5" cy="122.5" r="1.5" fill="black"/>
<circle cx="183.5" cy="127.5" r="1.5" fill="black"/>
<circle cx="191.5" cy="112.5" r="1.5" fill="black"/>
<circle cx="191.5" cy="117.5" r="1.5" fill="black"/>
<circle cx="191.5" cy="122.5" r="1.5" fill="black"/>
<circle cx="191.5" cy="127.5" r="1.5" fill="black"/>
<circle cx="199.5" cy="112.5" r="1.5" fill="black"/>
<circle cx="199.5" cy="117.5" r="1.5" fill="black"/>
<circle cx="199.5" cy="122.5" r="1.5" fill="black"/>
<circle cx="199.5" cy="127.5" r="1.5" fill="black"/>
<path d="M215.148 30H222.381V28.233H217.256V18.3636H215.148V30ZM226.631 30.1761C228 30.1761 228.818 29.5341 229.193 28.8011H229.261V30H231.239V24.1591C231.239 21.8523 229.358 21.1591 227.693 21.1591C225.858 21.1591 224.449 21.9773 223.994 23.5682L225.915 23.8409C226.119 23.2443 226.699 22.733 227.705 22.733C228.659 22.733 229.182 23.2216 229.182 24.0795V24.1136C229.182 24.7045 228.562 24.733 227.023 24.8977C225.33 25.0795 223.71 25.5852 223.71 27.5511C223.71 29.267 224.966 30.1761 226.631 30.1761ZM227.165 28.6648C226.307 28.6648 225.693 28.2727 225.693 27.517C225.693 26.7273 226.381 26.3977 227.301 26.267C227.841 26.1932 228.92 26.0568 229.188 25.8409V26.8693C229.188 27.8409 228.403 28.6648 227.165 28.6648ZM233.307 30H235.364V24.8693C235.364 23.7614 236.199 22.9773 237.33 22.9773C237.676 22.9773 238.108 23.0398 238.284 23.0966V21.2045C238.097 21.1705 237.773 21.1477 237.545 21.1477C236.545 21.1477 235.71 21.7159 235.392 22.7273H235.301V21.2727H233.307V30ZM243.087 33.4545C245.445 33.4545 247.183 32.375 247.183 30.142V21.2727H245.155V22.7159H245.041C244.729 22.0852 244.075 21.1591 242.536 21.1591C240.518 21.1591 238.933 22.7386 238.933 25.608C238.933 28.4545 240.518 29.875 242.53 29.875C244.024 29.875 244.723 29.0739 245.041 28.4318H245.143V30.0852C245.143 31.3693 244.291 31.8977 243.121 31.8977C241.882 31.8977 241.337 31.3125 241.087 30.8011L239.234 31.25C239.609 32.4716 240.865 33.4545 243.087 33.4545ZM243.104 28.2614C241.746 28.2614 241.03 27.2045 241.03 25.5966C241.03 24.0114 241.734 22.8466 243.104 22.8466C244.428 22.8466 245.155 23.9432 245.155 25.5966C245.155 27.2614 244.416 28.2614 243.104 28.2614ZM253.155 30.1705C255.189 30.1705 256.587 29.1761 256.95 27.6591L255.03 27.4432C254.751 28.1818 254.07 28.5682 253.183 28.5682C251.854 28.5682 250.973 27.6932 250.956 26.1989H257.036V25.5682C257.036 22.5057 255.195 21.1591 253.047 21.1591C250.547 21.1591 248.916 22.9943 248.916 25.6875C248.916 28.4261 250.524 30.1705 253.155 30.1705ZM250.962 24.8125C251.024 23.6989 251.848 22.7614 253.075 22.7614C254.257 22.7614 255.053 23.625 255.064 24.8125H250.962ZM261.19 28.4091H259.372L259.332 29.0455C259.236 30.5852 258.832 32.1534 258.668 32.8409H260.054C260.327 32.125 260.957 30.4659 261.116 29.0341L261.19 28.4091ZM270.342 30.1534C271.842 30.1534 272.518 29.2614 272.842 28.625H272.967V30H274.99V18.3636H272.928V22.7159H272.842C272.53 22.0852 271.888 21.1591 270.348 21.1591C268.331 21.1591 266.746 22.7386 266.746 25.6477C266.746 28.5227 268.286 30.1534 270.342 30.1534ZM270.916 28.4659C269.558 28.4659 268.842 27.2727 268.842 25.6364C268.842 24.0114 269.547 22.8466 270.916 22.8466C272.24 22.8466 272.967 23.9432 272.967 25.6364C272.967 27.3295 272.229 28.4659 270.916 28.4659ZM277.182 30H279.239V21.2727H277.182V30ZM278.216 20.0341C278.869 20.0341 279.403 19.5341 279.403 18.9205C279.403 18.3011 278.869 17.8011 278.216 17.8011C277.557 17.8011 277.023 18.3011 277.023 18.9205C277.023 19.5341 277.557 20.0341 278.216 20.0341ZM288.251 23.5795C287.967 22.1023 286.786 21.1591 284.74 21.1591C282.638 21.1591 281.206 22.1932 281.212 23.8068C281.206 25.0795 281.99 25.9205 283.666 26.267L285.155 26.5795C285.956 26.7557 286.331 27.0795 286.331 27.5739C286.331 28.1705 285.683 28.6193 284.706 28.6193C283.763 28.6193 283.149 28.2102 282.973 27.4261L280.967 27.6193C281.223 29.2216 282.57 30.1705 284.712 30.1705C286.893 30.1705 288.433 29.0398 288.439 27.3864C288.433 26.142 287.632 25.3807 285.984 25.0227L284.496 24.7045C283.609 24.5057 283.257 24.1989 283.263 23.6932C283.257 23.1023 283.911 22.6932 284.768 22.6932C285.717 22.6932 286.217 23.2102 286.376 23.7841L288.251 23.5795ZM294.493 21.2727H292.771V19.1818H290.714V21.2727H289.476V22.8636H290.714V27.7159C290.703 29.358 291.896 30.1648 293.442 30.1193C294.027 30.1023 294.43 29.9886 294.652 29.9148L294.305 28.3068C294.192 28.3352 293.959 28.3864 293.703 28.3864C293.186 28.3864 292.771 28.2045 292.771 27.375V22.8636H294.493V21.2727ZM296.213 30H298.27V24.8693C298.27 23.7614 299.105 22.9773 300.236 22.9773C300.582 22.9773 301.014 23.0398 301.19 23.0966V21.2045C301.003 21.1705 300.679 21.1477 300.452 21.1477C299.452 21.1477 298.616 21.7159 298.298 22.7273H298.207V21.2727H296.213V30ZM302.557 30H304.614V21.2727H302.557V30ZM303.591 20.0341C304.244 20.0341 304.778 19.5341 304.778 18.9205C304.778 18.3011 304.244 17.8011 303.591 17.8011C302.932 17.8011 302.398 18.3011 302.398 18.9205C302.398 19.5341 302.932 20.0341 303.591 20.0341ZM306.82 30H308.842V28.625H308.962C309.286 29.2614 309.962 30.1534 311.462 30.1534C313.518 30.1534 315.058 28.5227 315.058 25.6477C315.058 22.7386 313.473 21.1591 311.456 21.1591C309.916 21.1591 309.274 22.0852 308.962 22.7159H308.876V18.3636H306.82V30ZM308.837 25.6364C308.837 23.9432 309.564 22.8466 310.888 22.8466C312.257 22.8466 312.962 24.0114 312.962 25.6364C312.962 27.2727 312.246 28.4659 310.888 28.4659C309.575 28.4659 308.837 27.3295 308.837 25.6364ZM322.369 26.3295C322.369 27.6591 321.42 28.3182 320.511 28.3182C319.523 28.3182 318.864 27.6193 318.864 26.5114V21.2727H316.807V26.8295C316.807 28.9261 318 30.1136 319.716 30.1136C321.023 30.1136 321.943 29.4261 322.341 28.4489H322.432V30H324.426V21.2727H322.369V26.3295ZM330.899 21.2727H329.178V19.1818H327.121V21.2727H325.882V22.8636H327.121V27.7159C327.109 29.358 328.303 30.1648 329.848 30.1193C330.433 30.1023 330.837 29.9886 331.058 29.9148L330.712 28.3068C330.598 28.3352 330.365 28.3864 330.109 28.3864C329.592 28.3864 329.178 28.2045 329.178 27.375V22.8636H330.899V21.2727ZM336.389 30.1705C338.423 30.1705 339.821 29.1761 340.185 27.6591L338.264 27.4432C337.986 28.1818 337.304 28.5682 336.418 28.5682C335.088 28.5682 334.207 27.6932 334.19 26.1989H340.27V25.5682C340.27 22.5057 338.429 21.1591 336.281 21.1591C333.781 21.1591 332.151 22.9943 332.151 25.6875C332.151 28.4261 333.759 30.1705 336.389 30.1705ZM334.196 24.8125C334.259 23.6989 335.082 22.7614 336.31 22.7614C337.491 22.7614 338.287 23.625 338.298 24.8125H334.196ZM345.249 30.1534C346.749 30.1534 347.425 29.2614 347.749 28.625H347.874V30H349.896V18.3636H347.834V22.7159H347.749C347.436 22.0852 346.794 21.1591 345.254 21.1591C343.237 21.1591 341.652 22.7386 341.652 25.6477C341.652 28.5227 343.192 30.1534 345.249 30.1534ZM345.822 28.4659C344.464 28.4659 343.749 27.2727 343.749 25.6364C343.749 24.0114 344.453 22.8466 345.822 22.8466C347.146 22.8466 347.874 23.9432 347.874 25.6364C347.874 27.3295 347.135 28.4659 345.822 28.4659ZM219.415 40.2727H217.693V38.1818H215.636V40.2727H214.398V41.8636H215.636V46.7159C215.625 48.358 216.818 49.1648 218.364 49.1193C218.949 49.1023 219.352 48.9886 219.574 48.9148L219.227 47.3068C219.114 47.3352 218.881 47.3864 218.625 47.3864C218.108 47.3864 217.693 47.2045 217.693 46.375V41.8636H219.415V40.2727ZM224.905 49.1705C226.939 49.1705 228.337 48.1761 228.7 46.6591L226.78 46.4432C226.501 47.1818 225.82 47.5682 224.933 47.5682C223.604 47.5682 222.723 46.6932 222.706 45.1989H228.786V44.5682C228.786 41.5057 226.945 40.1591 224.797 40.1591C222.297 40.1591 220.666 41.9943 220.666 44.6875C220.666 47.4261 222.274 49.1705 224.905 49.1705ZM222.712 43.8125C222.774 42.6989 223.598 41.7614 224.825 41.7614C226.007 41.7614 226.803 42.625 226.814 43.8125H222.712ZM233.037 49.1761C234.406 49.1761 235.224 48.5341 235.599 47.8011H235.668V49H237.645V43.1591C237.645 40.8523 235.764 40.1591 234.099 40.1591C232.264 40.1591 230.855 40.9773 230.401 42.5682L232.321 42.8409C232.526 42.2443 233.105 41.733 234.111 41.733C235.065 41.733 235.588 42.2216 235.588 43.0795V43.1136C235.588 43.7045 234.969 43.733 233.429 43.8977C231.736 44.0795 230.116 44.5852 230.116 46.5511C230.116 48.267 231.372 49.1761 233.037 49.1761ZM233.571 47.6648C232.713 47.6648 232.099 47.2727 232.099 46.517C232.099 45.7273 232.787 45.3977 233.707 45.267C234.247 45.1932 235.327 45.0568 235.594 44.8409V45.8693C235.594 46.8409 234.81 47.6648 233.571 47.6648ZM239.713 49H241.77V43.6932C241.77 42.6193 242.486 41.892 243.372 41.892C244.241 41.892 244.838 42.4773 244.838 43.375V49H246.855V43.5568C246.855 42.5739 247.44 41.892 248.435 41.892C249.264 41.892 249.923 42.3807 249.923 43.4602V49H251.986V43.142C251.986 41.1932 250.861 40.1591 249.259 40.1591C247.991 40.1591 247.026 40.7841 246.639 41.7557H246.548C246.213 40.767 245.366 40.1591 244.19 40.1591C243.02 40.1591 242.145 40.7614 241.781 41.7557H241.679V40.2727H239.713V49ZM260.97 42.5795C260.686 41.1023 259.504 40.1591 257.459 40.1591C255.357 40.1591 253.925 41.1932 253.93 42.8068C253.925 44.0795 254.709 44.9205 256.385 45.267L257.874 45.5795C258.675 45.7557 259.05 46.0795 259.05 46.5739C259.05 47.1705 258.402 47.6193 257.425 47.6193C256.482 47.6193 255.868 47.2102 255.692 46.4261L253.686 46.6193C253.942 48.2216 255.288 49.1705 257.43 49.1705C259.612 49.1705 261.152 48.0398 261.158 46.3864C261.152 45.142 260.351 44.3807 258.703 44.0227L257.214 43.7045C256.328 43.5057 255.976 43.1989 255.982 42.6932C255.976 42.1023 256.629 41.6932 257.487 41.6932C258.436 41.6932 258.936 42.2102 259.095 42.7841L260.97 42.5795Z" fill="#141414"/>
<path d="M191 42.1787C196.622 42.1787 201.179 37.6216 201.179 32.0001C201.179 26.3786 196.622 21.8215 191 21.8215C185.379 21.8215 180.822 26.3786 180.822 32.0001C180.822 37.6216 185.379 42.1787 191 42.1787Z" stroke="black" stroke-width="1.5" stroke-linecap="round" stroke-linejoin="round"/>
<g clip-path="url(#clip0_18484_738)">
<path d="M185.643 35.6325C186.678 35.6325 187.518 34.801 187.518 33.7754C187.518 32.7497 186.678 31.9182 185.643 31.9182C184.607 31.9182 183.768 32.7497 183.768 33.7754C183.768 34.801 184.607 35.6325 185.643 35.6325Z" stroke="black" stroke-width="1.5" stroke-linecap="round" stroke-linejoin="round"/>
<path d="M188.321 37.7549C188.062 37.2741 187.676 36.872 187.205 36.5916C186.733 36.3112 186.193 36.1631 185.643 36.1631C185.092 36.1631 184.553 36.3112 184.081 36.5916C183.609 36.872 183.223 37.2741 182.964 37.7549" stroke="black" stroke-width="1.5" stroke-linecap="round" stroke-linejoin="round"/>
<path d="M196.357 35.6325C197.392 35.6325 198.232 34.801 198.232 33.7754C198.232 32.7497 197.392 31.9182 196.357 31.9182C195.321 31.9182 194.482 32.7497 194.482 33.7754C194.482 34.801 195.321 35.6325 196.357 35.6325Z" stroke="black" stroke-width="1.5" stroke-linecap="round" stroke-linejoin="round"/>
<path d="M199.036 37.7549C198.777 37.2741 198.391 36.872 197.919 36.5916C197.447 36.3112 196.907 36.1631 196.357 36.1631C195.807 36.1631 195.267 36.3112 194.795 36.5916C194.323 36.872 193.937 37.2741 193.678 37.7549" stroke="black" stroke-width="1.5" stroke-linecap="round" stroke-linejoin="round"/>
<path d="M191.178 28.5578C192.214 28.5578 193.053 27.7263 193.053 26.7006C193.053 25.675 192.214 24.8435 191.178 24.8435C190.143 24.8435 189.303 25.675 189.303 26.7006C189.303 27.7263 190.143 28.5578 191.178 28.5578Z" stroke="black" stroke-width="1.5" stroke-linecap="round" stroke-linejoin="round"/>
<path d="M193.857 30.6802C193.598 30.1994 193.212 29.7973 192.74 29.5169C192.269 29.2365 191.729 29.0884 191.179 29.0884C190.628 29.0884 190.089 29.2365 189.617 29.5169C189.145 29.7973 188.759 30.1994 188.5 30.6802" stroke="black" stroke-width="1.5" stroke-linecap="round" stroke-linejoin="round"/>
</g>
<rect y="87" width="133" height="66" rx="33" fill="#FDD9BE"/>
<path d="M54.0341 126H62.0114V124.239H56.9432V124.159L58.9489 122.119C61.2102 119.949 61.8352 118.892 61.8352 117.58C61.8352 115.631 60.25 114.205 57.9091 114.205C55.6023 114.205 53.9659 115.636 53.9659 117.847H55.9716C55.9716 116.659 56.7216 115.915 57.8807 115.915C58.9886 115.915 59.8125 116.591 59.8125 117.688C59.8125 118.659 59.2216 119.352 58.0739 120.517L54.0341 124.477V126ZM68.2727 126.222C71.0795 126.227 72.7557 124.011 72.7557 120.193C72.7557 116.398 71.0682 114.205 68.2727 114.205C65.4773 114.205 63.7955 116.392 63.7898 120.193C63.7898 124.006 65.4659 126.222 68.2727 126.222ZM68.2727 124.443C66.8239 124.443 65.9148 122.989 65.9205 120.193C65.9261 117.42 66.8295 115.96 68.2727 115.96C69.7216 115.96 70.625 117.42 70.6307 120.193C70.6307 122.989 69.7273 124.443 68.2727 124.443ZM78.9446 126.222C81.7514 126.227 83.4276 124.011 83.4276 120.193C83.4276 116.398 81.7401 114.205 78.9446 114.205C76.1491 114.205 74.4673 116.392 74.4616 120.193C74.4616 124.006 76.1378 126.222 78.9446 126.222ZM78.9446 124.443C77.4957 124.443 76.5866 122.989 76.5923 120.193C76.598 117.42 77.5014 115.96 78.9446 115.96C80.3935 115.96 81.2969 117.42 81.3026 120.193C81.3026 122.989 80.3991 124.443 78.9446 124.443ZM85.429 114.364V126H87.4517V117.989H87.5597L90.7756 125.966H92.2869L95.5028 118.006H95.6108V126H97.6335V114.364H95.054L91.5994 122.795H91.4631L88.0085 114.364H85.429ZM99.929 126H104.639C107.304 126 108.611 124.642 108.611 122.83C108.611 121.068 107.361 120.034 106.122 119.972V119.858C107.259 119.591 108.156 118.795 108.156 117.381C108.156 115.648 106.906 114.364 104.384 114.364H99.929V126ZM102.037 124.239V120.83H104.361C105.662 120.83 106.469 121.625 106.469 122.665C106.469 123.591 105.832 124.239 104.304 124.239H102.037ZM102.037 119.312V116.102H104.168C105.406 116.102 106.048 116.756 106.048 117.653C106.048 118.676 105.219 119.312 104.122 119.312H102.037Z" fill="#141414"/>
<circle cx="28.5" cy="115.5" r="1.5" fill="black"/>
<circle cx="28.5" cy="124.5" r="1.5" fill="black"/>
<circle cx="38.5" cy="115.5" r="1.5" fill="black"/>
<circle cx="38.5" cy="124.5" r="1.5" fill="black"/>
<path d="M65.483 28.3636V35.7898C65.483 37.25 64.4659 38.2955 62.8693 38.2955C61.267 38.2955 60.2557 37.25 60.2557 35.7898V28.3636H58.1477V35.9659C58.1477 38.4659 60.0227 40.1761 62.8693 40.1761C65.7045 40.1761 67.5909 38.4659 67.5909 35.9659V28.3636H65.483ZM76.6889 33.5795C76.4048 32.1023 75.223 31.1591 73.1776 31.1591C71.0753 31.1591 69.6435 32.1932 69.6491 33.8068C69.6435 35.0795 70.4276 35.9205 72.1037 36.267L73.5923 36.5795C74.3935 36.7557 74.7685 37.0795 74.7685 37.5739C74.7685 38.1705 74.1207 38.6193 73.1435 38.6193C72.2003 38.6193 71.5866 38.2102 71.4105 37.4261L69.4048 37.6193C69.6605 39.2216 71.0071 40.1705 73.1491 40.1705C75.331 40.1705 76.8707 39.0398 76.8764 37.3864C76.8707 36.142 76.0696 35.3807 74.4219 35.0227L72.9332 34.7045C72.0469 34.5057 71.6946 34.1989 71.7003 33.6932C71.6946 33.1023 72.348 32.6932 73.206 32.6932C74.1548 32.6932 74.6548 33.2102 74.8139 33.7841L76.6889 33.5795ZM82.4361 40.1705C84.4702 40.1705 85.8679 39.1761 86.2315 37.6591L84.3111 37.4432C84.0327 38.1818 83.3509 38.5682 82.4645 38.5682C81.1349 38.5682 80.2543 37.6932 80.2372 36.1989H86.3168V35.5682C86.3168 32.5057 84.4759 31.1591 82.3281 31.1591C79.8281 31.1591 78.1974 32.9943 78.1974 35.6875C78.1974 38.4261 79.8054 40.1705 82.4361 40.1705ZM80.2429 34.8125C80.3054 33.6989 81.1293 32.7614 82.3565 32.7614C83.5384 32.7614 84.3338 33.625 84.3452 34.8125H80.2429ZM88.0568 40H90.1136V34.8693C90.1136 33.7614 90.9489 32.9773 92.0795 32.9773C92.4261 32.9773 92.858 33.0398 93.0341 33.0966V31.2045C92.8466 31.1705 92.5227 31.1477 92.2955 31.1477C91.2955 31.1477 90.4602 31.7159 90.142 32.7273H90.0511V31.2727H88.0568V40Z" fill="#141414"/>
<path d="M33.5 36.875C35.7954 36.875 37.6562 35.0142 37.6562 32.7188C37.6562 30.4233 35.7954 28.5625 33.5 28.5625C31.2046 28.5625 29.3438 30.4233 29.3438 32.7188C29.3438 35.0142 31.2046 36.875 33.5 36.875Z" stroke="black" stroke-width="1.5" stroke-linecap="round" stroke-linejoin="round"/>
<path d="M38.9729 41.5269C38.2559 40.8054 37.4032 40.2327 36.4639 39.8419C35.5247 39.4512 34.5174 39.25 33.5001 39.25C32.4828 39.25 31.4756 39.4512 30.5364 39.8419C29.5971 40.2327 28.7444 40.8054 28.0273 41.5269" stroke="black" stroke-width="1.5" stroke-linecap="round" stroke-linejoin="round"/>
<path d="M33.5 43.4062C38.4188 43.4062 42.4062 39.4188 42.4062 34.5C42.4062 29.5812 38.4188 25.5938 33.5 25.5938C28.5812 25.5938 24.5938 29.5812 24.5938 34.5C24.5938 39.4188 28.5812 43.4062 33.5 43.4062Z" stroke="black" stroke-width="1.5" stroke-linecap="round" stroke-linejoin="round"/>
<defs>
<clipPath id="clip0_18484_738">
<rect width="17.1429" height="16" fill="white" transform="translate(182.428 23.4285)"/>
</clipPath>
</defs>
</svg>
