<svg width="1018" height="557" viewBox="0 0 1018 557" fill="none" xmlns="http://www.w3.org/2000/svg">
<rect width="1018" height="557" fill="#F5F3F8"/>
<path d="M36.7727 337.614H40.4318V348H41.8409V337.614H45.5V336.364H36.7727V337.614ZM46.4266 348H47.7676V342.477C47.7676 341.295 48.6994 340.432 49.9721 340.432C50.3301 340.432 50.6994 340.5 50.7903 340.523V339.159C50.6369 339.148 50.2846 339.136 50.0857 339.136C49.0403 339.136 48.1312 339.727 47.813 340.591H47.7221V339.273H46.4266V348ZM54.788 348.205C56.3107 348.205 57.1061 347.386 57.3789 346.818H57.447V348H58.788V342.25C58.788 339.477 56.6743 339.159 55.5607 339.159C54.2425 339.159 52.7425 339.614 52.0607 341.205L53.3334 341.659C53.6289 341.023 54.3277 340.341 55.6061 340.341C56.8391 340.341 57.447 340.994 57.447 342.114V342.159C57.447 342.807 56.788 342.75 55.197 342.955C53.5777 343.165 51.8107 343.523 51.8107 345.523C51.8107 347.227 53.1289 348.205 54.788 348.205ZM54.9925 347C53.9243 347 53.1516 346.523 53.1516 345.591C53.1516 344.568 54.0834 344.25 55.1289 344.114C55.697 344.045 57.2198 343.886 57.447 343.614V344.841C57.447 345.932 56.5834 347 54.9925 347ZM64.3709 348.182C66.0527 348.182 66.6209 347.136 66.9163 346.659H67.0754V348H68.3709V336.364H67.0299V340.659H66.9163C66.6209 340.205 66.0981 339.159 64.3936 339.159C62.189 339.159 60.6663 340.909 60.6663 343.659C60.6663 346.432 62.189 348.182 64.3709 348.182ZM64.5527 346.977C62.8709 346.977 62.0072 345.5 62.0072 343.636C62.0072 341.795 62.8481 340.364 64.5527 340.364C66.189 340.364 67.0527 341.682 67.0527 343.636C67.0527 345.614 66.1663 346.977 64.5527 346.977ZM70.8529 348H72.1938V339.273H70.8529V348ZM71.5347 337.818C72.0574 337.818 72.4893 337.409 72.4893 336.909C72.4893 336.409 72.0574 336 71.5347 336C71.012 336 70.5802 336.409 70.5802 336.909C70.5802 337.409 71.012 337.818 71.5347 337.818ZM78.2852 339.273H76.4216V337.182H75.0807V339.273H73.7625V340.409H75.0807V345.864C75.0807 347.386 76.308 348.114 77.4443 348.114C77.9443 348.114 78.2625 348.023 78.4443 347.955L78.1716 346.75C78.058 346.773 77.8761 346.818 77.5807 346.818C76.9898 346.818 76.4216 346.636 76.4216 345.5V340.409H78.2852V339.273ZM80.1423 348H81.4832V339.273H80.1423V348ZM80.8241 337.818C81.3468 337.818 81.7786 337.409 81.7786 336.909C81.7786 336.409 81.3468 336 80.8241 336C80.3014 336 79.8695 336.409 79.8695 336.909C79.8695 337.409 80.3014 337.818 80.8241 337.818ZM87.3246 348.182C89.6882 348.182 91.2791 346.386 91.2791 343.682C91.2791 340.955 89.6882 339.159 87.3246 339.159C84.961 339.159 83.3701 340.955 83.3701 343.682C83.3701 346.386 84.961 348.182 87.3246 348.182ZM87.3246 346.977C85.5291 346.977 84.711 345.432 84.711 343.682C84.711 341.932 85.5291 340.364 87.3246 340.364C89.1201 340.364 89.9382 341.932 89.9382 343.682C89.9382 345.432 89.1201 346.977 87.3246 346.977ZM94.5069 342.75C94.5069 341.227 95.4501 340.364 96.7342 340.364C97.9785 340.364 98.7342 341.176 98.7342 342.545V348H100.075V342.455C100.075 340.227 98.8876 339.159 97.1206 339.159C95.8024 339.159 94.9842 339.75 94.5751 340.636H94.4615V339.273H93.166V348H94.5069V342.75ZM104.934 348.205C106.456 348.205 107.252 347.386 107.524 346.818H107.593V348H108.934V342.25C108.934 339.477 106.82 339.159 105.706 339.159C104.388 339.159 102.888 339.614 102.206 341.205L103.479 341.659C103.774 341.023 104.473 340.341 105.752 340.341C106.985 340.341 107.593 340.994 107.593 342.114V342.159C107.593 342.807 106.934 342.75 105.343 342.955C103.723 343.165 101.956 343.523 101.956 345.523C101.956 347.227 103.274 348.205 104.934 348.205ZM105.138 347C104.07 347 103.297 346.523 103.297 345.591C103.297 344.568 104.229 344.25 105.274 344.114C105.843 344.045 107.365 343.886 107.593 343.614V344.841C107.593 345.932 106.729 347 105.138 347ZM112.562 336.364H111.221V348H112.562V336.364ZM120.539 336.364H119.198V348H120.539V336.364ZM126.38 348.182C128.744 348.182 130.335 346.386 130.335 343.682C130.335 340.955 128.744 339.159 126.38 339.159C124.017 339.159 122.426 340.955 122.426 343.682C122.426 346.386 124.017 348.182 126.38 348.182ZM126.38 346.977C124.585 346.977 123.767 345.432 123.767 343.682C123.767 341.932 124.585 340.364 126.38 340.364C128.176 340.364 128.994 341.932 128.994 343.682C128.994 345.432 128.176 346.977 126.38 346.977ZM135.744 351.455C137.835 351.455 139.517 350.5 139.517 348.25V339.273H138.222V340.659H138.085C137.79 340.205 137.244 339.159 135.54 339.159C133.335 339.159 131.813 340.909 131.813 343.591C131.813 346.318 133.403 347.864 135.517 347.864C137.222 347.864 137.767 346.864 138.063 346.386H138.176V348.159C138.176 349.614 137.153 350.273 135.744 350.273C134.159 350.273 133.602 349.438 133.244 348.955L132.176 349.705C132.722 350.619 133.796 351.455 135.744 351.455ZM135.699 346.659C134.017 346.659 133.153 345.386 133.153 343.568C133.153 341.795 133.994 340.364 135.699 340.364C137.335 340.364 138.199 341.682 138.199 343.568C138.199 345.5 137.313 346.659 135.699 346.659ZM145.334 351.455C147.425 351.455 149.107 350.5 149.107 348.25V339.273H147.812V340.659H147.675C147.38 340.205 146.834 339.159 145.13 339.159C142.925 339.159 141.403 340.909 141.403 343.591C141.403 346.318 142.993 347.864 145.107 347.864C146.812 347.864 147.357 346.864 147.653 346.386H147.766V348.159C147.766 349.614 146.743 350.273 145.334 350.273C143.749 350.273 143.192 349.438 142.834 348.955L141.766 349.705C142.312 350.619 143.386 351.455 145.334 351.455ZM145.289 346.659C143.607 346.659 142.743 345.386 142.743 343.568C142.743 341.795 143.584 340.364 145.289 340.364C146.925 340.364 147.789 341.682 147.789 343.568C147.789 345.5 146.903 346.659 145.289 346.659ZM151.402 348H152.743V339.273H151.402V348ZM152.083 337.818C152.606 337.818 153.038 337.409 153.038 336.909C153.038 336.409 152.606 336 152.083 336C151.561 336 151.129 336.409 151.129 336.909C151.129 337.409 151.561 337.818 152.083 337.818ZM156.379 342.75C156.379 341.227 157.323 340.364 158.607 340.364C159.851 340.364 160.607 341.176 160.607 342.545V348H161.948V342.455C161.948 340.227 160.76 339.159 158.993 339.159C157.675 339.159 156.857 339.75 156.448 340.636H156.334V339.273H155.039V348H156.379V342.75ZM167.761 351.455C169.852 351.455 171.533 350.5 171.533 348.25V339.273H170.238V340.659H170.102C169.806 340.205 169.261 339.159 167.556 339.159C165.352 339.159 163.829 340.909 163.829 343.591C163.829 346.318 165.42 347.864 167.533 347.864C169.238 347.864 169.783 346.864 170.079 346.386H170.192V348.159C170.192 349.614 169.17 350.273 167.761 350.273C166.175 350.273 165.619 349.438 165.261 348.955L164.192 349.705C164.738 350.619 165.812 351.455 167.761 351.455ZM167.715 346.659C166.033 346.659 165.17 345.386 165.17 343.568C165.17 341.795 166.011 340.364 167.715 340.364C169.352 340.364 170.215 341.682 170.215 343.568C170.215 345.5 169.329 346.659 167.715 346.659ZM184.35 341.227C183.929 339.989 182.986 339.159 181.259 339.159C179.418 339.159 178.054 340.205 178.054 341.682C178.054 342.886 178.77 343.693 180.372 344.068L181.827 344.409C182.708 344.614 183.122 345.034 183.122 345.636C183.122 346.386 182.327 347 181.077 347C179.98 347 179.293 346.528 179.054 345.591L177.782 345.909C178.094 347.392 179.316 348.182 181.1 348.182C183.128 348.182 184.509 347.074 184.509 345.568C184.509 344.352 183.747 343.585 182.191 343.205L180.895 342.886C179.861 342.631 179.395 342.284 179.395 341.614C179.395 340.864 180.191 340.318 181.259 340.318C182.429 340.318 182.912 340.966 183.145 341.568L184.35 341.227ZM189.913 348.182C192.276 348.182 193.867 346.386 193.867 343.682C193.867 340.955 192.276 339.159 189.913 339.159C187.549 339.159 185.958 340.955 185.958 343.682C185.958 346.386 187.549 348.182 189.913 348.182ZM189.913 346.977C188.117 346.977 187.299 345.432 187.299 343.682C187.299 341.932 188.117 340.364 189.913 340.364C191.708 340.364 192.526 341.932 192.526 343.682C192.526 345.432 191.708 346.977 189.913 346.977ZM197.095 336.364H195.754V348H197.095V336.364ZM204.891 344.432C204.891 346.068 203.641 346.818 202.641 346.818C201.527 346.818 200.732 346 200.732 344.727V339.273H199.391V344.818C199.391 347.045 200.573 348.114 202.209 348.114C203.527 348.114 204.391 347.409 204.8 346.523H204.891V348H206.232V339.273H204.891V344.432ZM212.323 339.273H210.46V337.182H209.119V339.273H207.801V340.409H209.119V345.864C209.119 347.386 210.346 348.114 211.482 348.114C211.982 348.114 212.301 348.023 212.482 347.955L212.21 346.75C212.096 346.773 211.914 346.818 211.619 346.818C211.028 346.818 210.46 346.636 210.46 345.5V340.409H212.323V339.273ZM214.18 348H215.521V339.273H214.18V348ZM214.862 337.818C215.385 337.818 215.817 337.409 215.817 336.909C215.817 336.409 215.385 336 214.862 336C214.339 336 213.908 336.409 213.908 336.909C213.908 337.409 214.339 337.818 214.862 337.818ZM221.363 348.182C223.726 348.182 225.317 346.386 225.317 343.682C225.317 340.955 223.726 339.159 221.363 339.159C218.999 339.159 217.408 340.955 217.408 343.682C217.408 346.386 218.999 348.182 221.363 348.182ZM221.363 346.977C219.567 346.977 218.749 345.432 218.749 343.682C218.749 341.932 219.567 340.364 221.363 340.364C223.158 340.364 223.976 341.932 223.976 343.682C223.976 345.432 223.158 346.977 221.363 346.977ZM228.545 342.75C228.545 341.227 229.488 340.364 230.772 340.364C232.017 340.364 232.772 341.176 232.772 342.545V348H234.113V342.455C234.113 340.227 232.926 339.159 231.159 339.159C229.841 339.159 229.022 339.75 228.613 340.636H228.5V339.273H227.204V348H228.545V342.75ZM242.585 341.227C242.165 339.989 241.222 339.159 239.494 339.159C237.654 339.159 236.29 340.205 236.29 341.682C236.29 342.886 237.006 343.693 238.608 344.068L240.063 344.409C240.943 344.614 241.358 345.034 241.358 345.636C241.358 346.386 240.563 347 239.313 347C238.216 347 237.529 346.528 237.29 345.591L236.017 345.909C236.33 347.392 237.551 348.182 239.335 348.182C241.364 348.182 242.744 347.074 242.744 345.568C242.744 344.352 241.983 343.585 240.426 343.205L239.131 342.886C238.097 342.631 237.631 342.284 237.631 341.614C237.631 340.864 238.426 340.318 239.494 340.318C240.665 340.318 241.148 340.966 241.381 341.568L242.585 341.227ZM245.58 348.091C246.143 348.091 246.603 347.631 246.603 347.068C246.603 346.506 246.143 346.045 245.58 346.045C245.018 346.045 244.557 346.506 244.557 347.068C244.557 347.631 245.018 348.091 245.58 348.091ZM249.826 348.091C250.389 348.091 250.849 347.631 250.849 347.068C250.849 346.506 250.389 346.045 249.826 346.045C249.264 346.045 248.804 346.506 248.804 347.068C248.804 347.631 249.264 348.091 249.826 348.091ZM254.073 348.091C254.635 348.091 255.095 347.631 255.095 347.068C255.095 346.506 254.635 346.045 254.073 346.045C253.51 346.045 253.05 346.506 253.05 347.068C253.05 347.631 253.51 348.091 254.073 348.091Z" fill="#393946"/>
<path d="M68.7727 434C68.3409 431.614 66.4318 430.205 64.0909 430.205C61.1136 430.205 58.9545 432.5 58.9545 436.182C58.9545 439.864 61.1136 442.159 64.0909 442.159C66.4318 442.159 68.3409 440.75 68.7727 438.364H67.3636C67.0227 439.977 65.6364 440.841 64.0909 440.841C61.9773 440.841 60.3182 439.205 60.3182 436.182C60.3182 433.159 61.9773 431.523 64.0909 431.523C65.6364 431.523 67.0227 432.386 67.3636 434H68.7727ZM74.2534 442.182C76.617 442.182 78.2079 440.386 78.2079 437.682C78.2079 434.955 76.617 433.159 74.2534 433.159C71.8897 433.159 70.2988 434.955 70.2988 437.682C70.2988 440.386 71.8897 442.182 74.2534 442.182ZM74.2534 440.977C72.4579 440.977 71.6397 439.432 71.6397 437.682C71.6397 435.932 72.4579 434.364 74.2534 434.364C76.0488 434.364 76.867 435.932 76.867 437.682C76.867 439.432 76.0488 440.977 74.2534 440.977ZM81.4357 436.75C81.4357 435.227 82.3789 434.364 83.663 434.364C84.9073 434.364 85.663 435.176 85.663 436.545V442H87.0039V436.455C87.0039 434.227 85.8164 433.159 84.0493 433.159C82.7311 433.159 81.913 433.75 81.5039 434.636H81.3902V433.273H80.0948V442H81.4357V436.75ZM93.1805 433.273H91.226V432.386C91.226 431.523 91.5896 431.068 92.476 431.068C92.8623 431.068 93.0896 431.159 93.226 431.205L93.6123 430.045C93.4078 429.955 92.9987 429.818 92.3396 429.818C91.0896 429.818 89.8851 430.568 89.8851 432.068V433.273H88.476V434.409H89.8851V442H91.226V434.409H93.1805V433.273ZM98.0859 442.182C100.449 442.182 102.04 440.386 102.04 437.682C102.04 434.955 100.449 433.159 98.0859 433.159C95.7222 433.159 94.1313 434.955 94.1313 437.682C94.1313 440.386 95.7222 442.182 98.0859 442.182ZM98.0859 440.977C96.2904 440.977 95.4722 439.432 95.4722 437.682C95.4722 435.932 96.2904 434.364 98.0859 434.364C99.8813 434.364 100.699 435.932 100.699 437.682C100.699 439.432 99.8813 440.977 98.0859 440.977ZM103.927 442H105.268V436.477C105.268 435.295 106.2 434.432 107.473 434.432C107.831 434.432 108.2 434.5 108.291 434.523V433.159C108.138 433.148 107.785 433.136 107.586 433.136C106.541 433.136 105.632 433.727 105.314 434.591H105.223V433.273H103.927V442ZM109.72 442H111.061V436.545C111.061 435.267 111.993 434.364 113.039 434.364C114.056 434.364 114.766 435.028 114.766 436.023V442H116.129V436.318C116.129 435.193 116.834 434.364 118.061 434.364C119.016 434.364 119.834 434.869 119.834 436.159V442H121.175V436.159C121.175 434.108 120.073 433.159 118.516 433.159C117.266 433.159 116.351 433.733 115.902 434.636H115.811C115.379 433.705 114.618 433.159 113.47 433.159C112.334 433.159 111.493 433.705 111.129 434.636H111.016V433.273H109.72V442ZM131.602 433.273H129.738V431.182H128.398V433.273H127.079V434.409H128.398V439.864C128.398 441.386 129.625 442.114 130.761 442.114C131.261 442.114 131.579 442.023 131.761 441.955L131.488 440.75C131.375 440.773 131.193 440.818 130.898 440.818C130.307 440.818 129.738 440.636 129.738 439.5V434.409H131.602V433.273ZM136.911 442.182C139.274 442.182 140.865 440.386 140.865 437.682C140.865 434.955 139.274 433.159 136.911 433.159C134.547 433.159 132.956 434.955 132.956 437.682C132.956 440.386 134.547 442.182 136.911 442.182ZM136.911 440.977C135.115 440.977 134.297 439.432 134.297 437.682C134.297 435.932 135.115 434.364 136.911 434.364C138.706 434.364 139.524 435.932 139.524 437.682C139.524 439.432 138.706 440.977 136.911 440.977ZM147.092 445.273H148.433V440.659H148.547C148.842 441.136 149.41 442.182 151.092 442.182C153.274 442.182 154.797 440.432 154.797 437.659C154.797 434.909 153.274 433.159 151.07 433.159C149.365 433.159 148.842 434.205 148.547 434.659H148.388V433.273H147.092V445.273ZM148.41 437.636C148.41 435.682 149.274 434.364 150.91 434.364C152.615 434.364 153.456 435.795 153.456 437.636C153.456 439.5 152.592 440.977 150.91 440.977C149.297 440.977 148.41 439.614 148.41 437.636ZM156.682 442H158.023V436.477C158.023 435.295 158.955 434.432 160.228 434.432C160.586 434.432 160.955 434.5 161.046 434.523V433.159C160.893 433.148 160.54 433.136 160.341 433.136C159.296 433.136 158.387 433.727 158.069 434.591H157.978V433.273H156.682V442ZM165.869 442.182C167.642 442.182 168.937 441.295 169.346 439.977L168.051 439.614C167.71 440.523 166.92 440.977 165.869 440.977C164.295 440.977 163.21 439.96 163.147 438.091H169.482V437.523C169.482 434.273 167.551 433.159 165.732 433.159C163.369 433.159 161.801 435.023 161.801 437.705C161.801 440.386 163.346 442.182 165.869 442.182ZM163.147 436.932C163.238 435.574 164.198 434.364 165.732 434.364C167.187 434.364 168.119 435.455 168.119 436.932H163.147ZM174.658 442.182C176.34 442.182 176.908 441.136 177.203 440.659H177.362V442H178.658V430.364H177.317V434.659H177.203C176.908 434.205 176.385 433.159 174.68 433.159C172.476 433.159 170.953 434.909 170.953 437.659C170.953 440.432 172.476 442.182 174.658 442.182ZM174.84 440.977C173.158 440.977 172.294 439.5 172.294 437.636C172.294 435.795 173.135 434.364 174.84 434.364C176.476 434.364 177.34 435.682 177.34 437.636C177.34 439.614 176.453 440.977 174.84 440.977ZM184.799 442.182C186.572 442.182 187.867 441.295 188.276 439.977L186.981 439.614C186.64 440.523 185.85 440.977 184.799 440.977C183.225 440.977 182.14 439.96 182.077 438.091H188.412V437.523C188.412 434.273 186.481 433.159 184.662 433.159C182.299 433.159 180.731 435.023 180.731 437.705C180.731 440.386 182.276 442.182 184.799 442.182ZM182.077 436.932C182.168 435.574 183.128 434.364 184.662 434.364C186.117 434.364 187.049 435.455 187.049 436.932H182.077ZM194.179 433.273H192.224V432.386C192.224 431.523 192.588 431.068 193.474 431.068C193.86 431.068 194.088 431.159 194.224 431.205L194.61 430.045C194.406 429.955 193.997 429.818 193.338 429.818C192.088 429.818 190.883 430.568 190.883 432.068V433.273H189.474V434.409H190.883V442H192.224V434.409H194.179V433.273ZM195.898 442H197.239V433.273H195.898V442ZM196.58 431.818C197.102 431.818 197.534 431.409 197.534 430.909C197.534 430.409 197.102 430 196.58 430C196.057 430 195.625 430.409 195.625 430.909C195.625 431.409 196.057 431.818 196.58 431.818ZM200.876 436.75C200.876 435.227 201.819 434.364 203.103 434.364C204.347 434.364 205.103 435.176 205.103 436.545V442H206.444V436.455C206.444 434.227 205.256 433.159 203.489 433.159C202.171 433.159 201.353 433.75 200.944 434.636H200.83V433.273H199.535V442H200.876V436.75ZM212.393 442.182C214.166 442.182 215.461 441.295 215.871 439.977L214.575 439.614C214.234 440.523 213.444 440.977 212.393 440.977C210.819 440.977 209.734 439.96 209.672 438.091H216.007V437.523C216.007 434.273 214.075 433.159 212.257 433.159C209.893 433.159 208.325 435.023 208.325 437.705C208.325 440.386 209.871 442.182 212.393 442.182ZM209.672 436.932C209.763 435.574 210.723 434.364 212.257 434.364C213.711 434.364 214.643 435.455 214.643 436.932H209.672ZM221.182 442.182C222.864 442.182 223.432 441.136 223.728 440.659H223.887V442H225.182V430.364H223.841V434.659H223.728C223.432 434.205 222.909 433.159 221.205 433.159C219 433.159 217.478 434.909 217.478 437.659C217.478 440.432 219 442.182 221.182 442.182ZM221.364 440.977C219.682 440.977 218.818 439.5 218.818 437.636C218.818 435.795 219.659 434.364 221.364 434.364C223 434.364 223.864 435.682 223.864 437.636C223.864 439.614 222.978 440.977 221.364 440.977ZM233.345 430.364H232.004V442H233.345V430.364ZM239.186 442.182C241.55 442.182 243.141 440.386 243.141 437.682C243.141 434.955 241.55 433.159 239.186 433.159C236.823 433.159 235.232 434.955 235.232 437.682C235.232 440.386 236.823 442.182 239.186 442.182ZM239.186 440.977C237.391 440.977 236.573 439.432 236.573 437.682C236.573 435.932 237.391 434.364 239.186 434.364C240.982 434.364 241.8 435.932 241.8 437.682C241.8 439.432 240.982 440.977 239.186 440.977ZM248.551 445.455C250.642 445.455 252.323 444.5 252.323 442.25V433.273H251.028V434.659H250.892C250.596 434.205 250.051 433.159 248.346 433.159C246.142 433.159 244.619 434.909 244.619 437.591C244.619 440.318 246.21 441.864 248.323 441.864C250.028 441.864 250.573 440.864 250.869 440.386H250.982V442.159C250.982 443.614 249.96 444.273 248.551 444.273C246.965 444.273 246.409 443.438 246.051 442.955L244.982 443.705C245.528 444.619 246.602 445.455 248.551 445.455ZM248.505 440.659C246.823 440.659 245.96 439.386 245.96 437.568C245.96 435.795 246.801 434.364 248.505 434.364C250.142 434.364 251.005 435.682 251.005 437.568C251.005 439.5 250.119 440.659 248.505 440.659ZM262.844 433.273H260.89V432.386C260.89 431.523 261.253 431.068 262.14 431.068C262.526 431.068 262.753 431.159 262.89 431.205L263.276 430.045C263.072 429.955 262.662 429.818 262.003 429.818C260.753 429.818 259.549 430.568 259.549 432.068V433.273H258.14V434.409H259.549V442H260.89V434.409H262.844V433.273ZM267.75 442.182C270.113 442.182 271.704 440.386 271.704 437.682C271.704 434.955 270.113 433.159 267.75 433.159C265.386 433.159 263.795 434.955 263.795 437.682C263.795 440.386 265.386 442.182 267.75 442.182ZM267.75 440.977C265.954 440.977 265.136 439.432 265.136 437.682C265.136 435.932 265.954 434.364 267.75 434.364C269.545 434.364 270.363 435.932 270.363 437.682C270.363 439.432 269.545 440.977 267.75 440.977ZM273.591 442H274.932V436.477C274.932 435.295 275.864 434.432 277.136 434.432C277.494 434.432 277.864 434.5 277.955 434.523V433.159C277.801 433.148 277.449 433.136 277.25 433.136C276.205 433.136 275.296 433.727 274.977 434.591H274.886V433.273H273.591V442ZM279.384 442H280.725V436.545C280.725 435.267 281.657 434.364 282.702 434.364C283.719 434.364 284.43 435.028 284.43 436.023V442H285.793V436.318C285.793 435.193 286.498 434.364 287.725 434.364C288.68 434.364 289.498 434.869 289.498 436.159V442H290.839V436.159C290.839 434.108 289.736 433.159 288.18 433.159C286.93 433.159 286.015 433.733 285.566 434.636H285.475C285.043 433.705 284.282 433.159 283.134 433.159C281.998 433.159 281.157 433.705 280.793 434.636H280.68V433.273H279.384V442ZM295.699 442.205C297.221 442.205 298.017 441.386 298.289 440.818H298.358V442H299.699V436.25C299.699 433.477 297.585 433.159 296.471 433.159C295.153 433.159 293.653 433.614 292.971 435.205L294.244 435.659C294.539 435.023 295.238 434.341 296.517 434.341C297.75 434.341 298.358 434.994 298.358 436.114V436.159C298.358 436.807 297.699 436.75 296.108 436.955C294.488 437.165 292.721 437.523 292.721 439.523C292.721 441.227 294.039 442.205 295.699 442.205ZM295.903 441C294.835 441 294.062 440.523 294.062 439.591C294.062 438.568 294.994 438.25 296.039 438.114C296.608 438.045 298.13 437.886 298.358 437.614V438.841C298.358 439.932 297.494 441 295.903 441ZM305.781 433.273H303.918V431.182H302.577V433.273H301.259V434.409H302.577V439.864C302.577 441.386 303.804 442.114 304.941 442.114C305.441 442.114 305.759 442.023 305.941 441.955L305.668 440.75C305.554 440.773 305.372 440.818 305.077 440.818C304.486 440.818 303.918 440.636 303.918 439.5V434.409H305.781V433.273ZM313.664 435.227C313.244 433.989 312.3 433.159 310.573 433.159C308.732 433.159 307.369 434.205 307.369 435.682C307.369 436.886 308.085 437.693 309.687 438.068L311.141 438.409C312.022 438.614 312.437 439.034 312.437 439.636C312.437 440.386 311.641 441 310.391 441C309.295 441 308.607 440.528 308.369 439.591L307.096 439.909C307.408 441.392 308.63 442.182 310.414 442.182C312.443 442.182 313.823 441.074 313.823 439.568C313.823 438.352 313.062 437.585 311.505 437.205L310.21 436.886C309.175 436.631 308.71 436.284 308.71 435.614C308.71 434.864 309.505 434.318 310.573 434.318C311.744 434.318 312.227 434.966 312.46 435.568L313.664 435.227Z" fill="#393946"/>
<path d="M65.7727 473.273H67.1364C67.0739 471.517 65.4545 470.205 63.2045 470.205C60.9773 470.205 59.2273 471.5 59.2273 473.455C59.2273 475.023 60.3636 475.955 62.1818 476.477L63.6136 476.886C64.8409 477.227 65.9318 477.659 65.9318 478.818C65.9318 480.091 64.7045 480.932 63.0909 480.932C61.7045 480.932 60.4773 480.318 60.3636 479H58.9091C59.0455 480.909 60.5909 482.205 63.0909 482.205C65.7727 482.205 67.2955 480.727 67.2955 478.841C67.2955 476.659 65.2273 475.955 64.0227 475.636L62.8409 475.318C61.9773 475.091 60.5909 474.636 60.5909 473.386C60.5909 472.273 61.6136 471.455 63.1591 471.455C64.5682 471.455 65.6364 472.125 65.7727 473.273ZM70.6113 470.364H69.2704V482H70.6113V470.364ZM76.4527 482.182C78.8164 482.182 80.4073 480.386 80.4073 477.682C80.4073 474.955 78.8164 473.159 76.4527 473.159C74.0891 473.159 72.4982 474.955 72.4982 477.682C72.4982 480.386 74.0891 482.182 76.4527 482.182ZM76.4527 480.977C74.6573 480.977 73.8391 479.432 73.8391 477.682C73.8391 475.932 74.6573 474.364 76.4527 474.364C78.2482 474.364 79.0664 475.932 79.0664 477.682C79.0664 479.432 78.2482 480.977 76.4527 480.977ZM83.9745 482H85.2927L87.2018 475.295H87.3382L89.2473 482H90.5655L93.2245 473.273H91.8155L89.9291 479.932H89.8382L87.9973 473.273H86.5655L84.7018 479.955H84.6109L82.7245 473.273H81.3155L83.9745 482ZM98.1995 482.182C99.9722 482.182 101.268 481.295 101.677 479.977L100.381 479.614C100.04 480.523 99.2506 480.977 98.1995 480.977C96.6256 480.977 95.5404 479.96 95.4779 478.091H101.813V477.523C101.813 474.273 99.8813 473.159 98.0631 473.159C95.6995 473.159 94.1313 475.023 94.1313 477.705C94.1313 480.386 95.6768 482.182 98.1995 482.182ZM95.4779 476.932C95.5688 475.574 96.529 474.364 98.0631 474.364C99.5177 474.364 100.449 475.455 100.449 476.932H95.4779ZM103.693 482H105.034V476.477C105.034 475.295 105.966 474.432 107.238 474.432C107.596 474.432 107.966 474.5 108.057 474.523V473.159C107.903 473.148 107.551 473.136 107.352 473.136C106.307 473.136 105.397 473.727 105.079 474.591H104.988V473.273H103.693V482ZM115.803 482H117.121L119.031 475.295H119.167L121.076 482H122.394L125.053 473.273H123.644L121.758 479.932H121.667L119.826 473.273H118.394L116.531 479.955H116.44L114.553 473.273H113.144L115.803 482ZM126.666 482H128.007V476.477C128.007 475.295 128.939 474.432 130.211 474.432C130.569 474.432 130.939 474.5 131.03 474.523V473.159C130.876 473.148 130.524 473.136 130.325 473.136C129.28 473.136 128.371 473.727 128.052 474.591H127.961V473.273H126.666V482ZM132.459 482H133.8V473.273H132.459V482ZM133.141 471.818C133.664 471.818 134.096 471.409 134.096 470.909C134.096 470.409 133.664 470 133.141 470C132.618 470 132.186 470.409 132.186 470.909C132.186 471.409 132.618 471.818 133.141 471.818ZM139.891 473.273H138.028V471.182H136.687V473.273H135.369V474.409H136.687V479.864C136.687 481.386 137.914 482.114 139.051 482.114C139.551 482.114 139.869 482.023 140.051 481.955L139.778 480.75C139.664 480.773 139.482 480.818 139.187 480.818C138.596 480.818 138.028 480.636 138.028 479.5V474.409H139.891V473.273ZM145.314 482.182C147.087 482.182 148.382 481.295 148.791 479.977L147.496 479.614C147.155 480.523 146.365 480.977 145.314 480.977C143.74 480.977 142.655 479.96 142.592 478.091H148.927V477.523C148.927 474.273 146.996 473.159 145.177 473.159C142.814 473.159 141.246 475.023 141.246 477.705C141.246 480.386 142.791 482.182 145.314 482.182ZM142.592 476.932C142.683 475.574 143.643 474.364 145.177 474.364C146.632 474.364 147.564 475.455 147.564 476.932H142.592ZM156.989 475.227C156.569 473.989 155.625 473.159 153.898 473.159C152.057 473.159 150.694 474.205 150.694 475.682C150.694 476.886 151.41 477.693 153.012 478.068L154.466 478.409C155.347 478.614 155.762 479.034 155.762 479.636C155.762 480.386 154.966 481 153.716 481C152.62 481 151.932 480.528 151.694 479.591L150.421 479.909C150.733 481.392 151.955 482.182 153.739 482.182C155.768 482.182 157.148 481.074 157.148 479.568C157.148 478.352 156.387 477.585 154.83 477.205L153.535 476.886C152.5 476.631 152.035 476.284 152.035 475.614C152.035 474.864 152.83 474.318 153.898 474.318C155.069 474.318 155.552 474.966 155.785 475.568L156.989 475.227Z" fill="#393946"/>
<path d="M59.4091 522H66.2273V520.75H60.8182V510.364H59.4091V522ZM70.6355 522.205C72.1582 522.205 72.9536 521.386 73.2264 520.818H73.2945V522H74.6355V516.25C74.6355 513.477 72.5218 513.159 71.4082 513.159C70.09 513.159 68.59 513.614 67.9082 515.205L69.1809 515.659C69.4764 515.023 70.1752 514.341 71.4536 514.341C72.6866 514.341 73.2945 514.994 73.2945 516.114V516.159C73.2945 516.807 72.6355 516.75 71.0445 516.955C69.4252 517.165 67.6582 517.523 67.6582 519.523C67.6582 521.227 68.9764 522.205 70.6355 522.205ZM70.84 521C69.7718 521 68.9991 520.523 68.9991 519.591C68.9991 518.568 69.9309 518.25 70.9764 518.114C71.5445 518.045 73.0673 517.886 73.2945 517.614V518.841C73.2945 519.932 72.4309 521 70.84 521ZM76.9229 522H78.2638V516.477C78.2638 515.295 79.1956 514.432 80.4684 514.432C80.8263 514.432 81.1956 514.5 81.2865 514.523V513.159C81.1331 513.148 80.7809 513.136 80.582 513.136C79.5365 513.136 78.6274 513.727 78.3093 514.591H78.2184V513.273H76.9229V522ZM85.9731 525.455C88.064 525.455 89.7459 524.5 89.7459 522.25V513.273H88.4504V514.659H88.314C88.0186 514.205 87.4731 513.159 85.7686 513.159C83.564 513.159 82.0413 514.909 82.0413 517.591C82.0413 520.318 83.6322 521.864 85.7459 521.864C87.4504 521.864 87.9959 520.864 88.2913 520.386H88.4049V522.159C88.4049 523.614 87.3822 524.273 85.9731 524.273C84.3879 524.273 83.8311 523.438 83.4731 522.955L82.4049 523.705C82.9504 524.619 84.0243 525.455 85.9731 525.455ZM85.9277 520.659C84.2459 520.659 83.3822 519.386 83.3822 517.568C83.3822 515.795 84.2231 514.364 85.9277 514.364C87.564 514.364 88.4277 515.682 88.4277 517.568C88.4277 519.5 87.5413 520.659 85.9277 520.659ZM95.6995 522.182C97.4722 522.182 98.7677 521.295 99.1768 519.977L97.8813 519.614C97.5404 520.523 96.7506 520.977 95.6995 520.977C94.1256 520.977 93.0404 519.96 92.9779 518.091H99.3131V517.523C99.3131 514.273 97.3813 513.159 95.5631 513.159C93.1995 513.159 91.6313 515.023 91.6313 517.705C91.6313 520.386 93.1768 522.182 95.6995 522.182ZM92.9779 516.932C93.0688 515.574 94.029 514.364 95.5631 514.364C97.0177 514.364 97.9495 515.455 97.9495 516.932H92.9779ZM105.533 522H106.874V513.273H105.533V522ZM106.215 511.818C106.737 511.818 107.169 511.409 107.169 510.909C107.169 510.409 106.737 510 106.215 510C105.692 510 105.26 510.409 105.26 510.909C105.26 511.409 105.692 511.818 106.215 511.818ZM110.511 516.75C110.511 515.227 111.454 514.364 112.738 514.364C113.982 514.364 114.738 515.176 114.738 516.545V522H116.079V516.455C116.079 514.227 114.891 513.159 113.124 513.159C111.806 513.159 110.988 513.75 110.579 514.636H110.465V513.273H109.17V522H110.511V516.75ZM121.665 522.182C123.346 522.182 123.915 521.136 124.21 520.659H124.369V522H125.665V510.364H124.324V514.659H124.21C123.915 514.205 123.392 513.159 121.687 513.159C119.483 513.159 117.96 514.909 117.96 517.659C117.96 520.432 119.483 522.182 121.665 522.182ZM121.846 520.977C120.165 520.977 119.301 519.5 119.301 517.636C119.301 515.795 120.142 514.364 121.846 514.364C123.483 514.364 124.346 515.682 124.346 517.636C124.346 519.614 123.46 520.977 121.846 520.977ZM131.806 522.182C133.578 522.182 134.874 521.295 135.283 519.977L133.988 519.614C133.647 520.523 132.857 520.977 131.806 520.977C130.232 520.977 129.147 519.96 129.084 518.091H135.419V517.523C135.419 514.273 133.488 513.159 131.669 513.159C129.306 513.159 127.738 515.023 127.738 517.705C127.738 520.386 129.283 522.182 131.806 522.182ZM129.084 516.932C129.175 515.574 130.135 514.364 131.669 514.364C133.124 514.364 134.056 515.455 134.056 516.932H129.084ZM138.065 513.273H136.519L139.292 517.636L136.519 522H138.065L140.156 518.614L142.247 522H143.792L140.974 517.636L143.792 513.273H142.247L140.156 516.841L138.065 513.273ZM148.845 522.182C150.618 522.182 151.913 521.295 152.322 519.977L151.027 519.614C150.686 520.523 149.896 520.977 148.845 520.977C147.271 520.977 146.186 519.96 146.124 518.091H152.459V517.523C152.459 514.273 150.527 513.159 148.709 513.159C146.345 513.159 144.777 515.023 144.777 517.705C144.777 520.386 146.322 522.182 148.845 522.182ZM146.124 516.932C146.214 515.574 147.175 514.364 148.709 514.364C150.163 514.364 151.095 515.455 151.095 516.932H146.124ZM160.52 515.227C160.1 513.989 159.157 513.159 157.429 513.159C155.589 513.159 154.225 514.205 154.225 515.682C154.225 516.886 154.941 517.693 156.543 518.068L157.998 518.409C158.878 518.614 159.293 519.034 159.293 519.636C159.293 520.386 158.498 521 157.248 521C156.151 521 155.464 520.528 155.225 519.591L153.952 519.909C154.265 521.392 155.486 522.182 157.27 522.182C159.299 522.182 160.679 521.074 160.679 519.568C160.679 518.352 159.918 517.585 158.361 517.205L157.066 516.886C156.032 516.631 155.566 516.284 155.566 515.614C155.566 514.864 156.361 514.318 157.429 514.318C158.6 514.318 159.083 514.966 159.316 515.568L160.52 515.227Z" fill="#393946"/>
<path d="M385.409 430.364V442H386.727V433.159H386.841L390.477 442H391.75L395.386 433.159H395.5V442H396.818V430.364H395.136L391.182 440.023H391.045L387.091 430.364H385.409ZM402.847 442.182C405.211 442.182 406.802 440.386 406.802 437.682C406.802 434.955 405.211 433.159 402.847 433.159C400.483 433.159 398.893 434.955 398.893 437.682C398.893 440.386 400.483 442.182 402.847 442.182ZM402.847 440.977C401.052 440.977 400.233 439.432 400.233 437.682C400.233 435.932 401.052 434.364 402.847 434.364C404.643 434.364 405.461 435.932 405.461 437.682C405.461 439.432 404.643 440.977 402.847 440.977ZM408.689 442H410.029V436.477C410.029 435.295 410.961 434.432 412.234 434.432C412.592 434.432 412.961 434.5 413.052 434.523V433.159C412.899 433.148 412.546 433.136 412.348 433.136C411.302 433.136 410.393 433.727 410.075 434.591H409.984V433.273H408.689V442ZM417.875 442.182C419.648 442.182 420.943 441.295 421.352 439.977L420.057 439.614C419.716 440.523 418.926 440.977 417.875 440.977C416.301 440.977 415.216 439.96 415.154 438.091H421.489V437.523C421.489 434.273 419.557 433.159 417.739 433.159C415.375 433.159 413.807 435.023 413.807 437.705C413.807 440.386 415.352 442.182 417.875 442.182ZM415.154 436.932C415.244 435.574 416.205 434.364 417.739 434.364C419.193 434.364 420.125 435.455 420.125 436.932H415.154ZM431.368 442.182C433.14 442.182 434.436 441.295 434.845 439.977L433.549 439.614C433.209 440.523 432.419 440.977 431.368 440.977C429.794 440.977 428.709 439.96 428.646 438.091H434.981V437.523C434.981 434.273 433.049 433.159 431.231 433.159C428.868 433.159 427.299 435.023 427.299 437.705C427.299 440.386 428.845 442.182 431.368 442.182ZM428.646 436.932C428.737 435.574 429.697 434.364 431.231 434.364C432.686 434.364 433.618 435.455 433.618 436.932H428.646ZM437.627 433.273H436.081L438.854 437.636L436.081 442H437.627L439.718 438.614L441.808 442H443.354L440.536 437.636L443.354 433.273H441.808L439.718 436.841L437.627 433.273ZM445.107 445.273H446.448V440.659H446.562C446.857 441.136 447.425 442.182 449.107 442.182C451.289 442.182 452.812 440.432 452.812 437.659C452.812 434.909 451.289 433.159 449.085 433.159C447.38 433.159 446.857 434.205 446.562 434.659H446.403V433.273H445.107V445.273ZM446.425 437.636C446.425 435.682 447.289 434.364 448.925 434.364C450.63 434.364 451.471 435.795 451.471 437.636C451.471 439.5 450.607 440.977 448.925 440.977C447.312 440.977 446.425 439.614 446.425 437.636ZM458.356 442.182C460.129 442.182 461.425 441.295 461.834 439.977L460.538 439.614C460.197 440.523 459.408 440.977 458.356 440.977C456.783 440.977 455.697 439.96 455.635 438.091H461.97V437.523C461.97 434.273 460.038 433.159 458.22 433.159C455.856 433.159 454.288 435.023 454.288 437.705C454.288 440.386 455.834 442.182 458.356 442.182ZM455.635 436.932C455.726 435.574 456.686 434.364 458.22 434.364C459.675 434.364 460.606 435.455 460.606 436.932H455.635ZM465.191 436.75C465.191 435.227 466.134 434.364 467.418 434.364C468.662 434.364 469.418 435.176 469.418 436.545V442H470.759V436.455C470.759 434.227 469.571 433.159 467.804 433.159C466.486 433.159 465.668 433.75 465.259 434.636H465.145V433.273H463.85V442H465.191V436.75ZM479.231 435.227C478.811 433.989 477.867 433.159 476.14 433.159C474.299 433.159 472.936 434.205 472.936 435.682C472.936 436.886 473.651 437.693 475.254 438.068L476.708 438.409C477.589 438.614 478.004 439.034 478.004 439.636C478.004 440.386 477.208 441 475.958 441C474.862 441 474.174 440.528 473.936 439.591L472.663 439.909C472.975 441.392 474.197 442.182 475.981 442.182C478.009 442.182 479.39 441.074 479.39 439.568C479.39 438.352 478.629 437.585 477.072 437.205L475.776 436.886C474.742 436.631 474.276 436.284 474.276 435.614C474.276 434.864 475.072 434.318 476.14 434.318C477.311 434.318 477.793 434.966 478.026 435.568L479.231 435.227ZM481.249 442H482.589V433.273H481.249V442ZM481.93 431.818C482.453 431.818 482.885 431.409 482.885 430.909C482.885 430.409 482.453 430 481.93 430C481.408 430 480.976 430.409 480.976 430.909C480.976 431.409 481.408 431.818 481.93 431.818ZM492.022 433.273H490.567L488.158 440.227H488.067L485.658 433.273H484.204L487.431 442H488.794L492.022 433.273ZM496.978 442.182C498.751 442.182 500.046 441.295 500.456 439.977L499.16 439.614C498.819 440.523 498.029 440.977 496.978 440.977C495.404 440.977 494.319 439.96 494.257 438.091H500.592V437.523C500.592 434.273 498.66 433.159 496.842 433.159C494.478 433.159 492.91 435.023 492.91 437.705C492.91 440.386 494.456 442.182 496.978 442.182ZM494.257 436.932C494.348 435.574 495.308 434.364 496.842 434.364C498.296 434.364 499.228 435.455 499.228 436.932H494.257ZM510.607 433.273H508.743V431.182H507.403V433.273H506.084V434.409H507.403V439.864C507.403 441.386 508.63 442.114 509.766 442.114C510.266 442.114 510.584 442.023 510.766 441.955L510.493 440.75C510.38 440.773 510.198 440.818 509.903 440.818C509.312 440.818 508.743 440.636 508.743 439.5V434.409H510.607V433.273ZM515.916 442.182C518.279 442.182 519.87 440.386 519.87 437.682C519.87 434.955 518.279 433.159 515.916 433.159C513.552 433.159 511.961 434.955 511.961 437.682C511.961 440.386 513.552 442.182 515.916 442.182ZM515.916 440.977C514.12 440.977 513.302 439.432 513.302 437.682C513.302 435.932 514.12 434.364 515.916 434.364C517.711 434.364 518.529 435.932 518.529 437.682C518.529 439.432 517.711 440.977 515.916 440.977ZM526.097 442H527.438V436.477C527.438 435.295 528.37 434.432 529.643 434.432C530.001 434.432 530.37 434.5 530.461 434.523V433.159C530.307 433.148 529.955 433.136 529.756 433.136C528.711 433.136 527.802 433.727 527.484 434.591H527.393V433.273H526.097V442ZM537.39 438.432C537.39 440.068 536.14 440.818 535.14 440.818C534.027 440.818 533.231 440 533.231 438.727V433.273H531.89V438.818C531.89 441.045 533.072 442.114 534.709 442.114C536.027 442.114 536.89 441.409 537.299 440.523H537.39V442H538.731V433.273H537.39V438.432ZM542.368 436.75C542.368 435.227 543.311 434.364 544.595 434.364C545.84 434.364 546.595 435.176 546.595 436.545V442H547.936V436.455C547.936 434.227 546.749 433.159 544.982 433.159C543.664 433.159 542.845 433.75 542.436 434.636H542.323V433.273H541.027V442H542.368V436.75Z" fill="#393946"/>
<path d="M664.409 441H665.818V436.455H668.364C668.466 436.455 668.562 436.455 668.659 436.449L671.114 441H672.75L670.119 436.193C671.602 435.688 672.295 434.477 672.295 432.932C672.295 430.875 671.068 429.364 668.341 429.364H664.409V441ZM665.818 435.182V430.614H668.295C670.182 430.614 670.909 431.534 670.909 432.932C670.909 434.33 670.182 435.182 668.318 435.182H665.818ZM677.867 441.182C679.64 441.182 680.935 440.295 681.344 438.977L680.049 438.614C679.708 439.523 678.918 439.977 677.867 439.977C676.293 439.977 675.208 438.96 675.145 437.091H681.481V436.523C681.481 433.273 679.549 432.159 677.731 432.159C675.367 432.159 673.799 434.023 673.799 436.705C673.799 439.386 675.344 441.182 677.867 441.182ZM675.145 435.932C675.236 434.574 676.197 433.364 677.731 433.364C679.185 433.364 680.117 434.455 680.117 435.932H675.145ZM686.656 441.182C688.338 441.182 688.906 440.136 689.201 439.659H689.36V441H690.656V429.364H689.315V433.659H689.201C688.906 433.205 688.383 432.159 686.679 432.159C684.474 432.159 682.951 433.909 682.951 436.659C682.951 439.432 684.474 441.182 686.656 441.182ZM686.838 439.977C685.156 439.977 684.292 438.5 684.292 436.636C684.292 434.795 685.133 433.364 686.838 433.364C688.474 433.364 689.338 434.682 689.338 436.636C689.338 438.614 688.451 439.977 686.838 439.977ZM696.797 441.182C698.57 441.182 699.865 440.295 700.274 438.977L698.979 438.614C698.638 439.523 697.848 439.977 696.797 439.977C695.223 439.977 694.138 438.96 694.075 437.091H700.411V436.523C700.411 433.273 698.479 432.159 696.661 432.159C694.297 432.159 692.729 434.023 692.729 436.705C692.729 439.386 694.274 441.182 696.797 441.182ZM694.075 435.932C694.166 434.574 695.127 433.364 696.661 433.364C698.115 433.364 699.047 434.455 699.047 435.932H694.075ZM706.177 432.273H704.222V431.386C704.222 430.523 704.586 430.068 705.472 430.068C705.859 430.068 706.086 430.159 706.222 430.205L706.609 429.045C706.404 428.955 705.995 428.818 705.336 428.818C704.086 428.818 702.881 429.568 702.881 431.068V432.273H701.472V433.409H702.881V441H704.222V433.409H706.177V432.273ZM707.896 441H709.237V432.273H707.896V441ZM708.578 430.818C709.101 430.818 709.532 430.409 709.532 429.909C709.532 429.409 709.101 429 708.578 429C708.055 429 707.623 429.409 707.623 429.909C707.623 430.409 708.055 430.818 708.578 430.818ZM712.874 435.75C712.874 434.227 713.817 433.364 715.101 433.364C716.345 433.364 717.101 434.176 717.101 435.545V441H718.442V435.455C718.442 433.227 717.254 432.159 715.487 432.159C714.169 432.159 713.351 432.75 712.942 433.636H712.828V432.273H711.533V441H712.874V435.75ZM720.732 441H722.073V432.273H720.732V441ZM721.414 430.818C721.937 430.818 722.369 430.409 722.369 429.909C722.369 429.409 721.937 429 721.414 429C720.891 429 720.46 429.409 720.46 429.909C720.46 430.409 720.891 430.818 721.414 430.818ZM725.71 435.75C725.71 434.227 726.653 433.364 727.937 433.364C729.182 433.364 729.937 434.176 729.937 435.545V441H731.278V435.455C731.278 433.227 730.091 432.159 728.324 432.159C727.006 432.159 726.187 432.75 725.778 433.636H725.665V432.273H724.369V441H725.71V435.75ZM737.091 444.455C739.182 444.455 740.864 443.5 740.864 441.25V432.273H739.569V433.659H739.432C739.137 433.205 738.591 432.159 736.887 432.159C734.682 432.159 733.159 433.909 733.159 436.591C733.159 439.318 734.75 440.864 736.864 440.864C738.569 440.864 739.114 439.864 739.409 439.386H739.523V441.159C739.523 442.614 738.5 443.273 737.091 443.273C735.506 443.273 734.949 442.438 734.591 441.955L733.523 442.705C734.069 443.619 735.142 444.455 737.091 444.455ZM737.046 439.659C735.364 439.659 734.5 438.386 734.5 436.568C734.5 434.795 735.341 433.364 737.046 433.364C738.682 433.364 739.546 434.682 739.546 436.568C739.546 438.5 738.659 439.659 737.046 439.659ZM748.839 429.364H747.499V441H748.839V429.364ZM754.681 441.182C757.044 441.182 758.635 439.386 758.635 436.682C758.635 433.955 757.044 432.159 754.681 432.159C752.317 432.159 750.726 433.955 750.726 436.682C750.726 439.386 752.317 441.182 754.681 441.182ZM754.681 439.977C752.885 439.977 752.067 438.432 752.067 436.682C752.067 434.932 752.885 433.364 754.681 433.364C756.476 433.364 757.294 434.932 757.294 436.682C757.294 438.432 756.476 439.977 754.681 439.977ZM764.045 444.455C766.136 444.455 767.818 443.5 767.818 441.25V432.273H766.522V433.659H766.386C766.09 433.205 765.545 432.159 763.84 432.159C761.636 432.159 760.113 433.909 760.113 436.591C760.113 439.318 761.704 440.864 763.818 440.864C765.522 440.864 766.068 439.864 766.363 439.386H766.477V441.159C766.477 442.614 765.454 443.273 764.045 443.273C762.46 443.273 761.903 442.438 761.545 441.955L760.477 442.705C761.022 443.619 762.096 444.455 764.045 444.455ZM764 439.659C762.318 439.659 761.454 438.386 761.454 436.568C761.454 434.795 762.295 433.364 764 433.364C765.636 433.364 766.5 434.682 766.5 436.568C766.5 438.5 765.613 439.659 764 439.659ZM778.339 432.273H776.384V431.386C776.384 430.523 776.748 430.068 777.634 430.068C778.02 430.068 778.248 430.159 778.384 430.205L778.77 429.045C778.566 428.955 778.157 428.818 777.498 428.818C776.248 428.818 775.043 429.568 775.043 431.068V432.273H773.634V433.409H775.043V441H776.384V433.409H778.339V432.273ZM783.244 441.182C785.608 441.182 787.199 439.386 787.199 436.682C787.199 433.955 785.608 432.159 783.244 432.159C780.88 432.159 779.289 433.955 779.289 436.682C779.289 439.386 780.88 441.182 783.244 441.182ZM783.244 439.977C781.449 439.977 780.63 438.432 780.63 436.682C780.63 434.932 781.449 433.364 783.244 433.364C785.039 433.364 785.858 434.932 785.858 436.682C785.858 438.432 785.039 439.977 783.244 439.977ZM789.085 441H790.426V435.477C790.426 434.295 791.358 433.432 792.631 433.432C792.989 433.432 793.358 433.5 793.449 433.523V432.159C793.296 432.148 792.943 432.136 792.744 432.136C791.699 432.136 790.79 432.727 790.472 433.591H790.381V432.273H789.085V441ZM794.879 441H796.219V435.545C796.219 434.267 797.151 433.364 798.197 433.364C799.214 433.364 799.924 434.028 799.924 435.023V441H801.288V435.318C801.288 434.193 801.992 433.364 803.219 433.364C804.174 433.364 804.992 433.869 804.992 435.159V441H806.333V435.159C806.333 433.108 805.231 432.159 803.674 432.159C802.424 432.159 801.509 432.733 801.06 433.636H800.969C800.538 432.705 799.776 432.159 798.629 432.159C797.492 432.159 796.651 432.705 796.288 433.636H796.174V432.273H794.879V441ZM811.193 441.205C812.716 441.205 813.511 440.386 813.784 439.818H813.852V441H815.193V435.25C815.193 432.477 813.079 432.159 811.966 432.159C810.648 432.159 809.148 432.614 808.466 434.205L809.738 434.659C810.034 434.023 810.733 433.341 812.011 433.341C813.244 433.341 813.852 433.994 813.852 435.114V435.159C813.852 435.807 813.193 435.75 811.602 435.955C809.983 436.165 808.216 436.523 808.216 438.523C808.216 440.227 809.534 441.205 811.193 441.205ZM811.398 440C810.329 440 809.557 439.523 809.557 438.591C809.557 437.568 810.488 437.25 811.534 437.114C812.102 437.045 813.625 436.886 813.852 436.614V437.841C813.852 438.932 812.988 440 811.398 440ZM821.276 432.273H819.412V430.182H818.071V432.273H816.753V433.409H818.071V438.864C818.071 440.386 819.299 441.114 820.435 441.114C820.935 441.114 821.253 441.023 821.435 440.955L821.162 439.75C821.049 439.773 820.867 439.818 820.571 439.818C819.98 439.818 819.412 439.636 819.412 438.5V433.409H821.276V432.273ZM664.227 465H665.568V459.477C665.568 458.295 666.5 457.432 667.773 457.432C668.131 457.432 668.5 457.5 668.591 457.523V456.159C668.438 456.148 668.085 456.136 667.886 456.136C666.841 456.136 665.932 456.727 665.614 457.591H665.523V456.273H664.227V465ZM673.414 465.182C675.187 465.182 676.482 464.295 676.891 462.977L675.596 462.614C675.255 463.523 674.465 463.977 673.414 463.977C671.84 463.977 670.755 462.96 670.692 461.091H677.028V460.523C677.028 457.273 675.096 456.159 673.278 456.159C670.914 456.159 669.346 458.023 669.346 460.705C669.346 463.386 670.891 465.182 673.414 465.182ZM670.692 459.932C670.783 458.574 671.743 457.364 673.278 457.364C674.732 457.364 675.664 458.455 675.664 459.932H670.692ZM686.203 468.273V456.273H684.907V457.659H684.748C684.453 457.205 683.93 456.159 682.225 456.159C680.021 456.159 678.498 457.909 678.498 460.659C678.498 463.432 680.021 465.182 682.203 465.182C683.885 465.182 684.453 464.136 684.748 463.659H684.862V468.273H686.203ZM684.885 460.636C684.885 462.614 683.998 463.977 682.385 463.977C680.703 463.977 679.839 462.5 679.839 460.636C679.839 458.795 680.68 457.364 682.385 457.364C684.021 457.364 684.885 458.682 684.885 460.636ZM693.997 461.432C693.997 463.068 692.747 463.818 691.747 463.818C690.634 463.818 689.838 463 689.838 461.727V456.273H688.497V461.818C688.497 464.045 689.679 465.114 691.315 465.114C692.634 465.114 693.497 464.409 693.906 463.523H693.997V465H695.338V456.273H693.997V461.432ZM697.634 465H698.975V456.273H697.634V465ZM698.316 454.818C698.839 454.818 699.271 454.409 699.271 453.909C699.271 453.409 698.839 453 698.316 453C697.793 453 697.361 453.409 697.361 453.909C697.361 454.409 697.793 454.818 698.316 454.818ZM701.271 465H702.612V459.477C702.612 458.295 703.544 457.432 704.816 457.432C705.174 457.432 705.544 457.5 705.635 457.523V456.159C705.481 456.148 705.129 456.136 704.93 456.136C703.885 456.136 702.976 456.727 702.657 457.591H702.566V456.273H701.271V465ZM710.458 465.182C712.23 465.182 713.526 464.295 713.935 462.977L712.639 462.614C712.299 463.523 711.509 463.977 710.458 463.977C708.884 463.977 707.799 462.96 707.736 461.091H714.071V460.523C714.071 457.273 712.139 456.159 710.321 456.159C707.958 456.159 706.389 458.023 706.389 460.705C706.389 463.386 707.935 465.182 710.458 465.182ZM707.736 459.932C707.827 458.574 708.787 457.364 710.321 457.364C711.776 457.364 712.708 458.455 712.708 459.932H707.736ZM722.133 458.227C721.712 456.989 720.769 456.159 719.042 456.159C717.201 456.159 715.837 457.205 715.837 458.682C715.837 459.886 716.553 460.693 718.156 461.068L719.61 461.409C720.491 461.614 720.906 462.034 720.906 462.636C720.906 463.386 720.11 464 718.86 464C717.764 464 717.076 463.528 716.837 462.591L715.565 462.909C715.877 464.392 717.099 465.182 718.883 465.182C720.911 465.182 722.292 464.074 722.292 462.568C722.292 461.352 721.531 460.585 719.974 460.205L718.678 459.886C717.644 459.631 717.178 459.284 717.178 458.614C717.178 457.864 717.974 457.318 719.042 457.318C720.212 457.318 720.695 457.966 720.928 458.568L722.133 458.227ZM728.49 465H729.831V459.477C729.831 458.295 730.763 457.432 732.036 457.432C732.394 457.432 732.763 457.5 732.854 457.523V456.159C732.701 456.148 732.348 456.136 732.149 456.136C731.104 456.136 730.195 456.727 729.877 457.591H729.786V456.273H728.49V465ZM737.677 465.182C739.45 465.182 740.745 464.295 741.154 462.977L739.859 462.614C739.518 463.523 738.728 463.977 737.677 463.977C736.103 463.977 735.018 462.96 734.955 461.091H741.291V460.523C741.291 457.273 739.359 456.159 737.541 456.159C735.177 456.159 733.609 458.023 733.609 460.705C733.609 463.386 735.154 465.182 737.677 465.182ZM734.955 459.932C735.046 458.574 736.007 457.364 737.541 457.364C738.995 457.364 739.927 458.455 739.927 459.932H734.955ZM748.17 459.386H743.079V460.636H748.17V459.386ZM750.37 465H751.711V456.273H750.37V465ZM751.052 454.818C751.574 454.818 752.006 454.409 752.006 453.909C752.006 453.409 751.574 453 751.052 453C750.529 453 750.097 453.409 750.097 453.909C750.097 454.409 750.529 454.818 751.052 454.818ZM755.348 459.75C755.348 458.227 756.291 457.364 757.575 457.364C758.819 457.364 759.575 458.176 759.575 459.545V465H760.916V459.455C760.916 457.227 759.728 456.159 757.961 456.159C756.643 456.159 755.825 456.75 755.416 457.636H755.302V456.273H754.007V465H755.348V459.75ZM766.501 465.182C768.183 465.182 768.751 464.136 769.047 463.659H769.206V465H770.501V453.364H769.161V457.659H769.047C768.751 457.205 768.229 456.159 766.524 456.159C764.32 456.159 762.797 457.909 762.797 460.659C762.797 463.432 764.32 465.182 766.501 465.182ZM766.683 463.977C765.001 463.977 764.138 462.5 764.138 460.636C764.138 458.795 764.979 457.364 766.683 457.364C768.32 457.364 769.183 458.682 769.183 460.636C769.183 462.614 768.297 463.977 766.683 463.977ZM776.643 465.182C778.415 465.182 779.711 464.295 780.12 462.977L778.824 462.614C778.484 463.523 777.694 463.977 776.643 463.977C775.069 463.977 773.984 462.96 773.921 461.091H780.256V460.523C780.256 457.273 778.324 456.159 776.506 456.159C774.143 456.159 772.574 458.023 772.574 460.705C772.574 463.386 774.12 465.182 776.643 465.182ZM773.921 459.932C774.012 458.574 774.972 457.364 776.506 457.364C777.961 457.364 778.893 458.455 778.893 459.932H773.921ZM782.902 456.273H781.356L784.129 460.636L781.356 465H782.902L784.993 461.614L787.083 465H788.629L785.811 460.636L788.629 456.273H787.083L784.993 459.841L782.902 456.273ZM790.382 465H791.723V456.273H790.382V465ZM791.064 454.818C791.587 454.818 792.019 454.409 792.019 453.909C792.019 453.409 791.587 453 791.064 453C790.541 453 790.11 453.409 790.11 453.909C790.11 454.409 790.541 454.818 791.064 454.818ZM795.36 459.75C795.36 458.227 796.303 457.364 797.587 457.364C798.832 457.364 799.587 458.176 799.587 459.545V465H800.928V459.455C800.928 457.227 799.741 456.159 797.974 456.159C796.656 456.159 795.837 456.75 795.428 457.636H795.315V456.273H794.019V465H795.36V459.75ZM806.741 468.455C808.832 468.455 810.514 467.5 810.514 465.25V456.273H809.219V457.659H809.082C808.787 457.205 808.241 456.159 806.537 456.159C804.332 456.159 802.809 457.909 802.809 460.591C802.809 463.318 804.4 464.864 806.514 464.864C808.219 464.864 808.764 463.864 809.059 463.386H809.173V465.159C809.173 466.614 808.15 467.273 806.741 467.273C805.156 467.273 804.599 466.438 804.241 465.955L803.173 466.705C803.719 467.619 804.792 468.455 806.741 468.455ZM806.696 463.659C805.014 463.659 804.15 462.386 804.15 460.568C804.15 458.795 804.991 457.364 806.696 457.364C808.332 457.364 809.196 458.682 809.196 460.568C809.196 462.5 808.309 463.659 806.696 463.659ZM817.626 460.091C817.626 462.955 818.399 465.341 819.785 467.364H820.967C819.876 465.864 819.012 462.795 819.012 460.091C819.012 457.386 819.876 454.318 820.967 452.818H819.785C818.399 454.841 817.626 457.227 817.626 460.091ZM822.967 465H824.376V460.455H826.922C827.024 460.455 827.121 460.455 827.217 460.449L829.672 465H831.308L828.677 460.193C830.16 459.688 830.854 458.477 830.854 456.932C830.854 454.875 829.626 453.364 826.899 453.364H822.967V465ZM824.376 459.182V454.614H826.854C828.74 454.614 829.467 455.534 829.467 456.932C829.467 458.33 828.74 459.182 826.876 459.182H824.376ZM832.86 465H834.201V456.273H832.86V465ZM833.542 454.818C834.064 454.818 834.496 454.409 834.496 453.909C834.496 453.409 834.064 453 833.542 453C833.019 453 832.587 453.409 832.587 453.909C832.587 454.409 833.019 454.818 833.542 454.818ZM840.019 468.455C842.11 468.455 843.792 467.5 843.792 465.25V456.273H842.497V457.659H842.36C842.065 457.205 841.519 456.159 839.815 456.159C837.61 456.159 836.088 457.909 836.088 460.591C836.088 463.318 837.678 464.864 839.792 464.864C841.497 464.864 842.042 463.864 842.338 463.386H842.451V465.159C842.451 466.614 841.428 467.273 840.019 467.273C838.434 467.273 837.877 466.438 837.519 465.955L836.451 466.705C836.997 467.619 838.071 468.455 840.019 468.455ZM839.974 463.659C838.292 463.659 837.428 462.386 837.428 460.568C837.428 458.795 838.269 457.364 839.974 457.364C841.61 457.364 842.474 458.682 842.474 460.568C842.474 462.5 841.588 463.659 839.974 463.659ZM846.087 465H847.428V456.273H846.087V465ZM846.768 454.818C847.291 454.818 847.723 454.409 847.723 453.909C847.723 453.409 847.291 453 846.768 453C846.246 453 845.814 453.409 845.814 453.909C845.814 454.409 846.246 454.818 846.768 454.818ZM853.019 465.182C854.701 465.182 855.269 464.136 855.564 463.659H855.724V465H857.019V453.364H855.678V457.659H855.564C855.269 457.205 854.746 456.159 853.042 456.159C850.837 456.159 849.314 457.909 849.314 460.659C849.314 463.432 850.837 465.182 853.019 465.182ZM853.201 463.977C851.519 463.977 850.655 462.5 850.655 460.636C850.655 458.795 851.496 457.364 853.201 457.364C854.837 457.364 855.701 458.682 855.701 460.636C855.701 462.614 854.814 463.977 853.201 463.977ZM862.365 460.091C862.365 457.227 861.592 454.841 860.206 452.818H859.024C860.115 454.318 860.978 457.386 860.978 460.091C860.978 462.795 860.115 465.864 859.024 467.364H860.206C861.592 465.341 862.365 462.955 862.365 460.091Z" fill="#393946"/>
<path d="M394.773 473C394.341 470.614 392.432 469.205 390.091 469.205C387.114 469.205 384.955 471.5 384.955 475.182C384.955 478.864 387.114 481.159 390.091 481.159C392.432 481.159 394.341 479.75 394.773 477.364H393.364C393.023 478.977 391.636 479.841 390.091 479.841C387.977 479.841 386.318 478.205 386.318 475.182C386.318 472.159 387.977 470.523 390.091 470.523C391.636 470.523 393.023 471.386 393.364 473H394.773ZM400.253 481.182C402.617 481.182 404.208 479.386 404.208 476.682C404.208 473.955 402.617 472.159 400.253 472.159C397.89 472.159 396.299 473.955 396.299 476.682C396.299 479.386 397.89 481.182 400.253 481.182ZM400.253 479.977C398.458 479.977 397.64 478.432 397.64 476.682C397.64 474.932 398.458 473.364 400.253 473.364C402.049 473.364 402.867 474.932 402.867 476.682C402.867 478.432 402.049 479.977 400.253 479.977ZM406.095 481H407.436V475.545C407.436 474.267 408.368 473.364 409.413 473.364C410.43 473.364 411.14 474.028 411.14 475.023V481H412.504V475.318C412.504 474.193 413.208 473.364 414.436 473.364C415.39 473.364 416.208 473.869 416.208 475.159V481H417.549V475.159C417.549 473.108 416.447 472.159 414.89 472.159C413.64 472.159 412.725 472.733 412.277 473.636H412.186C411.754 472.705 410.993 472.159 409.845 472.159C408.708 472.159 407.868 472.705 407.504 473.636H407.39V472.273H406.095V481ZM419.841 484.273H421.182V479.659H421.296C421.591 480.136 422.159 481.182 423.841 481.182C426.023 481.182 427.546 479.432 427.546 476.659C427.546 473.909 426.023 472.159 423.818 472.159C422.114 472.159 421.591 473.205 421.296 473.659H421.136V472.273H419.841V484.273ZM421.159 476.636C421.159 474.682 422.023 473.364 423.659 473.364C425.364 473.364 426.205 474.795 426.205 476.636C426.205 478.5 425.341 479.977 423.659 479.977C422.046 479.977 421.159 478.614 421.159 476.636ZM430.772 469.364H429.431V481H430.772V469.364ZM436.727 481.182C438.5 481.182 439.795 480.295 440.204 478.977L438.909 478.614C438.568 479.523 437.778 479.977 436.727 479.977C435.153 479.977 434.068 478.96 434.005 477.091H440.341V476.523C440.341 473.273 438.409 472.159 436.591 472.159C434.227 472.159 432.659 474.023 432.659 476.705C432.659 479.386 434.204 481.182 436.727 481.182ZM434.005 475.932C434.096 474.574 435.057 473.364 436.591 473.364C438.045 473.364 438.977 474.455 438.977 475.932H434.005ZM442.986 472.273H441.441L444.213 476.636L441.441 481H442.986L445.077 477.614L447.168 481H448.713L445.895 476.636L448.713 472.273H447.168L445.077 475.841L442.986 472.273ZM458.602 472.273H456.738V470.182H455.398V472.273H454.079V473.409H455.398V478.864C455.398 480.386 456.625 481.114 457.761 481.114C458.261 481.114 458.579 481.023 458.761 480.955L458.488 479.75C458.375 479.773 458.193 479.818 457.898 479.818C457.307 479.818 456.738 479.636 456.738 478.5V473.409H458.602V472.273ZM463.911 481.182C466.274 481.182 467.865 479.386 467.865 476.682C467.865 473.955 466.274 472.159 463.911 472.159C461.547 472.159 459.956 473.955 459.956 476.682C459.956 479.386 461.547 481.182 463.911 481.182ZM463.911 479.977C462.115 479.977 461.297 478.432 461.297 476.682C461.297 474.932 462.115 473.364 463.911 473.364C465.706 473.364 466.524 474.932 466.524 476.682C466.524 478.432 465.706 479.977 463.911 479.977ZM477.638 481.182C480.001 481.182 481.592 479.386 481.592 476.682C481.592 473.955 480.001 472.159 477.638 472.159C475.274 472.159 473.683 473.955 473.683 476.682C473.683 479.386 475.274 481.182 477.638 481.182ZM477.638 479.977C475.842 479.977 475.024 478.432 475.024 476.682C475.024 474.932 475.842 473.364 477.638 473.364C479.433 473.364 480.251 474.932 480.251 476.682C480.251 478.432 479.433 479.977 477.638 479.977ZM483.479 484.273H484.82V479.659H484.934C485.229 480.136 485.797 481.182 487.479 481.182C489.661 481.182 491.184 479.432 491.184 476.659C491.184 473.909 489.661 472.159 487.456 472.159C485.752 472.159 485.229 473.205 484.934 473.659H484.775V472.273H483.479V484.273ZM484.797 476.636C484.797 474.682 485.661 473.364 487.297 473.364C489.002 473.364 489.843 474.795 489.843 476.636C489.843 478.5 488.979 479.977 487.297 479.977C485.684 479.977 484.797 478.614 484.797 476.636ZM496.728 481.182C498.501 481.182 499.796 480.295 500.206 478.977L498.91 478.614C498.569 479.523 497.779 479.977 496.728 479.977C495.154 479.977 494.069 478.96 494.007 477.091H500.342V476.523C500.342 473.273 498.41 472.159 496.592 472.159C494.228 472.159 492.66 474.023 492.66 476.705C492.66 479.386 494.206 481.182 496.728 481.182ZM494.007 475.932C494.098 474.574 495.058 473.364 496.592 473.364C498.046 473.364 498.978 474.455 498.978 475.932H494.007ZM502.222 481H503.563V475.477C503.563 474.295 504.494 473.432 505.767 473.432C506.125 473.432 506.494 473.5 506.585 473.523V472.159C506.432 472.148 506.08 472.136 505.881 472.136C504.835 472.136 503.926 472.727 503.608 473.591H503.517V472.273H502.222V481ZM510.583 481.205C512.106 481.205 512.901 480.386 513.174 479.818H513.242V481H514.583V475.25C514.583 472.477 512.469 472.159 511.356 472.159C510.037 472.159 508.537 472.614 507.856 474.205L509.128 474.659C509.424 474.023 510.123 473.341 511.401 473.341C512.634 473.341 513.242 473.994 513.242 475.114V475.159C513.242 475.807 512.583 475.75 510.992 475.955C509.373 476.165 507.606 476.523 507.606 478.523C507.606 480.227 508.924 481.205 510.583 481.205ZM510.787 480C509.719 480 508.947 479.523 508.947 478.591C508.947 477.568 509.878 477.25 510.924 477.114C511.492 477.045 513.015 476.886 513.242 476.614V477.841C513.242 478.932 512.378 480 510.787 480ZM520.666 472.273H518.802V470.182H517.461V472.273H516.143V473.409H517.461V478.864C517.461 480.386 518.689 481.114 519.825 481.114C520.325 481.114 520.643 481.023 520.825 480.955L520.552 479.75C520.439 479.773 520.257 479.818 519.961 479.818C519.37 479.818 518.802 479.636 518.802 478.5V473.409H520.666V472.273ZM526.088 481.182C527.861 481.182 529.156 480.295 529.566 478.977L528.27 478.614C527.929 479.523 527.139 479.977 526.088 479.977C524.514 479.977 523.429 478.96 523.367 477.091H529.702V476.523C529.702 473.273 527.77 472.159 525.952 472.159C523.588 472.159 522.02 474.023 522.02 476.705C522.02 479.386 523.566 481.182 526.088 481.182ZM523.367 475.932C523.458 474.574 524.418 473.364 525.952 473.364C527.406 473.364 528.338 474.455 528.338 475.932H523.367Z" fill="#393946"/>
<path d="M391.773 512.273H393.136C393.074 510.517 391.455 509.205 389.205 509.205C386.977 509.205 385.227 510.5 385.227 512.455C385.227 514.023 386.364 514.955 388.182 515.477L389.614 515.886C390.841 516.227 391.932 516.659 391.932 517.818C391.932 519.091 390.705 519.932 389.091 519.932C387.705 519.932 386.477 519.318 386.364 518H384.909C385.045 519.909 386.591 521.205 389.091 521.205C391.773 521.205 393.295 519.727 393.295 517.841C393.295 515.659 391.227 514.955 390.023 514.636L388.841 514.318C387.977 514.091 386.591 513.636 386.591 512.386C386.591 511.273 387.614 510.455 389.159 510.455C390.568 510.455 391.636 511.125 391.773 512.273ZM396.611 509.364H395.27V521H396.611V509.364ZM402.453 521.182C404.816 521.182 406.407 519.386 406.407 516.682C406.407 513.955 404.816 512.159 402.453 512.159C400.089 512.159 398.498 513.955 398.498 516.682C398.498 519.386 400.089 521.182 402.453 521.182ZM402.453 519.977C400.657 519.977 399.839 518.432 399.839 516.682C399.839 514.932 400.657 513.364 402.453 513.364C404.248 513.364 405.066 514.932 405.066 516.682C405.066 518.432 404.248 519.977 402.453 519.977ZM409.975 521H411.293L413.202 514.295H413.338L415.247 521H416.565L419.225 512.273H417.815L415.929 518.932H415.838L413.997 512.273H412.565L410.702 518.955H410.611L408.725 512.273H407.315L409.975 521ZM432.473 524.273V512.273H431.177V513.659H431.018C430.723 513.205 430.2 512.159 428.495 512.159C426.291 512.159 424.768 513.909 424.768 516.659C424.768 519.432 426.291 521.182 428.473 521.182C430.155 521.182 430.723 520.136 431.018 519.659H431.132V524.273H432.473ZM431.155 516.636C431.155 518.614 430.268 519.977 428.655 519.977C426.973 519.977 426.109 518.5 426.109 516.636C426.109 514.795 426.95 513.364 428.655 513.364C430.291 513.364 431.155 514.682 431.155 516.636ZM440.267 517.432C440.267 519.068 439.017 519.818 438.017 519.818C436.904 519.818 436.108 519 436.108 517.727V512.273H434.767V517.818C434.767 520.045 435.949 521.114 437.585 521.114C438.904 521.114 439.767 520.409 440.176 519.523H440.267V521H441.608V512.273H440.267V517.432ZM447.563 521.182C449.336 521.182 450.631 520.295 451.041 518.977L449.745 518.614C449.404 519.523 448.614 519.977 447.563 519.977C445.989 519.977 444.904 518.96 444.842 517.091H451.177V516.523C451.177 513.273 449.245 512.159 447.427 512.159C445.063 512.159 443.495 514.023 443.495 516.705C443.495 519.386 445.041 521.182 447.563 521.182ZM444.842 515.932C444.933 514.574 445.893 513.364 447.427 513.364C448.881 513.364 449.813 514.455 449.813 515.932H444.842ZM453.057 521H454.398V515.477C454.398 514.295 455.329 513.432 456.602 513.432C456.96 513.432 457.329 513.5 457.42 513.523V512.159C457.267 512.148 456.915 512.136 456.716 512.136C455.67 512.136 454.761 512.727 454.443 513.591H454.352V512.273H453.057V521ZM458.85 521H460.191V512.273H458.85V521ZM459.532 510.818C460.054 510.818 460.486 510.409 460.486 509.909C460.486 509.409 460.054 509 459.532 509C459.009 509 458.577 509.409 458.577 509.909C458.577 510.409 459.009 510.818 459.532 510.818ZM466.146 521.182C467.918 521.182 469.214 520.295 469.623 518.977L468.328 518.614C467.987 519.523 467.197 519.977 466.146 519.977C464.572 519.977 463.487 518.96 463.424 517.091H469.759V516.523C469.759 513.273 467.828 512.159 466.009 512.159C463.646 512.159 462.078 514.023 462.078 516.705C462.078 519.386 463.623 521.182 466.146 521.182ZM463.424 515.932C463.515 514.574 464.475 513.364 466.009 513.364C467.464 513.364 468.396 514.455 468.396 515.932H463.424ZM477.821 514.227C477.401 512.989 476.457 512.159 474.73 512.159C472.889 512.159 471.526 513.205 471.526 514.682C471.526 515.886 472.241 516.693 473.844 517.068L475.298 517.409C476.179 517.614 476.594 518.034 476.594 518.636C476.594 519.386 475.798 520 474.548 520C473.452 520 472.764 519.528 472.526 518.591L471.253 518.909C471.565 520.392 472.787 521.182 474.571 521.182C476.599 521.182 477.98 520.074 477.98 518.568C477.98 517.352 477.219 516.585 475.662 516.205L474.366 515.886C473.332 515.631 472.866 515.284 472.866 514.614C472.866 513.864 473.662 513.318 474.73 513.318C475.901 513.318 476.383 513.966 476.616 514.568L477.821 514.227Z" fill="#393946"/>
<rect x="36.5" y="20.5" width="946" height="284" rx="4.5" fill="#FDFCFD" stroke="#CACAD3"/>
<line x1="4.37114e-08" y1="401.5" x2="1018" y2="401.5" stroke="#D8D8DF"/>
<path d="M41.4808 438.515C41.3288 438.515 41.1803 438.559 41.054 438.641C40.9276 438.723 40.8292 438.84 40.771 438.977C40.7129 439.113 40.6977 439.264 40.7273 439.409C40.757 439.554 40.8301 439.687 40.9376 439.791C41.045 439.896 41.1819 439.967 41.3309 439.996C41.4799 440.025 41.6344 440.01 41.7748 439.953C41.9151 439.897 42.0351 439.801 42.1195 439.678C42.2039 439.555 42.249 439.411 42.249 439.263C42.249 439.065 42.1681 438.874 42.024 438.734C41.8799 438.594 41.6845 438.515 41.4808 438.515ZM49.6777 439.614L43.4935 429.15C43.2936 428.801 43.0017 428.511 42.6479 428.309C42.294 428.107 41.8911 428 41.4808 428C41.0704 428 40.6675 428.107 40.3137 428.309C39.9599 428.511 39.6679 428.801 39.468 429.15L33.3223 439.614C33.1155 439.953 33.0043 440.34 33.0001 440.734C32.9959 441.129 33.0987 441.517 33.2982 441.861C33.4977 442.204 33.7868 442.49 34.1364 442.69C34.4859 442.89 34.8834 442.997 35.2889 443H47.6726C48.0814 443.004 48.4838 442.902 48.8387 442.705C49.1936 442.507 49.4882 442.222 49.6923 441.877C49.8963 441.533 50.0025 441.141 50 440.744C49.9974 440.346 49.8862 439.956 49.6777 439.614V439.614ZM48.3487 441.109C48.2813 441.225 48.1831 441.322 48.0642 441.389C47.9453 441.456 47.8101 441.491 47.6726 441.49H35.2889C35.1515 441.491 35.0163 441.456 34.8974 441.389C34.7785 441.322 34.6802 441.225 34.6129 441.109C34.5455 440.995 34.51 440.866 34.51 440.735C34.51 440.604 34.5455 440.475 34.6129 440.361L40.7587 429.897C40.8231 429.775 40.9211 429.672 41.0417 429.601C41.1623 429.529 41.301 429.491 41.4424 429.491C41.5838 429.491 41.7224 429.529 41.843 429.601C41.9637 429.672 42.0616 429.775 42.1261 429.897L48.3103 440.361C48.3865 440.473 48.4303 440.603 48.437 440.738C48.4438 440.872 48.4133 441.005 48.3487 441.124V441.109ZM41.4808 432.536C41.277 432.536 41.0816 432.615 40.9376 432.755C40.7935 432.895 40.7126 433.085 40.7126 433.283V436.273C40.7126 436.471 40.7935 436.661 40.9376 436.802C41.0816 436.942 41.277 437.02 41.4808 437.02C41.6845 437.02 41.8799 436.942 42.024 436.802C42.1681 436.661 42.249 436.471 42.249 436.273V433.283C42.249 433.085 42.1681 432.895 42.024 432.755C41.8799 432.615 41.6845 432.536 41.4808 432.536Z" fill="#393946"/>
<path d="M367.481 438.515C367.329 438.515 367.18 438.559 367.054 438.641C366.928 438.723 366.829 438.84 366.771 438.977C366.713 439.113 366.698 439.264 366.727 439.409C366.757 439.554 366.83 439.687 366.938 439.791C367.045 439.896 367.182 439.967 367.331 439.996C367.48 440.025 367.634 440.01 367.775 439.953C367.915 439.897 368.035 439.801 368.12 439.678C368.204 439.555 368.249 439.411 368.249 439.263C368.249 439.065 368.168 438.874 368.024 438.734C367.88 438.594 367.685 438.515 367.481 438.515ZM375.678 439.614L369.494 429.15C369.294 428.801 369.002 428.511 368.648 428.309C368.294 428.107 367.891 428 367.481 428C367.07 428 366.668 428.107 366.314 428.309C365.96 428.511 365.668 428.801 365.468 429.15L359.322 439.614C359.115 439.953 359.004 440.34 359 440.734C358.996 441.129 359.099 441.517 359.298 441.861C359.498 442.204 359.787 442.49 360.136 442.69C360.486 442.89 360.883 442.997 361.289 443H373.673C374.081 443.004 374.484 442.902 374.839 442.705C375.194 442.507 375.488 442.222 375.692 441.877C375.896 441.533 376.003 441.141 376 440.744C375.997 440.346 375.886 439.956 375.678 439.614V439.614ZM374.349 441.109C374.281 441.225 374.183 441.322 374.064 441.389C373.945 441.456 373.81 441.491 373.673 441.49H361.289C361.151 441.491 361.016 441.456 360.897 441.389C360.778 441.322 360.68 441.225 360.613 441.109C360.545 440.995 360.51 440.866 360.51 440.735C360.51 440.604 360.545 440.475 360.613 440.361L366.759 429.897C366.823 429.775 366.921 429.672 367.042 429.601C367.162 429.529 367.301 429.491 367.442 429.491C367.584 429.491 367.722 429.529 367.843 429.601C367.964 429.672 368.062 429.775 368.126 429.897L374.31 440.361C374.386 440.473 374.43 440.603 374.437 440.738C374.444 440.872 374.413 441.005 374.349 441.124V441.109ZM367.481 432.536C367.277 432.536 367.082 432.615 366.938 432.755C366.793 432.895 366.713 433.085 366.713 433.283V436.273C366.713 436.471 366.793 436.661 366.938 436.802C367.082 436.942 367.277 437.02 367.481 437.02C367.685 437.02 367.88 436.942 368.024 436.802C368.168 436.661 368.249 436.471 368.249 436.273V433.283C368.249 433.085 368.168 432.895 368.024 432.755C367.88 432.615 367.685 432.536 367.481 432.536Z" fill="#393946"/>
<path d="M646.481 438.515C646.329 438.515 646.18 438.559 646.054 438.641C645.928 438.723 645.829 438.84 645.771 438.977C645.713 439.113 645.698 439.264 645.727 439.409C645.757 439.554 645.83 439.687 645.938 439.791C646.045 439.896 646.182 439.967 646.331 439.996C646.48 440.025 646.634 440.01 646.775 439.953C646.915 439.897 647.035 439.801 647.12 439.678C647.204 439.555 647.249 439.411 647.249 439.263C647.249 439.065 647.168 438.874 647.024 438.734C646.88 438.594 646.685 438.515 646.481 438.515ZM654.678 439.614L648.494 429.15C648.294 428.801 648.002 428.511 647.648 428.309C647.294 428.107 646.891 428 646.481 428C646.07 428 645.668 428.107 645.314 428.309C644.96 428.511 644.668 428.801 644.468 429.15L638.322 439.614C638.115 439.953 638.004 440.34 638 440.734C637.996 441.129 638.099 441.517 638.298 441.861C638.498 442.204 638.787 442.49 639.136 442.69C639.486 442.89 639.883 442.997 640.289 443H652.673C653.081 443.004 653.484 442.902 653.839 442.705C654.194 442.507 654.488 442.222 654.692 441.877C654.896 441.533 655.003 441.141 655 440.744C654.997 440.346 654.886 439.956 654.678 439.614V439.614ZM653.349 441.109C653.281 441.225 653.183 441.322 653.064 441.389C652.945 441.456 652.81 441.491 652.673 441.49H640.289C640.151 441.491 640.016 441.456 639.897 441.389C639.778 441.322 639.68 441.225 639.613 441.109C639.545 440.995 639.51 440.866 639.51 440.735C639.51 440.604 639.545 440.475 639.613 440.361L645.759 429.897C645.823 429.775 645.921 429.672 646.042 429.601C646.162 429.529 646.301 429.491 646.442 429.491C646.584 429.491 646.722 429.529 646.843 429.601C646.964 429.672 647.062 429.775 647.126 429.897L653.31 440.361C653.386 440.473 653.43 440.603 653.437 440.738C653.444 440.872 653.413 441.005 653.349 441.124V441.109ZM646.481 432.536C646.277 432.536 646.082 432.615 645.938 432.755C645.793 432.895 645.713 433.085 645.713 433.283V436.273C645.713 436.471 645.793 436.661 645.938 436.802C646.082 436.942 646.277 437.02 646.481 437.02C646.685 437.02 646.88 436.942 647.024 436.802C647.168 436.661 647.249 436.471 647.249 436.273V433.283C647.249 433.085 647.168 432.895 647.024 432.755C646.88 432.615 646.685 432.536 646.481 432.536Z" fill="#393946"/>
<path d="M41.4808 479.515C41.3288 479.515 41.1803 479.559 41.054 479.641C40.9276 479.723 40.8292 479.84 40.771 479.977C40.7129 480.113 40.6977 480.264 40.7273 480.409C40.757 480.554 40.8301 480.687 40.9376 480.791C41.045 480.896 41.1819 480.967 41.3309 480.996C41.4799 481.025 41.6344 481.01 41.7748 480.953C41.9151 480.897 42.0351 480.801 42.1195 480.678C42.2039 480.555 42.249 480.411 42.249 480.263C42.249 480.065 42.1681 479.874 42.024 479.734C41.8799 479.594 41.6845 479.515 41.4808 479.515ZM49.6777 480.614L43.4935 470.15C43.2936 469.801 43.0017 469.511 42.6479 469.309C42.294 469.107 41.8911 469 41.4808 469C41.0704 469 40.6675 469.107 40.3137 469.309C39.9599 469.511 39.6679 469.801 39.468 470.15L33.3223 480.614C33.1155 480.953 33.0043 481.34 33.0001 481.734C32.9959 482.129 33.0987 482.517 33.2982 482.861C33.4977 483.204 33.7868 483.49 34.1364 483.69C34.4859 483.89 34.8834 483.997 35.2889 484H47.6726C48.0814 484.004 48.4838 483.902 48.8387 483.705C49.1936 483.507 49.4882 483.222 49.6923 482.877C49.8963 482.533 50.0025 482.141 50 481.744C49.9974 481.346 49.8862 480.956 49.6777 480.614V480.614ZM48.3487 482.109C48.2813 482.225 48.1831 482.322 48.0642 482.389C47.9453 482.456 47.8101 482.491 47.6726 482.49H35.2889C35.1515 482.491 35.0163 482.456 34.8974 482.389C34.7785 482.322 34.6802 482.225 34.6129 482.109C34.5455 481.995 34.51 481.866 34.51 481.735C34.51 481.604 34.5455 481.475 34.6129 481.361L40.7587 470.897C40.8231 470.775 40.9211 470.672 41.0417 470.601C41.1623 470.529 41.301 470.491 41.4424 470.491C41.5838 470.491 41.7224 470.529 41.843 470.601C41.9637 470.672 42.0616 470.775 42.1261 470.897L48.3103 481.361C48.3865 481.473 48.4303 481.603 48.437 481.738C48.4438 481.872 48.4133 482.005 48.3487 482.124V482.109ZM41.4808 473.536C41.277 473.536 41.0816 473.615 40.9376 473.755C40.7935 473.895 40.7126 474.085 40.7126 474.283V477.273C40.7126 477.471 40.7935 477.661 40.9376 477.802C41.0816 477.942 41.277 478.02 41.4808 478.02C41.6845 478.02 41.8799 477.942 42.024 477.802C42.1681 477.661 42.249 477.471 42.249 477.273V474.283C42.249 474.085 42.1681 473.895 42.024 473.755C41.8799 473.615 41.6845 473.536 41.4808 473.536Z" fill="#393946"/>
<path d="M367.481 479.515C367.329 479.515 367.18 479.559 367.054 479.641C366.928 479.723 366.829 479.84 366.771 479.977C366.713 480.113 366.698 480.264 366.727 480.409C366.757 480.554 366.83 480.687 366.938 480.791C367.045 480.896 367.182 480.967 367.331 480.996C367.48 481.025 367.634 481.01 367.775 480.953C367.915 480.897 368.035 480.801 368.12 480.678C368.204 480.555 368.249 480.411 368.249 480.263C368.249 480.065 368.168 479.874 368.024 479.734C367.88 479.594 367.685 479.515 367.481 479.515ZM375.678 480.614L369.494 470.15C369.294 469.801 369.002 469.511 368.648 469.309C368.294 469.107 367.891 469 367.481 469C367.07 469 366.668 469.107 366.314 469.309C365.96 469.511 365.668 469.801 365.468 470.15L359.322 480.614C359.115 480.953 359.004 481.34 359 481.734C358.996 482.129 359.099 482.517 359.298 482.861C359.498 483.204 359.787 483.49 360.136 483.69C360.486 483.89 360.883 483.997 361.289 484H373.673C374.081 484.004 374.484 483.902 374.839 483.705C375.194 483.507 375.488 483.222 375.692 482.877C375.896 482.533 376.003 482.141 376 481.744C375.997 481.346 375.886 480.956 375.678 480.614V480.614ZM374.349 482.109C374.281 482.225 374.183 482.322 374.064 482.389C373.945 482.456 373.81 482.491 373.673 482.49H361.289C361.151 482.491 361.016 482.456 360.897 482.389C360.778 482.322 360.68 482.225 360.613 482.109C360.545 481.995 360.51 481.866 360.51 481.735C360.51 481.604 360.545 481.475 360.613 481.361L366.759 470.897C366.823 470.775 366.921 470.672 367.042 470.601C367.162 470.529 367.301 470.491 367.442 470.491C367.584 470.491 367.722 470.529 367.843 470.601C367.964 470.672 368.062 470.775 368.126 470.897L374.31 481.361C374.386 481.473 374.43 481.603 374.437 481.738C374.444 481.872 374.413 482.005 374.349 482.124V482.109ZM367.481 473.536C367.277 473.536 367.082 473.615 366.938 473.755C366.793 473.895 366.713 474.085 366.713 474.283V477.273C366.713 477.471 366.793 477.661 366.938 477.802C367.082 477.942 367.277 478.02 367.481 478.02C367.685 478.02 367.88 477.942 368.024 477.802C368.168 477.661 368.249 477.471 368.249 477.273V474.283C368.249 474.085 368.168 473.895 368.024 473.755C367.88 473.615 367.685 473.536 367.481 473.536Z" fill="#393946"/>
<path d="M367.481 518.515C367.329 518.515 367.18 518.559 367.054 518.641C366.928 518.723 366.829 518.84 366.771 518.977C366.713 519.113 366.698 519.264 366.727 519.409C366.757 519.554 366.83 519.687 366.938 519.791C367.045 519.896 367.182 519.967 367.331 519.996C367.48 520.025 367.634 520.01 367.775 519.953C367.915 519.897 368.035 519.801 368.12 519.678C368.204 519.555 368.249 519.411 368.249 519.263C368.249 519.065 368.168 518.874 368.024 518.734C367.88 518.594 367.685 518.515 367.481 518.515ZM375.678 519.614L369.494 509.15C369.294 508.801 369.002 508.511 368.648 508.309C368.294 508.107 367.891 508 367.481 508C367.07 508 366.668 508.107 366.314 508.309C365.96 508.511 365.668 508.801 365.468 509.15L359.322 519.614C359.115 519.953 359.004 520.34 359 520.734C358.996 521.129 359.099 521.517 359.298 521.861C359.498 522.204 359.787 522.49 360.136 522.69C360.486 522.89 360.883 522.997 361.289 523H373.673C374.081 523.004 374.484 522.902 374.839 522.705C375.194 522.507 375.488 522.222 375.692 521.877C375.896 521.533 376.003 521.141 376 520.744C375.997 520.346 375.886 519.956 375.678 519.614V519.614ZM374.349 521.109C374.281 521.225 374.183 521.322 374.064 521.389C373.945 521.456 373.81 521.491 373.673 521.49H361.289C361.151 521.491 361.016 521.456 360.897 521.389C360.778 521.322 360.68 521.225 360.613 521.109C360.545 520.995 360.51 520.866 360.51 520.735C360.51 520.604 360.545 520.475 360.613 520.361L366.759 509.897C366.823 509.775 366.921 509.672 367.042 509.601C367.162 509.529 367.301 509.491 367.442 509.491C367.584 509.491 367.722 509.529 367.843 509.601C367.964 509.672 368.062 509.775 368.126 509.897L374.31 520.361C374.386 520.473 374.43 520.603 374.437 520.738C374.444 520.872 374.413 521.005 374.349 521.124V521.109ZM367.481 512.536C367.277 512.536 367.082 512.615 366.938 512.755C366.793 512.895 366.713 513.085 366.713 513.283V516.273C366.713 516.471 366.793 516.661 366.938 516.802C367.082 516.942 367.277 517.02 367.481 517.02C367.685 517.02 367.88 516.942 368.024 516.802C368.168 516.661 368.249 516.471 368.249 516.273V513.283C368.249 513.085 368.168 512.895 368.024 512.755C367.88 512.615 367.685 512.536 367.481 512.536Z" fill="#393946"/>
<path d="M41.4808 519.515C41.3288 519.515 41.1803 519.559 41.054 519.641C40.9276 519.723 40.8292 519.84 40.771 519.977C40.7129 520.113 40.6977 520.264 40.7273 520.409C40.757 520.554 40.8301 520.687 40.9376 520.791C41.045 520.896 41.1819 520.967 41.3309 520.996C41.4799 521.025 41.6344 521.01 41.7748 520.953C41.9151 520.897 42.0351 520.801 42.1195 520.678C42.2039 520.555 42.249 520.411 42.249 520.263C42.249 520.065 42.1681 519.874 42.024 519.734C41.8799 519.594 41.6845 519.515 41.4808 519.515ZM49.6777 520.614L43.4935 510.15C43.2936 509.801 43.0017 509.511 42.6479 509.309C42.294 509.107 41.8911 509 41.4808 509C41.0704 509 40.6675 509.107 40.3137 509.309C39.9599 509.511 39.6679 509.801 39.468 510.15L33.3223 520.614C33.1155 520.953 33.0043 521.34 33.0001 521.734C32.9959 522.129 33.0987 522.517 33.2982 522.861C33.4977 523.204 33.7868 523.49 34.1364 523.69C34.4859 523.89 34.8834 523.997 35.2889 524H47.6726C48.0814 524.004 48.4838 523.902 48.8387 523.705C49.1936 523.507 49.4882 523.222 49.6923 522.877C49.8963 522.533 50.0025 522.141 50 521.744C49.9974 521.346 49.8862 520.956 49.6777 520.614V520.614ZM48.3487 522.109C48.2813 522.225 48.1831 522.322 48.0642 522.389C47.9453 522.456 47.8101 522.491 47.6726 522.49H35.2889C35.1515 522.491 35.0163 522.456 34.8974 522.389C34.7785 522.322 34.6802 522.225 34.6129 522.109C34.5455 521.995 34.51 521.866 34.51 521.735C34.51 521.604 34.5455 521.475 34.6129 521.361L40.7587 510.897C40.8231 510.775 40.9211 510.672 41.0417 510.601C41.1623 510.529 41.301 510.491 41.4424 510.491C41.5838 510.491 41.7224 510.529 41.843 510.601C41.9637 510.672 42.0616 510.775 42.1261 510.897L48.3103 521.361C48.3865 521.473 48.4303 521.603 48.437 521.738C48.4438 521.872 48.4133 522.005 48.3487 522.124V522.109ZM41.4808 513.536C41.277 513.536 41.0816 513.615 40.9376 513.755C40.7935 513.895 40.7126 514.085 40.7126 514.283V517.273C40.7126 517.471 40.7935 517.661 40.9376 517.802C41.0816 517.942 41.277 518.02 41.4808 518.02C41.6845 518.02 41.8799 517.942 42.024 517.802C42.1681 517.661 42.249 517.471 42.249 517.273V514.283C42.249 514.085 42.1681 513.895 42.024 513.755C41.8799 513.615 41.6845 513.536 41.4808 513.536Z" fill="#393946"/>
</svg>
