<svg width="334" height="220" viewBox="0 0 334 220" fill="none" xmlns="http://www.w3.org/2000/svg">
<path opacity="0.4" fill-rule="evenodd" clip-rule="evenodd" d="M147.651 33.6022C131.134 43.3773 119.137 60.7961 119.137 85.6271V105.393L101.403 96.5531C78.2503 85.0126 51.6121 94.2916 39.1001 116.119C31.6252 129.159 31.2301 149.061 40.4418 165.898C49.2453 181.989 67.0894 195.568 97.0794 195.568L249.021 195.568C268.822 195.568 281.634 190.114 289.319 183.354C296.975 176.621 300.492 167.801 300.492 158.921C300.492 149.729 296.731 139.467 289.374 132.134C282.355 125.138 271.455 120.184 255.442 122.18L238.188 124.33L241.96 107.408C246.453 87.255 245.055 70.5809 239.12 57.7636C233.288 45.1653 222.49 35.0059 205.506 28.6571C186.384 21.5087 164.537 23.609 147.651 33.6022ZM135.14 12.5939C158.418 -1.18227 188.033 -3.96799 214.111 5.78109C236.34 14.091 252.5 28.3629 261.372 47.5253C268.256 62.3949 270.385 79.404 268.414 97.5537C284.219 98.8734 297.161 105.347 306.702 114.857C318.955 127.07 325 143.682 325 158.921C325 174.473 318.711 190.085 305.533 201.675C292.384 213.239 273.333 220 249.021 220L97.0794 220C58.4465 220 32.1781 201.818 18.9264 177.597C6.08301 154.122 5.69005 125.161 17.8218 103.997C33.5198 76.6119 65.0753 61.7686 96.0934 68.8547C100.672 43.4221 115.588 24.1656 135.14 12.5939Z" fill="#FDD9BE"/>
<path d="M237.784 42.5H330.216C331.457 42.5 332.5 43.5268 332.5 44.8392V182.161C332.5 183.473 331.457 184.5 330.216 184.5H237.784C236.543 184.5 235.5 183.473 235.5 182.161V44.8392C235.5 43.5268 236.543 42.5 237.784 42.5Z" stroke="#FB755A" stroke-width="3"/>
<path d="M250.053 102.483C248.027 97.9317 246.991 93.0029 247.012 88.0219C247.012 78.4333 250.826 69.2374 257.615 62.4572C264.405 55.6771 273.613 51.868 283.215 51.868C292.817 51.868 302.025 55.6771 308.815 62.4572C315.604 69.2374 319.418 78.4333 319.418 88.0219C319.443 93.0022 318.41 97.931 316.388 102.483L307.078 98.4445C308.792 94.4766 309.492 90.1455 309.115 85.8406C308.738 81.5357 307.295 77.3918 304.917 73.7814C302.539 70.1709 299.301 67.207 295.492 65.1561C291.683 63.1052 287.423 62.0315 283.096 62.0315C278.769 62.0315 274.509 63.1052 270.7 65.1561C266.891 67.207 263.652 70.1709 261.274 73.7814C258.897 77.3918 257.454 81.5357 257.077 85.8406C256.7 90.1455 257.4 94.4766 259.114 98.4445L250.053 102.483Z" fill="#FB755A"/>
<path d="M271.063 89.4368H296.623V85.9041H271.021L271.063 89.4368Z" fill="#FBC55A"/>
<path d="M250.614 169.109C248.589 164.557 247.553 159.629 247.573 154.648C247.573 145.059 251.387 135.863 258.176 129.083C264.966 122.303 274.174 118.494 283.776 118.494C293.378 118.494 302.586 122.303 309.376 129.083C316.165 135.863 319.979 145.059 319.979 154.648C320.003 159.628 318.97 164.557 316.949 169.109L307.639 165.06C309.353 161.092 310.053 156.761 309.676 152.456C309.299 148.151 307.856 144.007 305.478 140.397C303.1 136.787 299.862 133.823 296.053 131.772C292.244 129.721 287.984 128.647 283.657 128.647C279.33 128.647 275.07 129.721 271.261 131.772C267.452 133.823 264.213 136.787 261.835 140.397C259.458 144.007 258.015 148.151 257.638 152.456C257.261 156.761 257.961 161.092 259.675 165.06L250.614 169.109Z" fill="#FB9D5A"/>
<path d="M270.846 158.533H296.406V155H270.805L270.846 158.533Z" fill="#FBC55A"/>
<path d="M197 155V143H0V155H197Z" fill="#FB5A67"/>
<path d="M94 155V143H0V155H94Z" fill="#FB9D5A"/>
<path d="M70.1899 114.356H42V122.146H70.1899V114.356Z" fill="#FB9D5A"/>
<path d="M106.886 105.108H78.7026V122.146H106.893L106.886 105.108Z" fill="#FB9D5A"/>
<path d="M143.582 99.1882H115.392V122.146H143.582V99.1882Z" fill="#FB9D5A"/>
<path d="M180.278 90.9507H152.095V122.145H180.285L180.278 90.9507Z" fill="#FB9D5A"/>
<path d="M217.506 83.3434H188.785V122.146H217.506V83.3434Z" fill="#FB9D5A"/>
<path d="M197 175V163H0V175H197Z" fill="#FB5A67"/>
<path d="M137 175V163H0V175H137Z" fill="#FB9D5A"/>
</svg>
