<svg width="630" height="106" viewBox="0 0 630 106" fill="none" xmlns="http://www.w3.org/2000/svg">
<rect width="354" height="48" rx="24" fill="#FDE8BE"/>
<path d="M20.9631 30H22.5994L25.4886 19.5682H25.5909L28.4801 30H30.1165L33.696 16.9091H32.0852L29.3494 27.571H29.2216L26.4347 16.9091H24.6449L21.858 27.571H21.7301L18.9943 16.9091H17.3835L20.9631 30ZM36.7951 24.0938C36.7951 22.3807 37.8882 21.4091 39.3775 21.4091C40.7966 21.4091 41.6531 22.304 41.6531 23.8636V30H43.1616V23.7614C43.1616 21.2365 41.8193 20.054 39.8122 20.054C38.2653 20.054 37.3832 20.6996 36.923 21.7159H36.7951V16.9091H35.2866V30H36.7951V24.0938ZM46.3614 33.6818C47.7229 33.6818 48.6817 32.9595 49.2506 31.4318L53.431 20.2074L51.7819 20.1818L49.0716 28.0057H48.9694L46.2591 20.1818H44.6228L48.2535 30.0511L47.9722 30.8182C47.4225 32.3139 46.7449 32.4545 45.6455 32.1733L45.262 33.5028C45.4154 33.5795 45.85 33.6818 46.3614 33.6818ZM62.3539 30H63.8368L65.9845 22.4574H66.138L68.2857 30H69.7686L72.7601 20.1818H71.1749L69.0527 27.6733H68.9505L66.8794 20.1818H65.2686L63.172 27.6989H63.0698L60.9476 20.1818H59.3624L62.3539 30ZM77.4636 30.2301C79.1767 30.2301 80.0716 29.3097 80.3784 28.6705H80.4551V30H81.9636V23.5312C81.9636 20.4119 79.5858 20.054 78.333 20.054C76.85 20.054 75.1625 20.5653 74.3955 22.3551L75.8273 22.8665C76.1597 22.1506 76.9459 21.3835 78.3841 21.3835C79.7712 21.3835 80.4551 22.1186 80.4551 23.3778V23.429C80.4551 24.1577 79.7136 24.0938 77.9239 24.3239C76.1021 24.5604 74.1142 24.9631 74.1142 27.2131C74.1142 29.1307 75.5972 30.2301 77.4636 30.2301ZM77.6937 28.875C76.492 28.875 75.6227 28.3381 75.6227 27.2898C75.6227 26.1392 76.671 25.7812 77.8472 25.6278C78.4864 25.5511 80.1994 25.3722 80.4551 25.0653V26.446C80.4551 27.6733 79.4835 28.875 77.6937 28.875ZM91.4916 22.3807C91.0185 20.9872 89.9575 20.054 88.0143 20.054C85.9433 20.054 84.4092 21.2301 84.4092 22.892C84.4092 24.2472 85.2146 25.1548 87.0171 25.5767L88.6535 25.9602C89.6443 26.1903 90.1109 26.6634 90.1109 27.3409C90.1109 28.1847 89.216 28.875 87.8097 28.875C86.5761 28.875 85.8026 28.3445 85.5342 27.2898L84.1023 27.6477C84.4539 29.3161 85.8282 30.2045 87.8353 30.2045C90.1173 30.2045 91.6705 28.9581 91.6705 27.2642C91.6705 25.8963 90.814 25.0334 89.0626 24.6051L87.6052 24.2472C86.4418 23.9595 85.9177 23.5696 85.9177 22.8153C85.9177 21.9716 86.8126 21.358 88.0143 21.358C89.331 21.358 89.8744 22.0866 90.1364 22.7642L91.4916 22.3807ZM104.173 20.1818H102.23L102.62 17.8295H100.306L99.9158 20.1818H98.5287L98.2347 21.9716H99.6218L98.7205 27.4304C98.4009 29.2713 99.577 30.179 101.335 30.1342C101.987 30.1151 102.466 29.9872 102.747 29.9041L102.645 28.0952C102.505 28.1207 102.236 28.1847 101.955 28.1847C101.373 28.1847 100.939 27.9801 101.086 27.0469L101.929 21.9716H103.872L104.173 20.1818ZM107.775 24.2472C108.025 22.8281 109.041 22.0099 110.281 22.0099C111.483 22.0099 112.071 22.7834 111.86 24.1065L110.876 30H113.196L114.244 23.7486C114.628 21.3707 113.503 20.054 111.476 20.054C109.955 20.054 108.875 20.7315 108.255 21.8501H108.133L108.952 16.9091H106.682L104.509 30H106.829L107.775 24.2472ZM115.362 30H117.676L119.312 20.1818H116.998L115.362 30ZM118.494 18.7756C119.229 18.7756 119.881 18.2131 119.932 17.5227C119.99 16.826 119.44 16.2635 118.705 16.2635C117.963 16.2635 117.318 16.826 117.254 17.5227C117.196 18.2131 117.759 18.7756 118.494 18.7756ZM128.83 22.777C128.786 21.1087 127.609 20.054 125.27 20.054C122.943 20.054 121.179 21.1726 120.879 22.956C120.629 24.4197 121.396 25.3913 123.218 25.794L124.829 26.1456C125.711 26.3438 126.031 26.6634 125.941 27.1875C125.839 27.8906 124.97 28.4531 123.825 28.4467C122.815 28.4403 122.221 27.9929 122.17 27.1044L119.894 27.3217C119.888 29.1179 121.249 30.1918 123.698 30.1918C126.114 30.1918 128.019 28.9581 128.325 27.1428C128.562 25.6982 127.769 24.8161 125.98 24.4134L124.356 24.0554C123.41 23.8253 123.097 23.5121 123.193 22.9879C123.295 22.2848 124.158 21.7798 125.161 21.7798C126.197 21.7798 126.632 22.3487 126.702 23.0071L128.83 22.777ZM139.455 30.2045C141.628 30.2045 143.06 28.875 143.316 27.1364H141.807C141.526 28.2102 140.631 28.8494 139.455 28.8494C137.665 28.8494 136.515 27.3665 136.515 25.0909C136.515 22.8665 137.691 21.4091 139.455 21.4091C140.785 21.4091 141.577 22.2273 141.807 23.1222H143.316C143.06 21.2812 141.501 20.054 139.43 20.054C136.77 20.054 135.006 22.1506 135.006 25.142C135.006 28.0824 136.694 30.2045 139.455 30.2045ZM151.529 25.9858C151.529 27.8267 150.122 28.6705 148.997 28.6705C147.745 28.6705 146.85 27.75 146.85 26.3182V20.1818H145.341V26.4205C145.341 28.9261 146.671 30.1278 148.512 30.1278C149.995 30.1278 150.966 29.3352 151.426 28.3381H151.529V30H153.037V20.1818H151.529V25.9858ZM162.575 22.3807C162.102 20.9872 161.041 20.054 159.097 20.054C157.026 20.054 155.492 21.2301 155.492 22.892C155.492 24.2472 156.298 25.1548 158.1 25.5767L159.737 25.9602C160.727 26.1903 161.194 26.6634 161.194 27.3409C161.194 28.1847 160.299 28.875 158.893 28.875C157.659 28.875 156.886 28.3445 156.617 27.2898L155.185 27.6477C155.537 29.3161 156.911 30.2045 158.918 30.2045C161.2 30.2045 162.754 28.9581 162.754 27.2642C162.754 25.8963 161.897 25.0334 160.146 24.6051L158.688 24.2472C157.525 23.9595 157.001 23.5696 157.001 22.8153C157.001 21.9716 157.896 21.358 159.097 21.358C160.414 21.358 160.957 22.0866 161.22 22.7642L162.575 22.3807ZM169.114 20.1818H167.018V17.8295H165.509V20.1818H164.026V21.4602H165.509V27.5966C165.509 29.3097 166.89 30.1278 168.168 30.1278C168.731 30.1278 169.089 30.0256 169.293 29.9489L168.986 28.5938C168.859 28.6193 168.654 28.6705 168.322 28.6705C167.657 28.6705 167.018 28.4659 167.018 27.1875V21.4602H169.114V20.1818ZM175.087 30.2045C177.746 30.2045 179.536 28.1847 179.536 25.142C179.536 22.0739 177.746 20.054 175.087 20.054C172.428 20.054 170.638 22.0739 170.638 25.142C170.638 28.1847 172.428 30.2045 175.087 30.2045ZM175.087 28.8494C173.067 28.8494 172.146 27.1108 172.146 25.142C172.146 23.1733 173.067 21.4091 175.087 21.4091C177.107 21.4091 178.027 23.1733 178.027 25.142C178.027 27.1108 177.107 28.8494 175.087 28.8494ZM181.658 30H183.167V23.8636C183.167 22.4254 184.215 21.4091 185.391 21.4091C186.535 21.4091 187.334 22.157 187.334 23.2756V30H188.868V23.608C188.868 22.3423 189.661 21.4091 191.042 21.4091C192.116 21.4091 193.036 21.978 193.036 23.429V30H194.545V23.429C194.545 21.1214 193.305 20.054 191.553 20.054C190.147 20.054 189.118 20.6996 188.613 21.7159H188.511C188.025 20.6676 187.168 20.054 185.877 20.054C184.599 20.054 183.653 20.6676 183.243 21.7159H183.116V20.1818H181.658V30ZM201.239 30.2045C203.234 30.2045 204.691 29.2074 205.151 27.7244L203.694 27.3153C203.31 28.3381 202.422 28.8494 201.239 28.8494C199.469 28.8494 198.248 27.7053 198.177 25.6023H205.305V24.9631C205.305 21.3068 203.131 20.054 201.086 20.054C198.427 20.054 196.663 22.1506 196.663 25.1676C196.663 28.1847 198.401 30.2045 201.239 30.2045ZM198.177 24.2983C198.28 22.7706 199.36 21.4091 201.086 21.4091C202.722 21.4091 203.771 22.6364 203.771 24.2983H198.177ZM207.419 30H208.928V23.7869C208.928 22.4574 209.976 21.4858 211.408 21.4858C211.811 21.4858 212.226 21.5625 212.328 21.5881V20.054C212.156 20.0412 211.76 20.0284 211.536 20.0284C210.36 20.0284 209.337 20.6932 208.979 21.6648H208.877V20.1818H207.419V30ZM215.565 16.9091H214.133V18.0852C214.133 19.0312 213.673 19.8494 213.136 20.6165L213.954 21.2812C214.977 20.4631 215.565 19.108 215.565 18.0597V16.9091ZM222.944 22.3807C222.471 20.9872 221.409 20.054 219.466 20.054C217.395 20.054 215.861 21.2301 215.861 22.892C215.861 24.2472 216.667 25.1548 218.469 25.5767L220.106 25.9602C221.096 26.1903 221.563 26.6634 221.563 27.3409C221.563 28.1847 220.668 28.875 219.262 28.875C218.028 28.875 217.255 28.3445 216.986 27.2898L215.554 27.6477C215.906 29.3161 217.28 30.2045 219.287 30.2045C221.569 30.2045 223.123 28.9581 223.123 27.2642C223.123 25.8963 222.266 25.0334 220.515 24.6051L219.057 24.2472C217.894 23.9595 217.37 23.5696 217.37 22.8153C217.37 21.9716 218.265 21.358 219.466 21.358C220.783 21.358 221.326 22.0866 221.588 22.7642L222.944 22.3807ZM238.303 33.6818V20.1818H236.846V21.7415H236.667C236.334 21.2301 235.746 20.054 233.829 20.054C231.349 20.054 229.636 22.0227 229.636 25.1165C229.636 28.2358 231.349 30.2045 233.803 30.2045C235.695 30.2045 236.334 29.0284 236.667 28.4915H236.795V33.6818H238.303ZM236.82 25.0909C236.82 27.3153 235.823 28.8494 234.008 28.8494C232.116 28.8494 231.144 27.1875 231.144 25.0909C231.144 23.0199 232.09 21.4091 234.008 21.4091C235.849 21.4091 236.82 22.892 236.82 25.0909ZM247.072 25.9858C247.072 27.8267 245.666 28.6705 244.541 28.6705C243.288 28.6705 242.393 27.75 242.393 26.3182V20.1818H240.885V26.4205C240.885 28.9261 242.214 30.1278 244.055 30.1278C245.538 30.1278 246.51 29.3352 246.97 28.3381H247.072V30H248.581V20.1818H247.072V25.9858ZM255.28 30.2045C257.274 30.2045 258.732 29.2074 259.192 27.7244L257.735 27.3153C257.351 28.3381 256.463 28.8494 255.28 28.8494C253.509 28.8494 252.289 27.7053 252.218 25.6023H259.345V24.9631C259.345 21.3068 257.172 20.054 255.127 20.054C252.468 20.054 250.703 22.1506 250.703 25.1676C250.703 28.1847 252.442 30.2045 255.28 30.2045ZM252.218 24.2983C252.321 22.7706 253.401 21.4091 255.127 21.4091C256.763 21.4091 257.811 22.6364 257.811 24.2983H252.218ZM261.46 30H262.969V23.7869C262.969 22.4574 264.017 21.4858 265.449 21.4858C265.851 21.4858 266.267 21.5625 266.369 21.5881V20.054C266.197 20.0412 265.8 20.0284 265.577 20.0284C264.4 20.0284 263.378 20.6932 263.02 21.6648H262.918V20.1818H261.46V30ZM269.248 33.6818C270.609 33.6818 271.568 32.9595 272.137 31.4318L276.317 20.2074L274.668 20.1818L271.958 28.0057H271.856L269.146 20.1818H267.509L271.14 30.0511L270.859 30.8182C270.309 32.3139 269.631 32.4545 268.532 32.1733L268.148 33.5028C268.302 33.5795 268.736 33.6818 269.248 33.6818ZM289.97 22.3807C289.497 20.9872 288.436 20.054 286.493 20.054C284.422 20.054 282.888 21.2301 282.888 22.892C282.888 24.2472 283.693 25.1548 285.496 25.5767L287.132 25.9602C288.123 26.1903 288.59 26.6634 288.59 27.3409C288.59 28.1847 287.695 28.875 286.289 28.875C285.055 28.875 284.281 28.3445 284.013 27.2898L282.581 27.6477C282.933 29.3161 284.307 30.2045 286.314 30.2045C288.596 30.2045 290.149 28.9581 290.149 27.2642C290.149 25.8963 289.293 25.0334 287.541 24.6051L286.084 24.2472C284.921 23.9595 284.397 23.5696 284.397 22.8153C284.397 21.9716 285.291 21.358 286.493 21.358C287.81 21.358 288.353 22.0866 288.615 22.7642L289.97 22.3807ZM293.749 16.9091H292.24V30H293.749V16.9091ZM300.32 30.2045C302.979 30.2045 304.769 28.1847 304.769 25.142C304.769 22.0739 302.979 20.054 300.32 20.054C297.661 20.054 295.871 22.0739 295.871 25.142C295.871 28.1847 297.661 30.2045 300.32 30.2045ZM300.32 28.8494C298.3 28.8494 297.38 27.1108 297.38 25.142C297.38 23.1733 298.3 21.4091 300.32 21.4091C302.34 21.4091 303.261 23.1733 303.261 25.142C303.261 27.1108 302.34 28.8494 300.32 28.8494ZM308.782 30H310.265L312.413 22.4574H312.566L314.714 30H316.197L319.189 20.1818H317.603L315.481 27.6733H315.379L313.308 20.1818H311.697L309.6 27.6989H309.498L307.376 20.1818H305.791L308.782 30ZM322.972 26.3182H324.506V26.2415C324.531 24.6562 324.94 23.9659 326.065 23.2628C327.19 22.5788 327.855 21.5945 327.855 20.1818C327.855 18.1875 326.398 16.7301 324.148 16.7301C322.077 16.7301 320.434 18.0085 320.338 20.1818H321.949C322.045 18.6733 323.099 18.0597 324.148 18.0597C325.349 18.0597 326.321 18.8523 326.321 20.1051C326.321 21.1214 325.739 21.8501 324.992 22.304C323.739 23.0646 322.991 23.8061 322.972 26.2415V26.3182ZM323.79 30.1023C324.423 30.1023 324.94 29.5845 324.94 28.9517C324.94 28.3189 324.423 27.8011 323.79 27.8011C323.157 27.8011 322.639 28.3189 322.639 28.9517C322.639 29.5845 323.157 30.1023 323.79 30.1023Z" fill="#393946"/>
<rect x="46" y="58" width="584" height="48" rx="24" fill="#FDD9BE"/>
<path d="M65.1222 88L66.4389 84.2926H71.7315L73.0483 88H74.7102L69.9034 74.9091H68.267L63.4602 88H65.1222ZM66.9375 82.8864L69.0341 76.9801H69.1364L71.233 82.8864H66.9375ZM77.8733 82.0938C77.8733 80.3807 78.9343 79.4091 80.3789 79.4091C81.7788 79.4091 82.6289 80.3232 82.6289 81.8636V88H84.1375V81.7614C84.1375 79.2557 82.8015 78.054 80.8136 78.054C79.3307 78.054 78.4102 78.7188 77.95 79.7159H77.8221V78.1818H76.3647V88H77.8733V82.0938ZM91.5965 88H93.1051V78.1818H91.5965V88ZM92.3636 76.5455C92.9517 76.5455 93.4374 76.0852 93.4374 75.5227C93.4374 74.9602 92.9517 74.5 92.3636 74.5C91.7755 74.5 91.2897 74.9602 91.2897 75.5227C91.2897 76.0852 91.7755 76.5455 92.3636 76.5455ZM97.1965 82.0938C97.1965 80.3807 98.2576 79.4091 99.7022 79.4091C101.102 79.4091 101.952 80.3232 101.952 81.8636V88H103.461V81.7614C103.461 79.2557 102.125 78.054 100.137 78.054C98.6539 78.054 97.7335 78.7188 97.2733 79.7159H97.1454V78.1818H95.688V88H97.1965V82.0938ZM110.307 78.1818H108.211V75.8295H106.702V78.1818H105.219V79.4602H106.702V85.5966C106.702 87.3097 108.083 88.1278 109.361 88.1278C109.924 88.1278 110.282 88.0256 110.486 87.9489L110.179 86.5938C110.052 86.6193 109.847 86.6705 109.515 86.6705C108.85 86.6705 108.211 86.4659 108.211 85.1875V79.4602H110.307V78.1818ZM116.407 88.2045C118.402 88.2045 119.859 87.2074 120.319 85.7244L118.862 85.3153C118.478 86.3381 117.59 86.8494 116.407 86.8494C114.637 86.8494 113.416 85.7053 113.346 83.6023H120.473V82.9631C120.473 79.3068 118.299 78.054 116.254 78.054C113.595 78.054 111.831 80.1506 111.831 83.1676C111.831 86.1847 113.569 88.2045 116.407 88.2045ZM113.346 82.2983C113.448 80.7706 114.528 79.4091 116.254 79.4091C117.89 79.4091 118.939 80.6364 118.939 82.2983H113.346ZM122.587 88H124.096V81.7869C124.096 80.4574 125.144 79.4858 126.576 79.4858C126.979 79.4858 127.394 79.5625 127.497 79.5881V78.054C127.324 78.0412 126.928 78.0284 126.704 78.0284C125.528 78.0284 124.505 78.6932 124.147 79.6648H124.045V78.1818H122.587V88ZM129.105 88H130.613V81.8636C130.613 80.4254 131.662 79.4091 132.838 79.4091C133.982 79.4091 134.781 80.157 134.781 81.2756V88H136.315V81.608C136.315 80.3423 137.108 79.4091 138.488 79.4091C139.562 79.4091 140.483 79.978 140.483 81.429V88H141.991V81.429C141.991 79.1214 140.751 78.054 139 78.054C137.593 78.054 136.564 78.6996 136.059 79.7159H135.957C135.471 78.6676 134.615 78.054 133.323 78.054C132.045 78.054 131.099 78.6676 130.69 79.7159H130.562V78.1818H129.105V88ZM144.569 88H146.078V78.1818H144.569V88ZM145.336 76.5455C145.924 76.5455 146.41 76.0852 146.41 75.5227C146.41 74.9602 145.924 74.5 145.336 74.5C144.748 74.5 144.262 74.9602 144.262 75.5227C144.262 76.0852 144.748 76.5455 145.336 76.5455ZM152.931 78.1818H150.834V75.8295H149.326V78.1818H147.843V79.4602H149.326V85.5966C149.326 87.3097 150.706 88.1278 151.985 88.1278C152.547 88.1278 152.905 88.0256 153.11 87.9489L152.803 86.5938C152.675 86.6193 152.47 86.6705 152.138 86.6705C151.473 86.6705 150.834 86.4659 150.834 85.1875V79.4602H152.931V78.1818ZM159.29 78.1818H157.193V75.8295H155.685V78.1818H154.202V79.4602H155.685V85.5966C155.685 87.3097 157.065 88.1278 158.344 88.1278C158.906 88.1278 159.264 88.0256 159.469 87.9489L159.162 86.5938C159.034 86.6193 158.829 86.6705 158.497 86.6705C157.832 86.6705 157.193 86.4659 157.193 85.1875V79.4602H159.29V78.1818ZM165.39 88.2045C167.384 88.2045 168.842 87.2074 169.302 85.7244L167.844 85.3153C167.461 86.3381 166.572 86.8494 165.39 86.8494C163.619 86.8494 162.398 85.7053 162.328 83.6023H169.455V82.9631C169.455 79.3068 167.282 78.054 165.236 78.054C162.577 78.054 160.813 80.1506 160.813 83.1676C160.813 86.1847 162.552 88.2045 165.39 88.2045ZM162.328 82.2983C162.43 80.7706 163.511 79.4091 165.236 79.4091C166.873 79.4091 167.921 80.6364 167.921 82.2983H162.328ZM173.079 82.0938C173.079 80.3807 174.14 79.4091 175.584 79.4091C176.984 79.4091 177.834 80.3232 177.834 81.8636V88H179.343V81.7614C179.343 79.2557 178.007 78.054 176.019 78.054C174.536 78.054 173.615 78.7188 173.155 79.7159H173.027V78.1818H171.57V88H173.079V82.0938ZM186.189 78.1818H184.093V75.8295H182.584V78.1818H181.101V79.4602H182.584V85.5966C182.584 87.3097 183.965 88.1278 185.243 88.1278C185.806 88.1278 186.164 88.0256 186.368 87.9489L186.061 86.5938C185.933 86.6193 185.729 86.6705 185.397 86.6705C184.732 86.6705 184.093 86.4659 184.093 85.1875V79.4602H186.189V78.1818ZM193.365 88H194.823V86.4915H195.002C195.334 87.0284 195.973 88.2045 197.865 88.2045C200.32 88.2045 202.033 86.2358 202.033 83.1165C202.033 80.0227 200.32 78.054 197.84 78.054C195.922 78.054 195.334 79.2301 195.002 79.7415H194.874V74.9091H193.365V88ZM194.848 83.0909C194.848 80.892 195.82 79.4091 197.661 79.4091C199.578 79.4091 200.524 81.0199 200.524 83.0909C200.524 85.1875 199.553 86.8494 197.661 86.8494C195.845 86.8494 194.848 85.3153 194.848 83.0909ZM210.348 83.9858C210.348 85.8267 208.942 86.6705 207.817 86.6705C206.564 86.6705 205.669 85.75 205.669 84.3182V78.1818H204.161V84.4205C204.161 86.9261 205.49 88.1278 207.331 88.1278C208.814 88.1278 209.786 87.3352 210.246 86.3381H210.348V88H211.857V78.1818H210.348V83.9858ZM218.403 91.8864C220.755 91.8864 222.647 90.8125 222.647 88.2812V78.1818H221.19V79.7415H221.036C220.704 79.2301 220.09 78.054 218.172 78.054C215.692 78.054 213.979 80.0227 213.979 83.0398C213.979 86.108 215.769 87.8466 218.147 87.8466C220.065 87.8466 220.678 86.7216 221.011 86.1847H221.138V88.179C221.138 89.8153 219.988 90.5568 218.403 90.5568C216.619 90.5568 215.993 89.6172 215.59 89.0739L214.388 89.9176C215.002 90.9467 216.21 91.8864 218.403 91.8864ZM218.351 86.4915C216.459 86.4915 215.488 85.0597 215.488 83.0142C215.488 81.0199 216.434 79.4091 218.351 79.4091C220.192 79.4091 221.164 80.892 221.164 83.0142C221.164 85.1875 220.167 86.4915 218.351 86.4915ZM237.065 80.3807C236.592 78.9872 235.531 78.054 233.588 78.054C231.517 78.054 229.983 79.2301 229.983 80.892C229.983 82.2472 230.788 83.1548 232.591 83.5767L234.227 83.9602C235.218 84.1903 235.685 84.6634 235.685 85.3409C235.685 86.1847 234.79 86.875 233.383 86.875C232.15 86.875 231.376 86.3445 231.108 85.2898L229.676 85.6477C230.028 87.3161 231.402 88.2045 233.409 88.2045C235.691 88.2045 237.244 86.9581 237.244 85.2642C237.244 83.8963 236.388 83.0334 234.636 82.6051L233.179 82.2472C232.016 81.9595 231.491 81.5696 231.491 80.8153C231.491 79.9716 232.386 79.358 233.588 79.358C234.905 79.358 235.448 80.0866 235.71 80.7642L237.065 80.3807ZM240.844 82.0938C240.844 80.3807 241.937 79.4091 243.426 79.4091C244.845 79.4091 245.702 80.304 245.702 81.8636V88H247.21V81.7614C247.21 79.2365 245.868 78.054 243.861 78.054C242.314 78.054 241.432 78.6996 240.971 79.7159H240.844V74.9091H239.335V88H240.844V82.0938ZM253.778 88.2045C256.438 88.2045 258.227 86.1847 258.227 83.142C258.227 80.0739 256.438 78.054 253.778 78.054C251.119 78.054 249.33 80.0739 249.33 83.142C249.33 86.1847 251.119 88.2045 253.778 88.2045ZM253.778 86.8494C251.759 86.8494 250.838 85.1108 250.838 83.142C250.838 81.1733 251.759 79.4091 253.778 79.4091C255.798 79.4091 256.719 81.1733 256.719 83.142C256.719 85.1108 255.798 86.8494 253.778 86.8494ZM262.241 88H263.723L265.871 80.4574H266.025L268.172 88H269.655L272.647 78.1818H271.062L268.939 85.6733H268.837L266.766 78.1818H265.155L263.059 85.6989H262.956L260.834 78.1818H259.249L262.241 88ZM278.244 88.2045C280.238 88.2045 281.695 87.2074 282.155 85.7244L280.698 85.3153C280.315 86.3381 279.426 86.8494 278.244 86.8494C276.473 86.8494 275.252 85.7053 275.182 83.6023H282.309V82.9631C282.309 79.3068 280.136 78.054 278.09 78.054C275.431 78.054 273.667 80.1506 273.667 83.1676C273.667 86.1847 275.405 88.2045 278.244 88.2045ZM275.182 82.2983C275.284 80.7706 276.364 79.4091 278.09 79.4091C279.727 79.4091 280.775 80.6364 280.775 82.2983H275.182ZM288.131 88.2045C290.023 88.2045 290.662 87.0284 290.995 86.4915H291.174V88H292.631V74.9091H291.123V79.7415H290.995C290.662 79.2301 290.074 78.054 288.157 78.054C285.676 78.054 283.963 80.0227 283.963 83.1165C283.963 86.2358 285.676 88.2045 288.131 88.2045ZM288.336 86.8494C286.444 86.8494 285.472 85.1875 285.472 83.0909C285.472 81.0199 286.418 79.4091 288.336 79.4091C290.176 79.4091 291.148 80.892 291.148 83.0909C291.148 85.3153 290.151 86.8494 288.336 86.8494ZM306.493 83.9858C306.493 85.8267 305.087 86.6705 303.962 86.6705C302.709 86.6705 301.814 85.75 301.814 84.3182V78.1818H300.306V84.4205C300.306 86.9261 301.635 88.1278 303.476 88.1278C304.959 88.1278 305.931 87.3352 306.391 86.3381H306.493V88H308.002V78.1818H306.493V83.9858ZM310.585 91.6818H312.093V86.4915H312.221C312.554 87.0284 313.193 88.2045 315.085 88.2045C317.539 88.2045 319.252 86.2358 319.252 83.1165C319.252 80.0227 317.539 78.054 315.059 78.054C313.142 78.054 312.554 79.2301 312.221 79.7415H312.042V78.1818H310.585V91.6818ZM312.068 83.0909C312.068 80.892 313.039 79.4091 314.88 79.4091C316.798 79.4091 317.744 81.0199 317.744 83.0909C317.744 85.1875 316.772 86.8494 314.88 86.8494C313.065 86.8494 312.068 85.3153 312.068 83.0909ZM329.145 88.2301C330.858 88.2301 331.753 87.3097 332.06 86.6705H332.137V88H333.645V81.5312C333.645 78.4119 331.267 78.054 330.015 78.054C328.532 78.054 326.844 78.5653 326.077 80.3551L327.509 80.8665C327.841 80.1506 328.628 79.3835 330.066 79.3835C331.453 79.3835 332.137 80.1186 332.137 81.3778V81.429C332.137 82.1577 331.395 82.0938 329.606 82.3239C327.784 82.5604 325.796 82.9631 325.796 85.2131C325.796 87.1307 327.279 88.2301 329.145 88.2301ZM329.375 86.875C328.174 86.875 327.304 86.3381 327.304 85.2898C327.304 84.1392 328.353 83.7812 329.529 83.6278C330.168 83.5511 331.881 83.3722 332.137 83.0653V84.446C332.137 85.6733 331.165 86.875 329.375 86.875ZM340.182 91.8864C342.534 91.8864 344.426 90.8125 344.426 88.2812V78.1818H342.969V79.7415H342.815C342.483 79.2301 341.869 78.054 339.952 78.054C337.472 78.054 335.758 80.0227 335.758 83.0398C335.758 86.108 337.548 87.8466 339.926 87.8466C341.844 87.8466 342.457 86.7216 342.79 86.1847H342.918V88.179C342.918 89.8153 341.767 90.5568 340.182 90.5568C338.398 90.5568 337.772 89.6172 337.369 89.0739L336.168 89.9176C336.781 90.9467 337.989 91.8864 340.182 91.8864ZM340.131 86.4915C338.239 86.4915 337.267 85.0597 337.267 83.0142C337.267 81.0199 338.213 79.4091 340.131 79.4091C341.972 79.4091 342.943 80.892 342.943 83.0142C342.943 85.1875 341.946 86.4915 340.131 86.4915ZM349.897 88.2301C351.61 88.2301 352.505 87.3097 352.811 86.6705H352.888V88H354.397V81.5312C354.397 78.4119 352.019 78.054 350.766 78.054C349.283 78.054 347.595 78.5653 346.828 80.3551L348.26 80.8665C348.593 80.1506 349.379 79.3835 350.817 79.3835C352.204 79.3835 352.888 80.1186 352.888 81.3778V81.429C352.888 82.1577 352.147 82.0938 350.357 82.3239C348.535 82.5604 346.547 82.9631 346.547 85.2131C346.547 87.1307 348.03 88.2301 349.897 88.2301ZM350.127 86.875C348.925 86.875 348.056 86.3381 348.056 85.2898C348.056 84.1392 349.104 83.7812 350.28 83.6278C350.919 83.5511 352.632 83.3722 352.888 83.0653V84.446C352.888 85.6733 351.916 86.875 350.127 86.875ZM356.97 88H358.478V78.1818H356.97V88ZM357.737 76.5455C358.325 76.5455 358.811 76.0852 358.811 75.5227C358.811 74.9602 358.325 74.5 357.737 74.5C357.149 74.5 356.663 74.9602 356.663 75.5227C356.663 76.0852 357.149 76.5455 357.737 76.5455ZM362.57 82.0938C362.57 80.3807 363.631 79.4091 365.076 79.4091C366.476 79.4091 367.326 80.3232 367.326 81.8636V88H368.834V81.7614C368.834 79.2557 367.498 78.054 365.51 78.054C364.027 78.054 363.107 78.7188 362.647 79.7159H362.519V78.1818H361.061V88H362.57V82.0938ZM372.51 88.1023C373.143 88.1023 373.661 87.5845 373.661 86.9517C373.661 86.3189 373.143 85.8011 372.51 85.8011C371.877 85.8011 371.36 86.3189 371.36 86.9517C371.36 87.5845 371.877 88.1023 372.51 88.1023ZM391.809 79C391.323 76.3153 389.175 74.7301 386.542 74.7301C383.192 74.7301 380.763 77.3125 380.763 81.4545C380.763 85.5966 383.192 88.179 386.542 88.179C389.175 88.179 391.323 86.5938 391.809 83.9091H390.224C389.84 85.7244 388.281 86.696 386.542 86.696C384.164 86.696 382.298 84.8551 382.298 81.4545C382.298 78.054 384.164 76.2131 386.542 76.2131C388.281 76.2131 389.84 77.1847 390.224 79H391.809ZM396.875 88.2301C398.588 88.2301 399.483 87.3097 399.79 86.6705H399.867V88H401.375V81.5312C401.375 78.4119 398.997 78.054 397.745 78.054C396.262 78.054 394.574 78.5653 393.807 80.3551L395.239 80.8665C395.571 80.1506 396.357 79.3835 397.796 79.3835C399.183 79.3835 399.867 80.1186 399.867 81.3778V81.429C399.867 82.1577 399.125 82.0938 397.335 82.3239C395.514 82.5604 393.526 82.9631 393.526 85.2131C393.526 87.1307 395.009 88.2301 396.875 88.2301ZM397.105 86.875C395.904 86.875 395.034 86.3381 395.034 85.2898C395.034 84.1392 396.083 83.7812 397.259 83.6278C397.898 83.5511 399.611 83.3722 399.867 83.0653V84.446C399.867 85.6733 398.895 86.875 397.105 86.875ZM405.457 82.0938C405.457 80.3807 406.518 79.4091 407.963 79.4091C409.363 79.4091 410.213 80.3232 410.213 81.8636V88H411.721V81.7614C411.721 79.2557 410.385 78.054 408.397 78.054C406.914 78.054 405.994 78.7188 405.534 79.7159H405.406V78.1818H403.949V88H405.457V82.0938ZM420.97 74.9091H419.385V88H420.97V74.9091ZM435.601 80.3807C435.128 78.9872 434.067 78.054 432.124 78.054C430.053 78.054 428.519 79.2301 428.519 80.892C428.519 82.2472 429.324 83.1548 431.127 83.5767L432.763 83.9602C433.754 84.1903 434.22 84.6634 434.22 85.3409C434.22 86.1847 433.326 86.875 431.919 86.875C430.686 86.875 429.912 86.3445 429.644 85.2898L428.212 85.6477C428.563 87.3161 429.938 88.2045 431.945 88.2045C434.227 88.2045 435.78 86.9581 435.78 85.2642C435.78 83.8963 434.924 83.0334 433.172 82.6051L431.715 82.2472C430.551 81.9595 430.027 81.5696 430.027 80.8153C430.027 79.9716 430.922 79.358 432.124 79.358C433.441 79.358 433.984 80.0866 434.246 80.7642L435.601 80.3807ZM441.987 88.2045C443.982 88.2045 445.439 87.2074 445.899 85.7244L444.442 85.3153C444.058 86.3381 443.17 86.8494 441.987 86.8494C440.217 86.8494 438.996 85.7053 438.926 83.6023H446.053V82.9631C446.053 79.3068 443.879 78.054 441.834 78.054C439.175 78.054 437.411 80.1506 437.411 83.1676C437.411 86.1847 439.149 88.2045 441.987 88.2045ZM438.926 82.2983C439.028 80.7706 440.108 79.4091 441.834 79.4091C443.47 79.4091 444.519 80.6364 444.519 82.2983H438.926ZM452.284 88.2045C454.278 88.2045 455.736 87.2074 456.196 85.7244L454.738 85.3153C454.355 86.3381 453.466 86.8494 452.284 86.8494C450.513 86.8494 449.292 85.7053 449.222 83.6023H456.349V82.9631C456.349 79.3068 454.176 78.054 452.13 78.054C449.471 78.054 447.707 80.1506 447.707 83.1676C447.707 86.1847 449.446 88.2045 452.284 88.2045ZM449.222 82.2983C449.324 80.7706 450.405 79.4091 452.13 79.4091C453.767 79.4091 454.815 80.6364 454.815 82.2983H449.222ZM467.616 78.1818H465.52V75.8295H464.011V78.1818H462.528V79.4602H464.011V85.5966C464.011 87.3097 465.392 88.1278 466.67 88.1278C467.233 88.1278 467.591 88.0256 467.795 87.9489L467.489 86.5938C467.361 86.6193 467.156 86.6705 466.824 86.6705C466.159 86.6705 465.52 86.4659 465.52 85.1875V79.4602H467.616V78.1818ZM471.425 82.0938C471.425 80.3807 472.518 79.4091 474.007 79.4091C475.426 79.4091 476.283 80.304 476.283 81.8636V88H477.791V81.7614C477.791 79.2365 476.449 78.054 474.442 78.054C472.895 78.054 472.013 78.6996 471.553 79.7159H471.425V74.9091H469.916V88H471.425V82.0938ZM484.488 88.2045C486.482 88.2045 487.939 87.2074 488.4 85.7244L486.942 85.3153C486.559 86.3381 485.67 86.8494 484.488 86.8494C482.717 86.8494 481.496 85.7053 481.426 83.6023H488.553V82.9631C488.553 79.3068 486.38 78.054 484.334 78.054C481.675 78.054 479.911 80.1506 479.911 83.1676C479.911 86.1847 481.65 88.2045 484.488 88.2045ZM481.426 82.2983C481.528 80.7706 482.608 79.4091 484.334 79.4091C485.971 79.4091 487.019 80.6364 487.019 82.2983H481.426ZM498.861 88.1918C501.156 88.1918 502.901 87.0732 503.604 85.3665L501.489 85.1236C501.028 85.9609 500.21 86.3892 499.194 86.3892C497.634 86.3892 496.835 85.5966 497.123 83.7557L497.129 83.7237H503.975L504.084 83.0142C504.659 79.5753 502.844 78.054 500.427 78.054C497.621 78.054 495.435 80.1186 494.937 83.1484C494.419 86.223 495.908 88.1918 498.861 88.1918ZM497.404 82.1641C497.666 80.9879 498.836 79.8565 500.165 79.8565C501.501 79.8565 502.224 80.8281 502 82.1641H497.404ZM508.383 78.1818H505.928L508.025 83.0909L504.215 88H506.67L509.316 84.4652L510.805 88H513.241L511.048 83.0909L514.826 78.1818H512.378L509.764 81.8061L508.383 78.1818ZM517.564 88.1982C519.105 88.1982 520.153 87.4759 520.703 86.6513H520.779L520.549 88H522.774L523.867 81.429C524.301 78.8338 522.313 78.054 520.447 78.054C518.382 78.054 516.624 78.9744 515.832 80.7642L517.928 81.071C518.274 80.3935 519.06 79.8246 520.185 79.8246C521.259 79.8246 521.719 80.3807 521.565 81.3395V81.3778C521.45 82.0298 520.741 82.0746 518.983 82.2599C517.046 82.4645 515.135 83.0334 514.764 85.245C514.445 87.169 515.698 88.1982 517.564 88.1982ZM518.44 86.4979C517.475 86.4979 516.867 86.0504 517.008 85.2067C517.142 84.3118 517.992 83.9474 519.053 83.8004C519.661 83.7173 520.907 83.5639 521.246 83.321L521.054 84.478C520.875 85.571 519.827 86.4979 518.44 86.4979ZM529.177 88.1918C531.645 88.1918 533.441 86.7344 533.978 84.6442H531.766C531.383 85.6989 530.526 86.3061 529.51 86.3061C528.065 86.3061 527.33 85.098 527.662 83.0909C527.976 81.1094 529.133 79.9205 530.571 79.9205C531.677 79.9205 532.246 80.6364 532.265 81.5824H534.483C534.668 79.4538 533.243 78.054 530.852 78.054C527.969 78.054 525.796 80.1314 525.317 83.1293C524.818 86.1016 526.237 88.1918 529.177 88.1918ZM541.668 78.1818H539.725L540.115 75.8295H537.801L537.411 78.1818H536.024L535.73 79.9716H537.117L536.216 85.4304C535.896 87.2713 537.072 88.179 538.83 88.1342C539.482 88.1151 539.961 87.9872 540.243 87.9041L540.14 86.0952C540 86.1207 539.731 86.1847 539.45 86.1847C538.868 86.1847 538.434 85.9801 538.581 85.0469L539.424 79.9716H541.368L541.668 78.1818ZM551.949 78.1818H549.853V75.8295H548.344V78.1818H546.861V79.4602H548.344V85.5966C548.344 87.3097 549.725 88.1278 551.003 88.1278C551.566 88.1278 551.924 88.0256 552.128 87.9489L551.821 86.5938C551.693 86.6193 551.489 86.6705 551.157 86.6705C550.492 86.6705 549.853 86.4659 549.853 85.1875V79.4602H551.949V78.1818ZM554.038 88H555.547V81.7869C555.547 80.4574 556.595 79.4858 558.027 79.4858C558.43 79.4858 558.845 79.5625 558.947 79.5881V78.054C558.775 78.0412 558.379 78.0284 558.155 78.0284C556.979 78.0284 555.956 78.6932 555.598 79.6648H555.496V78.1818H554.038V88ZM563.445 88.2301C565.158 88.2301 566.053 87.3097 566.36 86.6705H566.436V88H567.945V81.5312C567.945 78.4119 565.567 78.054 564.314 78.054C562.831 78.054 561.144 78.5653 560.377 80.3551L561.808 80.8665C562.141 80.1506 562.927 79.3835 564.365 79.3835C565.752 79.3835 566.436 80.1186 566.436 81.3778V81.429C566.436 82.1577 565.695 82.0938 563.905 82.3239C562.083 82.5604 560.095 82.9631 560.095 85.2131C560.095 87.1307 561.578 88.2301 563.445 88.2301ZM563.675 86.875C562.473 86.875 561.604 86.3381 561.604 85.2898C561.604 84.1392 562.652 83.7812 563.828 83.6278C564.468 83.5511 566.181 83.3722 566.436 83.0653V84.446C566.436 85.6733 565.465 86.875 563.675 86.875ZM574.507 88.2045C576.68 88.2045 578.112 86.875 578.368 85.1364H576.859C576.578 86.2102 575.683 86.8494 574.507 86.8494C572.717 86.8494 571.566 85.3665 571.566 83.0909C571.566 80.8665 572.743 79.4091 574.507 79.4091C575.836 79.4091 576.629 80.2273 576.859 81.1222H578.368C578.112 79.2812 576.552 78.054 574.481 78.054C571.822 78.054 570.058 80.1506 570.058 83.142C570.058 86.0824 571.745 88.2045 574.507 88.2045ZM584.509 88.2045C586.504 88.2045 587.961 87.2074 588.421 85.7244L586.964 85.3153C586.58 86.3381 585.692 86.8494 584.509 86.8494C582.739 86.8494 581.518 85.7053 581.448 83.6023H588.575V82.9631C588.575 79.3068 586.401 78.054 584.356 78.054C581.697 78.054 579.933 80.1506 579.933 83.1676C579.933 86.1847 581.671 88.2045 584.509 88.2045ZM581.448 82.2983C581.55 80.7706 582.63 79.4091 584.356 79.4091C585.992 79.4091 587.041 80.6364 587.041 82.2983H581.448ZM592.658 84.3182H594.192V84.2415C594.218 82.6562 594.627 81.9659 595.752 81.2628C596.877 80.5788 597.542 79.5945 597.542 78.1818C597.542 76.1875 596.084 74.7301 593.834 74.7301C591.763 74.7301 590.121 76.0085 590.025 78.1818H591.635C591.731 76.6733 592.786 76.0597 593.834 76.0597C595.036 76.0597 596.008 76.8523 596.008 78.1051C596.008 79.1214 595.426 79.8501 594.678 80.304C593.425 81.0646 592.677 81.8061 592.658 84.2415V84.3182ZM593.476 88.1023C594.109 88.1023 594.627 87.5845 594.627 86.9517C594.627 86.3189 594.109 85.8011 593.476 85.8011C592.844 85.8011 592.326 86.3189 592.326 86.9517C592.326 87.5845 592.844 88.1023 593.476 88.1023Z" fill="#393946"/>
</svg>
