<svg width="512" height="29" viewBox="0 0 512 29" fill="none" xmlns="http://www.w3.org/2000/svg">
<rect width="78.3333" height="28.3333" rx="14.1667" fill="#FBC55A"/>
<rect x="341" width="78.3333" height="28.3333" rx="14.1667" fill="#FBC55A"/>
<rect x="176.667" width="73.3333" height="28.3333" rx="14.1667" fill="#FB755A"/>
<rect x="438" width="73.3333" height="28.3333" rx="14.1667" fill="#FB755A"/>
<rect x="96.6665" width="62.5" height="28.3333" rx="14.1667" fill="#FB9D5A"/>
<path d="M13.6778 9.09091V20H15.2438V12.1005H15.345L18.5624 19.984H19.8621L23.0794 12.1058H23.1806V20H24.7467V9.09091H22.7492L19.2762 17.571H19.1483L15.6753 9.09091H13.6778ZM30.3131 20.1651C32.0976 20.1651 33.36 19.2862 33.7222 17.9545L32.2148 17.6829C31.9271 18.4553 31.2347 18.8494 30.3291 18.8494C28.9655 18.8494 28.0493 17.9652 28.0067 16.3885H33.8234V15.8239C33.8234 12.8675 32.055 11.7116 30.2013 11.7116C27.9214 11.7116 26.4193 13.4482 26.4193 15.9624C26.4193 18.5032 27.9001 20.1651 30.3131 20.1651ZM28.012 15.1953C28.0759 14.0341 28.9175 13.0273 30.2119 13.0273C31.4477 13.0273 32.2574 13.9435 32.2627 15.1953H28.012ZM39.1848 11.8182H37.5069V9.85795H35.9142V11.8182H34.7157V13.0966H35.9142V17.9279C35.9089 19.4141 37.0435 20.1332 38.3006 20.1065C38.8066 20.1012 39.1475 20.0053 39.334 19.9361L39.0463 18.6204C38.9398 18.6417 38.7427 18.6896 38.487 18.6896C37.9703 18.6896 37.5069 18.5192 37.5069 17.5977V13.0966H39.1848V11.8182ZM40.7216 20H42.3143V15.0036C42.3143 13.9329 43.14 13.1605 44.2692 13.1605C44.5995 13.1605 44.9723 13.2191 45.1002 13.2564V11.733C44.9404 11.7116 44.6261 11.6957 44.4237 11.6957C43.4649 11.6957 42.6446 12.239 42.3463 13.1179H42.261V11.8182H40.7216V20ZM46.2535 20H47.8461V11.8182H46.2535V20ZM47.0578 10.5558C47.6064 10.5558 48.0645 10.1296 48.0645 9.6076C48.0645 9.08558 47.6064 8.65412 47.0578 8.65412C46.5038 8.65412 46.051 9.08558 46.051 9.6076C46.051 10.1296 46.5038 10.5558 47.0578 10.5558ZM53.2102 20.1651C55.1438 20.1651 56.3956 19.0039 56.5713 17.4112H55.0213C54.8189 18.2955 54.1317 18.8175 53.2208 18.8175C51.8732 18.8175 51.0049 17.6935 51.0049 15.9091C51.0049 14.1566 51.8892 13.054 53.2208 13.054C54.2329 13.054 54.8508 13.6932 55.0213 14.4602H56.5713C56.4009 12.8089 55.0532 11.7116 53.1942 11.7116C50.8877 11.7116 49.3963 13.4482 49.3963 15.9464C49.3963 18.4126 50.8345 20.1651 53.2102 20.1651ZM64.1806 13.8157C63.8503 12.5426 62.8542 11.7116 61.0858 11.7116C59.2374 11.7116 57.927 12.6864 57.927 14.1353C57.927 15.2965 58.6302 16.0689 60.1643 16.4098L61.5492 16.7134C62.3376 16.8892 62.7051 17.2408 62.7051 17.7521C62.7051 18.386 62.0286 18.8814 60.9846 18.8814C60.0311 18.8814 59.4185 18.4712 59.2268 17.6669L57.6873 17.9013C57.9537 19.3501 59.1575 20.1651 60.9952 20.1651C62.9714 20.1651 64.3404 19.1158 64.3404 17.6349C64.3404 16.479 63.6053 15.7653 62.1032 15.419L60.8035 15.1207C59.9033 14.9077 59.5144 14.604 59.5197 14.0501C59.5144 13.4215 60.1962 12.9741 61.1018 12.9741C62.0925 12.9741 62.5506 13.5227 62.7371 14.0714L64.1806 13.8157Z" fill="#17171C"/>
<path d="M354.678 9.09091V20H356.244V12.1005H356.345L359.562 19.984H360.862L364.079 12.1058H364.181V20H365.747V9.09091H363.749L360.276 17.571H360.148L356.675 9.09091H354.678ZM371.313 20.1651C373.098 20.1651 374.36 19.2862 374.722 17.9545L373.215 17.6829C372.927 18.4553 372.235 18.8494 371.329 18.8494C369.965 18.8494 369.049 17.9652 369.007 16.3885H374.823V15.8239C374.823 12.8675 373.055 11.7116 371.201 11.7116C368.921 11.7116 367.419 13.4482 367.419 15.9624C367.419 18.5032 368.9 20.1651 371.313 20.1651ZM369.012 15.1953C369.076 14.0341 369.918 13.0273 371.212 13.0273C372.448 13.0273 373.257 13.9435 373.263 15.1953H369.012ZM380.185 11.8182H378.507V9.85795H376.914V11.8182H375.716V13.0966H376.914V17.9279C376.909 19.4141 378.043 20.1332 379.301 20.1065C379.807 20.1012 380.148 20.0053 380.334 19.9361L380.046 18.6204C379.94 18.6417 379.743 18.6896 379.487 18.6896C378.97 18.6896 378.507 18.5192 378.507 17.5977V13.0966H380.185V11.8182ZM381.722 20H383.314V15.0036C383.314 13.9329 384.14 13.1605 385.269 13.1605C385.599 13.1605 385.972 13.2191 386.1 13.2564V11.733C385.94 11.7116 385.626 11.6957 385.424 11.6957C384.465 11.6957 383.645 12.239 383.346 13.1179H383.261V11.8182H381.722V20ZM387.253 20H388.846V11.8182H387.253V20ZM388.058 10.5558C388.606 10.5558 389.065 10.1296 389.065 9.6076C389.065 9.08558 388.606 8.65412 388.058 8.65412C387.504 8.65412 387.051 9.08558 387.051 9.6076C387.051 10.1296 387.504 10.5558 388.058 10.5558ZM394.21 20.1651C396.144 20.1651 397.396 19.0039 397.571 17.4112H396.021C395.819 18.2955 395.132 18.8175 394.221 18.8175C392.873 18.8175 392.005 17.6935 392.005 15.9091C392.005 14.1566 392.889 13.054 394.221 13.054C395.233 13.054 395.851 13.6932 396.021 14.4602H397.571C397.401 12.8089 396.053 11.7116 394.194 11.7116C391.888 11.7116 390.396 13.4482 390.396 15.9464C390.396 18.4126 391.834 20.1651 394.21 20.1651ZM405.181 13.8157C404.85 12.5426 403.854 11.7116 402.086 11.7116C400.237 11.7116 398.927 12.6864 398.927 14.1353C398.927 15.2965 399.63 16.0689 401.164 16.4098L402.549 16.7134C403.338 16.8892 403.705 17.2408 403.705 17.7521C403.705 18.386 403.029 18.8814 401.985 18.8814C401.031 18.8814 400.419 18.4712 400.227 17.6669L398.687 17.9013C398.954 19.3501 400.158 20.1651 401.995 20.1651C403.971 20.1651 405.34 19.1158 405.34 17.6349C405.34 16.479 404.605 15.7653 403.103 15.419L401.803 15.1207C400.903 14.9077 400.514 14.604 400.52 14.0501C400.514 13.4215 401.196 12.9741 402.102 12.9741C403.093 12.9741 403.551 13.5227 403.737 14.0714L405.181 13.8157Z" fill="#17171C"/>
<path d="M278.258 11.8182H276.58V9.85795H274.988V11.8182H273.789V13.0966H274.988V17.9279C274.982 19.4141 276.117 20.1332 277.374 20.1065C277.88 20.1012 278.221 20.0053 278.407 19.9361L278.12 18.6204C278.013 18.6417 277.816 18.6896 277.56 18.6896C277.044 18.6896 276.58 18.5192 276.58 17.5977V13.0966H278.258V11.8182ZM283.153 20.1651C285.46 20.1651 286.967 18.4766 286.967 15.9464C286.967 13.4002 285.46 11.7116 283.153 11.7116C280.847 11.7116 279.339 13.4002 279.339 15.9464C279.339 18.4766 280.847 20.1651 283.153 20.1651ZM283.159 18.8281C281.651 18.8281 280.948 17.5124 280.948 15.9411C280.948 14.375 281.651 13.0433 283.159 13.0433C284.656 13.0433 285.359 14.375 285.359 15.9411C285.359 17.5124 284.656 18.8281 283.159 18.8281ZM292.265 11.8182V20.522C292.265 21.2784 291.951 21.6939 291.194 21.6939H290.938V23.0629C291.05 23.0682 291.152 23.0682 291.263 23.0682C292.957 23.0682 293.858 22.1733 293.858 20.5327V11.8182H292.265ZM293.053 10.5558C293.602 10.5558 294.06 10.1296 294.06 9.6076C294.06 9.08558 293.602 8.65412 293.053 8.65412C292.499 8.65412 292.046 9.08558 292.046 9.6076C292.046 10.1296 292.499 10.5558 293.053 10.5558ZM300.958 16.6069C300.963 17.9972 299.93 18.6577 299.035 18.6577C298.05 18.6577 297.368 17.9439 297.368 16.8306V11.8182H295.775V17.0224C295.775 19.0518 296.888 20.1065 298.46 20.1065C299.69 20.1065 300.527 19.4567 300.905 18.5831H300.99V20H302.556V11.8182H300.958V16.6069ZM310.602 13.8157C310.272 12.5426 309.276 11.7116 307.507 11.7116C305.659 11.7116 304.349 12.6864 304.349 14.1353C304.349 15.2965 305.052 16.0689 306.586 16.4098L307.971 16.7134C308.759 16.8892 309.127 17.2408 309.127 17.7521C309.127 18.386 308.45 18.8814 307.406 18.8814C306.453 18.8814 305.84 18.4712 305.648 17.6669L304.109 17.9013C304.375 19.3501 305.579 20.1651 307.417 20.1651C309.393 20.1651 310.762 19.1158 310.762 17.6349C310.762 16.479 310.027 15.7653 308.525 15.419L307.225 15.1207C306.325 14.9077 305.936 14.604 305.941 14.0501C305.936 13.4215 306.618 12.9741 307.523 12.9741C308.514 12.9741 308.972 13.5227 309.159 14.0714L310.602 13.8157ZM316.107 11.8182H314.429V9.85795H312.837V11.8182H311.638V13.0966H312.837V17.9279C312.831 19.4141 313.966 20.1332 315.223 20.1065C315.729 20.1012 316.07 20.0053 316.256 19.9361L315.969 18.6204C315.862 18.6417 315.665 18.6896 315.41 18.6896C314.893 18.6896 314.429 18.5192 314.429 17.5977V13.0966H316.107V11.8182Z" fill="#17171C"/>
<path d="M189.889 10.5078H193.288V20H194.928V10.5078H198.332V9.09091H189.889V10.5078ZM198.995 20H200.588V15.0036C200.588 13.9329 201.414 13.1605 202.543 13.1605C202.873 13.1605 203.246 13.2191 203.374 13.2564V11.733C203.214 11.7116 202.9 11.6957 202.697 11.6957C201.738 11.6957 200.918 12.239 200.62 13.1179H200.535V11.8182H198.995V20ZM206.835 20.1811C208.188 20.1811 208.95 19.494 209.253 18.8814H209.317V20H210.873V14.5668C210.873 12.1857 208.998 11.7116 207.698 11.7116C206.217 11.7116 204.853 12.3082 204.321 13.7997L205.817 14.1406C206.052 13.56 206.648 13.0007 207.719 13.0007C208.747 13.0007 209.275 13.5387 209.275 14.4656V14.5028C209.275 15.0835 208.678 15.0728 207.208 15.2433C205.658 15.4244 204.07 15.8292 204.07 17.6882C204.07 19.2969 205.279 20.1811 206.835 20.1811ZM207.181 18.9027C206.281 18.9027 205.631 18.4979 205.631 17.7095C205.631 16.8572 206.387 16.5536 207.309 16.4311C207.826 16.3619 209.051 16.2234 209.28 15.9943V17.049C209.28 18.0185 208.507 18.9027 207.181 18.9027ZM216.215 20.1651C218.149 20.1651 219.401 19.0039 219.576 17.4112H218.026C217.824 18.2955 217.137 18.8175 216.226 18.8175C214.878 18.8175 214.01 17.6935 214.01 15.9091C214.01 14.1566 214.894 13.054 216.226 13.054C217.238 13.054 217.856 13.6932 218.026 14.4602H219.576C219.406 12.8089 218.058 11.7116 216.199 11.7116C213.893 11.7116 212.401 13.4482 212.401 15.9464C212.401 18.4126 213.84 20.1651 216.215 20.1651ZM224.581 20.1651C226.365 20.1651 227.628 19.2862 227.99 17.9545L226.483 17.6829C226.195 18.4553 225.502 18.8494 224.597 18.8494C223.233 18.8494 222.317 17.9652 222.274 16.3885H228.091V15.8239C228.091 12.8675 226.323 11.7116 224.469 11.7116C222.189 11.7116 220.687 13.4482 220.687 15.9624C220.687 18.5032 222.168 20.1651 224.581 20.1651ZM222.28 15.1953C222.344 14.0341 223.185 13.0273 224.48 13.0273C225.715 13.0273 226.525 13.9435 226.53 15.1953H222.28ZM235.764 13.8157C235.434 12.5426 234.438 11.7116 232.67 11.7116C230.821 11.7116 229.511 12.6864 229.511 14.1353C229.511 15.2965 230.214 16.0689 231.748 16.4098L233.133 16.7134C233.921 16.8892 234.289 17.2408 234.289 17.7521C234.289 18.386 233.612 18.8814 232.568 18.8814C231.615 18.8814 231.002 18.4712 230.811 17.6669L229.271 17.9013C229.537 19.3501 230.741 20.1651 232.579 20.1651C234.555 20.1651 235.924 19.1158 235.924 17.6349C235.924 16.479 235.189 15.7653 233.687 15.419L232.387 15.1207C231.487 14.9077 231.098 14.604 231.103 14.0501C231.098 13.4215 231.78 12.9741 232.686 12.9741C233.676 12.9741 234.134 13.5227 234.321 14.0714L235.764 13.8157Z" fill="white"/>
<path d="M111.634 20H118.223V18.5831H113.28V9.09091H111.634V20ZM123.194 20.1651C125.501 20.1651 127.008 18.4766 127.008 15.9464C127.008 13.4002 125.501 11.7116 123.194 11.7116C120.888 11.7116 119.38 13.4002 119.38 15.9464C119.38 18.4766 120.888 20.1651 123.194 20.1651ZM123.199 18.8281C121.692 18.8281 120.989 17.5124 120.989 15.9411C120.989 14.375 121.692 13.0433 123.199 13.0433C124.696 13.0433 125.399 14.375 125.399 15.9411C125.399 17.5124 124.696 18.8281 123.199 18.8281ZM131.991 23.2386C134.074 23.2386 135.683 22.2852 135.683 20.1811V11.8182H134.122V13.1445H134.005C133.722 12.6385 133.158 11.7116 131.634 11.7116C129.658 11.7116 128.204 13.2724 128.204 15.8771C128.204 18.4872 129.69 19.8775 131.624 19.8775C133.126 19.8775 133.706 19.0305 133.994 18.5085H134.095V20.1172C134.095 21.4009 133.216 21.9549 132.007 21.9549C130.681 21.9549 130.164 21.2891 129.882 20.8203L128.513 21.3849C128.944 22.3864 130.036 23.2386 131.991 23.2386ZM131.975 18.5565C130.553 18.5565 129.813 17.4645 129.813 15.8558C129.813 14.2844 130.537 13.0646 131.975 13.0646C133.366 13.0646 134.111 14.1992 134.111 15.8558C134.111 17.5444 133.35 18.5565 131.975 18.5565ZM143.725 13.8157C143.394 12.5426 142.398 11.7116 140.63 11.7116C138.782 11.7116 137.471 12.6864 137.471 14.1353C137.471 15.2965 138.174 16.0689 139.708 16.4098L141.093 16.7134C141.882 16.8892 142.249 17.2408 142.249 17.7521C142.249 18.386 141.573 18.8814 140.529 18.8814C139.575 18.8814 138.963 18.4712 138.771 17.6669L137.231 17.9013C137.498 19.3501 138.702 20.1651 140.539 20.1651C142.516 20.1651 143.885 19.1158 143.885 17.6349C143.885 16.479 143.149 15.7653 141.647 15.419L140.348 15.1207C139.447 14.9077 139.059 14.604 139.064 14.0501C139.059 13.4215 139.74 12.9741 140.646 12.9741C141.637 12.9741 142.095 13.5227 142.281 14.0714L143.725 13.8157Z" fill="#17171C"/>
<path d="M93.0892 14.7558C93.4146 14.4303 93.4146 13.9027 93.0892 13.5772L87.7859 8.27395C87.4604 7.94851 86.9328 7.94851 86.6074 8.27395C86.2819 8.59938 86.2819 9.12702 86.6074 9.45246L91.3214 14.1665L86.6074 18.8805C86.2819 19.206 86.2819 19.7336 86.6074 20.0591C86.9328 20.3845 87.4604 20.3845 87.7859 20.0591L93.0892 14.7558ZM78.3333 14.9998H92.4999V13.3332H78.3333V14.9998Z" fill="url(#paint0_linear_17832_209)"/>
<path d="M434.089 14.7558C434.415 14.4303 434.415 13.9027 434.089 13.5772L428.786 8.27395C428.46 7.94851 427.933 7.94851 427.607 8.27395C427.282 8.59938 427.282 9.12702 427.607 9.45246L432.321 14.1665L427.607 18.8805C427.282 19.206 427.282 19.7336 427.607 20.0591C427.933 20.3845 428.46 20.3845 428.786 20.0591L434.089 14.7558ZM419.333 14.9998H433.5V13.3332H419.333V14.9998Z" fill="url(#paint1_linear_17832_209)"/>
<path d="M173.089 14.7558C173.415 14.4303 173.415 13.9027 173.089 13.5772L167.786 8.27395C167.461 7.94851 166.933 7.94851 166.608 8.27395C166.282 8.59938 166.282 9.12702 166.608 9.45246L171.322 14.1665L166.608 18.8805C166.282 19.206 166.282 19.7336 166.608 20.0591C166.933 20.3845 167.461 20.3845 167.786 20.0591L173.089 14.7558ZM158.333 14.9998H172.5V13.3332H158.333V14.9998Z" fill="url(#paint2_linear_17832_209)"/>
<path d="M451.223 10.5078H454.621V20H456.262V10.5078H459.666V9.09091H451.223V10.5078ZM460.329 20H461.921V15.0036C461.921 13.9329 462.747 13.1605 463.876 13.1605C464.207 13.1605 464.579 13.2191 464.707 13.2564V11.733C464.547 11.7116 464.233 11.6957 464.031 11.6957C463.072 11.6957 462.252 12.239 461.953 13.1179H461.868V11.8182H460.329V20ZM468.168 20.1811C469.521 20.1811 470.283 19.494 470.587 18.8814H470.651V20H472.206V14.5668C472.206 12.1857 470.331 11.7116 469.031 11.7116C467.55 11.7116 466.187 12.3082 465.654 13.7997L467.151 14.1406C467.385 13.56 467.982 13.0007 469.053 13.0007C470.081 13.0007 470.608 13.5387 470.608 14.4656V14.5028C470.608 15.0835 470.011 15.0728 468.541 15.2433C466.991 15.4244 465.404 15.8292 465.404 17.6882C465.404 19.2969 466.613 20.1811 468.168 20.1811ZM468.515 18.9027C467.614 18.9027 466.965 18.4979 466.965 17.7095C466.965 16.8572 467.721 16.5536 468.642 16.4311C469.159 16.3619 470.384 16.2234 470.613 15.9943V17.049C470.613 18.0185 469.841 18.9027 468.515 18.9027ZM477.549 20.1651C479.482 20.1651 480.734 19.0039 480.91 17.4112H479.36C479.157 18.2955 478.47 18.8175 477.559 18.8175C476.212 18.8175 475.343 17.6935 475.343 15.9091C475.343 14.1566 476.228 13.054 477.559 13.054C478.571 13.054 479.189 13.6932 479.36 14.4602H480.91C480.739 12.8089 479.392 11.7116 477.533 11.7116C475.226 11.7116 473.735 13.4482 473.735 15.9464C473.735 18.4126 475.173 20.1651 477.549 20.1651ZM485.914 20.1651C487.699 20.1651 488.961 19.2862 489.323 17.9545L487.816 17.6829C487.528 18.4553 486.836 18.8494 485.93 18.8494C484.567 18.8494 483.651 17.9652 483.608 16.3885H489.425V15.8239C489.425 12.8675 487.656 11.7116 485.803 11.7116C483.523 11.7116 482.021 13.4482 482.021 15.9624C482.021 18.5032 483.501 20.1651 485.914 20.1651ZM483.613 15.1953C483.677 14.0341 484.519 13.0273 485.813 13.0273C487.049 13.0273 487.859 13.9435 487.864 15.1953H483.613ZM497.098 13.8157C496.768 12.5426 495.772 11.7116 494.003 11.7116C492.155 11.7116 490.844 12.6864 490.844 14.1353C490.844 15.2965 491.547 16.0689 493.082 16.4098L494.466 16.7134C495.255 16.8892 495.622 17.2408 495.622 17.7521C495.622 18.386 494.946 18.8814 493.902 18.8814C492.948 18.8814 492.336 18.4712 492.144 17.6669L490.605 17.9013C490.871 19.3501 492.075 20.1651 493.912 20.1651C495.889 20.1651 497.258 19.1158 497.258 17.6349C497.258 16.479 496.523 15.7653 495.02 15.419L493.721 15.1207C492.821 14.9077 492.432 14.604 492.437 14.0501C492.432 13.4215 493.113 12.9741 494.019 12.9741C495.01 12.9741 495.468 13.5227 495.654 14.0714L497.098 13.8157Z" fill="white"/>
<defs>
<linearGradient id="paint0_linear_17832_209" x1="78.5416" y1="14.1665" x2="93.1249" y2="14.1665" gradientUnits="userSpaceOnUse">
<stop stop-color="#FBC55A"/>
<stop offset="1" stop-color="#FB9D5A"/>
</linearGradient>
<linearGradient id="paint1_linear_17832_209" x1="419.542" y1="14.1665" x2="434.125" y2="14.1665" gradientUnits="userSpaceOnUse">
<stop stop-color="#FBC55A"/>
<stop offset="1" stop-color="#FB755A"/>
</linearGradient>
<linearGradient id="paint2_linear_17832_209" x1="158.542" y1="14.1665" x2="173.125" y2="14.1665" gradientUnits="userSpaceOnUse">
<stop stop-color="#FB9D5A"/>
<stop offset="1" stop-color="#FB755A"/>
</linearGradient>
</defs>
</svg>
