<svg width="337" height="217" viewBox="0 0 337 217" fill="none" xmlns="http://www.w3.org/2000/svg">
<ellipse opacity="0.4" cx="168.063" cy="112.857" rx="83.6627" ry="84.0984" fill="#FBC55A"/>
<line x1="205.78" y1="35.1023" x2="205.78" y2="1.49989" stroke="#FDE8BE" stroke-width="3" stroke-linecap="round"/>
<line x1="82.0284" y1="167.568" x2="82.0284" y2="133.966" stroke="#FDE8BE" stroke-width="3" stroke-linecap="round"/>
<line x1="272.012" y1="184.998" x2="272.012" y2="151.396" stroke="#FDE8BE" stroke-width="3" stroke-linecap="round"/>
<line x1="218.852" y1="50.7891" x2="218.852" y2="17.1867" stroke="#FDE8BE" stroke-width="3" stroke-linecap="round"/>
<rect x="0.737305" y="43.5742" width="335.5" height="74.0153" rx="37.0076" fill="#FBC55A"/>
<rect x="95.7292" y="156.867" width="145.538" height="60.1325" rx="30.0663" fill="#FB755A"/>
<path d="M169.562 110.679C169.563 109.85 168.891 109.179 168.063 109.179C167.234 109.179 166.563 109.85 166.562 110.679L169.562 110.679ZM167.002 148.342C167.588 148.928 168.537 148.928 169.123 148.342L178.669 138.796C179.255 138.21 179.255 137.26 178.669 136.675C178.083 136.089 177.134 136.089 176.548 136.675L168.062 145.16L159.577 136.675C158.991 136.089 158.042 136.089 157.456 136.675C156.87 137.26 156.87 138.21 157.456 138.796L167.002 148.342ZM166.562 110.679L166.562 147.281L169.562 147.281L169.562 110.679L166.562 110.679Z" fill="#FB755A"/>
<circle r="1.98594" transform="matrix(-1 0 0 1 186.364 16.5582)" fill="#FBC55A" stroke="#FBC55A" stroke-width="3"/>
<circle r="1.98594" transform="matrix(-1 0 0 1 280.484 168.197)" fill="#FBC55A" stroke="#FBC55A" stroke-width="3"/>
<circle r="3.29317" transform="matrix(-1 0 0 1 263.49 180.833)" stroke="#FBC55A" stroke-width="3"/>
<circle r="5.47189" transform="matrix(-1 0 0 1 69.5848 141.181)" stroke="#FBC55A" stroke-width="3"/>
<path fill-rule="evenodd" clip-rule="evenodd" d="M217.016 193.898C215.123 193.898 213.468 192.36 213.468 190.35V182.78C213.468 180.888 215.005 179.232 217.016 179.232C218.908 179.232 220.564 180.769 220.564 182.78V190.35C220.564 192.36 218.908 193.898 217.016 193.898ZM119.322 193.898C117.429 193.898 115.773 192.36 115.773 190.35V182.78C115.773 180.888 117.311 179.232 119.322 179.232C121.214 179.232 122.87 180.77 122.87 182.78V190.35C122.87 192.36 121.332 193.898 119.322 193.898ZM127.196 191.22H134.66V194.047H127.196V191.22ZM146.524 179.469H139.546V194.016H146.524V179.469ZM151.374 179.469H158.352V194.016H151.374V179.469ZM171.717 185.536H163.201V188.611H171.717V185.536ZM200.22 190.823H208.735V193.898H200.22V190.823ZM183.544 179.469H176.566V194.016H183.544V179.469ZM188.393 179.469H195.371V194.016H188.393V179.469Z" fill="white"/>
<g opacity="0.7">
<path fill-rule="evenodd" clip-rule="evenodd" d="M47.8155 62.1149L40.8257 62.1149L40.8257 76.687L47.8155 76.687L47.8155 62.1149ZM52.8946 62.1149L59.8844 62.1149L59.8844 76.687L52.8946 76.687L52.8946 62.1149ZM78.5724 62.1149L85.5623 62.1149L85.5623 76.687L78.5724 76.687L78.5724 62.1149ZM97.6313 62.1149L90.6414 62.1149L90.6414 76.687L97.6313 76.687L97.6313 62.1149ZM102.71 62.1149L109.7 62.1149L109.7 76.687L102.71 76.687L102.71 62.1149ZM121.887 73.0142C121.887 75.0283 120.229 76.5684 118.333 76.5684C116.319 76.5684 114.779 75.0283 114.779 73.0142L114.779 65.432C114.779 63.418 116.438 61.8778 118.333 61.8778C120.347 61.8778 121.887 63.5365 121.887 65.432L121.887 73.0142ZM134.074 73.0142C134.074 75.0283 132.416 76.5684 130.52 76.5684C128.506 76.5684 126.966 75.0283 126.966 73.0142L126.966 65.432C126.966 63.418 128.625 61.8778 130.52 61.8778C132.534 61.8778 134.074 63.5365 134.074 65.432L134.074 73.0142ZM73.4934 73.4882L64.9634 73.4882L64.9634 76.5685L73.4934 76.5685L73.4934 73.4882Z" fill="#EC6D13"/>
<path fill-rule="evenodd" clip-rule="evenodd" d="M296.95 62.111L290.071 62.111L290.071 76.4536L296.95 76.4536L296.95 62.111ZM278.741 62.1104L285.621 62.1104L285.621 76.453L278.741 76.453L278.741 62.1104ZM208.389 62.1089L201.509 62.1089L201.509 76.4515L208.389 76.4515L208.389 62.1089ZM224.831 62.1089L231.711 62.1089L231.711 76.4515L224.831 76.4515L224.831 62.1089ZM147.171 72.8365C147.171 74.8188 145.539 76.3347 143.673 76.3347C141.807 76.3347 140.175 74.8188 140.175 72.8365L140.175 65.3737C140.175 63.3914 141.807 61.8755 143.673 61.8755C145.655 61.8755 147.171 63.508 147.171 65.3737L147.171 72.8365ZM239.99 76.3347C241.856 76.3347 243.489 74.8188 243.489 72.8365L243.489 65.3737C243.489 63.508 241.973 61.8755 239.99 61.8755C238.125 61.8755 236.492 63.3914 236.492 65.3737L236.492 72.8365C236.492 74.8188 238.008 76.3347 239.99 76.3347ZM251.65 76.3347C253.516 76.3347 255.148 74.8188 255.148 72.8365L255.148 65.3737C255.148 63.508 253.633 61.8755 251.65 61.8755C249.785 61.8755 248.152 63.3914 248.152 65.3737L248.152 72.8365C248.152 74.8188 249.668 76.3347 251.65 76.3347ZM220.472 67.7544L212.779 67.7544L212.779 70.7649L220.472 70.7649L220.472 67.7544ZM259.568 67.9759L274.384 67.9759L274.384 70.5904L259.568 70.5904L259.568 67.9759ZM188.332 73.3031L196.728 73.3031L196.728 76.3349L188.332 76.3349L188.332 73.3031ZM160.231 73.3031L151.835 73.3031L151.835 76.3349L160.231 76.3349L160.231 73.3031ZM176.672 62.1089L183.552 62.1089L183.552 76.4515L176.672 76.4515L176.672 62.1089ZM171.892 62.1089L165.012 62.1089L165.012 76.4515L171.892 76.4515L171.892 62.1089Z" fill="#EC6D13"/>
<path fill-rule="evenodd" clip-rule="evenodd" d="M47.8156 84.7736L40.8258 84.7736L40.8258 99.3457L47.8156 99.3457L47.8156 84.7736ZM52.155 96.1469L60.685 96.1469L60.685 99.2272L52.155 99.2272L52.155 96.1469ZM72.3356 95.6729C72.3356 97.687 70.677 99.2271 68.7815 99.2271C66.7674 99.2271 65.2273 97.687 65.2273 95.6729L65.2273 88.0907C65.2273 86.0767 66.8859 84.5365 68.7815 84.5365C70.7955 84.5365 72.3356 86.1951 72.3356 88.0907L72.3356 95.6729ZM84.5228 95.6729C84.5228 97.687 82.8642 99.2271 80.9687 99.2271C78.9546 99.2271 77.4145 97.687 77.4145 95.6729L77.4145 88.0907C77.4145 86.0767 79.0731 84.5365 80.9687 84.5365C82.9827 84.5365 84.5228 86.1951 84.5228 88.0907L84.5228 95.6729Z" fill="#EC6D13"/>
<path fill-rule="evenodd" clip-rule="evenodd" d="M285.713 95.8634L272.641 95.8634L272.641 99.3494L285.713 99.3494L285.713 95.8634ZM296.95 84.7679L290.071 84.7679L290.071 99.1105L296.95 99.1105L296.95 84.7679ZM201.179 84.7677L208.059 84.7677L208.059 99.1103L201.179 99.1103L201.179 84.7677ZM184.106 95.4953C184.106 97.4776 182.473 98.9935 180.608 98.9935C178.625 98.9935 177.109 97.4776 177.109 95.4953L177.109 88.0325C177.109 86.0502 178.742 84.5343 180.608 84.5343C182.59 84.5343 184.106 86.1668 184.106 88.0325L184.106 95.4953ZM216.339 98.9935C218.204 98.9935 219.837 97.4776 219.837 95.4953L219.837 88.0325C219.837 86.1668 218.321 84.5343 216.339 84.5343C214.473 84.5343 212.84 86.0502 212.84 88.0325L212.84 95.4953C212.84 97.4776 214.356 98.9935 216.339 98.9935ZM227.998 98.9935C229.864 98.9935 231.497 97.4776 231.497 95.4953L231.497 88.0325C231.497 86.1668 229.981 84.5343 227.998 84.5343C226.133 84.5343 224.5 86.0502 224.5 88.0325L224.5 95.4953C224.5 97.4776 226.016 98.9935 227.998 98.9935ZM252.068 98.9935C253.934 98.9935 255.566 97.4776 255.566 95.4953L255.566 88.0325C255.566 86.1668 254.05 84.5343 252.068 84.5343C250.202 84.5343 248.57 86.0502 248.57 88.0325L248.57 95.4953C248.57 97.4776 250.086 98.9935 252.068 98.9935ZM195.766 95.4951C195.766 97.4774 194.133 98.9933 192.268 98.9933C190.285 98.9933 188.769 97.4774 188.769 95.4951L188.769 88.0323C188.769 86.05 190.402 84.5341 192.268 84.5341C194.25 84.5341 195.766 86.1666 195.766 88.0323L195.766 95.4951ZM243.906 95.4953C243.906 97.4776 242.274 98.9935 240.408 98.9935C238.426 98.9935 236.91 97.4776 236.91 95.4953L236.91 88.0325C236.91 86.0502 238.543 84.5343 240.408 84.5343C242.391 84.5343 243.906 86.1668 243.906 88.0325L243.906 95.4953ZM263.938 98.9935C265.804 98.9935 267.437 97.4776 267.437 95.4953L267.437 88.0325C267.437 86.1668 265.921 84.5343 263.938 84.5343C262.073 84.5343 260.44 86.0502 260.44 88.0325L260.44 95.4953C260.44 97.4776 261.956 98.9935 263.938 98.9935ZM164.577 84.7677L171.456 84.7677L171.456 99.1103L164.577 99.1103L164.577 84.7677ZM159.138 90.4132L151.444 90.4132L151.444 93.4237L159.138 93.4237L159.138 90.4132ZM127.103 90.4132L134.796 90.4132L134.796 93.4237L127.103 93.4237L127.103 90.4132ZM147.055 84.7677L140.175 84.7677L140.175 99.1103L147.055 99.1103L147.055 84.7677ZM89.6288 95.9619L98.0244 95.9619L98.0244 98.9937L89.6288 98.9937L89.6288 95.9619ZM115.337 84.7675L122.217 84.7675L122.217 99.1101L115.337 99.1101L115.337 84.7675ZM109.686 84.7677L102.806 84.7677L102.806 99.1103L109.686 99.1103L109.686 84.7677Z" fill="#EC6D13"/>
</g>
</svg>
