<?xml version="1.0" encoding="utf-8"?>
<!-- Generator: Adobe Illustrator 26.4.1, SVG Export Plug-In . SVG Version: 6.00 Build 0)  -->
<svg version="1.0" id="Layer_1" xmlns="http://www.w3.org/2000/svg" xmlns:xlink="http://www.w3.org/1999/xlink" x="0px" y="0px"
	 viewBox="0 0 366 60" style="enable-background:new 0 0 366 60;" xml:space="preserve">
<style type="text/css">
	.st0{fill:#414142;}
	.st1{fill:url(#SVGID_1_);}
	.st2{fill:url(#SVGID_00000013891673956792663690000008739921011618211992_);}
	.st3{fill:url(#SVGID_00000096753508095116824350000009992651742575345807_);}
	.st4{fill:url(#SVGID_00000155849361333727603980000006664219275992732346_);}
	.st5{fill:url(#SVGID_00000132809052886713179630000009021448138468409749_);}
</style>
<g>
	<g>
		<path class="st0" d="M103.8,32.4c-0.4,10.4-8.6,18.5-18.8,18.5c-10.8,0-18.8-8.7-18.8-19.3c0-10.6,8.7-19.4,19.3-19.4
			c4.8,0,9.4,2.1,13.4,5.8l-3.1,3.8c-3-2.6-6.7-4.4-10.3-4.4c-7.8,0-14.1,6.4-14.1,14.2c0,8,6,14.1,13.7,14.1
			c6.9,0,12.3-5,13.4-11.5H82.7v-4.6h21.1L103.8,32.4L103.8,32.4z"/>
		<path class="st0" d="M121.7,29.9h-2.9c-3.2,0-5.8,2.6-5.8,5.8v15h-5.1V24.9h4.2v2.2c1.4-1.4,3.6-2.2,6.1-2.2h5.5L121.7,29.9z"/>
		<path class="st0" d="M149.7,50.6h-4.4v-3.2c-3.4,3.3-8.7,4.9-14.1,2.5c-4-1.8-7-5.4-7.8-9.7c-1.5-8.3,4.9-15.7,13-15.7
			c3.4,0,6.5,1.4,8.8,3.6v-3.2h4.4L149.7,50.6L149.7,50.6z M144.4,39.6c1.2-5.2-2.7-10-7.9-10c-4.5,0-8.1,3.6-8.1,8.1
			c0,5,4.4,8.9,9.5,8C141.1,45.2,143.7,42.7,144.4,39.6z"/>
		<path class="st0" d="M160,23.5v1.4h8.2v4.5H160v21.2h-5.1v-27c0-5.6,4.1-9,9.1-9h6.2l-2.1,4.8h-4.1C161.8,19.5,160,21.3,160,23.5z
			"/>
		<path class="st0" d="M195.4,50.6H191v-3.2c-3.4,3.3-8.7,4.9-14.1,2.5c-4-1.8-7-5.4-7.8-9.7c-1.5-8.3,4.9-15.7,13-15.7
			c3.4,0,6.5,1.4,8.8,3.6v-3.2h4.4L195.4,50.6L195.4,50.6z M190.1,39.6c1.2-5.2-2.7-10-7.9-10c-4.5,0-8.1,3.6-8.1,8.1
			c0,5,4.4,8.9,9.5,8C186.8,45.2,189.4,42.7,190.1,39.6z"/>
		<path class="st0" d="M222.8,35.4v15.2h-5.1V35.4c0-3.2-2.6-5.8-5.8-5.8c-3.2,0-5.8,2.6-5.8,5.8v15.2H201V24.9h4.3v2.2
			c1.9-1.6,4.3-2.6,6.9-2.6C218.1,24.5,222.8,29.4,222.8,35.4z"/>
		<path class="st0" d="M253,50.6h-4.4v-3.2c-3.4,3.3-8.7,4.9-14.1,2.5c-4-1.8-7-5.4-7.8-9.7c-1.5-8.3,4.9-15.7,13-15.7
			c3.4,0,6.5,1.4,8.8,3.6v-3.2h4.4L253,50.6L253,50.6z M247.8,39.6c1.2-5.2-2.7-10-7.9-10c-4.5,0-8.1,3.6-8.1,8.1c0,5,4.4,8.9,9.5,8
			C244.5,45.2,247,42.7,247.8,39.6z"/>
	</g>
	<g>
		
			<linearGradient id="SVGID_1_" gradientUnits="userSpaceOnUse" x1="278.458" y1="-6.103" x2="278.458" y2="47.9048" gradientTransform="matrix(1 0 0 -1 0 62)">
			<stop  offset="0" style="stop-color:#FCEE1F"/>
			<stop  offset="1" style="stop-color:#F15B2A"/>
		</linearGradient>
		<path class="st1" d="M288.1,50.6h-19.4V12.4h5.2v33h14.2V50.6L288.1,50.6z"/>
		
			<linearGradient id="SVGID_00000105408388080124328410000007673942644791724951_" gradientUnits="userSpaceOnUse" x1="302.3233" y1="-6.103" x2="302.3233" y2="47.9048" gradientTransform="matrix(1 0 0 -1 0 62)">
			<stop  offset="0" style="stop-color:#FCEE1F"/>
			<stop  offset="1" style="stop-color:#F15B2A"/>
		</linearGradient>
		<path style="fill:url(#SVGID_00000105408388080124328410000007673942644791724951_);" d="M315.6,50.6h-4.4v-3.3
			c-2.3,2.2-5.4,3.7-8.9,3.7C295,51,289,45,289,37.6c0-7.3,5.9-13.3,13.3-13.3c3.5,0,6.6,1.4,8.8,3.7v-3.3h4.4V50.6z M310.6,37.6
			c0-4.4-3.6-8.1-8.2-8.1c-4.5,0-8.1,3.7-8.1,8.1c0,4.5,3.6,8.2,8.1,8.2C306.9,45.8,310.6,42.2,310.6,37.6z"/>
		
			<linearGradient id="SVGID_00000124884623369047252560000015584722994411911353_" gradientUnits="userSpaceOnUse" x1="333.2611" y1="-6.103" x2="333.2611" y2="47.9048" gradientTransform="matrix(1 0 0 -1 0 62)">
			<stop  offset="0" style="stop-color:#FCEE1F"/>
			<stop  offset="1" style="stop-color:#F15B2A"/>
		</linearGradient>
		<path style="fill:url(#SVGID_00000124884623369047252560000015584722994411911353_);" d="M346.6,37.7c0,7.3-6,13.3-13.3,13.3
			c-3.5,0-6.7-1.4-8.9-3.7v3.3H320V14.5h5.1v13c2.1-1.9,5-3.1,8.2-3.1C340.6,24.4,346.6,30.3,346.6,37.7z M341.3,37.7
			c0-4.5-3.7-8.1-8.1-8.1c-4.4,0-8.1,3.6-8.1,8.1c0,4.4,3.7,8.1,8.1,8.1S341.3,42.1,341.3,37.7z"/>
		
			<linearGradient id="SVGID_00000026849764830718775240000014109555216302667682_" gradientUnits="userSpaceOnUse" x1="356.7601" y1="-6.103" x2="356.7601" y2="47.9048" gradientTransform="matrix(1 0 0 -1 0 62)">
			<stop  offset="0" style="stop-color:#FCEE1F"/>
			<stop  offset="1" style="stop-color:#F15B2A"/>
		</linearGradient>
		<path style="fill:url(#SVGID_00000026849764830718775240000014109555216302667682_);" d="M364.2,26.6l-2.3,3.8
			c-1.1-0.7-2.9-1.7-5-1.7c-2,0-3.7,1-3.7,2.6c0,1.8,2,2.4,4.5,3.4c4.1,1.4,7.8,4.2,7.8,8.5c0,4.3-3.7,7.9-8.9,7.9
			c-3.2,0-6.4-1.3-8.6-2.6l2-4.3c1.5,0.9,4.3,2,6.4,2c2.6,0,3.7-1.5,3.7-3c0-1.8-1.6-2.7-5.2-4.1c-2.6-1-6.8-2.7-6.8-7.3
			c0-4.3,3.7-7.2,8.6-7.2C359.7,24.4,362.1,25.3,364.2,26.6z"/>
	</g>
	
		<linearGradient id="SVGID_00000034089770265631916730000012018500394202653846_" gradientUnits="userSpaceOnUse" x1="27.9992" y1="-11.3063" x2="27.9992" y2="43.2533" gradientTransform="matrix(1 0 0 -1 0 62)">
		<stop  offset="0" style="stop-color:#FCEE1F"/>
		<stop  offset="1" style="stop-color:#F15B2A"/>
	</linearGradient>
	<path style="fill:url(#SVGID_00000034089770265631916730000012018500394202653846_);" d="M55.4,26.5c-0.1-1-0.3-2.2-0.6-3.4
		c-0.3-1.3-0.8-2.7-1.5-4.1c-0.7-1.4-1.7-2.9-2.9-4.4c-0.5-0.6-1-1.1-1.6-1.7c0.8-3.3-1-6.2-1-6.2c-3.2-0.2-5.3,1-6,1.5
		c-0.1-0.1-0.3-0.1-0.4-0.2c-0.5-0.2-1.1-0.4-1.7-0.6c-0.6-0.2-1.2-0.3-1.8-0.5c-0.6-0.1-1.2-0.3-1.8-0.4c-0.1,0-0.2,0-0.3,0
		c-1.4-4.5-5.4-6.3-5.4-6.3C25.8,3,25,7,25,7s0,0.1,0,0.2c-0.3,0.1-0.5,0.1-0.7,0.2c-0.3,0.1-0.7,0.2-1,0.4c-0.3,0.1-0.7,0.3-1,0.4
		c-0.7,0.3-1.3,0.6-2,1c-0.6,0.4-1.3,0.8-1.9,1.2c-0.1,0-0.2-0.1-0.2-0.1c-6.2-2.4-11.7,0.5-11.7,0.5c-0.5,6.6,2.5,10.8,3.1,11.5
		c-0.1,0.4-0.3,0.8-0.4,1.2c-0.5,1.5-0.8,3-1,4.6c0,0.2-0.1,0.5-0.1,0.7c-5.7,2.8-7.4,8.7-7.4,8.7c4.8,5.5,10.4,5.9,10.4,5.9
		c0,0,0,0,0,0c0.7,1.3,1.5,2.5,2.5,3.6c0.4,0.5,0.8,0.9,1.2,1.4c-1.7,5,0.2,9.2,0.2,9.2c5.3,0.2,8.8-2.3,9.6-2.9
		c0.5,0.2,1.1,0.3,1.6,0.5c1.6,0.4,3.3,0.7,5,0.7c0.4,0,0.8,0,1.3,0h0.2l0.1,0l0.3,0l0.3,0l0,0c2.5,3.6,6.9,4.1,6.9,4.1
		c3.1-3.3,3.3-6.6,3.3-7.3l0,0c0,0,0,0,0,0c0-0.1,0-0.1,0-0.1l0,0c0-0.1,0-0.1,0-0.2c0.7-0.5,1.3-1,1.9-1.5c1.3-1.1,2.4-2.4,3.3-3.8
		c0.1-0.1,0.2-0.3,0.3-0.4c3.6,0.2,6.1-2.2,6.1-2.2c-0.6-3.7-2.7-5.5-3.1-5.9l0,0c0,0,0,0,0,0c0,0,0,0,0,0l0,0c0,0-0.1,0-0.1-0.1
		c0-0.2,0-0.4,0.1-0.7c0-0.4,0-0.8,0-1.2v-0.3v-0.1V36c0-0.1,0-0.1,0-0.1l0-0.3l0-0.3c0-0.1,0-0.2,0-0.3c0-0.1,0-0.2,0-0.3l0-0.3
		l0-0.3c-0.1-0.4-0.1-0.8-0.2-1.2c-0.4-1.6-1-3.1-1.8-4.5c-0.8-1.4-1.9-2.6-3-3.6c-1.2-1-2.4-1.8-3.8-2.4c-1.4-0.6-2.8-1-4.2-1.2
		C37.7,21.1,37,21,36.3,21L36,21h-0.1c0,0-0.1,0-0.1,0l-0.1,0l-0.3,0c-0.1,0-0.2,0-0.3,0c-0.4,0-0.7,0.1-1.1,0.2
		c-1.4,0.3-2.7,0.8-3.9,1.5c-1.2,0.7-2.2,1.6-3,2.6c-0.8,1-1.5,2.1-1.9,3.2s-0.7,2.3-0.8,3.5c0,0.3,0,0.6,0,0.8c0,0.1,0,0.1,0,0.2
		l0,0.2c0,0.1,0,0.3,0,0.4c0.1,0.6,0.2,1.1,0.3,1.7c0.3,1.1,0.8,2,1.4,2.9c0.6,0.8,1.3,1.5,2.1,2c0.8,0.5,1.6,0.9,2.4,1.2
		c0.8,0.2,1.6,0.3,2.4,0.3c0.1,0,0.2,0,0.3,0c0.1,0,0.1,0,0.2,0s0.1,0,0.2,0c0.1,0,0.2,0,0.2,0c0,0,0,0,0.1,0l0.1,0
		c0.1,0,0.1,0,0.1,0c0.1,0,0.2,0,0.3-0.1c0.1,0,0.2,0,0.3-0.1c0.2,0,0.3-0.1,0.5-0.1c0.3-0.1,0.6-0.2,0.9-0.4
		c0.3-0.2,0.6-0.3,0.8-0.5c0.1-0.1,0.1-0.1,0.2-0.2c0.3-0.2,0.3-0.6,0.1-0.9c-0.2-0.2-0.5-0.3-0.8-0.1c-0.1,0-0.1,0.1-0.2,0.1
		c-0.2,0.1-0.5,0.2-0.7,0.3c-0.3,0.1-0.5,0.1-0.8,0.2c-0.1,0-0.3,0-0.4,0.1c-0.1,0-0.1,0-0.2,0c-0.1,0-0.1,0-0.2,0s-0.1,0-0.2,0
		c-0.1,0-0.2,0-0.3,0c0,0,0,0,0,0h0l-0.1,0c0,0-0.1,0-0.1,0c-0.1,0-0.1,0-0.2,0c-0.6-0.1-1.2-0.3-1.8-0.5c-0.6-0.3-1.2-0.6-1.7-1.1
		c-0.5-0.5-1-1-1.3-1.6c-0.3-0.6-0.6-1.3-0.7-2c-0.1-0.4-0.1-0.7-0.1-1.1c0-0.1,0-0.2,0-0.3c0,0,0,0,0,0v0l0-0.1c0-0.1,0-0.1,0-0.1
		c0-0.2,0.1-0.4,0.1-0.6c0.3-1.6,1.1-3.1,2.3-4.3c0.3-0.3,0.6-0.6,1-0.8c0.4-0.2,0.7-0.5,1.1-0.6c0.4-0.2,0.8-0.3,1.2-0.4
		c0.4-0.1,0.8-0.2,1.3-0.2c0.2,0,0.4,0,0.7,0c0.1,0,0.1,0,0.1,0l0.2,0l0.1,0c0,0,0,0,0,0h0l0.2,0c0.5,0,0.9,0.1,1.4,0.2
		c0.9,0.2,1.8,0.5,2.7,1c1.7,0.9,3.1,2.4,4,4.1c0.4,0.9,0.8,1.8,0.9,2.8c0,0.2,0.1,0.5,0.1,0.7l0,0.2l0,0.2c0,0.1,0,0.1,0,0.2
		c0,0.1,0,0.1,0,0.2v0.2l0,0.2c0,0.1,0,0.3,0,0.4c0,0.3,0,0.5-0.1,0.8c0,0.3-0.1,0.5-0.1,0.8c-0.1,0.3-0.1,0.5-0.2,0.8
		c-0.1,0.5-0.3,1-0.5,1.5c-0.4,1-0.9,1.9-1.5,2.8c-1.3,1.7-3,3.2-5,4.1c-1,0.4-2,0.8-3.1,0.9c-0.5,0.1-1.1,0.1-1.6,0.2l-0.1,0h-0.1
		h-0.2h-0.3h-0.1c0.1,0,0,0,0,0h-0.1c-0.3,0-0.6,0-0.9,0c-1.2-0.1-2.3-0.3-3.4-0.6c-1.1-0.3-2.2-0.8-3.2-1.3c-2-1.1-3.8-2.6-5.3-4.4
		c-0.7-0.9-1.3-1.9-1.9-2.9c-0.5-1-0.9-2.1-1.2-3.1c-0.3-1.1-0.5-2.2-0.6-3.3l0-0.2l0-0.1v0v-0.1l0-0.2v0v-0.1v-0.1l0-0.3v-0.1
		c0,0,0,0,0,0v-0.1c0-0.1,0-0.3,0-0.4c0-0.6,0.1-1.1,0.1-1.7c0.1-0.6,0.2-1.1,0.3-1.7c0.1-0.6,0.3-1.1,0.4-1.7
		c0.3-1.1,0.7-2.2,1.2-3.2c0.9-2,2.2-3.8,3.6-5.2c0.4-0.4,0.7-0.7,1.1-1c0.4-0.3,0.8-0.6,1.2-0.9c0.4-0.3,0.9-0.5,1.3-0.8
		c0.2-0.1,0.4-0.2,0.7-0.3c0.1-0.1,0.2-0.1,0.3-0.2c0.1-0.1,0.2-0.1,0.3-0.1c0.5-0.2,0.9-0.4,1.4-0.5c0.1,0,0.2-0.1,0.4-0.1
		c0.1,0,0.2-0.1,0.4-0.1c0.2-0.1,0.5-0.1,0.7-0.2c0.1,0,0.3-0.1,0.4-0.1c0.1,0,0.3-0.1,0.4-0.1c0.1,0,0.3,0,0.4-0.1l0.2,0l0.2,0
		c0.1,0,0.3,0,0.4-0.1c0.1,0,0.3,0,0.4-0.1c0.1,0,0.3,0,0.4-0.1c0.1,0,0.2,0,0.3,0l0.2,0l0.1,0l0.1,0c0.1,0,0.3,0,0.4,0l0.2,0
		c0,0,0.1,0,0,0h0l0.1,0c0.1,0,0.2,0,0.4,0c0.5,0,1,0,1.4,0c1,0,1.9,0.1,2.8,0.3c1.8,0.3,3.5,0.9,5.1,1.7c1.6,0.8,2.9,1.7,4.2,2.7
		c0.1,0.1,0.1,0.1,0.2,0.2c0.1,0.1,0.1,0.1,0.2,0.2c0.1,0.1,0.3,0.3,0.4,0.4c0.1,0.1,0.3,0.3,0.4,0.4c0.1,0.1,0.3,0.3,0.4,0.4
		c0.5,0.5,1,1.1,1.4,1.6c0.9,1.1,1.5,2.2,2.1,3.3c0,0.1,0.1,0.1,0.1,0.2c0,0.1,0.1,0.1,0.1,0.2c0.1,0.1,0.1,0.3,0.2,0.4
		c0.1,0.1,0.1,0.3,0.2,0.4c0.1,0.1,0.1,0.3,0.2,0.4c0.2,0.5,0.4,1,0.5,1.4c0.3,0.7,0.4,1.4,0.6,1.9c0.1,0.2,0.3,0.4,0.5,0.4
		c0.2,0,0.4-0.2,0.4-0.5C55.5,28,55.5,27.3,55.4,26.5z"/>
</g>
</svg>
