<svg width="65" height="65" viewBox="0 0 65 65" fill="none" xmlns="http://www.w3.org/2000/svg">
<circle cx="32.5" cy="32.5" r="32.5" fill="#FDD9BE"/>
<circle cx="32.5" cy="32.5" r="21.25" stroke="#EC6D13" stroke-width="2.5" stroke-dasharray="3 6"/>
<path d="M26.5 25.5L9.5 28L8 35.5L14 37L16 40L26.5 46C27.5 49.3333 29.5 56.2 29.5 57C29.5 57.8 33.8333 57.3333 36 57V48.5L50 38L57 35.5V28L42.5 25.5L34.5 7.5H31L24.5 20L26.5 25.5Z" fill="#FDD9BE"/>
<path d="M28.2284 20.6864C28.0501 20.6848 27.8754 20.6365 27.7216 20.5464C27.5678 20.4563 27.4403 20.3275 27.3519 20.1728C27.2634 20.018 27.2171 19.8429 27.2175 19.6648C27.2179 19.4866 27.2651 19.3115 27.3542 19.1572L31.634 11.5841C31.7139 11.4098 31.8423 11.2621 32.0037 11.1586C32.1651 11.055 32.3528 11 32.5446 11C32.7364 11 32.9242 11.055 33.0856 11.1586C33.2471 11.2621 33.3753 11.4098 33.4552 11.5841L37.7351 19.1572C37.8246 19.3122 37.8718 19.488 37.8718 19.667C37.8718 19.8459 37.8246 20.0217 37.7351 20.1766C37.645 20.3291 37.5174 20.4561 37.3644 20.5453C37.2114 20.6345 37.0381 20.6831 36.861 20.6864H28.2284Z" fill="#FB9D5A" stroke="#EC6D13" stroke-width="2" stroke-linecap="round" stroke-linejoin="round"/>
<path d="M21.3277 29.6788C21.3989 29.516 21.4248 29.3369 21.4023 29.1606C21.3799 28.9842 21.31 28.8173 21.2002 28.6776C21.0899 28.5362 20.9442 28.4264 20.778 28.3593C20.6117 28.2922 20.4307 28.2701 20.2531 28.2952L11.8755 29.4603C11.7029 29.4878 11.5401 29.5591 11.403 29.6675C11.2658 29.7758 11.1589 29.9176 11.0924 30.0792C11.023 30.2425 10.9983 30.4212 11.0207 30.5971C11.0431 30.7731 11.1118 30.9399 11.2199 31.0806L16.3011 37.8162C16.3999 37.9836 16.5455 38.1187 16.7199 38.2049C16.8942 38.291 17.0899 38.3246 17.283 38.3014C17.4762 38.2783 17.6584 38.1994 17.8074 38.0744C17.9565 37.9495 18.0659 37.7838 18.1223 37.5978L19.7614 33.6474L21.3277 29.6788Z" fill="#FB9D5A" stroke="#EC6D13" stroke-width="2" stroke-linecap="round" stroke-linejoin="round"/>
<path d="M19.4518 34.2109C27.0098 36.5775 31.5083 41.1287 31.5083 49.7213V52.0879" stroke="#EC6D13" stroke-width="2" stroke-linecap="round" stroke-linejoin="round"/>
<path d="M43.6888 29.6778C43.6197 29.515 43.5949 29.3369 43.617 29.1614C43.639 28.986 43.7072 28.8195 43.8145 28.679C43.9219 28.5384 44.0645 28.4288 44.2279 28.3612C44.3914 28.2936 44.5699 28.2705 44.7452 28.2942L53.1227 29.4593C53.2982 29.4841 53.4641 29.5542 53.6042 29.6625C53.7443 29.7709 53.8538 29.9139 53.9218 30.0774C53.9898 30.241 54.014 30.4193 53.9921 30.595C53.9701 30.7707 53.9028 30.9378 53.7966 31.0796L48.7154 37.8152C48.6048 37.957 48.4597 38.0683 48.294 38.1384C48.1282 38.2085 47.9473 38.2351 47.7683 38.2157C47.5942 38.1864 47.43 38.1145 47.2902 38.0065C47.1504 37.8986 47.0394 37.7578 46.9671 37.5967L45.3279 33.6464L43.6888 29.6778Z" fill="#FB9D5A" stroke="#EC6D13" stroke-width="2" stroke-linecap="round" stroke-linejoin="round"/>
<path d="M45.5648 34.2109C38.0067 36.5775 33.5083 41.1287 33.5083 49.7213V52.0879" stroke="#EC6D13" stroke-width="2" stroke-linecap="round" stroke-linejoin="round"/>
<path d="M32.5083 20.6875V49.8149" stroke="#EC6D13" stroke-width="2" stroke-linecap="round" stroke-linejoin="round"/>
<rect x="31" y="51" width="3" height="2" fill="#EC6D13"/>
</svg>
