<svg width="83" height="26" viewBox="0 0 83 26" fill="none" xmlns="http://www.w3.org/2000/svg">
<g clip-path="url(#clip0_24474_374)">
<path d="M7.52734 24.0448V24.0338C7.52734 22.9526 8.34304 22.0684 9.5035 22.0684C10.2103 22.0684 10.6371 22.3125 11.0039 22.6599L10.5723 23.1544C10.2647 22.8719 9.93652 22.6818 9.49868 22.6818C8.77054 22.6818 8.23341 23.2788 8.23341 24.0229V24.0338C8.23341 24.7779 8.76434 25.3811 9.49868 25.3811C9.96962 25.3811 10.2709 25.1965 10.6019 24.8921L11.0349 25.3264C10.635 25.7367 10.1958 26 9.47937 26C8.36028 26 7.52734 25.1363 7.52734 24.0448Z" fill="#231F20"/>
<path d="M11.9609 22.1333H12.6346V23.7131H14.4625V22.1333H15.1369V25.9343H14.4625V24.3327H12.6346V25.9343H11.9609V22.1333Z" fill="#231F20"/>
<path d="M17.6937 22.106H18.3184L20.0036 25.9357H19.292L18.9038 25.0186H17.091L16.6973 25.9357H16.0078L17.6937 22.106ZM18.659 24.425L17.9964 22.9041L17.3393 24.425H18.659Z" fill="#231F20"/>
<path d="M20.875 22.1333H21.4956L23.5489 24.7615V22.1333H24.2116V25.9343H23.651L21.5376 23.2303V25.9343H20.875V22.1333Z" fill="#231F20"/>
<path d="M25.4102 22.1333H26.0307L28.0841 24.7615V22.1333H28.7516V25.9343H28.1889L26.0749 23.2303V25.9343H25.4122L25.4102 22.1333Z" fill="#231F20"/>
<path d="M29.9492 22.1333H32.7907V22.7303H30.6229V23.7185H32.5446V24.3163H30.6229V25.3373H32.8204V25.9343H29.952L29.9492 22.1333Z" fill="#231F20"/>
<path d="M33.8327 22.1333H34.5071V25.3264H36.5212V25.9343H33.832L33.8327 22.1333Z" fill="#231F20"/>
<path d="M39.0312 25.3812L39.4367 24.9025C39.8035 25.2171 40.1758 25.3962 40.6468 25.3962C41.0605 25.3962 41.3253 25.2013 41.3253 24.9175V24.9066C41.3253 24.633 41.1729 24.488 40.4613 24.3253C39.6449 24.1297 39.185 23.8903 39.185 23.19V23.1839C39.185 22.5321 39.7318 22.0814 40.4951 22.0814C41.0018 22.0717 41.4954 22.2415 41.8872 22.5602L41.5252 23.0656C41.1805 22.8098 40.8357 22.6744 40.4854 22.6744C40.0904 22.6744 39.8607 22.8754 39.8607 23.1251V23.136C39.8607 23.4287 40.0352 23.5593 40.7757 23.733C41.5859 23.9293 42.0017 24.2165 42.0017 24.8464V24.8573C42.0017 25.5686 41.437 25.9926 40.633 25.9926C40.0407 25.9948 39.4692 25.7767 39.0312 25.3812Z" fill="#231F20"/>
<path d="M42.8359 24.0448V24.0338C42.8359 22.9636 43.6682 22.0684 44.8452 22.0684C46.0222 22.0684 46.8448 22.9526 46.8448 24.0229V24.0338C46.8448 25.1034 46.0174 26 44.8355 26C43.6537 26 42.8359 25.1144 42.8359 24.0448ZM46.1373 24.0448V24.0338C46.1373 23.2953 45.5947 22.6818 44.8335 22.6818C44.0722 22.6818 43.5413 23.2843 43.5413 24.0229V24.0338C43.5413 24.7724 44.084 25.3811 44.8452 25.3811C45.6064 25.3811 46.1373 24.7834 46.1373 24.0448Z" fill="#231F20"/>
<path d="M47.8725 22.1333H48.5461V25.3264H50.5602V25.9343H47.8711L47.8725 22.1333Z" fill="#231F20"/>
<path d="M51.4102 24.3217V22.1333H52.0838V24.2944C52.0838 25.0002 52.4506 25.3756 53.0491 25.3756C53.6476 25.3756 54.0145 25.0227 54.0145 24.3217V22.1333H54.6881V24.2889C54.6881 25.4242 54.0427 25.9945 53.0402 25.9945C52.0376 25.9945 51.4102 25.4242 51.4102 24.3217Z" fill="#231F20"/>
<path d="M56.7611 22.7522H55.5469V22.1333H58.6559V22.7522H57.4355V25.9343H56.7611V22.7522Z" fill="#231F20"/>
<path d="M59.6094 22.1333H60.2837V25.9343H59.6094V22.1333Z" fill="#231F20"/>
<path d="M61.3555 24.0448V24.0338C61.3555 22.9636 62.1877 22.0684 63.364 22.0684C64.5404 22.0684 65.3636 22.9526 65.3636 24.0229V24.0338C65.3636 25.1034 64.5328 26 63.3544 26C62.176 26 61.3555 25.1144 61.3555 24.0448ZM64.6569 24.0448V24.0338C64.6569 23.2953 64.1142 22.6818 63.353 22.6818C62.5918 22.6818 62.0608 23.2843 62.0608 24.0229V24.0338C62.0608 24.7724 62.6035 25.3811 63.364 25.3811C64.1246 25.3811 64.6569 24.7834 64.6569 24.0448Z" fill="#231F20"/>
<path d="M66.3934 22.1333H67.0139L69.0673 24.7615V22.1333H69.73V25.9343H69.1666L67.0533 23.2303V25.9343H66.3906L66.3934 22.1333Z" fill="#231F20"/>
<path d="M70.6719 25.381L71.078 24.9022C71.4441 25.2168 71.8165 25.396 72.2874 25.396C72.7046 25.396 72.9666 25.2011 72.9666 24.9173V24.9064C72.9666 24.6328 72.8135 24.4878 72.1019 24.325C71.2856 24.1295 70.8256 23.8901 70.8256 23.1898V23.1836C70.8256 22.5319 71.3731 22.0812 72.1357 22.0812C72.6424 22.0714 73.136 22.2411 73.5279 22.5599L73.1666 23.0653C72.8218 22.8096 72.477 22.6741 72.1261 22.6741C71.7317 22.6741 71.5014 22.8752 71.5014 23.1248V23.1358C71.5014 23.4285 71.6758 23.5591 72.4164 23.7328C73.2265 23.9291 73.6423 24.2163 73.6423 24.8462V24.8571C73.6423 25.5684 73.0776 25.9924 72.2736 25.9924C71.6814 25.9946 71.1098 25.7764 70.6719 25.381Z" fill="#231F20"/>
<path d="M52.9508 7.35105L48.2586 0.439697H43.332V18.4731H48.2669V8.143L52.8908 15.1754H52.9508V7.35105Z" fill="#231F20"/>
<path d="M0 9.42874V9.37677C0 4.12179 4.0523 0 9.55878 0C13.2725 0 15.6624 1.5449 17.2731 3.73539L13.4808 6.64669C12.441 5.38424 11.2467 4.53417 9.50638 4.53417C6.96413 4.53417 5.17138 6.6973 5.17138 9.32548V9.37677C5.17138 12.0822 6.96413 14.1948 9.50914 14.1948C11.4053 14.1948 12.5223 13.3187 13.6131 12.0063L17.4055 14.6858C15.6886 17.0288 13.3766 18.7549 9.37744 18.7549C4.18192 18.7549 0 14.813 0 9.42874Z" fill="#231F20"/>
<path d="M19.6094 0.360352H24.6484V14.0148H33.4535V18.3917H19.6094V0.360352Z" fill="#231F20"/>
<path d="M52.9492 7.35105L57.52 0.439697H62.568V18.4731H57.6331V8.143L53.0092 15.1754H52.9492V7.35105Z" fill="#00AE42"/>
<path d="M64.9453 0.360352H74.2703C76.5561 0.360352 78.1668 0.92661 79.2349 1.95723C79.9623 2.70471 80.4071 3.65805 80.4071 4.89452V4.9465C80.4071 7.03303 79.2128 8.2695 77.6021 8.96433C79.8086 9.68651 81.2124 10.923 81.2124 13.3699V13.4219C81.2124 16.5131 78.6667 18.3938 74.3296 18.3938H64.9522L64.9453 0.360352ZM75.4398 5.92514C75.4398 4.91982 74.6344 4.37955 73.154 4.37955H69.8547V7.548H73.0265C74.5586 7.548 75.4398 7.03303 75.4398 5.97506V5.92514ZM73.6994 11.0543H69.8547V14.378H73.7504C75.3094 14.378 76.1638 13.785 76.1638 12.7291V12.6771C76.1665 11.6944 75.3874 11.0515 73.6994 11.0515V11.0543Z" fill="#231F20"/>
<path d="M35.9297 10.1633V18.4308L40.9845 18.4691V3.0249L40.9239 3.10902" fill="#231F20"/>
<path d="M40.9151 0.499347L40.9668 0.428223H35.9258V7.5468L40.9151 0.499347Z" fill="#231F20"/>
<path d="M82.9984 1.52238C83.0022 1.67675 82.9748 1.83031 82.9179 1.97403C82.8609 2.11774 82.7756 2.24871 82.6668 2.35921C82.5581 2.46972 82.4282 2.55754 82.2847 2.61749C82.1412 2.67745 81.9871 2.70834 81.8314 2.70834C81.6757 2.70834 81.5216 2.67745 81.3781 2.61749C81.2347 2.55754 81.1047 2.46972 80.996 2.35921C80.8873 2.24871 80.8019 2.11774 80.745 1.97403C80.688 1.83031 80.6606 1.67675 80.6644 1.52238C80.6606 1.36801 80.688 1.21445 80.745 1.07074C80.8019 0.927024 80.8873 0.796059 80.996 0.685553C81.1047 0.575046 81.2347 0.487229 81.3781 0.427271C81.5216 0.367314 81.6757 0.336426 81.8314 0.336426C81.9871 0.336426 82.1412 0.367314 82.2847 0.427271C82.4282 0.487229 82.5581 0.575046 82.6668 0.685553C82.7756 0.796059 82.8609 0.927024 82.9179 1.07074C82.9748 1.21445 83.0022 1.36801 82.9984 1.52238ZM82.8364 1.52238C82.8364 1.3918 82.8105 1.2625 82.7601 1.14185C82.7097 1.02121 82.6358 0.911592 82.5427 0.819256C82.4496 0.72692 82.3391 0.653676 82.2175 0.603704C82.0959 0.553732 81.9655 0.528012 81.8338 0.528012C81.7022 0.528012 81.5718 0.553732 81.4502 0.603704C81.3285 0.653676 81.218 0.72692 81.1249 0.819256C81.0318 0.911592 80.958 1.02121 80.9076 1.14185C80.8572 1.2625 80.8313 1.3918 80.8313 1.52238C80.8313 2.11531 81.2767 2.53727 81.8338 2.53727C82.391 2.53727 82.8364 2.11531 82.8364 1.52238ZM81.3829 2.1201V0.889104H81.8993C82.1751 0.889104 82.3448 1.01973 82.3448 1.27071C82.3485 1.34898 82.3256 1.42623 82.2797 1.49C82.2338 1.55377 82.1676 1.60035 82.0917 1.62223L82.3958 2.1201H82.1524L81.869 1.66326H81.6008V2.1201H81.3829ZM81.8656 1.47725C82.0379 1.47725 82.1186 1.40886 82.1186 1.27208C82.1186 1.1353 82.0379 1.0717 81.8656 1.0717H81.5973V1.47725H81.8656Z" fill="#231F20"/>
</g>
<defs>
<clipPath id="clip0_24474_374">
<rect width="83" height="26" fill="white"/>
</clipPath>
</defs>
</svg>
