<svg width="20" height="20" viewBox="0 0 20 20" fill="none" xmlns="http://www.w3.org/2000/svg">
<path d="M9.98986 4.54297L14.7346 13.8723H5.24512L9.98986 4.54297Z" fill="white"/>
<path d="M13.9938 8.66854H11.7316V14.5945H8.46832V8.66854H5.98584V5.44531H13.9938V8.66854Z" fill="white"/>
<path d="M9.98999 19.98C15.5073 19.98 19.98 15.5073 19.98 9.98999C19.98 4.47267 15.5073 0 9.98999 0C4.47267 0 0 4.47267 0 9.98999C0 15.5073 4.47267 19.98 9.98999 19.98Z" fill="url(#paint0_linear)"/>
<path d="M5.36523 9.99182C5.36523 7.32915 7.3272 5.36719 10.0099 5.36719C12.6725 5.36719 14.6345 7.32915 14.6345 9.99182C14.6345 12.6745 12.6725 14.6365 10.0299 14.6365C7.3272 14.6365 5.36523 12.6745 5.36523 9.99182Z" fill="white"/>
<defs>
<linearGradient id="paint0_linear" x1="0" y1="9.99954" x2="19.9991" y2="9.99954" gradientUnits="userSpaceOnUse">
<stop stop-color="#FFE10C"/>
<stop offset="1" stop-color="#FF9830"/>
</linearGradient>
</defs>
</svg>
