<svg width="20" height="20" viewBox="0 0 20 20" fill="none" xmlns="http://www.w3.org/2000/svg">
<path d="M9.98999 19.98C15.5073 19.98 19.98 15.5073 19.98 9.98999C19.98 4.47267 15.5073 0 9.98999 0C4.47267 0 0 4.47267 0 9.98999C0 15.5073 4.47267 19.98 9.98999 19.98Z" fill="#E6E6EA"/>
<path d="M9.75 10.625C10.8125 10.625 11.625 9.8125 11.625 8.75C11.625 7.6875 10.8125 6.875 9.75 6.875C8.6875 6.875 7.875 7.6875 7.875 8.75C7.875 9.8125 8.6875 10.625 9.75 10.625Z" stroke="#67677E" stroke-linecap="round" stroke-linejoin="round"/>
<path d="M9.75 5C11.8125 5 13.5 6.6875 13.5 8.75C13.5 10.4375 11.0625 13.6875 10.125 14.875C10.0625 15 9.875 15.0625 9.75 15.0625C9.625 15.0625 9.5 15 9.375 14.875C8.4375 13.6875 6 10.4375 6 8.75C6 6.625 7.6875 5 9.75 5Z" stroke="#67677E" stroke-linecap="round" stroke-linejoin="round"/>
</svg>
