<svg xmlns="http://www.w3.org/2000/svg" xmlns:xlink="http://www.w3.org/1999/xlink" viewBox="0 0 662.99 141.63"><defs><style>.cls-1{fill:#fff;}.cls-2{fill:#2547f2;}.cls-3{fill:#f1f1f1;}.cls-4{fill:url(#linear-gradient);}</style><linearGradient id="linear-gradient" x1="23.49" y1="266.17" x2="23.49" y2="312.76" gradientTransform="matrix(1, 0, 0, -1, 0, 328.64)" gradientUnits="userSpaceOnUse"><stop offset="0" stop-color="#f9ea1c"/><stop offset="1" stop-color="#ed5a29"/></linearGradient></defs><g id="Layer_2" data-name="Layer 2"><g id="Layer_4" data-name="Layer 4"><path class="cls-1" d="M557.58,121.2a13,13,0,0,0,5.65-1.12,10.58,10.58,0,0,0,3.85-3,12.92,12.92,0,0,0,2.24-4.31,18,18,0,0,0,.73-5.12v-.93h6.46v.93a23.43,23.43,0,0,1-1.23,7.66,17.89,17.89,0,0,1-3.62,6.23,16.46,16.46,0,0,1-5.92,4.16,20.84,20.84,0,0,1-8.16,1.5q-8.94,0-13.94-5.62t-5-16.4v-12q0-10.47,5-16.24t13.94-5.78a20.65,20.65,0,0,1,8.16,1.51,16.44,16.44,0,0,1,5.92,4.15,17.93,17.93,0,0,1,3.62,6.24,23.43,23.43,0,0,1,1.23,7.66v.92h-6.46v-.92a19.61,19.61,0,0,0-.81-5.08A12.81,12.81,0,0,0,567,81.28a10.69,10.69,0,0,0-3.81-3,12.77,12.77,0,0,0-5.62-1.12q-6.24,0-9.36,4.54T545.1,93.64v11.08q0,7.94,3.12,12.2T557.58,121.2Z"/><path class="cls-1" d="M582,93.17q0-10.47,5-16.24T601,71.15q8.92,0,13.94,5.78t5,16.24v12q0,10.78-5,16.4T601,127.2q-8.93,0-13.93-5.62t-5-16.4Zm18.94,28q6.24,0,9.36-4.28t3.11-12.2V93.64q0-7.4-3.11-11.94T601,77.16q-6.24,0-9.35,4.54t-3.12,11.94v11.08q0,7.94,3.12,12.2T601,121.2Z"/><path class="cls-1" d="M654.94,123.35h.92V72.23h6.47v53.9H649.39L633.84,75h-.92v51.13h-6.47V72.23h12.93Z"/><rect class="cls-2" x="3.68" y="132.33" width="489.44" height="9.27"/><rect class="cls-2" x="538.7" y="132.33" width="123.52" height="4.91" transform="translate(1200.93 269.58) rotate(180)"/><path class="cls-1" d="M24.48,71.11q-9.33,0-14.62,5.79T4.58,93.18v12q0,10.8,5.28,16.43t14.62,5.63q9.35,0,14.62-5.63t5.29-16.43v-12q0-10.5-5.29-16.28T24.48,71.11Zm9.73,34.72a24.31,24.31,0,0,1-.47,4.94,10.12,10.12,0,0,1-1.62,3.86,7.69,7.69,0,0,1-3,2.51,10.71,10.71,0,0,1-4.63.88,10.74,10.74,0,0,1-4.63-.88,7.83,7.83,0,0,1-3-2.51,10.12,10.12,0,0,1-1.62-3.86,25.07,25.07,0,0,1-.46-4.94V92.56a20.29,20.29,0,0,1,.54-4.78A11.06,11.06,0,0,1,17,83.92a8.3,8.3,0,0,1,3-2.58,9.46,9.46,0,0,1,4.47-1,9.53,9.53,0,0,1,4.48,1,8.39,8.39,0,0,1,3,2.58,11,11,0,0,1,1.69,3.86,20.28,20.28,0,0,1,.55,4.78ZM85.13,92a15.31,15.31,0,0,0-5.32-3.82,16.19,16.19,0,0,0-6.44-1.31,14.52,14.52,0,0,0-7.49,1.74,11.36,11.36,0,0,0-4.47,4.9H60V72.19H50.3v54H60v-5.55h1.39a14.86,14.86,0,0,0,1.66,2.5,10.09,10.09,0,0,0,2.39,2.13,12.38,12.38,0,0,0,3.35,1.46,17.08,17.08,0,0,0,4.56.54A16.9,16.9,0,0,0,80,126a14.46,14.46,0,0,0,5.29-3.78,18.7,18.7,0,0,0,3.55-6.14,24.48,24.48,0,0,0,1.31-8.33v-1.39a23.56,23.56,0,0,0-1.35-8.25A18.78,18.78,0,0,0,85.13,92Zm-4.74,15.55a10.38,10.38,0,0,1-2.82,7.68A10,10,0,0,1,70.2,118a9.83,9.83,0,0,1-7.37-2.89,10.46,10.46,0,0,1-2.81-7.6v-.93A10.47,10.47,0,0,1,62.83,99a9.87,9.87,0,0,1,7.37-2.89,10,10,0,0,1,7.37,2.82,10.35,10.35,0,0,1,2.82,7.67Zm42.8-1.27a18.31,18.31,0,0,0-9.57-3.51,28.48,28.48,0,0,1-7-1.35,2.77,2.77,0,0,1-1.93-2.67,2.61,2.61,0,0,1,1.24-2.19,6.27,6.27,0,0,1,3.7-.89,7.53,7.53,0,0,1,4.4,1.19,6.34,6.34,0,0,1,2.39,3.28l8.8-3.55a16.85,16.85,0,0,0-1.78-3.35,13.39,13.39,0,0,0-3-3.17,15.18,15.18,0,0,0-4.51-2.31,20,20,0,0,0-6.29-.89,19.21,19.21,0,0,0-5.4.77,14.62,14.62,0,0,0-4.63,2.28,11.94,11.94,0,0,0-3.24,3.66,10,10,0,0,0-1.23,5V99q0,5.49,3.82,8.3t10.3,3.35a29.57,29.57,0,0,1,4,.62,8.7,8.7,0,0,1,2.51,1,3.41,3.41,0,0,1,1.27,1.23,3,3,0,0,1,.35,1.43,3.18,3.18,0,0,1-1.35,2.43c-.9.74-2.56,1.12-5,1.12-2.73,0-4.74-.62-6.06-1.86a8.73,8.73,0,0,1-2.58-4.32l-9,2.94a15.18,15.18,0,0,0,1.5,4.12,12.87,12.87,0,0,0,3.21,3.86,17.5,17.5,0,0,0,5.24,2.9,22.39,22.39,0,0,0,7.64,1.15q7.56,0,11.73-3.39a11.15,11.15,0,0,0,4.17-9.11v-.46A9.65,9.65,0,0,0,123.19,106.26ZM165,93a18.22,18.22,0,0,0-5.87-4.4,19.06,19.06,0,0,0-8.48-1.74,19.83,19.83,0,0,0-7.53,1.43,19.05,19.05,0,0,0-6.13,4,18.32,18.32,0,0,0-4.13,6.18,20.76,20.76,0,0,0-1.5,8v.46a24,24,0,0,0,1.43,8.57,18,18,0,0,0,4,6.4,17.22,17.22,0,0,0,6.13,4,21.36,21.36,0,0,0,7.87,1.39,22.84,22.84,0,0,0,6.6-.85,17.47,17.47,0,0,0,4.78-2.16,13.27,13.27,0,0,0,3.2-2.89,15.78,15.78,0,0,0,1.93-3L159,113.7a7.59,7.59,0,0,1-2.78,3,10.06,10.06,0,0,1-5.55,1.27,10.67,10.67,0,0,1-3.51-.57,9.56,9.56,0,0,1-2.94-1.63,7.77,7.77,0,0,1-2-2.46,7.52,7.52,0,0,1-.81-3.13h28.08v-5.17a19.34,19.34,0,0,0-1.08-6.21A17.33,17.33,0,0,0,165,93Zm-23.46,8.91a8.68,8.68,0,0,1,3-4.36,9.23,9.23,0,0,1,6-1.89,10.13,10.13,0,0,1,6.13,1.77,6.9,6.9,0,0,1,2.9,4.48ZM201,86.85a10.84,10.84,0,0,0-6.21,1.74,9.32,9.32,0,0,0-3.67,4.9h-1.39V87.93h-16.2v9.26h6.94v19.75h-7.87v9.26H199v-9.26h-8.79V104.6a9.8,9.8,0,0,1,1.85-6.41A6.24,6.24,0,0,1,197.15,96,6,6,0,0,1,202,97.85a7.49,7.49,0,0,1,1.62,5.05V104l10-.93v-1.69q0-7.33-3.47-10.92A12.2,12.2,0,0,0,201,86.85Zm35.74,34.72h-1.39l-9-33.64H215.84l11,38.27h18.51l11-38.27H245.78ZM296,114.63V87.93h-9.72v4.63h-1.39a9.79,9.79,0,0,0-4-4.32,13.53,13.53,0,0,0-6.6-1.39,15.13,15.13,0,0,0-11.57,5.25,18.81,18.81,0,0,0-3.55,6.17,23.84,23.84,0,0,0-1.31,8.18v1.23a23.57,23.57,0,0,0,1.35,8.26,18.74,18.74,0,0,0,3.66,6.17,15.33,15.33,0,0,0,5.36,3.86,16.27,16.27,0,0,0,6.52,1.31,13.49,13.49,0,0,0,6.49-1.5,10,10,0,0,0,4.32-5.13H287a5.25,5.25,0,0,0,1.65,4,6.05,6.05,0,0,0,4.29,1.54h8.36v-9.26h-3.19C296.68,116.94,296,116.17,296,114.63Zm-9.72-7.1a11,11,0,0,1-2.55,7.68,9.61,9.61,0,0,1-13.58,0,11.07,11.07,0,0,1-2.54-7.68v-.93a11,11,0,0,1,2.54-7.67,9.58,9.58,0,0,1,13.58,0,11,11,0,0,1,2.55,7.67ZM340,92a15.44,15.44,0,0,0-5.33-3.82,16.19,16.19,0,0,0-6.44-1.31,14.52,14.52,0,0,0-7.49,1.74,11.36,11.36,0,0,0-4.47,4.9h-1.39V72.19h-9.72v54h9.72v-5.55h1.39a14.86,14.86,0,0,0,1.66,2.5,10.09,10.09,0,0,0,2.39,2.13,12.31,12.31,0,0,0,3.36,1.46,18.42,18.42,0,0,0,11.15-.73,14.51,14.51,0,0,0,5.28-3.78,18.53,18.53,0,0,0,3.55-6.14,24.48,24.48,0,0,0,1.31-8.33v-1.39a23.56,23.56,0,0,0-1.35-8.25A18.94,18.94,0,0,0,340,92Zm-4.75,15.55a10.38,10.38,0,0,1-2.82,7.68,9.93,9.93,0,0,1-7.37,2.81,9.79,9.79,0,0,1-7.36-2.89,10.42,10.42,0,0,1-2.82-7.6v-.93a10.44,10.44,0,0,1,2.82-7.6,9.83,9.83,0,0,1,7.36-2.89,9.94,9.94,0,0,1,7.37,2.82,10.35,10.35,0,0,1,2.82,7.67ZM361.85,81.8a7.91,7.91,0,0,0,2.31,1.54,7.22,7.22,0,0,0,5.67,0,7.77,7.77,0,0,0,2.36-1.54,7,7,0,0,0,1.58-2.32,7.33,7.33,0,0,0-1.58-8.1,7.77,7.77,0,0,0-2.36-1.54,7.22,7.22,0,0,0-5.67,0,7.91,7.91,0,0,0-2.31,1.54,7,7,0,0,0-1.58,2.32,7.49,7.49,0,0,0,0,5.78A6.87,6.87,0,0,0,361.85,81.8ZM372,87.93H350.2v9.26h12v19.75h-13v9.26h33.8v-9.26H372Zm38.71-15.74H388v9.26h13v35.49H387.52v9.26h35.65v-9.26h-12.5Zm29.12,9.61a7.91,7.91,0,0,0,2.31,1.54,7.22,7.22,0,0,0,5.67,0,7.77,7.77,0,0,0,2.36-1.54,7,7,0,0,0,1.58-2.32,7.33,7.33,0,0,0-1.58-8.1,7.77,7.77,0,0,0-2.36-1.54,7.22,7.22,0,0,0-5.67,0,7.91,7.91,0,0,0-2.31,1.54,7,7,0,0,0-1.58,2.32,7.49,7.49,0,0,0,0,5.78A6.87,6.87,0,0,0,439.79,81.8Zm10.11,6.13H428.14v9.26h12v19.75h-13v9.26H461v-9.26H449.9Zm26.75-15.74h-9.72V87.93H455.59v9.26h11.34v23a5.94,5.94,0,0,0,1.66,4.33,5.72,5.72,0,0,0,4.28,1.69h16.21v-9.26H478.74c-1.39,0-2.09-.77-2.09-2.31V97.19h13.81V87.93H476.65ZM520.88,108a12.79,12.79,0,0,1-2,7.68q-2,2.82-6.44,2.82a7.14,7.14,0,0,1-5.78-2.28,9.53,9.53,0,0,1-1.93-6.36V87.93H495v23.92a20.05,20.05,0,0,0,1.05,6.83,13.33,13.33,0,0,0,2.89,4.82,11.47,11.47,0,0,0,4.32,2.86,15.21,15.21,0,0,0,5.32.92q8.41,0,11-6.63h1.39v9.41c0,1.54-.7,2.32-2.08,2.32H501.9v9.25h22.76a5.71,5.71,0,0,0,4.28-1.69,5.94,5.94,0,0,0,1.66-4.32V87.93h-9.72Z"/><path class="cls-3" d="M88.19,27.51a16.2,16.2,0,0,1-16.1,15.84C62.88,43.35,56,35.89,56,26.9A16.56,16.56,0,0,1,72.49,10.36a16.89,16.89,0,0,1,11.45,4.91l-2.63,3.25a13.94,13.94,0,0,0-8.82-3.77,12.12,12.12,0,0,0-12,12.14A11.73,11.73,0,0,0,72.1,39a11.57,11.57,0,0,0,11.41-9.83H70.18v-3.9h18v2.28Z"/><path class="cls-3" d="M103.49,25.37H101a4.91,4.91,0,0,0-4.91,4.91v12.8H91.73V21.16h3.6V23a7.31,7.31,0,0,1,5.17-1.84h4.74Z"/><path class="cls-3" d="M127.39,43.08h-3.73V40.32a10.75,10.75,0,0,1-12,2.15,11.29,11.29,0,0,1,4.49-21.66,10.55,10.55,0,0,1,7.5,3.11V21.16h3.77V43.08ZM122.9,33.7a6.91,6.91,0,1,0-5.51,5.2A6.9,6.9,0,0,0,122.9,33.7Z"/><path class="cls-3" d="M136.23,19.93v1.23h7V25h-7V43.08h-4.34v-23c0-4.82,3.46-7.67,7.8-7.67H145l-1.75,4.12h-3.51A3.43,3.43,0,0,0,136.23,19.93Z"/><path class="cls-3" d="M166.45,43.08h-3.73V40.32a10.77,10.77,0,0,1-12,2.15,11.29,11.29,0,0,1,4.49-21.66,10.53,10.53,0,0,1,7.5,3.11V21.16h3.77V43.08ZM162,33.7a6.91,6.91,0,1,0-5.51,5.2A6.9,6.9,0,0,0,162,33.7Z"/><path class="cls-3" d="M189.87,30.1v13h-4.39v-13a4.93,4.93,0,0,0-9.86,0v13h-4.39V21.16h3.64V23a8.91,8.91,0,0,1,5.88-2.23A9.18,9.18,0,0,1,189.87,30.1Z"/><path class="cls-3" d="M215.66,43.08h-3.73V40.32a10.75,10.75,0,0,1-12,2.15,11.29,11.29,0,0,1,4.48-21.66,10.51,10.51,0,0,1,7.5,3.11V21.16h3.77V43.08Zm-4.49-9.38a6.9,6.9,0,1,0-5.51,5.2A6.9,6.9,0,0,0,211.17,33.7Z"/><path class="cls-4" d="M46.89,22.5a18.86,18.86,0,0,0-.51-2.93,19.07,19.07,0,0,0-1.32-3.52,19.56,19.56,0,0,0-2.47-3.76c-.41-.48-.85-1-1.34-1.43a7.42,7.42,0,0,0-.87-5.33,7.85,7.85,0,0,0-5.13,1.32l-.33-.13c-.47-.19-1-.37-1.44-.52s-1-.3-1.52-.43-1-.22-1.57-.3l-.28,0A9.57,9.57,0,0,0,25.47,0a10.17,10.17,0,0,0-4.56,5.83s0,.08,0,.21l-.64.18c-.29.09-.58.2-.87.31s-.58.22-.88.35a15.89,15.89,0,0,0-1.71.84c-.54.3-1.07.64-1.6,1L15,8.66A13.28,13.28,0,0,0,5,9.07a14.46,14.46,0,0,0,2.63,9.85c-.13.35-.25.7-.36,1.06a24.56,24.56,0,0,0-.86,3.95c0,.19,0,.39-.07.59A13.1,13.1,0,0,0,0,31.9a14,14,0,0,0,8.86,5h0A22.2,22.2,0,0,0,11,40c.33.41.68.8,1,1.17A11.05,11.05,0,0,0,12.22,49a12.68,12.68,0,0,0,8.17-2.49c.46.15.92.29,1.38.41a21.28,21.28,0,0,0,4.27.64l1.07,0h.75A9.18,9.18,0,0,0,33.78,51a9.48,9.48,0,0,0,2.84-6.25h0v-.12h0s0-.09,0-.14a15.23,15.23,0,0,0,1.61-1.27A16.67,16.67,0,0,0,41,40l.22-.34a7.53,7.53,0,0,0,5.18-1.88,8,8,0,0,0-2.69-5h0l0,0,0,0h0l-.06,0c0-.19,0-.38,0-.57q0-.51,0-1V30a2.4,2.4,0,0,0,0-.28,2.46,2.46,0,0,0,0-.26l0-.26,0-.27c-.05-.34-.13-.69-.2-1a13.14,13.14,0,0,0-1.56-3.83A13.31,13.31,0,0,0,39.2,21,13,13,0,0,0,36,18.93a12.43,12.43,0,0,0-3.59-1,13.74,13.74,0,0,0-1.81-.11h-.67l-.24,0a8.65,8.65,0,0,0-.91.14,10.08,10.08,0,0,0-3.35,1.25,10,10,0,0,0-4.21,5,9.72,9.72,0,0,0-.65,2.95c0,.24,0,.49,0,.73a1.09,1.09,0,0,0,0,.18v.19c0,.12,0,.24,0,.36A8.29,8.29,0,0,0,20.81,30,7.64,7.64,0,0,0,22,32.48a7.47,7.47,0,0,0,1.82,1.74,7.27,7.27,0,0,0,2.07,1A7.16,7.16,0,0,0,28,35.5h.51l.21,0h.12l.13,0,.24,0,.23,0a3.19,3.19,0,0,0,.44-.13,6.53,6.53,0,0,0,.81-.33,5.78,5.78,0,0,0,.69-.43l.19-.13a.52.52,0,0,0-.58-.87l-.17.09c-.19.09-.39.17-.6.25a6.37,6.37,0,0,1-.66.16l-.35,0h-.91l-.19,0a5.76,5.76,0,0,1-1.54-.45A5.6,5.6,0,0,1,24,31.18a5.21,5.21,0,0,1-.6-1.74,5,5,0,0,1-.06-1,2.09,2.09,0,0,1,0-.25v-.12a.49.49,0,0,0,0-.12c0-.17.05-.35.08-.52a6.68,6.68,0,0,1,1.95-3.66,8,8,0,0,1,.85-.69,6,6,0,0,1,.95-.54,6.11,6.11,0,0,1,1-.37,6.55,6.55,0,0,1,1.09-.2l.56,0h.58a8.31,8.31,0,0,1,1.2.19,8.11,8.11,0,0,1,2.27.86,8.3,8.3,0,0,1,3.41,3.53A8,8,0,0,1,38.12,29c0,.21.06.41.07.62v.48a.74.74,0,0,1,0,.15v.29c0,.1,0,.27,0,.37s0,.46-.06.69-.07.45-.11.67-.09.45-.15.67a9.85,9.85,0,0,1-.42,1.3,10.6,10.6,0,0,1-1.32,2.4,10.85,10.85,0,0,1-4.24,3.47,10.67,10.67,0,0,1-2.63.81,12.9,12.9,0,0,1-1.38.14h-.7c-.24,0-.49,0-.74,0a13.47,13.47,0,0,1-2.9-.52,14,14,0,0,1-2.73-1.1,14.46,14.46,0,0,1-4.49-3.73,13.75,13.75,0,0,1-1.58-2.44,14.7,14.7,0,0,1-1.05-2.69,14.3,14.3,0,0,1-.47-2.83V26.62c0-.11,0-.23,0-.35,0-.47.05-.95.12-1.44s.14-1,.24-1.45.22-1,.35-1.43a18.64,18.64,0,0,1,1-2.71A14.92,14.92,0,0,1,18,14.78c.32-.31.64-.6,1-.87A11.11,11.11,0,0,1,20,13.16a11.19,11.19,0,0,1,1.11-.66l.58-.28.29-.14.3-.12c.4-.17.81-.31,1.22-.44l.31-.09.31-.09.64-.16.31-.07.32-.07.33-.06.16,0,.15,0,.33,0c.12,0,.24,0,.36-.05l.36,0,.23,0,.16,0h.16l.37,0h.62q.61,0,1.23,0a17.11,17.11,0,0,1,2.4.26,16.86,16.86,0,0,1,4.35,1.45,17.62,17.62,0,0,1,3.56,2.32l.19.16.18.17.37.33.35.34.34.35c.44.47.84.93,1.21,1.4a18.26,18.26,0,0,1,1.78,2.8l.09.17a1.3,1.3,0,0,1,.08.17c.06.11.11.22.16.33s.11.22.15.33.1.21.14.31c.17.43.33.83.46,1.21.21.61.37,1.16.49,1.64a.41.41,0,0,0,.8-.08C47,23.8,47,23.19,46.89,22.5Z"/><path class="cls-1" d="M434,30.41a8.12,8.12,0,1,1,8.09,8.25A8.18,8.18,0,0,1,434,30.41Zm14.11,0a6,6,0,1,0-12,0,6,6,0,1,0,12,0Z"/><path class="cls-1" d="M457,30.41a8.24,8.24,0,0,1,8.13-8.32,7.79,7.79,0,0,1,6,2.72l-1.53,1.3a5.93,5.93,0,0,0-4.49-2.06,6.34,6.34,0,0,0,0,12.66,5.91,5.91,0,0,0,4.49-2.07L471.12,36a7.78,7.78,0,0,1-6,2.71A8.18,8.18,0,0,1,457,30.41Z"/><path class="cls-1" d="M489.24,22.37v1.95h-4.88V38.39h-2.11V24.32h-4.88V22.37Z"/><path class="cls-1" d="M494.57,30.41a8.11,8.11,0,1,1,8.09,8.25A8.18,8.18,0,0,1,494.57,30.41Zm14.11,0a6,6,0,1,0-12,0,6,6,0,1,0,12,0Z"/><path class="cls-1" d="M529.79,33.88a4.49,4.49,0,0,1-4.67,4.51h-6.53v-16h6c2.65,0,4.32,1.58,4.32,4.09a3.37,3.37,0,0,1-2,3.4A4,4,0,0,1,529.79,33.88Zm-5.2-9.56H520.7V29h3.95a2.1,2.1,0,0,0,2.17-2.37A2.12,2.12,0,0,0,524.59,24.32Zm.09,12.11a2.77,2.77,0,1,0,.11-5.53H520.7v5.53Z"/><path class="cls-1" d="M539.78,36.43h7.58v2h-9.67v-16h9.44v1.95h-7.35v5.21h6.42v2h-6.42Z"/><path class="cls-1" d="M563.38,38.39l-4.2-6h-2.07v6H555v-16h6c3.49,0,4.84,2.51,4.84,5,0,2.32-1.33,4.79-4.19,5l4.26,6Zm-6.27-14.07v6.09h3.35c2.34,0,3.27-1.23,3.27-3s-1-3.05-2.67-3.05Z"/><path class="cls-1" d="M586.88,36.43H593v2h-9.56v-.91l5.72-6.9a6.4,6.4,0,0,0,1.61-3.1,2.51,2.51,0,0,0-2.75-2.55,2.62,2.62,0,0,0-2.9,2.3l-1.82-.4A4.42,4.42,0,0,1,588.06,23c2.86,0,4.77,1.79,4.77,4.48a6.9,6.9,0,0,1-1.77,3.93Z"/><path class="cls-1" d="M610.9,33.62a5.14,5.14,0,0,1-5.39,5c-3.74,0-5.65-2.58-5.65-7.39,0-3.58,1.4-8.27,6.21-8.27a4.69,4.69,0,0,1,4.67,3.09l-1.84.74a3,3,0,0,0-2.88-1.9c-2.35,0-4.11,2.62-3.95,5.6a4.33,4.33,0,0,1,3.63-1.93A5.05,5.05,0,0,1,610.9,33.62Zm-2.11,0a3.11,3.11,0,0,0-3.16-3.06,3.31,3.31,0,0,0-3.54,2.92,3.3,3.3,0,0,0,3.3,3.31A3.23,3.23,0,0,0,608.79,33.57Z"/><path class="cls-1" d="M618.71,33.83V32.09h10.51v1.74Z"/><path class="cls-1" d="M638.9,36.43h6.16v2h-9.55v-.91l5.72-6.9a6.36,6.36,0,0,0,1.6-3.1,2.5,2.5,0,0,0-2.74-2.55,2.64,2.64,0,0,0-2.91,2.3l-1.81-.4A4.41,4.41,0,0,1,640.09,23c2.86,0,4.76,1.79,4.76,4.48a6.88,6.88,0,0,1-1.76,3.93Z"/><path class="cls-1" d="M663,30.34c0,3.58-1.41,8.32-6.23,8.32a4.67,4.67,0,0,1-4.67-3.06l1.84-.75a3,3,0,0,0,2.88,1.91c2.33,0,4.09-2.6,4-5.58A4.28,4.28,0,0,1,657.16,33a5,5,0,1,1,.16-10C661.06,23,663,26.09,663,30.34Zm-2.25-2.16a3.24,3.24,0,0,0-3.3-3.23A3.18,3.18,0,0,0,654,28a3.11,3.11,0,0,0,3.17,3.07A3.29,3.29,0,0,0,660.74,28.18Z"/></g></g></svg>