<svg width="25" height="22" viewBox="0 0 25 22" fill="none" xmlns="http://www.w3.org/2000/svg">
<path d="M19 1H2.5C2.10218 1 1.72065 1.15803 1.43935 1.43934C1.15804 1.72064 1 2.10218 1 2.5V19C1 19.3978 1.15804 19.7794 1.43935 20.0607C1.72065 20.342 2.10218 20.5 2.5 20.5H20.5C20.8978 20.5 21.2793 20.342 21.5607 20.0607C21.842 19.7794 22 19.3978 22 19V10" stroke="#FB9D5A" stroke-width="1.5" stroke-linecap="round" stroke-linejoin="round"/>
<path d="M1 5.5H13.75" stroke="#FB9D5A" stroke-width="1.5" stroke-linecap="round" stroke-linejoin="round"/>
<path d="M23.03 5.22L17.31 10.94L14.5 11.5L15.06 8.69L20.78 2.97C20.9264 2.82165 21.1008 2.70374 21.293 2.62308C21.4853 2.54241 21.6915 2.50058 21.9 2.5C22.1085 2.50003 22.315 2.54161 22.5073 2.62231C22.6996 2.703 22.8739 2.8212 23.02 2.97V2.97C23.1679 3.11767 23.2851 3.29304 23.3652 3.48608C23.4452 3.67911 23.4864 3.88603 23.4864 4.095C23.4864 4.30397 23.4452 4.51089 23.3652 4.70393C23.2851 4.89696 23.1679 5.07233 23.02 5.22H23.03Z" stroke="#FB9D5A" stroke-width="1.5" stroke-linecap="round" stroke-linejoin="round"/>
<path d="M5.5 11.5H10" stroke="#FB9D5A" stroke-width="1.5" stroke-linecap="round" stroke-linejoin="round"/>
<path d="M5.5 16H15.25" stroke="#FB9D5A" stroke-width="1.5" stroke-linecap="round" stroke-linejoin="round"/>
</svg>
