<svg xmlns="http://www.w3.org/2000/svg" width="21" height="21" viewBox="0 0 21 21" fill="none">
<g clip-path="url(#clip0_19010_1834)">
<path d="M19.0312 7.21875H11.8125L10.5 8.53125L9.1875 7.21875H1.96875C1.62065 7.21875 1.28681 7.08037 1.04066 6.83423C0.794523 6.58809 0.65625 6.25435 0.65625 5.90625V1.96875C0.65625 1.62065 0.794523 1.28691 1.04066 1.04077C1.28681 0.79463 1.62065 0.65625 1.96875 0.65625H19.0312C19.3793 0.65625 19.7132 0.79463 19.9593 1.04077C20.2055 1.28691 20.3438 1.62065 20.3438 1.96875V5.90625C20.3437 6.25435 20.2055 6.58809 19.9593 6.83423C19.7132 7.08037 19.3793 7.21875 19.0312 7.21875V7.21875Z" stroke="#CE64CE" stroke-width="1.5" stroke-linecap="round" stroke-linejoin="round"/>
<path d="M2.95752 17.0625C3.41304 17.0625 3.85831 16.9274 4.23694 16.6741C4.61556 16.4208 4.91049 16.0607 5.08441 15.6397C5.25832 15.2187 5.30339 14.7557 5.21389 14.3091C5.12438 13.8624 4.90433 13.4524 4.58162 13.1309C4.25891 12.8095 3.84806 12.5909 3.40108 12.5031C2.95411 12.4153 2.49114 12.4622 2.0708 12.6377C1.65046 12.8132 1.29164 13.1094 1.03983 13.489C0.788017 13.8686 0.654535 14.3143 0.656267 14.7699C0.658582 15.3787 0.902054 15.9618 1.33337 16.3915C1.76469 16.8212 2.3487 17.0625 2.95752 17.0625V17.0625Z" stroke="#CE64CE" stroke-width="1.5" stroke-linecap="round" stroke-linejoin="round"/>
<path d="M6.57126 20.1248C6.34145 19.5811 5.99182 19.0964 5.54848 18.7068C5.10515 18.3171 4.57955 18.0324 4.01088 17.8743C3.44221 17.7161 2.84516 17.6885 2.2643 17.7933C1.68343 17.8981 1.13375 18.1329 0.65625 18.4799" stroke="#CE64CE" stroke-width="1.5" stroke-linecap="round" stroke-linejoin="round"/>
<path d="M18.0425 17.0625C18.4984 17.0642 18.9445 16.9306 19.3243 16.6784C19.7041 16.4262 20.0004 16.0668 20.1756 15.6459C20.3509 15.2251 20.3972 14.7616 20.3087 14.3144C20.2202 13.8672 20.0009 13.4563 19.6785 13.1339C19.3561 12.8116 18.9453 12.5923 18.4981 12.5037C18.0509 12.4152 17.5874 12.4616 17.1666 12.6368C16.7457 12.8121 16.3864 13.1083 16.1342 13.4881C15.882 13.8679 15.7483 14.314 15.75 14.7699C15.7523 15.3772 15.9946 15.9591 16.424 16.3885C16.8535 16.8179 17.4352 17.0602 18.0425 17.0625V17.0625Z" stroke="#CE64CE" stroke-width="1.5" stroke-linecap="round" stroke-linejoin="round"/>
<path d="M14.4287 20.1248C14.6585 19.5811 15.0081 19.0964 15.4515 18.7068C15.8948 18.3171 16.4204 18.0324 16.9891 17.8743C17.5578 17.7161 18.1548 17.6885 18.7357 17.7933C19.3165 17.8981 19.8662 18.1329 20.3437 18.4799" stroke="#CE64CE" stroke-width="1.5" stroke-linecap="round" stroke-linejoin="round"/>
<path d="M10.5 17.0625C11.0849 17.0625 11.6567 16.8891 12.1431 16.5641C12.6295 16.2391 13.0085 15.7773 13.2324 15.2368C13.4562 14.6964 13.5148 14.1018 13.4007 13.5281C13.2865 12.9544 13.0049 12.4273 12.5912 12.0137C12.1776 11.6001 11.6507 11.3184 11.077 11.2043C10.5033 11.0902 9.90862 11.1488 9.36821 11.3726C8.8278 11.5965 8.36589 11.9755 8.04092 12.4619C7.71594 12.9482 7.54248 13.5201 7.54248 14.1051C7.54248 14.8894 7.85408 15.6416 8.40872 16.1962C8.96336 16.7509 9.71561 17.0625 10.5 17.0625Z" stroke="#CE64CE" stroke-width="1.5" stroke-linecap="round" stroke-linejoin="round"/>
<path d="M14.6214 20.3438C14.1234 19.7297 13.4946 19.2344 12.7809 18.8942C12.0671 18.554 11.2864 18.3774 10.4957 18.3774C9.70507 18.3774 8.92437 18.554 8.21061 18.8942C7.49686 19.2344 6.86807 19.7297 6.37012 20.3438" stroke="#CE64CE" stroke-width="1.5" stroke-linecap="round" stroke-linejoin="round"/>
</g>
<defs>
<clipPath id="clip0_19010_1834">
<rect width="21" height="21" fill="white"/>
</clipPath>
</defs>
</svg>