<svg width="19" height="17" viewBox="0 0 19 17" fill="none" xmlns="http://www.w3.org/2000/svg">
<path d="M9.54464 15.6184L17.4992 7.01212C17.6486 6.86265 17.7417 6.66607 17.7625 6.45577C17.7834 6.24548 17.7308 6.03444 17.6137 5.85852L14.3844 1.40735C14.301 1.28221 14.1879 1.17959 14.0553 1.10862C13.9227 1.03764 13.7747 1.0005 13.6243 1.00049H5.46258C5.31217 1.0005 5.1641 1.03764 5.0315 1.10862C4.8989 1.17959 4.78587 1.28221 4.70244 1.40735L1.47553 5.85852C1.35844 6.03444 1.30587 6.24548 1.32674 6.45577C1.34761 6.66607 1.44065 6.86265 1.59004 7.01212L9.54464 15.6184Z" stroke="#F3742B" stroke-width="1.5" stroke-linecap="round" stroke-linejoin="round"/>
<path d="M1.32983 6.48193H17.7604" stroke="#F3742B" stroke-width="1.5" stroke-linecap="round" stroke-linejoin="round"/>
<path d="M9.54541 1V15.6179" stroke="#F3742B" stroke-width="1.5" stroke-linecap="round" stroke-linejoin="round"/>
</svg>
