<svg width="21" height="21" viewBox="0 0 21 21" fill="none" xmlns="http://www.w3.org/2000/svg">
<g clip-path="url(#clip0_19010_1744)">
<path d="M11.1562 20.3438V16.4062C11.1562 16.0582 11.2945 15.7243 11.5407 15.4782C11.7868 15.232 12.1207 15.0938 12.4688 15.0938C12.7882 15.0868 13.099 15.1982 13.3413 15.4066C13.5836 15.615 13.7403 15.9055 13.7812 16.2225V17.7188C13.7812 18.0668 13.9195 18.4007 14.1657 18.6468C14.4118 18.893 14.7457 19.0312 15.0938 19.0312C15.4418 19.0312 15.7757 18.893 16.0218 18.6468C16.268 18.4007 16.4062 18.0668 16.4062 17.7188V0.65625H7.21875C6.52256 0.65625 5.85489 0.932796 5.36261 1.42508C4.87032 1.91736 4.59375 2.58506 4.59375 3.28125V15.0938" stroke="#FB9D5A" stroke-width="1.5" stroke-linecap="round" stroke-linejoin="round"/>
<path d="M11.1562 20.3438H0.65625V17.7188C0.65625 17.0226 0.932823 16.3549 1.42511 15.8626C1.91739 15.3703 2.58506 15.0938 3.28125 15.0938H12.4688" stroke="#FB9D5A" stroke-width="1.5" stroke-linecap="round" stroke-linejoin="round"/>
<path d="M15.0938 19.0312H11.1562" stroke="#FB9D5A" stroke-width="1.5" stroke-linecap="round" stroke-linejoin="round"/>
<path d="M7.21875 11.1562H13.7812" stroke="#FB9D5A" stroke-width="1.5" stroke-linecap="round" stroke-linejoin="round"/>
<path d="M7.21875 8.53125H13.7812" stroke="#FB9D5A" stroke-width="1.5" stroke-linecap="round" stroke-linejoin="round"/>
<path d="M7.21875 5.90625H13.7812" stroke="#FB9D5A" stroke-width="1.5" stroke-linecap="round" stroke-linejoin="round"/>
<path d="M17.7188 0.65625H16.4062V4.59375H20.3438V3.28125C20.3438 2.58506 20.0672 1.91736 19.5749 1.42508C19.0826 0.932796 18.4149 0.65625 17.7188 0.65625Z" stroke="#FB9D5A" stroke-width="1.5" stroke-linecap="round" stroke-linejoin="round"/>
</g>
<defs>
<clipPath id="clip0_19010_1744">
<rect width="21" height="21" fill="white"/>
</clipPath>
</defs>
</svg>
