<svg width="15" height="17" viewBox="0 0 15 17" fill="none" xmlns="http://www.w3.org/2000/svg">
<path d="M0.795061 4.12254L7.19893 6.97772C7.31536 7.03599 7.37358 7.03599 7.49001 7.03599C7.60645 7.03599 7.66466 7.03599 7.7811 6.97772L14.1267 4.12254C14.3596 4.06427 14.5343 3.77292 14.5343 3.53985C14.5343 3.2485 14.3596 3.01542 14.1267 2.89889L7.7811 0.0437018C7.60645 -0.0145673 7.37358 -0.0145673 7.19893 0.0437018L0.795061 2.89889C0.562193 3.01542 0.387542 3.2485 0.387542 3.53985C0.387542 3.77292 0.562193 4.06427 0.795061 4.12254ZM14.9418 13.096L12.0309 7.26907C11.9145 7.03599 11.6816 6.86118 11.3905 6.86118C11.0995 6.86118 10.8666 7.03599 10.7502 7.26907L7.54823 14.9606C7.54823 14.9606 7.54823 15.0189 7.49001 15.0189C7.43179 15.0189 7.43179 15.0189 7.43179 14.9606L4.46273 7.3856C4.3463 7.15253 4.11343 6.97772 3.88056 6.91945C3.58947 6.91945 3.35661 7.03599 3.24017 7.26907L0.096457 12.9794C-0.0199769 13.1542 -0.0199769 13.329 0.0382401 13.5621C0.096457 13.7369 0.212891 13.9117 0.445759 13.97L7.25714 16.9417C7.37358 17 7.43179 17 7.54823 17C7.66466 17 7.72288 17 7.83931 16.9417L14.6507 13.97C14.8253 13.9117 14.9418 13.7369 15 13.5621C15 13.4456 15 13.2125 14.9418 13.096Z" fill="url(#paint0_linear_17977_2006)"/>
<defs>
<linearGradient id="paint0_linear_17977_2006" x1="7.5" y1="0" x2="7.5" y2="17" gradientUnits="userSpaceOnUse">
<stop stop-color="#F15B2B"/>
<stop offset="1" stop-color="#FADE2A"/>
</linearGradient>
</defs>
</svg>
