 <svg width="19" height="13" viewBox="0 0 19 13" fill="none" xmlns="http://www.w3.org/2000/svg">
<g clip-path="url(#clip0_17977_1962)">
<path d="M16.149 5.75476C16.149 4.73213 15.9575 3.70951 15.3901 2.78046C14.344 1.02262 12.4433 0 10.4469 0C9.49658 0 8.45052 0.28072 7.5959 0.741902C6.46096 1.39023 5.51061 2.50643 5.12774 3.7162C2.27672 3.52905 0 5.66787 0 8.36144C0 10.9614 2.09212 13.0067 4.75171 13.0067H15.1986C17.2908 13.0067 19 11.3357 19 9.29049C19 7.61285 17.7625 6.12905 16.149 5.75476ZM15.1986 11.1419H4.75171C3.13818 11.1419 1.90068 9.93213 1.90068 8.35476C1.90068 6.77738 3.13818 5.6144 4.75171 5.56761C5.8593 5.53419 6.55667 5.9419 6.55667 5.9419C6.55667 5.9419 6.48147 3.32853 8.55308 2.31928C9.12055 2.03856 9.79057 1.8581 10.4538 1.8581C11.787 1.8581 13.1133 2.6 13.7765 3.7162C14.6517 5.15321 13.968 7.43239 13.968 7.43239H15.1098C16.1558 7.43239 17.1062 8.26787 17.1062 9.29049C17.1062 10.3131 16.2447 11.1419 15.1986 11.1419Z" fill="url(#paint0_linear_17977_1962)"/>
</g>
<defs>
<linearGradient id="paint0_linear_17977_1962" x1="9.50677" y1="16.9342" x2="9.49259" y2="-0.988602" gradientUnits="userSpaceOnUse">
<stop stop-color="#FCFA1C"/>
<stop offset="0.9455" stop-color="#F05A29"/>
</linearGradient>
<clipPath id="clip0_17977_1962">
<rect width="19" height="13" fill="white"/>
</clipPath>
</defs>
</svg>
