<svg width="23" height="16" viewBox="0 0 23 16" fill="none" xmlns="http://www.w3.org/2000/svg">
<path fill-rule="evenodd" clip-rule="evenodd" d="M10.0917 2.4438C8.88953 3.15471 8.01629 4.42154 8.01629 6.22742V7.66492L6.72554 7.02205C5.04037 6.18273 3.10152 6.85757 2.19083 8.44502C1.64677 9.39338 1.61801 10.8408 2.28849 12.0653C2.92925 13.2356 4.22803 14.2232 6.41084 14.2232L17.4699 14.2232C18.9111 14.2232 19.8436 13.8264 20.403 13.3348C20.9602 12.8451 21.2162 12.2037 21.2162 11.5579C21.2162 10.8893 20.9424 10.143 20.407 9.60975C19.8961 9.10092 19.1027 8.74066 17.9373 8.88579L16.6814 9.04216L16.956 7.8115C17.283 6.34582 17.1812 5.13315 16.7493 4.20099C16.3247 3.28475 15.5388 2.54588 14.3027 2.08415C12.9109 1.56427 11.3207 1.71702 10.0917 2.4438ZM9.18111 0.915923C10.8753 -0.0859829 13.0309 -0.288581 14.929 0.420443C16.5469 1.0248 17.7231 2.06275 18.3689 3.45639C18.8699 4.53781 19.0249 5.77483 18.8814 7.09482C20.0318 7.1908 20.9738 7.66161 21.6682 8.35323C22.56 9.24143 23 10.4496 23 11.5579C23 12.689 22.5423 13.8243 21.5831 14.6673C20.6261 15.5083 19.2394 16 17.4699 16L6.41084 16C3.59896 16 1.68701 14.6777 0.722493 12.9161C-0.212313 11.2089 -0.240914 9.10263 0.642091 7.56344C1.78467 5.57177 4.08143 4.49226 6.33908 5.00762C6.67232 3.15797 7.75798 1.7575 9.18111 0.915923Z" fill="#9292A5"/>
</svg>
