<svg xmlns="http://www.w3.org/2000/svg" width="23" height="21" viewBox="0 0 23 21" fill="none">
<g>
<path d="M0 14.8198H6.21" stroke="#FB5A67" stroke-width="1.5"/>
<path d="M8.16003 14.8198H14.36" stroke="#FB5A67" stroke-width="1.5"/>
<path d="M16.3101 14.8198H22.5201" stroke="#FB5A67" stroke-width="1.5"/>
<path d="M0 12.0098H6.21" stroke="#FB5A67" stroke-width="1.5"/>
<path d="M8.16003 12.0098H14.36" stroke="#FB5A67" stroke-width="1.5"/>
<path d="M16.3101 12.0098H22.5201" stroke="#FB5A67" stroke-width="1.5"/>
<path d="M8.16003 0.75H14.36" stroke="#FB5A67" stroke-width="1.5"/>
<path d="M8.16003 3.56006H14.36" stroke="#FB5A67" stroke-width="1.5"/>
<path d="M16.3101 3.56006H22.5201" stroke="#FB5A67" stroke-width="1.5"/>
<path d="M0 9.18994H6.21" stroke="#FB5A67" stroke-width="1.5"/>
<path d="M8.16003 9.18994H14.36" stroke="#FB5A67" stroke-width="1.5"/>
<path d="M16.3101 9.18994H22.5201" stroke="#FB5A67" stroke-width="1.5"/>
<path d="M0.0500488 17.6299H6.25005" stroke="#FB5A67" stroke-width="1.5"/>
<path d="M8.19995 17.6299H14.41" stroke="#FB5A67" stroke-width="1.5"/>
<path d="M0.0500488 20.4502H6.25005" stroke="#FB5A67" stroke-width="1.5"/>
<path d="M8.19995 20.4502H14.41" stroke="#FB5A67" stroke-width="1.5"/>
<path d="M0.0500488 6.37988H6.25005" stroke="#FB5A67" stroke-width="1.5"/>
<path d="M8.19995 6.37988H14.41" stroke="#FB5A67" stroke-width="1.5"/>
<path d="M16.36 6.37988H22.56" stroke="#FB5A67" stroke-width="1.5"/>
</g>
<defs>
<clipPath id="clip0_19009_1576">
<rect width="23" height="21" fill="white"/>
</clipPath>
</defs>
</svg>