<svg width="17" height="17" viewBox="0 0 17 17" fill="none" xmlns="http://www.w3.org/2000/svg">
<path d="M13.1553 11.2091C13.3319 10.9169 13.4251 10.5839 13.4251 10.2448C13.4251 9.9056 13.3319 9.57258 13.1553 9.28041L10.2091 4.30966C10.0365 4.01603 9.78689 3.77243 9.48594 3.60385C9.18499 3.43527 8.84355 3.34781 8.49649 3.35034C8.1502 3.34818 7.80948 3.43587 7.50941 3.60446C7.20935 3.77305 6.96068 4.01643 6.78889 4.30966L3.8376 9.28041C3.66251 9.5731 3.5703 9.90591 3.5703 10.2448C3.5703 10.5836 3.66251 10.9164 3.8376 11.2091C4.00997 11.5033 4.25934 11.7476 4.56024 11.917C4.86115 12.0864 5.20285 12.1749 5.55031 12.1734H11.4477C11.7944 12.1746 12.1352 12.0859 12.4352 11.9164C12.7353 11.747 12.9837 11.5029 13.1553 11.2091ZM5.19341 10.4435C5.15659 10.3834 5.13716 10.3148 5.13716 10.2448C5.13716 10.1748 5.15659 10.106 5.19341 10.0459L8.14469 5.07517C8.17955 5.01424 8.23063 4.96357 8.29253 4.92858C8.35443 4.89358 8.42495 4.87555 8.49649 4.87633C8.56869 4.8757 8.63976 4.89376 8.70245 4.9287C8.76514 4.96363 8.81717 5.0142 8.85327 5.07517L11.7995 10.0459C11.8363 10.106 11.8557 10.1748 11.8557 10.2448C11.8557 10.3148 11.8363 10.3834 11.7995 10.4435C11.7646 10.5045 11.7135 10.5552 11.6516 10.5901C11.5897 10.6251 11.5192 10.6432 11.4477 10.6424H5.55031C5.47811 10.643 5.40704 10.625 5.34436 10.59C5.28167 10.5551 5.2295 10.5045 5.19341 10.4435ZM10.5303 15.1807C9.32879 15.5298 8.0542 15.5641 6.83481 15.2801C6.63344 15.2337 6.42129 15.2666 6.2447 15.3718C6.06811 15.477 5.94131 15.6459 5.89178 15.8418C5.86756 15.9394 5.86344 16.0408 5.87958 16.1399C5.89573 16.2391 5.93183 16.3342 5.98586 16.4197C6.03988 16.5052 6.11071 16.5794 6.1943 16.6381C6.27789 16.6967 6.37251 16.7386 6.4728 16.7614C7.14017 16.9203 7.8247 17.0004 8.51168 17C9.34888 16.9994 10.1816 16.8806 10.9839 16.6471C11.1801 16.5865 11.3438 16.4526 11.4393 16.2748C11.5348 16.0969 11.5543 15.8895 11.4936 15.6977C11.4356 15.5049 11.3017 15.3423 11.1212 15.2454C10.9407 15.1486 10.7283 15.1253 10.5303 15.1807ZM6.22815 1.84916C6.30391 1.84871 6.3794 1.83866 6.45252 1.81931C7.65328 1.4669 8.92832 1.43091 10.148 1.71494C10.2481 1.73856 10.3519 1.74264 10.4536 1.7269C10.5553 1.71115 10.6528 1.67588 10.7404 1.6232C10.8281 1.57051 10.9043 1.50144 10.9644 1.41993C11.0246 1.33841 11.0675 1.24608 11.0909 1.14827C11.1151 1.05066 11.1193 0.949342 11.1032 0.850159C11.0871 0.750976 11.0508 0.655928 10.9968 0.570432C10.9428 0.484937 10.8719 0.410703 10.7884 0.352052C10.7048 0.293401 10.6101 0.251474 10.5099 0.228693C9.84186 0.0743038 9.15748 -0.00242846 8.47098 5.85646e-05C7.62876 0.00057471 6.79095 0.119418 5.98349 0.352962C5.78686 0.414644 5.62308 0.54942 5.52766 0.728074C5.43224 0.906729 5.41289 1.11482 5.47378 1.30731C5.52309 1.4647 5.62311 1.60242 5.759 1.70002C5.89489 1.79761 6.05939 1.84993 6.22815 1.84916ZM3.61335 14.6439C3.75566 14.4957 3.83225 14.2988 3.82653 14.0959C3.8208 13.893 3.73318 13.7005 3.58274 13.5602C2.6734 12.7185 2.00562 11.6595 1.64579 10.4883C1.58364 10.2969 1.4465 10.1373 1.26412 10.0442C1.08174 9.95105 0.86897 9.93203 0.672272 9.99125C0.476015 10.0519 0.312296 10.1857 0.216811 10.3635C0.121325 10.5414 0.101819 10.7488 0.162554 10.9406C0.597012 12.3694 1.41114 13.6607 2.52249 14.6836C2.66002 14.8124 2.84165 14.8868 3.03221 14.8924C3.14137 14.8921 3.24932 14.8699 3.34929 14.8271C3.44926 14.7844 3.53918 14.722 3.61335 14.6439ZM0.0198177 6.53157C-0.0263065 6.72854 0.00881791 6.93534 0.117505 7.10734C0.226192 7.27935 0.399814 7.40284 0.600966 7.45121C0.662029 7.4561 0.723331 7.4561 0.784395 7.45121C0.960957 7.45101 1.13226 7.39234 1.27022 7.28489C1.40818 7.17744 1.50463 7.02753 1.54387 6.85966C1.83439 5.67431 2.43901 4.58415 3.29727 3.69827C3.3682 3.62564 3.42379 3.54008 3.46066 3.44645C3.49754 3.35283 3.51503 3.25296 3.51218 3.15271C3.50934 3.05245 3.48623 2.95374 3.44411 2.86224C3.40199 2.77075 3.34172 2.68828 3.26678 2.61959C3.11574 2.48112 2.91464 2.40655 2.70741 2.41213C2.50018 2.41772 2.30358 2.50305 2.16061 2.64945C1.11326 3.72849 0.375039 5.05695 0.0198177 6.50178V6.53157ZM16.9781 10.4535C17.0024 10.3559 17.0065 10.2546 16.9903 10.1554C16.9742 10.0562 16.9381 9.96116 16.8841 9.87566C16.83 9.79017 16.7592 9.71593 16.6756 9.65728C16.592 9.59863 16.4974 9.5567 16.3971 9.53392C16.1951 9.48894 15.983 9.52314 15.8066 9.62913C15.6303 9.73512 15.5037 9.90443 15.4541 10.1006C15.1623 11.2905 14.554 12.3844 13.6905 13.2719C13.6196 13.3446 13.5641 13.4301 13.5272 13.5238C13.4903 13.6174 13.4727 13.7172 13.4756 13.8175C13.4784 13.9177 13.5017 14.0165 13.5438 14.108C13.5859 14.1995 13.6462 14.2819 13.7211 14.3506C13.865 14.4852 14.0568 14.56 14.2562 14.5593C14.3626 14.5596 14.4679 14.5391 14.5659 14.499C14.664 14.4588 14.7528 14.3999 14.8272 14.3257C15.8786 13.2442 16.6203 11.9123 16.9781 10.4634V10.4535ZM13.3744 2.34624C13.3028 2.41854 13.2468 2.50401 13.2095 2.59769C13.1723 2.69137 13.1545 2.79135 13.1574 2.89179C13.1602 2.99224 13.1837 3.09115 13.2262 3.18269C13.2687 3.27422 13.3295 3.35652 13.405 3.42485C14.3142 4.26757 14.9834 5.32612 15.3471 6.4968C15.3952 6.65431 15.4941 6.79249 15.6291 6.89097C15.764 6.98944 15.9278 7.04295 16.0963 7.04357C16.1726 7.04455 16.2484 7.0328 16.3206 7.0088C16.4182 6.97936 16.5088 6.93139 16.5873 6.86767C16.6658 6.80394 16.7305 6.72569 16.7779 6.63745C16.8253 6.54922 16.8543 6.45275 16.8633 6.35354C16.8723 6.25433 16.8611 6.15434 16.8303 6.05937C16.3896 4.63218 15.5744 3.34195 14.4653 2.31638C14.315 2.18243 14.1171 2.1107 13.9136 2.11627C13.7101 2.12183 13.5168 2.20428 13.3744 2.34624Z" fill="#F3742B"/>
</svg>
