<svg width="21" height="21" viewBox="0 0 21 21" fill="none" xmlns="http://www.w3.org/2000/svg">
<g clip-path="url(#clip0_19009_1662)">
<path d="M2.29247 8.26022C2.43867 8.26022 2.57884 8.20213 2.68222 8.09875C2.7856 7.99537 2.84372 7.85517 2.84372 7.70897C2.84372 7.56277 2.7856 7.42257 2.68222 7.31919C2.57884 7.21581 2.43867 7.15771 2.29247 7.15771C2.14626 7.15771 2.00604 7.21581 1.90266 7.31919C1.79928 7.42257 1.74121 7.56277 1.74121 7.70897C1.74121 7.85517 1.79928 7.99537 1.90266 8.09875C2.00604 8.20213 2.14626 8.26022 2.29247 8.26022V8.26022Z" stroke="#FB9D5A" stroke-width="1.3125" stroke-linecap="round" stroke-linejoin="round"/>
<path d="M2.29247 16.704C2.43867 16.704 2.57884 16.646 2.68222 16.5426C2.7856 16.4392 2.84372 16.299 2.84372 16.1528C2.84372 16.0066 2.7856 15.8664 2.68222 15.763C2.57884 15.6596 2.43867 15.6016 2.29247 15.6016C2.14626 15.6016 2.00604 15.6596 1.90266 15.763C1.79928 15.8664 1.74121 16.0066 1.74121 16.1528C1.74121 16.299 1.79928 16.4392 1.90266 16.5426C2.00604 16.646 2.14626 16.704 2.29247 16.704V16.704Z" stroke="#FB9D5A" stroke-width="1.3125" stroke-linecap="round" stroke-linejoin="round"/>
<path d="M5.79247 14.954C5.93867 14.954 6.07884 14.896 6.18222 14.7926C6.2856 14.6892 6.34372 14.549 6.34372 14.4028C6.34372 14.2566 6.2856 14.1164 6.18222 14.013C6.07884 13.9096 5.93867 13.8516 5.79247 13.8516C5.64626 13.8516 5.50604 13.9096 5.40266 14.013C5.29928 14.1164 5.24121 14.2566 5.24121 14.4028C5.24121 14.549 5.29928 14.6892 5.40266 14.7926C5.50604 14.896 5.64626 14.954 5.79247 14.954V14.954Z" stroke="#FB9D5A" stroke-width="1.3125" stroke-linecap="round" stroke-linejoin="round"/>
<path d="M5.79247 5.92379C5.90149 5.92379 6.00804 5.89146 6.09869 5.83089C6.18935 5.77032 6.26002 5.68421 6.30174 5.58349C6.34347 5.48276 6.35436 5.37193 6.33309 5.265C6.31182 5.15807 6.25931 5.05984 6.18222 4.98275C6.10513 4.90566 6.0069 4.85315 5.89997 4.83188C5.79304 4.81061 5.68224 4.82153 5.58151 4.86326C5.48078 4.90498 5.39466 4.97563 5.33408 5.06628C5.27351 5.15693 5.24121 5.26351 5.24121 5.37253C5.24121 5.51873 5.29928 5.65896 5.40266 5.76234C5.50604 5.86572 5.64626 5.92379 5.79247 5.92379V5.92379Z" stroke="#FB9D5A" stroke-width="1.3125" stroke-linecap="round" stroke-linejoin="round"/>
<path d="M9.29247 7.95407C9.43867 7.95407 9.57884 7.896 9.68222 7.79263C9.7856 7.68925 9.84372 7.54902 9.84372 7.40282C9.84372 7.25662 9.7856 7.11641 9.68222 7.01303C9.57884 6.90966 9.43867 6.85156 9.29247 6.85156C9.14626 6.85156 9.00604 6.90966 8.90266 7.01303C8.79928 7.11641 8.74121 7.25662 8.74121 7.40282C8.74121 7.54902 8.79928 7.68925 8.90266 7.79263C9.00604 7.896 9.14626 7.95407 9.29247 7.95407V7.95407Z" stroke="#FB9D5A" stroke-width="1.3125" stroke-linecap="round" stroke-linejoin="round"/>
<path d="M9.29247 16.704C9.43867 16.704 9.57884 16.646 9.68222 16.5426C9.7856 16.4392 9.84372 16.299 9.84372 16.1528C9.84372 16.0066 9.7856 15.8664 9.68222 15.763C9.57884 15.6596 9.43867 15.6016 9.29247 15.6016C9.14626 15.6016 9.00604 15.6596 8.90266 15.763C8.79928 15.8664 8.74121 16.0066 8.74121 16.1528C8.74121 16.299 8.79928 16.4392 8.90266 16.5426C9.00604 16.646 9.14626 16.704 9.29247 16.704V16.704Z" stroke="#FB9D5A" stroke-width="1.3125" stroke-linecap="round" stroke-linejoin="round"/>
<path d="M12.7925 14.954C12.9387 14.954 13.0788 14.896 13.1822 14.7926C13.2856 14.6892 13.3437 14.549 13.3437 14.4028C13.3437 14.2566 13.2856 14.1164 13.1822 14.013C13.0788 13.9096 12.9387 13.8516 12.7925 13.8516C12.6463 13.8516 12.506 13.9096 12.4027 14.013C12.2993 14.1164 12.2412 14.2566 12.2412 14.4028C12.2412 14.549 12.2993 14.6892 12.4027 14.7926C12.506 14.896 12.6463 14.954 12.7925 14.954V14.954Z" stroke="#FB9D5A" stroke-width="1.3125" stroke-linecap="round" stroke-linejoin="round"/>
<path d="M12.7925 8.82907C12.9387 8.82907 13.0788 8.771 13.1822 8.66763C13.2856 8.56425 13.3437 8.42402 13.3437 8.27782C13.3437 8.13162 13.2856 7.99141 13.1822 7.88803C13.0788 7.78466 12.9387 7.72656 12.7925 7.72656C12.6463 7.72656 12.506 7.78466 12.4027 7.88803C12.2993 7.99141 12.2412 8.13162 12.2412 8.27782C12.2412 8.42402 12.2993 8.56425 12.4027 8.66763C12.506 8.771 12.6463 8.82907 12.7925 8.82907V8.82907Z" stroke="#FB9D5A" stroke-width="1.3125" stroke-linecap="round" stroke-linejoin="round"/>
<path d="M16.2925 5.13619C16.4019 5.13618 16.5088 5.10362 16.5997 5.04265C16.6905 4.98168 16.7611 4.89507 16.8026 4.79383C16.844 4.69259 16.8545 4.58131 16.8325 4.47415C16.8105 4.36698 16.7571 4.26876 16.6791 4.19203C16.6011 4.1153 16.5021 4.06351 16.3946 4.04324C16.2871 4.02297 16.176 4.03513 16.0754 4.0782C15.9749 4.12126 15.8894 4.19329 15.8299 4.28509C15.7704 4.37689 15.7395 4.48431 15.7413 4.5937C15.7436 4.73837 15.8026 4.87635 15.9058 4.97784C16.0089 5.07934 16.1478 5.13621 16.2925 5.13619Z" stroke="#FB9D5A" stroke-width="1.3125" stroke-linecap="round" stroke-linejoin="round"/>
<path d="M19.7925 1.75876C19.9015 1.75876 20.008 1.7264 20.0987 1.66583C20.1893 1.60526 20.26 1.51918 20.3017 1.41845C20.3435 1.31773 20.3544 1.20687 20.3331 1.09994C20.3118 0.99301 20.2593 0.894786 20.1822 0.817692C20.1051 0.740598 20.0069 0.688118 19.9 0.666848C19.793 0.645577 19.6822 0.656474 19.5815 0.698197C19.4808 0.73992 19.3947 0.810593 19.3341 0.901245C19.2735 0.991898 19.2412 1.09847 19.2412 1.2075C19.2412 1.3537 19.2993 1.4939 19.4027 1.59728C19.506 1.70066 19.6463 1.75876 19.7925 1.75876V1.75876Z" stroke="#FB9D5A" stroke-width="1.3125" stroke-linecap="round" stroke-linejoin="round"/>
<path d="M19.7925 17.5873C19.9015 17.5873 20.008 17.555 20.0987 17.4945C20.1893 17.4339 20.26 17.3478 20.3017 17.247C20.3435 17.1463 20.3544 17.0355 20.3331 16.9286C20.3118 16.8216 20.2593 16.7234 20.1822 16.6463C20.1051 16.5692 20.0069 16.5167 19.9 16.4955C19.793 16.4742 19.6822 16.4851 19.5815 16.5268C19.4808 16.5685 19.3947 16.6392 19.3341 16.7299C19.2735 16.8205 19.2412 16.9271 19.2412 17.0361C19.2412 17.1823 19.2993 17.3225 19.4027 17.4259C19.506 17.5293 19.6463 17.5873 19.7925 17.5873V17.5873Z" stroke="#FB9D5A" stroke-width="1.3125" stroke-linecap="round" stroke-linejoin="round"/>
<path d="M16.2925 14.954C16.4387 14.954 16.5788 14.896 16.6822 14.7926C16.7856 14.6892 16.8437 14.549 16.8437 14.4028C16.8437 14.2566 16.7856 14.1164 16.6822 14.013C16.5788 13.9096 16.4387 13.8516 16.2925 13.8516C16.1463 13.8516 16.006 13.9096 15.9027 14.013C15.7993 14.1164 15.7412 14.2566 15.7412 14.4028C15.7412 14.549 15.7993 14.6892 15.9027 14.7926C16.006 14.896 16.1463 14.954 16.2925 14.954V14.954Z" stroke="#FB9D5A" stroke-width="1.3125" stroke-linecap="round" stroke-linejoin="round"/>
<path d="M0.629883 0.65625V20.3438H20.3174" stroke="#FB9D5A" stroke-width="1.3125" stroke-linecap="round" stroke-linejoin="round"/>
</g>
<defs>
<clipPath id="clip0_19009_1662">
<rect width="21" height="21" fill="white"/>
</clipPath>
</defs>
</svg>
