<svg width="25" height="22" viewBox="0 0 25 22" fill="none" xmlns="http://www.w3.org/2000/svg">
<g clip-path="url(#clip0_19009_1676)">
<path d="M2.09009 20.0477V21.3311H22.2568V14.3369" stroke="#FB755A" stroke-width="1.375" stroke-linecap="round" stroke-linejoin="round"/>
<path d="M16.0142 7.86504L21.0467 2.71338" stroke="#FB755A" stroke-width="1.375" stroke-linecap="round" stroke-linejoin="round"/>
<path d="M10.2207 6.74658L13.8874 8.37825" stroke="#FB755A" stroke-width="1.375" stroke-linecap="round" stroke-linejoin="round"/>
<path d="M3.37329 9.41439L7.79157 6.89355" stroke="#FB755A" stroke-width="1.375" stroke-linecap="round" stroke-linejoin="round"/>
<path d="M15.666 15.1433L20.9277 12.7324" stroke="#FB755A" stroke-width="1.375" stroke-linecap="round" stroke-linejoin="round"/>
<path d="M8.96509 15.8125H13.0901" stroke="#FB755A" stroke-width="1.375" stroke-linecap="round" stroke-linejoin="round"/>
<path d="M3.50171 17.7926L6.3617 16.4268" stroke="#FB755A" stroke-width="1.375" stroke-linecap="round" stroke-linejoin="round"/>
<path d="M8.96509 7.56251C9.23704 7.56251 9.5029 7.48186 9.72901 7.33077C9.95513 7.17969 10.1313 6.96493 10.2354 6.71368C10.3395 6.46244 10.3667 6.18599 10.3137 5.91927C10.2606 5.65254 10.1297 5.40753 9.93737 5.21523C9.74507 5.02294 9.50003 4.89198 9.23331 4.83892C8.96658 4.78587 8.69014 4.8131 8.43889 4.91717C8.18764 5.02124 7.97292 5.19747 7.82183 5.42359C7.67074 5.6497 7.59009 5.91556 7.59009 6.18751C7.59009 6.55219 7.73495 6.90193 7.99281 7.15979C8.25067 7.41766 8.60042 7.56251 8.96509 7.56251Z" stroke="#FB755A" stroke-width="1.375" stroke-linecap="round" stroke-linejoin="round"/>
<path d="M15.1526 10.3125C15.4245 10.3125 15.6904 10.2319 15.9165 10.0808C16.1426 9.92969 16.3188 9.71493 16.4229 9.46368C16.527 9.21244 16.5542 8.93599 16.5012 8.66927C16.4481 8.40254 16.3172 8.15753 16.1249 7.96523C15.9326 7.77294 15.6875 7.64198 15.4208 7.58892C15.1541 7.53587 14.8776 7.5631 14.6264 7.66717C14.3751 7.77124 14.1604 7.94747 14.0093 8.17359C13.8582 8.3997 13.7776 8.66556 13.7776 8.93751C13.7776 9.30219 13.9224 9.65193 14.1803 9.90979C14.4382 10.1677 14.7879 10.3125 15.1526 10.3125Z" stroke="#FB755A" stroke-width="1.375" stroke-linecap="round" stroke-linejoin="round"/>
<path d="M22.2566 3.43751C22.5285 3.43751 22.7944 3.35686 23.0205 3.20577C23.2466 3.05469 23.4228 2.83993 23.5269 2.58868C23.631 2.33744 23.6582 2.06099 23.6052 1.79427C23.5521 1.52754 23.4212 1.28253 23.2289 1.09023C23.0366 0.897936 22.7915 0.766976 22.5248 0.713921C22.2581 0.660866 21.9816 0.688095 21.7304 0.792166C21.4791 0.896236 21.2644 1.07247 21.1133 1.29859C20.9622 1.5247 20.8816 1.79056 20.8816 2.06251C20.8816 2.42719 21.0264 2.77693 21.2843 3.03479C21.5422 3.29266 21.8919 3.43751 22.2566 3.43751Z" stroke="#FB755A" stroke-width="1.375" stroke-linecap="round" stroke-linejoin="round"/>
<path d="M22.2566 13.75C22.5285 13.75 22.7944 13.6694 23.0205 13.5183C23.2466 13.3672 23.4228 13.1525 23.5269 12.9012C23.631 12.65 23.6582 12.3735 23.6052 12.1067C23.5521 11.84 23.4212 11.595 23.2289 11.4027C23.0366 11.2104 22.7915 11.0795 22.5248 11.0264C22.2581 10.9734 21.9816 11.0006 21.7304 11.1047C21.4791 11.2088 21.2644 11.385 21.1133 11.6111C20.9622 11.8372 20.8816 12.1031 20.8816 12.375C20.8816 12.7397 21.0264 13.0894 21.2843 13.3473C21.5422 13.6051 21.8919 13.75 22.2566 13.75Z" stroke="#FB755A" stroke-width="1.375" stroke-linecap="round" stroke-linejoin="round"/>
<path d="M14.4651 17.1875C14.737 17.1875 15.0029 17.1069 15.229 16.9558C15.4551 16.8047 15.6313 16.59 15.7354 16.3387C15.8395 16.0875 15.8667 15.811 15.8137 15.5442C15.7606 15.2775 15.6297 15.0325 15.4374 14.8402C15.2451 14.6479 15 14.517 14.7333 14.4639C14.4666 14.4109 14.1901 14.4381 13.9389 14.5422C13.6876 14.6463 13.4729 14.8225 13.3218 15.0486C13.1707 15.2747 13.0901 15.5406 13.0901 15.8125C13.0901 16.1772 13.2349 16.5269 13.4928 16.7848C13.7507 17.0426 14.1004 17.1875 14.4651 17.1875Z" stroke="#FB755A" stroke-width="1.375" stroke-linecap="round" stroke-linejoin="round"/>
<path d="M7.59009 17.1875C7.86204 17.1875 8.1279 17.1069 8.35401 16.9558C8.58013 16.8047 8.75634 16.59 8.86041 16.3387C8.96448 16.0875 8.99173 15.811 8.93868 15.5442C8.88563 15.2775 8.75467 15.0325 8.56237 14.8402C8.37007 14.6479 8.12503 14.517 7.85831 14.4639C7.59158 14.4109 7.31514 14.4381 7.06389 14.5422C6.81264 14.6463 6.59792 14.8225 6.44683 15.0486C6.29574 15.2747 6.21509 15.5406 6.21509 15.8125C6.21509 16.1772 6.35995 16.5269 6.61781 16.7848C6.87567 17.0426 7.22542 17.1875 7.59009 17.1875Z" stroke="#FB755A" stroke-width="1.375" stroke-linecap="round" stroke-linejoin="round"/>
<path d="M22.2566 11V3.4375" stroke="#FB755A" stroke-width="1.375" stroke-linecap="round" stroke-linejoin="round"/>
<path d="M2.0625 11.6601C2.33445 11.6601 2.60031 11.5795 2.82643 11.4285C3.05254 11.2774 3.2288 11.0626 3.33288 10.8113C3.43695 10.5601 3.46415 10.2836 3.41109 10.0169C3.35804 9.7502 3.22708 9.50519 3.03478 9.31289C2.84248 9.12059 2.5975 8.98963 2.33077 8.93658C2.06405 8.88352 1.7876 8.91075 1.53636 9.01482C1.28511 9.11889 1.07033 9.29513 0.91924 9.52124C0.768153 9.74736 0.6875 10.0132 0.6875 10.2851C0.6875 10.6498 0.832414 10.9996 1.09028 11.2574C1.34814 11.5153 1.69783 11.6601 2.0625 11.6601V11.6601Z" stroke="#FB755A" stroke-width="1.375" stroke-linecap="round" stroke-linejoin="round"/>
<path d="M2.0625 19.7178C2.33445 19.7178 2.60031 19.6371 2.82643 19.4861C3.05254 19.335 3.2288 19.1202 3.33288 18.869C3.43695 18.6177 3.46415 18.3412 3.41109 18.0745C3.35804 17.8078 3.22708 17.5628 3.03478 17.3705C2.84248 17.1782 2.5975 17.0473 2.33077 16.9942C2.06405 16.9411 1.7876 16.9683 1.53636 17.0724C1.28511 17.1765 1.07033 17.3528 0.91924 17.5789C0.768153 17.805 0.6875 18.0708 0.6875 18.3428C0.6875 18.7075 0.832414 19.0572 1.09028 19.3151C1.34814 19.5729 1.69783 19.7178 2.0625 19.7178V19.7178Z" stroke="#FB755A" stroke-width="1.375" stroke-linecap="round" stroke-linejoin="round"/>
<path d="M2.0625 16.9677V11.6602" stroke="#FB755A" stroke-width="1.375" stroke-linecap="round" stroke-linejoin="round"/>
</g>
<defs>
<clipPath id="clip0_19009_1676">
<rect width="24.3192" height="22" fill="white"/>
</clipPath>
</defs>
</svg>
