<svg width="15" height="19" viewBox="0 0 15 19" fill="none" xmlns="http://www.w3.org/2000/svg">
<path d="M8.38994 8.33008H6.50471C6.0334 8.33008 5.75061 8.60775 5.75061 9.07053C5.75061 9.5333 6.0334 9.81097 6.50471 9.81097H8.38994C8.76699 9.81097 9.14404 9.5333 9.14404 9.07053C9.14404 8.60775 8.76699 8.33008 8.38994 8.33008Z" fill="#F3742B"/>
<path d="M14.0465 3.70223H11.0301V0.740447C11.0301 0.370223 10.7473 0 10.276 0C9.80468 0 9.5219 0.277668 9.5219 0.740447V3.70223H5.28011V0.740447C5.28011 0.277668 4.99732 0 4.62028 0C4.24323 0 3.86618 0.277668 3.86618 0.740447V3.70223H0.849799C0.378489 3.70223 0.0957031 3.9799 0.0957031 4.44268C0.0957031 4.90546 0.378489 5.18313 0.849799 5.18313H1.98094V9.99603C1.98094 10.1811 2.0752 10.3663 2.16947 10.4588L4.8088 13.0504V17.4005C4.8088 17.7707 5.09159 18.1409 5.56289 18.1409C6.0342 18.1409 6.31699 17.8633 6.31699 17.4005V13.5132H8.57928V17.4005C8.57928 17.7707 8.86206 18.1409 9.33337 18.1409C9.80468 18.1409 10.0875 17.8633 10.0875 17.4005V13.0504L12.7268 10.4588C12.8211 10.3663 12.9153 10.1811 12.9153 9.99603V5.09057H14.0465C14.4235 5.09057 14.8006 4.8129 14.8006 4.35012C14.8006 3.88734 14.4235 3.70223 14.0465 3.70223ZM11.4071 9.62581L8.95632 12.0323H5.84568L3.39487 9.62581V5.09057H11.4071V9.62581Z" fill="#F3742B"/>
</svg>
