<svg width="21" height="20" viewBox="0 0 21 20" fill="none" xmlns="http://www.w3.org/2000/svg">
<path d="M4.20198 12.6391C4.20198 13.7954 3.25735 14.7401 2.10099 14.7401C0.944632 14.7401 0 13.7954 0 12.6391C0 11.4827 0.944632 10.5381 2.10099 10.5381H4.20198V12.6391Z" fill="#9584EB"/>
<path d="M5.26147 12.6386C5.26147 11.4822 6.20611 10.5376 7.36247 10.5376C8.51883 10.5376 9.46346 11.4822 9.46346 12.6386V17.8992C9.46346 19.0556 8.51883 20.0002 7.36247 20.0002C6.20611 20.0002 5.26147 19.0556 5.26147 17.8992V12.6386Z" fill="#9584EB"/>
<path d="M7.36247 4.20198C6.20611 4.20198 5.26147 3.25735 5.26147 2.10099C5.26147 0.944632 6.20611 0 7.36247 0C8.51883 0 9.46346 0.944632 9.46346 2.10099V4.20198H7.36247Z" fill="#9584EB"/>
<path d="M7.36161 5.26025C8.51797 5.26025 9.46261 6.20489 9.46261 7.36125C9.46261 8.51761 8.51797 9.46224 7.36161 9.46224H2.10099C0.944632 9.46224 0 8.51761 0 7.36125C0 6.20489 0.944632 5.26025 2.10099 5.26025H7.36161Z" fill="#9584EB"/>
<path d="M15.7991 7.36222C15.7991 6.20586 16.7437 5.26123 17.9001 5.26123C19.0564 5.26123 20.0011 6.20586 20.0011 7.36222C20.0011 8.51858 19.0564 9.46321 17.9001 9.46321H15.7991V7.36222Z" fill="#9584EB"/>
<path d="M14.7393 7.36161C14.7393 8.51797 13.7947 9.46261 12.6383 9.46261C11.482 9.46261 10.5374 8.51797 10.5374 7.36161V2.10099C10.5374 0.944632 11.482 0 12.6383 0C13.7947 0 14.7393 0.944632 14.7393 2.10099V7.36161Z" fill="#9584EB"/>
<path d="M12.6386 15.7979C13.7949 15.7979 14.7396 16.7425 14.7396 17.8988C14.7396 19.0552 13.7949 19.9998 12.6386 19.9998C11.4822 19.9998 10.5376 19.0552 10.5376 17.8988V15.7979H12.6386Z" fill="#9584EB"/>
<path d="M12.6383 14.7396C11.482 14.7396 10.5374 13.7949 10.5374 12.6386C10.5374 11.4822 11.482 10.5376 12.6383 10.5376H17.899C19.0553 10.5376 20 11.4822 20 12.6386C20 13.7949 19.0553 14.7396 17.899 14.7396H12.6383Z" fill="#9584EB"/>
</svg>
