<svg width="17" height="17" viewBox="0 0 17 17" fill="none" xmlns="http://www.w3.org/2000/svg">
<path d="M3.24268 7.43692C3.24268 7.20084 3.37973 7.04346 3.51679 7.04346H11.192C11.3291 7.04346 11.4661 7.20084 11.4661 7.43692V9.64034C11.4661 9.87642 11.3291 10.0338 11.192 10.0338H3.51679C3.37973 10.0338 3.24268 9.87642 3.24268 9.64034V7.43692V7.43692Z" stroke="#ECA313" stroke-width="1.5" stroke-linecap="round" stroke-linejoin="round"/>
<path d="M1 1.38627C1 1.22463 1.16613 1.06299 1.49839 1.06299H15.4534C15.7026 1.06299 15.9518 1.22463 15.9518 1.46709V3.64924C15.9518 3.8917 15.7026 4.05334 15.4534 4.05334H1.49839C1.16613 4.05334 1 3.8917 1 3.64924V1.38627Z" stroke="#ECA313" stroke-width="1.5" stroke-linecap="round" stroke-linejoin="round"/>
<path d="M6.98071 13.4179C6.98071 13.1818 7.17024 13.0244 7.35977 13.0244H15.5727C15.8254 13.0244 15.9518 13.1818 15.9518 13.4179V15.6213C15.9518 15.8574 15.7622 16.0148 15.5727 16.0148H7.35977C7.10707 16.0148 6.98071 15.8574 6.98071 15.6213V13.4179V13.4179Z" stroke="#ECA313" stroke-width="1.5" stroke-linecap="round" stroke-linejoin="round"/>
</svg>
