<svg width="25" height="25" viewBox="0 0 25 25" fill="none" xmlns="http://www.w3.org/2000/svg">
<path d="M8.41003 18.4234C6.4715 17.783 4.45064 17.426 2.41003 17.3634C2.02801 17.3404 1.66921 17.1723 1.40709 16.8935C1.14496 16.6146 0.999337 16.2461 1.00003 15.8634V2.50339C0.998781 2.29669 1.04086 2.09202 1.12353 1.90256C1.2062 1.7131 1.32765 1.54308 1.48004 1.40342C1.62925 1.26341 1.8057 1.15565 1.99839 1.08683C2.19109 1.01801 2.39589 0.989591 2.60003 1.00339C8.93003 1.33339 12.25 3.59339 12.25 5.31339C12.25 3.60339 15.97 1.3634 21.89 1.0134C22.0951 0.997477 22.3012 1.02389 22.4956 1.09098C22.6899 1.15807 22.8685 1.26442 23.02 1.40342C23.1722 1.54537 23.2934 1.71722 23.376 1.90824C23.4586 2.09925 23.5008 2.30529 23.5 2.5134V15.1134" stroke="#FB755A" stroke-width="1.5" stroke-linecap="round" stroke-linejoin="round"/>
<path d="M12.24 5.31348V9.20349" stroke="#FB755A" stroke-width="1.5" stroke-linecap="round" stroke-linejoin="round"/>
<path d="M9.58 6.7536C7.78112 6.10206 5.91146 5.6657 4.01001 5.45361" stroke="#FB755A" stroke-width="1.5" stroke-linecap="round" stroke-linejoin="round"/>
<path d="M19.6501 9.42343C20.0001 9.36343 20.3501 9.31344 20.7201 9.27344" stroke="#FB755A" stroke-width="1.5" stroke-linecap="round" stroke-linejoin="round"/>
<path d="M9.58 10.5632C7.77835 9.92101 5.90979 9.48492 4.01001 9.26318" stroke="#FB755A" stroke-width="1.5" stroke-linecap="round" stroke-linejoin="round"/>
<path d="M9.57996 14.6135C7.7639 13.9619 5.87768 13.5256 3.95996 13.3135" stroke="#FB755A" stroke-width="1.5" stroke-linecap="round" stroke-linejoin="round"/>
<path d="M15.1401 6.76337C16.9596 6.1117 18.8492 5.67541 20.7701 5.46338" stroke="#FB755A" stroke-width="1.5" stroke-linecap="round" stroke-linejoin="round"/>
<path d="M23.3801 23.4534L23.4801 22.3334C23.5459 21.6067 23.3446 20.8809 22.9139 20.2919C22.4832 19.7028 21.8525 19.291 21.1401 19.1334L17.4901 18.3234V12.5834C17.5089 12.3257 17.4744 12.0668 17.3887 11.823C17.303 11.5792 17.168 11.3557 16.992 11.1664C16.8161 10.9771 16.603 10.8262 16.3661 10.7229C16.1291 10.6197 15.8735 10.5664 15.6151 10.5664C15.3566 10.5664 15.101 10.6197 14.864 10.7229C14.6271 10.8262 14.4141 10.9771 14.2381 11.1664C14.0622 11.3557 13.9271 11.5792 13.8414 11.823C13.7557 12.0668 13.7212 12.3257 13.7401 12.5834V21.7834L12.2401 20.6734C11.945 20.4485 11.5783 20.3385 11.2082 20.3637C10.8381 20.389 10.4898 20.5479 10.2281 20.8108C9.96637 21.0738 9.80911 21.4228 9.78556 21.7931C9.76201 22.1633 9.87377 22.5295 10.1001 22.8234L10.5701 23.4534" stroke="#FB755A" stroke-width="1.5" stroke-linecap="round" stroke-linejoin="round"/>
</svg>
