<svg width="22" height="22" viewBox="0 0 22 22" fill="none" xmlns="http://www.w3.org/2000/svg">
<path d="M1 2.33333C1 1.97971 1.14047 1.64057 1.39052 1.39052C1.64057 1.14047 1.97971 1 2.33333 1H19.6667C20.0203 1 20.3594 1.14047 20.6095 1.39052C20.8595 1.64057 21 1.97971 21 2.33333V19.6667C21 20.0203 20.8595 20.3594 20.6095 20.6095C20.3594 20.8595 20.0203 21 19.6667 21H2.33333C1.97971 21 1.64057 20.8595 1.39052 20.6095C1.14047 20.3594 1 20.0203 1 19.6667V2.33333Z" stroke="#FB5A67" stroke-width="1.5" stroke-linecap="round" stroke-linejoin="round"/>
<path d="M9.43569 14.2534C9.32297 14.3164 9.19599 14.3496 9.06682 14.3496C8.93766 14.3496 8.81065 14.3164 8.69793 14.2534C8.58512 14.1872 8.49192 14.0923 8.42788 13.9782C8.36384 13.8642 8.33127 13.7352 8.33348 13.6045V8.46674C8.33127 8.33599 8.36384 8.20696 8.42788 8.09294C8.49192 7.97892 8.58512 7.88397 8.69793 7.81782C8.81065 7.75476 8.93766 7.72168 9.06682 7.72168C9.19599 7.72168 9.32297 7.75476 9.43569 7.81782L14.5824 10.3867C14.7071 10.4523 14.8115 10.5508 14.8844 10.6714C14.9572 10.792 14.9957 10.9303 14.9957 11.0712C14.9957 11.2121 14.9572 11.3503 14.8844 11.471C14.8115 11.5916 14.7071 11.69 14.5824 11.7556L9.43569 14.2534Z" stroke="#FB5A67" stroke-width="1.5" stroke-linecap="round" stroke-linejoin="round"/>
</svg>
