<svg width="25" height="25" viewBox="0 0 25 25" fill="none" xmlns="http://www.w3.org/2000/svg">
<circle opacity="0.3" cx="12.5" cy="12.5" r="12.5" fill="#9584EB"/>
<path d="M18.5843 16.4526L16.2609 14.0671C16.8921 13.1339 17.2632 12.0006 17.2632 10.7807C17.2632 7.59293 14.7364 5 11.6312 5C8.52585 5 6 7.593 6 10.7807C6 13.9692 8.52604 16.562 11.6312 16.562C12.4869 16.562 13.298 16.3647 14.0251 16.0125L16.5192 18.5733C16.788 18.8484 17.147 19 17.5288 19C17.9201 19 18.2894 18.8422 18.5685 18.5564C19.1377 17.9719 19.1446 17.0276 18.5843 16.4528L18.5843 16.4526ZM8.25221 10.7807C8.25221 8.86826 9.76816 7.31186 11.631 7.31186C13.4942 7.31186 15.0102 8.8682 15.0102 10.7807C15.0102 12.6938 13.4942 14.2499 11.631 14.2499C9.76804 14.2499 8.25221 12.6937 8.25221 10.7807Z" fill="#7E6CDA"/>
</svg>
