<svg width="25" height="25" viewBox="0 0 25 25" fill="none" xmlns="http://www.w3.org/2000/svg">
<circle opacity="0.3" cx="12.5" cy="12.5" r="12.5" fill="#9584EB"/>
<path fill-rule="evenodd" clip-rule="evenodd" d="M5.68791 8H18.9901C19.5987 8 20.0921 8.4782 20.0921 8.86587V11.0698C20.0921 11.548 19.5988 11.9357 18.9901 11.9357H5.68791C5.07936 11.9357 4.58594 11.4575 4.58594 11.0698V8.86587C4.58594 8.38767 5.07923 8 5.68791 8Z" fill="#7E6CDA"/>
<path fill-rule="evenodd" clip-rule="evenodd" d="M5.68791 13.668H18.9901C19.5987 13.668 20.0921 14.1462 20.0921 14.5338V16.7378C20.0921 17.216 19.5988 17.6037 18.9901 17.6037H5.68791C5.07936 17.6037 4.58594 17.1255 4.58594 16.7378V14.5338C4.58594 14.0556 5.07923 13.668 5.68791 13.668Z" fill="#7E6CDA"/>
</svg>
