<svg width="25" height="25" viewBox="0 0 25 25" fill="none" xmlns="http://www.w3.org/2000/svg">
<circle opacity="0.3" cx="12.5" cy="12.5" r="12.5" fill="#5081E2"/>
<path d="M20.8644 13.9976L19.6238 13.2433L18.3828 12.489L19.6238 11.7349L20.8644 10.9805L23.3463 12.489L20.8644 13.9976Z" fill="#4776D1"/>
<path d="M12.6769 15.6575L11.4359 14.9033L10.1953 14.1488L11.4359 13.3945L12.6769 12.6406L13.9178 13.3945L15.1588 14.1488L13.9178 14.9033L12.6769 15.6575Z" fill="#4776D1"/>
<path d="M7.46094 12.489L8.70172 11.7349L9.94269 10.9805L11.1837 11.7349L12.4243 12.489L11.1837 13.2433L9.94269 13.9974L8.05012 12.8472L7.46094 12.489Z" fill="#4776D1"/>
<path d="M12.6768 9.32031L13.9178 10.0746L15.1588 10.8287L12.6769 12.3372L11.4359 11.5829L10.1953 10.8287L11.4359 10.0746L12.6768 9.32031Z" fill="#4776D1"/>
<path d="M15.4038 13.9974L14.1629 13.2433L12.9219 12.489L14.1629 11.7349L15.4038 10.9805L16.6448 11.7349L17.8854 12.489L17.2964 12.8472L15.4038 13.9974Z" fill="#4776D1"/>
<path d="M20.6199 10.8289L19.3789 11.5831L18.1382 12.3374L15.6562 10.8289L16.8972 10.0748L18.1382 9.32031L20.6199 10.8289Z" fill="#4776D1"/>
<path d="M16.6448 9.92278L15.4038 10.6771L14.1629 9.92278L12.9219 9.16871L14.1629 8.41423L15.4038 7.66016L17.8853 9.16871L16.6448 9.92278Z" fill="#4776D1"/>
<path d="M12.6769 6L15.1588 7.50816L13.9179 8.26263L12.6769 9.0169L11.4359 8.26263L10.1953 7.50816L12.6769 6Z" fill="#4776D1"/>
<path d="M9.94269 7.66016L11.1837 8.41423L12.4243 9.16871L11.1837 9.92278L9.94269 10.6771L8.70172 9.92278L7.46094 9.16871L9.94269 7.66016Z" fill="#4776D1"/>
<path d="M7.20807 9.32031L8.44905 10.0748L9.69003 10.8289L7.20812 12.3374L5.96754 11.5831L4.72656 10.8289L7.20807 9.32031Z" fill="#4776D1"/>
<path d="M2 12.489L4.4819 10.9805L5.72268 11.7349L6.96366 12.489L5.72268 13.2433L4.4819 13.9976L2 12.489Z" fill="#4776D1"/>
<path d="M5.96754 13.3926L7.20812 12.6387L7.84996 13.0284L9.69003 14.1468L8.9865 14.5745L7.20807 15.6556L4.72656 14.1468L5.96754 13.3926Z" fill="#4776D1"/>
<path d="M9.20274 14.7484L9.94265 14.2988L11.1836 15.0531L12.4242 15.8072L11.1836 16.5615L9.94265 17.3157L7.46094 15.8072L9.20274 14.7484Z" fill="#4776D1"/>
<path d="M12.6768 18.9759L10.1953 17.4673L11.4359 16.7133L12.6769 15.959L13.9179 16.7133L15.1588 17.4673L12.6768 18.9759Z" fill="#4776D1"/>
<path d="M15.4038 17.3157L12.9219 15.8072L14.1629 15.0531L15.4038 14.2988L16.1433 14.7484L17.8853 15.8072L15.4038 17.3157Z" fill="#4776D1"/>
<path d="M18.1382 15.6575L16.36 14.5765L15.6562 14.1488L17.4963 13.0304L18.1382 12.6406L19.3789 13.3945L20.6199 14.1488L18.1382 15.6575Z" fill="#4776D1"/>
</svg>
