<svg width="25" height="25" viewBox="0 0 25 25" fill="none" xmlns="http://www.w3.org/2000/svg">
<circle opacity="0.3" cx="12.5" cy="12.5" r="12.5" fill="#5081E2"/>
<path d="M14.9149 11.2685C15.0123 11.4068 15.0246 11.5876 14.947 11.7377C14.8693 11.8879 14.7145 11.9822 14.5454 11.9825H13.6228V19.6401C13.6225 19.7843 13.5058 19.9013 13.3616 19.9019H11.3105C11.1661 19.9016 11.049 19.7845 11.0487 19.6401V11.9825H10.1228C9.95414 11.9813 9.8001 11.8868 9.72271 11.7371C9.64516 11.5873 9.65704 11.4069 9.75352 11.2685L11.9666 8.1494L11.9664 8.14955C12.0515 8.03007 12.1891 7.95898 12.3358 7.95898C12.4825 7.95898 12.6202 8.03007 12.7052 8.14955L14.9149 11.2685Z" fill="#4776D1"/>
<path d="M9.91615 15.2294C10.0138 15.3673 10.0263 15.5482 9.94846 15.6982C9.87076 15.8481 9.71566 15.9421 9.54675 15.9417H8.62414V19.6405C8.62384 19.7849 8.50691 19.902 8.36248 19.9023H6.31135C6.16692 19.902 6.04984 19.7849 6.04954 19.6405V15.9417H5.12362C4.95545 15.9421 4.8011 15.8481 4.72445 15.6982C4.64525 15.5485 4.65622 15.367 4.75271 15.2278L6.96782 12.1087C7.05334 11.9898 7.191 11.9196 7.33753 11.9199C7.48407 11.9202 7.62143 11.9912 7.70649 12.1103L9.91615 15.2294Z" fill="#4776D1"/>
<path d="M19.9475 7.77497C19.8707 7.92662 19.715 8.0222 19.545 8.02175H18.6224V19.6398C18.6226 19.7091 18.5954 19.7755 18.5465 19.8245C18.4978 19.8737 18.4315 19.9013 18.3623 19.9016H16.3105C16.2414 19.9013 16.1751 19.8737 16.1262 19.8245C16.0776 19.7755 16.0502 19.7091 16.0505 19.6398V8.02175H15.1229C14.9543 8.02055 14.8001 7.92617 14.7227 7.77633C14.6452 7.62664 14.657 7.44614 14.7535 7.30787L16.9659 4.18892C17.0516 4.07019 17.1891 4 17.3354 4C17.4817 4 17.6191 4.07018 17.7048 4.18892L19.9145 7.30967V7.30952C20.0125 7.44599 20.0253 7.62604 19.9476 7.77499L19.9475 7.77497Z" fill="#4776D1"/>
</svg>
