<svg width="25" height="25" viewBox="0 0 25 25" fill="none" xmlns="http://www.w3.org/2000/svg">
<circle cx="12.5" cy="12.5" r="12.5" fill="#CE64CE" fill-opacity="0.3"/>
<path d="M12.6653 5C8.43206 5 5 8.43206 5 12.6653C5 16.8986 8.43206 20.3306 12.6653 20.3306C16.8986 20.3306 20.3306 16.8986 20.3306 12.6653C20.3308 8.43206 16.8989 5 12.6653 5ZM12.6653 7.17017C15.7007 7.17017 18.1604 9.62978 18.1604 12.6653C18.1604 15.7007 15.7007 18.1604 12.6653 18.1604C9.62994 18.1604 7.1702 15.7007 7.1702 12.6653C7.1702 9.63004 9.63007 7.17017 12.6653 7.17017ZM12.6653 9.72855C11.0442 9.72855 9.72858 11.0444 9.72858 12.6653C9.72858 14.2864 11.0444 15.602 12.6653 15.602C14.2864 15.602 15.602 14.2863 15.602 12.6653C15.602 11.0443 14.2864 9.72855 12.6653 9.72855Z" fill="#BE55BE"/>
</svg>
