<svg width="25" height="25" viewBox="0 0 25 25" fill="none" xmlns="http://www.w3.org/2000/svg">
<circle cx="12.5" cy="12.5" r="12.5" fill="#CE64CE" fill-opacity="0.3"/>
<path d="M17.9263 16.3008H7.50531C7.22114 16.3008 7 16.5218 7 16.8061V18.4955C7 18.7797 7.22101 19.0009 7.50531 19.0009H17.9263C18.2105 19.0009 18.4317 18.7798 18.4317 18.4955V16.8061C18.4317 16.5219 18.2107 16.3008 17.9263 16.3008Z" fill="#BE55BE"/>
<path d="M9.38819 9.44783L8.125 15.6849H17.3144L16.0512 9.44783C15.9566 8.97415 15.5459 8.64258 15.0565 8.64258H10.3827C9.8933 8.64258 9.48281 8.98992 9.38799 9.44783H9.38819Z" fill="#BE55BE"/>
<path d="M12.7184 7.15785C13.1131 7.15785 13.4289 6.84202 13.4289 6.44729V4.71056C13.4289 4.3158 13.1131 4 12.7184 4C12.3236 4 12.0078 4.31583 12.0078 4.71056V6.43165C12.0079 6.82627 12.3236 7.15785 12.7184 7.15785Z" fill="#BE55BE"/>
<path d="M8.83098 7.34636C8.94155 7.61478 9.20997 7.78853 9.49417 7.78853C9.58885 7.78853 9.68366 7.77277 9.76259 7.74112C10.1257 7.58327 10.2994 7.17262 10.1416 6.80954L9.47839 5.21478C9.32054 4.85166 8.90989 4.67792 8.54681 4.83579C8.1837 4.99364 8.00996 5.40429 8.16782 5.76737L8.83098 7.34636Z" fill="#BE55BE"/>
<path d="M15.6718 7.7569C15.7665 7.78842 15.8455 7.80431 15.9402 7.80431C16.2244 7.80431 16.4771 7.64646 16.6034 7.36214L17.2666 5.76738C17.4244 5.40426 17.2508 4.99364 16.8876 4.8358C16.5245 4.67795 16.1139 4.85156 15.956 5.21479L15.2928 6.80955C15.135 7.18854 15.3086 7.59906 15.6718 7.7569L15.6718 7.7569Z" fill="#BE55BE"/>
</svg>
