<svg width="25" height="25" viewBox="0 0 25 25" fill="none" xmlns="http://www.w3.org/2000/svg">
<circle cx="12.5" cy="12.5" r="12.5" fill="#CE64CE" fill-opacity="0.3"/>
<path d="M5.16082 17.9757L11.3554 12.9554L13.0817 14.618C13.4201 14.9113 13.928 14.9439 14.2663 14.6505L17.7869 11.7492L18.4978 13.053C18.5994 13.216 18.7686 13.2485 18.8702 13.2485C19.0056 13.216 19.1411 13.1506 19.1748 12.9552L19.9873 8.39124C20.0211 8.29336 19.9873 8.16295 19.8857 8.09788C19.8181 8.03281 19.6827 8 19.5811 8L14.842 8.78246C14.6728 8.815 14.5712 8.94541 14.5374 9.07582C14.5037 9.20623 14.5712 9.33665 14.7404 9.43452L16.0943 10.1191L13.6908 12.7922L11.9645 11.1296C11.8291 10.9992 11.6261 10.9342 11.4566 10.9342H11.3891C11.1861 10.9667 10.9828 11.0646 10.8474 11.195L5.02534 17.8452C4.99155 17.8777 4.99155 17.9431 5.02534 17.9756C5.05912 18.0081 5.12697 18.0081 5.16075 17.9756L5.16082 17.9757Z" fill="#BE55BE"/>
</svg>
