<svg width="25" height="25" viewBox="0 0 25 25" fill="none" xmlns="http://www.w3.org/2000/svg">
<circle opacity="0.3" cx="12.5" cy="12.5" r="12.5" fill="#9584EB"/>
<path d="M12.4997 8.00002C10.976 7.99666 9.47864 8.41144 8.16108 9.20215C6.84326 9.99287 5.75252 11.131 5 12.5001C6.01129 14.3309 7.61714 15.7324 9.53305 16.4568C11.4489 17.1811 13.551 17.1811 15.4669 16.4568C17.3828 15.7326 18.9886 14.3311 20 12.5001C19.2476 11.131 18.1567 9.99287 16.8391 9.20215C15.5214 8.41144 14.024 7.99669 12.5 8.00002H12.4997ZM12.4997 15.5114C11.7269 15.5114 10.9857 15.1941 10.4392 14.6294C9.89264 14.0647 9.58554 13.2989 9.58554 12.5001C9.58554 11.7015 9.89265 10.9357 10.4392 10.371C10.9857 9.80631 11.7269 9.48899 12.4997 9.48899C13.2727 9.48899 14.014 9.80632 14.5605 10.371C15.107 10.9357 15.4141 11.7015 15.4141 12.5001C15.4127 13.2983 15.1051 14.0634 14.5589 14.6278C14.0127 15.1922 13.2722 15.51 12.4997 15.5114ZM14.2515 12.5001C14.2515 12.9802 14.067 13.4406 13.7385 13.7801C13.4099 14.1195 12.9644 14.3102 12.4997 14.3102C12.0353 14.3102 11.5896 14.1195 11.2611 13.7801C10.9326 13.4406 10.748 12.9802 10.748 12.5001C10.748 12.0202 10.9326 11.5597 11.2611 11.2203C11.5896 10.8809 12.0353 10.6901 12.4997 10.6901C12.9639 10.6915 13.4086 10.8828 13.737 11.2219C14.0652 11.561 14.2501 12.0206 14.2515 12.5001Z" fill="#7E6CDA"/>
</svg>
