<svg xmlns="http://www.w3.org/2000/svg" width="491" height="49" fill="none"><path fill="#FF671D" d="M42.918 20.235a13.931 13.931 0 0 0-.452-2.622 16.791 16.791 0 0 0-1.207-3.167 16.516 16.516 0 0 0-2.262-3.366c-.376-.45-.777-.88-1.207-1.284.654-2.573-.803-4.8-.803-4.8a7.618 7.618 0 0 0-4.74 1.188.752.752 0 0 0-.315-.1c-.41-.19-.84-.339-1.283-.444-.452-.1-.904-.25-1.406-.395-.455-.1-.948-.2-1.46-.311-.098 0-.148-.05-.25-.05A8.65 8.65 0 0 0 23.319 0c-3.52 2.177-4.17 5.245-4.17 5.245a.818.818 0 0 1-.05.196l-.604.136c-.253.1-.553.2-.806.296-.253.096-.55.199-.803.311-.502.196-1.055.495-1.557.74-.503.311-1.005.594-1.457.893a.157.157 0 0 0-.101-.05c-4.875-1.832-9.198.346-9.198.346-.401 5.095 1.962 8.311 2.414 8.856-.101.31-.202.644-.316.933a25.93 25.93 0 0 0-.802 3.562c0 .149-.051.348-.051.544C1.356 24.192 0 28.693 0 28.693c3.77 4.258 8.143 4.504 8.143 4.504.556.97 1.19 1.898 1.895 2.769.3.348.604.693.948 1.038a9.752 9.752 0 0 0 .202 7.028c2.683.127 5.328-.66 7.489-2.228.401.15.853.25 1.264.395 1.283.324 2.597.523 3.921.595h1.668c1.96 2.771 5.435 3.166 5.435 3.166 2.464-2.572 2.613-5.095 2.613-5.64v-.248c.509-.352.995-.731 1.46-1.136.986-.87 1.848-1.87 2.562-2.97.05-.097.149-.196.2-.312 2.764.15 4.739-1.682 4.739-1.682-.452-2.868-2.11-4.256-2.462-4.501h-.1a.05.05 0 0 1-.051-.05c0-.15.05-.346.05-.495 0-.311.051-.594.051-.933v-1.179a.454.454 0 0 0-.05-.249l-.051-.246-.05-.248a5.838 5.838 0 0 0-.2-.934 12.532 12.532 0 0 0-1.444-3.468 12.701 12.701 0 0 0-2.363-2.772 11.093 11.093 0 0 0-2.964-1.866 9.69 9.69 0 0 0-3.267-.89c-.553-.05-1.106-.1-1.659-.1h-.891c-.288.01-.575.041-.856.1a9.051 9.051 0 0 0-3.065 1.136 10.165 10.165 0 0 0-2.36 1.981 9.116 9.116 0 0 0-1.51 2.489 8.447 8.447 0 0 0-.601 2.672v1.284c.035.43.123.853.262 1.26.225.803.6 1.559 1.106 2.224a7.13 7.13 0 0 0 1.646 1.587 7.321 7.321 0 0 0 1.896.893 6.402 6.402 0 0 0 1.896.245h.853c.101 0 .152-.05.202-.05.05 0 .149-.05.2-.05.15-.049.252-.049.4-.096l.756-.31c.233-.103.455-.237.654-.396.05-.05.1-.1.148-.1a.42.42 0 0 0 .05-.643.42.42 0 0 0-.6-.097c-.05 0-.1.047-.151.097-.18.093-.363.174-.553.249l-.604.149c-.1 0-.202.047-.316.047h-.948a4.804 4.804 0 0 1-1.406-.395 5.322 5.322 0 0 1-1.305-.84 4.757 4.757 0 0 1-1.008-1.245 5.335 5.335 0 0 1-.55-1.583 4.977 4.977 0 0 1-.05-.84v-.43c0-.148.05-.31.05-.444a5.877 5.877 0 0 1 1.808-3.316 4.08 4.08 0 0 1 .755-.594 4.93 4.93 0 0 1 .853-.495c.304-.143.623-.26.948-.345a3.54 3.54 0 0 1 1.005-.15h1.112l1.106.15a6.562 6.562 0 0 1 2.054.79 7.925 7.925 0 0 1 3.115 3.167c.354.666.594 1.384.705 2.128.041.177.057.36.05.544v1.188c0 .196-.05.395-.05.594-.01.2-.044.398-.101.591-.05.2-.101.399-.149.595-.113.404-.25.799-.41 1.188-.31.771-.714 1.502-1.204 2.177a9.924 9.924 0 0 1-6.285 3.848c-.42.06-.84.09-1.264.1h-.647c-.237.01-.471-.01-.705-.05a11.86 11.86 0 0 1-2.66-.445 15.56 15.56 0 0 1-2.528-.99 12.866 12.866 0 0 1-4.108-3.362 13.2 13.2 0 0 1-1.453-2.218 14.185 14.185 0 0 1-.948-2.426 10.96 10.96 0 0 1-.452-2.572v-1.385c.006-.426.035-.849.088-1.272.051-.448.152-.893.203-1.337.072-.436.17-.865.3-1.285.24-.83.543-1.64.907-2.427.67-1.499 1.624-2.858 2.812-4.006.316-.311.603-.545.907-.79.293-.258.61-.492.947-.694.3-.199.655-.395 1.005-.594.158-.103.326-.187.503-.249.079-.043.16-.075.25-.096.05 0 .201-.1.252-.1a9.707 9.707 0 0 1 1.125-.407c.101-.05.202-.05.316-.1.114-.05.202-.05.316-.1l.603-.149c.098 0 .2-.05.316-.05.117 0 .203-.046.316-.046.114 0 .203-.05.316-.05h.316c.101 0 .203-.05.316-.05a.959.959 0 0 0 .35-.05c.102 0 .254-.05.352-.05h2.527c.743.032 1.482.113 2.212.246 1.381.243 2.718.675 3.972 1.288a16.534 16.534 0 0 1 3.137 2.075l.149.15.152.146c.1.1.252.199.35.31l.316.296.3.311c.405.445.756.84 1.106 1.285.61.802 1.166 1.645 1.66 2.523.05.05.05.1.1.149.038.04.057.093.05.15l.153.295.148.31c.06.094.095.203.101.312.152.395.316.743.402 1.089.183.485.334.98.451 1.483a.35.35 0 0 0 .405.25.343.343 0 0 0 .35-.334v-.015a3.54 3.54 0 0 0 .19-1.83"/><path fill="#fff" d="M64.858 39.887c-1.83 0-3.536-.341-5.12-1.024s-2.977-1.686-4.179-3.01c-1.187-1.339-2.116-2.97-2.785-4.896-.656-1.94-.983-4.158-.983-6.657 0-2.499.327-4.71.983-6.636.669-1.925 1.597-3.544 2.785-4.854 1.188-1.325 2.574-2.322 4.158-2.99 1.598-.684 3.312-1.025 5.141-1.025 1.857 0 3.578.341 5.162 1.024 1.598.67 2.99 1.666 4.178 2.99 1.188 1.312 2.11 2.93 2.765 4.855.67 1.925 1.004 4.137 1.004 6.636 0 2.499-.335 4.718-1.004 6.657-.669 1.925-1.604 3.557-2.806 4.895A11.82 11.82 0 0 1 70 38.863c-1.584.683-3.297 1.024-5.14 1.024m0-4.444c1.42 0 2.704-.383 3.851-1.148 1.147-.778 2.055-1.986 2.724-3.625.683-1.639 1.024-3.762 1.024-6.37 0-2.622-.341-4.738-1.024-6.35-.683-1.624-1.598-2.812-2.745-3.563-1.147-.751-2.423-1.127-3.83-1.127-1.379 0-2.649.376-3.81 1.127-1.146.75-2.068 1.939-2.764 3.564-.683 1.61-1.025 3.727-1.025 6.35 0 2.62.342 4.751 1.025 6.39.696 1.638 1.618 2.84 2.765 3.604a6.784 6.784 0 0 0 3.81 1.148m28.636 4.444a8.95 8.95 0 0 1-4.71-1.31c-1.435-.888-2.595-2.097-3.483-3.626-.874-1.53-1.31-3.25-1.31-5.162v-.286l2.662-.062v.205c0 1.065.266 2.014.799 2.847a5.884 5.884 0 0 0 2.069 1.946c.86.464 1.775.696 2.744.696 1.57 0 2.909-.54 4.015-1.618 1.106-1.079 1.659-2.751 1.659-5.018 0-2.28-.553-3.946-1.66-4.998-1.092-1.065-2.43-1.597-4.014-1.597-.956 0-1.864.232-2.724.696a5.763 5.763 0 0 0-2.09 1.884c-.532.806-.798 1.748-.798 2.827l-2.663-.123c0-1.925.437-3.632 1.311-5.12.888-1.489 2.048-2.65 3.482-3.482a9.168 9.168 0 0 1 4.711-1.27c1.762 0 3.4.437 4.916 1.31 1.53.86 2.758 2.124 3.687 3.79.942 1.652 1.413 3.68 1.413 6.083 0 2.472-.458 4.554-1.372 6.247-.915 1.693-2.131 2.977-3.646 3.85-1.516.861-3.182 1.291-4.998 1.291m-12.248-.45V7.422h5.407v32.014h-5.407m34.281.45c-1.298 0-2.533-.143-3.708-.43-1.16-.287-2.198-.717-3.113-1.29-.901-.574-1.618-1.284-2.151-2.13-.519-.86-.778-1.85-.778-2.97v-.471h5.366v.368c0 .888.403 1.557 1.209 2.007.819.437 1.932.656 3.338.656a9.02 9.02 0 0 0 2.151-.246c.683-.164 1.229-.416 1.639-.758.423-.341.635-.778.635-1.31 0-.86-.444-1.475-1.332-1.844-.874-.369-2.253-.703-4.137-1.004a26.34 26.34 0 0 1-3.072-.717 11.773 11.773 0 0 1-2.766-1.208 6.408 6.408 0 0 1-1.986-1.884c-.492-.751-.738-1.666-.738-2.745 0-1.434.424-2.635 1.27-3.605.86-.983 2.007-1.727 3.441-2.232 1.448-.506 3.038-.758 4.773-.758 1.665 0 3.215.273 4.649.819 1.434.546 2.588 1.331 3.462 2.355.887 1.025 1.331 2.26 1.331 3.708V24.525h-5.326v-.266c0-.628-.198-1.14-.593-1.536-.396-.396-.909-.69-1.537-.88a6.782 6.782 0 0 0-1.986-.288c-.615 0-1.25.069-1.905.205-.656.123-1.202.349-1.639.676-.437.314-.655.758-.655 1.332 0 .546.225.99.676 1.331.45.341 1.078.628 1.884.86.806.219 1.734.417 2.786.594.996.164 2 .39 3.01.676 1.025.287 1.96.67 2.807 1.147a5.917 5.917 0 0 1 2.048 1.884c.532.765.799 1.714.799 2.848 0 1.201-.274 2.225-.82 3.072-.546.846-1.29 1.55-2.232 2.11-.929.546-1.98.949-3.155 1.208-1.174.26-2.389.39-3.645.39m15.074-9.586v-3.83h15.218l-.615 1.024v-.532c0-.942-.211-1.823-.635-2.642-.423-.833-1.065-1.502-1.925-2.008-.86-.518-1.953-.778-3.277-.778-1.311 0-2.451.28-3.421.84-.955.546-1.7 1.338-2.232 2.376-.519 1.037-.778 2.28-.778 3.727 0 1.489.252 2.772.757 3.851.506 1.065 1.243 1.885 2.212 2.458.984.56 2.178.84 3.585.84.956 0 1.782-.089 2.478-.266.697-.178 1.263-.417 1.7-.717.451-.314.785-.649 1.004-1.004.232-.355.369-.71.41-1.065h5.366c-.082.915-.389 1.81-.922 2.683-.519.86-1.249 1.646-2.191 2.356-.943.696-2.09 1.256-3.441 1.68-1.339.409-2.868.614-4.588.614-2.335 0-4.377-.478-6.125-1.434a10.387 10.387 0 0 1-4.096-3.994c-.97-1.707-1.454-3.66-1.454-5.858 0-2.253.491-4.226 1.474-5.92.997-1.693 2.376-3.01 4.138-3.953 1.761-.955 3.782-1.433 6.063-1.433 2.348 0 4.376.478 6.083 1.434 1.72.955 3.045 2.287 3.973 3.994.929 1.693 1.393 3.666 1.393 5.919 0 .287-.007.594-.02.922a5.91 5.91 0 0 1-.062.716h-20.072m23.366 9.136V17.684h5.387v7.23l-1.249-.696c.136-.942.389-1.83.758-2.663a7.287 7.287 0 0 1 1.474-2.212 6.367 6.367 0 0 1 2.233-1.495c.874-.355 1.871-.532 2.99-.532.888 0 1.584.068 2.089.204.519.123.84.226.963.308l-.983 4.936c-.137-.096-.417-.212-.84-.348-.409-.15-.963-.226-1.659-.226-1.106 0-2.034.192-2.785.574a4.539 4.539 0 0 0-1.762 1.516 6.296 6.296 0 0 0-.942 2.089 9.11 9.11 0 0 0-.287 2.253v10.815h-5.387m35.903-21.753-6.821 21.753h-7.23l-6.985-21.753h5.572l5.468 19.868h-.86l5.285-19.868h5.571m8.699 22.203c-1.625 0-3.052-.252-4.281-.758-1.228-.519-2.191-1.263-2.888-2.232-.696-.97-1.044-2.137-1.044-3.503 0-1.488.403-2.71 1.208-3.666.82-.97 1.919-1.714 3.298-2.233 1.379-.532 2.908-.873 4.588-1.024 2.485-.245 4.219-.478 5.202-.696.997-.232 1.496-.6 1.496-1.106v-.041c0-.956-.43-1.693-1.291-2.212-.86-.52-2.075-.779-3.646-.779-1.652 0-2.922.294-3.809.881-.874.574-1.311 1.489-1.311 2.745h-5.325c0-1.707.45-3.148 1.351-4.322.915-1.188 2.165-2.09 3.749-2.704 1.584-.614 3.379-.921 5.386-.921 1.871 0 3.585.28 5.141.84 1.557.56 2.807 1.406 3.749 2.54.942 1.133 1.413 2.546 1.413 4.24v9.913c0 .518.014 1.03.041 1.536.041.491.116.935.225 1.331.137.437.301.806.492 1.106.191.3.341.505.45.614h-5.325c-.096-.095-.232-.28-.41-.553a6.644 6.644 0 0 1-.45-.983 7.6 7.6 0 0 1-.307-1.31 11.083 11.083 0 0 1-.103-1.578l1.065.738c-.409.833-1.038 1.563-1.884 2.191-.833.615-1.83 1.093-2.991 1.434-1.16.341-2.423.512-3.789.512m1.311-4.24c1.12 0 2.158-.19 3.113-.573.956-.383 1.728-.97 2.315-1.762.587-.805.881-1.836.881-3.092V27.31l1.311 1.475c-.874.327-1.926.6-3.155.82a55.558 55.558 0 0 1-3.728.49c-1.611.15-2.826.43-3.645.84-.806.41-1.209 1.08-1.209 2.008 0 .9.342 1.577 1.024 2.027.683.451 1.714.676 3.093.676m27.696 4.24a8.95 8.95 0 0 1-4.711-1.31c-1.434-.888-2.594-2.097-3.482-3.626-.874-1.53-1.311-3.25-1.311-5.162v-.286l2.663-.062v.205c0 1.065.266 2.014.799 2.847a5.883 5.883 0 0 0 2.068 1.946 5.7 5.7 0 0 0 2.745.696c1.57 0 2.908-.54 4.015-1.618 1.106-1.079 1.659-2.751 1.659-5.018 0-2.28-.553-3.946-1.659-4.998-1.093-1.065-2.431-1.597-4.015-1.597-.956 0-1.864.232-2.724.696a5.758 5.758 0 0 0-2.089 1.884c-.533.806-.799 1.748-.799 2.827l-2.663-.123c0-1.925.437-3.632 1.311-5.12.888-1.489 2.048-2.65 3.482-3.482a9.168 9.168 0 0 1 4.711-1.27c1.761 0 3.4.437 4.916 1.31 1.529.86 2.758 2.124 3.686 3.79.943 1.652 1.414 3.68 1.414 6.083 0 2.472-.458 4.554-1.373 6.247-.914 1.693-2.13 2.977-3.645 3.85-1.516.861-3.182 1.291-4.998 1.291m-12.248-.45V7.422h5.407v32.014h-5.407m25.391 0V17.684h5.326v21.753h-5.326m2.683-25.767c-.874 0-1.638-.232-2.294-.697-.641-.477-.962-1.14-.962-1.986 0-.833.321-1.482.962-1.946.656-.464 1.42-.697 2.294-.697.861 0 1.612.233 2.253.697.642.464.963 1.113.963 1.946 0 .846-.321 1.509-.963 1.986-.641.465-1.392.697-2.253.697Zm12.364-6.247v32.014h-5.305V7.422h5.305Zm4.178 32.014V17.684h5.325v21.753h-5.325m2.683-25.767c-.874 0-1.639-.232-2.294-.697-.642-.477-.963-1.14-.963-1.986 0-.833.321-1.482.963-1.946.655-.464 1.42-.697 2.294-.697.86 0 1.611.233 2.253.697.642.464.963 1.113.963 1.946 0 .846-.321 1.509-.963 1.986-.642.465-1.393.697-2.253.697Zm16.747 26.176c-.779 0-1.571-.075-2.376-.225a6.463 6.463 0 0 1-2.212-.84c-.67-.41-1.209-1.01-1.619-1.802-.409-.792-.614-1.837-.614-3.134V21.986h-5.141v-4.302h2.089c.71 0 1.27-.027 1.68-.082.409-.068.71-.218.901-.45.191-.232.314-.594.369-1.086.068-.505.102-1.201.102-2.089v-3.461h5.407v7.168h6.473v4.302h-6.473v10.22c0 1.01.123 1.823.369 2.438.246.614.826.921 1.741.921.437 0 .847-.04 1.229-.122.396-.082.689-.164.881-.246v4.219c-.26.096-.635.191-1.127.287a8.845 8.845 0 0 1-1.679.143m9.311 8.93c-.642 0-1.216-.034-1.721-.102-.505-.055-.819-.11-.942-.164v-4.199c.178.082.478.144.901.185.437.054.888.082 1.352.082.751 0 1.4-.15 1.946-.451.56-.3 1.038-.717 1.434-1.25.396-.518.71-1.126.942-1.822l.471-1.373-7.497-21.998h5.633l5.141 18.148h-.655l5.018-18.148h5.53l-7.619 23.084c-.533 1.597-1.182 2.997-1.946 4.199a7.832 7.832 0 0 1-3.011 2.806c-1.256.669-2.915 1.003-4.977 1.003m38.603-8.889c-2.144 0-4.015-.341-5.613-1.024-1.597-.683-2.84-1.707-3.727-3.072-.888-1.38-1.332-3.086-1.332-5.12v-1.25h5.387V30.568c0 1.638.444 2.867 1.332 3.686.901.806 2.225 1.209 3.973 1.209 1.762 0 3.107-.294 4.035-.88.942-.588 1.413-1.53 1.413-2.827 0-.942-.321-1.741-.962-2.397-.628-.669-1.495-1.256-2.602-1.761a31.862 31.862 0 0 0-3.768-1.413c-1.584-.492-3.025-1.127-4.322-1.905-1.297-.779-2.335-1.762-3.113-2.95-.779-1.188-1.168-2.649-1.168-4.383s.444-3.209 1.332-4.424c.901-1.215 2.13-2.137 3.686-2.765 1.571-.642 3.353-.963 5.346-.963 2.089 0 3.926.328 5.51.983 1.598.656 2.847 1.632 3.748 2.93.901 1.296 1.352 2.915 1.352 4.853v1.332h-5.407v-1.086c0-1.556-.424-2.703-1.27-3.44-.847-.752-2.13-1.127-3.851-1.127-1.679 0-2.97.293-3.871.88-.901.588-1.352 1.523-1.352 2.807 0 .955.307 1.754.922 2.396.614.642 1.454 1.202 2.519 1.68 1.079.464 2.301.935 3.667 1.413 1.816.6 3.386 1.283 4.71 2.048 1.325.751 2.349 1.693 3.073 2.827.723 1.12 1.085 2.546 1.085 4.28 0 1.775-.45 3.284-1.352 4.527-.887 1.229-2.136 2.171-3.748 2.827-1.597.641-3.475.962-5.632.962m16.03-9.586v-3.83h15.218l-.614 1.024v-.532c0-.942-.212-1.823-.635-2.642-.423-.833-1.065-1.502-1.925-2.008-.861-.518-1.953-.778-3.277-.778-1.311 0-2.451.28-3.421.84-.956.546-1.7 1.338-2.233 2.376-.518 1.037-.778 2.28-.778 3.727 0 1.489.253 2.772.758 3.851.505 1.065 1.243 1.885 2.212 2.458.983.56 2.178.84 3.584.84.956 0 1.782-.089 2.479-.266.696-.178 1.263-.417 1.7-.717.45-.314.785-.649 1.003-1.004.233-.355.369-.71.41-1.065h5.366c-.081.915-.389 1.81-.921 2.683-.519.86-1.25 1.646-2.192 2.356-.942.696-2.089 1.256-3.441 1.68-1.338.409-2.867.614-4.588.614-2.335 0-4.376-.478-6.124-1.434a10.39 10.39 0 0 1-4.097-3.994c-.969-1.707-1.454-3.66-1.454-5.858 0-2.253.492-4.226 1.475-5.92.997-1.693 2.376-3.01 4.137-3.953 1.762-.955 3.783-1.433 6.063-1.433 2.349 0 4.376.478 6.083 1.434 1.721.955 3.045 2.287 3.974 3.994.928 1.693 1.393 3.666 1.393 5.919 0 .287-.007.594-.021.922a5.755 5.755 0 0 1-.061.716h-20.073m32.154 9.586c-1.297 0-2.533-.143-3.708-.43-1.16-.287-2.198-.717-3.113-1.29-.901-.574-1.618-1.284-2.15-2.13-.519-.86-.779-1.85-.779-2.97v-.471h5.367v.368c0 .888.402 1.557 1.208 2.007.819.437 1.932.656 3.339.656.764 0 1.481-.082 2.15-.246.683-.164 1.229-.416 1.639-.758.423-.341.635-.778.635-1.31 0-.86-.444-1.475-1.332-1.844-.873-.369-2.253-.703-4.137-1.004a26.34 26.34 0 0 1-3.072-.717 11.765 11.765 0 0 1-2.765-1.208 6.4 6.4 0 0 1-1.987-1.884c-.492-.751-.738-1.666-.738-2.745 0-1.434.424-2.635 1.27-3.605.861-.983 2.008-1.727 3.441-2.232 1.448-.506 3.039-.758 4.773-.758 1.666 0 3.215.273 4.649.819 1.434.546 2.588 1.331 3.462 2.355.887 1.025 1.331 2.26 1.331 3.708V24.525h-5.325v-.266c0-.628-.198-1.14-.594-1.536-.396-.396-.908-.69-1.537-.88a6.782 6.782 0 0 0-1.986-.288c-.615 0-1.25.069-1.905.205-.656.123-1.202.349-1.639.676-.437.314-.655.758-.655 1.332 0 .546.225.99.676 1.331.45.341 1.078.628 1.884.86.806.219 1.734.417 2.786.594.997.164 2 .39 3.011.676a12.6 12.6 0 0 1 2.806 1.147 5.917 5.917 0 0 1 2.048 1.884c.532.765.799 1.714.799 2.848 0 1.201-.273 2.225-.82 3.072-.546.846-1.29 1.55-2.232 2.11-.929.546-1.98.949-3.154 1.208-1.175.26-2.39.39-3.646.39m21.853 0c-1.297 0-2.533-.143-3.707-.43-1.161-.287-2.198-.717-3.113-1.29-.901-.574-1.618-1.284-2.151-2.13-.519-.86-.778-1.85-.778-2.97v-.471h5.366v.368c0 .888.403 1.557 1.209 2.007.819.437 1.932.656 3.338.656a9.02 9.02 0 0 0 2.151-.246c.683-.164 1.229-.416 1.638-.758.424-.341.635-.778.635-1.31 0-.86-.443-1.475-1.331-1.844-.874-.369-2.253-.703-4.137-1.004a26.403 26.403 0 0 1-3.073-.717c-1.01-.3-1.932-.703-2.765-1.208a6.422 6.422 0 0 1-1.987-1.884c-.491-.751-.737-1.666-.737-2.745 0-1.434.423-2.635 1.27-3.605.86-.983 2.007-1.727 3.441-2.232 1.447-.506 3.038-.758 4.772-.758 1.666 0 3.216.273 4.65.819 1.433.546 2.587 1.331 3.461 2.355.888 1.025 1.332 2.26 1.332 3.708V24.525h-5.326v-.266c0-.628-.198-1.14-.594-1.536-.396-.396-.908-.69-1.536-.88a6.784 6.784 0 0 0-1.987-.288c-.614 0-1.249.069-1.905.205-.655.123-1.201.349-1.638.676-.437.314-.656.758-.656 1.332 0 .546.226.99.676 1.331.451.341 1.079.628 1.885.86.805.219 1.734.417 2.785.594.997.164 2.001.39 3.011.676 1.024.287 1.96.67 2.806 1.147a5.9 5.9 0 0 1 2.048 1.884c.533.765.799 1.714.799 2.848 0 1.201-.273 2.225-.819 3.072-.546.846-1.29 1.55-2.233 2.11-.928.546-1.98.949-3.154 1.208-1.174.26-2.389.39-3.646.39m12.965-.45V17.684h5.325v21.753h-5.325m2.683-25.767c-.874 0-1.639-.232-2.294-.697-.642-.477-.963-1.14-.963-1.986 0-.833.321-1.482.963-1.946.655-.464 1.42-.697 2.294-.697.86 0 1.611.233 2.253.697.642.464.963 1.113.963 1.946 0 .846-.321 1.509-.963 1.986-.642.465-1.393.697-2.253.697Zm17.443 26.197c-2.294 0-4.315-.478-6.063-1.434a10.673 10.673 0 0 1-4.117-4.015c-.983-1.706-1.474-3.66-1.474-5.857 0-2.213.491-4.158 1.474-5.838a10.57 10.57 0 0 1 4.117-3.973c1.748-.956 3.769-1.434 6.063-1.434 2.294 0 4.315.478 6.063 1.434 1.748.955 3.113 2.28 4.096 3.973.997 1.68 1.495 3.625 1.495 5.838 0 2.198-.498 4.15-1.495 5.857-.983 1.707-2.348 3.045-4.096 4.015-1.748.956-3.769 1.434-6.063 1.434m0-4.404c1.243 0 2.328-.287 3.257-.86.928-.574 1.652-1.373 2.171-2.397.519-1.038.778-2.253.778-3.646 0-1.392-.259-2.594-.778-3.604-.519-1.024-1.243-1.816-2.171-2.376-.929-.56-2.014-.84-3.257-.84-1.229 0-2.315.28-3.257.84-.928.56-1.652 1.352-2.171 2.376-.519 1.01-.778 2.212-.778 3.605 0 1.392.259 2.608.778 3.645.519 1.024 1.243 1.823 2.171 2.397.942.573 2.028.86 3.257.86m30.264 3.974V27.209c0-.983-.143-1.864-.43-2.643a3.56 3.56 0 0 0-1.433-1.863c-.67-.451-1.598-.676-2.786-.676-1.038 0-1.96.252-2.765.758a5.2 5.2 0 0 0-1.905 2.048c-.451.86-.676 1.857-.676 2.99l-1.823-1.126c0-1.816.41-3.428 1.229-4.834a9.104 9.104 0 0 1 3.339-3.339c1.392-.806 2.935-1.208 4.629-1.208 1.747 0 3.215.341 4.403 1.024a6.485 6.485 0 0 1 2.704 2.908c.614 1.256.922 2.731.922 4.424V39.438h-5.408m-15.382 0V17.684h5.387v21.753h-5.387m33.521.45c-1.297 0-2.533-.143-3.707-.43-1.161-.287-2.199-.717-3.114-1.29-.901-.574-1.618-1.284-2.15-2.13-.519-.86-.779-1.85-.779-2.97v-.471h5.367v.368c0 .888.403 1.557 1.208 2.007.82.437 1.932.656 3.339.656a9.01 9.01 0 0 0 2.15-.246c.683-.164 1.229-.416 1.639-.758.423-.341.635-.778.635-1.31 0-.86-.444-1.475-1.331-1.844-.874-.369-2.253-.703-4.138-1.004a26.34 26.34 0 0 1-3.072-.717 11.765 11.765 0 0 1-2.765-1.208 6.411 6.411 0 0 1-1.987-1.884c-.492-.751-.737-1.666-.737-2.745 0-1.434.423-2.635 1.27-3.605.86-.983 2.007-1.727 3.441-2.232 1.447-.506 3.038-.758 4.772-.758 1.666 0 3.216.273 4.649.819 1.434.546 2.588 1.331 3.462 2.355.887 1.025 1.331 2.26 1.331 3.708V24.525h-5.325v-.266c0-.628-.198-1.14-.594-1.536-.396-.396-.908-.69-1.536-.88a6.789 6.789 0 0 0-1.987-.288 9.33 9.33 0 0 0-1.905.205c-.655.123-1.202.349-1.638.676-.437.314-.656.758-.656 1.332 0 .546.225.99.676 1.331.451.341 1.079.628 1.884.86a29.57 29.57 0 0 0 2.786.594c.997.164 2 .39 3.011.676a12.6 12.6 0 0 1 2.806 1.147 5.908 5.908 0 0 1 2.048 1.884c.533.765.799 1.714.799 2.848 0 1.201-.273 2.225-.819 3.072-.547.846-1.291 1.55-2.233 2.11-.928.546-1.98.949-3.154 1.208-1.174.26-2.39.39-3.646.39"/></svg>