<svg width="64" height="64" viewBox="0 0 64 64" fill="none" xmlns="http://www.w3.org/2000/svg">
<circle cx="32" cy="32" r="32" fill="white"/>
<path d="M46 24V43C46 44.6569 44.6569 46 43 46C41.3431 46 40 44.6569 40 43V20C40 18.8954 39.1046 18 38 18H18C16.8954 18 16 18.8954 16 20V43C16 44.6569 17.3431 46 19 46H43" stroke="#FF671D" stroke-width="2" stroke-linecap="round" stroke-linejoin="round"/>
<path d="M21 36H35" stroke="#FF671D" stroke-width="2" stroke-linecap="round" stroke-linejoin="round"/>
<path d="M21 40H29" stroke="#FF671D" stroke-width="2" stroke-linecap="round" stroke-linejoin="round"/>
<path fill-rule="evenodd" clip-rule="evenodd" d="M21 24C21 23.4477 21.4477 23 22 23H34C34.5523 23 35 23.4477 35 24V30C35 30.5523 34.5523 31 34 31H22C21.4477 31 21 30.5523 21 30V24Z" stroke="#FF671D" stroke-width="2" stroke-linecap="round" stroke-linejoin="round"/>
</svg>
