<svg width="64" height="64" viewBox="0 0 64 64" fill="none" xmlns="http://www.w3.org/2000/svg">
<circle cx="32" cy="32" r="32" fill="white"/>
<path d="M47.9565 29.6342C47.9141 28.9465 47.788 28.1722 47.578 27.3546C47.3671 26.4947 47.0309 25.5914 46.5676 24.6016C46.1043 23.6551 45.4725 22.623 44.6731 21.6342C44.3783 21.2476 43.9998 20.8599 43.6627 20.5155C44.2098 18.2792 42.9895 16.3439 42.9895 16.3439C40.8839 16.215 39.5364 17.0316 39.0317 17.376C38.948 17.3326 38.8632 17.2904 38.7794 17.2904C38.4423 17.1182 38.0638 16.9893 37.6842 16.9037C37.3057 16.8181 36.9262 16.6882 36.5053 16.5594C36.1268 16.4738 35.7049 16.3872 35.284 16.3016C35.2002 16.3016 35.1578 16.2583 35.073 16.2583C34.1464 13.2476 31.4938 12 31.4938 12C28.5465 13.892 27.9994 16.5594 27.9994 16.5594C27.9994 16.5594 27.9994 16.6027 27.957 16.7315C27.7884 16.7748 27.6199 16.8171 27.4513 16.8604C27.2404 16.946 26.988 17.0326 26.7781 17.1182C26.5671 17.2038 26.3148 17.2904 26.1048 17.376C25.6839 17.5481 25.2206 17.8059 24.7997 18.0214C24.3788 18.2792 23.9579 18.538 23.5784 18.7957C23.536 18.7524 23.4946 18.7524 23.4946 18.7524C19.4107 17.1615 15.7891 19.0968 15.7891 19.0968C15.5368 23.5273 17.4738 26.3225 17.8523 26.838C17.7685 27.0958 17.6837 27.3968 17.5999 27.6556C17.3052 28.6444 17.0943 29.6775 16.9267 30.7519C16.8843 30.8808 16.8843 31.053 16.8843 31.2252C13.1365 33.1172 12 36.9888 12 36.9888C15.1583 40.6872 18.7789 40.9027 18.7789 40.9027C19.2422 41.7626 19.7893 42.5369 20.3787 43.3112C20.6311 43.6123 20.8844 43.9134 21.1791 44.2145C20.0426 47.5695 21.3477 50.3214 21.3477 50.3214C24.8421 50.4503 27.1576 48.7728 27.6209 48.3861C27.958 48.515 28.3365 48.6016 28.6737 48.7305C29.7264 49.0316 30.863 49.1605 31.9581 49.2471H33.348C34.9903 51.6556 37.8952 52 37.8952 52C39.9583 49.7636 40.0845 47.5695 40.0845 47.0973V46.9684V46.8828C40.5054 46.5818 40.9263 46.2374 41.3058 45.8941C42.1476 45.1197 42.8633 44.2598 43.4527 43.3133C43.4951 43.2277 43.5789 43.1411 43.6213 43.0555C45.9368 43.1844 47.579 41.5935 47.579 41.5935C47.2005 39.0994 45.8106 37.8951 45.5159 37.6796H45.4321C45.4321 37.6796 45.3897 37.6796 45.3897 37.6363C45.3897 37.5074 45.4321 37.3352 45.4321 37.2063C45.4321 36.9486 45.4745 36.6898 45.4745 36.3887V35.3566C45.4745 35.271 45.4745 35.2277 45.4321 35.1411L45.3897 34.9256L45.3473 34.7101C45.3049 34.4524 45.2635 34.1513 45.1788 33.8925C44.9264 32.8171 44.5055 31.8283 43.9998 30.8818C43.4527 29.9786 42.7785 29.161 42.0205 28.4733C41.2624 27.7855 40.4206 27.2257 39.5364 26.839C38.6522 26.4524 37.7256 26.1513 36.8 26.0647C36.3367 26.0214 35.8734 25.9791 35.4101 25.9791H35.1992C35.1992 25.9791 35.1154 25.9791 35.1568 25.9791H34.6935C34.4412 25.9791 34.2302 26.0224 33.9779 26.0647C33.0513 26.2369 32.1671 26.5813 31.409 27.0535C30.651 27.5267 29.9778 28.1289 29.4297 28.7743C28.8826 29.4198 28.4617 30.1941 28.167 30.9251C27.8722 31.6561 27.7037 32.4738 27.6613 33.2481V34.3668C27.7037 34.7534 27.745 35.1411 27.8722 35.4855C28.0832 36.2165 28.3779 36.862 28.7988 37.4208C29.2197 37.9796 29.683 38.4096 30.1887 38.7973C30.6944 39.1416 31.2415 39.3994 31.7886 39.5716C32.3356 39.7438 32.8413 39.7871 33.3884 39.7871H34.104C34.1878 39.7871 34.2302 39.7438 34.2726 39.7438C34.315 39.7438 34.3988 39.7005 34.4412 39.7005C34.5673 39.6572 34.6521 39.6572 34.7783 39.6149C34.9892 39.5293 35.1992 39.4427 35.4101 39.3571C35.6211 39.2716 35.7887 39.1416 35.9572 39.0128C35.9996 38.9695 36.041 38.9272 36.0834 38.9272C36.252 38.7983 36.2943 38.5405 36.1672 38.3683C36.041 38.1962 35.83 38.1529 35.6615 38.2828C35.6191 38.2828 35.5777 38.3261 35.5353 38.3683C35.4091 38.4539 35.2406 38.4972 35.072 38.5838C34.9034 38.6271 34.7349 38.6694 34.5663 38.7127C34.4825 38.7127 34.3978 38.756 34.314 38.756H33.7669H33.5146C33.1361 38.7127 32.7141 38.5838 32.3356 38.4116C31.9571 38.2395 31.5776 37.9817 31.2405 37.6806C30.9033 37.3796 30.6086 36.9929 30.3987 36.6052C30.1877 36.2186 30.0201 35.7453 29.9354 35.2288C29.893 34.971 29.893 34.7122 29.893 34.4977V34.2823V34.1101C29.893 33.9812 29.9354 33.8523 29.9354 33.7234C30.1039 32.648 30.651 31.6159 31.4514 30.8416C31.6624 30.6261 31.8723 30.455 32.0833 30.325C32.2942 30.1529 32.5466 30.024 32.7989 29.8951C33.0513 29.7662 33.3046 29.6796 33.5993 29.594C33.8941 29.5084 34.1464 29.4651 34.4412 29.4651H35.1568H35.3254C35.6201 29.5084 35.9572 29.5507 36.252 29.594C36.8414 29.7229 37.4309 29.9384 38.0204 30.2817C39.1155 30.9272 40.0411 31.8727 40.6306 33.0347C40.9253 33.6368 41.1363 34.2389 41.22 34.8844C41.2624 35.0566 41.2624 35.2288 41.2624 35.3576V36.3897C41.2624 36.5619 41.22 36.7341 41.22 36.9063C41.1776 37.0785 41.1776 37.2507 41.1363 37.4229C41.0939 37.595 41.0525 37.7672 41.0101 37.9394C40.9263 38.2838 40.7991 38.6271 40.673 38.9715C40.4206 39.617 40.0835 40.2614 39.6626 40.8635C38.8208 42.0245 37.6832 42.971 36.4205 43.5731C35.7887 43.8742 35.073 44.0897 34.3998 44.2186C34.0626 44.2619 33.6841 44.3042 33.347 44.3042H32.8413H32.7989C32.588 44.3042 32.4204 44.3042 32.2518 44.2609C31.4938 44.2176 30.7358 44.0887 30.0201 43.8742C29.3045 43.6587 28.5889 43.3576 27.9146 43.0143C26.5671 42.2833 25.3882 41.2935 24.4616 40.0892C23.9983 39.487 23.5774 38.8416 23.2403 38.1539C22.9031 37.4662 22.6508 36.7774 22.4398 36.0464C22.2289 35.3154 22.1027 34.5844 22.0613 33.81V32.9501V32.6057C22.0613 32.2191 22.1037 31.8747 22.1451 31.487C22.1875 31.1004 22.2713 30.7127 22.3137 30.3261C22.3561 29.9394 22.4822 29.5517 22.566 29.2074C22.777 28.4764 23.0293 27.7453 23.324 27.0999C23.9559 25.7667 24.7553 24.5624 25.6819 23.6159C25.9342 23.3582 26.1876 23.1427 26.4399 22.9282C26.6923 22.7127 26.9456 22.4983 27.2404 22.3261C27.5351 22.1539 27.7874 21.9817 28.0822 21.8095C28.2083 21.7239 28.3769 21.6373 28.5031 21.594C28.5869 21.5507 28.6716 21.5084 28.714 21.5084C28.7564 21.5084 28.8826 21.4229 28.925 21.4229C29.2197 21.294 29.5569 21.1651 29.8516 21.0785C29.9354 21.0352 30.0201 21.0352 30.1039 20.9929C30.1877 20.9496 30.2725 20.9496 30.3563 20.9073C30.5248 20.864 30.6934 20.8218 30.862 20.7785C30.9457 20.7785 31.0305 20.7351 31.1143 20.7351C31.1981 20.7351 31.2829 20.6918 31.3666 20.6918C31.4504 20.6918 31.5352 20.6485 31.619 20.6485H31.8713C31.9551 20.6485 32.0399 20.6052 32.1237 20.6052C32.2074 20.6052 32.2922 20.6052 32.4184 20.5619C32.5022 20.5619 32.6294 20.5186 32.7131 20.5186H33.5549H34.8176C35.4495 20.5619 36.0804 20.6042 36.6698 20.7341C37.8488 20.9496 38.9853 21.3363 39.9957 21.8528C41.0061 22.3694 41.9326 22.9715 42.7321 23.6592C42.7745 23.7025 42.8158 23.7448 42.8582 23.7881C42.9006 23.8314 42.942 23.8737 42.9844 23.917C43.0682 24.0026 43.153 24.0892 43.2791 24.1748C43.4053 24.2603 43.4477 24.347 43.5315 24.4325C43.6153 24.5181 43.7 24.6047 43.7838 24.6903C44.1209 25.0769 44.4157 25.4213 44.7104 25.809C45.2575 26.54 45.7208 27.3143 46.1003 28.0021C46.1427 28.0454 46.1427 28.0876 46.1841 28.1309C46.2255 28.1742 46.2265 28.2165 46.2679 28.2598C46.3103 28.3454 46.3516 28.432 46.394 28.5176C46.4364 28.6032 46.4778 28.6898 46.5202 28.7754C46.5626 28.8609 46.604 28.9475 46.604 29.0331C46.7301 29.3775 46.8563 29.6786 46.9411 29.9796C47.1097 30.4529 47.2358 30.8828 47.3196 31.2695C47.362 31.3984 47.4882 31.5273 47.6567 31.485C47.8253 31.485 47.9515 31.3561 47.9515 31.1839C48.0353 30.6674 47.9939 30.1951 47.9515 29.6353L47.9565 29.6342Z" fill="#FF671D"/>
</svg>
