<?xml version="1.0" encoding="utf-8"?>
<!-- Generator: Adobe Illustrator 24.2.1, SVG Export Plug-In . SVG Version: 6.00 Build 0)  -->
<svg version="1.1" id="Layer_1" xmlns="http://www.w3.org/2000/svg" xmlns:xlink="http://www.w3.org/1999/xlink" x="0px" y="0px"
	 viewBox="0 0 29 27" style="enable-background:new 0 0 29 27;" xml:space="preserve">
<style type="text/css">
	.st0{fill:none;stroke:#EF5B3E;stroke-width:1.5;stroke-linecap:round;stroke-linejoin:round;}
</style>
<path class="st0" d="M26.9,17.1l-7.6,7.6l-3.8,0.8l0.8-3.8l7.6-7.6c0.2-0.2,0.4-0.4,0.7-0.5c0.3-0.1,0.5-0.2,0.8-0.2
	s0.6,0.1,0.8,0.2c0.3,0.1,0.5,0.3,0.7,0.5l0,0c0.2,0.2,0.4,0.4,0.5,0.7c0.1,0.3,0.2,0.5,0.2,0.8s-0.1,0.6-0.2,0.8
	C27.2,16.7,27.1,16.9,26.9,17.1L26.9,17.1z"/>
<path class="st0" d="M12.5,22.5h-6c-0.4,0-0.8-0.2-1.1-0.4C5.1,21.8,5,21.4,5,21V4.5c0-0.4,0.2-0.8,0.4-1.1C5.7,3.2,6.1,3,6.5,3h15
	c0.4,0,0.8,0.2,1.1,0.4C22.9,3.7,23,4.1,23,4.5v6.8"/>
<path class="st0" d="M9.5,8h9"/>
<path class="st0" d="M9.5,13.5H17"/>
</svg>
