<svg width="23" height="22" viewBox="0 0 23 22" fill="none" xmlns="http://www.w3.org/2000/svg">
<path d="M1.01001 2.5C1.01001 2.10218 1.16804 1.72064 1.44934 1.43933C1.73065 1.15803 2.11219 1 2.51001 1H20.51C20.9078 1 21.2894 1.15803 21.5707 1.43933C21.852 1.72064 22.01 2.10218 22.01 2.5V19C22.01 19.3978 21.852 19.7794 21.5707 20.0607C21.2894 20.342 20.9078 20.5 20.51 20.5H2.5C2.10218 20.5 1.72064 20.342 1.43933 20.0607C1.15803 19.7794 1 19.3978 1 19L1.01001 2.5Z" stroke="#ECA313" stroke-width="1.5" stroke-linecap="round" stroke-linejoin="round"/>
<path d="M17.5 7.64844H11" stroke="#ECA313" stroke-width="1.5" stroke-linecap="round" stroke-linejoin="round"/>
<path d="M17.5 13.6484H11" stroke="#ECA313" stroke-width="1.5" stroke-linecap="round" stroke-linejoin="round"/>
<path d="M6.25995 13.2784C6.31432 13.2695 6.37 13.2726 6.4231 13.2873C6.47619 13.3021 6.52539 13.3281 6.56738 13.3637C6.60938 13.3994 6.64312 13.4439 6.66626 13.4939C6.68939 13.5439 6.70135 13.5983 6.70135 13.6534C6.70135 13.7085 6.68939 13.763 6.66626 13.813C6.64312 13.863 6.60938 13.9073 6.56738 13.943C6.52539 13.9786 6.47619 14.0048 6.4231 14.0195C6.37 14.0343 6.31432 14.0373 6.25995 14.0284C6.171 14.0138 6.09015 13.9681 6.0318 13.8994C5.97345 13.8307 5.94141 13.7436 5.94141 13.6534C5.94141 13.5633 5.97345 13.4761 6.0318 13.4074C6.09015 13.3388 6.171 13.293 6.25995 13.2784" stroke="#ECA313" stroke-width="1.5" stroke-linecap="round" stroke-linejoin="round"/>
<path d="M6.25995 7.25498C6.31432 7.24607 6.37 7.24915 6.4231 7.26389C6.47619 7.27864 6.52539 7.30464 6.56738 7.34031C6.60938 7.37598 6.64312 7.42043 6.66626 7.47044C6.68939 7.52045 6.70135 7.57488 6.70135 7.62998C6.70135 7.68508 6.68939 7.73952 6.66626 7.78953C6.64312 7.83954 6.60938 7.88386 6.56738 7.91953C6.52539 7.95521 6.47619 7.98133 6.4231 7.99607C6.37 8.01082 6.31432 8.01389 6.25995 8.00498C6.171 7.99041 6.09015 7.94465 6.0318 7.87596C5.97345 7.80726 5.94141 7.72011 5.94141 7.62998C5.94141 7.53985 5.97345 7.4527 6.0318 7.38401C6.09015 7.31532 6.171 7.26956 6.25995 7.25498" stroke="#ECA313" stroke-width="1.5" stroke-linecap="round" stroke-linejoin="round"/>
</svg>
