<svg width="23" height="23" viewBox="0 0 23 23" fill="none" xmlns="http://www.w3.org/2000/svg">
<circle cx="11.5" cy="11.5" r="10.75" stroke="#7E6CDA" stroke-width="1.5"/>
<path d="M15.0747 11.1008L9.3867 7.07511C9.32187 7.02909 9.24704 7.00324 9.17006 7.00029C9.09308 6.99733 9.01681 7.01737 8.94925 7.0583C8.88169 7.09923 8.82535 7.15954 8.78614 7.23289C8.74694 7.30624 8.72631 7.38992 8.72644 7.47514V15.5249C8.72631 15.6101 8.74694 15.6938 8.78614 15.7671C8.82535 15.8405 8.88169 15.9008 8.94925 15.9417C9.01681 15.9826 9.09308 16.0027 9.17006 15.9997C9.24704 15.9968 9.32187 15.9709 9.3867 15.9249L15.0747 11.8992C15.1352 11.8563 15.1849 11.7973 15.2194 11.7275C15.2538 11.6577 15.2719 11.5795 15.2719 11.5C15.2719 11.4205 15.2538 11.3423 15.2194 11.2725C15.1849 11.2027 15.1352 11.1437 15.0747 11.1008V11.1008Z" stroke="#7E6CDA" stroke-width="1.5"/>
</svg>
