<svg width="14" height="15" viewBox="0 0 14 15" fill="none" xmlns="http://www.w3.org/2000/svg">
<g clip-path="url(#clip0_17202_2097)">
<path d="M12.7573 0C12.5584 0 12.3676 0.0790176 12.227 0.21967C12.0863 0.360322 12.0073 0.551088 12.0073 0.75V1.23C11.3758 2.01529 10.5765 2.64922 9.66806 3.08529C8.7596 3.52135 7.76502 3.74848 6.75732 3.75H2.25732C1.66059 3.75 1.08829 3.98705 0.666334 4.40901C0.244377 4.83097 0.00732422 5.40326 0.00732422 6V7.5C0.00732422 8.09674 0.244377 8.66903 0.666334 9.09099C1.08829 9.51295 1.66059 9.75 2.25732 9.75H2.61732L0.817324 13.9575C0.739903 14.1405 0.738279 14.3468 0.812808 14.531C0.887336 14.7152 1.03193 14.8623 1.21482 14.94C1.30732 14.9794 1.40679 14.9998 1.50732 15H4.50732C4.6537 15.0005 4.79703 14.9582 4.91964 14.8782C5.04224 14.7983 5.13877 14.6842 5.19732 14.55L7.22982 9.75C8.15732 9.81941 9.06047 10.0798 9.88259 10.5147C10.7047 10.9496 11.4281 11.5498 12.0073 12.2775V12.75C12.0073 12.9489 12.0863 13.1397 12.227 13.2803C12.3676 13.421 12.5584 13.5 12.7573 13.5C12.9562 13.5 13.147 13.421 13.2877 13.2803C13.4283 13.1397 13.5073 12.9489 13.5073 12.75V0.75C13.5073 0.551088 13.4283 0.360322 13.2877 0.21967C13.147 0.0790176 12.9562 0 12.7573 0ZM2.25732 8.25C2.05841 8.25 1.86765 8.17098 1.72699 8.03033C1.58634 7.88968 1.50732 7.69891 1.50732 7.5V6C1.50732 5.80109 1.58634 5.61032 1.72699 5.46967C1.86765 5.32902 2.05841 5.25 2.25732 5.25H3.00732V8.25H2.25732ZM4.01232 13.5H2.63982L4.24482 9.75H5.60982L4.01232 13.5ZM12.0073 10.14C10.5275 8.92374 8.67285 8.25608 6.75732 8.25H4.50732V5.25H6.75732C8.67372 5.24889 10.53 4.58064 12.0073 3.36V10.14Z" fill="#7E6CDA"/>
</g>
<defs>
<clipPath id="clip0_17202_2097">
<rect width="13.5" height="15" fill="white"/>
</clipPath>
</defs>
</svg>
