<svg width="19" height="19" viewBox="0 0 19 19" fill="none" xmlns="http://www.w3.org/2000/svg">
<path d="M17.7887 14.8992L16.9971 11.8433L14.5033 2.6679C14.4494 2.46551 14.3175 2.29271 14.1365 2.18736C13.9555 2.08201 13.7401 2.05269 13.5375 2.10582L10.4737 2.89749C10.4006 2.81646 10.3115 2.75142 10.2121 2.70646C10.1126 2.6615 10.005 2.63759 9.89583 2.63624H1.97917C1.7692 2.63624 1.56784 2.71965 1.41937 2.86811C1.27091 3.01658 1.1875 3.21794 1.1875 3.4279V16.0946C1.1875 16.3045 1.27091 16.5059 1.41937 16.6544C1.56784 16.8028 1.7692 16.8862 1.97917 16.8862H9.89583C10.1058 16.8862 10.3072 16.8028 10.4556 16.6544C10.6041 16.5059 10.6875 16.3045 10.6875 16.0946V9.76124L12.4292 16.2687C12.4756 16.4414 12.5791 16.5934 12.7228 16.6997C12.8666 16.8061 13.0421 16.8607 13.2208 16.8546C13.2892 16.8624 13.3583 16.8624 13.4267 16.8546L17.2504 15.8333C17.3515 15.8063 17.4462 15.7595 17.5291 15.6956C17.612 15.6318 17.6814 15.5521 17.7333 15.4612C17.8168 15.2861 17.8364 15.0872 17.7887 14.8992ZM5.12208 15.3346H2.74708V13.7512H5.12208V15.3346ZM5.12208 12.1679H2.74708V7.4179H5.12208V12.1679ZM5.12208 5.83457H2.74708V4.25124H5.12208V5.83457ZM9.08042 15.3346H6.70542V13.7512H9.08042V15.3346ZM9.08042 12.1679H6.70542V7.4179H9.08042V12.1679ZM9.08042 5.83457H6.70542V4.25124H9.08042V5.83457ZM10.8617 4.45707L13.1575 3.83957L13.5692 5.36749L11.2733 5.98499L10.8617 4.45707ZM12.9121 12.1046L11.685 7.5129L13.9808 6.8954L15.2079 11.4871L12.9121 12.1046ZM13.7037 15.1604L13.2921 13.6325L15.5879 13.015L15.9996 14.5429L13.7037 15.1604Z" fill="#FB5A67"/>
</svg>
