<svg width="18" height="20" viewBox="0 0 18 20" fill="none" xmlns="http://www.w3.org/2000/svg">
<path fill-rule="evenodd" clip-rule="evenodd" d="M1.68753 3.94222V9.65272C1.68756 13.3476 3.96301 16.6609 7.41153 17.9875L8.19228 18.2875C8.71221 18.4875 9.28784 18.4875 9.80777 18.2875L10.5885 17.9875C14.037 16.6609 16.3125 13.3476 16.3125 9.65272V3.94222C16.3155 3.50327 16.0606 3.10343 15.6615 2.92072C13.5614 2.00406 11.2914 1.54121 9.00003 1.56247C6.70867 1.54121 4.43865 2.00406 2.33853 2.92072C1.93941 3.10343 1.68459 3.50327 1.68753 3.94222Z" stroke="white" stroke-width="1.5" stroke-linecap="round" stroke-linejoin="round"/>
<path d="M9 12.125C9.15533 12.125 9.28125 12.2509 9.28125 12.4062C9.28125 12.5616 9.15533 12.6875 9 12.6875C8.84467 12.6875 8.71875 12.5616 8.71875 12.4062C8.71875 12.2509 8.84467 12.125 9 12.125" stroke="white" stroke-width="1.5" stroke-linecap="round" stroke-linejoin="round"/>
<path d="M9 9.4375V6.0625" stroke="white" stroke-width="1.5" stroke-linecap="round" stroke-linejoin="round"/>
</svg>
