<svg width="18" height="18" viewBox="0 0 18 18" fill="none" xmlns="http://www.w3.org/2000/svg">
<path d="M11.7825 4.7175L7.8075 8.6925L6.2175 7.1025C6.15026 7.02399 6.06753 6.96022 5.97448 6.91521C5.88143 6.87019 5.78008 6.84489 5.67679 6.8409C5.5735 6.83691 5.4705 6.85432 5.37426 6.89202C5.27801 6.92973 5.1906 6.98692 5.11751 7.06001C5.04442 7.1331 4.98723 7.22051 4.94952 7.31676C4.91182 7.413 4.89441 7.516 4.8984 7.61929C4.90239 7.72258 4.92769 7.82393 4.97271 7.91698C5.01772 8.01003 5.08149 8.09276 5.16 8.16L7.2825 10.2825C7.4222 10.4211 7.61074 10.4992 7.8075 10.5C7.9062 10.5006 8.00405 10.4817 8.09543 10.4443C8.18681 10.407 8.26992 10.352 8.34 10.2825L12.84 5.7825C12.9103 5.71278 12.9661 5.62983 13.0042 5.53843C13.0422 5.44704 13.0618 5.34901 13.0618 5.25C13.0618 5.15099 13.0422 5.05296 13.0042 4.96157C12.9661 4.87017 12.9103 4.78722 12.84 4.7175C12.6995 4.57781 12.5094 4.49941 12.3113 4.49941C12.1131 4.49941 11.923 4.57781 11.7825 4.7175ZM14.25 1.5H3.75C3.15326 1.5 2.58097 1.73705 2.15901 2.15901C1.73705 2.58097 1.5 3.15326 1.5 3.75V11.25C1.5 11.8467 1.73705 12.419 2.15901 12.841C2.58097 13.2629 3.15326 13.5 3.75 13.5H12.4425L15.2175 16.2825C15.2876 16.352 15.3707 16.407 15.4621 16.4443C15.5534 16.4817 15.6513 16.5006 15.75 16.5C15.8484 16.5025 15.946 16.482 16.035 16.44C16.172 16.3837 16.2892 16.2882 16.372 16.1654C16.4547 16.0426 16.4993 15.8981 16.5 15.75V3.75C16.5 3.15326 16.2629 2.58097 15.841 2.15901C15.419 1.73705 14.8467 1.5 14.25 1.5ZM15 13.9425L13.2825 12.2175C13.2124 12.148 13.1293 12.093 13.0379 12.0557C12.9466 12.0183 12.8487 11.9994 12.75 12H3.75C3.55109 12 3.36032 11.921 3.21967 11.7803C3.07902 11.6397 3 11.4489 3 11.25V3.75C3 3.55109 3.07902 3.36032 3.21967 3.21967C3.36032 3.07902 3.55109 3 3.75 3H14.25C14.4489 3 14.6397 3.07902 14.7803 3.21967C14.921 3.36032 15 3.55109 15 3.75V13.9425Z" fill="#4776D1"/>
</svg>
