<svg width="18" height="18" viewBox="0 0 18 18" fill="none" xmlns="http://www.w3.org/2000/svg">
<path d="M12 7.7025L8.25 5.535C8.02209 5.40341 7.76356 5.33411 7.50039 5.33404C7.23721 5.33397 6.97865 5.40314 6.75067 5.53462C6.52269 5.66609 6.3333 5.85522 6.20154 6.08304C6.06978 6.31085 6.00027 6.56932 6 6.8325V11.1675C6.00027 11.4305 6.06971 11.6889 6.20135 11.9166C6.33299 12.1444 6.5222 12.3335 6.75 12.465C6.97803 12.5967 7.2367 12.666 7.5 12.666C7.76331 12.666 8.02197 12.5967 8.25 12.465L12 10.2975C12.2273 10.1656 12.416 9.97638 12.5472 9.74867C12.6783 9.52096 12.7473 9.26278 12.7473 9C12.7473 8.73722 12.6783 8.47904 12.5472 8.25133C12.416 8.02362 12.2273 7.83436 12 7.7025ZM11.25 9L7.5 11.1675V6.8325L11.25 9ZM9 1.5C7.51664 1.5 6.0666 1.93987 4.83323 2.76398C3.59986 3.58809 2.63856 4.75943 2.07091 6.12987C1.50325 7.50032 1.35472 9.00832 1.64411 10.4632C1.9335 11.918 2.64781 13.2544 3.6967 14.3033C4.7456 15.3522 6.08197 16.0665 7.53683 16.3559C8.99168 16.6453 10.4997 16.4968 11.8701 15.9291C13.2406 15.3614 14.4119 14.4001 15.236 13.1668C16.0601 11.9334 16.5 10.4834 16.5 9C16.5 8.01509 16.306 7.03982 15.9291 6.12987C15.5522 5.21993 14.9997 4.39314 14.3033 3.6967C13.6069 3.00026 12.7801 2.44781 11.8701 2.0709C10.9602 1.69399 9.98492 1.5 9 1.5ZM9 15C7.81332 15 6.65328 14.6481 5.66658 13.9888C4.67989 13.3295 3.91085 12.3925 3.45673 11.2961C3.0026 10.1997 2.88378 8.99334 3.11529 7.82946C3.3468 6.66557 3.91825 5.59647 4.75736 4.75736C5.59648 3.91824 6.66558 3.3468 7.82946 3.11529C8.99335 2.88378 10.1997 3.0026 11.2961 3.45672C12.3925 3.91085 13.3295 4.67988 13.9888 5.66658C14.6481 6.65327 15 7.81331 15 9C15 10.5913 14.3679 12.1174 13.2426 13.2426C12.1174 14.3679 10.5913 15 9 15Z" fill="#EC6D13"/>
</svg>
