<svg xmlns="http://www.w3.org/2000/svg" width="48" height="48" fill="none"><rect width="45" height="45" x="1.5" y="1.5" fill="#FBDC3B" fill-opacity=".3" stroke="#E5C30F" stroke-width="3" rx="6.5"/><path fill="#E5C30F" d="m17.586 37.615-.355-2.357-2.421.323.386 2.422 2.39-.388ZM36.413 30.898l-.388-2.39L25.5 30.124l.355 2.388 10.56-1.614ZM22.108 33.093l2.389-.355-.355-2.39-2.422.388.388 2.357ZM21.365 37.035l-.388-2.39-2.389.388.355 2.39 2.422-.388ZM14.26 31.867l.355 2.39 2.39-.355-.356-2.422-2.389.387ZM26.048 33.868l.386 2.421 10.56-1.647-.386-2.357-10.56 1.583ZM22.689 36.84l2.39-.356-.388-2.422-2.357.389.355 2.388ZM18.005 31.285l.389 2.421 2.357-.388-.355-2.388-2.39.355ZM15.068 30.382l-2.94-19.183-1.033.194 2.971 19.116 1.002-.127ZM16.456 30.122l-3.165-20.54-1.033.194 3.196 20.54 1.002-.194ZM18.845 29.798 15.488 8l-1.033.163 3.325 21.765 1.065-.13ZM20.202 29.572 17.135 9.71l-1.002.163L19.2 29.733l1.002-.161ZM22.56 29.22l-2.713-17.665-1.002.16 2.68 17.665 1.034-.16ZM23.948 28.995l-2.842-18.311-1 .162 2.841 18.277 1-.128Z"/></svg>