<svg xmlns="http://www.w3.org/2000/svg" width="42" height="45" fill="none"><path fill="#F75F15" d="M41.955 19.902c-.08-.719-.161-1.598-.484-2.557-.242-.96-.645-1.999-1.21-3.118-.565-1.119-1.291-2.238-2.179-3.357-.322-.4-.726-.879-1.21-1.279.646-2.557-.807-4.715-.807-4.715-2.42-.16-4.034.719-4.599 1.199-.08 0-.161-.08-.322-.16-.404-.16-.807-.32-1.291-.48-.484-.16-.888-.24-1.372-.4-.484-.08-.968-.16-1.372-.24h-.242C25.82 1.44 22.753 0 22.753 0c-3.39 2.158-4.035 5.115-4.035 5.115v.16c-.16.08-.403.08-.564.16-.242.08-.484.16-.807.24-.242.08-.484.16-.807.32-.484.24-1.049.48-1.533.719-.484.24-.968.56-1.452.88-.08 0-.08-.08-.08-.08-4.761-1.76-8.957.399-8.957.399-.403 4.956 1.856 8.153 2.34 8.712-.08.32-.242.64-.323.96-.322 1.118-.645 2.317-.806 3.516 0 .16-.081.32-.081.48C1.29 23.739 0 28.135 0 28.135c3.63 4.156 7.907 4.396 7.907 4.396.565.96 1.13 1.838 1.856 2.718.322.32.645.719.887 1.039-1.29 3.756.162 6.874.162 6.874 4.034.16 6.696-1.759 7.261-2.238.403.16.807.24 1.21.4 1.21.319 2.501.479 3.792.559h1.533C26.545 44.6 29.853 45 29.853 45c2.42-2.478 2.5-4.956 2.5-5.515v-.16c.485-.32.97-.72 1.453-1.119a16.903 16.903 0 0 0 2.501-2.877c.081-.08.162-.16.162-.32 2.743.16 4.599-1.679 4.599-1.679-.484-2.797-2.098-4.156-2.42-4.396h-.082v-3.357c-.08-.32-.08-.64-.16-.879-.324-1.199-.727-2.318-1.373-3.357a12.331 12.331 0 0 0-2.259-2.718c-.887-.799-1.855-1.358-2.904-1.838-1.05-.48-2.098-.72-3.228-.88-.564-.08-1.048-.08-1.613-.08h-.807c-.242 0-.565.08-.807.08a7.943 7.943 0 0 0-2.985 1.12c-.888.56-1.695 1.199-2.34 1.918-.645.72-1.13 1.599-1.452 2.478-.323.88-.484 1.758-.565 2.638v1.279c.08.4.161.879.242 1.278.242.8.645 1.519 1.049 2.158.484.64 1.049 1.12 1.614 1.52.564.399 1.21.718 1.855.878.646.16 1.21.24 1.856.24h1.049c.08 0 .161 0 .242-.08.161 0 .242-.08.403-.08.242-.08.485-.16.727-.32.242-.08.403-.24.645-.4.08 0 .08-.08.161-.159a.42.42 0 0 0 .081-.64c-.161-.16-.403-.24-.565-.08-.08 0-.08.08-.161.08-.162.08-.323.16-.565.24-.161.08-.403.08-.565.16H24.85c-.484-.08-.887-.16-1.371-.4-.484-.16-.888-.479-1.291-.799-.404-.32-.726-.799-.968-1.199s-.485-.959-.565-1.518c-.08-.24-.08-.56-.08-.8v-.4c0-.16 0-.319.08-.479a6.288 6.288 0 0 1 1.775-3.277c.242-.24.484-.4.726-.64.242-.16.565-.319.807-.479.323-.16.645-.24.887-.32.323-.08.646-.16.969-.16h.968c.323 0 .726.08 1.049.16.726.16 1.371.4 2.017.8 1.29.719 2.34 1.838 3.066 3.117a9.07 9.07 0 0 1 .726 2.078c0 .16.08.4.08.56v1.279c0 .24 0 .4-.08.639 0 .16-.08.4-.08.56 0 .16-.081.399-.162.559-.08.4-.242.8-.404 1.119-.322.72-.726 1.439-1.21 2.158-.968 1.279-2.259 2.398-3.792 3.037-.726.32-1.533.56-2.34.72-.403.08-.807.08-1.21.16h-1.21c-.888-.08-1.775-.24-2.582-.48-.807-.24-1.695-.56-2.42-.96a13.205 13.205 0 0 1-4.035-3.276c-.565-.64-1.049-1.36-1.371-2.158-.404-.8-.727-1.599-.969-2.398-.242-.8-.403-1.679-.403-2.478v-1.519c0-.4.08-.879.08-1.279.081-.4.162-.879.243-1.278.08-.4.161-.88.322-1.28.242-.799.565-1.598.888-2.397.726-1.519 1.614-2.878 2.743-3.917.242-.24.565-.56.888-.799.322-.24.645-.48.968-.64.323-.24.645-.4.968-.559l.484-.24c.08 0 .162-.08.242-.08.08 0 .162-.08.242-.08.323-.16.726-.24 1.05-.4.08 0 .16-.08.241-.08.08 0 .162-.08.242-.08.162-.079.404-.079.565-.159.08 0 .161-.08.323-.08.08 0 .161 0 .322-.08.081 0 .162 0 .323-.08h.323c.08 0 .161 0 .323-.08.08 0 .242 0 .323-.08h2.824c.726 0 1.452.08 2.178.24 1.371.24 2.662.72 3.873 1.28a12.585 12.585 0 0 1 3.146 2.077l.162.16.16.16c.082.08.243.16.324.32.08.16.242.16.322.32.081.16.242.24.323.32.404.399.726.798 1.049 1.278.645.8 1.21 1.678 1.614 2.478 0 .08.08.08.08.16s.081.08.081.16c.08.08.08.16.161.32.081.08.081.159.162.319.08.08.08.16.161.32.162.4.323.719.404 1.039.16.56.322 1.039.403 1.438.08.16.242.32.403.24.162 0 .323-.16.323-.32.323-.959.323-1.518.242-2.078Z"/></svg>