<svg xmlns="http://www.w3.org/2000/svg" width="48" height="48" fill="none"><rect width="45" height="45" x="1.5" y="1.5" fill="#F75F15" fill-opacity=".25" stroke="#F75F15" stroke-width="3" rx="6.5"/><path fill="#F75F15" d="M29.728 23.102a5.928 5.928 0 0 1-1.714 4.663 5.891 5.891 0 0 1-4.192 1.736 5.892 5.892 0 0 1-4.192-1.736 5.937 5.937 0 0 1 0-8.387 5.892 5.892 0 0 1 4.657-1.718l2.174-2.175a8.516 8.516 0 0 0-8.652 2.072 8.502 8.502 0 0 0 0 12.027 8.479 8.479 0 0 0 6.013 2.49 8.479 8.479 0 0 0 6.013-2.49 8.504 8.504 0 0 0 2.07-8.66l-2.177 2.178Z"/><path fill="#F75F15" d="m38.394 34.5-2.613-2.612c2.964-4.253 3.398-9.732 1.302-14.345l-1.972 1.972c.46 1.282.7 2.65.7 4.054 0 3.204-1.247 6.214-3.511 8.48a11.915 11.915 0 0 1-8.48 3.512 11.919 11.919 0 0 1-8.48-3.512 11.915 11.915 0 0 1-3.511-8.48c0-3.204 1.247-6.214 3.511-8.48a11.915 11.915 0 0 1 8.48-3.511c1.402 0 2.768.24 4.048.697l1.972-1.971a14.578 14.578 0 0 0-6.022-1.3 14.534 14.534 0 0 0-10.3 4.268C8.453 18.34 7.899 26.21 11.86 31.89L9.246 34.5l3.64 3.64 2.611-2.61a14.536 14.536 0 0 0 8.32 2.609c2.915 0 5.83-.87 8.322-2.609l2.61 2.61 3.64-3.64h.005Z"/><path fill="#F75F15" d="M35.402 11.99 34.79 9l-2.827 2.827-2.826 2.826.305 1.496-4.942 4.943a2.573 2.573 0 1 0 1.802 1.797l4.94-4.94 1.496.305 2.826-2.826 2.827-2.827-2.99-.61Z"/></svg>