<svg xmlns="http://www.w3.org/2000/svg" width="64" height="64" fill="none"><rect width="61" height="61" x="1.5" y="1.5" fill="#FF671D" fill-opacity=".15" stroke="#F75F15" stroke-width="3" rx="6.5"/><path fill="#F75F15" d="M16.968 16.605a3.635 3.635 0 0 0-3.635 3.635v28.123a3.635 3.635 0 0 0 3.635 3.635h31.274a3.635 3.635 0 0 0 3.635-3.635V20.24a3.635 3.635 0 0 0-3.635-3.634h-1.274v2.303a2.79 2.79 0 0 1-2.787 2.788 2.794 2.794 0 0 1-2.787-2.788v-2.303H23.817v2.303a2.79 2.79 0 0 1-2.787 2.788 2.794 2.794 0 0 1-2.788-2.788v-2.303h-1.274Zm2.304 10.183h26.667c.806 0 1.456.587 1.456 1.315V46.32c0 .728-.65 1.316-1.456 1.316H19.272c-.806 0-1.456-.587-1.456-1.316V28.103c0-.728.65-1.316 1.456-1.316Z"/><path fill="#F75F15" d="M19.698 13.331v5.58c0 .738.598 1.336 1.332 1.336.733 0 1.33-.598 1.33-1.336v-5.58a1.33 1.33 0 1 0-2.662 0ZM42.85 13.331v5.58c0 .738.598 1.336 1.331 1.336s1.331-.598 1.331-1.336v-5.58a1.33 1.33 0 1 0-2.662 0ZM27.426 29.063h-7.057v7.217h7.057v-7.218ZM36.308 29.063H29.25v7.217h7.057v-7.218ZM27.426 37.934h-7.057v7.218h7.057v-7.218ZM36.308 37.934H29.25v7.218h7.057v-7.218ZM45.517 29.063h-7.056v7.217h7.056v-7.218ZM45.517 37.934h-7.056v7.218h7.056v-7.218Z"/></svg>