<svg xmlns="http://www.w3.org/2000/svg" width="48" height="48" fill="none"><rect width="45" height="45" x="1.5" y="1.5" fill="#64C9FD" fill-opacity=".15" stroke="#64C9FD" stroke-width="3" rx="6.5"/><path fill="#64C9FD" d="M38.708 37.86H10l9.558-20.385 5.757 4.232L32.823 10l5.885 27.86Zm-10.525-4.404h.06c.71 0 1.395-.273 1.906-.766a2.498 2.498 0 0 0 .819-1.884 2.295 2.295 0 0 0-.79-1.81 2.408 2.408 0 0 0-1.638-.705h-.047c-.08 0-.162.01-.238.033l1.516-2.253-1.207-.842-.572.842-1.46 2.231c-.252.37-.46.697-.591.923-.135.24-.252.49-.348.747a2.477 2.477 0 0 0 .04 1.878c.14.321.347.608.604.846a2.71 2.71 0 0 0 1.888.766l.056-.004.002-.002Zm-6.418-2.424 1.674 2.366h1.788l-1.968-2.746 1.747-2.426-1.16-.803-.513.676-1.572 2.216v-4.456l-1.566-1.278v8.815h1.566V31.03h.002l.002.003Zm6.42.95a1.15 1.15 0 0 1-.815-1.967 1.15 1.15 0 0 1 .815-.338h.01a1.114 1.114 0 0 1 .811.347 1.089 1.089 0 0 1 .347.8 1.17 1.17 0 0 1-1.168 1.156v.002Z"/></svg>