<svg xmlns="http://www.w3.org/2000/svg" width="100" height="50" viewBox="0 0 100 50" fill="none"><path fill="#000" fill-rule="evenodd" d="M26.496 19.781h1.463l4.619 7.408V19.78h1.176v9.144h-1.388l-4.687-7.4v7.4h-1.183v-9.144Zm11.874 0h6.667v1.12h-5.46v2.777h5.049v1.058h-5.048v3.1h5.552v1.09h-6.76V19.78Zm17.588 1.09v-1.09h-7.42v1.09h3.082v8.054h1.257v-8.054h3.081Zm7.194 6.996c.419 0 .763-.044 1.033-.13.481-.163.875-.474 1.182-.934.245-.37.422-.843.53-1.42.062-.344.093-.664.093-.958 0-1.133-.225-2.013-.675-2.64-.45-.626-1.176-.94-2.176-.94h-2.197v7.022h2.21Zm-3.455-8.086H63.4c1.258 0 2.233.446 2.926 1.338.618.806.927 1.837.927 3.094 0 .971-.182 1.849-.547 2.633-.644 1.386-1.75 2.08-3.318 2.08h-3.691V19.78Zm15.005 1.357 1.388 4.04h-2.863l1.475-4.04Zm.753-1.357h-1.4l-3.443 9.144h1.27l.99-2.739h3.616l.928 2.74h1.357l-3.318-9.145Zm12.708 0v1.09h-3.081v8.054h-1.257v-8.054h-3.082v-1.09h7.42Zm6.048 1.357 1.388 4.04h-2.863l1.475-4.04Zm.753-1.357h-1.4l-3.443 9.144h1.27l.99-2.739h3.616l.928 2.74h1.357l-3.318-9.145Z" clip-rule="evenodd"/><path fill="#00AB44" fill-rule="evenodd" d="M12.762 32.529H8.905L1 17.39h11.221c4.363.008 7.899 3.516 7.901 7.843-.007 4.033-3.299 7.295-7.36 7.295Z" clip-rule="evenodd"/></svg>