<svg xmlns="http://www.w3.org/2000/svg" width="100" height="50" viewBox="0 0 100 50" fill="none"><path fill="#252F3E" d="M39.08 21.102a5.002 5.002 0 0 0 .19 1.5c.147.42.328.828.54 1.22a.73.73 0 0 1 .12.38.67.67 0 0 1-.32.51l-1.07.71a.67.67 0 0 1-.94-.09 5.57 5.57 0 0 1-.61-.79c-.16-.29-.33-.61-.52-1a6.198 6.198 0 0 1-5 2.32 4.59 4.59 0 0 1-3.37-1.21 4.32 4.32 0 0 1-1.2-3.23 4.34 4.34 0 0 1 1.54-3.42 6.13 6.13 0 0 1 4.12-1.36 14.01 14.01 0 0 1 1.79.13c.62.09 1.26.22 1.94.37v-1.23a3.73 3.73 0 0 0-.79-2.69 3.85 3.85 0 0 0-2.75-.78c-.612 0-1.223.074-1.82.22-.618.149-1.226.34-1.82.57-.19.088-.387.162-.59.22a.816.816 0 0 1-.27 0c-.25.05-.35-.11-.35-.45v-.84a1.1 1.1 0 0 1 .1-.59c.131-.156.295-.279.48-.36.677-.331 1.388-.586 2.12-.76a10.142 10.142 0 0 1 2.63-.32 6.15 6.15 0 0 1 4.42 1.37 5.563 5.563 0 0 1 1.4 4.14v5.46h.03Zm-6.84 2.56a5.538 5.538 0 0 0 1.74-.3 3.71 3.71 0 0 0 1.6-1.08c.273-.31.469-.68.57-1.08.117-.478.174-.969.17-1.46v-.74a14.226 14.226 0 0 0-1.55-.29 14.287 14.287 0 0 0-1.58-.1 3.841 3.841 0 0 0-2.51.68 2.32 2.32 0 0 0-.83 1.93 2.35 2.35 0 0 0 .62 1.78 2.36 2.36 0 0 0 1.77.66Zm13.53 1.82a.94.94 0 0 1-.64-.17 1.37 1.37 0 0 1-.35-.65l-4-13a2.867 2.867 0 0 1-.11-.66c0-.27.13-.42.4-.42h1.65a.94.94 0 0 1 .66.17c.175.179.293.405.34.65l2.83 11.16 2.63-11.2c.033-.246.145-.475.32-.65.202-.124.435-.184.67-.17h1.35a1 1 0 0 1 .67.17 1 1 0 0 1 .32.65l2.67 11.29 2.91-11.29c.055-.243.172-.467.34-.65a1.08 1.08 0 0 1 .65-.17h1.57a.37.37 0 0 1 .42.42c.01.09.01.18 0 .27a2.638 2.638 0 0 1-.12.42l-4.06 13a1.31 1.31 0 0 1-.35.66 1.11 1.11 0 0 1-.64.17h-1.48a1 1 0 0 1-.68-.17 1.26 1.26 0 0 1-.32-.67l-2.61-10.85-2.59 10.85c-.04.249-.151.48-.32.67a1 1 0 0 1-.68.17h-1.45Zm21.65.46c-.871 0-1.74-.1-2.59-.3a8.17 8.17 0 0 1-1.94-.64 1.22 1.22 0 0 1-.52-.47 1.141 1.141 0 0 1-.1-.47v-.86c0-.36.13-.52.39-.52.1-.02.202-.02.3 0l.42.16a8.51 8.51 0 0 0 1.85.59 9.877 9.877 0 0 0 2 .21 4.549 4.549 0 0 0 2.46-.56 1.819 1.819 0 0 0 .88-1.6 1.66 1.66 0 0 0-.46-1.18 4.24 4.24 0 0 0-1.7-.88l-2.41-.74a5.17 5.17 0 0 1-2.72-1.68 4 4 0 0 1-.84-2.45 3.802 3.802 0 0 1 .45-1.87c.307-.54.723-1.01 1.22-1.38a5.324 5.324 0 0 1 1.75-.87 7.053 7.053 0 0 1 2.14-.33c.379-.002.756.021 1.13.07.39.05.74.12 1.09.18.35.06.66.17 1 .27.246.074.481.178.7.31a1.4 1.4 0 0 1 .51.42.9.9 0 0 1 .15.55v.79c0 .36-.13.54-.39.54a1.679 1.679 0 0 1-.69-.23 7.68 7.68 0 0 0-3.23-.66 4.341 4.341 0 0 0-2.27.51 1.62 1.62 0 0 0-.8 1.5 1.57 1.57 0 0 0 .51 1.19c.548.432 1.177.749 1.85.93l2.4.76a5.12 5.12 0 0 1 2.64 1.61c.51.68.781 1.51.77 2.36a4.278 4.278 0 0 1-.44 2 4.378 4.378 0 0 1-1.23 1.48 5.227 5.227 0 0 1-1.87.94 7.847 7.847 0 0 1-2.41.32Z"/><path fill="#F90" fill-rule="evenodd" d="M70.61 34.129c-5.54 4.09-13.6 6.26-20.52 6.26A37.11 37.11 0 0 1 25 30.839c-.52-.47-.05-1.11.57-.74a50.62 50.62 0 0 0 25.08 6.66 50.18 50.18 0 0 0 19.15-3.91c.93-.42 1.72.6.81 1.28Z" clip-rule="evenodd"/><path fill="#F90" fill-rule="evenodd" d="M72.92 31.5c-.71-.91-4.69-.44-6.49-.22-.54.07-.62-.4-.13-.76 3.16-2.22 8.37-1.58 9-.84.63.74-.17 6-3.14 8.46-.45.38-.89.18-.69-.32.66-1.67 2.16-5.43 1.45-6.32Z" clip-rule="evenodd"/></svg>