<svg xmlns="http://www.w3.org/2000/svg" width="209" height="24" fill="none"><path fill="#F75F15" d="M30.062 5.382a6.014 6.014 0 0 0-3.303-.903 5.407 5.407 0 0 0-2.984.795V.457h-3.348v17.565h2.936v-.757c.093.073.185.142.28.209.88.612 1.978.916 3.291.913a5.613 5.613 0 0 0 3.192-.913 6.197 6.197 0 0 0 2.136-2.488 7.98 7.98 0 0 0 .762-3.549 7.974 7.974 0 0 0-.775-3.577 6.093 6.093 0 0 0-2.187-2.475v-.003Zm-.896 8.07a3.159 3.159 0 0 1-1.014 1.446 2.757 2.757 0 0 1-1.76.535 2.864 2.864 0 0 1-1.779-.5 2.745 2.745 0 0 1-.956-1.404 6.77 6.77 0 0 1-.294-2.098 6.77 6.77 0 0 1 .294-2.098c.162-.551.49-1.04.934-1.403a2.655 2.655 0 0 1 1.674-.501 2.916 2.916 0 0 1 1.827.545c.484.374.851.878 1.058 1.451.236.643.354 1.322.345 2.006a5.88 5.88 0 0 1-.329 2.019v.003Zm14.58-2.401a10.106 10.106 0 0 0-2.416-.91 41.097 41.097 0 0 1-2.293-.633 2.787 2.787 0 0 1-.991-.476.745.745 0 0 1-.24-.57c0-.184.049-.365.147-.52a.97.97 0 0 1 .408-.358c.46-.219.97-.3 1.474-.238.535.016 1.055.19 1.492.498.181.14.331.314.44.513.108.2.175.419.197.647l3.402-.612a4.062 4.062 0 0 0-.911-2.072 4.822 4.822 0 0 0-1.942-1.357 7.415 7.415 0 0 0-2.752-.478 7.029 7.029 0 0 0-2.783.507 4.156 4.156 0 0 0-1.827 1.432c-.44.65-.67 1.42-.648 2.203-.019.602.131 1.2.428 1.723.344.53.826.954 1.396 1.227.823.405 1.687.72 2.583.928.956.238 1.658.457 2.11.609.326.085.625.247.874.478.137.18.208.403.198.63.01.19-.032.378-.115.546a1.115 1.115 0 0 1-.363.425 2.396 2.396 0 0 1-1.394.348 2.976 2.976 0 0 1-1.814-.526 2.38 2.38 0 0 1-.925-1.455l-3.398.514c.08.63.283 1.236.605 1.784a4.71 4.71 0 0 0 1.26 1.404c1.02.754 2.366 1.131 4.03 1.128 1.728 0 3.083-.387 4.068-1.157.986-.77 1.473-1.835 1.47-3.184a3.412 3.412 0 0 0-.417-1.75 3.4 3.4 0 0 0-1.346-1.242l-.006-.006Zm13.057-5.584a6.2 6.2 0 0 0-3.536-.976 6.728 6.728 0 0 0-3.462.884 6.269 6.269 0 0 0-2.363 2.482 7.885 7.885 0 0 0-.858 3.758 6.927 6.927 0 0 0 .877 3.508 6.328 6.328 0 0 0 2.42 2.405c1.1.599 2.337.897 3.59.871a6.536 6.536 0 0 0 3.517-.998 5.823 5.823 0 0 0 2.356-2.804l-3.328-.954a2.75 2.75 0 0 1-1.065 1.233 3.164 3.164 0 0 1-1.674.427c-1.036 0-1.82-.336-2.353-1.007a3.866 3.866 0 0 1-.743-1.924h9.275c.137-1.59-.022-2.975-.478-4.157A5.732 5.732 0 0 0 56.8 5.47l.003-.004Zm-6.542 4.44a3.683 3.683 0 0 1 .653-1.505c.536-.688 1.368-1.03 2.503-1.03.97 0 1.668.295 2.098.884.319.497.513 1.065.564 1.65h-5.818Zm17.552-5.08a5.787 5.787 0 0 0-1.16.206 4.16 4.16 0 0 0-1.04.457 3.589 3.589 0 0 0-1.052.928 4.353 4.353 0 0 0-.367.56V4.857h-2.937v13.176h3.348v-6.734a4.175 4.175 0 0 1 .207-1.36c.131-.386.338-.744.613-1.048.277-.305.615-.545.991-.716a3.65 3.65 0 0 1 1.317-.333c.43-.045.864-.003 1.278.114V4.849a6.525 6.525 0 0 0-1.192-.034v.01l-.006.002Zm11.778.029-3.138 9.117-3.13-9.127h-3.33l4.786 13.176h3.348l4.786-13.176-3.322.01ZM93.964 6.88a3.876 3.876 0 0 0-2.057-1.854A8.385 8.385 0 0 0 88.8 4.49c-1.595 0-2.85.343-3.769 1.024a5.09 5.09 0 0 0-1.884 2.659l3.01.953a2.075 2.075 0 0 1 1.116-1.258 3.751 3.751 0 0 1 1.527-.351c.88 0 1.508.183 1.88.548.317.342.508.78.537 1.245l-1.601.238c-.858.123-1.623.256-2.299.396-.593.117-1.18.276-1.75.478a5.007 5.007 0 0 0-1.693.97 3.37 3.37 0 0 0-.912 1.337c-.195.536-.29 1.1-.284 1.67-.006.7.166 1.391.507 2.006.35.615.867 1.119 1.492 1.451.74.38 1.562.568 2.391.542a6.021 6.021 0 0 0 2.832-.592 5.754 5.754 0 0 0 1.674-1.394v1.619h2.91V9.986c0-.602-.025-1.147-.073-1.635a3.977 3.977 0 0 0-.453-1.48v.01h.007Zm-2.81 5.9c-.018.43-.12.856-.299 1.248a3.485 3.485 0 0 1-1.511 1.432 3.383 3.383 0 0 1-1.546.324c-.338.01-.676-.05-.992-.171a1.388 1.388 0 0 1-.64-.494 1.308 1.308 0 0 1-.227-.774c0-.209.044-.415.14-.598.108-.197.258-.365.44-.495.242-.174.51-.314.79-.421.323-.12.654-.216.992-.295.376-.092.867-.187 1.48-.298.392-.073.864-.152 1.412-.238-.006.216-.019.473-.035.767v.01l-.003.003Zm14.786-7.396a6.01 6.01 0 0 0-3.304-.903 5.406 5.406 0 0 0-2.984.795V.457h-3.351v17.565h2.936v-.757c.093.073.185.142.284.209.88.612 1.977.916 3.291.913a5.618 5.618 0 0 0 3.194-.913 6.178 6.178 0 0 0 2.133-2.488 8.028 8.028 0 0 0 .766-3.549 7.988 7.988 0 0 0-.778-3.577 6.1 6.1 0 0 0-2.187-2.475Zm-.893 8.074a3.145 3.145 0 0 1-1.017 1.445 2.758 2.758 0 0 1-1.76.536 2.882 2.882 0 0 1-1.779-.501 2.74 2.74 0 0 1-.957-1.404 6.77 6.77 0 0 1-.293-2.098 6.77 6.77 0 0 1 .293-2.097c.163-.552.488-1.04.934-1.404a2.657 2.657 0 0 1 1.674-.5 2.915 2.915 0 0 1 1.827.544c.485.374.855.878 1.059 1.452a5.69 5.69 0 0 1 .341 2.005 5.88 5.88 0 0 1-.325 2.016l.003.006Zm5.544-10.435h3.329V.09h-3.329V3.024Zm0 15.005h3.329V4.849h-3.329v13.18Zm5.647 0h3.329V.089h-3.329v17.94Zm5.755-15.005h3.332V.09h-3.329l-.006 2.928.003.006Zm0 15.005h3.332V4.849h-3.329l-.006 13.176.003.004Zm10.528-16.84h-3.329v3.66h-2.251v2.564h2.251v5.026c0 .789 0 1.492.026 2.117a4.09 4.09 0 0 0 .51 1.837c.348.631.902 1.125 1.572 1.395a6.478 6.478 0 0 0 2.35.465 12.75 12.75 0 0 0 2.688-.228V15.27c-.711.104-1.435.136-2.153.098a1.675 1.675 0 0 1-1.406-.754 1.928 1.928 0 0 1-.239-.98 47.602 47.602 0 0 1-.019-1.384v-4.83h3.829V4.85h-3.829V1.19Zm15.298 3.66-3.447 8.968-3.459-8.97h-3.45l5.328 13.074-2.171 5.964h3.083l7.461-19.032h-3.345v-.004ZM205.758 14.916V.586l2.369-.012v17.492h-2.356l-12.62-14.345v14.345h-2.356V.574h2.356l12.607 14.342Z"/><path fill="#F75F15" fill-rule="evenodd" d="M164.478.687a9.354 9.354 0 0 1 4.569 3.78l-1.932 1.189a7.027 7.027 0 0 0-5.988-3.334c-3.877 0-7.021 3.125-7.021 6.978 0 3.853 3.144 6.978 7.021 6.978a7.027 7.027 0 0 0 6.02-3.384l2.002 1.194a9.22 9.22 0 0 1-4.489 3.825 9.306 9.306 0 0 1-5.911.333 9.373 9.373 0 0 1-4.933-3.296 9.28 9.28 0 0 1-1.945-5.587 9.176 9.176 0 0 1 1.83-5.602 9.234 9.234 0 0 1 4.863-3.346 9.325 9.325 0 0 1 5.917.272h-.003ZM184.557 17.205c4.358-2.678 5.691-8.382 2.981-12.739-2.71-4.357-8.44-5.716-12.798-3.039-4.359 2.678-5.692 8.382-2.982 12.739 2.711 4.357 8.44 5.716 12.799 3.039Zm-4.942-.929c3.877 0 7.021-3.124 7.021-6.977 0-3.854-3.144-6.978-7.021-6.978s-7.021 3.124-7.021 6.978c0 3.853 3.144 6.977 7.021 6.977ZM9.33 0C4.176 0 0 4.151 0 9.272c0 5.12 4.177 9.272 9.33 9.272 5.152 0 9.329-4.151 9.329-9.272 0-5.12-4.177-9.272-9.33-9.272Zm0 15.077c-3.224 0-5.839-2.598-5.839-5.802 0-3.204 2.615-5.805 5.838-5.805 3.224 0 5.838 2.598 5.838 5.802 0 3.204-2.614 5.802-5.838 5.802v.003Z" clip-rule="evenodd"/></svg>