<svg xmlns="http://www.w3.org/2000/svg" width="100" height="50" viewBox="0 0 100 50"><path d="M22.3 17.5c-.2.4-.7.5-1.1.3l-12-6.5c-.4-.2-.5-.7-.3-1.1.2-.4.7-.5 1.1-.3l12 6.5c.4.3.6.7.3 1.1Zm-3.1 1.9c-.2.4-.7.5-1.1.3l-12-6.5c-.4-.2-.5-.7-.3-1.1.2-.4.7-.5 1.1-.3l12 6.5c.3.3.5.7.3 1.1Zm-3.2 2c-.2.4-.7.5-1.1.3L2.7 15c-.4-.2-.5-.7-.3-1.1.2-.4.7-.5 1.1-.3l12.2 6.7c.3.2.5.7.3 1.1ZM22.6 19.5c.2.4.1.9-.3 1.1l-10.2 5.9c-.4.2-.9.1-1.1-.3-.2-.4-.1-.9.3-1.1l10.2-5.9c.4-.2.9-.1 1.1.3Zm0 3.7c.2.4.1.9-.3 1.1l-10.2 5.9c-.4.2-.9.1-1.1-.3-.2-.4-.1-.9.3-1.1l10.2-5.9c.4-.2.9-.1 1.1.3Zm0 3.7c.2.4.1.9-.3 1.1l-10.2 5.9c-.4.2-.9.1-1.1-.3-.2-.4-.1-.9.3-1.1l10.2-5.9c.4-.2.9 0 1.1.3ZM2.9 16c.4 0 .8.3.8.8l.1 19c0 .4-.3.8-.8.8s-.8-.3-.8-.8l-.1-19c0-.4.4-.8.8-.8Zm3.2 1.9c.4 0 .8.3.8.8l.1 19c0 .4-.3.8-.8.8-.4 0-.8-.3-.8-.8l-.1-19c.1-.5.4-.8.8-.8Zm3.3 1.8c.4 0 .8.3.8.8l.1 18.9c0 .4-.3.8-.8.8-.4 0-.8-.3-.8-.8l-.1-18.9c0-.4.3-.7.8-.8Z" style="fill:#fd1f8a;fill-rule:evenodd"/><path d="M32.2 20.1h-2.5v14.4h2.5V30l.9.6c.7.3 1.4.4 2.2.4 1 0 2-.2 2.8-.7s1.5-1.2 2-2 .7-1.8.7-2.8-.2-2-.7-2.8c-.5-.9-1.1-1.5-2-2-.8-.5-1.8-.7-2.8-.7-.8 0-1.6.2-2.2.5-.3.2-.7.4-1 .6v-1h.1Zm5.6 7c-.2.5-.6.8-1 1.1-.4.3-.9.4-1.5.4s-1.1-.1-1.5-.4c-.5-.3-.8-.6-1.1-1.1s-.4-1-.4-1.6.1-1.1.4-1.6c.3-.5.6-.9 1.1-1.1.5-.3 1-.4 1.5-.4.6 0 1.1.1 1.5.4s.8.6 1.1 1.1.4 1 .4 1.6c-.1.5-.2 1.1-.5 1.6Zm4.4-.4c0 .8.2 1.6.5 2.2.4.7.9 1.2 1.5 1.5.6.4 1.4.5 2.2.5.7 0 1.3-.1 1.9-.4.2-.1.5-.3.6-.4v.6h2.5V20.1h-2.6v6.3c0 .7-.2 1.3-.6 1.6-.4.4-.9.6-1.5.6s-1.1-.2-1.5-.6-.6-.9-.6-1.5v-6.4h-2.5l.1 6.6Zm13.7-10.6h-2.5v14.7h2.5V16.1Zm6.1 6.4-5.1 6.3v2h8.8v-2.4h-5.1l5.1-6.3v-2h-8.4v2.4H62Zm4.9 5.8c.5.8 1.1 1.5 2 2 .8.5 1.8.7 2.8.7 1.1 0 2-.2 2.9-.8.8-.5 1.5-1.1 1.8-1.9l.2-.3-2.1-1.1-.2.3c-.6 1-1.4 1.5-2.5 1.5-.5 0-1-.1-1.4-.3-.4-.2-.8-.5-1-1-.2-.3-.3-.6-.4-1h7.7l.1-.3c.1-.4.1-.7.1-1 0-.9-.2-1.7-.6-2.5s-1-1.4-1.8-1.9-1.7-.7-2.7-.7-1.9.2-2.7.7c-.8.5-1.4 1.1-1.9 2-.5.8-.7 1.8-.7 2.8-.4.9-.1 1.9.4 2.8Zm6.3-5.5c.4.3.6.8.7 1.2h-5c.2-.5.4-.9.8-1.3.5-.4 1.1-.6 1.8-.6.7.1 1.3.3 1.7.7Zm6 7.6c.3.3.7.4 1.1.4s.8-.1 1-.4c.3-.3.4-.6.4-1s-.1-.8-.4-1c-.3-.3-.6-.4-1-.4s-.8.1-1 .4c-.3.3-.4.6-.4 1-.1.3 0 .7.3 1Zm1.8-.3.3.3-.3-.3Zm3.9 0c.7.6 1.6.9 2.7.9.8 0 1.5-.1 2.1-.4.3-.1.6-.3.9-.5v.8h2.5v-7.1c0-.7-.2-1.4-.6-2s-.9-1-1.6-1.3-1.4-.5-2.2-.5c-1 0-1.9.2-2.7.7-.8.5-1.4 1.1-1.8 1.9l-.1.3 2.2 1.1.2-.4c.2-.4.5-.7.8-1 .4-.3.8-.4 1.3-.4.6 0 1 .2 1.4.4.3.3.5.6.5 1v.1l-3.2.5c-1.2.2-2.1.6-2.7 1.2s-.9 1.4-.9 2.3c.1 1 .4 1.8 1.2 2.4Zm5.3-2.6c-.2.4-.6.7-1 .9-.4.2-.9.3-1.5.3-.4 0-.8-.1-1-.3-.2-.2-.3-.4-.3-.7 0-.4.1-.6.3-.8.2-.2.6-.4 1.2-.5l2.6-.4v.2c.1.5 0 .9-.3 1.3Zm7.4-7.4h-2.5v10.7h2.5V20.1Zm-2.3-3.3c-.3.3-.4.6-.4 1.1 0 .4.1.8.4 1.1.3.3.7.4 1.1.4s.8-.1 1.1-.4c.3-.3.4-.6.4-1.1 0-.4-.1-.8-.4-1.1-.3-.3-.7-.4-1.1-.4s-.8.1-1.1.4Z" style="fill:#1e2129;fill-rule:evenodd"/></svg>