<svg xmlns="http://www.w3.org/2000/svg" width="100" height="50" viewBox="0 0 100 50" fill="none"><path fill="#231F1F" d="M31.543 30.486c-2.746 0-4.451-1.994-4.451-5.199 0-3.086 1.79-5.162 4.45-5.162 2.597 0 4.41 1.943 4.41 4.727v1.15h-6.478v.765c0 1.17.857 1.99 2.089 1.99 1.1 0 1.868-.619 2.018-1.619h2.28c-.347 2.1-1.953 3.348-4.318 3.348Zm0-8.632c-1.181 0-2.07.847-2.07 1.97v.449h4.139v-.45c0-1.122-.889-1.97-2.07-1.97ZM49.496 30.248v-6.33c0-1.306-.517-1.97-1.534-1.97-1.239 0-2.07 1.031-2.07 2.563v5.733H43.61v-6.329c0-1.306-.517-1.97-1.534-1.97-1.239 0-2.07 1.031-2.07 2.562v5.734h-2.282v-9.882h2.283v1.412c.595-1.109 1.657-1.65 2.879-1.65 1.36 0 2.307.626 2.736 1.814l.071.2.099-.187c.643-1.228 1.62-1.827 2.98-1.827 1.94 0 3.008 1.286 3.008 3.62v6.507h-2.283ZM59.086 30.485c-1.236 0-2.226-.537-2.865-1.555l-.174-.276v1.596h-2.283V17h2.283v4.954l.174-.275c.64-1.018 1.63-1.555 2.865-1.555 1.255 0 2.239.503 2.923 1.5.622.909.952 2.182.952 3.682s-.33 2.773-.952 3.682c-.684.994-1.668 1.497-2.923 1.497Zm-.67-8.633c-1.525 0-2.366.96-2.366 2.702v1.5c0 1.743.84 2.703 2.365 2.703 1.338 0 2.168-.78 2.168-2.029v-2.844c0-1.256-.83-2.032-2.168-2.032ZM73.574 30.486c-.871 0-1.637-.293-2.208-.844-.575-.555-.882-1.303-.882-2.164 0-1.688 1.263-2.886 3.213-3.049l2.871-.245v-.738c0-1.045-.578-1.596-1.674-1.596-1.068 0-1.745.54-1.79 1.422h-2.28c.12-1.946 1.709-3.15 4.17-3.15 2.425 0 3.817 1.224 3.817 3.364v6.762h-2.025v-1.562h-.071c-.61 1.177-1.76 1.8-3.14 1.8Zm-.068-4.345c-.429.044-.64.285-.64.745v.87c0 .62.603 1.001 1.576 1.001 1.252 0 2.127-.98 2.127-2.385v-.497l-3.063.266ZM84.897 30.486c-2.8 0-4.471-1.915-4.471-5.12 0-3.233 1.698-5.241 4.43-5.241 1.83 0 3.859.909 4.107 3.447H86.68c-.15-1.157-.78-1.718-1.92-1.718-.897 0-1.949.54-1.949 2.069v2.766c0 1.239.793 2.069 1.97 2.069 1.212 0 1.81-.538 1.98-1.797h2.284c-.255 2.209-1.797 3.526-4.148 3.526ZM94.59 30.486c-2.746 0-4.451-1.994-4.451-5.199 0-3.086 1.79-5.162 4.45-5.162 2.597 0 4.41 1.943 4.41 4.727v1.15h-6.478v.765c0 1.17.857 1.99 2.089 1.99 1.099 0 1.865-.619 2.018-1.619h2.28c-.344 2.1-1.95 3.348-4.319 3.348Zm0-8.632c-1.181 0-2.07.847-2.07 1.97v.449h4.138v-.45c0-1.122-.888-1.97-2.069-1.97ZM64.434 30.248v-9.889h2.249v1.144c.003-.01.507-1.103 1.606-1.144h1.589v1.75h-3.161v8.139h-2.283ZM8.779 20.57v-3.203h-3.89v.004L1 21.25v7.762h.003l3.886 3.882v-.003h3.89v-3.199h-4.57v-9.123h4.57ZM14.61 20.57v-3.203h3.885v.004l3.89 3.879v7.762l-3.89 3.882v-.003H14.61v-3.199h4.57v-9.123h-4.57Z"/><path fill="#231F1F" d="M14.812 27.488a2.351 2.351 0 1 0 0-4.703 2.351 2.351 0 0 0 0 4.703ZM8.576 27.484a2.351 2.351 0 1 0 0-4.703 2.351 2.351 0 0 0 0 4.703Z"/></svg>