<?xml version="1.0" encoding="utf-8"?>
<!-- Generator: Adobe Illustrator 19.0.1, SVG Export Plug-In . SVG Version: 6.00 Build 0)  -->
<!DOCTYPE svg PUBLIC "-//W3C//DTD SVG 1.1//EN" "http://www.w3.org/Graphics/SVG/1.1/DTD/svg11.dtd">
<svg version="1.1" id="Layer_1" xmlns="http://www.w3.org/2000/svg" xmlns:xlink="http://www.w3.org/1999/xlink" x="0px" y="0px"
	 width="500px" height="400px" viewBox="0 0 500 400" style="enable-background:new 0 0 500 400;" xml:space="preserve">
<style type="text/css">
	.st0{fill:#C65000;}
	.st1{fill:#F46800;}
	.st2{fill:#FFFFFF;}
</style>
<polygon class="st0" points="5,336.2 46.9,71.7 480.9,3 491.9,14 431.7,394.2 "/>
<polygon class="st1" points="5,336.2 35.9,60.7 480.9,3 422.7,377.2 "/>
<g>
	<g>
		<path class="st2" d="M120.8,180.4l-18.2,2.2l-16.3-40.9l-4,0.5v-13.3l29.9-3.5v13.3l-4.3,0.5l6.8,23.2l8.6-25l-4.3,0.5v-13.3
			l25.2-3v13.3l-4.3,0.5l8.8,22.9l6.9-24.8l-4.2,0.5v-13.3l23.3-2.8v13.3l-4,0.5l-16.4,44.8l-17.9,2.1l-7.8-20.5L120.8,180.4z"/>
		<path class="st2" d="M232.6,166.7l-55.1,6.5v-13.3l4.5-0.5v-29l-4.6,0.5v-13.3l55.2-6.5v17.8l-15.2,1.8v-4.5l-13.1,1.6v8.6
			l11.4-1.4v11.3l-11.4,1.4v9.1l13.1-1.6v-4.5l15.2-1.8V166.7z"/>
		<path class="st2" d="M236.6,141.3v-7.8c2.2-0.3,3.9-0.8,5.1-1.6c1.2-0.8,1.9-1.7,2.2-2.5c0.3-0.9,0.5-2.6,0.5-5.1l-7.7,0.9v-14.6
			l20.7-2.5v12.5c0,4.5-0.2,7.5-0.5,9.2c-0.3,1.7-1.3,3.5-2.9,5.2c-1.6,1.8-3.5,3.1-5.9,4S241.9,140.7,236.6,141.3z"/>
		<path class="st2" d="M293,159.6l-31.4,3.7V150l4.7-0.6v-29l-4.7,0.6v-13.3l31.4-3.7c2.8-0.3,5.4-0.6,7.8-0.8
			c2.4-0.2,4.5-0.3,6.2-0.3c1.7,0,3.3,0,4.7,0.1c4,0.3,7.3,1.8,9.8,4.2c2.5,2.5,3.8,5.7,3.8,9.6c0,2.9-0.8,5.6-2.3,8.1
			c-1.6,2.5-3.6,4.5-6.1,5.8l8,11.8l4.2-0.5v13.3l-20.8,2.5l-12.6-21.3l-7.1,0.8v9.4l4.4-0.5V159.6z M288.6,116.6v10.6l2.5-0.3
			c3.3-0.4,5.5-0.7,6.6-1.1c1.2-0.3,2.3-1,3.2-2c0.9-0.9,1.3-2.1,1.3-3.6c0-1.4-0.4-2.5-1.3-3.3c-0.9-0.8-2-1.2-3.3-1.2
			c-1.3,0-3.6,0.1-7,0.5L288.6,116.6z"/>
		<path class="st2" d="M387.6,148.4l-55.1,6.5v-13.3l4.5-0.5v-29l-4.6,0.5V99.2l55.2-6.5v17.8l-15.2,1.8v-4.5l-13.1,1.6v8.6
			l11.4-1.4v11.3l-11.4,1.4v9.1l13.1-1.6v-4.5l15.2-1.8V148.4z"/>
	</g>
	<g>
		<path class="st2" d="M113.3,243.5l-27.8,3.3v-12.2l4-0.5v-26.6l-4.1,0.5v-12.2l27.9-3.3v12.2l-3.4,0.4v7.8l12.2-1.4v-7.8l-3.4,0.4
			v-12.2l27.9-3.3v12.2l-4,0.5v26.6l4-0.5v12.2l-27.9,3.3v-12.2l3.4-0.4v-8.4l-12.2,1.4v8.4l3.4-0.4V243.5z"/>
		<path class="st2" d="M179.4,235.7l-30.1,3.6V227l4.9-0.6v-26.6l-4.9,0.6v-12.2l30.1-3.6v12.2l-4.8,0.6V224l4.8-0.6V235.7z"/>
		<path class="st2" d="M210.3,232l-28.7,3.4v-12.2l4.3-0.5v-26.6l-4.3,0.5v-12.2l28.7-3.4c2.6-0.3,5-0.5,7.2-0.7
			c2.2-0.2,4.1-0.3,5.7-0.3c1.6,0,3,0,4.3,0.1c3.7,0.3,6.7,1.6,9,3.9c2.3,2.3,3.5,5.2,3.5,8.7c0,2.6-0.7,5.1-2.1,7.4
			c-1.4,2.3-3.3,4.1-5.6,5.4l7.3,10.8l3.8-0.5V228l-19,2.3l-11.5-19.5l-6.5,0.8v8.6l4-0.5V232z M206.3,192.6v9.7l2.3-0.3
			c3-0.4,5-0.7,6.1-1c1.1-0.3,2.1-0.9,2.9-1.8c0.8-0.9,1.2-1.9,1.2-3.3s-0.4-2.3-1.2-3c-0.8-0.7-1.8-1.1-3-1.1
			c-1.2,0-3.3,0.1-6.4,0.5L206.3,192.6z"/>
		<path class="st2" d="M275.2,224.4l-30.1,3.6v-12.2l4.9-0.6v-26.6l-4.9,0.6V177l30.1-3.6v12.2l-4.8,0.6v26.6l4.8-0.6V224.4z"/>
		<path class="st2" d="M299.4,221.7l-21.7,2.6V212l4.6-0.5v-26.6l-4.6,0.5v-12.2l25.1-3l19.2,24.4v-14.4l-4.3,0.5v-12.2L339,166
			v12.2l-4.6,0.5v39.4l-17.4,2.1L294.7,192v18l4.7-0.6V221.7z"/>
		<path class="st2" d="M378.4,194.4L373,195v-9.7l23.6-2.8c0,5.6-0.4,9.8-1.2,12.6c-0.8,2.7-2.4,5.6-4.9,8.5c-2.5,3-5.4,5.2-8.9,6.9
			c-3.5,1.6-7.2,2.7-11.3,3.2c-6,0.7-11.4,0.4-16.2-0.9c-4.9-1.3-8.7-3.9-11.3-7.9c-2.7-3.9-4-8.5-4-13.7c0-7.9,2.7-14.7,8.1-20.2
			c5.4-5.5,12-8.7,19.8-9.6c6.5-0.8,11.6,0.2,15.3,2.8v-3.6l12.7-1.5v17.8l-12.7,1.5c-1.1-2.1-2.6-3.6-4.4-4.5
			c-1.8-0.9-3.9-1.2-6.3-0.9c-3.3,0.4-5.8,1.7-7.4,4c-1.5,2.3-2.3,6.2-2.3,11.9c0,5.6,0.8,9.3,2.4,11.1c1.6,1.8,4,2.6,7.2,2.2
			C376,201.5,378.4,199,378.4,194.4z"/>
	</g>
</g>
</svg>
