<svg id="Layer_1" xmlns="http://www.w3.org/2000/svg" width="238" height="218" viewBox="-276 198 238 218"><style>.st0{fill:url(#SVGID_1_)}.st1{fill:url(#SVGID_2_)}</style><linearGradient id="SVGID_1_" gradientUnits="userSpaceOnUse" x1="-157" y1="114.53" x2="-157" y2="523.629" gradientTransform="matrix(1 0 0 -1 0 616)"><stop offset="0" stop-color="#fff200"/><stop offset="1" stop-color="#f15a29"/></linearGradient><path class="st0" d="M-156.8 414.4l-96.6-96.6c-13.1-13.1-20.3-30.5-20.3-48.9s7.2-35.8 20.3-48.9c13.1-13.1 30.5-20.3 48.9-20.3 17.9 0 34.8 6.7 47.5 18.9 12.9-12.2 29.8-18.9 47.5-18.9 18.4 0 35.8 7.2 48.9 20.3 13.1 13.1 20.3 30.5 20.3 48.9s-7.2 35.8-20.3 48.9l-96.2 96.6zm-47.5-205.6c-16.2 0-31.2 6.4-42.5 17.7-11.4 11.4-17.7 26.3-17.7 42.5s6.4 31.2 17.7 42.5l90.2 90.2 90.2-90.2C-55 300.1-48.7 285-48.7 269s-6.4-31.2-17.7-42.5c-11.4-11.4-26.5-17.7-42.5-17.7-16.2 0-31.2 6.4-42.5 17.7l-5 5-5-5c-11.8-11.5-26.9-17.7-42.9-17.7z"/><g><linearGradient id="SVGID_2_" gradientUnits="userSpaceOnUse" x1="-157.162" y1="114.53" x2="-157.162" y2="523.629" gradientTransform="matrix(1 0 0 -1 0 616)"><stop offset="0" stop-color="#fff200"/><stop offset="1" stop-color="#f15a29"/></linearGradient><path class="st1" d="M-79.3 239.1c-7.9-7.9-18.6-12.4-30-12.4-11.4 0-21.9 4.5-30 12.4l-5 5-6.4 6.4-6.4 6.4-6.4-6.4-6.4-6.4-5-5c-7.9-7.9-18.6-12.4-30-12.4-11.4 0-21.9 4.5-30 12.4-8.1 7.9-12.4 18.6-12.4 30 0 11.4 4.5 21.9 12.4 30l77.5 77.5 77.5-77.5c7.9-7.9 12.4-18.6 12.4-30 .5-11.4-3.8-22.1-11.8-30z"/></g></svg>