<svg id="Layer_1" xmlns="http://www.w3.org/2000/svg" width="238" height="218" viewBox="-276 198 238 218"><style>.st0{fill:url(#SVGID_1_)}</style><linearGradient id="SVGID_1_" gradientUnits="userSpaceOnUse" x1="-157" y1="376.314" x2="-157" y2="238.714"><stop offset="0" stop-color="#fff200"/><stop offset="1" stop-color="#f15a29"/></linearGradient><path class="st0" d="M-50.5 295.4c-5.3 0-9.8 3.7-11.1 8.6h-22.6c-1.3-5-5.8-8.6-11.1-8.6-2 0-3.9.5-5.5 1.4l-27.5-31.2c1.2-1.8 2-4 2-6.4 0-6.3-5.1-11.5-11.5-11.5-5.3 0-9.8 3.6-11.1 8.6h-20.3c-1.3-4.9-5.8-8.6-11.1-8.6s-9.8 3.6-11.1 8.6H-212c-1.3-4.9-5.8-8.6-11.1-8.6-6.3 0-11.5 5.1-11.5 11.5 0 2.4.8 4.7 2.1 6.6l-26.1 30.7c-1.5-.7-3.2-1.1-5-1.1-6.3 0-11.5 5.1-11.5 11.5 0 6.3 5.1 11.5 11.5 11.5 5.3 0 9.8-3.6 11.1-8.5h18.3c1.3 4.9 5.8 8.5 11.1 8.5 1.9 0 3.8-.5 5.4-1.3l27.9 31.4c-1.2 1.8-1.9 4-1.9 6.4 0 6.3 5.1 11.5 11.5 11.5 5.3 0 9.8-3.6 11.1-8.6h20.3c1.3 4.9 5.8 8.6 11.1 8.6s9.8-3.6 11.1-8.6h20.3c1.3 4.9 5.8 8.6 11.1 8.6 6.3 0 11.5-5.1 11.5-11.5 0-6.3-5.1-11.5-11.5-11.5-5.3 0-9.8 3.6-11.1 8.6h-20.3c-1.3-4.9-5.8-8.6-11.1-8.6s-9.8 3.6-11.1 8.6h-20.3c-1.3-4.9-5.8-8.6-11.1-8.6-1.9 0-3.6.5-5.2 1.2l-27.9-31.5c.6-1 1.1-2 1.4-3.2h20.6c1.3 4.9 5.8 8.4 11.1 8.4s9.7-3.6 11.1-8.5h20.4c1.3 4.9 5.8 8.5 11.1 8.5s9.8-3.6 11.1-8.5h20.3c1.3 4.9 5.8 8.5 11.1 8.5s9.8-3.6 11.1-8.5h22.6c1.3 4.9 5.8 8.6 11.1 8.6 6.3 0 11.5-5.1 11.5-11.5-.2-6.4-5.3-11.5-11.7-11.5zm-118.6 8.7c-1.2-5-5.8-8.7-11.1-8.7-5.4 0-9.9 3.7-11.1 8.7h-20.5c-1.2-5-5.7-8.7-11.1-8.7-5.4 0-9.9 3.7-11.1 8.7h-18.2c-.3-1.4-.9-2.6-1.7-3.8l26.1-30.7c1.5.7 3.2 1.1 5 1.1 5.3 0 9.8-3.6 11.1-8.6h20.6c1.3 4.9 5.8 8.6 11.1 8.6s9.8-3.6 11.1-8.6h20.3c1.3 4.9 5.8 8.6 11.1 8.6 1.9 0 3.6-.4 5.2-1.2l27.6 31.3c-.6 1-1.1 2.1-1.4 3.2h-20.3c-1.3-5-5.8-8.7-11.1-8.7-5.4 0-9.9 3.7-11.1 8.7-7.1.1-13.9.1-20.5.1z"/></svg>