<svg id="Layer_1" xmlns="http://www.w3.org/2000/svg" width="238" height="218" viewBox="-276 198 238 218"><style>.st0{fill:url(#SVGID_1_)}.st1{fill:url(#SVGID_2_)}.st2{fill:url(#SVGID_3_)}.st3{fill:url(#SVGID_4_)}.st4{fill:url(#SVGID_5_)}</style><linearGradient id="SVGID_1_" gradientUnits="userSpaceOnUse" x1="-157" y1="115.113" x2="-157" y2="496.724" gradientTransform="matrix(1 0 0 -1 0 616)"><stop offset="0" stop-color="#fff200"/><stop offset="1" stop-color="#f15a29"/></linearGradient><path class="st0" d="M-39 387l-14.8-41.7c-.2-.5-.5-1-1-1.4 0-.3.2-.6.2-.8V228.3c0-3-2.4-5.6-5.6-5.6h-191c-3 0-5.6 2.4-5.6 5.6v114.6c0 .3 0 .6.2.8-.3.3-.6.6-1 1.3l-17.4 41.7c-.8 2.2.8 4.6 3.5 4.6h228.9c2.6.1 4.4-2.1 3.6-4.3zm-26.8-49.7h-13.9v21.5c0 2.5-2.1 4.6-4.6 4.6h-109.9c-2.5 0-4.6-2.1-4.6-4.6v-9.1h-14.3c-1.8 0-3.3-1.4-3.3-3.3v-9.1h-29.3V233.7h180v103.6z"/><linearGradient id="SVGID_2_" gradientUnits="userSpaceOnUse" x1="-139.23" y1="115.113" x2="-139.23" y2="496.724" gradientTransform="matrix(1 0 0 -1 0 616)"><stop offset="0" stop-color="#fff200"/><stop offset="1" stop-color="#f15a29"/></linearGradient><path class="st1" d="M-81.2 281.8c0-1.8-1.4-3-3-3h-109.9c-1.8 0-3 1.4-3 3v10h6.2v-6.7h91.1V356H-191v-5.9h-6.2v9.1c0 1.8 1.4 3 3 3h109.9c1.8 0 3-1.4 3-3 .1.1.1-77.4.1-77.4zm-11 34.3c2.2 0 4 1.8 4 4s-1.8 4-4 4-4-1.8-4-4c0-2.3 1.7-4 4-4z"/><linearGradient id="SVGID_3_" gradientUnits="userSpaceOnUse" x1="-92.231" y1="115.113" x2="-92.231" y2="496.724" gradientTransform="matrix(1 0 0 -1 0 616)"><stop offset="0" stop-color="#fff200"/><stop offset="1" stop-color="#f15a29"/></linearGradient><circle class="st2" cx="-92.2" cy="320.1" r="2.4"/><linearGradient id="SVGID_4_" gradientUnits="userSpaceOnUse" x1="-199.532" y1="115.113" x2="-199.532" y2="496.724" gradientTransform="matrix(1 0 0 -1 0 616)"><stop offset="0" stop-color="#fff200"/><stop offset="1" stop-color="#f15a29"/></linearGradient><path class="st3" d="M-185.8 348.3c.8 0 1.8-.6 1.8-1.8v-51.6c0-.8-.6-1.8-1.8-1.8h-27.6c-.8 0-1.8.6-1.8 1.8v51.6c0 .8.6 1.8 1.8 1.8h27.6zm-11.6-5.9c0 .3 0 .5-.2.8-.3.6-1 1.4-1.9 1.4-.8 0-1.8-.5-1.9-1.4-.2-.2-.2-.5-.2-.8 0-.3 0-.5.2-.8.3-.6 1-1.4 1.9-1.4.8 0 1.8.5 1.9 1.4.2.3.2.4.2.8zm-14.2-45.9h24.2v41.6h-24.2v-41.6z"/><linearGradient id="SVGID_5_" gradientUnits="userSpaceOnUse" x1="-199.453" y1="115.113" x2="-199.453" y2="496.724" gradientTransform="matrix(1 0 0 -1 0 616)"><stop offset="0" stop-color="#fff200"/><stop offset="1" stop-color="#f15a29"/></linearGradient><circle class="st4" cx="-199.5" cy="342.4" r="1.4"/></svg>