<svg id="Layer_1" xmlns="http://www.w3.org/2000/svg" width="238" height="218" viewBox="-276 198 238 218"><style>.st0{fill:url(#SVGID_1_)}</style><linearGradient id="SVGID_1_" gradientUnits="userSpaceOnUse" x1="-157" y1="173" x2="-157" y2="429.127" gradientTransform="matrix(1 0 0 -1 0 616)"><stop offset="0" stop-color="#fff200"/><stop offset="1" stop-color="#f15a29"/></linearGradient><path class="st0" d="M-157 199c-59.5 0-108 48.5-108 108s48.5 108 108 108 108-48.5 108-108-48.5-108-108-108zm-104 108c0-3.9.2-7.7.6-11.4 4.1 3.2 8 7.3 8 11.4 0 8-7.3 1.3 5 13.6-3.3 6.4-.5 12-.5 18.9 0 8.6 4.3 28.2 13 28.2l8.2 16.4c-21-19-34.3-46.5-34.3-77.1zm123.4 10.8c8.6 17.3 8.6 8.6 17.3 17.3 8.6 8.6 26-8.6 26-8.6s0 8.6 8.6 17.3c8.6 8.6-2.2 26-2.2 26l5 9.9c-18.9 19.2-45.1 31.2-74.3 31.2-14.3 0-27.9-2.9-40.2-8.1 3.2-7.7 8.7-17.9 14.1-17.9 8.6 0 8.6 0 8.6-8.6 0-17.3 8.6-8.6 8.6-17.3 0-8.6-17.3-8.6-26-17.3-8.6-8.6-13-17.3-21.7-17.3-4.3-8.6-4.3-8.6-13-8.6s-8.6-8.6-17.3 0c-7.6-7.6-8.5-28.2-14.4-33.5 1.4-5.6 3.1-11 5.4-16.2 5.8 4.8 2.3 15 9 15 8.6 0 0-17.3 8.6-17.3s17.3 0 17.3-8.6 17.3 0 17.3 0c8.6-8.6 8.6-8.6 0-13-3.9-1.9 8.6 4.3 8.6-4.3 0-17.3-8.6 0 0-17.3s17.3 0 17.3-8.6c0-2.6.8-5.2 1.8-7.6 5.1-.8 10.3-1.2 15.4-1.2 9.7 0 19.1 1.3 28.1 3.8-.9 9.1-8.1 24.3.1 24.3 8.6 0 26-8.6 17.3-17.3 5 1.9 10.3 5.2 15.2 8.7-4.6.3-15.2 1.7-15.2 8.5 0 8.6-17.3 8.6-8.6 17.3 8.6 8.6-17.3 0-8.6 8.6 8.6 8.6 0 17.3 8.6 8.6 8.6-8.6 8.6-17.3 17.3-17.3s8.6 8.6 17.3 8.6-8.6-17.3 0-17.3c2.6 0 4.6-.8 6.3-1.9 7.5 8.3 13.5 17.8 17.9 28.3-14.1 1.6-24.2 8.3-24.2 8.3-17.3-17.3-26 0-34.7 0-8.6 0-8.6 17.3-8.6 17.3s-16.6 8.8-8 26.1z"/></svg>