<?xml version="1.0" encoding="utf-8"?>
<!-- Generator: Adobe Illustrator 23.0.6, SVG Export Plug-In . SVG Version: 6.00 Build 0)  -->
<svg version="1.1" id="Layer_1" xmlns="http://www.w3.org/2000/svg" xmlns:xlink="http://www.w3.org/1999/xlink" x="0px" y="0px"
	 width="20px" height="20px" viewBox="0 0 20 20" style="enable-background:new 0 0 20 20;" xml:space="preserve">
<style type="text/css">
	.st0{fill:#FF780A;}
</style>
<path class="st0" d="M1,10h6c0.3,0,0.5-0.1,0.7-0.3C7.9,9.5,8,9.3,8,9V3c0-0.3-0.1-0.5-0.3-0.7C7.5,2.1,7.3,2,7,2H1
	C0.7,2,0.5,2.1,0.3,2.3C0.1,2.5,0,2.7,0,3v6c0,0.3,0.1,0.5,0.3,0.7C0.5,9.9,0.7,10,1,10z M2,4h4v4H2V4z M11,6h8
	c0.3,0,0.5-0.1,0.7-0.3C19.9,5.5,20,5.3,20,5s-0.1-0.5-0.3-0.7C19.5,4.1,19.3,4,19,4h-8c-0.3,0-0.5,0.1-0.7,0.3
	C10.1,4.5,10,4.7,10,5s0.1,0.5,0.3,0.7C10.5,5.9,10.7,6,11,6z M11,16H1c-0.3,0-0.5,0.1-0.7,0.3C0.1,16.5,0,16.7,0,17
	s0.1,0.5,0.3,0.7C0.5,17.9,0.7,18,1,18h10c0.3,0,0.5-0.1,0.7-0.3S12,17.3,12,17s-0.1-0.5-0.3-0.7S11.3,16,11,16z M19,12H1
	c-0.3,0-0.5,0.1-0.7,0.3C0.1,12.5,0,12.7,0,13s0.1,0.5,0.3,0.7C0.5,13.9,0.7,14,1,14h18c0.3,0,0.5-0.1,0.7-0.3S20,13.3,20,13
	s-0.1-0.5-0.3-0.7S19.3,12,19,12z M19,8h-8c-0.3,0-0.5,0.1-0.7,0.3C10.1,8.5,10,8.7,10,9s0.1,0.5,0.3,0.7C10.5,9.9,10.7,10,11,10h8
	c0.3,0,0.5-0.1,0.7-0.3C19.9,9.5,20,9.3,20,9s-0.1-0.5-0.3-0.7C19.5,8.1,19.3,8,19,8z"/>
</svg>
