<?xml version="1.0" encoding="utf-8"?>
<!-- Generator: Adobe Illustrator 23.0.6, SVG Export Plug-In . SVG Version: 6.00 Build 0)  -->
<svg version="1.1" id="Layer_1" xmlns="http://www.w3.org/2000/svg" xmlns:xlink="http://www.w3.org/1999/xlink" x="0px" y="0px"
	 width="22px" height="22px" viewBox="0 0 22 22" style="enable-background:new 0 0 22 22;" xml:space="preserve">
<style type="text/css">
	.st0{fill:#E14A63;}
</style>
<path class="st0" d="M21.5,17.8l-1-3.9L17.3,2.4c-0.1-0.3-0.2-0.5-0.5-0.6c-0.2-0.1-0.5-0.2-0.8-0.1l-3.9,1
	c-0.1-0.1-0.2-0.2-0.3-0.2c-0.1-0.1-0.3-0.1-0.4-0.1h-10C1.2,2.3,1,2.4,0.8,2.6C0.6,2.8,0.5,3.1,0.5,3.3v16c0,0.3,0.1,0.5,0.3,0.7
	c0.2,0.2,0.4,0.3,0.7,0.3h10c0.3,0,0.5-0.1,0.7-0.3c0.2-0.2,0.3-0.4,0.3-0.7v-8l2.2,8.2c0.1,0.2,0.2,0.4,0.4,0.5
	c0.2,0.1,0.4,0.2,0.6,0.2c0.1,0,0.2,0,0.3,0l4.8-1.3c0.1,0,0.2-0.1,0.4-0.2s0.2-0.2,0.3-0.3C21.5,18.3,21.5,18.1,21.5,17.8z
	 M5.5,18.4h-3v-2h3V18.4z M5.5,14.4h-3v-6h3V14.4z M5.5,6.4h-3v-2h3V6.4z M10.5,18.4h-3v-2h3V18.4z M10.5,14.4h-3v-6h3V14.4z
	 M10.5,6.4h-3v-2h3V6.4z M12.7,4.6l2.9-0.8l0.5,1.9l-2.9,0.8L12.7,4.6z M15.3,14.3l-1.6-5.8l2.9-0.8l1.5,5.8L15.3,14.3z M16.3,18.1
	l-0.5-1.9l2.9-0.8l0.5,1.9L16.3,18.1z"/>
</svg>
