<?xml version="1.0" encoding="utf-8"?>
<!-- Generator: Adobe Illustrator 23.0.6, SVG Export Plug-In . SVG Version: 6.00 Build 0)  -->
<svg version="1.1" id="Layer_1" xmlns="http://www.w3.org/2000/svg" xmlns:xlink="http://www.w3.org/1999/xlink" x="0px" y="0px"
	 width="20px" height="20px" viewBox="0 0 20 20" style="enable-background:new 0 0 20 20;" xml:space="preserve">
<style type="text/css">
	.st0{fill:#36B263;}
</style>
<path class="st0" d="M7.7,4.3C7.6,4.2,7.5,4.1,7.4,4.1C7.3,4,7.1,4,7,4S6.7,4,6.6,4.1C6.5,4.1,6.4,4.2,6.3,4.3l-5,5
	C1.2,9.4,1.1,9.5,1.1,9.6C1,9.7,1,9.9,1,10s0,0.3,0.1,0.4c0.1,0.1,0.1,0.2,0.2,0.3l5,5c0.1,0.1,0.2,0.2,0.3,0.2C6.7,16,6.9,16,7,16
	s0.3,0,0.4-0.1c0.1-0.1,0.2-0.1,0.3-0.2c0.1-0.1,0.2-0.2,0.2-0.3C8,15.3,8,15.1,8,15c0-0.1,0-0.3-0.1-0.4c-0.1-0.1-0.1-0.2-0.2-0.3
	L3.4,10l4.3-4.3c0.1-0.1,0.2-0.2,0.2-0.3C8,5.3,8,5.1,8,5s0-0.3-0.1-0.4C7.9,4.5,7.8,4.4,7.7,4.3z M18.7,9.3l-5-5
	c-0.1-0.1-0.2-0.2-0.3-0.2C13.3,4,13.1,4,13,4c-0.3,0-0.5,0.1-0.7,0.3c-0.1,0.1-0.2,0.2-0.2,0.3C12,4.7,12,4.9,12,5
	c0,0.3,0.1,0.5,0.3,0.7l4.3,4.3l-4.3,4.3c-0.1,0.1-0.2,0.2-0.2,0.3C12,14.7,12,14.9,12,15c0,0.1,0,0.3,0.1,0.4
	c0.1,0.1,0.1,0.2,0.2,0.3c0.1,0.1,0.2,0.2,0.3,0.2C12.7,16,12.9,16,13,16s0.3,0,0.4-0.1c0.1-0.1,0.2-0.1,0.3-0.2l5-5
	c0.1-0.1,0.2-0.2,0.2-0.3C19,10.3,19,10.1,19,10s0-0.3-0.1-0.4C18.9,9.5,18.8,9.4,18.7,9.3z"/>
</svg>
