<?xml version="1.0" encoding="utf-8"?>
<!-- Generator: Adobe Illustrator 23.0.6, SVG Export Plug-In . SVG Version: 6.00 Build 0)  -->
<svg version="1.1" id="Layer_1" xmlns="http://www.w3.org/2000/svg" xmlns:xlink="http://www.w3.org/1999/xlink" x="0px" y="0px"
	 width="22px" height="22px" viewBox="0 0 22 22" style="enable-background:new 0 0 22 22;" xml:space="preserve">
<style type="text/css">
	.st0{fill:#A352CC;}
</style>
<path class="st0" d="M11.3,11.2c0.5-0.5,1-1,1.3-1.7c0.3-0.6,0.4-1.3,0.4-2c0-1.3-0.5-2.6-1.5-3.5C10.6,3,9.3,2.5,8,2.5S5.4,3,4.5,4
	C3.5,4.9,3,6.2,3,7.5c0,0.7,0.2,1.4,0.4,2c0.3,0.6,0.7,1.2,1.3,1.7c-1.4,0.6-2.6,1.7-3.4,2.9C0.4,15.5,0,17,0,18.5
	c0,0.3,0.1,0.5,0.3,0.7c0.2,0.2,0.4,0.3,0.7,0.3c0.3,0,0.5-0.1,0.7-0.3C1.9,19,2,18.8,2,18.5c0-1.6,0.6-3.1,1.8-4.2
	c1.1-1.1,2.7-1.8,4.2-1.8s3.1,0.6,4.2,1.8c1.1,1.1,1.8,2.7,1.8,4.2c0,0.3,0.1,0.5,0.3,0.7s0.4,0.3,0.7,0.3s0.5-0.1,0.7-0.3
	s0.3-0.4,0.3-0.7c0-1.5-0.4-3-1.3-4.3C13.9,12.9,12.7,11.9,11.3,11.2z M8,10.5c-0.6,0-1.2-0.2-1.7-0.5C5.8,9.7,5.5,9.2,5.2,8.6
	C5,8.1,4.9,7.5,5.1,6.9c0.1-0.6,0.4-1.1,0.8-1.5c0.4-0.4,1-0.7,1.5-0.8C8,4.4,8.6,4.5,9.1,4.7c0.5,0.2,1,0.6,1.3,1.1
	C10.8,6.3,11,6.9,11,7.5c0,0.8-0.3,1.6-0.9,2.1C9.6,10.2,8.8,10.5,8,10.5z M17.7,10.8c0.6-0.7,1.1-1.6,1.2-2.6c0.1-1,0-1.9-0.4-2.8
	c-0.4-0.9-1-1.6-1.8-2.1C15.9,2.8,15,2.5,14,2.5c-0.3,0-0.5,0.1-0.7,0.3C13.1,3,13,3.2,13,3.5s0.1,0.5,0.3,0.7
	c0.2,0.2,0.4,0.3,0.7,0.3c0.8,0,1.6,0.3,2.1,0.9C16.7,5.9,17,6.7,17,7.5c0,0.5-0.1,1-0.4,1.5c-0.3,0.5-0.6,0.8-1.1,1.1
	c-0.1,0.1-0.3,0.2-0.4,0.4c-0.1,0.1-0.1,0.3-0.1,0.5c0,0.2,0,0.3,0.1,0.5c0.1,0.2,0.2,0.3,0.3,0.4l0.4,0.3l0.1,0.1
	c1.2,0.6,2.2,1.5,2.9,2.6c0.7,1.1,1.1,2.4,1.1,3.8c0,0.3,0.1,0.5,0.3,0.7s0.4,0.3,0.7,0.3c0.3,0,0.5-0.1,0.7-0.3s0.3-0.4,0.3-0.7
	c0-1.5-0.4-3-1.1-4.4C20.1,12.8,19,11.6,17.7,10.8z"/>
</svg>
