<svg width="21" height="21" viewBox="0 0 21 21" fill="none" xmlns="http://www.w3.org/2000/svg">
<path d="M20.03 10.04C20.03 8.67 18.92 7.57 17.56 7.57C17.52 7.57 17.49 7.58 17.45 7.58L13.38 3.51C13.53 3.19 13.61 2.85 13.61 2.48C13.61 1.11 12.5 0 11.14 0C9.78 0 8.66 1.11 8.66 2.47C8.66 3.83 9.77 4.94 11.13 4.94C11.39 4.94 11.63 4.89 11.86 4.82L15.59 8.55C15.48 8.7 15.38 8.85 15.3 9.02H13.44L11.61 6.72C11.39 6.44 11.03 6.3 10.68 6.35C10.33 6.4 10.03 6.64 9.9 6.97L8.22 11.26L7.39 9.64C7.22 9.31 6.88 9.1 6.5 9.1H4.76C4.39 8.2 3.51 7.57 2.47 7.57C1.11 7.57 0 8.67 0 10.04C0 11.41 1.11 12.51 2.47 12.51C3.46 12.51 4.3 11.93 4.7 11.09H5.89L7.46 14.15C7.63 14.49 7.98 14.69 8.35 14.69C8.37 14.69 8.38 14.69 8.4 14.69C8.79 14.67 9.14 14.42 9.28 14.06L11.14 9.32L12.19 10.64C12.38 10.88 12.67 11.02 12.97 11.02H15.29C15.39 11.24 15.52 11.45 15.68 11.63L12.01 15.3C11.74 15.2 11.44 15.13 11.13 15.13C9.76 15.13 8.66 16.24 8.66 17.6C8.66 18.96 9.77 20.07 11.13 20.07C12.49 20.07 13.6 18.96 13.6 17.6C13.6 17.28 13.53 16.98 13.42 16.7L17.62 12.5C18.96 12.47 20.03 11.38 20.03 10.04Z" fill="#ee7800"/>
</svg>
