<?xml version="1.0" encoding="utf-8"?>
<!-- Generator: Adobe Illustrator 23.0.6, SVG Export Plug-In . SVG Version: 6.00 Build 0)  -->
<svg version="1.1" id="Layer_1" xmlns="http://www.w3.org/2000/svg" xmlns:xlink="http://www.w3.org/1999/xlink" x="0px" y="0px"
	 width="21px" height="21px" viewBox="0 0 21 21" style="enable-background:new 0 0 21 21;" xml:space="preserve">
<style type="text/css">
	.st0{fill:#4279CD;}
</style>
<path class="st0" d="M15.5,4.1c-0.7,0-1.4,0.2-1.9,0.7c-0.5,0.4-0.9,1.1-1,1.7c-0.1,0.7,0,1.4,0.3,2c0.3,0.6,0.9,1.1,1.5,1.4
	c-0.2,0.4-0.4,0.7-0.7,0.9c-0.3,0.2-0.7,0.3-1.1,0.3h-4c-0.7,0-1.4,0.2-2,0.6V5.9c0.7-0.2,1.2-0.7,1.6-1.3c0.4-0.6,0.5-1.3,0.4-2
	C8.3,1.8,8,1.2,7.4,0.8C6.9,0.3,6.2,0.1,5.5,0.1c-0.7,0-1.4,0.3-1.9,0.7C3,1.2,2.7,1.8,2.5,2.5c-0.1,0.7,0,1.4,0.4,2
	c0.4,0.6,0.9,1.1,1.6,1.3v8.4c-0.7,0.2-1.2,0.7-1.6,1.3c-0.4,0.6-0.5,1.3-0.4,2c0.1,0.7,0.5,1.3,1,1.8c0.5,0.5,1.2,0.7,1.9,0.7
	c0.7,0,1.4-0.2,1.9-0.6c0.5-0.4,0.9-1,1.1-1.7c0.1-0.7,0-1.4-0.3-2c-0.3-0.6-0.9-1.1-1.5-1.4c0.2-0.4,0.4-0.7,0.7-0.9
	c0.3-0.2,0.7-0.3,1.1-0.3h4c0.9,0,1.8-0.3,2.5-0.9c0.7-0.6,1.2-1.4,1.4-2.3c0.7-0.2,1.2-0.7,1.6-1.3c0.4-0.6,0.5-1.3,0.4-2
	s-0.5-1.3-1-1.8C16.9,4.3,16.2,4.1,15.5,4.1z M5.5,2.1c0.2,0,0.4,0.1,0.6,0.2c0.2,0.1,0.3,0.3,0.4,0.4c0.1,0.2,0.1,0.4,0.1,0.6
	c0,0.2-0.1,0.4-0.3,0.5C6.1,3.9,5.9,4,5.7,4c-0.2,0-0.4,0-0.6-0.1C4.9,3.9,4.8,3.8,4.7,3.6S4.5,3.3,4.5,3.1c0-0.3,0.1-0.5,0.3-0.7
	C5,2.2,5.2,2.1,5.5,2.1z M5.5,18.1c-0.2,0-0.4-0.1-0.6-0.2c-0.2-0.1-0.3-0.3-0.4-0.4c-0.1-0.2-0.1-0.4-0.1-0.6
	c0-0.2,0.1-0.4,0.3-0.5c0.1-0.1,0.3-0.2,0.5-0.3c0.2,0,0.4,0,0.6,0.1c0.2,0.1,0.3,0.2,0.4,0.4c0.1,0.2,0.2,0.4,0.2,0.6
	c0,0.3-0.1,0.5-0.3,0.7C6,18,5.8,18.1,5.5,18.1z M15.5,8.1c-0.2,0-0.4-0.1-0.6-0.2c-0.2-0.1-0.3-0.3-0.4-0.4
	c-0.1-0.2-0.1-0.4-0.1-0.6c0-0.2,0.1-0.4,0.3-0.5c0.1-0.1,0.3-0.2,0.5-0.3c0.2,0,0.4,0,0.6,0.1c0.2,0.1,0.3,0.2,0.4,0.4
	c0.1,0.2,0.2,0.4,0.2,0.6c0,0.3-0.1,0.5-0.3,0.7C16,8,15.8,8.1,15.5,8.1z"/>
</svg>
