<?xml version="1.0" encoding="utf-8"?>
<!-- Generator: Adobe Illustrator 23.0.6, SVG Export Plug-In . SVG Version: 6.00 Build 0)  -->
<svg version="1.1" id="Layer_1" xmlns="http://www.w3.org/2000/svg" xmlns:xlink="http://www.w3.org/1999/xlink" x="0px" y="0px"
	 width="22px" height="22px" viewBox="0 0 22 22" style="enable-background:new 0 0 22 22;" xml:space="preserve">
<style type="text/css">
	.st0{fill:#EE7800;}
</style>
<path class="st0" d="M19.8,14c0.1-0.6,0-1.3-0.1-2c-0.4-2.1-1.9-3.8-4-4.5c-1.9-0.6-3.9-0.2-5.4,1.1s-1.9,3.4-1.2,5.1
	c0.6,1.4,1.9,2.2,3.5,2.1c0.6,0,1-0.5,0.9-1.1c0-0.6-0.5-1-1.1-0.9c-0.9,0.1-1.3-0.4-1.5-0.9c-0.3-0.8-0.2-2,0.7-2.8
	C12.6,9.2,13.8,9,15,9.4c1.4,0.5,2.3,1.6,2.7,3c0.4,1.8-0.3,3-0.9,3.8c-1,1.3-2.8,2-4.5,2c-2.4,0-4.5-1.1-5.8-2.9
	c-1.3-1.8-1.6-4.2-0.8-6.6C6.3,6.3,8,4.7,10.4,4C13,3.3,16,4,17.9,5.6c0.4,0.4,1,0.3,1.4-0.1c0.4-0.4,0.3-1-0.1-1.4
	c-0.2-0.2-0.4-0.3-0.6-0.4c0.1-0.2,0.1-0.4,0.1-0.6c0-0.9-0.7-1.6-1.6-1.6c-0.6,0-1.1,0.3-1.4,0.8c-0.8-0.2-1.5-0.4-2.3-0.5
	c-0.1-1-1-1.8-2-1.8c-1.1,0-2,0.9-2,2c0,0.1,0,0.1,0,0.2c-1.1,0.3-2,0.8-2.8,1.5C6.2,3.3,5.6,3.1,5,3.1c-1.4,0-2.5,1.1-2.5,2.5
	c0,0.9,0.5,1.7,1.3,2.2c0,0.1-0.1,0.2-0.1,0.2c-0.3,0.9-0.4,1.7-0.5,2.6C2,10.7,1,11.7,1,13c0,1.4,1.1,2.5,2.5,2.5
	c0.2,0,0.5-0.1,0.7-0.1c0.2,0.3,0.4,0.7,0.6,1c0.3,0.4,0.6,0.7,0.9,1c-0.3,0.4-0.5,0.8-0.5,1.3c0,1.1,0.9,2,2,2
	c0.8,0,1.5-0.5,1.8-1.1c1,0.4,2.1,0.6,3.2,0.6c0,0,0.1,0,0.1,0c0.2,0,0.4,0,0.6,0c0.2,0.7,0.8,1.2,1.6,1.2c0.9,0,1.6-0.7,1.6-1.6
	c0-0.1,0-0.3-0.1-0.4c0.9-0.5,1.7-1.1,2.3-1.8c0.1-0.1,0.2-0.3,0.3-0.4c0.1,0,0.3,0.1,0.4,0.1c0.9,0,1.6-0.7,1.6-1.6
	C20.7,14.8,20.3,14.2,19.8,14z"/>
</svg>
