<svg width="18" height="20" fill="none" xmlns="http://www.w3.org/2000/svg"><path d="M17.99 8.822a6.47 6.47 0 00-.191-1.146 7.474 7.474 0 00-.508-1.384 7.215 7.215 0 00-.952-1.47 4.178 4.178 0 00-.508-.563c.275-1.124-.339-2.097-.339-2.097-1.058-.065-1.714.324-1.968.52-.042-.023-.085-.044-.127-.044-.17-.065-.36-.152-.55-.195-.19-.065-.381-.108-.572-.173-.19-.043-.402-.086-.614-.13-.042 0-.063 0-.105-.021C11.09.627 9.778 0 9.778 0 8.318.951 8.02 2.292 8.02 2.292s0 .022-.021.086l-.254.065a2.048 2.048 0 01-.339.108c-.105.044-.232.087-.338.13-.212.108-.445.216-.656.324-.212.13-.424.26-.614.39-.021-.022-.042-.022-.042-.022-2.032-.778-3.831.195-3.831.195-.17 2.205.804 3.61 1.016 3.87-.043.13-.085.28-.127.41a11.889 11.889 0 00-.339 1.557c0 .087-.021.152-.021.238C.55 10.551 0 12.497 0 12.497c1.566 1.838 3.407 1.968 3.407 1.968.233.432.508.822.805 1.21.127.152.254.303.402.455-.572 1.665.084 3.07.084 3.07 1.757.065 2.9-.778 3.133-.973.169.065.36.108.529.151.529.152 1.08.217 1.63.26H10.666C11.492 19.848 12.93 20 12.93 20c1.037-1.103 1.08-2.205 1.08-2.443v-.022-.043-.043c.211-.152.423-.325.613-.498.402-.389.784-.821 1.08-1.275.02-.044.063-.087.084-.13 1.165.065 1.99-.735 1.99-.735-.19-1.233-.889-1.838-1.037-1.968l-.021-.021h-.021s-.022 0-.022-.022c0-.065.021-.151.021-.216 0-.13.022-.26.022-.411V12v-.238-.108-.216l-.021-.108c-.022-.13-.043-.281-.085-.411a5.092 5.092 0 00-.593-1.492 5.468 5.468 0 00-.995-1.21 5.223 5.223 0 00-1.248-.822c-.445-.195-.91-.346-1.376-.39a7.564 7.564 0 00-.698-.043H11.598 11.365c-.127.022-.233.022-.36.043A3.92 3.92 0 008.72 8.368a3.707 3.707 0 00-.635 1.08c-.148.39-.233.779-.254 1.168V11.18c.02.194.063.389.106.562.105.367.254.691.465.95.19.282.445.498.699.693.254.173.529.303.804.389.275.087.529.108.783.108h.339c.042 0 .063 0 .084-.021.021 0 .064-.022.085-.022.063-.022.106-.022.17-.043l.317-.13c.105-.043.19-.108.275-.173.02-.022.042-.043.063-.043a.187.187 0 00.021-.281c-.063-.087-.169-.108-.254-.044-.02.022-.042.022-.063.044-.064.043-.148.064-.233.086l-.254.065c-.042 0-.085.021-.127.021h-.275s-.021 0 0 0h-.127a2.049 2.049 0 01-.592-.172 2.232 2.232 0 01-.55-.368 2.064 2.064 0 01-.424-.54 2.416 2.416 0 01-.233-.692c-.021-.13-.021-.238-.021-.368v-.151-.044c0-.065.021-.13.021-.194a2.62 2.62 0 01.762-1.427c.106-.108.212-.195.317-.26a2 2 0 01.36-.216c.127-.065.254-.108.402-.151.127-.043.276-.065.424-.065h.359c.022 0 0 0 0 0H11.62c.148.022.318.043.466.065.296.065.592.173.867.346.55.302 1.016.8 1.313 1.383.148.303.254.606.296.93.021.087.021.173.021.238v.519c0 .086-.021.173-.021.26 0 .086-.021.172-.042.259l-.064.26c-.042.172-.106.345-.17.518a4.188 4.188 0 01-2.138 2.313 4 4 0 01-1.015.325c-.169.022-.36.043-.529.065h-.254c.021 0 0 0 0 0h-.02c-.086 0-.191 0-.276-.022a4.913 4.913 0 01-1.122-.216c-.36-.108-.72-.26-1.037-.432a5.72 5.72 0 01-1.735-1.47 6.578 6.578 0 01-.614-.952 6.4 6.4 0 01-.402-1.06c-.106-.367-.148-.735-.19-1.102v-.432-.13c0-.195.02-.368.042-.562.02-.195.063-.39.084-.563.043-.194.085-.367.127-.562.106-.367.233-.735.381-1.06a5.635 5.635 0 011.566-2.096c.127-.109.254-.195.403-.303.127-.087.275-.173.423-.26.063-.043.148-.065.212-.108.042-.021.084-.043.105-.043.043-.022.085-.043.106-.043.148-.065.318-.13.466-.173.042-.022.084-.022.127-.043.042-.022.084-.022.127-.044.084-.021.17-.043.233-.065.042-.021.084-.021.127-.021.042 0 .084-.022.127-.022.042 0 .084-.021.127-.021l.063-.022h.063c.043 0 .085-.022.127-.022.043 0 .085-.021.149-.021.042 0 .105-.022.148-.022h.423s.021 0 0 0h.635c.317.022.614.043.91.108a6.116 6.116 0 011.672.562c.508.26.973.563 1.354.908l.064.065.064.065c.042.043.084.087.148.13l.127.13.127.13c.169.172.317.367.465.562.275.367.508.735.678 1.102.02.022.02.043.042.065.021.022.021.043.021.065l.063.13.064.13.063.13c.064.172.127.323.17.475.084.238.148.454.19.648.021.065.085.13.17.109a.146.146 0 00.148-.152c.127-.324.127-.562.105-.821z" fill="#FB755A"/></svg>