<?xml version="1.0" encoding="utf-8"?>
<!-- Generator: Adobe Illustrator 23.0.6, SVG Export Plug-In . SVG Version: 6.00 Build 0)  -->
<svg version="1.1" id="Layer_1" xmlns="http://www.w3.org/2000/svg" xmlns:xlink="http://www.w3.org/1999/xlink" x="0px" y="0px"
	 width="18px" height="18px" viewBox="0 0 18 18" style="enable-background:new 0 0 18 18;" xml:space="preserve">
<style type="text/css">
	.st0{fill:#FF780A;}
</style>
<path class="st0" d="M1.5,12.9c-0.1-0.1-0.2-0.1-0.3-0.2c-0.2-0.1-0.5-0.1-0.7,0c-0.1,0-0.2,0.1-0.3,0.2c-0.1,0.1-0.1,0.2-0.2,0.3
	C0,13.3,0,13.5,0,13.7s0.1,0.3,0.2,0.5c0.1,0.1,0.2,0.1,0.3,0.2c0.1,0,0.2,0.1,0.3,0.1c0.1,0,0.2,0,0.3-0.1c0.1,0,0.2-0.1,0.3-0.2
	c0.1-0.1,0.2-0.3,0.2-0.5c0-0.2,0-0.4-0.1-0.5C1.7,13.1,1.6,13,1.5,12.9z M4.5,5.4h12.6c0.2,0,0.5-0.1,0.6-0.3C17.9,5,18,4.7,18,4.5
	c0-0.2-0.1-0.5-0.3-0.6c-0.2-0.2-0.4-0.3-0.6-0.3H4.5C4.3,3.6,4,3.7,3.9,3.9C3.7,4,3.6,4.3,3.6,4.5c0,0.2,0.1,0.5,0.3,0.6
	C4,5.3,4.3,5.4,4.5,5.4z M1.5,8.4C1.4,8.2,1.2,8.1,1.1,8.1c-0.2,0-0.4,0-0.5,0.1c-0.1,0-0.2,0.1-0.3,0.2C0.2,8.4,0.1,8.5,0.1,8.7
	C0,8.8,0,8.9,0,9c0,0.1,0,0.2,0.1,0.3c0,0.1,0.1,0.2,0.2,0.3c0.1,0.1,0.2,0.1,0.3,0.2c0.1,0,0.2,0.1,0.3,0.1c0.1,0,0.2,0,0.3-0.1
	c0.1,0,0.2-0.1,0.3-0.2c0.1-0.1,0.1-0.2,0.2-0.3c0-0.1,0.1-0.2,0.1-0.3c0-0.1,0-0.2-0.1-0.3C1.7,8.5,1.6,8.4,1.5,8.4z M17.1,8.1H4.5
	C4.3,8.1,4,8.2,3.9,8.4C3.7,8.5,3.6,8.8,3.6,9s0.1,0.5,0.3,0.6C4,9.8,4.3,9.9,4.5,9.9h12.6c0.2,0,0.5-0.1,0.6-0.3
	C17.9,9.5,18,9.2,18,9s-0.1-0.5-0.3-0.6C17.6,8.2,17.4,8.1,17.1,8.1z M1.5,3.9C1.4,3.8,1.3,3.7,1.2,3.7C1.1,3.6,0.9,3.6,0.7,3.6
	c-0.2,0-0.3,0.1-0.5,0.2C0.2,3.9,0.1,4,0.1,4.1C0,4.3,0,4.4,0,4.5c0,0.1,0,0.2,0.1,0.3c0,0.1,0.1,0.2,0.2,0.3
	c0.1,0.1,0.2,0.1,0.3,0.2c0.2,0.1,0.3,0.1,0.5,0.1c0.2,0,0.3-0.1,0.5-0.2C1.6,5,1.7,4.9,1.7,4.8c0-0.1,0.1-0.2,0.1-0.3
	c0-0.1,0-0.2-0.1-0.3C1.7,4,1.6,3.9,1.5,3.9z M17.1,12.6H4.5c-0.2,0-0.5,0.1-0.6,0.3c-0.2,0.2-0.3,0.4-0.3,0.6
	c0,0.2,0.1,0.5,0.3,0.6c0.2,0.2,0.4,0.3,0.6,0.3h12.6c0.2,0,0.5-0.1,0.6-0.3c0.2-0.2,0.3-0.4,0.3-0.6c0-0.2-0.1-0.5-0.3-0.6
	C17.6,12.7,17.4,12.6,17.1,12.6z"/>
</svg>
