<?xml version="1.0" encoding="utf-8"?>
<!-- Generator: Adobe Illustrator 23.0.6, SVG Export Plug-In . SVG Version: 6.00 Build 0)  -->
<svg version="1.1" id="Layer_1" xmlns="http://www.w3.org/2000/svg" xmlns:xlink="http://www.w3.org/1999/xlink" x="0px" y="0px"
	 width="24px" height="24px" viewBox="0 0 24 24" style="enable-background:new 0 0 24 24;" xml:space="preserve">
<style type="text/css">
	.st0{opacity:0.7;clip-path:url(#SVGID_2_);}
	.st1{fill:#EE7800;}
</style>
<g>
	<defs>
		<rect id="SVGID_1_" x="1" width="22" height="23.9"/>
	</defs>
	<clipPath id="SVGID_2_">
		<use xlink:href="#SVGID_1_"  style="overflow:visible;"/>
	</clipPath>
	<g class="st0">
		<path class="st1" d="M4.2,17.6c-0.5,0-0.9-0.4-1-0.8L1,3.2C0.9,2.7,1.3,2.1,1.8,2.1C2.4,2,2.9,2.3,3,2.9l2.2,13.6
			c0.1,0.5-0.3,1.1-0.8,1.1C4.3,17.6,4.3,17.6,4.2,17.6z"/>
		<path class="st1" d="M7.6,17c-0.5,0-0.9-0.4-1-0.8l-2.5-15C4,0.6,4.4,0.1,4.9,0C5.5-0.1,6,0.3,6.1,0.8l2.5,15
			c0.1,0.5-0.3,1.1-0.8,1.1C7.7,17,7.6,17,7.6,17z"/>
		<path class="st1" d="M11,16.2c-0.5,0-0.9-0.4-1-0.8L8.1,3.5C8,3,8.4,2.5,8.9,2.4c0.6-0.1,1.1,0.3,1.2,0.8L12,15
			c0.1,0.5-0.3,1.1-0.8,1.2C11.1,16.2,11.1,16.2,11,16.2z"/>
		<path class="st1" d="M14.8,19.1c-0.5,0-0.9-0.4-1-0.8c-0.1-0.5,0.3-1.1,0.8-1.1l6.6-1.1c0.6-0.1,1.1,0.3,1.2,0.8
			c0.1,0.5-0.3,1.1-0.8,1.2L15,19C14.9,19.1,14.9,19.1,14.8,19.1z"/>
		<path class="st1" d="M15.4,22.1c-0.5,0-0.9-0.4-1-0.8c-0.1-0.5,0.3-1.1,0.8-1.1l6.6-1.1c0.6-0.1,1.1,0.3,1.2,0.8
			c0.1,0.5-0.3,1.1-0.8,1.1l-6.6,1.1C15.4,22.1,15.4,22.1,15.4,22.1z"/>
		<path class="st1" d="M12.2,22.6c-0.5,0-0.9-0.3-1-0.8c-0.1-0.5,0.3-1.1,0.8-1.1c0.5-0.1,1.1,0.3,1.2,0.8c0.1,0.5-0.2,1.1-0.8,1.1
			l-0.1,0C12.3,22.6,12.2,22.6,12.2,22.6z"/>
		<path class="st1" d="M11.7,19.6c-0.5,0-0.9-0.3-1-0.8c-0.1-0.5,0.3-1.1,0.8-1.2c0.5-0.1,1.1,0.3,1.2,0.8c0.1,0.5-0.2,1.1-0.8,1.1
			l-0.1,0C11.8,19.6,11.7,19.6,11.7,19.6z"/>
		<path class="st1" d="M8.2,20.3c-0.5,0-0.9-0.4-1-0.8c-0.1-0.5,0.3-1.1,0.8-1.1c0.5-0.1,1.1,0.3,1.2,0.8c0.1,0.6-0.2,1.1-0.8,1.1
			l-0.1,0C8.3,20.3,8.2,20.3,8.2,20.3z"/>
		<path class="st1" d="M8.7,23.2c-0.5,0-0.9-0.4-1-0.8c-0.1-0.6,0.3-1.1,0.8-1.2c0.5-0.1,1.1,0.3,1.2,0.8c0.1,0.5-0.2,1-0.8,1.1
			l-0.1,0C8.8,23.2,8.7,23.2,8.7,23.2z"/>
		<path class="st1" d="M4.8,20.9c-0.5,0-0.9-0.4-1-0.8c-0.1-0.5,0.3-1.1,0.8-1.2c0.5-0.1,1.1,0.3,1.2,0.8c0.1,0.5-0.2,1-0.8,1.1
			l-0.1,0C4.9,20.9,4.8,20.9,4.8,20.9z"/>
		<path class="st1" d="M5.3,23.9c-0.5,0-0.9-0.4-1-0.8c-0.1-0.5,0.3-1.1,0.8-1.2c0.5-0.1,1.1,0.3,1.2,0.8c0.1,0.5-0.2,1-0.8,1.1
			l-0.1,0C5.4,23.9,5.3,23.9,5.3,23.9z"/>
	</g>
</g>
</svg>
