<?xml version="1.0" encoding="utf-8"?>
<!-- Generator: Adobe Illustrator 23.0.6, SVG Export Plug-In . SVG Version: 6.00 Build 0)  -->
<svg version="1.1" id="Layer_1" xmlns="http://www.w3.org/2000/svg" xmlns:xlink="http://www.w3.org/1999/xlink" x="0px" y="0px"
	 width="18px" height="18px" viewBox="0 0 18 18" style="enable-background:new 0 0 18 18;" xml:space="preserve">
<style type="text/css">
	.st0{fill:#ee7800;}
</style>
<path class="st0" d="M17,15.1C17,15.1,17.1,15.1,17,15.1c0.1,0,0.1,0,0.1,0c0,0,0.1,0,0.1,0c0,0,0,0,0,0c0,0,0.1,0,0.1,0h0
	c0,0,0.1,0,0.1,0c0,0,0.1,0,0.1-0.1c0,0,0.1,0,0.1-0.1c0,0,0,0,0,0c0,0,0,0,0.1-0.1c0,0,0,0,0,0c0,0,0,0,0.1-0.1l0,0
	c0,0,0,0,0.1-0.1c0,0,0,0,0,0c0,0,0-0.1,0.1-0.1c0,0,0,0,0,0c0.1-0.1,0.1-0.3,0.1-0.4c0,0,0,0,0,0c0,0,0,0,0-0.1c0,0,0,0,0-0.1
	c0,0,0,0,0,0c0-0.1,0-0.2-0.1-0.2c0,0,0,0,0,0c0,0,0,0,0,0c0,0,0,0,0-0.1c-0.1-0.2-0.2-0.3-0.4-0.4c-0.2-0.1-0.3-0.1-0.5-0.1
	c-0.3,0-0.7,0.2-0.9,0.5c-0.2,0.3-0.2,0.6,0,0.9l0,0c0,0,0,0.1,0,0.1c0,0,0,0,0,0c0,0,0,0,0,0c0,0,0,0,0,0c0,0,0,0,0,0.1
	c0,0,0,0,0,0c0,0,0,0,0.1,0.1c0,0,0,0,0,0c0,0,0,0,0.1,0.1l0,0c0,0,0.1,0,0.1,0.1c0,0,0,0,0,0c0,0,0,0,0,0c0,0,0,0,0,0c0,0,0,0,0,0
	c0,0,0,0,0,0c0,0,0,0,0,0c0,0,0,0,0.1,0h0c0,0,0,0,0.1,0C16.9,15.1,16.9,15.1,17,15.1z"/>
<path class="st0" d="M1,15.1c-0.1,0-0.3,0-0.4-0.1c-0.5-0.2-0.7-0.8-0.5-1.3l5-10.2C5.3,2.9,5.9,2.7,6.4,3c0.5,0.2,0.7,0.8,0.5,1.3
	l-5,10.2C1.7,14.9,1.4,15.1,1,15.1z"/>
<path class="st0" d="M11.9,13.7l-4.4-9L6.4,7l3.7,7.6c0.2,0.4,0.5,0.6,0.9,0.6c0.1,0,0.3,0,0.4-0.1C11.9,14.8,12.1,14.2,11.9,13.7z"
	/>
<path class="st0" d="M12.4,3c-0.5-0.2-1.1,0-1.3,0.5L9.4,6.9l1.1,2.3l2.4-4.9C13.1,3.8,12.9,3.2,12.4,3z"/>
<path class="st0" d="M13.5,4.7L12.4,7l3.1,6.3c0,0,0,0,0,0c0.3-0.5,0.9-0.9,1.5-0.9c0.1,0,0.2,0,0.3,0L13.5,4.7z"/>
</svg>
