<?xml version="1.0" encoding="utf-8"?>
<!-- Generator: Adobe Illustrator 23.0.6, SVG Export Plug-In . SVG Version: 6.00 Build 0)  -->
<svg version="1.1" id="Layer_1" xmlns="http://www.w3.org/2000/svg" xmlns:xlink="http://www.w3.org/1999/xlink" x="0px" y="0px"
	 width="23px" height="23px" viewBox="0 0 23 23" style="enable-background:new 0 0 23 23;" xml:space="preserve">
<style type="text/css">
	.st0{fill:#EE7800;}
</style>
<path class="st0" d="M16.3,18.7H6.2c-0.5,0-1-0.4-1-1c0-0.5,0.5-1,1-1h10.1c0.5,0,1,0.5,1,1C17.4,18.3,16.9,18.7,16.3,18.7z"/>
<path class="st0" d="M13,22.4H9.6c-0.6,0-1-0.5-1-1c0-0.6,0.4-1,1-1H13c0.5,0,1,0.4,1,1C14,21.9,13.5,22.4,13,22.4z"/>
<path class="st0" d="M18,15H4.5c-0.5,0-1-0.4-1-1s0.5-1,1-1H18c0.6,0,1,0.4,1,1S18.6,15,18,15z"/>
<path class="st0" d="M15.1,14.7c-0.3,0-0.7-0.2-0.9-0.5c-0.3-0.5-0.1-1.1,0.4-1.4c0.5-0.3,1.2-1,1.4-2c0.2-0.8,0-1.6-0.5-2.4
	c-0.6-0.9-0.9-1.8-1.1-2.5c-0.3,0.6-0.5,1.4-0.6,2.5c-0.1,0.5-0.5,0.9-1,0.9c-0.5,0-1-0.5-1-1c0-1.2-0.6-2.5-1-3.6
	c-0.1-0.2-0.1-0.4-0.2-0.5c-0.3,1.3-0.4,2.7-0.4,3.3c0,0.6-0.4,1-0.9,1.1c-0.5,0-1-0.4-1.1-0.9c0,0,0-0.3-0.2-0.8
	C7.9,7.7,7.7,8.5,7.2,9.3C6.2,11.1,8,13,8.1,13c0.4,0.4,0.4,1,0,1.4c-0.4,0.4-1,0.4-1.4,0c-0.1-0.1-2.9-3-1.1-6.2
	c0.7-1.2,0.8-2.9,0.7-4.1c0-0.4,0.2-0.7,0.5-0.9c0.3-0.2,0.7-0.2,1,0C8.1,3.5,8.4,3.7,8.6,4c0.3-1.3,0.9-2.7,1.9-3.7
	c0.4-0.4,1-0.4,1.4,0s0.4,1,0,1.4c-0.2,0.2,0.4,1.7,0.7,2.3c0.1,0.2,0.2,0.4,0.2,0.6c0.9-1.6,2.2-2,2.4-2.1c0.3-0.1,0.7,0,1,0.2
	c0.3,0.2,0.4,0.6,0.3,1c-0.3,1.1-0.4,2.1,0.6,3.6c1.1,1.6,1.1,3.1,0.8,4c-0.3,1.3-1.2,2.6-2.4,3.2C15.4,14.7,15.3,14.7,15.1,14.7z"
	/>
</svg>
