<?xml version="1.0" encoding="utf-8"?>
<!-- Generator: Adobe Illustrator 23.0.6, SVG Export Plug-In . SVG Version: 6.00 Build 0)  -->
<svg version="1.1" id="Layer_1" xmlns="http://www.w3.org/2000/svg" xmlns:xlink="http://www.w3.org/1999/xlink" x="0px" y="0px"
	 width="18px" height="18px" viewBox="0 0 18 18" style="enable-background:new 0 0 18 18;" xml:space="preserve">
<style type="text/css">
	.st0{fill:#ee7800;}
</style>
<path class="st0" d="M14.9,12.1H2.9c-0.3,0-0.7-0.2-0.8-0.6L1.4,8.9c-0.1-0.2,0-0.5,0.1-0.7C1.6,8,1.8,7.9,2,7.9l1.2-0.1V5.8
	C3.3,5.4,3.6,5,4.1,5h5.7c0.4,0,0.8,0.4,0.8,0.8v1.3l5.8-0.5c0.3,0,0.5,0.1,0.7,0.3c0.2,0.2,0.2,0.5,0.1,0.8l-1.6,3.9
	C15.5,11.9,15.2,12.1,14.9,12.1z M3.5,10.6h10.8l0.9-2.3L9.8,8.8c-0.2,0-0.4-0.1-0.6-0.2C9.1,8.4,9,8.2,9,8V6.6H4.8v1.9
	c0,0.4-0.3,0.7-0.7,0.8l-1,0.1L3.5,10.6z M9.6,3.8H4.1c-0.4,0-0.8-0.4-0.8-0.8s0.4-0.8,0.8-0.8h5.4c0.4,0,0.8,0.4,0.8,0.8
	S10,3.8,9.6,3.8z"/>
<path class="st0" d="M17.2,14.9H0.8c-0.4,0-0.8-0.4-0.8-0.8c0-0.4,0.4-0.8,0.8-0.8h16.4c0.4,0,0.8,0.4,0.8,0.8
	C18,14.6,17.6,14.9,17.2,14.9z"/>
</svg>
