<svg xmlns="http://www.w3.org/2000/svg" width="1057" height="224" viewBox="0 0 1057 224" fill="none">
<rect x="853.398" y="39.668" width="201.557" height="56.8218" rx="4.28844" fill="#F4F3FD"/>
<rect x="853.398" y="101.85" width="201.557" height="56.8218" rx="4.28844" fill="#F4F3FD"/>
<rect x="853.398" y="164.033" width="201.557" height="56.8218" rx="4.28844" fill="#F4F3FD"/>
<path d="M899.844 12.0554C899.391 9.22051 897.171 7.56361 894.368 7.56361C890.938 7.56361 888.407 10.1331 888.407 14.3724C888.407 18.6117 890.925 21.1812 894.368 21.1812C897.281 21.1812 899.41 19.356 899.844 16.7348L897.824 16.7283C897.481 18.424 896.058 19.356 894.381 19.356C892.109 19.356 890.394 17.615 890.394 14.3724C890.394 11.1557 892.103 9.38878 894.388 9.38878C896.077 9.38878 897.494 10.3402 897.824 12.0554H899.844ZM906.269 21.2006C909.072 21.2006 910.903 19.1489 910.903 16.0746C910.903 12.9809 909.072 10.9292 906.269 10.9292C903.467 10.9292 901.635 12.9809 901.635 16.0746C901.635 19.1489 903.467 21.2006 906.269 21.2006ZM906.276 19.5761C904.444 19.5761 903.59 17.9775 903.59 16.0681C903.59 14.1653 904.444 12.5472 906.276 12.5472C908.094 12.5472 908.949 14.1653 908.949 16.0681C908.949 17.9775 908.094 19.5761 906.276 19.5761ZM914.999 15.0973C914.999 13.5116 915.969 12.6055 917.316 12.6055C918.629 12.6055 919.426 13.4663 919.426 14.9096V21H921.361V14.6766C921.361 12.2172 920.008 10.9292 917.976 10.9292C916.481 10.9292 915.503 11.6217 915.044 12.6767H914.921V11.0586H913.063V21H914.999V15.0973ZM928.597 11.0586H926.558V8.67684H924.623V11.0586H923.167V12.612H924.623V18.4823C924.616 20.2881 925.995 21.1618 927.522 21.1294C928.137 21.123 928.551 21.0065 928.778 20.9223L928.428 19.3237C928.299 19.3496 928.06 19.4078 927.749 19.4078C927.121 19.4078 926.558 19.2007 926.558 18.081V12.612H928.597V11.0586ZM933.631 21.2201C935.274 21.2201 936.2 20.3851 936.569 19.6408H936.647V21H938.536V14.3983C938.536 11.5052 936.258 10.9292 934.679 10.9292C932.88 10.9292 931.223 11.6541 930.576 13.4663L932.394 13.8805C932.679 13.175 933.404 12.4955 934.705 12.4955C935.954 12.4955 936.595 13.1492 936.595 14.2753V14.3206C936.595 15.0261 935.87 15.0132 934.084 15.2203C932.2 15.4403 930.271 15.9322 930.271 18.191C930.271 20.1457 931.741 21.2201 933.631 21.2201ZM934.051 19.6667C932.957 19.6667 932.168 19.1748 932.168 18.2169C932.168 17.1814 933.087 16.8125 934.207 16.6636C934.834 16.5795 936.323 16.4112 936.601 16.1329V17.4144C936.601 18.5923 935.663 19.6667 934.051 19.6667ZM945.302 21.2006C947.651 21.2006 949.172 19.7897 949.386 17.8545H947.502C947.256 18.9289 946.421 19.5632 945.315 19.5632C943.677 19.5632 942.622 18.1975 942.622 16.0293C942.622 13.8999 943.696 12.5602 945.315 12.5602C946.544 12.5602 947.295 13.3369 947.502 14.2689H949.386C949.178 12.2625 947.541 10.9292 945.282 10.9292C942.48 10.9292 940.667 13.0391 940.667 16.0746C940.667 19.0713 942.415 21.2006 945.302 21.2006ZM956.096 11.0586H954.057V8.67684H952.122V11.0586H950.665V12.612H952.122V18.4823C952.115 20.2881 953.494 21.1618 955.021 21.1294C955.636 21.123 956.05 21.0065 956.277 20.9223L955.927 19.3237C955.798 19.3496 955.559 19.4078 955.248 19.4078C954.62 19.4078 954.057 19.2007 954.057 18.081V12.612H956.096V11.0586ZM963.06 24.728H964.995V19.4531H965.112C965.461 20.0874 966.173 21.1942 967.985 21.1942C970.393 21.1942 972.14 19.2654 972.14 16.0487C972.14 12.8255 970.367 10.9292 967.966 10.9292C966.121 10.9292 965.455 12.0554 965.112 12.6702H964.95V11.0586H963.06V24.728ZM964.956 16.0293C964.956 13.9517 965.862 12.5731 967.552 12.5731C969.306 12.5731 970.186 14.0553 970.186 16.0293C970.186 18.0228 969.28 19.5437 967.552 19.5437C965.888 19.5437 964.956 18.1198 964.956 16.0293ZM978.496 21.2006C981.299 21.2006 983.13 19.1489 983.13 16.0746C983.13 12.9809 981.299 10.9292 978.496 10.9292C975.694 10.9292 973.862 12.9809 973.862 16.0746C973.862 19.1489 975.694 21.2006 978.496 21.2006ZM978.503 19.5761C976.671 19.5761 975.817 17.9775 975.817 16.0681C975.817 14.1653 976.671 12.5472 978.503 12.5472C980.321 12.5472 981.176 14.1653 981.176 16.0681C981.176 17.9775 980.321 19.5761 978.503 19.5761ZM985.29 21H987.226V11.0586H985.29V21ZM986.268 9.5247C986.934 9.5247 987.491 9.00692 987.491 8.37264C987.491 7.73836 986.934 7.21411 986.268 7.21411C985.595 7.21411 985.044 7.73836 985.044 8.37264C985.044 9.00692 985.595 9.5247 986.268 9.5247ZM991.764 15.0973C991.764 13.5116 992.735 12.6055 994.081 12.6055C995.395 12.6055 996.191 13.4663 996.191 14.9096V21H998.126V14.6766C998.126 12.2172 996.774 10.9292 994.742 10.9292C993.246 10.9292 992.269 11.6217 991.81 12.6767H991.687V11.0586H989.829V21H991.764V15.0973ZM1005.36 11.0586H1003.32V8.67684H1001.39V11.0586H999.932V12.612H1001.39V18.4823C1001.38 20.2881 1002.76 21.1618 1004.29 21.1294C1004.9 21.123 1005.32 21.0065 1005.54 20.9223L1005.19 19.3237C1005.06 19.3496 1004.83 19.4078 1004.51 19.4078C1003.89 19.4078 1003.32 19.2007 1003.32 18.081V12.612H1005.36V11.0586ZM1014.79 13.4857C1014.39 11.9389 1013.18 10.9292 1011.03 10.9292C1008.79 10.9292 1007.19 12.1136 1007.19 13.8741C1007.19 15.285 1008.05 16.2235 1009.91 16.6377L1011.6 17.0066C1012.55 17.2202 1013 17.6474 1013 18.2687C1013 19.0389 1012.18 19.6408 1010.91 19.6408C1009.75 19.6408 1009.01 19.1425 1008.77 18.1652L1006.9 18.4499C1007.23 20.2104 1008.69 21.2006 1010.92 21.2006C1013.32 21.2006 1014.99 19.9256 1014.99 18.1263C1014.99 16.7218 1014.09 15.8546 1012.27 15.4339L1010.69 15.0714C1009.6 14.8125 1009.12 14.4436 1009.13 13.7705C1009.12 13.0068 1009.95 12.4631 1011.05 12.4631C1012.26 12.4631 1012.81 13.1297 1013.04 13.7964L1014.79 13.4857ZM1018.39 13.887C1019.09 13.887 1019.68 13.311 1019.68 12.5925C1019.68 11.8871 1019.09 11.3046 1018.39 11.3046C1017.68 11.3046 1017.1 11.8871 1017.1 12.5925C1017.1 13.311 1017.68 13.887 1018.39 13.887ZM1018.39 21.123C1019.09 21.123 1019.68 20.5469 1019.68 19.8285C1019.68 19.123 1019.09 18.5405 1018.39 18.5405C1017.68 18.5405 1017.1 19.123 1017.1 19.8285C1017.1 20.5469 1017.68 21.123 1018.39 21.123Z" fill="#454554"/>
<path d="M948.214 136.85H957.095V135.027H950.331V130.731H956.554V128.915H950.331V124.638H957.013V122.815H948.214V136.85ZM959.677 136.85H961.726V130.361C961.726 128.942 962.72 127.955 963.885 127.955C965.022 127.955 965.811 128.709 965.811 129.853V136.85H967.853V130.141C967.853 128.873 968.627 127.955 969.963 127.955C971.046 127.955 971.937 128.558 971.937 129.984V136.85H973.986V129.792C973.986 127.386 972.643 126.187 970.738 126.187C969.223 126.187 968.086 126.914 967.579 128.037H967.469C967.01 126.886 966.044 126.187 964.639 126.187C963.247 126.187 962.213 126.879 961.774 128.037H961.644V126.324H959.677V136.85ZM979.796 137.083C981.536 137.083 982.516 136.199 982.907 135.411H982.989V136.85H984.99V129.86C984.99 126.797 982.578 126.187 980.906 126.187C979.001 126.187 977.246 126.955 976.561 128.873L978.487 129.312C978.788 128.565 979.556 127.846 980.933 127.846C982.256 127.846 982.934 128.538 982.934 129.73V129.778C982.934 130.525 982.167 130.511 980.275 130.731C978.281 130.964 976.239 131.484 976.239 133.876C976.239 135.946 977.795 137.083 979.796 137.083ZM980.241 135.439C979.083 135.439 978.247 134.918 978.247 133.904C978.247 132.807 979.22 132.416 980.406 132.259C981.07 132.17 982.647 131.992 982.941 131.697V133.054C982.941 134.301 981.948 135.439 980.241 135.439ZM987.719 136.85H989.768V126.324H987.719V136.85ZM988.754 124.7C989.46 124.7 990.049 124.152 990.049 123.48C990.049 122.809 989.46 122.254 988.754 122.254C988.042 122.254 987.459 122.809 987.459 123.48C987.459 124.152 988.042 124.7 988.754 124.7ZM994.574 122.815H992.525V136.85H994.574V122.815Z" fill="#454554"/>
<rect x="226.215" y="110.427" width="134.014" height="38.2483" rx="19.1241" fill="#FB9D5A"/>
<path d="M265.523 135.793H273.529V134.072H267.523V122.538H265.523V135.793ZM278.548 136.013C280.192 136.013 281.118 135.178 281.487 134.434H281.564V135.793H283.454V129.192C283.454 126.299 281.176 125.723 279.597 125.723C277.798 125.723 276.141 126.447 275.494 128.26L277.312 128.674C277.597 127.968 278.322 127.289 279.623 127.289C280.872 127.289 281.513 127.942 281.513 129.069V129.114C281.513 129.819 280.788 129.807 279.001 130.014C277.118 130.234 275.189 130.726 275.189 132.984C275.189 134.939 276.659 136.013 278.548 136.013ZM278.969 134.46C277.875 134.46 277.086 133.968 277.086 133.01C277.086 131.975 278.005 131.606 279.124 131.457C279.752 131.373 281.241 131.205 281.519 130.926V132.208C281.519 133.386 280.581 134.46 278.969 134.46ZM286.187 135.793H288.077V134.246H288.239C288.589 134.881 289.3 135.988 291.113 135.988C293.52 135.988 295.268 134.059 295.268 130.842C295.268 127.619 293.494 125.723 291.093 125.723C289.249 125.723 288.582 126.849 288.239 127.464H288.122V122.538H286.187V135.793ZM288.084 130.823C288.084 128.745 288.99 127.366 290.679 127.366C292.433 127.366 293.313 128.849 293.313 130.823C293.313 132.816 292.407 134.337 290.679 134.337C289.016 134.337 288.084 132.913 288.084 130.823ZM301.726 135.994C303.894 135.994 305.428 134.926 305.868 133.308L304.036 132.978C303.687 133.916 302.845 134.395 301.745 134.395C300.088 134.395 298.975 133.321 298.923 131.405H305.991V130.719C305.991 127.127 303.842 125.723 301.59 125.723C298.82 125.723 296.994 127.832 296.994 130.887C296.994 133.975 298.794 135.994 301.726 135.994ZM298.93 129.955C299.007 128.544 300.03 127.321 301.603 127.321C303.104 127.321 304.088 128.434 304.094 129.955H298.93ZM310.073 122.538H308.138V135.793H310.073V122.538ZM320.126 128.279C319.725 126.732 318.515 125.723 316.366 125.723C314.12 125.723 312.528 126.907 312.528 128.667C312.528 130.078 313.382 131.017 315.246 131.431L316.929 131.8C317.887 132.014 318.333 132.441 318.333 133.062C318.333 133.832 317.511 134.434 316.243 134.434C315.084 134.434 314.34 133.936 314.107 132.958L312.236 133.243C312.56 135.004 314.023 135.994 316.256 135.994C318.657 135.994 320.32 134.719 320.32 132.92C320.32 131.515 319.427 130.648 317.602 130.227L316.023 129.865C314.929 129.606 314.456 129.237 314.463 128.564C314.456 127.8 315.285 127.256 316.385 127.256C317.589 127.256 318.146 127.923 318.372 128.59L320.126 128.279Z" fill="#454554"/>
<path opacity="0.8" d="M846.462 131.366C846.776 131.052 846.776 130.543 846.462 130.229L841.345 125.112C841.031 124.798 840.522 124.798 840.208 125.112C839.894 125.426 839.894 125.935 840.208 126.249L844.757 130.797L840.208 135.346C839.894 135.66 839.894 136.169 840.208 136.483C840.522 136.797 841.031 136.797 841.345 136.483L846.462 131.366ZM739.755 131.601H845.894V129.993H739.755V131.601Z" fill="#9584EB"/>
<path opacity="0.8" d="M846.463 71.3279C846.777 71.0138 846.777 70.5047 846.463 70.1907L841.346 65.0736C841.032 64.7596 840.523 64.7596 840.209 65.0736C839.895 65.3876 839.895 65.8967 840.209 66.2107L844.757 70.7593L840.209 75.3079C839.895 75.6219 839.895 76.131 840.209 76.445C840.523 76.759 841.032 76.759 841.346 76.445L846.463 71.3279ZM797.649 71.5634L845.894 71.5634L845.894 69.9552L797.649 69.9552L797.649 71.5634Z" fill="#9584EB"/>
<g opacity="0.8">
<path d="M846.463 192.476C846.777 192.162 846.777 191.653 846.463 191.339L841.346 186.222C841.032 185.908 840.522 185.908 840.208 186.222C839.894 186.536 839.894 187.045 840.208 187.359L844.757 191.907L840.208 196.456C839.894 196.77 839.894 197.279 840.208 197.593C840.522 197.907 841.032 197.907 841.346 197.593L846.463 192.476ZM797.649 192.711L845.894 192.711L845.894 191.103L797.649 191.103L797.649 192.711Z" fill="#9584EB"/>
<line x1="798.453" y1="70.4985" x2="798.453" y2="191.908" stroke="#9584EB" stroke-width="1.60816"/>
</g>
<rect x="683.701" y="36.2391" width="132.073" height="132.073" transform="rotate(45 683.701 36.2391)" fill="#CEC6F6"/>
<path d="M643.2 113.1H641.219V122.834H641.096L634.352 113.1H632.501V126.355H634.501V116.634H634.624L641.362 126.355H643.2V113.1ZM650.149 126.556C652.952 126.556 654.784 124.504 654.784 121.43C654.784 118.336 652.952 116.284 650.149 116.284C647.347 116.284 645.515 118.336 645.515 121.43C645.515 124.504 647.347 126.556 650.149 126.556ZM650.156 124.931C648.324 124.931 647.47 123.332 647.47 121.423C647.47 119.52 648.324 117.902 650.156 117.902C651.975 117.902 652.829 119.52 652.829 121.423C652.829 123.332 651.975 124.931 650.156 124.931ZM661.584 116.414H659.545V114.032H657.61V116.414H656.154V117.967H657.61V123.837C657.604 125.643 658.982 126.517 660.51 126.484C661.125 126.478 661.539 126.361 661.765 126.277L661.416 124.679C661.287 124.705 661.047 124.763 660.736 124.763C660.109 124.763 659.545 124.556 659.545 123.436V117.967H661.584V116.414ZM663.725 126.355H665.66V116.414H663.725V126.355ZM664.702 114.88C665.369 114.88 665.926 114.362 665.926 113.728C665.926 113.093 665.369 112.569 664.702 112.569C664.029 112.569 663.479 113.093 663.479 113.728C663.479 114.362 664.029 114.88 664.702 114.88ZM672.995 116.414H670.853V115.52C670.853 114.64 671.215 114.161 672.16 114.161C672.561 114.161 672.846 114.252 673.027 114.31L673.48 112.744C673.208 112.64 672.645 112.478 671.862 112.478C670.289 112.478 668.911 113.398 668.911 115.262V116.414H667.377V117.967H668.911V126.355H670.853V117.967H672.995V116.414ZM674.992 126.355H676.927V116.414H674.992V126.355ZM675.969 114.88C676.635 114.88 677.192 114.362 677.192 113.728C677.192 113.093 676.635 112.569 675.969 112.569C675.296 112.569 674.746 113.093 674.746 113.728C674.746 114.362 675.296 114.88 675.969 114.88ZM683.718 126.556C686.067 126.556 687.588 125.145 687.802 123.209H685.918C685.672 124.284 684.837 124.918 683.731 124.918C682.093 124.918 681.038 123.552 681.038 121.384C681.038 119.255 682.113 117.915 683.731 117.915C684.96 117.915 685.711 118.692 685.918 119.624H687.802C687.595 117.617 685.957 116.284 683.698 116.284C680.896 116.284 679.084 118.394 679.084 121.43C679.084 124.426 680.831 126.556 683.718 126.556ZM692.764 126.575C694.408 126.575 695.334 125.74 695.703 124.996H695.78V126.355H697.67V119.753C697.67 116.86 695.392 116.284 693.813 116.284C692.014 116.284 690.357 117.009 689.709 118.821L691.528 119.236C691.813 118.53 692.538 117.85 693.839 117.85C695.088 117.85 695.729 118.504 695.729 119.63V119.676C695.729 120.381 695.004 120.368 693.217 120.575C691.334 120.795 689.405 121.287 689.405 123.546C689.405 125.501 690.874 126.575 692.764 126.575ZM693.185 125.022C692.091 125.022 691.302 124.53 691.302 123.572C691.302 122.536 692.221 122.167 693.34 122.019C693.968 121.934 695.457 121.766 695.735 121.488V122.769C695.735 123.947 694.797 125.022 693.185 125.022ZM704.888 116.414H702.85V114.032H700.915V116.414H699.458V117.967H700.915V123.837C700.908 125.643 702.287 126.517 703.814 126.484C704.429 126.478 704.843 126.361 705.07 126.277L704.72 124.679C704.591 124.705 704.351 124.763 704.041 124.763C703.413 124.763 702.85 124.556 702.85 123.436V117.967H704.888V116.414ZM707.029 126.355H708.964V116.414H707.029V126.355ZM708.006 114.88C708.673 114.88 709.23 114.362 709.23 113.728C709.23 113.093 708.673 112.569 708.006 112.569C707.333 112.569 706.783 113.093 706.783 113.728C706.783 114.362 707.333 114.88 708.006 114.88ZM715.755 126.556C718.558 126.556 720.389 124.504 720.389 121.43C720.389 118.336 718.558 116.284 715.755 116.284C712.953 116.284 711.121 118.336 711.121 121.43C711.121 124.504 712.953 126.556 715.755 126.556ZM715.762 124.931C713.93 124.931 713.076 123.332 713.076 121.423C713.076 119.52 713.93 117.902 715.762 117.902C717.581 117.902 718.435 119.52 718.435 121.423C718.435 123.332 717.581 124.931 715.762 124.931ZM724.485 120.452C724.485 118.867 725.456 117.96 726.802 117.96C728.116 117.96 728.912 118.821 728.912 120.265V126.355H730.847V120.032C730.847 117.572 729.494 116.284 727.462 116.284C725.967 116.284 724.99 116.977 724.53 118.032H724.407V116.414H722.55V126.355H724.485V120.452ZM659.32 152.083H661.255V146.808H661.371C661.721 147.442 662.433 148.549 664.245 148.549C666.653 148.549 668.4 146.62 668.4 143.404C668.4 140.181 666.627 138.284 664.226 138.284C662.381 138.284 661.715 139.41 661.371 140.025H661.21V138.414H659.32V152.083ZM661.216 143.384C661.216 141.307 662.122 139.928 663.812 139.928C665.565 139.928 666.446 141.41 666.446 143.384C666.446 145.378 665.54 146.899 663.812 146.899C662.148 146.899 661.216 145.475 661.216 143.384ZM674.756 148.556C677.559 148.556 679.39 146.504 679.39 143.43C679.39 140.336 677.559 138.284 674.756 138.284C671.954 138.284 670.122 140.336 670.122 143.43C670.122 146.504 671.954 148.556 674.756 148.556ZM674.763 146.931C672.931 146.931 672.077 145.332 672.077 143.423C672.077 141.52 672.931 139.902 674.763 139.902C676.581 139.902 677.436 141.52 677.436 143.423C677.436 145.332 676.581 146.931 674.763 146.931ZM683.486 135.1H681.55V148.355H683.486V135.1ZM686.089 148.355H688.024V138.414H686.089V148.355ZM687.066 136.88C687.733 136.88 688.29 136.362 688.29 135.728C688.29 135.093 687.733 134.569 687.066 134.569C686.393 134.569 685.843 135.093 685.843 135.728C685.843 136.362 686.393 136.88 687.066 136.88ZM694.815 148.556C697.165 148.556 698.686 147.145 698.899 145.209H697.016C696.77 146.284 695.935 146.918 694.828 146.918C693.191 146.918 692.136 145.552 692.136 143.384C692.136 141.255 693.21 139.915 694.828 139.915C696.058 139.915 696.809 140.692 697.016 141.624H698.899C698.692 139.617 697.055 138.284 694.796 138.284C691.993 138.284 690.181 140.394 690.181 143.43C690.181 146.426 691.929 148.556 694.815 148.556ZM702.192 152.083C703.791 152.083 704.8 151.248 705.376 149.682L709.473 138.414H707.396L704.878 146.129H704.774L702.257 138.414H700.186L703.823 148.484L703.583 149.145C703.092 150.465 702.399 150.575 701.338 150.284L700.872 151.869C701.105 151.973 701.609 152.083 702.192 152.083Z" fill="#454554"/>
<ellipse opacity="0.5" cx="92.7374" cy="129.725" rx="92.7374" ry="93.2735" fill="#FDE8BE"/>
<circle cx="92.6783" cy="127.938" r="63.1353" fill="white"/>
<path d="M54.9102 136.355L56.127 132.847H61.3048L62.5151 136.355H64.638L59.868 123.1H57.5574L52.7873 136.355H54.9102ZM56.7095 131.164L58.6641 125.508H58.7677L60.7223 131.164H56.7095ZM68.3321 123.1H66.3969V136.355H68.3321V123.1ZM75.2202 136.556C77.3884 136.556 78.9223 135.488 79.3624 133.87L77.5308 133.54C77.1812 134.478 76.3399 134.957 75.2396 134.957C73.5827 134.957 72.4695 133.883 72.4177 131.967H79.4854V131.281C79.4854 127.689 77.3366 126.284 75.0842 126.284C72.3141 126.284 70.4889 128.394 70.4889 131.449C70.4889 134.537 72.2882 136.556 75.2202 136.556ZM72.4241 130.517C72.5018 129.106 73.5244 127.883 75.0972 127.883C76.5987 127.883 77.5825 128.996 77.589 130.517H72.4241ZM81.6325 136.355H83.5677V130.284C83.5677 128.983 84.5709 128.045 85.9431 128.045C86.3443 128.045 86.7974 128.116 86.9527 128.161V126.31C86.7586 126.284 86.3767 126.265 86.1308 126.265C84.9657 126.265 83.969 126.925 83.6066 127.993H83.503V126.414H81.6325V136.355ZM93.8554 126.414H91.8166V124.032H89.8814V126.414H88.4252V127.967H89.8814V133.838C89.8749 135.643 91.2535 136.517 92.781 136.485C93.3959 136.478 93.8101 136.362 94.0366 136.278L93.6871 134.679C93.5577 134.705 93.3182 134.763 93.0075 134.763C92.3797 134.763 91.8166 134.556 91.8166 133.436V127.967H93.8554V126.414ZM100.82 136.355H102.755V130.284C102.755 128.983 103.758 128.045 105.13 128.045C105.531 128.045 105.984 128.116 106.14 128.161V126.31C105.946 126.284 105.564 126.265 105.318 126.265C104.153 126.265 103.156 126.925 102.794 127.993H102.69V126.414H100.82V136.355ZM114.112 132.232C114.118 133.922 112.863 134.724 111.775 134.724C110.578 134.724 109.75 133.857 109.75 132.504V126.414H107.814V132.737C107.814 135.203 109.167 136.485 111.076 136.485C112.572 136.485 113.588 135.695 114.047 134.634H114.151V136.355H116.054V126.414H114.112V132.232ZM120.589 123.1H118.654V136.355H120.589V123.1ZM127.477 136.556C129.645 136.556 131.179 135.488 131.619 133.87L129.788 133.54C129.438 134.478 128.597 134.957 127.497 134.957C125.84 134.957 124.726 133.883 124.675 131.967H131.742V131.281C131.742 127.689 129.594 126.284 127.341 126.284C124.571 126.284 122.746 128.394 122.746 131.449C122.746 134.537 124.545 136.556 127.477 136.556ZM124.681 130.517C124.759 129.106 125.781 127.883 127.354 127.883C128.856 127.883 129.839 128.996 129.846 130.517H124.681Z" fill="#454554"/>
<path d="M220.583 130.294C220.897 129.98 220.897 129.471 220.583 129.157L215.466 124.039C215.152 123.725 214.643 123.725 214.329 124.039C214.015 124.353 214.015 124.863 214.329 125.177L218.877 129.725L214.329 134.274C214.015 134.588 214.015 135.097 214.329 135.411C214.643 135.725 215.152 135.725 215.466 135.411L220.583 130.294ZM155.456 130.529H198.456V128.921H155.456V130.529ZM198.456 130.529H220.014V128.921H198.456V130.529Z" fill="#9292A5"/>
<path d="M587.012 130.294C587.326 129.98 587.326 129.471 587.012 129.157L581.895 124.04C581.581 123.725 581.072 123.725 580.758 124.04C580.444 124.354 580.444 124.863 580.758 125.177L585.306 129.725L580.758 134.274C580.444 134.588 580.444 135.097 580.758 135.411C581.072 135.725 581.581 135.725 581.895 135.411L587.012 130.294ZM360.229 130.529H586.444V128.921H360.229V130.529Z" fill="#FB9D5A"/>
<rect x="377.115" y="114.036" width="183.867" height="31.4881" rx="15.7441" fill="white" stroke="#FB9D5A" stroke-width="1.60816"/>
<path d="M398.083 131.627C398.083 131.878 398.028 132.101 397.918 132.294C397.813 132.488 397.672 132.65 397.494 132.781C397.311 132.917 397.093 133.019 396.842 133.087C396.596 133.155 396.329 133.189 396.041 133.189C395.701 133.189 395.387 133.148 395.099 133.064C394.816 132.98 394.57 132.852 394.361 132.679C394.146 132.511 393.976 132.299 393.85 132.043C393.73 131.781 393.657 131.475 393.631 131.124H391.746C391.751 131.674 391.861 132.161 392.076 132.585C392.296 133.009 392.591 133.378 392.963 133.692C393.366 134.027 393.84 134.283 394.384 134.461C394.929 134.634 395.481 134.721 396.041 134.721C396.57 134.721 397.072 134.655 397.549 134.524C398.025 134.388 398.444 134.187 398.805 133.92C399.161 133.663 399.444 133.341 399.653 132.954C399.868 132.566 399.975 132.119 399.975 131.611C399.975 131.061 399.852 130.577 399.606 130.158C399.365 129.734 399.043 129.371 398.64 129.067C398.316 128.826 397.96 128.622 397.572 128.454C397.19 128.282 396.798 128.138 396.395 128.023C396.075 127.928 395.769 127.826 395.476 127.716C395.188 127.606 394.931 127.478 394.706 127.332C394.486 127.185 394.311 127.015 394.18 126.821C394.049 126.622 393.981 126.392 393.976 126.13C393.976 125.884 394.026 125.662 394.125 125.463C394.225 125.264 394.363 125.094 394.541 124.952C394.719 124.816 394.929 124.711 395.17 124.638C395.416 124.56 395.683 124.52 395.971 124.52C396.3 124.52 396.591 124.57 396.842 124.67C397.099 124.764 397.316 124.895 397.494 125.062C397.667 125.235 397.8 125.442 397.894 125.683C397.994 125.918 398.057 126.18 398.083 126.468H399.952C399.952 125.95 399.847 125.478 399.638 125.054C399.433 124.625 399.153 124.256 398.797 123.947C398.441 123.644 398.023 123.408 397.541 123.24C397.065 123.068 396.549 122.981 395.994 122.981C395.471 122.981 394.971 123.055 394.494 123.201C394.023 123.343 393.61 123.549 393.254 123.822C392.898 124.099 392.615 124.434 392.406 124.827C392.196 125.214 392.091 125.651 392.091 126.138C392.091 126.588 392.18 126.994 392.358 127.355C392.542 127.711 392.793 128.03 393.112 128.313C393.432 128.591 393.816 128.842 394.267 129.067C394.722 129.287 395.219 129.473 395.758 129.624C396.109 129.724 396.426 129.836 396.709 129.962C396.997 130.082 397.245 130.219 397.455 130.37C397.654 130.533 397.808 130.716 397.918 130.92C398.028 131.124 398.083 131.36 398.083 131.627ZM405.794 134.728C406.621 134.728 407.325 134.566 407.906 134.242C408.492 133.917 408.927 133.551 409.21 133.142L408.204 132.169C407.943 132.504 407.61 132.763 407.207 132.946C406.804 133.124 406.37 133.213 405.904 133.213C405.563 133.213 405.249 133.155 404.961 133.04C404.679 132.925 404.433 132.763 404.223 132.553C404.014 132.354 403.849 132.129 403.729 131.878C403.608 131.627 403.519 131.315 403.462 130.944V130.904H409.351V130.096C409.351 129.488 409.27 128.928 409.108 128.415C408.945 127.902 408.704 127.46 408.385 127.088C408.066 126.722 407.671 126.436 407.199 126.232C406.728 126.023 406.186 125.918 405.574 125.918C405.024 125.918 404.506 126.023 404.019 126.232C403.538 126.436 403.114 126.73 402.747 127.112C402.381 127.494 402.093 127.954 401.883 128.494C401.674 129.033 401.569 129.635 401.569 130.3V130.622C401.569 131.203 401.669 131.745 401.868 132.247C402.072 132.744 402.36 133.176 402.731 133.543C403.103 133.914 403.548 134.205 404.066 134.414C404.59 134.624 405.166 134.728 405.794 134.728ZM405.566 127.441C405.88 127.441 406.155 127.496 406.391 127.606C406.631 127.711 406.83 127.852 406.987 128.03C407.15 128.214 407.275 128.428 407.364 128.674C407.453 128.915 407.498 129.159 407.498 129.405V129.53H403.501C403.559 129.206 403.648 128.915 403.768 128.659C403.888 128.402 404.038 128.182 404.215 127.999C404.393 127.821 404.595 127.685 404.82 127.591C405.05 127.491 405.299 127.441 405.566 127.441ZM414.267 134.571H415.923L419.253 126.075H417.305L415.224 132.239L415.099 132.805L414.973 132.239L412.869 126.075H410.921L414.267 134.571ZM425.111 134.728C425.938 134.728 426.642 134.566 427.223 134.242C427.809 133.917 428.244 133.551 428.526 133.142L427.521 132.169C427.26 132.504 426.927 132.763 426.524 132.946C426.121 133.124 425.686 133.213 425.221 133.213C424.88 133.213 424.566 133.155 424.278 133.04C423.996 132.925 423.75 132.763 423.54 132.553C423.331 132.354 423.166 132.129 423.045 131.878C422.925 131.627 422.836 131.315 422.778 130.944V130.904H428.668V130.096C428.668 129.488 428.587 128.928 428.424 128.415C428.262 127.902 428.021 127.46 427.702 127.088C427.383 126.722 426.987 126.436 426.516 126.232C426.045 126.023 425.503 125.918 424.891 125.918C424.341 125.918 423.823 126.023 423.336 126.232C422.854 126.436 422.43 126.73 422.064 127.112C421.697 127.494 421.41 127.954 421.2 128.494C420.991 129.033 420.886 129.635 420.886 130.3V130.622C420.886 131.203 420.986 131.745 421.184 132.247C421.389 132.744 421.677 133.176 422.048 133.543C422.42 133.914 422.865 134.205 423.383 134.414C423.907 134.624 424.482 134.728 425.111 134.728ZM424.883 127.441C425.197 127.441 425.472 127.496 425.707 127.606C425.948 127.711 426.147 127.852 426.304 128.03C426.466 128.214 426.592 128.428 426.681 128.674C426.77 128.915 426.815 129.159 426.815 129.405V129.53H422.818C422.875 129.206 422.964 128.915 423.085 128.659C423.205 128.402 423.354 128.182 423.532 127.999C423.71 127.821 423.912 127.685 424.137 127.591C424.367 127.491 424.616 127.441 424.883 127.441ZM436.677 125.918C436.091 125.918 435.554 126.054 435.067 126.326C434.586 126.599 434.172 126.973 433.827 127.449L433.819 127.253L433.74 126.075H431.981V134.571H433.858V129.326C433.958 129.075 434.081 128.852 434.227 128.659C434.374 128.465 434.552 128.305 434.761 128.18C434.955 128.049 435.177 127.952 435.429 127.889C435.68 127.826 435.963 127.795 436.277 127.795C436.554 127.795 436.832 127.811 437.109 127.842C437.392 127.873 437.677 127.92 437.965 127.983L438.232 126.13C438.07 126.073 437.845 126.023 437.557 125.981C437.274 125.939 436.981 125.918 436.677 125.918ZM440.894 126.075V127.638H443.509V133.017H440.894V134.571H447.898V133.017H445.401V126.075H440.894ZM443.336 123.876C443.336 124.075 443.383 124.251 443.477 124.403C443.577 124.549 443.721 124.651 443.909 124.709C444.092 124.766 444.26 124.78 444.412 124.748C444.564 124.717 444.694 124.651 444.804 124.552C445.024 124.494 445.192 124.382 445.307 124.214C445.422 124.041 445.461 123.84 445.425 123.61C445.399 123.384 445.296 123.201 445.118 123.06C444.946 122.913 444.718 122.84 444.435 122.84C444.268 122.84 444.116 122.866 443.98 122.919C443.849 122.966 443.736 123.034 443.642 123.123C443.543 123.217 443.467 123.329 443.414 123.46C443.362 123.586 443.336 123.725 443.336 123.876ZM453.89 124.002H452.005V126.075H449.948V127.481H452.005V131.658C452.005 132.203 452.076 132.669 452.217 133.056C452.364 133.443 452.565 133.76 452.822 134.006C453.078 134.257 453.384 134.443 453.74 134.564C454.102 134.679 454.497 134.736 454.926 134.736C455.162 134.736 455.397 134.723 455.633 134.697C455.874 134.676 456.104 134.645 456.324 134.603C456.544 134.561 456.748 134.511 456.936 134.454C457.13 134.391 457.295 134.318 457.431 134.234L457.227 132.938C457.133 132.959 457.015 132.985 456.873 133.017C456.737 133.043 456.591 133.066 456.434 133.087C456.271 133.113 456.104 133.134 455.931 133.15C455.758 133.166 455.591 133.174 455.429 133.174C455.203 133.174 454.997 133.148 454.808 133.095C454.62 133.043 454.458 132.954 454.321 132.828C454.185 132.708 454.078 132.543 453.999 132.333C453.926 132.119 453.89 131.854 453.89 131.54V127.481H457.085V126.075H453.89V124.002ZM460.847 138.003C461.26 138.003 461.621 137.93 461.93 137.783C462.239 137.642 462.506 137.464 462.731 137.249C462.956 137.04 463.142 136.809 463.289 136.558C463.441 136.312 463.566 136.079 463.666 135.859L467.977 126.075H465.896L463.846 131.289L463.493 132.2L463.202 131.266L461.09 126.075H459.025L462.645 134.194L462.111 135.207C462.053 135.323 461.991 135.433 461.922 135.537C461.86 135.642 461.776 135.762 461.671 135.898C461.561 136.035 461.433 136.155 461.286 136.26C461.14 136.37 460.975 136.425 460.792 136.425C460.708 136.425 460.598 136.419 460.462 136.409C460.331 136.404 460.213 136.398 460.109 136.393L459.849 137.862C460.001 137.898 460.158 137.93 460.321 137.956C460.488 137.987 460.663 138.003 460.847 138.003ZM476.763 128.737V127.167H469.508V128.737H476.763ZM476.763 132.067V130.504H469.508V132.067H476.763ZM479.802 134.571H481.396L482.472 129.75L482.661 128.698L482.857 129.75L483.956 134.571H485.55L487.191 126.075H485.487L484.726 131.258L484.577 132.294L484.396 131.266L483.289 126.075H482.056L480.949 131.281L480.776 132.263L480.643 131.281L479.857 126.075H478.161L479.802 134.571ZM494.18 134.571H496.096V134.438C495.991 134.218 495.91 133.956 495.853 133.653C495.8 133.344 495.774 132.998 495.774 132.616V128.839C495.774 128.358 495.685 127.934 495.507 127.567C495.329 127.195 495.083 126.889 494.769 126.648C494.455 126.408 494.081 126.227 493.646 126.107C493.217 125.981 492.753 125.918 492.256 125.918C491.701 125.918 491.207 125.991 490.772 126.138C490.343 126.279 489.982 126.473 489.688 126.719C489.385 126.96 489.154 127.237 488.997 127.551C488.84 127.865 488.759 128.193 488.754 128.533H490.639C490.639 128.371 490.667 128.219 490.725 128.078C490.788 127.931 490.882 127.808 491.008 127.708C491.133 127.599 491.29 127.512 491.479 127.449C491.672 127.387 491.898 127.355 492.154 127.355C492.437 127.355 492.685 127.392 492.9 127.465C493.12 127.533 493.306 127.633 493.458 127.763C493.599 127.894 493.706 128.049 493.78 128.227C493.858 128.405 493.897 128.604 493.897 128.823V129.397H492.531C491.919 129.397 491.369 129.454 490.882 129.569C490.4 129.685 489.995 129.852 489.665 130.072C489.309 130.308 489.037 130.606 488.848 130.967C488.665 131.323 488.573 131.734 488.573 132.2C488.573 132.561 488.644 132.899 488.785 133.213C488.932 133.522 489.136 133.786 489.398 134.006C489.654 134.231 489.963 134.409 490.324 134.54C490.691 134.666 491.094 134.728 491.534 134.728C491.806 134.728 492.06 134.702 492.295 134.65C492.531 134.598 492.751 134.524 492.955 134.43C493.159 134.341 493.342 134.236 493.505 134.116C493.672 133.99 493.821 133.859 493.952 133.723C493.978 133.886 494.007 134.043 494.039 134.194C494.075 134.341 494.122 134.467 494.18 134.571ZM491.895 133.221C491.654 133.221 491.445 133.192 491.267 133.134C491.089 133.072 490.94 132.988 490.819 132.883C490.699 132.778 490.607 132.653 490.544 132.506C490.482 132.354 490.45 132.192 490.45 132.019C490.45 131.81 490.487 131.622 490.56 131.454C490.639 131.287 490.756 131.143 490.913 131.022C491.091 130.881 491.33 130.773 491.628 130.7C491.926 130.622 492.28 130.582 492.688 130.582H493.897V132.153C493.829 132.289 493.732 132.42 493.607 132.546C493.481 132.671 493.332 132.784 493.159 132.883C492.986 132.983 492.793 133.064 492.578 133.127C492.369 133.189 492.141 133.221 491.895 133.221ZM504.286 125.918C503.7 125.918 503.163 126.054 502.676 126.326C502.195 126.599 501.781 126.973 501.436 127.449L501.428 127.253L501.349 126.075H499.59V134.571H501.467V129.326C501.566 129.075 501.689 128.852 501.836 128.659C501.983 128.465 502.161 128.305 502.37 128.18C502.564 128.049 502.786 127.952 503.037 127.889C503.289 127.826 503.571 127.795 503.886 127.795C504.163 127.795 504.44 127.811 504.718 127.842C505.001 127.873 505.286 127.92 505.574 127.983L505.841 126.13C505.678 126.073 505.453 126.023 505.165 125.981C504.883 125.939 504.59 125.918 504.286 125.918ZM508.071 134.571H509.948V128.509C510.031 128.368 510.128 128.237 510.238 128.117C510.348 127.996 510.466 127.894 510.591 127.811C510.754 127.701 510.934 127.617 511.133 127.559C511.332 127.496 511.547 127.465 511.777 127.465C512.055 127.465 512.301 127.496 512.515 127.559C512.73 127.617 512.913 127.716 513.065 127.858C513.217 127.999 513.332 128.187 513.41 128.423C513.489 128.659 513.528 128.952 513.528 129.302V134.571H515.405V129.271C515.405 128.674 515.334 128.167 515.193 127.748C515.052 127.324 514.853 126.976 514.596 126.703C514.34 126.431 514.031 126.232 513.67 126.107C513.308 125.981 512.91 125.918 512.476 125.918C512.146 125.918 511.832 125.965 511.534 126.059C511.235 126.154 510.96 126.287 510.709 126.46C510.552 126.57 510.403 126.695 510.262 126.837C510.126 126.973 510 127.122 509.885 127.284L509.767 126.075H508.071V134.571ZM518.161 126.075V127.638H520.776V133.017H518.161V134.571H525.165V133.017H522.668V126.075H518.161ZM520.603 123.876C520.603 124.075 520.65 124.251 520.745 124.403C520.844 124.549 520.988 124.651 521.176 124.709C521.36 124.766 521.527 124.78 521.679 124.748C521.831 124.717 521.962 124.651 522.072 124.552C522.291 124.494 522.459 124.382 522.574 124.214C522.689 124.041 522.729 123.84 522.692 123.61C522.666 123.384 522.564 123.201 522.386 123.06C522.213 122.913 521.985 122.84 521.703 122.84C521.535 122.84 521.383 122.866 521.247 122.919C521.116 122.966 521.004 123.034 520.909 123.123C520.81 123.217 520.734 123.329 520.682 123.46C520.629 123.586 520.603 123.725 520.603 123.876ZM527.388 134.571H529.264V128.509C529.348 128.368 529.445 128.237 529.555 128.117C529.665 127.996 529.783 127.894 529.908 127.811C530.071 127.701 530.251 127.617 530.45 127.559C530.649 127.496 530.864 127.465 531.094 127.465C531.371 127.465 531.617 127.496 531.832 127.559C532.047 127.617 532.23 127.716 532.382 127.858C532.534 127.999 532.649 128.187 532.727 128.423C532.806 128.659 532.845 128.952 532.845 129.302V134.571H534.722V129.271C534.722 128.674 534.651 128.167 534.51 127.748C534.368 127.324 534.169 126.976 533.913 126.703C533.656 126.431 533.348 126.232 532.986 126.107C532.625 125.981 532.227 125.918 531.793 125.918C531.463 125.918 531.149 125.965 530.851 126.059C530.552 126.154 530.277 126.287 530.026 126.46C529.869 126.57 529.72 126.695 529.578 126.837C529.442 126.973 529.317 127.122 529.202 127.284L529.084 126.075H527.388V134.571ZM536.803 130.26V130.425C536.803 131.038 536.881 131.608 537.038 132.137C537.2 132.661 537.428 133.113 537.721 133.496C538.02 133.883 538.378 134.187 538.797 134.407C539.216 134.621 539.687 134.728 540.211 134.728C540.498 134.728 540.765 134.697 541.011 134.634C541.258 134.577 541.483 134.49 541.687 134.375C541.823 134.302 541.949 134.215 542.064 134.116C542.184 134.017 542.299 133.909 542.409 133.794V134.383C542.409 134.702 542.362 134.988 542.268 135.239C542.179 135.49 542.051 135.702 541.883 135.875C541.7 136.053 541.477 136.189 541.216 136.283C540.959 136.377 540.663 136.425 540.328 136.425C540.135 136.425 539.944 136.404 539.755 136.362C539.567 136.325 539.381 136.265 539.198 136.181C539.014 136.097 538.834 135.987 538.656 135.851C538.483 135.72 538.321 135.563 538.169 135.38L537.282 136.519C537.47 136.77 537.695 136.985 537.957 137.163C538.219 137.341 538.493 137.485 538.781 137.595C539.069 137.705 539.357 137.786 539.645 137.838C539.933 137.89 540.197 137.917 540.438 137.917C541.009 137.917 541.53 137.835 542.001 137.673C542.477 137.516 542.886 137.286 543.226 136.982C543.561 136.673 543.82 136.296 544.003 135.851C544.192 135.412 544.286 134.906 544.286 134.336V126.075H542.582L542.503 126.931C542.399 126.805 542.286 126.69 542.166 126.586C542.045 126.476 541.917 126.381 541.781 126.303C541.572 126.177 541.339 126.083 541.082 126.02C540.826 125.952 540.54 125.918 540.226 125.918C539.698 125.918 539.221 126.025 538.797 126.24C538.378 126.449 538.02 126.745 537.721 127.127C537.423 127.51 537.195 127.968 537.038 128.502C536.881 129.03 536.803 129.617 536.803 130.26ZM538.687 130.425V130.26C538.687 129.878 538.726 129.52 538.805 129.185C538.883 128.844 539.007 128.546 539.174 128.29C539.336 128.033 539.543 127.831 539.794 127.685C540.046 127.538 540.347 127.465 540.697 127.465C540.896 127.465 541.08 127.489 541.247 127.536C541.415 127.578 541.566 127.635 541.702 127.708C541.854 127.797 541.988 127.905 542.103 128.03C542.223 128.156 542.325 128.297 542.409 128.454V132.176C542.325 132.328 542.229 132.467 542.119 132.593C542.009 132.718 541.883 132.826 541.742 132.915C541.6 132.998 541.441 133.064 541.263 133.111C541.09 133.158 540.896 133.182 540.682 133.182C540.336 133.182 540.038 133.111 539.787 132.97C539.535 132.823 539.328 132.621 539.166 132.365C538.999 132.119 538.876 131.828 538.797 131.493C538.724 131.158 538.687 130.802 538.687 130.425Z" fill="#454554"/>
<path d="M935.753 75.6544L937.001 72.7558C938.35 73.7622 940.141 74.2856 941.913 74.2856C943.221 74.2856 944.046 73.7824 944.046 73.0174C944.026 70.8837 936.216 72.5545 936.156 67.2C936.135 64.4825 938.551 62.3891 941.973 62.3891C944.006 62.3891 946.039 62.8923 947.488 64.0397L946.321 66.9987C944.992 66.1533 943.342 65.5494 941.772 65.5494C940.705 65.5494 940 66.0526 940 66.6968C940.02 68.7902 947.891 67.6429 947.972 72.7558C947.972 75.5336 945.616 77.4862 942.235 77.4862C939.759 77.4862 937.484 76.9024 935.753 75.6544ZM983.641 71.709C983.017 72.796 981.85 73.5408 980.501 73.5408C978.508 73.5408 976.898 71.9304 976.898 69.9376C976.898 67.9448 978.508 66.3344 980.501 66.3344C981.85 66.3344 983.017 67.0792 983.641 68.1662L987.083 66.2539C985.795 63.9592 983.319 62.3891 980.501 62.3891C976.334 62.3891 972.952 65.7708 972.952 69.9376C972.952 74.1044 976.334 77.4862 980.501 77.4862C983.339 77.4862 985.795 75.9362 987.083 73.6213L983.641 71.709V71.709ZM949.703 56.1288H954.01V77.2044H949.703V56.1288ZM988.774 56.1288V77.2044H993.082V70.8837L998.195 77.2044H1003.71L997.208 69.6961L1003.23 62.691H997.953L993.082 68.5084V56.1288H988.774ZM966.813 71.7493C966.189 72.7759 964.9 73.5408 963.451 73.5408C961.458 73.5408 959.848 71.9304 959.848 69.9376C959.848 67.9448 961.458 66.3344 963.451 66.3344C964.9 66.3344 966.189 67.1396 966.813 68.1864V71.7493ZM966.813 62.691V64.402C966.108 63.2144 964.357 62.3891 962.525 62.3891C958.741 62.3891 955.762 65.7306 955.762 69.9175C955.762 74.1044 958.741 77.4862 962.525 77.4862C964.357 77.4862 966.108 76.6609 966.813 75.4732V77.1843H971.12V62.691H966.813Z" fill="#17171C"/>
<path d="M909.121 71.7283C909.121 73.1977 907.933 74.3854 906.464 74.3854C904.994 74.3854 903.807 73.1977 903.807 71.7283C903.807 70.2588 904.994 69.0712 906.464 69.0712H909.121V71.7283ZM910.449 71.7283C910.449 70.2588 911.637 69.0712 913.106 69.0712C914.576 69.0712 915.764 70.2588 915.764 71.7283V78.371C915.764 79.8405 914.576 81.0281 913.106 81.0281C911.637 81.0281 910.449 79.8405 910.449 78.371V71.7283Z" fill="#E01E5A"/>
<path d="M913.108 61.0638C911.639 61.0638 910.451 59.8762 910.451 58.4067C910.451 56.9373 911.639 55.7496 913.108 55.7496C914.578 55.7496 915.765 56.9373 915.765 58.4067V61.0638H913.108ZM913.108 62.4125C914.578 62.4125 915.765 63.6001 915.765 65.0696C915.765 66.5391 914.578 67.7267 913.108 67.7267H906.445C904.976 67.7267 903.788 66.5391 903.788 65.0696C903.788 63.6001 904.976 62.4125 906.445 62.4125H913.108Z" fill="#36C5F0"/>
<path d="M923.755 65.0695C923.755 63.6 924.943 62.4124 926.412 62.4124C927.882 62.4124 929.069 63.6 929.069 65.0695C929.069 66.5389 927.882 67.7266 926.412 67.7266H923.755V65.0695ZM922.426 65.0695C922.426 66.5389 921.239 67.7266 919.769 67.7266C918.3 67.7266 917.112 66.5389 917.112 65.0695V58.4066C917.112 56.9372 918.3 55.7495 919.769 55.7495C921.239 55.7495 922.426 56.9372 922.426 58.4066V65.0695V65.0695Z" fill="#2EB67D"/>
<path d="M919.769 75.7138C921.239 75.7138 922.426 76.9014 922.426 78.3709C922.426 79.8403 921.239 81.028 919.769 81.028C918.3 81.028 917.112 79.8403 917.112 78.3709V75.7138H919.769ZM919.769 74.3852C918.3 74.3852 917.112 73.1976 917.112 71.7281C917.112 70.2587 918.3 69.071 919.769 69.071H926.432C927.902 69.071 929.089 70.2587 929.089 71.7281C929.089 73.1976 927.902 74.3852 926.432 74.3852H919.769Z" fill="#ECB22E"/>
<g clip-path="url(#clip0_24577_386)">
<path d="M906.924 122.805C906.924 121.813 907.792 120.944 908.784 120.944H931.108C932.1 120.944 932.968 121.813 932.968 122.805V137.687C932.968 138.679 932.1 139.547 931.108 139.547H908.784C907.792 139.547 906.924 138.679 906.924 137.687V122.805V122.805Z" stroke="#67677E" stroke-width="1.86029" stroke-linecap="round" stroke-linejoin="round"/>
<path d="M932.472 121.689L922.426 129.502C920.938 130.618 918.954 130.618 917.465 129.502L907.296 121.689" stroke="#67677E" stroke-width="1.86029" stroke-linecap="round" stroke-linejoin="round"/>
</g>
<path d="M941.398 181.187C941.381 181.928 941.076 182.633 940.547 183.152C940.018 183.672 939.307 183.964 938.566 183.967C936.953 183.967 935.753 182.67 935.753 181.077C935.755 180.311 936.06 179.576 936.602 179.034C937.144 178.492 937.879 178.187 938.645 178.185C939.399 178.209 940.116 178.519 940.651 179.051L940.199 179.621C939.776 179.222 939.226 178.986 938.645 178.954C938.082 178.954 937.542 179.178 937.143 179.576C936.745 179.974 936.521 180.514 936.52 181.077C936.493 181.601 936.669 182.114 937.011 182.512C937.353 182.909 937.835 183.159 938.356 183.21C938.878 183.261 939.399 183.109 939.812 182.786C940.224 182.463 940.497 181.993 940.572 181.475H938.232V180.789H941.398V181.187Z" fill="black"/>
<path d="M944.072 180.801H943.639C943.41 180.803 943.191 180.895 943.029 181.057C942.868 181.219 942.776 181.438 942.775 181.667V183.91H942.008V180.054H942.637V180.37C942.759 180.26 942.902 180.175 943.058 180.121C943.213 180.067 943.377 180.044 943.541 180.054H944.368L944.072 180.801Z" fill="black"/>
<path d="M948.281 183.91H947.614V183.417C947.342 183.686 946.995 183.865 946.619 183.932C946.243 183.999 945.856 183.949 945.508 183.791C945.097 183.604 944.761 183.283 944.556 182.88C944.351 182.477 944.29 182.016 944.383 181.574C944.476 181.132 944.716 180.734 945.065 180.447C945.414 180.16 945.851 180 946.303 179.995C946.798 179.997 947.273 180.196 947.622 180.547V180.054H948.289L948.281 183.91ZM947.487 182.277C947.548 182.024 947.527 181.758 947.425 181.519C947.323 181.28 947.147 181.079 946.922 180.948C946.697 180.817 946.436 180.762 946.177 180.792C945.919 180.821 945.677 180.933 945.487 181.111C945.297 181.289 945.17 181.523 945.124 181.779C945.079 182.036 945.117 182.3 945.233 182.532C945.35 182.765 945.538 182.954 945.771 183.071C946.003 183.188 946.267 183.226 946.523 183.181C946.754 183.137 946.967 183.028 947.139 182.869C947.311 182.709 947.434 182.504 947.495 182.277H947.487Z" fill="black"/>
<path d="M949.814 179.858V180.074H951.034V180.744H949.814V183.91H949.067V179.878C949.067 179.031 949.677 178.541 950.444 178.541H951.37L951.054 179.268H950.444C950.363 179.263 950.283 179.275 950.207 179.302C950.131 179.33 950.062 179.373 950.003 179.428C949.944 179.483 949.897 179.549 949.864 179.623C949.832 179.697 949.815 179.777 949.814 179.858Z" fill="black"/>
<path d="M955.126 183.91H954.476V183.417C954.205 183.686 953.859 183.865 953.483 183.932C953.107 183.999 952.72 183.95 952.373 183.791C952.076 183.661 951.815 183.461 951.612 183.207C951.41 182.954 951.272 182.655 951.211 182.337C951.159 182.051 951.17 181.757 951.244 181.476C951.318 181.195 951.452 180.934 951.638 180.711C951.824 180.487 952.057 180.307 952.319 180.184C952.582 180.06 952.869 179.996 953.159 179.995C953.654 179.997 954.128 180.196 954.476 180.547V180.054H955.146V183.91H955.126ZM954.331 182.277C954.393 182.024 954.371 181.758 954.269 181.519C954.168 181.28 953.991 181.079 953.766 180.948C953.542 180.817 953.281 180.762 953.022 180.792C952.764 180.821 952.521 180.933 952.332 181.111C952.142 181.289 952.015 181.523 951.969 181.779C951.923 182.036 951.962 182.3 952.078 182.532C952.194 182.765 952.383 182.954 952.615 183.071C952.848 183.188 953.112 183.226 953.368 183.181C953.6 183.141 953.815 183.034 953.988 182.873C954.16 182.713 954.282 182.506 954.339 182.277H954.331Z" fill="black"/>
<path d="M959.236 181.647V183.91H958.462V181.628C958.46 181.399 958.368 181.18 958.206 181.018C958.044 180.857 957.825 180.765 957.596 180.763C957.482 180.763 957.369 180.785 957.264 180.828C957.159 180.871 957.064 180.935 956.984 181.015C956.903 181.096 956.84 181.191 956.796 181.296C956.753 181.401 956.731 181.514 956.732 181.628V183.91H955.965V180.054H956.593V180.392C956.872 180.137 957.237 179.995 957.616 179.995C958.049 180.001 958.463 180.177 958.767 180.487C959.07 180.797 959.239 181.214 959.236 181.647Z" fill="black"/>
<path d="M963.76 183.91H963.112V183.417C962.84 183.686 962.493 183.865 962.117 183.932C961.741 183.999 961.354 183.949 961.006 183.791C960.595 183.604 960.259 183.283 960.054 182.88C959.849 182.477 959.788 182.016 959.881 181.574C959.974 181.132 960.214 180.734 960.563 180.447C960.912 180.16 961.349 180 961.801 179.995C962.296 179.997 962.771 180.196 963.12 180.547V180.054H963.787V183.91H963.76ZM962.965 182.277C963.027 182.024 963.005 181.758 962.903 181.519C962.801 181.28 962.625 181.079 962.4 180.948C962.175 180.817 961.914 180.762 961.656 180.792C961.397 180.821 961.155 180.933 960.965 181.111C960.775 181.289 960.648 181.523 960.603 181.779C960.557 182.036 960.595 182.3 960.712 182.532C960.828 182.765 961.017 182.954 961.249 183.071C961.481 183.188 961.745 183.226 962.002 183.181C962.234 183.141 962.449 183.034 962.621 182.873C962.794 182.713 962.916 182.506 962.973 182.277H962.965Z" fill="black"/>
<path d="M944.701 205.002C949.773 205.002 953.713 200.882 953.713 195.861C953.713 190.815 949.773 186.644 944.701 186.644C939.655 186.644 935.741 190.815 935.741 195.861C935.741 200.882 939.655 205.002 944.701 205.002ZM944.701 202.53C941.097 202.53 938.393 199.492 938.393 195.861C938.393 192.205 941.097 189.116 944.701 189.116C948.331 189.116 951.061 192.205 951.061 195.861C951.061 199.492 948.331 202.53 944.701 202.53Z" fill="black"/>
<path d="M962.441 192.36C961.154 192.36 959.223 193.029 958.528 194.523V192.669H956.004V204.693H958.528V198.23C958.528 195.733 960.433 194.831 962.004 194.831C963.548 194.831 964.733 196.016 964.733 197.973V204.693H967.256V197.818C967.282 194.394 965.479 192.36 962.441 192.36Z" fill="black"/>
<path d="M978.434 205.002C981.24 205.002 983.686 203.766 985.257 201.809L983.3 200.238C982.167 201.629 980.416 202.53 978.46 202.53C974.829 202.53 972.074 199.492 972.074 195.861C972.074 192.205 974.855 189.116 978.46 189.116C980.416 189.116 982.167 190.017 983.3 191.407L985.257 189.837C983.686 187.88 981.24 186.644 978.434 186.644C973.413 186.644 969.422 190.841 969.422 195.861C969.422 200.882 973.413 205.002 978.434 205.002Z" fill="black"/>
<path d="M996.418 192.669V194.471C995.645 193.106 993.972 192.36 992.247 192.36C988.899 192.36 986.299 195.089 986.299 198.668C986.299 202.401 989.054 205.002 992.144 205.002C993.972 205.002 995.645 204.049 996.418 202.633V204.693H998.941V192.669H996.418ZM992.581 202.633C990.47 202.633 988.822 200.831 988.822 198.668C988.822 196.531 990.47 194.729 992.53 194.729C994.461 194.729 996.392 196.351 996.392 198.668C996.392 200.934 994.589 202.633 992.581 202.633Z" fill="black"/>
<path d="M1001.94 204.693H1004.46V186.129H1001.94V204.693Z" fill="black"/>
<path d="M1007.48 204.693H1010V186.129H1007.48V204.693Z" fill="black"/>
<path d="M909.67 196.103H918.708C919.637 196.103 920.214 195.099 919.75 194.296L915.231 186.469C914.766 185.667 913.607 185.667 913.147 186.469L908.629 194.296C908.164 195.099 908.746 196.103 909.67 196.103V196.103ZM914.189 176C905.25 176 898 183.25 898 192.189C898 201.129 905.25 208.378 914.189 208.378C923.129 208.378 930.378 201.129 930.378 192.189C930.378 183.25 923.129 176 914.189 176ZM914.231 183.405C919.084 183.428 922.997 187.379 922.974 192.231C922.95 197.084 918.999 200.997 914.147 200.974C909.295 200.95 905.381 196.999 905.405 192.147C905.428 187.295 909.379 183.381 914.231 183.405V183.405ZM902.683 197.168C902.585 197.201 902.491 197.215 902.392 197.215C901.998 197.215 901.627 196.962 901.501 196.567C901.06 195.211 900.839 193.752 900.839 192.231C900.839 191.387 900.909 190.505 901.05 189.618C902.111 184.231 906.249 180.073 911.599 178.989C912.11 178.886 912.603 179.214 912.706 179.721C912.81 180.228 912.481 180.725 911.974 180.829C907.371 181.758 903.809 185.338 902.904 189.942C902.786 190.697 902.725 191.481 902.725 192.227C902.725 193.545 902.918 194.812 903.298 195.981C903.457 196.474 903.19 197.004 902.693 197.163L902.683 197.168ZM924.428 201.044C921.96 203.982 918.408 205.596 914.429 205.596C910.449 205.596 906.676 203.958 904.11 201.105C903.762 200.72 903.795 200.124 904.18 199.782C904.565 199.435 905.161 199.467 905.503 199.852C907.681 202.273 911.012 203.723 914.424 203.723C917.835 203.723 920.881 202.344 922.988 199.838C923.321 199.444 923.912 199.388 924.311 199.725C924.71 200.059 924.757 200.65 924.424 201.049L924.428 201.044ZM926.967 196.506C926.831 196.896 926.47 197.135 926.08 197.135C925.977 197.135 925.874 197.116 925.77 197.084C925.282 196.915 925.024 196.38 925.193 195.887C925.357 195.408 925.508 194.906 925.63 194.39C925.77 193.681 925.845 192.921 925.845 192.17C925.845 186.661 921.918 181.889 916.503 180.819C915.996 180.721 915.644 180.228 915.738 179.721C915.832 179.214 916.301 178.877 916.803 178.966C916.812 178.966 916.855 178.975 916.864 178.98C923.152 180.219 927.718 185.77 927.718 192.17C927.718 193.043 927.633 193.925 927.46 194.789C927.314 195.404 927.15 195.967 926.962 196.506H926.967Z" fill="url(#paint0_linear_24577_386)"/>
<defs>
<linearGradient id="paint0_linear_24577_386" x1="914.429" y1="208.208" x2="914.429" y2="176" gradientUnits="userSpaceOnUse">
<stop stop-color="#FAC10D"/>
<stop offset="1" stop-color="#F05A28"/>
</linearGradient>
<clipPath id="clip0_24577_386">
<rect width="27.9044" height="20.4632" fill="white" transform="translate(905.932 120.076)"/>
</clipPath>
</defs>
</svg>
