<svg xmlns="http://www.w3.org/2000/svg" width="298" height="67" viewBox="0 0 298 67" fill="none"><path fill="#FBC55A" d="M42.273 7.807a8.46 8.46 0 0 0-4.644-1.27 7.6 7.6 0 0 0-4.196 1.119V.884h-4.706v24.695h4.128v-1.065q.194.154.395.294 1.855 1.29 4.626 1.284a7.9 7.9 0 0 0 4.487-1.284 8.7 8.7 0 0 0 3.003-3.497 11.2 11.2 0 0 0 1.072-4.99 11.2 11.2 0 0 0-1.09-5.03 8.57 8.57 0 0 0-3.075-3.48zm-1.26 11.348a4.44 4.44 0 0 1-1.425 2.031 3.88 3.88 0 0 1-2.474.753c-.888.05-1.77-.2-2.502-.704a3.86 3.86 0 0 1-1.344-1.973 9.5 9.5 0 0 1-.413-2.95 9.5 9.5 0 0 1 .413-2.949 4.04 4.04 0 0 1 1.313-1.974 3.73 3.73 0 0 1 2.353-.704 4.1 4.1 0 0 1 2.569.767 4.5 4.5 0 0 1 1.488 2.04c.332.905.498 1.858.484 2.82a8.3 8.3 0 0 1-.461 2.838zm20.5-3.377a14.2 14.2 0 0 0-3.398-1.279q-2.163-.55-3.223-.89a3.9 3.9 0 0 1-1.394-.67 1.05 1.05 0 0 1-.336-.802c0-.258.067-.511.206-.73s.336-.392.574-.503a3.73 3.73 0 0 1 2.07-.334 3.85 3.85 0 0 1 2.099.7c.255.195.466.44.618.72.153.281.247.589.278.91l4.783-.86a5.7 5.7 0 0 0-1.282-2.914 6.8 6.8 0 0 0-2.73-1.907 10.4 10.4 0 0 0-3.868-.672 9.9 9.9 0 0 0-3.914.712 5.84 5.84 0 0 0-2.568 2.014 5.26 5.26 0 0 0-.91 3.097 4.63 4.63 0 0 0 .6 2.423 4.8 4.8 0 0 0 1.964 1.724 17 17 0 0 0 3.63 1.306c1.346.334 2.332.641 2.968.855.458.12.879.348 1.229.673.193.254.291.566.278.886.013.268-.045.53-.162.767-.116.24-.291.44-.51.597-.588.36-1.274.53-1.96.49a4.2 4.2 0 0 1-2.55-.74 3.35 3.35 0 0 1-1.3-2.045l-4.779.722a6.621 6.621 0 0 0 2.622 4.482c1.435 1.06 3.327 1.59 5.667 1.586 2.43 0 4.334-.544 5.72-1.626 1.385-1.083 2.07-2.58 2.066-4.478a4.8 4.8 0 0 0-.587-2.459 4.8 4.8 0 0 0-1.892-1.746zm18.357-7.85a8.7 8.7 0 0 0-4.972-1.373 9.46 9.46 0 0 0-4.868 1.243 8.8 8.8 0 0 0-3.321 3.489 11.1 11.1 0 0 0-1.206 5.284 9.74 9.74 0 0 0 1.233 4.932 8.9 8.9 0 0 0 3.402 3.381 10.1 10.1 0 0 0 5.047 1.225 9.2 9.2 0 0 0 4.945-1.403 8.2 8.2 0 0 0 3.313-3.943l-4.68-1.34a3.87 3.87 0 0 1-1.498 1.732 4.45 4.45 0 0 1-2.353.602q-2.186 0-3.308-1.417a5.44 5.44 0 0 1-1.045-2.704H83.6q.29-3.354-.672-5.846a8.06 8.06 0 0 0-3.062-3.858zm-9.199 6.241a5.2 5.2 0 0 1 .92-2.116q1.126-1.45 3.518-1.448 2.044 0 2.95 1.243c.448.7.722 1.497.793 2.321zM95.35 7.028a8 8 0 0 0-1.632.29 5.9 5.9 0 0 0-1.461.64 5.05 5.05 0 0 0-1.48 1.306q-.287.375-.515.789V7.068h-4.129v18.525h4.707v-9.468c-.009-.65.09-1.296.291-1.911a4.2 4.2 0 0 1 .861-1.475c.39-.427.865-.766 1.394-1.007a5.1 5.1 0 0 1 1.852-.467 4.8 4.8 0 0 1 1.797.16V7.059a9 9 0 0 0-1.676-.05v.014zm16.559.04-4.411 12.817-4.402-12.83h-4.68l6.728 18.524h4.707l6.729-18.525zm20.208 2.847a5.45 5.45 0 0 0-2.891-2.607 11.8 11.8 0 0 0-4.371-.753q-3.362.002-5.299 1.44a7.16 7.16 0 0 0-2.649 3.737l4.232 1.341c.121-.387.323-.748.596-1.051.269-.303.601-.548.973-.717a5.3 5.3 0 0 1 2.147-.495q1.856.002 2.645.77c.444.482.712 1.097.753 1.752l-2.25.334q-1.808.261-3.233.557c-.833.165-1.658.387-2.461.673a7 7 0 0 0-2.38 1.363 4.74 4.74 0 0 0-1.282 1.88 6.7 6.7 0 0 0-.399 2.348 5.7 5.7 0 0 0 .713 2.82 5.26 5.26 0 0 0 2.098 2.04 6.9 6.9 0 0 0 3.362.762 8.47 8.47 0 0 0 3.98-.833 8.1 8.1 0 0 0 2.354-1.96v2.277h4.093V14.28q-.001-1.27-.103-2.3a5.6 5.6 0 0 0-.637-2.08v.014zm-3.949 8.295a4.8 4.8 0 0 1-.422 1.756 4.6 4.6 0 0 1-.712.975c-.404.428-.884.78-1.413 1.038a4.75 4.75 0 0 1-2.174.455 3.6 3.6 0 0 1-1.394-.24 1.95 1.95 0 0 1-.901-.696c-.219-.32-.327-.7-.318-1.087 0-.294.063-.584.197-.842.153-.276.363-.512.619-.695a5 5 0 0 1 1.112-.592c.452-.17.918-.303 1.394-.415.529-.129 1.219-.263 2.08-.419a71 71 0 0 1 1.985-.334q-.013.456-.049 1.078v.014zm20.786-10.398a8.45 8.45 0 0 0-4.644-1.27 7.6 7.6 0 0 0-4.196 1.118V.884h-4.711v24.695h4.128v-1.065c.13.103.26.2.399.294q1.857 1.29 4.626 1.284a7.9 7.9 0 0 0 4.492-1.284 8.7 8.7 0 0 0 2.999-3.497 11.3 11.3 0 0 0 1.076-4.99 11.2 11.2 0 0 0-1.094-5.03 8.57 8.57 0 0 0-3.075-3.48m-1.255 11.352a4.43 4.43 0 0 1-1.43 2.031 3.88 3.88 0 0 1-2.475.753c-.887.045-1.77-.2-2.501-.704a3.87 3.87 0 0 1-1.345-1.973 9.5 9.5 0 0 1-.412-2.95 9.5 9.5 0 0 1 .412-2.95 4 4 0 0 1 1.314-1.973 3.73 3.73 0 0 1 2.353-.704 4.1 4.1 0 0 1 2.569.767 4.5 4.5 0 0 1 1.488 2.04c.327.905.493 1.858.48 2.82a8.2 8.2 0 0 1-.458 2.834zm7.795-14.671h4.68V.367h-4.68v4.126m0 21.095h4.68V7.058h-4.68v18.53m7.939 0h4.68V.368h-4.68v25.220000000000002m8.091-21.095h4.685V.367h-4.68l-.009 4.117zm0 21.095h4.685V7.058h-4.68l-.009 18.526zm14.802-23.675h-4.68V7.06h-3.164v3.604h3.164v7.066c0 1.11 0 2.099.036 2.976.032.905.278 1.791.718 2.584a4.4 4.4 0 0 0 2.21 1.96 9.1 9.1 0 0 0 3.303.655c1.269.027 2.533-.08 3.779-.32v-3.876c-.999.147-2.017.191-3.026.138a2.35 2.35 0 0 1-1.976-1.06 2.7 2.7 0 0 1-.337-1.377 63 63 0 0 1-.027-1.947v-6.79h5.384V7.06h-5.384zm21.509 5.146-4.846 12.608-4.864-12.613h-4.85l7.49 18.383-3.052 8.384h4.334l10.49-26.758h-4.702zM289.295 21.227V1.08l3.331-.018v24.593h-3.313L271.571 5.487v20.168h-3.313V1.063h3.313z"/><path fill="#FBC55A" fill-rule="evenodd" d="M231.249 1.22a13.16 13.16 0 0 1 6.424 5.315l-2.717 1.67a9.88 9.88 0 0 0-8.418-4.686c-5.451 0-9.871 4.392-9.871 9.81 0 5.417 4.42 9.81 9.871 9.81a9.88 9.88 0 0 0 8.463-4.758l2.815 1.68a12.96 12.96 0 0 1-6.312 5.377 13.1 13.1 0 0 1-8.311.468 13.17 13.17 0 0 1-6.934-4.633 13.05 13.05 0 0 1-2.735-7.855 12.9 12.9 0 0 1 2.573-7.877 12.98 12.98 0 0 1 6.836-4.704 13.1 13.1 0 0 1 8.32.383zM259.483 24.44c6.127-3.764 8.001-11.784 4.191-17.91s-11.866-8.037-17.994-4.272-8.001 11.784-4.191 17.91 11.866 8.037 17.994 4.272m-6.949-1.305c5.451 0 9.871-4.393 9.871-9.81s-4.42-9.81-9.871-9.81-9.871 4.392-9.871 9.81c0 5.417 4.42 9.81 9.871 9.81M13.124.25C5.88.25.008 6.086.008 13.286S5.88 26.322 13.124 26.322s13.117-5.837 13.117-13.036C26.24 6.086 20.368.25 13.124.25m0 21.198c-4.532 0-8.208-3.653-8.208-8.158s3.676-8.162 8.208-8.162 8.208 3.654 8.208 8.158-3.676 8.157-8.208 8.157z" clip-rule="evenodd"/><path fill="#F3602E" d="M208.287 56.48a3.397 3.397 0 1 0 0-6.793 3.397 3.397 0 0 0 0 6.794"/><path fill="#FBC55A" d="M10.172 63.34c-1.222 0-2.377-.203-3.464-.678s-2.038-1.087-2.853-1.97a8.6 8.6 0 0 1-1.902-3.261c-.476-1.29-.68-2.785-.68-4.416 0-1.698.204-3.124.68-4.415.475-1.29 1.087-2.378 1.902-3.193.815-.883 1.766-1.494 2.853-1.97 1.087-.475 2.242-.68 3.532-.68 1.223 0 2.378.205 3.465.68s2.038 1.087 2.853 1.97A8.9 8.9 0 0 1 18.46 48.6c.476 1.29.68 2.717.68 4.415 0 1.63-.204 3.125-.68 4.416-.476 1.29-1.087 2.378-1.902 3.26-.815.884-1.766 1.563-2.853 1.97-1.155.476-2.31.68-3.533.68m0-3.396c.816 0 1.63-.203 2.31-.679.747-.476 1.29-1.223 1.698-2.242s.68-2.377.68-4.076-.204-2.989-.68-4.008c-.407-1.018-1.019-1.766-1.698-2.173-.68-.476-1.494-.68-2.31-.68-.815 0-1.63.204-2.31.68-.679.475-1.29 1.155-1.698 2.174s-.679 2.377-.679 4.008c0 1.698.204 3.056.68 4.075.407 1.02 1.018 1.766 1.698 2.242s1.494.68 2.31.68m17.73 3.057h-4.076V43.03h6.522l6.657 18.409-.68.204V43.029h4.077v19.972h-6.59l-6.657-18.41.747-.203zm39.604-16.71h-6.59l1.7-1.97V63h-4.213v-18.68l1.699 1.97h-6.59V43.03h13.994zm20.108-3.261V63h-4.212v-9.578l1.902 1.29H74.299l1.902-1.222V63H71.99V43.03H76.2v9.646L74.3 51.385h11.005l-1.902 1.29V43.03zm7.472 3.26 1.902-1.97v8.288l-.95-1.223h7.336v3.26h-7.337l.951-1.222v8.356l-1.902-1.97h9.782v3.26h-12.16V43.03h12.16v3.261zm23.64 16.711V43.03h8.152q3.159 0 4.687 1.426c1.019.951 1.562 2.31 1.562 4.076q0 1.528-.611 2.65c-.408.746-.883 1.29-1.426 1.697-.544.408-1.087.612-1.631.68a5.9 5.9 0 0 1 1.563.407c.475.204.883.612 1.222 1.155.34.544.476 1.223.476 2.038v3.804c0 .476 0 .883.068 1.223s.204.611.339.815h-4.211c-.136-.204-.204-.475-.272-.815a6 6 0 0 1-.136-1.223v-3.26c0-.816-.204-1.359-.611-1.835-.408-.407-1.087-.679-1.97-.679h-4.144l1.155-1.358V63zm4.144-9.51-1.155-1.495h4.212c.543 0 1.019-.135 1.426-.34a3.6 3.6 0 0 0 1.019-1.018c.272-.476.408-.951.408-1.563 0-.815-.272-1.494-.747-1.97-.476-.475-1.223-.679-2.106-.679h-4.212l1.223-1.358v8.423zm23.436 9.85c-1.223 0-2.378-.204-3.464-.68-1.087-.475-2.038-1.086-2.854-1.97a8.6 8.6 0 0 1-1.902-3.26c-.475-1.29-.679-2.785-.679-4.416 0-1.698.204-3.124.679-4.415s1.087-2.378 1.902-3.193c.816-.883 1.767-1.494 2.854-1.97 1.086-.475 2.241-.68 3.532-.68 1.223 0 2.378.205 3.464.68 1.087.476 2.038 1.087 2.854 1.97a8.9 8.9 0 0 1 1.902 3.193c.475 1.29.679 2.717.679 4.415 0 1.63-.204 3.125-.679 4.416-.476 1.29-1.087 2.378-1.902 3.26-.816.884-1.767 1.563-2.854 1.97-1.086.476-2.241.68-3.532.68m0-3.397c.815 0 1.63-.203 2.31-.679.747-.476 1.29-1.223 1.698-2.242s.679-2.377.679-4.076-.204-2.989-.679-4.008c-.408-1.018-1.019-1.766-1.698-2.173-.68-.476-1.495-.68-2.31-.68s-1.63.204-2.31.68c-.679.475-1.29 1.155-1.698 2.174s-.679 2.377-.679 4.008c0 1.698.204 3.056.679 4.075.408 1.02 1.019 1.766 1.698 2.242.748.476 1.495.68 2.31.68m11.888 3.057 4.959-19.971h6.657L174.769 63h-4.28l-4.007-17.39L162.474 63zm3.6-4.62v-3.26h9.443v3.26zm17.187 4.62V43.03h6.453a9.1 9.1 0 0 1 3.669.747 8.5 8.5 0 0 1 2.853 2.038 8.5 8.5 0 0 1 1.834 3.125c.407 1.222.611 2.58.611 4.008q0 2.14-.611 4.075c-.408 1.223-1.019 2.31-1.834 3.193s-1.699 1.563-2.853 2.038a9.1 9.1 0 0 1-3.669.747zm4.279-1.222-1.902-1.97h3.601q1.427 0 2.649-.816c.815-.543 1.427-1.358 1.902-2.31.476-1.018.679-2.241.679-3.6 0-1.426-.203-2.581-.679-3.6-.475-1.019-1.087-1.766-1.902-2.31-.815-.543-1.63-.815-2.649-.815h-3.601l1.902-1.97zM223.996 62.695v-3.428q.122-.297.715-.878.594-.593 1.445-1.336a88 88 0 0 1 1.781-1.512l1.742-1.444a39 39 0 0 0 1.835-1.62 9 9 0 0 0 1.472-1.795q.594-.959.594-2.011 0-1.323-.635-2.12-.62-.796-1.984-.796-1.093 0-1.741.486-.635.472-.905 1.337-.27.85-.27 1.997h-4.184q0-2.186.823-3.78a5.74 5.74 0 0 1 2.43-2.442q1.607-.864 3.915-.864 2.24 0 3.738.823 1.512.824 2.268 2.227t.756 3.172q0 1.188-.459 2.228a7.9 7.9 0 0 1-1.174 1.903q-.716.877-1.539 1.606-.823.715-1.552 1.296-1.228.973-2.133 1.714-.904.742-1.444 1.255-.526.513-.648.783h8.828v3.2zm25.287.324q-1.904 0-3.24-.823-1.323-.824-2.159-2.24-.824-1.432-1.202-3.28a19.4 19.4 0 0 1-.378-3.888q0-2.039.378-3.888.378-1.863 1.202-3.307.836-1.444 2.159-2.267 1.337-.837 3.24-.837t3.226.837q1.336.823 2.16 2.267.837 1.444 1.214 3.307.378 1.85.378 3.888t-.378 3.887q-.377 1.85-1.214 3.28a6.3 6.3 0 0 1-2.16 2.24q-1.323.824-3.226.824m0-3.253q.905 0 1.512-.688.62-.702.931-2.24.31-1.54.31-4.05 0-2.525-.31-4.05-.31-1.538-.931-2.24-.607-.702-1.512-.702-.891 0-1.512.702-.62.702-.931 2.24-.31 1.525-.311 4.05 0 2.524.311 4.063.31 1.525.931 2.227.621.688 1.512.688m11.262 2.93v-3.43q.122-.296.715-.876.594-.595 1.445-1.337a88 88 0 0 1 1.781-1.512l1.742-1.444a39 39 0 0 0 1.835-1.62 9 9 0 0 0 1.472-1.795q.594-.959.594-2.011 0-1.323-.635-2.12-.62-.796-1.984-.796-1.093 0-1.741.486-.635.472-.905 1.337-.27.85-.27 1.997h-4.184q0-2.186.823-3.78a5.74 5.74 0 0 1 2.43-2.442q1.606-.864 3.915-.864 2.24 0 3.738.823 1.512.824 2.268 2.227t.756 3.172q0 1.188-.459 2.228a7.9 7.9 0 0 1-1.174 1.903q-.716.877-1.539 1.606-.823.715-1.552 1.296-1.228.973-2.133 1.714-.904.742-1.444 1.255-.526.513-.648.783h8.828v3.2zm25.969 0v-3.82h-8.423v-2.903l7.1-13.214h5.413v12.958h2.375v3.158h-2.375v3.82zm-5.278-5.184-1.12-1.795h6.398V45.43l.85.23z"/><path fill="#F3602E" d="M1.273 32.836h188.224v3.163H1.273zM210.055 32.836h82.565v3.163h-82.565z"/></svg>