<svg width="16" height="21" viewBox="0 0 16 21" fill="none" xmlns="http://www.w3.org/2000/svg">
<path d="M14 11.7678V8.42063C13.9986 6.92926 13.4958 5.48653 12.5806 4.34797C11.6655 3.2094 10.3971 2.44845 9 2.19989V1.05258C9 0.773418 8.89464 0.50569 8.70711 0.308293C8.51957 0.110896 8.26522 0 8 0C7.73478 0 7.48043 0.110896 7.29289 0.308293C7.10536 0.50569 7 0.773418 7 1.05258V2.19989C5.60294 2.44845 4.33452 3.2094 3.41939 4.34797C2.50425 5.48653 2.00144 6.92926 2 8.42063V11.7678C1.41645 11.985 0.910998 12.3868 0.552938 12.9182C0.194879 13.4496 0.00173951 14.0846 0 14.7361V16.8413C0 17.1204 0.105357 17.3882 0.292893 17.5855C0.48043 17.7829 0.734784 17.8938 1 17.8938H4.14C4.37028 18.7858 4.873 19.5731 5.5706 20.1345C6.26819 20.6959 7.1219 21 8 21C8.8781 21 9.73181 20.6959 10.4294 20.1345C11.127 19.5731 11.6297 18.7858 11.86 17.8938H15C15.2652 17.8938 15.5196 17.7829 15.7071 17.5855C15.8946 17.3882 16 17.1204 16 16.8413V14.7361C15.9983 14.0846 15.8051 13.4496 15.4471 12.9182C15.089 12.3868 14.5835 11.985 14 11.7678ZM4 8.42063C4 7.30399 4.42143 6.23308 5.17157 5.44349C5.92172 4.6539 6.93913 4.21032 8 4.21032C9.06087 4.21032 10.0783 4.6539 10.8284 5.44349C11.5786 6.23308 12 7.30399 12 8.42063V11.5784H4V8.42063ZM8 18.9464C7.65097 18.9442 7.30857 18.8459 7.00683 18.6612C6.70509 18.4766 6.45451 18.212 6.28 17.8938H9.72C9.54549 18.212 9.29491 18.4766 8.99317 18.6612C8.69143 18.8459 8.34903 18.9442 8 18.9464ZM14 15.7887H2V14.7361C2 14.4569 2.10536 14.1892 2.29289 13.9918C2.48043 13.7944 2.73478 13.6835 3 13.6835H13C13.2652 13.6835 13.5196 13.7944 13.7071 13.9918C13.8946 14.1892 14 14.4569 14 14.7361V15.7887Z" fill="black"/>
</svg>
