<svg width="24" height="26" viewBox="0 0 24 26" fill="none" xmlns="http://www.w3.org/2000/svg">
<path d="M7.26821 0.0453771C7.1808 0.0612688 6.80735 0.140727 6.43389 0.21224C6.06044 0.283752 5.75055 0.347319 5.73466 0.363211C5.71082 0.379102 7.19669 3.78787 7.57015 4.55861L7.76085 4.94796L8.79381 4.93207C9.36591 4.92412 10.0572 4.95591 10.3353 5.00358C10.6134 5.05126 10.9233 5.10688 11.0266 5.12277C11.5113 5.20223 12.5919 5.61541 13.2832 5.98092C15.8894 7.35555 17.6137 9.86644 18.0348 12.9097C18.1302 13.601 18.0428 15.1107 17.8759 15.8894C17.4866 17.6216 16.5331 19.322 15.3014 20.49L14.8485 20.9112L15.6987 22.834C16.5807 24.8364 16.8588 25.4482 16.8906 25.488C16.9303 25.5436 17.5899 25.043 18.2732 24.455C20.3947 22.6116 22.0157 19.902 22.6911 17.0813C22.8579 16.39 23.0407 14.7293 23.0407 13.9427C23.0328 12.568 22.7546 10.8517 22.3176 9.54066C21.5151 7.13307 20.1405 5.07509 18.2017 3.39852C16.2629 1.72195 14.1572 0.696936 11.6066 0.204294C10.6849 0.0215396 10.375 -0.00229789 8.99245 0.00564795C8.1343 0.0135938 7.35561 0.0294855 7.26821 0.0453771Z" fill="black"/>
<path d="M2.51684 7.72029C1.79377 8.46719 1.42032 8.99957 0.967406 9.89745C0.641627 10.557 0.276118 11.574 0.19666 12.0746C0.172822 12.2256 0.117201 12.5434 0.0774719 12.7818C-0.025824 13.3459 -0.025824 14.5458 0.0774719 15.102C0.117201 15.3403 0.172822 15.6343 0.188714 15.7694C0.244335 16.2382 0.57806 17.2156 0.919731 17.8989C2.50095 21.0772 5.56805 22.9842 9.11984 22.9922C9.69194 22.9922 10.2005 22.9604 10.2402 22.9127C10.3038 22.8492 9.87469 21.8083 9.04832 20.0363C8.96092 19.8456 8.48417 18.7729 7.99153 17.6526C7.11749 15.6741 6.83144 15.0384 6.50566 14.3074C6.41825 14.1167 5.98918 13.1552 5.55216 12.162C5.11513 11.1767 4.68606 10.2232 4.6066 10.0484C4.35233 9.51605 3.93915 8.57844 3.61337 7.80769C3.43856 7.40245 3.26375 7.06873 3.21608 7.06873C3.17635 7.06873 2.85852 7.36272 2.51684 7.72029Z" fill="black"/>
</svg>
