<svg width="30" height="31" viewBox="0 0 30 31" fill="none" xmlns="http://www.w3.org/2000/svg">
<path fill-rule="evenodd" clip-rule="evenodd" d="M24.374 21.6022L21.7827 19.9328L19.6211 23.4595L17.107 22.7416L14.8933 26.0416L15.0068 27.0804L27.0426 24.9144L26.3436 17.5692L24.374 21.6022ZM13.1496 18.4354L15.0806 18.176C15.3931 18.3131 15.6106 18.3654 15.9852 18.4585C16.5687 18.607 17.2441 18.7494 18.2444 18.257C18.4772 18.1444 18.962 17.7113 19.1581 17.4644L27.0699 16.0625L27.877 25.6036L14.3226 27.9896L13.1496 18.4354ZM27.8465 14.9974L27.0656 15.1427L25.5652 0.00195312L0 2.89738L3.14954 27.8613L6.14196 27.4371C5.90298 27.1039 5.53089 26.7007 4.89545 26.1845C4.01413 25.4693 4.32585 24.2546 4.84562 23.4876C5.53343 22.1916 9.07726 20.5446 8.87648 18.473C8.80446 17.7198 8.68189 16.7393 7.96606 16.0675C7.93915 16.3464 7.98752 16.615 7.98752 16.615C7.98752 16.615 7.69363 16.2487 7.54705 15.7492C7.40155 15.5577 7.28734 15.4966 7.13276 15.2408C7.02255 15.5367 7.0371 15.8799 7.0371 15.8799C7.0371 15.8799 6.79667 15.325 6.75775 14.8567C6.61517 15.0664 6.57916 15.4646 6.57916 15.4646C6.57916 15.4646 6.26672 14.5899 6.33801 14.1189C6.19542 13.7089 5.77277 12.8953 5.89244 11.0462C6.67264 11.5801 8.39017 11.4533 9.05944 10.4898C9.28168 10.1708 9.43372 9.29966 8.9485 7.58336C8.63678 6.48274 7.86495 4.84389 7.56414 4.22217L7.52813 4.2474C7.68672 4.74833 8.01371 5.7985 8.1392 6.30759C8.51893 7.85194 8.62078 8.38946 8.44255 9.10142C8.29088 9.72029 7.92715 10.1253 7.00509 10.5779C6.08303 11.0319 4.85944 9.92706 4.78197 9.86595C3.8861 9.16892 3.19319 8.03171 3.11572 7.47927C3.03533 6.8746 3.47254 6.51152 3.69296 6.01699C3.3776 6.10509 3.02588 6.26141 3.02588 6.26141C3.02588 6.26141 3.44562 5.83722 3.96321 5.47023C4.17745 5.33167 4.3033 5.24357 4.52917 5.06025C4.20218 5.05492 3.93666 5.06416 3.93666 5.06416C3.93666 5.06416 4.48189 4.77639 5.04713 4.56678C4.63356 4.54902 4.23783 4.56394 4.23783 4.56394C4.23783 4.56394 5.4545 4.03246 6.41548 3.64238C7.07638 3.3777 7.722 3.45586 8.08464 3.96816C8.56076 4.63926 9.06089 5.00376 10.1208 5.22971C10.7715 4.94799 10.9694 4.80304 11.7871 4.58561C12.5069 3.81255 13.0721 3.71237 13.0721 3.71237C13.0721 3.71237 12.7917 3.96354 12.7168 4.35824C13.1249 4.04419 13.5722 3.782 13.5722 3.782C13.5722 3.782 13.3991 3.9909 13.2376 4.32272L13.2751 4.37707C13.7512 4.09819 14.311 3.87828 14.311 3.87828C14.311 3.87828 14.1509 4.0758 13.9633 4.3316C14.3223 4.32876 15.0504 4.34652 15.3331 4.37778C17.0015 4.41366 17.3478 2.63733 17.9879 2.41457C18.7896 2.13498 19.1479 1.96587 20.514 3.27645C21.6863 4.40158 22.6022 6.4156 22.1476 6.86679C21.7664 7.24124 21.0142 6.72077 20.1805 5.70577C19.74 5.16825 19.4068 4.53303 19.2508 3.72551C19.1191 3.04411 18.6066 2.6487 18.6066 2.6487C18.6066 2.6487 18.9042 3.29457 18.9042 3.86513C18.9042 4.1767 18.9442 5.34162 19.4556 5.99531C19.405 6.09088 19.3814 6.46818 19.3254 6.54029C18.7303 5.83793 17.4525 5.33523 17.2441 5.18708C17.9494 5.7516 19.5705 7.04833 20.1932 8.29105C20.7821 9.46628 20.4351 10.5434 20.733 10.8223C20.8178 10.9023 21.9995 12.3404 22.2269 13.063C22.6233 14.3224 22.2505 15.6458 21.7314 16.4668L20.282 16.6874C20.0699 16.6299 19.927 16.6011 19.7368 16.4935C19.8415 16.3123 20.0499 15.8604 20.0521 15.7673L19.9703 15.627C19.5192 16.2512 18.7634 16.8573 18.1356 17.2054C17.3139 17.6602 16.3668 17.5902 15.7503 17.4037C14.0004 16.8764 12.3457 15.7215 11.9467 15.4181C11.9467 15.4181 11.9344 15.6604 12.0097 15.7147C12.4509 16.2007 13.4617 17.08 14.4387 17.6929L12.3559 17.9167L13.3405 25.405C12.9041 25.4661 12.8361 25.4959 12.3581 25.5624C11.9369 24.109 11.1312 23.1601 10.2507 22.6073C9.47409 22.1198 8.40291 22.0101 7.37755 22.2083L7.31171 22.2829C8.02462 22.2104 8.8663 22.3113 9.73089 22.846C10.5795 23.37 11.2633 24.7236 11.515 25.5386C11.8373 26.5802 12.0602 27.6943 11.1927 28.8752C10.5755 29.7147 8.77355 30.1787 7.3179 29.1751C7.70672 29.7858 8.23232 30.2853 8.93977 30.3794C9.99023 30.5187 10.9872 30.3407 11.6736 29.6526C12.2595 29.0642 12.5702 27.834 12.4883 26.5383L13.4155 26.4068L13.7501 28.7324L29.0988 26.9273L27.8465 14.9974ZM18.5084 8.68185C18.4655 8.77741 18.3982 8.83994 18.4993 9.1508L18.5055 9.16856L18.5215 9.20871L18.5637 9.30179C18.746 9.66558 18.946 10.0088 19.2803 10.1839C19.3668 10.1697 19.4563 10.1601 19.5491 10.1555C19.863 10.142 20.0612 10.1907 20.1871 10.2567C20.1983 10.1956 20.2009 10.1061 20.194 9.97431C20.1696 9.51353 20.2874 8.72981 19.3807 8.31734C19.0384 8.16209 18.5583 8.21005 18.3982 8.40367C18.4273 8.40722 18.4535 8.41326 18.4739 8.42001C18.7158 8.50279 18.5517 8.58415 18.5084 8.68185ZM21.0498 12.9813C20.9309 12.9173 20.3751 12.9426 19.9845 12.988C19.2403 13.0737 18.4368 13.3259 18.2607 13.4602C17.9407 13.7018 18.0861 14.1231 18.3226 14.2961C18.9856 14.78 19.5669 15.1044 20.1805 15.0255C20.5573 14.9772 20.8894 14.3945 21.1247 13.8659C21.2859 13.5018 21.2859 13.1088 21.0498 12.9813ZM14.4612 9.25241C14.6711 9.05772 13.4158 8.80193 12.4418 9.45065C11.7234 9.92919 11.7005 10.9552 12.3883 11.5368C12.457 11.5943 12.5138 11.6352 12.5669 11.6686C12.7677 11.5762 12.9965 11.4828 13.2598 11.3993C13.7046 11.2582 14.0746 11.1854 14.3786 11.1467C14.5241 10.9879 14.6933 10.7083 14.6511 10.202C14.5936 9.5153 14.0607 9.62437 14.4612 9.25241Z" fill="#632CA6"/>
</svg> 