<svg width="27" height="27" viewBox="0 0 27 27" fill="none" xmlns="http://www.w3.org/2000/svg">
<path d="M8.9597 2.32122C8.64362 4.11238 8.22217 6.8518 8.01144 9.59122C7.58999 14.4379 7.80072 17.7041 7.80072 17.7041L0.952167 24.2366C0.952167 24.2366 0.425356 20.6543 0.214631 16.5451C0.109269 14.0164 0.00390625 11.8038 0.00390625 10.4341V10.2234C0.00390625 10.118 0.109269 9.27513 0.952167 8.32687C2.00579 7.27325 9.06507 1.68904 8.9597 2.32122V2.32122Z" fill="#1496FF"/>
<path d="M8.9597 2.32151C8.64362 4.11267 8.22217 6.85209 8.01144 9.59151C8.01144 9.59151 0.425356 8.64325 0.00390625 10.5398C0.00390625 10.4344 0.109269 9.38079 1.05753 8.43253C2.00579 7.48427 9.06507 1.68934 8.9597 2.32151V2.32151Z" fill="#1284EA"/>
<path d="M0.0042145 10.0136V10.4351C0.109577 10.119 0.214939 9.90827 0.531026 9.48683C1.05784 8.85465 1.90074 8.64393 2.32219 8.64393C4.21871 8.4332 6.85277 8.11712 9.69755 8.01175C14.4389 7.80103 17.7051 8.22248 17.7051 8.22248L24.5536 1.69001C24.5536 1.69001 20.9713 1.05784 16.8622 0.531026C14.2281 0.214939 11.8048 0.0042145 10.5404 0.0042145C10.4351 0.0042145 9.48682 -0.101148 8.64393 0.741751C7.5903 1.69001 2.74364 6.32596 0.741751 8.22248C-0.101148 9.06538 0.0042145 10.0136 0.0042145 10.0136Z" fill="#B4DC00"/>
<path d="M24.2354 18.3372C22.3388 18.5479 19.7048 18.864 16.86 18.9694C12.1187 19.1801 8.85246 18.7586 8.85246 18.7586L2.00391 25.2911C2.00391 25.2911 5.58623 26.0286 9.69536 26.4501C12.2241 26.7662 14.4367 26.8715 15.701 26.9769C15.8064 26.9769 15.9117 26.8715 16.0171 26.8715C16.1225 26.8715 17.0707 26.6608 17.9136 25.8179C18.9672 24.8696 24.7622 18.2318 24.2354 18.3372Z" fill="#6F2DA8"/>
<path d="M24.2354 18.3371C22.3389 18.5479 19.7048 18.864 16.8601 18.9693C16.8601 18.9693 17.3869 26.5554 15.5957 26.8715C15.7011 26.8715 16.9654 26.7661 17.8083 25.9232C18.8619 25.0803 24.7622 18.2318 24.2354 18.3371V18.3371Z" fill="#591F91"/>
<path d="M16.0172 26.9756H15.5957C15.9118 26.8703 16.1225 26.7649 16.544 26.5542C17.2815 26.0274 17.4922 25.0791 17.5976 24.763C17.9137 22.9719 18.3351 20.2324 18.5458 17.493C18.9673 12.6464 18.6512 9.38012 18.6512 9.38012L25.4998 2.84766C25.4998 2.84766 26.0266 6.42998 26.2373 10.5391C26.448 13.1732 26.448 15.5965 26.448 16.8609C26.448 16.9662 26.5534 17.9145 25.6051 18.7574C24.6569 19.7056 19.8102 24.3416 17.8083 26.2381C17.0708 27.081 16.1225 26.9756 16.0172 26.9756V26.9756Z" fill="#73BE28"/>
</svg>
