<svg width="30" height="28" viewBox="0 0 30 28" fill="none" xmlns="http://www.w3.org/2000/svg">
<path d="M14.7183 27.116L20.1417 10.4336H9.30273L14.7183 27.116Z" fill="#E24329"/>
<path d="M1.70659 10.4336L0.0550234 15.5019C-0.0944294 15.9621 0.0669694 16.4701 0.461441 16.757L14.7187 27.1159L1.70659 10.4336Z" fill="#FCA326"/>
<path d="M1.70703 10.4325H9.30349L6.03419 0.385512C5.86686 -0.128504 5.13764 -0.128504 4.9643 0.385512L1.70703 10.4325Z" fill="#E24329"/>
<path d="M27.7407 10.4336L29.3863 15.5019C29.5358 15.9621 29.3744 16.4701 28.9799 16.757L14.7207 27.1159L27.7407 10.4336Z" fill="#FCA326"/>
<path d="M27.7429 10.4325H20.1465L23.4098 0.385512C23.5771 -0.128504 24.3063 -0.128504 24.4797 0.385512L27.7429 10.4325Z" fill="#E24329"/>
<path d="M14.7207 27.1159L20.1442 10.4336H27.7407L14.7207 27.1159Z" fill="#FC6D26"/>
<path d="M14.719 27.1159L1.70703 10.4336H9.30349L14.719 27.1159Z" fill="#FC6D26"/>
</svg>
