<svg width="31" height="29" viewBox="0 0 31 29" fill="none" xmlns="http://www.w3.org/2000/svg">
<path d="M24.7719 17.4472H22.907C22.6249 17.4376 22.3443 17.4931 22.087 17.6093C21.8566 17.6843 21.6443 17.8063 21.4635 17.9675V15.0078H20.709V24.1655H21.4977V19.9492C21.5035 19.4751 21.691 19.0214 22.0215 18.6811C22.3541 18.353 22.8012 18.1665 23.2687 18.1608H24.3847C24.6158 18.1613 24.8445 18.2075 25.0576 18.2969C25.2707 18.3862 25.4639 18.5168 25.6261 18.6811C25.7926 18.8478 25.9246 19.0455 26.0145 19.2631C26.1043 19.4807 26.1504 19.7138 26.15 19.9492V24.1428H26.9387V19.5938C26.9419 19.3075 26.885 19.0238 26.7717 18.7608C26.6585 18.4979 26.4913 18.2616 26.281 18.067C26.0897 17.8604 25.8556 17.6979 25.5949 17.5909C25.3343 17.4839 25.0535 17.4348 24.7719 17.4472Z" fill="#17171C"/>
<path d="M15.7479 19.7578L18.3901 24.3779L15.7479 29.0008H10.4948L7.85547 24.3779L10.4948 19.7578H15.7479Z" fill="#FFB000"/>
<path d="M15.7479 8.60352L18.3901 13.2236L15.7479 17.8465H10.4948L7.85547 13.2236L10.4948 8.60352H15.7479Z" fill="#64BA00"/>
<path d="M6.44893 14.9785L8.60146 18.7997L6.44893 22.6265H2.1525L0 18.7997L2.1525 14.9785H6.44893Z" fill="#F96E10"/>
<path d="M27.1826 0L30.5993 6.05018L27.1826 12.1089H20.3151L16.8984 6.05018L20.3151 0H27.1826Z" fill="#0298EC"/>
</svg>
