<svg width="20" height="21" viewBox="0 0 20 21" fill="none" xmlns="http://www.w3.org/2000/svg">
<path d="M2.68566 4.29449C2.96421 4.57877 3.41629 4.57877 3.69485 4.29449C3.9734 4.01021 3.9734 3.54884 3.69485 3.26456L2.45676 2.00103C2.17821 1.71675 1.72613 1.71675 1.44757 2.00103C1.16902 2.28531 1.16902 2.74668 1.44757 3.03096L2.68566 4.29449ZM10.0006 2.71988C10.3944 2.71988 10.7141 2.39366 10.7141 1.99171V0.728176C10.7141 0.326223 10.3944 0 10.0006 0C9.60671 0 9.28706 0.326223 9.28706 0.728176V1.99171C9.28706 2.39366 9.60671 2.71988 10.0006 2.71988ZM17.3155 4.29449L18.5536 3.03096C18.8321 2.74668 18.8321 2.28531 18.5536 2.00103C18.275 1.71675 17.8229 1.71675 17.5444 2.00103L16.3063 3.26456C16.0277 3.54884 16.0277 4.01021 16.3063 4.29449C16.5849 4.57877 17.0369 4.57877 17.3155 4.29449ZM16.1037 15.7402L15.0819 7.28525C15.0077 6.67067 14.6903 6.10269 14.1897 5.68851C13.6891 5.27432 13.0401 5.04305 12.366 5.03839H7.64998C6.96958 5.03431 6.31143 5.26209 5.80341 5.67686C5.29482 6.09163 4.97232 6.66485 4.89754 7.28467L3.87465 15.7496C3.2245 15.8643 2.61716 16.1725 2.13939 16.6449C1.52235 17.2543 1.17073 18.0867 1.17073 18.9611C1.17073 19.5104 1.39163 20.0318 1.77693 20.4122C2.16108 20.7915 2.67595 21 3.20852 21H16.8292C17.3612 21 17.8766 20.7915 18.2607 20.4122C18.6455 20.0318 18.8669 19.5104 18.8669 18.9611C18.8669 18.0873 18.5153 17.2548 17.8983 16.6449C17.4057 16.1585 16.7766 15.8457 16.1048 15.7397L16.1037 15.7402ZM6.83601 11.1632C7.1882 10.8918 7.68937 10.9634 7.95536 11.3228L9.11296 12.8881L11.5749 8.43402C11.7918 8.04197 12.2792 7.90274 12.6634 8.12411C13.0475 8.34548 13.1834 8.84296 12.9671 9.23501L10.3699 13.9344C10.3699 13.9344 10.3676 13.939 10.3665 13.9408C10.2489 14.1493 10.0965 14.3206 9.91438 14.4511C9.71745 14.5915 9.49141 14.6765 9.25909 14.6969C9.21286 14.7022 9.16662 14.7045 9.12038 14.7045C8.92631 14.7045 8.73337 14.6596 8.55471 14.5722C8.34922 14.4715 8.16542 14.3148 8.02158 14.119L6.68018 12.305C6.41418 11.9456 6.48439 11.4341 6.83658 11.1626L6.83601 11.1632ZM17.1477 19.2407C17.0672 19.3205 16.9525 19.3695 16.828 19.3695H3.20737C3.08294 19.3695 2.96821 19.3205 2.88772 19.2407C2.80838 19.1621 2.76842 19.0613 2.76842 18.9617C2.76842 18.5376 2.93852 18.1257 3.25019 17.8176C3.56299 17.5088 3.99224 17.3306 4.44546 17.3306H15.5894C16.0426 17.3306 16.4718 17.5088 16.7846 17.8176C17.0963 18.1257 17.267 18.5376 17.267 18.9617C17.267 19.0613 17.227 19.1621 17.1477 19.2407ZM2.66511 8.83423C2.66511 8.43227 2.34545 8.10605 1.9516 8.10605H0.713511C0.319653 8.10605 0 8.43227 0 8.83423C0 9.23618 0.319653 9.5624 0.713511 9.5624H1.9516C2.34545 9.5624 2.66511 9.23618 2.66511 8.83423ZM19.2865 8.10605H18.0484C17.6545 8.10605 17.3349 8.43227 17.3349 8.83423C17.3349 9.23618 17.6545 9.5624 18.0484 9.5624H19.2865C19.6803 9.5624 20 9.23618 20 8.83423C20 8.43227 19.6803 8.10605 19.2865 8.10605Z" fill="black"/>
</svg>
 