<svg width="30" height="30" viewBox="0 0 30 30" fill="none" xmlns="http://www.w3.org/2000/svg">
<path d="M28.6684 14.1601L15.7585 1.25026L14.5073 0L0.347169 14.1601C-0.115723 14.6243 -0.115723 15.3757 0.347169 15.8389L9.22566 24.7171L14.5073 30L28.6684 15.8389C29.1316 15.3757 29.1316 14.6243 28.6684 14.1601V14.1601ZM14.5073 19.4342L10.0729 15.0002L14.5073 10.5645L18.9426 15.0002L14.5073 19.4342Z" fill="#2684FF"/>
<path d="M14.5063 10.565C11.6032 7.66059 11.5883 2.95662 14.4754 0.0351562L4.76953 9.73729L10.0524 15.0202L14.5063 10.565Z" fill="url(#paint0_linear_6440_637)"/>
<path d="M18.9554 14.9883L14.5078 19.4349C15.9094 20.8353 16.6977 22.736 16.6977 24.7178C16.6977 26.6996 15.9094 28.5991 14.5078 30.0007L24.2371 20.2712L18.9554 14.9883V14.9883Z" fill="url(#paint1_linear_6440_637)"/>
<defs>
<linearGradient id="paint0_linear_6440_637" x1="12.6002" y1="7.19353" x2="7.52154" y2="12.2709" gradientUnits="userSpaceOnUse">
<stop stop-color="#0052CC"/>
<stop offset="1" stop-color="#2684FF"/>
</linearGradient>
<linearGradient id="paint1_linear_6440_637" x1="16.4688" y1="22.7583" x2="21.5373" y2="17.6897" gradientUnits="userSpaceOnUse">
<stop stop-color="#0052CC"/>
<stop offset="1" stop-color="#2684FF"/>
</linearGradient>
</defs>
</svg>
