<svg width="22" height="21" viewBox="0 0 22 21" fill="none" xmlns="http://www.w3.org/2000/svg">
<path d="M22 21H0L7.32394 5.63438L11.7357 8.82435L17.4901 0L22 21ZM13.9337 17.6812H13.9808C14.5253 17.6821 15.0489 17.4751 15.4412 17.1038C15.6422 16.9244 15.8021 16.705 15.9104 16.4601C16.0186 16.2153 16.0727 15.9506 16.069 15.6836C16.0779 15.4264 16.0283 15.1705 15.9236 14.9347C15.8189 14.6988 15.6618 14.489 15.4639 14.3206C15.1303 13.9914 14.6808 13.801 14.2084 13.7888H14.1723C14.1104 13.7885 14.0489 13.7968 13.9895 13.8135L15.1509 12.1155L14.2256 11.4802L13.7877 12.1155L12.6688 13.7965C12.4765 14.0752 12.3156 14.3206 12.216 14.4912C12.1126 14.6716 12.0236 14.8598 11.9499 15.0538C11.8661 15.26 11.823 15.4801 11.8228 15.7021C11.8202 15.966 11.874 16.2274 11.9809 16.4694C12.0876 16.7114 12.245 16.9286 12.4427 17.1069C12.8299 17.4779 13.3493 17.6851 13.8898 17.6842L13.9337 17.6812ZM9.01505 15.8534L10.2973 17.6371H11.6682L10.1599 15.5679L11.4995 13.7386L10.6104 13.1335L10.218 13.6429L9.01345 15.3132V11.9549L7.81283 10.9924V17.6364H9.01345V15.8519L9.01505 15.8534ZM13.9353 16.5674C13.7012 16.5674 13.4766 16.4759 13.3111 16.3131C13.1455 16.1502 13.0525 15.9294 13.0525 15.6991C13.0525 15.4688 13.1455 15.2479 13.3111 15.0851C13.4766 14.9222 13.7012 14.8308 13.9353 14.8308H13.9432C14.0594 14.8309 14.1745 14.8541 14.2814 14.8991C14.3884 14.9441 14.485 15.0098 14.5654 15.0924C14.6501 15.1689 14.7175 15.262 14.7634 15.3657C14.8091 15.4694 14.8324 15.5814 14.8315 15.6944C14.8286 15.9263 14.733 16.1477 14.5655 16.3107C14.3979 16.4738 14.1718 16.5655 13.9361 16.5658L13.9353 16.5674Z" fill="black"/>
</svg>