<svg width="18" height="20" viewBox="0 0 18 20" fill="none" xmlns="http://www.w3.org/2000/svg">
<path d="M4.32057 19.4641L4.06815 17.9043L2.48633 18.1366L2.72192 19.713L4.32057 19.4641Z" fill="black"/>
<path d="M16.8607 15.049L16.6083 13.4727L9.57422 14.5512L9.82664 16.111L16.8607 15.049Z" fill="black"/>
<path d="M7.3364 16.4942L8.91822 16.2619L8.68263 14.6855L7.08398 14.9179L7.3364 16.4942Z" fill="black"/>
<path d="M6.81276 19.0978L6.56034 17.5215L4.97852 17.7704L5.21411 19.3301L6.81276 19.0978Z" fill="black"/>
<path d="M2.10742 15.6805L2.34301 17.2569L3.94166 17.008L3.68924 15.4316L2.10742 15.6805Z" fill="black"/>
<path d="M9.95898 17.0092L10.2114 18.5856L17.2455 17.507L16.993 15.9473L9.95898 17.0092Z" fill="black"/>
<path d="M7.72117 18.9493L9.30299 18.717L9.0674 17.1406L7.46875 17.3895L7.72117 18.9493Z" fill="black"/>
<path d="M4.5918 15.2987L4.84422 16.8751L6.42604 16.6262L6.19045 15.0664L4.5918 15.2987Z" fill="black"/>
<path d="M2.62515 14.686L0.673116 2.125L0 2.22456L1.96886 14.8022L2.62515 14.686Z" fill="black"/>
<path d="M3.56296 14.5537L1.44265 1.04688L0.769531 1.16303L2.87302 14.6533L3.56296 14.5537Z" fill="black"/>
<path d="M5.13073 14.3199L2.90944 0L2.23633 0.099559L4.45761 14.4195L5.13073 14.3199Z" fill="black"/>
<path d="M6.0589 14.1692L4.02273 1.12695L3.34961 1.22651L5.38578 14.2687L6.0589 14.1692Z" fill="black"/>
<path d="M7.62214 13.9385L5.82155 2.33984L5.14844 2.4394L6.94902 14.038L7.62214 13.9385Z" fill="black"/>
<path d="M8.54807 13.7898L6.66335 1.75977L5.99023 1.85932L7.87496 13.8894L8.54807 13.7898Z" fill="black"/>
</svg>
 