<svg width="25" height="17" viewBox="0 0 25 17" fill="none" xmlns="http://www.w3.org/2000/svg">
<path d="M3.06293 17H6.67112L9.19852 12.3707L7.44867 9.16851L3.06154 17H3.06293ZM22.6882 9.03745L20.7158 12.6487L23.0262 16.947L25 13.3212L22.6882 9.03745ZM22.0887 7.9321L17.8768 0.139003L15.8001 3.63246L20.1135 11.5473L22.0887 7.9321ZM15.5275 12.6977L17.8768 16.9973H21.8828L17.5277 9.0282L15.5275 12.6977ZM6.85194 8.06845L4.88789 4.45453L2.37996 9.05334L4.30646 12.6103L6.85194 8.06845ZM1.79297 10.1494L0 13.5238L1.9724 16.9404L3.72086 13.7144L1.79297 10.1481V10.1494ZM15.1324 4.67163L13.0432 8.18891L14.9293 11.6056L16.9323 7.93608L15.1324 4.67295V4.67163ZM7.25394 0L5.45123 3.34387L12.4617 16.1276L14.3312 12.7056L10.7884 6.22309L7.25255 0H7.25394Z" fill="black"/>
</svg>
 