<svg width="17" height="34" viewBox="0 0 17 34" fill="none" xmlns="http://www.w3.org/2000/svg">
<path d="M7.90413 0.09375L8.85648 1.78853C9.07059 2.10128 9.30255 2.37811 9.57576 2.63591C10.3768 3.38538 11.1234 4.18529 11.8106 5.03016C13.4242 7.03768 14.5126 9.2671 15.2899 11.6782C15.756 13.1511 16.0091 14.6621 16.0281 16.1899C16.1062 20.7576 14.4535 24.6796 11.1214 27.9392C10.5794 28.4561 9.99384 28.9303 9.37057 29.3572C9.04049 29.3572 8.88436 29.1173 8.74831 28.8965C8.50055 28.487 8.33566 28.0373 8.2621 27.5705C8.14501 27.0179 8.06806 26.4653 8.10598 25.8947V25.6369C8.07921 25.582 7.78816 0.223711 7.90413 0.09375V0.09375Z" fill="#599636"/>
<path d="M7.90325 0.0383031C7.86422 -0.0356584 7.82519 0.020341 7.78616 0.0562652C7.80511 0.426073 7.66906 0.75573 7.45607 1.0706C7.22188 1.38335 6.91187 1.62319 6.60074 1.881C4.87223 3.29895 3.51173 5.01169 2.42222 6.92729C0.972508 9.50538 0.225349 12.2684 0.0134675 15.1772C-0.0835517 16.2264 0.363629 19.9287 0.712675 20.9969C1.66502 23.8328 3.37568 26.2091 5.59151 28.2715C6.13571 28.7681 6.71783 29.2288 7.32002 29.6715C7.4951 29.6715 7.51406 29.5236 7.5542 29.4137C7.63096 29.1786 7.68948 28.9385 7.72928 28.6952L8.11959 25.9333L7.90325 0.0383031Z" fill="#6CAC48"/>
<path d="M8.85589 30.4792C8.89492 30.0566 9.10904 29.7058 9.3421 29.3561C9.10792 29.2641 8.93395 29.0813 8.7979 28.8774C8.68059 28.6843 8.58348 28.4809 8.50796 28.2699C8.23586 27.4964 8.17787 26.685 8.09981 25.8947V25.416C8.00279 25.49 7.98272 26.1155 7.98272 26.2085C7.92597 27.0438 7.80898 27.8744 7.63256 28.6946C7.57457 29.0264 7.53554 29.3571 7.32031 29.6519C7.32031 29.6889 7.32031 29.7259 7.33927 29.7808C7.68943 30.7571 7.78534 31.7514 7.84444 32.7646V33.1344C7.84444 33.5761 7.82548 33.4831 8.21244 33.631C8.36857 33.686 8.54253 33.705 8.69866 33.8149C8.81575 33.8149 8.83471 33.723 8.83471 33.649L8.77672 33.0415V31.3467C8.75776 31.0508 8.81575 30.7571 8.85478 30.4803L8.85589 30.4792Z" fill="#C2BFBF"/>
</svg>
