<svg width="21" height="21" viewBox="0 0 21 21" fill="none" xmlns="http://www.w3.org/2000/svg">
<path d="M7.56913 13.0383H13.4309C14.0335 13.0383 14.4078 12.387 14.1065 11.8665L11.1757 6.79C10.8743 6.26956 10.1226 6.26956 9.82435 6.79L6.89348 11.8665C6.59217 12.387 6.96957 13.0383 7.56913 13.0383ZM10.5 0C4.70217 0 0 4.70217 0 10.5C0 16.2978 4.70217 21 10.5 21C16.2978 21 21 16.2978 21 10.5C21 4.70217 16.2978 0 10.5 0ZM10.5274 4.80261C13.6743 4.81783 16.2126 7.38043 16.1974 10.5274C16.1822 13.6743 13.6196 16.2126 10.4726 16.1974C7.32565 16.1822 4.78739 13.6196 4.80261 10.4726C4.81783 7.32565 7.38043 4.78739 10.5274 4.80261ZM3.03739 13.7291C2.97348 13.7504 2.91261 13.7596 2.8487 13.7596C2.59304 13.7596 2.35261 13.5952 2.27043 13.3396C1.98435 12.46 1.8413 11.5135 1.8413 10.5274C1.8413 9.97956 1.88696 9.40739 1.97826 8.83217C2.66609 5.33826 5.35043 2.64174 8.82 1.9387C9.15174 1.87174 9.4713 2.08478 9.53826 2.41348C9.60522 2.74217 9.39217 3.06478 9.06348 3.13174C6.07783 3.73435 3.76783 6.05652 3.18043 9.04217C3.10435 9.53217 3.06478 10.0404 3.06478 10.5243C3.06478 11.3796 3.18957 12.2013 3.43609 12.9591C3.53957 13.2787 3.36609 13.6226 3.04348 13.7261L3.03739 13.7291ZM17.1409 16.243C15.54 18.1483 13.2361 19.1952 10.6552 19.1952C8.07435 19.1952 5.62739 18.133 3.96261 16.2826C3.73739 16.033 3.7587 15.6465 4.00826 15.4243C4.25783 15.1991 4.64435 15.2204 4.86652 15.47C6.2787 17.0404 8.43956 17.9809 10.6522 17.9809C12.8648 17.9809 14.84 17.0861 16.2065 15.4609C16.4226 15.2052 16.8061 15.1687 17.0648 15.3878C17.3235 15.6039 17.3539 15.9874 17.1378 16.2461L17.1409 16.243ZM18.7874 13.3C18.6991 13.5526 18.4648 13.7078 18.2122 13.7078C18.1452 13.7078 18.0783 13.6957 18.0113 13.6743C17.6948 13.5648 17.5274 13.2178 17.637 12.8983C17.7435 12.5878 17.8409 12.2622 17.92 11.9274C18.0113 11.4678 18.06 10.9748 18.06 10.4878C18.06 6.91478 15.5126 3.81957 12.0004 3.12565C11.6717 3.06174 11.4435 2.74217 11.5043 2.41348C11.5652 2.08478 11.8696 1.86565 12.1952 1.92348C12.2013 1.92348 12.2287 1.92957 12.2348 1.93261C16.313 2.73609 19.2743 6.33652 19.2743 10.4878C19.2743 11.0539 19.2196 11.6261 19.107 12.1861C19.0126 12.5848 18.9061 12.95 18.7843 13.3H18.7874Z" fill="black"/>
</svg>
