<svg width="69" height="9" viewBox="0 0 69 9" fill="none" xmlns="http://www.w3.org/2000/svg">
<path d="M29.853 5.83007H34.4038L32 1.94822L27.5807 8.95944H25.5711L30.9459 0.547772C31.0631 0.37992 31.2188 0.242591 31.4 0.147291C31.5811 0.051991 31.7825 0.00149481 31.9872 3.26836e-05C32.1919 -0.00142944 32.394 0.0461851 32.5765 0.138887C32.759 0.23159 32.9166 0.36668 33.0362 0.532842L38.426 8.95944H36.4164L35.4698 7.39177H30.8653L29.862 5.83007M50.7434 7.39177V0.0849359H49.0354V8.11141C49.035 8.22295 49.0574 8.33339 49.101 8.43604C49.1446 8.53869 49.2086 8.63142 49.2892 8.70861C49.37 8.79132 49.4666 8.85694 49.5733 8.90157C49.68 8.9462 49.7946 8.96893 49.9103 8.9684H57.674L58.6862 7.40073H50.7344M22.5044 6.08687C23.3003 6.08687 24.0636 5.7707 24.6264 5.20791C25.1892 4.64512 25.5054 3.88181 25.5054 3.0859C25.5054 2.29 25.1892 1.52669 24.6264 0.963899C24.0636 0.401108 23.3003 0.0849359 22.5044 0.0849359H15.0393V8.95944H16.7443V1.65559H22.3999C22.7808 1.65559 23.1461 1.80691 23.4155 2.07627C23.6849 2.34563 23.8362 2.71095 23.8362 3.09188C23.8362 3.4728 23.6849 3.83813 23.4155 4.10748C23.1461 4.37684 22.7808 4.52816 22.3999 4.52816H17.5894L22.6836 8.95944H25.159L21.737 6.08687H22.5044ZM4.55235 8.95944H9.70924C10.8657 8.92943 11.9648 8.44893 12.7722 7.62033C13.5796 6.79174 14.0314 5.68058 14.0314 4.52368C14.0314 3.36678 13.5796 2.25562 12.7722 1.42703C11.9648 0.598436 10.8657 0.117931 9.70924 0.0879219H4.55235C3.96015 0.0725557 3.37088 0.175925 2.81927 0.391934C2.26766 0.607943 1.76489 0.932219 1.3406 1.34564C0.916317 1.75906 0.579109 2.25325 0.348865 2.79907C0.11862 3.34489 0 3.93129 0 4.52368C0 5.11608 0.11862 5.70247 0.348865 6.2483C0.579109 6.79412 0.916317 7.28831 1.3406 7.70173C1.76489 8.11514 2.26766 8.43942 2.81927 8.65543C3.37088 8.87144 3.96015 8.97481 4.55235 8.95944M9.59278 7.39774H4.66582C3.92039 7.3737 3.21353 7.06068 2.69473 6.52487C2.17593 5.98907 1.88585 5.27248 1.88585 4.52667C1.88585 3.78085 2.17593 3.06427 2.69473 2.52846C3.21353 1.99266 3.92039 1.67963 4.66582 1.65559H9.59278C9.97761 1.64318 10.361 1.70826 10.7202 1.84696C11.0794 1.98565 11.407 2.19514 11.6836 2.46297C11.9602 2.7308 12.1801 3.05151 12.3303 3.40603C12.4806 3.76054 12.558 4.14164 12.558 4.52667C12.558 4.91169 12.4806 5.29279 12.3303 5.64731C12.1801 6.00183 11.9602 6.32253 11.6836 6.59036C11.407 6.85819 11.0794 7.06768 10.7202 7.20638C10.361 7.34508 9.97761 7.41015 9.59278 7.39774M41.9883 8.95944H47.2527L48.25 7.39774H42.1048C41.7199 7.41015 41.3365 7.34508 40.9774 7.20638C40.6182 7.06768 40.2906 6.85819 40.014 6.59036C39.7373 6.32253 39.5174 6.00183 39.3672 5.64731C39.217 5.29279 39.1396 4.91169 39.1396 4.52667C39.1396 4.14164 39.217 3.76054 39.3672 3.40603C39.5174 3.05151 39.7373 2.7308 40.014 2.46297C40.2906 2.19514 40.6182 1.98565 40.9774 1.84696C41.3365 1.70826 41.7199 1.64318 42.1048 1.65559H47.1064L48.1157 0.0879219H41.9883C41.3961 0.0725557 40.8068 0.175925 40.2552 0.391934C39.7036 0.607943 39.2008 0.932219 38.7766 1.34564C38.3523 1.75906 38.0151 2.25325 37.7848 2.79907C37.5546 3.34489 37.436 3.93129 37.436 4.52368C37.436 5.11608 37.5546 5.70247 37.7848 6.2483C38.0151 6.79412 38.3523 7.28831 38.7766 7.70173C39.2008 8.11514 39.7036 8.43942 40.2552 8.65543C40.8068 8.87144 41.3961 8.97481 41.9883 8.95944M62.8517 7.39774C62.2261 7.39798 61.6175 7.19396 61.1184 6.81668C60.6193 6.4394 60.2571 5.9095 60.0867 5.30752H67.3786L68.3819 3.74283H60.0867C60.2566 3.14059 60.6188 2.61041 61.118 2.23306C61.6171 1.85571 62.226 1.65188 62.8517 1.65261H67.8563L68.8567 0.0849359H62.7353C61.5788 0.114945 60.4797 0.59545 59.6723 1.42404C58.865 2.25264 58.4131 3.36379 58.4131 4.52069C58.4131 5.6776 58.865 6.78875 59.6723 7.61735C60.4797 8.44594 61.5788 8.92645 62.7353 8.95645H67.9997L69 7.39476H62.8488" fill="#C74634"/>
</svg>
