<svg width="18" height="19" viewBox="0 0 18 19" fill="none" xmlns="http://www.w3.org/2000/svg">
<path d="M15.7458 10.3458C16.5368 9.38217 17.108 8.23635 17.3504 7H12.3911C12.1192 7.72061 11.4003 8.25779 10.6328 8.25779H1.66393L1.37305 10.3458H15.7469H15.7458Z" fill="black"/>
<path d="M5.30968 1.75742L6.13976 2.09688H16.2639C15.2482 0.816465 13.6637 0.0136719 11.7848 0.0136719H3.66016C3.93803 0.810509 4.52571 1.43702 5.31086 1.75742H5.30968Z" fill="black"/>
<path d="M6.01958 2.875L5.10673 3.2097C4.2258 3.53248 3.45721 4.16852 2.95703 4.97489H11.0911C11.8538 4.97489 12.4202 5.5073 12.4971 6.22196H17.4575C17.5568 4.98442 17.3049 3.83859 16.7787 2.87619H6.01958V2.875Z" fill="black"/>
<path d="M1.26277 11.1211L0.999082 13.0078L0.970703 13.215H9.94079C11.8256 13.215 13.6383 12.4087 15.0147 11.1211H1.26277Z" fill="black"/>
<path d="M5.49765 16.1266L5.79563 13.9922H0.862431L0.564453 16.1266H5.49765Z" fill="black"/>
<path d="M0.457311 16.9043L0.164062 18.9994H5.09726L5.38932 16.9043H0.457311Z" fill="black"/>
</svg>
