<svg width="35" height="25" viewBox="0 0 35 25" fill="none" xmlns="http://www.w3.org/2000/svg">
<path d="M14.5479 2.67C15.6754 1.49523 17.245 0.766663 18.9811 0.766663C21.2888 0.766663 23.3022 2.05348 24.3743 3.96379C25.3061 3.54747 26.3374 3.3159 27.4226 3.3159C31.5848 3.3159 34.9592 6.71969 34.9592 10.9183C34.9592 15.1174 31.5848 18.5212 27.4226 18.5212C26.9146 18.5212 26.4181 18.4704 25.938 18.3733C24.9938 20.0575 23.1946 21.1954 21.1294 21.1954C20.2649 21.1954 19.4472 20.9957 18.7191 20.6406C17.762 22.8921 15.5319 24.4707 12.9329 24.4707C10.2263 24.4707 7.91961 22.7581 7.03417 20.3563C6.64723 20.4384 6.24634 20.4813 5.835 20.4813C2.61248 20.4813 0 17.8419 0 14.5855C0 12.4033 1.17377 10.498 2.91775 9.47858C2.5587 8.65241 2.359 7.74058 2.359 6.78194C2.359 3.03702 5.39926 0.00124483 9.14915 0.00124483C11.3508 0.00124483 13.3074 1.04803 14.5479 2.67Z" fill="#00A1E0"/>
<path d="M5.06259 12.6925C5.04068 12.7498 5.07056 12.7617 5.07753 12.7717C5.14326 12.8195 5.20999 12.8539 5.27722 12.8922C5.63379 13.0814 5.97043 13.1367 6.32251 13.1367C7.03963 13.1367 7.48483 12.7553 7.48483 12.1412V12.1293C7.48483 11.5616 6.98236 11.3554 6.51076 11.2065L6.4495 11.1866C6.09393 11.071 5.78717 10.9714 5.78717 10.7374V10.7249C5.78717 10.5247 5.96645 10.3773 6.24433 10.3773C6.55309 10.3773 6.91961 10.4799 7.15566 10.6104C7.15566 10.6104 7.22488 10.6552 7.25028 10.588C7.26422 10.5521 7.38374 10.2304 7.39619 10.1956C7.40964 10.1577 7.38573 10.1298 7.36133 10.1149C7.09192 9.95105 6.71942 9.839 6.33397 9.839L6.26226 9.8395C5.6059 9.8395 5.14775 10.2359 5.14775 10.8041V10.8161C5.14775 11.4152 5.65321 11.6094 6.1268 11.7448L6.203 11.7682C6.54811 11.8743 6.84541 11.9654 6.84541 12.2085V12.2204C6.84541 12.4425 6.65219 12.6078 6.34044 12.6078C6.21943 12.6078 5.83348 12.6054 5.41666 12.3419C5.36637 12.3125 5.33698 12.2911 5.29814 12.2677C5.27772 12.2548 5.22643 12.2324 5.20402 12.3001L5.06259 12.6925Z" fill="white"/>
<path d="M15.5606 12.6925C15.5387 12.7498 15.5686 12.7617 15.5756 12.7717C15.6413 12.8195 15.708 12.8539 15.7753 12.8922C16.1318 13.0814 16.4685 13.1367 16.8206 13.1367C17.5377 13.1367 17.9829 12.7553 17.9829 12.1412V12.1293C17.9829 11.5616 17.4804 11.3554 17.0088 11.2065L16.9475 11.1866C16.592 11.071 16.2852 10.9714 16.2852 10.7374V10.7249C16.2852 10.5247 16.4645 10.3773 16.7424 10.3773C17.0511 10.3773 17.4177 10.4799 17.6537 10.6104C17.6537 10.6104 17.7229 10.6552 17.7483 10.588C17.7623 10.5521 17.8818 10.2304 17.8942 10.1956C17.9077 10.1577 17.8838 10.1298 17.8594 10.1149C17.59 9.95105 17.2175 9.839 16.832 9.839L16.7603 9.8395C16.1039 9.8395 15.6458 10.2359 15.6458 10.8041V10.8161C15.6458 11.4152 16.1513 11.6094 16.6248 11.7448L16.701 11.7682C17.0462 11.8743 17.344 11.9654 17.344 12.2085V12.2204C17.344 12.4425 17.1502 12.6078 16.8385 12.6078C16.7175 12.6078 16.3315 12.6054 15.9147 12.3419C15.8644 12.3125 15.8345 12.2921 15.7967 12.2677C15.7837 12.2593 15.723 12.2358 15.7021 12.3001L15.5606 12.6925Z" fill="white"/>
<path d="M22.7272 11.4896C22.7272 11.8367 22.6625 12.1101 22.535 12.3033C22.409 12.4945 22.2183 12.5877 21.9523 12.5877C21.6859 12.5877 21.4962 12.495 21.3722 12.3033C21.2467 12.1106 21.1829 11.8367 21.1829 11.4896C21.1829 11.143 21.2467 10.8701 21.3722 10.6789C21.4962 10.4896 21.6859 10.3975 21.9523 10.3975C22.2183 10.3975 22.409 10.4896 22.5355 10.6789C22.6625 10.8701 22.7272 11.143 22.7272 11.4896ZM23.3258 10.8462C23.267 10.6475 23.1754 10.4722 23.0534 10.3263C22.9314 10.1799 22.777 10.0623 22.5938 9.97668C22.411 9.89152 22.1949 9.8482 21.9523 9.8482C21.7093 9.8482 21.4932 9.89152 21.3104 9.97668C21.1272 10.0623 20.9728 10.1799 20.8503 10.3263C20.7288 10.4727 20.6371 10.648 20.5779 10.8462C20.5196 11.0439 20.4902 11.26 20.4902 11.4896C20.4902 11.7192 20.5196 11.9358 20.5779 12.133C20.6371 12.3312 20.7283 12.5065 20.8508 12.6529C20.9728 12.7993 21.1277 12.9163 21.3104 12.9995C21.4937 13.0827 21.7093 13.125 21.9523 13.125C22.1949 13.125 22.4105 13.0827 22.5938 12.9995C22.7765 12.9163 22.9314 12.7993 23.0534 12.6529C23.1754 12.507 23.267 12.3317 23.3258 12.133C23.3846 11.9353 23.414 11.7187 23.414 11.4896C23.414 11.2605 23.3846 11.0439 23.3258 10.8462Z" fill="white"/>
<path d="M28.2447 12.4946C28.2248 12.4363 28.1685 12.4582 28.1685 12.4582C28.0813 12.4916 27.9887 12.5225 27.8901 12.5379C27.79 12.5533 27.6799 12.5613 27.5619 12.5613C27.2721 12.5613 27.042 12.4752 26.8772 12.3048C26.7118 12.1345 26.6192 11.8591 26.6202 11.4866C26.6212 11.1475 26.7029 10.8925 26.8498 10.6983C26.9957 10.5051 27.2178 10.406 27.5141 10.406C27.7611 10.406 27.9494 10.4344 28.1466 10.4966C28.1466 10.4966 28.1939 10.517 28.2163 10.4553C28.2686 10.3099 28.3074 10.2058 28.3632 10.0459C28.3791 10.0006 28.3403 9.9812 28.3263 9.97572C28.2487 9.94534 28.0654 9.89604 27.9269 9.87513C27.7975 9.85521 27.6461 9.84475 27.4778 9.84475C27.2263 9.84475 27.0022 9.88758 26.8104 9.97323C26.6192 10.0584 26.4569 10.1759 26.3284 10.3223C26.1999 10.4687 26.1023 10.644 26.0371 10.8422C25.9723 11.0399 25.9395 11.2571 25.9395 11.4866C25.9395 11.9831 26.0734 12.3845 26.3379 12.6783C26.6028 12.9732 27.0007 13.123 27.5196 13.123C27.8264 13.123 28.1411 13.0608 28.3672 12.9717C28.3672 12.9717 28.4105 12.9507 28.3916 12.9004L28.2447 12.4946Z" fill="white"/>
<path d="M29.2902 11.1564C29.3186 10.9637 29.3719 10.8033 29.454 10.6783C29.578 10.4886 29.7673 10.3845 30.0332 10.3845C30.2991 10.3845 30.4749 10.4891 30.6009 10.6783C30.6846 10.8033 30.7209 10.9707 30.7354 11.1564H29.2902ZM31.3056 10.7326C31.2548 10.5409 31.1288 10.3472 31.0461 10.2585C30.9156 10.1181 30.7881 10.02 30.6617 9.96522C30.4963 9.89451 30.2981 9.84769 30.081 9.84769C29.828 9.84769 29.5984 9.89002 29.4122 9.97767C29.2254 10.0653 29.0686 10.1848 28.9456 10.3337C28.8226 10.4821 28.7299 10.6589 28.6712 10.8596C28.6119 11.0593 28.582 11.2769 28.582 11.5065C28.582 11.7401 28.6129 11.9577 28.6742 12.1534C28.7359 12.3506 28.8345 12.5244 28.968 12.6683C29.1009 12.8133 29.2723 12.9268 29.4774 13.006C29.6811 13.0847 29.9286 13.1255 30.213 13.125C30.7981 13.123 31.1064 12.9925 31.2334 12.9223C31.2558 12.9099 31.2772 12.888 31.2503 12.8252L31.1178 12.4542C31.0979 12.3989 31.0416 12.4193 31.0416 12.4193C30.8967 12.4731 30.6905 12.5697 30.21 12.5687C29.8957 12.5682 29.6627 12.4756 29.5168 12.3307C29.3669 12.1823 29.2937 11.9642 29.2807 11.6564L31.3071 11.6584C31.3071 11.6584 31.3603 11.6574 31.3658 11.6056C31.3678 11.5837 31.4355 11.1893 31.3056 10.7326Z" fill="white"/>
<path d="M13.0617 11.1564C13.0905 10.9637 13.1433 10.8033 13.2255 10.6783C13.3495 10.4886 13.5387 10.3845 13.8047 10.3845C14.0706 10.3845 14.2464 10.4891 14.3729 10.6783C14.456 10.8033 14.4924 10.9707 14.5068 11.1564H13.0617ZM15.0765 10.7326C15.0258 10.5409 14.9003 10.3472 14.8176 10.2585C14.6871 10.1181 14.5596 10.02 14.4331 9.96522C14.2678 9.89451 14.0696 9.84769 13.8525 9.84769C13.6 9.84769 13.3699 9.89002 13.1837 9.97767C12.9969 10.0653 12.8401 10.1848 12.7171 10.3337C12.594 10.4821 12.5014 10.6589 12.4427 10.8596C12.3839 11.0593 12.3535 11.2769 12.3535 11.5065C12.3535 11.7401 12.3844 11.9577 12.4456 12.1534C12.5074 12.3506 12.606 12.5244 12.7395 12.6683C12.8724 12.8133 13.0437 12.9268 13.2489 13.006C13.4526 13.0847 13.7001 13.1255 13.9844 13.125C14.5696 13.123 14.8778 12.9925 15.0048 12.9223C15.0272 12.9099 15.0487 12.888 15.0218 12.8252L14.8898 12.4542C14.8694 12.3989 14.8131 12.4193 14.8131 12.4193C14.6682 12.4731 14.4625 12.5697 13.981 12.5687C13.6672 12.5682 13.4342 12.4756 13.2883 12.3307C13.1384 12.1823 13.0651 11.9642 13.0522 11.6564L15.0785 11.6584C15.0785 11.6584 15.1318 11.6574 15.1373 11.6056C15.1393 11.5837 15.207 11.1893 15.0765 10.7326Z" fill="white"/>
<path d="M8.6857 12.4836C8.60652 12.4203 8.59557 12.4044 8.56867 12.3636C8.52883 12.3013 8.50842 12.2127 8.50842 12.1001C8.50842 11.9218 8.56718 11.7939 8.68919 11.7077C8.68769 11.7082 8.86349 11.5558 9.27682 11.5613C9.56715 11.5653 9.82661 11.6081 9.82661 11.6081V12.5294H9.82711C9.82711 12.5294 9.56964 12.5847 9.27981 12.6021C8.86747 12.627 8.68421 12.4831 8.6857 12.4836ZM9.49196 11.0598C9.40979 11.0538 9.30322 11.0504 9.17573 11.0504C9.00193 11.0504 8.8341 11.0723 8.67674 11.1146C8.51838 11.1569 8.37595 11.2232 8.25344 11.3108C8.13044 11.399 8.03134 11.5115 7.95963 11.645C7.88792 11.7784 7.85156 11.9358 7.85156 12.1121C7.85156 12.2914 7.88244 12.4472 7.94419 12.5747C8.00594 12.7027 8.09508 12.8093 8.20862 12.8914C8.32117 12.9736 8.46011 13.0339 8.62146 13.0702C8.78032 13.1066 8.9606 13.125 9.1578 13.125C9.36546 13.125 9.57263 13.1081 9.77332 13.0737C9.97202 13.0398 10.216 12.9905 10.2838 12.9751C10.351 12.9592 10.4257 12.9388 10.4257 12.9388C10.476 12.9263 10.472 12.8725 10.472 12.8725L10.471 11.0195C10.471 10.6131 10.3624 10.3118 10.1488 10.1251C9.93617 9.93883 9.62293 9.84471 9.21806 9.84471C9.06617 9.84471 8.82166 9.86563 8.67524 9.89501C8.67524 9.89501 8.23253 9.98066 8.05026 10.1231C8.05026 10.1231 8.01042 10.148 8.03233 10.2038L8.17576 10.5892C8.19368 10.639 8.24199 10.6221 8.24199 10.6221C8.24199 10.6221 8.25743 10.6161 8.27536 10.6056C8.66529 10.3935 9.1583 10.4 9.1583 10.4C9.37742 10.4 9.54574 10.4438 9.65928 10.5309C9.76984 10.6156 9.82611 10.7436 9.82611 11.0135V11.0992C9.65181 11.0743 9.49196 11.0598 9.49196 11.0598Z" fill="white"/>
<path d="M25.8319 10.0153C25.8473 9.96953 25.815 9.94762 25.8015 9.94264C25.7672 9.9292 25.5949 9.89284 25.4619 9.88438C25.2074 9.86894 25.066 9.91177 24.9395 9.96854C24.814 10.0253 24.6746 10.1169 24.5969 10.221V9.97451C24.5969 9.94015 24.5725 9.91276 24.5386 9.91276H24.0192C23.9853 9.91276 23.9609 9.94015 23.9609 9.97451V12.9968C23.9609 13.0307 23.9888 13.0586 24.0227 13.0586H24.555C24.5889 13.0586 24.6163 13.0307 24.6163 12.9968V11.4869C24.6163 11.2842 24.6387 11.0821 24.6835 10.9551C24.7274 10.8296 24.7871 10.729 24.8608 10.6568C24.935 10.5851 25.0192 10.5348 25.1113 10.5064C25.2054 10.4775 25.3095 10.468 25.3832 10.468C25.4893 10.468 25.6058 10.4954 25.6058 10.4954C25.6447 10.4999 25.6666 10.476 25.6795 10.4406C25.7144 10.348 25.813 10.0706 25.8319 10.0153Z" fill="white"/>
<path d="M20.8344 8.61547C20.7697 8.59555 20.7109 8.5821 20.6342 8.56766C20.5565 8.55371 20.4639 8.54674 20.3588 8.54674C19.9923 8.54674 19.7035 8.65033 19.5008 8.8545C19.2991 9.05768 19.1622 9.36694 19.0934 9.7738L19.0685 9.91075H18.6084C18.6084 9.91075 18.5526 9.90876 18.5407 9.96951L18.4655 10.3913C18.46 10.4312 18.4774 10.4566 18.5312 10.4566H18.9789L18.5247 12.9923C18.4894 13.1965 18.4485 13.3643 18.4032 13.4918C18.3589 13.6173 18.3156 13.7114 18.2618 13.7802C18.21 13.8459 18.1612 13.8947 18.0765 13.9231C18.0068 13.9465 17.9261 13.9575 17.838 13.9575C17.7892 13.9575 17.7239 13.9495 17.6756 13.9395C17.6278 13.9301 17.6024 13.9196 17.5661 13.9042C17.5661 13.9042 17.5138 13.8842 17.4929 13.9365C17.4764 13.9799 17.3569 14.308 17.3425 14.3484C17.3285 14.3887 17.3485 14.4201 17.3739 14.4295C17.4336 14.4505 17.4779 14.4644 17.5591 14.4838C17.6717 14.5102 17.7668 14.5117 17.8559 14.5117C18.0422 14.5117 18.2125 14.4853 18.3534 14.4345C18.4948 14.3832 18.6183 14.2941 18.7279 14.1736C18.8459 14.0431 18.9201 13.9067 18.9908 13.7199C19.0611 13.5356 19.1213 13.3066 19.1691 13.0396L19.6258 10.4566H20.2931C20.2931 10.4566 20.3494 10.4585 20.3608 10.3973L20.4365 9.97599C20.4415 9.93565 20.4246 9.91075 20.3703 9.91075H19.7224C19.7259 9.89631 19.7553 9.66823 19.8295 9.45359C19.8613 9.36246 19.9211 9.28826 19.9714 9.23746C20.0212 9.18766 20.0785 9.1523 20.1412 9.13189C20.2055 9.11097 20.2787 9.10101 20.3588 9.10101C20.4196 9.10101 20.4798 9.10798 20.5252 9.11744C20.5879 9.13089 20.6123 9.13786 20.6287 9.14284C20.695 9.16276 20.7039 9.14334 20.7169 9.11147L20.8718 8.68618C20.8877 8.64037 20.8484 8.62094 20.8344 8.61547Z" fill="white"/>
<path d="M11.7823 12.9973C11.7823 13.0312 11.7579 13.0586 11.724 13.0586H11.1867C11.1528 13.0586 11.1289 13.0312 11.1289 12.9973V8.67276C11.1289 8.63889 11.1528 8.6115 11.1867 8.6115H11.724C11.7579 8.6115 11.7823 8.63889 11.7823 8.67276V12.9973Z" fill="white"/>
</svg>
