<svg width="56" height="28" viewBox="0 0 56 28" fill="none" xmlns="http://www.w3.org/2000/svg">
<path fill-rule="evenodd" clip-rule="evenodd" d="M0 27.3628H27.9551L55.3131 0H0V27.3628" fill="url(#paint0_linear_6440_639)"/>
<path fill-rule="evenodd" clip-rule="evenodd" d="M32.8249 5.47158H27.3621L27.3803 18.3199L22.6234 5.46671H17.9067L13.8461 16.2009C13.4143 13.4694 10.5905 12.5269 8.36862 11.821C6.90137 11.3497 5.34412 10.6565 5.35993 9.89037C5.37209 9.26164 6.19297 8.6785 7.82441 8.76546C8.91892 8.82444 9.88574 8.91261 11.809 9.84173L13.7001 6.54603C11.9465 5.65339 9.52151 5.08971 7.53315 5.08789H7.52098C5.20244 5.08789 3.27184 5.83885 2.07517 7.07626C1.24091 7.93971 0.790942 9.03787 0.7727 10.2522C0.742297 11.9231 1.35462 13.1076 2.64128 14.0544C3.7285 14.851 5.11914 15.3678 6.34438 15.7472C7.85542 16.2154 9.08979 16.6228 9.07459 17.4899C9.06242 17.8061 8.94324 18.1017 8.71583 18.34C8.33883 18.7292 7.76117 18.8751 6.96157 18.8909C5.41891 18.9238 4.27575 18.6811 2.454 17.6043L0.771484 20.9425C2.59142 21.9774 4.52323 22.4967 6.71834 22.4967L7.21209 22.4931C9.12262 22.4584 10.6732 22.0006 11.9051 21.0094C11.9757 20.9529 12.0389 20.8957 12.1046 20.8379L11.8978 21.9033L16.5069 21.8887L17.3339 19.7714C18.2034 20.0681 19.1921 20.2323 20.2417 20.2323C21.2644 20.2323 22.2264 20.0766 23.0795 19.7969L23.6559 21.8887L31.9256 21.8966L31.9457 17.0698H33.7054C37.9588 17.0698 40.4731 14.9051 40.4731 11.2749C40.4718 7.23192 38.0275 5.47097 32.8249 5.47097L32.8249 5.47158ZM20.2417 16.4544C19.6062 16.4544 19.0103 16.3437 18.4977 16.1492L20.2222 10.704H20.2556L21.9521 16.1644C21.4414 16.3468 20.8594 16.4544 20.241 16.4544H20.2417ZM33.1447 13.3259H31.9444V8.93754H33.1454C34.7446 8.93754 36.0215 9.4702 36.0215 11.1035C36.0201 12.7939 34.7446 13.3259 33.1454 13.3259" fill="white"/>
<defs>
<linearGradient id="paint0_linear_6440_639" x1="27.6565" y1="0" x2="27.6565" y2="27.3634" gradientUnits="userSpaceOnUse">
<stop stop-color="#00AEEF"/>
<stop offset="0.212" stop-color="#0097DC"/>
<stop offset="0.519" stop-color="#007CC5"/>
<stop offset="0.792" stop-color="#006CB8"/>
<stop offset="1" stop-color="#0066B3"/>
</linearGradient>
</defs>
</svg>
