<svg width="52" height="15" viewBox="0 0 52 15" fill="none" xmlns="http://www.w3.org/2000/svg">
<path fill-rule="evenodd" clip-rule="evenodd" d="M0 13.7407V0.30563H3.47657V1.37373C4.51326 0.50459 5.88504 0.00195312 7.24635 0.00195312C9.01605 0.00195312 10.7229 0.808267 11.8853 2.16958C12.7858 3.23768 13.257 4.57804 13.257 6.8818V13.7407H9.65482V6.62001C9.75953 5.68803 9.48727 4.78748 8.89039 4.08588C8.32492 3.58324 7.62333 3.32145 6.84843 3.35287C5.58136 3.38428 4.37713 3.99163 3.6127 4.98644V13.7407" fill="#293E40"/>
<path fill-rule="evenodd" clip-rule="evenodd" d="M22.4822 11.8027C21.4455 11.8342 20.4402 11.4048 19.7072 10.6718C18.9742 9.9388 18.5763 8.93353 18.5763 7.89684C18.5134 6.46223 19.2464 5.09045 20.4821 4.35743C21.7177 3.59301 23.2885 3.59301 24.5241 4.35743C25.7598 5.09045 26.4614 6.46223 26.3985 7.89684C26.43 8.93353 26.032 9.9388 25.299 10.6718C24.5555 11.4362 23.5503 11.8342 22.4822 11.8027ZM22.4822 0.0117188C19.2778 0.0117188 16.3667 1.98038 15.2044 4.95432C14.0002 7.95967 14.7332 11.3629 17.0788 13.5724C17.6443 14.1065 18.5134 14.1693 19.1208 13.7086C21.0894 12.2007 23.833 12.2007 25.8017 13.7086C26.4404 14.1798 27.2677 14.1065 27.8436 13.5724C30.1474 11.3734 30.9118 7.99108 29.7495 4.98573C28.5557 2.0118 25.6865 0.0431336 22.4822 0.0117188Z" fill="#81B5A1"/>
<path fill-rule="evenodd" clip-rule="evenodd" d="M37.376 13.7398H34.7058L29.3652 0.304688H32.936L35.8786 7.99084L38.7478 0.304688H41.7217L44.5595 7.99084L47.5021 0.304688H51.0729L45.7638 13.7398H43.0935L40.2138 6.08501L37.376 13.7398Z" fill="#293E40"/>
</svg>
