<svg width="21" height="21" viewBox="0 0 21 21" fill="none" xmlns="http://www.w3.org/2000/svg">
<g clip-path="url(#clip0_6394_694)">
<path d="M18.4887 7.20128C18.9155 8.23406 19.1389 9.3508 19.1389 10.5013C19.1389 12.8092 18.2403 14.9795 16.6075 16.6122C14.9756 18.2441 12.8052 19.1435 10.4963 19.1435C8.18742 19.1435 6.0179 18.2449 4.38514 16.6122C2.75324 14.9804 1.85374 12.8101 1.85374 10.5013C1.85374 8.1925 2.75237 6.02307 4.38514 4.39038C6.01704 2.75854 8.18742 1.85909 10.4963 1.85909C11.6469 1.85909 12.7628 2.08244 13.7956 2.50836L15.1938 1.11026C13.7203 0.373557 12.1083 0.00390625 10.4972 0.00390625C7.80996 0.00390625 5.1236 1.02889 3.07442 3.07885C-1.02481 7.17791 -1.02481 13.8247 3.07442 17.9238C5.12447 19.9737 7.81083 20.9987 10.4972 20.9987C13.1835 20.9987 15.8699 19.9737 17.92 17.9238C21.1993 14.6445 21.8547 9.73517 19.8869 5.80319L18.4887 7.20128Z" fill="black"/>
<path d="M14.7049 9.75333C14.7473 9.99746 14.7698 10.2476 14.7698 10.5004C14.7698 11.6414 14.3257 12.7149 13.5179 13.5217C12.7111 14.3285 11.6376 14.7735 10.4966 14.7735C9.35552 14.7735 8.28202 14.3294 7.47516 13.5217C5.80949 11.8561 5.80949 9.14475 7.47516 7.47916C8.28202 6.67233 9.35552 6.22736 10.4966 6.22736C10.7511 6.22736 11.0021 6.24987 11.2471 6.29316L12.7423 4.7981C12.022 4.51502 11.2593 4.37305 10.4957 4.37305C8.92698 4.37305 7.35915 4.97124 6.16184 6.16763C3.76897 8.56041 3.76897 12.4413 6.16184 14.8341C7.35828 16.0305 8.92698 16.6287 10.4957 16.6287C12.0644 16.6287 13.6322 16.0305 14.8287 14.8341C16.6069 13.056 17.0631 10.458 16.1991 8.25742L14.7031 9.75333H14.7049Z" fill="black"/>
<path d="M18.8832 2.11402L18.4512 0L16.453 1.99802L14.4541 3.99604L14.6636 5.02276L10.8821 8.80411C10.3176 8.67598 9.70209 8.83094 9.2623 9.26985C8.58184 9.95028 8.58184 11.0523 9.2623 11.7327C9.94276 12.4132 11.0448 12.4132 11.7253 11.7327C12.1634 11.2947 12.3192 10.6801 12.1919 10.1174L15.9769 6.33255L16.9993 6.54118L18.9974 4.54316L20.9955 2.54514L18.8814 2.11402H18.8832Z" fill="black"/>
</g>
<defs>
<clipPath id="clip0_6394_694">
<rect width="21" height="21" fill="white"/>
</clipPath>
</defs>
</svg>
