<svg width="58" height="18" viewBox="0 0 58 18" fill="none" xmlns="http://www.w3.org/2000/svg">
<path d="M6.18563 10.902C6.18563 11.303 6.10449 11.6756 5.9422 12.0201C5.77992 12.3598 5.54998 12.6522 5.26138 12.8882C4.96834 13.1288 4.62123 13.3127 4.21982 13.4447C3.81861 13.5768 3.37682 13.6428 2.89886 13.6428C2.32617 13.6428 1.81232 13.5626 1.36163 13.3976C0.910803 13.2372 0.455473 12.9635 0 12.586L0.753062 11.3074C1.11371 11.6235 1.43818 11.8545 1.73147 12.001C2.02001 12.1472 2.31755 12.218 2.62423 12.218C2.99842 12.218 3.29596 12.1189 3.52609 11.9161C3.75603 11.7132 3.8642 11.4443 3.8642 11.1C3.8642 10.9538 3.84166 10.817 3.8011 10.6896C3.76052 10.5622 3.68388 10.4301 3.5757 10.2933C3.46748 10.1613 3.31424 10.0103 3.12037 9.85464C2.93101 9.69893 2.68308 9.50082 2.3764 9.2696C2.14646 9.09978 1.91658 8.92052 1.69558 8.74105C1.47469 8.55709 1.27633 8.36367 1.09132 8.15601C0.910994 7.94844 0.766745 7.71732 0.654025 7.45795C0.545802 7.20323 0.487241 6.90591 0.487241 6.58038C0.487241 6.203 0.563887 5.85382 0.712634 5.5423C0.86138 5.23077 1.06878 4.96675 1.3303 4.74523C1.59176 4.52351 1.90299 4.3537 2.27234 4.23119C2.63749 4.10853 3.03402 4.04723 3.467 4.04723C3.92233 4.04723 4.35977 4.10853 4.78319 4.23594C5.20694 4.3633 5.5994 4.54727 5.96445 4.79249L5.28363 5.94358C4.81931 5.6039 4.32771 5.42954 3.81387 5.42954C3.50279 5.42954 3.24118 5.51444 3.03832 5.68426C2.83546 5.85407 2.73174 6.06639 2.73174 6.32581C2.73174 6.57113 2.82192 6.79285 3.00225 6.98636C3.18257 7.18448 3.4936 7.4534 3.93568 7.81193C4.38201 8.15161 4.7519 8.45348 5.04039 8.708C5.33344 8.96272 5.56333 9.20804 5.73461 9.43456C5.90594 9.66103 6.01866 9.88745 6.08626 10.1231C6.15386 10.3637 6.18544 10.6184 6.18544 10.9017L6.18563 10.902ZM13.9172 8.74636C13.9172 9.10013 13.8811 9.48241 13.809 9.89245C13.7414 10.3029 13.6196 10.6805 13.4484 11.0295C13.277 11.3786 13.0561 11.6666 12.7809 11.8881C12.5059 12.1145 12.1542 12.2277 11.7351 12.2277C11.0318 12.2277 10.4773 11.9353 10.0716 11.3457C9.66579 10.7606 9.46298 9.95405 9.46298 8.93047C9.46298 7.87839 9.66584 7.04832 10.0806 6.43027C10.4909 5.81222 11.05 5.50569 11.7533 5.50569C12.4207 5.50569 12.9479 5.79817 13.3355 6.37376C13.7232 6.95381 13.9172 7.74637 13.9172 8.74646L13.9172 8.74636ZM16.3606 8.6567C16.3606 7.97264 16.2659 7.35009 16.0811 6.79355C15.8917 6.232 15.6302 5.75096 15.283 5.34543C14.9359 4.93975 14.53 4.62837 14.0568 4.40185C13.5836 4.17534 13.0607 4.06223 12.488 4.06223C11.8569 4.06223 11.3024 4.18959 10.8245 4.43491C10.3466 4.68493 9.90013 5.07646 9.49441 5.614L9.48092 4.27889H7.2313V18H9.47661V12.2045C9.69751 12.4734 9.90936 12.6998 10.1168 12.8836C10.3196 13.0676 10.527 13.2185 10.7387 13.3317C10.9506 13.4449 11.1715 13.5298 11.4057 13.577C11.6401 13.6242 11.8927 13.6478 12.1587 13.6478C12.7539 13.6478 13.3127 13.5204 13.8266 13.2751C14.3404 13.0251 14.7868 12.6761 15.1609 12.223C15.5351 11.77 15.8284 11.242 16.0403 10.6429C16.2567 10.0389 16.3604 9.37381 16.3604 8.65675L16.3606 8.6567ZM17.3615 13.4261H19.6695V0H17.3615V13.4261ZM29.5138 13.4308V4.27004H27.2058V9.19944C27.2058 9.63818 27.1878 9.978 27.1517 10.2185C27.1156 10.4591 27.057 10.6714 26.9759 10.8696C26.6513 11.6241 26.0515 12.0067 25.1817 12.0067C24.5009 12.0067 24.0277 11.7519 23.7569 11.2376C23.6488 11.0442 23.5766 10.8225 23.536 10.5771C23.4955 10.3318 23.4729 9.978 23.4729 9.51097V4.27054H21.165V9.47596C21.165 9.82974 21.1695 10.1315 21.174 10.372C21.1785 10.6126 21.1965 10.8343 21.2191 11.0231C21.2416 11.2118 21.2686 11.3816 21.3002 11.5281C21.3272 11.6743 21.3724 11.8159 21.431 11.948C21.6428 12.5095 21.9812 12.934 22.4543 13.2216C22.9277 13.5093 23.5093 13.6508 24.1944 13.6508C24.8121 13.6508 25.3575 13.5376 25.8264 13.3112C26.2952 13.0848 26.7507 12.7166 27.1923 12.2026L27.1968 13.4292L29.5139 13.4339L29.5138 13.4308ZM39.4605 13.4261V8.23066C39.4605 7.87684 39.456 7.57511 39.4515 7.32509C39.447 7.07507 39.4335 6.8581 39.4064 6.67404C39.3839 6.49002 39.3523 6.32966 39.3208 6.19285C39.2847 6.05134 39.2441 5.91453 39.1991 5.78242C38.9872 5.23537 38.6489 4.81084 38.1757 4.51331C37.7025 4.21579 37.1207 4.06518 36.4308 4.06518C35.8132 4.06518 35.2677 4.17839 34.7989 4.4048C34.33 4.63122 33.8745 5.00385 33.4329 5.51339L33.4284 4.2868H31.1066V13.4275H33.4327V8.49313C33.4327 8.06855 33.4463 7.73357 33.4778 7.49755C33.5048 7.26169 33.5635 7.03997 33.6446 6.8275C33.7934 6.45952 34.0278 6.18595 34.3388 5.99743C34.6499 5.80892 35.0197 5.71441 35.4522 5.71441C36.133 5.71441 36.6062 5.96913 36.877 6.48347C36.9807 6.67689 37.0528 6.89861 37.0934 7.13903C37.1339 7.37964 37.1565 7.73807 37.1565 8.20061V13.416L39.4601 13.4208L39.4605 13.4261ZM49.0101 12.822L45.4941 8.25066L48.4647 4.9204L46.7156 4.13283L43.6229 7.88314H43.3795V0.0025002H41.0533V13.4286H43.3795V8.56519L46.8597 13.6106L49.0098 12.8225L49.0101 12.822ZM58 9.53877V8.04315L51.0052 4.37285V6.01899L56.4259 8.77871L51.0052 11.5759V13.1846L58 9.53827V9.53877ZM51.6846 1.99816C51.2564 1.99816 50.9091 2.36609 50.9091 2.81923C50.9091 3.28151 51.2564 3.64479 51.6846 3.64479C52.1176 3.64479 52.4602 3.28156 52.4602 2.81923C52.4602 2.36164 52.1176 1.99816 51.6846 1.99816V1.99816ZM51.6894 2.12552C52.0363 2.12552 52.3157 2.43685 52.3157 2.82358C52.3157 3.21041 52.0363 3.52163 51.6894 3.51713C51.3378 3.51713 51.0579 3.21051 51.0579 2.81908C51.0579 2.43695 51.3378 2.12552 51.6894 2.12552ZM51.5406 2.90408H51.6349C51.7478 2.90408 51.8018 2.94654 51.8243 3.0645C51.8425 3.18716 51.865 3.26736 51.8832 3.29567H52.032C52.0181 3.26736 51.9956 3.21076 51.9779 3.06925C51.9597 2.93244 51.91 2.86168 51.8291 2.84753V2.83809C51.9238 2.80979 52.0004 2.73433 52.0004 2.61637C52.0004 2.53146 51.9731 2.46541 51.9191 2.42766C51.865 2.3852 51.7793 2.3569 51.6487 2.3569C51.5449 2.3569 51.4727 2.36634 51.4009 2.38049V3.29556H51.5406V2.90403V2.90408ZM51.5406 2.4795C51.5631 2.47478 51.5947 2.47007 51.6396 2.47007C51.7975 2.47007 51.8516 2.55028 51.8516 2.63048C51.8516 2.74369 51.7521 2.78614 51.6396 2.78614H51.5406V2.47952V2.4795Z" fill="#0C1724"/>
</svg>
