<svg width="39" height="20" viewBox="0 0 39 20" fill="none" xmlns="http://www.w3.org/2000/svg">
<path d="M33.8594 13.5458V9.66326C33.8594 9.39239 33.9497 9.2118 34.04 9.03122L34.7623 8.038C34.8526 7.94771 34.9429 7.85742 35.1235 7.85742H38.4643L37.6516 8.85063C36.4778 10.2953 35.3943 11.74 34.2205 13.0944C34.1303 13.2749 34.04 13.4555 33.8594 13.5458V13.5458Z" fill="black"/>
<path d="M38.8256 19.6856H36.1168C35.6654 19.6856 35.3945 19.5953 35.0333 19.2342L32.4149 15.8031C32.4149 15.7128 32.3246 15.7128 32.3246 15.6225L31.1508 17.2477L29.4352 19.505C29.3449 19.6856 29.1643 19.7759 28.8935 19.7759H25.9138L28.3517 16.706L30.7896 13.6361L26.1847 7.94765H29.2546C29.5255 7.94765 29.7964 8.03795 29.8867 8.30882C31.2411 10.0244 32.5052 11.7399 33.8595 13.4555L34.0401 13.6361C34.1304 13.7263 34.1304 13.8166 34.2207 13.9069C35.6654 15.8031 37.2003 17.6089 38.645 19.505C38.5547 19.505 38.645 19.505 38.8256 19.6856V19.6856ZM16.6137 10.205V17.9701H14.0856V0.363121H25.0109V2.62042H16.704V7.94765H24.3789V10.205H16.6137V10.205ZM8.39716 0.092245C9.66125 0.363121 10.8351 0.904873 11.738 1.80779C11.8283 1.89809 11.8283 1.98838 11.9186 2.07867L10.1127 3.88451L9.93213 3.70393C9.30008 2.98159 8.48746 2.53013 7.58453 2.34955C6.59132 2.16896 5.59811 2.25925 4.78548 2.71071C3.61168 3.34276 3.16022 4.51656 3.4311 5.78064C3.61168 6.2321 3.88256 6.68357 4.24373 6.95444C4.78548 7.31561 5.32723 7.58649 5.95928 7.76707L8.84862 8.76028C9.93213 9.21174 10.8351 9.84379 11.4671 10.9273C11.738 11.3788 11.9186 11.8302 11.9186 12.372C12.0991 13.4555 12.0088 14.4487 11.5574 15.4419C11.0156 16.706 10.0224 17.6089 8.75833 18.0604C7.31366 18.6021 5.77869 18.7827 4.33402 18.4215C2.97964 18.1507 1.71555 17.6089 0.722337 16.706C0.451461 16.5254 0.270876 16.2545 0 15.9836L1.98643 14.2681L2.16701 14.539C3.34081 15.9836 4.87577 16.6157 6.77191 16.2545C7.67483 16.0739 8.39716 15.7128 8.93892 14.9904C9.75154 13.9069 9.48067 12.372 8.48746 11.469C8.036 11.1079 7.58454 10.837 7.04278 10.6564L4.15344 9.6632C3.4311 9.39233 2.70876 9.03116 2.16701 8.48941C1.26409 7.76707 0.812629 6.68357 0.722337 5.60006C0.722337 5.05831 0.722336 4.51656 0.812628 3.9748C1.0835 2.80101 1.71555 1.80779 2.70876 1.17575C3.52139 0.633996 4.33402 0.27283 5.32723 0.182537C6.41074 -0.0883388 7.76512 0.00195296 8.39716 0.092245V0.092245Z" fill="black"/>
</svg>
