<svg width="21" height="17" viewBox="0 0 21 17" fill="none" xmlns="http://www.w3.org/2000/svg">
<path d="M0.810126 4.2885H0.413681C0.189604 4.2885 0 4.4772 0 4.7002C0 4.9232 0.189604 5.1119 0.413681 5.1119H0.810126C1.0342 5.1119 1.20657 4.9232 1.20657 4.7002C1.20657 4.4772 1.0342 4.2885 0.810126 4.2885ZM8.35981 10.2238H7.96336C7.73929 10.2238 7.54968 10.4125 7.54968 10.6355C7.54968 10.8585 7.73929 11.0472 7.96336 11.0472H8.35981C8.58389 11.0472 8.77349 10.8585 8.77349 10.6355C8.77349 10.4125 8.58389 10.2238 8.35981 10.2238ZM8.03231 6.34699C8.03231 6.12398 7.84271 5.93529 7.61863 5.93529H6.25693C6.03285 5.93529 5.84325 6.12398 5.84325 6.34699C5.84325 6.56999 6.03285 6.75868 6.25693 6.75868H7.61863C7.84271 6.74153 8.03231 6.56999 8.03231 6.34699ZM20.9771 3.79104L20.5634 1.47525C20.391 0.531775 19.7016 0 18.8053 0H2.79235C2.06841 0 1.56854 0.583237 1.70644 1.32086L2.13735 3.79104C2.13735 3.80819 2.15459 3.82535 2.15459 3.8425C2.2063 4.15127 2.05117 4.27135 1.91328 4.30566C1.75815 4.35712 1.63749 4.51151 1.63749 4.68305C1.63749 4.90605 1.82709 5.09474 2.05117 5.09474H19.8912C20.6151 5.1119 21.115 4.52866 20.9771 3.79104ZM15.5303 13.1057C15.3579 12.1965 14.8408 11.8706 14.2548 11.8706H10.1007H10.0318C9.80769 11.8706 9.61809 12.0593 9.61809 12.2823C9.61809 12.4881 9.77322 12.6597 9.98006 12.6768C10.118 12.694 10.2558 12.8827 10.342 13.3115L10.7729 15.7131C10.9108 16.4335 11.6175 17.0168 12.3587 16.9996L14.8753 16.9825C15.6165 16.9825 16.1163 16.3992 15.9784 15.6788L15.5303 13.1057ZM9.94559 11.0643H14.5133H14.5306C14.565 11.0643 14.5995 11.0643 14.634 11.0472C15.0649 10.9614 15.0821 10.6183 15.0304 10.2753L14.4444 7.08461C14.2892 6.26122 13.8066 5.93529 13.1689 5.93529H9.03204H8.96309C8.73902 5.93529 8.54941 6.12398 8.54941 6.34699C8.54941 6.55283 8.70454 6.72437 8.91138 6.74153C9.04928 6.77584 9.20441 6.94738 9.29059 7.42769L9.73875 9.86356C9.79046 10.1037 9.63533 10.2238 9.49743 10.2581C9.3423 10.3096 9.22164 10.464 9.22164 10.6355C9.22164 10.8585 9.41125 11.0472 9.63533 11.0472L9.94559 11.0643Z" fill="black"/>
</svg>
 