<svg width="23" height="26" viewBox="0 0 23 26" fill="none" xmlns="http://www.w3.org/2000/svg">
<path d="M20.9835 0.0551016C19.7085 0.277871 18.4425 0.680239 17.1868 0.994242C16.7673 1.09913 16.0882 1.1529 15.8268 1.54562C15.5478 1.96483 15.6911 2.74327 15.6911 3.22318V7.36502V12.1972C15.6911 12.9381 15.6299 13.7596 16.6116 13.6724C17.9199 13.5562 19.2534 13.022 20.5233 12.7004C20.936 12.5959 21.6481 12.5534 21.9007 12.1623C22.1691 11.7467 22.0189 10.9457 22.0189 10.4714V6.09946V1.95762C22.0189 1.47963 22.1649 0.706066 21.9496 0.268426C21.7801 -0.0757477 21.2915 0.00128371 20.9835 0.0551016Z" fill="#02B7F1"/>
<path d="M21.9043 0.00195312L22.019 0.116679L21.9043 0.00195312Z" fill="black"/>
<path d="M13.5011 3.63319C12.1465 3.72401 10.6787 4.31632 9.361 4.64576C8.93551 4.75212 8.23986 4.80277 7.98358 5.21008C7.76066 5.56439 7.86533 6.15921 7.86533 6.55865V9.89514V14.3821C7.86537 14.8755 7.74778 15.6734 8.44281 15.7019C8.88862 15.7203 9.39231 15.5102 9.8212 15.403L12.6975 14.6844C13.1229 14.5779 13.8187 14.5273 14.0749 14.1199C14.3125 13.7423 14.1931 13.083 14.1931 12.6564V9.08978V4.83289C14.1922 4.30431 14.2251 3.58465 13.5011 3.63319ZM5.33421 3.96592C4.05949 4.18284 2.79198 4.59136 1.53752 4.90497C1.12515 5.00806 0.412171 5.05274 0.160103 5.44303C-0.108266 5.85856 0.0418562 6.6596 0.0418562 7.13391V11.3908V16.223C0.0418562 16.7922 -0.0980506 17.7077 0.732696 17.6527C2.05928 17.5649 3.474 16.9709 4.75895 16.6406C5.15549 16.5385 5.87154 16.4934 6.13637 16.1421C6.4141 15.7736 6.25462 14.9348 6.25462 14.4972V10.0102V5.40814C6.25462 4.62425 6.38671 3.78682 5.33421 3.96592ZM21.0962 14.0908C19.7844 14.2985 18.473 14.7357 17.1845 15.0578C16.7332 15.1707 16.0832 15.2211 15.8245 15.6643C15.5868 16.0713 15.6888 16.6914 15.6888 17.1434C15.6888 18.3253 15.6199 19.5304 15.6939 20.7099C15.7251 21.2064 15.9387 21.6206 16.4946 21.5891C17.8449 21.5127 19.3227 20.8802 20.636 20.552C21.0313 20.4532 21.7522 20.4078 21.9472 19.9875C22.1319 19.5895 22.0166 18.9532 22.0166 18.524V15.7627C22.0166 15.3529 22.1148 14.7829 21.9472 14.3992C21.7938 14.0479 21.4265 14.0386 21.0962 14.0908ZM13.2726 16.0538C11.963 16.2819 10.6521 16.7201 9.361 17.0429C8.93972 17.1482 8.16374 17.1925 7.95074 17.6357C7.71824 18.1192 7.86533 18.9194 7.86533 19.4444V23.7013C7.86533 24.2905 7.69154 25.2923 8.55617 25.2649C9.09309 25.2479 9.65208 25.0083 10.1664 24.8692C11.0439 24.6318 11.9307 24.4249 12.8125 24.2044C13.2472 24.0958 13.9237 24.0424 14.1238 23.5709C14.3484 23.0413 14.1931 22.1976 14.1931 21.6304V17.3735C14.1929 16.6849 14.1961 15.893 13.2726 16.0538ZM5.44917 18.0043C4.10379 18.185 2.73967 18.6694 1.42247 18.9988C1.01284 19.1012 0.308273 19.1461 0.111277 19.5857C-0.0704564 19.9911 0.0418562 20.62 0.0418562 21.0551V24.3916C0.0421125 24.9611 -0.0130704 25.5684 0.732696 25.5199C2.08872 25.4316 3.55403 24.8221 4.874 24.492C5.28363 24.3896 5.98821 24.3448 6.1852 23.9051C6.37923 23.4723 6.25462 22.786 6.25462 22.3207C6.25462 21.1019 6.43309 19.7287 6.23758 18.5262C6.16619 18.0871 5.86732 17.9481 5.44917 18.0043Z" fill="#02B7F1"/>
<path d="M0.0429688 25.4297L0.157695 25.5444L0.0429688 25.4297Z" fill="black"/>
</svg>
