<svg width="144" height="65" viewBox="0 0 144 65" fill="none" xmlns="http://www.w3.org/2000/svg">
<path fill-rule="evenodd" clip-rule="evenodd" d="M43.6235 35.9042C43.2806 35.8249 42.7857 35.5524 42.4051 35.2393C38.9409 31.8409 43.3563 27.856 48.4573 25.5518V18.9886C49.6756 19.731 50.2839 19.8086 50.3604 19.9259L54.2431 15.941L52.9483 12.5814C64.3679 8.51889 68.9731 6.95632 78.2602 5.3541L76.5865 3.79154L79.3273 2.15137C85.5702 4.30032 91.3938 4.84704 90.4049 10.1996C90.6704 6.60535 86.2919 5.19888 79.518 3.24568L78.261 4.06576L80.7355 6.17505C69.621 8.16791 62.7697 10.3557 54.6615 13.2462L55.7278 16.2144L51.6922 20.3165C52.3778 20.5123 59.4576 22.9734 66.8801 17.6605C66.9179 17.6217 67.0322 17.5821 67.0322 17.5036C66.7659 17.113 66.3088 16.7611 65.7005 16.1747C67.8321 16.3317 69.2403 18.284 68.974 20.3157H67.9842C68.0985 19.6905 67.9464 18.9489 67.68 18.4798C62.0085 22.7768 55.3472 23.402 49.6756 21.3712V26.4495C46.8961 27.4257 41.9867 30.5517 42.0245 33.5595C42.2144 35.0048 42.9378 35.5136 43.6235 35.9042Z" fill="black"/>
<path fill-rule="evenodd" clip-rule="evenodd" d="M66.804 34.5755C60.6754 37.8179 54.8131 40.3575 45.6782 40.7093C33.9158 40.4739 32.0892 32.4266 37.6842 24.0274C42.9365 15.5506 51.3119 7.85418 64.6715 3.04923C68.4778 1.68156 74.2266 0.0413861 79.6696 0.00171847C87.5484 -0.0758921 95.1987 2.46284 94.7055 10.1592C94.4383 16.0973 86.1032 24.4965 81.7248 30.513C79.8208 33.1311 79.5175 34.8101 82.7146 34.6919C94.3249 33.9124 104.945 29.7705 114.689 25.4735C108.142 30.0439 73.809 47.5054 73.6183 35.5913C73.6561 34.1073 74.3795 32.505 75.4827 30.8252C76.5868 29.1453 78.1101 27.3482 79.6704 25.5123C81.9928 22.7778 87.777 16.2146 89.7187 12.2694C92.9923 4.84721 85.6453 4.4557 79.3276 2.15153L76.5868 3.7917L78.2227 5.35426C68.9735 6.95563 64.3674 8.51819 52.9478 12.5815L54.2426 15.9412L50.3599 19.9261C50.2835 19.8088 49.6751 19.7312 48.4568 18.9887V25.552C43.3566 27.8562 38.9404 31.841 42.4046 35.2395C42.7853 35.5525 43.2802 35.8259 43.623 35.9044H43.5843C49.8659 39.5374 66.8418 34.5755 66.804 34.5755ZM27.6738 51.843V48.7963H32.0135V51.843H27.6738ZM27.8645 64.3823V53.5237H31.8993V64.3823H27.8645ZM118.572 54.812C120.704 54.812 122.455 56.6091 122.455 58.7969C122.456 59.3205 122.356 59.8391 122.161 60.323C121.967 60.807 121.681 61.2467 121.32 61.6169C120.959 61.9871 120.531 62.2806 120.059 62.4805C119.588 62.6804 119.082 62.7828 118.572 62.7818C118.061 62.7861 117.554 62.686 117.081 62.4873C116.608 62.2886 116.179 61.9953 115.817 61.6244C115.456 61.2535 115.17 60.8124 114.976 60.327C114.783 59.8415 114.685 59.3214 114.689 58.7969C114.688 58.2733 114.788 57.7547 114.983 57.2707C115.178 56.7868 115.464 56.3471 115.824 55.9769C116.185 55.6067 116.614 55.3132 117.085 55.1133C117.557 54.9134 118.062 54.811 118.572 54.812ZM118.572 64.6565C121.694 64.6565 124.244 62.0393 124.244 58.7969C124.244 55.5933 121.694 52.9761 118.572 52.9761C115.413 52.9761 112.863 55.5933 112.863 58.7969C112.862 59.5667 113.009 60.3291 113.295 61.0405C113.582 61.7519 114.002 62.3982 114.533 62.9425C115.063 63.4869 115.693 63.9184 116.386 64.2125C117.079 64.5066 117.822 64.6575 118.572 64.6565ZM97.8278 64.3823H99.6166V62.7033H97.8278V64.3823ZM111.416 62.9775C110.845 63.4846 109.665 64.6565 107.458 64.6565C104.565 64.6565 101.786 62.3118 101.786 58.7969C101.786 55.3208 104.565 52.9761 107.458 52.9761C109.551 52.9761 110.845 54.148 111.416 54.6551C111.073 55.1233 110.769 56.1004 110.617 56.5298C109.551 55.0457 108.257 54.812 107.458 54.812C105.326 54.812 103.575 56.6479 103.575 58.7969C103.575 60.9846 105.326 62.8206 107.458 62.8206C108.637 62.8206 109.78 62.273 110.655 61.1011C110.92 62.0781 111.225 62.6257 111.416 62.9775ZM126.794 64.3823V53.5237H128.392V55.0466C128.727 54.5121 129.185 54.0698 129.725 53.7582C130.305 53.4208 130.961 53.2454 131.628 53.2495C132.39 53.2495 133.037 53.4452 133.531 53.7582C134.026 54.1084 134.407 54.5783 134.598 55.1647C135.435 53.9135 136.54 53.2495 137.871 53.2495C138.899 53.2495 139.736 53.5625 140.269 54.1489C140.841 54.7741 141.144 55.6718 141.144 56.9213V64.3823H139.355V57.5474C139.355 56.8049 139.28 56.2573 139.164 55.946C139.054 55.6219 138.839 55.3463 138.555 55.1647C138.223 54.956 137.841 54.8475 137.451 54.8517C136.73 54.8517 136.12 55.1242 135.625 55.633C135.129 56.1418 134.863 56.9618 134.863 58.0553V64.3831H133.075V57.3128C133.075 56.4927 132.922 55.8675 132.656 55.4769C132.351 55.0862 131.857 54.8517 131.208 54.8517C130.714 54.8517 130.258 55.0086 129.802 55.2811C129.382 55.5554 129.078 55.946 128.888 56.4531C128.697 57.0006 128.583 57.7431 128.583 58.759V64.3823H126.794ZM140.459 51.1402V49.0688H139.698V48.7963H141.525V49.0688H140.763V51.1402H140.459ZM141.792 51.1402V48.7955H142.248L142.819 50.4745C142.857 50.6314 142.895 50.7487 142.933 50.8263C142.933 50.7487 142.972 50.5926 143.048 50.4356L143.582 48.7955H144V51.1402H143.695V49.1861L143.048 51.1402H142.745L142.097 49.1473V51.1402H141.792ZM90.2523 62.7818C89.8338 63.3664 89.1852 63.8364 88.3483 64.1477C88.1642 64.2311 87.9729 64.2966 87.777 64.3435C87.0535 64.5409 86.2545 64.6177 85.342 64.6177C84.0094 64.6177 82.9818 64.3435 82.2583 63.7588C81.4971 63.2112 81.1543 62.3911 81.1543 61.3365C81.1543 60.6716 81.3072 60.0852 81.5727 59.5782C81.8399 59.0694 82.2583 58.6399 82.7919 58.2881C83.2103 58.0156 83.8195 57.8199 84.5807 57.7017C85.2647 57.6241 86.3318 57.5465 87.7778 57.5465H90.175V57.3896V57.2326C90.175 56.6462 90.0237 56.2168 89.6809 55.9037C89.3381 55.5924 88.8441 55.4355 88.1954 55.4355H87.777C87.2434 55.4743 86.8628 55.5924 86.5595 55.7485C86.2167 55.9443 85.9881 56.2944 85.9125 56.7256H81.8391C81.9525 55.5536 82.5625 54.693 83.5901 54.1066C84.5421 53.5996 85.9503 53.3254 87.7761 53.2865C87.929 53.2477 88.0811 53.2477 88.2719 53.2477C90.2506 53.2477 91.7361 53.5996 92.6486 54.2636C93.6006 54.9672 94.0946 55.9831 94.0946 57.4284V62.9361C94.0946 63.2491 94.0946 63.5225 94.1341 63.7174C94.1719 63.9528 94.2097 64.1874 94.287 64.3814H90.5178C90.4314 64.1677 90.3675 63.9451 90.3271 63.7174C90.2812 63.4732 90.2559 63.2253 90.2514 62.9767V62.7818H90.2523ZM87.7778 62.273C88.4634 62.1954 89.0348 62.0005 89.4532 61.609C89.9095 61.2184 90.175 60.5932 90.175 59.7731V59.5394H89.8338C89.0348 59.5394 88.3483 59.5394 87.7778 59.617C87.2865 59.645 86.8007 59.7365 86.3318 59.8895C85.684 60.1232 85.3798 60.5147 85.3798 61.0614C85.3798 61.452 85.5327 61.7651 85.8738 61.9608C86.2167 62.1548 86.7124 62.2721 87.3963 62.2721L87.7778 62.273ZM75.5979 58.6408C75.5979 57.6638 75.3323 56.8825 74.7988 56.2961C74.2653 55.7097 73.5813 55.4372 72.7049 55.4372H72.6671C71.7152 55.4372 70.9917 55.7097 70.4968 56.2961C70.0019 56.8437 69.7356 57.7026 69.7356 58.7969C69.7356 59.8515 70.0019 60.6716 70.4968 61.258C71.0287 61.8444 71.7152 62.1169 72.6293 62.1169H72.6671C73.5813 62.1169 74.3031 61.8056 74.7988 61.2192C75.3315 60.594 75.5979 59.7334 75.5979 58.6408ZM72.6663 53.4444C73.1604 53.2874 73.7317 53.2486 74.3022 53.2486C75.9776 53.2486 77.3102 53.7574 78.2605 54.7732C79.252 55.7502 79.7461 57.1179 79.7461 58.8745C79.7461 60.6716 79.252 62.0781 78.3378 63.0939C77.3859 64.1098 76.0533 64.6185 74.3795 64.6185C73.7687 64.6185 73.1982 64.5409 72.6663 64.3831C72.3601 64.3076 72.0653 64.1898 71.7899 64.033C70.9909 63.6424 70.3439 63.0948 69.7726 62.3541V62.6653C69.7726 62.9784 69.7726 63.2517 69.7347 63.5242C69.7347 63.7985 69.6969 64.1106 69.6591 64.3831H65.5857C65.6235 63.9149 65.6622 63.4854 65.7 63.0948C65.7369 62.6654 65.7369 62.2747 65.7369 61.9246V48.7972H69.7717V55.0862C70.3809 54.461 71.0673 53.9928 71.8269 53.7186C72.0958 53.6013 72.3613 53.4832 72.6663 53.4444ZM59.1529 62.7818C58.6967 63.3664 58.0867 63.8364 57.212 64.1477C57.0324 64.2426 56.8397 64.3087 56.6406 64.3435C55.9558 64.5409 55.1181 64.6177 54.2426 64.6177C52.91 64.6177 51.8446 64.3435 51.1212 63.7588C50.3977 63.2112 50.0171 62.3911 50.0171 61.3365C50.0171 60.6716 50.1692 60.0852 50.4742 59.5782C50.7405 59.0694 51.159 58.6399 51.6917 58.2881C52.111 58.0156 52.6815 57.8199 53.4427 57.7017C54.1662 57.6241 55.2316 57.5465 56.6406 57.5465H59.0386C59.0386 57.506 59.0386 57.4284 59.0773 57.3896V57.2326C59.0773 56.6462 58.8866 56.2168 58.5824 55.9037C58.2396 55.5924 57.7447 55.4355 57.0986 55.4355H56.6415C56.1466 55.4743 55.7281 55.5924 55.4618 55.7485C55.0812 55.9443 54.8904 56.2944 54.814 56.7256H50.7027C50.8557 55.5536 51.4262 54.693 52.4916 54.1066C53.4427 53.5996 54.8131 53.3254 56.6406 53.2865C56.8314 53.2477 56.9826 53.2477 57.1355 53.2477C59.1529 53.2477 60.5989 53.5996 61.5509 54.2636C62.5029 54.9672 62.96 55.9831 62.96 57.4284V62.9361C62.96 63.2491 62.9978 63.5225 62.9978 63.7174C63.0356 63.9528 63.1121 64.1874 63.1885 64.3814H59.4201C59.3067 64.1874 59.268 63.9537 59.2302 63.7174C59.1924 63.4837 59.1538 63.2492 59.1538 62.9767V62.7818H59.1529ZM56.6415 62.273C57.3641 62.1954 57.9354 62.0005 58.3169 61.609C58.8109 61.2184 59.0395 60.5932 59.0395 59.7731V59.5394H58.7353C57.9354 59.5394 57.2128 59.5394 56.6415 59.617C56.1625 59.6443 55.689 59.736 55.2332 59.8895C54.5863 60.1232 54.2435 60.5147 54.2435 61.0614C54.2435 61.452 54.4342 61.7651 54.7383 61.9608C55.0812 62.1548 55.5761 62.2721 56.2608 62.2721L56.6415 62.273ZM44.4607 58.6408C44.4607 57.6638 44.233 56.8825 43.6994 56.2961C43.1659 55.7097 42.4811 55.4372 41.6056 55.4372H41.5291C40.6158 55.4372 39.8924 55.7097 39.3975 56.2961C38.8648 56.8437 38.6362 57.7026 38.6362 58.7969C38.6362 59.8515 38.8648 60.6716 39.3975 61.258C39.8915 61.8444 40.6158 62.1169 41.5291 62.1169C42.4803 62.1169 43.2037 61.8056 43.6994 61.2192C44.2321 60.594 44.4607 59.7334 44.4607 58.6408ZM41.5291 53.4444C42.0618 53.2874 42.5954 53.2486 43.2037 53.2486C44.8791 53.2486 46.1731 53.7574 47.1628 54.7732C48.114 55.7502 48.6097 57.1179 48.6097 58.8745C48.6097 60.6716 48.1526 62.0781 47.2007 63.0939C46.2495 64.1098 44.9556 64.6185 43.2802 64.6185C42.671 64.6185 42.0996 64.5409 41.5291 64.3831C41.2274 64.2943 40.9344 64.177 40.6536 64.033C39.8915 63.6424 39.2067 63.0948 38.674 62.3541V62.6653C38.674 62.9784 38.6362 63.2517 38.6362 63.5242C38.5984 63.7985 38.5606 64.1106 38.5219 64.3831H34.4494C34.522 63.9577 34.5602 63.5267 34.5636 63.0948C34.6014 62.6654 34.6401 62.2747 34.6401 61.9246V48.7972H38.6749V55.0862C39.284 54.461 39.9688 53.9928 40.6923 53.7186C40.9586 53.6013 41.2628 53.4832 41.5291 53.4444ZM10.1256 48.7963H13.0193L20.4411 64.3823H15.5694L14.2377 61.2192H5.97654L4.56832 64.3823H0L7.87966 48.7963H10.1256ZM10.1256 58.2114H12.8286L10.2399 52.2336L10.1248 52.5061L7.38477 58.2105H10.1256V58.2114ZM21.1275 64.3823V48.7963H25.1615V64.3823H21.1275Z" fill="#D9783E"/>
</svg>
