<?xml version="1.0" encoding="utf-8"?>
<!-- Generator: Adobe Illustrator 24.2.1, SVG Export Plug-In . SVG Version: 6.00 Build 0)  -->
<svg version="1.1" id="Layer_1" xmlns="http://www.w3.org/2000/svg" xmlns:xlink="http://www.w3.org/1999/xlink" x="0px" y="0px"
	 viewBox="0 0 240.8 36" style="enable-background:new 0 0 240.8 36;" xml:space="preserve">
<style type="text/css">
	.st0{fill:#F76A03;}
</style>
<path class="st0" d="M8.2,0.9c-2.7,0.6-5,2.3-6.3,4.7c-1.1,2.2-1.1,2.7-1.1,12L1,27.3c0.7,3.8,3.7,6.7,7.5,7.5
	c1.1,0.2,16.1,0.3,16.1,0.1s-1.3-5.2-1.4-5.2c-0.1,0-2.7-0.6-5.9-1.3C9.8,26.7,10,26.8,9.4,26l-0.5-0.6V10.3l0.5-0.7
	c0.6-0.7,0.4-0.7,7.9-2.3L23.2,6c0.1-0.1,1.4-5.1,1.4-5.2S9.2,0.7,8.2,0.9L8.2,0.9z M32.3,0.9c0,0.4,1.2,5,1.3,5.1
	c0.1,0.1,2.9,0.7,6.3,1.4L46.7,9c0.4,0.2,0.7,0.5,0.9,0.9c0.3,0.6,0.4,1.2,0.4,7.9l-0.4,7.9c-0.2,0.4-0.5,0.7-0.9,0.9
	c-0.3,0.1-3.3,0.9-6.7,1.6l-6.3,1.4c-0.5,1.7-1,3.4-1.3,5.1c0,0.2,1.5,0.3,8.1,0.2c9.1-0.1,9.2-0.1,11.5-1.7
	c1.7-1.1,2.9-2.8,3.6-4.7C56,27.2,56,27.1,56,17.8L55.5,7c-0.7-1.9-1.9-3.5-3.6-4.7c-2.3-1.6-2.4-1.6-11.5-1.6
	C33.8,0.6,32.3,0.7,32.3,0.9L32.3,0.9z M71.1,8c-1.7,3.6-3.1,7.4-4.3,11.2l-3,10.1c0.5,0,1.1,0.1,1.7,0.1h1.6l0.2-0.9l0.8-2.9l0.6-2
	h11.4l0.6,2.1l0.8,2.9l0.2,0.8h1.7l1.7-0.1c0,0-0.4-1.6-0.9-3.5c-1.6-6.1-3.8-12-6.4-17.8l-1.1-2.2h-4.6L71.1,8z M76,12.1l3,8
	c0,0-2,0.1-4.6,0.1c-1.5,0-3.1,0-4.6-0.2c0-0.4,2.1-6,3.1-8.4c0.8-1.9,1.2-2.5,1.5-2.5C74.7,9.2,75.1,9.9,76,12.1L76,12.1z
	 M87.1,17.6v11.8h3.4V5.9h-3.4V17.6z M94.6,6.1c-0.4,0.3-0.7,0.6-0.9,1c-0.3,0.5-0.4,1.1-0.1,1.6c0.4,1.1,1.5,1.6,2.6,1.3
	c0.9-0.2,1.6-1.1,1.5-2c0.1-0.6-0.2-1.2-0.7-1.5C96.3,5.8,95.3,5.7,94.6,6.1L94.6,6.1z M100.6,17.6v11.8l2.6,0.2l4.8,0.2
	c2.1,0,2.4,0,3.5-0.6c1.3-0.6,2.3-1.7,2.7-3.1c0.2-1.9,0.2-3.8,0.1-5.7c-0.1-4.6-0.1-5-0.5-5.8c-0.8-1.5-2-2.2-4.3-2.5
	c-1.7-0.1-3.4,0-5.1,0.3c-0.4,0.1-0.4,0-0.4-3.1V5.9h-3.4L100.6,17.6z M110.1,15.3c0.4,0.2,0.7,0.5,0.9,0.8c0.3,3,0.3,6.1,0,9.1
	c-0.3,0.9-1.4,1.3-3.4,1.3c-0.9,0-1.8,0-2.8-0.2l-1-0.1V15.5l1.2-0.2C106.7,14.9,108.4,15,110.1,15.3L110.1,15.3z M133.7,17.6v11.8
	l2,0.1l4.2,0.3c2.9,0.2,4.6-0.3,5.8-1.5c1.5-1.5,1.5-1.7,1.6-7c0.1-3.8,0-5-0.2-5.8c-0.6-2-2.2-3.2-4.7-3.5c-1.7-0.1-3.5,0-5.2,0.3
	c-0.2,0.1-0.3-0.6-0.3-3.1V5.9h-3.4L133.7,17.6z M143,15.2c0.3,0.1,0.6,0.3,0.8,0.6c0.2,3.2,0.3,6.5,0.1,9.7c-0.4,0.9-3.2,1.3-6,0.8
	l-1-0.1V15.5l1.2-0.2C139.8,15,141.5,15,143,15.2L143,15.2z M176.2,6.1c-1.6,0.1-3.1,0.8-4.2,2c-1.7,1.7-1.8,2.2-1.8,9.8
	s0.1,8.1,1.8,9.8c0.7,0.8,1.6,1.3,2.6,1.6c1.5,0.5,3.2,0.6,4.8,0.5c1.6,0.1,3.3-0.1,4.9-0.4c0.7-0.1,1.3-0.3,2-0.5
	c0.2-0.1,0.1-0.5-0.1-1.5c-0.1-0.5-0.3-1-0.5-1.5c-0.4-0.1-0.8,0-1.1,0.1c-2.3,0.6-4.7,0.8-7.1,0.5c-2-0.3-2.8-0.6-3.4-1.4
	c-0.4-0.5-0.4-0.8-0.4-7.3s0-6.7,0.4-7.3c0.6-0.8,1.4-1.1,3.4-1.4c2.4-0.2,4.8-0.1,7.1,0.5l1.1,0.3c0.4-1,0.7-2,0.8-3
	c-0.6-0.2-1.1-0.4-1.7-0.5C181.9,6,179,5.8,176.2,6.1L176.2,6.1z M189.3,17.6v11.8h3.1V5.9h-3.1V17.6z M236.6,8.9v3.1l-1.2-0.1
	l-1.7-0.2c-1.4,0-2.8,0.2-4.1,0.7c-0.9,0.5-1.7,1.3-2.2,2.2c-0.4,0.8-0.5,1.2-0.5,5.4c-0.1,5.7,0.1,6.5,1.6,8c1.4,1.3,3,1.7,5.7,1.6
	l3.9-0.2l1.9-0.1V5.9h-3.4L236.6,8.9z M236.2,15.3c0.3,0.1,0.4,0.6,0.4,5.6v5.4l-0.8,0.1c-1.5,0.3-3.1,0.2-4.6-0.1
	c-0.3-0.1-0.6-0.4-0.9-0.7c-0.2-1.6-0.3-3.3-0.2-4.9c0-5,0-5.1,1.1-5.5C232.9,15.1,234.6,15.1,236.2,15.3L236.2,15.3z M122.1,11.9
	c-0.9,0.1-1.9,0.3-2.8,0.5c-1.1,0.3-1.4,0.4-1.3,0.7c0.1,0.3,0.2,0.8,0.3,1.4c0.1,0.4,0.2,0.8,0.4,1.1c0.7,0,1.3-0.1,2-0.2
	c3.5-0.7,5.8-0.4,6.2,0.8c0.1,0.6,0.2,1.1,0.2,1.7V19h-2c-5.3-0.3-8.5,1.7-8.5,5.3c-0.1,1.5,0.5,3,1.7,4c1.3,1.2,2.7,1.6,5.4,1.4
	l4.3-0.2l2.2-0.1l-0.1-14l-0.6-1C128.4,12.4,125.6,11.5,122.1,11.9L122.1,11.9z M127,22.4c0.2,1.3,0.2,2.5,0,3.8l-2.4,0.2
	c-3.5,0.3-4.7-0.2-4.7-2c-0.1-0.6,0.2-1.1,0.6-1.5c0.5-0.4,1-0.6,1.6-0.6l1.3-0.2C124.6,22.2,125.8,22.2,127,22.4L127,22.4z
	 M155.3,11.9l-2.8,0.5c-1.4,0.3-1.5,0.4-1.4,0.8l0.4,1.5c0.2,1,0.3,1.1,0.8,1c2.8-0.7,5.5-0.9,6.6-0.5c1.1,0.4,1.2,0.8,1.2,2.4v1.5
	h-2.6c-3.3,0-4.8,0.4-6.2,1.7c-1.2,1-1.8,2.6-1.6,4.2c0.3,3.4,2.8,5,7.1,4.8l4.4-0.2l2.2-0.1l-0.1-6.9c-0.1-6.6-0.1-6.9-0.5-7.7
	C161.6,12.5,158.9,11.5,155.3,11.9L155.3,11.9z M159.4,22.3h0.6v3.9l-1.2,0.1c-2.3,0.3-4.5,0.2-5.1-0.2c-0.9-0.7-1.1-2-0.4-2.9
	c0.1-0.2,0.3-0.3,0.5-0.5c1.3-0.5,2.7-0.7,4-0.6L159.4,22.3L159.4,22.3z M199.7,11.9c-1.3,0.3-2.4,1-3.2,2c-1.1,1.4-1.1,2.1-1.1,7.1
	s0.1,5.7,1.5,7.2c1.4,1.4,2,1.6,5.1,1.6s4-0.2,5.3-1.8s1.4-2.2,1.4-7.5c-0.1-4.3-0.1-4.7-0.5-5.5c-0.6-1.1-1.6-2.1-2.7-2.6
	C203.6,11.7,201.7,11.6,199.7,11.9L199.7,11.9z M204.3,15.3c1.1,0.5,1.2,1.3,1.2,5.4c0,3.9-0.1,4.6-1,5.4c-0.6,0.6-3.6,0.7-4.6,0.2
	c-1.3-0.6-1.4-1.2-1.4-5.6c0-4.2,0.1-4.8,1.2-5.4C201.2,14.9,202.8,14.9,204.3,15.3L204.3,15.3z M94,20.7v8.6h3.1V12.1H94V20.7z
	 M211.3,12.4c-0.1,0.2-0.1,3.3,0,6.9c0,6,0.1,6.7,0.5,7.4c1.2,2.3,3.4,3.3,6.7,3l5.9-0.4V12.1h-3.2v14.1l-1,0.1
	c-1.6,0.3-3.2,0.2-4.8-0.2l-0.7-0.4c0,0-0.1-3.1-0.2-6.8l-0.1-6.8l-1.5-0.1C211.8,12.1,211.4,12.1,211.3,12.4L211.3,12.4z M23,17.4
	c-0.1,0.2-0.1,0.5,0,0.7c0.1,0.3,0.4,0.4,5.3,0.4h5.2v-1.4h-5.2C24,17.1,23.1,17.1,23,17.4L23,17.4z"/>
</svg>
