<?xml version="1.0" encoding="utf-8"?>
<!-- Generator: Adobe Illustrator 20.1.0, SVG Export Plug-In . SVG Version: 6.00 Build 0)  -->
<svg version="1.0" id="Layer_1" xmlns="http://www.w3.org/2000/svg" xmlns:xlink="http://www.w3.org/1999/xlink" x="0px" y="0px"
	 width="95.5px" height="24.1px" viewBox="0 0 95.5 24.1" style="enable-background:new 0 0 95.5 24.1;" xml:space="preserve">
<style type="text/css">
	.st0{fill:#9FA4A6;}
</style>
<path class="st0" d="M21.2,22.9V0.7h2.3c0,0,3,0.8,5.7,4.5c2.7,3.6,3.3,5.6,3.3,5.6s1.2-4,4-6.6c2.8-2.6,4.9-3.5,4.9-3.5h2.3v6.3
	c0,0,3.3-6.9,11.1-6.9s10.6,8.1,10.6,8.1h-5.7c0,0-0.8-2.5-5-2.5c-4.3,0-6.4,3.7-6.4,6.4c0,2.8,2.6,6.9,6.4,6.9
	c3.8,0,5.7-3.7,5.7-3.7h-6.4V9.6h12.2V0.7h11.2v5.7h-5.7v3.2h5.7v5.6h-5.6v2.6h5.6V23H66.4v-6.1c0,0-2.5,7.2-11.7,7.2
	C45.6,24,44,16.5,44,16.5v6.4h-5.7V11c0,0-1.9,0.4-2.3,4.9c-0.4,4.4-0.4,7.1-0.4,7.1h-6.1c0,0-0.1-5-0.5-7.3c-0.7-4-2.1-4.4-2.1-4.4
	V23L21.2,22.9L21.2,22.9z M78.8,23V0.7h1.7c0,0,4,3,5.9,5.4c1.9,2.4,2.5,3,2.5,3V0.7h6.3V23h-5.9c0,0,0.3-1.8-1.7-5.3
	c-2-3.5-3.1-4.4-3.1-4.4V23L78.8,23L78.8,23L78.8,23z M6.8,7.4C1.3,16.1,0,23,0,23h6c0,0,0.2-1,0.6-2.5c0.3-1.4,0.6-2.6,0.6-2.6h7.1
	V23h5.1V0.7C19.3,0.7,12.4-1.3,6.8,7.4z M9.7,12.5c0,0,0.7-1.5,2-3c1.2-1.5,2.5-1.9,2.5-1.9l0.1,4.9L9.7,12.5L9.7,12.5L9.7,12.5z"/>
</svg>
