<?xml version="1.0" encoding="utf-8"?>
<!-- Generator: Adobe Illustrator 21.1.0, SVG Export Plug-In . SVG Version: 6.00 Build 0)  -->
<svg version="1.1" id="Layer_1" xmlns="http://www.w3.org/2000/svg" xmlns:xlink="http://www.w3.org/1999/xlink" x="0px" y="0px"
	 viewBox="0 0 1600 505" style="enable-background:new 0 0 1600 505;" xml:space="preserve">
<style type="text/css">
	.st0{fill:#6D6E71;}
	.st1{fill:url(#SVGID_1_);}
	.st2{fill:url(#SVGID_2_);}
	.st3{fill:url(#SVGID_3_);}
</style>
<g>
	<g>
		<path class="st0" d="M608.6,277.3h98.9L658,166.4L608.6,277.3z M783.5,370.2h-35l-28-62.5H595.6l-28,63h-34L644,125.4h29
			L783.5,370.2z"/>
		<path class="st0" d="M880.4,214.8c-29,0-60.5,24.5-60.5,64.4v0.5c0,40.5,30.5,64.9,60.5,64.9c34.5,0,58.5-26.5,58.5-64.4v-0.5
			C939.3,241.8,914.4,214.8,880.4,214.8 M821.4,424.7h-32V188.8h32v29c17.5-22,38.5-33,63.9-33c42,0,86.4,33,86.4,93.9v1
			c0,61.5-44.5,94.4-86.4,94.4c-25.5,0-47-10.5-63.9-31.5V424.7z"/>
		<path class="st0" d="M1021.3,156.4h-35.5v-35h35.5V156.4z M1019.3,370.2h-32V188.8h32V370.2z"/>
		<path class="st0" d="M1127.2,374.2c-51,0-92.4-42-92.4-93.9v-0.5c0-52,41.5-94.4,92.4-94.4c37,0,58,17,71.9,32l2,2l-21.5,22.5
			l-2-2.5c-12.5-13.5-27.5-25.5-51-25.5c-33.5,0-59.5,28.5-59.5,64.9v1c0,36.5,27,65.4,61.5,65.4c19,0,35.5-8,51.5-25l2-2l21,19.5
			l-2,2C1186.1,355.7,1164.7,374.2,1127.2,374.2"/>
		<path class="st0" d="M1290.6,281.3c-30,0-48,12.5-48,33.5v0.5c0,22,21.5,32,41,32c31.5,0,55.5-19,55.5-44.5v-14.5
			C1322.5,283.8,1306.5,281.3,1290.6,281.3 M1278.1,374.2c-34,0-68.4-20-68.4-57.5v-0.5c0-37,30-59.5,77.4-59.5c22.5,0,38,3,51,6.5
			v-2c0-37-27-45-49-45c-21.5,0-37.5,6-52,12.5l-3,1.5l-10-27l2.5-1c16-7.5,36.5-15,64.9-15c25.5,0,45,7,58.5,20
			c12.5,12.5,19,30.5,19,53.5v110.4h-31v-21.5C1326.5,361.7,1307.5,374.2,1278.1,374.2"/>
	</g>
	<g>
		
			<linearGradient id="SVGID_1_" gradientUnits="userSpaceOnUse" x1="424.7906" y1="337.0168" x2="281.322" y2="239.6631" gradientTransform="matrix(1 0 0 -1 0 506)">
			<stop  offset="0" style="stop-color:#42B649"/>
			<stop  offset="1" style="stop-color:#95C93D;stop-opacity:0.8"/>
		</linearGradient>
		<path class="st1" d="M463.8,273.7L357.4,88.9c-5-8-13.5-13-22.5-13c-9.5,0-18,5-22.5,13L206,273.2c-4.5,8-4.5,18,0,26
			s13,13,22.5,13h212.3c9.5,0,18-5,22.5-13S467.8,281.7,463.8,273.7z"/>
		<g>
			
				<linearGradient id="SVGID_2_" gradientUnits="userSpaceOnUse" x1="159.8766" y1="99.0703" x2="502.0267" y2="384.9283" gradientTransform="matrix(1 0 0 -1 0 506)">
				<stop  offset="0" style="stop-color:#F5A81D"/>
				<stop  offset="1" style="stop-color:#F7D237;stop-opacity:0.6"/>
			</linearGradient>
			<path class="st2" d="M384.9,338.7L296,183.3c-4-7-11-11-19-11s-15,4-19,11l-89.4,154.9c-2,3.5-3,7-3,11s1,7.5,3,11
				c4,6.5,11,11,19,11l178.9,0.5c7.5,0,14.5-4.5,18.5-11C388.9,353.6,388.9,345.7,384.9,338.7z"/>
		</g>
		
			<linearGradient id="SVGID_3_" gradientUnits="userSpaceOnUse" x1="437.8196" y1="106.9916" x2="401.1962" y2="264.4722" gradientTransform="matrix(1 0 0 -1 0 506)">
			<stop  offset="0" style="stop-color:#B41F24"/>
			<stop  offset="1" style="stop-color:#D7694E;stop-opacity:0.5"/>
		</linearGradient>
		<path class="st3" d="M505.6,346.7l-63.9-111.4c-3-5-8-8-14-8c-5.5,0-11,3-13.5,8l-44,76.4l0,0l0,0l0,0l-20.5,35.5c-3,5-3,11,0,16
			s8,8,13.5,8l128.9-0.5c5.5,0,11-3,13.5-8c1.5-2.5,2-5,2-8C507.6,352.1,507.1,349.2,505.6,346.7z"/>
	</g>
</g>
</svg>
