<?xml version="1.0" encoding="utf-8"?>
<!-- Generator: Adobe Illustrator 22.1.0, SVG Export Plug-In . SVG Version: 6.00 Build 0)  -->
<svg version="1.1" id="Layer_1" xmlns="http://www.w3.org/2000/svg" xmlns:xlink="http://www.w3.org/1999/xlink" x="0px" y="0px"
	 width="1215px" height="356.1px" viewBox="0 0 1215 356.1" style="enable-background:new 0 0 1215 356.1;" xml:space="preserve">
<style type="text/css">
	.st0{fill:#F8FAFF;}
	.st1{fill:url(#SVGID_1_);}
	.st2{fill:url(#SVGID_2_);}
	.st3{fill:url(#SVGID_3_);}
</style>
<g>
	<path class="st0" d="M446.6,203.4h98.9L496,92.5L446.6,203.4z M621.5,296.3h-35l-28-62.5H433.6l-28,63h-34L482,51.5h29L621.5,296.3
		z"/>
	<path class="st0" d="M718.4,140.9c-29,0-60.5,24.5-60.5,64.4v0.5c0,40.5,30.5,64.9,60.5,64.9c34.5,0,58.5-26.5,58.5-64.4v-0.5
		C777.3,167.9,752.4,140.9,718.4,140.9 M659.4,350.8h-32V114.9h32v29c17.5-22,38.5-33,63.9-33c42,0,86.4,33,86.4,93.9v1
		c0,61.5-44.5,94.4-86.4,94.4c-25.5,0-47-10.5-63.9-31.5V350.8z"/>
	<path class="st0" d="M859.3,82.5h-35.5v-35h35.5V82.5z M857.3,296.3h-32V114.9h32V296.3z"/>
	<path class="st0" d="M965.2,300.3c-51,0-92.4-42-92.4-93.9v-0.5c0-52,41.5-94.4,92.4-94.4c37,0,58,17,71.9,32l2,2l-21.5,22.5
		l-2-2.5c-12.5-13.5-27.5-25.5-51-25.5c-33.5,0-59.5,28.5-59.5,64.9v1c0,36.5,27,65.4,61.5,65.4c19,0,35.5-8,51.5-25l2-2l21,19.5
		l-2,2C1024.1,281.8,1002.7,300.3,965.2,300.3"/>
	<path class="st0" d="M1128.6,207.4c-30,0-48,12.5-48,33.5v0.5c0,22,21.5,32,41,32c31.5,0,55.5-19,55.5-44.5v-14.5
		C1160.5,209.9,1144.5,207.4,1128.6,207.4 M1116.1,300.3c-34,0-68.4-20-68.4-57.5v-0.5c0-37,30-59.5,77.4-59.5c22.5,0,38,3,51,6.5
		v-2c0-37-27-45-49-45c-21.5,0-37.5,6-52,12.5l-3,1.5l-10-27l2.5-1c16-7.5,36.5-15,64.9-15c25.5,0,45,7,58.5,20
		c12.5,12.5,19,30.5,19,53.5v110.4h-31v-21.5C1164.5,287.8,1145.5,300.3,1116.1,300.3"/>
</g>
<g>
	
		<linearGradient id="SVGID_1_" gradientUnits="userSpaceOnUse" x1="262.7906" y1="-180.9168" x2="119.322" y2="-83.5631" gradientTransform="matrix(1 0 0 1 0 276)">
		<stop  offset="0" style="stop-color:#42B649"/>
		<stop  offset="1" style="stop-color:#95C93D;stop-opacity:0.8"/>
	</linearGradient>
	<path class="st1" d="M301.8,199.8L195.4,15c-5-8-13.5-13-22.5-13c-9.5,0-18,5-22.5,13L44,199.3c-4.5,8-4.5,18,0,26s13,13,22.5,13
		h212.3c9.5,0,18-5,22.5-13S305.8,207.8,301.8,199.8z"/>
	<g>
		
			<linearGradient id="SVGID_2_" gradientUnits="userSpaceOnUse" x1="-2.1234" y1="57.0297" x2="340.0267" y2="-228.8283" gradientTransform="matrix(1 0 0 1 0 276)">
			<stop  offset="0" style="stop-color:#F5A81D"/>
			<stop  offset="1" style="stop-color:#F7D237;stop-opacity:0.6"/>
		</linearGradient>
		<path class="st2" d="M222.9,264.8L134,109.4c-4-7-11-11-19-11s-15,4-19,11L6.6,264.3c-2,3.5-3,7-3,11s1,7.5,3,11
			c4,6.5,11,11,19,11l178.9,0.5c7.5,0,14.5-4.5,18.5-11C226.9,279.7,226.9,271.8,222.9,264.8z"/>
	</g>
	
		<linearGradient id="SVGID_3_" gradientUnits="userSpaceOnUse" x1="275.8196" y1="49.1084" x2="239.1962" y2="-108.3722" gradientTransform="matrix(1 0 0 1 0 276)">
		<stop  offset="0" style="stop-color:#B41F24"/>
		<stop  offset="1" style="stop-color:#D7694E;stop-opacity:0.5"/>
	</linearGradient>
	<path class="st3" d="M343.6,272.8l-63.9-111.4c-3-5-8-8-14-8c-5.5,0-11,3-13.5,8l-44,76.4l0,0l0,0l0,0l-20.5,35.5c-3,5-3,11,0,16
		s8,8,13.5,8l128.9-0.5c5.5,0,11-3,13.5-8c1.5-2.5,2-5,2-8C345.6,278.2,345.1,275.3,343.6,272.8z"/>
</g>
</svg>
