<svg width="258" height="252" viewBox="0 0 258 252" fill="none" xmlns="http://www.w3.org/2000/svg">
<path d="M125.899 0.175818C125.417 0.197844 123.597 0.352026 121.844 0.484182C99.9247 2.11411 77.6987 10.2637 59.484 23.3472C53.4563 27.6643 48.6998 31.7171 43.3954 37.0474C12.906 67.7077 0.346368 111.584 9.88116 154.204C13.7828 171.693 22.112 189.291 33.1592 203.432C50.4972 225.656 74.2574 241.317 100.911 248.101C111.761 250.876 120.77 252 132.146 252C143.368 252 151.632 250.986 162.328 248.365C177.694 244.577 191.196 238.343 204.698 228.85C217.63 219.731 229.664 206.956 238.3 193.19C249.435 175.393 255.769 155.746 257.325 134.182C257.654 129.645 257.457 118.412 256.975 113.786C256.01 104.601 253.555 92.487 252.131 89.954C251.561 88.9628 249.961 87.6853 248.777 87.2668C248.361 87.1347 247.44 87.0245 246.695 87.0245C243.407 87.0245 240.645 89.7778 240.645 93.0156C240.645 93.7865 240.996 95.6367 241.5 97.6411C245.84 114.601 246.191 133.235 242.486 150.239C237.752 172.023 227.187 191.23 211.252 206.978C203.821 214.313 196.653 219.731 187.382 225.062C165.748 237.506 138.853 242.22 113.624 237.991C94.4668 234.797 77.8303 227.397 62.0266 215.04C54.596 209.225 45.5435 199.644 39.9322 191.626C30.244 177.794 24.1505 163.213 20.9941 146.275C19.394 137.64 18.8461 126.187 19.5913 116.87C20.7311 102.729 24.2601 89.6016 30.244 77.1569C33.0058 71.364 34.7155 68.3464 38.0252 63.3465C44.7763 53.0824 53.7193 43.479 63.6048 35.858C75.2 26.8934 88.9651 20.0874 102.884 16.431C110.402 14.4487 116.408 13.4575 124.036 12.9069C151.632 10.9245 178.461 18.898 200.314 35.6157C201.936 36.8492 203.646 38.1928 204.106 38.6113L204.939 39.3381L204.61 40.2632C202.922 45.0208 204.172 50.9459 207.723 55.0868C209.542 57.2013 212.83 59.1836 215.613 59.8444C217.52 60.3069 220.83 60.3069 222.759 59.8444C227.647 58.677 232.206 54.47 233.653 49.8005C235.275 44.5803 234.332 39.4262 231.001 35.2413C227.318 30.6158 220.984 28.5454 215.131 30.0872L213.86 30.4176L212.063 28.9198C204.764 22.7745 195.93 17.0918 186.636 12.5765C171.556 5.24181 156.41 1.29915 139.16 0.241896C135.85 0.0436612 128.025 -0.000390743 125.899 0.175818V0.175818Z" fill="black"/>
<path d="M112.923 72.6423C110.599 78.6774 105.558 91.893 101.678 102.003C97.7985 112.113 89.8418 132.884 83.9895 148.148C78.159 163.412 73.3149 175.966 73.271 176.055C73.2053 176.165 79.3645 176.231 86.9266 176.231H100.714L101.525 173.962C101.985 172.729 103.607 168.367 105.119 164.271L107.881 156.848H128.573C145.056 156.848 149.264 156.782 149.199 156.562C148.979 155.967 145.604 146.275 143.807 141.099L141.878 135.593L128.178 135.483L114.501 135.372L123.4 110.725C128.748 95.9238 132.365 86.2323 132.431 86.4526C132.518 86.6508 136.069 96.8048 140.343 109.007C144.618 121.21 151.676 141.297 156.016 153.654L163.884 176.121L177.606 176.187C185.146 176.209 191.327 176.187 191.327 176.143C191.327 176.099 189.552 171.407 187.36 165.746C185.168 160.064 180.477 147.839 176.926 138.566C173.375 129.293 169.386 118.897 168.049 115.439C166.734 111.981 164.432 105.99 162.942 102.113C161.451 98.2365 157.572 88.0825 154.284 79.5364C150.996 70.9903 148.125 63.4794 147.884 62.8407L147.467 61.6953H117.109L112.923 72.6423Z" fill="black"/>
</svg>
