<svg width="180" height="220" viewBox="0 0 180 220" fill="none" xmlns="http://www.w3.org/2000/svg">
<g clip-path="url(#clip0_24906_1358)">
<path d="M174.273 74.998C172.99 75.988 150.346 88.682 150.346 116.908C150.346 149.556 179.16 161.106 180.022 161.392C179.889 162.096 175.445 177.21 164.83 192.61C155.366 206.162 145.482 219.692 130.445 219.692C115.408 219.692 111.538 211.002 94.1794 211.002C77.2629 211.002 71.2482 219.978 57.4939 219.978C43.7396 219.978 34.1425 207.438 23.1081 192.038C10.3268 173.954 0 145.86 0 119.196C0 76.428 27.9509 53.746 55.4595 53.746C70.0762 53.746 82.2604 63.294 91.4373 63.294C100.172 63.294 113.794 53.174 130.423 53.174C136.725 53.174 159.369 53.746 174.273 74.998ZM122.528 35.068C129.405 26.95 134.27 15.686 134.27 4.422C134.27 2.86 134.138 1.276 133.85 0C122.661 0.418 109.349 7.414 101.322 16.676C95.0197 23.804 89.1376 35.068 89.1376 46.486C89.1376 48.202 89.4251 49.918 89.5577 50.468C90.2654 50.6 91.4152 50.754 92.5651 50.754C102.604 50.754 115.231 44.066 122.528 35.068Z" fill="black"/>
</g>
<defs>
<clipPath id="clip0_24906_1358">
<rect width="180" height="220" fill="white"/>
</clipPath>
</defs>
</svg>
