<svg width="233" height="198" viewBox="0 0 233 198" fill="none" xmlns="http://www.w3.org/2000/svg">
<path d="M145.06 0.00138674C129.743 -0.0537236 118.744 1.52922 106.393 5.56362C102.236 6.92161 95.5876 9.53207 91.6203 11.3651C87.653 13.1981 80.2958 17.4285 75.2625 20.785C70.2293 24.1415 62.5742 29.9812 58.2469 33.7336C53.9196 37.4861 47.3162 44.0894 43.5638 48.4168C39.8114 52.7441 34.5298 59.6116 31.8412 63.668C29.1527 67.7244 26.7994 70.8871 26.6079 70.6956C25.8158 69.9034 33.1735 55.7126 38.3006 48.1476L43.803 40.0136L37.8819 45.7553C34.6293 48.9132 28.8414 55.6566 24.9931 60.7374C21.1448 65.8182 16.0213 73.5694 13.6294 77.9624C11.2374 82.3554 7.85482 90.0378 6.12337 95.0378L2.9834 104.129V120.397V136.665L5.58509 144.32C7.00816 148.531 9.78816 154.767 11.7753 158.166C13.7625 161.565 18.3726 167.475 22.0027 171.324C25.6327 175.173 31.4461 180.23 34.9214 182.538C45.2898 189.424 55.7887 193.549 68.9826 195.906C73.1932 196.658 81.9689 197.294 88.4803 197.341C94.9918 197.388 104.84 196.757 110.37 195.936C115.901 195.114 125.469 192.985 131.633 191.211C137.796 189.437 147.278 186.038 152.715 183.645L162.614 179.309L168.894 181.193C176.034 183.354 208.543 190.726 208.995 190.284C209.158 190.124 205.46 182.308 200.772 172.909L192.249 155.804L199.815 146.713C203.99 141.713 209.814 133.998 212.733 129.578C215.653 125.157 220.101 117.191 222.632 111.874C225.163 106.557 228.121 98.9852 229.211 95.0378C230.301 91.0905 231.642 84.0737 232.171 79.4277C232.836 73.5973 232.821 68.4096 232.112 62.6812C231.546 58.1166 230.066 51.4308 228.822 47.8486C227.578 44.2663 224.672 38.0219 222.393 33.9729C217.173 24.7009 206.067 13.3985 198.02 9.15216C194.789 7.44687 191.87 6.04209 191.501 6.04209C191.133 6.04209 193.004 7.77829 195.688 9.89977C201.073 14.1567 207.717 22.1653 210.999 28.3508L213.152 32.358L210.999 29.4872C209.821 27.9083 205.601 23.3394 201.609 19.3496C196.073 13.8173 192.411 11.143 186.208 8.0756C180.919 5.46001 174.728 3.36976 168.505 2.0648C161.434 0.582146 155.312 0.0382673 145.06 0.00138674ZM144.581 10.5876C155.067 10.6041 159.586 11.0642 165.425 12.6211C169.528 13.7151 175.772 15.9694 179.3 17.645C183.843 19.8025 187.85 22.8149 192.997 27.9621C198.577 33.5435 201.174 37.1168 204.241 43.3629C206.437 47.8366 208.882 54.5113 209.653 58.1955C210.424 61.8798 211.05 68.1881 211.059 72.2207C211.088 84.9033 207.55 99.1955 201.011 112.741C199.232 116.426 195.936 122.239 193.684 125.66C191.433 129.081 186.23 135.359 182.141 139.625C178.052 143.892 174.725 147.659 174.725 147.969C174.725 148.279 178.17 153.792 182.38 160.23C186.591 166.668 190.036 172.297 190.036 172.73C190.036 173.162 189.812 173.507 189.528 173.507C189.243 173.507 182.842 171.139 175.323 168.244C167.804 165.349 160.546 162.981 159.204 162.981C157.863 162.981 154.467 164.005 151.639 165.254C142.301 169.376 124.889 174.516 115.514 175.929C110.439 176.695 102.858 177.276 98.6479 177.215C83.4477 176.995 72.0196 174.363 58.9347 168.065C51.2693 164.375 48.556 162.398 41.62 155.445C35.3474 149.157 32.5527 145.487 29.8974 140.014C27.9822 136.067 25.7606 130.262 24.9632 127.125C22.908 119.04 23.1029 105.576 25.4118 96.3835C26.4575 92.2204 29.4879 84.4196 32.1403 79.0389C34.7926 73.6582 39.5133 65.8694 42.6368 61.7242C45.7603 57.5791 52.2003 50.4965 56.9311 45.9945C66.12 37.25 77.2615 29.3749 88.1215 23.9549C97.5206 19.264 110.013 15.016 121.435 12.6211C128.761 11.085 134.515 10.5717 144.581 10.5876Z" fill="#F68F1E"/>
<path d="M104.704 132.328L105.095 114.113L89.5641 123.771C81.022 129.082 73.9074 133.296 73.7541 133.134C72.955 132.29 60.8469 111.696 60.8457 111.179C60.8449 110.844 67.9473 106.538 76.6287 101.609C85.3102 96.6806 92.4132 92.4326 92.4132 92.1695C92.4132 91.9063 85.3102 87.6583 76.6287 82.7295C67.9473 77.8007 60.8449 73.4945 60.8457 73.1601C60.8469 72.647 72.9501 52.055 73.7443 51.2147C73.8923 51.0581 80.3806 55.0824 88.1626 60.1577C95.9448 65.2329 102.939 69.6261 103.706 69.9203C104.905 70.3806 105.045 67.8935 104.706 52.1256L104.312 33.7959H117.649H130.986L130.306 52.4876L129.627 71.1794L136.145 66.988C139.73 64.6828 146.323 60.4421 150.797 57.5641C155.271 54.6862 159.441 52.0285 160.065 51.6582C160.805 51.2186 163.535 54.8805 167.926 62.2012C171.625 68.3702 174.56 73.4884 174.447 73.5748C174.334 73.6612 167.998 77.2818 160.366 81.6205C152.735 85.9593 145.469 90.1524 144.22 90.9386L141.949 92.368L157.138 100.954C165.493 105.676 172.857 109.842 173.502 110.211C174.329 110.683 172.685 114.202 167.946 122.104C162.25 131.602 160.961 133.191 159.561 132.442C158.651 131.955 152.108 127.949 145.022 123.54C137.935 119.131 131.567 115.177 130.872 114.753C129.831 114.118 129.729 117.225 130.293 132.262L130.98 150.543H117.646H104.312L104.704 132.328Z" fill="#F68F1E"/>
<path fill-rule="evenodd" clip-rule="evenodd" d="M5.61857 142.783C2.24132 133.761 1.04406 127.902 1.00006 119.221C0.988734 110.674 2.48643 107.184 6.44749 95.71L5.61857 142.783Z" fill="#F68F1E" stroke="#F68F1E"/>
</svg>
