<svg width="40" height="40" viewBox="0 0 40 40" fill="none" xmlns="http://www.w3.org/2000/svg">
<path d="M11.273 19.7923C11.273 20.3 11.3262 20.7115 11.4194 21.0134C11.5258 21.3152 11.6588 21.6445 11.8451 22.0012C11.9116 22.1109 11.9382 22.2207 11.9382 22.3167C11.9382 22.4539 11.8584 22.5911 11.6854 22.7283L10.8473 23.3045C10.7276 23.3868 10.6078 23.428 10.5014 23.428C10.3684 23.428 10.2353 23.3594 10.1023 23.2359C9.91603 23.0301 9.75638 22.8106 9.62334 22.5911C9.4903 22.3579 9.35726 22.0972 9.21092 21.7817C8.17321 23.0439 6.86943 23.675 5.29957 23.675C4.18204 23.675 3.29068 23.3457 2.63879 22.6872C1.98689 22.0286 1.6543 21.1506 1.6543 20.053C1.6543 18.8868 2.05341 17.9402 2.86495 17.2268C3.67649 16.5134 4.75411 16.1567 6.12441 16.1567C6.57674 16.1567 7.04238 16.1978 7.53463 16.2664C8.02687 16.335 8.53242 16.4448 9.06458 16.5683V15.5667C9.06458 14.524 8.85171 13.7969 8.43929 13.3716C8.01357 12.9463 7.29516 12.7405 6.27075 12.7405C5.80512 12.7405 5.32618 12.7954 4.83393 12.9189C4.34169 13.0423 3.86275 13.1933 3.39711 13.3853C3.18425 13.4814 3.0246 13.5362 2.93147 13.5637C2.83835 13.5911 2.77183 13.6048 2.71861 13.6048C2.53236 13.6048 2.43923 13.4676 2.43923 13.1795V12.5073C2.43923 12.2878 2.46584 12.1231 2.53236 12.0271C2.59887 11.9311 2.71861 11.835 2.90486 11.739C3.3705 11.492 3.92927 11.2862 4.58116 11.1216C5.23305 10.9433 5.92485 10.8609 6.65657 10.8609C8.23973 10.8609 9.39717 11.2314 10.1422 11.9722C10.8739 12.7131 11.2464 13.8381 11.2464 15.3472V19.7923H11.273ZM5.87164 21.8777C6.31067 21.8777 6.763 21.7954 7.24194 21.6308C7.72088 21.4661 8.14661 21.1643 8.50581 20.7527C8.71867 20.492 8.87832 20.2039 8.95814 19.8747C9.03797 19.5454 9.09118 19.1475 9.09118 18.6811V18.1048C8.70537 18.0088 8.29295 17.9265 7.86722 17.8716C7.4415 17.8167 7.02908 17.7893 6.61666 17.7893C5.72529 17.7893 5.0734 17.9676 4.63437 18.3381C4.19534 18.7085 3.98248 19.2298 3.98248 19.9158C3.98248 20.5606 4.14213 21.0408 4.47473 21.3701C4.79402 21.7131 5.25966 21.8777 5.87164 21.8777ZM16.5547 23.3594C16.3152 23.3594 16.1556 23.3183 16.0491 23.2222C15.9427 23.1399 15.8496 22.9478 15.7697 22.6872L12.6433 12.082C12.5635 11.8076 12.5236 11.6292 12.5236 11.5332C12.5236 11.3137 12.63 11.1902 12.8429 11.1902H14.1467C14.3994 11.1902 14.5724 11.2314 14.6655 11.3274C14.772 11.4097 14.8518 11.6018 14.9316 11.8625L17.1667 20.9448L19.2421 11.8625C19.3086 11.5881 19.3884 11.4097 19.4948 11.3274C19.6013 11.2451 19.7875 11.1902 20.027 11.1902H21.0913C21.3441 11.1902 21.517 11.2314 21.6235 11.3274C21.7299 11.4097 21.823 11.6018 21.8762 11.8625L23.9783 21.0545L26.2798 11.8625C26.3597 11.5881 26.4528 11.4097 26.5459 11.3274C26.6523 11.2451 26.8253 11.1902 27.0648 11.1902H28.302C28.5149 11.1902 28.6346 11.3 28.6346 11.5332C28.6346 11.6018 28.6213 11.6704 28.608 11.7527C28.5947 11.835 28.5681 11.9448 28.5149 12.0957L25.3087 22.7009C25.2288 22.9753 25.1357 23.1536 25.0293 23.2359C24.9228 23.3182 24.7499 23.3731 24.5237 23.3731H23.3796C23.1268 23.3731 22.9539 23.332 22.8474 23.2359C22.741 23.1399 22.6479 22.9615 22.5947 22.6872L20.5325 13.8381L18.4837 22.6734C18.4172 22.9478 18.3374 23.1262 18.231 23.2222C18.1245 23.3183 17.9383 23.3594 17.6988 23.3594H16.5547ZM33.6502 23.7298C32.9584 23.7298 32.2666 23.6475 31.6014 23.4829C30.9362 23.3183 30.4174 23.1399 30.0715 22.9341C29.8586 22.8106 29.7122 22.6734 29.659 22.55C29.6058 22.4265 29.5792 22.2893 29.5792 22.1658V21.4661C29.5792 21.178 29.6856 21.0408 29.8852 21.0408C29.965 21.0408 30.0448 21.0545 30.1247 21.082C30.2045 21.1094 30.3242 21.1643 30.4573 21.2192C30.9096 21.425 31.4018 21.5896 31.9207 21.6993C32.4529 21.8091 32.9717 21.864 33.5039 21.864C34.342 21.864 34.9939 21.7131 35.4462 21.4112C35.8986 21.1094 36.138 20.6704 36.138 20.1079C36.138 19.7237 36.0183 19.4082 35.7788 19.1475C35.5394 18.8868 35.087 18.6536 34.4351 18.4341L32.5061 17.8167C31.5349 17.5012 30.8165 17.0347 30.3774 16.4173C29.9384 15.8137 29.7122 15.1414 29.7122 14.428C29.7122 13.8518 29.832 13.3442 30.0715 12.9051C30.3109 12.4661 30.6302 12.082 31.0293 11.7801C31.4284 11.4646 31.8808 11.2314 32.4129 11.0667C32.9451 10.9021 33.5039 10.8335 34.0892 10.8335C34.3819 10.8335 34.6879 10.8472 34.9806 10.8884C35.2866 10.9295 35.566 10.9844 35.8453 11.0393C36.1114 11.1079 36.3642 11.1765 36.6037 11.2588C36.8431 11.3411 37.0294 11.4234 37.1624 11.5058C37.3487 11.6155 37.4817 11.7253 37.5616 11.8487C37.6414 11.9585 37.6813 12.1094 37.6813 12.3015V12.9463C37.6813 13.2344 37.5749 13.3853 37.3753 13.3853C37.2689 13.3853 37.0959 13.3304 36.8697 13.2207C36.1114 12.864 35.26 12.6856 34.3154 12.6856C33.5571 12.6856 32.9584 12.8091 32.546 13.0698C32.1336 13.3304 31.9207 13.7283 31.9207 14.2908C31.9207 14.675 32.0537 15.0042 32.3198 15.2649C32.5859 15.5256 33.0781 15.7862 33.7832 16.0195L35.6724 16.6368C36.6303 16.9524 37.3221 17.3914 37.7345 17.9539C38.1469 18.5164 38.3465 19.1612 38.3465 19.8747C38.3465 20.4646 38.2267 20.9997 38.0006 21.4661C37.7611 21.9326 37.4418 22.3442 37.0294 22.6734C36.617 23.0164 36.1247 23.2634 35.5527 23.4417C34.954 23.6338 34.3287 23.7298 33.6502 23.7298Z" fill="white"/>
<path fill-rule="evenodd" clip-rule="evenodd" d="M36.1643 30.3974C31.7873 33.7313 25.428 35.5011 19.9601 35.5011C12.2971 35.5011 5.39234 32.5788 0.17721 27.7221C-0.235211 27.338 0.137299 26.8166 0.629543 27.1185C6.2704 30.4935 13.2283 32.5377 20.4258 32.5377C25.2817 32.5377 30.6166 31.495 35.5257 29.3547C36.2574 29.0118 36.8827 29.8486 36.1643 30.3974Z" fill="white"/>
<path fill-rule="evenodd" clip-rule="evenodd" d="M37.9854 28.2572C37.4267 27.5163 34.2869 27.9005 32.8634 28.0788C32.4377 28.1337 32.3712 27.7496 32.757 27.4615C35.2581 25.6505 39.369 26.1718 39.848 26.7755C40.3269 27.3929 39.7149 31.6322 37.3735 33.6627C37.0142 33.9782 36.6683 33.8136 36.828 33.402C37.3601 32.0438 38.5442 28.9843 37.9854 28.2572Z" fill="white"/>
</svg>
