<?xml version="1.0" encoding="utf-8"?>
<!-- Generator: Adobe Illustrator 24.2.1, SVG Export Plug-In . SVG Version: 6.00 Build 0)  -->
<svg version="1.1" id="Layer_1" xmlns="http://www.w3.org/2000/svg" xmlns:xlink="http://www.w3.org/1999/xlink" x="0px" y="0px"
	 viewBox="0 0 52 32" style="enable-background:new 0 0 52 32;" xml:space="preserve">
<style type="text/css">
	.st0{fill:#252F3E;}
	.st1{fill:#FF9900;}
</style>
<path class="st0" d="M14.8,11.8c0,0.6,0.1,1.1,0.2,1.5c0.1,0.4,0.3,0.8,0.5,1.2c0.1,0.1,0.1,0.3,0.1,0.4c0,0.2-0.1,0.3-0.3,0.5
	l-1.1,0.7c-0.2,0.1-0.3,0.2-0.4,0.2c-0.2,0-0.3-0.1-0.5-0.2c-0.2-0.3-0.4-0.5-0.6-0.8c-0.2-0.3-0.3-0.6-0.5-1c-1.3,1.6-3,2.4-5,2.4
	c-1.4,0-2.6-0.4-3.4-1.2c-0.8-0.8-1.3-1.9-1.3-3.3C2.4,10.7,3,9.5,4,8.6s2.4-1.3,4.2-1.3c0.6,0,1.2,0.1,1.8,0.1
	c0.6,0.1,1.3,0.2,2,0.4V6.5c0-1.3-0.3-2.2-0.8-2.7C10.6,3.2,9.7,3,8.4,3C7.8,3,7.2,3,6.5,3.2S5.3,3.5,4.7,3.8C4.4,3.9,4.2,4,4.1,4
	S3.9,4.1,3.8,4.1c-0.2,0-0.4-0.2-0.4-0.5V2.7c0-0.3,0-0.5,0.1-0.6C3.7,2,3.8,1.9,4.1,1.7C4.7,1.4,5.4,1.2,6.2,1
	C7,0.7,7.9,0.6,8.9,0.6c2,0,3.5,0.5,4.5,1.4c0.9,0.9,1.4,2.3,1.4,4.2L14.8,11.8L14.8,11.8z M7.9,14.4c0.6,0,1.1-0.1,1.8-0.3
	c0.6-0.2,1.2-0.6,1.6-1.1c0.3-0.3,0.5-0.7,0.6-1.1c0.1-0.4,0.2-0.9,0.2-1.5V9.7c-0.5-0.1-1-0.2-1.6-0.3C9.9,9.3,9.3,9.3,8.8,9.3
	c-1.1,0-2,0.2-2.5,0.7c-0.6,0.5-0.8,1.1-0.8,2c0,0.8,0.2,1.4,0.6,1.8C6.5,14.2,7.1,14.4,7.9,14.4L7.9,14.4z M21.6,16.2
	c-0.3,0-0.5-0.1-0.6-0.2c-0.1-0.1-0.3-0.3-0.4-0.7l-4-13.2c-0.1-0.3-0.2-0.6-0.2-0.7c0-0.3,0.1-0.4,0.4-0.4h1.7
	c0.3,0,0.5,0.1,0.7,0.2c0.1,0.1,0.2,0.3,0.3,0.7l2.9,11.3L25,1.9c0.1-0.3,0.2-0.6,0.3-0.7C25.5,1.1,25.7,1,26,1h1.4
	c0.3,0,0.5,0.1,0.7,0.2c0.1,0.1,0.3,0.3,0.3,0.7l2.7,11.5l3-11.5c0.1-0.3,0.2-0.6,0.3-0.7C34.5,1.1,34.8,1,35.1,1h1.6
	c0.3,0,0.4,0.1,0.4,0.4c0,0.1,0,0.2,0,0.3C37,1.9,37,2,36.9,2.2l-4.1,13.2c-0.1,0.3-0.2,0.6-0.4,0.7c-0.1,0.1-0.4,0.2-0.6,0.2h-1.5
	c-0.3,0-0.5-0.1-0.7-0.2c-0.1-0.1-0.3-0.3-0.3-0.7l-2.6-11l-2.6,11c-0.1,0.3-0.2,0.6-0.3,0.7c-0.1,0.1-0.4,0.2-0.7,0.2H21.6z
	 M43.5,16.7c-0.9,0-1.8-0.1-2.6-0.3s-1.5-0.4-2-0.7c-0.3-0.2-0.5-0.3-0.5-0.5c-0.1-0.2-0.1-0.3-0.1-0.5v-0.9c0-0.4,0.1-0.5,0.4-0.5
	c0.1,0,0.2,0,0.3,0.1c0.1,0,0.3,0.1,0.4,0.2c0.6,0.3,1.2,0.5,1.9,0.6c0.7,0.1,1.3,0.2,2,0.2c1.1,0,1.9-0.2,2.5-0.6
	c0.6-0.4,0.9-0.9,0.9-1.6c0-0.5-0.2-0.9-0.5-1.2c-0.3-0.3-0.9-0.6-1.7-0.9l-2.5-0.8c-1.2-0.4-2.2-1-2.7-1.7
	c-0.6-0.8-0.9-1.6-0.9-2.5c0-0.7,0.2-1.4,0.5-1.9s0.7-1,1.2-1.4c0.5-0.4,1.1-0.7,1.8-0.9s1.4-0.3,2.2-0.3c0.4,0,0.8,0,1.1,0.1
	c0.4,0.1,0.8,0.1,1.1,0.2c0.3,0.1,0.7,0.2,1,0.3c0.3,0.1,0.5,0.2,0.7,0.3c0.2,0.1,0.4,0.3,0.5,0.4c0.1,0.1,0.2,0.3,0.2,0.6v0.8
	c0,0.4-0.1,0.5-0.4,0.5c-0.1,0-0.4-0.1-0.6-0.2c-1-0.4-2.1-0.7-3.3-0.7c-1,0-1.7,0.2-2.3,0.5c-0.5,0.3-0.8,0.8-0.8,1.5
	c0,0.5,0.2,0.9,0.5,1.2c0.3,0.3,1,0.7,1.9,0.9l2.4,0.8c1.2,0.4,2.1,0.9,2.6,1.6c0.5,0.7,0.8,1.5,0.8,2.4c0,0.7-0.2,1.4-0.4,2
	c-0.3,0.6-0.7,1.1-1.2,1.5c-0.5,0.4-1.2,0.7-1.9,1C45.2,16.6,44.4,16.7,43.5,16.7L43.5,16.7z"/>
<path class="st1" d="M46.8,25c-5.6,4.2-13.8,6.4-20.8,6.4c-9.8,0-18.7-3.6-25.4-9.7c-0.5-0.5-0.1-1.1,0.6-0.8
	c7.2,4.2,16.2,6.8,25.4,6.8c6.2,0,13.1-1.3,19.4-4C46.9,23.3,47.7,24.3,46.8,25L46.8,25z"/>
<path class="st1" d="M49.1,22.4c-0.7-0.9-4.7-0.4-6.6-0.2c-0.5,0.1-0.6-0.4-0.1-0.8c3.2-2.3,8.5-1.6,9.1-0.9
	c0.6,0.8-0.2,6.1-3.2,8.6c-0.5,0.4-0.9,0.2-0.7-0.3C48.3,27.1,49.8,23.3,49.1,22.4z"/>
</svg>
