<svg width="144" height="42" viewBox="0 0 144 42" fill="none" xmlns="http://www.w3.org/2000/svg">
<g clip-path="url(#clip0_27910_11649)">
<path d="M25.0804 39.0311C31.9197 37.8229 37.5685 36.8231 37.6334 36.8094L37.7514 36.7844L31.2944 29.104C27.7431 24.8798 24.8374 21.4073 24.8374 21.3872C24.8374 21.3493 31.5048 2.98885 31.5423 2.92353C31.5548 2.90169 36.0922 10.7353 42.5411 21.9127C48.5787 32.3772 53.5565 41.0052 53.6027 41.0861L53.6869 41.2331L33.1661 41.2304L12.6453 41.2278L25.0804 39.0311V39.0311ZM103.775 37.1736C100.652 36.9734 98.8348 35.1947 98.3534 31.8654C98.2253 30.9797 98.2248 30.9567 98.2117 25.2071L98.199 19.6425H99.5815H100.964L100.975 25.0249C100.985 29.876 100.991 30.4448 101.037 30.786C101.225 32.171 101.6 33.1024 102.238 33.7709C102.749 34.3059 103.346 34.6192 104.174 34.7854C104.564 34.8638 105.675 34.864 106.03 34.7857C106.869 34.6011 107.542 34.2361 108.135 33.6432C108.811 32.9675 109.311 32.0088 109.553 30.9247L109.634 30.5593L109.643 25.1313L109.652 19.7033H111.064H112.475V28.2363V36.7692H111.078H109.681V35.4154C109.681 34.4955 109.671 34.0649 109.65 34.0721C109.633 34.0778 109.561 34.1876 109.491 34.3159C109.009 35.1938 108.207 35.9967 107.328 36.4803C106.275 37.0601 105.219 37.2662 103.775 37.1737L103.775 37.1736ZM135.481 37.1598C134.378 37.077 133.217 36.6979 132.268 36.1109C130.268 34.8736 129.084 32.8343 128.738 30.0278C128.618 29.0567 128.604 27.7522 128.704 26.9269C128.927 25.0831 129.652 23.2729 130.684 21.9807C130.948 21.6494 131.548 21.0494 131.879 20.7849C132.774 20.0707 133.82 19.5712 134.931 19.3282C135.579 19.1866 136.718 19.1201 137.406 19.1838C139.134 19.344 140.717 20.1574 141.793 21.4376C142.887 22.7383 143.487 24.5558 143.564 26.7938C143.576 27.1445 143.579 27.7594 143.571 28.1603L143.555 28.8891L137.505 28.8967L131.454 28.9044V29.1744C131.454 29.9964 131.654 30.9325 132 31.7291C132.298 32.4159 132.81 33.166 133.23 33.529C134.091 34.2732 135.145 34.7187 136.298 34.8259C136.725 34.8656 137.815 34.8238 138.302 34.7489C139.692 34.5353 141.013 33.9901 142.08 33.1901C142.206 33.0959 142.326 33.008 142.348 32.9946C142.379 32.9751 142.386 33.221 142.385 34.2548L142.384 35.5393L142.098 35.7162C140.891 36.4628 139.508 36.9422 138.044 37.1217C137.607 37.1753 136.003 37.1991 135.481 37.1598L135.481 37.1598ZM140.746 26.3263C140.746 24.9495 140.166 23.42 139.345 22.6324C138.759 22.0704 138.051 21.7269 137.209 21.5965C136.81 21.5347 135.971 21.5585 135.551 21.6434C134.663 21.8228 133.928 22.2132 133.288 22.8461C132.614 23.5123 132.108 24.3214 131.79 25.2433C131.676 25.5748 131.542 26.1191 131.501 26.4218L131.481 26.566H136.114H140.746V26.3263ZM58.6721 36.7312C58.6792 36.7104 60.7338 31.3127 63.2379 24.7366L67.7909 12.7798L69.2538 12.7798L70.7166 12.7797L70.838 13.0909C71.2089 14.0421 79.9527 36.7433 79.9527 36.7551C79.9527 36.7628 79.2523 36.7691 78.3964 36.769L76.8401 36.7686L75.5799 33.4134L74.3197 30.0582L69.2455 30.0582L64.1713 30.0581L64.1272 30.172C64.1029 30.2346 63.5645 31.7443 62.9307 33.5269L61.7783 36.768L60.2188 36.7686C58.9843 36.769 58.6619 36.7612 58.6721 36.7311V36.7312ZM73.3935 27.4977C73.3935 27.4924 72.5454 25.1933 71.5089 22.3886C69.5697 17.1414 69.4612 16.8257 69.308 15.9833C69.2362 15.5883 69.1998 15.5773 69.1572 15.9378C69.1267 16.1954 68.9945 16.7719 68.8926 17.0917C68.8421 17.2503 67.9688 19.6471 66.9521 22.4178C65.9353 25.1885 65.1034 27.4671 65.1034 27.4814C65.1034 27.4957 66.9687 27.5074 69.2485 27.5074C71.5282 27.5074 73.3935 27.5031 73.3935 27.4977V27.4977ZM80.894 36.3322V35.8952L85.9495 28.9455L91.0049 21.9959L86.4277 21.9807L81.8506 21.9655L81.8426 20.804L81.8347 19.6425H88.4549H95.0752V20.0348V20.4271L90.0192 27.4147C87.2383 31.2578 84.9631 34.4087 84.9631 34.4166C84.9631 34.4245 87.211 34.431 89.9584 34.431H94.9537V35.6001V36.7692H87.9239H80.894V36.3322ZM117.992 36.7489C117.981 36.7378 117.972 32.8843 117.972 28.1856V19.6425H119.353H120.735V21.4037C120.735 22.3724 120.747 23.165 120.761 23.165C120.775 23.165 120.843 23.0064 120.911 22.8126C121.221 21.9245 121.76 21.0947 122.454 20.4352C123.079 19.8411 123.794 19.4858 124.637 19.3499C124.874 19.3117 125.074 19.3044 125.548 19.3167C126.143 19.3322 126.454 19.3757 126.816 19.494L126.93 19.5312V20.9654V22.3995L126.603 22.2361C126.027 21.9475 125.458 21.8332 124.774 21.8688C124.329 21.892 124.036 21.9491 123.68 22.0827C122.948 22.3575 122.354 22.8425 121.939 23.5046C121.338 24.4631 120.91 25.6952 120.784 26.8276C120.761 27.0308 120.748 28.6858 120.742 31.9485L120.734 36.7692H119.373C118.625 36.7692 118.003 36.7601 117.992 36.7489ZM0.453125 36.6889C0.453125 36.6781 3.49562 31.3966 7.21422 24.9522L13.9753 13.2351L21.8546 6.62282C26.1882 2.98606 29.7455 0.00607244 29.7598 0.000637667C29.7741 -0.00479603 29.7171 0.138685 29.6331 0.319486C29.5492 0.500287 25.6991 8.75835 21.0773 18.6707L12.6742 36.6933L6.56365 36.7009C3.20286 36.7051 0.453125 36.6997 0.453125 36.6889V36.6889Z" fill="#0089D6"/>
</g>
<defs>
<clipPath id="clip0_27910_11649">
<rect width="143.122" height="41.2326" fill="white" transform="translate(0.449219)"/>
</clipPath>
</defs>
</svg>
