<svg width="757" height="136" viewBox="0 0 757 136" fill="none" xmlns="http://www.w3.org/2000/svg">
<path d="M104.493 107.77C104.493 108.652 105.123 109.282 106.005 109.282H142.18C143.819 109.282 145.206 110.669 145.206 112.307V120.627C145.206 122.265 143.819 123.652 142.18 123.652H93.1484C91.5098 123.652 90.1233 122.265 90.1233 120.627V21.0498C90.1233 19.4112 91.5098 18.0247 93.1484 18.0247H141.928C143.567 18.0247 144.953 19.4112 144.953 21.0498V29.3688C144.953 31.0074 143.567 32.394 141.928 32.394H106.005C105.123 32.394 104.493 33.0242 104.493 33.9065V61.1326C104.493 62.0149 105.123 62.6451 106.005 62.6451H140.29C141.928 62.6451 143.315 64.0316 143.315 65.6702V73.9893C143.315 75.6279 141.928 77.0144 140.29 77.0144H106.005C105.123 77.0144 104.493 77.6447 104.493 78.527V107.77V107.77ZM182.263 78.4009C182.263 77.5186 182.893 76.8884 183.776 76.8884H218.06C219.699 76.8884 221.086 75.5019 221.086 73.8633V65.5442C221.086 63.9056 219.699 62.5191 218.06 62.5191H183.776C182.893 62.5191 182.263 61.8888 182.263 61.0065V33.7805C182.263 32.8981 182.893 32.2679 183.776 32.2679H219.699C221.338 32.2679 222.724 30.8814 222.724 29.2428V20.9237C222.724 19.2851 221.338 17.8986 219.699 17.8986H170.919C169.28 17.8986 167.894 19.2851 167.894 20.9237V120.5C167.894 122.139 169.28 123.526 170.919 123.526H219.951C221.59 123.526 222.976 122.139 222.976 120.5V112.181C222.976 110.543 221.59 109.156 219.951 109.156H183.776C182.893 109.156 182.263 108.526 182.263 107.644V78.4009ZM356.964 123.652C358.35 123.652 359.485 122.895 359.863 121.383L372.846 46.007C372.972 45.2507 373.854 45.2507 374.106 46.007L387.971 121.383C388.223 122.895 389.484 123.652 390.87 123.652H403.727C405.113 123.652 406.248 122.895 406.626 121.383L428.054 21.0498C428.306 19.5372 427.424 18.0247 425.029 18.0247H416.836C415.449 18.0247 414.315 18.6549 413.937 20.2935L397.803 97.686C397.677 98.3163 397.299 98.5684 396.921 98.5684H396.668C396.164 98.5684 395.912 98.3163 395.786 97.686L381.543 20.2935C381.291 18.7809 380.03 18.0247 378.644 18.0247H368.056C366.669 18.0247 365.535 18.7809 365.157 20.2935L352.174 97.686C352.048 98.3163 351.67 98.5684 351.292 98.5684H351.04C350.535 98.5684 350.283 98.3163 350.157 97.686L335.41 20.2935C335.158 18.6549 333.897 18.0247 332.511 18.0247H324.318C321.923 18.0247 321.04 19.5372 321.293 21.0498L341.334 121.383C341.586 122.895 342.847 123.652 344.233 123.652H356.964M558.512 83.947C558.764 83.1907 559.394 83.1907 559.773 83.947L578.427 121.383C579.184 123.021 580.066 123.652 581.453 123.652H591.662C593.679 123.652 595.192 121.509 594.057 119.492L568.092 69.0735C567.587 68.3172 567.461 67.687 567.966 66.9307L591.662 22.3102C592.671 20.1675 591.158 18.0247 589.267 18.0247H579.562C578.175 18.0247 577.419 18.6549 576.663 20.2935L559.647 53.0656C559.394 53.8219 558.764 53.8219 558.386 53.0656L541.37 20.2935C540.614 18.6549 539.857 18.0247 538.471 18.0247H528.765C526.748 18.0247 525.236 20.1675 526.37 22.3102L550.067 66.9307C550.571 67.687 550.319 68.3172 549.941 69.0735L524.101 119.492C523.093 121.635 524.606 123.652 526.496 123.652H536.454C537.84 123.652 538.849 123.021 539.605 121.383L558.512 83.947ZM14.2433 107.644C14.2433 108.526 14.9995 109.282 15.8819 109.282H45.7549C46.133 109.282 46.6372 109.156 46.8893 108.778L52.4354 103.232C52.6875 102.98 52.8135 102.476 52.8135 102.098V83.6949C52.8135 83.3167 52.6874 82.8126 52.3093 82.5605L46.8893 77.1405C46.6372 76.8884 46.133 76.6363 45.7549 76.6363H15.8819C14.9995 76.6363 14.2433 77.3926 14.2433 78.2749V107.644ZM14.2433 60.8805C14.2433 61.7628 14.9995 62.5191 15.8819 62.5191H43.6121C43.9902 62.5191 44.4944 62.393 44.7465 62.0149L50.5447 56.2168C50.7968 55.9647 51.0488 55.4605 51.0488 55.0823V39.3265C51.0488 38.9484 50.7968 38.4442 50.5447 38.1921L45.1247 32.7721C44.8726 32.52 44.3684 32.2679 43.9902 32.2679H15.8819C14.9995 32.2679 14.2433 33.0242 14.2433 33.9065V60.8805ZM57.2251 67.813C56.847 68.1912 56.973 68.8214 57.3512 69.1995L65.2921 77.3926C65.9223 78.0228 66.1744 78.7791 66.1744 79.5354V107.896C66.1744 108.778 65.9223 109.534 65.2921 110.039L52.6874 122.769C52.0572 123.4 51.3009 123.652 50.5447 123.652H3.15116C1.38651 123.652 0 122.265 0 120.5V21.0498C0 19.2851 1.38651 17.8986 3.15116 17.8986H48.78C49.6623 17.8986 50.4186 18.2768 50.9228 18.7809L63.5274 31.3856C64.1577 32.0158 64.5358 32.7721 64.5358 33.5284V57.6033C64.5358 58.3596 64.2837 58.9898 63.9056 59.494L57.2251 67.813ZM289.529 123.652C290.159 123.652 290.789 123.4 291.294 122.895L304.402 109.787C304.907 109.282 305.159 108.652 305.159 108.022V78.1488C305.159 77.5186 304.907 76.8884 304.402 76.3842L291.294 63.2754C290.789 62.7712 290.159 62.5191 289.529 62.5191H264.698C264.067 62.5191 263.437 62.267 262.933 61.7628L258.017 56.847C257.513 56.3428 257.261 55.7126 257.261 55.0823V39.7047C257.261 39.0744 257.513 38.4442 258.017 37.94L262.933 33.0242C263.437 32.52 264.067 32.2679 264.698 32.2679H283.353C283.983 32.2679 284.613 32.52 285.117 33.0242L290.033 37.94C290.537 38.4442 290.789 39.0744 290.789 39.7047V42.2256C290.789 43.6121 291.924 44.7465 293.31 44.7465H302.638C304.024 44.7465 305.159 43.6121 305.159 42.2256V33.5284C305.159 32.8981 304.907 32.2679 304.402 31.7637L291.294 18.6549C290.789 18.1507 290.159 17.8986 289.529 17.8986H258.647C258.017 17.8986 257.387 18.1507 256.883 18.6549L243.648 31.8898C243.144 32.394 242.892 33.0242 242.892 33.6544V61.1326C242.892 61.7628 243.144 62.393 243.648 62.8972L256.757 76.0061C257.261 76.5103 257.891 76.7623 258.521 76.7623H283.227C283.857 76.7623 284.487 77.0144 284.991 77.5186L289.907 82.4344C290.411 82.9386 290.663 83.5689 290.663 84.1991V101.846C290.663 102.476 290.411 103.106 289.907 103.61L284.991 108.526C284.487 109.03 283.857 109.282 283.227 109.282H264.698C264.067 109.282 263.437 109.03 262.933 108.526L258.017 103.61C257.513 103.106 257.261 102.476 257.261 101.846V99.3247C257.261 97.9382 256.127 96.8037 254.74 96.8037H245.413C244.026 96.8037 242.892 97.9382 242.892 99.3247V108.022C242.892 108.652 243.144 109.282 243.648 109.787L256.757 122.895C257.261 123.4 257.891 123.652 258.521 123.652H289.529M486.035 81.4261C486.792 81.4261 487.296 80.7958 487.044 80.0395L476.204 33.1502C476.078 32.6461 475.573 32.1419 474.943 32.1419H469.523C468.893 32.1419 468.389 32.52 468.263 33.1502L457.045 80.0395C456.919 80.7958 457.423 81.4261 458.053 81.4261H486.035ZM500.531 123.652C499.396 123.652 498.388 122.895 498.136 121.761L491.455 96.4256C491.329 95.9214 490.825 95.4172 490.195 95.4172H454.02C453.389 95.4172 452.885 95.7954 452.759 96.4256L446.079 121.761C445.827 122.895 444.818 123.652 443.684 123.652H434.104C432.214 123.652 430.827 121.887 431.331 119.996L457.675 20.2935C458.053 19.033 459.187 18.1507 460.448 18.1507H483.01C484.271 18.1507 485.405 19.033 485.783 20.2935L512.253 119.996C512.757 121.761 511.371 123.652 509.48 123.652H500.531ZM651.534 0.126054H640.947C640.316 0.126054 639.686 0.504198 639.308 1.13443L604.645 66.5526C604.267 67.3089 604.267 68.3172 604.645 69.0735L639.308 134.492C639.686 135.122 640.316 135.5 640.947 135.5H651.534C652.921 135.5 653.803 133.987 653.173 132.727L619.267 68.8214C618.888 68.1912 618.888 67.3088 619.267 66.6786L653.173 2.89907C653.803 1.51256 652.921 0.126054 651.534 0.126054ZM708.886 0.126054C707.499 0.126054 706.617 1.63861 707.247 2.89907L741.154 66.6786C741.532 67.3088 741.532 68.1912 741.154 68.8214L707.247 132.601C706.617 133.861 707.499 135.374 708.886 135.374H719.473C720.104 135.374 720.734 134.996 721.112 134.366L755.775 68.9475C756.153 68.1912 756.153 67.1828 755.775 66.4265L721.112 1.00838C720.734 0.378143 720.104 0 719.473 0H708.886M706.365 32.394C706.743 32.394 707.121 32.6461 707.247 32.8981L713.675 44.8726C714.054 45.6288 713.549 46.3851 712.793 46.3851H647.879C647.123 46.3851 646.619 45.5028 646.997 44.8726L653.425 32.8981C653.551 32.52 653.929 32.394 654.307 32.394H706.365ZM725.02 66.6786C725.398 67.3088 725.398 68.1912 725.02 68.8214L722.121 74.2414C721.994 74.6195 721.616 74.8716 721.238 74.8716H639.056C638.678 74.8716 638.3 74.6195 638.173 74.2414L635.274 68.8214C634.896 68.1912 634.896 67.3088 635.274 66.6786L638.173 61.2586C638.3 60.8805 638.678 60.6284 639.056 60.6284H721.238C721.616 60.6284 721.994 60.8805 722.121 61.2586L725.02 66.6786ZM654.055 103.232C653.677 103.232 653.299 102.98 653.173 102.728L646.745 90.7535C646.366 89.9972 646.871 89.241 647.627 89.241H712.541C713.297 89.241 713.801 90.1233 713.423 90.7535L706.995 102.728C706.869 103.106 706.491 103.232 706.113 103.232H654.055ZM558.512 83.947C558.764 83.1907 559.394 83.1907 559.773 83.947L578.427 121.383C579.184 123.021 580.066 123.652 581.453 123.652H591.662C593.679 123.652 595.192 121.509 594.057 119.492L568.092 69.0735C567.587 68.3172 567.461 67.687 567.966 66.9307L591.662 22.3102C592.671 20.1675 591.158 18.0247 589.267 18.0247H579.562C578.175 18.0247 577.419 18.6549 576.663 20.2935L559.647 53.0656C559.394 53.8219 558.764 53.8219 558.386 53.0656L541.37 20.2935C540.614 18.6549 539.857 18.0247 538.471 18.0247H528.765C526.748 18.0247 525.236 20.1675 526.37 22.3102L550.067 66.9307C550.571 67.687 550.319 68.3172 549.941 69.0735L524.101 119.492C523.093 121.635 524.606 123.652 526.496 123.652H536.454C537.84 123.652 538.849 123.021 539.605 121.383L558.512 83.947ZM689.474 124.408C689.853 124.03 689.853 123.273 689.474 122.895L681.029 114.45C680.651 114.072 679.895 114.072 679.517 114.45L671.072 122.895C670.694 123.273 670.694 124.03 671.072 124.408L679.517 132.853C679.895 133.231 680.651 133.231 681.029 132.853L689.474 124.408Z" fill="black"/>
</svg>
