<?xml version="1.0" encoding="utf-8"?>
<!-- Generator: Adobe Illustrator 19.0.0, SVG Export Plug-In . SVG Version: 6.00 Build 0)  -->
<svg version="1.1" id="layer" xmlns="http://www.w3.org/2000/svg" xmlns:xlink="http://www.w3.org/1999/xlink" x="0px" y="0px"
	 viewBox="-153 -46 652 652" style="enable-background:new -153 -46 652 652;" xml:space="preserve">
<path d="M-48.4,306.9c0,0.7,0.5,1.2,1.2,1.2h28.7c1.3,0,2.4,1.1,2.4,2.4v6.6c0,1.3-1.1,2.4-2.4,2.4h-38.9c-1.3,0-2.4-1.1-2.4-2.4
	v-79c0-1.3,1.1-2.4,2.4-2.4h38.7c1.3,0,2.4,1.1,2.4,2.4v6.6c0,1.3-1.1,2.4-2.4,2.4h-28.5c-0.7,0-1.2,0.5-1.2,1.2v21.6
	c0,0.7,0.5,1.2,1.2,1.2H-20c1.3,0,2.4,1.1,2.4,2.4v6.6c0,1.3-1.1,2.4-2.4,2.4h-27.2c-0.7,0-1.2,0.5-1.2,1.2V306.9z M13.3,283.6
	c0-0.7,0.5-1.2,1.2-1.2h27.2c1.3,0,2.4-1.1,2.4-2.4v-6.6c0-1.3-1.1-2.4-2.4-2.4H14.5c-0.7,0-1.2-0.5-1.2-1.2v-21.6
	c0-0.7,0.5-1.2,1.2-1.2H43c1.3,0,2.4-1.1,2.4-2.4v-6.6c0-1.3-1.1-2.4-2.4-2.4H4.3c-1.3,0-2.4,1.1-2.4,2.4v79c0,1.3,1.1,2.4,2.4,2.4
	h38.9c1.3,0,2.4-1.1,2.4-2.4v-6.6c0-1.3-1.1-2.4-2.4-2.4H14.5c-0.7,0-1.2-0.5-1.2-1.2V283.6z M151.9,319.5c1.1,0,2-0.6,2.3-1.8
	l10.3-59.8c0.1-0.6,0.8-0.6,1,0l11,59.8c0.2,1.2,1.2,1.8,2.3,1.8h10.2c1.1,0,2-0.6,2.3-1.8l17-79.6c0.2-1.2-0.5-2.4-2.4-2.4h-6.5
	c-1.1,0-2,0.5-2.3,1.8l-12.8,61.4c-0.1,0.5-0.4,0.7-0.7,0.7h-0.2c-0.4,0-0.6-0.2-0.7-0.7l-11.3-61.4c-0.2-1.2-1.2-1.8-2.3-1.8h-8.4
	c-1.1,0-2,0.6-2.3,1.8l-10.3,61.4c-0.1,0.5-0.4,0.7-0.7,0.7h-0.2c-0.4,0-0.6-0.2-0.7-0.7l-11.7-61.4c-0.2-1.3-1.2-1.8-2.3-1.8h-6.5
	c-1.9,0-2.6,1.2-2.4,2.4l15.9,79.6c0.2,1.2,1.2,1.8,2.3,1.8H151.9 M311.8,288c0.2-0.6,0.7-0.6,1,0l14.8,29.7
	c0.6,1.3,1.3,1.8,2.4,1.8h8.1c1.6,0,2.8-1.7,1.9-3.3l-20.6-40c-0.4-0.6-0.5-1.1-0.1-1.7l18.8-35.4c0.8-1.7-0.4-3.4-1.9-3.4h-7.7
	c-1.1,0-1.7,0.5-2.3,1.8l-13.5,26c-0.2,0.6-0.7,0.6-1,0l-13.5-26c-0.6-1.3-1.2-1.8-2.3-1.8h-7.7c-1.6,0-2.8,1.7-1.9,3.4l18.8,35.4
	c0.4,0.6,0.2,1.1-0.1,1.7l-20.5,40c-0.8,1.7,0.4,3.3,1.9,3.3h7.9c1.1,0,1.9-0.5,2.5-1.8L311.8,288z M-120,306.8
	c0,0.7,0.6,1.3,1.3,1.3H-95c0.3,0,0.7-0.1,0.9-0.4l4.4-4.4c0.2-0.2,0.3-0.6,0.3-0.9v-14.6c0-0.3-0.1-0.7-0.4-0.9l-4.3-4.3
	c-0.2-0.2-0.6-0.4-0.9-0.4h-23.7c-0.7,0-1.3,0.6-1.3,1.3V306.8 M-120,269.7c0,0.7,0.6,1.3,1.3,1.3h22c0.3,0,0.7-0.1,0.9-0.4l4.6-4.6
	c0.2-0.2,0.4-0.6,0.4-0.9v-12.5c0-0.3-0.2-0.7-0.4-0.9l-4.3-4.3c-0.2-0.2-0.6-0.4-0.9-0.4h-22.3c-0.7,0-1.3,0.6-1.3,1.3V269.7
	 M-85.9,275.2c-0.3,0.3-0.2,0.8,0.1,1.1l6.3,6.5c0.5,0.5,0.7,1.1,0.7,1.7V307c0,0.7-0.2,1.3-0.7,1.7l-10,10.1
	c-0.5,0.5-1.1,0.7-1.7,0.7h-37.6c-1.4,0-2.5-1.1-2.5-2.5v-78.9c0-1.4,1.1-2.5,2.5-2.5h36.2c0.7,0,1.3,0.3,1.7,0.7l10,10
	c0.5,0.5,0.8,1.1,0.8,1.7v19.1c0,0.6-0.2,1.1-0.5,1.5L-85.9,275.2 M98.4,319.5c0.5,0,1-0.2,1.4-0.6l10.4-10.4
	c0.4-0.4,0.6-0.9,0.6-1.4v-23.7c0-0.5-0.2-1-0.6-1.4l-10.4-10.4c-0.4-0.4-0.9-0.6-1.4-0.6H78.7c-0.5,0-1-0.2-1.4-0.6l-3.9-3.9
	c-0.4-0.4-0.6-0.9-0.6-1.4v-12.2c0-0.5,0.2-1,0.6-1.4l3.9-3.9c0.4-0.4,0.9-0.6,1.4-0.6h14.8c0.5,0,1,0.2,1.4,0.6l3.9,3.9
	c0.4,0.4,0.6,0.9,0.6,1.4v2c0,1.1,0.9,2,2,2h7.4c1.1,0,2-0.9,2-2v-6.9c0-0.5-0.2-1-0.6-1.4l-10.4-10.4c-0.4-0.4-0.9-0.6-1.4-0.6
	H73.9c-0.5,0-1,0.2-1.4,0.6L62,246.7c-0.4,0.4-0.6,0.9-0.6,1.4v21.8c0,0.5,0.2,1,0.6,1.4l10.4,10.4c0.4,0.4,0.9,0.6,1.4,0.6h19.6
	c0.5,0,1,0.2,1.4,0.6l3.9,3.9c0.4,0.4,0.6,0.9,0.6,1.4v14c0,0.5-0.2,1-0.6,1.4l-3.9,3.9c-0.4,0.4-0.9,0.6-1.4,0.6H78.7
	c-0.5,0-1-0.2-1.4-0.6l-3.9-3.9c-0.4-0.4-0.6-0.9-0.6-1.4v-2c0-1.1-0.9-2-2-2h-7.4c-1.1,0-2,0.9-2,2v6.9c0,0.5,0.2,1,0.6,1.4
	l10.4,10.4c0.4,0.4,0.9,0.6,1.4,0.6H98.4 M254.3,286c0.6,0,1-0.5,0.8-1.1l-8.6-37.2c-0.1-0.4-0.5-0.8-1-0.8h-4.3
	c-0.5,0-0.9,0.3-1,0.8l-8.9,37.2c-0.1,0.6,0.3,1.1,0.8,1.1H254.3z M265.8,319.5c-0.9,0-1.7-0.6-1.9-1.5l-5.3-20.1
	c-0.1-0.4-0.5-0.8-1-0.8h-28.7c-0.5,0-0.9,0.3-1,0.8l-5.3,20.1c-0.2,0.9-1,1.5-1.9,1.5h-7.6c-1.5,0-2.6-1.4-2.2-2.9l20.9-79.1
	c0.3-1,1.2-1.7,2.2-1.7h17.9c1,0,1.9,0.7,2.2,1.7l21,79.1c0.4,1.4-0.7,2.9-2.2,2.9H265.8 M385.6,221.5h-8.4c-0.5,0-1,0.3-1.3,0.8
	l-27.5,51.9c-0.3,0.6-0.3,1.4,0,2l27.5,51.9c0.3,0.5,0.8,0.8,1.3,0.8h8.4c1.1,0,1.8-1.2,1.3-2.2L360,276c-0.3-0.5-0.3-1.2,0-1.7
	l26.9-50.6C387.4,222.6,386.7,221.5,385.6,221.5 M431.1,221.5c-1.1,0-1.8,1.2-1.3,2.2l26.9,50.6c0.3,0.5,0.3,1.2,0,1.7l-26.9,50.6
	c-0.5,1,0.2,2.2,1.3,2.2h8.4c0.5,0,1-0.3,1.3-0.8l27.5-51.9c0.3-0.6,0.3-1.4,0-2l-27.5-51.9c-0.3-0.5-0.8-0.8-1.3-0.8H431.1
	 M429.1,247.1c0.3,0,0.6,0.2,0.7,0.4l5.1,9.5c0.3,0.6-0.1,1.2-0.7,1.2h-51.5c-0.6,0-1-0.7-0.7-1.2l5.1-9.5c0.1-0.3,0.4-0.4,0.7-0.4
	H429.1 M443.9,274.3c0.3,0.5,0.3,1.2,0,1.7l-2.3,4.3c-0.1,0.3-0.4,0.5-0.7,0.5h-65.2c-0.3,0-0.6-0.2-0.7-0.5l-2.3-4.3
	c-0.3-0.5-0.3-1.2,0-1.7l2.3-4.3c0.1-0.3,0.4-0.5,0.7-0.5h65.2c0.3,0,0.6,0.2,0.7,0.5L443.9,274.3 M387.6,303.3
	c-0.3,0-0.6-0.2-0.7-0.4l-5.1-9.5c-0.3-0.6,0.1-1.2,0.7-1.2h51.5c0.6,0,1,0.7,0.7,1.2l-5.1,9.5c-0.1,0.3-0.4,0.4-0.7,0.4H387.6
	 M311.8,288c0.2-0.6,0.7-0.6,1,0l14.8,29.7c0.6,1.3,1.3,1.8,2.4,1.8h8.1c1.6,0,2.8-1.7,1.9-3.3l-20.6-40c-0.4-0.6-0.5-1.1-0.1-1.7
	l18.8-35.4c0.8-1.7-0.4-3.4-1.9-3.4h-7.7c-1.1,0-1.7,0.5-2.3,1.8l-13.5,26c-0.2,0.6-0.7,0.6-1,0l-13.5-26c-0.6-1.3-1.2-1.8-2.3-1.8
	h-7.7c-1.6,0-2.8,1.7-1.9,3.4l18.8,35.4c0.4,0.6,0.2,1.1-0.1,1.7l-20.5,40c-0.8,1.7,0.4,3.3,1.9,3.3h7.9c1.1,0,1.9-0.5,2.5-1.8
	L311.8,288z M415.7,320.1c0.3-0.3,0.3-0.9,0-1.2l-6.7-6.7c-0.3-0.3-0.9-0.3-1.2,0l-6.7,6.7c-0.3,0.3-0.3,0.9,0,1.2l6.7,6.7
	c0.3,0.3,0.9,0.3,1.2,0L415.7,320.1"/>
</svg>
