<svg xmlns="http://www.w3.org/2000/svg" xmlns:xlink="http://www.w3.org/1999/xlink" viewBox="0 0 2488.4 413.91"><defs><style>.cls-1{fill:none;}.cls-2{clip-path:url(#clip-path);}.cls-3{fill:#273b7d;}.cls-4{fill:#499fdd;}.cls-5{clip-path:url(#clip-path-4);}</style><clipPath id="clip-path" transform="translate(0 -8.4)"><rect class="cls-1" width="2488.96" height="422.33"/></clipPath><clipPath id="clip-path-4" transform="translate(0 -8.4)"><rect class="cls-1" y="8.32" width="2488.43" height="413.46"/></clipPath></defs><g id="Layer_2" data-name="Layer 2"><g id="Layer_1-2" data-name="Layer 1"><g class="cls-2"><g class="cls-2"><path class="cls-3" d="M976,46.22a37.82,37.82,0,1,1,75.64,0,37.85,37.85,0,0,1-75.64,0" transform="translate(0 -8.4)"/><path class="cls-4" d="M1572.79,298.46a37.82,37.82,0,1,1,37.74,37.91,37.83,37.83,0,0,1-37.74-37.91" transform="translate(0 -8.4)"/><path class="cls-3" d="M355.33,282.06c-32.56,0-55.21-25.87-55.21-62.85s22.65-62.79,55.24-62.79S411,182.26,411,219.21C411,256.77,388.59,282.06,355.33,282.06Zm0-180.87c-68.9,0-118.92,49.65-118.92,118s50,118,118.92,118c69.19,0,119.39-49.62,119.39-118s-50.2-118-119.36-118m547.43,124a55.84,55.84,0,0,0-9-12.72l-2.11-2.19,2.21-2.11a94.64,94.64,0,0,0,9.51-11.87l60.84-90.4H890.39l-45.7,70.72q-3.87,5.69-15.62,5.69h-10.4V48.57C818.67,21.83,802,18.2,784,18.2H753.19l.08,315.56H818.7V239.1h6.13c7.46,0,12.51.87,14.86,4.92l36.08,68.11c10.09,18.49,20.12,21.63,39,21.63h50.13L927.58,272l-24.76-46.88m317.56-124.48c-33.29,0-54.52,14.81-66.42,27.32l-4,4-1.43-5.45c-3.47-13.41-15.27-20.76-33-20.76h-29.31l.18,227.91h65v-105a84.44,84.44,0,0,1,4-27.31c7.22-24.63,27.4-39.93,52.6-39.93,20.28,0,28.21,10.72,28.21,38.38V299c0,23.6,10.93,34.64,34.56,34.64h30.92l-.11-145c0-57.57-28.1-88-81.28-88m-205.73,5.16H983.86l.21,176.23v51.68h32.85l1.16.05,15.32-.05h15.23v-.08h.1l.14-193.19c0-23.31-11.14-34.61-34.19-34.61M610.52,282.06c-32.56,0-55.23-25.87-55.23-62.85s22.68-62.79,55.26-62.79,55.62,25.84,55.62,62.79c0,37.56-22.38,62.85-55.62,62.85Zm0-180.87c-68.95,0-119,49.65-119,118s50.05,118,119,118,119.39-49.62,119.39-118-50.31-118-119.39-118" transform="translate(0 -8.4)"/></g></g><g class="cls-2"><g class="cls-5"><g class="cls-2"><path class="cls-4" d="M2003.15,282.06c-32.55,0-55.26-25.87-55.26-62.85s22.71-62.79,55.26-62.79c32.71,0,55.65,25.84,55.65,62.79C2058.8,256.77,2036.42,282.06,2003.15,282.06Zm0-180.87c-69,0-119,49.65-119,118s50,118,119,118c69.11,0,119.39-49.62,119.39-118s-50.3-118-119.39-118" transform="translate(0 -8.4)"/><path class="cls-3" d="M1438.65,272c-35.53,0-48.18-31-48.18-60,0-12.8,3.24-54.5,44.78-54.5,20.62,0,48.09,5.9,48.09,56.63C1483.34,262,1459,272,1438.65,272Zm78.43-166.77c-12.33,0-21.81,4.92-26.57,13.9l-1.79,3.48-3-2.63c-10.48-9.06-29.28-19.84-59.81-19.84-60.76,0-101.67,45.65-101.67,113.52s42.33,115.26,102.88,115.26c20.68,0,37-4.85,50-14.65l5-3.76v6.32c0,30.45-19.68,47.25-55.37,47.25A131.08,131.08,0,0,1,1383,356c-13.75-4.16-21.86-.71-27.42,13.12l-5.16,12.74-7.29,18.65,4.5,2.4c22.86,12.11,52.6,19.36,79.46,19.36,55.31,0,120-28.32,120-108l.24-209h-30.22" transform="translate(0 -8.4)"/></g></g></g><g class="cls-2"><g class="cls-2"><path class="cls-3" d="M113.39,279.45,60.5,279.4V216.18c0-13.53,5.24-20.54,16.8-22.17h36.09c25.73,0,42.37,16.22,42.4,42.48,0,27-16.25,42.93-42.4,42.93ZM60.5,108.88V92.24c0-14.57,6.16-21.5,19.67-22.39h27.08c23.2,0,37.11,13.88,37.11,37.14,0,17.7-9.53,38.37-36.27,38.37H60.5ZM180.92,172l-9.56-5.37,8.35-7.14c9.72-8.35,26-27.13,26-59.53,0-49.62-38.46-81.64-98-81.64H32A33.18,33.18,0,0,0,0,51.07V332.63H109c66.19,0,108.91-36,108.91-91.85,0-30.05-13.8-55.73-37-68.79" transform="translate(0 -8.4)"/><path class="cls-4" d="M2412.76,101.43A89.55,89.55,0,0,0,2343,135.22l-4.69,5.95-3.69-6.66c-12.06-21.94-32.76-33.08-61.55-33.08-30.21,0-50.46,16.85-59.86,26.86l-6.17,6.67-2.37-8.77c-3.42-12.65-14.67-19.57-31.68-19.57h-27.32l-.26,227h62V233.44a111.91,111.91,0,0,1,3.29-26.55c5.92-24.23,22.2-50.28,49.57-47.68,16.85,1.64,25.12,14.67,25.12,39.85V333.65h62.48V233.44c0-11,1-19.21,3.5-27.42,5-23.13,22-46.83,48.41-46.83,19.12,0,26.18,10.8,26.18,39.87V300.47c0,22.91,10.22,33.18,33.16,33.18h29.18l.06-144.94c0-57.91-25.5-87.28-75.65-87.28M1848.23,254.82c-.18.24-26.87,28.37-62,28.37-32,0-64.37-19.65-64.37-63.5,0-37.88,25.08-64.35,61-64.35,11.65,0,24.92,4.16,27,11.2l.29,1.18a22.8,22.8,0,0,0,22.12,16.78l34,.05V154.84c0-39.19-49.86-53.41-83.39-53.41-71.74,0-123.79,49.94-123.79,118.73s51.47,118.63,122.48,118.63c61.58,0,95.08-40.48,95.39-40.88l1.79-2.21-26.91-44.64-3.56,3.76" transform="translate(0 -8.4)"/></g></g></g></g></svg>