<svg id="svg3769" xmlns="http://www.w3.org/2000/svg" width="118.6" height="20.1" viewBox="0 0 118.6 20.1"><style>.st0{fill:#9fa4a6}</style><path class="st0" d="M47.8.2c.7-.2 1.5.1 1.9.7.7.9.2 2.4-.9 2.7-1.1.4-2.4-.4-2.4-1.6 0-.8.6-1.6 1.4-1.8zM1.1.7c.7-.1 1.4 0 2.1 0 1.4 0 2.9-.2 4.3.4 1.2.4 2.2 1.6 2.3 2.9.2 1.3-.5 2.8-1.6 3.7.6.3 1.2.7 1.6 1.3 1 1.6.7 3.9-.7 5.2-1 .9-2.3 1.3-3.6 1.3H0V1.8C.2 1.3.6.8 1.1.7m1.8 3.2v2.8c.9-.1 1.8.1 2.7-.1 1.5-.4 1.7-2.7.4-3.3-.7-.3-1.5-.2-2.2-.2-.4 0-.9.3-.9.8m0 6V13c1.1 0 2.1.1 3.2-.1 1.5-.4 1.8-2.6.6-3.5-.8-.6-1.9-.4-2.9-.4-.5-.1-.9.4-.9.9zm33-9.3c.8 0 1.5-.1 2.3.1.6.1.8.8.8 1.4v6.3c.4 0 1 .1 1.3-.4.7-1.1 1.4-2.2 2.2-3.3H46c-1.2 1.6-2.2 3.4-3.4 4.9.5.6.8 1.3 1.2 1.9.7 1.4 1.6 2.6 2.3 3.9h-2.8c-.5 0-1-.3-1.3-.8-.7-1.1-1.2-2.3-1.9-3.4-.2-.4-.6-.2-1-.3v4.5h-3.2V.6zM15.4 4.7c1.8-.4 3.8-.1 5.2 1 1.7 1.3 2.4 3.8 1.9 5.9-.4 1.5-1.4 2.9-2.9 3.5-1.4.7-3.1.8-4.6.3-1.6-.5-2.9-1.8-3.4-3.4-.7-2-.2-4.5 1.4-6 .6-.6 1.4-1 2.4-1.3m.6 2.6c-2.2.8-2.3 4.3-.3 5.4 1.1.7 2.8.3 3.4-.9.7-1.2.6-2.8-.3-3.9-.7-.7-1.8-.9-2.8-.6zm11.6-2.6c1.8-.4 3.7-.1 5.1 1.1 2.3 1.8 2.6 5.5.9 7.8-1.3 1.8-3.7 2.5-5.8 2.1-1.7-.3-3.3-1.5-4-3.1-.8-2.2-.5-4.9 1.2-6.5.7-.7 1.7-1.2 2.6-1.4m.7 2.6c-2.2.7-2.4 4.3-.5 5.5 1.1.7 2.7.3 3.4-.7.7-1.1.7-2.6.1-3.7-.7-1-2-1.5-3-1.1zm28.8-2.7c1.2-.3 2.7-.1 3.7.7.8.8 1.2 2 1.2 3.1v7.2c-.8-.1-1.6.1-2.3-.2-.6-.2-.8-.8-.8-1.4V8.8c0-.5-.2-1.1-.7-1.4-1.1-.3-2.3.2-2.8 1.1-.3.6-.5 1.2-.5 1.9v5.1h-3.1V4.7c.7 0 1.3 0 2 .1.6.1.9.6 1 1.1.6-.6 1.4-1.1 2.3-1.3zm9 .2c1.6-.6 3.5-.4 4.8.7.6-1.1 1.9-.8 2.8-.8v10c0 1.2-.3 2.3-1.1 3.2-1.1 1.3-2.9 1.9-4.6 1.7-1.4.1-2.8-.2-4.1-.9.3-.7.5-1.4 1-2 .6-.4 1.2 0 1.8.1 1.1.2 2.3.3 3.2-.4.6-.5.7-1.2.7-1.9-1.9 1.4-4.9 1-6.3-.9-1.2-1.5-1.4-3.5-1-5.2.2-1.6 1.3-3 2.8-3.6m1.5 2.6c-.8.3-1.2 1-1.3 1.8-.1.9 0 2 .6 2.7.8 1 2.4 1.1 3.2.1.6-.7.6-1.7.5-2.6 0-.8-.4-1.6-1.1-2-.6-.2-1.3-.2-1.9 0zM46.8 4.8c.7 0 1.5-.1 2.2.1.7.1 1 .9 1 1.5v9.2h-3.1c0-3.6 0-7.2-.1-10.8zm33.8 1.4c1.6-1.6 4.2-2 6.3-1.3.8.3 1.6.8 1.9 1.6.1.7.1 1.4.1 2-.7 0-1.3.1-2-.1-.6-.2-.6-1-1.1-1.2-1.1-.4-2.4 0-3.1 1-.6.9-.7 2-.4 3 .4 1.2 1.7 1.9 2.9 1.9s2.3-.7 3.1-1.5c.4.7.8 1.4 1.3 2.1-2.1 2.6-6.5 2.8-8.9.5-2.2-2.1-2.2-5.9-.1-8zm13.5-1.5c1.9-.4 3.9 0 5.3 1.3 2.2 2 2.3 5.9.2 8.1-1.5 1.6-4 2-6.1 1.4-1.4-.4-2.7-1.5-3.3-2.9-.7-1.6-.7-3.6.2-5.2.7-1.4 2.2-2.4 3.7-2.7m.4 2.7c-2.1.8-2.2 4-.5 5.3 1.1.8 2.8.5 3.6-.6.8-1.2.7-2.9-.2-4-.8-.9-2-1.1-2.9-.7zm10.6-1.3c1-1.2 2.7-1.9 4.2-1.4.9.2 1.6.9 2 1.7 1.3-1.7 3.9-2.4 5.7-1.3 1.1.7 1.4 2.2 1.5 3.4v7.1c-.8 0-1.6.1-2.4-.2-.5-.2-.7-.8-.7-1.4V9c0-.5 0-1.1-.4-1.5-.6-.4-1.4-.3-2 .1-.9.7-1.3 1.9-1.3 3v4.9h-3V9.3c0-.6-.1-1.4-.5-1.8-.6-.5-1.5-.3-2.1.2-.9.8-1.1 2.1-1.1 3.2v4.5h-2.9V4.6c.7 0 1.5-.1 2.2.2.6.4.7.9.8 1.3zm-28.9 6.1c1.1-.3 2.3.6 2.3 1.7s-1 2-2.1 1.8c-1-.1-1.8-1.2-1.6-2.2.2-.6.8-1.2 1.4-1.3z"/></svg>