<svg width="111" height="19" viewBox="0 0 111 19" fill="none" xmlns="http://www.w3.org/2000/svg">
<g style="mix-blend-mode:multiply">
<path d="M44.6975 0.0601242C45.3473 -0.134754 46.0899 0.157563 46.4612 0.742196C47.111 1.61915 46.6468 3.08073 45.6257 3.37305C44.6047 3.7628 43.3979 2.98329 43.3979 1.81402C43.3979 1.03451 43.9549 0.255002 44.6975 0.0601242ZM1.34727 0.547319C1.99706 0.44988 2.64685 0.547319 3.29664 0.547319C4.59621 0.547319 5.98862 0.352441 7.2882 0.937074C8.40212 1.32683 9.33039 2.4961 9.42322 3.7628C9.60887 5.02951 8.95908 6.49109 7.93799 7.36804C8.49495 7.66036 9.05191 8.05011 9.42322 8.63475C10.3515 10.1938 10.073 12.4349 8.77343 13.7016C7.84516 14.5785 6.63841 14.9683 5.43166 14.9683H0.326172V1.61915C0.511826 1.13195 0.883134 0.644757 1.34727 0.547319ZM3.01816 3.66536V6.39365C3.8536 6.29621 4.68904 6.49109 5.52448 6.29621C6.91689 5.90646 7.10254 3.66536 5.89579 3.08073C5.246 2.78841 4.50339 2.88585 3.8536 2.88585C3.48229 2.88585 3.01816 3.17817 3.01816 3.66536ZM3.01816 9.51169V12.5323C4.03925 12.5323 4.96752 12.6297 5.98862 12.4349C7.38102 12.0451 7.6595 9.90145 6.54558 9.0245C5.80297 8.43987 4.78187 8.63475 3.8536 8.63475C3.38946 8.53731 3.01816 9.0245 3.01816 9.51169ZM33.6511 0.44988C34.3937 0.44988 35.0435 0.352441 35.7861 0.547319C36.3431 0.644757 36.5287 1.32683 36.5287 1.91146V8.05011C36.9 8.05011 37.457 8.14755 37.7355 7.66036C38.3852 6.58853 39.035 5.5167 39.7776 4.44487H43.0266C41.9127 6.0039 40.9844 7.7578 39.8705 9.21938C40.3346 9.80401 40.6131 10.4861 40.9844 11.0707C41.6342 12.4349 42.4696 13.6041 43.1194 14.8708H40.5203C40.0561 14.8708 39.592 14.5785 39.3135 14.0913C38.6637 13.0195 38.1996 11.8502 37.5498 10.7784C37.3641 10.3886 36.9928 10.5835 36.6215 10.4861V14.8708H33.6511V0.44988ZM14.6215 4.44487C16.2924 4.05512 18.149 4.34743 19.4485 5.41926C21.0266 6.68597 21.6764 9.12194 21.2122 11.1682C20.8409 12.6297 19.9127 13.9939 18.5203 14.5785C17.2207 15.2606 15.6426 15.358 14.2502 14.8708C12.765 14.3836 11.5582 13.1169 11.0941 11.5579C10.4443 9.60913 10.9085 7.17316 12.3937 5.71158C12.9506 5.12695 13.6933 4.73719 14.6215 4.44487ZM15.1785 6.97828C13.1363 7.7578 13.0435 11.1682 14.9 12.24C15.9211 12.9221 17.4992 12.5323 18.0561 11.363C18.7059 10.1938 18.6131 8.63475 17.7776 7.56292C17.1279 6.88085 16.1068 6.68597 15.1785 6.97828ZM25.9464 4.44487C27.6173 4.05512 29.381 4.34743 30.6806 5.5167C32.8156 7.2706 33.0941 10.8758 31.516 13.1169C30.3093 14.8708 28.0814 15.5529 26.1321 15.1632C24.554 14.8708 23.0688 13.7016 22.419 12.1425C21.6764 9.99889 21.9549 7.36804 23.5329 5.80902C24.1827 5.12695 25.111 4.63975 25.9464 4.44487ZM26.5962 6.97828C24.554 7.66036 24.3684 11.1682 26.1321 12.3374C27.1532 13.0195 28.6384 12.6297 29.2882 11.6554C29.938 10.5835 29.938 9.12194 29.381 8.05011C28.7312 7.07572 27.5245 6.58853 26.5962 6.97828ZM53.3304 4.34743C54.4443 4.05512 55.8367 4.25 56.765 5.02951C57.5076 5.80902 57.8789 6.97828 57.8789 8.05011V15.0657C57.1363 14.9683 56.3937 15.1631 55.7439 14.8708C55.1869 14.676 55.0013 14.0913 55.0013 13.5067V8.43987C55.0013 7.95267 54.8156 7.36804 54.3515 7.07572C53.3304 6.78341 52.2165 7.2706 51.7523 8.14755C51.4739 8.73218 51.2882 9.31682 51.2882 9.99889V14.9683H48.4106V4.44487C49.0603 4.44487 49.6173 4.44487 50.2671 4.54231C50.8241 4.63975 51.1025 5.12695 51.1954 5.61414C51.7523 5.02951 52.4949 4.54231 53.3304 4.34743ZM61.6848 4.54231C63.1701 3.95768 64.9338 4.15256 66.1405 5.22438C66.6975 4.15256 67.9042 4.44487 68.7397 4.44487V14.1888C68.7397 15.358 68.4612 16.4299 67.7186 17.3068C66.6975 18.5735 65.0266 19.1581 63.4485 18.9633C62.149 19.0607 60.8494 18.7684 59.6426 18.0863C59.9211 17.4042 60.1068 16.7222 60.5709 16.1375C61.1279 15.7478 61.6848 16.1375 62.2418 16.235C63.2629 16.4299 64.3768 16.5273 65.2122 15.8452C65.7692 15.358 65.862 14.676 65.862 13.9939C64.0983 15.358 61.3135 14.9683 60.0139 13.1169C58.9 11.6554 58.7144 9.70657 59.0857 8.05011C59.2713 6.49109 60.2924 5.12695 61.6848 4.54231ZM63.0772 7.07572C62.3346 7.36804 61.9633 8.05011 61.8705 8.82962C61.7777 9.70657 61.8705 10.7784 62.4274 11.4605C63.1701 12.4349 64.6553 12.5323 65.3979 11.5579C65.9549 10.8758 65.9549 9.90145 65.862 9.0245C65.862 8.24499 65.4907 7.46548 64.8409 7.07572C64.284 6.88085 63.6342 6.88085 63.0772 7.07572ZM43.7692 4.54231C44.419 4.54231 45.1616 4.44487 45.8114 4.63975C46.4612 4.73719 46.7397 5.5167 46.7397 6.10133V15.0657H43.862C43.862 11.5579 43.862 8.05011 43.7692 4.54231ZM75.1447 5.90646C76.63 4.34743 79.0435 3.95768 80.9928 4.63975C81.7355 4.93207 82.4781 5.41926 82.7566 6.19877C82.8494 6.88085 82.8494 7.56292 82.8494 8.14755C82.1996 8.14755 81.6426 8.24499 80.9928 8.05011C80.4359 7.85523 80.4359 7.07572 79.9717 6.88085C78.9506 6.49109 77.7439 6.88085 77.0941 7.85523C76.5371 8.73218 76.4443 9.80401 76.7228 10.7784C77.0941 11.9477 78.3008 12.6297 79.4148 12.6297C80.5287 12.6297 81.5498 11.9477 82.2924 11.1682C82.6637 11.8502 83.035 12.5323 83.4992 13.2144C81.5498 15.7478 77.4654 15.9427 75.2376 13.7016C73.1954 11.6554 73.1954 7.95267 75.1447 5.90646ZM87.6764 4.44487C89.4401 4.05512 91.2966 4.44487 92.5962 5.71158C94.6384 7.66036 94.7312 11.4605 92.7819 13.6041C91.3895 15.1632 89.0688 15.5529 87.1194 14.9683C85.8198 14.5785 84.6131 13.5067 84.0561 12.1425C83.4063 10.5835 83.4063 8.63475 84.2418 7.07572C84.8916 5.71158 86.284 4.73719 87.6764 4.44487ZM88.0477 7.07572C86.0983 7.85523 86.0055 10.9733 87.5836 12.24C88.6047 13.0195 90.1827 12.7272 90.9253 11.6554C91.6679 10.4861 91.5751 8.82962 90.7397 7.7578C89.9971 6.88085 88.8831 6.68597 88.0477 7.07572ZM97.8874 5.80902C98.8156 4.63975 100.394 3.95768 101.786 4.44487C102.622 4.63975 103.271 5.32182 103.643 6.10133C104.849 4.44487 107.263 3.7628 108.934 4.83463C109.955 5.5167 110.233 6.97828 110.326 8.14755V15.0657C109.584 15.0657 108.841 15.1631 108.098 14.8708C107.634 14.676 107.449 14.0913 107.449 13.5067V8.63475C107.449 8.14755 107.449 7.56292 107.077 7.17316C106.52 6.78341 105.778 6.88085 105.221 7.2706C104.385 7.95267 104.014 9.12194 104.014 10.1938V14.9683H101.229V8.92706C101.229 8.34243 101.136 7.56292 100.765 7.17316C100.208 6.68597 99.3726 6.88085 98.8156 7.36804C97.9802 8.14755 97.7945 9.41426 97.7945 10.4861V14.8708H95.1025V4.34743C95.7523 4.34743 96.4949 4.25 97.1447 4.54231C97.7017 4.93207 97.7945 5.41926 97.8874 5.80902ZM71.0603 11.7528C72.0814 11.4605 73.1954 12.3374 73.1954 13.4093C73.1954 14.4811 72.2671 15.358 71.246 15.1632C70.3177 15.0657 69.5751 13.9939 69.7608 13.0195C69.9464 12.4349 70.5034 11.8502 71.0603 11.7528Z" fill="#7F8184"/>
</g>
</svg>
