<svg width="138" height="46" viewBox="0 0 138 46" fill="none" xmlns="http://www.w3.org/2000/svg">
<g clip-path="url(#clip0_27910_11653)">
<path d="M128.21 14.348L120.63 12.5883L119.276 12.0469L84.4883 12.3176V29.1024L128.21 29.2378V14.348Z" fill="white"/>
<path d="M113.992 27.6138C114.21 27.0373 114.287 26.417 114.216 25.8048C114.146 25.1926 113.93 24.6062 113.586 24.0944C113.234 23.6715 112.801 23.3224 112.313 23.0669C111.826 22.8114 111.292 22.6546 110.744 22.6054L87.1908 22.3347C87.0554 22.3347 86.9201 22.1993 86.7847 22.1993C86.7532 22.1757 86.7276 22.145 86.71 22.1098C86.6924 22.0746 86.6832 22.0357 86.6832 21.9963C86.6832 21.9569 86.6924 21.918 86.71 21.8828C86.7276 21.8475 86.7532 21.8169 86.7847 21.7932C86.9201 21.5225 87.0554 21.3872 87.3262 21.3872L111.014 21.1164C112.518 20.9495 113.951 20.385 115.164 19.481C116.377 18.5769 117.328 17.366 117.918 15.9727L119.272 12.4533C119.272 12.3179 119.407 12.1826 119.272 12.0472C118.536 8.76931 116.75 5.82125 114.185 3.65099C111.621 1.48073 108.418 0.206921 105.064 0.0231156C101.709 -0.16069 98.3866 0.75556 95.6004 2.63264C92.8142 4.50972 90.717 7.24501 89.6273 10.4229C88.2127 9.41257 86.4873 8.93328 84.7543 9.06925C83.1639 9.24658 81.6811 9.9596 80.5496 11.0912C79.418 12.2227 78.705 13.7055 78.5277 15.2959C78.4375 16.1099 78.4833 16.9333 78.663 17.7324C76.0897 17.8035 73.6457 18.8759 71.8509 20.7213C70.056 22.5667 69.052 25.0395 69.0523 27.6138C69.0301 28.114 69.0757 28.6148 69.1877 29.1028C69.1939 29.2084 69.2387 29.3082 69.3136 29.383C69.3884 29.4579 69.4881 29.5026 69.5938 29.5089H113.045C113.316 29.5089 113.586 29.3735 113.586 29.1028L113.992 27.6138Z" fill="#F48120"/>
<path d="M121.444 12.4536H120.767C120.632 12.4536 120.496 12.589 120.361 12.7243L119.413 15.973C119.196 16.5495 119.119 17.1698 119.189 17.782C119.26 18.3942 119.476 18.9807 119.819 19.4924C120.172 19.9153 120.605 20.2644 121.093 20.5199C121.58 20.7754 122.114 20.9322 122.662 20.9814L127.67 21.2521C127.806 21.2521 127.941 21.3875 128.077 21.3875C128.108 21.4111 128.134 21.4418 128.151 21.477C128.169 21.5123 128.178 21.5511 128.178 21.5905C128.178 21.6299 128.169 21.6688 128.151 21.704C128.134 21.7393 128.108 21.7699 128.077 21.7936C127.941 22.0643 127.806 22.1997 127.535 22.1997L122.391 22.4704C120.887 22.6373 119.455 23.2018 118.242 24.1058C117.029 25.0099 116.078 26.2208 115.488 27.6141L115.217 28.8324C115.082 28.9677 115.217 29.2385 115.488 29.2385H133.356C133.411 29.2463 133.467 29.2413 133.52 29.2236C133.573 29.206 133.621 29.1763 133.66 29.1369C133.7 29.0975 133.729 29.0495 133.747 28.9966C133.765 28.9438 133.77 28.8875 133.762 28.8324C134.084 27.6855 134.266 26.5037 134.303 25.313C134.282 21.9091 132.92 18.6507 130.513 16.2437C128.106 13.8368 124.848 12.4751 121.444 12.4536Z" fill="#FAAD3F"/>
<path d="M136.058 36.818C135.817 36.818 135.582 36.7466 135.381 36.6127C135.181 36.4788 135.025 36.2886 134.933 36.066C134.84 35.8433 134.816 35.5984 134.863 35.3621C134.91 35.1258 135.026 34.9087 135.197 34.7383C135.367 34.5679 135.584 34.4519 135.82 34.4049C136.057 34.3579 136.302 34.382 136.524 34.4742C136.747 34.5664 136.937 34.7226 137.071 34.9229C137.205 35.1233 137.276 35.3588 137.276 35.5997C137.277 35.7599 137.246 35.9186 137.185 36.0667C137.124 36.2149 137.034 36.3494 136.921 36.4627C136.808 36.5759 136.673 36.6656 136.525 36.7266C136.377 36.7876 136.218 36.8187 136.058 36.818ZM136.058 34.6522C135.871 34.6522 135.687 34.7078 135.532 34.8119C135.376 34.916 135.254 35.064 135.183 35.2371C135.111 35.4103 135.092 35.6008 135.129 35.7846C135.165 35.9684 135.256 36.1372 135.388 36.2698C135.521 36.4023 135.689 36.4925 135.873 36.5291C136.057 36.5656 136.248 36.5469 136.421 36.4752C136.594 36.4034 136.742 36.282 136.846 36.1262C136.95 35.9703 137.006 35.7872 137.006 35.5997C137.009 35.4745 136.986 35.3499 136.94 35.2336C136.893 35.1172 136.823 35.0115 136.735 34.9229C136.646 34.8343 136.541 34.7647 136.424 34.7181C136.308 34.6716 136.183 34.6492 136.058 34.6522ZM136.6 36.2766H136.329L136.058 35.8705H135.787V36.2766H135.517V35.0583H136.193C136.249 35.0504 136.305 35.0555 136.358 35.0731C136.411 35.0907 136.459 35.1204 136.498 35.1598C136.537 35.1992 136.567 35.2473 136.585 35.3001C136.602 35.353 136.607 35.4092 136.6 35.4644C136.6 35.5997 136.464 35.7351 136.329 35.8705L136.6 36.2766ZM136.193 35.5997C136.329 35.5997 136.329 35.5997 136.329 35.4644C136.329 35.4465 136.326 35.4287 136.319 35.4121C136.313 35.3955 136.303 35.3805 136.29 35.3678C136.277 35.3552 136.262 35.3452 136.246 35.3386C136.229 35.3319 136.211 35.3286 136.193 35.329H135.787V35.7351H136.193V35.5997ZM14.774 34.3815H17.752V42.5032H22.8957V45.0751H14.774V34.3815ZM26.0091 39.6606C26.0091 38.9087 26.1618 38.1646 26.4578 37.4735C26.7538 36.7823 27.187 36.1584 27.7311 35.6395C28.2753 35.1207 28.9191 34.7177 29.6236 34.4549C30.3281 34.1921 31.0786 34.075 31.8296 34.1108C32.5736 34.0773 33.3166 34.1968 34.0126 34.4621C34.7085 34.7274 35.3426 35.1327 35.8756 35.653C36.4085 36.1732 36.829 36.7974 37.111 37.4867C37.3929 38.1761 37.5304 38.916 37.5148 39.6606C37.5147 40.4125 37.3621 41.1565 37.0661 41.8477C36.7701 42.5389 36.3369 43.1628 35.7927 43.6817C35.2485 44.2005 34.6047 44.6035 33.9002 44.8663C33.1958 45.1291 32.4453 45.2462 31.6942 45.2104C30.9531 45.2325 30.2151 45.105 29.5243 44.8356C28.8335 44.5662 28.204 44.1604 27.6734 43.6425C27.1428 43.1245 26.722 42.505 26.4361 41.8209C26.1501 41.1368 26.0049 40.4021 26.0091 39.6606ZM34.5368 39.6606C34.5634 39.2853 34.5135 38.9086 34.3904 38.5532C34.2672 38.1977 34.0732 37.871 33.8201 37.5926C33.5671 37.3143 33.2602 37.0901 32.9181 36.9337C32.576 36.7773 32.2057 36.6919 31.8296 36.6826C31.0997 36.7183 30.4115 37.0333 29.9075 37.5625C29.4035 38.0917 29.1224 38.7945 29.1224 39.5252C29.1224 40.256 29.4035 40.9588 29.9075 41.488C30.4115 42.0172 31.0997 42.3322 31.8296 42.3678C33.4539 42.6386 34.5368 41.2849 34.5368 39.6606ZM41.1696 40.3374V34.3815H44.1475V40.3374C44.1475 41.8264 44.9597 42.6386 46.1779 42.6386C46.4625 42.6622 46.7486 42.6212 47.0151 42.5187C47.2816 42.4162 47.5214 42.2547 47.7166 42.0464C47.9119 41.8381 48.0576 41.5884 48.1427 41.3159C48.2279 41.0434 48.2503 40.7552 48.2084 40.4728V34.3815H51.1863V40.3374C51.1863 43.8568 49.1559 45.3458 46.1779 45.3458C43.0646 45.2104 41.1696 43.7214 41.1696 40.3374ZM55.6533 34.3815H59.8495C63.6396 34.3815 65.9407 36.5473 65.9407 39.6606C65.9407 42.7739 63.6396 45.0751 59.8495 45.0751H55.7886V34.3815H55.6533ZM59.8495 42.3678C60.2267 42.4038 60.6072 42.3606 60.9668 42.2409C61.3263 42.1213 61.6569 41.9278 61.9372 41.6729C62.2176 41.418 62.4416 41.1073 62.5949 40.7608C62.7482 40.4143 62.8274 40.0395 62.8274 39.6606C62.8274 39.2817 62.7482 38.9069 62.5949 38.5604C62.4416 38.2139 62.2176 37.9032 61.9372 37.6483C61.6569 37.3934 61.3263 37.1999 60.9668 37.0803C60.6072 36.9606 60.2267 36.9174 59.8495 36.9534H58.6312V42.3678H59.8495ZM70.137 34.3815H78.6647V36.9534H73.1149V38.7131H78.1233V41.1496H73.1149V45.0751H70.137V34.3815ZM82.8609 34.3815H85.8389V42.5032H90.9826V45.0751H82.8609V34.3815ZM98.6983 34.2461H101.676L106.279 45.0751H103.03L102.218 43.18H98.0214L97.2093 45.0751H94.096L98.6983 34.2461ZM101.405 40.8789L100.187 37.9009L98.969 40.8789H101.405ZM110.069 34.3815H115.077C115.716 34.3296 116.359 34.4112 116.965 34.6209C117.571 34.8306 118.126 35.1639 118.596 35.5997C118.984 36.0179 119.266 36.5233 119.417 37.0732C119.568 37.6231 119.585 38.2014 119.465 38.759C119.346 39.3167 119.094 39.8374 118.73 40.277C118.367 40.7167 117.903 41.0624 117.378 41.2849L119.95 45.0751H116.566L114.4 41.8264H113.047V45.0751H110.069V34.3815ZM114.942 39.5252C115.889 39.5252 116.566 38.9838 116.566 38.307C116.566 37.4948 115.889 37.0887 114.942 37.0887H113.047V39.6606H114.942V39.5252ZM123.74 34.3815H132.403V36.818H126.718V38.4423H131.862V40.8789H126.718V42.5032H132.539V45.0751H123.74V34.3815ZM8.27668 41.0142C8.07253 41.4926 7.73329 41.901 7.30053 42.1895C6.86777 42.4781 6.36027 42.6341 5.84017 42.6386C5.11026 42.6029 4.42202 42.2879 3.91803 41.7587C3.41405 41.2295 3.13294 40.5267 3.13294 39.796C3.13294 39.0652 3.41405 38.3624 3.91803 37.8332C4.42202 37.304 5.11026 36.989 5.84017 36.9534C6.39374 36.964 6.93212 37.1362 7.38907 37.4489C7.84602 37.7615 8.2016 38.2009 8.41204 38.7131H11.5254C11.259 37.4164 10.5417 36.2562 9.50089 35.4384C8.46003 34.6205 7.163 34.1981 5.84017 34.2461C5.09192 34.2218 4.34632 34.3467 3.64687 34.6136C2.94742 34.8805 2.30814 35.2841 1.76631 35.8007C1.22449 36.3173 0.790987 36.9367 0.491094 37.6226C0.1912 38.3086 0.0309241 39.0474 0.0196184 39.796C0.0154518 40.5374 0.160676 41.2721 0.446628 41.9563C0.73258 42.6404 1.1534 43.2599 1.68398 43.7778C2.21456 44.2958 2.84404 44.7016 3.53485 44.9709C4.22566 45.2403 4.96366 45.3678 5.70481 45.3458C6.99813 45.3545 8.25783 44.934 9.2866 44.1502C10.3154 43.3664 11.0551 42.2635 11.39 41.0142H8.27668Z" fill="#404041"/>
</g>
<defs>
<clipPath id="clip0_27910_11653">
<rect width="137.257" height="45.3462" fill="white" transform="translate(0.0195312)"/>
</clipPath>
</defs>
</svg>
