<svg xmlns="http://www.w3.org/2000/svg" viewBox="0 0 2500 421.66"><defs><style>.cls-1{fill:#0080ff;}</style></defs><g id="Layer_2" data-name="Layer 2"><g id="Layer_1-2" data-name="Layer 1"><path class="cls-1" d="M210,421.66v-82c87,0,154.07-85.75,120.53-176.49a122.26,122.26,0,0,0-73.3-73.31A129.59,129.59,0,0,0,82,210.36H0C0,73.63,133-34.5,278.32,10.26a203.18,203.18,0,0,1,133,133C456,288.68,347.9,421.66,210,421.66Z"/><path class="cls-1" d="M211.23,339.62h-82V258.84h82M129.22,403H67.09v-63.4h62.13V403m-62.13-63.4H15V287.43H67.09M749.25,122.11c-23.6-16.17-54.66-25-89.47-25H584V339.52h75.8q52.19,0,89.47-26.09a95.12,95.12,0,0,0,31.06-38.53c7.48-16.16,11.18-36,11.18-57.18s-3.72-41-11.18-55.94c-7.49-18.54-17.42-31-31.09-39.67ZM628.74,138.28h23.61c26.09,0,48.45,5,65.84,16.16,18.64,11.18,27.44,32.44,27.44,63.4s-10,53.45-27.44,65.87c-16.14,10-37.28,16.17-64.62,16.17H628.74V138.28m216.2-44.74A25.24,25.24,0,0,0,826.3,101a22.44,22.44,0,0,0-8.71,18.63,26.1,26.1,0,1,0,52.2,0A25.29,25.29,0,0,0,862.3,101c-3.72-5-10-7.49-17.46-7.49m-22.46,74.58h43.49V338.4H822.55V168.12m198.81,15c-12.48-11.18-27.45-18.64-43.49-18.64a76.87,76.87,0,0,0-58.41,25,86.54,86.54,0,0,0-23.6,60.9c0,23.63,7.48,44.74,22.45,60.91s34.78,23.62,58.41,23.62A68.75,68.75,0,0,0,1019,321.16v3.72c0,13.67-3.72,24.95-11.18,32.43s-17.46,11.18-31.06,11.18c-20,0-32.31-7.48-47.2-28.59l-29.94,28.59,1.24,1.25c6.22,8.71,16.15,17.46,28.57,26.1S958,408.31,976.6,408.31c26.09,0,46-7.48,60.87-23.63s23.61-36.05,23.61-62.15V168.12h-42.19v15h2.49M1010.2,283.76c-7.48,8.71-17.46,12.48-29.94,12.48s-22.45-3.72-29.94-12.48-11.17-20-11.17-33.56,4-24.92,11.45-33.63,17.46-12.48,29.94-12.48,22.45,3.72,29.94,12.48,11.18,20,11.18,33.56-3.72,24.95-11.18,33.56m90.69-115.6h43.49V338.38H1100.9V168.12M1122,93.54a25.48,25.48,0,0,0-26.1,24.84q0,.63,0,1.26a26.1,26.1,0,0,0,52.2,0,25.47,25.47,0,0,0-24.84-26.1c-.42,0-.85,0-1.28,0m115.51,28.57h-42.19v46h-24.95v38.52h24.95V277.5c0,22.45,5,38.52,13.68,47.23s25,13.67,46,13.67a119.47,119.47,0,0,0,21.13-1.25h2.5V298.61l-15,1.24c-10,0-17.47-1.24-20-5-3.72-3.71-5-11.17-5-22.45V207.89h39.77V169.34h-39.65l-1.3-47.23m241-25h43.49V339.52h-43.44V97.31m477.14,181.46a143.58,143.58,0,0,1-21.13,20,42.92,42.92,0,0,1-22.45,6.21,42.41,42.41,0,0,1-30.94-13.79c-8.71-10-12.48-21.14-12.48-36.06s3.72-26.1,12.48-36.05a38.18,38.18,0,0,1,31.06-13.67c13.67,0,28.57,8.7,41,23.62l28.57-27.44c-18.64-23.63-42.24-34.81-70.83-34.81-23.6,0-43.49,8.71-60.88,26.1a90.34,90.34,0,0,0-25,63.4c0,24.95,8.71,47.23,25,63.4a80.84,80.84,0,0,0,60.88,26.1c31.06,0,55.91-13.68,73.3-38.53l-28.57-28.59M2131,192.87a65.36,65.36,0,0,0-24.95-20,81,81,0,0,0-36-7.49c-23.6,0-43.48,8.71-58.4,26.1a99.81,99.81,0,0,0-21.14,63.4c0,26.1,7.49,47.23,23.61,63.4s36,24.95,62.12,24.95c28.57,0,52.2-11.18,70.84-34.81l1.24-1.25-28.56-27.44c-2.5,3.72-6.22,6.21-10,10a38,38,0,0,1-12.48,8.71,40.87,40.87,0,0,1-21.13,5,47.92,47.92,0,0,1-29.94-10c-7.49-6.22-11.18-15-12.48-26.1H2148V251.2a92.6,92.6,0,0,0-5-32.43,56.23,56.23,0,0,0-12.47-26.1m-92.77,40.07a44.1,44.1,0,0,1,11.18-20,29.94,29.94,0,0,1,22.46-8.71c10,0,18.64,2.49,23.6,8.71,5,5,7.49,12.47,8.71,20h-65.95m258.46-51c-12.47-11.17-31.06-16.16-53.42-16.16a108.69,108.69,0,0,0-39.72,8.73c-11.17,6.21-22.45,15-28.56,27.44l27.44,26.1c11.18-18.64,23.6-25,41-25a34.73,34.73,0,0,1,22.46,7.49,22.47,22.47,0,0,1,8.71,18.63v8.71a95.4,95.4,0,0,0-31.07-5q-31.68,0-52.19,15c-13.67,10-20,25-20,42.27,0,16.17,5,28.59,16.14,38.52s24.95,13.67,41,13.67,31.07-6.21,46-17.46V338.4h42.24V229c0-20-6.22-36.05-20-47.23m-75.8,92c5-3.72,11.18-5,20-5a105.48,105.48,0,0,1,32.31,6.21v16.17a55,55,0,0,1-37.28,13.67c-7.48,0-13.67-1.25-17.46-5s-6.21-7.49-6.21-12.48a20.39,20.39,0,0,1,8.7-13.67m260.83-89.42c-12.47-13.67-28.57-20-49.7-20q-26.1,0-41,15v-10H2348.4V339.57h43.49V245.16c0-12.47,2.5-23.63,8.71-31.06a31.29,31.29,0,0,1,25-11.18,27.29,27.29,0,0,1,22.45,10,44.89,44.89,0,0,1,8.71,27.45v99.42H2500V240.2q-1.87-35.43-18.64-55.94m-1056.16-2.5c-12.48-11.17-31.06-16.16-53.42-16.16a108.67,108.67,0,0,0-39.77,8.7c-11.18,6.22-22.45,15-28.57,27.45l27.45,26.1c11.18-18.64,23.6-24.95,41-24.95a34.68,34.68,0,0,1,22.46,7.48A22.44,22.44,0,0,1,1403,229v8.71a95,95,0,0,0-31.06-5q-31.68,0-52.19,15c-13.68,10-20,25-20,42.26,0,16.17,5,28.6,16.14,38.53s25,13.67,41,13.67,31.06-6.21,46-17.47v13.68h42.24V229c0-20-7.48-36.05-20-47.23m-77,92c5-3.72,11.18-5,20-5a105.48,105.48,0,0,1,32.31,6.21v16.17a55,55,0,0,1-37.28,13.67c-7.48,0-13.67-1.25-17.46-5s-6.21-7.49-6.21-12.48a37,37,0,0,1,8.7-13.67m329.34,69.61A124.3,124.3,0,1,1,1801.8,218.94V219a124.75,124.75,0,0,1-124.26,124.3m0-206.31a80.79,80.79,0,1,0,80.67,80.91v-.07A80.62,80.62,0,0,0,1677.77,137h-.32"/></g></g></svg>