<svg width="65" height="26" viewBox="0 0 65 26" fill="none" xmlns="http://www.w3.org/2000/svg">
<g style="mix-blend-mode:multiply">
<path d="M8.65991 5.62695C4.1279 5.62695 0.326172 7.56004 0.326172 13.3593C0.326172 17.9557 2.86066 20.8553 8.7673 20.8553C15.7049 20.8768 16.156 16.3019 16.156 16.3019H12.7838C12.7838 16.3019 12.0535 18.7719 8.55251 18.7719C5.69585 18.7719 3.63389 16.8388 3.63389 14.1325H16.4996V12.4357C16.4996 9.75086 14.8028 5.62695 8.65991 5.62695ZM8.53103 7.7963C11.2588 7.7963 13.106 9.47164 13.106 11.9632H3.71981C3.71981 9.32129 6.1469 7.7963 8.53103 7.7963Z" fill="#7F8184"/>
<path d="M16.4997 0V17.9562C16.4997 18.9657 16.4353 20.4048 16.4353 20.4048H19.6356C19.6356 20.4048 19.743 19.3738 19.743 18.4287C19.743 18.4287 21.3324 20.8988 25.6497 20.8988C30.1817 20.8988 33.2746 17.7414 33.2746 13.2309C33.2746 9.02105 30.4394 5.6489 25.6497 5.6489C21.1606 5.6489 19.786 8.07599 19.786 8.07599V0H16.4997ZM24.8335 7.90416C27.9264 7.90416 29.881 10.2024 29.881 13.2524C29.881 16.5386 27.6257 18.7079 24.855 18.7079C21.5687 18.7079 19.786 16.1305 19.786 13.2953C19.786 10.632 21.3754 7.90416 24.8335 7.90416Z" fill="#7F8184"/>
<path d="M41.2444 5.62695C34.4141 5.62695 33.9631 9.36425 33.9631 9.96565H37.3567C37.3567 9.96565 37.5286 7.77482 40.9866 7.77482C43.2419 7.77482 44.9817 8.8058 44.9817 10.7818V11.4906H40.9866C35.7029 11.4906 32.8892 13.0371 32.8892 16.173C32.8892 19.2659 35.4666 20.9413 38.9676 20.9413C43.7359 20.9413 45.2609 18.2994 45.2609 18.2994C45.2609 19.3518 45.3468 20.3828 45.3468 20.3828H48.4183C48.4183 20.3828 48.3109 19.0941 48.3109 18.2779V11.2329C48.2894 6.61497 44.5521 5.62695 41.2444 5.62695ZM45.0031 13.5955V14.5406C45.0031 15.7649 44.2514 18.8149 39.8053 18.8149C37.3782 18.8149 36.3258 17.5906 36.3258 16.1945C36.3258 13.617 39.8483 13.5955 45.0031 13.5955Z" fill="#7F8184"/>
<path d="M46.4634 6.20703H50.2866L55.7851 17.2041L61.2622 6.20703H64.7203L54.7327 25.7956H51.1028L53.9809 20.34L46.4634 6.20703Z" fill="#7F8184"/>
</g>
</svg>
