<svg width="225" height="22" viewBox="0 0 225 22" fill="none" xmlns="http://www.w3.org/2000/svg" style="margin-top: 2px;">
<path d="M15.1175 8.83819C14.9472 13.0833 11.6682 16.4187 7.53747 16.4187C3.19385 16.4187 0 12.8667 0 8.53497C0 4.20324 3.49194 0.60791 7.7504 0.60791C9.6667 0.60791 11.5404 1.43094 13.1586 2.94704L11.9237 4.50646C10.6887 3.42353 9.24085 2.68713 7.79297 2.68713C4.6843 2.68713 2.12923 5.28617 2.12923 8.49165C2.12923 11.7404 4.55655 14.2529 7.62264 14.2529C10.3906 14.2529 12.5624 12.2169 12.9883 9.53127H6.72836V7.66862H15.2027L15.1175 8.83819Z" fill="#404041"/>
<path d="M22.2918 7.93051H21.1899C19.9655 7.93051 18.986 8.89544 18.986 10.1016V15.8108H17.027V6.08105H18.6595V6.88516C19.19 6.36249 20.0471 6.08105 20.9858 6.08105H23.1081L22.2918 7.93051Z" fill="#404041"/>
<path d="M33.4048 16.2682H31.7096V14.9133C30.3866 16.2682 28.3193 16.9238 26.2107 15.9622C24.6396 15.2192 23.4819 13.7332 23.1925 11.9413C22.6137 8.53229 25.0944 5.4729 28.278 5.4729C29.601 5.4729 30.8414 6.04107 31.7096 6.95889V5.60401H33.4461L33.4048 16.2682ZM31.3789 11.7228C31.8337 9.58122 30.3039 7.61447 28.3193 7.61447C26.5828 7.61447 25.1771 9.10046 25.1771 10.9361C25.1771 12.9903 26.8722 14.6074 28.8981 14.214C30.0558 14.0392 31.0894 13.034 31.3789 11.7228Z" fill="#404041"/>
<path d="M37.9054 5.20739V5.785H41.1571V7.55909H37.9054V15.8107H35.8784V5.33115C35.8784 3.14448 37.4831 1.82422 39.5102 1.82422H41.9595L41.1571 3.72209H39.5102C38.6233 3.68083 37.9054 4.34097 37.9054 5.20739Z" fill="#404041"/>
<path d="M52.2535 16.2682H50.4586V14.9133C49.0577 16.2682 46.8689 16.9238 44.6363 15.9622C42.9727 15.2192 41.747 13.7332 41.4405 11.9413C40.8276 8.53229 43.4543 5.4729 46.8251 5.4729C48.226 5.4729 49.5393 6.04107 50.4586 6.95889V5.60401H52.2973L52.2535 16.2682ZM50.0646 11.7228C50.5462 9.58122 48.9264 7.61447 46.8251 7.61447C44.9865 7.61447 43.498 9.10046 43.498 10.9361C43.498 12.9903 45.2929 14.6074 47.438 14.214C48.7075 14.0392 49.7582 13.034 50.0646 11.7228Z" fill="#404041"/>
<path d="M63.2433 9.80134V15.8107H61.0736V9.80134C61.0736 8.54063 59.9666 7.53206 58.6825 7.53206C57.3098 7.53206 56.2471 8.54063 56.2471 9.80134V15.8107H54.1217V5.64099H55.8929V6.52349C56.6456 5.85111 57.7084 5.4729 58.7711 5.4729C61.2507 5.4729 63.2433 7.40599 63.2433 9.80134Z" fill="#404041"/>
<path d="M74.7561 16.2682H73.0609V14.9133C71.7379 16.2682 69.6706 16.9238 67.562 15.9622C65.9909 15.2192 64.8333 13.7332 64.5438 11.9413C63.965 8.53229 66.4457 5.4729 69.6293 5.4729C70.9523 5.4729 72.1927 6.04107 73.0609 6.95889V5.60401H74.7974L74.7561 16.2682ZM72.6888 11.7228C73.1436 9.58122 71.6139 7.61447 69.6293 7.61447C67.8928 7.61447 66.4871 9.10046 66.4871 10.9361C66.4871 12.9903 68.1822 14.6074 70.2081 14.214C71.4071 14.0392 72.3994 13.034 72.6888 11.7228Z" fill="#404041"/>
<path d="M82.5182 14.0769V9.65403H88.4905V7.52117H82.5182V2.82886H89.372V0.718439H80.2703V16.1873H89.5704V14.0769H82.5182Z" fill="#404041"/>
<path d="M96.6121 5.4332C95.5102 5.4332 93.8573 6.01693 93.2623 7.3191V5.70261H91.1025V16.1873H93.2623V10.5521C93.2623 8.37431 94.8931 7.58852 96.2374 7.58852C97.5597 7.58852 98.5735 8.62128 98.5735 10.3276V16.1873H100.733V10.1929C100.755 7.20685 99.2126 5.4332 96.6121 5.4332Z" fill="#404041"/>
<path d="M107.814 5.70261H105.61V1.77365H103.45V5.70261H101.599V7.54362H103.45V16.1873H105.61V7.54362H107.814V5.70261Z" fill="#404041"/>
<path d="M118.376 10.8889C118.376 7.58852 116.151 5.4332 113.22 5.4332C110.288 5.4332 107.908 7.58852 107.908 10.9113C107.908 14.2341 110.244 16.4568 113.22 16.4568C115.181 16.4568 117.032 15.5138 117.936 13.7626L116.217 12.887C115.644 13.8524 114.52 14.4137 113.33 14.4137C111.655 14.4137 110.421 13.5381 110.134 11.8318H118.332C118.354 11.495 118.376 11.1807 118.376 10.8889ZM110.156 10.0582C110.465 8.30696 111.655 7.47626 113.242 7.47626C114.828 7.47626 116.018 8.41922 116.217 10.0582H110.156Z" fill="#404041"/>
<path d="M124.847 5.4332C123.524 5.4332 122.489 6.21899 121.96 8.05999V5.70261H119.778V16.1873H121.96V12.4155C121.96 9.58668 122.841 7.54362 124.715 7.54362C125.133 7.54362 125.662 7.63342 126.235 7.90284L126.61 5.81487C126.279 5.61281 125.552 5.4332 124.847 5.4332Z" fill="#404041"/>
<path d="M133.058 5.4332C131.669 5.4332 130.171 6.08429 129.488 7.2742V5.70261H127.328V21.2838H129.488V14.6382C130.171 15.8281 131.603 16.4568 133.058 16.4568C135.857 16.4568 138.171 14.3014 138.171 10.9562C138.171 7.63342 135.835 5.4332 133.058 5.4332ZM132.793 14.3912C131.207 14.3912 129.51 13.0891 129.51 10.9787C129.51 8.86824 131.074 7.49871 132.793 7.49871C134.578 7.49871 135.989 9.00295 135.989 10.9787C135.989 12.9544 134.578 14.3912 132.793 14.3912Z" fill="#404041"/>
<path d="M144.703 5.4332C143.38 5.4332 142.345 6.21899 141.816 8.05999V5.70261H139.634V16.1873H141.816V12.4155C141.816 9.58668 142.697 7.54362 144.57 7.54362C144.989 7.54362 145.518 7.63342 146.091 7.90284L146.466 5.81487C146.135 5.61281 145.408 5.4332 144.703 5.4332Z" fill="#404041"/>
<path d="M148.264 3.30033C149.079 3.30033 149.74 2.69415 149.74 1.8859C149.74 1.07766 149.079 0.471476 148.264 0.471476C147.47 0.471476 146.787 1.07766 146.787 1.8859C146.787 2.69415 147.47 3.30033 148.264 3.30033ZM147.184 16.1873H149.343V5.70261H147.184V16.1873Z" fill="#404041"/>
<path d="M154.657 16.4568C156.773 16.4568 158.712 15.2444 158.712 13.2462C158.712 12.1237 158.227 10.7317 156.024 10.1704L154.459 9.78874C153.82 9.63158 153.225 9.27236 153.225 8.62127C153.225 7.90284 153.842 7.29665 154.745 7.29665C155.517 7.29665 156.288 7.81303 156.288 8.57637H158.36C158.36 6.37615 156.464 5.4332 154.701 5.4332C152.564 5.4332 151.043 6.84763 151.043 8.55392C151.043 10.1031 151.924 11.1134 153.842 11.6297L155.23 11.9665C156.002 12.1461 156.552 12.5053 156.552 13.2013C156.552 13.9871 155.825 14.5933 154.635 14.5933C153.467 14.5933 152.74 13.8749 152.74 13.0442H150.734C150.778 15.2444 152.74 16.4568 154.657 16.4568Z" fill="#404041"/>
<path d="M169.96 10.8889C169.96 7.58852 167.734 5.4332 164.803 5.4332C161.872 5.4332 159.491 7.58852 159.491 10.9113C159.491 14.2341 161.828 16.4568 164.803 16.4568C166.764 16.4568 168.615 15.5138 169.519 13.7626L167.8 12.887C167.227 13.8524 166.103 14.4137 164.913 14.4137C163.238 14.4137 162.004 13.5381 161.717 11.8318H169.916C169.938 11.495 169.96 11.1807 169.96 10.8889ZM161.739 10.0582C162.048 8.30696 163.238 7.47626 164.825 7.47626C166.411 7.47626 167.602 8.41922 167.8 10.0582H161.739Z" fill="#404041"/>
<path d="M180.64 16.4568C183.703 16.4568 185.775 14.3688 185.775 11.7869C185.775 9.51932 184.166 8.1049 181.609 7.45381L179.692 6.95988C177.775 6.46596 177.62 5.4332 177.62 4.93927C177.62 3.52484 178.899 2.55944 180.331 2.55944C181.896 2.55944 183.02 3.56975 183.02 5.02908H185.268C185.268 2.20022 183.13 0.449024 180.397 0.449024C177.709 0.449024 175.351 2.26758 175.351 4.98418C175.351 6.2639 175.879 8.21715 179.119 9.04785L181.058 9.54178C182.293 9.87855 183.505 10.5296 183.505 11.8992C183.505 13.1789 182.447 14.3463 180.64 14.3463C178.744 14.3463 177.532 13.0666 177.488 11.742H175.24C175.24 14.2341 177.4 16.4568 180.64 16.4568Z" fill="#404041"/>
<path d="M192.329 5.70261H190.126V1.77365H187.966V5.70261H186.115V7.54362H187.966V16.1873H190.126V7.54362H192.329V5.70261Z" fill="#404041"/>
<path d="M201.107 5.70261V7.2742C200.446 6.08429 199.013 5.4332 197.537 5.4332C194.672 5.4332 192.446 7.81303 192.446 10.9338C192.446 14.1892 194.804 16.4568 197.449 16.4568C199.013 16.4568 200.446 15.6261 201.107 14.3912V16.1873H203.267V5.70261H201.107ZM197.823 14.3912C196.016 14.3912 194.606 12.8197 194.606 10.9338C194.606 9.0703 196.016 7.49871 197.779 7.49871C199.432 7.49871 201.085 8.91314 201.085 10.9338C201.085 12.9095 199.542 14.3912 197.823 14.3912Z" fill="#404041"/>
<path d="M210.284 16.4568C211.959 16.4568 213.391 15.7608 214.295 14.6607L212.862 13.2911C212.267 13.9647 211.363 14.3912 210.328 14.3912C208.41 14.3912 206.89 12.9319 206.89 10.9338C206.89 8.93559 208.41 7.49871 210.328 7.49871C211.363 7.49871 212.267 7.92529 212.862 8.59882L214.295 7.2293C213.391 6.12919 211.959 5.4332 210.284 5.4332C207.308 5.4332 204.73 7.61097 204.73 10.9338C204.73 14.2565 207.308 16.4568 210.284 16.4568Z" fill="#404041"/>
<path d="M225 16.1873L219.645 10.2378L223.986 5.70261H221.055L217.683 9.27236V0H215.524V16.1873H217.683V11.2032L222.179 16.1873H225Z" fill="#404041"/>
</svg>
