<svg width="106" height="19" viewBox="0 0 106 19" fill="none" xmlns="http://www.w3.org/2000/svg">
<g style="mix-blend-mode:multiply">
<path d="M6.25558 0V1.89451H3.09872V4.88728H6.22813C6.11833 5.46387 5.62421 5.90318 5.02029 5.93064H0.326172V8.97832H5.07519C7.38107 8.95087 9.24774 7.05636 9.30264 4.75V4.66763H10.2909V4.75C10.3458 7.05636 12.2124 8.95087 14.5458 9.00578H19.3223V5.95809H14.6281C14.0242 5.93064 13.5301 5.51879 13.4203 4.91474H16.5497V1.92197H13.3654V0H10.3183V1.6474H9.33009V0H6.25558ZM73.3183 1.78468V4.53035H76.283V1.78468H73.3183ZM24.1536 1.92197V17.078H27.3105V10.7081H33.9811V8.01734H27.3105V4.61272H34.9419V1.92197H24.1536ZM78.287 1.92197V17.078H81.2517V1.92197H78.287ZM94.4281 1.92197V17.078H97.3105V15.6503H97.3654C98.0791 16.9133 99.3968 17.3526 100.605 17.3526C103.954 17.3526 105.326 14.3873 105.326 11.3121C105.326 7.44075 103.13 5.51879 100.66 5.51879C98.7654 5.51879 97.8595 6.56214 97.4203 7.27601H97.3654V1.92197H94.4281ZM40.5144 5.54624C35.6007 5.54624 35.134 9.88439 35.134 11.2298C35.134 15.8425 37.5497 17.3801 40.734 17.3801C42.6556 17.3801 44.9066 16.5014 45.6752 13.7832H42.6281C42.4085 14.5795 41.5575 15.0188 40.734 15.0188C38.3458 15.0188 38.1811 13.1243 38.0987 12.2731H45.8124V11.7514C45.785 6.61705 42.7379 5.54624 40.5144 5.54624ZM53.2517 5.54624C51.4674 5.54624 50.7811 6.64451 50.1772 7.79769H50.1223V5.84827H47.2948V17.078H50.2595V11.2298C50.2595 9.99422 50.6713 8.53902 52.9772 8.53902C53.2517 8.53902 53.5811 8.53902 53.8281 8.59393V5.60116C53.636 5.5737 53.4438 5.54624 53.2517 5.54624ZM61.4046 5.54624C59.4281 5.54624 58.6046 6.75434 58.2203 7.49567H58.1654V5.84827H55.3379V17.078H58.3026V10.2413C58.3026 9.00578 58.7419 8.0448 60.1419 8.0448C61.9262 8.0448 61.9262 9.36272 61.9262 10.3237V17.078H64.8909V10.3512C64.8909 9.03324 65.4125 8.0448 66.8948 8.0448C67.7732 8.0448 68.487 8.59393 68.487 10.2688V17.078H71.4517V9.3078C71.4517 6.8367 69.7497 5.54624 67.5536 5.54624C65.7693 5.54624 64.9458 6.78179 64.5615 7.33092C63.7654 6.15029 63.0242 5.54624 61.4046 5.54624ZM88.0595 5.54624C85.7536 5.54624 83.3654 6.04046 83.036 9.47254H85.8909C85.9732 8.81358 86.2203 7.90751 87.7026 7.90751C88.4713 7.90751 89.6517 7.96243 89.6517 9.22543C89.6517 9.85694 89.0752 10.0491 88.6085 10.104L85.9458 10.5159C84.0791 10.7905 82.6791 11.9162 82.6791 14.1127C82.6791 16.4191 84.4085 17.3801 86.1105 17.3801C88.1144 17.3801 89.0752 16.4465 89.734 15.7601C89.7889 16.3916 89.8438 16.5564 90.0085 17.078H93.1928V16.6387C92.836 16.5014 92.534 16.2269 92.534 14.8815V8.81358C92.534 6.04046 89.6242 5.54624 88.0595 5.54624ZM73.3183 5.84827V17.078H76.283V5.84827H73.3183ZM40.4595 7.98988C41.4203 7.98988 42.5732 8.53902 42.7379 10.3512H38.1536C38.3458 8.8685 39.087 7.98988 40.4595 7.98988ZM99.7811 8.09971C101.648 8.09971 102.307 9.77457 102.307 11.5318C102.307 12.8497 101.785 14.9364 99.8909 14.9364C98.0242 14.9364 97.283 13.3714 97.283 11.6965C97.2556 9.93931 97.7497 8.09971 99.7811 8.09971ZM0.326172 10.0217V13.0694H5.02029C5.62421 13.0968 6.11833 13.5087 6.22813 14.1127H3.09872V17.1055H6.25558V19H9.30264V17.3526H10.2909V19H13.3379V17.1055H16.4948V14.0853H13.3654C13.4752 13.5087 13.9693 13.0694 14.5732 13.0419H19.2673V10.0217H14.4909C12.185 10.0491 10.3183 11.9436 10.2634 14.25V14.3324H9.27519V14.25C9.27519 11.9436 7.40852 10.0491 5.07519 10.0217H0.326172ZM89.6242 11.6142V13.0419C89.6242 14.4147 88.3066 15.2659 86.9889 15.2659C86.4124 15.2659 85.6164 14.9639 85.6164 13.9205C85.6164 12.685 86.5223 12.4104 87.6203 12.2182C88.8556 12.0535 89.3223 11.8613 89.6242 11.6142Z" fill="#7F8184"/>
</g>
</svg>
