<svg xmlns="http://www.w3.org/2000/svg" height="85" width="400"><path fill="#004c97" d="M30.326 7.45v6.943H18.807V25.32h11.445c-.443 2.14-2.214 3.693-4.43 3.765H8.692V40.16h17.351c8.417-.148 15.21-7.013 15.359-15.43v-.296h3.691v.296c.147 8.417 6.94 15.282 15.358 15.43h17.353V29.085H60.672c-2.215-.072-3.987-1.625-4.43-3.765h11.445V14.393H56.17V7.45H45.093v5.98h-3.691V7.45H30.326zm244.264 6.424v9.999h10.766v-9.999H274.59zm-179.053.54V69.62h11.538V46.406h24.304v-9.764h-24.304v-12.46h27.765v-9.768H95.537zm197.18 0V69.62h10.768V14.414h-10.768zm58.756 0V69.62h10.534v-5.153h.153c2.617 4.614 7.386 6.23 11.846 6.23 12.151 0 17.229-10.752 17.229-21.982 0-14.15-7.999-21.073-17.001-21.073-6.92 0-10.152 3.768-11.844 6.383h-.153V14.414h-10.764zm-196.39 13.228c-17.921 0-19.613 15.767-19.613 20.687 0 16.829 8.844 22.368 20.381 22.368 6.999 0 15.153-3.232 17.996-13.06h-11.074c-.846 2.923-3.923 4.456-6.922 4.456-8.69 0-9.307-6.917-9.614-9.993h28.074v-1.923c0-18.688-11.152-22.535-19.228-22.535zm46.454 0c-6.537 0-8.999 4-11.228 8.153h-.154v-7.078h-10.309V69.62h10.77V48.33c0-4.538 1.539-9.766 9.921-9.766 1 0 2.154 0 3.078.153v-10.92c-.693-.078-1.384-.155-2.078-.155zm29.618 0c-7.229 0-10.23 4.384-11.615 7.077h-.154v-6.002h-10.304V69.62h10.766V44.717c0-4.461 1.616-8 6.69-8 6.461 0 6.46 4.846 6.46 8.306V69.62h10.77V45.1c0-4.845 1.923-8.382 7.308-8.382 3.155 0 5.846 1.999 5.846 8.075V69.62h10.769V41.333c0-9-6.232-13.691-14.231-13.691-6.537 0-9.537 4.538-10.92 6.537-2.771-4.382-5.463-6.537-11.385-6.537zm97.096 0c-8.384 0-17.076 1.769-18.304 14.304h10.382c.308-2.382 1.23-5.689 6.614-5.689 2.769 0 7.076.23 7.076 4.767 0 2.306-2.075 3-3.767 3.23l-9.694 1.46c-6.845 1.001-11.922 5.078-11.922 13.078 0 8.444 6.307 11.905 12.462 11.905 7.304 0 10.766-3.386 13.229-5.923.229 2.307.385 2.922.998 4.846h11.615v-1.615c-1.306-.463-2.385-1.539-2.385-6.372V39.485c0-10.074-10.535-11.842-16.304-11.842zm-53.661 1.075V69.62h10.766V28.717H274.59zm-119.662 7.77c3.461 0 7.692 1.999 8.307 8.614h-16.69c.616-5.383 3.307-8.613 8.383-8.613zm216.078.46c6.846 0 9.154 6.078 9.154 12.536 0 4.849-1.924 12.38-8.846 12.38-6.846 0-9.538-5.687-9.538-11.762 0-6.538 1.845-13.153 9.23-13.153zM8.692 43.852v11.076h17.13c2.216.075 3.987 1.625 4.43 3.766H18.807v10.912h11.519v6.94h11.076v-5.98h3.691v5.98h11.076v-6.94h11.518V58.693H56.243c.442-2.141 2.214-3.692 4.43-3.766h17.131V43.851H60.451c-8.418.148-15.211 7.014-15.358 15.433v.295h-3.691v-.295C41.252 50.865 34.46 44 26.043 43.851H8.692zm325.327 5.865v5.23c0 4.998-4.844 8.064-9.615 8.064-2.076 0-5-1.147-5-4.912 0-4.462 3.308-5.46 7.306-6.152 4.463-.692 6.232-1.385 7.309-2.23z"/></svg>