<svg width="130" height="40" viewBox="0 0 130 40" fill="none" xmlns="http://www.w3.org/2000/svg">
<path d="M69.0754 49L63.3095 44.7745L75.7517 28.0388C75.0773 28.1275 74.5041 28.1941 74.032 28.2384C73.56 28.2828 73.1778 28.305 72.8856 28.305C68.682 28.305 65.0404 26.719 61.9607 23.5471C58.9036 20.3974 57.375 16.6044 57.375 12.1682C57.375 7.44362 59.0722 3.40666 62.4665 0.0573015C65.8833 -3.31423 69.9746 -5 74.7401 -5C79.4832 -5 83.6081 -3.33641 87.1149 -0.0092411C90.6216 3.29575 92.375 7.19963 92.375 11.7024C92.375 15.695 90.6666 20.0092 87.2498 24.6451L69.0754 49ZM65.0291 11.6026C65.0291 14.3752 65.9845 16.7043 67.8952 18.5896C69.8284 20.4972 72.155 21.451 74.875 21.451C77.595 21.451 79.9103 20.5083 81.821 18.6229C83.7543 16.7153 84.7209 14.4196 84.7209 11.7357C84.7209 9.05176 83.7543 6.75601 81.821 4.84843C79.9103 2.96303 77.5837 2.02033 74.8413 2.02033C72.1438 2.02033 69.8397 2.96303 67.929 4.84843C65.9957 6.75601 65.0291 9.00739 65.0291 11.6026Z" fill="url(#paint0_linear_20202_4175)"/>
<path d="M69.0754 49L63.3095 44.7745L75.7517 28.0388C75.0773 28.1275 74.5041 28.1941 74.032 28.2384C73.56 28.2828 73.1778 28.305 72.8856 28.305C68.682 28.305 65.0404 26.719 61.9607 23.5471C58.9036 20.3974 57.375 16.6044 57.375 12.1682C57.375 7.44362 59.0722 3.40666 62.4665 0.0573015C65.8833 -3.31423 69.9746 -5 74.7401 -5C79.4832 -5 83.6081 -3.33641 87.1149 -0.0092411C90.6216 3.29575 92.375 7.19963 92.375 11.7024C92.375 15.695 90.6666 20.0092 87.2498 24.6451L69.0754 49ZM65.0291 11.6026C65.0291 14.3752 65.9845 16.7043 67.8952 18.5896C69.8284 20.4972 72.155 21.451 74.875 21.451C77.595 21.451 79.9103 20.5083 81.821 18.6229C83.7543 16.7153 84.7209 14.4196 84.7209 11.7357C84.7209 9.05176 83.7543 6.75601 81.821 4.84843C79.9103 2.96303 77.5837 2.02033 74.8413 2.02033C72.1438 2.02033 69.8397 2.96303 67.929 4.84843C65.9957 6.75601 65.0291 9.00739 65.0291 11.6026Z" fill="url(#paint1_radial_20202_4175)" fill-opacity="0.7"/>
<path d="M69.0754 49L63.3095 44.7745L75.7517 28.0388C75.0773 28.1275 74.5041 28.1941 74.032 28.2384C73.56 28.2828 73.1778 28.305 72.8856 28.305C68.682 28.305 65.0404 26.719 61.9607 23.5471C58.9036 20.3974 57.375 16.6044 57.375 12.1682C57.375 7.44362 59.0722 3.40666 62.4665 0.0573015C65.8833 -3.31423 69.9746 -5 74.7401 -5C79.4832 -5 83.6081 -3.33641 87.1149 -0.0092411C90.6216 3.29575 92.375 7.19963 92.375 11.7024C92.375 15.695 90.6666 20.0092 87.2498 24.6451L69.0754 49ZM65.0291 11.6026C65.0291 14.3752 65.9845 16.7043 67.8952 18.5896C69.8284 20.4972 72.155 21.451 74.875 21.451C77.595 21.451 79.9103 20.5083 81.821 18.6229C83.7543 16.7153 84.7209 14.4196 84.7209 11.7357C84.7209 9.05176 83.7543 6.75601 81.821 4.84843C79.9103 2.96303 77.5837 2.02033 74.8413 2.02033C72.1438 2.02033 69.8397 2.96303 67.929 4.84843C65.9957 6.75601 65.0291 9.00739 65.0291 11.6026Z" fill="url(#paint2_radial_20202_4175)" fill-opacity="0.8"/>
<path d="M69.0754 49L63.3095 44.7745L75.7517 28.0388C75.0773 28.1275 74.5041 28.1941 74.032 28.2384C73.56 28.2828 73.1778 28.305 72.8856 28.305C68.682 28.305 65.0404 26.719 61.9607 23.5471C58.9036 20.3974 57.375 16.6044 57.375 12.1682C57.375 7.44362 59.0722 3.40666 62.4665 0.0573015C65.8833 -3.31423 69.9746 -5 74.7401 -5C79.4832 -5 83.6081 -3.33641 87.1149 -0.0092411C90.6216 3.29575 92.375 7.19963 92.375 11.7024C92.375 15.695 90.6666 20.0092 87.2498 24.6451L69.0754 49ZM65.0291 11.6026C65.0291 14.3752 65.9845 16.7043 67.8952 18.5896C69.8284 20.4972 72.155 21.451 74.875 21.451C77.595 21.451 79.9103 20.5083 81.821 18.6229C83.7543 16.7153 84.7209 14.4196 84.7209 11.7357C84.7209 9.05176 83.7543 6.75601 81.821 4.84843C79.9103 2.96303 77.5837 2.02033 74.8413 2.02033C72.1438 2.02033 69.8397 2.96303 67.929 4.84843C65.9957 6.75601 65.0291 9.00739 65.0291 11.6026Z" fill="url(#paint3_radial_20202_4175)" fill-opacity="0.7"/>
<path d="M23.0308 17.0292C22.9865 16.6305 22.9422 16.1433 22.765 15.6118C22.6322 15.0802 22.4107 14.5044 22.1007 13.8843C21.7906 13.2642 21.392 12.6441 20.9049 12.024C20.7277 11.8025 20.5062 11.5367 20.2405 11.3153C20.5948 9.89786 19.7976 8.70193 19.7976 8.70193C18.4689 8.61334 17.5831 9.10057 17.2731 9.36633C17.2288 9.36633 17.1845 9.32204 17.0959 9.27775C16.8745 9.18916 16.653 9.10057 16.3873 9.01198C16.1215 8.9234 15.9001 8.8791 15.6344 8.79051C15.3686 8.74622 15.1029 8.70193 14.8814 8.65763C14.8371 8.65763 14.7928 8.65763 14.7486 8.65763C14.1728 6.79729 12.4898 6 12.4898 6C10.6296 7.19593 10.2753 8.83481 10.2753 8.83481C10.2753 8.83481 10.2753 8.8791 10.2753 8.9234C10.1867 8.96769 10.0538 8.96769 9.96524 9.01198C9.83237 9.05628 9.6995 9.10057 9.52234 9.14486C9.38947 9.18916 9.2566 9.23345 9.07944 9.32204C8.8137 9.45492 8.50367 9.5878 8.23793 9.72068C7.97219 9.85357 7.70646 10.0307 7.44072 10.2079C7.39643 10.2079 7.39642 10.1636 7.39642 10.1636C4.78332 9.18916 2.48024 10.3851 2.48024 10.3851C2.25879 13.1313 3.4989 14.9031 3.76464 15.2131C3.72035 15.3903 3.63178 15.5675 3.58749 15.7447C3.41033 16.3648 3.23317 17.0292 3.14459 17.6936C3.14459 17.7822 3.1003 17.8708 3.1003 17.9593C0.708639 19.1553 0 21.5914 0 21.5914C1.99305 23.8947 4.34042 24.0276 4.34042 24.0276C4.65045 24.5591 4.96048 25.0464 5.35909 25.5336C5.53624 25.7108 5.71341 25.9322 5.84628 26.1094C5.13764 28.1912 5.93485 29.9187 5.93485 29.9187C8.14935 30.0073 9.61091 28.9442 9.92094 28.6785C10.1424 28.767 10.3638 28.8113 10.5853 28.8999C11.2496 29.0771 11.9583 29.1657 12.6669 29.21C12.8441 29.21 13.0212 29.21 13.1984 29.21H13.287H13.3313H13.4199H13.5084C14.5714 30.716 16.3873 30.9374 16.3873 30.9374C17.716 29.5643 17.7603 28.1912 17.7603 27.8812C17.7603 27.8369 17.7603 27.8369 17.7603 27.8369V27.7926C18.026 27.6154 18.2917 27.3939 18.5575 27.1725C19.089 26.6852 19.5319 26.1537 19.9305 25.5779C19.9748 25.5336 20.0191 25.4893 20.0191 25.4007C21.5249 25.4893 22.5436 24.4705 22.5436 24.4705C22.2778 22.9203 21.392 22.1673 21.2149 22.0344C21.2149 22.0344 21.2149 22.0344 21.1706 22.0344C21.1706 21.9458 21.1706 21.8572 21.1706 21.7686C21.1706 21.5914 21.1706 21.4143 21.1706 21.2814V21.0599V21.0156V20.9713C21.1706 20.927 21.1706 20.927 21.1706 20.927V20.8384V20.7056C21.1706 20.6613 21.1706 20.617 21.1706 20.5727C21.1706 20.5284 21.1706 20.4841 21.1706 20.4398V20.3069V20.174C21.1263 19.9969 21.1263 19.8197 21.082 19.6868C20.9049 19.0224 20.6834 18.4023 20.3291 17.8265C19.9748 17.2506 19.5762 16.7634 19.089 16.3205C18.6018 15.8775 18.0703 15.5675 17.4945 15.3017C16.9188 15.0359 16.343 14.9031 15.7229 14.8145C15.4129 14.7702 15.1472 14.7702 14.8371 14.7702H14.7486H14.7043H14.66H14.6157H14.5271C14.4828 14.7702 14.4385 14.7702 14.3942 14.7702C14.2614 14.7702 14.0842 14.8145 13.9513 14.8145C13.3756 14.9031 12.7998 15.1245 12.3126 15.4346C11.8254 15.7446 11.3825 16.099 11.0282 16.4976C10.6739 16.8963 10.4081 17.3835 10.231 17.8708C10.0538 18.358 9.96523 18.8452 9.92094 19.3325C9.92094 19.4653 9.92094 19.5539 9.92094 19.6868C9.92094 19.7311 9.92094 19.7311 9.92094 19.7754V19.864C9.92094 19.9083 9.92094 19.9969 9.92094 20.0412C9.96523 20.2626 10.0095 20.5284 10.0538 20.7499C10.1867 21.1928 10.4081 21.5914 10.6296 21.9458C10.8953 22.3001 11.2054 22.5659 11.5154 22.7874C11.8254 23.0088 12.1797 23.186 12.5341 23.2746C12.8884 23.3632 13.1984 23.4075 13.5527 23.4075C13.597 23.4075 13.6413 23.4075 13.6856 23.4075H13.7299H13.7742C13.8185 23.4075 13.8628 23.4075 13.8628 23.4075C13.8628 23.4075 13.8627 23.4075 13.907 23.4075H13.9513H13.9956C14.0399 23.4075 14.0842 23.4075 14.1285 23.4075C14.1728 23.4075 14.2171 23.4075 14.2614 23.3632C14.3499 23.3632 14.3942 23.3189 14.4828 23.3189C14.6157 23.2746 14.7486 23.2303 14.8814 23.1417C15.0143 23.0974 15.1029 23.0088 15.2357 22.9203C15.28 22.9203 15.28 22.876 15.3243 22.8317C15.4572 22.7431 15.4572 22.5659 15.3686 22.4773C15.28 22.3887 15.1472 22.3444 15.0586 22.433C15.0143 22.433 15.0143 22.4773 14.97 22.4773C14.8814 22.5216 14.7928 22.5659 14.66 22.6102C14.5714 22.6545 14.4385 22.6545 14.3499 22.6988C14.3056 22.6988 14.2171 22.6988 14.1728 22.6988C14.1285 22.6988 14.1285 22.6988 14.0842 22.6988C14.0399 22.6988 14.0399 22.6988 13.9956 22.6988C13.9513 22.6988 13.9513 22.6988 13.907 22.6988C13.8627 22.6988 13.8185 22.6988 13.8185 22.6988H13.7742H13.7299C13.6856 22.6988 13.6856 22.6988 13.6413 22.6988C13.3756 22.6545 13.1541 22.6102 12.8884 22.4773C12.6226 22.3887 12.4012 22.2116 12.1797 22.0344C11.9583 21.8572 11.7811 21.5914 11.6483 21.37C11.5154 21.1485 11.3825 20.8384 11.3382 20.5284C11.2939 20.3955 11.2939 20.2183 11.2939 20.0854C11.2939 20.0412 11.2939 19.9969 11.2939 19.9526V19.9083V19.864C11.2939 19.7754 11.2939 19.6868 11.3382 19.5982C11.4711 18.9338 11.7811 18.3137 12.3126 17.7822C12.4455 17.6493 12.5783 17.5607 12.7112 17.4278C12.8441 17.3392 13.0212 17.2506 13.1541 17.1621C13.3313 17.0735 13.5084 17.0292 13.6413 16.9849C13.8185 16.9406 13.9956 16.8963 14.1728 16.8963C14.2614 16.8963 14.3499 16.8963 14.4385 16.8963C14.4828 16.8963 14.4828 16.8963 14.4828 16.8963H14.5714H14.6157H14.7043C14.8814 16.8963 15.1029 16.9406 15.28 16.9849C15.6786 17.0735 16.033 17.2063 16.3873 17.4278C17.0959 17.8265 17.6717 18.4466 18.0703 19.1553C18.2475 19.5096 18.3803 19.9083 18.4689 20.3069C18.4689 20.3955 18.5132 20.5284 18.5132 20.617V20.7056V20.7942C18.5132 20.8384 18.5132 20.8384 18.5132 20.8827C18.5132 20.927 18.5132 20.927 18.5132 20.9713V21.0599V21.1485C18.5132 21.1928 18.5132 21.2814 18.5132 21.3257C18.5132 21.4586 18.5132 21.5471 18.4689 21.68C18.4689 21.7686 18.4246 21.9015 18.4246 21.9901C18.4246 22.0787 18.3803 22.2116 18.336 22.3001C18.2917 22.5216 18.2032 22.7431 18.1146 22.9203C17.9374 23.3189 17.716 23.7175 17.4502 24.1162C16.9188 24.8249 16.2101 25.445 15.3686 25.7994C14.97 25.9765 14.5271 26.1094 14.0842 26.198C13.8628 26.2423 13.6413 26.2423 13.4199 26.2866H13.3756H13.3313H13.2427H13.1541H13.1098C13.1541 26.2866 13.1098 26.2866 13.1098 26.2866C12.977 26.2866 12.8884 26.2866 12.7555 26.2866C12.2683 26.2423 11.7811 26.1537 11.3382 26.0208C10.8953 25.8879 10.4081 25.7108 10.0095 25.4893C9.16802 25.0464 8.41509 24.4262 7.79503 23.6733C7.485 23.3189 7.21926 22.9203 7.0421 22.4773C6.82065 22.0344 6.6435 21.5914 6.51063 21.1485C6.37776 20.7056 6.28918 20.2183 6.28918 19.7754V19.6868V19.6425V19.5539V19.2882V19.2439V19.1553V19.111C6.28918 19.0667 6.28918 18.9781 6.28918 18.9338C6.28918 18.7123 6.33347 18.4466 6.33347 18.2251C6.37776 18.0036 6.42204 17.7379 6.46633 17.5164C6.51062 17.2949 6.55491 17.0292 6.64349 16.8077C6.77636 16.3648 6.95352 15.9218 7.13068 15.4789C7.52929 14.6373 8.01648 13.8843 8.63654 13.3085C8.76941 13.1756 8.94657 12.9984 9.12373 12.8655C9.30089 12.7327 9.47806 12.5998 9.65521 12.5112C9.83237 12.3783 10.0095 12.2897 10.1867 12.2011C10.2753 12.1568 10.3638 12.1126 10.4524 12.0683C10.4967 12.0683 10.541 12.024 10.5853 12.024C10.6296 12.024 10.6739 11.9797 10.7182 11.9797C10.8953 11.8911 11.1168 11.8468 11.2939 11.7582C11.3382 11.7582 11.3825 11.7139 11.4268 11.7139C11.4711 11.7139 11.5154 11.6696 11.5597 11.6696C11.6483 11.6253 11.7811 11.6253 11.8697 11.581C11.914 11.581 11.9583 11.5367 12.0469 11.5367C12.0912 11.5367 12.1354 11.5367 12.224 11.4924C12.2683 11.4924 12.3126 11.4924 12.4012 11.4481H12.4898H12.5783C12.6226 11.4481 12.6669 11.4481 12.7555 11.4039C12.7998 11.4039 12.8884 11.4039 12.9327 11.3596C12.977 11.3596 13.0655 11.3596 13.1098 11.3596C13.1541 11.3596 13.1984 11.3596 13.2427 11.3596H13.3313H13.3756H13.4199C13.4641 11.3596 13.5527 11.3596 13.597 11.3596H13.6856C13.6856 11.3596 13.7299 11.3596 13.6856 11.3596H13.7299C13.7742 11.3596 13.8185 11.3596 13.8628 11.3596C14.0842 11.3596 14.2614 11.3596 14.4828 11.3596C14.8814 11.3596 15.28 11.4039 15.6786 11.4924C16.4316 11.6253 17.1402 11.8911 17.8046 12.2011C18.4689 12.5112 19.0447 12.9098 19.5319 13.3528C19.5762 13.3971 19.5762 13.3971 19.6205 13.4414C19.6647 13.4857 19.6647 13.4857 19.709 13.53C19.7533 13.5743 19.8419 13.6185 19.8862 13.7071C19.9305 13.7957 20.0191 13.7957 20.0634 13.8843C20.1076 13.9729 20.1962 14.0172 20.2405 14.0615C20.462 14.283 20.6391 14.5044 20.8163 14.7702C21.1706 15.2131 21.4806 15.7004 21.7021 16.1433C21.7021 16.1876 21.7464 16.1876 21.7464 16.2319C21.7464 16.2762 21.7907 16.2762 21.7907 16.3205C21.8349 16.3648 21.8349 16.4091 21.8792 16.4976C21.9235 16.5419 21.9235 16.5862 21.9678 16.6748C22.0121 16.7191 22.0121 16.7634 22.0564 16.852C22.145 17.0735 22.2336 17.2506 22.2778 17.4278C22.3664 17.7379 22.455 18.0036 22.4993 18.2251C22.5436 18.3137 22.6322 18.4023 22.7207 18.358C22.8093 18.358 22.8979 18.2694 22.8979 18.1808C23.0751 17.6493 23.0751 17.3392 23.0308 17.0292Z" fill="black"/>
<path d="M23.0308 17.0292C22.9865 16.6305 22.9422 16.1433 22.765 15.6118C22.6322 15.0802 22.4107 14.5044 22.1007 13.8843C21.7906 13.2642 21.392 12.6441 20.9049 12.024C20.7277 11.8025 20.5062 11.5367 20.2405 11.3153C20.5948 9.89786 19.7976 8.70193 19.7976 8.70193C18.4689 8.61334 17.5831 9.10057 17.2731 9.36633C17.2288 9.36633 17.1845 9.32204 17.0959 9.27775C16.8745 9.18916 16.653 9.10057 16.3873 9.01198C16.1215 8.9234 15.9001 8.8791 15.6344 8.79051C15.3686 8.74622 15.1029 8.70193 14.8814 8.65763C14.8371 8.65763 14.7928 8.65763 14.7486 8.65763C14.1728 6.79729 12.4898 6 12.4898 6C10.6296 7.19593 10.2753 8.83481 10.2753 8.83481C10.2753 8.83481 10.2753 8.8791 10.2753 8.9234C10.1867 8.96769 10.0538 8.96769 9.96524 9.01198C9.83237 9.05628 9.6995 9.10057 9.52234 9.14486C9.38947 9.18916 9.2566 9.23345 9.07944 9.32204C8.8137 9.45492 8.50367 9.5878 8.23793 9.72068C7.97219 9.85357 7.70646 10.0307 7.44072 10.2079C7.39643 10.2079 7.39642 10.1636 7.39642 10.1636C4.78332 9.18916 2.48024 10.3851 2.48024 10.3851C2.25879 13.1313 3.4989 14.9031 3.76464 15.2131C3.72035 15.3903 3.63178 15.5675 3.58749 15.7447C3.41033 16.3648 3.23317 17.0292 3.14459 17.6936C3.14459 17.7822 3.1003 17.8708 3.1003 17.9593C0.708639 19.1553 0 21.5914 0 21.5914C1.99305 23.8947 4.34042 24.0276 4.34042 24.0276C4.65045 24.5591 4.96048 25.0464 5.35909 25.5336C5.53624 25.7108 5.71341 25.9322 5.84628 26.1094C5.13764 28.1912 5.93485 29.9187 5.93485 29.9187C8.14935 30.0073 9.61091 28.9442 9.92094 28.6785C10.1424 28.767 10.3638 28.8113 10.5853 28.8999C11.2496 29.0771 11.9583 29.1657 12.6669 29.21C12.8441 29.21 13.0212 29.21 13.1984 29.21H13.287H13.3313H13.4199H13.5084C14.5714 30.716 16.3873 30.9374 16.3873 30.9374C17.716 29.5643 17.7603 28.1912 17.7603 27.8812C17.7603 27.8369 17.7603 27.8369 17.7603 27.8369V27.7926C18.026 27.6154 18.2917 27.3939 18.5575 27.1725C19.089 26.6852 19.5319 26.1537 19.9305 25.5779C19.9748 25.5336 20.0191 25.4893 20.0191 25.4007C21.5249 25.4893 22.5436 24.4705 22.5436 24.4705C22.2778 22.9203 21.392 22.1673 21.2149 22.0344C21.2149 22.0344 21.2149 22.0344 21.1706 22.0344C21.1706 21.9458 21.1706 21.8572 21.1706 21.7686C21.1706 21.5914 21.1706 21.4143 21.1706 21.2814V21.0599V21.0156V20.9713C21.1706 20.927 21.1706 20.927 21.1706 20.927V20.8384V20.7056C21.1706 20.6613 21.1706 20.617 21.1706 20.5727C21.1706 20.5284 21.1706 20.4841 21.1706 20.4398V20.3069V20.174C21.1263 19.9969 21.1263 19.8197 21.082 19.6868C20.9049 19.0224 20.6834 18.4023 20.3291 17.8265C19.9748 17.2506 19.5762 16.7634 19.089 16.3205C18.6018 15.8775 18.0703 15.5675 17.4945 15.3017C16.9188 15.0359 16.343 14.9031 15.7229 14.8145C15.4129 14.7702 15.1472 14.7702 14.8371 14.7702H14.7486H14.7043H14.66H14.6157H14.5271C14.4828 14.7702 14.4385 14.7702 14.3942 14.7702C14.2614 14.7702 14.0842 14.8145 13.9513 14.8145C13.3756 14.9031 12.7998 15.1245 12.3126 15.4346C11.8254 15.7446 11.3825 16.099 11.0282 16.4976C10.6739 16.8963 10.4081 17.3835 10.231 17.8708C10.0538 18.358 9.96523 18.8452 9.92094 19.3325C9.92094 19.4653 9.92094 19.5539 9.92094 19.6868C9.92094 19.7311 9.92094 19.7311 9.92094 19.7754V19.864C9.92094 19.9083 9.92094 19.9969 9.92094 20.0412C9.96523 20.2626 10.0095 20.5284 10.0538 20.7499C10.1867 21.1928 10.4081 21.5914 10.6296 21.9458C10.8953 22.3001 11.2054 22.5659 11.5154 22.7874C11.8254 23.0088 12.1797 23.186 12.5341 23.2746C12.8884 23.3632 13.1984 23.4075 13.5527 23.4075C13.597 23.4075 13.6413 23.4075 13.6856 23.4075H13.7299H13.7742C13.8185 23.4075 13.8628 23.4075 13.8628 23.4075C13.8628 23.4075 13.8627 23.4075 13.907 23.4075H13.9513H13.9956C14.0399 23.4075 14.0842 23.4075 14.1285 23.4075C14.1728 23.4075 14.2171 23.4075 14.2614 23.3632C14.3499 23.3632 14.3942 23.3189 14.4828 23.3189C14.6157 23.2746 14.7486 23.2303 14.8814 23.1417C15.0143 23.0974 15.1029 23.0088 15.2357 22.9203C15.28 22.9203 15.28 22.876 15.3243 22.8317C15.4572 22.7431 15.4572 22.5659 15.3686 22.4773C15.28 22.3887 15.1472 22.3444 15.0586 22.433C15.0143 22.433 15.0143 22.4773 14.97 22.4773C14.8814 22.5216 14.7928 22.5659 14.66 22.6102C14.5714 22.6545 14.4385 22.6545 14.3499 22.6988C14.3056 22.6988 14.2171 22.6988 14.1728 22.6988C14.1285 22.6988 14.1285 22.6988 14.0842 22.6988C14.0399 22.6988 14.0399 22.6988 13.9956 22.6988C13.9513 22.6988 13.9513 22.6988 13.907 22.6988C13.8627 22.6988 13.8185 22.6988 13.8185 22.6988H13.7742H13.7299C13.6856 22.6988 13.6856 22.6988 13.6413 22.6988C13.3756 22.6545 13.1541 22.6102 12.8884 22.4773C12.6226 22.3887 12.4012 22.2116 12.1797 22.0344C11.9583 21.8572 11.7811 21.5914 11.6483 21.37C11.5154 21.1485 11.3825 20.8384 11.3382 20.5284C11.2939 20.3955 11.2939 20.2183 11.2939 20.0854C11.2939 20.0412 11.2939 19.9969 11.2939 19.9526V19.9083V19.864C11.2939 19.7754 11.2939 19.6868 11.3382 19.5982C11.4711 18.9338 11.7811 18.3137 12.3126 17.7822C12.4455 17.6493 12.5783 17.5607 12.7112 17.4278C12.8441 17.3392 13.0212 17.2506 13.1541 17.1621C13.3313 17.0735 13.5084 17.0292 13.6413 16.9849C13.8185 16.9406 13.9956 16.8963 14.1728 16.8963C14.2614 16.8963 14.3499 16.8963 14.4385 16.8963C14.4828 16.8963 14.4828 16.8963 14.4828 16.8963H14.5714H14.6157H14.7043C14.8814 16.8963 15.1029 16.9406 15.28 16.9849C15.6786 17.0735 16.033 17.2063 16.3873 17.4278C17.0959 17.8265 17.6717 18.4466 18.0703 19.1553C18.2475 19.5096 18.3803 19.9083 18.4689 20.3069C18.4689 20.3955 18.5132 20.5284 18.5132 20.617V20.7056V20.7942C18.5132 20.8384 18.5132 20.8384 18.5132 20.8827C18.5132 20.927 18.5132 20.927 18.5132 20.9713V21.0599V21.1485C18.5132 21.1928 18.5132 21.2814 18.5132 21.3257C18.5132 21.4586 18.5132 21.5471 18.4689 21.68C18.4689 21.7686 18.4246 21.9015 18.4246 21.9901C18.4246 22.0787 18.3803 22.2116 18.336 22.3001C18.2917 22.5216 18.2032 22.7431 18.1146 22.9203C17.9374 23.3189 17.716 23.7175 17.4502 24.1162C16.9188 24.8249 16.2101 25.445 15.3686 25.7994C14.97 25.9765 14.5271 26.1094 14.0842 26.198C13.8628 26.2423 13.6413 26.2423 13.4199 26.2866H13.3756H13.3313H13.2427H13.1541H13.1098C13.1541 26.2866 13.1098 26.2866 13.1098 26.2866C12.977 26.2866 12.8884 26.2866 12.7555 26.2866C12.2683 26.2423 11.7811 26.1537 11.3382 26.0208C10.8953 25.8879 10.4081 25.7108 10.0095 25.4893C9.16802 25.0464 8.41509 24.4262 7.79503 23.6733C7.485 23.3189 7.21926 22.9203 7.0421 22.4773C6.82065 22.0344 6.6435 21.5914 6.51063 21.1485C6.37776 20.7056 6.28918 20.2183 6.28918 19.7754V19.6868V19.6425V19.5539V19.2882V19.2439V19.1553V19.111C6.28918 19.0667 6.28918 18.9781 6.28918 18.9338C6.28918 18.7123 6.33347 18.4466 6.33347 18.2251C6.37776 18.0036 6.42204 17.7379 6.46633 17.5164C6.51062 17.2949 6.55491 17.0292 6.64349 16.8077C6.77636 16.3648 6.95352 15.9218 7.13068 15.4789C7.52929 14.6373 8.01648 13.8843 8.63654 13.3085C8.76941 13.1756 8.94657 12.9984 9.12373 12.8655C9.30089 12.7327 9.47806 12.5998 9.65521 12.5112C9.83237 12.3783 10.0095 12.2897 10.1867 12.2011C10.2753 12.1568 10.3638 12.1126 10.4524 12.0683C10.4967 12.0683 10.541 12.024 10.5853 12.024C10.6296 12.024 10.6739 11.9797 10.7182 11.9797C10.8953 11.8911 11.1168 11.8468 11.2939 11.7582C11.3382 11.7582 11.3825 11.7139 11.4268 11.7139C11.4711 11.7139 11.5154 11.6696 11.5597 11.6696C11.6483 11.6253 11.7811 11.6253 11.8697 11.581C11.914 11.581 11.9583 11.5367 12.0469 11.5367C12.0912 11.5367 12.1354 11.5367 12.224 11.4924C12.2683 11.4924 12.3126 11.4924 12.4012 11.4481H12.4898H12.5783C12.6226 11.4481 12.6669 11.4481 12.7555 11.4039C12.7998 11.4039 12.8884 11.4039 12.9327 11.3596C12.977 11.3596 13.0655 11.3596 13.1098 11.3596C13.1541 11.3596 13.1984 11.3596 13.2427 11.3596H13.3313H13.3756H13.4199C13.4641 11.3596 13.5527 11.3596 13.597 11.3596H13.6856C13.6856 11.3596 13.7299 11.3596 13.6856 11.3596H13.7299C13.7742 11.3596 13.8185 11.3596 13.8628 11.3596C14.0842 11.3596 14.2614 11.3596 14.4828 11.3596C14.8814 11.3596 15.28 11.4039 15.6786 11.4924C16.4316 11.6253 17.1402 11.8911 17.8046 12.2011C18.4689 12.5112 19.0447 12.9098 19.5319 13.3528C19.5762 13.3971 19.5762 13.3971 19.6205 13.4414C19.6647 13.4857 19.6647 13.4857 19.709 13.53C19.7533 13.5743 19.8419 13.6185 19.8862 13.7071C19.9305 13.7957 20.0191 13.7957 20.0634 13.8843C20.1076 13.9729 20.1962 14.0172 20.2405 14.0615C20.462 14.283 20.6391 14.5044 20.8163 14.7702C21.1706 15.2131 21.4806 15.7004 21.7021 16.1433C21.7021 16.1876 21.7464 16.1876 21.7464 16.2319C21.7464 16.2762 21.7907 16.2762 21.7907 16.3205C21.8349 16.3648 21.8349 16.4091 21.8792 16.4976C21.9235 16.5419 21.9235 16.5862 21.9678 16.6748C22.0121 16.7191 22.0121 16.7634 22.0564 16.852C22.145 17.0735 22.2336 17.2506 22.2778 17.4278C22.3664 17.7379 22.455 18.0036 22.4993 18.2251C22.5436 18.3137 22.6322 18.4023 22.7207 18.358C22.8093 18.358 22.8979 18.2694 22.8979 18.1808C23.0751 17.6493 23.0751 17.3392 23.0308 17.0292Z" fill="url(#paint4_linear_20202_4175)"/>
<path fill-rule="evenodd" clip-rule="evenodd" d="M45.0789 19.1008C44.8905 23.7164 41.264 27.3429 36.6956 27.3429C31.8917 27.3429 28.3594 23.4809 28.3594 18.7712C28.3594 14.0614 32.2213 10.1523 36.9311 10.1523C39.0505 10.1523 41.1228 11.0472 42.9125 12.6956L41.5466 14.3911C40.1808 13.2137 38.5795 12.413 36.9782 12.413C33.5401 12.413 30.7142 15.2389 30.7142 18.7241C30.7142 22.2564 33.3988 24.988 36.7898 24.988C39.8511 24.988 42.2531 22.7744 42.7241 19.8544H35.8008V17.8292H45.1731L45.0789 19.1008ZM53.0871 17.9693H51.8155C50.4025 17.9693 49.2722 19.0996 49.2722 20.5125V27.2003H47.0115V15.8028H48.8954V16.7447C49.5077 16.1325 50.4967 15.8028 51.58 15.8028H54.029L53.0871 17.9693ZM63.5877 27.2019H65.5187V15.7572H63.5406V17.2172C62.5516 16.2282 61.1386 15.6159 59.6315 15.6159C56.005 15.6159 53.1792 18.9127 53.8856 22.5392C54.2153 24.4702 55.5341 26.0715 57.3238 26.8722C59.7257 27.9083 62.0806 27.2019 63.5877 25.7418V27.2019ZM59.6786 17.9237C61.9393 17.9237 63.6819 20.0431 63.1638 22.3508C62.8341 23.7167 61.7038 24.7999 60.338 25.0354C58.0302 25.4593 56.0992 23.7167 56.0992 21.5031C56.0992 19.525 57.7005 17.9237 59.6786 17.9237ZM70.0882 15.1444V15.8037H73.7146V17.8289H70.0882V27.2484H67.8275V15.2386C67.8275 12.7424 69.6172 11.2353 71.8779 11.2353H74.6095L73.7146 13.4018H71.8779C70.8888 13.4018 70.0882 14.1553 70.0882 15.1444ZM83.8884 27.2019H85.8194L85.8665 15.7572H83.8884V17.2172C82.8993 16.2282 81.4864 15.6159 79.9793 15.6159C76.3528 15.6159 73.4798 18.9127 74.1863 22.5392C74.516 24.4702 75.8347 26.0715 77.6244 26.8722C80.0264 27.9083 82.3812 27.2019 83.8884 25.7418V27.2019ZM80.0264 17.9237C82.287 17.9237 84.0297 20.0431 83.5116 22.3508C83.1819 23.7167 82.0516 24.7999 80.6857 25.0354C78.378 25.4593 76.447 23.7167 76.447 21.5031C76.447 19.525 78.0483 17.9237 80.0264 17.9237ZM98.016 20.4669V27.2019H95.7553V20.4669C95.7553 19.054 94.5778 17.9237 93.212 17.9237C91.752 17.9237 90.6217 19.054 90.6217 20.4669V27.2019H88.361V15.8043H90.2449V16.7934C91.0455 16.0398 92.1759 15.6159 93.3062 15.6159C95.9437 15.6159 98.016 17.7824 98.016 20.4669ZM109.51 27.2019H111.441L111.488 15.7572H109.51V17.2172C108.521 16.2282 107.108 15.6159 105.601 15.6159C101.974 15.6159 99.1011 18.9127 99.8075 22.5392C100.137 24.4702 101.456 26.0715 103.246 26.8722C105.648 27.9083 108.003 27.2019 109.51 25.7418V27.2019ZM105.648 17.9237C107.908 17.9237 109.651 20.0431 109.133 22.3508C108.803 23.7167 107.626 24.7999 106.307 25.0354C103.999 25.4593 102.068 23.7167 102.068 21.5031C102.068 19.525 103.67 17.9237 105.648 17.9237Z" fill="black"/>
<path d="M121.627 28.2188L119.712 26.796L123.846 21.1612C123.622 21.1911 123.431 21.2135 123.274 21.2284C123.117 21.2433 122.99 21.2508 122.893 21.2508C121.497 21.2508 120.287 20.7168 119.264 19.6488C118.248 18.5883 117.74 17.3113 117.74 15.8176C117.74 14.2268 118.304 12.8676 119.432 11.7399C120.567 10.6047 121.926 10.0371 123.51 10.0371C125.085 10.0371 126.456 10.5972 127.621 11.7175C128.786 12.8303 129.368 14.1447 129.368 15.6608C129.368 17.0051 128.801 18.4576 127.666 20.0185L121.627 28.2188ZM120.283 15.6272C120.283 16.5607 120.601 17.3449 121.235 17.9797C121.878 18.622 122.651 18.9431 123.554 18.9431C124.458 18.9431 125.227 18.6257 125.862 17.9909C126.504 17.3486 126.825 16.5756 126.825 15.672C126.825 14.7683 126.504 13.9953 125.862 13.353C125.227 12.7182 124.454 12.4008 123.543 12.4008C122.647 12.4008 121.881 12.7182 121.247 13.353C120.604 13.9953 120.283 14.7534 120.283 15.6272Z" fill="black"/>
<defs>
<linearGradient id="paint0_linear_20202_4175" x1="78.3106" y1="-5" x2="78.3106" y2="49" gradientUnits="userSpaceOnUse">
<stop stop-color="#FC7436"/>
<stop offset="0.147508" stop-color="#FD9428"/>
<stop offset="1" stop-color="#FFD00E"/>
</linearGradient>
<radialGradient id="paint1_radial_20202_4175" cx="0" cy="0" r="1" gradientUnits="userSpaceOnUse" gradientTransform="translate(74.875 20) rotate(90) scale(20.5 20.8272)">
<stop offset="0.748902" stop-color="#FF8A00" stop-opacity="0"/>
<stop offset="1" stop-color="#FF5151"/>
</radialGradient>
<radialGradient id="paint2_radial_20202_4175" cx="0" cy="0" r="1" gradientUnits="userSpaceOnUse" gradientTransform="translate(75.8413 19.5) rotate(90) scale(23.5 23.8751)">
<stop offset="0.748338" stop-color="#FF6363" stop-opacity="0"/>
<stop offset="0.959979" stop-color="#AF5AFF"/>
</radialGradient>
<radialGradient id="paint3_radial_20202_4175" cx="0" cy="0" r="1" gradientUnits="userSpaceOnUse" gradientTransform="translate(74.875 22.0528) scale(43.8037 15.3258)">
<stop stop-color="#FFE141"/>
<stop offset="1" stop-color="#FFDF39" stop-opacity="0"/>
</radialGradient>
<linearGradient id="paint4_linear_20202_4175" x1="11.5289" y1="36.8277" x2="25.3581" y2="10.3216" gradientUnits="userSpaceOnUse">
<stop stop-color="#FFE405"/>
<stop offset="1" stop-color="#FB6B39"/>
</linearGradient>
</defs>
</svg>
