<svg width="191" height="83" viewBox="0 0 191 83" fill="none" xmlns="http://www.w3.org/2000/svg">
<path d="M104.705 104L92.3496 94.923L119.011 58.9723C117.566 59.1629 116.338 59.3058 115.326 59.4011C114.315 59.4964 113.496 59.544 112.87 59.544C103.862 59.544 96.0586 56.1372 89.4594 49.3235C82.9083 42.5574 79.6328 34.4095 79.6328 24.8799C79.6328 14.7307 83.2696 6.05874 90.5432 -1.13617C97.865 -8.37872 106.632 -12 116.844 -12C127.008 -12 135.847 -8.42637 143.361 -1.27911C150.876 5.8205 154.633 14.2066 154.633 23.8792C154.633 32.4559 150.972 41.7236 143.65 51.6821L104.705 104ZM96.0345 23.6648C96.0345 29.6209 98.0818 34.624 102.176 38.6741C106.319 42.7718 111.304 44.8207 117.133 44.8207C122.961 44.8207 127.923 42.7956 132.017 38.7455C136.16 34.6478 138.231 29.7162 138.231 23.9507C138.231 18.1853 136.16 13.2536 132.017 9.15589C127.923 5.10577 122.937 3.08071 117.061 3.08071C111.28 3.08071 106.343 5.10577 102.248 9.15589C98.1058 13.2536 96.0345 18.09 96.0345 23.6648Z" fill="url(#paint0_linear_23953_1165)"/>
<path d="M104.705 104L92.3496 94.923L119.011 58.9723C117.566 59.1629 116.338 59.3058 115.326 59.4011C114.315 59.4964 113.496 59.544 112.87 59.544C103.862 59.544 96.0586 56.1372 89.4594 49.3235C82.9083 42.5574 79.6328 34.4095 79.6328 24.8799C79.6328 14.7307 83.2696 6.05874 90.5432 -1.13617C97.865 -8.37872 106.632 -12 116.844 -12C127.008 -12 135.847 -8.42637 143.361 -1.27911C150.876 5.8205 154.633 14.2066 154.633 23.8792C154.633 32.4559 150.972 41.7236 143.65 51.6821L104.705 104ZM96.0345 23.6648C96.0345 29.6209 98.0818 34.624 102.176 38.6741C106.319 42.7718 111.304 44.8207 117.133 44.8207C122.961 44.8207 127.923 42.7956 132.017 38.7455C136.16 34.6478 138.231 29.7162 138.231 23.9507C138.231 18.1853 136.16 13.2536 132.017 9.15589C127.923 5.10577 122.937 3.08071 117.061 3.08071C111.28 3.08071 106.343 5.10577 102.248 9.15589C98.1058 13.2536 96.0345 18.09 96.0345 23.6648Z" fill="url(#paint1_radial_23953_1165)" fill-opacity="0.7"/>
<path d="M104.705 104L92.3496 94.923L119.011 58.9723C117.566 59.1629 116.338 59.3058 115.326 59.4011C114.315 59.4964 113.496 59.544 112.87 59.544C103.862 59.544 96.0586 56.1372 89.4594 49.3235C82.9083 42.5574 79.6328 34.4095 79.6328 24.8799C79.6328 14.7307 83.2696 6.05874 90.5432 -1.13617C97.865 -8.37872 106.632 -12 116.844 -12C127.008 -12 135.847 -8.42637 143.361 -1.27911C150.876 5.8205 154.633 14.2066 154.633 23.8792C154.633 32.4559 150.972 41.7236 143.65 51.6821L104.705 104ZM96.0345 23.6648C96.0345 29.6209 98.0818 34.624 102.176 38.6741C106.319 42.7718 111.304 44.8207 117.133 44.8207C122.961 44.8207 127.923 42.7956 132.017 38.7455C136.16 34.6478 138.231 29.7162 138.231 23.9507C138.231 18.1853 136.16 13.2536 132.017 9.15589C127.923 5.10577 122.937 3.08071 117.061 3.08071C111.28 3.08071 106.343 5.10577 102.248 9.15589C98.1058 13.2536 96.0345 18.09 96.0345 23.6648Z" fill="url(#paint2_radial_23953_1165)" fill-opacity="0.8"/>
<path d="M104.705 104L92.3496 94.923L119.011 58.9723C117.566 59.1629 116.338 59.3058 115.326 59.4011C114.315 59.4964 113.496 59.544 112.87 59.544C103.862 59.544 96.0586 56.1372 89.4594 49.3235C82.9083 42.5574 79.6328 34.4095 79.6328 24.8799C79.6328 14.7307 83.2696 6.05874 90.5432 -1.13617C97.865 -8.37872 106.632 -12 116.844 -12C127.008 -12 135.847 -8.42637 143.361 -1.27911C150.876 5.8205 154.633 14.2066 154.633 23.8792C154.633 32.4559 150.972 41.7236 143.65 51.6821L104.705 104ZM96.0345 23.6648C96.0345 29.6209 98.0818 34.624 102.176 38.6741C106.319 42.7718 111.304 44.8207 117.133 44.8207C122.961 44.8207 127.923 42.7956 132.017 38.7455C136.16 34.6478 138.231 29.7162 138.231 23.9507C138.231 18.1853 136.16 13.2536 132.017 9.15589C127.923 5.10577 122.937 3.08071 117.061 3.08071C111.28 3.08071 106.343 5.10577 102.248 9.15589C98.1058 13.2536 96.0345 18.09 96.0345 23.6648Z" fill="url(#paint3_radial_23953_1165)" fill-opacity="0.7"/>
<path d="M33.9371 35.2951C33.8719 34.7076 33.8066 33.9897 33.5455 33.2064C33.3497 32.4232 33.0234 31.5747 32.5666 30.6609C32.1097 29.7472 31.5224 28.8334 30.8045 27.9196C30.5434 27.5933 30.2171 27.2017 29.8255 26.8753C30.3476 24.7867 29.1729 23.0244 29.1729 23.0244C27.215 22.8939 25.9097 23.6118 25.4528 24.0035C25.3876 24.0035 25.3223 23.9382 25.1918 23.8729C24.8655 23.7424 24.5391 23.6118 24.1476 23.4813C23.756 23.3508 23.4297 23.2855 23.0381 23.1549C22.6465 23.0897 22.2549 23.0244 21.9286 22.9591C21.8633 22.9591 21.7981 22.9591 21.7328 22.9591C20.8844 20.2178 18.4044 19.043 18.4044 19.043C15.6633 20.8052 15.1412 23.2202 15.1412 23.2202C15.1412 23.2202 15.1412 23.2855 15.1412 23.3508C15.0107 23.416 14.8149 23.416 14.6843 23.4813C14.4885 23.5466 14.2927 23.6118 14.0317 23.6771C13.8359 23.7424 13.6401 23.8076 13.3791 23.9382C12.9875 24.134 12.5306 24.3298 12.1391 24.5256C11.7475 24.7214 11.3559 24.9825 10.9643 25.2436C10.899 25.2436 10.899 25.1783 10.899 25.1783C7.04849 23.7424 3.65477 25.5046 3.65477 25.5046C3.32845 29.5514 5.15583 32.1621 5.54741 32.619C5.48215 32.8801 5.35163 33.1412 5.28636 33.4023C5.02531 34.316 4.76425 35.2951 4.63373 36.2741C4.63373 36.4047 4.56846 36.5352 4.56846 36.6657C1.04422 38.428 0 42.0178 0 42.0178C2.93687 45.4118 6.39585 45.6077 6.39585 45.6077C6.8527 46.3909 7.30954 47.1089 7.89691 47.8268C8.15797 48.0879 8.41902 48.4142 8.61482 48.6753C7.5706 51.743 8.74533 54.2885 8.74533 54.2885C12.0085 54.419 14.1622 52.8526 14.6191 52.4609C14.9454 52.5915 15.2717 52.6568 15.598 52.7873C16.577 53.0484 17.6212 53.1789 18.6654 53.2442C18.9265 53.2442 19.1875 53.2442 19.4486 53.2442H19.5791H19.6444H19.7749H19.9054C21.4718 55.4633 24.1476 55.7897 24.1476 55.7897C26.1055 53.7663 26.1707 51.743 26.1707 51.2861C26.1707 51.2208 26.1707 51.2208 26.1707 51.2208V51.1556C26.5623 50.8945 26.9539 50.5681 27.3455 50.2418C28.1286 49.5238 28.7813 48.7406 29.3687 47.8921C29.4339 47.8268 29.4992 47.7615 29.4992 47.631C31.7182 47.7615 33.2192 46.2603 33.2192 46.2603C32.8276 43.9759 31.5224 42.8663 31.2613 42.6705C31.2613 42.6705 31.2613 42.6705 31.1961 42.6705C31.1961 42.54 31.1961 42.4094 31.1961 42.2789C31.1961 42.0178 31.1961 41.7568 31.1961 41.5609V41.2346V41.1693V41.1041C31.1961 41.0388 31.1961 41.0388 31.1961 41.0388V40.9082V40.7124C31.1961 40.6472 31.1961 40.5819 31.1961 40.5166C31.1961 40.4514 31.1961 40.3861 31.1961 40.3208V40.125V39.9292C31.1308 39.6681 31.1308 39.4071 31.0655 39.2112C30.8045 38.2322 30.4781 37.3184 29.956 36.4699C29.4339 35.6214 28.8466 34.9035 28.1287 34.2508C27.4108 33.5981 26.6276 33.1412 25.7792 32.7496C24.9307 32.3579 24.0823 32.1621 23.1686 32.0316C22.7118 31.9663 22.3202 31.9663 21.8633 31.9663H21.7328H21.6676H21.6023H21.537H21.4065C21.3412 31.9663 21.276 31.9663 21.2107 31.9663C21.0149 31.9663 20.7539 32.0316 20.5581 32.0316C19.7096 32.1621 18.8612 32.4885 18.1433 32.9454C17.4254 33.4023 16.7728 33.9244 16.2507 34.5118C15.7285 35.0993 15.337 35.8172 15.0759 36.5352C14.8149 37.2532 14.6843 37.9711 14.6191 38.6891C14.6191 38.8849 14.6191 39.0154 14.6191 39.2112C14.6191 39.2765 14.6191 39.2765 14.6191 39.3418V39.4723C14.6191 39.5376 14.6191 39.6681 14.6191 39.7334C14.6843 40.0597 14.7496 40.4514 14.8149 40.7777C15.0107 41.4304 15.337 42.0178 15.6633 42.54C16.0549 43.0621 16.5117 43.4538 16.9686 43.7801C17.4254 44.1065 17.9475 44.3675 18.4696 44.4981C18.9917 44.6286 19.4486 44.6939 19.9707 44.6939C20.036 44.6939 20.1012 44.6939 20.1665 44.6939H20.2317H20.297C20.3623 44.6939 20.4275 44.6939 20.4275 44.6939C20.4275 44.6939 20.4275 44.6939 20.4928 44.6939H20.5581H20.6233C20.6886 44.6939 20.7539 44.6939 20.8191 44.6939C20.8844 44.6939 20.9497 44.6939 21.0149 44.6286C21.1454 44.6286 21.2107 44.5633 21.3412 44.5633C21.537 44.4981 21.7328 44.4328 21.9286 44.3023C22.1244 44.237 22.2549 44.1065 22.4507 43.9759C22.516 43.9759 22.516 43.9106 22.5812 43.8454C22.777 43.7148 22.777 43.4538 22.6465 43.3232C22.516 43.1927 22.3202 43.1274 22.1897 43.2579C22.1244 43.2579 22.1244 43.3232 22.0591 43.3232C21.9286 43.3885 21.7981 43.4538 21.6023 43.519C21.4718 43.5843 21.276 43.5843 21.1454 43.6496C21.0802 43.6496 20.9496 43.6496 20.8844 43.6496C20.8191 43.6496 20.8191 43.6496 20.7539 43.6496C20.6886 43.6496 20.6886 43.6496 20.6233 43.6496C20.5581 43.6496 20.5581 43.6496 20.4928 43.6496C20.4275 43.6496 20.3623 43.6496 20.3623 43.6496H20.297H20.2317C20.1665 43.6496 20.1665 43.6496 20.1012 43.6496C19.7096 43.5843 19.3833 43.519 18.9917 43.3232C18.6002 43.1927 18.2738 42.9316 17.9475 42.6705C17.6212 42.4094 17.3602 42.0178 17.1644 41.6915C16.9686 41.3651 16.7728 40.9082 16.7075 40.4514C16.6422 40.2556 16.6422 39.9945 16.6422 39.7987C16.6422 39.7334 16.6422 39.6681 16.6422 39.6029V39.5376V39.4723C16.6422 39.3418 16.6422 39.2112 16.7075 39.0807C16.9033 38.1017 17.3602 37.1879 18.1433 36.4047C18.3391 36.2088 18.5349 36.0783 18.7307 35.8825C18.9265 35.752 19.1875 35.6214 19.3833 35.4909C19.6444 35.3603 19.9054 35.2951 20.1012 35.2298C20.3623 35.1645 20.6233 35.0993 20.8844 35.0993C21.0149 35.0993 21.1454 35.0993 21.276 35.0993C21.3412 35.0993 21.3412 35.0993 21.3412 35.0993H21.4718H21.537H21.6676C21.9286 35.0993 22.2549 35.1645 22.516 35.2298C23.1033 35.3603 23.6255 35.5562 24.1476 35.8825C25.1918 36.4699 26.0402 37.3837 26.6276 38.428C26.8887 38.9502 27.0844 39.5376 27.215 40.125C27.215 40.2556 27.2802 40.4514 27.2802 40.5819V40.7124V40.843C27.2802 40.9083 27.2802 40.9082 27.2802 40.9735C27.2802 41.0388 27.2802 41.0388 27.2802 41.1041V41.2346V41.3651C27.2802 41.4304 27.2802 41.5609 27.2802 41.6262C27.2802 41.822 27.2802 41.9526 27.215 42.1484C27.215 42.2789 27.1497 42.4747 27.1497 42.6053C27.1497 42.7358 27.0844 42.9316 27.0192 43.0621C26.9539 43.3885 26.8234 43.7148 26.6928 43.9759C26.4318 44.5633 26.1055 45.1508 25.7139 45.7382C24.9307 46.7825 23.8865 47.6963 22.6465 48.2184C22.0591 48.4795 21.4065 48.6753 20.7539 48.8059C20.4275 48.8711 20.1012 48.8711 19.7749 48.9364H19.7096H19.6444H19.5138H19.3833H19.3181C19.3833 48.9364 19.3181 48.9364 19.3181 48.9364C19.1223 48.9364 18.9917 48.9364 18.796 48.9364C18.0781 48.8711 17.3601 48.7406 16.7075 48.5448C16.0549 48.349 15.337 48.0879 14.7496 47.7615C13.5096 47.1089 12.4001 46.1951 11.4864 45.0855C11.0296 44.5633 10.638 43.9759 10.3769 43.3232C10.0506 42.6705 9.78956 42.0178 9.59377 41.3651C9.39798 40.7124 9.26745 39.9945 9.26745 39.3418V39.2112V39.146V39.0154V38.6238V38.5585V38.428V38.3627C9.26745 38.2975 9.26745 38.1669 9.26745 38.1017C9.26745 37.7753 9.33272 37.3837 9.33272 37.0574C9.39798 36.731 9.46324 36.3394 9.5285 36.013C9.59377 35.6867 9.65903 35.2951 9.78955 34.9687C9.98534 34.316 10.2464 33.6633 10.5075 33.0106C11.0948 31.7705 11.8127 30.6609 12.7264 29.8124C12.9222 29.6166 13.1833 29.3555 13.4443 29.1597C13.7054 28.9639 13.9664 28.7681 14.2275 28.6376C14.4886 28.4418 14.7496 28.3112 15.0106 28.1807C15.1412 28.1154 15.2717 28.0502 15.4022 27.9849C15.4675 27.9849 15.5328 27.9196 15.598 27.9196C15.6633 27.9196 15.7286 27.8544 15.7938 27.8544C16.0549 27.7238 16.3812 27.6585 16.6422 27.528C16.7075 27.528 16.7728 27.4627 16.838 27.4627C16.9033 27.4627 16.9686 27.3975 17.0338 27.3975C17.1644 27.3322 17.3602 27.3322 17.4907 27.2669C17.5559 27.2669 17.6212 27.2017 17.7517 27.2017C17.817 27.2017 17.8823 27.2017 18.0128 27.1364C18.078 27.1364 18.1433 27.1364 18.2738 27.0711H18.4044H18.5349C18.6001 27.0711 18.6654 27.0711 18.796 27.0058C18.8612 27.0058 18.9917 27.0058 19.057 26.9406C19.1223 26.9406 19.2528 26.9406 19.3181 26.9406C19.3833 26.9406 19.4486 26.9406 19.5138 26.9406H19.6444H19.7096H19.7749C19.8402 26.9406 19.9707 26.9406 20.036 26.9406H20.1665C20.1665 26.9406 20.2317 26.9406 20.1665 26.9406H20.2317C20.297 26.9406 20.3623 26.9406 20.4275 26.9406C20.7539 26.9406 21.0149 26.9406 21.3412 26.9406C21.9286 26.9406 22.516 27.0058 23.1033 27.1364C24.2128 27.3322 25.2571 27.7238 26.236 28.1807C27.215 28.6376 28.0634 29.225 28.7813 29.8777C28.8466 29.943 28.8466 29.943 28.9118 30.0082C28.9771 30.0735 28.9771 30.0735 29.0423 30.1388C29.1076 30.2041 29.2381 30.2693 29.3034 30.3999C29.3687 30.5304 29.4992 30.5304 29.5645 30.6609C29.6297 30.7915 29.7603 30.8567 29.8255 30.922C30.1518 31.2484 30.4129 31.5747 30.6739 31.9663C31.196 32.619 31.6529 33.337 31.9792 33.9897C31.9792 34.055 32.0445 34.055 32.0445 34.1202C32.0445 34.1855 32.1097 34.1855 32.1097 34.2508C32.175 34.316 32.175 34.3813 32.2403 34.5118C32.3055 34.5771 32.3055 34.6424 32.3708 34.7729C32.4361 34.8382 32.4361 34.9035 32.5013 35.034C32.6319 35.3603 32.7624 35.6214 32.8277 35.8825C32.9582 36.3394 33.0887 36.731 33.154 37.0574C33.2192 37.1879 33.3498 37.3184 33.4803 37.2532C33.6108 37.2532 33.7413 37.1226 33.7413 36.9921C34.0024 36.2088 34.0024 35.752 33.9371 35.2951Z" fill="black"/>
<path d="M33.9371 35.2951C33.8719 34.7076 33.8066 33.9897 33.5455 33.2064C33.3497 32.4232 33.0234 31.5747 32.5666 30.6609C32.1097 29.7472 31.5224 28.8334 30.8045 27.9196C30.5434 27.5933 30.2171 27.2017 29.8255 26.8753C30.3476 24.7867 29.1729 23.0244 29.1729 23.0244C27.215 22.8939 25.9097 23.6118 25.4528 24.0035C25.3876 24.0035 25.3223 23.9382 25.1918 23.8729C24.8655 23.7424 24.5391 23.6118 24.1476 23.4813C23.756 23.3508 23.4297 23.2855 23.0381 23.1549C22.6465 23.0897 22.2549 23.0244 21.9286 22.9591C21.8633 22.9591 21.7981 22.9591 21.7328 22.9591C20.8844 20.2178 18.4044 19.043 18.4044 19.043C15.6633 20.8052 15.1412 23.2202 15.1412 23.2202C15.1412 23.2202 15.1412 23.2855 15.1412 23.3508C15.0107 23.416 14.8149 23.416 14.6843 23.4813C14.4885 23.5466 14.2927 23.6118 14.0317 23.6771C13.8359 23.7424 13.6401 23.8076 13.3791 23.9382C12.9875 24.134 12.5306 24.3298 12.1391 24.5256C11.7475 24.7214 11.3559 24.9825 10.9643 25.2436C10.899 25.2436 10.899 25.1783 10.899 25.1783C7.04849 23.7424 3.65477 25.5046 3.65477 25.5046C3.32845 29.5514 5.15583 32.1621 5.54741 32.619C5.48215 32.8801 5.35163 33.1412 5.28636 33.4023C5.02531 34.316 4.76425 35.2951 4.63373 36.2741C4.63373 36.4047 4.56846 36.5352 4.56846 36.6657C1.04422 38.428 0 42.0178 0 42.0178C2.93687 45.4118 6.39585 45.6077 6.39585 45.6077C6.8527 46.3909 7.30954 47.1089 7.89691 47.8268C8.15797 48.0879 8.41902 48.4142 8.61482 48.6753C7.5706 51.743 8.74533 54.2885 8.74533 54.2885C12.0085 54.419 14.1622 52.8526 14.6191 52.4609C14.9454 52.5915 15.2717 52.6568 15.598 52.7873C16.577 53.0484 17.6212 53.1789 18.6654 53.2442C18.9265 53.2442 19.1875 53.2442 19.4486 53.2442H19.5791H19.6444H19.7749H19.9054C21.4718 55.4633 24.1476 55.7897 24.1476 55.7897C26.1055 53.7663 26.1707 51.743 26.1707 51.2861C26.1707 51.2208 26.1707 51.2208 26.1707 51.2208V51.1556C26.5623 50.8945 26.9539 50.5681 27.3455 50.2418C28.1286 49.5238 28.7813 48.7406 29.3687 47.8921C29.4339 47.8268 29.4992 47.7615 29.4992 47.631C31.7182 47.7615 33.2192 46.2603 33.2192 46.2603C32.8276 43.9759 31.5224 42.8663 31.2613 42.6705C31.2613 42.6705 31.2613 42.6705 31.1961 42.6705C31.1961 42.54 31.1961 42.4094 31.1961 42.2789C31.1961 42.0178 31.1961 41.7568 31.1961 41.5609V41.2346V41.1693V41.1041C31.1961 41.0388 31.1961 41.0388 31.1961 41.0388V40.9082V40.7124C31.1961 40.6472 31.1961 40.5819 31.1961 40.5166C31.1961 40.4514 31.1961 40.3861 31.1961 40.3208V40.125V39.9292C31.1308 39.6681 31.1308 39.4071 31.0655 39.2112C30.8045 38.2322 30.4781 37.3184 29.956 36.4699C29.4339 35.6214 28.8466 34.9035 28.1287 34.2508C27.4108 33.5981 26.6276 33.1412 25.7792 32.7496C24.9307 32.3579 24.0823 32.1621 23.1686 32.0316C22.7118 31.9663 22.3202 31.9663 21.8633 31.9663H21.7328H21.6676H21.6023H21.537H21.4065C21.3412 31.9663 21.276 31.9663 21.2107 31.9663C21.0149 31.9663 20.7539 32.0316 20.5581 32.0316C19.7096 32.1621 18.8612 32.4885 18.1433 32.9454C17.4254 33.4023 16.7728 33.9244 16.2507 34.5118C15.7285 35.0993 15.337 35.8172 15.0759 36.5352C14.8149 37.2532 14.6843 37.9711 14.6191 38.6891C14.6191 38.8849 14.6191 39.0154 14.6191 39.2112C14.6191 39.2765 14.6191 39.2765 14.6191 39.3418V39.4723C14.6191 39.5376 14.6191 39.6681 14.6191 39.7334C14.6843 40.0597 14.7496 40.4514 14.8149 40.7777C15.0107 41.4304 15.337 42.0178 15.6633 42.54C16.0549 43.0621 16.5117 43.4538 16.9686 43.7801C17.4254 44.1065 17.9475 44.3675 18.4696 44.4981C18.9917 44.6286 19.4486 44.6939 19.9707 44.6939C20.036 44.6939 20.1012 44.6939 20.1665 44.6939H20.2317H20.297C20.3623 44.6939 20.4275 44.6939 20.4275 44.6939C20.4275 44.6939 20.4275 44.6939 20.4928 44.6939H20.5581H20.6233C20.6886 44.6939 20.7539 44.6939 20.8191 44.6939C20.8844 44.6939 20.9497 44.6939 21.0149 44.6286C21.1454 44.6286 21.2107 44.5633 21.3412 44.5633C21.537 44.4981 21.7328 44.4328 21.9286 44.3023C22.1244 44.237 22.2549 44.1065 22.4507 43.9759C22.516 43.9759 22.516 43.9106 22.5812 43.8454C22.777 43.7148 22.777 43.4538 22.6465 43.3232C22.516 43.1927 22.3202 43.1274 22.1897 43.2579C22.1244 43.2579 22.1244 43.3232 22.0591 43.3232C21.9286 43.3885 21.7981 43.4538 21.6023 43.519C21.4718 43.5843 21.276 43.5843 21.1454 43.6496C21.0802 43.6496 20.9496 43.6496 20.8844 43.6496C20.8191 43.6496 20.8191 43.6496 20.7539 43.6496C20.6886 43.6496 20.6886 43.6496 20.6233 43.6496C20.5581 43.6496 20.5581 43.6496 20.4928 43.6496C20.4275 43.6496 20.3623 43.6496 20.3623 43.6496H20.297H20.2317C20.1665 43.6496 20.1665 43.6496 20.1012 43.6496C19.7096 43.5843 19.3833 43.519 18.9917 43.3232C18.6002 43.1927 18.2738 42.9316 17.9475 42.6705C17.6212 42.4094 17.3602 42.0178 17.1644 41.6915C16.9686 41.3651 16.7728 40.9082 16.7075 40.4514C16.6422 40.2556 16.6422 39.9945 16.6422 39.7987C16.6422 39.7334 16.6422 39.6681 16.6422 39.6029V39.5376V39.4723C16.6422 39.3418 16.6422 39.2112 16.7075 39.0807C16.9033 38.1017 17.3602 37.1879 18.1433 36.4047C18.3391 36.2088 18.5349 36.0783 18.7307 35.8825C18.9265 35.752 19.1875 35.6214 19.3833 35.4909C19.6444 35.3603 19.9054 35.2951 20.1012 35.2298C20.3623 35.1645 20.6233 35.0993 20.8844 35.0993C21.0149 35.0993 21.1454 35.0993 21.276 35.0993C21.3412 35.0993 21.3412 35.0993 21.3412 35.0993H21.4718H21.537H21.6676C21.9286 35.0993 22.2549 35.1645 22.516 35.2298C23.1033 35.3603 23.6255 35.5562 24.1476 35.8825C25.1918 36.4699 26.0402 37.3837 26.6276 38.428C26.8887 38.9502 27.0844 39.5376 27.215 40.125C27.215 40.2556 27.2802 40.4514 27.2802 40.5819V40.7124V40.843C27.2802 40.9083 27.2802 40.9082 27.2802 40.9735C27.2802 41.0388 27.2802 41.0388 27.2802 41.1041V41.2346V41.3651C27.2802 41.4304 27.2802 41.5609 27.2802 41.6262C27.2802 41.822 27.2802 41.9526 27.215 42.1484C27.215 42.2789 27.1497 42.4747 27.1497 42.6053C27.1497 42.7358 27.0844 42.9316 27.0192 43.0621C26.9539 43.3885 26.8234 43.7148 26.6928 43.9759C26.4318 44.5633 26.1055 45.1508 25.7139 45.7382C24.9307 46.7825 23.8865 47.6963 22.6465 48.2184C22.0591 48.4795 21.4065 48.6753 20.7539 48.8059C20.4275 48.8711 20.1012 48.8711 19.7749 48.9364H19.7096H19.6444H19.5138H19.3833H19.3181C19.3833 48.9364 19.3181 48.9364 19.3181 48.9364C19.1223 48.9364 18.9917 48.9364 18.796 48.9364C18.0781 48.8711 17.3601 48.7406 16.7075 48.5448C16.0549 48.349 15.337 48.0879 14.7496 47.7615C13.5096 47.1089 12.4001 46.1951 11.4864 45.0855C11.0296 44.5633 10.638 43.9759 10.3769 43.3232C10.0506 42.6705 9.78956 42.0178 9.59377 41.3651C9.39798 40.7124 9.26745 39.9945 9.26745 39.3418V39.2112V39.146V39.0154V38.6238V38.5585V38.428V38.3627C9.26745 38.2975 9.26745 38.1669 9.26745 38.1017C9.26745 37.7753 9.33272 37.3837 9.33272 37.0574C9.39798 36.731 9.46324 36.3394 9.5285 36.013C9.59377 35.6867 9.65903 35.2951 9.78955 34.9687C9.98534 34.316 10.2464 33.6633 10.5075 33.0106C11.0948 31.7705 11.8127 30.6609 12.7264 29.8124C12.9222 29.6166 13.1833 29.3555 13.4443 29.1597C13.7054 28.9639 13.9664 28.7681 14.2275 28.6376C14.4886 28.4418 14.7496 28.3112 15.0106 28.1807C15.1412 28.1154 15.2717 28.0502 15.4022 27.9849C15.4675 27.9849 15.5328 27.9196 15.598 27.9196C15.6633 27.9196 15.7286 27.8544 15.7938 27.8544C16.0549 27.7238 16.3812 27.6585 16.6422 27.528C16.7075 27.528 16.7728 27.4627 16.838 27.4627C16.9033 27.4627 16.9686 27.3975 17.0338 27.3975C17.1644 27.3322 17.3602 27.3322 17.4907 27.2669C17.5559 27.2669 17.6212 27.2017 17.7517 27.2017C17.817 27.2017 17.8823 27.2017 18.0128 27.1364C18.078 27.1364 18.1433 27.1364 18.2738 27.0711H18.4044H18.5349C18.6001 27.0711 18.6654 27.0711 18.796 27.0058C18.8612 27.0058 18.9917 27.0058 19.057 26.9406C19.1223 26.9406 19.2528 26.9406 19.3181 26.9406C19.3833 26.9406 19.4486 26.9406 19.5138 26.9406H19.6444H19.7096H19.7749C19.8402 26.9406 19.9707 26.9406 20.036 26.9406H20.1665C20.1665 26.9406 20.2317 26.9406 20.1665 26.9406H20.2317C20.297 26.9406 20.3623 26.9406 20.4275 26.9406C20.7539 26.9406 21.0149 26.9406 21.3412 26.9406C21.9286 26.9406 22.516 27.0058 23.1033 27.1364C24.2128 27.3322 25.2571 27.7238 26.236 28.1807C27.215 28.6376 28.0634 29.225 28.7813 29.8777C28.8466 29.943 28.8466 29.943 28.9118 30.0082C28.9771 30.0735 28.9771 30.0735 29.0423 30.1388C29.1076 30.2041 29.2381 30.2693 29.3034 30.3999C29.3687 30.5304 29.4992 30.5304 29.5645 30.6609C29.6297 30.7915 29.7603 30.8567 29.8255 30.922C30.1518 31.2484 30.4129 31.5747 30.6739 31.9663C31.196 32.619 31.6529 33.337 31.9792 33.9897C31.9792 34.055 32.0445 34.055 32.0445 34.1202C32.0445 34.1855 32.1097 34.1855 32.1097 34.2508C32.175 34.316 32.175 34.3813 32.2403 34.5118C32.3055 34.5771 32.3055 34.6424 32.3708 34.7729C32.4361 34.8382 32.4361 34.9035 32.5013 35.034C32.6319 35.3603 32.7624 35.6214 32.8277 35.8825C32.9582 36.3394 33.0887 36.731 33.154 37.0574C33.2192 37.1879 33.3498 37.3184 33.4803 37.2532C33.6108 37.2532 33.7413 37.1226 33.7413 36.9921C34.0024 36.2088 34.0024 35.752 33.9371 35.2951Z" fill="url(#paint4_linear_23953_1165)"/>
<path fill-rule="evenodd" clip-rule="evenodd" d="M66.4263 38.3482C66.1487 45.1495 60.8048 50.4933 54.073 50.4933C46.9941 50.4933 41.7891 44.8025 41.7891 37.8624C41.7891 30.9224 47.4799 25.1621 54.42 25.1621C57.543 25.1621 60.5966 26.4807 63.2338 28.9097L61.2212 31.4082C59.2086 29.6731 56.849 28.4933 54.4894 28.4933C49.4231 28.4933 45.2591 32.6574 45.2591 37.793C45.2591 42.9981 49.2149 47.0233 54.2118 47.0233C58.7228 47.0233 62.2622 43.7615 62.9562 39.4586H52.7543V36.4744H66.5651L66.4263 38.3482ZM78.2273 36.6799H76.3534C74.2714 36.6799 72.6058 38.3455 72.6058 40.4275V50.2824H69.2746V33.4875H72.0506V34.8755C72.9528 33.9733 74.4102 33.4875 76.0064 33.4875H79.6153L78.2273 36.6799ZM93.7008 50.2854H96.5462V33.421H93.6314V35.5724C92.174 34.115 90.092 33.2128 87.8712 33.2128C82.5273 33.2128 78.3633 38.0709 79.4043 43.4147C79.8901 46.2601 81.8333 48.6198 84.4705 49.7996C88.01 51.3264 91.48 50.2854 93.7008 48.134V50.2854ZM87.9406 36.6135C91.2718 36.6135 93.8396 39.7365 93.0762 43.1371C92.5904 45.1497 90.9248 46.7459 88.9122 47.0929C85.5116 47.7176 82.6661 45.1497 82.6661 41.8879C82.6661 38.9731 85.0257 36.6135 87.9406 36.6135ZM103.279 32.518V33.4896H108.623V36.4739H103.279V50.354H99.9474V32.6568C99.9474 28.9786 102.585 26.7578 105.916 26.7578H109.941L108.623 29.9502H105.916C104.458 29.9502 103.279 31.0606 103.279 32.518ZM123.613 50.2854H126.459L126.528 33.421H123.613V35.5724C122.156 34.115 120.074 33.2128 117.853 33.2128C112.509 33.2128 108.276 38.0709 109.317 43.4147C109.803 46.2601 111.746 48.6198 114.383 49.7996C117.922 51.3264 121.392 50.2854 123.613 48.134V50.2854ZM117.922 36.6135C121.254 36.6135 123.821 39.7365 123.058 43.1371C122.572 45.1497 120.907 46.7459 118.894 47.0929C115.493 47.7176 112.648 45.1497 112.648 41.8879C112.648 38.9731 115.008 36.6135 117.922 36.6135ZM144.432 40.3611V50.2854H141.101V40.3611C141.101 38.2791 139.366 36.6135 137.353 36.6135C135.202 36.6135 133.536 38.2791 133.536 40.3611V50.2854H130.205V33.4904H132.981V34.9478C134.161 33.8374 135.826 33.2128 137.492 33.2128C141.378 33.2128 144.432 36.4053 144.432 40.3611ZM161.367 50.2854H164.212L164.282 33.421H161.367V35.5724C159.909 34.115 157.827 33.2128 155.607 33.2128C150.263 33.2128 146.029 38.0709 147.07 43.4147C147.556 46.2601 149.499 48.6198 152.137 49.7996C155.676 51.3264 159.146 50.2854 161.367 48.134V50.2854ZM155.676 36.6135C159.007 36.6135 161.575 39.7365 160.812 43.1371C160.326 45.1497 158.591 46.7459 156.648 47.0929C153.247 47.7176 150.402 45.1497 150.402 41.8879C150.402 38.9731 152.761 36.6135 155.676 36.6135Z" fill="black"/>
<path d="M179.224 51.7848L176.401 49.6884L182.493 41.3851C182.163 41.4291 181.882 41.4621 181.651 41.4842C181.42 41.5062 181.233 41.5172 181.09 41.5172C179.032 41.5172 177.249 40.7303 175.741 39.1566C174.244 37.5939 173.496 35.712 173.496 33.511C173.496 31.167 174.327 29.1641 175.989 27.5023C177.661 25.8295 179.664 24.9932 181.997 24.9932C184.32 24.9932 186.339 25.8185 188.056 27.4693C189.772 29.109 190.631 31.0459 190.631 33.2799C190.631 35.2608 189.794 37.4013 188.122 39.7013L179.224 51.7848ZM177.243 33.2304C177.243 34.606 177.711 35.7616 178.646 36.697C179.593 37.6434 180.732 38.1166 182.063 38.1166C183.395 38.1166 184.529 37.6489 185.464 36.7135C186.41 35.7671 186.884 34.628 186.884 33.2964C186.884 31.9648 186.41 30.8258 185.464 29.8794C184.529 28.944 183.39 28.4762 182.047 28.4762C180.726 28.4762 179.598 28.944 178.663 29.8794C177.717 30.8258 177.243 31.9428 177.243 33.2304Z" fill="black"/>
<defs>
<linearGradient id="paint0_linear_23953_1165" x1="124.495" y1="-12" x2="124.495" y2="104" gradientUnits="userSpaceOnUse">
<stop stop-color="#FC7436"/>
<stop offset="0.147508" stop-color="#FD9428"/>
<stop offset="1" stop-color="#FFD00E"/>
</linearGradient>
<radialGradient id="paint1_radial_23953_1165" cx="0" cy="0" r="1" gradientUnits="userSpaceOnUse" gradientTransform="translate(117.133 41.7037) rotate(90) scale(44.037 44.6298)">
<stop offset="0.4836" stop-color="#FF8A00" stop-opacity="0"/>
<stop offset="1" stop-color="#FF5151"/>
</radialGradient>
<radialGradient id="paint2_radial_23953_1165" cx="0" cy="0" r="1" gradientUnits="userSpaceOnUse" gradientTransform="translate(119.203 40.6296) rotate(90) scale(50.4815 51.161)">
<stop offset="0.748338" stop-color="#FF6363" stop-opacity="0"/>
<stop offset="0.959979" stop-color="#AF5AFF"/>
</radialGradient>
<radialGradient id="paint3_radial_23953_1165" cx="0" cy="0" r="1" gradientUnits="userSpaceOnUse" gradientTransform="translate(117.133 46.1135) scale(93.865 32.9221)">
<stop stop-color="#FFE141"/>
<stop offset="1" stop-color="#FFDF39" stop-opacity="0"/>
</radialGradient>
<linearGradient id="paint4_linear_23953_1165" x1="16.9884" y1="64.4692" x2="37.3666" y2="25.4111" gradientUnits="userSpaceOnUse">
<stop stop-color="#FFE405"/>
<stop offset="1" stop-color="#FB6B39"/>
</linearGradient>
</defs>
</svg>
