<?xml version="1.0" encoding="utf-8"?>
<!-- Generator: Adobe Illustrator 24.2.1, SVG Export Plug-In . SVG Version: 6.00 Build 0)  -->
<svg version="1.1"
	 id="svg2" xmlns:cc="http://creativecommons.org/ns#" xmlns:dc="http://purl.org/dc/elements/1.1/" xmlns:rdf="http://www.w3.org/1999/02/22-rdf-syntax-ns#" xmlns:svg="http://www.w3.org/2000/svg"
	 xmlns="http://www.w3.org/2000/svg" xmlns:xlink="http://www.w3.org/1999/xlink" x="0px" y="0px" viewBox="0 0 164 33.9"
	 style="enable-background:new 0 0 164 33.9;" xml:space="preserve">
<style type="text/css">
	.st0{fill:#62B6E8;}
	.st1{fill:#1C63B7;}
	.st2{fill:url(#path38_1_);}
	.st3{fill:url(#path62_1_);}
	.st4{fill:#0776BB;}
	.st5{clip-path:url(#SVGID_2_);}
	.st6{fill:url(#path3043_1_);}
	.st7{clip-path:url(#SVGID_4_);}
	.st8{fill:url(#path3852_1_);}
	.st9{clip-path:url(#SVGID_6_);}
	.st10{fill:url(#path3923_1_);}
	.st11{clip-path:url(#SVGID_8_);}
	.st12{fill:url(#path3947_1_);}
	.st13{fill:#176FC1;}
</style>
<g id="g10" transform="matrix(1.25,0,0,-1.25,0,177.1625)">
	<g id="g12" transform="scale(0.1,0.1)">
		<g id="g3058">
			<path id="path3110" class="st0" d="M129,1415.5c-1.8,0-3.6-0.1-5.5-0.1c-8-0.4-16.1-1.4-23.9-3c0,0,0,0,0,0
				c-23.4-4.9-45.5-15.6-62.7-32.4c-20.4-19.8-32.9-46.9-34.1-75.3c-0.5-11.5,1-22.9,4.1-33.8c0,0,0,0,0,0c0,0,0,0,0,0
				c1.4-5.1,3.2-10.1,5.4-14.9c0.4-0.8,0.8-1.6,1.2-2.5c0.2-0.3,0.3-0.7,0.5-1c3.2-6.7,7.1-13,11.6-18.9c0,0,0.1-0.1,0.1-0.1
				c0.1-0.2,0.3-0.3,0.4-0.5c0-0.1,0.1-0.1,0.1-0.2c0.1-0.2,0.3-0.3,0.4-0.5c0.1-0.2,0.2-0.3,0.4-0.5c0.1-0.1,0.1-0.2,0.2-0.2
				c0.1-0.1,0.2-0.3,0.3-0.4c0-0.1,0.1-0.1,0.1-0.2c0.1-0.1,0.3-0.3,0.4-0.4c0,0,0.1-0.1,0.1-0.1c0.1-0.2,0.2-0.3,0.4-0.5
				c0.4-0.5,0.9-1,1.4-1.6c0,0,0,0,0,0c0.1-0.2,0.3-0.4,0.4-0.5c0,0,0,0,0,0c0.1-0.2,0.3-0.3,0.4-0.5c0.5-0.5,0.9-1,1.4-1.6
				c0,0,0,0,0,0c0.1-0.1,0.3-0.2,0.4-0.4c0.1-0.1,0.1-0.1,0.2-0.2c0.1-0.1,0.2-0.3,0.3-0.4c0.1-0.1,0.2-0.2,0.2-0.2
				c0.1-0.1,0.2-0.2,0.3-0.3c0.2-0.2,0.3-0.3,0.5-0.5c0.5-0.5,1.1-1.1,1.6-1.6c3.4-3.5,7.1-6.7,10.9-9.7c0.7-0.4,1.4-0.6,1.9-0.6
				c1.2,0,1.9,0.9,1.9,1.9c0,0.5-0.2,1-0.6,1.5c-14.6,17.3-22.2,39.6-22.2,62c0,8.1,1,16.2,3,24.1c6.4,25.1,23.4,47.6,46.9,59.2
				c11.1,5.5,23.2,8.2,35.4,8.2c15,0,30-4.2,43-12.3c12.2-7.6,22.3-18.3,29.5-30.6c0.6-1.1,1.4-1.9,2.3-2.6c2.6-2.2,6.1-3,9.8-3.3
				H254c0.4,0,0.9,0.1,1.3,0.2c1,0.3,1.9,0.7,2.8,1.3c0.8,0.5,1.4,1.1,1.9,1.8c0.9,1.4,1.2,2.7,1.2,4.1c0,0.2,0,0.4,0,0.6
				c0,2.4-0.9,4.8-2,7.1c-0.8,1.6-1.7,3.1-2.5,4.6c-1.7,3.3-3.5,6.6-5.5,9.8c-3.6,5.9-7.6,11.5-12.1,16.7c-3.9,4.6-8.1,9-12.6,13.1
				c-5.8,5.3-12,10.1-18.7,14.3c-23,14.7-50,22.3-77.3,22.5H129z M229,1375.5c1.6-2.2,3.1-4.4,4.6-6.6
				C232.1,1371.2,230.6,1373.4,229,1375.5z M143.6,1283.9c-4.1,0-7.4-0.2-10.6-3c-1.6-1.4-3.1-2.8-5-3.7c-2-0.8-4.2-1-6.4-1H66.6
				c0,0-0.1,0-0.1,0c-1.3,0-2.5-0.4-2.5-1.8c0-0.1,0-0.1,0-0.1c0-1.6,1.2-2.5,2.7-3.1l55.5-25.8c4.5-1.7,8.2-6.1,8.5-10.7l0.2-3
				c0-0.9,0.2-1.8,0.4-2.7c0,0,0,0,0,0c0.1-0.3,0.2-0.6,0.2-0.9c0.1-0.4,0.2-0.9,0.4-1.3c0-0.1,0.1-0.2,0.2-0.4
				c0.2-0.6,0.5-1.1,0.8-1.6c0,0,0,0,0,0c0-0.1,0.1-0.1,0.1-0.2c0,0,0,0,0,0c0.1-0.1,0.2-0.2,0.2-0.3c0,0,0-0.1,0-0.1
				c0,0,0.1-0.1,0.1-0.1c0,0,0.1-0.1,0.1-0.1c0,0,0-0.1,0-0.1c0-0.1,0.1-0.1,0.1-0.2c0,0,0.1,0,0.1,0c0.1-0.1,0.1-0.2,0.2-0.2
				c0,0,0,0,0,0c0.1-0.1,0.1-0.1,0.2-0.2c0,0,0,0,0,0c0.1-0.1,0.2-0.1,0.2-0.2c0,0,0,0,0,0c0.2-0.1,0.3-0.3,0.5-0.4c0,0,0,0,0,0
				c0.1-0.1,0.2-0.1,0.2-0.1c0,0,0,0,0,0c0.1-0.1,0.2-0.1,0.3-0.2c0.4-0.2,6.1-3.9,6.1-3.9l4.6-2.9c0.3-0.2,0.6-0.3,0.8-0.5
				c0,0,0,0,0,0c0.9-0.5,1.4-0.9,2-1.7l0.4-0.5c0,0,0,0,0,0c2-2.6,3.5-6.4,3.5-10.4c0-4.3-1.8-8.9-6.5-12.4c0,0,0,0,0,0
				c-1.1-0.8-2.1-1.6-3.3-2.3c-10.9-7-23.1-11.8-35.9-13.9c-4.7-0.8-9.3-1.1-14-1.1c-9,0-18,1.4-26.6,4c-2.2,0.7-4.3,1.4-6.4,2.3
				c-0.3,0.1-0.6,0.2-0.9,0.4c-0.8,0.3-1.7,0.7-2.5,1c-19.9,8.7-36.2,24-48.1,42c-0.2,0.2-0.4,0.5-0.6,0.7c-0.4,0.5-1,0.8-1.6,0.8
				c-0.7,0-1.3-0.3-1.6-1.1c-0.3-1,1.3-3.4,1.9-4.4c1.7-3,3.6-5.9,5.5-8.8c3.9-5.7,8.2-11.1,12.9-16.2c9.5-10.2,20.7-18.9,32.8-25.8
				c21.8-12.4,46.8-18.8,71.8-18.8c4.8,0,9.6,0.2,14.4,0.7c0.1,0,0.1,0,0.2,0c0.3,0,0.5,0.1,0.8,0.1c34.2,3.6,66.7,19.5,89.9,44.7
				c9.8,10.7,17.9,23,23.8,36.2c3,6.9,5.4,14.1,7.2,21.4c0.9,3.6,1.6,7.2,2.2,10.9c0.6,3.8,1,7.5,1.2,11.3c0,0.2,0,0.5,0,0.7v0.8
				c-0.1,4.6-2.5,8.2-7.4,8.8h-11.1L143.6,1283.9z"/>
			<path id="path20" class="st1" d="M130.2,1148.3c-25.1,0-50,6.4-71.9,18.8c-12.1,6.9-23.2,15.6-32.8,25.8
				c-4.7,5-9.1,10.5-12.9,16.2c-2,2.8-3.8,5.8-5.5,8.8c-0.5,1-2.2,3.3-1.9,4.4c0.2,0.8,0.9,1.1,1.5,1.1c0.6,0,1.3-0.3,1.7-0.8
				c0.2-0.2,0.4-0.5,0.5-0.7c11.8-18,28.2-33.3,48.1-42c24.6-20.1,55.2-30.9,85.9-30.9c0.6,0,1.2,0,1.8,0c0.3,0,0.5,0.1,0.7,0.1
				C140.4,1148.5,135.3,1148.3,130.2,1148.3 M33.8,1223.6c-0.2,0.2-0.3,0.4-0.5,0.5C33.5,1223.9,33.7,1223.7,33.8,1223.6 M33,1224.4
				c-0.1,0.1-0.1,0.2-0.2,0.2C32.9,1224.6,32.9,1224.5,33,1224.4 M32.5,1225c-0.1,0.1-0.1,0.1-0.2,0.2
				C32.3,1225.1,32.4,1225.1,32.5,1225 M31.9,1225.6C31.9,1225.6,31.9,1225.6,31.9,1225.6C31.9,1225.6,31.9,1225.6,31.9,1225.6
				 M30.5,1227.2L30.5,1227.2C30.5,1227.2,30.5,1227.2,30.5,1227.2 M30.1,1227.7C30,1227.7,30,1227.7,30.1,1227.7
				C30,1227.7,30,1227.7,30.1,1227.7 M29.6,1228.2C29.6,1228.2,29.6,1228.3,29.6,1228.2C29.6,1228.3,29.6,1228.2,29.6,1228.2
				 M28.2,1229.8C28.2,1229.8,28.2,1229.9,28.2,1229.8C28.2,1229.9,28.2,1229.8,28.2,1229.8 M27.8,1230.3c0,0-0.1,0.1-0.1,0.1
				C27.8,1230.4,27.8,1230.4,27.8,1230.3 M27.4,1230.9c0,0.1-0.1,0.1-0.1,0.2C27.3,1231,27.3,1230.9,27.4,1230.9 M26.9,1231.5
				c-0.1,0.1-0.1,0.2-0.2,0.2C26.8,1231.6,26.9,1231.6,26.9,1231.5 M26.3,1232.2c-0.1,0.2-0.2,0.3-0.4,0.5
				C26.1,1232.5,26.2,1232.4,26.3,1232.2 M25.8,1232.8c-0.1,0.2-0.3,0.3-0.4,0.5C25.6,1233.2,25.7,1233,25.8,1232.8 M25.4,1233.5
				c-15.4,20.3-23.7,45.5-22.7,71.2c1.1,28.4,13.7,55.5,34.1,75.3c17.2,16.7,39.3,27.5,62.7,32.4l0,0c-11.3-3.2-22.3-7.9-32.8-14.3
				c-39.2-24.2-60.6-66.1-61-109.8v-2.2c0-5.1,0.4-10.2,1-15.3C10.5,1257.4,16.9,1244.7,25.4,1233.5"/>
			
				<radialGradient id="path38_1_" cx="-10216.2754" cy="2878.6963" r="131.9869" gradientTransform="matrix(0.125 0 0 0.125 1407 920.8375)" gradientUnits="userSpaceOnUse">
				<stop  offset="0" style="stop-color:#007BC1"/>
				<stop  offset="0.8444" style="stop-color:#007BC1"/>
				<stop  offset="1" style="stop-color:#015DA6"/>
			</radialGradient>
			<path id="path38" class="st2" d="M143,1149c-30.7,0-61.3,10.8-85.9,30.9c0.8-0.4,1.7-0.7,2.5-1.1c0.3-0.1,0.6-0.3,1-0.4
				c2.1-0.8,4.2-1.6,6.4-2.2c17.2-11,36.4-17.2,56.5-17.2c58.7,0,108.6,52,127.8,124.9h11.1c5-0.6,7.3-4.3,7.4-8.8v-0.8
				c0-0.2,0-0.5,0-0.7c-0.2-3.8-0.6-7.5-1.2-11.3c-0.5-3.7-1.3-7.3-2.2-10.9c-1.8-7.3-4.2-14.5-7.2-21.4
				c-5.9-13.3-14-25.6-23.8-36.3c-23.2-25.3-55.7-41.2-89.9-44.7l0,0c-0.2,0-0.5,0-0.7-0.1C144.1,1149,143.5,1149,143,1149"/>
			
				<linearGradient id="path62_1_" gradientUnits="userSpaceOnUse" x1="-9356.2236" y1="3409.7993" x2="-9345.4434" y2="3416.1072" gradientTransform="matrix(0.125 0 0 0.125 1407 920.8375)">
				<stop  offset="0" style="stop-color:#0994DC"/>
				<stop  offset="1" style="stop-color:#1C63B7"/>
			</linearGradient>
			<path id="path62" class="st3" d="M255.2,1319.8c-5.6,22.1-15.5,42.2-28.7,59c4.5-4.1,8.7-8.4,12.6-13.1
				c4.5-5.3,8.5-10.9,12.1-16.8c1.9-3.2,3.7-6.4,5.4-9.7c0.8-1.4,1.7-3,2.5-4.6c1.1-2.3,2-4.7,2-7.1c0-0.2,0-0.4,0-0.6
				c0-1.4-0.3-2.7-1.2-4.1c-0.5-0.7-1.2-1.3-1.9-1.8 M258,1321.1c-0.9-0.6-1.8-1-2.8-1.3"/>
			<path id="path150" class="st4" d="M48.2,1211.6c-0.5,0-1.2,0.2-1.9,0.6c-3.8,3-7.5,6.2-10.9,9.7c-12,16.5-19.7,37.3-19.7,57.4
				c0,52.1,40.8,94.3,91,94.3c35.1,0,65.6-20.6,80.8-50.7c-0.9,0.7-1.6,1.6-2.2,2.7c-7.2,12.4-17.3,23-29.5,30.6
				c-13,8.1-28,12.3-43,12.3c-12.1,0-24.2-2.7-35.4-8.2c-23.6-11.6-40.5-34-46.9-59.1c-2-7.9-3-16-3-24.1c0-22.4,7.5-44.7,22.2-62
				c0.4-0.4,0.6-1,0.6-1.5C50.1,1212.6,49.4,1211.6,48.2,1211.6"/>
			<g>
				<defs>
					<path id="SVGID_1_" d="M123.4,1159.1c-20.2,0-39.3,6.1-56.5,17.2c8.6-2.6,17.6-4,26.6-4c4.7,0,9.4,0.4,14.1,1.1
						c12.8,2.1,25,7,35.8,13.9c1.2,0.7,2.3,1.4,3.3,2.2c0,0,0,0,0,0c0,0,0,0,0,0c10.6,7.8,15.5,19.5,11.3,28.7
						c-3.3,7.2-11.4,11.2-21,11.2c-0.1,0-0.1,0-0.2,0c0,0-0.1,0-0.1,0c-1.8,0-3.7-0.2-5.7-0.5l0,0l0,0c0.3-1.5,0.8-3,1.6-4.2
						c-1.3,2-1.8,4.5-2,6.9l-0.2,3c-0.3,4.5-4,9-8.5,10.6l-55.5,25.8c-1.5,0.6-2.7,1.4-2.7,3c0,0.1,0,0.1,0,0.2
						c0.1,1.4,1.3,1.8,2.6,1.8c0,0,0.1,0,0.1,0h54.8c2.2,0,4.4,0.2,6.4,1.1c2,0.8,3.4,2.3,5.1,3.6c3.2,2.8,6.5,3,10.6,3h107.7
						C232.1,1211,182.1,1159.1,123.4,1159.1 M144.8,1188.1c0.7,0.4,1.3,0.9,2,1.3c0,0,0,0,0,0C146.1,1189,145.5,1188.6,144.8,1188.1
						 M135.4,1222C135.4,1222.1,135.3,1222.1,135.4,1222C135.3,1222.1,135.4,1222.1,135.4,1222 M135.1,1222.3
						C135.1,1222.3,135.1,1222.3,135.1,1222.3C135.1,1222.3,135.1,1222.3,135.1,1222.3 M134.5,1222.7
						C134.5,1222.7,134.5,1222.7,134.5,1222.7C134.5,1222.7,134.5,1222.7,134.5,1222.7 M134.3,1222.9
						C134.2,1223,134.2,1223,134.3,1222.9C134.2,1223,134.2,1223,134.3,1222.9 M134,1223.2C134,1223.2,134,1223.2,134,1223.2
						C134,1223.2,134,1223.2,134,1223.2 M133.8,1223.5C133.7,1223.5,133.7,1223.5,133.8,1223.5
						C133.7,1223.5,133.7,1223.5,133.8,1223.5 M133.5,1223.7C133.5,1223.7,133.5,1223.8,133.5,1223.7
						C133.5,1223.8,133.5,1223.7,133.5,1223.7 M133.4,1223.9c0,0-0.1,0.1-0.1,0.1C133.3,1224,133.3,1224,133.4,1223.9 M133.2,1224.2
						c-0.1,0.1-0.1,0.2-0.2,0.3C133,1224.4,133.1,1224.3,133.2,1224.2 M132.9,1224.5c0,0.1-0.1,0.1-0.1,0.2
						C132.9,1224.6,132.9,1224.6,132.9,1224.5"/>
				</defs>
				<clipPath id="SVGID_2_">
					<use xlink:href="#SVGID_1_"  style="overflow:visible;"/>
				</clipPath>
				<g id="g66" class="st5">
					
						<radialGradient id="path3043_1_" cx="897.8313" cy="-130.4962" r="11.7869" gradientTransform="matrix(1.544 0 0 -1.4622 -1250.1014 1093.3018)" gradientUnits="userSpaceOnUse">
						<stop  offset="0" style="stop-color:#5AB0E6"/>
						<stop  offset="0.563" style="stop-color:#3298DB"/>
						<stop  offset="1" style="stop-color:#1B64B8"/>
					</radialGradient>
					<path id="path3043" class="st6" d="M63.3,1284.6v-126.2h188.6v126.2H63.3z"/>
				</g>
			</g>
			<g>
				<defs>
					<path id="SVGID_3_" d="M35.4,1221.9c-0.5,0.5-1.1,1.1-1.6,1.6l0,0c-0.2,0.2-0.3,0.4-0.5,0.5c-0.1,0.1-0.2,0.2-0.3,0.3
						c-0.1,0.1-0.2,0.2-0.2,0.2c-0.1,0.1-0.2,0.2-0.3,0.4c-0.1,0.1-0.1,0.1-0.2,0.2c-0.1,0.1-0.3,0.3-0.4,0.4c0,0,0,0,0,0
						c-0.5,0.5-0.9,1-1.4,1.5c0,0,0,0,0,0c-0.1,0.2-0.3,0.3-0.4,0.5c0,0,0,0,0,0c-0.1,0.2-0.3,0.3-0.4,0.5c0,0,0,0,0,0
						c-0.4,0.5-0.9,1-1.3,1.6c0,0,0,0,0,0c-0.1,0.2-0.3,0.3-0.4,0.5c0,0-0.1,0.1-0.1,0.1c-0.1,0.1-0.2,0.3-0.4,0.4
						c0,0.1-0.1,0.1-0.1,0.2c-0.1,0.1-0.2,0.3-0.3,0.4c-0.1,0.1-0.1,0.2-0.2,0.2c-0.1,0.2-0.3,0.3-0.4,0.5c-0.1,0.2-0.2,0.3-0.4,0.5
						c0,0.1-0.1,0.1-0.1,0.2c-0.1,0.2-0.3,0.3-0.4,0.5c0,0-0.1,0.1-0.1,0.1c-8.5,11.2-14.8,23.9-18.6,37.3c-0.6,5.1-0.9,10.2-1,15.3
						v2.2c0.4,43.7,21.9,85.6,61,109.8c10.4,6.4,21.5,11.2,32.8,14.3c7.9,1.7,15.9,2.7,24,3c1.8,0.1,3.6,0.1,5.5,0.1h1.7
						c27.2-0.1,54.3-7.8,77.2-22.5c6.6-4.2,12.9-9,18.7-14.3c13.2-16.8,23.1-36.9,28.7-59c-0.4-0.1-0.8-0.2-1.2-0.2h-56.7
						c-3.7,0.3-7.2,1.1-9.8,3.3c-15.2,30.2-45.6,50.7-80.8,50.7c-50.3,0-91-42.2-91-94.3C15.7,1259.3,23.5,1238.4,35.4,1221.9
						 M113,1401.5c0.2-11,20.9-26.4,49-35.7c14.4-4.8,28.2-7.2,39.1-7.2c12.3,0,20.9,3,22.9,8.8c0.3,0.8,0.4,1.6,0.4,2.4
						c0,0.1,0,0.2,0,0.4c-0.2,11-20.9,26.4-49,35.7c-14.4,4.8-28.1,7.2-39.1,7.2c-12.3,0-20.9-3-22.9-8.8c-0.3-0.8-0.4-1.6-0.4-2.4
						C113,1401.8,113,1401.7,113,1401.5"/>
				</defs>
				<clipPath id="SVGID_4_">
					<use xlink:href="#SVGID_3_"  style="overflow:visible;"/>
				</clipPath>
				<g id="g102" class="st7">
					
						<radialGradient id="path3852_1_" cx="660.7048" cy="-1288.7712" r="15.664" fx="669.0134" fy="-1279.3612" gradientTransform="matrix(0.6391 0.732 0.9299 -0.8119 929.2427 -249.0611)" gradientUnits="userSpaceOnUse">
						<stop  offset="0" style="stop-color:#65B7E8"/>
						<stop  offset="0.5014" style="stop-color:#50AEE6"/>
						<stop  offset="0.7963" style="stop-color:#1D8BD4"/>
						<stop  offset="1" style="stop-color:#1B64B8"/>
					</radialGradient>
					<path id="path3852" class="st8" d="M5.2,1416v-194.8h250.6V1416H5.2z"/>
				</g>
			</g>
			<g>
				<defs>
					<path id="SVGID_5_" d="M201.1,1358.7c-10.9,0-24.7,2.4-39.1,7.2c-28.1,9.4-48.7,24.7-49,35.7v0.4c0,0.8,0.2,1.6,0.4,2.4
						c2,5.9,10.6,8.8,22.9,8.8c10.9,0,24.7-2.4,39.1-7.2c28.1-9.4,48.8-24.7,49-35.7v-0.4c0-0.8-0.2-1.6-0.4-2.4
						C222,1361.7,213.4,1358.7,201.1,1358.7"/>
				</defs>
				<clipPath id="SVGID_6_">
					<use xlink:href="#SVGID_5_"  style="overflow:visible;"/>
				</clipPath>
				<g id="g126" class="st9">
					
						<radialGradient id="path3923_1_" cx="743.0474" cy="-110.2331" r="7.0259" gradientTransform="matrix(1.3383 0 0 -1.1599 -828.9424 1282.1321)" gradientUnits="userSpaceOnUse">
						<stop  offset="0" style="stop-color:#82C3EC"/>
						<stop  offset="0.6519" style="stop-color:#65B6E8"/>
						<stop  offset="1" style="stop-color:#2DA0E0"/>
					</radialGradient>
					<path id="path3923" class="st10" d="M112.5,1414v-55.8h112.4v55.8H112.5z"/>
				</g>
			</g>
			<g>
				<defs>
					<path id="SVGID_7_" d="M146.8,1189.5c4.6,3.5,6.4,8,6.4,12.4l0,0c0,4.1-1.5,7.9-3.5,10.5c-0.7,0.8-1.9,1.7-2.4,2.1
						c0.5-0.4,1.7-1.4,2.4-2.2l-0.5,0.5c-0.7,0.8-1.2,1.2-2.1,1.7c0,0,0,0,0.1,0c-0.3,0.2-0.6,0.4-0.9,0.6l-4.6,2.9
						c0,0-5.7,3.6-6.1,3.9c-0.1,0.1-0.2,0.1-0.3,0.2c0,0,0,0-0.1,0c-0.1,0.1-0.2,0.1-0.2,0.2c0,0,0,0-0.1,0
						c-0.2,0.1-0.4,0.3-0.5,0.4c0,0,0,0,0,0c-0.1,0.1-0.1,0.1-0.2,0.2c0,0,0,0-0.1,0c-0.1,0.1-0.1,0.1-0.2,0.2c0,0,0,0,0,0
						c-0.1,0.1-0.1,0.2-0.2,0.2c0,0,0,0-0.1,0.1c0,0.1-0.1,0.1-0.1,0.2c0,0-0.1,0.1-0.1,0.1c0,0-0.1,0.1-0.1,0.1
						c0,0-0.1,0.1-0.1,0.1c0,0-0.1,0.1-0.1,0.1c-0.1,0.1-0.1,0.2-0.2,0.3c0,0,0,0,0,0.1c0,0.1-0.1,0.1-0.1,0.2c0,0,0,0,0,0
						c-0.8,1.3-1.3,2.7-1.6,4.2l0,0c1.9,0.3,3.8,0.5,5.7,0.5h0.3c9.6-0.1,17.7-4,21-11.2C162.4,1209,157.4,1197.3,146.8,1189.5"/>
				</defs>
				<clipPath id="SVGID_8_">
					<use xlink:href="#SVGID_7_"  style="overflow:visible;"/>
				</clipPath>
				<g id="g238" class="st11">
					
						<linearGradient id="path3947_1_" gradientUnits="userSpaceOnUse" x1="146.6348" y1="164.6589" x2="146.6348" y2="169.7781" gradientTransform="matrix(1 0 0 -1 -4.000000e-03 1394.6001)">
						<stop  offset="0" style="stop-color:#3A9DDD"/>
						<stop  offset="0.56" style="stop-color:#55A1DD"/>
						<stop  offset="0.8261" style="stop-color:#64A4DE"/>
						<stop  offset="1" style="stop-color:#65A2DD"/>
					</linearGradient>
					<path id="path3947" class="st12" d="M130.4,1229.9v-41h32.5v41H130.4z"/>
				</g>
			</g>
		</g>
		<g id="g3253">
			<path id="path260" class="st13" d="M403.5,1335.3h-43.6c-12.5,0-21.4-2.7-27.5-8.7c-6-6-9-15-9-27.5v-33.6
				c0-23.8,10.8-36.2,33.1-37.1H413v44.6c0,3.1-1,5.7-3,7.5c-1.8,1.6-4.2,2.7-6.7,2.7c-2.6,0-5-1.1-6.8-2.7c-2-1.8-3.1-4.4-3.1-7.5
				v-25h-33.8c-10.7,0-16.6,6.2-16.6,17v34.1c0,10.3,5,16.5,15.3,16.5H413v9.9C413,1332.6,410.2,1335.3,403.5,1335.3"/>
			<path id="path262" class="st13" d="M498.7,1283.3h-50v15.8c0,10.8,5.9,16.7,16.6,16.7h33.4V1283.3z M508.5,1335.3h-21.7l-14.9,0
				c-3.5,0-3.5,0-4.7,0h-1.4l-0.7,0c-24.5,0-36-11.7-36-36.9v-59.8c0-3.1,1-5.7,3-7.5c1.8-1.6,4.2-2.7,6.7-2.7c2.6,0,5,1.1,6.8,2.7
				c2,1.8,3,4.4,3,7.5v9.3h0v15.5h50v-24.8c0-3.1,1-5.7,3-7.5c1.8-1.6,4.2-2.7,6.7-2.7c2.6,0,5,1.1,6.8,2.7c2,1.8,3.1,4.4,3.1,7.5
				v9.3h0v77.7C518.3,1332.4,515.3,1335.3,508.5,1335.3"/>
			<path id="path264" class="st13" d="M675.8,1298.5c0,25.1-11.4,36.9-36,36.9l-47.9,0H544c-7.2,0-9.9-2.9-9.9-9.7v-86.9
				c0-3.1,1-5.7,3-7.5c1.8-1.6,4.2-2.7,6.7-2.7c2.6,0,5,1.1,6.8,2.7c2,1.8,3.1,4.4,3.1,7.5v27.5h0v49.5h25.1
				c10.7,0,16.3-5.9,16.3-16.7v-60.3c0-3.1,1-5.7,3-7.5c1.8-1.6,4.2-2.7,6.7-2.7c2.6,0,5,1.1,6.8,2.7c2,1.8,3.1,4.4,3.1,7.5v77h25.1
				c10.7,0,16.4-5.9,16.4-16.7v-60.3c0-3.1,1-5.7,3-7.5c1.8-1.6,4.2-2.7,6.7-2.7c2.6,0,5,1.1,6.8,2.7c2,1.8,3.1,4.4,3.1,7.5v27.5h0
				L675.8,1298.5"/>
			<path id="path266" class="st13" d="M771,1315.7c3.1,0,5.7,1,7.5,3c1.6,1.8,2.7,4.2,2.7,6.7c0,2.6-1.1,5-2.7,6.8
				c-1.8,2-4.4,3.1-7.5,3.1h-69.6c-3.5,0-5.9-0.8-7.5-2.3c-1.6-1.6-2.3-4-2.3-7.5v-60.2c0-12.6,2.9-21.7,8.9-27.8
				c5.9-6.1,14.8-9.1,27.1-9.1h30.6v0H771c3.1,0,5.7,1,7.5,3c1.6,1.8,2.7,4.2,2.7,6.7c0,2.6-1.1,5-2.7,6.8c-1.8,2-4.4,3.1-7.5,3.1
				h-43.2c-10.7,0-16.6,5.9-16.6,16.6v8.7h42.3c3.1,0,5.7,1,7.5,3c1.6,1.8,2.7,4.2,2.7,6.7c0,2.6-1.1,5-2.7,6.8
				c-1.8,2-4.4,3.1-7.5,3.1h-27.5c-6.4,0-11.4,0-11.4,0h-3.3v22.7H771"/>
			<path id="path268" class="st13" d="M876.4,1335.3H807c-6.9,0-9.8-2.7-9.8-9.6v-42.3c0-0.8,0-1.6,0-2.3v-42.6c0-3.1,1-5.7,3-7.5
				c1.8-1.6,4.2-2.7,6.7-2.7c2.6,0,5,1.1,6.8,2.7c2,1.8,3,4.4,3,7.5v9.4h0v25.4h42.3c3.1,0,5.7,1,7.5,3c1.6,1.8,2.7,4.2,2.7,6.7
				c0,2.6-1.1,5-2.7,6.8c-1.8,2-4.4,3.1-7.5,3.1h-20.6c-9.4,0-18.4,0-18.4,0h-3.3v22.7h40.8v0h18.8c3.1,0,5.7,1,7.5,3
				c1.6,1.8,2.7,4.2,2.7,6.7c0,2.6-1.1,5-2.7,6.8C882.1,1334.3,879.5,1335.3,876.4,1335.3"/>
			<path id="path270" class="st13" d="M960.1,1265c0-10.8-5.9-16.9-16.5-16.9h-17.6c-10.4,0-16.2,6.1-16.2,16.9v34.5
				c0,10.5,5.7,16.3,16.2,16.3h17.6c10.7,0,16.5-5.7,16.5-15.9V1265z M943.5,1335.3h-17.4c-24.6,0-36.1-11.3-36.1-36v-34.7
				c0-24.5,11.3-36.1,35.7-36.1h17.9c24.5,0,36,11.9,36,37v33.9C979.7,1324.1,968.2,1335.3,943.5,1335.3"/>
			<path id="path272" class="st13" d="M1077.9,1276.6c3.8,5.1,6,12.2,6.4,21.2c0.7,9.2-1.2,18.5-5.4,24.8
				c-6.7,10.2-19.1,12.7-28.2,12.7h-19.1c0,0-14,0-13.4,0h-12.6c-6.8,0-9.8-2.8-9.8-9.6v-87.1c0-3.1,1-5.7,3-7.5
				c1.8-1.6,4.2-2.7,6.7-2.7c2.6,0,5,1.1,6.8,2.7c2,1.8,3.1,4.4,3.1,7.5v77h36.6c4.6,0,8.7-3.2,10.9-6.3c1.5-2.5,2.4-6,2.4-9.7
				c0-3.7-0.8-7.1-2-9.8c-1.8-3.9-4.7-6.6-7.9-6.6h-14c-3.1,0-5.7-1.1-7.5-3c-1.6-1.8-2.7-4.2-2.7-6.8c0-2.6,1.1-5.1,2.7-6.9
				c1.8-2,4.4-3.1,7.5-3.1h14c3.2,0,6.1-2.5,7.9-6.5c1.3-2.7,2-5.5,2-9.2v-9.1c0-3.1,1-5.7,3-7.5c1.7-1.6,4.1-2.7,6.6-2.7
				c2.6,0,4.9,1.1,6.7,2.7c2,1.8,3,4.4,3,7.5v7.1l0,0c0,7.1-0.8,17.9-6.5,25.4l-1.4,1.8l-0.7,0.9l0.7,0.9L1077.9,1276.6"/>
			<path id="path274" class="st13" d="M1180,1335.3h-43.6c-24.8,0-36.4-11.3-36.4-36.2v-33.6c0-23.8,10.8-36.2,33.1-37.1h56.5l0,0.5
				v44.1c0,3.1-1,5.7-3,7.5c-1.8,1.6-4.2,2.7-6.7,2.7c-2.6,0-5-1.1-6.8-2.7c-2-1.8-3-4.4-3-7.5v-14h0v-10.9h-33.7
				c-10.7,0-16.6,6.2-16.6,17v34.1c0,10.8,5.9,16.5,16.6,16.5h53.4v9.9C1189.5,1332.6,1186.7,1335.3,1180,1335.3"/>
			<path id="path276" class="st13" d="M1285,1248.1h-43.2c-10.7,0-16.6,5.9-16.6,16.6v8.7h42.3c3.1,0,5.7,1,7.5,3
				c1.6,1.8,2.7,4.2,2.7,6.7c0,2.6-1.1,5-2.7,6.8c-1.8,2-4.4,3.1-7.5,3.1h-27.5c-6.4,0-11.4,0-11.4,0h-3.3v22.7h59.8
				c3.1,0,5.7,1,7.5,3c1.6,1.8,2.7,4.2,2.7,6.7c0,2.6-1.1,5-2.7,6.8c-1.8,2-4.4,3.1-7.5,3.1h-69.6c-3.5,0-5.9-0.8-7.5-2.3
				c-1.6-1.6-2.3-4-2.3-7.5v-60.2c0-12.6,2.9-21.7,8.9-27.8c5.9-6.1,14.8-9.1,27.1-9.1h30.6v0h12.8c3.1,0,5.7,1,7.5,3
				c1.6,1.8,2.7,4.2,2.7,6.7c0,2.6-1.1,5-2.7,6.8C1290.7,1247,1288.1,1248.1,1285,1248.1"/>
		</g>
	</g>
</g>
</svg>
