<?xml version="1.0" encoding="UTF-8" standalone="no"?>
<!-- Created with Inkscape (http://www.inkscape.org/) -->

<svg xmlns:dc="http://purl.org/dc/elements/1.1/" xmlns:cc="http://creativecommons.org/ns#" xmlns:rdf="http://www.w3.org/1999/02/22-rdf-syntax-ns#" xmlns:svg="http://www.w3.org/2000/svg" xmlns="http://www.w3.org/2000/svg" xmlns:xlink="http://www.w3.org/1999/xlink" version="1.1" width="856.91248" height="177.16251" id="svg2">
  <defs id="defs6">
    <linearGradient id="linearGradient3827">
      <stop id="stop3829" style="stop-color:#007bc1;stop-opacity:1" offset="0" />
      <stop id="stop3837" style="stop-color:#007bc1;stop-opacity:1" offset="0.84444445" />
      <stop id="stop3831" style="stop-color:#015da6;stop-opacity:1" offset="1" />
    </linearGradient>
    <radialGradient id="radialGradient3816">
      <stop id="stop3818" style="stop-color:#0994dc;stop-opacity:1" offset="0" />
      <stop id="stop3820" style="stop-color:#1c63b7;stop-opacity:1" offset="1" />
    </radialGradient>
    <linearGradient id="linearGradient3949">
      <stop id="stop3951" style="stop-color:#3a9ddd;stop-opacity:1" offset="0" />
      <stop id="stop3957" style="stop-color:#55a1dd;stop-opacity:1" offset="0.56" />
      <stop id="stop3959" style="stop-color:#64a4de;stop-opacity:1" offset="0.82612032" />
      <stop id="stop3953" style="stop-color:#65a2dd;stop-opacity:1" offset="1" />
    </linearGradient>
    <linearGradient id="linearGradient3925">
      <stop id="stop3927" style="stop-color:#82c3ec;stop-opacity:1" offset="0" />
      <stop id="stop3933" style="stop-color:#65b6e8;stop-opacity:1" offset="0.65185183" />
      <stop id="stop3929" style="stop-color:#2da0e0;stop-opacity:1" offset="1" />
    </linearGradient>
    <linearGradient id="linearGradient3901">
      <stop id="stop3903" style="stop-color:#65b7e8;stop-opacity:1" offset="0" />
      <stop id="stop3913" style="stop-color:#50aee6;stop-opacity:1" offset="0.5013873" />
      <stop id="stop3905" style="stop-color:#1d8bd4;stop-opacity:1" offset="0.79632097" />
      <stop id="stop3909" style="stop-color:#1b64b8;stop-opacity:1" offset="1" />
    </linearGradient>
    <linearGradient id="linearGradient3813">
      <stop id="stop3815" style="stop-color:#5ab0e6;stop-opacity:1" offset="0" />
      <stop id="stop3841" style="stop-color:#3298db;stop-opacity:1" offset="0.56296295" />
      <stop id="stop3817" style="stop-color:#1b64b8;stop-opacity:1" offset="1" />
    </linearGradient>
    <clipPath id="clipPath68">
      <path d="m 640.891,57.1484 c -106.926,0 -208.422,32.5704 -299.711,91.0116 45.722,-14.039 93.437,-21.262 141.258,-21.262 24.949,0 49.929,1.961 74.664,5.942 67.898,10.922 132.402,36.91 190.035,73.808 6.16,3.704 12.047,7.641 17.64,11.782 0.043,0.031 0.086,0.058 0.133,0.09 0.063,0.05 0.121,0.101 0.184,0.14 55.996,41.578 82.433,103.211 60.117,152.051 -17.5,38.289 -60.684,59.301 -111.445,59.578 -0.336,0.004 -0.664,0.008 -1,0.008 -0.215,0 -0.426,-0.008 -0.641,-0.008 -9.809,-0.031 -19.879,-0.832 -30.105,-2.43 l 0,0 0,0 c 1.621,-8.015 4.359,-15.699 8.621,-22.429 -6.797,10.699 -9.727,23.82 -10.422,36.832 l -0.989,16.109 c -1.351,24.117 -21.058,47.52 -45,56.43 l -294.3,136.801 c -7.758,2.961 -14.336,7.617 -14.25,16.168 0.004,0.277 0.011,0.554 0.031,0.839 0.437,7.664 6.656,9.723 13.586,9.723 0.148,0 0.301,0 0.453,-0.004 l 290.879,0 c 11.519,0 23.312,1.082 34.019,5.582 10.532,4.5 18.274,11.969 26.821,19.352 17.011,14.847 34.652,16.109 56.25,16.109 l 571.001,0 C 1217.09,332.82 951.98,57.1484 640.891,57.1484 M 754.355,211.352 c 3.508,2.328 6.993,4.687 10.446,7.089 -0.008,0 -0.02,-0.011 -0.024,-0.011 -3.429,-2.43 -6.906,-4.782 -10.422,-7.078 m -50.019,179.886 c -0.117,0.082 -0.231,0.16 -0.344,0.242 0.113,-0.082 0.227,-0.16 0.344,-0.242 m -1.531,1.082 c -0.106,0.078 -0.211,0.149 -0.313,0.231 0.102,-0.082 0.207,-0.153 0.313,-0.231 m -3.129,2.508 c -0.063,0.051 -0.121,0.102 -0.184,0.16 0.063,-0.058 0.121,-0.109 0.184,-0.16 m -1.309,1.192 c -0.09,0.082 -0.179,0.171 -0.269,0.25 0.09,-0.079 0.179,-0.168 0.269,-0.25 m -1.402,1.378 c -0.035,0.032 -0.074,0.071 -0.11,0.114 0.036,-0.043 0.075,-0.082 0.11,-0.114 m -1.281,1.364 c -0.11,0.117 -0.211,0.25 -0.321,0.367 0.106,-0.117 0.211,-0.25 0.321,-0.367 m -1.082,1.25 c -0.149,0.179 -0.293,0.359 -0.442,0.527 0.149,-0.168 0.293,-0.348 0.442,-0.527 m -1.032,1.277 c -0.156,0.199 -0.316,0.402 -0.468,0.602 0.152,-0.211 0.312,-0.403 0.468,-0.602 m -0.914,1.199 c -0.371,0.5 -0.73,1.012 -1.082,1.524 0.352,-0.512 0.711,-1.024 1.082,-1.524 m -1.261,1.793 c -0.243,0.36 -0.477,0.719 -0.707,1.078 0.23,-0.359 0.464,-0.718 0.707,-1.078" id="path70" />
    </clipPath>
    <clipPath id="clipPath104">
      <path d="m 174.184,390.609 c -2.829,2.852 -5.633,5.731 -8.403,8.629 l 0,0 c -0.929,0.973 -1.851,1.934 -2.773,2.91 -0.516,0.543 -1.043,1.102 -1.559,1.653 -0.39,0.418 -0.797,0.847 -1.187,1.269 -0.59,0.629 -1.176,1.258 -1.762,1.891 -0.301,0.32 -0.605,0.66 -0.902,0.98 -0.664,0.719 -1.328,1.438 -1.989,2.161 -0.058,0.07 -0.121,0.136 -0.183,0.199 -2.469,2.711 -4.899,5.418 -7.317,8.164 -0.004,0.008 0,0.004 -0.004,0.008 -0.789,0.898 -1.578,1.8 -2.363,2.703 -0.058,0.07 -0.121,0.14 -0.183,0.215 -0.77,0.886 -1.543,1.777 -2.305,2.668 -0.043,0.05 -0.078,0.089 -0.121,0.14 -2.371,2.766 -4.723,5.563 -7.043,8.371 -0.024,0.028 -0.051,0.063 -0.074,0.09 -0.684,0.828 -1.375,1.672 -2.055,2.504 -0.176,0.211 -0.344,0.418 -0.516,0.633 -0.636,0.777 -1.261,1.551 -1.89,2.332 -0.242,0.297 -0.481,0.598 -0.719,0.894 -0.594,0.739 -1.176,1.461 -1.766,2.204 -0.328,0.418 -0.648,0.824 -0.976,1.242 -0.711,0.894 -1.414,1.789 -2.117,2.687 -0.633,0.809 -1.262,1.617 -1.891,2.43 -0.223,0.289 -0.449,0.586 -0.676,0.879 -0.691,0.898 -1.387,1.805 -2.074,2.707 -0.164,0.215 -0.332,0.437 -0.496,0.652 -45.0783,59.395 -78.6369,126.692 -98.7892,197.887 -3.2852,27.074 -5.0117,54.184 -5.2227,81.187 l 0,11.457 c 1.9141,231.618 115.8909,454.125 323.5509,582.265 55.351,34.2 113.851,59.22 173.793,75.96 41.848,8.82 84.418,14.13 127.078,16.02 9.676,0.42 19.332,0.66 29.008,0.72 l 8.801,0 c 144.476,-0.73 287.816,-41.53 409.581,-119.34 35.13,-22.44 68.34,-47.8 99.15,-75.75 69.8,-89.1 122.43,-195.5 152.16,-312.773 -2.19,-0.578 -4.4,-0.98 -6.6,-1.176 l -300.96,0 c -19.41,1.489 -38.062,5.824 -51.749,17.477 -80.524,159.922 -242.055,269.082 -428.313,269.082 -266.668,0 -482.8475,-223.918 -482.8475,-500.039 0,-106.192 41.2615,-216.918 104.7035,-304.192 m 411.625,952.571 c 1.25,-58.45 110.832,-139.77 259.742,-189.38 76.351,-25.41 149.371,-37.94 207.309,-37.94 64.99,0 111,15.78 121.37,46.85 1.36,4.08 2.07,8.31 2.16,12.68 0.01,0.65 0.01,1.29 0,1.94 -1.19,58.53 -110.8,139.88 -259.831,189.5 -76.282,25.4 -149.25,37.93 -207.164,37.93 -65.012,0 -111.047,-15.8 -121.426,-46.93 -1.356,-4.06 -2.063,-8.28 -2.16,-12.62 -0.012,-0.67 -0.012,-1.35 0,-2.03" id="path106" />
    </clipPath>
    <clipPath id="clipPath128">
      <path d="m 1052.86,1115.86 c -57.938,0 -130.958,12.53 -207.309,37.94 -148.91,49.61 -258.492,130.93 -259.742,189.38 l 0,2.03 c 0.097,4.34 0.804,8.56 2.16,12.62 10.379,31.13 56.414,46.93 121.426,46.93 57.914,0 130.882,-12.53 207.164,-37.93 149.031,-49.62 258.641,-130.97 259.831,-189.5 l 0,-1.94 c -0.09,-4.37 -0.8,-8.6 -2.16,-12.68 -10.37,-31.07 -56.38,-46.85 -121.37,-46.85" id="path130" />
    </clipPath>
    <clipPath id="clipPath240">
      <path d="m 765.094,218.66 c 24.551,18.551 33.879,42.692 34.082,65.578 l 0,0 c 0.191,21.563 -7.707,42 -18.606,55.602 -3.867,4.211 -9.941,9.148 -12.679,11.398 2.894,-2.289 9.078,-7.386 12.859,-11.578 l -2.609,2.879 c -3.512,4.231 -6.211,6.301 -10.981,9.27 0.09,-0.071 0.188,-0.149 0.289,-0.231 -1.597,0.981 -3.191,2.043 -4.609,3.024 l -24.66,15.117 c -0.09,-0.09 -30.328,19.261 -32.309,20.519 -0.523,0.321 -1.031,0.66 -1.535,1 -0.117,0.082 -0.231,0.16 -0.344,0.242 -0.402,0.27 -0.801,0.551 -1.187,0.84 -0.106,0.078 -0.211,0.149 -0.313,0.231 -0.976,0.73 -1.918,1.488 -2.816,2.277 -0.063,0.051 -0.121,0.102 -0.184,0.16 -0.383,0.34 -0.758,0.684 -1.125,1.032 -0.09,0.082 -0.179,0.171 -0.269,0.25 -0.383,0.371 -0.762,0.75 -1.133,1.128 -0.035,0.032 -0.074,0.071 -0.11,0.114 -0.402,0.41 -0.789,0.828 -1.171,1.25 -0.11,0.117 -0.215,0.25 -0.321,0.367 -0.258,0.293 -0.511,0.582 -0.761,0.883 -0.149,0.179 -0.293,0.359 -0.442,0.527 -0.199,0.25 -0.394,0.5 -0.59,0.75 -0.156,0.199 -0.316,0.391 -0.468,0.602 -0.153,0.199 -0.297,0.398 -0.446,0.597 -0.371,0.5 -0.73,1.012 -1.082,1.524 -0.058,0.09 -0.121,0.179 -0.179,0.269 -0.243,0.36 -0.477,0.719 -0.707,1.078 -0.016,0.02 -0.032,0.051 -0.047,0.071 -4.262,6.73 -7,14.414 -8.621,22.429 l 0,0 c 10.226,1.598 20.296,2.399 30.105,2.43 l 1.641,0 C 764.527,430.012 807.711,409 825.211,370.711 847.527,321.871 821.09,260.238 765.094,218.66" id="path242" />
    </clipPath>
    <radialGradient cx="87.74321" cy="66.959106" r="62.512501" fx="87.74321" fy="66.959106" id="radialGradient3082" xlink:href="#linearGradient3813" gradientUnits="userSpaceOnUse" gradientTransform="matrix(12.352142,0,0,-11.697258,-375.32073,1503.6129)" />
    <radialGradient cx="95.337585" cy="99.734848" r="83.074997" fx="139.40276" fy="49.828506" id="radialGradient3084" xlink:href="#linearGradient3901" gradientUnits="userSpaceOnUse" gradientTransform="matrix(5.113154,5.8562232,7.4389679,-6.4950715,-430.89606,792.96678)" />
    <radialGradient cx="107.31196" cy="5.4888024" r="37.262501" fx="107.31196" fy="5.4888024" id="radialGradient3086" xlink:href="#linearGradient3925" gradientUnits="userSpaceOnUse" gradientTransform="matrix(10.706489,0,0,-9.2791136,-284.93821,1438.9312)" />
    <linearGradient x1="95.5" y1="123.025" x2="95.5" y2="150.175" id="linearGradient3088" xlink:href="#linearGradient3949" gradientUnits="userSpaceOnUse" gradientTransform="matrix(8,0,0,-8,-0.004,1417.3)" />
    <radialGradient cx="675.61078" cy="702.16675" r="700" fx="675.61078" fy="702.16675" id="radialGradient3835" xlink:href="#linearGradient3827" gradientUnits="userSpaceOnUse" />
    <linearGradient x1="1275.4419" y1="1003.5624" x2="1332.6135" y2="1037.016" id="linearGradient3849" xlink:href="#radialGradient3816" gradientUnits="userSpaceOnUse" />
  </defs>
  <g transform="matrix(1.25,0,0,-1.25,0,177.1625)" id="g10">
    <g transform="scale(0.1,0.1)" id="g12">
      <g id="g3058">
        <path d="m 83.78125,0 c -1.2095,0.0075 -2.4155,0.04125 -3.625,0.09375 -5.3325,0.23625 -10.644,0.8975 -15.875,2 -0.0095,0.00267 -0.0217,-0.00267 -0.03125,0 C 48.732256,5.3660375 34.078768,12.467938 22.65625,23.5625 9.1332875,36.7025 0.81640638,54.647375 0.0625,73.46875 -0.24286557,81.078818 0.7109278,88.647067 2.75,95.875 c 0.00274,0.0097 -0.00275,0.02153 0,0.03125 0.00125,0.01032 -0.00125,0.02093 0,0.03125 0.9535196,3.368641 2.1424246,6.67062 3.5625,9.875 0.2430228,0.54761 0.5193106,1.08344 0.78125,1.625 0.1096597,0.22678 0.2026903,0.46155 0.3125,0.6875 2.1401662,4.41562 4.703185,8.63038 7.6875,12.5625 0.0205,0.0269 0.042,0.0669 0.0625,0.0937 0.08587,0.11275 0.194875,0.20025 0.28125,0.3125 0.02838,0.0366 0.03463,0.0889 0.0625,0.125 0.07863,0.10162 0.170875,0.21137 0.25,0.3125 0.08788,0.11225 0.161125,0.20075 0.25,0.3125 0.041,0.0523 0.084,0.104 0.125,0.15625 0.07375,0.0929 0.1445,0.18887 0.21875,0.28125 0.02975,0.037 0.0635,0.0879 0.09375,0.125 0.07862,0.0976 0.1705,0.18413 0.25,0.28125 0.0215,0.0269 0.0405,0.0674 0.0625,0.0937 0.085,0.104 0.1645,0.209 0.25,0.3125 0.29,0.351 0.609875,0.6855 0.90625,1.03125 0.0054,0.006 -0.0054,0.025 0,0.0312 0.09525,0.11137 0.185,0.233 0.28125,0.34375 0.0078,0.009 0.024,-0.009 0.03125,0 0.09812,0.11287 0.182625,0.2315 0.28125,0.34375 0.30225,0.34325 0.628875,0.69237 0.9375,1.03125 0.0078,0.008 -0.0072,0.0225 0,0.0312 0.08263,0.0904 0.167,0.16012 0.25,0.25 0.03712,0.04 0.08738,0.085 0.125,0.125 0.07325,0.0791 0.145,0.17137 0.21875,0.25 0.04875,0.0528 0.1075,0.104 0.15625,0.15625 0.0645,0.0689 0.123,0.15087 0.1875,0.21875 0.11525,0.122 0.227625,0.22213 0.34375,0.34375 0.34625,0.36225 0.708875,0.73725 1.0625,1.09375 2.276375,2.291 4.67725,4.41987 7.21875,6.40625 0.474125,0.28612 0.899875,0.40625 1.25,0.40625 0.800375,0 1.251,-0.62013 1.25,-1.28125 0,-0.34775 -0.11075,-0.68413 -0.375,-0.96875 -9.699125,-11.47563 -14.707,-26.25737 -14.6875,-41.09375 0.0068,-5.36625 0.661125,-10.742125 2,-15.96875 4.274875,-16.661625 15.487875,-31.535 31.125,-39.21875 7.371625,-3.62 15.40825,-5.40625 23.4375,-5.40625 9.959,0 19.8985,2.7625 28.53125,8.15625 8.07762,5.04 14.77,12.122625 19.5625,20.3125 0.41062,0.701625 0.9345,1.268625 1.5,1.75 1.71088,1.456625 4.0425,2.001375 6.46875,2.1875 l 37.59375,0 c 0.275,-0.0245 0.57,-0.084 0.84375,-0.15625 0.655,-0.172375 1.27875,-0.4585 1.84375,-0.84375 0.4975,-0.339375 0.945,-0.743625 1.28125,-1.1875 0.59,-0.896 0.81375,-1.784125 0.8125,-2.6875 -0.001,-0.128875 -0.0225,-0.276875 -0.0312,-0.40625 0.006,-1.568375 -0.575,-3.169875 -1.3125,-4.6875 -0.5225,-1.07375 -1.1175,-2.085 -1.625,-3.03125 -1.1475,-2.17125 -2.3425,-4.365 -3.625,-6.46875 -2.37375,-3.90375 -5.04125,-7.60625 -8,-11.09375 -2.59,-3.07 -5.39875,-5.98625 -8.375,-8.6875 -3.85125,-3.49375 -7.98375,-6.66375 -12.375,-9.46875 C 120.87312,5.18 102.9345,0.09125 84.875,0 z m 66.3125,26.5 c 1.05674,1.425584 2.07563,2.884976 3.0625,4.375 -0.9873,-1.489915 -2.0056,-2.949458 -3.0625,-4.375 z m -56.625,60.75 c -2.69975,0 -4.904875,0.144125 -7.03125,2 -1.068375,0.922875 -2.02725,1.875 -3.34375,2.4375 -1.338375,0.5625 -2.810125,0.6875 -4.25,0.6875 l -36.375,0 c -0.019,-5e-4 -0.044,0 -0.0625,0 -0.86625,0 -1.632875,0.26075 -1.6875,1.21875 -0.0025,0.03562 5e-4,0.05912 0,0.09375 -0.01075,1.068875 0.8115,1.661125 1.78125,2.03125 l 36.78125,17.09375 c 2.99275,1.11375 5.456125,4.04787 5.625,7.0625 l 0.125,2 c 0.03258,0.60994 0.12809,1.21541 0.25,1.8125 -0.01034,0.002 -0.02091,-0.002 -0.03125,0 0.04023,0.1989 0.104619,0.39872 0.15625,0.59375 0.0784,0.29616 0.142987,0.59131 0.25,0.875 0.03282,0.087 0.08931,0.16442 0.125,0.25 0.157279,0.37718 0.345386,0.71966 0.5625,1.0625 0.0019,0.002 -0.002,0.0288 0,0.0312 0.02875,0.0449 0.06337,0.08 0.09375,0.125 0.0072,0.0113 -0.0072,0.02 0,0.0312 0.044,0.064 0.109875,0.125 0.15625,0.1875 0.01863,0.0249 0.01212,0.0689 0.03125,0.0937 0.019,0.0264 0.043,0.0376 0.0625,0.0625 0.0245,0.0312 0.06888,0.0625 0.09375,0.0937 0.01863,0.021 0.01262,0.0401 0.03125,0.0625 0.03125,0.0376 0.0615,0.0884 0.09375,0.125 0.01325,0.0146 0.04875,0.0166 0.0625,0.0312 0.04775,0.0528 0.07475,0.105 0.125,0.15625 0.0045,0.005 0.02688,0.0272 0.03125,0.0312 0.04637,0.0473 0.07712,0.0786 0.125,0.125 0.01125,0.01 0.02,0.021 0.03125,0.0312 0.04587,0.0435 0.108375,0.0825 0.15625,0.125 0.0079,0.007 0.02338,0.0249 0.03125,0.0312 0.11225,0.0986 0.22175,0.19 0.34375,0.28125 0.01275,0.0103 0.018,0.0215 0.03125,0.0312 0.04825,0.0361 0.106,0.06 0.15625,0.0937 0.01413,0.0103 0.01663,0.021 0.03125,0.0312 0.063,0.0425 0.122125,0.0849 0.1875,0.125 0.247625,0.15725 4.05125,2.57375 4.0625,2.5625 l 3.0625,1.90625 c 0.166369,0.1151 0.375249,0.22756 0.5625,0.34375 0.01125,0.009 0.01863,0.021 0.03125,0.0312 0.569533,0.35691 0.915483,0.60906 1.34375,1.125 l 0.28125,0.34375 c 0.0091,0.01 0.02234,0.0214 0.03125,0.0312 1.348362,1.7002 2.336217,4.22876 2.3125,6.90625 -0.02537,2.86075 -1.212375,5.89988 -4.28125,8.21875 -0.0059,0.004 -0.02587,-0.004 -0.03125,0 -0.699125,0.51763 -1.4175,1.037 -2.1875,1.5 -7.204125,4.61225 -15.294,7.8535 -23.78125,9.21875 -3.091875,0.49762 -6.193875,0.75 -9.3125,0.75 -5.977625,0 -11.941,-0.90138 -17.65625,-2.65625 -1.42625,-0.4375 -2.859,-0.956 -4.25,-1.5 -0.213375,-0.0825 -0.4115,-0.16362 -0.625,-0.25 -0.5625,-0.2275 -1.13325,-0.44475 -1.6875,-0.6875 -13.193375,-5.766 -24.02685,-15.88138 -31.875,-27.8125 -0.1235375,-0.15775 -0.2514625,-0.311 -0.375,-0.46875 C 3.569825,127.60822 3.1621125,127.4056 2.75,127.4056 c -0.4345625,0 -0.8696375,0.21875 -1.03125,0.75 -0.2026375,0.686 0.88965,2.27638 1.25,2.90625 1.113775,2.00238 2.3623,3.93363 3.65625,5.8125 2.576175,3.77975 5.435037,7.37738 8.5625,10.71875 6.32275,6.75 13.7065,12.5146 21.75,17.09375 14.463375,8.23096 31.007875,12.46777 47.625,12.46875 3.1843,0 6.388292,-0.15588 9.5625,-0.46875 0.04148,-5e-4 0.08346,5.7e-4 0.125,0 0.168875,-0.0225 0.34225,-0.0513 0.5,-0.0625 22.67963,-2.37354 44.2125,-12.90525 59.625,-29.65625 6.525,-7.11038 11.8775,-15.22262 15.78125,-24.03125 2.01375,-4.56737 3.6,-9.33888 4.78125,-14.1875 0.585,-2.3965 1.0775,-4.78862 1.4375,-7.21875 0.39375,-2.486375 0.66875,-4.9605 0.78125,-7.46875 0.0112,-0.15575 -0.004,-0.3155 0,-0.46875 l 0,-0.5 c -0.0813,-3.026875 -1.62875,-5.4565 -4.9375,-5.84375 l -7.375,0 z" transform="matrix(8,0,0,-8,0,1417.3)" id="path3110" style="fill:#62b6e8;fill-opacity:1;stroke:none" />
        <path d="M 676.605,-0.0195313 C 543.668,-0.0117188 411.176,33.8711 295.469,99.7188 231.121,136.352 172.172,182.609 121.59,236.609 c -25.0197,26.731 -48.0587,55.442 -68.6681,85.68 -10.3516,15.031 -20.25,30.512 -29.1602,46.531 -2.8828,5.039 -11.5234,17.731 -9.9023,23.219 1.2929,4.25 4.5547,6.031 8.0312,6.031 3.2969,0 6.7891,-1.601 8.9805,-4.23 0.9883,-1.262 1.8906,-2.43 2.8789,-3.692 C 96.5352,294.699 183.289,213.73 288.836,167.602 419.473,60.8711 581.434,3.80859 744.484,3.80859 c 3.157,0 6.289,0.01954 9.446,0.0625 1.351,0.17969 2.699,0.26954 3.961,0.35938 -27.032,-2.83984 -54.157,-4.2500013 -81.286,-4.2500013 M 165.781,399.238 c -0.929,0.973 -1.851,1.934 -2.773,2.91 0.922,-0.976 1.844,-1.937 2.773,-2.91 m -4.332,4.563 c -0.398,0.429 -0.789,0.84 -1.187,1.269 0.39,-0.422 0.797,-0.851 1.187,-1.269 m -2.949,3.16 c -0.301,0.32 -0.605,0.66 -0.902,0.98 0.297,-0.32 0.601,-0.66 0.902,-0.98 m -2.891,3.141 c -0.058,0.07 -0.125,0.136 -0.183,0.199 0.062,-0.063 0.125,-0.129 0.183,-0.199 m -7.5,8.363 -0.004,0.008 c 0.004,-0.004 0,0 0.004,-0.008 m -2.367,2.711 c -0.062,0.07 -0.121,0.14 -0.183,0.215 0.062,-0.075 0.125,-0.145 0.183,-0.215 m -2.488,2.883 c -0.047,0.05 -0.074,0.086 -0.121,0.14 0.043,-0.051 0.078,-0.09 0.121,-0.14 m -7.164,8.511 c -0.024,0.028 -0.051,0.059 -0.074,0.09 0.023,-0.027 0.05,-0.062 0.074,-0.09 m -2.129,2.594 c -0.172,0.207 -0.344,0.422 -0.516,0.633 0.172,-0.215 0.34,-0.422 0.516,-0.633 m -2.406,2.965 c -0.239,0.297 -0.485,0.601 -0.719,0.894 0.238,-0.296 0.477,-0.597 0.719,-0.894 m -2.485,3.098 c -0.324,0.41 -0.656,0.832 -0.976,1.242 0.328,-0.418 0.648,-0.824 0.976,-1.242 m -3.093,3.929 c -0.633,0.809 -1.262,1.617 -1.891,2.43 0.629,-0.813 1.258,-1.621 1.891,-2.43 m -2.567,3.309 c -0.695,0.902 -1.387,1.801 -2.074,2.707 0.687,-0.902 1.383,-1.809 2.074,-2.707 m -2.57,3.359 C 38.9766,559.629 -5.01172,693.348 0.449219,829.441 6.48047,980.012 72.9883,1123.56 181.172,1228.68 c 91.38014,88.7565 208.62104,145.7161 332.76299,171.8944 l 0.23701,0.01 C 454.23,1383.84 395.73,1358.82 340.379,1324.62 132.719,1196.48 18.7422,973.973 16.8281,742.355 l 0,-11.457 c 0.211,-27.003 1.9375,-54.113 5.2227,-81.187 C 42.2031,578.516 75.7617,511.219 120.84,451.824" id="path20" style="fill:#1c63b7;stroke:none" />
        <path d="m 744.484,3.80859 c -163.05,0 -325.011,57.06251 -455.648,163.79341 4.434,-1.942 8.894,-3.821 13.394,-5.641 1.708,-0.691 3.415,-1.371 5.122,-2.031 11.128,-4.352 22.418,-8.27 33.828,-11.77 91.289,-58.4412 192.785,-91.0116 299.711,-91.0116 311.089,0 576.199,275.6716 677.829,662.2226 l 59.09,0 c 26.47,-3.098 38.86,-22.551 39.51,-46.766 l 0,-4.07 c -0.03,-1.226 -0.09,-2.461 -0.18,-3.707 -0.9,-20.066 -2.97,-39.957 -6.12,-59.848 -2.88,-19.441 -6.75,-38.609 -11.43,-57.781 -9.45,-38.789 -22.23,-76.769 -38.34,-113.308 C 1330.02,363.422 1287.09,298.352 1234.89,241.469 1111.59,107.461 939.328,23.2188 757.891,4.23047 l 0,0 c -1.262,-0.08984 -2.61,-0.17969 -3.961,-0.35938 -3.157,-0.04296 -6.289,-0.0625 -9.446,-0.0625" id="path38" style="fill:url(#radialGradient3835);fill-opacity:1;stroke:none" />
        <path d="m 1339.95,909.457 c -29.73,117.273 -82.36,223.673 -152.16,312.773 23.81,-21.61 46.18,-44.77 66.9,-69.33 23.67,-27.9 45.18,-57.69 64.17,-88.92 10.26,-16.83 19.71,-34.2 28.89,-51.57 4.06,-7.57 8.82,-15.82 13,-24.41 5.9,-12.141 10.63,-24.965 10.58,-37.512 0.07,-1.035 0.1,-2.066 0.11,-3.097 0.01,-7.227 -1.69,-14.395 -6.41,-21.563 -2.69,-3.551 -6.2,-6.797 -10.18,-9.512 m 0,0 c -4.52,-3.082 -9.66,-5.48 -14.9,-6.859" id="path62" style="fill:url(#linearGradient3849);fill-opacity:1;stroke:none" />
        <path d="m 242.035,335.969 c -2.801,0 -6.133,0.953 -9.926,3.242 -20.332,15.891 -39.714,33.07 -57.925,51.398 -63.442,87.274 -104.7035,198 -104.7035,304.192 0,276.121 216.1795,500.039 482.8475,500.039 186.258,0 347.789,-109.16 428.313,-269.082 -4.524,3.851 -8.504,8.5 -11.789,14.113 -38.34,65.519 -91.981,122.219 -156.602,162.539 -69.062,43.15 -148.598,65.11 -228.27,65.11 -64.234,0 -128.558,-14.28 -187.531,-43.24 C 271.352,1062.81 181.711,943.922 147.512,810.629 136.801,768.816 131.48,725.832 131.426,682.902 131.27,564.211 171.348,445.953 248.941,354.148 c 2.114,-2.277 3.114,-5.136 3.114,-7.918 0.008,-5.289 -3.617,-10.261 -10.02,-10.261" id="path150" style="fill:#0776bb;stroke:none" />
        <g clip-path="url(#clipPath68)" id="g66">
          <path d="m 321.896,723.1 0,-669.2 1000.2,0 0,669.2 z" id="path3043" style="fill:url(#radialGradient3082);stroke:none" />
        </g>
        <g clip-path="url(#clipPath104)" id="g102">
          <path d="m 13.904,1420.1 0,-1033.2 1329.2,0 0,1033.2 z" id="path3852" style="fill:url(#radialGradient3084);stroke:none" />
        </g>
        <g clip-path="url(#clipPath128)" id="g126">
          <path d="m 582.896,1409.1 0,-296.2 596.2,0 0,296.2 z" id="path3923" style="fill:url(#radialGradient3086);stroke:none" />
        </g>
        <g clip-path="url(#clipPath240)" id="g238">
          <path d="m 677.896,433.1 0,-217.2 172.2,0 0,217.2 z" id="path3947" style="fill:url(#linearGradient3088);stroke:none" />
        </g>
      </g>
      <g id="g3253" style="fill:#176fc1;stroke:none">
        <path d="m 2126.18,992.109 -231.4,0 c -66.05,0 -113.68,-14.148 -145.62,-46.082 -31.92,-31.953 -47.47,-79.589 -47.47,-145.683 l 0,-178.153 c 0,-126.336 57.48,-191.961 175.37,-196.785 l 299.82,0 0,236.367 c 0,16.551 -5.53,30.301 -16.03,39.79 -9.35,8.468 -22.04,14.308 -35.71,14.308 -13.81,0 -26.6,-5.84 -36.06,-14.367 -10.57,-9.547 -16.18,-23.297 -16.18,-39.731 l 0,-132.39 -179.03,0 c -56.88,0 -88.21,32.859 -88.21,90.047 l 0,180.914 c 0,54.824 26.26,87.761 80.96,87.761 l 290.26,0 0,52.434 c 0,37.117 -15.25,51.57 -50.7,51.57" id="path260" />
        <path d="m 2631.04,715.832 -265.3,0 0,83.602 c 0,57.199 31.32,88.671 88.22,88.671 l 177.08,0 0,-172.273 z m 51.93,276.277 -115.24,0 -79.18,0.02 c -18.77,-0.02 -18.77,-0.02 -25.05,-0.02 l -7.36,0 -3.57,-0.019 c -130.19,0 -190.81,-62.07 -190.81,-195.438 l 0,-317.203 c 0,-16.543 5.53,-30.304 16.03,-39.785 9.34,-8.457 22.03,-14.297 35.71,-14.297 13.8,0 26.6,5.84 36.06,14.356 10.57,9.539 16.17,23.3 16.17,39.726 l 0,49.5 0.01,0 0,82.055 265.3,0 0,-131.606 c 0,-16.543 5.53,-30.3 16.03,-39.785 9.34,-8.457 22.03,-14.297 35.71,-14.297 13.8,0 26.6,5.84 36.06,14.36 10.57,9.539 16.18,23.297 16.18,39.722 l 0,49.29 0.01,0 0,411.851 c 0,35.848 -15.55,51.57 -52.06,51.57" id="path262" />
        <path d="m 3570.48,796.652 c 0,133.368 -60.65,195.438 -190.84,195.438 l -254.14,0.019 -254.11,0 c -38.3,0 -52.67,-15.496 -52.67,-51.57 l 0,-461.109 c 0,-16.543 5.52,-30.301 16.03,-39.785 9.34,-8.457 22.03,-14.297 35.7,-14.297 13.81,0 26.61,5.84 36.07,14.355 10.57,9.539 16.18,23.301 16.18,39.727 l 0,146.074 -0.02,0 0,262.601 133.37,0 c 56.61,0 86.58,-31.472 86.58,-88.671 l 0,-319.946 c 0,-16.543 5.52,-30.304 16.03,-39.785 9.34,-8.457 22.03,-14.297 35.71,-14.297 13.8,0 26.6,5.84 36.05,14.356 10.58,9.539 16.18,23.301 16.18,39.726 l 0,408.617 132.9,0 c 56.88,0 87.01,-31.472 87.01,-88.671 l 0,-319.985 c 0,-16.543 5.53,-30.304 16.03,-39.785 9.34,-8.457 22.04,-14.297 35.71,-14.297 13.81,0 26.6,5.84 36.06,14.356 10.57,9.539 16.18,23.3 16.18,39.726 l 0,146.074 -0.01,0 0,171.129" id="path264" />
        <path d="m 4075.48,888.105 c 16.55,0 30.31,5.528 39.78,16.036 8.46,9.336 14.3,22.031 14.3,35.703 0,13.808 -5.84,26.601 -14.35,36.066 -9.54,10.574 -23.3,16.18 -39.73,16.18 l -369.06,0 c -18.42,0 -31.4,-4.012 -39.68,-12.285 -8.31,-8.348 -12.32,-21.317 -12.32,-39.754 l 0,-319.207 c 0,-66.883 15.36,-115.125 46.99,-147.442 31.52,-32.324 78.58,-48.015 143.83,-48.015 l 162.19,0 0,0.019 68.05,0 c 16.55,0 30.31,5.528 39.78,16.024 8.46,9.347 14.3,22.043 14.3,35.715 0,13.808 -5.84,26.601 -14.35,36.062 -9.54,10.566 -23.3,16.176 -39.73,16.176 l -228.89,0 c -56.87,0 -88.21,31.336 -88.21,88.219 l 0,46.195 224.1,0 c 16.54,0 30.3,5.523 39.78,16.031 8.46,9.336 14.3,22.039 14.3,35.719 0,13.801 -5.84,26.601 -14.36,36.055 -9.53,10.578 -23.29,16.183 -39.72,16.183 l -146.07,0 c -34.02,0 -60.52,0 -60.5,0 l -17.53,0 0,120.32 317.1,0" id="path266" />
        <path d="m 4634.5,992.109 -368.01,0 c -36.44,0 -52.15,-14.148 -52.15,-50.652 l 0,-224.172 c -0.12,-4.101 -0.12,-8.23 0,-12.332 l 0,-225.68 c 0,-16.543 5.52,-30.304 16.02,-39.785 9.36,-8.457 22.04,-14.297 35.72,-14.297 13.8,0 26.6,5.84 36.06,14.356 10.56,9.543 16.16,23.301 16.16,39.726 l 0,49.942 0.15,0 0,134.582 224.31,0 c 16.55,0 30.32,5.523 39.79,16.031 8.46,9.336 14.3,22.039 14.3,35.719 0,13.801 -5.84,26.601 -14.36,36.055 -9.53,10.578 -23.3,16.183 -39.73,16.183 l -109.39,0 c -49.69,0 -97.41,0 -97.38,0 l -17.54,0 0,120.32 216.33,0 0,0.02 99.72,0 c 16.54,0 30.29,5.527 39.79,16.035 8.45,9.336 14.29,22.031 14.29,35.703 0,13.809 -5.84,26.602 -14.35,36.067 -9.55,10.574 -23.3,16.179 -39.73,16.179" id="path268" />
        <path d="m 5078.15,618.969 c 0,-57.156 -31.15,-89.586 -87.77,-89.586 l -93.46,0 c -55.41,0 -85.89,32.43 -85.89,89.586 l 0,182.781 c 0,55.684 30.48,86.355 85.89,86.355 l 93.46,0 c 56.62,0 87.77,-30.019 87.77,-84.539 l 0,-184.597 z m -87.77,373.14 -92.07,0 c -130.49,0 -191.27,-60.007 -191.27,-190.847 l 0,-184.137 c 0,-130.148 60.18,-191.719 189.4,-191.719 l 94.88,0 c 130.15,0 190.8,63.028 190.8,196.348 l 0,179.996 c 0,130.535 -60.94,190.359 -191.74,190.359" id="path270" />
        <path d="m 5702.86,680.414 c 20.37,27.262 31.8,64.93 34.01,112.34 3.57,48.605 -6.35,97.883 -28.7,131.777 -35.58,54.16 -101.05,67.578 -149.68,67.578 l -101.27,0 c 0,0 -74.22,0 -71.1,0 l -66.77,0 c -36.18,0 -52.06,-14.941 -52.06,-50.73 l 0,-461.891 c 0,-16.543 5.53,-30.304 16.04,-39.785 9.34,-8.457 22.03,-14.297 35.7,-14.297 13.81,0 26.6,5.84 36.06,14.356 10.58,9.539 16.19,23.301 16.19,39.726 l 0,408.617 193.94,0 c 24.34,0 46.27,-17.011 57.68,-33.613 8.11,-13.164 12.7,-31.992 12.7,-51.66 0,-19.59 -4.03,-37.605 -10.75,-52.109 -9.64,-20.84 -24.9,-34.891 -42.11,-34.891 l -74.12,0 c -16.56,0 -30.31,-5.578 -39.78,-16.164 -8.48,-9.43 -14.3,-22.211 -14.3,-36.012 0,-13.902 5.82,-26.816 14.36,-36.347 9.53,-10.653 23.28,-16.305 39.72,-16.305 l 74.38,0 c 17.21,0 32.46,-13.383 42.11,-34.223 6.72,-14.5 10.62,-29.414 10.62,-49.011 l 0,-48.332 c 0,-16.543 5.41,-30.301 15.71,-39.786 9.14,-8.457 21.56,-14.297 34.94,-14.297 13.53,0 26.05,5.84 35.33,14.36 10.35,9.539 15.82,23.297 15.82,39.723 l 0,37.5 -0.1,-0.086 c 0.1,37.402 -4.31,94.687 -34.57,134.949 l -7.26,9.668 -3.5,4.687 3.53,4.719 7.23,9.539" id="path272" />
        <path d="m 6244.52,992.109 -231.33,0 c -131.73,0 -193.12,-59.961 -193.12,-191.765 l 0,-178.153 c 0,-126.336 57.5,-191.961 175.37,-196.785 l 299.69,0 0.04,2.481 0,233.886 c 0,16.551 -5.53,30.301 -16.02,39.79 -9.36,8.468 -22.05,14.308 -35.72,14.308 -13.81,0 -26.6,-5.84 -36.06,-14.367 -10.56,-9.547 -16.17,-23.297 -16.17,-39.731 l 0,-74.335 -0.02,0 0,-58.055 -178.92,0 c -56.88,0 -88.23,32.859 -88.23,90.047 l 0,180.914 c 0,57.207 31.18,87.761 87.8,87.761 l 283.34,0 0,52.434 c 0,37.117 -15.16,51.57 -50.65,51.57" id="path274" />
        <path d="m 6801.18,529.383 -228.87,0 c -56.89,0 -88.22,31.336 -88.22,88.219 l 0,46.195 224.1,0 c 16.55,0 30.3,5.523 39.77,16.031 8.48,9.336 14.32,22.039 14.32,35.719 0,13.801 -5.84,26.601 -14.38,36.055 -9.53,10.578 -23.28,16.183 -39.71,16.183 l -146.07,0 c -34.02,0 -60.53,0 -60.51,0 l -17.52,0 0,120.32 317.09,0 c 16.56,0 30.31,5.528 39.79,16.036 8.47,9.336 14.31,22.031 14.31,35.703 0,13.808 -5.84,26.601 -14.37,36.066 -9.53,10.574 -23.28,16.18 -39.73,16.18 l -369.06,0 c -18.42,0 -31.39,-4.012 -39.67,-12.285 -8.3,-8.348 -12.32,-21.317 -12.32,-39.754 l 0,-319.207 c 0,-66.883 15.35,-115.125 46.99,-147.442 31.52,-32.324 78.57,-48.015 143.83,-48.015 l 162.18,0 0,0.019 68.05,0 c 16.56,0 30.31,5.528 39.79,16.024 8.47,9.347 14.31,22.043 14.31,35.715 0,13.808 -5.84,26.601 -14.37,36.062 -9.53,10.566 -23.28,16.176 -39.73,16.176" id="path276" />
      </g>
    </g>
  </g>
</svg>
