<svg xmlns="http://www.w3.org/2000/svg" xmlns:xlink="http://www.w3.org/1999/xlink" width="856.9" height="177.2"><defs><linearGradient id="e"><stop offset="0" stop-color="#007bc1"/><stop offset=".8" stop-color="#007bc1"/><stop offset="1" stop-color="#015da6"/></linearGradient><radialGradient id="f"><stop offset="0" stop-color="#0994dc"/><stop offset="1" stop-color="#1c63b7"/></radialGradient><linearGradient id="d"><stop offset="0" stop-color="#3a9ddd"/><stop offset=".6" stop-color="#55a1dd"/><stop offset=".8" stop-color="#64a4de"/><stop offset="1" stop-color="#65a2dd"/></linearGradient><linearGradient id="c"><stop offset="0" stop-color="#82c3ec"/><stop offset=".7" stop-color="#65b6e8"/><stop offset="1" stop-color="#2da0e0"/></linearGradient><linearGradient id="b"><stop offset="0" stop-color="#65b7e8"/><stop offset=".5" stop-color="#50aee6"/><stop offset=".8" stop-color="#1d8bd4"/><stop offset="1" stop-color="#1b64b8"/></linearGradient><linearGradient id="a"><stop offset="0" stop-color="#5ab0e6"/><stop offset=".6" stop-color="#3298db"/><stop offset="1" stop-color="#1b64b8"/></linearGradient><clipPath id="i"><path d="M640.9 57.1c-107 0-208.4 32.6-299.7 91A481.8 481.8 0 0 1 557 132.9c67.9 11 132.4 37 190 73.8a221.2 221.2 0 0 1 17.7 11.8l.1.1.2.2c56 41.5 82.4 103.2 60.1 152-17.5 38.3-60.7 59.3-111.4 59.6H712c-9.8 0-19.9-.8-30-2.4a76.3 76.3 0 0 0-1.8 14.4l-1 16c-1.4 24.2-21.1 47.6-45 56.5L339.8 651.6c-7.7 3-14.3 7.6-14.2 16.2v.8c.4 7.7 6.7 9.7 13.6 9.7h291.4c11.4 0 23.2 1.1 34 5.6 10.5 4.5 18.2 12 26.8 19.4 17 14.8 34.6 16 56.2 16h571C1217.1 332.9 952 57.2 641 57.2m113.5 154.3a576.7 576.7 0 0 1 10.4 7 331.2 331.2 0 0 0-10.4-7m-50 179.8l-.4.3.3-.3m-1.5 1.1l-.3.3.3-.3m-4.4 3.7l-.3.3.3-.3m-2.7 2.8l-.3.3.3-.3m-1.1 1.2l-.4.5.4-.5m-1 1.3l-.5.6.5-.6m-2.2 3"/></clipPath><clipPath id="k"><path d="M174.2 390.6a650.3 650.3 0 0 0-8.4 8.6l-2.8 3-1.6 1.6-1.1 1.3a393.9 393.9 0 0 0-1.8 1.9l-.9 1a584.9 584.9 0 0 0-2 2.1l-.2.2a653.2 653.2 0 0 0-7.3 8.2l-2.4 2.7-.1.2-2.3 2.7-.2.1a603.9 603.9 0 0 0-7 8.4 621.3 621.3 0 0 0-4.5 5.5l-.8 1-1.7 2.1-1 1.3a563 563 0 0 0-4 5l-.7 1-2 2.7-.6.6a596.6 596.6 0 0 0-98.8 198 720.8 720.8 0 0 0-5.2 81.1v11.5c2 231.6 116 454 323.6 582.2a675.5 675.5 0 0 0 173.8 76 785 785 0 0 0 156 16.7h8.9a770 770 0 0 0 409.5-119.3 742.6 742.6 0 0 0 99.2-75.8A842.8 842.8 0 0 0 1340 909.5a39.7 39.7 0 0 0-6.6-1.2h-301c-19.4 1.5-38 5.8-51.8 17.5-80.5 159.9-242 269-428.3 269-266.6 0-482.8-223.9-482.8-500 0-106.2 41.2-217 104.7-304.2m411.6 952.6c1.3-58.5 110.8-139.8 259.8-189.4 76.3-25.4 149.3-38 207.3-38 65 0 111 15.8 121.3 47a42.6 42.6 0 0 1 2.2 14.5c-1.2 58.6-110.8 140-259.8 189.5-76.3 25.4-149.3 38-207.2 38-65 0-111-15.8-121.4-47a42.7 42.7 0 0 1-2.2-14.6"/></clipPath><clipPath id="m"><path d="M1052.9 1115.9c-58 0-131 12.5-207.3 37.9-149 49.6-258.5 131-259.8 189.4v2c.1 4.3.8 8.6 2.2 12.6 10.3 31.2 56.4 47 121.4 47 58 0 130.9-12.6 207.2-38 149-49.6 258.6-131 259.8-189.5v-2c-.1-4.3-.8-8.5-2.2-12.6-10.3-31-56.4-46.8-121.3-46.8"/></clipPath><clipPath id="o"><path d="M765 218.7a81.2 81.2 0 0 1 34.2 65.5 90 90 0 0 1-18.6 55.6c-3.9 4.3-10 9.2-12.7 11.4 2.9-2.3 9-7.3 12.9-11.5l-2.7 2.8a39 39 0 0 1-11 9.3l.3-.2a103.1 103.1 0 0 0-4.6 3l-24.6 15.1-32.3 20.5-1.6 1-.3.3-1.2.8-.3.3a46 46 0 0 0-2.8 2.2 46.5 46.5 0 0 0-1.3 1.2l-.3.3a63.5 63.5 0 0 0-1.2 1.2l-1.2 1.3-.3.3-.8 1-.4.4-.6.8-.5.6-.4.6-1.1 1.5-.2.3-.7 1v.1c-4.3 6.8-7 14.4-8.7 22.5 10.2 1.6 20.3 2.4 30.1 2.4h1.7c50.7-.3 94-21.3 111.4-59.6 22.3-48.8-4.1-110.5-60.1-152"/></clipPath><radialGradient cx="87.7" cy="67" r="62.5" fx="87.7" fy="67" id="j" xlink:href="#a" gradientUnits="userSpaceOnUse" gradientTransform="matrix(12.35214 0 0 -11.69726 -375.3 1503.6)"/><radialGradient cx="95.3" cy="99.7" r="83.1" fx="139.4" fy="49.8" id="l" xlink:href="#b" gradientUnits="userSpaceOnUse" gradientTransform="matrix(5.11315 5.85622 7.43897 -6.49507 -430.9 793)"/><radialGradient cx="107.3" cy="5.5" r="37.3" fx="107.3" fy="5.5" id="n" xlink:href="#c" gradientUnits="userSpaceOnUse" gradientTransform="matrix(10.70649 0 0 -9.27911 -285 1439)"/><linearGradient x1="95.5" y1="123" x2="95.5" y2="150.2" id="p" xlink:href="#d" gradientUnits="userSpaceOnUse" gradientTransform="matrix(8 0 0 -8 0 1417.3)"/><radialGradient cx="675.6" cy="702.2" r="700" fx="675.6" fy="702.2" id="g" xlink:href="#e" gradientUnits="userSpaceOnUse"/><linearGradient x1="1275.4" y1="1003.6" x2="1332.6" y2="1037" id="h" xlink:href="#f" gradientUnits="userSpaceOnUse"/></defs><path d="M83.8 0h-3.6a98 98 0 0 0-16 2c0 .1 0 0 0 0a84.4 84.4 0 0 0-41.5 21.6 72 72 0 0 0-20 72.3 74.4 74.4 0 0 0 3.6 10l.8 1.5.3.7a74.5 74.5 0 0 0 7.7 12.6l.3.4.1.1.2.3.3.3.1.2.2.3.1.1.3.3.3.4 1 1s-.1 0 0 0c0 .2 0 .3.2.4l.3.3 1 1v.1l.2.3h.1c0 .2.2.3.2.3l.2.2.2.2.3.4 1 1a77 77 0 0 0 7.3 6.4c.5.3.9.5 1.3.5.7 0 1.2-.7 1.2-1.3 0-.4-.1-.7-.4-1a63.7 63.7 0 0 1-14.7-41 64.7 64.7 0 0 1 2-16 60.4 60.4 0 0 1 31.2-39.3 53.2 53.2 0 0 1 52 2.8c8 5 14.7 12.1 19.5 20.3.4.7 1 1.3 1.5 1.7 1.7 1.5 4 2 6.5 2.2h37.6a5.3 5.3 0 0 0 .8-.1 6 6 0 0 0 1.8-.9 5.5 5.5 0 0 0 1.3-1.2c.6-.9.8-1.7.8-2.6v-.5a11 11 0 0 0-1.3-4.6l-1.6-3-3.7-6.5a87 87 0 0 0-8-11.1 91 91 0 0 0-8.3-8.7 92.6 92.6 0 0 0-12.4-9.5A96.3 96.3 0 0 0 84.9 0zM150 26.5zM93.5 87.3c-2.7 0-5 0-7 2-1.1.9-2 1.8-3.4 2.4a11 11 0 0 1-4.3.7H42.4c-.9 0-1.6.2-1.7 1.2 0 1.2.8 1.7 1.8 2.1l36.8 17.1c3 1.1 5.4 4 5.6 7l.1 2c0 .7.2 1.3.3 1.9l.1.6.3.9v.2a7 7 0 0 0 .6 1v.1l.1.1.2.2v.2h.2v.2h.1v.1l.2.2.2.1.1.2.4.3.2.1.2.2 4 2.5 3.1 2 .6.3c.6.4 1 .6 1.4 1.1l.3.4c1.3 1.7 2.3 4.2 2.3 7s-1.2 5.8-4.3 8.1c-.7.6-1.4 1-2.2 1.5a62.8 62.8 0 0 1-33 10 60.2 60.2 0 0 1-17.7-2.6 60.4 60.4 0 0 1-4.3-1.5l-.6-.3-1.7-.7a74.6 74.6 0 0 1-31.9-27.8l-.4-.5a1.5 1.5 0 0 0-1-.5 1 1 0 0 0-1 .8c-.3.6.8 2.2 1.2 2.9 1 2 2.3 3.9 3.6 5.8a89.2 89.2 0 0 0 8.6 10.7 96.6 96.6 0 0 0 79 29h.6a94.8 94.8 0 0 0 59.6-29.6 88.8 88.8 0 0 0 20.5-38.3 79.5 79.5 0 0 0 1.5-7.2 66.7 66.7 0 0 0 .8-7.4v-1c-.1-3-1.7-5.5-5-5.9h-7.4z" fill="#62b6e8"/><path d="M84.6 177.2a96.6 96.6 0 0 1-47.7-12.5 92.6 92.6 0 0 1-21.7-17.1 89.3 89.3 0 0 1-8.6-10.7A72.1 72.1 0 0 1 3 131c-.4-.7-1.5-2.3-1.3-3a1 1 0 0 1 1-.7c.4 0 .9.2 1.2.5l.3.5c7.9 12 18.7 22 31.9 27.8a90.3 90.3 0 0 0 58.1 20.5h.5a97.2 97.2 0 0 1-10.1.5m-63.9-50l-.3-.3.3.4m-.5-.6l-.2-.2.2.2m-.4-.4l-.1-.1h.1m-3.1-3.4v-.1m-.3-.3v-.1.1m-.3-.4v-.1.1m-1-1.3a73.5 73.5 0 0 1-15-47.2c.7-18.8 9-36.8 22.5-50 11.5-11 26.1-18.1 41.6-21.4a84.5 84.5 0 0 0-21.7 9.5A85.7 85.7 0 0 0 2.1 84.4v1.4c0 3.4.2 6.8.7 10.1A74.6 74.6 0 0 0 15 120.7" fill="#1c63b7"/><path d="M744.5 3.8c-163 0-325 57-455.7 163.8a510 510 0 0 1 13.4-5.6 355.7 355.7 0 0 1 5.2-2 476.7 476.7 0 0 1 33.8-11.8c91.3-58.5 192.8-91 299.7-91 311 0 576.2 275.6 677.8 662.2h59.1c26.5-3.1 38.9-22.6 39.5-46.8v-4a77.9 77.9 0 0 0-.2-3.8 636.4 636.4 0 0 0-17.5-117.6 679.8 679.8 0 0 0-38.3-113.3 711.7 711.7 0 0 0-126.4-192.4c-123.3-134-295.6-218.3-477-237.3l-4-.3a692.4 692.4 0 0 0-9.4 0" fill="url(#g)" transform="matrix(.13 0 0 -.13 0 177.2)"/><path d="M1340 909.5a842.8 842.8 0 0 1-152.2 312.7 725 725 0 0 0 66.9-69.3 699 699 0 0 0 64.2-89 965.9 965.9 0 0 0 28.9-51.5c4-7.6 8.8-15.8 13-24.4a87.8 87.8 0 0 0 10.6-40.6c0-7.2-1.7-14.4-6.4-21.6a43.6 43.6 0 0 0-10.2-9.5m0 0c-4.5-3-9.6-5.5-14.9-6.8" fill="url(#h)" transform="matrix(.13 0 0 -.13 0 177.2)"/><path d="M30.3 135.2c-.4 0-.8-.2-1.3-.4a77.4 77.4 0 0 1-7.2-6.5c-8-10.9-13.1-24.7-13.1-38 0-34.5 27-62.5 60.3-62.5a60.1 60.1 0 0 1 53.6 33.6 6.8 6.8 0 0 1-1.5-1.7 59.2 59.2 0 0 0-19.6-20.3 54 54 0 0 0-52-2.8 60.4 60.4 0 0 0-31 39.2 64.7 64.7 0 0 0-2 16c0 14.8 5 29.6 14.6 41 .3.4.4.7.4 1 0 .7-.4 1.4-1.2 1.4" fill="#0776bb"/><g clip-path="url(#i)" transform="matrix(.13 0 0 -.13 0 177.2)"><path d="M321.9 723.1V53.9h1000.2v669.2z" fill="url(#j)"/></g><g clip-path="url(#k)" transform="matrix(.13 0 0 -.13 0 177.2)"><path d="M13.9 1420.1V386.9h1329.2v1033.2z" fill="url(#l)"/></g><g clip-path="url(#m)" transform="matrix(.13 0 0 -.13 0 177.2)"><path d="M582.9 1409.1v-296.2h596.2v296.2z" fill="url(#n)"/></g><g clip-path="url(#o)" transform="matrix(.13 0 0 -.13 0 177.2)"><path d="M677.9 433.1V215.9h172.2v217.2z" fill="url(#p)"/></g><path d="M265.8 53.1h-29c-8.2 0-14.2 1.8-18.2 5.8s-5.9 10-5.9 18.2v22.3c0 15.8 7.2 24 22 24.6H272V94.4a6.5 6.5 0 0 0-11-5c-1.3 1.3-2 3-2 5V111h-22.4c-7 0-11-4.1-11-11.3V77.1c0-6.8 3.3-11 10.1-11h36.3v-6.5c0-4.6-1.9-6.5-6.3-6.5m63 34.6h-33V77.2c0-7.1 3.8-11 11-11h22v21.5zm6.6-34.6H306.6c-16.3 0-23.9 7.8-23.9 24.5v39.6a6.5 6.5 0 0 0 11 5c1.3-1.2 2-3 2-5v-16.4H329v16.4a6.5 6.5 0 0 0 11 5c1.3-1.2 2-3 2-5V59.6c0-4.5-2-6.5-6.5-6.5m111 24.5c0-16.7-7.7-24.4-24-24.4H359c-4.8 0-6.6 1.9-6.6 6.4v57.6a6.5 6.5 0 0 0 6.5 6.8c1.7 0 3.3-.7 4.5-1.8 1.3-1.2 2-3 2-5v-51H382c7 0 10.8 3.9 10.8 11v40a6.5 6.5 0 0 0 11 5c1.3-1.2 2-3 2-5v-51h16.6c7.1 0 11 3.9 11 11v40a6.5 6.5 0 0 0 10.9 5c1.3-1.2 2-3 2-5V77.6m63.1-11.4a6.5 6.5 0 0 0 6.8-6.5c0-1.7-.7-3.3-1.8-4.5-1.2-1.3-3-2-5-2h-46.1c-2.3 0-4 .5-5 1.5s-1.5 2.7-1.5 5v39.9c0 8.3 2 14.3 5.9 18.4 4 4 9.8 6 18 6h28.7a6.5 6.5 0 0 0 5-11c-1.2-1.3-3-2-5-2h-28.6c-7 0-11-4-11-11v-5.8h28a6.5 6.5 0 0 0 6.8-6.5c0-1.7-.8-3.3-1.8-4.5-1.2-1.3-3-2-5-2h-28v-15h39.6m70-13h-46c-4.6 0-6.6 1.7-6.6 6.3v28a26.4 26.4 0 0 0 0 1.5v28.3a6.5 6.5 0 0 0 6.5 6.7 6.5 6.5 0 0 0 6.5-6.8v-23h28a6.5 6.5 0 0 0 6.8-6.5c0-1.7-.7-3.3-1.8-4.5-1.2-1.3-2.9-2-5-2h-28v-15h39.5a6.5 6.5 0 0 0 5-11c-1.2-1.3-3-2-5-2m55.5 46.6c0 7.1-4 11.2-11 11.2h-11.7c-7 0-10.7-4-10.7-11.2V76.9c0-7 3.8-10.8 10.7-10.8h11.7c7 0 11 3.8 11 10.6v23zm-11-46.6h-11.5c-16.3 0-24 7.4-24 23.8v23c0 16.3 7.6 24 23.8 24h11.8c16.3 0 23.9-7.9 23.9-24.6V77c0-16.3-7.7-23.8-24-23.8m89 39a25 25 0 0 0 4.3-14c.5-6.1-.8-12.3-3.6-16.5-4.4-6.8-12.6-8.5-18.7-8.5H665c-4.5 0-6.5 2-6.5 6.4v57.7a6.5 6.5 0 0 0 11 5c1.3-1.2 2-3 2-5v-51h24.3c3 0 5.7 2 7.2 4.2a15.6 15.6 0 0 1 .2 13c-1.2 2.5-3.1 4.3-5.3 4.3h-9.2c-2 0-3.8.7-5 2a6.8 6.8 0 0 0-1.8 4.5c0 1.7.7 3.4 1.8 4.5 1.2 1.4 3 2 5 2h9.3c2.1 0 4 1.8 5.2 4.4.9 1.8 1.4 3.6 1.4 6v6.1c0 2.1.6 3.8 2 5 1 1 2.6 1.8 4.3 1.8 1.7 0 3.3-.7 4.4-1.8 1.3-1.2 2-3 2-5v-4.7c0-4.6-.6-11.8-4.3-16.8l-1-1.2-.4-.6.5-.6.9-1.2m67.7-39h-29c-16.4 0-24 7.5-24 24v22.3c0 15.8 7.1 24 21.8 24.6H787V94.4a6.5 6.5 0 0 0-11-5c-1.3 1.3-2 3-2 5V111h-22.4c-7 0-11-4.1-11-11.3V77.1c0-7.1 3.9-11 11-11h35.4v-6.5c0-4.6-1.9-6.5-6.3-6.5M850 111h-28.6c-7 0-11-4-11-11v-5.8h28a6.5 6.5 0 0 0 6.8-6.5c0-1.7-.7-3.3-1.8-4.5-1.2-1.3-3-2-5-2h-28v-15h39.6a6.5 6.5 0 0 0 6.8-6.5c0-1.7-.7-3.3-1.8-4.5-1.2-1.3-2.9-2-5-2h-46c-2.4 0-4 .5-5 1.5s-1.6 2.7-1.6 5v39.9c0 8.3 2 14.3 5.9 18.4 4 4 9.8 6 18 6H850a6.5 6.5 0 0 0 5-11c-1.2-1.3-2.9-2-5-2" fill="#176fc1"/></svg>