<svg width="20" height="20" viewBox="0 0 20 20" fill="none" xmlns="http://www.w3.org/2000/svg">
<g clip-path="url(#clip0)">
<path d="M18.9023 10.2067C18.9023 9.59491 18.8527 8.9798 18.7469 8.37793H10.2578V11.8437H15.1191C14.9174 12.9614 14.2692 13.9502 13.3201 14.5786V16.8273H16.2204C17.9235 15.2598 18.9023 12.9449 18.9023 10.2067Z" fill="#4285F4"/>
<path d="M10.2575 19C12.6848 19 14.7318 18.203 16.2233 16.8273L13.3231 14.5786C12.5161 15.1275 11.4744 15.4384 10.2608 15.4384C7.91281 15.4384 5.92199 13.8543 5.20768 11.7246H2.21484V14.0428C3.74268 17.0819 6.85456 19 10.2575 19Z" fill="#34A853"/>
<path d="M5.20472 11.725C4.82772 10.6073 4.82772 9.39691 5.20472 8.27914V5.96094H2.21519C0.938687 8.50402 0.938687 11.5002 2.21519 14.0432L5.20472 11.725Z" fill="#FBBC04"/>
<path d="M10.2575 4.56225C11.5406 4.5424 12.7807 5.02523 13.71 5.9115L16.2795 3.34196C14.6524 1.81413 12.493 0.974151 10.2575 1.00061C6.85456 1.00061 3.74267 2.91867 2.21484 5.96111L5.20437 8.27931C5.91537 6.1463 7.90949 4.56225 10.2575 4.56225Z" fill="#EA4335"/>
</g>
<defs>
<clipPath id="clip0">
<rect width="17.6428" height="18" fill="white" transform="translate(1.25977 1)"/>
</clipPath>
</defs>
</svg>
