<svg width="190" height="25" viewBox="0 0 190 25" fill="none" xmlns="http://www.w3.org/2000/svg">
<path d="M131.751 13.2511C131.751 8.44026 135.571 4.38403 140.429 4.38403C143.117 4.38403 145.476 5.56317 146.985 7.44978L145.098 8.95907C144.014 7.63844 142.316 6.7423 140.429 6.7423C136.986 6.7423 134.298 9.71372 134.298 13.204C134.298 16.6942 136.939 19.6185 140.429 19.6185C142.316 19.6185 144.014 18.7695 145.098 17.4017L146.985 18.911C145.476 20.7976 143.117 21.9767 140.429 21.9767C135.618 22.0239 131.751 18.062 131.751 13.2511Z" fill="black"/>
<path d="M148.07 3.91235H150.475V21.7409H148.07V3.91235Z" fill="black"/>
<path d="M151.985 15.9396C151.985 12.2607 154.767 9.85522 158.069 9.85522C161.371 9.85522 164.153 12.2607 164.153 15.9396C164.153 19.6185 161.371 22.0239 158.069 22.0239C154.767 22.0239 151.985 19.6185 151.985 15.9396ZM161.748 15.9396C161.748 13.7228 160.05 12.1663 158.069 12.1663C156.088 12.1663 154.437 13.7228 154.437 15.9396C154.437 18.2035 156.088 19.7599 158.069 19.7599C160.05 19.7599 161.748 18.2035 161.748 15.9396Z" fill="black"/>
<path d="M176.322 10.1855V21.7411H173.869V19.9959C173.209 21.4109 171.322 22.0712 170.143 22.0712C167.219 22.0712 165.474 20.1374 165.474 16.8359V10.2327H167.879V16.7887C167.879 18.6753 169.011 19.8544 170.521 19.8544C172.03 19.8544 173.869 18.9583 173.869 16.5529V10.1855H176.322Z" fill="black"/>
<path d="M190 3.91235V21.7409H187.595V19.9957C186.84 21.3164 185.189 22.0239 183.633 22.0239C180.473 22.0239 177.879 19.6184 177.879 15.9395C177.879 12.2606 180.473 9.85519 183.586 9.85519C185.236 9.85519 186.84 10.5627 187.595 11.8833V3.91235H190V3.91235ZM187.547 15.9395C187.547 13.6284 185.661 12.1663 183.869 12.1663C181.888 12.1663 180.284 13.7699 180.284 15.9395C180.284 18.1091 181.888 19.7599 183.869 19.7599C185.802 19.7599 187.547 18.2506 187.547 15.9395Z" fill="black"/>
<path d="M59.8235 12.8738C59.6349 17.496 56.0032 21.1277 51.4281 21.1277C46.6172 21.1277 43.0798 17.2602 43.0798 12.5436C43.0798 7.82708 46.9474 3.91235 51.6639 3.91235C53.7864 3.91235 55.8616 4.8085 57.6539 6.45929L56.2861 8.15724C54.9183 6.9781 53.3147 6.17629 51.7111 6.17629C48.268 6.17629 45.4381 9.00622 45.4381 12.4965C45.4381 16.0339 48.1265 18.7694 51.5224 18.7694C54.5882 18.7694 56.9936 16.5527 57.4653 13.6284H50.532V11.6003H59.9179L59.8235 12.8738Z" fill="black"/>
<path d="M67.7945 11.7419H66.5211C65.1061 11.7419 63.9741 12.8738 63.9741 14.2888V20.9863H61.7102V9.57227H63.5968V10.5156C64.21 9.90242 65.2004 9.57227 66.2853 9.57227H68.7378L67.7945 11.7419Z" fill="black"/>
<path d="M80.2462 20.9863H78.3124V19.5241C76.8031 20.9863 74.4448 21.6938 72.0394 20.6561C70.2471 19.8543 68.9265 18.2507 68.5963 16.3169C67.936 12.638 70.7659 9.33643 74.3977 9.33643C75.907 9.33643 77.3219 9.94958 78.3124 10.9401V9.47792H80.2934L80.2462 20.9863ZM77.9351 16.0811C78.4539 13.77 76.7088 11.6475 74.4449 11.6475C72.4639 11.6475 70.8603 13.2512 70.8603 15.2321C70.8603 17.4489 72.7941 19.194 75.1052 18.7695C76.4258 18.5808 77.6049 17.496 77.9351 16.0811Z" fill="black"/>
<path d="M84.8684 8.91175V9.57206H88.5002V11.6002H84.8684V21.0333H82.6045V9.05325C82.6045 6.55348 84.3968 5.04419 86.6607 5.04419H89.3963L88.5002 7.21379H86.6607C85.6702 7.11946 84.8684 7.92128 84.8684 8.91175Z" fill="black"/>
<path d="M100.622 20.9863H98.6878V19.5241C97.1785 20.9863 94.8202 21.6938 92.4148 20.6561C90.6225 19.8543 89.3019 18.2507 88.9717 16.3169C88.3114 12.638 91.1413 9.33643 94.7731 9.33643C96.2824 9.33643 97.6973 9.94958 98.6878 10.9401V9.47792H100.669L100.622 20.9863ZM98.2633 16.0811C98.7821 13.77 97.037 11.6475 94.7731 11.6475C92.7921 11.6475 91.1885 13.2512 91.1885 15.2321C91.1885 17.4489 93.1223 19.194 95.4334 18.7695C96.8012 18.5808 97.9331 17.496 98.2633 16.0811Z" fill="black"/>
<path d="M112.838 14.2416V20.9862H110.526V14.2416C110.526 12.8266 109.347 11.6946 107.98 11.6946C106.517 11.6946 105.385 12.8266 105.385 14.2416V20.9862H103.121V9.5722H105.008V10.5627C105.81 9.80803 106.942 9.38354 108.074 9.38354C110.715 9.38354 112.838 11.5532 112.838 14.2416Z" fill="black"/>
<path d="M126.28 20.9863H124.346V19.5241C122.837 20.9863 120.478 21.6938 118.073 20.6561C116.281 19.8543 114.96 18.2507 114.63 16.3169C113.969 12.638 116.799 9.33643 120.431 9.33643C121.94 9.33643 123.355 9.94958 124.346 10.9401V9.47792H126.327L126.28 20.9863ZM123.921 16.0811C124.44 13.77 122.695 11.6475 120.431 11.6475C118.45 11.6475 116.847 13.2512 116.847 15.2321C116.847 17.4489 118.78 19.194 121.091 18.7695C122.459 18.5808 123.591 17.496 123.921 16.0811Z" fill="black"/>
<path fill-rule="evenodd" clip-rule="evenodd" d="M15.5417 3.88473C13.6903 4.99067 12.3455 6.96142 12.3455 9.77076V12.007L10.3577 11.0069C7.76243 9.70124 4.7765 10.7511 3.37399 13.2206C2.53612 14.6959 2.49182 16.9477 3.52439 18.8526C4.5112 20.6731 6.51138 22.2094 9.87303 22.2094L26.9045 22.2094C29.1241 22.2094 30.5602 21.5923 31.4217 20.8275C32.2799 20.0657 32.6741 19.0678 32.6741 18.0632C32.6741 17.0231 32.2524 15.8621 31.4278 15.0325C30.641 14.241 29.4192 13.6805 27.6243 13.9063L25.6903 14.1495L26.1131 12.2351C26.6167 9.95495 26.4599 8.06845 25.7947 6.61832C25.1409 5.19297 23.9306 4.04354 22.0269 3.32524C19.8835 2.51648 17.4345 2.75411 15.5417 3.88473ZM14.1394 1.50787C16.7486 -0.0507525 20.0682 -0.365927 22.9914 0.737075C25.4831 1.67725 27.2945 3.29195 28.289 5.45997C29.0607 7.1423 29.2993 9.06669 29.0784 11.1201C30.85 11.2694 32.3007 12.0019 33.3701 13.0778C34.7436 14.4595 35.4212 16.3391 35.4212 18.0632C35.4212 19.8227 34.7163 21.589 33.2391 22.9003C31.7652 24.2087 29.6297 24.9736 26.9045 24.9736L9.87303 24.9736C5.54258 24.9736 2.59809 22.9165 1.11268 20.1761C-0.326973 17.5202 -0.371021 14.2436 0.988853 11.8492C2.74849 8.7508 6.28561 7.07144 9.76251 7.87316C10.2757 4.99574 11.9477 2.81708 14.1394 1.50787Z" fill="#FB825A"/>
</svg>
