<svg width="138" height="17" viewBox="0 0 138 17" fill="none" xmlns="http://www.w3.org/2000/svg">
<path d="M15.6518 8.62015C15.4727 12.8539 12.0691 16.1492 7.8147 16.1492C3.33636 16.1492 0 12.6138 0 8.33645C0 4.01541 3.60506 0.480011 8.01623 0.480011C10.0091 0.480011 11.9572 1.3093 13.5918 2.81512L12.3154 4.36458C11.0615 3.29523 9.53886 2.57506 8.01623 2.57506C4.79182 2.57506 2.1496 5.15023 2.1496 8.33645C2.1496 11.5663 4.65747 14.076 7.83709 14.076C10.7032 14.076 12.9424 12.0246 13.3902 9.4058H6.89664V7.5508H15.6742L15.6518 8.62015Z" fill="white"/>
<path d="M23.1085 7.59452H21.8993C20.5782 7.59452 19.5034 8.64204 19.5034 9.92963V16.0184H17.3762V5.58676H19.1228V6.4597C19.7049 5.89229 20.623 5.58676 21.653 5.58676H23.9594L23.1085 7.59452Z" fill="white"/>
<path d="M34.7519 16.0184H32.9382V14.7089C31.5275 16.0402 29.3107 16.6949 27.0716 15.7346C25.4146 15.0145 24.1606 13.5523 23.8472 11.8064C23.2202 8.44562 25.8624 5.45581 29.266 5.45581C30.699 5.45581 31.9753 6.02322 32.9158 6.9398V5.6304H34.7519V16.0184ZM32.5799 11.5446C33.0949 9.42768 31.4379 7.50721 29.2883 7.50721C27.4298 7.50721 25.9296 8.99121 25.9296 10.7807C25.9296 12.8103 27.7657 14.3816 29.8929 14.0106C31.1916 13.8142 32.2664 12.8103 32.5799 11.5446Z" fill="white"/>
<path d="M39.0733 5.01935V5.58676H42.4768V7.41993H39.0733V15.9965H36.946V5.08482C36.946 2.79336 38.6254 1.44031 40.7526 1.44031H43.3277L42.4768 3.40442H40.7526C39.8122 3.38259 39.0733 4.12459 39.0733 5.01935Z" fill="white"/>
<path d="M53.7841 16.0184H51.9704V14.7089C50.5597 16.0402 48.343 16.6949 46.1038 15.7346C44.4468 15.0145 43.1929 13.5523 42.8794 11.8064C42.2524 8.44562 44.8946 5.45581 48.2982 5.45581C49.7312 5.45581 51.0076 6.02322 51.948 6.9398V5.6304H53.7841V16.0184ZM51.6121 11.5446C52.1271 9.42768 50.4702 7.50721 48.3206 7.50721C46.4621 7.50721 44.9618 8.99121 44.9618 10.7807C44.9618 12.8103 46.7979 14.3816 48.9251 14.0106C50.2239 13.8142 51.2987 12.8103 51.6121 11.5446Z" fill="white"/>
<path d="M65.2049 9.84236V15.9966H63.0777V9.84236C63.0777 8.55477 61.9805 7.50725 60.6817 7.50725C59.3382 7.50725 58.2634 8.55477 58.2634 9.84236V15.9966H56.1362V5.58679H57.9052V6.48155C58.6665 5.80502 59.6965 5.4122 60.7713 5.4122C63.2344 5.43402 65.2049 7.39813 65.2049 9.84236Z" fill="white"/>
<path d="M77.7666 16.0184H75.9529V14.7089C74.5422 16.0402 72.3254 16.6949 70.0862 15.7346C68.4292 15.0145 67.1753 13.5523 66.8618 11.8064C66.2348 8.44562 68.8771 5.45581 72.2806 5.45581C73.7137 5.45581 74.99 6.02322 75.9305 6.9398V5.6304H77.7666V16.0184ZM75.5946 11.5446C76.1096 9.42768 74.4526 7.50721 72.303 7.50721C70.4445 7.50721 68.9442 8.99121 68.9442 10.7807C68.9442 12.8103 70.7804 14.3816 72.9076 14.0106C74.2063 13.8142 75.2811 12.8103 75.5946 11.5446Z" fill="white"/>
<path d="M83.9915 8.38013C83.9915 4.03727 87.5293 0.436401 91.9629 0.436401C94.4484 0.436401 96.6204 1.50575 98.0086 3.18615L96.2845 4.53921C95.2769 3.33892 93.7318 2.55327 92.0077 2.55327C88.8057 2.55327 86.365 5.21573 86.365 8.38013C86.365 11.5227 88.8057 14.1415 92.0077 14.1415C93.7318 14.1415 95.2992 13.3559 96.2845 12.1556L98.0086 13.5086C96.6204 15.189 94.4484 16.2584 91.9629 16.2584C87.5293 16.2802 83.9915 12.723 83.9915 8.38013Z" fill="white"/>
<path d="M99.4414 0H101.681V16.0184H99.4414V0Z" fill="white"/>
<path d="M103.024 10.8026C103.024 7.50723 105.577 5.36853 108.6 5.36853C111.623 5.36853 114.198 7.52905 114.198 10.8026C114.198 14.0761 111.623 16.2584 108.6 16.2584C105.577 16.2584 103.024 14.0979 103.024 10.8026ZM112.003 10.8026C112.003 8.79481 110.458 7.39811 108.622 7.39811C106.786 7.39811 105.263 8.79481 105.263 10.8026C105.263 12.8321 106.786 14.2288 108.622 14.2288C110.458 14.2288 112.003 12.8321 112.003 10.8026Z" fill="white"/>
<path d="M125.393 5.63037V15.9965H123.154V14.4252C122.55 15.691 120.826 16.2802 119.706 16.2802C117.019 16.2802 115.407 14.5343 115.429 11.5663V5.63037H117.668V11.5009C117.668 13.2031 118.721 14.2288 120.087 14.2288C121.475 14.2288 123.154 13.4213 123.154 11.2826V5.63037H125.393Z" fill="white"/>
<path d="M138 0V16.0184H135.761V14.4689C135.044 15.6474 133.522 16.2803 132.089 16.2803C129.2 16.2803 126.804 14.0979 126.804 10.8244C126.804 7.50726 129.2 5.39039 132.066 5.39039C133.566 5.39039 135.044 6.02327 135.761 7.17991V0H138ZM135.738 10.7808C135.738 8.68573 133.992 7.39815 132.335 7.39815C130.521 7.39815 129.021 8.81667 129.021 10.7808C129.021 12.7231 130.499 14.2289 132.335 14.2289C134.149 14.2289 135.738 12.8758 135.738 10.7808Z" fill="white"/>
</svg>
