<svg width="40" height="40" viewBox="0 0 40 40" fill="none" xmlns="http://www.w3.org/2000/svg">
<path d="M1.53057 12.2224H0.77802C0.34733 12.2224 0 12.5804 0 13.0244C0 13.4683 0.34733 13.8263 0.77802 13.8263H1.53057C1.96126 13.8263 2.30859 13.4683 2.30859 13.0244C2.30859 12.5828 1.96126 12.2224 1.53057 12.2224ZM15.9124 23.9059H15.1598C14.7291 23.9059 14.3818 24.2639 14.3818 24.7079C14.3818 25.1518 14.7291 25.5098 15.1598 25.5098H15.9124C16.3431 25.5098 16.6904 25.1518 16.6904 24.7079C16.6904 24.2639 16.3431 23.9059 15.9124 23.9059ZM15.2825 16.2537C15.2825 15.8098 14.9352 15.4518 14.5045 15.4518H11.9042C11.4735 15.4518 11.1261 15.8122 11.1261 16.2537C11.1261 16.6953 11.4735 17.0533 11.9042 17.0557H14.5045C14.9352 17.0557 15.2825 16.6977 15.2825 16.2537ZM39.9522 11.2295L39.1603 6.64914C38.938 4.93063 37.4769 3.67038 35.7959 3.75392H5.33036C4.19344 3.70619 3.2348 4.62034 3.18849 5.79227C3.18155 5.98083 3.19775 6.17177 3.23943 6.35555L4.07303 11.2295C4.07303 11.2677 4.07303 11.3035 4.0985 11.3416C4.19807 11.936 3.90399 12.1746 3.64234 12.263C3.23712 12.4133 3.02872 12.8716 3.1746 13.2893C3.28574 13.6067 3.57519 13.8168 3.90168 13.8192H37.8683C39.0052 13.8597 39.9592 12.9408 39.9986 11.7665C40.0055 11.5851 39.987 11.4061 39.9499 11.2295H39.9522ZM29.5879 29.6009C29.2591 27.8251 28.275 27.1687 27.1635 27.1687H19.1171C18.6841 27.1735 18.3367 27.5363 18.339 27.9802C18.339 28.386 18.6354 28.7297 19.0291 28.7726C19.2861 28.8204 19.5616 29.1617 19.7353 30.0186L20.562 34.754C20.8746 36.2243 22.1296 37.2793 23.5907 37.2984L28.3931 37.2769C29.53 37.3199 30.4863 36.4057 30.5303 35.2338C30.5373 35.0548 30.5211 34.8781 30.484 34.7039L29.5902 29.6033L29.5879 29.6009ZM18.948 25.5648H27.6799C27.7447 25.5624 27.8096 25.5504 27.8744 25.5313C28.6825 25.3666 28.7219 24.6888 28.6154 24.0133L27.5039 17.7121C27.1983 16.0771 26.2767 15.4327 25.0657 15.4327H17.0585C16.6279 15.4374 16.2852 15.8002 16.2898 16.2442C16.2944 16.6428 16.5839 16.9793 16.9659 17.0295C17.2322 17.0796 17.524 17.4448 17.6953 18.3828L18.5382 23.197V23.2137C18.6262 23.5622 18.4224 23.9202 18.0843 24.0109C18.0774 24.0109 18.0704 24.0157 18.0612 24.0157C17.656 24.1661 17.4476 24.6243 17.5934 25.042C17.7046 25.3595 17.994 25.5695 18.3205 25.5719H18.948V25.5648Z" fill="#FF671D"/>
</svg>
