<svg width="223" height="34" viewBox="0 0 223 34" fill="none" xmlns="http://www.w3.org/2000/svg">
<path d="M30.5603 15.009C30.5003 14.427 30.4105 13.7838 30.2307 13.0486C30.0509 12.3135 29.7813 11.5171 29.3618 10.6901C28.9723 9.86306 28.433 9.00541 27.7439 8.17838C27.4743 7.84144 27.1747 7.53514 26.875 7.22883C27.3544 5.32973 26.3058 3.67568 26.3058 3.67568C24.5081 3.55315 23.3696 4.25766 22.9502 4.56396C22.8902 4.53333 22.8004 4.5027 22.7404 4.47207C22.4408 4.34955 22.1112 4.22703 21.8116 4.13514C21.4821 4.04324 21.1525 3.95135 20.8229 3.85946C20.4933 3.76757 20.1338 3.70631 19.8042 3.64504C19.7443 3.64504 19.6844 3.61441 19.6245 3.61441C18.8455 1.07207 16.5984 0 16.5984 0C14.1116 1.62342 13.6323 3.89009 13.6323 3.89009C13.6323 3.89009 13.6323 3.95135 13.6023 4.01261C13.4525 4.04324 13.3327 4.1045 13.1829 4.13514C13.0031 4.1964 12.7934 4.25766 12.6136 4.34955C12.4338 4.44144 12.2241 4.5027 12.0443 4.59459C11.6548 4.74775 11.2953 4.93153 10.9358 5.14595C10.5762 5.36036 10.2467 5.57477 9.88714 5.81982C9.82722 5.78919 9.79726 5.78919 9.79726 5.78919C6.35174 4.44144 3.26575 6.06486 3.26575 6.06486C2.9961 9.83243 4.64396 12.191 4.97353 12.6198C4.88365 12.8649 4.82373 13.0793 4.73384 13.3243C4.46419 14.182 4.28443 15.0396 4.16458 15.9586C4.13462 16.0811 4.13462 16.2036 4.10466 16.3568C0.958753 17.9496 0 21.2577 0 21.2577C2.66653 24.382 5.78248 24.5964 5.78248 24.5964C6.17197 25.3315 6.65135 26.0054 7.16069 26.6486C7.37042 26.9243 7.6101 27.1694 7.84979 27.4144C6.89104 30.2631 7.9996 32.6216 7.9996 32.6216C10.9657 32.7441 12.9132 31.3045 13.3327 30.9676C13.6323 31.0595 13.9319 31.1514 14.2315 31.2432C15.1303 31.4883 16.0891 31.6108 17.0179 31.6721C17.2576 31.6721 17.4972 31.6721 17.707 31.6721H17.8268H17.9167H18.0665H18.2163C19.6245 33.7243 22.0813 34 22.0813 34C23.819 32.1009 23.9389 30.2324 23.9389 29.8342C23.9389 29.8342 23.9389 29.8342 23.9389 29.8036C23.9389 29.773 23.9389 29.7423 23.9389 29.7423C23.9389 29.7117 23.9389 29.6811 23.9389 29.6505C24.2984 29.3748 24.6579 29.0991 24.9875 28.7928C25.6766 28.1495 26.3058 27.4144 26.8151 26.618C26.8751 26.5568 26.905 26.4649 26.9649 26.4036C28.9424 26.5261 30.3505 25.1477 30.3505 25.1477C30.021 23.0342 28.8525 22.0234 28.6128 21.809C28.6128 21.809 28.6128 21.809 28.5828 21.7784C28.5529 21.7477 28.463 21.7784 28.463 21.7784L28.433 21.7477C28.433 21.6252 28.463 21.5027 28.463 21.3802C28.463 21.1658 28.4929 20.9207 28.4929 20.7063V20.5225V20.4306V20.4C28.4929 20.3387 28.4929 20.3694 28.4929 20.3387V20.1856V20.0018C28.4929 19.9405 28.4929 19.8793 28.4929 19.818C28.4929 19.7568 28.4929 19.6955 28.463 19.6342L28.433 19.4505L28.3731 19.2973C28.3431 19.0523 28.2832 18.8378 28.2533 18.5928C28.0435 17.6739 27.684 16.8162 27.2346 16.0505C26.7852 15.2847 26.2159 14.5802 25.5568 13.9982C24.9276 13.4162 24.1786 12.9568 23.4295 12.5892C22.6805 12.2523 21.8716 12.0072 21.0926 11.9153C20.7031 11.8541 20.3136 11.8541 19.9241 11.8541H19.7743H19.7443H19.6844H19.6245H19.4747C19.4148 11.8541 19.3548 11.8541 19.3249 11.8541C19.1151 11.8847 18.9354 11.9153 18.7256 11.9459C17.9467 12.0991 17.1976 12.3748 16.5385 12.773C15.8793 13.1712 15.3101 13.6613 14.8607 14.2432C14.4113 14.8252 14.0517 15.4378 13.7821 16.0811C13.5424 16.7243 13.3926 17.3982 13.3626 18.0414C13.3626 18.1946 13.3626 18.3784 13.3626 18.5315C13.3626 18.5622 13.3626 18.6234 13.3626 18.6541V18.7766C13.3626 18.8685 13.3626 18.9297 13.3926 19.0216C13.4225 19.3586 13.4825 19.6649 13.5723 19.9712C13.7521 20.5838 14.0218 21.1351 14.3513 21.5946C14.6809 22.0541 15.1004 22.4523 15.5198 22.7586C15.9393 23.0649 16.4186 23.2793 16.8681 23.4018C17.3175 23.555 17.7669 23.5856 18.2163 23.5856C18.2762 23.5856 18.3362 23.5856 18.3661 23.5856C18.3961 23.5856 18.426 23.5856 18.456 23.5856C18.486 23.5856 18.5159 23.5856 18.5459 23.5856C18.6058 23.5856 18.6358 23.5856 18.6957 23.5856H18.7256H18.7556C18.7856 23.5856 18.8155 23.5856 18.8455 23.5856C18.9054 23.5856 18.9354 23.555 18.9953 23.555C19.0552 23.555 19.0852 23.5243 19.1451 23.5243C19.235 23.4937 19.3249 23.4631 19.4447 23.4324C19.6245 23.3712 19.8042 23.2793 19.984 23.218C20.1338 23.1261 20.3136 23.0342 20.4334 22.9423C20.4634 22.9117 20.5233 22.8811 20.5533 22.8505C20.7031 22.7279 20.733 22.5135 20.6132 22.3604C20.5233 22.2378 20.3136 22.2072 20.1937 22.2685C20.1638 22.2991 20.1338 22.2991 20.0739 22.3297C19.9541 22.391 19.8342 22.4523 19.6844 22.4829C19.5346 22.5135 19.4148 22.5748 19.2649 22.6054C19.1751 22.6054 19.1151 22.636 19.0253 22.636C18.9953 22.636 18.9354 22.636 18.9054 22.636C18.8755 22.636 18.8155 22.636 18.7856 22.636C18.7556 22.636 18.6957 22.636 18.6657 22.636C18.6058 22.636 18.5758 22.636 18.5159 22.636C18.5159 22.636 18.486 22.636 18.5159 22.636H18.486C18.456 22.636 18.456 22.636 18.426 22.636C18.3961 22.636 18.3362 22.636 18.3062 22.636C17.9766 22.5748 17.6171 22.4829 17.3175 22.3297C16.9879 22.1766 16.6883 21.9622 16.3887 21.7171C16.119 21.4721 15.8494 21.1351 15.6696 20.7982C15.4899 20.4613 15.3401 20.0631 15.2801 19.6342C15.2502 19.4198 15.2202 19.2054 15.2502 18.991C15.2502 18.9297 15.2502 18.8685 15.2502 18.8072V18.7766V18.7459C15.2502 18.7153 15.2502 18.6847 15.2502 18.6541C15.2502 18.5315 15.2801 18.4396 15.3101 18.3171C15.4599 17.4288 15.9093 16.5405 16.5984 15.8667C16.7782 15.7135 16.9579 15.5297 17.1377 15.4072C17.3474 15.2541 17.5272 15.1622 17.7669 15.0396C17.9766 14.9477 18.2163 14.8559 18.456 14.7946C18.6957 14.7333 18.9354 14.7027 19.1751 14.6721C19.2949 14.6721 19.4148 14.6721 19.5346 14.6721C19.5646 14.6721 19.5945 14.6721 19.6245 14.6721H19.7144H19.7743C19.8042 14.6721 19.7743 14.6721 19.7743 14.6721H19.8642C20.1338 14.7027 20.3735 14.7333 20.6432 14.7946C21.1525 14.9171 21.6618 15.1009 22.1412 15.3766C23.07 15.8973 23.8789 16.7243 24.3583 17.7351C24.598 18.2252 24.7778 18.7766 24.8677 19.3279C24.8976 19.4811 24.8976 19.6036 24.9276 19.7568V19.8486V19.9405C24.9276 19.9712 24.9276 20.0018 24.9276 20.0324C24.9276 20.0631 24.9276 20.0937 24.9276 20.1243V20.2162V20.3081C24.9276 20.3694 24.9276 20.4919 24.9276 20.5532C24.9276 20.7063 24.8976 20.8595 24.8976 21.0126C24.8677 21.1658 24.8677 21.3189 24.8377 21.4721C24.8077 21.6252 24.7778 21.7784 24.7478 21.9009C24.6879 22.2072 24.598 22.4829 24.4782 22.7586C24.2684 23.3405 23.9688 23.8613 23.6093 24.3514C22.8902 25.3315 21.9315 26.1586 20.8529 26.6486C20.3136 26.8937 19.7144 27.0775 19.1451 27.2C18.8455 27.2613 18.5459 27.2919 18.2463 27.2919H18.1863H18.1264H17.9766H17.8268H17.7369C17.7669 27.2919 17.7369 27.2919 17.7369 27.2919H17.707C17.5572 27.2919 17.3774 27.2919 17.2276 27.2613C16.5984 27.2 15.9393 27.1081 15.3401 26.9243C14.7109 26.7405 14.1416 26.4955 13.5723 26.1892C12.4338 25.5766 11.4451 24.7189 10.6362 23.7081C10.2467 23.1874 9.88714 22.6667 9.61749 22.0847C9.31788 21.5027 9.10816 20.9207 8.92839 20.2775C8.77858 19.6649 8.65874 19.0216 8.62878 18.3784V18.2559V18.2252V18.1946V18.1333V18.0414V18.0108V18.0721V18.0108V17.8577V17.827V17.7658C8.62878 17.6739 8.62878 17.6126 8.62878 17.5207C8.62878 17.2144 8.65874 16.8775 8.71866 16.5712C8.74862 16.2342 8.80855 15.9279 8.86847 15.591C8.92839 15.2541 9.01827 14.9477 9.10816 14.6414C9.28792 14.0288 9.49765 13.4162 9.7673 12.8342C10.2766 11.6703 10.9657 10.6595 11.7747 9.86306C11.9844 9.64865 12.1941 9.46486 12.4039 9.28108C12.6136 9.0973 12.8533 8.94414 13.093 8.79099C13.3327 8.63784 13.5723 8.48468 13.812 8.36216C13.9319 8.3009 14.0517 8.23964 14.2015 8.17838C14.2615 8.14775 14.3214 8.11712 14.3813 8.08649C14.4412 8.05586 14.5011 8.02523 14.5611 7.99459C14.8307 7.87207 15.1004 7.78018 15.37 7.68829C15.4299 7.65766 15.5198 7.65766 15.5797 7.62703C15.6397 7.5964 15.7295 7.5964 15.7895 7.56577C15.9393 7.53514 16.0591 7.5045 16.2089 7.47387C16.2688 7.44324 16.3587 7.44324 16.4186 7.41261C16.4786 7.41261 16.5685 7.38198 16.6284 7.38198C16.6883 7.38198 16.7782 7.35135 16.8381 7.35135L16.928 7.32072H17.0179C17.0778 7.32072 17.1677 7.29009 17.2276 7.29009C17.3175 7.29009 17.3774 7.25946 17.4673 7.25946C17.5272 7.25946 17.6471 7.22883 17.707 7.22883C17.7669 7.22883 17.7969 7.22883 17.8568 7.22883H17.9467H18.0066H18.0665C18.1564 7.22883 18.2163 7.22883 18.3062 7.22883H18.426C18.426 7.22883 18.456 7.22883 18.426 7.22883H18.456H18.5159C18.5758 7.22883 18.6657 7.22883 18.7256 7.22883C18.9953 7.22883 19.2649 7.22883 19.5346 7.22883C20.0739 7.25946 20.5832 7.32072 21.0926 7.41261C22.1112 7.5964 23.07 7.93333 23.9389 8.39279C24.8077 8.82162 25.5867 9.37297 26.2459 9.92432C26.2758 9.95496 26.3358 9.98559 26.3657 10.0468C26.3957 10.0775 26.4556 10.1081 26.4856 10.1694C26.5754 10.2306 26.6354 10.3225 26.7252 10.3838C26.8151 10.445 26.8751 10.5369 26.9649 10.5982C27.0548 10.6901 27.1147 10.7514 27.1747 10.8432C27.4743 11.1495 27.714 11.4559 27.9536 11.7928C28.433 12.436 28.8225 13.0486 29.1221 13.6613C29.1521 13.6919 29.1521 13.7225 29.1821 13.7838C29.212 13.8144 29.212 13.845 29.242 13.9063C29.2719 13.9676 29.3019 14.0595 29.3319 14.1207C29.3618 14.182 29.3918 14.2739 29.4217 14.3351C29.4517 14.3964 29.4817 14.4883 29.5116 14.5495C29.6315 14.8252 29.7213 15.1009 29.8112 15.3459C29.961 15.7441 30.0509 16.1117 30.1408 16.4486C30.1708 16.5712 30.2906 16.6631 30.4105 16.6631C30.5303 16.6631 30.6501 16.5405 30.6501 16.418C30.6202 15.8667 30.6202 15.4685 30.5603 15.009Z" fill="url(#paint0_linear)"/>
<path d="M59.2929 18.3476C59.0532 24.2899 54.4991 28.9152 48.8065 28.9152C42.8143 28.9152 38.3501 23.953 38.3501 17.9494C38.3501 11.8845 43.1738 6.92236 49.0762 6.92236C51.7427 6.92236 54.3493 8.08633 56.5365 10.1998L54.8287 12.3746C53.1509 10.8737 51.1135 9.8629 49.0762 9.8629C44.7618 9.8629 41.2264 13.4773 41.2264 17.9494C41.2264 22.4827 44.582 26.0052 48.8365 26.0052C52.6715 26.0052 55.6676 23.126 56.2668 19.4503H47.5781V16.8467H59.3228L59.2929 18.3476Z" fill="white"/>
<path d="M69.2699 16.9076H67.652C65.8843 16.9076 64.4462 18.3779 64.4462 20.1851V28.731H61.5999V14.0896H63.9368V15.3148C64.7158 14.5184 65.9442 14.0896 67.3224 14.0896H70.4084L69.2699 16.9076Z" fill="white"/>
<path d="M84.8496 28.7315H82.4227V26.8936C80.5352 28.7621 77.5691 29.681 74.573 28.3333C72.3558 27.3225 70.678 25.2702 70.2586 22.8198C69.4197 18.1026 72.9551 13.9062 77.5091 13.9062C79.4266 13.9062 81.1344 14.7026 82.3928 15.9891V14.1513H84.8496V28.7315ZM81.9434 22.4522C82.6325 19.481 80.4154 16.7855 77.5391 16.7855C75.0523 16.7855 73.0449 18.8684 73.0449 21.3801C73.0449 24.2288 75.5017 26.4342 78.348 25.9135C80.0858 25.6378 81.5239 24.2288 81.9434 22.4522Z" fill="white"/>
<path d="M90.6322 13.2934V14.0898H95.1863V16.6628H90.6322V28.7006H87.7859V13.3853C87.7859 10.1691 90.033 8.27002 92.8793 8.27002H96.3248L95.1863 11.0268H92.8793C91.6209 10.9961 90.6322 12.0376 90.6322 13.2934Z" fill="white"/>
<path d="M110.317 28.7315H107.89V26.8936C106.002 28.7621 103.036 29.681 100.04 28.3333C97.8229 27.3225 96.1451 25.2702 95.7256 22.8198C94.8867 18.1026 98.4221 13.9062 102.976 13.9062C104.894 13.9062 106.601 14.7026 107.86 15.9891V14.1513H110.317V28.7315ZM107.41 22.4522C108.1 19.481 105.882 16.7855 103.006 16.7855C100.519 16.7855 98.512 18.8684 98.512 21.3801C98.512 24.2288 100.969 26.4342 103.815 25.9135C105.553 25.6378 106.991 24.2288 107.41 22.4522Z" fill="white"/>
<path d="M125.597 20.0627V28.7006H122.75V20.0627C122.75 18.2555 121.282 16.7853 119.545 16.7853C117.747 16.7853 116.309 18.2555 116.309 20.0627V28.7006H113.462V14.0898H115.829V15.3456C116.848 14.3961 118.226 13.8447 119.664 13.8447C122.96 13.8754 125.597 16.6321 125.597 20.0627Z" fill="white"/>
<path d="M142.405 28.7315H139.978V26.8936C138.09 28.7621 135.124 29.681 132.128 28.3333C129.911 27.3225 128.233 25.2702 127.814 22.8198C126.975 18.1026 130.51 13.9062 135.064 13.9062C136.982 13.9062 138.69 14.7026 139.948 15.9891V14.1513H142.405V28.7315ZM139.499 22.4522C140.188 19.481 137.971 16.7855 135.094 16.7855C132.608 16.7855 130.6 18.8684 130.6 21.3801C130.6 24.2288 133.057 26.4342 135.903 25.9135C137.641 25.6378 139.079 24.2288 139.499 22.4522Z" fill="white"/>
<path d="M150.734 18.0106C150.734 11.9151 155.468 6.86108 161.4 6.86108C164.726 6.86108 167.632 8.36199 169.489 10.7205L167.182 12.6196C165.834 10.935 163.767 9.83225 161.46 9.83225C157.176 9.83225 153.91 13.5692 153.91 18.0106C153.91 22.4214 157.176 26.0971 161.46 26.0971C163.767 26.0971 165.864 24.9944 167.182 23.3097L169.489 25.2088C167.632 27.5674 164.726 29.0683 161.4 29.0683C155.468 29.0989 150.734 24.1061 150.734 18.0106Z" fill="white"/>
<path d="M171.407 6.24854H174.403V28.7314H171.407V6.24854Z" fill="white"/>
<path d="M176.201 21.4105C176.201 16.7852 179.616 13.7834 183.661 13.7834C187.706 13.7834 191.152 16.8159 191.152 21.4105C191.152 26.0051 187.706 29.0681 183.661 29.0681C179.616 29.0681 176.201 26.0357 176.201 21.4105ZM188.215 21.4105C188.215 18.5925 186.148 16.6321 183.691 16.6321C181.234 16.6321 179.197 18.5925 179.197 21.4105C179.197 24.2591 181.234 26.2195 183.691 26.2195C186.148 26.2195 188.215 24.2591 188.215 21.4105Z" fill="white"/>
<path d="M206.132 14.1514V28.7009H203.136V26.4955C202.327 28.2721 200.02 29.0991 198.522 29.0991C194.926 29.0991 192.769 26.6487 192.799 22.4829V14.1514H195.795V22.391C195.795 24.7802 197.203 26.2198 199.031 26.2198C200.889 26.2198 203.136 25.0865 203.136 22.0847V14.1514H206.132Z" fill="white"/>
<path d="M223 6.24854V28.7314H220.004V26.5566C219.045 28.2107 217.008 29.099 215.09 29.099C211.225 29.099 208.02 26.0359 208.02 21.4413C208.02 16.7855 211.225 13.8143 215.06 13.8143C217.068 13.8143 219.045 14.7026 220.004 16.326V6.24854H223ZM219.974 21.3801C219.974 18.4395 217.637 16.6323 215.42 16.6323C212.993 16.6323 210.986 18.6233 210.986 21.3801C210.986 24.1062 212.963 26.2197 215.42 26.2197C217.847 26.2197 219.974 24.3206 219.974 21.3801Z" fill="white"/>
<defs>
<linearGradient id="paint0_linear" x1="15.3192" y1="41.6404" x2="15.3192" y2="10.5822" gradientUnits="userSpaceOnUse">
<stop stop-color="#FFF100"/>
<stop offset="1" stop-color="#F05A28"/>
</linearGradient>
</defs>
</svg>
