<svg width="140" height="23" viewBox="0 0 140 23" fill="none" xmlns="http://www.w3.org/2000/svg">
<path d="M39.5851 12.3232C39.4302 16.3153 36.2827 19.4519 32.3635 19.4519C28.2227 19.4519 25.1666 16.0998 25.1666 12.0582C25.1775 7.97471 28.4768 4.66298 32.5603 4.63818C34.3843 4.63818 36.1835 5.42544 37.7115 6.83102L36.5291 8.28465C35.3699 7.27424 33.9659 6.57997 32.5603 6.57997C29.5601 6.59082 27.1348 9.02696 27.1363 12.0272C27.1363 15.0832 29.4283 17.4512 32.3867 17.4512C35.0212 17.4512 37.0947 15.528 37.5132 13.0392H31.5251V11.3128H39.6099L39.5851 12.3232Z" fill="black"/>
<path d="M46.4643 11.3623H45.3547C44.1382 11.3669 43.1557 12.3587 43.1603 13.5752V19.3231H41.1891V9.46387H42.8163V10.3023C43.3587 9.75986 44.1955 9.46387 45.1409 9.46387H47.2593L46.4643 11.3623Z" fill="black"/>
<path d="M57.208 19.3235H55.5312V18.0837C54.1086 19.497 51.9592 19.8814 50.1336 19.0507C47.5595 17.9442 46.3694 14.961 47.4758 12.3854C48.2786 10.518 50.1166 9.31079 52.1482 9.31544C53.4159 9.31854 54.6293 9.82375 55.525 10.7195V9.47971H57.2297L57.208 19.3235ZM55.1934 15.1083C55.6041 13.4377 54.5828 11.75 52.9122 11.3394C51.2416 10.9287 49.554 11.95 49.1433 13.6205C48.7327 15.2911 49.7539 16.9788 51.4245 17.3894C51.8429 17.4917 52.28 17.5072 52.7046 17.4328C53.9211 17.2205 54.8959 16.3077 55.1857 15.1083H55.1934Z" fill="black"/>
<path d="M61.1767 8.92153V9.46393H64.3134V11.1888H61.1829V19.2984H59.2288V8.94632C59.2288 6.77673 60.7785 5.49512 62.728 5.49512H65.0882L64.3134 7.34392H62.728C61.8757 7.37802 61.1969 8.06919 61.1767 8.92153Z" fill="black"/>
<path d="M74.7342 19.3233H73.059V18.0836C71.6348 19.4938 69.4853 19.8766 67.6613 19.0444C65.0872 17.9379 63.8971 14.9547 65.0036 12.3791C65.8063 10.5117 67.6443 9.30445 69.6759 9.3091C70.9436 9.31219 72.157 9.8174 73.0528 10.7131V9.47336H74.7574L74.7342 19.3233ZM72.7382 15.1081C73.1395 13.4437 72.1152 11.77 70.4508 11.3687C68.7864 10.9673 67.1127 11.9916 66.7113 13.656C66.31 15.3204 67.3343 16.9941 68.9987 17.3955C69.4156 17.4962 69.8495 17.5086 70.2726 17.4327C71.4829 17.2157 72.4499 16.3029 72.7382 15.1081Z" fill="black"/>
<path d="M85.2567 13.481V19.3234H83.2839V13.481C83.2514 12.2551 82.2317 11.2881 81.0074 11.3207C79.8281 11.3517 78.8781 12.3001 78.8471 13.481V19.3234H76.8759V9.46412H78.5031V10.3273C79.2268 9.67798 80.1643 9.31689 81.1376 9.31689C83.411 9.31689 85.2567 11.158 85.2567 13.4329C85.2567 13.4484 85.2567 13.4655 85.2567 13.481Z" fill="black"/>
<path d="M96.8424 19.3233H95.1656V18.0836C93.7415 19.4938 91.592 19.8766 89.768 19.0444C87.1939 17.9379 86.0038 14.9547 87.1102 12.3791C87.913 10.5117 89.7509 9.30445 91.7826 9.3091C93.0503 9.31219 94.2637 9.8174 95.1594 10.7131V9.47336H96.8641L96.8424 19.3233ZM94.8278 15.1081C95.2261 13.4437 94.2002 11.77 92.5358 11.3718C90.8714 10.9735 89.1977 11.9994 88.7994 13.6638C88.7436 13.8947 88.7157 14.1302 88.7142 14.3674C88.7049 16.0798 90.0841 17.4745 91.7966 17.4838C93.2363 17.4916 94.4931 16.5075 94.8278 15.1066V15.1081Z" fill="black"/>
<path d="M110.301 19.3217H102.881V4.65674H104.854V17.3256H110.301V19.3217Z" fill="black"/>
<path d="M120.85 19.3231H119.175V18.0662C118.273 18.9666 117.05 19.4718 115.775 19.4703C112.949 19.4703 110.661 17.1814 110.661 14.3562C110.661 11.5311 112.949 9.24219 115.775 9.24219C117.042 9.24219 118.259 9.74739 119.151 10.6462V9.38941H120.856L120.85 19.3231ZM118.903 14.3438C118.897 12.6221 117.495 11.232 115.773 11.2382C114.051 11.2444 112.661 12.6469 112.667 14.3686C112.674 16.0811 114.061 17.4681 115.773 17.4743C117.493 17.4836 118.894 16.095 118.903 14.3748C118.903 14.364 118.903 14.3547 118.903 14.3438Z" fill="black"/>
<path d="M132.703 14.3686C132.697 17.1828 130.415 19.464 127.601 19.4702C126.318 19.4717 125.088 18.9665 124.175 18.0646V19.323H122.524V5.44531H124.496V10.4245C125.356 9.65588 126.471 9.23436 127.626 9.24211C130.437 9.27 132.703 11.5558 132.703 14.3686ZM130.688 14.3686C130.699 12.6561 129.32 11.2614 127.607 11.2505C125.895 11.2397 124.5 12.6189 124.489 14.3314C124.478 16.0438 125.858 17.4385 127.57 17.4494H127.589C129.29 17.4463 130.671 16.0701 130.682 14.3686H130.688Z" fill="black"/>
<path d="M139.482 10.1302L138.621 11.5838C138.201 11.3374 137.486 10.919 136.698 10.919C135.958 10.919 135.267 11.2878 135.267 11.9046C135.267 12.5694 136.031 12.8344 137.018 13.1862C138.596 13.7286 140 14.8134 140 16.4406C140 18.0678 138.596 19.4734 136.574 19.4734C135.342 19.4734 134.109 18.9806 133.296 18.463L134.06 16.811C134.627 17.1566 135.712 17.575 136.524 17.575C137.511 17.575 137.954 16.983 137.954 16.4174C137.954 15.751 137.334 15.3574 135.983 14.8398C134.996 14.4446 133.394 13.7798 133.394 12.0286C133.394 10.3782 134.799 9.26856 136.673 9.26856C137.758 9.26701 138.669 9.63739 139.482 10.1302Z" fill="black"/>
<path d="M21.0497 10.0809C21.0172 9.6392 20.9428 9.20218 20.8281 8.77446C20.684 8.23052 20.4856 7.70206 20.2361 7.19686C19.9355 6.59402 19.5636 6.03148 19.1265 5.52007C18.9421 5.29536 18.7453 5.0815 18.5345 4.88004C18.8553 3.59843 18.1409 2.48884 18.1409 2.48884C17.3211 2.4222 16.5044 2.62986 15.8164 3.08083C15.7699 3.05293 15.7156 3.03588 15.6614 3.03123C15.4599 2.9367 15.2492 2.86232 15.0322 2.80963C14.8106 2.76004 14.589 2.68565 14.3426 2.61281C14.1194 2.56322 13.8777 2.51363 13.6266 2.45784C13.5786 2.45784 13.5538 2.43305 13.5042 2.43305C13.1539 1.38699 12.4132 0.514504 11.4369 0C9.71049 1.0848 9.39125 2.61281 9.39125 2.61281C9.3866 2.64691 9.37885 2.67945 9.36646 2.71044L9.07046 2.77863C8.94648 2.82822 8.79926 2.87781 8.67528 2.92585C8.55131 2.9739 8.40563 3.02504 8.28166 3.08083C8.03525 3.17846 7.76405 3.32723 7.51765 3.44966C7.27125 3.60463 7.02484 3.74565 6.80323 3.89442C6.79084 3.88048 6.77224 3.87118 6.75364 3.86963C4.36244 2.95685 2.24243 4.04165 2.24243 4.04165C2.04562 6.58007 3.2048 8.18247 3.42641 8.45367C3.37682 8.60864 3.32723 8.77446 3.27144 8.91859C3.09942 9.49973 2.9677 10.0933 2.87781 10.693C2.87781 10.7674 2.85302 10.8666 2.85302 10.9642C0.664826 12.0521 0 14.2945 0 14.2945C1.84881 16.4161 3.99361 16.5385 3.99361 16.5385C4.26636 17.022 4.57785 17.4838 4.92343 17.9178C5.07066 18.0913 5.21943 18.2633 5.38835 18.4354C4.99162 19.5744 5.02726 20.8204 5.48753 21.9362C6.80323 21.9997 8.10034 21.6076 9.16034 20.8266C9.35716 20.901 9.57877 20.9505 9.78023 21.0234C10.4094 21.1846 11.0541 21.2837 11.7034 21.3194H12.5217C13.4825 22.7002 15.1872 22.897 15.1872 22.897C16.3959 21.6154 16.4688 20.3586 16.4688 20.0874V19.9634C16.7183 19.7883 16.9569 19.5992 17.1847 19.3977C17.6683 18.9638 18.0913 18.4664 18.4416 17.9178C18.4664 17.8697 18.5144 17.8201 18.5392 17.7628C19.8952 17.8372 20.8638 16.9244 20.8638 16.9244C20.6422 15.4956 19.8286 14.8044 19.6565 14.682H19.6069C19.593 14.682 19.5822 14.6711 19.5822 14.6572C19.5822 14.5828 19.6069 14.4851 19.6069 14.4108C19.6069 14.2558 19.6317 14.1148 19.6317 13.9458V13.3585C19.6348 13.3151 19.6271 13.2733 19.6069 13.2345L19.5822 13.1121L19.5574 12.9881C19.5372 12.8301 19.5047 12.6751 19.4597 12.5232C19.311 11.9157 19.0723 11.333 18.7515 10.7953C18.4338 10.2823 18.0433 9.81742 17.5923 9.41449C17.16 9.02862 16.6702 8.71558 16.1387 8.48467C15.635 8.24291 15.0926 8.09259 14.5363 8.04145C14.2651 8.01665 13.9939 7.99186 13.7227 7.99186H13.2857C13.1447 7.99651 13.0036 8.01201 12.8657 8.04145C12.3342 8.13598 11.8243 8.32815 11.3625 8.6071C10.9286 8.8752 10.538 9.20838 10.2048 9.59426C9.89336 9.96464 9.64385 10.3846 9.46409 10.834C9.29517 11.2587 9.19599 11.7081 9.16964 12.1652V12.8053C9.18669 13.0191 9.23008 13.2299 9.29827 13.4329C9.4083 13.8327 9.59271 14.2093 9.84067 14.5409C10.0654 14.8462 10.3381 15.1128 10.6481 15.3313C10.9348 15.5235 11.2478 15.6738 11.5779 15.7761C11.8801 15.8644 12.1931 15.9047 12.5077 15.8985H12.9261C12.9757 15.8985 13.0005 15.8737 13.0253 15.8737C13.0501 15.8737 13.0982 15.8489 13.123 15.8489C13.1973 15.8241 13.2469 15.8241 13.3198 15.8009L13.6901 15.6459C13.8048 15.5947 13.9133 15.5281 14.0109 15.4491C14.0357 15.4243 14.0605 15.3995 14.0838 15.3995C14.1783 15.3313 14.2 15.1996 14.1318 15.105C14.1256 15.0957 14.1179 15.0864 14.1086 15.0787C14.0466 14.9857 13.9211 14.9594 13.8265 15.0213C13.8219 15.0244 13.8172 15.0275 13.8141 15.0306C13.7893 15.0306 13.7645 15.0539 13.7397 15.0787C13.6514 15.1252 13.5615 15.1655 13.4685 15.2027L13.1725 15.2771C13.123 15.2771 13.0734 15.3003 13.0176 15.3003H12.5527C12.314 15.2709 12.0815 15.2042 11.863 15.1035C11.6306 14.9966 11.4152 14.8555 11.223 14.6851C11.0246 14.5084 10.8573 14.2976 10.7287 14.0652C10.5985 13.8172 10.507 13.5522 10.459 13.2764C10.4389 13.1385 10.4311 12.9974 10.4342 12.858V12.6441C10.4342 12.5697 10.459 12.4891 10.459 12.4225C10.5659 11.7902 10.8774 11.2106 11.3454 10.7705C11.457 10.6574 11.581 10.5582 11.7158 10.4745C11.846 10.3784 11.987 10.2963 12.1342 10.2281C12.283 10.1568 12.4395 10.0979 12.5992 10.0561C12.7588 10.008 12.9246 9.98169 13.092 9.98169H13.6375L14.1799 10.0561C14.5363 10.1289 14.8757 10.2622 15.1872 10.4497C15.8365 10.8185 16.3665 11.3671 16.7152 12.0273C16.8888 12.3589 17.0065 12.7169 17.0608 13.0873C17.0809 13.1756 17.0887 13.2671 17.0856 13.3585V13.9505C17.0856 14.0481 17.0608 14.1473 17.0608 14.2465C17.0561 14.3457 17.0391 14.4449 17.0112 14.5409C16.9864 14.6401 16.9616 14.7393 16.9383 14.8369C16.8826 15.0384 16.8159 15.2352 16.7369 15.4289C16.585 15.8133 16.3866 16.1774 16.1464 16.5137C15.4057 17.5272 14.3007 18.2138 13.0641 18.4307C12.858 18.4602 12.6518 18.4757 12.4442 18.4803H12.1265C12.0103 18.485 11.8956 18.4757 11.7809 18.4555C11.3392 18.4323 10.9007 18.3579 10.476 18.2339C10.0483 18.1068 9.63456 17.941 9.23628 17.7411C8.45523 17.3289 7.7687 16.7586 7.22166 16.0659C6.94736 15.7218 6.7087 15.3514 6.50879 14.9609C6.31817 14.5735 6.16165 14.169 6.04387 13.7521C5.9199 13.3353 5.84551 12.9044 5.82227 12.4705V11.7809C5.82537 11.5686 5.83931 11.3578 5.86566 11.1471C5.89045 10.9239 5.94004 10.7023 5.96484 10.4807C6.00048 10.2637 6.04852 10.0499 6.11206 9.84067C6.22984 9.42689 6.37861 9.02397 6.55683 8.63189C6.88537 7.88493 7.35338 7.20771 7.93607 6.63586C8.09104 6.48089 8.23207 6.36466 8.38084 6.24224C8.52496 6.11361 8.67993 5.99738 8.84575 5.89665C8.99298 5.79747 9.16654 5.69984 9.33856 5.60066C9.41605 5.54952 9.49818 5.50767 9.58496 5.47668C9.62371 5.45498 9.664 5.43949 9.70739 5.42864C9.73219 5.42864 9.80657 5.37905 9.83137 5.37905C10.0111 5.30001 10.1956 5.23182 10.3831 5.17604C10.4327 5.15124 10.4822 5.15124 10.538 5.12644C10.5938 5.10165 10.6372 5.10165 10.693 5.07685L10.989 5.00247C11.037 5.00247 11.0866 4.97767 11.144 4.97767C11.2013 4.97767 11.2432 4.95443 11.2989 4.95443C11.3547 4.95443 11.3981 4.92963 11.4539 4.92963H11.6089C11.6585 4.92963 11.7081 4.90484 11.7639 4.90484C11.8227 4.90794 11.8801 4.89864 11.9359 4.88004C11.9855 4.88004 12.0599 4.85524 12.1079 4.85524H13.3477C13.7118 4.87074 14.0745 4.91103 14.4325 4.97767C15.1097 5.09855 15.7652 5.31396 16.3804 5.61925C16.9306 5.9044 17.4482 6.24998 17.9193 6.65291L17.9921 6.7273L18.0665 6.80013C18.1161 6.84972 18.1905 6.89931 18.2386 6.9551L18.3935 7.10233L18.5407 7.2573C18.7391 7.47891 18.9111 7.67572 19.0831 7.89733C19.3822 8.29715 19.655 8.71712 19.8967 9.15414C19.9215 9.17894 19.9215 9.20373 19.9463 9.22853C19.9649 9.24868 19.9742 9.27502 19.9711 9.30292L20.0455 9.45014L20.1184 9.60511C20.1478 9.6516 20.1648 9.70584 20.1679 9.76008C20.2423 9.95689 20.3229 10.1305 20.3648 10.3025C20.4546 10.5442 20.529 10.7906 20.5864 11.0417C20.6096 11.1285 20.6964 11.1827 20.7847 11.1657C20.8777 11.1672 20.9552 11.0928 20.9567 10.9998C20.9567 10.9967 20.9567 10.9952 20.9567 10.9921C21.0668 10.7023 21.0978 10.3877 21.0497 10.0809Z" fill="#FF671D"/>
</svg>
