<svg width="64" height="44" viewBox="0 0 64 44" fill="none" xmlns="http://www.w3.org/2000/svg">
<g clip-path="url(#clip0_29164_17944)">
<path d="M54.3966 19.069C54.3966 15.6804 53.7516 12.2919 51.8403 9.21336C48.3166 3.38856 41.9143 0 35.1896 0C31.9885 0 28.4649 0.930196 25.5862 2.45837C21.7632 4.60668 18.5621 8.30533 17.2724 12.314C7.66895 11.6939 0 18.7811 0 27.7065C0 36.3218 7.04714 43.0991 16.0058 43.0991H51.1953C58.2427 43.0991 64 37.5621 64 30.7851C64 25.226 59.8316 20.3093 54.3966 19.069ZM51.1953 36.9199H16.0058C10.5707 36.9199 6.40229 32.9112 6.40229 27.6844C6.40229 22.4576 10.5707 18.6039 16.0058 18.4489C19.7366 18.3381 22.0856 19.6891 22.0856 19.6891C22.0856 19.6891 21.8323 11.0294 28.8104 7.68519C30.7219 6.75499 32.9788 6.15702 35.2128 6.15702C39.7036 6.15702 44.1711 8.61539 46.4051 12.314C49.3531 17.0757 47.0501 24.628 47.0501 24.628H50.8962C54.4195 24.628 57.6209 27.3965 57.6209 30.7851C57.6209 34.1736 54.719 36.9199 51.1953 36.9199Z" fill="#ECA313"/>
</g>
<defs>
<clipPath id="clip0_29164_17944">
<rect width="64" height="43.0769" fill="white"/>
</clipPath>
</defs>
</svg>
