<svg width="134" height="17" viewBox="0 0 134 17" fill="none" xmlns="http://www.w3.org/2000/svg">
<path d="M14.9616 8.88718C14.8082 13.0723 11.5345 16.3533 7.46803 16.3533C3.17136 16.3533 0 12.8398 0 8.60301C0 4.34036 3.45269 0.826904 7.67264 0.826904C9.56522 0.826904 11.4322 1.6536 13.0179 3.12615L11.7903 4.65037C10.5882 3.59117 9.13044 2.86781 7.67264 2.86781C4.57801 2.86781 2.04604 5.4254 2.04604 8.57717C2.04604 11.7806 4.42455 14.2607 7.49361 14.2607C10.2302 14.2607 12.3785 12.2456 12.8133 9.63638H6.59847V7.82798H14.9872L14.9616 8.88718Z" fill="#404041"/>
<path d="M22.0972 7.87962H20.9463C19.6931 7.87962 18.6701 8.91299 18.6701 10.2047V16.2241H16.624V5.89038H18.312V6.76875C18.8747 6.20039 19.7442 5.89038 20.7161 5.89038H22.9156L22.0972 7.87962Z" fill="#404041"/>
<path d="M33.2226 16.224H31.4834V14.9323C30.1535 16.2499 28.0307 16.8957 25.8824 15.9399C24.2967 15.2423 23.0947 13.7698 22.7878 12.0389C22.174 8.70629 24.7315 5.73535 27.9796 5.73535C29.3607 5.73535 30.5627 6.3037 31.4834 7.2079V5.91619H33.2481L33.2226 16.224ZM31.1254 11.8064C31.6113 9.71382 30.0256 7.80209 27.9796 7.80209C26.2149 7.80209 24.7571 9.27464 24.7571 11.0314C24.7571 13.0464 26.4962 14.5965 28.5423 14.2348C29.821 14.0281 30.844 13.0464 31.1254 11.8064Z" fill="#404041"/>
<path d="M37.34 5.32216V5.89051H40.5881V7.69891H37.34V16.1984H35.3196V5.34799C35.3196 3.07458 36.9308 1.7312 38.9513 1.7312H41.4065L40.5881 3.66877H38.9513C38.0561 3.72044 37.34 4.4438 37.34 5.32216Z" fill="#404041"/>
<path d="M51.4321 16.224H49.693V14.9323C48.3631 16.2499 46.2403 16.8957 44.092 15.9399C42.5063 15.2423 41.3043 13.7698 40.9974 12.0389C40.3836 8.70629 42.9411 5.73535 46.1892 5.73535C47.5703 5.73535 48.7723 6.3037 49.693 7.2079V5.91619H51.4577L51.4321 16.224ZM49.335 11.8064C49.8209 9.71382 48.2352 7.80209 46.1892 7.80209C44.3989 7.80209 42.9923 9.27464 42.9923 11.0314C42.9923 13.0464 44.7314 14.5965 46.7774 14.2348C48.0306 14.0281 49.0536 13.0464 49.335 11.8064Z" fill="#404041"/>
<path d="M62.3529 10.1013V16.224H60.3068V10.1013C60.3068 8.80962 59.2582 7.77626 58.0051 7.77626C56.7263 7.77626 55.7033 8.80962 55.7033 10.1013V16.224H53.6572V5.89036H55.3452V6.79455C56.0869 6.12286 57.0588 5.73535 58.0818 5.73535C60.4603 5.73535 62.3529 7.69875 62.3529 10.1013Z" fill="#404041"/>
<path d="M74.3733 16.224H72.6342V14.9323C71.3043 16.2499 69.1815 16.8957 67.0332 15.9399C65.4475 15.2423 64.2454 13.7698 63.9385 12.0389C63.3247 8.70629 65.8823 5.73535 69.1304 5.73535C70.5114 5.73535 71.7135 6.3037 72.6342 7.2079V5.91619H74.3989L74.3733 16.224ZM72.2761 11.8064C72.7621 9.71382 71.1764 7.80209 69.1304 7.80209C67.3401 7.80209 65.9334 9.27464 65.9334 11.0314C65.9334 13.0464 67.6726 14.5965 69.7186 14.2348C70.9462 14.0281 71.9692 13.0464 72.2761 11.8064Z" fill="#404041"/>
<path d="M80.6904 8.49953C80.6904 4.10771 84.1431 0.465088 88.4909 0.465088C90.9206 0.465088 93.0178 1.55013 94.3989 3.25518L92.7109 4.6244C91.739 3.41019 90.2301 2.63516 88.5165 2.63516C85.3963 2.63516 82.9922 5.32192 82.9922 8.52537C82.9922 11.703 85.3707 14.3381 88.5165 14.3381C90.2045 14.3381 91.7135 13.563 92.7109 12.3488L94.3989 13.7181C93.0434 15.4231 90.9206 16.5081 88.4909 16.5081C84.1175 16.4823 80.6904 12.8914 80.6904 8.49953Z" fill="#404041"/>
<path d="M95.5498 0H97.7237V16.1981H95.5498V0Z" fill="#404041"/>
<path d="M99.2838 10.9536C99.2838 7.621 101.765 5.45093 104.731 5.45093C107.698 5.45093 110.205 7.621 110.205 10.9536C110.205 14.2862 107.698 16.4821 104.731 16.4821C101.765 16.4821 99.2838 14.2862 99.2838 10.9536ZM108.031 10.9536C108.031 8.93855 106.522 7.51767 104.731 7.51767C102.941 7.51767 101.458 8.93855 101.458 10.9536C101.458 12.9945 102.941 14.4154 104.731 14.4154C106.522 14.4154 108.031 12.9945 108.031 10.9536Z" fill="#404041"/>
<path d="M121.33 5.70923V16.1979H119.156V14.5962C118.568 15.8879 116.88 16.4563 115.806 16.4563C113.171 16.4563 111.611 14.6737 111.611 11.7028V5.70923H113.785V11.6511C113.785 13.382 114.808 14.4154 116.138 14.4154C117.494 14.4154 119.13 13.6145 119.13 11.4186V5.70923H121.33Z" fill="#404041"/>
<path d="M133.862 0V16.1981H131.688V14.6222C130.997 15.8106 129.514 16.4564 128.107 16.4564C125.294 16.4564 122.941 14.2605 122.941 10.9279C122.941 7.56943 125.269 5.42519 128.082 5.42519C129.54 5.42519 130.997 6.04521 131.688 7.23359V0H133.862ZM131.662 10.9279C131.662 8.80947 129.949 7.51776 128.338 7.51776C126.547 7.51776 125.115 8.96448 125.115 10.9279C125.115 12.8913 126.573 14.4155 128.338 14.4155C130.102 14.4155 131.662 13.0463 131.662 10.9279Z" fill="#404041"/>
</svg>
