<svg width="64" height="64" viewBox="0 0 64 64" fill="none" xmlns="http://www.w3.org/2000/svg">
<g clip-path="url(#clip0_29164_17952)">
<path d="M25.5503 0.66271C26.6805 0.428354 27.8107 0.2617 28.9253 0.152334C30.0711 0.0429683 31.2065 -0.00911081 32.3263 0.00130501C32.9565 0.00651292 33.4617 0.522096 33.4565 1.15225C33.4513 1.63659 33.144 2.04801 32.7169 2.20946C27.9513 4.08431 24.1388 7.57881 21.8003 11.9066C19.4982 16.1614 18.6232 21.2183 19.6701 26.3221L19.6753 26.3585C20.868 32.1185 24.2742 36.8525 28.8315 39.8522C33.3836 42.852 39.0763 44.1123 44.8367 42.9353L44.8732 42.9301C49.019 42.0708 52.6284 40.071 55.4461 37.316C58.3628 34.4673 60.4253 30.8165 61.3472 26.8168C61.4878 26.2023 62.1024 25.8221 62.7117 25.9627C63.1753 26.0721 63.5086 26.4471 63.5815 26.8897C64.9565 35.3266 62.8784 43.5915 58.3419 50.1743C53.8263 56.7259 46.868 61.6161 38.4565 63.3451C29.8003 65.1262 21.243 63.2305 14.4044 58.7309C7.5607 54.2156 2.44091 47.1068 0.659655 38.4513C-1.07993 29.9989 0.685697 21.6402 4.96174 14.8855C9.25861 8.11002 16.0815 2.93857 24.4305 0.912689C24.5919 0.871026 24.7794 0.829363 24.9826 0.782492H24.9878L25.5503 0.66271Z" fill="url(#paint0_radial_29164_17952)"/>
</g>
<defs>
<radialGradient id="paint0_radial_29164_17952" cx="0" cy="0" r="1" gradientUnits="userSpaceOnUse" gradientTransform="translate(4.22279 10.3398) rotate(47.7235) scale(77.1923 135.163)">
<stop stop-color="#FBC55A"/>
<stop offset="1" stop-color="#FB9D5A"/>
</radialGradient>
<clipPath id="clip0_29164_17952">
<rect width="64" height="64" fill="white"/>
</clipPath>
</defs>
</svg>
