<svg width="40" height="40" viewBox="0 0 40 40" fill="none" xmlns="http://www.w3.org/2000/svg">
<path d="M36.5324 17.6909C36.4621 17.0515 36.3919 16.27 36.1109 15.4174C35.9001 14.5648 35.5488 13.6412 35.057 12.6465C34.5653 11.6519 33.933 10.6572 33.1602 9.66252C32.8792 9.30728 32.5279 8.881 32.1064 8.52576C32.6684 6.25222 31.4038 4.33393 31.4038 4.33393C29.2962 4.19183 27.8911 4.97336 27.3993 5.39965C27.329 5.39965 27.2588 5.3286 27.1183 5.25755C26.767 5.11545 26.4157 4.97336 25.9942 4.83126C25.5727 4.68917 25.2214 4.61812 24.7999 4.47602C24.3784 4.40497 23.9568 4.33393 23.6055 4.26288C23.5353 4.26288 23.465 4.26288 23.3948 4.26288C22.4815 1.27886 19.8118 0 19.8118 0C16.8611 1.9183 16.2991 4.54707 16.2991 4.54707C16.2991 4.54707 16.2991 4.61812 16.2991 4.68917C16.1586 4.76021 15.9478 4.76021 15.8073 4.83126C15.5965 4.90231 15.3858 4.97336 15.1047 5.04441C14.894 5.11545 14.6832 5.1865 14.4022 5.3286C13.9807 5.54174 13.4889 5.75488 13.0674 5.96803C12.6458 6.18117 12.2243 6.46536 11.8028 6.74956C11.7325 6.74956 11.7325 6.67851 11.7325 6.67851C7.58751 5.11545 3.93426 7.03375 3.93426 7.03375C3.58299 11.4387 5.55011 14.2806 5.97164 14.778C5.90139 15.0622 5.76088 15.3464 5.69063 15.6306C5.40961 16.6252 5.12859 17.6909 4.98808 18.7567C4.98808 18.8988 4.91782 19.0409 4.91782 19.1829C1.12407 21.1012 0 25.0089 0 25.0089C3.16146 28.7034 6.88496 28.9165 6.88496 28.9165C7.37675 29.7691 7.86852 30.5506 8.50081 31.3321C8.78183 31.6163 9.06285 31.9716 9.27362 32.2558C8.14954 35.595 9.41411 38.3659 9.41411 38.3659C12.9268 38.508 15.2452 36.8028 15.737 36.3766C16.0883 36.5187 16.4396 36.5897 16.7908 36.7318C17.8447 37.016 18.9687 37.1581 20.0928 37.2291C20.3738 37.2291 20.6549 37.2291 20.9359 37.2291H21.0764H21.1466H21.2872H21.4277C23.1138 39.6448 25.9942 40 25.9942 40C28.1018 37.7975 28.1721 35.595 28.1721 35.0977C28.1721 35.0266 28.1721 35.0266 28.1721 35.0266V34.9556C28.5936 34.6714 29.0151 34.3162 29.4367 33.9609C30.2797 33.1794 30.9823 32.3268 31.6146 31.4032C31.6848 31.3322 31.7551 31.2611 31.7551 31.119C34.1437 31.2611 35.7596 29.627 35.7596 29.627C35.3381 27.1403 33.933 25.9325 33.6519 25.7194C33.6519 25.7194 33.652 25.7194 33.5817 25.7194C33.5817 25.5773 33.5817 25.4352 33.5817 25.2931C33.5817 25.0089 33.5817 24.7247 33.5817 24.5115V24.1563V24.0853V24.0142C33.5817 23.9432 33.5817 23.9432 33.5817 23.9432V23.8011V23.5879C33.5817 23.5169 33.5817 23.4458 33.5817 23.3748C33.5817 23.3037 33.5817 23.2327 33.5817 23.1616V22.9485V22.7353C33.5115 22.4512 33.5114 22.167 33.4412 21.9538C33.1602 20.8881 32.8089 19.8934 32.2469 18.9698C31.6848 18.0462 31.0525 17.2647 30.2797 16.5542C29.5069 15.8437 28.6639 15.3464 27.7506 14.9201C26.8373 14.4938 25.9239 14.2806 24.9404 14.1385C24.4486 14.0675 24.0271 14.0675 23.5353 14.0675H23.3948H23.3245H23.2543H23.184H23.0435C22.9733 14.0675 22.903 14.0675 22.8327 14.0675C22.622 14.0675 22.341 14.1385 22.1302 14.1385C21.2169 14.2806 20.3036 14.6359 19.5308 15.1332C18.758 15.6306 18.0554 16.1989 17.4934 16.8384C16.9314 17.4778 16.5098 18.2593 16.2288 19.0409C15.9478 19.8224 15.8073 20.6039 15.737 21.3854C15.737 21.5986 15.737 21.7407 15.737 21.9538C15.737 22.0249 15.737 22.0249 15.737 22.0959V22.238C15.737 22.3091 15.737 22.4512 15.737 22.5222C15.8073 22.8774 15.8775 23.3037 15.9478 23.659C16.1586 24.3695 16.5098 25.0089 16.8611 25.5773C17.2826 26.1457 17.7744 26.5719 18.2662 26.9272C18.758 27.2824 19.32 27.5666 19.8821 27.7087C20.4441 27.8508 20.9359 27.9218 21.4979 27.9218C21.5682 27.9218 21.6384 27.9218 21.7087 27.9218H21.7789H21.8492C21.9194 27.9218 21.9897 27.9218 21.9897 27.9218C21.9897 27.9218 21.9897 27.9218 22.0599 27.9218H22.1302H22.2005C22.2707 27.9218 22.341 27.9218 22.4112 27.9218C22.4815 27.9218 22.5517 27.9219 22.622 27.8508C22.7625 27.8508 22.8328 27.7798 22.9733 27.7798C23.184 27.7087 23.3948 27.6377 23.6055 27.4956C23.8163 27.4245 23.9568 27.2824 24.1676 27.1403C24.2378 27.1403 24.2378 27.0693 24.3081 26.9982C24.5189 26.8561 24.5189 26.5719 24.3784 26.4298C24.2378 26.2877 24.0271 26.2167 23.8866 26.3588C23.8163 26.3588 23.8163 26.4298 23.7461 26.4298C23.6056 26.5009 23.465 26.5719 23.2543 26.643C23.1138 26.714 22.903 26.714 22.7625 26.7851C22.6922 26.7851 22.5517 26.7851 22.4815 26.7851C22.4112 26.7851 22.4112 26.7851 22.341 26.7851C22.2707 26.7851 22.2707 26.7851 22.2005 26.7851C22.1302 26.7851 22.1302 26.7851 22.0599 26.7851C21.9897 26.7851 21.9194 26.7851 21.9194 26.7851H21.8492H21.7789C21.7087 26.7851 21.7087 26.7851 21.6384 26.7851C21.2169 26.714 20.8656 26.643 20.4441 26.4298C20.0226 26.2877 19.6713 26.0036 19.32 25.7194C18.9687 25.4352 18.6877 25.0089 18.477 24.6536C18.2662 24.2984 18.0554 23.8011 17.9852 23.3037C17.9149 23.0906 17.9149 22.8064 17.9149 22.5933C17.9149 22.5222 17.9149 22.4512 17.9149 22.3801V22.3091V22.238C17.9149 22.0959 17.9149 21.9538 17.9852 21.8117C18.1959 20.746 18.6877 19.7513 19.5308 18.8988C19.7416 18.6856 19.9523 18.5435 20.1631 18.3304C20.3738 18.1883 20.6549 18.0462 20.8656 17.9041C21.1466 17.762 21.4277 17.6909 21.6384 17.6199C21.9194 17.5488 22.2005 17.4778 22.4815 17.4778C22.622 17.4778 22.7625 17.4778 22.903 17.4778C22.9733 17.4778 22.9733 17.4778 22.9733 17.4778H23.1138H23.184H23.3245C23.6056 17.4778 23.9568 17.5488 24.2378 17.6199C24.8701 17.762 25.4322 17.9751 25.9942 18.3304C27.1183 18.9698 28.0316 19.9645 28.6639 21.1012C28.9449 21.6696 29.1557 22.3091 29.2962 22.9485C29.2962 23.0906 29.3664 23.3037 29.3664 23.4458V23.5879V23.73C29.3664 23.8011 29.3664 23.8011 29.3664 23.8721C29.3664 23.9432 29.3664 23.9432 29.3664 24.0142V24.1563V24.2984C29.3664 24.3695 29.3664 24.5115 29.3664 24.5826C29.3664 24.7957 29.3664 24.9378 29.2962 25.151C29.2962 25.2931 29.2259 25.5062 29.2259 25.6483C29.2259 25.7904 29.1557 26.0036 29.0854 26.1457C29.0151 26.5009 28.8746 26.8561 28.7341 27.1403C28.4531 27.7798 28.1018 28.4192 27.6803 29.0586C26.8373 30.1954 25.7132 31.1901 24.3784 31.7584C23.7461 32.0426 23.0435 32.2558 22.341 32.3979C21.9897 32.4689 21.6384 32.4689 21.2872 32.54H21.2169H21.1466H21.0061H20.8656H20.7954C20.5846 32.54 20.4441 32.54 20.2333 32.54C19.4605 32.4689 18.6877 32.3268 17.9852 32.1137C17.2826 31.9005 16.5098 31.6163 15.8775 31.2611C14.5427 30.5506 13.3484 29.556 12.3648 28.3481C11.873 27.7798 11.4515 27.1403 11.1705 26.4298C10.8192 25.7194 10.5382 25.0089 10.3274 24.2984C10.1167 23.5879 9.97616 22.8064 9.97616 22.0959V21.9538V21.8828V21.7407V21.3144V21.2433V21.1012V21.0302C9.97616 20.9591 9.97616 20.8171 9.97616 20.746C9.97616 20.3908 10.0464 19.9645 10.0464 19.6092C10.1167 19.254 10.1869 18.8277 10.2572 18.4725C10.3274 18.1172 10.3977 17.6909 10.5382 17.3357C10.749 16.6252 11.03 15.9147 11.311 15.2043C11.9433 13.8544 12.7161 12.6465 13.6996 11.7229C13.9104 11.5098 14.1914 11.2256 14.4725 11.0124C14.7535 10.7993 15.0345 10.5861 15.3155 10.4441C15.5965 10.2309 15.8775 10.0888 16.1586 9.94671C16.2991 9.87567 16.4396 9.80462 16.5801 9.73357C16.6503 9.73357 16.7206 9.66252 16.7908 9.66252C16.8611 9.66252 16.9314 9.59147 17.0016 9.59147C17.2826 9.44938 17.6339 9.37833 17.9149 9.23624C17.9852 9.23624 18.0554 9.16519 18.1257 9.16519C18.196 9.16519 18.2662 9.09414 18.3365 9.09414C18.477 9.02309 18.6877 9.02309 18.8282 8.95204C18.8985 8.95204 18.9688 8.881 19.1093 8.881C19.1795 8.881 19.2498 8.881 19.3903 8.80995C19.4605 8.80995 19.5308 8.80995 19.6713 8.7389H19.8118H19.9523C20.0226 8.7389 20.0928 8.7389 20.2333 8.66785C20.3036 8.66785 20.4441 8.66785 20.5144 8.5968C20.5846 8.5968 20.7251 8.5968 20.7954 8.5968C20.8656 8.5968 20.9359 8.5968 21.0061 8.5968H21.1466H21.2169H21.2872C21.3574 8.5968 21.4979 8.5968 21.5682 8.5968H21.7087H21.7789C21.8492 8.5968 21.9194 8.5968 21.9897 8.5968C22.341 8.5968 22.622 8.5968 22.9733 8.5968C23.6056 8.5968 24.2378 8.66785 24.8701 8.80995C26.0645 9.02309 27.1885 9.44938 28.2424 9.94671C29.2962 10.4441 30.2095 11.0835 30.9823 11.794C31.0525 11.865 31.0525 11.865 31.1228 11.9361C31.1931 12.0071 31.193 12.0071 31.2633 12.0782C31.3336 12.1492 31.4741 12.2202 31.5443 12.3623C31.6146 12.5044 31.7551 12.5044 31.8253 12.6465C31.8956 12.7886 32.0361 12.8597 32.1064 12.9307C32.4576 13.286 32.7386 13.6412 33.0197 14.0675C33.5817 14.778 34.0735 15.5595 34.4248 16.27C34.4248 16.341 34.495 16.341 34.495 16.4121C34.495 16.4831 34.5653 16.4831 34.5653 16.5542C34.6355 16.6252 34.6355 16.6963 34.7058 16.8384C34.776 16.9094 34.776 16.9805 34.8463 17.1226C34.9165 17.1936 34.9165 17.2647 34.9868 17.4068C35.1273 17.762 35.2678 18.0462 35.3381 18.3304C35.4786 18.8277 35.6191 19.254 35.6894 19.6092C35.7596 19.7513 35.9001 19.8934 36.0406 19.8224C36.1811 19.8224 36.3216 19.6803 36.3216 19.5382C36.6027 18.6856 36.6026 18.1883 36.5324 17.6909Z" fill="#FF671D"/>
</svg>
