<?xml version="1.0" encoding="utf-8"?>
<!-- Generator: Adobe Illustrator 20.1.0, SVG Export Plug-In . SVG Version: 6.00 Build 0)  -->
<svg version="1.1" id="Layer_1" xmlns="http://www.w3.org/2000/svg" xmlns:xlink="http://www.w3.org/1999/xlink" x="0px" y="0px"
	 width="93.5px" height="57.5px" viewBox="0 0 93.5 57.5" enable-background="new 0 0 93.5 57.5" xml:space="preserve">
<g>
	<linearGradient id="SVGID_1_" gradientUnits="userSpaceOnUse" x1="46.7584" y1="43.2075" x2="46.7584" y2="10.4131">
		<stop  offset="0" style="stop-color:#FFF200"/>
		<stop  offset="1" style="stop-color:#F15A29"/>
	</linearGradient>
	<path fill="url(#SVGID_1_)" d="M63.2,15.8c-0.1-0.6-0.2-1.3-0.4-2.1c-0.2-0.8-0.5-1.6-0.9-2.5c-0.4-0.9-1-1.8-1.7-2.6
		c-0.3-0.3-0.6-0.7-0.9-1c0.5-2-0.6-3.7-0.6-3.7c-1.9-0.1-3.1,0.6-3.6,0.9c-0.1,0-0.2-0.1-0.2-0.1c-0.3-0.1-0.7-0.3-1-0.4
		c-0.3-0.1-0.7-0.2-1.1-0.3C52.3,4,52,3.9,51.6,3.8c-0.1,0-0.1,0-0.2,0C50.6,1.1,48.2,0,48.2,0C45.5,1.7,45,4.1,45,4.1s0,0.1,0,0.1
		c-0.1,0-0.3,0.1-0.4,0.1c-0.2,0.1-0.4,0.1-0.6,0.2c-0.2,0.1-0.4,0.2-0.6,0.2c-0.4,0.2-0.8,0.4-1.2,0.6c-0.4,0.2-0.8,0.4-1.1,0.7
		c-0.1,0-0.1,0-0.1,0c-3.7-1.4-7,0.3-7,0.3c-0.3,4,1.5,6.5,1.8,6.9c-0.1,0.2-0.2,0.5-0.2,0.7c-0.3,0.9-0.5,1.8-0.6,2.8
		c0,0.1,0,0.3,0,0.4c-3.4,1.7-4.5,5.2-4.5,5.2c2.9,3.3,6.2,3.5,6.2,3.5c0,0,0,0,0,0c0.4,0.8,0.9,1.5,1.5,2.2
		c0.2,0.3,0.5,0.6,0.7,0.8c-1,3,0.1,5.5,0.1,5.5c3.2,0.1,5.3-1.4,5.7-1.7c0.3,0.1,0.6,0.2,1,0.3c1,0.3,2,0.4,3,0.4
		c0.3,0,0.5,0,0.8,0l0.1,0l0.1,0l0.2,0l0.2,0c0,0,0,0,0,0c1.5,2.1,4.2,2.4,4.2,2.4c2.1-2.2,2-4.5,2-4.5c0,0,0,0-0.1,0
		c0.4-0.3,0.8-0.6,1.2-0.9c0.8-0.7,1.4-1.5,2-2.3c0.1-0.1,0.1-0.2,0.2-0.2c2.1,0.1,3.6-1.3,3.6-1.3c-0.4-2.5-1.9-3.5-1.9-3.5
		c0,0,0,0,0,0c0-0.1,0-0.3,0-0.4c0-0.2,0-0.5,0-0.7l0-0.2l0-0.1l0,0c0-0.1,0,0,0-0.1l0-0.1l0-0.2c0-0.1,0-0.1,0-0.2
		c0-0.1,0-0.1,0-0.2l0-0.2l0-0.2c0-0.2-0.1-0.5-0.1-0.7c-0.2-1-0.6-1.9-1.1-2.7c-0.5-0.8-1.1-1.5-1.8-2.1c-0.7-0.6-1.5-1.1-2.3-1.5
		c-0.8-0.4-1.7-0.6-2.5-0.7c-0.4-0.1-0.8-0.1-1.3-0.1l-0.2,0l0,0c0,0-0.1,0-0.1,0l-0.1,0l-0.2,0c-0.1,0-0.1,0-0.2,0
		c-0.2,0-0.4,0.1-0.6,0.1c-0.8,0.2-1.6,0.5-2.3,0.9c-0.7,0.4-1.3,0.9-1.8,1.5c-0.5,0.6-0.9,1.3-1.1,1.9c-0.3,0.7-0.4,1.4-0.5,2.1
		c0,0.2,0,0.3,0,0.5c0,0,0,0.1,0,0.1l0,0.1c0,0.1,0,0.2,0,0.2c0,0.3,0.1,0.7,0.2,1c0.2,0.6,0.5,1.2,0.8,1.7c0.4,0.5,0.8,0.9,1.3,1.2
		c0.5,0.3,1,0.5,1.5,0.7c0.5,0.1,1,0.2,1.4,0.2c0.1,0,0.1,0,0.2,0c0,0,0.1,0,0.1,0c0,0,0.1,0,0.1,0c0,0,0.1,0,0.1,0c0,0,0,0,0,0l0,0
		c0,0,0.1,0,0.1,0c0.1,0,0.1,0,0.2,0c0.1,0,0.1,0,0.2,0c0.1,0,0.2-0.1,0.3-0.1c0.2-0.1,0.4-0.1,0.6-0.2c0.2-0.1,0.3-0.2,0.5-0.3
		c0,0,0.1-0.1,0.1-0.1c0.2-0.1,0.2-0.4,0.1-0.5c-0.1-0.1-0.3-0.2-0.5-0.1c0,0-0.1,0-0.1,0.1c-0.1,0.1-0.3,0.1-0.4,0.2
		c-0.1,0-0.3,0.1-0.5,0.1c-0.1,0-0.2,0-0.2,0c0,0-0.1,0-0.1,0c0,0-0.1,0-0.1,0c0,0-0.1,0-0.1,0c0,0-0.1,0-0.2,0c0,0,0,0,0,0l0,0l0,0
		c0,0,0,0-0.1,0c0,0-0.1,0-0.1,0c-0.4-0.1-0.7-0.2-1.1-0.3c-0.4-0.2-0.7-0.4-1-0.7c-0.3-0.3-0.6-0.6-0.8-1c-0.2-0.4-0.4-0.8-0.4-1.2
		c0-0.2,0-0.4,0-0.7c0-0.1,0-0.1,0-0.2c0,0,0,0,0,0l0,0l0,0c0,0,0-0.1,0-0.1c0-0.1,0-0.2,0.1-0.4c0.2-0.9,0.6-1.9,1.4-2.6
		c0.2-0.2,0.4-0.3,0.6-0.5c0.2-0.1,0.4-0.3,0.7-0.4c0.2-0.1,0.5-0.2,0.7-0.3c0.2-0.1,0.5-0.1,0.8-0.1c0.1,0,0.3,0,0.4,0
		c0,0,0.1,0,0.1,0l0.1,0l0.1,0c0,0,0,0,0,0l0,0l0.1,0c0.3,0,0.6,0.1,0.8,0.1c0.6,0.1,1.1,0.3,1.6,0.6c1,0.6,1.9,1.4,2.4,2.5
		c0.3,0.5,0.4,1.1,0.5,1.7c0,0.1,0,0.3,0.1,0.4l0,0.1l0,0.1c0,0,0,0.1,0,0.1c0,0,0,0.1,0,0.1l0,0.1l0,0.1c0,0.1,0,0.2,0,0.3
		c0,0.2,0,0.3,0,0.5c0,0.2,0,0.3-0.1,0.5c0,0.2-0.1,0.3-0.1,0.5c-0.1,0.3-0.2,0.6-0.3,0.9c-0.2,0.6-0.5,1.2-0.9,1.7
		c-0.8,1-1.8,1.9-3,2.4c-0.6,0.3-1.2,0.5-1.8,0.6c-0.3,0.1-0.6,0.1-1,0.1l-0.1,0l-0.1,0l-0.1,0l-0.2,0l-0.1,0c0,0,0,0,0,0l0,0
		c-0.2,0-0.3,0-0.5,0c-0.7-0.1-1.4-0.2-2-0.4c-0.7-0.2-1.3-0.4-1.9-0.8c-1.2-0.6-2.3-1.5-3.2-2.6c-0.4-0.5-0.8-1.1-1.1-1.7
		c-0.3-0.6-0.6-1.2-0.7-1.9c-0.2-0.6-0.3-1.3-0.3-2l0-0.1l0,0l0,0l0-0.1l0-0.1l0,0l0,0l0-0.1l0-0.2l0,0c0,0,0,0,0,0l0-0.1
		c0-0.1,0-0.2,0-0.2c0-0.3,0-0.7,0.1-1c0-0.3,0.1-0.7,0.2-1c0.1-0.3,0.2-0.7,0.2-1c0.2-0.7,0.4-1.3,0.7-1.9c0.6-1.2,1.3-2.3,2.2-3.1
		c0.2-0.2,0.4-0.4,0.7-0.6c0.2-0.2,0.5-0.4,0.7-0.5c0.3-0.2,0.5-0.3,0.8-0.5c0.1-0.1,0.3-0.1,0.4-0.2c0.1,0,0.1-0.1,0.2-0.1
		c0.1,0,0.1-0.1,0.2-0.1c0.3-0.1,0.6-0.2,0.9-0.3C46.8,8,46.9,8,47,8c0.1,0,0.1,0,0.2-0.1c0.1,0,0.3-0.1,0.4-0.1c0.1,0,0.1,0,0.2,0
		c0.1,0,0.1,0,0.2,0c0.1,0,0.2,0,0.2,0l0.1,0l0.1,0c0.1,0,0.2,0,0.2,0c0.1,0,0.2,0,0.3,0c0.1,0,0.2,0,0.3,0c0.1,0,0.1,0,0.2,0l0.1,0
		l0.1,0l0.1,0c0.1,0,0.2,0,0.3,0l0.1,0c0,0,0,0,0,0l0,0l0.1,0c0.1,0,0.1,0,0.2,0c0.3,0,0.6,0,0.9,0c0.6,0,1.1,0.1,1.7,0.2
		c1.1,0.2,2.1,0.6,3,1c0.9,0.5,1.8,1,2.5,1.6c0,0,0.1,0.1,0.1,0.1c0,0,0.1,0.1,0.1,0.1c0.1,0.1,0.2,0.2,0.3,0.2
		c0.1,0.1,0.2,0.2,0.2,0.2c0.1,0.1,0.2,0.2,0.2,0.2c0.3,0.3,0.6,0.7,0.8,1c0.5,0.7,0.9,1.3,1.3,2c0,0,0,0.1,0.1,0.1
		c0,0,0,0.1,0.1,0.1c0,0.1,0.1,0.2,0.1,0.2c0,0.1,0.1,0.2,0.1,0.2c0,0.1,0.1,0.2,0.1,0.2c0.1,0.3,0.2,0.6,0.3,0.8
		c0.2,0.4,0.3,0.8,0.3,1.2c0,0.1,0.2,0.2,0.3,0.2c0.1,0,0.3-0.1,0.3-0.3C63.2,16.7,63.2,16.3,63.2,15.8z"/>
</g>
<g>
	<path fill="#E6E7E8" d="M18.8,47.9c-0.2,5.2-4.3,9.3-9.4,9.3C4,57.2,0,52.8,0,47.6c0-5.3,4.3-9.7,9.6-9.7c2.4,0,4.7,1,6.7,2.9
		l-1.5,1.9c-1.5-1.3-3.3-2.2-5.2-2.2c-3.9,0-7.1,3.2-7.1,7.1c0,4,3,7.1,6.8,7.1c3.4,0,6.1-2.5,6.7-5.8H8.3v-2.3h10.6V47.9z"/>
	<path fill="#E6E7E8" d="M27.8,46.7h-1.4c-1.6,0-2.9,1.3-2.9,2.9v7.5h-2.6V44.2H23v1.1c0.7-0.7,1.8-1.1,3-1.1h2.8L27.8,46.7z"/>
	<path fill="#E6E7E8" d="M41.8,57.1h-2.2v-1.6c-1.7,1.7-4.4,2.4-7.1,1.3c-2-0.9-3.5-2.7-3.9-4.9c-0.8-4.2,2.4-7.8,6.5-7.8
		c1.7,0,3.3,0.7,4.4,1.8v-1.6h2.2V57.1z M39.2,51.6c0.6-2.6-1.4-5-3.9-5c-2.2,0-4,1.8-4,4c0,2.5,2.2,4.4,4.8,4
		C37.5,54.3,38.8,53.1,39.2,51.6z"/>
	<path fill="#E6E7E8" d="M47,43.5v0.7h4.1v2.3H47v10.6h-2.5V43.6c0-2.8,2-4.5,4.6-4.5h3.1l-1,2.4H49C47.9,41.5,47,42.4,47,43.5z"/>
	<path fill="#E6E7E8" d="M64.7,57.1h-2.2v-1.6c-1.7,1.7-4.4,2.4-7.1,1.3c-2-0.9-3.5-2.7-3.9-4.9C50.8,47.7,54,44,58.1,44
		c1.7,0,3.3,0.7,4.4,1.8v-1.6h2.2V57.1z M62.1,51.6c0.6-2.6-1.4-5-3.9-5c-2.2,0-4,1.8-4,4c0,2.5,2.2,4.4,4.8,4
		C60.4,54.3,61.7,53.1,62.1,51.6z"/>
	<path fill="#E6E7E8" d="M78.4,49.4v7.6h-2.6v-7.6c0-1.6-1.3-2.9-2.9-2.9c-1.6,0-2.9,1.3-2.9,2.9v7.6h-2.6V44.2h2.1v1.1
		c0.9-0.8,2.2-1.3,3.4-1.3C76,44,78.4,46.4,78.4,49.4z"/>
	<path fill="#E6E7E8" d="M93.5,57.1h-2.2v-1.6c-1.7,1.7-4.4,2.4-7.1,1.3c-2-0.9-3.5-2.7-3.9-4.9c-0.8-4.2,2.4-7.8,6.5-7.8
		c1.7,0,3.3,0.7,4.4,1.8v-1.6h2.2V57.1z M90.9,51.6c0.6-2.6-1.4-5-3.9-5c-2.2,0-4,1.8-4,4c0,2.5,2.2,4.4,4.8,4
		C89.2,54.3,90.5,53.1,90.9,51.6z"/>
</g>
</svg>
