<svg width="52" height="64" viewBox="0 0 52 64" fill="none" xmlns="http://www.w3.org/2000/svg">
<g clip-path="url(#clip0_29164_17955)">
<path d="M50.0476 21.8176C49.6792 22.1056 43.1764 25.7984 43.1764 34.0096C43.1764 43.5072 51.451 46.8672 51.6987 46.9504C51.6606 47.1552 50.3841 51.552 47.3359 56.032C44.618 59.9744 41.7793 63.9104 37.4611 63.9104C33.1428 63.9104 32.0315 61.3824 27.0464 61.3824C22.1883 61.3824 20.461 63.9936 16.5111 63.9936C12.5611 63.9936 9.80503 60.3456 6.63618 55.8656C2.96564 50.6048 0 42.432 0 34.6752C0 22.2336 8.02691 15.6352 15.9268 15.6352C20.1244 15.6352 23.6235 18.4128 26.2589 18.4128C28.7673 18.4128 32.6792 15.4688 37.4547 15.4688C39.2646 15.4688 45.7674 15.6352 50.0476 21.8176ZM35.1876 10.2016C37.1626 7.84 38.5597 4.5632 38.5597 1.2864C38.5597 0.832 38.5216 0.3712 38.439 0C35.2257 0.1216 31.4028 2.1568 29.0976 4.8512C27.2877 6.9248 25.5985 10.2016 25.5985 13.5232C25.5985 14.0224 25.681 14.5216 25.7191 14.6816C25.9224 14.72 26.2526 14.7648 26.5828 14.7648C29.4659 14.7648 33.092 12.8192 35.1876 10.2016Z" fill="black"/>
</g>
<defs>
<clipPath id="clip0_29164_17955">
<rect width="51.6923" height="64" fill="white"/>
</clipPath>
</defs>
</svg>
