<svg width="40" height="40" viewBox="0 0 40 40" fill="none" xmlns="http://www.w3.org/2000/svg">
<g clip-path="url(#clip0_10780_129206)">
<path d="M36.5339 12.9652C34.757 9.93567 32.481 7.25983 29.8837 5.12508L29.8366 5.08273L29.8344 5.08484C29.3171 4.66128 28.788 4.25784 28.2471 3.87981C24.6141 1.34163 20.6394 0 16.7515 0C11.8128 0 7.339 2.6049 4.15367 7.33607C-0.326569 13.9881 -1.28195 23.3128 1.77378 30.5387C4.06691 35.9613 10.0209 39.479 17.6993 39.9492C18.2584 39.9831 18.8218 40 19.3841 40C22.939 40 26.5281 39.3234 29.6481 38.0506C33.6163 36.4315 36.6539 33.9537 38.4308 30.8839C41.0698 26.3253 40.3426 19.4594 36.5328 12.9641L36.5339 12.9652ZM18.5873 13.9828C20.3341 13.9828 22.0735 14.6901 23.3245 16.0773C24.4524 17.3279 25.02 18.9374 24.9236 20.6094C24.8294 22.2486 24.1053 23.7554 22.8854 24.8651L22.7387 24.9943C20.5837 26.8379 17.5087 26.9925 15.2027 25.5534C14.6768 25.187 14.1723 24.7423 13.6968 24.2139C13.5736 24.0773 13.459 23.9343 13.3519 23.7861C12.9738 23.2397 12.6943 22.6499 12.5111 22.0379C12.5004 21.9997 12.4886 21.9627 12.479 21.9246C12.4779 21.9193 12.4769 21.915 12.4747 21.9097C11.9135 19.7485 12.554 17.2315 14.3052 15.6326L14.439 15.5108C15.6343 14.4868 17.1124 13.9828 18.5873 13.9828ZM16.7515 2.30311C20.1553 2.30311 23.6651 3.49861 26.9019 5.76148C27.3988 6.1088 27.884 6.47942 28.3596 6.86803L29.1393 7.56479C35.1083 13.052 36.9752 18.4037 36.5082 23.9418C36.2019 27.578 33.8584 30.4815 30.4996 32.7306C27.3014 34.8717 22.4088 35.4848 18.9129 35.1142C15.4801 34.751 11.9221 33.3829 9.62464 30.3058C7.72458 27.7602 7.16013 25.0261 7.41718 22.0929C7.67317 19.1746 8.85776 16.4458 10.7792 14.5472C11.8567 13.4819 13.6968 12.1445 16.6347 11.8999C15.2595 12.2123 13.9431 12.8604 12.8175 13.8525C10.5372 15.8634 9.58822 18.8061 10.0284 21.5899C10.2169 22.8617 10.6946 24.0868 11.4711 25.1468C11.6682 25.4263 11.8824 25.6995 12.1181 25.96C12.6814 26.5848 13.3187 27.1068 14.0042 27.5283C17.362 29.771 21.5455 29.5942 25.6305 26.9162C27.8562 25.457 29.361 22.9273 29.7573 19.9741C30.2382 16.3971 29.0772 12.728 26.5709 9.90814C23.8451 6.84156 20.0728 5.0266 16.2202 4.92919C12.6386 4.836 9.32581 6.23269 6.63852 8.96148C5.81595 9.79696 5.06728 10.7013 4.39894 11.6596C4.88199 10.5943 5.44751 9.57353 6.09336 8.6131C8.83312 4.5448 12.6182 2.30417 16.7515 2.30417V2.30311Z" fill="#FF671D"/>
</g>
<defs>
<clipPath id="clip0_10780_129206">
<rect width="40" height="40" fill="white"/>
</clipPath>
</defs>
</svg>
