<svg width="634" height="146" viewBox="0 0 634 146" fill="none" xmlns="http://www.w3.org/2000/svg">
<path d="M615.913 57.3241C616.94 61.2356 620.949 63.5825 624.91 62.5068C628.821 61.4801 631.168 57.4708 630.092 53.5104C629.066 49.5989 625.056 47.252 621.096 48.3277C617.233 49.4033 614.886 53.4126 615.913 57.3241Z" fill="#2A4C87"/>
<path d="M605.99 65.1453C608.63 64.4119 610.244 61.6738 609.511 59.0336C608.777 56.3933 606.039 54.7798 603.399 55.5132C600.759 56.2466 599.145 58.9847 599.878 61.6249C600.563 64.2652 603.301 65.8298 605.99 65.1453Z" fill="#2A4C87"/>
<path d="M591.322 67.689C593.278 67.1511 594.451 65.1465 593.914 63.1907C593.376 61.235 591.371 60.0616 589.415 60.5994C587.46 61.1372 586.286 63.1418 586.824 65.0976C587.362 67.0533 589.366 68.2268 591.322 67.689Z" fill="#2A4C87"/>
<path d="M579.93 69.4006C581.152 69.0584 581.885 67.7871 581.592 66.5648C581.299 65.3425 579.979 64.6091 578.756 64.9024C577.534 65.2447 576.8 66.5159 577.094 67.7382C577.387 68.9606 578.658 69.694 579.93 69.4006Z" fill="#2E4E88"/>
<path d="M610.488 42.4555C612.346 45.6336 616.404 46.7581 619.582 44.9002C622.761 43.0422 623.885 38.9841 622.027 35.806C620.169 32.6279 616.111 31.5033 612.933 33.3613C609.755 35.2192 608.63 39.2774 610.488 42.4555Z" fill="#1F3D70"/>
<path d="M595.771 50.9168C597.042 53.1659 599.878 53.8993 602.127 52.6281C604.376 51.3568 605.109 48.521 603.838 46.2719C602.567 44.0228 599.731 43.2894 597.482 44.5606C595.282 45.8319 594.499 48.6677 595.771 50.9168Z" fill="#1F3D70"/>
<path d="M585.308 53.1195C583.694 54.0485 583.156 56.0531 584.085 57.6666C585.014 59.2801 587.019 59.8179 588.633 58.8889C590.246 57.9599 590.784 55.9553 589.855 54.3418C588.975 52.7772 586.921 52.2394 585.308 53.1195Z" fill="#1F3D70"/>
<path d="M575.967 59.8659C574.94 60.4526 574.549 61.7727 575.135 62.7995C575.722 63.8263 577.042 64.2174 578.069 63.6307C579.096 63.044 579.487 61.7238 578.9 60.6971C578.313 59.6703 576.993 59.2792 575.967 59.8659Z" fill="#1F3D70"/>
<path d="M609.756 29.4043C612.103 27.0574 612.103 23.2926 609.756 20.9457C607.409 18.5988 603.644 18.5988 601.297 20.9457C598.95 23.2926 598.95 27.0574 601.297 29.4043C603.595 31.7512 607.409 31.7512 609.756 29.4043Z" fill="#194C88"/>
<path d="M595.135 35.5178C593.424 33.8066 590.686 33.8066 589.024 35.5178C587.312 37.2291 587.312 39.9672 589.024 41.6295C590.735 43.3408 593.473 43.3408 595.135 41.6295C596.847 39.9183 596.847 37.1802 595.135 35.5178Z" fill="#194C88"/>
<path d="M579.491 46.9073C578.318 48.0807 578.318 49.9876 579.491 51.161C580.665 52.3345 582.572 52.3345 583.745 51.161C584.919 49.9876 584.919 48.0807 583.745 46.9562C582.572 45.7338 580.665 45.7338 579.491 46.9073Z" fill="#194C88"/>
<path d="M572.108 58.5456C572.891 59.3279 574.162 59.3279 574.944 58.5456C575.726 57.7633 575.726 56.4921 574.944 55.7098C574.162 54.9275 572.891 54.9275 572.108 55.7098C571.326 56.4921 571.326 57.7633 572.108 58.5456Z" fill="#194C88"/>
<path d="M588.683 19.3323C591.372 20.8969 594.843 19.968 596.408 17.2788C597.972 14.5897 597.043 11.1182 594.354 9.55363C591.665 7.98903 588.194 8.91801 586.629 11.6072C585.016 14.2963 585.945 17.7678 588.683 19.3323C588.683 19.3323 588.634 19.3323 588.683 19.3323Z" fill="#3468A3"/>
<path d="M578.559 28.8657C577.434 30.7725 578.119 33.2172 580.026 34.3418C581.933 35.4663 584.377 34.7818 585.502 32.8749C586.626 30.9681 585.942 28.5234 584.035 27.3989C582.079 26.2743 579.635 26.9588 578.559 28.8657Z" fill="#3468A3"/>
<path d="M575.92 41.3843C574.649 40.6509 573.036 41.091 572.302 42.3622C571.569 43.6334 572.009 45.2469 573.28 45.9803C574.551 46.7137 576.165 46.2737 576.898 45.0024C577.632 43.7312 577.192 42.1177 575.92 41.3843Z" fill="#3468A3"/>
<path d="M569.76 52.0441C568.88 51.5552 567.756 51.8486 567.267 52.7286C566.778 53.6087 567.071 54.7333 567.951 55.2222C568.831 55.7112 569.956 55.4178 570.445 54.5377C570.934 53.6576 570.64 52.5331 569.76 52.0441Z" fill="#3468A3"/>
<path d="M573.816 12.8313C576.652 13.6136 579.585 11.9024 580.319 9.06652C581.101 6.23069 579.39 3.29707 576.554 2.56367C573.718 1.83027 570.784 3.49265 570.051 6.32848C569.269 9.16431 570.98 12.0979 573.816 12.8313Z" fill="#4C8DCB"/>
<path d="M569.319 29.5503C571.274 30.0881 573.279 28.9147 573.817 26.9589C574.355 25.0032 573.181 22.9985 571.226 22.4607C569.27 21.9229 567.265 23.0963 566.727 25.0521C566.238 27.0078 567.363 29.0125 569.319 29.5503Z" fill="#4C8DCB"/>
<path d="M565.799 42.7508C567.12 43.0931 568.489 42.3108 568.831 40.9906C569.173 39.6705 568.391 38.3015 567.071 37.9592C565.751 37.617 564.382 38.3993 564.039 39.7194C563.697 40.9906 564.479 42.3597 565.799 42.7508Z" fill="#4C8DCB"/>
<path d="M561.885 50.9669C561.641 51.847 562.179 52.776 563.059 53.0205C563.939 53.2649 564.868 52.7271 565.112 51.847C565.357 50.9669 564.819 50.0379 563.939 49.7935C563.01 49.549 562.081 50.0868 561.885 50.9669Z" fill="#4C8DCB"/>
<path d="M557.684 10.3845C560.422 10.3845 562.672 8.13535 562.672 5.39731C562.672 2.65927 560.422 0.410156 557.684 0.410156C554.946 0.410156 552.697 2.65927 552.697 5.39731C552.697 8.18424 554.946 10.3845 557.684 10.3845Z" fill="#3498B3"/>
<path d="M557.682 21.0449C555.824 21.0449 554.357 22.5117 554.357 24.3697C554.357 26.2276 555.824 27.6945 557.682 27.6945C559.54 27.6945 561.007 26.2276 561.007 24.3697C561.007 22.5606 559.54 21.0449 557.682 21.0449Z" fill="#3498B3"/>
<path d="M560.028 39.1848C560.028 37.9136 559.001 36.8379 557.681 36.8379C556.361 36.8379 555.334 37.8647 555.334 39.1848C555.334 40.5049 556.361 41.5317 557.681 41.5317C559.001 41.5317 560.028 40.456 560.028 39.1848Z" fill="#3498B3"/>
<path d="M557.682 49.1582C556.851 49.1582 556.166 49.8427 556.166 50.6739C556.166 51.5051 556.851 52.1896 557.682 52.1896C558.513 52.1896 559.197 51.5051 559.197 50.6739C559.197 49.8427 558.513 49.1582 557.682 49.1582Z" fill="#3498B3"/>
<path d="M541.402 12.2447C543.896 11.5602 545.363 9.01771 544.678 6.52414C543.994 4.03056 541.451 2.56375 538.958 3.24826C536.464 3.93277 534.997 6.47524 535.682 8.96882C536.366 11.4135 538.958 12.8803 541.402 12.2447Z" fill="#0AA496"/>
<path d="M542.231 26.8152C542.671 28.4287 544.284 29.3577 545.898 28.9176C547.511 28.4776 548.44 26.8641 548 25.2506C547.56 23.6371 545.947 22.7081 544.333 23.1482C542.769 23.5882 541.791 25.2506 542.231 26.8152Z" fill="#0AA496"/>
<path d="M546.876 40.9433C547.169 42.1168 548.391 42.8013 549.516 42.459C550.689 42.1657 551.374 40.9433 551.032 39.8188C550.738 38.6453 549.516 37.9608 548.391 38.3031C547.218 38.5964 546.582 39.7699 546.876 40.9433C546.876 40.8944 546.876 40.8944 546.876 40.9433Z" fill="#0AA496"/>
<path d="M550.642 51.7983C550.838 52.5318 551.571 52.9229 552.256 52.7273C552.989 52.5317 553.38 51.7983 553.185 51.1138C552.989 50.3804 552.256 49.9893 551.571 50.1849C550.887 50.3804 550.447 51.0649 550.642 51.7983Z" fill="#0AA496"/>
<path d="M526.099 18.2557C528.153 17.0822 528.886 14.3931 527.713 12.3395C526.539 10.286 523.85 9.55259 521.797 10.726C519.743 11.8995 519.01 14.5886 520.183 16.6422C521.405 18.7446 524.046 19.4291 526.099 18.2557Z" fill="#00AA75"/>
<path d="M534.75 33.2186C536.022 32.4852 536.462 30.8717 535.728 29.6005C534.995 28.3292 533.381 27.8892 532.11 28.6226C530.839 29.356 530.399 30.9695 531.132 32.2407C531.817 33.512 533.479 33.952 534.75 33.2186Z" fill="#00AA75"/>
<path d="M541.791 45.4876C542.769 44.9498 543.063 43.7275 542.525 42.7496C541.987 41.7717 540.765 41.4784 539.787 42.0162C538.809 42.554 538.515 43.7764 539.053 44.7542C539.64 45.6832 540.862 46.0255 541.791 45.4876Z" fill="#00AA75"/>
<path d="M547.561 53.1154C547.219 52.5775 546.534 52.382 545.947 52.6753C545.41 53.0176 545.214 53.7021 545.507 54.2888C545.85 54.8266 546.534 55.0222 547.072 54.7289C547.708 54.3866 547.903 53.6532 547.561 53.1154Z" fill="#00AA75"/>
<path d="M512.749 28.0853C514.314 26.5207 514.314 23.9783 512.749 22.4137C511.185 20.8491 508.642 20.8491 507.078 22.4137C505.513 23.9783 505.513 26.5207 507.078 28.0853C508.691 29.6499 511.234 29.6499 512.749 28.0853Z" fill="#4FBA6A"/>
<path d="M525.021 37.0307C524.092 36.1017 522.626 36.1017 521.746 37.0307C520.817 37.9597 520.817 39.4265 521.746 40.3066C522.675 41.2356 524.141 41.2356 525.021 40.3066C525.902 39.3776 525.902 37.9108 525.021 37.0307Z" fill="#4FBA6A"/>
<path d="M535.139 47.8391C534.406 47.1057 533.282 47.1057 532.548 47.8391C531.815 48.5725 531.815 49.6971 532.548 50.4305C533.282 51.1639 534.406 51.1639 535.139 50.4305C535.824 49.6971 535.824 48.5725 535.139 47.8391Z" fill="#4FBA6A"/>
<path d="M542.672 56.5415C542.281 56.1504 541.646 56.1993 541.303 56.5904C540.912 56.9816 540.961 57.6172 541.352 57.9595C541.743 58.3017 542.33 58.3017 542.721 57.9595C543.063 57.5683 543.063 56.9327 542.672 56.5415Z" fill="#4FBA6A"/>
<path d="M497.298 42.3135C499.058 43.3403 501.307 42.7046 502.285 40.9934C503.312 39.2332 502.676 36.9841 500.965 36.0062C499.205 34.9795 496.956 35.6151 495.978 37.3264C494.951 39.0376 495.538 41.2867 497.298 42.3135Z" fill="#7EC45F"/>
<path d="M516.66 47.0056C515.682 46.4678 514.508 46.81 513.922 47.739C513.384 48.7169 513.726 49.8903 514.655 50.477C515.633 51.0149 516.806 50.7215 517.393 49.7436C517.931 48.7658 517.589 47.5434 516.66 47.0056Z" fill="#7EC45F"/>
<path d="M529.324 54.6823C528.542 54.2423 527.515 54.4868 527.075 55.3179C526.635 56.1002 526.879 57.127 527.711 57.5671C528.493 58.0071 529.52 57.7626 529.96 56.9803C530.4 56.198 530.106 55.1713 529.324 54.6823Z" fill="#7EC45F"/>
<path d="M625.351 64.8984C620.95 64.8984 617.332 68.4677 617.332 72.917C617.332 77.3174 620.901 80.9355 625.351 80.9355C629.751 80.9355 633.32 77.3663 633.369 72.9659C633.32 68.5166 629.751 64.8984 625.351 64.8984Z" fill="#4C609B"/>
<path d="M612.101 72.9178C612.101 69.7397 609.559 67.1973 606.381 67.1973C603.203 67.1973 600.66 69.7397 600.66 72.9178C600.66 76.0959 603.203 78.6384 606.381 78.6384C609.51 78.6384 612.101 76.0959 612.101 72.9178Z" fill="#4C609B"/>
<path d="M591.566 69.0078C589.414 69.0078 587.654 70.768 587.654 72.9193C587.654 75.0706 589.414 76.8308 591.566 76.8308C593.717 76.8308 595.477 75.0706 595.477 72.9193C595.477 70.768 593.717 69.0078 591.566 69.0078Z" fill="#4C609B"/>
<path d="M582.618 72.9194C582.618 71.5015 581.494 70.377 580.076 70.377C578.658 70.377 577.533 71.5015 577.533 72.9194C577.533 74.3373 578.658 75.4619 580.076 75.4619C581.494 75.4619 582.618 74.3373 582.618 72.9194Z" fill="#54669F"/>
<path d="M624.91 83.2847C620.999 82.209 616.989 84.5559 615.914 88.4674C614.838 92.3789 617.185 96.3882 621.096 97.4639C625.008 98.5395 629.017 96.1926 630.093 92.2811C630.093 92.2811 630.093 92.2811 630.093 92.2322C631.12 88.3696 628.773 84.3604 624.91 83.2847Z" fill="#746FA7"/>
<path d="M603.398 90.28C606.039 91.0134 608.777 89.4 609.51 86.7597C610.243 84.1194 608.63 81.3814 605.99 80.648C603.349 79.9146 600.611 81.5281 599.878 84.1683C599.144 86.8086 600.709 89.5466 603.398 90.28Z" fill="#746FA7"/>
<path d="M589.412 85.1929C591.368 85.7307 593.373 84.5572 593.911 82.6015C594.448 80.6457 593.275 78.6411 591.319 78.1033C589.363 77.5655 587.359 78.7389 586.821 80.6946C586.332 82.6504 587.457 84.655 589.412 85.1929Z" fill="#746FA7"/>
<path d="M578.707 80.9377C579.93 81.2799 581.201 80.5465 581.543 79.2753C581.885 78.0529 581.152 76.7817 579.881 76.4394C578.658 76.0972 577.387 76.8306 577.045 78.1018C576.703 79.2753 577.436 80.5954 578.707 80.9377C578.707 80.8888 578.707 80.8888 578.707 80.9377Z" fill="#746FA7"/>
<path d="M619.582 100.885C616.404 99.0268 612.346 100.151 610.488 103.329C608.63 106.507 609.755 110.566 612.933 112.424C616.111 114.282 620.169 113.157 622.027 109.979C623.836 106.801 622.761 102.743 619.582 100.885Z" fill="#99558E"/>
<path d="M603.888 99.5164C605.159 97.2673 604.426 94.4315 602.177 93.1602C599.927 91.889 597.092 92.6224 595.82 94.8715C594.549 97.1206 595.283 99.9565 597.532 101.228C599.732 102.499 602.568 101.717 603.888 99.5164Z" fill="#99558E"/>
<path d="M589.855 91.4509C590.784 89.8374 590.246 87.8327 588.633 86.9038C587.019 85.9748 585.014 86.5126 584.085 88.1261C583.156 89.7396 583.694 91.7442 585.308 92.6732C586.921 93.5533 588.926 93.0155 589.855 91.4509Z" fill="#99558E"/>
<path d="M578.95 85.0929C579.536 84.0661 579.194 82.746 578.167 82.1104C577.141 81.5236 575.82 81.8659 575.185 82.8927C574.549 83.9194 574.94 85.2396 575.967 85.8752C575.967 85.8752 575.967 85.8752 576.016 85.8752C577.043 86.4619 578.363 86.1196 578.95 85.0929Z" fill="#99558E"/>
<path d="M601.245 116.386C598.898 118.733 598.898 122.497 601.245 124.844C603.591 127.191 607.356 127.191 609.703 124.844C612.05 122.497 612.05 118.733 609.703 116.386C607.405 114.088 603.591 114.088 601.245 116.386Z" fill="#AF3379"/>
<path d="M595.135 110.276C596.847 108.565 596.847 105.827 595.135 104.164C593.424 102.453 590.686 102.453 589.024 104.164C587.312 105.876 587.312 108.614 589.024 110.276C590.686 111.987 593.424 111.987 595.135 110.276Z" fill="#AF3379"/>
<path d="M583.745 98.8799C584.919 97.7065 584.919 95.7996 583.745 94.6262C582.572 93.4527 580.665 93.4527 579.491 94.6262C578.318 95.7996 578.318 97.7065 579.491 98.831C580.665 100.053 582.572 100.053 583.745 98.8799Z" fill="#AF3379"/>
<path d="M572.108 90.0339C572.891 90.8162 574.162 90.8162 574.944 90.0339C575.726 89.2516 575.726 87.9803 574.944 87.1981C574.162 86.4158 572.891 86.4158 572.108 87.1981C571.326 87.9803 571.326 89.2516 572.108 90.0339Z" fill="#AF3379"/>
<path d="M588.683 126.458C585.994 128.023 585.065 131.494 586.63 134.183C588.194 136.872 591.666 137.801 594.355 136.237C597.044 134.672 597.973 131.201 596.409 128.511C594.844 125.822 591.372 124.893 588.683 126.458Z" fill="#BE266A"/>
<path d="M585.453 112.963C584.329 111.056 581.933 110.372 579.977 111.497C578.07 112.621 577.386 115.017 578.51 116.973C579.635 118.879 582.031 119.564 583.986 118.439C585.893 117.315 586.578 114.87 585.453 112.963Z" fill="#BE266A"/>
<path d="M575.92 104.404C577.192 103.671 577.632 102.057 576.898 100.786C576.165 99.5148 574.551 99.0747 573.28 99.8081C572.009 100.542 571.569 102.155 572.302 103.426C573.036 104.697 574.649 105.138 575.92 104.404Z" fill="#BE266A"/>
<path d="M567.951 90.5715C567.071 91.0604 566.778 92.185 567.267 93.0651C567.756 93.9451 568.88 94.2385 569.76 93.7496C570.64 93.2606 570.934 92.1361 570.445 91.256C569.956 90.3759 568.831 90.0825 567.951 90.5715Z" fill="#BE266A"/>
<path d="M573.816 132.959C570.98 133.742 569.269 136.626 570.051 139.462C570.833 142.298 573.718 144.009 576.554 143.227C579.39 142.445 581.101 139.56 580.319 136.724C579.585 133.888 576.652 132.177 573.816 132.959Z" fill="#D4525C"/>
<path d="M571.226 123.279C573.181 122.741 574.355 120.736 573.817 118.781C573.279 116.825 571.274 115.651 569.319 116.189C567.363 116.727 566.238 118.732 566.727 120.687C567.265 122.692 569.27 123.817 571.226 123.279C571.226 123.328 571.226 123.328 571.226 123.279Z" fill="#D4525C"/>
<path d="M568.831 104.798C568.489 103.477 567.12 102.695 565.799 103.037C564.479 103.38 563.697 104.749 564.039 106.069C564.382 107.389 565.751 108.171 567.071 107.829C568.44 107.536 569.222 106.167 568.831 104.798C568.831 104.846 568.831 104.846 568.831 104.798Z" fill="#D4525C"/>
<path d="M565.063 93.9435C564.819 93.0634 563.89 92.5256 563.01 92.77C562.13 93.0145 561.592 93.9435 561.836 94.8236C562.081 95.7036 562.961 96.2415 563.89 95.997C564.77 95.7525 565.308 94.8236 565.063 93.9435Z" fill="#D4525C"/>
<path d="M557.684 135.404C554.946 135.404 552.697 137.653 552.697 140.391C552.697 143.129 554.946 145.379 557.684 145.379C560.422 145.379 562.672 143.178 562.672 140.391C562.672 137.653 560.471 135.404 557.684 135.404Z" fill="#E0654F"/>
<path d="M554.357 121.42C554.357 123.278 555.824 124.745 557.682 124.745C559.54 124.745 561.007 123.278 561.007 121.42C561.007 119.563 559.54 118.096 557.682 118.096C555.873 118.096 554.357 119.563 554.357 121.42Z" fill="#E0654F"/>
<path d="M557.681 108.907C558.952 108.907 560.028 107.88 560.028 106.56C560.028 105.24 559.001 104.213 557.681 104.213C556.41 104.213 555.334 105.24 555.334 106.56C555.383 107.88 556.41 108.907 557.681 108.907C557.681 108.956 557.681 108.956 557.681 108.907Z" fill="#E0654F"/>
<path d="M557.682 93.6035C556.851 93.6035 556.166 94.288 556.166 95.1192C556.166 95.9504 556.851 96.6349 557.682 96.6349C558.513 96.6349 559.197 95.9504 559.197 95.1192C559.197 94.288 558.513 93.6035 557.682 93.6035Z" fill="#E0654F"/>
<path d="M541.403 133.544C538.909 132.859 536.367 134.375 535.682 136.82C534.998 139.313 536.514 141.856 538.958 142.54C541.452 143.225 543.994 141.709 544.679 139.264C545.363 136.771 543.897 134.228 541.403 133.544Z" fill="#F57F2A"/>
<path d="M545.898 116.826C544.284 116.386 542.671 117.364 542.231 118.929C541.791 120.542 542.769 122.156 544.333 122.596C545.947 123.036 547.56 122.058 548 120.493C548.44 118.929 547.511 117.267 545.898 116.826Z" fill="#F57F2A"/>
<path d="M549.515 103.332C548.341 103.038 547.168 103.723 546.875 104.847C546.581 106.021 547.266 107.194 548.39 107.488C549.564 107.781 550.737 107.096 551.031 105.972C551.373 104.847 550.688 103.674 549.515 103.332Z" fill="#F57F2A"/>
<path d="M553.231 94.6793C553.427 93.9459 552.987 93.2125 552.302 93.0658C551.618 92.9191 550.836 93.3103 550.689 93.9948C550.542 94.6793 550.933 95.4616 551.618 95.6083C552.302 95.8038 553.036 95.4127 553.231 94.6793Z" fill="#F57F2A"/>
<path d="M526.096 127.533C524.042 126.36 521.402 127.044 520.18 129.098C519.006 131.151 519.691 133.792 521.744 135.014C523.798 136.187 526.438 135.503 527.66 133.449C528.883 131.396 528.149 128.756 526.096 127.533Z" fill="#F89828"/>
<path d="M534.75 112.572C533.479 111.838 531.866 112.278 531.132 113.55C530.399 114.821 530.839 116.434 532.11 117.168C533.381 117.901 534.995 117.461 535.728 116.19C536.462 114.919 536.022 113.305 534.75 112.572Z" fill="#F89828"/>
<path d="M539.836 103.771C540.813 104.309 542.036 104.015 542.574 103.037C543.111 102.06 542.818 100.837 541.84 100.299C540.862 99.7616 539.64 100.055 539.102 101.033C538.564 102.011 538.858 103.233 539.836 103.771Z" fill="#F89828"/>
<path d="M547.171 91.0571C546.633 90.7148 545.899 90.9104 545.606 91.4971C545.264 92.035 545.459 92.7684 546.046 93.0617C546.584 93.404 547.317 93.2084 547.611 92.6217C547.904 92.1327 547.708 91.3993 547.171 91.0571C547.171 91.106 547.171 91.106 547.171 91.0571Z" fill="#F89828"/>
<path d="M507.123 117.707C505.558 119.271 505.558 121.814 507.123 123.378C508.687 124.943 511.23 124.943 512.794 123.378C514.359 121.814 514.359 119.271 512.794 117.707C511.23 116.142 508.687 116.142 507.123 117.707Z" fill="#FEC127"/>
<path d="M521.746 105.482C520.817 106.411 520.817 107.878 521.746 108.758C522.675 109.687 524.141 109.687 525.021 108.758C525.902 107.829 525.95 106.362 525.021 105.482C524.141 104.553 522.626 104.553 521.746 105.482Z" fill="#FEC127"/>
<path d="M532.548 95.3606C531.815 96.094 531.815 97.2186 532.548 97.952C533.282 98.6854 534.406 98.6854 535.139 97.952C535.873 97.2186 535.873 96.094 535.139 95.3606C534.406 94.6272 533.233 94.6272 532.548 95.3606Z" fill="#FEC127"/>
<path d="M542.672 87.8306C542.281 87.4395 541.646 87.4884 541.303 87.8795C540.912 88.2706 540.961 88.9063 541.352 89.2485C541.743 89.5908 542.33 89.5908 542.721 89.2485C543.063 88.8574 543.063 88.2218 542.672 87.8306Z" fill="#FEC127"/>
<path d="M497.398 103.382C495.637 104.409 495.051 106.609 496.078 108.369C497.104 110.13 499.304 110.716 501.065 109.689C502.825 108.663 503.412 106.462 502.385 104.702C501.407 102.942 499.158 102.355 497.398 103.382Z" fill="#FED627"/>
<path d="M514.655 95.3142C513.726 95.852 513.384 97.0744 513.922 98.0522C514.459 98.9812 515.682 99.3235 516.66 98.7856C517.589 98.2478 517.931 97.0255 517.393 96.0476C516.855 95.1186 515.633 94.7764 514.655 95.3142Z" fill="#FED627"/>
<path d="M527.66 88.2234C526.877 88.6635 526.584 89.6902 527.073 90.4725C527.513 91.2548 528.54 91.5482 529.322 91.0592C530.104 90.6192 530.398 89.5924 529.909 88.8101C529.469 88.0278 528.442 87.7345 527.66 88.2234Z" fill="#FED627"/>
<path d="M489.965 61.2819H495.832V83.8707H489.965V61.2819ZM493.534 51.2098C491.725 50.7208 489.867 51.7965 489.378 53.6056C488.889 55.4146 489.965 57.2726 491.774 57.7615C493.583 58.2505 495.441 57.1748 495.93 55.3657C496.419 53.5567 495.343 51.6498 493.534 51.2098ZM513.972 84.3597C512.554 84.3597 511.136 84.1152 509.816 83.5285C508.642 82.9906 507.615 82.1594 506.833 81.1327V95.1651H501.113V61.2819H506.784V64.4111C507.518 63.2865 508.544 62.4064 509.767 61.7708C511.038 61.1352 512.456 60.7929 513.923 60.7929C515.341 60.7929 516.71 61.0863 518.03 61.6241C519.35 62.1619 520.523 62.9931 521.501 63.971C522.528 65.0467 523.359 66.3179 523.897 67.6869C524.533 69.2515 524.826 70.865 524.777 72.5274C524.826 74.1898 524.484 75.8522 523.848 77.4168C523.261 78.7858 522.43 80.057 521.403 81.1327C519.497 83.1862 516.759 84.3597 513.972 84.3597ZM512.798 78.8836C513.629 78.8836 514.461 78.7369 515.243 78.3946C515.976 78.0524 516.661 77.6123 517.247 77.0256C517.834 76.4389 518.274 75.7544 518.568 75.021C519.203 73.4075 519.203 71.6473 518.568 70.0338C518.274 69.3004 517.785 68.6159 517.247 68.0292C516.661 67.4425 515.976 67.0024 515.243 66.6602C514.461 66.3179 513.629 66.1712 512.798 66.1712C511.136 66.1712 509.522 66.8557 508.3 68.0292C507.713 68.6159 507.273 69.3004 506.98 70.0338C506.344 71.6473 506.344 73.4075 506.98 74.9721C507.273 75.7055 507.713 76.39 508.3 76.9767C509.522 78.2479 511.136 78.9325 512.798 78.8836ZM528.982 61.2819H534.654V64.7533C535.143 63.531 535.974 62.5042 537.098 61.8197C538.272 61.1841 539.543 60.8418 540.912 60.8907C541.645 60.8907 542.33 60.9885 543.014 61.1352C543.601 61.2819 544.188 61.4774 544.726 61.7708L542.623 67.4425C542.232 67.198 541.792 67.0024 541.352 66.8557C540.765 66.7091 540.179 66.6113 539.592 66.6113C538.272 66.5624 537.001 67.0024 536.023 67.8336C535.143 68.6648 534.703 70.0338 534.703 71.8918V83.8218H528.982V61.2819ZM557.487 84.3597C555.873 84.3597 554.26 84.0663 552.744 83.4307C551.326 82.844 550.055 81.9639 548.931 80.8882C546.73 78.688 545.508 75.7055 545.508 72.5763C545.508 71.0117 545.801 69.4471 546.388 67.9803C546.975 66.5624 547.806 65.2911 548.882 64.2155C553.624 59.6195 561.154 59.6195 565.897 64.2155C568.097 66.4157 569.368 69.3982 569.368 72.5274C569.368 74.092 569.075 75.6566 568.439 77.0745C567.852 78.4924 566.972 79.7637 565.946 80.8393C564.87 81.915 563.599 82.7951 562.132 83.3818C560.714 84.0174 559.1 84.3597 557.487 84.3597ZM557.536 78.8836C558.367 78.8836 559.198 78.7369 559.981 78.3946C560.714 78.0524 561.35 77.6123 561.936 77.0745C562.523 76.4878 562.963 75.8033 563.256 75.0699C563.892 73.4564 563.892 71.6962 563.256 70.1316C562.963 69.3982 562.523 68.7137 561.936 68.127C561.35 67.5402 560.714 67.1002 559.981 66.8068C558.416 66.1223 556.656 66.1223 555.14 66.8068C554.407 67.1491 553.771 67.5891 553.184 68.127C552.598 68.7137 552.158 69.3982 551.864 70.1316C551.229 71.7451 551.229 73.5053 551.864 75.0699C552.158 75.8033 552.598 76.4878 553.184 77.0745C553.771 77.6612 554.407 78.1013 555.14 78.3946C555.873 78.688 556.705 78.8836 557.536 78.8836ZM449.139 61.2819H455.006L459.553 75.7055L464.931 61.2819H470.016L475.297 75.7055L480.039 61.2819H485.907L478.23 83.8707H472.803L467.425 69.1537L461.998 83.8707H456.473L449.139 61.2819Z" fill="white"/>
<g opacity="0.7">
<path d="M391.705 95.6464V58.3106H395.303V95.6464H391.705ZM374.851 78.793V75.164H412.156V78.793H374.851Z" fill="white"/>
</g>
<path d="M96.0573 72.6225C95.6747 82.4089 88.035 90.0293 78.5242 90.0293C68.4934 90.0293 61.0391 81.8357 61.0391 71.9467C61.0391 61.9672 69.1151 53.7676 78.9547 53.7676C83.3962 53.7676 87.7421 55.6983 91.4244 59.1676L88.561 62.7334C85.7455 60.2718 82.3501 58.5884 78.9606 58.5884C71.7454 58.5884 65.8273 64.5676 65.8273 71.9407C65.8273 79.4162 71.4166 85.2024 78.5362 85.2024C84.9385 85.2024 89.9539 80.4781 90.9582 74.4024H76.438V70.1125H96.0692V72.6225H96.0573Z" fill="white"/>
<path d="M112.723 70.2625H110.044C107.091 70.2625 104.694 72.682 104.694 75.6625V89.7388H99.918V65.6348H103.833V67.662C105.125 66.3588 107.175 65.6348 109.471 65.6348H114.629L112.723 70.2625Z" fill="white"/>
<path d="M138.757 89.7402H134.698V86.7053C131.56 89.8005 126.604 91.2848 121.589 89.0645C117.871 87.4173 115.103 83.9963 114.368 79.9598C112.945 72.1645 118.887 65.25 126.479 65.25C129.677 65.25 132.546 66.5532 134.645 68.671V65.6361H138.751V89.7402H138.757ZM133.868 79.4228C134.997 74.5236 131.321 70.0708 126.527 70.0708C122.372 70.0708 119.025 73.4918 119.025 77.6429C119.025 82.331 123.107 85.9632 127.86 85.1426C130.789 84.6358 133.198 82.3431 133.868 79.4228Z" fill="white"/>
<path d="M148.381 64.2843V65.6358H155.979V69.8774H148.381V89.7398H143.652V64.4291C143.652 59.1256 147.424 55.9941 152.153 55.9941H157.886L155.973 60.5253H152.153C150.055 60.5253 148.381 62.2087 148.381 64.2843Z" fill="white"/>
<path d="M181.297 89.7402H177.238V86.7053C174.099 89.8005 169.144 91.2848 164.128 89.0645C160.41 87.4173 157.642 83.9963 156.907 79.9598C155.484 72.1645 161.426 65.25 169.018 65.25C172.216 65.25 175.086 66.5532 177.184 68.671V65.6361H181.291V89.7402H181.297ZM176.413 79.4228C177.542 74.5236 173.866 70.0708 169.072 70.0708C164.917 70.0708 161.57 73.4918 161.57 77.6429C161.57 82.331 165.652 85.9632 170.405 85.1426C173.334 84.6358 175.737 82.3431 176.413 79.4228Z" fill="white"/>
<path d="M206.809 75.4726V89.742H202.032V75.4726C202.032 72.486 199.593 70.0726 196.682 70.0726C193.675 70.0726 191.284 72.486 191.284 75.4726V89.742H186.508V65.6379H190.471V67.7135C192.193 66.1689 194.482 65.2578 196.873 65.2578C202.415 65.2518 206.809 69.8313 206.809 75.4726Z" fill="white"/>
<path d="M234.902 89.7402H230.843V86.7053C227.705 89.8005 222.749 91.2848 217.734 89.0645C214.015 87.4173 211.248 83.9963 210.512 79.9598C209.09 72.1645 215.032 65.25 222.624 65.25C225.822 65.25 228.691 66.5532 230.789 68.671V65.6361H234.896V89.7402H234.902ZM230.018 79.4228C231.148 74.5236 227.472 70.0708 222.677 70.0708C218.523 70.0708 215.175 73.4918 215.175 77.6429C215.175 82.331 219.258 85.9632 224.01 85.1426C226.94 84.6358 229.343 82.3431 230.018 79.4228Z" fill="white"/>
<path d="M267.564 89.7392H249.547V53.8516H254.353V84.8399H267.564V89.7392V89.7392Z" fill="url(#paint0_linear_19899_922)"/>
<path d="M293.125 89.7385H289.042V86.6855C286.926 88.7732 283.997 90.1307 280.781 90.1307C273.912 90.1307 268.383 84.5074 268.383 77.5688C268.383 70.7328 273.906 65.1035 280.781 65.1035C284.003 65.1035 286.884 66.4128 288.994 68.5487V65.4957H293.125V89.7385V89.7385ZM288.415 77.5628C288.415 73.3936 285.049 69.9485 280.823 69.9485C276.644 69.9485 273.279 73.3936 273.279 77.5628C273.279 81.8285 276.644 85.2254 280.823 85.2254C285.055 85.2254 288.415 81.8346 288.415 77.5628Z" fill="url(#paint1_linear_19899_922)"/>
<path d="M321.9 77.6103C321.9 84.4946 316.329 90.1239 309.508 90.1239C306.286 90.1239 303.309 88.7664 301.193 86.6788V89.7317H297.158V55.793H301.917V68.0109C303.889 66.219 306.579 65.1027 309.508 65.1027C316.329 65.1027 321.9 70.6778 321.9 77.6103ZM316.999 77.6103C316.999 73.3929 313.585 69.996 309.455 69.996C305.324 69.996 301.911 73.3929 301.911 77.6103C301.911 81.7795 305.324 85.1764 309.455 85.1764C313.585 85.1764 316.999 81.7855 316.999 77.6103Z" fill="url(#paint2_linear_19899_922)"/>
<path d="M338.338 67.2334L336.222 70.7751C335.212 70.1476 333.484 69.1762 331.559 69.1762C329.736 69.1762 328.098 70.0993 328.098 71.6017C328.098 73.2488 329.969 73.8823 332.324 74.7512C336.168 76.1087 339.534 78.7273 339.534 82.7034C339.534 86.7278 336.12 90.1247 331.224 90.1247C328.247 90.1247 325.265 88.9119 323.25 87.6509L325.127 83.6265C326.52 84.4531 329.114 85.4668 331.087 85.4668C333.49 85.4668 334.548 84.0127 334.548 82.6069C334.548 80.9597 333.06 80.0366 329.742 78.7273C327.339 77.7559 323.447 76.157 323.447 71.843C323.447 67.8186 326.861 65.1035 331.422 65.1035C334.112 65.1035 336.318 66.0206 338.338 67.2334Z" fill="url(#paint3_linear_19899_922)"/>
<path d="M51.0687 67.1145C50.985 66.1733 50.8236 65.0873 50.5128 63.8866C50.2019 62.6919 49.7416 61.3827 49.0781 60.0191C48.4026 58.6676 47.5238 57.2557 46.388 55.8921C45.9457 55.3551 45.4615 54.8302 44.9354 54.3113C45.7185 51.1739 43.985 48.4588 43.985 48.4588C40.996 48.2717 39.0951 49.394 38.3897 49.9129C38.2701 49.8646 38.1566 49.8103 38.037 49.762C37.5289 49.5509 37.0028 49.3578 36.4648 49.1888C35.9268 49.0199 35.3769 48.863 34.8149 48.7243C34.253 48.5915 33.6792 48.4769 33.0993 48.3864C32.9977 48.3683 32.8961 48.3562 32.7944 48.3441C31.4913 44.1327 27.7432 42.377 27.7432 42.377C23.5706 45.0498 22.7756 48.7906 22.7756 48.7906C22.7756 48.7906 22.7576 48.8751 22.7337 49.0139C22.5006 49.0802 22.2734 49.1466 22.0403 49.219C21.7175 49.3155 21.4066 49.4362 21.0838 49.5509C20.767 49.6776 20.4502 49.7982 20.1334 49.937C19.5057 50.2085 18.878 50.5162 18.2683 50.8601C17.6765 51.198 17.0966 51.5661 16.5287 51.9643C16.445 51.9281 16.3853 51.8979 16.3853 51.8979C10.6047 49.6715 5.46972 52.3504 5.46972 52.3504C5.00345 58.559 7.77717 62.4687 8.32713 63.1746C8.18964 63.5608 8.06411 63.9469 7.94455 64.3391C7.51415 65.7449 7.19732 67.1869 7.00005 68.6833C6.97016 68.8944 6.94625 69.1116 6.92234 69.3289C1.58413 71.9897 0 77.45 0 77.45C4.45947 82.6268 9.65421 82.9466 9.65421 82.9466C9.66019 82.9406 9.66617 82.9406 9.66617 82.9345C10.3297 84.1231 11.0949 85.2574 11.9497 86.3133C12.3084 86.7538 12.691 87.1822 13.0795 87.5924C11.4535 92.2805 13.3067 96.1903 13.3067 96.1903C18.2683 96.3773 21.5322 94.0001 22.2137 93.451C22.7098 93.62 23.206 93.7708 23.7141 93.9035C25.2384 94.3018 26.7987 94.531 28.3589 94.6034C28.7474 94.6215 29.136 94.6276 29.5305 94.6276H29.7218L29.8474 94.6215L30.0925 94.6155L30.3375 94.6034L30.3435 94.6095C32.6809 97.9762 36.7936 98.4528 36.7936 98.4528C39.7168 95.3395 39.8842 92.2564 39.8842 91.5866C39.8842 91.5866 39.8842 91.5625 39.8842 91.5444C39.8842 91.4901 39.8842 91.4479 39.8842 91.4479C39.8842 91.3996 39.8782 91.3574 39.8782 91.3031C40.4939 90.8687 41.0797 90.4041 41.6297 89.9033C42.8013 88.8353 43.8236 87.6166 44.6724 86.3073C44.7501 86.1866 44.8278 86.0599 44.9055 85.9332C48.2173 86.1263 50.5486 83.8637 50.5486 83.8637C49.9987 80.3823 48.032 78.6869 47.6255 78.3611C47.6255 78.3611 47.6075 78.349 47.5836 78.3309C47.5597 78.3128 47.5477 78.3008 47.5477 78.3008C47.5238 78.2887 47.4999 78.2706 47.476 78.2525C47.4939 78.0413 47.5119 77.8362 47.5238 77.625C47.5477 77.2509 47.5597 76.8768 47.5597 76.5028V76.2252V76.0864V76.014C47.5597 75.9175 47.5597 75.9537 47.5597 75.9175L47.5477 75.6822L47.5298 75.3684C47.5238 75.2598 47.5179 75.1633 47.5059 75.0668C47.4999 74.9702 47.488 74.8737 47.476 74.7772L47.4401 74.4875L47.3983 74.1979C47.3445 73.8178 47.2668 73.4377 47.1831 73.0576C46.8364 71.5552 46.2565 70.1313 45.4914 68.8522C44.7262 67.5731 43.7698 66.4388 42.6997 65.4855C41.6237 64.5261 40.4222 63.7599 39.1608 63.1867C37.8995 62.6135 36.5724 62.2455 35.2513 62.0765C34.5938 61.992 33.9302 61.9558 33.2786 61.9619L33.0335 61.9679H32.9738C32.9558 61.9679 32.8841 61.9679 32.8901 61.9679L32.7885 61.9739L32.5493 61.992C32.4597 61.9981 32.364 62.0041 32.2803 62.0162C31.9456 62.0464 31.6108 62.0946 31.288 62.161C29.9789 62.4084 28.7415 62.885 27.6475 63.5427C26.5595 64.2003 25.6091 65.0269 24.8379 65.9561C24.0668 66.8913 23.469 67.923 23.0565 68.991C22.6441 70.0589 22.4169 71.1631 22.3511 72.237C22.3332 72.5025 22.3272 72.774 22.3332 73.0335C22.3332 73.0998 22.3332 73.1662 22.3392 73.2326L22.3452 73.4498C22.3571 73.5765 22.3631 73.7092 22.3751 73.8359C22.4289 74.3789 22.5245 74.8978 22.668 75.4046C22.9549 76.4062 23.4152 77.3173 23.9891 78.0896C24.557 78.8619 25.2384 79.5014 25.9618 80.0022C26.6851 80.503 27.4562 80.859 28.2214 81.0822C28.9866 81.3115 29.7457 81.408 30.4631 81.408C30.5527 81.408 30.6424 81.408 30.7321 81.402C30.7799 81.402 30.8277 81.396 30.8755 81.396C30.9234 81.396 30.9712 81.3899 31.019 81.3899C31.0967 81.3839 31.1685 81.3718 31.2462 81.3658C31.2641 81.3658 31.288 81.3598 31.3119 81.3598L31.3837 81.3477C31.4315 81.3417 31.4733 81.3356 31.5212 81.3296C31.6168 81.3175 31.6945 81.2994 31.7842 81.2813C31.8679 81.2632 31.9516 81.2512 32.0353 81.227C32.2026 81.1908 32.3581 81.1426 32.5135 81.0883C32.8243 80.9857 33.1172 80.859 33.3922 80.7202C33.6672 80.5754 33.9183 80.4185 34.1514 80.2556C34.2172 80.2074 34.2829 80.1591 34.3487 80.1048C34.5997 79.9057 34.6416 79.5376 34.4383 79.2903C34.265 79.0731 33.9601 79.0187 33.721 79.1515C33.6612 79.1817 33.6014 79.2179 33.5417 79.248C33.3324 79.3506 33.1172 79.4411 32.8841 79.5195C32.651 79.5919 32.4119 79.6523 32.1608 79.7005C32.0352 79.7186 31.9097 79.7367 31.7782 79.7488C31.7124 79.7548 31.6467 79.7609 31.5869 79.7609C31.5212 79.7609 31.4554 79.7669 31.3956 79.7669C31.3358 79.7669 31.2701 79.7669 31.2103 79.7609C31.1326 79.7548 31.0549 79.7548 30.9772 79.7488C30.9772 79.7488 30.9353 79.7488 30.9712 79.7488H30.9473L30.8935 79.7428C30.8576 79.7367 30.8217 79.7367 30.7919 79.7307C30.7201 79.7247 30.6544 79.7126 30.5826 79.7066C30.0207 79.6281 29.4528 79.4652 28.9088 79.2118C28.3589 78.9644 27.8328 78.6145 27.3606 78.1861C26.8883 77.7577 26.4759 77.2389 26.1531 76.6536C25.8303 76.0683 25.6031 75.4227 25.4955 74.741C25.4417 74.4031 25.4178 74.0471 25.4297 73.7032C25.4357 73.6066 25.4357 73.5161 25.4417 73.4196C25.4417 73.4437 25.4417 73.4075 25.4417 73.4015V73.3653L25.4477 73.2929C25.4536 73.2446 25.4536 73.2024 25.4596 73.1541C25.4776 72.9671 25.5074 72.7801 25.5373 72.593C25.7944 71.1088 26.5297 69.6607 27.6714 68.5626C27.9584 68.2911 28.2632 68.0316 28.592 67.8084C28.9208 67.5791 29.2675 67.38 29.6262 67.2111C29.9908 67.0421 30.3674 66.9034 30.756 66.8008C31.1446 66.6982 31.5451 66.6258 31.9456 66.5896C32.1488 66.5715 32.3521 66.5655 32.5553 66.5655C32.6091 66.5655 32.651 66.5655 32.6928 66.5655L32.8602 66.5715L32.9618 66.5776C33.0037 66.5776 32.9618 66.5776 32.9797 66.5776H33.0216L33.189 66.5896C33.6254 66.6258 34.0617 66.6862 34.4921 66.7887C35.353 66.9818 36.1898 67.3016 36.9729 67.736C38.5332 68.6109 39.8662 69.9744 40.6792 71.6216C41.0917 72.4422 41.3786 73.3231 41.5221 74.2341C41.558 74.4634 41.5819 74.6927 41.5998 74.922L41.6118 75.0969L41.6177 75.2719C41.6237 75.3322 41.6237 75.3865 41.6237 75.4469C41.6237 75.5072 41.6297 75.5676 41.6237 75.6098V75.7606L41.6177 75.9296C41.6118 76.0442 41.6058 76.2252 41.5998 76.3398C41.5819 76.5933 41.558 76.8406 41.5281 77.094C41.4982 77.3414 41.4563 77.5888 41.4145 77.8362C41.3667 78.0835 41.3129 78.3249 41.2531 78.5662C41.1335 79.0489 40.9781 79.5316 40.7928 79.9962C40.4281 80.9314 39.938 81.8183 39.3521 82.6389C38.1745 84.274 36.5665 85.6074 34.7372 86.4521C33.8226 86.8684 32.8542 87.1761 31.8679 87.339C31.3717 87.4235 30.8696 87.4718 30.3674 87.4899L30.2718 87.4959H30.1941H30.0327H29.7876H29.662C29.7278 87.4959 29.6501 87.4959 29.6561 87.4959H29.6082C29.3392 87.4899 29.0702 87.4778 28.8012 87.4537C27.7252 87.3752 26.6671 87.1822 25.639 86.8805C24.6108 86.5788 23.6125 86.1745 22.668 85.6677C20.779 84.6481 19.0932 83.2543 17.7721 81.5709C17.1086 80.7323 16.5287 79.8333 16.0505 78.886C15.5723 77.9387 15.1957 76.9432 14.9147 75.9296C14.6397 74.9099 14.4664 73.8721 14.4006 72.8223L14.3887 72.6232L14.3827 72.5749V72.5327V72.4482L14.3767 72.2732V72.231V72.1707V72.05L14.3707 71.8086V71.7604C14.3707 71.7664 14.3707 71.7664 14.3707 71.7423V71.6457C14.3707 71.519 14.3767 71.3923 14.3767 71.2596C14.3946 70.7407 14.4365 70.2098 14.5082 69.6788C14.574 69.1478 14.6636 68.6109 14.7712 68.0799C14.8788 67.549 15.0104 67.024 15.1538 66.5112C15.4467 65.4794 15.8114 64.4779 16.2478 63.5306C17.1146 61.6361 18.2503 59.9648 19.6193 58.6253C19.96 58.2874 20.3127 57.9677 20.6833 57.672C21.048 57.3764 21.4306 57.0988 21.8251 56.8394C22.2137 56.5799 22.6202 56.3386 23.0386 56.1214C23.2418 56.0068 23.457 55.9102 23.6663 55.8077C23.7739 55.7594 23.8815 55.7111 23.9891 55.6628C24.0967 55.6146 24.2043 55.5663 24.3119 55.5241C24.7423 55.337 25.1906 55.1862 25.639 55.0414C25.7525 55.0052 25.8661 54.975 25.9797 54.9388C26.0933 54.9026 26.2069 54.8785 26.3204 54.8423C26.5476 54.7759 26.7807 54.7216 27.0079 54.6673C27.1215 54.6371 27.241 54.613 27.3546 54.5889C27.4682 54.5647 27.5877 54.5406 27.7013 54.5165C27.8209 54.4923 27.9345 54.4742 28.054 54.4501L28.2274 54.4199L28.4007 54.3958C28.5203 54.3777 28.6339 54.3596 28.7534 54.3415C28.8849 54.3174 29.0164 54.3113 29.148 54.2872C29.2556 54.2751 29.4349 54.251 29.5425 54.2389C29.6262 54.2329 29.7099 54.2208 29.7936 54.2148L29.9609 54.1967L30.0446 54.1907L30.1403 54.1846C30.2718 54.1786 30.4033 54.1665 30.5408 54.1605L30.7381 54.1484C30.7381 54.1484 30.8098 54.1484 30.75 54.1484H30.7919L30.8755 54.1424C30.9891 54.1364 31.1027 54.1303 31.2163 54.1243C31.6646 54.1122 32.113 54.1122 32.5613 54.1243C33.452 54.1605 34.3248 54.257 35.1736 54.4199C36.8713 54.7397 38.4674 55.2888 39.914 56.0128C41.3607 56.7248 42.6579 57.6057 43.7817 58.559C43.8534 58.6193 43.9192 58.6796 43.9909 58.74C44.0567 58.8003 44.1284 58.8606 44.1942 58.921C44.3317 59.0416 44.4632 59.1683 44.5947 59.289C44.7262 59.4097 44.8517 59.5364 44.9773 59.6631C45.1028 59.7898 45.2283 59.9165 45.3419 60.0432C45.8202 60.5561 46.2625 61.0689 46.6571 61.5878C47.4581 62.6256 48.0977 63.6754 48.6058 64.6649C48.6357 64.7252 48.6716 64.7856 48.7015 64.852C48.7314 64.9123 48.7613 64.9726 48.7911 65.039C48.8509 65.1597 48.9107 65.2803 48.9645 65.401C49.0183 65.5217 49.0781 65.6424 49.1259 65.757C49.1797 65.8777 49.2275 65.9923 49.2753 66.1069C49.4666 66.5715 49.64 67.012 49.7775 67.4283C50.0106 68.098 50.184 68.7074 50.3155 69.2384C50.3693 69.4495 50.5666 69.5883 50.7818 69.5702C51.0029 69.5521 51.1763 69.3651 51.1823 69.1418C51.1464 68.5385 51.1345 67.8748 51.0687 67.1145Z" fill="url(#paint4_linear_19899_922)"/>
<defs>
<linearGradient id="paint0_linear_19899_922" x1="258.556" y1="106.166" x2="258.556" y2="55.4612" gradientUnits="userSpaceOnUse">
<stop stop-color="#FFF100"/>
<stop offset="1" stop-color="#F05A28"/>
</linearGradient>
<linearGradient id="paint1_linear_19899_922" x1="280.752" y1="106.165" x2="280.752" y2="55.4606" gradientUnits="userSpaceOnUse">
<stop stop-color="#FFF100"/>
<stop offset="1" stop-color="#F05A28"/>
</linearGradient>
<linearGradient id="paint2_linear_19899_922" x1="309.529" y1="106.164" x2="309.529" y2="55.4598" gradientUnits="userSpaceOnUse">
<stop stop-color="#FFF100"/>
<stop offset="1" stop-color="#F05A28"/>
</linearGradient>
<linearGradient id="paint3_linear_19899_922" x1="331.395" y1="106.165" x2="331.395" y2="55.4606" gradientUnits="userSpaceOnUse">
<stop stop-color="#FFF100"/>
<stop offset="1" stop-color="#F05A28"/>
</linearGradient>
<linearGradient id="paint4_linear_19899_922" x1="25.57" y1="111.052" x2="25.57" y2="59.8294" gradientUnits="userSpaceOnUse">
<stop stop-color="#FFF100"/>
<stop offset="1" stop-color="#F05A28"/>
</linearGradient>
</defs>
</svg>
