<?xml version="1.0" encoding="utf-8"?>
<!-- Generator: Adobe Illustrator 23.0.6, SVG Export Plug-In . SVG Version: 6.00 Build 0)  -->
<svg version="1.1" id="Layer_1" xmlns="http://www.w3.org/2000/svg" xmlns:xlink="http://www.w3.org/1999/xlink" x="0px" y="0px"
	 width="110px" height="28.6px" viewBox="0 0 110 28.6" style="enable-background:new 0 0 110 28.6;" xml:space="preserve">
<style type="text/css">
	.st0{fill-rule:evenodd;clip-rule:evenodd;fill:#272324;}
	.st1{fill-rule:evenodd;clip-rule:evenodd;fill:#272425;}
	.st2{fill-rule:evenodd;clip-rule:evenodd;fill:url(#SVGID_1_);}
</style>
<g transform="matrix(.32269905 0 0 .32269905 1.377071 28.793512)">
	<path class="st0" d="M108.5-19.1c1.6-2.3,2.7-4.1,3.9-5.8c8.9,3.7,15.5,0.5,16.9-7.9c-2.6,0.9-5.1,2.2-7.7,2.8
		c-9.9,2.1-19.1-5.1-17.7-16.3c1.1-8.8,7.9-16.6,17.6-18.5c5-1,9.8,0.1,13.7,4c0.4-1.3,0.7-2.4,1-3.5h5.9c-0.3,2-0.5,3.9-0.9,5.7
		c-1.6,8.8-3.1,17.5-4.8,26.3c-0.8,4.4-2.9,8.4-6.3,11.4c-5.2,4.7-11.2,6.3-18,3.9C111-17.6,109.9-18.4,108.5-19.1z M111.1-45.6
		c0,4.8,3.6,9.2,10,8.5c4.1-0.4,7.1-2.7,9.4-6c2-2.8,2.4-5.9,1.3-9.2c-1.1-3.2-4.1-5.7-7.5-5.8C116.9-58.2,111.1-51.8,111.1-45.6z"
		/>
	<path class="st0" d="M200.1-16.9c-0.6,0.1-1.1,0.2-1.6,0.2c-1.7,0-3.3,0-4.9,0c-0.3-2.9,5.1-35.2,7.9-47.8c0.9,0,1.8-0.1,2.8-0.1
		c1,0,1.9,0,3.2,0c-0.2,1.2-0.3,2.2-0.5,3.5c1.8-0.9,3.3-1.8,4.9-2.6c3.8-1.8,7.7-2,11.8-0.9c7.2,2,11.6,9.2,10.1,16.7
		c-1.9,9.9-8.1,15.6-17.7,17.8c-4,0.9-7.8,0.2-11.3-2.1c-0.5-0.3-0.9-0.7-1.7-1.3C202.1-27.7,201.1-22.3,200.1-16.9z M226.5-49.1
		c0-5.2-3.9-9.1-8.9-8.8c-5.6,0.4-10,4-11.5,8.7c-1.5,4.6-0.4,8,2.6,10.4c2.3,1.8,4.9,2.1,7.8,1.5C221.8-38.4,226.5-43.8,226.5-49.1
		z"/>
	<path class="st0" d="M192.2-30.4c-2.3,0-4,0-5.9,0c0-1.2,0-2.2,0-3.2c-2.3,1-4.4,2.3-6.7,3c-5.7,1.8-11.1,1.1-15.6-3.2
		c-4.5-4.4-5.5-9.8-3.7-15.7c2.6-8.4,8.5-13.6,16.9-15.4c4.4-1,8.8-0.3,12.5,2.9c0.4,0.4,0.9,0.7,1.5,1.1c0.3-1.3,0.5-2.4,0.8-3.5
		h6.1C196.2-53,194.2-41.7,192.2-30.4z M188.3-49.3c-0.1-5.5-4.5-9.6-9.9-8.7c-6.5,1.1-11.8,6-11.2,13.6c0.2,3.2,2.8,6.3,5.8,7
		C181.3-35.4,188.5-42.6,188.3-49.3z"/>
	<path class="st0" d="M332.9-45.1c-9.4,0-18.2,0-27,0c-0.2,4.6,3.2,8,8,8.3c3.4,0.2,6.3-1.1,9.1-2.8c0.7-0.5,1.4-1,2.4-1.6
		c1.1,1.8,2.2,3.4,3.3,5.2c-6,4.9-12.5,7.5-20.2,5.7c-6.6-1.6-11.3-8.8-10.4-15.9c1-8.1,5.3-14,12.8-17.4c4.2-1.9,8.6-2.2,12.9-0.8
		c5.2,1.7,8.1,5.6,9,11.3C333.3-50.6,332.9-48,332.9-45.1z M306.9-51.1h19c-0.3-3.8-2.2-6.2-5.5-7.4
		C315.2-60.2,308.6-56.6,306.9-51.1z"/>
	<path class="st0" d="M240-30.4c-2.6,0-4.7,0-7.2,0c2.8-16,5.6-31.7,8.4-47.6h7.2c-0.9,5-1.7,9.8-2.6,15c1.3-0.6,2.2-1,3-1.3
		c6.5-2.4,14.8,0,16.8,7.7c0.6,2.1,0.6,4.5,0.3,6.7c-0.8,5.9-2,11.8-3,17.7c-0.1,0.6-0.3,1.1-0.6,1.8c-2.2,0-4.4,0-6.9,0
		c0.2-1.8,0.4-3.6,0.7-5.3c0.9-4.9,1.8-9.8,2.7-14.7c0.8-4.6-3.4-8.5-8-7.3c-5.3,1.4-7.2,5.2-7.9,10.1C242.1-41.9,241-36.2,240-30.4
		L240-30.4z"/>
	<path class="st0" d="M285.5-75.5c2.2,0,3.9,0,5.7,0c0.4,0,0.8,0.2,1.4,0.3c-0.6,3.5-1.2,6.9-1.8,10.5h10.4c1,2.2-0.5,3.9-0.2,6.2
		c-3.7,0.8-7.3,0-11.2,0.5c-0.3,1.5-0.7,3-1,4.6c-0.7,3.6-1.3,7.1-1.9,10.7c-0.3,1.9,0.3,3.5,2.4,4.9c2.1,0.2,4.8,0.4,7.6,0.7
		c-0.4,2.2-0.7,4.4-1.1,6.8c-3.2-0.1-6.3,0.3-9.4-0.5c-4.9-1.2-7.3-5.1-6.8-10.2c0.3-3.4,1-6.8,1.6-10.1c1.1-6.3,2.2-12.5,3.4-18.8
		C284.8-71.6,285.1-73.4,285.5-75.5z"/>
	<path class="st0" d="M152.2-62.9c3.7-2.1,7.7-1.7,12-1.6c-0.4,2.2-0.8,4.3-1.2,6.6c-1.6,0.1-3.2,0.3-4.7,0.4
		c-4,0.3-6.7,2.2-7.6,6.2c-1,4.1-1.6,8.3-2.4,12.4c-0.5,2.8-0.9,5.6-1.5,8.5c-2.3,0-4.5,0-6.7,0c-0.2-2.6,4-27.4,5.7-34.1
		c1.5,0,3.2,0,4.8,0c0.3,0,0.6,0.6,0.9,0.9c-0.1,0.4-0.2,0.8-0.3,1.5C151.8-62.5,152-62.7,152.2-62.9z"/>
	<path class="st0" d="M273.2-30.3c-2.6,0-4.6,0-7.1,0c1.7-11.5,3.9-22.7,5.9-34.1h7.1C277.1-53,275.2-41.7,273.2-30.3z"/>
	<path class="st1" d="M281.4-72.2c-1.2,3.8-3.2,5.4-5.9,5c-1.9-0.3-2.9-1.5-3-3.4c-0.1-2.3,1.7-4.7,3.9-5.2
		C278.8-76.3,280.3-75.3,281.4-72.2z"/>

		<linearGradient id="SVGID_1_" gradientUnits="userSpaceOnUse" x1="1267.5284" y1="-1372.8346" x2="1383.5645" y2="-1372.8346" gradientTransform="matrix(0.3227 0 0 -0.3227 -407.0004 -490.7533)">
		<stop  offset="0" style="stop-color:#7ACBBF"/>
		<stop  offset="1" style="stop-color:#3EA4DB"/>
	</linearGradient>
	<path class="st2" d="M111.8-72.5l-12-1.8l-4.3-5.1l6.4-3.1l10.7,1.4l5.5,4.9L111.8-72.5z M84.1-81.2l-2.9-4.2l6.5-2.6l9.4,1.1
		l3.9,4l-6.4,3.1L84.1-81.2z M76-77.9l-10.3-1.5l-1.8-4.5l7.4-2.7l9.3,1.2l2.9,4.2L76-77.9z M56.6-75.9l-10.1-1.6l-0.5-4.7l8.3-2.9
		l9.2,1.3l1.8,4.5L56.6-75.9z M57.4-69.8L47-65.3l-11.4-2.1l0.2-6.1l9.9-3.7L56-75.6L57.4-69.8z M16.9-30.8L2-35.1l3.9-11.7
		l15.3-6.7l12.9,3l-0.5,10.8L16.9-30.8z M34-39l15.5,4L51-20.1L32.6-7.4l-18.4-6.2l3-16.4L34-39z M64.5-43.5l16,3.7l5.3,13.6
		L71.7-14.8l-19.2-5.6l-1.6-14.9L64.5-43.5z M65.1-44.2l-2.6-10L73.2-60l13.6,2.6l5,9.3L81-40.6L65.1-44.2z M72.9-60.4l-2.9-7.2
		l8.9-4.3L90.8-70l4.6,6.8l-8.9,5.4L72.9-60.4z M94.2-79.5l4.2,5.1l-7.5,4l-11.8-1.9l-3-5.4l7.5-3.3L94.2-79.5z M72.1-60.3
		l-10.8,5.8l-13.3-2.7L47.3-65l10.4-4.6l11.7,2L72.1-60.3z M65.1-79.1l10.4,1.5l2.9,5.4l-8.9,4.3l-11.6-2l-1.4-5.7L65.1-79.1z"/>
	<g transform="translate(0 -55)">
		<path d="M33.2,42c-3.6,0.7-6.9,3.8-7.2,7.2c-0.3,3.6,2.7,5.9,6.7,5.1c3.9-0.8,7.1-4.3,7.1-7.7C39.7,43.3,36.8,41.3,33.2,42z"/>
		<path d="M34.4,12c-2.8,0.4-5.3,2.3-5.4,4.3c-0.2,2.1,2.1,3.4,5.1,3c3-0.5,5.4-2.5,5.4-4.5C39.5,12.8,37.2,11.6,34.4,12z"/>
		<path d="M20.6,20.7c-2.5-0.7-6.1,0.5-8.1,2.7c-2.1,2.3-1.8,4.9,0.9,5.7c2.7,0.8,6.5-0.5,8.4-2.9C23.7,23.8,23.1,21.4,20.6,20.7z"
			/>
		<path d="M54.2,30.1c-2.9-0.8-6.4,0.6-7.9,3.2C44.8,36,45.9,39,49.1,40c3.2,1,6.9-0.6,8.3-3.5C58.6,33.7,57.2,30.9,54.2,30.1z"/>
		<path d="M52.5,18.3l-18-4.5L15,24.1l-4,19.3l22,7.6l21.6-15.3L52.5,18.3z M33.2,45.8l-16.9-5.6l2.6-15l15.5-8.4l14.5,3.7l1.2,13.8
			L33.2,45.8z"/>
		<path d="M20.2,37.8c-1.4-2.2-5.2-2.4-8.5-0.4c-3.5,2-5.4,5.6-4.1,8.1c1.3,2.5,5.4,2.8,9,0.5C20.1,43.7,21.6,40,20.2,37.8z"/>
		<path d="M54.5,17c-1.7-1.5-4.9-1.7-7.3-0.3c-2.4,1.4-3.2,3.9-1.6,5.6c1.7,1.8,5.1,1.9,7.6,0.3C55.7,21.1,56.2,18.6,54.5,17z"/>
		<path d="M21.8-1.4c-2.5,0.3-4.8,1.7-5.2,3.2c-0.4,1.6,1.5,2.6,4.1,2.2c2.6-0.3,4.9-1.9,5.1-3.4C26.1-0.8,24.3-1.7,21.8-1.4z"/>
		<path d="M9,5.2c-2.1-0.5-5.3,0.4-7.2,2c-2,1.7-1.9,3.6,0.3,4.1c2.2,0.6,5.6-0.4,7.5-2.2C11.4,7.4,11.1,5.7,9,5.2z"/>
		<path d="M21.7-0.1L3.9,7.6L-1,21.5l17.7,5.2L36.5,16l0.3-12.6L21.7-0.1z M32.8,15l-15.4,8.2L3.7,19.3L7.1,8.4l14.2-6.3l12,2.8
			L32.8,15z"/>
		<path d="M7.2,17.5C6.2,16,3,15.9,0,17.3c-3.1,1.4-4.9,4-4.1,5.7c0.9,1.8,4.3,1.9,7.5,0.3C6.6,21.7,8.2,19.1,7.2,17.5z"/>
		<path d="M38.6,2.4c-1.2-1.2-4-1.2-6.2-0.2c-2.3,1.1-3.2,2.9-2,4.2c1.2,1.3,4.2,1.4,6.5,0.2C39.1,5.4,39.9,3.5,38.6,2.4z"/>
		<path d="M78.2,39.3c-0.9-2.9-4.2-4.7-7.5-4.1c-3.3,0.6-5.5,3.4-4.9,6.5c0.6,3.2,4.1,5.3,7.7,4.6C77.1,45.5,79.2,42.4,78.2,39.3z"
			/>
		<path d="M69.5,10.4c-0.5-1.8-3-2.9-5.6-2.5c-2.6,0.4-4.4,2.1-4.1,4c0.4,1.9,3,3.2,5.7,2.7C68.3,14.1,70.1,12.2,69.5,10.4z"/>
		<path d="M87.7,24.4c-3-0.7-6,0.5-6.7,2.9c-0.8,2.5,1.2,5.2,4.4,6.1c3.3,0.9,6.4-0.6,7-3.2C92.8,27.7,90.7,25.1,87.7,24.4z"/>
		<path d="M82.9,13.6L64.4,9.4l-15.9,9.5l1.6,17.5L73,43.2l16.5-13.8L82.9,13.6z M71.8,38.6l-17.6-5l-1.7-13.6l12.6-7.7L80,15.6
			l4.8,12.6L71.8,38.6z"/>
		<path d="M84.5,12.4c-2-1.4-5.1-1.5-7.1-0.3c-2,1.3-2,3.6,0,5.2c2.1,1.6,5.4,1.7,7.4,0.3C86.8,16.2,86.6,13.9,84.5,12.4z"/>
		<path d="M77.1-5.5c-0.6-1.3-2.8-2.1-4.9-1.8C70-7.1,68.6-5.8,69-4.5c0.5,1.3,2.7,2.2,5,1.9C76.3-2.9,77.7-4.2,77.1-5.5z"/>
		<path d="M63.6-1.7c-2.2-0.4-4.7,0.3-5.6,1.7c-0.9,1.5,0.1,3.1,2.5,3.6c2.4,0.5,5-0.3,5.8-1.9C67,0.3,65.8-1.2,63.6-1.7z"/>
		<path d="M93,4.2c-2.5-0.5-4.9,0.4-5.4,2c-0.5,1.7,1.2,3.5,3.9,4.1c2.7,0.6,5.2-0.4,5.6-2.1C97.4,6.5,95.5,4.7,93,4.2z"/>
		<path d="M88.6-3.3L72.7-6.2L60.1,0.5l2.8,11.9l19,4.4l12.8-9.1L88.6-3.3z M80.7,13.8L66,10.4l-2.5-9.3l10-5.4l12.7,2.4l4.6,8.6
			L80.7,13.8z"/>
		<path d="M89.8-4.1c-1.8-1-4.4-1.1-6-0.2c-1.6,0.9-1.5,2.6,0.3,3.6c1.8,1.1,4.6,1.2,6.2,0.2C91.9-1.4,91.6-3.1,89.8-4.1z"/>
		<path d="M61.6-15.1c-0.3-1-2.1-1.6-4.1-1.4c-2,0.2-3.4,1.2-3.2,2.2c0.2,1.1,2.1,1.8,4.2,1.5C60.5-13,61.9-14.1,61.6-15.1z"/>
		<path d="M49.1-12c-1.9-0.3-4.2,0.2-5.2,1.3c-1,1.1-0.3,2.4,1.7,2.8c2,0.4,4.4-0.3,5.4-1.4C51.8-10.5,51-11.7,49.1-12z"/>
		<path d="M71.4-13.3l-13.6-2.3l-12.1,5.2l0.8,9.1L62.3,2l12.6-6.9L71.4-13.3z M61.7-0.2L49.5-2.7l-0.9-7.1l9.6-4.3l10.8,1.9
			l2.6,6.7L61.7-0.2z"/>
		<path d="M51.7-3.8c-1.3-1-3.9-1.1-5.9-0.2c-2,0.9-2.6,2.6-1.3,3.7c1.3,1.1,4.1,1.2,6.1,0.2C52.6-1.2,53.1-2.8,51.7-3.8z"/>
		<path d="M72.7-14c-1.4-0.8-3.7-0.9-5.2-0.1c-1.6,0.7-1.8,2-0.4,2.9c1.4,0.9,3.9,0.9,5.4,0.1C74-11.9,74.1-13.2,72.7-14z"/>
		<path d="M82.7-17.4c-0.6-1-2.5-1.5-4.4-1.3c-1.9,0.2-3,1.1-2.5,2.1c0.5,1,2.5,1.6,4.4,1.4C82.2-15.5,83.3-16.5,82.7-17.4z"/>
		<path d="M96.7-10.3c-2.2-0.4-4.2,0.3-4.5,1.4c-0.4,1.2,1.1,2.5,3.4,2.9c2.3,0.4,4.4-0.3,4.6-1.5C100.5-8.7,98.9-9.9,96.7-10.3z"/>
		<path d="M92.7-15.7l-13.8-2.2L68.5-13l3.2,8.5l16.1,3.1l10.4-6.4L92.7-15.7z M86.7-3.5L74.3-5.8l-2.8-6.6l8.2-4l11,1.8L95-8.4
			L86.7-3.5z"/>
		<path d="M93.7-16.4c-1.6-0.7-3.8-0.8-5.1-0.1c-1.3,0.7-1.2,1.9,0.4,2.7c1.6,0.8,4,0.9,5.3,0.1C95.6-14.4,95.3-15.6,93.7-16.4z"/>
		<path d="M86.9-26.3c-0.5-0.7-2.3-1.2-3.9-1c-1.6,0.2-2.6,0.9-2.1,1.6c0.5,0.8,2.3,1.3,4,1.1C86.6-24.8,87.5-25.6,86.9-26.3z"/>
		<path d="M77.1-24.1c-1.7-0.2-3.5,0.2-4,1c-0.5,0.8,0.5,1.7,2.3,2c1.8,0.3,3.7-0.2,4.1-1C79.9-23,78.9-23.8,77.1-24.1z"/>
		<path d="M99.5-20.9c-1.9-0.3-3.6,0.2-3.9,1.1c-0.3,0.9,1.1,1.9,3.1,2.2c2,0.3,3.8-0.2,4-1.1C102.8-19.6,101.4-20.6,99.5-20.9z"/>
		<path d="M95.8-25l-12.2-1.7l-8.8,3.8l3.4,6.4l14,2.3l8.8-4.8L95.8-25z M91.1-15.8l-10.9-1.7l-2.8-5l6.9-3.1l9.8,1.4l3.9,4.8
			L91.1-15.8z"/>
		<path d="M81.8-18.3c-1.4-0.7-3.6-0.8-5-0.1c-1.4,0.7-1.4,1.8,0,2.5c1.4,0.8,3.7,0.8,5.1,0.1C83.3-16.4,83.2-17.5,81.8-18.3z"/>
		<path d="M96.7-25.5c-1.4-0.6-3.4-0.6-4.5-0.1c-1.1,0.5-0.9,1.5,0.4,2.1c1.4,0.6,3.5,0.7,4.7,0.1C98.4-24,98.1-24.9,96.7-25.5z"/>
		<path d="M45.7-23.8c-1.8,0.2-3.3,1-3.2,1.8c0,0.9,1.6,1.4,3.5,1.2c1.9-0.2,3.3-1,3.2-1.9C49.1-23.5,47.5-24,45.7-23.8z"/>
		<path d="M37.6-20.2c-1.7-0.3-3.8,0.2-4.8,1.1c-1.1,0.9-0.6,1.9,1.1,2.2c1.7,0.3,4-0.2,5-1.1C39.8-18.9,39.2-19.9,37.6-20.2z"/>
		<path d="M57.7-21.2l-11.8-1.9l-11.6,4.2l-0.4,7.2l13.5,2.6l12.2-5.4L57.7-21.2z M47.2-10.8l-10.5-2l0.1-5.6l9.2-3.4l9.5,1.5
			l1.3,5.3L47.2-10.8z"/>
		<path d="M38.8-13.6c-1-0.8-3.3-0.9-5.2-0.1c-1.9,0.7-2.6,2-1.6,2.9c1,0.9,3.5,0.9,5.4,0.1C39.3-11.5,39.9-12.8,38.8-13.6z"/>
		<path d="M59-21.7c-1.1-0.6-3.2-0.7-4.7-0.1c-1.5,0.6-1.9,1.6-0.8,2.3c1.1,0.7,3.3,0.7,4.8,0.1C59.9-20.1,60.1-21.1,59-21.7z"/>
		<path d="M56.9-30.4c-0.2-0.6-1.6-1.1-3.2-0.9c-1.6,0.1-2.8,0.8-2.7,1.4c0.1,0.7,1.6,1.1,3.3,1C55.9-29.1,57.1-29.8,56.9-30.4z"/>
		<path d="M46.8-28.5c-1.5-0.2-3.3,0.2-4.2,0.8c-0.8,0.7-0.3,1.5,1.3,1.7c1.6,0.2,3.5-0.2,4.2-0.9C49-27.5,48.3-28.2,46.8-28.5z"/>
		<path d="M66.3-25.7c-1.6-0.2-3.5,0.2-4.1,0.9c-0.6,0.8,0.2,1.6,1.9,1.9c1.7,0.3,3.6-0.2,4.2-1C68.8-24.6,67.9-25.4,66.3-25.7z"/>
		<path d="M64.6-29.3l-10.7-1.5l-9.8,3.3l0.5,5.5l12,1.9l10.2-4.1L64.6-29.3z M56.3-21.3L47-22.7l-0.5-4.3l7.7-2.7l8.5,1.2l1.6,4.1
			L56.3-21.3z"/>
		<path d="M65.7-29.7c-1.1-0.5-2.9-0.5-4.2-0.1C60.2-29.3,60-28.5,61-28c1.1,0.5,3,0.6,4.3,0.1C66.6-28.4,66.8-29.2,65.7-29.7z"/>
		<path d="M74.1-31.9c-0.4-0.6-1.9-1-3.4-0.9c-1.5,0.1-2.5,0.7-2.2,1.4c0.3,0.6,1.9,1.1,3.4,0.9C73.6-30.7,74.5-31.3,74.1-31.9z"/>
		<path d="M82-30.9l-10.8-1.4l-8.6,3.2l2,5.3L76.7-22l8.8-3.9L82-30.9z M76.1-23.3l-9.5-1.4l-1.7-4.1l6.8-2.6l8.7,1.1l2.7,3.9
			L76.1-23.3z"/>
		<path d="M82.9-31.3c-1.2-0.5-3-0.5-4.1-0.1c-1.1,0.4-1.1,1.2,0,1.7c1.2,0.5,3.1,0.6,4.2,0.1C84.2-30,84.1-30.8,82.9-31.3z"/>
		<path d="M90.2-33.4c-0.5-0.6-2.1-1-3.6-0.8c-1.5,0.1-2.3,0.7-1.8,1.3c0.5,0.6,2.1,1,3.6,0.9C90-32.2,90.7-32.8,90.2-33.4z"/>
		<path d="M101.6-29.1c-1.7-0.2-3.2,0.2-3.4,0.8c-0.2,0.7,1,1.5,2.8,1.7c1.8,0.2,3.3-0.2,3.5-0.9C104.6-28.1,103.3-28.9,101.6-29.1z
			"/>
		<path d="M98.2-32.3l-11-1.3l-7.6,3l3.3,5l12.4,1.7l7.6-3.7L98.2-32.3z M94.3-25.1l-9.7-1.3l-2.8-3.9l6-2.4l8.8,1.1l3.6,3.7
			L94.3-25.1z"/>
		<path d="M99-32.7c-1.3-0.5-3.1-0.5-4-0.1c-1,0.4-0.8,1.2,0.5,1.6c1.3,0.5,3.2,0.5,4.1,0.1C100.5-31.5,100.2-32.3,99-32.7z"/>
		<path d="M114.9-17.8c-1-0.9-3.2-1.5-4.9-1.3c-1.8,0.2-2.5,1.1-1.6,2.1c0.9,1,3.2,1.6,5.1,1.4C115.2-15.9,115.9-16.9,114.9-17.8z"
			/>
		<path d="M118-22.9c-1.9-0.3-3.5,0.2-3.5,1c0,0.8,1.5,1.8,3.5,2.1c2,0.3,3.6-0.2,3.6-1.1C121.5-21.7,119.9-22.6,118-22.9z"/>
		<path d="M113.3-26.8l-12.4-1.6l-7.6,3.6l5,6.1l14.2,2.1l7.3-4.5L113.3-26.8z M111.1-18.1l-11.1-1.6l-4-4.7l6-2.9l9.9,1.3l5,4.5
			L111.1-18.1z"/>
		<path d="M114.1-27.3c-1.5-0.5-3.5-0.6-4.4-0.1c-1,0.5-0.6,1.4,1,2c1.5,0.6,3.6,0.6,4.6,0.1C116.1-25.8,115.6-26.7,114.1-27.3z"/>
	</g>
</g>
</svg>

