<svg xmlns="http://www.w3.org/2000/svg" viewBox="0 0 53.37 38.32"><defs><style>.cls-1{fill:none;stroke:#fff;stroke-linecap:round;stroke-linejoin:round;stroke-width:1.3px;}</style></defs><title>Asset 8</title><g id="Layer_2" data-name="Layer 2"><g id="Layer_1-2" data-name="Layer 1"><path class="cls-1" d="M5.67,20.88s3.5,10.33,16.18,9.84,11.74-3.33,11.74-3.33"/><polyline class="cls-1" points="26.39 25.87 24.34 29.22 26.8 37.67"/><line class="cls-1" x1="30.58" y1="29.64" x2="32.38" y2="33.75"/><polyline class="cls-1" points="13.78 25.07 13.78 31.57 10 37.12"/><polyline class="cls-1" points="40.72 14.46 42.43 8.41 47.42 0.65"/><polyline class="cls-1" points="42.46 15.39 45.24 9.19 52.72 4.57"/><path class="cls-1" d="M30.82,17.31a18,18,0,0,0-12.27-3.17c-7.42.73-7.66,1.38-10.68,2S.65,17.32.65,17.32,6,22.69,11.94,22.49s10.38-.44,12.71-.29a34,34,0,0,1,5.59,1.11"/><path class="cls-1" d="M32.44,15.43c3.09-2.11,7.5-2.56,10.74,1.06C47,20.8,46.75,28.25,44.49,30c-2.55,2-8.15,1.2-12.86-4.64A7,7,0,0,1,32.44,15.43Z"/><path class="cls-1" d="M36.1,20a1.79,1.79,0,0,0-1.55,1.84A3.25,3.25,0,0,0,37.05,25a1.75,1.75,0,0,0,2.05-1.34c.12-1.79-1.8-3.91-3-3.59"/></g></g></svg>