<?xml version="1.0" encoding="UTF-8"?> <!-- Generator: Adobe Illustrator 23.0.2, SVG Export Plug-In . SVG Version: 6.00 Build 0) --> <svg xmlns="http://www.w3.org/2000/svg" xmlns:xlink="http://www.w3.org/1999/xlink" id="Layer_1" x="0px" y="0px" viewBox="0 0 53.4 38.3" style="enable-background:new 0 0 53.4 38.3;" xml:space="preserve"> <style type="text/css"> .st0{fill:none;stroke:#000000;stroke-width:1.3;stroke-linecap:round;stroke-linejoin:round;} </style> <title>Asset 8</title> <g> <g id="Layer_1-2"> <path class="st0" d="M5.7,20.9c0,0,3.5,10.3,16.2,9.8s11.7-3.3,11.7-3.3"></path> <polyline class="st0" points="26.4,25.9 24.3,29.2 26.8,37.7 "></polyline> <line class="st0" x1="30.6" y1="29.6" x2="32.4" y2="33.8"></line> <polyline class="st0" points="13.8,25.1 13.8,31.6 10,37.1 "></polyline> <polyline class="st0" points="40.7,14.5 42.4,8.4 47.4,0.6 "></polyline> <polyline class="st0" points="42.5,15.4 45.2,9.2 52.7,4.6 "></polyline> <path class="st0" d="M30.8,17.3c-3.6-2.5-7.9-3.6-12.3-3.2c-7.4,0.7-7.7,1.4-10.7,2c-3,0.6-7.2,1.2-7.2,1.2s5.3,5.4,11.3,5.2 s10.4-0.4,12.7-0.3c1.9,0.2,3.8,0.6,5.6,1.1"></path> <path class="st0" d="M32.4,15.4c3.1-2.1,7.5-2.6,10.7,1.1c3.8,4.3,3.6,11.8,1.3,13.5c-2.5,2-8.1,1.2-12.9-4.6 C29.1,22.4,29.4,18,32.4,15.4C32.4,15.5,32.4,15.4,32.4,15.4z"></path> <path class="st0" d="M36.1,20c-0.9,0.1-1.6,0.9-1.5,1.8c0,1.5,1,2.8,2.5,3.2c0.9,0.2,1.8-0.4,2-1.3C39.2,21.9,37.3,19.8,36.1,20"></path> </g> </g> </svg> 