<svg xmlns="http://www.w3.org/2000/svg" width="112" height="58" viewBox="0 0 112 58">
    <g fill="#ffffff" fill-rule="evenodd">
        <path d="M36.662 29.891v10.482c0 1.336-.719 2.055-2.055 2.055h-2.055c-1.336 0-2.055-.719-2.055-2.055V29.737c0-4.213-2.57-7.09-6.012-7.09-3.34 0-6.32 1.592-6.32 6.32v11.406c0 1.336-.719 2.055-2.054 2.055h-2.056c-1.336 0-2.055-.719-2.055-2.055V6.642c0-1.336.72-2.055 2.055-2.055h2.056c1.335 0 2.055.719 2.055 2.055v9.89c0 1.645.668 1.902 1.9 1.13 1.234-.77 2.724-1.18 4.42-1.18 7.912 0 12.176 5.754 12.176 13.41M70.65 17.432c1.336 0 2.055.72 2.055 2.055v23.866c0 5.344-4.675 9.351-10.944 9.351-2.774 0-5.6-.513-7.656-1.695-1.13-.668-1.181-1.798-.36-2.878l1.183-1.541c.77-1.028 1.644-1.028 2.826-.565 1.13.41 2.414.514 4.007.514 2.98 0 4.779-2.056 4.779-3.186v-2.466c-1.387 1.13-3.186 1.798-5.293 1.798-7.912 0-12.177-5.754-12.177-13.41v-9.788c0-1.336.72-2.055 2.056-2.055h2.055c1.336 0 2.055.72 2.055 2.055v9.942c0 4.213 2.569 7.09 6.011 7.09 2.158 0 4.162-.668 5.293-2.363V19.487c0-1.336.719-2.055 2.055-2.055h2.055M91.769 34.893l-.05-7.592c-.35-3.497-2.847-4.096-5.095-4.096-2.447 0-5.794 2.248-5.794 6.893 0 3.296 2.248 6.593 6.393 6.593 2.248 0 3.647-.899 4.546-1.798zm7.592 3.047l-.4 2.497c-.2 1.25-.998 1.898-2.297 1.649-1.648-.25-2.797-.6-3.596-1.349-1.449.95-3.397 1.948-5.845 1.948-8.34 0-12.437-6.743-12.437-12.437 0-7.443 4.146-13.037 11.838-13.037 6.793 0 11.139 4.445 11.139 9.64v4.546c0 1.598 0 3.346.6 4.245.549.9 1.198 1.199.998 2.298zM46.984 8.796a4.108 4.108 0 1 1-8.215 0 4.108 4.108 0 0 1 8.215 0"/>
        <path d="M45.95 19.651c0-2.458-2.31-2.86-4.473-3.69-2.707-1.037-5.802-4.028-5.769-7.165v-.005.005c0-1.336-.72-2.055-2.055-2.055h-.332c-1.336 0-2.055.72-2.055 2.055v1.18c0 2.745 1.586 5.192 3.422 7.04 2.933 2.622 4.764 6.526 5.096 11.293v12.064c0 1.336.719 2.055 2.055 2.055h2.055c1.336 0 2.055-.719 2.055-2.055V19.65"/>
    </g>
</svg>