<?xml version="1.0" encoding="UTF-8" standalone="no"?>
<svg
   xmlns:dc="http://purl.org/dc/elements/1.1/"
   xmlns:cc="http://creativecommons.org/ns#"
   xmlns:rdf="http://www.w3.org/1999/02/22-rdf-syntax-ns#"
   xmlns:svg="http://www.w3.org/2000/svg"
   xmlns="http://www.w3.org/2000/svg"
   xmlns:sodipodi="http://sodipodi.sourceforge.net/DTD/sodipodi-0.dtd"
   xmlns:inkscape="http://www.inkscape.org/namespaces/inkscape"
   width="88"
   height="49"
   viewBox="0 0 88 49"
   version="1.1"
   id="svg8"
   sodipodi:docname="hiya-logo.svg"
   inkscape:version="1.0.2 (e86c870879, 2021-01-15)">
  <metadata
     id="metadata14">
    <rdf:RDF>
      <cc:Work
         rdf:about="">
        <dc:format>image/svg+xml</dc:format>
        <dc:type
           rdf:resource="http://purl.org/dc/dcmitype/StillImage" />
        <dc:title></dc:title>
      </cc:Work>
    </rdf:RDF>
  </metadata>
  <defs
     id="defs12" />
  <sodipodi:namedview
     pagecolor="#ffffff"
     bordercolor="#666666"
     borderopacity="1"
     objecttolerance="10"
     gridtolerance="10"
     guidetolerance="10"
     inkscape:pageopacity="0"
     inkscape:pageshadow="2"
     inkscape:window-width="3840"
     inkscape:window-height="2092"
     id="namedview10"
     showgrid="false"
     inkscape:zoom="12.5"
     inkscape:cx="56"
     inkscape:cy="29"
     inkscape:window-x="0"
     inkscape:window-y="0"
     inkscape:window-maximized="1"
     inkscape:current-layer="svg8" />
  <g
     fill="#6a44b9"
     fill-rule="evenodd"
     id="g6"
     transform="translate(-11.839375,-4.38625)">
    <path
       d="m 36.662,29.891 v 10.482 c 0,1.336 -0.719,2.055 -2.055,2.055 h -2.055 c -1.336,0 -2.055,-0.719 -2.055,-2.055 V 29.737 c 0,-4.213 -2.57,-7.09 -6.012,-7.09 -3.34,0 -6.32,1.592 -6.32,6.32 v 11.406 c 0,1.336 -0.719,2.055 -2.054,2.055 H 14.055 C 12.719,42.428 12,41.709 12,40.373 V 6.642 c 0,-1.336 0.72,-2.055 2.055,-2.055 h 2.056 c 1.335,0 2.055,0.719 2.055,2.055 v 9.89 c 0,1.645 0.668,1.902 1.9,1.13 1.234,-0.77 2.724,-1.18 4.42,-1.18 7.912,0 12.176,5.754 12.176,13.41 M 70.65,17.432 c 1.336,0 2.055,0.72 2.055,2.055 v 23.866 c 0,5.344 -4.675,9.351 -10.944,9.351 -2.774,0 -5.6,-0.513 -7.656,-1.695 -1.13,-0.668 -1.181,-1.798 -0.36,-2.878 l 1.183,-1.541 c 0.77,-1.028 1.644,-1.028 2.826,-0.565 1.13,0.41 2.414,0.514 4.007,0.514 2.98,0 4.779,-2.056 4.779,-3.186 v -2.466 c -1.387,1.13 -3.186,1.798 -5.293,1.798 -7.912,0 -12.177,-5.754 -12.177,-13.41 v -9.788 c 0,-1.336 0.72,-2.055 2.056,-2.055 h 2.055 c 1.336,0 2.055,0.72 2.055,2.055 v 9.942 c 0,4.213 2.569,7.09 6.011,7.09 2.158,0 4.162,-0.668 5.293,-2.363 V 19.487 c 0,-1.336 0.719,-2.055 2.055,-2.055 h 2.055 m 21.119,17.461 -0.05,-7.592 c -0.35,-3.497 -2.847,-4.096 -5.095,-4.096 -2.447,0 -5.794,2.248 -5.794,6.893 0,3.296 2.248,6.593 6.393,6.593 2.248,0 3.647,-0.899 4.546,-1.798 z m 7.592,3.047 -0.4,2.497 c -0.2,1.25 -0.998,1.898 -2.297,1.649 -1.648,-0.25 -2.797,-0.6 -3.596,-1.349 -1.449,0.95 -3.397,1.948 -5.845,1.948 -8.34,0 -12.437,-6.743 -12.437,-12.437 0,-7.443 4.146,-13.037 11.838,-13.037 6.793,0 11.139,4.445 11.139,9.64 v 4.546 c 0,1.598 0,3.346 0.6,4.245 0.549,0.9 1.198,1.199 0.998,2.298 z M 46.984,8.796 a 4.108,4.108 0 1 1 -8.215,0 4.108,4.108 0 0 1 8.215,0"
       id="path2" />
    <path
       d="m 45.95,19.651 c 0,-2.458 -2.31,-2.86 -4.473,-3.69 C 38.77,14.924 35.675,11.933 35.708,8.796 V 8.791 8.796 c 0,-1.336 -0.72,-2.055 -2.055,-2.055 h -0.332 c -1.336,0 -2.055,0.72 -2.055,2.055 v 1.18 c 0,2.745 1.586,5.192 3.422,7.04 2.933,2.622 4.764,6.526 5.096,11.293 v 12.064 c 0,1.336 0.719,2.055 2.055,2.055 h 2.055 c 1.336,0 2.055,-0.719 2.055,-2.055 V 19.65"
       id="path4" />
  </g>
</svg>
