<svg width="239" height="49" viewBox="0 0 137 28" fill="none" xmlns="http://www.w3.org/2000/svg">
<path d="M9.32466 12.411L9.32037 7.87759C9.32037 6.26638 8.05189 4.94749 6.44922 4.84924L8.39281 4.85597C10.6743 4.85597 12.5226 6.68656 12.5226 8.94528L12.5257 12.411H9.32528H9.32466Z" fill="#CC0033"/>
<path d="M14.6816 9.20009L19.201 9.19636C20.8079 9.19636 22.1218 7.92296 22.2195 6.31543L22.2133 8.26513C22.2133 10.5534 20.3883 12.4079 18.1369 12.4079L14.6822 12.411V9.20014H14.6816V9.20009Z" fill="#FF9900"/>
<path d="M12.5265 17.7927L8.00783 17.7963C6.40086 17.7963 5.08751 19.0697 4.98926 20.6773L4.99542 18.7276C4.99542 16.4393 6.82046 14.5848 9.07179 14.5848L12.5265 14.5818V17.7927H12.5265Z" fill="#64BA7B"/>
<path d="M0 0L8.3892 0.0086442C10.6694 0.0086442 12.5184 1.83918 12.5184 4.09728L12.5172 5.77796C12.3003 4.31293 11.0257 3.18753 9.48572 3.18753L3.20347 3.18204L3.21082 9.3826C3.21082 10.9945 4.4793 12.3128 6.08135 12.411L4.13838 12.4036C1.85693 12.4036 0.00916155 10.5731 0.00916155 8.31496L0 0ZM27.2083 0L18.8197 0.0086442C16.5388 0.0086442 14.6899 1.83918 14.6899 4.09728L14.6917 5.77796C14.9085 4.31293 16.1825 3.18753 17.7226 3.18753L24.0048 3.18142L23.9981 9.38193C23.9981 10.9938 22.7296 12.312 21.1269 12.4104L23.0705 12.403C25.3513 12.403 27.1997 10.5724 27.1997 8.31435L27.2083 0ZM0 27.0038L8.3892 26.9952C10.6694 26.9952 12.5184 25.1646 12.5184 22.9065L12.5172 21.2265C12.3003 22.6909 11.0257 23.8163 9.48572 23.8163L3.20347 23.8224L3.21082 17.6225C3.21082 16.0101 4.4793 14.6924 6.08135 14.5941L4.13838 14.6003C1.85693 14.6003 0.00916155 16.432 0.00916155 18.6901L0 27.0038ZM27.2083 27.0038L18.8197 26.9952C16.5388 26.9952 14.6899 25.1646 14.6899 22.9065L14.6917 21.2265C14.9085 22.6909 16.1825 23.8163 17.7226 23.8163L24.0048 23.8224L23.9981 17.6225C23.9981 16.0101 22.7296 14.6924 21.1269 14.5941L23.0705 14.6003C25.3513 14.6003 27.1997 16.432 27.1997 18.6901L27.2083 27.0038Z" fill="#888C90"/>
<path d="M17.8902 14.5928L17.8951 19.1262C17.8951 20.7381 19.1642 22.0563 20.7662 22.1546L18.8233 22.1478C16.5424 22.1478 14.6929 20.3173 14.6929 18.0585L14.6904 14.5928H17.8908H17.8902Z" fill="#0CA2D0"/>
<mask id="mask0" mask-type="alpha" maskUnits="userSpaceOnUse" x="134" y="9" width="3" height="4">
<path d="M137 12.5467V9.70874H134.134V12.5467H137Z" fill="white"/>
</mask>
<g mask="url(#mask0)">
<path d="M135.23 11.0313H135.355C135.533 11.0313 135.644 11.0245 135.687 11.0104C135.789 10.9811 135.848 10.8743 135.819 10.7719C135.813 10.7503 135.803 10.73 135.79 10.7118C135.763 10.6779 135.727 10.6531 135.685 10.6412C135.641 10.6271 135.531 10.6203 135.355 10.6203H135.23V11.0319V11.0313ZM134.921 11.887V10.3814H135.23C135.518 10.3814 135.681 10.3826 135.715 10.385C135.818 10.3943 135.898 10.4145 135.954 10.4452C136.011 10.4772 136.058 10.5251 136.096 10.5896C136.135 10.6552 136.154 10.7299 136.153 10.8058C136.156 10.9094 136.117 11.0096 136.045 11.0847C135.965 11.1662 135.858 11.2169 135.744 11.2279C135.782 11.2413 135.818 11.2603 135.851 11.2843C135.875 11.3052 135.91 11.3439 135.953 11.401C135.965 11.4158 136.002 11.4766 136.066 11.5841L136.245 11.8875H135.864L135.736 11.643C135.65 11.479 135.579 11.3758 135.523 11.3328C135.461 11.2885 135.386 11.2662 135.309 11.2695H135.23V11.8863H134.921V11.887H134.921ZM135.57 9.9864C135.373 9.9864 135.184 10.0355 135.003 10.1332C134.823 10.2295 134.675 10.3754 134.575 10.5534C134.474 10.7275 134.42 10.9255 134.419 11.1271C134.419 11.3262 134.47 11.5159 134.572 11.6959C134.673 11.8765 134.815 12.0178 134.998 12.1185C135.353 12.3201 135.788 12.3201 136.143 12.1185C136.325 12.0178 136.467 11.8765 136.568 11.6959C136.774 11.3427 136.773 10.9059 136.566 10.5534C136.467 10.375 136.318 10.2291 136.138 10.1332C135.964 10.0373 135.768 9.98682 135.57 9.9864ZM135.568 9.70874C135.814 9.70874 136.05 9.77024 136.276 9.89116C136.501 10.0128 136.679 10.1872 136.808 10.4145C136.937 10.6418 137.001 10.8795 137.001 11.1271C137.001 11.3747 136.937 11.6099 136.811 11.8341C136.688 12.0555 136.504 12.2374 136.282 12.3587C135.839 12.6087 135.297 12.6087 134.854 12.3587C134.632 12.2372 134.448 12.0554 134.325 11.8341C134.071 11.3945 134.073 10.8528 134.328 10.4145C134.457 10.1872 134.635 10.0128 134.861 9.89116C135.078 9.77205 135.321 9.70931 135.568 9.70874Z" fill="#888C90"/>
</g>
<path d="M39.778 12.0484H34.8097V7.0261H32.6855V19.6385H34.8097V13.9798H39.778V19.6385H41.9022V7.0261H39.778V12.0484ZM47.6427 18.0536C47.303 18.0536 46.9977 17.9996 46.7366 17.8928C46.4768 17.7847 46.2542 17.6033 46.096 17.3706C45.9178 17.1187 45.7803 16.776 45.6894 16.3521C45.596 15.9197 45.548 15.3686 45.548 14.7151C45.548 14.0535 45.6046 13.4988 45.7152 13.0663C45.8239 12.6413 45.9756 12.2985 46.1661 12.0453C46.3504 11.7997 46.5721 11.6264 46.8245 11.5294C47.1035 11.4257 47.3992 11.3742 47.6968 11.3776C48.0341 11.3776 48.3375 11.4335 48.5992 11.5454C48.8615 11.6608 49.0875 11.8456 49.2528 12.0798C49.4371 12.3328 49.5839 12.6756 49.6865 13.1001C49.7921 13.5338 49.845 14.0768 49.845 14.7156C49.845 15.3655 49.7922 15.9154 49.6865 16.3484C49.5839 16.7717 49.4353 17.1144 49.2448 17.3675C49.0731 17.6028 48.8384 17.7848 48.5679 17.8927C48.272 18.0034 47.958 18.0579 47.6422 18.0536L47.6427 18.0536ZM50.7257 10.7849C50.354 10.3776 49.8878 10.0679 49.3682 9.88311C48.8306 9.69779 48.2653 9.60534 47.6967 9.60974C47.0824 9.60974 46.5074 9.72523 45.9859 9.9519C45.4626 10.1792 45.0056 10.5171 44.6271 10.9526C44.2512 11.3869 43.9557 11.928 43.7493 12.5595C43.546 13.1873 43.4416 13.9122 43.4416 14.7156C43.4416 15.6027 43.5423 16.373 43.7401 17.0057C43.9397 17.6445 44.2266 18.1802 44.5915 18.5967C44.9537 19.0128 45.4137 19.3327 45.93 19.5273C46.4435 19.7214 47.0197 19.8209 47.6419 19.8209C48.2421 19.8209 48.8103 19.7122 49.3313 19.4978C49.8537 19.2836 50.3212 18.9546 50.6992 18.5352C51.0826 18.1132 51.3872 17.5757 51.6059 16.9375C51.8228 16.3029 51.9327 15.5547 51.9327 14.715C51.9327 13.8034 51.8258 13.0171 51.6158 12.377C51.4032 11.7309 51.104 11.1958 50.7263 10.7848L50.7257 10.7849ZM58.4602 18.4941C58.4275 18.2521 58.3773 18.0127 58.3103 17.7779L58.2538 17.5837L58.0708 17.6697C57.8708 17.7587 57.6615 17.8246 57.4467 17.8663C57.2228 17.9153 56.9946 17.9415 56.7654 17.9443C56.3545 17.9443 56.0658 17.8663 55.9067 17.7109C55.7979 17.6064 55.6689 17.3447 55.6689 16.6985V11.5594H57.9295L57.9528 11.412C58.0266 10.9317 58.0634 10.4452 58.0634 9.96598V9.79216H55.6689V7.44435L55.4786 7.46345C55.195 7.49373 54.9127 7.53384 54.6321 7.58385C54.3151 7.63908 54.0405 7.69809 53.8169 7.76011L53.6897 7.7951V9.79154H52.5656V11.5594H53.6897V16.572C53.6897 17.6654 53.9207 18.4873 54.3765 19.0143C54.8372 19.5487 55.5928 19.8209 56.6205 19.8209C56.8834 19.8209 57.1936 19.7865 57.5419 19.717C57.8589 19.6594 58.1668 19.5594 58.4572 19.4197L58.5647 19.3663L58.5524 19.2471C58.527 18.9956 58.4963 18.7444 58.4602 18.4941ZM65.9378 13.3378C65.5086 13.023 65.0489 12.752 64.5655 12.5288C64.1136 12.3204 63.6697 12.0947 63.235 11.8525C62.8394 11.6314 62.507 11.3888 62.246 11.1338C62.0115 10.9106 61.8823 10.5987 61.8904 10.2751C61.8904 9.8082 62.0268 9.43964 62.305 9.14971C62.5777 8.8647 63.1066 8.72033 63.8757 8.72033C64.2535 8.72033 64.6792 8.75046 65.1412 8.80942C65.6037 8.86962 66.0239 8.94763 66.3906 9.04282L66.5515 9.0846L66.5994 8.92423C66.6732 8.67607 66.7364 8.39287 66.7861 8.0827C66.8347 7.77429 66.866 7.51138 66.8783 7.30132L66.8869 7.1569L66.7475 7.12191C66.3537 7.02366 65.912 6.95176 65.4329 6.90812C64.9996 6.86769 64.5647 6.84637 64.1294 6.8443C63.5004 6.8443 62.9137 6.91982 62.3873 7.06911C61.8529 7.22016 61.3879 7.45056 61.0028 7.75524C60.6161 8.05956 60.3024 8.44634 60.0844 8.88737C59.8614 9.33456 59.7484 9.85609 59.7484 10.439C59.7484 11.0668 59.8958 11.5994 60.187 12.0208C60.4773 12.438 60.839 12.8006 61.2552 13.0921C61.673 13.3882 62.1337 13.6511 62.6251 13.8729C63.1018 14.0878 63.5484 14.3151 63.9532 14.548C64.3469 14.774 64.678 15.0326 64.936 15.3146C65.1805 15.5818 65.2985 15.9031 65.2985 16.2981C65.2985 17.4056 64.6608 17.9443 63.3499 17.9443C62.8536 17.9443 62.3456 17.8964 61.8394 17.8012C61.3351 17.7072 60.8426 17.5585 60.3706 17.3577L60.206 17.2871L60.1408 17.4548C60.0549 17.6765 59.9732 17.9339 59.8995 18.2201C59.8246 18.5039 59.7687 18.7871 59.7318 19.0593L59.7134 19.1919L59.8362 19.2429C60.3442 19.4542 60.9069 19.6053 61.512 19.6913C62.1103 19.7773 62.6742 19.8203 63.1865 19.8203C64.4931 19.8203 65.5392 19.4874 66.293 18.8319C67.0547 18.1697 67.4417 17.2618 67.4417 16.1352C67.4417 15.4853 67.2942 14.9269 67.0055 14.476C66.7224 14.0344 66.3606 13.6485 65.9378 13.3378ZM75.3897 18.276C75.3222 18.0057 75.2509 17.7508 75.1778 17.5204L75.1115 17.3079L74.9228 17.4234C74.6618 17.5831 74.3498 17.7041 73.9953 17.7846C73.634 17.8663 73.2808 17.9074 72.9448 17.9074C72.5296 17.9074 72.166 17.8583 71.8637 17.7612C71.5828 17.674 71.3365 17.5006 71.1597 17.2655C70.9699 17.0198 70.8256 16.682 70.7285 16.26C70.6296 15.8262 70.5792 15.2636 70.5792 14.5878C70.5792 13.9871 70.6315 13.4822 70.7359 13.0859C70.8384 12.6989 70.9828 12.3868 71.1659 12.1583C71.3405 11.9391 71.5722 11.772 71.8354 11.6755C72.1332 11.5705 72.4472 11.5186 72.763 11.5226C73.0904 11.5226 73.4283 11.5527 73.768 11.611C74.0974 11.6673 74.4193 11.7611 74.7275 11.8906L74.8976 11.963L74.9591 11.7885C75.0451 11.5398 75.12 11.2695 75.1821 10.9851C75.2435 10.7013 75.2877 10.4322 75.3123 10.1834L75.3252 10.0526L75.203 10.0034C74.8528 9.86644 74.437 9.76452 73.9652 9.70245C73.499 9.64106 73.0647 9.61031 72.6728 9.61031C72.1095 9.61031 71.5701 9.70856 71.0682 9.90392C70.5512 10.1081 70.0901 10.4324 69.723 10.8499C69.3397 11.2787 69.0351 11.8327 68.8169 12.4949C68.6007 13.1522 68.4908 13.9545 68.4908 14.8783C68.4908 16.505 68.866 17.7477 69.6056 18.5714C70.3495 19.4001 71.4608 19.8203 72.9087 19.8203C73.0948 19.8203 73.3024 19.808 73.5267 19.7834C73.7478 19.7588 73.9751 19.7238 74.2024 19.6808C74.434 19.6372 74.6594 19.5763 74.8707 19.5015C75.0845 19.4259 75.2761 19.3417 75.4395 19.2539L75.5409 19.1986L75.5298 19.0844C75.503 18.8119 75.4562 18.5417 75.3897 18.276ZM83.7765 10.3144C83.5196 10.0642 83.207 9.87845 82.8643 9.77254C82.5008 9.6613 82.1222 9.60643 81.742 9.60974C81.2039 9.60974 80.6983 9.69577 80.2401 9.86649C79.8451 10.0133 79.439 10.2479 79.0312 10.5668V5.75208H78.8579C78.614 5.75208 78.3314 5.76435 78.0188 5.78893C77.7055 5.81352 77.4353 5.84484 77.2153 5.88107L77.0703 5.90566V19.6385H79.0312V12.0994C79.3471 11.8993 79.6852 11.7363 80.0385 11.6135C80.4185 11.4888 80.8163 11.4274 81.2162 11.4317C81.764 11.4317 82.1376 11.5453 82.3255 11.7695C82.5221 12.0041 82.6204 12.3335 82.6204 12.7499V19.6384H84.6002V12.659C84.6002 12.1184 84.5258 11.6515 84.3791 11.2682C84.2323 10.8818 84.0289 10.5612 83.7771 10.3143L83.7765 10.3144ZM88.3062 13.7046C88.3468 12.8347 88.5261 12.2026 88.8406 11.8249C89.1711 11.4256 89.6146 11.2315 90.1945 11.2315C90.7658 11.2315 91.1872 11.3863 91.4826 11.7032C91.7769 12.0208 91.9255 12.5565 91.9255 13.2961V13.5866C91.9255 13.6296 91.9243 13.6683 91.9237 13.7039H88.3062V13.7046ZM90.2307 9.60974C89.6539 9.60974 89.1127 9.71544 88.6213 9.92426C88.1201 10.139 87.6777 10.4708 87.3313 10.8917C86.9744 11.3199 86.6888 11.869 86.483 12.5257C86.2791 13.1757 86.1758 13.9557 86.1758 14.8422C86.1758 16.5069 86.5609 17.7649 87.319 18.5819C88.0814 19.4044 89.2134 19.8209 90.684 19.8209C90.9168 19.8209 91.1693 19.808 91.4353 19.7834C91.9607 19.7339 92.4786 19.6243 92.979 19.4567C93.204 19.3832 93.4223 19.2909 93.6319 19.1809L93.7401 19.1237L93.7217 19.0021C93.6848 18.7545 93.6283 18.4855 93.5546 18.2011C93.4808 17.9185 93.3991 17.6606 93.3131 17.4363L93.2376 17.2428L93.0607 17.351C92.7984 17.5106 92.4457 17.6482 92.0109 17.7582C91.5893 17.8674 91.1557 17.9237 90.7202 17.9259C90.235 17.9259 89.8308 17.8682 89.5187 17.7539C89.2178 17.6446 88.9739 17.4781 88.7951 17.2619C88.6139 17.0408 88.4818 16.7563 88.4044 16.4141C88.3246 16.0659 88.2834 15.6506 88.2822 15.1807H93.8138L93.831 15.0259C93.8556 14.8048 93.8709 14.5676 93.8777 14.3195C93.8838 14.0659 93.8869 13.8447 93.8869 13.6413C93.8869 12.3789 93.5798 11.3826 92.9735 10.6805C92.3617 9.96976 91.439 9.60974 90.2307 9.60974ZM101.231 11.7253V17.4406C100.944 17.6242 100.633 17.7652 100.306 17.8596C99.9604 17.9535 99.6036 18.0003 99.2453 17.9984C98.9574 18.0034 98.671 17.9551 98.4007 17.8559C98.165 17.7636 97.9649 17.5986 97.8294 17.3847C97.6734 17.1501 97.5512 16.8245 97.4651 16.4172C97.3773 16.0007 97.3325 15.4589 97.3325 14.8066C97.3325 14.1321 97.3859 13.5633 97.4916 13.1173C97.5941 12.683 97.7447 12.3354 97.94 12.0835C98.1304 11.8378 98.3675 11.6608 98.6433 11.5571C98.932 11.4496 99.2686 11.3955 99.6446 11.3955C99.9088 11.3955 100.205 11.4281 100.526 11.4926C100.798 11.5466 101.034 11.6252 101.231 11.7253ZM102.189 5.7895C101.87 5.81414 101.596 5.84479 101.375 5.88169L101.231 5.90628V9.87203C101.011 9.80629 100.779 9.74919 100.538 9.70374C100.22 9.64261 99.896 9.61114 99.5715 9.60974C98.9258 9.60974 98.3306 9.71172 97.8047 9.91261C97.2733 10.1157 96.8009 10.448 96.43 10.8795C96.0529 11.3156 95.7574 11.8807 95.5516 12.5626C95.3482 13.2377 95.2444 14.0602 95.2444 15.0061C95.2444 15.8312 95.3261 16.5505 95.4864 17.1445C95.6492 17.7465 95.8845 18.2502 96.188 18.6434C96.478 19.0271 96.8591 19.3325 97.2968 19.5322C97.7224 19.7239 98.2071 19.8209 98.7372 19.8209C99.2507 19.8209 99.7274 19.7442 100.156 19.5918C100.518 19.464 100.879 19.254 101.231 18.9652V19.6385H103.21V5.75269H103.036C102.793 5.75269 102.507 5.76502 102.188 5.7895H102.189ZM111.566 9.7744C111.255 9.79899 110.992 9.82353 110.764 9.84812L110.608 9.86349V17.4185C110.314 17.5909 110.002 17.7303 109.677 17.8343C109.3 17.9482 108.908 18.0036 108.514 17.9984C107.964 17.9984 107.585 17.8816 107.385 17.6495C107.178 17.4099 107.073 17.0721 107.073 16.6445V9.73755H106.9C106.643 9.73755 106.359 9.74981 106.051 9.77435C105.741 9.79894 105.478 9.82348 105.249 9.84807L105.094 9.86344V16.7716C105.094 17.3368 105.171 17.8202 105.324 18.209C105.478 18.6028 105.688 18.9216 105.95 19.1575C106.209 19.3921 106.515 19.5629 106.859 19.6679C107.208 19.771 107.57 19.8223 107.934 19.8203C108.459 19.8203 108.957 19.7373 109.416 19.5745C109.81 19.4333 110.21 19.2152 110.608 18.9259V19.6385H112.587V9.73755H112.414C112.157 9.73755 111.872 9.74981 111.566 9.7744ZM115.475 5.78893C115.161 5.81352 114.891 5.84546 114.671 5.88169L114.526 5.90628V19.6385H116.487V5.75208H116.314C116.07 5.75208 115.788 5.76502 115.475 5.78893ZM120.048 13.7046C120.088 12.8347 120.268 12.2026 120.582 11.8249C120.914 11.4256 121.356 11.2315 121.936 11.2315C122.508 11.2315 122.929 11.3863 123.224 11.7032C123.519 12.0208 123.667 12.5565 123.667 13.2961V13.5866C123.667 13.6296 123.667 13.6683 123.665 13.7039H120.048L120.048 13.7046ZM121.972 9.60974C121.396 9.60974 120.854 9.71544 120.363 9.92426C119.862 10.139 119.42 10.4708 119.073 10.8917C118.716 11.3199 118.431 11.869 118.225 12.5257C118.021 13.1757 117.918 13.9557 117.918 14.8422C117.918 16.5069 118.303 17.7649 119.061 18.5819C119.823 19.4044 120.955 19.8209 122.426 19.8209C122.659 19.8209 122.911 19.808 123.177 19.7834C123.703 19.7336 124.221 19.624 124.721 19.4567C124.946 19.3833 125.164 19.291 125.374 19.1809L125.482 19.1237L125.463 19.0021C125.427 18.7545 125.371 18.4855 125.296 18.2011C125.223 17.9185 125.141 17.6606 125.055 17.4363L124.979 17.2428L124.803 17.351C124.541 17.5106 124.188 17.6482 123.753 17.7582C123.331 17.8674 122.898 17.9237 122.463 17.9259C121.977 17.9259 121.573 17.8682 121.261 17.7539C120.96 17.6446 120.716 17.4781 120.538 17.2619C120.356 17.0408 120.224 16.7563 120.146 16.4141C120.066 16.0659 120.025 15.6506 120.024 15.1807H125.556L125.573 15.0259C125.598 14.8048 125.613 14.5676 125.619 14.3195C125.626 14.0659 125.629 13.8447 125.629 13.6413C125.629 12.3789 125.321 11.3826 124.716 10.6805C124.103 9.96976 123.181 9.60974 121.972 9.60974ZM133.256 15.4141C133.032 15.0553 132.738 14.7446 132.393 14.5001C132.05 14.2591 131.677 14.0631 131.284 13.9165C130.904 13.7721 130.546 13.6265 130.223 13.4828C129.946 13.3638 129.684 13.212 129.443 13.0307C129.274 12.9055 129.177 12.7053 129.184 12.495C129.184 11.7456 129.59 11.3954 130.462 11.3954C130.838 11.3954 131.248 11.4256 131.681 11.4845C132.111 11.5441 132.494 11.6277 132.821 11.7327L132.997 11.7898L133.042 11.6092C133.103 11.3641 133.155 11.1019 133.199 10.8303C133.242 10.5588 133.27 10.302 133.283 10.0662L133.29 9.92669L133.155 9.88927C132.772 9.78533 132.38 9.71342 131.985 9.67429C131.623 9.63448 131.26 9.61295 130.897 9.60974C130.399 9.60974 129.923 9.67367 129.48 9.79832C129.032 9.92488 128.632 10.1178 128.29 10.3714C127.946 10.6275 127.665 10.9596 127.469 11.342C127.269 11.7284 127.168 12.1836 127.168 12.6953C127.168 13.2143 127.288 13.6517 127.525 13.9951C127.755 14.3287 128.047 14.6082 128.392 14.8262C128.727 15.0382 129.092 15.2181 129.476 15.3606C129.846 15.4982 130.196 15.6432 130.515 15.7925C130.825 15.9362 131.085 16.1015 131.289 16.2827C131.47 16.4443 131.558 16.6513 131.558 16.9173C131.558 17.2594 131.465 17.5161 131.275 17.7023C131.085 17.8866 130.745 17.9806 130.261 17.9806C129.807 17.9785 129.354 17.931 128.909 17.8387C128.48 17.7563 128.065 17.6145 127.675 17.4173L127.505 17.33L127.435 17.5082C127.338 17.7492 127.257 17.9962 127.191 18.2477C127.132 18.4812 127.07 18.7361 127.009 19.0076L126.981 19.1354L127.094 19.1987C127.483 19.4131 127.943 19.5715 128.461 19.6717C128.97 19.7706 129.467 19.821 129.935 19.821C130.402 19.8225 130.868 19.7656 131.321 19.6515C131.742 19.5468 132.14 19.3647 132.494 19.1146C132.836 18.8687 133.115 18.5457 133.309 18.1717C133.508 17.7908 133.609 17.3375 133.609 16.8264C133.609 16.2612 133.49 15.7864 133.256 15.4136" fill="#888C90"/>
</svg>
