<?xml version="1.0" encoding="utf-8"?>
<!-- Generator: Adobe Illustrator 20.1.0, SVG Export Plug-In . SVG Version: 6.00 Build 0)  -->
<svg version="1.1" id="Layer_1" xmlns="http://www.w3.org/2000/svg" xmlns:xlink="http://www.w3.org/1999/xlink" x="0px" y="0px"
	 width="238px" height="218px" viewBox="0 0 238 218" style="enable-background:new 0 0 238 218;" xml:space="preserve">
<style type="text/css">
	.st0{fill:#FFFFFF;}
	.st1{fill:#B7CA9D;}
	.st2{fill:#4B612C;}
	.st3{fill:#759C3E;}
</style>
<g>
	<path class="st0" d="M45.5,205.9c-0.7,0.6-1.7,1-2.8,1.2c-1.1,0.2-2.3,0.3-3.6,0.3c-1.6,0-3-0.3-4.4-0.8c-1.4-0.5-2.5-1.3-3.6-2.4
		c-1-1.1-1.8-2.5-2.4-4.2c-0.6-1.7-0.9-3.7-0.9-6c0-2.4,0.3-4.5,1-6.2c0.7-1.7,1.5-3.1,2.6-4.1c1.1-1.1,2.3-1.9,3.6-2.4
		c1.3-0.5,2.7-0.7,4.1-0.7c1.5,0,2.7,0.1,3.6,0.2c0.9,0.2,1.7,0.4,2.4,0.6l-0.7,2.7c-1.2-0.6-2.9-0.9-5.1-0.9c-1,0-2,0.2-3,0.6
		c-1,0.4-1.9,1-2.6,1.8c-0.8,0.8-1.4,1.9-1.9,3.3c-0.5,1.4-0.7,3-0.7,5c0,1.8,0.2,3.3,0.7,4.7c0.4,1.3,1.1,2.4,1.8,3.3
		s1.7,1.6,2.7,2c1,0.4,2.2,0.7,3.4,0.7c1.1,0,2.1-0.1,2.9-0.3c0.8-0.2,1.5-0.5,2.1-0.9L45.5,205.9z"/>
	<path class="st0" d="M53.1,202.4c0,0.9,0.1,1.5,0.4,1.9c0.3,0.4,0.7,0.6,1.3,0.6c0.3,0,0.7,0,1-0.1c0.4,0,0.8-0.2,1.3-0.3l0.3,2.3
		c-0.4,0.2-0.9,0.4-1.6,0.5c-0.7,0.1-1.3,0.2-1.8,0.2c-1.1,0-2-0.3-2.7-0.9c-0.7-0.6-1.1-1.7-1.1-3.2V181h3V202.4z"/>
	<path class="st0" d="M59.6,197.7c0-3.1,0.7-5.5,2.1-7.2c1.4-1.7,3.4-2.5,6-2.5c1.4,0,2.6,0.2,3.6,0.7c1,0.5,1.9,1.1,2.5,2
		c0.7,0.9,1.2,1.9,1.5,3.1c0.3,1.2,0.5,2.5,0.5,4c0,3.1-0.7,5.5-2.1,7.2c-1.4,1.7-3.4,2.5-6,2.5c-1.4,0-2.6-0.2-3.6-0.7
		c-1-0.5-1.9-1.1-2.5-2c-0.7-0.9-1.2-1.9-1.5-3.1C59.7,200.5,59.6,199.2,59.6,197.7z M62.7,197.7c0,0.9,0.1,1.8,0.3,2.7
		c0.2,0.9,0.5,1.6,0.9,2.3c0.4,0.6,0.9,1.2,1.6,1.6c0.6,0.4,1.4,0.6,2.3,0.6c3.4,0,5-2.3,5-7.1c0-1-0.1-1.9-0.3-2.7
		s-0.5-1.6-0.9-2.3c-0.4-0.6-0.9-1.2-1.6-1.5c-0.6-0.4-1.4-0.6-2.3-0.6C64.3,190.6,62.7,192.9,62.7,197.7z"/>
	<path class="st0" d="M83.1,188.4V199c0,1,0.1,1.8,0.2,2.5c0.1,0.7,0.3,1.3,0.6,1.8c0.3,0.5,0.6,0.8,1.1,1.1
		c0.5,0.2,1.1,0.4,1.8,0.4c0.7,0,1.3-0.1,1.8-0.3c0.5-0.2,1-0.5,1.4-0.9c0.4-0.4,0.8-0.8,1.1-1.3c0.3-0.5,0.6-1,0.8-1.5v-12.4h3
		v13.3c0,0.9,0,1.8,0.1,2.8c0.1,1,0.2,1.8,0.3,2.5h-2l-0.7-2.9h-0.2c-0.6,1-1.3,1.8-2.3,2.4s-2.2,1-3.7,1c-1,0-1.9-0.1-2.6-0.4
		c-0.8-0.2-1.4-0.6-1.9-1.2c-0.5-0.6-0.9-1.4-1.1-2.4s-0.4-2.3-0.4-3.8v-11.2H83.1z"/>
	<path class="st0" d="M114.6,200.6c0,1.3,0,2.4,0,3.4c0,1,0.1,2,0.3,3h-2l-0.7-2.6h-0.1c-0.5,0.9-1.2,1.6-2.1,2.1
		c-0.9,0.6-2,0.9-3.3,0.9c-2.5,0-4.3-0.8-5.5-2.3c-1.2-1.6-1.8-4-1.8-7.3c0-3.2,0.7-5.6,2.2-7.2c1.5-1.6,3.5-2.5,6.2-2.5
		c0.9,0,1.6,0,2.2,0.1c0.5,0.1,1.1,0.3,1.7,0.5V181h3V200.6z M107.2,204.8c1.3,0,2.3-0.3,3-1c0.7-0.7,1.2-1.6,1.5-3v-9.2
		c-0.4-0.3-1-0.6-1.5-0.7c-0.6-0.1-1.3-0.2-2.3-0.2c-1.7,0-3,0.6-4,1.7c-1,1.1-1.4,2.9-1.4,5.4c0,1,0.1,2,0.2,2.8
		c0.2,0.9,0.4,1.6,0.8,2.2c0.4,0.6,0.9,1.1,1.5,1.5C105.6,204.6,106.3,204.8,107.2,204.8z"/>
	<path class="st0" d="M132.4,188.4l4.3,10.8l0.9,3.6h0.1l0.7-3.6l3.3-10.7h2.8l-6.2,18.9h-1.4l-4.9-12.2l-0.7-3h-0.1l-0.7,3.1
		l-4.7,12.2h-1.4l-6.4-18.9h3.2l3.7,10.8l0.6,3.6h0l0.9-3.7l4-10.7H132.4z"/>
	<path class="st0" d="M147.3,189.8c0.9-0.6,2-1,3.3-1.3s2.5-0.4,3.9-0.4c1.3,0,2.3,0.2,3.1,0.5c0.8,0.3,1.4,0.8,1.8,1.4
		c0.4,0.6,0.7,1.2,0.8,1.8c0.1,0.7,0.2,1.3,0.2,2c0,1.5,0,2.9-0.1,4.3s-0.1,2.7-0.1,4c0,0.9,0,1.8,0.1,2.6c0.1,0.8,0.2,1.6,0.4,2.3
		h-2.2l-0.8-2.6h-0.2c-0.2,0.3-0.5,0.7-0.8,1c-0.3,0.3-0.7,0.6-1.2,0.9c-0.5,0.3-1,0.5-1.6,0.6c-0.6,0.2-1.3,0.3-2.1,0.3
		c-0.8,0-1.5-0.1-2.2-0.4c-0.7-0.2-1.3-0.6-1.8-1.1c-0.5-0.5-0.9-1-1.2-1.6s-0.4-1.4-0.4-2.2c0-1.1,0.2-2,0.7-2.7
		c0.4-0.7,1.1-1.3,1.9-1.7c0.8-0.4,1.8-0.7,2.9-0.9c1.1-0.2,2.4-0.3,3.7-0.3c0.3,0,0.7,0,1,0c0.3,0,0.7,0,1,0.1
		c0.1-0.7,0.1-1.4,0.1-2c0-1.4-0.3-2.3-0.8-2.9c-0.5-0.5-1.5-0.8-3-0.8c-0.4,0-0.9,0-1.4,0.1c-0.5,0.1-1,0.2-1.5,0.3s-1,0.3-1.4,0.4
		c-0.5,0.2-0.9,0.3-1.2,0.6L147.3,189.8z M152.5,204.7c0.7,0,1.3-0.1,1.9-0.3c0.5-0.2,1-0.4,1.4-0.7c0.4-0.3,0.7-0.6,1-0.9
		c0.3-0.3,0.5-0.7,0.6-1v-3.1c-0.3,0-0.7,0-1.1-0.1c-0.4,0-0.7,0-1.1,0c-0.8,0-1.5,0-2.2,0.1c-0.7,0.1-1.4,0.2-1.9,0.5s-1,0.6-1.3,1
		c-0.3,0.4-0.5,0.9-0.5,1.5c0,0.9,0.3,1.6,0.9,2.1C150.8,204.4,151.6,204.7,152.5,204.7z"/>
	<path class="st0" d="M163.5,188.4h2.9v-3.7l3-0.9v4.5h5v2.6h-5v10.3c0,1.3,0.2,2.2,0.5,2.7c0.3,0.5,0.9,0.8,1.6,0.8
		c0.6,0,1.2-0.1,1.6-0.2c0.4-0.1,0.9-0.3,1.5-0.5l0.7,2.3c-0.7,0.3-1.4,0.6-2.2,0.8c-0.8,0.2-1.6,0.3-2.6,0.3
		c-1.5,0-2.6-0.4-3.2-1.3c-0.6-0.9-0.9-2.3-0.9-4.3V191h-2.9V188.4z"/>
	<path class="st0" d="M190.7,205.7c-0.7,0.5-1.6,1-2.6,1.2s-2.1,0.4-3.2,0.4c-1.4,0-2.6-0.2-3.6-0.7c-1-0.5-1.8-1.1-2.4-2
		c-0.6-0.9-1.1-1.9-1.4-3.1c-0.3-1.2-0.4-2.5-0.4-4c0-3.1,0.7-5.5,2.1-7.2c1.4-1.7,3.4-2.5,6-2.5c1.2,0,2.2,0.1,3,0.3
		c0.8,0.2,1.6,0.5,2.2,0.8l-0.9,2.6c-0.6-0.3-1.2-0.6-1.9-0.8s-1.4-0.3-2.2-0.3c-3.5,0-5.3,2.4-5.3,7.1c0,0.9,0.1,1.8,0.3,2.7
		c0.2,0.9,0.5,1.6,0.9,2.3s1,1.2,1.7,1.6c0.7,0.4,1.6,0.6,2.6,0.6c0.9,0,1.7-0.1,2.4-0.4c0.7-0.3,1.3-0.6,1.7-0.9L190.7,205.7z"/>
	<path class="st0" d="M206.7,207v-10.6c0-1-0.1-1.8-0.2-2.5s-0.3-1.3-0.6-1.8c-0.3-0.5-0.7-0.8-1.2-1.1s-1.2-0.4-2-0.4
		c-1.2,0-2.2,0.4-3.1,1.1c-0.9,0.8-1.5,1.7-1.8,2.9V207h-3V181h3v9.5h0.1c0.6-0.8,1.4-1.4,2.3-1.8c0.9-0.5,2-0.7,3.4-0.7
		c1,0,1.9,0.1,2.7,0.4c0.8,0.2,1.4,0.6,1.9,1.2c0.5,0.6,0.9,1.4,1.1,2.4s0.4,2.3,0.4,3.8V207H206.7z"/>
</g>
<g>
	<polygon class="st1" points="201.4,116.1 180.5,113 180.5,116.7 126.9,132.8 111,127.9 111,124.8 104.6,126.3 104.6,126.1 
		87.2,121 87.2,117.4 79.8,118.7 79.8,118.5 67.4,114.8 67.4,113.8 52.4,116.1 126.9,142.5 	"/>
	<polygon class="st2" points="79.8,118.5 79.8,27.8 67.4,32.5 67.4,113.8 67.4,114.8 	"/>
	<polygon class="st3" points="79.8,118.5 79.8,118.7 87.2,117.4 87.2,29.5 79.8,27.8 	"/>
	<polygon class="st2" points="87.2,117.4 87.2,121 104.6,126.1 104.6,0 87.2,8.8 87.2,29.5 	"/>
	<polygon class="st3" points="104.6,126.1 104.6,126.3 111,124.8 111,94.2 162.3,90.7 164.2,90.7 164.2,23.3 104.6,0 	"/>
	<polygon class="st2" points="52.4,116.1 52.4,131.4 126.9,168.7 126.9,142.5 	"/>
	<polygon class="st3" points="126.9,142.5 126.9,168.7 201.4,131.4 201.4,116.1 	"/>
	<polygon class="st1" points="111,94.2 126.9,95.8 180.5,90.7 164.2,90.7 162.3,90.7 	"/>
	<polygon class="st2" points="126.9,95.8 111,94.2 111,124.8 111,127.9 126.9,132.8 	"/>
	<polygon class="st3" points="126.9,95.8 126.9,132.8 180.5,116.7 180.5,113 180.5,90.7 	"/>
</g>
</svg>
