<svg width="21" height="20" viewBox="0 0 21 20" fill="none" xmlns="http://www.w3.org/2000/svg">
<path fill-rule="evenodd" clip-rule="evenodd" d="M10.5001 0.5C5.11855 0.5 0.759766 4.85878 0.759766 10.2403C0.759766 14.5504 3.54792 18.1908 7.41969 19.4814C7.9067 19.5666 8.08933 19.2744 8.08933 19.0187C8.08933 18.7874 8.07716 18.0203 8.07716 17.2046C5.62991 17.6551 4.99679 16.608 4.80199 16.0601C4.69241 15.7801 4.21757 14.9156 3.80361 14.6843C3.4627 14.5017 2.97568 14.0512 3.79143 14.039C4.55848 14.0268 5.10637 14.7452 5.289 15.0374C6.16563 16.5106 7.56579 16.0966 8.12586 15.841C8.21109 15.2078 8.46677 14.7817 8.7468 14.5382C6.57959 14.2947 4.31497 13.4546 4.31497 9.72893C4.31497 8.66967 4.69241 7.79304 5.31335 7.11122C5.21595 6.86772 4.87504 5.86934 5.41075 4.53005C5.41075 4.53005 6.2265 4.27436 8.08933 5.52843C8.86856 5.30927 9.69648 5.19969 10.5244 5.19969C11.3523 5.19969 12.1803 5.30927 12.9595 5.52843C14.8223 4.26219 15.6381 4.53005 15.6381 4.53005C16.1738 5.86934 15.8329 6.86772 15.7355 7.11122C16.3564 7.79304 16.7338 8.65749 16.7338 9.72893C16.7338 13.4668 14.457 14.2947 12.2898 14.5382C12.6429 14.8426 12.9473 15.427 12.9473 16.3401C12.9473 17.6429 12.9351 18.69 12.9351 19.0187C12.9351 19.2744 13.1178 19.5788 13.6048 19.4814C17.4522 18.1908 20.2403 14.5382 20.2403 10.2403C20.2403 4.85878 15.8816 0.5 10.5001 0.5Z" fill="black"/>
</svg>
