<?xml version="1.0" encoding="utf-8"?>
<!-- Generator: Adobe Illustrator 20.1.0, SVG Export Plug-In . SVG Version: 6.00 Build 0)  -->
<svg version="1.1" id="Layer_1" xmlns="http://www.w3.org/2000/svg" xmlns:xlink="http://www.w3.org/1999/xlink" x="0px" y="0px"
	 width="238px" height="218px" viewBox="0 0 238 218" style="enable-background:new 0 0 238 218;" xml:space="preserve">
<style type="text/css">
	.st0{fill:#FFFFFF;}
</style>
<g>
	<path class="st0" d="M28.2,181.3c0.9-0.2,2-0.4,3-0.4c1.1-0.1,2.2-0.1,3.2-0.1c1.1,0,2.3,0.1,3.5,0.3c1.2,0.2,2.2,0.6,3.2,1.2
		c1,0.6,1.7,1.4,2.4,2.4c0.6,1,0.9,2.4,0.9,4c0,1.6-0.3,2.9-0.9,4c-0.6,1.1-1.3,2-2.3,2.6c-0.9,0.7-2,1.2-3.2,1.5
		c-1.2,0.3-2.5,0.4-3.7,0.4c-0.1,0-0.3,0-0.6,0c-0.3,0-0.6,0-0.9,0c-0.3,0-0.6,0-0.9-0.1s-0.5,0-0.6-0.1v9.9h-3.1V181.3z
		 M34.5,183.4c-0.6,0-1.3,0-1.9,0c-0.6,0-1.1,0.1-1.4,0.2v10.7c0.1,0,0.3,0.1,0.6,0.1c0.3,0,0.6,0,0.9,0c0.3,0,0.6,0,0.9,0
		c0.3,0,0.5,0,0.6,0c0.8,0,1.7-0.1,2.5-0.2c0.8-0.2,1.6-0.5,2.2-0.9c0.7-0.4,1.2-1,1.6-1.8c0.4-0.8,0.6-1.7,0.6-2.9
		c0-1-0.2-1.9-0.6-2.5c-0.4-0.7-0.9-1.2-1.5-1.6c-0.6-0.4-1.3-0.7-2.1-0.9C36.1,183.5,35.3,183.4,34.5,183.4z"/>
	<path class="st0" d="M56,191.3c-0.7-0.2-1.4-0.4-2.1-0.4c-1.1,0-1.9,0.3-2.5,0.9c-0.6,0.6-1,1.3-1.1,2.2v13h-3v-18.5h2.1l0.6,2.3
		h0.1c0.5-0.8,1-1.5,1.7-1.9c0.7-0.5,1.5-0.7,2.5-0.7c0.7,0,1.5,0.1,2.4,0.4L56,191.3z"/>
	<path class="st0" d="M58.9,197.7c0-3.1,0.7-5.5,2.1-7.2c1.4-1.7,3.4-2.5,6-2.5c1.4,0,2.6,0.2,3.6,0.7c1,0.5,1.9,1.1,2.5,2
		c0.7,0.9,1.2,1.9,1.5,3.1c0.3,1.2,0.5,2.5,0.5,4c0,3.1-0.7,5.5-2.1,7.2c-1.4,1.7-3.4,2.5-6,2.5c-1.4,0-2.6-0.2-3.6-0.7
		c-1-0.5-1.9-1.1-2.5-2c-0.7-0.9-1.2-1.9-1.5-3.1C59,200.5,58.9,199.2,58.9,197.7z M61.9,197.7c0,0.9,0.1,1.8,0.3,2.7
		c0.2,0.9,0.5,1.6,0.9,2.3c0.4,0.6,0.9,1.2,1.6,1.6c0.6,0.4,1.4,0.6,2.3,0.6c3.4,0,5-2.3,5-7.1c0-1-0.1-1.9-0.3-2.7
		s-0.5-1.6-0.9-2.3c-0.4-0.6-0.9-1.2-1.6-1.5c-0.6-0.4-1.4-0.6-2.3-0.6C63.6,190.6,61.9,192.9,61.9,197.7z"/>
	<path class="st0" d="M90.6,207v-10.5c0-1,0-1.8-0.1-2.6c-0.1-0.7-0.3-1.3-0.5-1.8c-0.2-0.5-0.6-0.9-1.1-1.1
		c-0.5-0.2-1.1-0.4-1.8-0.4c-1.1,0-2.1,0.3-2.8,1c-0.8,0.7-1.3,1.6-1.6,2.6V207h-3v-18.5h2.1l0.6,2.3h0.1c0.7-0.8,1.4-1.4,2.3-1.9
		c0.9-0.5,2-0.8,3.4-0.8c1.2,0,2.2,0.2,2.9,0.7c0.8,0.5,1.3,1.3,1.8,2.4c0.6-1,1.4-1.7,2.4-2.3c1-0.5,2.1-0.8,3.4-0.8
		c1,0,1.9,0.1,2.6,0.4c0.7,0.2,1.3,0.6,1.8,1.2c0.5,0.6,0.8,1.4,1,2.4c0.2,1,0.3,2.3,0.3,3.9V207h-3v-11.1c0-0.9,0-1.7-0.1-2.3
		c-0.1-0.7-0.3-1.2-0.5-1.6s-0.6-0.8-1.1-1c-0.5-0.2-1.1-0.3-1.8-0.3c-1.2,0-2.2,0.3-2.9,1c-0.7,0.7-1.2,1.7-1.5,3V207H90.6z"/>
	<path class="st0" d="M123.3,205.5c-0.7,0.6-1.7,1.1-2.8,1.4c-1.1,0.3-2.3,0.5-3.6,0.5c-1.4,0-2.6-0.2-3.7-0.7c-1-0.5-1.9-1.1-2.6-2
		c-0.7-0.9-1.2-1.9-1.5-3.1c-0.3-1.2-0.5-2.5-0.5-4c0-3.2,0.7-5.6,2.1-7.2s3.4-2.5,6-2.5c0.8,0,1.7,0.1,2.5,0.3
		c0.8,0.2,1.6,0.5,2.3,1.1s1.2,1.3,1.6,2.2c0.4,1,0.6,2.2,0.6,3.8c0,0.8-0.1,1.7-0.2,2.7h-11.9c0,1.1,0.1,2,0.3,2.9
		c0.2,0.8,0.6,1.5,1,2.1c0.5,0.6,1.1,1,1.8,1.3c0.8,0.3,1.7,0.5,2.8,0.5c0.8,0,1.7-0.1,2.5-0.4c0.8-0.3,1.5-0.6,1.9-1L123.3,205.5z
		 M117,190.6c-1.5,0-2.6,0.4-3.5,1.1c-0.9,0.8-1.4,2.1-1.6,3.9h9.2c0-1.9-0.4-3.2-1.1-3.9C119.3,191,118.3,190.6,117,190.6z"/>
	<path class="st0" d="M126.2,188.4h2.9v-3.7l3-0.9v4.5h5v2.6h-5v10.3c0,1.3,0.2,2.2,0.5,2.7c0.3,0.5,0.9,0.8,1.6,0.8
		c0.6,0,1.2-0.1,1.6-0.2s0.9-0.3,1.5-0.5l0.7,2.3c-0.7,0.3-1.4,0.6-2.2,0.8c-0.8,0.2-1.6,0.3-2.6,0.3c-1.5,0-2.6-0.4-3.2-1.3
		c-0.6-0.9-0.9-2.3-0.9-4.3V191h-2.9V188.4z"/>
	<path class="st0" d="M153.1,207v-10.6c0-1-0.1-1.8-0.2-2.5s-0.3-1.3-0.6-1.8s-0.7-0.8-1.2-1.1c-0.5-0.2-1.2-0.4-2-0.4
		c-1.2,0-2.2,0.4-3.1,1.1c-0.9,0.8-1.5,1.7-1.8,2.9V207h-3V181h3v9.5h0.1c0.6-0.8,1.4-1.4,2.3-1.8c0.9-0.5,2-0.7,3.4-0.7
		c1,0,1.9,0.1,2.7,0.4c0.8,0.2,1.4,0.6,1.9,1.2c0.5,0.6,0.9,1.4,1.1,2.4s0.4,2.3,0.4,3.8V207H153.1z"/>
	<path class="st0" d="M175,205.5c-0.7,0.6-1.7,1.1-2.8,1.4s-2.3,0.5-3.6,0.5c-1.4,0-2.6-0.2-3.7-0.7c-1-0.5-1.9-1.1-2.6-2
		c-0.7-0.9-1.2-1.9-1.5-3.1c-0.3-1.2-0.5-2.5-0.5-4c0-3.2,0.7-5.6,2.1-7.2s3.4-2.5,6-2.5c0.8,0,1.7,0.1,2.5,0.3
		c0.8,0.2,1.6,0.5,2.3,1.1s1.2,1.3,1.6,2.2c0.4,1,0.6,2.2,0.6,3.8c0,0.8-0.1,1.7-0.2,2.7h-11.9c0,1.1,0.1,2,0.3,2.9
		c0.2,0.8,0.6,1.5,1,2.1s1.1,1,1.8,1.3c0.8,0.3,1.7,0.5,2.8,0.5c0.8,0,1.7-0.1,2.5-0.4c0.8-0.3,1.5-0.6,1.9-1L175,205.5z
		 M168.6,190.6c-1.5,0-2.6,0.4-3.5,1.1c-0.9,0.8-1.4,2.1-1.6,3.9h9.2c0-1.9-0.4-3.2-1.1-3.9C170.9,191,169.9,190.6,168.6,190.6z"/>
	<path class="st0" d="M182.9,188.4V199c0,1,0.1,1.8,0.2,2.5c0.1,0.7,0.3,1.3,0.6,1.8c0.3,0.5,0.6,0.8,1.1,1.1
		c0.5,0.2,1.1,0.4,1.8,0.4c0.7,0,1.3-0.1,1.8-0.3c0.5-0.2,1-0.5,1.4-0.9c0.4-0.4,0.8-0.8,1.1-1.3s0.6-1,0.8-1.5v-12.4h3v13.3
		c0,0.9,0,1.8,0.1,2.8c0.1,1,0.2,1.8,0.3,2.5h-2l-0.7-2.9H192c-0.6,1-1.3,1.8-2.3,2.4s-2.2,1-3.7,1c-1,0-1.9-0.1-2.6-0.4
		c-0.8-0.2-1.4-0.6-1.9-1.2c-0.5-0.6-0.9-1.4-1.1-2.4c-0.3-1-0.4-2.3-0.4-3.8v-11.2H182.9z"/>
	<path class="st0" d="M208.4,201.9c0-0.7-0.2-1.3-0.7-1.7s-1-0.8-1.6-1.1c-0.7-0.3-1.4-0.6-2.1-0.8c-0.8-0.3-1.5-0.6-2.1-1
		c-0.7-0.4-1.2-0.9-1.6-1.6c-0.4-0.6-0.7-1.5-0.7-2.6c0-1.8,0.5-3.1,1.5-3.9c1-0.8,2.4-1.2,4.2-1.2c1.3,0,2.5,0.1,3.4,0.4
		c0.9,0.2,1.7,0.5,2.4,0.8l-0.7,2.4c-0.6-0.3-1.3-0.5-2.1-0.7s-1.7-0.3-2.6-0.3c-1.1,0-1.9,0.2-2.4,0.6c-0.5,0.4-0.8,1-0.8,1.9
		c0,0.6,0.2,1.1,0.7,1.5c0.4,0.4,1,0.7,1.6,1c0.7,0.3,1.4,0.6,2.1,0.8c0.8,0.3,1.5,0.6,2.1,1.1c0.7,0.4,1.2,1,1.6,1.7
		c0.4,0.7,0.7,1.6,0.7,2.7c0,0.8-0.1,1.5-0.4,2.2c-0.3,0.7-0.7,1.3-1.2,1.8c-0.5,0.5-1.2,0.9-2,1.2c-0.8,0.3-1.7,0.4-2.8,0.4
		c-1.4,0-2.6-0.1-3.6-0.4s-1.8-0.6-2.5-1l0.9-2.5c0.6,0.3,1.3,0.6,2.2,0.9c0.9,0.3,1.8,0.4,2.8,0.4c1.1,0,1.9-0.2,2.6-0.6
		S208.4,203,208.4,201.9z"/>
</g>
<g>
	<path class="st0" d="M118.5,0.2c-44.4,0-80.4,36-80.4,80.4s36,80.4,80.4,80.4s80.4-36,80.4-80.4S162.9,0.2,118.5,0.2z M118.6,149.9
		c-13.3,0-24.1-8.6-24.1-19.3h48.2C142.7,141.3,131.9,149.9,118.6,149.9z M156,124.5H81.1v-13.7H156V124.5z M155.7,103.5H81
		C72,93,70,84,70,84l22.4,4.4c-3-3.9-7-11.2-6.5-21.9c0,0-1.1-4.8,4.7-17.1c5.9-12.3,2.8-22.6,2.8-22.6s8,0.1,10,22.5
		c0,0,6.8-7.4,6.4-21.8c-0.5-14.4,8.8-19.3,8.8-19.3s-3.7,8.7,1.5,17.5c5.1,8.5,5.2,17.1,5.8,26.9c0.1,1,0.4,2.5,0.9,3.4
		c0.4,0.6,1,1.2,1.8,1.3c0,0-4.5-26.6,9.1-35.4c0,0-2.4,12.4,1.9,19.4c4.3,7,11.6,17.7,9,32.5c-1.5,8.3-4.3,11.7-7,15.5L168,84
		C164.7,95.6,155.7,103.5,155.7,103.5z"/>
</g>
</svg>
