<svg id="combined_logo" xmlns="http://www.w3.org/2000/svg" width="254.5" height="50" viewBox="33.7 376 254.5 50"><style>.st0{fill:#9da2a4}</style><path id="a_1_" class="st0" d="M282.4 413.5c-.1.5.2.7.4.7h1.3c.5 0 .6-.5.6-.7l3.6-20.5c-2.6-1-5.6-1.5-7.6-1.5-6 0-8.4 2.4-9.4 8.2l-1.7 9.5c-.1.6-.1 1.1-.1 1.6 0 2.7 1.5 3.7 4.4 3.7 3.2 0 6.4-1.5 8.9-3.7l-.4 2.7zm-8.4-1.1c-1.4 0-2-.4-2-1.8 0-.4 0-.8.1-1.3l1.6-9c.9-4.9 2.5-6.4 6.6-6.4 1.8 0 4 .4 5.2.7l-2.4 13.4c-2.8 2.5-6.3 4.4-9.1 4.4z"/><path id="t" class="st0" d="M268.6 393.9l.3-1.5c.1-.4-.1-.4-.3-.4h-6.2l.9-5.1c.1-.5-.3-.6-.5-.6l-1.4.2c-.4 0-.6.4-.6.6l-.9 4.9H256c-.1 0-.4 0-.5.4l-.2 1.4c0 .1 0 .4.4.4h3.8l-2.9 16.5c0 .3-.1.6-.1.9 0 2 1.4 3 3.6 3 1.7 0 4.9-.5 6.4-1.3.5-.3.4-.6.3-.8l-.3-.9c-.1-.2-.3-.2-.5-.1-1.5.6-2.4.9-5.5.9-1 0-1.5-.2-1.5-1.1 0-.2 0-.5.1-.8l2.9-16.3h6.2c.2 0 .3-.1.4-.3z"/><path id="a" class="st0" d="M246.1 413.5c-.1.5.2.7.4.7h1.3c.5 0 .6-.5.6-.7L252 393c-2.6-1-5.6-1.5-7.6-1.5-6 0-8.4 2.4-9.4 8.2l-1.7 9.5c-.1.6-.1 1.1-.1 1.6 0 2.7 1.5 3.7 4.4 3.7 3.2 0 6.4-1.5 8.9-3.7l-.4 2.7zm-8.3-1.1c-1.4 0-2-.4-2-1.8 0-.4 0-.8.1-1.3l1.6-9c.9-4.9 2.5-6.4 6.6-6.4 1.8 0 4 .4 5.2.7l-2.4 13.4c-2.9 2.5-6.3 4.4-9.1 4.4z"/><path id="d" class="st0" d="M223.7 413.5c-.1.5.2.7.4.7h1.3c.5 0 .6-.5.6-.7l5.3-30.1c.1-.5-.3-.6-.5-.6l-1.4.2c-.4 0-.6.4-.6.6l-1.5 8.8c-1.4-.4-3.9-.7-5.4-.7-5.6 0-8.4 2.2-9.4 8.2l-1.7 9.5c-.1.6-.1 1.1-.1 1.6 0 2.7 1.5 3.7 4.4 3.7 3.2 0 6.5-1.5 9-3.7l-.4 2.5zm-8.5-1.1c-1.4 0-2-.4-2-1.8 0-.4 0-.8.1-1.3l1.6-9c.9-4.9 2.5-6.4 6.6-6.4 1.8 0 3.5.3 5.3.7l-2.4 13.4c-2.8 2.5-6.4 4.4-9.2 4.4z"/><path id="x" class="st0" d="M208.9 392.1h-6.4c-.3 0-.6.2-.7.4l-4.5 6.5-2.6-6.8c-.1-.4-.5-.5-.8-.5l-5.5.8 4.8 10.5-8.8 11.1h6c.4 0 1-.2 1.3-.5l4.1-5 2.3 5c.1.3.5.5.9.5h5.8l-4.7-10.3 8.8-11.7z"/><path id="u" class="st0" d="M181.6 413.8l3.8-21.6c.1-.5-.3-.5-.5-.4l-5.3.7c-.6.1-.7.5-.8.7l-2.3 13.1c-1.6.8-4.5 2.1-5.7 2.1-.6 0-.9-.2-.9-.7 0-.2 0-.5.1-.7l2.6-14.9c.1-.5-.3-.5-.5-.4l-5.3.7c-.6.1-.7.5-.8.7l-2.5 14.4c-.1.9-.2 1.6-.2 2.5 0 2.8 1.1 4.5 4 4.5 2.5 0 5.3-.9 8.7-2.5v1.6c0 .1 0 .4.3.4h4.9c.3.2.4 0 .4-.2z"/><path id="fl" class="st0" d="M158.2 413.2l5.4-30.5c.1-.5-.2-.5-.4-.4l-6.1 1c-2.8-.8-5.9-1.1-7.7-1.1-5.7 0-7.6 2-8.5 7l-.5 2.9h-2.5c-.7 0-.7.3-.8.6l-.7 4.3c0 .2 0 .4.3.4h2.8l-3 16.9c-.4 2-.6 3.2-2.5 5.2-.4.4-.3.5 0 .7l3.4 3.1c.4.3.5.2.9-.1 3.1-3.1 4.1-5.2 4.6-8.2l3.1-17.6h4.9c.3 0 .4 0 .5-.4l1.2-4.5c.1-.3-.2-.4-.5-.4h-5.2l.6-3.2c.2-1.1.7-1.5 2.1-1.5 1.9 0 5 .4 6.7.8l-4.4 25c-.2.9-.1 1 .7 1h4.7c.5 0 .7 0 .9-1z"/><path id="n" class="st0" d="M129 391.6c-2.5 0-5.3.9-8.7 2.5v-2c0-.5-.4-.4-.6-.4l-4.1.7c-.7.1-.9.5-1 .8l-3.5 20c-.2.9-.1 1 .7 1h4.7c.5 0 .8 0 1-1l2.3-13.3c1.7-.9 4.5-2.1 5.7-2.1.6 0 .9.2.9.6 0 .2 0 .4-.1.7l-2.5 14c-.2.9-.1 1 .7 1h4.7c.5 0 .8 0 1-1l2.5-14.5c.2-1.1.2-1.8.2-2.5.2-2.8-.9-4.5-3.9-4.5z"/><path id="i" class="st0" d="M111.2 382.3l-1 5.7c-.1.7-.3.7-.8.8l-5.2.7c-.6.1-.6.1-.5-.6l1-5.5c0-.2.2-.6.8-.7l5.3-.7c.4-.1.5 0 .4.3zm-2.3 9.4l-5.3.7c-.6.1-.7.5-.8.7l-3.5 20.1c-.1.8 0 .9.7.9h4.7c.5 0 .8 0 1-1l3.7-21c.1-.4-.2-.4-.5-.4z"/><path id="cuboctahedron" class="st0" d="M82.9 406.2l-4.8-20.8c-.3-1.1-1.3-2.3-2.4-2.6l-21.8-6.7c-.3-.1-.6-.1-.9-.1-1 0-1.9.4-2.5.9l-15.6 14.5c-.8.8-1.3 2.3-1 3.4L39 417c.3 1.1 1.3 2.3 2.4 2.6l20.4 6.3c.3.1.6.1.9.1 1 0 1.9-.4 2.5-.9l16.7-15.5c.8-.8 1.3-2.3 1-3.4zm-26.7-25.1l14.9 4.6c.6.2.6.5 0 .6l-7.9 1.8c-.6.1-1.4-.1-1.8-.5l-5.5-5.9c-.5-.6-.3-.8.3-.6zm9.3 26.8c.1.6-.2 1-.8.8l-16.1-5c-.6-.2-.7-.7-.2-1.1l12.4-11.5c.5-.4.9-.3 1 .3l3.7 16.5zm-26.6-14.7L52 381c.5-.4 1.1-.4 1.6 0l6.6 7.1c.4.5.4 1.1 0 1.6L47 402c-.5.4-1.1.4-1.6 0l-6.5-7.1c-.5-.5-.4-1.3 0-1.7zm3.2 19.4l-3.5-15.2c-.1-.6.1-.7.5-.3l5.5 5.9c.4.5.6 1.3.4 1.9l-2.4 7.7c-.1.6-.4.6-.5 0zm19.2 8.9l-17.1-5.3c-.6-.2-.9-.8-.7-1.4l2.9-9.2c.2-.6.8-.9 1.4-.7l17 5.3c.6.2.9.8.7 1.4l-2.9 9.2c-.1.5-.7.8-1.3.7zM76.4 409L65 419.6c-.5.4-.7.3-.5-.3l2.4-7.7c.2-.6.8-1.2 1.4-1.3l7.9-1.8c.6-.1.7.1.2.5zm1.3-2.2l-9.4 2.1c-.6.1-1.2-.2-1.3-.8l-4-17.4c-.1-.6.2-1.2.8-1.3l9.4-2.1c.6-.1 1.2.2 1.3.8l4 17.4c.2.5-.2 1.1-.8 1.3z"/></svg>