<svg id="svg2328" xmlns="http://www.w3.org/2000/svg" width="293"  viewBox="0 0 293 194"><style>.st0{fill:#9fa4a6}.st1{font-family:&apos;ArialMT&apos;}.st2{font-size:13.8854px}</style><path id="path6" class="st0" d="M291.3 55.1C277.5-12.1 147.5-16.4 63.7 34.8v5.7C147.4-2.7 266.1-2.5 277 59.4c3.6 20.5-7.8 41.8-28.4 54.1v16.1c24.7-9.1 50-38.5 42.7-74.5M138.9 172.7c-57.8 5.4-118.1-3.1-126.5-48.4-4.2-22.3 6-46 19.5-60.8v-7.9C7.6 77-5.6 104 2.1 135.8c9.7 40.9 61.4 64.1 140.3 56.4 31.3-3 72.2-13.1 100.5-28.8v-22.3c-25.8 15.5-68.4 28.3-104 31.6z"/><path id="path8" class="st0" d="M238.3 45.3h-15.2v67.8c0 8 3.8 14.9 15.2 16"/><path id="path10" class="st0" d="M57.7 70.1H42.6v44.3c0 8 3.8 14.9 15.2 16"/><path id="rect12" class="st0" d="M42.6 47.4h15.2v14.4H42.6z"/><path id="path14" class="st0" d="M148.6 129.7c-12.3 0-17.5-8.6-17.5-17V53.8h15v16.3h11.4v12.2h-11.4v29.4c0 3.5 1.7 5.4 5.2 5.4h6.1v12.6h-8.8"/><path id="path16" class="st0" d="M188.4 81.6c-5.1 0-9.1 2.7-10.7 6.3-1 2.2-1.3 3.8-1.5 6.5h23.2c-.3-6.6-3.3-12.8-11-12.8m-12.2 23c0 7.7 4.8 13.4 13.3 13.4 6.7 0 10-1.9 13.8-5.7l9.3 8.9c-6 5.9-12.2 9.5-23.2 9.5-14.4 0-28.2-7.9-28.2-30.9 0-19.6 12-30.7 27.8-30.7 16 0 25.2 13 25.2 30.1v5.4h-38"/><path id="path18" class="st0" d="M98.6 82.3c4.4 0 6.2 2.2 6.2 5.7v41.7h15V88c0-8.5-4.5-17.9-17.7-17.9h-31v59.7h15V82.3"/><text transform="matrix(1.0217 0 0 1 246.898 55.261)" class="st0 st1 st2">®</text></svg>