<svg width="55" height="37" viewBox="0 0 55 37" fill="none" xmlns="http://www.w3.org/2000/svg">
<g style="mix-blend-mode:multiply">
<path d="M54.5415 10.2387C51.9739 -2.26426 27.7867 -3.06429 12.1953 6.46175V7.52226C27.7681 -0.515334 49.8529 -0.478123 51.8809 11.0387C52.5507 14.8529 50.4297 18.8158 46.5969 21.1043V24.0998C51.1925 22.4067 55.8997 16.9367 54.5415 10.2387ZM26.1866 32.1188C15.4326 33.1235 4.21347 31.542 2.65061 23.1137C1.86917 18.9647 3.76694 14.5552 6.27869 11.8015V10.3317C1.75754 14.3133 -0.698391 19.3368 0.734236 25.2534C2.53897 32.863 12.158 37.1795 26.8378 35.7469C32.6614 35.1887 40.271 33.3096 45.5364 30.3885V26.2394C40.7362 29.1233 32.8102 31.5048 26.1866 32.1188Z" fill="#7F8184"/>
<path d="M44.6798 8.41504H41.8518V21.0296C41.8518 22.518 42.5588 23.8018 44.6798 24.0065" fill="#7F8184"/>
<path d="M11.0787 13.0293H8.26929V21.2716C8.26929 22.76 8.9763 24.0438 11.0973 24.2484" fill="#7F8184"/>
<path d="M8.26929 8.80566H11.0973V11.4849H8.26929V8.80566Z" fill="#7F8184"/>
<path d="M27.9918 24.1187C25.7033 24.1187 24.7358 22.5186 24.7358 20.9557V9.99707H27.5267V13.0298H29.6477V15.2997H27.5267V20.7697C27.5267 21.4209 27.843 21.7744 28.4942 21.7744H29.6291V24.1187H27.9918Z" fill="#7F8184"/>
<path d="M35.3962 15.1694C34.4473 15.1694 33.7031 15.6718 33.4054 16.3416C33.2193 16.7509 33.1635 17.0486 33.1263 17.551H37.4428C37.387 16.323 36.8288 15.1694 35.3962 15.1694ZM33.1263 19.4487C33.1263 20.8813 34.0193 21.9419 35.6008 21.9419C36.8474 21.9419 37.4614 21.5884 38.1684 20.8813L39.8987 22.5372C38.7824 23.635 37.6288 24.3048 35.5822 24.3048C32.903 24.3048 30.3354 22.8349 30.3354 18.5557C30.3354 14.909 32.5681 12.8438 35.5078 12.8438C38.4847 12.8438 40.1964 15.2625 40.1964 18.444V19.4487H33.1263Z" fill="#7F8184"/>
<path d="M18.689 15.2992C19.5077 15.2992 19.8426 15.7085 19.8426 16.3597V24.1182H22.6334V16.3597C22.6334 14.7782 21.7962 13.0293 19.3402 13.0293H13.5725V24.1368H16.3633V15.2992" fill="#7F8184"/>
</g>
</svg>
