<svg xmlns="http://www.w3.org/2000/svg" width="101.419" height="40.637" viewBox="0 0 101.419 40.637"><g transform="translate(-0.1 -0.1)"><path d="M13.214,26.308C6.061,26.308.1,29.343.1,38.5.1,45.752,4.108,50.32,13.4,50.32c10.936,0,11.637-7.2,11.637-7.2h-5.3S18.6,47,13.076,47c-4.5,0-7.736-3.04-7.736-7.3H25.59V37.021c0-4.215-2.676-10.713-12.376-10.713Zm-.185,3.417c4.284,0,7.2,2.624,7.2,6.557H5.456C5.456,32.107,9.268,29.725,13.029,29.725Z" transform="translate(0 -17.342)" fill="#e53238"/><path d="M75.214.1V28.38c0,1.605-.115,3.859-.115,3.859h5.054s.181-1.619.181-3.1c0,0,2.5,3.907,9.286,3.907,7.15,0,12.006-4.964,12.006-12.075,0-6.616-4.461-11.937-11.995-11.937-7.055,0-9.247,3.81-9.247,3.81V.1ZM88.328,12.533c4.855,0,7.942,3.6,7.942,8.439,0,5.185-3.566,8.577-7.908,8.577-5.182,0-7.977-4.046-7.977-8.531C80.385,16.839,82.894,12.533,88.328,12.533Z" transform="translate(-49.628 0)" fill="#0064d2"/><path d="M164.993,26.308c-10.762,0-11.452,5.893-11.452,6.834H158.9s.281-3.44,5.726-3.44c3.538,0,6.28,1.62,6.28,4.733v1.108h-6.28c-8.337,0-12.745,2.439-12.745,7.388,0,4.871,4.072,7.521,9.576,7.521,7.5,0,9.916-4.144,9.916-4.144,0,1.648.127,3.273.127,3.273h4.762s-.185-2.014-.185-3.3V35.145c0-7.3-5.889-8.837-11.083-8.837Zm5.911,12.56v1.478c0,1.927-1.189,6.719-8.191,6.719-3.834,0-5.478-1.913-5.478-4.133,0-4.037,5.536-4.064,13.668-4.064Z" transform="translate(-100.434 -17.342)" fill="#f5af02"/><path d="M214.879,29.041H220.9l8.648,17.327,8.629-17.327h5.459L227.924,59.887H222.2l4.535-8.6Z" transform="translate(-142.122 -19.151)" fill="#86b817"/></g></svg>