<svg width="79" height="26" viewBox="0 0 79 26" fill="none" xmlns="http://www.w3.org/2000/svg">
<path d="M73.9533 21.197C71.7713 23.4845 68.8614 24.7382 65.7861 24.7382H12.2412C9.16242 24.7382 6.25429 23.4845 4.06518 21.197C1.88842 18.913 0.6875 15.8747 0.6875 12.6377C0.6875 5.97027 5.87266 0.54248 12.2412 0.54248H65.7861C68.8614 0.54248 71.7713 1.79788 73.9533 4.08892C76.1301 6.36765 77.3292 9.41299 77.3292 12.6377C77.3292 15.8747 76.1301 18.913 73.9533 21.197Z" fill="#F4F4F6"/>
<path d="M73.4082 20.7319C71.2578 22.8752 68.3971 24.0603 65.3711 24.0603H12.6966C9.65829 24.0603 6.80629 22.8752 4.65774 20.7319C2.51074 18.5797 1.32567 15.7277 1.32567 12.6894C1.32567 6.41594 6.42645 1.32567 12.6965 1.32567H65.371C68.397 1.32567 71.2578 2.50023 73.4082 4.64708C75.5497 6.79921 76.7436 9.65112 76.7436 12.6894C76.7436 15.7277 75.5497 18.5797 73.4082 20.7318L73.4082 20.7319ZM74.3471 3.71166C71.9506 1.31516 68.7645 0 65.371 0H12.6966C5.69852 0 0 5.68272 0 12.6894C0 16.0759 1.32044 19.2689 3.72577 21.6602C6.12063 24.0603 9.30482 25.3842 12.6966 25.3842H65.3711C68.7646 25.3842 71.9506 24.0603 74.3471 21.6602C76.7455 19.2689 78.0606 16.0759 78.0606 12.6894C78.0606 9.29246 76.7454 6.10996 74.3471 3.71166" fill="#E22622"/>
<path d="M65.3699 2.45532H12.6936C7.04772 2.45532 2.47266 7.03571 2.47266 12.6867C2.47266 18.3344 7.04772 22.9182 12.6936 22.9182H65.3699C71.0175 22.9182 75.5908 18.3344 75.5908 12.6867C75.5908 7.03566 71.0175 2.45537 65.3699 2.45537" fill="#E22622"/>
<path d="M10.6289 7.01099H16.4242L16.2712 12.2261H19.8001L19.5803 7.08131H25.2245L24.7022 18.6192H19.9514L19.8004 14.5962H16.2064L16.1376 18.5506H11.2197L10.6289 7.01099ZM32.5865 7.15373H47.0272L46.8762 10.3344H38.2378V12.3002H44.4357L44.36 14.5965L38.1585 14.5916V16.5573H46.5842L46.5069 18.6954H33.1123L32.5865 7.15373ZM27.0416 12.3802H30.5968V14.5236H27.1119L27.0416 12.3802ZM48.73 14.5965H52.1411V12.3794H48.73V14.5965ZM54.6874 18.7705L54.1669 7.15358H65.0665C67.1958 7.15358 68.8169 8.42129 68.8169 10.4715C68.8169 12.7326 67.0165 13.5027 66.3782 13.5467L66.3882 13.6379C67.4554 13.8736 68.1095 14.4274 68.1095 15.8393C68.1095 18.6191 65.4756 18.7809 64.0725 18.7809L54.6868 18.7709" fill="#F4F4F6"/>
<path d="M59.8711 16.6728V14.5488H61.8491C62.4434 14.5488 63.0307 14.8882 63.0307 15.5861C63.0307 16.2613 62.2817 16.6728 61.4747 16.6728H59.8711V16.6728ZM59.9114 12.5784V10.1362H61.8824C62.6736 10.1362 63.4579 10.5848 63.4579 11.3969C63.4579 12.0738 62.5383 12.5978 61.7224 12.5784C61.0367 12.5635 59.9114 12.5784 59.9114 12.5784Z" fill="#E22622"/>
</svg>
