<svg width="65" height="46" viewBox="0 0 65 46" fill="none" xmlns="http://www.w3.org/2000/svg">
<path d="M36.2978 18.5515H42.9409H36.2978ZM28.3894 18.5515H35.0325H28.3894ZM20.6392 18.5515H27.2822H20.6392ZM12.8889 18.5515H19.3738H12.8889ZM4.98047 18.5515H11.6235H4.98047ZM12.8889 11.2758H19.3738H12.8889ZM20.6392 11.2758H27.2822H20.6392ZM28.3894 11.2758H35.0325H28.3894ZM28.3894 4H35.0325H28.3894Z" fill="black"/>
<path d="M36.2978 18.5515H42.9409M28.3894 18.5515H35.0325M20.6392 18.5515H27.2822M12.8889 18.5515H19.3738M4.98047 18.5515H11.6235M12.8889 11.2758H19.3738M20.6392 11.2758H27.2822M28.3894 11.2758H35.0325M28.3894 4H35.0325" stroke="#066DA5" stroke-width="6.01041"/>
<path d="M64.1328 18.8672C64.1328 18.8672 61.2858 16.1783 55.4335 17.1273C54.8009 12.5404 49.8976 9.85156 49.8976 9.85156C49.8976 9.85156 45.3108 15.3875 48.6323 21.556C47.6833 22.0305 46.1016 22.6632 43.7291 22.6632H0.232703C-0.55814 25.6684 -0.558139 45.5977 21.2691 45.5977C36.9278 45.5977 48.6323 38.3219 54.1682 25.0357C62.393 25.6684 64.1328 18.8672 64.1328 18.8672Z" fill="#066DA5"/>
</svg>
