<svg width="306" height="35" viewBox="0 0 306 35" fill="none" xmlns="http://www.w3.org/2000/svg">
<path d="M28.3356 7.15295H19.0566V26.7345H24.6978V19.7972H29.52C35.0856 19.7972 38.4048 17.0211 38.4048 13.3848C38.4048 9.34506 35.4762 7.15295 28.3356 7.15295ZM32.7708 13.3037C32.7708 14.5987 32.0706 16.5053 28.7298 16.5053H24.6978V10.4116H28.7298C32.0706 10.4116 32.7708 12.0327 32.7708 13.3037Z" fill="white"/>
<path d="M201.708 11.2645C199.579 11.2645 197.653 12.0622 196.501 13.149H196.427V7.15295H191.702V26.7345H196.427V16.3561C197.516 15.0464 199.04 14.5822 200.293 14.5822C203.675 14.5822 203.729 16.7945 203.729 19.6958V26.7327H208.458V18.1116C208.458 14.7664 207.581 11.2645 201.708 11.2645Z" fill="white"/>
<path d="M158.155 11.2644C156.022 11.2644 153.965 12.0584 152.827 13.1489H152.757V11.5812H148.101V26.7344H152.827V16.356C153.915 15.0462 155.441 14.582 156.699 14.582C160.072 14.582 160.128 16.7944 160.128 19.6957V26.7326H164.86V18.1115C164.86 14.7626 164.025 11.2644 158.155 11.2644Z" fill="white"/>
<path d="M188.194 22.984C186.864 23.323 184.826 23.8037 182.052 23.8037C177.097 23.8037 174.125 21.0553 174.125 17.0285C174.125 13.0587 177.185 10.2569 181.561 10.0745C183.625 9.99533 185.438 10.3306 186.77 10.6806L188.809 7.68901C186.568 7.08664 183.813 6.86743 181.23 6.86743C173.13 6.86743 168.293 11.0361 168.293 17.0303C168.293 23.9732 174.766 26.939 181.271 27.1122C183.242 27.1601 185.933 26.8837 188.194 26.3643V22.984Z" fill="white"/>
<path d="M55.7552 21.0866L50.8718 7.15295H41.8826V26.7345H47.3204V11.2295H47.6408L53.2046 26.7345H58.304L63.8606 11.2295H64.19V26.7345H69.644V7.15295H60.6872L55.7552 21.0866Z" fill="white"/>
<path d="M92.0467 19.1413C92.0467 13.7495 87.8239 11.0674 82.3969 11.0674C76.9771 11.0674 72.7471 13.7495 72.7471 19.1413C72.7471 24.5129 76.9771 27.2134 82.3969 27.2134C87.8239 27.2134 92.0467 24.5129 92.0467 19.1413ZM87.0067 19.1413C87.0067 22.1016 85.5145 24.1187 82.3969 24.1187C79.2919 24.1187 77.7817 22.1016 77.7817 19.1413C77.7817 16.1792 79.2919 14.1474 82.3969 14.1474C85.5145 14.1474 87.0067 16.1774 87.0067 19.1413Z" fill="white"/>
<path d="M116.193 23.6895C113.45 23.6895 112.131 21.4385 112.131 19.1285C112.131 16.8203 113.204 14.3703 116.361 14.3703C119.144 14.3703 120.4 16.4666 120.4 19.0456C120.4 21.2395 119.277 23.6895 116.193 23.6895ZM120.594 11.574V13.0274H120.521C119.498 11.9922 117.893 11.2627 115.086 11.2627C109.593 11.2627 107.202 15.3522 107.202 19.0585C107.202 23.4243 109.659 26.7106 114.755 26.8893C117.354 27.0053 119.367 25.8374 120.31 24.9219H120.375C120.375 24.9219 120.375 25.2351 120.375 25.5593C120.375 27.8969 119.486 30.1701 114.849 30.1701C112.993 30.1701 110.921 29.8495 108.956 28.8787V32.3935C110.891 33.0548 113.043 33.2961 115.549 33.2961C123.244 33.2961 125.057 29.0243 125.057 24.9459V11.574H120.594Z" fill="white"/>
<path d="M139.732 22.6543C138.227 23.8259 136.69 24.1685 135.333 24.2256C133.713 24.2772 132.593 23.7503 132.593 22.179C132.593 20.3259 135.218 20.0127 138.103 20.0127H139.732V22.6543ZM144.311 17.1998C144.311 13.3019 141.943 11.2627 136.559 11.2627C134.798 11.2627 132.262 11.4635 130.046 12.0695V15.1016C131.774 14.4643 133.839 14.1456 135.511 14.1456C137.902 14.1456 139.732 14.4587 139.732 17.4982H137.412C135.434 17.4982 132.716 17.6935 131.238 18.1964C129.521 18.7822 127.886 20.0348 127.886 22.2453C127.886 25.808 130.93 27.0882 134.348 27.0882C136.877 27.0882 138.647 26.5116 139.943 25.2093H140.011V26.7309H144.311V17.1998Z" fill="white"/>
<path d="M223.13 22.6543C221.621 23.8259 220.084 24.1685 218.714 24.2256C217.105 24.2772 215.977 23.7503 215.977 22.179C215.977 20.3259 218.605 20.0127 221.495 20.0127H223.13V22.6543ZM227.709 17.1998C227.709 13.3019 225.342 11.2627 219.94 11.2627C218.192 11.2627 215.662 11.4635 213.433 12.0695V15.1016C215.168 14.4643 217.233 14.1456 218.903 14.1456C221.305 14.1456 223.13 14.4587 223.13 17.4982H220.819C218.833 17.4982 216.117 17.6935 214.623 18.1964C212.92 18.7822 211.284 20.0348 211.284 22.2453C211.284 25.808 214.321 27.0882 217.739 27.0882C220.273 27.0882 222.052 26.5116 223.33 25.2093H223.403V26.7309H227.709V17.1998Z" fill="white"/>
<path d="M8.71194 7.15295V19.0603C8.71194 21.7498 7.50414 23.3985 4.81494 23.4408C3.95094 23.4593 2.11494 23.4003 0.512939 23.0393V26.7622C2.13114 27.0182 4.10034 27.0901 5.70414 27.0901C11.0591 27.0901 14.3477 24.1887 14.3477 19.7069V7.15295H8.71194Z" fill="white"/>
<path d="M261.607 23.2916C259.812 23.8093 258.568 24.0414 256.673 24.0414C253.611 24.0414 251.519 22.8716 251.273 20.4309H263.358C263.425 19.7843 263.416 18.8337 263.349 18.0914C263.002 14.2506 260.698 11.2627 255.118 11.2627C249.395 11.2627 246.839 15.1551 246.839 19.2961C246.839 24.8887 250.891 27.0882 256.279 27.0882C258.511 27.0882 260.064 26.7714 261.607 26.3587V23.2916ZM255.388 14.1272C257.636 14.1272 258.718 15.4461 259.061 17.0045C259.114 17.2532 259.142 17.5203 259.132 17.7469H251.273C251.465 15.8237 252.801 14.1272 255.388 14.1272Z" fill="white"/>
<path d="M238.273 11.2644C234.653 11.2644 231.008 12.4397 231.008 15.9231C231.008 18.8926 233.444 19.8099 236.178 20.5615C239.089 21.3591 240.113 21.5691 240.17 22.5989C240.226 23.6894 239.177 24.231 236.621 24.231C234.99 24.231 232.702 23.8055 231.217 23.1441V26.3494C233.66 26.9941 235.521 27.0899 237.224 27.0899C241.31 27.0899 244.969 25.9055 244.969 22.2912C244.969 19.3255 242.888 18.1944 239.537 17.4005C237.085 16.8073 235.714 16.566 235.714 15.5178C235.714 14.4402 236.95 14.0497 239 14.0497C240.527 14.0497 242.021 14.4402 243.045 14.7755L244.798 12.2112C243.13 11.6715 240.948 11.2644 238.273 11.2644Z" fill="white"/>
<path d="M104.607 11.2644C102.596 11.2644 100.714 11.7968 99.549 13.8857H99.4752V11.5831H94.9734V26.7362H99.8676V19.331C99.8676 17.7449 100.127 16.787 100.451 16.2362C100.991 15.3189 101.651 14.816 102.94 14.6189C103.588 14.5286 104.535 14.6078 105.203 14.9984L107.392 11.7968C106.481 11.4394 105.714 11.2644 104.607 11.2644Z" fill="white"/>
<path d="M284.166 0.863892C283.552 0.863892 283.055 1.37231 283.055 1.99863V9.95836H303.602L294.246 0.863892H284.166Z" fill="white"/>
<path d="M304.357 12.3661C304.357 11.7379 303.86 11.2313 303.246 11.2313H295.468V32.259L304.353 22.6837L304.357 12.3661Z" fill="white"/>
<path d="M293.114 33.0234C293.724 33.0234 294.221 32.5169 294.221 31.8869V23.929H273.672L283.029 33.0216L293.114 33.0234Z" fill="white"/>
<path d="M272.921 21.5213C272.921 22.1495 273.416 22.6579 274.028 22.6579H281.81V1.62842L272.921 11.2055V21.5213Z" fill="white"/>
</svg>
