<svg width="84" height="46" viewBox="0 0 84 46" fill="none" xmlns="http://www.w3.org/2000/svg">
<g clip-path="url(#clip0)">
<path d="M8.06503 24.5487C6.75092 22.7962 5.52699 21.0952 4.2773 19.3297L4.22577 19.3555C4.25153 21.2756 4.2773 23.2343 4.2773 25.1802V32.6801H0V12.4999H4.18712L10.2423 20.6441C11.5564 22.3967 12.7804 24.0977 14.0301 25.8632L14.0816 25.8374C14.0558 23.9173 14.0301 21.9586 14.0301 20.0127V12.4999H18.2945V32.693H14.1074L8.06503 24.5487Z" fill="#0F0F0F"/>
<path d="M70.3823 27.1132C72.5596 28.505 75.1234 29.1235 76.708 29.1235C78.3313 29.1235 79.5295 28.4792 79.5295 26.9715C79.5295 25.1029 77.6356 24.9354 75.0461 24.0978C72.2632 23.1828 69.751 21.8169 69.751 18.2989C69.751 14.536 72.5982 12.1907 76.8369 12.1907C78.8209 12.1907 81.243 12.6932 82.9951 13.6468V18.0283C80.8436 16.6881 78.37 16.0695 76.7982 16.0695C75.2908 16.0695 74.2086 16.6236 74.2086 17.9638C74.2086 19.755 76.0767 19.8839 78.4988 20.6958C81.5393 21.7009 83.9872 23.1184 83.9872 26.688C83.9872 30.6183 80.9982 32.9895 76.6565 32.9895C74.6467 32.9895 72.2246 32.4869 70.3823 31.5719V27.1132Z" fill="#0F0F0F"/>
<path d="M43.2366 0.0515137L40.8789 0.32213L42.2317 9.84524C42.8243 9.74215 43.4298 9.67772 44.0353 9.65194L43.2366 0.0515137Z" fill="#0F0F0F"/>
<path d="M38.4053 0.863403L36.1636 1.62371L39.5133 10.6442C40.0673 10.4123 40.647 10.2061 41.2268 10.0515L38.4053 0.863403Z" fill="#0F0F0F"/>
<path d="M33.9094 2.66748L31.8867 3.8917L37.1045 12.0102C37.5941 11.6622 38.1094 11.3401 38.6505 11.0695L33.9094 2.66748Z" fill="#0F0F0F"/>
<path d="M36.3312 12.5901L29.8766 5.41235L28.1631 7.04894L35.03 13.8401C35.4293 13.402 35.8674 12.9767 36.3312 12.5901Z" fill="#0F0F0F"/>
<path d="M26.5143 8.99475L25.2002 10.9664L33.3683 16.1081C33.6646 15.5797 34.0125 15.0772 34.3861 14.6004L26.5143 8.99475Z" fill="#0F0F0F"/>
<path d="M32.273 18.621C32.4533 18.0411 32.6852 17.4741 32.9429 16.9329L24.0533 13.1313C24.0533 13.1442 24.0404 13.1442 24.0404 13.1571L23.1772 15.3349L32.273 18.621Z" fill="#0F0F0F"/>
<path d="M45.2854 9.65198C45.4658 9.66486 45.659 9.67775 45.8523 9.70352C46.1743 9.7293 46.4964 9.78084 46.8056 9.83239L48.1584 0.25773C48.1198 0.25773 48.0811 0.244843 48.0425 0.231957L46.2259 0.025773C46.0842 0.0128865 45.9424 0.0128865 45.8136 0L45.002 9.6262L45.2854 9.65198Z" fill="#0F0F0F"/>
<path d="M52.8863 1.55925L50.6446 0.79895L47.7974 10.0386C48.39 10.1932 48.9569 10.3865 49.5109 10.6185L52.8863 1.55925Z" fill="#0F0F0F"/>
<path d="M51.9329 11.9458L57.1636 3.81443L55.1795 2.61598C55.1667 2.6031 55.1538 2.6031 55.1409 2.59021L50.374 11.018C50.9151 11.2886 51.4433 11.5979 51.9329 11.9458Z" fill="#0F0F0F"/>
<path d="M54.033 13.7757L60.887 6.98448L59.1735 5.3479L52.7061 12.5257C53.1699 12.9123 53.6208 13.3246 54.033 13.7757Z" fill="#0F0F0F"/>
<path d="M63.8503 10.8891L62.5361 8.91748L54.6772 14.5102C55.0509 14.987 55.3987 15.4896 55.7079 16.005L63.8503 10.8891Z" fill="#0F0F0F"/>
<path d="M65.873 15.2705L65.0098 13.0669L56.146 16.8426C56.4165 17.3839 56.6356 17.9509 56.8288 18.5308L65.873 15.2705Z" fill="#0F0F0F"/>
<path d="M66.9552 20.0385L66.5816 17.7061L57.1123 19.523C57.254 20.1029 57.3571 20.7086 57.4086 21.3143L66.9552 20.0385Z" fill="#0F0F0F"/>
<path d="M57.4989 22.5385C57.4989 22.7318 57.4989 22.9379 57.486 23.157C57.4731 23.3632 57.4602 23.5694 57.4345 23.7884L57.4087 24.0719L67.0068 24.8838C67.0841 24.1106 67.1228 23.3245 67.1228 22.5256C67.1228 22.5256 67.1228 22.5256 67.1228 22.5127L57.4989 22.2421V22.5385Z" fill="#0F0F0F"/>
<path d="M57.1764 25.3607C57.1378 25.5539 57.0862 25.7472 57.0347 25.9534C56.9832 26.1467 56.9188 26.3529 56.8543 26.5591L56.7642 26.8297L65.9887 29.6261C66.2335 28.8787 66.4396 28.1184 66.6071 27.3452L57.2408 25.0771L57.1764 25.3607Z" fill="#0F0F0F"/>
<path d="M63.9147 34.1105L65.0226 32.0229L56.365 27.7317C56.1202 28.2858 55.8367 28.827 55.5146 29.3296L63.9147 34.1105Z" fill="#0F0F0F"/>
<path d="M53.7754 31.5461L60.9901 37.9893C61.0288 37.9507 61.0674 37.8991 61.119 37.8605L62.4846 36.2497C62.4975 36.2239 62.5104 36.211 62.5361 36.1852L54.9736 30.1672C54.5999 30.6569 54.2005 31.1208 53.7754 31.5461Z" fill="#0F0F0F"/>
<path d="M22.443 18.0539L22.1724 19.7291C22.1596 19.8322 22.1467 19.9224 22.1338 20.0255L31.6933 21.3013L31.7191 21.0178C31.7448 20.7987 31.7706 20.5925 31.8092 20.3864C31.8479 20.1802 31.8865 19.974 31.9252 19.7807L31.9767 19.5616L22.5203 17.7446C22.4945 17.8477 22.4688 17.9508 22.443 18.0539Z" fill="#0F0F0F"/>
<path d="M31.6932 23.8143C31.6675 23.5952 31.6546 23.389 31.6417 23.1828C31.6288 22.9637 31.6288 22.7576 31.6288 22.5643V22.2808L22.0049 22.5514C22.0049 23.3503 22.0435 24.1364 22.1337 24.9096L31.7319 24.0978L31.6932 23.8143Z" fill="#0F0F0F"/>
<path d="M32.2084 26.5462C32.1439 26.34 32.0795 26.1338 32.028 25.9405C31.9765 25.7343 31.9249 25.5281 31.8863 25.3477L31.8219 25.0642L22.52 27.3065C22.6875 28.0796 22.8936 28.84 23.1384 29.5874L32.2985 26.8168L32.2084 26.5462Z" fill="#0F0F0F"/>
<path d="M33.4067 29.0719C33.2908 28.8786 33.1877 28.6982 33.0975 28.5178C32.9944 28.3245 32.9043 28.1441 32.827 27.9637L32.711 27.7059L24.0791 31.9714C24.4141 32.693 24.7748 33.3889 25.1871 34.059L33.5613 29.3039L33.4067 29.0719Z" fill="#0F0F0F"/>
<path d="M35.0814 31.3142C34.9268 31.1467 34.7979 30.9921 34.6562 30.8374C34.5145 30.6699 34.3857 30.5153 34.2697 30.3606L34.1022 30.1287L26.5654 36.1209C27.0421 36.7523 27.5446 37.358 28.0857 37.925L35.2746 31.5075L35.0814 31.3142Z" fill="#0F0F0F"/>
<path d="M38.2766 33.7883L33.9478 42.4352C33.9993 42.4609 34.0508 42.4867 34.1024 42.5125L36.0478 43.4145C36.0606 43.4145 36.0735 43.4274 36.0864 43.4274L39.9128 34.5486C39.3459 34.3424 38.8048 34.0847 38.2766 33.7883Z" fill="#0F0F0F"/>
<path d="M37.2076 33.1441C37.0272 33.0152 36.8597 32.8992 36.6922 32.7704C36.5247 32.6415 36.3572 32.5126 36.2155 32.3838L35.9965 32.2034L29.9155 39.7033C30.1345 39.8966 30.3664 40.077 30.5983 40.2574L31.1137 40.644C31.3327 40.8115 31.5646 40.9791 31.7965 41.1337L37.4395 33.2987L37.2076 33.1441Z" fill="#0F0F0F"/>
<path d="M42.309 35.2574C42.09 35.2187 41.8838 35.18 41.6906 35.1414C41.4845 35.0898 41.2783 35.0383 41.098 34.9867L40.8274 34.9094L38.4697 44.2521C39.2299 44.4583 39.99 44.6387 40.7759 44.7676L42.5924 35.296L42.309 35.2574Z" fill="#0F0F0F"/>
<path d="M45.2082 35.4121C44.9891 35.4249 44.783 35.4249 44.5769 35.4249C44.3579 35.4249 44.1517 35.4249 43.9585 35.4121H43.9327C43.8941 35.4121 43.8554 35.4121 43.8168 35.4121L43.6622 35.3992L43.3916 45.064C43.5204 45.0769 43.6493 45.0769 43.791 45.0769H45.3241C45.4658 45.0769 45.6204 45.064 45.7622 45.064L45.4787 35.3992L45.2082 35.4121Z" fill="#0F0F0F"/>
<path d="M48.1842 34.9094C47.6044 35.0769 47.0118 35.2058 46.4062 35.296L48.1842 44.8063C48.197 44.8063 48.197 44.8063 48.2099 44.8063L50.5032 44.3037L48.1842 34.9094Z" fill="#0F0F0F"/>
<path d="M50.5029 33.9688C50.5029 33.9817 50.5029 33.9817 50.5029 33.9688C50.4643 33.9946 50.4385 34.0074 50.3999 34.0203C50.2324 34.1105 50.0778 34.1878 49.9232 34.2523C49.7299 34.3425 49.5367 34.4198 49.3563 34.4971L49.0986 34.6002L52.9637 43.4532C53.144 43.3759 53.3244 43.2986 53.5048 43.2213L54.8318 42.5898C54.9219 42.5383 55.0121 42.4996 55.1023 42.4481L50.7219 33.827C50.6704 33.8915 50.5931 33.9301 50.5029 33.9688Z" fill="#0F0F0F"/>
<path d="M52.8606 32.4353C52.6932 32.577 52.5257 32.7059 52.3711 32.8348C52.2036 32.9636 52.0361 33.0925 51.8686 33.1956L51.6367 33.3631L57.2926 41.1594C57.9496 40.7084 58.568 40.2316 59.1735 39.7162L53.0668 32.2549L52.8606 32.4353Z" fill="#0F0F0F"/>
</g>
<defs>
<clipPath id="clip0">
<rect width="84" height="45.0769" fill="white"/>
</clipPath>
</defs>
</svg>
