<svg width="131" height="29" viewBox="0 0 131 29" fill="none" xmlns="http://www.w3.org/2000/svg">
<g clip-path="url(#clip0_17133_1313)">
<path d="M129.367 19.5168C128.966 19.5168 128.641 19.8519 128.641 20.2645C128.641 20.6771 128.966 21.0121 129.367 21.0121C129.768 21.0121 130.093 20.6771 130.093 20.2645C130.093 19.8519 129.768 19.5168 129.367 19.5168ZM129.367 20.8936C129.029 20.8936 128.756 20.6106 128.756 20.2645C128.756 19.9167 129.031 19.6354 129.367 19.6354C129.705 19.6354 129.979 19.9184 129.979 20.2645C129.979 20.6106 129.705 20.8936 129.367 20.8936ZM129.603 20.1364C129.603 20.0005 129.51 19.9199 129.371 19.9199H129.14V20.6012H129.253V20.3546H129.378L129.497 20.6012H129.62L129.488 20.3293C129.559 20.2961 129.603 20.2297 129.603 20.1364ZM129.367 20.2487H129.255V20.0227H129.367C129.444 20.0227 129.49 20.0622 129.49 20.1349C129.49 20.2092 129.442 20.2487 129.367 20.2487ZM41.8831 11.9504V10.1421H39.1908V20.8999H41.8831V14.4494C41.8831 13.2813 42.6107 12.7075 43.7451 12.7075H45.2187V10.1422H43.96C42.9745 10.1421 42.118 10.6716 41.8831 11.9504ZM47.7407 5.88708C46.8197 5.88708 46.1136 6.63632 46.1136 7.58469C46.1136 8.51094 46.8197 9.26017 47.7407 9.26017C48.6617 9.26017 49.3678 8.51094 49.3678 7.58469C49.3677 6.63628 48.6617 5.88708 47.7407 5.88708ZM46.3976 20.8999H49.0838V10.1421H46.3976V20.8999ZM61.8795 15.521C61.8795 18.5921 59.4619 21.0817 56.4794 21.0817C55.2759 21.0817 54.1845 20.6755 53.3096 19.9895V24.058H50.6233V10.1421H53.3096V11.0525C54.1845 10.3666 55.2759 9.96034 56.4794 9.96034C59.4619 9.96034 61.8795 12.4498 61.8795 15.521ZM59.1764 15.521C59.1764 13.8535 57.8624 12.5004 56.243 12.5004C54.6236 12.5004 53.3096 13.8535 53.3096 15.521C53.3096 17.1886 54.6236 18.5416 56.243 18.5416C57.8624 18.5416 59.1764 17.1902 59.1764 15.521ZM108.568 14.5774L107.001 14.1348C105.969 13.8582 105.568 13.5326 105.568 12.9715C105.568 12.4245 106.133 12.042 106.941 12.042C107.71 12.042 108.313 12.5605 108.313 13.2243V13.286H110.789V13.2243C110.789 11.2722 109.243 9.9603 106.941 9.9603C104.661 9.9603 103.005 11.2706 103.005 13.0773C103.005 14.4825 103.909 15.5415 105.487 15.9809L106.988 16.4029C108.129 16.7286 108.552 17.089 108.552 17.7355C108.552 18.4167 107.94 18.8751 107.028 18.8751C106.078 18.8751 105.438 18.2554 105.438 17.3355V17.2739H102.81V17.3355C102.81 19.5421 104.535 21.0848 107.007 21.0848C109.387 21.0848 111.116 19.5785 111.116 17.5047C111.116 16.4867 110.674 15.1559 108.568 14.5774ZM71.4087 10.1421H74.0949V20.8999H71.4087V19.9894C70.5338 20.6754 69.4424 21.0817 68.2389 21.0817C65.2565 21.0817 62.8389 18.5921 62.8389 15.521C62.8389 12.4498 65.2565 9.9603 68.2389 9.9603C69.4424 9.9603 70.5338 10.3665 71.4087 11.0525V10.1421ZM71.4087 15.521C71.4087 13.8519 70.0948 12.5004 68.4753 12.5004C66.8559 12.5004 65.542 13.8535 65.542 15.521C65.542 17.1886 66.8559 18.5416 68.4753 18.5416C70.0963 18.5416 71.4087 17.1902 71.4087 15.521ZM83.7946 6.31385H86.4808V20.9015H83.7946V19.991C82.9196 20.677 81.8282 21.0832 80.6248 21.0832C77.6423 21.0832 75.2247 18.5937 75.2247 15.5225C75.2247 12.4514 77.6423 9.96189 80.6248 9.96189C81.8282 9.96189 82.9196 10.3681 83.7946 11.0541V6.31385ZM83.7946 15.521C83.7946 13.8535 82.4806 12.5004 80.8611 12.5004C79.2418 12.5004 77.9278 13.8535 77.9278 15.521C77.9278 17.1886 79.2402 18.5416 80.8611 18.5416C82.4806 18.5416 83.7946 17.1902 83.7946 15.521ZM98.9526 20.8999H101.639V10.1421H98.9526V20.8999ZM100.296 5.88708C99.3747 5.88708 98.6686 6.63632 98.6686 7.58469C98.6686 8.51094 99.3747 9.26017 100.296 9.26017C101.217 9.26017 101.923 8.51094 101.923 7.58469C101.923 6.63628 101.217 5.88708 100.296 5.88708ZM122.727 15.521C122.727 18.5921 120.309 21.0817 117.326 21.0817C114.344 21.0817 111.926 18.5922 111.926 15.521C111.926 12.4498 114.344 9.96034 117.326 9.96034C120.309 9.96034 122.727 12.4498 122.727 15.521ZM120.26 15.521C120.26 13.8535 118.946 12.5004 117.326 12.5004C115.707 12.5004 114.393 13.8535 114.393 15.521C114.393 17.1886 115.705 18.5416 117.326 18.5416C118.946 18.5416 120.26 17.1902 120.26 15.521ZM40.5078 6.31385H30.2034V8.78122H34.0178V20.8999H36.6949V8.78122H40.5093V6.31385H40.5078ZM92.6192 17.9536L90.2293 10.1422H87.4079L90.9921 20.8999H94.2248L97.8305 10.1422H95.0091L92.6192 17.9536ZM126.662 11.9504V10.1421H123.97V20.8999H126.662V14.4494C126.662 13.2813 127.39 12.7075 128.524 12.7075H129.998V10.1422H128.739C127.754 10.1421 126.899 10.6716 126.662 11.9504Z" fill="white"/>
<path d="M14.6671 28.9043C22.2545 28.9043 28.4052 22.5707 28.4052 14.7577C28.4052 6.94474 22.2545 0.611084 14.6671 0.611084C7.07973 0.611084 0.928955 6.94474 0.928955 14.7577C0.928955 22.5707 7.07973 28.9043 14.6671 28.9043Z" fill="#34E0A1"/>
<path d="M23.1514 11.998L24.8092 10.1408H21.1329C19.2925 8.84623 17.0698 8.09229 14.666 8.09229C12.2653 8.09229 10.0488 8.84786 8.21138 10.1408H4.52588L6.18367 11.998C5.16752 12.9527 4.5305 14.3279 4.5305 15.8548C4.5305 18.7363 6.79924 21.0724 9.59753 21.0724C10.9268 21.0724 12.1379 20.5445 13.042 19.6815L14.6661 21.5024L16.2901 19.6831C17.1942 20.5461 18.4037 21.0724 19.733 21.0724C22.5313 21.0724 24.8031 18.7363 24.8031 15.8548C24.8046 14.3263 24.1676 12.9512 23.1514 11.998ZM9.59903 19.3859C7.70483 19.3859 6.16988 17.8053 6.16988 15.8548C6.16988 13.9043 7.70487 12.3236 9.59903 12.3236C11.4932 12.3236 13.0282 13.9043 13.0282 15.8548C13.0282 17.8053 11.4932 19.3859 9.59903 19.3859ZM14.6676 15.752C14.6676 13.4285 13.0267 11.4338 10.8608 10.5818C12.032 10.0775 13.3168 9.79778 14.666 9.79778C16.0153 9.79778 17.3016 10.0775 18.4728 10.5818C16.3085 11.4353 14.6676 13.4285 14.6676 15.752ZM19.7346 19.3859C17.8404 19.3859 16.3054 17.8053 16.3054 15.8548C16.3054 13.9043 17.8404 12.3236 19.7346 12.3236C21.6288 12.3236 23.1637 13.9043 23.1637 15.8548C23.1637 17.8053 21.6287 19.3859 19.7346 19.3859ZM19.7346 14.0023C18.7414 14.0023 17.9371 14.8305 17.9371 15.8532C17.9371 16.8758 18.7414 17.7041 19.7346 17.7041C20.7277 17.7041 21.532 16.8758 21.532 15.8532C21.532 14.8321 20.7277 14.0023 19.7346 14.0023ZM11.3965 15.8548C11.3965 16.8774 10.5921 17.7057 9.59903 17.7057C8.60591 17.7057 7.80156 16.8774 7.80156 15.8548C7.80156 14.8321 8.60591 14.0038 9.59903 14.0038C10.5921 14.0023 11.3965 14.8321 11.3965 15.8548Z" fill="black"/>
</g>
<defs>
<clipPath id="clip0_17133_1313">
<rect width="129.165" height="28.2932" fill="white" transform="translate(0.927979 0.611084)"/>
</clipPath>
</defs>
</svg>
