<svg width="169" height="27" viewBox="0 0 169 27" fill="none" xmlns="http://www.w3.org/2000/svg">
<g clip-path="url(#clip0_17133_1348)">
<path d="M143.194 12.3911C143.193 14.7972 143.907 17.1496 145.244 19.1506C146.582 21.1516 148.483 22.7114 150.707 23.6327C152.932 24.554 155.38 24.7955 157.742 24.3265C160.104 23.8576 162.274 22.6993 163.977 20.9982C165.68 19.297 166.84 17.1295 167.311 14.7696C167.781 12.4098 167.54 9.96361 166.618 7.74055C165.697 5.51749 164.136 3.61738 162.134 2.28052C160.132 0.943656 157.778 0.230103 155.369 0.230103C152.142 0.233162 149.047 1.51527 146.765 3.79512C144.482 6.07498 143.198 9.16638 143.194 12.3911Z" fill="white"/>
<path style="mix-blend-mode:darken" d="M167.436 12.3907C167.437 14.7764 166.73 17.1087 165.404 19.0927C164.077 21.0767 162.192 22.6232 159.986 23.5365C157.781 24.4498 155.353 24.689 153.011 24.2237C150.669 23.7585 148.518 22.6097 146.83 20.9228C145.141 19.2358 143.991 17.0864 143.526 14.7465C143.06 12.4066 143.299 9.98125 144.214 7.77728C145.128 5.5733 146.675 3.6897 148.661 2.36474C150.647 1.03978 152.981 0.332979 155.369 0.333741C158.569 0.333741 161.639 1.60402 163.902 3.86513C166.165 6.12624 167.436 9.19297 167.436 12.3907Z" fill="black"/>
<path d="M143.194 12.3911C143.193 14.7972 143.907 17.1496 145.244 19.1506C146.582 21.1516 148.483 22.7114 150.707 23.6327C152.932 24.554 155.38 24.7955 157.742 24.3265C160.104 23.8576 162.274 22.6993 163.977 20.9982C165.68 19.297 166.84 17.1295 167.311 14.7696C167.781 12.4098 167.54 9.96361 166.618 7.74055C165.697 5.51749 164.136 3.61738 162.134 2.28052C160.132 0.943656 157.778 0.230103 155.369 0.230103C152.142 0.233162 149.047 1.51527 146.765 3.79512C144.482 6.07498 143.198 9.16638 143.194 12.3911ZM143.406 12.3911C143.406 10.0278 144.108 7.71759 145.422 5.75259C146.736 3.78759 148.604 2.25606 150.789 1.35166C152.974 0.447274 155.379 0.210643 157.699 0.671697C160.019 1.13275 162.15 2.27078 163.822 3.94188C165.495 5.61298 166.634 7.74208 167.095 10.06C167.557 12.3778 167.32 14.7804 166.415 16.9638C165.509 19.1472 163.977 21.0133 162.01 22.3263C160.043 23.6393 157.731 24.3401 155.366 24.3401C152.194 24.3401 149.152 23.0812 146.909 20.8403C144.666 18.5994 143.406 15.5602 143.406 12.3911Z" fill="black"/>
<g style="mix-blend-mode:darken">
<g style="mix-blend-mode:darken">
<path d="M154.255 14.7616C154.252 14.7528 154.252 14.7436 154.255 14.7347V14.7616Z" fill="white"/>
</g>
</g>
<path d="M159.089 18.2036C158.971 18.0441 158.834 17.9003 158.68 17.7758C158.447 17.6116 158.164 17.5361 157.881 17.563C157.598 17.5898 157.334 17.7173 157.136 17.9222L157.079 17.9762C156.241 18.7471 154.837 20.0307 153.718 19.7685C152.881 19.5758 152.781 18.8242 152.835 18.0764C152.844 17.8866 152.863 17.6975 152.893 17.5098C152.916 17.3633 152.943 17.2246 152.966 17.0974C153.074 16.55 153.961 12.6454 154.421 10.6372C154.505 10.334 154.538 10.0186 154.517 9.70441C154.459 9.2727 154.131 9.12623 153.653 9.0106C153.36 8.93077 153.049 8.95892 152.775 9.08987C152.502 9.22083 152.285 9.44584 152.164 9.72368C151.944 10.4599 151.697 11.4659 151.091 14.4917C151.06 14.6343 151.026 14.8001 150.975 14.9543C150.974 14.9466 150.974 14.9387 150.975 14.9311C150.871 15.2549 150.771 15.5787 150.335 15.4939C149.899 15.4091 149.911 14.9273 149.895 14.5996V14.5418L149.864 13.7709C149.807 12.6146 149.81 11.4312 149.864 10.1014L149.907 9.33052L149.969 8.04311C149.969 7.68464 149.942 7.50348 149.76 7.34545C149.643 7.27086 149.511 7.22199 149.373 7.20206C149.236 7.18212 149.095 7.19158 148.962 7.22981C148.681 7.2722 148.423 7.40801 148.229 7.61526C148.065 7.82857 147.971 8.08686 147.959 8.35533C147.897 9.0106 147.851 9.66586 147.82 10.325C147.758 11.6432 147.754 12.9615 147.8 14.2797C147.8 14.3761 147.8 14.4609 147.8 14.5457C147.8 15.2087 147.716 15.4322 147.353 15.4515C146.99 15.4708 146.84 15.1007 146.767 14.8116C146.767 14.8116 146.72 14.6189 146.72 14.6151C146.566 13.8442 146.431 13.0733 146.334 12.3024L146.257 11.8437C146.13 11.0728 146.041 10.5408 145.96 9.84703C145.96 9.71212 145.902 9.46157 145.721 9.37678C145.63 9.34393 145.533 9.33379 145.438 9.34723C145.342 9.36067 145.251 9.39728 145.173 9.45387H145.142C144.945 9.57325 144.783 9.74359 144.673 9.94703C144.564 10.1505 144.512 10.3795 144.521 10.6102C144.521 11.2038 144.583 11.9092 144.649 12.4989C144.777 13.6389 144.966 14.7712 145.216 15.8909L145.239 15.995C145.297 16.311 145.281 16.5423 145.146 16.6425C145.101 16.6734 145.049 16.6924 144.994 16.6978C144.939 16.7031 144.884 16.6948 144.834 16.6734C144.602 16.5963 144.39 16.1838 144.301 15.9834L144.282 15.9372C143.936 15.0735 143.643 14.1891 143.406 13.2891L143.387 13.2274C143.387 13.2274 143.337 13.0501 143.19 13.0193C143.044 12.9885 142.916 13.0193 142.697 13.2698C142.388 13.6553 142.635 14.5996 142.739 15.1316C143.275 17.8606 145.463 22.1237 149.502 23.7387C152.615 24.9837 154.548 23.4034 158.467 19.969C158.83 19.6651 159.098 19.2638 159.239 18.8126C159.264 18.7064 159.263 18.596 159.237 18.4902C159.21 18.3844 159.16 18.2862 159.089 18.2036Z" fill="white"/>
<path d="M167.56 8.05084C166.36 4.48541 164.316 2.89735 163.968 2.62753C163.622 2.32878 163.231 2.08443 162.811 1.90288C162.71 1.87398 162.607 1.85716 162.502 1.85278H162.452C162.387 1.85101 162.323 1.86701 162.267 1.89903C162.251 1.9166 162.24 1.9375 162.233 1.96018C162.226 1.98286 162.225 2.00675 162.228 2.03008C162.228 2.16885 162.418 2.39241 162.688 2.65452C163.292 3.23946 163.857 3.8626 164.381 4.5201C164.555 4.76293 164.643 5.07515 164.381 5.24475C164.328 5.27558 164.269 5.29183 164.208 5.29183C164.147 5.29183 164.087 5.27558 164.034 5.24475C163.902 5.16833 163.781 5.0736 163.675 4.96337C162.405 3.75466 161.051 2.63666 159.624 1.61765C159.416 1.46323 159.177 1.35484 158.924 1.29968C158.671 1.24452 158.408 1.24386 158.155 1.29773L158.074 1.32471L158.016 1.34398L157.931 1.39409H157.912L157.877 1.42493C157.835 1.4661 157.804 1.51619 157.784 1.5714C157.769 1.64256 157.775 1.71651 157.8 1.78472C157.825 1.85292 157.869 1.9126 157.927 1.95685C158.459 2.43095 161.063 4.71283 161.507 5.21777C161.951 5.72271 161.935 5.95398 161.773 6.11972C161.538 6.3587 161.168 6.11972 161.063 6.06962H161.09C160.983 6.00409 160.882 5.93065 160.786 5.84991C159.267 4.68699 157.674 3.62349 156.017 2.66608C155.288 2.30375 155.026 2.18812 154.378 2.53503L154.308 2.57743C154.208 2.62659 154.121 2.69862 154.054 2.78769C153.987 2.87676 153.942 2.98035 153.923 3.09008C153.915 3.21668 153.945 3.34261 154.009 3.45225C154.073 3.56188 154.168 3.65039 154.281 3.7068C157.04 5.56853 157.63 5.8846 159.817 7.53433C159.983 7.66153 160.373 8.02 160.022 8.36691C159.961 8.40897 159.893 8.4379 159.82 8.45184C159.748 8.46578 159.673 8.46442 159.601 8.44785C159.363 8.38807 159.138 8.28766 158.934 8.15105C157.523 7.31503 156.058 6.57458 154.548 5.93471C154.346 5.8395 154.123 5.80071 153.901 5.82248C153.679 5.84425 153.467 5.92576 153.288 6.05832C153.109 6.19088 152.97 6.36951 152.884 6.57516C152.799 6.7808 152.771 7.00574 152.804 7.22597C152.906 7.48886 153.107 7.70171 153.363 7.81956C154.906 8.72152 156.11 9.24959 157.634 10.1901C158.116 10.483 158.197 10.5216 158.668 10.8338C159.204 11.1961 160.029 11.7203 160.23 12.3756C160.277 12.52 160.302 12.6708 160.303 12.8227C160.306 13.0046 160.26 13.1838 160.17 13.3418C160.079 13.4997 159.948 13.6306 159.79 13.7208C159.046 14.2296 157.719 14.0793 156.557 14.0022C156.311 13.9829 155.89 13.956 155.635 13.956C155.03 13.956 154.706 14.1024 154.521 14.3877C154.387 14.6743 154.326 14.9893 154.343 15.305C154.345 15.3799 154.351 15.4545 154.362 15.5286C154.371 15.621 154.403 15.7097 154.455 15.7868V15.81C154.729 16.1569 155.269 16.2687 155.875 16.338C156.959 16.3997 158.097 16.419 159.416 16.446C162.502 16.5076 166.005 16.3149 167.379 14.4416C168.339 13.1195 168.274 10.1091 167.56 8.05084Z" fill="white"/>
<path style="mix-blend-mode:lighten" d="M151.793 25.3307C150.59 26.6952 147.669 26.1016 145.27 23.9778C142.87 21.8539 141.898 19.044 143.102 17.6795C144.305 16.315 147.23 16.9086 149.629 19.0324C152.029 21.1563 152.997 23.9855 151.793 25.3307Z" fill="white"/>
<path d="M157.974 1.32483C157.943 1.33746 157.914 1.35433 157.889 1.37494L157.974 1.32483Z" fill="white"/>
<path d="M152.839 18.0804C152.839 18.0342 152.839 17.984 152.839 17.9339C152.839 17.8838 152.839 17.8838 152.839 17.8607C152.84 17.8518 152.84 17.8426 152.839 17.8337C152.839 17.7296 152.862 17.6217 152.877 17.5138C152.854 17.7018 152.841 17.891 152.839 18.0804Z" fill="white"/>
<path d="M157.834 1.41702L157.869 1.38647L157.834 1.41702Z" fill="white"/>
<path d="M159.636 8.47864H159.617H159.563C159.587 8.48079 159.612 8.48079 159.636 8.47864Z" fill="white"/>
<path d="M148.988 7.23359H148.969L149.115 7.21057L148.988 7.23359Z" fill="white"/>
<path d="M147.812 14.7342C147.812 14.6919 147.812 14.6497 147.812 14.6075C147.816 14.6497 147.812 14.6881 147.812 14.7342Z" fill="white"/>
<path d="M159.262 18.5082C159.264 18.5245 159.264 18.541 159.262 18.5574C159.263 18.541 159.263 18.5245 159.262 18.5082Z" fill="white"/>
<path d="M154.054 2.76166L154.076 2.7395L154.054 2.76166Z" fill="white"/>
<path d="M154.1 2.71945C154.151 2.6755 154.205 2.6345 154.261 2.59668C154.204 2.6326 154.15 2.6737 154.1 2.71945Z" fill="white"/>
<path d="M154.382 15.7793L154.412 15.8247L154.382 15.7793Z" fill="white"/>
<path d="M152.869 17.8181C152.871 17.827 152.871 17.8361 152.869 17.845C152.871 17.8361 152.871 17.827 152.869 17.8181Z" fill="white"/>
<path d="M152.896 17.5138C152.896 17.6217 152.869 17.7297 152.858 17.8337C152.858 17.722 152.885 17.614 152.896 17.5061C152.897 17.5087 152.897 17.5112 152.896 17.5138Z" fill="white"/>
<path d="M17.6177 3.07874H1.80055C1.12543 3.07874 0.789795 4.27749 0.789795 5.47624C0.789795 6.675 1.12543 7.87375 1.80055 7.87375H7.30955V21.195C7.30955 21.8695 8.50934 22.201 9.70912 22.201C10.9089 22.201 12.1087 21.8695 12.1087 21.195V7.87375H17.6177C18.289 7.87375 18.6246 6.675 18.6246 5.47624C18.6246 4.27749 18.289 3.07874 17.6177 3.07874Z" fill="white"/>
<path d="M19.2419 12.5569C19.2419 10.6511 19.8076 8.78799 20.8674 7.20331C21.9271 5.61863 23.4334 4.38352 25.1957 3.65418C26.958 2.92483 28.8972 2.734 30.7681 3.10582C32.639 3.47764 34.3575 4.3954 35.7063 5.74306C37.0551 7.09072 37.9737 8.80774 38.3458 10.677C38.718 12.5463 38.527 14.4838 37.797 16.2446C37.067 18.0054 35.8309 19.5104 34.2448 20.5692C32.6588 21.6281 30.7941 22.1932 28.8865 22.1932C26.3286 22.1932 23.8755 21.178 22.0668 19.3708C20.2581 17.5637 19.2419 15.1126 19.2419 12.5569ZM28.8865 17.4098C29.8472 17.4098 30.7862 17.1252 31.585 16.5919C32.3837 16.0587 33.0062 15.3008 33.3739 14.414C33.7415 13.5273 33.8377 12.5516 33.6502 11.6102C33.4628 10.6688 33.0002 9.80415 32.321 9.12547C31.6417 8.44679 30.7763 7.98461 29.8341 7.79736C28.8919 7.61011 27.9154 7.70621 27.0278 8.07351C26.1403 8.44081 25.3818 9.06281 24.8481 9.86085C24.3144 10.6589 24.0295 11.5971 24.0295 12.5569C24.0295 13.1952 24.1555 13.8272 24.4004 14.4167C24.6452 15.0062 25.004 15.5417 25.4562 15.9925C25.9084 16.4433 26.4452 16.8005 27.0359 17.0437C27.6265 17.2869 28.2593 17.4113 28.8981 17.4098H28.8865Z" fill="white"/>
<path d="M69.5865 11.1345C69.5876 9.50622 69.1048 7.91422 68.1993 6.56041C67.2937 5.20659 66.0062 4.15193 64.5 3.53014C62.9937 2.90835 61.3366 2.74744 59.7387 3.0678C58.1409 3.38817 56.6742 4.17539 55.5247 5.32964C54.3746 4.17595 52.9077 3.38925 51.3098 3.06919C49.7119 2.74913 48.0549 2.91011 46.5486 3.53174C45.0424 4.15337 43.7547 5.20769 42.8486 6.56113C41.9426 7.91457 41.4589 9.50625 41.459 11.1345V21.1948C41.459 21.8694 42.6626 22.2008 43.8624 22.2008C45.0622 22.2008 46.262 21.8694 46.262 21.1948V11.1345C46.262 10.2247 46.6237 9.35215 47.2676 8.7088C47.9115 8.06545 48.7849 7.70402 49.6955 7.70402C50.6061 7.70402 51.4794 8.06545 52.1233 8.7088C52.7672 9.35215 53.129 10.2247 53.129 11.1345V21.1948C53.129 21.8694 54.3287 22.2008 55.5247 22.2008C56.7206 22.2008 57.9242 21.8694 57.9242 21.1948V11.1345C57.9541 10.2441 58.3291 9.40012 58.9701 8.78077C59.6111 8.16143 60.468 7.81521 61.3597 7.81521C62.2514 7.81521 63.1082 8.16143 63.7492 8.78077C64.3902 9.40012 64.7652 10.2441 64.7951 11.1345V21.1948C64.7951 21.8694 65.9949 22.2008 67.1946 22.2008C68.3944 22.2008 69.5904 21.8694 69.5904 21.1948L69.5865 11.1345Z" fill="white"/>
<path d="M139.557 11.1347C139.559 9.50401 139.076 7.90942 138.169 6.55348C137.263 5.19754 135.973 4.14144 134.465 3.51933C132.956 2.89722 131.296 2.73719 129.696 3.05954C128.097 3.3819 126.629 4.17211 125.479 5.32978C124.329 4.17609 122.862 3.38939 121.264 3.06933C119.667 2.74927 118.009 2.91025 116.503 3.53188C114.997 4.15352 113.709 5.20783 112.803 6.56127C111.897 7.91472 111.414 9.50639 111.414 11.1347V21.195C111.414 21.8695 112.613 22.201 113.813 22.201C115.013 22.201 116.213 21.8695 116.213 21.195V11.1347C116.213 10.2249 116.574 9.35229 117.218 8.70894C117.862 8.0656 118.736 7.70416 119.646 7.70416C120.557 7.70416 121.43 8.0656 122.074 8.70894C122.718 9.35229 123.08 10.2249 123.08 11.1347V21.195C123.08 21.8695 124.279 22.201 125.479 22.201C126.679 22.201 127.879 21.8695 127.879 21.195V11.1347C127.879 10.2249 128.241 9.35229 128.884 8.70894C129.528 8.0656 130.402 7.70416 131.312 7.70416C132.223 7.70416 133.096 8.0656 133.74 8.70894C134.384 9.35229 134.746 10.2249 134.746 11.1347V21.195C134.746 21.8695 135.946 22.201 137.145 22.201C138.345 22.201 139.545 21.8695 139.545 21.195L139.557 11.1347Z" fill="white"/>
<path d="M87.5833 3.07874H71.7662C71.0949 3.07874 70.7593 4.27749 70.7593 5.47624C70.7593 6.675 71.0949 7.87375 71.7662 7.87375H77.2752V21.195C77.2752 21.8695 78.475 22.201 79.6709 22.201C80.8668 22.201 82.0705 21.8695 82.0705 21.195V7.87375H87.5795C88.2507 7.87375 88.5902 6.675 88.5902 5.47624C88.5902 4.27749 88.2546 3.07874 87.5833 3.07874Z" fill="white"/>
<path d="M89.2153 12.5569C89.2153 10.6511 89.781 8.78799 90.8407 7.20331C91.9005 5.61863 93.4068 4.38352 95.1691 3.65418C96.9314 2.92483 98.8706 2.734 100.742 3.10582C102.612 3.47764 104.331 4.3954 105.68 5.74306C107.029 7.09072 107.947 8.80774 108.319 10.677C108.691 12.5463 108.5 14.4838 107.77 16.2446C107.04 18.0054 105.804 19.5104 104.218 20.5692C102.632 21.6281 100.767 22.1932 98.8599 22.1932C96.302 22.1932 93.8489 21.178 92.0402 19.3708C90.2315 17.5637 89.2153 15.1126 89.2153 12.5569ZM98.8599 17.4098C99.8207 17.4105 100.76 17.1266 101.559 16.5938C102.359 16.061 102.982 15.3034 103.35 14.4167C103.718 13.53 103.815 12.5542 103.628 11.6126C103.441 10.671 102.979 9.8059 102.3 9.12684C101.62 8.44777 100.755 7.9852 99.8128 7.79764C98.8705 7.61008 97.8937 7.70596 97.006 8.07314C96.1183 8.44033 95.3595 9.06233 94.8256 9.86045C94.2917 10.6586 94.0068 11.597 94.0068 12.5569C94.0068 13.8433 94.518 15.0771 95.428 15.9871C96.338 16.897 97.5724 17.4088 98.8599 17.4098Z" fill="white"/>
</g>
<defs>
<clipPath id="clip0_17133_1348">
<rect width="167.299" height="25.833" fill="white" transform="translate(0.793457 0.230225)"/>
</clipPath>
</defs>
</svg>
