<svg width="170" height="24" viewBox="0 0 170 24" fill="none" xmlns="http://www.w3.org/2000/svg">
<g clip-path="url(#clip0_18198_607)">
<path d="M144.083 11.969C144.082 14.3854 144.796 16.7478 146.136 18.7573C147.475 20.7669 149.379 22.3333 151.607 23.2586C153.835 24.1838 156.287 24.4263 158.653 23.9554C161.018 23.4844 163.192 22.3212 164.897 20.6128C166.603 18.9044 167.765 16.7276 168.235 14.3577C168.706 11.9877 168.465 9.53117 167.542 7.29862C166.619 5.06607 165.057 3.15784 163.051 1.81527C161.046 0.472703 158.688 -0.243896 156.276 -0.243896C153.044 -0.240824 149.945 1.04675 147.659 3.33634C145.373 5.62593 144.087 8.73053 144.083 11.969Z" fill="white"/>
<path style="mix-blend-mode:darken" d="M168.362 11.969C168.363 14.3649 167.654 16.7072 166.326 18.6997C164.998 20.6921 163.11 22.2452 160.901 23.1624C158.691 24.0796 156.26 24.3198 153.915 23.8526C151.569 23.3853 149.415 22.2317 147.724 20.5375C146.033 18.8433 144.882 16.6848 144.415 14.3349C143.949 11.985 144.189 9.54929 145.104 7.33591C146.02 5.12252 147.57 3.23089 149.558 1.90027C151.547 0.56965 153.885 -0.140169 156.276 -0.139404C159.482 -0.139404 162.556 1.1363 164.822 3.40706C167.088 5.67782 168.362 8.75764 168.362 11.969Z" fill="url(#paint0_linear_18198_607)"/>
<path style="mix-blend-mode:multiply" d="M168.362 11.969C168.363 14.3649 167.654 16.7072 166.326 18.6997C164.998 20.6921 163.11 22.2452 160.901 23.1624C158.691 24.0796 156.26 24.3198 153.915 23.8526C151.569 23.3853 149.415 22.2317 147.724 20.5375C146.033 18.8433 144.882 16.6848 144.415 14.3349C143.949 11.985 144.189 9.54929 145.104 7.33591C146.02 5.12252 147.57 3.23089 149.558 1.90027C151.547 0.56965 153.885 -0.140169 156.276 -0.139404C159.482 -0.139404 162.556 1.1363 164.822 3.40706C167.088 5.67782 168.362 8.75764 168.362 11.969Z" fill="url(#paint1_radial_18198_607)"/>
<g style="mix-blend-mode:darken">
<g style="mix-blend-mode:darken">
<path style="mix-blend-mode:darken" d="M168.362 11.969C168.363 14.3649 167.654 16.7072 166.326 18.6997C164.998 20.6921 163.11 22.2452 160.901 23.1624C158.691 24.0796 156.26 24.3198 153.915 23.8526C151.569 23.3853 149.415 22.2317 147.724 20.5375C146.033 18.8433 144.882 16.6848 144.415 14.3349C143.949 11.985 144.189 9.54929 145.104 7.33591C146.02 5.12252 147.57 3.23089 149.558 1.90027C151.547 0.56965 153.885 -0.140169 156.276 -0.139404C159.482 -0.139404 162.556 1.1363 164.822 3.40706C167.088 5.67782 168.362 8.75764 168.362 11.969Z" fill="url(#paint2_radial_18198_607)"/>
</g>
</g>
<path d="M144.083 11.969C144.082 14.3854 144.796 16.7478 146.136 18.7573C147.475 20.7669 149.379 22.3333 151.607 23.2586C153.835 24.1838 156.287 24.4263 158.653 23.9554C161.018 23.4844 163.192 22.3212 164.897 20.6128C166.603 18.9044 167.765 16.7276 168.235 14.3577C168.706 11.9877 168.465 9.53117 167.542 7.29862C166.619 5.06607 165.057 3.15784 163.051 1.81527C161.046 0.472703 158.688 -0.243896 156.276 -0.243896C153.044 -0.240824 149.945 1.04675 147.659 3.33634C145.373 5.62593 144.087 8.73053 144.083 11.969ZM144.295 11.969C144.295 9.59563 144.998 7.27555 146.314 5.30216C147.63 3.32877 149.5 1.7907 151.689 0.882453C153.878 -0.0257984 156.286 -0.263439 158.609 0.199584C160.933 0.662606 163.067 1.8055 164.742 3.48373C166.417 5.16196 167.558 7.30015 168.02 9.62792C168.482 11.9557 168.245 14.3685 167.338 16.5612C166.432 18.7539 164.896 20.6281 162.927 21.9466C160.957 23.2652 158.641 23.969 156.273 23.969C153.096 23.969 150.049 22.7047 147.803 20.4543C145.557 18.2039 144.295 15.1516 144.295 11.969Z" fill="#BCBDBE"/>
<path d="M153 23.7406C155.071 23.3806 157.331 20.8529 159.819 18.6658C159.967 18.5469 160.086 18.3961 160.167 18.2245C160.164 18.4868 160.106 18.7456 159.996 18.9837C159.886 19.2219 159.727 19.4341 159.53 19.6064C157.377 21.689 155.337 23.6826 153.421 23.8645C153.251 23.8064 153.174 23.7871 153 23.7406Z" fill="white"/>
<path d="M168.215 14.4425C166.955 16.1612 164.351 16.3315 160.488 16.258C159.166 16.2309 158 16.1535 156.918 16.0915C155.898 16.0218 155.558 15.6812 155.349 15.4373C155.608 15.7586 156.392 15.9096 156.856 15.9483C157.934 16.0102 159.066 16.0296 160.376 16.0567C163.443 16.1186 166.909 15.9212 168.273 14.0554L168.315 13.9857C168.265 14.1986 168.215 14.4425 168.215 14.4425Z" fill="white"/>
<path d="M160.936 7.69159C160.936 7.50578 160.808 7.34707 160.592 7.17675C158.734 5.72513 156.81 4.55997 155.083 3.34836C154.912 3.25067 154.785 3.09148 154.727 2.9032L154.789 3.2903C154.812 3.38602 154.854 3.47599 154.913 3.55458C154.972 3.63317 155.047 3.6987 155.133 3.74707C156.783 4.90836 158.61 5.9961 160.391 7.3703C160.6 7.52901 160.739 7.67997 160.723 7.85417C160.716 7.92455 160.689 7.99149 160.646 8.04772C160.688 8.0384 160.729 8.02274 160.766 8.00126C160.817 7.96687 160.859 7.92085 160.888 7.867C160.918 7.81315 160.934 7.75302 160.936 7.69159Z" fill="url(#paint3_linear_18198_607)"/>
<path d="M162.273 4.83864C161.797 4.30445 159.217 2.0438 158.703 1.57155C158.647 1.52456 158.604 1.46472 158.577 1.39724C158.55 1.32977 158.54 1.25671 158.548 1.18445L158.451 1.66445C158.436 1.73847 158.44 1.81537 158.465 1.88695C158.489 1.95853 158.533 2.0221 158.591 2.0709C159.085 2.51606 161.546 4.65283 162.002 5.16767C162.226 5.41542 162.338 5.62058 162.319 5.77929C162.373 5.77496 162.424 5.7577 162.47 5.72896C162.74 5.53154 162.659 5.23735 162.273 4.83864Z" fill="url(#paint4_linear_18198_607)"/>
<path d="M165.178 4.75735C165.406 4.61413 165.356 4.37025 165.24 4.2038C164.713 3.51713 164.135 2.87023 163.513 2.26832C163.2 1.96251 162.999 1.74961 163.019 1.5638C163.023 1.54373 163.029 1.52423 163.038 1.50574L162.74 1.978C162.726 1.99917 162.716 2.02277 162.709 2.04767C162.709 2.22574 162.883 2.43477 163.181 2.71348C163.774 3.27799 164.324 3.88613 164.827 4.53283C164.866 4.59911 164.881 4.67721 164.869 4.75348L164.908 4.77671C164.951 4.79549 164.998 4.80355 165.045 4.80018C165.093 4.79681 165.138 4.78212 165.178 4.75735Z" fill="url(#paint5_linear_18198_607)"/>
<path d="M153.773 17.4618C153.773 17.4851 153.773 17.5122 153.773 17.5354C153.699 18.4915 153.927 19.107 154.669 19.2812C155.735 19.5328 157.169 18.2128 157.941 17.5044L157.999 17.4502C158.749 16.7999 159.433 17.0864 159.661 17.2799C159.791 17.3843 159.905 17.5068 160.001 17.6438C160.039 17.6984 160.074 17.7553 160.105 17.8141L159.97 17.5006C159.936 17.4105 159.889 17.3258 159.831 17.2489C159.737 17.1199 159.628 17.0028 159.506 16.9006C159.266 16.7327 158.973 16.6571 158.681 16.6877C158.39 16.7182 158.119 16.8529 157.918 17.067L157.864 17.1173C157.126 17.787 155.758 19.0528 154.742 18.7935C154.031 18.6309 153.749 18.0193 153.819 17.1057C153.819 17.2141 153.792 17.3225 153.78 17.4347C153.78 17.4442 153.777 17.4535 153.773 17.4618Z" fill="url(#paint6_linear_18198_607)"/>
<path d="M144.133 12.5379C144.195 12.5504 144.252 12.5815 144.296 12.6271C144.34 12.6728 144.37 12.7308 144.38 12.7934V12.8592C144.623 13.7594 144.921 14.6437 145.273 15.507L145.296 15.5496C145.369 15.7238 145.578 16.1225 145.767 16.1883C145.809 16.2043 145.854 16.2101 145.898 16.2054C145.942 16.2007 145.985 16.1856 146.022 16.1612C146.071 16.1192 146.109 16.0658 146.132 16.0056C146.155 15.9454 146.162 15.8805 146.154 15.8167C146 15.6587 145.877 15.4736 145.79 15.2708L145.771 15.2244C145.444 14.4086 145.166 13.5735 144.94 12.7237V12.6657C144.932 12.6049 144.905 12.5484 144.862 12.5039C144.82 12.4595 144.765 12.4294 144.705 12.4179C144.668 12.4103 144.63 12.4103 144.593 12.4179L144.013 12.5418C144.052 12.531 144.093 12.5297 144.133 12.5379Z" fill="url(#paint7_linear_18198_607)"/>
<path d="M146.961 9.41804C147.042 10.1148 147.127 10.6374 147.259 11.4232L147.336 11.8838C147.444 12.658 147.579 13.4322 147.722 14.2064L147.769 14.3961C147.834 14.6787 147.935 14.969 148.244 14.9613C148.327 14.9665 148.409 14.9448 148.479 14.8995C148.548 14.8542 148.601 14.7876 148.63 14.7096C148.333 14.7096 148.244 14.4426 148.174 14.1755L148.132 13.9935C147.981 13.2658 147.854 12.5303 147.745 11.8103L147.672 11.3729C147.548 10.6296 147.467 10.138 147.39 9.47997C147.347 9.17029 147.27 9.06191 147.127 8.99997C147.113 8.99773 147.099 8.99773 147.085 8.99997H147.05L146.621 8.9032H146.687C146.818 8.97675 146.919 9.09288 146.961 9.41804Z" fill="url(#paint8_linear_18198_607)"/>
<path d="M150.979 7.6103L150.917 8.9032L150.875 9.6774C150.817 11.009 150.813 12.2129 150.875 13.3548L150.906 14.1097V14.1793C150.906 14.4929 150.945 14.8838 151.265 14.9768C151.375 15.0121 151.495 15.0021 151.598 14.9492C151.701 14.8962 151.778 14.8045 151.814 14.6942C151.713 14.7435 151.598 14.7545 151.489 14.7251C151.184 14.64 151.165 14.2684 151.145 13.9509V13.9355L151.118 13.2232C151.064 12.1432 151.064 11.009 151.118 9.73933L151.161 8.99611L151.215 7.77288C151.238 7.38578 151.18 7.23869 151.03 7.11482H151.002L150.786 6.94836C150.941 7.05288 150.999 7.19998 150.979 7.6103Z" fill="url(#paint9_linear_18198_607)"/>
<path d="M155.318 13.9044C155.462 13.7344 155.647 13.6044 155.855 13.5271C156.064 13.4498 156.289 13.4278 156.508 13.4631C156.945 13.4631 157.234 13.498 157.343 13.5057C158.502 13.5831 159.842 13.7689 160.642 13.227C160.842 13.1002 160.995 12.9125 161.08 12.6915C161.165 12.4705 161.177 12.2281 161.114 11.9999C161.034 11.7607 160.902 11.5424 160.727 11.3612C160.829 11.4826 160.906 11.6233 160.952 11.7749C160.999 11.9266 161.014 12.086 160.998 12.2438C160.981 12.4164 160.923 12.5825 160.829 12.7281C160.735 12.8736 160.607 12.9943 160.457 13.0799C159.684 13.5909 158.417 13.4167 157.308 13.3431C157.207 13.3431 156.922 13.3122 156.512 13.3044C156.302 13.2712 156.087 13.2921 155.888 13.3653C155.688 13.4384 155.511 13.5614 155.372 13.7225C155.311 13.8182 155.267 13.9245 155.245 14.036L155.206 14.2102C155.226 14.1026 155.263 13.9991 155.318 13.9044Z" fill="url(#paint10_linear_18198_607)"/>
<g style="mix-blend-mode:darken">
<path style="mix-blend-mode:darken" d="M160.936 7.69159C160.936 7.50578 160.808 7.34707 160.592 7.17675C158.734 5.72513 156.81 4.55997 155.083 3.34836C154.912 3.25067 154.785 3.09148 154.727 2.9032L154.789 3.2903C154.812 3.38602 154.854 3.47599 154.913 3.55458C154.972 3.63317 155.047 3.6987 155.133 3.74707C156.783 4.90836 158.61 5.9961 160.391 7.3703C160.6 7.52901 160.739 7.67997 160.723 7.85417C160.716 7.92455 160.689 7.99149 160.646 8.04772C160.688 8.0384 160.729 8.02274 160.766 8.00126C160.817 7.96687 160.859 7.92085 160.888 7.867C160.918 7.81315 160.934 7.75302 160.936 7.69159Z" fill="url(#paint11_linear_18198_607)"/>
<path style="mix-blend-mode:darken" d="M162.273 4.83864C161.797 4.30445 159.217 2.0438 158.703 1.57155C158.647 1.52456 158.604 1.46472 158.577 1.39724C158.55 1.32977 158.54 1.25671 158.548 1.18445L158.451 1.66445C158.436 1.73847 158.44 1.81537 158.465 1.88695C158.489 1.95853 158.533 2.0221 158.591 2.0709C159.085 2.51606 161.546 4.65283 162.002 5.16767C162.226 5.41542 162.338 5.62058 162.319 5.77929C162.373 5.77496 162.424 5.7577 162.47 5.72896C162.74 5.53154 162.659 5.23735 162.273 4.83864Z" fill="url(#paint12_linear_18198_607)"/>
<path style="mix-blend-mode:darken" d="M165.178 4.75735C165.406 4.61413 165.356 4.37025 165.24 4.2038C164.713 3.51713 164.135 2.87023 163.513 2.26832C163.2 1.96251 162.999 1.74961 163.019 1.5638C163.023 1.54373 163.029 1.52423 163.038 1.50574L162.74 1.978C162.726 1.99917 162.716 2.02277 162.709 2.04767C162.709 2.22574 162.883 2.43477 163.181 2.71348C163.774 3.27799 164.324 3.88613 164.827 4.53283C164.867 4.59898 164.882 4.67721 164.869 4.75348L164.908 4.77671C164.951 4.79518 164.998 4.80306 165.045 4.79969C165.092 4.79633 165.138 4.78182 165.178 4.75735Z" fill="url(#paint13_linear_18198_607)"/>
<path style="mix-blend-mode:darken" d="M153.773 17.4618C153.773 17.4851 153.773 17.5122 153.773 17.5354C153.699 18.4915 153.927 19.107 154.669 19.2812C155.735 19.5328 157.169 18.2128 157.941 17.5044L157.999 17.4502C158.749 16.7999 159.433 17.0864 159.661 17.2799C159.791 17.3843 159.905 17.5068 160.001 17.6438C160.039 17.6984 160.074 17.7553 160.105 17.8141L159.97 17.5006C159.936 17.4105 159.889 17.3258 159.831 17.2489C159.737 17.1199 159.628 17.0028 159.506 16.9006C159.266 16.7327 158.973 16.6571 158.681 16.6877C158.39 16.7182 158.119 16.8529 157.918 17.067L157.864 17.1173C157.126 17.787 155.758 19.0528 154.742 18.7935C154.031 18.6309 153.749 18.0193 153.819 17.1057C153.819 17.2141 153.792 17.3225 153.78 17.4347C153.78 17.4442 153.777 17.4535 153.773 17.4618Z" fill="url(#paint14_linear_18198_607)"/>
<path style="mix-blend-mode:darken" d="M144.133 12.5379C144.195 12.5504 144.252 12.5815 144.296 12.6271C144.34 12.6728 144.37 12.7308 144.38 12.7934V12.8592C144.623 13.7594 144.921 14.6437 145.273 15.507L145.296 15.5496C145.369 15.7238 145.578 16.1225 145.767 16.1883C145.809 16.2043 145.854 16.2101 145.898 16.2054C145.942 16.2007 145.985 16.1856 146.022 16.1612C146.071 16.1192 146.109 16.0658 146.132 16.0056C146.155 15.9454 146.162 15.8805 146.154 15.8167C146 15.6587 145.877 15.4736 145.79 15.2708L145.771 15.2244C145.444 14.4086 145.166 13.5735 144.94 12.7237V12.6657C144.932 12.6049 144.905 12.5484 144.862 12.5039C144.82 12.4595 144.765 12.4294 144.705 12.4179C144.668 12.4103 144.63 12.4103 144.593 12.4179L144.013 12.5418C144.052 12.531 144.093 12.5297 144.133 12.5379Z" fill="url(#paint15_linear_18198_607)"/>
<path style="mix-blend-mode:darken" d="M146.961 9.41804C147.042 10.1148 147.127 10.6374 147.259 11.4232L147.336 11.8838C147.444 12.658 147.579 13.4322 147.722 14.2064L147.769 14.3961C147.834 14.6787 147.935 14.969 148.244 14.9613C148.327 14.9665 148.409 14.9448 148.479 14.8995C148.548 14.8542 148.601 14.7876 148.63 14.7096C148.333 14.7096 148.244 14.4426 148.174 14.1755L148.132 13.9935C147.981 13.2658 147.854 12.5303 147.745 11.8103L147.672 11.3729C147.548 10.6296 147.467 10.138 147.39 9.47997C147.347 9.17029 147.27 9.06191 147.127 8.99997C147.113 8.99773 147.099 8.99773 147.085 8.99997H147.05L146.621 8.9032H146.687C146.818 8.97675 146.919 9.09288 146.961 9.41804Z" fill="url(#paint16_linear_18198_607)"/>
<path style="mix-blend-mode:darken" d="M150.979 7.6103L150.917 8.9032L150.875 9.6774C150.817 11.009 150.813 12.2129 150.875 13.3548L150.906 14.1097V14.1793C150.906 14.4929 150.945 14.8838 151.265 14.9768C151.375 15.0121 151.495 15.0021 151.598 14.9492C151.701 14.8962 151.778 14.8045 151.814 14.6942C151.713 14.7435 151.598 14.7545 151.489 14.7251C151.184 14.64 151.165 14.2684 151.145 13.9509V13.9355L151.118 13.2232C151.064 12.1432 151.064 11.009 151.118 9.73933L151.161 8.99611L151.215 7.77288C151.238 7.38578 151.18 7.23869 151.03 7.11482H151.002L150.786 6.94836C150.941 7.05288 150.999 7.19998 150.979 7.6103Z" fill="url(#paint17_linear_18198_607)"/>
<g style="mix-blend-mode:darken">
<path d="M155.16 14.3496C155.158 14.3407 155.158 14.3314 155.16 14.3225V14.3496Z" fill="black"/>
</g>
<path style="mix-blend-mode:darken" d="M155.318 13.9044C155.462 13.7344 155.647 13.6044 155.855 13.5271C156.064 13.4498 156.289 13.4278 156.508 13.4631C156.945 13.4631 157.234 13.498 157.343 13.5057C158.502 13.5831 159.842 13.7689 160.642 13.227C160.842 13.1002 160.995 12.9125 161.08 12.6915C161.165 12.4705 161.177 12.2281 161.114 11.9999C161.034 11.7607 160.902 11.5424 160.727 11.3612C160.829 11.4826 160.906 11.6233 160.952 11.7749C160.999 11.9266 161.014 12.086 160.998 12.2438C160.981 12.4164 160.923 12.5825 160.829 12.7281C160.735 12.8736 160.607 12.9943 160.457 13.0799C159.684 13.5909 158.417 13.4167 157.308 13.3431C157.207 13.3431 156.922 13.3122 156.512 13.3044C156.302 13.2712 156.087 13.2921 155.888 13.3653C155.688 13.4384 155.511 13.5614 155.372 13.7225C155.311 13.8182 155.267 13.9245 155.245 14.036L155.206 14.2102C155.226 14.1026 155.263 13.9991 155.318 13.9044Z" fill="url(#paint18_linear_18198_607)"/>
</g>
<path d="M160.001 17.8065C159.883 17.6463 159.746 17.5019 159.591 17.3768C159.359 17.212 159.075 17.1362 158.792 17.1631C158.508 17.1901 158.243 17.3182 158.046 17.5239L157.988 17.5781C157.15 18.3523 155.743 19.6414 154.623 19.3781C153.784 19.1846 153.684 18.4298 153.738 17.6788C153.747 17.4882 153.767 17.2983 153.796 17.1098C153.819 16.9627 153.846 16.8233 153.869 16.6956C153.978 16.1459 154.866 12.2246 155.326 10.2078C155.411 9.9033 155.444 9.58653 155.423 9.27104C155.365 8.83749 155.036 8.6904 154.557 8.57427C154.264 8.4941 153.952 8.52237 153.678 8.65388C153.404 8.7854 153.187 9.01136 153.066 9.2904C152.846 10.0298 152.598 11.0401 151.992 14.0788C151.961 14.222 151.926 14.3885 151.876 14.5433C151.874 14.5356 151.874 14.5277 151.876 14.5201C151.771 14.8452 151.671 15.1704 151.234 15.0852C150.798 15.0001 150.809 14.5162 150.794 14.1872V14.1291L150.763 13.3549C150.705 12.1936 150.709 11.0052 150.763 9.66975L150.806 8.89556L150.867 7.60266C150.867 7.24266 150.84 7.06072 150.659 6.90201C150.541 6.82711 150.409 6.77803 150.271 6.75801C150.133 6.73799 149.993 6.74749 149.859 6.78588C149.578 6.82845 149.319 6.96484 149.125 7.17298C148.961 7.38719 148.867 7.64658 148.854 7.9162C148.793 8.57427 148.746 9.23233 148.715 9.89427C148.654 11.2181 148.65 12.542 148.696 13.8659C148.696 13.9627 148.696 14.0478 148.696 14.133C148.696 14.7988 148.611 15.0233 148.248 15.0427C147.885 15.062 147.734 14.6904 147.661 14.4001C147.661 14.4001 147.614 14.2065 147.614 14.2027C147.46 13.4285 147.324 12.6543 147.228 11.8801L147.151 11.4194C147.023 10.6452 146.934 10.111 146.853 9.41427C146.853 9.27878 146.795 9.02717 146.614 8.94201C146.523 8.90903 146.425 8.89884 146.33 8.91233C146.234 8.92583 146.143 8.9626 146.065 9.01943H146.034C145.836 9.13933 145.674 9.31039 145.564 9.5147C145.455 9.71901 145.402 9.94905 145.412 10.1807C145.412 10.7769 145.474 11.4852 145.539 12.0775C145.668 13.2223 145.858 14.3594 146.107 15.4839L146.131 15.5885C146.189 15.9059 146.173 16.1381 146.038 16.2388C145.992 16.2691 145.94 16.2878 145.885 16.2932C145.831 16.2986 145.776 16.2905 145.725 16.2698C145.493 16.1923 145.281 15.7781 145.192 15.5768L145.172 15.5304C144.825 14.663 144.532 13.7749 144.295 12.871L144.276 12.8091C144.276 12.8091 144.226 12.631 144.079 12.6001C143.932 12.5691 143.805 12.6001 143.584 12.8517C143.275 13.2388 143.523 14.1872 143.627 14.7214C144.164 17.462 146.355 21.7433 150.4 23.3652C153.518 24.6156 155.454 23.0285 159.379 19.5794C159.742 19.2742 160.01 18.8712 160.152 18.4181C160.176 18.3115 160.175 18.2006 160.149 18.0943C160.123 17.988 160.072 17.8895 160.001 17.8065Z" fill="#FF1400"/>
<path d="M168.485 7.61035C167.284 4.02971 165.236 2.43487 164.888 2.1639C164.541 1.86386 164.15 1.61848 163.729 1.43616C163.629 1.40713 163.525 1.39024 163.42 1.38583H163.37C163.305 1.38406 163.241 1.40013 163.185 1.43229C163.169 1.44993 163.157 1.47092 163.15 1.49369C163.144 1.51647 163.142 1.54046 163.146 1.5639C163.238 1.81183 163.397 2.02905 163.606 2.191C164.212 2.77753 164.778 3.4034 165.302 4.06454C165.476 4.30841 165.565 4.62196 165.302 4.79229C165.249 4.82325 165.189 4.83957 165.128 4.83957C165.067 4.83957 165.007 4.82325 164.954 4.79229C164.822 4.71554 164.701 4.6204 164.595 4.50971C163.323 3.29583 161.967 2.17306 160.538 1.14971C160.329 0.994623 160.09 0.885772 159.836 0.830378C159.583 0.774984 159.32 0.774314 159.066 0.828414L158.985 0.855511L158.927 0.874865L158.842 0.925188H158.823L158.788 0.956157C158.746 0.997505 158.714 1.04781 158.695 1.10325C158.68 1.17472 158.685 1.24899 158.711 1.31748C158.736 1.38598 158.78 1.44591 158.838 1.49035C159.371 1.96648 161.979 4.25809 162.423 4.76519C162.868 5.27229 162.852 5.50454 162.69 5.671C162.454 5.911 162.083 5.671 161.979 5.62067H162.006C161.899 5.55486 161.797 5.48111 161.701 5.40003C160.18 4.23215 158.584 3.16411 156.926 2.20261C156.195 1.83874 155.933 1.72261 155.283 2.07099L155.214 2.11358C155.114 2.16295 155.026 2.23529 154.959 2.32474C154.892 2.41419 154.847 2.51822 154.828 2.62841C154.82 2.75556 154.851 2.88203 154.914 2.99213C154.978 3.10223 155.073 3.19112 155.187 3.24777C157.949 5.11745 158.541 5.43099 160.731 7.09164C160.897 7.21938 161.288 7.57938 160.936 7.92777C160.875 7.97001 160.807 7.99906 160.734 8.01306C160.661 8.02706 160.587 8.0257 160.515 8.00906C160.277 7.94902 160.05 7.84818 159.846 7.71099C158.433 6.8714 156.966 6.12779 155.453 5.48519C155.252 5.38957 155.028 5.35062 154.806 5.37248C154.584 5.39434 154.372 5.4762 154.192 5.60933C154.013 5.74245 153.873 5.92185 153.788 6.12837C153.702 6.33489 153.674 6.56079 153.707 6.78196C153.81 7.04597 154.01 7.25973 154.267 7.37809C155.813 8.2839 157.018 8.81422 158.544 9.75874C159.027 10.0529 159.108 10.0916 159.58 10.4052C160.117 10.7691 160.944 11.2955 161.145 11.9536C161.192 12.0986 161.217 12.2501 161.218 12.4026C161.221 12.5852 161.174 12.7652 161.084 12.9239C160.994 13.0825 160.862 13.2139 160.704 13.3045C159.958 13.8155 158.629 13.6645 157.466 13.5871C157.219 13.5678 156.798 13.5407 156.543 13.5407C155.936 13.5407 155.612 13.6878 155.426 13.9742C155.293 14.2621 155.232 14.5785 155.249 14.8955C155.251 14.9707 155.257 15.0456 155.268 15.12C155.277 15.2128 155.309 15.3019 155.361 15.3794V15.4026C155.635 15.751 156.176 15.8633 156.783 15.9329C157.868 15.9949 159.008 16.0142 160.329 16.0413C163.42 16.1033 166.928 15.9097 168.304 14.0284C169.266 12.7007 169.2 9.67745 168.485 7.61035Z" fill="#FF1400"/>
<path style="mix-blend-mode:multiply" d="M169.927 11.969C169.927 14.6739 169.126 17.318 167.626 19.567C166.126 21.816 163.994 23.569 161.5 24.6041C159.006 25.6392 156.261 25.91 153.613 25.3823C150.966 24.8546 148.533 23.5521 146.624 21.6395C144.715 19.7268 143.415 17.29 142.889 14.6371C142.362 11.9841 142.632 9.23433 143.665 6.73535C144.698 4.23636 146.448 2.10044 148.693 0.597689C150.938 -0.905063 153.577 -1.70715 156.276 -1.70715C159.897 -1.70715 163.369 -0.266281 165.929 2.29849C168.489 4.86326 169.927 8.34184 169.927 11.969Z" fill="url(#paint19_radial_18198_607)"/>
<path d="M158.885 0.855469C158.854 0.868154 158.825 0.885095 158.8 0.905792L158.885 0.855469Z" fill="#FF6659"/>
<path d="M153.742 17.6826C153.742 17.6361 153.742 17.5858 153.742 17.5355C153.742 17.4851 153.742 17.4851 153.742 17.4619C153.744 17.453 153.744 17.4438 153.742 17.4348C153.742 17.3303 153.766 17.2219 153.781 17.1135C153.758 17.3024 153.745 17.4923 153.742 17.6826Z" fill="#FF6659"/>
<path d="M158.745 0.948327L158.781 0.917358L158.745 0.948327Z" fill="#FF6659"/>
<path d="M160.55 8.03992H160.53H160.476C160.501 8.04208 160.525 8.04208 160.55 8.03992Z" fill="#FF6659"/>
<path d="M149.886 6.78958H149.867L150.014 6.76636L149.886 6.78958Z" fill="#FF6659"/>
<path d="M148.708 14.3224C148.708 14.2799 148.708 14.2373 148.708 14.1947C148.712 14.2373 148.708 14.276 148.708 14.3224Z" fill="#FF6659"/>
<path d="M160.175 18.1122C160.177 18.1289 160.177 18.1458 160.175 18.1625C160.177 18.1458 160.177 18.1289 160.175 18.1122Z" fill="#FF6659"/>
<path d="M154.959 2.29923L154.982 2.276L154.959 2.29923Z" fill="#FF6659"/>
<path d="M155.005 2.25668C155.057 2.21234 155.111 2.17098 155.168 2.13281C155.11 2.16906 155.056 2.21052 155.005 2.25668Z" fill="#FF6659"/>
<path d="M155.287 15.3716L155.319 15.418L155.287 15.3716Z" fill="#FF6659"/>
<path d="M160.179 18.1625C160.181 18.1457 160.181 18.1289 160.179 18.1121C160.181 18.0812 160.181 18.0502 160.179 18.0192C160.147 17.8794 160.086 17.7477 160.001 17.6321C159.906 17.4952 159.791 17.3726 159.661 17.2683C159.433 17.0747 158.749 16.7883 158 17.4386L157.942 17.4928C157.169 18.2012 155.736 19.5212 154.669 19.2696C153.928 19.0954 153.7 18.4954 153.773 17.5238C153.773 17.5741 153.773 17.6244 153.773 17.6709C153.719 18.4218 153.819 19.1767 154.658 19.3702C155.778 19.6334 157.185 18.3405 158.023 17.5702L158.081 17.516C158.278 17.3102 158.543 17.1822 158.826 17.1552C159.11 17.1282 159.394 17.204 159.626 17.3689C159.769 17.4986 159.895 17.6455 160.001 17.8063C160.073 17.8885 160.124 17.9863 160.151 18.0918C160.177 18.1973 160.179 18.3077 160.156 18.4141C160.159 18.4333 160.159 18.453 160.156 18.4721C160.167 18.4382 160.175 18.4032 160.179 18.3676C160.183 18.3342 160.183 18.3004 160.179 18.267C160.179 18.267 160.179 18.2438 160.179 18.236C160.181 18.2115 160.181 18.1869 160.179 18.1625Z" fill="#FF6659"/>
<path d="M153.773 17.4193C153.775 17.4282 153.775 17.4375 153.773 17.4464C153.775 17.4375 153.775 17.4282 153.773 17.4193Z" fill="#FF6659"/>
<path d="M153.801 17.1135C153.801 17.2218 153.773 17.3302 153.761 17.4347C153.761 17.3225 153.789 17.2141 153.801 17.1057C153.801 17.1083 153.801 17.1109 153.801 17.1135Z" fill="#FF6659"/>
<path d="M150.682 6.90956C150.864 7.06827 150.902 7.25021 150.891 7.61021L150.813 8.90311L150.771 9.67731C150.713 11.0128 150.709 12.2205 150.771 13.3625L150.802 14.1367V14.2063C150.802 14.5354 150.844 14.9805 151.242 15.1044C151.64 15.2283 151.779 14.8644 151.884 14.5392C151.882 14.5469 151.882 14.5548 151.884 14.5625C151.884 14.5934 151.86 14.6244 151.853 14.6515C151.845 14.6786 151.853 14.6515 151.853 14.6515C151.839 14.7124 151.814 14.7699 151.777 14.8202C151.74 14.8706 151.694 14.9128 151.64 14.9441C151.586 14.9754 151.527 14.9952 151.465 15.0021C151.403 15.0091 151.34 15.003 151.281 14.9844C150.96 14.8915 150.937 14.5005 150.922 14.187V14.1173L150.891 13.3625C150.833 12.2012 150.837 11.0167 150.891 9.68505L150.933 8.91085L150.995 7.61408C151.014 7.19989 150.956 7.05279 150.798 6.92118C150.569 6.77491 150.292 6.72227 150.025 6.77408L149.878 6.79731C150.013 6.75778 150.154 6.74734 150.292 6.7667C150.431 6.78606 150.564 6.83476 150.682 6.90956Z" fill="#FF6659"/>
<path d="M144.079 12.6153C144.226 12.6463 144.276 12.8244 144.276 12.8244L144.295 12.8863C144.532 13.7901 144.825 14.6783 145.172 15.5457L145.192 15.5921C145.281 15.7934 145.493 16.2076 145.725 16.285C145.776 16.3077 145.833 16.3171 145.889 16.3124C145.945 16.3077 145.999 16.2889 146.046 16.2579C146.181 16.1573 146.196 15.925 146.138 15.6076C146.138 15.565 146.138 15.5263 146.111 15.4798C146.189 15.8437 146.169 16.0528 146.022 16.165C145.985 16.1894 145.943 16.2046 145.898 16.2093C145.854 16.214 145.809 16.2081 145.767 16.1921C145.578 16.1263 145.381 15.7276 145.296 15.5534L145.273 15.5108C144.929 14.647 144.639 13.7628 144.404 12.8631V12.7973C144.393 12.7346 144.364 12.6766 144.32 12.631C144.275 12.5853 144.218 12.5542 144.156 12.5418C143.948 12.4992 143.731 12.7005 143.608 12.8708C143.805 12.6076 143.948 12.5882 144.079 12.6153Z" fill="#FF6659"/>
<path d="M146.617 8.96119C146.799 9.04635 146.842 9.29797 146.857 9.43345C146.938 10.1302 147.027 10.6528 147.154 11.4386L147.232 11.8993C147.34 12.6734 147.475 13.4476 147.618 14.2218L147.664 14.4193C147.738 14.7096 147.854 15.0735 148.252 15.0618C148.65 15.0502 148.708 14.818 148.7 14.1522V14.2025C148.7 14.2451 148.7 14.2876 148.7 14.3302V14.4618C148.661 14.7599 148.549 14.9457 148.259 14.9496C147.97 14.9535 147.85 14.667 147.784 14.3844L147.738 14.1947C147.583 13.4205 147.448 12.6464 147.352 11.8722L147.274 11.4115C147.143 10.6373 147.058 10.1031 146.977 9.40635C146.934 9.08119 146.849 8.96506 146.702 8.89926C146.596 8.87853 146.487 8.87915 146.381 8.90107C146.274 8.923 146.174 8.9658 146.084 9.027C146.162 8.97462 146.25 8.94135 146.343 8.92991C146.436 8.91847 146.53 8.92919 146.617 8.96119Z" fill="#FF6659"/>
<path d="M155.226 15.1508C155.215 15.0765 155.208 15.0015 155.206 14.9263C155.189 14.6093 155.25 14.2929 155.384 14.005C155.569 13.7186 155.894 13.5676 156.501 13.5715C156.756 13.5715 157.177 13.5986 157.424 13.6179C158.583 13.6954 159.916 13.8463 160.662 13.3354C160.82 13.2447 160.951 13.1133 161.042 12.9547C161.132 12.796 161.178 12.6161 161.176 12.4334C161.176 12.2867 161.156 12.1406 161.114 11.9999C161.18 12.2279 161.171 12.4712 161.088 12.6936C161.005 12.9161 160.853 13.1059 160.654 13.2347C159.854 13.7767 158.517 13.5908 157.354 13.5134C157.246 13.5134 156.968 13.4786 156.52 13.4708C156.299 13.4325 156.073 13.4522 155.862 13.5283C155.651 13.6043 155.464 13.7339 155.318 13.9044C155.16 14.2173 155.097 14.57 155.137 14.9186C155.142 15.0459 155.177 15.1703 155.237 15.2825C155.251 15.3135 155.268 15.3433 155.287 15.3715L155.318 15.4102C155.267 15.3327 155.235 15.2436 155.226 15.1508Z" fill="#FF6659"/>
<path d="M160.897 7.94701C161.249 7.59862 160.859 7.23862 160.693 7.11088C158.502 5.45023 157.911 5.13668 155.148 3.26701C155.034 3.21036 154.94 3.12147 154.876 3.01137C154.812 2.90127 154.782 2.7748 154.789 2.64765C154.808 2.53746 154.854 2.43342 154.921 2.34397C154.988 2.25453 155.075 2.18218 155.175 2.13281C155.119 2.17098 155.065 2.21234 155.013 2.25668L154.99 2.27604L154.967 2.29926C154.841 2.40592 154.756 2.55187 154.723 2.71346C154.717 2.8435 154.748 2.97267 154.813 3.08534C154.878 3.19801 154.974 3.28935 155.09 3.3483C156.817 4.55991 158.741 5.72507 160.6 7.17668C160.816 7.34701 160.963 7.50572 160.944 7.69152C160.94 7.77959 160.905 7.86345 160.845 7.92753C160.784 7.9916 160.703 8.03153 160.615 8.03991H160.557C160.617 8.04995 160.679 8.04684 160.738 8.0308C160.796 8.01477 160.851 7.98618 160.897 7.94701Z" fill="#FF6659"/>
<path d="M162.659 5.67473C162.822 5.50828 162.818 5.24506 162.393 4.76893C161.968 4.2928 159.34 1.97022 158.807 1.49409C158.749 1.44965 158.705 1.38972 158.68 1.32122C158.655 1.25272 158.649 1.17845 158.664 1.10699C158.684 1.05155 158.715 1.00124 158.757 0.959894L158.792 0.928928H158.811C158.837 0.908231 158.866 0.89129 158.896 0.878605L158.954 0.85925L159.027 0.832153C158.855 0.866944 158.703 0.966737 158.602 1.11086C158.568 1.19441 158.562 1.28691 158.585 1.37427C158.608 1.46163 158.659 1.53905 158.73 1.59473C159.244 2.06699 161.821 4.32764 162.3 4.86183C162.655 5.24893 162.752 5.55473 162.493 5.72506C162.4 5.78312 162.269 5.8257 161.975 5.66312H161.948C162.041 5.69022 162.412 5.91473 162.659 5.67473Z" fill="#FF6659"/>
<path d="M164.916 4.7767C164.968 4.80766 165.028 4.82398 165.09 4.82398C165.151 4.82398 165.211 4.80766 165.263 4.7767C165.542 4.60638 165.453 4.29283 165.263 4.04896C164.74 3.38781 164.173 2.76194 163.567 2.17541C163.366 2.01092 163.213 1.79394 163.127 1.54832C163.123 1.52488 163.125 1.50089 163.131 1.47811C163.138 1.45533 163.15 1.43435 163.166 1.4167C163.222 1.38454 163.286 1.36848 163.351 1.37025H163.432C163.317 1.35413 163.199 1.37443 163.096 1.42832C163.077 1.44188 163.061 1.45918 163.049 1.47916C163.037 1.49913 163.029 1.52135 163.026 1.54445C163.007 1.73025 163.208 1.93154 163.521 2.24896C164.143 2.85087 164.72 3.49777 165.248 4.18444C165.364 4.36251 165.414 4.59477 165.186 4.73799C165.145 4.75969 165.099 4.77103 165.053 4.77103C165.006 4.77103 164.961 4.75969 164.92 4.73799L164.916 4.7767Z" fill="#FF6659"/>
<path d="M18.3175 2.6167H2.47663C1.80049 2.6167 1.46436 3.82057 1.46436 5.02444C1.46436 6.22831 1.80049 7.43218 2.47663 7.43218H7.9939V20.8102C7.9939 21.4877 9.19549 21.8206 10.3971 21.8206C11.5987 21.8206 12.8003 21.4877 12.8003 20.8102V7.43218H18.3175C18.9898 7.43218 19.3259 6.22831 19.3259 5.02444C19.3259 3.82057 18.9898 2.6167 18.3175 2.6167Z" fill="white"/>
<path d="M19.9441 12.1354C19.9441 10.2214 20.5106 8.35039 21.5719 6.75894C22.6333 5.1675 24.1418 3.92712 25.9068 3.19466C27.6718 2.4622 29.6139 2.27056 31.4876 2.64396C33.3613 3.01737 35.0823 3.93905 36.4332 5.29246C37.784 6.64587 38.704 8.37022 39.0767 10.2475C39.4494 12.1247 39.2581 14.0705 38.527 15.8388C37.7959 17.6071 36.5579 19.1185 34.9695 20.1819C33.3811 21.2453 31.5136 21.8129 29.6032 21.8129C27.0414 21.8129 24.5846 20.7933 22.7732 18.9784C20.9617 17.1635 19.9441 14.702 19.9441 12.1354ZM29.6032 17.009C30.5652 17.009 31.5057 16.7232 32.3056 16.1876C33.1056 15.6521 33.7291 14.891 34.0972 14.0005C34.4654 13.1099 34.5617 12.13 34.374 11.1846C34.1863 10.2393 33.7231 9.37089 33.0428 8.68931C32.3625 8.00773 31.4957 7.54357 30.5522 7.35553C29.6086 7.16748 28.6305 7.26399 27.7417 7.63286C26.8528 8.00173 26.0931 8.62638 25.5586 9.42783C25.0241 10.2293 24.7389 11.1715 24.7389 12.1354C24.7389 12.7764 24.8651 13.4111 25.1102 14.0031C25.3554 14.5952 25.7148 15.133 26.1677 15.5857C26.6206 16.0384 27.1582 16.3971 27.7497 16.6413C28.3412 16.8856 28.975 17.0105 29.6148 17.009H29.6032Z" fill="white"/>
<path d="M70.3646 10.707C70.3657 9.07174 69.8822 7.47295 68.9753 6.11336C68.0684 4.75376 66.7789 3.6946 65.2704 3.07016C63.7619 2.44571 62.1023 2.28411 60.5021 2.60584C58.9018 2.92758 57.4329 3.71815 56.2816 4.87733C55.1299 3.71872 53.6608 2.92866 52.0605 2.60723C50.4602 2.28581 48.8007 2.44748 47.2921 3.07176C45.7836 3.69605 44.494 4.75486 43.5865 6.11408C42.6791 7.4733 42.1948 9.07177 42.1948 10.707V20.8102C42.1948 21.4877 43.4003 21.8206 44.6019 21.8206C45.8035 21.8206 47.0051 21.4877 47.0051 20.8102V10.707C47.0051 9.7933 47.3673 8.91701 48.0122 8.27092C48.6571 7.62482 49.5317 7.26185 50.4437 7.26185C51.3557 7.26185 52.2303 7.62482 52.8752 8.27092C53.52 8.91701 53.8823 9.7933 53.8823 10.707V20.8102C53.8823 21.4877 55.0839 21.8206 56.2816 21.8206C57.4794 21.8206 58.6848 21.4877 58.6848 20.8102V10.707C58.7147 9.81278 59.0903 8.96519 59.7323 8.3432C60.3743 7.72121 61.2323 7.37351 62.1254 7.37351C63.0184 7.37351 63.8765 7.72121 64.5185 8.3432C65.1605 8.96519 65.536 9.81278 65.566 10.707V20.8102C65.566 21.4877 66.7675 21.8206 67.9691 21.8206C69.1707 21.8206 70.3685 21.4877 70.3685 20.8102L70.3646 10.707Z" fill="white"/>
<path d="M140.439 10.707C140.442 9.06932 139.958 7.46792 139.05 6.10619C138.142 4.74447 136.851 3.68386 135.34 3.0591C133.829 2.43433 132.167 2.27361 130.564 2.59734C128.962 2.92108 127.492 3.71466 126.341 4.87728C125.189 3.71866 123.72 2.9286 122.12 2.60717C120.52 2.28575 118.86 2.44742 117.351 3.0717C115.843 3.69599 114.553 4.7548 113.646 6.11402C112.738 7.47324 112.254 9.07171 112.254 10.707V20.8102C112.254 21.4876 113.456 21.8205 114.657 21.8205C115.859 21.8205 117.061 21.4876 117.061 20.8102V10.707C117.061 9.79324 117.423 8.91695 118.068 8.27086C118.713 7.62477 119.587 7.26179 120.499 7.26179C121.411 7.26179 122.286 7.62477 122.931 8.27086C123.575 8.91695 123.938 9.79324 123.938 10.707V20.8102C123.938 21.4876 125.139 21.8205 126.341 21.8205C127.543 21.8205 128.744 21.4876 128.744 20.8102V10.707C128.744 9.79324 129.106 8.91695 129.751 8.27086C130.396 7.62477 131.271 7.26179 132.183 7.26179C133.095 7.26179 133.969 7.62477 134.614 8.27086C135.259 8.91695 135.621 9.79324 135.621 10.707V20.8102C135.621 21.4876 136.823 21.8205 138.025 21.8205C139.226 21.8205 140.428 21.4876 140.428 20.8102L140.439 10.707Z" fill="white"/>
<path d="M88.3884 2.6167H72.5475C71.8752 2.6167 71.5391 3.82057 71.5391 5.02444C71.5391 6.22831 71.8752 7.43218 72.5475 7.43218H78.0647V20.8102C78.0647 21.4877 79.2663 21.8206 80.4641 21.8206C81.6618 21.8206 82.8672 21.4877 82.8672 20.8102V7.43218H88.3845C89.0568 7.43218 89.3968 6.22831 89.3968 5.02444C89.3968 3.82057 89.0606 2.6167 88.3884 2.6167Z" fill="white"/>
<path d="M90.0227 12.1354C90.0227 10.2214 90.5892 8.35039 91.6506 6.75894C92.7119 5.1675 94.2205 3.92712 95.9854 3.19466C97.7504 2.4622 99.6925 2.27056 101.566 2.64396C103.44 3.01737 105.161 3.93905 106.512 5.29246C107.863 6.64587 108.783 8.37022 109.155 10.2475C109.528 12.1247 109.337 14.0705 108.606 15.8388C107.875 17.6071 106.637 19.1185 105.048 20.1819C103.46 21.2453 101.592 21.8129 99.6818 21.8129C97.12 21.8129 94.6632 20.7933 92.8518 18.9784C91.0404 17.1635 90.0227 14.702 90.0227 12.1354ZM99.6818 17.009C100.644 17.0097 101.585 16.7246 102.385 16.1895C103.186 15.6545 103.81 14.8936 104.179 14.0031C104.547 13.1127 104.644 12.1327 104.457 11.187C104.27 10.2414 103.807 9.37265 103.127 8.69068C102.446 8.00872 101.58 7.54417 100.636 7.35581C99.6924 7.16745 98.7141 7.26374 97.8251 7.63249C96.936 8.00124 96.1761 8.6259 95.6414 9.42743C95.1067 10.229 94.8213 11.1714 94.8213 12.1354C94.8213 13.4273 95.3333 14.6663 96.2447 15.5802C97.1561 16.494 98.3924 17.008 99.6818 17.009Z" fill="white"/>
</g>
<defs>
<linearGradient id="paint0_linear_18198_607" x1="147.73" y1="3.4064" x2="164.855" y2="20.4991" gradientUnits="userSpaceOnUse">
<stop offset="0.31" stop-color="white"/>
<stop offset="0.4" stop-color="#F7F7F7"/>
<stop offset="0.53" stop-color="#E3E3E3"/>
<stop offset="0.68" stop-color="#C1C1C1"/>
<stop offset="0.74" stop-color="#B3B3B3"/>
</linearGradient>
<radialGradient id="paint1_radial_18198_607" cx="0" cy="0" r="1" gradientUnits="userSpaceOnUse" gradientTransform="translate(156.276 11.969) scale(12.0855 12.1084)">
<stop offset="0.85" stop-color="white"/>
<stop offset="0.88" stop-color="#FAFAFA"/>
<stop offset="0.93" stop-color="#EBEBEB"/>
<stop offset="0.97" stop-color="#D6D6D6"/>
</radialGradient>
<radialGradient id="paint2_radial_18198_607" cx="0" cy="0" r="1" gradientUnits="userSpaceOnUse" gradientTransform="translate(156.276 11.969) scale(12.0855 12.1084)">
<stop offset="0.71" stop-color="white"/>
<stop offset="0.82" stop-color="#FAFAFA"/>
<stop offset="0.95" stop-color="#EBECEC"/>
<stop offset="1" stop-color="#E3E4E4"/>
</radialGradient>
<linearGradient id="paint3_linear_18198_607" x1="155.249" y1="5.89546" x2="160.473" y2="4.97754" gradientUnits="userSpaceOnUse">
<stop stop-color="#FFAA9B"/>
<stop offset="0.05" stop-color="#FF1400"/>
<stop offset="0.37" stop-color="#FF1400"/>
<stop offset="0.47" stop-color="#FF1804"/>
<stop offset="0.56" stop-color="#FF230F"/>
<stop offset="0.66" stop-color="#FF3623"/>
<stop offset="0.75" stop-color="#FF503E"/>
<stop offset="0.84" stop-color="#FF7261"/>
<stop offset="0.93" stop-color="#FF9B8B"/>
<stop offset="0.96" stop-color="#FFAA9B"/>
</linearGradient>
<linearGradient id="paint4_linear_18198_607" x1="158.212" y1="1.58316" x2="162.763" y2="5.39146" gradientUnits="userSpaceOnUse">
<stop stop-color="#FFAA9B"/>
<stop offset="0.12" stop-color="#FF1400"/>
<stop offset="0.65" stop-color="#FF1400"/>
<stop offset="1" stop-color="#FFAA9B"/>
</linearGradient>
<linearGradient id="paint5_linear_18198_607" x1="162.617" y1="2.00122" x2="165.496" y2="4.41133" gradientUnits="userSpaceOnUse">
<stop offset="0.01" stop-color="#FFAA9B"/>
<stop offset="0.12" stop-color="#FF1400"/>
<stop offset="0.37" stop-color="#FF1400"/>
<stop offset="0.47" stop-color="#FF1804"/>
<stop offset="0.56" stop-color="#FF230F"/>
<stop offset="0.66" stop-color="#FF3623"/>
<stop offset="0.75" stop-color="#FF503E"/>
<stop offset="0.84" stop-color="#FF7261"/>
<stop offset="0.93" stop-color="#FF9B8B"/>
<stop offset="0.96" stop-color="#FFAA9B"/>
</linearGradient>
<linearGradient id="paint6_linear_18198_607" x1="154.116" y1="19.0954" x2="159.198" y2="16.1695" gradientUnits="userSpaceOnUse">
<stop offset="0.04" stop-color="#FFAA9B"/>
<stop offset="0.45" stop-color="#FF1400"/>
<stop offset="0.72" stop-color="#FF1400"/>
<stop offset="0.88" stop-color="#FF4E3A"/>
<stop offset="1" stop-color="#FF1400"/>
</linearGradient>
<linearGradient id="paint7_linear_18198_607" x1="145.068" y1="16.2076" x2="145.068" y2="12.4141" gradientUnits="userSpaceOnUse">
<stop offset="0.03" stop-color="#FFAA9B"/>
<stop offset="0.41" stop-color="#FF1400"/>
<stop offset="0.86" stop-color="#FF1400"/>
<stop offset="0.87" stop-color="#FF1400"/>
<stop offset="1" stop-color="#FFAA9B"/>
</linearGradient>
<linearGradient id="paint8_linear_18198_607" x1="146.88" y1="14.5974" x2="148.299" y2="9.30712" gradientUnits="userSpaceOnUse">
<stop stop-color="#FFAA9B"/>
<stop offset="0.04" stop-color="#FFA495"/>
<stop offset="0.08" stop-color="#FF9585"/>
<stop offset="0.13" stop-color="#FF7B6A"/>
<stop offset="0.19" stop-color="#FF5745"/>
<stop offset="0.25" stop-color="#FF2916"/>
<stop offset="0.27" stop-color="#FF1400"/>
<stop offset="0.85" stop-color="#FF1400"/>
<stop offset="0.86" stop-color="#FF1400"/>
<stop offset="1" stop-color="#FFAA9B"/>
</linearGradient>
<linearGradient id="paint9_linear_18198_607" x1="149.48" y1="13.9742" x2="152.867" y2="8.12296" gradientUnits="userSpaceOnUse">
<stop offset="0.06" stop-color="#FFAA9B"/>
<stop offset="0.37" stop-color="#FF1400"/>
<stop offset="0.81" stop-color="#FF1400"/>
<stop offset="0.88" stop-color="#FF1400"/>
<stop offset="1" stop-color="#FFAA9B"/>
</linearGradient>
<linearGradient id="paint10_linear_18198_607" x1="156.234" y1="15.2477" x2="160.426" y2="11.0633" gradientUnits="userSpaceOnUse">
<stop offset="0.61" stop-color="#FF1400"/>
<stop offset="0.74" stop-color="#FF6755"/>
<stop offset="0.85" stop-color="#FFAA9B"/>
</linearGradient>
<linearGradient id="paint11_linear_18198_607" x1="155.249" y1="5.89546" x2="160.473" y2="4.97754" gradientUnits="userSpaceOnUse">
<stop stop-color="white"/>
<stop offset="0.05" stop-color="#E3E4E4"/>
<stop offset="0.37" stop-color="#E3E4E4"/>
<stop offset="0.6" stop-color="#E7E8E8"/>
<stop offset="0.81" stop-color="#F2F3F3"/>
<stop offset="0.96" stop-color="white"/>
</linearGradient>
<linearGradient id="paint12_linear_18198_607" x1="158.212" y1="1.58316" x2="162.763" y2="5.39146" gradientUnits="userSpaceOnUse">
<stop stop-color="white"/>
<stop offset="0.12" stop-color="#E3E4E4"/>
<stop offset="0.65" stop-color="#E3E4E4"/>
<stop offset="1" stop-color="white"/>
</linearGradient>
<linearGradient id="paint13_linear_18198_607" x1="162.617" y1="2.00122" x2="165.496" y2="4.41133" gradientUnits="userSpaceOnUse">
<stop offset="0.01" stop-color="white"/>
<stop offset="0.12" stop-color="#E3E4E4"/>
<stop offset="0.37" stop-color="#E3E4E4"/>
<stop offset="0.6" stop-color="#E7E8E8"/>
<stop offset="0.81" stop-color="#F2F3F3"/>
<stop offset="0.96" stop-color="white"/>
</linearGradient>
<linearGradient id="paint14_linear_18198_607" x1="154.116" y1="19.0954" x2="159.198" y2="16.1695" gradientUnits="userSpaceOnUse">
<stop offset="0.05" stop-color="white"/>
<stop offset="0.2" stop-color="#F9F9F9"/>
<stop offset="0.4" stop-color="#E8E9E9"/>
<stop offset="0.45" stop-color="#E3E4E4"/>
<stop offset="0.72" stop-color="#E3E4E4"/>
<stop offset="0.88" stop-color="white"/>
<stop offset="1" stop-color="#E3E4E4"/>
</linearGradient>
<linearGradient id="paint15_linear_18198_607" x1="145.068" y1="16.2076" x2="145.068" y2="12.4141" gradientUnits="userSpaceOnUse">
<stop offset="0.03" stop-color="white"/>
<stop offset="0.41" stop-color="#E3E4E4"/>
<stop offset="0.86" stop-color="#E3E4E4"/>
<stop offset="0.87" stop-color="#E3E4E4"/>
<stop offset="1" stop-color="white"/>
</linearGradient>
<linearGradient id="paint16_linear_18198_607" x1="146.88" y1="14.5974" x2="148.299" y2="9.30712" gradientUnits="userSpaceOnUse">
<stop stop-color="white"/>
<stop offset="0.1" stop-color="#F9FAFA"/>
<stop offset="0.23" stop-color="#E9EAEA"/>
<stop offset="0.27" stop-color="#E3E4E4"/>
<stop offset="0.85" stop-color="#E3E4E4"/>
<stop offset="0.86" stop-color="#E3E4E4"/>
<stop offset="1" stop-color="white"/>
</linearGradient>
<linearGradient id="paint17_linear_18198_607" x1="149.48" y1="13.9742" x2="152.867" y2="8.12296" gradientUnits="userSpaceOnUse">
<stop offset="0.06" stop-color="white"/>
<stop offset="0.37" stop-color="#E3E4E4"/>
<stop offset="0.81" stop-color="#E3E4E4"/>
<stop offset="0.88" stop-color="#E3E4E4"/>
<stop offset="1" stop-color="white"/>
</linearGradient>
<linearGradient id="paint18_linear_18198_607" x1="156.234" y1="15.2477" x2="160.426" y2="11.0633" gradientUnits="userSpaceOnUse">
<stop offset="0.61" stop-color="#E3E4E4"/>
<stop offset="0.85" stop-color="white"/>
</linearGradient>
<radialGradient id="paint19_radial_18198_607" cx="0" cy="0" r="1" gradientUnits="userSpaceOnUse" gradientTransform="translate(156.276 11.969) scale(13.6502 13.6761)">
<stop offset="0.88" stop-color="#FFEDEA"/>
<stop offset="0.91" stop-color="#FF5B49"/>
<stop offset="0.93" stop-color="#FF2814"/>
<stop offset="0.94" stop-color="#FF1400"/>
</radialGradient>
<clipPath id="clip0_18198_607">
<rect width="170" height="24" fill="white"/>
</clipPath>
</defs>
</svg>
