<svg width="69" height="21" viewBox="0 0 69 21" fill="none" xmlns="http://www.w3.org/2000/svg">
<path d="M16.9203 10.6165V16.0079H14.0005L13.9766 4.44821H16.9203V5.62537C17.0639 5.41349 17.9256 4.30694 20.3668 4.44821V7.24987C20.3668 7.24987 17.04 7.0144 16.9203 10.334C16.9203 10.334 16.9203 10.5223 16.9203 10.6165Z" fill="#EA6120"/>
<path d="M55.8377 10.5455L55.8617 15.984H52.942L52.918 4.42426H55.8377V5.55432C55.9814 5.34245 56.843 4.2359 59.2843 4.37716V7.15527C59.2843 7.15527 55.9574 6.91985 55.8377 10.2394C55.8377 10.263 55.8377 10.4513 55.8377 10.5455Z" fill="#EA6120"/>
<path d="M30.828 14.5475C29.6553 15.7011 28.2193 16.2661 26.52 16.2661C24.8207 16.2661 23.3847 15.7011 22.212 14.5475C21.0392 13.3938 20.4648 12.0048 20.4648 10.3097C20.4648 8.61459 21.0392 7.22551 22.212 6.0719C23.3847 4.91828 24.7968 4.35327 26.52 4.35327C28.2193 4.35327 29.6553 4.91828 30.828 6.0719C32.0007 7.22551 32.5991 8.61459 32.5991 10.3097C32.5991 12.0048 32.0007 13.3938 30.828 14.5475ZM24.3181 12.5463C24.8925 13.1113 25.6584 13.4174 26.5439 13.4174C27.4295 13.4174 28.1714 13.1113 28.7697 12.5463C29.3681 11.9813 29.6553 11.2043 29.6553 10.3097C29.6553 9.41506 29.3441 8.66165 28.7697 8.07308C28.1953 7.50803 27.4295 7.202 26.5439 7.202C25.6584 7.202 24.9404 7.50803 24.3181 8.07308C23.7437 8.63814 23.4326 9.41506 23.4326 10.3097C23.4326 11.2043 23.7198 11.9577 24.3181 12.5463Z" fill="#EA6120"/>
<path d="M42.9588 11.4873C43.3419 12.8999 44.4188 13.5826 46.1419 13.5826C47.2429 13.5826 48.1044 13.2294 48.6789 12.4761L51.0485 13.818C49.9476 15.419 48.2721 16.2194 46.0943 16.2194C44.2274 16.2194 42.7197 15.6544 41.5708 14.5243C40.4458 13.4178 39.8477 12.0052 39.8477 10.2866C39.8477 8.59145 40.3981 7.17886 41.5467 6.07231C42.6477 4.9658 44.1077 4.3772 45.8789 4.3772C47.5539 4.3772 48.9183 4.94225 49.9952 6.09586C51.0722 7.22592 51.6226 8.615 51.6226 10.3101C51.6226 10.6632 51.575 11.087 51.5029 11.4873H42.9588ZM42.9111 9.22711H48.7029C48.5356 8.47373 48.2005 7.90869 47.65 7.50845C47.1232 7.15531 46.549 6.94343 45.8789 6.94343C45.089 6.94343 44.4428 7.15531 43.94 7.532C43.4135 7.97933 43.0544 8.5208 42.9111 9.22711Z" fill="#EA6120"/>
<path d="M63.1583 7.86196C63.1583 8.16803 63.3737 8.40346 63.7568 8.59182C64.1395 8.78015 64.6424 8.92141 65.2168 9.08622C65.791 9.22748 66.3655 9.41581 66.9399 9.62772C67.5144 9.8396 67.9929 10.1928 68.4 10.7107C68.7827 11.2051 68.9981 11.8408 68.9981 12.6177C68.9981 13.7478 68.5674 14.6424 67.6818 15.2546C66.7962 15.8667 65.7193 16.1963 64.427 16.1963C62.1054 16.1963 60.502 15.3016 59.6641 13.5359L62.2011 12.1233C62.5361 13.1121 63.278 13.583 64.427 13.583C65.4559 13.583 66.0063 13.2534 66.0063 12.6177C66.0063 12.3116 65.791 12.0762 65.4082 11.8878C65.0251 11.6995 64.5227 11.5347 63.9482 11.3934C63.3737 11.2286 62.7996 11.0639 62.2251 10.8284C61.6506 10.593 61.1718 10.2634 60.765 9.76898C60.3823 9.2981 60.1669 8.68598 60.1669 7.95616C60.1669 6.87316 60.5736 5.97852 61.4112 5.36641C62.2491 4.73075 63.254 4.40112 64.4746 4.40112C65.4082 4.40112 66.2217 4.61304 66.9876 5.01327C67.7535 5.41351 68.352 6.00207 68.7827 6.75545L66.2938 8.09742C65.9347 7.34401 65.3125 6.96732 64.4746 6.96732C64.1159 6.96732 63.7808 7.06152 63.5174 7.2263C63.302 7.36756 63.1583 7.57947 63.1583 7.86196Z" fill="#EA6120"/>
<path d="M12.2778 4.44811H9.40584V5.50756C8.40062 4.80125 7.27576 4.42456 5.95943 4.42456H5.93549C5.88761 4.42456 5.83976 4.42456 5.76794 4.42456C4.57131 4.42456 3.49427 4.73064 2.5848 5.38985C1.02913 6.4022 0 8.14437 0 10.122C0 10.7812 0.119673 11.4404 0.335074 12.029C0.598341 12.8766 1.07701 13.6535 1.77108 14.3363C2.89595 15.4428 4.2841 16.0078 5.95943 16.0078C7.27576 16.0078 8.42456 15.6546 9.40584 14.9248V15.3722C9.40584 16.2432 9.14258 16.926 8.61604 17.3969C8.08951 17.8677 7.37149 18.1032 6.43808 18.1032C5.02602 18.1032 4.02079 17.5852 3.47034 16.5493L0.981279 17.9619C1.48388 18.8565 2.20188 19.5158 3.13528 19.9866C4.06867 20.4575 5.14568 20.6694 6.3663 20.6694C7.99378 20.6694 9.3819 20.222 10.5546 19.3038C11.7034 18.3857 12.2778 17.0673 12.2778 15.3486V4.44811ZM3.78147 12.3586C3.23101 11.7936 2.96775 11.0873 2.96775 10.2162C2.96775 9.34509 3.25494 8.61526 3.82935 8.05021C4.40376 7.4852 5.12174 7.20267 5.98337 7.20267C6.84495 7.20267 7.56297 7.4852 8.13735 8.05021C8.71176 8.61526 8.99897 9.34509 8.99897 10.2162C8.99897 11.0873 8.71176 11.8171 8.13735 12.3822C7.56297 12.9472 6.84495 13.2297 5.98337 13.2297C5.83976 13.2297 5.74404 13.2297 5.60044 13.2062C4.85848 13.112 4.26016 12.8059 3.78147 12.3586Z" fill="#EA6120"/>
<path d="M39.6833 4.40108H37.314C37.4336 3.2239 38.2236 2.65887 39.7073 2.77658V0.0220259C37.9362 -0.0956899 36.5959 0.257459 35.7104 1.10501C34.8727 1.8584 34.442 2.98847 34.3701 4.42459H32.7427V6.37868L32.7188 7.32041H34.3462L34.3941 16.0079H37.314L37.2661 7.29686H39.6833V4.40108Z" fill="#EA6120"/>
</svg>
