<svg width="97" height="17" viewBox="0 0 97 17" fill="none" xmlns="http://www.w3.org/2000/svg">
<path d="M19.1455 0L15.6867 13.5204L29.1262 17L32.585 3.4796L19.1455 0ZM63.7494 1.51405V15.475H77.6269V1.51405H63.7494ZM79.2852 1.51405L84.7059 8.41005L79.2852 15.475H85.954L88.0773 12.7016L90.2755 15.475H97L91.412 8.37281L96.6647 1.51405H89.9962L88.0403 4.08159L85.991 1.51405H79.2852ZM0 1.51436V15.4753H6.14721V10.3033C7.80501 10.3033 8.58734 11.7647 8.84807 15.4753H15.2186C14.9392 12.7955 14.0265 10.4909 12.5364 8.78551C13.5608 8.07338 14.1198 6.98616 14.1198 5.69326C14.1198 3.61305 12.5737 1.51436 9.07169 1.51436H0ZM34.0179 1.51436V15.4753H43.7041C46.9454 15.4753 48.4543 13.7701 48.4543 11.6149C48.4543 10.4156 48.026 9.34751 46.275 8.41067C47.6721 7.60477 48.0817 6.55515 48.0817 5.41198C48.0817 3.80039 47.1876 1.51436 42.6983 1.51436H34.0179ZM50.3375 1.51436V15.4753H61.8677V11.9713H56.4844V1.51436H50.3375ZM40.1651 4.32533H40.5377C41.7857 4.32533 42.1584 4.90597 42.1584 5.67449C42.1584 6.6675 41.6553 7.04242 40.3141 7.04242H40.1651V4.32533ZM6.14721 4.38133H6.51981C7.67462 4.38133 7.97256 5.16858 7.97256 5.76835C7.97256 6.66781 7.4325 7.07997 6.31485 7.07997H6.14721V4.38133ZM23.1613 6.8403L25.7847 7.51926L25.1095 10.1588L22.4861 9.47949L23.1613 6.8403ZM69.333 7.1316H72.042V9.85651H69.333V7.1316ZM40.1651 9.385H40.5934C41.8788 9.385 42.3071 10.0407 42.3071 10.9591C42.3071 12.0085 41.7668 12.4021 40.3511 12.4021H40.1651V9.385Z" fill="#E31E13"/>
</svg>
