<svg xmlns="http://www.w3.org/2000/svg" width="123.586" height="30.178" viewBox="0 0 123.586 30.178"><g transform="translate(128 107.154)"><path d="M-81.789-100.4h-6.839a.95.95,0,0,0-.939.8l-2.766,17.537a.569.569,0,0,0,.475.651.534.534,0,0,0,.089.007H-88.5a.95.95,0,0,0,.939-.8l.746-4.73a.949.949,0,0,1,.938-.8h2.165c4.505,0,7.105-2.18,7.784-6.5a5.268,5.268,0,0,0-.872-4.415C-77.776-99.8-79.5-100.4-81.789-100.4ZM-81-94c-.374,2.454-2.249,2.454-4.062,2.454h-1.032l.724-4.583a.571.571,0,0,1,.563-.481h.473c1.235,0,2.4,0,3,.7A2.279,2.279,0,0,1-81-94Zm19.654-.079h-3.275a.57.57,0,0,0-.563.481l-.145.916-.229-.332c-.709-1.029-2.29-1.373-3.868-1.373A7.531,7.531,0,0,0-76.738-87.8a6.182,6.182,0,0,0,1.22,5.031A5.124,5.124,0,0,0-71.393-81.1a6.266,6.266,0,0,0,4.533-1.875l-.146.91a.57.57,0,0,0,.473.653.526.526,0,0,0,.089.007h2.95a.95.95,0,0,0,.939-.8l1.77-11.209a.568.568,0,0,0-.471-.651A.545.545,0,0,0-61.346-94.079Zm-4.565,6.374a3.65,3.65,0,0,1-3.695,3.127,2.762,2.762,0,0,1-2.2-.883,2.784,2.784,0,0,1-.514-2.3,3.666,3.666,0,0,1,3.67-3.152,2.763,2.763,0,0,1,2.184.892A2.835,2.835,0,0,1-65.911-87.705ZM-43.9-94.079h-3.291a.954.954,0,0,0-.787.417l-4.539,6.686L-54.445-93.4a.953.953,0,0,0-.912-.678h-3.234a.57.57,0,0,0-.572.568.585.585,0,0,0,.031.186l3.625,10.638-3.408,4.811a.57.57,0,0,0,.135.795.573.573,0,0,0,.33.105h3.287a.95.95,0,0,0,.781-.408l10.946-15.8a.57.57,0,0,0-.143-.793.574.574,0,0,0-.325-.1Z" fill="#253b80"/><path d="M-33.008-100.4h-6.84a.95.95,0,0,0-.938.8l-2.766,17.537a.57.57,0,0,0,.473.651.526.526,0,0,0,.089.007h3.51a.665.665,0,0,0,.656-.562l.785-4.971a.949.949,0,0,1,.938-.8h2.164c4.506,0,7.1-2.18,7.785-6.5a5.264,5.264,0,0,0-.873-4.415C-29-99.8-30.719-100.4-33.008-100.4Zm.789,6.4c-.373,2.454-2.248,2.454-4.062,2.454h-1.031l.725-4.583a.569.569,0,0,1,.562-.481h.473c1.234,0,2.4,0,3,.7A2.279,2.279,0,0,1-32.219-94Zm19.653-.079h-3.273a.567.567,0,0,0-.562.481l-.145.916-.23-.332c-.709-1.029-2.289-1.373-3.867-1.373A7.53,7.53,0,0,0-27.954-87.8a6.185,6.185,0,0,0,1.219,5.031A5.127,5.127,0,0,0-22.61-81.1a6.266,6.266,0,0,0,4.533-1.875l-.146.91a.57.57,0,0,0,.473.653.55.55,0,0,0,.091.007h2.949a.949.949,0,0,0,.938-.8L-12-93.421a.571.571,0,0,0-.477-.651A.522.522,0,0,0-12.566-94.079Zm-4.565,6.374a3.649,3.649,0,0,1-3.695,3.127,2.765,2.765,0,0,1-2.2-.883,2.791,2.791,0,0,1-.514-2.3,3.667,3.667,0,0,1,3.67-3.152,2.763,2.763,0,0,1,2.184.892A2.82,2.82,0,0,1-17.131-87.705ZM-8.7-99.924l-2.807,17.858a.57.57,0,0,0,.473.651.526.526,0,0,0,.089.007h2.822a.949.949,0,0,0,.939-.8l2.768-17.536a.57.57,0,0,0-.474-.652.522.522,0,0,0-.088-.007h-3.16A.571.571,0,0,0-8.7-99.924Z" fill="#179bd7"/><path d="M-120.734-78l.523-3.322-1.165-.027h-5.563l3.866-24.513a.316.316,0,0,1,.314-.268h9.38c3.114,0,5.263.648,6.385,1.927a4.394,4.394,0,0,1,1.023,1.917,6.921,6.921,0,0,1,.007,2.644l-.012.077v.676l.526.3a3.676,3.676,0,0,1,1.065.812,3.781,3.781,0,0,1,.864,1.938,8.2,8.2,0,0,1-.123,2.812,9.9,9.9,0,0,1-1.152,3.183,6.536,6.536,0,0,1-1.825,2,7.4,7.4,0,0,1-2.458,1.109,12.258,12.258,0,0,1-3.072.355h-.73a2.213,2.213,0,0,0-1.427.525,2.213,2.213,0,0,0-.744,1.328l-.055.3-.924,5.855-.042.215a.185.185,0,0,1-.058.125.153.153,0,0,1-.1.035Z" fill="#253b80"/><path d="M-104.952-99.487q-.042.269-.1.55c-1.237,6.351-5.469,8.545-10.874,8.545h-2.752A1.336,1.336,0,0,0-120-89.26l-1.409,8.936-.4,2.533a.7.7,0,0,0,.585.805.681.681,0,0,0,.11.009h4.881a1.175,1.175,0,0,0,1.16-.99l.048-.248.919-5.832.059-.32a1.174,1.174,0,0,1,1.16-.992h.73c4.729,0,8.431-1.92,9.513-7.476.452-2.321.218-4.259-.978-5.622A4.657,4.657,0,0,0-104.952-99.487Z" fill="#179bd7"/><path d="M-106.246-100a9.9,9.9,0,0,0-1.2-.267,15.276,15.276,0,0,0-2.426-.177h-7.352a1.173,1.173,0,0,0-1.159.992l-1.564,9.906-.045.289a1.336,1.336,0,0,1,1.321-1.132h2.752c5.4,0,9.637-2.195,10.874-8.545.037-.188.068-.371.1-.55a6.578,6.578,0,0,0-1.017-.429C-106.061-99.946-106.153-99.975-106.246-100Z" fill="#222d65"/><path d="M-118.386-99.455a1.169,1.169,0,0,1,1.159-.991h7.352a15.284,15.284,0,0,1,2.426.177,9.786,9.786,0,0,1,1.481.353,6.693,6.693,0,0,1,1.017.429c.368-2.347,0-3.945-1.272-5.392-1.4-1.593-3.924-2.275-7.155-2.275h-9.38a1.341,1.341,0,0,0-1.325,1.133l-3.907,24.765a.8.8,0,0,0,.67.922.744.744,0,0,0,.125.01h5.791l1.454-9.225Z" fill="#253b80"/></g></svg>