<svg xmlns="http://www.w3.org/2000/svg" width="174.004" height="38.622" viewBox="0 0 174.004 38.622"><g transform="translate(-2 -2.5)"><path d="M35.889,2.5a19.311,19.311,0,1,0,19.3,19.311A19.3,19.3,0,0,0,35.889,2.5Zm0,24.139a4.828,4.828,0,1,1,4.825-4.828A4.826,4.826,0,0,1,35.888,26.639ZM2,21.811a4.825,4.825,0,1,1,4.824,4.828A4.826,4.826,0,0,1,2,21.811" fill="#da3743"/><path d="M192.808,34.717a4.934,4.934,0,0,1,5.049,5.1c0,.167-.024.548-.047.715a.559.559,0,0,1-.524.5h-7.05a2.644,2.644,0,0,0,2.739,2.55,3.646,3.646,0,0,0,2.358-.81c.262-.215.548-.239.714,0l.929,1.239a.464.464,0,0,1-.048.715,6.21,6.21,0,0,1-4.1,1.5,5.759,5.759,0,0,1-.024-11.512Zm2.048,4.361a2.011,2.011,0,0,0-2.12-1.906,2.184,2.184,0,0,0-2.334,1.906Zm26.668-8.6h-11.2a.453.453,0,0,0-.452.453v1.954a.453.453,0,0,0,.452.453h4.041V45.514a.469.469,0,0,0,.452.453h2.215a.469.469,0,0,0,.452-.453V33.335h4.041a.453.453,0,0,0,.452-.453V30.928A.453.453,0,0,0,221.524,30.475Zm16.851,4.242a7.783,7.783,0,0,0-2.691.477V31a.545.545,0,0,0-.524-.524h-1.929a.564.564,0,0,0-.524.524V45.443a.545.545,0,0,0,.524.524h.833a.191.191,0,0,0,.048,0h.222a.53.53,0,0,0,.528-.524v-.814l.012-.039a4.81,4.81,0,0,0,3.668,1.645c3,0,5.169-2.622,5.169-5.768C243.711,37.244,241.639,34.717,238.376,34.717Zm-.262,8.795a2.524,2.524,0,0,1-2.43-1.525V38.054a4.349,4.349,0,0,1,2.286-.62,2.779,2.779,0,0,1,2.739,3.027C240.71,42.011,239.829,43.512,238.114,43.512Zm18.64-8.8a4.934,4.934,0,0,1,5.049,5.1c0,.167-.024.548-.048.715a.559.559,0,0,1-.524.5h-7.05a2.644,2.644,0,0,0,2.739,2.55,3.645,3.645,0,0,0,2.358-.81c.262-.215.548-.239.715,0l.929,1.239a.464.464,0,0,1-.048.715,6.21,6.21,0,0,1-4.1,1.5,5.759,5.759,0,0,1-.024-11.512Zm2.048,4.361a2.011,2.011,0,0,0-2.12-1.906,2.185,2.185,0,0,0-2.334,1.906Zm-78.545-4.361a4.749,4.749,0,0,0-3.593,1.641V35.48a.529.529,0,0,0-.524-.524h-1.171a.529.529,0,0,0-.524.524V49.924a.545.545,0,0,0,.524.524H176.9a.564.564,0,0,0,.524-.524V45.776a8.17,8.17,0,0,0,2.644.453,5.41,5.41,0,0,0,5.454-5.744C185.52,37.149,183.257,34.717,180.257,34.717Zm-.548,8.795a4.349,4.349,0,0,1-2.286-.62V38.96a2.524,2.524,0,0,1,2.43-1.525c1.715,0,2.6,1.5,2.6,3.051A2.779,2.779,0,0,1,179.709,43.512Zm26.223-8.795a4.44,4.44,0,0,0-3.541,1.589V35.48a.529.529,0,0,0-.524-.524h-1.246a.528.528,0,0,0-.524.524v9.963a.545.545,0,0,0,.524.524h1.762c.524,0,.691-.119.691-.524V39.15a2.423,2.423,0,0,1,2.382-1.716c1.334,0,1.906.882,1.906,2.312v5.7a.529.529,0,0,0,.524.524h1.929a.545.545,0,0,0,.524-.524v-5.7C210.338,37.077,209.433,34.717,205.932,34.717Zm20,0a13.883,13.883,0,0,0-3.763.548.5.5,0,0,0-.357.667l.238,1.24c.048.333.262.6.619.476a13.764,13.764,0,0,1,3.1-.405c1.167,0,1.572.668,1.524,2.074a8.068,8.068,0,0,0-2.12-.31c-2.786,0-4.382,1.5-4.382,3.456a3.5,3.5,0,0,0,3.715,3.766,4.817,4.817,0,0,0,3.454-1.382v.592a.529.529,0,0,0,.524.524h.194a.354.354,0,0,0,.067,0h.81a.529.529,0,0,0,.524-.524V39.508C230.071,36.5,229.357,34.717,225.927,34.717Zm1.286,8.127a2.362,2.362,0,0,1-1.977,1.168,1.453,1.453,0,0,1-1.6-1.549c0-.977.691-1.573,1.953-1.573a4.384,4.384,0,0,1,1.619.334ZM164.366,30.487a7.909,7.909,0,0,0-7.876,7.925,7.888,7.888,0,0,0,15.775,0A7.922,7.922,0,0,0,164.366,30.487Zm0,3.063a4.914,4.914,0,0,1,4.839,4.862,4.827,4.827,0,1,1-4.839-4.862Zm84.9,12.436a.532.532,0,0,0,.527-.524V43.522a.529.529,0,0,0-.524-.524h-.085a.508.508,0,0,1-.473-.472V31.04a.564.564,0,0,0-.524-.524h-1.93a.564.564,0,0,0-.524.524V43.763l.008.331a2.036,2.036,0,0,0,1.893,1.894Zm14.162-9.034a2.13,2.13,0,1,1,2.123,2.225A2.125,2.125,0,0,1,263.43,36.952Zm3.8,0a1.682,1.682,0,1,0-3.352,0,1.681,1.681,0,1,0,3.352,0Zm-2.494-1.174h.857c.474,0,.881.191.881.734a.666.666,0,0,1-.418.621l.52.938h-.52l-.4-.791H265.2v.791h-.463Zm.757,1.141c.3,0,.485-.137.485-.385,0-.225-.124-.372-.463-.372H265.2v.757Z" transform="translate(-91.682 -16.602)" fill="#333"/></g></svg>