<svg xmlns="http://www.w3.org/2000/svg" width="118.767" height="21.457" viewBox="0 0 118.767 21.457"><g transform="translate(0 0.006)"><g transform="translate(0 -0.006)"><path d="M10.156,5.267v.092A4.876,4.876,0,0,1,5.387,10.15H0V6.711H5.318A1.443,1.443,0,0,0,6.694,5.542H3.14V2.15H6.717V-.006h3.439V1.851H11.3V-.006H14.74V2.15h3.576V5.542H14.763a1.443,1.443,0,0,0,1.375,1.169h5.319V10.15H16.07A4.875,4.875,0,0,1,11.3,5.359V5.267ZM11.3,16.178v-.091A4.875,4.875,0,0,1,16.07,11.3h5.387v3.439H16.138A1.443,1.443,0,0,0,14.763,15.9h3.553V19.3H14.74v2.155H11.3V19.594H10.156v1.857H6.717V19.3H3.14V15.9H6.694a1.443,1.443,0,0,0-1.375-1.169H0V11.3H5.387a4.876,4.876,0,0,1,4.768,4.791v.091H11.3" transform="translate(0 0.006)" fill="#039"/><path d="M131.668,27.409h-3.582V10.265h12.2V13.3h-8.62v3.868h7.546V20.2h-7.546v7.212" transform="translate(-101.123 -8.103)" fill="#039"/><path d="M198.9,39.088a5.5,5.5,0,0,1-5.587,4.06c-3.582,0-6.328-1.72-6.328-6.95,0-1.528.525-6.422,6.089-6.422,2.508,0,5.97,1.194,5.97,7v.6h-8.716c.1.955.286,3.1,2.985,3.1a2.148,2.148,0,0,0,2.149-1.385ZM195.6,35.2a2.571,2.571,0,0,0-2.579-2.674c-1.576,0-2.412,1-2.6,2.674H195.6" transform="translate(-147.622 -23.507)" fill="#039"/><path d="M252.432,30.11h3.2v2.2h.048c.692-1.289,1.456-2.531,3.486-2.531a5.772,5.772,0,0,1,.645.048v3.39a6.324,6.324,0,0,0-.955-.047c-2.6,0-3.08,1.623-3.08,3.031v6.615h-3.344V30.11" transform="translate(-199.294 -23.507)" fill="#039"/><path d="M313.75,42.813h-3.343V35.1c0-1.886-.836-2.507-1.815-2.507-1.672,0-2.269,1.1-2.269,2.6v7.617h-3.343V35.172c0-1.074,0-2.578-2.006-2.578-1.576,0-2.078,1.1-2.078,2.484v7.736h-3.342V30.11h3.2v1.863h.048a3.778,3.778,0,0,1,3.606-2.2,3.631,3.631,0,0,1,3.535,2.029,3.962,3.962,0,0,1,3.39-2.029c2.484,0,4.418,1.456,4.418,4.25v8.787" transform="translate(-233.339 -23.507)" fill="#039"/><path d="M395.512,12.573H392.17v-3.1h3.342Zm0,1.5v12.7H392.17v-12.7h3.342" transform="translate(-309.617 -7.474)" fill="#039"/><path d="M418.9,27.409h3.343V10.265H418.9Z" transform="translate(-330.723 -8.103)" fill="#039"/><path d="M453.536,40.33c0,1.5.335,1.838.741,1.982v.5h-3.607a5.6,5.6,0,0,1-.31-1.5,5.173,5.173,0,0,1-4.107,1.839,3.565,3.565,0,0,1-3.869-3.7c0-2.484,1.576-3.749,3.7-4.06l3.01-.454c.525-.072,1.17-.287,1.17-1,0-1.408-1.338-1.48-2.2-1.48a1.8,1.8,0,0,0-2.053,1.766h-3.223c.382-3.892,3.08-4.441,5.683-4.441,1.791,0,5.062.549,5.062,3.677V40.33Zm-3.271-3.7a4.884,4.884,0,0,1-2.269.692c-1.241.215-2.268.525-2.268,1.91a1.458,1.458,0,0,0,1.552,1.528,2.766,2.766,0,0,0,2.985-2.507V36.629" transform="translate(-349.262 -23.507)" fill="#039"/><path d="M508.9,16.354h.048a4.077,4.077,0,0,1,3.677-1.982c2.795,0,5.278,2.149,5.278,6.542,0,3.487-1.577,6.83-5.349,6.83a4.037,4.037,0,0,1-3.678-1.935h-.047v1.6h-3.271V10.265H508.9Zm2.722.907c-2.292,0-2.865,2.054-2.865,4.084,0,1.886.836,3.653,2.961,3.653,2.149,0,2.746-2.34,2.746-3.845,0-2-.717-3.892-2.842-3.892" transform="translate(-399.139 -8.103)" fill="#039"/></g></g></svg>