<svg width="58" height="36" viewBox="0 0 58 36" fill="none" xmlns="http://www.w3.org/2000/svg">
<g style="mix-blend-mode:multiply">
<path d="M23.8109 3.92825C24.7463 3.04441 25.8716 2.34054 27.1185 1.85931C28.3654 1.37808 29.7081 1.1295 31.065 1.12865C32.8688 1.13513 34.6379 1.57483 36.1894 2.40224C37.7408 3.22965 39.0182 4.41472 39.8894 5.83488C41.4587 5.20424 43.1587 4.87935 44.8776 4.88156C51.6888 4.88156 57.2094 9.88947 57.2094 16.0659C57.2094 22.2423 51.6888 27.2522 44.8776 27.2522C44.0618 27.2528 43.248 27.18 42.4484 27.035C41.3257 28.8424 39.4764 30.195 37.2799 30.8154C35.0833 31.4358 32.706 31.277 30.6355 30.3716C29.8286 32.0766 28.4708 33.5245 26.7381 34.5276C25.0054 35.5308 22.9775 36.043 20.9173 35.9979C18.8571 35.9528 16.8593 35.3526 15.1829 34.2748C13.5065 33.1971 12.2287 31.6916 11.5149 29.9533C10.8699 30.0757 10.2124 30.137 9.55318 30.1363C7.44052 30.1138 5.39422 29.4697 3.72732 28.3024C2.06042 27.1351 0.864698 25.509 0.32307 23.6728C-0.218558 21.8366 -0.0762672 19.8915 0.728175 18.1349C1.53262 16.3783 2.95491 14.907 4.77749 13.9461C3.70351 11.7072 3.57726 9.19253 4.42255 6.8758C5.26784 4.55907 7.0263 2.60028 9.36658 1.36852C11.7069 0.136761 14.4674 -0.282911 17.1279 0.188581C19.7885 0.660072 22.1655 1.99017 23.8109 3.92825" fill="#2D99D5"/>
<path d="M8.28274 18.673C8.24695 18.7575 8.29616 18.7736 8.30734 18.7896C8.41236 18.8542 8.52139 18.9133 8.63392 18.9666C9.16093 19.2157 9.74993 19.3396 10.3451 19.3266C11.5195 19.3266 12.2464 18.7655 12.2464 17.8625V17.8444C12.2464 17.0077 11.4255 16.706 10.6538 16.4868L10.5531 16.4567C9.97156 16.2877 9.46827 16.1409 9.46827 15.797V15.7769C9.46827 15.4832 9.7613 15.266 10.2176 15.266C10.7371 15.2754 11.2471 15.3931 11.7074 15.6099C11.7074 15.6099 11.8214 15.6743 11.8639 15.5757C11.8863 15.5235 12.0876 15.0508 12.1011 14.9985C12.1096 14.976 12.1087 14.9515 12.0983 14.9296C12.088 14.9077 12.0691 14.89 12.0451 14.8799C11.534 14.614 10.9535 14.4752 10.363 14.4776H10.2467C9.17301 14.4776 8.42366 15.0609 8.42366 15.8955V15.9136C8.42366 16.7945 9.24906 17.0801 10.0252 17.2812L10.1483 17.3154C10.7142 17.4703 11.1996 17.605 11.1996 17.963V17.9791C11.1996 18.307 10.8842 18.5503 10.3742 18.5503C9.83862 18.5536 9.31344 18.4174 8.86208 18.1581C8.77932 18.1159 8.73235 18.0837 8.66971 18.0495C8.65723 18.0397 8.64206 18.033 8.62576 18.0301C8.60945 18.0273 8.5926 18.0283 8.57691 18.0333C8.56122 18.0382 8.54726 18.0467 8.53645 18.0581C8.52564 18.0694 8.51837 18.0831 8.51537 18.0978L8.29169 18.675L8.28274 18.673Z" fill="white"/>
<path d="M25.4687 18.673C25.4329 18.7575 25.4821 18.7736 25.4933 18.7896C25.5983 18.8542 25.7073 18.9133 25.8198 18.9666C26.3468 19.2157 26.9358 19.3396 27.531 19.3266C28.7031 19.3266 29.4324 18.7655 29.4324 17.8625V17.8444C29.4324 17.0077 28.6114 16.706 27.8397 16.4868L27.7391 16.4567C27.1575 16.2877 26.6542 16.1409 26.6542 15.797V15.7769C26.6542 15.4832 26.9472 15.266 27.4035 15.266C27.923 15.2754 28.433 15.3931 28.8933 15.6099C28.8933 15.6099 29.0074 15.6743 29.0499 15.5757C29.0722 15.5235 29.2735 15.0508 29.287 14.9985C29.2955 14.976 29.2946 14.9515 29.2842 14.9296C29.2739 14.9077 29.255 14.89 29.231 14.8799C28.7199 14.614 28.1394 14.4752 27.5489 14.4776H27.4326C26.3589 14.4776 25.6073 15.0609 25.6073 15.8955V15.9136C25.6073 16.7945 26.435 17.0801 27.2112 17.2812L27.3342 17.3154C27.9001 17.4703 28.3877 17.605 28.3877 17.963V17.9791C28.3877 18.307 28.0701 18.5503 27.5601 18.5503C27.0245 18.5536 26.4994 18.4174 26.048 18.1581C25.9652 18.1159 25.9183 18.0857 25.8556 18.0495C25.8426 18.0413 25.8275 18.0359 25.8117 18.0339C25.7959 18.032 25.7798 18.0334 25.7647 18.0381C25.7496 18.0428 25.736 18.0507 25.725 18.0611C25.714 18.0714 25.7058 18.084 25.7013 18.0978L25.4776 18.675L25.4687 18.673Z" fill="white"/>
<path d="M37.1967 16.8976C37.2253 17.3189 37.1156 17.7385 36.8813 18.1043C36.7688 18.2346 36.6246 18.3401 36.4599 18.4126C36.2951 18.4852 36.1141 18.5229 35.9306 18.5229C35.7471 18.5229 35.5661 18.4852 35.4013 18.4126C35.2366 18.3401 35.0924 18.2346 34.9799 18.1043C34.7516 17.7367 34.646 17.3178 34.6757 16.8976C34.6498 16.4814 34.7578 16.0674 34.9866 15.7049C35.0885 15.5667 35.2294 15.4553 35.3948 15.3822C35.5603 15.309 35.7444 15.2767 35.9284 15.2886C36.114 15.276 36.3001 15.3077 36.4678 15.3804C36.6355 15.4532 36.7789 15.5644 36.8835 15.7029C37.1142 16.0648 37.223 16.4791 37.1967 16.8956V16.8976ZM38.1764 15.9483C38.0868 15.6688 37.9345 15.4087 37.729 15.184C37.5218 14.9707 37.2653 14.8005 36.9775 14.6853C36.6451 14.5605 36.2885 14.4962 35.9284 14.4962C35.5682 14.4962 35.2116 14.5605 34.8793 14.6853C34.5893 14.8055 34.332 14.9812 34.1255 15.2001C33.92 15.4248 33.7677 15.6849 33.6781 15.9644C33.4872 16.5842 33.4872 17.2391 33.6781 17.8589C33.7677 18.1385 33.92 18.3985 34.1255 18.6232C34.331 18.8421 34.5886 19.0167 34.8793 19.134C35.5523 19.3781 36.3044 19.3781 36.9775 19.134C37.2681 19.0167 37.5257 18.8421 37.7313 18.6232C37.9368 18.3985 38.089 18.1385 38.1787 17.8589C38.3695 17.2391 38.3695 16.5842 38.1787 15.9644" fill="white"/>
<path d="M46.2204 18.3815C46.2164 18.3704 46.2099 18.3601 46.2013 18.3514C46.1927 18.3426 46.1822 18.3356 46.1705 18.3307C46.1587 18.3258 46.1459 18.3231 46.133 18.3228C46.12 18.3226 46.1071 18.3248 46.0951 18.3292C45.9508 18.3818 45.8009 18.4209 45.6477 18.4458C45.4692 18.4692 45.289 18.4806 45.1086 18.48C44.9034 18.4901 44.6982 18.4619 44.5057 18.3972C44.3132 18.3324 44.1377 18.2326 43.9902 18.1039C43.7196 17.8525 43.5674 17.4483 43.5697 16.8972C43.5471 16.4835 43.6794 16.0749 43.9455 15.7367C44.0746 15.5915 44.241 15.4767 44.4303 15.4021C44.6197 15.3275 44.8264 15.2953 45.0326 15.3083C45.3828 15.3018 45.7319 15.3466 46.066 15.4411C46.066 15.4411 46.1443 15.4712 46.1801 15.3807C46.2651 15.1655 46.33 15.0127 46.4217 14.7774C46.4255 14.7671 46.4269 14.7562 46.4259 14.7454C46.4249 14.7346 46.4214 14.7241 46.4158 14.7145C46.4101 14.7049 46.4024 14.6965 46.393 14.6896C46.3837 14.6828 46.3729 14.6778 46.3613 14.6748C46.1489 14.6079 45.9303 14.5581 45.7081 14.526C45.462 14.4957 45.2138 14.4815 44.9655 14.4837C44.5908 14.4766 44.2188 14.541 43.8739 14.6728C43.5723 14.79 43.3028 14.965 43.0843 15.1856C42.8698 15.4097 42.7077 15.6703 42.6078 15.9519C42.4998 16.2582 42.4462 16.5779 42.449 16.8992C42.4133 17.5366 42.6457 18.1627 43.0999 18.653C43.5339 19.0874 44.1848 19.3067 45.0348 19.3067C45.5082 19.3075 45.978 19.2319 46.4217 19.0834C46.442 19.074 46.4574 19.0577 46.4645 19.0381C46.4716 19.0186 46.4699 18.9973 46.4597 18.9788L46.2204 18.3755V18.3815Z" fill="white"/>
<path d="M47.9329 16.4144C47.9649 16.1651 48.0565 15.9249 48.2014 15.7105C48.3041 15.5712 48.4459 15.4589 48.6125 15.3847C48.779 15.3105 48.9643 15.2772 49.1498 15.2881C49.3333 15.2792 49.5162 15.3147 49.6794 15.3907C49.8426 15.4667 49.9803 15.5806 50.0781 15.7205C50.2177 15.9343 50.2947 16.1766 50.3018 16.4244L47.9329 16.4144ZM51.2278 15.7909C51.1463 15.5315 51.0028 15.2913 50.8073 15.087C50.6322 14.9055 50.4175 14.7583 50.1765 14.6546C49.8762 14.541 49.5538 14.4822 49.2281 14.4816C48.8508 14.4764 48.4769 14.5451 48.132 14.6827C47.8376 14.8047 47.5771 14.984 47.3693 15.2076C47.1626 15.4354 47.0103 15.699 46.9219 15.982C46.8231 16.2912 46.7742 16.6116 46.7765 16.9333C46.7735 17.2553 46.824 17.576 46.9264 17.8846C47.0234 18.1658 47.1875 18.4246 47.4073 18.6428C47.6392 18.8639 47.9247 19.0339 48.2416 19.1396C48.6258 19.2609 49.0312 19.3188 49.4383 19.3106C50.3957 19.3106 50.9012 19.1094 51.1093 19.0129C51.1451 18.9928 51.1808 18.9606 51.1361 18.8681L50.9124 18.323C50.908 18.3123 50.9012 18.3024 50.8924 18.2941C50.8837 18.2857 50.8732 18.279 50.8615 18.2743C50.8498 18.2696 50.8373 18.2671 50.8245 18.2668C50.8117 18.2665 50.799 18.2686 50.7872 18.2728C50.3605 18.4327 49.9003 18.5075 49.4383 18.492C49.233 18.5035 49.0272 18.4785 48.8326 18.4185C48.638 18.3584 48.4584 18.2645 48.3043 18.142C48.0582 17.9228 47.9396 17.603 47.9173 17.1485H51.2345C51.2584 17.1481 51.2813 17.14 51.299 17.1256C51.3167 17.1111 51.328 17.0914 51.3307 17.07C51.393 16.6418 51.358 16.2066 51.2278 15.7909V15.7909Z" fill="white"/>
<path d="M21.3763 16.4144C21.4092 16.1653 21.5007 15.9254 21.6447 15.7105C21.7478 15.5711 21.89 15.4586 22.0569 15.3845C22.2238 15.3103 22.4096 15.2771 22.5953 15.2881C22.7792 15.2791 22.9625 15.3144 23.1261 15.3905C23.2897 15.4665 23.4277 15.5804 23.5259 15.7205C23.6646 15.9347 23.7415 16.1767 23.7496 16.4245L21.3763 16.4144ZM24.6734 15.7909C24.5921 15.531 24.4477 15.2906 24.2506 15.087C24.0763 14.9056 23.8624 14.7584 23.6221 14.6546C23.3211 14.5408 22.9979 14.482 22.6714 14.4816C22.2949 14.4762 21.9215 14.5449 21.5776 14.6827C21.2801 14.8021 21.0164 14.9802 20.8059 15.2036C20.5991 15.4313 20.4468 15.6949 20.3585 15.978C20.259 16.2871 20.2092 16.6075 20.2108 16.9293C20.2075 17.2515 20.2588 17.5723 20.363 17.8806C20.4577 18.1674 20.6258 18.4303 20.8538 18.6482C21.0818 18.8661 21.3634 19.033 21.676 19.1356C22.0628 19.2589 22.4713 19.3182 22.8817 19.3106C23.839 19.3106 24.3423 19.1094 24.5504 19.0129C24.5862 18.9928 24.6219 18.9606 24.5772 18.8681L24.3535 18.323C24.3491 18.3123 24.3423 18.3024 24.3335 18.2941C24.3248 18.2857 24.3143 18.279 24.3026 18.2743C24.291 18.2696 24.2784 18.2671 24.2656 18.2668C24.2528 18.2665 24.2401 18.2686 24.2283 18.2728C23.7973 18.434 23.3324 18.5088 22.866 18.492C22.6607 18.5035 22.4548 18.4785 22.2602 18.4185C22.0656 18.3584 21.8861 18.2645 21.7319 18.142C21.4881 17.9228 21.3673 17.603 21.3472 17.1485H24.6622C24.6861 17.1481 24.709 17.14 24.7267 17.1256C24.7444 17.1111 24.7557 17.0914 24.7584 17.0701C24.822 16.6406 24.7878 16.204 24.6577 15.7869L24.6734 15.7909Z" fill="white"/>
<path d="M14.2117 18.3659C14.1354 18.3202 14.0706 18.2606 14.0215 18.191C13.9494 18.0723 13.9153 17.9379 13.9231 17.8028C13.9134 17.6919 13.9355 17.5807 13.9872 17.4796C14.0389 17.3786 14.1185 17.2911 14.2184 17.2256C14.2184 17.2256 14.5024 17.0023 15.1802 17.0104C15.4798 17.0157 15.7787 17.0385 16.075 17.0788V18.4343C15.7796 18.4875 15.4807 18.5231 15.1802 18.5409C14.5092 18.5771 14.2049 18.3659 14.2072 18.3659H14.2117ZM15.5269 16.2723C15.3927 16.2723 15.2182 16.2582 15.0102 16.2582C14.7346 16.2573 14.4601 16.289 14.1938 16.3527C13.9453 16.4105 13.7105 16.5079 13.5003 16.6403C13.2907 16.7729 13.1209 16.9501 13.0062 17.1561C12.8914 17.3622 12.8352 17.5906 12.8427 17.8209C12.8364 18.0572 12.8899 18.2917 12.9993 18.5067C13.0967 18.6899 13.2436 18.8482 13.4265 18.9673C13.628 19.0947 13.8564 19.1837 14.0976 19.2287C14.3913 19.287 14.6915 19.3147 14.9923 19.3112C15.3296 19.3112 15.6663 19.2856 15.9989 19.2348C16.3232 19.1845 16.7236 19.1121 16.8332 19.09L17.0569 19.0357C17.0802 19.0301 17.1005 19.0174 17.1144 18.9998C17.1283 18.9821 17.1348 18.9607 17.133 18.9391V16.2119C17.133 15.6086 16.9563 15.1721 16.6073 14.8966C16.2584 14.6211 15.7461 14.4944 15.084 14.4944C14.784 14.4965 14.4847 14.5214 14.1893 14.5688C14.1893 14.5688 13.4713 14.6854 13.1738 14.8865C13.1536 14.9002 13.1394 14.9197 13.1337 14.9418C13.128 14.9638 13.1311 14.987 13.1424 15.0072L13.3773 15.5724C13.3806 15.5823 13.3861 15.5915 13.3934 15.5994C13.4008 15.6074 13.4099 15.6139 13.4201 15.6186C13.4304 15.6233 13.4416 15.6261 13.4531 15.6268C13.4645 15.6275 13.4761 15.6261 13.4869 15.6226L13.5406 15.5985C13.9936 15.4028 14.4897 15.3011 14.9923 15.3008C15.283 15.2861 15.5711 15.3566 15.8132 15.502C15.9922 15.6267 16.0861 15.8137 16.0861 16.2119V16.3386C15.7998 16.3004 15.5381 16.2803 15.5381 16.2803" fill="white"/>
<path d="M42.2818 14.7347C42.2869 14.7248 42.2896 14.7141 42.2899 14.7033C42.2901 14.6925 42.2879 14.6817 42.2832 14.6717C42.2786 14.6616 42.2717 14.6526 42.263 14.6451C42.2543 14.6376 42.244 14.6318 42.2326 14.6281C42.0507 14.5823 41.8641 14.5534 41.6756 14.5416C41.3836 14.514 41.0886 14.557 40.8212 14.6663C40.6046 14.7478 40.4129 14.8747 40.262 15.0364V14.6844C40.2626 14.6727 40.2605 14.661 40.256 14.6501C40.2514 14.6391 40.2444 14.6291 40.2354 14.6206C40.2264 14.6122 40.2156 14.6054 40.2036 14.6008C40.1917 14.5962 40.1788 14.5939 40.1658 14.5939H39.3158C39.3028 14.5939 39.2899 14.5962 39.2779 14.6008C39.2659 14.6054 39.2551 14.6122 39.2461 14.6206C39.2371 14.6291 39.2301 14.6391 39.2256 14.6501C39.221 14.661 39.219 14.6727 39.2196 14.6844V19.1211C39.2202 19.1453 39.2313 19.1684 39.2505 19.1853C39.2697 19.2022 39.2956 19.2117 39.3225 19.2117H40.1926C40.2193 19.2117 40.2449 19.2021 40.2638 19.1851C40.2827 19.1682 40.2933 19.1452 40.2933 19.1211V16.8967C40.2852 16.6324 40.3222 16.3686 40.4029 16.1144C40.4616 15.9503 40.561 15.8003 40.6937 15.6759C40.8091 15.5745 40.9493 15.4987 41.103 15.4547C41.2485 15.4171 41.3991 15.3982 41.5504 15.3984C41.6731 15.4011 41.7952 15.4146 41.915 15.4386C41.9776 15.4386 42.0134 15.4104 42.0358 15.3581C42.0917 15.2214 42.2595 14.8131 42.2841 14.7327" fill="white"/>
<path d="M34.0985 12.6745C33.9912 12.6463 33.895 12.6262 33.7697 12.6041C33.6218 12.5826 33.4722 12.5725 33.3224 12.5739C33.0664 12.5604 32.81 12.5935 32.5686 12.6712C32.3272 12.749 32.1058 12.8698 31.9176 13.0264C31.5442 13.4047 31.3099 13.8774 31.2466 14.38L31.2063 14.5811H30.4525C30.4255 14.5805 30.3992 14.589 30.3788 14.605C30.3585 14.6211 30.3457 14.6434 30.3429 14.6676L30.2221 15.2891C30.2221 15.3474 30.24 15.3856 30.3295 15.3856H31.0609L30.3183 19.1104C30.2738 19.3601 30.2072 19.6063 30.1192 19.8465C30.0697 19.9969 29.9942 20.1395 29.8955 20.2688C29.8202 20.363 29.7137 20.4334 29.5913 20.47C29.4654 20.5052 29.334 20.5222 29.2021 20.5202C29.1127 20.5186 29.0236 20.5099 28.9359 20.4941C28.8742 20.483 28.8141 20.4655 28.7569 20.4418C28.7338 20.4339 28.7081 20.4346 28.6855 20.4436C28.6629 20.4526 28.6452 20.4693 28.6362 20.4901C28.6093 20.5544 28.4125 21.0371 28.3901 21.0934C28.3845 21.1044 28.3815 21.1162 28.381 21.1282C28.3806 21.1403 28.3829 21.1523 28.3876 21.1635C28.3924 21.1747 28.3997 21.185 28.4089 21.1937C28.4182 21.2024 28.4293 21.2093 28.4416 21.2141C28.5412 21.2455 28.6428 21.2717 28.7458 21.2926C28.9049 21.325 29.068 21.3392 29.2312 21.3348C29.5078 21.338 29.7831 21.2992 30.0454 21.2201C30.2815 21.1389 30.4919 21.0071 30.6583 20.836C30.8489 20.641 30.9949 20.4141 31.0877 20.1683C31.2185 19.8417 31.3159 19.5051 31.3785 19.1627L32.1256 15.3615H33.2195C33.245 15.3636 33.2705 15.3575 33.2914 15.3442C33.3123 15.3309 33.3273 15.3114 33.3335 15.2891L33.4454 14.6857C33.4454 14.6253 33.4275 14.5891 33.338 14.5891H32.2777C32.3155 14.3607 32.3738 14.1353 32.4522 13.9154C32.5011 13.7965 32.5773 13.6882 32.6759 13.5976C32.7542 13.5278 32.849 13.4749 32.9533 13.4428C33.0692 13.4109 33.1899 13.3953 33.3112 13.3965C33.402 13.3975 33.4926 13.4055 33.5818 13.4206C33.6392 13.4307 33.6959 13.4435 33.7518 13.4588C33.8614 13.489 33.8749 13.4588 33.8972 13.4126L34.15 12.7871C34.1541 12.7767 34.1558 12.7656 34.155 12.7546C34.1542 12.7435 34.1508 12.7328 34.1451 12.723C34.1395 12.7132 34.1316 12.7045 34.1221 12.6975C34.1125 12.6906 34.1015 12.6855 34.0896 12.6825" fill="white"/>
<path d="M19.284 19.1216C19.285 19.1332 19.2832 19.1448 19.2789 19.1558C19.2746 19.1667 19.2678 19.1768 19.259 19.1853C19.2502 19.1938 19.2395 19.2005 19.2277 19.2052C19.2158 19.2098 19.203 19.2121 19.1901 19.2121H18.311C18.298 19.2121 18.2851 19.2098 18.2731 19.2052C18.2612 19.2006 18.2504 19.1938 18.2414 19.1854C18.2324 19.1769 18.2254 19.1669 18.2208 19.1559C18.2163 19.145 18.2142 19.1333 18.2148 19.1216V12.7601C18.2142 12.7484 18.2163 12.7368 18.2208 12.7258C18.2254 12.7148 18.2324 12.7048 18.2414 12.6964C18.2504 12.6879 18.2612 12.6812 18.2731 12.6766C18.2851 12.672 18.298 12.6696 18.311 12.6696H19.1901C19.203 12.6696 19.2158 12.672 19.2277 12.6766C19.2395 12.6812 19.2502 12.688 19.259 12.6965C19.2678 12.705 19.2746 12.715 19.2789 12.726C19.2832 12.7369 19.285 12.7485 19.284 12.7601V19.1216V19.1216Z" fill="white"/>
</g>
</svg>
