<svg width="59" height="80" viewBox="0 0 59 80" fill="none" xmlns="http://www.w3.org/2000/svg">
<path d="M0.849519 43.2562C0.964305 45.6149 3.3289 44.5157 4.38493 43.7829C5.39504 43.0731 5.69349 43.6684 5.78532 42.2945C5.85419 41.3785 5.94602 40.4855 5.9001 39.5695C4.36197 39.4321 2.70905 39.7985 1.44641 40.7144C0.780647 41.1724 -0.413127 42.6838 0.849519 43.2562Z" fill="#F6D2A2"/>
<path d="M47.9806 72.2465C49.7943 73.3685 53.1231 76.7576 50.3911 78.4063C47.774 80.7878 46.3048 75.7729 44.009 75.0859C44.9962 73.7349 46.2359 72.4983 47.9806 72.2465Z" fill="#F6D2A2"/>
<path d="M15.5191 76.0707C13.384 76.3913 12.1903 78.3148 10.3996 79.2994C8.72373 80.2841 8.08093 78.9789 7.94319 78.7041C7.69066 78.5896 7.71362 78.8186 7.30039 78.4064C5.7393 75.9562 8.90739 74.1701 10.5603 72.9564C12.856 72.4984 14.3023 74.4906 15.5191 76.0707Z" fill="#F6D2A2"/>
<path d="M58.0588 42.9586C57.944 45.3172 55.5794 44.2181 54.5234 43.4853C53.5133 42.7754 53.2148 43.3708 53.123 41.9969C53.0541 41.0809 52.9623 40.1878 53.0082 39.2719C54.5463 39.1345 56.1993 39.5009 57.4619 40.4168C58.1047 40.8748 59.3215 42.3862 58.0588 42.9586Z" fill="#F6D2A2"/>
<path d="M51.7914 14.1974C59.9871 11.3121 53.5821 0.114465 46.4424 5.06066C41.7591 1.05333 35.3082 0.320557 28.5358 0.320557C21.9012 0.847235 15.5879 2.06089 11.1802 5.90793C4.06342 1.32812 -2.50234 12.3197 5.85408 15.0904C3.51245 24.1585 6.17548 33.4097 5.80817 42.638C5.46381 50.9275 3.28288 62.0335 7.89727 69.4757C11.823 75.8417 20.2712 78.1087 27.2272 78.3605C36.1117 78.6811 46.8786 76.5057 51.1945 67.9186C55.3268 59.7436 54.179 49.5535 53.651 40.7374C53.1229 31.8297 54.1101 22.7845 51.7914 14.1974Z" fill="#69D7E2"/>
<path d="M58.6786 41.5618C58.449 41.0809 58.0129 40.5313 57.5996 40.2336C56.5436 39.478 55.1891 39.0658 53.7887 39.02C53.7428 37.6002 53.6969 36.0431 53.6969 34.0738V32.2876C53.6739 26.6545 53.6051 24.1814 53.2837 21.09C53.0311 18.6627 52.6409 16.4186 52.0899 14.3119C53.9494 13.602 55.1662 12.4342 55.6483 10.9228C56.1074 9.52599 55.8778 7.94595 55.0973 6.54911C54.2938 5.17516 53.0082 4.14471 51.516 3.73252C49.909 3.29744 48.1642 3.61803 46.4883 4.74008C44.9961 3.48063 43.2743 2.51887 41.3459 1.7861C37.9253 0.526657 33.9537 0.0457764 28.5588 0.0457764V0.274767L28.5358 0.0457764C22.7736 0.503757 18.5035 1.39682 14.9681 3.11425C13.5448 3.80122 12.2821 4.62559 11.1802 5.58735C9.48134 4.53399 7.71364 4.2821 6.08367 4.78588C4.5685 5.24386 3.25994 6.32012 2.47939 7.71696C1.69885 9.1138 1.51519 10.7167 2.04321 12.0907C2.57122 13.4646 3.78795 14.5409 5.60157 15.205C5.02764 17.5178 4.7292 19.968 4.68329 22.67C4.63737 25.3034 4.75216 27.4101 5.16539 32.1732C5.46383 35.7225 5.57862 37.3483 5.62453 39.3177C4.06344 39.249 2.50235 39.6611 1.33153 40.5084C0.918305 40.8061 0.459161 41.3328 0.252546 41.8366C-0.0458975 42.4777 0.0688885 43.0502 0.665776 43.3937C0.757605 44.4928 1.37745 44.9966 2.31869 44.905C3.00741 44.8363 3.83387 44.4699 4.54554 43.9662C4.70624 43.8517 4.86694 43.7601 5.02764 43.6914C5.09652 43.6685 5.14243 43.6456 5.2113 43.6227C5.2113 43.6227 5.34904 43.5769 5.39496 43.554C5.46383 43.5311 5.5327 43.5082 5.57862 43.4624C5.5327 44.5386 5.44087 45.6607 5.23426 48.2254C5.00469 51.1107 4.8899 52.6907 4.84399 54.4539C4.63737 61.0031 5.41792 65.7661 7.75955 69.5444C8.49418 70.7352 9.38951 71.7885 10.4455 72.7503C10.2389 72.8877 9.36655 73.5288 9.09107 73.7349C8.12687 74.4677 7.46111 75.086 7.07083 75.773C6.56578 76.666 6.56578 77.5591 7.13971 78.4979L7.16266 78.5208L7.18562 78.5437C7.43815 78.7956 7.57589 78.8643 7.75955 78.8643H7.78251H7.82842C7.85138 78.9101 7.87434 78.933 7.89729 78.9788C7.96617 79.0933 8.03504 79.1849 8.10391 79.2765C8.67784 79.9406 9.48134 80.1009 10.5603 79.4597C11.1343 79.162 11.5475 78.8185 12.4199 78.0858C12.4428 78.0629 12.4428 78.0629 12.4658 78.04C13.8662 76.8492 14.5549 76.4141 15.588 76.2538L15.9553 76.1851C16.093 76.2538 16.2308 76.2996 16.3915 76.3683C19.6514 77.6736 23.4393 78.3835 27.2732 78.5208C32.2319 78.704 37.007 78.0858 41.0475 76.6202C42.1265 76.2309 43.1366 75.773 44.1008 75.2692C44.6977 75.4982 45.2027 75.979 46.1669 77.1011C46.2129 77.1469 46.2129 77.1469 46.2358 77.1927C46.2817 77.2385 46.2817 77.2614 46.3047 77.2843C46.3506 77.353 46.4195 77.3988 46.4654 77.4675C47.223 78.3605 47.728 78.7956 48.302 79.0475C49.0596 79.3681 49.7942 79.2078 50.5518 78.5208C51.8833 77.6965 51.9751 76.4141 51.1027 74.9486C50.4829 73.9181 49.4039 72.8419 48.3938 72.1549C49.5876 70.9871 50.6206 69.5902 51.4241 68.0102C53.628 63.6136 54.4774 58.4842 54.4315 51.8892C54.4086 49.5535 54.3167 47.5155 54.0642 43.6227V43.5082C54.179 43.554 54.2938 43.6227 54.4086 43.7143C55.1203 44.1952 55.9467 44.5844 56.6354 44.6531C57.5767 44.7447 58.1965 44.241 58.2883 43.1418C58.8623 42.7754 58.9771 42.2029 58.6786 41.5618ZM51.3782 4.2134C52.7557 4.57979 53.9494 5.54155 54.6841 6.8239C55.4187 8.10624 55.6253 9.54888 55.2121 10.8312C54.7759 12.1823 53.6739 13.2585 51.9522 13.8997C51.6078 12.6632 51.1946 11.4495 50.7354 10.2817C51.4012 9.70918 51.7226 8.99931 51.1946 7.99175C50.6666 6.98419 49.7483 6.86969 48.807 7.16738C48.2101 6.38881 47.5444 5.70184 46.8557 5.06067C48.3708 4.09891 49.9319 3.82412 51.3782 4.2134ZM2.43348 11.9533C1.95138 10.7167 2.11208 9.2512 2.84671 7.96885C3.58134 6.6865 4.77511 5.67894 6.19846 5.26676C7.66772 4.83168 9.25177 5.03777 10.8129 5.95373C9.91753 6.7552 9.11403 7.67116 8.42531 8.67872C7.23153 8.06045 6.0148 7.94595 5.32609 9.2054C4.61441 10.5564 5.44087 11.4037 6.61169 12.0449C6.45099 12.4342 6.29029 12.8463 6.15255 13.2585C5.99185 13.7623 5.83115 14.289 5.6934 14.8157C4.01753 14.1745 2.91558 13.1898 2.43348 11.9533ZM5.2113 43.1647C5.18834 43.1647 5.0506 43.2105 5.0506 43.2334C4.98173 43.2563 4.91286 43.2792 4.84399 43.325C4.66033 43.3937 4.47667 43.5082 4.29301 43.6456C3.65021 44.1036 2.86967 44.447 2.27278 44.4928C1.58406 44.5615 1.19379 44.2639 1.12492 43.4395C1.60702 43.2792 1.81364 43.1647 1.99729 42.8899L1.62998 42.6151C1.49223 42.7983 1.35449 42.867 0.941262 43.0044C0.918305 43.0044 0.918305 43.0044 0.895348 43.0273C0.528033 42.8212 0.459161 42.5006 0.665776 42.0426C0.849433 41.6305 1.26266 41.1496 1.60702 40.8977C2.70897 40.0962 4.17823 39.7069 5.64749 39.7985C5.64749 40.371 5.67044 40.9435 5.64749 41.4931C5.64749 41.5618 5.64749 41.6076 5.62453 41.6763C5.60157 41.9968 5.60157 42.1342 5.57862 42.2945C5.50974 42.9586 5.46383 43.0502 5.2113 43.1647ZM12.1444 77.7194C12.1214 77.7423 12.1214 77.7423 12.0985 77.7652C11.249 78.4979 10.8358 78.7956 10.3078 79.0933C9.43543 79.62 8.83854 79.5055 8.42531 79.0017C8.35644 78.933 8.31052 78.8414 8.26461 78.7727C8.24165 78.7498 8.21869 78.704 8.19574 78.6811C8.19574 78.6811 8.19574 78.6811 8.19574 78.6582C8.24165 78.2461 8.40235 77.9484 8.81558 77.3072C8.83854 77.2843 8.83854 77.2843 8.83854 77.2614C9.09107 76.895 9.20585 76.6889 9.32064 76.437L8.90741 76.2538C8.81558 76.4599 8.7008 76.6431 8.47122 77.0095C8.44827 77.0324 8.44827 77.0324 8.44827 77.0553C8.03504 77.6507 7.85138 78.0171 7.75955 78.4293H7.73659C7.73659 78.4293 7.73659 78.4293 7.71364 78.4293H7.66772C7.62181 78.4063 7.55294 78.3605 7.46111 78.269C6.56578 76.8492 7.27745 75.6356 9.29768 74.1242C9.55021 73.941 10.3996 73.3457 10.6292 73.1625C10.6751 73.1625 10.721 73.1396 10.7669 73.1167C12.0066 74.17 13.4529 75.086 15.0599 75.8417C15.0599 75.8646 15.0829 75.8875 15.1059 75.9103C14.1646 76.1393 13.43 76.6202 12.1444 77.7194ZM50.6895 75.2234C51.4012 76.4141 51.3782 77.3759 50.4829 78.04C50.414 77.9026 50.3681 77.7423 50.2763 77.5133C50.2763 77.4904 50.2763 77.4904 50.2533 77.4675C49.9319 76.5973 49.7253 76.2309 49.335 75.8188L49.0136 76.1393C49.358 76.4599 49.5187 76.8034 49.8401 77.6049C49.8401 77.6278 49.8401 77.6278 49.8631 77.6507C49.9778 77.9484 50.0467 78.1316 50.1156 78.2918C49.5187 78.7956 48.9907 78.8872 48.4397 78.6353C47.9576 78.4292 47.4985 77.9942 46.7638 77.1698C46.7179 77.124 46.672 77.0553 46.6261 76.9866C46.6031 76.9637 46.5802 76.9408 46.5572 76.895C46.5113 76.8492 46.5113 76.8492 46.4883 76.8034C45.6389 75.8188 45.1339 75.2921 44.5829 74.9944C45.8685 74.2616 47.0164 73.4373 48.0494 72.4755C49.0136 73.1854 50.0926 74.2387 50.6895 75.2234ZM51.0109 67.8041C49.0366 71.7656 45.5471 74.5593 40.8638 76.2538C36.8693 77.6965 32.1401 78.2919 27.2502 78.1087C18.8249 77.811 11.5245 74.8799 8.10391 69.3383C5.80819 65.6516 5.0506 60.9573 5.25722 54.4997C5.32609 52.7365 5.41792 51.1565 5.64749 48.2712C5.90002 45.0195 5.96889 44.0807 6.03776 42.6151C6.08367 41.5618 6.08367 40.4855 6.06072 39.3406C6.0148 37.3254 5.90002 35.7225 5.60157 32.1274C5.18834 27.3644 5.07356 25.2805 5.11947 22.67C5.18834 19.2352 5.64749 16.2125 6.61169 13.3501C8.17278 8.70162 11.0424 5.56445 15.1747 3.52643C18.6413 1.8319 22.8424 0.961739 28.5588 0.503757C33.9078 0.503757 37.8105 0.984638 41.1852 2.22119C45.2257 3.70963 48.2331 6.32012 50.2992 10.3275C51.6308 13.5791 52.4113 17.0827 52.8245 21.1129C53.1459 24.1814 53.2148 26.6545 53.2378 32.2647V34.0509C53.2607 36.8217 53.3066 38.7681 53.4214 40.7145C53.4673 41.4702 53.4903 41.7908 53.6051 43.5998C53.8576 47.4926 53.9494 49.5077 53.9724 51.8434C54.0183 58.4155 53.1918 63.4762 51.0109 67.8041ZM58.0358 42.7296C58.0129 42.7296 57.9899 42.7067 57.9669 42.7067C57.5537 42.5693 57.416 42.4777 57.2782 42.3174L56.9109 42.5922C57.1175 42.867 57.3241 42.9815 57.7833 43.1418C57.6915 43.9662 57.3012 44.2639 56.6354 44.1952C56.0385 44.1494 55.258 43.783 54.6152 43.3479C54.4315 43.2105 54.2479 43.1189 54.0642 43.0273C54.0413 43.0273 54.0183 43.0044 53.9953 43.0044C53.9035 41.745 53.9035 41.4244 53.8576 40.7603C53.8346 40.3481 53.8117 39.9359 53.7887 39.5238C55.0743 39.5466 56.337 39.9359 57.3012 40.6458C57.6455 40.8977 58.0588 41.3786 58.2424 41.7908C58.472 42.18 58.4261 42.5235 58.0358 42.7296Z" fill="black"/>
<path d="M32.0161 23.9363C32.039 25.1041 32.2686 26.3865 32.062 27.623C31.7406 28.2184 31.1437 28.2871 30.6157 28.5161C29.8811 28.4016 29.2612 27.9207 28.9628 27.2337C28.7791 25.8369 29.0087 24.5087 29.0776 23.1119C29.0776 23.0661 29.9499 23.1348 30.7305 23.3638C31.3962 23.5699 32.0161 23.9134 32.0161 23.9363Z" fill="white"/>
<path d="M25.5193 24.0279C24.8765 26.4552 26.3687 30.4167 28.8251 27.165C28.6415 25.7911 28.8481 24.463 28.917 23.1119C28.9399 22.9974 25.5422 23.8676 25.5193 24.0279Z" fill="white"/>
<path d="M32.2917 25.0126C32.2457 24.3256 32.2228 24.0508 32.2228 23.7073V23.547L32.0621 23.5012L29.1695 22.6082V22.4479L28.871 22.5166H28.8481V22.5395L25.5882 23.3638L25.4734 23.3867L25.4275 23.5012C24.9224 24.7149 25.0372 26.5468 25.68 27.6689C26.4146 28.9512 27.6084 28.9741 28.8251 27.5086C29.1695 28.1726 29.8123 28.6306 30.5469 28.7451H30.6158L30.6847 28.7222C30.7765 28.6764 30.8683 28.6535 31.029 28.5848C31.052 28.5848 31.052 28.5848 31.0749 28.5619C31.7407 28.3329 32.0162 28.1497 32.2457 27.7147L32.2687 27.6918V27.646C32.3376 27.2338 32.3605 26.7987 32.3605 26.3178C32.3605 25.9743 32.3376 25.6537 32.2917 25.0126ZM28.6185 24.1653C28.5956 24.5775 28.5726 24.7378 28.5496 24.9668C28.5037 25.814 28.5037 26.4552 28.5726 27.0964C27.4936 28.4703 26.6442 28.4703 26.0703 27.4399C25.5193 26.4781 25.4045 24.8523 25.8177 23.776L28.7103 23.0433C28.6874 23.3409 28.6644 23.6386 28.6185 24.1653ZM31.8325 27.5544C31.6718 27.8292 31.4652 27.9665 30.9142 28.1497C30.8913 28.1497 30.8913 28.1497 30.8683 28.1726C30.7306 28.2184 30.6387 28.2642 30.5699 28.2871C29.95 28.1726 29.422 27.7605 29.1695 27.188C29.1006 26.5697 29.1006 25.9285 29.1465 25.0813C29.1695 24.8523 29.1695 24.692 29.2154 24.2798C29.2613 23.7531 29.2843 23.4325 29.2843 23.1348L31.7866 23.8905C31.7866 24.1882 31.8096 24.463 31.8555 25.0584C31.9014 25.6766 31.9243 25.9972 31.9243 26.3636C31.9243 26.7987 31.9014 27.188 31.8325 27.5544Z" fill="black"/>
<path d="M11.7 13.9596C13.8121 22.1575 26.9666 20.0508 26.4615 11.83C25.8646 1.98342 9.67981 3.88404 11.7 13.9596Z" fill="white"/>
<path d="M26.6911 11.8071C26.5533 9.42557 25.4973 7.57075 23.7526 6.4029C22.1915 5.34954 20.1253 4.93736 18.0821 5.18925C16.0389 5.46404 14.1565 6.38 12.9168 7.82264C11.5393 9.42557 11.0113 11.5323 11.4934 13.9596L11.7 13.9138L11.4934 13.9596C13.6514 22.3864 27.1961 20.3484 26.6911 11.8071ZM11.9067 13.9138C11.4475 11.601 11.9526 9.63166 13.2382 8.14323C14.409 6.79218 16.1767 5.89912 18.1281 5.64723C20.0794 5.39534 22.0308 5.78462 23.5 6.79218C25.13 7.89134 26.1172 9.60877 26.2549 11.8758C26.737 19.8675 13.9498 21.7911 11.9067 13.9138Z" fill="black"/>
<path d="M15.3272 15.013C16.557 15.013 17.554 13.9365 17.554 12.6086C17.554 11.2807 16.557 10.2042 15.3272 10.2042C14.0973 10.2042 13.1003 11.2807 13.1003 12.6086C13.1003 13.9365 14.0973 15.013 15.3272 15.013Z" fill="black"/>
<path d="M16.3373 13.7765C16.629 13.7765 16.8654 13.4997 16.8654 13.1582C16.8654 12.8167 16.629 12.5399 16.3373 12.5399C16.0457 12.5399 15.8093 12.8167 15.8093 13.1582C15.8093 13.4997 16.0457 13.7765 16.3373 13.7765Z" fill="white"/>
<path d="M30.1484 12.4269C31.7783 21.8384 47.2056 19.3424 44.9787 9.86218C42.9814 1.34373 29.5974 3.70234 30.1484 12.4269Z" fill="white"/>
<path d="M45.1855 9.8164C43.1423 1.04606 29.3679 3.45046 29.9189 12.4498V12.4727C30.6765 16.9151 34.6481 19.1821 39.0329 18.4493C41.0302 18.1059 42.8209 17.1441 43.9917 15.7244C45.2773 14.1443 45.7364 12.1063 45.1855 9.8164ZM43.6473 15.4496C42.5454 16.7777 40.8695 17.6937 38.9641 18.0143C34.8088 18.7012 31.0897 16.5716 30.3551 12.404C29.85 3.93134 42.8438 1.66433 44.7722 9.90799C45.2773 12.0834 44.8641 13.984 43.6473 15.4496Z" fill="black"/>
<path d="M33.9365 14.4192C35.141 14.4192 36.1175 13.3427 36.1175 12.0148C36.1175 10.6868 35.141 9.61035 33.9365 9.61035C32.7321 9.61035 31.7556 10.6868 31.7556 12.0148C31.7556 13.3427 32.7321 14.4192 33.9365 14.4192Z" fill="black"/>
<path d="M34.9465 13.1826C35.2254 13.1826 35.4515 12.9058 35.4515 12.5643C35.4515 12.2229 35.2254 11.946 34.9465 11.946C34.6675 11.946 34.4414 12.2229 34.4414 12.5643C34.4414 12.9058 34.6675 13.1826 34.9465 13.1826Z" fill="white"/>
<path d="M25.9934 19.0809C24.1798 19.2412 22.7105 21.3708 23.6518 23.0653C24.8914 25.3094 27.6693 22.8592 29.3911 23.0882C31.3883 23.134 33.0183 25.1949 34.6023 23.4546C36.37 21.5311 33.8448 19.6533 31.8475 18.829L25.9934 19.0809Z" fill="#F6D2A2"/>
<path d="M34.832 20.6151C34.2122 19.8366 33.1332 19.1267 31.9624 18.6458L31.9165 18.6229H31.8706L25.9935 18.8519C23.9503 19.0351 22.4811 21.3937 23.4682 23.1798C23.8585 23.8668 24.3865 24.2103 25.0982 24.2561C25.6262 24.279 26.1772 24.1645 27.0266 23.8668C27.0955 23.8439 27.1873 23.821 27.3021 23.7752C28.4499 23.3859 28.9091 23.2714 29.3682 23.3401H29.3912C29.9422 23.3401 30.4013 23.5004 31.2737 23.8439C32.2379 24.2332 32.5363 24.3477 33.0184 24.3935C33.6842 24.4393 34.2581 24.2103 34.7861 23.6378C35.6814 22.6532 35.6355 21.5998 34.832 20.6151ZM34.4418 23.3172C34.0056 23.7981 33.5694 23.9584 33.0414 23.9355C32.6281 23.9126 32.3527 23.7981 31.4344 23.4317C30.5161 23.0424 30.011 22.9051 29.4141 22.8822C28.8402 22.8135 28.3581 22.9279 27.1414 23.3401C27.0266 23.3859 26.9348 23.4088 26.8659 23.4317C25.19 24.0042 24.3865 23.9584 23.8355 22.9508C23.0091 21.4624 24.2717 19.4473 25.9935 19.287L31.8017 19.058C32.9036 19.516 33.8908 20.1801 34.4647 20.8899C35.1534 21.7143 35.1764 22.5387 34.4418 23.3172Z" fill="#231F20"/>
<path d="M32.3066 18.0963C31.5949 15.4858 25.6261 15.8751 25.7638 18.9893C26.0623 21.3021 32.9953 20.6839 32.3066 18.0963Z" fill="black"/>
</svg>
