<svg xmlns="http://www.w3.org/2000/svg" width="106.203" height="30.026" viewBox="0 0 106.203 30.026"><g transform="translate(-0.176 -0.181)"><path d="M23.917,11.073q-.158,3.469-4.845,9.5-4.843,6.3-8.2,6.3-2.076,0-3.513-3.837Q6.4,19.519,5.445,16,4.38,12.168,3.157,12.167a7.351,7.351,0,0,0-1.865,1.12L.176,11.846Q1.933,10.3,3.642,8.753,5.988,6.728,7.162,6.619q2.772-.266,3.414,3.792.692,4.38.959,5.447.8,3.634,1.76,3.632.747,0,2.241-2.357a9.3,9.3,0,0,0,1.6-3.588q.213-2.034-1.6-2.036a4.424,4.424,0,0,0-1.758.389q1.75-5.737,6.69-5.578,3.661.108,3.45,4.752" transform="translate(0 3.236)" fill="#1ab7ea"/><path d="M26.37,2.834a3.752,3.752,0,0,1-1.335,2.549,4.765,4.765,0,0,1-3.412,1.379q-3.04,0-2.934-2.653a3.709,3.709,0,0,1,1.625-2.655A5.428,5.428,0,0,1,23.808.181a2.36,2.36,0,0,1,1.868.877A2.5,2.5,0,0,1,26.37,2.834ZM31.01,21.8A17.978,17.978,0,0,1,26.9,26.917a10.979,10.979,0,0,1-7.147,3.091,3.094,3.094,0,0,1-2.534-1.068,4,4,0,0,1-.826-2.771,25.15,25.15,0,0,1,1.092-5.437q1.04-3.677,1.042-3.944,0-1.386-.961-1.387a5.911,5.911,0,0,0-1.815,1.12l-1.226-1.44q1.707-1.544,3.414-3.093,2.293-2.025,3.415-2.134a2.612,2.612,0,0,1,2.586,1.037A4.466,4.466,0,0,1,24.557,14q-.694,3.242-1.494,8.236-.055,2.286,1.653,2.285.747,0,2.667-1.578A22.262,22.262,0,0,0,30,20.469L31.01,21.8" transform="translate(7.569 0)" fill="#1ab7ea"/><path d="M60.792,18.463a17.957,17.957,0,0,1-4.107,5.115,10.983,10.983,0,0,1-7.147,3.091q-3.469,0-3.36-3.838a19.278,19.278,0,0,1,.666-4.1A19.406,19.406,0,0,0,47.51,15q.055-2.023-1.231-2.025-1.391,0-3.317,3.307A14.742,14.742,0,0,0,40.768,23a7.819,7.819,0,0,0,.448,3.521q-3.721.108-5.21-1.226-1.333-1.173-1.223-3.893a14.135,14.135,0,0,1,.524-3.414,13.65,13.65,0,0,0,.522-3.041c.076-1.315-.409-1.973-1.442-1.973q-1.336,0-2.884,3.041a15.489,15.489,0,0,0-1.709,6.346,11.092,11.092,0,0,0,.382,4.161q-3.661.108-5.2-1.543a5.672,5.672,0,0,1-1.168-4.2,29.209,29.209,0,0,1,.49-3.855,29.76,29.76,0,0,0,.49-3.857c.076-.637-.092-.958-.48-.958a5.934,5.934,0,0,0-1.815,1.08l-1.28-1.44q.268-.211,3.36-3.093,2.241-2.078,3.039-2.132a2.357,2.357,0,0,1,2.241,1.146,5.047,5.047,0,0,1,.854,2.907,4.367,4.367,0,0,1-.107,1.014A9.825,9.825,0,0,1,32.469,9.45a9.485,9.485,0,0,1,5.494-2.4q2.614-.213,3.734,1.226a5.2,5.2,0,0,1,.852,3.36c.249-.212.516-.444.8-.693a14.19,14.19,0,0,1,2.4-2.293,7.915,7.915,0,0,1,4.107-1.6,3.938,3.938,0,0,1,3.681,1.222,4.775,4.775,0,0,1,.854,3.346,24.672,24.672,0,0,1-.721,4.332A27.675,27.675,0,0,0,53,19.217a2.864,2.864,0,0,0,.212,1.541c.179.284.6.425,1.28.425q.747,0,2.667-1.579a22.256,22.256,0,0,0,2.615-2.473l1.014,1.332" transform="translate(11.095 3.338)" fill="#1ab7ea"/><path d="M56.752,12.768q.05-1.432-1.171-1.433-1.6,0-3.249,2.2a7.451,7.451,0,0,0-1.7,4.219,3.015,3.015,0,0,0,0,.69,12,12,0,0,0,4.527-2.919A5.158,5.158,0,0,0,56.752,12.768ZM68.86,18.336q-1.546,2.559-6.08,5.114A22.784,22.784,0,0,1,51.312,26.7q-4.319,0-6.187-2.879a7.893,7.893,0,0,1-1.28-4.692q.053-4.319,3.841-8.213A13.26,13.26,0,0,1,57.5,6.646q5.228,0,5.547,4.257.213,2.713-2.988,5.587a16.241,16.241,0,0,1-8.587,3.989,3.313,3.313,0,0,0,2.879,1.33,21.313,21.313,0,0,0,8.375-1.953,22.3,22.3,0,0,0,5.121-2.85l1.013,1.33" transform="translate(23.028 3.409)" fill="#1ab7ea"/><path d="M70.678,14.664a6.731,6.731,0,0,0-.4-2.645c-.3-.8-.739-1.2-1.306-1.2q-2.722,0-4.48,2.94a10.314,10.314,0,0,0-1.6,5.129,4.561,4.561,0,0,0,.48,2.352,1.808,1.808,0,0,0,1.654,1.176q2.4,0,4.107-2.832A10.126,10.126,0,0,0,70.678,14.664Zm6.027.2a12.67,12.67,0,0,1-3.626,8.468A11.266,11.266,0,0,1,64.6,26.9a7.728,7.728,0,0,1-6.4-2.717,8.662,8.662,0,0,1-1.76-5.057,11.076,11.076,0,0,1,3.307-8.416A12.445,12.445,0,0,1,69.4,6.451a6.692,6.692,0,0,1,5.654,2.5,8.588,8.588,0,0,1,1.653,5.911" transform="translate(29.661 3.307)" fill="#1ab7ea"/></g></svg>