<svg width="76" height="25" viewBox="0 0 76 25" fill="none" xmlns="http://www.w3.org/2000/svg">
<g clip-path="url(#clip0_17133_1346)">
<path d="M29.1266 0.0082602H26.0228C25.4507 0.0082602 25.0755 0.439907 25.0755 0.981556V23.6154C25.0755 24.1571 25.4507 24.5911 26.0228 24.5911H29.1266C29.6988 24.5911 30.1388 24.1571 30.1388 23.6154V0.981556C30.1388 0.439907 29.6988 0.0082602 29.1266 0.0082602ZM19.435 17.8816C19.1532 17.2764 18.3456 17.1097 17.8498 17.5643C16.537 18.7684 14.7764 19.5081 12.8353 19.5081C7.74895 19.5081 3.86772 14.4563 6.13935 9.1973C6.81077 7.6429 8.08471 6.39898 9.67259 5.74258C12.7761 4.45962 15.7958 5.1905 17.7989 6.99186C18.2998 7.44231 19.1032 7.28252 19.3854 6.67642L20.7297 3.78886C20.9448 3.32674 20.7962 2.78478 20.3824 2.47863C17.2332 0.14832 12.9344 -0.766514 8.45391 0.728291C4.85791 1.92789 2.0539 4.76711 0.912017 8.315C-1.81942 16.8016 4.57753 24.6027 12.8353 24.6027C15.7092 24.6027 18.3507 23.651 20.4647 22.0584C20.8641 21.7575 20.9893 21.2204 20.7802 20.7712L19.435 17.8816ZM74.6711 8.315C73.5292 4.76711 70.7252 1.92789 67.1292 0.728291C64.584 -0.120852 62.0977 -0.191605 59.8472 0.332176C56.0935 1.15291 53.3748 2.89551 50.9854 7.91909L46.1905 18.1032L38.0519 0.585235C37.9723 0.414232 37.8443 0.269203 37.683 0.167395C37.5216 0.0655877 37.3339 0.0112853 37.142 0.0109457L33.5865 0.00547139C32.8568 0.0043352 32.3709 0.743164 32.6737 1.39327L43.229 23.992C43.3917 24.3414 43.7477 24.5776 44.1398 24.5777L44.3124 24.5912H48.3041C48.3844 24.5912 48.4647 24.575 48.5408 24.5496C48.8155 24.458 49.047 24.2661 49.1672 24.001C49.1672 24.001 54.4518 12.2233 54.5133 12.0812C56.1213 8.36809 57.0972 6.82154 59.6495 5.75931C61.5806 4.95572 63.8642 4.8579 66.072 5.83709C67.6089 6.5187 68.8176 7.76416 69.4604 9.2914C69.8533 10.2141 70.0721 11.199 70.1062 12.1982C70.1637 16.2256 66.8476 19.5083 62.7477 19.5083C60.8066 19.5083 59.046 18.7685 57.7332 17.5645C57.2374 17.1098 56.4298 17.2765 56.148 17.8817L54.8027 20.7714C54.5937 21.2205 54.7188 21.7575 55.1184 22.0585C57.2323 23.651 59.8738 24.6028 62.7477 24.6028C71.0055 24.6027 77.4024 16.8016 74.6711 8.315Z" fill="white"/>
</g>
<defs>
<clipPath id="clip0_17133_1346">
<rect width="75.0386" height="24.6028" fill="white" transform="translate(0.272461)"/>
</clipPath>
</defs>
</svg>
