<svg width="79" height="32" viewBox="0 0 79 32" fill="none" xmlns="http://www.w3.org/2000/svg">
<path fill-rule="evenodd" clip-rule="evenodd" d="M32.772 9.3286C34.4487 9.96299 35.5459 11.0214 35.5459 11.0214C35.5719 10.5185 35.7022 9.98929 35.8877 9.51596C35.8877 9.51596 35.3636 8.51341 33.7943 7.42869C32.0916 6.26508 30.1544 5.94953 30.1544 5.94953C29.7605 6.7943 29.5 7.72124 29.3438 8.69749C29.3438 8.6942 30.7567 8.53642 32.772 9.3286ZM33.9766 5.91995C35.5719 7.478 36.1482 9.03934 36.1482 9.03934C36.438 8.56272 36.8221 8.14855 37.2747 7.82314C37.2747 7.82314 36.6984 5.97254 35.7315 4.57226C34.7906 3.19828 33.2441 2.06097 33.2441 2.06097C32.4855 2.64277 31.8051 3.32976 31.2549 4.09564C31.2549 4.09564 32.8241 4.78263 33.9766 5.91995ZM36.7766 3.99046C37.483 5.84106 37.6654 7.58318 37.6654 7.58318C38.183 7.33008 38.743 7.16902 39.3128 7.10656C39.3128 7.10656 39.3388 5.30856 38.9449 3.48425C38.5053 1.34768 37.9812 0 37.9812 0C37.0403 0.157778 36.1482 0.424027 35.3115 0.818471C35.3115 0.818471 36.2784 2.72166 36.7766 3.99046ZM46.254 9.3286C44.6066 9.96299 43.4801 11.0214 43.4801 11.0214C43.4801 10.5185 43.3499 9.98929 43.1675 9.51596C43.1675 9.51596 43.6917 8.51341 45.261 7.42869C46.9637 6.26508 48.8748 5.94953 48.8748 5.94953C49.2818 6.8173 49.5553 7.74425 49.6855 8.69749C49.6822 8.6942 48.2692 8.53642 46.254 9.3286ZM45.0754 5.91995C43.4801 7.478 42.9038 9.03934 42.9038 9.03934C42.6108 8.55614 42.2169 8.13869 41.7513 7.82314C41.7513 7.82314 42.3536 5.97254 43.2945 4.57226C44.2615 3.19828 45.8079 2.06097 45.8079 2.06097C46.5665 2.64277 47.2209 3.32976 47.7972 4.09564C47.7972 4.09564 46.2279 4.78263 45.0754 5.91995ZM42.2755 3.99046C41.5429 5.84106 41.3606 7.58318 41.3606 7.58318C40.8885 7.34652 40.2862 7.15916 39.7393 7.10656C39.7393 7.10656 39.7132 5.30856 40.0811 3.48425C40.5467 1.34768 41.0709 0 41.0709 0C42.0118 0.157778 42.9038 0.424027 43.7405 0.818471C43.7405 0.818471 42.7703 2.72166 42.2755 3.99046Z" fill="#76A0CD"/>
<path fill-rule="evenodd" clip-rule="evenodd" d="M34.157 15.6193C36.1463 14.6693 38.1355 14.8797 38.1355 14.8797C37.429 14.5905 36.8267 14.1401 36.3807 13.5583C36.3807 13.5583 34.5998 13.348 33.2389 13.6109C31.1715 14.0349 30.2534 14.7482 30.2534 14.7482C30.6734 15.6193 31.2204 16.4115 31.8487 17.128C31.8552 17.1248 32.6919 16.3326 34.157 15.6193ZM32.6138 12.6051C34.6551 12.4999 36.0421 13.0291 36.0421 13.0291C35.7816 12.5788 35.6221 12.0792 35.57 11.5237C35.57 11.5237 33.9747 10.6 32.4803 10.4126C30.439 10.1234 29.2344 10.5178 29.2344 10.5178C29.2572 11.4776 29.4167 12.4309 29.7065 13.3447C29.7097 13.3447 31.0153 12.684 32.6138 12.6051Z" fill="#123F75"/>
<path fill-rule="evenodd" clip-rule="evenodd" d="M39.5232 17.1789C42.4045 17.1789 43.684 19.7165 43.684 19.7165C44.5793 19.3155 45.416 18.7896 46.1714 18.1585C46.1714 18.1585 43.71 15.0391 39.5232 15.0391C35.3363 15.0391 32.875 18.1585 32.875 18.1585C33.6336 18.7929 34.4443 19.3221 35.3624 19.7165C35.3624 19.7165 36.6191 17.1789 39.5232 17.1789Z" fill="#123F75"/>
<path fill-rule="evenodd" clip-rule="evenodd" d="M44.8671 15.6193C42.9039 14.6693 40.8886 14.8797 40.8886 14.8797C41.5951 14.5905 42.2234 14.1401 42.6694 13.5583C42.6694 13.5583 44.4503 13.348 45.8112 13.6109C47.8786 14.0349 48.7934 14.7482 48.7934 14.7482C48.3735 15.6193 47.8265 16.4115 47.1981 17.128C47.1949 17.1248 46.3321 16.3326 44.8671 15.6193ZM46.4103 12.6051C44.395 12.4999 43.008 13.0291 43.008 13.0291C43.2424 12.5788 43.4248 12.0792 43.4801 11.5237C43.4801 11.5237 45.0754 10.6 46.5698 10.4126C48.6111 10.1234 49.8157 10.5178 49.8157 10.5178C49.7897 11.4941 49.6074 12.4473 49.3437 13.3447C49.3404 13.3447 48.0316 12.684 46.4103 12.6051ZM1.88506 26.8248V23.3603H3.35013C3.8743 23.3603 4.29104 23.4128 4.71102 23.758C5.10497 24.0735 5.36542 24.5765 5.36542 25.0794C5.36542 25.6349 5.15706 26.0819 4.73707 26.4534C4.31708 26.7952 3.8743 26.8215 3.35013 26.8215L1.88506 26.8248ZM1.88506 27.5907H3.42827C4.18685 27.5907 4.81521 27.4855 5.39147 26.93C5.91564 26.4271 6.20214 25.7927 6.20214 25.0794C6.20214 24.3135 5.83425 23.5739 5.26124 23.1236C4.68498 22.6996 4.03058 22.5944 3.35013 22.5944H0V23.3603H1.04834V30.0757H0V30.8415H2.9041V30.0757H1.88506V27.5907ZM7.04212 27.4592C7.19839 26.3219 8.22069 25.3719 9.37321 25.3719C10.6039 25.3719 11.6783 26.243 11.8345 27.4855L7.04212 27.4592ZM11.4927 29.1487C11.0467 29.9146 10.2881 30.3386 9.39926 30.3386C8.1686 30.3386 7.12026 29.3361 7.04212 28.0903H12.5378V27.8536C12.5378 26.0819 11.1769 24.6816 9.396 24.6816C7.64117 24.6816 6.28028 26.1608 6.28028 27.8799C6.28028 29.599 7.69326 30.9993 9.42205 30.9993C10.6788 30.9993 11.7792 30.286 12.3001 29.1487H11.4927ZM14.7126 26.003C14.9991 25.1583 15.787 24.8131 16.6497 24.7868V25.5001C15.3149 25.6053 14.7126 26.3975 14.7126 27.6926V30.125H15.7316V30.8383H12.9578V30.125H13.9768V25.5034H12.9578V24.7901H14.7126V26.003ZM19.5278 25.8453C19.8957 25.0794 20.7064 24.6816 21.5431 24.6816C22.1975 24.6816 23.2198 25.0498 23.6105 25.8453C23.7667 26.1345 23.9523 26.69 23.9523 27.4296V30.125H24.9486V30.8383H22.1714V30.125H23.1905V27.6926C23.1905 27.1634 23.1644 26.6341 22.904 26.1608C22.5621 25.6053 21.911 25.4212 21.3347 25.4212C20.8106 25.4212 20.2603 25.6612 19.9217 26.0556C19.5278 26.5322 19.5278 27.0319 19.5278 27.6137V30.125H20.5208V30.8383H17.7469V30.125H18.7692V25.5034H17.7469V24.7901H19.5278V25.8453ZM28.2954 30.2597C26.9346 30.2597 25.8862 29.1487 25.8862 27.8273C25.8862 26.5059 26.9606 25.4212 28.2954 25.4212C29.6303 25.4212 30.6786 26.5322 30.6786 27.8536C30.6786 29.175 29.6042 30.2597 28.2954 30.2597ZM28.2954 30.9993C30.0503 30.9993 31.4372 29.5727 31.4372 27.801C31.4372 26.0819 30.0242 24.6816 28.2954 24.6816C26.5406 24.6816 25.1276 26.0819 25.1276 27.8536C25.1276 29.599 26.5439 30.9993 28.2954 30.9993ZM35.1292 30.286C33.8204 30.286 32.6939 29.2013 32.6939 27.8536C32.6939 26.5059 33.7683 25.3949 35.1292 25.3949C36.438 25.3949 37.5384 26.4796 37.5384 27.8273C37.5352 29.175 36.4901 30.286 35.1292 30.286ZM37.5091 30.8415H39.264V30.1283H38.2677V22.5944H36.4868V23.3077H37.5091V26.1871C37.037 25.2372 36.0441 24.6816 35.0218 24.6816C33.3451 24.6816 31.9321 26.1345 31.9321 27.8273C31.9321 28.4091 32.1665 29.0698 32.4563 29.5727C33.0065 30.4175 34.1036 30.9993 35.0478 30.9993C36.0961 30.9993 36.985 30.4701 37.5091 29.5727V30.8415ZM49.9167 30.8415H48.3214L45.808 27.2981H46.1205C46.7228 27.2981 47.3251 27.2981 47.846 26.9826C48.4223 26.6144 48.7609 26.0063 48.7609 25.3193C48.7609 24.7375 48.5786 24.2083 48.1586 23.8402C47.6605 23.3898 47.1363 23.3635 46.534 23.3635H44.9094V30.0757H45.9056V30.8415H43.0536V30.0757H44.102V23.3603H43.0536V22.5944H46.5861C47.3707 22.5944 48.0251 22.6733 48.6795 23.2025C49.2818 23.7317 49.5944 24.4713 49.5944 25.2897C49.5944 26.69 48.52 27.8273 47.107 27.8273L48.8325 30.0757H49.9069L49.9167 30.8415ZM52.2999 30.1283H53.3222V30.8415H50.5222V30.1283H51.5706V25.5034H50.5483V24.7901H52.3031V30.1283H52.2999ZM51.5673 22.5944H52.2999V23.7843H51.5673V22.5944ZM59.1304 26.6111H58.4239C58.0039 25.8978 57.1932 25.4475 56.3565 25.4475C55.0477 25.4475 53.9993 26.5322 53.9993 27.8536C53.9993 29.2276 55.0737 30.2597 56.4346 30.2597C57.2974 30.2334 58.1374 29.7568 58.476 28.9646L59.3387 28.9383C58.8927 30.2071 57.662 30.9993 56.3565 30.9993C54.6537 30.9993 53.2408 29.5727 53.2408 27.8799C53.2408 27.0089 53.5794 26.2134 54.1296 25.6316C54.7058 25.0498 55.4644 24.6816 56.3272 24.6816C57.1639 24.6816 57.8704 25.0268 58.4206 25.6316V24.7868H59.1271L59.1304 26.6111ZM62.8484 25.4245C64.1572 25.4245 65.2316 26.5092 65.2316 27.8306C65.2316 29.1783 64.1572 30.263 62.7963 30.263C61.4875 30.263 60.4131 29.152 60.4131 27.8569C60.4131 26.5059 61.5135 25.4245 62.8484 25.4245ZM65.2316 30.8415H66.9864V30.1283H65.9902V25.5034H66.9864V24.7901H65.2316V26.1115C64.6814 25.1878 63.8446 24.6849 62.7702 24.6849C61.6698 24.6849 60.6508 25.2404 60.1526 26.1115C59.915 26.5618 59.6545 26.9563 59.6545 27.8569C59.6285 28.5176 59.8368 29.0994 60.1266 29.6023C60.6768 30.4734 61.6698 31.0026 62.7702 31.0026C63.8186 31.0026 64.7074 30.4997 65.2316 29.6023V30.8415ZM69.5487 26.003C69.8091 25.1583 70.623 24.8131 71.4598 24.7868V25.5001C70.151 25.6053 69.5487 26.3975 69.5487 27.6926V30.125H70.5416V30.8383H67.7678V30.125H68.7901V25.5034H67.7678V24.7901H69.5487V26.003ZM74.862 30.286C73.5532 30.286 72.4267 29.2013 72.4267 27.8536C72.4267 26.5059 73.5011 25.3949 74.862 25.3949C76.1708 25.3949 77.2712 26.4796 77.2712 27.8273C77.2712 29.175 76.2261 30.286 74.862 30.286ZM77.2452 30.8415H79V30.1283H78.007V22.5944H76.2261V23.3077H77.2484V26.1871C76.7763 25.2372 75.7834 24.6816 74.7611 24.6816C73.0844 24.6816 71.6714 26.1345 71.6714 27.8273C71.6714 28.4091 71.909 29.0698 72.1956 29.5727C72.7458 30.4175 73.8429 30.9993 74.7871 30.9993C75.8354 30.9993 76.7243 30.4701 77.2484 29.5727L77.2452 30.8415Z" fill="#123F75"/>
</svg>
