<svg width="54" height="46" viewBox="0 0 54 46" fill="none" xmlns="http://www.w3.org/2000/svg">
<path d="M51.7899 35.3091C48.9602 36.7954 34.3013 42.8687 31.1805 44.508C28.0597 46.1479 26.326 46.1319 23.8607 44.9443C21.3954 43.7567 5.79578 37.4073 2.98575 36.0538C1.58121 35.3773 0.842773 34.8066 0.842773 34.2673V28.8664C0.842773 28.8664 21.1514 24.4113 24.4302 23.2262C27.7087 22.0409 28.8461 21.9981 31.6362 23.028C34.4266 24.058 51.1097 27.0912 53.8674 28.1088C53.8674 28.1088 53.8661 32.9324 53.8661 33.433C53.8665 33.967 53.2303 34.5528 51.7899 35.3091Z" fill="#A41E11"/>
<path d="M51.7898 29.9134C48.9601 31.3991 34.3012 37.4731 31.1804 39.1123C28.0596 40.7522 26.3259 40.7362 23.8606 39.5486C21.3951 38.3616 5.79572 32.011 2.98569 30.6582C0.175657 29.3047 0.116743 28.3731 2.87721 27.2842C5.63737 26.1946 21.1513 20.0613 24.4304 18.8759C27.709 17.6911 28.8464 17.6478 31.6365 18.678C34.4269 19.7079 48.9982 25.5523 51.7555 26.5699C54.5135 27.5885 54.6195 28.4272 51.7898 29.9134Z" fill="#D82C20"/>
<path d="M51.7899 26.5065C48.9602 27.9928 34.3013 34.0661 31.1805 35.706C28.0597 37.3453 26.326 37.3292 23.8607 36.1417C21.3951 34.9547 5.79578 28.6047 2.98575 27.2512C1.58121 26.5747 0.842773 26.0046 0.842773 25.4653V20.0638C0.842773 20.0638 21.1514 15.609 24.4302 14.4236C27.7087 13.2386 28.8461 13.1955 31.6362 14.2254C34.4266 15.2554 51.1097 18.2879 53.8674 19.3059C53.8674 19.3059 53.8661 24.1295 53.8661 24.6308C53.8665 25.1644 53.2303 25.7502 51.7899 26.5065Z" fill="#A41E11"/>
<path d="M51.7898 21.1069C48.9601 22.5932 34.3012 28.6665 31.1804 30.3064C28.0596 31.9456 26.3259 31.9296 23.8606 30.742C21.3951 29.5551 5.79572 23.2047 2.98569 21.8516C0.175657 20.4985 0.116743 19.5669 2.87721 18.4773C5.63737 17.3883 21.1513 11.2547 24.4304 10.0696C27.709 8.88456 28.8464 8.84152 31.6365 9.87144C34.4269 10.9014 48.9982 16.7454 51.7555 17.7634C54.5135 18.7817 54.6195 19.6206 51.7898 21.1069Z" fill="#D82C20"/>
<path d="M51.7899 17.3729C48.9602 18.8592 34.3013 24.9329 31.1805 26.5728C28.0597 28.212 26.326 28.196 23.8607 27.0084C21.3951 25.8214 5.79578 19.4711 2.98575 18.118C1.58121 17.4414 0.842773 16.871 0.842773 16.332V10.9306C0.842773 10.9306 21.1514 6.47577 24.4302 5.29069C27.7087 4.1053 28.8461 4.06258 31.6362 5.0925C34.4266 6.12241 51.1097 9.15499 53.8674 10.173C53.8674 10.173 53.8661 14.9965 53.8661 15.4975C53.8665 16.0308 53.2303 16.6166 51.7899 17.3729Z" fill="#A41E11"/>
<path d="M51.7898 11.9692C48.9601 13.4555 34.3012 19.5291 31.1804 21.1687C28.0596 22.808 26.3259 22.7919 23.8606 21.6047C21.3954 20.4174 5.79572 14.0673 2.98569 12.7142C0.175657 11.3611 0.116743 10.4292 2.87721 9.33992C5.63737 8.25064 21.1513 2.11764 24.4304 0.932246C27.709 -0.253145 28.8464 -0.295859 31.6365 0.73437C34.4269 1.76428 48.9982 7.60831 51.7555 8.62629C54.5135 9.64396 54.6195 10.4832 51.7898 11.9692Z" fill="#D82C20"/>
<path d="M34.3035 6.76614L29.709 7.2467L28.6803 9.74059L27.019 6.95774L21.7137 6.47718L25.6724 5.03863L24.4848 2.83057L28.191 4.29109L31.6852 3.13838L30.7407 5.42183L34.3035 6.76614Z" fill="white"/>
<path d="M28.4058 18.8654L19.8308 15.2816L32.1182 13.3813L28.4058 18.8654Z" fill="white"/>
<path d="M16.5179 13.2874C20.1449 13.2874 23.0852 12.1389 23.0852 10.7222C23.0852 9.30545 20.1449 8.15698 16.5179 8.15698C12.8908 8.15698 9.95056 9.30545 9.95056 10.7222C9.95056 12.1389 12.8908 13.2874 16.5179 13.2874Z" fill="white"/>
<path d="M39.7332 7.44629L47.0052 10.3422L39.7394 13.235L39.7332 7.44629Z" fill="#7A0C00"/>
<path d="M31.6877 10.6532L39.7328 7.44629L39.7391 13.235L38.9504 13.546L31.6877 10.6532Z" fill="#AD2115"/>
</svg>
