<svg width="88" height="46" viewBox="0 0 88 46" fill="none" xmlns="http://www.w3.org/2000/svg">
<path d="M79.1168 25.4072H78.7762V31.3256H74.5485V16.5899L78.7762 9.94666V23.6961C79.6177 22.6593 82.4529 18.7237 82.4529 18.7237H87.6723L82.7233 23.9879L87.8426 31.3357H82.503L79.1168 25.4072ZM67.3355 24.4409L69.0686 18.764H73.2562L68.3473 31.2853C66.8846 35.0498 64.7908 37.5964 61.6652 37.5964C60.463 37.5964 59.4512 37.2844 58.9203 36.9824L60.6033 34.3654C60.8537 34.3956 61.1142 34.4056 61.3747 34.4056C62.8173 34.4056 63.8992 32.9965 64.6005 31.3256L59.4512 18.764H64.1898L66.0432 24.3704C66.4038 25.4373 66.6643 27.4705 66.6643 27.4705C66.6643 27.4705 66.9949 25.5078 67.3355 24.4409ZM54.5623 24.149C54.5623 22.5083 53.8411 21.7333 52.4686 21.7333C51.7974 21.7333 51.0961 21.9245 50.6152 22.2164V31.3256H46.3876V18.8847L50.5251 18.5426L50.4248 20.5757H50.5651C51.4567 19.3679 52.9695 18.452 54.7727 18.452C56.9367 18.452 58.81 19.8007 58.81 22.9915V31.3256H54.5623V24.149ZM34.2856 30.6814L34.6663 27.7826C35.9887 28.4369 37.4815 28.7489 38.7337 28.7489C39.6454 28.7489 40.2464 28.4369 40.2464 27.8833C40.2464 26.2929 34.5461 26.6754 34.5461 22.5184C34.5461 19.8611 36.9705 18.462 40.006 18.462C41.5187 18.462 43.0816 18.8747 44.0934 19.2371L43.6826 22.0855C42.6207 21.6728 41.1782 21.2904 39.976 21.2904C39.2346 21.2904 38.6335 21.5521 38.6335 22.0352C38.6335 23.6055 44.454 23.2934 44.454 27.3498C44.454 30.0473 42.0698 31.5974 38.8038 31.5974C37.0005 31.5974 35.5379 31.2853 34.2856 30.6814Z" fill="white"/>
<path d="M25.0822 12.316H4.05273C4.05273 10.9915 5.95357 6.98826 9.75526 0.30603C9.75526 0.30603 10.2816 3.83022 11.3343 10.8786L17.7589 10.8787L19.3359 0.30603C23.1668 7.07686 25.0822 11.0802 25.0822 12.316Z" fill="white"/>
<path d="M14.5352 45.8207L0.236084 35.7392V12.2096C0.236084 12.2096 5.52292 10.2465 14.5535 10.2465C23.5842 10.2465 28.8323 12.2096 28.8323 12.2096V35.7392L14.5352 45.8207Z" fill="white"/>
<path d="M14.5352 44.4037L1.14966 35.0056V13.1539C1.14966 13.1539 6.15528 11.3308 14.5352 11.3308V44.4037Z" fill="#DBDBDB"/>
<path d="M14.5534 11.3308C14.5471 11.3308 14.5413 11.331 14.5352 11.3308V44.3758H14.5353L27.8032 35.0051V13.1539C27.8032 13.1539 22.9332 11.3308 14.5534 11.3308Z" fill="#C6C6C6"/>
<path d="M21.778 39.2621L20.6493 29.3923H14.4458C14.4458 37.226 14.4458 42.2373 14.4458 44.4266L14.5352 44.5116C16.9486 42.8503 19.3629 41.1005 21.778 39.2621Z" fill="#3B3B63"/>
<path d="M7.29639 39.34L14.5353 44.5115L14.5389 29.0918H8.26964L7.29639 39.34Z" fill="#53537A"/>
<path d="M17.6329 36.4186C17.6329 38.1143 16.0339 38.9549 14.567 38.9549C13.1001 38.9549 11.4688 38.1143 11.4688 36.4186" fill="#BC9375"/>
<path d="M14.5506 37.2954C13.3729 37.2954 12.8003 36.4397 12.8003 34.6804H13.3618C13.3618 36.7401 14.1645 36.7401 14.5506 36.7401C14.9365 36.7401 15.7394 36.7401 15.7394 34.6804H16.3008C16.3008 36.4397 15.7281 37.2954 14.5506 37.2954Z" fill="white"/>
<path d="M14.5352 35.1098C14.8975 36.0534 15.5978 36.5252 16.6362 36.5252C17.6528 36.5252 18.7137 35.9952 19.1969 34.6856C19.8717 32.8538 19.8649 30.304 19.8649 30.304C19.8649 30.304 22.8636 26.5869 22.8636 25.33C22.8636 25.33 20.0874 25.33 14.5352 25.33V35.1098Z" fill="#C49A7E"/>
<path d="M6.08594 25.33C6.08594 26.7855 9.05869 30.304 9.05869 30.304C9.05869 30.304 9.05139 32.853 9.72688 34.6856C10.2089 35.9943 11.2709 36.5252 12.2878 36.5252C13.3262 36.5252 14.0753 36.0534 14.5352 35.1098V25.33H6.08594Z" fill="#D8B7A0"/>
<path d="M22.5056 16.9605C20.194 14.6137 19.6158 9.71997 19.6158 9.71997C19.1842 11.2619 18.2462 15.8085 18.2462 15.8085C18.2462 15.8085 16.424 15.225 14.4615 15.222C14.397 15.222 14.397 21.3477 14.4615 33.5993L16.3299 32.262L16.6772 25.7726L18.6667 28.0202L21.2296 28.7618C21.2296 28.7618 22.1886 28.0848 22.1886 28.0872C22.5957 27.5227 22.7307 27.0417 22.8292 26.7922C23.1852 25.8841 22.386 18.9401 22.386 18.9401C22.1022 18.352 22.5056 16.9605 22.5056 16.9605Z" fill="#3B3B63"/>
<path d="M10.8729 15.8081C10.8729 15.8081 9.93444 11.2618 9.50324 9.7196C9.50324 9.7196 8.92543 14.6133 6.61342 16.9602C6.61342 16.9602 7.01688 18.3519 6.73311 18.9398C6.73311 18.9398 5.93388 25.8841 6.28982 26.7906C6.38813 27.0405 6.52426 27.5212 6.93081 28.0858C6.93081 28.0833 7.89029 28.7605 7.89029 28.7605L10.4527 28.0188L12.4417 25.7715L12.79 32.2609L14.537 33.5628V15.1875C12.567 15.1908 10.8729 15.8081 10.8729 15.8081Z" fill="#53537A"/>
<path d="M20.8879 5.18475C21.2715 5.8925 24.5686 12.4356 24.5686 14.7014L23.1062 18.6453C23.3536 20.8707 23.8457 25.7061 23.4742 26.6508C23.2449 27.2351 22.3707 28.4372 21.6231 29.4106L22.6453 38.6487L21.2634 39.634L20.4951 32.884C20.3895 33.5689 20.2306 34.3003 19.9886 34.9572C19.6684 35.8265 19.1027 36.4852 18.3791 36.8754C18.3368 38.9595 16.3957 40.0839 14.5668 40.0839C12.7227 40.0839 10.7655 38.9604 10.7223 36.8771C9.99721 36.4861 9.43085 35.8274 9.11035 34.9572C8.87785 34.3256 8.72129 33.6266 8.61513 32.9646L7.88014 39.7581L6.49078 38.7568L7.49411 29.4387C6.74056 28.461 5.84961 27.241 5.6181 26.6503C5.24662 25.7053 5.71951 20.8707 5.96728 18.6449L4.41797 14.5629V14.4298C4.41797 12.164 7.80146 5.8925 8.18555 5.18475L9.28133 3.19775C9.94855 7.80143 10.2819 10.1053 10.2814 10.1094L10.821 13.84L11.5309 14.9954C12.213 14.7675 13.3709 14.451 14.5434 14.451C15.7172 14.451 16.883 14.7686 17.568 14.9961L18.2776 13.8401L19.8148 3.19775L20.8879 5.18475ZM14.5668 38.6026C15.3763 38.6026 16.5291 38.2402 16.8169 37.2796C16.786 37.2805 16.7562 37.283 16.7253 37.283C16.5678 37.283 16.4205 37.2684 16.2776 37.249C15.8601 37.8239 15.2096 37.9984 14.5507 37.9984C13.8929 37.9984 13.2437 37.8223 12.8269 37.2483C12.6831 37.2686 12.5342 37.283 12.3754 37.283C12.3451 37.283 12.3158 37.2805 12.286 37.2796C12.5768 38.2402 13.7451 38.6026 14.5668 38.6026ZM13.6189 37.0237C13.8699 37.2098 14.1801 37.3134 14.5513 37.3134C14.9204 37.3134 15.2292 37.2091 15.4799 37.0237C15.2799 36.9357 15.0991 36.8309 14.9396 36.7164C14.7952 36.7587 14.6571 36.7578 14.5505 36.7578C14.4435 36.7578 14.3038 36.7578 14.1584 36.7155C13.9993 36.8309 13.8187 36.9357 13.6189 37.0237ZM19.3706 29.857C20.3652 28.6345 21.8624 26.6656 22.0793 26.1145C22.2429 25.5472 21.9638 21.7861 21.6088 18.6338L21.5893 18.459L21.8827 17.6758C20.9152 16.6551 20.2401 15.2562 19.779 13.9352L19.7191 14.3501L18.1915 16.8349L17.5949 16.5833C17.5803 16.577 16.0227 15.9316 14.5443 15.9316C13.0564 15.9316 11.5241 16.5764 11.5091 16.5828L10.9116 16.8365L9.38218 14.3507L9.33686 14.0323C8.87072 15.3404 8.19504 16.7147 7.23209 17.7133L7.51239 18.4595L7.49284 18.6345C7.13763 21.7861 6.8586 25.5472 7.02763 26.1288C7.23904 26.6665 8.73645 28.6354 9.73048 29.857L9.89637 30.0611L9.89548 30.3226C9.89548 30.3472 9.89839 32.7655 10.5185 34.4486C10.9688 35.6693 11.9675 35.7998 12.3766 35.7998C13.405 35.7998 13.8401 34.8659 13.858 34.8261C14.099 34.3569 14.2195 33.586 14.2195 32.5134H14.8413C14.8413 33.3751 14.9709 34.1477 15.23 34.8312C15.2458 34.865 15.6919 35.8021 16.7253 35.8021C17.1335 35.8021 18.1326 35.6702 18.5825 34.4495C19.2047 32.7605 19.2054 30.3472 19.2054 30.3235L19.2047 30.062L19.3706 29.857Z" fill="#333152"/>
<path d="M19.2011 23.2837H16.9555H16.207V23.315C16.207 24.3495 17.1111 25.1876 18.1716 25.1876C19.2326 25.1876 20.1367 24.3493 20.1367 23.315V23.2837H19.2011Z" fill="#333152"/>
<path d="M16.9556 23.2837V23.315C16.9556 23.9303 17.4563 24.429 18.0786 24.429C18.701 24.429 19.2014 23.9303 19.2014 23.315V23.2837H16.9556Z" fill="white"/>
<path d="M17.8987 23.2837C17.8936 23.2837 17.8892 23.2863 17.8846 23.2871C17.9499 23.3007 17.9861 23.4471 17.972 23.5445C17.951 23.6934 17.8227 23.7968 17.6758 23.7993C17.7185 23.9939 17.879 24.1505 18.092 24.1802C18.3643 24.2183 18.6159 24.0336 18.6544 23.7645C18.6822 23.5663 18.5859 23.2837 18.4249 23.2837H17.8987Z" fill="#333152"/>
<path d="M11.9734 23.2837H9.72811H8.97949V23.315C8.97949 24.3495 9.88378 25.1876 10.9441 25.1876C12.005 25.1876 12.9093 24.3493 12.9093 23.315V23.2837H11.9734Z" fill="#333152"/>
<path d="M9.72827 23.2837V23.315C9.72827 23.9303 10.2293 24.429 10.8507 24.429C11.4733 24.429 11.9738 23.9303 11.9738 23.315V23.2837H9.72827Z" fill="white"/>
<path d="M11.1978 23.2837H10.6709C10.6663 23.2837 10.6614 23.2863 10.6573 23.2871C10.7223 23.3007 10.7583 23.4471 10.7446 23.5445C10.7234 23.6934 10.5958 23.7968 10.448 23.7993C10.4913 23.9939 10.6517 24.1505 10.8644 24.1802C11.1365 24.2183 11.3887 24.0336 11.4266 23.7645C11.4548 23.5663 11.3587 23.2837 11.1978 23.2837Z" fill="#333152"/>
<path d="M18.9754 22.4007C19.1011 22.2644 20.1684 21.0665 18.7409 21.0665C17.4511 21.0665 16.5231 22.096 16.2771 22.4007H18.9754Z" fill="#C49A7E"/>
<path d="M12.8183 22.4007C12.5725 22.096 11.6445 21.0665 10.3542 21.0665C8.92754 21.0665 9.9948 22.2644 10.1198 22.4007H12.8183Z" fill="#D8B7A0"/>
<path d="M5.95605 14.3094C6.04083 13.1341 7.27696 10.318 8.45608 7.94482L8.77037 10.1147C8.6505 10.926 8.10269 14.1079 6.63323 16.1135L5.95605 14.3094Z" fill="#D8B7A0"/>
<path d="M20.356 9.94572L20.6456 7.94495C21.8245 10.318 23.0613 13.1342 23.1461 14.3095L22.4849 16.0708C20.8972 13.8629 20.3991 10.2737 20.356 9.94572Z" fill="#C49A7E"/>
<mask id="mask0_18198_726" style="mask-type:alpha" maskUnits="userSpaceOnUse" x="12" y="31" width="5" height="4">
<path d="M13.4499 33.8314C12.8962 33.4158 12.3281 32.8914 12.3281 32.4891C12.3281 32.2249 12.8005 31.4105 12.8005 31.4105H16.3129C16.3129 31.4105 16.7734 32.1325 16.7734 32.4891C16.7734 32.8637 16.2001 33.3736 15.628 33.7892C15.4333 33.4575 15.1855 33.3999 15.071 33.6613C15.0119 33.7968 15.0003 33.9918 15.0292 34.1959C14.7176 34.395 14.4899 34.5233 14.4899 34.5233C14.4899 34.5233 14.3141 34.4217 14.0628 34.2582C14.1033 34.032 14.0955 33.8105 14.0302 33.6613C13.9148 33.3964 13.662 33.4591 13.4658 33.8027C13.4604 33.8122 13.4551 33.8216 13.4499 33.8314Z" fill="white"/>
</mask>
<g mask="url(#mask0_18198_726)">
<path d="M13.4499 33.8314C12.8962 33.4158 12.3281 32.8914 12.3281 32.4891C12.3281 32.2249 12.8005 31.4105 12.8005 31.4105H16.3129C16.3129 31.4105 16.7734 32.1325 16.7734 32.4891C16.7734 32.8637 16.2001 33.3736 15.628 33.7892C15.4333 33.4575 15.1855 33.3999 15.071 33.6613C15.0119 33.7968 15.0003 33.9918 15.0292 34.1959C14.7176 34.395 14.4899 34.5233 14.4899 34.5233C14.4899 34.5233 14.3141 34.4217 14.0628 34.2582C14.1033 34.032 14.0955 33.8105 14.0302 33.6613C13.9148 33.3964 13.662 33.4591 13.4658 33.8027C13.4604 33.8122 13.4551 33.8216 13.4499 33.8314Z" fill="#333152"/>
</g>
</svg>
