<svg width="109" height="29" viewBox="0 0 109 29" fill="none" xmlns="http://www.w3.org/2000/svg">
<path d="M8.70518 2.93248C7.60094 1.62233 6.65006 0.291714 6.4558 0.0153533C6.43535 -0.00511778 6.40467 -0.00511778 6.38422 0.0153533C6.18995 0.291714 5.23908 1.62233 4.13483 2.93248C-5.34326 15.0206 5.62762 23.1784 5.62762 23.1784L5.71963 23.2398C5.80142 24.4987 6.00591 26.3105 6.00591 26.3105H6.41489H6.82387C6.82387 26.3105 7.02837 24.509 7.11017 23.2398L7.20218 23.1682C7.2124 23.1784 18.1833 15.0206 8.70518 2.93248ZM6.41489 22.9941C6.41489 22.9941 5.92413 22.5745 5.7912 22.3596V22.339L6.38422 9.17617C6.38422 9.13522 6.44558 9.13522 6.44558 9.17617L7.03859 22.339V22.3596C6.90567 22.5745 6.41489 22.9941 6.41489 22.9941Z" fill="#001E2B"/>
<path d="M26.9464 20.3085L22.3747 9.14265L22.3645 9.11182H18.8076V9.86237H19.3816C19.5558 9.86237 19.7198 9.93434 19.8429 10.0577C19.9658 10.1811 20.0274 10.3456 20.0274 10.5204L19.9249 21.7582C19.9249 22.1078 19.6379 22.3956 19.2893 22.406L18.7051 22.4162V23.1565H22.1698V22.4162L21.8109 22.406C21.4625 22.3956 21.1754 22.1078 21.1754 21.7582V11.1681L26.1572 23.1565C26.2289 23.3312 26.3929 23.4444 26.5774 23.4444C26.7619 23.4444 26.9259 23.3312 26.9977 23.1565L31.8667 11.4354L31.9384 21.7582C31.9384 22.1181 31.6514 22.406 31.2926 22.4162H30.9236V23.1565H34.9828V22.4162H34.4292C34.0807 22.4162 33.7937 22.1181 33.7834 21.7685L33.7527 10.5306C33.7527 10.1708 34.0397 9.88293 34.3883 9.87265L34.9828 9.86237V9.11182H31.5181L26.9464 20.3085Z" fill="#001E2B"/>
<path d="M58.8226 22.2235C58.7094 22.1102 58.6478 21.9557 58.6478 21.7703V16.2499C58.6478 15.1994 58.3396 14.3754 57.7228 13.7883C57.1166 13.2012 56.2738 12.9026 55.2256 12.9026C53.7559 12.9026 52.5947 13.4999 51.7827 14.6741C51.7725 14.6947 51.7417 14.705 51.7109 14.705C51.6799 14.705 51.6595 14.6843 51.6595 14.6535L51.2791 13.1806H50.6419L49.0079 14.1179V14.6328H49.4293C49.6245 14.6328 49.789 14.6843 49.9021 14.7874C50.0151 14.8904 50.0767 15.0449 50.0767 15.2611V21.76C50.0767 21.9454 50.0151 22.0999 49.9021 22.2132C49.789 22.3264 49.6349 22.3883 49.4499 22.3883H49.0387V23.1401H52.8001V22.3883H52.3891C52.2041 22.3883 52.0499 22.3264 51.9369 22.2132C51.8239 22.0999 51.7621 21.9454 51.7621 21.76V17.4549C51.7621 16.909 51.8855 16.3632 52.1116 15.8276C52.3479 15.3024 52.6973 14.8595 53.1599 14.5196C53.6223 14.1797 54.1773 14.0149 54.8145 14.0149C55.5339 14.0149 56.0786 14.2415 56.4177 14.6947C56.7568 15.1479 56.9316 15.7349 56.9316 16.4353V21.7498C56.9316 21.9351 56.8699 22.0896 56.7568 22.2029C56.6438 22.3162 56.4896 22.3779 56.3046 22.3779H55.8936V23.1298H59.655V22.3779H59.2439C59.0898 22.3986 58.9458 22.3368 58.8226 22.2235Z" fill="#001E2B"/>
<path d="M93.1877 9.95251C92.1479 9.39888 90.9859 9.11182 89.7321 9.11182H84.8394V9.86024H85.3185C85.5019 9.86024 85.665 9.93202 85.8281 10.0961C85.981 10.2498 86.0625 10.4242 86.0625 10.6086V21.6404C86.0625 21.8249 85.981 21.9992 85.8281 22.153C85.6753 22.3068 85.5019 22.3888 85.3185 22.3888H84.8394V23.1372H89.7321C90.9859 23.1372 92.1479 22.8502 93.1877 22.2965C94.2273 21.7429 95.0734 20.9227 95.685 19.877C96.2966 18.8312 96.6125 17.5702 96.6125 16.1348C96.6125 14.6995 96.2966 13.4486 95.685 12.3926C95.0632 11.3264 94.2273 10.5164 93.1877 9.95251ZM94.6453 16.1143C94.6453 17.4266 94.4108 18.5338 93.9521 19.4258C93.4935 20.3178 92.8818 20.9842 92.1275 21.4149C91.3733 21.8455 90.5374 22.0608 89.6404 22.0608H88.6516C88.4682 22.0608 88.3051 21.989 88.142 21.8249C87.989 21.6711 87.9075 21.4969 87.9075 21.3123V10.906C87.9075 10.7215 87.9789 10.5575 88.142 10.3934C88.2948 10.2396 88.4682 10.1576 88.6516 10.1576H89.6404C90.5374 10.1576 91.3733 10.3729 92.1275 10.8035C92.8818 11.2341 93.4935 11.9005 93.9521 12.7924C94.4108 13.6947 94.6453 14.8122 94.6453 16.1143Z" fill="#001E2B"/>
<path d="M108.178 16.8628C107.725 16.3398 106.852 15.899 105.825 15.6631C107.243 14.9557 107.972 13.9612 107.972 12.6797C107.972 11.9825 107.788 11.3571 107.417 10.8239C107.048 10.2909 106.523 9.86024 105.856 9.56291C105.187 9.26559 104.406 9.11182 103.523 9.11182H97.9845V9.86024H98.4264C98.6113 9.86024 98.7757 9.93202 98.9401 10.0961C99.0943 10.2498 99.1765 10.4242 99.1765 10.6086V21.6404C99.1765 21.8249 99.0943 21.9992 98.9401 22.153C98.786 22.3068 98.6113 22.3888 98.4264 22.3888H97.9434V23.1372H103.955C104.869 23.1372 105.722 22.9835 106.493 22.6758C107.264 22.3683 107.88 21.9172 108.322 21.3225C108.774 20.7279 109 20 109 19.1592C108.99 18.257 108.722 17.4881 108.178 16.8628ZM101.283 21.8351C101.129 21.6814 101.047 21.5071 101.047 21.3225V16.3705H103.904C104.91 16.3705 105.681 16.6269 106.215 17.1395C106.75 17.6522 107.017 18.3185 107.017 19.1388C107.017 19.6309 106.893 20.1128 106.668 20.5536C106.431 21.0048 106.081 21.3636 105.609 21.6404C105.146 21.9172 104.571 22.0608 103.904 22.0608H101.797C101.612 22.0608 101.447 21.989 101.283 21.8351ZM101.057 15.3145V10.9163C101.057 10.7317 101.129 10.5677 101.293 10.4036C101.447 10.2498 101.622 10.1678 101.807 10.1678H103.163C104.139 10.1678 104.859 10.4139 105.311 10.8855C105.763 11.3674 105.989 11.9825 105.989 12.7412C105.989 13.5204 105.773 14.1458 105.352 14.6174C104.93 15.0788 104.294 15.3145 103.451 15.3145H101.057Z" fill="#001E2B"/>
<path d="M44.5036 13.5566C43.7184 13.1274 42.8414 12.9026 41.8931 12.9026C40.9448 12.9026 40.0576 13.1172 39.2826 13.5566C38.4974 13.9856 37.8754 14.6089 37.4165 15.3956C36.9577 16.1824 36.7231 17.102 36.7231 18.1237C36.7231 19.1454 36.9577 20.0651 37.4165 20.8518C37.8754 21.6386 38.4974 22.2618 39.2826 22.691C40.0679 23.1201 40.9448 23.3449 41.8931 23.3449C42.8414 23.3449 43.7286 23.1303 44.5036 22.691C45.2888 22.2618 45.9108 21.6386 46.3697 20.8518C46.8285 20.0651 47.0631 19.1454 47.0631 18.1237C47.0631 17.102 46.8285 16.1824 46.3697 15.3956C45.9108 14.6089 45.2888 13.9856 44.5036 13.5566ZM45.2582 18.1237C45.2582 19.3805 44.9523 20.4022 44.3404 21.1379C43.7388 21.8735 42.9129 22.2516 41.8931 22.2516C40.8734 22.2516 40.0474 21.8735 39.4458 21.1379C38.8339 20.4022 38.528 19.3805 38.528 18.1237C38.528 16.867 38.8339 15.8453 39.4458 15.1096C40.0474 14.3739 40.8734 13.9959 41.8931 13.9959C42.9129 13.9959 43.7388 14.3739 44.3404 15.1096C44.9523 15.8453 45.2582 16.867 45.2582 18.1237Z" fill="#001E2B"/>
<path d="M80.6418 13.5566C79.8565 13.1274 78.9796 12.9026 78.0313 12.9026C77.083 12.9026 76.1958 13.1172 75.4208 13.5566C74.6356 13.9856 74.0136 14.6089 73.5547 15.3956C73.0959 16.1824 72.8613 17.102 72.8613 18.1237C72.8613 19.1454 73.0959 20.0651 73.5547 20.8518C74.0136 21.6386 74.6356 22.2618 75.4208 22.691C76.206 23.1201 77.083 23.3449 78.0313 23.3449C78.9796 23.3449 79.8668 23.1303 80.6418 22.691C81.427 22.2618 82.049 21.6386 82.5079 20.8518C82.9667 20.0651 83.2012 19.1454 83.2012 18.1237C83.2012 17.102 82.9667 16.1824 82.5079 15.3956C82.049 14.6089 81.4167 13.9856 80.6418 13.5566ZM81.3964 18.1237C81.3964 19.3805 81.0904 20.4022 80.4786 21.1379C79.8769 21.8735 79.0509 22.2516 78.0313 22.2516C77.0115 22.2516 76.1856 21.8735 75.584 21.1379C74.9721 20.4022 74.6662 19.3805 74.6662 18.1237C74.6662 16.8567 74.9721 15.8453 75.584 15.1096C76.1856 14.3739 77.0115 13.9959 78.0313 13.9959C79.0509 13.9959 79.8769 14.3739 80.4786 15.1096C81.0802 15.8453 81.3964 16.867 81.3964 18.1237Z" fill="#001E2B"/>
<path d="M66.0678 12.9026C65.2462 12.9026 64.4966 13.077 63.8188 13.426C63.1409 13.775 62.6069 14.2473 62.2269 14.8528C61.847 15.4482 61.6519 16.1154 61.6519 16.8237C61.6519 17.46 61.7956 18.0451 62.0934 18.5687C62.381 19.0716 62.7713 19.4924 63.2642 19.8414L61.7956 21.8328C61.6107 22.0791 61.5902 22.4075 61.7237 22.6744C61.8675 22.9516 62.1345 23.1159 62.4426 23.1159H62.8637C62.4529 23.393 62.1242 23.7214 61.8983 24.1115C61.6313 24.5528 61.4978 25.0147 61.4978 25.4869C61.4978 26.3697 61.8881 27.0985 62.6582 27.6425C63.4183 28.1865 64.4862 28.4636 65.8316 28.4636C66.7661 28.4636 67.6596 28.3097 68.4709 28.012C69.2925 27.7144 69.9599 27.2729 70.4529 26.6982C70.9562 26.1233 71.2129 25.4254 71.2129 24.6247C71.2129 23.783 70.9048 23.1876 70.1859 22.6129C69.5698 22.1304 68.6044 21.8738 67.4028 21.8738H63.295C63.2848 21.8738 63.2744 21.8635 63.2744 21.8635C63.2744 21.8635 63.2642 21.843 63.2744 21.8328L64.3425 20.3957C64.6301 20.5291 64.8971 20.6112 65.1333 20.6625C65.3797 20.7139 65.657 20.7344 65.9651 20.7344C66.8278 20.7344 67.6083 20.56 68.286 20.211C68.9638 19.862 69.5082 19.3898 69.8984 18.7842C70.2886 18.1888 70.4837 17.5217 70.4837 16.8134C70.4837 16.0538 70.114 14.6681 69.1076 13.9598C69.1076 13.9496 69.1179 13.9496 69.1179 13.9496L71.3258 14.1959V13.1797H67.7931C67.2385 13.0053 66.6635 12.9026 66.0678 12.9026ZM67.3001 19.3282C66.9099 19.5334 66.4888 19.6464 66.0678 19.6464C65.3798 19.6464 64.7738 19.4 64.2603 18.9177C63.7469 18.4352 63.4901 17.7269 63.4901 16.8237C63.4901 15.9204 63.7469 15.2121 64.2603 14.7297C64.7738 14.2473 65.3798 14.0009 66.0678 14.0009C66.4991 14.0009 66.9099 14.1036 67.3001 14.3191C67.6904 14.5244 68.0088 14.8426 68.2655 15.2635C68.5119 15.6843 68.6454 16.2078 68.6454 16.8237C68.6454 17.4498 68.5222 17.9732 68.2655 18.3839C68.019 18.8047 67.6904 19.1229 67.3001 19.3282ZM64.5171 23.1055H67.3001C68.0704 23.1055 68.5633 23.2595 68.892 23.588C69.2206 23.9164 69.3849 24.3578 69.3849 24.8711C69.3849 25.6204 69.0871 26.2363 68.4915 26.6982C67.8958 27.1601 67.0948 27.3962 66.1089 27.3962C65.2462 27.3962 64.5273 27.2012 64.0035 26.8316C63.4798 26.4621 63.2128 25.8975 63.2128 25.179C63.2128 24.7274 63.3361 24.3065 63.5826 23.937C63.829 23.5674 64.1268 23.3005 64.5171 23.1055Z" fill="#001E2B"/>
</svg>
