<svg width="307" height="34" viewBox="0 0 307 34" fill="none" xmlns="http://www.w3.org/2000/svg">
<path d="M28.4282 6.94861H19.1189V25.9707H24.7785V19.2316H29.6165C35.2003 19.2316 38.5303 16.5348 38.5303 13.0024C38.5303 9.07808 35.5922 6.94861 28.4282 6.94861ZM32.8779 12.9237C32.8779 14.1817 32.1754 16.0338 28.8237 16.0338H24.7785V10.1142H28.8237C32.1754 10.1142 32.8779 11.6889 32.8779 12.9237Z" fill="white"/>
<path d="M202.367 10.9427C200.231 10.9427 198.299 11.7176 197.143 12.7733H197.069V6.94861H192.328V25.9707H197.069V15.8888C198.161 14.6165 199.691 14.1656 200.948 14.1656C204.341 14.1656 204.395 16.3147 204.395 19.1331V25.9689H209.139V17.5942C209.139 14.3445 208.26 10.9427 202.367 10.9427Z" fill="white"/>
<path d="M158.672 10.9426C156.532 10.9426 154.468 11.7139 153.327 12.7733H153.256V11.2504H148.584V25.9706H153.327V15.8887C154.417 14.6164 155.949 14.1655 157.211 14.1655C160.595 14.1655 160.651 16.3146 160.651 19.133V25.9688H165.399V17.5941C165.399 14.3408 164.561 10.9426 158.672 10.9426Z" fill="white"/>
<path d="M188.809 22.3272C187.474 22.6565 185.43 23.1236 182.647 23.1236C177.675 23.1236 174.694 20.4537 174.694 16.5419C174.694 12.6856 177.764 9.96377 182.154 9.78662C184.225 9.70967 186.044 10.0354 187.38 10.3754L189.426 7.46925C187.178 6.88409 184.413 6.67114 181.822 6.67114C173.695 6.67114 168.843 10.7207 168.843 16.5437C168.843 23.2882 175.337 26.1692 181.863 26.3375C183.841 26.384 186.54 26.1156 188.809 25.6109V22.3272Z" fill="white"/>
<path d="M55.9372 20.4842L51.0379 6.94861H42.0193V25.9707H47.4749V10.9087H47.7963L53.3783 25.9707H58.4943L64.0691 10.9087H64.3996V25.9707H69.8714V6.94861H60.8853L55.9372 20.4842Z" fill="white"/>
<path d="M92.3475 18.5945C92.3475 13.3567 88.1109 10.7512 82.6662 10.7512C77.2287 10.7512 72.9849 13.3567 72.9849 18.5945C72.9849 23.8126 77.2287 26.436 82.6662 26.436C88.1109 26.436 92.3475 23.8126 92.3475 18.5945ZM87.2911 18.5945C87.2911 21.4702 85.794 23.4296 82.6662 23.4296C79.551 23.4296 78.0359 21.4702 78.0359 18.5945C78.0359 15.717 79.551 13.7432 82.6662 13.7432C85.794 13.7432 87.2911 15.7152 87.2911 18.5945Z" fill="white"/>
<path d="M116.573 23.0126C113.821 23.0126 112.497 20.8258 112.497 18.5818C112.497 16.3396 113.574 13.9596 116.741 13.9596C119.533 13.9596 120.793 15.9961 120.793 18.5013C120.793 20.6326 119.667 23.0126 116.573 23.0126ZM120.988 11.2432V12.6551H120.914C119.889 11.6494 118.278 10.9408 115.463 10.9408C109.951 10.9408 107.553 14.9134 107.553 18.5138C107.553 22.7549 110.018 25.9473 115.13 26.1209C117.738 26.2336 119.757 25.0991 120.703 24.2097H120.768C120.768 24.2097 120.768 24.514 120.768 24.8289C120.768 27.0997 119.876 29.308 115.224 29.308C113.362 29.308 111.284 28.9966 109.312 28.0535V31.4678C111.253 32.1103 113.413 32.3447 115.927 32.3447C123.647 32.3447 125.465 28.1949 125.465 24.233V11.2432H120.988Z" fill="white"/>
<path d="M140.189 22.0069C138.679 23.145 137.137 23.4778 135.775 23.5333C134.15 23.5834 133.027 23.0716 133.027 21.5452C133.027 19.745 135.66 19.4408 138.555 19.4408H140.189V22.0069ZM144.783 16.7083C144.783 12.9217 142.407 10.9408 137.005 10.9408C135.239 10.9408 132.695 11.1358 130.471 11.7246V14.6701C132.205 14.0509 134.276 13.7413 135.954 13.7413C138.352 13.7413 140.189 14.0455 140.189 16.9982H137.861C135.877 16.9982 133.15 17.1878 131.667 17.6764C129.944 18.2454 128.304 19.4623 128.304 21.6096C128.304 25.0705 131.358 26.3142 134.788 26.3142C137.325 26.3142 139.1 25.7541 140.4 24.4889H140.469V25.967H144.783V16.7083Z" fill="white"/>
<path d="M223.859 22.0069C222.346 23.145 220.803 23.4778 219.429 23.5333C217.815 23.5834 216.682 23.0716 216.682 21.5452C216.682 19.745 219.319 19.4408 222.219 19.4408H223.859V22.0069ZM228.453 16.7083C228.453 12.9217 226.078 10.9408 220.659 10.9408C218.905 10.9408 216.366 11.1358 214.131 11.7246V14.6701C215.871 14.0509 217.943 13.7413 219.619 13.7413C222.028 13.7413 223.859 14.0455 223.859 16.9982H221.54C219.548 16.9982 216.823 17.1878 215.324 17.6764C213.616 18.2454 211.974 19.4623 211.974 21.6096C211.974 25.0705 215.021 26.3142 218.45 26.3142C220.993 26.3142 222.777 25.7541 224.059 24.4889H224.133V25.967H228.453V16.7083Z" fill="white"/>
<path d="M8.74044 6.94861V18.5158C8.74044 21.1284 7.5287 22.73 4.83071 22.7711C3.96388 22.789 2.12188 22.7318 0.514648 22.381V25.9976C2.13814 26.2463 4.11377 26.3161 5.72281 26.3161C11.0953 26.3161 14.3947 23.4977 14.3947 19.1439V6.94861H8.74044Z" fill="white"/>
<path d="M262.462 22.6261C260.661 23.1289 259.413 23.3544 257.512 23.3544C254.44 23.3544 252.342 22.2181 252.094 19.847H264.219C264.286 19.2189 264.277 18.2955 264.21 17.5744C263.861 13.8433 261.55 10.9408 255.951 10.9408C250.211 10.9408 247.646 14.722 247.646 18.7447C247.646 24.1775 251.711 26.3142 257.116 26.3142C259.356 26.3142 260.914 26.0064 262.462 25.6055V22.6261ZM256.222 13.7234C258.478 13.7234 259.563 15.0047 259.908 16.5186C259.961 16.7602 259.989 17.0196 259.979 17.2397H252.094C252.287 15.3715 253.627 13.7234 256.222 13.7234Z" fill="white"/>
<path d="M239.052 10.9426C235.42 10.9426 231.763 12.0843 231.763 15.4682C231.763 18.3528 234.207 19.244 236.95 19.9741C239.87 20.7489 240.897 20.9529 240.955 21.9533C241.011 23.0126 239.958 23.5387 237.394 23.5387C235.758 23.5387 233.463 23.1254 231.973 22.4829V25.5966C234.423 26.2229 236.291 26.316 237.999 26.316C242.098 26.316 245.77 25.1654 245.77 21.6544C245.77 18.7734 243.682 17.6746 240.319 16.9034C237.86 16.3272 236.484 16.0927 236.484 15.0745C236.484 14.0277 237.724 13.6483 239.781 13.6483C241.313 13.6483 242.812 14.0277 243.839 14.3534L245.598 11.8624C243.924 11.3381 241.735 10.9426 239.052 10.9426Z" fill="white"/>
<path d="M104.949 10.9426C102.932 10.9426 101.043 11.4598 99.8742 13.489H99.8002V11.2522H95.2837V25.9724H100.194V18.7787C100.194 17.238 100.454 16.3075 100.779 15.7724C101.321 14.8813 101.984 14.3927 103.277 14.2013C103.927 14.1136 104.877 14.1905 105.547 14.5699L107.742 11.4598C106.829 11.1126 106.059 10.9426 104.949 10.9426Z" fill="white"/>
<path d="M285.095 0.839233C284.479 0.839233 283.98 1.33313 283.98 1.94155V9.67386H304.595L295.208 0.839233H285.095Z" fill="#0079C1"/>
<path d="M305.351 12.0127C305.351 11.4025 304.853 10.9104 304.237 10.9104H296.434V31.3372L305.347 22.0356L305.351 12.0127Z" fill="#0079C1"/>
<path d="M294.072 32.0799C294.684 32.0799 295.182 31.5878 295.182 30.9758V23.2452H274.566L283.953 32.0781L294.072 32.0799Z" fill="#0079C1"/>
<path d="M273.813 20.9064C273.813 21.5166 274.31 22.0105 274.924 22.0105H282.731V1.58191L273.813 10.8854V20.9064Z" fill="#0079C1"/>
</svg>
