<svg xmlns="http://www.w3.org/2000/svg" xmlns:xlink="http://www.w3.org/1999/xlink" width="146" height="24.773" viewBox="0 0 146 24.773"><defs><clipPath id="a"><rect width="146" height="24.773" fill="none"/></clipPath><clipPath id="d"><rect width="145.969" height="24.253" fill="none"/></clipPath></defs><g transform="translate(-0.25 0.144)"><g transform="translate(0.25 -0.144)"><g clip-path="url(#a)"><g transform="translate(0 0)"><g clip-path="url(#a)"><g transform="translate(13.869 0.488)"><path d="M46.573,2.475A2.219,2.219,0,1,1,48.788,4.7a2.22,2.22,0,0,1-2.215-2.224" transform="translate(-3.188 -0.25)" fill="#273b7d"/><path d="M74.894,14.444a2.218,2.218,0,1,1,2.214,2.225,2.219,2.219,0,0,1-2.214-2.225" transform="translate(3.495 2.574)" fill="#499fdd"/><path d="M18.447,15.268c-1.911,0-3.239-1.518-3.239-3.686S16.536,7.9,18.447,7.9s3.263,1.517,3.263,3.684C21.71,13.784,20.4,15.268,18.447,15.268Zm0-10.61a6.722,6.722,0,0,0-6.976,6.924A6.721,6.721,0,0,0,18.447,18.5a6.736,6.736,0,0,0,7-6.923,6.736,6.736,0,0,0-7-6.924" transform="translate(-11.471 0.79)" fill="#273b7d"/><path d="M44.772,12.858a3.294,3.294,0,0,0-.529-.745l-.122-.13.129-.124a5.486,5.486,0,0,0,.559-.7l3.567-5.3H44.044l-2.68,4.148a1.047,1.047,0,0,1-.917.335h-.611V2.5C39.837.932,38.86.719,37.8.719H36L36,19.23h3.838V13.677h.36c.436,0,.734.051.871.289l2.117,3.995a2.129,2.129,0,0,0,2.289,1.269h2.94l-2.19-3.623-1.452-2.75" transform="translate(-5.683 -0.139)" fill="#273b7d"/><path d="M59.67,4.634a5.216,5.216,0,0,0-3.895,1.6l-.234.235-.082-.32a1.769,1.769,0,0,0-1.937-1.217H51.8l.011,13.37h3.811V12.139a4.987,4.987,0,0,1,.239-1.6A3.132,3.132,0,0,1,58.95,8.2c1.189,0,1.654.628,1.654,2.249v5.824A1.769,1.769,0,0,0,62.631,18.3h1.813l-.006-8.5c0-3.378-1.648-5.164-4.767-5.164" transform="translate(-1.953 0.785)" fill="#273b7d"/><path d="M48.751,4.879H46.944l.012,10.338h0v3.031h1.928l.068,0,.9,0h.894v-.006h.006L50.758,6.91A1.772,1.772,0,0,0,48.752,4.88" transform="translate(-3.1 0.842)" fill="#273b7d"/><path d="M30.559,15.268c-1.911,0-3.241-1.518-3.241-3.686S28.648,7.9,30.559,7.9s3.264,1.517,3.264,3.684C33.823,13.784,32.508,15.268,30.559,15.268Zm0-10.61a6.724,6.724,0,0,0-6.981,6.924A6.723,6.723,0,0,0,30.559,18.5a6.739,6.739,0,0,0,7-6.923,6.739,6.739,0,0,0-7-6.924" transform="translate(-8.614 0.79)" fill="#273b7d"/></g></g></g></g></g><g transform="translate(0.25 -0.144)"><g clip-path="url(#a)"><g transform="translate(0 0.488)"><g clip-path="url(#d)"><g transform="translate(0 -0.488)"><g clip-path="url(#a)"><g transform="translate(77.679 5.876)"><path d="M96.652,15.268c-1.91,0-3.241-1.518-3.241-3.686S94.742,7.9,96.652,7.9s3.265,1.517,3.265,3.684C99.917,13.784,98.6,15.268,96.652,15.268Zm0-10.61a6.723,6.723,0,0,0-6.98,6.924,6.992,6.992,0,0,0,13.984,0,6.739,6.739,0,0,0-7-6.924" transform="translate(-56.827 -4.599)" fill="#499fdd"/><path d="M69.809,14.691c-2.084,0-2.825-1.818-2.825-3.521,0-.751.189-3.2,2.625-3.2,1.21,0,2.823.347,2.823,3.324C72.432,14.1,71,14.691,69.809,14.691Zm4.6-9.783a1.654,1.654,0,0,0-1.559.815l-.105.2-.177-.153A5.184,5.184,0,0,0,69.06,4.61C65.5,4.61,63.1,7.286,63.1,11.269s2.482,6.758,6.034,6.758a4.681,4.681,0,0,0,2.932-.859l.294-.22v.371c0,1.786-1.154,2.771-3.248,2.771a7.691,7.691,0,0,1-2.562-.472,1.133,1.133,0,0,0-1.61.769l-.3.749-.428,1.093.266.141a10.4,10.4,0,0,0,4.66,1.136c3.246,0,7.035-1.661,7.035-6.337l.014-12.261h-1.77" transform="translate(-63.098 -4.61)" fill="#273b7d"/></g></g></g></g></g></g></g><g transform="translate(0.25 -0.144)"><g clip-path="url(#a)"><g transform="translate(0 0)"><g clip-path="url(#a)"><g transform="translate(0 1.073)"><path d="M6.9,16.043l-3.1,0V12.33c0-.792.308-1.205.988-1.3H6.9a2.321,2.321,0,0,1,2.487,2.493A2.31,2.31,0,0,1,6.9,16.043ZM3.8,6.036V5.061c0-.855.362-1.261,1.156-1.314H6.541A2,2,0,0,1,8.718,5.925,2.066,2.066,0,0,1,6.592,8.178H3.8V6.036Zm7.065,3.7L10.3,9.423l.489-.418a4.478,4.478,0,0,0,1.524-3.493c0-2.909-2.257-4.787-5.75-4.787H2.126A1.946,1.946,0,0,0,.25,2.646V19.161H6.645c3.882,0,6.389-2.114,6.389-5.386a4.5,4.5,0,0,0-2.172-4.037" transform="translate(-0.25 -0.724)" fill="#273b7d"/><path d="M117.754,4.669a5.254,5.254,0,0,0-4.092,1.983l-.276.35-.216-.392a3.8,3.8,0,0,0-3.61-1.94,4.833,4.833,0,0,0-3.511,1.576l-.361.391-.14-.514a1.7,1.7,0,0,0-1.859-1.148h-1.6l-.016,13.318h3.64V12.412a6.565,6.565,0,0,1,.193-1.557c.347-1.421,1.3-2.949,2.907-2.8.99.094,1.473.859,1.473,2.337v7.894h3.666V12.412a5.326,5.326,0,0,1,.205-1.609A3.164,3.164,0,0,1,117,8.057c1.12,0,1.534.634,1.534,2.34v5.948c0,1.346.6,1.947,1.945,1.947h1.713l0-8.5c0-3.4-1.5-5.119-4.438-5.119" transform="translate(23.777 0.207)" fill="#499fdd"/><path d="M90.086,13.667a5.624,5.624,0,0,1-3.639,1.665,3.559,3.559,0,0,1-3.776-3.726,3.521,3.521,0,0,1,3.577-3.775c.685,0,1.462.246,1.585.658l.017.07a1.337,1.337,0,0,0,1.3.984l1.994,0V7.8c0-2.3-2.924-3.133-4.892-3.133-4.208,0-7.261,2.929-7.261,6.965a6.841,6.841,0,0,0,7.185,6.959,7.554,7.554,0,0,0,5.6-2.4l.105-.13-1.58-2.619-.208.221" transform="translate(18.33 0.207)" fill="#499fdd"/></g></g></g></g></g></g></svg>