<svg xmlns="http://www.w3.org/2000/svg" width="173.626" height="24.932" viewBox="0 0 173.626 24.932"><g transform="translate(-17.197 -1287.074)"><path d="M103.137,1304.889l9.788-9.778a3.528,3.528,0,0,1,4.977,0l.761.761,1.525-1.525-.761-.764a5.69,5.69,0,0,0-8.038,0l-9.781,9.781Z" transform="translate(-79.469 -4.563)"/><path d="M36.734,1293.768l-1.525-1.525-9.791,9.792a3.526,3.526,0,0,1-4.984-4.988h0l8.447-8.448-1.525-1.525-8.447,8.447a5.682,5.682,0,1,0,7.942,8.129l.093-.092Zm9.746,1.754a5.694,5.694,0,0,0-8.038,0l-9.791,9.791,1.525,1.526,9.791-9.792a3.526,3.526,0,0,1,6.016,2.494,3.475,3.475,0,0,1-1.042,2.494l-8.437,8.447,1.528,1.524,8.447-8.447A5.689,5.689,0,0,0,46.481,1295.522Z"/><path d="M161.688,1486.6l-9.791,9.787a3.531,3.531,0,0,1-4.988,0l-.761-.764-1.525,1.525.761.765a5.694,5.694,0,0,0,8.038,0l9.791-9.8Z" transform="translate(-119.966 -187.844)"/><path d="M664.641,1398.517a2.333,2.333,0,0,0,.885,1.459,2.977,2.977,0,0,0,1.837.524,2.62,2.62,0,0,0,1.737-.518,1.7,1.7,0,0,0,.611-1.361,1.389,1.389,0,0,0-.163-.7,1.469,1.469,0,0,0-.458-.483,2.925,2.925,0,0,0-.723-.347l-.965-.291-.921-.251a8.425,8.425,0,0,1-1.483-.545,4.583,4.583,0,0,1-1.122-.75,2.9,2.9,0,0,1-.695-.99,3.249,3.249,0,0,1-.243-1.3,3.289,3.289,0,0,1,.313-1.432,3.129,3.129,0,0,1,.879-1.118,4.184,4.184,0,0,1,1.389-.733,5.753,5.753,0,0,1,1.827-.267,4.689,4.689,0,0,1,3.032.9,3.56,3.56,0,0,1,1.313,2.431l-2.084.17a2.085,2.085,0,0,0-.758-1.2,2.581,2.581,0,0,0-1.587-.431,2.282,2.282,0,0,0-1.483.438,1.387,1.387,0,0,0-.535,1.128,1.285,1.285,0,0,0,.157.664,1.415,1.415,0,0,0,.448.465,3.167,3.167,0,0,0,.716.347c.281.1.6.215.955.33l.882.275q.823.26,1.49.542a4.42,4.42,0,0,1,1.129.7,2.691,2.691,0,0,1,.716.948,3.3,3.3,0,0,1,.25,1.361,3.573,3.573,0,0,1-.348,1.577,3.484,3.484,0,0,1-.966,1.216,4.572,4.572,0,0,1-1.476.777,6.08,6.08,0,0,1-1.886.275,5.4,5.4,0,0,1-3.188-.9,3.892,3.892,0,0,1-1.588-2.726Zm16.134-9.066a6.672,6.672,0,0,1,2.553.472,5.576,5.576,0,0,1,1.962,1.327,5.975,5.975,0,0,1,1.261,2.042A7.344,7.344,0,0,1,687,1395.9a7.057,7.057,0,0,1-.476,2.647,5.979,5.979,0,0,1-1.351,2.042l1.653,1.935v.6h-2.084l-1.157-1.414a6.684,6.684,0,0,1-1.31.466,6.911,6.911,0,0,1-1.483.152,6.7,6.7,0,0,1-2.577-.5,5.568,5.568,0,0,1-1.949-1.33,5.906,5.906,0,0,1-1.24-2.033,7.792,7.792,0,0,1,0-5.171,5.882,5.882,0,0,1,1.25-2.036,5.657,5.657,0,0,1,1.956-1.333A6.448,6.448,0,0,1,680.775,1389.452Zm-.018,1.861a3.88,3.88,0,0,0-1.664.347,3.535,3.535,0,0,0-1.241.955,4.285,4.285,0,0,0-.778,1.446,5.935,5.935,0,0,0-.263,1.813,5.822,5.822,0,0,0,.274,1.826,4.466,4.466,0,0,0,.785,1.463,3.593,3.593,0,0,0,1.24.973,3.83,3.83,0,0,0,1.664.348,3.983,3.983,0,0,0,1.664-.348,3.507,3.507,0,0,0,1.24-.942,4.233,4.233,0,0,0,.785-1.451,6.069,6.069,0,0,0,.278-1.869,5.916,5.916,0,0,0-.278-1.841,4.3,4.3,0,0,0-.785-1.445,3.6,3.6,0,0,0-1.247-.945A3.957,3.957,0,0,0,680.757,1391.313Zm14.428,9.257a2.65,2.65,0,0,0,2.084-.82,3.637,3.637,0,0,0,.74-2.507v-7.552h2.164v7.621a6.782,6.782,0,0,1-.347,2.3,3.965,3.965,0,0,1-.983,1.57,3.817,3.817,0,0,1-1.567.9,7.8,7.8,0,0,1-4.168,0,3.789,3.789,0,0,1-1.56-.9,4.019,4.019,0,0,1-.983-1.57,6.8,6.8,0,0,1-.347-2.3v-7.621h2.171v7.551a3.636,3.636,0,0,0,.743,2.507A2.644,2.644,0,0,0,695.185,1400.57Zm7.155.91,4.394-11.775h3.258l4.345,11.775v.591H712.2l-1.243-3.537H705.6l-1.258,3.537h-2.014Zm3.911-4.793h4.089l-.674-1.966c-.264-.767-.476-1.389-.639-1.879s-.3-.907-.431-1.274h-.532l-.208.587c-.07.194-.146.413-.233.653s-.181.517-.285.83-.229.671-.378,1.084Zm20.223,5.384h-2.084l-3.776-4.863h-1.389v4.863h-2.139v-12.38H721.1a12.316,12.316,0,0,1,1.8.129,3.722,3.722,0,0,1,1.547.6,3.25,3.25,0,0,1,1.465,2.91,3.94,3.94,0,0,1-.253,1.473,3.3,3.3,0,0,1-.664,1.07,3.47,3.47,0,0,1-.954.716,5.057,5.057,0,0,1-1.129.413l3.561,4.481v.591Zm-7.256-6.725H721.1a3.633,3.633,0,0,0,1.957-.451,1.62,1.62,0,0,0,.715-1.479,1.519,1.519,0,0,0-.727-1.452,3.961,3.961,0,0,0-1.945-.41h-1.878v3.793Zm10.013-5.654h8.016v1.9h-5.9v3.241h5.48v1.863h-5.47v3.473h6.016v1.908h-8.138Zm12.931,8.826a2.338,2.338,0,0,0,.885,1.459,2.99,2.99,0,0,0,1.838.524,2.622,2.622,0,0,0,1.737-.518,1.7,1.7,0,0,0,.612-1.361,1.406,1.406,0,0,0-.163-.7,1.486,1.486,0,0,0-.459-.483,2.936,2.936,0,0,0-.722-.347l-.967-.291-.929-.258a8.373,8.373,0,0,1-1.483-.546,4.571,4.571,0,0,1-1.122-.75,2.889,2.889,0,0,1-.694-.99,3.508,3.508,0,0,1,.069-2.733,3.165,3.165,0,0,1,.878-1.119,4.169,4.169,0,0,1,1.39-.733,5.751,5.751,0,0,1,1.827-.267,4.709,4.709,0,0,1,3.037.9,3.567,3.567,0,0,1,1.309,2.431l-2.084.171a2.087,2.087,0,0,0-.75-1.206,2.578,2.578,0,0,0-1.588-.431,2.28,2.28,0,0,0-1.482.438,1.383,1.383,0,0,0-.531,1.129,1.278,1.278,0,0,0,.152.663,1.414,1.414,0,0,0,.448.466,3.149,3.149,0,0,0,.715.347c.281.1.6.216.958.33l.879.274q.827.261,1.489.542a4.486,4.486,0,0,1,1.13.694,2.72,2.72,0,0,1,.715.948,3.3,3.3,0,0,1,.25,1.363,3.578,3.578,0,0,1-.347,1.576,3.421,3.421,0,0,1-.965,1.215,4.6,4.6,0,0,1-1.476.772,6.121,6.121,0,0,1-1.889.274,5.415,5.415,0,0,1-3.189-.9,3.894,3.894,0,0,1-1.579-2.712Zm10.427-8.826H757.1a6.508,6.508,0,0,1,2.112.3,3.547,3.547,0,0,1,1.389.809,2.982,2.982,0,0,1,.757,1.216,4.7,4.7,0,0,1,.233,1.507,4.057,4.057,0,0,1-.32,1.681,3.022,3.022,0,0,1-.919,1.181,4.19,4.19,0,0,1-1.467.694,7.414,7.414,0,0,1-1.947.233h-2.188v4.763H752.6Zm2.157,5.759h2.067a5.4,5.4,0,0,0,1.042-.094,2.47,2.47,0,0,0,.825-.316,1.54,1.54,0,0,0,.553-.6,1.983,1.983,0,0,0,.2-.924,2.074,2.074,0,0,0-.2-.948,1.537,1.537,0,0,0-.544-.608,2.364,2.364,0,0,0-.818-.316,5.344,5.344,0,0,0-1.042-.094h-2.1Zm7.447,6.03,4.4-11.775h3.257l4.342,11.775v.591h-2.119l-1.24-3.537h-5.38l-1.239,3.537h-2.018v-.591Zm3.914-4.793h4.084l-.673-1.966c-.263-.767-.476-1.389-.635-1.879l-.431-1.274H767.9l-.208.587c-.07.194-.146.413-.233.653s-.181.517-.285.83-.229.671-.377,1.084Zm21.219,2.108a6.21,6.21,0,0,1-.764,1.361,5.169,5.169,0,0,1-1.151,1.118,5.428,5.428,0,0,1-1.559.757,6.618,6.618,0,0,1-1.972.278,6.293,6.293,0,0,1-2.514-.482,5.623,5.623,0,0,1-1.928-1.334,5.941,5.941,0,0,1-1.233-2.035,7.764,7.764,0,0,1,0-5.12,5.894,5.894,0,0,1,1.24-2.042,5.731,5.731,0,0,1,1.938-1.354,6.25,6.25,0,0,1,2.525-.49,5.841,5.841,0,0,1,3.4.948,5.124,5.124,0,0,1,1.941,2.515l-2.192.431a3.619,3.619,0,0,0-1.249-1.49,3.387,3.387,0,0,0-1.94-.542,3.621,3.621,0,0,0-1.629.347,3.526,3.526,0,0,0-1.2.969,4.3,4.3,0,0,0-.75,1.463,6.325,6.325,0,0,0,.006,3.616,4.285,4.285,0,0,0,.775,1.441,3.626,3.626,0,0,0,1.239.942,3.838,3.838,0,0,0,1.657.348,3.231,3.231,0,0,0,1.991-.588,4.039,4.039,0,0,0,1.216-1.431Zm2.914-9.1h8.016v1.9h-5.9v3.241h5.491v1.863h-5.48v3.473h6.016v1.908H790.24v-12.38Z" transform="translate(-607.556 -96.344)"/></g></svg>