<svg xmlns="http://www.w3.org/2000/svg" width="160" height="31" viewBox="0 0 160 31">
    <g fill="none" fill-rule="evenodd">
        <path fill="#29AA6B" d="M20.061 4.272V0S9.527.003 9.433.007a8.75 8.75 0 0 0-3.071.672A8.892 8.892 0 0 0 2.87 3.322 9.302 9.302 0 0 0 1.027 7.28a9.461 9.461 0 0 0 .111 4.185 9.236 9.236 0 0 0 1.718 3.455 8.924 8.924 0 0 0 3.14 2.5 8.606 8.606 0 0 0 4.26.822 8.873 8.873 0 0 0 3.031-.76l.044-.02.052-.025a8.877 8.877 0 0 0 .999-.548c.067-.042.132-.086.198-.129l.02-.014.002-.001.02-.015a9.058 9.058 0 0 0 2.478-2.539 8.18 8.18 0 0 0 .38-.646 9.46 9.46 0 0 0 .954-2.769 9.457 9.457 0 0 0-.448-4.944 8.445 8.445 0 0 0-.608-1.296c-.039-.066-.14-.204-.176-.265h2.859zM9.717 14.004h-.005c-2.612 0-4.728-2.179-4.728-4.866 0-2.688 2.116-4.866 4.728-4.866.042 0 .085 0 .126.003h.02a4.53 4.53 0 0 1 1.134.179c1.99.574 3.448 2.453 3.448 4.684 0 2.498-1.83 4.558-4.186 4.833l-.123.014h-.003a4.275 4.275 0 0 1-.334.018l-.077.001z"/>
        <path fill="#008EB1" d="M9.838 29.968C4.414 29.968 0 25.426 0 19.843c0-2.001.567-3.869 1.546-5.44.96 1.637 2.041 2.548 3.072 3.154a5.942 5.942 0 0 0-.454 2.286c0 3.22 2.546 5.84 5.674 5.84 3.13 0 5.674-2.62 5.674-5.84a5.92 5.92 0 0 0-.878-3.117c-1.001-1.627-2.763-2.712-4.768-2.722h-.078l-.122.002c-2.001-.019-3.705-1.316-4.376-3.138a9.547 9.547 0 0 1 4.548-1.15 9.537 9.537 0 0 1 4.335 1.038 9.905 9.905 0 0 1 3.331 2.75 10.254 10.254 0 0 1 2.172 6.337c0 5.583-4.413 10.125-9.838 10.125z"/>
        <path fill="#0D7B4D" d="M18.146 6.299c-1.766-.828-4.696-1.503-7.148-1.845a4.543 4.543 0 0 0-1.14-.18l7.344-.002c.037.06.137.2.176.266.24.411.44.847.608 1.295.057.154.11.31.16.466M14.634 16.722a.079.079 0 0 1-.011.009l-.021.015H14.6l-.021.015c-.066.043-.13.087-.198.13a8.872 8.872 0 0 1-.998.547c-.484-1.173-1.797-2.683-3.488-3.393l-.098-.04a1.67 1.67 0 0 1 .098 0c1.995.017 3.74 1.097 4.738 2.717"/>
        <path fill="#123F50" d="M40.277 13.98v4.132h4.897c-.716 1.985-2.633 3.658-5.433 3.658-3.958 0-6.423-3.012-6.423-6.52 0-4.359 2.739-7.051 6.579-7.051 1.585 0 3.637.456 4.849 2.442h4.904c-1.53-4.515-5.595-6.737-9.816-6.737-6.12 0-10.962 4.637-10.962 11.377 0 5.892 4.505 10.814 10.84 10.814 2.855 0 4.992-.98 6.425-2.537v2.097h4.037V13.981h-9.897zM63.009 20.295c-.975 1.223-2.132 1.88-3.198 1.88-1.98 0-3.137-1.284-3.137-3.666v-7.868H52.44v8.275c0 4.357 2.558 7.21 6.395 7.21 1.645 0 2.985-.565 4.173-1.537v1.066h4.233V10.641h-4.233v9.654zM80.473 11.52c-1.127-.753-2.497-1.192-4.142-1.192-4.02 0-7.279 3.416-7.279 7.836 0 4.357 3.259 7.804 7.279 7.804 1.645 0 3.015-.438 4.142-1.19v.877h4.233V10.641h-4.233v.878zm0 9.026c-.944 1.285-2.193 1.724-3.442 1.724-2.223 0-3.776-1.912-3.776-4.106 0-2.226 1.553-4.169 3.776-4.169 1.25 0 2.498.439 3.442 1.756v4.795zM91.58 10.641h-4.234v15.014h4.233V16.69c1.218-1.38 2.833-2.07 5.117-2.163V10.39c-2.163 0-3.807.69-5.117 1.944V10.64zM108.51 11.52c-1.127-.753-2.497-1.192-4.141-1.192-4.02 0-7.28 3.448-7.28 7.805 0 4.419 3.26 7.835 7.28 7.835 1.644 0 3.014-.438 4.142-1.19v.877h4.233V4.208h-4.233v7.311zm0 9.026c-.944 1.316-2.192 1.755-3.441 1.755-2.223 0-3.777-1.943-3.777-4.168 0-2.195 1.554-4.106 3.777-4.106 1.249 0 2.497.438 3.442 1.724v4.795zM133.36 11.52c-1.128-.753-2.498-1.192-4.143-1.192-4.02 0-7.279 3.416-7.279 7.836 0 4.357 3.259 7.804 7.28 7.804 1.644 0 3.014-.438 4.141-1.19v.877h4.233V10.641h-4.233v.878zm0 9.026c-.945 1.285-2.193 1.724-3.442 1.724-2.223 0-3.777-1.912-3.777-4.106 0-2.226 1.554-4.169 3.777-4.169 1.249 0 2.497.439 3.441 1.756v4.795zM148.509 10.171c-1.645 0-2.985.564-4.173 1.536V10.64h-4.233v15.014h4.233V16c.975-1.222 2.132-1.88 3.198-1.88 1.98 0 3.137 1.285 3.137 3.667v7.867h4.234v-8.243c0-4.389-2.559-7.24-6.396-7.24M115.719 25.655h4.233V10.64h-4.233zM115.719 8.565h4.233V4.21h-4.233zM159.862 9.562c0 .863-.69 1.508-1.51 1.508-.819 0-1.508-.645-1.508-1.508 0-.862.689-1.514 1.509-1.514s1.509.652 1.509 1.514zm-.336 0a1.2 1.2 0 0 0-1.18-1.207c-.627 0-1.173.53-1.173 1.207 0 .671.546 1.195 1.173 1.195.634 0 1.18-.524 1.18-1.195zm-.9.18l.366.485h-.31l-.341-.454h-.243v.454h-.242v-1.4h.571c.298 0 .522.192.522.48 0 .217-.13.37-.323.434zm-.205-.199c.162 0 .273-.096.273-.243 0-.14-.111-.236-.273-.236h-.323v.48h.323z"/>
    </g>
</svg>
