<svg width="141" height="141" viewBox="0 0 141 141" fill="none" xmlns="http://www.w3.org/2000/svg">
<rect width="141" height="141" rx="16" transform="matrix(-1 0 0 1 141 0)" fill="#FADB39"/>
<path d="M114.788 64.7701C114.608 63.1839 114.427 61.2453 113.705 59.1305C113.163 57.0156 112.26 54.7245 110.996 52.2572C109.732 49.7898 108.107 47.3225 106.121 44.8551C105.398 43.974 104.496 42.9165 103.412 42.0353C104.857 36.3957 101.606 31.6373 101.606 31.6373C96.189 31.2848 92.5775 33.2234 91.3134 34.2808C91.1329 34.2808 90.9523 34.1046 90.5911 33.9284C89.6883 33.5759 88.7854 33.2234 87.7019 32.8709C86.6184 32.5185 85.7156 32.3422 84.6321 31.9897C83.5487 31.8135 82.4652 31.6373 81.5623 31.461C81.3817 31.461 81.2012 31.461 81.0206 31.461C78.6731 24.059 71.8112 20.8867 71.8112 20.8867C64.227 25.6452 62.7824 32.166 62.7824 32.166C62.7824 32.166 62.7824 32.3422 62.7824 32.5185C62.4212 32.6947 61.8795 32.6947 61.5183 32.8709C60.9766 33.0472 60.4349 33.2234 59.7126 33.3996C59.1708 33.5759 58.6291 33.7521 57.9068 34.1046C56.8234 34.6333 55.5593 35.162 54.4759 35.6907C53.3924 36.2195 52.309 36.9244 51.2255 37.6294C51.0449 37.6294 51.0449 37.4531 51.0449 37.4531C40.3909 33.5759 31.001 38.3343 31.001 38.3343C30.0981 49.2611 35.1542 56.3106 36.2377 57.5443C36.0571 58.2493 35.6959 58.9542 35.5154 59.6592C34.7931 62.1265 34.0708 64.7701 33.7096 67.4137C33.7096 67.7661 33.529 68.1186 33.529 68.4711C23.7779 73.2295 20.8887 82.9226 20.8887 82.9226C29.0146 92.087 38.5852 92.6158 38.5852 92.6158C39.8492 94.7306 41.1132 96.6692 42.7384 98.6079C43.4607 99.3128 44.183 100.194 44.7248 100.899C41.8355 109.182 45.0859 116.055 45.0859 116.055C54.1147 116.408 60.0737 112.178 61.3378 111.121C62.2406 111.473 63.1435 111.649 64.0464 112.002C66.755 112.707 69.6443 113.059 72.5335 113.236C73.2558 113.236 73.9781 113.236 74.7004 113.236H75.0616H75.2421H75.6033H75.9644C80.2983 119.228 87.7019 120.109 87.7019 120.109C93.1192 114.646 93.2998 109.182 93.2998 107.948C93.2998 107.772 93.2998 107.772 93.2998 107.772V107.596C94.3832 106.891 95.4667 106.01 96.5501 105.129C98.717 103.19 100.523 101.075 102.148 98.7841C102.329 98.6079 102.509 98.4316 102.509 98.0791C108.649 98.4316 112.802 94.3781 112.802 94.3781C111.719 88.2098 108.107 85.2137 107.385 84.685C107.385 84.685 107.385 84.685 107.204 84.685C107.204 84.3325 107.204 83.9801 107.204 83.6276C107.204 82.9226 107.204 82.2177 107.204 81.689V80.8078V80.6315V80.4553C107.204 80.2791 107.204 80.2791 107.204 80.2791V79.9266V79.3979C107.204 79.2216 107.204 79.0454 107.204 78.8692C107.204 78.6929 107.204 78.5167 107.204 78.3404V77.8117V77.283C107.024 76.5781 107.024 75.8731 106.843 75.3444C106.121 72.7008 105.218 70.2335 103.773 67.9424C102.329 65.6513 100.703 63.7127 98.7171 61.9503C96.7307 60.1879 94.5638 58.9542 92.2163 57.8968C89.8688 56.8394 87.5213 56.3106 84.9933 55.9582C83.7292 55.7819 82.6458 55.7819 81.3817 55.7819H81.0206H80.84H80.6594H80.4789H80.1177C79.9372 55.7819 79.7565 55.7819 79.576 55.7819C79.0342 55.7819 78.3119 55.9582 77.7702 55.9582C75.4227 56.3106 73.0753 57.1918 71.0889 58.4255C69.1026 59.6592 67.2968 61.0691 65.8522 62.6552C64.4076 64.2414 63.3241 66.18 62.6018 68.1186C61.8795 70.0572 61.5183 71.9959 61.3378 73.9345C61.3378 74.4632 61.3378 74.8157 61.3378 75.3444C61.3378 75.5206 61.3378 75.5206 61.3378 75.6969V76.0493C61.3378 76.2256 61.3378 76.5781 61.3378 76.7543C61.5183 77.6355 61.6989 78.6929 61.8795 79.5741C62.4212 81.3365 63.3241 82.9226 64.227 84.3325C65.3104 85.7425 66.5745 86.7999 67.8385 87.6811C69.1025 88.5623 70.5472 89.2672 71.9918 89.6197C73.4364 89.9722 74.7004 90.1484 76.145 90.1484C76.3256 90.1484 76.5062 90.1484 76.6867 90.1484H76.8673H77.0479C77.2285 90.1484 77.4091 90.1484 77.4091 90.1484C77.4091 90.1484 77.409 90.1484 77.5896 90.1484H77.7702H77.9508C78.1314 90.1484 78.3119 90.1484 78.4925 90.1484C78.6731 90.1484 78.8537 90.1484 79.0343 89.9722C79.3954 89.9722 79.576 89.7959 79.9371 89.7959C80.4789 89.6197 81.0206 89.4435 81.5623 89.091C82.104 88.9147 82.4652 88.5623 83.0069 88.2098C83.1875 88.2098 83.1875 88.0336 83.3681 87.8573C83.9098 87.5048 83.9098 86.7999 83.5487 86.4474C83.1875 86.0949 82.6458 85.9187 82.2846 86.2712C82.104 86.2712 82.1041 86.4474 81.9235 86.4474C81.5623 86.6236 81.2012 86.7999 80.6594 86.9761C80.2983 87.1524 79.7565 87.1524 79.3954 87.3286C79.2148 87.3286 78.8537 87.3286 78.6731 87.3286C78.4925 87.3286 78.4925 87.3286 78.312 87.3286C78.1314 87.3286 78.1314 87.3286 77.9508 87.3286C77.7702 87.3286 77.7702 87.3286 77.5896 87.3286C77.409 87.3286 77.2285 87.3286 77.2285 87.3286H77.0479H76.8673C76.6867 87.3286 76.6868 87.3286 76.5062 87.3286C75.4227 87.1524 74.5198 86.9761 73.4364 86.4474C72.3529 86.0949 71.45 85.39 70.5472 84.685C69.6443 83.9801 68.922 82.9226 68.3803 82.0414C67.8385 81.1603 67.2968 79.9266 67.1162 78.6929C66.9356 78.1642 66.9356 77.4592 66.9356 76.9305C66.9356 76.7543 66.9356 76.5781 66.9356 76.4018V76.2256V76.0493C66.9356 75.6969 66.9356 75.3444 67.1162 74.9919C67.6579 72.3483 68.922 69.881 71.0889 67.7661C71.6306 67.2374 72.1724 66.8849 72.7141 66.3562C73.2558 66.0037 73.9781 65.6513 74.5199 65.2988C75.2422 64.9463 75.9645 64.7701 76.5062 64.5938C77.2285 64.4176 77.9508 64.2414 78.6731 64.2414C79.0342 64.2414 79.3954 64.2414 79.7566 64.2414C79.9371 64.2414 79.9371 64.2414 79.9371 64.2414H80.2983H80.4789H80.84C81.5623 64.2414 82.4652 64.4176 83.1875 64.5938C84.8127 64.9463 86.2573 65.475 87.7019 66.3562C90.5911 67.9424 92.9387 70.4097 94.5638 73.2295C95.2861 74.6394 95.8279 76.2256 96.189 77.8117C96.189 78.1642 96.3696 78.6929 96.3696 79.0454V79.3979V79.7503C96.3696 79.9266 96.3696 79.9266 96.3696 80.1028C96.3696 80.2791 96.3696 80.2791 96.3696 80.4553V80.8078V81.1603C96.3696 81.3365 96.3696 81.689 96.3696 81.8652C96.3696 82.3939 96.3696 82.7464 96.189 83.2751C96.189 83.6276 96.0084 84.1563 96.0084 84.5088C96.0084 84.8613 95.8278 85.39 95.6472 85.7424C95.4667 86.6236 95.1055 87.5048 94.7444 88.2098C94.0221 89.7959 93.1192 91.3821 92.0357 92.9682C89.8688 95.788 86.9796 98.2554 83.5487 99.6653C81.9235 100.37 80.1177 100.899 78.312 101.251C77.4091 101.428 76.5062 101.428 75.6033 101.604H75.4227H75.2421H74.881H74.5199H74.3393C74.3393 101.604 74.5198 101.604 74.3393 101.604C73.7975 101.604 73.4364 101.604 72.8947 101.604C70.9083 101.428 68.922 101.075 67.1162 100.546C65.3105 100.018 63.3241 99.3128 61.6989 98.4316C58.268 96.6692 55.1982 94.2019 52.6701 91.2058C51.4061 89.7959 50.3226 88.2098 49.6003 86.4474C48.6974 84.685 47.9751 82.9226 47.4334 81.1603C46.8917 79.3979 46.5305 77.4592 46.5305 75.6969V75.3444V75.1681V74.8157V73.7582V73.582V73.2295V73.0533C46.5305 72.877 46.5305 72.5246 46.5305 72.3483C46.5305 71.4671 46.7111 70.4097 46.7111 69.5285C46.8917 68.6473 47.0722 67.5899 47.2528 66.7087C47.4334 65.8275 47.614 64.7701 47.9751 63.8889C48.5168 62.1265 49.2392 60.3641 49.9615 58.6017C51.5867 55.2532 53.573 52.2572 56.1011 49.9661C56.6428 49.4373 57.3651 48.7324 58.0874 48.2037C58.8097 47.675 59.532 47.1462 60.2543 46.7938C60.9766 46.265 61.6989 45.9126 62.4212 45.5601C62.7824 45.3839 63.1435 45.2076 63.5047 45.0314C63.6853 45.0314 63.8658 44.8551 64.0464 44.8551C64.227 44.8551 64.4076 44.6789 64.5882 44.6789C65.3105 44.3264 66.2133 44.1502 66.9356 43.7977C67.1162 43.7977 67.2968 43.6215 67.4774 43.6215C67.658 43.6215 67.8385 43.4452 68.0191 43.4452C68.3802 43.269 68.922 43.269 69.2832 43.0928C69.4637 43.0928 69.6443 42.9165 70.0054 42.9165C70.186 42.9165 70.3666 42.9165 70.7277 42.7403C70.9083 42.7403 71.0889 42.7403 71.45 42.564H71.8112H72.1723C72.3529 42.564 72.5335 42.564 72.8947 42.3878C73.0753 42.3878 73.4364 42.3878 73.617 42.2116C73.7976 42.2116 74.1587 42.2116 74.3393 42.2116C74.5198 42.2116 74.7004 42.2116 74.881 42.2116H75.2421H75.4227H75.6033C75.7839 42.2116 76.145 42.2116 76.3256 42.2116H76.6867C76.6867 42.2116 76.8673 42.2116 76.6867 42.2116H76.8673C77.0479 42.2116 77.2285 42.2116 77.4091 42.2116C78.312 42.2116 79.0343 42.2116 79.9371 42.2116C81.5623 42.2116 83.1875 42.3878 84.8127 42.7403C87.8825 43.269 90.7717 44.3264 93.4804 45.5601C96.189 46.7938 98.5365 48.3799 100.523 50.1423C100.703 50.3185 100.703 50.3185 100.884 50.4948C101.065 50.671 101.065 50.671 101.245 50.8472C101.426 51.0235 101.787 51.1997 101.967 51.5522C102.148 51.9047 102.509 51.9047 102.69 52.2572C102.87 52.6096 103.231 52.7859 103.412 52.9621C104.315 53.8433 105.037 54.7245 105.76 55.7819C107.204 57.5443 108.468 59.4829 109.371 61.2453C109.371 61.4216 109.552 61.4216 109.552 61.5978C109.552 61.774 109.732 61.774 109.732 61.9503C109.913 62.1265 109.913 62.3027 110.093 62.6552C110.274 62.8315 110.274 63.0077 110.455 63.3602C110.635 63.5364 110.635 63.7127 110.816 64.0651C111.177 64.9463 111.538 65.6513 111.719 66.3562C112.08 67.5899 112.441 68.6473 112.621 69.5285C112.802 69.881 113.163 70.2335 113.524 70.0572C113.885 70.0572 114.247 69.7048 114.247 69.3523C114.969 67.2374 114.969 66.0037 114.788 64.7701Z" fill="#FF671D"/>
</svg>
