<svg width="84" height="19" viewBox="0 0 84 19" fill="none" xmlns="http://www.w3.org/2000/svg">
<path d="M81.68 0L77.1174 10.0151L75.4017 6.22028H73.5469L76.3681 12.4275H77.8674L83.523 0H81.68Z" fill="#CA291C"/>
<path d="M62.1062 18.5955H65.7789V11.6971C65.7789 10.1193 66.6685 9.01082 67.9902 9.01082C69.261 9.01082 69.9222 9.92363 69.9222 11.2407V18.5955H73.5943V10.5235C73.5943 7.785 71.9934 5.85503 69.4008 5.85503C67.7487 5.85503 66.5922 6.58529 65.7281 7.91539H65.6518V6.22016H62.0935L62.1062 18.5955ZM54.8878 5.88111C51.0498 5.88111 48.4827 8.71089 48.4827 12.4405C48.4827 16.1439 51.0498 18.9998 54.8878 18.9998C58.7258 18.9998 61.2928 16.1439 61.2928 12.4405C61.3056 8.71089 58.7258 5.88111 54.8878 5.88111ZM54.8623 16.2091C53.1213 16.2091 52.1936 14.7095 52.1936 12.4405C52.1936 10.1453 53.1086 8.67172 54.8623 8.67172C56.6034 8.67172 57.5692 10.1453 57.5692 12.4405C57.582 14.7095 56.6162 16.2091 54.8623 16.2091ZM38.011 18.5955H48.3302V15.6223H42.4844V15.5441L48.0761 9.11511V6.20712H38.011V9.19338H43.6662V9.27158L38.011 15.7527V18.5955ZM33.2961 18.5955H36.9943V6.22016H33.2961V18.5955ZM24.7179 18.5955H28.4034V12.9099C28.4034 10.3279 29.9157 9.1803 32.2159 9.50633H32.2922V6.24624C32.1015 6.168 31.8855 6.15496 31.5424 6.15496C30.1063 6.15496 29.1405 6.83306 28.3144 8.28051H28.2382V6.22016H24.7179V18.5955ZM17.957 16.2221C16.3304 16.2221 15.3391 15.1398 15.1485 13.4706H23.8411C23.8665 10.8104 23.1802 8.6848 21.7441 7.35469C20.7275 6.38969 19.3931 5.85503 17.6901 5.85503C14.0555 5.85503 11.5393 8.6848 11.5393 12.3883C11.5393 16.1178 13.9412 18.9606 17.9316 18.9606C19.4439 18.9606 20.6385 18.5433 21.6298 17.8522C22.6845 17.1089 23.4471 16.0135 23.6504 14.9311H20.1175C19.7744 15.7396 19.0372 16.2221 17.957 16.2221ZM17.7664 8.55442C19.0627 8.55442 19.9523 9.5455 20.1048 10.993H15.1739C15.4661 9.53242 16.2414 8.55442 17.7664 8.55442ZM4.19379 18.5955H8.05718L12.2509 6.22016H8.55275L6.20172 14.1748H6.15088L3.79983 6.22016H0L4.19379 18.5955ZM33.2961 1.8125H36.9943V5.17693H33.2961V1.8125Z" fill="black"/>
</svg>
