<svg xmlns="http://www.w3.org/2000/svg" width="78.865" height="52.011" viewBox="0 0 78.865 52.011"><g transform="translate(-0.161 -0.485)"><path d="M78.676,15.258C74.98-2.79,39.938-3.934,17.352,9.816v1.52C39.914-.266,71.918-.191,74.832,16.43c.977,5.5-2.121,11.23-7.656,14.53v4.313c6.656-2.441,13.484-10.34,11.5-20.015M37.62,46.848c-15.58,1.437-31.823-.828-34.1-13-1.114-6,1.625-12.371,5.253-16.328V15.4C2.238,21.132-1.3,28.387.738,36.953,3.344,47.945,17.281,54.168,38.558,52.1c8.422-.817,19.438-3.528,27.1-7.735V38.391C58.7,42.535,47.2,45.961,37.621,46.848" fill="#0071c5"/><path d="M64.4,12.633H60.313V30.828c0,2.133,1.03,3.988,4.085,4.285ZM15.746,19.277H11.652l0,11.887c0,2.14,1.036,3.992,4.1,4.285Zm-4.094-2.218h4.082V13.184H11.652Zm28.563,18.2a4.364,4.364,0,0,1-4.7-4.567V14.91h4.047v4.363h3.05v3.274h-3.05v7.9a1.256,1.256,0,0,0,1.4,1.438h1.648v3.379H40.215M50.96,22.355a3.111,3.111,0,0,0-2.9,1.676,4.154,4.154,0,0,0-.387,1.742H53.91c-.078-1.742-.867-3.418-2.95-3.418m-3.288,6.18a3.365,3.365,0,0,0,3.586,3.6A4.575,4.575,0,0,0,54.98,30.6l2.5,2.387a8,8,0,0,1-6.254,2.547c-3.878,0-7.59-2.113-7.59-8.281,0-5.274,3.247-8.254,7.5-8.254,4.325,0,6.81,3.488,6.81,8.07v1.461H47.671M26.746,22.547c1.188,0,1.684.586,1.684,1.539v11.2h4.05V24.061c0-2.273-1.21-4.78-4.77-4.78l-8.366-.005V35.284h4.05V22.547Z" fill="#0071c5"/></g></svg>