<svg width="81" height="23" viewBox="0 0 81 23" fill="none" xmlns="http://www.w3.org/2000/svg">
<path d="M0 8.7615V17.523H3.4965C7.8165 17.523 8.3295 17.496 9.5985 17.1855C11.5155 16.713 13.095 15.7005 14.175 14.256C14.6475 13.6215 15.0525 12.852 15.336 12.069C16.065 10.0035 15.9975 7.155 15.174 5.0895C14.148 2.511 12.123 0.864 9.234 0.243C8.208 0.0270004 8.235 0.0269988 3.969 0.0134988L0 0V8.7615ZM8.181 3.186C9.5985 3.483 10.611 4.0905 11.3535 5.0625C12.609 6.723 12.8385 9.7065 11.853 11.6505C11.124 13.0815 9.99 13.9185 8.2215 14.31C7.857 14.391 7.722 14.4045 5.616 14.418L3.3885 14.4315V8.748V3.0645L5.5755 3.078C7.6545 3.0915 7.776 3.105 8.181 3.186ZM21.762 5.4405C21.0465 5.5215 20.331 5.7375 19.7505 6.021C18.7515 6.507 17.9415 7.3575 17.496 8.3835C17.334 8.748 17.2125 9.1125 17.253 9.1395C17.2665 9.153 17.847 9.315 18.5625 9.504C19.278 9.693 19.8855 9.855 19.926 9.8685C19.98 9.882 20.007 9.8145 20.1015 9.5715C20.4525 8.5185 21.33 7.9245 22.5585 7.9245C23.382 7.9245 24.003 8.127 24.435 8.5725C24.8535 8.9775 24.975 9.3555 25.0155 10.1925C25.029 10.7055 25.029 10.7595 24.975 10.7595C24.9345 10.7595 24.6105 10.692 24.246 10.5975C23.139 10.341 22.8825 10.3005 21.951 10.3005C20.8035 10.3005 20.0745 10.4355 19.3185 10.7865C18.144 11.34 17.5095 12.2445 17.3475 13.581C17.2125 14.7825 17.577 15.8895 18.4005 16.6725C19.332 17.55 20.601 17.901 22.0995 17.6985C23.382 17.523 24.3135 16.9695 24.9615 15.9975L25.1505 15.714L25.164 16.6185L25.1775 17.523H26.6355H28.0935L28.08 13.392L28.0665 9.261L27.9585 8.8425C27.486 6.9525 26.298 5.913 24.1245 5.508C23.7465 5.454 22.113 5.4 21.762 5.4405ZM23.4765 12.5955C23.6655 12.636 24.084 12.7575 24.4215 12.8655C25.0965 13.068 25.056 13.014 24.9885 13.5C24.867 14.31 24.246 14.9715 23.3685 15.2145C23.058 15.2955 22.248 15.336 21.8835 15.2685C21.3435 15.174 20.8845 14.877 20.682 14.472C20.5605 14.229 20.5335 13.7565 20.628 13.4595C20.763 13.014 21.195 12.6765 21.762 12.5415C22.14 12.447 23.031 12.474 23.4765 12.5955ZM36.2205 5.481C35.1 5.6835 34.0335 6.291 33.372 7.101C33.2505 7.236 33.1425 7.3575 33.129 7.3575C33.1155 7.371 33.0885 6.993 33.0885 6.507V5.643H31.5495H30.0105V14.067V22.464H31.6035H33.21L33.2235 19.2375L33.237 16.011L33.3855 16.227C34.0875 17.2395 35.505 17.82 37.098 17.7525C39.0015 17.6715 40.581 16.8345 41.5665 15.3765C42.984 13.2705 42.957 9.8415 41.4855 7.695C41.2155 7.3035 40.689 6.75 40.2975 6.4665C39.744 6.048 38.961 5.697 38.1915 5.5215C37.8 5.427 36.6255 5.4135 36.2205 5.481ZM37.098 8.2755C37.9215 8.505 38.637 9.099 39.0285 9.882C39.3255 10.476 39.4605 11.313 39.393 12.069C39.258 13.4325 38.4615 14.499 37.2735 14.8905C36.99 14.985 36.855 15.012 36.4095 15.0255C35.748 15.039 35.3835 14.9715 34.8165 14.688C34.4925 14.526 34.3845 14.445 34.074 14.1345C33.75 13.8105 33.6825 13.716 33.507 13.3515C33.1695 12.663 33.0615 11.988 33.1425 11.2185C33.3045 9.6255 34.209 8.5455 35.6265 8.2215C35.9235 8.154 36.7605 8.181 37.098 8.2755ZM50.3415 5.481C49.6665 5.6025 48.951 5.8995 48.3705 6.291C48.0735 6.4935 47.574 6.966 47.3715 7.2225L47.25 7.3845V6.5205V5.6565H45.6975H44.145V14.067V22.464H45.765H47.385V19.251V16.038L47.5335 16.227C48.087 16.956 48.924 17.4555 49.9635 17.658C50.4495 17.7525 51.597 17.7525 52.1235 17.658C53.2845 17.442 54.2565 16.9425 55.053 16.146C56.2275 14.9715 56.808 13.3245 56.7405 11.3265C56.673 9.4905 56.079 7.9785 54.972 6.912C53.9595 5.9265 52.6635 5.4135 51.2055 5.427C50.8815 5.427 50.517 5.454 50.3415 5.481ZM51.2055 8.2755C52.38 8.5995 53.2035 9.5445 53.46 10.854C53.5275 11.205 53.514 12.15 53.4465 12.501C53.1765 13.716 52.434 14.553 51.327 14.904C50.949 15.0255 50.139 15.066 49.7205 14.9715C48.4785 14.7015 47.574 13.77 47.304 12.4605C47.223 12.069 47.223 11.232 47.2905 10.827C47.439 10.0845 47.709 9.558 48.222 9.045C48.6675 8.613 49.167 8.343 49.788 8.208C50.058 8.154 50.922 8.1945 51.2055 8.2755ZM63.2475 5.4405C61.8165 5.6565 60.75 6.1695 59.859 7.074C58.9005 8.0325 58.3335 9.2475 58.158 10.692C58.0905 11.259 58.131 12.3795 58.239 12.9195C58.617 14.823 59.6835 16.2675 61.3305 17.0775C63.099 17.955 65.529 17.982 67.2435 17.145C67.959 16.794 68.6205 16.254 69.093 15.6195C69.3495 15.282 69.8625 14.3235 69.876 14.148C69.8895 14.067 69.8085 14.0265 68.5935 13.5405C67.0275 12.9195 67.1625 12.96 67.1625 13.0545C67.1625 13.176 66.9465 13.6215 66.798 13.8645C66.4875 14.337 66.0555 14.661 65.5425 14.8365C64.665 15.1335 63.6795 15.0525 62.829 14.634C62.532 14.4855 62.397 14.391 62.127 14.121C61.8435 13.851 61.7625 13.743 61.614 13.419C61.425 13.014 61.371 12.825 61.317 12.4335L61.29 12.177L65.3265 12.1635L69.39 12.177L69.444 11.8935C69.471 11.718 69.498 11.2995 69.498 10.7595C69.498 10.017 69.4845 9.855 69.417 9.504C68.9445 7.3575 67.581 6.021 65.4075 5.5485C65.0835 5.481 64.8405 5.4675 64.1925 5.454C63.7335 5.4405 63.315 5.4405 63.2475 5.4405ZM64.854 8.1C65.448 8.2485 65.988 8.6535 66.2175 9.0855C66.3255 9.288 66.42 9.6525 66.42 9.8685V10.044H63.8685C62.4645 10.044 61.317 10.0305 61.317 10.0305C61.317 10.017 61.344 9.9225 61.398 9.801C61.857 8.424 63.315 7.7085 64.854 8.1ZM76.8555 5.481C76.059 5.643 75.384 6.1155 74.952 6.8175L74.7495 7.1415V6.399V5.6565H73.1565H71.5635V11.5965V17.5365H73.1565H74.7495L74.763 13.4595C74.7765 9.423 74.7765 9.396 74.8575 9.1395C74.979 8.7885 75.168 8.505 75.411 8.3295C75.681 8.127 75.924 8.046 76.275 8.019C77.031 7.965 77.6655 8.37 77.8545 9.0315C77.9085 9.207 77.9085 9.3555 77.895 9.7065C77.8815 9.963 77.8545 10.2195 77.841 10.2735L77.814 10.3815H79.326H80.838L80.8785 10.179C81.0405 9.4635 81.0405 8.424 80.8785 7.83C80.541 6.534 79.5825 5.643 78.2865 5.4405C77.949 5.4 77.1795 5.4135 76.8555 5.481Z" fill="#8422E0"/>
</svg>
