<svg width="123" height="28" viewBox="0 0 123 28" fill="none" xmlns="http://www.w3.org/2000/svg">
<path fill-rule="evenodd" clip-rule="evenodd" d="M78.463 8.76153L78.4592 8.75931C78.4592 8.75931 78.4574 8.7579 78.4549 8.7579C78.3688 8.72146 78.2744 8.70254 78.1835 8.70254C78.0365 8.70355 77.8955 8.74602 77.7724 8.82051C77.6471 8.89741 77.541 9.00955 77.4801 9.14987V9.15329L74.6097 16.7597L72.3973 11.6613L72.394 11.6591C72.3318 11.5166 72.2204 11.4064 72.094 11.3297C71.9663 11.2528 71.8191 11.2105 71.6642 11.2105C71.5136 11.2105 71.3733 11.2562 71.2494 11.3307C71.1273 11.4074 71.0171 11.5166 70.9552 11.6591L70.9537 11.6613L68.737 16.7629L65.8512 9.15993H65.8489C65.7986 9.01297 65.6961 8.89842 65.5742 8.82273C65.4503 8.74603 65.3054 8.70355 65.1559 8.70254C65.0606 8.70254 64.9642 8.72146 64.8731 8.7579H64.8687L64.8654 8.76153C64.5963 8.88292 64.4321 9.14322 64.431 9.42688C64.431 9.51606 64.4493 9.60484 64.4847 9.69282H64.4839L68.0336 18.9216V18.9248C68.0612 18.9937 68.1001 19.0617 68.1577 19.1286C68.1991 19.1763 68.2602 19.2165 68.3232 19.25C68.3349 19.2608 68.3532 19.2763 68.3806 19.293C68.4103 19.311 68.4486 19.3234 68.4875 19.3299C68.5507 19.3502 68.6347 19.3798 68.7472 19.3798C68.8909 19.3798 69.0241 19.3299 69.1437 19.2554C69.2554 19.1831 69.3552 19.075 69.4103 18.9349L69.4194 18.9282L71.6642 13.7329L73.9119 18.9071H73.9142C73.9659 19.045 74.057 19.1531 74.1624 19.2298C74.2741 19.3109 74.399 19.3611 74.5315 19.3798H74.6257C74.7155 19.3798 74.8026 19.3633 74.876 19.3355C74.9532 19.3067 75.0153 19.2687 75.0669 19.231C75.1875 19.1418 75.2807 19.0194 75.3382 18.8836V18.8805L78.8653 9.69282C78.8998 9.60484 78.9179 9.51707 78.9179 9.42829C78.9171 9.14665 78.7455 8.87849 78.463 8.76153ZM62.2358 14.0302C62.2358 12.9465 61.806 11.9649 61.1223 11.2562C60.4349 10.5462 59.504 10.1122 58.4929 10.1122C57.4813 10.1122 56.5483 10.5462 55.8622 11.2562C55.1771 11.9649 54.7473 12.9465 54.7473 14.0302C54.7473 15.1129 55.1771 16.0852 55.8622 16.7895C56.5483 17.4963 57.4813 17.9235 58.4929 17.9235C59.504 17.9235 60.4382 17.4963 61.1223 16.7895C61.806 16.0852 62.2358 15.1129 62.2358 14.0302ZM62.2162 10.268C63.1656 11.2428 63.7424 12.5803 63.7447 14.0302C63.7424 15.4801 63.1656 16.8162 62.2162 17.7912C61.2741 18.7646 59.9581 19.38 58.4952 19.38C57.0434 19.38 55.7254 18.7646 54.7797 17.7912C53.8326 16.8162 53.2465 15.4801 53.2465 14.0302C53.2465 12.5803 53.8326 11.2428 54.7797 10.268C55.7254 9.29542 57.0434 8.68019 58.4952 8.68019C59.9581 8.68019 61.2741 9.29542 62.2162 10.268ZM47.2705 8.69912C46.0936 8.69912 45.0192 9.14322 44.2171 9.85186V9.42829C44.2158 9.23341 44.1412 9.05183 44.01 8.91835C43.8827 8.78709 43.6939 8.69912 43.4872 8.69912C43.2733 8.69912 43.0803 8.78246 42.946 8.91714C42.8138 9.04961 42.7345 9.23341 42.7345 9.42829V18.8717L42.7655 18.9015L42.7668 18.9061C42.7749 18.9373 42.7953 18.9717 42.8171 19.0049C42.9194 19.1797 43.0872 19.3122 43.2951 19.3709L43.325 19.38H43.4872C43.5954 19.38 43.7043 19.3579 43.8079 19.3109C43.8941 19.2709 43.9744 19.2065 44.0389 19.1241L44.0411 19.1251C44.049 19.1175 44.0515 19.1074 44.0607 19.0998C44.0642 19.0986 44.0676 19.0951 44.0698 19.0917C44.11 19.0418 44.1434 18.9907 44.1642 18.9427C44.1861 18.886 44.1998 18.8324 44.2102 18.7913L44.2171 18.7646V13.0943C44.2389 12.2832 44.5836 11.55 45.1365 11.0169C45.6856 10.4842 46.4383 10.1546 47.2705 10.1546C48.1165 10.1546 48.8713 10.4842 49.4183 11.0169C49.9677 11.548 50.301 12.2799 50.301 13.0866V18.6547C50.301 18.858 50.3906 19.0462 50.5264 19.1753C50.6653 19.3041 50.8549 19.38 51.0526 19.38C51.2537 19.38 51.4423 19.3041 51.5802 19.1753C51.7203 19.0462 51.8053 18.858 51.8053 18.6547V13.0866C51.8053 10.6833 49.778 8.70254 47.2705 8.69912ZM121.353 12.9974C120.926 11.3185 119.403 10.1222 117.666 10.1256C115.884 10.1256 114.382 11.2963 113.917 12.9974H121.353ZM123 13.6853V13.7574C123 13.9589 122.907 14.1403 122.766 14.2595C122.626 14.3795 122.443 14.4419 122.246 14.4441H113.812C114.027 16.4367 115.67 17.9082 117.632 17.9235H118.13C118.779 17.9257 119.411 17.7087 119.967 17.3493C120.525 16.9934 121.006 16.4959 121.345 15.9483C121.415 15.8316 121.516 15.7426 121.624 15.688C121.736 15.6291 121.856 15.6023 121.976 15.6023C122.109 15.6023 122.242 15.6357 122.358 15.7035L122.366 15.707L122.375 15.7136C122.586 15.8638 122.719 16.0931 122.719 16.3447C122.719 16.4726 122.684 16.6028 122.612 16.7206L122.61 16.7252L122.607 16.7272C122.136 17.453 121.493 18.1149 120.73 18.5947C119.966 19.0752 119.08 19.38 118.13 19.38H117.624C116.144 19.3699 114.806 18.7646 113.842 17.7966C112.88 16.8319 112.287 15.5067 112.287 14.0503C112.287 12.5692 112.885 11.225 113.855 10.2525C114.825 9.28113 116.173 8.68019 117.666 8.68019C119.091 8.68019 120.371 9.22878 121.319 10.1269C122.267 11.0247 122.886 12.2719 122.997 13.6751L123 13.6853ZM88.4048 4.28504C88.1993 4.28504 88.0107 4.36858 87.8754 4.49984C87.7394 4.63009 87.6535 4.8137 87.6535 5.0128V18.6547C87.6535 18.8538 87.7394 19.0361 87.8754 19.1654C88.0107 19.2942 88.1993 19.38 88.4048 19.38C88.8312 19.38 89.176 19.0551 89.1785 18.6547V5.0128C89.176 4.61117 88.8312 4.28504 88.4048 4.28504ZM39.257 13.7697C38.65 13.4927 37.9616 13.2879 37.2746 13.0677C36.6425 12.8607 36.001 12.6848 35.5436 12.4535C35.3139 12.3343 35.1346 12.2087 35.0186 12.0674C34.9001 11.9262 34.8427 11.7825 34.8392 11.5866C34.8404 11.3185 34.9209 11.1026 35.0564 10.9112C35.2621 10.6253 35.6068 10.4027 35.9838 10.2589C36.3562 10.1148 36.7596 10.0467 37.048 10.0467C37.9007 10.0479 38.4398 10.3227 38.8536 10.6074C39.058 10.7511 39.2306 10.8967 39.3938 11.0169C39.4776 11.0793 39.5558 11.1361 39.6466 11.1781C39.7325 11.2194 39.8338 11.2528 39.9442 11.2528C40.0142 11.2528 40.0845 11.2405 40.1486 11.214C40.2163 11.1874 40.2752 11.1493 40.3315 11.1026C40.3866 11.0527 40.4338 10.9925 40.4671 10.9257C40.497 10.8566 40.5108 10.7856 40.5108 10.7155C40.5108 10.5863 40.4681 10.4651 40.4072 10.3513C40.2935 10.1512 40.1186 9.95997 39.8959 9.76851C39.5649 9.48365 39.1283 9.21207 38.6581 9.00754C38.1868 8.8028 37.6813 8.66348 37.1997 8.66348C36.0838 8.66348 35.1519 8.90829 34.4749 9.35924C34.122 9.59498 33.8118 9.85307 33.5924 10.2092C33.3693 10.5663 33.2452 11.007 33.2292 11.58C33.2281 11.6055 33.2281 11.6311 33.2281 11.6567C33.2258 12.2131 33.4107 12.6717 33.7014 13.0309C34.1428 13.5718 34.798 13.8955 35.4405 14.1248C36.0817 14.3539 36.7228 14.4908 37.1274 14.6221C37.6973 14.8057 38.303 15.0048 38.7442 15.2685C38.964 15.4032 39.142 15.5479 39.2628 15.707C39.3801 15.8706 39.4464 16.0395 39.4489 16.2533V16.269C39.4476 16.5783 39.3537 16.8209 39.1983 17.0288C38.964 17.3382 38.5743 17.5651 38.1604 17.7087C37.748 17.849 37.3193 17.9082 37.0434 17.9082C36.0701 17.9082 35.4186 17.6809 34.9462 17.453C34.7094 17.3382 34.5175 17.2247 34.3439 17.1289C34.2578 17.0834 34.1773 17.0411 34.0923 17.0077C34.0095 16.9745 33.9212 16.9529 33.8211 16.9529C33.7602 16.9529 33.6937 16.9632 33.6326 16.9863C33.5706 17.0121 33.5142 17.0477 33.467 17.091C33.4015 17.1526 33.3442 17.2213 33.304 17.3004C33.2649 17.3795 33.2452 17.4629 33.2452 17.5496C33.2452 17.6922 33.3003 17.8224 33.3787 17.9402C33.5016 18.1103 33.682 18.2629 33.9072 18.4153C34.1393 18.5655 34.4164 18.7136 34.7358 18.8594C35.4438 19.1831 36.3516 19.3522 37.0413 19.3633H37.0434C38.1159 19.3633 39.042 19.1241 39.8223 18.5679V18.5665H39.8234C40.5864 18.0102 41.0611 17.1834 41.0611 16.2499C41.0611 15.737 40.937 15.3019 40.7199 14.946C40.3925 14.4063 39.8602 14.0503 39.257 13.7697ZM99.7386 14.0302C99.7386 12.9362 99.3122 11.956 98.6308 11.2486C97.9503 10.543 97.016 10.1148 95.9943 10.1124C94.9807 10.1124 94.05 10.543 93.3626 11.2486C92.6802 11.956 92.2481 12.9362 92.2481 14.0302C92.2481 15.1229 92.6802 16.0967 93.3626 16.7985C94.0464 17.5007 94.9807 17.9235 95.9943 17.9235C97.0183 17.9235 97.9525 17.5007 98.6331 16.8009C99.3122 16.0967 99.7386 15.124 99.7386 14.0302ZM101.017 8.88292C101.156 9.01297 101.242 9.2012 101.242 9.40453V18.6547C101.242 18.8538 101.154 19.0361 101.021 19.1654C100.885 19.2942 100.698 19.38 100.491 19.38C100.285 19.38 100.095 19.2942 99.9615 19.1654C99.826 19.0361 99.7386 18.8538 99.7386 18.6547V17.7522C98.7926 18.7414 97.4643 19.38 95.9943 19.38C94.5313 19.38 93.2143 18.7714 92.2708 17.7966C91.3241 16.8265 90.7448 15.4899 90.7448 14.0302C90.7448 12.5704 91.3241 11.2327 92.2708 10.2615C93.2143 9.28777 94.5313 8.68019 95.9943 8.68019C97.4633 8.68019 98.7926 9.30025 99.7386 10.2847V9.40453C99.7386 9.2012 99.8249 9.01297 99.9638 8.88292C100.103 8.75488 100.29 8.68019 100.491 8.68019C100.69 8.68019 100.88 8.75488 101.017 8.88292ZM111.627 9.82086C111.777 9.67732 111.858 9.48687 111.858 9.29783C111.858 9.11202 111.777 8.926 111.626 8.79132H111.627C111.626 8.78709 111.623 8.78709 111.623 8.78709C111.622 8.78367 111.619 8.78246 111.619 8.78246H111.617C111.472 8.64456 111.286 8.56886 111.094 8.56886C110.9 8.56886 110.71 8.64718 110.566 8.78709L104.69 14.3318V5.0128C104.69 4.61117 104.342 4.28504 103.916 4.28504C103.71 4.28504 103.522 4.36858 103.388 4.49984C103.254 4.63009 103.164 4.8137 103.164 5.0128V18.6547C103.164 18.8538 103.254 19.0361 103.388 19.1654C103.522 19.2942 103.71 19.38 103.916 19.38C104.342 19.38 104.69 19.0551 104.69 18.6547V16.4035L106.603 14.5532L110.504 19.1096C110.577 19.2143 110.677 19.2864 110.776 19.3244C110.888 19.3657 110.998 19.38 111.095 19.38C111.23 19.38 111.42 19.3522 111.586 19.2254L111.595 19.22L111.605 19.2097C111.762 19.0607 111.85 18.8626 111.85 18.6601C111.85 18.4898 111.785 18.3162 111.664 18.1773V18.1751L107.694 13.5015L111.624 9.82086H111.627ZM85.3044 4.31745H85.1366C85.1145 4.31745 85.0929 4.31966 85.0698 4.32047C85.0492 4.31966 85.0272 4.31745 85.0056 4.31745C84.5723 4.31745 84.1516 4.36516 83.7584 4.49199C83.3711 4.61661 83.0139 4.82255 82.7369 5.1352L82.7359 5.13399L82.7348 5.1352V5.13621C82.4485 5.44442 82.2599 5.81283 82.1451 6.23137C82.0302 6.65192 81.983 7.12582 81.9784 7.66435V8.70717H80.7911C80.3788 8.70938 80.0513 9.02867 80.0513 9.4148C80.049 9.62276 80.1326 9.81421 80.2684 9.95232C80.4052 10.088 80.5923 10.177 80.8003 10.1881H81.9784V18.6724L81.9771 18.6923C81.9771 18.8914 82.0634 19.075 82.2025 19.2065C82.3402 19.3355 82.5335 19.4122 82.744 19.4122C83.1438 19.4102 83.4723 19.0941 83.4736 18.6923V10.1881H84.7503C84.9561 10.177 85.1457 10.0934 85.2815 9.95876C85.4204 9.82428 85.5054 9.63524 85.5054 9.4303V9.40272C85.5009 9.02082 85.1709 8.70717 84.7584 8.70717H83.4736V7.66878C83.4817 7.20937 83.531 6.86552 83.6023 6.61528C83.6711 6.36364 83.7655 6.2056 83.8503 6.10776C83.9333 6.02099 84.0412 5.94852 84.2171 5.89054C84.3941 5.83518 84.6388 5.79955 84.97 5.79955H85.0089C85.0285 5.79955 85.0492 5.79612 85.0676 5.79612C85.0906 5.79612 85.1123 5.79955 85.1366 5.79955H85.2331H85.3044C85.7281 5.79955 86.0698 5.46798 86.0698 5.0583C86.0698 4.64902 85.7281 4.31745 85.3044 4.31745ZM9.61247 14.5117C9.67339 14.3259 9.69876 14.1345 9.69418 13.9454C9.68711 13.8085 9.66881 13.6719 9.62868 13.535C9.50788 13.11 9.22177 12.7303 8.79303 12.4909L2.69517 9.08182C1.83435 8.60208 0.736915 8.88735 0.242881 9.71959C-0.255934 10.5506 0.0382817 11.612 0.899098 12.0929L4.3066 14.001L0.899098 15.9039C0.0382817 16.3856 -0.254895 17.4472 0.242881 18.2816C0.736915 19.1116 1.83435 19.3955 2.69517 18.9158L8.79303 15.5044C9.20451 15.2751 9.48376 14.9156 9.61247 14.5117ZM11.2674 17.7065C10.917 17.6775 10.5527 17.7487 10.225 17.9335L4.12258 21.3404C3.26405 21.8212 2.97088 22.8882 3.46637 23.7206C3.96414 24.5508 5.06054 24.8367 5.91782 24.3537L9.33676 22.4443V26.2598C9.33676 27.2211 10.14 28 11.1341 28C12.1234 28 12.9291 27.2211 12.9291 26.2598V19.4388C12.9291 18.523 12.196 17.7709 11.2674 17.7065ZM17.5168 10.2933C17.8661 10.3213 18.2294 10.2491 18.5571 10.0665L24.6582 6.65635C25.518 6.17541 25.8097 5.11285 25.3155 4.27819C24.8202 3.44736 23.7228 3.16229 22.8642 3.64283L19.4476 5.55454V1.73777C19.4476 0.779097 18.6444 0 17.6503 0C16.6562 0 15.855 0.779097 15.855 1.73777V8.5588C15.855 9.47358 16.5861 10.2269 17.5168 10.2933ZM4.12258 6.65635L10.225 10.0665C10.5527 10.2491 10.917 10.3213 11.2674 10.2933C12.196 10.2269 12.9291 9.47358 12.9291 8.5588V1.73777C12.9291 0.779097 12.1234 0 11.1341 0C10.14 0 9.33676 0.779097 9.33676 1.73777V5.55454L5.91782 3.64283C5.06054 3.16229 3.96414 3.44736 3.46637 4.27819C2.97088 5.11285 3.26405 6.17541 4.12258 6.65635ZM15.5908 13.9867C15.5908 13.8877 15.5288 13.7496 15.4564 13.6763L14.7221 12.9685C14.6497 12.8986 14.5071 12.8406 14.4045 12.8406H14.3761C14.2738 12.8406 14.1313 12.8986 14.06 12.9685L13.3256 13.6763C13.252 13.7496 13.1957 13.8877 13.1957 13.9867V14.0145C13.1957 14.1123 13.252 14.2492 13.3256 14.3205L14.06 15.0303C14.1324 15.1004 14.2738 15.1582 14.3761 15.1582H14.4045C14.5071 15.1582 14.6497 15.1004 14.7221 15.0303L15.4564 14.3205C15.5288 14.2492 15.5908 14.1123 15.5908 14.0145V13.9867ZM17.6181 14.6676L15.0818 17.1202C15.0092 17.1923 14.8691 17.2513 14.7634 17.2513H14.5794H14.2047H14.0176C13.9151 17.2513 13.7727 17.1923 13.6991 17.1202L11.164 14.6676C11.0914 14.5985 11.0328 14.4596 11.0328 14.3616V14.1802V13.8174V13.6384C11.0328 13.5382 11.0914 13.3991 11.164 13.329L13.6991 10.8766C13.7727 10.8043 13.9151 10.7475 14.0176 10.7475H14.2047H14.5794H14.7634C14.8668 10.7475 15.0092 10.8043 15.0818 10.8766L17.6181 13.329C17.6904 13.3991 17.749 13.5382 17.749 13.6384V13.8174V14.1802V14.3616C17.749 14.4596 17.6904 14.5985 17.6181 14.6676ZM24.6582 21.3404L18.5571 17.9335C18.2294 17.7487 17.8661 17.6775 17.5168 17.7065C16.5861 17.7709 15.855 18.523 15.855 19.4388V26.2598C15.855 27.2211 16.6562 28 17.6503 28C18.6444 28 19.4476 27.2211 19.4476 26.2598V22.4443L22.8642 24.3537C23.7226 24.8367 24.8202 24.5508 25.3155 23.7206C25.8097 22.8882 25.518 21.8212 24.6582 21.3404ZM27.8842 12.0929L24.4765 14.001L27.8842 15.9039C28.7448 16.3856 29.039 17.4472 28.5415 18.2816C28.0449 19.1116 26.9465 19.3955 26.089 18.9158L19.9865 15.5044C19.5796 15.2751 19.2971 14.9156 19.1717 14.5117C19.112 14.3259 19.0844 14.1345 19.0912 13.9454C19.0947 13.8085 19.1153 13.6719 19.1544 13.535C19.2765 13.11 19.5626 12.7305 19.9865 12.4909L26.089 9.08182C26.9465 8.60208 28.0449 8.88735 28.5415 9.71959C29.039 10.5506 28.7448 11.612 27.8842 12.0929Z" fill="#29B5E8"/>
</svg>
