<svg width="219" height="81" viewBox="0 0 219 81" fill="none" xmlns="http://www.w3.org/2000/svg">
<g clip-path="url(#clip0)">
<path d="M0 56.4445C0.119368 55.7962 0.238735 55.1884 0.358103 54.54C1.67115 49.2319 6.36628 45.7471 11.698 46.0308C17.189 46.3144 21.526 50.488 22.2024 56.0393C22.9186 62.1578 19.059 67.547 13.0907 68.6006C6.36628 69.7757 0.755996 65.0753 0.0795785 58.8352C0.0795785 58.7136 0 58.5921 0 58.4705V56.4445H0Z" fill="black"/>
<path d="M45.4798 68.9655H78.5049V80.8784H20.8503C21.0094 80.7974 21.1288 80.7569 21.2084 80.7164C25.426 79.2576 29.0469 76.9075 31.9117 73.3822C34.5378 70.1001 36.0895 66.3317 36.6864 62.1581C37.1241 59.2001 37.1639 56.2421 36.6068 53.2841C35.8906 49.3942 34.1399 46.031 31.4342 43.1136C30.161 41.7359 28.7285 40.5203 27.1768 39.4667C27.0574 39.3857 26.938 39.2641 26.8187 39.2236C27.8532 38.3322 28.8877 37.4812 29.8426 36.5493C33.6624 32.6998 35.6917 28.0805 35.811 22.6103C35.9304 17.2211 34.5776 12.2776 31.3148 7.94197C28.6092 4.33567 25.0281 1.86393 20.8503 0.283642C20.6911 0.243122 20.5717 0.162081 20.4126 0.121561C20.3728 0.121561 20.3728 0.0810405 20.333 0.0405203H72.6957C72.6161 0.202601 72.5763 0.364682 72.4967 0.526763C69.1544 7.21261 65.7723 13.939 62.43 20.6248C56.8197 31.8084 51.2095 42.992 45.639 54.2161C45.4798 54.4998 45.4002 54.905 45.4002 55.2291V68.3577C45.4798 68.5198 45.4798 68.7224 45.4798 68.9655ZM119.647 61.2666H127.048C127.446 61.2666 127.565 61.3882 127.645 61.7934C127.923 63.941 128.48 66.0075 129.554 67.912C130.987 70.4647 133.056 72.2071 135.841 73.058C139.064 74.0305 142.327 74.1115 145.55 73.0985C149.887 71.7614 152.592 68.8034 153.905 64.4677C154.701 61.8339 154.98 59.1596 154.98 56.4042C154.98 54.054 154.98 51.7039 154.86 49.3537C154.741 46.7199 154.264 44.1266 153.269 41.6548C151.638 37.6028 148.773 35.0905 144.475 34.4422C141.173 33.9155 137.91 34.2396 134.807 35.5768C131.982 36.7924 129.952 38.8184 128.798 41.7359C128.759 41.8979 128.52 42.06 128.401 42.06H121.756C121.716 42.06 121.676 42.06 121.557 42.0195V0H161.267V7.13157H128.679V32.4972C128.798 32.4162 128.838 32.3757 128.918 32.2946C131.305 29.7824 134.25 28.3237 137.592 27.6348C141.611 26.7839 145.59 26.8649 149.529 28.04C154.144 29.4177 157.487 32.4567 159.755 36.7114C161.346 39.6693 162.142 42.8704 162.54 46.1931C162.977 49.7184 162.977 53.2841 162.898 56.8499C162.779 60.4967 162.46 64.1436 161.187 67.5878C158.64 74.4762 153.826 78.7309 146.783 80.2706C141.531 81.4457 136.358 81.1216 131.305 79.1766C125.416 76.8669 121.915 72.4097 120.403 66.2911C120.045 64.7919 119.886 63.2521 119.647 61.7124C119.607 61.5908 119.647 61.4692 119.647 61.2666Z" fill="black"/>
<path d="M98.678 0.0405203V54.6618H92.7892V39.3047C92.5504 39.3047 92.3913 39.2641 92.2321 39.2641H79.1414C78.6242 39.2641 78.5446 39.4262 78.5446 39.9125V54.7024H61.6342C62.0719 53.8109 62.5095 52.96 62.9074 52.1091C65.5733 46.7604 68.279 41.4117 70.9449 36.063C76.1572 25.6493 81.3696 15.2761 86.582 4.86243L88.85 0.364682C88.9296 0.202601 89.1285 0.0405203 89.2877 0.0405203H98.678ZM186.135 9.03602C181.201 13.4527 176.347 17.7884 171.452 22.2051C171.452 22.0025 171.413 21.8404 171.413 21.7189V13.4122C171.413 13.2096 171.532 12.8854 171.691 12.7639C176.347 8.5903 181.042 4.45723 185.737 0.324162C185.976 0.0810405 186.254 0 186.572 0H194.053V80.8784H186.135V9.03602ZM1.03516 22.5698C1.03516 17.7884 3.74082 13.8579 8.11764 12.6018C14.2054 10.8189 20.2136 14.3847 21.0491 21.0705C21.4868 24.7174 20.5717 27.959 17.8262 30.4712C15.797 32.3352 13.33 33.0645 10.6244 32.943C7.24228 32.7809 4.53661 31.3222 2.66652 28.4047C1.51263 26.6218 1.03516 24.6768 1.03516 22.5698ZM104.567 69.006V80.919H92.8289V69.006H104.567ZM219.001 8.42821C218.921 13.088 215.181 16.8159 210.724 16.7349C206.109 16.6133 202.528 12.8854 202.607 8.18509C202.727 3.48474 206.586 -0.121561 211.202 0.0405203C215.499 0.162081 219.08 4.01151 219.001 8.42821ZM210.764 13.8579C213.748 13.8579 216.176 11.3862 216.176 8.38769C216.176 5.34867 213.709 2.83642 210.764 2.83642C207.82 2.83642 205.393 5.30815 205.393 8.34717C205.393 11.3862 207.82 13.8579 210.764 13.8579Z" fill="black"/>
</g>
<defs>
<clipPath id="clip0">
<rect width="219" height="81" fill="white"/>
</clipPath>
</defs>
</svg>
