<svg width="58" height="57" viewBox="0 0 58 57" fill="none" xmlns="http://www.w3.org/2000/svg">
<path d="M52.9261 12.4692C52.5945 11.408 51.7986 10.5458 50.8037 10.0152L30.5744 0.331628C30.0438 0.0663255 29.4468 0 28.9162 0C28.3856 0 27.7887 0 27.2581 0.132651L7.02881 9.88251C6.03393 10.3468 5.30434 11.209 5.03904 12.3366L0.0646249 34.1577C-0.134352 35.2852 0.13095 36.4127 0.794206 37.3413L14.7889 54.6522C15.5848 55.4482 16.7123 55.9788 17.8399 56.0451H40.1253C41.3191 56.1777 42.4467 55.6471 43.1762 54.6522L57.1709 37.3413C57.8342 36.4127 58.0995 35.2852 57.9668 34.1577L52.9261 12.4692Z" fill="#326DE6"/>
<path d="M49.8088 33.2941C49.7425 33.2941 49.6762 33.2941 49.6762 33.2277C49.6762 33.1614 49.5435 33.1614 49.4109 33.1614C49.1456 33.0951 48.8803 33.0951 48.615 33.0951C48.4823 33.0951 48.3497 33.0951 48.217 33.0288H48.1507C47.4211 32.9624 46.6252 32.8298 45.8956 32.6308C45.6966 32.5645 45.4977 32.3655 45.4313 32.1665C45.4977 32.1665 45.4313 32.1665 45.4313 32.1665L44.9007 32.0339C45.166 30.1104 45.0334 28.1207 44.6354 26.1972C44.1712 24.2738 43.3753 22.4167 42.314 20.7585L42.712 20.3606V20.2943C42.712 20.0953 42.7783 19.83 42.911 19.6973C43.5079 19.1667 44.1048 18.7688 44.7681 18.3708C44.9007 18.3045 45.0334 18.2382 45.166 18.1718C45.4313 18.0392 45.6303 17.9065 45.8956 17.7739C45.9619 17.7076 46.0283 17.7076 46.0946 17.6412C46.1609 17.5749 46.0946 17.5749 46.0946 17.5086C46.6915 17.0443 46.8242 16.2484 46.3599 15.6515C46.1609 15.3862 45.763 15.1872 45.4313 15.1872C45.0997 15.1872 44.7681 15.3198 44.5028 15.5188L44.4365 15.5851C44.3701 15.6515 44.3038 15.7178 44.2375 15.7178C44.0385 15.9168 43.8395 16.1157 43.7069 16.3147C43.6406 16.4474 43.5079 16.5137 43.4416 16.58C42.9773 17.1106 42.3804 17.6412 41.7834 18.0392C41.6508 18.1055 41.5181 18.1718 41.3855 18.1718C41.3192 18.1718 41.1865 18.1718 41.1202 18.1055H41.0539L40.5233 18.4371C39.9926 17.9065 39.3957 17.3759 38.8651 16.8453C36.4111 14.9219 33.3601 13.728 30.2428 13.3964L30.1765 12.8658V12.9321C29.9775 12.7995 29.9112 12.6005 29.8448 12.4015C29.8448 11.6719 29.8448 10.9424 29.9775 10.1464V10.0801C29.9775 9.94747 30.0438 9.81482 30.0438 9.68217C30.1101 9.41687 30.1101 9.15156 30.1765 8.88626V8.48831C30.2428 7.82505 29.7122 7.1618 29.0489 7.09547C28.651 7.02915 28.253 7.22812 27.9214 7.55975C27.6561 7.82505 27.5234 8.15668 27.5234 8.48831V8.81994C27.5234 9.08524 27.5898 9.35054 27.6561 9.61584C27.7224 9.74849 27.7224 9.88115 27.7224 10.0138V10.0801C27.8551 10.8097 27.8551 11.5393 27.8551 12.3352C27.7887 12.5342 27.7224 12.7331 27.5234 12.8658V12.9984L27.4571 13.5291C26.7275 13.5954 25.998 13.728 25.2021 13.8607C22.0848 14.5239 19.2328 16.1821 17.044 18.5035L16.6461 18.2382H16.5797C16.5134 18.2382 16.4471 18.3045 16.3144 18.3045C16.1818 18.3045 16.0491 18.2382 15.9165 18.1718C15.3195 17.7076 14.7226 17.177 14.2583 16.6464C14.192 16.5137 14.0594 16.4474 13.993 16.3811C13.7941 16.1821 13.6614 15.9831 13.4624 15.7841C13.3961 15.7178 13.3298 15.7178 13.2635 15.6515C13.1971 15.5851 13.1971 15.5851 13.1971 15.5851C12.9318 15.3862 12.6002 15.2535 12.2686 15.2535C11.8706 15.2535 11.539 15.3862 11.34 15.7178C10.9421 16.3147 11.0747 17.1106 11.6053 17.5749C11.6716 17.5749 11.6716 17.6412 11.6716 17.6412C11.6716 17.6412 11.8043 17.7739 11.8706 17.7739C12.0696 17.9065 12.3349 18.0392 12.6002 18.1718C12.7329 18.2382 12.8655 18.3045 12.9982 18.3708C13.6614 18.7688 14.3247 19.1667 14.8553 19.6973C14.9879 19.83 15.1206 20.0953 15.0542 20.2943V20.2279L15.4522 20.6259C15.3859 20.7585 15.3195 20.8249 15.2532 20.9575C13.1971 24.2075 12.3349 28.0543 12.9318 31.8349L12.4012 31.9676C12.4012 32.0339 12.3349 32.0339 12.3349 32.0339C12.2686 32.2329 12.0696 32.3655 11.8706 32.4982C11.141 32.6971 10.4115 32.8298 9.61555 32.8961C9.4829 32.8961 9.35025 32.8961 9.2176 32.9624C8.95229 32.9624 8.68699 33.0288 8.42169 33.0288C8.35536 33.0288 8.28904 33.0951 8.15639 33.0951C8.09006 33.0951 8.09006 33.0951 8.02374 33.1614C7.29416 33.2941 6.82988 33.9573 6.96253 34.6869C7.09518 35.2838 7.69211 35.6818 8.28904 35.6155C8.42169 35.6155 8.48801 35.6155 8.62067 35.5491C8.68699 35.5491 8.68699 35.5491 8.68699 35.4828C8.68699 35.4165 8.88597 35.4828 8.95229 35.4828C9.2176 35.4165 9.4829 35.2838 9.68187 35.2175C9.81453 35.1512 9.94718 35.0849 10.0798 35.0849H10.1462C10.8757 34.8196 11.539 34.6206 12.3349 34.4879H12.4012C12.6002 34.4879 12.7992 34.5542 12.9318 34.6869C12.9982 34.6869 12.9982 34.7532 12.9982 34.7532L13.5951 34.6869C14.59 37.7379 16.4471 40.4572 19.0338 42.447C19.6307 42.9113 20.1613 43.3092 20.8246 43.6409L20.4929 44.1051C20.4929 44.1715 20.5593 44.1715 20.5593 44.1715C20.6919 44.3704 20.6919 44.6357 20.6256 44.8347C20.3603 45.498 19.9623 46.1612 19.5644 46.7582V46.8245C19.4981 46.9571 19.4317 47.0235 19.2991 47.1561C19.1664 47.2888 19.0338 47.5541 18.8348 47.8194C18.7685 47.8857 18.7685 47.952 18.7021 48.0183C18.7021 48.0183 18.7021 48.0847 18.6358 48.0847C18.3042 48.7479 18.5695 49.5438 19.1664 49.8755C19.2991 49.9418 19.4981 50.0081 19.6307 50.0081C20.1613 50.0081 20.6256 49.6765 20.8909 49.2122C20.8909 49.2122 20.8909 49.1459 20.9572 49.1459C20.9572 49.0795 21.0235 49.0132 21.0899 48.9469C21.1562 48.6816 21.2888 48.4826 21.3552 48.2173L21.4878 47.8194C21.6868 47.0898 22.0184 46.4265 22.3501 45.7633C22.4827 45.5643 22.6817 45.4316 22.8807 45.3653C22.947 45.3653 22.947 45.3653 22.947 45.299L23.2123 44.7684C25.0694 45.498 26.9928 45.8296 28.9826 45.8296C30.1765 45.8296 31.3703 45.6969 32.5642 45.3653C33.2938 45.2327 34.0233 44.9674 34.6866 44.7684L34.9519 45.2327C35.0182 45.2327 35.0182 45.2327 35.0182 45.299C35.2172 45.3653 35.4162 45.498 35.5488 45.6969C35.8805 46.3602 36.2121 47.0235 36.4111 47.753V47.8194L36.5437 48.2173C36.61 48.4826 36.6764 48.7479 36.809 48.9469C36.8753 49.0132 36.8753 49.0795 36.9417 49.1459C36.9417 49.1459 36.9417 49.2122 37.008 49.2122C37.2733 49.6765 37.7376 50.0081 38.2682 50.0081C38.4672 50.0081 38.5998 49.9418 38.7988 49.8755C39.0641 49.7428 39.3294 49.4775 39.3957 49.1459C39.462 48.8142 39.462 48.4826 39.3294 48.151C39.3294 48.0847 39.2631 48.0847 39.2631 48.0847C39.2631 48.0183 39.1967 47.952 39.1304 47.8857C38.9978 47.6204 38.8651 47.4214 38.6661 47.2224C38.5998 47.0898 38.5335 47.0235 38.4008 46.8908V46.7582C37.9366 46.1612 37.6049 45.498 37.3396 44.8347C37.2733 44.6357 37.2733 44.3704 37.406 44.1715C37.406 44.1051 37.4723 44.1051 37.4723 44.1051L37.2733 43.5745C40.6559 41.5184 43.2426 38.3348 44.4365 34.5542L44.9671 34.6206C45.0334 34.6206 45.0334 34.5542 45.0334 34.5542C45.166 34.4216 45.365 34.3553 45.564 34.3553H45.6303C46.3599 34.4879 47.0895 34.6869 47.7527 34.9522H47.8191C47.9517 35.0185 48.0844 35.0849 48.217 35.0849C48.4823 35.2175 48.6813 35.3502 48.9466 35.4165C49.0129 35.4165 49.0792 35.4828 49.2119 35.4828C49.2782 35.4828 49.2782 35.4828 49.3446 35.5491C49.4772 35.6155 49.5435 35.6155 49.6762 35.6155C50.2731 35.6155 50.8037 35.2175 51.0027 34.6869C50.9364 33.9573 50.4058 33.4267 49.8088 33.2941ZM30.6407 31.238L28.85 32.1002L27.0592 31.238L26.5949 29.3145L27.8551 27.7227H29.8448L31.105 29.3145L30.6407 31.238ZM41.4518 26.9268C41.7834 28.3196 41.8498 29.7125 41.7171 31.1053L35.4162 29.3145C34.8193 29.1819 34.4876 28.585 34.6203 27.988C34.6866 27.789 34.7529 27.6564 34.8856 27.5237L39.86 23.0136C40.5896 24.2075 41.1202 25.534 41.4518 26.9268ZM37.8702 20.5596L32.4315 24.4064C31.9673 24.6717 31.304 24.6054 30.9724 24.1411C30.8397 24.0085 30.7734 23.8758 30.7734 23.6769L30.3754 16.978C33.2938 17.3096 35.8805 18.5698 37.8702 20.5596ZM25.8653 17.177L27.1918 16.9117L26.8602 23.5442C26.8602 24.1411 26.3296 24.6054 25.7327 24.6054C25.5337 24.6054 25.401 24.5391 25.2021 24.4728L19.697 20.5596C21.4215 18.9014 23.5439 17.7076 25.8653 17.177ZM17.7736 23.0136L22.6817 27.3911C23.146 27.789 23.2123 28.4523 22.8143 28.9166C22.6817 29.1156 22.549 29.1819 22.2837 29.2482L15.8502 31.1053C15.6512 28.3196 16.3144 25.4676 17.7736 23.0136ZM16.6461 34.2226L23.2123 33.0951C23.7429 33.0951 24.2735 33.4267 24.3398 33.9573C24.4061 34.1563 24.4061 34.4216 24.2735 34.6206L21.7531 40.7225C19.4317 39.197 17.5746 36.8756 16.6461 34.2226ZM31.702 42.447C30.7734 42.646 29.8448 42.7786 28.85 42.7786C27.4571 42.7786 25.998 42.5133 24.6714 42.1154L27.9214 36.2124C28.253 35.8144 28.7836 35.6818 29.2479 35.9471C29.4469 36.0797 29.5795 36.2124 29.7785 36.4114L32.9621 42.1817C32.5642 42.248 32.1662 42.3143 31.702 42.447ZM39.7937 36.6767C38.7988 38.2685 37.406 39.6613 35.8141 40.6562L33.2274 34.4216C33.0948 33.891 33.3601 33.3604 33.8244 33.1614C34.0233 33.0951 34.2223 33.0288 34.4213 33.0288L41.0539 34.1563C40.7222 35.0849 40.3243 35.9471 39.7937 36.6767Z" fill="white"/>
</svg>
