<svg width="88" height="20" viewBox="0 0 88 20" fill="none" xmlns="http://www.w3.org/2000/svg">
<g style="mix-blend-mode:multiply">
<path d="M32.8308 4.27879H28.0003C27.6451 4.27879 27.3609 4.47041 27.3609 4.78977L25.3719 15.9673C25.3008 16.1589 25.5139 16.4144 25.7981 16.4144H28.1423C28.4975 16.4144 28.7817 16.2228 28.7817 15.9034L29.2789 12.9015C29.35 12.5821 29.6341 12.3905 29.9183 12.3905H31.4811C34.6778 12.3905 36.5248 10.9853 37.0221 8.23883C37.2352 7.02527 37.0221 6.0672 36.3827 5.42848C35.6724 4.72589 34.4647 4.27879 32.8308 4.27879ZM33.3991 8.43045C33.115 10.0272 31.8363 10.0272 30.4866 10.0272H29.7762L30.2735 7.08915C30.2735 6.89753 30.4866 6.76979 30.6997 6.76979H31.0549C31.9073 6.76979 32.7598 6.76979 33.186 7.21689C33.3991 7.47238 33.4702 7.8556 33.3991 8.43045ZM47.3936 8.36658H45.0494C44.8362 8.36658 44.6942 8.49432 44.6231 8.68594L44.5521 9.26078L44.41 9.06917C43.9127 8.43045 42.7761 8.17496 41.6395 8.17496C39.0822 8.17496 36.88 9.8995 36.4538 12.3905C36.2407 13.6041 36.5248 14.8176 37.3062 15.5841C38.0166 16.3505 39.0111 16.6699 40.2188 16.6699C42.2789 16.6699 43.4155 15.4563 43.4155 15.4563L43.3444 16.0312C43.2734 16.2228 43.4865 16.4783 43.7707 16.4783H45.8308C46.186 16.4783 46.4701 16.2867 46.4701 15.9673L47.7488 8.81368C47.8198 8.55819 47.6067 8.36658 47.3936 8.36658ZM44.1259 12.3905C43.9127 13.6041 42.8472 14.3705 41.4975 14.3705C40.7871 14.3705 40.2898 14.1789 39.9346 13.7957C39.5794 13.4124 39.4374 12.9015 39.5794 12.3266C39.7926 11.1131 40.8581 10.2827 42.2078 10.2827C42.8472 10.2827 43.4155 10.4743 43.7707 10.8576C44.0548 11.3047 44.1969 11.8156 44.1259 12.3905ZM59.7542 8.36658H57.4099C57.1968 8.36658 56.9837 8.49432 56.8416 8.62206L53.6449 12.9015L52.2952 8.81368C52.2242 8.55819 51.94 8.36658 51.6559 8.36658H49.3827C49.0985 8.36658 48.8854 8.62206 49.0275 8.87755L51.5848 15.6479L49.1696 18.7138C48.9564 18.9693 49.1696 19.2886 49.5247 19.2886H51.869C52.0821 19.2886 52.2952 19.1609 52.4373 19.0331L60.1094 8.94142C60.2515 8.68594 60.1094 8.36658 59.7542 8.36658Z" fill="#203881"/>
<path d="M67.497 4.27879H62.6664C62.3112 4.27879 62.0271 4.47041 62.0271 4.78977L60.038 15.9673C59.967 16.1589 60.1801 16.4144 60.4642 16.4144H62.9506C63.1637 16.4144 63.3768 16.2867 63.4478 16.0312L64.0161 12.8376C64.0872 12.5182 64.3713 12.3266 64.6555 12.3266H66.2183C69.415 12.3266 71.262 10.9214 71.7592 8.17496C71.9724 6.9614 71.7592 6.00333 71.1199 5.36461C70.3385 4.72589 69.1308 4.27879 67.497 4.27879ZM68.0653 8.43045C67.7811 10.0272 66.5024 10.0272 65.1527 10.0272H64.4423L64.9396 7.08914C64.9396 6.89753 65.1527 6.76979 65.3658 6.76979H65.721C66.5735 6.76979 67.4259 6.76979 67.8522 7.21689C68.0653 7.47237 68.1363 7.8556 68.0653 8.43045ZM81.9887 8.36658H79.6445C79.4313 8.36658 79.2893 8.49432 79.2182 8.68594L79.1472 9.26078L79.0051 9.06916C78.5078 8.43045 77.3712 8.17496 76.2346 8.17496C73.6773 8.17496 71.4751 9.8995 71.0489 12.3905C70.8358 13.604 71.1199 14.8176 71.9013 15.5841C72.6117 16.3505 73.6062 16.6699 74.8139 16.6699C76.874 16.6699 78.0106 15.4563 78.0106 15.4563L77.9395 16.0312C77.8685 16.2228 78.0816 16.4783 78.3658 16.4783H80.4259C80.7811 16.4783 81.0652 16.2867 81.0652 15.9673L82.3439 8.81368C82.486 8.55819 82.2729 8.36658 81.9887 8.36658ZM78.792 12.3905C78.5789 13.604 77.5133 14.3705 76.1636 14.3705C75.5243 14.3705 74.956 14.1789 74.6008 13.7957C74.2456 13.4124 74.1035 12.9015 74.2456 12.3266C74.4587 11.1131 75.5243 10.2827 76.874 10.2827C77.5133 10.2827 78.0816 10.4743 78.4368 10.8576C78.721 11.3047 78.863 11.8156 78.792 12.3905ZM84.7592 4.59815L82.7701 16.0312C82.6991 16.2228 82.9122 16.4783 83.1963 16.4783H85.1854C85.5406 16.4783 85.8247 16.2867 85.8247 15.9673L87.8138 4.78977C87.8848 4.59815 87.6717 4.34267 87.3876 4.34267H85.1144C84.9723 4.27879 84.7592 4.47041 84.7592 4.59815Z" fill="#0F9DD8"/>
<path d="M5.19756 18.6505L5.55275 16.5427H0.793213L3.49265 0.830272C3.49265 0.7664 3.56369 0.702528 3.56369 0.702528C3.63473 0.702528 3.70576 0.638657 3.70576 0.638657H10.3833C12.5855 0.638657 14.1483 1.08576 14.9297 1.91609C15.2849 2.29932 15.5691 2.68255 15.6401 3.12966C15.7822 3.57676 15.7822 4.15161 15.6401 4.79032V5.3013L15.9953 5.49291C16.2795 5.62066 16.5636 5.81227 16.7767 6.00389C17.1319 6.32325 17.274 6.77035 17.4161 7.21745C17.4871 7.72843 17.4871 8.30327 17.345 9.00586C17.203 9.77232 16.9188 10.4749 16.4926 11.0498C16.1374 11.5607 15.7112 12.0078 15.2139 12.3272C14.7166 12.6466 14.1483 12.902 13.4379 13.0298C12.7986 13.1575 12.0882 13.2853 11.2358 13.2853H10.7385C10.3833 13.2853 10.0281 13.413 9.74398 13.6046C9.45983 13.7962 9.24671 14.1156 9.24671 14.435L9.17568 14.6266L8.53634 18.395V18.5228C8.53634 18.5866 8.53634 18.5866 8.4653 18.5866H8.39426C8.39426 18.6505 5.19756 18.6505 5.19756 18.6505Z" fill="#7F8184"/>
<path d="M16.3499 4.91745V5.23681C15.4974 9.3246 12.4428 10.6659 8.60676 10.6659H6.6177C6.12043 10.6659 5.76524 10.9853 5.6942 11.3685L4.69967 17.0531L4.41552 18.6499C4.34448 18.9054 4.62863 19.1609 4.91279 19.1609H8.39365C8.81987 19.1609 9.17506 18.9054 9.2461 18.5221V18.3944L9.88544 14.6898L9.95648 14.4982C10.0275 14.115 10.3827 13.8595 10.8089 13.8595H11.3062C14.645 13.8595 17.2734 12.6459 18.0548 9.06911C18.41 7.60006 18.1969 6.32263 17.3444 5.4923C17.0603 5.30068 16.7761 5.04519 16.3499 4.91745Z" fill="#0F9DD8"/>
<path d="M15.4981 4.59815C15.356 4.53428 15.2139 4.47041 15.0718 4.47041C14.9298 4.47041 14.7877 4.40654 14.6456 4.40654C14.1483 4.34267 13.509 4.27879 12.9407 4.27879H7.68389C7.54181 4.27879 7.39973 4.27879 7.3287 4.34267C7.04454 4.47041 6.90247 4.66202 6.83143 4.91751L5.69482 11.2408V11.4324C5.76586 10.9853 6.19209 10.7298 6.61832 10.7298H8.60738C12.4434 10.7298 15.427 9.32465 16.3505 5.30074V4.91751C16.1374 4.78977 15.8532 4.72589 15.6401 4.66202C15.5691 4.59815 15.4981 4.59815 15.4981 4.59815Z" fill="#1C2965"/>
<path d="M6.83059 4.91813C6.90163 4.66264 7.04371 4.47102 7.32786 4.34328C7.46993 4.27941 7.54097 4.27941 7.68305 4.27941H12.9398C13.5792 4.27941 14.1475 4.34328 14.6448 4.40715C14.7868 4.40715 14.9289 4.47102 15.071 4.47102C15.2131 4.47102 15.3551 4.5349 15.4972 4.59877C15.5682 4.59877 15.6393 4.66264 15.7103 4.66264C15.9945 4.72651 16.2076 4.85426 16.4207 4.91813C16.7049 3.44908 16.4207 2.42713 15.4972 1.46905C14.5027 0.447102 12.7267 0 10.3825 0H3.70493C3.2787 0 2.85247 0.319359 2.78143 0.70259L0.0109584 16.5428C-0.0600795 16.8622 0.224072 17.1176 0.579261 17.1176H4.69946L5.69399 11.2414L6.83059 4.91813Z" fill="#203881"/>
</g>
</svg>
