<svg width="75" height="25" viewBox="0 0 75 25" fill="none" xmlns="http://www.w3.org/2000/svg">
<g clip-path="url(#clip0_18198_438)">
<path d="M28.8396 0.00842285H25.7374C25.1655 0.00842285 24.7905 0.447038 24.7905 0.997432V23.9966C24.7905 24.5471 25.1655 24.9882 25.7374 24.9882H28.8396C29.4115 24.9882 29.8512 24.5471 29.8512 23.9966V0.997432C29.8512 0.447038 29.4115 0.00842285 28.8396 0.00842285Z" fill="#239DFF"/>
<path d="M19.1526 18.1702C18.871 17.5553 18.0638 17.3859 17.5683 17.8478C16.2561 19.0714 14.4965 19.823 12.5563 19.823C7.47265 19.823 3.59341 14.6897 5.86387 9.34578C6.53494 7.76629 7.80824 6.50229 9.39529 5.83529C12.4972 4.53162 15.5154 5.27429 17.5174 7.10474C18.0181 7.56246 18.8211 7.40009 19.1031 6.7842L20.4467 3.85003C20.6617 3.38045 20.5132 2.82974 20.0996 2.51865C16.952 0.150717 12.6554 -0.778886 8.17725 0.74005C4.58309 1.95902 1.78052 4.84408 0.639227 8.44924C-2.09081 17.0728 4.30286 24.9999 12.5563 24.9999C15.4288 24.9999 18.0689 24.0328 20.1819 22.4145C20.581 22.1088 20.7062 21.563 20.4972 21.1065L19.1526 18.1702Z" fill="#239DFF"/>
<path d="M74.3607 8.44933C73.2194 4.84417 70.4168 1.95911 66.8227 0.740142C64.2788 -0.122709 61.7938 -0.194605 59.5444 0.337632C55.7927 1.17162 53.0754 2.94235 50.6871 8.04703L45.8948 18.3956L37.7603 0.594776C37.5979 0.239917 37.2426 0.0118457 36.8509 0.011216L33.2972 0.00565328C32.5679 0.00449876 32.0822 0.755256 32.3849 1.41585L42.9348 24.3794C43.0974 24.7344 43.4532 24.9745 43.8451 24.9746L44.0177 24.9883H48.0073C48.0875 24.9883 48.1678 24.9719 48.2439 24.946C48.5184 24.8529 48.7497 24.6579 48.8699 24.3886C48.8699 24.3886 54.1518 12.4207 54.2133 12.2764C55.8205 8.50328 56.7958 6.93176 59.3468 5.85238C61.277 5.03582 63.5594 4.93642 65.766 5.93142C67.3022 6.62403 68.5102 7.8896 69.1527 9.44149C69.5593 10.4128 69.7643 11.4113 69.7981 12.3952C69.8556 16.4877 66.5413 19.8233 62.4435 19.8233C60.5033 19.8233 58.7437 19.0716 57.4315 17.8481C56.936 17.3861 56.1288 17.5555 55.8472 18.1704L54.5025 21.1068C54.2936 21.5632 54.4187 22.1088 54.818 22.4147C56.9309 24.0329 59.571 25.0001 62.4435 25.0001C70.697 25 77.0906 17.0729 74.3607 8.44933Z" fill="#239DFF"/>
</g>
<defs>
<clipPath id="clip0_18198_438">
<rect width="75" height="25" fill="white"/>
</clipPath>
</defs>
</svg>
