<svg xmlns="http://www.w3.org/2000/svg" width="120.368" height="24.378" viewBox="0 0 120.368 24.378"><g transform="translate(-0.872 -0.92)"><path d="M112.124.92c-2.81,0-4.963.739-6.4,2.181a6.981,6.981,0,0,0-1.9,4.957c.011,5.116,3.314,5.937,6.813,6.806l2.329.569c2.355.6,3.787,1.078,3.8,2.73,0,2.367-2.316,2.866-4.255,2.866h-.2c-3.7,0-4.3-2.258-4.33-3.6l0-.1H103.52v.135c0,2.32.909,7.721,9.193,7.721h.044c1.416,0,8.491-.385,8.483-7.592-.008-4.2-2.864-5.5-5.657-6.217l-5.214-1.368c-1.052-.265-2.175-.683-2.185-2.3.01-1.942,1.866-2.635,3.616-2.635,2.624.009,4.053,1.129,4.253,3.336l.007.093,4.484,0,0-.1c-.056-3.448-2.29-7.476-8.419-7.476ZM74.492,1a4.3,4.3,0,0,0-4.366,4.216V22.06a2.607,2.607,0,0,0,2.33,2.6,2.246,2.246,0,0,1,.457,0h12.1v-4.3H74.51V5.217l.176-.008,1.565,7.983,3.928-.943-1.22-7.114A4.366,4.366,0,0,0,74.492,1ZM9.459,1.03c-2.785,0-4.922.727-6.353,2.162A7.019,7.019,0,0,0,1.187,8.174c.018,5.113,3.347,5.926,6.871,6.79l2.289.587c2.277.558,3.771,1.051,3.773,2.74a2.434,2.434,0,0,1-.674,1.79,5.167,5.167,0,0,1-3.657,1.072c-3.941-.015-4.41-2.527-4.43-3.605l0-.1L.872,17.439v.1c.018,2.329.955,7.747,9.245,7.756,1.42-.007,8.5-.41,8.5-7.583-.017-4.2-2.732-5.49-5.667-6.254L7.741,10.08c-.868-.211-2.182-.532-2.2-2.269.007-1.934,1.845-2.624,3.565-2.624h.044c3.9,0,4.176,2.5,4.278,3.41h4.475c-.01-.763-.324-7.568-8.4-7.568H9.459Zm8.735.513-.011,4.319h6.446v18.8h4.685V5.862h6.414L35.71,1.543Zm20.68,0L31.259,24.665h4.909l1.49-4.738h7.716l1.356,4.738H51.8L44.205,1.543H38.874Zm13.729,0V24.665h4.69V16.411l5.018-.017a6.439,6.439,0,0,0,4.747-1.813,8.28,8.28,0,0,0,2.133-5.59c-.018-4.568-2.6-7.448-6.747-7.448Zm33.291,0V24.665H102.32V20.349H90.481v-5.7h10.4V10.388l-10.4.011V5.787h11.3l0-4.244H85.894Zm-28.6,4.2h3.461c2.685,0,3.78.882,3.783,3.048a3.605,3.605,0,0,1-.788,2.635,3.288,3.288,0,0,1-2.431.817l-4.025,0v-6.5ZM41.5,7.125,44.061,15.8H38.888L41.5,7.125Z" transform="translate(0 0)" fill="#c00"/></g></svg>