<svg width="88" height="42" viewBox="0 0 88 42" fill="none" xmlns="http://www.w3.org/2000/svg">
<path d="M79.097 22.3366H78.7526V28.2889H74.4785V13.4688L78.7526 6.7876V20.6157C79.6034 19.573 82.4698 15.6149 82.4698 15.6149H87.7466L82.7432 20.9092L87.9188 28.2991H82.5204L79.097 22.3366ZM67.1861 21.3648L68.9383 15.6554H73.1719L68.209 28.2485C66.7303 32.0345 64.6135 34.5956 61.4534 34.5956C60.238 34.5956 59.2151 34.2818 58.6783 33.9782L60.3798 31.3461C60.633 31.3765 60.8964 31.3866 61.1597 31.3866C62.6182 31.3866 63.712 29.9694 64.421 28.2889L59.2151 15.6554H64.0058L65.8796 21.2939C66.2442 22.367 66.5075 24.4118 66.5075 24.4118C66.5075 24.4118 66.8418 22.4379 67.1861 21.3648ZM54.2724 21.0712C54.2724 19.4211 53.5433 18.6417 52.1556 18.6417C51.4771 18.6417 50.7681 18.834 50.2819 19.1276V28.2889H46.0078V15.7768L50.1908 15.4327L50.0894 17.4775H50.2313C51.1327 16.2628 52.662 15.3416 54.4852 15.3416C56.6729 15.3416 58.5668 16.6981 58.5668 19.9071V28.2889H54.2724V21.0712ZM33.7727 27.6411L34.1576 24.7257C35.4945 25.3837 37.0037 25.6975 38.2697 25.6975C39.1914 25.6975 39.799 25.3837 39.799 24.8269C39.799 23.2275 34.0361 23.6122 34.0361 19.4313C34.0361 16.7588 36.4871 15.3517 39.556 15.3517C41.0853 15.3517 42.6654 15.7668 43.6884 16.1312L43.2731 18.996C42.1995 18.5809 40.741 18.1963 39.5256 18.1963C38.7761 18.1963 38.1684 18.4595 38.1684 18.9453C38.1684 20.5246 44.053 20.2107 44.053 24.2904C44.053 27.0033 41.6425 28.5623 38.3406 28.5623C36.5175 28.5623 35.0387 28.2485 33.7727 27.6411Z" fill="#6F7276"/>
<path d="M13.8052 41.4418L0.272461 31.9899V10.0131C0.272461 10.0131 5.33315 8.17957 13.8052 8.17957V41.4418Z" fill="#DBDBDB"/>
<path d="M13.8236 8.17957C13.8173 8.17957 13.8114 8.17974 13.8052 8.17957V41.4137H13.8054L27.2191 31.9894V10.0131C27.2191 10.0131 22.2956 8.17957 13.8236 8.17957Z" fill="#C6C6C6"/>
<path d="M21.1277 36.2707L19.9866 26.3445H13.7148C13.7148 34.223 13.7148 39.263 13.7148 41.4649L13.8052 41.5503C16.2452 39.8794 18.686 38.1197 21.1277 36.2707Z" fill="#949494"/>
<path d="M6.48633 36.3492L13.8049 41.5504L13.8085 26.0424H7.47029L6.48633 36.3492Z" fill="#A7A7A7"/>
<path d="M16.937 33.4108C16.937 35.1162 15.3205 35.9616 13.8374 35.9616C12.3544 35.9616 10.7051 35.1162 10.7051 33.4108" fill="#D6D5D5"/>
<path d="M13.8208 34.2929C12.6302 34.2929 12.0513 33.4323 12.0513 31.663H12.619C12.619 33.7344 13.4305 33.7344 13.8208 33.7344C14.211 33.7344 15.0227 33.7344 15.0227 31.663H15.5902C15.5902 33.4323 15.0112 34.2929 13.8208 34.2929Z" fill="#7F8184"/>
<path d="M13.8052 32.0946C14.1715 33.0437 14.8795 33.5181 15.9293 33.5181C16.9571 33.5181 18.0297 32.9851 18.5182 31.668C19.2004 29.8257 19.1935 27.2613 19.1935 27.2613C19.1935 27.2613 22.2252 23.5229 22.2252 22.2588C22.2252 22.2588 19.4185 22.2588 13.8052 22.2588V32.0946Z" fill="#AAAAAA"/>
<path d="M5.2627 22.2588C5.2627 23.7227 8.26815 27.2613 8.26815 27.2613C8.26815 27.2613 8.26076 29.8249 8.94368 31.668C9.43105 32.9842 10.5047 33.5181 11.5327 33.5181C12.5826 33.5181 13.3399 33.0437 13.8049 32.0946V22.2588H5.2627Z" fill="#C8C8C8"/>
<path d="M21.8632 13.8415C19.5261 11.4812 18.9416 6.55945 18.9416 6.55945C18.5053 8.11025 17.5569 12.6828 17.5569 12.6828C17.5569 12.6828 15.7147 12.096 13.7306 12.093C13.6653 12.093 13.6653 18.2538 13.7306 30.5755L15.6195 29.2305L15.9707 22.7039L17.9821 24.9644L20.5732 25.7103C20.5732 25.7103 21.5427 25.0294 21.5427 25.0319C21.9542 24.4641 22.0908 23.9804 22.1903 23.7294C22.5502 22.8161 21.7422 15.8324 21.7422 15.8324C21.4553 15.2409 21.8632 13.8415 21.8632 13.8415Z" fill="#949494"/>
<path d="M10.1023 12.6825C10.1023 12.6825 9.15351 8.11006 8.71757 6.55908C8.71757 6.55908 8.1334 11.4808 5.79597 13.8411C5.79597 13.8411 6.20386 15.2408 5.91697 15.832C5.91697 15.832 5.10895 22.8161 5.4688 23.7279C5.56819 23.9791 5.70582 24.4626 6.11685 25.0304C6.11685 25.0279 7.08688 25.709 7.08688 25.709L9.67744 24.963L11.6884 22.7029L12.0405 29.2295L13.8067 30.5388V12.0583C11.8151 12.0616 10.1023 12.6825 10.1023 12.6825Z" fill="#A7A7A7"/>
<path d="M20.2278 1.99837C20.6156 2.71018 23.9489 9.29069 23.9489 11.5695L22.4705 15.536C22.7206 17.7741 23.2181 22.6372 22.8425 23.5873C22.6107 24.1749 21.7269 25.3839 20.971 26.3629L22.0045 35.6539L20.6074 36.6449L19.8306 29.8562C19.7239 30.545 19.5633 31.2806 19.3185 31.9412C18.9949 32.8155 18.423 33.4781 17.6914 33.8705C17.6486 35.9665 15.6861 37.0973 13.8371 37.0973C11.9728 37.0973 9.99396 35.9674 9.95037 33.8722C9.21727 33.4789 8.64468 32.8164 8.32066 31.9412C8.0856 31.3061 7.92732 30.6031 7.81999 29.9372L7.07691 36.7696L5.67227 35.7626L6.68664 26.3912C5.9248 25.4079 5.02404 24.1809 4.78999 23.5868C4.41443 22.6364 4.89251 17.7741 5.14301 15.5356L3.57666 11.4302V11.2964C3.57666 9.01756 6.99737 2.71018 7.38568 1.99837L8.49352 0C9.16808 4.63003 9.50509 6.94709 9.50455 6.95118L10.0501 10.7031L10.7678 11.8652C11.4574 11.636 12.628 11.3176 13.8134 11.3176C15.0002 11.3176 16.1788 11.637 16.8714 11.8659L17.5887 10.7033L19.1429 0L20.2278 1.99837ZM13.8371 35.6075C14.6555 35.6075 15.821 35.2431 16.1119 34.277C16.0807 34.2779 16.0506 34.2804 16.0194 34.2804C15.8602 34.2804 15.7112 34.2657 15.5667 34.2462C15.1447 34.8244 14.487 34.9999 13.8208 34.9999C13.1558 34.9999 12.4995 34.8228 12.0781 34.2455C11.9327 34.2659 11.7821 34.2804 11.6216 34.2804C11.5909 34.2804 11.5614 34.2779 11.5312 34.277C11.8252 35.2431 13.0064 35.6075 13.8371 35.6075ZM12.8788 34.0196C13.1326 34.2068 13.4462 34.311 13.8215 34.311C14.1946 34.311 14.5068 34.2061 14.7602 34.0196C14.5581 33.9311 14.3753 33.8257 14.214 33.7105C14.0681 33.7531 13.9284 33.7522 13.8207 33.7522C13.7125 33.7522 13.5713 33.7522 13.4242 33.7096C13.2634 33.8257 13.0808 33.9311 12.8788 34.0196ZM18.6938 26.8119C19.6993 25.5824 21.213 23.6022 21.4322 23.048C21.5976 22.4774 21.3155 18.6948 20.9566 15.5244L20.9368 15.3486L21.2335 14.561C20.2554 13.5344 19.5729 12.1274 19.1067 10.7989L19.0461 11.2162L17.5017 13.7152L16.8985 13.4622C16.8837 13.4558 15.3091 12.8067 13.8144 12.8067C12.3102 12.8067 10.761 13.4553 10.7458 13.4617L10.1417 13.7168L8.59548 11.2168L8.54966 10.8966C8.0784 12.2121 7.39528 13.5943 6.42174 14.5986L6.70512 15.3491L6.68535 15.5251C6.32623 18.6948 6.04414 22.4774 6.21502 23.0623C6.42876 23.6031 7.94265 25.5833 8.94761 26.8119L9.11532 27.0171L9.11443 27.2801C9.11443 27.3048 9.11736 29.737 9.74432 31.4297C10.1996 32.6574 11.2093 32.7886 11.6229 32.7886C12.6626 32.7886 13.1024 31.8494 13.1206 31.8095C13.3642 31.3375 13.486 30.5622 13.486 29.4835H14.1146C14.1146 30.3501 14.2457 31.1272 14.5077 31.8145C14.5236 31.8485 14.9746 32.791 16.0194 32.791C16.432 32.791 17.4422 32.6583 17.897 31.4306C18.526 29.732 18.5268 27.3048 18.5268 27.281L18.526 27.018L18.6938 26.8119Z" fill="#6F7276"/>
<path d="M18.5224 20.2009H16.252H15.4954V20.2324C15.4954 21.2728 16.4094 22.1157 17.4816 22.1157C18.5542 22.1157 19.4682 21.2726 19.4682 20.2324V20.2009H18.5224Z" fill="#6F7176"/>
<path d="M16.252 20.2009V20.2324C16.252 20.8513 16.7582 21.3528 17.3874 21.3528C18.0165 21.3528 18.5225 20.8513 18.5225 20.2324V20.2009H16.252Z" fill="white"/>
<path d="M17.2056 20.2009C17.2004 20.2009 17.196 20.2035 17.1913 20.2044C17.2574 20.218 17.2939 20.3653 17.2797 20.4632C17.2584 20.613 17.1287 20.7169 16.9802 20.7195C17.0235 20.9153 17.1857 21.0727 17.401 21.1025C17.6763 21.1409 17.9307 20.9551 17.9696 20.6845C17.9978 20.4852 17.9003 20.2009 17.7376 20.2009H17.2056Z" fill="#6F7176"/>
<path d="M11.2153 20.2009H8.94533H8.18848V20.2324C8.18848 21.2728 9.10271 22.1157 10.1747 22.1157C11.2473 22.1157 12.1615 21.2726 12.1615 20.2324V20.2009H11.2153Z" fill="#6F7176"/>
<path d="M8.94531 20.2009V20.2324C8.94531 20.8513 9.45181 21.3528 10.0801 21.3528C10.7095 21.3528 11.2155 20.8513 11.2155 20.2324V20.2009H8.94531Z" fill="white"/>
<path d="M10.4311 20.2009H9.89845C9.89383 20.2009 9.88884 20.2035 9.88466 20.2044C9.95041 20.218 9.9868 20.3653 9.97292 20.4632C9.95148 20.613 9.82256 20.7169 9.6731 20.7195C9.71687 20.9153 9.87906 21.0727 10.0941 21.1025C10.3692 21.1409 10.6242 20.9551 10.6625 20.6845C10.691 20.4852 10.5938 20.2009 10.4311 20.2009Z" fill="#6F7176"/>
<path d="M18.2939 19.3126C18.421 19.1755 19.5 17.9708 18.0568 17.9708C16.7528 17.9708 15.8146 19.0061 15.5659 19.3126H18.2939Z" fill="#7F8184"/>
<path d="M12.0693 19.3126C11.8208 19.0061 10.8826 17.9708 9.5781 17.9708C8.13575 17.9708 9.21476 19.1755 9.34109 19.3126H12.0693Z" fill="#D6D5D5"/>
<path d="M5.13135 11.1751C5.21706 9.99304 6.46678 7.16084 7.65887 4.77405L7.97662 6.95639C7.85543 7.77231 7.3016 10.9724 5.81597 12.9895L5.13135 11.1751Z" fill="#D6D5D5"/>
<path d="M19.6897 6.78639L19.9825 4.77417C21.1744 7.16077 22.4248 9.99316 22.5105 11.1752L21.842 12.9465C20.2368 10.726 19.7333 7.11629 19.6897 6.78639Z" fill="#AAAAAA"/>
<mask id="mask0_17133_1318" style="mask-type:alpha" maskUnits="userSpaceOnUse" x="11" y="28" width="6" height="4">
<path d="M12.7076 30.8088C12.1478 30.3909 11.5735 29.8635 11.5735 29.4589C11.5735 29.1932 12.0511 28.3741 12.0511 28.3741H15.602C15.602 28.3741 16.0677 29.1003 16.0677 29.4589C16.0677 29.8356 15.4881 30.3484 14.9097 30.7664C14.7128 30.4329 14.4623 30.3749 14.3465 30.6378C14.2868 30.7741 14.2751 30.9702 14.3043 31.1755C13.9892 31.3757 13.7591 31.5048 13.7591 31.5048C13.7591 31.5048 13.5813 31.4025 13.3272 31.2381C13.3681 31.0106 13.3603 30.7878 13.2943 30.6378C13.1776 30.3714 12.9221 30.4345 12.7237 30.78C12.7182 30.7895 12.7129 30.7991 12.7076 30.8088Z" fill="white"/>
</mask>
<g mask="url(#mask0_17133_1318)">
<path d="M12.7076 30.8088C12.1478 30.3909 11.5735 29.8635 11.5735 29.4589C11.5735 29.1932 12.0511 28.3741 12.0511 28.3741H15.602C15.602 28.3741 16.0677 29.1003 16.0677 29.4589C16.0677 29.8356 15.4881 30.3484 14.9097 30.7664C14.7128 30.4329 14.4623 30.3749 14.3465 30.6378C14.2868 30.7741 14.2751 30.9702 14.3043 31.1755C13.9892 31.3757 13.7591 31.5048 13.7591 31.5048C13.7591 31.5048 13.5813 31.4025 13.3272 31.2381C13.3681 31.0106 13.3603 30.7878 13.2943 30.6378C13.1776 30.3714 12.9221 30.4345 12.7237 30.78C12.7182 30.7895 12.7129 30.7991 12.7076 30.8088Z" fill="#6F7276"/>
</g>
</svg>
