<svg width="62" height="23" viewBox="0 0 62 23" fill="none" xmlns="http://www.w3.org/2000/svg">
<g style="mix-blend-mode:multiply">
<path d="M7.94477 4.82436C3.62429 4.82436 0 6.4813 0 11.4522C0 15.392 2.41619 17.8774 8.04715 17.8774C14.661 17.8958 15.091 13.9744 15.091 13.9744H11.8762C11.8762 13.9744 11.18 16.0916 7.84239 16.0916C5.11906 16.0916 3.15334 14.4347 3.15334 12.1149H15.4186V10.6605C15.4186 8.35918 13.801 4.82436 7.94477 4.82436V4.82436ZM7.82192 6.68382C10.4224 6.68382 12.1834 8.11984 12.1834 10.2555H3.23524C3.23524 7.99097 5.54906 6.68382 7.82192 6.68382Z" fill="#E62E35"/>
<path d="M15.419 0V15.3912C15.419 16.2565 15.3575 17.49 15.3575 17.49H18.4085C18.4085 17.49 18.5109 16.6063 18.5109 15.7962C18.5109 15.7962 20.0261 17.9135 24.1418 17.9135C28.4623 17.9135 31.4109 15.2071 31.4109 11.3409C31.4109 7.73243 28.708 4.84197 24.1418 4.84197C19.8623 4.84197 18.5518 6.92236 18.5518 6.92236V0H15.419ZM23.3637 6.77508C26.3123 6.77508 28.1757 8.74501 28.1757 11.3593C28.1757 14.1761 26.0257 16.0356 23.3842 16.0356C20.2514 16.0356 18.5518 13.8263 18.5518 11.3961C18.5518 9.11322 20.0671 6.77508 23.3637 6.77508V6.77508Z" fill="#0264D3"/>
<path d="M39.0088 4.82436C32.4974 4.82436 32.0674 8.02778 32.0674 8.54328H35.3026C35.3026 8.54328 35.4664 6.66541 38.7631 6.66541C40.9131 6.66541 42.5717 7.54911 42.5717 9.24288V9.85042H38.7631C33.726 9.85042 31.0436 11.176 31.0436 13.8639C31.0436 16.515 33.5007 17.951 36.8383 17.951C41.384 17.951 42.8378 15.6866 42.8378 15.6866C42.8378 16.5887 42.9197 17.4724 42.9197 17.4724H45.8478C45.8478 17.4724 45.7455 16.3677 45.7455 15.6681V9.6295C45.725 5.67124 42.1621 4.82436 39.0088 4.82436V4.82436ZM42.5921 11.6547V12.4647C42.5921 13.5141 41.8755 16.1284 37.6369 16.1284C35.3231 16.1284 34.3198 15.079 34.3198 13.8823C34.3198 11.6731 37.6779 11.6547 42.5921 11.6547V11.6547Z" fill="#F5B100"/>
<path d="M43.9843 5.3215H47.629L52.8709 14.7477L58.0924 5.3215H61.389L51.8676 22.112H48.4071L51.1509 17.4357L43.9843 5.3215V5.3215Z" fill="#87BA10"/>
</g>
</svg>
