<svg width="67" height="67" viewBox="0 0 67 67" fill="none" xmlns="http://www.w3.org/2000/svg">
<path d="M33.5 0C14.9991 0 0 14.9971 0 33.5C0 52.0029 14.9991 67 33.5 67C52.0009 67 67 52.0009 67 33.5C67 14.9991 52.0009 0 33.5 0ZM33.5 62.6985C28.2364 62.6985 23.9689 59.1827 23.9689 54.8451H43.031C43.031 59.1807 38.7616 62.6985 33.5 62.6985ZM49.2428 52.2454H17.7532V46.5328H49.2227V52.2454H49.2428ZM49.1305 43.5963H17.8454L17.5347 43.2355C14.3116 39.3209 13.5519 37.2783 12.8163 35.1978C12.8043 35.1296 16.7249 35.9995 19.5051 36.6249C20.6738 36.887 21.848 37.1242 23.0269 37.3365C21.0184 34.9833 19.8258 31.9907 19.8258 28.9319C19.8258 22.2171 24.9772 16.3481 23.1171 11.6056C24.925 11.752 26.8593 15.4221 26.9896 21.1607C28.9139 18.5049 29.7156 13.6522 29.7156 10.6776C29.7156 7.59678 31.7461 4.01888 33.7746 3.89661C31.9646 6.8792 34.2436 9.43684 36.2681 15.7789C37.0298 18.1641 36.9296 22.173 37.5169 24.7126C37.7113 19.4309 38.6193 11.7239 41.9707 9.06603C40.4934 12.4134 42.1912 16.6087 43.3498 18.6231C45.2219 21.8743 46.3564 24.3358 46.3564 28.9981C46.3564 32.125 45.2038 35.0635 43.2575 37.3625C45.4704 36.9476 46.9978 36.5728 46.9978 36.5728L54.1817 35.1697C54.1817 35.1697 53.1394 39.4592 49.1265 43.5963H49.1305Z" fill="#DA4E31"/>
</svg>
