<svg id="Layer_1" xmlns="http://www.w3.org/2000/svg" width="250" height="153" viewBox="-274 324 250 153"><style>.st0{fill:#9fa4a6}.st1{fill:#fff}</style><path class="st0" d="M-139 455.6v21.3c12.5.1 25 0 37.5.1v-27.4c22 0 43.9-.1 65.9 0v-22.8H-24v-50.6h-11.6v-26.8h-65.9V324c-12.6 0-25.1-.1-37.6 0v17.7h-28.7v23.6h-8.9v-33.7c-14.5-.1-29 0-43.5 0v23.5h-42.3v21.1H-274v50.6h53.8v13.6h17.9c0 5.1 0 10.2-.1 15.3h63.3"/><path class="st1" d="M-253.5 385.9v30.8h4.2v-25c3.6 8.3 6.9 16.7 10.3 25h2.8c3.5-8.3 6.8-16.7 10.3-25l.1 25.1h4.3v-30.7c-2.1 0-4.1 0-6.2-.1-3.4 7.7-6.4 15.6-9.8 23.3-3.3-7.8-6.5-15.5-9.7-23.3-2.1-.2-4.2-.2-6.3-.1zm117 0v30.8h4.3v-25c3.6 8.3 6.9 16.7 10.3 25h2.8c3.5-8.3 6.8-16.8 10.3-25.1l.1 25.1h4.2c-.1-10.2 0-20.5 0-30.7-2.1 0-4.1 0-6.1-.1-3.4 7.7-6.4 15.6-9.8 23.3-3.2-7.8-6.5-15.5-9.7-23.3-2.2-.1-4.3-.1-6.4 0zm73.7-.1v30.8h4c.2-4.6-.5-9.2.4-13.7 1.1-4.6 9-5.2 9.7-.1.4 4.6 0 9.2.1 13.8h4c0-3.4.1-7.7 0-11.2-.1-2.2-.1-4.1-.5-5.4-1.8-5.8-9-4.4-13.7-4.5 0-3.2 0-6.5-.1-9.7h-3.9zm-104.7 3.1v3.9h4v-4c-1.3 0-2.7 0-4 .1zm91.3 1.4v5.7h-4.5c0 1.2-.1 2.3-.1 3.5h4.5c.2 4.8-.5 9.7.4 14.5 1.3 3.8 6.1 3.6 9.3 2.7v-3.5c-6.7 2.6-5.9-4.3-5.8-13.7h5.6V396h-5.6v-5.7h-3.8zm-91.3 5.6v20.7h4c-.1-6.9 0-13.8 0-20.6-1.4-.1-2.7-.1-4-.1zm-48.2 4.5c-3 4.8-1.8 12 3.1 15.2 4.8 3 11.5 1.7 15.2-2.5l-3-2.4c-3.3 5.1-12.2 3.4-12.8-2.8 5.6-.1 11.1 0 16.7 0 0-3.1-.3-6.3-2.3-8.8-4.3-5.5-13.6-4.5-16.9 1.3zm2.4 4.2c.4-7.5 12.6-7.9 12.6 0h-12.6zm36.8-18.7c0 4.3-.1 8.6.1 12.8-4-4.5-11.8-4.2-15.4.5-4.1 5.1-2.8 14.3 3.8 16.6 5 1.5 10.4.4 15.5.7v-30.7c-1.4 0-2.7 0-4 .1zm-9.1 13.7c4.3-1.7 9.3 1.8 9.1 6.5.6 4.6-4.1 8.6-8.6 7.2-6.2-1.5-6.5-11.8-.5-13.7zm27.1-1.3c.7.9 1.4 1.8 2.2 2.6 3.5-3.3 11.1-3.3 11.1 2.8-4.2.1-9.1-.2-12.5 2.7-3.1 2.6-2.4 8.5 1.8 9.7 4.6 1.2 9.4.6 14.2.6 0-5.5.9-13.8-.4-16.7-2.8-6.3-11.8-5.2-16.4-1.7zm3.1 13.6c-1.1-5.6 6.5-5.2 10.1-5.2 1.5 5.6-6.7 10.2-10.1 5.2zm54.8-13.6c.7.9 1.4 1.8 2.2 2.6 3.5-3.3 11.1-3.3 11.1 2.8-4.2.1-9.1-.2-12.5 2.7-3.1 2.6-2.4 8.5 1.8 9.7 4.6 1.2 9.4.6 14.2.6 0-5.5.9-13.8-.4-16.7-2.9-6.3-11.8-5.2-16.4-1.7zm3.1 13.6c-1.1-5.6 6.5-5.2 10.1-5.2 1.4 5.6-6.7 10.2-10.1 5.2z"/></svg>