<svg xmlns="http://www.w3.org/2000/svg" width="250" height="153.006" viewBox="0 0 250 153.006"><path d="M134.95.026c12.52-.05 25.03-.01 37.55-.02 0 8.48 0 16.95-.01 25.42.03 8.92-.01 17.85.03 26.77-12.53.02-25.06 0-37.58.01-.01-3.62-.01-7.23-.01-10.84.02-7.9 0-15.8.01-23.7.01-5.88-.03-11.76.01-17.64zm-.01 102.78c12.52 0 25.05.01 37.58 0-.04 7.6 0 15.2-.03 22.81.01 9.13.03 18.26-.01 27.39-12.51-.09-25.02-.01-37.53-.05-.03-7.09 0-14.18-.02-21.27.01-9.63.01-19.25.01-28.88z" fill="#F93"/><path d="M53.82 7.636c14.49 0 28.97-.06 43.45.02.04 11.24.04 22.47 0 33.71-8.52-.01-17.05.02-25.57-.02.01 3.62.01 7.23.01 10.85-5.97-.01-11.94.05-17.91-.05 0-7 .01-14 0-21 .02-7.84-.02-15.68.02-23.51zm-.01 95.17c5.97.01 11.93 0 17.9.01-.01 4.54 0 9.08.01 13.62-5.97.02-11.93.01-17.89 0-.05-4.54-.03-9.09-.02-13.63z" fill="#F36"/><path fill="#639" d="M106.17 17.666c9.59.02 19.18 0 28.77 0-.01 7.9.01 15.8-.01 23.7h-28.76c.05-7.9.04-15.8 0-23.7z"/><path d="M172.49 25.426c21.98.01 43.96.03 65.95-.01-.03 8.92 0 17.85-.02 26.77-21.97 0-43.94-.01-65.9.01-.04-8.92 0-17.85-.03-26.77zm.03 77.38c21.96-.01 43.93-.01 65.89 0 .03 7.61.02 15.22.01 22.83-21.98-.05-43.95-.01-65.93-.02.03-7.61-.01-15.21.03-22.81z" fill="#F03333"/><path fill="#693" d="M11.5 31.136c14.1.03 28.2.01 42.3.01.01 7 0 14 0 21-14.09-.07-28.19-.07-42.29.01-.02-7.01.01-14.01-.01-21.02z"/><path d="M71.7 41.346c8.52.04 17.05.01 25.57.02h37.66c0 3.61 0 7.22.01 10.84-21.08-.01-42.16.01-63.23-.01 0-3.62 0-7.23-.01-10.85zm.01 61.47c21.08-.02 42.15 0 63.23-.01 0 9.63 0 19.25-.01 28.88-21.09.01-42.19-.03-63.28.02.12-5.09.05-10.18.07-15.27-.01-4.54-.02-9.08-.01-13.62z" fill="#6CF"/><path fill="#334B8C" d="M0 52.186h250v50.61H0z"/><path d="M20.543 61.851c-.05 10.25-.01 20.51-.02 30.77 1.39 0 2.79 0 4.19-.01l.03-25.03c3.6 8.28 6.86 16.7 10.34 25.03.7 0 2.1-.01 2.8-.01 3.48-8.32 6.84-16.7 10.28-25.04l.08 25.06c1.06-.01 3.19-.02 4.26-.02-.05-10.24-.01-20.49-.02-30.73-2.06-.04-4.12-.04-6.18-.07-3.36 7.73-6.38 15.6-9.8 23.3-3.26-7.76-6.54-15.5-9.73-23.28-2.08.02-4.16 0-6.23.03zm116.98 0c-.02 10.26.01 20.51-.01 30.76 1.42.01 2.84.01 4.26 0l-.01-25.01c3.61 8.26 6.85 16.68 10.34 25 .7 0 2.1 0 2.8.01 3.54-8.32 6.78-16.75 10.34-25.06l.05 25.08 4.21-.04c-.05-10.24-.01-20.48-.02-30.72-2.05-.04-4.1-.04-6.14-.07-3.4 7.71-6.38 15.6-9.83 23.29-3.25-7.75-6.53-15.49-9.71-23.27-2.09.02-4.19-.01-6.28.03zm73.68-.04l-.03 30.8c1.34.01 2.68.01 4.02.02.18-4.56-.48-9.21.38-13.71 1.07-4.61 8.97-5.24 9.74-.13.37 4.59.03 9.22.13 13.82 1.33.01 2.66.01 4 0 0-3.398.092-7.68 0-11.236-.056-2.184-.119-4.094-.5-5.354-1.764-5.846-8.99-4.42-13.74-4.5.03-3.23 0-6.46-.05-9.69-1.32 0-2.64-.01-3.95-.02zm-104.68 3.04c-.02 1.29-.03 2.59-.03 3.89 1.33 0 2.66 0 4-.01 0-1.32-.01-2.64 0-3.97-1.33.03-2.65.05-3.97.09zm91.23 1.41l.03 5.65c-1.49.02-2.98.03-4.46.04-.03 1.16-.05 2.31-.07 3.47 1.51 0 3.03 0 4.54.01.18 4.81-.49 9.72.36 14.47 1.32 3.82 6.14 3.6 9.33 2.69.01-1.17.02-2.34.04-3.51-6.705 2.628-5.872-4.33-5.78-13.66 1.87 0 3.75 0 5.63.01-.01-.87-.02-2.61-.02-3.48-1.87-.01-3.73-.03-5.59-.03v-5.65c-1.34-.01-2.67-.02-4.01-.01zm-91.23 5.68c-.04 6.89.01 13.79-.03 20.69 1.34-.01 2.67-.02 4.01-.04-.05-6.88.01-13.76-.04-20.64-1.32-.01-2.63-.02-3.94-.01zm-48.24 4.45c-2.97 4.84-1.84 12.03 3.1 15.15 4.82 3.01 11.5 1.71 15.17-2.53-1.02-.79-2.03-1.58-3.03-2.38-3.34 5.07-12.18 3.4-12.8-2.85 5.56-.06 11.12-.02 16.67-.03-.04-3.05-.31-6.35-2.34-8.8-4.11-5.36-13.5-4.31-16.77 1.44zm2.43 4.19c.44-7.47 12.58-7.91 12.6 0-4.2.03-8.4.04-12.6 0zm36.78-18.73c.01 4.28-.06 8.56.08 12.84-3.99-4.46-11.78-4.23-15.42.54-4.1 5.1-2.76 14.31 3.82 16.63 5.01 1.52 10.36.45 15.52.74l-.03-30.73c-1.33-.03-2.65-.04-3.97-.02zm-9.05 13.7c4.29-1.69 9.34 1.82 9.07 6.47.56 4.6-4.1 8.59-8.57 7.24-6.24-1.5-6.55-11.76-.5-13.71zm27.04-1.23c.71.9 1.45 1.77 2.22 2.62 3.49-3.32 11.12-3.28 11.14 2.8-4.23.06-9.05-.25-12.47 2.68-3.11 2.58-2.36 8.54 1.75 9.65 4.63 1.16 9.397.55 14.22.55 0-5.539.933-13.787-.43-16.7-2.86-6.22-11.78-5.17-16.43-1.6zm3.16 13.56c-1.08-5.56 6.49-5.2 10.14-5.21 1.37 5.65-6.8 10.22-10.14 5.21zm54.729-13.56c.71.9 1.45 1.77 2.22 2.62 3.49-3.32 11.12-3.28 11.14 2.8-4.23.06-9.05-.25-12.47 2.68-3.11 2.58-2.36 8.54 1.75 9.65 4.63 1.16 9.397.55 14.22.55 0-5.539.933-13.787-.43-16.7-2.86-6.22-11.78-5.17-16.43-1.6zm3.16 13.56c-1.08-5.56 6.49-5.2 10.14-5.21 1.37 5.65-6.8 10.22-10.14 5.21z" fill="#FFF"/></svg>