<svg width="376" height="109" viewBox="0 0 376 109" fill="none" xmlns="http://www.w3.org/2000/svg">
<path d="M364 47.3481C364 59.1769 356.274 66.6233 344 66.6233C331.726 66.6233 324 59.1769 324 47.3481C324 34.6545 338.338 17.5182 342.735 12.5615C342.891 12.3855 343.085 12.2441 343.304 12.1472C343.522 12.0503 343.76 12.0001 344.001 12C344.241 12 344.479 12.0502 344.698 12.1471C344.916 12.244 345.11 12.3854 345.267 12.5615C349.663 17.5182 364 34.6545 364 47.3481Z" stroke="#08703E" stroke-width="3" stroke-miterlimit="10" stroke-linecap="square"/>
<path d="M354 44C354 46.556 352.946 49.0073 351.071 50.8147C349.196 52.6221 346.652 53.6375 344 53.6376" stroke="#08703E" stroke-width="3" stroke-linecap="round" stroke-linejoin="round"/>
<path d="M25.4219 61.2451L11.6777 29.2764L10.5273 26.2188L10.7393 37.1777V64H5.83496V19.2256H12.6162L28.207 54.8877L43.6465 19.2256H50.2461V64H45.1602V37.0566L45.3721 26.3398L44.252 29.3975L30.5381 61.2451H25.4219ZM79.0361 36.9355C77.5628 35.1595 75.5345 34.2715 72.9512 34.2715C70.3678 34.2715 68.2588 35.1898 66.624 37.0264C64.9893 38.8428 64.0306 41.3353 63.748 44.5039H81.2764C81.2764 41.2142 80.5296 38.6914 79.0361 36.9355ZM73.9502 64.6963C69.1266 64.6963 65.3223 63.1624 62.5371 60.0947C59.7721 57.027 58.3896 52.8291 58.3896 47.501C58.3896 42.3545 59.7318 38.1868 62.416 34.998C65.1003 31.7891 68.6322 30.1543 73.0117 30.0938C77.1289 30.0938 80.3883 31.5065 82.79 34.332C85.2119 37.1374 86.4229 40.8913 86.4229 45.5938C86.4229 45.8359 86.4128 46.2799 86.3926 46.9258C86.3926 47.5716 86.3926 48.0358 86.3926 48.3184H63.5967C63.6572 52.0924 64.626 55.0391 66.5029 57.1582C68.4001 59.2572 70.943 60.3066 74.1318 60.3066C77.6436 60.3066 81.1654 59.3783 84.6973 57.5215L85.4844 61.6084C82.1139 63.667 78.2692 64.6963 73.9502 64.6963ZM104.042 64.6055C100.772 64.6055 98.4515 63.8083 97.0791 62.2139C95.7067 60.6195 94.9801 58.0462 94.8994 54.4941V34.5439H89.9648L90.1768 31.2139L94.8691 30.79L96.5947 23.1914L99.9248 23.0703V30.79H109.158V34.5439H99.9248V53.5859C99.9248 56.1087 100.308 57.8848 101.075 58.9141C101.842 59.9434 103.154 60.458 105.011 60.458C105.677 60.458 107.12 60.2965 109.34 59.9736L109.552 63.9697C107.15 64.3936 105.313 64.6055 104.042 64.6055ZM134.073 36.9355C132.6 35.1595 130.572 34.2715 127.988 34.2715C125.405 34.2715 123.296 35.1898 121.661 37.0264C120.026 38.8428 119.068 41.3353 118.785 44.5039H136.313C136.313 41.2142 135.567 38.6914 134.073 36.9355ZM128.987 64.6963C124.164 64.6963 120.359 63.1624 117.574 60.0947C114.809 57.027 113.427 52.8291 113.427 47.501C113.427 42.3545 114.769 38.1868 117.453 34.998C120.137 31.7891 123.669 30.1543 128.049 30.0938C132.166 30.0938 135.425 31.5065 137.827 34.332C140.249 37.1374 141.46 40.8913 141.46 45.5938C141.46 45.8359 141.45 46.2799 141.43 46.9258C141.43 47.5716 141.43 48.0358 141.43 48.3184H118.634C118.694 52.0924 119.663 55.0391 121.54 57.1582C123.437 59.2572 125.98 60.3066 129.169 60.3066C132.681 60.3066 136.202 59.3783 139.734 57.5215L140.521 61.6084C137.151 63.667 133.306 64.6963 128.987 64.6963ZM163.378 30.4873C164.286 30.4873 165.114 30.5479 165.86 30.6689L165.679 35.3311C164.75 35.1696 163.943 35.0889 163.257 35.0889C160.431 35.0889 158.131 36.0778 156.354 38.0557C154.599 40.0133 153.721 42.4453 153.721 45.3516V64H148.665C148.645 43.6159 148.635 32.5459 148.635 30.79H152.843L153.327 36.7539C154.478 34.877 155.941 33.3633 157.717 32.2129C159.493 31.0625 161.38 30.4873 163.378 30.4873ZM186.174 34.3018C182.965 34.3018 180.503 35.4118 178.787 37.6318C177.092 39.8317 176.244 43.071 176.244 47.3496C176.244 56.1087 179.544 60.4883 186.144 60.4883C187.778 60.4883 189.211 60.1553 190.442 59.4893C191.694 58.8031 192.673 57.8545 193.379 56.6436C194.105 55.4124 194.64 54.0299 194.983 52.4961C195.347 50.9622 195.528 49.2568 195.528 47.3799C195.528 44.8369 195.226 42.6169 194.62 40.7197C194.035 38.8226 193.026 37.2786 191.593 36.0879C190.16 34.8971 188.354 34.3018 186.174 34.3018ZM186.688 30.0938C189.635 30.0938 192.178 30.8405 194.317 32.334C196.457 33.8275 198.061 35.8558 199.131 38.4189C200.201 40.9821 200.735 43.9186 200.735 47.2285C200.735 50.6595 200.201 53.6768 199.131 56.2803C198.081 58.8838 196.477 60.9424 194.317 62.4561C192.178 63.9495 189.615 64.6963 186.628 64.6963C184.428 64.6963 182.42 64.222 180.604 63.2734C178.787 62.3249 177.273 61.0332 176.062 59.3984L175.548 64H171.219V17.8936L176.274 17.5908V28.5801C176.274 31.2845 176.234 33.6055 176.153 35.543C177.324 33.8678 178.838 32.5459 180.694 31.5771C182.571 30.5882 184.569 30.0938 186.688 30.0938ZM211.573 47.4707C211.573 51.4062 212.441 54.5648 214.177 56.9463C215.933 59.3076 218.486 60.4883 221.836 60.4883C225.146 60.4883 227.638 59.3076 229.313 56.9463C231.009 54.585 231.856 51.4062 231.856 47.4102C231.856 43.3535 231.019 40.1647 229.344 37.8438C227.689 35.5026 225.156 34.332 221.745 34.332C218.435 34.332 215.912 35.5228 214.177 37.9043C212.441 40.2858 211.573 43.4746 211.573 47.4707ZM237.094 47.3799C237.094 52.5264 235.721 56.7041 232.977 59.9131C230.232 63.1019 226.438 64.6963 221.594 64.6963C216.932 64.6963 213.218 63.0817 210.453 59.8525C207.708 56.6234 206.336 52.4759 206.336 47.4102C206.336 42.2435 207.718 38.0658 210.483 34.877C213.248 31.6882 217.043 30.0938 221.866 30.0938C226.609 30.0938 230.333 31.6982 233.037 34.9072C235.742 38.096 237.094 42.2536 237.094 47.3799ZM253.199 64.6055C249.97 64.6055 247.679 63.7376 246.327 62.002C244.995 60.2663 244.329 57.249 244.329 52.9502V17.8936L249.354 17.5908V50.9521C249.354 52.3245 249.365 53.4245 249.385 54.252C249.425 55.0794 249.506 55.8968 249.627 56.7041C249.748 57.4912 249.91 58.0866 250.111 58.4902C250.313 58.8939 250.606 59.2673 250.989 59.6104C251.373 59.9333 251.827 60.1553 252.352 60.2764C252.896 60.3773 253.562 60.4277 254.35 60.4277C254.995 60.4277 256.267 60.3066 258.164 60.0645L258.437 64.0908C256.358 64.4339 254.612 64.6055 253.199 64.6055ZM267.488 30.79V64H262.402V30.79H267.488ZM267.488 18.7109V24.7051H262.402V18.7109H267.488ZM291.071 64.6963C286.187 64.6963 282.363 63.112 279.598 59.9434C276.853 56.7747 275.48 52.6273 275.48 47.501C275.501 42.3343 276.903 38.1465 279.688 34.9375C282.494 31.7083 286.328 30.0938 291.192 30.0938C292.908 30.0938 294.563 30.3057 296.157 30.7295C297.772 31.1533 299.043 31.7083 299.972 32.3945L298.579 36.3301C296.218 35.0586 293.725 34.4229 291.102 34.4229C287.893 34.4229 285.35 35.5934 283.473 37.9346C281.616 40.2757 280.688 43.4746 280.688 47.5312C280.688 51.487 281.606 54.6253 283.442 56.9463C285.299 59.2471 287.862 60.3975 291.132 60.3975C293.735 60.3975 296.399 59.6911 299.124 58.2783L299.76 62.3047C297.56 63.8991 294.664 64.6963 291.071 64.6963Z" fill="#0A7C45"/>
<path d="M8.12793 103.254C5.88509 103.254 3.875 102.738 2.09766 101.705L2.93555 98.9756C3.73112 99.4157 4.5944 99.7712 5.52539 100.042C6.46484 100.313 7.37891 100.448 8.26758 100.448C9.35938 100.448 10.1846 100.215 10.7432 99.75C11.3018 99.276 11.5811 98.599 11.5811 97.7188C11.5811 96.5508 10.8024 95.7425 9.24512 95.2939C9.13509 95.2601 8.82617 95.1712 8.31836 95.0273C7.81055 94.875 7.33236 94.7311 6.88379 94.5957C6.44368 94.4518 6.1263 94.3418 5.93164 94.2656C3.4349 93.3854 2.18652 91.7435 2.18652 89.3398C2.18652 87.6556 2.7832 86.3564 3.97656 85.4424C5.17839 84.5283 6.76953 84.0713 8.75 84.0713C10.9928 84.0713 12.9268 84.5326 14.5518 85.4551L13.5107 87.9688C11.8519 87.224 10.3115 86.8516 8.88965 86.8516C7.86556 86.8516 7.09115 87.0335 6.56641 87.3975C6.05013 87.7529 5.77507 88.3496 5.74121 89.1875C5.74121 90.2201 6.25326 90.8929 7.27734 91.2061C7.48047 91.2822 7.97982 91.4473 8.77539 91.7012C9.57096 91.9551 10.0872 92.1201 10.3242 92.1963C12.0254 92.7549 13.2399 93.4489 13.9678 94.2783C14.7041 95.1077 15.0723 96.263 15.0723 97.7441C15.0723 99.513 14.446 100.876 13.1934 101.832C11.9408 102.78 10.2523 103.254 8.12793 103.254ZM24.1494 103.267C21.9066 103.267 20.1589 102.623 18.9062 101.337C17.6621 100.042 17.04 98.2562 17.04 95.9795C17.04 93.762 17.6283 91.9974 18.8047 90.6855C19.9811 89.3737 21.585 88.7135 23.6162 88.7051C25.5374 88.7051 27.027 89.306 28.085 90.5078C29.1514 91.7096 29.6846 93.305 29.6846 95.2939C29.6846 95.4378 29.6803 95.6706 29.6719 95.9922C29.6719 96.3138 29.6719 96.5508 29.6719 96.7031H20.3916C20.4255 98.0065 20.7809 99.0179 21.458 99.7373C22.1436 100.448 23.083 100.804 24.2764 100.804C25.7998 100.804 27.264 100.406 28.6689 99.6104L29.1387 101.972C27.7422 102.835 26.0791 103.267 24.1494 103.267ZM20.4551 94.6084H26.5488C26.5488 93.4743 26.2907 92.6025 25.7744 91.9932C25.2581 91.3838 24.543 91.0791 23.6289 91.0791C22.7741 91.0791 22.0505 91.3753 21.458 91.9678C20.874 92.5602 20.5397 93.4404 20.4551 94.6084ZM32.4014 103V89.0479H35.0801L35.4482 90.8125C36.8701 89.4076 38.4486 88.7051 40.1836 88.7051C41.8086 88.7051 43.0231 89.1748 43.8271 90.1143C44.6396 91.0452 45.0459 92.3994 45.0459 94.1768V103H41.707V94.583C41.6986 93.4574 41.5166 92.6152 41.1611 92.0566C40.8057 91.498 40.1667 91.2188 39.2441 91.2188C38.5247 91.2188 37.8646 91.4049 37.2637 91.7773C36.6712 92.1413 36.2396 92.6025 35.9688 93.1611C35.8079 93.8213 35.7275 94.8369 35.7275 96.208V103H32.4014ZM52.7773 103.254C50.7207 103.254 49.0745 102.903 47.8389 102.2L48.1816 99.6992C48.7402 100.004 49.4512 100.279 50.3145 100.524C51.1777 100.761 51.9648 100.88 52.6758 100.88C53.4121 100.88 53.9834 100.744 54.3896 100.474C54.8044 100.194 55.016 99.7881 55.0244 99.2549C55.0244 98.7725 54.8298 98.3916 54.4404 98.1123C54.0596 97.833 53.3275 97.486 52.2441 97.0713C51.8717 96.9359 51.6305 96.847 51.5205 96.8047C50.234 96.3053 49.3073 95.751 48.7402 95.1416C48.1732 94.5238 47.8896 93.6901 47.8896 92.6406C47.8896 91.3711 48.3467 90.3978 49.2607 89.7207C50.1833 89.0436 51.4655 88.7051 53.1074 88.7051C54.8848 88.7051 56.4463 89.0394 57.792 89.708L56.9668 92.0059C55.638 91.388 54.3727 91.0791 53.1709 91.0791C52.5023 91.0791 51.9775 91.1934 51.5967 91.4219C51.2243 91.6419 51.0381 91.9805 51.0381 92.4375C51.0381 92.8691 51.2201 93.2077 51.584 93.4531C51.9479 93.6901 52.6589 94.0033 53.7168 94.3926C53.7507 94.401 53.8607 94.4391 54.0469 94.5068C54.2331 94.5745 54.377 94.6296 54.4785 94.6719C55.7565 95.1374 56.696 95.696 57.2969 96.3477C57.8978 96.9909 58.1982 97.833 58.1982 98.874C58.1898 100.271 57.7158 101.35 56.7764 102.111C55.8369 102.873 54.5039 103.254 52.7773 103.254ZM67.2881 103.267C65.0452 103.267 63.2975 102.623 62.0449 101.337C60.8008 100.042 60.1787 98.2562 60.1787 95.9795C60.1787 93.762 60.7669 91.9974 61.9434 90.6855C63.1198 89.3737 64.7236 88.7135 66.7549 88.7051C68.6761 88.7051 70.1657 89.306 71.2236 90.5078C72.29 91.7096 72.8232 93.305 72.8232 95.2939C72.8232 95.4378 72.819 95.6706 72.8105 95.9922C72.8105 96.3138 72.8105 96.5508 72.8105 96.7031H63.5303C63.5641 98.0065 63.9196 99.0179 64.5967 99.7373C65.2822 100.448 66.2217 100.804 67.415 100.804C68.9385 100.804 70.4027 100.406 71.8076 99.6104L72.2773 101.972C70.8809 102.835 69.2178 103.267 67.2881 103.267ZM63.5938 94.6084H69.6875C69.6875 93.4743 69.4294 92.6025 68.9131 91.9932C68.3968 91.3838 67.6816 91.0791 66.7676 91.0791C65.9128 91.0791 65.1891 91.3753 64.5967 91.9678C64.0127 92.5602 63.6784 93.4404 63.5938 94.6084ZM82.8271 103V84.4014H86.2676V103H82.8271ZM90.0635 103V89.0479H92.7422L93.1104 90.8125C94.5322 89.4076 96.1107 88.7051 97.8457 88.7051C99.4707 88.7051 100.685 89.1748 101.489 90.1143C102.302 91.0452 102.708 92.3994 102.708 94.1768V103H99.3691V94.583C99.3607 93.4574 99.1787 92.6152 98.8232 92.0566C98.4678 91.498 97.8288 91.2188 96.9062 91.2188C96.1868 91.2188 95.5267 91.4049 94.9258 91.7773C94.3333 92.1413 93.9017 92.6025 93.6309 93.1611C93.4701 93.8213 93.3896 94.8369 93.3896 96.208V103H90.0635ZM110.439 103.254C108.383 103.254 106.737 102.903 105.501 102.2L105.844 99.6992C106.402 100.004 107.113 100.279 107.977 100.524C108.84 100.761 109.627 100.88 110.338 100.88C111.074 100.88 111.646 100.744 112.052 100.474C112.466 100.194 112.678 99.7881 112.687 99.2549C112.687 98.7725 112.492 98.3916 112.103 98.1123C111.722 97.833 110.99 97.486 109.906 97.0713C109.534 96.9359 109.293 96.847 109.183 96.8047C107.896 96.3053 106.969 95.751 106.402 95.1416C105.835 94.5238 105.552 93.6901 105.552 92.6406C105.552 91.3711 106.009 90.3978 106.923 89.7207C107.845 89.0436 109.128 88.7051 110.77 88.7051C112.547 88.7051 114.108 89.0394 115.454 89.708L114.629 92.0059C113.3 91.388 112.035 91.0791 110.833 91.0791C110.164 91.0791 109.64 91.1934 109.259 91.4219C108.886 91.6419 108.7 91.9805 108.7 92.4375C108.7 92.8691 108.882 93.2077 109.246 93.4531C109.61 93.6901 110.321 94.0033 111.379 94.3926C111.413 94.401 111.523 94.4391 111.709 94.5068C111.895 94.5745 112.039 94.6296 112.141 94.6719C113.419 95.1374 114.358 95.696 114.959 96.3477C115.56 96.9909 115.86 97.833 115.86 98.874C115.852 100.271 115.378 101.35 114.438 102.111C113.499 102.873 112.166 103.254 110.439 103.254ZM128.568 101.908C127.46 102.814 126 103.267 124.188 103.267C122.377 103.267 120.917 102.814 119.809 101.908C118.708 101.003 118.158 99.6738 118.158 97.9219V89.0479H121.497V97.7949C121.497 98.8359 121.713 99.5892 122.145 100.055C122.585 100.52 123.279 100.753 124.227 100.753C125.158 100.753 125.835 100.524 126.258 100.067C126.689 99.6019 126.905 98.8444 126.905 97.7949V89.0479H130.231V97.9219C130.231 99.6654 129.677 100.994 128.568 101.908ZM138.166 103.19C137.21 103.19 136.414 103.08 135.779 102.86C135.153 102.632 134.658 102.272 134.294 101.781C133.93 101.29 133.676 100.706 133.532 100.029C133.388 99.3522 133.316 98.5101 133.316 97.5029V83.9062L136.643 83.6904V97.4395C136.643 98.6921 136.791 99.5426 137.087 99.9912C137.383 100.431 137.959 100.651 138.813 100.651C139.237 100.651 139.774 100.605 140.426 100.512L140.515 102.886C140.506 102.886 140.4 102.907 140.197 102.949C140.003 102.992 139.812 103.025 139.626 103.051C139.448 103.085 139.22 103.114 138.94 103.14C138.661 103.174 138.403 103.19 138.166 103.19ZM142.241 103V89.0479H145.567V103H142.241ZM142.241 87.0166V84.1729H145.58V87.0166H142.241ZM149.046 103V89.0479H151.725L152.093 90.8125C153.515 89.4076 155.093 88.7051 156.828 88.7051C158.453 88.7051 159.668 89.1748 160.472 90.1143C161.284 91.0452 161.69 92.3994 161.69 94.1768V103H158.352V94.583C158.343 93.4574 158.161 92.6152 157.806 92.0566C157.45 91.498 156.811 91.2188 155.889 91.2188C155.169 91.2188 154.509 91.4049 153.908 91.7773C153.316 92.1413 152.884 92.6025 152.613 93.1611C152.452 93.8213 152.372 94.8369 152.372 96.208V103H149.046ZM171.047 97.3506V94.7607H177.852V97.3506H171.047ZM187.563 103V84.3506H194.457C195.396 84.3506 196.209 84.3929 196.895 84.4775C197.589 84.5622 198.244 84.7188 198.862 84.9473C199.489 85.1673 199.992 85.4678 200.373 85.8486C200.762 86.2295 201.067 86.7288 201.287 87.3467C201.516 87.9561 201.63 88.6797 201.63 89.5176C201.63 91.9889 200.508 93.6139 198.266 94.3926C198.723 94.9089 199.29 95.8652 199.967 97.2617L202.734 103H198.977L196.806 98.1377C195.985 96.3942 195.477 95.3617 195.282 95.04C195.138 95.0316 194.66 95.0273 193.848 95.0273L190.966 95.002V103H187.563ZM194.762 92.5391C196.082 92.5391 197.03 92.3063 197.605 91.8408C198.181 91.3669 198.469 90.6094 198.469 89.5684C198.469 88.6543 198.177 87.9814 197.593 87.5498C197.009 87.1182 196.116 86.9023 194.914 86.9023H190.966V92.5264C191.093 92.5264 191.723 92.5306 192.857 92.5391C193.992 92.5391 194.626 92.5391 194.762 92.5391ZM211.481 103.267C209.239 103.267 207.491 102.623 206.238 101.337C204.994 100.042 204.372 98.2562 204.372 95.9795C204.372 93.762 204.96 91.9974 206.137 90.6855C207.313 89.3737 208.917 88.7135 210.948 88.7051C212.869 88.7051 214.359 89.306 215.417 90.5078C216.483 91.7096 217.017 93.305 217.017 95.2939C217.017 95.4378 217.012 95.6706 217.004 95.9922C217.004 96.3138 217.004 96.5508 217.004 96.7031H207.724C207.757 98.0065 208.113 99.0179 208.79 99.7373C209.476 100.448 210.415 100.804 211.608 100.804C213.132 100.804 214.596 100.406 216.001 99.6104L216.471 101.972C215.074 102.835 213.411 103.267 211.481 103.267ZM207.787 94.6084H213.881C213.881 93.4743 213.623 92.6025 213.106 91.9932C212.59 91.3838 211.875 91.0791 210.961 91.0791C210.106 91.0791 209.382 91.3753 208.79 91.9678C208.206 92.5602 207.872 93.4404 207.787 94.6084ZM224.189 103.254C222.133 103.254 220.487 102.903 219.251 102.2L219.594 99.6992C220.152 100.004 220.863 100.279 221.727 100.524C222.59 100.761 223.377 100.88 224.088 100.88C224.824 100.88 225.396 100.744 225.802 100.474C226.216 100.194 226.428 99.7881 226.437 99.2549C226.437 98.7725 226.242 98.3916 225.853 98.1123C225.472 97.833 224.74 97.486 223.656 97.0713C223.284 96.9359 223.043 96.847 222.933 96.8047C221.646 96.3053 220.719 95.751 220.152 95.1416C219.585 94.5238 219.302 93.6901 219.302 92.6406C219.302 91.3711 219.759 90.3978 220.673 89.7207C221.595 89.0436 222.878 88.7051 224.52 88.7051C226.297 88.7051 227.858 89.0394 229.204 89.708L228.379 92.0059C227.05 91.388 225.785 91.0791 224.583 91.0791C223.914 91.0791 223.39 91.1934 223.009 91.4219C222.636 91.6419 222.45 91.9805 222.45 92.4375C222.45 92.8691 222.632 93.2077 222.996 93.4531C223.36 93.6901 224.071 94.0033 225.129 94.3926C225.163 94.401 225.273 94.4391 225.459 94.5068C225.645 94.5745 225.789 94.6296 225.891 94.6719C227.169 95.1374 228.108 95.696 228.709 96.3477C229.31 96.9909 229.61 97.833 229.61 98.874C229.602 100.271 229.128 101.35 228.188 102.111C227.249 102.873 225.916 103.254 224.189 103.254ZM232.327 103V89.0479H235.653V103H232.327ZM232.327 87.0166V84.1729H235.666V87.0166H232.327ZM243.588 103.254C241.531 103.254 239.885 102.903 238.649 102.2L238.992 99.6992C239.551 100.004 240.262 100.279 241.125 100.524C241.988 100.761 242.775 100.88 243.486 100.88C244.223 100.88 244.794 100.744 245.2 100.474C245.615 100.194 245.826 99.7881 245.835 99.2549C245.835 98.7725 245.64 98.3916 245.251 98.1123C244.87 97.833 244.138 97.486 243.055 97.0713C242.682 96.9359 242.441 96.847 242.331 96.8047C241.045 96.3053 240.118 95.751 239.551 95.1416C238.984 94.5238 238.7 93.6901 238.7 92.6406C238.7 91.3711 239.157 90.3978 240.071 89.7207C240.994 89.0436 242.276 88.7051 243.918 88.7051C245.695 88.7051 247.257 89.0394 248.603 89.708L247.777 92.0059C246.449 91.388 245.183 91.0791 243.981 91.0791C243.313 91.0791 242.788 91.1934 242.407 91.4219C242.035 91.6419 241.849 91.9805 241.849 92.4375C241.849 92.8691 242.031 93.2077 242.395 93.4531C242.758 93.6901 243.469 94.0033 244.527 94.3926C244.561 94.401 244.671 94.4391 244.857 94.5068C245.044 94.5745 245.188 94.6296 245.289 94.6719C246.567 95.1374 247.507 95.696 248.107 96.3477C248.708 96.9909 249.009 97.833 249.009 98.874C249 100.271 248.526 101.35 247.587 102.111C246.647 102.873 245.314 103.254 243.588 103.254ZM257.223 103.19C256.275 103.19 255.483 103.08 254.849 102.86C254.222 102.632 253.731 102.276 253.376 101.794C253.021 101.312 252.767 100.744 252.614 100.093C252.47 99.4326 252.398 98.6201 252.398 97.6553V91.0664H250.113L250.24 89.2637L252.627 89.0479L253.693 85.2646L255.725 85.252V89.0479H259.19V91.0664H255.725V97.7188C255.725 98.7767 255.877 99.5299 256.182 99.9785C256.486 100.427 257.049 100.651 257.87 100.651C258.353 100.651 258.869 100.609 259.419 100.524L259.508 102.911C259.491 102.911 259.385 102.932 259.19 102.975C259.004 103.008 258.822 103.038 258.645 103.063C258.475 103.097 258.255 103.127 257.984 103.152C257.714 103.178 257.46 103.19 257.223 103.19ZM269.144 103V84.4014H272.584V103H269.144ZM276.38 103V89.0479H279.059L279.427 90.8125C280.849 89.4076 282.427 88.7051 284.162 88.7051C285.787 88.7051 287.002 89.1748 287.806 90.1143C288.618 91.0452 289.024 92.3994 289.024 94.1768V103H285.686V94.583C285.677 93.4574 285.495 92.6152 285.14 92.0566C284.784 91.498 284.145 91.2188 283.223 91.2188C282.503 91.2188 281.843 91.4049 281.242 91.7773C280.65 92.1413 280.218 92.6025 279.947 93.1611C279.786 93.8213 279.706 94.8369 279.706 96.208V103H276.38ZM293.188 103V91.2568H290.979L291.195 89.3018L293.188 89.0479V88.2734C293.188 87.4271 293.265 86.7035 293.417 86.1025C293.578 85.5016 293.836 84.9896 294.191 84.5664C294.547 84.1348 295.021 83.8174 295.613 83.6143C296.214 83.4027 296.951 83.2969 297.822 83.2969C298.669 83.2969 299.532 83.3773 300.412 83.5381L300.12 86.0137C299.426 85.9206 298.88 85.874 298.482 85.874C297.771 85.874 297.264 86.0475 296.959 86.3945C296.663 86.7331 296.515 87.3001 296.515 88.0957V89.0479H299.79V91.2568H296.515V103H293.188ZM308.118 103.267C305.875 103.267 304.128 102.623 302.875 101.337C301.631 100.042 301.009 98.2562 301.009 95.9795C301.009 93.762 301.597 91.9974 302.773 90.6855C303.95 89.3737 305.554 88.7135 307.585 88.7051C309.506 88.7051 310.996 89.306 312.054 90.5078C313.12 91.7096 313.653 93.305 313.653 95.2939C313.653 95.4378 313.649 95.6706 313.641 95.9922C313.641 96.3138 313.641 96.5508 313.641 96.7031H304.36C304.394 98.0065 304.75 99.0179 305.427 99.7373C306.112 100.448 307.052 100.804 308.245 100.804C309.769 100.804 311.233 100.406 312.638 99.6104L313.107 101.972C311.711 102.835 310.048 103.267 308.118 103.267ZM304.424 94.6084H310.518C310.518 93.4743 310.259 92.6025 309.743 91.9932C309.227 91.3838 308.512 91.0791 307.598 91.0791C306.743 91.0791 306.019 91.3753 305.427 91.9678C304.843 92.5602 304.508 93.4404 304.424 94.6084ZM322.477 103.267C320.344 103.267 318.681 102.632 317.487 101.362C316.302 100.093 315.71 98.2773 315.71 95.916C315.71 93.6309 316.332 91.8577 317.576 90.5967C318.829 89.3356 320.475 88.7051 322.515 88.7051C324.148 88.7051 325.528 89.0563 326.653 89.7588L325.866 92.1328C324.715 91.5319 323.645 91.2314 322.654 91.2314C321.529 91.2314 320.64 91.6335 319.988 92.4375C319.345 93.2415 319.023 94.4137 319.023 95.9541C319.023 97.5114 319.341 98.6963 319.976 99.5088C320.619 100.321 321.524 100.728 322.692 100.728C323.911 100.728 325.083 100.368 326.209 99.6484L326.526 102.175C325.942 102.564 325.337 102.843 324.711 103.013C324.085 103.182 323.34 103.267 322.477 103.267ZM334.74 103.19C333.792 103.19 333.001 103.08 332.366 102.86C331.74 102.632 331.249 102.276 330.894 101.794C330.538 101.312 330.284 100.744 330.132 100.093C329.988 99.4326 329.916 98.6201 329.916 97.6553V91.0664H327.631L327.758 89.2637L330.145 89.0479L331.211 85.2646L333.242 85.252V89.0479H336.708V91.0664H333.242V97.7188C333.242 98.7767 333.395 99.5299 333.699 99.9785C334.004 100.427 334.567 100.651 335.388 100.651C335.87 100.651 336.386 100.609 336.937 100.524L337.025 102.911C337.008 102.911 336.903 102.932 336.708 102.975C336.522 103.008 336.34 103.038 336.162 103.063C335.993 103.097 335.773 103.127 335.502 103.152C335.231 103.178 334.977 103.19 334.74 103.19ZM339.45 103V89.0479H342.776V103H339.45ZM339.45 87.0166V84.1729H342.789V87.0166H339.45ZM352.336 100.74C353.462 100.74 354.308 100.33 354.875 99.5088C355.442 98.6878 355.726 97.5114 355.726 95.9795C355.726 94.4307 355.442 93.25 354.875 92.4375C354.308 91.625 353.453 91.2188 352.311 91.2188C351.185 91.2188 350.334 91.6292 349.759 92.4502C349.192 93.2627 348.908 94.4434 348.908 95.9922C348.908 97.5156 349.196 98.6878 349.771 99.5088C350.347 100.33 351.202 100.74 352.336 100.74ZM352.247 103.267C350.182 103.267 348.557 102.598 347.372 101.261C346.187 99.9235 345.595 98.1631 345.595 95.9795C345.595 93.7282 346.187 91.9551 347.372 90.6602C348.557 89.3568 350.229 88.7051 352.387 88.7051C354.469 88.7051 356.098 89.3695 357.274 90.6982C358.459 92.0186 359.052 93.779 359.052 95.9795C359.052 98.2054 358.455 99.9785 357.262 101.299C356.068 102.611 354.397 103.267 352.247 103.267ZM361.769 103V89.0479H364.447L364.815 90.8125C366.237 89.4076 367.816 88.7051 369.551 88.7051C371.176 88.7051 372.39 89.1748 373.194 90.1143C374.007 91.0452 374.413 92.3994 374.413 94.1768V103H371.074V94.583C371.066 93.4574 370.884 92.6152 370.528 92.0566C370.173 91.498 369.534 91.2188 368.611 91.2188C367.892 91.2188 367.232 91.4049 366.631 91.7773C366.038 92.1413 365.607 92.6025 365.336 93.1611C365.175 93.8213 365.095 94.8369 365.095 96.208V103H361.769Z" fill="#0A7C45"/>
</svg>
