<svg width="146" height="31" viewBox="0 0 146 31" fill="none" xmlns="http://www.w3.org/2000/svg">
<path d="M60.3479 6.18734V24.7624H57.1231V10.2033H57.0715L51.3055 24.7624H49.1556L43.2606 10.2033H43.2219V24.7624H40.2422V6.18734H44.8687L50.2048 19.9466H50.2822L55.9149 6.18734H60.3479ZM63.0439 7.60196C63.0415 7.35939 63.0905 7.11905 63.1875 6.89674C63.2846 6.67442 63.4276 6.47516 63.6072 6.31203C63.9687 5.96871 64.4502 5.78043 64.9487 5.78746C65.2017 5.78003 65.4537 5.82381 65.6894 5.91617C65.9251 6.00853 66.1397 6.14756 66.3203 6.32493C66.4968 6.48959 66.6365 6.68955 66.7306 6.91178C66.8247 7.13402 66.871 7.37357 66.8664 7.61486C66.8724 7.85755 66.8255 8.09865 66.729 8.3214C66.6325 8.54416 66.4886 8.74323 66.3074 8.90479C65.9393 9.2476 65.4516 9.43279 64.9487 9.42077C64.6994 9.42806 64.4511 9.38541 64.2185 9.29532C63.9859 9.20524 63.7736 9.06953 63.5943 8.8962C63.4152 8.73246 63.2734 8.53218 63.1784 8.30889C63.0835 8.0856 63.0376 7.84452 63.0439 7.60196ZM66.4837 11.446V24.7753H63.3492V11.446H66.4837ZM75.9948 22.4835C76.5233 22.4708 77.045 22.3615 77.5341 22.161C78.0898 21.9467 78.6135 21.6574 79.0907 21.301V24.2163C78.5517 24.5137 77.9723 24.7309 77.3707 24.8613C76.6853 25.0169 75.9839 25.0919 75.2811 25.0848C74.4057 25.1207 73.5324 24.9746 72.7164 24.6557C71.9004 24.3368 71.1594 23.8521 70.5403 23.2322C69.9212 22.6123 69.4374 21.8707 69.1196 21.0542C68.8018 20.2378 68.6568 19.3643 68.6938 18.489C68.6197 16.5513 69.2905 14.6587 70.5685 13.2003C71.824 11.8114 73.5783 11.1192 75.8959 11.1192C76.4964 11.1217 77.0943 11.1983 77.676 11.3471C78.1761 11.4574 78.6601 11.6308 79.1165 11.863V14.8729C78.66 14.5344 78.1613 14.2569 77.633 14.0473C77.1392 13.8568 76.6144 13.7592 76.0851 13.7592C75.5267 13.7343 74.9693 13.8288 74.4503 14.0364C73.9312 14.244 73.4625 14.56 73.0753 14.9632C72.2824 15.8545 71.873 17.0225 71.9358 18.2138C71.9358 19.5596 72.297 20.6088 73.028 21.3612C73.4201 21.7453 73.888 22.0434 74.4018 22.2367C74.9156 22.4299 75.464 22.5139 76.012 22.4835H75.9948ZM88.0342 11.2267C88.2603 11.2247 88.4861 11.242 88.7093 11.2783C88.8805 11.3058 89.0489 11.349 89.2123 11.4073V14.5805C88.9912 14.4322 88.7492 14.3177 88.4943 14.2408C88.1245 14.1244 87.7381 14.0692 87.3505 14.0774C86.9713 14.0757 86.5968 14.1627 86.2572 14.3315C85.9175 14.5002 85.622 14.746 85.3941 15.0492C84.8638 15.6999 84.5987 16.7032 84.5987 18.059V24.7796H81.4641V11.4503H84.5987V13.5486H84.6503C84.9009 12.8604 85.3497 12.2619 85.9402 11.8286C86.5559 11.4128 87.2873 11.2021 88.0299 11.2267H88.0342ZM89.3843 18.2998C89.3843 16.0983 90.0064 14.354 91.2504 13.067C92.4945 11.7799 94.2216 11.1364 96.4316 11.1364C98.5127 11.1364 100.138 11.7555 101.308 12.9939C102.477 14.2322 103.062 15.9063 103.062 18.016C103.062 20.1745 102.44 21.8944 101.196 23.1757C99.9517 24.4571 98.2591 25.0963 96.1178 25.0934C94.0539 25.0934 92.4157 24.4857 91.2031 23.2703C89.9906 22.0549 89.3829 20.3981 89.38 18.2998H89.3843ZM92.6478 18.1966C92.6478 19.584 92.9632 20.646 93.5938 21.3827C93.9337 21.7578 94.3537 22.0515 94.8227 22.2421C95.2916 22.4327 95.7975 22.5152 96.3027 22.4835C96.792 22.5154 97.2821 22.4324 97.7338 22.2413C98.1854 22.0502 98.5861 21.7562 98.904 21.3827C99.5003 20.646 99.7984 19.5582 99.7984 18.1192C99.7984 16.6802 99.4902 15.5981 98.8739 14.8729C98.5537 14.5085 98.1555 14.2211 97.7088 14.032C97.2621 13.8429 96.7785 13.757 96.2941 13.7807C95.7898 13.7536 95.286 13.8426 94.8216 14.0409C94.3571 14.2392 93.9444 14.5415 93.6153 14.9245C92.9675 15.6898 92.6435 16.7805 92.6435 18.1966H92.6478ZM107.727 14.946C107.717 15.1424 107.751 15.3385 107.825 15.5205C107.899 15.7026 108.013 15.8661 108.157 15.9994C108.737 16.4129 109.374 16.7389 110.049 16.9669C111.054 17.3028 111.96 17.8835 112.685 18.6567C113.195 19.303 113.463 20.1079 113.442 20.9313C113.457 21.5116 113.334 22.0872 113.082 22.6106C112.831 23.1339 112.459 23.59 111.997 23.9411C111.034 24.6979 109.735 25.0805 108.093 25.0805C107.477 25.0733 106.863 25.0056 106.261 24.8785C105.67 24.7719 105.094 24.6003 104.541 24.3668V21.2838C105.108 21.6798 105.726 21.9979 106.377 22.2298C106.949 22.446 107.554 22.5638 108.166 22.5781C108.706 22.6131 109.245 22.511 109.735 22.2814C109.903 22.1779 110.039 22.0299 110.128 21.8538C110.217 21.6777 110.255 21.4804 110.238 21.2838C110.239 21.0734 110.192 20.8656 110.101 20.6758C110.01 20.486 109.878 20.3191 109.714 20.1874C109.105 19.7505 108.436 19.4043 107.727 19.1598C106.785 18.8236 105.94 18.2627 105.263 17.5258C104.763 16.8646 104.507 16.0499 104.541 15.2212C104.53 14.6506 104.653 14.0855 104.901 13.5715C105.149 13.0576 105.515 12.6093 105.969 12.2629C107.033 11.4531 108.348 11.0423 109.684 11.102C110.209 11.108 110.732 11.1597 111.249 11.2568C111.745 11.3377 112.231 11.4733 112.698 11.661V14.6407C112.247 14.3426 111.76 14.1028 111.249 13.9269C110.721 13.7337 110.164 13.6333 109.602 13.6302C109.114 13.602 108.63 13.7235 108.213 13.9785C108.055 14.0837 107.926 14.2282 107.841 14.3977C107.755 14.5672 107.714 14.7561 107.723 14.946H107.727ZM114.783 18.2998C114.783 16.0983 115.405 14.354 116.649 13.067C117.893 11.7799 119.62 11.1364 121.83 11.1364C123.912 11.1364 125.537 11.7555 126.706 12.9939C127.876 14.2322 128.462 15.9063 128.465 18.016C128.465 20.1745 127.843 21.8944 126.599 23.1757C125.355 24.4571 123.662 25.0963 121.521 25.0934C119.457 25.0934 117.819 24.4857 116.606 23.2703C115.394 22.0549 114.785 20.3981 114.779 18.2998H114.783ZM118.051 18.1966C118.051 19.584 118.365 20.646 118.993 21.3827C119.333 21.7576 119.753 22.0511 120.222 22.2417C120.691 22.4322 121.196 22.5148 121.701 22.4835C122.191 22.515 122.682 22.432 123.134 22.2409C123.587 22.0498 123.988 21.756 124.307 21.3827C124.9 20.646 125.197 19.5582 125.197 18.1192C125.197 16.6874 124.892 15.6038 124.273 14.8729C123.952 14.5085 123.554 14.2211 123.108 14.032C122.661 13.8429 122.177 13.757 121.693 13.7807C121.189 13.7539 120.686 13.8431 120.222 14.0414C119.759 14.2397 119.347 14.5418 119.018 14.9245C118.36 15.6898 118.047 16.7691 118.047 18.1966H118.051ZM138.862 14.0129H134.188V24.7624H131.015V14.0129H128.787V11.4331H131.015V9.58416C130.992 8.9474 131.102 8.31291 131.338 7.72082C131.573 7.12872 131.929 6.59191 132.382 6.14434C132.845 5.70049 133.393 5.3542 133.993 5.12597C134.593 4.89775 135.232 4.79224 135.873 4.81571C136.211 4.81384 136.549 4.83394 136.884 4.8759C137.148 4.90731 137.409 4.96493 137.662 5.04789V7.73955C137.487 7.64954 137.305 7.57612 137.116 7.52027C136.827 7.42949 136.525 7.38593 136.222 7.39127C135.94 7.37354 135.657 7.41961 135.395 7.52606C135.133 7.6325 134.898 7.79659 134.708 8.00614C134.318 8.52878 134.129 9.17434 134.175 9.82494V11.4288H138.845V8.41892L141.992 7.46437V11.4116H145.165V13.9914H141.992V20.2218C141.933 20.8275 142.085 21.435 142.422 21.9417C142.606 22.1217 142.828 22.2598 143.07 22.3466C143.313 22.4334 143.571 22.4669 143.828 22.4448C144.051 22.4369 144.272 22.3933 144.482 22.3158C144.715 22.2395 144.939 22.1356 145.148 22.0062V24.5861C144.835 24.7354 144.502 24.8397 144.159 24.8957C143.71 24.9925 143.251 25.0415 142.792 25.0419C141.472 25.0419 140.479 24.6893 139.821 23.9841C139.163 23.2789 138.827 22.2212 138.827 20.8066L138.862 14.0129Z" fill="#E4E4E4"/>
<path d="M14.7138 0H0V14.7138H14.7138V0Z" fill="#F25022"/>
<path d="M30.958 0H16.2441V14.7138H30.958V0Z" fill="#7FBA00"/>
<path d="M14.7138 16.2446H0V30.9585H14.7138V16.2446Z" fill="#00A4EF"/>
<path d="M30.958 16.2446H16.2441V30.9585H30.958V16.2446Z" fill="#FFB900"/>
</svg>
