<svg width="185" height="40" viewBox="0 0 185 40" fill="none" xmlns="http://www.w3.org/2000/svg">
<g clip-path="url(#clip0_27910_12145)">
<path d="M76.9347 7.89125V31.5642H72.8248V12.9875H72.77L65.427 31.5642H62.6871L55.1797 12.9875H55.1249V31.5642H51.3438V7.89125H57.262L64.057 25.4268H64.1666L71.3452 7.89125H76.9347ZM80.3322 9.6996C80.3322 9.04202 80.5514 8.49403 81.0446 8.05565C81.5378 7.61726 82.0858 7.39806 82.7433 7.39806C83.4557 7.39806 84.0585 7.61726 84.4969 8.05565C84.9353 8.49403 85.2093 9.04202 85.2093 9.6996C85.2093 10.3572 84.9901 10.9052 84.4969 11.3436C84.0037 11.7819 83.4557 12.0011 82.7433 12.0011C82.031 12.0011 81.483 11.7819 81.0446 11.3436C80.6062 10.8504 80.3322 10.3024 80.3322 9.6996ZM84.7709 14.5767V31.5642H80.7706V14.5767H84.7709ZM96.8814 28.6599C97.4842 28.6599 98.1417 28.5503 98.8541 28.2215C99.5665 27.9475 100.224 27.5639 100.827 27.1255V30.8519C100.169 31.2354 99.4569 31.5094 98.6349 31.6738C97.8129 31.8382 96.9362 31.9478 95.9498 31.9478C93.4291 31.9478 91.4015 31.1806 89.8671 29.5915C88.278 28.0023 87.5108 25.9748 87.5108 23.5636C87.5108 20.8237 88.3328 18.577 89.922 16.8234C91.5111 15.0699 93.7578 14.1931 96.717 14.1931C97.4841 14.1931 98.2513 14.3027 98.9637 14.4671C99.7309 14.6315 100.334 14.9055 100.772 15.1247V18.9606C100.169 18.5222 99.5117 18.1386 98.9089 17.9194C98.2513 17.7002 97.5937 17.5358 96.9362 17.5358C95.347 17.5358 94.0866 18.029 93.1003 19.0702C92.1139 20.1113 91.6755 21.4813 91.6755 23.2348C91.6755 24.9336 92.1687 26.3036 93.1003 27.2351C94.0318 28.1667 95.2922 28.6599 96.8814 28.6599ZM112.17 14.3027C112.499 14.3027 112.773 14.3027 113.047 14.3575C113.321 14.4123 113.54 14.4671 113.705 14.5219V18.577C113.485 18.4126 113.211 18.2482 112.773 18.1386C112.335 18.029 111.896 17.9194 111.293 17.9194C110.307 17.9194 109.485 18.3578 108.827 19.1798C108.17 20.0017 107.786 21.2621 107.786 23.0157V31.5642H103.786V14.5767H107.786V17.2618H107.841C108.225 16.3302 108.773 15.6178 109.485 15.0699C110.252 14.5767 111.129 14.3027 112.17 14.3027ZM113.924 23.3444C113.924 20.5497 114.746 18.303 116.28 16.659C117.869 15.0151 120.061 14.1931 122.856 14.1931C125.486 14.1931 127.569 14.9603 129.048 16.5494C130.528 18.1386 131.295 20.2757 131.295 22.9609C131.295 25.7008 130.473 27.8927 128.939 29.5367C127.349 31.1806 125.212 32.0026 122.472 32.0026C119.842 32.0026 117.76 31.2354 116.225 29.7011C114.691 28.1119 113.924 25.9748 113.924 23.3444ZM118.088 23.18C118.088 24.9336 118.472 26.3036 119.294 27.2351C120.116 28.1667 121.267 28.6599 122.746 28.6599C124.171 28.6599 125.322 28.2215 126.089 27.2351C126.856 26.3036 127.24 24.9336 127.24 23.0705C127.24 21.2621 126.856 19.8921 126.089 18.9058C125.322 17.9742 124.171 17.481 122.801 17.481C121.322 17.481 120.226 17.9742 119.404 18.9606C118.472 20.0017 118.088 21.3717 118.088 23.18ZM137.268 19.0702C137.268 19.6181 137.432 20.1113 137.816 20.4401C138.199 20.7689 138.967 21.1525 140.227 21.6457C141.816 22.3033 142.967 23.0157 143.57 23.7828C144.227 24.6048 144.556 25.5364 144.556 26.6872C144.556 28.2763 143.953 29.5367 142.693 30.5231C141.487 31.5094 139.789 31.9478 137.706 31.9478C136.994 31.9478 136.227 31.8382 135.35 31.6738C134.473 31.5094 133.761 31.2902 133.158 31.0162V27.0708C133.87 27.5639 134.692 28.0023 135.514 28.2763C136.336 28.5503 137.104 28.7147 137.816 28.7147C138.693 28.7147 139.405 28.6051 139.789 28.3311C140.227 28.0571 140.446 27.6735 140.446 27.0708C140.446 26.5228 140.227 26.0844 139.789 25.646C139.35 25.2624 138.473 24.824 137.268 24.3308C135.788 23.728 134.747 23.0157 134.144 22.2485C133.542 21.4813 133.213 20.4949 133.213 19.2894C133.213 17.755 133.816 16.4946 135.021 15.5083C136.227 14.5219 137.816 14.0287 139.734 14.0287C140.337 14.0287 140.994 14.0835 141.707 14.2479C142.419 14.4123 143.077 14.5767 143.57 14.7411V18.6318C143.022 18.303 142.419 17.9742 141.707 17.7002C140.994 17.4262 140.282 17.3166 139.624 17.3166C138.857 17.3166 138.254 17.481 137.871 17.755C137.487 18.1386 137.268 18.5222 137.268 19.0702ZM146.255 23.3444C146.255 20.5497 147.077 18.303 148.611 16.659C150.2 15.0151 152.392 14.1931 155.187 14.1931C157.817 14.1931 159.9 14.9603 161.379 16.5494C162.859 18.1386 163.626 20.2757 163.626 22.9609C163.626 25.7008 162.804 27.8927 161.27 29.5367C159.681 31.1806 157.543 32.0026 154.803 32.0026C152.173 32.0026 150.091 31.2354 148.556 29.7011C147.077 28.1119 146.255 25.9748 146.255 23.3444ZM150.42 23.18C150.42 24.9336 150.803 26.3036 151.625 27.2351C152.447 28.1667 153.598 28.6599 155.077 28.6599C156.502 28.6599 157.653 28.2215 158.42 27.2351C159.187 26.3036 159.571 24.9336 159.571 23.0705C159.571 21.2621 159.187 19.8921 158.42 18.9058C157.653 17.9742 156.502 17.481 155.132 17.481C153.653 17.481 152.557 17.9742 151.735 18.9606C150.858 20.0017 150.42 21.3717 150.42 23.18ZM176.942 17.8646H170.969V31.5642H166.914V17.8646H164.064V14.5767H166.914V12.2203C166.914 10.4668 167.517 8.98722 168.667 7.83645C169.818 6.68568 171.298 6.1377 173.106 6.1377C173.599 6.1377 174.038 6.19249 174.421 6.19249C174.805 6.19249 175.134 6.30209 175.408 6.41169V9.864C175.298 9.8092 175.024 9.6996 174.695 9.59001C174.367 9.48041 173.983 9.42561 173.545 9.42561C172.723 9.42561 172.065 9.6996 171.627 10.1928C171.188 10.686 170.969 11.508 170.969 12.4943V14.5219H176.942V10.686L180.942 9.48041V14.5219H184.997V17.8098H180.942V25.7556C180.942 26.7968 181.162 27.5091 181.49 27.9475C181.874 28.3859 182.477 28.6051 183.299 28.6051C183.518 28.6051 183.792 28.5503 184.121 28.4407C184.449 28.3311 184.723 28.2215 184.943 28.0571V31.345C184.669 31.5094 184.285 31.619 183.682 31.7286C183.08 31.8382 182.532 31.893 181.929 31.893C180.23 31.893 178.97 31.4546 178.148 30.5779C177.326 29.7011 176.887 28.3311 176.887 26.5228L176.942 17.8646Z" fill="#737373"/>
<path d="M18.7411 0H0V18.7411H18.7411V0Z" fill="#F25022"/>
<path d="M39.456 0H20.7148V18.7411H39.456V0Z" fill="#7FBA00"/>
<path d="M18.7411 20.7134H0V39.4545H18.7411V20.7134Z" fill="#00A4EF"/>
<path d="M39.456 20.7134H20.7148V39.4545H39.456V20.7134Z" fill="#FFB900"/>
</g>
<defs>
<clipPath id="clip0_27910_12145">
<rect width="185" height="39.455" fill="white"/>
</clipPath>
</defs>
</svg>
