<?xml version="1.0" encoding="utf-8"?>
<!-- Generator: Adobe Illustrator 20.1.0, SVG Export Plug-In . SVG Version: 6.00 Build 0)  -->
<svg version="1.0" id="Layer_1" xmlns="http://www.w3.org/2000/svg" xmlns:xlink="http://www.w3.org/1999/xlink" x="0px" y="0px"
	 width="98px" height="20px" viewBox="0 0 98 20" style="enable-background:new 0 0 98 20;" xml:space="preserve">
<style type="text/css">
	.st0{fill:#9FA3A5;}
</style>
<g>
	<path id="path5056" class="st0" d="M95.6,9.2V7.5h-2V5l-0.1,0l-1.9,0.6l0,0v1.9h-3V6.5c0-0.5,0.1-0.9,0.3-1.1
		c0.2-0.3,0.5-0.4,0.9-0.4c0.3,0,0.6,0.1,0.9,0.2l0.1,0V3.4l0,0c-0.3-0.1-0.7-0.2-1.1-0.2c-0.6,0-1.1,0.1-1.6,0.4
		c-0.5,0.3-0.8,0.6-1.1,1.1c-0.3,0.5-0.4,1-0.4,1.6v1.2H85v1.6h1.4v6.9h2V9.2h3v4.4c0,1.8,0.9,2.7,2.5,2.7c0.3,0,0.6,0,0.9-0.1
		c0.3-0.1,0.5-0.1,0.6-0.2l0,0v-1.7l-0.1,0.1c-0.1,0.1-0.2,0.1-0.4,0.2c-0.2,0-0.3,0.1-0.4,0.1c-0.4,0-0.7-0.1-0.9-0.3
		c-0.2-0.2-0.3-0.6-0.3-1.1v-4L95.6,9.2L95.6,9.2z M80.5,14.6c-0.7,0-1.3-0.2-1.7-0.7c-0.4-0.5-0.6-1.2-0.6-2.1
		c0-0.9,0.2-1.6,0.6-2.1c0.4-0.5,1-0.7,1.7-0.7c0.7,0,1.3,0.2,1.7,0.7c0.4,0.5,0.6,1.2,0.6,2.1c0,0.9-0.2,1.6-0.6,2.1
		C81.8,14.4,81.2,14.6,80.5,14.6 M80.6,7.3c-1.4,0-2.5,0.4-3.3,1.2c-0.8,0.8-1.2,1.9-1.2,3.3c0,1.3,0.4,2.4,1.2,3.2
		c0.8,0.8,1.8,1.2,3.1,1.2c1.4,0,2.5-0.4,3.3-1.2c0.8-0.8,1.2-1.9,1.2-3.3c0-1.4-0.4-2.4-1.1-3.2C83,7.7,81.9,7.3,80.6,7.3
		 M72.8,7.3c-1,0-1.7,0.2-2.4,0.7c-0.6,0.5-0.9,1.1-0.9,1.9c0,0.4,0.1,0.8,0.2,1.1c0.1,0.3,0.3,0.6,0.6,0.8c0.3,0.2,0.7,0.5,1.2,0.7
		c0.5,0.2,0.8,0.4,1,0.5c0.2,0.1,0.4,0.2,0.5,0.4c0.1,0.1,0.1,0.3,0.1,0.5c0,0.6-0.4,0.9-1.3,0.9c-0.3,0-0.7-0.1-1.1-0.2
		c-0.4-0.1-0.8-0.3-1.1-0.6l-0.1-0.1v2l0,0c0.3,0.1,0.7,0.2,1.1,0.3c0.4,0.1,0.8,0.1,1.2,0.1c1,0,1.9-0.2,2.5-0.7
		c0.6-0.5,0.9-1.1,0.9-1.9c0-0.6-0.2-1.1-0.5-1.5c-0.3-0.4-0.9-0.8-1.7-1.1c-0.6-0.3-1-0.5-1.2-0.6c-0.2-0.2-0.2-0.4-0.2-0.7
		c0-0.2,0.1-0.4,0.3-0.6c0.2-0.2,0.5-0.2,0.9-0.2c0.3,0,0.7,0.1,1,0.2c0.3,0.1,0.6,0.2,0.9,0.4l0.1,0.1V7.7l0,0
		c-0.2-0.1-0.5-0.2-0.9-0.3C73.4,7.4,73.1,7.3,72.8,7.3 M64.2,14.6c-0.7,0-1.3-0.2-1.7-0.7c-0.4-0.5-0.6-1.2-0.6-2.1
		c0-0.9,0.2-1.6,0.6-2.1c0.4-0.5,1-0.7,1.7-0.7c0.7,0,1.3,0.2,1.7,0.7c0.4,0.5,0.6,1.2,0.6,2.1c0,0.9-0.2,1.6-0.6,2.1
		C65.5,14.4,65,14.6,64.2,14.6 M64.3,7.3c-1.4,0-2.5,0.4-3.3,1.2c-0.8,0.8-1.2,1.9-1.2,3.3c0,1.3,0.4,2.4,1.2,3.2
		c0.8,0.8,1.8,1.2,3.1,1.2c1.4,0,2.5-0.4,3.3-1.2c0.8-0.8,1.2-1.9,1.2-3.3c0-1.4-0.4-2.4-1.1-3.2C66.7,7.7,65.6,7.3,64.3,7.3
		 M56.7,9V7.5h-2v8.5h2v-4.4c0-0.7,0.2-1.4,0.5-1.8c0.3-0.5,0.8-0.7,1.3-0.7c0.2,0,0.4,0,0.6,0.1c0.2,0.1,0.4,0.1,0.5,0.2l0.1,0.1
		v-2l0,0c-0.2-0.1-0.5-0.1-0.8-0.1c-0.5,0-1,0.2-1.3,0.5C57.2,8.1,56.9,8.5,56.7,9C56.7,9,56.7,9,56.7,9z M51.1,7.3
		c-0.9,0-1.7,0.2-2.4,0.6C48,8.3,47.4,8.9,47,9.6c-0.4,0.7-0.6,1.5-0.6,2.5c0,0.8,0.2,1.5,0.5,2.2c0.4,0.7,0.9,1.2,1.5,1.5
		c0.6,0.4,1.4,0.5,2.2,0.5c1,0,1.8-0.2,2.4-0.6l0,0v-1.8l-0.1,0.1c-0.3,0.2-0.6,0.4-1,0.5c-0.4,0.1-0.7,0.2-1,0.2
		c-0.8,0-1.4-0.2-1.9-0.7c-0.5-0.5-0.7-1.2-0.7-2c0-0.9,0.2-1.6,0.7-2.1C49.8,9.2,50.4,9,51.2,9c0.7,0,1.3,0.2,1.9,0.7l0.1,0.1V7.8
		l0,0c-0.2-0.1-0.5-0.2-0.9-0.3C51.8,7.4,51.5,7.3,51.1,7.3 M45.1,7.5h-2v8.5h2V7.5z M44.1,3.9c-0.3,0-0.6,0.1-0.9,0.3
		c-0.2,0.2-0.4,0.5-0.4,0.8c0,0.3,0.1,0.6,0.4,0.8c0.2,0.2,0.5,0.3,0.9,0.3c0.3,0,0.6-0.1,0.9-0.3c0.2-0.2,0.4-0.5,0.4-0.8
		c0-0.3-0.1-0.6-0.3-0.8C44.8,4,44.5,3.9,44.1,3.9 M39.1,6.9v9.2h2V4.1h-2.8L34.7,13l-3.5-8.8h-3v11.9h1.9V6.9h0.1l3.7,9.2h1.5
		L39.1,6.9L39.1,6.9L39.1,6.9z"/>
	<path id="path5058" class="st0" d="M11.9,9.6H2.4V0.2h9.4V9.6z"/>
	<path id="path5060" class="st0" d="M22.3,9.6h-9.4V0.2h9.4V9.6z"/>
	<path id="path5062" class="st0" d="M11.9,20H2.4v-9.4h9.4V20z"/>
	<path id="path5064" class="st0" d="M22.3,20h-9.4v-9.4h9.4V20z"/>
</g>
</svg>
