<svg xmlns="http://www.w3.org/2000/svg" width="95.474" height="109.623" viewBox="0 0 95.474 109.623"><g transform="translate(0 -0.1)"><path d="M0,34.924H3.574L11.832,45.88V34.924h3.831V52.635H12.372L3.834,41.456V52.635H0V34.924" transform="translate(0 53.07)" fill="#211e1e"/><path d="M16.458,42.427c-.222-1.7-1.232-2.86-2.834-2.86S11,40.7,10.691,42.427ZM6.943,43.56v-.048a6.707,6.707,0,0,1,6.681-7c4.5,0,6.57,3.488,6.57,7.3,0,.308-.028.654-.05,1.01H10.752a3.13,3.13,0,0,0,3.291,2.638,4.446,4.446,0,0,0,3.279-1.381L19.5,48.01a6.735,6.735,0,0,1-5.507,2.5A6.737,6.737,0,0,1,6.946,43.56" transform="translate(10.581 55.489)" fill="#211e1e"/><path d="M14.115,48.323v-6.37H12.5V38.686h1.615v-3.44h3.821v3.44h3.178v3.266H17.937v5.742c0,.888.381,1.307,1.232,1.307a3.98,3.98,0,0,0,1.9-.469v3.057a5.691,5.691,0,0,1-3.031.777c-2.33,0-3.92-.926-3.92-4.043" transform="translate(19.049 53.561)" fill="#211e1e"/><path d="M34.23,43.511v-.05a3.31,3.31,0,1,0-6.57,0v.05a3.311,3.311,0,1,0,6.57,0ZM23.877,36.757h3.834v1.936a4.929,4.929,0,0,1,4.2-2.181c3.142,0,6.138,2.451,6.138,6.948v.05c0,4.5-2.945,6.951-6.138,6.951a5.172,5.172,0,0,1-4.2-2v5.767H23.877V36.757" transform="translate(36.387 55.49)" fill="#211e1e"/><path d="M40.465,43.511v-.05a3.315,3.315,0,1,0-6.58,0v.05a3.315,3.315,0,1,0,6.58,0ZM30.112,36.757h3.834v1.936a4.929,4.929,0,0,1,4.2-2.181c3.142,0,6.138,2.451,6.138,6.948v.05c0,4.5-2.945,6.951-6.138,6.951a5.172,5.172,0,0,1-4.2-2v5.767H30.112V36.757" transform="translate(45.889 55.49)" fill="#211e1e"/><path d="M27.68,45.277l-2.342-5.707L23,45.277ZM23.649,34.924h3.488l7.357,17.711H30.464l-1.625-3.942H21.849l-1.613,3.942H16.279l7.37-17.711" transform="translate(24.808 53.07)" fill="#211e1e"/><path d="M0,.1V74.721H34.914V29.948H54.866V74.721H89.78V.1H0" transform="translate(0 0)" fill="#0067c5"/><path d="M41.265,39.615h-.457V37.1H40.8l-.886,2.514h-.285L38.739,37.1h-.013v2.514h-.457V36.609h.7l.8,2.279.8-2.279h.692ZM37.729,37h-.851v2.612h-.457V37h-.851v-.394h2.158V37" transform="translate(54.209 55.638)" fill="#211e1e"/></g></svg>