<svg id="Layer_1" xmlns="http://www.w3.org/2000/svg" width="95.5" height="41.5" viewBox="0 0 95.5 41.5"><style>.st0{fill:#9fa4a6}</style><g id="XMLID_528_"><path id="XMLID_535_" class="st0" d="M7.7 11.2c.4 3.9.6 6.9.6 13.7v14.9H.1V.5h10.2l8 15.5c2 3.8 4.1 8.1 5.5 12h.2c-.5-5.5-.5-10.9-.5-15V.5h8.1v39.3h-10L13 23.2c-2-3.8-3.6-7.7-5.2-12h-.1z"/><path id="XMLID_533_" class="st0" d="M55.7 29.8c0-6.2-18.1-5.4-18.1-17.7C37.6 5.6 43.3.5 51.4.5c6.5 0 10.6 3 11.9 4.7L58 11.6c-.9-1.2-3.2-3.6-7.3-3.6-2.8 0-4.4 1.6-4.4 3.5 0 6.3 18 5.4 18 17.9 0 5.9-4.9 11.6-14.8 11.6-7.6 0-12.3-3.4-13.6-4.9l4.9-7.1c1.7 1.7 5.1 4.7 9.9 4.7 3.3 0 5-1.8 5-3.9z"/><path id="XMLID_531_" class="st0" d="M70.7 12.6L67.4 6 74.9.8h8.3v39.1H75V19.6l.3-10.1"/></g><path id="XMLID_13_" class="st0" d="M90.7 30.8c2.7 0 4.7 2 4.7 4.7 0 2.5-2 4.5-4.7 4.5-2.5 0-4.5-2-4.5-4.5 0-2.7 2-4.7 4.5-4.7z"/></svg>