<svg id="Layer_1" xmlns="http://www.w3.org/2000/svg" width="95.5" height="41.3" viewBox="0 0 95.5 41.3"><style>.st0{fill:#fff}.st1{fill:#f4006f}</style><g id="XMLID_2_"><path id="XMLID_5_" class="st0" d="M7.7 11c.4 3.9.6 6.9.6 13.7v14.8H.1V.4h10.2l8 15.4c2 3.7 4.1 8.1 5.5 12h.2c-.4-5.5-.4-10.9-.4-15.1V.4h8.1v39.2h-10L13.1 23c-2-3.8-3.6-7.7-5.2-12h-.2z"/><path id="XMLID_4_" class="st0" d="M55.7 29.7c0-6.2-18.1-5.4-18.1-17.7C37.6 5.5 43.3.4 51.4.4c6.5 0 10.6 3 11.9 4.7L58 11.4c-1-1.2-3.2-3.6-7.3-3.6-2.8 0-4.4 1.6-4.4 3.5 0 6.3 18 5.4 18 17.9 0 5.9-4.9 11.6-14.8 11.6-7.6 0-12.3-3.4-13.6-4.9l4.9-7.1c1.7 1.7 5.1 4.7 9.8 4.7 3.5 0 5.1-1.8 5.1-3.8z"/><path id="XMLID_3_" class="st0" d="M70.7 12.4l-3.3-6.6L74.9.6h8.3v39.1H75V19.5l.3-10"/></g><path id="XMLID_1_" class="st1" d="M90.7 30.6c2.7 0 4.7 2 4.7 4.7 0 2.5-2 4.5-4.7 4.5-2.5 0-4.6-2-4.6-4.5.1-2.7 2.1-4.7 4.6-4.7z"/></svg>