<svg width="111" height="26" viewBox="0 0 111 26" fill="none" xmlns="http://www.w3.org/2000/svg">
<g style="mix-blend-mode:multiply">
<path d="M46.2125 7.65583C47.4086 7.48079 48.6631 7.74336 49.6842 8.38518C50.9095 9.14371 51.8139 10.4274 52.0765 11.8569C52.2515 12.8488 52.164 13.8699 51.7847 14.8035C51.3763 15.8246 50.6469 16.6998 49.6842 17.2541C48.5756 17.9251 47.1752 18.1585 45.8916 17.8959C44.7246 17.6625 43.6452 17.0207 42.9158 16.1163C42.0114 15.0077 41.6322 13.5198 41.8364 12.1195C41.9823 11.0692 42.449 10.0773 43.1492 9.31875C43.9369 8.41436 45.0455 7.83088 46.2125 7.65583ZM46.4167 9.66884C45.5707 9.81471 44.8121 10.3398 44.3454 11.04C43.7911 11.8569 43.6744 12.9072 43.9953 13.8407C44.4329 15.1244 45.7749 16.0288 47.1461 15.9413C48.138 15.8829 49.1007 15.3286 49.6259 14.4826C49.9759 13.9282 50.1802 13.2572 50.1218 12.5862C50.0635 11.5943 49.5092 10.6608 48.6923 10.1356C48.0213 9.72719 47.1752 9.52297 46.4167 9.66884ZM76.7869 7.88923C76.7869 7.71418 76.9327 7.56831 77.1078 7.59749H84.4304C84.6055 7.56831 84.7514 7.74336 84.7514 7.9184V9.14371C84.7514 9.28958 84.6638 9.46462 84.4888 9.46462H81.8048V17.4C81.834 17.575 81.6589 17.75 81.4839 17.75H80.0543C79.8501 17.7792 79.7043 17.575 79.7334 17.4V9.46462H77.0494C76.8744 9.46462 76.7869 9.28958 76.7869 9.14371C76.7577 8.73527 76.7577 8.32684 76.7869 7.88923ZM91.7531 7.97675C91.7239 7.77253 91.9573 7.59749 92.1616 7.59749H93.416C93.5911 7.59749 93.737 7.77253 93.7078 7.94757V10.6608C94.6705 10.3398 95.7208 10.2231 96.7127 10.5441C97.6171 10.8358 98.3173 11.5652 98.6674 12.4404C99.105 13.549 99.105 14.8326 98.5798 15.9121C98.2006 16.6998 97.5588 17.3708 96.7419 17.6917C95.5166 18.1585 94.0287 17.8376 93.1826 16.8456C93.1535 17.1082 93.2702 17.4291 93.0951 17.6333C92.8617 17.8084 92.5408 17.6917 92.2491 17.7209C92.0157 17.75 91.7531 17.6333 91.7823 17.3708C91.7531 14.2783 91.7531 11.1275 91.7531 7.97675ZM93.7078 12.5862V15.1244C94.0287 16.0288 95.254 16.408 96.0709 15.9413C96.4501 15.737 96.7127 15.3578 96.8586 14.9493C97.092 14.3075 97.0336 13.549 96.6835 12.9655C96.5515 12.7629 96.3803 12.5887 96.1798 12.4535C95.9794 12.3182 95.7539 12.2244 95.5166 12.1778C94.8747 12.1195 94.2621 12.2653 93.7078 12.5862ZM100.534 7.65583C100.972 7.59749 101.41 7.65583 101.847 7.62666C102.052 7.59749 102.256 7.77253 102.256 7.97675V15.1244C102.256 15.2994 102.227 15.4745 102.285 15.6203C102.402 15.9121 102.839 15.7079 102.927 16.0288C102.985 16.3497 102.927 16.6998 102.956 17.0499C102.956 17.2541 103.014 17.4875 102.868 17.6625C102.723 17.8376 102.46 17.7792 102.256 17.7792C101.847 17.75 101.41 17.8376 101.03 17.6625C100.622 17.4583 100.272 17.0207 100.272 16.5247V7.94757C100.301 7.83088 100.418 7.68501 100.534 7.65583ZM55.023 11.4193C55.6065 10.7483 56.5109 10.3398 57.3861 10.369C58.2614 10.3398 59.1366 10.7191 59.7492 11.3318C60.4786 12.0611 60.8287 13.1114 60.8287 14.1325C60.8578 15.1827 60.4786 16.233 59.7201 16.9623C59.0782 17.575 58.203 17.8959 57.3278 17.8959C56.7151 17.8959 56.1025 17.8084 55.5482 17.6042V20.259C55.5482 20.4632 55.4023 20.6674 55.1981 20.6674H53.9436C53.7394 20.6966 53.5352 20.4632 53.5643 20.259V10.8066C53.5643 10.5441 53.8561 10.4565 54.0895 10.4857C54.3812 10.5149 54.7605 10.369 54.9939 10.6316C55.0814 10.9233 55.023 11.1859 55.023 11.4193ZM55.519 13.1405C55.4898 14.0158 55.519 14.8618 55.519 15.737C55.9858 15.9996 56.5401 16.1455 57.0944 16.1455C57.5904 16.1163 58.0863 15.8829 58.3781 15.4745C59.0199 14.5992 58.9032 13.1697 58.028 12.4987C57.2403 11.8861 55.8983 12.207 55.519 13.1405ZM63.7461 10.865C64.5629 10.369 65.584 10.2523 66.5176 10.4857C67.3637 10.7191 68.1222 11.3026 68.5306 12.0903C68.8807 12.7321 68.9682 13.5198 68.8807 14.22C68.8515 14.4242 68.6473 14.5409 68.4723 14.5117H63.9211C63.9503 15.0952 64.2712 15.6203 64.7672 15.9121C65.5257 16.3497 66.5468 16.1746 67.2178 15.6495C67.3345 15.5328 67.4803 15.5036 67.6554 15.562C67.8596 15.7662 68.0055 16.0288 68.2097 16.2622C68.2972 16.408 68.4723 16.5539 68.4431 16.729C68.4139 16.904 68.2389 16.9915 68.093 17.1082C67.1303 17.8376 65.8466 18.1001 64.6796 17.8084C63.8919 17.6042 63.1626 17.1374 62.6666 16.4664C61.8789 15.3869 61.7331 13.9282 62.1999 12.7029C62.4916 11.9444 63.0459 11.2734 63.7461 10.865ZM64.738 12.207C64.3587 12.4112 64.0962 12.8196 64.0378 13.2281H66.9552C66.8969 12.9363 66.8093 12.6446 66.6051 12.4404C66.1092 11.9444 65.3215 11.8861 64.738 12.207ZM71.8856 11.3901C72.3524 10.865 72.9942 10.4857 73.6944 10.3982C74.5696 10.3107 75.5616 10.3982 76.2326 11.04C76.8744 11.6527 77.0494 12.5571 77.1078 13.4323V17.4291C77.1078 17.6333 76.9327 17.7792 76.7577 17.7792H75.474C75.299 17.7792 75.1531 17.6042 75.1531 17.4291V13.6073C75.1531 13.1989 75.0364 12.7321 74.7155 12.4695C74.3654 12.1778 73.8695 12.1486 73.461 12.2653C72.9359 12.382 72.5275 12.8196 72.3524 13.3156C72.3232 14.7159 72.3524 16.1163 72.3524 17.4875C72.3524 17.6625 72.1774 17.7792 72.0023 17.7792H70.6603C70.4561 17.75 70.3394 17.5458 70.3686 17.3708V10.9525C70.3394 10.7483 70.5436 10.5441 70.7478 10.5732C71.0396 10.5732 71.3313 10.5441 71.6231 10.5732C72.0023 10.6608 71.8856 11.0984 71.8856 11.3901ZM84.9264 10.7191C85.86 10.4565 86.8519 10.3398 87.8146 10.3982C88.4273 10.4565 89.0983 10.6608 89.4776 11.1567C89.9152 11.7402 90.0027 12.4987 90.0319 13.1989V17.4C90.0319 17.6042 89.8568 17.7792 89.6526 17.75C89.3609 17.75 89.0691 17.7792 88.8065 17.7209C88.544 17.6042 88.6315 17.2541 88.6315 17.0499C88.048 17.6333 87.2312 17.9543 86.3851 17.9543C85.7141 17.9834 85.0139 17.75 84.5471 17.2541C84.022 16.729 83.847 15.9413 83.9053 15.2119C83.9637 14.5117 84.4304 13.8991 85.0431 13.5782C86.0058 13.0822 87.1436 13.1114 88.1647 13.3739C88.1647 13.0239 88.1647 12.6154 87.9313 12.3237C87.7271 12.0903 87.4062 12.0319 87.1145 12.0319C86.4435 12.0611 85.7725 12.1486 85.1306 12.2945C84.9556 12.3528 84.8097 12.207 84.7805 12.0611C84.693 11.711 84.6347 11.3901 84.6055 11.04C84.5471 10.865 84.7514 10.7483 84.9264 10.7191ZM86.3268 14.5992C85.6558 14.9202 85.6558 15.9996 86.2976 16.3497C86.9394 16.6706 87.8146 16.3497 88.1355 15.7079C88.1647 15.3578 88.1355 15.0077 88.1355 14.6576C87.5812 14.4534 86.9102 14.3367 86.3268 14.5992ZM104.881 11.536C105.552 10.8066 106.544 10.369 107.507 10.3982C108.557 10.369 109.637 10.865 110.22 11.7402C110.745 12.4695 110.891 13.3739 110.775 14.2492C110.745 14.4242 110.541 14.5701 110.366 14.5409H105.815C105.844 15.1827 106.253 15.7954 106.865 16.0288C107.624 16.3205 108.499 16.1455 109.141 15.6495C109.258 15.5328 109.52 15.4745 109.637 15.6203C109.87 15.8829 110.074 16.1746 110.279 16.4664C110.395 16.6123 110.366 16.8165 110.22 16.9332C109.462 17.5741 108.5 17.9256 107.507 17.9251C106.515 17.9251 105.552 17.5167 104.881 16.7873C103.539 15.3869 103.539 12.9363 104.881 11.536ZM106.574 12.2653C106.223 12.4695 106.048 12.8488 105.961 13.2281H108.878C108.849 12.9072 108.703 12.5862 108.47 12.3528C107.945 11.9152 107.128 11.9152 106.574 12.2653Z" fill="#7F8184"/>
<path d="M21.6179 0.0710639C24.0977 -0.191502 26.665 0.275282 28.9114 1.44224C31.362 2.69672 33.375 4.76808 34.5712 7.24787C36.0299 10.1653 36.2633 13.6662 35.2713 16.7586C34.5128 19.2092 32.9958 21.3973 30.9828 23.0018C28.9697 24.6064 26.4608 25.5983 23.9226 25.7734C21.1511 25.9776 18.3212 25.2774 15.9873 23.7312C14.587 22.8268 13.3617 21.6307 12.3989 20.2595C11.1153 18.4215 10.3276 16.2626 10.1525 14.0454C9.94829 11.7698 10.3567 9.40675 11.3486 7.33539C12.4281 5.08899 14.1785 3.16351 16.3082 1.87985C17.8836 0.887936 19.7216 0.275282 21.6179 0.0710639ZM22.4348 9.72766C21.3553 9.90271 20.3926 10.6612 19.9842 11.6823C19.8253 12.0611 19.7435 12.4677 19.7435 12.8785C19.7435 13.2892 19.8253 13.6958 19.9842 14.0746C20.4801 15.3582 21.8805 16.2335 23.2516 16.0876C24.4769 16.0001 25.6147 15.0957 25.994 13.9287C26.4608 12.6451 25.994 11.128 24.8854 10.3403C24.2144 9.81518 23.2808 9.58179 22.4348 9.72766ZM2.91735 9.72766C3.79257 9.55262 4.72614 9.75683 5.45549 10.282C6.62245 11.0988 7.11841 12.7326 6.59328 14.0454C6.30154 14.8039 5.71806 15.4458 4.98871 15.7959C4.14266 16.2335 3.0924 16.2335 2.21718 15.8542C1.45865 15.5041 0.816826 14.8331 0.525086 14.0454C0.233345 13.2577 0.262519 12.3241 0.612608 11.5656C1.02104 10.6321 1.89626 9.93188 2.91735 9.72766Z" fill="#7F8184"/>
</g>
</svg>
