<svg id="Layer_1" xmlns="http://www.w3.org/2000/svg" width="391.2" height="88.4" viewBox="0 0 391.2 88.4"><style>.st0{fill:#9fa4a6}</style><path class="st0" d="M157.3 26.2c4.1-.6 8.4.3 11.9 2.5 4.2 2.6 7.3 7 8.2 11.9.6 3.4.3 6.9-1 10.1-1.4 3.5-3.9 6.5-7.2 8.4-3.8 2.3-8.6 3.1-13 2.2-4-.8-7.7-3-10.2-6.1-3.1-3.8-4.4-8.9-3.7-13.7.5-3.6 2.1-7 4.5-9.6 2.7-3.1 6.5-5.1 10.5-5.7m.7 6.9c-2.9.5-5.5 2.3-7.1 4.7-1.9 2.8-2.3 6.4-1.2 9.6 1.5 4.4 6.1 7.5 10.8 7.2 3.4-.2 6.7-2.1 8.5-5 1.2-1.9 1.9-4.2 1.7-6.5-.2-3.4-2.1-6.6-4.9-8.4-2.3-1.4-5.2-2.1-7.8-1.6zM262.1 27c0-.6.5-1.1 1.1-1h25.1c.6-.1 1.1.5 1.1 1.1v4.2c0 .5-.3 1.1-.9 1.1h-9.2v27.2c.1.6-.5 1.2-1.1 1.2h-4.9c-.7.1-1.2-.6-1.1-1.2V32.4H263c-.6 0-.9-.6-.9-1.1-.1-1.4-.1-2.8 0-4.3zm51.3.3c-.1-.7.7-1.3 1.4-1.3h4.3c.6 0 1.1.6 1 1.2v9.3c3.3-1.1 6.9-1.5 10.3-.4 3.1 1 5.5 3.5 6.7 6.5 1.5 3.8 1.5 8.2-.3 11.9-1.3 2.7-3.5 5-6.3 6.1-4.2 1.6-9.3.5-12.2-2.9-.1.9.3 2-.3 2.7-.8.6-1.9.2-2.9.3-.8.1-1.7-.3-1.6-1.2-.1-10.6-.1-21.4-.1-32.2m6.7 15.8v8.7c1.1 3.1 5.3 4.4 8.1 2.8 1.3-.7 2.2-2 2.7-3.4.8-2.2.6-4.8-.6-6.8a6.2 6.2 0 0 0-4-2.7c-2.2-.2-4.3.3-6.2 1.4zm23.4-16.9c1.5-.2 3 0 4.5-.1.7-.1 1.4.5 1.4 1.2v24.5c0 .6-.1 1.2.1 1.7.4 1 1.9.3 2.2 1.4.2 1.1 0 2.3.1 3.5 0 .7.2 1.5-.3 2.1-.5.6-1.4.4-2.1.4-1.4-.1-2.9.2-4.2-.4-1.4-.7-2.6-2.2-2.6-3.9V27.2c.1-.4.5-.9.9-1zm-156 12.9c2-2.3 5.1-3.7 8.1-3.6 3-.1 6 1.2 8.1 3.3 2.5 2.5 3.7 6.1 3.7 9.6.1 3.6-1.2 7.2-3.8 9.7-2.2 2.1-5.2 3.2-8.2 3.2-2.1 0-4.2-.3-6.1-1v9.1c0 .7-.5 1.4-1.2 1.4h-4.3c-.7.1-1.4-.7-1.3-1.4V37c0-.9 1-1.2 1.8-1.1 1 .1 2.3-.4 3.1.5.3 1 .1 1.9.1 2.7m1.7 5.9c-.1 3 0 5.9 0 8.9 1.6.9 3.5 1.4 5.4 1.4 1.7-.1 3.4-.9 4.4-2.3 2.2-3 1.8-7.9-1.2-10.2-2.7-2.1-7.3-1-8.6 2.2zm28.2-7.8c2.8-1.7 6.3-2.1 9.5-1.3 2.9.8 5.5 2.8 6.9 5.5 1.2 2.2 1.5 4.9 1.2 7.3-.1.7-.8 1.1-1.4 1H218c.1 2 1.2 3.8 2.9 4.8 2.6 1.5 6.1.9 8.4-.9.4-.4.9-.5 1.5-.3.7.7 1.2 1.6 1.9 2.4.3.5.9 1 .8 1.6-.1.6-.7.9-1.2 1.3-3.3 2.5-7.7 3.4-11.7 2.4-2.7-.7-5.2-2.3-6.9-4.6-2.7-3.7-3.2-8.7-1.6-12.9 1-2.6 2.9-4.9 5.3-6.3m3.4 4.6c-1.3.7-2.2 2.1-2.4 3.5h10c-.2-1-.5-2-1.2-2.7-1.7-1.7-4.4-1.9-6.4-.8zm24.5-2.8c1.6-1.8 3.8-3.1 6.2-3.4 3-.3 6.4 0 8.7 2.2 2.2 2.1 2.8 5.2 3 8.2v13.7c0 .7-.6 1.2-1.2 1.2h-4.4c-.6 0-1.1-.6-1.1-1.2V46.6c0-1.4-.4-3-1.5-3.9-1.2-1-2.9-1.1-4.3-.7-1.8.4-3.2 1.9-3.8 3.6-.1 4.8 0 9.6 0 14.3 0 .6-.6 1-1.2 1h-4.6c-.7-.1-1.1-.8-1-1.4v-22c-.1-.7.6-1.4 1.3-1.3 1 0 2-.1 3 0 1.3.3.9 1.8.9 2.8zm44.7-2.3c3.2-.9 6.6-1.3 9.9-1.1 2.1.2 4.4.9 5.7 2.6 1.5 2 1.8 4.6 1.9 7v14.4c0 .7-.6 1.3-1.3 1.2-1 0-2 .1-2.9-.1-.9-.4-.6-1.6-.6-2.3-2 2-4.8 3.1-7.7 3.1-2.3.1-4.7-.7-6.3-2.4-1.8-1.8-2.4-4.5-2.2-7 .2-2.4 1.8-4.5 3.9-5.6 3.3-1.7 7.2-1.6 10.7-.7 0-1.2 0-2.6-.8-3.6-.7-.8-1.8-1-2.8-1-2.3.1-4.6.4-6.8.9-.6.2-1.1-.3-1.2-.8-.3-1.2-.5-2.3-.6-3.5-.2-.6.5-1 1.1-1.1m4.8 13.3c-2.3 1.1-2.3 4.8-.1 6 2.2 1.1 5.2 0 6.3-2.2.1-1.2 0-2.4 0-3.6-1.9-.7-4.2-1.1-6.2-.2zm63.6-10.5c2.3-2.5 5.7-4 9-3.9 3.6-.1 7.3 1.6 9.3 4.6 1.8 2.5 2.3 5.6 1.9 8.6-.1.6-.8 1.1-1.4 1h-15.6c.1 2.2 1.5 4.3 3.6 5.1 2.6 1 5.6.4 7.8-1.3.4-.4 1.3-.6 1.7-.1.8.9 1.5 1.9 2.2 2.9.4.5.3 1.2-.2 1.6a14.4 14.4 0 0 1-9.3 3.4c-3.4 0-6.7-1.4-9-3.9-4.6-4.8-4.6-13.2 0-18m5.8 2.5c-1.2.7-1.8 2-2.1 3.3h10c-.1-1.1-.6-2.2-1.4-3-1.8-1.5-4.6-1.5-6.5-.3zm14.9-6.4h5.3v1.1h-2v5h-1.3v-5h-2v-1.1zm6.1 0h1.5c.5 1.2 1.1 2.5 1.5 3.8.5-1.3 1-2.5 1.5-3.8h1.5v6.1h-1.1c0-1.6 0-3.2.1-4.8-.4 1.3-.9 2.6-1.4 3.8h-1c-.5-1.2-.9-2.5-1.5-3.7.2 1.5.2 3.1.2 4.6h-1.2c-.1-2-.1-4-.1-6z" id="_x23_20201fff"/><path class="st0" d="M73 .2c8.5-.9 17.3.7 25 4.7 8.4 4.3 15.3 11.4 19.4 19.9 5 10 5.8 22 2.4 32.6-2.6 8.4-7.8 15.9-14.7 21.4-6.9 5.5-15.5 8.9-24.2 9.5-9.5.7-19.2-1.7-27.2-7-4.8-3.1-9-7.2-12.3-11.9-4.4-6.3-7.1-13.7-7.7-21.3-.7-7.8.7-15.9 4.1-23 3.7-7.7 9.7-14.3 17-18.7C60.2 3 66.5.9 73 .2m2.8 33.1c-3.7.6-7 3.2-8.4 6.7a10.6 10.6 0 0 0 0 8.2c1.7 4.4 6.5 7.4 11.2 6.9 4.2-.3 8.1-3.4 9.4-7.4 1.6-4.4 0-9.6-3.8-12.3-2.3-1.8-5.5-2.6-8.4-2.1zm-66.9 0c3-.6 6.2.1 8.7 1.9 4 2.8 5.7 8.4 3.9 12.9-1 2.6-3 4.8-5.5 6-2.9 1.5-6.5 1.5-9.5.2-2.6-1.2-4.8-3.5-5.8-6.2s-.9-5.9.3-8.5c1.4-3.2 4.4-5.6 7.9-6.3z" id="_x23_dd3744ff"/></svg>