<svg width="40" height="40" viewBox="0 0 40 40" fill="none" xmlns="http://www.w3.org/2000/svg">
<g clip-path="url(#clip0_10780_129198)">
<path d="M21.1512 21.8667C19.447 23.5715 19.447 26.3388 21.1512 28.0435C22.8555 29.7482 25.6219 29.7482 27.3262 28.0435C29.0304 26.3388 29.0304 23.5715 27.3262 21.8667C25.6219 20.162 22.8555 20.162 21.1512 21.8667ZM25.7737 26.4906C24.9332 27.3312 23.5558 27.3312 22.7154 26.4906C21.875 25.6499 21.875 24.2721 22.7154 23.4314C23.5558 22.5907 24.9332 22.5907 25.7737 23.4314C26.6141 24.2721 26.6141 25.6499 25.7737 26.4906ZM27.2561 0.394074L24.5831 3.06794C24.0578 3.59337 24.0578 4.44574 24.5831 4.97117L35.0303 15.4214C35.5556 15.9469 36.4077 15.9469 36.933 15.4214L39.606 12.7476C40.1313 12.2221 40.1313 11.3698 39.606 10.8443L29.1588 0.394074C28.6335 -0.131358 27.7814 -0.131358 27.2561 0.394074ZM8.52119 34.5705C8.99978 34.0918 8.99978 33.3212 8.52119 32.8424L7.15547 31.4763C6.67688 30.9976 5.90647 30.9976 5.42788 31.4763L2.6264 34.2786L1.85599 33.508C1.43576 33.0876 0.735391 33.0876 0.315167 33.508C-0.105056 33.9283 -0.105056 34.6289 0.315167 35.0493L4.9493 39.6847C5.36952 40.1051 6.06989 40.1051 6.49011 39.6847C6.91034 39.2644 6.91034 38.5638 6.49011 38.1435L5.7197 37.3728L8.52119 34.5705Z" fill="#F5A800"/>
<path d="M22.6691 8.06499L16.7276 14.0082C16.2024 14.5336 16.2024 15.4094 16.7276 15.9348L20.3929 19.6011C22.9843 17.7329 26.6262 17.9665 28.9608 20.3017L31.9257 17.336C32.451 16.8105 32.451 15.9348 31.9257 15.4094L24.5951 8.07667C24.0582 7.53956 23.1944 7.53956 22.6691 8.06499ZM18.8521 21.1541L16.6809 18.9823C16.179 18.4802 15.3386 18.4802 14.8366 18.9823L7.1909 26.6303C6.68897 27.1323 6.68897 27.973 7.1909 28.4751L11.5215 32.807C12.0235 33.3091 12.8639 33.3091 13.3658 32.807L18.2801 27.8913C17.2529 25.7312 17.4397 23.1391 18.8521 21.1541Z" fill="#425CC7"/>
</g>
<defs>
<clipPath id="clip0_10780_129198">
<rect width="40" height="40" fill="white"/>
</clipPath>
</defs>
</svg>
