<?xml version="1.0" encoding="utf-8"?>
<!-- Generator: Adobe Illustrator 24.2.1, SVG Export Plug-In . SVG Version: 6.00 Build 0)  -->
<svg version="1.1" id="Layer_2" xmlns="http://www.w3.org/2000/svg" xmlns:xlink="http://www.w3.org/1999/xlink" x="0px" y="0px"
	 viewBox="0 0 231.9 38" style="enable-background:new 0 0 231.9 38;" xml:space="preserve">
<style type="text/css">
	.st0{fill:#00A1FF;}
	.st1{fill:#00C4D6;}
	.st2{fill:#006EFF;}
</style>
<path d="M176.3,23.8c0-0.1-0.1-0.2-0.3-0.1c-1.5,1.8-4,3.2-6.9,3.2c-4.4,0-7.3-3.1-7.3-7.9c0-4.9,2.7-7.9,7.2-7.9
	c2.6,0,5.2,1.2,6.8,2.9c0.1,0.1,0.3,0,0.3-0.1v-2.5c-1.8-1.6-4.4-2.6-7.1-2.6c-2.7,0-5.2,1-6.8,2.8c-1.6,1.8-2.6,4.4-2.6,7.3
	c0,6.1,3.8,10.2,9.5,10.2c2.7,0,5.4-1,7.2-2.7L176.3,23.8L176.3,23.8z"/>
<path d="M54.7,9.4v2.1h6.7v17.2h2.3V11.5h6.7V9.4H54.7z"/>
<path d="M227.5,16c-1.2-1.3-3.2-1.8-4.6-1.8c-2,0-3.7,0.7-4.9,2c-1.3,1.3-1.9,3.2-1.9,5.4c0,5.1,3.4,7.4,6.8,7.4c2,0,3.6-0.7,4.6-2
	v1.6h2.3V9.3h-2.4V16z M227.5,21.6c0,2.6-1.5,5.3-4.4,5.3c-2.2,0-4.6-1.6-4.6-5.2c0-2.6,1.4-5.5,4.4-5.5
	C226.3,16.3,227.5,19.1,227.5,21.6z"/>
<path d="M181.6,9.5h-2.3v19.3h2.3V9.5z"/>
<path d="M111.9,25.1c0-0.1-0.1-0.2-0.3-0.1c-1.5,1.4-3.8,1.9-4.7,1.9c-3.1,0-5.1-2-5.1-5.3s2-5.3,5.1-5.3c0.9,0,3.1,0.3,4.7,1.6
	c0.1,0.1,0.2,0,0.2-0.1v-2.1c-0.9-0.6-3-1.5-5-1.5c-4.3,0-7.2,3-7.2,7.4c0,4.4,2.9,7.4,7.2,7.4c1.8,0,3.5-0.5,5-1.5L111.9,25.1z"/>
<path d="M81.6,24.7c0-0.1-0.2-0.2-0.3-0.1c-1,1.3-3.5,2.5-4.9,2.5c-1.5,0-2.8-0.4-3.5-1.3c-0.9-0.9-1.4-2.2-1.4-3.5h10.8v-0.2
	c0-3.1-0.5-4.8-1.9-6.1c-1.1-1.1-2.6-1.8-4.5-1.8c-4,0-6.7,2.9-6.7,7.3c0.1,4.6,2.8,7.4,7.1,7.4c2,0,3.8-0.7,5.4-2L81.6,24.7z
	 M80.1,20.3h-8.6v-0.1c0.1-1.2,0.6-2.2,1.5-3.1c0.8-0.6,1.8-0.9,2.7-0.9C78.4,16.2,80,17.8,80.1,20.3z"/>
<path d="M211.2,21.8c0,3.8-2.2,5.2-4.2,5.2c-1.8,0-3.8-1.3-3.8-3.7v-8.7H201v8.7c0,3.4,2.4,5.8,5.9,5.8c2,0,3.4-0.6,4.4-1.9v1.5h2
	V14.6h-2.1L211.2,21.8z"/>
<path d="M91.4,14.2c-1.8,0-3.2,0.6-4.3,1.7v-1.3H85v14.1h2.2v-8.1c0-1.3,0.4-2.5,1.1-3.2c0.9-0.8,1.8-1.1,3-1.1
	c1.8,0.1,3.5,1.2,3.5,3.7v8.6h2.3v-8.6c0-1.8-0.6-3.2-1.6-4.2C94.5,14.7,93.1,14.2,91.4,14.2z"/>
<path d="M126.5,24.7c0-0.1-0.2-0.2-0.3-0.1c-1,1.3-3.5,2.5-4.9,2.5c-1.5,0-2.8-0.4-3.5-1.3c-0.9-0.9-1.4-2.2-1.4-3.5h10.8v-0.2
	c0-3.1-0.5-4.8-1.9-6.1c-1.2-1.1-2.7-1.8-4.6-1.8c-4,0-6.7,2.9-6.7,7.3c0.1,4.6,2.8,7.4,7.1,7.4c2,0,3.8-0.7,5.4-2L126.5,24.7z
	 M125,20.3h-8.6v-0.1c0.1-1.2,0.6-2.2,1.5-3.1c0.8-0.6,1.8-0.9,2.7-0.9C123.2,16.2,124.8,17.8,125,20.3z"/>
<path d="M136.2,14.2c-1.8,0-3.2,0.6-4.3,1.7v-1.3h-2.2v14.1h2.1v-8.1c0-1.3,0.4-2.5,1.1-3.2c0.9-0.8,1.8-1.1,3-1.1
	c1.8,0.1,3.5,1.2,3.5,3.7v8.6h2.2v-8.6c0-1.8-0.6-3.2-1.6-4.2C139.3,14.7,137.9,14.2,136.2,14.2z"/>
<path d="M149.2,28.9c1.4-0.1,2.9-0.6,2.9-0.6v-2.1c0-0.1-0.1-0.2-0.2-0.1c-0.6,0.2-1.8,0.6-2.4,0.6c-0.3,0.1-0.4,0.1-0.6-0.1
	c-0.1-0.1-0.1-0.2-0.1-0.4v-9.5h4.1v-2h-4.1v-3.8h-2.3v3.8h-2.3v2h2.3v9.7c0,0.9,0.3,1.5,0.8,2C147.8,28.7,148.4,28.9,149.2,28.9z"
	/>
<path d="M191.6,14.2c-4.1,0-6.8,3-6.8,7.4c0,4.4,2.7,7.4,6.8,7.4c4.1,0,6.8-3,6.8-7.4C198.5,17.2,195.7,14.2,191.6,14.2z
	 M186.8,21.6c0-3.2,1.9-5.2,4.7-5.2c2.8,0,4.7,2.1,4.7,5.3s-1.9,5.3-4.7,5.3C188.8,26.9,186.8,24.8,186.8,21.6z"/>
<path class="st0" d="M46.3,17c-2-2-4.8-3.3-7.8-3.3c-2.7,0-5,0.9-7,2.6c-0.9,0.7-1.8,1.5-3,2.7c-0.6,0.5-17.2,16.7-17.2,16.7
	c0.9,0.1,2.1,0.1,3.2,0.2c1,0,20.1,0,20.9,0c1.6,0,2.7,0,3.8-0.1c2.6-0.2,5-1.1,7-3.1C50.5,28.3,50.6,21.4,46.3,17z M43.1,29.5
	c-0.9,0.8-2.4,1.8-4.8,1.9c-1.2,0-2.5,0-3.1,0H21.8c4.8-4.7,9.1-8.8,9.5-9.3c0.4-0.4,1.4-1.4,2.3-2.1c1.9-1.7,3.6-2,4.8-2
	c1.9,0,3.6,0.8,4.8,2C45.8,22.7,45.8,26.9,43.1,29.5z"/>
<path class="st1" d="M19.5,16c-2-1.5-4.2-2.3-6.6-2.3C9.8,13.7,7,14.9,5,17c-4.3,4.4-4.2,11.3,0.2,15.6c1.8,1.7,3.9,2.7,6.2,3
	l4.3-4.2c-0.7,0-1.7,0-2.6,0c-2.5-0.1-4-1-4.8-1.9c-2.7-2.6-2.7-6.8-0.1-9.5c1.2-1.2,2.9-2,4.8-2c1.2,0,2.8,0.3,4.6,1.8
	c0.9,0.7,2.8,2.4,3.6,3.1c0,0,0.1,0,0.1,0l3-2.9c0,0,0-0.1,0-0.1C22.7,18.6,20.7,16.9,19.5,16z"/>
<path class="st2" d="M39.6,11.2c-2.1-5.8-7.5-9.9-14-9.9c-7.4,0-13.5,5.4-14.6,12.5c0.6-0.1,1.2-0.1,1.8-0.1c0.9,0,1.7,0.1,2.5,0.3
	c0,0,0,0,0,0c1-4.8,5.2-8.3,10.2-8.3c4.2,0,7.8,2.5,9.5,6.1c0,0,0.1,0.1,0.1,0.1c1.3-0.3,2.7-0.5,4.2-0.4
	C39.6,11.4,39.6,11.3,39.6,11.2z"/>
</svg>
