<?xml version="1.0" encoding="utf-8"?>
<!-- Generator: Adobe Illustrator 24.2.1, SVG Export Plug-In . SVG Version: 6.00 Build 0)  -->
<svg version="1.1" id="Layer_2" xmlns="http://www.w3.org/2000/svg" xmlns:xlink="http://www.w3.org/1999/xlink" x="0px" y="0px"
	 viewBox="0 0 135.8 38" style="enable-background:new 0 0 135.8 38;" xml:space="preserve">
<style type="text/css">
	.st0{fill:#FFFFFF;}
	.st1{fill:#FED10A;}
	.st2{fill:#24BBB1;}
	.st3{fill:#EF5098;}
	.st4{fill:#17A8E0;}
	.st5{fill:#93C83E;}
	.st6{fill:#0779A1;}
</style>
<path class="st0" d="M40.7,19.9c0-1.5-0.5-3-1.3-4.2c-0.9-1.2-2.1-2.2-3.5-2.7c0.1-0.7,0.2-1.3,0.2-2c0-5.8-4.7-10.6-10.6-10.6
	c-3.4,0-6.6,1.6-8.6,4.4c-1-0.8-2.2-1.2-3.4-1.2c-1.5,0-2.9,0.6-4,1.6s-1.6,2.5-1.6,4c0,0.7,0.1,1.3,0.3,2c-2.9,1-4.9,3.8-4.9,7
	c0,1.5,0.5,3,1.3,4.3c0.9,1.2,2.1,2.2,3.5,2.7C8,25.7,8,26.4,8,27.1c0,5.8,4.7,10.6,10.6,10.6c1.7,0,3.3-0.4,4.8-1.2
	c1.5-0.8,2.8-1.9,3.7-3.2c1,0.8,2.2,1.2,3.4,1.2c1.5,0,2.9-0.6,4-1.6c1.1-1.1,1.6-2.5,1.6-4c0-0.7-0.1-1.3-0.3-2
	C38.7,25.8,40.7,23,40.7,19.9"/>
<path class="st1" d="M18,16.4l8.2,3.7l8.3-7.2c0.1-0.6,0.2-1.2,0.2-1.8c0-2.5-1-4.8-2.7-6.5c-1.7-1.7-4.1-2.7-6.5-2.7
	c-3.1,0-5.9,1.5-7.6,4L16.4,13L18,16.4z"/>
<path class="st2" d="M9.5,25.1c-0.1,0.6-0.2,1.2-0.2,1.9c0,2.5,1,4.8,2.7,6.5c1.7,1.7,4.1,2.7,6.6,2.7c1.5,0,3-0.4,4.3-1.1
	c1.3-0.7,2.5-1.7,3.3-3l1.4-7.1l-1.8-3.5l-8.2-3.8L9.5,25.1z"/>
<path class="st3" d="M9.4,10.9l5.6,1.3l1.2-6.4c-0.8-0.6-1.7-0.9-2.7-0.9c-1.2,0-2.3,0.5-3.1,1.3c-0.8,0.8-1.3,2-1.3,3.1
	C9.2,9.9,9.3,10.4,9.4,10.9"/>
<path class="st4" d="M9,12.2c-2.5,0.8-4.3,3.2-4.3,5.9c0,2.6,1.6,4.9,4,5.8l7.9-7.1l-1.4-3.1L9,12.2z"/>
<path class="st5" d="M27.7,32.1c0.8,0.6,1.7,0.9,2.7,0.9c1.2,0,2.3-0.5,3.1-1.3c0.8-0.8,1.3-2,1.3-3.1c0-0.5-0.1-1-0.3-1.5l-5.6-1.3
	L27.7,32.1z"/>
<path class="st6" d="M28.8,24.3l6.2,1.4c1.2-0.4,2.3-1.2,3.1-2.3c0.8-1.1,1.2-2.3,1.2-3.6c0-2.6-1.6-4.9-4-5.8l-8.1,7.1L28.8,24.3z"
	/>
<path d="M60.2,27.1l0.9-0.1l0.1,1.9c-2.5,0.3-4.6,0.5-6.4,0.5c-2.4,0-4-0.7-5-2.1c-1-1.4-1.5-3.5-1.5-6.4c0-5.8,2.3-8.7,6.9-8.7
	c2.2,0,3.9,0.6,5,1.9c1.1,1.2,1.6,3.2,1.6,5.8l-0.1,1.9H50.8c0,1.8,0.3,3.2,1,4c0.7,0.9,1.8,1.3,3.4,1.3
	C56.8,27.3,58.5,27.2,60.2,27.1L60.2,27.1z M59.3,20c0-2-0.3-3.4-1-4.3c-0.6-0.8-1.7-1.3-3.1-1.3s-2.6,0.4-3.3,1.3S50.8,18,50.8,20
	L59.3,20z M65.2,29.3V7.7h2.5v21.6L65.2,29.3z M83.2,17.7V26c0,0.8,2,0.8,2,0.8l-0.1,2.2c-1.7,0-3.2,0.1-4-0.7
	c-1.9,0.8-3.9,1.2-5.9,1.2c-1.5,0-2.7-0.4-3.4-1.3c-0.8-0.8-1.2-2.1-1.2-3.7c0-1.6,0.4-2.8,1.2-3.5s2.1-1.2,3.8-1.4l5.2-0.5v-1.4
	c0-1.1-0.2-1.9-0.7-2.4c-0.5-0.5-1.2-0.7-2-0.7h-6.5v-2.2h6.3c1.9,0,3.2,0.4,4.1,1.3C82.8,14.5,83.2,15.8,83.2,17.7L83.2,17.7z
	 M73.1,24.4c0,2,0.8,3,2.5,3c1.5,0,3-0.2,4.4-0.7l0.7-0.3v-5.4l-4.9,0.5c-1,0.1-1.7,0.4-2.1,0.8C73.3,22.7,73.1,23.4,73.1,24.4
	L73.1,24.4z M92.8,14.6c-2.4,0-3.6,0.8-3.6,2.5c0,0.8,0.3,1.3,0.8,1.6c0.5,0.3,1.8,0.6,3.8,1c2,0.3,3.3,0.8,4.1,1.4
	c0.8,0.6,1.2,1.8,1.2,3.4c0,1.7-0.5,2.9-1.6,3.7c-1.1,0.8-2.7,1.2-4.8,1.2c-1.4,0-5.9-0.5-5.9-0.5l0.1-2.1l5.8,0.4
	c1.3,0,2.2-0.2,2.9-0.6c0.7-0.4,1-1.1,1-2c0-0.9-0.3-1.6-0.8-1.9c-0.6-0.3-1.8-0.7-3.8-1c-1.9-0.3-3.3-0.7-4.1-1.4
	c-0.8-0.6-1.2-1.7-1.2-3.3c0-1.6,0.6-2.8,1.7-3.6c1.1-0.8,2.5-1.2,4.2-1.2c1.3,0,6,0.3,6,0.3v2.2L92.8,14.6L92.8,14.6z M111,14.8
	h-5.2v7.9c0,1.9,0.1,3.1,0.4,3.7c0.3,0.6,0.9,0.9,2,0.9l2.9-0.2l0.2,2c-1.5,0.2-2.6,0.4-3.3,0.4c-1.7,0-2.9-0.4-3.6-1.3
	c-0.7-0.8-1-2.4-1-4.8v-8.7H101v-2.1h2.3v-5h2.4v5h5.2L111,14.8z M114.5,10.6V7.7h2.5v2.9L114.5,10.6L114.5,10.6z M114.5,29.3V12.7
	h2.5v16.6H114.5z M127.6,12.4c0.7,0,2,0.1,3.7,0.4l0.8,0.1l-0.1,2l-3.9-0.3c-1.9,0-3.1,0.4-3.8,1.3c-0.7,0.9-1,2.5-1,4.9
	c0,2.4,0.3,4.1,0.9,5c0.6,0.9,1.9,1.4,3.9,1.4L132,27l0.1,2l-4.6,0.5c-2.6,0-4.3-0.7-5.3-2c-1-1.3-1.5-3.5-1.5-6.7
	c0-3.1,0.5-5.3,1.6-6.6C123.4,13,125.2,12.4,127.6,12.4L127.6,12.4z"/>
</svg>
