<?xml version="1.0" encoding="utf-8"?>
<!-- Generator: Adobe Illustrator 24.2.1, SVG Export Plug-In . SVG Version: 6.00 Build 0)  -->
<svg version="1.0" id="Layer_3" xmlns="http://www.w3.org/2000/svg" xmlns:xlink="http://www.w3.org/1999/xlink" x="0px" y="0px"
	 viewBox="0 0 129.9 38" style="enable-background:new 0 0 129.9 38;" xml:space="preserve">
<style type="text/css">
	.st0{fill-rule:evenodd;clip-rule:evenodd;fill:#1A203F;}
	.st1{fill:#1A203F;}
</style>
<path class="st0" d="M18.9,1.8c9.5,0,17.2,7.7,17.2,17.2c0,9.5-7.7,17.2-17.2,17.2S1.7,28.5,1.7,19C1.6,9.5,9.4,1.8,18.9,1.8
	C18.9,1.8,18.9,1.8,18.9,1.8z M29.7,16.6c0.1-0.5,0.2-1,0.2-1.5c0-0.5-0.1-1-0.2-1.5V8.4l-0.6,0.1c-2,0.2-4,0.4-6,0.5
	c-2.7-1.1-5.8-1.1-8.5,0c-2-0.1-4-0.3-6-0.5L8.1,8.5v5.2c-0.1,0.5-0.2,1-0.2,1.5c0,0.5,0.1,1,0.2,1.5c-0.9,0.5-1.7,1.7-1.7,3.3
	c-0.1,3.6,2.4,7.2,2.4,7.2c0.3-0.8,0.6-1.5,1.1-2.2c0.9,1.4,2.1,2.6,3.6,3.4c-0.2,0-0.4,0.1-0.5,0.3c-0.1-0.1-0.3-0.2-0.4-0.2h-0.2
	c-0.3,0-0.6,0.3-0.6,0.6v1.9c0,0.3,0.3,0.6,0.6,0.6h0.2c0.2,0,0.4-0.1,0.5-0.3c0.1,0.1,0.3,0.3,0.5,0.3h0.1c0.2,0,0.4-0.1,0.5-0.3
	c0.1,0.1,0.3,0.3,0.5,0.3h0c0.3,0,0.6-0.3,0.6-0.6v-1.7c2.4,0.8,4.9,0.8,7.2,0v1.6c0,0.3,0.3,0.6,0.6,0.6h0.1c0.2,0,0.4-0.1,0.5-0.3
	c0.1,0.1,0.3,0.3,0.5,0.3h0.1c0.2,0,0.4-0.1,0.5-0.3c0.1,0.1,0.3,0.3,0.5,0.3h0.1c0.3,0,0.6-0.3,0.6-0.6v-1.9c0-0.3-0.3-0.6-0.6-0.6
	h-0.2c-0.2,0-0.4,0.1-0.5,0.3c-0.1-0.1-0.3-0.3-0.5-0.3c1.4-0.8,2.7-2,3.6-3.4c0.5,0.7,0.8,1.4,1.1,2.2c0.3,0.8,2.5-3.5,2.4-7.2
	C31.5,18.6,30.8,17.3,29.7,16.6z M18.9,22.2l-2.1-2.1c0.9-0.6,1.7-1.5,2.1-2.5c0.5,1,1.2,1.8,2.1,2.5L18.9,22.2z M13.6,19.9
	c-2.6,0-4.7-2.1-4.7-4.7c0-2.6,2.1-4.7,4.7-4.7c2.6,0,4.7,2.1,4.7,4.7C18.3,17.8,16.3,19.9,13.6,19.9z M24.2,19.9
	c-2.6,0-4.7-2.1-4.7-4.7c0-2.6,2.1-4.7,4.7-4.7c2.6,0,4.7,2.1,4.7,4.7C28.9,17.8,26.8,19.9,24.2,19.9z M24.2,13.2c1.1,0,2,0.9,2,2
	s-0.9,2-2,2c-1.1,0-2-0.9-2-2S23.1,13.2,24.2,13.2z M13.6,13.2c1.1,0,2,0.9,2,2s-0.9,2-2,2c-1.1,0-2-0.9-2-2
	C11.7,14.1,12.6,13.2,13.6,13.2z"/>
<path class="st1" d="M45.1,28.7V7.2h2.5v8.2c1.6-0.9,3.2-1.4,4.7-1.4c1.5,0,2.7,0.4,3.7,1.2c1,0.8,1.5,1.9,1.5,3.4v10.1h-2.5V18.5
	c0-1.6-1-2.4-3-2.4c-1.4,0-2.9,0.5-4.5,1.6v11H45.1z"/>
<path class="st1" d="M61.7,24.3v-9.9h2.5v10c0,0.8,0.4,1.5,1.1,1.9c1.6,0.9,3.5,0.9,5.1,0c0.7-0.4,1.1-1.1,1.1-1.9v-10H74v9.9
	c0,1.4-0.7,2.8-1.9,3.5c-2.5,1.7-5.9,1.7-8.4,0C62.4,27.1,61.7,25.7,61.7,24.3z"/>
<path class="st1" d="M78.2,28.6V14.4H80l0.3,0.8c1-0.8,2.3-1.2,3.6-1.2c0.8,0,1.5,0.1,2.2,0.4c0.7,0.2,1.3,0.6,1.8,1.1
	c1-0.9,2.4-1.5,3.8-1.5c1.1,0,2.2,0.3,3.2,0.8c1,0.6,1.5,1.3,1.5,2.3v11.6h-2.5V18.2c0-1.4-0.9-2.1-2.6-2.1c-1,0-2,0.3-2.8,1v11.6
	h-2.5V18.2c0-1.4-0.9-2.1-2.6-2.1c-1,0-2,0.3-2.8,1v11.6L78.2,28.6z"/>
<path class="st1" d="M101.3,10.8V8.7h2.5v2.2H101.3z M101.3,28.7V14.4h2.5v14.3H101.3z"/>
<path class="st1" d="M109.9,26.9c-1.5-1.4-2.2-3.3-2.2-5.4s0.7-3.9,2.2-5.4c1.5-1.4,3.4-2.2,5.7-2.2c2.3,0,4.2,0.7,5.7,2.2
	c1.5,1.4,2.3,3.4,2.2,5.4c0,2-0.8,4-2.2,5.4c-1.5,1.5-3.4,2.2-5.7,2.2C113.3,29.1,111.4,28.4,109.9,26.9z M111.7,17.7
	c-1,1.1-1.5,2.4-1.5,3.8c0,1.4,0.5,2.8,1.5,3.8c1,1,2.3,1.6,3.9,1.6c1.6,0,2.9-0.5,3.9-1.6c1-1,1.5-2.4,1.5-3.8
	c0-1.4-0.5-2.8-1.5-3.8c-1-1-2.3-1.6-3.9-1.6C114,16.1,112.7,16.6,111.7,17.7z"/>
</svg>
