<?xml version="1.0" encoding="utf-8"?>
<!-- Generator: Adobe Illustrator 24.2.1, SVG Export Plug-In . SVG Version: 6.00 Build 0)  -->
<svg version="1.1" id="Layer_2" xmlns="http://www.w3.org/2000/svg" xmlns:xlink="http://www.w3.org/1999/xlink" x="0px" y="0px"
	 viewBox="0 0 229.1 38" style="enable-background:new 0 0 229.1 38;" xml:space="preserve">
<style type="text/css">
	.st0{fill:#EA4335;}
	.st1{fill:#4285F4;}
	.st2{fill:#34A853;}
	.st3{fill:#FBBC05;}
	.st4{fill:#5F6368;}
</style>
<path class="st0" d="M27.8,10.7h1.3L32.8,7l0.2-1.6c-2.1-1.9-4.6-3.2-7.3-3.8C22.9,1,20,1.1,17.4,1.9c-2.7,0.8-5.1,2.3-7,4.4
	c-1.9,2-3.3,4.6-4.1,7.3c0.4-0.2,0.9-0.2,1.3-0.1l7.3-1.2c0,0,0.4-0.6,0.6-0.6c1.6-1.8,3.7-2.8,6-3C23.7,8.5,26,9.2,27.8,10.7
	L27.8,10.7z"/>
<path class="st1" d="M37.9,13.6c-0.8-3.2-2.6-6-5-8.2l-5.1,5.2c1.1,0.9,1.9,2,2.5,3.3s0.9,2.7,0.8,4.1v0.9c0.6,0,1.2,0.1,1.7,0.4
	c0.6,0.2,1.1,0.6,1.5,1c0.4,0.4,0.8,0.9,1,1.5c0.2,0.6,0.3,1.2,0.3,1.8c0,0.6-0.1,1.2-0.3,1.8c-0.2,0.6-0.6,1.1-1,1.5
	c-0.4,0.4-0.9,0.8-1.5,1c-0.6,0.2-1.1,0.4-1.7,0.4h-9.1l-0.9,0.9v5.6l0.9,0.9h9.1c2.5,0,5-0.8,7.1-2.3c2.1-1.5,3.6-3.7,4.3-6.2
	c0.8-2.5,0.7-5.1-0.1-7.6C41.6,17.1,40.1,15,37.9,13.6z"/>
<path class="st2" d="M13,35.7h9.1v-7.5H13c-0.6,0-1.3-0.1-1.9-0.4l-1.3,0.4l-3.7,3.7l-0.3,1.3C7.9,34.8,10.4,35.7,13,35.7z"/>
<path class="st3" d="M13,11.5c-2.5,0-4.9,0.8-6.9,2.3c-2,1.5-3.5,3.6-4.3,6s-0.8,5-0.1,7.4c0.7,2.4,2.2,4.5,4.1,6.1l5.3-5.4
	c-0.7-0.3-1.3-0.8-1.7-1.4c-0.5-0.6-0.8-1.3-0.9-2c-0.1-0.7-0.1-1.5,0.1-2.2c0.2-0.7,0.6-1.4,1.1-1.9c0.5-0.5,1.2-0.9,1.9-1.2
	c0.7-0.2,1.5-0.3,2.2-0.1c0.7,0.1,1.4,0.4,2,0.9c0.6,0.5,1,1.1,1.3,1.8l5.3-5.4c-1.1-1.5-2.5-2.7-4.2-3.5
	C16.6,11.9,14.8,11.5,13,11.5z"/>
<path class="st4" d="M67.4,30.5c-1.6,0-3.1-0.3-4.6-0.9c-1.5-0.6-2.8-1.5-3.9-2.7c-1.1-1.1-2-2.4-2.6-3.9c-0.6-1.5-0.9-3.1-0.9-4.6
	c0-1.6,0.3-3.2,0.9-4.6c0.6-1.5,1.5-2.8,2.6-3.9c1.1-1.2,2.4-2.1,3.9-2.7c1.5-0.6,3-0.9,4.6-0.9c1.5,0,3,0.3,4.4,0.8
	c1.4,0.6,2.7,1.4,3.7,2.5l-2.3,2.4c-1.6-1.5-3.7-2.4-5.8-2.4c-1.1,0-2.2,0.2-3.3,0.7c-1,0.5-2,1.1-2.7,2C60.6,13,60,14,59.6,15.1
	c-0.4,1.1-0.6,2.2-0.6,3.4c0,1.1,0.2,2.3,0.6,3.3c0.4,1.1,1.1,2,1.8,2.8c1.6,1.6,3.7,2.5,6,2.6c2.2,0,4.4-0.8,6-2.4
	c1-1.1,1.6-2.6,1.8-4.1h-7.7v-3.3h10.9c0.1,0.7,0.1,1.4,0.1,2c0.1,1.4-0.1,2.8-0.6,4.2c-0.5,1.3-1.2,2.5-2.2,3.6
	c-1.1,1.1-2.3,2-3.8,2.6C70.5,30.2,69,30.5,67.4,30.5z M92.7,28.2c-1.5,1.4-3.4,2.2-5.4,2.2c-2,0-4-0.8-5.4-2.2
	c-0.7-0.7-1.3-1.6-1.7-2.5c-0.4-1-0.6-2-0.5-3c0-1,0.2-2.1,0.5-3c0.4-1,1-1.8,1.7-2.5c1.5-1.4,3.4-2.2,5.4-2.2s4,0.8,5.4,2.2
	c0.7,0.7,1.3,1.6,1.7,2.5c0.4,1,0.6,2,0.5,3c0,1-0.2,2.1-0.5,3C94,26.6,93.4,27.5,92.7,28.2L92.7,28.2z M84.2,26
	c0.4,0.4,0.9,0.8,1.4,1c0.5,0.2,1.1,0.3,1.6,0.3c0.6,0,1.1-0.1,1.6-0.3c0.5-0.2,1-0.6,1.4-1c0.4-0.4,0.8-1,1-1.6
	c0.2-0.6,0.3-1.2,0.3-1.8c0-0.6-0.1-1.2-0.3-1.8c-0.2-0.6-0.6-1.1-1-1.6c-0.4-0.4-0.9-0.8-1.4-1c-0.5-0.2-1.1-0.3-1.7-0.3
	c-0.6,0-1.1,0.1-1.7,0.3c-0.5,0.2-1,0.6-1.4,1c-0.4,0.4-0.8,1-1,1.6c-0.2,0.6-0.3,1.2-0.3,1.8c0,0.6,0.1,1.2,0.3,1.8
	C83.5,25.1,83.8,25.6,84.2,26L84.2,26z M109.4,28.2c-1.5,1.4-3.4,2.2-5.4,2.2c-2,0-4-0.8-5.4-2.2c-0.7-0.7-1.3-1.6-1.7-2.5
	c-0.4-1-0.6-2-0.5-3c0-1,0.2-2.1,0.5-3c0.4-1,1-1.8,1.7-2.5c1.5-1.4,3.4-2.2,5.4-2.2c2,0,4,0.8,5.4,2.2c0.7,0.7,1.3,1.6,1.7,2.5
	c0.4,1,0.6,2,0.5,3c0,1-0.2,2.1-0.5,3C110.6,26.6,110.1,27.5,109.4,28.2z M100.9,26c0.4,0.4,0.9,0.8,1.4,1c0.5,0.2,1.1,0.3,1.6,0.3
	s1.1-0.1,1.7-0.3c0.5-0.2,1-0.6,1.4-1c0.4-0.4,0.8-1,1-1.6c0.2-0.6,0.3-1.2,0.3-1.8c0-0.6-0.1-1.2-0.3-1.8c-0.2-0.6-0.6-1.1-1-1.6
	c-0.4-0.4-0.9-0.8-1.4-1c-0.5-0.2-1.1-0.3-1.7-0.3c-0.6,0-1.1,0.1-1.7,0.3c-0.5,0.2-1,0.6-1.4,1c-0.4,0.4-0.8,1-1,1.6
	c-0.2,0.6-0.3,1.2-0.3,1.8c0,0.6,0.1,1.2,0.3,1.8C100.1,25.1,100.5,25.6,100.9,26L100.9,26z M120.3,37.4c-1.5,0-3-0.4-4.3-1.4
	c-1.1-0.8-1.9-1.9-2.5-3.2l2.9-1.2c0.3,0.8,0.8,1.4,1.4,1.9c0.7,0.6,1.5,0.8,2.4,0.8c0.6,0,1.1-0.1,1.6-0.3c0.5-0.2,1-0.5,1.4-0.9
	c0.8-1,1.2-2.2,1.1-3.4v-1.1h-0.1c-0.5,0.6-1.1,1.1-1.8,1.4c-0.7,0.3-1.5,0.4-2.2,0.4c-1,0-1.9-0.2-2.8-0.6c-0.9-0.4-1.7-1-2.3-1.7
	c-0.7-0.7-1.3-1.6-1.6-2.5c-0.4-0.9-0.6-2-0.5-3c0-1,0.2-2,0.5-3c0.4-0.9,0.9-1.8,1.6-2.5c0.7-0.7,1.4-1.3,2.3-1.7
	c0.9-0.4,1.8-0.6,2.8-0.6c0.8,0,1.6,0.2,2.4,0.5c0.6,0.3,1.2,0.7,1.7,1.2h0.1v-1.2h3.2v13.9c0.1,1.1-0.1,2.2-0.4,3.3
	c-0.3,1-0.9,2-1.6,2.8c-0.7,0.7-1.5,1.2-2.4,1.6C122.2,37.3,121.3,37.5,120.3,37.4z M120.5,27.4c0.5,0,1.1-0.1,1.6-0.3
	c0.5-0.2,0.9-0.6,1.3-1c0.8-0.9,1.2-2.1,1.2-3.3c0-1.2-0.4-2.5-1.2-3.4c-0.4-0.4-0.8-0.8-1.3-1c-0.5-0.2-1-0.3-1.6-0.3
	c-0.6,0-1.1,0.1-1.6,0.3c-0.5,0.2-1,0.6-1.4,1c-0.8,0.9-1.3,2.1-1.3,3.4c0,0.6,0.1,1.2,0.3,1.8c0.2,0.6,0.5,1.1,1,1.5
	c0.4,0.4,0.8,0.8,1.4,1C119.4,27.3,120,27.4,120.5,27.4z M133.2,7.1V30h-3.3V7.1H133.2z M142.4,30.5c-1,0-2-0.2-2.9-0.5
	c-0.9-0.4-1.8-1-2.5-1.7c-0.7-0.7-1.3-1.6-1.6-2.5c-0.4-1-0.6-2-0.5-3c0-1,0.1-2.1,0.5-3c0.4-1,0.9-1.8,1.6-2.6
	c0.7-0.7,1.5-1.3,2.3-1.6s1.8-0.6,2.8-0.5c0.9,0,1.7,0.2,2.6,0.5c0.7,0.3,1.4,0.7,2,1.3c0.5,0.5,0.9,1,1.3,1.6
	c0.3,0.5,0.6,1,0.8,1.5l0.3,0.9L138.7,25c0.3,0.7,0.8,1.3,1.5,1.8c0.7,0.4,1.4,0.6,2.2,0.6c0.8,0,1.5-0.2,2.2-0.6
	c0.7-0.4,1.2-0.9,1.6-1.6l2.6,1.8c-0.7,1-1.5,1.8-2.5,2.4C145.1,30.1,143.7,30.5,142.4,30.5z M138.1,22.4l6.8-2.9
	c-0.2-0.5-0.6-0.9-1.1-1.2c-0.5-0.3-1.1-0.5-1.8-0.5c-1,0-2,0.5-2.8,1.2c-0.4,0.4-0.8,0.9-1,1.5C138.1,21.2,138,21.8,138.1,22.4z"/>
<path class="st4" d="M166.4,30.5c-1.4,0-2.8-0.2-4.1-0.8c-1.3-0.5-2.5-1.4-3.5-2.4c-1-1-1.8-2.3-2.3-3.6c-0.5-1.3-0.8-2.8-0.7-4.2
	c0-1.5,0.2-2.9,0.7-4.2c0.5-1.3,1.3-2.6,2.3-3.6c1-1,2.2-1.8,3.5-2.4s2.7-0.8,4.1-0.8c1.4,0,2.9,0.2,4.2,0.8
	c1.3,0.6,2.5,1.5,3.4,2.6l-1.8,1.8c-0.7-0.9-1.6-1.6-2.6-2c-1-0.5-2.1-0.7-3.2-0.6c-1.1,0-2.1,0.2-3.1,0.6c-1,0.4-1.9,1-2.6,1.8
	c-0.8,0.8-1.4,1.8-1.8,2.8c-0.4,1-0.6,2.2-0.5,3.3c0,1.1,0.1,2.2,0.5,3.3c0.4,1,1,2,1.8,2.8c0.7,0.8,1.6,1.4,2.6,1.8
	c1,0.4,2,0.6,3.1,0.6c1.2,0,2.4-0.3,3.5-0.8s2.1-1.3,2.9-2.3l1.8,1.9c-1,1.2-2.2,2.1-3.5,2.8C169.6,30.1,168,30.5,166.4,30.5z"/>
<path class="st4" d="M179.6,30H177V8.9h2.6V30z"/>
<path class="st4" d="M183.9,17.3c1.4-1.4,3.3-2.2,5.2-2.2c2,0,3.8,0.8,5.2,2.2c0.7,0.7,1.2,1.6,1.6,2.5c0.4,0.9,0.5,1.9,0.5,3
	c0,1-0.1,2-0.5,3c-0.4,0.9-0.9,1.8-1.6,2.5c-1.4,1.4-3.3,2.2-5.2,2.2c-2,0-3.8-0.8-5.2-2.2c-0.7-0.7-1.2-1.6-1.6-2.5
	c-0.4-0.9-0.5-1.9-0.5-3c0-1,0.1-2,0.5-3C182.7,18.9,183.3,18,183.9,17.3z M185.9,26.6c0.4,0.5,0.9,0.8,1.5,1.1
	c0.6,0.2,1.2,0.4,1.8,0.4c0.6,0,1.2-0.1,1.8-0.4c0.6-0.2,1.1-0.6,1.5-1.1c0.5-0.5,0.8-1.1,1.1-1.8c0.2-0.7,0.3-1.3,0.3-2
	c0-0.7-0.1-1.4-0.3-2c-0.2-0.7-0.6-1.2-1.1-1.8c-0.4-0.5-0.9-0.8-1.5-1.1c-0.6-0.2-1.2-0.4-1.8-0.4c-0.6,0-1.2,0.1-1.8,0.4
	c-0.6,0.2-1.1,0.6-1.5,1.1c-0.5,0.5-0.8,1.1-1.1,1.8c-0.2,0.7-0.3,1.3-0.3,2c0,0.7,0.1,1.4,0.3,2C185.1,25.4,185.5,26,185.9,26.6
	L185.9,26.6z"/>
<path class="st4" d="M211.1,30h-2.6v-2h-0.1c-0.5,0.8-1.1,1.4-1.9,1.8c-0.8,0.5-1.7,0.7-2.6,0.7c-0.7,0.1-1.5-0.1-2.2-0.4
	c-0.7-0.3-1.3-0.7-1.8-1.3c-1-1.3-1.5-2.8-1.4-4.4v-8.9h2.6v8.4c0,2.7,1.2,4,3.5,4c0.5,0,1-0.1,1.5-0.3c0.5-0.2,0.9-0.6,1.2-1
	c0.7-0.9,1.1-2,1-3.1v-8h2.6V30z"/>
<path class="st4" d="M220.1,30.5c-0.9,0-1.8-0.2-2.6-0.6c-0.8-0.4-1.5-0.9-2.1-1.6c-1.3-1.5-2-3.5-2-5.5c-0.1-2,0.7-4,2-5.5
	c0.6-0.7,1.3-1.3,2.1-1.6c0.8-0.4,1.7-0.6,2.6-0.6c1,0,2,0.2,2.9,0.7c0.8,0.4,1.4,1,1.9,1.8h0.1l-0.1-2V8.9h2.6V30H225v-2h-0.1
	c-0.5,0.8-1.1,1.4-1.9,1.8C222.1,30.2,221.1,30.5,220.1,30.5z M220.5,28c0.6,0,1.2-0.1,1.7-0.4c0.6-0.2,1-0.6,1.4-1.1
	c0.9-1,1.4-2.4,1.3-3.8c0.1-1.4-0.4-2.8-1.3-3.8c-0.4-0.5-0.9-0.8-1.5-1.1s-1.1-0.4-1.7-0.4c-0.6,0-1.2,0.1-1.7,0.4
	c-0.6,0.2-1,0.6-1.5,1.1c-0.4,0.5-0.8,1.1-1,1.8c-0.2,0.7-0.3,1.3-0.3,2c0,0.7,0.1,1.4,0.3,2c0.2,0.7,0.6,1.3,1,1.8
	c0.4,0.5,0.9,0.8,1.5,1.1C219.3,27.9,219.9,28,220.5,28z"/>
</svg>
