<svg width="93" height="23" viewBox="0 0 93 23" fill="none" xmlns="http://www.w3.org/2000/svg">
<g style="mix-blend-mode:multiply">
<path d="M34.7646 4.99219H29.6976C29.325 4.99219 29.0269 5.21573 29.0269 5.58831L26.9405 18.6286C26.866 18.8521 27.0895 19.1502 27.3876 19.1502H29.8466C30.2192 19.1502 30.5172 18.9266 30.5172 18.5541L31.0388 15.0518C31.1134 14.6792 31.4114 14.4557 31.7095 14.4557H33.3488C36.702 14.4557 38.6394 12.8163 39.1611 9.61216C39.3846 8.19637 39.1611 7.07863 38.4904 6.33347C37.7453 5.5138 36.4785 4.99219 34.7646 4.99219ZM35.3608 9.83571C35.0627 11.6986 33.7214 11.6986 32.3056 11.6986H31.5604L32.0821 8.27088C32.0821 8.04733 32.3056 7.8983 32.5292 7.8983H32.9017C33.7959 7.8983 34.6901 7.8983 35.1372 8.41991C35.3608 8.71798 35.4353 9.16507 35.3608 9.83571ZM50.0404 9.7612H47.5813C47.3578 9.7612 47.2088 9.91023 47.1342 10.1338L47.0597 10.8044L46.9107 10.5809C46.3891 9.83571 45.1968 9.53765 44.0046 9.53765C41.322 9.53765 39.012 11.5496 38.5649 14.4557C38.3414 15.8715 38.6394 17.2873 39.4591 18.1815C40.2043 19.0757 41.2475 19.4482 42.5143 19.4482C44.6752 19.4482 45.8675 18.0324 45.8675 18.0324L45.793 18.7031C45.7184 18.9266 45.942 19.2247 46.2401 19.2247H48.401C48.7736 19.2247 49.0717 19.0012 49.0717 18.6286L50.4129 10.2828C50.4875 9.98474 50.2639 9.7612 50.0404 9.7612ZM46.6126 14.4557C46.3891 15.8715 45.2714 16.7657 43.8556 16.7657C43.1104 16.7657 42.5888 16.5421 42.2162 16.095C41.8436 15.6479 41.6946 15.0518 41.8436 14.3812C42.0672 12.9654 43.1849 11.9967 44.6007 11.9967C45.2714 11.9967 45.8675 12.2202 46.2401 12.6673C46.5381 13.1889 46.6871 13.785 46.6126 14.4557ZM63.0061 9.7612H60.5471C60.3235 9.7612 60.1 9.91023 59.951 10.0593L56.5977 15.0518L55.1819 10.2828C55.1074 9.98474 54.8094 9.7612 54.5113 9.7612H52.1268C51.8287 9.7612 51.6052 10.0593 51.7542 10.3573L54.4368 18.256L51.9033 21.8328C51.6797 22.1308 51.9033 22.5034 52.2758 22.5034H54.7349C54.9584 22.5034 55.1819 22.3544 55.331 22.2053L63.3787 10.4318C63.5277 10.1338 63.3787 9.7612 63.0061 9.7612Z" fill="#7F8184"/>
<path d="M71.1279 4.99219H66.0608C65.6883 4.99219 65.3902 5.21573 65.3902 5.58831L63.3037 18.6286C63.2292 18.8521 63.4528 19.1502 63.7508 19.1502H66.3589C66.5824 19.1502 66.806 19.0012 66.8805 18.7031L67.4766 14.9773C67.5511 14.6047 67.8492 14.3812 68.1473 14.3812H69.7866C73.1398 14.3812 75.0772 12.7418 75.5989 9.53765C75.8224 8.12185 75.5989 7.00411 74.9282 6.25896C74.1085 5.5138 72.8418 4.99219 71.1279 4.99219ZM71.724 9.83571C71.426 11.6986 70.0847 11.6986 68.6689 11.6986H67.9237L68.4453 8.27088C68.4453 8.04733 68.6689 7.8983 68.8924 7.8983H69.265C70.1592 7.8983 71.0534 7.8983 71.5005 8.41991C71.724 8.71798 71.7985 9.16507 71.724 9.83571ZM86.3291 9.7612H83.8701C83.6466 9.7612 83.4975 9.91023 83.423 10.1338L83.3485 10.8044L83.1995 10.5809C82.6778 9.83571 81.4856 9.53765 80.2933 9.53765C77.6108 9.53765 75.3008 11.5496 74.8537 14.4557C74.6301 15.8715 74.9282 17.2873 75.7479 18.1815C76.493 19.0757 77.5363 19.4482 78.803 19.4482C80.964 19.4482 82.1562 18.0324 82.1562 18.0324L82.0817 18.7031C82.0072 18.9266 82.2308 19.2247 82.5288 19.2247H84.6898C85.0624 19.2247 85.3604 19.0012 85.3604 18.6286L86.7017 10.2828C86.8507 9.98475 86.6272 9.7612 86.3291 9.7612ZM82.9759 14.4557C82.7524 15.8715 81.6346 16.7657 80.2188 16.7657C79.5482 16.7657 78.9521 16.5421 78.5795 16.095C78.2069 15.6479 78.0579 15.0518 78.2069 14.3812C78.4305 12.9654 79.5482 11.9967 80.964 11.9967C81.6346 11.9967 82.2308 12.2202 82.6033 12.6673C82.9014 13.1889 83.0504 13.785 82.9759 14.4557ZM89.2352 5.36477L87.1488 18.7031C87.0743 18.9266 87.2978 19.2247 87.5959 19.2247H89.6823C90.0549 19.2247 90.353 19.0012 90.353 18.6286L92.4394 5.58831C92.5139 5.36477 92.2904 5.0667 91.9923 5.0667H89.6078C89.4588 4.99219 89.2352 5.21573 89.2352 5.36477Z" fill="#7F8184"/>
<path d="M5.77843 21.7586L6.151 19.2995H1.15845L3.99005 0.968664C3.99005 0.894149 4.06456 0.819633 4.06456 0.819633C4.13908 0.819633 4.21359 0.745117 4.21359 0.745117H11.2181C13.5281 0.745117 15.1674 1.26673 15.9871 2.23543C16.3597 2.68253 16.6577 3.12962 16.7322 3.65123C16.8813 4.17284 16.8813 4.84348 16.7322 5.58864V6.18477L17.1048 6.40832C17.4029 6.55735 17.701 6.78089 17.9245 7.00444C18.2971 7.37702 18.4461 7.89863 18.5951 8.42024C18.6697 9.01637 18.6697 9.68701 18.5206 10.5067C18.3716 11.4009 18.0735 12.2205 17.6264 12.8912C17.2539 13.4873 16.8068 14.0089 16.2851 14.3815C15.7635 14.7541 15.1674 15.0521 14.4223 15.2012C13.7516 15.3502 13.0065 15.4992 12.1123 15.4992H11.5907C11.2181 15.4992 10.8455 15.6483 10.5474 15.8718C10.2494 16.0954 10.0258 16.4679 10.0258 16.8405L9.95131 17.0641L9.28067 21.4605V21.6095C9.28067 21.6841 9.28067 21.6841 9.20615 21.6841H9.13164C9.13164 21.7586 5.77843 21.7586 5.77843 21.7586Z" fill="#7F8184"/>
<path d="M17.4765 5.7373V6.10988C16.5823 10.8789 13.3782 12.4437 9.3543 12.4437H7.26786C6.74625 12.4437 6.37367 12.8163 6.29915 13.2634L5.25593 19.8953L4.95787 21.7582C4.88335 22.0563 5.18142 22.3543 5.47948 22.3543H9.13075C9.57785 22.3543 9.95043 22.0563 10.0249 21.6092V21.4601L10.6956 17.1382L10.7701 16.9147C10.8446 16.4676 11.2172 16.1695 11.6643 16.1695H12.1859C15.6881 16.1695 18.4452 14.7537 19.2649 10.5808C19.6375 8.86697 19.4139 7.37665 18.5197 6.40795C18.2217 6.1844 17.9236 5.88634 17.4765 5.7373Z" fill="#C3C7C9"/>
<path d="M16.583 5.36477C16.4339 5.29025 16.2849 5.21573 16.1359 5.21573C15.9869 5.21573 15.8378 5.14122 15.6888 5.14122C15.1672 5.0667 14.4965 4.99219 13.9004 4.99219H8.38625C8.23722 4.99219 8.08818 4.99219 8.01367 5.0667C7.7156 5.21574 7.56657 5.43928 7.49206 5.73735L6.2998 13.1144V13.338C6.37432 12.8163 6.82142 12.5183 7.26851 12.5183H9.35495C13.3788 12.5183 16.5085 10.8789 17.4772 6.18444V5.73735C17.2536 5.58831 16.9556 5.5138 16.732 5.43928C16.6575 5.36477 16.583 5.36477 16.583 5.36477Z" fill="#7F7F7F"/>
<path d="M7.49118 5.73771C7.5657 5.43965 7.71473 5.2161 8.01279 5.06707C8.16182 4.99256 8.23634 4.99256 8.38537 4.99256H13.8995C14.5702 4.99256 15.1663 5.06707 15.6879 5.14159C15.8369 5.14159 15.986 5.2161 16.135 5.2161C16.284 5.2161 16.4331 5.29062 16.5821 5.36514C16.6566 5.36514 16.7311 5.43965 16.8057 5.43965C17.1037 5.51417 17.3273 5.6632 17.5508 5.73771C17.8489 4.02385 17.5508 2.8316 16.5821 1.71386C15.5389 0.52161 13.676 0 11.217 0H4.21249C3.76539 0 3.3183 0.372579 3.24378 0.819674L0.337667 19.2996C0.263151 19.6722 0.561214 19.9702 0.933793 19.9702H5.25571L6.29893 13.1148L7.49118 5.73771Z" fill="#7F8184"/>
</g>
</svg>
