<svg id="Layer_1" xmlns="http://www.w3.org/2000/svg" width="50.9" height="50" viewBox="2094.9 395.4 50.9 50"><style>.st0{fill:#bbbcbf}.st1{fill:#e6e6e7}.st2{fill:#808183}.st3{fill:#a6a8aa}.st4{fill:#9da2a4}</style><path class="st0" d="M2120.8 402.8v30.3l-8.1-2.6v-35.6l10.4 2.7c6.6 1.8 10.7 5.2 10.6 11.3-.1 7.1-3.3 9.9-9.7 8.1v-14c-.1-1.7-3.2-1.8-3.2-.2z"/><path class="st1" d="M2108.9 424.6l-3.8 1.3c-2.5.9-4.6-1.2-2.3-2l1.8-.7-7-2.2c-2.1.7-4.2 2.3-4 4.5.1 2.2 5.2 2.7 9.1 3.4 3.6.6 6.9.3 9.9-.8v-2.3l-3.7-1.2zm11.9 8.5l7.1-2.5-7.2-2.3v4.6l.1.2z"/><path class="st2" d="M2139.7 426.5h.1c3.1-1.1 4.4-2.6 4.1-4-.5-2.4-4.3-3.7-10.2-4.1-4.2-.3-8.3.6-12.3 2l-.7.2 7.2 2.2 4.2-1.4c4.4-.8 6.2.6 1.9 2l-2.1.7 7.8 2.4zm-27.1-10.5l-3.2 1.1 3.2 1V416z"/><path class="st3" d="M2127.9 430.6l11.8-4.2-7.7-2.4-11.3 3.9v.4l7.2 2.3zm-15.3-7.3l-3.7 1.3 3.7 1.2v-2.5zm8.1 2v-4.7l7.2 2.2-7.2 2.5zm-16.1-2.1l8-2.9V418l-3.2-1-11.6 3.9h-.2l7 2.3z"/><path class="st4" d="M2096.8 442.5v-6.4h2.4c1.4 0 1.7.7 1.7 1.9 0 1.5-.5 2-1.4 2h-1v-.6h.9c.3 0 .5-.7.5-1.3 0-.8-.4-1.3-.8-1.3h-1.3v5.7h-1zm5-6.4h1v6.4h-1v-6.4zm27.1 1.4h1v5h-1v-5zm0-1.4h1v.9h-1v-.9zm-24.6 2.1v-.7h1.8c.9 0 1.5.5 1.5 1.3v3.7h-2.4c-.8 0-1.5-.5-1.5-1.6 0-1 .7-1.5 1.3-1.5h.9v.5h-.7c-.3 0-.5.3-.5.9 0 .7.4 1 1 1h.9V439c0-.4-.3-.8-.8-.8h-1.5zm17.2 0v-.7h1.8c.9 0 1.5.5 1.5 1.3v3.7h-2.4c-.8 0-1.5-.5-1.5-1.6 0-1 .7-1.5 1.3-1.5h.9v.5h-.7c-.3 0-.5.3-.5.9 0 .7.4 1 1 1h.9V439c0-.4-.3-.8-.8-.8h-1.5zm-13.3-.7h1.2l1.3 3.4 1.4-3.4h.9l-3.1 7.3h-.8l1.1-2.5-2-4.8zm8.6-.7v-.6h-1.8c-1 0-1.5.6-1.5 1.6-.1 1.3.4 1.9 1.5 1.9h.5c.8 0 .7.7.7 1 0 .4-.2 1.2-.7 1.2h-1.7v.6h2c1 0 1.5-.6 1.4-1.9 0-1.2-.3-1.8-1.3-1.8h-.6c-.6 0-.8-.7-.8-1 0-.3.2-1 .7-1h1.6zm1.4-.1v5.1c0 .3.4.7.7.7h1.1v-.6h-.5c-.3 0-.4-.3-.4-.5v-3.2h1.1v-.7h-1.1v-.8h-.9zm7.7 0v5.1c0 .3.4.7.7.7h1.1v-.6h-.5c-.3 0-.4-.3-.4-.5v-3.2h1.2v-.7h-1.1v-.8h-1zm7.3.8c1.8 0 2.2 1.1 2.2 2.5s-.2 2.5-2.2 2.5-2.2-1.1-2.2-2.5.4-2.5 2.2-2.5zm0 .7c-.9 0-1.1.8-1.1 1.8s.1 1.8 1.1 1.8 1.1-.8 1.1-1.8-.2-1.8-1.1-1.8zm3.3 4.3h1v-4.2h1.1c.5 0 .8.2.8.8v3.4h1v-3.6c0-.9-.6-1.4-1.7-1.4h-2.2v5zm7.9 0v-1.4l-.5 1.4h-.2l-.5-1.4v1.4h-.2v-1.6h.4l.4 1.4.4-1.4h.4v1.6h-.2zm-2.4 0V441h-.5v-.2h1.2v.2h-.5v1.5h-.2z"/></svg>