<svg width="236" height="244" viewBox="0 0 236 244" fill="none" xmlns="http://www.w3.org/2000/svg">
<path d="M176.537 177.625C178.084 164.696 177.621 162.8 187.222 164.894L189.66 165.109C197.043 165.446 206.701 163.918 212.375 161.274C224.589 155.589 231.832 146.099 219.788 148.592C192.316 154.277 190.427 144.946 190.427 144.946C219.436 101.775 231.563 46.9724 221.096 33.5579C192.546 -3.03194 143.126 14.2706 142.299 14.7198L142.036 14.7686C136.608 13.6389 130.533 12.964 123.708 12.8533C111.276 12.6484 101.843 16.1223 94.6867 21.5662C94.6867 21.5662 6.52463 -14.8643 10.6261 67.3812C11.4984 84.8772 35.6298 199.77 64.4111 165.067C74.9304 152.377 85.0964 141.648 85.0964 141.648C90.1445 145.012 96.1883 146.728 102.527 146.111L103.017 145.692C102.863 147.268 102.931 148.809 103.213 150.633C95.7999 158.942 97.9782 160.401 83.1547 163.461C68.1575 166.562 76.9683 172.081 82.7194 173.524C89.6933 175.273 105.827 177.751 116.731 162.444L116.296 164.191C119.205 166.524 119.008 180.965 119.421 191.283C119.834 201.601 120.522 211.229 122.619 216.906C124.716 222.581 127.19 237.203 146.672 233.016C162.954 229.516 175.402 224.479 176.537 177.625" fill="black"/>
<path d="M176.537 177.625C178.084 164.696 177.621 162.8 187.222 164.894L189.66 165.109C197.043 165.446 206.701 163.918 212.375 161.274C224.589 155.589 231.832 146.099 219.788 148.592C192.316 154.277 190.427 144.946 190.427 144.946C219.436 101.775 231.563 46.9724 221.096 33.5579C192.546 -3.03194 143.126 14.2706 142.299 14.7198L142.036 14.7686C136.608 13.6389 130.533 12.964 123.708 12.8533C111.276 12.6484 101.843 16.1223 94.6867 21.5662C94.6867 21.5662 6.52463 -14.8643 10.6261 67.3812C11.4984 84.8772 35.6298 199.77 64.4111 165.067C74.9304 152.377 85.0964 141.648 85.0964 141.648C90.1445 145.012 96.1883 146.728 102.527 146.111L103.017 145.692C102.863 147.268 102.931 148.809 103.213 150.633C95.7999 158.942 97.9782 160.401 83.1547 163.461C68.1575 166.562 76.9683 172.081 82.7194 173.524C89.6933 175.273 105.827 177.751 116.731 162.444L116.296 164.191C119.205 166.524 119.008 180.965 119.421 191.283C119.834 201.601 120.522 211.229 122.619 216.906C124.716 222.581 127.19 237.203 146.672 233.016C162.954 229.516 175.402 224.479 176.537 177.625" stroke="black" stroke-width="12.6361"/>
<path d="M219.791 148.592C192.315 154.277 190.427 144.946 190.427 144.946C219.436 101.772 231.563 46.9683 221.098 33.5555C192.548 -3.03225 143.126 14.2714 142.301 14.7206L142.035 14.7683C136.607 13.6381 130.532 12.9648 123.705 12.853C111.273 12.6487 101.842 16.122 94.6865 21.5648C94.6865 21.5648 6.52272 -14.864 10.6231 67.3809C11.4954 84.8779 35.6262 199.771 64.4086 165.068C74.9285 152.378 85.0929 141.649 85.0929 141.649C90.1415 145.012 96.1852 146.728 102.521 146.112L103.013 145.693C102.86 147.269 102.93 148.81 103.211 150.634C95.7958 158.943 97.9746 160.402 83.1522 163.462C68.1539 166.562 76.9648 172.082 82.7174 173.524C89.6914 175.274 105.826 177.752 116.728 162.445L116.293 164.191C119.198 166.525 121.238 179.373 120.896 191.019C120.554 202.665 120.326 210.661 122.615 216.906C124.904 223.152 127.186 237.204 146.671 233.016C162.953 229.517 171.39 220.448 172.564 205.32C173.397 194.565 175.282 196.155 175.401 186.54L176.913 181.988C178.656 167.409 177.19 162.706 187.221 164.894L189.659 165.108C197.042 165.445 206.705 163.917 212.376 161.274C224.588 155.589 231.831 146.098 219.79 148.592H219.791Z" fill="#336791"/>
<path d="M117.907 156.948C117.151 184.075 118.097 211.391 120.744 218.03C123.392 224.669 129.059 237.581 148.546 233.394C164.826 229.894 170.75 223.119 173.32 208.166C175.213 197.164 178.863 166.609 179.331 160.349" stroke="white" stroke-width="4.21205" stroke-linecap="round" stroke-linejoin="round"/>
<path d="M94.5506 20.9583C94.5506 20.9583 6.32678 -15.2081 10.4282 67.0368C11.3005 84.5338 35.433 199.431 64.2148 164.726C74.7326 152.035 84.2448 142.081 84.2448 142.081" stroke="white" stroke-width="4.21205" stroke-linecap="round" stroke-linejoin="round"/>
<path d="M142.205 14.3577C139.151 15.318 191.28 -4.75605 220.906 33.2128C231.371 46.6262 219.244 101.43 190.235 144.605" stroke="white" stroke-width="4.21205" stroke-linecap="round" stroke-linejoin="round"/>
<path d="M190.234 144.605C190.234 144.605 192.124 153.939 219.6 148.25C231.639 145.756 224.394 155.248 212.184 160.936C202.164 165.6 179.699 166.795 179.332 160.35C178.388 143.72 191.156 148.772 190.235 144.605C189.402 140.853 183.692 137.17 179.915 127.985C176.617 119.968 134.691 58.4917 191.542 67.622C193.624 67.1898 176.714 13.3844 123.51 12.5095C70.3176 11.6346 72.0628 78.1203 72.0628 78.1203" stroke="white" stroke-width="4.21205" stroke-linecap="round" stroke-linejoin="bevel"/>
<path d="M103.017 150.292C95.6009 158.601 97.7819 160.06 82.9584 163.121C67.9601 166.222 76.7721 171.74 82.5231 173.182C89.497 174.932 105.631 177.41 116.533 162.1C119.853 157.438 116.514 150 111.953 148.104C109.75 147.188 106.804 146.041 103.017 150.292V150.292Z" stroke="white" stroke-width="4.21205" stroke-linecap="round" stroke-linejoin="round"/>
<path d="M102.531 150.147C101.784 145.262 104.132 139.449 106.647 132.648C110.428 122.444 119.152 112.238 112.173 79.8694C106.972 55.7484 72.084 74.8495 72.0621 78.1201C72.0408 81.3897 73.6401 94.6979 71.4793 110.195C68.6598 130.418 84.3086 147.521 102.329 145.771" stroke="white" stroke-width="4.21205" stroke-linecap="round" stroke-linejoin="round"/>
<path d="M94.2301 77.6292C94.0728 78.7463 96.2691 81.7271 99.1329 82.1254C101.992 82.5253 104.439 80.1959 104.594 79.0799C104.749 77.9629 102.555 76.7324 99.6905 76.3325C96.8301 75.932 94.382 76.5149 94.2307 77.6292H94.2301Z" fill="white" stroke="white" stroke-width="1.40401"/>
<path d="M181.309 75.3526C181.464 76.4697 179.27 79.4505 176.406 79.8488C173.545 80.2487 171.098 77.9193 170.941 76.8033C170.79 75.6863 172.984 74.4558 175.845 74.0559C178.707 73.656 181.153 74.2383 181.309 75.3532V75.3526Z" fill="white" stroke="white" stroke-width="0.702003"/>
<path d="M191.542 67.6221C192.013 76.3843 189.66 82.3525 189.363 91.68C188.924 105.238 195.808 120.756 185.436 136.294" stroke="white" stroke-width="4.21205" stroke-linecap="round" stroke-linejoin="round"/>
</svg>
