<?xml version="1.0" encoding="utf-8"?>
<!-- Generator: Adobe Illustrator 20.1.0, SVG Export Plug-In . SVG Version: 6.00 Build 0)  -->
<svg version="1.0" id="Layer_1" xmlns="http://www.w3.org/2000/svg" xmlns:xlink="http://www.w3.org/1999/xlink" x="0px" y="0px"
	 width="37.8px" height="43.5px" viewBox="0 0 37.8 43.5" style="enable-background:new 0 0 37.8 43.5;" xml:space="preserve">
<style type="text/css">
	.st0{fill:#9FA4A6;}
</style>
<g>
	<path class="st0" d="M18.9,2.8c-10.5,0-19,8.5-19,19s8.5,19,19,19s19-8.5,19-19S29.4,2.8,18.9,2.8z M18.9,38.1
		c-3.1,0-5.7-2-5.7-4.6h11.4C24.6,36.1,22.1,38.1,18.9,38.1z M27.7,32.1H10.1v-3.2h17.7V32.1z M27.7,27.2H10
		c-2.1-2.5-2.6-4.6-2.6-4.6l5.3,1c-0.7-0.9-1.7-2.6-1.5-5.2c0,0-0.3-1.1,1.1-4C13.7,11.5,13,9,13,9s1.9,0,2.4,5.3
		c0,0,1.6-1.8,1.5-5.2s2.1-4.6,2.1-4.6S18,6.7,19.3,8.8c1.2,2,1.2,4,1.4,6.4c0,0.2,0.1,0.6,0.2,0.8c0.1,0.2,0.2,0.3,0.4,0.3
		c0,0-1.1-6.3,2.1-8.4c0,0-0.6,2.9,0.4,4.6s2.7,4.2,2.1,7.7c-0.4,2-1,2.8-1.6,3.7l6.2-1.3C29.8,25.3,27.7,27.2,27.7,27.2z"/>
</g>
</svg>
