<svg width="104" height="24" viewBox="0 0 104 24" fill="none" xmlns="http://www.w3.org/2000/svg">
<g style="mix-blend-mode:multiply">
<path d="M11.4802 5.99562C11.0608 6.87647 11.2286 7.61051 11.8577 7.63148C12.4869 7.65245 13.3468 6.93938 13.7662 6.03756C14.1857 5.15672 14.0179 4.42268 13.3887 4.40171C12.7386 4.40171 11.8997 5.11477 11.4802 5.99562ZM16.5975 2.78682C16.5975 2.8078 16.5975 2.8078 16.5975 2.78682C16.22 3.87739 15.6118 5.07283 14.9827 5.99562C13.6824 7.92509 11.8158 9.1415 10.8091 8.72205C9.80244 8.3026 10.0541 6.37313 11.3544 4.44365C11.648 4.00323 11.9626 3.60475 12.2982 3.26919C12.2982 3.26919 12.2982 3.24822 12.2772 3.24822C11.8577 3.31114 11.4593 3.39503 11.0398 3.49989C6.65656 8.88983 4.76903 15.8947 5.04167 22.1235C5.04167 22.1235 5.04167 22.1445 5.0207 22.1445C2.42011 21.0958 0.53258 18.6001 0.343827 15.4333V15.3913C0.00826636 9.7497 4.49639 3.96128 10.3687 2.49321C12.6547 1.90598 14.7939 2.05278 16.5975 2.78682Z" fill="#7F8184"/>
<path d="M14.9424 17.9922C14.5229 18.2858 14.0615 18.5584 13.6001 18.8101C13.6001 18.8101 13.5792 18.8101 13.5792 18.7891C13.4953 17.4469 13.2017 16.1256 12.6983 15.035C11.3561 12.1199 9.00716 11.8892 7.45519 14.5317C6.51143 16.1466 6.07101 18.4536 6.19684 20.6766V20.6976C7.85367 21.2219 9.7412 21.2639 11.7546 20.7605C17.6269 19.2715 22.094 13.504 21.7794 7.86243C21.4858 2.91291 17.5849 -0.274912 12.6774 0.0187031C12.195 0.501071 11.7546 0.98344 11.3351 1.48678C11.3351 1.48678 11.3351 1.50775 11.3561 1.50775C14.2293 1.15122 16.5573 1.73845 18.0463 2.93389V2.95486C12.8451 10.2743 13.4953 14.4478 14.9424 17.9922C14.9424 17.9712 14.9424 17.9712 14.9424 17.9922ZM80.7961 12.4764C79.9992 13.2733 79.391 14.7834 79.391 15.9788C79.391 17.0274 79.7895 17.6776 80.4606 17.6776C81.5512 17.6776 82.4739 16.5451 82.8095 14.8882C82.8724 14.5107 82.9563 14.1332 82.9983 13.7977C83.0402 13.4621 83.0821 13.1685 83.0821 12.9588C83.0402 12.2457 82.6837 11.8682 82.0126 11.8682C81.5931 11.8682 81.1736 12.0779 80.7961 12.4764ZM81.8867 19.8797L82.1384 18.6213C82.1384 18.6004 82.1384 18.5794 82.1174 18.5794C82.0964 18.5794 82.0964 18.5794 82.0755 18.6004C81.5302 19.5232 80.4606 20.1314 79.2442 20.1314C77.2518 20.1314 76.3709 18.3697 76.3709 16.608C76.3709 14.6156 77.1469 12.6232 78.4682 11.3019C79.5797 10.1904 80.9849 9.62412 82.5788 9.62412C83.7952 9.62412 84.6761 9.98066 85.2423 10.6518C86.0812 11.6585 85.9973 13.1685 85.7876 14.2591L84.718 19.8797C84.718 19.8797 84.718 19.9007 84.697 19.9007L81.8867 19.8797C81.9077 19.8797 81.9077 19.9007 81.8867 19.8797ZM63.3889 9.62412C64.6053 9.62412 65.5281 9.89677 65.9476 10.1484V10.1694L65.5281 12.3925H65.5072C65.0038 12.1199 64.1439 11.8262 63.2421 11.8262C62.4661 11.8262 61.9628 12.1408 61.9628 12.6861C61.9628 13.0846 62.3403 13.4202 63.1582 13.8186C64.2278 14.3429 65.4233 15.1399 65.4233 16.566C65.4233 17.4888 65.1087 18.2648 64.5005 18.873C63.6826 19.67 62.3823 20.1104 60.7883 20.1104C59.5719 20.0894 58.3346 19.7748 57.7264 19.3344V19.3134L58.1458 17.0694V17.0484H58.1668C58.8169 17.4679 60.1172 17.9083 61.082 17.9083C61.816 17.9083 62.3193 17.5727 62.3193 17.0274C62.3193 16.5241 61.9628 16.1885 61.082 15.7481C59.6768 15.035 58.9637 14.1542 58.9637 13.0846C58.9637 11.0083 60.7464 9.62412 63.3889 9.62412ZM92.8553 9.6451C93.6104 9.6451 94.3863 9.77093 94.9107 10.0016C94.9107 10.0016 94.9316 10.0016 94.9107 10.0226L94.4493 12.4135H94.4283C93.9669 12.1618 93.4426 12.036 92.7924 12.036C90.6742 12.036 89.3949 13.8815 89.3949 15.6642C89.3949 17.1742 90.4016 17.7195 91.3453 17.7195C92.1842 17.7195 92.8973 17.5308 93.8201 17.0903H93.8411V17.1113L93.4006 19.5441C92.7085 19.8797 91.6389 20.0684 90.5484 20.0684C87.9688 20.0684 86.3119 18.4536 86.3119 15.9578C86.3119 12.3715 89.1222 9.6451 92.8553 9.6451ZM46.8416 9.6451C47.5966 9.6451 48.3726 9.77093 48.8969 10.0016C48.8969 10.0016 48.9179 10.0016 48.8969 10.0226L48.4355 12.4135H48.4146C47.9532 12.1618 47.4288 12.036 46.7787 12.036C44.6605 12.036 43.4021 13.8815 43.4021 15.6642C43.4021 17.1742 44.4088 17.7195 45.3526 17.7195C46.1915 17.7195 46.9045 17.5308 47.8273 17.0903H47.8483V17.1113L47.3869 19.5441C46.6948 19.8797 45.6252 20.0684 44.5346 20.0684C41.955 20.0684 40.2982 18.4536 40.2982 15.9578C40.2772 12.3715 43.1085 9.6451 46.8416 9.6451ZM30.8605 9.60315C31.0283 9.60315 31.259 9.62412 31.4058 9.6451V9.66607L30.8396 12.5603H30.8186C30.7137 12.5393 30.546 12.5183 30.3572 12.5183C28.3438 12.5183 27.5469 14.4898 27.2323 16.1256L26.5192 19.9636C26.5192 19.9636 26.5192 19.9846 26.4983 19.9846H23.5411V19.9636L25.4706 9.83385C25.4706 9.83385 25.4706 9.81288 25.4916 9.81288H28.1131L27.7566 11.5746C27.7566 11.5955 27.7566 11.5955 27.7776 11.6165C27.7985 11.6165 27.8195 11.6165 27.8195 11.5955C28.5955 10.3162 29.6651 9.60315 30.8605 9.60315ZM34.7824 12.4764C33.9854 13.2733 33.3772 14.7834 33.3772 15.9788C33.3772 17.0274 33.7757 17.6776 34.4468 17.6776C35.5374 17.6776 36.4602 16.5451 36.7958 14.8882C36.8587 14.5107 36.9426 14.1332 36.9845 13.7977C37.0474 13.4621 37.0684 13.1685 37.0684 12.9588C37.0265 12.2457 36.6699 11.8682 35.9988 11.8682C35.5794 11.8682 35.1599 12.0779 34.7824 12.4764ZM35.873 19.8797L36.1246 18.6213C36.1246 18.6004 36.1246 18.5794 36.1037 18.5794C36.0827 18.5794 36.0827 18.5794 36.0617 18.6004C35.5164 19.5232 34.4468 20.1314 33.2304 20.1314C31.259 20.1314 30.3572 18.3697 30.3572 16.608C30.3572 14.6156 31.1332 12.6232 32.4545 11.3019C33.566 10.1904 34.9712 9.62412 36.5651 9.62412C37.7815 9.62412 38.6623 9.98066 39.2286 10.6518C40.0675 11.6585 39.9836 13.1685 39.7739 14.2591L38.7043 19.8797C38.7043 19.8797 38.7043 19.9007 38.6833 19.9007L35.873 19.8797C35.873 19.8797 35.8939 19.9007 35.873 19.8797ZM70.3518 17.8454C71.9248 17.8454 73.0573 15.6223 73.0573 13.6509C73.0573 13.1685 72.9524 12.036 71.8618 12.036C70.7503 12.036 69.8065 13.2943 69.45 15.2238C69.3451 15.8739 68.9886 17.8454 70.3518 17.8454ZM72.9314 9.62412C74.9029 9.62412 76.1822 11.1132 76.1822 13.4411C76.1822 15.8949 75.0077 18.3906 72.8895 19.5232C70.96 20.5508 69.2403 20.0894 68.695 19.2925L67.9819 23.1095C67.9819 23.1095 67.9819 23.1304 67.9609 23.1304H64.9828V23.1095L67.5205 9.7919C67.5205 9.7919 67.5205 9.77093 67.5415 9.77093H70.1631V9.7919L69.9114 11.1551C69.9114 11.1761 69.9114 11.1971 69.9324 11.1971C69.9533 11.1971 69.9533 11.1971 69.9743 11.1761L69.9953 11.1551C70.7293 10.1694 71.7989 9.62412 72.9314 9.62412Z" fill="#7F8184"/>
<path d="M50.8045 6.28906H53.7616V6.31004L52.2306 14.3425V14.3635H52.2516L56.1944 9.83342H59.4451L55.3555 14.4264L57.8512 19.8373H54.6424L52.2096 14.5103H52.1886L51.182 19.8373C51.182 19.8373 51.182 19.8583 51.161 19.8583H48.2039V19.8373L50.8045 6.28906ZM100.929 12.6437C100.929 12.1194 100.509 11.8048 99.8592 11.8048C98.5799 11.8048 97.762 12.8325 97.5313 13.7972V13.8392H97.5732C99.293 13.8601 100.279 13.6714 100.698 13.2519C100.845 13.0842 100.929 12.8954 100.929 12.6437ZM100.216 9.6237C102.313 9.6237 103.718 10.8401 103.718 12.6437C103.718 13.4826 103.446 14.1747 102.9 14.699C101.915 15.6638 100.069 16.1042 97.2586 16.0203H97.2167V16.0623C97.2167 16.3559 97.3215 16.7544 97.5103 17.027C97.8878 17.5094 98.5799 17.782 99.4188 17.782C100.656 17.782 101.726 17.4884 102.9 16.8173H102.921V16.8382L102.46 19.313V19.334C101.034 20.047 99.3768 20.1309 98.7267 20.1309C95.9583 20.1309 94.3644 18.579 94.3644 15.8945C94.3644 14.3425 94.9307 12.7905 95.9373 11.6161C97.0069 10.3158 98.5379 9.6237 100.216 9.6237Z" fill="#7F8184"/>
</g>
</svg>
