<svg id="Layer_1" xmlns="http://www.w3.org/2000/svg" width="172" height="50" viewBox="0 0 172 50"><style>.st0{fill:#9fa4a6}</style><path class="st0" d="M170.1 37.1v-1.3H171c.1 0 .1.1.1.1 0 .1.1.1.1.2s0 .2-.1.2c-.1.1-.1.1-.3.1 0 0 .1 0 .1.1 0 0 .1.1.1.2l.2.3h-.2l-.2-.3c0-.1-.1-.1-.1-.2l-.1-.1h-.1H170.2v.6h-.1v.1zm.2-.7H170.9s.1 0 .1-.1v-.1c0-.1 0-.1-.1-.1 0 0-.1-.1-.2-.1h-.4v.4zm.3-1.2c-.7 0-1.3.6-1.3 1.3 0 .7.6 1.3 1.3 1.3.7 0 1.3-.6 1.3-1.3.1-.7-.5-1.3-1.3-1.3zm0 .3c.6 0 1 .5 1 1 0 .6-.5 1-1 1-.6 0-1-.5-1-1 0-.6.5-1 1-1zm-60.8 2c1.6-.3 2.7-.9 3.8-2.1l1-1v3h4.5l-.1-26.6-4.8-1.3-.2 10.4-.9-.8c-.5-.5-1.4-.9-2.2-1.1-4.4-1.2-8.5 1.1-10.2 5.7-.7 1.8-.7 6-.1 7.8 1.1 3.1 3.3 5.3 6 5.9 1.2.4 1.9.4 3.2.1zm-1.5-4c-1.1-.4-1.8-1-2.4-2.2-.5-1-.7-1.5-.7-3.2-.1-2.4.2-3.7 1.3-5 2-2.4 5.6-2.1 7 .7.6 1.2.6 6 0 7.4-.8 2-3.1 3-5.2 2.3zm40.1 4c1.6-.3 2.7-.9 3.7-2l.9-.9.1 1.3.1 1.3h1.6l-.1-6.6c-.1-6.7-.2-8.4-.9-9.8-.5-1-1.7-2.1-2.6-2.5-1.9-.8-4.9-.6-7.2.4-1.2.6-1.3.6-.9 1.5l.2.6 1.3-.6c1.7-.8 4.1-.9 5.5-.4 1.8.7 2.8 2.3 2.8 4.6v1h-1.4c-3.2 0-6.8 1.1-8.2 2.6-1.2 1.2-1.7 2.3-1.7 4.1 0 2.8 1.5 4.6 4.4 5.3.6.4 1.2.3 2.4.1zm-3.1-1.9c-1.2-.7-1.6-1.4-1.7-3-.1-1.7.2-2.5 1.3-3.5s3.1-1.6 5.8-1.8l2.1-.1v2.5c0 2.5 0 2.6-.7 3.7-1 1.7-2.3 2.5-4.4 2.6-1.3 0-1.8-.1-2.4-.4zm20.7 1.9c.6-.1 1.2-.3 1.2-.3s0-.4-.1-.8l-.1-.7-1.4.1c-1.7.2-2.6-.2-3.1-1.3-.3-.7-.4-1.7-.4-7.7v-7h5.2v-1.6h-5.2v-2c0-1.1-.1-2-.1-2-.1 0-.5.1-1 .3l-.9.3v3.4l-1.6.1-1.6.1-.1.7-.1.7h3.4l.1 7.3c.1 7 .1 7.4.5 8.2.6 1.2 1.2 1.6 2.3 2 1.4.5 1.6.5 3 .2zm-70.3-.6l1.5-.5-.3-1.6c-.2-.9-.4-1.6-.4-1.7 0 0-.7.1-1.5.3-.8.2-2.3.4-3.6.4-2 0-2.3-.1-3.4-.6-1.4-.7-2.4-2-2.6-3.3l-.1-.9H98v-2.5c0-2.1-.1-2.8-.5-3.7-1.5-3.6-4.2-5.3-8.1-5-3.8.2-6.6 2.3-8.1 5.9-1.3 3.4-.8 8.1 1.2 10.6 1 1.2 2.6 2.4 4.2 2.9 1.9.5 6.8.4 9-.3zM85.3 25.2c0-.7 1-2.6 1.7-3.2 2.1-1.7 4.8-1.2 6 1.2.2.5.4 1.2.4 1.6v.8h-4.1c-3.7 0-4 0-4-.4zm-11.7 6c.1-6.5.1-6.6 1.5-7.9.8-.8 1.6-1.1 3.1-1.1h1.2v-4.6l-1.4.1c-2.1.2-4 1.5-4.8 3.4l-.2.6v-.8c0-.4-.1-1.3-.1-1.8l-.1-1h-4v19.4h4.9l-.1-6.3zm51.6-.7c.1-7.5.1-7.4 1.7-9 1.1-1.1 2.3-1.6 3.9-1.8 1.9-.1 3.4.7 4.3 2.3.9 1.6 1.1 3.3 1.1 9.8v5.6h1.8v-6.7c0-6.1 0-6.9-.4-8.1-2.5-6.9-9.7-4.7-12.4-1.2l-.1-9-1.9-.5v25.4h1.9l.1-6.8zm0 0M47.4 16.7c-1-.8-3.7-1.9-4.5-1.9-.2 0-.6.4-.9.9-.4.8-1.7 1.9-2.1 1.9-.1 0 .1-.6.5-1.2.2-.3.3-.6.4-.9.2-.4.3-.9.3-1.1 0-1.4-1-4.5-2.2-7.3-.6-1.5-1.3-2.9-2-3.9-.3-.5-.6-.9-.8-1.2-.4-.5-.8-.8-1.4-1.1-.4-.2-.8-.4-1.3-.5-.1 0-.2-.1-.3-.1H33c-.1 0-.2 0-.3-.1h-.4H31.5h-.8c-.2 0-.4 0-.6.1h-.2c-.2 0-.4.1-.6.1-.1 0-.2 0-.2.1-.2 0-.3.1-.5.1h-.2c-1.6.4-2.3.5-3.7.4-6-.4-5.8-.4-6.8.1-.5.3-.9.6-1.2 1.1-.4.7-.8 1.7-1.2 3.6-.8 3.5-.9 4.6-.1 5.5.8.9 3.3 2.1 5.8 2.7 3 .7 5.1 1.3 5.6 1.7.1.1.3.3.4.5l.3.6c.6 1.7 1 2.4 1.4 2.7l.3.3c.1.1.2.3.2.4 0 1.6-11.4-1.9-14.3-4.5-.8-.7-1.2-1.2-1.4-1.9-.1-.4-.1-.8-.1-1.4v-.3l.1-.8-2.9.1c-2.5.1-3.1.2-4 .6-3 1.5-2.9 3.9.4 7.1 2.4 2.3 6 4.5 10 6.3 4.1 1.9 8.7 3.3 12.7 3.9 1.7.3 4 .3 6 .3 1.2 0 2.3-.1 3.2-.3 4.9-.7 8.3-2.8 9.7-5.7.2-.3.3-.6.4-1 .7-2.5.1-4.5-1.8-5.9zM18 4.7l.1-.1H18.4s.1 0 .1.1c.1 0 .1.1.2.1 1 1 1.3 1 3.5.9.8-.1 1.5-.1 2 0 1 .1 1.7.3 1.8.8.1.1.1.3 0 .4-.1.3-.7.4-2.2.6-1.8.2-2.8.5-3.2 1-.1.2-.3.3-.5.3-.4 0-.8-.3-1.6-1.1-.5-.5-.8-.9-1-1.3-.1-.2-.1-.3-.1-.5v-.3-.2c0-.1 0-.1.1-.2 0 0 0-.1.1-.1V5s0-.1.1-.1c.1-.1.2-.1.3-.2-.1.1-.1 0 0 0zm16.1-1c-.8.4-2 .7-3.2.6-.5 0-.8-.1-.8-.2s.1-.2.3-.3c.1 0 .2-.1.4-.1.9-.2 1.3-.9.9-1.2-.5-.3-2.2-.5-2.9-.3-.3.1-.5.1-.5 0v-.1l.1-.1s.1 0 .1-.1c0 0 .1 0 .1-.1.1 0 .1 0 .2-.1.4-.1 1-.2 1.6-.3h1.7c1.4.1 2.5.6 2.7 1.2v.2c.1.3-.2.6-.7.9z"/><path class="st0" d="M.3 30.9C3.9 42 14.4 50 26.7 50c10 0 18.8-5.3 23.7-13.3-.4.4-.9.2-2 .1-1.9-.2-4.4 0-5.9.5-.7.2-.9.4-1 .9-.1.6-.3.7-1.4 1.2-1 .4-1.7.9-2.8 1.9-.8.8-1.6 1.5-1.9 1.6-.6.3-1.7.5-1.7.4 0-.1 1.7-2.7 3.7-5.6.7-1 1-1.6 1-2.4.1-.6.3-1.8.6-2.7.3-.9.4-1.6.4-1.7-.1-.1-.5 0-1.1.2-1.1.4-1.9.4-3.2.1-.8-.2-1.1-.2-2 .1-.9.4-1 .4-1.9 0-.9-.3-1.1-.3-3.1 0-3.9.7-5.1.3-7.7-2.4-1.6-1.6-2.2-2-2.5-1.5-.1.1-.4.2-.7.2-.4 0-.7-.3-1.2-1.1-.4-.6-1-1.3-1.3-1.5-1.9-1.3-4-.4-4 1.8 0 .9 1.8 3.6 2.7 4.1 1.2.6.5 1.5-1 1.3-.8-.1-1.1-.3-2.2-1.5s-1.3-1.3-2.1-1.3c-.5 0-1.3.2-1.8.4-1.3.6-3 .9-4.7.9l-1.3.2M31.4 37c-.3 0-.8-.2-1.2-.4-.4-.2-1-.4-1.3-.4-.6 0-.9-.5-.5-1 .3-.4 1.5-.4 2.2 0 .8.4 1.4.4 1.9-.1.5-.6.8-.6.8.1-.1.7-1.3 1.8-1.9 1.8zM53.8 36.2s-.1 0-.1-.1c.1 0 .2-.1.3-.1v-.2c0-.1 0-.1-.1-.2 0-.1-.1-.1-.1-.1H53v1.3h.2v-.6h.4s.1 0 .1.1c0 0 .1.1.1.2l.2.3h.2l-.2-.3c-.1-.2-.2-.2-.2-.3zm-.2-.2h-.4v-.4h.4c.1 0 .2 0 .2.1l.1.1v.1l-.1.1h-.2z"/><path class="st0" d="M53.6 34.8c-.7 0-1.3.6-1.3 1.3 0 .7.6 1.3 1.3 1.3.7 0 1.3-.6 1.3-1.3 0-.7-.6-1.3-1.3-1.3zm0 2.4c-.6 0-1-.5-1-1 0-.6.5-1 1-1 .6 0 1 .5 1 1s-.4 1-1 1z"/></svg>