<?xml version="1.0" encoding="UTF-8" standalone="no"?>
<svg
   xmlns:dc="http://purl.org/dc/elements/1.1/"
   xmlns:cc="http://creativecommons.org/ns#"
   xmlns:rdf="http://www.w3.org/1999/02/22-rdf-syntax-ns#"
   xmlns:svg="http://www.w3.org/2000/svg"
   xmlns="http://www.w3.org/2000/svg"
   xmlns:sodipodi="http://sodipodi.sourceforge.net/DTD/sodipodi-0.dtd"
   xmlns:inkscape="http://www.inkscape.org/namespaces/inkscape"
   version="1.1"
   id="layer"
   x="0px"
   y="0px"
   viewBox="-153 -46 617 112"
   xml:space="preserve"
   sodipodi:docname="rewe-digital-gmbh-logo-vector.svg"
   width="617"
   height="112"
   inkscape:version="1.0.2 (e86c870879, 2021-01-15)"><metadata
   id="metadata25"><rdf:RDF><cc:Work
       rdf:about=""><dc:format>image/svg+xml</dc:format><dc:type
         rdf:resource="http://purl.org/dc/dcmitype/StillImage" /><dc:title></dc:title></cc:Work></rdf:RDF></metadata><defs
   id="defs23" /><sodipodi:namedview
   pagecolor="#ffffff"
   bordercolor="#666666"
   borderopacity="1"
   objecttolerance="10"
   gridtolerance="10"
   guidetolerance="10"
   inkscape:pageopacity="0"
   inkscape:pageshadow="2"
   inkscape:window-width="3840"
   inkscape:window-height="2092"
   id="namedview21"
   showgrid="false"
   inkscape:zoom="1.2868098"
   inkscape:cx="326"
   inkscape:cy="326"
   inkscape:window-x="0"
   inkscape:window-y="0"
   inkscape:window-maximized="1"
   inkscape:current-layer="layer" />
<style
   type="text/css"
   id="style2">
	.st0{fill:#62C2DD;}
</style>
<g
   id="Gruppe_337"
   transform="translate(-57.587923,-291.52714)">
	<path
   id="Pfad_2515"
   class="st0"
   d="m -72.6,263.4 v 17 h 6.1 c 7.2,0 9.8,-3.5 9.8,-9 0,-5.9 -3.3,-7.9 -9.9,-7.9 z M -54,329 -62.8,305.8 c -3.3,-8.6 -5.1,-9.8 -9.8,-9.8 v 33 H -94 v -83.2 h 28.6 c 24.5,0 32.4,9.9 32.4,23.8 0,14.3 -7.5,21.6 -17.3,23.2 2.8,0.8 6.2,4.7 8.4,9 2.7,5.5 9.8,20.9 12.4,27.2 z" />
	<path
   id="Pfad_2516"
   class="st0"
   d="m -20.5,329 v -83.2 h 46.7 v 17.6 H 0.9 v 14 h 20.7 v 17 H 0.9 v 16.8 H 29.3 V 329 Z" />
	<path
   id="Pfad_2517"
   class="st0"
   d="M 115.6,329.1 H 92.8 L 88.5,305 c -1.8,-10.1 -3.7,-21 -4.1,-26.2 h -0.1 c -0.2,4.1 -2,15.3 -4,26.2 l -4.4,24.1 H 52.4 L 32.1,245.7 h 22.7 l 4.7,22.6 c 2.4,9.8 4,19.9 4.8,29.9 0.6,-6.7 2,-17 4.3,-29.4 l 4.3,-23.1 h 23.8 l 5.4,28 c 1.8,8.1 2.9,16.3 3.4,24.5 h 0.1 c 0.4,-7.5 3,-23.7 4.5,-31.8 l 4.3,-20.7 h 22.8 z" />
	<path
   id="Pfad_2518"
   class="st0"
   d="M 115.6,329.1 H 92.8 L 88.5,305 c -1.8,-10.1 -3.7,-21 -4.1,-26.2 h -0.1 c -0.2,4.1 -2,15.3 -4,26.2 l -4.4,24.1 H 52.4 L 32.1,245.7 h 22.7 l 4.7,22.6 c 2.4,9.8 4,19.9 4.8,29.9 0.6,-6.7 2,-17 4.3,-29.4 l 4.3,-23.1 h 23.8 l 5.4,28 c 1.8,8.1 2.9,16.3 3.4,24.5 h 0.1 c 0.4,-7.5 3,-23.7 4.5,-31.8 l 4.3,-20.7 h 22.8 z" />
	<path
   id="Pfad_2519"
   class="st0"
   d="m 143.1,329 v -83.2 h 46.8 v 17.6 h -25.5 v 14 h 20.8 v 17 h -20.8 v 16.8 H 193 V 329 Z" />
	<rect
   id="Rechteck_333"
   x="498.20001"
   y="245.8"
   class="st0"
   width="7.9000001"
   height="83.199997" />
	<path
   id="Pfad_2520"
   class="st0"
   d="m 457.4,264.4 c -18.2,0 -32.9,14.7 -32.9,32.9 0,18.2 14.7,32.9 32.9,32.9 9.6,0 18.8,-4.2 25,-11.5 v 10.4 h 7.9 v -31.8 c 0,-18.1 -14.7,-32.9 -32.9,-32.9 m 0,57.9 c -13.8,0 -25,-11.2 -25,-25 0,-13.8 11.2,-25 25,-25 13.8,0 25,11.2 25,25 0,0 0,0 0,0 0,13.8 -11.2,25 -25,25" />
	<path
   id="Pfad_2521"
   class="st0"
   d="m 457.4,264.4 c -18.2,0 -32.9,14.7 -32.9,32.9 0,18.2 14.7,32.9 32.9,32.9 9.6,0 18.8,-4.2 25,-11.5 v 10.4 h 7.9 v -31.8 c 0,-18.1 -14.7,-32.9 -32.9,-32.9 z m 0,57.9 c -13.8,0 -25,-11.2 -25,-25 0,-13.8 11.2,-25 25,-25 13.8,0 25,11.2 25,25 0,0 0,0 0,0 0,13.8 -11.2,25 -25,25 z" />
	<path
   id="Pfad_2522"
   class="st0"
   d="m 380.3,265.6 v 63.6 h 8 v -55.6 h 17.1 v 55.6 h 8 v -55.6 h 16.4 v -7.9 h -16.4 v -19.9 h -8 v 19.9 h -25.1 z" />
	<path
   id="Pfad_2523"
   class="st0"
   d="m 380.3,265.6 v 63.6 h 8 v -55.6 h 17.1 v 55.6 h 8 v -55.6 h 16.4 v -7.9 h -16.4 v -19.9 h -8 v 19.9 h -25.1 z" />
	<path
   id="Pfad_2524"
   class="st0"
   d="m 372.5,320 v 0 c 0,18.1 -14.7,32.8 -32.9,32.8 -15.7,0 -29.2,-11.2 -32.2,-26.6 h 8.2 c 3.4,13.3 17,21.3 30.3,17.9 11,-2.8 18.7,-12.8 18.7,-24.1 v -1.3 c -11.8,13.7 -32.5,15.3 -46.3,3.5 -13.7,-11.8 -15.3,-32.5 -3.5,-46.3 11.8,-13.7 32.5,-15.3 46.3,-3.5 7.3,6.2 11.4,15.3 11.4,24.9 z m -32.8,-47.6 c -13.8,0 -24.9,11.2 -24.9,24.9 0,13.8 11.2,24.9 24.9,24.9 13.7,0 24.9,-11.2 24.9,-24.9 -0.1,-13.7 -11.2,-24.9 -24.9,-24.9" />
	<rect
   id="Rechteck_334"
   x="291.79999"
   y="265.60001"
   class="st0"
   width="7.9000001"
   height="63.400002" />
	<path
   id="Pfad_2525"
   class="st0"
   d="m 283.3,297.3 c 0,18.1 -14.7,32.9 -32.8,32.9 -18.1,0 -32.9,-14.7 -32.9,-32.8 0,-18.1 14.7,-32.9 32.8,-32.9 9.6,0 18.7,4.2 25,11.5 v -30.1 h 7.9 z m -32.8,-24.9 c -13.8,0 -24.9,11.1 -24.9,24.9 0,13.8 11.1,24.9 24.9,24.9 13.8,0 24.9,-11.1 24.9,-24.9 0,-13.7 -11.1,-24.8 -24.9,-24.9" />
	<path
   id="Pfad_2526"
   class="st0"
   d="m 295.8,245.3 c 2.5,0 4.5,2 4.5,4.5 0,2.5 -2,4.5 -4.5,4.5 -2.5,0 -4.5,-2 -4.5,-4.5 0,-2.5 1.9,-4.5 4.4,-4.5 0,0 0,0 0.1,0" />
	<path
   id="Pfad_2527"
   class="st0"
   d="m 384.4,245.3 c 2.5,0 4.5,2 4.5,4.5 0,2.5 -2,4.5 -4.5,4.5 -2.5,0 -4.5,-2 -4.5,-4.5 0,0 0,0 0,0 -0.1,-2.5 1.9,-4.5 4.5,-4.5 -0.1,0 -0.1,0 0,0" />
</g>
</svg>
