<svg width="61" height="42" viewBox="0 0 61 42" fill="none" xmlns="http://www.w3.org/2000/svg">
<g style="mix-blend-mode:multiply">
<path d="M24.9766 4.58287C25.9579 3.55174 27.1382 2.73058 28.4462 2.16915C29.7542 1.60773 31.1625 1.31773 32.5859 1.31673C34.478 1.3243 36.3338 1.83726 37.9612 2.80256C39.5885 3.76785 40.9285 5.15042 41.8423 6.80723C43.4885 6.0715 45.2717 5.69247 47.0747 5.69505C54.2194 5.69505 60.0103 11.5375 60.0103 18.7432C60.0103 25.9489 54.2194 31.7937 47.0747 31.7937C46.219 31.7944 45.3654 31.7095 44.5266 31.5403C43.3489 33.6488 41.4091 35.2268 39.1051 35.9506C36.801 36.6744 34.3073 36.4892 32.1354 35.4329C31.289 37.4221 29.8647 39.1112 28.0471 40.2815C26.2296 41.4518 24.1025 42.0494 21.9414 41.9968C19.7803 41.9442 17.6847 41.2439 15.9263 39.9866C14.1678 38.7292 12.8274 36.9728 12.0787 34.9449C11.4021 35.0877 10.7124 35.1592 10.0209 35.1584C7.8048 35.1321 5.65832 34.3806 3.90981 33.0189C2.1613 31.6571 0.907033 29.76 0.338887 27.6178C-0.229258 25.4756 -0.0800011 23.2063 0.763825 21.157C1.60765 19.1076 3.09958 17.3912 5.01139 16.2701C3.88483 13.6582 3.7524 10.7244 4.63908 8.02162C5.52575 5.31881 7.3703 3.0336 9.82515 1.59658C12.28 0.159552 15.1757 -0.330056 17.9665 0.220007C20.7573 0.77007 23.2507 2.32182 24.9766 4.58287Z" fill="#7F8184"/>
<path d="M8.68852 21.7842C8.65098 21.8828 8.7026 21.9015 8.71433 21.9203C8.82448 21.9956 8.93886 22.0646 9.0569 22.1268C9.6097 22.4173 10.2275 22.5619 10.8519 22.5468C12.0837 22.5468 12.8463 21.8921 12.8463 20.8386V20.8175C12.8463 19.8414 11.9852 19.4895 11.1757 19.2337L11.0701 19.1985C10.46 19.0014 9.93209 18.8301 9.93209 18.4289V18.4054C9.93209 18.0629 10.2395 17.8095 10.7181 17.8095C11.2631 17.8204 11.798 17.9578 12.2808 18.2107C12.2808 18.2107 12.4005 18.2858 12.4451 18.1708C12.4685 18.1098 12.6797 17.5584 12.6938 17.4974C12.7028 17.4711 12.7017 17.4425 12.6909 17.417C12.6801 17.3914 12.6602 17.3708 12.6351 17.359C12.099 17.0488 11.49 16.8868 10.8706 16.8897H10.7486C9.62237 16.8897 8.83634 17.5701 8.83634 18.5439V18.565C8.83634 19.5927 9.70215 19.9259 10.5163 20.1605L10.6454 20.2004C11.239 20.3811 11.7482 20.5383 11.7482 20.9559V20.9747C11.7482 21.3572 11.4173 21.6411 10.8824 21.6411C10.3206 21.6449 9.76968 21.486 9.29623 21.1835C9.20941 21.1343 9.16014 21.0967 9.09444 21.0568C9.08134 21.0454 9.06543 21.0375 9.04833 21.0342C9.03123 21.0309 9.01355 21.0321 8.99709 21.0379C8.98064 21.0436 8.966 21.0536 8.95466 21.0668C8.94332 21.08 8.93568 21.096 8.93254 21.1131L8.6979 21.7866L8.68852 21.7842Z" fill="white"/>
<path d="M26.7156 21.7842C26.6781 21.8828 26.7297 21.9015 26.7414 21.9203C26.8516 21.9956 26.966 22.0646 27.084 22.1268C27.6368 22.4173 28.2546 22.5619 28.879 22.5468C30.1085 22.5468 30.8734 21.8921 30.8734 20.8386V20.8175C30.8734 19.8414 30.0123 19.4895 29.2028 19.2337L29.0972 19.1985C28.4871 19.0014 27.9592 18.8301 27.9592 18.4289V18.4054C27.9592 18.0629 28.2666 17.8095 28.7452 17.8095C29.2902 17.8204 29.8251 17.9578 30.3079 18.2107C30.3079 18.2107 30.4276 18.2858 30.4722 18.1708C30.4956 18.1098 30.7068 17.5584 30.7209 17.4974C30.7299 17.4711 30.7288 17.4425 30.718 17.417C30.7072 17.3914 30.6873 17.3708 30.6622 17.359C30.1261 17.0488 29.5171 16.8868 28.8977 16.8897H28.7757C27.6495 16.8897 26.8611 17.5701 26.8611 18.5439V18.565C26.8611 19.5927 27.7292 19.9259 28.5434 20.1605L28.6725 20.2004C29.2661 20.3811 29.7776 20.5383 29.7776 20.9559V20.9747C29.7776 21.3572 29.4444 21.6411 28.9095 21.6411C28.3477 21.6449 27.7968 21.486 27.3233 21.1835C27.2365 21.1343 27.1872 21.0991 27.1215 21.0568C27.1078 21.0472 27.092 21.041 27.0755 21.0387C27.0589 21.0363 27.042 21.038 27.0262 21.0435C27.0103 21.049 26.9961 21.0582 26.9845 21.0703C26.9729 21.0824 26.9644 21.0971 26.9596 21.1131L26.725 21.7866L26.7156 21.7842Z" fill="white"/>
<path d="M39.0183 19.7127C39.0483 20.2043 38.9333 20.6938 38.6874 21.1205C38.5694 21.2725 38.4182 21.3956 38.2454 21.4802C38.0726 21.5649 37.8827 21.6089 37.6902 21.6089C37.4978 21.6089 37.3079 21.5649 37.135 21.4802C36.9622 21.3956 36.811 21.2725 36.693 21.1205C36.4535 20.6917 36.3428 20.2029 36.3739 19.7127C36.3467 19.2272 36.46 18.7442 36.7001 18.3213C36.8069 18.16 36.9546 18.0301 37.1282 17.9447C37.3018 17.8594 37.4949 17.8217 37.6879 17.8356C37.8826 17.8209 38.0778 17.8578 38.2538 17.9427C38.4297 18.0276 38.5801 18.1574 38.6898 18.319C38.9318 18.7411 39.0459 19.2245 39.0183 19.7104V19.7127ZM40.046 18.6052C39.952 18.2791 39.7923 17.9757 39.5767 17.7136C39.3593 17.4647 39.0902 17.2661 38.7883 17.1317C38.4397 16.9861 38.0657 16.9111 37.6879 16.9111C37.3101 16.9111 36.936 16.9861 36.5874 17.1317C36.2832 17.2719 36.0134 17.4769 35.7967 17.7324C35.5811 17.9945 35.4214 18.2979 35.3274 18.624C35.1272 19.3471 35.1272 20.1111 35.3274 20.8343C35.4214 21.1603 35.5811 21.4638 35.7967 21.7259C36.0123 21.9813 36.2825 22.1849 36.5874 22.3219C37.2934 22.6066 38.0823 22.6066 38.7883 22.3219C39.0932 22.1849 39.3634 21.9813 39.579 21.7259C39.7946 21.4638 39.9543 21.1603 40.0483 20.8343C40.2486 20.1111 40.2486 19.3471 40.0483 18.624" fill="white"/>
<path d="M48.4829 21.4434C48.4788 21.4304 48.472 21.4185 48.463 21.4083C48.454 21.3981 48.4429 21.3898 48.4306 21.3841C48.4183 21.3784 48.4049 21.3753 48.3912 21.375C48.3776 21.3747 48.3641 21.3772 48.3515 21.3824C48.2002 21.4437 48.0429 21.4894 47.8823 21.5185C47.695 21.5457 47.506 21.559 47.3168 21.5584C47.1016 21.5701 46.8862 21.5372 46.6843 21.4617C46.4824 21.3862 46.2983 21.2697 46.1436 21.1196C45.8597 20.8263 45.7001 20.3547 45.7025 19.7118C45.6788 19.2291 45.8176 18.7524 46.0967 18.3579C46.2321 18.1885 46.4066 18.0546 46.6053 17.9675C46.8039 17.8805 47.0207 17.8429 47.237 17.8581C47.6044 17.8505 47.9705 17.9028 48.321 18.013C48.321 18.013 48.4032 18.0482 48.4407 17.9426C48.5299 17.6915 48.5979 17.5132 48.6941 17.2387C48.6981 17.2267 48.6996 17.214 48.6985 17.2014C48.6974 17.1888 48.6938 17.1765 48.6879 17.1654C48.682 17.1542 48.6739 17.1443 48.6641 17.1364C48.6542 17.1284 48.6429 17.1225 48.6308 17.119C48.408 17.041 48.1787 16.9829 47.9456 16.9454C47.6875 16.9101 47.4271 16.8936 47.1666 16.8961C46.7736 16.8878 46.3834 16.963 46.0216 17.1167C45.7052 17.2534 45.4225 17.4576 45.1933 17.715C44.9683 17.9764 44.7983 18.2804 44.6936 18.609C44.5802 18.9663 44.524 19.3393 44.527 19.7141C44.4895 20.4577 44.7332 21.1881 45.2098 21.7602C45.6649 22.267 46.3477 22.5227 47.2394 22.5227C47.736 22.5237 48.2287 22.4355 48.6941 22.2623C48.7154 22.2512 48.7316 22.2323 48.739 22.2094C48.7465 22.1866 48.7447 22.1618 48.734 22.1403L48.4829 21.4364V21.4434Z" fill="white"/>
<path d="M50.2801 19.1487C50.3136 18.8579 50.4097 18.5777 50.5617 18.3275C50.6695 18.1651 50.8182 18.034 50.9929 17.9475C51.1676 17.861 51.362 17.8221 51.5565 17.8348C51.7491 17.8244 51.9409 17.8658 52.1121 17.9544C52.2833 18.0431 52.4276 18.176 52.5303 18.3392C52.6768 18.5887 52.7575 18.8713 52.7649 19.1605L50.2801 19.1487ZM53.7363 18.4214C53.6508 18.1188 53.5002 17.8385 53.2952 17.6001C53.1115 17.3884 52.8863 17.2167 52.6335 17.0957C52.3185 16.9632 51.9804 16.8946 51.6386 16.8939C51.2429 16.8879 50.8506 16.9679 50.4889 17.1285C50.1801 17.2708 49.9068 17.48 49.6888 17.7409C49.472 18.0066 49.3123 18.3141 49.2195 18.6443C49.1159 19.005 49.0646 19.3788 49.067 19.7541C49.0639 20.1298 49.1169 20.5039 49.2242 20.8639C49.326 21.192 49.4982 21.4939 49.7287 21.7485C49.972 22.0064 50.2715 22.2047 50.6039 22.3281C51.0069 22.4695 51.4322 22.5371 51.8592 22.5275C52.8634 22.5275 53.3937 22.2929 53.6119 22.1802C53.6495 22.1568 53.687 22.1192 53.6401 22.0113L53.4055 21.3754C53.4008 21.3629 53.3936 21.3514 53.3845 21.3416C53.3753 21.3319 53.3643 21.324 53.3521 21.3186C53.3398 21.3131 53.3266 21.3101 53.3132 21.3098C53.2998 21.3095 53.2865 21.3119 53.2741 21.3168C52.8265 21.5033 52.3438 21.5906 51.8592 21.5725C51.6438 21.586 51.4279 21.5568 51.2238 21.4868C51.0197 21.4167 50.8313 21.3071 50.6696 21.1643C50.4115 20.9085 50.2871 20.5354 50.2637 20.0052H53.7433C53.7684 20.0047 53.7924 19.9952 53.811 19.9784C53.8296 19.9616 53.8414 19.9385 53.8442 19.9136C53.9096 19.414 53.8729 18.9064 53.7363 18.4214Z" fill="white"/>
<path d="M22.4228 19.1488C22.4574 18.8582 22.5534 18.5782 22.7044 18.3275C22.8125 18.1649 22.9617 18.0337 23.1368 17.9472C23.3119 17.8607 23.5067 17.8219 23.7016 17.8348C23.8945 17.8243 24.0867 17.8655 24.2583 17.9542C24.4299 18.0429 24.5747 18.1758 24.6777 18.3393C24.8231 18.5892 24.9038 18.8715 24.9123 19.1605L22.4228 19.1488ZM25.8814 18.4214C25.7961 18.1182 25.6447 17.8377 25.4379 17.6002C25.2551 17.3885 25.0307 17.2168 24.7786 17.0957C24.4628 16.9629 24.1239 16.8943 23.7814 16.8939C23.3864 16.8876 22.9948 16.9677 22.634 17.1285C22.322 17.2678 22.0453 17.4755 21.8245 17.7362C21.6076 18.0019 21.4478 18.3094 21.3552 18.6396C21.2508 19.0002 21.1987 19.374 21.2004 19.7494C21.1968 20.1253 21.2506 20.4996 21.3599 20.8593C21.4593 21.1939 21.6356 21.5006 21.8748 21.7548C22.1139 22.0091 22.4093 22.2038 22.7372 22.3234C23.143 22.4673 23.5715 22.5364 24.0019 22.5275C25.0062 22.5275 25.5341 22.2929 25.7523 22.1803C25.7899 22.1568 25.8274 22.1193 25.7805 22.0113L25.5458 21.3755C25.5412 21.3629 25.534 21.3514 25.5249 21.3417C25.5157 21.3319 25.5047 21.324 25.4924 21.3186C25.4802 21.3131 25.467 21.3102 25.4536 21.3099C25.4402 21.3095 25.4269 21.3119 25.4144 21.3168C24.9624 21.5049 24.4747 21.5922 23.9855 21.5726C23.7701 21.586 23.5542 21.5569 23.3501 21.4868C23.1459 21.4167 22.9576 21.3072 22.7959 21.1643C22.5401 20.9085 22.4134 20.5355 22.3923 20.0052H25.8696C25.8947 20.0048 25.9187 19.9953 25.9373 19.9784C25.9559 19.9616 25.9677 19.9386 25.9705 19.9137C26.0373 19.4127 26.0014 18.9033 25.8649 18.4167L25.8814 18.4214Z" fill="white"/>
<path d="M14.9076 21.425C14.8276 21.3716 14.7596 21.3021 14.7082 21.2208C14.6325 21.0824 14.5967 20.9256 14.6049 20.768C14.5948 20.6386 14.6179 20.5088 14.6722 20.391C14.7264 20.2731 14.8099 20.1711 14.9147 20.0946C14.9147 20.0946 15.2126 19.8341 15.9236 19.8435C16.2378 19.8497 16.5514 19.8764 16.8621 19.9233V21.5047C16.5524 21.5667 16.2388 21.6083 15.9236 21.6291C15.2197 21.6713 14.9006 21.425 14.9029 21.425H14.9076ZM16.2873 18.9824C16.1465 18.9824 15.9635 18.966 15.7453 18.966C15.4562 18.9649 15.1682 19.002 14.8888 19.0762C14.6283 19.1436 14.3819 19.2573 14.1615 19.4118C13.9416 19.5664 13.7635 19.7732 13.6431 20.0136C13.5227 20.2539 13.4638 20.5204 13.4716 20.7891C13.465 21.0648 13.5212 21.3384 13.6359 21.5892C13.7381 21.8029 13.8922 21.9876 14.084 22.1265C14.2954 22.2752 14.535 22.379 14.7879 22.4316C15.0961 22.4996 15.411 22.5319 15.7265 22.5278C16.0803 22.5277 16.4335 22.4979 16.7824 22.4386C17.1226 22.3799 17.5426 22.2955 17.6576 22.2697L17.8922 22.2063C17.9166 22.1998 17.9379 22.185 17.9524 22.1644C17.967 22.1438 17.9739 22.1188 17.972 22.0937V18.912C17.972 18.2081 17.7866 17.6989 17.4206 17.3775C17.0545 17.056 16.5172 16.9082 15.8227 16.9082C15.508 16.9107 15.194 16.9397 14.8842 16.995C14.8842 16.995 14.131 17.1311 13.8189 17.3657C13.7978 17.3816 13.7829 17.4044 13.7769 17.4302C13.7709 17.4559 13.7741 17.4829 13.7861 17.5065L14.0324 18.1659C14.0359 18.1774 14.0416 18.1882 14.0493 18.1974C14.0571 18.2067 14.0666 18.2143 14.0773 18.2198C14.0881 18.2253 14.0998 18.2285 14.1119 18.2293C14.1239 18.2302 14.136 18.2285 14.1474 18.2245L14.2037 18.1964C14.6789 17.968 15.1993 17.8493 15.7265 17.8491C16.0314 17.8318 16.3336 17.9142 16.5876 18.0837C16.7753 18.2292 16.8739 18.4474 16.8739 18.912V19.0598C16.5735 19.0152 16.299 18.9918 16.299 18.9918" fill="white"/>
<path d="M44.3519 17.1898C44.3572 17.1783 44.3601 17.1659 44.3604 17.1532C44.3606 17.1406 44.3583 17.128 44.3534 17.1163C44.3485 17.1046 44.3413 17.0941 44.3322 17.0853C44.3231 17.0766 44.3122 17.0698 44.3003 17.0655C44.1095 17.0121 43.9137 16.9783 43.7161 16.9646C43.4097 16.9323 43.1002 16.9826 42.8198 17.11C42.5926 17.2051 42.3915 17.3531 42.2332 17.5418V17.1312C42.2338 17.1175 42.2317 17.1039 42.2269 17.0911C42.2221 17.0783 42.2148 17.0666 42.2053 17.0568C42.1959 17.0469 42.1846 17.039 42.172 17.0337C42.1594 17.0283 42.1459 17.0256 42.1323 17.0256H41.2407C41.227 17.0256 41.2135 17.0283 41.2009 17.0337C41.1884 17.039 41.177 17.0469 41.1676 17.0568C41.1582 17.0666 41.1508 17.0783 41.146 17.0911C41.1413 17.1039 41.1391 17.1175 41.1398 17.1312V22.3072C41.1404 22.3355 41.152 22.3623 41.1722 22.382C41.1924 22.4018 41.2195 22.4128 41.2477 22.4128H42.1604C42.1884 22.4128 42.2153 22.4017 42.2351 22.3819C42.2549 22.3621 42.266 22.3352 42.266 22.3072V19.7122C42.2576 19.4038 42.2963 19.096 42.381 18.7994C42.4426 18.608 42.5469 18.4331 42.686 18.2879C42.8071 18.1696 42.9541 18.0812 43.1154 18.0298C43.268 17.986 43.4259 17.9639 43.5847 17.9641C43.7134 17.9673 43.8415 17.983 43.9671 18.011C44.0328 18.011 44.0704 17.9782 44.0938 17.9172C44.1525 17.7576 44.3285 17.2813 44.3543 17.1875" fill="white"/>
<path d="M35.7685 14.7848C35.6559 14.752 35.555 14.7285 35.4236 14.7027C35.2684 14.6776 35.1115 14.6659 34.9543 14.6675C34.6858 14.6517 34.4169 14.6903 34.1637 14.7811C33.9105 14.8718 33.6782 15.0127 33.4808 15.1954C33.0891 15.6368 32.8433 16.1882 32.7769 16.7745L32.7346 17.0092H31.9439C31.9156 17.0084 31.888 17.0184 31.8667 17.0371C31.8454 17.0558 31.8319 17.0819 31.8289 17.1101L31.7022 17.8351C31.7022 17.9031 31.721 17.9477 31.8149 17.9477H32.5821L31.8031 22.2932C31.7565 22.5845 31.6866 22.8717 31.5943 23.152C31.5424 23.3275 31.4632 23.4938 31.3597 23.6447C31.2807 23.7546 31.169 23.8367 31.0406 23.8793C30.9085 23.9205 30.7706 23.9403 30.6323 23.938C30.5385 23.9361 30.4451 23.9259 30.3531 23.9075C30.2883 23.8946 30.2253 23.8741 30.1654 23.8465C30.1411 23.8373 30.1142 23.8381 30.0904 23.8486C30.0667 23.8591 30.0481 23.8786 30.0387 23.9028C30.0105 23.9779 29.804 24.541 29.7806 24.6067C29.7747 24.6195 29.7715 24.6333 29.771 24.6473C29.7706 24.6614 29.773 24.6753 29.778 24.6884C29.783 24.7016 29.7906 24.7135 29.8003 24.7237C29.81 24.7338 29.8217 24.7419 29.8345 24.7475C29.9391 24.7841 30.0456 24.8146 30.1536 24.839C30.3206 24.8769 30.4917 24.8934 30.6628 24.8883C30.953 24.892 31.2417 24.8468 31.5169 24.7545C31.7645 24.6598 31.9852 24.506 32.1598 24.3064C32.3598 24.0789 32.5129 23.8142 32.6103 23.5274C32.7475 23.1464 32.8496 22.7537 32.9153 22.3542L33.699 17.9196H34.8464C34.8731 17.9221 34.8999 17.9149 34.9218 17.8994C34.9438 17.884 34.9594 17.8611 34.966 17.8351L35.0834 17.1312C35.0834 17.0608 35.0646 17.0186 34.9707 17.0186H33.8586C33.8981 16.752 33.9593 16.4891 34.0416 16.2325C34.0928 16.0938 34.1728 15.9675 34.2762 15.8618C34.3583 15.7804 34.4578 15.7186 34.5672 15.6811C34.6888 15.644 34.8154 15.6258 34.9426 15.6272C35.0379 15.6283 35.1328 15.6377 35.2265 15.6553C35.2867 15.6671 35.3462 15.682 35.4048 15.6999C35.5198 15.7351 35.5339 15.6999 35.5573 15.6459L35.8225 14.9162C35.8268 14.9041 35.8286 14.8912 35.8277 14.8783C35.8268 14.8654 35.8233 14.8529 35.8174 14.8414C35.8114 14.83 35.8032 14.8199 35.7932 14.8117C35.7831 14.8036 35.7715 14.7976 35.7591 14.7942" fill="white"/>
<path d="M20.2281 22.3074C20.2291 22.3209 20.2273 22.3345 20.2227 22.3473C20.2182 22.3601 20.2111 22.3718 20.2019 22.3817C20.1926 22.3916 20.1814 22.3995 20.169 22.4049C20.1565 22.4103 20.1431 22.413 20.1296 22.413H19.2074C19.1938 22.413 19.1803 22.4103 19.1677 22.4049C19.1552 22.3995 19.1438 22.3917 19.1344 22.3818C19.125 22.3719 19.1176 22.3603 19.1128 22.3475C19.1081 22.3347 19.1059 22.3211 19.1066 22.3074V14.8859C19.1059 14.8722 19.1081 14.8586 19.1128 14.8458C19.1176 14.833 19.125 14.8213 19.1344 14.8115C19.1438 14.8016 19.1552 14.7937 19.1677 14.7884C19.1803 14.783 19.1938 14.7803 19.2074 14.7803H20.1296C20.1431 14.7802 20.1565 14.783 20.169 14.7884C20.1814 14.7938 20.1926 14.8017 20.2019 14.8116C20.2111 14.8215 20.2182 14.8332 20.2227 14.846C20.2273 14.8588 20.2291 14.8723 20.2281 14.8859V22.3074Z" fill="white"/>
</g>
</svg>
