<?xml version="1.0" encoding="utf-8"?>
<!-- Generator: Adobe Illustrator 20.1.0, SVG Export Plug-In . SVG Version: 6.00 Build 0)  -->
<svg version="1.0" id="Layer_1" xmlns="http://www.w3.org/2000/svg" xmlns:xlink="http://www.w3.org/1999/xlink" x="0px" y="0px"
	 width="37.8px" height="43.5px" viewBox="0 0 37.8 43.5" style="enable-background:new 0 0 37.8 43.5;" xml:space="preserve">
<style type="text/css">
	.st0{fill:#9EA2A3;}
</style>
<g>
	<path class="st0" d="M29.6,38.5c0.6,0,0.8-0.2,0.8-0.7l0.7-5.7c0.1-0.7,0.3-0.9,0.6-1.2l4.7-3.5c0.3-0.2,0.5-0.6,0.6-0.9
		c0.2-1.2,0.3-2.4,0.3-3.6c0-10.3-8.3-18.6-18.6-18.6C8.6,4.3,0.3,12.6,0.3,22.9c0,1.2,0.1,2.4,0.3,3.6c0.1,0.3,0.3,0.7,0.6,0.9
		l4.7,3.5c0.3,0.2,0.5,0.4,0.6,1.2l0.7,5.7c0.1,0.5,0.3,0.7,0.8,0.7h5v-3h-1.4c-1.1,0-1.7-0.1-1.8-1.4l-0.4-2.6
		c-0.1-0.7,0.2-1.3,1.4-0.4c1.5,1.2,4.7,3.4,4.7,3.4c0.5,0.3,0.7,1-0.3,1h-2.2v3h3.3c0.9,0.6,1.5,0.8,2.4,0.8l0-3
		c-0.5,0-1-0.4-1.4-0.7L4.6,26c-1.1-0.9-1.3-1.4-1.3-3.1c0-0.6,0-1.2,0.1-1.8c0.2-0.7,0.7-1.4,1.8-0.2l10,10.5
		c0.1,0.2,0.4,0,0.2-0.2L4.9,19c-0.5-0.5-0.7-0.8-0.3-2.2c0.3-0.8,0.7-1.5,1.2-2.1c0.2-0.2,1.2-1.3,1.9,0l8.6,15.8
		c0.1,0.2,0.4,0.1,0.3-0.2L8,13.3c-0.4-1-0.2-1.3,0-1.5c0.2-0.3,1.8-1.6,2.6-2.1c0.8-0.4,1.4-0.8,1.7,0.4l5.3,19.7
		c0.1,0.3,0.4,0.2,0.3-0.1L13.3,9.2c-0.1-0.6,0.1-0.9,0.9-1.2c1-0.4,2.2-0.7,3.2-0.7c0.7,0,1.1,0.4,1.1,1.2l0.3,21.1
		c0,0.3,0.3,0.2,0.3,0l0.3-21.1c0-0.9,0.4-1.2,1.1-1.2c1,0,2.2,0.3,3.2,0.7c0.7,0.2,1,0.6,0.9,1.2l-4.6,20.5
		c-0.1,0.3,0.2,0.4,0.3,0.1l5.3-19.7c0.3-1.2,1-0.9,1.7-0.4c0.8,0.5,2.3,1.7,2.6,2.1c0.2,0.2,0.4,0.6,0,1.5l-8.5,17
		c-0.1,0.2,0.2,0.4,0.3,0.2l8.6-15.8c0.7-1.3,1.6-0.2,1.9,0c0.5,0.6,0.8,1.3,1.2,2.1c0.4,1.4,0.2,1.7-0.3,2.2L22.4,31.1
		c-0.2,0.2,0.1,0.4,0.2,0.2l10-10.5c1.1-1.1,1.6-0.5,1.8,0.2c0,0.2,0.1,0.5,0.1,0.7c0,0.4,0,0.7,0,1.1c0,1.7-0.2,2.2-1.3,3.1
		l-12.9,9.5c-0.4,0.3-1,0.7-1.5,0.7l0,3c0.9,0,1.6-0.2,2.5-0.8h2.8v-3h-1.7c-1,0-0.8-0.7-0.3-1c0,0,3.1-2.2,4.7-3.4
		c1.2-0.9,1.6-0.3,1.4,0.4l-0.4,2.6c-0.2,1.3-0.7,1.4-1.8,1.4h-1.9v3L29.6,38.5L29.6,38.5L29.6,38.5z"/>
</g>
</svg>
