<svg id="Layer_1" xmlns="http://www.w3.org/2000/svg" width="1035.7" height="229.5" viewBox="0 0 1035.7 229.5"><style>.st0{fill:#a3a3a3}</style><path class="st0" d="M1714.3 127.1c-94.8 0-169.1 21.7-230.7 81.1l54.8 54.8c44.6-46.8 105.1-65.1 174.8-65.1 92.5 0 149.6 33.1 149.6 99.4 0 49.1-28.6 76.5-93.7 82.2l-92.5 8c-109.7 9.1-167.9 58.2-167.9 150.8 0 102.8 86.8 164.5 206.7 164.5 79.9 0 151.9-19.4 202.2-60.5l-53.7-53.7c-40 30.8-91.4 44.5-149.6 44.5-82.2 0-125.7-35.4-125.7-92.5 0-48 27.4-76.5 98.2-82.2l90.2-8c98.2-9.1 165.6-46.8 165.6-151.9.1-108.6-92.4-171.4-228.3-171.4m478.5 6.8c-95.9 0-143.9 67.4-143.9 150.8v344.9h-70.8v62.8h70.8v175.9h82.2V692.5H2251v-62.8h-119.9V287c0-51.4 24-82.2 76.5-82.2h43.4V134l-58.2-.1m483.6 259.3h-157.6c-84.5 0-125.6-34.3-125.6-99.4 0-65.1 40-96 129.1-96 48 0 90.2 3.4 125.6 37.7 19.4 18.3 28.6 50.3 28.6 97.1l-.1 60.6zm0-259.3v53.7c-45.7-45.7-86.8-60.5-162.2-60.5-77.7 0-123.4 14.8-158.8 51.4-27.4 27.4-42.2 69.7-42.2 114.2 0 98.2 68.5 162.2 194.2 162.2h169.1v53.7c0 82.2-41.1 123.3-143.9 123.3-71.9 0-108.5-17.1-141.6-64l-56 51.4c50.3 65.1 107.4 83.4 198.8 83.4 150.8 0 225-65.1 225-187.3V133.9h-82.4m404.3-6.8c-141.6 0-249 96-249 287.8 0 191.9 107.4 287.8 249 287.8 77.7 0 126.8-20.5 185-83.4l-56-52.5c-42.3 46.8-75.4 62.8-129.1 62.8-54.8 0-100.5-21.7-130.2-64-26.3-36.5-36.6-80-36.6-150.8 0-70.8 10.3-114.2 36.6-150.8 29.7-42.3 75.4-64 130.2-64 53.7 0 86.8 17.1 129.1 64l56-53.7c-58.2-62.6-107.3-83.2-185-83.2m635.3 6.8l-178.2 287.8-109.6-125.6V133.9H3346v813.3h82.2V403.5l253.6 292.4h102.8l-190.8-214.7L3817.7 134l-101.7-.1m433.3 418.6c-16.2 16.2-37.9 24.9-66 24.9s-48.7-8.7-64.9-24.9c-29.2-29.2-32.5-77.9-32.5-136.4s3.2-108.2 32.5-137.5c16.2-16.2 36.8-24.9 64.9-24.9 28.1 0 49.8 8.7 66 24.9 29.2 29.2 32.5 79 32.5 137.5s-3.3 107.2-32.5 136.4zm109.4-356.1c-34.6-36.8-92-69.3-175.4-69.3s-139.6 32.5-174.3 69.3c-50.9 53-63.9 116.9-63.9 219.7 0 101.8 13 165.6 63.9 218.7 34.6 36.8 90.9 69.3 174.3 69.3s140.7-32.5 175.4-69.3c50.9-53.1 63.9-116.9 63.9-218.7-.1-102.8-13.1-166.7-63.9-219.7m380.1-62.8h-110.4l-207.8 564h148.3L4583.6 349l113.7 348.6h148.3l-206.8-564m540.3 395.1c-15.1 33.6-46.5 58.4-94.2 58.4-47.6 0-79-24.9-94.2-58.5-8.7-20.6-11.9-35.7-13-60.6H5192c-1 25-4.2 40.1-12.9 60.7zm-201.3-157c0-72.5 44.4-125.6 123.4-125.6 61.7 0 92 17.3 127.8 53l85.5-83.4c-57.4-57.4-112.6-88.8-214.3-88.8-133.2 0-260.9 60.6-260.9 289 0 184 99.6 288 245.7 288 157 0 245.7-114.8 245.7-269.5v-62.8l-352.9.1m729.3 172.2c-21.7 21.7-40 33.5-74.7 33.5-43.3 0-90.9-32.5-90.9-103.9V133.6h-140.7v564h137.5v-54.1c27 32.5 81.2 60.6 141.8 60.6 55.2 0 94.2-14.1 133.2-53l-106.2-107.2m679.5-410.3c-115.8 0-164.5 81.2-164.5 161.3v633.5h140.7V303.5c0-33.6 14.1-50.9 49.8-50.9h54.1v-119h-80.1zm-335.3 456.6V133.6h-140.7v456.6h-58.5v107.2h58.5v70.4c0 80.1 49.8 161.3 164.5 161.3h80.1V809.9h-54.1c-33.5 0-49.8-18.4-49.8-50.9v-61.7h103.9V590.2h-103.9m739.8-37.7c-16.2 16.2-37.9 24.9-66 24.9s-48.7-8.7-65-24.9c-29.2-29.2-32.5-77.9-32.5-136.4s3.2-108.2 32.5-137.5c16.2-16.2 36.8-24.9 65-24.9 28.1 0 49.8 8.7 66 24.9 29.2 29.2 32.5 79 32.5 137.5s-3.3 107.2-32.5 136.4zm109.3-356.1c-34.6-36.8-92-69.3-175.4-69.3s-139.6 32.5-174.3 69.3c-50.9 53-63.9 116.9-63.9 219.7 0 101.8 13 165.6 63.9 218.7 34.6 36.8 90.9 69.3 174.3 69.3s140.7-32.5 175.4-69.3c50.9-53.1 63.9-116.9 63.9-218.7 0-102.8-13-166.7-63.9-219.7m695.4-62.8H7480l-118 354-118-354h-115.8l-173.2 564h149.4l90.9-348.6 114.8 348.6h102.8L7528.7 349l90.9 348.6H7768l-172.2-564M960.3 619.5l-659 159.8 32 131.8 659-159.8-32-131.8m44.2 157.7l-603.8 308.6 61.7 120.8L1066.2 898l-61.7-120.8m93 163.3l-510.7 446.2 89.2 102.1 510.7-446.1-89.2-102.2m140.5 143.6l-380.8 561.1 112.2 76.2 380.8-561.1-112.2-76.2M949.7 454.7l-677.1 37 7.4 135.4 677.1-37-7.4-135.4" transform="matrix(.133 0 0 -.133 0 229.52)"/><path class="st0" d="M1090.1 135.6v561.9h135.5l.1-697.5H0v698.1h135.6V135.6h954.5" transform="matrix(.133 0 0 -.133 0 229.52)"/><path class="st0" d="M270.7 270.7h682.7v135.6H270.7V270.7z" transform="matrix(.133 0 0 -.133 0 229.52)"/></svg>