<svg width="89" height="20" viewBox="0 0 89 20" fill="none" xmlns="http://www.w3.org/2000/svg">
<g style="mix-blend-mode:multiply">
<path d="M7.85953 18.1229C1.93996 18.1212 1.29171 14.2919 1.34177 12.6322L1.34814 12.5712L4.49092 12.5912L4.48455 12.6522C4.5237 13.458 4.82689 15.2779 7.66468 15.266C8.5924 15.2396 9.28249 15.1267 9.80234 14.8727C10.4569 14.5095 10.8193 13.9923 10.7801 13.1866C10.7856 11.9539 9.76772 11.6626 8.03063 11.1728L6.40916 10.7567C3.88547 10.1231 1.53839 9.56957 1.54838 5.93244C1.55748 5.25508 1.70404 3.85212 2.62447 2.71499C3.61227 1.52324 5.22007 0.889574 7.4415 0.874989C9.54093 0.847658 11.1369 1.5077 12.1748 2.78775C13.2737 4.07416 13.4194 5.63099 13.423 6.18634L13.4166 6.24734L10.3349 6.23371C10.283 5.54998 10.0344 3.79742 7.25762 3.81565C6.58027 3.80656 5.94479 3.98682 5.48594 4.24721C4.89872 4.55585 4.65837 5.08572 4.64928 5.76307C4.63745 7.05678 5.66168 7.28711 6.26529 7.41183L9.98346 8.41691C12.0865 8.94493 13.962 9.88083 14.0221 12.847C14.0495 14.9464 13.2128 16.4623 11.5121 17.3946C10.0263 18.041 8.48226 18.0647 7.85953 18.1229Z" fill="#7F8184"/>
<path d="M13.6892 1.28097L26.1447 1.28723L26.1438 4.24702L21.5179 4.25707L21.5381 17.6403L18.3279 17.6749L18.2733 17.6075L18.3141 4.2307L13.6883 4.24075L13.6892 1.28097Z" fill="#7F8184"/>
<path d="M62.0337 1.27472L73.2564 1.27553L73.2556 4.23532L65.1756 4.2545L65.1974 7.58665L72.6001 7.55836L72.5992 10.5181L65.1966 10.5464L65.1966 14.6779L73.6426 14.697L73.6417 17.6568L73.5807 17.6504L61.9856 17.6723L61.9919 17.6113L61.9727 1.26834L62.0337 1.27472Z" fill="#7F8184"/>
<path d="M81.1242 18.0689C78.6588 18.058 76.8798 17.3788 75.7809 16.0924C74.7366 14.8734 74.5846 13.3775 74.6064 12.5782L74.6128 12.5172L77.7556 12.5372L77.7492 12.5982C77.7884 13.4039 78.0916 15.2238 80.9293 15.212C81.8571 15.1856 82.5472 15.0727 83.067 14.8187C83.7216 14.4554 84.0839 13.9383 84.0448 13.1326C84.0502 11.8998 83.0324 11.6085 81.2953 11.1187L79.6738 10.7027C77.1501 10.069 74.8031 9.51552 74.813 5.87839C74.8121 4.70667 75.22 0.802779 80.7062 0.82094C82.8056 0.79361 84.4016 1.45365 85.4395 2.7337C86.5384 4.02012 86.684 5.57694 86.6877 6.13229L86.6813 6.19329L83.5385 6.17329C83.4866 5.48956 83.2381 3.737 80.4613 3.75523C79.2286 3.74978 77.8775 4.28694 77.8529 5.70265C77.8411 6.99636 78.8653 7.22669 79.469 7.35141L83.1871 8.35649C85.2902 8.88451 87.2267 9.82678 87.2258 12.7866C87.2531 14.886 86.3555 16.3955 84.7158 17.3341C83.23 17.9806 81.6796 18.0652 81.1242 18.0689Z" fill="#7F8184"/>
<path d="M50.7052 15.8778L50.7279 3.85563C50.7169 2.18956 52.1508 0.859416 53.8779 0.854849C55.605 0.850282 56.9542 2.10119 57.0808 3.84101L57.9676 8.92844L55.1817 9.62403L54.0536 3.89475L53.9317 3.882L53.9691 14.7388L61.4327 14.7169L61.4255 17.7377L52.7901 17.7605C52.7901 17.7605 52.6071 17.7414 52.4787 17.7896C51.4418 17.6813 50.738 16.7445 50.7052 15.8778Z" fill="#7F8184"/>
<path d="M34.0568 17.6524L33.0525 14.2793L27.5053 14.2548L26.4775 17.6006L23.0843 17.6161L23.0907 17.5551L28.4967 1.22392L32.1948 1.24028L37.5783 17.5887L34.0568 17.6524ZM28.3602 11.3842L32.1193 11.407L30.2556 5.04586C30.3166 5.05223 28.3602 11.3842 28.3602 11.3842Z" fill="#7F8184"/>
<path d="M41.5188 17.6309L38.2477 17.6592L38.254 17.5982L38.2348 1.25519L45.2041 1.24329C48.1638 1.24418 49.9856 3.28442 49.9592 6.4882C49.931 7.34855 49.7362 8.62314 49.0725 9.66376C48.1876 11.0512 46.8848 11.7168 45.0967 11.715L41.4596 11.705C41.5142 11.7724 41.5188 17.6309 41.5188 17.6309ZM41.5087 8.87358L44.4075 8.86809C46.7509 8.86625 46.7464 7.13918 46.7682 6.33982C46.7509 4.73475 45.9543 4.09655 43.9768 4.13663L41.5114 4.12572L41.5087 8.87358Z" fill="#7F8184"/>
</g>
</svg>
