<svg width="378" height="50" viewBox="0 0 378 50" fill="none" xmlns="http://www.w3.org/2000/svg">
<path d="M2.22409 11.6171H1.1357C0.520531 11.6171 0 12.1283 0 12.7323C0 13.3364 0.520531 13.8476 1.1357 13.8476H2.22409C2.83926 13.8476 3.31247 13.3364 3.31247 12.7323C3.31247 12.1283 2.83926 11.6171 2.22409 11.6171ZM22.9507 27.6952H21.8623C21.2471 27.6952 20.7266 28.2063 20.7266 28.8104C20.7266 29.4145 21.2471 29.9257 21.8623 29.9257H22.9507C23.5658 29.9257 24.0864 29.4145 24.0864 28.8104C24.0864 28.2063 23.5658 27.6952 22.9507 27.6952ZM22.0516 17.1933C22.0516 16.5892 21.531 16.0781 20.9159 16.0781H17.1775C16.5623 16.0781 16.0418 16.5892 16.0418 17.1933C16.0418 17.7974 16.5623 18.3086 17.1775 18.3086H20.9159C21.531 18.2621 22.0516 17.7974 22.0516 17.1933ZM57.5896 10.2695L56.4539 3.99628C55.9807 1.44052 54.0879 0 51.6272 0H7.666C5.67852 0 4.30621 1.57993 4.68478 3.57807L5.8678 10.2695C5.8678 10.316 5.91512 10.3625 5.91512 10.4089C6.05709 11.2454 5.6312 11.5706 5.25263 11.6636C4.82674 11.803 4.49549 12.2212 4.49549 12.6859C4.49549 13.29 5.01602 13.8011 5.6312 13.8011H54.6084C56.5959 13.8476 57.9682 12.2677 57.5896 10.2695ZM42.6362 35.5019C42.163 33.039 40.7434 32.1561 39.1345 32.1561H27.7301H27.5408C26.9256 32.1561 26.4051 32.6673 26.4051 33.2714C26.4051 33.829 26.831 34.2937 27.3988 34.3402C27.7774 34.3866 28.156 34.8978 28.3926 36.0595L29.5756 42.5651C29.9542 44.5167 31.8943 46.0967 33.9291 46.0502L40.838 46.0037C42.8728 46.0037 44.2451 44.4238 43.8666 42.4721L42.6362 35.5019ZM27.3042 29.9721H39.8443H39.8916C39.9862 29.9721 40.0809 29.9721 40.1755 29.9257C41.3585 29.6933 41.4059 28.7639 41.2639 27.8346L39.655 19.1915C39.2291 16.961 37.9041 16.0781 36.1532 16.0781H24.7962H24.6069C23.9917 16.0781 23.4712 16.5892 23.4712 17.1933C23.4712 17.7509 23.8971 18.2156 24.4649 18.2621C24.8435 18.355 25.2694 18.8197 25.506 20.1208L26.7364 26.7193C26.8783 27.3699 26.4524 27.6952 26.0739 27.7881C25.648 27.9275 25.3167 28.3457 25.3167 28.8104C25.3167 29.4145 25.8373 29.9257 26.4524 29.9257L27.3042 29.9721Z" fill="url(#paint0_linear)"/>
<path d="M266.985 10.8272H257.048V39.1729H252.032V10.8272H242.094V6.36621H266.985V10.8272Z" fill="white"/>
<path d="M284.541 29.9252H266.512C267.127 33.5497 269.872 35.4085 273.563 35.4085C276.165 35.4085 278.673 34.2003 279.904 32.1557L283.689 34.0144C281.702 37.7319 277.632 39.73 273.326 39.73C266.796 39.73 261.638 35.0367 261.638 27.9735C261.638 20.9103 266.89 16.3564 273.326 16.3564C279.762 16.3564 284.683 20.9103 284.683 27.9271C284.636 28.5312 284.588 29.2282 284.541 29.9252ZM279.904 26.1613C279.478 22.6761 276.828 20.678 273.373 20.678C269.872 20.678 267.269 22.4438 266.606 26.1613H279.904Z" fill="white"/>
<path d="M323.628 26.4401V39.1724H318.849V26.6724C318.849 23.0479 316.909 20.8174 313.833 20.8174C310.568 20.7709 308.438 23.1408 308.154 26.4866V39.1724H303.328V26.6724C303.328 23.0479 301.387 20.8174 298.595 20.8174C295.614 20.8174 292.633 22.6761 292.633 27.1836V39.126H287.901V16.9141H292.633V20.4457C293.674 17.9364 296.608 16.3564 299.731 16.3564C302.996 16.3564 305.788 18.0293 307.113 20.9103C309.148 17.0999 312.697 16.3564 314.921 16.3564C320.552 16.3564 323.628 20.1204 323.628 26.4401Z" fill="white"/>
<path d="M351.879 28.0665C351.879 35.1761 346.768 39.7301 340.616 39.7301C337.399 39.7301 334.276 38.3825 332.761 35.8732V49.9531H328.029V16.9141H332.761V20.2598C334.276 17.7505 337.541 16.3564 340.616 16.3564C346.721 16.3564 351.879 21.0033 351.879 28.0665ZM347.052 28.113C347.052 23.9308 343.929 20.7245 340.001 20.7245C336.216 20.7245 332.761 23.652 332.761 28.113C332.761 32.5739 336.5 35.362 340.001 35.362C343.976 35.362 347.052 32.2951 347.052 28.113Z" fill="white"/>
<path d="M354.198 28.02C354.198 20.9568 359.64 16.3564 366.075 16.3564C372.511 16.3564 378 20.9568 378 28.02C378 35.0832 372.511 39.73 366.075 39.73C359.64 39.73 354.198 35.0832 354.198 28.02ZM373.268 28.02C373.268 23.7449 369.955 20.7245 366.075 20.7245C362.195 20.7245 358.93 23.7449 358.93 28.02C358.93 32.3416 362.195 35.362 366.075 35.362C369.955 35.362 373.268 32.3416 373.268 28.02Z" fill="white"/>
<path d="M100.888 23.5134C100.557 32.4353 93.2697 39.452 84.2787 39.452C74.8145 39.452 67.811 31.9706 67.811 22.8163C67.811 13.6621 75.4297 6.18066 84.752 6.18066C88.9162 6.18066 93.0331 7.99293 96.4876 11.1528L93.8376 14.452C91.1876 12.1751 87.9698 10.5952 84.752 10.5952C77.9377 10.5952 72.3065 16.032 72.3065 22.8163C72.3065 29.7401 77.6065 35.0375 84.2787 35.0375C90.2885 35.0375 94.9733 30.716 96.0143 25.0933H82.2913V21.1435H100.841V23.5134H100.888Z" fill="white"/>
<path d="M116.552 21.2366H114.044C111.299 21.2366 108.98 23.5136 108.98 26.2087V39.1269H104.485V16.915H108.176V18.7273C109.454 17.4727 111.299 16.915 113.476 16.915H118.303L116.552 21.2366Z" fill="white"/>
<path d="M141.206 39.126H137.278V36.2915C134.297 39.126 129.659 40.4736 124.927 38.429C121.473 36.942 118.823 33.7822 118.113 30.0647C116.741 22.955 122.372 16.5889 129.518 16.5889C132.499 16.5889 135.291 17.8435 137.231 19.7487V16.9141H141.158V39.126H141.206ZM136.616 29.7394C137.657 25.232 134.202 21.1428 129.707 21.1428C125.779 21.1428 122.656 24.3026 122.656 28.0666C122.656 32.3881 126.442 35.6409 130.937 34.9904C133.634 34.4792 135.906 32.3417 136.616 29.7394Z" fill="white"/>
<path d="M150.197 15.799V17.0536H157.342V20.9105H150.197V39.1261H145.796V15.9384C145.796 11.0592 149.345 8.22461 153.84 8.22461H159.235L157.39 12.4068H153.84C151.806 12.3138 150.197 13.8938 150.197 15.799Z" fill="white"/>
<path d="M181.334 39.126H177.548V36.2915C174.567 39.126 169.93 40.4736 165.198 38.429C161.743 36.942 159.093 33.7822 158.383 30.0647C157.011 22.955 162.642 16.5889 169.788 16.5889C172.769 16.5889 175.561 17.8435 177.501 19.7487V16.9141H181.429V39.0796H181.334V39.126ZM176.697 29.7394C177.738 25.232 174.283 21.1428 169.788 21.1428C165.86 21.1428 162.737 24.3026 162.737 28.0666C162.737 32.3881 166.523 35.6409 171.018 34.9904C173.81 34.4792 176.034 32.3417 176.697 29.7394Z" fill="white"/>
<path d="M205.42 26.1155V39.1266H200.925V25.9761C200.925 23.2809 198.606 21.0039 195.862 21.0039C192.975 21.0039 190.798 23.2809 190.798 25.9761V39.0801H186.303V16.9147H189.994V18.8199C191.603 17.3329 193.779 16.543 196.004 16.543C201.256 16.7288 205.42 20.911 205.42 26.1155Z" fill="white"/>
<path d="M231.92 39.126H228.135V36.2915C225.153 39.126 220.516 40.4736 215.784 38.429C212.329 36.942 209.679 33.7822 208.969 30.0647C207.597 22.955 213.228 16.5889 220.374 16.5889C223.355 16.5889 226.147 17.8435 228.087 19.7487V16.9141H232.015V39.0796H231.92V39.126ZM227.283 29.7394C228.324 25.232 224.869 21.1428 220.374 21.1428C216.446 21.1428 213.323 24.3026 213.323 28.0666C213.323 32.3881 217.109 35.6409 221.604 34.9904C224.396 34.4792 226.62 32.3417 227.283 29.7394Z" fill="white"/>
<defs>
<linearGradient id="paint0_linear" x1="79.7609" y1="6.22798" x2="13.0836" y2="27.1693" gradientUnits="userSpaceOnUse">
<stop stop-color="#FFF100"/>
<stop offset="1" stop-color="#F05A28"/>
</linearGradient>
</defs>
</svg>
