<?xml version="1.0" encoding="utf-8"?>
<!-- Generator: Adobe Illustrator 23.0.6, SVG Export Plug-In . SVG Version: 6.00 Build 0)  -->
<svg version="1.1" id="Layer_1" xmlns="http://www.w3.org/2000/svg" xmlns:xlink="http://www.w3.org/1999/xlink" x="0px" y="0px"
	 viewBox="0 0 763.81 193.61" style="enable-background:new 0 0 763.81 193.61;" xml:space="preserve">
<style type="text/css">
	.st0{fill:#FFFFFF;}
</style>
<g>
	<path class="st0" d="M189.68,129.57c-9.44,0-14.12-5.39-14.12-14.39V91.43h-8.55v-9.27h8.55V70.3l11.25-2.79v14.66h11.79v9.27
		H186.8v22.75c0,3.6,1.62,5.13,5.21,5.13c2.34,0,4.23-0.09,7.29-0.45v9.45C196.16,129.12,193.01,129.57,189.68,129.57"/>
	<path class="st0" d="M232.95,128.95v-28.88c0-5.39-1.8-8.72-7.73-8.72c-6.76,0-9.63,7.2-9.63,12.95v24.65h-11.24V64h11.24v23.11
		c2.7-3.96,7.92-6.12,12.77-6.12c9.99,0,15.84,7.11,15.84,16.74v31.21H232.95z"/>
	<path class="st0" d="M292.49,109.07h-31.3c-0.09,3.6,1.17,7.02,3.41,9.17c1.62,1.53,3.87,2.88,6.93,2.88
		c3.24,0,5.21-0.63,6.84-2.25c0.98-0.99,1.79-2.25,2.24-3.96h10.79c-0.27,2.79-2.16,6.48-3.96,8.64c-3.95,4.67-9.8,6.56-15.73,6.56
		c-6.39,0-11.07-2.25-14.76-5.76c-4.68-4.5-7.2-11.06-7.2-18.7c0-7.47,2.25-14.12,6.75-18.72c3.51-3.59,8.54-5.93,14.93-5.93
		c6.93,0,13.23,2.79,17.09,8.63c3.42,5.13,4.23,10.44,4.05,16.28C292.58,105.92,292.49,108.08,292.49,109.07 M278.46,92.7
		c-1.53-1.62-3.87-2.7-7.11-2.7c-3.42,0-6.2,1.44-7.83,3.6c-1.61,2.07-2.33,4.23-2.42,7.28h20.24
		C281.25,97.37,280.26,94.67,278.46,92.7"/>
</g>
<polygon class="st0" points="316.15,75.96 316.15,128.95 304.55,128.95 304.55,75.96 285.66,75.96 285.66,65.17 335.04,65.17 
	335.04,75.96 "/>
<g>
	<path class="st0" d="M354.28,92.15c-7.91,0-12.05,5.67-12.05,13.23v23.57H330.9V82.17h9.53l0.99,7.02
		c2.16-5.4,7.73-7.64,13.22-7.64c1.17,0,2.34,0.09,3.51,0.27V92.6C356.89,92.33,355.54,92.15,354.28,92.15"/>
	<path class="st0" d="M396.2,129.66c-4.86,0-7.55-3.06-7.92-6.56c-2.16,3.77-7.56,7.01-14.21,7.01c-11.15,0-16.91-7.01-16.91-14.66
		c0-8.91,6.93-14.03,15.83-14.66l13.77-1v-2.87c0-4.41-1.54-7.37-7.92-7.37c-5.22,0-8.27,2.33-8.54,6.65h-10.88
		c0.62-10.53,8.99-15.2,19.43-15.2c8.01,0,14.85,2.52,17.54,9.54c1.17,2.97,1.35,6.3,1.35,9.45v17.36c0,2.16,0.72,2.97,2.61,2.97
		c0.71,0,1.44-0.18,1.44-0.18v8.27C399.89,129.22,398.9,129.66,396.2,129.66 M386.76,108.16l-11.88,0.9
		c-3.42,0.27-6.74,2.34-6.74,6.12c0,3.6,3.15,5.84,6.65,5.84c7.02,0,11.97-3.78,11.97-10.7V108.16z"/>
	<path class="st0" d="M437.4,128.95l-0.72-5.13c-2.79,4.32-8.01,6.21-13.14,6.21c-4.68,0-8.55-1.63-11.42-3.95
		c-5.58-4.59-8.28-11.61-8.28-20.42c0-9.18,2.79-16.28,8.36-20.88c2.88-2.33,6.66-3.78,11.43-3.78c5.94,0,10.25,1.98,12.23,4.41V64
		h11.24v64.95H437.4z M425.79,90.45c-3.51,0-5.94,1.61-7.56,3.68c-2.34,3.06-2.97,7.29-2.97,11.34c0,4.04,0.63,8.36,2.97,11.42
		c1.61,2.07,4.05,3.69,7.56,3.69c8.81,0,10.61-8.37,10.61-15.1C436.41,98.72,434.61,90.45,425.79,90.45"/>
	<path class="st0" d="M496.14,109.07h-31.3c-0.09,3.6,1.17,7.02,3.42,9.17c1.61,1.53,3.87,2.88,6.92,2.88
		c3.24,0,5.22-0.63,6.84-2.25c0.99-0.99,1.8-2.25,2.24-3.96h10.8c-0.27,2.79-2.16,6.48-3.96,8.64c-3.96,4.67-9.81,6.56-15.75,6.56
		c-6.38,0-11.06-2.25-14.75-5.76c-4.68-4.5-7.19-11.06-7.19-18.7c0-7.47,2.24-14.12,6.75-18.72c3.51-3.59,8.54-5.93,14.93-5.93
		c6.93,0,13.23,2.79,17.09,8.63c3.42,5.13,4.22,10.44,4.05,16.28C496.22,105.92,496.14,108.08,496.14,109.07 M482.1,92.7
		c-1.53-1.62-3.87-2.7-7.11-2.7c-3.41,0-6.2,1.44-7.82,3.6c-1.62,2.07-2.34,4.23-2.43,7.28h20.24
		C484.89,97.37,483.9,94.67,482.1,92.7"/>
	<path class="st0" d="M545.43,122.11c-4.23,4.41-10.61,6.83-17.9,6.83H502.7V65.17h24.82c7.29,0,13.67,2.42,17.9,6.83
		c6.56,6.75,7.47,16.2,7.47,25.01C552.89,105.83,551.99,115.36,545.43,122.11 M536.52,79.2c-2.16-2.16-5.31-3.6-9-3.6H514.3v42.91
		h13.22c3.69,0,6.84-1.44,9-3.6c4.5-4.5,4.59-12.05,4.59-17.9C541.11,91.16,541.02,83.69,536.52,79.2"/>
	<path class="st0" d="M598.77,109.07h-31.3c-0.09,3.6,1.17,7.02,3.42,9.17c1.62,1.53,3.86,2.88,6.92,2.88
		c3.24,0,5.22-0.63,6.84-2.25c0.99-0.99,1.79-2.25,2.25-3.96h10.79c-0.27,2.79-2.16,6.48-3.96,8.64c-3.95,4.67-9.8,6.56-15.74,6.56
		c-6.39,0-11.06-2.25-14.76-5.76c-4.67-4.5-7.19-11.06-7.19-18.7c0-7.47,2.25-14.12,6.74-18.72c3.51-3.59,8.55-5.93,14.93-5.93
		c6.93,0,13.22,2.79,17.09,8.63c3.42,5.13,4.23,10.44,4.05,16.28C598.86,105.92,598.77,108.08,598.77,109.07 M584.74,92.7
		c-1.53-1.62-3.87-2.7-7.11-2.7c-3.42,0-6.21,1.44-7.83,3.6c-1.62,2.07-2.34,4.23-2.43,7.28h20.24
		C587.52,97.37,586.53,94.67,584.74,92.7"/>
</g>
<polygon class="st0" points="647.25,64 647.25,128.95 658.49,128.95 658.49,116.62 665.96,108.53 679.09,128.95 692.13,128.95 
	673.6,100.25 690.34,82.16 676.22,82.16 658.49,101.15 658.49,64 "/>
<g>
	<path class="st0" d="M628.45,101.24c-4.59-0.72-5.76-0.81-9.99-1.35c-2.52-0.36-5.4-1.35-5.4-4.67c0-2.44,1.62-4.14,3.6-4.96
		c1.71-0.71,3.24-0.71,4.85-0.71c2.34,0,4.78,0.81,6.12,2.16c1.08,1.17,1.89,2.61,1.89,4.41h10.7c0-3.42-1.61-6.93-4.13-9.63
		c-3.42-3.68-9.08-5.48-14.66-5.48c-5.84,0-10.79,1.71-14.21,4.67c-2.79,2.44-4.76,5.76-4.76,10.54c0,5.93,4.31,11.15,10.7,12.5
		c4.13,0.9,8.81,1.17,12.95,1.8c2.89,0.45,4.68,2.25,4.68,4.94c0,5.13-5.76,5.94-9.54,5.94c-3.24,0-5.31-0.64-7.1-2.07
		c-1.21-0.98-2.11-2.71-2.4-4.46h-10.58c0.32,3.97,2.4,7.45,4.88,9.85c3.87,3.68,9.17,5.4,15.12,5.4c6.39,0,12.23-1.61,16.01-5.4
		c2.43-2.43,4.05-5.76,4.05-10.25C641.22,107.09,635.83,102.41,628.45,101.24"/>
</g>
<polygon class="st0" points="91.92,61.02 91.92,73.1 104.28,73.1 104.28,104.65 116.18,104.65 116.18,72.91 116.18,61.02 "/>
<g>
	<path class="st0" d="M85.39,101.84c0-9.41,5.23-17.6,12.94-21.81v0H80.68c-4.52,6.1-7.19,13.64-7.19,21.81
		c0,16.21,10.5,29.97,25.07,34.85v-12.91C90.73,119.6,85.39,111.34,85.39,101.84"/>
	<path class="st0" d="M122.14,67.08v12.95c7.71,4.22,12.95,12.4,12.95,21.82c0,13.72-11.13,24.84-24.85,24.84
		c-2.05,0-4.03-0.25-5.94-0.71v12.14c1.93,0.31,3.92,0.48,5.94,0.48c20.29,0,36.75-16.45,36.75-36.74
		C146.98,85.71,136.59,72.02,122.14,67.08"/>
</g>
<g>
	<path class="st0" d="M697.28,84.15c-2.48,0-4.33-1.94-4.33-4.4c0-2.46,1.85-4.41,4.33-4.41c2.48,0,4.33,1.94,4.33,4.4
		C701.61,82.2,699.76,84.15,697.28,84.15z M697.28,76.1c-2.12,0-3.53,1.55-3.53,3.65c0,2.1,1.4,3.63,3.53,3.63
		c2.12,0,3.53-1.55,3.53-3.65C700.8,77.64,699.4,76.1,697.28,76.1z M698.25,81.97l-0.77-1.69h-0.9v1.69h-0.8v-4.59h1.69
		c0.88,0,1.63,0.5,1.63,1.44c0,0.6-0.26,1.08-0.83,1.33l0.85,1.82H698.25z M697.47,78.12h-0.9v1.42h0.9c0.48,0,0.79-0.22,0.79-0.72
		C698.26,78.35,697.9,78.12,697.47,78.12z"/>
</g>
</svg>
