<svg width="121" height="28" viewBox="0 0 121 28" fill="none" xmlns="http://www.w3.org/2000/svg">
<path d="M117.397 0L110.839 14.3949L108.373 8.94057H105.707L109.762 17.8624H111.917L120.046 0H117.397Z" fill="#D52B1E"/>
<path d="M89.2669 26.7286H94.5458V16.8134C94.5458 14.5455 95.8244 12.9523 97.7241 12.9523C99.5507 12.9523 100.501 14.2643 100.501 16.1574V26.7286H105.779V15.1265C105.779 11.1904 103.478 8.41639 99.7516 8.41639C97.377 8.41639 95.7148 9.46602 94.4727 11.3778H94.3631V8.9412H89.2486L89.2669 26.7286ZM78.8917 8.45388C73.3753 8.45388 69.6855 12.5212 69.6855 17.8818C69.6855 23.2049 73.3753 27.3097 78.8917 27.3097C84.4081 27.3097 88.0978 23.2049 88.0978 17.8818C88.1161 12.5212 84.4081 8.45388 78.8917 8.45388ZM78.8551 23.2986C76.3527 23.2986 75.0192 21.1431 75.0192 17.8818C75.0192 14.5829 76.3344 12.4649 78.8551 12.4649C81.3576 12.4649 82.7458 14.5829 82.7458 17.8818C82.7641 21.1431 81.3759 23.2986 78.8551 23.2986ZM54.6342 26.7286H69.4663V22.4551H61.0639V22.3427L69.101 13.1022V8.92246H54.6342V13.2147H62.7626V13.3271L54.6342 22.6426V26.7286ZM47.8574 26.7286H53.1729V8.9412H47.8574V26.7286ZM35.5277 26.7286H40.8249V18.5565C40.8249 14.8454 42.9986 13.1959 46.3048 13.6645H46.4144V8.97869C46.1404 8.86623 45.8299 8.84749 45.3367 8.84749C43.2726 8.84749 41.8844 9.82214 40.6971 11.9026H40.5875V8.9412H35.5277V26.7286ZM25.8101 23.3173C23.4721 23.3173 22.0473 21.7616 21.7733 19.3625H34.2674C34.3039 15.5389 33.3175 12.4837 31.2534 10.5719C29.7922 9.18487 27.8742 8.41639 25.4265 8.41639C20.2024 8.41639 16.5857 12.4837 16.5857 17.8068C16.5857 23.1674 20.038 27.2534 25.7736 27.2534C27.9473 27.2534 29.6643 26.6536 31.0891 25.6602C32.6051 24.5919 33.7011 23.0174 33.9934 21.4617H28.9154C28.4222 22.6238 27.3627 23.3173 25.8101 23.3173ZM25.5361 12.2963C27.3993 12.2963 28.6779 13.7208 28.8971 15.8013H21.8098C22.2299 13.702 23.3442 12.2963 25.5361 12.2963ZM6.02784 26.7286H11.5808L17.6086 8.9412H12.2931L8.9139 20.3746H8.84083L5.46159 8.9412H0L6.02784 26.7286ZM47.8574 2.60596H53.1729V7.44174H47.8574V2.60596Z" fill="black"/>
</svg>
