<svg width="69" height="20" viewBox="0 0 69 20" fill="none" xmlns="http://www.w3.org/2000/svg">
<g style="mix-blend-mode:multiply">
<path d="M15.6807 9.06816C15.5822 10.5445 14.598 12.6115 12.531 15.1706C10.4641 17.8281 8.6924 19.2061 7.216 19.2061C6.33017 19.2061 5.54276 18.4186 4.9522 16.7454C4.5585 15.269 4.16479 13.6942 3.67266 12.2178C3.18053 10.5445 2.6884 9.75714 2.19627 9.75714C2.09784 9.75714 1.70414 9.95399 1.01516 10.4461L0.326172 9.56029C1.11358 8.8713 1.80256 8.28075 2.58997 7.59176C3.57424 6.70593 4.36165 6.2138 4.85378 6.2138C6.03489 6.11537 6.8223 6.90278 7.11758 8.67445C7.41286 10.5445 7.60971 11.7257 7.70814 12.2178C8.00341 13.6942 8.39712 14.4816 8.79082 14.4816C9.18453 14.4816 9.67666 13.9895 10.2672 13.0052C10.9562 12.0209 11.2515 11.2335 11.2515 10.7414C11.3499 9.85557 10.9562 9.46186 10.2672 9.46186C9.87351 9.46186 9.47981 9.56029 9.0861 9.75714C9.87351 7.09963 11.3499 5.91852 13.4169 6.01695C14.9917 6.01695 15.7791 7.09963 15.6807 9.06816Z" fill="#7F8184"/>
<path d="M22.1389 1.67329C22.1389 2.26385 21.8436 2.75598 21.2531 3.34654C20.6625 3.9371 19.8751 4.23237 19.0877 4.23237C17.8082 4.23237 17.1192 3.64182 17.2176 2.55913C17.2176 1.87015 17.5129 1.37802 18.2019 0.787458C18.8908 0.196901 19.5798 4.76837e-05 20.4657 4.76837e-05C20.9578 4.76837e-05 21.3515 0.196901 21.6468 0.590605C22.0405 0.885883 22.1389 1.27959 22.1389 1.67329ZM25.0917 13.8781C24.4027 15.0593 23.6153 16.1419 22.4342 17.1262C20.8594 18.4057 19.383 19.0947 17.8082 19.0947C17.1192 19.0947 16.5286 18.8979 16.1349 18.4057C15.7412 17.9136 15.5444 17.3231 15.6428 16.6341C15.6428 15.8467 15.9381 14.6655 16.3318 13.0907C16.8239 11.5159 17.0208 10.6301 17.0208 10.5316C17.0208 9.94109 16.8239 9.64581 16.4302 9.64581C16.3318 9.64581 15.9381 9.84267 15.2491 10.3348L14.4617 9.54739C15.2491 8.8584 15.9381 8.26785 16.7255 7.57886C17.7097 6.69303 18.3987 6.29932 18.8908 6.2009C19.6783 6.10247 20.1704 6.39775 20.5641 6.88988C20.9578 7.38201 21.0562 8.071 20.9578 8.8584C20.6625 10.2364 20.3672 12.008 19.9735 14.1734C19.9735 15.1577 20.2688 15.6498 21.0562 15.6498C21.3515 15.6498 21.9421 15.3545 22.7295 14.6655C23.4185 14.075 24.009 13.5829 24.4027 13.0907L25.0917 13.8781Z" fill="#7F8184"/>
<path d="M46.5936 13.8957C45.9046 15.0768 45.1172 16.1595 43.9361 17.1438C42.3613 18.4233 40.8849 19.1123 39.3101 19.1123C37.8337 19.1123 37.1447 18.3249 37.1447 16.6516C37.1447 15.9627 37.3416 15.0768 37.5384 13.9941C37.8337 13.0099 37.9321 12.124 37.9321 11.6319C37.9321 10.7461 37.7353 10.3524 37.1447 10.3524C36.5541 10.3524 35.8652 11.0414 34.9793 12.5178C34.0935 13.9941 33.6014 15.4705 33.6014 16.8485C33.6014 17.8328 33.6998 18.6202 33.8966 19.1123C32.3218 19.1123 31.1407 18.9155 30.5501 18.3249C30.058 17.8328 29.7627 16.9469 29.8612 15.7658C29.8612 15.0768 29.9596 14.2894 30.1564 13.6004C30.3533 12.9115 30.4517 12.2225 30.4517 11.6319C30.4517 10.7461 30.1564 10.3524 29.5659 10.3524C28.9753 10.3524 28.3848 11.0414 27.6958 12.3209C27.0068 13.6004 26.7115 14.9784 26.6131 16.4548C26.6131 17.7343 26.6131 18.6202 26.81 19.1123C25.2351 19.1123 24.1524 18.817 23.4635 18.128C22.8729 17.5375 22.6761 16.6516 22.6761 15.3721C22.6761 14.7816 22.7745 13.9941 22.9713 12.9115C23.1682 11.8288 23.2666 11.0414 23.2666 10.4508C23.2666 10.0571 23.1682 9.86024 22.9713 9.86024C22.8729 9.86024 22.4792 10.0571 21.7902 10.5492L21.0028 9.66339C21.1012 9.56496 21.7902 8.87598 23.1682 7.69487C24.1524 6.80903 24.743 6.3169 25.1367 6.3169C25.7273 6.3169 26.2194 6.51375 26.6131 7.10431C27.0068 7.59644 27.2037 8.28542 27.2037 8.97441C27.2037 9.17126 27.2037 9.46654 27.1052 9.66339C27.4005 9.17126 27.8926 8.67913 28.2863 8.28543C29.369 7.39959 30.5501 6.80903 31.8297 6.71061C32.9124 6.61218 33.7982 6.90746 34.1919 7.49802C34.5856 7.99015 34.7825 8.67913 34.7825 9.66339C34.9793 9.56496 35.0778 9.36811 35.2746 9.17126C35.7667 8.5807 36.3573 8.08857 36.8494 7.69487C37.7353 7.10431 38.6211 6.71061 39.5069 6.71061C40.688 6.41533 41.4755 6.71061 41.9676 7.30116C42.3613 7.79329 42.5581 8.48228 42.5581 9.46654C42.5581 10.0571 42.3613 11.0414 42.066 12.2225C41.7707 13.4036 41.6723 14.191 41.6723 14.2894C41.6723 14.7816 41.6723 15.0768 41.7707 15.2737C41.8692 15.4705 42.1644 15.569 42.5581 15.569C42.8534 15.569 43.444 15.2737 44.2314 14.5847C44.9204 13.9941 45.5109 13.502 45.9046 13.0099L46.5936 13.8957Z" fill="#7F8184"/>
<path d="M51.6807 10.2717C51.6807 9.68118 51.4838 9.3859 50.8932 9.3859C50.2043 9.3859 49.5153 9.87803 48.8263 10.7639C48.1373 11.7481 47.7436 12.634 47.7436 13.5198V14.0119C48.8263 13.6182 49.8106 12.9292 50.6964 12.1418C51.2869 11.3544 51.6807 10.7639 51.6807 10.2717ZM59.4563 13.8151C58.7673 14.8978 57.4878 15.9805 55.5193 17.0631C53.157 18.5395 50.6964 19.2285 48.1373 19.2285C46.2672 19.2285 44.9877 18.638 44.1018 17.3584C43.5113 16.4726 43.216 15.4883 43.3144 14.3072C43.3144 12.4371 44.2003 10.6654 45.7751 8.99219C47.6452 7.22052 49.7121 6.33469 52.1728 6.33469C54.4366 6.33469 55.6177 7.22052 55.7161 9.09062C55.8146 10.2717 55.1256 11.4528 53.7476 12.7324C52.3696 14.0119 50.4995 14.8978 48.2357 15.193C48.6294 15.7836 49.22 16.0789 50.1058 16.0789C51.7791 16.0789 53.5508 15.6852 55.5193 14.7993C56.8972 14.2088 57.9799 13.6182 58.8658 13.0277L59.4563 13.8151Z" fill="#7F8184"/>
<path d="M64.9279 11.4277C64.9279 10.8371 64.8295 10.2465 64.6326 9.75442C64.4358 9.26229 64.1405 8.96701 63.7468 8.96701C62.5657 8.96701 61.5814 9.55757 60.8924 10.8371C60.2034 11.9198 59.9082 13.0025 59.9082 14.1836C59.9082 14.7742 60.0066 15.2663 60.2034 15.66C60.4987 16.1521 60.794 16.4474 61.2861 16.4474C62.2704 16.4474 63.1562 15.8568 63.9436 14.5773C64.5342 13.593 64.9279 12.5104 64.9279 11.4277ZM68.7665 11.5261C68.6681 13.593 67.8807 15.4631 66.4043 16.9395C64.9279 18.4159 63.1562 19.3018 60.9908 19.3018C59.2192 19.3018 57.8412 18.7112 56.8569 17.5301C56.168 16.6443 55.7743 15.5616 55.6758 14.282C55.5774 12.3135 56.2664 10.5418 57.8412 8.86858C59.5144 6.99848 61.5814 6.11265 64.0421 6.11265C65.6169 6.11265 66.8964 6.60478 67.6838 7.68747C68.5697 8.77016 68.8649 10.0497 68.7665 11.5261Z" fill="#7F8184"/>
</g>
</svg>
