<svg xmlns="http://www.w3.org/2000/svg" width="300" height="84.818"><defs><clipPath id="a"><path d="M235.578 246.457h-69.534v-19.659h69.534v19.659z"/></clipPath></defs><path d="M67.064 39.909c-.298 6.532-4.862 15.48-13.685 26.836-9.121 11.86-16.84 17.793-23.156 17.793-3.91 0-7.218-3.612-9.923-10.838-1.804-6.623-3.612-13.241-5.415-19.864-2.006-7.223-4.16-10.838-6.463-10.838-.5 0-2.26 1.057-5.268 3.162L0 42.092c3.31-2.908 6.575-5.82 9.79-8.737 4.418-3.814 7.731-5.824 9.944-6.027 5.22-.5 8.435 3.072 9.643 10.713 1.303 8.249 2.205 13.379 2.71 15.385 1.505 6.843 3.162 10.26 4.97 10.26 1.406 0 3.516-2.222 6.33-6.657 2.808-4.44 4.314-7.818 4.516-10.135.402-3.831-1.104-5.751-4.517-5.751-1.609 0-3.266.366-4.966 1.1 3.297-10.803 9.596-16.054 18.898-15.757 6.894.203 10.143 4.677 9.746 13.423" fill="#1ab7ea"/><path d="M95.371 7.494c-.099 2.503-1.355 4.901-3.77 7.201-2.71 2.597-5.924 3.896-9.64 3.896-5.724 0-8.49-2.498-8.287-7.494.095-2.598 1.63-5.1 4.59-7.499C81.228 1.204 84.516 0 88.136 0c2.11 0 3.866.828 5.276 2.477 1.403 1.648 2.058 3.322 1.96 5.017zm13.108 53.582c-2.813 5.315-6.68 10.134-11.602 14.449-6.73 5.82-13.457 8.732-20.187 8.732-3.12 0-5.501-1.005-7.158-3.016-1.657-2.006-2.438-4.612-2.334-7.826.095-3.31 1.126-8.43 3.085-15.36 1.958-6.924 2.942-10.639 2.942-11.14 0-2.61-.906-3.917-2.714-3.917-.6 0-2.312 1.057-5.125 3.162l-3.465-4.068c3.214-2.908 6.429-5.82 9.643-8.737 4.319-3.814 7.533-5.824 9.647-6.027 3.314-.298 5.747.677 7.305 2.93 1.553 2.256 2.13 5.177 1.734 8.78-1.307 6.104-2.714 13.857-4.22 23.263-.103 4.306 1.454 6.454 4.669 6.454 1.406 0 3.917-1.484 7.533-4.457 3.016-2.476 5.475-4.806 7.386-6.989l2.86 3.767" fill="#1ab7ea"/><path d="M202.568 61.071c-2.813 5.32-6.678 10.135-11.601 14.45-6.73 5.82-13.461 8.732-20.188 8.732-6.532 0-9.694-3.611-9.491-10.842.095-3.215.724-7.072 1.88-11.589 1.153-4.522 1.783-8.034 1.882-10.545.103-3.81-1.057-5.72-3.478-5.72-2.619 0-5.742 3.114-9.37 9.34-3.828 6.532-5.899 12.857-6.196 18.984-.203 4.323.22 7.636 1.264 9.945-7.007.203-11.917-.954-14.717-3.465-2.51-2.209-3.658-5.872-3.456-10.997a40.356 40.356 0 0 1 1.48-9.643c.885-3.214 1.377-6.075 1.476-8.59.203-3.715-1.156-5.575-4.073-5.575-2.515 0-5.233 2.865-8.146 8.59-2.916 5.722-4.526 11.701-4.828 17.927-.202 5.63.16 9.544 1.079 11.753-6.895.203-11.791-1.251-14.686-4.358-2.408-2.602-3.504-6.558-3.301-11.869.1-2.602.557-6.234 1.385-10.89.828-4.66 1.29-8.288 1.385-10.894.198-1.799-.255-2.705-1.355-2.705-.604 0-2.312 1.018-5.125 3.05l-3.616-4.068c.505-.397 3.663-3.314 9.492-8.737 4.22-3.913 7.08-5.924 8.586-6.023 2.614-.203 4.72.876 6.329 3.236 1.605 2.36 2.412 5.1 2.412 8.21 0 1.006-.1 1.96-.298 2.865 1.506-2.308 3.262-4.323 5.272-6.031 4.621-4.013 9.794-6.278 15.52-6.778 4.922-.402 8.434.75 10.548 3.464 1.705 2.21 2.507 5.376 2.408 9.492.703-.6 1.458-1.256 2.265-1.959 2.304-2.71 4.565-4.867 6.774-6.476 3.714-2.714 7.589-4.22 11.601-4.521 4.824-.402 8.288.746 10.398 3.451 1.803 2.2 2.61 5.354 2.412 9.453-.104 2.805-.781 6.882-2.037 12.236-1.26 5.354-1.88 8.426-1.88 9.229-.104 2.105.099 3.555.599 4.353.505.802 1.704 1.2 3.616 1.2 1.406 0 3.913-1.485 7.533-4.462 3.011-2.472 5.475-4.802 7.386-6.985l2.86 3.762" fill="#1ab7ea"/><path d="M224.866 45.185c.094-2.696-1.006-4.047-3.31-4.047-3.011 0-6.07 2.076-9.176 6.222-3.111 4.146-4.716 8.12-4.815 11.916-.057 0-.057.652 0 1.95 4.914-1.799 9.176-4.543 12.788-8.244 2.908-3.197 4.409-5.799 4.513-7.797zm34.2 15.73c-2.912 4.82-8.637 9.63-17.176 14.446-10.643 6.118-21.447 9.172-32.393 9.172-8.132 0-13.965-2.71-17.477-8.132-2.511-3.715-3.715-8.133-3.616-13.255.1-8.132 3.72-15.864 10.85-23.198 7.832-8.034 17.073-12.055 27.721-12.055 9.846 0 15.066 4.012 15.67 12.024.402 5.109-2.411 10.372-8.439 15.783-6.428 5.915-14.518 9.668-24.256 11.27 1.804 2.506 4.513 3.757 8.133 3.757 7.231 0 15.118-1.838 23.656-5.518 6.127-2.585 10.95-5.268 14.467-8.051l2.86 3.758" fill="#1ab7ea"/><g clip-path="url(#a)" transform="matrix(4.31446 0 0 -4.31446 -716.39 1063.33)"><path d="M231.623 234.81a4.407 4.407 0 0 1-.262 1.732c-.198.524-.484.788-.855.788-1.188 0-2.166-.642-2.933-1.925-.653-1.05-1.003-2.17-1.048-3.358-.024-.584.081-1.098.314-1.54.255-.514.616-.77 1.083-.77 1.047 0 1.944.617 2.689 1.854.628 1.027.965 2.1 1.012 3.219zm3.946-.132c-.093-2.139-.884-3.987-2.374-5.544-1.49-1.557-3.342-2.336-5.553-2.336-1.839 0-3.236.593-4.19 1.779-.698.883-1.083 1.987-1.152 3.311-.118 2 .604 3.836 2.165 5.51 1.676 1.859 3.782 2.789 6.32 2.789 1.629 0 2.863-.547 3.702-1.639.792-1 1.152-2.29 1.082-3.87" fill="#1ab7ea"/></g></svg>