<?xml version="1.0" encoding="utf-8"?>
<!-- Generator: Adobe Illustrator 20.1.0, SVG Export Plug-In . SVG Version: 6.00 Build 0)  -->
<svg version="1.0" id="Layer_1" xmlns="http://www.w3.org/2000/svg" xmlns:xlink="http://www.w3.org/1999/xlink" x="0px" y="0px"
	 width="98px" height="20px" viewBox="0 0 98 20" style="enable-background:new 0 0 98 20;" xml:space="preserve">
<style type="text/css">
	.st0{fill:#9FA3A5;}
</style>
<g>
	<g>
		<path class="st0" d="M4.9,11.3l7.9-7.1c-0.6-0.5-1.3-0.9-2.1-1.2L4.9,8.3V11.3z"/>
		<path class="st0" d="M2.7,10.3l-2.1,1.9C0.7,13,1,13.8,1.5,14.4l1.2-1.1V10.3z"/>
		<g>
			<path class="st0" d="M9.2,4.5V2.7C8.8,2.7,8.4,2.6,8,2.6c-0.4,0-0.8,0-1.2,0.1v3.8L9.2,4.5z"/>
			<path class="st0" d="M9.2,15.2V7.6l-2.3,2V18c0.4,0.1,0.8,0.1,1.2,0.1c0.5,0,0.9,0,1.4-0.1l6.1-5.4c0.2-0.7,0.3-1.4,0.3-2.2
				c0-0.4,0-0.7-0.1-1.1L9.2,15.2z"/>
		</g>
		<path class="st0" d="M9.2,12.9l6.1-5.4c-0.3-0.7-0.7-1.4-1.2-2L9.2,9.9V12.9z"/>
		<path class="st0" d="M6.9,11.9l-2,1.7V3.3C4.1,3.6,3.3,4.2,2.7,4.8v11.1c0.5,0.5,1.1,0.9,1.7,1.3L6.9,15V11.9z"/>
	</g>
	<g>
		<g>
			<g>
				<path class="st0" d="M27,11.9l1.4-5.4h1.9l-2.1,7.6h-2.3L24.6,9l-1.3,5.1h-2.3l-2.1-7.6h1.9l1.4,5.4l1.4-5.4h1.8L27,11.9z"/>
				<path class="st0" d="M37.5,11.6c-0.2,1.5-1.4,2.6-3.4,2.6c-2.1,0-3.7-1.3-3.7-3.8c0-2.6,1.6-3.9,3.7-3.9c2.3,0,3.5,1.7,3.5,3.9
					v0.4h-5.2c0,0.8,0.3,1.9,1.7,1.9c0.8,0,1.4-0.4,1.5-1.1L37.5,11.6z M35.7,9.4c-0.1-1-0.7-1.4-1.5-1.4c-0.9,0-1.6,0.5-1.7,1.4
					H35.7z"/>
				<path class="st0" d="M43.2,9.2V8.9c0-0.6-0.2-1-1.4-1c-1.4,0-1.4,0.8-1.4,1h-1.8c0-1.1,0.5-2.5,3.3-2.5c2.7,0,3.2,1.3,3.2,2.4
					V13c0,0.3,0,0.6,0,0.7l0.1,0.3h-1.9v-0.8c-0.5,0.5-1.3,0.9-2.3,0.9c-1.5,0-2.6-0.9-2.6-2.4c0-1.7,1.6-2.1,2.3-2.2L43.2,9.2z
					 M43.2,10.6l-0.7,0.1c-0.4,0.1-0.9,0.1-1.2,0.2C41,11,40.7,11,40.5,11.2c-0.2,0.2-0.3,0.4-0.3,0.6c0,0.2,0.1,0.9,1.1,0.9
					c0.6,0,1.1-0.2,1.4-0.5c0.4-0.4,0.4-0.8,0.4-1.2V10.6z"/>
				<path class="st0" d="M50.4,14.1h-2.5l-2.5-7.6h2l1.7,5.8l1.8-5.8h2L50.4,14.1z"/>
				<path class="st0" d="M60,11.6c-0.2,1.5-1.4,2.6-3.4,2.6c-2.1,0-3.7-1.3-3.7-3.8c0-2.6,1.6-3.9,3.7-3.9c2.3,0,3.5,1.7,3.5,3.9
					v0.4h-5.2c0,0.8,0.3,1.9,1.7,1.9c0.8,0,1.4-0.4,1.5-1.1L60,11.6z M58.2,9.4c-0.1-1-0.7-1.4-1.5-1.4c-0.9,0-1.6,0.5-1.7,1.4H58.2
					z"/>
			</g>
		</g>
		<path class="st0" d="M62.8,14.1l-2.2-7.4h1.2l1.7,6.2l1.7-6.2h1.3l1.7,6.2L70,6.7h1.2l-2.2,7.4h-1.4L65.9,8l-1.7,6.1H62.8z"/>
		<path class="st0" d="M74.9,14.2c-2,0-3.4-1.3-3.4-3.8c0-2.5,1.4-3.8,3.4-3.8c2,0,3.4,1.3,3.4,3.8C78.3,12.9,76.9,14.2,74.9,14.2z
			 M74.9,13.2c1.3,0,2.2-0.8,2.2-2.8c0-2-0.9-2.8-2.2-2.8c-1.3,0-2.2,0.8-2.2,2.8C72.7,12.4,73.6,13.2,74.9,13.2z"/>
		<path class="st0" d="M82.9,7.9c-1.3,0-2.2,0.5-2.2,2.2v4h-1.1V6.7h1.1V8c0.5-0.9,1.5-1.3,2.2-1.3h0.5v1.2H82.9z"/>
		<path class="st0" d="M90.9,6.7l-2.7,2.7l2.8,4.6h-1.3l-2.3-3.8l-1.8,1.8v2h-1.1V3.9h1.1v6.8l3.8-3.9H90.9z"/>
		<path class="st0" d="M96.1,8.7c-0.1-0.9-0.8-1.2-1.7-1.2c-0.8,0-1.8,0.2-1.8,1.1c0,1.9,4.8,0.2,4.8,3.2c0,1-0.6,2.3-3.2,2.3
			c-2,0-2.9-1-2.9-2.3h1.2c0,0.8,0.5,1.4,1.8,1.4c1.5,0,1.9-0.6,1.9-1.3c0-1.4-2.5-0.8-3.9-1.6c-0.5-0.3-0.9-0.7-0.9-1.6
			c0-1.2,1.1-2.1,2.9-2.1c2.2,0,2.8,1.3,2.9,2.1H96.1z"/>
	</g>
</g>
</svg>
