<svg width="89" height="37" fill="#ffffff" viewBox="0 0 89 37" fill="none" xmlns="http://www.w3.org/2000/svg">
<path d="M50.9391 1.34191C49.2221 2.22275 48.478 3.86699 48.478 8.32993C48.478 8.32993 49.3365 7.44908 50.7102 6.92058C51.7118 6.53888 52.4272 6.03974 52.9423 5.65804C54.4304 4.51294 54.6594 3.13295 54.6594 0.725317C54.6307 0.725317 52.2841 0.57851 50.9391 1.34191Z" fill="#FBBD71"/>
<path d="M40.4364 2.36955C38.9483 3.63209 38.5762 5.80484 38.5762 5.80484L33.7685 24.7136L29.8193 9.24012C29.4473 7.59588 28.7032 5.56994 27.5872 4.1606C26.2135 2.36955 23.3518 2.2521 23.0084 2.2521C22.7508 2.2521 19.9177 2.36955 18.4296 4.1606C17.3135 5.56994 16.5695 7.59588 16.1974 9.24012L12.4772 24.7136L7.66946 5.80484C7.66946 5.80484 7.29743 3.7789 5.80933 2.36955C3.4627 0.196802 0 0.725308 0 0.725308L9.15757 36.1058C9.15757 36.1058 12.1338 36.3701 13.6219 35.6067C15.5965 34.579 16.5981 33.845 17.7142 29.0004C18.8302 24.6842 21.8065 12.1175 22.0354 11.2367C22.1499 10.855 22.4074 9.70991 23.1515 9.70991C23.8955 9.70991 24.1531 10.7376 24.2675 11.2367C24.5251 12.1175 27.4727 24.6842 28.5888 29.0004C29.8193 33.8156 30.6778 34.579 32.6811 35.6067C34.1692 36.3701 37.1454 36.1058 37.1454 36.1058L46.2457 0.725308C46.2457 0.725308 42.783 0.226164 40.4364 2.36955Z" fill="black"/>
<path d="M54.6306 6.42139C54.6306 6.42139 54.001 7.30223 52.7705 8.06563C51.9119 8.56477 51.1679 8.82902 50.3094 9.32817C48.8212 10.0916 48.4492 10.855 48.4492 12.0001V12.3818V14.2903V14.672V35.9884C48.4492 35.9884 50.7959 36.2526 52.284 35.4892C54.2586 34.4616 54.6306 33.4633 54.6306 29.1471V7.83074V6.42139Z" fill="black"/>
<path d="M77.3816 18.489L89.0002 0.84278C89.0002 0.84278 84.1925 -0.0380623 81.7028 2.25213C80.1002 3.66148 78.4976 6.30401 78.4976 6.30401L74.2909 12.6461C74.0333 13.0278 73.8044 13.292 73.4324 13.292C73.0603 13.292 72.6883 12.9103 72.5738 12.6461L68.3671 6.30401C68.3671 6.30401 66.65 3.77892 65.1619 2.25213C62.7008 -0.0380623 57.8645 0.84278 57.8645 0.84278L69.1111 18.4596L57.6069 36.0765C57.6069 36.0765 62.6722 36.7224 65.1619 34.4323C66.7645 33.0229 68.2526 30.6153 68.2526 30.6153L72.4594 24.2732C72.7169 23.8915 72.9459 23.6272 73.3179 23.6272C73.6899 23.6272 74.0619 24.0089 74.1764 24.2732L78.3832 30.6153C78.3832 30.6153 79.9858 33.0229 81.4739 34.4323C83.935 36.7224 88.8858 36.0765 88.8858 36.0765L77.3816 18.489Z" fill="black"/>
</svg>
