<svg width="360" height="127" viewBox="0 0 360 127" fill="none" xmlns="http://www.w3.org/2000/svg">
<path d="M193.249 0.429688H3.05791C1.62796 0.429688 0.46875 1.58889 0.46875 3.01885V116.346C0.46875 117.776 1.62796 118.935 3.05791 118.935H193.249C194.679 118.935 195.839 117.776 195.839 116.346V3.01885C195.839 1.58889 194.679 0.429688 193.249 0.429688Z" fill="#393946"/>
<path d="M20.8519 11.1582H59.7276C61.0686 11.1582 62.1575 12.2472 62.1575 13.5882V105.777C62.1575 107.118 61.0686 108.207 59.7276 108.207H20.8519C19.5108 108.207 18.4219 107.118 18.4219 105.777V13.5882C18.4219 12.2472 19.5108 11.1582 20.8519 11.1582V11.1582Z" fill="#2E2E38"/>
<path d="M75.1419 11.8682H73.9238V13.6813H75.1419V11.8682Z" fill="white"/>
<path d="M75.1436 15.6201H73.3496V17.4332H75.1436V15.6201Z" fill="white"/>
<path d="M75.1436 19.374H73.3496V21.1871H75.1436V19.374Z" fill="white"/>
<path d="M75.1436 23.126H73.3496V24.9391H75.1436V23.126Z" fill="white"/>
<path d="M75.1436 26.8779H73.3496V28.691H75.1436V26.8779Z" fill="white"/>
<path d="M75.1436 30.6309H73.3496V32.444H75.1436V30.6309Z" fill="white"/>
<path d="M75.1436 34.3838H73.3496V36.1969H75.1436V34.3838Z" fill="white"/>
<path d="M75.1436 38.1367H73.3496V39.9498H75.1436V38.1367Z" fill="white"/>
<path d="M75.1436 41.8887H73.3496V43.7018H75.1436V41.8887Z" fill="white"/>
<path d="M75.1436 45.6406H73.3496V47.4537H75.1436V45.6406Z" fill="white"/>
<path d="M75.0578 49.3955H72.6797V51.2086H75.0578V49.3955Z" fill="white"/>
<path d="M75.0578 53.1475H72.6797V54.9606H75.0578V53.1475Z" fill="white"/>
<path d="M75.0578 56.8994H72.6797V58.7125H75.0578V56.8994Z" fill="white"/>
<path d="M75.0578 60.6523H72.6797V62.4654H75.0578V60.6523Z" fill="white"/>
<path d="M75.0578 64.4053H72.6797V66.2184H75.0578V64.4053Z" fill="white"/>
<path d="M75.0578 68.1572H72.6797V69.9703H75.0578V68.1572Z" fill="white"/>
<path d="M75.0578 71.9102H72.6797V73.7233H75.0578V71.9102Z" fill="white"/>
<path d="M75.0578 75.6621H72.6797V77.4752H75.0578V75.6621Z" fill="white"/>
<path d="M75.0578 79.415H72.6797V81.2281H75.0578V79.415Z" fill="white"/>
<path d="M75.0578 83.168H72.6797V84.9811H75.0578V83.168Z" fill="white"/>
<path d="M75.0578 86.9199H72.6797V88.733H75.0578V86.9199Z" fill="white"/>
<path d="M75.0578 90.6729H72.6797V92.4859H75.0578V90.6729Z" fill="white"/>
<path d="M75.0578 94.4258H72.6797V96.2389H75.0578V94.4258Z" fill="white"/>
<path d="M75.0578 98.1787H72.6797V99.9918H75.0578V98.1787Z" fill="white"/>
<path d="M75.0578 101.932H72.6797V103.745H75.0578V101.932Z" fill="white"/>
<path d="M75.0578 105.684H72.6797V107.497H75.0578V105.684Z" fill="white"/>
<path d="M124.049 11.8682H82.8926V13.6813H124.049V11.8682Z" fill="#FB755A"/>
<path d="M112.346 15.4766H82.8926V17.2897H112.346V15.4766Z" fill="#FB755A"/>
<path d="M155.656 15.4766H150.184V17.2897H155.656V15.4766Z" fill="#FB755A"/>
<path d="M168.848 15.4766H158.43V17.2897H168.848V15.4766Z" fill="#CACAD3"/>
<path d="M147.474 15.4766H115.082V17.2897H147.474V15.4766Z" fill="#CACAD3"/>
<path d="M117.885 19.084H90.8066V20.8971H117.885V19.084Z" fill="#FB755A"/>
<path d="M126.102 22.6934H101.15V24.5065H126.102V22.6934Z" fill="#FB755A"/>
<path d="M118.911 26.3008H101.15V28.1139H118.911V26.3008Z" fill="#FB755A"/>
<path d="M144.392 26.3008H121.438V28.1139H144.392V26.3008Z" fill="#CACAD3"/>
<path d="M155.016 26.3008H146.717V28.1139H155.016V26.3008Z" fill="#CACAD3"/>
<path d="M155.657 47.9512H149.465V49.7643H155.657V47.9512Z" fill="#CACAD3"/>
<path d="M141.014 76.8164H134.822V78.6295H141.014V76.8164Z" fill="#CACAD3"/>
<path d="M155.016 84.0332H146.717V85.8463H155.016V84.0332Z" fill="#CACAD3"/>
<path d="M143.039 94.8594H139.213V96.6725H143.039V94.8594Z" fill="#CACAD3"/>
<path d="M122.533 69.6006H116.746V71.4137H122.533V69.6006Z" fill="#CACAD3"/>
<path d="M138.262 58.7764H130.021V60.5895H138.262V58.7764Z" fill="#CACAD3"/>
<path d="M125.588 37.126H117.289V38.9391H125.588V37.126Z" fill="#CACAD3"/>
<path d="M126.102 29.9092H101.15V31.7223H126.102V29.9092Z" fill="#FB755A"/>
<path d="M117.885 33.5176H90.8066V35.3307H117.885V33.5176Z" fill="#FB755A"/>
<path d="M131.812 33.498H120.365V35.3111H131.812V33.498Z" fill="#FB755A"/>
<path d="M114.644 37.126H90.8066V38.9391H114.644V37.126Z" fill="#FB755A"/>
<path d="M100.577 40.7334H82.8926V42.5465H100.577V40.7334Z" fill="#FB755A"/>
<path d="M141.218 33.4766H134.691V35.2897H141.218V33.4766Z" fill="#FB755A"/>
<path d="M108.781 44.3418H82.8926V46.1549H108.781V44.3418Z" fill="#FB755A"/>
<path d="M110.694 47.9512H90.8066V49.7643H110.694V47.9512Z" fill="#FB755A"/>
<path d="M129.094 47.9512H113.025V49.7643H129.094V47.9512Z" fill="#CACAD3"/>
<path d="M147.35 47.9512H131.281V49.7643H147.35V47.9512Z" fill="#CACAD3"/>
<path d="M126.19 51.5596H90.8066V53.3727H126.19V51.5596Z" fill="#FB755A"/>
<path d="M118.911 55.167H101.15V56.9801H118.911V55.167Z" fill="#FB755A"/>
<path d="M128.026 58.7764H101.15V60.5895H128.026V58.7764Z" fill="#FB755A"/>
<path d="M122.253 62.3838H101.15V64.1969H122.253V62.3838Z" fill="#FB755A"/>
<path d="M128.026 65.9932H101.15V67.8063H128.026V65.9932Z" fill="#FB755A"/>
<path d="M114.646 69.6006H91.1699V71.4137H114.646V69.6006Z" fill="#FB755A"/>
<path d="M144.893 84.0332H116.791V85.8463H144.893V84.0332Z" fill="#CACAD3"/>
<path d="M104.502 76.8164H82.8926V78.6295H104.502V76.8164Z" fill="#FB755A"/>
<path d="M107.353 73.209H102.727V75.0221H107.353V73.209Z" fill="#FB755A"/>
<path d="M109.497 80.4248H82.8926V82.2379H109.497V80.4248Z" fill="#FB755A"/>
<path d="M136.963 94.8594H129.85V96.6725H136.963V94.8594Z" fill="#FB755A"/>
<path d="M127.531 94.8594H113.938V96.6725H127.531V94.8594Z" fill="#CACAD3"/>
<path d="M114.644 84.0332H90.8066V85.8463H114.644V84.0332Z" fill="#FB755A"/>
<path d="M116.854 87.6416H90.8066V89.4547H116.854V87.6416Z" fill="#FB755A"/>
<path d="M129.141 91.25H101.15V93.0631H129.141V91.25Z" fill="#FB755A"/>
<path d="M111.702 94.8594H101.15V96.6725H111.702V94.8594Z" fill="#FB755A"/>
<path d="M124.076 98.4668H101.15V100.28H124.076V98.4668Z" fill="#FB755A"/>
<path d="M106.303 102.075H90.8066V103.888H106.303V102.075Z" fill="#FB755A"/>
<path d="M119.642 76.8164H109.297V78.6295H119.642V76.8164Z" fill="#FB755A"/>
<path d="M132.476 76.8164H122.131V78.6295H132.476V76.8164Z" fill="#CACAD3"/>
<path d="M117.92 105.684H90.8066V107.497H117.92V105.684Z" fill="#FB755A"/>
<path d="M129.142 105.684H121.156V107.497H129.142V105.684Z" fill="#FB755A"/>
<path d="M23.6484 19.5352H22.6387V21.0381H23.6484V19.5352Z" fill="white"/>
<path d="M23.6513 21.9238H22.1641V23.4268H23.6513V21.9238Z" fill="white"/>
<path d="M23.6513 24.3105H22.1641V25.8135H23.6513V24.3105Z" fill="white"/>
<path d="M23.6513 26.6973H22.1641V28.2002H23.6513V26.6973Z" fill="white"/>
<path d="M23.6513 29.0869H22.1641V30.5899H23.6513V29.0869Z" fill="white"/>
<path d="M23.6513 31.4727H22.1641V32.9756H23.6513V31.4727Z" fill="white"/>
<path d="M23.6513 33.8613H22.1641V35.3643H23.6513V33.8613Z" fill="white"/>
<path d="M23.6513 36.25H22.1641V37.7529H23.6513V36.25Z" fill="white"/>
<path d="M23.6513 38.6367H22.1641V40.1397H23.6513V38.6367Z" fill="white"/>
<path d="M23.6513 41.0234H22.1641V42.5264H23.6513V41.0234Z" fill="white"/>
<path d="M23.579 43.4111H21.6074V44.9141H23.579V43.4111Z" fill="white"/>
<path d="M23.579 45.7979H21.6074V47.3008H23.579V45.7979Z" fill="white"/>
<path d="M23.579 48.1855H21.6074V49.6885H23.579V48.1855Z" fill="white"/>
<path d="M23.579 50.5742H21.6074V52.0772H23.579V50.5742Z" fill="white"/>
<path d="M23.579 52.9629H21.6074V54.4658H23.579V52.9629Z" fill="white"/>
<path d="M23.579 55.3496H21.6074V56.8526H23.579V55.3496Z" fill="white"/>
<path d="M23.579 57.7383H21.6074V59.2412H23.579V57.7383Z" fill="white"/>
<path d="M23.579 60.125H21.6074V61.6279H23.579V60.125Z" fill="white"/>
<path d="M23.579 62.5127H21.6074V64.0156H23.579V62.5127Z" fill="white"/>
<path d="M23.579 64.8994H21.6074V66.4024H23.579V64.8994Z" fill="white"/>
<path d="M23.579 67.2861H21.6074V68.7891H23.579V67.2861Z" fill="white"/>
<path d="M23.579 69.6738H21.6074V71.1768H23.579V69.6738Z" fill="white"/>
<path d="M23.579 72.0625H21.6074V73.5654H23.579V72.0625Z" fill="white"/>
<path d="M23.579 74.4492H21.6074V75.9522H23.579V74.4492Z" fill="white"/>
<path d="M23.579 76.8369H21.6074V78.3399H23.579V76.8369Z" fill="white"/>
<path d="M23.579 79.2256H21.6074V80.7285H23.579V79.2256Z" fill="white"/>
<path d="M23.579 81.6123H21.6074V83.1152H23.579V81.6123Z" fill="white"/>
<path d="M23.579 84.001H21.6074V85.5039H23.579V84.001Z" fill="white"/>
<path d="M23.579 86.3877H21.6074V87.8906H23.579V86.3877Z" fill="white"/>
<path d="M23.579 88.7744H21.6074V90.2774H23.579V88.7744Z" fill="white"/>
<path d="M23.579 91.1631H21.6074V92.666H23.579V91.1631Z" fill="white"/>
<path d="M23.579 93.5498H21.6074V95.0527H23.579V93.5498Z" fill="white"/>
<path d="M23.579 95.9375H21.6074V97.4404H23.579V95.9375Z" fill="white"/>
<path d="M23.579 98.3252H21.6074V99.8281H23.579V98.3252Z" fill="white"/>
<path d="M48.0559 19.5352H28.4473V21.0381H48.0559V19.5352Z" fill="#FB755A"/>
<path d="M42.48 21.9238H28.4473V23.4268H42.48V21.9238Z" fill="#FB755A"/>
<path d="M47.5713 24.3105H34.6699V25.8135H47.5713V24.3105Z" fill="#FB755A"/>
<path d="M53.9423 26.6973H42.0547V28.2002H53.9423V26.6973Z" fill="#FB755A"/>
<path d="M50.5163 29.0869H42.0547V30.5899H50.5163V29.0869Z" fill="#FB755A"/>
<path d="M53.9423 31.4727H42.0547V32.9756H53.9423V31.4727Z" fill="#FB755A"/>
<path d="M47.5713 33.8613H34.6699V35.3643H47.5713V33.8613Z" fill="#FB755A"/>
<path d="M46.0267 36.25H34.6699V37.7529H46.0267V36.25Z" fill="#FB755A"/>
<path d="M36.8726 38.6367H28.4473V40.1397H36.8726V38.6367Z" fill="#FB755A"/>
<path d="M40.7817 41.0234H28.4473V42.5264H40.7817V41.0234Z" fill="#FB755A"/>
<path d="M44.1453 43.4111H34.6699V44.9141H44.1453V43.4111Z" fill="#FB755A"/>
<path d="M51.5282 45.7979H34.6699V47.3008H51.5282V45.7979Z" fill="#FB755A"/>
<path d="M50.5163 48.1855H42.0547V49.6885H50.5163V48.1855Z" fill="#FB755A"/>
<path d="M54.8591 50.5742H42.0547V52.0772H54.8591V50.5742Z" fill="#FB755A"/>
<path d="M52.1087 52.9629H42.0547V54.4658H52.1087V52.9629Z" fill="#FB755A"/>
<path d="M54.8591 55.3496H42.0547V56.8526H54.8591V55.3496Z" fill="#FB755A"/>
<path d="M46.0284 57.7383H34.8438V59.2412H46.0284V57.7383Z" fill="#FB755A"/>
<path d="M38.7424 60.125H28.4473V61.6279H38.7424V60.125Z" fill="#FB755A"/>
<path d="M42.5542 60.125H40.3496V61.6279H42.5542V60.125Z" fill="#FB755A"/>
<path d="M41.1225 62.5127H28.4473V64.0156H41.1225V62.5127Z" fill="#FB755A"/>
<path d="M46.0267 64.8994H34.6699V66.4024H46.0267V64.8994Z" fill="#FB755A"/>
<path d="M47.0801 67.2861H34.6699V68.7891H47.0801V67.2861Z" fill="#FB755A"/>
<path d="M55.3899 69.6738H42.0547V71.1768H55.3899V69.6738Z" fill="#FB755A"/>
<path d="M47.082 72.0625H42.0547V73.5654H47.082V72.0625Z" fill="#FB755A"/>
<path d="M52.9777 74.4492H42.0547V75.9522H52.9777V74.4492Z" fill="#FB755A"/>
<path d="M42.0528 76.8369H34.6699V78.3399H42.0528V76.8369Z" fill="#FB755A"/>
<path d="M47.0815 76.8369H43.8242V78.3399H47.0815V76.8369Z" fill="#FB755A"/>
<path d="M46.8957 79.2256H34.6699V80.7285H46.8957V79.2256Z" fill="#FB755A"/>
<path d="M47.5732 81.6123H42.0547V83.1152H47.5732V81.6123Z" fill="#FB755A"/>
<path d="M54.8591 84.001H42.0547V85.5039H54.8591V84.001Z" fill="#FB755A"/>
<path d="M47.5713 86.3877H34.6699V87.8906H47.5713V86.3877Z" fill="#FB755A"/>
<path d="M44.7747 88.7744H28.4473V90.2774H44.7747V88.7744Z" fill="#FB755A"/>
<path d="M38.7424 91.1631H28.4473V92.666H38.7424V91.1631Z" fill="#FB755A"/>
<path d="M42.6977 93.5498H34.6699V95.0527H42.6977V93.5498Z" fill="#FB755A"/>
<path d="M48.5842 93.5498H44.1758V95.0527H48.5842V93.5498Z" fill="#FB755A"/>
<path d="M40.7209 95.9375H28.4473V97.4404H40.7209V95.9375Z" fill="#FB755A"/>
<path d="M33.2902 98.3252H28.4473V99.8281H33.2902V98.3252Z" fill="#FB755A"/>
<path d="M3.05791 0.429688H193.25C194.679 0.429688 195.839 1.58969 195.839 3.01885V6.62728H0.46875V3.01885C0.46875 1.58969 1.62875 0.429688 3.05791 0.429688V0.429688Z" fill="#9292A5"/>
<path d="M8.53714 3.70636C8.6371 2.69599 7.89906 1.79589 6.88869 1.69593C5.87832 1.59597 4.97821 2.33401 4.87826 3.34438C4.7783 4.35476 5.51634 5.25486 6.52671 5.35482C7.53708 5.45478 8.43718 4.71674 8.53714 3.70636Z" fill="#393946"/>
<path d="M14.9414 3.70637C15.0414 2.69599 14.3034 1.79589 13.293 1.69593C12.2826 1.59597 11.3825 2.33401 11.2826 3.34439C11.1826 4.35476 11.9206 5.25486 12.931 5.35482C13.9414 5.45478 14.8415 4.71674 14.9414 3.70637Z" fill="#393946"/>
<path d="M19.9463 5.3202C20.9345 5.08697 21.5464 4.09685 21.3132 3.10869C21.08 2.12054 20.0899 1.50854 19.1017 1.74177C18.1136 1.975 17.5016 2.96512 17.7348 3.95328C17.968 4.94143 18.9581 5.55342 19.9463 5.3202Z" fill="#393946"/>
<g style="mix-blend-mode:soft-light" opacity="0.2">
<path d="M274.889 21.8906H358.493C359.324 21.8906 359.999 22.565 359.999 23.3958V94.865C359.999 95.6957 359.324 96.3701 358.493 96.3701H276.394C275.563 96.3701 274.889 95.6957 274.889 94.865V21.8906Z" fill="#393946"/>
</g>
<g style="mix-blend-mode:soft-light" opacity="0.4">
<path d="M269.445 16.4443H353.05C353.881 16.4443 354.555 17.1187 354.555 17.9495V89.4187C354.555 90.2495 353.881 90.9239 353.05 90.9239H270.95C270.12 90.9239 269.445 90.2495 269.445 89.4187V16.4443Z" fill="#393946"/>
</g>
<path d="M265.505 12H347.605C347.884 12 348.11 12.2262 348.11 12.5052V83.9743C348.11 84.2533 347.884 84.4795 347.605 84.4795H265.505C265.226 84.4795 265 84.2533 265 83.9743V12.5052C265 12.2262 265.226 12 265.505 12Z" fill="#393946" stroke="#9292A5" stroke-width="2"/>
<path d="M273.254 18.1865H272.488V19.3259H273.254V18.1865Z" fill="white"/>
<path d="M273.256 20.5439H272.129V21.6834H273.256V20.5439Z" fill="white"/>
<path d="M273.256 22.9053H272.129V24.0447H273.256V22.9053Z" fill="white"/>
<path d="M273.256 25.2607H272.129V26.4002H273.256V25.2607Z" fill="white"/>
<path d="M273.256 27.6201H272.129V28.7595H273.256V27.6201Z" fill="white"/>
<path d="M273.256 29.9805H272.129V31.1199H273.256V29.9805Z" fill="white"/>
<path d="M273.256 32.3379H272.129V33.4773H273.256V32.3379Z" fill="white"/>
<path d="M273.256 34.6973H272.129V35.8367H273.256V34.6973Z" fill="white"/>
<path d="M273.256 37.0557H272.129V38.1951H273.256V37.0557Z" fill="white"/>
<path d="M273.256 39.4131H272.129V40.5525H273.256V39.4131Z" fill="white"/>
<path d="M273.199 41.7715H271.705V42.9109H273.199V41.7715Z" fill="white"/>
<path d="M273.199 44.1299H271.705V45.2693H273.199V44.1299Z" fill="white"/>
<path d="M273.199 46.4902H271.705V47.6297H273.199V46.4902Z" fill="white"/>
<path d="M273.199 48.8477H271.705V49.9871H273.199V48.8477Z" fill="white"/>
<path d="M273.199 51.2051H271.705V52.3445H273.199V51.2051Z" fill="white"/>
<path d="M273.199 53.5654H271.705V54.7048H273.199V53.5654Z" fill="white"/>
<path d="M273.199 55.9229H271.705V57.0623H273.199V55.9229Z" fill="white"/>
<path d="M273.199 58.2803H271.705V59.4197H273.199V58.2803Z" fill="white"/>
<path d="M273.199 60.6406H271.705V61.78H273.199V60.6406Z" fill="white"/>
<path d="M273.199 62.998H271.705V64.1375H273.199V62.998Z" fill="white"/>
<path d="M273.199 65.3564H271.705V66.4959H273.199V65.3564Z" fill="white"/>
<path d="M273.199 67.7158H271.705V68.8552H273.199V67.7158Z" fill="white"/>
<path d="M273.199 70.0723H271.705V71.2117H273.199V70.0723Z" fill="white"/>
<path d="M273.199 72.4307H271.705V73.5701H273.199V72.4307Z" fill="white"/>
<path d="M273.199 74.792H271.705V75.9314H273.199V74.792Z" fill="white"/>
<path d="M273.199 77.1494H271.705V78.2888H273.199V77.1494Z" fill="white"/>
<path d="M303.992 18.1865H278.125V19.3259H303.992V18.1865Z" fill="#FB755A"/>
<path d="M296.636 20.4551H278.125V21.5945H296.636V20.4551Z" fill="#FB755A"/>
<path d="M323.853 20.4551H320.414V21.5945H323.853V20.4551Z" fill="#FB755A"/>
<path d="M332.149 20.4551H325.602V21.5945H332.149V20.4551Z" fill="#CACAD3"/>
<path d="M318.71 20.4551H298.352V21.5945H318.71V20.4551Z" fill="#CACAD3"/>
<path d="M300.116 22.7227H283.098V23.8621H300.116V22.7227Z" fill="#FB755A"/>
<path d="M305.282 24.9902H289.6V26.1297H305.282V24.9902Z" fill="#FB755A"/>
<path d="M300.762 27.2578H289.6V28.3972H300.762V27.2578Z" fill="#FB755A"/>
<path d="M316.774 27.2578H302.348V28.3972H316.774V27.2578Z" fill="#CACAD3"/>
<path d="M323.452 27.2578H318.236V28.3972H323.452V27.2578Z" fill="#CACAD3"/>
<path d="M323.856 40.8643H319.965V42.0037H323.856V40.8643Z" fill="#CACAD3"/>
<path d="M314.651 59.0068H310.76V60.1463H314.651V59.0068Z" fill="#CACAD3"/>
<path d="M323.452 63.542H318.236V64.6814H323.452V63.542Z" fill="#CACAD3"/>
<path d="M315.926 70.3467H313.521V71.4861H315.926V70.3467Z" fill="#CACAD3"/>
<path d="M303.039 54.4717H299.402V55.6111H303.039V54.4717Z" fill="#CACAD3"/>
<path d="M312.922 47.668H307.744V48.8074H312.922V47.668Z" fill="#CACAD3"/>
<path d="M304.956 34.0615H299.74V35.2009H304.956V34.0615Z" fill="#CACAD3"/>
<path d="M305.282 29.5264H289.6V30.6658H305.282V29.5264Z" fill="#FB755A"/>
<path d="M300.116 31.7939H283.098V32.9334H300.116V31.7939Z" fill="#FB755A"/>
<path d="M308.87 31.7812H301.676V32.9207H308.87V31.7812Z" fill="#FB755A"/>
<path d="M298.079 34.0615H283.098V35.2009H298.079V34.0615Z" fill="#FB755A"/>
<path d="M289.24 36.3291H278.125V37.4685H289.24V36.3291Z" fill="#FB755A"/>
<path d="M314.779 31.7676H310.678V32.907H314.779V31.7676Z" fill="#FB755A"/>
<path d="M294.395 38.5967H278.125V39.7361H294.395V38.5967Z" fill="#FB755A"/>
<path d="M295.597 40.8643H283.098V42.0037H295.597V40.8643Z" fill="#FB755A"/>
<path d="M307.159 40.8643H297.061V42.0037H307.159V40.8643Z" fill="#CACAD3"/>
<path d="M318.634 40.8643H308.535V42.0037H318.634V40.8643Z" fill="#CACAD3"/>
<path d="M305.336 43.1318H283.098V44.2713H305.336V43.1318Z" fill="#FB755A"/>
<path d="M300.762 45.4004H289.6V46.5398H300.762V45.4004Z" fill="#FB755A"/>
<path d="M306.491 47.668H289.6V48.8074H306.491V47.668Z" fill="#FB755A"/>
<path d="M302.863 49.9355H289.6V51.075H302.863V49.9355Z" fill="#FB755A"/>
<path d="M306.491 52.2051H289.6V53.3445H306.491V52.2051Z" fill="#FB755A"/>
<path d="M298.081 54.4717H283.326V55.6111H298.081V54.4717Z" fill="#FB755A"/>
<path d="M317.092 63.542H299.43V64.6814H317.092V63.542Z" fill="#CACAD3"/>
<path d="M291.706 59.0068H278.125V60.1463H291.706V59.0068Z" fill="#FB755A"/>
<path d="M293.496 56.7393H290.588V57.8787H293.496V56.7393Z" fill="#FB755A"/>
<path d="M294.846 61.2754H278.125V62.4148H294.846V61.2754Z" fill="#FB755A"/>
<path d="M312.106 70.3467H307.635V71.4861H312.106V70.3467Z" fill="#FB755A"/>
<path d="M306.176 70.3467H297.633V71.4861H306.176V70.3467Z" fill="#CACAD3"/>
<path d="M298.079 63.542H283.098V64.6814H298.079V63.542Z" fill="#FB755A"/>
<path d="M299.468 65.8115H283.098V66.9509H299.468V65.8115Z" fill="#FB755A"/>
<path d="M307.192 68.0781H289.6V69.2175H307.192V68.0781Z" fill="#FB755A"/>
<path d="M296.231 70.3467H289.6V71.4861H296.231V70.3467Z" fill="#FB755A"/>
<path d="M304.008 72.6143H289.6V73.7537H304.008V72.6143Z" fill="#FB755A"/>
<path d="M292.837 74.8809H283.098V76.0203H292.837V74.8809Z" fill="#FB755A"/>
<path d="M301.22 59.0068H294.719V60.1463H301.22V59.0068Z" fill="#FB755A"/>
<path d="M309.287 59.0068H302.785V60.1463H309.287V59.0068Z" fill="#CACAD3"/>
<path d="M300.139 77.1494H283.098V78.2888H300.139V77.1494Z" fill="#FB755A"/>
<path d="M307.189 77.1494H302.17V78.2888H307.189V77.1494Z" fill="#FB755A"/>
<path d="M265.505 11H347.605C348.436 11 349.11 11.6744 349.11 12.5052V14.8949H264V12.5052C264 11.6744 264.674 11 265.505 11V11Z" fill="#9292A5"/>
<path d="M269.063 13.1313C269.165 12.5016 268.738 11.9082 268.108 11.806C267.478 11.7038 266.885 12.1314 266.783 12.7611C266.681 13.3909 267.108 13.9842 267.738 14.0865C268.368 14.1887 268.961 13.761 269.063 13.1313Z" fill="#393946"/>
<path d="M273.089 13.1342C273.191 12.5045 272.763 11.9112 272.133 11.8089C271.504 11.7067 270.91 12.1343 270.808 12.7641C270.706 13.3938 271.134 13.9872 271.763 14.0894C272.393 14.1916 272.986 13.764 273.089 13.1342Z" fill="#393946"/>
<path d="M277.122 13.089C277.2 12.4558 276.75 11.8793 276.116 11.8013C275.483 11.7234 274.907 12.1735 274.829 12.8066C274.751 13.4398 275.201 14.0163 275.834 14.0943C276.467 14.1723 277.044 13.7222 277.122 13.089Z" fill="#393946"/>
<path d="M342.161 72.7984V70.3614C342.16 69.2755 341.768 68.2251 341.056 67.3961C340.343 66.5672 339.355 66.0131 338.268 65.8322V64.9968C338.268 64.7936 338.186 64.5987 338.039 64.4549C337.893 64.3112 337.695 64.2305 337.489 64.2305C337.282 64.2305 337.084 64.3112 336.938 64.4549C336.792 64.5987 336.71 64.7936 336.71 64.9968V65.8322C335.622 66.0131 334.635 66.5672 333.922 67.3961C333.21 68.2251 332.818 69.2755 332.817 70.3614V72.7984C332.363 72.9565 331.969 73.2491 331.69 73.636C331.412 74.0229 331.261 74.4852 331.26 74.9596V76.4923C331.26 76.6955 331.342 76.8905 331.488 77.0342C331.634 77.1779 331.832 77.2586 332.038 77.2586H334.483C334.663 77.908 335.054 78.4813 335.597 78.89C336.14 79.2987 336.805 79.5202 337.489 79.5202C338.173 79.5202 338.837 79.2987 339.381 78.89C339.924 78.4813 340.315 77.908 340.494 77.2586H342.939C343.146 77.2586 343.344 77.1779 343.49 77.0342C343.636 76.8905 343.718 76.6955 343.718 76.4923V74.9596C343.717 74.4852 343.566 74.0229 343.288 73.636C343.009 73.2491 342.615 72.9565 342.161 72.7984V72.7984ZM334.374 70.3614C334.374 69.5484 334.702 68.7687 335.287 68.1938C335.871 67.6189 336.663 67.2959 337.489 67.2959C338.315 67.2959 339.107 67.6189 339.691 68.1938C340.275 68.7687 340.603 69.5484 340.603 70.3614V72.6605H334.374V70.3614ZM337.489 78.025C337.217 78.0234 336.951 77.9518 336.716 77.8174C336.481 77.6829 336.286 77.4903 336.15 77.2586H338.828C338.692 77.4903 338.497 77.6829 338.262 77.8174C338.027 77.9518 337.761 78.0234 337.489 78.025ZM342.161 75.7259H332.817V74.9596C332.817 74.7563 332.899 74.5614 333.045 74.4177C333.191 74.2739 333.389 74.1932 333.596 74.1932H341.382C341.589 74.1932 341.787 74.2739 341.933 74.4177C342.079 74.5614 342.161 74.7563 342.161 74.9596V75.7259Z" fill="#FB755A"/>
<path d="M167.994 113.829H187.325C190.895 113.829 193.789 116.76 193.789 120.374C193.789 123.989 190.895 126.92 187.325 126.92H167.994C164.424 126.92 161.53 123.989 161.53 120.374C161.53 116.76 164.424 113.829 167.994 113.829Z" fill="#F9F9FA"/>
<path d="M196.127 120.545H196.336" stroke="#CACAD3" stroke-width="0.733888" stroke-miterlimit="10"/>
<path d="M196.745 120.545H207.635C208.559 120.545 209.309 119.277 209.309 117.713V113.287" stroke="#CACAD3" stroke-width="0.733888" stroke-miterlimit="10"/>
<path d="M209.309 112.942V112.588" stroke="#CACAD3" stroke-width="0.733888" stroke-miterlimit="10"/>
<path d="M138.154 120.374H158.258" stroke="#CACAD3" stroke-width="0.733888" stroke-miterlimit="10"/>
<path d="M179 1.5877C179 1.33766 179.203 1.13477 179.453 1.13477C179.703 1.13477 179.906 1.33766 179.906 1.5877C179.906 1.83773 179.703 2.04063 179.453 2.04063C179.203 2.04063 179 1.83773 179 1.5877Z" stroke="#CACAD3" stroke-width="0.733888" stroke-miterlimit="10"/>
<path d="M247.21 57H286.574C286.689 57 286.783 57.0938 286.783 57.2096V111.469C286.783 111.584 286.689 111.678 286.574 111.678H247.21C247.094 111.678 247 111.584 247 111.469V57.2096C247 57.0938 247.094 57 247.21 57Z" fill="#393946" stroke="#CACAD3" stroke-width="2"/>
<path d="M281.249 60.8584H252.535V63.0918H281.249V60.8584Z" fill="#FB755A"/>
<path d="M262.354 65.4951H252.535V67.7285H262.354V65.4951Z" fill="#FB755A"/>
<path d="M281.248 65.4951H264.58V67.7285H281.248V65.4951Z" fill="#FB755A"/>
<path d="M266.552 69.8086H252.535V72.042H266.552V69.8086Z" fill="#FB755A"/>
<g style="mix-blend-mode:soft-light" opacity="0.2">
<path d="M249.357 61.4482H292.228C292.654 61.4482 293 61.9693 293 62.6113V117.836C293 118.478 292.654 118.999 292.228 118.999H250.129C249.703 118.999 249.357 118.478 249.357 117.836V61.4482Z" fill="#393946"/>
</g>
<g style="mix-blend-mode:soft-light" opacity="0.4">
<path d="M246.479 57.1328H289.35C289.776 57.1328 290.121 57.6539 290.121 58.2959V113.521C290.121 114.163 289.776 114.684 289.35 114.684H247.25C246.824 114.684 246.479 114.163 246.479 113.521V57.1328Z" fill="#393946"/>
</g>
<path d="M266.552 82.8574H252.535V85.0908H266.552V82.8574Z" fill="#FB755A"/>
<path d="M281.25 69.8086H268.566V72.042H281.25V69.8086Z" fill="#FB755A"/>
<path d="M271.429 80.5195H281.248V78.2861H271.429V80.5195Z" fill="#FB755A"/>
<path d="M252.533 80.5195H269.201V78.2861H252.533V80.5195Z" fill="#FB755A"/>
<path d="M267.231 76.2061H281.248V73.9726H267.231V76.2061Z" fill="#FB755A"/>
<path d="M252.535 76.2061H265.219V73.9726H252.535V76.2061Z" fill="#FB755A"/>
<g clip-path="url(#clip0_29632_13983)">
<path d="M261.826 94.6419C262.025 94.8419 262.349 94.8419 262.549 94.6419C262.749 94.442 262.749 94.1172 262.549 93.9172L261.662 93.0286C261.462 92.8286 261.138 92.8286 260.938 93.0286C260.738 93.2286 260.738 93.5534 260.938 93.7533L261.826 94.6419ZM267.069 93.5348C267.351 93.5348 267.581 93.3056 267.581 93.0228V92.1332C267.581 91.8503 267.351 91.6211 267.069 91.6211C266.787 91.6211 266.557 91.8503 266.557 92.1332V93.0218C266.557 93.3046 266.787 93.5339 267.069 93.5339V93.5348ZM272.312 94.6419L273.2 93.7533C273.399 93.5534 273.399 93.2286 273.2 93.0286C273.001 92.8286 272.677 92.8286 272.476 93.0286L271.59 93.9172C271.39 94.1172 271.39 94.442 271.59 94.6419C271.789 94.8419 272.113 94.8419 272.312 94.6419V94.6419ZM271.444 102.692L270.711 96.7459C270.659 96.3138 270.431 95.9139 270.072 95.6232C269.713 95.3315 269.247 95.1696 268.765 95.1657H265.384C264.897 95.1628 264.425 95.3228 264.06 95.6144C263.696 95.9061 263.465 96.3089 263.411 96.7449L262.677 102.699C262.211 102.78 261.776 102.996 261.434 103.329C260.991 103.757 260.739 104.343 260.739 104.958C260.739 105.344 260.898 105.711 261.174 105.978C261.45 106.244 261.819 106.392 262.201 106.392H271.963C272.344 106.392 272.714 106.245 272.988 105.978C273.264 105.711 273.423 105.344 273.423 104.958C273.423 104.343 273.171 103.758 272.728 103.329C272.376 102.987 271.925 102.767 271.443 102.692H271.444ZM264.8 99.4722C265.052 99.281 265.411 99.3317 265.602 99.5843L266.431 100.686L268.196 97.5525C268.351 97.2765 268.701 97.179 268.977 97.335C269.252 97.4911 269.35 97.8403 269.194 98.1163L267.333 101.422C267.333 101.422 267.331 101.425 267.331 101.427C267.247 101.573 267.137 101.694 267.006 101.786C266.865 101.884 266.704 101.945 266.537 101.958C266.503 101.962 266.47 101.964 266.437 101.964C266.298 101.964 266.16 101.933 266.032 101.872C265.884 101.8 265.752 101.69 265.65 101.553L264.689 100.277C264.498 100.024 264.548 99.6643 264.801 99.4731L264.8 99.4722ZM272.191 105.154C272.134 105.21 272.052 105.245 271.962 105.245H262.2C262.111 105.245 262.028 105.21 261.97 105.154C261.914 105.098 261.884 105.028 261.884 104.958C261.884 104.659 262.006 104.37 262.23 104.153C262.455 103.936 262.762 103.811 263.087 103.811H271.075C271.4 103.811 271.708 103.937 271.931 104.153C272.155 104.37 272.277 104.659 272.277 104.958C272.277 105.028 272.249 105.099 272.191 105.154V105.154ZM261.811 97.8344C261.811 97.5516 261.581 97.3224 261.299 97.3224H260.412C260.13 97.3224 259.9 97.5516 259.9 97.8344C259.9 98.1173 260.13 98.3465 260.412 98.3465H261.299C261.581 98.3465 261.811 98.1173 261.811 97.8344V97.8344ZM273.725 97.3224H272.837C272.555 97.3224 272.325 97.5516 272.325 97.8344C272.325 98.1173 272.555 98.3465 272.837 98.3465H273.725C274.007 98.3465 274.237 98.1173 274.237 97.8344C274.237 97.5516 274.007 97.3224 273.725 97.3224Z" fill="#FB755A"/>
</g>
<path d="M132.467 117.307H114.515C112.661 117.307 111.158 118.809 111.158 120.663C111.158 122.517 112.661 124.019 114.515 124.019H132.467C134.32 124.019 135.823 122.517 135.823 120.663C135.823 118.809 134.32 117.307 132.467 117.307Z" fill="#CACAD3"/>
<path d="M231.575 76.6543H204.45C202.596 76.6543 201.094 78.157 201.094 80.0106C201.094 81.8643 202.596 83.367 204.45 83.367H231.575C233.428 83.367 234.931 81.8643 234.931 80.0106C234.931 78.157 233.428 76.6543 231.575 76.6543Z" fill="#CACAD3"/>
<path d="M231.575 85.0664H204.45C202.596 85.0664 201.094 86.5691 201.094 88.4228C201.094 90.2764 202.596 91.7791 204.45 91.7791H231.575C233.428 91.7791 234.931 90.2764 234.931 88.4228C234.931 86.5691 233.428 85.0664 231.575 85.0664Z" fill="#CACAD3"/>
<path d="M231.417 93.5928H204.292C202.438 93.5928 200.936 95.0955 200.936 96.9491C200.936 98.8028 202.438 100.305 204.292 100.305H231.417C233.27 100.305 234.773 98.8028 234.773 96.9491C234.773 95.0955 233.27 93.5928 231.417 93.5928Z" fill="#CACAD3"/>
<path d="M231.417 102.043H204.292C202.438 102.043 200.936 103.546 200.936 105.399C200.936 107.253 202.438 108.756 204.292 108.756H231.417C233.27 108.756 234.773 107.253 234.773 105.399C234.773 103.546 233.27 102.043 231.417 102.043Z" fill="#CACAD3"/>
<path d="M159.9 39.6489H166.073C167.638 39.6489 168.906 38.381 168.906 36.8165V32.057C168.906 30.4925 170.174 29.2246 171.738 29.2246H206.636C208.2 29.2246 209.468 30.4925 209.468 32.057V74.1408" stroke="#CACAD3" stroke-width="0.733888" stroke-miterlimit="10"/>
<path d="M230.424 74.5674L230.424 68.3944C230.424 66.83 229.156 65.562 227.592 65.562L222.832 65.562C221.268 65.562 220 64.2941 220 62.7296L220 27.832C220 26.2676 221.268 24.9996 222.832 24.9996L264.916 24.9996" stroke="#CACAD3" stroke-width="0.733888" stroke-miterlimit="10"/>
<path d="M73.3995 117.23L76.6704 120.501L106.463 120.501" stroke="#CACAD3" stroke-width="0.733888" stroke-miterlimit="10"/>
<path d="M72.6215 116.913C72.6215 117.163 72.8244 117.366 73.0744 117.366C73.3244 117.366 73.5273 117.163 73.5273 116.913C73.5273 116.663 73.3244 116.46 73.0744 116.46C72.8244 116.46 72.6215 116.663 72.6215 116.913Z" stroke="#CACAD3" stroke-width="0.733888" stroke-miterlimit="10"/>
<path d="M161.942 41.8643C163.094 41.8643 164.027 40.9308 164.027 39.7793C164.027 38.6278 163.094 37.6943 161.942 37.6943C160.791 37.6943 159.857 38.6278 159.857 39.7793C159.857 40.9308 160.791 41.8643 161.942 41.8643Z" fill="#CACAD3"/>
<path d="M279.085 89.17C280.237 89.17 281.17 88.2365 281.17 87.085C281.17 85.9335 280.237 85 279.085 85C277.933 85 277 85.9335 277 87.085C277 88.2365 277.933 89.17 279.085 89.17Z" fill="#CACAD3"/>
<path d="M264.942 26.8643C266.094 26.8643 267.027 25.9308 267.027 24.7793C267.027 23.6278 266.094 22.6943 264.942 22.6943C263.791 22.6943 262.857 23.6278 262.857 24.7793C262.857 25.9308 263.791 26.8643 264.942 26.8643Z" fill="#CACAD3"/>
<g clip-path="url(#clip1_29632_13983)">
<path d="M175.859 121.73H178.991C179.313 121.73 179.513 121.382 179.352 121.104L177.785 118.391C177.624 118.113 177.223 118.113 177.063 118.391L175.497 121.104C175.336 121.382 175.538 121.73 175.858 121.73H175.859ZM177.425 114.764C174.327 114.764 171.814 117.276 171.814 120.374C171.814 123.472 174.327 125.984 177.425 125.984C180.522 125.984 183.035 123.472 183.035 120.374C183.035 117.276 180.522 114.764 177.425 114.764ZM177.439 117.33C179.121 117.338 180.477 118.707 180.469 120.389C180.461 122.071 179.091 123.427 177.41 123.419C175.728 123.41 174.372 122.041 174.38 120.36C174.388 118.678 175.757 117.322 177.439 117.33V117.33ZM173.438 122.099C173.403 122.111 173.371 122.116 173.337 122.116C173.201 122.116 173.072 122.027 173.028 121.891C172.875 121.421 172.799 120.916 172.799 120.388C172.799 120.096 172.823 119.79 172.872 119.483C173.239 117.616 174.673 116.175 176.527 115.799C176.704 115.763 176.875 115.877 176.911 116.053C176.947 116.229 176.833 116.401 176.657 116.437C175.062 116.759 173.828 118 173.514 119.595C173.473 119.857 173.452 120.129 173.452 120.387C173.452 120.844 173.519 121.283 173.65 121.688C173.705 121.859 173.613 122.043 173.44 122.098L173.437 122.099H173.438ZM180.973 123.442C180.118 124.46 178.887 125.019 177.508 125.019C176.129 125.019 174.821 124.452 173.932 123.463C173.811 123.329 173.823 123.123 173.956 123.004C174.09 122.884 174.296 122.896 174.414 123.029C175.169 123.868 176.323 124.371 177.506 124.371C178.689 124.371 179.744 123.893 180.474 123.024C180.589 122.888 180.794 122.868 180.932 122.985C181.07 123.101 181.086 123.305 180.971 123.443L180.973 123.442H180.973ZM181.853 121.87C181.806 122.005 181.681 122.088 181.545 122.088C181.51 122.088 181.474 122.081 181.438 122.07C181.269 122.012 181.179 121.826 181.238 121.656C181.295 121.49 181.346 121.316 181.389 121.137C181.438 120.891 181.464 120.628 181.464 120.368C181.464 118.459 180.103 116.805 178.227 116.434C178.051 116.4 177.929 116.229 177.962 116.054C177.994 115.878 178.157 115.761 178.331 115.792C178.334 115.792 178.349 115.796 178.352 115.797C180.531 116.226 182.113 118.15 182.113 120.368C182.113 120.67 182.084 120.976 182.024 121.275C181.974 121.488 181.916 121.683 181.852 121.871H181.853V121.87Z" fill="#FB755A"/>
</g>
<path d="M226 113V117C226 118.657 227.343 120 229 120H276C277.657 120 279 118.657 279 117V87.5" stroke="#CACAD3" stroke-width="0.73"/>
<defs>
<clipPath id="clip0_29632_13983">
<rect width="14.3352" height="14.7696" fill="white" transform="translate(259.9 91.6211)"/>
</clipPath>
<clipPath id="clip1_29632_13983">
<rect width="11.2206" height="11.2206" fill="white" transform="translate(171.814 114.764)"/>
</clipPath>
</defs>
</svg>
