<svg width="1200" height="438" viewBox="0 0 1200 438" fill="none" xmlns="http://www.w3.org/2000/svg">
<rect x="407" width="793" height="438" rx="24" fill="#FEF0E6"/>
<path d="M407 24C407 10.7452 417.745 0 431 0H1176C1189.25 0 1200 10.7452 1200 24V40H407V24Z" fill="#FB9D5A"/>
<rect y="94" width="387" height="256" rx="24" fill="#FFF6E3"/>
<path d="M0 118C0 104.745 10.7452 94 24 94H363C376.255 94 387 104.745 387 118V134H0V118Z" fill="#FBC55A"/>
<circle cx="193.5" cy="227.5" r="66.5" fill="#FBC55A"/>
<path d="M223 198.511L163 195.225V192.286L223 189V198.511Z" fill="white"/>
<path d="M223 212.207L163 208.92V205.982L223 202.696V212.207Z" fill="white"/>
<path d="M207.949 225.894L163 222.617V219.683L207.949 216.406V225.894Z" fill="white"/>
<path d="M207.949 239.594L163 236.317V233.383L207.949 230.106V239.594Z" fill="white"/>
<path d="M193 253.304L163 250.017V247.075L193 243.793V253.304Z" fill="white"/>
<path d="M193 267L163 263.713V260.775L193 257.489V267Z" fill="white"/>
<path d="M76.5053 315.045H78.5316C78.0905 312.494 75.9109 310.73 73.0856 310.73C69.6978 310.73 67.2241 313.281 67.2241 317.461C67.2241 321.603 69.6275 324.179 73.1751 324.179C76.3519 324.179 78.6211 322.095 78.6211 318.79V317.301H73.4755V318.931H76.7099C76.6651 321.04 75.2717 322.376 73.1751 322.376C70.8675 322.376 69.1864 320.631 69.1864 317.448C69.1864 314.278 70.8803 312.533 73.0984 312.533C74.837 312.533 76.0131 313.491 76.5053 315.045ZM80.705 324H82.6162V318.004C82.6162 316.719 83.6069 315.793 84.9621 315.793C85.3584 315.793 85.8058 315.863 85.9592 315.908V314.08C85.7675 314.054 85.3903 314.035 85.1474 314.035C83.9969 314.035 83.0125 314.687 82.6545 315.741H82.5523V314.182H80.705V324ZM90.1125 324.217C91.7361 324.217 92.6502 323.393 93.0145 322.658H93.0912V324H94.9577V317.48C94.9577 314.623 92.7077 314.054 91.148 314.054C89.371 314.054 87.7347 314.77 87.0955 316.56L88.8916 316.969C89.1729 316.272 89.8888 315.601 91.1736 315.601C92.4073 315.601 93.0401 316.246 93.0401 317.359V317.403C93.0401 318.1 92.3242 318.087 90.56 318.292C88.6999 318.509 86.795 318.995 86.795 321.226C86.795 323.156 88.246 324.217 90.1125 324.217ZM90.528 322.683C89.4477 322.683 88.6679 322.197 88.6679 321.251C88.6679 320.229 89.5756 319.864 90.6814 319.717C91.3014 319.634 92.7716 319.468 93.0465 319.193V320.459C93.0465 321.622 92.1196 322.683 90.528 322.683ZM101.906 314.182H99.7901V313.3C99.7901 312.43 100.148 311.957 101.081 311.957C101.478 311.957 101.759 312.047 101.938 312.104L102.385 310.558C102.117 310.455 101.561 310.295 100.787 310.295C99.234 310.295 97.8725 311.203 97.8725 313.044V314.182H96.3576V315.716H97.8725V324H99.7901V315.716H101.906V314.182ZM106.166 324.217C107.79 324.217 108.704 323.393 109.068 322.658H109.145V324H111.011V317.48C111.011 314.623 108.761 314.054 107.202 314.054C105.425 314.054 103.788 314.77 103.149 316.56L104.945 316.969C105.227 316.272 105.943 315.601 107.227 315.601C108.461 315.601 109.094 316.246 109.094 317.359V317.403C109.094 318.1 108.378 318.087 106.614 318.292C104.754 318.509 102.849 318.995 102.849 321.226C102.849 323.156 104.3 324.217 106.166 324.217ZM106.582 322.683C105.501 322.683 104.722 322.197 104.722 321.251C104.722 320.229 105.629 319.864 106.735 319.717C107.355 319.634 108.825 319.468 109.1 319.193V320.459C109.1 321.622 108.173 322.683 106.582 322.683ZM115.198 318.17C115.198 316.604 116.157 315.71 117.487 315.71C118.784 315.71 119.57 316.56 119.57 317.985V324H121.482V317.755C121.482 315.326 120.146 314.054 118.139 314.054C116.662 314.054 115.697 314.738 115.243 315.78H115.122V314.182H113.287V324H115.198V318.17ZM126.632 324.217C128.256 324.217 129.17 323.393 129.534 322.658H129.611V324H131.477V317.48C131.477 314.623 129.227 314.054 127.668 314.054C125.891 314.054 124.254 314.77 123.615 316.56L125.411 316.969C125.692 316.272 126.408 315.601 127.693 315.601C128.927 315.601 129.56 316.246 129.56 317.359V317.403C129.56 318.1 128.844 318.087 127.08 318.292C125.219 318.509 123.315 318.995 123.315 321.226C123.315 323.156 124.766 324.217 126.632 324.217ZM127.048 322.683C125.967 322.683 125.188 322.197 125.188 321.251C125.188 320.229 126.095 319.864 127.201 319.717C127.821 319.634 129.291 319.468 129.566 319.193V320.459C129.566 321.622 128.639 322.683 127.048 322.683ZM138.4 324H140.375V318.292H145.936V316.598H140.375V312.609H146.518V310.909H138.4V324ZM151.346 324.217C152.969 324.217 153.883 323.393 154.248 322.658H154.324V324H156.191V317.48C156.191 314.623 153.941 314.054 152.381 314.054C150.604 314.054 148.968 314.77 148.329 316.56L150.125 316.969C150.406 316.272 151.122 315.601 152.407 315.601C153.64 315.601 154.273 316.246 154.273 317.359V317.403C154.273 318.1 153.557 318.087 151.793 318.292C149.933 318.509 148.028 318.995 148.028 321.226C148.028 323.156 149.479 324.217 151.346 324.217ZM151.761 322.683C150.681 322.683 149.901 322.197 149.901 321.251C149.901 320.229 150.809 319.864 151.914 319.717C152.534 319.634 154.005 319.468 154.28 319.193V320.459C154.28 321.622 153.353 322.683 151.761 322.683ZM158.466 324H160.378V318.004C160.378 316.719 161.368 315.793 162.723 315.793C163.12 315.793 163.567 315.863 163.721 315.908V314.08C163.529 314.054 163.152 314.035 162.909 314.035C161.758 314.035 160.774 314.687 160.416 315.741H160.314V314.182H158.466V324ZM168.889 324.198C171.656 324.198 173.465 322.172 173.465 319.136C173.465 316.08 171.656 314.054 168.889 314.054C166.121 314.054 164.312 316.08 164.312 319.136C164.312 322.172 166.121 324.198 168.889 324.198ZM168.895 322.594C167.086 322.594 166.242 321.015 166.242 319.129C166.242 317.25 167.086 315.652 168.895 315.652C170.691 315.652 171.535 317.25 171.535 319.129C171.535 321.015 170.691 322.594 168.895 322.594ZM185.064 310.909V320.19C185.057 321.699 184.354 322.504 183.101 322.504C181.945 322.504 181.139 321.814 181.133 320.727H179.17C179.17 322.939 180.832 324.179 183.05 324.179C185.454 324.179 187.026 322.709 187.033 320.19V310.909H185.064ZM192.341 324.217C193.965 324.217 194.879 323.393 195.243 322.658H195.32V324H197.186V317.48C197.186 314.623 194.936 314.054 193.377 314.054C191.6 314.054 189.963 314.77 189.324 316.56L191.12 316.969C191.402 316.272 192.118 315.601 193.402 315.601C194.636 315.601 195.269 316.246 195.269 317.359V317.403C195.269 318.1 194.553 318.087 192.789 318.292C190.929 318.509 189.024 318.995 189.024 321.226C189.024 323.156 190.475 324.217 192.341 324.217ZM192.757 322.683C191.676 322.683 190.897 322.197 190.897 321.251C190.897 320.229 191.804 319.864 192.91 319.717C193.53 319.634 195 319.468 195.275 319.193V320.459C195.275 321.622 194.348 322.683 192.757 322.683ZM207.51 314.182H205.458L202.978 321.737H202.875L200.389 314.182H198.337L201.904 324H203.949L207.51 314.182ZM211.594 324.217C213.218 324.217 214.132 323.393 214.496 322.658H214.573V324H216.439V317.48C216.439 314.623 214.189 314.054 212.63 314.054C210.853 314.054 209.216 314.77 208.577 316.56L210.373 316.969C210.655 316.272 211.371 315.601 212.655 315.601C213.889 315.601 214.522 316.246 214.522 317.359V317.403C214.522 318.1 213.806 318.087 212.042 318.292C210.182 318.509 208.277 318.995 208.277 321.226C208.277 323.156 209.728 324.217 211.594 324.217ZM212.01 322.683C210.929 322.683 210.15 322.197 210.15 321.251C210.15 320.229 211.057 319.864 212.163 319.717C212.783 319.634 214.253 319.468 214.528 319.193V320.459C214.528 321.622 213.601 322.683 212.01 322.683ZM226.008 314.348H227.913C227.856 312.251 226.002 310.73 223.343 310.73C220.716 310.73 218.702 312.232 218.702 314.489C218.702 316.31 220.006 317.378 222.109 317.947L223.656 318.369C225.056 318.739 226.136 319.2 226.136 320.363C226.136 321.641 224.915 322.485 223.234 322.485C221.713 322.485 220.447 321.808 220.332 320.382H218.351C218.479 322.754 220.313 324.217 223.247 324.217C226.322 324.217 228.092 322.6 228.092 320.382C228.092 318.023 225.989 317.109 224.327 316.7L223.049 316.368C222.026 316.106 220.665 315.626 220.671 314.374C220.671 313.261 221.687 312.437 223.298 312.437C224.8 312.437 225.868 313.14 226.008 314.348ZM234.165 324.198C236.485 324.198 237.987 322.805 238.198 320.893H236.338C236.095 321.955 235.27 322.581 234.177 322.581C232.56 322.581 231.518 321.232 231.518 319.091C231.518 316.988 232.579 315.665 234.177 315.665C235.392 315.665 236.133 316.432 236.338 317.352H238.198C237.994 315.371 236.376 314.054 234.145 314.054C231.378 314.054 229.588 316.138 229.588 319.136C229.588 322.095 231.314 324.198 234.165 324.198ZM239.972 324H241.883V318.004C241.883 316.719 242.874 315.793 244.229 315.793C244.625 315.793 245.073 315.863 245.226 315.908V314.08C245.034 314.054 244.657 314.035 244.414 314.035C243.264 314.035 242.279 314.687 241.921 315.741H241.819V314.182H239.972V324ZM246.61 324H248.521V314.182H246.61V324ZM247.575 312.667C248.234 312.667 248.783 312.156 248.783 311.529C248.783 310.903 248.234 310.385 247.575 310.385C246.911 310.385 246.367 310.903 246.367 311.529C246.367 312.156 246.911 312.667 247.575 312.667ZM250.823 327.682H252.734V322.472H252.849C253.194 323.099 253.897 324.192 255.687 324.192C258.065 324.192 259.791 322.287 259.791 319.11C259.791 315.927 258.039 314.054 255.668 314.054C253.846 314.054 253.188 315.166 252.849 315.773H252.689V314.182H250.823V327.682ZM252.695 319.091C252.695 317.039 253.59 315.678 255.259 315.678C256.991 315.678 257.86 317.141 257.86 319.091C257.86 321.06 256.965 322.562 255.259 322.562C253.616 322.562 252.695 321.156 252.695 319.091ZM266.245 314.182H264.232V311.83H262.32V314.182H260.882V315.716H262.32V321.513C262.314 323.297 263.675 324.16 265.184 324.128C265.791 324.121 266.2 324.006 266.424 323.923L266.079 322.344C265.951 322.37 265.714 322.428 265.408 322.428C264.788 322.428 264.232 322.223 264.232 321.117V315.716H266.245V314.182ZM273.842 324L275.044 320.536H280.157L281.353 324H283.449L278.738 310.909H276.456L271.745 324H273.842ZM275.619 318.874L277.549 313.287H277.652L279.582 318.874H275.619ZM288.875 327.886C291.374 327.886 293.304 326.742 293.304 324.217V314.182H291.431V315.773H291.291C290.952 315.166 290.274 314.054 288.446 314.054C286.075 314.054 284.33 315.927 284.33 319.053C284.33 322.185 286.113 323.853 288.434 323.853C290.236 323.853 290.933 322.837 291.278 322.21H291.399V324.141C291.399 325.681 290.345 326.346 288.894 326.346C287.302 326.346 286.682 325.547 286.343 324.984L284.701 325.662C285.218 326.864 286.529 327.886 288.875 327.886ZM288.855 322.268C287.149 322.268 286.26 320.957 286.26 319.027C286.26 317.141 287.13 315.678 288.855 315.678C290.524 315.678 291.419 317.039 291.419 319.027C291.419 321.053 290.505 322.268 288.855 322.268ZM299.829 324.198C301.97 324.198 303.485 323.143 303.92 321.545L302.111 321.219C301.766 322.146 300.935 322.619 299.848 322.619C298.212 322.619 297.112 321.558 297.061 319.666H304.041V318.989C304.041 315.441 301.919 314.054 299.695 314.054C296.959 314.054 295.156 316.138 295.156 319.155C295.156 322.204 296.933 324.198 299.829 324.198ZM297.068 318.234C297.144 316.841 298.154 315.633 299.708 315.633C301.191 315.633 302.162 316.732 302.169 318.234H297.068ZM307.803 318.17C307.803 316.604 308.762 315.71 310.092 315.71C311.389 315.71 312.175 316.56 312.175 317.985V324H314.087V317.755C314.087 315.326 312.751 314.054 310.744 314.054C309.267 314.054 308.302 314.738 307.848 315.78H307.727V314.182H305.892V324H307.803V318.17ZM320.963 314.182H318.949V311.83H317.038V314.182H315.6V315.716H317.038V321.513C317.032 323.297 318.393 324.16 319.902 324.128C320.509 324.121 320.918 324.006 321.142 323.923L320.797 322.344C320.669 322.37 320.432 322.428 320.126 322.428C319.506 322.428 318.949 322.223 318.949 321.117V315.716H320.963V314.182Z" fill="black"/>
<path d="M129.177 119H131.275L133.209 112.343H133.288L135.227 119H137.325L140.239 108.818H137.887L136.202 115.908H136.112L134.258 108.818H132.244L130.385 115.893H130.3L128.615 108.818H126.263L129.177 119ZM141.181 119H148.061V117.225H143.334V114.794H147.689V113.019H143.334V110.593H148.042V108.818H141.181V119ZM149.543 119H153.893C156.18 119 157.398 117.807 157.398 116.186C157.398 114.68 156.319 113.77 155.161 113.715V113.616C156.22 113.377 157 112.626 157 111.428C157 109.902 155.867 108.818 153.62 108.818H149.543V119ZM151.696 117.24V114.536H153.5C154.535 114.536 155.176 115.132 155.176 115.972C155.176 116.738 154.654 117.24 153.451 117.24H151.696ZM151.696 113.079V110.558H153.331C154.286 110.558 154.828 111.05 154.828 111.786C154.828 112.592 154.172 113.079 153.292 113.079H151.696ZM163.374 119L164.13 116.678H167.804L168.56 119H170.866L167.356 108.818H164.582L161.067 119H163.374ZM164.677 114.998L165.93 111.145H166.009L167.262 114.998H164.677ZM171.882 119H174.035V115.699H175.844C178.186 115.699 179.548 114.302 179.548 112.268C179.548 110.245 178.211 108.818 175.899 108.818H171.882V119ZM174.035 113.974V110.578H175.486C176.729 110.578 177.331 111.254 177.331 112.268C177.331 113.278 176.729 113.974 175.496 113.974H174.035ZM180.736 119H182.889V115.699H184.699C187.04 115.699 188.402 114.302 188.402 112.268C188.402 110.245 187.065 108.818 184.753 108.818H180.736V119ZM182.889 113.974V110.578H184.341C185.584 110.578 186.185 111.254 186.185 112.268C186.185 113.278 185.584 113.974 184.351 113.974H182.889ZM189.591 119H196.108V117.225H191.743V108.818H189.591V119ZM199.477 108.818H197.324V119H199.477V108.818ZM210.022 112.383C209.738 110.031 207.958 108.679 205.602 108.679C202.912 108.679 200.859 110.578 200.859 113.909C200.859 117.23 202.877 119.139 205.602 119.139C208.212 119.139 209.788 117.404 210.022 115.53L207.844 115.52C207.64 116.609 206.785 117.235 205.637 117.235C204.09 117.235 203.041 116.087 203.041 113.909C203.041 111.791 204.076 110.583 205.652 110.583C206.83 110.583 207.68 111.264 207.844 112.383H210.022ZM212.919 119L213.675 116.678H217.349L218.104 119H220.411L216.901 108.818H214.127L210.612 119H212.919ZM214.221 114.998L215.474 111.145H215.554L216.807 114.998H214.221ZM219.781 110.593H222.898V119H225.026V110.593H228.143V108.818H219.781V110.593ZM231.463 108.818H229.31V119H231.463V108.818ZM242.381 113.909C242.381 110.578 240.312 108.679 237.613 108.679C234.898 108.679 232.845 110.578 232.845 113.909C232.845 117.225 234.898 119.139 237.613 119.139C240.312 119.139 242.381 117.24 242.381 113.909ZM240.198 113.909C240.198 116.067 239.174 117.235 237.613 117.235C236.047 117.235 235.028 116.067 235.028 113.909C235.028 111.751 236.047 110.583 237.613 110.583C239.174 110.583 240.198 111.751 240.198 113.909ZM252.282 108.818H250.139V115.222H250.049L245.654 108.818H243.765V119H245.918V112.592H245.993L250.422 119H252.282V108.818Z" fill="black"/>
<path d="M751.636 18.1094H753.824C753.545 16.0959 751.771 14.679 749.469 14.679C746.779 14.679 744.706 16.6179 744.706 19.919C744.706 23.1406 746.645 25.1392 749.513 25.1392C752.084 25.1392 753.918 23.5135 753.918 20.8338V19.5511H749.658V21.1719H751.845C751.815 22.4347 750.955 23.2351 749.523 23.2351C747.908 23.2351 746.888 22.027 746.888 19.8991C746.888 17.7812 747.947 16.5831 749.504 16.5831C750.612 16.5831 751.363 17.1548 751.636 18.1094ZM755.325 25H757.478V21.3906H759.049L760.978 25H763.354L761.192 21.0426C762.35 20.5455 762.992 19.5362 762.992 18.1442C762.992 16.1207 761.654 14.8182 759.342 14.8182H755.325V25ZM757.478 19.6605V16.5781H758.93C760.173 16.5781 760.774 17.13 760.774 18.1442C760.774 19.1534 760.173 19.6605 758.94 19.6605H757.478ZM766.058 25L766.813 22.6783H770.487L771.243 25H773.55L770.04 14.8182H767.266L763.751 25H766.058ZM767.36 20.9979L768.613 17.1449H768.693L769.946 20.9979H767.36ZM774.565 25H776.718V20.794H780.86V19.0192H776.718V16.593H781.307V14.8182H774.565V25ZM783.028 25L783.784 22.6783H787.458L788.214 25H790.521L787.011 14.8182H784.237L780.722 25H783.028ZM784.331 20.9979L785.584 17.1449H785.663L786.916 20.9979H784.331ZM800.052 14.8182H797.91V21.2216H797.82L793.425 14.8182H791.536V25H793.689V18.5916H793.763L798.193 25H800.052V14.8182ZM803.376 25L804.132 22.6783H807.806L808.561 25H810.868L807.358 14.8182H804.584L801.069 25H803.376ZM804.679 20.9979L805.931 17.1449H806.011L807.264 20.9979H804.679ZM823.898 18.3828C823.614 16.0312 821.834 14.679 819.478 14.679C816.788 14.679 814.735 16.5781 814.735 19.9091C814.735 23.2301 816.753 25.1392 819.478 25.1392C822.088 25.1392 823.664 23.4041 823.898 21.5298L821.72 21.5199C821.516 22.6087 820.661 23.2351 819.513 23.2351C817.966 23.2351 816.917 22.0866 816.917 19.9091C816.917 17.7912 817.952 16.5831 819.528 16.5831C820.706 16.5831 821.556 17.2642 821.72 18.3828H823.898ZM825.231 25H831.749V23.2251H827.384V14.8182H825.231V25ZM841.925 19.9091C841.925 16.5781 839.857 14.679 837.157 14.679C834.442 14.679 832.389 16.5781 832.389 19.9091C832.389 23.2251 834.442 25.1392 837.157 25.1392C839.857 25.1392 841.925 23.2401 841.925 19.9091ZM839.742 19.9091C839.742 22.0668 838.718 23.2351 837.157 23.2351C835.591 23.2351 834.572 22.0668 834.572 19.9091C834.572 17.7514 835.591 16.5831 837.157 16.5831C838.718 16.5831 839.742 17.7514 839.742 19.9091ZM849.598 14.8182V21.2464C849.598 22.4098 848.783 23.25 847.53 23.25C846.282 23.25 845.462 22.4098 845.462 21.2464V14.8182H843.309V21.4304C843.309 23.6577 844.99 25.1442 847.53 25.1442C850.061 25.1442 851.751 23.6577 851.751 21.4304V14.8182H849.598ZM856.922 25C860.024 25 861.903 23.081 861.903 19.8991C861.903 16.7273 860.024 14.8182 856.951 14.8182H853.312V25H856.922ZM855.465 23.1555V16.6626H856.837C858.746 16.6626 859.755 17.6371 859.755 19.8991C859.755 22.1712 858.746 23.1555 856.832 23.1555H855.465Z" fill="black"/>
<path d="M466.707 227.707C467.098 227.317 467.098 226.683 466.707 226.293L460.343 219.929C459.953 219.538 459.319 219.538 458.929 219.929C458.538 220.319 458.538 220.953 458.929 221.343L464.586 227L458.929 232.657C458.538 233.047 458.538 233.681 458.929 234.071C459.319 234.462 459.953 234.462 460.343 234.071L466.707 227.707ZM258 228L466 228V226L258 226V228Z" fill="#A0A0B1"/>
<rect x="279" y="200" width="155" height="55" rx="27.5" fill="white"/>
<path d="M313.455 208.273H312.181V217H313.455V208.273ZM317.926 217.132C319.771 217.132 320.977 215.781 320.977 213.757C320.977 211.72 319.771 210.369 317.926 210.369C316.081 210.369 314.875 211.72 314.875 213.757C314.875 215.781 316.081 217.132 317.926 217.132ZM317.93 216.062C316.724 216.062 316.162 215.01 316.162 213.753C316.162 212.5 316.724 211.435 317.93 211.435C319.128 211.435 319.69 212.5 319.69 213.753C319.69 215.01 319.128 216.062 317.93 216.062ZM325.144 219.591C326.81 219.591 328.097 218.828 328.097 217.145V210.455H326.848V211.516H326.755C326.529 211.111 326.077 210.369 324.858 210.369C323.277 210.369 322.114 211.618 322.114 213.702C322.114 215.79 323.303 216.902 324.85 216.902C326.051 216.902 326.516 216.224 326.746 215.807H326.827V217.094C326.827 218.121 326.124 218.564 325.157 218.564C324.096 218.564 323.682 218.031 323.456 217.656L322.361 218.108C322.706 218.909 323.58 219.591 325.144 219.591ZM325.131 215.845C323.993 215.845 323.401 214.972 323.401 213.685C323.401 212.428 323.98 211.452 325.131 211.452C326.243 211.452 326.84 212.359 326.84 213.685C326.84 215.036 326.23 215.845 325.131 215.845ZM334.711 212.053C334.446 211.034 333.65 210.369 332.235 210.369C330.756 210.369 329.708 211.149 329.708 212.308C329.708 213.237 330.27 213.855 331.498 214.128L332.605 214.371C333.236 214.511 333.53 214.793 333.53 215.202C333.53 215.709 332.989 216.105 332.154 216.105C331.391 216.105 330.901 215.777 330.748 215.134L329.516 215.321C329.729 216.48 330.692 217.132 332.162 217.132C333.743 217.132 334.838 216.293 334.838 215.108C334.838 214.183 334.25 213.612 333.049 213.335L332.009 213.097C331.289 212.926 330.978 212.683 330.982 212.24C330.978 211.737 331.523 211.379 332.248 211.379C333.04 211.379 333.407 211.818 333.556 212.257L334.711 212.053ZM337.897 215.807H336.67L336.627 216.284C336.529 217.439 336.256 218.602 336.141 219.131H337.045C337.249 218.572 337.701 217.294 337.833 216.271L337.897 215.807ZM345.553 217.132C346.98 217.132 347.99 216.429 348.28 215.364L347.074 215.146C346.844 215.764 346.29 216.08 345.565 216.08C344.474 216.08 343.741 215.372 343.707 214.111H348.361V213.659C348.361 211.294 346.946 210.369 345.463 210.369C343.639 210.369 342.438 211.759 342.438 213.77C342.438 215.803 343.622 217.132 345.553 217.132ZM343.712 213.156C343.763 212.227 344.436 211.422 345.472 211.422C346.46 211.422 347.108 212.155 347.112 213.156H343.712ZM350.628 210.455H349.23L351.241 213.727L349.205 217H350.602L352.072 214.554L353.547 217H354.94L352.882 213.727L354.923 210.455H353.53L352.072 213.003L350.628 210.455ZM358.719 217.132C360.266 217.132 361.267 216.203 361.408 214.929H360.168C360.006 215.636 359.456 216.054 358.728 216.054C357.65 216.054 356.955 215.155 356.955 213.727C356.955 212.325 357.662 211.443 358.728 211.443C359.537 211.443 360.032 211.955 360.168 212.568H361.408C361.272 211.247 360.194 210.369 358.706 210.369C356.861 210.369 355.668 211.759 355.668 213.757C355.668 215.73 356.819 217.132 358.719 217.132ZM365.592 217.132C367.019 217.132 368.029 216.429 368.319 215.364L367.113 215.146C366.883 215.764 366.329 216.08 365.604 216.08C364.513 216.08 363.781 215.372 363.746 214.111H368.4V213.659C368.4 211.294 366.985 210.369 365.502 210.369C363.678 210.369 362.477 211.759 362.477 213.77C362.477 215.803 363.661 217.132 365.592 217.132ZM363.751 213.156C363.802 212.227 364.475 211.422 365.511 211.422C366.499 211.422 367.147 212.155 367.151 213.156H363.751ZM369.814 219.455H371.088V215.982H371.164C371.395 216.399 371.863 217.128 373.056 217.128C374.642 217.128 375.792 215.858 375.792 213.74C375.792 211.618 374.625 210.369 373.044 210.369C371.829 210.369 371.39 211.111 371.164 211.516H371.058V210.455H369.814V219.455ZM371.062 213.727C371.062 212.359 371.659 211.452 372.771 211.452C373.926 211.452 374.505 212.428 374.505 213.727C374.505 215.04 373.909 216.041 372.771 216.041C371.676 216.041 371.062 215.104 371.062 213.727ZM380.275 210.455H378.933V208.886H377.659V210.455H376.7V211.477H377.659V215.342C377.654 216.531 378.562 217.107 379.568 217.085C379.973 217.081 380.245 217.004 380.395 216.949L380.164 215.896C380.079 215.913 379.922 215.952 379.717 215.952C379.304 215.952 378.933 215.815 378.933 215.078V211.477H380.275V210.455ZM381.685 217H382.959V210.455H381.685V217ZM382.328 209.445C382.767 209.445 383.134 209.104 383.134 208.686C383.134 208.268 382.767 207.923 382.328 207.923C381.885 207.923 381.523 208.268 381.523 208.686C381.523 209.104 381.885 209.445 382.328 209.445ZM387.43 217.132C389.275 217.132 390.481 215.781 390.481 213.757C390.481 211.72 389.275 210.369 387.43 210.369C385.585 210.369 384.379 211.72 384.379 213.757C384.379 215.781 385.585 217.132 387.43 217.132ZM387.434 216.062C386.228 216.062 385.666 215.01 385.666 213.753C385.666 212.5 386.228 211.435 387.434 211.435C388.632 211.435 389.194 212.5 389.194 213.753C389.194 215.01 388.632 216.062 387.434 216.062ZM393.178 213.114C393.178 212.07 393.817 211.473 394.703 211.473C395.568 211.473 396.092 212.04 396.092 212.99V217H397.366V212.837C397.366 211.217 396.476 210.369 395.138 210.369C394.153 210.369 393.51 210.825 393.207 211.52H393.126V210.455H391.903V217H393.178V213.114ZM400.733 215.807H399.506L399.463 216.284C399.365 217.439 399.092 218.602 398.977 219.131H399.881C400.085 218.572 400.537 217.294 400.669 216.271L400.733 215.807ZM289.118 232H290.392V227.964C290.392 227.082 291.01 226.469 291.735 226.469C292.442 226.469 292.932 226.938 292.932 227.649V232H294.202V227.828C294.202 227.04 294.684 226.469 295.515 226.469C296.188 226.469 296.742 226.844 296.742 227.73V232H298.016V227.611C298.016 226.115 297.181 225.369 295.996 225.369C295.054 225.369 294.347 225.821 294.032 226.52H293.963C293.678 225.804 293.077 225.369 292.203 225.369C291.338 225.369 290.695 225.8 290.422 226.52H290.341V225.455H289.118V232ZM302.545 232.132C303.972 232.132 304.982 231.429 305.272 230.364L304.066 230.146C303.836 230.764 303.282 231.08 302.558 231.08C301.467 231.08 300.734 230.372 300.7 229.111H305.353V228.659C305.353 226.294 303.938 225.369 302.455 225.369C300.631 225.369 299.43 226.759 299.43 228.77C299.43 230.803 300.614 232.132 302.545 232.132ZM300.704 228.156C300.755 227.227 301.428 226.422 302.464 226.422C303.452 226.422 304.1 227.155 304.104 228.156H300.704ZM308.672 232.145C309.754 232.145 310.363 231.595 310.606 231.105H310.657V232H311.902V227.653C311.902 225.749 310.402 225.369 309.362 225.369C308.177 225.369 307.086 225.847 306.66 227.04L307.858 227.312C308.045 226.848 308.522 226.401 309.379 226.401C310.201 226.401 310.623 226.831 310.623 227.572V227.602C310.623 228.067 310.146 228.058 308.97 228.195C307.73 228.339 306.46 228.663 306.46 230.151C306.46 231.438 307.427 232.145 308.672 232.145ZM308.949 231.122C308.228 231.122 307.708 230.798 307.708 230.168C307.708 229.486 308.314 229.243 309.051 229.145C309.464 229.089 310.444 228.979 310.627 228.795V229.639C310.627 230.415 310.01 231.122 308.949 231.122ZM318.504 227.053C318.239 226.034 317.442 225.369 316.028 225.369C314.549 225.369 313.501 226.149 313.501 227.308C313.501 228.237 314.063 228.855 315.29 229.128L316.398 229.371C317.029 229.511 317.323 229.793 317.323 230.202C317.323 230.709 316.782 231.105 315.947 231.105C315.184 231.105 314.694 230.777 314.54 230.134L313.309 230.321C313.522 231.48 314.485 232.132 315.955 232.132C317.536 232.132 318.631 231.293 318.631 230.108C318.631 229.183 318.043 228.612 316.842 228.335L315.802 228.097C315.082 227.926 314.771 227.683 314.775 227.24C314.771 226.737 315.316 226.379 316.04 226.379C316.833 226.379 317.2 226.818 317.349 227.257L318.504 227.053ZM324.179 229.286C324.183 230.398 323.356 230.926 322.64 230.926C321.852 230.926 321.306 230.355 321.306 229.464V225.455H320.032V229.618C320.032 231.241 320.923 232.085 322.18 232.085C323.164 232.085 323.833 231.565 324.136 230.866H324.204V232H325.457V225.455H324.179V229.286ZM327.169 232H328.443V228.003C328.443 227.146 329.104 226.528 330.007 226.528C330.271 226.528 330.57 226.575 330.672 226.605V225.386C330.544 225.369 330.293 225.357 330.131 225.357C329.364 225.357 328.707 225.791 328.469 226.494H328.401V225.455H327.169V232ZM334.361 232.132C335.789 232.132 336.799 231.429 337.088 230.364L335.882 230.146C335.652 230.764 335.098 231.08 334.374 231.08C333.283 231.08 332.55 230.372 332.516 229.111H337.169V228.659C337.169 226.294 335.755 225.369 334.272 225.369C332.448 225.369 331.246 226.759 331.246 228.77C331.246 230.803 332.431 232.132 334.361 232.132ZM332.52 228.156C332.571 227.227 333.245 226.422 334.28 226.422C335.269 226.422 335.917 227.155 335.921 228.156H332.52ZM338.583 232H339.857V227.964C339.857 227.082 340.475 226.469 341.2 226.469C341.907 226.469 342.397 226.938 342.397 227.649V232H343.667V227.828C343.667 227.04 344.148 226.469 344.979 226.469C345.653 226.469 346.207 226.844 346.207 227.73V232H347.481V227.611C347.481 226.115 346.646 225.369 345.461 225.369C344.519 225.369 343.812 225.821 343.496 226.52H343.428C343.143 225.804 342.542 225.369 341.668 225.369C340.803 225.369 340.16 225.8 339.887 226.52H339.806V225.455H338.583V232ZM352.01 232.132C353.437 232.132 354.447 231.429 354.737 230.364L353.531 230.146C353.301 230.764 352.747 231.08 352.022 231.08C350.931 231.08 350.199 230.372 350.164 229.111H354.818V228.659C354.818 226.294 353.403 225.369 351.92 225.369C350.096 225.369 348.895 226.759 348.895 228.77C348.895 230.803 350.079 232.132 352.01 232.132ZM350.169 228.156C350.22 227.227 350.893 226.422 351.929 226.422C352.917 226.422 353.565 227.155 353.569 228.156H350.169ZM357.506 228.114C357.506 227.07 358.145 226.473 359.031 226.473C359.896 226.473 360.42 227.04 360.42 227.99V232H361.695V227.837C361.695 226.217 360.804 225.369 359.466 225.369C358.482 225.369 357.838 225.825 357.536 226.52H357.455V225.455H356.232V232H357.506V228.114ZM366.459 225.455H365.116V223.886H363.842V225.455H362.884V226.477H363.842V230.342C363.838 231.531 364.746 232.107 365.751 232.085C366.156 232.081 366.429 232.004 366.578 231.949L366.348 230.896C366.263 230.913 366.105 230.952 365.901 230.952C365.487 230.952 365.116 230.815 365.116 230.078V226.477H366.459V225.455ZM372.668 227.053C372.403 226.034 371.607 225.369 370.192 225.369C368.713 225.369 367.665 226.149 367.665 227.308C367.665 228.237 368.227 228.855 369.455 229.128L370.562 229.371C371.193 229.511 371.487 229.793 371.487 230.202C371.487 230.709 370.946 231.105 370.111 231.105C369.348 231.105 368.858 230.777 368.705 230.134L367.473 230.321C367.686 231.48 368.649 232.132 370.119 232.132C371.7 232.132 372.795 231.293 372.795 230.108C372.795 229.183 372.207 228.612 371.006 228.335L369.966 228.097C369.246 227.926 368.935 227.683 368.939 227.24C368.935 226.737 369.48 226.379 370.205 226.379C370.997 226.379 371.364 226.818 371.513 227.257L372.668 227.053ZM375.854 230.807H374.627L374.584 231.284C374.486 232.439 374.213 233.602 374.098 234.131H375.002C375.206 233.572 375.658 232.294 375.79 231.271L375.854 230.807ZM383.51 232.132C384.937 232.132 385.947 231.429 386.237 230.364L385.031 230.146C384.801 230.764 384.247 231.08 383.522 231.08C382.431 231.08 381.699 230.372 381.664 229.111H386.318V228.659C386.318 226.294 384.903 225.369 383.42 225.369C381.596 225.369 380.395 226.759 380.395 228.77C380.395 230.803 381.579 232.132 383.51 232.132ZM381.669 228.156C381.72 227.227 382.393 226.422 383.429 226.422C384.417 226.422 385.065 227.155 385.069 228.156H381.669ZM393.132 225.455H391.764L390.11 230.491H390.042L388.385 225.455H387.017L389.395 232H390.758L393.132 225.455ZM396.916 232.132C398.343 232.132 399.353 231.429 399.643 230.364L398.437 230.146C398.207 230.764 397.653 231.08 396.929 231.08C395.838 231.08 395.105 230.372 395.071 229.111H399.724V228.659C399.724 226.294 398.309 225.369 396.826 225.369C395.002 225.369 393.801 226.759 393.801 228.77C393.801 230.803 394.985 232.132 396.916 232.132ZM395.075 228.156C395.126 227.227 395.799 226.422 396.835 226.422C397.824 226.422 398.471 227.155 398.475 228.156H395.075ZM402.412 228.114C402.412 227.07 403.051 226.473 403.938 226.473C404.803 226.473 405.327 227.04 405.327 227.99V232H406.601V227.837C406.601 226.217 405.71 225.369 404.372 225.369C403.388 225.369 402.744 225.825 402.442 226.52H402.361V225.455H401.138V232H402.412V228.114ZM411.365 225.455H410.023V223.886H408.749V225.455H407.79V226.477H408.749V230.342C408.744 231.531 409.652 232.107 410.658 232.085C411.062 232.081 411.335 232.004 411.484 231.949L411.254 230.896C411.169 230.913 411.011 230.952 410.807 230.952C410.393 230.952 410.023 230.815 410.023 230.078V226.477H411.365V225.455ZM417.574 227.053C417.31 226.034 416.513 225.369 415.098 225.369C413.619 225.369 412.571 226.149 412.571 227.308C412.571 228.237 413.134 228.855 414.361 229.128L415.469 229.371C416.099 229.511 416.393 229.793 416.393 230.202C416.393 230.709 415.852 231.105 415.017 231.105C414.254 231.105 413.764 230.777 413.611 230.134L412.379 230.321C412.592 231.48 413.555 232.132 415.026 232.132C416.607 232.132 417.702 231.293 417.702 230.108C417.702 229.183 417.114 228.612 415.912 228.335L414.872 228.097C414.152 227.926 413.841 227.683 413.845 227.24C413.841 226.737 414.386 226.379 415.111 226.379C415.903 226.379 416.27 226.818 416.419 227.257L417.574 227.053ZM420.76 230.807H419.533L419.49 231.284C419.392 232.439 419.12 233.602 419.005 234.131H419.908C420.113 233.572 420.564 232.294 420.696 231.271L420.76 230.807ZM314.756 240.455H313.413V238.886H312.139V240.455H311.18V241.477H312.139V245.342C312.135 246.531 313.043 247.107 314.048 247.085C314.453 247.081 314.726 247.004 314.875 246.949L314.645 245.896C314.56 245.913 314.402 245.952 314.197 245.952C313.784 245.952 313.413 245.815 313.413 245.078V241.477H314.756V240.455ZM316.165 247H317.439V243.003C317.439 242.146 318.1 241.528 319.003 241.528C319.267 241.528 319.566 241.575 319.668 241.605V240.386C319.54 240.369 319.289 240.357 319.127 240.357C318.36 240.357 317.703 240.791 317.465 241.494H317.397V240.455H316.165V247ZM322.617 247.145C323.699 247.145 324.309 246.595 324.551 246.105H324.603V247H325.847V242.653C325.847 240.749 324.347 240.369 323.307 240.369C322.123 240.369 321.032 240.847 320.605 242.04L321.803 242.312C321.99 241.848 322.468 241.401 323.324 241.401C324.147 241.401 324.569 241.831 324.569 242.572V242.602C324.569 243.067 324.091 243.058 322.915 243.195C321.675 243.339 320.405 243.663 320.405 245.151C320.405 246.438 321.373 247.145 322.617 247.145ZM322.894 246.122C322.174 246.122 321.654 245.798 321.654 245.168C321.654 244.486 322.259 244.243 322.996 244.145C323.409 244.089 324.39 243.979 324.573 243.795V244.639C324.573 245.415 323.955 246.122 322.894 246.122ZM330.301 247.132C331.848 247.132 332.849 246.203 332.99 244.929H331.75C331.588 245.636 331.038 246.054 330.31 246.054C329.232 246.054 328.537 245.155 328.537 243.727C328.537 242.325 329.244 241.443 330.31 241.443C331.119 241.443 331.614 241.955 331.75 242.568H332.99C332.854 241.247 331.776 240.369 330.288 240.369C328.443 240.369 327.25 241.759 327.25 243.757C327.25 245.73 328.401 247.132 330.301 247.132ZM337.174 247.132C338.601 247.132 339.611 246.429 339.901 245.364L338.695 245.146C338.465 245.764 337.911 246.08 337.186 246.08C336.096 246.08 335.363 245.372 335.328 244.111H339.982V243.659C339.982 241.294 338.567 240.369 337.084 240.369C335.26 240.369 334.059 241.759 334.059 243.77C334.059 245.803 335.243 247.132 337.174 247.132ZM335.333 243.156C335.384 242.227 336.057 241.422 337.093 241.422C338.081 241.422 338.729 242.155 338.733 243.156H335.333ZM346.3 242.053C346.036 241.034 345.239 240.369 343.825 240.369C342.346 240.369 341.298 241.149 341.298 242.308C341.298 243.237 341.86 243.855 343.087 244.128L344.195 244.371C344.826 244.511 345.12 244.793 345.12 245.202C345.12 245.709 344.579 246.105 343.744 246.105C342.981 246.105 342.491 245.777 342.337 245.134L341.106 245.321C341.319 246.48 342.282 247.132 343.752 247.132C345.333 247.132 346.428 246.293 346.428 245.108C346.428 244.183 345.84 243.612 344.638 243.335L343.599 243.097C342.879 242.926 342.567 242.683 342.572 242.24C342.567 241.737 343.113 241.379 343.837 241.379C344.63 241.379 344.996 241.818 345.146 242.257L346.3 242.053ZM356.604 240.455H355.237L353.583 245.491H353.515L351.857 240.455H350.489L352.867 247H354.231L356.604 240.455ZM357.802 247H359.076V240.455H357.802V247ZM358.445 239.445C358.884 239.445 359.251 239.104 359.251 238.686C359.251 238.268 358.884 237.923 358.445 237.923C358.002 237.923 357.64 238.268 357.64 238.686C357.64 239.104 358.002 239.445 358.445 239.445ZM362.695 247.145C363.777 247.145 364.387 246.595 364.63 246.105H364.681V247H365.925V242.653C365.925 240.749 364.425 240.369 363.385 240.369C362.201 240.369 361.11 240.847 360.684 242.04L361.881 242.312C362.069 241.848 362.546 241.401 363.402 241.401C364.225 241.401 364.647 241.831 364.647 242.572V242.602C364.647 243.067 364.169 243.058 362.993 243.195C361.753 243.339 360.483 243.663 360.483 245.151C360.483 246.438 361.451 247.145 362.695 247.145ZM362.972 246.122C362.252 246.122 361.732 245.798 361.732 245.168C361.732 244.486 362.337 244.243 363.074 244.145C363.488 244.089 364.468 243.979 364.651 243.795V244.639C364.651 245.415 364.033 246.122 362.972 246.122ZM370.9 247H372.217V243.195H376.568V247H377.889V238.273H376.568V242.065H372.217V238.273H370.9V247ZM379.376 239.406H382.095V247H383.407V239.406H386.13V238.273H379.376V239.406ZM387.192 239.406H389.911V247H391.224V239.406H393.947V238.273H387.192V239.406ZM395.439 247H396.756V243.932H398.546C400.57 243.932 401.571 242.709 401.571 241.098C401.571 239.491 400.578 238.273 398.55 238.273H395.439V247ZM396.756 242.815V239.402H398.409C399.713 239.402 400.246 240.109 400.246 241.098C400.246 242.087 399.713 242.815 398.426 242.815H396.756Z" fill="black"/>
<rect x="279" y="200" width="155" height="55" rx="27.5" stroke="#A0A0B1" stroke-width="2"/>
<circle cx="532.5" cy="227.5" r="66.5" fill="#FB9D5A"/>
<path d="M562 198.511L502 195.225V192.286L562 189V198.511Z" fill="white"/>
<path d="M562 212.207L502 208.92V205.982L562 202.696V212.207Z" fill="white"/>
<path d="M546.949 225.894L502 222.617V219.683L546.949 216.406V225.894Z" fill="white"/>
<path d="M546.949 239.594L502 236.317V233.383L546.949 230.106V239.594Z" fill="white"/>
<path d="M532 253.304L502 250.017V247.075L532 243.793V253.304Z" fill="white"/>
<path d="M532 267L502 263.713V260.775L532 257.489V267Z" fill="white"/>
<path d="M488.744 315.045H490.771C490.33 312.494 488.15 310.73 485.325 310.73C481.937 310.73 479.463 313.281 479.463 317.461C479.463 321.603 481.867 324.179 485.414 324.179C488.591 324.179 490.86 322.095 490.86 318.79V317.301H485.715V318.931H488.949C488.904 321.04 487.511 322.376 485.414 322.376C483.107 322.376 481.426 320.631 481.426 317.448C481.426 314.278 483.119 312.533 485.338 312.533C487.076 312.533 488.252 313.491 488.744 315.045ZM492.944 324H494.855V318.004C494.855 316.719 495.846 315.793 497.201 315.793C497.598 315.793 498.045 315.863 498.198 315.908V314.08C498.007 314.054 497.63 314.035 497.387 314.035C496.236 314.035 495.252 314.687 494.894 315.741H494.791V314.182H492.944V324ZM502.352 324.217C503.975 324.217 504.889 323.393 505.254 322.658H505.33V324H507.197V317.48C507.197 314.623 504.947 314.054 503.387 314.054C501.61 314.054 499.974 314.77 499.335 316.56L501.131 316.969C501.412 316.272 502.128 315.601 503.413 315.601C504.646 315.601 505.279 316.246 505.279 317.359V317.403C505.279 318.1 504.563 318.087 502.799 318.292C500.939 318.509 499.034 318.995 499.034 321.226C499.034 323.156 500.485 324.217 502.352 324.217ZM502.767 322.683C501.687 322.683 500.907 322.197 500.907 321.251C500.907 320.229 501.815 319.864 502.921 319.717C503.541 319.634 505.011 319.468 505.286 319.193V320.459C505.286 321.622 504.359 322.683 502.767 322.683ZM514.145 314.182H512.029V313.3C512.029 312.43 512.387 311.957 513.321 311.957C513.717 311.957 513.998 312.047 514.177 312.104L514.624 310.558C514.356 310.455 513.8 310.295 513.026 310.295C511.473 310.295 510.112 311.203 510.112 313.044V314.182H508.597V315.716H510.112V324H512.029V315.716H514.145V314.182ZM518.405 324.217C520.029 324.217 520.943 323.393 521.307 322.658H521.384V324H523.251V317.48C523.251 314.623 521.001 314.054 519.441 314.054C517.664 314.054 516.028 314.77 515.388 316.56L517.185 316.969C517.466 316.272 518.182 315.601 519.467 315.601C520.7 315.601 521.333 316.246 521.333 317.359V317.403C521.333 318.1 520.617 318.087 518.853 318.292C516.993 318.509 515.088 318.995 515.088 321.226C515.088 323.156 516.539 324.217 518.405 324.217ZM518.821 322.683C517.741 322.683 516.961 322.197 516.961 321.251C516.961 320.229 517.869 319.864 518.974 319.717C519.594 319.634 521.065 319.468 521.339 319.193V320.459C521.339 321.622 520.413 322.683 518.821 322.683ZM527.437 318.17C527.437 316.604 528.396 315.71 529.726 315.71C531.023 315.71 531.81 316.56 531.81 317.985V324H533.721V317.755C533.721 315.326 532.385 314.054 530.378 314.054C528.901 314.054 527.936 314.738 527.482 315.78H527.361V314.182H525.526V324H527.437V318.17ZM538.871 324.217C540.495 324.217 541.409 323.393 541.773 322.658H541.85V324H543.716V317.48C543.716 314.623 541.466 314.054 539.907 314.054C538.13 314.054 536.493 314.77 535.854 316.56L537.65 316.969C537.932 316.272 538.648 315.601 539.932 315.601C541.166 315.601 541.799 316.246 541.799 317.359V317.403C541.799 318.1 541.083 318.087 539.319 318.292C537.459 318.509 535.554 318.995 535.554 321.226C535.554 323.156 537.005 324.217 538.871 324.217ZM539.287 322.683C538.207 322.683 537.427 322.197 537.427 321.251C537.427 320.229 538.334 319.864 539.44 319.717C540.06 319.634 541.53 319.468 541.805 319.193V320.459C541.805 321.622 540.878 322.683 539.287 322.683ZM550.639 324H552.614V318.292H558.175V316.598H552.614V312.609H558.757V310.909H550.639V324ZM563.585 324.217C565.208 324.217 566.122 323.393 566.487 322.658H566.563V324H568.43V317.48C568.43 314.623 566.18 314.054 564.62 314.054C562.843 314.054 561.207 314.77 560.568 316.56L562.364 316.969C562.645 316.272 563.361 315.601 564.646 315.601C565.879 315.601 566.512 316.246 566.512 317.359V317.403C566.512 318.1 565.796 318.087 564.032 318.292C562.172 318.509 560.267 318.995 560.267 321.226C560.267 323.156 561.718 324.217 563.585 324.217ZM564 322.683C562.92 322.683 562.14 322.197 562.14 321.251C562.14 320.229 563.048 319.864 564.154 319.717C564.774 319.634 566.244 319.468 566.519 319.193V320.459C566.519 321.622 565.592 322.683 564 322.683ZM570.706 324H572.617V318.004C572.617 316.719 573.608 315.793 574.963 315.793C575.359 315.793 575.806 315.863 575.96 315.908V314.08C575.768 314.054 575.391 314.035 575.148 314.035C573.997 314.035 573.013 314.687 572.655 315.741H572.553V314.182H570.706V324ZM581.128 324.198C583.896 324.198 585.705 322.172 585.705 319.136C585.705 316.08 583.896 314.054 581.128 314.054C578.36 314.054 576.551 316.08 576.551 319.136C576.551 322.172 578.36 324.198 581.128 324.198ZM581.134 322.594C579.325 322.594 578.482 321.015 578.482 319.129C578.482 317.25 579.325 315.652 581.134 315.652C582.93 315.652 583.774 317.25 583.774 319.129C583.774 321.015 582.93 322.594 581.134 322.594ZM506.806 341.166C506.359 338.366 504.166 336.73 501.398 336.73C498.011 336.73 495.511 339.268 495.511 343.455C495.511 347.641 497.998 350.179 501.398 350.179C504.275 350.179 506.378 348.376 506.806 345.788L504.812 345.781C504.473 347.456 503.067 348.376 501.411 348.376C499.168 348.376 497.474 346.657 497.474 343.455C497.474 340.278 499.161 338.533 501.418 338.533C503.086 338.533 504.486 339.472 504.812 341.166H506.806ZM512.882 350.198C515.65 350.198 517.459 348.172 517.459 345.136C517.459 342.08 515.65 340.054 512.882 340.054C510.114 340.054 508.305 342.08 508.305 345.136C508.305 348.172 510.114 350.198 512.882 350.198ZM512.888 348.594C511.079 348.594 510.236 347.015 510.236 345.129C510.236 343.25 511.079 341.652 512.888 341.652C514.684 341.652 515.528 343.25 515.528 345.129C515.528 347.015 514.684 348.594 512.888 348.594ZM521.233 336.909H519.322V350H521.233V336.909ZM525.446 336.909H523.534V350H525.446V336.909ZM531.978 350.198C534.12 350.198 535.634 349.143 536.069 347.545L534.26 347.219C533.915 348.146 533.084 348.619 531.997 348.619C530.361 348.619 529.262 347.558 529.21 345.666H536.191V344.989C536.191 341.441 534.068 340.054 531.844 340.054C529.108 340.054 527.306 342.138 527.306 345.155C527.306 348.204 529.083 350.198 531.978 350.198ZM529.217 344.234C529.294 342.841 530.304 341.633 531.857 341.633C533.34 341.633 534.311 342.732 534.318 344.234H529.217ZM542.177 350.198C544.497 350.198 545.999 348.805 546.21 346.893H544.35C544.107 347.955 543.283 348.581 542.19 348.581C540.572 348.581 539.531 347.232 539.531 345.091C539.531 342.988 540.592 341.665 542.19 341.665C543.404 341.665 544.146 342.432 544.35 343.352H546.21C546.006 341.371 544.388 340.054 542.158 340.054C539.39 340.054 537.6 342.138 537.6 345.136C537.6 348.095 539.326 350.198 542.177 350.198ZM552.567 340.182H550.554V337.83H548.642V340.182H547.204V341.716H548.642V347.513C548.636 349.297 549.998 350.16 551.506 350.128C552.113 350.121 552.522 350.006 552.746 349.923L552.401 348.344C552.273 348.37 552.037 348.428 551.73 348.428C551.11 348.428 550.554 348.223 550.554 347.117V341.716H552.567V340.182ZM558.442 350.198C561.209 350.198 563.018 348.172 563.018 345.136C563.018 342.08 561.209 340.054 558.442 340.054C555.674 340.054 553.865 342.08 553.865 345.136C553.865 348.172 555.674 350.198 558.442 350.198ZM558.448 348.594C556.639 348.594 555.795 347.015 555.795 345.129C555.795 343.25 556.639 341.652 558.448 341.652C560.244 341.652 561.088 343.25 561.088 345.129C561.088 347.015 560.244 348.594 558.448 348.594ZM564.882 350H566.793V344.004C566.793 342.719 567.784 341.793 569.139 341.793C569.535 341.793 569.982 341.863 570.136 341.908V340.08C569.944 340.054 569.567 340.035 569.324 340.035C568.173 340.035 567.189 340.687 566.831 341.741H566.729V340.182H564.882V350Z" fill="black"/>
<path d="M847.46 223H855.367V221.3H849.436V209.909H847.46V223ZM861.333 223.198C864.101 223.198 865.91 221.172 865.91 218.136C865.91 215.08 864.101 213.054 861.333 213.054C858.565 213.054 856.756 215.08 856.756 218.136C856.756 221.172 858.565 223.198 861.333 223.198ZM861.339 221.594C859.53 221.594 858.686 220.015 858.686 218.129C858.686 216.25 859.53 214.652 861.339 214.652C863.135 214.652 863.979 216.25 863.979 218.129C863.979 220.015 863.135 221.594 861.339 221.594ZM871.889 226.886C874.389 226.886 876.319 225.742 876.319 223.217V213.182H874.446V214.773H874.306C873.967 214.166 873.289 213.054 871.461 213.054C869.09 213.054 867.345 214.927 867.345 218.053C867.345 221.185 869.128 222.853 871.448 222.853C873.251 222.853 873.948 221.837 874.293 221.21H874.414V223.141C874.414 224.681 873.359 225.346 871.909 225.346C870.317 225.346 869.697 224.547 869.358 223.984L867.715 224.662C868.233 225.864 869.543 226.886 871.889 226.886ZM871.87 221.268C870.163 221.268 869.275 219.957 869.275 218.027C869.275 216.141 870.144 214.678 871.87 214.678C873.538 214.678 874.433 216.039 874.433 218.027C874.433 220.053 873.519 221.268 871.87 221.268ZM885.969 215.579C885.573 214.051 884.378 213.054 882.256 213.054C880.038 213.054 878.465 214.224 878.465 215.962C878.465 217.356 879.309 218.283 881.15 218.692L882.812 219.056C883.758 219.267 884.199 219.689 884.199 220.303C884.199 221.063 883.387 221.658 882.134 221.658C880.99 221.658 880.255 221.165 880.025 220.2L878.178 220.482C878.497 222.22 879.942 223.198 882.147 223.198C884.518 223.198 886.161 221.939 886.161 220.162C886.161 218.775 885.279 217.918 883.477 217.503L881.917 217.145C880.837 216.889 880.37 216.525 880.376 215.86C880.37 215.106 881.188 214.569 882.275 214.569C883.464 214.569 884.014 215.227 884.237 215.886L885.969 215.579Z" fill="black"/>
<circle cx="866.5" cy="126.5" r="66.5" fill="#FB755A"/>
<path d="M854.934 156.12L854.13 150.777L848.64 151.511L849.516 157L854.934 156.12Z" fill="white"/>
<path d="M897.609 140.897L896.729 135.479L872.869 139.141L873.674 144.555L897.609 140.897Z" fill="white"/>
<path d="M865.184 145.875L870.598 145.07L869.793 139.652L864.304 140.532L865.184 145.875Z" fill="white"/>
<path d="M863.499 154.804L862.619 149.386L857.205 150.266L858.01 155.684L863.499 154.804Z" fill="white"/>
<path d="M847.396 143.092L848.201 148.51L853.619 147.706L852.81 142.217L847.396 143.092Z" fill="white"/>
<path d="M874.114 147.631L874.989 153.12L898.924 149.386L898.048 144.044L874.114 147.631Z" fill="white"/>
<path d="M866.5 154.364L871.918 153.56L871.038 148.071L865.695 148.951L866.5 154.364Z" fill="white"/>
<path d="M855.886 141.777L856.766 147.266L862.108 146.386L861.304 140.972L855.886 141.777Z" fill="white"/>
<path d="M849.227 139.728L842.565 96.2491L840.222 96.6891L846.956 140.017L849.227 139.728Z" fill="white"/>
<path d="M852.374 139.141L845.201 92.5869L842.858 93.0269L850.103 139.581L852.374 139.141Z" fill="white"/>
<path d="M857.788 138.408L850.179 89L847.836 89.3687L855.375 138.701L857.788 138.408Z" fill="white"/>
<path d="M860.864 137.896L853.912 92.8801L851.641 93.2489L858.593 138.261L860.864 137.896Z" fill="white"/>
<path d="M866.206 137.092L860.059 97.0537L857.788 97.4183L863.864 137.456L866.206 137.092Z" fill="white"/>
<path d="M869.354 136.581L862.913 95.0757L860.646 95.4444L867.087 136.87L869.354 136.581Z" fill="white"/>
<path d="M838.968 400.609H843.046V412H845.015V400.609H849.1V398.909H838.968V400.609ZM853.723 412.198C855.864 412.198 857.379 411.143 857.814 409.545L856.005 409.219C855.66 410.146 854.829 410.619 853.742 410.619C852.106 410.619 851.006 409.558 850.955 407.666H857.935V406.989C857.935 403.441 855.813 402.054 853.589 402.054C850.853 402.054 849.05 404.138 849.05 407.155C849.05 410.204 850.827 412.198 853.723 412.198ZM850.961 406.234C851.038 404.841 852.048 403.633 853.601 403.633C855.084 403.633 856.056 404.732 856.062 406.234H850.961ZM859.786 412H861.697V405.947C861.697 404.624 862.624 403.703 863.71 403.703C864.772 403.703 865.507 404.406 865.507 405.474V412H867.411V405.742C867.411 404.56 868.134 403.703 869.38 403.703C870.39 403.703 871.221 404.266 871.221 405.595V412H873.132V405.416C873.132 403.173 871.88 402.054 870.103 402.054C868.69 402.054 867.629 402.732 867.156 403.78H867.054C866.625 402.706 865.724 402.054 864.414 402.054C863.116 402.054 862.151 402.7 861.742 403.78H861.62V402.182H859.786V412ZM875.424 415.682H877.335V410.472H877.45C877.795 411.099 878.499 412.192 880.288 412.192C882.666 412.192 884.392 410.287 884.392 407.11C884.392 403.927 882.641 402.054 880.269 402.054C878.447 402.054 877.789 403.166 877.45 403.773H877.29V402.182H875.424V415.682ZM877.297 407.091C877.297 405.039 878.192 403.678 879.86 403.678C881.592 403.678 882.462 405.141 882.462 407.091C882.462 409.06 881.567 410.562 879.86 410.562C878.217 410.562 877.297 409.156 877.297 407.091ZM890.399 412.198C893.167 412.198 894.976 410.172 894.976 407.136C894.976 404.08 893.167 402.054 890.399 402.054C887.631 402.054 885.822 404.08 885.822 407.136C885.822 410.172 887.631 412.198 890.399 412.198ZM890.405 410.594C888.596 410.594 887.753 409.015 887.753 407.129C887.753 405.25 888.596 403.652 890.405 403.652C892.202 403.652 893.045 405.25 893.045 407.129C893.045 409.015 892.202 410.594 890.405 410.594Z" fill="black"/>
<circle cx="866.5" cy="315.5" r="66.5" fill="#FB755A"/>
<path d="M826.138 302.92H824.595C823.712 302.92 823 303.635 823 304.522C823 305.409 823.712 306.124 824.595 306.124H826.138C827.021 306.124 827.733 305.409 827.733 304.522C827.733 303.64 827.021 302.92 826.138 302.92ZM855.62 326.254H854.078C853.195 326.254 852.483 326.969 852.483 327.855C852.483 328.742 853.195 329.457 854.078 329.457H855.62C856.503 329.457 857.215 328.742 857.215 327.855C857.215 326.969 856.503 326.254 855.62 326.254ZM854.329 310.971C854.329 310.085 853.617 309.37 852.734 309.37H847.404C846.521 309.37 845.809 310.09 845.809 310.971C845.809 311.853 846.521 312.568 847.404 312.573H852.734C853.617 312.573 854.329 311.858 854.329 310.971ZM904.902 300.937L903.279 291.79C902.823 288.358 899.828 285.841 896.382 286.008H833.927C831.597 285.912 829.631 287.738 829.536 290.079C829.522 290.455 829.555 290.837 829.641 291.204L831.35 300.937C831.35 301.014 831.35 301.085 831.402 301.161C831.606 302.348 831.003 302.825 830.467 303.001C829.636 303.302 829.209 304.217 829.508 305.051C829.736 305.685 830.329 306.105 830.998 306.109H900.63C902.961 306.19 904.916 304.355 904.997 302.01C905.011 301.648 904.973 301.29 904.897 300.937H904.902ZM883.655 337.627C882.981 334.081 880.964 332.77 878.685 332.77H862.19C861.302 332.779 860.59 333.504 860.595 334.391C860.595 335.201 861.203 335.887 862.01 335.973C862.536 336.068 863.101 336.75 863.457 338.461L865.152 347.919C865.793 350.855 868.366 352.962 871.361 353L881.206 352.957C883.537 353.043 885.497 351.217 885.587 348.877C885.601 348.519 885.568 348.167 885.492 347.819L883.66 337.632L883.655 337.627ZM861.843 329.567H879.744C879.877 329.562 880.01 329.538 880.143 329.5C881.799 329.171 881.88 327.817 881.662 326.468L879.383 313.884C878.756 310.619 876.867 309.332 874.385 309.332H857.97C857.087 309.341 856.385 310.066 856.394 310.952C856.404 311.748 856.997 312.42 857.78 312.521C858.326 312.621 858.924 313.35 859.275 315.223L861.003 324.838V324.871C861.184 325.567 860.766 326.282 860.073 326.463C860.059 326.463 860.044 326.473 860.025 326.473C859.195 326.773 858.767 327.688 859.067 328.523C859.294 329.157 859.888 329.576 860.557 329.581H861.843V329.567Z" fill="white"/>
<path d="M1052.53 315.045H1054.56C1054.12 312.494 1051.94 310.73 1049.11 310.73C1045.72 310.73 1043.25 313.281 1043.25 317.461C1043.25 321.603 1045.65 324.179 1049.2 324.179C1052.38 324.179 1054.65 322.095 1054.65 318.79V317.301H1049.5V318.931H1052.74C1052.69 321.04 1051.3 322.376 1049.2 322.376C1046.89 322.376 1045.21 320.631 1045.21 317.448C1045.21 314.278 1046.91 312.533 1049.13 312.533C1050.86 312.533 1052.04 313.491 1052.53 315.045ZM1056.73 324H1058.64V318.004C1058.64 316.719 1059.63 315.793 1060.99 315.793C1061.39 315.793 1061.83 315.863 1061.99 315.908V314.08C1061.79 314.054 1061.42 314.035 1061.17 314.035C1060.02 314.035 1059.04 314.687 1058.68 315.741H1058.58V314.182H1056.73V324ZM1066.14 324.217C1067.76 324.217 1068.68 323.393 1069.04 322.658H1069.12V324H1070.98V317.48C1070.98 314.623 1068.73 314.054 1067.18 314.054C1065.4 314.054 1063.76 314.77 1063.12 316.56L1064.92 316.969C1065.2 316.272 1065.92 315.601 1067.2 315.601C1068.43 315.601 1069.07 316.246 1069.07 317.359V317.403C1069.07 318.1 1068.35 318.087 1066.59 318.292C1064.73 318.509 1062.82 318.995 1062.82 321.226C1062.82 323.156 1064.27 324.217 1066.14 324.217ZM1066.56 322.683C1065.47 322.683 1064.69 322.197 1064.69 321.251C1064.69 320.229 1065.6 319.864 1066.71 319.717C1067.33 319.634 1068.8 319.468 1069.07 319.193V320.459C1069.07 321.622 1068.15 322.683 1066.56 322.683ZM1077.93 314.182H1075.82V313.3C1075.82 312.43 1076.18 311.957 1077.11 311.957C1077.5 311.957 1077.79 312.047 1077.96 312.104L1078.41 310.558C1078.14 310.455 1077.59 310.295 1076.81 310.295C1075.26 310.295 1073.9 311.203 1073.9 313.044V314.182H1072.38V315.716H1073.9V324H1075.82V315.716H1077.93V314.182ZM1082.19 324.217C1083.82 324.217 1084.73 323.393 1085.1 322.658H1085.17V324H1087.04V317.48C1087.04 314.623 1084.79 314.054 1083.23 314.054C1081.45 314.054 1079.82 314.77 1079.18 316.56L1080.97 316.969C1081.25 316.272 1081.97 315.601 1083.25 315.601C1084.49 315.601 1085.12 316.246 1085.12 317.359V317.403C1085.12 318.1 1084.4 318.087 1082.64 318.292C1080.78 318.509 1078.88 318.995 1078.88 321.226C1078.88 323.156 1080.33 324.217 1082.19 324.217ZM1082.61 322.683C1081.53 322.683 1080.75 322.197 1080.75 321.251C1080.75 320.229 1081.66 319.864 1082.76 319.717C1083.38 319.634 1084.85 319.468 1085.13 319.193V320.459C1085.13 321.622 1084.2 322.683 1082.61 322.683ZM1091.23 318.17C1091.23 316.604 1092.18 315.71 1093.51 315.71C1094.81 315.71 1095.6 316.56 1095.6 317.985V324H1097.51V317.755C1097.51 315.326 1096.17 314.054 1094.17 314.054C1092.69 314.054 1091.72 314.738 1091.27 315.78H1091.15V314.182H1089.31V324H1091.23V318.17ZM1102.66 324.217C1104.28 324.217 1105.2 323.393 1105.56 322.658H1105.64V324H1107.5V317.48C1107.5 314.623 1105.25 314.054 1103.69 314.054C1101.92 314.054 1100.28 314.77 1099.64 316.56L1101.44 316.969C1101.72 316.272 1102.44 315.601 1103.72 315.601C1104.95 315.601 1105.59 316.246 1105.59 317.359V317.403C1105.59 318.1 1104.87 318.087 1103.11 318.292C1101.25 318.509 1099.34 318.995 1099.34 321.226C1099.34 323.156 1100.79 324.217 1102.66 324.217ZM1103.07 322.683C1101.99 322.683 1101.21 322.197 1101.21 321.251C1101.21 320.229 1102.12 319.864 1103.23 319.717C1103.85 319.634 1105.32 319.468 1105.59 319.193V320.459C1105.59 321.622 1104.67 322.683 1103.07 322.683Z" fill="black"/>
<circle cx="1075.5" cy="227.5" r="66.5" fill="#FB5A67"/>
<path d="M1113.66 222.663C1113.51 221.323 1113.36 219.686 1112.77 217.9C1112.33 216.114 1111.59 214.179 1110.56 212.096C1109.53 210.012 1108.2 207.929 1106.58 205.845C1105.99 205.101 1105.25 204.208 1104.36 203.464C1105.54 198.701 1102.89 194.682 1102.89 194.682C1098.46 194.385 1095.51 196.022 1094.48 196.915C1094.33 196.915 1094.18 196.766 1093.89 196.617C1093.15 196.32 1092.41 196.022 1091.53 195.724C1090.64 195.427 1089.9 195.278 1089.02 194.98C1088.13 194.831 1087.25 194.682 1086.51 194.534C1086.36 194.534 1086.21 194.534 1086.07 194.534C1084.15 188.283 1078.54 185.604 1078.54 185.604C1072.34 189.622 1071.16 195.129 1071.16 195.129C1071.16 195.129 1071.16 195.278 1071.16 195.427C1070.87 195.575 1070.43 195.575 1070.13 195.724C1069.69 195.873 1069.25 196.022 1068.66 196.171C1068.21 196.32 1067.77 196.468 1067.18 196.766C1066.29 197.213 1065.26 197.659 1064.38 198.106C1063.49 198.552 1062.61 199.147 1061.72 199.743C1061.57 199.743 1061.57 199.594 1061.57 199.594C1052.87 196.32 1045.19 200.338 1045.19 200.338C1044.46 209.566 1048.59 215.519 1049.47 216.561C1049.33 217.156 1049.03 217.751 1048.88 218.347C1048.29 220.43 1047.7 222.663 1047.41 224.895C1047.41 225.193 1047.26 225.491 1047.26 225.788C1039.29 229.807 1036.93 237.993 1036.93 237.993C1043.57 245.732 1051.39 246.179 1051.39 246.179C1052.42 247.965 1053.46 249.602 1054.79 251.239C1055.38 251.834 1055.97 252.578 1056.41 253.174C1054.05 260.169 1056.7 265.973 1056.7 265.973C1064.08 266.271 1068.95 262.699 1069.98 261.806C1070.72 262.104 1071.46 262.253 1072.2 262.55C1074.41 263.146 1076.77 263.443 1079.13 263.592C1079.72 263.592 1080.31 263.592 1080.9 263.592H1081.2H1081.35H1081.64H1081.94C1085.48 268.652 1091.53 269.397 1091.53 269.397C1095.95 264.783 1096.1 260.169 1096.1 259.127C1096.1 258.978 1096.1 258.978 1096.1 258.978V258.829C1096.99 258.234 1097.87 257.49 1098.76 256.746C1100.53 255.109 1102 253.323 1103.33 251.388C1103.48 251.239 1103.63 251.09 1103.63 250.792C1108.64 251.09 1112.04 247.667 1112.04 247.667C1111.15 242.458 1108.2 239.928 1107.61 239.481C1107.61 239.481 1107.61 239.481 1107.46 239.481C1107.46 239.183 1107.46 238.886 1107.46 238.588C1107.46 237.993 1107.46 237.397 1107.46 236.951V236.207V236.058V235.909C1107.46 235.76 1107.46 235.76 1107.46 235.76V235.463V235.016C1107.46 234.867 1107.46 234.718 1107.46 234.57C1107.46 234.421 1107.46 234.272 1107.46 234.123V233.677V233.23C1107.31 232.635 1107.31 232.039 1107.17 231.593C1106.58 229.36 1105.84 227.277 1104.66 225.342C1103.48 223.407 1102.15 221.77 1100.53 220.282C1098.9 218.793 1097.13 217.751 1095.22 216.858C1093.3 215.965 1091.38 215.519 1089.31 215.221C1088.28 215.072 1087.39 215.072 1086.36 215.072H1086.07H1085.92H1085.77H1085.62H1085.33C1085.18 215.072 1085.03 215.072 1084.89 215.072C1084.44 215.072 1083.85 215.221 1083.41 215.221C1081.49 215.519 1079.57 216.263 1077.95 217.305C1076.33 218.347 1074.85 219.537 1073.67 220.877C1072.49 222.216 1071.61 223.854 1071.02 225.491C1070.43 227.128 1070.13 228.765 1069.98 230.402C1069.98 230.849 1069.98 231.146 1069.98 231.593C1069.98 231.742 1069.98 231.742 1069.98 231.891V232.188C1069.98 232.337 1069.98 232.635 1069.98 232.784C1070.13 233.528 1070.28 234.421 1070.43 235.165C1070.87 236.653 1071.61 237.993 1072.34 239.183C1073.23 240.374 1074.26 241.267 1075.3 242.011C1076.33 242.755 1077.51 243.351 1078.69 243.648C1079.87 243.946 1080.9 244.095 1082.08 244.095C1082.23 244.095 1082.38 244.095 1082.53 244.095H1082.67H1082.82C1082.97 244.095 1083.12 244.095 1083.12 244.095C1083.12 244.095 1083.12 244.095 1083.26 244.095H1083.41H1083.56C1083.71 244.095 1083.85 244.095 1084 244.095C1084.15 244.095 1084.3 244.095 1084.44 243.946C1084.74 243.946 1084.89 243.797 1085.18 243.797C1085.62 243.648 1086.07 243.5 1086.51 243.202C1086.95 243.053 1087.25 242.755 1087.69 242.458C1087.84 242.458 1087.84 242.309 1087.99 242.16C1088.43 241.862 1088.43 241.267 1088.13 240.969C1087.84 240.672 1087.39 240.523 1087.1 240.821C1086.95 240.821 1086.95 240.969 1086.8 240.969C1086.51 241.118 1086.21 241.267 1085.77 241.416C1085.48 241.565 1085.03 241.565 1084.74 241.714C1084.59 241.714 1084.3 241.714 1084.15 241.714C1084 241.714 1084 241.714 1083.85 241.714C1083.71 241.714 1083.71 241.714 1083.56 241.714C1083.41 241.714 1083.41 241.714 1083.26 241.714C1083.12 241.714 1082.97 241.714 1082.97 241.714H1082.82H1082.67C1082.53 241.714 1082.53 241.714 1082.38 241.714C1081.49 241.565 1080.75 241.416 1079.87 240.969C1078.98 240.672 1078.25 240.076 1077.51 239.481C1076.77 238.886 1076.18 237.993 1075.74 237.249C1075.3 236.504 1074.85 235.463 1074.71 234.421C1074.56 233.974 1074.56 233.379 1074.56 232.932C1074.56 232.784 1074.56 232.635 1074.56 232.486V232.337V232.188C1074.56 231.891 1074.56 231.593 1074.71 231.295C1075.15 229.063 1076.18 226.979 1077.95 225.193C1078.39 224.747 1078.84 224.449 1079.28 224.002C1079.72 223.705 1080.31 223.407 1080.75 223.109C1081.35 222.812 1081.94 222.663 1082.38 222.514C1082.97 222.365 1083.56 222.216 1084.15 222.216C1084.44 222.216 1084.74 222.216 1085.03 222.216C1085.18 222.216 1085.18 222.216 1085.18 222.216H1085.48H1085.62H1085.92C1086.51 222.216 1087.25 222.365 1087.84 222.514C1089.17 222.812 1090.35 223.258 1091.53 224.002C1093.89 225.342 1095.81 227.426 1097.13 229.807C1097.72 230.998 1098.17 232.337 1098.46 233.677C1098.46 233.974 1098.61 234.421 1098.61 234.718V235.016V235.314C1098.61 235.463 1098.61 235.463 1098.61 235.611C1098.61 235.76 1098.61 235.76 1098.61 235.909V236.207V236.504C1098.61 236.653 1098.61 236.951 1098.61 237.1C1098.61 237.546 1098.61 237.844 1098.46 238.29C1098.46 238.588 1098.31 239.035 1098.31 239.332C1098.31 239.63 1098.17 240.076 1098.02 240.374C1097.87 241.118 1097.58 241.862 1097.28 242.458C1096.69 243.797 1095.95 245.137 1095.07 246.476C1093.3 248.858 1090.94 250.941 1088.13 252.132C1086.8 252.727 1085.33 253.174 1083.85 253.471C1083.12 253.62 1082.38 253.62 1081.64 253.769H1081.49H1081.35H1081.05H1080.75H1080.61C1080.75 253.769 1080.61 253.769 1080.61 253.769C1080.16 253.769 1079.87 253.769 1079.43 253.769C1077.8 253.62 1076.18 253.323 1074.71 252.876C1073.23 252.43 1071.61 251.834 1070.28 251.09C1067.47 249.602 1064.97 247.518 1062.9 244.988C1061.87 243.797 1060.98 242.458 1060.39 240.969C1059.65 239.481 1059.06 237.993 1058.62 236.504C1058.18 235.016 1057.88 233.379 1057.88 231.891V231.593V231.444V231.146V230.253V230.105V229.807V229.658C1057.88 229.509 1057.88 229.212 1057.88 229.063C1057.88 228.319 1058.03 227.426 1058.03 226.681C1058.18 225.937 1058.33 225.044 1058.47 224.3C1058.62 223.556 1058.77 222.663 1059.06 221.919C1059.51 220.43 1060.1 218.942 1060.69 217.454C1062.02 214.626 1063.64 212.096 1065.7 210.161C1066.15 209.714 1066.74 209.119 1067.33 208.673C1067.92 208.226 1068.51 207.78 1069.1 207.482C1069.69 207.035 1070.28 206.738 1070.87 206.44C1071.16 206.291 1071.46 206.142 1071.75 205.994C1071.9 205.994 1072.05 205.845 1072.2 205.845C1072.34 205.845 1072.49 205.696 1072.64 205.696C1073.23 205.398 1073.97 205.25 1074.56 204.952C1074.71 204.952 1074.85 204.803 1075 204.803C1075.15 204.803 1075.3 204.654 1075.44 204.654C1075.74 204.505 1076.18 204.505 1076.48 204.357C1076.62 204.357 1076.77 204.208 1077.07 204.208C1077.21 204.208 1077.36 204.208 1077.66 204.059C1077.8 204.059 1077.95 204.059 1078.25 203.91H1078.54H1078.84C1078.98 203.91 1079.13 203.91 1079.43 203.761C1079.57 203.761 1079.87 203.761 1080.02 203.612C1080.16 203.612 1080.46 203.612 1080.61 203.612C1080.75 203.612 1080.9 203.612 1081.05 203.612H1081.35H1081.49H1081.64C1081.79 203.612 1082.08 203.612 1082.23 203.612H1082.53C1082.53 203.612 1082.67 203.612 1082.53 203.612H1082.67C1082.82 203.612 1082.97 203.612 1083.12 203.612C1083.85 203.612 1084.44 203.612 1085.18 203.612C1086.51 203.612 1087.84 203.761 1089.17 204.059C1091.67 204.505 1094.03 205.398 1096.25 206.44C1098.46 207.482 1100.38 208.821 1102 210.31C1102.15 210.459 1102.15 210.459 1102.3 210.607C1102.45 210.756 1102.45 210.756 1102.59 210.905C1102.74 211.054 1103.04 211.203 1103.18 211.5C1103.33 211.798 1103.63 211.798 1103.77 212.096C1103.92 212.393 1104.22 212.542 1104.36 212.691C1105.1 213.435 1105.69 214.179 1106.28 215.072C1107.46 216.561 1108.5 218.198 1109.23 219.686C1109.23 219.835 1109.38 219.835 1109.38 219.984C1109.38 220.133 1109.53 220.133 1109.53 220.282C1109.68 220.43 1109.68 220.579 1109.82 220.877C1109.97 221.026 1109.97 221.175 1110.12 221.472C1110.27 221.621 1110.27 221.77 1110.41 222.068C1110.71 222.812 1111 223.407 1111.15 224.002C1111.45 225.044 1111.74 225.937 1111.89 226.681C1112.04 226.979 1112.33 227.277 1112.63 227.128C1112.92 227.128 1113.22 226.83 1113.22 226.533C1113.81 224.747 1113.81 223.705 1113.66 222.663Z" fill="white"/>
<path d="M800.949 126.314C801.123 125.79 800.839 125.224 800.314 125.051L791.771 122.222C791.246 122.048 790.681 122.332 790.507 122.857C790.333 123.381 790.618 123.947 791.142 124.12L798.736 126.635L796.222 134.229C796.048 134.754 796.332 135.319 796.857 135.493C797.381 135.667 797.947 135.382 798.12 134.858L800.949 126.314ZM599.449 227.894L800.449 126.894L799.551 125.106L598.551 226.106L599.449 227.894Z" fill="#A0A0B1"/>
<path d="M1009 238.974C1008.99 238.422 1008.53 237.986 1007.97 238L998.977 238.231C998.425 238.245 997.989 238.704 998.003 239.256C998.017 239.808 998.476 240.245 999.029 240.23L1007.03 240.025L1007.23 248.023C1007.25 248.575 1007.7 249.011 1008.26 248.997C1008.81 248.983 1009.24 248.524 1009.23 247.971L1009 238.974ZM932.725 319.689L1008.72 239.689L1007.28 238.311L931.275 318.311L932.725 319.689Z" fill="#A0A0B1"/>
<path d="M1009 206.026C1008.99 206.578 1008.53 207.014 1007.97 207L998.977 206.769C998.425 206.755 997.989 206.296 998.003 205.744C998.017 205.192 998.476 204.755 999.029 204.77L1007.03 204.975L1007.23 196.977C1007.25 196.425 1007.7 195.989 1008.26 196.003C1008.81 196.017 1009.24 196.476 1009.23 197.029L1009 206.026ZM932.725 125.311L1008.72 205.311L1007.28 206.689L931.275 126.689L932.725 125.311Z" fill="#A0A0B1"/>
<path d="M800.349 319.937C800.866 319.745 801.13 319.169 800.937 318.651L797.799 310.216C797.607 309.698 797.031 309.435 796.513 309.628C795.996 309.82 795.732 310.396 795.925 310.913L798.714 318.411L791.216 321.201C790.698 321.393 790.435 321.969 790.628 322.487C790.82 323.004 791.396 323.268 791.913 323.075L800.349 319.937ZM598.584 227.909L799.584 319.909L800.416 318.091L599.416 226.091L598.584 227.909Z" fill="#A0A0B1"/>
<rect x="627.338" y="189.495" width="148" height="40" rx="20" transform="rotate(-26.1197 627.338 189.495)" fill="white"/>
<path d="M658.774 183.295L657.63 183.856L661.472 191.692L662.616 191.131L658.774 183.295ZM666.689 189.281C668.346 188.469 668.834 186.725 667.943 184.907C667.046 183.078 665.368 182.396 663.712 183.209C662.055 184.021 661.567 185.765 662.464 187.594C663.355 189.411 665.032 190.093 666.689 189.281ZM666.222 188.319C665.139 188.85 664.171 188.152 663.617 187.023C663.066 185.899 663.102 184.694 664.184 184.163C665.26 183.636 666.234 184.345 666.785 185.47C667.339 186.599 667.297 187.792 666.222 188.319ZM674.252 188.311C675.748 187.578 676.568 186.326 675.827 184.815L672.881 178.808L671.76 179.357L672.227 180.31L672.143 180.351C671.762 180.087 671.03 179.62 669.936 180.157C668.516 180.853 668.021 182.486 668.939 184.357C669.858 186.232 671.415 186.707 672.804 186.026C673.883 185.497 674.002 184.684 674.025 184.208L674.097 184.172L674.664 185.328C675.116 186.25 674.68 186.957 673.811 187.383C672.859 187.85 672.253 187.554 671.885 187.317L671.101 188.205C671.763 188.772 672.848 189 674.252 188.311ZM672.591 184.953C671.57 185.454 670.653 184.931 670.087 183.775C669.533 182.647 669.624 181.515 670.657 181.009C671.656 180.519 672.591 181.071 673.175 182.261C673.769 183.474 673.579 184.469 672.591 184.953ZM679.523 177.331C678.837 176.533 677.829 176.287 676.559 176.909C675.231 177.56 674.633 178.722 675.144 179.763C675.553 180.597 676.33 180.904 677.552 180.609L678.653 180.339C679.282 180.188 679.669 180.311 679.85 180.678C680.073 181.133 679.761 181.727 679.011 182.095C678.327 182.431 677.742 182.352 677.321 181.842L676.298 182.552C676.999 183.499 678.151 183.661 679.471 183.014C680.891 182.317 681.504 181.082 680.983 180.018C680.576 179.188 679.796 178.934 678.595 179.214L677.557 179.458C676.835 179.622 676.449 179.541 676.258 179.141C676.032 178.691 676.365 178.13 677.015 177.811C677.727 177.462 678.249 177.694 678.576 178.023L679.523 177.331ZM684.037 179.299L682.935 179.839L683.107 180.286C683.527 181.367 683.794 182.531 683.924 183.056L684.735 182.659C684.673 182.067 684.516 180.721 684.184 179.744L684.037 179.299ZM691.494 177.118C692.776 176.49 693.373 175.414 693.164 174.33L691.986 174.666C692.051 175.322 691.693 175.849 691.042 176.168C690.063 176.648 689.093 176.336 688.507 175.218L692.685 173.169L692.486 172.764C691.445 170.64 689.768 170.433 688.436 171.086C686.799 171.889 686.331 173.665 687.217 175.471C688.112 177.296 689.761 177.968 691.494 177.118ZM688.091 174.359C687.728 173.502 687.978 172.483 688.907 172.027C689.795 171.592 690.699 171.965 691.144 172.862L688.091 174.359ZM693.111 168.888L691.856 169.504L695.103 171.557L694.715 175.392L695.97 174.777L696.213 171.933L698.614 173.48L699.865 172.867L696.576 170.835L696.968 166.997L695.717 167.611L695.53 170.541L693.111 168.888ZM703.316 171.322C704.705 170.641 705.195 169.366 704.76 168.16L703.647 168.706C703.813 169.412 703.503 170.029 702.849 170.35C701.881 170.825 700.861 170.323 700.233 169.042C699.616 167.783 699.863 166.679 700.819 166.21C701.546 165.854 702.215 166.095 702.608 166.586L703.721 166.04C703.017 164.914 701.663 164.601 700.327 165.255C698.67 166.068 698.211 167.84 699.091 169.635C699.959 171.406 701.609 172.159 703.316 171.322ZM709.487 168.296C710.768 167.668 711.366 166.592 711.157 165.508L709.978 165.844C710.044 166.5 709.685 167.027 709.035 167.346C708.055 167.826 707.086 167.513 706.5 166.396L710.678 164.347L710.479 163.942C709.438 161.818 707.76 161.611 706.429 162.264C704.791 163.067 704.324 164.843 705.209 166.649C706.104 168.474 707.753 169.146 709.487 168.296ZM706.083 165.537C705.72 164.68 705.97 163.661 706.9 163.205C707.788 162.77 708.692 163.143 709.137 164.04L706.083 165.537ZM714.3 168.523L715.444 167.962L713.915 164.844L713.984 164.81C714.374 165.084 715.116 165.531 716.187 165.006C717.611 164.308 718.085 162.662 717.152 160.76C716.218 158.854 714.62 158.247 713.2 158.943C712.11 159.478 712.042 160.337 712.018 160.8L711.922 160.847L711.455 159.894L710.338 160.442L714.3 168.523ZM712.9 162.831C712.297 161.603 712.433 160.525 713.432 160.035C714.469 159.527 715.419 160.148 715.991 161.315C716.569 162.493 716.474 163.655 715.452 164.156C714.469 164.638 713.505 164.067 712.9 162.831ZM719.731 155.836L718.526 156.427L717.835 155.019L716.691 155.58L717.382 156.988L716.521 157.41L716.971 158.329L717.832 157.906L719.533 161.377C720.053 162.446 721.121 162.563 722.015 162.101C722.376 161.919 722.588 161.73 722.697 161.615L722.027 160.771C721.958 160.824 721.833 160.928 721.65 161.018C721.279 161.2 720.886 161.241 720.561 160.579L718.976 157.346L720.181 156.755L719.731 155.836ZM723.878 161.093L725.022 160.532L722.14 154.655L720.996 155.216L723.878 161.093ZM721.13 154.026C721.524 153.832 721.703 153.365 721.519 152.99C721.335 152.615 720.854 152.467 720.46 152.66C720.062 152.855 719.889 153.324 720.072 153.699C720.256 154.074 720.732 154.221 721.13 154.026ZM729.095 158.682C730.752 157.87 731.24 156.126 730.349 154.308C729.452 152.48 727.774 151.798 726.118 152.61C724.461 153.422 723.973 155.166 724.869 156.995C725.761 158.812 727.438 159.494 729.095 158.682ZM728.628 157.72C727.545 158.251 726.577 157.553 726.023 156.425C725.472 155.3 725.508 154.095 726.59 153.565C727.666 153.037 728.64 153.746 729.191 154.871C729.745 156 729.703 157.193 728.628 157.72ZM732.486 152.544C732.027 151.606 732.338 150.789 733.134 150.399C733.91 150.018 734.631 150.296 735.049 151.149L736.814 154.75L737.958 154.189L736.125 150.451C735.413 148.997 734.24 148.627 733.038 149.217C732.154 149.65 731.777 150.343 731.811 151.099L731.739 151.135L731.27 150.179L730.172 150.717L733.053 156.594L734.197 156.033L732.486 152.544ZM740.456 151.636L739.354 152.176L739.526 152.623C739.946 153.703 740.213 154.868 740.343 155.393L741.154 154.995C741.092 154.404 740.934 153.057 740.603 152.081L740.456 151.636ZM652.874 212.761C654.156 212.132 654.753 211.056 654.544 209.972L653.366 210.308C653.431 210.964 653.073 211.491 652.422 211.81C651.443 212.29 650.473 211.978 649.887 210.86L654.066 208.812L653.867 208.406C652.825 206.282 651.148 206.075 649.817 206.728C648.179 207.531 647.712 209.307 648.597 211.113C649.492 212.938 651.141 213.611 652.874 212.761ZM649.471 210.001C649.108 209.145 649.358 208.125 650.288 207.669C651.175 207.234 652.08 207.607 652.524 208.504L649.471 210.001ZM658.574 202.529L657.346 203.131L658.079 208.382L658.017 208.412L654.312 204.619L653.083 205.221L658.1 210.051L659.324 209.451L658.574 202.529ZM664.911 206.859C666.193 206.23 666.79 205.154 666.582 204.07L665.403 204.406C665.468 205.062 665.11 205.589 664.459 205.908C663.48 206.388 662.51 206.076 661.925 204.958L666.103 202.91L665.904 202.504C664.863 200.38 663.185 200.173 661.854 200.826C660.216 201.629 659.749 203.405 660.634 205.211C661.529 207.036 663.178 207.708 664.911 206.859ZM661.508 204.099C661.145 203.243 661.395 202.223 662.325 201.767C663.212 201.332 664.117 201.705 664.561 202.602L661.508 204.099ZM668.077 200.831C667.617 199.893 667.929 199.076 668.725 198.686C669.501 198.305 670.221 198.583 670.64 199.437L672.405 203.037L673.549 202.476L671.716 198.738C671.003 197.284 669.83 196.915 668.629 197.504C667.745 197.937 667.368 198.63 667.402 199.387L667.329 199.422L666.86 198.466L665.762 199.004L668.644 204.881L669.788 204.32L668.077 200.831ZM674.945 194.502L673.74 195.093L673.05 193.685L671.906 194.246L672.596 195.654L671.735 196.076L672.185 196.994L673.046 196.572L674.748 200.042C675.267 201.112 676.336 201.229 677.229 200.767C677.591 200.585 677.802 200.396 677.911 200.28L677.241 199.437C677.172 199.489 677.048 199.593 676.864 199.683C676.493 199.865 676.1 199.906 675.775 199.244L674.19 196.011L675.395 195.42L674.945 194.502ZM681.223 193.203C680.538 192.405 679.53 192.159 678.259 192.782C676.932 193.433 676.334 194.594 676.844 195.635C677.253 196.469 678.03 196.776 679.252 196.481L680.354 196.211C680.982 196.06 681.37 196.183 681.55 196.55C681.773 197.006 681.462 197.6 680.712 197.967C680.027 198.303 679.443 198.224 679.022 197.714L677.998 198.425C678.7 199.372 679.852 199.533 681.172 198.886C682.591 198.19 683.205 196.954 682.683 195.89C682.276 195.06 681.497 194.806 680.296 195.086L679.257 195.33C678.536 195.494 678.149 195.413 677.958 195.013C677.733 194.563 678.065 194.002 678.716 193.683C679.427 193.334 679.949 193.567 680.277 193.895L681.223 193.203ZM685.737 195.171L684.635 195.711L684.807 196.159C685.228 197.239 685.495 198.403 685.624 198.929L686.435 198.531C686.373 197.94 686.216 196.593 685.884 195.616L685.737 195.171ZM690.603 194.114L691.747 193.553L689.971 189.93C689.582 189.138 689.867 188.315 690.518 187.996C691.153 187.684 691.799 187.89 692.112 188.529L694.028 192.435L695.168 191.876L693.331 188.13C692.984 187.422 693.165 186.698 693.911 186.332C694.516 186.035 695.178 186.128 695.569 186.924L697.448 190.758L698.592 190.197L696.66 186.256C696.002 184.913 694.923 184.611 693.86 185.133C693.014 185.547 692.578 186.264 692.602 187.031L692.541 187.061C691.97 186.543 691.239 186.418 690.454 186.802C689.678 187.183 689.289 187.853 689.362 188.62L689.289 188.655L688.82 187.699L687.722 188.237L690.603 194.114ZM702.717 188.322C703.999 187.693 704.596 186.617 704.387 185.533L703.209 185.869C703.274 186.525 702.915 187.052 702.265 187.371C701.285 187.851 700.316 187.539 699.73 186.421L703.908 184.373L703.709 183.967C702.668 181.844 700.991 181.636 699.659 182.289C698.022 183.092 697.554 184.868 698.44 186.674C699.335 188.499 700.984 189.172 702.717 188.322ZM699.314 185.562C698.951 184.706 699.201 183.686 700.13 183.23C701.018 182.795 701.922 183.168 702.367 184.065L699.314 185.562ZM708.224 185.636C709.195 185.159 709.501 184.398 709.503 183.851L709.549 183.828L709.943 184.632L711.06 184.084L709.146 180.181C708.308 178.471 706.794 178.791 705.861 179.248C704.797 179.77 704.027 180.679 704.17 181.938L705.365 181.655C705.329 181.156 705.561 180.544 706.33 180.167C707.068 179.805 707.637 180.005 707.963 180.671L707.976 180.698C708.181 181.115 707.748 181.318 706.752 181.958C705.703 182.634 704.705 183.484 705.36 184.819C705.926 185.974 707.106 186.184 708.224 185.636ZM708.022 184.596C707.375 184.913 706.766 184.851 706.488 184.285C706.188 183.672 706.625 183.188 707.243 182.775C707.59 182.544 708.421 182.013 708.505 181.767L708.877 182.525C709.218 183.221 708.975 184.129 708.022 184.596ZM714.81 176.735C714.124 175.937 713.116 175.691 711.846 176.314C710.518 176.965 709.92 178.126 710.43 179.167C710.839 180.001 711.616 180.308 712.838 180.013L713.94 179.743C714.568 179.592 714.956 179.715 715.136 180.082C715.359 180.538 715.048 181.132 714.298 181.499C713.613 181.835 713.029 181.756 712.608 181.246L711.584 181.957C712.286 182.904 713.438 183.065 714.758 182.418C716.177 181.722 716.791 180.486 716.27 179.422C715.862 178.592 715.083 178.338 713.882 178.618L712.843 178.862C712.122 179.026 711.736 178.945 711.544 178.545C711.319 178.095 711.651 177.534 712.302 177.215C713.013 176.866 713.536 177.099 713.863 177.427L714.81 176.735ZM720.888 176.242C721.382 177.238 720.872 178.077 720.229 178.392C719.521 178.739 718.78 178.466 718.388 177.667L716.623 174.066L715.479 174.627L717.312 178.365C718.026 179.823 719.198 180.189 720.326 179.635C721.21 179.202 721.582 178.441 721.546 177.68L721.607 177.65L722.106 178.668L723.231 178.116L720.349 172.239L719.202 172.802L720.888 176.242ZM724.768 177.362L725.912 176.801L724.153 173.212C723.775 172.443 724.097 171.598 724.908 171.2C725.145 171.084 725.433 170.995 725.538 170.976L725.002 169.882C724.879 169.923 724.648 170.022 724.503 170.094C723.814 170.431 723.416 171.11 723.511 171.847L723.45 171.877L722.992 170.943L721.887 171.485L724.768 177.362ZM731.284 174.315C732.566 173.686 733.163 172.61 732.954 171.526L731.776 171.862C731.841 172.518 731.483 173.045 730.832 173.364C729.853 173.844 728.883 173.532 728.297 172.414L732.475 170.366L732.277 169.96C731.235 167.836 729.558 167.629 728.226 168.282C726.589 169.085 726.121 170.861 727.007 172.667C727.902 174.492 729.551 175.165 731.284 174.315ZM727.881 171.555C727.518 170.699 727.768 169.679 728.697 169.223C729.585 168.788 730.489 169.161 730.934 170.058L727.881 171.555ZM735.017 172.337L736.161 171.776L734.384 168.153C733.996 167.361 734.28 166.538 734.931 166.219C735.566 165.908 736.212 166.113 736.526 166.752L738.441 170.658L739.581 170.099L737.745 166.353C737.398 165.646 737.579 164.921 738.325 164.555C738.929 164.259 739.592 164.351 739.982 165.147L741.862 168.981L743.006 168.42L741.073 164.479C740.415 163.136 739.337 162.834 738.273 163.356C737.427 163.77 736.991 164.487 737.016 165.254L736.954 165.284C736.383 164.767 735.652 164.641 734.868 165.026C734.091 165.406 733.703 166.076 733.775 166.843L733.702 166.878L733.233 165.922L732.135 166.46L735.017 172.337ZM747.13 166.545C748.412 165.917 749.009 164.841 748.8 163.756L747.622 164.092C747.687 164.748 747.329 165.275 746.678 165.594C745.699 166.075 744.729 165.762 744.143 164.645L748.322 162.596L748.123 162.19C747.081 160.067 745.404 159.859 744.073 160.512C742.435 161.315 741.968 163.092 742.853 164.898C743.748 166.723 745.397 167.395 747.13 166.545ZM743.727 163.786C743.364 162.929 743.614 161.909 744.544 161.454C745.431 161.018 746.336 161.391 746.78 162.289L743.727 163.786ZM750.296 160.517C749.836 159.58 750.148 158.763 750.943 158.373C751.72 157.992 752.44 158.27 752.859 159.123L754.624 162.724L755.768 162.163L753.935 158.424C753.222 156.97 752.049 156.601 750.848 157.19C749.964 157.624 749.587 158.316 749.621 159.073L749.548 159.109L749.079 158.152L747.981 158.691L750.863 164.568L752.007 164.007L750.296 160.517ZM757.164 154.188L755.959 154.779L755.268 153.371L754.124 153.932L754.815 155.34L753.954 155.762L754.404 156.68L755.265 156.258L756.967 159.729C757.486 160.798 758.554 160.915 759.448 160.453C759.81 160.271 760.021 160.082 760.13 159.967L759.46 159.123C759.391 159.176 759.267 159.28 759.083 159.37C758.712 159.552 758.319 159.592 757.994 158.931L756.409 155.697L757.614 155.106L757.164 154.188ZM763.442 152.89C762.757 152.091 761.749 151.845 760.478 152.468C759.151 153.119 758.553 154.281 759.063 155.322C759.472 156.156 760.249 156.463 761.471 156.167L762.573 155.898C763.201 155.746 763.589 155.869 763.769 156.237C763.992 156.692 763.681 157.286 762.931 157.654C762.246 157.99 761.661 157.911 761.24 157.401L760.217 158.111C760.919 159.058 762.07 159.219 763.39 158.572C764.81 157.876 765.424 156.64 764.902 155.577C764.495 154.746 763.716 154.493 762.515 154.773L761.476 155.016C760.754 155.18 760.368 155.099 760.177 154.699C759.952 154.25 760.284 153.688 760.934 153.369C761.646 153.02 762.168 153.253 762.495 153.582L763.442 152.89Z" fill="black"/>
<rect x="627.338" y="189.495" width="148" height="40" rx="20" transform="rotate(-26.1197 627.338 189.495)" stroke="#A0A0B1" stroke-width="2"/>
<rect x="683.268" y="251.337" width="55" height="25" rx="12.5" transform="rotate(25.9299 683.268 251.337)" fill="white"/>
<path d="M690.7 266.575L689.493 265.988L690.179 264.578L689.033 264.021L688.347 265.431L687.485 265.012L687.038 265.932L687.9 266.351L686.21 269.827C685.686 270.894 686.251 271.808 687.165 272.229C687.531 272.402 687.81 272.452 687.968 272.468L688.221 271.421C688.137 271.399 687.979 271.364 687.795 271.275C687.423 271.094 687.149 270.809 687.472 270.146L689.046 266.908L690.253 267.495L690.7 266.575ZM689.106 273.078L690.252 273.635L692 270.04C692.374 269.27 693.238 269.003 694.051 269.398C694.288 269.514 694.536 269.686 694.615 269.758L695.148 268.662C695.041 268.591 694.82 268.469 694.674 268.398C693.985 268.063 693.204 268.167 692.682 268.695L692.621 268.665L693.076 267.73L691.968 267.191L689.106 273.078ZM694.845 276.029C695.818 276.503 696.607 276.275 697.039 275.94L697.085 275.963L696.694 276.767L697.813 277.312L699.714 273.403C700.547 271.689 699.363 270.692 698.428 270.238C697.363 269.72 696.173 269.672 695.268 270.559L696.226 271.328C696.598 270.992 697.222 270.798 697.993 271.173C698.732 271.532 698.924 272.104 698.599 272.771L698.586 272.798C698.383 273.215 697.958 272.999 696.84 272.607C695.662 272.195 694.378 271.931 693.728 273.269C693.165 274.426 693.726 275.485 694.845 276.029ZM695.541 275.231C694.893 274.916 694.567 274.397 694.843 273.83C695.141 273.217 695.792 273.263 696.498 273.497C696.894 273.628 697.824 273.957 698.068 273.872L697.699 274.631C697.36 275.329 696.495 275.695 695.541 275.231ZM701.761 279.378C703.152 280.054 704.459 279.657 705.143 278.572L704.027 278.03C703.572 278.596 702.895 278.731 702.24 278.412C701.271 277.941 701.039 276.828 701.663 275.545C702.276 274.284 703.298 273.8 704.256 274.266C704.984 274.62 705.205 275.296 705.06 275.907L706.175 276.449C706.63 275.202 706.044 273.941 704.707 273.29C703.047 272.484 701.367 273.211 700.493 275.009C699.63 276.783 700.052 278.547 701.761 279.378ZM707.942 282.383C709.226 283.007 710.441 282.817 711.168 281.985L710.178 281.263C709.701 281.718 709.065 281.759 708.413 281.442C707.432 280.965 707.083 280.008 707.603 278.859L711.788 280.894L711.986 280.488C713.02 278.361 712.152 276.911 710.818 276.262C709.178 275.465 707.49 276.188 706.61 277.997C705.722 279.825 706.206 281.539 707.942 282.383ZM708.025 278.003C708.477 277.19 709.435 276.76 710.366 277.212C711.255 277.645 711.517 278.587 711.083 279.49L708.025 278.003ZM718.371 281.806C718.579 280.774 718.153 279.828 716.88 279.209C715.55 278.563 714.267 278.806 713.76 279.848C713.354 280.684 713.589 281.485 714.574 282.267L715.464 282.97C715.97 283.372 716.111 283.754 715.932 284.122C715.71 284.578 715.05 284.698 714.299 284.332C713.613 283.999 713.316 283.49 713.46 282.844L712.27 282.474C711.955 283.609 712.536 284.617 713.858 285.26C715.28 285.951 716.632 285.675 717.15 284.61C717.554 283.778 717.275 283.007 716.315 282.233L715.485 281.563C714.911 281.095 714.738 280.741 714.936 280.344C715.152 279.89 715.799 279.807 716.45 280.123C717.163 280.47 717.301 281.025 717.243 281.485L718.371 281.806Z" fill="black"/>
<rect x="683.268" y="251.337" width="55" height="25" rx="12.5" transform="rotate(25.9299 683.268 251.337)" stroke="#A0A0B1" stroke-width="2"/>
</svg>
