<svg width="466" height="326" viewBox="0 0 466 326" fill="none" xmlns="http://www.w3.org/2000/svg">
<path d="M412.849 40.4473H6.04388C2.98532 40.4473 0.505859 42.9267 0.505859 45.9853V288.382C0.505859 291.441 2.98532 293.921 6.04388 293.921H412.849C415.907 293.921 418.387 291.441 418.387 288.382V45.9853C418.387 42.9267 415.907 40.4473 412.849 40.4473Z" fill="#393946"/>
<path d="M44.1058 63.3945H127.258C130.126 63.3945 132.455 65.7237 132.455 68.5921V265.776C132.455 268.645 130.126 270.974 127.258 270.974H44.1058C41.2374 270.974 38.9082 268.645 38.9082 265.776V68.5921C38.9082 65.7237 41.2374 63.3945 44.1058 63.3945Z" fill="#2E2E38"/>
<path d="M160.226 64.9121H157.621V68.7902H160.226V64.9121Z" fill="white"/>
<path d="M160.228 72.9385H156.391V76.8166H160.228V72.9385Z" fill="white"/>
<path d="M160.228 80.9658H156.391V84.8439H160.228V80.9658Z" fill="white"/>
<path d="M160.228 88.9922H156.391V92.8703H160.228V88.9922Z" fill="white"/>
<path d="M160.228 97.0166H156.391V100.895H160.228V97.0166Z" fill="white"/>
<path d="M160.228 105.044H156.391V108.922H160.228V105.044Z" fill="white"/>
<path d="M160.228 113.07H156.391V116.948H160.228V113.07Z" fill="white"/>
<path d="M160.228 121.098H156.391V124.976H160.228V121.098Z" fill="white"/>
<path d="M160.228 129.124H156.391V133.002H160.228V129.124Z" fill="white"/>
<path d="M160.228 137.148H156.391V141.027H160.228V137.148Z" fill="white"/>
<path d="M160.044 145.179H154.957V149.057H160.044V145.179Z" fill="white"/>
<path d="M160.044 153.204H154.957V157.082H160.044V153.204Z" fill="white"/>
<path d="M160.044 161.231H154.957V165.11H160.044V161.231Z" fill="white"/>
<path d="M160.044 169.258H154.957V173.136H160.044V169.258Z" fill="white"/>
<path d="M160.044 177.284H154.957V181.162H160.044V177.284Z" fill="white"/>
<path d="M160.044 185.311H154.957V189.189H160.044V185.311Z" fill="white"/>
<path d="M160.044 193.336H154.957V197.214H160.044V193.336Z" fill="white"/>
<path d="M160.044 201.362H154.957V205.24H160.044V201.362Z" fill="white"/>
<path d="M160.044 209.389H154.957V213.267H160.044V209.389Z" fill="white"/>
<path d="M160.044 217.416H154.957V221.294H160.044V217.416Z" fill="white"/>
<path d="M160.044 225.442H154.957V229.32H160.044V225.442Z" fill="white"/>
<path d="M160.044 233.47H154.957V237.348H160.044V233.47Z" fill="white"/>
<path d="M160.044 241.496H154.957V245.374H160.044V241.496Z" fill="white"/>
<path d="M160.044 249.522H154.957V253.401H160.044V249.522Z" fill="white"/>
<path d="M160.044 257.55H154.957V261.428H160.044V257.55Z" fill="white"/>
<path d="M160.044 265.576H154.957V269.454H160.044V265.576Z" fill="white"/>
<path d="M264.832 64.9121H176.801V68.7902H264.832V64.9121Z" fill="url(#paint0_radial_29676_16909)"/>
<path d="M239.8 72.6309H176.801V76.5089H239.8V72.6309Z" fill="url(#paint1_radial_29676_16909)"/>
<path d="M332.439 72.6309H320.734V76.5089H332.439V72.6309Z" fill="url(#paint2_radial_29676_16909)"/>
<path d="M360.653 72.6309H338.369V76.5089H360.653V72.6309Z" fill="#CACAD3"/>
<path d="M314.936 72.6309H245.652V76.5089H314.936V72.6309Z" fill="#CACAD3"/>
<path d="M251.647 80.3467H193.729V84.2248H251.647V80.3467Z" fill="url(#paint3_radial_29676_16909)"/>
<path d="M269.223 88.0654H215.854V91.9435H269.223V88.0654Z" fill="url(#paint4_radial_29676_16909)"/>
<path d="M253.842 95.7822H215.854V99.6603H253.842V95.7822Z" fill="url(#paint5_radial_29676_16909)"/>
<path d="M308.343 95.7822H259.246V99.6603H308.343V95.7822Z" fill="#CACAD3"/>
<path d="M331.067 95.7822H313.316V99.6603H331.067V95.7822Z" fill="#CACAD3"/>
<path d="M332.44 142.091H319.195V145.969H332.44V142.091Z" fill="#CACAD3"/>
<path d="M301.118 203.831H287.873V207.709H301.118V203.831Z" fill="#CACAD3"/>
<path d="M331.067 219.268H313.316V223.146H331.067V219.268Z" fill="#CACAD3"/>
<path d="M305.448 242.423H297.264V246.301H305.448V242.423Z" fill="#CACAD3"/>
<path d="M261.593 188.397H249.215V192.276H261.593V188.397Z" fill="#CACAD3"/>
<path d="M295.231 165.244H277.605V169.122H295.231V165.244Z" fill="#CACAD3"/>
<path d="M268.122 118.938H250.371V122.816H268.122V118.938Z" fill="#CACAD3"/>
<path d="M269.223 103.501H215.854V107.379H269.223V103.501Z" fill="url(#paint6_radial_29676_16909)"/>
<path d="M251.647 111.219H193.729V115.097H251.647V111.219Z" fill="url(#paint7_radial_29676_16909)"/>
<path d="M281.438 111.177H256.955V115.055H281.438V111.177Z" fill="url(#paint8_radial_29676_16909)"/>
<path d="M244.715 118.938H193.729V122.816H244.715V118.938Z" fill="url(#paint9_radial_29676_16909)"/>
<path d="M214.627 126.652H176.801V130.53H214.627V126.652Z" fill="url(#paint10_radial_29676_16909)"/>
<path d="M301.555 111.131H287.596V115.009H301.555V111.131Z" fill="url(#paint11_radial_29676_16909)"/>
<path d="M232.175 134.371H176.801V138.249H232.175V134.371Z" fill="url(#paint12_radial_29676_16909)"/>
<path d="M236.266 142.091H193.729V145.969H236.266V142.091Z" fill="url(#paint13_radial_29676_16909)"/>
<path d="M275.625 142.091H241.256V145.969H275.625V142.091Z" fill="#CACAD3"/>
<path d="M314.668 142.091H280.299V145.969H314.668V142.091Z" fill="#CACAD3"/>
<path d="M269.411 149.81H193.729V153.688H269.411V149.81Z" fill="url(#paint14_radial_29676_16909)"/>
<path d="M253.842 157.524H215.854V161.402H253.842V157.524Z" fill="url(#paint15_radial_29676_16909)"/>
<path d="M273.339 165.244H215.854V169.122H273.339V165.244Z" fill="url(#paint16_radial_29676_16909)"/>
<path d="M260.991 172.961H215.854V176.839H260.991V172.961Z" fill="url(#paint17_radial_29676_16909)"/>
<path d="M273.339 180.681H215.854V184.559H273.339V180.681Z" fill="url(#paint18_radial_29676_16909)"/>
<path d="M244.719 188.397H194.506V192.276H244.719V188.397Z" fill="url(#paint19_radial_29676_16909)"/>
<path d="M309.419 219.268H249.311V223.146H309.419V219.268Z" fill="#CACAD3"/>
<path d="M223.022 203.831H176.801V207.709H223.022V203.831Z" fill="url(#paint20_radial_29676_16909)"/>
<path d="M229.12 196.116H219.225V199.994H229.12V196.116Z" fill="url(#paint21_radial_29676_16909)"/>
<path d="M233.706 211.55H176.801V215.428H233.706V211.55Z" fill="url(#paint22_radial_29676_16909)"/>
<path d="M292.456 242.423H277.24V246.301H292.456V242.423Z" fill="url(#paint23_radial_29676_16909)"/>
<path d="M272.276 242.423H243.201V246.301H272.276V242.423Z" fill="#CACAD3"/>
<path d="M244.715 219.268H193.729V223.146H244.715V219.268Z" fill="url(#paint24_radial_29676_16909)"/>
<path d="M249.442 226.986H193.729V230.864H249.442V226.986Z" fill="url(#paint25_radial_29676_16909)"/>
<path d="M275.723 234.704H215.854V238.582H275.723V234.704Z" fill="url(#paint26_radial_29676_16909)"/>
<path d="M238.422 242.423H215.854V246.301H238.422V242.423Z" fill="url(#paint27_radial_29676_16909)"/>
<path d="M264.891 250.14H215.854V254.018H264.891V250.14Z" fill="url(#paint28_radial_29676_16909)"/>
<path d="M226.873 257.858H193.729V261.736H226.873V257.858Z" fill="url(#paint29_radial_29676_16909)"/>
<path d="M255.407 203.831H233.279V207.709H255.407V203.831Z" fill="url(#paint30_radial_29676_16909)"/>
<path d="M282.86 203.831H260.732V207.709H282.86V203.831Z" fill="#CACAD3"/>
<path d="M251.723 265.576H193.729V269.454H251.723V265.576Z" fill="url(#paint31_radial_29676_16909)"/>
<path d="M275.723 265.576H258.643V269.454H275.723V265.576Z" fill="url(#paint32_radial_29676_16909)"/>
<path d="M50.0855 81.3125H47.9258V84.5272H50.0855V81.3125Z" fill="white"/>
<path d="M50.0893 86.4219H46.9082V89.6366H50.0893V86.4219Z" fill="white"/>
<path d="M50.0893 91.5264H46.9082V94.741H50.0893V91.5264Z" fill="white"/>
<path d="M50.0893 96.6328H46.9082V99.8475H50.0893V96.6328Z" fill="white"/>
<path d="M50.0893 101.742H46.9082V104.957H50.0893V101.742Z" fill="white"/>
<path d="M50.0893 106.848H46.9082V110.062H50.0893V106.848Z" fill="white"/>
<path d="M50.0893 111.956H46.9082V115.171H50.0893V111.956Z" fill="white"/>
<path d="M50.0893 117.063H46.9082V120.278H50.0893V117.063Z" fill="white"/>
<path d="M50.0893 122.17H46.9082V125.385H50.0893V122.17Z" fill="white"/>
<path d="M50.0893 127.274H46.9082V130.489H50.0893V127.274Z" fill="white"/>
<path d="M49.9358 132.381H45.7188V135.596H49.9358V132.381Z" fill="white"/>
<path d="M49.9358 137.487H45.7188V140.702H49.9358V137.487Z" fill="white"/>
<path d="M49.9358 142.595H45.7188V145.809H49.9358V142.595Z" fill="white"/>
<path d="M49.9358 147.701H45.7188V150.916H49.9358V147.701Z" fill="white"/>
<path d="M49.9358 152.812H45.7188V156.026H49.9358V152.812Z" fill="white"/>
<path d="M49.9358 157.916H45.7188V161.131H49.9358V157.916Z" fill="white"/>
<path d="M49.9358 163.024H45.7188V166.239H49.9358V163.024Z" fill="white"/>
<path d="M49.9358 168.132H45.7188V171.347H49.9358V168.132Z" fill="white"/>
<path d="M49.9358 173.238H45.7188V176.453H49.9358V173.238Z" fill="white"/>
<path d="M49.9358 178.343H45.7188V181.557H49.9358V178.343Z" fill="white"/>
<path d="M49.9358 183.449H45.7188V186.664H49.9358V183.449Z" fill="white"/>
<path d="M49.9358 188.556H45.7188V191.77H49.9358V188.556Z" fill="white"/>
<path d="M49.9358 193.664H45.7188V196.879H49.9358V193.664Z" fill="white"/>
<path d="M49.9358 198.771H45.7188V201.985H49.9358V198.771Z" fill="white"/>
<path d="M49.9358 203.877H45.7188V207.092H49.9358V203.877Z" fill="white"/>
<path d="M49.9358 208.985H45.7188V212.2H49.9358V208.985Z" fill="white"/>
<path d="M49.9358 214.091H45.7188V217.306H49.9358V214.091Z" fill="white"/>
<path d="M49.9358 219.199H45.7188V222.414H49.9358V219.199Z" fill="white"/>
<path d="M49.9358 224.306H45.7188V227.52H49.9358V224.306Z" fill="white"/>
<path d="M49.9358 229.411H45.7188V232.626H49.9358V229.411Z" fill="white"/>
<path d="M49.9358 234.52H45.7188V237.734H49.9358V234.52Z" fill="white"/>
<path d="M49.9358 239.625H45.7188V242.84H49.9358V239.625Z" fill="white"/>
<path d="M49.9358 244.732H45.7188V247.947H49.9358V244.732Z" fill="white"/>
<path d="M49.9358 249.839H45.7188V253.054H49.9358V249.839Z" fill="white"/>
<path d="M102.289 81.3125H60.3477V84.5272H102.289V81.3125Z" fill="url(#paint33_radial_29676_16909)"/>
<path d="M90.3625 86.4219H60.3477V89.6366H90.3625V86.4219Z" fill="url(#paint34_radial_29676_16909)"/>
<path d="M101.255 91.5264H73.6602V94.741H101.255V91.5264Z" fill="url(#paint35_radial_29676_16909)"/>
<path d="M114.88 96.6328H89.4531V99.8475H114.88V96.6328Z" fill="url(#paint36_radial_29676_16909)"/>
<path d="M107.552 101.742H89.4531V104.957H107.552V101.742Z" fill="url(#paint37_radial_29676_16909)"/>
<path d="M114.88 106.848H89.4531V110.062H114.88V106.848Z" fill="url(#paint38_radial_29676_16909)"/>
<path d="M101.255 111.956H73.6602V115.171H101.255V111.956Z" fill="url(#paint39_radial_29676_16909)"/>
<path d="M97.9515 117.063H73.6602V120.278H97.9515V117.063Z" fill="url(#paint40_radial_29676_16909)"/>
<path d="M78.3689 122.17H60.3477V125.385H78.3689V122.17Z" fill="url(#paint41_radial_29676_16909)"/>
<path d="M86.73 127.274H60.3477V130.489H86.73V127.274Z" fill="url(#paint42_radial_29676_16909)"/>
<path d="M93.9273 132.381H73.6602V135.596H93.9273V132.381Z" fill="url(#paint43_radial_29676_16909)"/>
<path d="M109.719 137.487H73.6602V140.702H109.719V137.487Z" fill="url(#paint44_radial_29676_16909)"/>
<path d="M107.552 142.595H89.4531V145.809H107.552V142.595Z" fill="url(#paint45_radial_29676_16909)"/>
<path d="M116.841 147.701H89.4531V150.916H116.841V147.701Z" fill="url(#paint46_radial_29676_16909)"/>
<path d="M110.958 152.812H89.4531V156.026H110.958V152.812Z" fill="url(#paint47_radial_29676_16909)"/>
<path d="M116.841 157.916H89.4531V161.131H116.841V157.916Z" fill="url(#paint48_radial_29676_16909)"/>
<path d="M97.9524 163.024H74.0293V166.239H97.9524V163.024Z" fill="url(#paint49_radial_29676_16909)"/>
<path d="M82.3682 168.132H60.3477V171.347H82.3682V168.132Z" fill="url(#paint50_radial_29676_16909)"/>
<path d="M90.522 168.132H85.8066V171.347H90.522V168.132Z" fill="url(#paint51_radial_29676_16909)"/>
<path d="M87.4591 173.238H60.3477V176.453H87.4591V173.238Z" fill="url(#paint52_radial_29676_16909)"/>
<path d="M97.9515 178.343H73.6602V181.557H97.9515V178.343Z" fill="url(#paint53_radial_29676_16909)"/>
<path d="M100.205 183.449H73.6602V186.664H100.205V183.449Z" fill="url(#paint54_radial_29676_16909)"/>
<path d="M117.976 188.556H89.4531V191.77H117.976V188.556Z" fill="url(#paint55_radial_29676_16909)"/>
<path d="M100.206 193.664H89.4531V196.879H100.206V193.664Z" fill="url(#paint56_radial_29676_16909)"/>
<path d="M112.817 198.771H89.4531V201.985H112.817V198.771Z" fill="url(#paint57_radial_29676_16909)"/>
<path d="M89.4515 203.877H73.6602V207.092H89.4515V203.877Z" fill="url(#paint58_radial_29676_16909)"/>
<path d="M100.205 203.877H93.2383V207.092H100.205V203.877Z" fill="url(#paint59_radial_29676_16909)"/>
<path d="M99.8101 208.985H73.6602V212.2H99.8101V208.985Z" fill="url(#paint60_radial_29676_16909)"/>
<path d="M101.257 214.091H89.4531V217.306H101.257V214.091Z" fill="url(#paint61_radial_29676_16909)"/>
<path d="M116.841 219.199H89.4531V222.414H116.841V219.199Z" fill="url(#paint62_radial_29676_16909)"/>
<path d="M101.255 224.306H73.6602V227.52H101.255V224.306Z" fill="url(#paint63_radial_29676_16909)"/>
<path d="M95.2708 229.411H60.3477V232.626H95.2708V229.411Z" fill="url(#paint64_radial_29676_16909)"/>
<path d="M82.3682 234.52H60.3477V237.734H82.3682V234.52Z" fill="url(#paint65_radial_29676_16909)"/>
<path d="M90.8309 239.625H73.6602V242.84H90.8309V239.625Z" fill="url(#paint66_radial_29676_16909)"/>
<path d="M103.421 239.625H93.9922V242.84H103.421V239.625Z" fill="url(#paint67_radial_29676_16909)"/>
<path d="M86.5999 244.732H60.3477V247.947H86.5999V244.732Z" fill="url(#paint68_radial_29676_16909)"/>
<path d="M70.7062 249.839H60.3477V253.054H70.7062V249.839Z" fill="url(#paint69_radial_29676_16909)"/>
<path d="M6.04388 40.4473H412.85C415.907 40.4473 418.388 42.9284 418.388 45.9853V53.7034H0.505859V45.9853C0.505859 42.9284 2.98701 40.4473 6.04388 40.4473Z" fill="#9292A5"/>
<path d="M17.764 47.455C17.9778 45.2938 16.3992 43.3686 14.2381 43.1548C12.077 42.941 10.1517 44.5196 9.93791 46.6807C9.7241 48.8418 11.3027 50.7671 13.4638 50.9809C15.6249 51.1947 17.5502 49.6161 17.764 47.455Z" fill="#393946"/>
<path d="M31.4652 47.455C31.679 45.2939 30.1004 43.3686 27.9392 43.1548C25.7781 42.941 23.8529 44.5196 23.6391 46.6807C23.4253 48.8418 25.0039 50.7671 27.165 50.9809C29.3261 51.1947 31.2513 49.6161 31.4652 47.455Z" fill="#393946"/>
<path d="M42.1647 50.908C44.2783 50.4091 45.5873 48.2913 45.0885 46.1777C44.5896 44.0641 42.4718 42.7551 40.3582 43.254C38.2446 43.7528 36.9356 45.8706 37.4345 47.9842C37.9334 50.0978 40.0512 51.4068 42.1647 50.908Z" fill="#393946"/>
<path d="M352.46 120.074C354.923 120.074 356.919 118.077 356.919 115.614C356.919 113.151 354.923 111.154 352.46 111.154C349.997 111.154 348 113.151 348 115.614C348 118.077 349.997 120.074 352.46 120.074Z" fill="white"/>
<path d="M217.46 178.919C219.923 178.919 221.919 176.923 221.919 174.46C221.919 171.997 219.923 170 217.46 170C214.997 170 213 171.997 213 174.46C213 176.923 214.997 178.919 217.46 178.919Z" fill="white"/>
<path d="M73.4596 214.919C75.9226 214.919 77.9193 212.923 77.9193 210.46C77.9193 207.997 75.9226 206 73.4596 206C70.9967 206 69 207.997 69 210.46C69 212.923 70.9967 214.919 73.4596 214.919Z" fill="white"/>
<rect x="98" y="278" width="48" height="48" rx="7" fill="#FAC2D9"/>
<rect x="309" y="15" width="48" height="48" rx="24" fill="#FDE8BE"/>
<path d="M130.25 303.13V298.827C130.248 296.909 129.557 295.054 128.298 293.59C127.04 292.126 125.296 291.148 123.375 290.828V289.353C123.375 288.994 123.23 288.65 122.972 288.396C122.714 288.143 122.365 288 122 288C121.635 288 121.286 288.143 121.028 288.396C120.77 288.65 120.625 288.994 120.625 289.353V290.828C118.704 291.148 116.96 292.126 115.702 293.59C114.443 295.054 113.752 296.909 113.75 298.827V303.13C112.948 303.409 112.253 303.926 111.76 304.609C111.268 305.292 111.002 306.109 111 306.946V309.653C111 310.012 111.145 310.356 111.403 310.61C111.661 310.864 112.01 311.006 112.375 311.006H116.693C117.009 312.153 117.7 313.165 118.66 313.887C119.619 314.609 120.793 315 122 315C123.207 315 124.381 314.609 125.34 313.887C126.3 313.165 126.991 312.153 127.307 311.006H131.625C131.99 311.006 132.339 310.864 132.597 310.61C132.855 310.356 133 310.012 133 309.653V306.946C132.998 306.109 132.732 305.292 132.24 304.609C131.747 303.926 131.052 303.409 130.25 303.13ZM116.5 298.827C116.5 297.391 117.079 296.014 118.111 294.999C119.142 293.984 120.541 293.413 122 293.413C123.459 293.413 124.858 293.984 125.889 294.999C126.921 296.014 127.5 297.391 127.5 298.827V302.886H116.5V298.827ZM122 312.36C121.52 312.357 121.049 312.23 120.634 311.993C120.219 311.756 119.875 311.415 119.635 311.006H124.365C124.125 311.415 123.781 311.756 123.366 311.993C122.951 312.23 122.48 312.357 122 312.36ZM130.25 308.3H113.75V306.946C113.75 306.587 113.895 306.243 114.153 305.989C114.411 305.736 114.76 305.593 115.125 305.593H128.875C129.24 305.593 129.589 305.736 129.847 305.989C130.105 306.243 130.25 306.587 130.25 306.946V308.3Z" fill="#F2639F"/>
<g clip-path="url(#clip0_29676_16909)">
<path d="M328.255 43.1092H337.745C338.722 43.1092 339.327 42.0537 338.838 41.211L334.093 32.9926C333.605 32.1499 332.389 32.1499 331.905 32.9926L327.16 41.211C326.671 42.0537 327.283 43.1092 328.253 43.1092H328.255ZM333 22C323.613 22 316 29.6135 316 39C316 48.3865 323.613 56 333 56C342.387 56 350 48.3865 350 39C350 29.6135 342.387 22 333 22ZM333.044 29.7762C338.14 29.8012 342.249 33.9501 342.224 39.0459C342.199 44.1417 338.05 48.2509 332.954 48.2259C327.858 48.2009 323.749 44.052 323.774 38.9562C323.799 33.8604 327.948 29.7512 333.044 29.7762ZM320.919 44.2272C320.814 44.2627 320.716 44.2773 320.614 44.2773C320.201 44.2773 319.811 44.0103 319.677 43.5973C319.214 42.1726 318.983 40.6416 318.983 39.0438C318.983 38.1573 319.056 37.2312 319.204 36.2988C320.318 30.6418 324.663 26.2761 330.28 25.1372C330.816 25.0287 331.335 25.3729 331.444 25.9069C331.552 26.4409 331.208 26.9623 330.674 27.0708C325.841 28.047 322.101 31.8058 321.15 36.6409C321.027 37.4335 320.962 38.2574 320.962 39.0396C320.962 40.4247 321.165 41.7555 321.563 42.982C321.73 43.4993 321.45 44.0562 320.927 44.2231L320.916 44.2272H320.919ZM343.753 48.2968C341.16 51.3818 337.43 53.0756 333.252 53.0756C329.074 53.0756 325.111 51.3568 322.416 48.3594C322.051 47.9547 322.087 47.329 322.489 46.9702C322.894 46.6052 323.52 46.6406 323.878 47.0453C326.165 49.588 329.663 51.1107 333.246 51.1107C336.83 51.1107 340.027 49.6631 342.238 47.0307C342.589 46.6177 343.208 46.5572 343.628 46.9118C344.047 47.2622 344.095 47.8817 343.747 48.301L343.751 48.2968H343.753ZM346.419 43.5326C346.277 43.9415 345.897 44.1939 345.486 44.1939C345.378 44.1939 345.269 44.173 345.161 44.1396C344.648 43.9623 344.376 43.4012 344.554 42.8839C344.727 42.3812 344.883 41.8535 345.013 41.3112C345.161 40.5665 345.24 39.7697 345.24 38.9812C345.24 33.1971 341.116 28.1847 335.43 27.0625C334.898 26.9582 334.529 26.4409 334.627 25.909C334.725 25.3771 335.217 25.0225 335.745 25.1163C335.755 25.1163 335.799 25.1267 335.81 25.1309C342.412 26.4325 347.207 32.2605 347.207 38.9812C347.207 39.8969 347.117 40.8252 346.936 41.7304C346.784 42.375 346.61 42.9674 346.414 43.5347H346.419V43.5326Z" fill="#FB9D5A"/>
</g>
<path d="M354.576 116.28H366.283C369.249 116.28 371.654 113.57 371.654 110.226V100.054C371.654 96.71 374.058 94 377.025 94H443.205C446.172 94 448.576 96.71 448.576 100.054V190" stroke="white" stroke-width="3" stroke-miterlimit="10"/>
<rect x="382.576" y="148" width="83" height="105" rx="7" fill="#FDBEC4"/>
<path d="M410.874 164.749C411.318 165.196 412.042 165.196 412.489 164.749C412.934 164.302 412.934 163.577 412.489 163.13L410.507 161.145C410.062 160.698 409.339 160.698 408.892 161.145C408.447 161.591 408.447 162.317 408.892 162.764L410.874 164.749ZM422.577 162.276C423.207 162.276 423.72 161.764 423.72 161.132V159.144C423.72 158.512 423.207 158 422.577 158C421.947 158 421.435 158.512 421.435 159.144V161.129C421.435 161.761 421.947 162.273 422.577 162.273V162.276ZM434.281 164.749L436.263 162.764C436.708 162.317 436.708 161.591 436.263 161.145C435.818 160.698 435.094 160.698 434.647 161.145L432.668 163.13C432.223 163.577 432.223 164.302 432.668 164.749C433.112 165.196 433.836 165.196 434.281 164.749ZM432.343 182.734L430.708 169.45C430.59 168.484 430.082 167.591 429.279 166.941C428.479 166.29 427.439 165.928 426.362 165.919H418.816C417.728 165.913 416.675 166.27 415.862 166.922C415.049 167.573 414.532 168.473 414.412 169.447L412.775 182.749C411.735 182.93 410.762 183.414 409.999 184.157C409.012 185.114 408.449 186.424 408.449 187.797C408.449 188.66 408.802 189.479 409.419 190.076C410.034 190.671 410.858 191 411.711 191H433.5C434.351 191 435.177 190.673 435.79 190.076C436.405 189.479 436.76 188.66 436.76 187.797C436.76 186.424 436.197 185.116 435.21 184.157C434.423 183.392 433.415 182.902 432.341 182.734H432.343ZM417.512 175.541C418.075 175.113 418.877 175.227 419.302 175.791L421.154 178.252L425.093 171.252C425.44 170.635 426.221 170.417 426.835 170.766C427.45 171.115 427.668 171.895 427.322 172.511L423.166 179.897C423.166 179.897 423.162 179.903 423.162 179.908C422.974 180.235 422.73 180.505 422.438 180.71C422.122 180.93 421.762 181.065 421.389 181.095C421.315 181.104 421.241 181.108 421.167 181.108C420.857 181.108 420.547 181.039 420.262 180.901C419.933 180.742 419.638 180.496 419.409 180.189L417.264 177.338C416.839 176.774 416.95 175.97 417.515 175.543L417.512 175.541ZM434.011 188.235C433.882 188.361 433.699 188.437 433.498 188.437H411.709C411.51 188.437 411.325 188.361 411.196 188.235C411.07 188.11 411.004 187.953 411.004 187.797C411.004 187.13 411.277 186.482 411.776 185.999C412.278 185.513 412.964 185.234 413.688 185.234H431.519C432.245 185.234 432.931 185.515 433.431 185.999C433.93 186.482 434.203 187.13 434.203 187.797C434.203 187.953 434.139 188.113 434.011 188.235ZM410.841 171.882C410.841 171.25 410.328 170.738 409.698 170.738H407.719C407.089 170.738 406.576 171.25 406.576 171.882C406.576 172.514 407.089 173.026 407.719 173.026H409.698C410.328 173.026 410.841 172.514 410.841 171.882ZM437.434 170.738H435.452C434.822 170.738 434.309 171.25 434.309 171.882C434.309 172.514 434.822 173.026 435.452 173.026H437.434C438.064 173.026 438.576 172.514 438.576 171.882C438.576 171.25 438.064 170.738 437.434 170.738Z" fill="#FB755A"/>
<path d="M454.45 199H394.578V202.871H454.45V199Z" fill="#FB755A"/>
<path d="M415.051 207.037H394.578V210.908H415.051V207.037Z" fill="#FB755A"/>
<path d="M454.45 207.037H419.695V210.908H454.45V207.037Z" fill="#FB755A"/>
<path d="M423.805 214.513H394.578V218.384H423.805V214.513Z" fill="#FB755A"/>
<path d="M423.805 237.129H394.578V241H423.805V237.129Z" fill="#FB755A"/>
<path d="M454.451 214.513H428.004V218.384H454.451V214.513Z" fill="#FB755A"/>
<path d="M433.976 233.076H454.449V229.205H433.976V233.076Z" fill="#FB755A"/>
<path d="M394.577 233.076H429.332V229.205H394.577V233.076Z" fill="#FB755A"/>
<path d="M425.222 225.6H454.449V221.728H425.222V225.6Z" fill="#FB755A"/>
<path d="M394.579 225.6H421.025V221.728H394.579V225.6Z" fill="#FB755A"/>
<path d="M216.5 175H197.5C191.977 175 187.5 170.523 187.5 165V12C187.5 6.47715 191.977 2 197.5 2H323C328.523 2 333 6.47715 333 12V15" stroke="white" stroke-width="3"/>
<path d="M73 211H38C32.4772 211 28 215.477 28 221V292C28 297.523 32.4772 302 38 302H98" stroke="white" stroke-width="3"/>
<defs>
<radialGradient id="paint0_radial_29676_16909" cx="0" cy="0" r="1" gradientUnits="userSpaceOnUse" gradientTransform="translate(176.801 65.3596) rotate(2.34207) scale(83.9488 13.0011)">
<stop stop-color="#FB9D5A"/>
<stop offset="1" stop-color="#FB755A"/>
</radialGradient>
<radialGradient id="paint1_radial_29676_16909" cx="0" cy="0" r="1" gradientUnits="userSpaceOnUse" gradientTransform="translate(176.801 73.0783) rotate(3.27093) scale(60.1253 12.9907)">
<stop stop-color="#FB9D5A"/>
<stop offset="1" stop-color="#FB755A"/>
</radialGradient>
<radialGradient id="paint2_radial_29676_16909" cx="0" cy="0" r="1" gradientUnits="userSpaceOnUse" gradientTransform="translate(320.734 73.0783) rotate(17.0987) scale(11.668 12.4368)">
<stop stop-color="#FB9D5A"/>
<stop offset="1" stop-color="#FB755A"/>
</radialGradient>
<radialGradient id="paint3_radial_29676_16909" cx="0" cy="0" r="1" gradientUnits="userSpaceOnUse" gradientTransform="translate(193.729 80.7942) rotate(3.55716) scale(55.2929 12.9869)">
<stop stop-color="#FB9D5A"/>
<stop offset="1" stop-color="#FB755A"/>
</radialGradient>
<radialGradient id="paint4_radial_29676_16909" cx="0" cy="0" r="1" gradientUnits="userSpaceOnUse" gradientTransform="translate(215.854 88.5129) rotate(3.85946) scale(50.9677 12.9824)">
<stop stop-color="#FB9D5A"/>
<stop offset="1" stop-color="#FB755A"/>
</radialGradient>
<radialGradient id="paint5_radial_29676_16909" cx="0" cy="0" r="1" gradientUnits="userSpaceOnUse" gradientTransform="translate(215.854 96.2297) rotate(5.41411) scale(36.359 12.9538)">
<stop stop-color="#FB9D5A"/>
<stop offset="1" stop-color="#FB755A"/>
</radialGradient>
<radialGradient id="paint6_radial_29676_16909" cx="0" cy="0" r="1" gradientUnits="userSpaceOnUse" gradientTransform="translate(215.854 103.948) rotate(3.85946) scale(50.9677 12.9824)">
<stop stop-color="#FB9D5A"/>
<stop offset="1" stop-color="#FB755A"/>
</radialGradient>
<radialGradient id="paint7_radial_29676_16909" cx="0" cy="0" r="1" gradientUnits="userSpaceOnUse" gradientTransform="translate(193.729 111.666) rotate(3.55716) scale(55.2929 12.9868)">
<stop stop-color="#FB9D5A"/>
<stop offset="1" stop-color="#FB755A"/>
</radialGradient>
<radialGradient id="paint8_radial_29676_16909" cx="0" cy="0" r="1" gradientUnits="userSpaceOnUse" gradientTransform="translate(256.955 111.624) rotate(8.36599) scale(23.5788 12.8735)">
<stop stop-color="#FB9D5A"/>
<stop offset="1" stop-color="#FB755A"/>
</radialGradient>
<radialGradient id="paint9_radial_29676_16909" cx="0" cy="0" r="1" gradientUnits="userSpaceOnUse" gradientTransform="translate(193.729 119.385) rotate(4.03928) scale(48.7023 12.9796)">
<stop stop-color="#FB9D5A"/>
<stop offset="1" stop-color="#FB755A"/>
</radialGradient>
<radialGradient id="paint10_radial_29676_16909" cx="0" cy="0" r="1" gradientUnits="userSpaceOnUse" gradientTransform="translate(176.801 127.1) rotate(5.43717) scale(36.2052 12.9533)">
<stop stop-color="#FB9D5A"/>
<stop offset="1" stop-color="#FB755A"/>
</radialGradient>
<radialGradient id="paint11_radial_29676_16909" cx="0" cy="0" r="1" gradientUnits="userSpaceOnUse" gradientTransform="translate(287.596 111.578) rotate(14.463) scale(13.7359 12.5996)">
<stop stop-color="#FB9D5A"/>
<stop offset="1" stop-color="#FB755A"/>
</radialGradient>
<radialGradient id="paint12_radial_29676_16909" cx="0" cy="0" r="1" gradientUnits="userSpaceOnUse" gradientTransform="translate(176.801 134.819) rotate(3.72014) scale(52.8738 12.9845)">
<stop stop-color="#FB9D5A"/>
<stop offset="1" stop-color="#FB755A"/>
</radialGradient>
<radialGradient id="paint13_radial_29676_16909" cx="0" cy="0" r="1" gradientUnits="userSpaceOnUse" gradientTransform="translate(193.729 142.538) rotate(4.83805) scale(40.676 12.9655)">
<stop stop-color="#FB9D5A"/>
<stop offset="1" stop-color="#FB755A"/>
</radialGradient>
<radialGradient id="paint14_radial_29676_16909" cx="0" cy="0" r="1" gradientUnits="userSpaceOnUse" gradientTransform="translate(193.729 150.257) rotate(2.72368) scale(72.194 12.9972)">
<stop stop-color="#FB9D5A"/>
<stop offset="1" stop-color="#FB755A"/>
</radialGradient>
<radialGradient id="paint15_radial_29676_16909" cx="0" cy="0" r="1" gradientUnits="userSpaceOnUse" gradientTransform="translate(215.854 157.972) rotate(5.4141) scale(36.359 12.9538)">
<stop stop-color="#FB9D5A"/>
<stop offset="1" stop-color="#FB755A"/>
</radialGradient>
<radialGradient id="paint16_radial_29676_16909" cx="0" cy="0" r="1" gradientUnits="userSpaceOnUse" gradientTransform="translate(215.854 165.692) rotate(3.58386) scale(54.8815 12.9865)">
<stop stop-color="#FB9D5A"/>
<stop offset="1" stop-color="#FB755A"/>
</radialGradient>
<radialGradient id="paint17_radial_29676_16909" cx="0" cy="0" r="1" gradientUnits="userSpaceOnUse" gradientTransform="translate(215.854 173.408) rotate(4.56063) scale(43.1445 12.9707)">
<stop stop-color="#FB9D5A"/>
<stop offset="1" stop-color="#FB755A"/>
</radialGradient>
<radialGradient id="paint18_radial_29676_16909" cx="0" cy="0" r="1" gradientUnits="userSpaceOnUse" gradientTransform="translate(215.854 181.128) rotate(3.58386) scale(54.8815 12.9865)">
<stop stop-color="#FB9D5A"/>
<stop offset="1" stop-color="#FB755A"/>
</radialGradient>
<radialGradient id="paint19_radial_29676_16909" cx="0" cy="0" r="1" gradientUnits="userSpaceOnUse" gradientTransform="translate(194.506 188.845) rotate(4.10125) scale(47.9676 12.9786)">
<stop stop-color="#FB9D5A"/>
<stop offset="1" stop-color="#FB755A"/>
</radialGradient>
<radialGradient id="paint20_radial_29676_16909" cx="0" cy="0" r="1" gradientUnits="userSpaceOnUse" gradientTransform="translate(176.801 204.279) rotate(4.45411) scale(44.1744 12.9726)">
<stop stop-color="#FB9D5A"/>
<stop offset="1" stop-color="#FB755A"/>
</radialGradient>
<radialGradient id="paint21_radial_29676_16909" cx="0" cy="0" r="1" gradientUnits="userSpaceOnUse" gradientTransform="translate(219.225 196.564) rotate(19.994) scale(10.0333 12.2277)">
<stop stop-color="#FB9D5A"/>
<stop offset="1" stop-color="#FB755A"/>
</radialGradient>
<radialGradient id="paint22_radial_29676_16909" cx="0" cy="0" r="1" gradientUnits="userSpaceOnUse" gradientTransform="translate(176.801 211.997) rotate(3.62028) scale(54.3299 12.9859)">
<stop stop-color="#FB9D5A"/>
<stop offset="1" stop-color="#FB755A"/>
</radialGradient>
<radialGradient id="paint23_radial_29676_16909" cx="0" cy="0" r="1" gradientUnits="userSpaceOnUse" gradientTransform="translate(277.24 242.87) rotate(13.3128) scale(14.8983 12.6622)">
<stop stop-color="#FB9D5A"/>
<stop offset="1" stop-color="#FB755A"/>
</radialGradient>
<radialGradient id="paint24_radial_29676_16909" cx="0" cy="0" r="1" gradientUnits="userSpaceOnUse" gradientTransform="translate(193.729 219.715) rotate(4.03928) scale(48.7023 12.9796)">
<stop stop-color="#FB9D5A"/>
<stop offset="1" stop-color="#FB755A"/>
</radialGradient>
<radialGradient id="paint25_radial_29676_16909" cx="0" cy="0" r="1" gradientUnits="userSpaceOnUse" gradientTransform="translate(193.729 227.434) rotate(3.69755) scale(53.1961 12.9848)">
<stop stop-color="#FB9D5A"/>
<stop offset="1" stop-color="#FB755A"/>
</radialGradient>
<radialGradient id="paint26_radial_29676_16909" cx="0" cy="0" r="1" gradientUnits="userSpaceOnUse" gradientTransform="translate(215.854 235.152) rotate(3.44154) scale(57.1481 12.9885)">
<stop stop-color="#FB9D5A"/>
<stop offset="1" stop-color="#FB755A"/>
</radialGradient>
<radialGradient id="paint27_radial_29676_16909" cx="0" cy="0" r="1" gradientUnits="userSpaceOnUse" gradientTransform="translate(215.854 242.87) rotate(9.06419) scale(21.7759 12.8494)">
<stop stop-color="#FB9D5A"/>
<stop offset="1" stop-color="#FB755A"/>
</radialGradient>
<radialGradient id="paint28_radial_29676_16909" cx="0" cy="0" r="1" gradientUnits="userSpaceOnUse" gradientTransform="translate(215.854 250.587) rotate(4.19929) scale(46.8497 12.977)">
<stop stop-color="#FB9D5A"/>
<stop offset="1" stop-color="#FB755A"/>
</radialGradient>
<radialGradient id="paint29_radial_29676_16909" cx="0" cy="0" r="1" gradientUnits="userSpaceOnUse" gradientTransform="translate(193.729 258.306) rotate(6.19957) scale(31.7672 12.9358)">
<stop stop-color="#FB9D5A"/>
<stop offset="1" stop-color="#FB755A"/>
</radialGradient>
<radialGradient id="paint30_radial_29676_16909" cx="0" cy="0" r="1" gradientUnits="userSpaceOnUse" gradientTransform="translate(233.279 204.279) rotate(9.24191) scale(21.3608 12.843)">
<stop stop-color="#FB9D5A"/>
<stop offset="1" stop-color="#FB755A"/>
</radialGradient>
<radialGradient id="paint31_radial_29676_16909" cx="0" cy="0" r="1" gradientUnits="userSpaceOnUse" gradientTransform="translate(193.729 266.024) rotate(3.55251) scale(55.3651 12.9869)">
<stop stop-color="#FB9D5A"/>
<stop offset="1" stop-color="#FB755A"/>
</radialGradient>
<radialGradient id="paint32_radial_29676_16909" cx="0" cy="0" r="1" gradientUnits="userSpaceOnUse" gradientTransform="translate(258.643 266.024) rotate(11.9035) scale(16.6322 12.7321)">
<stop stop-color="#FB9D5A"/>
<stop offset="1" stop-color="#FB755A"/>
</radialGradient>
<radialGradient id="paint33_radial_29676_16909" cx="0" cy="0" r="1" gradientUnits="userSpaceOnUse" gradientTransform="translate(66.058 82.2522) rotate(4.30052) scale(32.9764 9.16649)">
<stop stop-color="#F2639F"/>
<stop offset="1" stop-color="#CE64CE"/>
</radialGradient>
<radialGradient id="paint34_radial_29676_16909" cx="0" cy="0" r="1" gradientUnits="userSpaceOnUse" gradientTransform="translate(64.4342 87.3616) rotate(5.99864) scale(23.6624 9.14204)">
<stop stop-color="#F2639F"/>
<stop offset="1" stop-color="#CE64CE"/>
</radialGradient>
<radialGradient id="paint35_radial_29676_16909" cx="0" cy="0" r="1" gradientUnits="userSpaceOnUse" gradientTransform="translate(77.4172 92.466) rotate(6.5203) scale(21.7765 9.13291)">
<stop stop-color="#F2639F"/>
<stop offset="1" stop-color="#CE64CE"/>
</radialGradient>
<radialGradient id="paint36_radial_29676_16909" cx="0" cy="0" r="1" gradientUnits="userSpaceOnUse" gradientTransform="translate(92.915 97.5725) rotate(7.07096) scale(20.0882 9.12246)">
<stop stop-color="#F2639F"/>
<stop offset="1" stop-color="#CE64CE"/>
</radialGradient>
<radialGradient id="paint37_radial_29676_16909" cx="0" cy="0" r="1" gradientUnits="userSpaceOnUse" gradientTransform="translate(91.9173 102.682) rotate(9.88541) scale(14.4039 9.05589)">
<stop stop-color="#F2639F"/>
<stop offset="1" stop-color="#CE64CE"/>
</radialGradient>
<radialGradient id="paint38_radial_29676_16909" cx="0" cy="0" r="1" gradientUnits="userSpaceOnUse" gradientTransform="translate(92.915 107.787) rotate(7.07096) scale(20.0882 9.12246)">
<stop stop-color="#F2639F"/>
<stop offset="1" stop-color="#CE64CE"/>
</radialGradient>
<radialGradient id="paint39_radial_29676_16909" cx="0" cy="0" r="1" gradientUnits="userSpaceOnUse" gradientTransform="translate(77.4172 112.896) rotate(6.5203) scale(21.7765 9.13291)">
<stop stop-color="#F2639F"/>
<stop offset="1" stop-color="#CE64CE"/>
</radialGradient>
<radialGradient id="paint40_radial_29676_16909" cx="0" cy="0" r="1" gradientUnits="userSpaceOnUse" gradientTransform="translate(76.9674 118.003) rotate(7.39787) scale(19.2052 9.11585)">
<stop stop-color="#F2639F"/>
<stop offset="1" stop-color="#CE64CE"/>
</radialGradient>
<radialGradient id="paint41_radial_29676_16909" cx="0" cy="0" r="1" gradientUnits="userSpaceOnUse" gradientTransform="translate(62.8012 123.11) rotate(9.92704) scale(14.3441 9.05474)">
<stop stop-color="#F2639F"/>
<stop offset="1" stop-color="#CE64CE"/>
</radialGradient>
<radialGradient id="paint42_radial_29676_16909" cx="0" cy="0" r="1" gradientUnits="userSpaceOnUse" gradientTransform="translate(63.9396 128.214) rotate(6.81728) scale(20.832 9.12738)">
<stop stop-color="#F2639F"/>
<stop offset="1" stop-color="#CE64CE"/>
</radialGradient>
<radialGradient id="paint43_radial_29676_16909" cx="0" cy="0" r="1" gradientUnits="userSpaceOnUse" gradientTransform="translate(76.4195 133.321) rotate(8.84543) scale(16.0814 9.08304)">
<stop stop-color="#F2639F"/>
<stop offset="1" stop-color="#CE64CE"/>
</radialGradient>
<radialGradient id="paint44_radial_29676_16909" cx="0" cy="0" r="1" gradientUnits="userSpaceOnUse" gradientTransform="translate(78.5695 138.427) rotate(4.99884) scale(28.3792 9.15741)">
<stop stop-color="#F2639F"/>
<stop offset="1" stop-color="#CE64CE"/>
</radialGradient>
<radialGradient id="paint45_radial_29676_16909" cx="0" cy="0" r="1" gradientUnits="userSpaceOnUse" gradientTransform="translate(91.9173 143.534) rotate(9.88541) scale(14.4039 9.05589)">
<stop stop-color="#F2639F"/>
<stop offset="1" stop-color="#CE64CE"/>
</radialGradient>
<radialGradient id="paint46_radial_29676_16909" cx="0" cy="0" r="1" gradientUnits="userSpaceOnUse" gradientTransform="translate(93.182 148.641) rotate(6.56927) scale(21.6149 9.13202)">
<stop stop-color="#F2639F"/>
<stop offset="1" stop-color="#CE64CE"/>
</radialGradient>
<radialGradient id="paint47_radial_29676_16909" cx="0" cy="0" r="1" gradientUnits="userSpaceOnUse" gradientTransform="translate(92.381 153.751) rotate(8.34373) scale(17.0409 9.09507)">
<stop stop-color="#F2639F"/>
<stop offset="1" stop-color="#CE64CE"/>
</radialGradient>
<radialGradient id="paint48_radial_29676_16909" cx="0" cy="0" r="1" gradientUnits="userSpaceOnUse" gradientTransform="translate(93.182 158.856) rotate(6.56927) scale(21.6149 9.13202)">
<stop stop-color="#F2639F"/>
<stop offset="1" stop-color="#CE64CE"/>
</radialGradient>
<radialGradient id="paint49_radial_29676_16909" cx="0" cy="0" r="1" gradientUnits="userSpaceOnUse" gradientTransform="translate(77.2864 163.964) rotate(7.51045) scale(18.9189 9.11351)">
<stop stop-color="#F2639F"/>
<stop offset="1" stop-color="#CE64CE"/>
</radialGradient>
<radialGradient id="paint50_radial_29676_16909" cx="0" cy="0" r="1" gradientUnits="userSpaceOnUse" gradientTransform="translate(63.3458 169.072) rotate(8.15095) scale(17.4411 9.09951)">
<stop stop-color="#F2639F"/>
<stop offset="1" stop-color="#CE64CE"/>
</radialGradient>
<radialGradient id="paint51_radial_29676_16909" cx="0" cy="0" r="1" gradientUnits="userSpaceOnUse" gradientTransform="translate(86.4486 169.072) rotate(33.7775) scale(4.44779 7.64073)">
<stop stop-color="#F2639F"/>
<stop offset="1" stop-color="#CE64CE"/>
</radialGradient>
<radialGradient id="paint52_radial_29676_16909" cx="0" cy="0" r="1" gradientUnits="userSpaceOnUse" gradientTransform="translate(64.0389 174.178) rotate(6.63559) scale(21.3997 9.13079)">
<stop stop-color="#F2639F"/>
<stop offset="1" stop-color="#CE64CE"/>
</radialGradient>
<radialGradient id="paint53_radial_29676_16909" cx="0" cy="0" r="1" gradientUnits="userSpaceOnUse" gradientTransform="translate(76.9674 179.282) rotate(7.39787) scale(19.2052 9.11585)">
<stop stop-color="#F2639F"/>
<stop offset="1" stop-color="#CE64CE"/>
</radialGradient>
<radialGradient id="paint54_radial_29676_16909" cx="0" cy="0" r="1" gradientUnits="userSpaceOnUse" gradientTransform="translate(77.2742 184.389) rotate(6.77602) scale(20.9583 9.12816)">
<stop stop-color="#F2639F"/>
<stop offset="1" stop-color="#CE64CE"/>
</radialGradient>
<radialGradient id="paint55_radial_29676_16909" cx="0" cy="0" r="1" gradientUnits="userSpaceOnUse" gradientTransform="translate(93.3365 189.495) rotate(6.30993) scale(22.4994 9.13668)">
<stop stop-color="#F2639F"/>
<stop offset="1" stop-color="#CE64CE"/>
</radialGradient>
<radialGradient id="paint56_radial_29676_16909" cx="0" cy="0" r="1" gradientUnits="userSpaceOnUse" gradientTransform="translate(90.9172 194.604) rotate(16.3468) scale(8.78601 8.82077)">
<stop stop-color="#F2639F"/>
<stop offset="1" stop-color="#CE64CE"/>
</radialGradient>
<radialGradient id="paint57_radial_29676_16909" cx="0" cy="0" r="1" gradientUnits="userSpaceOnUse" gradientTransform="translate(92.6341 199.71) rotate(7.68823) scale(18.484 9.10974)">
<stop stop-color="#F2639F"/>
<stop offset="1" stop-color="#CE64CE"/>
</radialGradient>
<radialGradient id="paint58_radial_29676_16909" cx="0" cy="0" r="1" gradientUnits="userSpaceOnUse" gradientTransform="translate(75.8102 204.817) rotate(11.2949) scale(12.6256 9.01433)">
<stop stop-color="#F2639F"/>
<stop offset="1" stop-color="#CE64CE"/>
</radialGradient>
<radialGradient id="paint59_radial_29676_16909" cx="0" cy="0" r="1" gradientUnits="userSpaceOnUse" gradientTransform="translate(94.1869 204.817) rotate(24.3561) scale(5.99611 8.37425)">
<stop stop-color="#F2639F"/>
<stop offset="1" stop-color="#CE64CE"/>
</radialGradient>
<radialGradient id="paint60_radial_29676_16909" cx="0" cy="0" r="1" gradientUnits="userSpaceOnUse" gradientTransform="translate(77.2205 209.925) rotate(6.87727) scale(20.6511 9.12623)">
<stop stop-color="#F2639F"/>
<stop offset="1" stop-color="#CE64CE"/>
</radialGradient>
<radialGradient id="paint61_radial_29676_16909" cx="0" cy="0" r="1" gradientUnits="userSpaceOnUse" gradientTransform="translate(91.0602 215.03) rotate(14.96) scale(9.57924 8.88081)">
<stop stop-color="#F2639F"/>
<stop offset="1" stop-color="#CE64CE"/>
</radialGradient>
<radialGradient id="paint62_radial_29676_16909" cx="0" cy="0" r="1" gradientUnits="userSpaceOnUse" gradientTransform="translate(93.182 220.139) rotate(6.56927) scale(21.6149 9.13202)">
<stop stop-color="#F2639F"/>
<stop offset="1" stop-color="#CE64CE"/>
</radialGradient>
<radialGradient id="paint63_radial_29676_16909" cx="0" cy="0" r="1" gradientUnits="userSpaceOnUse" gradientTransform="translate(77.4172 225.245) rotate(6.5203) scale(21.7765 9.13291)">
<stop stop-color="#F2639F"/>
<stop offset="1" stop-color="#CE64CE"/>
</radialGradient>
<radialGradient id="paint64_radial_29676_16909" cx="0" cy="0" r="1" gradientUnits="userSpaceOnUse" gradientTransform="translate(65.1025 230.351) rotate(5.16048) scale(27.4925 9.15511)">
<stop stop-color="#F2639F"/>
<stop offset="1" stop-color="#CE64CE"/>
</radialGradient>
<radialGradient id="paint65_radial_29676_16909" cx="0" cy="0" r="1" gradientUnits="userSpaceOnUse" gradientTransform="translate(63.3458 235.459) rotate(8.15095) scale(17.4411 9.09951)">
<stop stop-color="#F2639F"/>
<stop offset="1" stop-color="#CE64CE"/>
</radialGradient>
<radialGradient id="paint66_radial_29676_16909" cx="0" cy="0" r="1" gradientUnits="userSpaceOnUse" gradientTransform="translate(75.998 240.565) rotate(10.4082) scale(13.6878 9.04112)">
<stop stop-color="#F2639F"/>
<stop offset="1" stop-color="#CE64CE"/>
</radialGradient>
<radialGradient id="paint67_radial_29676_16909" cx="0" cy="0" r="1" gradientUnits="userSpaceOnUse" gradientTransform="translate(95.276 240.565) rotate(18.4945) scale(7.79549 8.71762)">
<stop stop-color="#F2639F"/>
<stop offset="1" stop-color="#CE64CE"/>
</radialGradient>
<radialGradient id="paint68_radial_29676_16909" cx="0" cy="0" r="1" gradientUnits="userSpaceOnUse" gradientTransform="translate(63.9219 245.672) rotate(6.85073) scale(20.7308 9.12674)">
<stop stop-color="#F2639F"/>
<stop offset="1" stop-color="#CE64CE"/>
</radialGradient>
<radialGradient id="paint69_radial_29676_16909" cx="0" cy="0" r="1" gradientUnits="userSpaceOnUse" gradientTransform="translate(61.758 250.779) rotate(16.9344) scale(8.48964 8.79378)">
<stop stop-color="#F2639F"/>
<stop offset="1" stop-color="#CE64CE"/>
</radialGradient>
<clipPath id="clip0_29676_16909">
<rect width="34" height="34" fill="white" transform="translate(316 22)"/>
</clipPath>
</defs>
</svg>
