<svg width="96" height="258" viewBox="0 0 96 258" fill="none" xmlns="http://www.w3.org/2000/svg">
<path d="M26.1044 233.672H23.157C22.6302 233.672 22.2031 234.099 22.2031 234.626V242.066C22.2031 242.593 22.6302 243.02 23.157 243.02H26.1044C26.6313 243.02 27.0583 242.593 27.0583 242.066V234.626C27.0583 234.099 26.6313 233.672 26.1044 233.672Z" fill="#FDDB97"/>
<path d="M33.249 233.672H30.3015C29.7747 233.672 29.3477 234.099 29.3477 234.626V242.066C29.3477 242.593 29.7747 243.02 30.3015 243.02H33.249C33.7758 243.02 34.2028 242.593 34.2028 242.066V234.626C34.2028 234.099 33.7758 233.672 33.249 233.672Z" fill="#FDDB97"/>
<path d="M40.3173 233.672H37.3699C36.8431 233.672 36.416 234.099 36.416 234.626V242.066C36.416 242.593 36.8431 243.02 37.3699 243.02H40.3173C40.8441 243.02 41.2712 242.593 41.2712 242.066V234.626C41.2712 234.099 40.8441 233.672 40.3173 233.672Z" fill="#FDDB97"/>
<path d="M50.0198 225.077H13.4675C12.9407 225.077 12.5137 225.504 12.5137 226.031V228.959C12.5137 229.486 12.9407 229.913 13.4675 229.913H50.0198C50.5466 229.913 50.9737 229.486 50.9737 228.959V226.031C50.9737 225.504 50.5466 225.077 50.0198 225.077Z" stroke="#FDDB97" stroke-width="2.12603" stroke-miterlimit="10"/>
<path d="M49.8549 229.914H13.627V254.277H49.8549V229.914Z" stroke="#FDDB97" stroke-width="2.12603" stroke-miterlimit="10"/>
<path d="M16.5652 220.307H46.9173C47.4419 220.307 47.8712 220.736 47.8712 221.261V225.076H15.6113V221.261C15.6113 220.736 16.0406 220.307 16.5652 220.307Z" stroke="#FDDB97" stroke-width="2.12603" stroke-miterlimit="10"/>
<path d="M49.8275 254.276H13.6472C13.1204 254.276 12.6934 254.703 12.6934 255.23V257.796C12.6934 258.323 13.1204 258.75 13.6472 258.75H49.8275C50.3543 258.75 50.7813 258.323 50.7813 257.796V255.23C50.7813 254.703 50.3543 254.276 49.8275 254.276Z" stroke="#FDDB97" stroke-width="2.12603" stroke-miterlimit="10"/>
<path d="M19.0925 216.195H44.3891C44.9138 216.195 45.343 216.625 45.343 217.149V220.297H18.1387V217.149C18.1387 216.625 18.5679 216.195 19.0925 216.195Z" stroke="#FDDB97" stroke-width="2.12603" stroke-miterlimit="10"/>
<path d="M50.9701 182.465L48.967 184.468C48.595 184.84 47.994 184.84 47.622 184.468L41.2692 178.115C40.8972 177.743 40.8972 177.142 41.2692 176.77L51.0655 166.973C51.4375 166.601 52.0384 166.601 52.4104 166.973L58.7632 173.326C59.1352 173.698 59.1352 174.299 58.7632 174.671L56.5788 176.856" stroke="#FDDB97" stroke-width="2.12603" stroke-miterlimit="10"/>
<path d="M52.3747 176.518L50.6278 178.265C49.5476 179.345 49.5476 181.097 50.6278 182.177C51.7081 183.258 53.4595 183.258 54.5397 182.177L56.2866 180.43C57.3669 179.35 57.3668 177.598 56.2866 176.518C55.2064 175.438 53.4549 175.438 52.3747 176.518Z" stroke="#FDDB97" stroke-width="2.12603" stroke-miterlimit="10"/>
<path d="M2 130.8L2 133.882C2 135.783 3.54169 137.325 5.44347 137.325C7.34524 137.325 8.88694 135.783 8.88694 133.882V130.8C8.88694 128.898 7.34524 127.357 5.44347 127.357C3.54169 127.357 2 128.898 2 130.8Z" stroke="#FDDB97" stroke-width="2.12603" stroke-miterlimit="10"/>
<path d="M19.6016 216.312V211.284C19.6016 209.791 20.203 208.354 21.2702 207.301L36.1033 192.659" stroke="#FDDB97" stroke-width="2.12603" stroke-miterlimit="10"/>
<path d="M35.2793 192.935L45.4554 194.035" stroke="#FDDB97" stroke-width="2.12603"/>
<path d="M20.2361 208.946L19.3395 208.049C18.4333 207.143 17.9277 205.922 17.9277 204.653V195.667C17.9277 194.246 18.4905 192.882 19.5016 191.88L25.8067 185.575" stroke="#FDDB97" stroke-width="2.12603" stroke-miterlimit="10"/>
<path d="M23.3145 188.121L27.4399 183.858L31.9779 184.546M37.3409 185.234C37.561 185.124 42.6582 181.475 43.6666 180.558" stroke="#FDDB97" stroke-width="2.12603"/>
<circle cx="39.9554" cy="163.781" r="2.75029" stroke="#FDDB97" stroke-width="2.12603"/>
<circle cx="34.178" cy="185.233" r="2.75029" stroke="#FDDB97" stroke-width="2.12603"/>
<path d="M45.6311 182.474V207.581C45.6311 209.48 45.2496 211.349 44.5056 213.095L43.1797 216.195" stroke="#FDDB97" stroke-width="2.12603" stroke-miterlimit="10"/>
<path d="M13.2656 128.816L20.2956 143.125L21.8123 141.885C22.3083 141.484 23.0523 141.713 23.2336 142.314L25.1031 148.429L24.5785 144.68C24.5785 139.967 28.5561 136.171 33.335 136.485C37.7037 136.772 41.0041 140.587 41.0041 144.966V154.353L43.0454 155.326C44.543 156.041 45.7162 157.272 46.3744 158.798L50.228 167.812" stroke="#FDDB97" stroke-width="2.12603" stroke-miterlimit="10"/>
<path d="M18.8636 192.062L18.1577 191.356C17.5377 190.736 17.1848 189.887 17.1848 189.009V180.633C17.1848 178.697 17.6426 176.789 18.5297 175.072L19.8938 172.42V166.639L13.7795 150.604C13.5219 149.927 13.6269 149.163 14.0561 148.582L15.277 146.903L11.6523 140.864" stroke="#FDDB97" stroke-width="2.12603" stroke-miterlimit="10"/>
<path d="M19.3281 173.407L24.1411 168.732L32.9421 169.832L38.1677 165.432" stroke="#FDDB97" stroke-width="2.12603"/>
<path d="M30.0527 136.934L31.0066 128.425C31.1878 127.194 31.8746 126.479 32.9525 126.479C34.0208 126.479 34.6885 127.175 34.8984 128.425L35.8523 136.934" stroke="#FDDB97" stroke-width="2.12603" stroke-miterlimit="10"/>
<path d="M7.03543 127.719L6.88281 125.306" stroke="#FDDB97" stroke-width="2.12603" stroke-miterlimit="10"/>
<path d="M12.674 125.306L11.7201 140.492C11.5389 141.723 10.8521 142.438 9.7742 142.438C8.70587 142.438 8.03816 141.742 7.82831 140.492L7.58984 136.686" stroke="#FDDB97" stroke-width="2.12603" stroke-miterlimit="10"/>
<path d="M26.7521 139.223L23.3277 131.372C22.8698 130.218 23.1083 129.255 24.0336 128.72C24.9588 128.186 25.8841 128.453 26.6853 129.426L31.7694 136.323" stroke="#FDDB97" stroke-width="2.12603" stroke-miterlimit="10"/>
<path d="M25.0355 142.858L18.139 137.774C17.1661 137.001 16.8895 136.047 17.4332 135.122C17.9673 134.196 18.9117 133.967 20.0849 134.416L27.9353 137.84" stroke="#FDDB97" stroke-width="2.12603" stroke-miterlimit="10"/>
<path d="M40.3457 141.637L48.4822 142.591C49.7127 142.772 50.4281 143.459 50.4281 144.536C50.4281 145.605 49.7318 146.273 48.4822 146.482L41.0229 147.379" stroke="#FDDB97" stroke-width="2.12603" stroke-miterlimit="10"/>
<path d="M37.6934 138.336L45.5437 134.912C46.6979 134.454 47.6613 134.692 48.1955 135.618C48.7296 136.543 48.4625 137.468 47.4896 138.27L40.8316 143.173" stroke="#FDDB97" stroke-width="2.12603" stroke-miterlimit="10"/>
<path d="M34.0586 136.609L39.1427 129.712C39.9153 128.739 40.8692 128.463 41.7945 129.006C42.7197 129.541 42.9487 130.485 42.5003 131.658L39.0759 139.509" stroke="#FDDB97" stroke-width="2.12603" stroke-miterlimit="10"/>
<path d="M13.1389 111.938C13.1389 111.938 15.4689 110.491 15.4689 115.738C15.4689 120.984 9.83151 120.66 9.83151 120.66C9.83151 120.66 4.07014 121.108 4.12738 115.575C4.21322 107.505 8.92534 105.75 8.92534 105.75C8.92534 105.75 12.3402 107.534 12.3211 109.881C12.2925 113.028 12.531 112.456 12.531 112.456L13.0014 112.076L13.1389 111.938Z" stroke="#FDDB97" stroke-width="2.12603" stroke-miterlimit="10" stroke-linecap="round"/>
<path d="M13.1399 120.125H14.7901C15.4006 120.125 15.8966 120.621 15.8966 121.232V124.561C15.8966 125.171 15.4006 125.667 14.7901 125.667H4.77446C4.16398 125.667 3.66797 125.171 3.66797 124.561V121.232C3.66797 120.621 4.16398 120.125 4.77446 120.125H6.27203" stroke="#FDDB97" stroke-width="2.12603" stroke-miterlimit="10"/>
<path d="M64.056 106.943L103.298 83.2662C105.388 82.0019 108.052 83.5065 108.052 85.9515V263.419C108.052 265.154 106.652 266.554 104.918 266.554H66.1664C64.4425 266.554 63.0425 265.154 63.0321 263.43L62.541 109.638C62.541 108.541 63.1156 107.517 64.056 106.943Z" stroke="#FDDB97" stroke-width="2.10871" stroke-miterlimit="10"/>
<path d="M62.4355 121.8H107.873" stroke="#FDDB97" stroke-width="2.10871" stroke-miterlimit="10"/>
<path d="M62.4355 126.878H107.873" stroke="#FDDB97" stroke-width="2.10871" stroke-miterlimit="10"/>
<path d="M62.4355 131.957H107.873" stroke="#FDDB97" stroke-width="2.10871" stroke-miterlimit="10"/>
<path d="M62.4355 172.58H107.873" stroke="#FDDB97" stroke-width="2.10871" stroke-miterlimit="10"/>
<path d="M62.4355 177.658H107.873" stroke="#FDDB97" stroke-width="2.10871" stroke-miterlimit="10"/>
<path d="M62.4355 182.736H107.873" stroke="#FDDB97" stroke-width="2.10871" stroke-miterlimit="10"/>
<path d="M62.4355 187.814H107.873" stroke="#FDDB97" stroke-width="2.10871" stroke-miterlimit="10"/>
<path d="M62.4355 192.892H107.873" stroke="#FDDB97" stroke-width="2.10871" stroke-miterlimit="10"/>
<path d="M62.4355 197.97H107.873" stroke="#FDDB97" stroke-width="2.10871" stroke-miterlimit="10"/>
<path d="M62.4355 203.048H107.873" stroke="#FDDB97" stroke-width="2.10871" stroke-miterlimit="10"/>
<path d="M62.4355 208.126H107.873" stroke="#FDDB97" stroke-width="2.10871" stroke-miterlimit="10"/>
<path d="M62.4355 213.204H107.873" stroke="#FDDB97" stroke-width="2.10871" stroke-miterlimit="10"/>
<path d="M62.4355 218.282H107.873" stroke="#FDDB97" stroke-width="2.10871" stroke-miterlimit="10"/>
<path d="M62.4355 223.359H107.873" stroke="#FDDB97" stroke-width="2.10871" stroke-miterlimit="10"/>
<path d="M62.4355 228.438H107.873" stroke="#FDDB97" stroke-width="2.10871" stroke-miterlimit="10"/>
<path d="M62.4355 233.516H107.873" stroke="#FDDB97" stroke-width="2.10871" stroke-miterlimit="10"/>
<path d="M62.4355 238.593H107.873" stroke="#FDDB97" stroke-width="2.10871" stroke-miterlimit="10"/>
<path d="M62.4355 243.671H107.873" stroke="#FDDB97" stroke-width="2.10871" stroke-miterlimit="10"/>
<path d="M62.4355 248.75H107.873" stroke="#FDDB97" stroke-width="2.10871" stroke-miterlimit="10"/>
<path d="M62.4355 253.827H107.873" stroke="#FDDB97" stroke-width="2.10871" stroke-miterlimit="10"/>
<path d="M62.4355 258.905H107.873" stroke="#FDDB97" stroke-width="2.10871" stroke-miterlimit="10"/>
<circle cx="78.7019" cy="161.735" r="3.01244" stroke="#FDDB97" stroke-width="2.10871"/>
<path d="M78.7031 165.048V172.579" stroke="#FDDB97" stroke-width="2.10871"/>
<circle cx="93.4636" cy="141.551" r="3.01244" stroke="#FDDB97" stroke-width="2.10871"/>
<path d="M93.3125 145.166V152.998" stroke="#FDDB97" stroke-width="2.10871"/>
<path d="M62.8887 149.685L71.926 142.756L81.867 147.275L90.7537 142.154" stroke="#FDDB97" stroke-width="2.10871"/>
<path d="M96.7786 141.852L101.448 142.907L108.075 135.375M62.8887 166.253L70.2691 159.174L75.9928 161.132" stroke="#FDDB97" stroke-width="2.10871"/>
<path d="M80.9609 160.379L87.2871 155.107L97.9812 160.379L108.223 148.63" stroke="#FDDB97" stroke-width="2.10871"/>
<path d="M80.6621 121.368V113.836" stroke="#FDDB97" stroke-width="2.10871"/>
<path d="M85.3301 121.368V111.728" stroke="#FDDB97" stroke-width="2.10871"/>
<path d="M89.8496 121.368L89.8496 102.088" stroke="#FDDB97" stroke-width="2.10871"/>
<path d="M94.6699 121.368L94.6699 103.594" stroke="#FDDB97" stroke-width="2.10871"/>
<line x1="50.748" y1="235.801" x2="62.9662" y2="235.801" stroke="#FDDB97" stroke-width="2.12489"/>
<line x1="50.748" y1="246.425" x2="62.9662" y2="246.425" stroke="#FDDB97" stroke-width="2.12489"/>
<line x1="50.748" y1="257.581" x2="62.9662" y2="257.581" stroke="#FDDB97" stroke-width="2.12489"/>
</svg>
