<svg width="225" height="150" fill="none" xmlns="http://www.w3.org/2000/svg"><path d="M196.297 94.959c3.687-1.35 6.703-5.668 6.703-9.594V58.889c0-3.926-3.016-8.245-6.703-9.594L108.638 17.18c-3.687-1.35-9.718-1.35-13.405 0L7.578 49.295C3.89 50.648.875 54.963.875 58.89v26.476c0 3.926 3.016 8.245 6.703 9.594l87.658 32.115c3.687 1.349 9.719 1.349 13.406 0L196.3 94.959h-.003Z" fill="#FF6D3B"/><path d="M69.094 96.942H81.73v-2.047h-9.16c0-.269 0-.336 3.218-.89 4.632-.793 5.523-1.497 5.523-3.083 0-1.415-1.67-3.016-5.845-3.016-4.176 0-6.211 1.59-6.211 3.352 0 .322.052.621.12.782h2.518a1.515 1.515 0 0 1-.094-.538c0-.958 1.13-1.59 3.61-1.59 2.482 0 3.005.538 3.005 1.118 0 .647-.201.902-4.351 1.669-4.662.86-4.97 1.9-4.97 4.243ZM93.117 97.076c4.565 0 6.761-2.02 6.761-4.606 0-2.585-2.357-4.527-6.761-4.527s-6.761 1.818-6.761 4.527c0 2.71 2.196 4.606 6.76 4.606Zm0-2.046c-2.544 0-3.854-.984-3.854-2.545 0-1.56 1.388-2.492 3.854-2.492s3.854.902 3.854 2.492c0 1.59-1.306 2.545-3.854 2.545ZM104.395 96.942h12.636v-2.047h-9.16c0-.269 0-.336 3.218-.89 4.632-.793 5.522-1.497 5.522-3.083 0-1.415-1.668-3.016-5.844-3.016s-6.212 1.59-6.212 3.352c0 .322.053.621.12.782h2.518a1.525 1.525 0 0 1-.093-.538c0-.958 1.13-1.59 3.611-1.59 2.48 0 3.004.538 3.004 1.118 0 .647-.202.902-4.351 1.669-4.663.86-4.969 1.9-4.969 4.243ZM122.049 96.943h12.636v-2.047h-9.16c0-.27 0-.337 3.218-.89 4.632-.794 5.523-1.497 5.523-3.084 0-1.414-1.669-3.016-5.845-3.016s-6.211 1.59-6.211 3.353c0 .322.052.621.119.782h2.519a1.5 1.5 0 0 1-.094-.539c0-.958 1.13-1.59 3.611-1.59 2.481 0 3.005.539 3.005 1.119 0 .647-.202.901-4.352 1.668-4.662.861-4.969 1.901-4.969 4.244ZM13.95 82.193c-2.67 0-4.858-2.028-4.858-4.59v-10.61c0-2.561 2.191-4.611 4.858-4.611h.78c2.693 0 4.888 2.06 4.888 4.612v10.61c0 2.56-2.192 4.59-4.888 4.59h-.78Zm.78-16.858h-.78c-.78 0-1.415.752-1.415 1.659v10.584c0 .9.628 1.658 1.415 1.658h.78c.806 0 1.437-.751 1.437-1.658V66.994c0-.9-.627-1.659-1.437-1.659ZM26.906 66.447h.5c2.04 0 3.75 1.98 3.75 4.437v6.847c0 2.46-1.71 4.46-3.75 4.46h-.5c-.98 0-1.988-.552-2.318-.926l-.175.675h-3.145V61.878h3.323v5.494c.327-.377 1.335-.929 2.319-.929l-.004.004Zm-.954 12.895h.5c.78 0 1.383-.725 1.383-1.582v-6.872c0-.878-.602-1.604-1.382-1.604h-.501c-.755 0-1.36.726-1.36 1.604v6.872c0 .828.605 1.582 1.36 1.582ZM35.856 77.736c0 .878.632 1.603 1.383 1.603h.5c.755 0 1.383-.725 1.383-1.603v-.327c0-.903-.73-1.506-1.989-1.658-2.543-.272-4.586-1.981-4.586-4.412v-.425c0-2.482 2.09-4.47 4.68-4.47h.502c2.59 0 4.706 1.981 4.706 4.47v.675H39.11v-.675c0-.878-.631-1.604-1.382-1.604h-.501c-.755 0-1.36.726-1.36 1.604v.327c0 .903.707 1.505 1.962 1.658 2.544.326 4.608 1.93 4.608 4.416v.424c0 2.482-2.111 4.46-4.706 4.46h-.5c-2.591 0-4.707-1.981-4.707-4.46v-.678h3.324v.678h.004l.003-.003ZM49.365 82.194h-.5c-2.591 0-4.707-1.981-4.707-4.46v-6.82c0-2.483 2.116-4.471 4.706-4.471h.501c2.59 0 4.706 1.981 4.706 4.47v4.837h-6.596v1.981c0 .878.631 1.604 1.382 1.604h.5c.78 0 1.383-.726 1.383-1.604v-.606h3.324v.606c0 2.482-2.115 4.46-4.706 4.46h.007v.003Zm1.383-11.28c0-.879-.606-1.605-1.383-1.605h-.5c-.755 0-1.383.726-1.383 1.604v1.981h3.276v-1.98h-.01ZM85.909 72.844v-1.93c0-.878-.602-1.604-1.382-1.604h-.229c-.755 0-1.382.726-1.382 1.604v.653h-3.324v-.653c0-2.482 2.115-4.47 4.706-4.47h.229c2.569 0 4.706 1.956 4.706 4.39v7.747c0 .327.228.5.5.5h.806v2.864c-.58.05-1.136.05-1.709.05-.653 0-1.415-.246-1.84-.9-.606.53-1.31 1.104-2.87 1.104h-.5c-2.591 0-4.282-1.778-4.282-4.46 0-3.686 3.051-4.967 5.283-4.967.348 0 .954.022 1.284.076l.008-.007h-.004v.004Zm-1.382 6.499c.78 0 1.382-.751 1.382-1.604v-2.028c-.38-.152-.903-.2-1.23-.2-1.056 0-2.014.78-2.014 2.236 0 .976.606 1.603 1.36 1.603h.502v-.007ZM97.607 66.447h.501c2.036 0 3.748 1.98 3.748 4.437v6.847c0 2.46-1.709 4.46-3.748 4.46h-.5c-.98 0-1.989-.552-2.32-.926l-.173.675h-3.146V61.878h3.323v5.494c.327-.377 1.336-.929 2.319-.929l-.004.004Zm-.954 12.895h.5c.781 0 1.383-.725 1.383-1.582v-6.872c0-.878-.602-1.604-1.382-1.604h-.5c-.756 0-1.362.726-1.362 1.604v6.872c0 .828.606 1.582 1.361 1.582ZM109.928 66.692v12.395h3.447v2.86h-10.33v-2.86h3.563v-9.532h-3.527v-2.859h6.851l-.004-.004Zm.254-3.788a2.026 2.026 0 0 1-2.035 2.029 2.026 2.026 0 0 1-2.036-2.029c0-1.125.907-2.028 2.036-2.028 1.128 0 2.035.904 2.035 2.028ZM134.039 66.693v12.395h3.447v2.859h-10.334v-2.86h3.563v-9.531h-3.526v-2.86h6.85v-.003Zm.254-3.788a2.024 2.024 0 0 1-2.035 2.028 2.028 2.028 0 1 1 0-4.057c1.135 0 2.035.904 2.035 2.029ZM121.904 61.878v17.21h3.625v2.86h-10.613v-2.86h3.658v-14.35h-3.651v-2.86h6.981ZM165.378 79.236h.754c.806 0 1.437-.751 1.437-1.658v-1.183h3.451V77.6c0 2.561-2.192 4.59-4.888 4.59h-.754c-2.693 0-4.888-2.029-4.888-4.59V66.972c0-2.562 2.192-4.59 4.888-4.59h.754c2.693 0 4.888 2.028 4.888 4.59v1.183h-3.451v-1.183c0-.9-.627-1.63-1.437-1.63h-.754c-.806 0-1.437.726-1.437 1.63v10.61c0 .9.631 1.658 1.437 1.658v-.008.004ZM176.968 82.193c-2.671 0-4.859-2.028-4.859-4.59v-10.61c0-2.561 2.192-4.611 4.859-4.611h.78c2.692 0 4.888 2.06 4.888 4.612v10.61c0 2.56-2.192 4.59-4.888 4.59h-.78Zm.78-16.858h-.78c-.78 0-1.408.752-1.408 1.659v10.584c0 .9.631 1.658 1.408 1.658h.78c.806 0 1.437-.751 1.437-1.658V66.994c0-.9-.631-1.659-1.437-1.659ZM187.076 68.83v13.117h-3.146v-19.31h3.98l3.777 13.145V62.636h3.146v19.31h-3.951l-3.803-13.116h-.003ZM61.278 71.109c0-1.43 1.005-1.582 2.115-1.582.983 0 2.239.05 3.193.098l-.791-2.86a63.397 63.397 0 0 0-2.402-.097c-2.82 0-5.468.551-5.468 4.437l.022 7.972h-2.765v2.86h11.404v-2.86H61.27v-7.972h.008v.004ZM142.356 77.706v-8.15h4.111l-.791-2.859h-3.32v-3.356h-3.324v3.36h-2.739v2.859h2.739v8.15c0 3.911 2.17 4.39 5.469 4.39a31.17 31.17 0 0 0 2.645-.127v-2.787c-.86.026-1.811.051-2.645.051-1.111 0-2.145-.098-2.145-1.531ZM79.168 66.693l-4.18 15.25h-3.624l-4.206-15.25h3.45l2.592 10.66 2.569-10.66h3.4ZM146.906 66.693h3.553l2.971 10.48 2.645-10.48h3.378l-5.932 19.365c-.708 2.432-1.988 3.11-4.358 3.11h-1.825v-2.525h1.709c.653 0 1.52-.483 1.749-1.361l1.15-3.991-5.036-14.598h-.004Z" fill="#fff"/><path fill-rule="evenodd" clip-rule="evenodd" d="M79.13 48.997c8.793-4.794 15.56-10.229 20.532-20.245.565-1.21 1.083-2.355 1.537-3.384l.058-.14h.003c.581-1.32 1.055-2.444 1.388-3.264v-.077l.016.038a.636.636 0 0 1 .016-.04v.08c.332.82.806 1.943 1.387 3.263h.002l.039.094c.464 1.052.995 2.227 1.576 3.47 4.969 9.99 11.729 15.416 20.509 20.204l.885-.885 1.731 1.731-5.45 5.45.34.375h-15.335l-5.701-11.787-5.7 11.786H81.629c.107-.117.22-.241.337-.372l-5.451-5.452 1.73-1.73.886.885Zm42.61 4.453 3.492-3.492c-5.443-2.996-10.155-6.28-14.154-10.765 2.903 4.875 7.537 10.631 10.662 14.257Zm-41.648-3.491c5.445-2.997 10.158-6.283 14.16-10.77-2.904 4.877-7.542 10.637-10.667 14.263l-3.493-3.493Z" fill="#fff"/><g opacity=".8" fill="#BB3C20"><path fill-rule="evenodd" clip-rule="evenodd" d="M87.352 31.012 15.631 56.441l-.816-2.302L86.535 28.71l.816 2.302ZM14.808 90.346l71.722 25.428.816-2.301-71.722-25.43-.816 2.303ZM116.525 31.012l71.721 25.429.816-2.302-71.721-25.429-.816 2.302ZM189.067 90.346l-73.15 26.05-.819-2.301 73.15-26.05.819 2.3Z"/><path d="M91.894 26.601h-.782a1.57 1.57 0 0 0-1.565 1.565v.782c0 .861.704 1.565 1.565 1.565h.782a1.57 1.57 0 0 0 1.565-1.565v-.782a1.57 1.57 0 0 0-1.565-1.565ZM112.759 26.601h-.782a1.57 1.57 0 0 0-1.565 1.565v.782c0 .861.704 1.565 1.565 1.565h.782a1.57 1.57 0 0 0 1.565-1.565v-.782a1.57 1.57 0 0 0-1.565-1.565ZM193.613 85.284h-.783a1.57 1.57 0 0 0-1.564 1.564v.783c0 .86.704 1.565 1.564 1.565h.783a1.57 1.57 0 0 0 1.565-1.565v-.782a1.57 1.57 0 0 0-1.565-1.565ZM11.046 85.282h-.782A1.57 1.57 0 0 0 8.7 86.847v.782c0 .861.704 1.565 1.565 1.565h.783a1.57 1.57 0 0 0 1.564-1.565v-.782a1.57 1.57 0 0 0-1.565-1.565ZM193.613 55.289h-.783a1.57 1.57 0 0 0-1.564 1.564v.783c0 .86.704 1.565 1.564 1.565h.783a1.57 1.57 0 0 0 1.565-1.565v-.783a1.57 1.57 0 0 0-1.565-1.564ZM11.046 55.289h-.782A1.57 1.57 0 0 0 8.7 56.853v.783c0 .86.704 1.565 1.565 1.565h.783a1.57 1.57 0 0 0 1.564-1.565v-.783a1.57 1.57 0 0 0-1.565-1.564ZM111.79 110.307c-.043-.356-.079-.794-.243-1.267a7.358 7.358 0 0 0-.61-1.544 9.822 9.822 0 0 0-1.095-1.666 4.126 4.126 0 0 0-.61-.634c.325-1.267-.406-2.338-.406-2.338-1.217-.078-2.03.356-2.315.594-.043 0-.079-.039-.165-.078-.203-.078-.406-.156-.649-.234-.242-.079-.445-.122-.688-.2-.242-.039-.489-.078-.688-.121h-.121c-.528-1.666-2.069-2.374-2.069-2.374-1.705 1.072-2.025 2.534-2.025 2.534v.078c-.079.04-.204.04-.286.079a4.86 4.86 0 0 1-.407.121c-.12.043-.242.078-.406.156-.243.121-.528.239-.77.356a8.011 8.011 0 0 0-.732.434c-.043 0-.043-.039-.043-.039-2.393-.872-4.505.199-4.505.199-.203 2.456.931 4.04 1.178 4.317-.044.157-.122.317-.165.474-.164.551-.324 1.149-.406 1.744 0 .078-.043.156-.043.238-2.19 1.072-2.843 3.246-2.843 3.246 1.826 2.061 3.977 2.178 3.977 2.178.285.473.567.911.93 1.345.164.156.325.356.446.516-.65 1.861.078 3.406.078 3.406 2.03.078 3.367-.872 3.652-1.11.204.078.407.121.61.199.61.156 1.26.238 1.905.278h.77c.974 1.345 2.636 1.544 2.636 1.544 1.216-1.228 1.259-2.456 1.259-2.733v-.078c.242-.157.489-.356.731-.556a8.266 8.266 0 0 0 1.259-1.423c.043-.039.078-.078.078-.156 1.381.078 2.311-.829 2.311-.829-.242-1.389-1.051-2.061-1.216-2.178h-.043v-1.584c-.043-.157-.043-.317-.078-.438-.164-.594-.364-1.15-.688-1.666a5.993 5.993 0 0 0-1.138-1.345c-.446-.395-.931-.673-1.463-.907-.527-.239-1.051-.356-1.622-.438-.286-.039-.528-.039-.81-.039h-.406c-.122 0-.286.039-.407.039a4.022 4.022 0 0 0-1.502.555 5.628 5.628 0 0 0-1.177.95 3.871 3.871 0 0 0-.731 1.228 5.052 5.052 0 0 0-.285 1.306v.634c.043.199.078.434.12.633.122.395.325.751.529 1.072.242.316.528.555.809.75.286.2.61.356.931.434.32.079.61.122.931.122h.527c.043 0 .079 0 .122-.04.078 0 .121-.039.203-.039.121-.039.242-.078.364-.156.121-.039.203-.121.324-.199.043 0 .043-.043.078-.079a.207.207 0 0 0 .043-.316c-.078-.079-.203-.122-.285-.04-.043 0-.043.04-.078.04a2.366 2.366 0 0 1-.286.121c-.078.039-.203.039-.285.078h-.649c-.243-.039-.446-.078-.689-.199-.242-.079-.445-.239-.649-.395-.203-.157-.363-.395-.488-.595-.122-.234-.243-.473-.286-.751-.043-.121-.043-.277-.043-.394v-.2c0-.078 0-.156.043-.238.121-.595.407-1.15.896-1.623.121-.121.242-.2.363-.317.121-.078.286-.156.407-.238.164-.079.324-.122.446-.157.164-.039.324-.078.489-.078h.488c.165 0 .364.043.528.078.364.078.688.2 1.017.395.649.356 1.177.911 1.541 1.545.164.316.285.672.363 1.028 0 .078.043.199.043.278v.633c0 .121 0 .2-.043.317 0 .078-.043.199-.043.278a.825.825 0 0 1-.078.277c-.043.2-.121.395-.203.555a7.212 7.212 0 0 1-.61 1.072c-.489.633-1.138 1.189-1.905 1.501a5.72 5.72 0 0 1-1.177.356c-.203.039-.406.039-.61.078h-.285c.043 0 0 0 0 0h-.325a7.59 7.59 0 0 1-1.298-.234c-.407-.121-.852-.278-1.216-.473a6.546 6.546 0 0 1-2.026-1.623 3.643 3.643 0 0 1-.688-1.072 7.569 7.569 0 0 1-.489-1.188 4.314 4.314 0 0 1-.203-1.228v-.555c0-.2.043-.434.043-.634.043-.199.078-.438.121-.633.043-.2.079-.438.165-.634.12-.395.285-.794.445-1.189.364-.75.81-1.423 1.38-1.939a4.09 4.09 0 0 1 .446-.395c.165-.121.325-.235.49-.317.163-.121.324-.199.488-.277l.242-.122c.043 0 .079-.039.122-.039s.078-.039.121-.039c.164-.078.364-.121.528-.199.043 0 .078-.039.121-.039s.078-.039.121-.039c.078-.04.204-.04.286-.079.043 0 .078-.039.164-.039.043 0 .078 0 .164-.039.043 0 .078 0 .164-.043h.165c.043 0 .078 0 .164-.039.043 0 .121 0 .164-.039h.688s.043 0 0 0h.732c.363 0 .731.039 1.094.121.689.121 1.338.356 1.948.634a6.32 6.32 0 0 1 1.583 1.028l.079.078.078.078c.043.04.121.079.164.157.043.043.121.078.164.156.043.078.122.122.165.157.203.199.363.395.527.633.325.395.61.829.81 1.228 0 .039.043.039.043.078s.043.039.043.078c.043.04.043.079.078.157.043.039.043.078.078.156.043.043.043.078.079.157.078.199.164.356.203.516.078.277.164.516.203.715.043.079.121.157.204.122.078 0 .164-.079.164-.157.164-.751.164-1.028.121-1.306v.035l.016-.035Z"/></g><rect x="3.773" y="109.031" width="42.221" height="35.27" rx="3.814" transform="rotate(-6.348 3.773 109.031)" fill="#FFF4DF" stroke="#FFF4DF" stroke-width="1.911"/><path d="m17.892 139.114 18.85-2.097-.34-3.054-13.666 1.52c-.044-.402-.055-.502 4.656-1.861 6.78-1.954 7.99-3.147 7.727-5.518-.235-2.11-2.993-4.224-9.222-3.531-6.29.7-9 3.402-8.708 6.034.054.483.184.916.31 1.146l3.759-.418a2.234 2.234 0 0 1-.23-.789c-.16-1.426 1.424-2.559 5.122-2.97 3.516-.391 4.57.305 4.666 1.169.108.965-.151 1.38-6.213 3.214-6.81 2.06-7.1 3.659-6.711 7.155ZM5.144 112.716a2.858 2.858 0 0 1 2.525-3.157l34.381-3.825a2.858 2.858 0 0 1 3.157 2.525l1.225 11.008-40.063 4.457-1.225-11.008Z" fill="#73BFA1"/><path d="m9.823 120.613 2.136-.238-.618-5.557.011-.002 5.545 5.01 2.182-.243-.84-7.556-2.137.238.506 4.547-.011.002-4.537-4.099-3.077.342.84 7.556Zm16.436-1.689c3.525-.392 4.76-2.355 4.521-4.502-.233-2.09-1.982-3.709-5.393-3.329-3.41.379-4.761 2.343-4.529 4.433.252 2.262 1.979 3.779 5.4 3.398Zm-.182-1.631c-1.803.201-2.747-.659-2.898-2.014-.136-1.229.598-2.357 2.39-2.556 1.791-.199 2.756.74 2.893 1.968.144 1.298-.536 2.397-2.385 2.602Zm10.26.37 2.641-.294 3.202-8.005-2.25.25-2.308 6.116-.011.001-3.642-5.454-2.514.28 4.882 7.106Z" fill="#FFF4DF"/><mask id="a" maskUnits="userSpaceOnUse" x="143.609" y="1.497" width="81.153" height="42.359" fill="#000"><path fill="#fff" d="M143.609 1.497h81.153v42.359h-81.153z"/><path d="m146.463 32.556.252 8.487c.005.174.15.31.325.306l75.302-2.187a.316.316 0 0 0 .307-.325l-.111-3.728a.18.18 0 0 0-.186-.175.18.18 0 0 1-.185-.175.18.18 0 0 0-.186-.175l-.824.025a.18.18 0 0 0-.175.185.18.18 0 0 1-.175.186l-.129.004a.31.31 0 0 0-.3.318l.029.979a.206.206 0 1 1-.412.012l-.055-1.854-.092-3.091a.258.258 0 0 0-.265-.25.257.257 0 0 1-.265-.25l-.012-.406a.316.316 0 0 0-.325-.306l-.502.015a.316.316 0 0 0-.307.325l.012.406a.257.257 0 0 1-.249.265.257.257 0 0 0-.25.265l.082 2.775a.316.316 0 0 1-.306.325l-1.223.037a.315.315 0 0 1-.325-.306l-.11-3.697a.316.316 0 0 0-.325-.306l-.502.015a.315.315 0 0 1-.325-.306l-.222-7.464a.316.316 0 0 0-.406-.294l-1.14.34-.433.133a.313.313 0 0 0-.189.16l-1.078 2.123a.312.312 0 0 0-.034.127l-.08 1.552a.315.315 0 0 1-.306.3l-1.505.045a.316.316 0 0 1-.325-.307l-.069-2.335a.322.322 0 0 0-.099-.22l-.234-.221a.319.319 0 0 1-.1-.22l-.076-2.59a.334.334 0 0 0-.027-.117l-.182-.42a.135.135 0 0 0-.248.001c-.052.121-.229.105-.257-.024l-.089-.406-.161-.5c-.098-.305-.535-.286-.608.025l-.145.621a.29.29 0 0 1-.025.07l-.211.42a.125.125 0 0 1-.224 0 .126.126 0 0 0-.236.03l-.057.287a.214.214 0 0 0-.004.05l.078 2.626a.32.32 0 0 1-.086.226l-.221.234a.315.315 0 0 0-.085.226l.069 2.335a.316.316 0 0 1-.306.325l-1.223.037a.315.315 0 0 1-.325-.306l-.03-.998a.18.18 0 0 0-.186-.175.18.18 0 0 1-.185-.175l-.024-.792a.316.316 0 0 0-.325-.307l-.038.002a.315.315 0 0 1-.325-.307l-.071-2.381a.352.352 0 0 0-.009-.065l-.933-3.859-.244-1.282-.177-.897a.449.449 0 0 1-.006-.052l-.05-1.7a.129.129 0 0 0-.258.008l.05 1.692a.316.316 0 0 1-.005.068l-.172.9-.116 1.292-.753 3.907a.268.268 0 0 0-.006.07l.071 2.379a.316.316 0 0 1-.306.325l-.142.004a.316.316 0 0 0-.306.325l.025.844a.13.13 0 0 1-.125.132.129.129 0 0 0-.125.133l.031 1.05a.316.316 0 0 1-.306.324l-1.841.055a.315.315 0 0 1-.325-.306l-.158-5.3a.258.258 0 0 0-.265-.25.258.258 0 0 1-.265-.25l-.038-1.28a.316.316 0 0 0-.325-.307l-.09.003a.315.315 0 0 1-.325-.307l-.009-.302a.31.31 0 0 0-.319-.3.31.31 0 0 1-.318-.3l-.005-.157a.498.498 0 0 0-.106-.263c-.368-.524-.627-2.248-.716-3.113l-.081-2.747a.19.19 0 0 0-.195-.184.217.217 0 0 0-.203.229c.022.355.051 1.16.067 2.714.019 1.845-.388 2.806-.67 3.158a.43.43 0 0 0-.105.271l.007.229a.232.232 0 0 1-.225.239.232.232 0 0 0-.225.238l.013.432a.316.316 0 0 1-.306.325l-.09.002a.316.316 0 0 0-.306.325l.039 1.333a.257.257 0 0 1-.25.265.257.257 0 0 0-.249.266l.154 5.196a.316.316 0 0 1-.306.325l-1.179.035a.316.316 0 0 1-.325-.3l-.823-15.923a.316.316 0 0 0-.182-.27l-.382-.177a.314.314 0 0 1-.183-.277l-.017-.571a.316.316 0 0 0-.325-.307l-.966.029a.316.316 0 0 1-.325-.306l-.137-4.604a.232.232 0 1 0-.463.014l.136 4.604a.315.315 0 0 1-.306.325l-.657.019a.316.316 0 0 0-.306.325l.017.55a.317.317 0 0 1-.193.3l-.523.222a.314.314 0 0 0-.192.294l.173 15.92a.315.315 0 0 1-.306.32l-1.178.035a.316.316 0 0 1-.325-.306l-.256-8.642a.317.317 0 0 0-.325-.306l-1.739.052a.316.316 0 0 1-.325-.307l-.039-1.307a.283.283 0 1 0-.566.017l.038 1.307a.315.315 0 0 1-.306.325l-1.584.047a.316.316 0 0 0-.306.325l.257 8.642a.316.316 0 0 1-.306.325l-.554.016a.316.316 0 0 1-.325-.306l-.65-21.88a.316.316 0 0 0-.325-.307l-3.385.1a.316.316 0 0 0-.306.328l.794 21.733c.009.23-.273.4-.5.369-.175-.024-.466-.182-.697-.326a.292.292 0 0 1-.084-.409.305.305 0 0 0-.111-.436l-.239-.127a.315.315 0 0 0-.365.05l-.023.02c-.139.132-.363.11-.453-.06-.075-.14-.138-.293-.141-.403-.005-.17-.224-.37-.388-.49a.343.343 0 0 1-.128-.168c-.094-.287-.216-.712-.143-.714.063-.002.104-.207.125-.38a.337.337 0 0 1 .125-.226l.246-.193a.204.204 0 0 0-.104-.362l-.097-.01a.131.131 0 0 1-.108-.182c.051-.12-.087-.233-.195-.159l-.143.098a.182.182 0 0 1-.275-.09l-.019-.057a.228.228 0 0 0-.422-.022l-.026.055a.222.222 0 0 1-.348.074l-.092-.08a.183.183 0 0 0-.298.178.183.183 0 0 1-.173.224l-.075.002a.245.245 0 0 1-.232-.147l-.213-.49a.333.333 0 0 1-.005-.246c.065-.176.142-.422.138-.552-.006-.206-.221-.509-.02-.67.187-.148.107-.563.33-.647.486-.184.89-.39.413-.405-.826-.027-.781-.235-1.294-.168-.351.045-.217.404-.059.655.037.059.012.14-.055.16-.084.027-.108.164-.072.244a.5.5 0 0 1 .021.338c-.092.363-.088.518.124.718.212.2.123.666.137 1.13.014.464.07.617.034 1.133-.037.517.123.667.177.768.045.083-.115.206.138.517.118.145.13.358-.013.477-1.234 1.035-3.257 1.818-4.439 2.18a.307.307 0 0 1-.395-.289l-.144-4.854a.258.258 0 0 0-.266-.25.258.258 0 0 1-.265-.25l-.037-1.236a.154.154 0 0 0-.159-.15.155.155 0 0 1-.159-.15l-.005-.172a.292.292 0 0 0-.3-.283.294.294 0 0 1-.209-.08l-1.326-1.25a.316.316 0 0 0-.447.014l-1.343 1.425a.32.32 0 0 0-.086.226l.006.178a.155.155 0 0 1-.15.16.154.154 0 0 0-.15.159l.036 1.236a.31.31 0 0 1-.3.318.308.308 0 0 0-.299.319l.104 3.503a.31.31 0 0 1-.619.018l-.029-.979a.206.206 0 0 0-.212-.2.206.206 0 0 1-.212-.2l-.042-1.41a.354.354 0 0 0-.165-.28c-.151-.1-.314-.238-.318-.357-.006-.206-.439-.915-1.779-.875-.971.03-1.35.576-1.444.923a.41.41 0 0 1-.091.175l-.24.255a.32.32 0 0 0-.086.226l.046 1.543a.232.232 0 0 1-.225.239.232.232 0 0 0-.225.239l.028.927a.232.232 0 0 1-.225.238.232.232 0 0 0-.225.24l.088 2.955a.316.316 0 0 1-.306.325l-1.842.054a.316.316 0 0 0-.306.325l.004.142a.316.316 0 0 1-.306.325l-.09.003a.315.315 0 0 0-.306.325Z"/></mask><path d="m146.463 32.556.252 8.487c.005.174.15.31.325.306l75.302-2.187a.316.316 0 0 0 .307-.325l-.111-3.728a.18.18 0 0 0-.186-.175.18.18 0 0 1-.185-.175.18.18 0 0 0-.186-.175l-.824.025a.18.18 0 0 0-.175.185.18.18 0 0 1-.175.186l-.129.004a.31.31 0 0 0-.3.318l.029.979a.206.206 0 1 1-.412.012l-.055-1.854-.092-3.091a.258.258 0 0 0-.265-.25.257.257 0 0 1-.265-.25l-.012-.406a.316.316 0 0 0-.325-.306l-.502.015a.316.316 0 0 0-.307.325l.012.406a.257.257 0 0 1-.249.265.257.257 0 0 0-.25.265l.082 2.775a.316.316 0 0 1-.306.325l-1.223.037a.315.315 0 0 1-.325-.306l-.11-3.697a.316.316 0 0 0-.325-.306l-.502.015a.315.315 0 0 1-.325-.306l-.222-7.464a.316.316 0 0 0-.406-.294l-1.14.34-.433.133a.313.313 0 0 0-.189.16l-1.078 2.123a.312.312 0 0 0-.034.127l-.08 1.552a.315.315 0 0 1-.306.3l-1.505.045a.316.316 0 0 1-.325-.307l-.069-2.335a.322.322 0 0 0-.099-.22l-.234-.221a.319.319 0 0 1-.1-.22l-.076-2.59a.334.334 0 0 0-.027-.117l-.182-.42a.135.135 0 0 0-.248.001c-.052.121-.229.105-.257-.024l-.089-.406-.161-.5c-.098-.305-.535-.286-.608.025l-.145.621a.29.29 0 0 1-.025.07l-.211.42a.125.125 0 0 1-.224 0 .126.126 0 0 0-.236.03l-.057.287a.214.214 0 0 0-.004.05l.078 2.626a.32.32 0 0 1-.086.226l-.221.234a.315.315 0 0 0-.085.226l.069 2.335a.316.316 0 0 1-.306.325l-1.223.037a.315.315 0 0 1-.325-.306l-.03-.998a.18.18 0 0 0-.186-.175.18.18 0 0 1-.185-.175l-.024-.792a.316.316 0 0 0-.325-.307l-.038.002a.315.315 0 0 1-.325-.307l-.071-2.381a.352.352 0 0 0-.009-.065l-.933-3.859-.244-1.282-.177-.897a.449.449 0 0 1-.006-.052l-.05-1.7a.129.129 0 0 0-.258.008l.05 1.692a.316.316 0 0 1-.005.068l-.172.9-.116 1.292-.753 3.907a.268.268 0 0 0-.006.07l.071 2.379a.316.316 0 0 1-.306.325l-.142.004a.316.316 0 0 0-.306.325l.025.844a.13.13 0 0 1-.125.132.129.129 0 0 0-.125.133l.031 1.05a.316.316 0 0 1-.306.324l-1.841.055a.315.315 0 0 1-.325-.306l-.158-5.3a.258.258 0 0 0-.265-.25.258.258 0 0 1-.265-.25l-.038-1.28a.316.316 0 0 0-.325-.307l-.09.003a.315.315 0 0 1-.325-.307l-.009-.302a.31.31 0 0 0-.319-.3.31.31 0 0 1-.318-.3l-.005-.157a.498.498 0 0 0-.106-.263c-.368-.524-.627-2.248-.716-3.113l-.081-2.747a.19.19 0 0 0-.195-.184.217.217 0 0 0-.203.229c.022.355.051 1.16.067 2.714.019 1.845-.388 2.806-.67 3.158a.43.43 0 0 0-.105.271l.007.229a.232.232 0 0 1-.225.239.232.232 0 0 0-.225.238l.013.432a.316.316 0 0 1-.306.325l-.09.002a.316.316 0 0 0-.306.325l.039 1.333a.257.257 0 0 1-.25.265.257.257 0 0 0-.249.266l.154 5.196a.316.316 0 0 1-.306.325l-1.179.035a.316.316 0 0 1-.325-.3l-.823-15.923a.316.316 0 0 0-.182-.27l-.382-.177a.314.314 0 0 1-.183-.277l-.017-.571a.316.316 0 0 0-.325-.307l-.966.029a.316.316 0 0 1-.325-.306l-.137-4.604a.232.232 0 1 0-.463.014l.136 4.604a.315.315 0 0 1-.306.325l-.657.019a.316.316 0 0 0-.306.325l.017.55a.317.317 0 0 1-.193.3l-.523.222a.314.314 0 0 0-.192.294l.173 15.92a.315.315 0 0 1-.306.32l-1.178.035a.316.316 0 0 1-.325-.306l-.256-8.642a.317.317 0 0 0-.325-.306l-1.739.052a.316.316 0 0 1-.325-.307l-.039-1.307a.283.283 0 1 0-.566.017l.038 1.307a.315.315 0 0 1-.306.325l-1.584.047a.316.316 0 0 0-.306.325l.257 8.642a.316.316 0 0 1-.306.325l-.554.016a.316.316 0 0 1-.325-.306l-.65-21.88a.316.316 0 0 0-.325-.307l-3.385.1a.316.316 0 0 0-.306.328l.794 21.733c.009.23-.273.4-.5.369-.175-.024-.466-.182-.697-.326a.292.292 0 0 1-.084-.409.305.305 0 0 0-.111-.436l-.239-.127a.315.315 0 0 0-.365.05l-.023.02c-.139.132-.363.11-.453-.06-.075-.14-.138-.293-.141-.403-.005-.17-.224-.37-.388-.49a.343.343 0 0 1-.128-.168c-.094-.287-.216-.712-.143-.714.063-.002.104-.207.125-.38a.337.337 0 0 1 .125-.226l.246-.193a.204.204 0 0 0-.104-.362l-.097-.01a.131.131 0 0 1-.108-.182c.051-.12-.087-.233-.195-.159l-.143.098a.182.182 0 0 1-.275-.09l-.019-.057a.228.228 0 0 0-.422-.022l-.026.055a.222.222 0 0 1-.348.074l-.092-.08a.183.183 0 0 0-.298.178.183.183 0 0 1-.173.224l-.075.002a.245.245 0 0 1-.232-.147l-.213-.49a.333.333 0 0 1-.005-.246c.065-.176.142-.422.138-.552-.006-.206-.221-.509-.02-.67.187-.148.107-.563.33-.647.486-.184.89-.39.413-.405-.826-.027-.781-.235-1.294-.168-.351.045-.217.404-.059.655.037.059.012.14-.055.16-.084.027-.108.164-.072.244a.5.5 0 0 1 .021.338c-.092.363-.088.518.124.718.212.2.123.666.137 1.13.014.464.07.617.034 1.133-.037.517.123.667.177.768.045.083-.115.206.138.517.118.145.13.358-.013.477-1.234 1.035-3.257 1.818-4.439 2.18a.307.307 0 0 1-.395-.289l-.144-4.854a.258.258 0 0 0-.266-.25.258.258 0 0 1-.265-.25l-.037-1.236a.154.154 0 0 0-.159-.15.155.155 0 0 1-.159-.15l-.005-.172a.292.292 0 0 0-.3-.283.294.294 0 0 1-.209-.08l-1.326-1.25a.316.316 0 0 0-.447.014l-1.343 1.425a.32.32 0 0 0-.086.226l.006.178a.155.155 0 0 1-.15.16.154.154 0 0 0-.15.159l.036 1.236a.31.31 0 0 1-.3.318.308.308 0 0 0-.299.319l.104 3.503a.31.31 0 0 1-.619.018l-.029-.979a.206.206 0 0 0-.212-.2.206.206 0 0 1-.212-.2l-.042-1.41a.354.354 0 0 0-.165-.28c-.151-.1-.314-.238-.318-.357-.006-.206-.439-.915-1.779-.875-.971.03-1.35.576-1.444.923a.41.41 0 0 1-.091.175l-.24.255a.32.32 0 0 0-.086.226l.046 1.543a.232.232 0 0 1-.225.239.232.232 0 0 0-.225.239l.028.927a.232.232 0 0 1-.225.238.232.232 0 0 0-.225.24l.088 2.955a.316.316 0 0 1-.306.325l-1.842.054a.316.316 0 0 0-.306.325l.004.142a.316.316 0 0 1-.306.325l-.09.003a.315.315 0 0 0-.306.325Z" fill="#73BFA1"/><path d="m146.463 32.556.252 8.487c.005.174.15.31.325.306l75.302-2.187a.316.316 0 0 0 .307-.325l-.111-3.728a.18.18 0 0 0-.186-.175.18.18 0 0 1-.185-.175.18.18 0 0 0-.186-.175l-.824.025a.18.18 0 0 0-.175.185.18.18 0 0 1-.175.186l-.129.004a.31.31 0 0 0-.3.318l.029.979a.206.206 0 1 1-.412.012l-.055-1.854-.092-3.091a.258.258 0 0 0-.265-.25.257.257 0 0 1-.265-.25l-.012-.406a.316.316 0 0 0-.325-.306l-.502.015a.316.316 0 0 0-.307.325l.012.406a.257.257 0 0 1-.249.265.257.257 0 0 0-.25.265l.082 2.775a.316.316 0 0 1-.306.325l-1.223.037a.315.315 0 0 1-.325-.306l-.11-3.697a.316.316 0 0 0-.325-.306l-.502.015a.315.315 0 0 1-.325-.306l-.222-7.464a.316.316 0 0 0-.406-.294l-1.14.34-.433.133a.313.313 0 0 0-.189.16l-1.078 2.123a.312.312 0 0 0-.034.127l-.08 1.552a.315.315 0 0 1-.306.3l-1.505.045a.316.316 0 0 1-.325-.307l-.069-2.335a.322.322 0 0 0-.099-.22l-.234-.221a.319.319 0 0 1-.1-.22l-.076-2.59a.334.334 0 0 0-.027-.117l-.182-.42a.135.135 0 0 0-.248.001c-.052.121-.229.105-.257-.024l-.089-.406-.161-.5c-.098-.305-.535-.286-.608.025l-.145.621a.29.29 0 0 1-.025.07l-.211.42a.125.125 0 0 1-.224 0 .126.126 0 0 0-.236.03l-.057.287a.214.214 0 0 0-.004.05l.078 2.626a.32.32 0 0 1-.086.226l-.221.234a.315.315 0 0 0-.085.226l.069 2.335a.316.316 0 0 1-.306.325l-1.223.037a.315.315 0 0 1-.325-.306l-.03-.998a.18.18 0 0 0-.186-.175.18.18 0 0 1-.185-.175l-.024-.792a.316.316 0 0 0-.325-.307l-.038.002a.315.315 0 0 1-.325-.307l-.071-2.381a.352.352 0 0 0-.009-.065l-.933-3.859-.244-1.282-.177-.897a.449.449 0 0 1-.006-.052l-.05-1.7a.129.129 0 0 0-.258.008l.05 1.692a.316.316 0 0 1-.005.068l-.172.9-.116 1.292-.753 3.907a.268.268 0 0 0-.006.07l.071 2.379a.316.316 0 0 1-.306.325l-.142.004a.316.316 0 0 0-.306.325l.025.844a.13.13 0 0 1-.125.132.129.129 0 0 0-.125.133l.031 1.05a.316.316 0 0 1-.306.324l-1.841.055a.315.315 0 0 1-.325-.306l-.158-5.3a.258.258 0 0 0-.265-.25.258.258 0 0 1-.265-.25l-.038-1.28a.316.316 0 0 0-.325-.307l-.09.003a.315.315 0 0 1-.325-.307l-.009-.302a.31.31 0 0 0-.319-.3.31.31 0 0 1-.318-.3l-.005-.157a.498.498 0 0 0-.106-.263c-.368-.524-.627-2.248-.716-3.113l-.081-2.747a.19.19 0 0 0-.195-.184.217.217 0 0 0-.203.229c.022.355.051 1.16.067 2.714.019 1.845-.388 2.806-.67 3.158a.43.43 0 0 0-.105.271l.007.229a.232.232 0 0 1-.225.239.232.232 0 0 0-.225.238l.013.432a.316.316 0 0 1-.306.325l-.09.002a.316.316 0 0 0-.306.325l.039 1.333a.257.257 0 0 1-.25.265.257.257 0 0 0-.249.266l.154 5.196a.316.316 0 0 1-.306.325l-1.179.035a.316.316 0 0 1-.325-.3l-.823-15.923a.316.316 0 0 0-.182-.27l-.382-.177a.314.314 0 0 1-.183-.277l-.017-.571a.316.316 0 0 0-.325-.307l-.966.029a.316.316 0 0 1-.325-.306l-.137-4.604a.232.232 0 1 0-.463.014l.136 4.604a.315.315 0 0 1-.306.325l-.657.019a.316.316 0 0 0-.306.325l.017.55a.317.317 0 0 1-.193.3l-.523.222a.314.314 0 0 0-.192.294l.173 15.92a.315.315 0 0 1-.306.32l-1.178.035a.316.316 0 0 1-.325-.306l-.256-8.642a.317.317 0 0 0-.325-.306l-1.739.052a.316.316 0 0 1-.325-.307l-.039-1.307a.283.283 0 1 0-.566.017l.038 1.307a.315.315 0 0 1-.306.325l-1.584.047a.316.316 0 0 0-.306.325l.257 8.642a.316.316 0 0 1-.306.325l-.554.016a.316.316 0 0 1-.325-.306l-.65-21.88a.316.316 0 0 0-.325-.307l-3.385.1a.316.316 0 0 0-.306.328l.794 21.733c.009.23-.273.4-.5.369-.175-.024-.466-.182-.697-.326a.292.292 0 0 1-.084-.409.305.305 0 0 0-.111-.436l-.239-.127a.315.315 0 0 0-.365.05l-.023.02c-.139.132-.363.11-.453-.06-.075-.14-.138-.293-.141-.403-.005-.17-.224-.37-.388-.49a.343.343 0 0 1-.128-.168c-.094-.287-.216-.712-.143-.714.063-.002.104-.207.125-.38a.337.337 0 0 1 .125-.226l.246-.193a.204.204 0 0 0-.104-.362l-.097-.01a.131.131 0 0 1-.108-.182c.051-.12-.087-.233-.195-.159l-.143.098a.182.182 0 0 1-.275-.09l-.019-.057a.228.228 0 0 0-.422-.022l-.026.055a.222.222 0 0 1-.348.074l-.092-.08a.183.183 0 0 0-.298.178.183.183 0 0 1-.173.224l-.075.002a.245.245 0 0 1-.232-.147l-.213-.49a.333.333 0 0 1-.005-.246c.065-.176.142-.422.138-.552-.006-.206-.221-.509-.02-.67.187-.148.107-.563.33-.647.486-.184.89-.39.413-.405-.826-.027-.781-.235-1.294-.168-.351.045-.217.404-.059.655.037.059.012.14-.055.16-.084.027-.108.164-.072.244a.5.5 0 0 1 .021.338c-.092.363-.088.518.124.718.212.2.123.666.137 1.13.014.464.07.617.034 1.133-.037.517.123.667.177.768.045.083-.115.206.138.517.118.145.13.358-.013.477-1.234 1.035-3.257 1.818-4.439 2.18a.307.307 0 0 1-.395-.289l-.144-4.854a.258.258 0 0 0-.266-.25.258.258 0 0 1-.265-.25l-.037-1.236a.154.154 0 0 0-.159-.15.155.155 0 0 1-.159-.15l-.005-.172a.292.292 0 0 0-.3-.283.294.294 0 0 1-.209-.08l-1.326-1.25a.316.316 0 0 0-.447.014l-1.343 1.425a.32.32 0 0 0-.086.226l.006.178a.155.155 0 0 1-.15.16.154.154 0 0 0-.15.159l.036 1.236a.31.31 0 0 1-.3.318.308.308 0 0 0-.299.319l.104 3.503a.31.31 0 0 1-.619.018l-.029-.979a.206.206 0 0 0-.212-.2.206.206 0 0 1-.212-.2l-.042-1.41a.354.354 0 0 0-.165-.28c-.151-.1-.314-.238-.318-.357-.006-.206-.439-.915-1.779-.875-.971.03-1.35.576-1.444.923a.41.41 0 0 1-.091.175l-.24.255a.32.32 0 0 0-.086.226l.046 1.543a.232.232 0 0 1-.225.239.232.232 0 0 0-.225.239l.028.927a.232.232 0 0 1-.225.238.232.232 0 0 0-.225.24l.088 2.955a.316.316 0 0 1-.306.325l-1.842.054a.316.316 0 0 0-.306.325l.004.142a.316.316 0 0 1-.306.325l-.09.003a.315.315 0 0 0-.306.325Z" stroke="#FFF4DF" stroke-width="3.642" mask="url(#a)"/><path d="m153.364 37.836-1.562.047-.175-5.866 2.45-.073 1.778 5.337-.308.073-.162-5.448 1.563-.047.174 5.866-2.469.073-1.778-5.316.328-.074.161 5.428Zm5.308-4.834.702-.745.068 2.286-.37-.419 2.107-.062.036 1.193-2.108.062.345-.436.069 2.303-.746-.703 2.915-.086.036 1.193-3.806.113-.174-5.866 3.806-.113.035 1.193-2.915.087Zm4.465 4.544-.986-5.841 1.65-.05.676 5.6-.227-.005.657-5.627 1.96-.059.986 5.58-.226.018.342-5.63 1.65-.05-.637 5.89-2.453.073-.689-4.807.16-.005-.406 4.84-2.457.073Zm13.78-6.28-1.628 3.909.06 2.008-1.598.048-.06-2.009-1.845-3.806 1.698-.05 1.242 3.08-.628.018 1.057-3.148 1.702-.05Zm2.77 5.892a3.018 3.018 0 0 1-1.087-.163 2.605 2.605 0 0 1-.92-.554 2.73 2.73 0 0 1-.649-.936 3.54 3.54 0 0 1-.266-1.305c-.015-.499.047-.938.184-1.32a2.73 2.73 0 0 1 .588-.964 2.59 2.59 0 0 1 .886-.6c.338-.14.699-.215 1.084-.227.384-.011.749.043 1.095.163.346.117.653.299.92.546.27.246.485.556.644.928.16.372.247.807.262 1.305.015.496-.048.936-.188 1.32a2.684 2.684 0 0 1-.596.972 2.596 2.596 0 0 1-.889.608c-.335.14-.691.216-1.068.227Zm-.037-1.241c.196-.006.384-.065.564-.176.183-.114.328-.304.437-.57.111-.266.16-.63.147-1.091-.014-.464-.084-.823-.211-1.077-.127-.256-.284-.433-.47-.53a1.119 1.119 0 0 0-.573-.143 1.132 1.132 0 0 0-.564.176c-.18.109-.326.295-.437.558-.112.26-.161.623-.147 1.087.014.464.084.825.211 1.084.127.257.284.437.47.54.189.1.38.148.573.142Zm3.504 1.034-.175-5.866 2.601-.077c.668-.02 1.166.114 1.493.402.329.284.502.69.517 1.218.009.297-.04.552-.148.765a1.348 1.348 0 0 1-.411.498 1.057 1.057 0 0 1-.5.206c.173.005.335.041.485.108a.818.818 0 0 1 .369.336c.097.153.15.364.158.632l.014.485.014.485c.005.14.019.274.044.4a.62.62 0 0 0 .116.272l-1.607.048a.845.845 0 0 1-.108-.28 2.268 2.268 0 0 1-.043-.392l-.012-.394a46.595 46.595 0 0 0-.012-.394c-.006-.212-.056-.377-.15-.497-.094-.122-.258-.18-.494-.172l-1.066.032.403-.502.078 2.64-1.566.047Zm1.484-2.83-.435-.548 1.082-.032a.727.727 0 0 0 .352-.095.58.58 0 0 0 .231-.245.76.76 0 0 0 .077-.373.623.623 0 0 0-.201-.444c-.125-.123-.294-.182-.506-.175l-1.114.033.443-.491.071 2.37Zm6.319-.168.012-1.226 2.465 3.919-1.742.051-1.554-2.72.691.075-1.026 1.492.097-1.002.066 2.207-1.603.047-.174-5.865 1.603-.048.087 2.927-.298-.11 1.893-2.867 1.682-.05-2.199 3.17Zm9.942.254c.008.268-.035.54-.131.816-.092.273-.24.527-.443.761-.2.234-.458.426-.775.576-.314.148-.689.228-1.127.24-.575.018-1.072-.096-1.491-.34a2.536 2.536 0 0 1-.97-1.047c-.228-.45-.351-.972-.369-1.569-.018-.596.074-1.124.275-1.584a2.51 2.51 0 0 1 .907-1.098c.403-.27.893-.413 1.468-.43.477-.014.886.055 1.228.207.344.151.622.355.834.612a2.32 2.32 0 0 1 .552 1.42l-1.611.048a1.373 1.373 0 0 0-.022-.222 1.136 1.136 0 0 0-.169-.445.814.814 0 0 0-.323-.285.899.899 0 0 0-.452-.094.931.931 0 0 0-.556.2c-.163.127-.291.323-.384.588-.09.266-.129.61-.117 1.035.013.421.072.763.178 1.025.109.262.248.453.419.573.171.12.36.176.566.17a.833.833 0 0 0 .679-.33c.077-.101.134-.217.173-.348.038-.134.055-.278.051-.431l1.61-.048Zm.682 2.197-.175-5.866 1.583-.047.174 5.865-1.582.048Zm6.368-4.866-2.099.062.702-.745.16 5.396-1.602.048-.161-5.397.745.703-2.095.062-.036-1.193 4.351-.13.035 1.194Zm5.357-1.354-1.628 3.91.06 2.008-1.599.047-.059-2.008-1.845-3.806 1.698-.05 1.242 3.08-.628.018 1.057-3.148 1.702-.05Z" fill="#FFF4DF"/></svg>