<svg width="204" height="83" viewBox="0 0 204 83" fill="none" xmlns="http://www.w3.org/2000/svg">
<path d="M50.9701 72.4646L48.967 74.4679C48.595 74.8399 47.994 74.8399 47.622 74.4679L41.2692 68.1147C40.8972 67.7427 40.8972 67.1417 41.2692 66.7697L51.0655 56.9729C51.4375 56.6008 52.0384 56.6008 52.4104 56.9729L58.7632 63.326C59.1352 63.6981 59.1352 64.299 58.7632 64.6711L56.5788 66.8556" stroke="#FDDB97" stroke-width="2.12603" stroke-miterlimit="10"/>
<path d="M52.3747 66.5181L50.6278 68.2651C49.5476 69.3454 49.5476 71.097 50.6278 72.1773C51.7081 73.2576 53.4595 73.2576 54.5397 72.1773L56.2866 70.4303C57.3669 69.35 57.3668 67.5985 56.2866 66.5181C55.2064 65.4378 53.4549 65.4378 52.3747 66.5181Z" stroke="#FDDB97" stroke-width="2.12603" stroke-miterlimit="10"/>
<path d="M2 20.8003L2 23.8815C2 25.7834 3.54169 27.3252 5.44347 27.3252C7.34524 27.3252 8.88694 25.7834 8.88694 23.8815V20.8003C8.88694 18.8984 7.34524 17.3567 5.44347 17.3567C3.54169 17.3567 2 18.8984 2 20.8003Z" stroke="#FDDB97" stroke-width="2.12603" stroke-miterlimit="10"/>
<path d="M19.6016 106.312V101.284C19.6016 99.7905 20.203 98.3541 21.2702 97.3008L36.1033 82.6592" stroke="#FDDB97" stroke-width="2.12603" stroke-miterlimit="10"/>
<path d="M35.2793 82.9346L45.4554 84.0347" stroke="#FDDB97" stroke-width="2.12603"/>
<path d="M20.2361 98.9459L19.3395 98.0492C18.4333 97.143 17.9277 95.922 17.9277 94.6532V85.6673C17.9277 84.2459 18.4905 82.8818 19.5016 81.8802L25.8067 75.5747" stroke="#FDDB97" stroke-width="2.12603" stroke-miterlimit="10"/>
<path d="M23.3145 78.1214L27.4399 73.8585L31.9779 74.546M37.3409 75.2336C37.561 75.1236 42.6582 71.4749 43.6666 70.5581" stroke="#FDDB97" stroke-width="2.12603"/>
<circle cx="39.9554" cy="53.7811" r="2.75029" stroke="#FDDB97" stroke-width="2.12603"/>
<circle cx="34.178" cy="75.2332" r="2.75029" stroke="#FDDB97" stroke-width="2.12603"/>
<path d="M45.6311 72.4741V97.5815C45.6311 99.4798 45.2496 101.349 44.5056 103.095L43.1797 106.195" stroke="#FDDB97" stroke-width="2.12603" stroke-miterlimit="10"/>
<path d="M13.2656 18.8159L20.2956 33.1248L21.8123 31.8847C22.3083 31.4841 23.0523 31.713 23.2336 32.314L25.1031 38.4286L24.5785 34.6797C24.5785 29.9673 28.5561 26.1707 33.335 26.4855C37.7037 26.7717 41.0041 30.5874 41.0041 34.9659V44.3525L43.0454 45.3255C44.543 46.041 45.7162 47.2715 46.3744 48.7978L50.228 57.8124" stroke="#FDDB97" stroke-width="2.12603" stroke-miterlimit="10"/>
<path d="M18.8636 82.0615L18.1577 81.3556C17.5377 80.7355 17.1848 79.8866 17.1848 79.0089V70.6335C17.1848 68.697 17.6426 66.7891 18.5297 65.0721L19.8938 62.4202V56.6394L13.7795 40.6038C13.5219 39.9266 13.6269 39.1634 14.0561 38.5815L15.277 36.9026L11.6523 30.8643" stroke="#FDDB97" stroke-width="2.12603" stroke-miterlimit="10"/>
<path d="M19.3281 63.4075L24.1411 58.732L32.9421 59.8321L38.1677 55.4316" stroke="#FDDB97" stroke-width="2.12603"/>
<path d="M30.0527 26.934L31.0066 18.425C31.1878 17.1944 31.8746 16.479 32.9525 16.479C34.0208 16.479 34.6885 17.1754 34.8984 18.425L35.8523 26.934" stroke="#FDDB97" stroke-width="2.12603" stroke-miterlimit="10"/>
<path d="M7.03543 17.719L6.88281 15.3057" stroke="#FDDB97" stroke-width="2.12603" stroke-miterlimit="10"/>
<path d="M12.674 15.3057L11.7201 30.4922C11.5389 31.7227 10.8521 32.4382 9.7742 32.4382C8.70587 32.4382 8.03816 31.7418 7.82831 30.4922L7.58984 26.686" stroke="#FDDB97" stroke-width="2.12603" stroke-miterlimit="10"/>
<path d="M26.7521 29.2232L23.3277 21.3724C22.8698 20.2181 23.1083 19.2546 24.0336 18.7204C24.9588 18.1863 25.8841 18.4533 26.6853 19.4264L31.7694 26.3232" stroke="#FDDB97" stroke-width="2.12603" stroke-miterlimit="10"/>
<path d="M25.0355 32.858L18.139 27.7736C17.1661 27.0009 16.8895 26.047 17.4332 25.1217C17.9673 24.1964 18.9117 23.9674 20.0849 24.4158L27.9353 27.8404" stroke="#FDDB97" stroke-width="2.12603" stroke-miterlimit="10"/>
<path d="M40.3457 31.6367L48.4822 32.5906C49.7127 32.7718 50.4281 33.4586 50.4281 34.5365C50.4281 35.6048 49.7318 36.2725 48.4822 36.4824L41.0229 37.379" stroke="#FDDB97" stroke-width="2.12603" stroke-miterlimit="10"/>
<path d="M37.6934 28.3363L45.5437 24.9117C46.6979 24.4538 47.6613 24.6923 48.1955 25.6176C48.7296 26.5429 48.4625 27.4682 47.4896 28.2695L40.8316 33.1727" stroke="#FDDB97" stroke-width="2.12603" stroke-miterlimit="10"/>
<path d="M34.0586 26.6092L39.1427 19.7123C39.9153 18.7393 40.8692 18.4627 41.7945 19.0064C42.7197 19.5406 42.9487 20.485 42.5003 21.6583L39.0759 29.5092" stroke="#FDDB97" stroke-width="2.12603" stroke-miterlimit="10"/>
<path d="M13.1389 1.93816C13.1389 1.93816 15.4689 0.491016 15.4689 5.73761C15.4689 10.9842 9.83151 10.6599 9.83151 10.6599C9.83151 10.6599 4.07014 11.1082 4.12738 5.57545C4.21322 -2.49477 8.92534 -4.25 8.92534 -4.25C8.92534 -4.25 12.3402 -2.46616 12.3211 -0.119497C12.2925 3.02846 12.531 2.4561 12.531 2.4561L13.0014 2.07568L13.1389 1.93816Z" stroke="#FDDB97" stroke-width="2.12603" stroke-miterlimit="10" stroke-linecap="round"/>
<path d="M13.1399 10.1255H14.7901C15.4006 10.1255 15.8966 10.6215 15.8966 11.232V14.561C15.8966 15.1715 15.4006 15.6675 14.7901 15.6675H4.77446C4.16398 15.6675 3.66797 15.1715 3.66797 14.561V11.232C3.66797 10.6215 4.16398 10.1255 4.77446 10.1255H6.27203" stroke="#FDDB97" stroke-width="2.12603" stroke-miterlimit="10"/>
<path d="M151.527 46.8662L151.527 105.006" stroke="#FDDB97" stroke-width="2.10871" stroke-miterlimit="10"/>
<path d="M175.93 46.8662L175.93 105.006" stroke="#FDDB97" stroke-width="2.10871" stroke-miterlimit="10"/>
<path d="M163.879 47.4688L163.879 91.1491" stroke="#FDDB97" stroke-width="2.10871" stroke-miterlimit="10"/>
<path d="M163.879 -15.4912L163.879 8.60828" stroke="#FDDB97" stroke-width="2.10871" stroke-miterlimit="10"/>
<path d="M179.301 8.66357L169.835 8.66357V-10.1228H177.211C178.36 -10.1228 179.301 -9.18245 179.301 -8.03312V8.66357Z" stroke="#FDDB97" stroke-width="2.10871" stroke-miterlimit="10"/>
<path d="M157.576 8.66357L148.11 8.66357V-8.03312C148.11 -9.18245 149.051 -10.1228 150.2 -10.1228H157.576V8.66357Z" stroke="#FDDB97" stroke-width="2.10871" stroke-miterlimit="10"/>
<path d="M145.203 109.224V42.0464M157.554 46.4144V109.224" stroke="#FDDB97" stroke-width="2.10871" stroke-miterlimit="10"/>
<path d="M169.904 109.224V46.7157M181.954 42.6489V109.224" stroke="#FDDB97" stroke-width="2.10871" stroke-miterlimit="10"/>
<circle cx="153.938" cy="29.9963" r="3.01244" stroke="#FDDB97" stroke-width="2.10871"/>
<circle cx="163.88" cy="19.7541" r="3.01244" stroke="#FDDB97" stroke-width="2.10871"/>
<circle cx="173.219" cy="36.0212" r="3.01244" stroke="#FDDB97" stroke-width="2.10871"/>
<rect x="145.201" y="8.6084" width="36.7517" height="38.2579" rx="2.40995" stroke="#FDDB97" stroke-width="2.10871"/>
<path d="M153.637 8.90967L153.637 26.9843" stroke="#FDDB97" stroke-width="2.10871"/>
<path d="M153.938 33.0088L153.938 46.866" stroke="#FDDB97" stroke-width="2.10871"/>
<path d="M173.217 39.0342L173.217 46.8665" stroke="#FDDB97" stroke-width="2.10871"/>
<path d="M163.877 23.3691L163.877 46.8661" stroke="#FDDB97" stroke-width="2.10871"/>
<path d="M163.877 8.90967V16.742" stroke="#FDDB97" stroke-width="2.10871"/>
<path d="M173.217 8.90967V33.0092" stroke="#FDDB97" stroke-width="2.10871"/>
<path d="M65.056 -3.0575L104.298 -26.7338C106.388 -27.9981 109.052 -26.4935 109.052 -24.0485V153.419C109.052 155.154 107.652 156.554 105.918 156.554H67.1664C65.4425 156.554 64.0425 155.154 64.0321 153.43L63.541 -0.361784C63.541 -1.45888 64.1156 -2.48283 65.056 -3.0575Z" stroke="#FDDB97" stroke-width="2.10871" stroke-miterlimit="10"/>
<path d="M63.4355 11.8003H108.873" stroke="#FDDB97" stroke-width="2.10871" stroke-miterlimit="10"/>
<path d="M63.4355 16.8779H108.873" stroke="#FDDB97" stroke-width="2.10871" stroke-miterlimit="10"/>
<path d="M63.4355 21.9565H108.873" stroke="#FDDB97" stroke-width="2.10871" stroke-miterlimit="10"/>
<path d="M63.4355 62.5801H108.873" stroke="#FDDB97" stroke-width="2.10871" stroke-miterlimit="10"/>
<path d="M63.4355 67.6577H108.873" stroke="#FDDB97" stroke-width="2.10871" stroke-miterlimit="10"/>
<path d="M63.4355 72.7358H108.873" stroke="#FDDB97" stroke-width="2.10871" stroke-miterlimit="10"/>
<path d="M63.4355 77.814H108.873" stroke="#FDDB97" stroke-width="2.10871" stroke-miterlimit="10"/>
<path d="M63.4355 82.8916H108.873" stroke="#FDDB97" stroke-width="2.10871" stroke-miterlimit="10"/>
<circle cx="79.7019" cy="51.7346" r="3.01244" stroke="#FDDB97" stroke-width="2.10871"/>
<path d="M79.7031 55.0483V62.5794" stroke="#FDDB97" stroke-width="2.10871"/>
<circle cx="94.4636" cy="31.551" r="3.01244" stroke="#FDDB97" stroke-width="2.10871"/>
<path d="M94.3125 35.166V42.9983" stroke="#FDDB97" stroke-width="2.10871"/>
<path d="M63.8887 39.6849L72.926 32.7563L82.867 37.2749L91.7537 32.1538" stroke="#FDDB97" stroke-width="2.10871"/>
<path d="M97.7786 31.8522L102.448 32.9066L109.075 25.3755M63.8887 56.253L71.2691 49.1737L76.9928 51.1318" stroke="#FDDB97" stroke-width="2.10871"/>
<path d="M81.9609 50.3789L88.2871 45.1071L98.9812 50.3789L109.223 38.6304" stroke="#FDDB97" stroke-width="2.10871"/>
<path d="M81.6621 11.3675V3.83643" stroke="#FDDB97" stroke-width="2.10871"/>
<path d="M86.3301 11.3678V1.72803" stroke="#FDDB97" stroke-width="2.10871"/>
<path d="M90.8496 11.368L90.8496 -7.91162" stroke="#FDDB97" stroke-width="2.10871"/>
<path d="M95.6699 11.3676L95.6699 -6.40576" stroke="#FDDB97" stroke-width="2.10871"/>
<path d="M100.188 11.3676L100.188 -17.5518" stroke="#FDDB97" stroke-width="2.10871"/>
<line x1="109.121" y1="55.9996" x2="144.713" y2="55.9996" stroke="#FDDB97" stroke-width="2.12489"/>
<line x1="109.121" y1="75.1236" x2="144.713" y2="75.1236" stroke="#FDDB97" stroke-width="2.12489"/>
<line x1="127.182" y1="56" x2="127.182" y2="134.09" stroke="#FDDB97" stroke-width="2.12489"/>
<line x1="109.121" y1="65.5621" x2="145.244" y2="65.5621" stroke="#FDDB97" stroke-width="2.12489"/>
</svg>
