<svg width="287" height="148" viewBox="0 0 287 148" fill="none" xmlns="http://www.w3.org/2000/svg">
<g opacity="0.5">
<path d="M104.489 53.5127H99.3884C98.6841 53.5127 98.1133 54.0836 98.1133 54.7878V59.888C98.1133 60.5922 98.6841 61.1631 99.3884 61.1631H104.489C105.193 61.1631 105.764 60.5922 105.764 59.888V54.7878C105.764 54.0836 105.193 53.5127 104.489 53.5127Z" stroke="#FDDB97" stroke-width="1.9126"/>
<path d="M112.178 58.3833H111.541C110.836 58.3833 110.266 58.9542 110.266 59.6584V60.2959C110.266 61.0001 110.836 61.571 111.541 61.571H112.178C112.882 61.571 113.453 61.0001 113.453 60.2959V59.6584C113.453 58.9542 112.882 58.3833 112.178 58.3833Z" fill="#FDDB97"/>
<path d="M112.178 64.7588H111.541C110.836 64.7588 110.266 65.3297 110.266 66.0339V66.6714C110.266 67.3756 110.836 67.9465 111.541 67.9465H112.178C112.882 67.9465 113.453 67.3756 113.453 66.6714V66.0339C113.453 65.3297 112.882 64.7588 112.178 64.7588Z" fill="#FDDB97"/>
<path d="M92.5278 46.5952H91.8903C91.1861 46.5952 90.6152 47.1661 90.6152 47.8703V48.5078C90.6152 49.212 91.1861 49.7829 91.8903 49.7829H92.5278C93.232 49.7829 93.8029 49.212 93.8029 48.5078V47.8703C93.8029 47.1661 93.232 46.5952 92.5278 46.5952Z" fill="#FDDB97"/>
<path d="M92.5278 52.9707H91.8903C91.1861 52.9707 90.6152 53.5416 90.6152 54.2458V54.8833C90.6152 55.5875 91.1861 56.1584 91.8903 56.1584H92.5278C93.232 56.1584 93.8029 55.5875 93.8029 54.8833V54.2458C93.8029 53.5416 93.232 52.9707 92.5278 52.9707Z" fill="#FDDB97"/>
<path d="M232.786 59.3462H227.685C226.981 59.3462 226.41 59.9171 226.41 60.6213V65.7215C226.41 66.4257 226.981 66.9966 227.685 66.9966H232.786C233.49 66.9966 234.061 66.4257 234.061 65.7215V60.6213C234.061 59.9171 233.49 59.3462 232.786 59.3462Z" stroke="#FDDB97" stroke-width="1.9126"/>
<path d="M220.674 66.9966H215.574C214.87 66.9966 214.299 67.5674 214.299 68.2717V73.3719C214.299 74.0761 214.87 74.647 215.574 74.647H220.674C221.378 74.647 221.949 74.0761 221.949 73.3719V68.2717C221.949 67.5674 221.378 66.9966 220.674 66.9966Z" stroke="#FDDB97" stroke-width="1.9126"/>
<path d="M220.674 51.6958H215.574C214.87 51.6958 214.299 52.2667 214.299 52.9709V58.0711C214.299 58.7753 214.87 59.3462 215.574 59.3462H220.674C221.378 59.3462 221.949 58.7753 221.949 58.0711V52.9709C221.949 52.2667 221.378 51.6958 220.674 51.6958Z" stroke="#FDDB97" stroke-width="1.9126"/>
<path d="M14.1699 2V66.5808" stroke="#FDDB97" stroke-width="2.50775" stroke-miterlimit="10" stroke-linecap="round"/>
<path d="M21.7051 2V66.5808" stroke="#FDDB97" stroke-width="2.50775" stroke-miterlimit="10" stroke-linecap="round"/>
<path d="M33.8767 77.4878H2" stroke="#FDDB97" stroke-width="2.50775" stroke-miterlimit="10"/>
<path d="M33.8767 82.3716H2" stroke="#FDDB97" stroke-width="2.50775" stroke-miterlimit="10"/>
<path d="M33.8767 92.1484H2" stroke="#FDDB97" stroke-width="2.50775" stroke-miterlimit="10"/>
<path d="M33.8767 101.725H2" stroke="#FDDB97" stroke-width="2.50775" stroke-miterlimit="10"/>
<path d="M33.8767 111.1H2" stroke="#FDDB97" stroke-width="2.50775" stroke-miterlimit="10"/>
<path d="M33.8767 120.877H2" stroke="#FDDB97" stroke-width="2.50775" stroke-miterlimit="10"/>
<path d="M33.8767 140.029H2" stroke="#FDDB97" stroke-width="2.50775" stroke-miterlimit="10"/>
<path d="M31.9429 66.5806H3.93462C2.87695 66.5806 2.01953 67.438 2.01953 68.4958V158.817C2.01953 159.875 2.87695 160.732 3.93462 160.732H31.9429C33.0005 160.732 33.858 159.875 33.858 158.817V68.4958C33.858 67.438 33.0005 66.5806 31.9429 66.5806Z" stroke="#FDDB97" stroke-width="2.50775" stroke-miterlimit="10"/>
<path d="M11.0303 9.77588H24.8573C25.9106 9.77588 26.7724 10.6377 26.7724 11.6911V66.5714H9.11523V11.6911C9.11523 10.6377 9.97703 9.77588 11.0303 9.77588Z" stroke="#FDDB97" stroke-width="2.50775" stroke-miterlimit="10"/>
<path d="M283.96 112.899H255.958C255.13 112.899 254.459 113.57 254.459 114.398V153.103C254.459 153.931 255.13 154.602 255.958 154.602H283.96C284.788 154.602 285.459 153.931 285.459 153.103V114.398C285.459 113.57 284.788 112.899 283.96 112.899Z" stroke="#FDDB97" stroke-width="2.17393" stroke-miterlimit="10"/>
<path d="M263.391 118.542H259.622C259.209 118.542 258.873 118.877 258.873 119.291V123.061C258.873 123.475 259.209 123.81 259.622 123.81H263.391C263.805 123.81 264.141 123.475 264.141 123.061V119.291C264.141 118.877 263.805 118.542 263.391 118.542Z" fill="#FDDB97"/>
<path d="M271.852 118.542H268.083C267.669 118.542 267.334 118.877 267.334 119.291V123.061C267.334 123.475 267.669 123.81 268.083 123.81H271.852C272.266 123.81 272.602 123.475 272.602 123.061V119.291C272.602 118.877 272.266 118.542 271.852 118.542Z" fill="#FDDB97"/>
<path d="M280.302 118.542H276.533C276.119 118.542 275.783 118.877 275.783 119.291V123.061C275.783 123.475 276.119 123.81 276.533 123.81H280.302C280.716 123.81 281.051 123.475 281.051 123.061V119.291C281.051 118.877 280.716 118.542 280.302 118.542Z" fill="#FDDB97"/>
<path d="M263.391 126.928H259.622C259.209 126.928 258.873 127.263 258.873 127.677V131.446C258.873 131.86 259.209 132.196 259.622 132.196H263.391C263.805 132.196 264.141 131.86 264.141 131.446V127.677C264.141 127.263 263.805 126.928 263.391 126.928Z" fill="#FDDB97"/>
<path d="M271.852 126.928H268.083C267.669 126.928 267.334 127.263 267.334 127.677V131.446C267.334 131.86 267.669 132.196 268.083 132.196H271.852C272.266 132.196 272.602 131.86 272.602 131.446V127.677C272.602 127.263 272.266 126.928 271.852 126.928Z" fill="#FDDB97"/>
<path d="M280.302 126.928H276.533C276.119 126.928 275.783 127.263 275.783 127.677V131.446C275.783 131.86 276.119 132.196 276.533 132.196H280.302C280.716 132.196 281.051 131.86 281.051 131.446V127.677C281.051 127.263 280.716 126.928 280.302 126.928Z" fill="#FDDB97"/>
<path d="M263.391 135.313H259.622C259.209 135.313 258.873 135.648 258.873 136.062V139.832C258.873 140.246 259.209 140.581 259.622 140.581H263.391C263.805 140.581 264.141 140.246 264.141 139.832V136.062C264.141 135.648 263.805 135.313 263.391 135.313Z" fill="#FDDB97"/>
<path d="M271.852 135.313H268.083C267.669 135.313 267.334 135.648 267.334 136.062V139.832C267.334 140.246 267.669 140.581 268.083 140.581H271.852C272.266 140.581 272.602 140.246 272.602 139.832V136.062C272.602 135.648 272.266 135.313 271.852 135.313Z" fill="#FDDB97"/>
<path d="M280.302 135.313H276.533C276.119 135.313 275.783 135.648 275.783 136.062V139.832C275.783 140.246 276.119 140.581 276.533 140.581H280.302C280.716 140.581 281.051 140.246 281.051 139.832V136.062C281.051 135.648 280.716 135.313 280.302 135.313Z" fill="#FDDB97"/>
<path d="M263.391 143.691H259.622C259.209 143.691 258.873 144.026 258.873 144.44V148.21C258.873 148.624 259.209 148.959 259.622 148.959H263.391C263.805 148.959 264.141 148.624 264.141 148.21V144.44C264.141 144.026 263.805 143.691 263.391 143.691Z" fill="#FDDB97"/>
<path d="M271.852 143.691H268.083C267.669 143.691 267.334 144.026 267.334 144.44V148.21C267.334 148.624 267.669 148.959 268.083 148.959H271.852C272.266 148.959 272.602 148.624 272.602 148.21V144.44C272.602 144.026 272.266 143.691 271.852 143.691Z" fill="#FDDB97"/>
<path d="M280.302 143.691H276.533C276.119 143.691 275.783 144.026 275.783 144.44V148.21C275.783 148.624 276.119 148.959 276.533 148.959H280.302C280.716 148.959 281.051 148.624 281.051 148.21V144.44C281.051 144.026 280.716 143.691 280.302 143.691Z" fill="#FDDB97"/>
<path d="M90.0477 67.6338H97.4317C97.9747 67.6338 98.4189 68.078 98.4189 68.621V73.2906C98.4189 73.8336 97.9747 74.2778 97.4317 74.2778H89.0605V68.621C89.0605 68.078 89.5048 67.6338 90.0477 67.6338V67.6338Z" stroke="#FDDB97" stroke-width="1.97433" stroke-miterlimit="10"/>
<path d="M86.2567 79.0957H91.8638C92.4067 79.0957 92.851 79.5399 92.851 80.0829V84.9792H85.2695V80.0829C85.2695 79.5399 85.7138 79.0957 86.2567 79.0957Z" stroke="#FDDB97" stroke-width="1.97433" stroke-miterlimit="10"/>
<path d="M91.2207 84.9897H97.5287C98.0716 84.9897 98.5159 85.434 98.5159 85.9769V89.6196H91.2207V84.9897Z" stroke="#FDDB97" stroke-width="1.97433" stroke-miterlimit="10"/>
<path d="M80.5985 84.9897H86.9065V89.6196H79.6113V85.9769C79.6113 85.434 80.0556 84.9897 80.5985 84.9897Z" stroke="#FDDB97" stroke-width="1.97433" stroke-miterlimit="10"/>
<path d="M97.1733 89.6099H91.2207V128.26H97.1733V89.6099Z" stroke="#FDDB97" stroke-width="1.97433" stroke-miterlimit="10"/>
<path d="M86.9077 89.6099H80.9551V128.26H86.9077V89.6099Z" stroke="#FDDB97" stroke-width="1.97433" stroke-miterlimit="10"/>
<path d="M89.0605 71.4741V79.0955" stroke="#FDDB97" stroke-width="1.97433" stroke-miterlimit="10"/>
<path d="M107.432 110.568V128.269" stroke="#FDDB97" stroke-width="1.97433" stroke-miterlimit="10"/>
<path d="M119.625 118.15V128.269" stroke="#FDDB97" stroke-width="1.97433" stroke-miterlimit="10"/>
<path d="M131.812 122.307V128.269" stroke="#FDDB97" stroke-width="1.97433" stroke-miterlimit="10"/>
<path d="M144.008 123.629V128.269" stroke="#FDDB97" stroke-width="1.97433" stroke-miterlimit="10"/>
<path d="M156.197 122.336V128.269" stroke="#FDDB97" stroke-width="1.97433" stroke-miterlimit="10"/>
<path d="M168.391 118.259V128.27" stroke="#FDDB97" stroke-width="1.97433" stroke-miterlimit="10"/>
<path d="M180.58 110.677V128.27" stroke="#FDDB97" stroke-width="1.97433" stroke-miterlimit="10"/>
<path d="M97.1816 89.6099C105.918 106.728 123.707 118.457 144.24 118.457C164.773 118.457 182.562 106.728 191.298 89.6099" stroke="#FDDB97" stroke-width="1.97433" stroke-miterlimit="10"/>
<path d="M217.965 110.588V128.289" stroke="#FDDB97" stroke-width="1.97433" stroke-miterlimit="10"/>
<path d="M230.156 118.17V128.289" stroke="#FDDB97" stroke-width="1.97433" stroke-miterlimit="10"/>
<path d="M242.346 122.327V128.289" stroke="#FDDB97" stroke-width="1.97433" stroke-miterlimit="10"/>
<path d="M46.0664 122.336V128.269" stroke="#FDDB97" stroke-width="1.97433" stroke-miterlimit="10"/>
<path d="M58.2578 118.259V128.27" stroke="#FDDB97" stroke-width="1.97433" stroke-miterlimit="10"/>
<path d="M70.4473 110.677V128.27" stroke="#FDDB97" stroke-width="1.97433" stroke-miterlimit="10"/>
<path d="M33.877 128.269V134.666H254.568V118.466C234.035 118.466 216.246 106.738 207.51 89.6191" stroke="#FDDB97" stroke-width="1.97433" stroke-miterlimit="10"/>
<path d="M80.945 89.6099C72.2085 106.728 54.4198 118.457 33.8867 118.457V128.26H254.548" stroke="#FDDB97" stroke-width="1.97433" stroke-miterlimit="10"/>
<path d="M97.4897 139.307H80.4512V161.608H97.4897V139.307Z" stroke="#FDDB97" stroke-width="1.97433" stroke-miterlimit="10"/>
<path d="M78.9902 134.687H98.9507V138.329C98.9507 138.872 98.5065 139.316 97.9636 139.316H79.9774C79.4345 139.316 78.9902 138.872 78.9902 138.329V134.687Z" stroke="#FDDB97" stroke-width="1.97433" stroke-miterlimit="10"/>
<path d="M92.6233 134.687H85.3281V161.618H92.6233V134.687Z" stroke="#FDDB97" stroke-width="1.97433" stroke-miterlimit="10"/>
<path d="M200.382 67.6338H207.766C208.309 67.6338 208.753 68.078 208.753 68.621V73.2906C208.753 73.8336 208.309 74.2778 207.766 74.2778H199.395V68.621C199.395 68.078 199.839 67.6338 200.382 67.6338Z" stroke="#FDDB97" stroke-width="1.97433" stroke-miterlimit="10"/>
<path d="M196.602 79.0957H202.21C202.752 79.0957 203.197 79.5399 203.197 80.0829V84.9792H195.615V80.0829C195.615 79.5399 196.059 79.0957 196.602 79.0957Z" stroke="#FDDB97" stroke-width="1.97433" stroke-miterlimit="10"/>
<path d="M201.555 84.9897H207.863C208.406 84.9897 208.85 85.434 208.85 85.9769V89.6196H201.555V84.9897Z" stroke="#FDDB97" stroke-width="1.97433" stroke-miterlimit="10"/>
<path d="M190.936 84.9897H197.244V89.6196H189.949V85.9769C189.949 85.434 190.393 84.9897 190.936 84.9897Z" stroke="#FDDB97" stroke-width="1.97433" stroke-miterlimit="10"/>
<path d="M207.507 89.6099H201.555V128.25H207.507V89.6099Z" stroke="#FDDB97" stroke-width="1.97433" stroke-miterlimit="10"/>
<path d="M197.244 89.6099H191.291V128.25H197.244V89.6099Z" stroke="#FDDB97" stroke-width="1.97433" stroke-miterlimit="10"/>
<path d="M199.395 71.4741V79.0955" stroke="#FDDB97" stroke-width="1.97433" stroke-miterlimit="10"/>
<path d="M207.828 139.307H190.789V161.608H207.828V139.307Z" stroke="#FDDB97" stroke-width="1.97433" stroke-miterlimit="10"/>
<path d="M189.338 134.687H209.298V138.329C209.298 138.872 208.854 139.316 208.311 139.316H190.325C189.782 139.316 189.338 138.872 189.338 138.329V134.687Z" stroke="#FDDB97" stroke-width="1.97433" stroke-miterlimit="10"/>
<path d="M202.961 134.687H195.666V161.618H202.961V134.687Z" stroke="#FDDB97" stroke-width="1.97433" stroke-miterlimit="10"/>
<path d="M91.261 89.6099H91.2305" stroke="#FDDB97" stroke-width="1.97433" stroke-miterlimit="10"/>
<path d="M97.1738 99.7881C107.756 114.31 124.884 123.758 144.232 123.758C163.581 123.758 180.708 114.31 191.29 99.7881" stroke="#FDDB97" stroke-width="1.97433" stroke-miterlimit="10"/>
<path d="M33.8867 123.758C53.2352 123.758 70.3724 114.31 80.9549 99.7778" stroke="#FDDB97" stroke-width="1.97433" stroke-miterlimit="10"/>
<path d="M207.508 99.8076C218.09 114.32 235.218 123.758 254.556 123.758" stroke="#FDDB97" stroke-width="1.97433" stroke-miterlimit="10"/>
</g>
</svg>
