<svg width="64" height="54" fill="none" xmlns="http://www.w3.org/2000/svg"><rect x="8.328" y="-4.187" width="55.227" height="46.136" rx="4.988" transform="rotate(8.524 8.328 -4.187)" fill="#FFF4DF" stroke="#FFF4DF" stroke-width="2.499"/><path d="m15.935 39.187 24.534 3.677.596-3.976-17.786-2.665c.078-.523.098-.654 6.51-.79 9.23-.194 11.16-1.296 11.622-4.382.411-2.747-2.365-6.345-10.474-7.56-8.187-1.228-12.52 1.279-13.034 4.705-.094.628-.076 1.219.008 1.552l4.891.733a2.92 2.92 0 0 1-.026-1.073c.278-1.857 2.66-2.757 7.472-2.036 4.578.686 5.676 1.92 5.508 3.045-.188 1.256-.655 1.694-8.935 1.977-9.3.318-10.204 2.242-10.886 6.793ZM8.825.932a3.739 3.739 0 0 1 4.252-3.143l44.75 6.706a3.739 3.739 0 0 1 3.144 4.252l-2.148 14.328L6.677 15.26 8.825.932Z" fill="#73BFA1"/><path d="m11.716 12.351 2.78.417 1.084-7.234.015.002 5.328 8.195 2.84.426 1.474-9.835-2.78-.417-.887 5.919-.015-.002-4.36-6.705-4.005-.6-1.474 9.834Zm21.345 3.383c4.589.687 6.809-1.38 7.228-4.174.408-2.72-1.26-5.355-5.7-6.02-4.439-.665-6.806 1.364-7.214 4.084-.441 2.945 1.232 5.442 5.686 6.11Zm.319-2.123c-2.347-.352-3.252-1.756-2.988-3.52.24-1.599 1.547-2.778 3.879-2.428 2.332.349 3.236 1.86 2.996 3.46-.253 1.688-1.481 2.849-3.888 2.488Zm12.847 3.912 3.437.516L56.4 8.992l-2.93-.439-4.97 6.958-.014-.003-2.772-8.117-3.274-.491 3.788 10.623Z" fill="#FFF4DF"/></svg>