<svg width="203" height="113" viewBox="0 0 203 113" fill="none" xmlns="http://www.w3.org/2000/svg">
<path d="M196.297 78.9588C199.984 77.6097 203 73.291 203 69.3649V42.8889C203 38.9629 199.984 34.6442 196.297 33.2951L108.638 1.17982C104.951 -0.169316 98.9196 -0.169316 95.2326 1.17982L7.57787 33.2951C3.89093 34.6478 0.875 38.9629 0.875 42.8889L0.875 69.3649C0.875 73.291 3.89093 77.6097 7.57787 78.9588L95.2362 111.074C98.9231 112.423 104.955 112.423 108.642 111.074L196.3 78.9588H196.297Z" fill="#FF6D3B"/>
<path d="M69.0938 80.9421H81.7297V78.8954H72.5699C72.5699 78.626 72.5699 78.5586 75.7878 78.0049C80.4201 77.2116 81.3106 76.5081 81.3106 74.9216C81.3106 73.5072 79.6418 71.9058 75.466 71.9058C71.2902 71.9058 69.2546 73.496 69.2546 75.2584C69.2546 75.5802 69.307 75.8795 69.3744 76.0404H71.8926C71.8402 75.9057 71.7991 75.7186 71.7991 75.5016C71.7991 74.5437 72.9291 73.9114 75.4099 73.9114C77.8907 73.9114 78.4145 74.4502 78.4145 75.0301C78.4145 75.6775 78.2125 75.9319 74.0628 76.699C69.4006 77.5596 69.0938 78.5998 69.0938 80.9421V80.9421Z" fill="white"/>
<path d="M93.1169 81.0765C97.6818 81.0765 99.8783 79.056 99.8783 76.4704C99.8783 73.8849 97.5209 71.9429 93.1169 71.9429C88.7128 71.9429 86.3555 73.7614 86.3555 76.4704C86.3555 79.1795 88.5519 81.0765 93.1169 81.0765ZM93.1169 79.0298C90.5725 79.0298 89.2628 78.0457 89.2628 76.4854C89.2628 74.9251 90.651 73.9934 93.1169 73.9934C95.5827 73.9934 96.9709 74.8951 96.9709 76.4854C96.9709 78.0756 95.665 79.0298 93.1169 79.0298Z" fill="white"/>
<path d="M104.395 80.9421H117.031V78.8954H107.871C107.871 78.626 107.871 78.5586 111.089 78.0049C115.721 77.2116 116.611 76.5081 116.611 74.9216C116.611 73.5072 114.943 71.9058 110.767 71.9058C106.591 71.9058 104.555 73.496 104.555 75.2584C104.555 75.5802 104.608 75.8795 104.675 76.0404H107.193C107.141 75.9057 107.1 75.7186 107.1 75.5016C107.1 74.5437 108.23 73.9114 110.711 73.9114C113.191 73.9114 113.715 74.4502 113.715 75.0301C113.715 75.6775 113.513 75.9319 109.364 76.699C104.701 77.5596 104.395 78.5998 104.395 80.9421V80.9421Z" fill="white"/>
<path d="M122.049 80.9426H134.685V78.8959H125.525C125.525 78.6265 125.525 78.5591 128.743 78.0053C133.375 77.2121 134.266 76.5086 134.266 74.9221C134.266 73.5077 132.597 71.9062 128.421 71.9062C124.245 71.9062 122.21 73.4965 122.21 75.2589C122.21 75.5807 122.262 75.88 122.329 76.0409H124.848C124.795 75.9062 124.754 75.7191 124.754 75.5021C124.754 74.5442 125.884 73.9118 128.365 73.9118C130.846 73.9118 131.37 74.4507 131.37 75.0306C131.37 75.678 131.168 75.9324 127.018 76.6995C122.356 77.5601 122.049 78.6003 122.049 80.9426V80.9426Z" fill="white"/>
<path d="M13.9503 66.1933C11.2798 66.1933 9.0918 64.1649 9.0918 61.6032V50.9936C9.0918 48.4319 11.2834 46.3818 13.9503 46.3818H14.7304C17.4228 46.3818 19.618 48.4428 19.618 50.9936V61.6032C19.618 64.1649 17.4264 66.1933 14.7304 66.1933H13.9503ZM14.7304 49.3354H13.9503C13.1702 49.3354 12.5352 50.0865 12.5352 50.9936V61.5778C12.5352 62.4777 13.1629 63.2361 13.9503 63.2361H14.7304C15.536 63.2361 16.1673 62.485 16.1673 61.5778V50.9936C16.1673 50.0938 15.5396 49.3354 14.7304 49.3354V49.3354Z" fill="white"/>
<path d="M26.9062 50.4467H27.4069C29.4461 50.4467 31.1551 52.4278 31.1551 54.8843V61.7312C31.1551 64.1913 29.4461 66.1906 27.4069 66.1906H26.9062C25.9265 66.1906 24.9178 65.639 24.5876 65.2653L24.4135 65.9402H21.2676V45.8784H24.5913V51.3719C24.9178 50.9946 25.9265 50.443 26.9098 50.443L26.9062 50.4467ZM25.9519 63.3422H26.4527C27.2328 63.3422 27.8351 62.6165 27.8351 61.7602V54.8879C27.8351 54.0098 27.2328 53.2841 26.4527 53.2841H25.9519C25.1972 53.2841 24.5913 54.0098 24.5913 54.8879V61.7602C24.5913 62.5875 25.1972 63.3422 25.9519 63.3422Z" fill="white"/>
<path d="M35.8563 61.7356C35.8563 62.6137 36.4877 63.3394 37.2388 63.3394H37.7395C38.4942 63.3394 39.1219 62.6137 39.1219 61.7356V61.4091C39.1219 60.5056 38.3926 59.9033 37.1335 59.7509C34.59 59.4787 32.5472 57.7697 32.5472 55.3386V54.9141C32.5472 52.4322 34.6372 50.4438 37.2279 50.4438H37.7286C40.3193 50.4438 42.4347 52.425 42.4347 54.9141V55.589H39.1111V54.9141C39.1111 54.036 38.4797 53.3103 37.7286 53.3103H37.2279C36.4732 53.3103 35.8672 54.036 35.8672 54.9141V55.2407C35.8672 56.1442 36.5748 56.7465 37.8302 56.8989C40.3738 57.2254 42.4384 58.8292 42.4384 61.3147V61.7393C42.4384 64.2211 40.3266 66.1986 37.7322 66.1986H37.2315C34.6408 66.1986 32.5254 64.2175 32.5254 61.7393V61.0607H35.8491V61.7393H35.8527L35.8563 61.7356Z" fill="white"/>
<path d="M49.365 66.194H48.8643C46.2736 66.194 44.1582 64.2129 44.1582 61.7347V54.9131C44.1582 52.4313 46.2736 50.4429 48.8643 50.4429H49.365C51.9558 50.4429 54.0712 52.424 54.0712 54.9131V59.7499H47.4746V61.731C47.4746 62.6091 48.106 63.3348 48.8571 63.3348H49.3578C50.1379 63.3348 50.7402 62.6091 50.7402 61.731V61.1251H54.0639V61.731C54.0639 64.2129 51.9485 66.1904 49.3578 66.1904H49.365V66.194ZM50.7475 54.9131C50.7475 54.0351 50.1415 53.3094 49.365 53.3094H48.8643C48.1096 53.3094 47.4819 54.0351 47.4819 54.9131V56.8943H50.7584V54.9131H50.7511H50.7475Z" fill="white"/>
<path d="M85.909 56.8445V54.9141C85.909 54.036 85.3067 53.3103 84.5266 53.3103H84.298C83.5433 53.3103 82.9156 54.036 82.9156 54.9141V55.5672H79.5919V54.9141C79.5919 52.4322 81.7073 50.4438 84.298 50.4438H84.5266C87.0955 50.4438 89.2327 52.3996 89.2327 54.8343V62.5811C89.2327 62.9076 89.4613 63.0818 89.7334 63.0818H90.539V65.9447C89.9584 65.9954 89.4032 65.9955 88.83 65.9955C88.1768 65.9955 87.4149 65.7487 86.9903 65.0956C86.3844 65.6253 85.6804 66.1986 84.1202 66.1986H83.6195C81.0288 66.1986 79.3379 64.4207 79.3379 61.7393C79.3379 58.0527 82.3894 56.7719 84.6209 56.7719C84.9693 56.7719 85.5752 56.7937 85.9054 56.8481L85.9127 56.8408H85.909V56.8445ZM84.5266 63.343C85.3067 63.343 85.909 62.5919 85.909 61.7393V59.7109C85.5281 59.5586 85.0056 59.5114 84.679 59.5114C83.6231 59.5114 82.6652 60.2915 82.6652 61.7465C82.6652 62.7226 83.2711 63.3503 84.0259 63.3503H84.5266V63.343Z" fill="white"/>
<path d="M97.6074 50.4467H98.1081C100.144 50.4467 101.856 52.4278 101.856 54.8843V61.7312C101.856 64.1913 100.147 66.1906 98.1081 66.1906H97.6074C96.6277 66.1906 95.619 65.639 95.2888 65.2653L95.1146 65.9402H91.9688V45.8784H95.2924V51.3719C95.619 50.9946 96.6277 50.443 97.611 50.443L97.6074 50.4467ZM96.6531 63.3422H97.1538C97.934 63.3422 98.5363 62.6165 98.5363 61.7602V54.8879C98.5363 54.0098 97.934 53.2841 97.1538 53.2841H96.6531C95.8984 53.2841 95.2924 54.0098 95.2924 54.8879V61.7602C95.2924 62.5875 95.8984 63.3422 96.6531 63.3422Z" fill="white"/>
<path d="M109.928 50.6924V63.0873H113.375V65.9465H103.045V63.0873H106.608V53.5553H103.081V50.696H109.932L109.928 50.6924ZM110.182 46.9043C110.182 48.0291 109.275 48.9326 108.147 48.9326C107.018 48.9326 106.111 48.0291 106.111 46.9043C106.111 45.7795 107.018 44.876 108.147 44.876C109.275 44.876 110.182 45.7795 110.182 46.9043Z" fill="white"/>
<path d="M134.039 50.6929V63.0877H137.486V65.947H127.152V63.0877H130.715V53.5558H127.189V50.6965H134.039V50.6929ZM134.293 46.9048C134.293 48.0296 133.39 48.9331 132.258 48.9331C131.126 48.9331 130.218 48.0296 130.218 46.9048C130.218 45.78 131.122 44.8765 132.258 44.8765C133.393 44.8765 134.293 45.78 134.293 46.9048Z" fill="white"/>
<path d="M121.904 45.8784V63.0882H125.529V65.9475H114.916V63.0882H118.574V48.7376H114.923V45.8784H121.901H121.904Z" fill="white"/>
<path d="M165.378 63.2361H166.132C166.938 63.2361 167.569 62.485 167.569 61.5778V60.395H171.02V61.5996C171.02 64.1613 168.828 66.1896 166.132 66.1896H165.378C162.685 66.1896 160.49 64.1613 160.49 61.5996V50.9718C160.49 48.4101 162.682 46.3818 165.378 46.3818H166.132C168.825 46.3818 171.02 48.4101 171.02 50.9718V52.1547H167.569V50.9718C167.569 50.072 166.942 49.3427 166.132 49.3427H165.378C164.572 49.3427 163.941 50.0684 163.941 50.9718V61.5815C163.941 62.4813 164.572 63.2397 165.378 63.2397V63.2324V63.2361Z" fill="white"/>
<path d="M176.968 66.1933C174.297 66.1933 172.109 64.1649 172.109 61.6032V50.9936C172.109 48.4319 174.301 46.3818 176.968 46.3818H177.748C180.44 46.3818 182.636 48.4428 182.636 50.9936V61.6032C182.636 64.1649 180.444 66.1933 177.748 66.1933H176.968ZM177.748 49.3354H176.968C176.188 49.3354 175.56 50.0865 175.56 50.9936V61.5778C175.56 62.4777 176.191 63.2361 176.968 63.2361H177.748C178.554 63.2361 179.185 62.485 179.185 61.5778V50.9936C179.185 50.0938 178.554 49.3354 177.748 49.3354V49.3354Z" fill="white"/>
<path d="M187.076 52.83V65.9469H183.93V46.6362H187.91L191.687 59.7822V46.6362H194.833V65.9469H190.882L187.079 52.83H187.076Z" fill="white"/>
<path d="M61.2775 55.1087C61.2775 53.6791 62.2825 53.5267 63.3929 53.5267C64.3762 53.5267 65.6316 53.5775 66.5859 53.6247L65.7949 50.7655C64.9567 50.7183 63.8065 50.6675 63.3929 50.6675C60.5735 50.6675 57.9248 51.219 57.9248 55.1051L57.9465 63.0768H55.1816V65.9361H66.5859V63.0768H61.2702V55.1051H61.2775V55.1087Z" fill="white"/>
<path d="M142.356 61.7059V53.5564H146.467L145.676 50.6972H142.356V47.3408H139.032V50.7008H136.293V53.56H139.032V61.7095C139.032 65.621 141.202 66.1 144.501 66.1C145.556 66.1 146.569 66.0238 147.146 65.973V63.1863C146.286 63.2117 145.335 63.2371 144.501 63.2371C143.39 63.2371 142.356 63.1392 142.356 61.7059V61.7059Z" fill="white"/>
<path d="M79.1684 50.6934L74.9884 65.9438H71.3636L67.1582 50.6934H70.6089L73.1996 61.3538L75.7686 50.6934H79.1684V50.6934Z" fill="white"/>
<path d="M146.906 50.6934H150.459L153.43 61.1724L156.075 50.6934H159.453L153.521 70.0585C152.813 72.4896 151.533 73.1681 149.163 73.1681H147.338V70.6427H149.047C149.7 70.6427 150.567 70.1601 150.796 69.282L151.946 65.2907L146.91 50.6934H146.906Z" fill="white"/>
<path fill-rule="evenodd" clip-rule="evenodd" d="M79.1305 32.9972C87.9231 28.2028 94.6908 22.7684 99.6617 12.7521C100.227 11.5416 100.745 10.3971 101.199 9.36768C101.218 9.32105 101.238 9.27433 101.257 9.22752L101.26 9.22883C101.841 7.90793 102.315 6.78416 102.648 5.96448V5.88652C102.653 5.89944 102.658 5.91245 102.664 5.92553C102.669 5.91219 102.674 5.89892 102.68 5.88574V5.96525C103.012 6.78469 103.486 7.90803 104.067 9.22841L104.069 9.22752C104.082 9.25892 104.095 9.29029 104.108 9.32161C104.572 10.3742 105.103 11.5486 105.684 12.792C110.653 22.7821 117.413 28.2083 126.193 32.9961L127.078 32.1112L128.809 33.8421L123.359 39.2917C123.478 39.4235 123.592 39.5488 123.699 39.6672H108.364L102.663 27.8805L96.9636 39.6664H81.6279C81.7351 39.5489 81.8477 39.4246 81.9653 39.2938L76.5137 33.8421L78.2446 32.1112L79.1305 32.9972ZM121.74 37.4496L125.232 33.9578C119.789 30.9617 115.077 27.6775 111.078 23.1933C113.981 28.0677 118.615 33.8242 121.74 37.4496ZM80.0922 33.9589C85.5372 30.9617 90.2504 27.6763 94.2513 23.1896C91.3476 28.066 86.7102 33.8257 83.585 37.4517L80.0922 33.9589Z" fill="white"/>
<g opacity="0.8">
<path fill-rule="evenodd" clip-rule="evenodd" d="M87.3522 15.0124L15.6306 40.4409L14.8145 38.139L86.5361 12.7104L87.3522 15.0124Z" fill="#BB3C20"/>
<path fill-rule="evenodd" clip-rule="evenodd" d="M14.8079 74.3459L86.5296 99.7744L87.3457 97.4725L15.6241 72.0439L14.8079 74.3459Z" fill="#BB3C20"/>
<path fill-rule="evenodd" clip-rule="evenodd" d="M116.525 15.0124L188.246 40.4409L189.062 38.139L117.341 12.7104L116.525 15.0124Z" fill="#BB3C20"/>
<path fill-rule="evenodd" clip-rule="evenodd" d="M189.067 74.3457L115.917 100.396L115.098 98.0947L188.248 72.0449L189.067 74.3457Z" fill="#BB3C20"/>
<path d="M91.8941 10.6011H91.1117C90.2511 10.6011 89.5469 11.3053 89.5469 12.1659V12.9483C89.5469 13.809 90.2511 14.5132 91.1117 14.5132H91.8941C92.7548 14.5132 93.459 13.809 93.459 12.9483V12.1659C93.459 11.3053 92.7548 10.6011 91.8941 10.6011Z" fill="#BB3C20"/>
<path d="M112.759 10.6011H111.977C111.116 10.6011 110.412 11.3053 110.412 12.1659V12.9483C110.412 13.809 111.116 14.5132 111.977 14.5132H112.759C113.62 14.5132 114.324 13.809 114.324 12.9483V12.1659C114.324 11.3053 113.62 10.6011 112.759 10.6011Z" fill="#BB3C20"/>
<path d="M193.613 69.2837H192.83C191.97 69.2837 191.266 69.9879 191.266 70.8485V71.6309C191.266 72.4916 191.97 73.1958 192.83 73.1958H193.613C194.474 73.1958 195.178 72.4916 195.178 71.6309V70.8485C195.178 69.9879 194.474 69.2837 193.613 69.2837Z" fill="#BB3C20"/>
<path d="M11.0465 69.2822H10.2641C9.40339 69.2822 8.69922 69.9864 8.69922 70.8471V71.6295C8.69922 72.4901 9.40339 73.1943 10.2641 73.1943H11.0465C11.9071 73.1943 12.6113 72.4901 12.6113 71.6295V70.8471C12.6113 69.9864 11.9071 69.2822 11.0465 69.2822Z" fill="#BB3C20"/>
<path d="M193.613 39.2886H192.83C191.97 39.2886 191.266 39.9928 191.266 40.8534V41.6358C191.266 42.4965 191.97 43.2007 192.83 43.2007H193.613C194.474 43.2007 195.178 42.4965 195.178 41.6358V40.8534C195.178 39.9928 194.474 39.2886 193.613 39.2886Z" fill="#BB3C20"/>
<path d="M11.0465 39.2886H10.2641C9.40339 39.2886 8.69922 39.9928 8.69922 40.8534V41.6358C8.69922 42.4965 9.40339 43.2007 10.2641 43.2007H11.0465C11.9071 43.2007 12.6113 42.4965 12.6113 41.6358V40.8534C12.6113 39.9928 11.9071 39.2886 11.0465 39.2886Z" fill="#BB3C20"/>
<path d="M111.79 94.3072C111.747 93.9513 111.711 93.5134 111.547 93.0402C111.426 92.5671 111.223 92.047 110.937 91.4957C110.652 90.9404 110.288 90.3851 109.842 89.8298C109.678 89.6304 109.479 89.3919 109.232 89.1964C109.557 87.9294 108.826 86.858 108.826 86.858C107.609 86.7798 106.796 87.2138 106.511 87.4524C106.468 87.4524 106.432 87.4133 106.346 87.3742C106.143 87.296 105.94 87.2177 105.697 87.1395C105.455 87.0613 105.252 87.0183 105.009 86.9401C104.767 86.901 104.52 86.8619 104.321 86.8189H104.2C103.672 85.1531 102.131 84.4453 102.131 84.4453C100.426 85.5167 100.106 86.9792 100.106 86.9792V87.0574C100.027 87.0965 99.9022 87.0965 99.8201 87.1356C99.6989 87.1786 99.5777 87.2138 99.4134 87.2568C99.2922 87.2999 99.171 87.3351 99.0068 87.4133C98.7643 87.5345 98.4789 87.6518 98.2364 87.7691C97.994 87.8903 97.7476 88.0467 97.5052 88.2031C97.4622 88.2031 97.4622 88.164 97.4622 88.164C95.069 87.292 92.9575 88.3635 92.9575 88.3635C92.7541 90.8192 93.8881 92.4029 94.1345 92.6805C94.0915 92.8369 94.0133 92.9972 93.9702 93.1536C93.806 93.705 93.6457 94.3033 93.5636 94.8977C93.5636 94.9759 93.5206 95.0541 93.5206 95.1362C91.3308 96.2076 90.6777 98.3818 90.6777 98.3818C92.5039 100.443 94.6545 100.56 94.6545 100.56C94.94 101.033 95.2215 101.471 95.5852 101.905C95.7494 102.061 95.9098 102.261 96.031 102.421C95.3819 104.282 96.1092 105.827 96.1092 105.827C98.1387 105.905 99.476 104.955 99.7614 104.717C99.9648 104.795 100.168 104.838 100.371 104.916C100.981 105.072 101.631 105.154 102.276 105.194H103.046C104.02 106.539 105.682 106.738 105.682 106.738C106.898 105.51 106.941 104.282 106.941 104.005V103.927C107.183 103.77 107.43 103.571 107.672 103.371C108.161 102.937 108.568 102.46 108.931 101.948C108.974 101.909 109.009 101.87 109.009 101.792C110.39 101.87 111.32 100.963 111.32 100.963C111.078 99.5744 110.269 98.9018 110.104 98.7845H110.061V97.2008C110.018 97.0444 110.018 96.8841 109.983 96.7629C109.819 96.1685 109.619 95.6132 109.295 95.0971C108.97 94.5809 108.607 94.1469 108.157 93.7519C107.711 93.357 107.226 93.0793 106.694 92.8447C106.167 92.6062 105.643 92.4889 105.072 92.4068C104.786 92.3677 104.544 92.3677 104.262 92.3677H103.856C103.734 92.3677 103.57 92.4068 103.449 92.4068C102.921 92.485 102.397 92.6844 101.947 92.962C101.502 93.2397 101.095 93.5564 100.77 93.9122C100.446 94.2681 100.203 94.706 100.039 95.1401C99.8748 95.5741 99.7966 96.0121 99.7536 96.4461V97.0796C99.7966 97.279 99.8318 97.5137 99.8749 97.7131C99.9961 98.108 100.199 98.4639 100.403 98.7845C100.645 99.1013 100.931 99.3398 101.212 99.5353C101.498 99.7347 101.822 99.8912 102.143 99.9694C102.463 100.048 102.753 100.091 103.074 100.091H103.601C103.644 100.091 103.68 100.091 103.723 100.051C103.801 100.051 103.844 100.012 103.926 100.012C104.047 99.9733 104.168 99.9342 104.29 99.856C104.411 99.8169 104.493 99.7347 104.614 99.6565C104.657 99.6565 104.657 99.6135 104.692 99.5783C104.814 99.5001 104.814 99.3437 104.735 99.2616C104.657 99.1834 104.532 99.1404 104.45 99.2225C104.407 99.2225 104.407 99.2616 104.372 99.2616C104.294 99.3007 104.208 99.3398 104.086 99.3828C104.008 99.4219 103.883 99.4219 103.801 99.461H103.152C102.909 99.4219 102.706 99.3828 102.463 99.2616C102.221 99.1834 102.018 99.0231 101.814 98.8666C101.611 98.7102 101.451 98.4717 101.326 98.2723C101.204 98.0376 101.083 97.7991 101.04 97.5215C100.997 97.4003 100.997 97.2439 100.997 97.1265V96.9271C100.997 96.8489 100.997 96.7707 101.04 96.6886C101.161 96.0942 101.447 95.5389 101.936 95.0658C102.057 94.9446 102.178 94.8664 102.299 94.7491C102.42 94.6708 102.585 94.5926 102.706 94.5105C102.87 94.4323 103.03 94.3893 103.152 94.3541C103.316 94.315 103.476 94.2759 103.641 94.2759H104.129C104.294 94.2759 104.493 94.3189 104.657 94.3541C105.021 94.4323 105.345 94.5535 105.674 94.7491C106.323 95.1049 106.851 95.6602 107.215 96.2936C107.379 96.6104 107.5 96.9662 107.578 97.3221C107.578 97.4003 107.621 97.5215 107.621 97.5997V98.2332C107.621 98.3544 107.621 98.4326 107.578 98.5499C107.578 98.6281 107.535 98.7493 107.535 98.8275C107.535 98.9057 107.492 99.027 107.457 99.1052C107.414 99.3046 107.336 99.5001 107.254 99.6604C107.089 100.016 106.89 100.376 106.644 100.732C106.155 101.365 105.506 101.921 104.739 102.233C104.376 102.39 103.969 102.511 103.562 102.589C103.359 102.628 103.156 102.628 102.952 102.667H102.667C102.71 102.667 102.667 102.667 102.667 102.667H102.342C101.896 102.624 101.447 102.546 101.044 102.433C100.637 102.312 100.192 102.155 99.8279 101.96C99.0576 101.565 98.3655 101.01 97.8024 100.337C97.5169 100.02 97.2745 99.6644 97.1142 99.2655C96.9108 98.8706 96.7505 98.4717 96.6254 98.0768C96.5041 97.6818 96.422 97.2478 96.422 96.8489V96.2936C96.422 96.0942 96.465 95.8596 96.465 95.6602C96.5081 95.4607 96.5432 95.2222 96.5863 95.0267C96.6293 94.8273 96.6645 94.5887 96.7505 94.3932C96.8717 93.9983 97.0359 93.5994 97.1963 93.2045C97.5599 92.4537 98.0057 91.7811 98.5766 91.2649C98.6978 91.1437 98.8621 90.9873 99.0224 90.87C99.1866 90.7488 99.347 90.6354 99.5112 90.5533C99.6754 90.432 99.8358 90.3538 100 90.2756L100.242 90.1544C100.285 90.1544 100.321 90.1153 100.364 90.1153C100.407 90.1153 100.442 90.0762 100.485 90.0762C100.649 89.998 100.849 89.955 101.013 89.8768C101.056 89.8768 101.091 89.8377 101.134 89.8377C101.177 89.8377 101.212 89.7986 101.255 89.7986C101.333 89.7595 101.459 89.7595 101.541 89.7204C101.584 89.7204 101.619 89.6813 101.705 89.6813C101.748 89.6813 101.783 89.6813 101.869 89.6422C101.912 89.6422 101.947 89.6422 102.033 89.5991H102.198C102.241 89.5991 102.276 89.5991 102.362 89.56C102.405 89.56 102.483 89.56 102.526 89.5209H103.214C103.214 89.5209 103.257 89.5209 103.214 89.5209H103.946C104.309 89.5209 104.677 89.56 105.04 89.6422C105.729 89.7634 106.378 89.998 106.988 90.2756C107.598 90.5533 108.126 90.9091 108.571 91.304L108.65 91.3823L108.728 91.4605C108.771 91.4996 108.849 91.5387 108.892 91.6169C108.935 91.6599 109.013 91.6951 109.056 91.7733C109.099 91.8515 109.178 91.8945 109.221 91.9297C109.424 92.1291 109.584 92.3246 109.748 92.5632C110.073 92.9581 110.358 93.3922 110.558 93.791C110.558 93.8301 110.601 93.8301 110.601 93.8692C110.601 93.9083 110.644 93.9083 110.644 93.9474C110.687 93.9865 110.687 94.0256 110.722 94.1039C110.765 94.143 110.765 94.1821 110.8 94.2603C110.843 94.3033 110.843 94.3385 110.879 94.4167C110.957 94.6161 111.043 94.7725 111.082 94.9328C111.16 95.2105 111.246 95.449 111.285 95.6484C111.328 95.7266 111.406 95.8048 111.489 95.7697C111.567 95.7697 111.653 95.6914 111.653 95.6132C111.817 94.8625 111.817 94.5848 111.774 94.3072V94.3424L111.79 94.3072Z" fill="#BB3C20"/>
</g>
</svg>
