<svg width="281" height="83" viewBox="0 0 281 83" fill="none" xmlns="http://www.w3.org/2000/svg">
<path d="M106.178 -2.24121H105.541C104.836 -2.24121 104.266 -1.67034 104.266 -0.966142V-0.328608C104.266 0.375593 104.836 0.946461 105.541 0.946461H106.178C106.882 0.946461 107.453 0.375593 107.453 -0.328608V-0.966142C107.453 -1.67034 106.882 -2.24121 106.178 -2.24121Z" fill="#FDDB97"/>
<path d="M226.786 -7.65381H221.685C220.981 -7.65381 220.41 -7.08294 220.41 -6.37874V-1.27846C220.41 -0.574264 220.981 -0.00339603 221.685 -0.00339603H226.786C227.49 -0.00339603 228.061 -0.574264 228.061 -1.27846V-6.37874C228.061 -7.08294 227.49 -7.65381 226.786 -7.65381Z" stroke="#FDDB97" stroke-width="1.9126"/>
<path d="M214.674 -0.00341797H209.574C208.87 -0.00341797 208.299 0.56745 208.299 1.27165V6.37192C208.299 7.07612 208.87 7.64699 209.574 7.64699H214.674C215.378 7.64699 215.949 7.07612 215.949 6.37192V1.27165C215.949 0.56745 215.378 -0.00341797 214.674 -0.00341797Z" stroke="#FDDB97" stroke-width="1.9126"/>
<path d="M8.16992 -65V-0.419152" stroke="#FDDB97" stroke-width="2.50775" stroke-miterlimit="10" stroke-linecap="round"/>
<path d="M15.7051 -65V-0.419152" stroke="#FDDB97" stroke-width="2.50775" stroke-miterlimit="10" stroke-linecap="round"/>
<path d="M27.8767 10.4878H-4" stroke="#FDDB97" stroke-width="2.50775" stroke-miterlimit="10"/>
<path d="M27.8767 15.3716H-4" stroke="#FDDB97" stroke-width="2.50775" stroke-miterlimit="10"/>
<path d="M27.8767 25.1484H-4" stroke="#FDDB97" stroke-width="2.50775" stroke-miterlimit="10"/>
<path d="M27.8767 34.7246H-4" stroke="#FDDB97" stroke-width="2.50775" stroke-miterlimit="10"/>
<path d="M27.8767 44.0996H-4" stroke="#FDDB97" stroke-width="2.50775" stroke-miterlimit="10"/>
<path d="M27.8767 53.877H-4" stroke="#FDDB97" stroke-width="2.50775" stroke-miterlimit="10"/>
<path d="M27.8767 73.0293H-4" stroke="#FDDB97" stroke-width="2.50775" stroke-miterlimit="10"/>
<path d="M27.8767 83.0166H-4" stroke="#FDDB97" stroke-width="2.50775" stroke-miterlimit="10"/>
<path d="M25.9429 -0.419434H-2.06538C-3.12305 -0.419434 -3.98047 0.438034 -3.98047 1.49578V91.817C-3.98047 92.8747 -3.12305 93.7322 -2.06538 93.7322H25.9429C27.0005 93.7322 27.858 92.8747 27.858 91.817V1.49578C27.858 0.438034 27.0005 -0.419434 25.9429 -0.419434Z" stroke="#FDDB97" stroke-width="2.50775" stroke-miterlimit="10"/>
<path d="M5.03033 -57.2241H18.8573C19.9106 -57.2241 20.7724 -56.3623 20.7724 -55.3089V-0.428609H3.11523V-55.3089C3.11523 -56.3623 3.97703 -57.2241 5.03033 -57.2241Z" stroke="#FDDB97" stroke-width="2.50775" stroke-miterlimit="10"/>
<path d="M277.96 45.8989H249.958C249.13 45.8989 248.459 46.5699 248.459 47.3977V86.1028C248.459 86.9305 249.13 87.6015 249.958 87.6015H277.96C278.788 87.6015 279.459 86.9305 279.459 86.1028V47.3977C279.459 46.5699 278.788 45.8989 277.96 45.8989Z" stroke="#FDDB97" stroke-width="2.17393" stroke-miterlimit="10"/>
<path d="M257.391 51.542H253.622C253.209 51.542 252.873 51.8775 252.873 52.2914V56.0607C252.873 56.4746 253.209 56.8101 253.622 56.8101H257.391C257.805 56.8101 258.141 56.4746 258.141 56.0607V52.2914C258.141 51.8775 257.805 51.542 257.391 51.542Z" fill="#FDDB97"/>
<path d="M265.852 51.542H262.083C261.669 51.542 261.334 51.8775 261.334 52.2914V56.0607C261.334 56.4746 261.669 56.8101 262.083 56.8101H265.852C266.266 56.8101 266.602 56.4746 266.602 56.0607V52.2914C266.602 51.8775 266.266 51.542 265.852 51.542Z" fill="#FDDB97"/>
<path d="M274.302 51.542H270.533C270.119 51.542 269.783 51.8775 269.783 52.2914V56.0607C269.783 56.4746 270.119 56.8101 270.533 56.8101H274.302C274.716 56.8101 275.051 56.4746 275.051 56.0607V52.2914C275.051 51.8775 274.716 51.542 274.302 51.542Z" fill="#FDDB97"/>
<path d="M257.391 59.9277H253.622C253.209 59.9277 252.873 60.2632 252.873 60.6771V64.4465C252.873 64.8603 253.209 65.1958 253.622 65.1958H257.391C257.805 65.1958 258.141 64.8603 258.141 64.4465V60.6771C258.141 60.2632 257.805 59.9277 257.391 59.9277Z" fill="#FDDB97"/>
<path d="M265.852 59.9277H262.083C261.669 59.9277 261.334 60.2632 261.334 60.6771V64.4465C261.334 64.8603 261.669 65.1958 262.083 65.1958H265.852C266.266 65.1958 266.602 64.8603 266.602 64.4465V60.6771C266.602 60.2632 266.266 59.9277 265.852 59.9277Z" fill="#FDDB97"/>
<path d="M274.302 59.9277H270.533C270.119 59.9277 269.783 60.2632 269.783 60.6771V64.4465C269.783 64.8603 270.119 65.1958 270.533 65.1958H274.302C274.716 65.1958 275.051 64.8603 275.051 64.4465V60.6771C275.051 60.2632 274.716 59.9277 274.302 59.9277Z" fill="#FDDB97"/>
<path d="M257.391 68.313H253.622C253.209 68.313 252.873 68.6485 252.873 69.0624V72.8317C252.873 73.2456 253.209 73.5811 253.622 73.5811H257.391C257.805 73.5811 258.141 73.2456 258.141 72.8317V69.0624C258.141 68.6485 257.805 68.313 257.391 68.313Z" fill="#FDDB97"/>
<path d="M265.852 68.313H262.083C261.669 68.313 261.334 68.6485 261.334 69.0624V72.8317C261.334 73.2456 261.669 73.5811 262.083 73.5811H265.852C266.266 73.5811 266.602 73.2456 266.602 72.8317V69.0624C266.602 68.6485 266.266 68.313 265.852 68.313Z" fill="#FDDB97"/>
<path d="M274.302 68.313H270.533C270.119 68.313 269.783 68.6485 269.783 69.0624V72.8317C269.783 73.2456 270.119 73.5811 270.533 73.5811H274.302C274.716 73.5811 275.051 73.2456 275.051 72.8317V69.0624C275.051 68.6485 274.716 68.313 274.302 68.313Z" fill="#FDDB97"/>
<path d="M257.391 76.6909H253.622C253.209 76.6909 252.873 77.0264 252.873 77.4403V81.2096C252.873 81.6235 253.209 81.959 253.622 81.959H257.391C257.805 81.959 258.141 81.6235 258.141 81.2096V77.4403C258.141 77.0264 257.805 76.6909 257.391 76.6909Z" fill="#FDDB97"/>
<path d="M265.852 76.6909H262.083C261.669 76.6909 261.334 77.0264 261.334 77.4403V81.2096C261.334 81.6235 261.669 81.959 262.083 81.959H265.852C266.266 81.959 266.602 81.6235 266.602 81.2096V77.4403C266.602 77.0264 266.266 76.6909 265.852 76.6909Z" fill="#FDDB97"/>
<path d="M274.302 76.6909H270.533C270.119 76.6909 269.783 77.0264 269.783 77.4403V81.2096C269.783 81.6235 270.119 81.959 270.533 81.959H274.302C274.716 81.959 275.051 81.6235 275.051 81.2096V77.4403C275.051 77.0264 274.716 76.6909 274.302 76.6909Z" fill="#FDDB97"/>
<path d="M84.0477 0.633789H91.4317C91.9747 0.633789 92.4189 1.07804 92.4189 1.62102V6.2906C92.4189 6.83357 91.9747 7.27783 91.4317 7.27783H83.0605V1.62102C83.0605 1.07804 83.5048 0.633789 84.0477 0.633789V0.633789Z" stroke="#FDDB97" stroke-width="1.97433" stroke-miterlimit="10"/>
<path d="M80.2567 12.0957H85.8638C86.4067 12.0957 86.851 12.5399 86.851 13.0829V17.9792H79.2695V13.0829C79.2695 12.5399 79.7138 12.0957 80.2567 12.0957Z" stroke="#FDDB97" stroke-width="1.97433" stroke-miterlimit="10"/>
<path d="M85.2207 17.9897H91.5287C92.0716 17.9897 92.5159 18.434 92.5159 18.9769V22.6196H85.2207V17.9897Z" stroke="#FDDB97" stroke-width="1.97433" stroke-miterlimit="10"/>
<path d="M74.5985 17.9897H80.9065V22.6196H73.6113V18.9769C73.6113 18.434 74.0556 17.9897 74.5985 17.9897Z" stroke="#FDDB97" stroke-width="1.97433" stroke-miterlimit="10"/>
<path d="M91.1733 22.6099H85.2207V61.2598H91.1733V22.6099Z" stroke="#FDDB97" stroke-width="1.97433" stroke-miterlimit="10"/>
<path d="M80.9077 22.6099H74.9551V61.2598H80.9077V22.6099Z" stroke="#FDDB97" stroke-width="1.97433" stroke-miterlimit="10"/>
<path d="M83.0605 4.47412V12.0955" stroke="#FDDB97" stroke-width="1.97433" stroke-miterlimit="10"/>
<path d="M101.432 43.5684V61.2693" stroke="#FDDB97" stroke-width="1.97433" stroke-miterlimit="10"/>
<path d="M113.625 51.1504V61.2695" stroke="#FDDB97" stroke-width="1.97433" stroke-miterlimit="10"/>
<path d="M125.812 55.3066V61.2691" stroke="#FDDB97" stroke-width="1.97433" stroke-miterlimit="10"/>
<path d="M138.008 56.6294V61.2691" stroke="#FDDB97" stroke-width="1.97433" stroke-miterlimit="10"/>
<path d="M150.197 55.3364V61.2693" stroke="#FDDB97" stroke-width="1.97433" stroke-miterlimit="10"/>
<path d="M162.391 51.2593V61.2698" stroke="#FDDB97" stroke-width="1.97433" stroke-miterlimit="10"/>
<path d="M174.58 43.6772V61.2696" stroke="#FDDB97" stroke-width="1.97433" stroke-miterlimit="10"/>
<path d="M91.1816 22.6099C99.9181 39.7284 117.707 51.4566 138.24 51.4566C158.773 51.4566 176.562 39.7284 185.298 22.6099" stroke="#FDDB97" stroke-width="1.97433" stroke-miterlimit="10"/>
<path d="M211.965 43.5884V61.2894" stroke="#FDDB97" stroke-width="1.97433" stroke-miterlimit="10"/>
<path d="M224.156 51.1704V61.2895" stroke="#FDDB97" stroke-width="1.97433" stroke-miterlimit="10"/>
<path d="M236.346 55.3267V61.2891" stroke="#FDDB97" stroke-width="1.97433" stroke-miterlimit="10"/>
<path d="M40.0664 55.3364V61.2693" stroke="#FDDB97" stroke-width="1.97433" stroke-miterlimit="10"/>
<path d="M52.2578 51.2593V61.2698" stroke="#FDDB97" stroke-width="1.97433" stroke-miterlimit="10"/>
<path d="M64.4473 43.6772V61.2696" stroke="#FDDB97" stroke-width="1.97433" stroke-miterlimit="10"/>
<path d="M27.877 61.2691V67.6663H248.568V51.4659C228.035 51.4659 210.246 39.7377 201.51 22.6191" stroke="#FDDB97" stroke-width="1.97433" stroke-miterlimit="10"/>
<path d="M74.945 22.6099C66.2085 39.7284 48.4198 51.4566 27.8867 51.4566V61.2598H248.548" stroke="#FDDB97" stroke-width="1.97433" stroke-miterlimit="10"/>
<path d="M91.4897 72.3066H74.4512V94.6081H91.4897V72.3066Z" stroke="#FDDB97" stroke-width="1.97433" stroke-miterlimit="10"/>
<path d="M72.9902 67.6865H92.9507V71.3292C92.9507 71.8721 92.5065 72.3163 91.9636 72.3163H73.9774C73.4345 72.3163 72.9902 71.8721 72.9902 71.3292V67.6865Z" stroke="#FDDB97" stroke-width="1.97433" stroke-miterlimit="10"/>
<path d="M86.6233 67.6865H79.3281V94.6181H86.6233V67.6865Z" stroke="#FDDB97" stroke-width="1.97433" stroke-miterlimit="10"/>
<path d="M194.382 0.633789H201.766C202.309 0.633789 202.753 1.07804 202.753 1.62102V6.2906C202.753 6.83357 202.309 7.27783 201.766 7.27783H193.395V1.62102C193.395 1.07804 193.839 0.633789 194.382 0.633789Z" stroke="#FDDB97" stroke-width="1.97433" stroke-miterlimit="10"/>
<path d="M190.602 12.0957H196.21C196.752 12.0957 197.197 12.5399 197.197 13.0829V17.9792H189.615V13.0829C189.615 12.5399 190.059 12.0957 190.602 12.0957Z" stroke="#FDDB97" stroke-width="1.97433" stroke-miterlimit="10"/>
<path d="M195.555 17.9897H201.863C202.406 17.9897 202.85 18.434 202.85 18.9769V22.6196H195.555V17.9897Z" stroke="#FDDB97" stroke-width="1.97433" stroke-miterlimit="10"/>
<path d="M184.936 17.9897H191.244V22.6196H183.949V18.9769C183.949 18.434 184.393 17.9897 184.936 17.9897Z" stroke="#FDDB97" stroke-width="1.97433" stroke-miterlimit="10"/>
<path d="M201.507 22.6099H195.555V61.2499H201.507V22.6099Z" stroke="#FDDB97" stroke-width="1.97433" stroke-miterlimit="10"/>
<path d="M191.244 22.6099H185.291V61.2499H191.244V22.6099Z" stroke="#FDDB97" stroke-width="1.97433" stroke-miterlimit="10"/>
<path d="M193.395 4.47412V12.0955" stroke="#FDDB97" stroke-width="1.97433" stroke-miterlimit="10"/>
<path d="M201.828 72.3066H184.789V94.6081H201.828V72.3066Z" stroke="#FDDB97" stroke-width="1.97433" stroke-miterlimit="10"/>
<path d="M183.338 67.6865H203.298V71.3292C203.298 71.8721 202.854 72.3163 202.311 72.3163H184.325C183.782 72.3163 183.338 71.8721 183.338 71.3292V67.6865Z" stroke="#FDDB97" stroke-width="1.97433" stroke-miterlimit="10"/>
<path d="M196.961 67.6865H189.666V94.6181H196.961V67.6865Z" stroke="#FDDB97" stroke-width="1.97433" stroke-miterlimit="10"/>
<path d="M85.261 22.6099H85.2305" stroke="#FDDB97" stroke-width="1.97433" stroke-miterlimit="10"/>
<path d="M91.1738 32.7881C101.756 47.3102 118.884 56.758 138.232 56.758C157.581 56.758 174.708 47.3102 185.29 32.7881" stroke="#FDDB97" stroke-width="1.97433" stroke-miterlimit="10"/>
<path d="M27.8867 56.7576C47.2352 56.7576 64.3724 47.3098 74.9549 32.7778" stroke="#FDDB97" stroke-width="1.97433" stroke-miterlimit="10"/>
<path d="M201.508 32.8076C212.09 47.3199 229.218 56.7577 248.556 56.7577" stroke="#FDDB97" stroke-width="1.97433" stroke-miterlimit="10"/>
</svg>
