<svg width="81" height="45" viewBox="0 0 81 45" fill="none" xmlns="http://www.w3.org/2000/svg">
<mask id="path-1-outside-1_26131_4329" maskUnits="userSpaceOnUse" x="-0.390556" y="1.49697" width="81.1528" height="42.3587" fill="black">
<rect fill="white" x="-0.390556" y="1.49697" width="81.1528" height="42.3587"/>
<path d="M2.46268 32.5555L2.71489 41.0426C2.72007 41.2168 2.86544 41.3539 3.03966 41.3488L78.3424 39.1622C78.5168 39.1571 78.654 39.0116 78.6488 38.8372L78.538 35.1091C78.5351 35.0096 78.4519 34.9312 78.3524 34.9342C78.2528 34.9372 78.1697 34.8588 78.1667 34.7593C78.1637 34.6597 78.0806 34.5814 77.981 34.5843L77.1568 34.6088C77.0572 34.6118 76.9789 34.6949 76.9819 34.7945C76.9848 34.8941 76.9065 34.9772 76.8069 34.9801L76.6781 34.984C76.5074 34.989 76.3732 35.1315 76.3782 35.3022L76.4073 36.281C76.4107 36.3948 76.3212 36.4898 76.2074 36.4932C76.0936 36.4966 75.9986 36.4071 75.9952 36.2933L75.9401 34.4387L75.8482 31.3479C75.844 31.2056 75.7253 31.0937 75.583 31.0979C75.4408 31.1022 75.322 30.9903 75.3178 30.848L75.3057 30.4424C75.3006 30.2681 75.1551 30.131 74.9807 30.1362L74.4787 30.1511C74.3043 30.1563 74.1672 30.3018 74.1724 30.4761L74.1845 30.8817C74.1887 31.024 74.0768 31.1427 73.9346 31.1469C73.7923 31.1512 73.6804 31.2699 73.6846 31.4122L73.7671 34.1874C73.7723 34.3617 73.6352 34.5072 73.4609 34.5124L72.2376 34.5488C72.0633 34.5539 71.9178 34.4168 71.9126 34.2425L71.8028 30.5465C71.7976 30.3722 71.6521 30.2351 71.4778 30.2403L70.9757 30.2552C70.8014 30.2604 70.6558 30.1233 70.6507 29.949L70.4289 22.4846C70.4227 22.2772 70.2216 22.132 70.0229 22.1914L68.8835 22.5318L68.45 22.664C68.3678 22.6891 68.2994 22.7465 68.2605 22.8231L67.1827 24.9468C67.1627 24.9862 67.1512 25.0294 67.149 25.0735L67.0694 26.6264C67.061 26.7907 66.9279 26.921 66.7634 26.9259L65.258 26.9706C65.0837 26.9758 64.9382 26.8387 64.933 26.6644L64.8636 24.3289C64.8611 24.2452 64.8255 24.1659 64.7645 24.1085L64.5306 23.888C64.4696 23.8306 64.434 23.7513 64.4315 23.6676L64.3545 21.0773C64.3533 21.0372 64.3445 20.9976 64.3285 20.9608L64.1459 20.5411C64.0986 20.4323 63.9441 20.4328 63.8975 20.542C63.8459 20.6632 63.6692 20.6466 63.641 20.5179L63.5524 20.1123L63.3909 19.612C63.2926 19.3074 62.8556 19.3256 62.783 19.6373L62.6382 20.258C62.6326 20.2822 62.6242 20.3055 62.6131 20.3277L62.4023 20.7487C62.3558 20.8414 62.2233 20.8409 62.1777 20.7478C62.1249 20.6402 61.9657 20.661 61.9422 20.7785L61.885 21.065C61.8817 21.0816 61.8803 21.0986 61.8808 21.1156L61.9588 23.7411C61.9613 23.8248 61.9304 23.9061 61.873 23.967L61.6525 24.201C61.5951 24.2619 61.5642 24.3432 61.5667 24.4269L61.6361 26.7624C61.6413 26.9367 61.5042 27.0822 61.3299 27.0873L60.1066 27.1237C59.9323 27.1289 59.7868 26.9918 59.7816 26.8175L59.7519 25.8195C59.749 25.7199 59.6658 25.6416 59.5663 25.6445C59.4667 25.6475 59.3836 25.5691 59.3806 25.4696L59.3571 24.6776C59.3519 24.5033 59.2064 24.3662 59.0321 24.3714L58.9936 24.3725C58.8193 24.3777 58.6738 24.2406 58.6686 24.0663L58.5978 21.6845C58.5972 21.6626 58.5943 21.6409 58.5891 21.6197L57.6563 17.761L57.412 16.4793L57.2349 15.5823C57.2315 15.5652 57.2296 15.5479 57.2291 15.5305L57.1786 13.8309C57.1765 13.7598 57.1171 13.7038 57.046 13.7059C56.9748 13.708 56.9189 13.7674 56.921 13.8385L56.9712 15.5296C56.9719 15.5527 56.9701 15.5757 56.9658 15.5983L56.7938 16.4977L56.6775 17.7901L55.9247 21.697C55.9203 21.7198 55.9185 21.7429 55.9191 21.7661L55.9899 24.1459C55.995 24.3202 55.8579 24.4657 55.6836 24.4709L55.5421 24.4751C55.3678 24.4803 55.2307 24.6258 55.2359 24.8001L55.261 25.6436C55.2631 25.7147 55.2071 25.774 55.136 25.7762C55.0649 25.7783 55.0089 25.8377 55.011 25.9088L55.0422 26.9583C55.0474 27.1326 54.9103 27.2781 54.736 27.2833L52.8945 27.338C52.7202 27.3432 52.5747 27.2061 52.5695 27.0318L52.4121 21.7323C52.4078 21.5901 52.2891 21.4782 52.1468 21.4824C52.0046 21.4866 51.8858 21.3747 51.8816 21.2325L51.8435 19.9511C51.8383 19.7768 51.6928 19.6397 51.5185 19.6449L51.4285 19.6476C51.2542 19.6528 51.1087 19.5157 51.1036 19.3413L51.0946 19.0388C51.0895 18.8681 50.947 18.7338 50.7763 18.7389C50.6056 18.744 50.4631 18.6097 50.458 18.439L50.4533 18.2816C50.4505 18.1857 50.4021 18.0976 50.3469 18.0191C49.979 17.4952 49.72 15.7705 49.6312 14.9059L49.5496 12.1586C49.5464 12.0542 49.4593 11.9721 49.3549 11.9752C49.2381 11.9787 49.1447 12.0869 49.152 12.2035C49.1743 12.5589 49.2034 13.3637 49.2191 14.9182C49.2377 16.7628 48.8307 17.7236 48.5492 18.0764C48.4872 18.1541 48.4415 18.2481 48.4445 18.3474L48.4513 18.576C48.4551 18.704 48.3544 18.8109 48.2263 18.8147C48.0983 18.8185 47.9976 18.9253 48.0014 19.0534L48.0142 19.4847C48.0194 19.659 47.8823 19.8045 47.708 19.8097L47.618 19.8124C47.4437 19.8176 47.3066 19.9631 47.3118 20.1374L47.3514 21.4702C47.3556 21.6125 47.2437 21.7312 47.1015 21.7354C46.9592 21.7397 46.8473 21.8584 46.8516 22.0007L47.006 27.1971C47.0112 27.3714 46.874 27.5169 46.6997 27.5221L45.5211 27.5571C45.3495 27.5622 45.2053 27.4293 45.1964 27.2578L44.3732 11.334C44.3672 11.2171 44.2969 11.1131 44.1907 11.0638L43.8085 10.8868C43.7 10.8365 43.6292 10.7292 43.6257 10.6097L43.6087 10.0385C43.6035 9.86422 43.458 9.72711 43.2837 9.73229L42.318 9.76099C42.1437 9.76617 41.9982 9.62907 41.993 9.45476L41.8562 4.85073C41.8524 4.72271 41.7455 4.622 41.6175 4.62581C41.4895 4.62961 41.3887 4.73648 41.3926 4.86451L41.5294 9.46854C41.5346 9.64285 41.3974 9.78835 41.2231 9.79353L40.5665 9.81304C40.3922 9.81822 40.2551 9.96372 40.2603 10.138L40.2766 10.6883C40.2805 10.8185 40.204 10.9377 40.0841 10.9885L39.5614 11.2098C39.4435 11.2598 39.3674 11.376 39.3688 11.504L39.5424 27.4249C39.5442 27.5969 39.408 27.7388 39.236 27.7439L38.0583 27.7789C37.884 27.7841 37.7385 27.647 37.7334 27.4727L37.4766 18.8313C37.4714 18.657 37.3259 18.5199 37.1516 18.525L35.4131 18.5767C35.2388 18.5819 35.0933 18.4448 35.0881 18.2705L35.0493 16.9634C35.0446 16.8069 34.914 16.6838 34.7575 16.6885C34.6011 16.6931 34.478 16.8237 34.4826 16.9802L34.5215 18.2873C34.5267 18.4616 34.3896 18.6071 34.2152 18.6123L32.6313 18.6594C32.457 18.6646 32.3199 18.8101 32.3251 18.9844L32.5819 27.6258C32.5871 27.8001 32.45 27.9456 32.2757 27.9507L31.7221 27.9672C31.5478 27.9724 31.4023 27.8353 31.3971 27.661L30.7468 5.78034C30.7417 5.60603 30.5962 5.46893 30.4219 5.47411L27.0371 5.57469C26.862 5.5799 26.7245 5.72673 26.7309 5.90184L27.5255 27.6354C27.5339 27.8646 27.252 28.0346 27.0247 28.0037C26.8499 27.9799 26.5588 27.8217 26.3283 27.6784C26.1886 27.5915 26.1537 27.407 26.244 27.2695C26.3424 27.1196 26.2908 26.9175 26.1325 26.8331L25.8941 26.7062C25.7745 26.6424 25.6275 26.6622 25.529 26.7552L25.5065 26.7764C25.367 26.908 25.1426 26.8858 25.053 26.7163C24.9784 26.5753 24.9153 26.4233 24.912 26.3134C24.9069 26.1425 24.6883 25.9426 24.5239 25.8231C24.4654 25.7807 24.4185 25.7234 24.396 25.6548C24.3017 25.3679 24.1798 24.9431 24.2525 24.9409C24.316 24.939 24.3571 24.734 24.3782 24.5611C24.389 24.4722 24.4321 24.3897 24.5027 24.3346L24.749 24.1425C24.8935 24.0298 24.827 23.7984 24.6447 23.7796L24.5479 23.7696C24.4602 23.7606 24.4062 23.6695 24.4403 23.5883C24.4909 23.4675 24.3529 23.3552 24.2449 23.4292L24.1024 23.527C24.0031 23.595 23.8664 23.5499 23.8271 23.4362L23.8076 23.3797C23.7406 23.1859 23.4717 23.1722 23.3855 23.3583L23.3602 23.4129C23.2979 23.5475 23.1238 23.5844 23.0122 23.4868L22.92 23.4062C22.7866 23.2894 22.5818 23.4121 22.6217 23.5848C22.6477 23.6972 22.5643 23.8052 22.4491 23.8086L22.3737 23.8108C22.2738 23.8138 22.1821 23.7556 22.1422 23.6639L21.9293 23.1744C21.8954 23.0963 21.8948 23.0079 21.9242 22.928C21.9887 22.7523 22.0662 22.5059 22.0623 22.3764C22.0562 22.1704 21.841 21.8674 22.0424 21.7067C22.229 21.5579 22.1487 21.1433 22.3718 21.0587C22.8577 20.8745 23.2622 20.6691 22.7845 20.6535C21.9588 20.6265 22.0042 20.4189 21.4906 20.4857C21.1399 20.5313 21.2742 20.8904 21.4323 21.141C21.4695 21.1999 21.4438 21.2806 21.3774 21.3017C21.2933 21.3285 21.2691 21.465 21.3054 21.5453C21.3435 21.6296 21.3615 21.7421 21.3258 21.8827C21.2335 22.2464 21.2381 22.4009 21.4503 22.6008C21.6625 22.8008 21.5732 23.2675 21.587 23.7311C21.6008 24.1947 21.6569 24.3477 21.6207 24.8644C21.5845 25.3811 21.7436 25.531 21.7982 25.6325C21.8426 25.7151 21.6833 25.838 21.9362 26.1494C22.0536 26.294 22.066 26.5068 21.9233 26.6264C20.6891 27.6611 18.6659 28.4443 17.4844 28.8062C17.2893 28.866 17.0949 28.7214 17.0888 28.5174L16.9446 23.6628C16.9403 23.5206 16.8216 23.4087 16.6793 23.4129C16.5371 23.4171 16.4183 23.3052 16.4141 23.163L16.3774 21.9266C16.3748 21.8413 16.3036 21.7741 16.2182 21.7767C16.1329 21.7792 16.0616 21.7121 16.0591 21.6267L16.054 21.4545C16.0492 21.2936 15.9149 21.167 15.7539 21.1718C15.6766 21.1741 15.6016 21.1456 15.5453 21.0925L14.2186 19.8424C14.0917 19.7228 13.8919 19.7287 13.7723 19.8557L12.429 21.2812C12.3716 21.3421 12.3407 21.4234 12.3432 21.5071L12.3485 21.6854C12.3511 21.7708 12.2839 21.842 12.1986 21.8446C12.1132 21.8471 12.0461 21.9184 12.0486 22.0037L12.0854 23.2401C12.0904 23.4108 11.9562 23.5533 11.7855 23.5583C11.6148 23.5634 11.4805 23.7059 11.4856 23.8766L11.5897 27.3796C11.5947 27.5503 11.4605 27.6928 11.2898 27.6979C11.1191 27.7029 10.9766 27.5687 10.9715 27.398L10.9424 26.4192C10.939 26.3054 10.844 26.2159 10.7302 26.2193C10.6164 26.2226 10.5214 26.1331 10.518 26.0193L10.4761 24.6081C10.4727 24.4935 10.4064 24.3911 10.3106 24.3281C10.1604 24.2294 9.9967 24.0909 9.99318 23.9725C9.98705 23.7665 9.55351 23.0575 8.21413 23.0973C7.24337 23.1261 6.86358 23.6735 6.76964 24.0199C6.75218 24.0843 6.72464 24.1466 6.67888 24.1952L6.43912 24.4496C6.38169 24.5106 6.35082 24.5919 6.35331 24.6756L6.39918 26.2191C6.40298 26.3471 6.30228 26.454 6.17425 26.4578C6.04622 26.4616 5.94552 26.5684 5.94932 26.6965L5.97688 27.6237C5.98068 27.7518 5.87998 27.8586 5.75195 27.8624C5.62393 27.8662 5.52322 27.9731 5.52703 28.1011L5.61486 31.0567C5.62004 31.231 5.48293 31.3765 5.30863 31.3817L3.46715 31.4364C3.29284 31.4416 3.15574 31.5871 3.16092 31.7614L3.16512 31.9029C3.1703 32.0772 3.0332 32.2227 2.85889 32.2279L2.76891 32.2306C2.5946 32.2357 2.4575 32.3812 2.46268 32.5555Z"/>
</mask>
<path d="M2.46268 32.5555L2.71489 41.0426C2.72007 41.2168 2.86544 41.3539 3.03966 41.3488L78.3424 39.1622C78.5168 39.1571 78.654 39.0116 78.6488 38.8372L78.538 35.1091C78.5351 35.0096 78.4519 34.9312 78.3524 34.9342C78.2528 34.9372 78.1697 34.8588 78.1667 34.7593C78.1637 34.6597 78.0806 34.5814 77.981 34.5843L77.1568 34.6088C77.0572 34.6118 76.9789 34.6949 76.9819 34.7945C76.9848 34.8941 76.9065 34.9772 76.8069 34.9801L76.6781 34.984C76.5074 34.989 76.3732 35.1315 76.3782 35.3022L76.4073 36.281C76.4107 36.3948 76.3212 36.4898 76.2074 36.4932C76.0936 36.4966 75.9986 36.4071 75.9952 36.2933L75.9401 34.4387L75.8482 31.3479C75.844 31.2056 75.7253 31.0937 75.583 31.0979C75.4408 31.1022 75.322 30.9903 75.3178 30.848L75.3057 30.4424C75.3006 30.2681 75.1551 30.131 74.9807 30.1362L74.4787 30.1511C74.3043 30.1563 74.1672 30.3018 74.1724 30.4761L74.1845 30.8817C74.1887 31.024 74.0768 31.1427 73.9346 31.1469C73.7923 31.1512 73.6804 31.2699 73.6846 31.4122L73.7671 34.1874C73.7723 34.3617 73.6352 34.5072 73.4609 34.5124L72.2376 34.5488C72.0633 34.5539 71.9178 34.4168 71.9126 34.2425L71.8028 30.5465C71.7976 30.3722 71.6521 30.2351 71.4778 30.2403L70.9757 30.2552C70.8014 30.2604 70.6558 30.1233 70.6507 29.949L70.4289 22.4846C70.4227 22.2772 70.2216 22.132 70.0229 22.1914L68.8835 22.5318L68.45 22.664C68.3678 22.6891 68.2994 22.7465 68.2605 22.8231L67.1827 24.9468C67.1627 24.9862 67.1512 25.0294 67.149 25.0735L67.0694 26.6264C67.061 26.7907 66.9279 26.921 66.7634 26.9259L65.258 26.9706C65.0837 26.9758 64.9382 26.8387 64.933 26.6644L64.8636 24.3289C64.8611 24.2452 64.8255 24.1659 64.7645 24.1085L64.5306 23.888C64.4696 23.8306 64.434 23.7513 64.4315 23.6676L64.3545 21.0773C64.3533 21.0372 64.3445 20.9976 64.3285 20.9608L64.1459 20.5411C64.0986 20.4323 63.9441 20.4328 63.8975 20.542C63.8459 20.6632 63.6692 20.6466 63.641 20.5179L63.5524 20.1123L63.3909 19.612C63.2926 19.3074 62.8556 19.3256 62.783 19.6373L62.6382 20.258C62.6326 20.2822 62.6242 20.3055 62.6131 20.3277L62.4023 20.7487C62.3558 20.8414 62.2233 20.8409 62.1777 20.7478C62.1249 20.6402 61.9657 20.661 61.9422 20.7785L61.885 21.065C61.8817 21.0816 61.8803 21.0986 61.8808 21.1156L61.9588 23.7411C61.9613 23.8248 61.9304 23.9061 61.873 23.967L61.6525 24.201C61.5951 24.2619 61.5642 24.3432 61.5667 24.4269L61.6361 26.7624C61.6413 26.9367 61.5042 27.0822 61.3299 27.0873L60.1066 27.1237C59.9323 27.1289 59.7868 26.9918 59.7816 26.8175L59.7519 25.8195C59.749 25.7199 59.6658 25.6416 59.5663 25.6445C59.4667 25.6475 59.3836 25.5691 59.3806 25.4696L59.3571 24.6776C59.3519 24.5033 59.2064 24.3662 59.0321 24.3714L58.9936 24.3725C58.8193 24.3777 58.6738 24.2406 58.6686 24.0663L58.5978 21.6845C58.5972 21.6626 58.5943 21.6409 58.5891 21.6197L57.6563 17.761L57.412 16.4793L57.2349 15.5823C57.2315 15.5652 57.2296 15.5479 57.2291 15.5305L57.1786 13.8309C57.1765 13.7598 57.1171 13.7038 57.046 13.7059C56.9748 13.708 56.9189 13.7674 56.921 13.8385L56.9712 15.5296C56.9719 15.5527 56.9701 15.5757 56.9658 15.5983L56.7938 16.4977L56.6775 17.7901L55.9247 21.697C55.9203 21.7198 55.9185 21.7429 55.9191 21.7661L55.9899 24.1459C55.995 24.3202 55.8579 24.4657 55.6836 24.4709L55.5421 24.4751C55.3678 24.4803 55.2307 24.6258 55.2359 24.8001L55.261 25.6436C55.2631 25.7147 55.2071 25.774 55.136 25.7762C55.0649 25.7783 55.0089 25.8377 55.011 25.9088L55.0422 26.9583C55.0474 27.1326 54.9103 27.2781 54.736 27.2833L52.8945 27.338C52.7202 27.3432 52.5747 27.2061 52.5695 27.0318L52.4121 21.7323C52.4078 21.5901 52.2891 21.4782 52.1468 21.4824C52.0046 21.4866 51.8858 21.3747 51.8816 21.2325L51.8435 19.9511C51.8383 19.7768 51.6928 19.6397 51.5185 19.6449L51.4285 19.6476C51.2542 19.6528 51.1087 19.5157 51.1036 19.3413L51.0946 19.0388C51.0895 18.8681 50.947 18.7338 50.7763 18.7389C50.6056 18.744 50.4631 18.6097 50.458 18.439L50.4533 18.2816C50.4505 18.1857 50.4021 18.0976 50.3469 18.0191C49.979 17.4952 49.72 15.7705 49.6312 14.9059L49.5496 12.1586C49.5464 12.0542 49.4593 11.9721 49.3549 11.9752C49.2381 11.9787 49.1447 12.0869 49.152 12.2035C49.1743 12.5589 49.2034 13.3637 49.2191 14.9182C49.2377 16.7628 48.8307 17.7236 48.5492 18.0764C48.4872 18.1541 48.4415 18.2481 48.4445 18.3474L48.4513 18.576C48.4551 18.704 48.3544 18.8109 48.2263 18.8147C48.0983 18.8185 47.9976 18.9253 48.0014 19.0534L48.0142 19.4847C48.0194 19.659 47.8823 19.8045 47.708 19.8097L47.618 19.8124C47.4437 19.8176 47.3066 19.9631 47.3118 20.1374L47.3514 21.4702C47.3556 21.6125 47.2437 21.7312 47.1015 21.7354C46.9592 21.7397 46.8473 21.8584 46.8516 22.0007L47.006 27.1971C47.0112 27.3714 46.874 27.5169 46.6997 27.5221L45.5211 27.5571C45.3495 27.5622 45.2053 27.4293 45.1964 27.2578L44.3732 11.334C44.3672 11.2171 44.2969 11.1131 44.1907 11.0638L43.8085 10.8868C43.7 10.8365 43.6292 10.7292 43.6257 10.6097L43.6087 10.0385C43.6035 9.86422 43.458 9.72711 43.2837 9.73229L42.318 9.76099C42.1437 9.76617 41.9982 9.62907 41.993 9.45476L41.8562 4.85073C41.8524 4.72271 41.7455 4.622 41.6175 4.62581C41.4895 4.62961 41.3887 4.73648 41.3926 4.86451L41.5294 9.46854C41.5346 9.64285 41.3974 9.78835 41.2231 9.79353L40.5665 9.81304C40.3922 9.81822 40.2551 9.96372 40.2603 10.138L40.2766 10.6883C40.2805 10.8185 40.204 10.9377 40.0841 10.9885L39.5614 11.2098C39.4435 11.2598 39.3674 11.376 39.3688 11.504L39.5424 27.4249C39.5442 27.5969 39.408 27.7388 39.236 27.7439L38.0583 27.7789C37.884 27.7841 37.7385 27.647 37.7334 27.4727L37.4766 18.8313C37.4714 18.657 37.3259 18.5199 37.1516 18.525L35.4131 18.5767C35.2388 18.5819 35.0933 18.4448 35.0881 18.2705L35.0493 16.9634C35.0446 16.8069 34.914 16.6838 34.7575 16.6885C34.6011 16.6931 34.478 16.8237 34.4826 16.9802L34.5215 18.2873C34.5267 18.4616 34.3896 18.6071 34.2152 18.6123L32.6313 18.6594C32.457 18.6646 32.3199 18.8101 32.3251 18.9844L32.5819 27.6258C32.5871 27.8001 32.45 27.9456 32.2757 27.9507L31.7221 27.9672C31.5478 27.9724 31.4023 27.8353 31.3971 27.661L30.7468 5.78034C30.7417 5.60603 30.5962 5.46893 30.4219 5.47411L27.0371 5.57469C26.862 5.5799 26.7245 5.72673 26.7309 5.90184L27.5255 27.6354C27.5339 27.8646 27.252 28.0346 27.0247 28.0037C26.8499 27.9799 26.5588 27.8217 26.3283 27.6784C26.1886 27.5915 26.1537 27.407 26.244 27.2695C26.3424 27.1196 26.2908 26.9175 26.1325 26.8331L25.8941 26.7062C25.7745 26.6424 25.6275 26.6622 25.529 26.7552L25.5065 26.7764C25.367 26.908 25.1426 26.8858 25.053 26.7163C24.9784 26.5753 24.9153 26.4233 24.912 26.3134C24.9069 26.1425 24.6883 25.9426 24.5239 25.8231C24.4654 25.7807 24.4185 25.7234 24.396 25.6548C24.3017 25.3679 24.1798 24.9431 24.2525 24.9409C24.316 24.939 24.3571 24.734 24.3782 24.5611C24.389 24.4722 24.4321 24.3897 24.5027 24.3346L24.749 24.1425C24.8935 24.0298 24.827 23.7984 24.6447 23.7796L24.5479 23.7696C24.4602 23.7606 24.4062 23.6695 24.4403 23.5883C24.4909 23.4675 24.3529 23.3552 24.2449 23.4292L24.1024 23.527C24.0031 23.595 23.8664 23.5499 23.8271 23.4362L23.8076 23.3797C23.7406 23.1859 23.4717 23.1722 23.3855 23.3583L23.3602 23.4129C23.2979 23.5475 23.1238 23.5844 23.0122 23.4868L22.92 23.4062C22.7866 23.2894 22.5818 23.4121 22.6217 23.5848C22.6477 23.6972 22.5643 23.8052 22.4491 23.8086L22.3737 23.8108C22.2738 23.8138 22.1821 23.7556 22.1422 23.6639L21.9293 23.1744C21.8954 23.0963 21.8948 23.0079 21.9242 22.928C21.9887 22.7523 22.0662 22.5059 22.0623 22.3764C22.0562 22.1704 21.841 21.8674 22.0424 21.7067C22.229 21.5579 22.1487 21.1433 22.3718 21.0587C22.8577 20.8745 23.2622 20.6691 22.7845 20.6535C21.9588 20.6265 22.0042 20.4189 21.4906 20.4857C21.1399 20.5313 21.2742 20.8904 21.4323 21.141C21.4695 21.1999 21.4438 21.2806 21.3774 21.3017C21.2933 21.3285 21.2691 21.465 21.3054 21.5453C21.3435 21.6296 21.3615 21.7421 21.3258 21.8827C21.2335 22.2464 21.2381 22.4009 21.4503 22.6008C21.6625 22.8008 21.5732 23.2675 21.587 23.7311C21.6008 24.1947 21.6569 24.3477 21.6207 24.8644C21.5845 25.3811 21.7436 25.531 21.7982 25.6325C21.8426 25.7151 21.6833 25.838 21.9362 26.1494C22.0536 26.294 22.066 26.5068 21.9233 26.6264C20.6891 27.6611 18.6659 28.4443 17.4844 28.8062C17.2893 28.866 17.0949 28.7214 17.0888 28.5174L16.9446 23.6628C16.9403 23.5206 16.8216 23.4087 16.6793 23.4129C16.5371 23.4171 16.4183 23.3052 16.4141 23.163L16.3774 21.9266C16.3748 21.8413 16.3036 21.7741 16.2182 21.7767C16.1329 21.7792 16.0616 21.7121 16.0591 21.6267L16.054 21.4545C16.0492 21.2936 15.9149 21.167 15.7539 21.1718C15.6766 21.1741 15.6016 21.1456 15.5453 21.0925L14.2186 19.8424C14.0917 19.7228 13.8919 19.7287 13.7723 19.8557L12.429 21.2812C12.3716 21.3421 12.3407 21.4234 12.3432 21.5071L12.3485 21.6854C12.3511 21.7708 12.2839 21.842 12.1986 21.8446C12.1132 21.8471 12.0461 21.9184 12.0486 22.0037L12.0854 23.2401C12.0904 23.4108 11.9562 23.5533 11.7855 23.5583C11.6148 23.5634 11.4805 23.7059 11.4856 23.8766L11.5897 27.3796C11.5947 27.5503 11.4605 27.6928 11.2898 27.6979C11.1191 27.7029 10.9766 27.5687 10.9715 27.398L10.9424 26.4192C10.939 26.3054 10.844 26.2159 10.7302 26.2193C10.6164 26.2226 10.5214 26.1331 10.518 26.0193L10.4761 24.6081C10.4727 24.4935 10.4064 24.3911 10.3106 24.3281C10.1604 24.2294 9.9967 24.0909 9.99318 23.9725C9.98705 23.7665 9.55351 23.0575 8.21413 23.0973C7.24337 23.1261 6.86358 23.6735 6.76964 24.0199C6.75218 24.0843 6.72464 24.1466 6.67888 24.1952L6.43912 24.4496C6.38169 24.5106 6.35082 24.5919 6.35331 24.6756L6.39918 26.2191C6.40298 26.3471 6.30228 26.454 6.17425 26.4578C6.04622 26.4616 5.94552 26.5684 5.94932 26.6965L5.97688 27.6237C5.98068 27.7518 5.87998 27.8586 5.75195 27.8624C5.62393 27.8662 5.52322 27.9731 5.52703 28.1011L5.61486 31.0567C5.62004 31.231 5.48293 31.3765 5.30863 31.3817L3.46715 31.4364C3.29284 31.4416 3.15574 31.5871 3.16092 31.7614L3.16512 31.9029C3.1703 32.0772 3.0332 32.2227 2.85889 32.2279L2.76891 32.2306C2.5946 32.2357 2.4575 32.3812 2.46268 32.5555Z" fill="#73BFA1"/>
<path d="M2.46268 32.5555L2.71489 41.0426C2.72007 41.2168 2.86544 41.3539 3.03966 41.3488L78.3424 39.1622C78.5168 39.1571 78.654 39.0116 78.6488 38.8372L78.538 35.1091C78.5351 35.0096 78.4519 34.9312 78.3524 34.9342C78.2528 34.9372 78.1697 34.8588 78.1667 34.7593C78.1637 34.6597 78.0806 34.5814 77.981 34.5843L77.1568 34.6088C77.0572 34.6118 76.9789 34.6949 76.9819 34.7945C76.9848 34.8941 76.9065 34.9772 76.8069 34.9801L76.6781 34.984C76.5074 34.989 76.3732 35.1315 76.3782 35.3022L76.4073 36.281C76.4107 36.3948 76.3212 36.4898 76.2074 36.4932C76.0936 36.4966 75.9986 36.4071 75.9952 36.2933L75.9401 34.4387L75.8482 31.3479C75.844 31.2056 75.7253 31.0937 75.583 31.0979C75.4408 31.1022 75.322 30.9903 75.3178 30.848L75.3057 30.4424C75.3006 30.2681 75.1551 30.131 74.9807 30.1362L74.4787 30.1511C74.3043 30.1563 74.1672 30.3018 74.1724 30.4761L74.1845 30.8817C74.1887 31.024 74.0768 31.1427 73.9346 31.1469C73.7923 31.1512 73.6804 31.2699 73.6846 31.4122L73.7671 34.1874C73.7723 34.3617 73.6352 34.5072 73.4609 34.5124L72.2376 34.5488C72.0633 34.5539 71.9178 34.4168 71.9126 34.2425L71.8028 30.5465C71.7976 30.3722 71.6521 30.2351 71.4778 30.2403L70.9757 30.2552C70.8014 30.2604 70.6558 30.1233 70.6507 29.949L70.4289 22.4846C70.4227 22.2772 70.2216 22.132 70.0229 22.1914L68.8835 22.5318L68.45 22.664C68.3678 22.6891 68.2994 22.7465 68.2605 22.8231L67.1827 24.9468C67.1627 24.9862 67.1512 25.0294 67.149 25.0735L67.0694 26.6264C67.061 26.7907 66.9279 26.921 66.7634 26.9259L65.258 26.9706C65.0837 26.9758 64.9382 26.8387 64.933 26.6644L64.8636 24.3289C64.8611 24.2452 64.8255 24.1659 64.7645 24.1085L64.5306 23.888C64.4696 23.8306 64.434 23.7513 64.4315 23.6676L64.3545 21.0773C64.3533 21.0372 64.3445 20.9976 64.3285 20.9608L64.1459 20.5411C64.0986 20.4323 63.9441 20.4328 63.8975 20.542C63.8459 20.6632 63.6692 20.6466 63.641 20.5179L63.5524 20.1123L63.3909 19.612C63.2926 19.3074 62.8556 19.3256 62.783 19.6373L62.6382 20.258C62.6326 20.2822 62.6242 20.3055 62.6131 20.3277L62.4023 20.7487C62.3558 20.8414 62.2233 20.8409 62.1777 20.7478C62.1249 20.6402 61.9657 20.661 61.9422 20.7785L61.885 21.065C61.8817 21.0816 61.8803 21.0986 61.8808 21.1156L61.9588 23.7411C61.9613 23.8248 61.9304 23.9061 61.873 23.967L61.6525 24.201C61.5951 24.2619 61.5642 24.3432 61.5667 24.4269L61.6361 26.7624C61.6413 26.9367 61.5042 27.0822 61.3299 27.0873L60.1066 27.1237C59.9323 27.1289 59.7868 26.9918 59.7816 26.8175L59.7519 25.8195C59.749 25.7199 59.6658 25.6416 59.5663 25.6445C59.4667 25.6475 59.3836 25.5691 59.3806 25.4696L59.3571 24.6776C59.3519 24.5033 59.2064 24.3662 59.0321 24.3714L58.9936 24.3725C58.8193 24.3777 58.6738 24.2406 58.6686 24.0663L58.5978 21.6845C58.5972 21.6626 58.5943 21.6409 58.5891 21.6197L57.6563 17.761L57.412 16.4793L57.2349 15.5823C57.2315 15.5652 57.2296 15.5479 57.2291 15.5305L57.1786 13.8309C57.1765 13.7598 57.1171 13.7038 57.046 13.7059C56.9748 13.708 56.9189 13.7674 56.921 13.8385L56.9712 15.5296C56.9719 15.5527 56.9701 15.5757 56.9658 15.5983L56.7938 16.4977L56.6775 17.7901L55.9247 21.697C55.9203 21.7198 55.9185 21.7429 55.9191 21.7661L55.9899 24.1459C55.995 24.3202 55.8579 24.4657 55.6836 24.4709L55.5421 24.4751C55.3678 24.4803 55.2307 24.6258 55.2359 24.8001L55.261 25.6436C55.2631 25.7147 55.2071 25.774 55.136 25.7762C55.0649 25.7783 55.0089 25.8377 55.011 25.9088L55.0422 26.9583C55.0474 27.1326 54.9103 27.2781 54.736 27.2833L52.8945 27.338C52.7202 27.3432 52.5747 27.2061 52.5695 27.0318L52.4121 21.7323C52.4078 21.5901 52.2891 21.4782 52.1468 21.4824C52.0046 21.4866 51.8858 21.3747 51.8816 21.2325L51.8435 19.9511C51.8383 19.7768 51.6928 19.6397 51.5185 19.6449L51.4285 19.6476C51.2542 19.6528 51.1087 19.5157 51.1036 19.3413L51.0946 19.0388C51.0895 18.8681 50.947 18.7338 50.7763 18.7389C50.6056 18.744 50.4631 18.6097 50.458 18.439L50.4533 18.2816C50.4505 18.1857 50.4021 18.0976 50.3469 18.0191C49.979 17.4952 49.72 15.7705 49.6312 14.9059L49.5496 12.1586C49.5464 12.0542 49.4593 11.9721 49.3549 11.9752C49.2381 11.9787 49.1447 12.0869 49.152 12.2035C49.1743 12.5589 49.2034 13.3637 49.2191 14.9182C49.2377 16.7628 48.8307 17.7236 48.5492 18.0764C48.4872 18.1541 48.4415 18.2481 48.4445 18.3474L48.4513 18.576C48.4551 18.704 48.3544 18.8109 48.2263 18.8147C48.0983 18.8185 47.9976 18.9253 48.0014 19.0534L48.0142 19.4847C48.0194 19.659 47.8823 19.8045 47.708 19.8097L47.618 19.8124C47.4437 19.8176 47.3066 19.9631 47.3118 20.1374L47.3514 21.4702C47.3556 21.6125 47.2437 21.7312 47.1015 21.7354C46.9592 21.7397 46.8473 21.8584 46.8516 22.0007L47.006 27.1971C47.0112 27.3714 46.874 27.5169 46.6997 27.5221L45.5211 27.5571C45.3495 27.5622 45.2053 27.4293 45.1964 27.2578L44.3732 11.334C44.3672 11.2171 44.2969 11.1131 44.1907 11.0638L43.8085 10.8868C43.7 10.8365 43.6292 10.7292 43.6257 10.6097L43.6087 10.0385C43.6035 9.86422 43.458 9.72711 43.2837 9.73229L42.318 9.76099C42.1437 9.76617 41.9982 9.62907 41.993 9.45476L41.8562 4.85073C41.8524 4.72271 41.7455 4.622 41.6175 4.62581C41.4895 4.62961 41.3887 4.73648 41.3926 4.86451L41.5294 9.46854C41.5346 9.64285 41.3974 9.78835 41.2231 9.79353L40.5665 9.81304C40.3922 9.81822 40.2551 9.96372 40.2603 10.138L40.2766 10.6883C40.2805 10.8185 40.204 10.9377 40.0841 10.9885L39.5614 11.2098C39.4435 11.2598 39.3674 11.376 39.3688 11.504L39.5424 27.4249C39.5442 27.5969 39.408 27.7388 39.236 27.7439L38.0583 27.7789C37.884 27.7841 37.7385 27.647 37.7334 27.4727L37.4766 18.8313C37.4714 18.657 37.3259 18.5199 37.1516 18.525L35.4131 18.5767C35.2388 18.5819 35.0933 18.4448 35.0881 18.2705L35.0493 16.9634C35.0446 16.8069 34.914 16.6838 34.7575 16.6885C34.6011 16.6931 34.478 16.8237 34.4826 16.9802L34.5215 18.2873C34.5267 18.4616 34.3896 18.6071 34.2152 18.6123L32.6313 18.6594C32.457 18.6646 32.3199 18.8101 32.3251 18.9844L32.5819 27.6258C32.5871 27.8001 32.45 27.9456 32.2757 27.9507L31.7221 27.9672C31.5478 27.9724 31.4023 27.8353 31.3971 27.661L30.7468 5.78034C30.7417 5.60603 30.5962 5.46893 30.4219 5.47411L27.0371 5.57469C26.862 5.5799 26.7245 5.72673 26.7309 5.90184L27.5255 27.6354C27.5339 27.8646 27.252 28.0346 27.0247 28.0037C26.8499 27.9799 26.5588 27.8217 26.3283 27.6784C26.1886 27.5915 26.1537 27.407 26.244 27.2695C26.3424 27.1196 26.2908 26.9175 26.1325 26.8331L25.8941 26.7062C25.7745 26.6424 25.6275 26.6622 25.529 26.7552L25.5065 26.7764C25.367 26.908 25.1426 26.8858 25.053 26.7163C24.9784 26.5753 24.9153 26.4233 24.912 26.3134C24.9069 26.1425 24.6883 25.9426 24.5239 25.8231C24.4654 25.7807 24.4185 25.7234 24.396 25.6548C24.3017 25.3679 24.1798 24.9431 24.2525 24.9409C24.316 24.939 24.3571 24.734 24.3782 24.5611C24.389 24.4722 24.4321 24.3897 24.5027 24.3346L24.749 24.1425C24.8935 24.0298 24.827 23.7984 24.6447 23.7796L24.5479 23.7696C24.4602 23.7606 24.4062 23.6695 24.4403 23.5883C24.4909 23.4675 24.3529 23.3552 24.2449 23.4292L24.1024 23.527C24.0031 23.595 23.8664 23.5499 23.8271 23.4362L23.8076 23.3797C23.7406 23.1859 23.4717 23.1722 23.3855 23.3583L23.3602 23.4129C23.2979 23.5475 23.1238 23.5844 23.0122 23.4868L22.92 23.4062C22.7866 23.2894 22.5818 23.4121 22.6217 23.5848C22.6477 23.6972 22.5643 23.8052 22.4491 23.8086L22.3737 23.8108C22.2738 23.8138 22.1821 23.7556 22.1422 23.6639L21.9293 23.1744C21.8954 23.0963 21.8948 23.0079 21.9242 22.928C21.9887 22.7523 22.0662 22.5059 22.0623 22.3764C22.0562 22.1704 21.841 21.8674 22.0424 21.7067C22.229 21.5579 22.1487 21.1433 22.3718 21.0587C22.8577 20.8745 23.2622 20.6691 22.7845 20.6535C21.9588 20.6265 22.0042 20.4189 21.4906 20.4857C21.1399 20.5313 21.2742 20.8904 21.4323 21.141C21.4695 21.1999 21.4438 21.2806 21.3774 21.3017C21.2933 21.3285 21.2691 21.465 21.3054 21.5453C21.3435 21.6296 21.3615 21.7421 21.3258 21.8827C21.2335 22.2464 21.2381 22.4009 21.4503 22.6008C21.6625 22.8008 21.5732 23.2675 21.587 23.7311C21.6008 24.1947 21.6569 24.3477 21.6207 24.8644C21.5845 25.3811 21.7436 25.531 21.7982 25.6325C21.8426 25.7151 21.6833 25.838 21.9362 26.1494C22.0536 26.294 22.066 26.5068 21.9233 26.6264C20.6891 27.6611 18.6659 28.4443 17.4844 28.8062C17.2893 28.866 17.0949 28.7214 17.0888 28.5174L16.9446 23.6628C16.9403 23.5206 16.8216 23.4087 16.6793 23.4129C16.5371 23.4171 16.4183 23.3052 16.4141 23.163L16.3774 21.9266C16.3748 21.8413 16.3036 21.7741 16.2182 21.7767C16.1329 21.7792 16.0616 21.7121 16.0591 21.6267L16.054 21.4545C16.0492 21.2936 15.9149 21.167 15.7539 21.1718C15.6766 21.1741 15.6016 21.1456 15.5453 21.0925L14.2186 19.8424C14.0917 19.7228 13.8919 19.7287 13.7723 19.8557L12.429 21.2812C12.3716 21.3421 12.3407 21.4234 12.3432 21.5071L12.3485 21.6854C12.3511 21.7708 12.2839 21.842 12.1986 21.8446C12.1132 21.8471 12.0461 21.9184 12.0486 22.0037L12.0854 23.2401C12.0904 23.4108 11.9562 23.5533 11.7855 23.5583C11.6148 23.5634 11.4805 23.7059 11.4856 23.8766L11.5897 27.3796C11.5947 27.5503 11.4605 27.6928 11.2898 27.6979C11.1191 27.7029 10.9766 27.5687 10.9715 27.398L10.9424 26.4192C10.939 26.3054 10.844 26.2159 10.7302 26.2193C10.6164 26.2226 10.5214 26.1331 10.518 26.0193L10.4761 24.6081C10.4727 24.4935 10.4064 24.3911 10.3106 24.3281C10.1604 24.2294 9.9967 24.0909 9.99318 23.9725C9.98705 23.7665 9.55351 23.0575 8.21413 23.0973C7.24337 23.1261 6.86358 23.6735 6.76964 24.0199C6.75218 24.0843 6.72464 24.1466 6.67888 24.1952L6.43912 24.4496C6.38169 24.5106 6.35082 24.5919 6.35331 24.6756L6.39918 26.2191C6.40298 26.3471 6.30228 26.454 6.17425 26.4578C6.04622 26.4616 5.94552 26.5684 5.94932 26.6965L5.97688 27.6237C5.98068 27.7518 5.87998 27.8586 5.75195 27.8624C5.62393 27.8662 5.52322 27.9731 5.52703 28.1011L5.61486 31.0567C5.62004 31.231 5.48293 31.3765 5.30863 31.3817L3.46715 31.4364C3.29284 31.4416 3.15574 31.5871 3.16092 31.7614L3.16512 31.9029C3.1703 32.0772 3.0332 32.2227 2.85889 32.2279L2.76891 32.2306C2.5946 32.2357 2.4575 32.3812 2.46268 32.5555Z" stroke="#FFF4DF" stroke-width="3.64198" mask="url(#path-1-outside-1_26131_4329)"/>
<path d="M9.36446 37.8364L7.80161 37.8828L7.62731 32.0172L10.077 31.9444L11.8555 37.2808L11.5472 37.3536L11.3853 31.9055L12.9481 31.8591L13.1224 37.7247L10.6529 37.7981L8.87497 32.4816L9.20315 32.4082L9.36446 37.8364ZM14.6721 33.0019L15.3743 32.2567L15.4423 34.5433L15.0716 34.1244L17.1792 34.0618L17.2147 35.2548L15.107 35.3174L15.4523 34.8813L15.5207 37.1838L14.7755 36.4815L17.6904 36.3949L17.7258 37.5879L13.9201 37.701L13.7458 31.8354L17.5515 31.7223L17.587 32.9153L14.6721 33.0019ZM19.1365 37.546L18.151 31.7045L19.8013 31.6554L20.4772 37.2554L20.2501 37.2502L20.9068 31.6226L22.8673 31.5643L23.853 37.1431L23.6267 37.1618L23.9689 31.5316L25.6192 31.4825L24.9823 37.3723L22.5286 37.4452L21.8405 32.6376L21.9995 32.6329L21.5941 37.473L19.1365 37.546ZM32.9166 31.2657L31.2895 35.1748L31.3491 37.1831L29.7505 37.2306L29.6908 35.2223L27.8463 31.4164L29.5444 31.3659L30.7862 34.4455L30.1579 34.4642L31.2146 31.3163L32.9166 31.2657ZM35.6871 37.1576C35.308 37.1689 34.9455 37.1147 34.5997 36.9949C34.2565 36.8751 33.9498 36.6905 33.6797 36.4412C33.4096 36.1918 33.1934 35.8798 33.031 35.5052C32.8686 35.1306 32.78 34.6954 32.7653 34.1996C32.7505 33.7012 32.8117 33.2616 32.949 32.8807C33.0889 32.4997 33.285 32.1781 33.5373 31.9159C33.7922 31.6536 34.0874 31.4538 34.423 31.3164C34.7611 31.1764 35.1224 31.1006 35.5068 31.0892C35.8912 31.0778 36.2563 31.1319 36.6022 31.2517C36.948 31.3688 37.2545 31.5507 37.5219 31.7975C37.7919 32.0442 38.0068 32.3536 38.1664 32.7256C38.3261 33.0977 38.4133 33.5329 38.4281 34.0313C38.4429 34.5271 38.3803 34.9668 38.2404 35.3504C38.1006 35.734 37.9019 36.0583 37.6445 36.3233C37.3896 36.5883 37.0932 36.7908 36.755 36.9309C36.4196 37.0709 36.0636 37.1465 35.6871 37.1576ZM35.6502 35.9169C35.8464 35.9111 36.0344 35.8524 36.2142 35.741C36.3965 35.6267 36.5421 35.4367 36.651 35.1707C36.7625 34.9047 36.8114 34.5411 36.7977 34.0798C36.7839 33.6158 36.7135 33.2571 36.5866 33.0034C36.4596 32.7472 36.303 32.5701 36.117 32.4721C35.931 32.3715 35.7398 32.3241 35.5437 32.3299C35.3501 32.3357 35.1621 32.3943 34.9797 32.5059C34.7999 32.6147 34.6541 32.8008 34.5426 33.0642C34.4309 33.3249 34.382 33.6872 34.3958 34.1512C34.4095 34.6151 34.48 34.9765 34.6071 35.2355C34.7341 35.4917 34.8907 35.6715 35.0769 35.7747C35.2656 35.8753 35.4567 35.9227 35.6502 35.9169ZM39.1535 36.9512L38.9792 31.0855L41.58 31.0082C42.2481 30.9884 42.7456 31.1222 43.0725 31.4097C43.4021 31.6944 43.5747 32.1006 43.5904 32.6281C43.5992 32.9251 43.5497 33.1799 43.4419 33.3928C43.3342 33.6056 43.1971 33.7715 43.0308 33.8906C42.8646 34.0096 42.6981 34.0782 42.5315 34.0965C42.7041 34.1019 42.8657 34.1383 43.0163 34.2054C43.1669 34.2726 43.2896 34.3844 43.3845 34.5408C43.4819 34.6944 43.5346 34.9052 43.5426 35.1729C43.5476 35.3426 43.5524 35.5043 43.557 35.6581C43.5616 35.8118 43.5664 35.9736 43.5714 36.1432C43.5756 36.2837 43.5902 36.4173 43.6152 36.5439C43.6427 36.6678 43.6813 36.7582 43.7307 36.8151L42.1241 36.8629C42.0797 36.7979 42.0438 36.7047 42.0163 36.5835C41.9915 36.4622 41.977 36.3312 41.9728 36.1907C41.9685 36.0449 41.9646 35.9137 41.9611 35.797C41.9576 35.6804 41.9537 35.5492 41.9494 35.4033C41.9431 35.1913 41.8931 35.0256 41.7993 34.9063C41.7055 34.7844 41.5406 34.7269 41.3046 34.7339L40.2389 34.7656L40.6419 34.2641L40.7203 36.9046L39.1535 36.9512ZM40.6376 34.1209L40.2034 33.5726L41.2851 33.5405C41.4203 33.5364 41.5374 33.5051 41.6365 33.4464C41.7383 33.3877 41.8154 33.3058 41.868 33.2007C41.9232 33.093 41.9487 32.9688 41.9445 32.8283C41.9394 32.656 41.8726 32.508 41.7443 32.3845C41.6185 32.2609 41.4496 32.2022 41.2375 32.2085L40.1241 32.2416L40.5672 31.7508L40.6376 34.1209ZM46.9575 33.953L46.9688 32.7268L49.4336 36.6457L47.6918 36.6974L46.1383 33.9773L46.8291 34.0523L45.8027 35.5436L45.9003 34.5416L45.9659 36.7487L44.3633 36.7963L44.189 30.9307L45.7916 30.8831L45.8786 33.8099L45.5808 33.6994L47.4738 30.8331L49.1559 30.7831L46.9575 33.953ZM56.8993 34.2068C56.9073 34.4746 56.8636 34.7465 56.7684 35.0227C56.6756 35.2961 56.528 35.5499 56.3253 35.7841C56.1253 36.0183 55.867 36.2104 55.5504 36.3604C55.2363 36.5077 54.8606 36.5879 54.4231 36.6009C53.8478 36.618 53.3509 36.504 52.9323 36.2591C52.5164 36.0114 52.1929 35.6628 51.9619 35.2133C51.7336 34.7637 51.6106 34.2406 51.5929 33.6441C51.5752 33.0476 51.667 32.5195 51.8682 32.0598C52.0721 31.5973 52.3743 31.2314 52.7749 30.9621C53.1782 30.6928 53.6675 30.5495 54.2428 30.5324C54.72 30.5182 55.1294 30.587 55.4709 30.7387C55.815 30.8904 56.0931 31.0944 56.305 31.3508C56.5196 31.6071 56.6711 31.8839 56.7595 32.1811C56.8186 32.3836 56.851 32.5804 56.8567 32.7712L55.2461 32.8191C55.2436 32.7343 55.2361 32.6602 55.2236 32.5969C55.1946 32.4253 55.1385 32.277 55.0551 32.1521C54.9718 32.0272 54.8642 31.9322 54.7322 31.8672C54.6029 31.7994 54.452 31.768 54.2797 31.7732C54.0729 31.7793 53.8878 31.8458 53.7244 31.9727C53.561 32.0997 53.4328 32.2959 53.3399 32.5613C53.2496 32.8267 53.2108 33.1715 53.2234 33.5956C53.2359 34.0172 53.2951 34.359 53.4011 34.6212C53.5097 34.8834 53.6494 35.0742 53.8201 35.1939C53.9908 35.3135 54.1796 35.3703 54.3864 35.3641C54.5349 35.3597 54.6653 35.3293 54.7777 35.2729C54.8927 35.2137 54.9885 35.1339 55.0651 35.0335C55.1418 34.933 55.1993 34.8172 55.2379 34.6861C55.2764 34.5522 55.2933 34.4084 55.2888 34.2547L56.8993 34.2068ZM57.5805 36.4036L57.4062 30.5379L58.989 30.4909L59.1633 36.3565L57.5805 36.4036ZM63.9493 31.5376L61.8496 31.5999L62.5518 30.8547L62.7122 36.2511L61.1096 36.2987L60.9492 30.9023L61.6945 31.6046L59.5987 31.6668L59.5633 30.4738L63.9138 30.3445L63.9493 31.5376ZM69.3056 30.1843L67.6784 34.0935L67.7381 36.1017L66.1395 36.1492L66.0798 34.141L64.2353 30.335L65.9333 30.2845L67.1751 33.3641L66.5468 33.3828L67.6036 30.2349L69.3056 30.1843Z" fill="#FFF4DF"/>
</svg>
