<svg width="239" height="133" viewBox="0 0 239 133" fill="none" xmlns="http://www.w3.org/2000/svg">
<path d="M230.93 93.1071C235.287 91.5128 238.851 86.4094 238.851 81.77V50.4833C238.851 45.8439 235.287 40.7405 230.93 39.1463L127.344 1.19571C122.987 -0.398569 115.859 -0.398569 111.502 1.19571L7.92077 39.1463C3.56393 40.7448 0 45.8439 0 50.4833L0 81.77C0 86.4094 3.56393 91.5128 7.92077 93.1071L111.507 131.058C115.863 132.652 122.991 132.652 127.348 131.058L230.934 93.1071H230.93Z" fill="#FF6D3B"/>
<path d="M80.6172 95.4503H95.5491V93.0316H84.7249C84.7249 92.7133 84.7249 92.6337 88.5275 91.9793C94.0015 91.0419 95.0539 90.2106 95.0539 88.3358C95.0539 86.6644 93.0818 84.772 88.1473 84.772C83.2127 84.772 80.8073 86.6512 80.8073 88.7338C80.8073 89.114 80.8692 89.4678 80.9488 89.6579H83.9246C83.8627 89.4987 83.814 89.2776 83.814 89.0212C83.814 87.8892 85.1494 87.142 88.0809 87.142C91.0125 87.142 91.6315 87.7787 91.6315 88.4641C91.6315 89.229 91.3928 89.5297 86.4891 90.4361C80.9798 91.4531 80.6172 92.6823 80.6172 95.4503V95.4503Z" fill="white"/>
<path d="M109.006 95.6092C114.4 95.6092 116.995 93.2215 116.995 90.1661C116.995 87.1108 114.21 84.8159 109.006 84.8159C103.801 84.8159 101.016 86.9648 101.016 90.1661C101.016 93.3674 103.611 95.6092 109.006 95.6092ZM109.006 93.1905C105.999 93.1905 104.451 92.0276 104.451 90.1838C104.451 88.34 106.092 87.239 109.006 87.239C111.919 87.239 113.56 88.3046 113.56 90.1838C113.56 92.063 112.017 93.1905 109.006 93.1905Z" fill="white"/>
<path d="M122.332 95.4503H137.264V93.0316H126.44C126.44 92.7133 126.44 92.6337 130.242 91.9793C135.716 91.0419 136.769 90.2106 136.769 88.3358C136.769 86.6644 134.797 84.772 129.862 84.772C124.928 84.772 122.522 86.6512 122.522 88.7338C122.522 89.114 122.584 89.4678 122.664 89.6579H125.639C125.578 89.4987 125.529 89.2776 125.529 89.0212C125.529 87.8892 126.864 87.142 129.796 87.142C132.727 87.142 133.346 87.7787 133.346 88.4641C133.346 89.229 133.108 89.5297 128.204 90.4361C122.695 91.4531 122.332 92.6823 122.332 95.4503V95.4503Z" fill="white"/>
<path d="M143.193 95.4508H158.125V93.0321H147.301C147.301 92.7138 147.301 92.6342 151.104 91.9798C156.578 91.0424 157.63 90.2111 157.63 88.3363C157.63 86.6649 155.658 84.7725 150.723 84.7725C145.789 84.7725 143.383 86.6517 143.383 88.7343C143.383 89.1145 143.445 89.4683 143.525 89.6584H146.501C146.439 89.4992 146.39 89.2781 146.39 89.0217C146.39 87.8897 147.726 87.1425 150.657 87.1425C153.589 87.1425 154.208 87.7792 154.208 88.4645C154.208 89.2295 153.969 89.5302 149.065 90.4366C143.556 91.4536 143.193 92.6828 143.193 95.4508V95.4508Z" fill="white"/>
<path d="M15.4522 78.022C12.2965 78.022 9.71094 75.6251 9.71094 72.598V60.0606C9.71094 57.0334 12.3007 54.6108 15.4522 54.6108H16.3741C19.5556 54.6108 22.1497 57.0463 22.1497 60.0606V72.598C22.1497 75.6251 19.5599 78.022 16.3741 78.022H15.4522ZM16.3741 58.1011H15.4522C14.5304 58.1011 13.78 58.9886 13.78 60.0606V72.568C13.78 73.6313 14.5218 74.5275 15.4522 74.5275H16.3741C17.326 74.5275 18.0721 73.6399 18.0721 72.568V60.0606C18.0721 58.9972 17.3303 58.1011 16.3741 58.1011V58.1011Z" fill="white"/>
<path d="M30.7628 59.4139H31.3545C33.7642 59.4139 35.7837 61.755 35.7837 64.6578V72.7488C35.7837 75.6559 33.7642 78.0185 31.3545 78.0185H30.7628C29.6051 78.0185 28.4131 77.3667 28.0229 76.9251L27.8171 77.7226H24.0996V54.0156H28.0272V60.5073C28.4131 60.0614 29.6051 59.4096 30.7671 59.4096L30.7628 59.4139ZM29.6351 74.6526H30.2268C31.1487 74.6526 31.8604 73.795 31.8604 72.7831V64.6621C31.8604 63.6245 31.1487 62.7669 30.2268 62.7669H29.6351C28.7432 62.7669 28.0272 63.6245 28.0272 64.6621V72.7831C28.0272 73.7607 28.7432 74.6526 29.6351 74.6526Z" fill="white"/>
<path d="M41.3385 72.7537C41.3385 73.7913 42.0846 74.6488 42.9721 74.6488H43.5639C44.4557 74.6488 45.1975 73.7913 45.1975 72.7537V72.3678C45.1975 71.3001 44.3356 70.5883 42.8478 70.4083C39.8421 70.0867 37.4281 68.0671 37.4281 65.1943V64.6927C37.4281 61.7598 39.8978 59.4102 42.9593 59.4102H43.551C46.6124 59.4102 49.1122 61.7513 49.1122 64.6927V65.4902H45.1846V64.6927C45.1846 63.655 44.4386 62.7975 43.551 62.7975H42.9593C42.0674 62.7975 41.3514 63.655 41.3514 64.6927V65.0786C41.3514 66.1462 42.1875 66.858 43.671 67.0381C46.6768 67.424 49.1165 69.3192 49.1165 72.2563V72.7579C49.1165 75.6908 46.621 78.0276 43.5553 78.0276H42.9636C39.9021 78.0276 37.4023 75.6865 37.4023 72.7579V71.9561H41.3299V72.7579H41.3342L41.3385 72.7537Z" fill="white"/>
<path d="M57.3014 78.0223H56.7097C53.6482 78.0223 51.1484 75.6812 51.1484 72.7527V64.6917C51.1484 61.7589 53.6482 59.4092 56.7097 59.4092H57.3014C60.3628 59.4092 62.8626 61.7503 62.8626 64.6917V70.4073H55.0674V72.7484C55.0674 73.786 55.8135 74.6436 56.7011 74.6436H57.2928C58.2147 74.6436 58.9264 73.786 58.9264 72.7484V72.0323H62.854V72.7484C62.854 75.6812 60.3543 78.018 57.2928 78.018H57.3014V78.0223ZM58.935 64.6917C58.935 63.6541 58.2189 62.7965 57.3014 62.7965H56.7097C55.8178 62.7965 55.076 63.6541 55.076 64.6917V67.0328H58.9479V64.6917H58.9393H58.935Z" fill="white"/>
<path d="M100.486 66.9738V64.6927C100.486 63.655 99.7741 62.7975 98.8522 62.7975H98.5821C97.6902 62.7975 96.9484 63.655 96.9484 64.6927V65.4645H93.0208V64.6927C93.0208 61.7598 95.5206 59.4102 98.5821 59.4102H98.8522C101.888 59.4102 104.413 61.7213 104.413 64.5983V73.7527C104.413 74.1386 104.684 74.3444 105.005 74.3444H105.957V77.7275C105.271 77.7875 104.615 77.7875 103.937 77.7875C103.166 77.7875 102.265 77.4959 101.764 76.7241C101.048 77.3501 100.216 78.0276 98.372 78.0276H97.7803C94.7188 78.0276 92.7207 75.9266 92.7207 72.7579C92.7207 68.4016 96.3267 66.888 98.9637 66.888C99.3753 66.888 100.091 66.9137 100.482 66.978L100.49 66.9695H100.486V66.9738ZM98.8522 74.6531C99.7741 74.6531 100.486 73.7656 100.486 72.7579V70.3611C100.036 70.181 99.4182 70.1253 99.0323 70.1253C97.7845 70.1253 96.6526 71.0471 96.6526 72.7665C96.6526 73.9199 97.3686 74.6617 98.2605 74.6617H98.8522V74.6531Z" fill="white"/>
<path d="M114.312 59.4139H114.903C117.309 59.4139 119.333 61.755 119.333 64.6578V72.7488C119.333 75.6559 117.313 78.0185 114.903 78.0185H114.312C113.154 78.0185 111.962 77.3667 111.572 76.9251L111.366 77.7226H107.648V54.0156H111.576V60.5073C111.962 60.0614 113.154 59.4096 114.316 59.4096L114.312 59.4139ZM113.184 74.6526H113.776C114.698 74.6526 115.409 73.795 115.409 72.7831V64.6621C115.409 63.6245 114.698 62.7669 113.776 62.7669H113.184C112.292 62.7669 111.576 63.6245 111.576 64.6621V72.7831C111.576 73.7607 112.292 74.6526 113.184 74.6526Z" fill="white"/>
<path d="M128.87 59.7043V74.3513H132.944V77.7301H120.736V74.3513H124.947V63.0874H120.779V59.7086H128.874L128.87 59.7043ZM129.17 55.2279C129.17 56.5571 128.098 57.6248 126.765 57.6248C125.431 57.6248 124.359 56.5571 124.359 55.2279C124.359 53.8987 125.431 52.8311 126.765 52.8311C128.098 52.8311 129.17 53.8987 129.17 55.2279Z" fill="white"/>
<path d="M157.363 59.7048V74.3518H161.436V77.7306H149.225V74.3518H153.435V63.0879H149.267V59.7091H157.363V59.7048ZM157.663 55.2284C157.663 56.5576 156.595 57.6253 155.257 57.6253C153.92 57.6253 152.848 56.5576 152.848 55.2284C152.848 53.8992 153.915 52.8315 155.257 52.8315C156.6 52.8315 157.663 53.8992 157.663 55.2284Z" fill="white"/>
<path d="M143.02 54.0156V74.3525H147.303V77.7312H134.762V74.3525H139.084V57.3944H134.77V54.0156H143.016H143.02Z" fill="white"/>
<path d="M194.395 74.5275H195.287C196.238 74.5275 196.985 73.6399 196.985 72.568V71.1702H201.062V72.5937C201.062 75.6209 198.472 78.0177 195.287 78.0177H194.395C191.213 78.0177 188.619 75.6209 188.619 72.5937V60.0349C188.619 57.0077 191.209 54.6108 194.395 54.6108H195.287C198.468 54.6108 201.062 57.0077 201.062 60.0349V61.4327H196.985V60.0349C196.985 58.9715 196.243 58.1096 195.287 58.1096H194.395C193.443 58.1096 192.697 58.9672 192.697 60.0349V72.5723C192.697 73.6356 193.443 74.5318 194.395 74.5318V74.5232V74.5275Z" fill="white"/>
<path d="M208.091 78.022C204.935 78.022 202.35 75.6251 202.35 72.598V60.0606C202.35 57.0334 204.939 54.6108 208.091 54.6108H209.013C212.194 54.6108 214.788 57.0463 214.788 60.0606V72.598C214.788 75.6251 212.199 78.022 209.013 78.022H208.091ZM209.013 58.1011H208.091C207.169 58.1011 206.427 58.9886 206.427 60.0606V72.568C206.427 73.6313 207.173 74.5275 208.091 74.5275H209.013C209.965 74.5275 210.711 73.6399 210.711 72.568V60.0606C210.711 58.9972 209.965 58.1011 209.013 58.1011V58.1011Z" fill="white"/>
<path d="M220.034 62.2308V77.7311H216.316V54.9116H221.02L225.484 70.4462V54.9116H229.201V77.7311H224.532L220.038 62.2308H220.034Z" fill="white"/>
<path d="M71.3773 64.9235C71.3773 63.2341 72.565 63.054 73.877 63.054C75.039 63.054 76.5226 63.1141 77.6502 63.1698L76.7155 59.7911C75.725 59.7353 74.3658 59.6753 73.877 59.6753C70.5454 59.6753 67.4154 60.327 67.4154 64.9192L67.4411 74.3394H64.1738V77.7182H77.6502V74.3394H71.3687V64.9192H71.3773V64.9235Z" fill="white"/>
<path d="M167.19 72.7189V63.0886H172.048L171.114 59.7098H167.19V55.7437H163.263V59.7141H160.025V63.0929H163.263V72.7232C163.263 77.3454 165.827 77.9113 169.724 77.9113C170.972 77.9113 172.168 77.8213 172.85 77.7613V74.4683C171.834 74.4983 170.71 74.5283 169.724 74.5283C168.412 74.5283 167.19 74.4125 167.19 72.7189V72.7189Z" fill="white"/>
<path d="M92.5206 59.7051L87.5811 77.7265H83.2976L78.3281 59.7051H82.4058L85.4672 72.3025L88.503 59.7051H92.5206V59.7051Z" fill="white"/>
<path d="M172.566 59.7051H176.764L180.276 72.0881L183.402 59.7051H187.393L180.383 82.5888C179.547 85.4616 178.033 86.2634 175.233 86.2634H173.077V83.2792H175.096C175.868 83.2792 176.893 82.7089 177.163 81.6713L178.522 76.9547L172.571 59.7051H172.566Z" fill="white"/>
<path fill-rule="evenodd" clip-rule="evenodd" d="M92.4732 38.7939C102.863 33.1284 110.861 26.7066 116.735 14.8703C117.403 13.4399 118.014 12.0874 118.551 10.871C118.574 10.8158 118.597 10.7606 118.62 10.7053L118.624 10.7069C119.311 9.14597 119.871 7.81801 120.263 6.84939V6.75726C120.27 6.77254 120.276 6.7879 120.282 6.80337C120.289 6.7876 120.295 6.77192 120.301 6.75635V6.85031C120.694 7.81863 121.254 9.14608 121.94 10.7064L121.943 10.7053C121.958 10.7424 121.974 10.7795 121.989 10.8165C122.537 12.0603 123.165 13.4482 123.851 14.9175C129.723 26.7228 137.712 33.135 148.087 38.7926L149.133 37.747L151.178 39.7924L144.739 46.2322C144.879 46.3879 145.013 46.536 145.14 46.6759H127.018L120.282 32.7475L113.547 46.675H95.4243C95.551 46.5361 95.684 46.3892 95.8231 46.2346L89.3809 39.7924L91.4263 37.747L92.4732 38.7939ZM142.825 44.0553L146.951 39.9291C140.519 36.3886 134.952 32.5077 130.225 27.2086C133.656 32.9688 139.132 39.7712 142.825 44.0553ZM93.6096 39.9304C100.044 36.3886 105.614 32.5063 110.341 27.2043C106.91 32.9667 101.43 39.773 97.7371 44.0578L93.6096 39.9304Z" fill="white"/>
<g opacity="0.8">
<path fill-rule="evenodd" clip-rule="evenodd" d="M102.191 17.5415L17.4371 47.5904L16.4727 44.8702L101.226 14.8213L102.191 17.5415Z" fill="#BB3C20"/>
<path fill-rule="evenodd" clip-rule="evenodd" d="M16.4638 87.6557L101.217 117.705L102.182 114.984L17.4282 84.9355L16.4638 87.6557Z" fill="#BB3C20"/>
<path fill-rule="evenodd" clip-rule="evenodd" d="M136.663 17.5415L221.416 47.5904L222.381 44.8702L137.627 14.8213L136.663 17.5415Z" fill="#BB3C20"/>
<path fill-rule="evenodd" clip-rule="evenodd" d="M222.386 87.6554L135.945 118.438L134.977 115.72L221.418 84.9365L222.386 87.6554Z" fill="#BB3C20"/>
<path d="M107.557 12.3286H106.632C105.615 12.3286 104.783 13.1607 104.783 14.1778V15.1024C104.783 16.1194 105.615 16.9515 106.632 16.9515H107.557C108.574 16.9515 109.406 16.1194 109.406 15.1024V14.1778C109.406 13.1607 108.574 12.3286 107.557 12.3286Z" fill="#BB3C20"/>
<path d="M132.215 12.3286H131.291C130.274 12.3286 129.441 13.1607 129.441 14.1778V15.1024C129.441 16.1194 130.274 16.9515 131.291 16.9515H132.215C133.232 16.9515 134.064 16.1194 134.064 15.1024V14.1778C134.064 13.1607 133.232 12.3286 132.215 12.3286Z" fill="#BB3C20"/>
<path d="M227.758 81.6733H226.834C225.816 81.6733 224.984 82.5055 224.984 83.5225V84.4471C224.984 85.4641 225.816 86.2963 226.834 86.2963H227.758C228.775 86.2963 229.607 85.4641 229.607 84.4471V83.5225C229.607 82.5055 228.775 81.6733 227.758 81.6733Z" fill="#BB3C20"/>
<path d="M12.0198 81.6719H11.0953C10.0782 81.6719 9.24609 82.504 9.24609 83.521V84.4456C9.24609 85.4627 10.0782 86.2948 11.0953 86.2948H12.0198C13.0369 86.2948 13.869 85.4627 13.869 84.4456V83.521C13.869 82.504 13.0369 81.6719 12.0198 81.6719Z" fill="#BB3C20"/>
<path d="M227.758 46.229H226.834C225.816 46.229 224.984 47.0611 224.984 48.0782V49.0028C224.984 50.0198 225.816 50.8519 226.834 50.8519H227.758C228.775 50.8519 229.607 50.0198 229.607 49.0028V48.0782C229.607 47.0611 228.775 46.229 227.758 46.229Z" fill="#BB3C20"/>
<path d="M12.0198 46.229H11.0953C10.0782 46.229 9.24609 47.0611 9.24609 48.0782V49.0028C9.24609 50.0198 10.0782 50.8519 11.0953 50.8519H12.0198C13.0369 50.8519 13.869 50.0198 13.869 49.0028V48.0782C13.869 47.0611 13.0369 46.229 12.0198 46.229Z" fill="#BB3C20"/>
<path d="M131.067 111.245C131.016 110.824 130.975 110.307 130.781 109.747C130.637 109.188 130.397 108.574 130.06 107.922C129.722 107.266 129.293 106.61 128.766 105.954C128.572 105.718 128.336 105.436 128.045 105.205C128.429 103.708 127.564 102.442 127.564 102.442C126.127 102.349 125.166 102.862 124.829 103.144C124.778 103.144 124.737 103.098 124.635 103.052C124.395 102.959 124.154 102.867 123.868 102.775C123.581 102.682 123.341 102.631 123.055 102.539C122.768 102.493 122.477 102.447 122.241 102.396H122.098C121.474 100.427 119.654 99.5908 119.654 99.5908C117.639 100.857 117.26 102.585 117.26 102.585V102.678C117.168 102.724 117.02 102.724 116.923 102.77C116.779 102.821 116.636 102.862 116.442 102.913C116.299 102.964 116.156 103.006 115.962 103.098C115.675 103.241 115.338 103.38 115.051 103.519C114.765 103.662 114.474 103.847 114.187 104.031C114.136 104.031 114.136 103.985 114.136 103.985C111.308 102.955 108.813 104.221 108.813 104.221C108.573 107.123 109.913 108.994 110.204 109.322C110.153 109.507 110.061 109.697 110.01 109.881C109.816 110.533 109.626 111.24 109.529 111.942C109.529 112.035 109.478 112.127 109.478 112.224C106.891 113.49 106.119 116.06 106.119 116.06C108.277 118.495 110.819 118.633 110.819 118.633C111.156 119.192 111.489 119.71 111.918 120.223C112.112 120.408 112.302 120.643 112.445 120.833C111.678 123.032 112.537 124.858 112.537 124.858C114.936 124.95 116.516 123.827 116.853 123.545C117.094 123.638 117.334 123.689 117.574 123.781C118.295 123.966 119.062 124.063 119.825 124.109H120.735C121.885 125.699 123.849 125.934 123.849 125.934C125.286 124.483 125.337 123.032 125.337 122.704V122.612C125.624 122.427 125.915 122.191 126.201 121.956C126.779 121.443 127.26 120.879 127.689 120.274C127.74 120.228 127.782 120.181 127.782 120.089C129.413 120.181 130.513 119.109 130.513 119.109C130.226 117.469 129.27 116.674 129.076 116.535H129.025V114.664C128.974 114.479 128.974 114.29 128.932 114.146C128.738 113.444 128.503 112.788 128.119 112.178C127.735 111.568 127.306 111.055 126.774 110.588C126.248 110.122 125.675 109.794 125.046 109.516C124.422 109.235 123.803 109.096 123.128 108.999C122.791 108.953 122.505 108.953 122.172 108.953H121.691C121.548 108.953 121.354 108.999 121.211 108.999C120.587 109.091 119.968 109.327 119.436 109.655C118.91 109.983 118.429 110.357 118.046 110.778C117.662 111.198 117.376 111.716 117.181 112.229C116.987 112.742 116.895 113.259 116.844 113.772V114.521C116.895 114.756 116.937 115.034 116.987 115.269C117.131 115.736 117.371 116.157 117.611 116.535C117.898 116.91 118.235 117.192 118.568 117.423C118.905 117.658 119.289 117.843 119.667 117.936C120.046 118.028 120.388 118.079 120.767 118.079H121.391C121.442 118.079 121.483 118.079 121.534 118.033C121.627 118.033 121.678 117.986 121.775 117.986C121.918 117.94 122.061 117.894 122.204 117.802C122.348 117.755 122.445 117.658 122.588 117.566C122.639 117.566 122.639 117.515 122.68 117.473C122.824 117.381 122.823 117.196 122.731 117.099C122.639 117.007 122.491 116.956 122.394 117.053C122.343 117.053 122.343 117.099 122.301 117.099C122.209 117.145 122.107 117.192 121.964 117.242C121.872 117.289 121.724 117.289 121.627 117.335H120.86C120.573 117.289 120.333 117.242 120.046 117.099C119.76 117.007 119.52 116.817 119.279 116.633C119.039 116.448 118.85 116.166 118.702 115.93C118.558 115.653 118.415 115.371 118.364 115.043C118.314 114.9 118.314 114.715 118.314 114.576V114.341C118.314 114.248 118.314 114.156 118.364 114.059C118.508 113.356 118.845 112.7 119.423 112.141C119.566 111.998 119.709 111.905 119.852 111.767C119.996 111.674 120.19 111.582 120.333 111.485C120.527 111.392 120.716 111.342 120.86 111.3C121.054 111.254 121.243 111.208 121.437 111.208H122.015C122.209 111.208 122.445 111.258 122.639 111.3C123.068 111.392 123.452 111.536 123.84 111.767C124.607 112.187 125.231 112.843 125.661 113.592C125.855 113.966 125.998 114.387 126.09 114.807C126.09 114.9 126.141 115.043 126.141 115.135V115.884C126.141 116.027 126.141 116.12 126.09 116.258C126.09 116.351 126.04 116.494 126.04 116.586C126.04 116.679 125.989 116.822 125.947 116.914C125.896 117.15 125.804 117.381 125.707 117.571C125.513 117.991 125.277 118.416 124.986 118.837C124.408 119.585 123.641 120.241 122.736 120.611C122.306 120.796 121.825 120.939 121.345 121.032C121.105 121.078 120.864 121.078 120.624 121.124H120.287C120.337 121.124 120.287 121.124 120.287 121.124H119.903C119.376 121.073 118.845 120.981 118.369 120.847C117.888 120.703 117.362 120.519 116.932 120.288C116.022 119.821 115.204 119.165 114.538 118.37C114.201 117.996 113.915 117.575 113.725 117.104C113.485 116.637 113.295 116.166 113.147 115.699C113.004 115.232 112.907 114.719 112.907 114.248V113.592C112.907 113.356 112.958 113.079 112.958 112.843C113.009 112.608 113.05 112.326 113.101 112.095C113.152 111.859 113.194 111.577 113.295 111.346C113.439 110.88 113.633 110.408 113.822 109.942C114.252 109.054 114.779 108.26 115.453 107.65C115.596 107.506 115.791 107.321 115.98 107.183C116.174 107.04 116.364 106.906 116.558 106.809C116.752 106.665 116.941 106.573 117.135 106.481L117.422 106.337C117.473 106.337 117.514 106.291 117.565 106.291C117.616 106.291 117.657 106.245 117.708 106.245C117.902 106.152 118.138 106.102 118.332 106.009C118.383 106.009 118.424 105.963 118.475 105.963C118.526 105.963 118.568 105.917 118.619 105.917C118.711 105.871 118.859 105.871 118.956 105.824C119.007 105.824 119.048 105.778 119.15 105.778C119.201 105.778 119.242 105.778 119.344 105.732C119.395 105.732 119.436 105.732 119.538 105.681H119.732C119.783 105.681 119.825 105.681 119.926 105.635C119.977 105.635 120.069 105.635 120.12 105.589H120.934C120.934 105.589 120.984 105.589 120.934 105.589H121.798C122.227 105.589 122.662 105.635 123.092 105.732C123.905 105.875 124.672 106.152 125.393 106.481C126.114 106.809 126.737 107.229 127.264 107.696L127.357 107.788L127.449 107.881C127.5 107.927 127.592 107.973 127.643 108.065C127.694 108.116 127.786 108.158 127.837 108.25C127.888 108.343 127.98 108.394 128.031 108.435C128.271 108.671 128.461 108.902 128.655 109.184C129.039 109.65 129.376 110.163 129.612 110.635C129.612 110.681 129.662 110.681 129.662 110.727C129.662 110.773 129.713 110.773 129.713 110.819C129.764 110.866 129.764 110.912 129.806 111.004C129.856 111.051 129.856 111.097 129.898 111.189C129.949 111.24 129.949 111.282 129.99 111.374C130.083 111.61 130.185 111.794 130.231 111.984C130.323 112.312 130.425 112.594 130.471 112.83C130.522 112.922 130.614 113.014 130.711 112.973C130.804 112.973 130.905 112.88 130.905 112.788C131.099 111.901 131.099 111.573 131.049 111.245V111.286L131.067 111.245Z" fill="#BB3C20"/>
</g>
</svg>
