<svg width="270" height="142" viewBox="0 0 270 142" fill="none" xmlns="http://www.w3.org/2000/svg">
<path d="M230.93 102.107C235.287 100.513 238.851 95.4094 238.851 90.77V59.4833C238.851 54.8439 235.287 49.7405 230.93 48.1463L127.344 10.1957C122.987 8.60143 115.859 8.60143 111.502 10.1957L7.92077 48.1463C3.56393 49.7448 0 54.8439 0 59.4833L0 90.77C0 95.4094 3.56393 100.513 7.92077 102.107L111.507 140.058C115.863 141.652 122.991 141.652 127.348 140.058L230.934 102.107H230.93Z" fill="#FF6D3B"/>
<path d="M80.6172 104.45H95.5491V102.032H84.7249C84.7249 101.713 84.7249 101.634 88.5275 100.979C94.0015 100.042 95.0539 99.2106 95.0539 97.3358C95.0539 95.6644 93.0818 93.772 88.1473 93.772C83.2127 93.772 80.8073 95.6512 80.8073 97.7338C80.8073 98.114 80.8692 98.4678 80.9488 98.6579H83.9246C83.8627 98.4987 83.814 98.2776 83.814 98.0212C83.814 96.8892 85.1494 96.142 88.0809 96.142C91.0125 96.142 91.6315 96.7787 91.6315 97.4641C91.6315 98.229 91.3928 98.5297 86.4891 99.4361C80.9798 100.453 80.6172 101.682 80.6172 104.45Z" fill="white"/>
<path d="M109.006 104.609C114.4 104.609 116.995 102.221 116.995 99.1661C116.995 96.1108 114.21 93.8159 109.006 93.8159C103.801 93.8159 101.016 95.9648 101.016 99.1661C101.016 102.367 103.611 104.609 109.006 104.609ZM109.006 102.191C105.999 102.191 104.451 101.028 104.451 99.1838C104.451 97.34 106.092 96.239 109.006 96.239C111.919 96.239 113.56 97.3046 113.56 99.1838C113.56 101.063 112.017 102.191 109.006 102.191Z" fill="white"/>
<path d="M122.332 104.45H137.264V102.032H126.44C126.44 101.713 126.44 101.634 130.242 100.979C135.716 100.042 136.769 99.2106 136.769 97.3358C136.769 95.6644 134.797 93.772 129.862 93.772C124.928 93.772 122.522 95.6512 122.522 97.7338C122.522 98.114 122.584 98.4678 122.664 98.6579H125.639C125.578 98.4987 125.529 98.2776 125.529 98.0212C125.529 96.8892 126.864 96.142 129.796 96.142C132.727 96.142 133.346 96.7787 133.346 97.4641C133.346 98.229 133.108 98.5297 128.204 99.4361C122.695 100.453 122.332 101.682 122.332 104.45Z" fill="white"/>
<path d="M143.193 104.451H158.125V102.032H147.301C147.301 101.714 147.301 101.634 151.104 100.98C156.578 100.042 157.63 99.2111 157.63 97.3363C157.63 95.6649 155.658 93.7725 150.723 93.7725C145.789 93.7725 143.383 95.6517 143.383 97.7343C143.383 98.1145 143.445 98.4683 143.525 98.6584H146.501C146.439 98.4992 146.39 98.2781 146.39 98.0217C146.39 96.8897 147.726 96.1425 150.657 96.1425C153.589 96.1425 154.208 96.7792 154.208 97.4645C154.208 98.2295 153.969 98.5302 149.065 99.4366C143.556 100.454 143.193 101.683 143.193 104.451Z" fill="white"/>
<path d="M15.4522 87.022C12.2965 87.022 9.71094 84.6251 9.71094 81.598V69.0606C9.71094 66.0334 12.3007 63.6108 15.4522 63.6108H16.3741C19.5556 63.6108 22.1497 66.0463 22.1497 69.0606V81.598C22.1497 84.6251 19.5599 87.022 16.3741 87.022H15.4522ZM16.3741 67.1011H15.4522C14.5304 67.1011 13.78 67.9886 13.78 69.0606V81.568C13.78 82.6313 14.5218 83.5275 15.4522 83.5275H16.3741C17.326 83.5275 18.0721 82.6399 18.0721 81.568V69.0606C18.0721 67.9972 17.3303 67.1011 16.3741 67.1011Z" fill="white"/>
<path d="M30.7628 68.4139H31.3545C33.7642 68.4139 35.7837 70.755 35.7837 73.6578V81.7488C35.7837 84.6559 33.7642 87.0185 31.3545 87.0185H30.7628C29.6051 87.0185 28.4131 86.3667 28.0229 85.9251L27.8171 86.7226H24.0996V63.0156H28.0272V69.5073C28.4131 69.0614 29.6051 68.4096 30.7671 68.4096L30.7628 68.4139ZM29.6351 83.6526H30.2268C31.1487 83.6526 31.8604 82.795 31.8604 81.7831V73.6621C31.8604 72.6245 31.1487 71.7669 30.2268 71.7669H29.6351C28.7432 71.7669 28.0272 72.6245 28.0272 73.6621V81.7831C28.0272 82.7607 28.7432 83.6526 29.6351 83.6526Z" fill="white"/>
<path d="M41.3385 81.7537C41.3385 82.7913 42.0846 83.6488 42.9721 83.6488H43.5639C44.4557 83.6488 45.1975 82.7913 45.1975 81.7537V81.3678C45.1975 80.3001 44.3356 79.5883 42.8478 79.4083C39.8421 79.0867 37.4281 77.0671 37.4281 74.1943V73.6927C37.4281 70.7598 39.8978 68.4102 42.9593 68.4102H43.551C46.6124 68.4102 49.1122 70.7513 49.1122 73.6927V74.4902H45.1846V73.6927C45.1846 72.655 44.4386 71.7975 43.551 71.7975H42.9593C42.0674 71.7975 41.3514 72.655 41.3514 73.6927V74.0786C41.3514 75.1462 42.1875 75.858 43.671 76.0381C46.6768 76.424 49.1165 78.3192 49.1165 81.2563V81.7579C49.1165 84.6908 46.621 87.0276 43.5553 87.0276H42.9636C39.9021 87.0276 37.4023 84.6865 37.4023 81.7579V80.9561H41.3299V81.7579H41.3342L41.3385 81.7537Z" fill="white"/>
<path d="M57.3014 87.0223H56.7097C53.6482 87.0223 51.1484 84.6812 51.1484 81.7527V73.6917C51.1484 70.7589 53.6482 68.4092 56.7097 68.4092H57.3014C60.3628 68.4092 62.8626 70.7503 62.8626 73.6917V79.4073H55.0674V81.7484C55.0674 82.786 55.8135 83.6436 56.7011 83.6436H57.2928C58.2147 83.6436 58.9264 82.786 58.9264 81.7484V81.0323H62.854V81.7484C62.854 84.6812 60.3543 87.018 57.2928 87.018H57.3014V87.0223ZM58.935 73.6917C58.935 72.6541 58.2189 71.7965 57.3014 71.7965H56.7097C55.8178 71.7965 55.076 72.6541 55.076 73.6917V76.0328H58.9479V73.6917H58.9393H58.935Z" fill="white"/>
<path d="M100.486 75.9738V73.6927C100.486 72.655 99.7741 71.7975 98.8522 71.7975H98.5821C97.6902 71.7975 96.9484 72.655 96.9484 73.6927V74.4645H93.0208V73.6927C93.0208 70.7598 95.5206 68.4102 98.5821 68.4102H98.8522C101.888 68.4102 104.413 70.7213 104.413 73.5983V82.7527C104.413 83.1386 104.684 83.3444 105.005 83.3444H105.957V86.7275C105.271 86.7875 104.615 86.7875 103.937 86.7875C103.166 86.7875 102.265 86.4959 101.764 85.7241C101.048 86.3501 100.216 87.0276 98.372 87.0276H97.7803C94.7188 87.0276 92.7207 84.9266 92.7207 81.7579C92.7207 77.4016 96.3267 75.888 98.9637 75.888C99.3753 75.888 100.091 75.9137 100.482 75.978L100.49 75.9695H100.486V75.9738ZM98.8522 83.6531C99.7741 83.6531 100.486 82.7656 100.486 81.7579V79.3611C100.036 79.181 99.4182 79.1253 99.0323 79.1253C97.7845 79.1253 96.6526 80.0471 96.6526 81.7665C96.6526 82.9199 97.3686 83.6617 98.2605 83.6617H98.8522V83.6531Z" fill="white"/>
<path d="M114.312 68.4139H114.903C117.309 68.4139 119.333 70.755 119.333 73.6578V81.7488C119.333 84.6559 117.313 87.0185 114.903 87.0185H114.312C113.154 87.0185 111.962 86.3667 111.572 85.9251L111.366 86.7226H107.648V63.0156H111.576V69.5073C111.962 69.0614 113.154 68.4096 114.316 68.4096L114.312 68.4139ZM113.184 83.6526H113.776C114.698 83.6526 115.409 82.795 115.409 81.7831V73.6621C115.409 72.6245 114.698 71.7669 113.776 71.7669H113.184C112.292 71.7669 111.576 72.6245 111.576 73.6621V81.7831C111.576 82.7607 112.292 83.6526 113.184 83.6526Z" fill="white"/>
<path d="M128.87 68.7043V83.3513H132.944V86.7301H120.736V83.3513H124.947V72.0874H120.779V68.7086H128.874L128.87 68.7043ZM129.17 64.2279C129.17 65.5571 128.098 66.6248 126.765 66.6248C125.431 66.6248 124.359 65.5571 124.359 64.2279C124.359 62.8987 125.431 61.8311 126.765 61.8311C128.098 61.8311 129.17 62.8987 129.17 64.2279Z" fill="white"/>
<path d="M157.363 68.7048V83.3518H161.436V86.7306H149.225V83.3518H153.435V72.0879H149.267V68.7091H157.363V68.7048ZM157.663 64.2284C157.663 65.5576 156.595 66.6253 155.257 66.6253C153.92 66.6253 152.848 65.5576 152.848 64.2284C152.848 62.8992 153.915 61.8315 155.257 61.8315C156.6 61.8315 157.663 62.8992 157.663 64.2284Z" fill="white"/>
<path d="M143.02 63.0156V83.3525H147.303V86.7312H134.762V83.3525H139.084V66.3944H134.77V63.0156H143.016H143.02Z" fill="white"/>
<path d="M194.395 83.5275H195.287C196.238 83.5275 196.985 82.6399 196.985 81.568V80.1702H201.062V81.5937C201.062 84.6209 198.472 87.0177 195.287 87.0177H194.395C191.213 87.0177 188.619 84.6209 188.619 81.5937V69.0349C188.619 66.0077 191.209 63.6108 194.395 63.6108H195.287C198.468 63.6108 201.062 66.0077 201.062 69.0349V70.4327H196.985V69.0349C196.985 67.9715 196.243 67.1096 195.287 67.1096H194.395C193.443 67.1096 192.697 67.9672 192.697 69.0349V81.5723C192.697 82.6356 193.443 83.5318 194.395 83.5318V83.5232V83.5275Z" fill="white"/>
<path d="M208.091 87.022C204.935 87.022 202.35 84.6251 202.35 81.598V69.0606C202.35 66.0334 204.939 63.6108 208.091 63.6108H209.013C212.194 63.6108 214.788 66.0463 214.788 69.0606V81.598C214.788 84.6251 212.199 87.022 209.013 87.022H208.091ZM209.013 67.1011H208.091C207.169 67.1011 206.427 67.9886 206.427 69.0606V81.568C206.427 82.6313 207.173 83.5275 208.091 83.5275H209.013C209.965 83.5275 210.711 82.6399 210.711 81.568V69.0606C210.711 67.9972 209.965 67.1011 209.013 67.1011Z" fill="white"/>
<path d="M220.034 71.2308V86.7311H216.316V63.9116H221.02L225.484 79.4462V63.9116H229.201V86.7311H224.532L220.038 71.2308H220.034Z" fill="white"/>
<path d="M71.3773 73.9235C71.3773 72.2341 72.565 72.054 73.877 72.054C75.039 72.054 76.5226 72.1141 77.6502 72.1698L76.7155 68.7911C75.725 68.7353 74.3658 68.6753 73.877 68.6753C70.5454 68.6753 67.4154 69.327 67.4154 73.9192L67.4411 83.3394H64.1738V86.7182H77.6502V83.3394H71.3687V73.9192H71.3773V73.9235Z" fill="white"/>
<path d="M167.19 81.7189V72.0886H172.048L171.114 68.7098H167.19V64.7437H163.263V68.7141H160.025V72.0929H163.263V81.7232C163.263 86.3454 165.827 86.9113 169.724 86.9113C170.972 86.9113 172.168 86.8213 172.85 86.7613V83.4683C171.834 83.4983 170.71 83.5283 169.724 83.5283C168.412 83.5283 167.19 83.4125 167.19 81.7189Z" fill="white"/>
<path d="M92.5206 68.7051L87.5811 86.7265H83.2976L78.3281 68.7051H82.4058L85.4672 81.3025L88.503 68.7051H92.5206Z" fill="white"/>
<path d="M172.566 68.7051H176.764L180.276 81.0881L183.402 68.7051H187.393L180.383 91.5888C179.547 94.4616 178.033 95.2634 175.233 95.2634H173.077V92.2792H175.096C175.868 92.2792 176.893 91.7089 177.163 90.6713L178.522 85.9547L172.571 68.7051H172.566Z" fill="white"/>
<path fill-rule="evenodd" clip-rule="evenodd" d="M92.4732 47.7939C102.863 42.1284 110.861 35.7066 116.735 23.8703C117.403 22.4399 118.014 21.0874 118.551 19.871C118.574 19.8158 118.597 19.7606 118.62 19.7053L118.624 19.7069C119.311 18.146 119.871 16.818 120.263 15.8494V15.7573C120.27 15.7725 120.276 15.7879 120.282 15.8034C120.289 15.7876 120.295 15.7719 120.301 15.7563V15.8503C120.694 16.8186 121.254 18.1461 121.94 19.7064L121.943 19.7053C121.958 19.7424 121.974 19.7795 121.989 19.8165C122.537 21.0603 123.165 22.4482 123.851 23.9175C129.723 35.7228 137.712 42.135 148.087 47.7926L149.133 46.747L151.178 48.7924L144.739 55.2322C144.879 55.3879 145.013 55.536 145.14 55.6759H127.018L120.282 41.7475L113.547 55.675H95.4243C95.551 55.5361 95.684 55.3892 95.8231 55.2346L89.3809 48.7924L91.4263 46.747L92.4732 47.7939ZM142.825 53.0553L146.951 48.9291C140.519 45.3886 134.952 41.5077 130.225 36.2086C133.656 41.9688 139.132 48.7712 142.825 53.0553ZM93.6096 48.9304C100.044 45.3886 105.614 41.5063 110.341 36.2043C106.91 41.9667 101.43 48.773 97.7371 53.0578L93.6096 48.9304Z" fill="white"/>
<g opacity="0.8">
<path fill-rule="evenodd" clip-rule="evenodd" d="M102.191 26.5415L17.4371 56.5904L16.4727 53.8702L101.226 23.8213L102.191 26.5415Z" fill="#BB3C20"/>
<path fill-rule="evenodd" clip-rule="evenodd" d="M16.4638 96.6557L101.217 126.705L102.182 123.984L17.4282 93.9355L16.4638 96.6557Z" fill="#BB3C20"/>
<path fill-rule="evenodd" clip-rule="evenodd" d="M136.663 26.5415L221.416 56.5904L222.381 53.8702L137.627 23.8213L136.663 26.5415Z" fill="#BB3C20"/>
<path fill-rule="evenodd" clip-rule="evenodd" d="M222.386 96.6554L135.945 127.438L134.977 124.72L221.418 93.9365L222.386 96.6554Z" fill="#BB3C20"/>
<path d="M107.557 21.3286H106.632C105.615 21.3286 104.783 22.1607 104.783 23.1778V24.1024C104.783 25.1194 105.615 25.9515 106.632 25.9515H107.557C108.574 25.9515 109.406 25.1194 109.406 24.1024V23.1778C109.406 22.1607 108.574 21.3286 107.557 21.3286Z" fill="#BB3C20"/>
<path d="M132.215 21.3286H131.291C130.274 21.3286 129.441 22.1607 129.441 23.1778V24.1024C129.441 25.1194 130.274 25.9515 131.291 25.9515H132.215C133.232 25.9515 134.064 25.1194 134.064 24.1024V23.1778C134.064 22.1607 133.232 21.3286 132.215 21.3286Z" fill="#BB3C20"/>
<path d="M227.758 90.6733H226.834C225.816 90.6733 224.984 91.5055 224.984 92.5225V93.4471C224.984 94.4641 225.816 95.2963 226.834 95.2963H227.758C228.775 95.2963 229.607 94.4641 229.607 93.4471V92.5225C229.607 91.5055 228.775 90.6733 227.758 90.6733Z" fill="#BB3C20"/>
<path d="M12.0198 90.6719H11.0953C10.0782 90.6719 9.24609 91.504 9.24609 92.521V93.4456C9.24609 94.4627 10.0782 95.2948 11.0953 95.2948H12.0198C13.0369 95.2948 13.869 94.4627 13.869 93.4456V92.521C13.869 91.504 13.0369 90.6719 12.0198 90.6719Z" fill="#BB3C20"/>
<path d="M227.758 55.229H226.834C225.816 55.229 224.984 56.0611 224.984 57.0782V58.0028C224.984 59.0198 225.816 59.8519 226.834 59.8519H227.758C228.775 59.8519 229.607 59.0198 229.607 58.0028V57.0782C229.607 56.0611 228.775 55.229 227.758 55.229Z" fill="#BB3C20"/>
<path d="M12.0198 55.229H11.0953C10.0782 55.229 9.24609 56.0611 9.24609 57.0782V58.0028C9.24609 59.0198 10.0782 59.8519 11.0953 59.8519H12.0198C13.0369 59.8519 13.869 59.0198 13.869 58.0028V57.0782C13.869 56.0611 13.0369 55.229 12.0198 55.229Z" fill="#BB3C20"/>
<path d="M131.067 120.245C131.016 119.824 130.975 119.307 130.781 118.747C130.637 118.188 130.397 117.574 130.06 116.922C129.722 116.266 129.293 115.61 128.766 114.954C128.572 114.718 128.336 114.436 128.045 114.205C128.429 112.708 127.564 111.442 127.564 111.442C126.127 111.349 125.166 111.862 124.829 112.144C124.778 112.144 124.737 112.098 124.635 112.052C124.395 111.959 124.154 111.867 123.868 111.775C123.581 111.682 123.341 111.631 123.055 111.539C122.768 111.493 122.477 111.447 122.241 111.396H122.098C121.474 109.427 119.654 108.591 119.654 108.591C117.639 109.857 117.26 111.585 117.26 111.585V111.678C117.168 111.724 117.02 111.724 116.923 111.77C116.779 111.821 116.636 111.862 116.442 111.913C116.299 111.964 116.156 112.006 115.962 112.098C115.675 112.241 115.338 112.38 115.051 112.519C114.765 112.662 114.474 112.847 114.187 113.031C114.136 113.031 114.136 112.985 114.136 112.985C111.308 111.955 108.813 113.221 108.813 113.221C108.573 116.123 109.913 117.994 110.204 118.322C110.153 118.507 110.061 118.697 110.01 118.881C109.816 119.533 109.626 120.24 109.529 120.942C109.529 121.035 109.478 121.127 109.478 121.224C106.891 122.49 106.119 125.06 106.119 125.06C108.277 127.495 110.819 127.633 110.819 127.633C111.156 128.192 111.489 128.71 111.918 129.223C112.112 129.408 112.302 129.643 112.445 129.833C111.678 132.032 112.537 133.858 112.537 133.858C114.936 133.95 116.516 132.827 116.853 132.545C117.094 132.638 117.334 132.689 117.574 132.781C118.295 132.966 119.062 133.063 119.825 133.109H120.735C121.885 134.699 123.849 134.934 123.849 134.934C125.286 133.483 125.337 132.032 125.337 131.704V131.612C125.624 131.427 125.915 131.191 126.201 130.956C126.779 130.443 127.26 129.879 127.689 129.274C127.74 129.228 127.782 129.181 127.782 129.089C129.413 129.181 130.513 128.109 130.513 128.109C130.226 126.469 129.27 125.674 129.076 125.535H129.025V123.664C128.974 123.479 128.974 123.29 128.932 123.146C128.738 122.444 128.503 121.788 128.119 121.178C127.735 120.568 127.306 120.055 126.774 119.588C126.248 119.122 125.675 118.794 125.046 118.516C124.422 118.235 123.803 118.096 123.128 117.999C122.791 117.953 122.505 117.953 122.172 117.953H121.691C121.548 117.953 121.354 117.999 121.211 117.999C120.587 118.091 119.968 118.327 119.436 118.655C118.91 118.983 118.429 119.357 118.046 119.778C117.662 120.198 117.376 120.716 117.181 121.229C116.987 121.742 116.895 122.259 116.844 122.772V123.521C116.895 123.756 116.937 124.034 116.987 124.269C117.131 124.736 117.371 125.157 117.611 125.535C117.898 125.91 118.235 126.192 118.568 126.423C118.905 126.658 119.289 126.843 119.667 126.936C120.046 127.028 120.388 127.079 120.767 127.079H121.391C121.442 127.079 121.483 127.079 121.534 127.033C121.627 127.033 121.678 126.986 121.775 126.986C121.918 126.94 122.061 126.894 122.204 126.802C122.348 126.755 122.445 126.658 122.588 126.566C122.639 126.566 122.639 126.515 122.68 126.473C122.824 126.381 122.823 126.196 122.731 126.099C122.639 126.007 122.491 125.956 122.394 126.053C122.343 126.053 122.343 126.099 122.301 126.099C122.209 126.145 122.107 126.192 121.964 126.242C121.872 126.289 121.724 126.289 121.627 126.335H120.86C120.573 126.289 120.333 126.242 120.046 126.099C119.76 126.007 119.52 125.817 119.279 125.632C119.039 125.448 118.85 125.166 118.702 124.93C118.558 124.653 118.415 124.371 118.364 124.043C118.314 123.9 118.314 123.715 118.314 123.576V123.341C118.314 123.248 118.314 123.156 118.364 123.059C118.508 122.356 118.845 121.7 119.423 121.141C119.566 120.998 119.709 120.905 119.852 120.767C119.996 120.674 120.19 120.582 120.333 120.485C120.527 120.392 120.716 120.342 120.86 120.3C121.054 120.254 121.243 120.208 121.437 120.208H122.015C122.209 120.208 122.445 120.258 122.639 120.3C123.068 120.392 123.452 120.536 123.84 120.767C124.607 121.187 125.231 121.843 125.661 122.592C125.855 122.966 125.998 123.387 126.09 123.807C126.09 123.9 126.141 124.043 126.141 124.135V124.884C126.141 125.027 126.141 125.12 126.09 125.258C126.09 125.351 126.04 125.494 126.04 125.586C126.04 125.679 125.989 125.822 125.947 125.914C125.896 126.15 125.804 126.381 125.707 126.571C125.513 126.991 125.277 127.416 124.986 127.837C124.408 128.585 123.641 129.241 122.736 129.611C122.306 129.796 121.825 129.939 121.345 130.032C121.105 130.078 120.864 130.078 120.624 130.124H120.287C120.337 130.124 120.287 130.124 120.287 130.124H119.903C119.376 130.073 118.845 129.981 118.369 129.847C117.888 129.703 117.362 129.519 116.932 129.288C116.022 128.821 115.204 128.165 114.538 127.37C114.201 126.996 113.915 126.575 113.725 126.104C113.485 125.637 113.295 125.166 113.147 124.699C113.004 124.232 112.907 123.719 112.907 123.248V122.592C112.907 122.356 112.958 122.079 112.958 121.843C113.009 121.608 113.05 121.326 113.101 121.095C113.152 120.859 113.194 120.577 113.295 120.346C113.439 119.88 113.633 119.408 113.822 118.942C114.252 118.054 114.779 117.26 115.453 116.65C115.596 116.506 115.791 116.321 115.98 116.183C116.174 116.04 116.364 115.906 116.558 115.809C116.752 115.665 116.941 115.573 117.135 115.481L117.422 115.337C117.473 115.337 117.514 115.291 117.565 115.291C117.616 115.291 117.657 115.245 117.708 115.245C117.902 115.152 118.138 115.102 118.332 115.009C118.383 115.009 118.424 114.963 118.475 114.963C118.526 114.963 118.568 114.917 118.619 114.917C118.711 114.871 118.859 114.871 118.956 114.824C119.007 114.824 119.048 114.778 119.15 114.778C119.201 114.778 119.242 114.778 119.344 114.732C119.395 114.732 119.436 114.732 119.538 114.681H119.732C119.783 114.681 119.825 114.681 119.926 114.635C119.977 114.635 120.069 114.635 120.12 114.589H120.934C120.934 114.589 120.984 114.589 120.934 114.589H121.798C122.227 114.589 122.662 114.635 123.092 114.732C123.905 114.875 124.672 115.152 125.393 115.481C126.114 115.809 126.737 116.229 127.264 116.696L127.357 116.788L127.449 116.881C127.5 116.927 127.592 116.973 127.643 117.065C127.694 117.116 127.786 117.158 127.837 117.25C127.888 117.343 127.98 117.394 128.031 117.435C128.271 117.671 128.461 117.902 128.655 118.184C129.039 118.65 129.376 119.163 129.612 119.635C129.612 119.681 129.662 119.681 129.662 119.727C129.662 119.773 129.713 119.773 129.713 119.819C129.764 119.866 129.764 119.912 129.806 120.004C129.856 120.051 129.856 120.097 129.898 120.189C129.949 120.24 129.949 120.282 129.99 120.374C130.083 120.61 130.185 120.794 130.231 120.984C130.323 121.312 130.425 121.594 130.471 121.83C130.522 121.922 130.614 122.014 130.711 121.973C130.804 121.973 130.905 121.88 130.905 121.788C131.099 120.901 131.099 120.573 131.049 120.245V120.286L131.067 120.245Z" fill="#BB3C20"/>
</g>
<mask id="path-34-outside-1_26235_3009" maskUnits="userSpaceOnUse" x="170.926" y="-7.76838" width="98.4127" height="51.8597" fill="black">
<rect fill="white" x="170.926" y="-7.76838" width="98.4127" height="51.8597"/>
<path d="M174.974 30.3261L175.278 40.578C175.285 40.7885 175.46 40.9541 175.671 40.948L266.632 38.3066C266.843 38.3005 267.009 38.1247 267.003 37.914L266.869 33.4107C266.865 33.2904 266.765 33.1958 266.644 33.1994C266.524 33.203 266.424 33.1084 266.42 32.9881C266.417 32.8678 266.316 32.7732 266.196 32.7768L265.2 32.8063C265.08 32.8099 264.985 32.9103 264.989 33.0306C264.993 33.1509 264.898 33.2513 264.778 33.2549L264.622 33.2595C264.416 33.2656 264.254 33.4377 264.26 33.6439L264.295 34.8263C264.299 34.9637 264.191 35.0785 264.053 35.0826C263.916 35.0867 263.801 34.9785 263.797 34.8411L263.731 32.6009L263.62 28.8673C263.615 28.6954 263.471 28.5603 263.299 28.5654C263.127 28.5705 262.984 28.4353 262.979 28.2635L262.964 27.7736C262.958 27.563 262.782 27.3974 262.572 27.4037L261.965 27.4217C261.755 27.4279 261.589 27.6037 261.595 27.8142L261.61 28.3042C261.615 28.476 261.48 28.6195 261.308 28.6246C261.136 28.6297 261.001 28.7731 261.006 28.9449L261.106 32.2973C261.112 32.5079 260.946 32.6836 260.736 32.6899L259.258 32.7338C259.048 32.7401 258.872 32.5744 258.866 32.3639L258.733 27.8993C258.727 27.6888 258.551 27.5231 258.34 27.5294L257.734 27.5474C257.523 27.5537 257.347 27.3881 257.341 27.1775L257.073 18.1609C257.066 17.9104 256.823 17.735 256.583 17.8068L255.207 18.218L254.683 18.3776C254.584 18.4079 254.501 18.4773 254.454 18.5698L253.152 21.1351C253.128 21.1827 253.114 21.2349 253.111 21.2882L253.015 23.164C253.005 23.3625 252.844 23.5198 252.646 23.5257L250.827 23.5798C250.617 23.586 250.441 23.4204 250.435 23.2099L250.351 20.3888C250.348 20.2877 250.305 20.1919 250.231 20.1225L249.948 19.8562C249.875 19.7868 249.832 19.691 249.829 19.5899L249.736 16.461C249.734 16.4125 249.724 16.3647 249.704 16.3202L249.484 15.8133C249.427 15.6818 249.24 15.6825 249.184 15.8144C249.121 15.9608 248.908 15.9407 248.874 15.7852L248.767 15.2952L248.572 14.691C248.453 14.323 247.925 14.345 247.837 14.7215L247.663 15.4713C247.656 15.5005 247.646 15.5287 247.632 15.5555L247.378 16.064C247.322 16.176 247.161 16.1754 247.106 16.063C247.042 15.933 246.85 15.9581 246.822 16.1L246.753 16.4461C246.749 16.4662 246.747 16.4867 246.748 16.5072L246.842 19.6787C246.845 19.7798 246.808 19.878 246.738 19.9516L246.472 20.2342C246.403 20.3078 246.365 20.406 246.368 20.5071L246.452 23.3282C246.458 23.5388 246.293 23.7145 246.082 23.7208L244.604 23.7647C244.394 23.771 244.218 23.6053 244.212 23.3948L244.176 22.1892C244.173 22.069 244.072 21.9743 243.952 21.9779C243.832 21.9815 243.731 21.8869 243.728 21.7666L243.699 20.81C243.693 20.5994 243.517 20.4338 243.307 20.44L243.26 20.4414C243.05 20.4477 242.874 20.2821 242.868 20.0715L242.782 17.1944C242.781 17.168 242.778 17.1418 242.772 17.1161L241.645 12.4551L241.35 10.9068L241.136 9.82324C241.132 9.80262 241.129 9.78171 241.129 9.76071L241.068 7.70766C241.065 7.62175 240.993 7.55417 240.907 7.55672C240.822 7.55927 240.754 7.63099 240.756 7.71691L240.817 9.75966C240.818 9.78748 240.816 9.8153 240.811 9.84264L240.603 10.929L240.462 12.4902L239.553 17.2095C239.548 17.237 239.545 17.265 239.546 17.293L239.632 20.1677C239.638 20.3782 239.472 20.554 239.262 20.5602L239.091 20.5653C238.88 20.5716 238.715 20.7473 238.721 20.9579L238.751 21.9768C238.754 22.0627 238.686 22.1344 238.6 22.137C238.514 22.1395 238.447 22.2112 238.449 22.2971L238.487 23.5649C238.493 23.7755 238.328 23.9512 238.117 23.9575L235.893 24.0236C235.682 24.0298 235.506 23.8642 235.5 23.6537L235.31 17.2522C235.305 17.0803 235.161 16.9452 234.99 16.9503C234.818 16.9554 234.674 16.8202 234.669 16.6484L234.623 15.1006C234.617 14.8901 234.441 14.7244 234.231 14.7307L234.122 14.7339C233.911 14.7402 233.736 14.5746 233.729 14.364L233.718 13.9985C233.712 13.7923 233.54 13.6301 233.334 13.6363C233.128 13.6424 232.956 13.4802 232.95 13.274L232.944 13.0839C232.94 12.968 232.882 12.8617 232.815 12.7669C232.371 12.134 232.058 10.0506 231.951 9.00624L231.852 5.68761C231.848 5.56152 231.743 5.46234 231.617 5.46609C231.476 5.47028 231.363 5.60099 231.372 5.74186C231.399 6.17123 231.434 7.14332 231.453 9.02103C231.475 11.2493 230.984 12.4098 230.644 12.836C230.569 12.9298 230.514 13.0434 230.517 13.1634L230.525 13.4395C230.53 13.5941 230.408 13.7232 230.254 13.7278C230.099 13.7324 229.977 13.8615 229.982 14.0162L229.998 14.5372C230.004 14.7478 229.838 14.9235 229.628 14.9298L229.519 14.933C229.308 14.9393 229.143 15.115 229.149 15.3256L229.197 16.9356C229.202 17.1074 229.067 17.2509 228.895 17.256C228.723 17.2611 228.588 17.4045 228.593 17.5764L228.78 23.8534C228.786 24.0639 228.62 24.2397 228.41 24.246L226.986 24.2883C226.779 24.2944 226.604 24.1338 226.594 23.9267L225.599 4.69159C225.592 4.55032 225.507 4.4247 225.379 4.36522L224.917 4.15133C224.786 4.09059 224.701 3.961 224.696 3.8166L224.676 3.12669C224.67 2.91614 224.494 2.75052 224.283 2.75678L223.117 2.79145C222.906 2.7977 222.73 2.63209 222.724 2.42154L222.559 -3.13989C222.554 -3.29454 222.425 -3.41619 222.271 -3.41159C222.116 -3.407 221.994 -3.2779 221.999 -3.12325L222.164 2.43818C222.17 2.64873 222.005 2.82449 221.794 2.83075L221.001 2.85432C220.791 2.86058 220.625 3.03634 220.631 3.24689L220.651 3.91162C220.656 4.06885 220.563 4.21282 220.418 4.27416L219.787 4.54158C219.645 4.6019 219.553 4.74228 219.554 4.89695L219.764 24.1285C219.766 24.3363 219.602 24.5077 219.394 24.5139L217.971 24.5562C217.761 24.5624 217.585 24.3968 217.579 24.1862L217.269 13.7479C217.262 13.5373 217.087 13.3717 216.876 13.378L214.776 13.4404C214.566 13.4466 214.39 13.281 214.384 13.0705L214.337 11.4916C214.331 11.3025 214.173 11.1539 213.984 11.1595C213.795 11.1651 213.646 11.3229 213.652 11.5119L213.699 13.0908C213.705 13.3014 213.54 13.4771 213.329 13.4834L211.416 13.5402C211.205 13.5465 211.04 13.7223 211.046 13.9328L211.356 24.3712C211.362 24.5817 211.197 24.7575 210.986 24.7637L210.317 24.7836C210.107 24.7899 209.931 24.6242 209.925 24.4137L209.139 -2.01698C209.133 -2.22753 208.957 -2.39315 208.747 -2.38689L204.658 -2.26539C204.447 -2.2591 204.281 -2.08174 204.288 -1.87021L205.248 24.3828C205.258 24.6597 204.918 24.8651 204.643 24.8277C204.432 24.7989 204.081 24.6079 203.802 24.4347C203.633 24.3298 203.591 24.1069 203.7 23.9408C203.819 23.7597 203.757 23.5156 203.566 23.4137L203.278 23.2603C203.133 23.1834 202.956 23.2072 202.837 23.3196L202.809 23.3452C202.641 23.5041 202.37 23.4773 202.262 23.2726C202.172 23.1023 202.095 22.9186 202.091 22.7859C202.085 22.5795 201.821 22.338 201.622 22.1937C201.552 22.1424 201.495 22.0733 201.468 21.9903C201.354 21.6438 201.207 21.1306 201.295 21.128C201.371 21.1257 201.421 20.878 201.446 20.6693C201.46 20.5619 201.512 20.4622 201.597 20.3956L201.894 20.1636C202.069 20.0274 201.989 19.748 201.768 19.7252L201.651 19.7132C201.546 19.7022 201.48 19.5922 201.521 19.4941C201.583 19.3482 201.416 19.2126 201.285 19.302L201.113 19.4201C200.993 19.5023 200.828 19.4478 200.781 19.3104L200.757 19.2421C200.676 19.008 200.352 18.9915 200.247 19.2162L200.217 19.2823C200.141 19.4448 199.931 19.4894 199.796 19.3715L199.685 19.2741C199.524 19.1331 199.276 19.2813 199.325 19.4899C199.356 19.6256 199.255 19.7561 199.116 19.7602L199.025 19.7629C198.904 19.7665 198.794 19.6963 198.746 19.5855L198.488 18.9942C198.447 18.8998 198.447 18.7931 198.482 18.6965C198.56 18.4843 198.654 18.1866 198.649 18.0302C198.642 17.7813 198.382 17.4154 198.625 17.2213C198.85 17.0416 198.753 16.5407 199.023 16.4385C199.61 16.216 200.098 15.9679 199.521 15.949C198.524 15.9164 198.579 15.6656 197.958 15.7463C197.535 15.8014 197.697 16.2353 197.888 16.5379C197.933 16.6091 197.902 16.7065 197.822 16.732C197.72 16.7643 197.691 16.9292 197.735 17.0263C197.781 17.1281 197.802 17.264 197.759 17.4338C197.648 17.8731 197.653 18.0598 197.91 18.3013C198.166 18.5428 198.058 19.1066 198.075 19.6666C198.091 20.2267 198.159 20.4115 198.116 21.0356C198.072 21.6597 198.264 21.8409 198.33 21.9635C198.384 22.0632 198.191 22.2116 198.497 22.5879C198.638 22.7625 198.653 23.0195 198.481 23.164C196.99 24.4138 194.546 25.36 193.119 25.7971C192.883 25.8693 192.649 25.6946 192.641 25.4483L192.467 19.5841C192.462 19.4123 192.318 19.2771 192.147 19.2822C191.975 19.2874 191.831 19.1522 191.826 18.9804L191.782 17.4869C191.779 17.3838 191.693 17.3027 191.59 17.3058C191.487 17.3088 191.4 17.2278 191.397 17.1246L191.391 16.9166C191.385 16.7222 191.223 16.5693 191.029 16.5751C190.935 16.5778 190.845 16.5434 190.777 16.4794L189.174 14.9693C189.021 14.8248 188.78 14.832 188.635 14.9853L187.012 16.7072C186.943 16.7808 186.906 16.879 186.909 16.9801L186.915 17.1956C186.918 17.2987 186.837 17.3847 186.734 17.3878C186.631 17.3909 186.55 17.4769 186.553 17.58L186.597 19.0735C186.603 19.2797 186.441 19.4518 186.235 19.4579C186.029 19.4641 185.867 19.6362 185.873 19.8424L185.999 24.0738C186.005 24.28 185.843 24.4521 185.636 24.4583C185.43 24.4644 185.258 24.3022 185.252 24.096L185.217 22.9137C185.213 22.7762 185.098 22.6681 184.96 22.6722C184.823 22.6763 184.708 22.5681 184.704 22.4307L184.653 20.726C184.649 20.5875 184.569 20.4639 184.453 20.3878C184.272 20.2685 184.074 20.1013 184.07 19.9582C184.063 19.7093 183.539 18.8529 181.921 18.901C180.748 18.9359 180.29 19.597 180.176 20.0155C180.155 20.0933 180.122 20.1686 180.067 20.2272L179.777 20.5346C179.708 20.6082 179.67 20.7064 179.673 20.8075L179.729 22.6719C179.733 22.8266 179.612 22.9557 179.457 22.9603C179.302 22.9649 179.181 23.094 179.185 23.2486L179.219 24.3687C179.223 24.5234 179.102 24.6525 178.947 24.6571C178.792 24.6617 178.671 24.7907 178.675 24.9454L178.781 28.5156C178.788 28.7261 178.622 28.9019 178.411 28.9081L176.187 28.9742C175.976 28.9805 175.811 29.1563 175.817 29.3668L175.822 29.5377C175.828 29.7483 175.663 29.924 175.452 29.9303L175.344 29.9335C175.133 29.9398 174.967 30.1155 174.974 30.3261Z"/>
</mask>
<path d="M174.974 30.3261L175.278 40.578C175.285 40.7885 175.46 40.9541 175.671 40.948L266.632 38.3066C266.843 38.3005 267.009 38.1247 267.003 37.914L266.869 33.4107C266.865 33.2904 266.765 33.1958 266.644 33.1994C266.524 33.203 266.424 33.1084 266.42 32.9881C266.417 32.8678 266.316 32.7732 266.196 32.7768L265.2 32.8063C265.08 32.8099 264.985 32.9103 264.989 33.0306C264.993 33.1509 264.898 33.2513 264.778 33.2549L264.622 33.2595C264.416 33.2656 264.254 33.4377 264.26 33.6439L264.295 34.8263C264.299 34.9637 264.191 35.0785 264.053 35.0826C263.916 35.0867 263.801 34.9785 263.797 34.8411L263.731 32.6009L263.62 28.8673C263.615 28.6954 263.471 28.5603 263.299 28.5654C263.127 28.5705 262.984 28.4353 262.979 28.2635L262.964 27.7736C262.958 27.563 262.782 27.3974 262.572 27.4037L261.965 27.4217C261.755 27.4279 261.589 27.6037 261.595 27.8142L261.61 28.3042C261.615 28.476 261.48 28.6195 261.308 28.6246C261.136 28.6297 261.001 28.7731 261.006 28.9449L261.106 32.2973C261.112 32.5079 260.946 32.6836 260.736 32.6899L259.258 32.7338C259.048 32.7401 258.872 32.5744 258.866 32.3639L258.733 27.8993C258.727 27.6888 258.551 27.5231 258.34 27.5294L257.734 27.5474C257.523 27.5537 257.347 27.3881 257.341 27.1775L257.073 18.1609C257.066 17.9104 256.823 17.735 256.583 17.8068L255.207 18.218L254.683 18.3776C254.584 18.4079 254.501 18.4773 254.454 18.5698L253.152 21.1351C253.128 21.1827 253.114 21.2349 253.111 21.2882L253.015 23.164C253.005 23.3625 252.844 23.5198 252.646 23.5257L250.827 23.5798C250.617 23.586 250.441 23.4204 250.435 23.2099L250.351 20.3888C250.348 20.2877 250.305 20.1919 250.231 20.1225L249.948 19.8562C249.875 19.7868 249.832 19.691 249.829 19.5899L249.736 16.461C249.734 16.4125 249.724 16.3647 249.704 16.3202L249.484 15.8133C249.427 15.6818 249.24 15.6825 249.184 15.8144C249.121 15.9608 248.908 15.9407 248.874 15.7852L248.767 15.2952L248.572 14.691C248.453 14.323 247.925 14.345 247.837 14.7215L247.663 15.4713C247.656 15.5005 247.646 15.5287 247.632 15.5555L247.378 16.064C247.322 16.176 247.161 16.1754 247.106 16.063C247.042 15.933 246.85 15.9581 246.822 16.1L246.753 16.4461C246.749 16.4662 246.747 16.4867 246.748 16.5072L246.842 19.6787C246.845 19.7798 246.808 19.878 246.738 19.9516L246.472 20.2342C246.403 20.3078 246.365 20.406 246.368 20.5071L246.452 23.3282C246.458 23.5388 246.293 23.7145 246.082 23.7208L244.604 23.7647C244.394 23.771 244.218 23.6053 244.212 23.3948L244.176 22.1892C244.173 22.069 244.072 21.9743 243.952 21.9779C243.832 21.9815 243.731 21.8869 243.728 21.7666L243.699 20.81C243.693 20.5994 243.517 20.4338 243.307 20.44L243.26 20.4414C243.05 20.4477 242.874 20.2821 242.868 20.0715L242.782 17.1944C242.781 17.168 242.778 17.1418 242.772 17.1161L241.645 12.4551L241.35 10.9068L241.136 9.82324C241.132 9.80262 241.129 9.78171 241.129 9.76071L241.068 7.70766C241.065 7.62175 240.993 7.55417 240.907 7.55672C240.822 7.55927 240.754 7.63099 240.756 7.71691L240.817 9.75966C240.818 9.78748 240.816 9.8153 240.811 9.84264L240.603 10.929L240.462 12.4902L239.553 17.2095C239.548 17.237 239.545 17.265 239.546 17.293L239.632 20.1677C239.638 20.3782 239.472 20.554 239.262 20.5602L239.091 20.5653C238.88 20.5716 238.715 20.7473 238.721 20.9579L238.751 21.9768C238.754 22.0627 238.686 22.1344 238.6 22.137C238.514 22.1395 238.447 22.2112 238.449 22.2971L238.487 23.5649C238.493 23.7755 238.328 23.9512 238.117 23.9575L235.893 24.0236C235.682 24.0298 235.506 23.8642 235.5 23.6537L235.31 17.2522C235.305 17.0803 235.161 16.9452 234.99 16.9503C234.818 16.9554 234.674 16.8202 234.669 16.6484L234.623 15.1006C234.617 14.8901 234.441 14.7244 234.231 14.7307L234.122 14.7339C233.911 14.7402 233.736 14.5746 233.729 14.364L233.718 13.9985C233.712 13.7923 233.54 13.6301 233.334 13.6363C233.128 13.6424 232.956 13.4802 232.95 13.274L232.944 13.0839C232.94 12.968 232.882 12.8617 232.815 12.7669C232.371 12.134 232.058 10.0506 231.951 9.00624L231.852 5.68761C231.848 5.56152 231.743 5.46234 231.617 5.46609C231.476 5.47028 231.363 5.60099 231.372 5.74186C231.399 6.17123 231.434 7.14332 231.453 9.02103C231.475 11.2493 230.984 12.4098 230.644 12.836C230.569 12.9298 230.514 13.0434 230.517 13.1634L230.525 13.4395C230.53 13.5941 230.408 13.7232 230.254 13.7278C230.099 13.7324 229.977 13.8615 229.982 14.0162L229.998 14.5372C230.004 14.7478 229.838 14.9235 229.628 14.9298L229.519 14.933C229.308 14.9393 229.143 15.115 229.149 15.3256L229.197 16.9356C229.202 17.1074 229.067 17.2509 228.895 17.256C228.723 17.2611 228.588 17.4045 228.593 17.5764L228.78 23.8534C228.786 24.0639 228.62 24.2397 228.41 24.246L226.986 24.2883C226.779 24.2944 226.604 24.1338 226.594 23.9267L225.599 4.69159C225.592 4.55032 225.507 4.4247 225.379 4.36522L224.917 4.15133C224.786 4.09059 224.701 3.961 224.696 3.8166L224.676 3.12669C224.67 2.91614 224.494 2.75052 224.283 2.75678L223.117 2.79145C222.906 2.7977 222.73 2.63209 222.724 2.42154L222.559 -3.13989C222.554 -3.29454 222.425 -3.41619 222.271 -3.41159C222.116 -3.407 221.994 -3.2779 221.999 -3.12325L222.164 2.43818C222.17 2.64873 222.005 2.82449 221.794 2.83075L221.001 2.85432C220.791 2.86058 220.625 3.03634 220.631 3.24689L220.651 3.91162C220.656 4.06885 220.563 4.21282 220.418 4.27416L219.787 4.54158C219.645 4.6019 219.553 4.74228 219.554 4.89695L219.764 24.1285C219.766 24.3363 219.602 24.5077 219.394 24.5139L217.971 24.5562C217.761 24.5624 217.585 24.3968 217.579 24.1862L217.269 13.7479C217.262 13.5373 217.087 13.3717 216.876 13.378L214.776 13.4404C214.566 13.4466 214.39 13.281 214.384 13.0705L214.337 11.4916C214.331 11.3025 214.173 11.1539 213.984 11.1595C213.795 11.1651 213.646 11.3229 213.652 11.5119L213.699 13.0908C213.705 13.3014 213.54 13.4771 213.329 13.4834L211.416 13.5402C211.205 13.5465 211.04 13.7223 211.046 13.9328L211.356 24.3712C211.362 24.5817 211.197 24.7575 210.986 24.7637L210.317 24.7836C210.107 24.7899 209.931 24.6242 209.925 24.4137L209.139 -2.01698C209.133 -2.22753 208.957 -2.39315 208.747 -2.38689L204.658 -2.26539C204.447 -2.2591 204.281 -2.08174 204.288 -1.87021L205.248 24.3828C205.258 24.6597 204.918 24.8651 204.643 24.8277C204.432 24.7989 204.081 24.6079 203.802 24.4347C203.633 24.3298 203.591 24.1069 203.7 23.9408C203.819 23.7597 203.757 23.5156 203.566 23.4137L203.278 23.2603C203.133 23.1834 202.956 23.2072 202.837 23.3196L202.809 23.3452C202.641 23.5041 202.37 23.4773 202.262 23.2726C202.172 23.1023 202.095 22.9186 202.091 22.7859C202.085 22.5795 201.821 22.338 201.622 22.1937C201.552 22.1424 201.495 22.0733 201.468 21.9903C201.354 21.6438 201.207 21.1306 201.295 21.128C201.371 21.1257 201.421 20.878 201.446 20.6693C201.46 20.5619 201.512 20.4622 201.597 20.3956L201.894 20.1636C202.069 20.0274 201.989 19.748 201.768 19.7252L201.651 19.7132C201.546 19.7022 201.48 19.5922 201.521 19.4941C201.583 19.3482 201.416 19.2126 201.285 19.302L201.113 19.4201C200.993 19.5023 200.828 19.4478 200.781 19.3104L200.757 19.2421C200.676 19.008 200.352 18.9915 200.247 19.2162L200.217 19.2823C200.141 19.4448 199.931 19.4894 199.796 19.3715L199.685 19.2741C199.524 19.1331 199.276 19.2813 199.325 19.4899C199.356 19.6256 199.255 19.7561 199.116 19.7602L199.025 19.7629C198.904 19.7665 198.794 19.6963 198.746 19.5855L198.488 18.9942C198.447 18.8998 198.447 18.7931 198.482 18.6965C198.56 18.4843 198.654 18.1866 198.649 18.0302C198.642 17.7813 198.382 17.4154 198.625 17.2213C198.85 17.0416 198.753 16.5407 199.023 16.4385C199.61 16.216 200.098 15.9679 199.521 15.949C198.524 15.9164 198.579 15.6656 197.958 15.7463C197.535 15.8014 197.697 16.2353 197.888 16.5379C197.933 16.6091 197.902 16.7065 197.822 16.732C197.72 16.7643 197.691 16.9292 197.735 17.0263C197.781 17.1281 197.802 17.264 197.759 17.4338C197.648 17.8731 197.653 18.0598 197.91 18.3013C198.166 18.5428 198.058 19.1066 198.075 19.6666C198.091 20.2267 198.159 20.4115 198.116 21.0356C198.072 21.6597 198.264 21.8409 198.33 21.9635C198.384 22.0632 198.191 22.2116 198.497 22.5879C198.638 22.7625 198.653 23.0195 198.481 23.164C196.99 24.4138 194.546 25.36 193.119 25.7971C192.883 25.8693 192.649 25.6946 192.641 25.4483L192.467 19.5841C192.462 19.4123 192.318 19.2771 192.147 19.2822C191.975 19.2874 191.831 19.1522 191.826 18.9804L191.782 17.4869C191.779 17.3838 191.693 17.3027 191.59 17.3058C191.487 17.3088 191.4 17.2278 191.397 17.1246L191.391 16.9166C191.385 16.7222 191.223 16.5693 191.029 16.5751C190.935 16.5778 190.845 16.5434 190.777 16.4794L189.174 14.9693C189.021 14.8248 188.78 14.832 188.635 14.9853L187.012 16.7072C186.943 16.7808 186.906 16.879 186.909 16.9801L186.915 17.1956C186.918 17.2987 186.837 17.3847 186.734 17.3878C186.631 17.3909 186.55 17.4769 186.553 17.58L186.597 19.0735C186.603 19.2797 186.441 19.4518 186.235 19.4579C186.029 19.4641 185.867 19.6362 185.873 19.8424L185.999 24.0738C186.005 24.28 185.843 24.4521 185.636 24.4583C185.43 24.4644 185.258 24.3022 185.252 24.096L185.217 22.9137C185.213 22.7762 185.098 22.6681 184.96 22.6722C184.823 22.6763 184.708 22.5681 184.704 22.4307L184.653 20.726C184.649 20.5875 184.569 20.4639 184.453 20.3878C184.272 20.2685 184.074 20.1013 184.07 19.9582C184.063 19.7093 183.539 18.8529 181.921 18.901C180.748 18.9359 180.29 19.597 180.176 20.0155C180.155 20.0933 180.122 20.1686 180.067 20.2272L179.777 20.5346C179.708 20.6082 179.67 20.7064 179.673 20.8075L179.729 22.6719C179.733 22.8266 179.612 22.9557 179.457 22.9603C179.302 22.9649 179.181 23.094 179.185 23.2486L179.219 24.3687C179.223 24.5234 179.102 24.6525 178.947 24.6571C178.792 24.6617 178.671 24.7907 178.675 24.9454L178.781 28.5156C178.788 28.7261 178.622 28.9019 178.411 28.9081L176.187 28.9742C175.976 28.9805 175.811 29.1563 175.817 29.3668L175.822 29.5377C175.828 29.7483 175.663 29.924 175.452 29.9303L175.344 29.9335C175.133 29.9398 174.967 30.1155 174.974 30.3261Z" fill="#73BFA1"/>
<path d="M174.974 30.3261L175.278 40.578C175.285 40.7885 175.46 40.9541 175.671 40.948L266.632 38.3066C266.843 38.3005 267.009 38.1247 267.003 37.914L266.869 33.4107C266.865 33.2904 266.765 33.1958 266.644 33.1994C266.524 33.203 266.424 33.1084 266.42 32.9881C266.417 32.8678 266.316 32.7732 266.196 32.7768L265.2 32.8063C265.08 32.8099 264.985 32.9103 264.989 33.0306C264.993 33.1509 264.898 33.2513 264.778 33.2549L264.622 33.2595C264.416 33.2656 264.254 33.4377 264.26 33.6439L264.295 34.8263C264.299 34.9637 264.191 35.0785 264.053 35.0826C263.916 35.0867 263.801 34.9785 263.797 34.8411L263.731 32.6009L263.62 28.8673C263.615 28.6954 263.471 28.5603 263.299 28.5654C263.127 28.5705 262.984 28.4353 262.979 28.2635L262.964 27.7736C262.958 27.563 262.782 27.3974 262.572 27.4037L261.965 27.4217C261.755 27.4279 261.589 27.6037 261.595 27.8142L261.61 28.3042C261.615 28.476 261.48 28.6195 261.308 28.6246C261.136 28.6297 261.001 28.7731 261.006 28.9449L261.106 32.2973C261.112 32.5079 260.946 32.6836 260.736 32.6899L259.258 32.7338C259.048 32.7401 258.872 32.5744 258.866 32.3639L258.733 27.8993C258.727 27.6888 258.551 27.5231 258.34 27.5294L257.734 27.5474C257.523 27.5537 257.347 27.3881 257.341 27.1775L257.073 18.1609C257.066 17.9104 256.823 17.735 256.583 17.8068L255.207 18.218L254.683 18.3776C254.584 18.4079 254.501 18.4773 254.454 18.5698L253.152 21.1351C253.128 21.1827 253.114 21.2349 253.111 21.2882L253.015 23.164C253.005 23.3625 252.844 23.5198 252.646 23.5257L250.827 23.5798C250.617 23.586 250.441 23.4204 250.435 23.2099L250.351 20.3888C250.348 20.2877 250.305 20.1919 250.231 20.1225L249.948 19.8562C249.875 19.7868 249.832 19.691 249.829 19.5899L249.736 16.461C249.734 16.4125 249.724 16.3647 249.704 16.3202L249.484 15.8133C249.427 15.6818 249.24 15.6825 249.184 15.8144C249.121 15.9608 248.908 15.9407 248.874 15.7852L248.767 15.2952L248.572 14.691C248.453 14.323 247.925 14.345 247.837 14.7215L247.663 15.4713C247.656 15.5005 247.646 15.5287 247.632 15.5555L247.378 16.064C247.322 16.176 247.161 16.1754 247.106 16.063C247.042 15.933 246.85 15.9581 246.822 16.1L246.753 16.4461C246.749 16.4662 246.747 16.4867 246.748 16.5072L246.842 19.6787C246.845 19.7798 246.808 19.878 246.738 19.9516L246.472 20.2342C246.403 20.3078 246.365 20.406 246.368 20.5071L246.452 23.3282C246.458 23.5388 246.293 23.7145 246.082 23.7208L244.604 23.7647C244.394 23.771 244.218 23.6053 244.212 23.3948L244.176 22.1892C244.173 22.069 244.072 21.9743 243.952 21.9779C243.832 21.9815 243.731 21.8869 243.728 21.7666L243.699 20.81C243.693 20.5994 243.517 20.4338 243.307 20.44L243.26 20.4414C243.05 20.4477 242.874 20.2821 242.868 20.0715L242.782 17.1944C242.781 17.168 242.778 17.1418 242.772 17.1161L241.645 12.4551L241.35 10.9068L241.136 9.82324C241.132 9.80262 241.129 9.78171 241.129 9.76071L241.068 7.70766C241.065 7.62175 240.993 7.55417 240.907 7.55672C240.822 7.55927 240.754 7.63099 240.756 7.71691L240.817 9.75966C240.818 9.78748 240.816 9.8153 240.811 9.84264L240.603 10.929L240.462 12.4902L239.553 17.2095C239.548 17.237 239.545 17.265 239.546 17.293L239.632 20.1677C239.638 20.3782 239.472 20.554 239.262 20.5602L239.091 20.5653C238.88 20.5716 238.715 20.7473 238.721 20.9579L238.751 21.9768C238.754 22.0627 238.686 22.1344 238.6 22.137C238.514 22.1395 238.447 22.2112 238.449 22.2971L238.487 23.5649C238.493 23.7755 238.328 23.9512 238.117 23.9575L235.893 24.0236C235.682 24.0298 235.506 23.8642 235.5 23.6537L235.31 17.2522C235.305 17.0803 235.161 16.9452 234.99 16.9503C234.818 16.9554 234.674 16.8202 234.669 16.6484L234.623 15.1006C234.617 14.8901 234.441 14.7244 234.231 14.7307L234.122 14.7339C233.911 14.7402 233.736 14.5746 233.729 14.364L233.718 13.9985C233.712 13.7923 233.54 13.6301 233.334 13.6363C233.128 13.6424 232.956 13.4802 232.95 13.274L232.944 13.0839C232.94 12.968 232.882 12.8617 232.815 12.7669C232.371 12.134 232.058 10.0506 231.951 9.00624L231.852 5.68761C231.848 5.56152 231.743 5.46234 231.617 5.46609C231.476 5.47028 231.363 5.60099 231.372 5.74186C231.399 6.17123 231.434 7.14332 231.453 9.02103C231.475 11.2493 230.984 12.4098 230.644 12.836C230.569 12.9298 230.514 13.0434 230.517 13.1634L230.525 13.4395C230.53 13.5941 230.408 13.7232 230.254 13.7278C230.099 13.7324 229.977 13.8615 229.982 14.0162L229.998 14.5372C230.004 14.7478 229.838 14.9235 229.628 14.9298L229.519 14.933C229.308 14.9393 229.143 15.115 229.149 15.3256L229.197 16.9356C229.202 17.1074 229.067 17.2509 228.895 17.256C228.723 17.2611 228.588 17.4045 228.593 17.5764L228.78 23.8534C228.786 24.0639 228.62 24.2397 228.41 24.246L226.986 24.2883C226.779 24.2944 226.604 24.1338 226.594 23.9267L225.599 4.69159C225.592 4.55032 225.507 4.4247 225.379 4.36522L224.917 4.15133C224.786 4.09059 224.701 3.961 224.696 3.8166L224.676 3.12669C224.67 2.91614 224.494 2.75052 224.283 2.75678L223.117 2.79145C222.906 2.7977 222.73 2.63209 222.724 2.42154L222.559 -3.13989C222.554 -3.29454 222.425 -3.41619 222.271 -3.41159C222.116 -3.407 221.994 -3.2779 221.999 -3.12325L222.164 2.43818C222.17 2.64873 222.005 2.82449 221.794 2.83075L221.001 2.85432C220.791 2.86058 220.625 3.03634 220.631 3.24689L220.651 3.91162C220.656 4.06885 220.563 4.21282 220.418 4.27416L219.787 4.54158C219.645 4.6019 219.553 4.74228 219.554 4.89695L219.764 24.1285C219.766 24.3363 219.602 24.5077 219.394 24.5139L217.971 24.5562C217.761 24.5624 217.585 24.3968 217.579 24.1862L217.269 13.7479C217.262 13.5373 217.087 13.3717 216.876 13.378L214.776 13.4404C214.566 13.4466 214.39 13.281 214.384 13.0705L214.337 11.4916C214.331 11.3025 214.173 11.1539 213.984 11.1595C213.795 11.1651 213.646 11.3229 213.652 11.5119L213.699 13.0908C213.705 13.3014 213.54 13.4771 213.329 13.4834L211.416 13.5402C211.205 13.5465 211.04 13.7223 211.046 13.9328L211.356 24.3712C211.362 24.5817 211.197 24.7575 210.986 24.7637L210.317 24.7836C210.107 24.7899 209.931 24.6242 209.925 24.4137L209.139 -2.01698C209.133 -2.22753 208.957 -2.39315 208.747 -2.38689L204.658 -2.26539C204.447 -2.2591 204.281 -2.08174 204.288 -1.87021L205.248 24.3828C205.258 24.6597 204.918 24.8651 204.643 24.8277C204.432 24.7989 204.081 24.6079 203.802 24.4347C203.633 24.3298 203.591 24.1069 203.7 23.9408C203.819 23.7597 203.757 23.5156 203.566 23.4137L203.278 23.2603C203.133 23.1834 202.956 23.2072 202.837 23.3196L202.809 23.3452C202.641 23.5041 202.37 23.4773 202.262 23.2726C202.172 23.1023 202.095 22.9186 202.091 22.7859C202.085 22.5795 201.821 22.338 201.622 22.1937C201.552 22.1424 201.495 22.0733 201.468 21.9903C201.354 21.6438 201.207 21.1306 201.295 21.128C201.371 21.1257 201.421 20.878 201.446 20.6693C201.46 20.5619 201.512 20.4622 201.597 20.3956L201.894 20.1636C202.069 20.0274 201.989 19.748 201.768 19.7252L201.651 19.7132C201.546 19.7022 201.48 19.5922 201.521 19.4941C201.583 19.3482 201.416 19.2126 201.285 19.302L201.113 19.4201C200.993 19.5023 200.828 19.4478 200.781 19.3104L200.757 19.2421C200.676 19.008 200.352 18.9915 200.247 19.2162L200.217 19.2823C200.141 19.4448 199.931 19.4894 199.796 19.3715L199.685 19.2741C199.524 19.1331 199.276 19.2813 199.325 19.4899C199.356 19.6256 199.255 19.7561 199.116 19.7602L199.025 19.7629C198.904 19.7665 198.794 19.6963 198.746 19.5855L198.488 18.9942C198.447 18.8998 198.447 18.7931 198.482 18.6965C198.56 18.4843 198.654 18.1866 198.649 18.0302C198.642 17.7813 198.382 17.4154 198.625 17.2213C198.85 17.0416 198.753 16.5407 199.023 16.4385C199.61 16.216 200.098 15.9679 199.521 15.949C198.524 15.9164 198.579 15.6656 197.958 15.7463C197.535 15.8014 197.697 16.2353 197.888 16.5379C197.933 16.6091 197.902 16.7065 197.822 16.732C197.72 16.7643 197.691 16.9292 197.735 17.0263C197.781 17.1281 197.802 17.264 197.759 17.4338C197.648 17.8731 197.653 18.0598 197.91 18.3013C198.166 18.5428 198.058 19.1066 198.075 19.6666C198.091 20.2267 198.159 20.4115 198.116 21.0356C198.072 21.6597 198.264 21.8409 198.33 21.9635C198.384 22.0632 198.191 22.2116 198.497 22.5879C198.638 22.7625 198.653 23.0195 198.481 23.164C196.99 24.4138 194.546 25.36 193.119 25.7971C192.883 25.8693 192.649 25.6946 192.641 25.4483L192.467 19.5841C192.462 19.4123 192.318 19.2771 192.147 19.2822C191.975 19.2874 191.831 19.1522 191.826 18.9804L191.782 17.4869C191.779 17.3838 191.693 17.3027 191.59 17.3058C191.487 17.3088 191.4 17.2278 191.397 17.1246L191.391 16.9166C191.385 16.7222 191.223 16.5693 191.029 16.5751C190.935 16.5778 190.845 16.5434 190.777 16.4794L189.174 14.9693C189.021 14.8248 188.78 14.832 188.635 14.9853L187.012 16.7072C186.943 16.7808 186.906 16.879 186.909 16.9801L186.915 17.1956C186.918 17.2987 186.837 17.3847 186.734 17.3878C186.631 17.3909 186.55 17.4769 186.553 17.58L186.597 19.0735C186.603 19.2797 186.441 19.4518 186.235 19.4579C186.029 19.4641 185.867 19.6362 185.873 19.8424L185.999 24.0738C186.005 24.28 185.843 24.4521 185.636 24.4583C185.43 24.4644 185.258 24.3022 185.252 24.096L185.217 22.9137C185.213 22.7762 185.098 22.6681 184.96 22.6722C184.823 22.6763 184.708 22.5681 184.704 22.4307L184.653 20.726C184.649 20.5875 184.569 20.4639 184.453 20.3878C184.272 20.2685 184.074 20.1013 184.07 19.9582C184.063 19.7093 183.539 18.8529 181.921 18.901C180.748 18.9359 180.29 19.597 180.176 20.0155C180.155 20.0933 180.122 20.1686 180.067 20.2272L179.777 20.5346C179.708 20.6082 179.67 20.7064 179.673 20.8075L179.729 22.6719C179.733 22.8266 179.612 22.9557 179.457 22.9603C179.302 22.9649 179.181 23.094 179.185 23.2486L179.219 24.3687C179.223 24.5234 179.102 24.6525 178.947 24.6571C178.792 24.6617 178.671 24.7907 178.675 24.9454L178.781 28.5156C178.788 28.7261 178.622 28.9019 178.411 28.9081L176.187 28.9742C175.976 28.9805 175.811 29.1563 175.817 29.3668L175.822 29.5377C175.828 29.7483 175.663 29.924 175.452 29.9303L175.344 29.9335C175.133 29.9398 174.967 30.1155 174.974 30.3261Z" stroke="#FFF4DF" stroke-width="4.39932" mask="url(#path-34-outside-1_26235_3009)"/>
<path d="M183.328 37.2489L181.44 37.305L181.23 30.2197L184.189 30.1317L186.337 36.5778L185.965 36.6658L185.769 30.0848L187.657 30.0287L187.868 37.114L184.884 37.2027L182.737 30.7807L183.133 30.692L183.328 37.2489ZM189.739 31.4091L190.588 30.5089L190.67 33.271L190.222 32.765L192.768 32.6894L192.811 34.1305L190.265 34.2061L190.682 33.6793L190.765 36.4606L189.864 35.6123L193.385 35.5077L193.428 36.9488L188.831 37.0854L188.621 30L193.218 29.8634L193.26 31.3045L189.739 31.4091ZM195.132 36.8981L193.942 29.8419L195.935 29.7826L196.752 36.5471L196.477 36.5409L197.271 29.743L199.639 29.6726L200.83 36.4115L200.556 36.4341L200.969 29.633L202.963 29.5738L202.194 36.6883L199.23 36.7764L198.398 30.9691L198.591 30.9634L198.101 36.8099L195.132 36.8981ZM211.778 29.3119L209.812 34.0339L209.884 36.4598L207.953 36.5171L207.881 34.0913L205.653 29.4939L207.704 29.4329L209.204 33.1529L208.445 33.1755L209.722 29.3729L211.778 29.3119ZM215.125 36.429C214.667 36.4427 214.229 36.3771 213.811 36.2325C213.396 36.0878 213.026 35.8648 212.7 35.5636C212.373 35.2623 212.112 34.8855 211.916 34.433C211.72 33.9804 211.613 33.4547 211.595 32.8559C211.577 32.2538 211.651 31.7228 211.817 31.2627C211.986 30.8025 212.223 30.4141 212.528 30.0973C212.836 29.7804 213.192 29.5391 213.597 29.3732C214.006 29.204 214.442 29.1125 214.907 29.0987C215.371 29.0849 215.812 29.1503 216.23 29.2949C216.648 29.4364 217.018 29.6562 217.341 29.9543C217.667 30.2523 217.927 30.626 218.119 31.0754C218.312 31.5248 218.418 32.0506 218.436 32.6526C218.453 33.2515 218.378 33.7826 218.209 34.246C218.04 34.7093 217.8 35.1011 217.489 35.4212C217.181 35.7413 216.823 35.9859 216.415 36.1551C216.009 36.3242 215.579 36.4155 215.125 36.429ZM215.08 34.9303C215.317 34.9233 215.544 34.8524 215.761 34.7177C215.981 34.5798 216.157 34.3502 216.289 34.029C216.424 33.7076 216.483 33.2684 216.466 32.7111C216.449 32.1507 216.364 31.7173 216.211 31.411C216.058 31.1014 215.869 30.8875 215.644 30.7691C215.419 30.6476 215.188 30.5904 214.951 30.5974C214.717 30.6044 214.49 30.6752 214.27 30.81C214.053 30.9414 213.877 31.1662 213.742 31.4843C213.607 31.7993 213.548 32.2369 213.565 32.7974C213.581 33.3578 213.666 33.7944 213.82 34.1071C213.973 34.4167 214.162 34.6338 214.387 34.7586C214.615 34.88 214.846 34.9373 215.08 34.9303ZM219.312 36.1796L219.101 29.0942L222.243 29.0009C223.05 28.9769 223.651 29.1385 224.046 29.4858C224.444 29.8297 224.652 30.3203 224.671 30.9576C224.682 31.3163 224.622 31.6242 224.492 31.8813C224.362 32.1383 224.196 32.3388 223.995 32.4826C223.795 32.6264 223.593 32.7093 223.392 32.7313C223.601 32.7379 223.796 32.7818 223.978 32.8629C224.16 32.9441 224.308 33.0791 224.423 33.268C224.54 33.4536 224.604 33.7081 224.614 34.0316C224.62 34.2365 224.625 34.4319 224.631 34.6176C224.636 34.8034 224.642 34.9987 224.648 35.2037C224.653 35.3734 224.671 35.5347 224.701 35.6877C224.735 35.8374 224.781 35.9466 224.841 36.0153L222.9 36.073C222.846 35.9944 222.803 35.8819 222.77 35.7355C222.74 35.5889 222.722 35.4308 222.717 35.2611C222.712 35.0849 222.707 34.9264 222.703 34.7855C222.699 34.6446 222.694 34.4861 222.689 34.3099C222.681 34.0537 222.621 33.8536 222.508 33.7095C222.394 33.5623 222.195 33.4928 221.91 33.5013L220.623 33.5396L221.11 32.9337L221.204 36.1234L219.312 36.1796ZM221.104 32.7608L220.58 32.0985L221.887 32.0597C222.05 32.0548 222.191 32.0169 222.311 31.9461C222.434 31.8751 222.527 31.7762 222.591 31.6493C222.657 31.5191 222.688 31.3691 222.683 31.1994C222.677 30.9913 222.596 30.8126 222.441 30.6633C222.289 30.514 222.085 30.4431 221.829 30.4507L220.484 30.4907L221.019 29.8978L221.104 32.7608ZM228.739 32.558L228.752 31.0767L231.73 35.8106L229.626 35.8731L227.749 32.5874L228.583 32.678L227.344 34.4793L227.462 33.269L227.541 35.9351L225.605 35.9926L225.394 28.9072L227.33 28.8497L227.435 32.3852L227.076 32.2516L229.362 28.7893L231.394 28.7289L228.739 32.558ZM240.748 32.8646C240.757 33.188 240.705 33.5165 240.59 33.8501C240.478 34.1804 240.299 34.487 240.054 34.7699C239.813 35.0527 239.501 35.2848 239.118 35.466C238.739 35.644 238.285 35.7408 237.757 35.7565C237.062 35.7771 236.461 35.6395 235.956 35.3436C235.453 35.0444 235.063 34.6233 234.784 34.0803C234.508 33.5372 234.359 32.9054 234.338 32.1849C234.316 31.4643 234.427 30.8264 234.67 30.271C234.917 29.7124 235.282 29.2705 235.766 28.9452C236.253 28.6198 236.844 28.4468 237.539 28.4261C238.115 28.409 238.61 28.4921 239.022 28.6753C239.438 28.8585 239.774 29.1049 240.03 29.4146C240.289 29.7243 240.472 30.0586 240.579 30.4176C240.65 30.6623 240.689 30.8999 240.696 31.1305L238.751 31.1883C238.748 31.0858 238.739 30.9963 238.724 30.9199C238.689 30.7126 238.621 30.5335 238.52 30.3826C238.419 30.2318 238.289 30.117 238.13 30.0384C237.974 29.9565 237.792 29.9187 237.583 29.9249C237.334 29.9323 237.11 30.0126 236.913 30.1659C236.715 30.3193 236.56 30.5562 236.448 30.8769C236.339 31.1975 236.292 31.6139 236.307 32.1263C236.323 32.6355 236.394 33.0485 236.522 33.3652C236.653 33.6818 236.822 33.9124 237.028 34.0569C237.234 34.2014 237.462 34.27 237.712 34.2625C237.892 34.2572 238.049 34.2205 238.185 34.1523C238.324 34.0809 238.44 33.9845 238.532 33.8632C238.625 33.7418 238.694 33.6019 238.741 33.4435C238.787 33.2818 238.808 33.1082 238.802 32.9224L240.748 32.8646ZM241.571 35.5181L241.36 28.4328L243.272 28.3759L243.483 35.4613L241.571 35.5181ZM249.264 29.6403L246.727 29.7156L247.576 28.8154L247.769 35.3339L245.834 35.3915L245.64 28.8729L246.54 29.7212L244.009 29.7964L243.966 28.3553L249.221 28.1992L249.264 29.6403ZM255.734 28.0056L253.768 32.7277L253.84 35.1535L251.909 35.2109L251.837 32.7851L249.609 28.1876L251.66 28.1267L253.16 31.8467L252.401 31.8692L253.678 28.0667L255.734 28.0056Z" fill="#FFF4DF"/>
</svg>
