<svg width="258" height="83" viewBox="0 0 258 83" fill="none" xmlns="http://www.w3.org/2000/svg">
<path d="M214.064 62.3634C217.329 61.1686 220 57.344 220 53.8671V30.4202C220 26.9433 217.329 23.1187 214.064 21.924L136.434 -6.517C133.169 -7.71178 127.827 -7.71178 124.562 -6.517L46.936 21.924C43.6709 23.1219 41 26.9433 41 30.4202L41 53.8671C41 57.344 43.6709 61.1686 46.936 62.3634L124.565 90.8043C127.831 91.9991 133.172 91.9991 136.437 90.8043L214.067 62.3634H214.064Z" fill="#FF6D3B"/>
<path d="M101.416 64.1192H112.606V62.3067H104.494C104.494 62.0681 104.494 62.0084 107.344 61.518C111.447 60.8155 112.235 60.1925 112.235 58.7875C112.235 57.535 110.757 56.1167 107.059 56.1167C103.361 56.1167 101.559 57.525 101.559 59.0858C101.559 59.3707 101.605 59.6358 101.665 59.7783H103.895C103.848 59.659 103.812 59.4933 103.812 59.3012C103.812 58.4529 104.813 57.8928 107.01 57.8928C109.206 57.8928 109.67 58.37 109.67 58.8836C109.67 59.4569 109.491 59.6822 105.817 60.3615C101.688 61.1237 101.416 62.0449 101.416 64.1192Z" fill="white"/>
<path d="M122.691 64.2386C126.734 64.2386 128.679 62.4492 128.679 60.1595C128.679 57.8697 126.591 56.1499 122.691 56.1499C118.791 56.1499 116.703 57.7604 116.703 60.1595C116.703 62.5586 118.648 64.2386 122.691 64.2386ZM122.691 62.426C120.438 62.426 119.278 61.5545 119.278 60.1727C119.278 58.7909 120.507 57.9658 122.691 57.9658C124.875 57.9658 126.104 58.7644 126.104 60.1727C126.104 61.581 124.948 62.426 122.691 62.426Z" fill="white"/>
<path d="M132.678 64.1192H143.868V62.3067H135.756C135.756 62.0681 135.756 62.0084 138.606 61.518C142.708 60.8155 143.497 60.1925 143.497 58.7875C143.497 57.535 142.019 56.1167 138.321 56.1167C134.623 56.1167 132.82 57.525 132.82 59.0858C132.82 59.3707 132.867 59.6358 132.926 59.7783H135.156C135.11 59.659 135.074 59.4933 135.074 59.3012C135.074 58.4529 136.074 57.8928 138.271 57.8928C140.468 57.8928 140.932 58.37 140.932 58.8836C140.932 59.4569 140.753 59.6822 137.078 60.3615C132.949 61.1237 132.678 62.0449 132.678 64.1192Z" fill="white"/>
<path d="M148.312 64.1197H159.503V62.3071H151.391C151.391 62.0686 151.391 62.0089 154.241 61.5185C158.343 60.816 159.132 60.193 159.132 58.788C159.132 57.5354 157.654 56.1172 153.956 56.1172C150.258 56.1172 148.455 57.5255 148.455 59.0862C148.455 59.3712 148.501 59.6363 148.561 59.7788H150.791C150.745 59.6595 150.708 59.4938 150.708 59.3016C150.708 58.4533 151.709 57.8933 153.906 57.8933C156.103 57.8933 156.567 58.3705 156.567 58.8841C156.567 59.4574 156.388 59.6827 152.713 60.362C148.584 61.1242 148.312 62.0454 148.312 64.1197Z" fill="white"/>
<path d="M52.58 51.0585C50.215 51.0585 48.2773 49.2622 48.2773 46.9936V37.5978C48.2773 35.3292 50.2182 33.5137 52.58 33.5137H53.2709C55.6552 33.5137 57.5992 35.3388 57.5992 37.5978V46.9936C57.5992 49.2622 55.6584 51.0585 53.2709 51.0585H52.58ZM53.2709 36.1293H52.58C51.8891 36.1293 51.3268 36.7945 51.3268 37.5978V46.9711C51.3268 47.768 51.8827 48.4396 52.58 48.4396H53.2709C53.9842 48.4396 54.5434 47.7745 54.5434 46.9711V37.5978C54.5434 36.8009 53.9874 36.1293 53.2709 36.1293Z" fill="white"/>
<path d="M64.0541 37.113H64.4975C66.3034 37.113 67.8169 38.8675 67.8169 41.0429V47.1065C67.8169 49.2851 66.3034 51.0556 64.4975 51.0556H64.0541C63.1865 51.0556 62.2932 50.5672 62.0008 50.2362L61.8465 50.8339H59.0605V33.0674H62.004V37.9324C62.2932 37.5982 63.1865 37.1098 64.0573 37.1098L64.0541 37.113ZM63.209 48.5332H63.6524C64.3433 48.5332 64.8767 47.8905 64.8767 47.1322V41.0461C64.8767 40.2685 64.3433 39.6258 63.6524 39.6258H63.209C62.5406 39.6258 62.004 40.2685 62.004 41.0461V47.1322C62.004 47.8648 62.5406 48.5332 63.209 48.5332Z" fill="white"/>
<path d="M71.9791 47.1098C71.9791 47.8874 72.5383 48.5301 73.2034 48.5301H73.6469C74.3152 48.5301 74.8711 47.8874 74.8711 47.1098V46.8206C74.8711 46.0204 74.2253 45.487 73.1102 45.3521C70.8577 45.1111 69.0486 43.5976 69.0486 41.4447V41.0687C69.0486 38.8708 70.8995 37.1099 73.1938 37.1099H73.6372C75.9315 37.1099 77.8049 38.8643 77.8049 41.0687V41.6664H74.8615V41.0687C74.8615 40.2911 74.3024 39.6484 73.6372 39.6484H73.1938C72.5254 39.6484 71.9888 40.2911 71.9888 41.0687V41.3579C71.9888 42.158 72.6154 42.6914 73.7272 42.8264C75.9797 43.1156 77.8081 44.5359 77.8081 46.737V47.113C77.8081 49.3109 75.938 51.0622 73.6404 51.0622H73.197C70.9027 51.0622 69.0293 49.3077 69.0293 47.113V46.5121H71.9727V47.113H71.9759L71.9791 47.1098Z" fill="white"/>
<path d="M83.9412 51.0585H83.4978C81.2035 51.0585 79.3301 49.304 79.3301 47.1093V41.0682C79.3301 38.8703 81.2035 37.1094 83.4978 37.1094H83.9412C86.2355 37.1094 88.1089 38.8639 88.1089 41.0682V45.3516H82.2671V47.1061C82.2671 47.8837 82.8262 48.5264 83.4913 48.5264H83.9348C84.6257 48.5264 85.1591 47.8837 85.1591 47.1061V46.5694H88.1025V47.1061C88.1025 49.304 86.2291 51.0553 83.9348 51.0553H83.9412V51.0585ZM85.1655 41.0682C85.1655 40.2906 84.6289 39.6479 83.9412 39.6479H83.4978C82.8294 39.6479 82.2735 40.2906 82.2735 41.0682V42.8227H85.1751V41.0682H85.1687H85.1655Z" fill="white"/>
<path d="M116.306 42.7782V41.0687C116.306 40.2911 115.772 39.6484 115.081 39.6484H114.879C114.211 39.6484 113.655 40.2911 113.655 41.0687V41.6471H110.711V41.0687C110.711 38.8708 112.585 37.1099 114.879 37.1099H115.081C117.356 37.1099 119.249 38.8418 119.249 40.998V47.8585C119.249 48.1477 119.452 48.3019 119.693 48.3019H120.406V50.8372C119.892 50.8822 119.4 50.8822 118.892 50.8822C118.314 50.8822 117.639 50.6637 117.263 50.0853C116.727 50.5545 116.103 51.0622 114.722 51.0622H114.278C111.984 51.0622 110.486 49.4876 110.486 47.113C110.486 43.8482 113.189 42.7139 115.165 42.7139C115.473 42.7139 116.01 42.7332 116.302 42.7814L116.309 42.775H116.306V42.7782ZM115.081 48.5333C115.772 48.5333 116.306 47.8681 116.306 47.113V45.3167C115.968 45.1818 115.506 45.14 115.216 45.14C114.281 45.14 113.433 45.8309 113.433 47.1194C113.433 47.9838 113.97 48.5397 114.638 48.5397H115.081V48.5333Z" fill="white"/>
<path d="M126.667 37.113H127.111C128.913 37.113 130.43 38.8675 130.43 41.0429V47.1065C130.43 49.2851 128.917 51.0556 127.111 51.0556H126.667C125.8 51.0556 124.906 50.5672 124.614 50.2362L124.46 50.8339H121.674V33.0674H124.617V37.9324C124.906 37.5982 125.8 37.1098 126.671 37.1098L126.667 37.113ZM125.822 48.5332H126.266C126.957 48.5332 127.49 47.8905 127.49 47.1322V41.0461C127.49 40.2685 126.957 39.6258 126.266 39.6258H125.822C125.154 39.6258 124.617 40.2685 124.617 41.0461V47.1322C124.617 47.8648 125.154 48.5332 125.822 48.5332Z" fill="white"/>
<path d="M137.578 37.3307V48.3074H140.631V50.8395H131.482V48.3074H134.638V39.866H131.515V37.3339H137.581L137.578 37.3307ZM137.803 33.9759C137.803 34.9721 137 35.7722 136 35.7722C135.001 35.7722 134.198 34.9721 134.198 33.9759C134.198 32.9798 135.001 32.1797 136 32.1797C137 32.1797 137.803 32.9798 137.803 33.9759Z" fill="white"/>
<path d="M158.931 37.3312V48.3079H161.984V50.84H152.832V48.3079H155.988V39.8665H152.864V37.3344H158.931V37.3312ZM159.156 33.9764C159.156 34.9726 158.356 35.7727 157.353 35.7727C156.351 35.7727 155.547 34.9726 155.547 33.9764C155.547 32.9803 156.347 32.1802 157.353 32.1802C158.359 32.1802 159.156 32.9803 159.156 33.9764Z" fill="white"/>
<path d="M148.183 33.0674V48.3082H151.393V50.8404H141.994V48.3082H145.233V35.5995H142.001V33.0674H148.18H148.183Z" fill="white"/>
<path d="M186.684 48.4396H187.352C188.066 48.4396 188.625 47.7745 188.625 46.9711V45.9236H191.681V46.9904C191.681 49.259 189.74 51.0553 187.352 51.0553H186.684C184.3 51.0553 182.355 49.259 182.355 46.9904V37.5785C182.355 35.3099 184.296 33.5137 186.684 33.5137H187.352C189.737 33.5137 191.681 35.3099 191.681 37.5785V38.6261H188.625V37.5785C188.625 36.7816 188.069 36.1358 187.352 36.1358H186.684C185.97 36.1358 185.411 36.7784 185.411 37.5785V46.9743C185.411 47.7713 185.97 48.4428 186.684 48.4428V48.4364V48.4396Z" fill="white"/>
<path d="M196.947 51.0585C194.582 51.0585 192.645 49.2622 192.645 46.9936V37.5978C192.645 35.3292 194.585 33.5137 196.947 33.5137H197.638C200.022 33.5137 201.966 35.3388 201.966 37.5978V46.9936C201.966 49.2622 200.026 51.0585 197.638 51.0585H196.947ZM197.638 36.1293H196.947C196.256 36.1293 195.7 36.7945 195.7 37.5978V46.9711C195.7 47.768 196.26 48.4396 196.947 48.4396H197.638C198.351 48.4396 198.911 47.7745 198.911 46.9711V37.5978C198.911 36.8009 198.351 36.1293 197.638 36.1293Z" fill="white"/>
<path d="M205.897 39.2244V50.8406H203.111V33.7393H206.636L209.981 45.3812V33.7393H212.767V50.8406H209.268L205.901 39.2244H205.897Z" fill="white"/>
<path d="M94.4922 41.2417C94.4922 39.9757 95.3822 39.8407 96.3655 39.8407C97.2363 39.8407 98.3482 39.8857 99.1933 39.9275L98.4928 37.3954C97.7505 37.3536 96.7319 37.3086 96.3655 37.3086C93.8688 37.3086 91.523 37.797 91.523 41.2385L91.5423 48.2982H89.0938V50.8303H99.1933V48.2982H94.4857V41.2385H94.4922V41.2417Z" fill="white"/>
<path d="M166.295 47.0839V39.8667H169.936L169.235 37.3346H166.295V34.3623H163.352V37.3379H160.926V39.87H163.352V47.0871C163.352 50.5511 165.273 50.9753 168.194 50.9753C169.129 50.9753 170.026 50.9078 170.537 50.8628V48.3949C169.775 48.4174 168.933 48.4399 168.194 48.4399C167.211 48.4399 166.295 48.3532 166.295 47.0839Z" fill="white"/>
<path d="M110.337 37.3311L106.636 50.8367H103.425L99.7012 37.3311H102.757L105.051 46.7718L107.326 37.3311H110.337Z" fill="white"/>
<path d="M170.326 37.3311H173.472L176.104 46.6112L178.446 37.3311H181.438L176.184 54.4806C175.557 56.6336 174.423 57.2345 172.325 57.2345H170.709V54.998H172.222C172.8 54.998 173.568 54.5706 173.771 53.793L174.79 50.2583L170.329 37.3311H170.326Z" fill="white"/>
<path fill-rule="evenodd" clip-rule="evenodd" d="M110.302 21.66C118.088 17.4142 124.082 12.6016 128.484 3.73119C128.985 2.65919 129.443 1.64562 129.845 0.733963C129.862 0.692668 129.88 0.651295 129.897 0.609841L129.9 0.611C130.414 -0.558775 130.834 -1.55398 131.128 -2.27988V-2.34892C131.133 -2.33748 131.138 -2.32596 131.142 -2.31437C131.147 -2.32619 131.152 -2.33794 131.157 -2.34961V-2.27919C131.451 -1.55351 131.871 -0.55869 132.385 0.610627L132.387 0.609841C132.399 0.637651 132.41 0.665426 132.422 0.693165C132.833 1.6253 133.303 2.66541 133.817 3.76652C138.218 12.6137 144.205 17.4191 151.98 21.6591L152.764 20.8755L154.297 22.4083L149.471 27.2344C149.576 27.3512 149.676 27.4621 149.772 27.5669H136.191L131.142 17.1287L126.095 27.5663H112.513C112.608 27.4622 112.708 27.3521 112.812 27.2363L107.984 22.4083L109.517 20.8755L110.302 21.66ZM148.036 25.603L151.129 22.5108C146.309 19.8575 142.136 16.949 138.594 12.9778C141.165 17.2946 145.269 22.3924 148.036 25.603ZM111.154 22.5117C115.976 19.8575 120.15 16.9479 123.693 12.9745C121.121 17.293 117.014 22.3938 114.247 25.6049L111.154 22.5117Z" fill="white"/>
<g opacity="0.8">
<path fill-rule="evenodd" clip-rule="evenodd" d="M117.583 5.73241L54.0665 28.2517L53.3438 26.2132L116.86 3.69385L117.583 5.73241Z" fill="#BB3C20"/>
<path fill-rule="evenodd" clip-rule="evenodd" d="M53.3374 58.2773L116.853 80.7967L117.576 78.7581L54.0601 56.2388L53.3374 58.2773Z" fill="#BB3C20"/>
<path fill-rule="evenodd" clip-rule="evenodd" d="M143.417 5.73241L206.933 28.2517L207.656 26.2132L144.14 3.69385L143.417 5.73241Z" fill="#BB3C20"/>
<path fill-rule="evenodd" clip-rule="evenodd" d="M207.659 58.2773L142.878 81.3468L142.152 79.3092L206.933 56.2397L207.659 58.2773Z" fill="#BB3C20"/>
<path d="M121.604 1.82568H120.911C120.149 1.82568 119.525 2.4493 119.525 3.21149V3.90439C119.525 4.66658 120.149 5.2902 120.911 5.2902H121.604C122.366 5.2902 122.99 4.66658 122.99 3.90439V3.21149C122.99 2.4493 122.366 1.82568 121.604 1.82568Z" fill="#BB3C20"/>
<path d="M140.085 1.82568H139.392C138.629 1.82568 138.006 2.4493 138.006 3.21149V3.90439C138.006 4.66658 138.629 5.2902 139.392 5.2902H140.085C140.847 5.2902 141.47 4.66658 141.47 3.90439V3.21149C141.47 2.4493 140.847 1.82568 140.085 1.82568Z" fill="#BB3C20"/>
<path d="M211.684 53.7939H210.991C210.229 53.7939 209.605 54.4176 209.605 55.1798V55.8727C209.605 56.6348 210.229 57.2585 210.991 57.2585H211.684C212.446 57.2585 213.07 56.6348 213.07 55.8727V55.1798C213.07 54.4176 212.446 53.7939 211.684 53.7939Z" fill="#BB3C20"/>
<path d="M50.0064 53.793H49.3135C48.5513 53.793 47.9277 54.4166 47.9277 55.1788V55.8717C47.9277 56.6339 48.5513 57.2575 49.3135 57.2575H50.0064C50.7686 57.2575 51.3922 56.6339 51.3922 55.8717V55.1788C51.3922 54.4166 50.7686 53.793 50.0064 53.793Z" fill="#BB3C20"/>
<path d="M211.684 27.2314H210.991C210.229 27.2314 209.605 27.8551 209.605 28.6173V29.3102C209.605 30.0723 210.229 30.696 210.991 30.696H211.684C212.446 30.696 213.07 30.0723 213.07 29.3102V28.6173C213.07 27.8551 212.446 27.2314 211.684 27.2314Z" fill="#BB3C20"/>
<path d="M50.0064 27.2314H49.3135C48.5513 27.2314 47.9277 27.8551 47.9277 28.6173V29.3102C47.9277 30.0723 48.5513 30.696 49.3135 30.696H50.0064C50.7686 30.696 51.3922 30.0723 51.3922 29.3102V28.6173C51.3922 27.8551 50.7686 27.2314 50.0064 27.2314Z" fill="#BB3C20"/>
<path d="M139.222 75.9558C139.184 75.6406 139.153 75.2528 139.007 74.8338C138.9 74.4147 138.72 73.9542 138.467 73.4659C138.214 72.9742 137.892 72.4824 137.497 71.9907C137.352 71.8141 137.175 71.6028 136.957 71.4297C137.245 70.3077 136.597 69.3588 136.597 69.3588C135.52 69.2896 134.8 69.6739 134.547 69.8852C134.509 69.8852 134.478 69.8506 134.401 69.8159C134.221 69.7467 134.041 69.6774 133.827 69.6082C133.612 69.5389 133.432 69.5008 133.217 69.4315C133.002 69.3969 132.784 69.3623 132.608 69.3242H132.5C132.033 67.849 130.668 67.2222 130.668 67.2222C129.159 68.171 128.875 69.4662 128.875 69.4662V69.5354C128.805 69.5701 128.695 69.5701 128.622 69.6047C128.514 69.6428 128.407 69.6739 128.262 69.712C128.154 69.7501 128.047 69.7813 127.901 69.8506C127.687 69.9579 127.434 70.0618 127.219 70.1657C127.005 70.273 126.786 70.4116 126.572 70.5501C126.534 70.5501 126.534 70.5154 126.534 70.5154C124.414 69.7432 122.544 70.6921 122.544 70.6921C122.364 72.8668 123.368 74.2693 123.587 74.5152C123.549 74.6537 123.479 74.7957 123.441 74.9342C123.296 75.4225 123.154 75.9523 123.081 76.4787C123.081 76.5479 123.043 76.6172 123.043 76.6899C121.104 77.6388 120.525 79.5642 120.525 79.5642C122.143 81.3891 124.047 81.493 124.047 81.493C124.3 81.9121 124.549 82.2999 124.871 82.6843C125.017 82.8228 125.159 82.9994 125.266 83.1414C124.691 84.7898 125.335 86.1576 125.335 86.1576C127.133 86.2269 128.317 85.3854 128.57 85.1742C128.75 85.2434 128.93 85.2815 129.11 85.3508C129.65 85.4893 130.225 85.562 130.797 85.5966H131.479C132.341 86.7879 133.813 86.9645 133.813 86.9645C134.89 85.8771 134.928 84.7898 134.928 84.5439V84.4746C135.143 84.3361 135.361 84.1595 135.575 83.9829C136.008 83.5985 136.368 83.176 136.69 82.7224C136.729 82.6878 136.76 82.6531 136.76 82.5839C137.982 82.6531 138.806 81.8497 138.806 81.8497C138.592 80.6204 137.875 80.0247 137.729 79.9209H137.691V78.5183C137.653 78.3798 137.653 78.2378 137.622 78.1305C137.477 77.6041 137.3 77.1124 137.013 76.6553C136.725 76.1982 136.403 75.8138 136.005 75.464C135.61 75.1143 135.181 74.8684 134.71 74.6606C134.242 74.4494 133.778 74.3455 133.273 74.2728C133.02 74.2381 132.805 74.2381 132.556 74.2381H132.196C132.088 74.2381 131.943 74.2728 131.835 74.2728C131.368 74.342 130.904 74.5186 130.506 74.7645C130.111 75.0104 129.751 75.2909 129.463 75.606C129.176 75.9211 128.961 76.309 128.816 76.6934C128.67 77.0778 128.601 77.4656 128.563 77.85V78.411C128.601 78.5876 128.632 78.7954 128.67 78.972C128.778 79.3218 128.958 79.6369 129.138 79.9209C129.352 80.2014 129.605 80.4126 129.855 80.5857C130.107 80.7623 130.395 80.9009 130.679 80.9701C130.963 81.0394 131.219 81.0775 131.503 81.0775H131.97C132.009 81.0775 132.04 81.0775 132.078 81.0428C132.147 81.0428 132.185 81.0082 132.258 81.0082C132.365 80.9736 132.473 80.939 132.58 80.8697C132.687 80.8351 132.76 80.7623 132.867 80.6931C132.905 80.6931 132.905 80.655 132.937 80.6238C133.044 80.5546 133.044 80.4161 132.975 80.3433C132.905 80.2741 132.795 80.236 132.722 80.3087C132.684 80.3087 132.684 80.3433 132.653 80.3433C132.583 80.378 132.507 80.4126 132.4 80.4507C132.331 80.4853 132.22 80.4853 132.147 80.5199H131.572C131.358 80.4853 131.177 80.4507 130.963 80.3433C130.748 80.2741 130.568 80.1321 130.388 79.9936C130.208 79.8551 130.066 79.6438 129.955 79.4672C129.848 79.2594 129.74 79.0482 129.702 78.8023C129.664 78.695 129.664 78.5564 129.664 78.4526V78.2759C129.664 78.2067 129.664 78.1374 129.702 78.0647C129.81 77.5383 130.062 77.0466 130.495 76.6276C130.603 76.5202 130.71 76.451 130.817 76.3471C130.925 76.2778 131.07 76.2086 131.177 76.1358C131.323 76.0666 131.465 76.0285 131.572 75.9973C131.718 75.9627 131.86 75.9281 132.005 75.9281H132.438C132.583 75.9281 132.76 75.9661 132.905 75.9973C133.228 76.0666 133.515 76.1739 133.806 76.3471C134.381 76.6622 134.848 77.1539 135.17 77.7149C135.316 77.9954 135.423 78.3106 135.492 78.6257C135.492 78.695 135.53 78.8023 135.53 78.8716V79.4326C135.53 79.5399 135.53 79.6092 135.492 79.7131C135.492 79.7823 135.454 79.8897 135.454 79.9589C135.454 80.0282 135.416 80.1356 135.385 80.2048C135.347 80.3814 135.278 80.5546 135.205 80.6966C135.059 81.0117 134.883 81.3303 134.665 81.6454C134.232 82.2064 133.657 82.6981 132.978 82.9752C132.656 83.1137 132.296 83.2211 131.936 83.2903C131.756 83.3249 131.576 83.3249 131.396 83.3596H131.143C131.181 83.3596 131.143 83.3596 131.143 83.3596H130.855C130.461 83.3215 130.062 83.2522 129.706 83.1518C129.346 83.0444 128.951 82.9059 128.629 82.7328C127.947 82.383 127.334 81.8913 126.835 81.2956C126.582 81.0151 126.367 80.7 126.225 80.3468C126.045 79.997 125.903 79.6438 125.793 79.2941C125.685 78.9443 125.612 78.5599 125.612 78.2067V77.7149C125.612 77.5383 125.651 77.3306 125.651 77.1539C125.689 76.9773 125.72 76.7661 125.758 76.5929C125.796 76.4163 125.827 76.2051 125.903 76.0319C126.011 75.6822 126.156 75.329 126.298 74.9792C126.62 74.3143 127.015 73.7187 127.521 73.2616C127.628 73.1542 127.773 73.0157 127.915 72.9118C128.061 72.8045 128.203 72.704 128.348 72.6313C128.494 72.524 128.636 72.4547 128.781 72.3854L128.996 72.2781C129.034 72.2781 129.065 72.2435 129.103 72.2435C129.141 72.2435 129.172 72.2088 129.21 72.2088C129.356 72.1396 129.533 72.1015 129.678 72.0322C129.716 72.0322 129.747 71.9976 129.785 71.9976C129.823 71.9976 129.855 71.963 129.893 71.963C129.962 71.9283 130.073 71.9283 130.146 71.8937C130.184 71.8937 130.215 71.8591 130.291 71.8591C130.329 71.8591 130.36 71.8591 130.436 71.8244C130.474 71.8244 130.506 71.8244 130.582 71.7864H130.727C130.765 71.7864 130.797 71.7864 130.873 71.7517C130.911 71.7517 130.98 71.7517 131.018 71.7171H131.628C131.628 71.7171 131.666 71.7171 131.628 71.7171H132.275C132.597 71.7171 132.923 71.7517 133.245 71.8244C133.854 71.9318 134.429 72.1396 134.969 72.3854C135.51 72.6313 135.977 72.9464 136.372 73.2962L136.441 73.3655L136.51 73.4347C136.549 73.4694 136.618 73.504 136.656 73.5732C136.694 73.6113 136.763 73.6425 136.801 73.7118C136.839 73.781 136.909 73.8191 136.947 73.8503C137.127 74.0269 137.269 74.2 137.414 74.4113C137.702 74.761 137.954 75.1454 138.131 75.4986C138.131 75.5333 138.169 75.5333 138.169 75.5679C138.169 75.6025 138.207 75.6025 138.207 75.6372C138.245 75.6718 138.245 75.7064 138.277 75.7757C138.315 75.8103 138.315 75.8449 138.346 75.9142C138.384 75.9523 138.384 75.9835 138.415 76.0527C138.484 76.2293 138.56 76.3679 138.595 76.5098C138.664 76.7557 138.741 76.9669 138.775 77.1436C138.813 77.2128 138.883 77.2821 138.955 77.2509C139.025 77.2509 139.101 77.1816 139.101 77.1124C139.246 76.4475 139.246 76.2016 139.208 75.9558V75.9869L139.222 75.9558Z" fill="#BB3C20"/>
</g>
<mask id="path-34-outside-1_26131_3437" maskUnits="userSpaceOnUse" x="-1.17177" y="-22.9962" width="94.3253" height="48.7422" fill="black">
<rect fill="white" x="-1.17177" y="-22.9962" width="94.3253" height="48.7422"/>
<path d="M2.82866 13.3868L3.11829 23.1333C3.12424 23.3334 3.29118 23.4908 3.49126 23.485L89.9685 20.9739C90.1688 20.9681 90.3264 20.8009 90.3204 20.6007L90.1932 16.3194C90.1898 16.205 90.0944 16.115 89.98 16.1184C89.8656 16.1218 89.7702 16.0319 89.7668 15.9175C89.7634 15.8032 89.6679 15.7132 89.5536 15.7166L88.607 15.7448C88.4927 15.7482 88.4027 15.8436 88.4061 15.958C88.4095 16.0723 88.3196 16.1678 88.2052 16.1712L88.0573 16.1756C87.8613 16.1814 87.7071 16.3451 87.7129 16.5411L87.7463 17.6651C87.7502 17.7958 87.6474 17.9049 87.5167 17.9088C87.386 17.9127 87.2769 17.8099 87.2731 17.6792L87.2098 15.5494L87.1043 11.9999C87.0994 11.8365 86.9631 11.708 86.7997 11.7129C86.6363 11.7178 86.5 11.5893 86.4951 11.4259L86.4813 10.9601C86.4753 10.7599 86.3082 10.6025 86.1081 10.6084L85.5314 10.6256C85.3313 10.6315 85.1738 10.7986 85.1798 10.9988L85.1936 11.4646C85.1985 11.6279 85.07 11.7643 84.9066 11.7692C84.7432 11.774 84.6147 11.9104 84.6196 12.0737L84.7143 15.2608C84.7203 15.461 84.5628 15.6281 84.3626 15.6341L82.9578 15.6758C82.7576 15.6818 82.5905 15.5243 82.5846 15.3241L82.4585 11.0797C82.4525 10.8795 82.2854 10.722 82.0852 10.728L81.5086 10.7451C81.3085 10.7511 81.1414 10.5936 81.1354 10.3935L80.8807 1.82137C80.8736 1.58323 80.6427 1.41651 80.4144 1.48471L79.106 1.87562L78.6082 2.0274C78.5138 2.05617 78.4352 2.12216 78.3906 2.21013L77.1529 4.64897C77.1299 4.69424 77.1167 4.74382 77.1141 4.79452L77.0227 6.57783C77.013 6.76648 76.8602 6.91611 76.6713 6.92172L74.9425 6.97309C74.7423 6.97904 74.5752 6.82159 74.5693 6.62142L74.4896 3.9394C74.4867 3.84328 74.4458 3.75222 74.3758 3.68627L74.1071 3.43307C74.0371 3.36712 73.9962 3.27606 73.9933 3.17994L73.9049 0.20528C73.9036 0.159169 73.8934 0.113745 73.875 0.0714434L73.6654 -0.410523C73.6111 -0.535507 73.4336 -0.534841 73.3802 -0.409452C73.3209 -0.270289 73.1179 -0.289393 73.0856 -0.437169L72.9838 -0.903013L72.7984 -1.4775C72.6854 -1.82731 72.1836 -1.80642 72.1002 -1.44844L71.934 -0.735607C71.9275 -0.707894 71.9178 -0.681036 71.9051 -0.655589L71.663 -0.172122C71.6097 -0.0656578 71.4575 -0.0662578 71.4051 -0.173141C71.3444 -0.296673 71.1616 -0.272846 71.1347 -0.137896L71.069 0.191092C71.0652 0.210213 71.0635 0.229704 71.0641 0.249194L71.1537 3.26432C71.1566 3.36045 71.1211 3.45377 71.0552 3.52376L70.802 3.79248C70.736 3.86247 70.7006 3.95579 70.7034 4.05192L70.7831 6.73393C70.7891 6.9341 70.6316 7.1012 70.4314 7.10715L69.0266 7.1489C68.8264 7.15484 68.6593 6.99739 68.6534 6.79722L68.6193 5.65111C68.6159 5.53675 68.5205 5.44681 68.4061 5.45021C68.2918 5.45361 68.1963 5.36366 68.1929 5.2493L68.1659 4.33983C68.1599 4.13965 67.9929 3.98221 67.7927 3.98815L67.7485 3.98947C67.5483 3.99542 67.3812 3.83797 67.3753 3.63779L67.294 0.902548C67.2932 0.877458 67.2899 0.852511 67.284 0.828112L66.2127 -3.60315L65.9321 -5.07509L65.7288 -6.10524C65.725 -6.12483 65.7227 -6.14471 65.7221 -6.16468L65.6641 -8.11651C65.6617 -8.19819 65.5935 -8.26244 65.5118 -8.26001C65.4301 -8.25758 65.3659 -8.1894 65.3683 -8.10772L65.426 -6.16568C65.4268 -6.13923 65.4247 -6.11278 65.4197 -6.08679L65.2222 -5.054L65.0887 -3.56975L64.2242 0.916892C64.2191 0.943036 64.217 0.969656 64.2178 0.996268L64.299 3.72921C64.305 3.92938 64.1475 4.09648 63.9473 4.10243L63.7848 4.10726C63.5847 4.1132 63.4272 4.2803 63.4332 4.48047L63.462 5.44911C63.4644 5.53079 63.4001 5.59897 63.3184 5.6014C63.2368 5.60382 63.1725 5.67201 63.1749 5.75369L63.2108 6.95896C63.2167 7.15913 63.0593 7.32623 62.8591 7.33218L60.7443 7.39502C60.5442 7.40097 60.3771 7.24352 60.3711 7.04335L60.1903 0.957454C60.1854 0.794091 60.0491 0.665597 59.8857 0.670452C59.7223 0.675307 59.586 0.54681 59.5811 0.383447L59.5374 -1.08804C59.5314 -1.28821 59.3643 -1.44566 59.1642 -1.43971L59.0608 -1.43664C58.8607 -1.43069 58.6936 -1.58814 58.6876 -1.78832L58.6773 -2.13578C58.6715 -2.33182 58.5078 -2.48601 58.3118 -2.48019C58.1157 -2.47436 57.9521 -2.62853 57.9463 -2.82457L57.9409 -3.00537C57.9376 -3.11547 57.882 -3.21659 57.8187 -3.30674C57.3961 -3.90844 57.0987 -5.88904 56.9967 -6.88195L56.903 -10.037C56.8994 -10.1568 56.7994 -10.2511 56.6795 -10.2476C56.5454 -10.2436 56.438 -10.1193 56.4464 -9.9854C56.472 -9.57719 56.5054 -8.65303 56.5235 -6.86789C56.5449 -4.7495 56.0775 -3.64615 55.7542 -3.241C55.683 -3.1518 55.6305 -3.04384 55.6339 -2.92976L55.6417 -2.66729C55.6461 -2.52026 55.5304 -2.39753 55.3834 -2.39316C55.2364 -2.38879 55.1207 -2.26606 55.1251 -2.11904L55.1398 -1.62368C55.1458 -1.4235 54.9883 -1.25641 54.7882 -1.25046L54.6848 -1.24739C54.4846 -1.24144 54.3272 -1.07435 54.3331 -0.874175L54.3786 0.656472C54.3835 0.819835 54.255 0.956202 54.0916 0.961057C53.9283 0.965911 53.7998 1.10228 53.8046 1.26564L53.982 7.23321C53.9879 7.43339 53.8305 7.60048 53.6303 7.60643L52.2767 7.64665C52.0797 7.65251 51.914 7.49982 51.9038 7.30293L50.9585 -10.9839C50.9516 -11.1182 50.8709 -11.2376 50.7489 -11.2942L50.31 -11.4975C50.1854 -11.5553 50.1041 -11.6785 50.1 -11.8157L50.0806 -12.4716C50.0746 -12.6718 49.9075 -12.8293 49.7073 -12.8233L48.5983 -12.7903C48.3981 -12.7844 48.231 -12.9418 48.2251 -13.142L48.068 -18.4293C48.0636 -18.5763 47.9409 -18.6919 47.7938 -18.6876C47.6468 -18.6832 47.5312 -18.5605 47.5355 -18.4134L47.6927 -13.1262C47.6986 -12.926 47.5412 -12.7589 47.341 -12.753L46.5869 -12.7306C46.3867 -12.7246 46.2293 -12.5575 46.2352 -12.3574L46.254 -11.7254C46.2584 -11.5759 46.1707 -11.4391 46.033 -11.3807L45.4326 -11.1265C45.2972 -11.0692 45.2099 -10.9357 45.2115 -10.7887L45.4108 7.49474C45.4129 7.69233 45.2565 7.85527 45.059 7.86114L43.7065 7.90133C43.5064 7.90728 43.3393 7.74983 43.3333 7.54966L43.0384 -2.37408C43.0325 -2.57425 42.8654 -2.7317 42.6652 -2.72575L40.6688 -2.66643C40.4686 -2.66048 40.3015 -2.81793 40.2956 -3.0181L40.251 -4.51916C40.2456 -4.69886 40.0956 -4.84021 39.9159 -4.83487C39.7362 -4.82953 39.5949 -4.67952 39.6002 -4.49982L39.6448 -2.99876C39.6508 -2.79859 39.4933 -2.63149 39.2932 -2.62555L37.4742 -2.57149C37.274 -2.56554 37.1166 -2.39845 37.1225 -2.19828L37.4174 7.72546C37.4234 7.92563 37.2659 8.09273 37.0658 8.09868L36.43 8.11757C36.2298 8.12352 36.0627 7.96607 36.0568 7.76589L35.3101 -17.3617C35.3041 -17.5619 35.137 -17.7193 34.9368 -17.7134L31.0498 -17.5979C30.8487 -17.5919 30.6909 -17.4233 30.6982 -17.2222L31.6107 7.7365C31.6203 7.99977 31.2965 8.19503 31.0355 8.15945C30.8348 8.1321 30.5006 7.95052 30.2358 7.78589C30.0754 7.68617 30.0353 7.4742 30.139 7.31633C30.2521 7.14416 30.1928 6.91207 30.011 6.81523L29.7372 6.6694C29.5998 6.59623 29.4311 6.61888 29.3179 6.7257L29.292 6.75007C29.1319 6.90118 28.8742 6.87568 28.7713 6.68104C28.6856 6.51914 28.6131 6.34453 28.6094 6.21837C28.6035 6.02215 28.3524 5.7925 28.1636 5.65533C28.0965 5.60656 28.0426 5.54084 28.0167 5.46201C27.9085 5.13259 27.7685 4.64465 27.852 4.64217C27.9249 4.64001 27.9721 4.40456 27.9963 4.20607C28.0088 4.10398 28.0582 4.00918 28.1393 3.94593L28.4221 3.72533C28.5881 3.59587 28.5117 3.33018 28.3024 3.30857L28.1912 3.2971C28.0905 3.28672 28.0285 3.18214 28.0676 3.08884C28.1257 2.95017 27.9673 2.82117 27.8433 2.9062L27.6796 3.01847C27.5656 3.0966 27.4086 3.0448 27.3634 2.91422L27.341 2.84926C27.2641 2.62671 26.9554 2.61105 26.8564 2.82468L26.8273 2.88749C26.7557 3.04199 26.5558 3.0844 26.4276 2.9723L26.3218 2.87971C26.1685 2.74565 25.9333 2.8865 25.9792 3.08488C26.009 3.21389 25.9133 3.33792 25.781 3.34186L25.6944 3.34443C25.5796 3.34784 25.4743 3.28103 25.4285 3.17573L25.1841 2.61358C25.1451 2.52385 25.1444 2.42239 25.1782 2.33054C25.2522 2.12882 25.3412 1.84584 25.3368 1.69714C25.3298 1.4605 25.0826 1.11258 25.314 0.928072C25.5282 0.757219 25.436 0.281026 25.6922 0.183886C26.2503 -0.0276726 26.7147 -0.263528 26.1662 -0.281479C25.2179 -0.312509 25.27 -0.550903 24.6802 -0.474164C24.2775 -0.421774 24.4317 -0.0093355 24.6133 0.278414C24.6559 0.346071 24.6264 0.438711 24.5502 0.462962C24.4537 0.493665 24.4258 0.650421 24.4675 0.742717C24.5113 0.839482 24.532 0.968691 24.491 1.13016C24.385 1.54779 24.3903 1.72527 24.6339 1.95487C24.8776 2.18448 24.7751 2.72042 24.7909 3.25285C24.8068 3.78529 24.8712 3.96101 24.8296 4.55435C24.788 5.1477 24.9708 5.31991 25.0335 5.43647C25.0845 5.53133 24.9015 5.67237 25.1919 6.03007C25.3268 6.19611 25.3411 6.44044 25.1772 6.57783C23.7598 7.76601 21.4364 8.66552 20.0795 9.08109C19.8555 9.14971 19.6322 8.98369 19.6253 8.74948L19.4596 3.17444C19.4547 3.01108 19.3184 2.88258 19.155 2.88744C18.9916 2.89229 18.8553 2.76379 18.8504 2.60043L18.8082 1.18062C18.8053 1.0826 18.7235 1.0055 18.6255 1.00841C18.5275 1.01132 18.4456 0.934226 18.4427 0.836208L18.4369 0.638431C18.4314 0.453607 18.2771 0.308231 18.0923 0.313723C18.0035 0.316361 17.9173 0.283631 17.8527 0.222736L16.3291 -1.21292C16.1834 -1.35026 15.9539 -1.34344 15.8165 -1.19769L14.274 0.439362C14.208 0.509354 14.1726 0.602676 14.1754 0.698802L14.1815 0.903628C14.1844 1.00165 14.1073 1.08347 14.0093 1.08638C13.9113 1.08929 13.8342 1.17111 13.8371 1.26913L13.8793 2.68895C13.8851 2.88498 13.7309 3.04862 13.5349 3.05445C13.3389 3.06027 13.1847 3.22392 13.1905 3.41995L13.31 7.44277C13.3159 7.6388 13.1617 7.80244 12.9656 7.80827C12.7696 7.81409 12.606 7.6599 12.6001 7.46386L12.5667 6.33984C12.5628 6.20915 12.4538 6.10636 12.3231 6.11024C12.1924 6.11412 12.0833 6.01132 12.0794 5.88063L12.0312 4.25997C12.0273 4.12834 11.9512 4.01081 11.8411 3.93846C11.6687 3.82507 11.4807 3.66606 11.4766 3.53009C11.4696 3.29346 10.9717 2.4793 9.43359 2.525C8.31878 2.55813 7.88263 3.1867 7.77475 3.58453C7.7547 3.65849 7.72308 3.73005 7.67052 3.78582L7.39518 4.07803C7.32923 4.14802 7.29378 4.24135 7.29664 4.33747L7.34931 6.11001C7.35368 6.25704 7.23803 6.37977 7.09101 6.38414C6.94398 6.38851 6.82833 6.51124 6.8327 6.65827L6.86435 7.72313C6.86872 7.87016 6.75307 7.99289 6.60604 7.99726C6.45902 8.00163 6.34337 8.12436 6.34774 8.27139L6.4486 11.6655C6.45455 11.8657 6.2971 12.0328 6.09693 12.0388L3.98218 12.1016C3.78201 12.1075 3.62456 12.2746 3.63051 12.4748L3.63534 12.6373C3.64129 12.8375 3.48384 13.0046 3.28367 13.0105L3.18033 13.0136C2.98016 13.0195 2.82271 13.1866 2.82866 13.3868Z"/>
</mask>
<path d="M2.82866 13.3868L3.11829 23.1333C3.12424 23.3334 3.29118 23.4908 3.49126 23.485L89.9685 20.9739C90.1688 20.9681 90.3264 20.8009 90.3204 20.6007L90.1932 16.3194C90.1898 16.205 90.0944 16.115 89.98 16.1184C89.8656 16.1218 89.7702 16.0319 89.7668 15.9175C89.7634 15.8032 89.6679 15.7132 89.5536 15.7166L88.607 15.7448C88.4927 15.7482 88.4027 15.8436 88.4061 15.958C88.4095 16.0723 88.3196 16.1678 88.2052 16.1712L88.0573 16.1756C87.8613 16.1814 87.7071 16.3451 87.7129 16.5411L87.7463 17.6651C87.7502 17.7958 87.6474 17.9049 87.5167 17.9088C87.386 17.9127 87.2769 17.8099 87.2731 17.6792L87.2098 15.5494L87.1043 11.9999C87.0994 11.8365 86.9631 11.708 86.7997 11.7129C86.6363 11.7178 86.5 11.5893 86.4951 11.4259L86.4813 10.9601C86.4753 10.7599 86.3082 10.6025 86.1081 10.6084L85.5314 10.6256C85.3313 10.6315 85.1738 10.7986 85.1798 10.9988L85.1936 11.4646C85.1985 11.6279 85.07 11.7643 84.9066 11.7692C84.7432 11.774 84.6147 11.9104 84.6196 12.0737L84.7143 15.2608C84.7203 15.461 84.5628 15.6281 84.3626 15.6341L82.9578 15.6758C82.7576 15.6818 82.5905 15.5243 82.5846 15.3241L82.4585 11.0797C82.4525 10.8795 82.2854 10.722 82.0852 10.728L81.5086 10.7451C81.3085 10.7511 81.1414 10.5936 81.1354 10.3935L80.8807 1.82137C80.8736 1.58323 80.6427 1.41651 80.4144 1.48471L79.106 1.87562L78.6082 2.0274C78.5138 2.05617 78.4352 2.12216 78.3906 2.21013L77.1529 4.64897C77.1299 4.69424 77.1167 4.74382 77.1141 4.79452L77.0227 6.57783C77.013 6.76648 76.8602 6.91611 76.6713 6.92172L74.9425 6.97309C74.7423 6.97904 74.5752 6.82159 74.5693 6.62142L74.4896 3.9394C74.4867 3.84328 74.4458 3.75222 74.3758 3.68627L74.1071 3.43307C74.0371 3.36712 73.9962 3.27606 73.9933 3.17994L73.9049 0.20528C73.9036 0.159169 73.8934 0.113745 73.875 0.0714434L73.6654 -0.410523C73.6111 -0.535507 73.4336 -0.534841 73.3802 -0.409452C73.3209 -0.270289 73.1179 -0.289393 73.0856 -0.437169L72.9838 -0.903013L72.7984 -1.4775C72.6854 -1.82731 72.1836 -1.80642 72.1002 -1.44844L71.934 -0.735607C71.9275 -0.707894 71.9178 -0.681036 71.9051 -0.655589L71.663 -0.172122C71.6097 -0.0656578 71.4575 -0.0662578 71.4051 -0.173141C71.3444 -0.296673 71.1616 -0.272846 71.1347 -0.137896L71.069 0.191092C71.0652 0.210213 71.0635 0.229704 71.0641 0.249194L71.1537 3.26432C71.1566 3.36045 71.1211 3.45377 71.0552 3.52376L70.802 3.79248C70.736 3.86247 70.7006 3.95579 70.7034 4.05192L70.7831 6.73393C70.7891 6.9341 70.6316 7.1012 70.4314 7.10715L69.0266 7.1489C68.8264 7.15484 68.6593 6.99739 68.6534 6.79722L68.6193 5.65111C68.6159 5.53675 68.5205 5.44681 68.4061 5.45021C68.2918 5.45361 68.1963 5.36366 68.1929 5.2493L68.1659 4.33983C68.1599 4.13965 67.9929 3.98221 67.7927 3.98815L67.7485 3.98947C67.5483 3.99542 67.3812 3.83797 67.3753 3.63779L67.294 0.902548C67.2932 0.877458 67.2899 0.852511 67.284 0.828112L66.2127 -3.60315L65.9321 -5.07509L65.7288 -6.10524C65.725 -6.12483 65.7227 -6.14471 65.7221 -6.16468L65.6641 -8.11651C65.6617 -8.19819 65.5935 -8.26244 65.5118 -8.26001C65.4301 -8.25758 65.3659 -8.1894 65.3683 -8.10772L65.426 -6.16568C65.4268 -6.13923 65.4247 -6.11278 65.4197 -6.08679L65.2222 -5.054L65.0887 -3.56975L64.2242 0.916892C64.2191 0.943036 64.217 0.969656 64.2178 0.996268L64.299 3.72921C64.305 3.92938 64.1475 4.09648 63.9473 4.10243L63.7848 4.10726C63.5847 4.1132 63.4272 4.2803 63.4332 4.48047L63.462 5.44911C63.4644 5.53079 63.4001 5.59897 63.3184 5.6014C63.2368 5.60382 63.1725 5.67201 63.1749 5.75369L63.2108 6.95896C63.2167 7.15913 63.0593 7.32623 62.8591 7.33218L60.7443 7.39502C60.5442 7.40097 60.3771 7.24352 60.3711 7.04335L60.1903 0.957454C60.1854 0.794091 60.0491 0.665597 59.8857 0.670452C59.7223 0.675307 59.586 0.54681 59.5811 0.383447L59.5374 -1.08804C59.5314 -1.28821 59.3643 -1.44566 59.1642 -1.43971L59.0608 -1.43664C58.8607 -1.43069 58.6936 -1.58814 58.6876 -1.78832L58.6773 -2.13578C58.6715 -2.33182 58.5078 -2.48601 58.3118 -2.48019C58.1157 -2.47436 57.9521 -2.62853 57.9463 -2.82457L57.9409 -3.00537C57.9376 -3.11547 57.882 -3.21659 57.8187 -3.30674C57.3961 -3.90844 57.0987 -5.88904 56.9967 -6.88195L56.903 -10.037C56.8994 -10.1568 56.7994 -10.2511 56.6795 -10.2476C56.5454 -10.2436 56.438 -10.1193 56.4464 -9.9854C56.472 -9.57719 56.5054 -8.65303 56.5235 -6.86789C56.5449 -4.7495 56.0775 -3.64615 55.7542 -3.241C55.683 -3.1518 55.6305 -3.04384 55.6339 -2.92976L55.6417 -2.66729C55.6461 -2.52026 55.5304 -2.39753 55.3834 -2.39316C55.2364 -2.38879 55.1207 -2.26606 55.1251 -2.11904L55.1398 -1.62368C55.1458 -1.4235 54.9883 -1.25641 54.7882 -1.25046L54.6848 -1.24739C54.4846 -1.24144 54.3272 -1.07435 54.3331 -0.874175L54.3786 0.656472C54.3835 0.819835 54.255 0.956202 54.0916 0.961057C53.9283 0.965911 53.7998 1.10228 53.8046 1.26564L53.982 7.23321C53.9879 7.43339 53.8305 7.60048 53.6303 7.60643L52.2767 7.64665C52.0797 7.65251 51.914 7.49982 51.9038 7.30293L50.9585 -10.9839C50.9516 -11.1182 50.8709 -11.2376 50.7489 -11.2942L50.31 -11.4975C50.1854 -11.5553 50.1041 -11.6785 50.1 -11.8157L50.0806 -12.4716C50.0746 -12.6718 49.9075 -12.8293 49.7073 -12.8233L48.5983 -12.7903C48.3981 -12.7844 48.231 -12.9418 48.2251 -13.142L48.068 -18.4293C48.0636 -18.5763 47.9409 -18.6919 47.7938 -18.6876C47.6468 -18.6832 47.5312 -18.5605 47.5355 -18.4134L47.6927 -13.1262C47.6986 -12.926 47.5412 -12.7589 47.341 -12.753L46.5869 -12.7306C46.3867 -12.7246 46.2293 -12.5575 46.2352 -12.3574L46.254 -11.7254C46.2584 -11.5759 46.1707 -11.4391 46.033 -11.3807L45.4326 -11.1265C45.2972 -11.0692 45.2099 -10.9357 45.2115 -10.7887L45.4108 7.49474C45.4129 7.69233 45.2565 7.85527 45.059 7.86114L43.7065 7.90133C43.5064 7.90728 43.3393 7.74983 43.3333 7.54966L43.0384 -2.37408C43.0325 -2.57425 42.8654 -2.7317 42.6652 -2.72575L40.6688 -2.66643C40.4686 -2.66048 40.3015 -2.81793 40.2956 -3.0181L40.251 -4.51916C40.2456 -4.69886 40.0956 -4.84021 39.9159 -4.83487C39.7362 -4.82953 39.5949 -4.67952 39.6002 -4.49982L39.6448 -2.99876C39.6508 -2.79859 39.4933 -2.63149 39.2932 -2.62555L37.4742 -2.57149C37.274 -2.56554 37.1166 -2.39845 37.1225 -2.19828L37.4174 7.72546C37.4234 7.92563 37.2659 8.09273 37.0658 8.09868L36.43 8.11757C36.2298 8.12352 36.0627 7.96607 36.0568 7.76589L35.3101 -17.3617C35.3041 -17.5619 35.137 -17.7193 34.9368 -17.7134L31.0498 -17.5979C30.8487 -17.5919 30.6909 -17.4233 30.6982 -17.2222L31.6107 7.7365C31.6203 7.99977 31.2965 8.19503 31.0355 8.15945C30.8348 8.1321 30.5006 7.95052 30.2358 7.78589C30.0754 7.68617 30.0353 7.4742 30.139 7.31633C30.2521 7.14416 30.1928 6.91207 30.011 6.81523L29.7372 6.6694C29.5998 6.59623 29.4311 6.61888 29.3179 6.7257L29.292 6.75007C29.1319 6.90118 28.8742 6.87568 28.7713 6.68104C28.6856 6.51914 28.6131 6.34453 28.6094 6.21837C28.6035 6.02215 28.3524 5.7925 28.1636 5.65533C28.0965 5.60656 28.0426 5.54084 28.0167 5.46201C27.9085 5.13259 27.7685 4.64465 27.852 4.64217C27.9249 4.64001 27.9721 4.40456 27.9963 4.20607C28.0088 4.10398 28.0582 4.00918 28.1393 3.94593L28.4221 3.72533C28.5881 3.59587 28.5117 3.33018 28.3024 3.30857L28.1912 3.2971C28.0905 3.28672 28.0285 3.18214 28.0676 3.08884C28.1257 2.95017 27.9673 2.82117 27.8433 2.9062L27.6796 3.01847C27.5656 3.0966 27.4086 3.0448 27.3634 2.91422L27.341 2.84926C27.2641 2.62671 26.9554 2.61105 26.8564 2.82468L26.8273 2.88749C26.7557 3.04199 26.5558 3.0844 26.4276 2.9723L26.3218 2.87971C26.1685 2.74565 25.9333 2.8865 25.9792 3.08488C26.009 3.21389 25.9133 3.33792 25.781 3.34186L25.6944 3.34443C25.5796 3.34784 25.4743 3.28103 25.4285 3.17573L25.1841 2.61358C25.1451 2.52385 25.1444 2.42239 25.1782 2.33054C25.2522 2.12882 25.3412 1.84584 25.3368 1.69714C25.3298 1.4605 25.0826 1.11258 25.314 0.928072C25.5282 0.757219 25.436 0.281026 25.6922 0.183886C26.2503 -0.0276726 26.7147 -0.263528 26.1662 -0.281479C25.2179 -0.312509 25.27 -0.550903 24.6802 -0.474164C24.2775 -0.421774 24.4317 -0.0093355 24.6133 0.278414C24.6559 0.346071 24.6264 0.438711 24.5502 0.462962C24.4537 0.493665 24.4258 0.650421 24.4675 0.742717C24.5113 0.839482 24.532 0.968691 24.491 1.13016C24.385 1.54779 24.3903 1.72527 24.6339 1.95487C24.8776 2.18448 24.7751 2.72042 24.7909 3.25285C24.8068 3.78529 24.8712 3.96101 24.8296 4.55435C24.788 5.1477 24.9708 5.31991 25.0335 5.43647C25.0845 5.53133 24.9015 5.67237 25.1919 6.03007C25.3268 6.19611 25.3411 6.44044 25.1772 6.57783C23.7598 7.76601 21.4364 8.66552 20.0795 9.08109C19.8555 9.14971 19.6322 8.98369 19.6253 8.74948L19.4596 3.17444C19.4547 3.01108 19.3184 2.88258 19.155 2.88744C18.9916 2.89229 18.8553 2.76379 18.8504 2.60043L18.8082 1.18062C18.8053 1.0826 18.7235 1.0055 18.6255 1.00841C18.5275 1.01132 18.4456 0.934226 18.4427 0.836208L18.4369 0.638431C18.4314 0.453607 18.2771 0.308231 18.0923 0.313723C18.0035 0.316361 17.9173 0.283631 17.8527 0.222736L16.3291 -1.21292C16.1834 -1.35026 15.9539 -1.34344 15.8165 -1.19769L14.274 0.439362C14.208 0.509354 14.1726 0.602676 14.1754 0.698802L14.1815 0.903628C14.1844 1.00165 14.1073 1.08347 14.0093 1.08638C13.9113 1.08929 13.8342 1.17111 13.8371 1.26913L13.8793 2.68895C13.8851 2.88498 13.7309 3.04862 13.5349 3.05445C13.3389 3.06027 13.1847 3.22392 13.1905 3.41995L13.31 7.44277C13.3159 7.6388 13.1617 7.80244 12.9656 7.80827C12.7696 7.81409 12.606 7.6599 12.6001 7.46386L12.5667 6.33984C12.5628 6.20915 12.4538 6.10636 12.3231 6.11024C12.1924 6.11412 12.0833 6.01132 12.0794 5.88063L12.0312 4.25997C12.0273 4.12834 11.9512 4.01081 11.8411 3.93846C11.6687 3.82507 11.4807 3.66606 11.4766 3.53009C11.4696 3.29346 10.9717 2.4793 9.43359 2.525C8.31878 2.55813 7.88263 3.1867 7.77475 3.58453C7.7547 3.65849 7.72308 3.73005 7.67052 3.78582L7.39518 4.07803C7.32923 4.14802 7.29378 4.24135 7.29664 4.33747L7.34931 6.11001C7.35368 6.25704 7.23803 6.37977 7.09101 6.38414C6.94398 6.38851 6.82833 6.51124 6.8327 6.65827L6.86435 7.72313C6.86872 7.87016 6.75307 7.99289 6.60604 7.99726C6.45902 8.00163 6.34337 8.12436 6.34774 8.27139L6.4486 11.6655C6.45455 11.8657 6.2971 12.0328 6.09693 12.0388L3.98218 12.1016C3.78201 12.1075 3.62456 12.2746 3.63051 12.4748L3.63534 12.6373C3.64129 12.8375 3.48384 13.0046 3.28367 13.0105L3.18033 13.0136C2.98016 13.0195 2.82271 13.1866 2.82866 13.3868Z" fill="#73BFA1"/>
<path d="M2.82866 13.3868L3.11829 23.1333C3.12424 23.3334 3.29118 23.4908 3.49126 23.485L89.9685 20.9739C90.1688 20.9681 90.3264 20.8009 90.3204 20.6007L90.1932 16.3194C90.1898 16.205 90.0944 16.115 89.98 16.1184C89.8656 16.1218 89.7702 16.0319 89.7668 15.9175C89.7634 15.8032 89.6679 15.7132 89.5536 15.7166L88.607 15.7448C88.4927 15.7482 88.4027 15.8436 88.4061 15.958C88.4095 16.0723 88.3196 16.1678 88.2052 16.1712L88.0573 16.1756C87.8613 16.1814 87.7071 16.3451 87.7129 16.5411L87.7463 17.6651C87.7502 17.7958 87.6474 17.9049 87.5167 17.9088C87.386 17.9127 87.2769 17.8099 87.2731 17.6792L87.2098 15.5494L87.1043 11.9999C87.0994 11.8365 86.9631 11.708 86.7997 11.7129C86.6363 11.7178 86.5 11.5893 86.4951 11.4259L86.4813 10.9601C86.4753 10.7599 86.3082 10.6025 86.1081 10.6084L85.5314 10.6256C85.3313 10.6315 85.1738 10.7986 85.1798 10.9988L85.1936 11.4646C85.1985 11.6279 85.07 11.7643 84.9066 11.7692C84.7432 11.774 84.6147 11.9104 84.6196 12.0737L84.7143 15.2608C84.7203 15.461 84.5628 15.6281 84.3626 15.6341L82.9578 15.6758C82.7576 15.6818 82.5905 15.5243 82.5846 15.3241L82.4585 11.0797C82.4525 10.8795 82.2854 10.722 82.0852 10.728L81.5086 10.7451C81.3085 10.7511 81.1414 10.5936 81.1354 10.3935L80.8807 1.82137C80.8736 1.58323 80.6427 1.41651 80.4144 1.48471L79.106 1.87562L78.6082 2.0274C78.5138 2.05617 78.4352 2.12216 78.3906 2.21013L77.1529 4.64897C77.1299 4.69424 77.1167 4.74382 77.1141 4.79452L77.0227 6.57783C77.013 6.76648 76.8602 6.91611 76.6713 6.92172L74.9425 6.97309C74.7423 6.97904 74.5752 6.82159 74.5693 6.62142L74.4896 3.9394C74.4867 3.84328 74.4458 3.75222 74.3758 3.68627L74.1071 3.43307C74.0371 3.36712 73.9962 3.27606 73.9933 3.17994L73.9049 0.20528C73.9036 0.159169 73.8934 0.113745 73.875 0.0714434L73.6654 -0.410523C73.6111 -0.535507 73.4336 -0.534841 73.3802 -0.409452C73.3209 -0.270289 73.1179 -0.289393 73.0856 -0.437169L72.9838 -0.903013L72.7984 -1.4775C72.6854 -1.82731 72.1836 -1.80642 72.1002 -1.44844L71.934 -0.735607C71.9275 -0.707894 71.9178 -0.681036 71.9051 -0.655589L71.663 -0.172122C71.6097 -0.0656578 71.4575 -0.0662578 71.4051 -0.173141C71.3444 -0.296673 71.1616 -0.272846 71.1347 -0.137896L71.069 0.191092C71.0652 0.210213 71.0635 0.229704 71.0641 0.249194L71.1537 3.26432C71.1566 3.36045 71.1211 3.45377 71.0552 3.52376L70.802 3.79248C70.736 3.86247 70.7006 3.95579 70.7034 4.05192L70.7831 6.73393C70.7891 6.9341 70.6316 7.1012 70.4314 7.10715L69.0266 7.1489C68.8264 7.15484 68.6593 6.99739 68.6534 6.79722L68.6193 5.65111C68.6159 5.53675 68.5205 5.44681 68.4061 5.45021C68.2918 5.45361 68.1963 5.36366 68.1929 5.2493L68.1659 4.33983C68.1599 4.13965 67.9929 3.98221 67.7927 3.98815L67.7485 3.98947C67.5483 3.99542 67.3812 3.83797 67.3753 3.63779L67.294 0.902548C67.2932 0.877458 67.2899 0.852511 67.284 0.828112L66.2127 -3.60315L65.9321 -5.07509L65.7288 -6.10524C65.725 -6.12483 65.7227 -6.14471 65.7221 -6.16468L65.6641 -8.11651C65.6617 -8.19819 65.5935 -8.26244 65.5118 -8.26001C65.4301 -8.25758 65.3659 -8.1894 65.3683 -8.10772L65.426 -6.16568C65.4268 -6.13923 65.4247 -6.11278 65.4197 -6.08679L65.2222 -5.054L65.0887 -3.56975L64.2242 0.916892C64.2191 0.943036 64.217 0.969656 64.2178 0.996268L64.299 3.72921C64.305 3.92938 64.1475 4.09648 63.9473 4.10243L63.7848 4.10726C63.5847 4.1132 63.4272 4.2803 63.4332 4.48047L63.462 5.44911C63.4644 5.53079 63.4001 5.59897 63.3184 5.6014C63.2368 5.60382 63.1725 5.67201 63.1749 5.75369L63.2108 6.95896C63.2167 7.15913 63.0593 7.32623 62.8591 7.33218L60.7443 7.39502C60.5442 7.40097 60.3771 7.24352 60.3711 7.04335L60.1903 0.957454C60.1854 0.794091 60.0491 0.665597 59.8857 0.670452C59.7223 0.675307 59.586 0.54681 59.5811 0.383447L59.5374 -1.08804C59.5314 -1.28821 59.3643 -1.44566 59.1642 -1.43971L59.0608 -1.43664C58.8607 -1.43069 58.6936 -1.58814 58.6876 -1.78832L58.6773 -2.13578C58.6715 -2.33182 58.5078 -2.48601 58.3118 -2.48019C58.1157 -2.47436 57.9521 -2.62853 57.9463 -2.82457L57.9409 -3.00537C57.9376 -3.11547 57.882 -3.21659 57.8187 -3.30674C57.3961 -3.90844 57.0987 -5.88904 56.9967 -6.88195L56.903 -10.037C56.8994 -10.1568 56.7994 -10.2511 56.6795 -10.2476C56.5454 -10.2436 56.438 -10.1193 56.4464 -9.9854C56.472 -9.57719 56.5054 -8.65303 56.5235 -6.86789C56.5449 -4.7495 56.0775 -3.64615 55.7542 -3.241C55.683 -3.1518 55.6305 -3.04384 55.6339 -2.92976L55.6417 -2.66729C55.6461 -2.52026 55.5304 -2.39753 55.3834 -2.39316C55.2364 -2.38879 55.1207 -2.26606 55.1251 -2.11904L55.1398 -1.62368C55.1458 -1.4235 54.9883 -1.25641 54.7882 -1.25046L54.6848 -1.24739C54.4846 -1.24144 54.3272 -1.07435 54.3331 -0.874175L54.3786 0.656472C54.3835 0.819835 54.255 0.956202 54.0916 0.961057C53.9283 0.965911 53.7998 1.10228 53.8046 1.26564L53.982 7.23321C53.9879 7.43339 53.8305 7.60048 53.6303 7.60643L52.2767 7.64665C52.0797 7.65251 51.914 7.49982 51.9038 7.30293L50.9585 -10.9839C50.9516 -11.1182 50.8709 -11.2376 50.7489 -11.2942L50.31 -11.4975C50.1854 -11.5553 50.1041 -11.6785 50.1 -11.8157L50.0806 -12.4716C50.0746 -12.6718 49.9075 -12.8293 49.7073 -12.8233L48.5983 -12.7903C48.3981 -12.7844 48.231 -12.9418 48.2251 -13.142L48.068 -18.4293C48.0636 -18.5763 47.9409 -18.6919 47.7938 -18.6876C47.6468 -18.6832 47.5312 -18.5605 47.5355 -18.4134L47.6927 -13.1262C47.6986 -12.926 47.5412 -12.7589 47.341 -12.753L46.5869 -12.7306C46.3867 -12.7246 46.2293 -12.5575 46.2352 -12.3574L46.254 -11.7254C46.2584 -11.5759 46.1707 -11.4391 46.033 -11.3807L45.4326 -11.1265C45.2972 -11.0692 45.2099 -10.9357 45.2115 -10.7887L45.4108 7.49474C45.4129 7.69233 45.2565 7.85527 45.059 7.86114L43.7065 7.90133C43.5064 7.90728 43.3393 7.74983 43.3333 7.54966L43.0384 -2.37408C43.0325 -2.57425 42.8654 -2.7317 42.6652 -2.72575L40.6688 -2.66643C40.4686 -2.66048 40.3015 -2.81793 40.2956 -3.0181L40.251 -4.51916C40.2456 -4.69886 40.0956 -4.84021 39.9159 -4.83487C39.7362 -4.82953 39.5949 -4.67952 39.6002 -4.49982L39.6448 -2.99876C39.6508 -2.79859 39.4933 -2.63149 39.2932 -2.62555L37.4742 -2.57149C37.274 -2.56554 37.1166 -2.39845 37.1225 -2.19828L37.4174 7.72546C37.4234 7.92563 37.2659 8.09273 37.0658 8.09868L36.43 8.11757C36.2298 8.12352 36.0627 7.96607 36.0568 7.76589L35.3101 -17.3617C35.3041 -17.5619 35.137 -17.7193 34.9368 -17.7134L31.0498 -17.5979C30.8487 -17.5919 30.6909 -17.4233 30.6982 -17.2222L31.6107 7.7365C31.6203 7.99977 31.2965 8.19503 31.0355 8.15945C30.8348 8.1321 30.5006 7.95052 30.2358 7.78589C30.0754 7.68617 30.0353 7.4742 30.139 7.31633C30.2521 7.14416 30.1928 6.91207 30.011 6.81523L29.7372 6.6694C29.5998 6.59623 29.4311 6.61888 29.3179 6.7257L29.292 6.75007C29.1319 6.90118 28.8742 6.87568 28.7713 6.68104C28.6856 6.51914 28.6131 6.34453 28.6094 6.21837C28.6035 6.02215 28.3524 5.7925 28.1636 5.65533C28.0965 5.60656 28.0426 5.54084 28.0167 5.46201C27.9085 5.13259 27.7685 4.64465 27.852 4.64217C27.9249 4.64001 27.9721 4.40456 27.9963 4.20607C28.0088 4.10398 28.0582 4.00918 28.1393 3.94593L28.4221 3.72533C28.5881 3.59587 28.5117 3.33018 28.3024 3.30857L28.1912 3.2971C28.0905 3.28672 28.0285 3.18214 28.0676 3.08884C28.1257 2.95017 27.9673 2.82117 27.8433 2.9062L27.6796 3.01847C27.5656 3.0966 27.4086 3.0448 27.3634 2.91422L27.341 2.84926C27.2641 2.62671 26.9554 2.61105 26.8564 2.82468L26.8273 2.88749C26.7557 3.04199 26.5558 3.0844 26.4276 2.9723L26.3218 2.87971C26.1685 2.74565 25.9333 2.8865 25.9792 3.08488C26.009 3.21389 25.9133 3.33792 25.781 3.34186L25.6944 3.34443C25.5796 3.34784 25.4743 3.28103 25.4285 3.17573L25.1841 2.61358C25.1451 2.52385 25.1444 2.42239 25.1782 2.33054C25.2522 2.12882 25.3412 1.84584 25.3368 1.69714C25.3298 1.4605 25.0826 1.11258 25.314 0.928072C25.5282 0.757219 25.436 0.281026 25.6922 0.183886C26.2503 -0.0276726 26.7147 -0.263528 26.1662 -0.281479C25.2179 -0.312509 25.27 -0.550903 24.6802 -0.474164C24.2775 -0.421774 24.4317 -0.0093355 24.6133 0.278414C24.6559 0.346071 24.6264 0.438711 24.5502 0.462962C24.4537 0.493665 24.4258 0.650421 24.4675 0.742717C24.5113 0.839482 24.532 0.968691 24.491 1.13016C24.385 1.54779 24.3903 1.72527 24.6339 1.95487C24.8776 2.18448 24.7751 2.72042 24.7909 3.25285C24.8068 3.78529 24.8712 3.96101 24.8296 4.55435C24.788 5.1477 24.9708 5.31991 25.0335 5.43647C25.0845 5.53133 24.9015 5.67237 25.1919 6.03007C25.3268 6.19611 25.3411 6.44044 25.1772 6.57783C23.7598 7.76601 21.4364 8.66552 20.0795 9.08109C19.8555 9.14971 19.6322 8.98369 19.6253 8.74948L19.4596 3.17444C19.4547 3.01108 19.3184 2.88258 19.155 2.88744C18.9916 2.89229 18.8553 2.76379 18.8504 2.60043L18.8082 1.18062C18.8053 1.0826 18.7235 1.0055 18.6255 1.00841C18.5275 1.01132 18.4456 0.934226 18.4427 0.836208L18.4369 0.638431C18.4314 0.453607 18.2771 0.308231 18.0923 0.313723C18.0035 0.316361 17.9173 0.283631 17.8527 0.222736L16.3291 -1.21292C16.1834 -1.35026 15.9539 -1.34344 15.8165 -1.19769L14.274 0.439362C14.208 0.509354 14.1726 0.602676 14.1754 0.698802L14.1815 0.903628C14.1844 1.00165 14.1073 1.08347 14.0093 1.08638C13.9113 1.08929 13.8342 1.17111 13.8371 1.26913L13.8793 2.68895C13.8851 2.88498 13.7309 3.04862 13.5349 3.05445C13.3389 3.06027 13.1847 3.22392 13.1905 3.41995L13.31 7.44277C13.3159 7.6388 13.1617 7.80244 12.9656 7.80827C12.7696 7.81409 12.606 7.6599 12.6001 7.46386L12.5667 6.33984C12.5628 6.20915 12.4538 6.10636 12.3231 6.11024C12.1924 6.11412 12.0833 6.01132 12.0794 5.88063L12.0312 4.25997C12.0273 4.12834 11.9512 4.01081 11.8411 3.93846C11.6687 3.82507 11.4807 3.66606 11.4766 3.53009C11.4696 3.29346 10.9717 2.4793 9.43359 2.525C8.31878 2.55813 7.88263 3.1867 7.77475 3.58453C7.7547 3.65849 7.72308 3.73005 7.67052 3.78582L7.39518 4.07803C7.32923 4.14802 7.29378 4.24135 7.29664 4.33747L7.34931 6.11001C7.35368 6.25704 7.23803 6.37977 7.09101 6.38414C6.94398 6.38851 6.82833 6.51124 6.8327 6.65827L6.86435 7.72313C6.86872 7.87016 6.75307 7.99289 6.60604 7.99726C6.45902 8.00163 6.34337 8.12436 6.34774 8.27139L6.4486 11.6655C6.45455 11.8657 6.2971 12.0328 6.09693 12.0388L3.98218 12.1016C3.78201 12.1075 3.62456 12.2746 3.63051 12.4748L3.63534 12.6373C3.64129 12.8375 3.48384 13.0046 3.28367 13.0105L3.18033 13.0136C2.98016 13.0195 2.82271 13.1866 2.82866 13.3868Z" stroke="#FFF4DF" stroke-width="4.18243" mask="url(#path-34-outside-1_26131_3437)"/>
<path d="M10.7832 20.4121L8.98844 20.4655L8.78826 13.7294L11.6014 13.6458L13.6439 19.7741L13.2898 19.8577L13.1039 13.6012L14.8987 13.5478L15.0988 20.2839L12.2628 20.3682L10.2211 14.2628L10.5979 14.1784L10.7832 20.4121ZM16.8784 14.8603L17.6849 14.0044L17.7629 16.6303L17.3372 16.1493L19.7577 16.0774L19.7984 17.4474L17.378 17.5194L17.7745 17.0185L17.853 19.6627L16.9972 18.8562L20.3447 18.7567L20.3854 20.1268L16.0149 20.2567L15.8147 13.5206L20.1852 13.3907L20.2259 14.7608L16.8784 14.8603ZM22.0054 20.0786L20.8736 13.3703L22.7688 13.314L23.545 19.7449L23.2843 19.739L24.0384 13.2762L26.2898 13.2093L27.4218 19.616L27.1619 19.6374L27.5548 13.1717L29.4501 13.1154L28.7186 19.8792L25.9009 19.9629L25.1106 14.4419L25.2933 14.4365L24.8277 19.9948L22.0054 20.0786ZM37.8304 12.8664L35.9618 17.3556L36.0303 19.6619L34.1944 19.7164L34.1259 17.4102L32.0077 13.0394L33.9577 12.9815L35.3838 16.5181L34.6622 16.5395L35.8758 12.9245L37.8304 12.8664ZM41.012 19.6327C40.5766 19.6456 40.1604 19.5833 39.7632 19.4458C39.3691 19.3082 39.0169 19.0962 38.7067 18.8099C38.3965 18.5235 38.1482 18.1652 37.9617 17.735C37.7752 17.3048 37.6735 16.805 37.6566 16.2357C37.6396 15.6633 37.7099 15.1584 37.8676 14.721C38.0283 14.2835 38.2535 13.9142 38.5431 13.6131C38.8359 13.3119 39.1749 13.0824 39.5603 12.9247C39.9486 12.7638 40.3635 12.6768 40.8049 12.6637C41.2464 12.6506 41.6657 12.7128 42.0629 12.8503C42.46 12.9848 42.812 13.1937 43.1191 13.4771C43.4292 13.7604 43.6759 14.1157 43.8592 14.543C44.0426 14.9702 44.1428 15.4701 44.1598 16.0424C44.1767 16.6118 44.1048 17.1167 43.9442 17.5572C43.7836 17.9977 43.5555 18.3702 43.2598 18.6746C42.9672 18.9788 42.6267 19.2114 42.2384 19.3723C41.8531 19.533 41.4443 19.6198 41.012 19.6327ZM40.9697 18.2078C41.195 18.2011 41.4108 18.1338 41.6173 18.0057C41.8267 17.8746 41.9939 17.6563 42.1189 17.3509C42.247 17.0454 42.3031 16.6278 42.2874 16.0981C42.2715 15.5653 42.1907 15.1532 42.045 14.862C41.8991 14.5677 41.7193 14.3643 41.5057 14.2518C41.292 14.1363 41.0726 14.0819 40.8473 14.0886C40.625 14.0952 40.4091 14.1625 40.1996 14.2906C39.9931 14.4156 39.8257 14.6293 39.6976 14.9318C39.5694 15.2311 39.5132 15.6472 39.529 16.18C39.5448 16.7128 39.6257 17.1279 39.7717 17.4252C39.9176 17.7195 40.0974 17.926 40.3112 18.0446C40.5279 18.16 40.7474 18.2144 40.9697 18.2078ZM44.9928 19.3955L44.7926 12.6595L47.7793 12.5707C48.5466 12.5479 49.1179 12.7016 49.4934 13.0317C49.8718 13.3587 50.0701 13.8251 50.0881 14.431C50.0982 14.772 50.0414 15.0647 49.9176 15.3091C49.7938 15.5535 49.6365 15.7441 49.4455 15.8808C49.2546 16.0175 49.0634 16.0963 48.872 16.1172C49.0703 16.1235 49.2559 16.1652 49.4288 16.2424C49.6018 16.3195 49.7427 16.4479 49.8517 16.6275C49.9636 16.8039 50.0241 17.0459 50.0332 17.3534C50.039 17.5483 50.0445 17.734 50.0498 17.9106C50.055 18.0871 50.0605 18.2729 50.0663 18.4677C50.0711 18.6291 50.0879 18.7825 50.1166 18.9279C50.1482 19.0702 50.1924 19.174 50.2492 19.2393L48.4042 19.2942C48.3533 19.2195 48.312 19.1125 48.2804 18.9733C48.2519 18.834 48.2353 18.6836 48.2305 18.5223C48.2255 18.3548 48.221 18.2041 48.217 18.0702C48.213 17.9362 48.2086 17.7855 48.2036 17.618C48.1963 17.3745 48.1389 17.1842 48.0312 17.0472C47.9234 16.9072 47.7341 16.8412 47.4631 16.8493L46.2392 16.8857L46.702 16.3097L46.7921 19.3421L44.9928 19.3955ZM46.6971 16.1453L46.1985 15.5156L47.4407 15.4787C47.5959 15.4741 47.7305 15.4381 47.8443 15.3707C47.9611 15.3033 48.0497 15.2092 48.1101 15.0886C48.1735 14.9648 48.2028 14.8222 48.198 14.6609C48.1921 14.463 48.1154 14.2931 47.968 14.1512C47.8236 14.0092 47.6296 13.9418 47.3861 13.9491L46.1074 13.9871L46.6163 13.4235L46.6971 16.1453ZM53.9549 15.9525L53.9679 14.5443L56.7984 19.0447L54.7981 19.1041L53.0141 15.9804L53.8074 16.0665L52.6287 17.7791L52.7408 16.6285L52.8161 19.163L50.9757 19.2177L50.7755 12.4817L52.616 12.427L52.7158 15.7882L52.3738 15.6612L54.5477 12.3696L56.4795 12.3122L53.9549 15.9525ZM65.372 16.244C65.3812 16.5515 65.331 16.8638 65.2216 17.1809C65.1151 17.4949 64.9455 17.7863 64.7128 18.0553C64.4831 18.3242 64.1865 18.5448 63.8229 18.7171C63.4622 18.8863 63.0307 18.9783 62.5284 18.9933C61.8677 19.0129 61.297 18.8821 60.8164 18.6008C60.3386 18.3163 59.9672 17.916 59.7019 17.3998C59.4398 16.8834 59.2985 16.2827 59.2782 15.5977C59.2578 14.9127 59.3632 14.3062 59.5943 13.7783C59.8284 13.2472 60.1755 12.827 60.6356 12.5178C61.0987 12.2084 61.6606 12.0439 62.3213 12.0243C62.8693 12.008 63.3394 12.087 63.7316 12.2612C64.1268 12.4353 64.4461 12.6696 64.6895 12.9641C64.9359 13.2584 65.1099 13.5763 65.2115 13.9176C65.2793 14.1502 65.3165 14.3761 65.323 14.5953L63.4735 14.6503C63.4706 14.5529 63.4619 14.4678 63.4476 14.3951C63.4143 14.198 63.3498 14.0278 63.2542 13.8843C63.1585 13.7409 63.0349 13.6318 62.8833 13.5571C62.7348 13.4793 62.5615 13.4433 62.3636 13.4491C62.1261 13.4562 61.9136 13.5326 61.7259 13.6784C61.5383 13.8241 61.3911 14.0494 61.2844 14.3543C61.1807 14.659 61.1361 15.055 61.1505 15.5421C61.1649 16.0262 61.233 16.4188 61.3547 16.7199C61.4794 17.0209 61.6398 17.2401 61.8359 17.3775C62.0319 17.5149 62.2487 17.58 62.4862 17.573C62.6567 17.5679 62.8065 17.533 62.9356 17.4682C63.0676 17.4003 63.1777 17.3087 63.2656 17.1933C63.3536 17.0779 63.4198 16.9449 63.464 16.7943C63.5082 16.6406 63.5277 16.4755 63.5225 16.2989L65.372 16.244ZM66.1543 18.7667L65.9542 12.0306L67.7717 11.9766L67.9719 18.7127L66.1543 18.7667ZM73.4681 13.1786L71.0568 13.2502L71.8633 12.3944L72.0475 18.5915L70.207 18.6462L70.0229 12.4491L70.8787 13.2555L68.472 13.327L68.4313 11.957L73.4274 11.8085L73.4681 13.1786ZM79.6193 11.6245L77.7507 16.1138L77.8192 18.42L75.9833 18.4746L75.9148 16.1683L73.7966 11.7976L75.7466 11.7396L77.1727 15.2762L76.4511 15.2977L77.6647 11.6826L79.6193 11.6245Z" fill="#FFF4DF"/>
<rect x="216.05" y="47.0433" width="41.4086" height="34.5921" rx="3.74029" transform="rotate(6.62342 216.05 47.0433)" fill="#FFF4DF" stroke="#FFF4DF" stroke-width="1.87377"/>
<path d="M227.018 68.3225L225.901 77.9443L223.894 77.7114L224.792 69.9787C224.731 70.0156 224.603 70.058 224.408 70.1058C224.218 70.1497 223.991 70.1872 223.728 70.2183C223.465 70.2493 223.195 70.2598 222.919 70.2498L223.103 68.6602C223.381 68.6573 223.655 68.6297 223.925 68.5774C224.196 68.5208 224.431 68.4491 224.63 68.3622C224.834 68.2758 224.972 68.1862 225.044 68.0933L227.018 68.3225ZM229.386 75.2393L229.529 74.0016L234.852 74.6196L234.708 75.8573L229.386 75.2393ZM237.021 79.2356L237.213 77.5809C237.263 77.4899 237.395 77.3621 237.607 77.1976C237.821 77.0287 238.078 76.8407 238.379 76.6336C238.681 76.4265 238.995 76.2166 239.324 76.0038C239.657 75.7872 239.964 75.5874 240.245 75.4043C240.578 75.1878 240.904 74.9615 241.222 74.7255C241.54 74.4852 241.81 74.2238 242.033 73.9415C242.259 73.6554 242.393 73.3429 242.432 73.0042C242.481 72.5786 242.419 72.2258 242.244 71.9458C242.074 71.6664 241.77 71.5012 241.331 71.4503C240.98 71.4094 240.691 71.4551 240.464 71.5872C240.242 71.7155 240.072 71.9136 239.953 72.1815C239.834 72.445 239.753 72.7613 239.71 73.1305L237.691 72.896C237.773 72.1924 237.976 71.5998 238.3 71.1181C238.629 70.6369 239.065 70.2892 239.61 70.0751C240.159 69.8572 240.804 69.7914 241.547 69.8776C242.268 69.9613 242.854 70.1636 243.305 70.4845C243.761 70.8059 244.084 71.2066 244.275 71.6865C244.466 72.1664 244.528 72.6908 244.462 73.2597C244.418 73.6419 244.302 73.9916 244.116 74.3089C243.934 74.6223 243.71 74.9065 243.442 75.1616C243.179 75.4172 242.902 75.6468 242.61 75.8506C242.318 76.05 242.044 76.2295 241.788 76.389C241.356 76.6558 240.981 76.8917 240.663 77.0968C240.344 77.3019 240.088 77.4768 239.895 77.6217C239.707 77.767 239.588 77.8809 239.539 77.9632L243.799 78.4579L243.62 80.0018L237.021 79.2356Z" fill="#73BFA1"/>
<path d="M216.548 50.8667C216.726 49.3288 218.118 48.2268 219.656 48.4054L253.357 52.3188C254.895 52.4973 255.997 53.8889 255.819 55.4268L254.566 66.2173L215.295 61.6572L216.548 50.8667Z" fill="#73BFA1"/>
<path d="M225.836 60.7178L224.43 60.5545L225.225 53.7088L227.462 53.9686L229.02 60.5607L228.771 60.593L229.513 54.2068L230.915 54.3695L230.12 61.2152L227.869 60.9538L226.308 54.3803L226.575 54.3501L225.836 60.7178ZM235.531 61.9564C235.104 61.9069 234.714 61.7832 234.36 61.5853C234.007 61.3875 233.707 61.1222 233.46 60.7894C233.214 60.4566 233.035 60.0611 232.926 59.6031C232.816 59.1419 232.794 58.6267 232.86 58.0574C232.927 57.485 233.064 56.9898 233.273 56.5719C233.485 56.1512 233.749 55.8087 234.065 55.5443C234.381 55.28 234.733 55.0936 235.122 54.9851C235.511 54.8766 235.921 54.8473 236.351 54.8973C236.778 54.9468 237.168 55.069 237.522 55.2637C237.878 55.4588 238.18 55.7212 238.427 56.0509C238.675 56.3807 238.851 56.7744 238.958 57.2321C239.065 57.6866 239.086 58.2001 239.019 58.7726C238.953 59.3419 238.814 59.8384 238.602 60.2622C238.393 60.6832 238.129 61.0273 237.809 61.2944C237.493 61.5618 237.138 61.7511 236.746 61.8624C236.357 61.9739 235.952 62.0053 235.531 61.9564ZM235.665 60.8008C235.953 60.8342 236.228 60.7862 236.491 60.6568C236.757 60.5277 236.984 60.297 237.173 59.9646C237.363 59.6291 237.491 59.1752 237.557 58.6028C237.624 58.0273 237.602 57.5575 237.49 57.1933C237.382 56.8295 237.215 56.5576 236.988 56.3777C236.761 56.1946 236.504 56.0863 236.216 56.0529C235.929 56.0195 235.652 56.0658 235.387 56.1917C235.125 56.315 234.899 56.5412 234.71 56.8705C234.522 57.1998 234.394 57.6522 234.327 58.2277C234.26 58.8032 234.281 59.2744 234.389 59.6413C234.497 60.0082 234.664 60.2847 234.89 60.4709C235.119 60.6574 235.377 60.7674 235.665 60.8008ZM242.021 62.6113L241.123 55.5549L242.715 55.7398L243.229 61.8484L243.164 61.8409L245.054 56.0114L246.651 56.1968L244.174 62.8613L242.021 62.6113Z" fill="#FFF4DF"/>
</svg>
