<svg width="52" height="47" viewBox="0 0 52 47" fill="none" xmlns="http://www.w3.org/2000/svg">
<rect x="2.47571" y="7.70672" width="43.556" height="36.386" rx="3.93425" transform="rotate(-5.8598 2.47571 7.70672)" fill="#FFF4DF" stroke="#FFF4DF" stroke-width="1.97094"/>
<path d="M18.3392 26.4654L19.3794 36.6009L17.2658 36.8179L16.4299 28.6724C16.3751 28.7243 16.2531 28.7969 16.0639 28.8903C15.8788 28.9786 15.6546 29.0686 15.3912 29.1604C15.1279 29.2521 14.8533 29.3242 14.5674 29.3767L14.3956 27.7023C14.68 27.6361 14.955 27.5455 15.2206 27.4304C15.4857 27.3107 15.7107 27.1836 15.8957 27.0491C16.0853 26.914 16.2067 26.7906 16.2599 26.6788L18.3392 26.4654ZM22.3433 33.0306L22.2095 31.7268L27.8159 31.1514L27.9497 32.4552L22.3433 33.0306ZM31.093 35.3988L30.9141 33.6558C30.945 33.5509 31.0509 33.3898 31.232 33.1724C31.4127 32.9504 31.6342 32.6989 31.8966 32.4177C32.159 32.1365 32.4346 31.8493 32.7235 31.5561C33.0165 31.2579 33.2865 30.9829 33.5334 30.731C33.8264 30.4328 34.1093 30.1264 34.3821 29.8118C34.6545 29.4926 34.8726 29.1628 35.0364 28.8223C35.2044 28.4769 35.2701 28.1257 35.2335 27.7689C35.1874 27.3205 35.0431 26.9725 34.8004 26.7246C34.5622 26.4763 34.2121 26.3758 33.7501 26.4233C33.3795 26.4613 33.0929 26.5739 32.8902 26.7612C32.6916 26.9433 32.5616 27.1855 32.5001 27.4877C32.4382 27.7853 32.4272 28.1285 32.4671 28.5174L30.3398 28.7357C30.2638 27.9946 30.3376 27.3398 30.5612 26.7713C30.7895 26.2024 31.1587 25.7461 31.669 25.4025C32.1833 25.0538 32.8316 24.8394 33.6139 24.7591C34.3734 24.6811 35.0213 24.7556 35.5577 24.9826C36.0987 25.2091 36.5218 25.5471 36.8268 25.9965C37.1318 26.446 37.3151 26.9704 37.3766 27.5697C37.4179 27.9723 37.3789 28.3577 37.2595 28.7259C37.1442 29.0891 36.9783 29.4321 36.7618 29.7548C36.5498 30.077 36.317 30.376 36.0633 30.6517C35.8091 30.9228 35.5686 31.1694 35.3417 31.3914C34.9592 31.7636 34.6276 32.0912 34.3469 32.3742C34.0662 32.6573 33.8433 32.8951 33.6782 33.0878C33.5176 33.2799 33.4214 33.4239 33.3896 33.5196L37.8775 33.059L38.0444 34.6853L31.093 35.3988Z" fill="#73BFA1"/>
<path d="M3.85379 11.5203C3.68752 9.90023 4.86605 8.45213 6.48611 8.28586L41.9871 4.64236C43.6072 4.4761 45.0553 5.65463 45.2215 7.27468L46.3881 18.6413L5.02035 22.8869L3.85379 11.5203Z" fill="#73BFA1"/>
<path d="M15.5956 20.1175L14.1142 20.2696L13.3741 13.0584L15.7306 12.8165L18.8297 19.2323L18.582 19.3219L17.8915 12.5947L19.368 12.4432L20.1081 19.6544L17.737 19.8978L14.6399 13.5015L14.9072 13.4099L15.5956 20.1175ZM25.8339 19.1853C25.3841 19.2315 24.9553 19.1932 24.5474 19.0703C24.1396 18.9475 23.7712 18.7433 23.4421 18.4575C23.1131 18.1718 22.8401 17.8063 22.6231 17.3608C22.4058 16.9121 22.2663 16.3879 22.2048 15.7882C22.1429 15.1853 22.1715 14.6455 22.2905 14.1688C22.4125 13.6886 22.6058 13.2769 22.8702 12.9335C23.1347 12.5902 23.4543 12.3186 23.8291 12.1188C24.2038 11.9189 24.6177 11.7957 25.0707 11.7492C25.5205 11.7031 25.9491 11.7398 26.3566 11.8593C26.7674 11.9786 27.1372 12.1794 27.4659 12.4619C27.7946 12.7443 28.0658 13.1084 28.2795 13.5542C28.4929 13.9967 28.6305 14.5194 28.6924 15.1224C28.754 15.7221 28.7239 16.2637 28.6023 16.7472C28.4835 17.2271 28.2905 17.6405 28.0231 17.9874C27.7589 18.334 27.438 18.609 27.0604 18.8124C26.686 19.0155 26.2771 19.1398 25.8339 19.1853ZM25.7089 17.968C26.0121 17.9369 26.2838 17.825 26.5243 17.6324C26.7679 17.4394 26.9491 17.1507 27.0678 16.7663C27.1861 16.3787 27.2143 15.8834 27.1524 15.2805C27.0902 14.6742 26.9605 14.1968 26.7633 13.8481C26.5694 13.4991 26.3355 13.258 26.0616 13.1247C25.7874 12.9882 25.4988 12.9355 25.1956 12.9666C24.8925 12.9977 24.619 13.1081 24.3749 13.2978C24.1339 13.484 23.9538 13.7676 23.8348 14.1487C23.7158 14.5298 23.6875 15.0234 23.7497 15.6297C23.8119 16.2359 23.9401 16.7151 24.1344 17.0674C24.3286 17.4196 24.563 17.6657 24.8376 17.8055C25.1154 17.9449 25.4058 17.9991 25.7089 17.968ZM32.6477 18.3823L30.1217 11.3395L31.7986 11.1674L33.715 17.3242L33.6465 17.3312L34.2626 10.9146L35.9444 10.742L34.9162 18.1495L32.6477 18.3823Z" fill="#FFF4DF"/>
</svg>
