<svg width="48" height="258" viewBox="0 0 48 258" fill="none" xmlns="http://www.w3.org/2000/svg">
<path d="M35.1956 219.043H25.0194V252.907H37.2852V221.133C37.2852 219.984 36.3448 219.043 35.1956 219.043Z" stroke="#FDDB97" stroke-width="2.10871" stroke-miterlimit="10"/>
<path d="M0.53125 219.043H-9.64497C-10.7942 219.043 -11.7345 219.984 -11.7345 221.133V252.907H0.53125V219.043Z" stroke="#FDDB97" stroke-width="2.10871" stroke-miterlimit="10"/>
<path d="M6.64437 205.523H18.9102V252.907H6.64437V205.523Z" stroke="#FDDB97" stroke-width="2.10871" stroke-miterlimit="10"/>
<path d="M-20 264.359V254.997C-20 253.843 -19.0645 252.907 -17.9104 252.907H44.5469C45.7009 252.907 46.6365 253.843 46.6365 254.997V264.359C46.6365 265.513 45.7009 266.448 44.5469 266.448H-17.9104C-19.0645 266.448 -20 265.513 -20 264.359Z" stroke="#FDDB97" stroke-width="2.10871" stroke-miterlimit="10"/>
<path d="M13.0469 46.7686V27" stroke="#FDDB97" stroke-width="2.10871" stroke-miterlimit="10" stroke-linecap="round"/>
<path d="M31.1543 222.972V248.978" stroke="#FDDB97" stroke-width="2.10871" stroke-miterlimit="10"/>
<path d="M24.9492 156.836L24.9492 214.976" stroke="#FDDB97" stroke-width="2.10871" stroke-miterlimit="10"/>
<path d="M0.546875 156.836L0.546872 214.976" stroke="#FDDB97" stroke-width="2.10871" stroke-miterlimit="10"/>
<path d="M12.5977 157.438L12.5977 201.119" stroke="#FDDB97" stroke-width="2.10871" stroke-miterlimit="10"/>
<path d="M12.5977 94.4785L12.5977 118.578" stroke="#FDDB97" stroke-width="2.10871" stroke-miterlimit="10"/>
<path d="M12.7754 209.452V248.978" stroke="#FDDB97" stroke-width="2.10871" stroke-miterlimit="10"/>
<path d="M-2.82422 118.633H6.64154L6.64154 99.8469H-0.734646C-1.88391 99.8469 -2.82422 100.787 -2.82422 101.937L-2.82422 118.633Z" stroke="#FDDB97" stroke-width="2.10871" stroke-miterlimit="10"/>
<path d="M18.9004 118.633H28.3662V101.937C28.3662 100.787 27.4258 99.8469 26.2766 99.8469H18.9004L18.9004 118.633Z" stroke="#FDDB97" stroke-width="2.10871" stroke-miterlimit="10"/>
<path d="M19.002 75.1361V67.5819C19.002 65.4608 17.2781 63.7368 15.1571 63.7368H10.9153C8.79439 63.7368 7.0705 65.4608 7.0705 67.5819V75.1361" stroke="#FDDB97" stroke-width="2.10871" stroke-miterlimit="10"/>
<path d="M10.1953 63.7368H15.8998L15.8998 49.6209C15.8998 48.0432 14.6252 46.7685 13.0476 46.7685C11.47 46.7685 10.1953 48.0432 10.1953 49.6209L10.1953 63.7368V63.7368Z" stroke="#FDDB97" stroke-width="2.10871" stroke-miterlimit="10"/>
<path d="M31.2734 219.193V152.016M18.9224 156.384V219.193" stroke="#FDDB97" stroke-width="2.10871" stroke-miterlimit="10"/>
<path d="M6.57227 219.193V156.685M-5.47748 152.619V219.193" stroke="#FDDB97" stroke-width="2.10871" stroke-miterlimit="10"/>
<path d="M1.7419 99.8467V92.4701C1.7419 91.3207 2.68221 90.3804 3.83148 90.3804H21.5511C22.7003 90.3804 23.6406 91.3207 23.6406 92.4701V99.8467" stroke="#FDDB97" stroke-width="2.10871" stroke-miterlimit="10"/>
<path d="M4.16568 90.3702L6.25525 81.8442H19.8479L21.9375 90.3702" stroke="#FDDB97" stroke-width="2.10871" stroke-miterlimit="10"/>
<path d="M19.0242 75.1362L19.8496 81.8442" stroke="#FDDB97" stroke-width="2.10871" stroke-miterlimit="10" stroke-linecap="round"/>
<path d="M6.25665 81.8442L7.08203 75.1362" stroke="#FDDB97" stroke-width="2.10871" stroke-miterlimit="10" stroke-linecap="round"/>
<path d="M42.541 257.086V262.436" stroke="#FDDB97" stroke-width="2.08957" stroke-miterlimit="10"/>
<path d="M37.2344 257.086V262.436" stroke="#FDDB97" stroke-width="2.08957" stroke-miterlimit="10"/>
<path d="M31.9141 257.086V262.436" stroke="#FDDB97" stroke-width="2.08957" stroke-miterlimit="10"/>
<path d="M26.5977 257.086V262.436" stroke="#FDDB97" stroke-width="2.08957" stroke-miterlimit="10"/>
<path d="M21.291 257.086V262.436" stroke="#FDDB97" stroke-width="2.08957" stroke-miterlimit="10"/>
<path d="M15.9727 257.086V262.436" stroke="#FDDB97" stroke-width="2.08957" stroke-miterlimit="10"/>
<path d="M10.6641 257.086V262.436" stroke="#FDDB97" stroke-width="2.08957" stroke-miterlimit="10"/>
<path d="M5.34766 257.086V262.436" stroke="#FDDB97" stroke-width="2.08957" stroke-miterlimit="10"/>
<path d="M0.0390625 257.086V262.436" stroke="#FDDB97" stroke-width="2.08957" stroke-miterlimit="10"/>
<circle r="3.01244" transform="matrix(-1 0 0 1 22.5383 139.966)" stroke="#FDDB97" stroke-width="2.10871"/>
<circle r="3.01244" transform="matrix(-1 0 0 1 12.5969 129.724)" stroke="#FDDB97" stroke-width="2.10871"/>
<circle r="3.01244" transform="matrix(-1 0 0 1 3.2571 145.991)" stroke="#FDDB97" stroke-width="2.10871"/>
<rect width="36.7517" height="38.2579" rx="2.40995" transform="matrix(-1 0 0 1 31.2754 118.578)" stroke="#FDDB97" stroke-width="2.10871"/>
<path d="M22.8398 118.879L22.8398 136.954" stroke="#FDDB97" stroke-width="2.10871"/>
<path d="M22.5391 142.979L22.5391 156.836" stroke="#FDDB97" stroke-width="2.10871"/>
<path d="M3.25977 149.004L3.25977 156.836" stroke="#FDDB97" stroke-width="2.10871"/>
<path d="M12.5996 133.339L12.5996 156.836" stroke="#FDDB97" stroke-width="2.10871"/>
<path d="M12.5996 118.879V126.712" stroke="#FDDB97" stroke-width="2.10871"/>
<path d="M3.25977 118.879V142.979" stroke="#FDDB97" stroke-width="2.10871"/>
<path d="M32.6741 39.668H36.9239C37.5107 39.668 37.9863 40.1436 37.9863 40.7304V44.9802C37.9863 45.567 37.5107 46.0426 36.9239 46.0426H32.6741C32.0873 46.0426 31.6116 45.567 31.6116 44.9802V40.7304C31.6116 40.1436 32.0873 39.668 32.6741 39.668Z" stroke="#FDDB97" stroke-width="1.59367"/>
<path d="M32.4553 1H36.7051C37.2919 1 37.7676 1.47567 37.7676 2.06245V6.31223C37.7676 6.89901 37.2919 7.37468 36.7051 7.37468H32.4553C31.8686 7.37468 31.3929 6.89901 31.3929 6.31223V2.06245C31.3929 1.47567 31.8686 1 32.4553 1Z" stroke="#FDDB97" stroke-width="1.59367"/>
<path d="M22.5803 46.0425H26.8301C27.4169 46.0425 27.8926 46.5182 27.8926 47.1049V51.3547C27.8926 51.9415 27.4169 52.4172 26.8301 52.4172H22.5803C21.9936 52.4172 21.5179 51.9415 21.5179 51.3547V47.1049C21.5179 46.5182 21.9936 46.0425 22.5803 46.0425Z" stroke="#FDDB97" stroke-width="1.59367"/>
<path d="M42.5489 25.9673H43.0801C43.6669 25.9673 44.1426 26.443 44.1426 27.0297V27.561C44.1426 28.1477 43.6669 28.6234 43.0801 28.6234H42.5489C41.9621 28.6234 41.4865 28.1477 41.4865 27.561V27.0297C41.4865 26.443 41.9621 25.9673 42.5489 25.9673Z" fill="#FDDB97"/>
<path d="M42.5489 20.6553H43.0801C43.6669 20.6553 44.1426 21.1309 44.1426 21.7177V22.2489C44.1426 22.8357 43.6669 23.3114 43.0801 23.3114H42.5489C41.9621 23.3114 41.4865 22.8357 41.4865 22.2489V21.7177C41.4865 21.1309 41.9621 20.6553 42.5489 20.6553Z" fill="#FDDB97"/>
<path d="M26.1759 35.7896H26.7071C27.2939 35.7896 27.7695 36.2652 27.7695 36.852V37.3832C27.7695 37.97 27.2939 38.4457 26.7071 38.4457H26.1759C25.5891 38.4457 25.1134 37.97 25.1134 37.3832V36.852C25.1134 36.2652 25.5891 35.7896 26.1759 35.7896Z" fill="#FDDB97"/>
<path d="M26.1759 30.4775H26.7071C27.2939 30.4775 27.7695 30.9532 27.7695 31.54V32.0712C27.7695 32.658 27.2939 33.1337 26.7071 33.1337H26.1759C25.5891 33.1337 25.1134 32.658 25.1134 32.0712V31.54C25.1134 30.9532 25.5891 30.4775 26.1759 30.4775Z" fill="#FDDB97"/>
<path d="M32.5823 26.4189H36.8321C37.4189 26.4189 37.8945 26.8946 37.8945 27.4814V31.7312C37.8945 32.318 37.4189 32.7936 36.8321 32.7936H32.5823C31.9955 32.7936 31.5199 32.318 31.5199 31.7312V27.4814C31.5199 26.8946 31.9955 26.4189 32.5823 26.4189Z" stroke="#FDDB97" stroke-width="1.59367"/>
</svg>
