<svg width="201" height="150" viewBox="0 0 201 150" fill="none" xmlns="http://www.w3.org/2000/svg">
<g opacity="0.5">
<path d="M26.1044 149.672H23.157C22.6302 149.672 22.2031 150.099 22.2031 150.626V158.066C22.2031 158.593 22.6302 159.02 23.157 159.02H26.1044C26.6313 159.02 27.0583 158.593 27.0583 158.066V150.626C27.0583 150.099 26.6313 149.672 26.1044 149.672Z" fill="#FDDB97"/>
<path d="M33.249 149.672H30.3015C29.7747 149.672 29.3477 150.099 29.3477 150.626V158.066C29.3477 158.593 29.7747 159.02 30.3015 159.02H33.249C33.7758 159.02 34.2028 158.593 34.2028 158.066V150.626C34.2028 150.099 33.7758 149.672 33.249 149.672Z" fill="#FDDB97"/>
<path d="M40.3173 149.672H37.3699C36.8431 149.672 36.416 150.099 36.416 150.626V158.066C36.416 158.593 36.8431 159.02 37.3699 159.02H40.3173C40.8441 159.02 41.2712 158.593 41.2712 158.066V150.626C41.2712 150.099 40.8441 149.672 40.3173 149.672Z" fill="#FDDB97"/>
<path d="M50.0198 141.077H13.4675C12.9407 141.077 12.5137 141.504 12.5137 142.031V144.959C12.5137 145.486 12.9407 145.913 13.4675 145.913H50.0198C50.5466 145.913 50.9737 145.486 50.9737 144.959V142.031C50.9737 141.504 50.5466 141.077 50.0198 141.077Z" stroke="#FDDB97" stroke-width="2.12603" stroke-miterlimit="10"/>
<path d="M49.8549 145.914H13.627V170.277H49.8549V145.914Z" stroke="#FDDB97" stroke-width="2.12603" stroke-miterlimit="10"/>
<path d="M16.5652 136.307H46.9173C47.4419 136.307 47.8712 136.736 47.8712 137.261V141.076H15.6113V137.261C15.6113 136.736 16.0406 136.307 16.5652 136.307Z" stroke="#FDDB97" stroke-width="2.12603" stroke-miterlimit="10"/>
<path d="M19.0925 132.195H44.3891C44.9138 132.195 45.343 132.625 45.343 133.149V136.297H18.1387V133.149C18.1387 132.625 18.5679 132.195 19.0925 132.195Z" stroke="#FDDB97" stroke-width="2.12603" stroke-miterlimit="10"/>
<path d="M50.9701 98.4646L48.967 100.468C48.595 100.84 47.994 100.84 47.622 100.468L41.2692 94.1147C40.8972 93.7427 40.8972 93.1417 41.2692 92.7697L51.0655 82.9729C51.4375 82.6008 52.0384 82.6008 52.4104 82.9729L58.7632 89.326C59.1352 89.6981 59.1352 90.299 58.7632 90.6711L56.5788 92.8556" stroke="#FDDB97" stroke-width="2.12603" stroke-miterlimit="10"/>
<path d="M52.3747 92.5181L50.6278 94.2651C49.5476 95.3454 49.5476 97.097 50.6278 98.1773C51.7081 99.2576 53.4595 99.2576 54.5397 98.1773L56.2866 96.4303C57.3669 95.35 57.3668 93.5985 56.2866 92.5181C55.2064 91.4378 53.4549 91.4378 52.3747 92.5181Z" stroke="#FDDB97" stroke-width="2.12603" stroke-miterlimit="10"/>
<path d="M2 46.8003L2 49.8815C2 51.7834 3.54169 53.3252 5.44347 53.3252C7.34524 53.3252 8.88694 51.7834 8.88694 49.8815V46.8003C8.88694 44.8984 7.34524 43.3567 5.44347 43.3567C3.54169 43.3567 2 44.8984 2 46.8003Z" stroke="#FDDB97" stroke-width="2.12603" stroke-miterlimit="10"/>
<path d="M19.6016 132.312V127.284C19.6016 125.791 20.203 124.354 21.2702 123.301L36.1033 108.659" stroke="#FDDB97" stroke-width="2.12603" stroke-miterlimit="10"/>
<path d="M35.2793 108.935L45.4554 110.035" stroke="#FDDB97" stroke-width="2.12603"/>
<path d="M20.2361 124.946L19.3395 124.049C18.4333 123.143 17.9277 121.922 17.9277 120.653V111.667C17.9277 110.246 18.4905 108.882 19.5016 107.88L25.8067 101.575" stroke="#FDDB97" stroke-width="2.12603" stroke-miterlimit="10"/>
<path d="M23.3145 104.121L27.4399 99.8585L31.9779 100.546M37.3409 101.234C37.561 101.124 42.6582 97.4749 43.6666 96.5581" stroke="#FDDB97" stroke-width="2.12603"/>
<circle cx="39.9554" cy="79.7811" r="2.75029" stroke="#FDDB97" stroke-width="2.12603"/>
<circle cx="34.178" cy="101.233" r="2.75029" stroke="#FDDB97" stroke-width="2.12603"/>
<path d="M45.6311 98.4741V123.581C45.6311 125.48 45.2496 127.349 44.5056 129.095L43.1797 132.195" stroke="#FDDB97" stroke-width="2.12603" stroke-miterlimit="10"/>
<path d="M13.2656 44.8159L20.2956 59.1248L21.8123 57.8847C22.3083 57.4841 23.0523 57.713 23.2336 58.314L25.1031 64.4286L24.5785 60.6797C24.5785 55.9673 28.5561 52.1707 33.335 52.4855C37.7037 52.7717 41.0041 56.5874 41.0041 60.9659V70.3525L43.0454 71.3255C44.543 72.041 45.7162 73.2715 46.3744 74.7978L50.228 83.8124" stroke="#FDDB97" stroke-width="2.12603" stroke-miterlimit="10"/>
<path d="M18.8636 108.062L18.1577 107.356C17.5377 106.736 17.1848 105.887 17.1848 105.009V96.6335C17.1848 94.697 17.6426 92.7891 18.5297 91.0721L19.8938 88.4202V82.6394L13.7795 66.6038C13.5219 65.9266 13.6269 65.1634 14.0561 64.5815L15.277 62.9026L11.6523 56.8643" stroke="#FDDB97" stroke-width="2.12603" stroke-miterlimit="10"/>
<path d="M19.3281 89.4075L24.1411 84.732L32.9421 85.8321L38.1677 81.4316" stroke="#FDDB97" stroke-width="2.12603"/>
<path d="M30.0527 52.934L31.0066 44.425C31.1878 43.1944 31.8746 42.479 32.9525 42.479C34.0208 42.479 34.6885 43.1754 34.8984 44.425L35.8523 52.934" stroke="#FDDB97" stroke-width="2.12603" stroke-miterlimit="10"/>
<path d="M7.03543 43.719L6.88281 41.3057" stroke="#FDDB97" stroke-width="2.12603" stroke-miterlimit="10"/>
<path d="M12.674 41.3057L11.7201 56.4922C11.5389 57.7227 10.8521 58.4382 9.7742 58.4382C8.70587 58.4382 8.03816 57.7418 7.82831 56.4922L7.58984 52.686" stroke="#FDDB97" stroke-width="2.12603" stroke-miterlimit="10"/>
<path d="M26.7521 55.2232L23.3277 47.3724C22.8698 46.2181 23.1083 45.2546 24.0336 44.7204C24.9588 44.1863 25.8841 44.4533 26.6853 45.4264L31.7694 52.3232" stroke="#FDDB97" stroke-width="2.12603" stroke-miterlimit="10"/>
<path d="M25.0355 58.858L18.139 53.7736C17.1661 53.0009 16.8895 52.047 17.4332 51.1217C17.9673 50.1964 18.9117 49.9674 20.0849 50.4158L27.9353 53.8404" stroke="#FDDB97" stroke-width="2.12603" stroke-miterlimit="10"/>
<path d="M40.3457 57.6367L48.4822 58.5906C49.7127 58.7718 50.4281 59.4586 50.4281 60.5365C50.4281 61.6048 49.7318 62.2725 48.4822 62.4824L41.0229 63.379" stroke="#FDDB97" stroke-width="2.12603" stroke-miterlimit="10"/>
<path d="M37.6934 54.3363L45.5437 50.9117C46.6979 50.4538 47.6613 50.6923 48.1955 51.6176C48.7296 52.5429 48.4625 53.4682 47.4896 54.2695L40.8316 59.1727" stroke="#FDDB97" stroke-width="2.12603" stroke-miterlimit="10"/>
<path d="M34.0586 52.6092L39.1427 45.7123C39.9153 44.7393 40.8692 44.4627 41.7945 45.0064C42.7197 45.5406 42.9487 46.485 42.5003 47.6583L39.0759 55.5092" stroke="#FDDB97" stroke-width="2.12603" stroke-miterlimit="10"/>
<path d="M13.1389 27.9382C13.1389 27.9382 15.4689 26.491 15.4689 31.7376C15.4689 36.9842 9.83151 36.6599 9.83151 36.6599C9.83151 36.6599 4.07014 37.1082 4.12738 31.5754C4.21322 23.5052 8.92534 21.75 8.92534 21.75C8.92534 21.75 12.3402 23.5338 12.3211 25.8805C12.2925 29.0285 12.531 28.4561 12.531 28.4561L13.0014 28.0757L13.1389 27.9382Z" stroke="#FDDB97" stroke-width="2.12603" stroke-miterlimit="10" stroke-linecap="round"/>
<path d="M13.1399 36.1255H14.7901C15.4006 36.1255 15.8966 36.6215 15.8966 37.232V40.561C15.8966 41.1715 15.4006 41.6675 14.7901 41.6675H4.77446C4.16398 41.6675 3.66797 41.1715 3.66797 40.561V37.232C3.66797 36.6215 4.16398 36.1255 4.77446 36.1255H6.27203" stroke="#FDDB97" stroke-width="2.12603" stroke-miterlimit="10"/>
<path d="M141.281 135.074H151.457V168.937H139.191V137.163C139.191 136.014 140.132 135.074 141.281 135.074Z" stroke="#FDDB97" stroke-width="2.10871" stroke-miterlimit="10"/>
<path d="M175.945 135.074H186.122C187.271 135.074 188.211 136.014 188.211 137.163V168.937H175.945V135.074Z" stroke="#FDDB97" stroke-width="2.10871" stroke-miterlimit="10"/>
<path d="M169.832 121.553H157.566V168.937H169.832V121.553Z" stroke="#FDDB97" stroke-width="2.10871" stroke-miterlimit="10"/>
<path d="M145.322 139.002V165.009" stroke="#FDDB97" stroke-width="2.10871" stroke-miterlimit="10"/>
<path d="M151.527 72.8662L151.527 131.006" stroke="#FDDB97" stroke-width="2.10871" stroke-miterlimit="10"/>
<path d="M175.93 72.8662L175.93 131.006" stroke="#FDDB97" stroke-width="2.10871" stroke-miterlimit="10"/>
<path d="M163.879 73.4688L163.879 117.149" stroke="#FDDB97" stroke-width="2.10871" stroke-miterlimit="10"/>
<path d="M163.879 10.5088L163.879 34.6083" stroke="#FDDB97" stroke-width="2.10871" stroke-miterlimit="10"/>
<path d="M163.701 125.482V165.009" stroke="#FDDB97" stroke-width="2.10871" stroke-miterlimit="10"/>
<path d="M182.08 138.96V165.05" stroke="#FDDB97" stroke-width="2.10871" stroke-miterlimit="10"/>
<path d="M179.301 34.6636H169.835V15.8772H177.211C178.36 15.8772 179.301 16.8175 179.301 17.9669V34.6636Z" stroke="#FDDB97" stroke-width="2.10871" stroke-miterlimit="10"/>
<path d="M157.576 34.6636H148.11V17.9669C148.11 16.8175 149.051 15.8772 150.2 15.8772H157.576V34.6636Z" stroke="#FDDB97" stroke-width="2.10871" stroke-miterlimit="10"/>
<path d="M145.203 135.224V68.0464M157.554 72.4144V135.224" stroke="#FDDB97" stroke-width="2.10871" stroke-miterlimit="10"/>
<path d="M169.904 135.224V72.7157M181.954 68.6489V135.224" stroke="#FDDB97" stroke-width="2.10871" stroke-miterlimit="10"/>
<path d="M174.735 15.877V8.50034C174.735 7.35101 173.794 6.41064 172.645 6.41064H154.926C153.776 6.41064 152.836 7.35101 152.836 8.50034V15.877" stroke="#FDDB97" stroke-width="2.10871" stroke-miterlimit="10"/>
<path d="M172.311 6.40048L170.221 -2.12549H156.629L154.539 6.40048" stroke="#FDDB97" stroke-width="2.10871" stroke-miterlimit="10"/>
<circle cx="153.938" cy="55.9963" r="3.01244" stroke="#FDDB97" stroke-width="2.10871"/>
<circle cx="163.88" cy="45.7541" r="3.01244" stroke="#FDDB97" stroke-width="2.10871"/>
<circle cx="173.219" cy="62.0212" r="3.01244" stroke="#FDDB97" stroke-width="2.10871"/>
<rect x="145.201" y="34.6084" width="36.7517" height="38.2579" rx="2.40995" stroke="#FDDB97" stroke-width="2.10871"/>
<path d="M153.637 34.9097L153.637 52.9843" stroke="#FDDB97" stroke-width="2.10871"/>
<path d="M153.938 59.0088L153.938 72.866" stroke="#FDDB97" stroke-width="2.10871"/>
<path d="M173.217 65.0342L173.217 72.8665" stroke="#FDDB97" stroke-width="2.10871"/>
<path d="M163.877 49.3691L163.877 72.8661" stroke="#FDDB97" stroke-width="2.10871"/>
<path d="M163.877 34.9097V42.742" stroke="#FDDB97" stroke-width="2.10871"/>
<path d="M173.217 34.9097V59.0092" stroke="#FDDB97" stroke-width="2.10871"/>
<path d="M65.056 22.9425L104.298 -0.733784C106.388 -1.99805 109.052 -0.493468 109.052 1.95148V179.419C109.052 181.154 107.652 182.554 105.918 182.554H67.1664C65.4425 182.554 64.0425 181.154 64.0321 179.43L63.541 25.6382C63.541 24.5411 64.1156 23.5172 65.056 22.9425Z" stroke="#FDDB97" stroke-width="2.10871" stroke-miterlimit="10"/>
<path d="M63.4355 37.8003H108.873" stroke="#FDDB97" stroke-width="2.10871" stroke-miterlimit="10"/>
<path d="M63.4355 42.8779H108.873" stroke="#FDDB97" stroke-width="2.10871" stroke-miterlimit="10"/>
<path d="M63.4355 47.9565H108.873" stroke="#FDDB97" stroke-width="2.10871" stroke-miterlimit="10"/>
<path d="M63.4355 88.5801H108.873" stroke="#FDDB97" stroke-width="2.10871" stroke-miterlimit="10"/>
<path d="M63.4355 93.6577H108.873" stroke="#FDDB97" stroke-width="2.10871" stroke-miterlimit="10"/>
<path d="M63.4355 98.7358H108.873" stroke="#FDDB97" stroke-width="2.10871" stroke-miterlimit="10"/>
<path d="M63.4355 103.814H108.873" stroke="#FDDB97" stroke-width="2.10871" stroke-miterlimit="10"/>
<path d="M63.4355 108.892H108.873" stroke="#FDDB97" stroke-width="2.10871" stroke-miterlimit="10"/>
<path d="M63.4355 113.97H108.873" stroke="#FDDB97" stroke-width="2.10871" stroke-miterlimit="10"/>
<path d="M63.4355 119.048H108.873" stroke="#FDDB97" stroke-width="2.10871" stroke-miterlimit="10"/>
<path d="M63.4355 124.126H108.873" stroke="#FDDB97" stroke-width="2.10871" stroke-miterlimit="10"/>
<path d="M63.4355 129.204H108.873" stroke="#FDDB97" stroke-width="2.10871" stroke-miterlimit="10"/>
<path d="M63.4355 134.282H108.873" stroke="#FDDB97" stroke-width="2.10871" stroke-miterlimit="10"/>
<path d="M63.4355 139.359H108.873" stroke="#FDDB97" stroke-width="2.10871" stroke-miterlimit="10"/>
<path d="M63.4355 144.438H108.873" stroke="#FDDB97" stroke-width="2.10871" stroke-miterlimit="10"/>
<path d="M63.4355 149.516H108.873" stroke="#FDDB97" stroke-width="2.10871" stroke-miterlimit="10"/>
<circle cx="79.7019" cy="77.7346" r="3.01244" stroke="#FDDB97" stroke-width="2.10871"/>
<path d="M79.7031 81.0483V88.5794" stroke="#FDDB97" stroke-width="2.10871"/>
<circle cx="94.4636" cy="57.551" r="3.01244" stroke="#FDDB97" stroke-width="2.10871"/>
<path d="M94.3125 61.166V68.9983" stroke="#FDDB97" stroke-width="2.10871"/>
<path d="M63.8887 65.6849L72.926 58.7563L82.867 63.2749L91.7537 58.1538" stroke="#FDDB97" stroke-width="2.10871"/>
<path d="M97.7786 57.8522L102.448 58.9066L109.075 51.3755M63.8887 82.253L71.2691 75.1737L76.9928 77.1318" stroke="#FDDB97" stroke-width="2.10871"/>
<path d="M81.9609 76.3789L88.2871 71.1071L98.9812 76.3789L109.223 64.6304" stroke="#FDDB97" stroke-width="2.10871"/>
<path d="M81.6621 37.3675V29.8364" stroke="#FDDB97" stroke-width="2.10871"/>
<path d="M86.3301 37.3678V27.728" stroke="#FDDB97" stroke-width="2.10871"/>
<path d="M90.8496 37.368L90.8496 18.0884" stroke="#FDDB97" stroke-width="2.10871"/>
<path d="M95.6699 37.3676L95.6699 19.5942" stroke="#FDDB97" stroke-width="2.10871"/>
<path d="M100.188 37.3676L100.188 8.44824" stroke="#FDDB97" stroke-width="2.10871"/>
<path d="M50.3562 142.77H23.4405C22.6449 142.77 22 143.415 22 144.211V181.414C22 182.209 22.6449 182.854 23.4405 182.854H50.3562C51.1518 182.854 51.7967 182.209 51.7967 181.414V144.211C51.7967 143.415 51.1518 142.77 50.3562 142.77Z" stroke="#FDDB97" stroke-width="2.08957" stroke-miterlimit="10"/>
<path d="M30.5853 148.194H26.9624C26.5647 148.194 26.2422 148.516 26.2422 148.914V152.537C26.2422 152.935 26.5647 153.258 26.9624 153.258H30.5853C30.9831 153.258 31.3055 152.935 31.3055 152.537V148.914C31.3055 148.516 30.9831 148.194 30.5853 148.194Z" fill="#FDDB97"/>
<path d="M38.7181 148.194H35.0952C34.6975 148.194 34.375 148.516 34.375 148.914V152.537C34.375 152.935 34.6975 153.258 35.0952 153.258H38.7181C39.1159 153.258 39.4383 152.935 39.4383 152.537V148.914C39.4383 148.516 39.1159 148.194 38.7181 148.194Z" fill="#FDDB97"/>
<path d="M46.8412 148.194H43.2183C42.8205 148.194 42.498 148.516 42.498 148.914V152.537C42.498 152.935 42.8205 153.258 43.2183 153.258H46.8412C47.239 153.258 47.5614 152.935 47.5614 152.537V148.914C47.5614 148.516 47.239 148.194 46.8412 148.194Z" fill="#FDDB97"/>
<line x1="109.121" y1="81.9996" x2="144.713" y2="81.9996" stroke="#FDDB97" stroke-width="2.12489"/>
<line x1="109.121" y1="101.124" x2="144.713" y2="101.124" stroke="#FDDB97" stroke-width="2.12489"/>
<line x1="127.182" y1="82" x2="127.182" y2="160.09" stroke="#FDDB97" stroke-width="2.12489"/>
<line x1="193.586" y1="130.021" x2="193.586" y2="169.331" stroke="#FDDB97" stroke-width="2.12489"/>
<line x1="181.898" y1="130.021" x2="203.679" y2="130.021" stroke="#FDDB97" stroke-width="2.12489"/>
<line x1="109.121" y1="120.248" x2="139.401" y2="120.248" stroke="#FDDB97" stroke-width="2.12489"/>
<line x1="109.121" y1="110.686" x2="144.713" y2="110.686" stroke="#FDDB97" stroke-width="2.12489"/>
<line x1="109.121" y1="91.5621" x2="145.244" y2="91.5621" stroke="#FDDB97" stroke-width="2.12489"/>
<line x1="109.121" y1="129.81" x2="139.401" y2="129.81" stroke="#FDDB97" stroke-width="2.12489"/>
<line x1="189.336" y1="141.176" x2="203.679" y2="141.176" stroke="#FDDB97" stroke-width="2.12489"/>
<line x1="109.121" y1="139.372" x2="139.401" y2="139.372" stroke="#FDDB97" stroke-width="2.12489"/>
<path d="M182.961 -6.50391H178.711C178.124 -6.50391 177.648 -6.02823 177.648 -5.44146V-1.19168C177.648 -0.604903 178.124 -0.129229 178.711 -0.129229H182.961C183.547 -0.129229 184.023 -0.604903 184.023 -1.19168V-5.44146C184.023 -6.02823 183.547 -6.50391 182.961 -6.50391Z" stroke="#FDDB97" stroke-width="1.59367"/>
</g>
</svg>
