<svg width="98" height="46" viewBox="0 0 98 46" fill="none" xmlns="http://www.w3.org/2000/svg">
<mask id="path-1-outside-1_26131_3819" maskUnits="userSpaceOnUse" x="-1.07412" y="-7.76838" width="98.4127" height="51.8597" fill="black">
<rect fill="white" x="-1.07412" y="-7.76838" width="98.4127" height="51.8597"/>
<path d="M2.97364 30.3261L3.2783 40.578C3.28455 40.7885 3.46015 40.9541 3.6706 40.948L94.6324 38.3066C94.8431 38.3005 95.0088 38.1247 95.0026 37.914L94.8687 33.4107C94.8652 33.2904 94.7648 33.1958 94.6445 33.1994C94.5242 33.203 94.4238 33.1084 94.4202 32.9881C94.4166 32.8678 94.3162 32.7732 94.1959 32.7768L93.2003 32.8063C93.08 32.8099 92.9854 32.9103 92.989 33.0306C92.9926 33.1509 92.898 33.2513 92.7777 33.2549L92.6221 33.2595C92.4159 33.2656 92.2537 33.4377 92.2598 33.6439L92.295 34.8263C92.2991 34.9637 92.1909 35.0785 92.0535 35.0826C91.916 35.0867 91.8013 34.9785 91.7972 34.8411L91.7306 32.6009L91.6196 28.8673C91.6145 28.6954 91.4711 28.5603 91.2993 28.5654C91.1274 28.5705 90.984 28.4353 90.9789 28.2635L90.9643 27.7736C90.9581 27.563 90.7823 27.3974 90.5717 27.4037L89.9652 27.4217C89.7547 27.4279 89.5891 27.6037 89.5953 27.8142L89.6099 28.3042C89.615 28.476 89.4798 28.6195 89.308 28.6246C89.1362 28.6297 89.001 28.7731 89.0061 28.9449L89.1057 32.2973C89.112 32.5079 88.9464 32.6836 88.7358 32.6899L87.2581 32.7338C87.0476 32.7401 86.8718 32.5744 86.8656 32.3639L86.7329 27.8993C86.7266 27.6888 86.5509 27.5231 86.3403 27.5294L85.7338 27.5474C85.5232 27.5537 85.3475 27.3881 85.3412 27.1775L85.0733 18.1609C85.0658 17.9104 84.823 17.735 84.5829 17.8068L83.2065 18.218L82.6829 18.3776C82.5837 18.4079 82.501 18.4773 82.4541 18.5698L81.1522 21.1351C81.128 21.1827 81.1141 21.2349 81.1114 21.2882L81.0152 23.164C81.0051 23.3625 80.8443 23.5198 80.6457 23.5257L78.8272 23.5798C78.6166 23.586 78.4409 23.4204 78.4346 23.2099L78.3508 20.3888C78.3478 20.2877 78.3047 20.1919 78.2311 20.1225L77.9485 19.8562C77.8748 19.7868 77.8318 19.691 77.8288 19.5899L77.7358 16.461C77.7344 16.4125 77.7237 16.3647 77.7043 16.3202L77.4839 15.8133C77.4267 15.6818 77.24 15.6825 77.1838 15.8144C77.1214 15.9608 76.9079 15.9407 76.874 15.7852L76.7669 15.2952L76.5718 14.691C76.4531 14.323 75.9252 14.345 75.8374 14.7215L75.6626 15.4713C75.6558 15.5005 75.6456 15.5287 75.6322 15.5555L75.3776 16.064C75.3215 16.176 75.1615 16.1754 75.1063 16.063C75.0425 15.933 74.8502 15.9581 74.8219 16.1L74.7528 16.4461C74.7488 16.4662 74.747 16.4867 74.7476 16.5072L74.8419 19.6787C74.8449 19.7798 74.8076 19.878 74.7382 19.9516L74.4719 20.2342C74.4025 20.3078 74.3652 20.406 74.3683 20.5071L74.4521 23.3282C74.4583 23.5388 74.2927 23.7145 74.0822 23.7208L72.6045 23.7647C72.3939 23.771 72.2182 23.6053 72.2119 23.3948L72.1761 22.1892C72.1725 22.069 72.0721 21.9743 71.9518 21.9779C71.8315 21.9815 71.7311 21.8869 71.7276 21.7666L71.6991 20.81C71.6929 20.5994 71.5171 20.4338 71.3066 20.44L71.2601 20.4414C71.0495 20.4477 70.8738 20.2821 70.8675 20.0715L70.782 17.1944C70.7812 17.168 70.7777 17.1418 70.7715 17.1161L69.6447 12.4551L69.3495 10.9068L69.1357 9.82324C69.1316 9.80262 69.1293 9.78171 69.1286 9.76071L69.0676 7.70766C69.0651 7.62175 68.9933 7.55417 68.9074 7.55672C68.8215 7.55927 68.7539 7.63099 68.7565 7.71691L68.8172 9.75966C68.818 9.78748 68.8158 9.8153 68.8106 9.84264L68.6028 10.929L68.4624 12.4902L67.553 17.2095C67.5477 17.237 67.5455 17.265 67.5463 17.293L67.6317 20.1677C67.638 20.3782 67.4724 20.554 67.2618 20.5602L67.0909 20.5653C66.8803 20.5716 66.7147 20.7473 66.721 20.9579L66.7513 21.9768C66.7538 22.0627 66.6862 22.1344 66.6003 22.137C66.5144 22.1395 66.4468 22.2112 66.4494 22.2971L66.487 23.5649C66.4933 23.7755 66.3277 23.9512 66.1171 23.9575L63.8927 24.0236C63.6822 24.0298 63.5064 23.8642 63.5002 23.6537L63.3099 17.2522C63.3048 17.0803 63.1614 16.9452 62.9895 16.9503C62.8177 16.9554 62.6743 16.8202 62.6692 16.6484L62.6232 15.1006C62.6169 14.8901 62.4411 14.7244 62.2306 14.7307L62.1219 14.7339C61.9113 14.7402 61.7356 14.5746 61.7293 14.364L61.7185 13.9985C61.7123 13.7923 61.5402 13.6301 61.334 13.6363C61.1278 13.6424 60.9557 13.4802 60.9496 13.274L60.9439 13.0839C60.9405 12.968 60.8819 12.8617 60.8154 12.7669C60.3709 12.134 60.058 10.0506 59.9508 9.00624L59.8522 5.68761C59.8484 5.56152 59.7432 5.46234 59.6171 5.46609C59.476 5.47028 59.3631 5.60099 59.3719 5.74186C59.3988 6.17123 59.434 7.14332 59.453 9.02103C59.4755 11.2493 58.9839 12.4098 58.6438 12.836C58.5689 12.9298 58.5137 13.0434 58.5173 13.1634L58.5255 13.4395C58.5301 13.5941 58.4084 13.7232 58.2538 13.7278C58.0991 13.7324 57.9775 13.8615 57.9821 14.0162L57.9976 14.5372C58.0038 14.7478 57.8382 14.9235 57.6277 14.9298L57.519 14.933C57.3084 14.9393 57.1428 15.115 57.149 15.3256L57.1969 16.9356C57.202 17.1074 57.0668 17.2509 56.895 17.256C56.7232 17.2611 56.588 17.4045 56.5931 17.5764L56.7797 23.8534C56.7859 24.0639 56.6203 24.2397 56.4097 24.246L54.986 24.2883C54.7787 24.2944 54.6045 24.1338 54.5938 23.9267L53.5994 4.69159C53.5921 4.55032 53.5072 4.4247 53.3789 4.36522L52.9173 4.15133C52.7862 4.09059 52.7007 3.961 52.6964 3.8166L52.6759 3.12669C52.6697 2.91614 52.4939 2.75052 52.2834 2.75678L51.1168 2.79145C50.9063 2.7977 50.7305 2.63209 50.7242 2.42154L50.559 -3.13989C50.5544 -3.29454 50.4253 -3.41619 50.2706 -3.41159C50.116 -3.407 49.9943 -3.2779 49.9989 -3.12325L50.1642 2.43818C50.1705 2.64873 50.0048 2.82449 49.7943 2.83075L49.0011 2.85432C48.7905 2.86058 48.6249 3.03634 48.6312 3.24689L48.6509 3.91162C48.6556 4.06885 48.5633 4.21282 48.4184 4.27416L47.787 4.54158C47.6445 4.6019 47.5526 4.74228 47.5543 4.89695L47.764 24.1285C47.7663 24.3363 47.6017 24.5077 47.3939 24.5139L45.9714 24.5562C45.7608 24.5624 45.5851 24.3968 45.5788 24.1862L45.2686 13.7479C45.2624 13.5373 45.0866 13.3717 44.876 13.378L42.7761 13.4404C42.5655 13.4466 42.3898 13.281 42.3835 13.0705L42.3366 11.4916C42.331 11.3025 42.1732 11.1539 41.9842 11.1595C41.7952 11.1651 41.6465 11.3229 41.6521 11.5119L41.699 13.0908C41.7053 13.3014 41.5397 13.4771 41.3291 13.4834L39.4158 13.5402C39.2053 13.5465 39.0397 13.7223 39.0459 13.9328L39.3561 24.3712C39.3624 24.5817 39.1968 24.7575 38.9862 24.7637L38.3175 24.7836C38.1069 24.7899 37.9312 24.6242 37.9249 24.4137L37.1395 -2.01698C37.1332 -2.22753 36.9574 -2.39315 36.7469 -2.38689L32.6583 -2.26539C32.4467 -2.2591 32.2807 -2.08174 32.2885 -1.87021L33.2482 24.3828C33.2583 24.6597 32.9178 24.8651 32.6432 24.8277C32.4321 24.7989 32.0806 24.6079 31.802 24.4347C31.6333 24.3298 31.5912 24.1069 31.7003 23.9408C31.8192 23.7597 31.7568 23.5156 31.5656 23.4137L31.2776 23.2603C31.1331 23.1834 30.9556 23.2072 30.8365 23.3196L30.8094 23.3452C30.6409 23.5041 30.3698 23.4773 30.2616 23.2726C30.1715 23.1023 30.0952 22.9186 30.0913 22.7859C30.0852 22.5795 29.821 22.338 29.6225 22.1937C29.5518 22.1424 29.4952 22.0733 29.4679 21.9903C29.354 21.6438 29.2068 21.1306 29.2946 21.128C29.3713 21.1257 29.421 20.878 29.4464 20.6693C29.4595 20.5619 29.5115 20.4622 29.5968 20.3956L29.8943 20.1636C30.0689 20.0274 29.9886 19.748 29.7684 19.7252L29.6514 19.7132C29.5456 19.7022 29.4803 19.5922 29.5214 19.4941C29.5826 19.3482 29.4159 19.2126 29.2855 19.302L29.1133 19.4201C28.9934 19.5023 28.8282 19.4478 28.7808 19.3104L28.7572 19.2421C28.6763 19.008 28.3515 18.9915 28.2474 19.2162L28.2168 19.2823C28.1415 19.4448 27.9312 19.4894 27.7964 19.3715L27.685 19.2741C27.5238 19.1331 27.2765 19.2813 27.3247 19.4899C27.3561 19.6256 27.2554 19.7561 27.1162 19.7602L27.0252 19.7629C26.9044 19.7665 26.7937 19.6963 26.7455 19.5855L26.4884 18.9942C26.4473 18.8998 26.4467 18.7931 26.4822 18.6965C26.5601 18.4843 26.6537 18.1866 26.649 18.0302C26.6416 17.7813 26.3816 17.4154 26.625 17.2213C26.8503 17.0416 26.7533 16.5407 27.0229 16.4385C27.6098 16.216 28.0984 15.9679 27.5214 15.949C26.5239 15.9164 26.5788 15.6656 25.9583 15.7463C25.5348 15.8014 25.697 16.2353 25.888 16.5379C25.9328 16.6091 25.9018 16.7065 25.8216 16.732C25.7201 16.7643 25.6908 16.9292 25.7347 17.0263C25.7807 17.1281 25.8025 17.264 25.7594 17.4338C25.6479 17.8731 25.6534 18.0598 25.9097 18.3013C26.166 18.5428 26.0582 19.1066 26.0748 19.6666C26.0915 20.2267 26.1593 20.4115 26.1155 21.0356C26.0718 21.6597 26.264 21.8409 26.3299 21.9635C26.3836 22.0632 26.1912 22.2116 26.4966 22.5879C26.6384 22.7625 26.6535 23.0195 26.4811 23.164C24.9902 24.4138 22.5463 25.36 21.1191 25.7971C20.8834 25.8693 20.6486 25.6946 20.6413 25.4483L20.467 19.5841C20.4619 19.4123 20.3185 19.2771 20.1466 19.2822C19.9748 19.2874 19.8314 19.1522 19.8263 18.9804L19.7819 17.4869C19.7788 17.3838 19.6928 17.3027 19.5897 17.3058C19.4866 17.3088 19.4005 17.2278 19.3974 17.1246L19.3912 16.9166C19.3855 16.7222 19.2232 16.5693 19.0288 16.5751C18.9354 16.5778 18.8448 16.5434 18.7768 16.4794L17.1742 14.9693C17.0209 14.8248 16.7795 14.832 16.635 14.9853L15.0125 16.7072C14.9431 16.7808 14.9058 16.879 14.9088 16.9801L14.9152 17.1956C14.9183 17.2987 14.8372 17.3847 14.7341 17.3878C14.631 17.3909 14.5499 17.4769 14.553 17.58L14.5974 19.0735C14.6035 19.2797 14.4413 19.4518 14.2351 19.4579C14.0289 19.4641 13.8667 19.6362 13.8728 19.8424L13.9986 24.0738C14.0047 24.28 13.8425 24.4521 13.6363 24.4583C13.4301 24.4644 13.258 24.3022 13.2518 24.096L13.2167 22.9137C13.2126 22.7762 13.0979 22.6681 12.9604 22.6722C12.8229 22.6763 12.7082 22.5681 12.7041 22.4307L12.6534 20.726C12.6493 20.5875 12.5692 20.4639 12.4535 20.3878C12.2721 20.2685 12.0743 20.1013 12.0701 19.9582C12.0627 19.7093 11.539 18.8529 9.9211 18.901C8.74847 18.9359 8.2897 19.597 8.17623 20.0155C8.15514 20.0933 8.12187 20.1686 8.06659 20.2272L7.77697 20.5346C7.7076 20.6082 7.67032 20.7064 7.67332 20.8075L7.72873 22.6719C7.73332 22.8266 7.61168 22.9557 7.45703 22.9603C7.30238 22.9649 7.18073 23.094 7.18533 23.2486L7.21861 24.3687C7.22321 24.5234 7.10157 24.6525 6.94692 24.6571C6.79226 24.6617 6.67062 24.7907 6.67522 24.9454L6.78131 28.5156C6.78757 28.7261 6.62195 28.9019 6.4114 28.9081L4.18699 28.9742C3.97644 28.9805 3.81082 29.1563 3.81708 29.3668L3.82216 29.5377C3.82841 29.7483 3.6628 29.924 3.45225 29.9303L3.34355 29.9335C3.133 29.9398 2.96738 30.1155 2.97364 30.3261Z"/>
</mask>
<path d="M2.97364 30.3261L3.2783 40.578C3.28455 40.7885 3.46015 40.9541 3.6706 40.948L94.6324 38.3066C94.8431 38.3005 95.0088 38.1247 95.0026 37.914L94.8687 33.4107C94.8652 33.2904 94.7648 33.1958 94.6445 33.1994C94.5242 33.203 94.4238 33.1084 94.4202 32.9881C94.4166 32.8678 94.3162 32.7732 94.1959 32.7768L93.2003 32.8063C93.08 32.8099 92.9854 32.9103 92.989 33.0306C92.9926 33.1509 92.898 33.2513 92.7777 33.2549L92.6221 33.2595C92.4159 33.2656 92.2537 33.4377 92.2598 33.6439L92.295 34.8263C92.2991 34.9637 92.1909 35.0785 92.0535 35.0826C91.916 35.0867 91.8013 34.9785 91.7972 34.8411L91.7306 32.6009L91.6196 28.8673C91.6145 28.6954 91.4711 28.5603 91.2993 28.5654C91.1274 28.5705 90.984 28.4353 90.9789 28.2635L90.9643 27.7736C90.9581 27.563 90.7823 27.3974 90.5717 27.4037L89.9652 27.4217C89.7547 27.4279 89.5891 27.6037 89.5953 27.8142L89.6099 28.3042C89.615 28.476 89.4798 28.6195 89.308 28.6246C89.1362 28.6297 89.001 28.7731 89.0061 28.9449L89.1057 32.2973C89.112 32.5079 88.9464 32.6836 88.7358 32.6899L87.2581 32.7338C87.0476 32.7401 86.8718 32.5744 86.8656 32.3639L86.7329 27.8993C86.7266 27.6888 86.5509 27.5231 86.3403 27.5294L85.7338 27.5474C85.5232 27.5537 85.3475 27.3881 85.3412 27.1775L85.0733 18.1609C85.0658 17.9104 84.823 17.735 84.5829 17.8068L83.2065 18.218L82.6829 18.3776C82.5837 18.4079 82.501 18.4773 82.4541 18.5698L81.1522 21.1351C81.128 21.1827 81.1141 21.2349 81.1114 21.2882L81.0152 23.164C81.0051 23.3625 80.8443 23.5198 80.6457 23.5257L78.8272 23.5798C78.6166 23.586 78.4409 23.4204 78.4346 23.2099L78.3508 20.3888C78.3478 20.2877 78.3047 20.1919 78.2311 20.1225L77.9485 19.8562C77.8748 19.7868 77.8318 19.691 77.8288 19.5899L77.7358 16.461C77.7344 16.4125 77.7237 16.3647 77.7043 16.3202L77.4839 15.8133C77.4267 15.6818 77.24 15.6825 77.1838 15.8144C77.1214 15.9608 76.9079 15.9407 76.874 15.7852L76.7669 15.2952L76.5718 14.691C76.4531 14.323 75.9252 14.345 75.8374 14.7215L75.6626 15.4713C75.6558 15.5005 75.6456 15.5287 75.6322 15.5555L75.3776 16.064C75.3215 16.176 75.1615 16.1754 75.1063 16.063C75.0425 15.933 74.8502 15.9581 74.8219 16.1L74.7528 16.4461C74.7488 16.4662 74.747 16.4867 74.7476 16.5072L74.8419 19.6787C74.8449 19.7798 74.8076 19.878 74.7382 19.9516L74.4719 20.2342C74.4025 20.3078 74.3652 20.406 74.3683 20.5071L74.4521 23.3282C74.4583 23.5388 74.2927 23.7145 74.0822 23.7208L72.6045 23.7647C72.3939 23.771 72.2182 23.6053 72.2119 23.3948L72.1761 22.1892C72.1725 22.069 72.0721 21.9743 71.9518 21.9779C71.8315 21.9815 71.7311 21.8869 71.7276 21.7666L71.6991 20.81C71.6929 20.5994 71.5171 20.4338 71.3066 20.44L71.2601 20.4414C71.0495 20.4477 70.8738 20.2821 70.8675 20.0715L70.782 17.1944C70.7812 17.168 70.7777 17.1418 70.7715 17.1161L69.6447 12.4551L69.3495 10.9068L69.1357 9.82324C69.1316 9.80262 69.1293 9.78171 69.1286 9.76071L69.0676 7.70766C69.0651 7.62175 68.9933 7.55417 68.9074 7.55672C68.8215 7.55927 68.7539 7.63099 68.7565 7.71691L68.8172 9.75966C68.818 9.78748 68.8158 9.8153 68.8106 9.84264L68.6028 10.929L68.4624 12.4902L67.553 17.2095C67.5477 17.237 67.5455 17.265 67.5463 17.293L67.6317 20.1677C67.638 20.3782 67.4724 20.554 67.2618 20.5602L67.0909 20.5653C66.8803 20.5716 66.7147 20.7473 66.721 20.9579L66.7513 21.9768C66.7538 22.0627 66.6862 22.1344 66.6003 22.137C66.5144 22.1395 66.4468 22.2112 66.4494 22.2971L66.487 23.5649C66.4933 23.7755 66.3277 23.9512 66.1171 23.9575L63.8927 24.0236C63.6822 24.0298 63.5064 23.8642 63.5002 23.6537L63.3099 17.2522C63.3048 17.0803 63.1614 16.9452 62.9895 16.9503C62.8177 16.9554 62.6743 16.8202 62.6692 16.6484L62.6232 15.1006C62.6169 14.8901 62.4411 14.7244 62.2306 14.7307L62.1219 14.7339C61.9113 14.7402 61.7356 14.5746 61.7293 14.364L61.7185 13.9985C61.7123 13.7923 61.5402 13.6301 61.334 13.6363C61.1278 13.6424 60.9557 13.4802 60.9496 13.274L60.9439 13.0839C60.9405 12.968 60.8819 12.8617 60.8154 12.7669C60.3709 12.134 60.058 10.0506 59.9508 9.00624L59.8522 5.68761C59.8484 5.56152 59.7432 5.46234 59.6171 5.46609C59.476 5.47028 59.3631 5.60099 59.3719 5.74186C59.3988 6.17123 59.434 7.14332 59.453 9.02103C59.4755 11.2493 58.9839 12.4098 58.6438 12.836C58.5689 12.9298 58.5137 13.0434 58.5173 13.1634L58.5255 13.4395C58.5301 13.5941 58.4084 13.7232 58.2538 13.7278C58.0991 13.7324 57.9775 13.8615 57.9821 14.0162L57.9976 14.5372C58.0038 14.7478 57.8382 14.9235 57.6277 14.9298L57.519 14.933C57.3084 14.9393 57.1428 15.115 57.149 15.3256L57.1969 16.9356C57.202 17.1074 57.0668 17.2509 56.895 17.256C56.7232 17.2611 56.588 17.4045 56.5931 17.5764L56.7797 23.8534C56.7859 24.0639 56.6203 24.2397 56.4097 24.246L54.986 24.2883C54.7787 24.2944 54.6045 24.1338 54.5938 23.9267L53.5994 4.69159C53.5921 4.55032 53.5072 4.4247 53.3789 4.36522L52.9173 4.15133C52.7862 4.09059 52.7007 3.961 52.6964 3.8166L52.6759 3.12669C52.6697 2.91614 52.4939 2.75052 52.2834 2.75678L51.1168 2.79145C50.9063 2.7977 50.7305 2.63209 50.7242 2.42154L50.559 -3.13989C50.5544 -3.29454 50.4253 -3.41619 50.2706 -3.41159C50.116 -3.407 49.9943 -3.2779 49.9989 -3.12325L50.1642 2.43818C50.1705 2.64873 50.0048 2.82449 49.7943 2.83075L49.0011 2.85432C48.7905 2.86058 48.6249 3.03634 48.6312 3.24689L48.6509 3.91162C48.6556 4.06885 48.5633 4.21282 48.4184 4.27416L47.787 4.54158C47.6445 4.6019 47.5526 4.74228 47.5543 4.89695L47.764 24.1285C47.7663 24.3363 47.6017 24.5077 47.3939 24.5139L45.9714 24.5562C45.7608 24.5624 45.5851 24.3968 45.5788 24.1862L45.2686 13.7479C45.2624 13.5373 45.0866 13.3717 44.876 13.378L42.7761 13.4404C42.5655 13.4466 42.3898 13.281 42.3835 13.0705L42.3366 11.4916C42.331 11.3025 42.1732 11.1539 41.9842 11.1595C41.7952 11.1651 41.6465 11.3229 41.6521 11.5119L41.699 13.0908C41.7053 13.3014 41.5397 13.4771 41.3291 13.4834L39.4158 13.5402C39.2053 13.5465 39.0397 13.7223 39.0459 13.9328L39.3561 24.3712C39.3624 24.5817 39.1968 24.7575 38.9862 24.7637L38.3175 24.7836C38.1069 24.7899 37.9312 24.6242 37.9249 24.4137L37.1395 -2.01698C37.1332 -2.22753 36.9574 -2.39315 36.7469 -2.38689L32.6583 -2.26539C32.4467 -2.2591 32.2807 -2.08174 32.2885 -1.87021L33.2482 24.3828C33.2583 24.6597 32.9178 24.8651 32.6432 24.8277C32.4321 24.7989 32.0806 24.6079 31.802 24.4347C31.6333 24.3298 31.5912 24.1069 31.7003 23.9408C31.8192 23.7597 31.7568 23.5156 31.5656 23.4137L31.2776 23.2603C31.1331 23.1834 30.9556 23.2072 30.8365 23.3196L30.8094 23.3452C30.6409 23.5041 30.3698 23.4773 30.2616 23.2726C30.1715 23.1023 30.0952 22.9186 30.0913 22.7859C30.0852 22.5795 29.821 22.338 29.6225 22.1937C29.5518 22.1424 29.4952 22.0733 29.4679 21.9903C29.354 21.6438 29.2068 21.1306 29.2946 21.128C29.3713 21.1257 29.421 20.878 29.4464 20.6693C29.4595 20.5619 29.5115 20.4622 29.5968 20.3956L29.8943 20.1636C30.0689 20.0274 29.9886 19.748 29.7684 19.7252L29.6514 19.7132C29.5456 19.7022 29.4803 19.5922 29.5214 19.4941C29.5826 19.3482 29.4159 19.2126 29.2855 19.302L29.1133 19.4201C28.9934 19.5023 28.8282 19.4478 28.7808 19.3104L28.7572 19.2421C28.6763 19.008 28.3515 18.9915 28.2474 19.2162L28.2168 19.2823C28.1415 19.4448 27.9312 19.4894 27.7964 19.3715L27.685 19.2741C27.5238 19.1331 27.2765 19.2813 27.3247 19.4899C27.3561 19.6256 27.2554 19.7561 27.1162 19.7602L27.0252 19.7629C26.9044 19.7665 26.7937 19.6963 26.7455 19.5855L26.4884 18.9942C26.4473 18.8998 26.4467 18.7931 26.4822 18.6965C26.5601 18.4843 26.6537 18.1866 26.649 18.0302C26.6416 17.7813 26.3816 17.4154 26.625 17.2213C26.8503 17.0416 26.7533 16.5407 27.0229 16.4385C27.6098 16.216 28.0984 15.9679 27.5214 15.949C26.5239 15.9164 26.5788 15.6656 25.9583 15.7463C25.5348 15.8014 25.697 16.2353 25.888 16.5379C25.9328 16.6091 25.9018 16.7065 25.8216 16.732C25.7201 16.7643 25.6908 16.9292 25.7347 17.0263C25.7807 17.1281 25.8025 17.264 25.7594 17.4338C25.6479 17.8731 25.6534 18.0598 25.9097 18.3013C26.166 18.5428 26.0582 19.1066 26.0748 19.6666C26.0915 20.2267 26.1593 20.4115 26.1155 21.0356C26.0718 21.6597 26.264 21.8409 26.3299 21.9635C26.3836 22.0632 26.1912 22.2116 26.4966 22.5879C26.6384 22.7625 26.6535 23.0195 26.4811 23.164C24.9902 24.4138 22.5463 25.36 21.1191 25.7971C20.8834 25.8693 20.6486 25.6946 20.6413 25.4483L20.467 19.5841C20.4619 19.4123 20.3185 19.2771 20.1466 19.2822C19.9748 19.2874 19.8314 19.1522 19.8263 18.9804L19.7819 17.4869C19.7788 17.3838 19.6928 17.3027 19.5897 17.3058C19.4866 17.3088 19.4005 17.2278 19.3974 17.1246L19.3912 16.9166C19.3855 16.7222 19.2232 16.5693 19.0288 16.5751C18.9354 16.5778 18.8448 16.5434 18.7768 16.4794L17.1742 14.9693C17.0209 14.8248 16.7795 14.832 16.635 14.9853L15.0125 16.7072C14.9431 16.7808 14.9058 16.879 14.9088 16.9801L14.9152 17.1956C14.9183 17.2987 14.8372 17.3847 14.7341 17.3878C14.631 17.3909 14.5499 17.4769 14.553 17.58L14.5974 19.0735C14.6035 19.2797 14.4413 19.4518 14.2351 19.4579C14.0289 19.4641 13.8667 19.6362 13.8728 19.8424L13.9986 24.0738C14.0047 24.28 13.8425 24.4521 13.6363 24.4583C13.4301 24.4644 13.258 24.3022 13.2518 24.096L13.2167 22.9137C13.2126 22.7762 13.0979 22.6681 12.9604 22.6722C12.8229 22.6763 12.7082 22.5681 12.7041 22.4307L12.6534 20.726C12.6493 20.5875 12.5692 20.4639 12.4535 20.3878C12.2721 20.2685 12.0743 20.1013 12.0701 19.9582C12.0627 19.7093 11.539 18.8529 9.9211 18.901C8.74847 18.9359 8.2897 19.597 8.17623 20.0155C8.15514 20.0933 8.12187 20.1686 8.06659 20.2272L7.77697 20.5346C7.7076 20.6082 7.67032 20.7064 7.67332 20.8075L7.72873 22.6719C7.73332 22.8266 7.61168 22.9557 7.45703 22.9603C7.30238 22.9649 7.18073 23.094 7.18533 23.2486L7.21861 24.3687C7.22321 24.5234 7.10157 24.6525 6.94692 24.6571C6.79226 24.6617 6.67062 24.7907 6.67522 24.9454L6.78131 28.5156C6.78757 28.7261 6.62195 28.9019 6.4114 28.9081L4.18699 28.9742C3.97644 28.9805 3.81082 29.1563 3.81708 29.3668L3.82216 29.5377C3.82841 29.7483 3.6628 29.924 3.45225 29.9303L3.34355 29.9335C3.133 29.9398 2.96738 30.1155 2.97364 30.3261Z" fill="#73BFA1"/>
<path d="M2.97364 30.3261L3.2783 40.578C3.28455 40.7885 3.46015 40.9541 3.6706 40.948L94.6324 38.3066C94.8431 38.3005 95.0088 38.1247 95.0026 37.914L94.8687 33.4107C94.8652 33.2904 94.7648 33.1958 94.6445 33.1994C94.5242 33.203 94.4238 33.1084 94.4202 32.9881C94.4166 32.8678 94.3162 32.7732 94.1959 32.7768L93.2003 32.8063C93.08 32.8099 92.9854 32.9103 92.989 33.0306C92.9926 33.1509 92.898 33.2513 92.7777 33.2549L92.6221 33.2595C92.4159 33.2656 92.2537 33.4377 92.2598 33.6439L92.295 34.8263C92.2991 34.9637 92.1909 35.0785 92.0535 35.0826C91.916 35.0867 91.8013 34.9785 91.7972 34.8411L91.7306 32.6009L91.6196 28.8673C91.6145 28.6954 91.4711 28.5603 91.2993 28.5654C91.1274 28.5705 90.984 28.4353 90.9789 28.2635L90.9643 27.7736C90.9581 27.563 90.7823 27.3974 90.5717 27.4037L89.9652 27.4217C89.7547 27.4279 89.5891 27.6037 89.5953 27.8142L89.6099 28.3042C89.615 28.476 89.4798 28.6195 89.308 28.6246C89.1362 28.6297 89.001 28.7731 89.0061 28.9449L89.1057 32.2973C89.112 32.5079 88.9464 32.6836 88.7358 32.6899L87.2581 32.7338C87.0476 32.7401 86.8718 32.5744 86.8656 32.3639L86.7329 27.8993C86.7266 27.6888 86.5509 27.5231 86.3403 27.5294L85.7338 27.5474C85.5232 27.5537 85.3475 27.3881 85.3412 27.1775L85.0733 18.1609C85.0658 17.9104 84.823 17.735 84.5829 17.8068L83.2065 18.218L82.6829 18.3776C82.5837 18.4079 82.501 18.4773 82.4541 18.5698L81.1522 21.1351C81.128 21.1827 81.1141 21.2349 81.1114 21.2882L81.0152 23.164C81.0051 23.3625 80.8443 23.5198 80.6457 23.5257L78.8272 23.5798C78.6166 23.586 78.4409 23.4204 78.4346 23.2099L78.3508 20.3888C78.3478 20.2877 78.3047 20.1919 78.2311 20.1225L77.9485 19.8562C77.8748 19.7868 77.8318 19.691 77.8288 19.5899L77.7358 16.461C77.7344 16.4125 77.7237 16.3647 77.7043 16.3202L77.4839 15.8133C77.4267 15.6818 77.24 15.6825 77.1838 15.8144C77.1214 15.9608 76.9079 15.9407 76.874 15.7852L76.7669 15.2952L76.5718 14.691C76.4531 14.323 75.9252 14.345 75.8374 14.7215L75.6626 15.4713C75.6558 15.5005 75.6456 15.5287 75.6322 15.5555L75.3776 16.064C75.3215 16.176 75.1615 16.1754 75.1063 16.063C75.0425 15.933 74.8502 15.9581 74.8219 16.1L74.7528 16.4461C74.7488 16.4662 74.747 16.4867 74.7476 16.5072L74.8419 19.6787C74.8449 19.7798 74.8076 19.878 74.7382 19.9516L74.4719 20.2342C74.4025 20.3078 74.3652 20.406 74.3683 20.5071L74.4521 23.3282C74.4583 23.5388 74.2927 23.7145 74.0822 23.7208L72.6045 23.7647C72.3939 23.771 72.2182 23.6053 72.2119 23.3948L72.1761 22.1892C72.1725 22.069 72.0721 21.9743 71.9518 21.9779C71.8315 21.9815 71.7311 21.8869 71.7276 21.7666L71.6991 20.81C71.6929 20.5994 71.5171 20.4338 71.3066 20.44L71.2601 20.4414C71.0495 20.4477 70.8738 20.2821 70.8675 20.0715L70.782 17.1944C70.7812 17.168 70.7777 17.1418 70.7715 17.1161L69.6447 12.4551L69.3495 10.9068L69.1357 9.82324C69.1316 9.80262 69.1293 9.78171 69.1286 9.76071L69.0676 7.70766C69.0651 7.62175 68.9933 7.55417 68.9074 7.55672C68.8215 7.55927 68.7539 7.63099 68.7565 7.71691L68.8172 9.75966C68.818 9.78748 68.8158 9.8153 68.8106 9.84264L68.6028 10.929L68.4624 12.4902L67.553 17.2095C67.5477 17.237 67.5455 17.265 67.5463 17.293L67.6317 20.1677C67.638 20.3782 67.4724 20.554 67.2618 20.5602L67.0909 20.5653C66.8803 20.5716 66.7147 20.7473 66.721 20.9579L66.7513 21.9768C66.7538 22.0627 66.6862 22.1344 66.6003 22.137C66.5144 22.1395 66.4468 22.2112 66.4494 22.2971L66.487 23.5649C66.4933 23.7755 66.3277 23.9512 66.1171 23.9575L63.8927 24.0236C63.6822 24.0298 63.5064 23.8642 63.5002 23.6537L63.3099 17.2522C63.3048 17.0803 63.1614 16.9452 62.9895 16.9503C62.8177 16.9554 62.6743 16.8202 62.6692 16.6484L62.6232 15.1006C62.6169 14.8901 62.4411 14.7244 62.2306 14.7307L62.1219 14.7339C61.9113 14.7402 61.7356 14.5746 61.7293 14.364L61.7185 13.9985C61.7123 13.7923 61.5402 13.6301 61.334 13.6363C61.1278 13.6424 60.9557 13.4802 60.9496 13.274L60.9439 13.0839C60.9405 12.968 60.8819 12.8617 60.8154 12.7669C60.3709 12.134 60.058 10.0506 59.9508 9.00624L59.8522 5.68761C59.8484 5.56152 59.7432 5.46234 59.6171 5.46609C59.476 5.47028 59.3631 5.60099 59.3719 5.74186C59.3988 6.17123 59.434 7.14332 59.453 9.02103C59.4755 11.2493 58.9839 12.4098 58.6438 12.836C58.5689 12.9298 58.5137 13.0434 58.5173 13.1634L58.5255 13.4395C58.5301 13.5941 58.4084 13.7232 58.2538 13.7278C58.0991 13.7324 57.9775 13.8615 57.9821 14.0162L57.9976 14.5372C58.0038 14.7478 57.8382 14.9235 57.6277 14.9298L57.519 14.933C57.3084 14.9393 57.1428 15.115 57.149 15.3256L57.1969 16.9356C57.202 17.1074 57.0668 17.2509 56.895 17.256C56.7232 17.2611 56.588 17.4045 56.5931 17.5764L56.7797 23.8534C56.7859 24.0639 56.6203 24.2397 56.4097 24.246L54.986 24.2883C54.7787 24.2944 54.6045 24.1338 54.5938 23.9267L53.5994 4.69159C53.5921 4.55032 53.5072 4.4247 53.3789 4.36522L52.9173 4.15133C52.7862 4.09059 52.7007 3.961 52.6964 3.8166L52.6759 3.12669C52.6697 2.91614 52.4939 2.75052 52.2834 2.75678L51.1168 2.79145C50.9063 2.7977 50.7305 2.63209 50.7242 2.42154L50.559 -3.13989C50.5544 -3.29454 50.4253 -3.41619 50.2706 -3.41159C50.116 -3.407 49.9943 -3.2779 49.9989 -3.12325L50.1642 2.43818C50.1705 2.64873 50.0048 2.82449 49.7943 2.83075L49.0011 2.85432C48.7905 2.86058 48.6249 3.03634 48.6312 3.24689L48.6509 3.91162C48.6556 4.06885 48.5633 4.21282 48.4184 4.27416L47.787 4.54158C47.6445 4.6019 47.5526 4.74228 47.5543 4.89695L47.764 24.1285C47.7663 24.3363 47.6017 24.5077 47.3939 24.5139L45.9714 24.5562C45.7608 24.5624 45.5851 24.3968 45.5788 24.1862L45.2686 13.7479C45.2624 13.5373 45.0866 13.3717 44.876 13.378L42.7761 13.4404C42.5655 13.4466 42.3898 13.281 42.3835 13.0705L42.3366 11.4916C42.331 11.3025 42.1732 11.1539 41.9842 11.1595C41.7952 11.1651 41.6465 11.3229 41.6521 11.5119L41.699 13.0908C41.7053 13.3014 41.5397 13.4771 41.3291 13.4834L39.4158 13.5402C39.2053 13.5465 39.0397 13.7223 39.0459 13.9328L39.3561 24.3712C39.3624 24.5817 39.1968 24.7575 38.9862 24.7637L38.3175 24.7836C38.1069 24.7899 37.9312 24.6242 37.9249 24.4137L37.1395 -2.01698C37.1332 -2.22753 36.9574 -2.39315 36.7469 -2.38689L32.6583 -2.26539C32.4467 -2.2591 32.2807 -2.08174 32.2885 -1.87021L33.2482 24.3828C33.2583 24.6597 32.9178 24.8651 32.6432 24.8277C32.4321 24.7989 32.0806 24.6079 31.802 24.4347C31.6333 24.3298 31.5912 24.1069 31.7003 23.9408C31.8192 23.7597 31.7568 23.5156 31.5656 23.4137L31.2776 23.2603C31.1331 23.1834 30.9556 23.2072 30.8365 23.3196L30.8094 23.3452C30.6409 23.5041 30.3698 23.4773 30.2616 23.2726C30.1715 23.1023 30.0952 22.9186 30.0913 22.7859C30.0852 22.5795 29.821 22.338 29.6225 22.1937C29.5518 22.1424 29.4952 22.0733 29.4679 21.9903C29.354 21.6438 29.2068 21.1306 29.2946 21.128C29.3713 21.1257 29.421 20.878 29.4464 20.6693C29.4595 20.5619 29.5115 20.4622 29.5968 20.3956L29.8943 20.1636C30.0689 20.0274 29.9886 19.748 29.7684 19.7252L29.6514 19.7132C29.5456 19.7022 29.4803 19.5922 29.5214 19.4941C29.5826 19.3482 29.4159 19.2126 29.2855 19.302L29.1133 19.4201C28.9934 19.5023 28.8282 19.4478 28.7808 19.3104L28.7572 19.2421C28.6763 19.008 28.3515 18.9915 28.2474 19.2162L28.2168 19.2823C28.1415 19.4448 27.9312 19.4894 27.7964 19.3715L27.685 19.2741C27.5238 19.1331 27.2765 19.2813 27.3247 19.4899C27.3561 19.6256 27.2554 19.7561 27.1162 19.7602L27.0252 19.7629C26.9044 19.7665 26.7937 19.6963 26.7455 19.5855L26.4884 18.9942C26.4473 18.8998 26.4467 18.7931 26.4822 18.6965C26.5601 18.4843 26.6537 18.1866 26.649 18.0302C26.6416 17.7813 26.3816 17.4154 26.625 17.2213C26.8503 17.0416 26.7533 16.5407 27.0229 16.4385C27.6098 16.216 28.0984 15.9679 27.5214 15.949C26.5239 15.9164 26.5788 15.6656 25.9583 15.7463C25.5348 15.8014 25.697 16.2353 25.888 16.5379C25.9328 16.6091 25.9018 16.7065 25.8216 16.732C25.7201 16.7643 25.6908 16.9292 25.7347 17.0263C25.7807 17.1281 25.8025 17.264 25.7594 17.4338C25.6479 17.8731 25.6534 18.0598 25.9097 18.3013C26.166 18.5428 26.0582 19.1066 26.0748 19.6666C26.0915 20.2267 26.1593 20.4115 26.1155 21.0356C26.0718 21.6597 26.264 21.8409 26.3299 21.9635C26.3836 22.0632 26.1912 22.2116 26.4966 22.5879C26.6384 22.7625 26.6535 23.0195 26.4811 23.164C24.9902 24.4138 22.5463 25.36 21.1191 25.7971C20.8834 25.8693 20.6486 25.6946 20.6413 25.4483L20.467 19.5841C20.4619 19.4123 20.3185 19.2771 20.1466 19.2822C19.9748 19.2874 19.8314 19.1522 19.8263 18.9804L19.7819 17.4869C19.7788 17.3838 19.6928 17.3027 19.5897 17.3058C19.4866 17.3088 19.4005 17.2278 19.3974 17.1246L19.3912 16.9166C19.3855 16.7222 19.2232 16.5693 19.0288 16.5751C18.9354 16.5778 18.8448 16.5434 18.7768 16.4794L17.1742 14.9693C17.0209 14.8248 16.7795 14.832 16.635 14.9853L15.0125 16.7072C14.9431 16.7808 14.9058 16.879 14.9088 16.9801L14.9152 17.1956C14.9183 17.2987 14.8372 17.3847 14.7341 17.3878C14.631 17.3909 14.5499 17.4769 14.553 17.58L14.5974 19.0735C14.6035 19.2797 14.4413 19.4518 14.2351 19.4579C14.0289 19.4641 13.8667 19.6362 13.8728 19.8424L13.9986 24.0738C14.0047 24.28 13.8425 24.4521 13.6363 24.4583C13.4301 24.4644 13.258 24.3022 13.2518 24.096L13.2167 22.9137C13.2126 22.7762 13.0979 22.6681 12.9604 22.6722C12.8229 22.6763 12.7082 22.5681 12.7041 22.4307L12.6534 20.726C12.6493 20.5875 12.5692 20.4639 12.4535 20.3878C12.2721 20.2685 12.0743 20.1013 12.0701 19.9582C12.0627 19.7093 11.539 18.8529 9.9211 18.901C8.74847 18.9359 8.2897 19.597 8.17623 20.0155C8.15514 20.0933 8.12187 20.1686 8.06659 20.2272L7.77697 20.5346C7.7076 20.6082 7.67032 20.7064 7.67332 20.8075L7.72873 22.6719C7.73332 22.8266 7.61168 22.9557 7.45703 22.9603C7.30238 22.9649 7.18073 23.094 7.18533 23.2486L7.21861 24.3687C7.22321 24.5234 7.10157 24.6525 6.94692 24.6571C6.79226 24.6617 6.67062 24.7907 6.67522 24.9454L6.78131 28.5156C6.78757 28.7261 6.62195 28.9019 6.4114 28.9081L4.18699 28.9742C3.97644 28.9805 3.81082 29.1563 3.81708 29.3668L3.82216 29.5377C3.82841 29.7483 3.6628 29.924 3.45225 29.9303L3.34355 29.9335C3.133 29.9398 2.96738 30.1155 2.97364 30.3261Z" stroke="#FFF4DF" stroke-width="4.39932" mask="url(#path-1-outside-1_26131_3819)"/>
<path d="M11.3281 37.2489L9.44027 37.305L9.22971 30.2197L12.1888 30.1317L14.3371 36.5778L13.9647 36.6658L13.7692 30.0848L15.657 30.0287L15.8675 37.114L12.8845 37.2027L10.7368 30.7807L11.1332 30.692L11.3281 37.2489ZM17.7394 31.4091L18.5877 30.5089L18.6698 33.271L18.222 32.765L20.768 32.6894L20.8108 34.1305L18.2649 34.2061L18.6819 33.6793L18.7646 36.4606L17.8643 35.6123L21.3854 35.5077L21.4282 36.9488L16.8311 37.0854L16.6206 30L21.2177 29.8634L21.2605 31.3045L17.7394 31.4091ZM23.1322 36.8981L21.9417 29.8419L23.9353 29.7826L24.7517 36.5471L24.4774 36.5409L25.2707 29.743L27.6389 29.6726L28.8295 36.4115L28.5562 36.4341L28.9695 29.633L30.963 29.5738L30.1936 36.6883L27.2297 36.7764L26.3985 30.9691L26.5906 30.9634L26.1009 36.8099L23.1322 36.8981ZM39.7779 29.3119L37.8124 34.0339L37.8845 36.4598L35.9534 36.5171L35.8813 34.0913L33.6533 29.4939L35.7044 29.4329L37.2044 33.1529L36.4455 33.1755L37.7219 29.3729L39.7779 29.3119ZM43.1245 36.429C42.6666 36.4427 42.2287 36.3771 41.8109 36.2325C41.3964 36.0878 41.0259 35.8648 40.6997 35.5636C40.3734 35.2623 40.1122 34.8855 39.916 34.433C39.7199 33.9804 39.6129 33.4547 39.5951 32.8559C39.5772 32.2538 39.6512 31.7228 39.817 31.2627C39.986 30.8025 40.2229 30.4141 40.5276 30.0973C40.8355 29.7804 41.1921 29.5391 41.5975 29.3732C42.0059 29.204 42.4423 29.1125 42.9067 29.0987C43.371 29.0849 43.8121 29.1503 44.2299 29.2949C44.6476 29.4364 45.0179 29.6562 45.3409 29.9543C45.667 30.2523 45.9266 30.626 46.1194 31.0754C46.3123 31.5248 46.4176 32.0506 46.4355 32.6526C46.4533 33.2515 46.3777 33.7826 46.2088 34.246C46.0399 34.7093 45.7999 35.1011 45.4889 35.4212C45.1811 35.7413 44.823 35.9859 44.4145 36.1551C44.0093 36.3242 43.5793 36.4155 43.1245 36.429ZM43.08 34.9303C43.317 34.9233 43.544 34.8524 43.7612 34.7177C43.9815 34.5798 44.1573 34.3502 44.2888 34.029C44.4235 33.7076 44.4826 33.2684 44.466 32.7111C44.4494 32.1507 44.3644 31.7173 44.211 31.411C44.0576 31.1014 43.8685 30.8875 43.6439 30.7691C43.4191 30.6476 43.1882 30.5904 42.9512 30.5974C42.7174 30.6044 42.4904 30.6752 42.27 30.81C42.0528 30.9414 41.8767 31.1662 41.742 31.4843C41.6071 31.7993 41.548 32.2369 41.5646 32.7974C41.5813 33.3578 41.6664 33.7944 41.8199 34.1071C41.9733 34.4167 42.1625 34.6338 42.3874 34.7586C42.6153 34.88 42.8462 34.9373 43.08 34.9303ZM47.3118 36.1796L47.1012 29.0942L50.2428 29.0009C51.0498 28.9769 51.6508 29.1385 52.0457 29.4858C52.4438 29.8297 52.6523 30.3203 52.6712 30.9576C52.6819 31.3163 52.6221 31.6242 52.4919 31.8813C52.3618 32.1383 52.1962 32.3388 51.9954 32.4826C51.7945 32.6264 51.5934 32.7093 51.3922 32.7313C51.6007 32.7379 51.7959 32.7818 51.9778 32.8629C52.1597 32.9441 52.308 33.0791 52.4226 33.268C52.5403 33.4536 52.6039 33.7081 52.6135 34.0316C52.6196 34.2365 52.6254 34.4319 52.631 34.6176C52.6365 34.8034 52.6423 34.9987 52.6484 35.2037C52.6534 35.3734 52.671 35.5347 52.7012 35.6877C52.7345 35.8374 52.781 35.9466 52.8408 36.0153L50.9001 36.073C50.8465 35.9944 50.8031 35.8819 50.7699 35.7355C50.7399 35.5889 50.7224 35.4308 50.7173 35.2611C50.7121 35.0849 50.7074 34.9264 50.7032 34.7855C50.699 34.6446 50.6943 34.4861 50.689 34.3099C50.6814 34.0537 50.621 33.8536 50.5077 33.7095C50.3944 33.5623 50.1952 33.4928 49.9102 33.5013L48.6228 33.5396L49.1096 32.9337L49.2044 36.1234L47.3118 36.1796ZM49.1045 32.7608L48.58 32.0985L49.8866 32.0597C50.0499 32.0548 50.1914 32.0169 50.3111 31.9461C50.434 31.8751 50.5272 31.7762 50.5907 31.6493C50.6574 31.5191 50.6882 31.3691 50.6831 31.1994C50.677 30.9913 50.5963 30.8126 50.4412 30.6633C50.2894 30.514 50.0853 30.4431 49.8291 30.4507L48.4841 30.4907L49.0194 29.8978L49.1045 32.7608ZM56.7386 32.558L56.7522 31.0767L59.7296 35.8106L57.6256 35.8731L55.749 32.5874L56.5835 32.678L55.3437 34.4793L55.4616 33.269L55.5408 35.9351L53.6049 35.9926L53.3944 28.9072L55.3302 28.8497L55.4353 32.3852L55.0755 32.2516L57.3622 28.7893L59.3941 28.7289L56.7386 32.558ZM68.7478 32.8646C68.7574 33.188 68.7047 33.5165 68.5896 33.8501C68.4776 34.1804 68.2992 34.487 68.0544 34.7699C67.8128 35.0527 67.5007 35.2848 67.1183 35.466C66.739 35.644 66.2851 35.7408 65.7567 35.7565C65.0618 35.7771 64.4615 35.6395 63.9559 35.3436C63.4534 35.0444 63.0626 34.6233 62.7837 34.0803C62.5079 33.5372 62.3593 32.9054 62.3379 32.1849C62.3165 31.4643 62.4273 30.8264 62.6705 30.271C62.9167 29.7124 63.2818 29.2705 63.7657 28.9452C64.2529 28.6198 64.8439 28.4468 65.5388 28.4261C66.1153 28.409 66.6098 28.4921 67.0223 28.6753C67.438 28.8585 67.7739 29.1049 68.0299 29.4146C68.2891 29.7243 68.4721 30.0586 68.5789 30.4176C68.6503 30.6623 68.6894 30.8999 68.6963 31.1305L66.7508 31.1883C66.7477 31.0858 66.7387 30.9963 66.7236 30.9199C66.6886 30.7126 66.6207 30.5335 66.5201 30.3826C66.4195 30.2318 66.2894 30.117 66.13 30.0384C65.9738 29.9565 65.7915 29.9187 65.5834 29.9249C65.3336 29.9323 65.11 30.0126 64.9126 30.1659C64.7153 30.3193 64.5604 30.5562 64.4482 30.8769C64.3391 31.1975 64.2922 31.6139 64.3074 32.1263C64.3225 32.6355 64.3941 33.0485 64.5221 33.3652C64.6533 33.6818 64.822 33.9124 65.0283 34.0569C65.2345 34.2014 65.4625 34.27 65.7123 34.2625C65.8916 34.2572 66.0492 34.2205 66.185 34.1523C66.3239 34.0809 66.4396 33.9845 66.5322 33.8632C66.6247 33.7418 66.6943 33.6019 66.7409 33.4435C66.7874 33.2818 66.8078 33.1082 66.8023 32.9224L68.7478 32.8646ZM69.5707 35.5181L69.3601 28.4328L71.272 28.3759L71.4825 35.4613L69.5707 35.5181ZM77.2637 29.6403L74.7274 29.7156L75.5757 28.8154L75.7694 35.3339L73.8335 35.3915L73.6398 28.8729L74.5401 29.7212L72.0085 29.7964L71.9657 28.3553L77.2209 28.1992L77.2637 29.6403ZM83.7339 28.0056L81.7684 32.7277L81.8405 35.1535L79.9094 35.2109L79.8373 32.7851L77.6093 28.1876L79.6604 28.1267L81.1604 31.8467L80.4015 31.8692L81.6779 28.0667L83.7339 28.0056Z" fill="#FFF4DF"/>
</svg>
