<svg width="264" height="48" fill="none" xmlns="http://www.w3.org/2000/svg"><path d="M5.388 33.64C2.427 33.64 0 31.39 0 28.548V16.782c0-2.841 2.43-5.115 5.388-5.115h.866c2.986 0 5.42 2.286 5.42 5.115v11.767c0 2.84-2.43 5.09-5.42 5.09h-.866Zm.866-18.697h-.866c-.865 0-1.569.833-1.569 1.839V28.52c0 .998.696 1.84 1.57 1.84h.865c.893 0 1.593-.834 1.593-1.84V16.782c0-.998-.696-1.84-1.593-1.84ZM19.758 16.175h.555c2.262 0 4.157 2.198 4.157 4.922v7.594c0 2.728-1.895 4.945-4.157 4.945h-.555c-1.087 0-2.206-.611-2.572-1.026l-.193.749h-3.49v-22.25h3.687v6.093c.362-.419 1.481-1.03 2.572-1.03l-.005.003Zm-1.059 14.302h.555c.866 0 1.534-.804 1.534-1.754V21.1c0-.974-.668-1.779-1.534-1.779H18.7c-.837 0-1.509.805-1.509 1.779v7.622c0 .917.672 1.755 1.51 1.755ZM29.683 28.695c0 .974.7 1.779 1.533 1.779h.555c.837 0 1.533-.805 1.533-1.779v-.362c0-1.002-.809-1.67-2.205-1.839-2.82-.302-5.087-2.197-5.087-4.893v-.471c0-2.753 2.318-4.958 5.192-4.958h.555c2.873 0 5.22 2.197 5.22 4.958v.748h-3.687v-.748c0-.974-.7-1.779-1.533-1.779h-.555c-.837 0-1.51.805-1.51 1.779v.362c0 1.002.785 1.67 2.178 1.839 2.82.362 5.11 2.14 5.11 4.897v.471c0 2.753-2.342 4.946-5.219 4.946h-.555c-2.874 0-5.22-2.197-5.22-4.946v-.752h3.686v.752h.005l.004-.004ZM44.667 33.64h-.555c-2.873 0-5.22-2.197-5.22-4.945v-7.566c0-2.752 2.347-4.958 5.22-4.958h.555c2.874 0 5.22 2.198 5.22 4.958v5.364H42.57v2.198c0 .974.7 1.778 1.533 1.778h.555c.866 0 1.534-.804 1.534-1.778v-.672h3.686v.672c0 2.752-2.346 4.945-5.22 4.945h.008v.005Zm1.534-12.51c0-.975-.672-1.78-1.534-1.78h-.555c-.837 0-1.533.805-1.533 1.78v2.196h3.634V21.13H46.2ZM85.196 23.27v-2.14c0-.974-.668-1.779-1.533-1.779h-.254c-.837 0-1.533.805-1.533 1.779v.724H78.19v-.724c0-2.753 2.346-4.958 5.22-4.958h.253c2.849 0 5.22 2.169 5.22 4.87v8.59c0 .363.253.556.555.556h.893v3.175c-.644.057-1.26.057-1.895.057-.725 0-1.57-.274-2.04-.998-.673.587-1.454 1.223-3.184 1.223h-.555c-2.873 0-4.749-1.972-4.749-4.946 0-4.088 3.385-5.509 5.86-5.509.386 0 1.058.024 1.424.085l.008-.008h-.004v.004Zm-1.533 7.208c.865 0 1.533-.833 1.533-1.779v-2.25c-.422-.168-1.002-.22-1.364-.22-1.171 0-2.234.865-2.234 2.478 0 1.083.672 1.779 1.51 1.779h.555v-.008ZM98.17 16.175h.555c2.258 0 4.157 2.198 4.157 4.922v7.594c0 2.728-1.895 4.945-4.157 4.945h-.555c-1.087 0-2.206-.611-2.572-1.026l-.193.749h-3.489v-22.25h3.686v6.093c.362-.419 1.481-1.03 2.572-1.03l-.004.003ZM97.11 30.477h.556c.865 0 1.533-.804 1.533-1.754V21.1c0-.974-.668-1.779-1.533-1.779h-.556c-.837 0-1.509.805-1.509 1.779v7.622c0 .917.672 1.755 1.51 1.755ZM111.835 16.448v13.747h3.823v3.17h-11.457v-3.17h3.952V19.623h-3.912v-3.171h7.598l-.004-.004Zm.282-4.201a2.247 2.247 0 0 1-2.258 2.25 2.247 2.247 0 0 1-2.257-2.25 2.247 2.247 0 0 1 2.257-2.25 2.247 2.247 0 0 1 2.258 2.25ZM138.575 16.449v13.747h3.823v3.17h-11.46v-3.17h3.951V19.624h-3.911v-3.171h7.597v-.004Zm.282-4.201a2.245 2.245 0 0 1-2.257 2.25 2.248 2.248 0 0 1-2.262-2.25 2.246 2.246 0 0 1 2.262-2.25 2.242 2.242 0 0 1 2.257 2.25ZM125.116 11.109v19.087h4.02v3.17h-11.771v-3.17h4.057V14.28h-4.049v-3.171H125.116ZM173.331 30.36h.837c.893 0 1.593-.834 1.593-1.84V27.21h3.827v1.336c0 2.84-2.43 5.09-5.42 5.09h-.837c-2.986 0-5.421-2.25-5.421-5.09V16.758c0-2.841 2.431-5.091 5.421-5.091h.837c2.986 0 5.42 2.25 5.42 5.09v1.313h-3.827v-1.312c0-.998-.696-1.807-1.593-1.807h-.837c-.894 0-1.594.805-1.594 1.807v11.766c0 .998.7 1.84 1.594 1.84v-.009.005ZM186.185 33.64c-2.962 0-5.388-2.25-5.388-5.091V16.782c0-2.841 2.431-5.115 5.388-5.115h.866c2.985 0 5.42 2.286 5.42 5.115v11.767c0 2.84-2.43 5.09-5.42 5.09h-.866Zm.866-18.697h-.866c-.865 0-1.561.833-1.561 1.839V28.52c0 .998.7 1.84 1.561 1.84h.866c.893 0 1.593-.834 1.593-1.84V16.782c0-.998-.7-1.84-1.593-1.84ZM197.395 18.819v14.548h-3.489V11.95h4.415l4.189 14.58V11.95h3.489v21.417h-4.382l-4.218-14.548h-.004ZM57.878 21.346c0-1.585 1.115-1.755 2.346-1.755 1.09 0 2.483.057 3.541.11l-.877-3.172a70.41 70.41 0 0 0-2.664-.109c-3.127 0-6.064.612-6.064 4.922l.024 8.841h-3.067v3.171h12.648v-3.17H57.87v-8.842h.008v.004ZM147.801 28.662v-9.038h4.559l-.877-3.171h-3.682V12.73h-3.687v3.727h-3.038v3.171h3.038v9.038c0 4.338 2.407 4.87 6.065 4.87 1.171 0 2.294-.085 2.934-.141v-3.09c-.954.027-2.008.056-2.934.056-1.231 0-2.378-.11-2.378-1.699ZM77.72 16.449l-4.635 16.913h-4.02L64.4 16.45h3.827l2.874 11.823 2.849-11.823h3.77Z" fill="#FFF4DF"/><path d="M152.844 16.449h3.939l3.296 11.622 2.934-11.622h3.747l-6.58 21.477c-.785 2.696-2.205 3.449-4.833 3.449h-2.024v-2.801h1.895c.724 0 1.686-.535 1.94-1.51l1.275-4.426-5.585-16.19h-.004Z" fill="#FFF4DF"/><rect x="214.773" y="7.031" width="42.221" height="35.27" rx="3.814" transform="rotate(-6.348 214.773 7.03)" fill="#FFF4DF" stroke="#FFF4DF" stroke-width="1.911"/><path d="m228.892 37.114 18.849-2.097-.339-3.055-13.665 1.52c-.045-.401-.056-.502 4.655-1.86 6.781-1.955 7.991-3.147 7.727-5.519-.235-2.11-2.993-4.224-9.222-3.53-6.29.7-9.001 3.401-8.708 6.034.054.482.184.915.311 1.145l3.758-.418a2.212 2.212 0 0 1-.23-.788c-.159-1.427 1.424-2.56 5.121-2.97 3.517-.392 4.571.305 4.667 1.169.108.964-.151 1.38-6.213 3.214-6.81 2.06-7.1 3.658-6.711 7.155ZM216.144 10.715a2.859 2.859 0 0 1 2.525-3.157l34.381-3.825a2.859 2.859 0 0 1 3.157 2.525l1.225 11.008-40.063 4.457-1.225-11.008Z" fill="#73BFA1"/><path d="m220.823 18.613 2.136-.238-.618-5.558.011-.001 5.545 5.01 2.182-.243-.841-7.556-2.136.238.506 4.547-.011.001-4.537-4.099-3.077.343.84 7.556Zm16.436-1.69c3.525-.392 4.76-2.354 4.521-4.501-.233-2.09-1.982-3.71-5.393-3.33-3.41.38-4.761 2.343-4.529 4.433.252 2.262 1.979 3.78 5.401 3.399Zm-.182-1.63c-1.803.2-2.747-.66-2.898-2.014-.136-1.229.598-2.357 2.39-2.556 1.791-.2 2.756.74 2.893 1.968.144 1.298-.536 2.396-2.385 2.602Zm10.26.37 2.642-.294 3.201-8.006-2.251.25-2.307 6.117h-.012l-3.641-5.453-2.514.28 4.882 7.106Z" fill="#FFF4DF"/></svg>