<svg xmlns="http://www.w3.org/2000/svg" width="270" height="317" fill="none"><g clip-path="url(#a)"><path fill="#fff" d="M0 0h270v317H0z"/><path fill="#FEEEC6" d="M0 0h270v317H0z"/><path fill="#FFBFB9" d="M183.781 247.469v-2.157a4.313 4.313 0 0 0-4.312-4.312h-2.157a4.313 4.313 0 0 0-4.312 4.312v2.157a4.313 4.313 0 0 0 4.312 4.312h2.157a4.313 4.313 0 0 0 4.312-4.312Z"/><path fill="#FBC55A" d="M10.781 91.469v-2.156A4.312 4.312 0 0 0 6.47 85H4.312A4.313 4.313 0 0 0 0 89.313v2.156a4.312 4.312 0 0 0 4.313 4.312h2.156a4.312 4.312 0 0 0 4.312-4.312Z"/><path fill="#73BFA1" d="M260.781 165.469v-2.157a4.313 4.313 0 0 0-4.312-4.312h-2.157a4.313 4.313 0 0 0-4.312 4.312v2.157a4.313 4.313 0 0 0 4.312 4.312h2.157a4.313 4.313 0 0 0 4.312-4.312Z"/></g><defs><clipPath id="a"><path fill="#fff" d="M0 0h270v317H0z"/></clipPath></defs></svg>