<svg xmlns="http://www.w3.org/2000/svg" width="1600" height="83" fill="none"><path fill="#FEEEC6" d="M0 0h1600v83H0z"/><path fill="#FFBFB9" d="M1241.78 59.469v-2.157a4.311 4.311 0 0 0-4.31-4.312h-2.16c-2.38 0-4.31 1.93-4.31 4.313v2.156a4.311 4.311 0 0 0 4.31 4.312h2.16a4.31 4.31 0 0 0 4.31-4.312Z"/><path fill="#73BFA1" d="M351.781 19.469v-2.157A4.313 4.313 0 0 0 347.469 13h-2.157A4.313 4.313 0 0 0 341 17.313v2.156a4.312 4.312 0 0 0 4.312 4.312h2.157a4.312 4.312 0 0 0 4.312-4.312Z"/><path fill="#FBC55A" d="M1562.78 61.469v-2.157a4.311 4.311 0 0 0-4.31-4.312h-2.16c-2.38 0-4.31 1.93-4.31 4.313v2.156a4.311 4.311 0 0 0 4.31 4.312h2.16a4.31 4.31 0 0 0 4.31-4.312Zm-279-47v-2.156A4.311 4.311 0 0 0 1279.47 8h-2.16c-2.38 0-4.31 1.93-4.31 4.313v2.156a4.311 4.311 0 0 0 4.31 4.312h2.16a4.31 4.31 0 0 0 4.31-4.312Z"/><path fill="#73BFA1" d="M1068.78 70.469v-2.156a4.311 4.311 0 0 0-4.31-4.313h-2.16c-2.38 0-4.31 1.93-4.31 4.313v2.156a4.311 4.311 0 0 0 4.31 4.312h2.16a4.31 4.31 0 0 0 4.31-4.312Z"/><path fill="#FFBFB9" d="M36.781 48.469v-2.157A4.312 4.312 0 0 0 32.47 42h-2.157A4.313 4.313 0 0 0 26 46.313v2.156a4.312 4.312 0 0 0 4.313 4.312h2.156a4.312 4.312 0 0 0 4.312-4.312Z"/></svg>