<svg xmlns="http://www.w3.org/2000/svg" width="210" height="57" fill="none"><path fill="#F3602E" d="M7.806 54.23c-.867 0-1.686-.144-2.457-.48-.77-.338-1.445-.772-2.023-1.398a6.11 6.11 0 0 1-1.348-2.312c-.337-.915-.482-1.974-.482-3.13 0-1.204.145-2.216.482-3.131.337-.915.77-1.686 1.348-2.264.578-.626 1.253-1.06 2.023-1.397.771-.337 1.59-.481 2.505-.481.867 0 1.686.144 2.456.481.771.337 1.445.771 2.023 1.397a6.297 6.297 0 0 1 1.349 2.264c.337.915.482 1.926.482 3.13 0 1.157-.145 2.216-.482 3.131-.337.916-.77 1.686-1.349 2.312-.578.627-1.252 1.108-2.023 1.397a6.437 6.437 0 0 1-2.504.482Zm0-2.407c.578 0 1.156-.145 1.637-.482.53-.337.915-.867 1.205-1.59.289-.722.481-1.685.481-2.89 0-1.204-.144-2.119-.481-2.841-.29-.723-.723-1.253-1.205-1.542-.481-.337-1.06-.481-1.637-.481-.578 0-1.156.144-1.638.481a3.335 3.335 0 0 0-1.204 1.542c-.289.722-.482 1.685-.482 2.841 0 1.205.145 2.168.482 2.89.289.723.722 1.253 1.204 1.59.482.337 1.06.481 1.638.481Zm12.57 2.167h-2.89V39.83h4.625l4.72 13.052-.482.145V39.829h2.89v14.16h-4.672l-4.72-13.052.53-.144V53.99ZM48.458 42.14h-4.672l1.204-1.396V53.99h-2.986V40.745l1.204 1.396h-4.672V39.83h9.922v2.312Zm14.257-2.312v14.16h-2.986V47.2l1.348.915h-7.802l1.348-.867v6.743h-2.986V39.83h2.986v6.839l-1.348-.915h7.802l-1.348.915v-6.84h2.986Zm5.298 2.312 1.349-1.396v5.876l-.675-.867h5.202v2.312h-5.202l.675-.867v5.924l-1.349-1.397h6.936v2.312h-8.622V39.83h8.622v2.312h-6.936ZM84.774 53.99V39.83h5.78c1.492 0 2.6.337 3.323 1.01.722.675 1.108 1.638 1.108 2.89 0 .723-.145 1.35-.434 1.88-.289.529-.626.914-1.011 1.203-.386.29-.771.434-1.156.482.385.048.77.145 1.108.289.337.144.626.433.867.819.24.385.337.867.337 1.445v2.697c0 .337 0 .626.048.867.048.24.144.433.24.578h-2.986c-.096-.145-.144-.337-.192-.578a4.324 4.324 0 0 1-.097-.867v-2.312c0-.578-.144-.963-.433-1.3-.29-.29-.77-.482-1.397-.482h-2.938l.819-.963v6.502h-2.986Zm2.938-6.743-.82-1.06h2.987a2.24 2.24 0 0 0 1.012-.24 2.58 2.58 0 0 0 .722-.723c.193-.337.289-.674.289-1.108 0-.578-.193-1.06-.53-1.397-.337-.337-.867-.481-1.493-.481h-2.986l.867-.964v5.973h-.048Zm16.617 6.984c-.867 0-1.686-.145-2.457-.482-.77-.337-1.445-.77-2.023-1.397a6.11 6.11 0 0 1-1.348-2.312c-.338-.915-.482-1.974-.482-3.13 0-1.204.144-2.216.482-3.131.337-.915.77-1.686 1.348-2.264.578-.626 1.253-1.06 2.023-1.397.771-.337 1.59-.481 2.505-.481.867 0 1.686.144 2.456.481.771.337 1.445.771 2.023 1.397a6.297 6.297 0 0 1 1.349 2.264c.337.915.481 1.926.481 3.13 0 1.157-.144 2.216-.481 3.131-.337.916-.771 1.686-1.349 2.312-.578.627-1.252 1.108-2.023 1.397-.77.337-1.589.482-2.504.482Zm0-2.409c.578 0 1.156-.144 1.637-.481.53-.337.915-.867 1.204-1.59.289-.722.482-1.685.482-2.89 0-1.204-.144-2.119-.482-2.841-.289-.723-.722-1.253-1.204-1.542-.481-.337-1.059-.481-1.637-.481-.578 0-1.156.144-1.638.481a3.332 3.332 0 0 0-1.204 1.542c-.289.722-.482 1.685-.482 2.841 0 1.205.145 2.168.482 2.89.289.723.722 1.253 1.204 1.59.53.337 1.06.481 1.638.481Zm8.429 2.168 3.516-14.16h4.72l3.516 14.16h-3.035l-2.841-12.33-2.842 12.33h-3.034Zm2.552-3.275v-2.312h6.695v2.312h-6.695Zm12.186 3.275V39.83h4.576c.963 0 1.83.192 2.601.53.77.336 1.445.818 2.023 1.444a5.995 5.995 0 0 1 1.3 2.216c.289.867.434 1.83.434 2.841a9.54 9.54 0 0 1-.434 2.89c-.289.867-.722 1.638-1.3 2.264-.578.626-1.205 1.108-2.023 1.445a6.431 6.431 0 0 1-2.601.53h-4.576Zm3.034-.867-1.348-1.397h2.553c.674 0 1.3-.193 1.878-.578.578-.385 1.012-.963 1.349-1.637.337-.723.481-1.59.481-2.553 0-1.012-.144-1.83-.481-2.553-.337-.722-.771-1.252-1.349-1.638-.578-.385-1.156-.578-1.878-.578h-2.553l1.348-1.396v12.33ZM159.958 53.991v-2.456c.048-.145.241-.337.53-.626.289-.29.626-.578 1.012-.964.385-.337.818-.722 1.252-1.06.433-.385.867-.722 1.252-1.01l1.301-1.157c.433-.385.77-.819 1.059-1.252.289-.434.434-.915.434-1.445 0-.626-.145-1.108-.434-1.493-.289-.385-.77-.578-1.397-.578-.529 0-.915.096-1.252.337-.289.24-.53.53-.626.963-.144.386-.193.867-.193 1.397h-2.986c0-1.06.193-1.926.578-2.697a3.777 3.777 0 0 1 1.734-1.734c.771-.385 1.686-.626 2.794-.626 1.059 0 1.926.192 2.649.578.722.385 1.252.915 1.589 1.59.337.674.53 1.396.53 2.263 0 .578-.096 1.108-.337 1.59-.193.481-.482.915-.819 1.348a8.395 8.395 0 0 1-1.108 1.156c-.385.337-.77.626-1.108.915-.578.482-1.107.867-1.493 1.204-.433.337-.77.627-1.011.916-.241.24-.385.433-.482.578h6.262v2.263h-9.73Zm17.966.241c-.915 0-1.686-.193-2.312-.578a4.436 4.436 0 0 1-1.541-1.59c-.386-.674-.675-1.444-.867-2.311a12.607 12.607 0 0 1-.289-2.746c0-.963.096-1.878.289-2.745.192-.867.481-1.686.867-2.36a4.435 4.435 0 0 1 1.541-1.59c.626-.385 1.397-.578 2.312-.578.915 0 1.686.193 2.312.578a4.435 4.435 0 0 1 1.541 1.59c.385.674.674 1.445.867 2.36.193.867.289 1.782.289 2.745 0 .964-.096 1.879-.289 2.746a8.25 8.25 0 0 1-.867 2.312 4.436 4.436 0 0 1-1.541 1.59c-.626.384-1.397.577-2.312.577Zm0-2.312c.433 0 .771-.144 1.06-.482.289-.337.529-.867.674-1.589.144-.722.241-1.686.241-2.89 0-1.204-.097-2.167-.241-2.89-.145-.722-.385-1.252-.674-1.59-.289-.336-.627-.48-1.06-.48-.434 0-.771.144-1.06.48-.289.338-.53.868-.674 1.59-.145.723-.241 1.686-.241 2.89 0 1.204.096 2.167.241 2.89.144.723.385 1.252.674 1.59.289.337.675.481 1.06.481Zm7.995 2.071v-2.456c.048-.145.241-.337.53-.626.289-.29.626-.578 1.012-.964.385-.337.818-.722 1.252-1.06.433-.385.867-.722 1.252-1.01l1.301-1.157c.433-.385.77-.819 1.059-1.252.289-.434.434-.915.434-1.445 0-.626-.145-1.108-.434-1.493-.289-.385-.77-.578-1.396-.578-.53 0-.916.096-1.253.337-.289.24-.53.53-.626.963-.144.386-.193.867-.193 1.397h-2.986c0-1.06.193-1.926.578-2.697a3.777 3.777 0 0 1 1.734-1.734c.771-.385 1.686-.626 2.794-.626 1.059 0 1.926.192 2.649.578.722.385 1.252.915 1.589 1.59.337.674.53 1.396.53 2.263 0 .578-.096 1.108-.337 1.59-.193.481-.482.915-.819 1.348a8.395 8.395 0 0 1-1.108 1.156c-.385.337-.77.626-1.108.915-.578.482-1.107.867-1.493 1.204-.433.337-.77.627-1.011.916-.241.24-.385.433-.482.578h6.262v2.263h-9.73Zm20.374-7.465c.53 0 1.012.192 1.445.481.434.29.723.675.915 1.156.241.482.337 1.06.337 1.638 0 .77-.192 1.493-.529 2.167-.338.675-.867 1.204-1.59 1.59-.722.385-1.637.626-2.745.626-.964 0-1.782-.145-2.409-.385a4.007 4.007 0 0 1-1.541-1.06c-.385-.434-.626-.963-.819-1.493a7.648 7.648 0 0 1-.24-1.83h2.986c0 .626.096 1.156.241 1.493.144.337.385.626.722.77.289.145.674.193 1.06.193.53 0 .963-.193 1.3-.53.337-.337.53-.915.53-1.637 0-.338-.048-.627-.096-.867-.048-.241-.193-.482-.337-.675a1.058 1.058 0 0 0-.675-.385 3.201 3.201 0 0 0-1.011-.145h-.482v-2.07h.482c.385 0 .722-.049 1.011-.145.289-.096.482-.241.675-.434.144-.192.289-.385.337-.626.096-.24.096-.481.096-.722 0-.578-.144-1.012-.482-1.3-.337-.29-.77-.386-1.252-.386-.578 0-1.108.144-1.493.482-.385.337-.578.915-.578 1.782h-2.986c0-.626.096-1.204.289-1.734.192-.578.481-1.06.867-1.445.385-.434.915-.77 1.541-1.012.626-.24 1.397-.385 2.264-.385 1.108 0 2.023.193 2.745.578.723.385 1.252.867 1.541 1.445.289.578.482 1.204.482 1.878 0 .53-.096 1.012-.337 1.493-.193.434-.53.82-.915 1.108-.289.241-.771.386-1.349.386ZM6.888 26.25c-2.986 0-5.443-2.264-5.443-5.154V9.247c0-2.841 2.457-5.153 5.443-5.153h.867c2.986 0 5.443 2.312 5.443 5.153v11.849c0 2.842-2.457 5.154-5.443 5.154h-.867Zm.867-18.833h-.867c-.867 0-1.59.819-1.59 1.83v11.849c0 1.012.723 1.83 1.59 1.83h.867c.915 0 1.59-.818 1.59-1.83V9.247c0-1.011-.723-1.83-1.59-1.83ZM21.337 8.621h.578c2.264 0 4.19 2.216 4.19 4.961v7.658c0 2.746-1.926 5.01-4.19 5.01h-.578c-1.108 0-2.216-.627-2.6-1.012l-.194.77h-3.516V3.517h3.71V9.68c.384-.434 1.492-1.06 2.6-1.06Zm-1.06 14.45h.578c.867 0 1.542-.82 1.542-1.782v-7.707c0-.963-.675-1.782-1.542-1.782h-.578c-.819 0-1.54.819-1.54 1.782v7.707c0 .915.673 1.782 1.54 1.782ZM31.305 21.236c0 .964.723 1.783 1.541 1.783h.578c.82 0 1.542-.82 1.542-1.782v-.386c0-1.011-.82-1.686-2.216-1.83-2.842-.29-5.105-2.216-5.105-4.913v-.482c0-2.793 2.311-5.009 5.25-5.009h.577c2.89 0 5.25 2.216 5.25 5.01v.77h-3.708v-.77c0-.964-.723-1.783-1.542-1.783h-.578c-.818 0-1.54.82-1.54 1.782v.386c0 1.011.77 1.685 2.215 1.83 2.842.385 5.153 2.167 5.153 4.913v.482c0 2.793-2.36 5.009-5.25 5.009h-.578c-2.89 0-5.25-2.216-5.25-5.01v-.77h3.661v.77ZM46.433 26.246h-.578c-2.89 0-5.25-2.216-5.25-5.01v-7.61c0-2.793 2.36-5.009 5.25-5.009h.578c2.89 0 5.25 2.216 5.25 5.01v5.394h-7.369v2.215c0 .964.723 1.783 1.541 1.783h.578c.867 0 1.542-.82 1.542-1.782v-.675h3.708v.674c0 2.794-2.36 5.01-5.25 5.01Zm1.542-12.62c0-.963-.675-1.782-1.542-1.782h-.578c-.818 0-1.54.82-1.54 1.782v2.216h3.66v-2.216ZM87.229 15.794v-2.168c0-.963-.675-1.782-1.542-1.782h-.24c-.867 0-1.542.82-1.542 1.782v.723h-3.709v-.723c0-2.793 2.36-5.009 5.25-5.009h.241c2.89 0 5.25 2.168 5.25 4.913v8.67c0 .385.241.578.578.578h.915v3.179c-.626.048-1.252.048-1.926.048-.723 0-1.59-.29-2.071-1.012-.675.578-1.445 1.253-3.227 1.253h-.578c-2.89 0-4.769-1.975-4.769-5.01 0-4.142 3.42-5.539 5.877-5.539.433 0 1.107.049 1.493.097Zm-1.542 7.273c.867 0 1.542-.82 1.542-1.782V19.02c-.434-.193-1.012-.241-1.397-.241-1.156 0-2.264.867-2.264 2.505 0 1.107.674 1.782 1.541 1.782h.578ZM100.282 8.621h.578c2.264 0 4.191 2.216 4.191 4.961v7.658c0 2.746-1.927 5.01-4.191 5.01h-.578c-1.108 0-2.215-.627-2.6-1.012l-.193.77h-3.516V3.517h3.708V9.68c.386-.434 1.493-1.06 2.601-1.06Zm-1.06 14.45h.579c.867 0 1.541-.82 1.541-1.782v-7.707c0-.963-.674-1.782-1.541-1.782h-.578c-.867 0-1.542.819-1.542 1.782v7.707c0 .915.723 1.782 1.542 1.782ZM114.053 8.909V22.78h3.853v3.179h-11.511V22.78h3.997V12.087h-3.949V8.91h7.61Zm.289-4.239a2.262 2.262 0 0 1-2.264 2.264 2.262 2.262 0 0 1-2.264-2.264c0-1.252.964-2.264 2.216-2.264 1.3 0 2.312 1.012 2.312 2.264ZM140.98 8.909V22.78h3.853v3.179h-11.56V22.78h3.998V12.087h-3.949V8.91h7.658Zm.289-4.239a2.262 2.262 0 0 1-2.264 2.264 2.262 2.262 0 0 1-2.264-2.264 2.262 2.262 0 0 1 2.264-2.264 2.262 2.262 0 0 1 2.264 2.264ZM127.397 3.516v19.218h4.045v3.178h-11.848v-3.178h4.094V6.742h-4.094V3.516h7.803ZM175.947 22.926h.867c.915 0 1.589-.818 1.589-1.83v-1.349h3.853v1.349c0 2.842-2.456 5.154-5.442 5.154h-.867c-2.987 0-5.443-2.264-5.443-5.154V9.247c0-2.841 2.456-5.153 5.443-5.153h.867c2.986 0 5.442 2.264 5.442 5.153v1.3h-3.853v-1.3c0-1.011-.722-1.83-1.589-1.83h-.867c-.916 0-1.59.819-1.59 1.83v11.849c0 1.012.723 1.83 1.59 1.83ZM188.904 26.25c-2.987 0-5.443-2.264-5.443-5.154V9.247c0-2.841 2.456-5.153 5.443-5.153h.867c2.986 0 5.442 2.312 5.442 5.153v11.849c0 2.842-2.456 5.154-5.442 5.154h-.867Zm.867-18.833h-.867c-.867 0-1.59.819-1.59 1.83v11.849c0 1.012.723 1.83 1.59 1.83h.867c.915 0 1.589-.818 1.589-1.83V9.247c0-1.011-.674-1.83-1.589-1.83ZM200.176 11.319V25.96h-3.516V4.383h4.431l4.239 14.69V4.383h3.516V25.96h-4.431l-4.239-14.642ZM59.725 13.871c0-1.59 1.108-1.782 2.36-1.782 1.108 0 2.505.048 3.564.096l-.867-3.179a73.248 73.248 0 0 0-2.697-.096c-3.13 0-6.117.626-6.117 4.961l.048 8.91h-3.082v3.18h12.715v-3.18h-5.924v-8.91ZM150.276 21.24v-9.152h4.575l-.867-3.179h-3.708V5.152h-3.709V8.91h-3.083v3.18h3.083v9.102c0 4.383 2.408 4.913 6.117 4.913 1.156 0 2.312-.096 2.938-.144v-3.131c-.963.048-2.023.048-2.938.048-1.252.048-2.408-.048-2.408-1.637ZM79.715 8.91l-4.672 17.05h-4.046l-4.72-17.05h3.854l2.89 11.897L75.91 8.91h3.804Z"/><path fill="#F3602E" d="M155.332 8.91h3.95l3.323 11.704 2.938-11.704h3.757l-6.647 21.626c-.771 2.698-2.215 3.468-4.865 3.468h-2.022v-2.842h1.926c.723 0 1.686-.53 1.975-1.54l1.3-4.48-5.635-16.232ZM208.845 31.21h-43.493v2.843h43.493V31.21ZM152.828 31.21H1.445v2.843h151.383V31.21ZM149.166 49.367a2.408 2.408 0 1 0 0-4.816 2.408 2.408 0 0 0 0 4.816Z"/></svg>