<svg xmlns="http://www.w3.org/2000/svg" width="742" height="150" fill="none"><path fill="#FEEEC6" d="M0 0h742v150H0z"/><path fill="#FBC55A" d="M724.781 15.469v-2.156A4.313 4.313 0 0 0 720.469 9h-2.157A4.313 4.313 0 0 0 714 13.313v2.156a4.312 4.312 0 0 0 4.312 4.312h2.157a4.312 4.312 0 0 0 4.312-4.312Z"/><path fill="#73BFA1" d="M593.781 129.469v-2.157a4.313 4.313 0 0 0-4.312-4.312h-2.157a4.313 4.313 0 0 0-4.312 4.312v2.157a4.313 4.313 0 0 0 4.312 4.312h2.157a4.313 4.313 0 0 0 4.312-4.312Z"/><path fill="#FFBFB9" d="M358.781 11.469V9.313A4.313 4.313 0 0 0 354.469 5h-2.157A4.313 4.313 0 0 0 348 9.313v2.156a4.312 4.312 0 0 0 4.312 4.312h2.157a4.312 4.312 0 0 0 4.312-4.312Z"/><path fill="#FBC55A" d="M78.781 138.469v-2.157A4.312 4.312 0 0 0 74.47 132h-2.156A4.313 4.313 0 0 0 68 136.312v2.157a4.313 4.313 0 0 0 4.313 4.312h2.156a4.312 4.312 0 0 0 4.312-4.312Z"/><path fill="#FFBFB9" d="M726.781 140.469v-2.157a4.313 4.313 0 0 0-4.312-4.312h-2.157a4.313 4.313 0 0 0-4.312 4.312v2.157a4.313 4.313 0 0 0 4.312 4.312h2.157a4.313 4.313 0 0 0 4.312-4.312Z"/><path fill="#73BFA1" d="M15.781 16.469v-2.157A4.312 4.312 0 0 0 11.47 10H9.313A4.313 4.313 0 0 0 5 14.313v2.156a4.312 4.312 0 0 0 4.313 4.312h2.156a4.312 4.312 0 0 0 4.312-4.312Z"/></svg>