<svg width="48" height="48" viewBox="0 0 48 48" fill="none" xmlns="http://www.w3.org/2000/svg">
<circle opacity="0.2" cx="24" cy="24" r="24" fill="#FF671D"/>
<circle opacity="0.2" cx="24" cy="24" r="18" fill="#FF671D"/>
<path d="M18.814 16.2656C17.7758 16.8421 16.9201 17.6982 16.344 18.7366" stroke="#FF671D" stroke-width="1.5" stroke-linecap="round" stroke-linejoin="round"/>
<path d="M17.975 13.5C15.8086 14.1159 14.1155 15.8095 13.5 17.976" stroke="#FF671D" stroke-width="1.5" stroke-linecap="round" stroke-linejoin="round"/>
<path d="M16.5 30H31.5" stroke="#FF671D" stroke-width="1.5" stroke-linecap="round" stroke-linejoin="round"/>
<path d="M31.5 29.9996C31.5 29.9996 30 28.6936 30 23.9996C30 20.2496 27.438 16.9316 24 16.9316C20.562 16.9316 18 20.2496 18 23.9996C18 28.7186 16.5 29.9996 16.5 29.9996" stroke="#FF671D" stroke-width="1.5" stroke-linecap="round" stroke-linejoin="round"/>
<path d="M25.5 33C25.5 33.8284 24.8284 34.5 24 34.5C23.1716 34.5 22.5 33.8284 22.5 33" stroke="#FF671D" stroke-width="1.5" stroke-linecap="round" stroke-linejoin="round"/>
<path d="M24 16.932V15" stroke="#FF671D" stroke-width="1.5" stroke-linecap="round" stroke-linejoin="round"/>
<path d="M29.186 16.2656C29.7017 16.5536 30.1755 16.9109 30.594 17.3276C31.0115 17.7459 31.3689 18.2201 31.656 18.7366" stroke="#FF671D" stroke-width="1.5" stroke-linecap="round" stroke-linejoin="round"/>
<path d="M30.0249 13.5C32.1913 14.1159 33.8844 15.8095 34.4999 17.976" stroke="#FF671D" stroke-width="1.5" stroke-linecap="round" stroke-linejoin="round"/>
</svg>
