<svg width="33" height="24" viewBox="0 0 33 24" fill="none" xmlns="http://www.w3.org/2000/svg">
<path fill-rule="evenodd" clip-rule="evenodd" d="M14.8937 4.18841C13.2088 5.18866 11.9849 6.97108 11.9849 9.51195V11.5345L10.1759 10.63C7.81413 9.44907 5.09678 10.3986 3.82043 12.6321C3.05793 13.9664 3.01762 16.003 3.95731 17.7259C4.85535 19.3724 6.67561 20.7619 9.73487 20.7619L25.2344 20.7619C27.2543 20.7619 28.5612 20.2037 29.3452 19.5121C30.1262 18.823 30.4849 17.9205 30.4849 17.0119C30.4849 16.0712 30.1012 15.0212 29.3508 14.2709C28.6347 13.5549 27.5228 13.0481 25.8894 13.2523L24.1293 13.4723L24.5141 11.7407C24.9724 9.67853 24.8297 7.97232 24.2244 6.66077C23.6294 5.37163 22.5279 4.33205 20.7955 3.68239C18.8448 2.95092 16.6161 3.16584 14.8937 4.18841ZM13.6175 2.0387C15.992 0.629022 19.013 0.343968 21.6733 1.34156C23.9408 2.19189 25.5893 3.65228 26.4943 5.61312C27.1966 7.13467 27.4137 8.87516 27.2127 10.7324C28.8249 10.8674 30.1451 11.5298 31.1184 12.5029C32.3683 13.7526 32.9849 15.4526 32.9849 17.0119C32.9849 18.6033 32.3434 20.2008 30.9991 21.3868C29.6578 22.5701 27.7144 23.2619 25.2344 23.2619L9.73487 23.2619C5.79395 23.2619 3.11433 21.4014 1.76253 18.9229C0.452378 16.5208 0.412292 13.5574 1.64984 11.3917C3.25119 8.58945 6.47015 7.07058 9.63429 7.79569C10.1013 5.19325 11.6229 3.22279 13.6175 2.0387Z" fill="#FB825A"/>
</svg>
