<?xml version="1.0" encoding="utf-8"?>
<!-- Generator: Adobe Illustrator 24.2.0, SVG Export Plug-In . SVG Version: 6.00 Build 0)  -->
<svg version="1.1" id="Layer_1" xmlns="http://www.w3.org/2000/svg" xmlns:xlink="http://www.w3.org/1999/xlink" x="0px" y="0px"
	 viewBox="0 0 20 20" style="enable-background:new 0 0 20 20;" xml:space="preserve">
<style type="text/css">
	.st0{fill:none;}
	.st1{fill:#3B697E;}
	.st2{fill:#E6522C;}
	.st3{fill:url(#SVGID_1_);}
	.st4{fill-rule:evenodd;clip-rule:evenodd;fill:url(#SVGID_2_);}
	.st5{fill:url(#SVGID_3_);}
	.st6{fill:url(#SVGID_4_);}
	.st7{fill:url(#SVGID_5_);}
	.st8{fill:url(#SVGID_6_);}
	.st9{fill:url(#SVGID_7_);}
	.st10{fill:url(#SVGID_8_);}
	.st11{fill:url(#SVGID_9_);}
	.st12{fill:url(#SVGID_10_);}
	.st13{fill:url(#SVGID_11_);}
	.st14{fill:url(#SVGID_12_);}
	.st15{fill:url(#SVGID_13_);}
	.st16{fill:url(#SVGID_14_);}
	.st17{fill:url(#SVGID_15_);}
	.st18{fill:url(#SVGID_16_);}
	.st19{fill:#F05A27;}
	.st20{fill:url(#SVGID_17_);}
	.st21{fill:url(#SVGID_18_);}
	.st22{fill:url(#SVGID_19_);}
</style>
<g>
	<path class="st0" d="M15.4,12.8c1.4,0,2.6-1.2,2.6-2.6s-1.2-2.6-2.6-2.6c-1.4,0-2.6,1.2-2.6,2.6l0,0C12.8,11.6,14,12.8,15.4,12.8z
		 M15.4,8.6c0.9,0,1.6,0.7,1.6,1.6c0,0.9-0.7,1.6-1.6,1.6c-0.9,0-1.6-0.7-1.6-1.6C13.7,9.3,14.5,8.6,15.4,8.6
		C15.4,8.6,15.4,8.6,15.4,8.6z"/>
	<path class="st0" d="M19.5,10c0-5.3-4.3-9.5-9.5-9.5S0.5,4.7,0.5,10s4.3,9.5,9.5,9.5S19.5,15.3,19.5,10z M5.7,10.4H4.9
		c-0.1,0.9-1,1.6-1.9,1.4c-0.9-0.1-1.6-1-1.4-1.9c0.1-0.9,1-1.6,1.9-1.4c0.8,0.1,1.4,0.8,1.4,1.6h1.1v0l0,0l1,2.6l1.2-2.7h1.4
		L10.8,7l1.1,3.2h0.6c0-0.9,0.5-1.8,1.3-2.3l-2.8-2.6C10.4,5.8,9.3,5.7,8.7,5S8.2,3.2,8.9,2.7s1.7-0.5,2.3,0.2
		c0.5,0.6,0.5,1.5,0,2.1l2.8,2.7c1.4-0.7,3.1-0.2,3.9,1.2c0.7,1.4,0.2,3.1-1.2,3.9c-0.9,0.4-1.9,0.4-2.7-0.1l-2.7,2.7L11,15.3
		l2.7-2.7c-0.7-0.5-1.1-1.3-1.2-2.1h-0.8l-0.9-2.7l-1,2.5H8.3L7,13.5L5.7,10.4z M8.3,16.5c0-0.9,0.7-1.6,1.6-1.6
		c0.9,0,1.6,0.7,1.6,1.6c0,0.9-0.7,1.6-1.6,1.6l0,0C9,18.2,8.3,17.4,8.3,16.5L8.3,16.5z"/>
	<path class="st1" d="M20,10c0-5.5-4.5-10-10-10S0,4.5,0,10s4.5,10,10,10S20,15.5,20,10z M0.5,10c0-5.3,4.3-9.5,9.5-9.5
		s9.5,4.3,9.5,9.5s-4.3,9.5-9.5,9.5S0.5,15.3,0.5,10L0.5,10z"/>
	<circle class="st1" cx="15.4" cy="10.2" r="1.6"/>
	<circle class="st1" cx="10" cy="16.5" r="1.6"/>
	<path class="st1" d="M9.7,10.3l1-2.5l0.9,2.7h0.8c0.1,0.8,0.5,1.6,1.2,2.1L11,15.3l0.2,0.2l2.7-2.7c1.4,0.8,3.1,0.3,3.9-1.1
		c0.8-1.4,0.3-3.1-1.1-3.9c-0.8-0.5-1.9-0.5-2.7-0.1L11.3,5c0.6-0.7,0.5-1.7-0.2-2.3c-0.7-0.6-1.7-0.5-2.3,0.2S8.2,4.6,8.9,5.2
		c0.6,0.5,1.5,0.5,2.1,0l2.8,2.6c-0.8,0.5-1.3,1.4-1.3,2.3h-0.6L10.8,7l-1.2,3.1H8.1L7,12.8l-1-2.6l0,0v0H4.9c0-0.9-0.8-1.6-1.7-1.6
		s-1.6,0.8-1.6,1.7c0,0.9,0.8,1.6,1.7,1.6c0.8,0,1.5-0.6,1.6-1.4h0.9L7,13.5l1.4-3.2L9.7,10.3z M15.4,7.6c1.4,0,2.6,1.2,2.6,2.6
		s-1.2,2.6-2.6,2.6c-1.4,0-2.6-1.2-2.6-2.6c0,0,0,0,0,0C12.8,8.8,14,7.6,15.4,7.6z"/>
</g>
</svg>
