<svg width="88" height="63" viewBox="0 0 88 63" fill="none" xmlns="http://www.w3.org/2000/svg">
<path d="M28.5 32C28.1022 32 27.7206 32.158 27.4393 32.4393C27.158 32.7206 27 33.1022 27 33.5V39.5C27 39.8978 26.842 40.2794 26.5607 40.5607C26.2794 40.842 25.8978 41 25.5 41H4.5C4.10218 41 3.72064 40.842 3.43934 40.5607C3.15804 40.2794 3 39.8978 3 39.5V33.5C3 33.1022 2.84196 32.7206 2.56066 32.4393C2.27936 32.158 1.89782 32 1.5 32C1.10218 32 0.720644 32.158 0.43934 32.4393C0.158035 32.7206 0 33.1022 0 33.5V39.5C0 40.6935 0.474106 41.8381 1.31802 42.682C2.16193 43.5259 3.30653 44 4.5 44H25.5C26.6935 44 27.8381 43.5259 28.682 42.682C29.5259 41.8381 30 40.6935 30 39.5V33.5C30 33.1022 29.842 32.7206 29.5607 32.4393C29.2794 32.158 28.8978 32 28.5 32ZM13.935 34.565C14.0777 34.7016 14.2459 34.8086 14.43 34.88C14.6096 34.9594 14.8037 35.0003 15 35.0003C15.1963 35.0003 15.3904 34.9594 15.57 34.88C15.7541 34.8086 15.9223 34.7016 16.065 34.565L22.065 28.565C22.3475 28.2825 22.5061 27.8995 22.5061 27.5C22.5061 27.1005 22.3475 26.7175 22.065 26.435C21.7825 26.1525 21.3995 25.9939 21 25.9939C20.6005 25.9939 20.2175 26.1525 19.935 26.435L16.5 29.885V15.5C16.5 15.1022 16.342 14.7206 16.0607 14.4393C15.7794 14.158 15.3978 14 15 14C14.6022 14 14.2206 14.158 13.9393 14.4393C13.658 14.7206 13.5 15.1022 13.5 15.5V29.885L10.065 26.435C9.92514 26.2951 9.75911 26.1842 9.57637 26.1085C9.39364 26.0328 9.19779 25.9939 9 25.9939C8.80221 25.9939 8.60636 26.0328 8.42363 26.1085C8.24089 26.1842 8.07486 26.2951 7.935 26.435C7.79514 26.5749 7.6842 26.7409 7.60851 26.9236C7.53282 27.1064 7.49386 27.3022 7.49386 27.5C7.49386 27.6978 7.53282 27.8936 7.60851 28.0764C7.6842 28.2591 7.79514 28.4251 7.935 28.565L13.935 34.565Z" fill="#AAB8C1"/>
<path d="M82.6492 28.0087C81.7314 26.0019 80.148 24.3372 78.1416 23.2699C76.1353 22.2026 73.8168 21.7915 71.5416 22.0997C69.2664 22.4079 67.1601 23.4183 65.5457 24.9762C63.9313 26.534 62.8979 28.5531 62.6039 30.7241C61.1734 31.0504 59.9185 31.8657 59.0775 33.0153C58.2366 34.1648 57.8681 35.5685 58.0422 36.9597C58.2162 38.351 58.9205 39.6329 60.0215 40.5621C61.1224 41.4912 62.5433 42.0029 64.0143 42H80.5187C82.3182 41.9953 84.0559 41.3746 85.415 40.2511C86.7741 39.1277 87.664 37.5763 87.9223 35.88C88.1806 34.1837 87.7902 32.4555 86.8222 31.0106C85.8542 29.5656 84.3732 28.5002 82.6492 28.0087ZM80.5187 39.1417H64.0143C63.2184 39.1417 62.4551 38.8406 61.8924 38.3045C61.3296 37.7685 61.0135 37.0415 61.0135 36.2834C61.0135 35.5254 61.3296 34.7983 61.8924 34.2623C62.4551 33.7263 63.2184 33.4251 64.0143 33.4251C64.4122 33.4251 64.7938 33.2746 65.0752 33.0066C65.3566 32.7385 65.5147 32.375 65.5147 31.996C65.5185 30.3057 66.1513 28.6715 67.3005 27.3836C68.4498 26.0957 70.0412 25.2375 71.792 24.9616C73.5427 24.6857 75.3395 25.0098 76.863 25.8764C78.3866 26.7431 79.5383 28.0961 80.1135 29.6951C80.2016 29.938 80.3567 30.1538 80.5627 30.3198C80.7686 30.4858 81.0178 30.5958 81.2839 30.6383C82.3836 30.8316 83.3685 31.408 84.0466 32.2551C84.7246 33.1022 85.0474 34.1594 84.9518 35.2207C84.8563 36.2821 84.3494 37.2715 83.5299 37.9964C82.7104 38.7212 81.6369 39.1295 80.5187 39.1417Z" fill="#AAB8C1"/>
<line x1="51.475" y1="1.7744" x2="39.1702" y2="60.8375" stroke="#AAB8C1" stroke-width="3" stroke-linecap="round" stroke-linejoin="round"/>
</svg>
