<svg width="28" height="27" viewBox="0 0 28 27" fill="none" xmlns="http://www.w3.org/2000/svg">
<path d="M14.4863 0H14.3279H14.1357H13.9548H13.7964C6.17447 0 0 6.0418 0 13.5C0 20.9582 6.17447 27 13.7964 27C13.9095 27 14.0226 27 14.1357 27C14.2488 27 14.3619 27 14.475 27C15.21 26.9779 15.9451 26.9115 16.6688 26.7787C24.1664 25.4398 29.1309 18.402 27.7512 11.0656C26.5864 4.7582 21.0339 0.132787 14.4863 0ZM16.8158 2.15779L17.042 2.21311L17.3926 2.30164L17.6187 2.36803L17.9806 2.47869L18.1955 2.54508L18.58 2.68893L18.7496 2.75533C19.1228 2.91025 19.496 3.07623 19.8465 3.27541L19.9935 3.36393C20.1179 3.43033 20.2423 3.49672 20.3554 3.57418L20.5363 3.68484C20.6381 3.75123 20.7512 3.81762 20.853 3.89508L21.0452 4.0168L21.3506 4.23811L21.5315 4.38197L21.8255 4.61434L22.0065 4.7582L22.2892 5.01271L22.4475 5.15656L22.504 5.21189C21.4523 5.76516 20.3554 6.20779 19.2019 6.53975C18.5687 4.96844 17.7205 3.48566 16.6914 2.13566L16.8158 2.15779ZM9.68013 12.5705C9.74798 11.2869 9.97415 10.0033 10.336 8.76393C11.5913 9.00738 12.8691 9.1291 14.147 9.1291C15.4249 9.1291 16.7027 9.00738 17.958 8.76393C18.3199 10.0033 18.5347 11.2758 18.6139 12.5705H9.68013ZM18.5913 14.4295C18.5234 15.7131 18.2973 16.9967 17.9354 18.2361C15.4249 17.7602 12.8352 17.7602 10.3247 18.2361C9.96284 16.9967 9.74798 15.7242 9.66882 14.4295H18.5913V14.4295ZM14.1357 2.00287C15.4814 3.47459 16.5557 5.15656 17.3134 6.98238C15.21 7.35861 13.0501 7.35861 10.9467 6.98238C11.727 5.15656 12.8013 3.47459 14.1357 2.00287ZM5.84653 5.16762L6.00485 5.02377L6.28756 4.7582L6.4685 4.61434L6.75121 4.38197L6.93215 4.23811L7.23748 4.02787L7.42973 3.89508L7.74636 3.6959L7.9273 3.57418L8.28918 3.36393L8.43619 3.27541C8.79806 3.09836 9.15993 2.94344 9.53312 2.78852L9.70275 2.72213L10.0872 2.57828L10.2908 2.51189L10.6527 2.40123L10.8788 2.33484L11.2294 2.24631L11.4669 2.19098L11.58 2.16885C10.5509 3.52992 9.71405 5.0127 9.09208 6.57295C7.94992 6.24098 6.84168 5.79836 5.78998 5.24508L5.84653 5.16762ZM4.52342 6.66148C5.76737 7.35861 7.10178 7.91188 8.48142 8.32131C8.08562 9.70451 7.84814 11.132 7.76898 12.5705H2.28433C2.46527 10.4348 3.24556 8.3877 4.52342 6.66148ZM4.52342 20.3385C3.23425 18.6123 2.46527 16.5652 2.28433 14.4295H7.76898C7.83683 15.868 8.07431 17.2955 8.48142 18.6787C7.10178 19.0881 5.77867 19.6414 4.52342 20.3385ZM11.4669 24.8311L11.2294 24.7758L10.8788 24.6873L10.6527 24.6209L10.2908 24.5102L10.0759 24.4439L9.69144 24.3L9.52181 24.2115C9.14863 24.0787 8.77544 23.9238 8.42488 23.7467L8.27787 23.6582C8.15347 23.5918 8.04039 23.5254 7.91599 23.448L7.73506 23.3373C7.63328 23.2709 7.52019 23.2045 7.41842 23.127L7.22617 23.0053L6.92084 22.784L6.7399 22.6402L6.44588 22.4078L6.26494 22.2639L5.98223 22.0094L5.82391 21.8656L5.76737 21.8102C6.81906 21.257 7.91599 20.8143 9.06947 20.4824C9.70275 22.0537 10.5396 23.5365 11.5574 24.8865L11.4669 24.8311ZM14.1357 24.9971C12.79 23.5254 11.7157 21.8434 10.958 20.0176C13.0614 19.6414 15.2213 19.6414 17.3247 20.0176C16.5557 21.8434 15.4814 23.5254 14.1357 24.9971ZM22.4362 21.8324L22.2779 21.9762L21.9952 22.2307L21.8142 22.3746L21.5315 22.607L21.3506 22.7508L21.0452 22.9611L20.853 23.0939L20.5363 23.293L20.3554 23.4148L19.9935 23.625L19.8578 23.7357C19.496 23.9127 19.1341 24.0676 18.7609 24.2004L18.5913 24.2668L18.2068 24.4107L17.9919 24.4771L17.63 24.5877L17.4039 24.6541L17.0533 24.7426L16.8158 24.798H16.7027C17.7318 23.4369 18.5687 21.9541 19.1906 20.3939C20.3328 20.7258 21.441 21.1684 22.4927 21.7217L22.4362 21.8324ZM23.748 20.3385C22.504 19.6414 21.1696 19.0881 19.79 18.6787C20.1858 17.2955 20.4233 15.868 20.5024 14.4295H25.9871C25.8174 16.5652 25.0372 18.6123 23.748 20.3385ZM20.5024 12.5705C20.4346 11.132 20.1971 9.70451 19.79 8.32131C21.1696 7.91188 22.4927 7.35861 23.748 6.66148C25.0372 8.3877 25.8061 10.4348 25.9871 12.5705H20.5024Z" fill="#FBB15A"/>
</svg>
