<svg width="88" height="88" viewBox="0 0 88 88" fill="none" xmlns="http://www.w3.org/2000/svg">
<rect width="88" height="88" rx="10" fill="#23232A"/>
<path d="M69 38.9C68.9 38 68.8 36.9 68.4 35.7C68.1 34.5 67.6 33.2 66.9 31.8C66.2 30.4 65.3 29 64.2 27.6C63.8 27.1 63.3 26.5 62.7 26C63.5 22.8 61.7 20.1 61.7 20.1C58.7 19.9 56.7 21 56 21.6C55.9 21.6 55.8 21.5 55.6 21.4C55.1 21.2 54.6 21 54 20.8C53.4 20.6 52.9 20.5 52.3 20.3C51.7 20.2 51.1 20.1 50.6 20C50.5 20 50.4 20 50.3 20C49 15.8 45.2 14 45.2 14C41 16.7 40.2 20.4 40.2 20.4C40.2 20.4 40.2 20.5 40.2 20.6C40 20.7 39.7 20.7 39.5 20.8C39.2 20.9 38.9 21 38.5 21.1C38.2 21.2 37.9 21.3 37.5 21.5C36.9 21.8 36.2 22.1 35.6 22.4C35 22.7 34.4 23.1 33.8 23.5C33.7 23.5 33.7 23.4 33.7 23.4C27.8 21.2 22.6 23.9 22.6 23.9C22.1 30.1 24.9 34.1 25.5 34.8C25.4 35.2 25.2 35.6 25.1 36C24.7 37.4 24.3 38.9 24.1 40.4C24.1 40.6 24 40.8 24 41C18.6 43.7 17 49.2 17 49.2C21.5 54.4 26.8 54.7 26.8 54.7C27.5 55.9 28.2 57 29.1 58.1C29.5 58.5 29.9 59 30.2 59.4C28.6 64.1 30.4 68 30.4 68C35.4 68.2 38.7 65.8 39.4 65.2C39.9 65.4 40.4 65.5 40.9 65.7C42.4 66.1 44 66.3 45.6 66.4C46 66.4 46.4 66.4 46.8 66.4H47H47.1H47.3H47.5C49.9 69.8 54 70.3 54 70.3C57 67.2 57.1 64.1 57.1 63.4C57.1 63.3 57.1 63.3 57.1 63.3V63.2C57.7 62.8 58.3 62.3 58.9 61.8C60.1 60.7 61.1 59.5 62 58.2C62.1 58.1 62.2 58 62.2 57.8C65.6 58 67.9 55.7 67.9 55.7C67.3 52.2 65.3 50.5 64.9 50.2C64.9 50.2 64.9 50.2 64.8 50.2C64.8 50 64.8 49.8 64.8 49.6C64.8 49.2 64.8 48.8 64.8 48.5V48V47.9V47.8C64.8 47.7 64.8 47.7 64.8 47.7V47.5V47.2C64.8 47.1 64.8 47 64.8 46.9C64.8 46.8 64.8 46.7 64.8 46.6V46.3V46C64.7 45.6 64.7 45.2 64.6 44.9C64.2 43.4 63.7 42 62.9 40.7C62.1 39.4 61.2 38.3 60.1 37.3C59 36.3 57.8 35.6 56.5 35C55.2 34.4 53.9 34.1 52.5 33.9C51.8 33.8 51.2 33.8 50.5 33.8H50.3H50.2H50.1H50H49.8C49.7 33.8 49.6 33.8 49.5 33.8C49.2 33.8 48.8 33.9 48.5 33.9C47.2 34.1 45.9 34.6 44.8 35.3C43.7 36 42.7 36.8 41.9 37.7C41.1 38.6 40.5 39.7 40.1 40.8C39.7 41.9 39.5 43 39.4 44.1C39.4 44.4 39.4 44.6 39.4 44.9C39.4 45 39.4 45 39.4 45.1V45.3C39.4 45.4 39.4 45.6 39.4 45.7C39.5 46.2 39.6 46.8 39.7 47.3C40 48.3 40.5 49.2 41 50C41.6 50.8 42.3 51.4 43 51.9C43.7 52.4 44.5 52.8 45.3 53C46.1 53.2 46.8 53.3 47.6 53.3C47.7 53.3 47.8 53.3 47.9 53.3H48H48.1C48.2 53.3 48.3 53.3 48.3 53.3C48.3 53.3 48.3 53.3 48.4 53.3H48.5H48.6C48.7 53.3 48.8 53.3 48.9 53.3C49 53.3 49.1 53.3 49.2 53.2C49.4 53.2 49.5 53.1 49.7 53.1C50 53 50.3 52.9 50.6 52.7C50.9 52.6 51.1 52.4 51.4 52.2C51.5 52.2 51.5 52.1 51.6 52C51.9 51.8 51.9 51.4 51.7 51.2C51.5 51 51.2 50.9 51 51.1C50.9 51.1 50.9 51.2 50.8 51.2C50.6 51.3 50.4 51.4 50.1 51.5C49.9 51.6 49.6 51.6 49.4 51.7C49.3 51.7 49.1 51.7 49 51.7C48.9 51.7 48.9 51.7 48.8 51.7C48.7 51.7 48.7 51.7 48.6 51.7C48.5 51.7 48.5 51.7 48.4 51.7C48.3 51.7 48.2 51.7 48.2 51.7H48.1H48C47.9 51.7 47.9 51.7 47.8 51.7C47.2 51.6 46.7 51.5 46.1 51.2C45.5 51 45 50.6 44.5 50.2C44 49.8 43.6 49.2 43.3 48.7C43 48.2 42.7 47.5 42.6 46.8C42.5 46.5 42.5 46.1 42.5 45.8C42.5 45.7 42.5 45.6 42.5 45.5V45.4V45.3C42.5 45.1 42.5 44.9 42.6 44.7C42.9 43.2 43.6 41.8 44.8 40.6C45.1 40.3 45.4 40.1 45.7 39.8C46 39.6 46.4 39.4 46.7 39.2C47.1 39 47.5 38.9 47.8 38.8C48.2 38.7 48.6 38.6 49 38.6C49.2 38.6 49.4 38.6 49.6 38.6C49.7 38.6 49.7 38.6 49.7 38.6H49.9H50H50.2C50.6 38.6 51.1 38.7 51.5 38.8C52.4 39 53.2 39.3 54 39.8C55.6 40.7 56.9 42.1 57.8 43.7C58.2 44.5 58.5 45.4 58.7 46.3C58.7 46.5 58.8 46.8 58.8 47V47.2V47.4C58.8 47.5 58.8 47.5 58.8 47.6C58.8 47.7 58.8 47.7 58.8 47.8V48V48.2C58.8 48.3 58.8 48.5 58.8 48.6C58.8 48.9 58.8 49.1 58.7 49.4C58.7 49.6 58.6 49.9 58.6 50.1C58.6 50.3 58.5 50.6 58.4 50.8C58.3 51.3 58.1 51.8 57.9 52.2C57.5 53.1 57 54 56.4 54.9C55.2 56.5 53.6 57.9 51.7 58.7C50.8 59.1 49.8 59.4 48.8 59.6C48.3 59.7 47.8 59.7 47.3 59.8H47.2H47.1H46.9H46.7H46.6C46.7 59.8 46.6 59.8 46.6 59.8C46.3 59.8 46.1 59.8 45.8 59.8C44.7 59.7 43.6 59.5 42.6 59.2C41.6 58.9 40.5 58.5 39.6 58C37.7 57 36 55.6 34.6 53.9C33.9 53.1 33.3 52.2 32.9 51.2C32.4 50.2 32 49.2 31.7 48.2C31.4 47.2 31.2 46.1 31.2 45.1V44.9V44.8V44.6V44V43.9V43.7V43.6C31.2 43.5 31.2 43.3 31.2 43.2C31.2 42.7 31.3 42.1 31.3 41.6C31.4 41.1 31.5 40.5 31.6 40C31.7 39.5 31.8 38.9 32 38.4C32.3 37.4 32.7 36.4 33.1 35.4C34 33.5 35.1 31.8 36.5 30.5C36.8 30.2 37.2 29.8 37.6 29.5C38 29.2 38.4 28.9 38.8 28.7C39.2 28.4 39.6 28.2 40 28C40.2 27.9 40.4 27.8 40.6 27.7C40.7 27.7 40.8 27.6 40.9 27.6C41 27.6 41.1 27.5 41.2 27.5C41.6 27.3 42.1 27.2 42.5 27C42.6 27 42.7 26.9 42.8 26.9C42.9 26.9 43 26.8 43.1 26.8C43.3 26.7 43.6 26.7 43.8 26.6C43.9 26.6 44 26.5 44.2 26.5C44.3 26.5 44.4 26.5 44.6 26.4C44.7 26.4 44.8 26.4 45 26.3H45.2H45.4C45.5 26.3 45.6 26.3 45.8 26.2C45.9 26.2 46.1 26.2 46.2 26.1C46.3 26.1 46.5 26.1 46.6 26.1C46.7 26.1 46.8 26.1 46.9 26.1H47.1H47.2H47.3C47.4 26.1 47.6 26.1 47.7 26.1H47.9C47.9 26.1 48 26.1 47.9 26.1H48C48.1 26.1 48.2 26.1 48.3 26.1C48.8 26.1 49.2 26.1 49.7 26.1C50.6 26.1 51.5 26.2 52.4 26.4C54.1 26.7 55.7 27.3 57.2 28C58.7 28.7 60 29.6 61.1 30.6C61.2 30.7 61.2 30.7 61.3 30.8C61.4 30.9 61.4 30.9 61.5 31C61.6 31.1 61.8 31.2 61.9 31.4C62 31.6 62.2 31.6 62.3 31.8C62.4 32 62.6 32.1 62.7 32.2C63.2 32.7 63.6 33.2 64 33.8C64.8 34.8 65.5 35.9 66 36.9C66 37 66.1 37 66.1 37.1C66.1 37.2 66.2 37.2 66.2 37.3C66.3 37.4 66.3 37.5 66.4 37.7C66.5 37.8 66.5 37.9 66.6 38.1C66.7 38.2 66.7 38.3 66.8 38.5C67 39 67.2 39.4 67.3 39.8C67.5 40.5 67.7 41.1 67.8 41.6C67.9 41.8 68.1 42 68.3 41.9C68.5 41.9 68.7 41.7 68.7 41.5C69.1 40.3 69.1 39.6 69 38.9Z" fill="url(#paint0_linear_13112:2068)"/>
<defs>
<linearGradient id="paint0_linear_13112:2068" x1="43.1903" y1="81.5" x2="43.1903" y2="23.5" gradientUnits="userSpaceOnUse">
<stop stop-color="#FFF100"/>
<stop offset="1" stop-color="#F05A28"/>
</linearGradient>
</defs>
</svg>
