<svg width="19" height="19" viewBox="0 0 19 19" fill="none" xmlns="http://www.w3.org/2000/svg">
<path d="M3.55 8.24737C3.55 7.97895 3.70584 7.8 3.86167 7.8H12.5883C12.7442 7.8 12.9 7.97895 12.9 8.24737V10.7526C12.9 11.0211 12.7442 11.2 12.5883 11.2H3.86167C3.70584 11.2 3.55 11.0211 3.55 10.7526V8.24737V8.24737Z" stroke="#FBB15A" stroke-width="2" stroke-linecap="round" stroke-linejoin="round"/>
<path d="M1 1.36757C1 1.18378 1.18889 1 1.56667 1H17.4333C17.7167 1 18 1.18378 18 1.45946V3.94054C18 4.21622 17.7167 4.4 17.4333 4.4H1.56667C1.18889 4.4 1 4.21622 1 3.94054V1.36757Z" stroke="#FBB15A" stroke-width="2" stroke-linecap="round" stroke-linejoin="round"/>
<path d="M7.8 15.0474C7.8 14.7789 8.0155 14.6 8.23099 14.6H17.569C17.8563 14.6 18 14.7789 18 15.0474V17.5526C18 17.8211 17.7845 18 17.569 18H8.23099C7.94367 18 7.8 17.8211 7.8 17.5526V15.0474V15.0474Z" stroke="#FBB15A" stroke-width="2" stroke-linecap="round" stroke-linejoin="round"/>
</svg>
