<svg width="23" height="26" viewBox="0 0 27 30" fill="none" xmlns="http://www.w3.org/2000/svg">
<path d="M26.88 12.9C26.84 12.41 26.75 11.84 26.59 11.22C26.43 10.6 26.18 9.91 25.83 9.2C25.48 8.49 25.02 7.76 24.42 7.04C24.19 6.76 23.93 6.49 23.66 6.22C24.07 4.58 23.16 3.17 23.16 3.17C21.59 3.07 20.59 3.66 20.22 3.93C20.16 3.9 20.1 3.88 20.03 3.85C19.76 3.74 19.49 3.64 19.2 3.55C18.91 3.46 18.63 3.38 18.33 3.31C18.03 3.24 17.73 3.18 17.43 3.13C17.38 3.12 17.32 3.11 17.27 3.11C16.57 0.92 14.6 0 14.6 0C12.4 1.39 11.99 3.34 11.99 3.34C11.99 3.34 11.98 3.38 11.97 3.46C11.85 3.49 11.73 3.53 11.61 3.57C11.44 3.62 11.28 3.68 11.11 3.74C10.94 3.81 10.78 3.87 10.61 3.94C10.28 4.08 9.95 4.24 9.63 4.42C9.31 4.6 9 4.79 8.7 5C8.66 4.98 8.63 4.96 8.63 4.96C5.58 3.8 2.88 5.2 2.88 5.2C2.63 8.44 4.09 10.48 4.38 10.84C4.31 11.04 4.24 11.24 4.18 11.45C3.95 12.18 3.79 12.93 3.68 13.72C3.66 13.83 3.65 13.94 3.64 14.06C0.83 15.44 0 18.29 0 18.29C2.35 20.99 5.08 21.16 5.08 21.16C5.08 21.16 5.09 21.16 5.09 21.15C5.44 21.77 5.84 22.36 6.29 22.91C6.48 23.14 6.68 23.36 6.88 23.58C6.03 26.02 7 28.06 7 28.06C9.61 28.16 11.33 26.92 11.69 26.63C11.95 26.72 12.21 26.8 12.48 26.87C13.28 27.08 14.1 27.2 14.92 27.23C15.12 27.24 15.33 27.24 15.54 27.24H15.64H15.71H15.84L15.97 27.23C17.2 28.99 19.36 29.23 19.36 29.23C20.9 27.61 20.99 26 20.99 25.65C20.99 25.65 20.99 25.64 20.99 25.63C20.99 25.6 20.99 25.58 20.99 25.58C20.99 25.55 20.99 25.53 20.99 25.5C21.31 25.27 21.62 25.03 21.91 24.77C22.53 24.21 23.06 23.58 23.51 22.89C23.55 22.83 23.59 22.76 23.63 22.69C25.37 22.79 26.6 21.61 26.6 21.61C26.31 19.79 25.28 18.91 25.06 18.74C25.06 18.74 25.05 18.73 25.04 18.72C25.03 18.71 25.02 18.7 25.02 18.7C25.01 18.69 24.99 18.68 24.98 18.67C24.99 18.56 25 18.45 25.01 18.34C25.02 18.14 25.03 17.95 25.03 17.75V17.61V17.54V17.5C25.03 17.45 25.03 17.47 25.03 17.45L25.02 17.33L25.01 17.17C25.01 17.11 25 17.06 25 17.01C25 16.96 24.99 16.91 24.98 16.86L24.96 16.71L24.94 16.56C24.91 16.36 24.87 16.16 24.83 15.97C24.65 15.19 24.34 14.44 23.94 13.78C23.54 13.11 23.03 12.52 22.47 12.02C21.9 11.52 21.27 11.12 20.61 10.82C19.95 10.52 19.25 10.33 18.55 10.24C18.2 10.2 17.85 10.18 17.51 10.18H17.38H17.35C17.34 10.18 17.3 10.18 17.31 10.18H17.26L17.13 10.19C17.08 10.19 17.03 10.2 16.99 10.2C16.81 10.22 16.64 10.24 16.47 10.28C15.78 10.41 15.13 10.66 14.55 11C13.98 11.34 13.48 11.77 13.07 12.26C12.66 12.75 12.35 13.29 12.13 13.84C11.91 14.4 11.79 14.97 11.76 15.53C11.75 15.67 11.75 15.81 11.75 15.95C11.75 15.98 11.75 16.02 11.75 16.05V16.16C11.76 16.23 11.76 16.3 11.77 16.36C11.8 16.64 11.85 16.91 11.92 17.18C12.07 17.7 12.31 18.18 12.62 18.58C12.92 18.98 13.28 19.32 13.66 19.58C14.04 19.84 14.45 20.03 14.85 20.14C15.25 20.26 15.65 20.31 16.03 20.31C16.08 20.31 16.12 20.31 16.17 20.31C16.2 20.31 16.22 20.31 16.25 20.31C16.28 20.31 16.3 20.31 16.33 20.31C16.37 20.31 16.41 20.3 16.45 20.3C16.46 20.3 16.47 20.3 16.48 20.3L16.52 20.29C16.55 20.29 16.57 20.28 16.59 20.28C16.64 20.27 16.68 20.26 16.73 20.25C16.77 20.24 16.82 20.23 16.86 20.22C16.95 20.2 17.03 20.18 17.11 20.15C17.27 20.1 17.43 20.03 17.57 19.96C17.71 19.88 17.85 19.8 17.97 19.72C18 19.69 18.04 19.67 18.07 19.64C18.2 19.54 18.22 19.34 18.12 19.22C18.03 19.11 17.87 19.08 17.74 19.15C17.71 19.17 17.68 19.18 17.65 19.2C17.54 19.25 17.43 19.3 17.3 19.34C17.18 19.38 17.05 19.41 16.92 19.43C16.85 19.44 16.79 19.45 16.72 19.46C16.69 19.46 16.65 19.47 16.62 19.47C16.59 19.47 16.55 19.47 16.52 19.47C16.49 19.47 16.45 19.47 16.42 19.47C16.38 19.47 16.34 19.47 16.3 19.46C16.3 19.46 16.28 19.46 16.3 19.46H16.29H16.26C16.24 19.46 16.22 19.46 16.21 19.45C16.17 19.45 16.14 19.44 16.1 19.44C15.8 19.4 15.51 19.31 15.22 19.18C14.93 19.05 14.65 18.87 14.41 18.65C14.16 18.43 13.94 18.16 13.77 17.85C13.6 17.54 13.48 17.21 13.42 16.85C13.39 16.67 13.38 16.49 13.39 16.31C13.39 16.26 13.39 16.21 13.4 16.16C13.4 16.17 13.4 16.15 13.4 16.15V16.13V16.09C13.4 16.06 13.4 16.04 13.41 16.02C13.42 15.92 13.44 15.82 13.45 15.73C13.59 14.96 13.97 14.2 14.57 13.63C14.72 13.49 14.88 13.35 15.05 13.24C15.22 13.12 15.41 13.02 15.59 12.93C15.78 12.84 15.98 12.77 16.18 12.72C16.38 12.67 16.6 12.63 16.81 12.61C16.92 12.6 17.02 12.6 17.13 12.6C17.16 12.6 17.18 12.6 17.2 12.6H17.29H17.34C17.36 12.6 17.34 12.6 17.35 12.6H17.37L17.46 12.61C17.69 12.63 17.92 12.66 18.15 12.71C18.6 12.81 19.04 12.98 19.46 13.2C20.28 13.66 20.98 14.37 21.41 15.23C21.63 15.66 21.78 16.12 21.85 16.59C21.87 16.71 21.88 16.83 21.89 16.95L21.9 17.04V17.13C21.9 17.16 21.9 17.19 21.9 17.22C21.9 17.25 21.9 17.28 21.9 17.3V17.38V17.47C21.9 17.53 21.89 17.62 21.89 17.68C21.88 17.81 21.87 17.94 21.85 18.07C21.83 18.2 21.81 18.33 21.79 18.46C21.76 18.59 21.74 18.71 21.71 18.84C21.65 19.09 21.57 19.34 21.47 19.59C21.28 20.08 21.02 20.54 20.71 20.97C20.09 21.82 19.24 22.52 18.28 22.96C17.8 23.18 17.29 23.34 16.77 23.42C16.51 23.46 16.24 23.49 15.98 23.5H15.93H15.89H15.81H15.68H15.61C15.64 23.5 15.6 23.5 15.61 23.5H15.58C15.44 23.5 15.3 23.49 15.16 23.48C14.59 23.44 14.04 23.34 13.5 23.18C12.96 23.02 12.43 22.81 11.94 22.55C10.95 22.02 10.06 21.29 9.36 20.41C9 20 8.7 19.53 8.45 19.04C8.2 18.54 8 18.02 7.85 17.5C7.71 16.97 7.61 16.43 7.58 15.88L7.57 15.78V15.75V15.73V15.69V15.6V15.58V15.55V15.49V15.36V15.33C7.57 15.33 7.57 15.33 7.57 15.32V15.27C7.57 15.2 7.57 15.14 7.57 15.07C7.58 14.8 7.6 14.52 7.64 14.25C7.67 13.97 7.72 13.69 7.78 13.42C7.84 13.14 7.91 12.87 7.98 12.6C8.13 12.06 8.33 11.54 8.56 11.05C9.02 10.06 9.61 9.19 10.33 8.49C10.51 8.31 10.69 8.15 10.89 7.99C11.08 7.84 11.28 7.69 11.49 7.56C11.69 7.42 11.91 7.3 12.13 7.19C12.24 7.13 12.35 7.08 12.46 7.03C12.52 7 12.57 6.98 12.63 6.95C12.69 6.92 12.74 6.9 12.8 6.88C13.03 6.78 13.26 6.7 13.5 6.63C13.56 6.61 13.62 6.6 13.68 6.58C13.74 6.56 13.8 6.55 13.86 6.53C13.98 6.5 14.1 6.47 14.22 6.44C14.28 6.42 14.34 6.41 14.4 6.4C14.46 6.39 14.52 6.37 14.58 6.36C14.64 6.35 14.7 6.34 14.77 6.33L14.86 6.31L14.95 6.3C15.01 6.29 15.07 6.28 15.14 6.27C15.21 6.26 15.28 6.25 15.35 6.24C15.41 6.23 15.5 6.22 15.56 6.21C15.6 6.21 15.65 6.2 15.69 6.2L15.78 6.19H15.82H15.87C15.94 6.19 16.01 6.18 16.08 6.18L16.18 6.17C16.18 6.17 16.22 6.17 16.19 6.17H16.21H16.25C16.31 6.17 16.37 6.16 16.43 6.16C16.67 6.15 16.9 6.15 17.14 6.16C17.61 6.18 18.07 6.23 18.51 6.31C19.4 6.48 20.24 6.76 21 7.14C21.76 7.51 22.44 7.97 23.04 8.47C23.08 8.5 23.11 8.53 23.15 8.56C23.18 8.59 23.22 8.62 23.26 8.65C23.33 8.71 23.4 8.78 23.47 8.84C23.54 8.9 23.61 8.97 23.67 9.04C23.74 9.11 23.8 9.17 23.86 9.24C24.11 9.51 24.34 9.77 24.55 10.05C24.97 10.59 25.31 11.14 25.58 11.65C25.6 11.68 25.61 11.71 25.63 11.75C25.65 11.78 25.66 11.81 25.68 11.85C25.71 11.91 25.74 11.98 25.77 12.04C25.8 12.1 25.83 12.17 25.85 12.23C25.88 12.29 25.9 12.35 25.93 12.41C26.03 12.65 26.12 12.88 26.19 13.1C26.31 13.45 26.4 13.77 26.47 14.04C26.5 14.15 26.6 14.22 26.72 14.21C26.84 14.2 26.93 14.1 26.93 13.99C26.92 13.64 26.91 13.3 26.88 12.9Z" fill="url(#paint0_linear1)"/>
<defs>
<linearGradient id="paint0_linear1" x1="13.4687" y1="35.8101" x2="13.4687" y2="9.1004" gradientUnits="userSpaceOnUse">
<stop stop-color="#FFF100"/>
<stop offset="1" stop-color="#F05A28"/>
</linearGradient>
</defs>
</svg>
