<?xml version="1.0" encoding="utf-8"?>
<!-- Generator: Adobe Illustrator 24.2.0, SVG Export Plug-In . SVG Version: 6.00 Build 0)  -->
<svg version="1.1" id="Layer_1" xmlns="http://www.w3.org/2000/svg" xmlns:xlink="http://www.w3.org/1999/xlink" x="0px" y="0px"
	 viewBox="0 0 20 20" style="enable-background:new 0 0 20 20;" xml:space="preserve">
<style type="text/css">
	.st0{fill:none;}
	.st1{fill:#3B697E;}
	.st2{fill:#E6522C;}
	.st3{fill:url(#SVGID_1_);}
	.st4{fill-rule:evenodd;clip-rule:evenodd;fill:url(#SVGID_2_);}
	.st5{fill:url(#SVGID_3_);}
	.st6{fill:url(#SVGID_4_);}
	.st7{fill:url(#SVGID_5_);}
	.st8{fill:url(#SVGID_6_);}
	.st9{fill:url(#SVGID_7_);}
	.st10{fill:url(#SVGID_8_);}
	.st11{fill:url(#SVGID_9_);}
	.st12{fill:url(#SVGID_10_);}
	.st13{fill:url(#SVGID_11_);}
	.st14{fill:url(#SVGID_12_);}
	.st15{fill:url(#SVGID_13_);}
	.st16{fill:url(#SVGID_14_);}
	.st17{fill:url(#SVGID_15_);}
	.st18{fill:url(#SVGID_16_);}
	.st19{fill:#F05A27;}
	.st20{fill:url(#SVGID_17_);}
	.st21{fill:url(#SVGID_18_);}
	.st22{fill:url(#SVGID_19_);}
</style>
<g transform="matrix(1.575826 0 0 1.575826 -8.778604 -15.27478)">
	
		<linearGradient id="SVGID_1_" gradientUnits="userSpaceOnUse" x1="19.0479" y1="13.4255" x2="30.6473" y2="13.4255" gradientTransform="matrix(1.5758 0 0 -1.5758 -23.7605 36.9094)">
		<stop  offset="0" style="stop-color:#7ACBBF"/>
		<stop  offset="1" style="stop-color:#3EA4DB"/>
	</linearGradient>
	<path style="fill-rule:evenodd;clip-rule:evenodd;fill:url(#SVGID_1_);" d="M17.2,13.3L16,13.1l-0.4-0.5l0.6-0.3l1.1,0.1l0.6,0.5
		L17.2,13.3z M14.5,12.4L14.2,12l0.6-0.3l0.9,0.1l0.4,0.4l-0.6,0.3L14.5,12.4z M13.6,12.7l-1-0.2l-0.2-0.4l0.7-0.3l0.9,0.1l0.3,0.4
		L13.6,12.7z M11.7,12.9l-1-0.2l-0.1-0.5l0.8-0.3l0.9,0.1l0.2,0.4L11.7,12.9z M11.8,13.5l-1,0.5l-1.1-0.2l0-0.6l1-0.4l1,0.2
		L11.8,13.5z M7.7,17.4L6.3,17l0.4-1.2l1.5-0.7l1.3,0.3l-0.1,1.1L7.7,17.4z M9.4,16.6L11,17l0.1,1.5l-1.8,1.3l-1.8-0.6l0.3-1.6
		L9.4,16.6z M12.5,16.2l1.6,0.4l0.5,1.4L13.2,19l-1.9-0.6L11.1,17L12.5,16.2z M12.6,16.1l-0.3-1l1.1-0.6l1.4,0.3l0.5,0.9l-1.1,0.8
		L12.6,16.1z M13.3,14.5l-0.3-0.7l0.9-0.4l1.2,0.2l0.5,0.7l-0.9,0.5L13.3,14.5z M15.5,12.6l0.4,0.5l-0.7,0.4L14,13.3l-0.3-0.5
		l0.7-0.3L15.5,12.6z M13.3,14.5l-1.1,0.6l-1.3-0.3L10.8,14l1-0.5l1.2,0.2L13.3,14.5z M12.6,12.6l1,0.2l0.3,0.5L13,13.7l-1.2-0.2
		L11.7,13L12.6,12.6z"/>
	<g transform="matrix(.32269905 0 0 .32269905 1.377071 11.045064)">
		<path d="M24.8,25.3c-1.1,0.2-2.1,1.2-2.2,2.2c-0.1,1.1,0.8,1.8,2.1,1.6c1.2-0.2,2.2-1.3,2.2-2.4C26.8,25.8,25.9,25.1,24.8,25.3z"
			/>
		<path d="M25.2,16.1c-0.9,0.1-1.6,0.7-1.7,1.3c-0.1,0.6,0.7,1.1,1.6,0.9c0.9-0.1,1.7-0.8,1.7-1.4C26.7,16.3,26,15.9,25.2,16.1z"/>
		<path d="M20.9,18.8c-0.8-0.2-1.9,0.1-2.5,0.8c-0.6,0.7-0.5,1.5,0.3,1.8c0.8,0.3,2-0.2,2.6-0.9C21.8,19.7,21.7,19,20.9,18.8z"/>
		<path d="M31.3,21.7c-0.9-0.3-2,0.2-2.5,1c-0.5,0.8-0.1,1.8,0.9,2.1c1,0.3,2.1-0.2,2.6-1.1C32.7,22.8,32.2,21.9,31.3,21.7z"/>
		<path d="M30.7,18l-5.6-1.4l-6,3.2l-1.2,6l6.8,2.3l6.7-4.8L30.7,18z M24.8,26.5l-5.2-1.7l0.8-4.7l4.8-2.6l4.5,1.2L30,23L24.8,26.5z
			"/>
		<path d="M20.7,24c-0.4-0.7-1.6-0.7-2.6-0.1c-1.1,0.6-1.7,1.7-1.3,2.5c0.4,0.8,1.7,0.9,2.8,0.1C20.7,25.9,21.2,24.7,20.7,24z"/>
		<path d="M31.4,17.6c-0.5-0.5-1.5-0.5-2.3-0.1c-0.8,0.4-1,1.2-0.5,1.7c0.5,0.5,1.6,0.6,2.4,0.1C31.7,18.9,31.9,18.1,31.4,17.6z"/>
		<path d="M21.2,11.9c-0.8,0.1-1.5,0.5-1.6,1c-0.1,0.5,0.5,0.8,1.3,0.7c0.8-0.1,1.5-0.6,1.6-1.1C22.6,12.1,22,11.8,21.2,11.9z"/>
		<path d="M17.3,13.9c-0.6-0.2-1.6,0.1-2.2,0.6c-0.6,0.5-0.6,1.1,0.1,1.3c0.7,0.2,1.7-0.1,2.3-0.7C18,14.6,17.9,14.1,17.3,13.9z"/>
		<path d="M21.2,12.3l-5.5,2.4L14.2,19l5.5,1.6l6.1-3.3l0.1-3.9L21.2,12.3z M24.6,17l-4.8,2.5l-4.2-1.2l1.1-3.4l4.4-1.9l3.7,0.9
			L24.6,17z"/>
		<path d="M16.7,17.8c-0.3-0.5-1.3-0.5-2.2-0.1c-1,0.4-1.5,1.2-1.3,1.8c0.3,0.5,1.3,0.6,2.3,0.1C16.5,19.1,17,18.3,16.7,17.8z"/>
		<path d="M26.5,13.1c-0.4-0.4-1.2-0.4-1.9-0.1c-0.7,0.3-1,0.9-0.6,1.3c0.4,0.4,1.3,0.4,2,0.1C26.6,14,26.8,13.4,26.5,13.1z"/>
		<path d="M38.7,24.5c-0.3-0.9-1.3-1.5-2.3-1.3c-1,0.2-1.7,1.1-1.5,2c0.2,1,1.3,1.6,2.4,1.4C38.4,26.4,39,25.5,38.7,24.5z"/>
		<path d="M36,15.5c-0.2-0.6-0.9-0.9-1.7-0.8c-0.8,0.1-1.4,0.7-1.3,1.2c0.1,0.6,0.9,1,1.8,0.8C35.6,16.7,36.2,16.1,36,15.5z"/>
		<path d="M41.7,19.9c-0.9-0.2-1.9,0.2-2.1,0.9c-0.2,0.8,0.4,1.6,1.4,1.9c1,0.3,2-0.2,2.2-1C43.2,20.9,42.6,20.1,41.7,19.9z"/>
		<path d="M40.2,16.5l-5.7-1.3l-4.9,2.9l0.5,5.4l7.1,2.1l5.1-4.3L40.2,16.5z M36.7,24.3l-5.5-1.6l-0.5-4.2l3.9-2.4l4.6,1.1l1.5,3.9
			L36.7,24.3z"/>
		<path d="M40.7,16.2c-0.6-0.4-1.6-0.5-2.2-0.1c-0.6,0.4-0.6,1.1,0,1.6c0.6,0.5,1.7,0.5,2.3,0.1C41.4,17.4,41.3,16.6,40.7,16.2z"/>
		<path d="M38.4,10.6c-0.2-0.4-0.9-0.6-1.5-0.6c-0.7,0.1-1.1,0.5-1,0.9c0.1,0.4,0.8,0.7,1.6,0.6C38.1,11.4,38.6,11,38.4,10.6z"/>
		<path d="M34.2,11.8c-0.7-0.1-1.5,0.1-1.7,0.5c-0.3,0.5,0,0.9,0.8,1.1c0.7,0.2,1.5-0.1,1.8-0.6C35.3,12.4,34.9,12,34.2,11.8z"/>
		<path d="M43.3,13.7c-0.8-0.2-1.5,0.1-1.7,0.6c-0.2,0.5,0.4,1.1,1.2,1.3c0.8,0.2,1.6-0.1,1.7-0.7C44.6,14.3,44.1,13.8,43.3,13.7z"
			/>
		<path d="M41.9,11.3L37,10.4l-3.9,2.1l0.9,3.7l5.9,1.4l4-2.8L41.9,11.3z M39.5,16.6l-4.5-1l-0.8-2.9l3.1-1.7l3.9,0.7l1.4,2.7
			L39.5,16.6z"/>
		<path d="M42.3,11.1c-0.5-0.3-1.4-0.3-1.8-0.1c-0.5,0.3-0.5,0.8,0.1,1.1c0.6,0.3,1.4,0.4,1.9,0.1C43,11.9,42.9,11.4,42.3,11.1z"/>
		<path d="M33.6,7.7c-0.1-0.3-0.7-0.5-1.3-0.4c-0.6,0.1-1.1,0.4-1,0.7c0.1,0.3,0.6,0.5,1.3,0.5C33.2,8.3,33.7,8,33.6,7.7z"/>
		<path d="M29.7,8.6c-0.6-0.1-1.3,0.1-1.6,0.4c-0.3,0.3-0.1,0.7,0.5,0.9c0.6,0.1,1.4-0.1,1.7-0.4C30.5,9.1,30.3,8.7,29.7,8.6z"/>
		<path d="M36.6,8.2l-4.2-0.7l-3.8,1.6l0.2,2.8l4.9,1l3.9-2.1L36.6,8.2z M33.6,12.3l-3.8-0.8l-0.3-2.2l3-1.3l3.4,0.6l0.8,2.1
			L33.6,12.3z"/>
		<path d="M30.5,11.2c-0.4-0.3-1.2-0.3-1.8-0.1c-0.6,0.3-0.8,0.8-0.4,1.1c0.4,0.3,1.3,0.4,1.9,0.1C30.8,12,30.9,11.5,30.5,11.2z"/>
		<path d="M37,8c-0.4-0.2-1.1-0.3-1.6,0c-0.5,0.2-0.5,0.6-0.1,0.9c0.4,0.3,1.2,0.3,1.7,0C37.4,8.7,37.4,8.3,37,8z"/>
		<path d="M40.1,6.9c-0.2-0.3-0.8-0.5-1.4-0.4c-0.6,0.1-0.9,0.4-0.8,0.7c0.2,0.3,0.8,0.5,1.4,0.4C39.9,7.6,40.3,7.2,40.1,6.9z"/>
		<path d="M44.5,9.2C43.8,9,43.2,9.2,43,9.6c-0.1,0.4,0.4,0.8,1.1,0.9c0.7,0.1,1.4-0.1,1.4-0.5C45.6,9.7,45.1,9.3,44.5,9.2z"/>
		<path d="M43.2,7.5l-4.3-0.7l-3.2,1.5l1,2.6l5,0.9l3.2-2L43.2,7.5z M41.4,11.3l-3.9-0.7l-0.9-2.1l2.5-1.2l3.4,0.5l1.3,1.9
			L41.4,11.3z"/>
		<path d="M43.5,7.3C43,7,42.3,7,41.9,7.2c-0.4,0.2-0.4,0.6,0.1,0.8c0.5,0.3,1.2,0.3,1.6,0C44.1,7.9,44,7.5,43.5,7.3z"/>
		<path d="M41.4,4.2c-0.2-0.2-0.7-0.4-1.2-0.3c-0.5,0-0.8,0.3-0.7,0.5c0.2,0.2,0.7,0.4,1.2,0.3C41.3,4.7,41.6,4.4,41.4,4.2z"/>
		<path d="M38.4,4.9c-0.5-0.1-1.1,0.1-1.2,0.3c-0.2,0.3,0.1,0.5,0.7,0.6c0.6,0.1,1.1-0.1,1.3-0.3C39.2,5.2,38.9,5,38.4,4.9z"/>
		<path d="M45.3,5.9c-0.6-0.1-1.1,0.1-1.2,0.3c-0.1,0.3,0.3,0.6,0.9,0.7c0.6,0.1,1.2-0.1,1.2-0.4C46.3,6.3,45.9,6,45.3,5.9z"/>
		<path d="M44.2,4.6l-3.8-0.5l-2.7,1.2l1,2L43,7.9l2.7-1.5L44.2,4.6z M42.7,7.5l-3.4-0.5l-0.9-1.6l2.1-1l3,0.4l1.2,1.5L42.7,7.5z"/>
		<path d="M39.8,6.7c-0.4-0.2-1.1-0.2-1.5,0c-0.4,0.2-0.4,0.6,0,0.8c0.4,0.2,1.2,0.3,1.6,0C40.3,7.3,40.3,6.9,39.8,6.7z"/>
		<path d="M44.4,4.4c-0.4-0.2-1.1-0.2-1.4,0c-0.4,0.2-0.3,0.5,0.1,0.6c0.4,0.2,1.1,0.2,1.4,0C45,4.9,44.9,4.6,44.4,4.4z"/>
		<path d="M28.7,5c-0.6,0.1-1,0.3-1,0.6c0,0.3,0.5,0.4,1.1,0.4c0.6-0.1,1-0.3,1-0.6C29.7,5.1,29.2,4.9,28.7,5z"/>
		<path d="M26.1,6.1c-0.5-0.1-1.2,0.1-1.5,0.3C24.3,6.7,24.4,7,25,7.1c0.5,0.1,1.2-0.1,1.5-0.4C26.8,6.5,26.6,6.2,26.1,6.1z"/>
		<path d="M32.4,5.8l-3.7-0.6l-3.6,1.3L25,8.7l4.2,0.8l3.8-1.7L32.4,5.8z M29.1,9l-3.2-0.6l0-1.7l2.8-1.1l2.9,0.5l0.4,1.7L29.1,9z"
			/>
		<path d="M26.5,8.1c-0.3-0.2-1-0.3-1.6,0c-0.6,0.2-0.8,0.6-0.5,0.9c0.3,0.3,1.1,0.3,1.7,0C26.7,8.8,26.8,8.4,26.5,8.1z"/>
		<path d="M32.8,5.6c-0.3-0.2-1-0.2-1.5,0c-0.5,0.2-0.6,0.5-0.2,0.7c0.3,0.2,1,0.2,1.5,0C33,6.1,33.1,5.8,32.8,5.6z"/>
		<path d="M32.1,2.9c-0.1-0.2-0.5-0.3-1-0.3c-0.5,0-0.9,0.2-0.8,0.4c0,0.2,0.5,0.3,1,0.3C31.8,3.3,32.2,3.1,32.1,2.9z"/>
		<path d="M29,3.5c-0.5-0.1-1,0-1.3,0.3c-0.3,0.2-0.1,0.5,0.4,0.5c0.5,0.1,1.1-0.1,1.3-0.3C29.7,3.8,29.5,3.6,29,3.5z"/>
		<path d="M35,4.4c-0.5-0.1-1.1,0.1-1.3,0.3c-0.2,0.2,0.1,0.5,0.6,0.6c0.5,0.1,1.1-0.1,1.3-0.3C35.8,4.7,35.5,4.5,35,4.4z"/>
		<path d="M34.5,3.3l-3.3-0.5l-3,1l0.1,1.7L32,6.2l3.1-1.3L34.5,3.3z M31.9,5.8L29,5.3L28.9,4l2.4-0.8l2.6,0.4l0.5,1.3L31.9,5.8z"/>
		<path d="M34.8,3.1c-0.3-0.2-0.9-0.2-1.3,0c-0.4,0.1-0.5,0.4-0.1,0.6c0.3,0.2,0.9,0.2,1.3,0C35.1,3.5,35.2,3.3,34.8,3.1z"/>
		<path d="M37.5,2.4c-0.1-0.2-0.6-0.3-1.1-0.3c-0.5,0-0.8,0.2-0.7,0.4c0.1,0.2,0.6,0.3,1.1,0.3C37.3,2.8,37.6,2.6,37.5,2.4z"/>
		<path d="M39.9,2.8l-3.4-0.4l-2.7,1L34.5,5l3.8,0.6L41,4.3L39.9,2.8z M38,5.1l-2.9-0.4l-0.5-1.3l2.1-0.8L39.4,3l0.8,1.2L38,5.1z"/>
		<path d="M40.2,2.7c-0.4-0.1-0.9-0.2-1.3,0c-0.3,0.1-0.4,0.4,0,0.5c0.4,0.2,1,0.2,1.3,0C40.6,3,40.5,2.8,40.2,2.7z"/>
		<path d="M42.4,2c-0.2-0.2-0.7-0.3-1.1-0.3c-0.5,0-0.7,0.2-0.6,0.4c0.1,0.2,0.7,0.3,1.1,0.3C42.4,2.4,42.6,2.2,42.4,2z"/>
		<path d="M46,3.3c-0.5-0.1-1,0-1.1,0.3c-0.1,0.2,0.3,0.5,0.9,0.5c0.5,0.1,1-0.1,1.1-0.3C46.9,3.6,46.5,3.4,46,3.3z"/>
		<path d="M44.9,2.3l-3.4-0.4l-2.4,0.9l1,1.5L44,4.9l2.3-1.1L44.9,2.3z M43.7,4.6l-3-0.4l-0.9-1.2l1.9-0.8l2.7,0.3l1.1,1.2L43.7,4.6
			z"/>
		<path d="M45.1,2.2c-0.4-0.1-0.9-0.2-1.2,0c-0.3,0.1-0.2,0.4,0.1,0.5c0.4,0.2,1,0.2,1.3,0C45.6,2.6,45.5,2.3,45.1,2.2z"/>
		<path d="M50.1,6.8c-0.3-0.3-1-0.5-1.5-0.4C48,6.5,47.8,6.7,48,7c0.3,0.3,1,0.5,1.6,0.4C50.2,7.4,50.4,7.1,50.1,6.8z"/>
		<path d="M51,5.3C50.5,5.2,50,5.3,50,5.6c0,0.3,0.5,0.5,1.1,0.6c0.6,0.1,1.1-0.1,1.1-0.3C52.1,5.6,51.6,5.3,51,5.3z"/>
		<path d="M49.6,4l-3.8-0.5l-2.3,1.1l1.5,1.9l4.4,0.7l2.3-1.4L49.6,4z M48.9,6.7l-3.4-0.5l-1.3-1.5l1.8-0.9l3.1,0.4l1.6,1.4
			L48.9,6.7z"/>
		<path d="M49.8,3.9c-0.5-0.2-1.1-0.2-1.4,0c-0.3,0.2-0.2,0.4,0.3,0.6c0.5,0.2,1.1,0.2,1.4,0C50.5,4.3,50.3,4.1,49.8,3.9z"/>
	</g>
</g>
</svg>
