<svg width="16" height="16" viewBox="0 0 16 16" fill="none" xmlns="http://www.w3.org/2000/svg">
<g clip-path="url(#clip0_30046_19360)">
<path d="M8.00094 15.0409C11.889 15.0409 15.0409 11.889 15.0409 8.00094C15.0409 4.11285 11.889 0.960938 8.00094 0.960938C4.11285 0.960938 0.960938 4.11285 0.960938 8.00094C0.960938 11.889 4.11285 15.0409 8.00094 15.0409Z" stroke="#F3752C" stroke-width="2" stroke-miterlimit="10"/>
<path d="M3.67969 8.08188C3.67969 5.60188 5.51969 3.92188 8.07969 3.92188C9.59969 3.92188 10.8797 4.48188 11.6797 5.52188L9.99969 7.04188C9.51969 6.48188 8.95969 6.08187 8.23969 6.08187C7.11969 6.08187 6.39969 6.88188 6.39969 8.08188C6.39969 9.28188 7.11969 10.0819 8.23969 10.0819C8.95969 10.0819 9.51969 9.76187 9.99969 9.12187L11.6797 10.6419C10.8797 11.6819 9.67969 12.2419 8.07969 12.2419C5.51969 12.2419 3.67969 10.5619 3.67969 8.08188Z" fill="#F3752C"/>
</g>
<defs>
<clipPath id="clip0_30046_19360">
<rect width="16" height="16" fill="white"/>
</clipPath>
</defs>
</svg>
