<svg width="14" height="17" viewBox="0 0 14 17" fill="none" xmlns="http://www.w3.org/2000/svg">
<path d="M12.25 9.52634V6.8167C12.2487 5.6094 11.8088 4.44148 11.008 3.51978C10.2073 2.59808 9.09743 1.98208 7.875 1.78086V0.852088C7.875 0.6261 7.78281 0.409368 7.61872 0.249571C7.45462 0.0897732 7.23206 0 7 0C6.76794 0 6.54538 0.0897732 6.38128 0.249571C6.21719 0.409368 6.125 0.6261 6.125 0.852088V1.78086C4.90257 1.98208 3.79271 2.59808 2.99196 3.51978C2.19122 4.44148 1.75126 5.6094 1.75 6.8167V9.52634C1.23939 9.70214 0.797124 10.0274 0.483821 10.4576C0.170519 10.8878 0.00152207 11.4018 0 11.9292V13.6334C0 13.8594 0.0921874 14.0761 0.256282 14.2359C0.420376 14.3957 0.642936 14.4855 0.875 14.4855H3.6225C3.824 15.2075 4.26388 15.8449 4.87427 16.2994C5.48467 16.7538 6.23166 17 7 17C7.76834 17 8.51533 16.7538 9.12573 16.2994C9.73612 15.8449 10.176 15.2075 10.3775 14.4855H13.125C13.3571 14.4855 13.5796 14.3957 13.7437 14.2359C13.9078 14.0761 14 13.8594 14 13.6334V11.9292C13.9985 11.4018 13.8295 10.8878 13.5162 10.4576C13.2029 10.0274 12.7606 9.70214 12.25 9.52634ZM3.5 6.8167C3.5 5.91275 3.86875 5.04582 4.52513 4.40663C5.1815 3.76744 6.07174 3.40835 7 3.40835C7.92826 3.40835 8.8185 3.76744 9.47487 4.40663C10.1313 5.04582 10.5 5.91275 10.5 6.8167V9.37296H3.5V6.8167ZM7 15.3376C6.6946 15.3358 6.395 15.2562 6.13098 15.1067C5.86695 14.9572 5.6477 14.7431 5.495 14.4855H8.505C8.3523 14.7431 8.13305 14.9572 7.86902 15.1067C7.605 15.2562 7.3054 15.3358 7 15.3376ZM12.25 12.7813H1.75V11.9292C1.75 11.7032 1.84219 11.4865 2.00628 11.3267C2.17038 11.1669 2.39294 11.0771 2.625 11.0771H11.375C11.6071 11.0771 11.8296 11.1669 11.9937 11.3267C12.1578 11.4865 12.25 11.7032 12.25 11.9292V12.7813Z" fill="#F3752C"/>
</svg>
