<?xml version="1.0" encoding="utf-8"?>
<!-- Generator: Adobe Illustrator 27.1.1, SVG Export Plug-In . SVG Version: 6.00 Build 0)  -->
<svg version="1.1" id="Layer_1" xmlns="http://www.w3.org/2000/svg" xmlns:xlink="http://www.w3.org/1999/xlink" x="0px" y="0px"
	 viewBox="0 0 453 453" style="enable-background:new 0 0 453 453;" xml:space="preserve">
<style type="text/css">
	.st0{fill-rule:evenodd;clip-rule:evenodd;fill:#F3752C;}
	.st1{fill:none;stroke:#F3752C;stroke-width:20;}
</style>
<g id="Artboard">
	<g id="helm-3" transform="translate(-24.000000, 4.000000)">
		<g id="Group-3" transform="translate(110.000000, 323.000000)">
			<path id="Oval-1" class="st0" d="M223.3,9.7c6.9-4.8,22.7,5.8,35.2,23.8c12.6,18,17.2,36.4,10.3,41.2
				c-6.9,4.8-22.7-5.8-35.2-23.8C221,33,216.4,14.5,223.3,9.7L223.3,9.7z"/>
			<path id="Oval-1-Copy" class="st0" d="M13.2,74.7c-6.9-4.8-2.3-23.3,10.3-41.2S51.8,4.9,58.7,9.7S61,33,48.4,50.9
				S20.1,79.5,13.2,74.7L13.2,74.7z"/>
			<path id="Oval-1-Copy-4" class="st0" d="M140.9,36.4c-8.4,0-15.2,17.8-15.2,39.7s6.8,39.7,15.2,39.7s15.2-17.8,15.2-39.7
				S149.3,36.4,140.9,36.4L140.9,36.4z"/>
		</g>
		<g id="Group-4" transform="translate(110.000000, 8.000000)">
			<path id="Oval-1_00000134209647403057983870000013017063031816630443_" class="st0" d="M223.3,107.9c6.9,4.8,22.7-5.8,35.3-23.8
				s17.2-36.4,10.3-41.3c-6.9-4.8-22.7,5.8-35.3,23.8S216.4,103.1,223.3,107.9L223.3,107.9z"/>
			<path id="Oval-1-Copy_00000029732239569206256230000017641983529164083380_" class="st0" d="M13.2,42.8
				c-6.9,4.8-2.3,23.3,10.3,41.3s28.4,28.6,35.3,23.8S61,84.6,48.4,66.7S20.1,38,13.2,42.8L13.2,42.8z"/>
			<path id="Oval-1-Copy-4_00000177455241907782105300000000069275129779384960_" class="st0" d="M140.9,79.8
				c-8.4,0-15.2-17.8-15.2-39.7s6.8-39.7,15.2-39.7s15.2,17.8,15.2,39.7S149.3,79.8,140.9,79.8L140.9,79.8z"/>
		</g>
		
			<g id="Group-4_00000127746716711045328390000013995426816102615187_" transform="translate(419.524472, 216.845492) rotate(108.000000) translate(-419.524472, -216.845492) translate(339.524472, 159.345492)">
			<path id="Oval-1-Copy_00000101800934759964922220000012400038989573121446_" class="st0" d="M23.4,82.1
				c12.6,18,28.4,28.6,35.2,23.8c6.9-4.8,2.2-23.3-10.4-41.2S19.9,36,13,40.8S10.8,64.1,23.4,82.1z"/>
			<path id="Oval-1-Copy-4_00000127757799226015278410000009380250277658944907_" class="st0" d="M144.2,79.7
				c-8.4,0-15.2-17.8-15.2-39.7s6.8-39.7,15.2-39.7S159.4,18,159.4,40S152.6,79.7,144.2,79.7L144.2,79.7z"/>
		</g>
		
			<g id="Group-4_00000036965772363926841580000004423451730570901377_" transform="translate(80.321020, 215.369963) scale(-1, 1) rotate(108.000000) translate(-80.321020, -215.369963) translate(0.821020, 156.869963)">
			<path id="Oval-1-Copy_00000019675465588050640410000017235935819780770725_" class="st0" d="M23.3,83.7
				c12.6,18,28.4,28.8,35.3,24c6.9-4.8,2.2-23.3-10.5-41.4s-28.4-28.8-35.3-24S10.6,65.6,23.3,83.7z"/>
			<path id="Oval-1-Copy-4_00000162352270790366216150000005290452739758097316_" class="st0" d="M143.6,79.9
				c-8.4,0-15.2-17.9-15.2-39.9s6.8-39.9,15.2-39.9c8.4,0,15.2,17.9,15.2,39.9S152,79.9,143.6,79.9L143.6,79.9z"/>
		</g>
		<ellipse id="Oval-2" class="st1" cx="250" cy="223.5" rx="140" ry="139.5"/>
	</g>
</g>
</svg>
