<?xml version="1.0" encoding="utf-8"?>
<!-- Generator: Adobe Illustrator 24.2.0, SVG Export Plug-In . SVG Version: 6.00 Build 0)  -->
<svg version="1.1" id="Layer_1" xmlns="http://www.w3.org/2000/svg" xmlns:xlink="http://www.w3.org/1999/xlink" x="0px" y="0px"
	 viewBox="0 0 20 20" style="enable-background:new 0 0 20 20;" xml:space="preserve">
<style type="text/css">
	.st0{fill:none;}
	.st1{fill:#3B697E;}
	.st2{fill:#E6522C;}
	.st3{fill:url(#SVGID_1_);}
	.st4{fill-rule:evenodd;clip-rule:evenodd;fill:url(#SVGID_2_);}
	.st5{fill:url(#SVGID_3_);}
	.st6{fill:url(#SVGID_4_);}
	.st7{fill:url(#SVGID_5_);}
	.st8{fill:url(#SVGID_6_);}
	.st9{fill:url(#SVGID_7_);}
	.st10{fill:url(#SVGID_8_);}
	.st11{fill:url(#SVGID_9_);}
	.st12{fill:url(#SVGID_10_);}
	.st13{fill:url(#SVGID_11_);}
	.st14{fill:url(#SVGID_12_);}
	.st15{fill:url(#SVGID_13_);}
	.st16{fill:url(#SVGID_14_);}
	.st17{fill:url(#SVGID_15_);}
	.st18{fill:url(#SVGID_16_);}
	.st19{fill:#F05A27;}
	.st20{fill:url(#SVGID_17_);}
	.st21{fill:url(#SVGID_18_);}
	.st22{fill:url(#SVGID_19_);}
</style>
<g>
	<ellipse class="st19" cx="18.8" cy="15.6" rx="1.1" ry="1.1"/>
	<path class="st19" d="M18.8,16.7c0,0,0.1,0,0.1,0c0,0,0,0,0,0c0,0,0.1,0,0.1,0c0,0,0,0,0,0c0,0,0.1,0,0.1,0c0,0,0,0,0,0
		c0,0,0.1,0,0.1,0c0,0,0.1,0,0.1-0.1c0,0,0,0,0,0c0,0,0.1,0,0.1-0.1l0,0c0,0,0,0,0.1-0.1l0,0c0,0,0,0,0.1-0.1c0,0,0,0,0,0
		c0,0,0,0,0-0.1c0,0,0,0,0,0c0,0,0-0.1,0-0.1c0,0,0,0,0,0c0.1-0.1,0.1-0.3,0.1-0.4c0,0,0,0,0,0c0,0,0,0,0-0.1c0,0,0,0,0-0.1
		c0,0,0,0,0,0c0-0.1,0-0.2-0.1-0.3c0,0,0,0,0,0c0,0,0,0,0,0c0,0,0,0,0-0.1c-0.1-0.2-0.2-0.4-0.4-0.5c-0.2-0.1-0.4-0.2-0.6-0.2
		c-0.4,0-0.7,0.2-0.9,0.5c-0.2,0.3-0.2,0.7,0,1l0,0c0,0,0,0,0,0.1c0,0,0,0,0,0c0,0,0,0,0,0c0,0,0,0,0,0c0,0,0,0,0,0.1c0,0,0,0,0,0
		c0,0,0,0,0.1,0.1c0,0,0,0,0,0c0,0,0,0,0.1,0.1c0,0,0,0,0,0c0,0,0.1,0,0.1,0.1c0,0,0,0,0,0c0,0,0,0,0,0c0,0,0,0,0,0s0,0,0,0
		c0,0,0,0,0,0c0,0,0,0,0,0c0,0,0,0,0.1,0h0c0,0,0,0,0.1,0l0,0C18.6,16.7,18.7,16.7,18.8,16.7C18.8,16.7,18.8,16.7,18.8,16.7z"/>
	<path class="st19" d="M1.2,16.7c-0.2,0-0.3,0-0.5-0.1c-0.5-0.3-0.8-0.9-0.5-1.5L5.7,3.9C6,3.3,6.6,3.1,7.2,3.4s0.8,0.9,0.5,1.5
		L2.2,16.1C2,16.5,1.6,16.7,1.2,16.7z"/>
	<g>
		
			<linearGradient id="SVGID_1_" gradientUnits="userSpaceOnUse" x1="13.3993" y1="4.5038" x2="8.7778" y2="13.1978" gradientTransform="matrix(1 0 0 -1 0 22)">
			<stop  offset="0" style="stop-color:#FAED1E"/>
			<stop  offset="0.1495" style="stop-color:#F8CF21"/>
			<stop  offset="0.4291" style="stop-color:#F59E25"/>
			<stop  offset="0.6742" style="stop-color:#F37928"/>
			<stop  offset="0.8728" style="stop-color:#F1632A"/>
			<stop  offset="1" style="stop-color:#F15B2B"/>
		</linearGradient>
		<path class="st3" d="M13.2,15.2L8.4,5.3L7.2,7.8l4.1,8.3c0.2,0.4,0.6,0.6,1,0.6c0.2,0,0.3,0,0.5-0.1
			C13.2,16.4,13.5,15.7,13.2,15.2z"/>
	</g>
	<path class="st19" d="M13.8,3.4c-0.5-0.3-1.2,0-1.5,0.5l-1.9,3.8l1.2,2.5l2.6-5.3C14.6,4.3,14.3,3.6,13.8,3.4z"/>
	<g>
		
			<linearGradient id="SVGID_2_" gradientUnits="userSpaceOnUse" x1="18.7264" y1="6.7095" x2="14.7455" y2="14.5798" gradientTransform="matrix(1 0 0 -1 0 22)">
			<stop  offset="0" style="stop-color:#FAED1E"/>
			<stop  offset="0.1495" style="stop-color:#F8CF21"/>
			<stop  offset="0.4291" style="stop-color:#F59E25"/>
			<stop  offset="0.6742" style="stop-color:#F37928"/>
			<stop  offset="0.8728" style="stop-color:#F1632A"/>
			<stop  offset="1" style="stop-color:#F15B2B"/>
		</linearGradient>
		<path style="fill:url(#SVGID_2_);" d="M15,5.3l-1.2,2.5l3.4,6.9c0,0,0,0,0,0c0.3-0.6,1-0.9,1.7-0.9l0,0c0.1,0,0.2,0,0.3,0L15,5.3z
			"/>
	</g>
</g>
</svg>
