<?xml version="1.0" encoding="utf-8"?>
<!-- Generator: Adobe Illustrator 24.2.0, SVG Export Plug-In . SVG Version: 6.00 Build 0)  -->
<svg version="1.1" id="Layer_1" xmlns="http://www.w3.org/2000/svg" xmlns:xlink="http://www.w3.org/1999/xlink" x="0px" y="0px"
	 viewBox="0 0 20 20" style="enable-background:new 0 0 20 20;" xml:space="preserve">
<style type="text/css">
	.st0{fill:none;}
	.st1{fill:#3B697E;}
	.st2{fill:#E6522C;}
	.st3{fill:url(#SVGID_1_);}
	.st4{fill-rule:evenodd;clip-rule:evenodd;fill:url(#SVGID_2_);}
	.st5{fill:url(#SVGID_3_);}
	.st6{fill:url(#SVGID_4_);}
	.st7{fill:url(#SVGID_5_);}
	.st8{fill:url(#SVGID_6_);}
	.st9{fill:url(#SVGID_7_);}
	.st10{fill:url(#SVGID_8_);}
	.st11{fill:url(#SVGID_9_);}
	.st12{fill:url(#SVGID_10_);}
	.st13{fill:url(#SVGID_11_);}
	.st14{fill:url(#SVGID_12_);}
	.st15{fill:url(#SVGID_13_);}
	.st16{fill:url(#SVGID_14_);}
	.st17{fill:url(#SVGID_15_);}
	.st18{fill:url(#SVGID_16_);}
	.st19{fill:#F05A27;}
	.st20{fill:url(#SVGID_17_);}
	.st21{fill:url(#SVGID_18_);}
	.st22{fill:url(#SVGID_19_);}
</style>
<linearGradient id="SVGID_1_" gradientUnits="userSpaceOnUse" x1="9.9197" y1="-55.9249" x2="10.0234" y2="-75.732" gradientTransform="matrix(1 0 0 -1 0 -58)">
	<stop  offset="0.3984" style="stop-color:#FACA10"/>
	<stop  offset="0.6498" style="stop-color:#F48C20"/>
	<stop  offset="0.8622" style="stop-color:#F05B2D"/>
</linearGradient>
<path class="st3" d="M19.9,13.3c0,0.1-0.1,0.2-0.2,0.2H0.3c-0.1,0-0.2-0.1-0.2-0.2S0.2,13,0.3,13h19.3C19.8,13,19.9,13.1,19.9,13.3z
	 M2.2,12.2h14L18,7.6l-7.8,0.7V7.1H3.5v1.7L1.3,9L2.2,12.2z M9.2,6.5H4.6V5.3h4.7L9.2,6.5z M17.3,14.2H2.7c-0.1,0-0.2,0.1-0.2,0.2
	s0.1,0.2,0.2,0.2h14.5c0.1,0,0.2-0.1,0.2-0.2S17.4,14.2,17.3,14.2z"/>
</svg>
