<svg width="24" height="24" viewBox="0 0 24 24" fill="none" xmlns="http://www.w3.org/2000/svg">
<circle cx="12" cy="12" r="12" fill="#F4F4F6"/>
<path d="M18.745 11.0667C18.7234 10.7653 18.6741 10.4671 18.598 10.1752C18.5024 9.80404 18.3708 9.44342 18.2052 9.09867C18.0058 8.68729 17.759 8.30341 17.4691 7.95442C17.3467 7.80108 17.2161 7.65514 17.0763 7.51766C17.2891 6.64308 16.8151 5.88589 16.8151 5.88589C16.2712 5.84042 15.7294 5.98213 15.2729 6.28987C15.242 6.27083 15.206 6.2592 15.1701 6.25603C15.0364 6.19152 14.8966 6.14076 14.7526 6.1048C14.6056 6.07096 14.4586 6.0202 14.2951 5.97049C14.147 5.93665 13.9866 5.90281 13.8201 5.86474C13.7882 5.86474 13.7717 5.84782 13.7388 5.84782C13.5065 5.13399 13.015 4.5386 12.3672 4.1875C11.2219 4.92777 11.0101 5.97049 11.0101 5.97049C11.007 5.99376 11.0018 6.01597 10.9936 6.03712L10.7972 6.08365C10.715 6.11749 10.6173 6.15133 10.535 6.18412C10.4528 6.2169 10.3561 6.2518 10.2739 6.28987C10.1104 6.35649 9.93047 6.45802 9.76698 6.54156C9.60351 6.64731 9.44002 6.74355 9.293 6.84507C9.28477 6.83555 9.27243 6.82921 9.26009 6.82815C7.67362 6.20527 6.26707 6.94554 6.26707 6.94554C6.13649 8.67777 6.90557 9.77126 7.0526 9.95632C7.0197 10.0621 6.98679 10.1752 6.94978 10.2736C6.83565 10.6702 6.74826 11.0752 6.68862 11.4845C6.68862 11.5352 6.67217 11.6029 6.67217 11.6695C5.22038 12.4119 4.7793 13.9422 4.7793 13.9422C6.00591 15.3899 7.42891 15.4735 7.42891 15.4735C7.60987 15.8034 7.81653 16.1185 8.04582 16.4147C8.14349 16.5331 8.2422 16.6505 8.35427 16.7679C8.09106 17.5452 8.1147 18.3954 8.42007 19.1568C9.29299 19.2002 10.1536 18.9326 10.8569 18.3996C10.9874 18.4504 11.1345 18.4842 11.2681 18.5339C11.6856 18.6439 12.1133 18.7116 12.5441 18.7359H13.087C13.7244 19.6782 14.8554 19.8125 14.8554 19.8125C15.6574 18.9379 15.7057 18.0803 15.7057 17.8952V17.8106C15.8713 17.6911 16.0296 17.5621 16.1808 17.4246C16.5015 17.1285 16.7822 16.789 17.0146 16.4147C17.0311 16.3819 17.0629 16.348 17.0794 16.3089C17.979 16.3597 18.6216 15.7368 18.6216 15.7368C18.4746 14.7617 17.9348 14.2901 17.8207 14.2065H17.7878C17.7785 14.2065 17.7713 14.1991 17.7713 14.1896C17.7713 14.1389 17.7878 14.0722 17.7878 14.0215C17.7878 13.9157 17.8042 13.8195 17.8042 13.7042V13.3034C17.8063 13.2738 17.8012 13.2452 17.7878 13.2188L17.7713 13.1353L17.7549 13.0507C17.7415 12.9428 17.7199 12.837 17.6901 12.7334C17.5914 12.3188 17.4331 11.9212 17.2202 11.5543C17.0095 11.2042 16.7504 10.887 16.4512 10.612C16.1643 10.3487 15.8394 10.135 15.4867 9.97747C15.1526 9.8125 14.7927 9.70992 14.4236 9.67502C14.2437 9.6581 14.0637 9.64118 13.8838 9.64118H13.5939C13.5003 9.64435 13.4067 9.65493 13.3152 9.67502C12.9626 9.73953 12.6243 9.87066 12.3179 10.061C12.03 10.244 11.7709 10.4713 11.5498 10.7347C11.3432 10.9874 11.1776 11.274 11.0584 11.5807C10.9463 11.8705 10.8805 12.1771 10.863 12.4891V12.9259C10.8743 13.0718 10.9031 13.2156 10.9484 13.3542C11.0214 13.627 11.1437 13.884 11.3082 14.1103C11.4573 14.3186 11.6383 14.5005 11.8439 14.6496C12.0341 14.7808 12.2418 14.8834 12.4608 14.9532C12.6613 15.0134 12.869 15.0409 13.0777 15.0367H13.3553C13.3882 15.0367 13.4047 15.0198 13.4211 15.0198C13.4376 15.0198 13.4695 15.0029 13.4859 15.0029C13.5353 14.9859 13.5682 14.9859 13.6165 14.9701L13.8622 14.8643C13.9383 14.8294 14.0103 14.7839 14.075 14.73C14.0915 14.7131 14.1079 14.6962 14.1234 14.6962C14.1861 14.6496 14.2005 14.5598 14.1552 14.4952C14.1511 14.4889 14.146 14.4826 14.1398 14.4773C14.0987 14.4138 14.0154 14.3958 13.9527 14.4381C13.9496 14.4402 13.9465 14.4424 13.9445 14.4445C13.928 14.4445 13.9116 14.4603 13.8951 14.4773C13.8365 14.509 13.7769 14.5365 13.7152 14.5619L13.5188 14.6126C13.4859 14.6126 13.453 14.6285 13.416 14.6285H13.1075C12.9492 14.6084 12.795 14.5629 12.65 14.4942C12.4958 14.4212 12.3529 14.325 12.2254 14.2087C12.0938 14.0881 11.9827 13.9443 11.8974 13.7856C11.811 13.6164 11.7503 13.4356 11.7185 13.2474C11.7051 13.1532 11.7 13.057 11.702 12.9618V12.8159C11.702 12.7651 11.7185 12.7101 11.7185 12.6647C11.7894 12.2332 11.9961 11.8377 12.3066 11.5373C12.3806 11.4601 12.4629 11.3924 12.5523 11.3353C12.6387 11.2698 12.7322 11.2137 12.8299 11.1672C12.9286 11.1185 13.0325 11.0784 13.1384 11.0498C13.2443 11.017 13.3543 10.999 13.4653 10.999H13.8273L14.1871 11.0498C14.4236 11.0995 14.6488 11.1905 14.8554 11.3184C15.2862 11.5701 15.6379 11.9445 15.8692 12.395C15.9844 12.6213 16.0625 12.8656 16.0985 13.1183C16.1119 13.1786 16.117 13.241 16.115 13.3034V13.7074C16.115 13.774 16.0985 13.8417 16.0985 13.9094C16.0954 13.9771 16.0841 14.0447 16.0656 14.1103C16.0491 14.178 16.0327 14.2457 16.0173 14.3123C15.9803 14.4498 15.936 14.5841 15.8836 14.7163C15.7829 14.9785 15.6512 15.2271 15.4919 15.4565C15.0004 16.1482 14.2673 16.6166 13.4468 16.7647C13.3101 16.7848 13.1733 16.7954 13.0356 16.7985H12.8248C12.7477 16.8017 12.6716 16.7954 12.5955 16.7816C12.3025 16.7658 12.0115 16.715 11.7298 16.6304C11.446 16.5437 11.1715 16.4305 10.9072 16.2941C10.389 16.0128 9.93355 15.6236 9.5706 15.1509C9.38862 14.9161 9.23028 14.6634 9.09764 14.3969C8.97118 14.1325 8.86733 13.8565 8.78919 13.572C8.70693 13.2875 8.65758 12.9935 8.64216 12.6974V12.2268C8.64422 12.082 8.65347 11.9381 8.67095 11.7943C8.6874 11.642 8.7203 11.4908 8.73675 11.3396C8.7604 11.1915 8.79227 11.0456 8.83443 10.9028C8.91257 10.6205 9.01127 10.3455 9.12952 10.0779C9.34749 9.56821 9.658 9.10607 10.0446 8.71584C10.1474 8.61009 10.241 8.53077 10.3397 8.44723C10.4353 8.35945 10.5381 8.28014 10.6481 8.2114C10.7458 8.14372 10.861 8.07709 10.9751 8.00941C11.0265 7.97451 11.081 7.94596 11.1386 7.92481C11.1643 7.91 11.191 7.89943 11.2198 7.89203C11.2363 7.89203 11.2856 7.85819 11.3021 7.85819C11.4213 7.80425 11.5437 7.75772 11.6681 7.71965C11.701 7.70273 11.7339 7.70273 11.7709 7.68581C11.8079 7.66889 11.8367 7.66889 11.8737 7.65197L12.0701 7.60121C12.102 7.60121 12.1349 7.58429 12.1729 7.58429C12.211 7.58429 12.2387 7.56842 12.2757 7.56842C12.3128 7.56842 12.3415 7.5515 12.3786 7.5515H12.4814C12.5143 7.5515 12.5472 7.53458 12.5842 7.53458C12.6233 7.5367 12.6613 7.53035 12.6983 7.51766C12.7312 7.51766 12.7806 7.50074 12.8124 7.50074H13.635C13.8766 7.51132 14.1172 7.53881 14.3547 7.58429C14.804 7.66677 15.2389 7.81377 15.6471 8.0221C16.0121 8.21669 16.3555 8.45252 16.6681 8.72747L16.7164 8.77824L16.7658 8.82794C16.7987 8.86178 16.848 8.89562 16.8799 8.93369L16.9827 9.03416L17.0804 9.13991C17.212 9.29114 17.3261 9.42544 17.4403 9.57667C17.6387 9.84951 17.8197 10.1361 17.9801 10.4343C17.9965 10.4512 17.9965 10.4682 18.013 10.4851C18.0253 10.4988 18.0315 10.5168 18.0294 10.5359L18.0788 10.6363L18.1271 10.7421C18.1466 10.7738 18.1579 10.8108 18.16 10.8478C18.2093 10.9821 18.2628 11.1006 18.2906 11.218C18.3502 11.3829 18.3996 11.5511 18.4376 11.7224C18.453 11.7816 18.5106 11.8186 18.5692 11.807C18.6309 11.8081 18.6823 11.7573 18.6833 11.6938C18.6833 11.6917 18.6833 11.6907 18.6833 11.6886C18.7563 11.4908 18.7769 11.2761 18.745 11.0667Z" fill="#AEAEBC"/>
</svg>
