<svg width="24" height="23" viewBox="0 0 24 23" fill="none" xmlns="http://www.w3.org/2000/svg">
<path d="M21.514 11.9454L22.0939 18.8988L11.8277 20.6295L10.944 13.6761L12.4106 13.4838C12.6493 13.5799 12.8201 13.6118 13.093 13.6761C13.5363 13.7723 14.0482 13.9003 14.7979 13.5159C14.9684 13.4198 15.3436 13.1313 15.4802 12.9393L21.514 11.9454ZM5.65329 20.2134C5.4828 19.9574 5.17569 19.6685 4.6981 19.316C4.01577 18.8033 4.25475 17.9059 4.66386 17.3614C5.17938 16.4322 7.87002 15.2145 7.73378 13.7083C7.66565 13.1634 7.59753 12.4584 7.05145 11.9457C7.0172 12.1381 7.05145 12.3304 7.05145 12.3304C7.05145 12.3304 6.81284 12.0744 6.71047 11.6894C6.6081 11.5614 6.50573 11.497 6.40337 11.3047C6.33524 11.5289 6.33524 11.7534 6.33524 11.7534C6.33524 11.7534 6.16475 11.3369 6.13051 11.0165C6.02814 11.1767 5.99426 11.4652 5.99426 11.4652C5.99426 11.4652 5.75565 10.8242 5.82377 10.4723C5.72141 10.1838 5.38043 9.57497 5.4828 8.22926C6.06276 8.61395 7.35892 8.51777 7.87039 7.81275C8.04088 7.58858 8.14288 6.94789 7.80227 5.69766C7.56365 4.89646 6.98369 3.71092 6.74545 3.26223L6.7112 3.2944C6.84745 3.64726 7.0868 4.41594 7.1888 4.80063C7.46129 5.92217 7.56439 6.30686 7.42741 6.81955C7.32504 7.26823 7.05182 7.5564 6.33598 7.87709C5.65365 8.19743 4.69884 7.39277 4.66422 7.36441C3.9819 6.85172 3.47043 6.01523 3.40231 5.63401C3.33418 5.18532 3.67479 4.92898 3.84565 4.57646C3.60704 4.64046 3.33013 4.76881 3.33013 4.76881C3.33013 4.76881 3.63724 4.44846 4.04634 4.19212C4.20186 4.10689 4.35009 4.01043 4.48968 3.9036H4.05076C4.05076 3.9036 4.46023 3.67944 4.90357 3.55074H4.2901L5.92725 2.87789C6.44277 2.68554 6.91631 2.74989 7.18917 3.10206C7.56476 3.58638 7.93961 3.83891 8.72394 4.03126C9.20153 3.83891 9.37202 3.71092 9.98586 3.54694C10.5316 2.97025 10.9749 2.90591 10.9749 2.90591C10.9749 2.90591 10.6678 3.16191 10.6339 3.45077C10.941 3.2266 11.282 3.03425 11.282 3.03425C11.282 3.03425 11.1458 3.19442 11.0434 3.41894L11.0777 3.45111C11.4532 3.25877 11.862 3.09825 11.862 3.09825C11.862 3.09825 11.7257 3.22625 11.5895 3.4186C11.862 3.4186 12.4081 3.41859 12.6132 3.45077C13.8751 3.48294 14.1479 2.20088 14.6255 2.00888C15.2394 1.81654 15.5122 1.68854 16.5355 2.64991C17.4222 3.48294 18.1042 4.92517 17.7636 5.24551C17.4911 5.50151 16.9108 5.14934 16.2627 4.41249C15.9217 4.0278 15.6827 3.54763 15.5465 2.9706C15.4784 2.48628 15.1031 2.20157 15.1031 2.20157C15.1031 2.20157 15.3417 2.68589 15.3417 3.09894C15.3417 3.32312 15.376 4.15649 15.7512 4.637C15.717 4.701 15.6831 4.98986 15.6488 5.02169C15.2055 4.509 14.2128 4.15683 14.0802 4.02884C14.6259 4.44535 15.8539 5.37801 16.3315 6.27192C16.7749 7.13678 16.502 7.90615 16.741 8.09849C16.8091 8.16249 17.6962 9.18821 17.8667 9.73272C18.1738 10.6619 17.9009 11.6233 17.4911 12.2L16.3997 12.3601C16.2571 12.3369 16.1191 12.2936 15.9902 12.2318C16.0583 12.1038 16.2288 11.7831 16.2288 11.7191L16.1607 11.6229C15.8197 12.0716 15.2401 12.5203 14.7621 12.7767C14.1483 13.097 13.4317 13.0652 12.9578 12.9047C11.6274 12.52 10.3655 11.6869 10.093 11.4628C10.093 11.4628 10.093 11.6229 10.1273 11.6869C10.6796 12.2331 11.2977 12.717 11.9691 13.1288L10.4005 13.289L11.1509 18.7365C10.81 18.7687 10.7753 18.8005 10.4005 18.8645C10.0934 17.807 9.47991 17.1341 8.79722 16.7176C8.21726 16.3648 7.39869 16.2689 6.61436 16.4291L6.58012 16.4931C7.12583 16.4291 7.77391 16.5253 8.42199 16.9096C9.07008 17.294 9.58191 18.2875 9.78628 18.8642C10.0249 19.6332 10.1957 20.4348 9.54767 21.2996C9.07008 21.9085 7.70579 22.2613 6.61436 21.5238C6.92146 21.9725 7.29669 22.325 7.8424 22.3887C8.62673 22.4848 9.37718 22.3565 9.92289 21.876C10.3662 21.4595 10.6052 20.5621 10.5367 19.6007L11.2529 19.5045L11.4915 21.1996L23.1176 19.8961L22.0939 11.1801L21.514 11.2763L20.3544 0.28125L0.980469 2.39634L3.36806 20.5334L5.65329 20.2134Z" fill="#AEAEBC"/>
<path d="M15.14 10.26C15.6423 10.5884 16.0707 10.7966 16.5027 10.767C16.7682 10.7371 17.0345 10.3495 17.2006 9.99187C17.3334 9.75365 17.3334 9.48485 17.1342 9.39536C17.0345 9.36542 16.6319 9.36542 16.3366 9.39536C15.7715 9.45491 15.2063 9.63358 15.0736 9.72371C14.8741 9.84282 14.9738 10.1412 15.14 10.2603V10.26ZM15.2727 6.7708V6.80074L15.3061 6.8603C15.4388 7.09851 15.5716 7.33737 15.8378 7.4568C15.9042 7.4568 15.9706 7.42686 16.0373 7.42686C16.2698 7.42686 16.4033 7.4568 16.5027 7.48642V7.30743C16.4693 7.00934 16.5691 6.47239 15.9046 6.1743C15.6391 6.05519 15.3064 6.11474 15.1733 6.23385H15.2397C15.4058 6.29341 15.3061 6.35296 15.2731 6.41284C15.2397 6.53194 15.2067 6.56188 15.2731 6.7708" fill="#AEAEBC"/>
<path d="M12.079 6.27214C12.2344 6.13578 11.364 5.93087 10.6798 6.40851C10.1824 6.78442 10.1824 7.56942 10.6486 8.01315C10.6954 8.03866 10.7375 8.07339 10.7728 8.11561C10.897 8.04742 11.0837 7.97924 11.2428 7.91069C11.5536 7.80824 11.8024 7.74006 12.0202 7.70578C12.1136 7.56942 12.2378 7.36451 12.2069 6.98896C12.1757 6.473 11.8027 6.57914 12.0827 6.27214H12.079ZM17.1509 14.5644L15.6584 17.2916L13.9172 16.7112L12.3932 19.2715L12.4553 20.0907L20.7887 18.4175L20.2913 12.7161L18.923 15.8569L17.1509 14.5644Z" fill="#AEAEBC"/>
</svg>
