<svg width="24" height="24" viewBox="0 0 24 24" fill="none" xmlns="http://www.w3.org/2000/svg">
<circle cx="12" cy="12" r="12" fill="#F4F4F6"/>
<path d="M6.01019 16.6562H8.3L9.90393 13.8481L8.79345 11.9055L6.0093 16.6562H6.01019ZM18.4647 11.826L17.213 14.0167L18.6792 16.6241L19.9318 14.4246L18.4647 11.826ZM18.0842 11.1555L15.4113 6.42807L14.0934 8.54727L16.8307 13.3486L18.0842 11.1555ZM13.9204 14.0464L15.4113 16.6546H17.9536L15.1897 11.8204L13.9204 14.0464ZM8.41476 11.2382L7.16833 9.04594L5.57676 11.8357L6.79935 13.9934L8.41476 11.2382ZM5.20425 12.5006L4.06641 14.5475L5.31812 16.6201L6.42772 14.6631L5.20425 12.4998V12.5006ZM13.6697 9.17764L12.3438 11.3113L13.5408 13.3839L14.8119 11.1579L13.6697 9.17845V9.17764ZM8.66987 6.34375L7.52584 8.3722L11.9748 16.1271L13.1612 14.0512L10.9129 10.1188L8.66898 6.34375H8.66987Z" fill="#AEAEBC"/>
</svg>
