<svg width="23" height="23" viewBox="0 0 23 23" fill="none" xmlns="http://www.w3.org/2000/svg">
<path fill-rule="evenodd" clip-rule="evenodd" d="M8.24248 11.8638C8.28933 11.7169 8.30884 11.5655 8.30533 11.4161C8.29989 11.3078 8.28582 11.1998 8.25495 11.0915C8.16204 10.7555 7.942 10.4554 7.61226 10.2661L2.92244 7.57083C2.26039 7.19154 1.41636 7.41707 1.03641 8.07506C0.652772 8.73209 0.879052 9.5712 1.5411 9.95144L4.16178 11.46L1.5411 12.9644C0.879052 13.3453 0.653572 14.1846 1.03641 14.8443C1.41636 15.5005 2.26039 15.7249 2.92244 15.3457L7.61226 12.6486C7.92873 12.4673 8.14349 12.1831 8.24248 11.8638ZM9.51524 14.3896C9.24578 14.3666 8.96561 14.423 8.71359 14.5691L4.02025 17.2626C3.35997 17.6427 3.13449 18.4863 3.51556 19.1444C3.8984 19.8008 4.74163 20.0268 5.40096 19.645L8.03043 18.1353V21.152C8.03043 21.912 8.64818 22.5278 9.41273 22.5278C10.1736 22.5278 10.7933 21.912 10.7933 21.152V15.7592C10.7933 15.0351 10.2294 14.4405 9.51524 14.3896ZM14.3216 8.52867C14.5903 8.5508 14.8697 8.49366 15.1217 8.3493L19.8141 5.65322C20.4753 5.27298 20.6997 4.43291 20.3195 3.77302C19.9386 3.11615 19.0946 2.89077 18.4343 3.2707L15.8066 4.78211V1.76453C15.8066 1.00659 15.1888 0.390625 14.4243 0.390625C13.6597 0.390625 13.0436 1.00659 13.0436 1.76453V7.15732C13.0436 7.88056 13.6059 8.47615 14.3216 8.52867ZM4.02025 5.65322L8.71359 8.3493C8.96561 8.49366 9.24578 8.5508 9.51524 8.52867C10.2294 8.47615 10.7933 7.88056 10.7933 7.15732V1.76453C10.7933 1.00659 10.1736 0.390625 9.41273 0.390625C8.64818 0.390625 8.03043 1.00659 8.03043 1.76453V4.78211L5.40096 3.2707C4.74163 2.89077 3.8984 3.11615 3.51556 3.77302C3.13449 4.43291 3.35997 5.27298 4.02025 5.65322ZM12.8403 11.4487C12.8403 11.3704 12.7927 11.2612 12.737 11.2033L12.1722 10.6436C12.1166 10.5884 12.0069 10.5426 11.928 10.5426H11.9061C11.8274 10.5426 11.7179 10.5884 11.6631 10.6436L11.0982 11.2033C11.0416 11.2612 10.9983 11.3704 10.9983 11.4487V11.4707C10.9983 11.548 11.0416 11.6562 11.0982 11.7126L11.6631 12.2738C11.7187 12.3292 11.8274 12.3749 11.9061 12.3749H11.928C12.0069 12.3749 12.1166 12.3292 12.1722 12.2738L12.737 11.7126C12.7927 11.6562 12.8403 11.548 12.8403 11.4707V11.4487ZM14.3995 11.987L12.4489 13.9261C12.3931 13.9831 12.2853 14.0297 12.204 14.0297H12.0625H11.7744H11.6304C11.5516 14.0297 11.442 13.9831 11.3854 13.9261L9.43576 11.987C9.37995 11.9324 9.33486 11.8226 9.33486 11.7451V11.6017V11.3148V11.1733C9.33486 11.0941 9.37995 10.9841 9.43576 10.9287L11.3854 8.98977C11.442 8.93263 11.5516 8.88775 11.6304 8.88775H11.7744H12.0625H12.204C12.2835 8.88775 12.3931 8.93263 12.4489 8.98977L14.3995 10.9287C14.4552 10.9841 14.5003 11.0941 14.5003 11.1733V11.3148V11.6017V11.7451C14.5003 11.8226 14.4552 11.9324 14.3995 11.987ZM19.8141 17.2626L15.1217 14.5691C14.8697 14.423 14.5903 14.3666 14.3216 14.3896C13.6059 14.4405 13.0436 15.0351 13.0436 15.7592V21.152C13.0436 21.912 13.6597 22.5278 14.4243 22.5278C15.1888 22.5278 15.8066 21.912 15.8066 21.152V18.1353L18.4343 19.645C19.0944 20.0268 19.9386 19.8008 20.3195 19.1444C20.6997 18.4863 20.4753 17.6427 19.8141 17.2626ZM22.2951 9.95144L19.6743 11.46L22.2951 12.9644C22.957 13.3453 23.1833 14.1846 22.8006 14.8443C22.4187 15.5005 21.5739 15.7249 20.9144 15.3457L16.2211 12.6486C15.9081 12.4673 15.6908 12.1831 15.5944 11.8638C15.5485 11.7169 15.5272 11.5655 15.5325 11.4161C15.5352 11.3078 15.5511 11.1998 15.5811 11.0915C15.675 10.7555 15.895 10.4555 16.2211 10.2661L20.9144 7.57083C21.5739 7.19154 22.4187 7.41707 22.8006 8.07506C23.1833 8.73209 22.957 9.5712 22.2951 9.95144Z" fill="#AEAEBC"/>
</svg>
