<svg width="25" height="23" viewBox="0 0 25 23" fill="none" xmlns="http://www.w3.org/2000/svg">
<path d="M11.4826 13.0901C10.1893 13.0901 9.15234 12.0415 9.15234 10.7599C9.15234 9.46664 10.2009 8.42969 11.4826 8.42969C12.7642 8.42969 13.8128 9.47829 13.8128 10.7599C13.8128 12.0415 12.7758 13.0901 11.4826 13.0901Z" fill="#AEAEBC"/>
<path d="M16.2202 12.4537C15.5382 12.4537 14.9766 11.9753 14.9766 11.3415C14.9766 10.7316 15.5115 10.2293 16.2202 10.2293C16.9023 10.2293 17.4639 10.7076 17.4639 11.3415C17.4639 11.9514 16.9023 12.4537 16.2202 12.4537ZM20.7403 13.4822C20.5798 14.0682 19.8978 14.427 19.2425 14.2834C18.5872 14.1399 18.1861 13.53 18.3465 12.944C18.507 12.358 19.189 11.9992 19.8443 12.1427C20.4728 12.2863 20.874 12.8364 20.767 13.3985C20.7537 13.4343 20.7537 13.4583 20.7403 13.4822ZM19.871 10.6478C19.2158 10.7914 18.5338 10.4206 18.3866 9.82265C18.2395 9.23665 18.6407 8.62673 19.3094 8.49518C19.9647 8.35167 20.6467 8.7224 20.7938 9.32037C20.8205 9.46388 20.8473 9.61935 20.8205 9.76286C20.7403 10.1814 20.3792 10.5402 19.871 10.6478ZM24.2573 13.3745C24.137 13.9845 23.5085 14.3791 22.8264 14.2834C22.1444 14.1878 21.7031 13.6137 21.8101 13.0038C21.9305 12.3939 22.559 11.9992 23.241 12.0949C23.8695 12.2025 24.3242 12.7048 24.2707 13.2669C24.2841 13.2908 24.2573 13.3387 24.2573 13.3745ZM23.2544 10.6C22.5724 10.7076 21.9438 10.2891 21.8502 9.6911C21.7299 9.08118 22.1979 8.5191 22.8666 8.43538C23.5486 8.32775 24.1771 8.74632 24.2707 9.34429C24.2975 9.45192 24.2975 9.53563 24.2975 9.64327C24.244 10.0977 23.816 10.5163 23.2544 10.6ZM22.3985 17.2015C22.0508 17.7277 21.3153 17.919 20.7002 17.6201C20.1118 17.3091 19.8978 16.6514 20.2321 16.1012C20.5798 15.575 21.3153 15.3837 21.9305 15.6827C22.3584 15.8979 22.5857 16.3165 22.5456 16.7351C22.5456 16.9025 22.5055 17.058 22.3985 17.2015ZM21.9572 7.0242C21.3688 7.32318 20.6199 7.13183 20.2589 6.60562C19.9245 6.07942 20.1385 5.4097 20.7269 5.0868C21.3153 4.78782 22.0642 4.97917 22.4253 5.50537C22.5724 5.72064 22.6125 5.92395 22.5724 6.13921C22.5456 6.52191 22.3049 6.85677 21.9572 7.0242Z" fill="#AEAEBC"/>
<path d="M11.8542 22.4184C8.93172 22.4184 6.21961 21.2627 4.17385 19.1777C2.11639 17.0807 0.994141 14.3046 0.994141 11.3498C0.994141 8.39503 2.12808 5.60703 4.17385 3.52199C6.21961 1.43696 8.9551 0.28125 11.8542 0.28125C14.2624 0.28125 16.542 1.07952 18.4475 2.56883L17.1148 4.30835C15.5951 3.1169 13.7714 2.48543 11.8542 2.48543C9.52791 2.48543 7.35355 3.40285 5.71694 5.0828C4.08033 6.76274 3.19188 8.97884 3.19188 11.3379C3.19188 13.697 4.09202 15.925 5.74032 17.593C7.38862 19.2611 9.56298 20.1666 11.8776 20.1666C13.8065 20.1666 15.6185 19.5351 17.1382 18.3436L18.4708 20.107C16.5303 21.644 14.2507 22.4184 11.8542 22.4184Z" fill="#AEAEBC"/>
</svg>
