<svg width="24" height="23" viewBox="0 0 24 23" fill="none" xmlns="http://www.w3.org/2000/svg">
<path d="M0.539062 11.4592V0.390625H23.8413V22.5278H0.539062V11.4592ZM6.13707 16.3679V15.0721L7.90635 15.0636C9.61156 15.0554 9.68265 15.0535 9.86907 15.0097C10.7494 14.8028 11.2751 14.3309 11.5016 13.5438L11.5634 13.3292L11.5705 11.5212C11.5776 9.75635 11.5766 9.70781 11.53 9.4907C11.438 9.06175 11.2852 8.7717 11.0002 8.48452C10.6531 8.13491 10.2182 7.93857 9.6421 7.87142C9.32863 7.83489 6.72183 7.84202 6.45556 7.88018C5.33812 8.0402 4.635 8.74742 4.54298 9.80393C4.51931 10.0756 4.51312 17.627 4.53656 17.6492C4.54489 17.6572 4.90842 17.6637 5.3444 17.6637H6.13707V16.3679ZM6.14276 11.6709C6.1489 10.1628 6.15629 9.79003 6.18139 9.72517C6.22697 9.60735 6.32599 9.50415 6.4493 9.44597L6.55805 9.39465H9.58462L9.69837 9.4487C9.81985 9.50642 9.89965 9.59957 9.93697 9.72718C9.95135 9.77641 9.95989 10.4149 9.95996 11.4499C9.96009 13.2689 9.96182 13.2454 9.81841 13.3775C9.6548 13.5282 9.72739 13.5226 7.83713 13.5298L6.13518 13.5364L6.14276 11.6709ZM18.1767 15.0005C18.6702 14.8728 18.9359 14.7343 19.2467 14.4425C19.5651 14.1436 19.7264 13.8557 19.8293 13.4021C19.8681 13.2313 19.8704 12.9968 19.8704 9.24332V5.26555L19.0682 5.25987L18.2661 5.25418V7.8463L16.5082 7.85508C14.6184 7.86453 14.6398 7.86332 14.2617 7.9815C13.6297 8.17899 13.1658 8.61669 12.9586 9.21089C12.8378 9.55735 12.8387 9.53973 12.8387 11.5024C12.8387 13.3007 12.8395 13.3319 12.8874 13.5021C13.0036 13.9146 13.1488 14.177 13.405 14.4371C13.729 14.7662 14.1919 14.9791 14.7275 15.0455C14.8151 15.0563 15.578 15.0634 16.4228 15.0611L17.9589 15.0569L18.1767 15.0006V15.0005ZM14.8106 13.5029C14.6509 13.4662 14.5805 13.4149 14.5113 13.2848L14.4544 13.1779V9.74056L14.5054 9.64994C14.561 9.55117 14.6599 9.47137 14.7844 9.425C14.8488 9.40101 15.1895 9.39404 16.5658 9.38868L18.2675 9.38205L18.2611 11.2583L18.2547 13.1346L18.1978 13.2426C18.1271 13.3766 17.9873 13.4796 17.8336 13.511C17.6569 13.547 14.9711 13.5398 14.8106 13.5029Z" fill="#AEAEBC"/>
</svg>
