<svg width="18" height="19" viewBox="0 0 18 19" fill="none" xmlns="http://www.w3.org/2000/svg">
<path d="M2.30738 3.95474C2.5462 4.19842 2.93486 4.19842 3.17484 3.95474C3.41366 3.71107 3.41366 3.31524 3.17484 3.07156L2.11071 1.98869C1.87189 1.74501 1.48323 1.74501 1.24325 1.98869C1.00443 2.23236 1.00443 2.62819 1.24325 2.87187L2.30738 3.95474ZM8.59151 2.6056C8.92984 2.6056 9.20494 2.32627 9.20494 1.98155V0.897488C9.20494 0.552774 8.92984 0.273438 8.59151 0.273438C8.25319 0.273438 7.97808 0.552774 7.97808 0.897488V1.98036C7.97808 2.32508 8.25319 2.60442 8.59151 2.60442V2.6056ZM14.8756 3.95474L15.9398 2.87187C16.1786 2.62819 16.1786 2.23236 15.9398 1.98869C15.701 1.74501 15.3123 1.74501 15.0723 1.98869L14.0094 3.07156C13.7705 3.31524 13.7705 3.71107 14.0094 3.95474C14.2482 4.19842 14.6368 4.19842 14.8756 3.95474V3.95474ZM13.8349 13.7648L12.9569 6.5187C12.8937 5.99212 12.6209 5.50477 12.1901 5.15054C11.7605 4.79513 11.2021 4.59781 10.6238 4.59306H6.57212C5.98795 4.58949 5.42252 4.78443 4.98586 5.13984C4.54921 5.49526 4.27176 5.98618 4.20737 6.51751L3.3282 13.7731C2.76979 13.8718 2.24768 14.1357 1.83794 14.541C1.30763 15.0628 1.0056 15.7772 1.0056 16.5261C1.0056 16.9968 1.19525 17.4437 1.52655 17.7694C1.85668 18.0939 2.29919 18.2734 2.75692 18.2734H14.4565C14.9131 18.2734 15.3568 18.0951 15.6857 17.7694C16.0159 17.4437 16.2067 16.9968 16.2067 16.5261C16.2067 15.7772 15.9047 15.064 15.3743 14.541C14.9517 14.1238 14.4109 13.8563 13.8338 13.7648H13.8349ZM5.87206 9.84103C6.17409 9.60805 6.60489 9.66986 6.83317 9.97772L7.82707 11.3197L9.94246 7.50173C10.1286 7.16534 10.5477 7.04647 10.8778 7.23666C11.208 7.42684 11.325 7.85238 11.1389 8.18878L8.90759 12.2172C8.90759 12.2172 8.90525 12.2207 8.90525 12.2231C8.80457 12.4014 8.67346 12.5488 8.51659 12.6605C8.34684 12.7806 8.15368 12.8543 7.9535 12.8709C7.9137 12.8757 7.8739 12.8781 7.83409 12.8781C7.66786 12.8781 7.50162 12.84 7.34827 12.7651C7.1715 12.6784 7.01346 12.5441 6.89054 12.3765L5.7386 10.8217C5.51032 10.5138 5.57003 10.0752 5.87323 9.84222L5.87206 9.84103ZM14.7305 16.765C14.6614 16.834 14.5631 16.8756 14.4554 16.8756H2.75575C2.64922 16.8756 2.54971 16.834 2.48064 16.765C2.41274 16.6973 2.37762 16.6117 2.37762 16.5261C2.37762 16.1624 2.52395 15.8093 2.79204 15.5454C3.06129 15.2804 3.43005 15.1282 3.81871 15.1282H13.3924C13.7822 15.1282 14.151 15.2816 14.4191 15.5454C14.6872 15.8093 14.8335 16.1624 14.8335 16.5261C14.8335 16.6117 14.7996 16.6985 14.7305 16.765V16.765ZM2.28982 7.84525C2.28982 7.50054 2.01472 7.2212 1.67639 7.2212H0.613429C0.275106 7.2212 0 7.50054 0 7.84525C0 8.18997 0.275106 8.4693 0.613429 8.4693H1.67639C2.01472 8.4693 2.28982 8.18997 2.28982 7.84525V7.84525ZM16.5684 7.2212H15.5043C15.166 7.2212 14.8909 7.50054 14.8909 7.84525C14.8909 8.18997 15.166 8.4693 15.5043 8.4693H16.5684C16.9067 8.4693 17.1819 8.18997 17.1819 7.84525C17.1819 7.50054 16.9067 7.2212 16.5684 7.2212Z" fill="#FF671D"/>
</svg>
