<svg width="18" height="19" viewBox="0 0 18 19" fill="none" xmlns="http://www.w3.org/2000/svg">
<path d="M6.48773 11.9489H11.5123C12.0291 11.9489 12.3493 11.3901 12.0909 10.944L9.57865 6.59307C9.32025 6.14693 8.67644 6.14693 8.42025 6.59307L5.90798 10.944C5.64957 11.3901 5.97313 11.9489 6.48663 11.9489H6.48773ZM9 0.773438C4.03067 0.773438 0 4.80411 0 9.77344C0 14.7428 4.03067 18.7734 9 18.7734C13.9693 18.7734 18 14.7428 18 9.77344C18 4.80411 13.9693 0.773438 9 0.773438ZM9.02319 4.89025C11.721 4.9035 13.8964 7.09994 13.8832 9.79773C13.8699 12.4955 11.6735 14.671 8.97571 14.6577C6.27791 14.6445 4.10245 12.448 4.11571 9.75025C4.12896 7.05246 6.3254 4.877 9.02319 4.89025ZM2.60393 12.5408C2.54871 12.5596 2.49681 12.5673 2.4427 12.5673C2.22405 12.5673 2.01755 12.426 1.94687 12.2073C1.70172 11.4531 1.57914 10.6425 1.57914 9.79663C1.57914 9.3273 1.61779 8.837 1.6962 8.34338C2.28589 5.34853 4.58613 3.03724 7.56 2.4343C7.8438 2.37687 8.11877 2.55908 8.1762 2.84178C8.23362 3.12448 8.05141 3.40055 7.76871 3.45798C5.21006 3.97479 3.23006 5.96473 2.7265 8.52448C2.66135 8.94411 2.62712 9.38031 2.62712 9.79442C2.62712 10.5277 2.73423 11.2322 2.94515 11.8815C3.0335 12.1554 2.88552 12.4502 2.60834 12.5386L2.60282 12.5408H2.60393ZM14.6926 14.6953C13.32 16.3285 11.3455 17.2252 9.13362 17.2252C6.92172 17.2252 4.82356 16.3153 3.39681 14.7284C3.20356 14.5142 3.22233 14.1829 3.43546 13.9929C3.64969 13.7997 3.98098 13.8185 4.17092 14.0327C5.38123 15.3788 7.23313 16.185 9.13031 16.185C11.0275 16.185 12.7204 15.4186 13.8909 14.025C14.0764 13.8063 14.4044 13.7743 14.6264 13.962C14.8483 14.1475 14.8737 14.4755 14.6893 14.6975L14.6915 14.6953H14.6926ZM16.1039 12.1731C16.0288 12.3895 15.8279 12.5231 15.6103 12.5231C15.5529 12.5231 15.4955 12.5121 15.438 12.4944C15.1664 12.4006 15.0228 12.1035 15.1167 11.8296C15.2083 11.5635 15.2912 11.2841 15.3596 10.997C15.438 10.6028 15.48 10.1809 15.48 9.7635C15.48 6.70129 13.2968 4.04767 10.2865 3.45356C10.0049 3.39835 9.80945 3.12448 9.86135 2.84289C9.91325 2.56129 10.1739 2.37356 10.4533 2.42325C10.4588 2.42325 10.482 2.42877 10.4875 2.43098C13.9826 3.12006 16.5214 6.20546 16.5214 9.7635C16.5214 10.2483 16.4739 10.7397 16.3778 11.219C16.2972 11.5602 16.2055 11.8738 16.1017 12.1742H16.1039V12.1731Z" fill="#FF671D"/>
</svg>
