<svg width="24" height="24" viewBox="0 0 24 24" fill="none" xmlns="http://www.w3.org/2000/svg">
<circle cx="12" cy="12" r="12" fill="#F4F4F6"/>
<path fill-rule="evenodd" clip-rule="evenodd" d="M12.5604 15.4255C12.054 14.9176 11.9053 14.1536 12.1842 13.4926C12.463 12.8317 13.114 12.4054 13.831 12.4142C14.548 12.4229 15.1884 12.865 15.451 13.5326C15.5053 13.6711 15.6258 13.7729 15.7714 13.8034C15.9171 13.8338 16.0682 13.7887 16.1734 13.6835L17.5503 12.3059C17.8947 11.9612 17.8947 11.4026 17.5503 11.058L16.139 9.64596C16.9647 9.42266 17.5114 8.63892 17.436 7.78648C17.3606 6.93404 16.6849 6.25853 15.8328 6.18379C14.9807 6.10904 14.1978 6.65661 13.9753 7.48291L12.564 6.07089C12.2195 5.72637 11.6612 5.72637 11.3167 6.07089L10.0351 7.34347C9.94123 7.43707 9.89443 7.56791 9.90759 7.69981C9.92076 7.83172 9.9925 7.95072 10.103 8.02389C10.6582 8.39745 10.9544 9.05314 10.8679 9.71695C10.7813 10.3808 10.3268 10.9384 9.69436 11.1569C9.0619 11.3754 8.36032 11.2171 7.8828 10.7482C7.79889 10.6647 7.72381 10.5727 7.65875 10.4738C7.58578 10.3628 7.46673 10.2906 7.33464 10.2773C7.20255 10.2639 7.07147 10.3108 6.97779 10.4049L5.69967 11.681C5.35532 12.0257 5.35532 12.5843 5.69967 12.9289L10.6896 17.9213C11.034 18.2658 11.5924 18.2658 11.9368 17.9213L13.3146 16.5428C13.4198 16.4376 13.4649 16.2863 13.4345 16.1406C13.4041 15.9949 13.3023 15.8744 13.1638 15.82C12.9374 15.7321 12.7318 15.5977 12.5604 15.4255Z" fill="#AEAEBC"/>
</svg>
