<svg width="26" height="25" viewBox="0 0 26 25" fill="none" xmlns="http://www.w3.org/2000/svg">
<path d="M23.4832 18.7952C22.1329 18.7586 21.1015 18.8841 20.2197 19.256C19.9691 19.3617 19.5696 19.3644 19.5287 19.6785C19.6664 19.8228 19.6877 20.0384 19.7972 20.2159C20.0078 20.5567 20.3632 21.0132 20.6804 21.2527C21.0269 21.5142 21.3841 21.794 21.7556 22.0205C22.4164 22.4235 23.1541 22.6536 23.7904 23.0573C24.1654 23.2952 24.5379 23.5949 24.9038 23.8634C25.0846 23.9962 25.2062 24.2026 25.4412 24.2857C25.4412 24.2731 25.4412 24.2603 25.4412 24.2474C25.3177 24.0902 25.2859 23.874 25.1725 23.7098C25.0062 23.5436 24.8398 23.3771 24.6734 23.2107C24.1854 22.5629 23.5658 21.994 22.9073 21.5214C22.3821 21.1444 21.2067 20.6352 20.9876 20.024C20.9747 20.0112 20.9621 19.9983 20.9491 19.9855C21.3215 19.9436 21.7575 19.8088 22.1011 19.7168C22.6784 19.562 23.1943 19.602 23.7904 19.4481C24.0591 19.3713 24.3279 19.2943 24.5967 19.2177C24.5967 19.1663 24.5967 19.1154 24.5967 19.0641C24.2954 18.7548 24.0805 18.3456 23.7519 18.0658C22.8922 17.3337 21.9538 16.6023 20.9876 15.9924C20.4517 15.6541 19.7894 15.4343 19.2215 15.1477C19.0304 15.0513 18.6948 15.0011 18.5686 14.8405C18.2702 14.4601 18.1077 13.978 17.8777 13.535C17.3957 12.6069 16.9224 11.5933 16.4954 10.617C16.2041 9.95113 16.0139 9.29448 15.6508 8.69714C13.9074 5.83087 12.0308 4.1008 9.1238 2.40031C8.50527 2.03868 7.76052 1.89585 6.97351 1.70927C6.55136 1.68371 6.12886 1.65799 5.70653 1.63243C5.44876 1.52469 5.18055 1.2093 4.93868 1.05647C3.97567 0.448093 1.50552 -0.875216 0.792232 0.86453C0.341854 1.96266 1.46532 3.03425 1.86712 3.59066C2.14918 3.98103 2.51027 4.41868 2.71177 4.85767C2.84433 5.14616 2.86725 5.43548 2.98066 5.74083C3.25982 6.49285 3.50254 7.31102 3.86363 8.00609C4.04614 8.35772 4.2473 8.72822 4.47804 9.04275C4.6195 9.23569 4.86188 9.32071 4.9002 9.61871C4.66312 9.95047 4.64961 10.4654 4.51636 10.8857C3.91631 12.7778 4.14261 15.1296 5.01549 16.5299C5.28335 16.9598 5.91419 17.8818 6.78159 17.5282C7.54037 17.2191 7.37086 16.2614 7.58793 15.4164C7.63702 15.2248 7.60691 15.084 7.70304 14.9557C7.70304 14.9684 7.70304 14.9813 7.70304 14.9941C7.93345 15.4548 8.16386 15.9155 8.39426 16.3762C8.90571 17.1999 9.81347 18.0608 10.5827 18.6417C10.9816 18.943 11.2956 19.4638 11.8114 19.64C11.8114 19.6272 11.8114 19.6145 11.8114 19.6015C11.7984 19.6015 11.7857 19.6015 11.7729 19.6015C11.673 19.4457 11.5166 19.3812 11.389 19.256C11.0885 18.9614 10.7544 18.5952 10.5059 18.2577C9.80629 17.3079 9.18794 16.2682 8.62467 15.1861C8.3556 14.6694 8.12178 14.0993 7.89496 13.5734C7.80756 13.3707 7.80858 13.0641 7.62641 12.9591C7.37805 13.3444 7.01217 13.656 6.82008 14.111C6.51287 14.8383 6.47319 15.7253 6.35944 16.6451C6.29204 16.6692 6.32198 16.6526 6.28246 16.6834C5.74776 16.5544 5.55977 16.0039 5.36118 15.5317C4.85846 14.3373 4.76507 12.4142 5.20741 11.0394C5.32184 10.6838 5.8391 9.56343 5.62973 9.23485C5.52984 8.90695 5.20005 8.71736 5.01549 8.4668C4.78713 8.15709 4.55912 7.74934 4.40107 7.39171C3.98969 6.46045 3.7976 5.41509 3.3645 4.47381C3.15753 4.0238 2.80739 3.56844 2.51985 3.16839C2.20152 2.72523 1.84505 2.39881 1.5984 1.86278C1.51065 1.67235 1.39142 1.36749 1.52159 1.17172C1.56299 1.03958 1.62132 0.984471 1.752 0.941366C1.97471 0.769649 2.59494 0.998497 2.82689 1.09488C3.44267 1.35062 3.95651 1.59417 4.47804 1.93962C4.72846 2.10566 4.98162 2.42671 5.28421 2.51558C5.39933 2.51558 5.51461 2.51558 5.62973 2.51558C6.17025 2.63985 6.77578 2.55417 7.28072 2.7075C8.17326 2.97879 8.9731 3.40074 9.69955 3.85943C11.9126 5.25675 13.722 7.24589 14.9597 9.61871C15.1588 10.0007 15.245 10.3654 15.4204 10.7706C15.7743 11.5878 16.22 12.4287 16.5721 13.2278C16.9234 14.0251 17.2658 14.8298 17.7624 15.4933C18.0236 15.842 19.0319 16.0291 19.4902 16.2227C19.8114 16.3585 20.3377 16.5 20.642 16.6834C21.2233 17.034 21.7864 17.4514 22.3315 17.8354C22.604 18.0273 23.4415 18.4483 23.4832 18.7952Z" fill="#AEAEBC"/>
<path fill-rule="evenodd" clip-rule="evenodd" d="M6.32208 4.16456C6.04053 4.15938 5.84142 4.1953 5.63086 4.24124C5.63086 4.25409 5.63086 4.26695 5.63086 4.27966C5.64369 4.27966 5.65652 4.27966 5.66935 4.27966C5.80362 4.5556 6.0407 4.73317 6.20679 4.97088C6.33474 5.23965 6.46268 5.50842 6.5908 5.77703C6.60346 5.76432 6.61646 5.75147 6.62911 5.73876C6.86688 5.57122 6.97584 5.30313 6.97464 4.89404C6.87936 4.79381 6.86534 4.66803 6.78272 4.54842C6.6729 4.38907 6.46046 4.29853 6.32208 4.16456Z" fill="#AEAEBC"/>
</svg>
