<svg width="20" height="17" viewBox="0 0 20 17" fill="none" xmlns="http://www.w3.org/2000/svg">
<path fill-rule="evenodd" clip-rule="evenodd" d="M10.1729 8.2198C11.4722 8.2198 12.5255 7.69315 12.5255 7.0435C12.5255 6.39384 11.4722 5.86719 10.1729 5.86719C8.87361 5.86719 7.82031 6.39384 7.82031 7.0435C7.82031 7.69315 8.87361 8.2198 10.1729 8.2198Z" stroke="#FF671D" stroke-width="0.986091" stroke-linecap="round" stroke-linejoin="round"/>
<path fill-rule="evenodd" clip-rule="evenodd" d="M10.1729 3.51668C11.4722 3.51668 12.5255 2.99003 12.5255 2.34037C12.5255 1.69071 11.4722 1.16406 10.1729 1.16406C8.87361 1.16406 7.82031 1.69071 7.82031 2.34037C7.82031 2.99003 8.87361 3.51668 10.1729 3.51668Z" stroke="#FF671D" stroke-width="0.986091" stroke-linecap="round" stroke-linejoin="round"/>
<path fill-rule="evenodd" clip-rule="evenodd" d="M15.6612 5.86824C16.9605 5.86824 18.0138 5.34159 18.0138 4.69193C18.0138 4.04228 16.9605 3.51562 15.6612 3.51562C14.3619 3.51562 13.3086 4.04228 13.3086 4.69193C13.3086 5.34159 14.3619 5.86824 15.6612 5.86824Z" stroke="#FF671D" stroke-width="0.986091" stroke-linecap="round" stroke-linejoin="round"/>
<path fill-rule="evenodd" clip-rule="evenodd" d="M5.07527 5.86824C6.37459 5.86824 7.42789 5.34159 7.42789 4.69193C7.42789 4.04228 6.37459 3.51562 5.07527 3.51562C3.77596 3.51562 2.72266 4.04228 2.72266 4.69193C2.72266 5.34159 3.77596 5.86824 5.07527 5.86824Z" stroke="#FF671D" stroke-width="0.986091" stroke-linecap="round" stroke-linejoin="round"/>
<path d="M8.39699 3.10156L6.70703 3.83636" stroke="#FF671D" stroke-width="0.986091" stroke-linecap="round" stroke-linejoin="round"/>
<path d="M13.8552 3.93125L11.9473 3.10156" stroke="#FF671D" stroke-width="0.986091" stroke-linecap="round" stroke-linejoin="round"/>
<path d="M3.17284 5.38281L1.62482 6.05566C1.33891 6.18044 1.15415 6.46282 1.1543 6.77478V12.029C1.15438 12.3363 1.33404 12.6153 1.61384 12.7426L9.46687 16.3139C9.66546 16.4044 9.89281 16.4081 10.0942 16.324L18.7072 12.7347C18.9993 12.6129 19.1895 12.3274 19.1895 12.0109V6.77478C19.1896 6.46282 19.0048 6.18044 18.7189 6.05566L17.3873 5.47613" stroke="#FF671D" stroke-width="0.986091" stroke-linecap="round" stroke-linejoin="round"/>
<path d="M9.7793 10.1797V16.3812" stroke="#FF671D" stroke-width="0.986091" stroke-linecap="round" stroke-linejoin="round"/>
<path d="M19.0447 6.32031L9.7793 10.181" stroke="#FF671D" stroke-width="0.986091" stroke-linecap="round" stroke-linejoin="round"/>
<path d="M9.78119 10.1927L1.29688 6.33594" stroke="#FF671D" stroke-width="0.986091" stroke-linecap="round" stroke-linejoin="round"/>
</svg>
