<svg width="24" height="24" viewBox="0 0 24 24" fill="none" xmlns="http://www.w3.org/2000/svg">
<circle cx="12" cy="12" r="12" fill="#F4F4F6"/>
<path fill-rule="evenodd" clip-rule="evenodd" d="M18.806 14.0527C18.8118 14.1602 18.8147 14.2683 18.8147 14.3772L18.8111 14.3779V14.3842V14.3911C18.8111 14.5063 18.8082 14.6206 18.8017 14.7344C18.8002 14.7654 18.7974 14.7961 18.7946 14.8266C18.7933 14.8412 18.792 14.8558 18.7908 14.8703L18.7905 14.8754C18.7855 14.943 18.7805 15.0114 18.7734 15.0783C18.7688 15.1239 18.7623 15.1691 18.7558 15.2142C18.7542 15.2253 18.7526 15.2364 18.751 15.2476C18.7484 15.2663 18.7459 15.2851 18.7434 15.3039C18.7384 15.3415 18.7334 15.3791 18.7271 15.4161C18.7173 15.4765 18.7055 15.5363 18.6936 15.5967L18.6924 15.6026C18.6895 15.6176 18.6869 15.6327 18.6842 15.6477C18.6802 15.6704 18.6762 15.6932 18.6714 15.7157C18.6704 15.7209 18.6691 15.7259 18.6678 15.7309C18.6665 15.736 18.6653 15.741 18.6642 15.7462C18.6498 15.8127 18.6331 15.8786 18.6164 15.9445L18.6164 15.9445C18.6136 15.9555 18.6109 15.9664 18.6081 15.9772C18.6003 16.0084 18.5925 16.0392 18.5839 16.07C18.5651 16.1401 18.5441 16.2087 18.5224 16.2774C18.5115 16.3134 18.5 16.3495 18.4884 16.3856C18.4644 16.4577 18.4392 16.5291 18.4123 16.6006C18.4092 16.6091 18.4061 16.6177 18.403 16.6262C18.3947 16.6488 18.3866 16.6713 18.3777 16.6935C18.3487 16.7684 18.3183 16.8419 18.2865 16.9154L18.2691 16.957C18.2666 16.9629 18.2637 16.9688 18.2608 16.9747C18.2579 16.9806 18.255 16.9865 18.2525 16.9923C18.2177 17.0686 18.1823 17.1449 18.1446 17.2198C18.1394 17.23 18.1342 17.2401 18.1291 17.2503C18.1237 17.2609 18.1184 17.2716 18.1128 17.2822C18.073 17.3606 18.0318 17.4383 17.9883 17.5153C17.9846 17.5213 17.981 17.5274 17.9775 17.5336C17.972 17.5431 17.9665 17.5527 17.9609 17.5624C17.9146 17.6428 17.8676 17.7226 17.8176 17.8009C17.8143 17.8061 17.8111 17.8112 17.8078 17.8162C17.8046 17.8212 17.8013 17.8263 17.798 17.8315C17.7445 17.9147 17.6903 17.9972 17.6331 18.0777C17.6331 18.078 17.6327 18.0785 17.6324 18.079C17.632 18.0796 17.6317 18.0801 17.6317 18.0804C17.6307 18.0822 17.6295 18.0836 17.6284 18.085C17.6277 18.0858 17.6271 18.0866 17.6266 18.0874C17.3169 18.525 16.9558 18.9265 16.5484 19.2809L16.547 19.2795C16.5372 19.2878 16.5275 19.2959 16.5177 19.3041C16.5079 19.3122 16.4982 19.3204 16.4884 19.3287L15.0528 17.3988C15.8415 16.6248 16.3292 15.5679 16.3292 14.4036C16.3292 12.0381 14.3213 10.1137 11.8531 10.1137C9.38493 10.1137 7.37698 12.0381 7.37698 14.4036C7.37698 16.7691 9.38493 18.6935 11.8531 18.6935C12.6714 18.6935 13.4377 18.4813 14.0984 18.1123L15.518 20.0201C15.4095 20.0839 15.2995 20.1463 15.1874 20.2046C15.1573 20.2205 15.1265 20.2353 15.0957 20.2501C15.0836 20.2559 15.0714 20.2618 15.0593 20.2677C14.9594 20.3169 14.8589 20.3641 14.7561 20.4084C14.7413 20.4148 14.7265 20.4213 14.7116 20.4279C14.6827 20.4406 14.6535 20.4534 14.6244 20.4653C14.6189 20.4674 14.6133 20.4699 14.6077 20.4724C14.6024 20.4748 14.5971 20.4771 14.5918 20.4792C14.4703 20.5291 14.3466 20.5742 14.2214 20.6165C14.1829 20.63 14.1432 20.6425 14.1039 20.6548L14.0889 20.6595C13.9631 20.6997 13.8357 20.7371 13.7069 20.7704C13.6974 20.773 13.688 20.7757 13.6786 20.7784C13.663 20.7829 13.6475 20.7874 13.6317 20.7913C13.521 20.8183 13.4088 20.8432 13.2959 20.8654C13.2732 20.87 13.2505 20.8737 13.2278 20.8775C13.2122 20.8801 13.1965 20.8827 13.1809 20.8855C13.1375 20.8932 13.0933 20.9008 13.0499 20.9078C12.8972 20.932 12.7431 20.9528 12.5868 20.9674C12.5712 20.9688 12.5555 20.9698 12.5398 20.9709C12.524 20.9719 12.5083 20.9729 12.4927 20.9743C12.3545 20.9854 12.2156 20.9924 12.0752 20.9958C12.0594 20.9961 12.0437 20.9966 12.0279 20.9971C12.0039 20.9979 11.9799 20.9986 11.9558 20.9986C11.9475 20.9986 11.9392 20.999 11.9309 20.9993C11.9225 20.9997 11.9142 21 11.9059 21C11.7626 21 11.6215 20.9944 11.4812 20.9861C11.4714 20.9854 11.4616 20.9854 11.4519 20.9854C11.4421 20.9854 11.4323 20.9854 11.4225 20.9847C11.3796 20.9819 11.3369 20.9778 11.2944 20.9736C11.2746 20.9717 11.2549 20.9698 11.2351 20.9681L11.1859 20.9639C10.7286 20.9189 10.2843 20.8301 9.85671 20.7025C9.84875 20.7004 9.84079 20.6976 9.83283 20.6948C9.74094 20.6671 9.64976 20.6373 9.55932 20.6061C9.51712 20.5911 9.47557 20.5754 9.43406 20.5598L9.42617 20.5568C9.41319 20.5519 9.40016 20.547 9.38711 20.5421C9.34852 20.5276 9.30972 20.5129 9.27133 20.4979C9.26338 20.4947 9.25542 20.4918 9.24754 20.489C9.23821 20.4856 9.22898 20.4822 9.21995 20.4785C9.19198 20.4673 9.16429 20.455 9.13653 20.4426C9.12121 20.4358 9.10586 20.4289 9.09043 20.4223C9.05787 20.4084 9.02531 20.3946 8.99347 20.38C8.92183 20.3474 8.85092 20.3141 8.78001 20.2794C8.77133 20.2753 8.76265 20.2709 8.75396 20.2666C8.74528 20.2623 8.7366 20.2579 8.72792 20.2538C8.64687 20.2136 8.56655 20.1712 8.48696 20.1275L8.4761 20.1213C8.33067 20.0409 8.18667 19.9576 8.04774 19.8675C7.68016 19.6297 7.3379 19.3585 7.02531 19.0589C6.71273 18.7593 6.42908 18.4313 6.18089 18.079C6.0369 17.8744 5.90521 17.6608 5.78509 17.441C5.78328 17.4372 5.78129 17.4336 5.7793 17.4299C5.77731 17.4263 5.77532 17.4227 5.77351 17.4189C5.73154 17.3411 5.6903 17.2628 5.65123 17.1831C5.64604 17.1727 5.64111 17.1621 5.63613 17.1514C5.63277 17.1442 5.6294 17.1369 5.6259 17.1297L5.62587 17.1296C5.59766 17.0721 5.56945 17.0145 5.54341 16.9556C5.54056 16.9491 5.53788 16.9424 5.5352 16.9357C5.53245 16.9289 5.5297 16.9221 5.52677 16.9154C5.51789 16.8955 5.50975 16.8754 5.50163 16.8554C5.49585 16.8411 5.49009 16.8269 5.48408 16.8128C5.47759 16.7969 5.47105 16.7812 5.46451 16.7654C5.44699 16.7231 5.4295 16.6809 5.41317 16.638C5.33864 16.4424 5.27352 16.2427 5.21852 16.0395C5.21821 16.0381 5.2179 16.0367 5.21759 16.0353C5.21572 16.0269 5.21377 16.018 5.21129 16.0097C5.18669 15.9167 5.16353 15.8232 5.14327 15.7281C5.14291 15.726 5.14237 15.724 5.14182 15.7219C5.14128 15.7198 5.14074 15.7178 5.14038 15.7157C5.13894 15.7088 5.13768 15.7017 5.13642 15.6947C5.13515 15.6875 5.13387 15.6804 5.13242 15.6734C5.11433 15.588 5.09841 15.5014 5.08394 15.4147C5.07959 15.3884 5.07598 15.3627 5.07236 15.3363C5.06078 15.2587 5.04993 15.1803 5.04124 15.1012C5.0383 15.0768 5.03602 15.0527 5.03373 15.0284C5.03265 15.0169 5.03156 15.0054 5.03039 14.9938C5.02894 14.9782 5.02726 14.9627 5.02559 14.9472C5.02307 14.9239 5.02055 14.9006 5.01881 14.8773C5.01716 14.8598 5.01645 14.8426 5.01574 14.8253C5.01521 14.8124 5.01468 14.7995 5.01375 14.7864C5.01304 14.7728 5.01225 14.7592 5.01147 14.7456C5.00984 14.7175 5.00821 14.6893 5.00724 14.6608C5.00434 14.5957 5.00289 14.5312 5.00217 14.4667C5.00217 14.4528 5.00163 14.4391 5.00109 14.4254C5.00054 14.4117 5 14.398 5 14.3842C5 14.3766 5.00036 14.3688 5.00072 14.361C5.00109 14.3532 5.00145 14.3453 5.00145 14.3377C5.00217 14.2691 5.00434 14.2011 5.00724 14.1331C5.00772 14.1204 5.00812 14.1077 5.00852 14.095C5.00933 14.0696 5.01013 14.0441 5.01158 14.0187C5.01664 13.9265 5.02388 13.8343 5.03328 13.7434L5.03339 13.7416C5.03408 13.7297 5.0348 13.7172 5.03618 13.7053C5.04776 13.6019 5.0615 13.4993 5.07742 13.3973C5.08069 13.3763 5.08456 13.3556 5.08845 13.3348C5.09059 13.3233 5.09274 13.3118 5.09479 13.3002C5.10709 13.2295 5.11939 13.1595 5.13386 13.0901C5.13531 13.0839 5.1364 13.0775 5.13748 13.0711C5.13857 13.0647 5.13965 13.0583 5.1411 13.052C5.14446 13.0359 5.14847 13.0197 5.15247 13.0036C5.1545 12.9955 5.15652 12.9873 5.15847 12.9792C5.17294 12.914 5.18886 12.8488 5.2055 12.7843C5.2149 12.7483 5.22431 12.7122 5.23444 12.6761C5.25325 12.6102 5.27279 12.5451 5.29305 12.4799C5.30318 12.4466 5.31331 12.414 5.32417 12.3814C5.34804 12.3093 5.37337 12.2378 5.40014 12.1664C5.40485 12.1546 5.40919 12.1425 5.41353 12.1303C5.41787 12.1182 5.42221 12.1061 5.42692 12.0943C5.50217 11.8994 5.58683 11.708 5.68017 11.5222L5.69102 11.5014C5.73444 11.416 5.7793 11.3321 5.82633 11.249C5.8317 11.2387 5.83762 11.2286 5.84357 11.2186C5.84726 11.2123 5.85096 11.2061 5.85456 11.1997C5.89725 11.1255 5.94139 11.052 5.98697 10.9792C5.99675 10.9625 6.0072 10.9464 6.01768 10.9303L6.01881 10.9285C6.06657 10.8544 6.11577 10.7808 6.16642 10.7087C6.16833 10.7058 6.17014 10.7029 6.17193 10.7001C6.17487 10.6954 6.17774 10.6909 6.18089 10.6866C6.18299 10.683 6.18548 10.6798 6.18806 10.6765C6.18904 10.6753 6.19003 10.674 6.19102 10.6727C6.20177 10.6576 6.21224 10.6423 6.22278 10.6269C6.22927 10.6175 6.23578 10.608 6.24239 10.5985H6.24095L11.9073 3C11.9073 3 14.3748 6.27392 13.0962 9.74407C14.2792 8.44313 15.1201 7.39597 15.1201 7.39597L16.8943 9.78224L17.094 10.0409C17.1474 10.1096 17.2003 10.1769 17.2526 10.2434C17.6445 10.7423 17.999 11.1937 18.2691 11.8044L18.2713 11.8093C18.2727 11.8114 18.2735 11.8135 18.2741 11.8155C18.3147 11.907 18.3523 11.9993 18.3885 12.0922L18.4015 12.1262C18.4341 12.2115 18.4644 12.2982 18.4934 12.3855C18.4996 12.4025 18.505 12.4194 18.5105 12.4364L18.5115 12.4397C18.5376 12.5208 18.5615 12.6026 18.5846 12.6851C18.5906 12.7076 18.5966 12.7293 18.6027 12.7511L18.6042 12.7566C18.6244 12.8336 18.6432 12.9119 18.6606 12.9903C18.6629 13.0013 18.6656 13.0121 18.6682 13.0228C18.6706 13.0323 18.673 13.0418 18.675 13.0513L18.6794 13.0763C18.6946 13.1505 18.7083 13.2261 18.7213 13.3017C18.7239 13.318 18.7268 13.3341 18.7297 13.3502C18.7325 13.3663 18.7354 13.3824 18.738 13.3987C18.7496 13.4722 18.759 13.5458 18.7677 13.6199C18.7693 13.633 18.7709 13.6458 18.7726 13.6586C18.7755 13.6805 18.7784 13.7023 18.7807 13.7247C18.7885 13.7991 18.7936 13.8749 18.7986 13.95L18.7988 13.9535C18.7997 13.9667 18.8007 13.9798 18.8018 13.9928C18.8035 14.0127 18.8051 14.0326 18.806 14.0527ZM8.58826 14.4029C8.58826 12.6768 10.0535 11.2726 11.8545 11.2726C13.6555 11.2726 15.1208 12.6768 15.1208 14.4029C15.1208 16.129 13.6555 17.5333 11.8545 17.5333C10.0535 17.5333 8.58826 16.129 8.58826 14.4029ZM9.15008 14.4128H9.57338C9.57338 13.2173 10.5878 12.245 11.8353 12.245V11.8393C10.3549 11.8393 9.15008 12.9939 9.15008 14.4128Z" fill="#AEAEBC"/>
</svg>
