<svg width="47" height="25" viewBox="0 0 47 25" fill="none" xmlns="http://www.w3.org/2000/svg">
<rect x="0.887806" y="2.48742" width="44.4489" height="19.9816" rx="9.99079" fill="white" stroke="#AEAEBC" stroke-width="0.990456"/>
<path d="M12.1395 7.65205H10.3869L7.85971 9.2756V10.9637L10.2379 9.44441H10.2975V17.8203H12.1395V7.65205ZM18.34 18.0139C20.7927 18.0189 22.2573 16.0826 22.2573 12.7461C22.2573 9.42951 20.7827 7.51303 18.34 7.51303C15.8972 7.51303 14.4276 9.42455 14.4226 12.7461C14.4226 16.0776 15.8873 18.0139 18.34 18.0139ZM18.34 16.4599C17.0739 16.4599 16.2795 15.1889 16.2845 12.7461C16.2894 10.3232 17.0789 9.04721 18.34 9.04721C19.606 9.04721 20.3955 10.3232 20.4004 12.7461C20.4004 15.1889 19.611 16.4599 18.34 16.4599ZM27.5256 18.0139C29.9783 18.0189 31.443 16.0826 31.443 12.7461C31.443 9.42951 29.9684 7.51303 27.5256 7.51303C25.0828 7.51303 23.6132 9.42455 23.6082 12.7461C23.6082 16.0776 25.0729 18.0139 27.5256 18.0139ZM27.5256 16.4599C26.2595 16.4599 25.4651 15.1889 25.4701 12.7461C25.4751 10.3232 26.2645 9.04721 27.5256 9.04721C28.7917 9.04721 29.5811 10.3232 29.5861 12.7461C29.5861 15.1889 28.7966 16.4599 27.5256 16.4599ZM35.9715 16.1918H37.5305V13.5355H40.1867V11.9765H37.5305V9.32028H35.9715V11.9765H33.3152V13.5355H35.9715V16.1918Z" fill="#AEAEBC"/>
</svg>
