<svg width="24" height="24" viewBox="0 0 24 24" fill="none" xmlns="http://www.w3.org/2000/svg">
<circle cx="12" cy="12" r="12" fill="#F4F4F6"/>
<path d="M4.85216 10.0347H4.5801C4.4244 10.0347 4.29883 10.1484 4.29883 10.2894C4.29883 10.4304 4.4244 10.5441 4.5801 10.5441H4.85216C5.00787 10.5441 5.13344 10.4304 5.13344 10.2894C5.13344 10.1492 5.00787 10.0347 4.85216 10.0347ZM10.0515 13.7455H9.77946C9.62375 13.7455 9.49818 13.8593 9.49818 14.0003C9.49818 14.1413 9.62375 14.255 9.77946 14.255H10.0515C10.2072 14.255 10.3328 14.1413 10.3328 14.0003C10.3328 13.8593 10.2072 13.7455 10.0515 13.7455ZM9.82382 11.3151C9.82382 11.1741 9.69825 11.0604 9.54255 11.0604H8.60246C8.44676 11.0604 8.32119 11.1749 8.32119 11.3151C8.32119 11.4554 8.44676 11.5691 8.60246 11.5698H9.54255C9.69825 11.5698 9.82382 11.4561 9.82382 11.3151ZM18.7425 9.71933L18.4562 8.26456C18.3758 7.71873 17.8476 7.31846 17.2399 7.345H6.22588C5.81485 7.32983 5.46829 7.62018 5.45154 7.9924C5.44903 8.05229 5.45489 8.11294 5.46996 8.17131L5.77132 9.71933C5.77132 9.73146 5.77132 9.74283 5.78053 9.75496C5.81653 9.94372 5.71021 10.0195 5.61562 10.0476C5.46912 10.0953 5.39378 10.2409 5.44652 10.3736C5.4867 10.4744 5.59134 10.5411 5.70938 10.5419H17.9891C18.4001 10.5547 18.745 10.2629 18.7592 9.8899C18.7618 9.83229 18.7551 9.77543 18.7417 9.71933H18.7425ZM14.9956 15.5543C14.8767 14.9903 14.5209 14.7818 14.1191 14.7818H11.2101C11.0536 14.7834 10.928 14.8986 10.9288 15.0396C10.9288 15.1685 11.036 15.2776 11.1783 15.2913C11.2712 15.3064 11.3708 15.4149 11.4336 15.687L11.7325 17.1911C11.8455 17.658 12.2992 17.9931 12.8274 17.9992L14.5636 17.9924C14.9746 18.006 15.3204 17.7157 15.3363 17.3434C15.3388 17.2866 15.3329 17.2305 15.3195 17.1751L14.9964 15.5551L14.9956 15.5543ZM11.149 14.2724H14.3058C14.3292 14.2717 14.3526 14.2679 14.3761 14.2618C14.6682 14.2095 14.6825 13.9942 14.644 13.7797L14.2421 11.7783C14.1316 11.259 13.7985 11.0543 13.3607 11.0543H10.4659C10.3102 11.0558 10.1863 11.1711 10.188 11.3121C10.1896 11.4387 10.2943 11.5456 10.4324 11.5615C10.5287 11.5774 10.6342 11.6934 10.6961 11.9913L11.0008 13.5204V13.5257C11.0326 13.6364 10.959 13.7501 10.8367 13.7789C10.8342 13.7789 10.8317 13.7804 10.8284 13.7804C10.6819 13.8282 10.6065 13.9737 10.6593 14.1064C10.6995 14.2072 10.8041 14.2739 10.9221 14.2747H11.149V14.2724Z" fill="#AEAEBC"/>
</svg>
