<svg width="24" height="24" viewBox="0 0 24 24" fill="none" xmlns="http://www.w3.org/2000/svg">
<circle cx="12" cy="12" r="12" fill="#F4F4F6"/>
<path d="M12.1791 14.3346L10.8503 5.67969L10.3594 5.75849L11.6728 14.4134L12.1791 14.3346Z" fill="#AEAEBC"/>
<path d="M9.74332 18.444L9.56941 17.2891L8.38281 17.4476L8.57212 18.6342L9.74332 18.444Z" fill="#AEAEBC"/>
<path d="M18.967 15.1478L18.7768 13.9766L13.6191 14.7682L13.7931 15.9385L18.967 15.1478Z" fill="#AEAEBC"/>
<path d="M11.9578 16.2357L13.1281 16.0618L12.9542 14.8906L11.7676 15.0808L11.9578 16.2357Z" fill="#AEAEBC"/>
<path d="M11.5949 18.1634L11.4047 16.9922L10.2344 17.1824L10.4083 18.3536L11.5949 18.1634Z" fill="#AEAEBC"/>
<path d="M8.11328 15.6268L8.28719 16.798L9.45839 16.6241L9.28357 15.4375L8.11328 15.6268Z" fill="#AEAEBC"/>
<path d="M13.8887 16.6113L14.078 17.7979L19.2519 16.9908L19.0626 15.8359L13.8887 16.6113Z" fill="#AEAEBC"/>
<path d="M12.2423 18.0558L13.4135 17.8819L13.2233 16.6953L12.0684 16.8855L12.2423 18.0558Z" fill="#AEAEBC"/>
<path d="M9.94922 15.3536L10.1394 16.5402L11.2943 16.35L11.1204 15.1797L9.94922 15.3536Z" fill="#AEAEBC"/>
<path d="M8.50906 14.9064L7.06884 5.50781L6.5625 5.60292L8.01812 14.9689L8.50906 14.9064Z" fill="#AEAEBC"/>
<path d="M9.18988 14.7822L7.63915 4.71875L7.13281 4.81386L8.69894 14.8773L9.18988 14.7822Z" fill="#AEAEBC"/>
<path d="M10.3603 14.6178L8.71533 3.9375L8.20898 4.01721L9.83852 14.6812L10.3603 14.6178Z" fill="#AEAEBC"/>
<path d="M11.0249 14.5044L9.52219 4.77344L9.03125 4.85315L10.534 14.5832L11.0249 14.5044Z" fill="#AEAEBC"/>
<path d="M12.8588 14.2219L11.4666 5.25L10.9766 5.32971L12.3688 14.2844L12.8588 14.2219Z" fill="#AEAEBC"/>
</svg>
