<svg width="24" height="24" viewBox="0 0 24 24" fill="none" xmlns="http://www.w3.org/2000/svg">
<circle cx="12" cy="12" r="12" fill="#F4F4F6"/>
<path d="M18.5139 18.3217H4.73828L9.32454 8.53996L12.087 10.5706L15.6897 4.95312L18.5139 18.3217ZM13.4635 16.2087H13.4925C13.8331 16.2087 14.1616 16.0777 14.4068 15.8409C14.5331 15.7268 14.6332 15.5873 14.7006 15.431C14.768 15.2748 14.8026 15.1063 14.7998 14.937C14.8054 14.7732 14.7745 14.6104 14.709 14.4597C14.6435 14.31 14.5453 14.1762 14.4208 14.0685C14.2121 13.8589 13.9304 13.7382 13.6347 13.7298H13.6123C13.5739 13.7298 13.5346 13.7345 13.4981 13.7457L14.2252 12.6649L13.646 12.2606L13.3718 12.6649L12.6709 13.7354C12.5502 13.9132 12.45 14.0695 12.3873 14.178C12.3228 14.2931 12.2666 14.4129 12.2208 14.5364C12.1684 14.6674 12.1412 14.8078 12.1412 14.9491C12.1394 15.1166 12.1731 15.2832 12.2404 15.4376C12.3069 15.592 12.4061 15.7296 12.5296 15.8437C12.772 16.0795 13.0976 16.2115 13.4354 16.2115L13.4626 16.2096L13.4635 16.2087ZM10.3838 15.0455L11.1867 16.1806H12.0448L11.1006 14.863L11.9391 13.6989L11.3823 13.3134L11.1362 13.6381L10.382 14.7011V12.5629L9.63054 11.95V16.1797H10.382V15.0436H10.3829L10.3838 15.0455ZM13.4644 15.5012C13.3175 15.5012 13.1771 15.4432 13.0733 15.3393C12.9694 15.2355 12.9114 15.0951 12.9114 14.9482C12.9114 14.8013 12.9694 14.6609 13.0733 14.557C13.1771 14.4532 13.3175 14.3951 13.4644 14.3951H13.4691C13.5421 14.3951 13.6142 14.4101 13.6806 14.4382C13.748 14.4672 13.8079 14.5084 13.8584 14.5617C13.9117 14.6104 13.9538 14.6693 13.9819 14.7358C14.0109 14.8022 14.025 14.8733 14.025 14.9454C14.0231 15.0932 13.9632 15.2336 13.8584 15.3375C13.7536 15.4413 13.6123 15.4994 13.4644 15.5003V15.5012Z" fill="#AEAEBC"/>
</svg>
