<svg width="24" height="24" viewBox="0 0 24 24" fill="none" xmlns="http://www.w3.org/2000/svg">
<circle cx="12" cy="12" r="12" fill="#F4F4F6"/>
<path d="M11.9458 3.92685C12.4779 3.92685 12.9093 3.49551 12.9093 2.96343C12.9093 2.43134 12.4779 2 11.9458 2C11.4138 2 10.9824 2.43134 10.9824 2.96343C10.9824 3.49551 11.4138 3.92685 11.9458 3.92685Z" fill="#AEAEBC"/>
<path d="M12.5575 8.80549C12.4537 8.80549 12.3691 8.89009 12.3691 8.99386V13.3488C12.3691 13.4526 12.4537 13.5372 12.5575 13.5372H13.8274C13.924 13.5372 14.0054 13.4638 14.015 13.3672L14.4516 9.01222C14.4628 8.90127 14.3758 8.80469 14.2641 8.80469H12.5567L12.5575 8.80549Z" fill="#AEAEBC"/>
<path d="M9.73542 8.80469C9.62367 8.80469 9.53667 8.90127 9.54784 9.01222L9.98126 13.3672C9.99084 13.4638 10.0723 13.5372 10.1688 13.5372H11.426C11.5298 13.5372 11.6144 13.4526 11.6144 13.3488V8.99386C11.6144 8.89009 11.5298 8.80549 11.426 8.80549H9.73542V8.80469Z" fill="#AEAEBC"/>
<path d="M16.8105 8.80469H15.4025C15.3059 8.80469 15.2245 8.87812 15.2149 8.9747L14.7783 13.3297C14.7671 13.4406 14.8541 13.5372 14.9659 13.5372H15.9437C16.0339 13.5372 16.1113 13.4734 16.1289 13.3856L16.9965 9.03058C17.0197 8.91404 16.9303 8.80549 16.8113 8.80549L16.8105 8.80469Z" fill="#AEAEBC"/>
<path d="M9.22026 13.3297L8.78684 8.9747C8.77726 8.87812 8.69585 8.80469 8.59927 8.80469H7.18885C7.06992 8.80469 6.98052 8.91324 7.00367 9.02978L7.87131 13.3848C7.88887 13.4734 7.96629 13.5364 8.05649 13.5364H9.03269C9.14444 13.5364 9.23144 13.4398 9.22026 13.3289V13.3297Z" fill="#AEAEBC"/>
<path d="M8.26528 5.7838H15.6223C15.7867 5.7838 15.932 5.67684 15.9815 5.5196C16.0573 5.27694 15.8761 5.0311 15.6223 5.0311H12.2259V4.26562C12.135 4.28558 12.0408 4.29596 11.9434 4.29596C11.846 4.29596 11.7518 4.28478 11.6608 4.26562V5.0311H8.26528C8.01146 5.0311 7.83027 5.27694 7.9061 5.5196C7.95558 5.67684 8.10086 5.7838 8.26528 5.7838Z" fill="#AEAEBC"/>
<path d="M15.2353 7.91675L15.5889 6.78411C15.6272 6.66278 15.5362 6.53906 15.4093 6.53906H8.48336C8.35645 6.53906 8.26545 6.66278 8.30377 6.78411L8.65737 7.91675C8.68211 7.99578 8.75475 8.04925 8.83696 8.04925H15.0549C15.1371 8.04925 15.2106 7.99578 15.2345 7.91675H15.2353Z" fill="#AEAEBC"/>
<path d="M14.8155 14.3047H9.07402C8.86569 14.3047 8.69727 14.4731 8.69727 14.6814V20.9138C8.69727 21.5388 9.20332 22.0448 9.82831 22.0448H14.0612C14.6861 22.0448 15.1922 21.5388 15.1922 20.9138V14.6814C15.1922 14.4731 15.0238 14.3047 14.8155 14.3047Z" fill="#AEAEBC"/>
</svg>
