<svg width="26" height="26" viewBox="0 0 26 26" fill="none" xmlns="http://www.w3.org/2000/svg">
<path d="M25.0959 15.4547L22.7264 4.83582C22.593 4.25124 22.079 3.67353 21.5184 3.50159L10.6991 0.0628328C10.5656 0.00781271 10.4054 0.0078125 10.2385 0.0078125C9.77801 0.0078125 9.29745 0.200382 8.9704 0.48236L1.22136 7.91007C0.787521 8.29521 0.573939 9.07237 0.707428 9.62945L3.23705 21.0049C3.37053 21.5894 3.88447 22.1672 4.44512 22.3391L14.5636 25.5853C14.6971 25.6403 14.8573 25.6403 15.0241 25.6403C15.4847 25.6403 15.9652 25.4477 16.2923 25.1657L24.5819 17.236C25.0158 16.7889 25.2294 16.0393 25.0959 15.4547ZM11.8271 2.58688L19.2557 4.94587C19.5494 5.0284 19.5494 5.16595 19.2557 5.24848L15.3512 6.16318C15.0575 6.24571 14.6504 6.10816 14.4368 5.88808L11.7203 2.86198C11.48 2.61439 11.5334 2.50435 11.8271 2.58688ZM16.4591 16.3144C16.5392 16.617 16.3523 16.7889 16.0587 16.6995L8.03598 14.148C7.7423 14.0654 7.68891 13.8179 7.90249 13.5909L14.0363 7.71062C14.2499 7.49054 14.4968 7.57307 14.5769 7.87568L16.4591 16.3144ZM3.23705 8.83166L9.75131 2.59376C9.96489 2.37368 10.3186 2.40119 10.5322 2.62127L13.7894 6.25259C14.0029 6.47267 13.9762 6.83718 13.7627 7.05726L7.24839 13.2952C7.03481 13.5152 6.68106 13.4877 6.46748 13.2677L3.21035 9.63633C2.99677 9.38186 3.02346 9.02423 3.23705 8.83166ZM4.82556 18.7284L3.10356 10.9362C3.02346 10.6336 3.15695 10.5785 3.34384 10.7986L6.06034 13.8247C6.27392 14.0448 6.35401 14.4918 6.27392 14.7945L5.09254 18.7353C5.01912 19.0379 4.87896 19.0379 4.82556 18.7284ZM14.3567 23.3088L5.85343 20.5922C5.55976 20.5097 5.39289 20.1796 5.47966 19.8701L6.90799 15.1521C6.98809 14.8495 7.30846 14.6775 7.60881 14.7669L16.1121 17.4561C16.4057 17.5386 16.5726 17.8687 16.4858 18.1782L15.0575 22.8962C14.9507 23.1988 14.6504 23.3638 14.3567 23.3088ZM21.8921 16.9265L16.2122 22.3597C15.9986 22.5798 15.8918 22.4973 15.9719 22.1947L17.1533 18.2538C17.2334 17.9512 17.5537 17.6417 17.8541 17.5867L21.7587 16.672C22.0523 16.5689 22.1124 16.7064 21.8921 16.9265ZM22.5129 15.7367L17.8274 16.844C17.5337 16.9265 17.2334 16.7339 17.1533 16.4313L15.1643 7.49742C15.0842 7.19481 15.2711 6.88532 15.5648 6.80279L20.2502 5.69551C20.5439 5.61298 20.8443 5.80555 20.9243 6.10816L22.9133 15.0421C23.0001 15.3722 22.8065 15.6817 22.5129 15.7367Z" fill="#AEAEBC"/>
</svg>
