<svg width="21" height="13" viewBox="0 0 21 13" fill="none" xmlns="http://www.w3.org/2000/svg">
<path d="M19.9258 0.62C19.8243 0.375651 19.6301 0.181475 19.3858 0.0799999C19.2656 0.028759 19.1365 0.00157999 19.0058 0H14.0058C13.7406 0 13.4862 0.105357 13.2987 0.292893C13.1112 0.48043 13.0058 0.734784 13.0058 1C13.0058 1.26522 13.1112 1.51957 13.2987 1.70711C13.4862 1.89464 13.7406 2 14.0058 2H16.5958L11.0058 7.59L7.7158 4.29C7.62284 4.19627 7.51223 4.12188 7.39038 4.07111C7.26852 4.02034 7.13781 3.9942 7.0058 3.9942C6.87379 3.9942 6.74308 4.02034 6.62122 4.07111C6.49936 4.12188 6.38876 4.19627 6.2958 4.29L0.295798 10.29C0.20207 10.383 0.127676 10.4936 0.0769069 10.6154C0.0261382 10.7373 0 10.868 0 11C0 11.132 0.0261382 11.2627 0.0769069 11.3846C0.127676 11.5064 0.20207 11.617 0.295798 11.71C0.388761 11.8037 0.499363 11.8781 0.621222 11.9289C0.743081 11.9797 0.873786 12.0058 1.0058 12.0058C1.13781 12.0058 1.26852 11.9797 1.39037 11.9289C1.51223 11.8781 1.62284 11.8037 1.7158 11.71L7.0058 6.41L10.2958 9.71C10.3888 9.80373 10.4994 9.87812 10.6212 9.92889C10.7431 9.97966 10.8738 10.0058 11.0058 10.0058C11.1378 10.0058 11.2685 9.97966 11.3904 9.92889C11.5122 9.87812 11.6228 9.80373 11.7158 9.71L18.0058 3.41V6C18.0058 6.26522 18.1112 6.51957 18.2987 6.70711C18.4862 6.89464 18.7406 7 19.0058 7C19.271 7 19.5254 6.89464 19.7129 6.70711C19.9004 6.51957 20.0058 6.26522 20.0058 6V1C20.0042 0.869323 19.977 0.740222 19.9258 0.62Z" fill="#36B263"/>
</svg>
