<svg width="24" height="24" viewBox="0 0 24 24" fill="none" xmlns="http://www.w3.org/2000/svg">
<g clip-path="url(#clip0_23957_319)">
<path d="M9 17.4001C9 15.6001 7.5 14.1001 5.7 14.1001C5.6 14.1001 5.6 14.1001 5.5 14.1001" stroke="#FF6829" stroke-width="1.5" stroke-linecap="round" stroke-linejoin="round"/>
<path d="M5.59998 10.1C5.69998 10.1 5.69998 10.1 5.79998 10.1C7.49998 10.1 8.99998 8.60005 8.99998 6.80005" stroke="#FF6829" stroke-width="1.5" stroke-linecap="round" stroke-linejoin="round"/>
<path d="M12 6V18" stroke="#FF6829" stroke-width="1.5" stroke-linecap="round" stroke-linejoin="round"/>
<path d="M15 17.4001C15 15.6001 16.5 14.1001 18.3 14.1001C18.4 14.1001 18.4 14.1001 18.5 14.1001" stroke="#FF6829" stroke-width="1.5" stroke-linecap="round" stroke-linejoin="round"/>
<path d="M18.4 10.1C18.3 10.1 18.3 10.1 18.2 10.1C16.4 10.1 14.9 8.60005 14.9 6.80005" stroke="#FF6829" stroke-width="1.5" stroke-linecap="round" stroke-linejoin="round"/>
<path d="M23.2 12.0001C23.2 10.7001 22.3 9.5001 21 9.1001C21.6 8.5001 21.8 7.6001 21.6 6.7001C21.4 5.8001 20.5 5.3001 19.7 5.2001C19.6 5.1001 19.4 4.9001 19.3 4.8001C19.9 3.3001 19.2 1.6001 17.8 0.900102C16.3 0.200102 14.6 0.900102 13.9 2.3001C13.5 1.7001 12.8 1.4001 12.1 1.4001C11.4 1.4001 10.7 1.7001 10.3 2.3001C9.49999 1.0001 7.69999 0.300102 6.19999 1.0001C4.79999 1.7001 4.09999 3.4001 4.69999 4.9001C4.59999 5.0001 4.39999 5.2001 4.29999 5.3001C3.39999 5.4001 2.69999 5.9001 2.39999 6.8001C2.09999 7.6001 2.29999 8.5001 2.89999 9.1001C1.59999 9.5001 0.799988 10.7001 0.799988 12.0001C0.799988 13.3001 1.69999 14.5001 2.99999 14.9001C2.39999 15.5001 2.19999 16.4001 2.39999 17.3001C2.69999 18.1001 3.49999 18.7001 4.29999 18.8001C4.39999 18.9001 4.59999 19.1001 4.69999 19.2001C4.09999 20.7001 4.79999 22.4001 6.19999 23.1001C7.69999 23.8001 9.39999 23.1001 10.1 21.7001C10.5 22.3001 11.2 22.6001 11.9 22.6001C12.6 22.6001 13.3 22.3001 13.7 21.7001C14.4 23.1001 16.2 23.8001 17.6 23.1001C19.1 22.4001 19.8 20.7001 19.1 19.2001C19.3 19.1001 19.4 19.0001 19.5 18.8001C20.4 18.7001 21.1 18.1001 21.4 17.3001C21.7 16.5001 21.5 15.5001 20.8 14.9001C22.4 14.6001 23.3 13.4001 23.2 12.0001Z" stroke="#FF6829" stroke-width="1.5" stroke-linecap="round" stroke-linejoin="round"/>
</g>
<defs>
<clipPath id="clip0_23957_319">
<rect width="24" height="24" fill="white"/>
</clipPath>
</defs>
</svg>
