<svg width="21" height="25" viewBox="0 0 21 25" fill="none" xmlns="http://www.w3.org/2000/svg">
<path d="M9.35336 24.1348L5.46219 20.9625C5.21032 20.7609 5.02206 20.4909 4.92005 20.1849C4.81805 19.8789 4.80665 19.5498 4.88723 19.2374V19.2374C4.94844 18.9934 5.06358 18.7659 5.22418 18.5722C5.38478 18.3785 5.58676 18.2234 5.81526 18.118C6.04376 18.0126 6.29298 17.96 6.54458 17.9636C6.79619 17.9672 7.04379 18.0272 7.26917 18.1391L8.4704 18.7446V11.8145C8.4704 11.406 8.63266 11.0144 8.92147 10.7256C9.21029 10.4368 9.602 10.2744 10.0104 10.2744C10.4189 10.2744 10.8106 10.4368 11.0994 10.7256C11.3882 11.0144 11.5505 11.406 11.5505 11.8145V16.4346L13.6039 16.7735C14.3289 16.896 14.9863 17.2739 15.457 17.8388C15.9278 18.4037 16.1809 19.1183 16.1706 19.8535V24.1759" stroke="#FF6829" stroke-width="1.54004" stroke-linecap="round" stroke-linejoin="round"/>
<path d="M17.844 15.141C18.6038 13.9265 19.0707 12.5515 19.208 11.1255C19.3453 9.6995 19.1491 8.26112 18.635 6.92397C18.1209 5.58681 17.3029 4.38799 16.2456 3.42128C15.1884 2.45456 13.9208 1.74654 12.5431 1.35385C11.1654 0.961165 9.71525 0.894299 8.3072 1.15834C6.89916 1.42238 5.57179 2.01018 4.42995 2.87534C3.28811 3.7405 2.36306 4.85934 1.72789 6.14342C1.09272 7.4275 0.764818 8.84168 0.770082 10.2743C0.770316 12.1987 1.37749 14.0744 2.5052 15.6338" stroke="#FF6829" stroke-width="1.54004" stroke-linecap="round" stroke-linejoin="round"/>
<path d="M14.425 13.3546C14.9908 12.5469 15.3242 11.5994 15.3888 10.6154C15.4534 9.63136 15.2469 8.64821 14.7916 7.77344C14.3363 6.89867 13.6498 6.16601 12.8067 5.65438C11.9637 5.14275 10.9964 4.87183 10.0103 4.87183C9.0241 4.87183 8.05684 5.14275 7.21378 5.65438C6.37073 6.16601 5.68419 6.89867 5.22892 7.77344C4.77364 8.64821 4.56708 9.63136 4.63171 10.6154C4.69634 11.5994 5.02969 12.5469 5.59547 13.3546" stroke="#FF6829" stroke-width="1.54004" stroke-linecap="round" stroke-linejoin="round"/>
</svg>
