<svg width="20" height="24" viewBox="0 0 20 24" fill="none" xmlns="http://www.w3.org/2000/svg">
<g clip-path="url(#clip0_23956_435)">
<path d="M9.8 0.800049V2.30005" stroke="#FF6829" stroke-width="1.5" stroke-linecap="round" stroke-linejoin="round"/>
<path d="M2.2 8.19995H3.8" stroke="#FF6829" stroke-width="1.5" stroke-linecap="round" stroke-linejoin="round"/>
<path d="M17.2 8.19995H15.6" stroke="#FF6829" stroke-width="1.5" stroke-linecap="round" stroke-linejoin="round"/>
<path d="M3.59999 3.30005L4.99999 4.70005" stroke="#FF6829" stroke-width="1.5" stroke-linecap="round" stroke-linejoin="round"/>
<path d="M15.9 3.30005L14.5 4.70005" stroke="#FF6829" stroke-width="1.5" stroke-linecap="round" stroke-linejoin="round"/>
<path d="M4 11.2C3.5 11.2 3 11.6 3 12.1V18.5C3 19 3.4 19.4 4 19.4H15.6C16.1 19.4 16.6 19 16.6 18.5V12.1C16.6 11.6 16.2 11.2 15.6 11.2" stroke="#FF6829" stroke-width="1.5" stroke-linecap="round" stroke-linejoin="round"/>
<path d="M3 19.5L1.1 21.1C0.899997 21.3 0.699997 21.6 0.699997 22C0.699997 22.4 0.799997 22.7 1.1 22.9C1.3 23.1 1.7 23.3 2 23.3H17.4C17.7 23.3 18.1 23.2 18.3 22.9C18.5 22.7 18.7 22.4 18.7 22C18.7 21.6 18.6 21.3 18.3 21.1L16.4 19.5H3Z" stroke="#FF6829" stroke-width="1.5" stroke-linecap="round" stroke-linejoin="round"/>
<path d="M13.5 8.20016C13.5 6.30016 12.1 4.70016 10.3 4.50016C8.39999 4.30016 6.59999 5.40016 6.09999 7.20016C5.59999 9.00016 6.49999 10.9002 8.19999 11.7002V13.5002H11.2V11.7002C12.6 11.1002 13.5 9.70016 13.5 8.20016Z" stroke="#FF6829" stroke-width="1.5" stroke-linecap="round" stroke-linejoin="round"/>
<path d="M8.2 15.8H11.2" stroke="#FF6829" stroke-width="1.5" stroke-linecap="round" stroke-linejoin="round"/>
</g>
<defs>
<clipPath id="clip0_23956_435">
<rect width="19.5" height="24" fill="white"/>
</clipPath>
</defs>
</svg>
