<svg width="29" height="24" viewBox="0 0 29 24" fill="none" xmlns="http://www.w3.org/2000/svg">
<g clip-path="url(#clip0_23957_350)">
<path d="M19.1607 16.468C19.1607 16.0537 19.4714 15.6394 19.9893 15.6394H23.8214C24.2357 15.6394 24.65 15.9501 24.65 16.468V18.7465C24.65 19.1608 24.3393 19.5751 23.8214 19.5751H19.8857C19.4714 19.5751 19.0571 19.2644 19.0571 18.7465V16.468H19.1607Z" stroke="#FF6829" stroke-width="1.5" stroke-linecap="round" stroke-linejoin="round"/>
<path d="M7.66427 16.468C7.66427 16.0537 7.97498 15.6394 8.49284 15.6394H15.5357C15.95 15.6394 16.3643 15.9501 16.3643 16.468V18.7465C16.3643 19.1608 16.0536 19.5751 15.5357 19.5751H8.38927C7.97499 19.5751 7.5607 19.2644 7.5607 18.7465V16.468H7.66427Z" stroke="#FF6829" stroke-width="1.5" stroke-linecap="round" stroke-linejoin="round"/>
<path d="M0.828578 2.27842C0.828578 1.44985 1.55358 0.724854 2.38215 0.724854H26.7214C27.55 0.724854 28.275 1.44985 28.275 2.27842V21.1284C28.275 21.957 27.55 22.682 26.7214 22.682H2.27858C1.45001 22.682 0.725006 21.957 0.725006 21.1284V2.27842H0.828578Z" stroke="#FF6829" stroke-width="1.5" stroke-linecap="round" stroke-linejoin="round"/>
<path d="M11.9107 12.5319C14.2929 12.5319 16.1571 10.6676 16.1571 8.28549C16.1571 5.90335 14.2929 4.03906 11.9107 4.03906C9.52857 4.03906 7.56071 6.00692 7.66428 8.28549C7.66428 10.6676 9.52857 12.5319 11.9107 12.5319Z" stroke="#FF6829" stroke-width="1.5" stroke-linecap="round" stroke-linejoin="round"/>
<path d="M11.8071 4.03906V8.28549L14.8107 11.2891" stroke="#FF6829" stroke-width="1.5" stroke-linecap="round" stroke-linejoin="round"/>
<path d="M19.1607 12.5322H24.5464" stroke="#FF6829" stroke-width="1.5" stroke-linecap="round" stroke-linejoin="round"/>
<path d="M4.14285 0.828613V22.7858" stroke="#FF6829" stroke-width="1.5" stroke-linecap="round" stroke-linejoin="round"/>
<path d="M19.1607 6.93921V9.63207" stroke="#FF6829" stroke-width="1.5" stroke-linecap="round" stroke-linejoin="round"/>
<path d="M24.5464 5.28198V9.63198" stroke="#FF6829" stroke-width="1.5" stroke-linecap="round" stroke-linejoin="round"/>
<path d="M21.8536 4.03906V9.52835" stroke="#FF6829" stroke-width="1.5" stroke-linecap="round" stroke-linejoin="round"/>
</g>
<defs>
<clipPath id="clip0_23957_350">
<rect width="29" height="23.5107" fill="white"/>
</clipPath>
</defs>
</svg>
