<svg width="894" height="565" viewBox="0 0 894 565" fill="none" xmlns="http://www.w3.org/2000/svg">
<g filter="url(#filter0_d)">
<rect x="30" y="20" width="834" height="505" rx="5" fill="white"/>
</g>
<path d="M64.9375 71H66.875V65.1562H70.375C74.1016 65.1562 75.7813 62.8906 75.7813 60.0625C75.7813 57.2344 74.1016 55 70.3438 55H64.9375V71ZM66.875 63.4375V56.7187H70.2812C72.8828 56.7187 73.875 58.1406 73.875 60.0625C73.875 61.9844 72.8828 63.4375 70.3125 63.4375H66.875ZM83.1784 71.25C86.4284 71.25 88.6159 68.7812 88.6159 65.0625C88.6159 61.3125 86.4284 58.8438 83.1784 58.8438C79.9284 58.8438 77.7409 61.3125 77.7409 65.0625C77.7409 68.7812 79.9284 71.25 83.1784 71.25ZM83.1784 69.5938C80.7097 69.5938 79.5847 67.4687 79.5847 65.0625C79.5847 62.6562 80.7097 60.5 83.1784 60.5C85.6472 60.5 86.7722 62.6562 86.7722 65.0625C86.7722 67.4687 85.6472 69.5938 83.1784 69.5938ZM99.7104 61.6875C99.1323 59.9844 97.8354 58.8438 95.4604 58.8438C92.9291 58.8438 91.0541 60.2812 91.0541 62.3125C91.0541 63.9687 92.0385 65.0781 94.2416 65.5937L96.2416 66.0625C97.4526 66.3437 98.0229 66.9219 98.0229 67.75C98.0229 68.7812 96.9291 69.625 95.2104 69.625C93.7026 69.625 92.7573 68.9766 92.4291 67.6875L90.6791 68.125C91.1088 70.1641 92.7885 71.25 95.2416 71.25C98.0307 71.25 99.9291 69.7266 99.9291 67.6562C99.9291 65.9844 98.8823 64.9297 96.7416 64.4063L94.9604 63.9687C93.5385 63.6172 92.8979 63.1406 92.8979 62.2187C92.8979 61.1875 93.9916 60.4375 95.4604 60.4375C97.0698 60.4375 97.7338 61.3281 98.0541 62.1562L99.7104 61.6875ZM102.485 71H104.328V59H102.485V71ZM103.422 57C104.141 57 104.735 56.4375 104.735 55.75C104.735 55.0625 104.141 54.5 103.422 54.5C102.703 54.5 102.11 55.0625 102.11 55.75C102.11 56.4375 102.703 57 103.422 57ZM112.704 59H110.141V56.125H108.298V59H106.485V60.5625H108.298V68.0625C108.298 70.1562 109.985 71.1563 111.548 71.1563C112.235 71.1563 112.673 71.0313 112.923 70.9375L112.548 69.2812C112.391 69.3125 112.141 69.375 111.735 69.375C110.923 69.375 110.141 69.125 110.141 67.5625V60.5625H112.704V59ZM115.257 71H117.101V59H115.257V71ZM116.195 57C116.914 57 117.507 56.4375 117.507 55.75C117.507 55.0625 116.914 54.5 116.195 54.5C115.476 54.5 114.882 55.0625 114.882 55.75C114.882 56.4375 115.476 57 116.195 57ZM130.071 59H128.071L124.758 68.5625H124.633L121.321 59H119.321L123.758 71H125.633L130.071 59ZM136.886 71.25C139.323 71.25 141.105 70.0312 141.667 68.2188L139.886 67.7187C139.417 68.9687 138.331 69.5938 136.886 69.5938C134.722 69.5938 133.23 68.1953 133.144 65.625H141.855V64.8437C141.855 60.375 139.198 58.8438 136.698 58.8438C133.448 58.8438 131.292 61.4062 131.292 65.0938C131.292 68.7812 133.417 71.25 136.886 71.25ZM133.144 64.0312C133.269 62.1641 134.589 60.5 136.698 60.5C138.698 60.5 139.98 62 139.98 64.0312H133.144ZM150.657 71H152.594V64.75H156.094C156.235 64.75 156.368 64.75 156.5 64.7422L159.875 71H162.125L158.508 64.3906C160.547 63.6953 161.5 62.0312 161.5 59.9062C161.5 57.0781 159.813 55 156.063 55H150.657V71ZM152.594 63V56.7187H156C158.594 56.7187 159.594 57.9844 159.594 59.9062C159.594 61.8281 158.594 63 156.032 63H152.594ZM169.161 71.25C171.599 71.25 173.38 70.0312 173.943 68.2188L172.161 67.7187C171.693 68.9687 170.607 69.5938 169.161 69.5938C166.997 69.5938 165.505 68.1953 165.419 65.625H174.13V64.8437C174.13 60.375 171.474 58.8438 168.974 58.8438C165.724 58.8438 163.568 61.4062 163.568 65.0938C163.568 68.7812 165.693 71.25 169.161 71.25ZM165.419 64.0312C165.544 62.1641 166.864 60.5 168.974 60.5C170.974 60.5 172.255 62 172.255 64.0312H165.419ZM185.215 61.6875C184.637 59.9844 183.34 58.8438 180.965 58.8438C178.434 58.8438 176.559 60.2812 176.559 62.3125C176.559 63.9687 177.543 65.0781 179.746 65.5937L181.746 66.0625C182.957 66.3437 183.527 66.9219 183.527 67.75C183.527 68.7812 182.434 69.625 180.715 69.625C179.207 69.625 178.262 68.9766 177.934 67.6875L176.184 68.125C176.613 70.1641 178.293 71.25 180.746 71.25C183.535 71.25 185.434 69.7266 185.434 67.6562C185.434 65.9844 184.387 64.9297 182.246 64.4063L180.465 63.9687C179.043 63.6172 178.402 63.1406 178.402 62.2187C178.402 61.1875 179.496 60.4375 180.965 60.4375C182.574 60.4375 183.238 61.3281 183.559 62.1562L185.215 61.6875ZM187.989 75.5H189.833V69.1562H189.989C190.395 69.8125 191.176 71.25 193.489 71.25C196.489 71.25 198.583 68.8437 198.583 65.0313C198.583 61.25 196.489 58.8438 193.458 58.8438C191.114 58.8438 190.395 60.2812 189.989 60.9062H189.77V59H187.989V75.5ZM189.801 65C189.801 62.3125 190.989 60.5 193.239 60.5C195.583 60.5 196.739 62.4687 196.739 65C196.739 67.5625 195.551 69.5938 193.239 69.5938C191.02 69.5938 189.801 67.7187 189.801 65ZM206.05 71.25C209.3 71.25 211.488 68.7812 211.488 65.0625C211.488 61.3125 209.3 58.8438 206.05 58.8438C202.8 58.8438 200.613 61.3125 200.613 65.0625C200.613 68.7812 202.8 71.25 206.05 71.25ZM206.05 69.5938C203.581 69.5938 202.456 67.4687 202.456 65.0625C202.456 62.6562 203.581 60.5 206.05 60.5C208.519 60.5 209.644 62.6562 209.644 65.0625C209.644 67.4687 208.519 69.5938 206.05 69.5938ZM215.926 63.7812C215.926 61.6875 217.223 60.5 218.988 60.5C220.699 60.5 221.738 61.6172 221.738 63.5V71H223.582V63.375C223.582 60.3125 221.949 58.8438 219.52 58.8438C217.707 58.8438 216.582 59.6562 216.02 60.875H215.863V59H214.082V71H215.926V63.7812ZM235.231 61.6875C234.653 59.9844 233.356 58.8438 230.981 58.8438C228.45 58.8438 226.575 60.2812 226.575 62.3125C226.575 63.9687 227.559 65.0781 229.762 65.5937L231.762 66.0625C232.973 66.3437 233.544 66.9219 233.544 67.75C233.544 68.7812 232.45 69.625 230.731 69.625C229.223 69.625 228.278 68.9766 227.95 67.6875L226.2 68.125C226.63 70.1641 228.309 71.25 230.762 71.25C233.552 71.25 235.45 69.7266 235.45 67.6562C235.45 65.9844 234.403 64.9297 232.262 64.4063L230.481 63.9687C229.059 63.6172 228.419 63.1406 228.419 62.2187C228.419 61.1875 229.512 60.4375 230.981 60.4375C232.591 60.4375 233.255 61.3281 233.575 62.1562L235.231 61.6875ZM243.037 71.25C245.474 71.25 247.255 70.0312 247.818 68.2188L246.037 67.7187C245.568 68.9687 244.482 69.5938 243.037 69.5938C240.873 69.5938 239.38 68.1953 239.294 65.625H248.005V64.8437C248.005 60.375 245.349 58.8438 242.849 58.8438C239.599 58.8438 237.443 61.4062 237.443 65.0938C237.443 68.7812 239.568 71.25 243.037 71.25ZM239.294 64.0312C239.419 62.1641 240.74 60.5 242.849 60.5C244.849 60.5 246.13 62 246.13 64.0312H239.294ZM256.808 71H258.745V64.75H262.245C262.386 64.75 262.519 64.75 262.651 64.7422L266.026 71H268.276L264.659 64.3906C266.698 63.6953 267.651 62.0312 267.651 59.9062C267.651 57.0781 265.964 55 262.214 55H256.808V71ZM258.745 63V56.7187H262.151C264.745 56.7187 265.745 57.9844 265.745 59.9062C265.745 61.8281 264.745 63 262.183 63H258.745ZM273.941 71.2813C276.035 71.2813 277.129 70.1562 277.504 69.375H277.597V71H279.441V63.0938C279.441 59.2812 276.535 58.8438 275.004 58.8438C273.191 58.8438 271.129 59.4687 270.191 61.6562L271.941 62.2812C272.347 61.4062 273.308 60.4687 275.066 60.4687C276.761 60.4687 277.597 61.3672 277.597 62.9062V62.9687C277.597 63.8594 276.691 63.7812 274.504 64.0625C272.277 64.3516 269.847 64.8437 269.847 67.5937C269.847 69.9375 271.66 71.2813 273.941 71.2813ZM274.222 69.625C272.754 69.625 271.691 68.9687 271.691 67.6875C271.691 66.2812 272.972 65.8438 274.41 65.6562C275.191 65.5625 277.285 65.3437 277.597 64.9687V66.6562C277.597 68.1562 276.41 69.625 274.222 69.625ZM287.805 59H285.243V56.125H283.399V59H281.586V60.5625H283.399V68.0625C283.399 70.1562 285.086 71.1563 286.649 71.1563C287.336 71.1563 287.774 71.0313 288.024 70.9375L287.649 69.2812C287.493 69.3125 287.243 69.375 286.836 69.375C286.024 69.375 285.243 69.125 285.243 67.5625V60.5625H287.805V59ZM295.261 71.25C297.698 71.25 299.48 70.0312 300.042 68.2188L298.261 67.7187C297.792 68.9687 296.706 69.5938 295.261 69.5938C293.097 69.5938 291.605 68.1953 291.519 65.625H300.23V64.8437C300.23 60.375 297.573 58.8438 295.073 58.8438C291.823 58.8438 289.667 61.4062 289.667 65.0938C289.667 68.7812 291.792 71.25 295.261 71.25ZM291.519 64.0312C291.644 62.1641 292.964 60.5 295.073 60.5C297.073 60.5 298.355 62 298.355 64.0312H291.519ZM309.032 71H310.813V69.1562H311.032C311.438 69.8125 312.219 71.25 314.532 71.25C317.532 71.25 319.626 68.8437 319.626 65.0313C319.626 61.25 317.532 58.8438 314.501 58.8438C312.157 58.8438 311.438 60.2812 311.032 60.9062H310.876V55H309.032V71ZM310.844 65C310.844 62.3125 312.032 60.5 314.282 60.5C316.626 60.5 317.782 62.4687 317.782 65C317.782 67.5625 316.594 69.5938 314.282 69.5938C312.063 69.5938 310.844 67.7187 310.844 65ZM322.984 75.4688C324.648 75.4688 325.827 74.5859 326.515 72.75L331.624 59.0312L329.609 59L326.296 68.5625H326.171L322.859 59H320.859L325.296 71.0625L324.952 72C324.296 73.7969 323.452 73.9688 322.109 73.625L321.64 75.25C321.827 75.3438 322.359 75.4688 322.984 75.4688ZM344.999 71C349.874 71 352.624 67.9687 352.624 62.9687C352.624 58 349.874 55 345.217 55H340.061V71H344.999ZM341.999 69.2812V56.7187H345.092C348.842 56.7187 350.749 59.0937 350.749 62.9687C350.749 66.875 348.842 69.2812 344.874 69.2812H341.999ZM360.435 71.25C362.872 71.25 364.654 70.0312 365.216 68.2188L363.435 67.7187C362.966 68.9687 361.88 69.5938 360.435 69.5938C358.271 69.5938 356.779 68.1953 356.693 65.625H365.404V64.8437C365.404 60.375 362.747 58.8438 360.247 58.8438C356.997 58.8438 354.841 61.4062 354.841 65.0938C354.841 68.7812 356.966 71.25 360.435 71.25ZM356.693 64.0312C356.818 62.1641 358.138 60.5 360.247 60.5C362.247 60.5 363.529 62 363.529 64.0312H356.693ZM367.988 75.5H369.832V69.1562H369.988C370.395 69.8125 371.176 71.25 373.488 71.25C376.488 71.25 378.582 68.8437 378.582 65.0313C378.582 61.25 376.488 58.8438 373.457 58.8438C371.113 58.8438 370.395 60.2812 369.988 60.9062H369.77V59H367.988V75.5ZM369.801 65C369.801 62.3125 370.988 60.5 373.238 60.5C375.582 60.5 376.738 62.4687 376.738 65C376.738 67.5625 375.551 69.5938 373.238 69.5938C371.02 69.5938 369.801 67.7187 369.801 65ZM384.706 71.2813C386.8 71.2813 387.893 70.1562 388.268 69.375H388.362V71H390.206V63.0938C390.206 59.2812 387.3 58.8438 385.768 58.8438C383.956 58.8438 381.893 59.4687 380.956 61.6562L382.706 62.2812C383.112 61.4062 384.073 60.4687 385.831 60.4687C387.526 60.4687 388.362 61.3672 388.362 62.9062V62.9687C388.362 63.8594 387.456 63.7812 385.268 64.0625C383.042 64.3516 380.612 64.8437 380.612 67.5937C380.612 69.9375 382.425 71.2813 384.706 71.2813ZM384.987 69.625C383.518 69.625 382.456 68.9687 382.456 67.6875C382.456 66.2812 383.737 65.8438 385.175 65.6562C385.956 65.5625 388.05 65.3437 388.362 64.9687V66.6562C388.362 68.1562 387.175 69.625 384.987 69.625ZM393.351 71H395.195V63.4062C395.195 61.7812 396.476 60.5937 398.226 60.5937C398.718 60.5937 399.226 60.6875 399.351 60.7187V58.8438C399.14 58.8281 398.656 58.8125 398.382 58.8125C396.945 58.8125 395.695 59.625 395.257 60.8125H395.132V59H393.351V71ZM407.287 59H404.725V56.125H402.881V59H401.069V60.5625H402.881V68.0625C402.881 70.1562 404.569 71.1563 406.131 71.1563C406.819 71.1563 407.256 71.0313 407.506 70.9375L407.131 69.2812C406.975 69.3125 406.725 69.375 406.319 69.375C405.506 69.375 404.725 69.125 404.725 67.5625V60.5625H407.287V59ZM409.841 71H411.685V63.5C411.685 61.7422 412.966 60.5 414.403 60.5C415.802 60.5 416.778 61.4141 416.778 62.7812V71H418.653V63.1875C418.653 61.6406 419.622 60.5 421.31 60.5C422.622 60.5 423.747 61.1953 423.747 62.9687V71H425.591V62.9687C425.591 60.1484 424.075 58.8438 421.935 58.8438C420.216 58.8438 418.958 59.6328 418.341 60.875H418.216C417.622 59.5937 416.575 58.8438 414.997 58.8438C413.435 58.8438 412.278 59.5937 411.778 60.875H411.622V59H409.841V71ZM433.773 71.25C436.211 71.25 437.992 70.0312 438.554 68.2188L436.773 67.7187C436.304 68.9687 435.219 69.5938 433.773 69.5938C431.609 69.5938 430.117 68.1953 430.031 65.625H438.742V64.8437C438.742 60.375 436.086 58.8438 433.586 58.8438C430.336 58.8438 428.179 61.4062 428.179 65.0938C428.179 68.7812 430.304 71.25 433.773 71.25ZM430.031 64.0312C430.156 62.1641 431.476 60.5 433.586 60.5C435.586 60.5 436.867 62 436.867 64.0312H430.031ZM443.17 63.7812C443.17 61.6875 444.467 60.5 446.233 60.5C447.944 60.5 448.983 61.6172 448.983 63.5V71H450.827V63.375C450.827 60.3125 449.194 58.8438 446.764 58.8438C444.952 58.8438 443.827 59.6562 443.264 60.875H443.108V59H441.327V71H443.17V63.7812ZM459.195 59H456.632V56.125H454.788V59H452.976V60.5625H454.788V68.0625C454.788 70.1562 456.476 71.1563 458.038 71.1563C458.726 71.1563 459.163 71.0313 459.413 70.9375L459.038 69.2812C458.882 69.3125 458.632 69.375 458.226 69.375C457.413 69.375 456.632 69.125 456.632 67.5625V60.5625H459.195V59Z" fill="black"/>
<path d="M96.9318 96.3636V108H95.5227V98.4091H95.4318C95.3788 98.5152 95.2424 98.6364 95.0227 98.7727C94.803 98.9053 94.5189 99.0227 94.1705 99.125C93.822 99.2235 93.4242 99.2727 92.9773 99.2727V98.0909C93.428 98.0909 93.8182 98.0095 94.1477 97.8466C94.4773 97.6837 94.7519 97.4924 94.9716 97.2727C95.1951 97.053 95.3636 96.8542 95.4773 96.6761C95.5947 96.4981 95.6629 96.3939 95.6818 96.3636H96.9318ZM103.903 108.159C102.618 108.159 101.622 107.638 100.914 106.597C100.209 105.555 99.857 104.083 99.857 102.182C99.857 100.295 100.213 98.8277 100.925 97.7784C101.637 96.7292 102.63 96.2045 103.903 96.2045C105.175 96.2045 106.168 96.7292 106.88 97.7784C107.592 98.8277 107.948 100.295 107.948 102.182C107.948 104.083 107.594 105.555 106.885 106.597C106.181 107.638 105.187 108.159 103.903 108.159ZM103.903 106.909C104.751 106.909 105.41 106.5 105.88 105.682C106.349 104.864 106.584 103.697 106.584 102.182C106.584 100.67 106.348 99.5019 105.874 98.6761C105.401 97.8466 104.743 97.4318 103.903 97.4318C103.062 97.4318 102.404 97.8466 101.931 98.6761C101.457 99.5019 101.221 100.67 101.221 102.182C101.221 103.697 101.456 104.864 101.925 105.682C102.399 106.5 103.058 106.909 103.903 106.909ZM113.743 108.159C112.458 108.159 111.462 107.638 110.754 106.597C110.049 105.555 109.697 104.083 109.697 102.182C109.697 100.295 110.053 98.8277 110.765 97.7784C111.477 96.7292 112.47 96.2045 113.743 96.2045C115.015 96.2045 116.008 96.7292 116.72 97.7784C117.432 98.8277 117.788 100.295 117.788 102.182C117.788 104.083 117.434 105.555 116.725 106.597C116.021 107.638 115.027 108.159 113.743 108.159ZM113.743 106.909C114.591 106.909 115.25 106.5 115.72 105.682C116.189 104.864 116.424 103.697 116.424 102.182C116.424 100.67 116.188 99.5019 115.714 98.6761C115.241 97.8466 114.583 97.4318 113.743 97.4318C112.902 97.4318 112.244 97.8466 111.771 98.6761C111.297 99.5019 111.061 100.67 111.061 102.182C111.061 103.697 111.296 104.864 111.765 105.682C112.239 106.5 112.898 106.909 113.743 106.909ZM125.719 105.818V105.205C125.719 104.78 125.806 104.392 125.98 104.04C126.158 103.684 126.416 103.4 126.753 103.188C127.094 102.972 127.507 102.864 127.992 102.864C128.484 102.864 128.897 102.972 129.23 103.188C129.564 103.4 129.815 103.684 129.986 104.04C130.156 104.392 130.242 104.78 130.242 105.205V105.818C130.242 106.242 130.154 106.633 129.98 106.989C129.81 107.341 129.556 107.625 129.219 107.841C128.886 108.053 128.476 108.159 127.992 108.159C127.499 108.159 127.084 108.053 126.747 107.841C126.41 107.625 126.154 107.341 125.98 106.989C125.806 106.633 125.719 106.242 125.719 105.818ZM119.923 99.1591V98.5455C119.923 98.1212 120.011 97.733 120.185 97.3807C120.363 97.0246 120.62 96.7405 120.958 96.5284C121.298 96.3125 121.711 96.2045 122.196 96.2045C122.689 96.2045 123.101 96.3125 123.435 96.5284C123.768 96.7405 124.02 97.0246 124.19 97.3807C124.361 97.733 124.446 98.1212 124.446 98.5455V99.1591C124.446 99.5833 124.359 99.9735 124.185 100.33C124.014 100.682 123.761 100.966 123.423 101.182C123.09 101.394 122.681 101.5 122.196 101.5C121.704 101.5 121.289 101.394 120.952 101.182C120.615 100.966 120.359 100.682 120.185 100.33C120.011 99.9735 119.923 99.5833 119.923 99.1591ZM120.355 108L128.355 96.3636H129.651L121.651 108H120.355ZM126.878 105.205V105.818C126.878 106.17 126.961 106.487 127.128 106.767C127.295 107.044 127.583 107.182 127.992 107.182C128.389 107.182 128.67 107.044 128.833 106.767C128.999 106.487 129.083 106.17 129.083 105.818V105.205C129.083 104.852 129.003 104.538 128.844 104.261C128.685 103.981 128.401 103.841 127.992 103.841C127.594 103.841 127.308 103.981 127.134 104.261C126.963 104.538 126.878 104.852 126.878 105.205ZM121.083 98.5455V99.1591C121.083 99.5114 121.166 99.8277 121.333 100.108C121.499 100.384 121.787 100.523 122.196 100.523C122.594 100.523 122.874 100.384 123.037 100.108C123.204 99.8277 123.287 99.5114 123.287 99.1591V98.5455C123.287 98.1932 123.208 97.8788 123.048 97.6023C122.889 97.322 122.605 97.1818 122.196 97.1818C121.798 97.1818 121.512 97.322 121.338 97.6023C121.168 97.8788 121.083 98.1932 121.083 98.5455Z" fill="#454554"/>
<path d="M97 444.159C95.7159 444.159 94.7197 443.638 94.0114 442.597C93.3068 441.555 92.9545 440.083 92.9545 438.182C92.9545 436.295 93.3106 434.828 94.0227 433.778C94.7348 432.729 95.7273 432.205 97 432.205C98.2727 432.205 99.2652 432.729 99.9773 433.778C100.689 434.828 101.045 436.295 101.045 438.182C101.045 440.083 100.691 441.555 99.983 442.597C99.2784 443.638 98.2841 444.159 97 444.159ZM97 442.909C97.8485 442.909 98.5076 442.5 98.9773 441.682C99.447 440.864 99.6818 439.697 99.6818 438.182C99.6818 436.67 99.4451 435.502 98.9716 434.676C98.4981 433.847 97.8409 433.432 97 433.432C96.1591 433.432 95.5019 433.847 95.0284 434.676C94.5549 435.502 94.3182 436.67 94.3182 438.182C94.3182 439.697 94.553 440.864 95.0227 441.682C95.4962 442.5 96.1553 442.909 97 442.909ZM108.976 441.818V441.205C108.976 440.78 109.063 440.392 109.238 440.04C109.416 439.684 109.673 439.4 110.01 439.188C110.351 438.972 110.764 438.864 111.249 438.864C111.742 438.864 112.154 438.972 112.488 439.188C112.821 439.4 113.073 439.684 113.243 440.04C113.414 440.392 113.499 440.78 113.499 441.205V441.818C113.499 442.242 113.412 442.633 113.238 442.989C113.067 443.341 112.813 443.625 112.476 443.841C112.143 444.053 111.734 444.159 111.249 444.159C110.757 444.159 110.342 444.053 110.005 443.841C109.668 443.625 109.412 443.341 109.238 442.989C109.063 442.633 108.976 442.242 108.976 441.818ZM103.181 435.159V434.545C103.181 434.121 103.268 433.733 103.442 433.381C103.62 433.025 103.878 432.741 104.215 432.528C104.556 432.312 104.969 432.205 105.454 432.205C105.946 432.205 106.359 432.312 106.692 432.528C107.026 432.741 107.278 433.025 107.448 433.381C107.618 433.733 107.704 434.121 107.704 434.545V435.159C107.704 435.583 107.617 435.973 107.442 436.33C107.272 436.682 107.018 436.966 106.681 437.182C106.348 437.394 105.938 437.5 105.454 437.5C104.961 437.5 104.546 437.394 104.209 437.182C103.872 436.966 103.617 436.682 103.442 436.33C103.268 435.973 103.181 435.583 103.181 435.159ZM103.613 444L111.613 432.364H112.908L104.908 444H103.613ZM110.135 441.205V441.818C110.135 442.17 110.219 442.487 110.385 442.767C110.552 443.044 110.84 443.182 111.249 443.182C111.647 443.182 111.927 443.044 112.09 442.767C112.257 442.487 112.34 442.17 112.34 441.818V441.205C112.34 440.852 112.26 440.538 112.101 440.261C111.942 439.981 111.658 439.841 111.249 439.841C110.851 439.841 110.565 439.981 110.391 440.261C110.221 440.538 110.135 440.852 110.135 441.205ZM104.34 434.545V435.159C104.34 435.511 104.423 435.828 104.59 436.108C104.757 436.384 105.045 436.523 105.454 436.523C105.851 436.523 106.132 436.384 106.295 436.108C106.461 435.828 106.545 435.511 106.545 435.159V434.545C106.545 434.193 106.465 433.879 106.306 433.602C106.147 433.322 105.863 433.182 105.454 433.182C105.056 433.182 104.77 433.322 104.596 433.602C104.425 433.879 104.34 434.193 104.34 434.545Z" fill="#454554"/>
<path d="M225.055 454C224.809 453.235 224.403 452.631 223.839 452.188C223.278 451.744 222.578 451.523 221.737 451.523C221.047 451.523 220.42 451.701 219.856 452.057C219.292 452.413 218.843 452.938 218.509 453.631C218.176 454.324 218.009 455.174 218.009 456.182C218.009 457.189 218.178 458.04 218.515 458.733C218.852 459.426 219.309 459.951 219.884 460.307C220.46 460.663 221.108 460.841 221.828 460.841C222.483 460.841 223.062 460.703 223.566 460.426C224.074 460.146 224.472 459.752 224.759 459.244C225.047 458.733 225.199 458.129 225.214 457.432H222.146V456.182H226.578V457.432C226.578 458.39 226.373 459.223 225.964 459.932C225.559 460.64 224.998 461.189 224.282 461.58C223.57 461.966 222.752 462.159 221.828 462.159C220.797 462.159 219.892 461.917 219.112 461.432C218.335 460.947 217.729 460.258 217.294 459.364C216.862 458.47 216.646 457.409 216.646 456.182C216.646 454.955 216.862 453.894 217.294 453C217.729 452.106 218.33 451.417 219.095 450.932C219.864 450.447 220.744 450.205 221.737 450.205C222.555 450.205 223.297 450.366 223.964 450.688C224.631 451.006 225.186 451.451 225.629 452.023C226.072 452.591 226.365 453.25 226.509 454H225.055ZM231.945 462.159C231.179 462.159 230.52 462.019 229.967 461.739C229.414 461.458 228.988 461.074 228.689 460.585C228.39 460.097 228.24 459.538 228.24 458.909C228.24 458.205 228.452 457.61 228.876 457.125C229.304 456.636 229.857 456.155 230.536 455.682C230.134 455.201 229.806 454.744 229.553 454.312C229.299 453.877 229.172 453.402 229.172 452.886C229.172 452.102 229.428 451.468 229.939 450.983C230.454 450.494 231.138 450.25 231.99 450.25C232.573 450.25 233.075 450.364 233.496 450.591C233.916 450.814 234.24 451.112 234.467 451.483C234.695 451.85 234.808 452.25 234.808 452.682C234.808 453.239 234.67 453.722 234.393 454.131C234.117 454.54 233.74 454.92 233.263 455.273L232.411 455.909L234.939 458.994C235.09 458.703 235.208 458.383 235.291 458.034C235.378 457.682 235.422 457.307 235.422 456.909H236.717C236.717 457.72 236.617 458.375 236.416 458.875C236.219 459.371 236.011 459.759 235.791 460.04L237.399 462H235.786L234.962 461.011C234.583 461.398 234.119 461.686 233.57 461.875C233.02 462.064 232.479 462.159 231.945 462.159ZM234.161 460.04L231.376 456.682L230.945 457C230.422 457.386 230.068 457.761 229.882 458.125C229.696 458.489 229.604 458.75 229.604 458.909C229.604 459.273 229.698 459.612 229.888 459.926C230.077 460.241 230.344 460.494 230.689 460.688C231.034 460.881 231.437 460.977 231.899 460.977C232.744 460.977 233.498 460.665 234.161 460.04ZM231.587 454.909L232.354 454.341C232.683 454.125 232.946 453.894 233.143 453.648C233.344 453.402 233.445 453.08 233.445 452.682C233.445 452.386 233.314 452.1 233.053 451.824C232.795 451.547 232.456 451.409 232.036 451.409C231.74 451.409 231.479 451.485 231.251 451.636C231.028 451.784 230.852 451.973 230.723 452.205C230.598 452.432 230.536 452.667 230.536 452.909C230.536 453.231 230.64 453.559 230.848 453.892C231.056 454.222 231.303 454.561 231.587 454.909ZM239.383 462H237.905L242.178 450.364H243.633L247.905 462H246.428L245.258 458.705H240.553L239.383 462ZM240.996 457.455H244.814L242.951 452.205H242.86L240.996 457.455Z" fill="black"/>
<path d="M391.875 454C391.629 453.235 391.224 452.631 390.659 452.188C390.099 451.744 389.398 451.523 388.557 451.523C387.868 451.523 387.241 451.701 386.676 452.057C386.112 452.413 385.663 452.938 385.33 453.631C384.996 454.324 384.83 455.174 384.83 456.182C384.83 457.189 384.998 458.04 385.335 458.733C385.673 459.426 386.129 459.951 386.705 460.307C387.281 460.663 387.928 460.841 388.648 460.841C389.303 460.841 389.883 460.703 390.387 460.426C390.894 460.146 391.292 459.752 391.58 459.244C391.868 458.733 392.019 458.129 392.034 457.432H388.966V456.182H393.398V457.432C393.398 458.39 393.193 459.223 392.784 459.932C392.379 460.64 391.818 461.189 391.102 461.58C390.39 461.966 389.572 462.159 388.648 462.159C387.618 462.159 386.712 461.917 385.932 461.432C385.156 460.947 384.549 460.258 384.114 459.364C383.682 458.47 383.466 457.409 383.466 456.182C383.466 454.955 383.682 453.894 384.114 453C384.549 452.106 385.15 451.417 385.915 450.932C386.684 450.447 387.565 450.205 388.557 450.205C389.375 450.205 390.118 450.366 390.784 450.688C391.451 451.006 392.006 451.451 392.449 452.023C392.892 452.591 393.186 453.25 393.33 454H391.875ZM395.562 451.614V450.364H404.289V451.614H400.63V462H399.221V451.614H395.562ZM406.304 450.364H407.986L411.94 460.023H412.077L416.031 450.364H417.713V462H416.395V453.159H416.281L412.645 462H411.372L407.736 453.159H407.622V462H406.304V450.364Z" fill="black"/>
<path d="M410.986 500H407.395V488.364H411.145C412.274 488.364 413.239 488.597 414.042 489.062C414.845 489.525 415.461 490.189 415.889 491.057C416.317 491.92 416.531 492.955 416.531 494.159C416.531 495.371 416.315 496.415 415.883 497.29C415.452 498.161 414.823 498.831 413.997 499.301C413.171 499.767 412.167 500 410.986 500ZM408.804 498.75H410.895C412.338 498.75 413.41 498.341 414.111 497.523C414.815 496.701 415.167 495.58 415.167 494.159C415.167 492.75 414.823 491.64 414.133 490.83C413.444 490.019 412.417 489.614 411.054 489.614H408.804V498.75ZM422.212 500.182C421.371 500.182 420.646 499.996 420.036 499.625C419.43 499.25 418.962 498.727 418.632 498.057C418.307 497.383 418.144 496.598 418.144 495.705C418.144 494.811 418.307 494.023 418.632 493.341C418.962 492.655 419.42 492.121 420.007 491.739C420.598 491.352 421.288 491.159 422.076 491.159C422.53 491.159 422.979 491.235 423.422 491.386C423.865 491.538 424.269 491.784 424.632 492.125C424.996 492.462 425.286 492.909 425.502 493.466C425.718 494.023 425.826 494.708 425.826 495.523V496.091H419.49C419.521 497.023 419.784 497.737 420.28 498.233C420.78 498.729 421.424 498.977 422.212 498.977C422.739 498.977 423.191 498.864 423.57 498.636C423.949 498.409 424.223 498.068 424.394 497.614L425.689 497.977C425.485 498.636 425.076 499.169 424.462 499.574C423.848 499.979 423.098 500.182 422.212 500.182ZM419.49 494.932H424.462C424.462 494.193 424.246 493.581 423.814 493.097C423.382 492.608 422.803 492.364 422.076 492.364C421.564 492.364 421.121 492.483 420.746 492.722C420.371 492.96 420.076 493.277 419.86 493.67C419.644 494.061 419.521 494.481 419.49 494.932ZM427.705 503.273V491.273H429.001V492.659H429.16C429.258 492.508 429.395 492.314 429.569 492.08C429.747 491.841 430.001 491.629 430.33 491.443C430.664 491.254 431.114 491.159 431.683 491.159C432.418 491.159 433.065 491.343 433.626 491.71C434.186 492.078 434.624 492.598 434.938 493.273C435.253 493.947 435.41 494.742 435.41 495.659C435.41 496.583 435.253 497.384 434.938 498.062C434.624 498.737 434.188 499.259 433.632 499.631C433.075 499.998 432.433 500.182 431.705 500.182C431.145 500.182 430.696 500.089 430.359 499.903C430.022 499.714 429.762 499.5 429.58 499.261C429.399 499.019 429.258 498.818 429.16 498.659H429.046V503.273H427.705ZM429.024 495.636C429.024 496.625 429.238 497.43 429.666 498.051C430.097 498.669 430.717 498.977 431.524 498.977C432.084 498.977 432.552 498.83 432.927 498.534C433.306 498.235 433.59 497.833 433.779 497.33C433.972 496.822 434.069 496.258 434.069 495.636C434.069 495.023 433.974 494.47 433.785 493.977C433.599 493.481 433.317 493.089 432.938 492.801C432.563 492.509 432.092 492.364 431.524 492.364C430.705 492.364 430.084 492.665 429.66 493.267C429.236 493.869 429.024 494.659 429.024 495.636ZM439.864 500.205C439.311 500.205 438.809 500.1 438.358 499.892C437.907 499.68 437.549 499.375 437.284 498.977C437.019 498.576 436.886 498.091 436.886 497.523C436.886 497.023 436.985 496.617 437.182 496.307C437.379 495.992 437.642 495.746 437.972 495.568C438.301 495.39 438.665 495.258 439.062 495.17C439.464 495.08 439.867 495.008 440.273 494.955C440.803 494.886 441.233 494.835 441.562 494.801C441.896 494.763 442.138 494.701 442.29 494.614C442.445 494.527 442.523 494.375 442.523 494.159V494.114C442.523 493.553 442.369 493.117 442.062 492.807C441.759 492.496 441.299 492.341 440.682 492.341C440.042 492.341 439.54 492.481 439.176 492.761C438.812 493.042 438.557 493.341 438.409 493.659L437.136 493.205C437.364 492.674 437.667 492.261 438.045 491.966C438.428 491.667 438.845 491.458 439.295 491.341C439.75 491.22 440.197 491.159 440.636 491.159C440.917 491.159 441.239 491.193 441.602 491.261C441.97 491.326 442.324 491.46 442.665 491.665C443.009 491.869 443.295 492.178 443.523 492.591C443.75 493.004 443.864 493.557 443.864 494.25V500H442.523V498.818H442.454C442.364 499.008 442.212 499.21 442 499.426C441.788 499.642 441.506 499.826 441.153 499.977C440.801 500.129 440.371 500.205 439.864 500.205ZM440.068 499C440.598 499 441.045 498.896 441.409 498.688C441.776 498.479 442.053 498.21 442.239 497.881C442.428 497.551 442.523 497.205 442.523 496.841V495.614C442.466 495.682 442.341 495.744 442.148 495.801C441.958 495.854 441.739 495.902 441.489 495.943C441.242 495.981 441.002 496.015 440.767 496.045C440.536 496.072 440.348 496.095 440.204 496.114C439.856 496.159 439.53 496.233 439.227 496.335C438.928 496.434 438.686 496.583 438.5 496.784C438.318 496.981 438.227 497.25 438.227 497.591C438.227 498.057 438.4 498.409 438.744 498.648C439.093 498.883 439.534 499 440.068 499ZM446.151 500V491.273H447.446V492.591H447.537C447.693 492.159 447.979 491.809 448.395 491.54C448.812 491.271 449.284 491.136 449.81 491.136C450.053 491.136 450.265 491.165 450.446 491.222C450.628 491.278 450.787 491.356 450.924 491.455L450.469 492.591C450.375 492.542 450.263 492.504 450.134 492.477C450.009 492.447 449.863 492.432 449.696 492.432C449.06 492.432 448.534 492.627 448.117 493.017C447.7 493.403 447.492 493.89 447.492 494.477V500H446.151ZM456.474 491.273V492.409H454.61V497.5C454.61 497.879 454.665 498.163 454.775 498.352C454.889 498.538 455.033 498.663 455.207 498.727C455.385 498.788 455.572 498.818 455.769 498.818C455.917 498.818 456.038 498.811 456.133 498.795C456.228 498.777 456.304 498.761 456.36 498.75L456.633 499.955C456.542 499.989 456.415 500.023 456.252 500.057C456.09 500.095 455.883 500.114 455.633 500.114C455.254 500.114 454.883 500.032 454.519 499.869C454.16 499.706 453.86 499.458 453.622 499.125C453.387 498.792 453.269 498.371 453.269 497.864V492.409H451.951V491.273H453.269V489.182H454.61V491.273H456.474ZM458.331 500V491.273H459.626V492.636H459.74C459.922 492.17 460.216 491.809 460.621 491.551C461.026 491.29 461.513 491.159 462.081 491.159C462.657 491.159 463.136 491.29 463.519 491.551C463.905 491.809 464.206 492.17 464.422 492.636H464.513C464.736 492.186 465.072 491.828 465.519 491.562C465.966 491.294 466.501 491.159 467.126 491.159C467.907 491.159 468.545 491.403 469.041 491.892C469.537 492.377 469.786 493.133 469.786 494.159V500H468.445V494.159C468.445 493.515 468.269 493.055 467.916 492.778C467.564 492.502 467.149 492.364 466.672 492.364C466.058 492.364 465.583 492.549 465.246 492.92C464.909 493.288 464.74 493.754 464.74 494.318V500H463.376V494.023C463.376 493.527 463.216 493.127 462.894 492.824C462.572 492.517 462.157 492.364 461.649 492.364C461.301 492.364 460.975 492.456 460.672 492.642C460.373 492.828 460.13 493.085 459.945 493.415C459.763 493.741 459.672 494.117 459.672 494.545V500H458.331ZM475.736 500.182C474.895 500.182 474.17 499.996 473.56 499.625C472.954 499.25 472.486 498.727 472.157 498.057C471.831 497.383 471.668 496.598 471.668 495.705C471.668 494.811 471.831 494.023 472.157 493.341C472.486 492.655 472.945 492.121 473.532 491.739C474.123 491.352 474.812 491.159 475.6 491.159C476.055 491.159 476.503 491.235 476.947 491.386C477.39 491.538 477.793 491.784 478.157 492.125C478.52 492.462 478.81 492.909 479.026 493.466C479.242 494.023 479.35 494.708 479.35 495.523V496.091H473.015C473.045 497.023 473.308 497.737 473.805 498.233C474.305 498.729 474.948 498.977 475.736 498.977C476.263 498.977 476.716 498.864 477.094 498.636C477.473 498.409 477.748 498.068 477.918 497.614L479.214 497.977C479.009 498.636 478.6 499.169 477.986 499.574C477.373 499.979 476.623 500.182 475.736 500.182ZM473.015 494.932H477.986C477.986 494.193 477.77 493.581 477.339 493.097C476.907 492.608 476.327 492.364 475.6 492.364C475.089 492.364 474.645 492.483 474.27 492.722C473.895 492.96 473.6 493.277 473.384 493.67C473.168 494.061 473.045 494.481 473.015 494.932ZM482.571 494.75V500H481.23V491.273H482.525V492.636H482.639C482.843 492.193 483.154 491.837 483.571 491.568C483.987 491.295 484.525 491.159 485.184 491.159C486.067 491.159 486.779 491.43 487.321 491.972C487.866 492.513 488.139 493.341 488.139 494.455V500H486.798V494.545C486.798 493.86 486.62 493.326 486.264 492.943C485.908 492.557 485.419 492.364 484.798 492.364C484.158 492.364 483.626 492.572 483.201 492.989C482.781 493.402 482.571 493.989 482.571 494.75ZM494.225 491.273V492.409H492.361V497.5C492.361 497.879 492.416 498.163 492.526 498.352C492.639 498.538 492.783 498.663 492.958 498.727C493.136 498.788 493.323 498.818 493.52 498.818C493.668 498.818 493.789 498.811 493.884 498.795C493.978 498.777 494.054 498.761 494.111 498.75L494.384 499.955C494.293 499.989 494.166 500.023 494.003 500.057C493.84 500.095 493.634 500.114 493.384 500.114C493.005 500.114 492.634 500.032 492.27 499.869C491.91 499.706 491.611 499.458 491.372 499.125C491.137 498.792 491.02 498.371 491.02 497.864V492.409H489.702V491.273H491.02V489.182H492.361V491.273H494.225Z" fill="black"/>
<path d="M61 329.592L49.3636 329.592L49.3636 325.66C49.3636 324.751 49.5189 324.005 49.8295 323.421C50.1364 322.838 50.5587 322.406 51.0966 322.126C51.6345 321.846 52.2462 321.705 52.9318 321.705C53.7045 321.705 54.3788 321.884 54.9545 322.24C55.5265 322.592 55.9394 323.139 56.1932 323.882L61 321.251L61 322.887L56.4489 325.342C56.4526 325.437 56.4545 325.535 56.4545 325.637L56.4545 328.183L61 328.183L61 329.592ZM55.1818 328.183L55.1818 325.683C55.1818 324.751 54.9811 324.086 54.5795 323.688C54.178 323.291 53.6288 323.092 52.9318 323.092C52.2311 323.092 51.6704 323.293 51.25 323.694C50.8257 324.092 50.6136 324.762 50.6136 325.705L50.6136 328.183L55.1818 328.183ZM61.1818 316.134C61.1818 316.975 60.9962 317.7 60.625 318.31C60.25 318.916 59.7273 319.384 59.0568 319.714C58.3826 320.039 57.5985 320.202 56.7045 320.202C55.8106 320.202 55.0227 320.039 54.3409 319.714C53.6553 319.384 53.1212 318.926 52.7386 318.339C52.3523 317.748 52.1591 317.058 52.1591 316.27C52.1591 315.816 52.2348 315.367 52.3864 314.924C52.5379 314.481 52.7841 314.077 53.125 313.714C53.4621 313.35 53.9091 313.06 54.4659 312.844C55.0227 312.628 55.7083 312.52 56.5227 312.52L57.0909 312.52L57.0909 318.856C58.0227 318.825 58.7367 318.562 59.2329 318.066C59.7292 317.566 59.9773 316.922 59.9773 316.134C59.9773 315.607 59.8636 315.155 59.6364 314.776C59.4091 314.397 59.0682 314.123 58.6136 313.952L58.9773 312.657C59.6364 312.861 60.1686 313.27 60.5739 313.884C60.9792 314.498 61.1818 315.248 61.1818 316.134ZM55.9318 318.856L55.9318 313.884C55.1932 313.884 54.5814 314.1 54.0966 314.532C53.6079 314.964 53.3636 315.543 53.3636 316.27C53.3636 316.782 53.4829 317.225 53.7216 317.6C53.9602 317.975 54.2765 318.27 54.6704 318.486C55.0606 318.702 55.4811 318.825 55.9318 318.856ZM54.2273 304.459L54.5682 305.663C54.2651 305.781 53.9811 305.978 53.7159 306.254C53.4507 306.531 53.3182 306.963 53.3182 307.55C53.3182 308.084 53.4413 308.529 53.6875 308.885C53.9299 309.237 54.2386 309.413 54.6136 309.413C54.947 309.413 55.2102 309.292 55.4034 309.05C55.5966 308.807 55.7576 308.428 55.8864 307.913L56.2045 306.618C56.5833 305.072 57.3712 304.3 58.5682 304.3C59.0682 304.3 59.5151 304.444 59.9091 304.731C60.303 305.016 60.6136 305.413 60.8409 305.925C61.0682 306.436 61.1818 307.031 61.1818 307.709C61.1818 308.599 60.9886 309.336 60.6023 309.919C60.2159 310.502 59.6515 310.872 58.9091 311.027L58.5909 309.754C59.5303 309.516 60 308.841 60 307.731C60 307.106 59.8674 306.61 59.6023 306.243C59.3333 305.872 59.0114 305.686 58.6364 305.686C58.0189 305.686 57.6098 306.118 57.4091 306.981L57.0682 308.436C56.8788 309.235 56.5852 309.822 56.1875 310.197C55.786 310.569 55.2841 310.754 54.6818 310.754C54.1894 310.754 53.7538 310.616 53.375 310.339C52.9962 310.059 52.6989 309.678 52.4829 309.197C52.267 308.713 52.1591 308.163 52.1591 307.55C52.1591 306.686 52.3485 306.008 52.7273 305.516C53.1061 305.019 53.6061 304.667 54.2273 304.459ZM64.2727 302.441L52.2727 302.441L52.2727 301.146L53.6591 301.146L53.6591 300.987C53.5076 300.888 53.3144 300.752 53.0795 300.578C52.8409 300.4 52.6288 300.146 52.4432 299.816C52.2538 299.483 52.1591 299.032 52.1591 298.464C52.1591 297.729 52.3428 297.081 52.7102 296.521C53.0776 295.96 53.5985 295.523 54.2727 295.208C54.947 294.894 55.7424 294.737 56.6591 294.737C57.5833 294.737 58.3845 294.894 59.0625 295.208C59.7367 295.523 60.2595 295.958 60.6307 296.515C60.9981 297.072 61.1818 297.714 61.1818 298.441C61.1818 299.002 61.089 299.451 60.9034 299.788C60.714 300.125 60.5 300.384 60.2614 300.566C60.0189 300.748 59.8182 300.888 59.6591 300.987L59.6591 301.1L64.2727 301.1L64.2727 302.441ZM56.6364 301.123C57.625 301.123 58.4299 300.909 59.0511 300.481C59.6686 300.049 59.9773 299.43 59.9773 298.623C59.9773 298.062 59.8295 297.595 59.5341 297.22C59.2348 296.841 58.8333 296.557 58.3295 296.367C57.822 296.174 57.2576 296.078 56.6364 296.078C56.0227 296.078 55.4697 296.172 54.9773 296.362C54.4811 296.547 54.089 296.829 53.8011 297.208C53.5095 297.583 53.3636 298.055 53.3636 298.623C53.3636 299.441 53.6648 300.062 54.267 300.487C54.8693 300.911 55.6591 301.123 56.6364 301.123ZM61.1818 289.306C61.1818 290.094 60.9943 290.785 60.6193 291.38C60.2443 291.97 59.7197 292.433 59.0454 292.766C58.3712 293.095 57.5833 293.26 56.6818 293.26C55.7727 293.26 54.9792 293.095 54.3011 292.766C53.6231 292.433 53.0966 291.97 52.7216 291.38C52.3466 290.785 52.1591 290.094 52.1591 289.306C52.1591 288.518 52.3466 287.828 52.7216 287.238C53.0966 286.643 53.6231 286.181 54.3011 285.851C54.9792 285.518 55.7727 285.351 56.6818 285.351C57.5833 285.351 58.3712 285.518 59.0454 285.851C59.7197 286.181 60.2443 286.643 60.6193 287.238C60.9943 287.828 61.1818 288.518 61.1818 289.306ZM59.9773 289.306C59.9773 288.707 59.8239 288.215 59.517 287.828C59.2102 287.442 58.8068 287.156 58.3068 286.97C57.8068 286.785 57.2651 286.692 56.6818 286.692C56.0985 286.692 55.5549 286.785 55.0511 286.97C54.5473 287.156 54.1401 287.442 53.8295 287.828C53.5189 288.215 53.3636 288.707 53.3636 289.306C53.3636 289.904 53.5189 290.397 53.8295 290.783C54.1401 291.169 54.5473 291.455 55.0511 291.641C55.5549 291.827 56.0985 291.919 56.6818 291.919C57.2651 291.919 57.8068 291.827 58.3068 291.641C58.8068 291.455 59.2102 291.169 59.517 290.783C59.8239 290.397 59.9773 289.904 59.9773 289.306ZM55.75 282.123L61 282.123L61 283.464L52.2727 283.464L52.2727 282.169L53.6364 282.169L53.6364 282.055C53.1932 281.851 52.8371 281.54 52.5682 281.123C52.2954 280.707 52.1591 280.169 52.1591 279.51C52.1591 278.627 52.4299 277.915 52.9716 277.373C53.5132 276.828 54.3409 276.555 55.4545 276.555L61 276.555L61 277.896L55.5454 277.896C54.8598 277.896 54.3257 278.074 53.9432 278.43C53.5568 278.786 53.3636 279.275 53.3636 279.896C53.3636 280.536 53.572 281.068 53.9886 281.493C54.4015 281.913 54.9886 282.123 55.75 282.123ZM54.2273 268.083L54.5682 269.288C54.2651 269.405 53.981 269.602 53.7159 269.879C53.4507 270.155 53.3182 270.587 53.3182 271.174C53.3182 271.708 53.4413 272.153 53.6875 272.509C53.9299 272.862 54.2386 273.038 54.6136 273.038C54.947 273.038 55.2102 272.916 55.4034 272.674C55.5966 272.432 55.7576 272.053 55.8864 271.538L56.2045 270.242C56.5833 268.697 57.3712 267.924 58.5682 267.924C59.0682 267.924 59.5151 268.068 59.9091 268.356C60.303 268.64 60.6136 269.038 60.8409 269.549C61.0682 270.06 61.1818 270.655 61.1818 271.333C61.1818 272.223 60.9886 272.96 60.6023 273.543C60.2159 274.127 59.6515 274.496 58.9091 274.651L58.5909 273.379C59.5303 273.14 60 272.466 60 271.356C60 270.731 59.8674 270.235 59.6023 269.867C59.3333 269.496 59.0114 269.31 58.6364 269.31C58.0189 269.31 57.6098 269.742 57.4091 270.606L57.0682 272.06C56.8788 272.86 56.5852 273.447 56.1875 273.822C55.786 274.193 55.2841 274.379 54.6818 274.379C54.1894 274.379 53.7538 274.24 53.375 273.964C52.9962 273.683 52.6989 273.303 52.4829 272.822C52.267 272.337 52.1591 271.788 52.1591 271.174C52.1591 270.31 52.3485 269.632 52.7273 269.14C53.106 268.644 53.606 268.291 54.2273 268.083ZM61.1818 262.406C61.1818 263.247 60.9962 263.973 60.625 264.583C60.25 265.189 59.7273 265.656 59.0568 265.986C58.3826 266.312 57.5985 266.475 56.7045 266.475C55.8106 266.475 55.0227 266.312 54.3409 265.986C53.6553 265.656 53.1212 265.198 52.7386 264.611C52.3523 264.02 52.1591 263.331 52.1591 262.543C52.1591 262.088 52.2348 261.639 52.3864 261.196C52.5379 260.753 52.7841 260.35 53.125 259.986C53.4621 259.622 53.9091 259.333 54.4659 259.117C55.0227 258.901 55.7083 258.793 56.5227 258.793L57.0909 258.793L57.0909 265.128C58.0227 265.098 58.7367 264.834 59.2329 264.338C59.7292 263.838 59.9773 263.194 59.9773 262.406C59.9773 261.88 59.8636 261.427 59.6364 261.048C59.4091 260.67 59.0682 260.395 58.6136 260.225L58.9773 258.929C59.6364 259.134 60.1685 259.543 60.5739 260.156C60.9792 260.77 61.1818 261.52 61.1818 262.406ZM55.9318 265.128L55.9318 260.156C55.1932 260.156 54.5814 260.372 54.0966 260.804C53.6079 261.236 53.3636 261.816 53.3636 262.543C53.3636 263.054 53.4829 263.497 53.7216 263.872C53.9602 264.247 54.2765 264.543 54.6704 264.759C55.0606 264.975 55.481 265.098 55.9318 265.128ZM61 252.391L49.3636 252.391L49.3636 248.459C49.3636 247.55 49.5189 246.804 49.8295 246.221C50.1364 245.637 50.5587 245.206 51.0966 244.925C51.6345 244.645 52.2462 244.505 52.9318 244.505C53.7045 244.505 54.3788 244.683 54.9545 245.039C55.5265 245.391 55.9394 245.939 56.1932 246.681L61 244.05L61 245.687L56.4489 248.141C56.4526 248.236 56.4545 248.334 56.4545 248.437L56.4545 250.982L61 250.982L61 252.391ZM55.1818 250.982L55.1818 248.482C55.1818 247.55 54.981 246.886 54.5795 246.488C54.178 246.09 53.6288 245.891 52.9318 245.891C52.231 245.891 51.6704 246.092 51.25 246.494C50.8257 246.891 50.6136 247.562 50.6136 248.505L50.6136 250.982L55.1818 250.982ZM61.2045 239.93C61.2045 240.484 61.1004 240.985 60.892 241.436C60.6799 241.887 60.375 242.245 59.9773 242.51C59.5757 242.775 59.0909 242.908 58.5227 242.908C58.0227 242.908 57.6174 242.809 57.3068 242.612C56.9924 242.415 56.7462 242.152 56.5682 241.823C56.3901 241.493 56.2576 241.129 56.1704 240.732C56.0795 240.33 56.0076 239.927 55.9545 239.521C55.8864 238.991 55.8352 238.561 55.8011 238.232C55.7632 237.898 55.7007 237.656 55.6136 237.504C55.5265 237.349 55.375 237.271 55.1591 237.271L55.1136 237.271C54.553 237.271 54.1174 237.425 53.8068 237.732C53.4962 238.035 53.3409 238.495 53.3409 239.112C53.3409 239.752 53.481 240.254 53.7614 240.618C54.0417 240.982 54.3409 241.237 54.6591 241.385L54.2045 242.658C53.6742 242.43 53.2614 242.127 52.9659 241.749C52.6667 241.366 52.4583 240.949 52.3409 240.499C52.2197 240.044 52.1591 239.597 52.1591 239.158C52.1591 238.877 52.1932 238.555 52.2614 238.192C52.3257 237.824 52.4602 237.47 52.6648 237.129C52.8693 236.785 53.178 236.499 53.5909 236.271C54.0038 236.044 54.5568 235.93 55.25 235.93L61 235.93L61 237.271L59.8182 237.271L59.8182 237.34C60.0076 237.43 60.2102 237.582 60.4261 237.794C60.642 238.006 60.8257 238.288 60.9773 238.641C61.1288 238.993 61.2045 239.423 61.2045 239.93ZM60 239.726C60 239.196 59.8958 238.749 59.6875 238.385C59.4792 238.018 59.2102 237.741 58.8807 237.555C58.5511 237.366 58.2045 237.271 57.8409 237.271L56.6136 237.271C56.6818 237.328 56.7443 237.453 56.8011 237.646C56.8542 237.836 56.9015 238.055 56.9432 238.305C56.981 238.552 57.0151 238.792 57.0454 239.027C57.072 239.258 57.0947 239.446 57.1136 239.59C57.1591 239.938 57.2329 240.264 57.3352 240.567C57.4337 240.866 57.5833 241.109 57.7841 241.294C57.981 241.476 58.25 241.567 58.5909 241.567C59.0568 241.567 59.4091 241.395 59.6477 241.05C59.8826 240.701 60 240.26 60 239.726ZM52.2727 229.848L53.4091 229.848L53.4091 231.711L58.5 231.711C58.8788 231.711 59.1629 231.656 59.3523 231.546C59.5379 231.433 59.6629 231.289 59.7273 231.115C59.7879 230.937 59.8182 230.749 59.8182 230.552C59.8182 230.404 59.8106 230.283 59.7954 230.189C59.7765 230.094 59.7614 230.018 59.75 229.961L60.9545 229.689C60.9886 229.779 61.0227 229.906 61.0568 230.069C61.0947 230.232 61.1136 230.439 61.1136 230.689C61.1136 231.067 61.0322 231.439 60.8693 231.802C60.7064 232.162 60.4583 232.461 60.125 232.7C59.7917 232.935 59.3712 233.052 58.8636 233.052L53.4091 233.052L53.4091 234.37L52.2727 234.37L52.2727 233.052L50.1818 233.052L50.1818 231.711L52.2727 231.711L52.2727 229.848ZM61.1818 224.425C61.1818 225.266 60.9962 225.992 60.625 226.601C60.25 227.207 59.7273 227.675 59.0568 228.005C58.3826 228.331 57.5985 228.493 56.7045 228.493C55.8106 228.493 55.0227 228.331 54.3409 228.005C53.6553 227.675 53.1212 227.217 52.7386 226.63C52.3523 226.039 52.1591 225.349 52.1591 224.562C52.1591 224.107 52.2348 223.658 52.3863 223.215C52.5379 222.772 52.7841 222.368 53.125 222.005C53.4621 221.641 53.9091 221.351 54.4659 221.135C55.0227 220.92 55.7083 220.812 56.5227 220.812L57.0909 220.812L57.0909 227.147C58.0227 227.117 58.7367 226.853 59.2329 226.357C59.7292 225.857 59.9773 225.213 59.9773 224.425C59.9773 223.899 59.8636 223.446 59.6364 223.067C59.4091 222.688 59.0682 222.414 58.6136 222.243L58.9773 220.948C59.6364 221.152 60.1685 221.562 60.5739 222.175C60.9792 222.789 61.1818 223.539 61.1818 224.425ZM55.9318 227.147L55.9318 222.175C55.1932 222.175 54.5814 222.391 54.0966 222.823C53.6079 223.255 53.3636 223.834 53.3636 224.562C53.3636 225.073 53.4829 225.516 53.7216 225.891C53.9602 226.266 54.2765 226.562 54.6704 226.777C55.0606 226.993 55.481 227.117 55.9318 227.147Z" fill="black"/>
<path d="M555.585 462V450.364H559.517C560.426 450.364 561.172 450.519 561.755 450.83C562.339 451.136 562.77 451.559 563.051 452.097C563.331 452.634 563.471 453.246 563.471 453.932C563.471 454.705 563.293 455.379 562.937 455.955C562.585 456.527 562.037 456.939 561.295 457.193L563.926 462H562.289L559.835 457.449C559.74 457.453 559.642 457.455 559.539 457.455H556.994V462H555.585ZM556.994 456.182H559.494C560.426 456.182 561.09 455.981 561.488 455.58C561.886 455.178 562.085 454.629 562.085 453.932C562.085 453.231 561.884 452.67 561.482 452.25C561.085 451.826 560.414 451.614 559.471 451.614H556.994V456.182ZM568.773 462.159C568.008 462.159 567.348 462.019 566.795 461.739C566.242 461.458 565.816 461.074 565.517 460.585C565.218 460.097 565.068 459.538 565.068 458.909C565.068 458.205 565.28 457.61 565.705 457.125C566.133 456.636 566.686 456.155 567.364 455.682C566.962 455.201 566.634 454.744 566.381 454.312C566.127 453.877 566 453.402 566 452.886C566 452.102 566.256 451.468 566.767 450.983C567.282 450.494 567.966 450.25 568.818 450.25C569.402 450.25 569.903 450.364 570.324 450.591C570.744 450.814 571.068 451.112 571.295 451.483C571.523 451.85 571.636 452.25 571.636 452.682C571.636 453.239 571.498 453.722 571.222 454.131C570.945 454.54 570.568 454.92 570.091 455.273L569.239 455.909L571.767 458.994C571.919 458.703 572.036 458.383 572.119 458.034C572.206 457.682 572.25 457.307 572.25 456.909H573.545C573.545 457.72 573.445 458.375 573.244 458.875C573.047 459.371 572.839 459.759 572.619 460.04L574.227 462H572.614L571.79 461.011C571.411 461.398 570.947 461.686 570.398 461.875C569.848 462.064 569.307 462.159 568.773 462.159ZM570.989 460.04L568.205 456.682L567.773 457C567.25 457.386 566.896 457.761 566.71 458.125C566.525 458.489 566.432 458.75 566.432 458.909C566.432 459.273 566.527 459.612 566.716 459.926C566.905 460.241 567.172 460.494 567.517 460.688C567.862 460.881 568.265 460.977 568.727 460.977C569.572 460.977 570.326 460.665 570.989 460.04ZM568.415 454.909L569.182 454.341C569.511 454.125 569.775 453.894 569.972 453.648C570.172 453.402 570.273 453.08 570.273 452.682C570.273 452.386 570.142 452.1 569.881 451.824C569.623 451.547 569.284 451.409 568.864 451.409C568.568 451.409 568.307 451.485 568.08 451.636C567.856 451.784 567.68 451.973 567.551 452.205C567.426 452.432 567.364 452.667 567.364 452.909C567.364 453.231 567.468 453.559 567.676 453.892C567.884 454.222 568.131 454.561 568.415 454.909ZM579.324 462H575.733V450.364H579.483C580.612 450.364 581.578 450.597 582.381 451.062C583.184 451.525 583.8 452.189 584.228 453.057C584.656 453.92 584.87 454.955 584.87 456.159C584.87 457.371 584.654 458.415 584.222 459.29C583.79 460.161 583.161 460.831 582.336 461.301C581.51 461.767 580.506 462 579.324 462ZM577.143 460.75H579.233C580.677 460.75 581.749 460.341 582.449 459.523C583.154 458.701 583.506 457.58 583.506 456.159C583.506 454.75 583.161 453.64 582.472 452.83C581.783 452.019 580.756 451.614 579.393 451.614H577.143V460.75Z" fill="black"/>
<path d="M718.922 454C718.676 453.235 718.27 452.631 717.706 452.188C717.145 451.744 716.444 451.523 715.604 451.523C714.914 451.523 714.287 451.701 713.723 452.057C713.159 452.413 712.71 452.938 712.376 453.631C712.043 454.324 711.876 455.174 711.876 456.182C711.876 457.189 712.045 458.04 712.382 458.733C712.719 459.426 713.176 459.951 713.751 460.307C714.327 460.663 714.975 460.841 715.694 460.841C716.35 460.841 716.929 460.703 717.433 460.426C717.941 460.146 718.338 459.752 718.626 459.244C718.914 458.733 719.066 458.129 719.081 457.432H716.013V456.182H720.444V457.432C720.444 458.39 720.24 459.223 719.831 459.932C719.426 460.64 718.865 461.189 718.149 461.58C717.437 461.966 716.619 462.159 715.694 462.159C714.664 462.159 713.759 461.917 712.979 461.432C712.202 460.947 711.596 460.258 711.16 459.364C710.729 458.47 710.513 457.409 710.513 456.182C710.513 454.955 710.729 453.894 711.16 453C711.596 452.106 712.196 451.417 712.962 450.932C713.73 450.447 714.611 450.205 715.604 450.205C716.422 450.205 717.164 450.366 717.831 450.688C718.498 451.006 719.052 451.451 719.496 452.023C719.939 452.591 720.232 453.25 720.376 454H718.922ZM722.516 462V453.273H723.811V454.591H723.902C724.058 454.159 724.344 453.809 724.76 453.54C725.177 453.271 725.649 453.136 726.175 453.136C726.418 453.136 726.63 453.165 726.811 453.222C726.993 453.278 727.152 453.356 727.289 453.455L726.834 454.591C726.74 454.542 726.628 454.504 726.499 454.477C726.374 454.447 726.228 454.432 726.061 454.432C725.425 454.432 724.899 454.627 724.482 455.017C724.065 455.403 723.857 455.89 723.857 456.477V462H722.516ZM731.065 462.205C730.512 462.205 730.01 462.1 729.559 461.892C729.108 461.68 728.75 461.375 728.485 460.977C728.22 460.576 728.088 460.091 728.088 459.523C728.088 459.023 728.186 458.617 728.383 458.307C728.58 457.992 728.843 457.746 729.173 457.568C729.502 457.39 729.866 457.258 730.264 457.17C730.665 457.08 731.069 457.008 731.474 456.955C732.004 456.886 732.434 456.835 732.764 456.801C733.097 456.763 733.339 456.701 733.491 456.614C733.646 456.527 733.724 456.375 733.724 456.159V456.114C733.724 455.553 733.571 455.117 733.264 454.807C732.961 454.496 732.5 454.341 731.883 454.341C731.243 454.341 730.741 454.481 730.377 454.761C730.014 455.042 729.758 455.341 729.61 455.659L728.338 455.205C728.565 454.674 728.868 454.261 729.247 453.966C729.629 453.667 730.046 453.458 730.497 453.341C730.951 453.22 731.398 453.159 731.838 453.159C732.118 453.159 732.44 453.193 732.803 453.261C733.171 453.326 733.525 453.46 733.866 453.665C734.211 453.869 734.497 454.178 734.724 454.591C734.951 455.004 735.065 455.557 735.065 456.25V462H733.724V460.818H733.656C733.565 461.008 733.413 461.21 733.201 461.426C732.989 461.642 732.707 461.826 732.355 461.977C732.002 462.129 731.572 462.205 731.065 462.205ZM731.269 461C731.8 461 732.247 460.896 732.61 460.688C732.978 460.479 733.254 460.21 733.44 459.881C733.629 459.551 733.724 459.205 733.724 458.841V457.614C733.667 457.682 733.542 457.744 733.349 457.801C733.16 457.854 732.94 457.902 732.69 457.943C732.444 457.981 732.203 458.015 731.968 458.045C731.737 458.072 731.55 458.095 731.406 458.114C731.057 458.159 730.731 458.233 730.428 458.335C730.129 458.434 729.887 458.583 729.701 458.784C729.519 458.981 729.428 459.25 729.428 459.591C729.428 460.057 729.601 460.409 729.946 460.648C730.294 460.883 730.735 461 731.269 461ZM741.239 453.273V454.409H739.284V462H737.943V454.409H736.534V453.273H737.943V452.068C737.943 451.568 738.061 451.152 738.295 450.818C738.53 450.485 738.835 450.235 739.21 450.068C739.585 449.902 739.981 449.818 740.398 449.818C740.727 449.818 740.996 449.845 741.205 449.898C741.413 449.951 741.568 450 741.67 450.045L741.284 451.205C741.216 451.182 741.121 451.153 741 451.119C740.883 451.085 740.727 451.068 740.534 451.068C740.091 451.068 739.771 451.18 739.574 451.403C739.381 451.627 739.284 451.955 739.284 452.386V453.273H741.239ZM745.167 462.205C744.614 462.205 744.112 462.1 743.661 461.892C743.21 461.68 742.852 461.375 742.587 460.977C742.322 460.576 742.189 460.091 742.189 459.523C742.189 459.023 742.288 458.617 742.485 458.307C742.682 457.992 742.945 457.746 743.275 457.568C743.604 457.39 743.968 457.258 744.366 457.17C744.767 457.08 745.17 457.008 745.576 456.955C746.106 456.886 746.536 456.835 746.866 456.801C747.199 456.763 747.441 456.701 747.593 456.614C747.748 456.527 747.826 456.375 747.826 456.159V456.114C747.826 455.553 747.672 455.117 747.366 454.807C747.063 454.496 746.602 454.341 745.985 454.341C745.345 454.341 744.843 454.481 744.479 454.761C744.116 455.042 743.86 455.341 743.712 455.659L742.439 455.205C742.667 454.674 742.97 454.261 743.349 453.966C743.731 453.667 744.148 453.458 744.599 453.341C745.053 453.22 745.5 453.159 745.939 453.159C746.22 453.159 746.542 453.193 746.905 453.261C747.273 453.326 747.627 453.46 747.968 453.665C748.313 453.869 748.599 454.178 748.826 454.591C749.053 455.004 749.167 455.557 749.167 456.25V462H747.826V460.818H747.758C747.667 461.008 747.515 461.21 747.303 461.426C747.091 461.642 746.809 461.826 746.456 461.977C746.104 462.129 745.674 462.205 745.167 462.205ZM745.371 461C745.902 461 746.349 460.896 746.712 460.688C747.08 460.479 747.356 460.21 747.542 459.881C747.731 459.551 747.826 459.205 747.826 458.841V457.614C747.769 457.682 747.644 457.744 747.451 457.801C747.261 457.854 747.042 457.902 746.792 457.943C746.545 457.981 746.305 458.015 746.07 458.045C745.839 458.072 745.652 458.095 745.508 458.114C745.159 458.159 744.833 458.233 744.53 458.335C744.231 458.434 743.989 458.583 743.803 458.784C743.621 458.981 743.53 459.25 743.53 459.591C743.53 460.057 743.703 460.409 744.047 460.648C744.396 460.883 744.837 461 745.371 461ZM752.795 456.75V462H751.454V453.273H752.75V454.636H752.863C753.068 454.193 753.378 453.837 753.795 453.568C754.212 453.295 754.75 453.159 755.409 453.159C756.291 453.159 757.003 453.43 757.545 453.972C758.091 454.513 758.363 455.341 758.363 456.455V462H757.022V456.545C757.022 455.86 756.844 455.326 756.488 454.943C756.132 454.557 755.644 454.364 755.022 454.364C754.382 454.364 753.85 454.572 753.426 454.989C753.005 455.402 752.795 455.989 752.795 456.75ZM763.222 462.205C762.669 462.205 762.167 462.1 761.716 461.892C761.265 461.68 760.907 461.375 760.642 460.977C760.377 460.576 760.244 460.091 760.244 459.523C760.244 459.023 760.343 458.617 760.54 458.307C760.737 457.992 761 457.746 761.33 457.568C761.659 457.39 762.023 457.258 762.421 457.17C762.822 457.08 763.225 457.008 763.631 456.955C764.161 456.886 764.591 456.835 764.921 456.801C765.254 456.763 765.496 456.701 765.648 456.614C765.803 456.527 765.881 456.375 765.881 456.159V456.114C765.881 455.553 765.727 455.117 765.421 454.807C765.118 454.496 764.657 454.341 764.04 454.341C763.4 454.341 762.898 454.481 762.534 454.761C762.171 455.042 761.915 455.341 761.767 455.659L760.494 455.205C760.722 454.674 761.025 454.261 761.404 453.966C761.786 453.667 762.203 453.458 762.654 453.341C763.108 453.22 763.555 453.159 763.994 453.159C764.275 453.159 764.597 453.193 764.96 453.261C765.328 453.326 765.682 453.46 766.023 453.665C766.368 453.869 766.654 454.178 766.881 454.591C767.108 455.004 767.222 455.557 767.222 456.25V462H765.881V460.818H765.813C765.722 461.008 765.57 461.21 765.358 461.426C765.146 461.642 764.864 461.826 764.511 461.977C764.159 462.129 763.729 462.205 763.222 462.205ZM763.426 461C763.957 461 764.404 460.896 764.767 460.688C765.135 460.479 765.411 460.21 765.597 459.881C765.786 459.551 765.881 459.205 765.881 458.841V457.614C765.824 457.682 765.699 457.744 765.506 457.801C765.316 457.854 765.097 457.902 764.847 457.943C764.6 457.981 764.36 458.015 764.125 458.045C763.894 458.072 763.707 458.095 763.563 458.114C763.214 458.159 762.888 458.233 762.585 458.335C762.286 458.434 762.044 458.583 761.858 458.784C761.676 458.981 761.585 459.25 761.585 459.591C761.585 460.057 761.758 460.409 762.102 460.648C762.451 460.883 762.892 461 763.426 461Z" fill="black"/>
<line x1="138" y1="101.25" x2="834" y2="101.25" stroke="#D8D8DF" stroke-width="1.5"/>
<path d="M93.5682 185L98.7727 174.705V174.614H92.7727V173.364H100.227V174.682L95.0455 185H93.5682ZM105.665 185.159C104.999 185.159 104.398 185.027 103.864 184.761C103.33 184.496 102.902 184.133 102.58 183.67C102.258 183.208 102.082 182.682 102.052 182.091H103.415C103.468 182.617 103.707 183.053 104.131 183.398C104.559 183.739 105.071 183.909 105.665 183.909C106.143 183.909 106.567 183.797 106.938 183.574C107.313 183.35 107.607 183.044 107.819 182.653C108.035 182.259 108.143 181.814 108.143 181.318C108.143 180.811 108.031 180.358 107.807 179.96C107.588 179.559 107.285 179.242 106.898 179.011C106.512 178.78 106.071 178.663 105.574 178.659C105.218 178.655 104.853 178.71 104.478 178.824C104.103 178.934 103.794 179.076 103.552 179.25L102.233 179.091L102.938 173.364H108.983V174.614H104.12L103.711 178.045H103.779C104.018 177.856 104.317 177.699 104.677 177.574C105.036 177.449 105.411 177.386 105.802 177.386C106.514 177.386 107.148 177.557 107.705 177.898C108.266 178.235 108.705 178.697 109.023 179.284C109.345 179.871 109.506 180.542 109.506 181.295C109.506 182.038 109.34 182.701 109.006 183.284C108.677 183.864 108.222 184.322 107.643 184.659C107.063 184.992 106.404 185.159 105.665 185.159ZM117.535 182.818V182.205C117.535 181.78 117.622 181.392 117.796 181.04C117.975 180.684 118.232 180.4 118.569 180.188C118.91 179.972 119.323 179.864 119.808 179.864C120.3 179.864 120.713 179.972 121.046 180.188C121.38 180.4 121.632 180.684 121.802 181.04C121.973 181.392 122.058 181.78 122.058 182.205V182.818C122.058 183.242 121.971 183.633 121.796 183.989C121.626 184.341 121.372 184.625 121.035 184.841C120.702 185.053 120.293 185.159 119.808 185.159C119.315 185.159 118.901 185.053 118.564 184.841C118.226 184.625 117.971 184.341 117.796 183.989C117.622 183.633 117.535 183.242 117.535 182.818ZM111.74 176.159V175.545C111.74 175.121 111.827 174.733 112.001 174.381C112.179 174.025 112.437 173.741 112.774 173.528C113.115 173.312 113.528 173.205 114.012 173.205C114.505 173.205 114.918 173.312 115.251 173.528C115.584 173.741 115.836 174.025 116.007 174.381C116.177 174.733 116.262 175.121 116.262 175.545V176.159C116.262 176.583 116.175 176.973 116.001 177.33C115.831 177.682 115.577 177.966 115.24 178.182C114.906 178.394 114.497 178.5 114.012 178.5C113.52 178.5 113.105 178.394 112.768 178.182C112.431 177.966 112.175 177.682 112.001 177.33C111.827 176.973 111.74 176.583 111.74 176.159ZM112.171 185L120.171 173.364H121.467L113.467 185H112.171ZM118.694 182.205V182.818C118.694 183.17 118.778 183.487 118.944 183.767C119.111 184.044 119.399 184.182 119.808 184.182C120.206 184.182 120.486 184.044 120.649 183.767C120.815 183.487 120.899 183.17 120.899 182.818V182.205C120.899 181.852 120.819 181.538 120.66 181.261C120.501 180.981 120.217 180.841 119.808 180.841C119.41 180.841 119.124 180.981 118.95 181.261C118.779 181.538 118.694 181.852 118.694 182.205ZM112.899 175.545V176.159C112.899 176.511 112.982 176.828 113.149 177.108C113.315 177.384 113.603 177.523 114.012 177.523C114.41 177.523 114.69 177.384 114.853 177.108C115.02 176.828 115.103 176.511 115.103 176.159V175.545C115.103 175.193 115.024 174.879 114.865 174.602C114.706 174.322 114.421 174.182 114.012 174.182C113.615 174.182 113.329 174.322 113.154 174.602C112.984 174.879 112.899 175.193 112.899 175.545Z" fill="#454554"/>
<line x1="138" y1="178.25" x2="834" y2="178.25" stroke="#D8D8DF" stroke-width="1.5"/>
<path d="M96.8409 276.159C96.1742 276.159 95.5739 276.027 95.0398 275.761C94.5057 275.496 94.0777 275.133 93.7557 274.67C93.4337 274.208 93.2576 273.682 93.2273 273.091H94.5909C94.6439 273.617 94.8826 274.053 95.3068 274.398C95.7348 274.739 96.2462 274.909 96.8409 274.909C97.3182 274.909 97.7424 274.797 98.1136 274.574C98.4886 274.35 98.7822 274.044 98.9943 273.653C99.2102 273.259 99.3182 272.814 99.3182 272.318C99.3182 271.811 99.2064 271.358 98.983 270.96C98.7633 270.559 98.4602 270.242 98.0739 270.011C97.6875 269.78 97.2462 269.663 96.75 269.659C96.3939 269.655 96.0284 269.71 95.6534 269.824C95.2784 269.934 94.9697 270.076 94.7273 270.25L93.4091 270.091L94.1136 264.364H100.159V265.614H95.2955L94.8864 269.045H94.9545C95.1932 268.856 95.4924 268.699 95.8523 268.574C96.2121 268.449 96.5871 268.386 96.9773 268.386C97.6894 268.386 98.3239 268.557 98.8807 268.898C99.4413 269.235 99.8807 269.697 100.199 270.284C100.521 270.871 100.682 271.542 100.682 272.295C100.682 273.038 100.515 273.701 100.182 274.284C99.8523 274.864 99.3977 275.322 98.8182 275.659C98.2386 275.992 97.5795 276.159 96.8409 276.159ZM106.574 276.159C105.29 276.159 104.294 275.638 103.586 274.597C102.881 273.555 102.529 272.083 102.529 270.182C102.529 268.295 102.885 266.828 103.597 265.778C104.309 264.729 105.302 264.205 106.574 264.205C107.847 264.205 108.84 264.729 109.552 265.778C110.264 266.828 110.62 268.295 110.62 270.182C110.62 272.083 110.266 273.555 109.557 274.597C108.853 275.638 107.858 276.159 106.574 276.159ZM106.574 274.909C107.423 274.909 108.082 274.5 108.552 273.682C109.021 272.864 109.256 271.697 109.256 270.182C109.256 268.67 109.019 267.502 108.546 266.676C108.072 265.847 107.415 265.432 106.574 265.432C105.733 265.432 105.076 265.847 104.603 266.676C104.129 267.502 103.893 268.67 103.893 270.182C103.893 271.697 104.127 272.864 104.597 273.682C105.071 274.5 105.73 274.909 106.574 274.909ZM118.551 273.818V273.205C118.551 272.78 118.638 272.392 118.812 272.04C118.99 271.684 119.248 271.4 119.585 271.188C119.926 270.972 120.339 270.864 120.823 270.864C121.316 270.864 121.729 270.972 122.062 271.188C122.395 271.4 122.647 271.684 122.818 272.04C122.988 272.392 123.073 272.78 123.073 273.205V273.818C123.073 274.242 122.986 274.633 122.812 274.989C122.642 275.341 122.388 275.625 122.051 275.841C121.717 276.053 121.308 276.159 120.823 276.159C120.331 276.159 119.916 276.053 119.579 275.841C119.242 275.625 118.986 275.341 118.812 274.989C118.638 274.633 118.551 274.242 118.551 273.818ZM112.755 267.159V266.545C112.755 266.121 112.842 265.733 113.017 265.381C113.195 265.025 113.452 264.741 113.789 264.528C114.13 264.312 114.543 264.205 115.028 264.205C115.52 264.205 115.933 264.312 116.267 264.528C116.6 264.741 116.852 265.025 117.022 265.381C117.193 265.733 117.278 266.121 117.278 266.545V267.159C117.278 267.583 117.191 267.973 117.017 268.33C116.846 268.682 116.592 268.966 116.255 269.182C115.922 269.394 115.513 269.5 115.028 269.5C114.536 269.5 114.121 269.394 113.784 269.182C113.447 268.966 113.191 268.682 113.017 268.33C112.842 267.973 112.755 267.583 112.755 267.159ZM113.187 276L121.187 264.364H122.483L114.483 276H113.187ZM119.71 273.205V273.818C119.71 274.17 119.793 274.487 119.96 274.767C120.126 275.044 120.414 275.182 120.823 275.182C121.221 275.182 121.501 275.044 121.664 274.767C121.831 274.487 121.914 274.17 121.914 273.818V273.205C121.914 272.852 121.835 272.538 121.676 272.261C121.517 271.981 121.233 271.841 120.823 271.841C120.426 271.841 120.14 271.981 119.966 272.261C119.795 272.538 119.71 272.852 119.71 273.205ZM113.914 266.545V267.159C113.914 267.511 113.998 267.828 114.164 268.108C114.331 268.384 114.619 268.523 115.028 268.523C115.426 268.523 115.706 268.384 115.869 268.108C116.036 267.828 116.119 267.511 116.119 267.159V266.545C116.119 266.193 116.039 265.879 115.88 265.602C115.721 265.322 115.437 265.182 115.028 265.182C114.63 265.182 114.344 265.322 114.17 265.602C114 265.879 113.914 266.193 113.914 266.545Z" fill="#454554"/>
<line x1="138" y1="269.25" x2="834" y2="269.25" stroke="#D8D8DF" stroke-width="1.5"/>
<path d="M93.2045 367V365.977L97.0455 361.773C97.4962 361.28 97.8674 360.852 98.1591 360.489C98.4508 360.121 98.6667 359.777 98.8068 359.455C98.9508 359.129 99.0227 358.788 99.0227 358.432C99.0227 357.818 98.8087 357.331 98.3807 356.972C97.9564 356.612 97.428 356.432 96.7955 356.432C96.1212 356.432 95.5852 356.634 95.1875 357.04C94.7898 357.441 94.5909 357.973 94.5909 358.636H93.25C93.25 357.955 93.4072 357.356 93.7216 356.841C94.036 356.326 94.464 355.924 95.0057 355.636C95.5511 355.348 96.1629 355.205 96.8409 355.205C97.5227 355.205 98.1269 355.348 98.6534 355.636C99.1799 355.924 99.5928 356.312 99.892 356.801C100.191 357.29 100.341 357.833 100.341 358.432C100.341 358.86 100.263 359.278 100.108 359.688C99.9564 360.093 99.6913 360.545 99.3125 361.045C98.9375 361.542 98.4167 362.148 97.75 362.864L95.1364 365.659V365.75H100.545V367H93.2045ZM106.368 367.159C105.702 367.159 105.101 367.027 104.567 366.761C104.033 366.496 103.605 366.133 103.283 365.67C102.961 365.208 102.785 364.682 102.755 364.091H104.118C104.171 364.617 104.41 365.053 104.834 365.398C105.262 365.739 105.774 365.909 106.368 365.909C106.846 365.909 107.27 365.797 107.641 365.574C108.016 365.35 108.31 365.044 108.522 364.653C108.738 364.259 108.846 363.814 108.846 363.318C108.846 362.811 108.734 362.358 108.51 361.96C108.291 361.559 107.988 361.242 107.601 361.011C107.215 360.78 106.774 360.663 106.278 360.659C105.921 360.655 105.556 360.71 105.181 360.824C104.806 360.934 104.497 361.076 104.255 361.25L102.937 361.091L103.641 355.364H109.687V356.614H104.823L104.414 360.045H104.482C104.721 359.856 105.02 359.699 105.38 359.574C105.74 359.449 106.115 359.386 106.505 359.386C107.217 359.386 107.851 359.557 108.408 359.898C108.969 360.235 109.408 360.697 109.726 361.284C110.048 361.871 110.209 362.542 110.209 363.295C110.209 364.038 110.043 364.701 109.709 365.284C109.38 365.864 108.925 366.322 108.346 366.659C107.766 366.992 107.107 367.159 106.368 367.159ZM118.238 364.818V364.205C118.238 363.78 118.325 363.392 118.5 363.04C118.678 362.684 118.935 362.4 119.272 362.188C119.613 361.972 120.026 361.864 120.511 361.864C121.003 361.864 121.416 361.972 121.75 362.188C122.083 362.4 122.335 362.684 122.505 363.04C122.676 363.392 122.761 363.78 122.761 364.205V364.818C122.761 365.242 122.674 365.633 122.5 365.989C122.329 366.341 122.075 366.625 121.738 366.841C121.405 367.053 120.996 367.159 120.511 367.159C120.019 367.159 119.604 367.053 119.267 366.841C118.93 366.625 118.674 366.341 118.5 365.989C118.325 365.633 118.238 365.242 118.238 364.818ZM112.443 358.159V357.545C112.443 357.121 112.53 356.733 112.704 356.381C112.882 356.025 113.14 355.741 113.477 355.528C113.818 355.312 114.231 355.205 114.716 355.205C115.208 355.205 115.621 355.312 115.954 355.528C116.287 355.741 116.539 356.025 116.71 356.381C116.88 356.733 116.966 357.121 116.966 357.545V358.159C116.966 358.583 116.878 358.973 116.704 359.33C116.534 359.682 116.28 359.966 115.943 360.182C115.609 360.394 115.2 360.5 114.716 360.5C114.223 360.5 113.808 360.394 113.471 360.182C113.134 359.966 112.878 359.682 112.704 359.33C112.53 358.973 112.443 358.583 112.443 358.159ZM112.875 367L120.875 355.364H122.17L114.17 367H112.875ZM119.397 364.205V364.818C119.397 365.17 119.481 365.487 119.647 365.767C119.814 366.044 120.102 366.182 120.511 366.182C120.909 366.182 121.189 366.044 121.352 365.767C121.519 365.487 121.602 365.17 121.602 364.818V364.205C121.602 363.852 121.522 363.538 121.363 363.261C121.204 362.981 120.92 362.841 120.511 362.841C120.113 362.841 119.827 362.981 119.653 363.261C119.483 363.538 119.397 363.852 119.397 364.205ZM113.602 357.545V358.159C113.602 358.511 113.685 358.828 113.852 359.108C114.019 359.384 114.306 359.523 114.716 359.523C115.113 359.523 115.394 359.384 115.556 359.108C115.723 358.828 115.806 358.511 115.806 358.159V357.545C115.806 357.193 115.727 356.879 115.568 356.602C115.409 356.322 115.125 356.182 114.716 356.182C114.318 356.182 114.032 356.322 113.858 356.602C113.687 356.879 113.602 357.193 113.602 357.545Z" fill="#454554"/>
<line x1="138" y1="360.25" x2="834" y2="360.25" stroke="#D8D8DF" stroke-width="1.5"/>
<path d="M700 162C700 159.239 702.239 157 705 157H772C774.761 157 777 159.239 777 162V438H700V162Z" fill="url(#paint0_radial)"/>
<path d="M531 171C531 168.239 533.239 166 536 166H603C605.761 166 608 168.239 608 171V438H531V171Z" fill="url(#paint1_radial)"/>
<path d="M362 156C362 153.239 364.239 151 367 151H434C436.761 151 439 153.239 439 156V438H362V156Z" fill="url(#paint2_radial)"/>
<path d="M193 164C193 161.239 195.239 159 198 159H265C267.761 159 270 161.239 270 164V438H193V164Z" fill="url(#paint3_radial)"/>
<path d="M220.625 151.159C219.811 151.159 219.091 151.019 218.466 150.739C217.845 150.455 217.358 150.068 217.006 149.58C216.654 149.087 216.479 148.527 216.483 147.898C216.479 147.409 216.58 146.958 216.784 146.545C216.993 146.129 217.275 145.78 217.631 145.5C217.987 145.22 218.385 145.042 218.824 144.966V144.898C218.248 144.761 217.784 144.453 217.432 143.972C217.084 143.487 216.911 142.932 216.915 142.307C216.911 141.712 217.068 141.182 217.387 140.716C217.709 140.25 218.15 139.883 218.71 139.614C219.271 139.341 219.909 139.205 220.625 139.205C221.337 139.205 221.972 139.341 222.529 139.614C223.085 139.883 223.525 140.25 223.847 140.716C224.169 141.182 224.332 141.712 224.335 142.307C224.332 142.936 224.154 143.491 223.801 143.972C223.449 144.453 222.991 144.761 222.426 144.898V144.966C222.862 145.042 223.256 145.22 223.608 145.5C223.96 145.78 224.241 146.129 224.449 146.545C224.657 146.958 224.763 147.409 224.767 147.898C224.763 148.527 224.584 149.087 224.227 149.58C223.875 150.068 223.388 150.455 222.767 150.739C222.146 151.019 221.432 151.159 220.625 151.159ZM220.625 149.722C221.345 149.722 221.917 149.545 222.341 149.193C222.769 148.837 222.985 148.367 222.989 147.784C222.985 147.178 222.76 146.682 222.313 146.295C221.866 145.905 221.303 145.71 220.625 145.71C219.94 145.71 219.373 145.905 218.926 146.295C218.479 146.682 218.258 147.178 218.262 147.784C218.258 148.367 218.468 148.837 218.892 149.193C219.32 149.545 219.898 149.722 220.625 149.722ZM220.625 144.307C221.205 144.307 221.682 144.136 222.057 143.795C222.432 143.455 222.621 143.008 222.625 142.455C222.621 141.909 222.434 141.472 222.063 141.142C221.695 140.809 221.216 140.642 220.625 140.642C220.023 140.642 219.538 140.809 219.171 141.142C218.803 141.472 218.621 141.909 218.625 142.455C218.621 143.008 218.807 143.455 219.182 143.795C219.557 144.136 220.038 144.307 220.625 144.307ZM226.643 151V149.727L230.58 145.648C230.997 145.205 231.344 144.816 231.62 144.483C231.897 144.146 232.103 143.826 232.239 143.523C232.376 143.22 232.444 142.898 232.444 142.557C232.444 141.977 232.245 141.519 231.847 141.182C231.45 140.841 230.955 140.67 230.364 140.67C229.736 140.67 229.234 140.86 228.859 141.239C228.487 141.614 228.304 142.114 228.308 142.739H226.631C226.631 142.03 226.794 141.411 227.12 140.881C227.446 140.35 227.893 139.939 228.461 139.648C229.029 139.352 229.675 139.205 230.398 139.205C231.129 139.205 231.773 139.35 232.33 139.642C232.891 139.93 233.328 140.324 233.643 140.824C233.957 141.32 234.114 141.881 234.114 142.506C234.114 142.938 234.033 143.36 233.87 143.773C233.711 144.186 233.433 144.646 233.035 145.153C232.641 145.657 232.088 146.269 231.376 146.989L229.063 149.409V149.494H234.302V151H226.643ZM242.369 148.818V148.205C242.373 147.765 242.466 147.364 242.648 147C242.833 146.633 243.102 146.339 243.454 146.119C243.807 145.896 244.235 145.784 244.738 145.784C245.254 145.784 245.685 145.894 246.034 146.114C246.386 146.333 246.651 146.627 246.829 146.994C247.007 147.362 247.096 147.765 247.096 148.205V148.818C247.096 149.254 247.005 149.655 246.824 150.023C246.642 150.39 246.375 150.686 246.023 150.909C245.674 151.129 245.246 151.239 244.738 151.239C244.227 151.239 243.795 151.129 243.443 150.909C243.091 150.686 242.824 150.39 242.642 150.023C242.464 149.655 242.373 149.254 242.369 148.818ZM236.517 142.159V141.545C236.517 141.106 236.61 140.703 236.795 140.335C236.981 139.968 237.25 139.674 237.602 139.455C237.954 139.235 238.382 139.125 238.886 139.125C239.401 139.125 239.833 139.235 240.182 139.455C240.53 139.674 240.793 139.968 240.971 140.335C241.153 140.703 241.242 141.106 241.238 141.545V142.159C241.242 142.598 241.153 143.002 240.971 143.369C240.79 143.737 240.523 144.03 240.17 144.25C239.822 144.47 239.394 144.58 238.886 144.58C238.375 144.58 237.943 144.47 237.591 144.25C237.238 144.027 236.971 143.731 236.79 143.364C236.608 142.996 236.517 142.595 236.517 142.159ZM236.994 151L244.994 139.364H246.352L238.352 151H236.994ZM243.693 148.205V148.818C243.697 149.14 243.774 149.436 243.926 149.705C244.081 149.97 244.352 150.102 244.738 150.102C245.121 150.102 245.388 149.97 245.54 149.705C245.691 149.439 245.767 149.144 245.767 148.818V148.205C245.767 147.879 245.693 147.583 245.545 147.318C245.401 147.053 245.132 146.92 244.738 146.92C244.36 146.92 244.091 147.053 243.932 147.318C243.776 147.583 243.697 147.879 243.693 148.205ZM237.846 141.545V142.159C237.846 142.485 237.922 142.78 238.074 143.045C238.229 143.311 238.5 143.443 238.886 143.443C239.269 143.443 239.536 143.311 239.687 143.045C239.839 142.78 239.915 142.485 239.915 142.159V141.545C239.915 141.22 239.841 140.924 239.693 140.659C239.549 140.394 239.28 140.261 238.886 140.261C238.507 140.261 238.238 140.394 238.079 140.659C237.924 140.924 237.846 141.22 237.846 141.545Z" fill="black"/>
<path d="M389.571 143.159C388.756 143.159 388.036 143.019 387.411 142.739C386.79 142.455 386.303 142.068 385.951 141.58C385.599 141.087 385.425 140.527 385.428 139.898C385.425 139.409 385.525 138.958 385.73 138.545C385.938 138.129 386.22 137.78 386.576 137.5C386.932 137.22 387.33 137.042 387.769 136.966V136.898C387.194 136.761 386.73 136.453 386.377 135.972C386.029 135.487 385.856 134.932 385.86 134.307C385.856 133.712 386.014 133.182 386.332 132.716C386.654 132.25 387.095 131.883 387.656 131.614C388.216 131.341 388.855 131.205 389.571 131.205C390.283 131.205 390.917 131.341 391.474 131.614C392.031 131.883 392.47 132.25 392.792 132.716C393.114 133.182 393.277 133.712 393.281 134.307C393.277 134.936 393.099 135.491 392.747 135.972C392.394 136.453 391.936 136.761 391.372 136.898V136.966C391.807 137.042 392.201 137.22 392.553 137.5C392.906 137.78 393.186 138.129 393.394 138.545C393.603 138.958 393.709 139.409 393.713 139.898C393.709 140.527 393.529 141.087 393.173 141.58C392.821 142.068 392.334 142.455 391.713 142.739C391.091 143.019 390.377 143.159 389.571 143.159ZM389.571 141.722C390.29 141.722 390.862 141.545 391.286 141.193C391.714 140.837 391.93 140.367 391.934 139.784C391.93 139.178 391.705 138.682 391.258 138.295C390.811 137.905 390.249 137.71 389.571 137.71C388.885 137.71 388.319 137.905 387.872 138.295C387.425 138.682 387.203 139.178 387.207 139.784C387.203 140.367 387.413 140.837 387.838 141.193C388.266 141.545 388.843 141.722 389.571 141.722ZM389.571 136.307C390.15 136.307 390.627 136.136 391.002 135.795C391.377 135.455 391.567 135.008 391.571 134.455C391.567 133.909 391.379 133.472 391.008 133.142C390.641 132.809 390.161 132.642 389.571 132.642C388.968 132.642 388.483 132.809 388.116 133.142C387.749 133.472 387.567 133.909 387.571 134.455C387.567 135.008 387.752 135.455 388.127 135.795C388.502 136.136 388.983 136.307 389.571 136.307ZM399.429 143.159C398.717 143.159 398.077 143.023 397.509 142.75C396.944 142.473 396.493 142.095 396.156 141.614C395.819 141.133 395.639 140.583 395.616 139.966H397.321C397.366 140.466 397.588 140.877 397.986 141.199C398.387 141.521 398.868 141.682 399.429 141.682C399.876 141.682 400.272 141.58 400.616 141.375C400.965 141.167 401.238 140.881 401.435 140.517C401.635 140.153 401.736 139.739 401.736 139.273C401.736 138.799 401.634 138.379 401.429 138.011C401.224 137.64 400.942 137.348 400.582 137.136C400.226 136.92 399.817 136.811 399.355 136.807C399.003 136.807 398.649 136.867 398.293 136.989C397.937 137.11 397.649 137.269 397.429 137.466L395.821 137.227L396.474 131.364H402.872V132.869H397.935L397.565 136.125H397.634C397.861 135.902 398.162 135.718 398.537 135.574C398.916 135.426 399.321 135.352 399.753 135.352C400.461 135.352 401.092 135.521 401.645 135.858C402.202 136.191 402.639 136.652 402.957 137.239C403.279 137.822 403.438 138.489 403.435 139.239C403.438 139.992 403.268 140.665 402.923 141.256C402.582 141.847 402.109 142.312 401.503 142.653C400.901 142.991 400.209 143.159 399.429 143.159ZM411.424 140.818V140.205C411.428 139.765 411.52 139.364 411.702 139C411.888 138.633 412.157 138.339 412.509 138.119C412.861 137.896 413.289 137.784 413.793 137.784C414.308 137.784 414.74 137.894 415.089 138.114C415.441 138.333 415.706 138.627 415.884 138.994C416.062 139.362 416.151 139.765 416.151 140.205V140.818C416.151 141.254 416.06 141.655 415.878 142.023C415.697 142.39 415.429 142.686 415.077 142.909C414.729 143.129 414.301 143.239 413.793 143.239C413.282 143.239 412.85 143.129 412.498 142.909C412.145 142.686 411.878 142.39 411.697 142.023C411.519 141.655 411.428 141.254 411.424 140.818ZM405.572 134.159V133.545C405.572 133.106 405.664 132.703 405.85 132.335C406.036 131.968 406.304 131.674 406.657 131.455C407.009 131.235 407.437 131.125 407.941 131.125C408.456 131.125 408.888 131.235 409.236 131.455C409.585 131.674 409.848 131.968 410.026 132.335C410.208 132.703 410.297 133.106 410.293 133.545V134.159C410.297 134.598 410.208 135.002 410.026 135.369C409.844 135.737 409.577 136.03 409.225 136.25C408.876 136.47 408.448 136.58 407.941 136.58C407.429 136.58 406.998 136.47 406.645 136.25C406.293 136.027 406.026 135.731 405.844 135.364C405.662 134.996 405.572 134.595 405.572 134.159ZM406.049 143L414.049 131.364H415.407L407.407 143H406.049ZM412.748 140.205V140.818C412.751 141.14 412.829 141.436 412.981 141.705C413.136 141.97 413.407 142.102 413.793 142.102C414.176 142.102 414.443 141.97 414.594 141.705C414.746 141.439 414.822 141.144 414.822 140.818V140.205C414.822 139.879 414.748 139.583 414.6 139.318C414.456 139.053 414.187 138.92 413.793 138.92C413.414 138.92 413.145 139.053 412.986 139.318C412.831 139.583 412.751 139.879 412.748 140.205ZM406.901 133.545V134.159C406.901 134.485 406.977 134.78 407.128 135.045C407.284 135.311 407.554 135.443 407.941 135.443C408.323 135.443 408.59 135.311 408.742 135.045C408.894 134.78 408.969 134.485 408.969 134.159V133.545C408.969 133.22 408.895 132.924 408.748 132.659C408.604 132.394 408.335 132.261 407.941 132.261C407.562 132.261 407.293 132.394 407.134 132.659C406.979 132.924 406.901 133.22 406.901 133.545Z" fill="black"/>
<path d="M559.914 158.159C559.1 158.159 558.38 158.019 557.755 157.739C557.134 157.455 556.647 157.068 556.295 156.58C555.943 156.087 555.768 155.527 555.772 154.898C555.768 154.409 555.869 153.958 556.073 153.545C556.282 153.129 556.564 152.78 556.92 152.5C557.276 152.22 557.674 152.042 558.113 151.966V151.898C557.537 151.761 557.073 151.453 556.721 150.972C556.373 150.487 556.2 149.932 556.204 149.307C556.2 148.712 556.357 148.182 556.676 147.716C556.998 147.25 557.439 146.883 557.999 146.614C558.56 146.341 559.198 146.205 559.914 146.205C560.626 146.205 561.261 146.341 561.818 146.614C562.374 146.883 562.814 147.25 563.136 147.716C563.458 148.182 563.621 148.712 563.624 149.307C563.621 149.936 563.443 150.491 563.09 150.972C562.738 151.453 562.28 151.761 561.715 151.898V151.966C562.151 152.042 562.545 152.22 562.897 152.5C563.249 152.78 563.53 153.129 563.738 153.545C563.946 153.958 564.053 154.409 564.056 154.898C564.053 155.527 563.873 156.087 563.517 156.58C563.164 157.068 562.678 157.455 562.056 157.739C561.435 158.019 560.721 158.159 559.914 158.159ZM559.914 156.722C560.634 156.722 561.206 156.545 561.63 156.193C562.058 155.837 562.274 155.367 562.278 154.784C562.274 154.178 562.049 153.682 561.602 153.295C561.155 152.905 560.592 152.71 559.914 152.71C559.229 152.71 558.662 152.905 558.215 153.295C557.768 153.682 557.547 154.178 557.551 154.784C557.547 155.367 557.757 155.837 558.181 156.193C558.609 156.545 559.187 156.722 559.914 156.722ZM559.914 151.307C560.494 151.307 560.971 151.136 561.346 150.795C561.721 150.455 561.91 150.008 561.914 149.455C561.91 148.909 561.723 148.472 561.352 148.142C560.984 147.809 560.505 147.642 559.914 147.642C559.312 147.642 558.827 147.809 558.46 148.142C558.092 148.472 557.91 148.909 557.914 149.455C557.91 150.008 558.096 150.455 558.471 150.795C558.846 151.136 559.327 151.307 559.914 151.307ZM570.023 146.364V158H568.261V148.733H568.165C568.07 148.903 567.807 149.091 567.375 149.295C566.943 149.496 566.398 149.597 565.739 149.597V148.153C566.163 148.153 566.536 148.078 566.858 147.926C567.184 147.775 567.456 147.593 567.676 147.381C567.896 147.165 568.064 146.962 568.182 146.773C568.303 146.58 568.371 146.443 568.386 146.364H570.023ZM579.08 155.818V155.205C579.084 154.765 579.177 154.364 579.358 154C579.544 153.633 579.813 153.339 580.165 153.119C580.518 152.896 580.946 152.784 581.449 152.784C581.965 152.784 582.396 152.894 582.745 153.114C583.097 153.333 583.362 153.627 583.54 153.994C583.718 154.362 583.807 154.765 583.807 155.205V155.818C583.807 156.254 583.716 156.655 583.535 157.023C583.353 157.39 583.086 157.686 582.733 157.909C582.385 158.129 581.957 158.239 581.449 158.239C580.938 158.239 580.506 158.129 580.154 157.909C579.802 157.686 579.535 157.39 579.353 157.023C579.175 156.655 579.084 156.254 579.08 155.818ZM573.228 149.159V148.545C573.228 148.106 573.321 147.703 573.506 147.335C573.692 146.968 573.961 146.674 574.313 146.455C574.665 146.235 575.093 146.125 575.597 146.125C576.112 146.125 576.544 146.235 576.893 146.455C577.241 146.674 577.504 146.968 577.682 147.335C577.864 147.703 577.953 148.106 577.949 148.545V149.159C577.953 149.598 577.864 150.002 577.682 150.369C577.501 150.737 577.233 151.03 576.881 151.25C576.533 151.47 576.105 151.58 575.597 151.58C575.086 151.58 574.654 151.47 574.302 151.25C573.949 151.027 573.682 150.731 573.501 150.364C573.319 149.996 573.228 149.595 573.228 149.159ZM573.705 158L581.705 146.364H583.063L575.063 158H573.705ZM580.404 155.205V155.818C580.408 156.14 580.485 156.436 580.637 156.705C580.792 156.97 581.063 157.102 581.449 157.102C581.832 157.102 582.099 156.97 582.251 156.705C582.402 156.439 582.478 156.144 582.478 155.818V155.205C582.478 154.879 582.404 154.583 582.256 154.318C582.112 154.053 581.843 153.92 581.449 153.92C581.071 153.92 580.802 154.053 580.643 154.318C580.487 154.583 580.408 154.879 580.404 155.205ZM574.557 148.545V149.159C574.557 149.485 574.633 149.78 574.785 150.045C574.94 150.311 575.211 150.443 575.597 150.443C575.98 150.443 576.247 150.311 576.398 150.045C576.55 149.78 576.626 149.485 576.626 149.159V148.545C576.626 148.22 576.552 147.924 576.404 147.659C576.26 147.394 575.991 147.261 575.597 147.261C575.218 147.261 574.949 147.394 574.79 147.659C574.635 147.924 574.557 148.22 574.557 148.545Z" fill="black"/>
<path d="M727.375 149.159C726.561 149.159 725.841 149.019 725.216 148.739C724.595 148.455 724.108 148.068 723.756 147.58C723.404 147.087 723.229 146.527 723.233 145.898C723.229 145.409 723.33 144.958 723.534 144.545C723.743 144.129 724.025 143.78 724.381 143.5C724.737 143.22 725.135 143.042 725.574 142.966V142.898C724.998 142.761 724.534 142.453 724.182 141.972C723.834 141.487 723.661 140.932 723.665 140.307C723.661 139.712 723.818 139.182 724.137 138.716C724.459 138.25 724.9 137.883 725.46 137.614C726.021 137.341 726.659 137.205 727.375 137.205C728.087 137.205 728.722 137.341 729.279 137.614C729.835 137.883 730.275 138.25 730.597 138.716C730.919 139.182 731.082 139.712 731.085 140.307C731.082 140.936 730.904 141.491 730.551 141.972C730.199 142.453 729.741 142.761 729.176 142.898V142.966C729.612 143.042 730.006 143.22 730.358 143.5C730.71 143.78 730.991 144.129 731.199 144.545C731.407 144.958 731.513 145.409 731.517 145.898C731.513 146.527 731.334 147.087 730.977 147.58C730.625 148.068 730.138 148.455 729.517 148.739C728.896 149.019 728.182 149.159 727.375 149.159ZM727.375 147.722C728.095 147.722 728.667 147.545 729.091 147.193C729.519 146.837 729.735 146.367 729.739 145.784C729.735 145.178 729.51 144.682 729.063 144.295C728.616 143.905 728.053 143.71 727.375 143.71C726.69 143.71 726.123 143.905 725.676 144.295C725.229 144.682 725.008 145.178 725.012 145.784C725.008 146.367 725.218 146.837 725.642 147.193C726.07 147.545 726.648 147.722 727.375 147.722ZM727.375 142.307C727.955 142.307 728.432 142.136 728.807 141.795C729.182 141.455 729.371 141.008 729.375 140.455C729.371 139.909 729.184 139.472 728.813 139.142C728.445 138.809 727.966 138.642 727.375 138.642C726.773 138.642 726.288 138.809 725.921 139.142C725.553 139.472 725.371 139.909 725.375 140.455C725.371 141.008 725.557 141.455 725.932 141.795C726.307 142.136 726.788 142.307 727.375 142.307ZM737.444 149.159C736.66 149.159 735.963 149.025 735.353 148.756C734.743 148.487 734.26 148.114 733.904 147.636C733.552 147.155 733.362 146.598 733.336 145.966H735.12C735.154 146.481 735.391 146.89 735.83 147.193C736.27 147.496 736.804 147.648 737.433 147.648C738.118 147.648 738.681 147.473 739.12 147.125C739.563 146.773 739.785 146.314 739.785 145.75C739.785 145.163 739.561 144.686 739.114 144.318C738.671 143.947 738.046 143.761 737.239 143.761H736.256V142.33H737.239C737.883 142.33 738.41 142.159 738.819 141.818C739.228 141.477 739.431 141.027 739.427 140.466C739.431 139.928 739.253 139.494 738.893 139.165C738.537 138.835 738.061 138.67 737.467 138.67C736.895 138.67 736.391 138.824 735.955 139.131C735.523 139.434 735.298 139.852 735.279 140.386H733.58C733.599 139.754 733.785 139.199 734.137 138.722C734.493 138.244 734.963 137.873 735.546 137.608C736.129 137.339 736.777 137.205 737.489 137.205C738.236 137.205 738.881 137.35 739.427 137.642C739.972 137.934 740.393 138.32 740.688 138.801C740.984 139.278 741.129 139.803 741.126 140.375C741.129 141.027 740.95 141.58 740.586 142.034C740.222 142.489 739.736 142.794 739.126 142.949V143.04C739.898 143.157 740.497 143.464 740.921 143.96C741.349 144.456 741.561 145.072 741.558 145.807C741.561 146.451 741.385 147.027 741.029 147.534C740.673 148.038 740.184 148.436 739.563 148.727C738.942 149.015 738.236 149.159 737.444 149.159ZM749.619 146.818V146.205C749.623 145.765 749.716 145.364 749.898 145C750.083 144.633 750.352 144.339 750.704 144.119C751.057 143.896 751.485 143.784 751.988 143.784C752.504 143.784 752.935 143.894 753.284 144.114C753.636 144.333 753.901 144.627 754.079 144.994C754.257 145.362 754.346 145.765 754.346 146.205V146.818C754.346 147.254 754.255 147.655 754.074 148.023C753.892 148.39 753.625 148.686 753.273 148.909C752.924 149.129 752.496 149.239 751.988 149.239C751.477 149.239 751.045 149.129 750.693 148.909C750.341 148.686 750.074 148.39 749.892 148.023C749.714 147.655 749.623 147.254 749.619 146.818ZM743.767 140.159V139.545C743.767 139.106 743.86 138.703 744.045 138.335C744.231 137.968 744.5 137.674 744.852 137.455C745.204 137.235 745.632 137.125 746.136 137.125C746.651 137.125 747.083 137.235 747.432 137.455C747.78 137.674 748.043 137.968 748.221 138.335C748.403 138.703 748.492 139.106 748.488 139.545V140.159C748.492 140.598 748.403 141.002 748.221 141.369C748.04 141.737 747.773 142.03 747.42 142.25C747.072 142.47 746.644 142.58 746.136 142.58C745.625 142.58 745.193 142.47 744.841 142.25C744.488 142.027 744.221 141.731 744.04 141.364C743.858 140.996 743.767 140.595 743.767 140.159ZM744.244 149L752.244 137.364H753.602L745.602 149H744.244ZM750.943 146.205V146.818C750.947 147.14 751.024 147.436 751.176 147.705C751.331 147.97 751.602 148.102 751.988 148.102C752.371 148.102 752.638 147.97 752.79 147.705C752.941 147.439 753.017 147.144 753.017 146.818V146.205C753.017 145.879 752.943 145.583 752.795 145.318C752.651 145.053 752.382 144.92 751.988 144.92C751.61 144.92 751.341 145.053 751.182 145.318C751.026 145.583 750.947 145.879 750.943 146.205ZM745.096 139.545V140.159C745.096 140.485 745.172 140.78 745.324 141.045C745.479 141.311 745.75 141.443 746.136 141.443C746.519 141.443 746.786 141.311 746.937 141.045C747.089 140.78 747.165 140.485 747.165 140.159V139.545C747.165 139.22 747.091 138.924 746.943 138.659C746.799 138.394 746.53 138.261 746.136 138.261C745.757 138.261 745.488 138.394 745.329 138.659C745.174 138.924 745.096 139.22 745.096 139.545Z" fill="black"/>
<line x1="138" y1="438.25" x2="834" y2="438.25" stroke="#D8D8DF" stroke-width="1.5"/>
<defs>
<filter id="filter0_d" x="0" y="0" width="894" height="565" filterUnits="userSpaceOnUse" color-interpolation-filters="sRGB">
<feFlood flood-opacity="0" result="BackgroundImageFix"/>
<feColorMatrix in="SourceAlpha" type="matrix" values="0 0 0 0 0 0 0 0 0 0 0 0 0 0 0 0 0 0 127 0"/>
<feOffset dy="10"/>
<feGaussianBlur stdDeviation="15"/>
<feColorMatrix type="matrix" values="0 0 0 0 0 0 0 0 0 0 0 0 0 0 0 0 0 0 0.07 0"/>
<feBlend mode="normal" in2="BackgroundImageFix" result="effect1_dropShadow"/>
<feBlend mode="normal" in="SourceGraphic" in2="effect1_dropShadow" result="shape"/>
</filter>
<radialGradient id="paint0_radial" cx="0" cy="0" r="1" gradientUnits="userSpaceOnUse" gradientTransform="translate(683.5 134.766) rotate(66.4677) scale(351.895 94.8152)">
<stop stop-color="#F2639F"/>
<stop offset="1" stop-color="#CE64CE"/>
</radialGradient>
<radialGradient id="paint1_radial" cx="0" cy="0" r="1" gradientUnits="userSpaceOnUse" gradientTransform="translate(526 145.958) rotate(72.3847) scale(346.964 162.967)">
<stop stop-color="#FB755A"/>
<stop offset="1" stop-color="#FB5A67"/>
</radialGradient>
<radialGradient id="paint2_radial" cx="0" cy="0" r="1" gradientUnits="userSpaceOnUse" gradientTransform="translate(357 129.853) rotate(73.2525) scale(364.388 163.732)">
<stop stop-color="#FB9D5A"/>
<stop offset="1" stop-color="#FB755A"/>
</radialGradient>
<radialGradient id="paint3_radial" cx="0" cy="0" r="1" gradientUnits="userSpaceOnUse" gradientTransform="translate(188 138.442) rotate(72.8002) scale(355.085 163.338)">
<stop stop-color="#FBC55A"/>
<stop offset="1" stop-color="#FB9D5A"/>
</radialGradient>
</defs>
</svg>

