<svg width="40" height="40" viewBox="0 0 40 40" fill="none" xmlns="http://www.w3.org/2000/svg">
<circle cx="20" cy="20" r="20" fill="#FDE5D4"/>
<path d="M18.5 25.5C17.7 25.5 17 24.8 17 24V22.5H15.5C14.7 22.5 14 21.8 14 21V18C14 17.2 14.7 16.5 15.5 16.5H17V15C17 14.2 17.7 13.5 18.5 13.5H21.5C22.3 13.5 23 14.2 23 15V16.5H24.5C25.3 16.5 26 17.2 26 18V21C26 21.8 25.3 22.5 24.5 22.5H23V24C23 24.8 22.3 25.5 21.5 25.5H18.5ZM17.8 21C18.2 21 18.6 21.3 18.6 21.8V24H21.6V21.8C21.6 21.4 21.9 21 22.4 21H24.6V18H22.4C22 18 21.6 17.7 21.6 17.2V15H18.6V17.2C18.6 17.6 18.3 18 17.8 18H15.5V21H17.8Z" fill="#FB9D5A"/>
<path d="M19.9996 33C19.4996 33 19.0996 32.9 18.6996 32.8L17.6996 32.4C12.7996 30.5 9.59961 25.8 9.59961 20.6V12.9C9.59961 12 10.0996 11.2 10.8996 10.9C13.6996 9.6 16.6996 9 19.7996 9H19.9996H20.1996C23.2996 9 26.2996 9.6 29.1996 10.9C29.9996 11.2 30.4996 12 30.4996 12.9V20.5C30.4996 25.7 27.1996 30.4 22.3996 32.3L21.3996 32.7C20.8996 32.9 20.4996 33 19.9996 33ZM19.7996 10.5C16.8996 10.5 14.0996 11.1 11.3996 12.2C11.1996 12.4 10.9996 12.6 10.9996 12.9V20.5C10.9996 25.1 13.8996 29.3 18.1996 30.9L19.1996 31.3C19.4996 31.4 19.6996 31.5 19.9996 31.5C20.2996 31.5 20.4996 31.4 20.7996 31.4L21.7996 31C26.0996 29.4 28.9996 25.2 28.9996 20.6V12.9C28.9996 12.6 28.7996 12.3 28.5996 12.2C25.9996 11 23.0996 10.5 20.1996 10.5H19.9996H19.7996Z" fill="#FB9D5A"/>
<path d="M17.8 21C18.2 21 18.6 21.3 18.6 21.8V24H21.6V21.8C21.6 21.4 21.9 21 22.4 21H24.6V18H22.4C22 18 21.6 17.7 21.6 17.2V15H18.6V17.2C18.6 17.6 18.3 18 17.8 18H15.5V21H17.8Z" fill="#FDD9BE"/>
</svg>
