<svg width="40" height="40" viewBox="0 0 40 40" fill="none" xmlns="http://www.w3.org/2000/svg">
<circle cx="20" cy="20" r="20" fill="#E0DAFC"/>
<g clip-path="url(#clip0)">
<circle cx="20" cy="17" r="5" fill="#CEC6F6"/>
<path d="M19.9555 22.0166C22.5526 22.0166 24.6123 19.8166 24.6123 17.2499C24.6123 14.6833 22.5526 12.3916 19.9555 12.3916C17.3585 12.3916 15.2988 14.5916 15.2988 17.2499C15.2988 19.9083 17.3585 22.0166 19.9555 22.0166Z" stroke="#9584EB" stroke-width="1.5" stroke-linecap="round" stroke-linejoin="round"/>
<path d="M15.9258 14.7749C18.1646 17.1582 21.6571 17.8916 24.6123 16.6082" stroke="#9584EB" stroke-width="1.5" stroke-linecap="round" stroke-linejoin="round"/>
<path d="M16.6426 24.7666V25.4999C16.6426 27.4249 18.165 28.9833 20.0456 28.9833C21.9262 28.9833 23.4485 27.4249 23.4485 25.4999V24.7666" stroke="#9584EB" stroke-width="1.5" stroke-linecap="round" stroke-linejoin="round"/>
<path d="M28.2837 30.2667C27.1195 26.6 23.8061 24.125 19.9553 24.125C16.1941 24.125 12.7911 26.6 11.627 30.2667" stroke="#9584EB" stroke-width="1.5" stroke-linecap="round" stroke-linejoin="round"/>
<path d="M12.613 18.6249C12.613 18.9916 12.8816 19.3583 13.3294 19.3583H15.2996V15.1416H13.2399C12.8816 15.1416 12.5234 15.4166 12.5234 15.8749V18.6249H12.613Z" stroke="#9584EB" stroke-width="1.5" stroke-linecap="round" stroke-linejoin="round"/>
<path d="M26.6713 19.2666H24.7012V15.1416H26.6713C27.0295 15.1416 27.3877 15.4166 27.3877 15.8749V18.6249C27.3877 18.9916 27.0295 19.2666 26.6713 19.2666Z" stroke="#9584EB" stroke-width="1.5" stroke-linecap="round" stroke-linejoin="round"/>
<path d="M25.9551 15.1416C25.5969 12.0249 22.9999 9.6416 19.9551 9.6416C16.9103 9.6416 14.3133 12.0249 13.9551 15.1416" stroke="#9584EB" stroke-width="1.5" stroke-linecap="round" stroke-linejoin="round"/>
</g>
<defs>
<clipPath id="clip0">
<rect width="18" height="22" fill="white" transform="translate(11 9)"/>
</clipPath>
</defs>
</svg>
