<svg width="40" height="40" viewBox="0 0 40 40" fill="none" xmlns="http://www.w3.org/2000/svg">
<circle cx="20" cy="20" r="20" fill="#FFDED8"/>
<rect x="18" y="18" width="12" height="14" fill="#FDC9BE"/>
<path d="M22.375 27.75C22.9963 27.75 23.5 27.2463 23.5 26.625C23.5 26.0037 22.9963 25.5 22.375 25.5C21.7537 25.5 21.25 26.0037 21.25 26.625C21.25 27.2463 21.7537 27.75 22.375 27.75Z" fill="#FB755A"/>
<path d="M26.125 27.75C26.7463 27.75 27.25 27.2463 27.25 26.625C27.25 26.0037 26.7463 25.5 26.125 25.5C25.5037 25.5 25 26.0037 25 26.625C25 27.2463 25.5037 27.75 26.125 27.75Z" fill="#FB755A"/>
<path d="M22.375 30.75C22.9963 30.75 23.5 30.2463 23.5 29.625C23.5 29.0037 22.9963 28.5 22.375 28.5C21.7537 28.5 21.25 29.0037 21.25 29.625C21.25 30.2463 21.7537 30.75 22.375 30.75Z" fill="#FB755A"/>
<path d="M26.125 30.75C26.7463 30.75 27.25 30.2463 27.25 29.625C27.25 29.0037 26.7463 28.5 26.125 28.5C25.5037 28.5 25 29.0037 25 29.625C25 30.2463 25.5037 30.75 26.125 30.75Z" fill="#FB755A"/>
<path d="M21.68 24C21.109 24 20.502 23.556 20.502 22.732V20.75C20.502 19.929 21.095 19.5 21.681 19.5H26.823C27.409 19.5 28.002 19.929 28.002 20.75L28.001 22.75C28.001 23.562 27.394 24 26.822 24H21.68ZM26.501 22.5L26.502 21H22.002V22.5H26.501Z" fill="#FB755A"/>
<path d="M19.41 33C18.357 33 17.5 32.143 17.5 31.09V18.41C17.5 17.357 18.357 16.5 19.41 16.5H29.09C30.143 16.5 31 17.357 31 18.41V31.09C31 32.143 30.143 33 29.09 33H19.41ZM19.41 18C19.184 18 19 18.184 19 18.41V31.09C19 31.316 19.184 31.5 19.41 31.5H29.09C29.316 31.5 29.5 31.316 29.5 31.09V18.41C29.5 18.184 29.316 18 29.09 18H19.41Z" fill="#FB755A"/>
<path d="M11.125 14.25C11.7463 14.25 12.25 13.7463 12.25 13.125C12.25 12.5037 11.7463 12 11.125 12C10.5037 12 10 12.5037 10 13.125C10 13.7463 10.5037 14.25 11.125 14.25Z" fill="#FB755A"/>
<path d="M9.25 22.5C8.009 22.5 7 21.491 7 20.25V11.25C7 10.009 8.009 9 9.25 9H25.75C26.991 9 28 10.009 28 11.25V14.25C28 14.664 27.664 15 27.25 15C26.836 15 26.5 14.664 26.5 14.25V11.25C26.5 10.836 26.164 10.5 25.75 10.5H9.25C8.836 10.5 8.5 10.836 8.5 11.25V20.25C8.5 20.664 8.836 21 9.25 21H15.25C15.664 21 16 21.336 16 21.75C16 22.164 15.664 22.5 15.25 22.5H9.25Z" fill="#FB755A"/>
<path d="M14.9052 18.0061C14.6382 18.0061 14.3892 17.8621 14.2552 17.6311C13.7552 16.7641 13.6222 15.7531 13.8812 14.7851C14.1402 13.8171 14.7612 13.0091 15.6282 12.5081C16.1962 12.1801 16.8432 12.0061 17.4972 12.0061C18.8362 12.0061 20.0832 12.7241 20.7502 13.8811C20.7802 13.9331 20.8092 13.9861 20.8372 14.0411C21.0272 14.4081 20.8832 14.8611 20.5162 15.0521C20.4102 15.1071 20.2902 15.1361 20.1712 15.1361C19.8892 15.1361 19.6342 14.9811 19.5042 14.7311C19.4872 14.6981 19.4692 14.6651 19.4502 14.6321C19.0492 13.9381 18.3012 13.5071 17.4972 13.5071C17.1052 13.5071 16.7182 13.6111 16.3772 13.8081C15.8572 14.1081 15.4862 14.5931 15.3302 15.1741C15.1752 15.7551 15.2552 16.3611 15.5552 16.8811C15.6552 17.0541 15.6822 17.2561 15.6302 17.4501C15.5782 17.6441 15.4532 17.8051 15.2802 17.9061C15.1662 17.9711 15.0372 18.0061 14.9052 18.0061Z" fill="#FB755A"/>
</svg>
