<svg width="40" height="40" viewBox="0 0 40 40" fill="none" xmlns="http://www.w3.org/2000/svg">
<circle cx="20" cy="20" r="20" fill="#FFEDC9"/>
<g clip-path="url(#clip0)">
<path d="M30.5996 27.2998C29.1996 27.2998 27.8996 26.7998 26.7996 25.9998C25.7996 26.7998 24.6996 27.1998 23.3996 27.1998C22.5996 27.1998 21.8996 26.9998 21.1996 26.6998C20.9996 26.5998 20.8996 26.4998 20.7996 26.2998C20.6996 26.0998 20.6996 25.8998 20.7996 25.6998C20.8996 25.3998 21.1996 25.2998 21.4996 25.2998C21.5996 25.2998 21.6996 25.2998 21.7996 25.3998C22.2996 25.5998 22.7996 25.7998 23.2996 25.7998C24.3996 25.7998 25.3996 25.2998 26.0996 24.4998C26.1996 24.3998 26.3996 24.2998 26.5996 24.2998C26.7996 24.2998 26.9996 24.3998 27.0996 24.4998C27.9996 25.3998 29.1996 25.7998 30.3996 25.7998C30.5996 25.7998 30.7996 25.7998 30.9996 25.7998H31.0996C31.4996 25.7998 31.7996 26.0998 31.7996 26.4998C31.7996 26.6998 31.7996 26.8998 31.5996 27.0998C31.4996 27.2998 31.2996 27.3998 31.0996 27.3998C31.0996 27.2998 30.7996 27.2998 30.5996 27.2998Z" fill="#FBC55A"/>
<path d="M8.8 30.9999C8.3 30.9999 8 30.6999 8 30.2999C8 29.8999 8.3 29.4999 8.8 29.4999H11.8L16.1 15.8999L9.9 17.5999C9.8 17.5999 9.6 17.6999 9.5 17.6999C9.2 17.6999 9 17.5999 8.8 17.4999C8.4 17.2999 8.2 16.9999 8.1 16.5999C8 16.3999 8 16.0999 8 15.8999C8.3 13.5999 9.9 11.7999 12.1 11.1999L11.1 10.1999C10.9 9.8999 10.8 9.4999 10.8 9.0999C10.8 8.6999 11 8.2999 11.3 8.0999C11.5 7.8999 11.7 7.7999 12 7.6999C12.9 7.4999 13.8 7.3999 14.7 7.3999C14.7 7.3999 14.7 7.3999 14.8 7.3999C16.2 7.4999 17.6 8.1999 18.5 9.1999C18.8 8.7999 19.1 8.3999 19.5 8.0999C20.5 7.2999 21.7 6.8999 22.9 6.8999C23.8 6.8999 24.6 7.0999 25.4 7.4999C25.6 7.5999 25.7 7.6999 25.8 7.7999C26.1 8.0999 26.2 8.4999 26.2 8.8999C26.2 9.2999 26 9.6999 25.8 9.9999L23.7 12.0999C25.6 12.7999 27.1 14.4999 27.3 16.5999C27.3 16.7999 27.3 17.0999 27.2 17.2999C27 17.8999 26.4 18.2999 25.8 18.2999C25.6 18.2999 25.5 18.2999 25.3 18.1999L19.9 16.3999L19.2 29.3999H31.3C31.7 29.3999 32.1 29.6999 32.1 30.1999C32.1 30.6999 31.7 30.9999 31.2 30.9999H8.8ZM17.7 29.4999L18.4 15.9999L17.7 15.7999L13.3 29.4999H17.7ZM25.7 16.8999C25.7 16.7999 25.7 16.7999 25.7 16.8999C25.5 15.1999 24.3 13.7999 22.7 13.4999C22.3 13.3999 21.8 13.3999 21.4 13.3999C19.6 13.3999 18.7 14.1999 18.4 14.5999L25.7 16.8999ZM13.9 12.4999C13.5 12.4999 13 12.4999 12.6 12.5999C11 12.9999 9.8 14.3999 9.6 15.9999C9.6 15.9999 9.6 15.9999 9.6 16.0999L16.8 14.0999L17 13.8999C16.2 12.9999 15.2 12.4999 13.9 12.4999ZM14 10.9999C15.4 10.9999 16.7 11.4999 17.6 12.2999C17.6 11.9999 17.6 11.3999 17.8 10.7999C17.1 9.7999 15.9 9.0999 14.6 8.8999C13.8 8.8999 13 8.9999 12.3 9.1999L14 10.9999ZM22.8 8.4999C21.9 8.4999 21 8.7999 20.3 9.3999C19.8 9.7999 19.5 10.2999 19.3 10.9999C19.2 11.4999 19.1 11.8999 19.1 12.1999C19.8 11.8999 20.6 11.7999 21.4 11.7999C21.5 11.7999 21.7 11.7999 21.8 11.7999L24.7 8.8999C24.1 8.5999 23.5 8.4999 22.8 8.4999Z" fill="#FB9D5A"/>
<path d="M17.7008 29.5L18.4008 16L17.7008 15.8L13.3008 29.5H17.7008Z" fill="#FBC55A"/>
</g>
<defs>
<clipPath id="clip0">
<rect width="24" height="24" fill="white" transform="translate(8 7)"/>
</clipPath>
</defs>
</svg>
