<svg width="40" height="40" viewBox="0 0 40 40" fill="none" xmlns="http://www.w3.org/2000/svg">
<circle cx="20" cy="20" r="20" fill="#F3D4F3"/>
<path d="M8.69336 25.6521C9.07093 27.1307 10.4042 28.1956 11.9686 28.1956H28.8746C30.439 28.1956 31.7723 27.1307 32.1499 25.6521H8.69336Z" fill="#EABDEA"/>
<path d="M19.9997 22.4222C18.2977 22.4222 16.6608 21.7841 15.3901 20.6271C15.0586 20.3249 15.0347 19.8103 15.337 19.4799C15.4908 19.3109 15.7097 19.2145 15.9382 19.2145C16.1408 19.2145 16.3347 19.2892 16.4853 19.4257C17.4549 20.3097 18.704 20.7961 20.0007 20.7961C21.2975 20.7961 22.5466 20.3097 23.5162 19.4257C23.6657 19.2892 23.8596 19.2134 24.0632 19.2134C24.2907 19.2134 24.5096 19.3098 24.6634 19.4788C24.8097 19.6391 24.8855 19.8471 24.8747 20.0638C24.8638 20.2805 24.7707 20.4809 24.6103 20.6271C23.3385 21.7841 21.7016 22.4222 19.9997 22.4222Z" fill="#CE64CE"/>
<path d="M17.5625 17.5625C17.114 17.5625 16.75 17.1985 16.75 16.75V15.125C16.75 14.6765 17.114 14.3125 17.5625 14.3125C18.011 14.3125 18.375 14.6765 18.375 15.125V16.75C18.375 17.1985 18.011 17.5625 17.5625 17.5625Z" fill="#CE64CE"/>
<path d="M22.4375 17.5625C21.989 17.5625 21.625 17.1985 21.625 16.75V15.125C21.625 14.6765 21.989 14.3125 22.4375 14.3125C22.886 14.3125 23.25 14.6765 23.25 15.125V16.75C23.25 17.1985 22.886 17.5625 22.4375 17.5625Z" fill="#CE64CE"/>
<path d="M29.75 22.4375C29.3015 22.4375 28.9375 22.0735 28.9375 21.625V12.6875C28.9375 12.239 28.5735 11.875 28.125 11.875H11.875C11.4265 11.875 11.0625 12.239 11.0625 12.6875V21.625C11.0625 22.0735 10.6985 22.4375 10.25 22.4375C9.8015 22.4375 9.4375 22.0735 9.4375 21.625V12.6875C9.4375 11.3431 10.5306 10.25 11.875 10.25H28.125C29.4694 10.25 30.5625 11.3431 30.5625 12.6875V21.625C30.5625 22.0735 30.1985 22.4375 29.75 22.4375Z" fill="#CE64CE"/>
<path d="M11.875 29.75C9.18725 29.75 7 27.5628 7 24.875C7 24.4265 7.364 24.0625 7.8125 24.0625H32.1875C32.636 24.0625 33 24.4265 33 24.875C33 27.5628 30.8127 29.75 28.125 29.75H11.875ZM8.72683 25.6875C9.08975 27.1045 10.3713 28.125 11.875 28.125H28.125C29.6287 28.125 30.9103 27.1045 31.2732 25.6875H8.72683Z" fill="#CE64CE"/>
</svg>
