<svg width="40" height="40" viewBox="0 0 40 40" fill="none" xmlns="http://www.w3.org/2000/svg">
<circle cx="20" cy="20" r="20" fill="#FFD8DB"/>
<path d="M26.4992 32C26.3992 32 26.3992 32 26.2992 32C26.0992 31.9 25.8992 31.8 25.7992 31.7C25.6992 31.5 25.6992 31.3 25.6992 31.1L29.4992 16.9C29.5992 16.6 29.8992 16.3 30.1992 16.3C30.2992 16.3 30.2992 16.3 30.3992 16.3C30.7992 16.4 30.9992 16.8 30.8992 17.2L27.0992 31.4C27.0992 31.8 26.7992 32 26.4992 32Z" fill="#FB5A67"/>
<path d="M12.3001 22.2C12.2001 22.2 12.0001 22.2 11.9001 22.2L10.8001 21.9C9.80015 21.7 9.10015 20.7 9.40015 19.7L10.6001 14.9C10.8001 14.1 11.6001 13.5 12.4001 13.5C12.5001 13.5 12.7001 13.5 12.8001 13.5L13.9001 13.8C14.4001 13.9 14.8001 14.2 15.1001 14.6C15.4001 15 15.5001 15.5 15.3001 16L14.8001 17.8V17.9C14.8001 18 14.8001 18 14.7001 18.1L14.0001 20.8C13.9001 21.6 13.1001 22.2 12.3001 22.2ZM12.2001 20.7C12.5001 20.7 12.6001 20.6 12.7001 20.4L13.2001 18.3L11.3001 17.9L10.8001 20C10.8001 20.1 10.8001 20.2 10.9001 20.3C11.0001 20.4 11.0001 20.4 11.1001 20.5L12.2001 20.7ZM13.5001 16.9L13.8001 15.7C13.8001 15.6 13.8001 15.5 13.8001 15.4C13.7001 15.2 13.7001 15.2 13.6001 15.1L12.4001 14.9H12.3001C12.2001 14.9 12.0001 15 12.0001 15.2L11.6001 16.4L13.5001 16.9Z" fill="#FB5A67"/>
<path d="M21.9995 32C20.9995 32 20.1995 31.4 19.8995 30.5L18.8995 27.5L18.1995 30.3C17.8995 31.2999 16.9995 32 15.9995 32C15.7995 32 15.5995 32 15.4995 31.9C14.2995 31.6 13.5995 30.4 13.7995 29.2L16.7995 16.4C16.8995 15.9 17.1995 15.4 17.5995 15.1C17.9995 14.9 18.4995 14.7 18.9995 14.7C19.0995 14.7 19.1995 14.7 19.2995 14.7C19.8995 14.8 20.3995 15.1 20.7995 15.6C21.7995 16.8 23.3995 17.6 24.9995 17.7C26.1995 17.7 27.1995 18.7 27.1995 19.9C27.1995 21.1 26.1995 22.1 24.9995 22.1C23.3995 22.1 21.7995 21.7 20.3995 20.9L20.2995 21.3L21.5995 22.9C22.1995 23.7 22.6995 24.5 22.9995 25.4L24.1995 28.9C24.5995 30.1 23.9995 31.4 22.7995 31.7C22.4995 32 22.1995 32 21.9995 32ZM18.5995 24.5C18.7995 24.5 18.9995 24.6 19.1995 24.8L19.2995 24.9C19.6995 25.4 19.9995 25.9 20.1995 26.5L21.3995 30C21.4995 30.3 21.7995 30.5 22.0995 30.5C22.1995 30.5 22.2995 30.5 22.2995 30.5C22.6995 30.4 22.8995 29.9 22.7995 29.6L21.5995 26C21.2995 25.2 20.9995 24.5 20.4995 23.9L18.8995 22C18.7995 21.8 18.6995 21.6 18.7995 21.4L19.1995 19.7C19.2995 19.5 19.3995 19.3 19.6995 19.2C19.7995 19.2 19.8995 19.2 19.9995 19.2C20.1995 19.2 20.2995 19.2 20.3995 19.3C21.7995 20.3 23.3995 20.8 25.0995 20.8C25.4995 20.8 25.7995 20.5 25.7995 20C25.7995 19.6 25.4995 19.2 24.9995 19.2C22.8995 19.1 20.9995 18.1 19.6995 16.5C19.4995 16.3 19.2995 16.2 19.0995 16.2C18.8995 16.2 18.7995 16.3 18.6995 16.3C18.5995 16.4 18.4995 16.6 18.3995 16.7L15.3995 29.4C15.2995 29.8 15.5995 30.2 15.9995 30.3C16.0995 30.3 16.0995 30.3 16.1995 30.3C16.4995 30.3 16.7995 30.1 16.8995 29.7L17.9995 24.9C18.0995 24.6 18.2995 24.4 18.5995 24.3C18.4995 24.5 18.4995 24.5 18.5995 24.5Z" fill="#FB5A67"/>
<path d="M20.5 14C18.8 14 17.5 12.7 17.5 11C17.5 9.3 18.8 8 20.5 8C22.2 8 23.5 9.3 23.5 11C23.5 12.7 22.2 14 20.5 14ZM20.5 9.5C19.7 9.5 19 10.2 19 11C19 11.8 19.7 12.5 20.5 12.5C21.3 12.5 22 11.8 22 11C22 10.2 21.3 9.5 20.5 9.5Z" fill="#FB5A67"/>
<path d="M18.6002 24.5C18.8002 24.5 19.0002 24.6 19.2002 24.8L19.3002 24.9C19.7002 25.4 20.0002 25.9 20.2002 26.5L21.4002 30C21.5002 30.3 21.8002 30.5 22.1002 30.5C22.2002 30.5 22.3002 30.5 22.3002 30.5C22.7002 30.4 22.9002 29.9 22.8002 29.6L21.6002 26C21.3002 25.2 21.0002 24.5 20.5002 23.9L18.9002 22C18.8002 21.8 18.7002 21.6 18.8002 21.4L19.2002 19.7C19.3002 19.5 19.4002 19.3 19.7002 19.2C19.8002 19.2 19.9002 19.2 20.0002 19.2C20.2002 19.2 20.3002 19.2 20.4002 19.3C21.8002 20.3 23.4002 20.8 25.1002 20.8C25.5002 20.8 25.8002 20.5 25.8002 20C25.8002 19.6 25.5002 19.2 25.0002 19.2C22.9002 19.1 21.0002 18.1 19.7002 16.5C19.5002 16.3 19.3002 16.2 19.1002 16.2C18.9002 16.2 18.8002 16.3 18.7002 16.3C18.6002 16.4 18.5002 16.6 18.4002 16.7L15.4002 29.4C15.3002 29.8 15.6002 30.2 16.0002 30.3C16.1002 30.3 16.1002 30.3 16.2002 30.3C16.5002 30.3 16.8002 30.1 16.9002 29.7L18.0002 24.9C18.1002 24.6 18.3002 24.4 18.6002 24.3C18.5002 24.5 18.5002 24.5 18.6002 24.5Z" fill="#FDBEC4"/>
<path d="M20.5 12.5C21.3284 12.5 22 11.8284 22 11C22 10.1716 21.3284 9.5 20.5 9.5C19.6716 9.5 19 10.1716 19 11C19 11.8284 19.6716 12.5 20.5 12.5Z" fill="#FDBEC4"/>
</svg>
