<svg width="350" height="200" viewBox="0 0 350 200" fill="none" xmlns="http://www.w3.org/2000/svg">
<rect opacity="0.3" width="350" height="200" rx="40" fill="#9584EB"/>
<mask id="mask0" mask-type="alpha" maskUnits="userSpaceOnUse" x="0" y="0" width="350" height="200">
<rect width="350" height="200" rx="40" fill="#9584EB"/>
</mask>
<g mask="url(#mask0)">
<path d="M136.948 63.9609C141.793 59.2062 147.266 55.5281 153.592 52.9714C160.232 50.28 167.096 49.069 174.229 49.3381C184.862 49.6969 194.463 53.1059 202.942 59.5202C204.736 60.8659 206.352 62.4807 208.011 64.0057C207.832 64.23 207.697 64.4543 207.518 64.6337C200.788 71.362 194.059 78.0903 187.329 84.8634C171.493 100.697 155.701 116.486 139.864 132.32C138.922 133.262 137.98 134.294 137.038 135.281C136.544 135.684 136.051 136.088 135.602 136.537C123.893 148.244 112.228 159.906 100.519 171.613C89.2132 182.917 77.9076 194.22 66.602 205.524C66.3328 205.793 66.1085 206.107 65.8842 206.421C42.2412 206.421 18.643 206.421 -5 206.421C-5 206.241 -5 206.017 -5 205.838C-4.82055 205.748 -4.64109 205.703 -4.5065 205.569C-0.648249 201.711 3.16514 197.809 7.02339 193.996C11.9135 189.107 16.8485 184.218 21.7835 179.283C26.4493 174.619 31.0702 169.909 35.7808 165.244C40.7158 160.31 45.6508 155.421 50.5858 150.486C55.3413 145.732 60.1417 140.932 64.8972 136.178C69.6976 131.378 74.498 126.624 79.2535 121.824C84.2782 116.8 89.258 111.776 94.2827 106.798C96.6605 104.42 98.9934 102.043 101.371 99.6656C101.461 99.5759 101.551 99.4862 101.64 99.3965C112.004 89.0349 122.412 78.6285 132.776 68.267C134.166 66.8316 135.557 65.3962 136.948 63.9609Z" fill="#9584EB"/>
<path d="M136.948 63.9609C135.557 65.3962 134.166 66.7867 132.776 68.2221C122.412 78.5837 112.004 88.9901 101.64 99.3516C101.551 99.4413 101.461 99.531 101.371 99.6207C98.5448 96.7949 95.7184 93.9241 92.892 91.0982C85.3998 83.6074 77.9076 76.1166 70.4154 68.6258C68.89 67.1007 67.3198 65.5757 65.7496 64.0506C65.0318 63.288 64.2691 62.5255 63.5513 61.763C61.1735 59.3408 58.7509 56.9635 56.3732 54.5861C53.9954 52.2088 51.6176 49.8315 49.2399 47.4542C46.8621 45.0768 44.4395 42.6547 42.0617 40.2773C39.684 37.9 37.2613 35.4778 34.8836 33.1005C32.4161 30.6783 30.0383 28.301 27.6606 25.8788C25.2828 23.5015 22.8602 21.0793 20.4824 18.702C18.1047 16.3247 15.682 13.9025 13.3043 11.5252C10.8816 9.14786 8.50389 6.77054 6.12613 4.39321C3.74837 2.01589 1.32574 -0.406291 -1.05202 -2.78361C-2.35306 -4.12927 -3.69896 -5.38521 -5 -6.68601C-5 -6.77572 -5 -6.86543 -5 -7C-4.77568 -7 -4.55137 -7 -4.32705 -7C18.7327 -7 41.7477 -7 64.8075 -7C65.1664 -7 65.5253 -7 65.8393 -7C68.8003 -4.03956 71.8062 -1.07912 74.7672 1.88132C95.3146 22.425 115.907 43.0135 136.454 63.5572C136.634 63.7366 136.768 63.8263 136.948 63.9609Z" fill="#826EE3"/>
<path d="M65.7496 64.0507C67.3198 65.5757 68.89 67.1008 70.4154 68.6259C77.9076 76.1167 85.3998 83.6075 92.892 91.0983C95.7184 93.9242 98.5448 96.7949 101.371 99.6208C98.9934 101.998 96.6605 104.375 94.2827 106.753C89.258 111.777 84.2782 116.8 79.2535 121.779C74.4531 126.579 69.6527 131.333 64.8972 136.133C60.1417 140.888 55.3862 145.687 50.5858 150.442C45.6508 155.376 40.7158 160.265 35.7808 165.199C31.1151 169.864 26.4493 174.574 21.7835 179.239C16.8485 184.128 11.9135 189.017 7.02339 193.951C3.16514 197.809 -0.648249 201.666 -4.5065 205.524C-4.64109 205.658 -4.82055 205.703 -5 205.793C-5 182.109 -5 158.426 -5 134.787C-3.92328 133.711 -2.80169 132.679 -1.72497 131.603C8.8628 121.017 19.4506 110.386 30.0383 99.8002C30.0832 99.7554 30.1281 99.7554 30.1729 99.7105C40.2672 89.6181 50.4063 79.4808 60.5006 69.3884C62.2503 67.5942 63.9999 65.8449 65.7496 64.0507Z" fill="#A293ED"/>
<path d="M65.7496 64.0503C63.9999 65.8445 62.2503 67.5939 60.5006 69.3881C50.4063 79.4805 40.2672 89.6178 30.1729 99.7102C30.1281 99.755 30.0832 99.755 30.0383 99.7999C29.9037 99.5756 29.814 99.3065 29.6346 99.1271C29.1859 98.6336 28.6924 98.2299 28.2438 97.7365C23.3985 92.8922 18.5533 88.0478 13.708 83.2035C7.65148 77.148 1.59492 71.0926 -4.46164 65.0371C-4.55137 64.8577 -4.82055 64.768 -5 64.6334C-5 40.8602 -5 17.087 -5 -6.68628C-3.69896 -5.38548 -2.35306 -4.12953 -1.05202 -2.82874C1.3706 -0.451411 3.74837 1.97077 6.12613 4.34809C8.50389 6.72541 10.8816 9.10274 13.2594 11.4801C15.6372 13.8574 18.0598 16.2796 20.4376 18.6569C22.8153 21.0342 25.2379 23.4564 27.6157 25.8337C29.9935 28.211 32.3712 30.5884 34.749 32.9657C37.1267 35.343 39.5494 37.7652 41.9271 40.1425C44.3049 42.5198 46.7275 44.942 49.1053 47.3193C51.483 49.6967 53.8608 52.074 56.2386 54.4513C58.6163 56.8286 61.0389 59.2508 63.4167 61.6281C64.2691 62.5252 64.9869 63.2878 65.7496 64.0503Z" fill="#9584EB"/>
<path d="M350.228 63.9606C350.273 63.9158 350.273 63.9158 350.318 63.9158C350.318 87.689 350.318 111.462 350.318 135.235C349.286 136.177 348.344 137.209 347.267 138.016C344.979 139.721 342.646 141.47 340.223 142.995C336.993 145.059 333.404 146.584 329.725 147.66C327.303 148.378 324.835 148.782 322.368 149.32C319.182 149.993 315.997 149.948 312.767 149.903C309.851 149.813 306.98 149.41 304.153 148.827C300.609 148.064 297.199 146.943 293.88 145.462C290.425 143.893 287.195 141.964 284.234 139.631C282.664 138.42 281.183 137.03 279.703 135.729C279.568 135.594 279.433 135.415 279.344 135.28C279.523 135.011 279.703 134.742 279.927 134.518C303.166 111.238 326.45 88.003 349.69 64.768C349.824 64.454 350.004 64.1849 350.228 63.9606Z" fill="#826EE3"/>
<path d="M-5 64.6337C-4.82055 64.7682 -4.55137 64.8579 -4.41678 64.9925C1.63978 71.048 7.69635 77.1034 13.7529 83.1588C18.5982 88.0032 23.4434 92.8476 28.2887 97.6919C28.7373 98.1405 29.2308 98.589 29.6794 99.0824C29.8589 99.2619 29.9486 99.531 30.0832 99.7553C19.4506 110.386 8.86279 120.972 -1.72497 131.602C-2.80169 132.679 -3.92328 133.711 -5 134.787C-5 111.418 -5 88.0481 -5 64.6337Z" fill="#826EE3"/>
<path d="M137.037 135.235C137.979 134.249 138.877 133.262 139.863 132.275C155.7 116.441 171.492 100.652 187.329 84.8183C194.059 78.09 200.788 71.3618 207.518 64.5886C207.697 64.4092 207.832 64.1849 208.011 63.9606C209.85 62.3907 211.555 60.7759 213.484 59.3406C220.034 54.3616 227.392 51.2666 235.467 49.9658C246.594 48.1716 257.181 49.8761 267.141 55.0793C271.627 57.4118 275.62 60.3722 279.164 63.9606C279.03 64.1401 278.94 64.3195 278.761 64.4989C272.48 70.7786 266.199 77.0584 259.963 83.2932C251.08 92.1745 242.197 101.056 233.314 109.937C227.033 116.217 220.752 122.497 214.516 128.731C212.363 130.885 210.254 133.038 208.101 135.191C205.454 137.703 202.672 140.035 199.622 141.964C193.072 146.135 185.893 148.737 178.177 149.544C163.013 151.069 149.733 146.718 138.383 136.536C137.89 136.133 137.441 135.684 137.037 135.235Z" fill="#826EE3"/>
<path d="M208.102 135.236C210.255 133.083 212.364 130.93 214.517 128.777C220.798 122.497 227.079 116.217 233.315 109.983C242.198 101.101 251.081 92.2199 259.964 83.3385C266.245 77.0588 272.525 70.824 278.761 64.5442C278.896 64.4097 279.031 64.1854 279.165 64.006C281.678 61.9426 284.055 59.7447 286.702 57.9057C292.4 53.9136 298.771 51.4465 305.59 50.1457C310.39 49.2486 315.191 49.0692 320.036 49.6075C331.027 50.8185 340.673 55.1246 348.838 62.6155C349.332 63.064 349.78 63.5126 350.229 63.9611C350.049 64.2302 349.87 64.4994 349.646 64.7236C326.406 88.0035 303.122 111.238 279.883 134.473C279.659 134.698 279.524 134.967 279.3 135.236C277.505 136.761 275.8 138.376 273.916 139.811C267.232 144.88 259.784 148.065 251.484 149.321C238.429 151.249 226.361 148.603 215.369 141.247C212.722 139.497 210.3 137.479 208.102 135.236Z" fill="#9584EB"/>
</g>
</svg>
