<svg width="40" height="40" viewBox="0 0 40 40" fill="none" xmlns="http://www.w3.org/2000/svg">
<circle cx="20" cy="20" r="20" fill="#D0DEF9"/>
<g clip-path="url(#clip0)">
<path d="M27.5 15.5C27.086 15.5 26.75 15.164 26.75 14.75V14H26C25.586 14 25.25 13.664 25.25 13.25C25.25 12.836 25.586 12.5 26 12.5H26.75V11.75C26.75 11.336 27.086 11 27.5 11C27.914 11 28.25 11.336 28.25 11.75V12.5H29C29.414 12.5 29.75 12.836 29.75 13.25C29.75 13.664 29.414 14 29 14H28.25V14.75C28.25 15.164 27.914 15.5 27.5 15.5Z" fill="#B0C6F2"/>
<path d="M14.75 12.5C14.337 12.5 14 12.164 14 11.75V11H13.25C12.837 11 12.5 10.664 12.5 10.25C12.5 9.836 12.837 9.5 13.25 9.5H14V8.75C14 8.336 14.337 8 14.75 8C15.163 8 15.5 8.336 15.5 8.75V9.5H16.25C16.664 9.5 17 9.836 17 10.25C17 10.664 16.664 11 16.25 11H15.5V11.75C15.5 12.164 15.164 12.5 14.75 12.5Z" fill="#B0C6F2"/>
<path d="M10.25 17.75C9.837 17.75 9.5 17.414 9.5 17V16.25H8.75C8.337 16.25 8 15.914 8 15.5C8 15.086 8.336 14.75 8.75 14.75H9.5V14C9.5 13.586 9.836 13.25 10.25 13.25C10.664 13.25 11 13.586 11 14V14.75H11.75C12.164 14.75 12.5 15.086 12.5 15.5C12.5 15.914 12.164 16.25 11.75 16.25H11V17C11 17.414 10.664 17.75 10.25 17.75Z" fill="#B0C6F2"/>
<path d="M19.464 32C17.489 32 16.659 31.523 15.856 31.062C14.838 30.478 13.571 29.75 8.75 29.75C8.337 29.75 8 29.414 8 29C8 28.586 8.336 28.25 8.75 28.25C13.971 28.25 15.43 29.088 16.603 29.761C17.35 30.19 17.889 30.5 19.464 30.5H26.75C27.164 30.5 27.5 30.164 27.5 29.75C27.5 29.336 27.164 29 26.75 29C26.336 29 26 28.664 26 28.25C26 27.836 26.336 27.5 26.75 27.5H27.5C27.914 27.5 28.25 27.164 28.25 26.75C28.25 26.336 27.914 26 27.5 26C27.086 26 26.75 25.664 26.75 25.25C26.75 24.836 27.086 24.5 27.5 24.5H28.251C28.665 24.5 29.001 24.164 29.001 23.75C29.001 23.336 28.665 23 28.251 23C27.837 23 27.501 22.664 27.501 22.25C27.501 21.836 27.837 21.5 28.251 21.5H29.751C30.165 21.5 30.501 21.164 30.501 20.75C30.501 20.336 30.165 20 29.751 20H21.051C20.816 20 20.591 19.887 20.45 19.699C20.309 19.511 20.265 19.263 20.331 19.038L20.352 18.967C20.88 17.135 21.23 15.239 21.392 13.334C21.387 12.78 21.247 12.342 20.988 12.067C20.795 11.863 20.537 11.751 20.261 11.751C20.026 11.751 19.677 11.854 19.677 12.138C19.582 16.89 15.649 20.75 10.91 20.75H8.75C8.337 20.75 8 20.414 8 20C8 19.586 8.336 19.25 8.75 19.25H10.893C14.836 19.25 18.099 16.052 18.178 12.122C18.178 11.607 18.397 11.126 18.794 10.776C19.179 10.437 19.7 10.25 20.263 10.25C20.945 10.25 21.608 10.537 22.08 11.036C22.451 11.429 22.894 12.152 22.894 13.363C22.894 13.382 22.893 13.401 22.892 13.421C22.749 15.133 22.461 16.838 22.035 18.5H29.752C30.993 18.5 32.002 19.509 32.002 20.75C32.002 21.786 31.299 22.66 30.344 22.921C30.448 23.182 30.502 23.462 30.502 23.75C30.502 24.524 30.098 25.238 29.461 25.647C29.65 25.981 29.751 26.361 29.751 26.75C29.751 27.524 29.347 28.238 28.711 28.646C28.899 28.981 29 29.36 29 29.75C29 30.991 27.991 32 26.75 32H19.464Z" fill="#5081E2"/>
</g>
<defs>
<clipPath id="clip0">
<rect width="24" height="24" fill="white" transform="translate(8 8)"/>
</clipPath>
</defs>
</svg>

