<svg width="350" height="200" viewBox="0 0 350 200" fill="none" xmlns="http://www.w3.org/2000/svg">
<rect opacity="0.5" width="350" height="200" rx="40" fill="#FDC9BE"/>
<circle cx="174" cy="100" r="77" stroke="white" stroke-width="4"/>
<mask id="mask0" mask-type="alpha" maskUnits="userSpaceOnUse" x="0" y="0" width="350" height="200">
<rect width="350" height="200" rx="40" fill="#FDC9BE"/>
</mask>
<g mask="url(#mask0)">
<path opacity="0.55" d="M199.841 190.137L199.841 204.889C189.666 219.403 150.625 236.534 144 252L144 237.248C151.572 218.451 186.827 209.41 199.841 190.137Z" fill="#FB755A"/>
<path d="M199.841 164.407L199.841 179.028C189.666 193.414 150.625 210.393 144 225.722L144 211.101C151.572 192.47 186.827 183.509 199.841 164.407Z" fill="#FB755A"/>
<path opacity="0.55" d="M199.841 95.9746L199.841 110.857C189.666 125.499 150.625 142.782 144 158.385L144 143.502C151.572 124.539 186.827 115.418 199.841 95.9746Z" fill="#FB755A"/>
<path d="M199.841 69.6966L199.841 84.5791C189.666 99.2215 150.625 116.504 144 132.107L144 117.224C151.572 98.2613 186.827 89.1398 199.841 69.6966Z" fill="#FB755A"/>
<path d="M199.841 179.188L199.841 164.436C189.666 149.922 150.625 132.791 144 117.325L144 132.077C151.572 150.874 186.827 159.915 199.841 179.188Z" fill="#FB755A"/>
<path opacity="0.55" d="M199.841 204.919L199.841 190.167C189.666 175.653 150.625 158.522 144 143.056L144 157.808C151.572 176.605 186.827 185.646 199.841 204.919Z" fill="#FB755A"/>
<path opacity="0.55" d="M199.841 2.35937L199.841 16.9807C189.666 31.3662 150.625 48.3458 144 63.6746L144 49.0533C151.572 30.4229 186.827 21.4614 199.841 2.35937Z" fill="#FB755A"/>
<path d="M199.841 -23.9186L199.841 -9.16674C189.666 5.3472 150.625 22.4784 144 37.9441L144 23.1922C151.572 4.39547 186.827 -4.64601 199.841 -23.9186Z" fill="#FB755A"/>
<path d="M199.841 85.0254L199.841 70.2735C189.666 55.7596 150.625 38.6284 144 23.1627L144 37.9146C151.572 56.7113 186.827 65.7528 199.841 85.0254Z" fill="#FB755A"/>
<path opacity="0.55" d="M199.841 111.303L199.841 96.421C189.666 81.7786 150.625 64.4958 144 48.8932L144 63.7757C151.572 82.7388 186.827 91.8602 199.841 111.303Z" fill="#FB755A"/>
<path opacity="0.55" d="M199.841 16.5933L199.841 1.97193C189.666 -12.4136 150.625 -29.3932 144 -44.722L144 -30.1007C151.572 -11.4703 186.827 -2.5088 199.841 16.5933Z" fill="#FB755A"/>
</g>
</svg>
