<svg width="350" height="200" viewBox="0 0 350 200" fill="none" xmlns="http://www.w3.org/2000/svg">
<g clip-path="url(#clip0)">
<path d="M40 0H310C332.1 0 350 17.9 350 40V160C350 182.1 332.1 200 310 200H40C17.9 200 0 182.1 0 160V40C0 17.9 17.9 0 40 0Z" fill="url(#paint0_linear)"/>
<path d="M107.601 81.2C92.3008 81.2 79.8008 68.8 79.8008 53.4C79.8008 38 92.2008 25.6 107.601 25.6C122.901 25.6 135.401 38 135.401 53.4C135.401 68.8 122.901 81.2 107.601 81.2ZM107.601 29.2C94.2008 29.2 83.3008 40.1 83.3008 53.4C83.3008 66.7 94.2008 77.6 107.601 77.6C121.001 77.6 131.801 66.7 131.801 53.4C131.801 40.1 121.001 29.2 107.601 29.2Z" fill="#9584EB"/>
<path d="M116.3 55.3C113.4 55.3 110.4 55 107.5 54.4C98.3996 52.5 90.2996 48 83.9996 41.5C83.2996 40.8 83.2996 39.7 83.9996 39C84.6996 38.3 85.7996 38.3 86.4996 39C92.2996 45 99.8996 49.2 108.2 50.9C116.5 52.5 125.2 51.6 132.7 48.3C133.6 47.9 134.6 48.3 135 49.2C135.4 50.1 135 51.1 134.1 51.5C128.6 54 122.4 55.3 116.3 55.3Z" fill="#9584EB"/>
<path d="M61.4008 64.8C61.4008 65.8 61.8008 66.8 62.6008 67.6C63.3008 68.3 64.3008 68.8 65.4008 68.8H77.2008V45.2H65.3008C64.3008 45.2 63.3008 45.6 62.5008 46.4C61.8008 47.1 61.3008 48.1 61.3008 49.2L61.4008 64.8Z" fill="#E0DAFC"/>
<path d="M78.9996 70.5H65.3996C63.8996 70.5 62.4996 69.9 61.3996 68.8C60.6996 68.1 60.2996 67.4 59.9996 66.5H59.5996V49.2C59.5996 47.7 60.1996 46.3 61.2996 45.2C62.3996 44.1 63.7996 43.5 65.2996 43.5H78.9996V70.5ZM63.0996 63H63.1996V64.8C63.1996 65.4 63.3996 65.9 63.8996 66.4C64.2996 66.8 64.8996 67.1 65.4996 67.1H75.4996V47H65.2996C64.6996 47 64.1996 47.2 63.6996 47.7C63.2996 48.1 62.9996 48.7 62.9996 49.3V63H63.0996Z" fill="#9584EB"/>
<path d="M149.9 68.8H138.1V45.2H149.9C150.9 45.2 151.9 45.6 152.7 46.4C153.4 47.1 153.9 48.1 153.9 49.2V64.9C153.9 65.9 153.5 66.9 152.7 67.7C151.9 68.3 150.9 68.8 149.9 68.8Z" fill="#E0DAFC"/>
<path d="M149.9 70.5H136.4V43.5H149.9C151.4 43.5 152.8 44.1 153.9 45.2C155 46.3 155.6 47.8 155.6 49.2V64.9C155.6 66.4 155 67.8 153.9 68.9L153.7 69.1C152.9 69.8 151.5 70.5 149.9 70.5ZM139.9 67H149.9C150.3 67 150.9 66.8 151.5 66.3C151.9 65.9 152.1 65.4 152.1 64.8V49.2C152.1 48.6 151.8 48.1 151.4 47.6C151 47.2 150.4 46.9 149.8 46.9H139.8V67H139.9Z" fill="#9584EB"/>
<path d="M142.699 47C141.799 47 141.099 46.3 140.999 45.5C139.999 37.3 136.099 29.7 129.999 24.2C123.799 18.7 115.799 15.6 107.599 15.6C99.2995 15.6 91.2995 18.6 85.1995 24.2C79.0995 29.6 75.1995 37.2 74.2995 45.5C74.1995 46.5 73.2995 47.1 72.3995 47C71.3995 46.9 70.7995 46 70.8995 45.1C71.9995 36 76.1995 27.6 82.9995 21.6C89.7995 15.5 98.5995 12.2 107.799 12.2C117 12.2 125.7 15.6 132.6 21.6C139.4 27.7 143.7 36 144.799 45.1C144.899 46.1 144.2 46.9 143.299 47C142.799 46.9 142.799 47 142.699 47Z" fill="#9584EB"/>
<path d="M61.0008 178.3C55.6008 178.3 50.4008 176.1 46.7008 172.4C42.9008 168.6 40.8008 163.4 40.8008 158.1V154.4C40.8008 153.4 41.6008 152.6 42.6008 152.6C43.6008 152.6 44.4008 153.4 44.4008 154.4V158.1C44.4008 162.5 46.2008 166.9 49.3008 170C52.4008 173.1 56.7008 174.9 61.2008 174.9C65.7008 174.9 70.0008 173.1 73.1008 170C76.3008 166.8 78.0008 162.6 78.0008 158.1V154.4C78.0008 153.4 78.8008 152.6 79.8008 152.6C80.8008 152.6 81.6008 153.4 81.6008 154.4V158.1C81.6008 163.5 79.5008 168.6 75.7008 172.4C71.6008 176.2 66.4008 178.3 61.0008 178.3Z" fill="#9584EB"/>
<path d="M278.001 178.3C272.601 178.3 267.401 176.1 263.701 172.4C259.901 168.6 257.801 163.4 257.801 158.1V154.4C257.801 153.4 258.601 152.6 259.601 152.6C260.601 152.6 261.401 153.4 261.401 154.4V158.1C261.401 162.5 263.201 166.9 266.301 170C269.401 173.1 273.701 174.9 278.201 174.9C282.701 174.9 287.001 173.1 290.101 170C293.301 166.8 295.001 162.6 295.001 158.1V154.4C295.001 153.4 295.801 152.6 296.801 152.6C297.801 152.6 298.601 153.4 298.601 154.4V158.1C298.601 163.5 296.501 168.6 292.701 172.4C288.601 176.2 283.401 178.3 278.001 178.3Z" fill="#9584EB"/>
<path d="M190.7 106.2C190.2 106.2 189.8 106 189.4 105.7C188.7 105 188.7 103.9 189.4 103.2C198.8 94 211.2 89 224.3 89C236.3 89 247.9 93.3 256.9 101.1C257.6 101.7 257.7 102.8 257.1 103.6C256.5 104.3 255.4 104.4 254.6 103.8C246.2 96.5 235.4 92.5 224.2 92.5C212 92.5 200.4 97.2 191.7 105.7C191.6 106.1 191.1 106.2 190.7 106.2Z" fill="#9584EB"/>
<path d="M82.4 124.2C71.9 124.2 60.8 121.2 51.9 115.6C44.6 111.1 40 105.5 39 99.9C39 99.7 39 99.5 39.1 99.3C41.5 95.8 44.8 92.9 48.7 90.8C52.4 88.8 56.7 87.7 61.2 87.7C86.7 87.7 91.3 105.5 95 119.8L95.5 121.7C95.6 122.1 95.4 122.5 95 122.6C90.9 123.7 86.7 124.2 82.4 124.2ZM40.5 100C41.6 105 45.9 110.1 52.7 114.4C64.7 121.9 80.7 124.6 93.8 121.4L93.5 120.2C89.7 105.7 85.4 89.2 61.1 89.2C56.9 89.2 52.9 90.2 49.4 92.1C45.8 94.1 42.8 96.7 40.5 100Z" fill="#9584EB"/>
<path d="M61.1008 141.2C60.2008 141.2 59.3008 141.2 58.4008 141.1C52.2008 140.5 46.4008 137.7 42.0008 133.3C37.6008 128.8 34.9008 123 34.4008 116.8C33.8008 110.7 35.4008 104.5 38.9008 99.3C39.1008 99.1 39.4008 98.9 39.7008 99C40.0008 99.1 40.2008 99.3 40.3008 99.6C42.9008 112.4 65.3008 123.8 85.5008 122.6C85.9008 122.6 86.3008 122.9 86.3008 123.3C86.3008 123.7 86.0008 124.1 85.6008 124.1C65.2008 125.3 43.5008 114.6 39.3008 101.6C36.6008 106.2 35.4008 111.5 35.9008 116.7C36.4008 122.5 38.9008 128 43.1008 132.2C47.2008 136.4 52.7008 139 58.5008 139.6C64.3008 140.2 70.2008 138.7 75.1008 135.5C75.4008 135.3 75.9008 135.4 76.1008 135.7C76.3008 136 76.2008 136.5 75.9008 136.7C71.6008 139.6 66.4008 141.2 61.1008 141.2Z" fill="#9584EB"/>
<path d="M167.101 144C151.801 144 139.301 131.6 139.301 116.2C139.301 100.8 151.701 88.4 167.101 88.4C182.501 88.4 194.801 100.8 194.801 116.2C194.801 131.6 182.401 144 167.101 144ZM167.101 92C153.701 92 142.901 102.9 142.901 116.2C142.901 129.5 153.801 140.4 167.101 140.4C180.401 140.4 191.301 129.5 191.301 116.2C191.301 102.9 180.501 92 167.101 92Z" fill="#9584EB"/>
<path d="M157.301 122.7C160.901 122.7 163.801 119.8 163.801 116.2C163.801 112.6 160.901 109.7 157.301 109.7C153.701 109.7 150.801 112.6 150.801 116.2C150.801 119.8 153.701 122.7 157.301 122.7Z" fill="#FBC55A"/>
<path d="M157.3 124.5C152.8 124.5 149.1 120.8 149.1 116.3C149.1 111.8 152.8 108.1 157.3 108.1C161.8 108.1 165.5 111.8 165.5 116.3C165.5 120.8 161.8 124.5 157.3 124.5ZM157.3 111.5C154.7 111.5 152.5 113.6 152.5 116.3C152.5 119 154.6 121.1 157.3 121.1C160 121.1 162.1 119 162.1 116.3C162.1 113.6 159.9 111.5 157.3 111.5Z" fill="#9584EB"/>
<path d="M176.901 122.7C180.501 122.7 183.401 119.8 183.401 116.2C183.401 112.6 180.501 109.7 176.901 109.7C173.301 109.7 170.401 112.6 170.401 116.2C170.301 119.8 173.301 122.7 176.901 122.7Z" fill="#FBC55A"/>
<path d="M176.9 124.5C174.7 124.5 172.5 123.6 170.9 122C169.4 120.4 168.6 118.4 168.6 116.2C168.6 111.7 172.3 108 176.8 108C181.3 108 185 111.7 185 116.2C185 120.7 181.5 124.5 176.9 124.5ZM176.9 111.5C174.3 111.5 172.1 113.6 172.1 116.3C172.1 117.6 172.5 118.7 173.4 119.6C174.3 120.5 175.6 121.1 176.9 121.1C179.5 121.1 181.7 119 181.7 116.3C181.7 113.6 179.5 111.5 176.9 111.5Z" fill="#9584EB"/>
<path d="M150.901 118H134.601C133.601 118 132.801 117.2 132.801 116.2C132.801 115.2 133.601 114.4 134.601 114.4H150.901C151.901 114.4 152.701 115.2 152.701 116.2C152.701 117.2 151.901 118 150.901 118Z" fill="#9584EB"/>
<path d="M199.7 118H183.4C182.4 118 181.6 117.2 181.6 116.2C181.6 115.2 182.4 114.4 183.4 114.4H199.7C200.7 114.4 201.5 115.2 201.5 116.2C201.5 117.2 200.7 118 199.7 118Z" fill="#9584EB"/>
<path d="M188.701 183C188.401 183 188.001 182.9 187.701 182.7L166.101 168.3C165.601 168 165.401 167.5 165.301 166.9C165.301 166.4 165.501 165.8 165.901 165.5L180.301 153.4C180.801 153 181.401 152.9 182.001 153.1C186.901 154.7 191.301 157 195.201 159.7C195.801 160.1 196.101 160.9 195.901 161.6L190.401 181.7C190.301 182.2 189.901 182.7 189.301 182.9C189.101 182.9 188.901 183 188.701 183ZM170.001 166.6L187.601 178.4L192.101 161.8C189.001 159.7 185.501 158 181.801 156.6L170.001 166.6Z" fill="#9584EB"/>
<path d="M145.5 183C145.3 183 145.1 183 144.9 182.9C144.4 182.7 144 182.3 143.8 181.7L138.3 161.6C138.1 160.9 138.4 160.1 139 159.7C142.9 156.9 147.3 154.7 152.2 153.1C152.8 152.9 153.4 153 153.9 153.4L168.3 165.5C168.7 165.9 169 166.4 168.9 166.9C168.9 167.4 168.6 168 168.1 168.3L146.5 182.7C146.2 182.9 145.8 183 145.5 183ZM142 161.8L146.5 178.4L164.1 166.6L152.2 156.6C148.6 158 145.1 159.7 142 161.8Z" fill="#9584EB"/>
<path d="M241.099 58.5C237.199 58.3 233.399 56.9 230.199 54.4C227.699 52.5 225.599 49.8 224.399 46.9C223.099 49.9 221.099 52.5 218.599 54.4C215.399 56.8 211.699 58.2 207.799 58.5C204.299 58.5 200.899 57.5 197.999 55.6C197.699 55.4 197.599 54.9 197.799 54.6C197.999 54.3 198.499 54.2 198.799 54.4C201.399 56.1 204.499 57.1 207.699 57.1C211.199 56.9 214.699 55.6 217.599 53.4C220.399 51.2 222.599 48.1 223.599 44.7C223.699 44.4 223.999 44.2 224.299 44.2C224.599 44.2 224.899 44.4 224.999 44.7C226.099 48.1 228.199 51.2 230.999 53.4C233.999 55.7 237.399 57 240.999 57.1C244.099 57.1 247.099 56.2 249.899 54.4C250.199 54.2 250.699 54.3 250.899 54.6C251.099 54.9 250.999 55.4 250.699 55.6C247.799 57.5 244.499 58.5 241.099 58.5Z" fill="#9584EB"/>
<path d="M251.101 14.5C247.101 14.5 243.201 16.1 240.301 19C237.401 21.9 235.801 25.7 235.801 29.8C235.801 30.7 235.901 31.6 236.001 32.5C241.401 35.1 245.701 39.4 248.301 44.8C249.201 45 250.101 45 251.001 45C255.001 45 258.901 43.4 261.801 40.5C264.701 37.6 266.301 33.8 266.301 29.7C266.301 25.6 264.701 21.8 261.801 18.9C259.001 16.1 255.201 14.4 251.101 14.5Z" fill="#E0DAFC"/>
<path d="M251 46.8C250 46.8 249 46.8 247.9 46.6L247.1 46.4L246.7 45.6C244.3 40.5 240.3 36.6 235.2 34.1L234.3 33.7L234.2 32.7C234.1 31.8 234 30.8 234 29.8C234 25.3 235.8 21 239 17.8C242.2 14.6 246.6 12.8 251 12.8C255.4 12.7 259.7 14.4 263 17.7C266.2 20.9 268 25.2 268 29.7C268 34.2 266.2 38.5 263 41.7C259.9 44.9 255.5 46.8 251 46.8ZM249.5 43.2C250 43.2 250.5 43.2 251 43.2C254.5 43.2 258 41.7 260.6 39.2C263.2 36.6 264.6 33.2 264.6 29.6C264.6 26 263.2 22.6 260.6 20C258 17.4 254.7 16 251.2 16.1C247.7 16.1 244.2 17.6 241.6 20.1C239 22.7 237.6 26.1 237.6 29.7C237.6 30.2 237.6 30.7 237.7 31.3C242.7 34 246.8 38.1 249.5 43.2Z" fill="#9584EB"/>
<path d="M197.8 14.5C201.8 14.5 205.7 16.1 208.6 19C211.5 21.9 213.1 25.7 213.1 29.8C213.1 30.7 213 31.6 212.9 32.5C207.5 35.1 203.2 39.4 200.6 44.8C199.7 45 198.8 45 197.9 45C193.9 45 190 43.4 187.1 40.5C184.2 37.6 182.6 33.8 182.6 29.7C182.6 25.6 184.2 21.8 187.1 18.9C189.9 16.1 193.8 14.4 197.8 14.5Z" fill="#E0DAFC"/>
<path d="M197.9 46.8C193.4 46.8 189 45 185.9 41.8C182.7 38.6 180.9 34.3 180.9 29.8C180.9 25.3 182.7 21 185.9 17.8C189.1 14.6 193.5 12.8 197.9 12.9C202.4 12.9 206.7 14.7 209.9 17.9C213.1 21.1 214.9 25.4 214.9 29.9C214.9 30.9 214.8 31.9 214.7 32.8L214.6 33.8L213.7 34.2C208.6 36.6 204.7 40.6 202.2 45.7L201.8 46.5L201 46.7C199.9 46.8 198.9 46.8 197.9 46.8ZM197.5 16.2C194.2 16.2 190.9 17.6 188.4 20.1C185.8 22.7 184.4 26.1 184.4 29.7C184.4 33.3 185.8 36.7 188.4 39.3C190.9 41.8 194.4 43.3 198 43.3C198.5 43.3 199.1 43.3 199.5 43.3C202.2 38.2 206.2 34.1 211.3 31.5C211.4 31 211.4 30.4 211.4 29.9C211.4 26.3 210 22.9 207.4 20.3C204.9 17.8 201.4 16.3 197.8 16.3C197.7 16.2 197.6 16.2 197.5 16.2Z" fill="#9584EB"/>
<path d="M294.801 118.8C290.901 118.6 287.101 117.2 283.901 114.7C281.401 112.8 279.301 110.1 278.101 107.2C276.801 110.2 274.801 112.8 272.301 114.7C269.101 117.1 265.401 118.5 261.501 118.8C258.001 118.8 254.601 117.8 251.701 115.9C251.401 115.7 251.301 115.2 251.501 114.9C251.701 114.6 252.201 114.5 252.501 114.7C255.101 116.4 258.201 117.4 261.401 117.4C264.901 117.2 268.401 115.9 271.301 113.7C274.101 111.5 276.301 108.4 277.301 105C277.401 104.7 277.701 104.5 278.001 104.5C278.301 104.5 278.601 104.7 278.701 105C279.801 108.4 281.901 111.5 284.701 113.7C287.701 116 291.101 117.3 294.701 117.4C297.801 117.4 300.801 116.5 303.601 114.7C303.901 114.5 304.401 114.6 304.601 114.9C304.801 115.2 304.701 115.7 304.401 115.9C301.501 117.8 298.201 118.8 294.801 118.8Z" fill="#9584EB"/>
<path d="M278.101 144C262.801 144 250.301 131.6 250.301 116.2C250.301 100.8 262.701 88.4 278.101 88.4C293.501 88.4 305.901 100.8 305.901 116.2C305.901 131.6 293.401 144 278.101 144ZM278.101 92C264.701 92 253.901 102.9 253.901 116.2C253.901 129.5 264.801 140.4 278.101 140.4C291.401 140.4 302.301 129.5 302.301 116.2C302.301 102.9 291.501 92 278.101 92Z" fill="#9584EB"/>
<path d="M142.801 107.8C142.401 107.8 141.901 107.6 141.601 107.3L140.601 106.3C131.801 97.5 120.101 92.6 107.601 92.6C99.5006 92.6 91.7006 94.6 84.9006 98.5C84.1006 99 83.0006 98.7 82.5006 97.8C82.0006 97 82.3006 95.9 83.2006 95.4C90.5006 91.3 99.0006 89.1 107.701 89.1C121.101 89.1 133.701 94.3 143.101 103.8L144.101 104.8C144.801 105.5 144.801 106.6 144.101 107.3C143.701 107.6 143.201 107.8 142.801 107.8Z" fill="#9584EB"/>
<path d="M250.5 55C250 41.1 238.5 29.9 224.5 29.9C210.4 29.9 199 41 198.5 55C201.2 56.8 204.5 57.8 207.8 57.8C211.6 57.6 215.2 56.2 218.2 53.9C221.2 51.6 223.4 48.4 224.5 44.8C225.6 48.4 227.8 51.6 230.8 53.9C233.8 56.2 237.4 57.6 241.2 57.8C244.5 57.9 247.7 56.9 250.5 55Z" fill="#E0DAFC"/>
<path d="M241.701 59.6C241.501 59.6 241.401 59.6 241.201 59.6C237.101 59.4 233.101 57.9 229.801 55.3C227.701 53.7 225.901 51.6 224.601 49.2C223.301 51.6 221.501 53.6 219.401 55.3C216.001 57.9 212.101 59.3 208.001 59.6C204.301 59.6 200.601 58.5 197.601 56.5L196.801 56V55C197.301 40 209.501 28.2 224.501 28.2C239.301 28.2 251.701 40.2 252.201 55V56L251.401 56.5C248.501 58.5 245.101 59.6 241.701 59.6ZM223.601 41.8C223.901 40.9 225.101 40.9 225.401 41.8L226.201 44.3C227.201 47.5 229.201 50.5 231.901 52.5C234.701 54.6 238.001 55.9 241.301 56C243.901 56.1 246.401 55.4 248.701 54C247.701 41.5 237.101 31.6 224.501 31.6C211.701 31.6 201.301 41.4 200.301 54C202.601 55.3 205.201 56 207.801 56C211.101 55.8 214.301 54.6 217.101 52.5C219.801 50.4 221.801 47.5 222.801 44.3L223.601 41.8Z" fill="#9584EB"/>
<path d="M304.1 115.6C303.6 101.7 292.1 90.5 278.1 90.5C264 90.5 252.6 101.6 252.1 115.6C254.8 117.4 258.1 118.4 261.4 118.4C265.2 118.2 268.8 116.8 271.8 114.5C274.8 112.2 277 109 278.1 105.4C279.2 109 281.4 112.2 284.4 114.5C287.4 116.8 291 118.2 294.8 118.4C298.1 118.4 301.4 117.5 304.1 115.6Z" fill="#E0DAFC"/>
<path d="M294.801 120.2C290.601 120 286.701 118.5 283.301 115.9C281.201 114.3 279.401 112.2 278.101 109.8C276.801 112.2 275.001 114.2 272.901 115.9C269.501 118.5 265.601 119.9 261.501 120.2C257.801 120.2 254.101 119.1 251.101 117.1L250.301 116.6V115.6C250.801 100.6 263.001 88.8 278.001 88.8C292.801 88.8 305.201 100.8 305.701 115.6V116.5L304.901 117C302.201 119.1 298.601 120.2 294.801 120.2ZM277.101 102.6C277.401 101.6 278.801 101.6 279.101 102.6L279.801 104.9C280.801 108.1 282.801 111.1 285.501 113.1C288.301 115.2 291.601 116.5 294.901 116.6C297.501 116.6 300.201 115.9 302.301 114.6C301.301 102.1 290.701 92.2 278.101 92.2C265.301 92.2 254.901 102 253.901 114.6C256.201 115.9 258.801 116.6 261.401 116.6C264.701 116.4 267.901 115.2 270.701 113.1C273.401 111 275.401 108.1 276.401 104.9L277.101 102.6Z" fill="#9584EB"/>
<path d="M61.1003 142.2C60.2003 142.2 59.2003 142.2 58.3003 142.1C51.8003 141.5 45.8003 138.6 41.3003 134C36.7003 129.3 33.9003 123.3 33.4003 116.9C32.8003 110.6 34.4003 104.2 38.1003 98.8C38.5003 98.2 39.2003 97.9 39.9003 98.1C40.6003 98.2 41.1003 98.8 41.3003 99.5C43.8003 111.9 65.7003 122.9 85.5003 121.7C86.5003 121.6 87.3003 122.4 87.4003 123.3C87.5003 124.3 86.7003 125.1 85.8003 125.2C66.1003 126.4 45.1003 116.5 39.3003 104.1C37.4003 108 36.6003 112.4 37.1003 116.7C37.6003 122.3 40.0003 127.6 44.0003 131.7C47.9003 135.7 53.2003 138.2 58.8003 138.8C64.4003 139.4 70.1003 138 74.8003 134.9C75.6003 134.4 76.7003 134.6 77.2003 135.4C77.7003 136.2 77.5003 137.3 76.7003 137.8C72.0003 140.6 66.6003 142.2 61.1003 142.2Z" fill="#9584EB"/>
<path d="M61.0992 88.5C56.8992 88.5 52.6992 89.5 48.9992 91.5C45.2992 93.5 42.0992 96.3 39.6992 99.8C42.5992 114.5 71.1992 128.1 94.6992 121.9C90.7992 107.1 87.0992 88.5 61.0992 88.5Z" fill="#E0DAFC"/>
<path d="M82.4004 125.2C71.7004 125.2 60.4004 122.1 51.4004 116.5C43.9004 111.8 39.2004 106 38.0004 100.2L37.9004 99.5L38.3004 98.9C40.8004 95.2 44.2004 92.2 48.2004 90.1C52.1004 88 56.6004 86.9 61.1004 86.9C87.4004 86.9 92.1004 105.1 95.9004 119.7L96.8004 123.3L95.1004 123.7C91.1004 124.7 86.8004 125.2 82.4004 125.2ZM41.6004 100.2C42.8004 104.8 47.0004 109.6 53.3004 113.5C64.8004 120.7 80.0004 123.4 92.6004 120.6V120.4C88.9004 106.2 84.7004 90.2 61.2004 90.2C57.2004 90.2 53.3004 91.2 49.9004 93C46.5004 94.8 43.7004 97.2 41.6004 100.2Z" fill="#9584EB"/>
<path d="M320.1 93.2C320.1 88.6 318.4 84.2 315.3 80.8C312.2 77.4 308 75.3 303.4 74.9C298.8 74.5 294.3 75.8 290.6 78.5C286.9 81.3 284.5 85.3 283.6 89.8L284.1 90.8C295.5 93.5 304.1 103.8 304.1 116.1C304.1 120.2 303.1 124.1 301.5 127.5L301.8 128.1C309.5 133.9 318.2 138.2 327.5 140.8C323.5 125.3 321 109.3 320.1 93.2Z" fill="#E0DAFC"/>
<path d="M329.199 140.4C329.499 141.7 328.299 142.9 326.999 142.5C317.499 139.8 308.599 135.5 300.699 129.5L300.399 129.3L299.499 127.6L299.899 126.8C301.499 123.4 302.299 119.7 302.299 116.1C302.299 105 294.499 95.1 283.599 92.5L282.799 92.3L281.699 90L281.799 89.4C282.799 84.4 285.499 80 289.499 77C293.599 74 298.599 72.6 303.499 73.1C308.499 73.5 313.099 75.8 316.499 79.6C319.899 83.3 321.699 88.1 321.799 93.1C322.699 109.1 325.199 124.9 329.199 140.4ZM303.499 127.2C309.599 131.7 316.199 135.2 323.299 137.6C323.999 137.9 324.799 137.2 324.599 136.4C321.199 122.2 319.099 107.7 318.299 93.2V93.1C318.299 88.9 316.799 85 313.999 81.9C311.199 78.8 307.399 76.9 303.199 76.6C299.099 76.2 294.999 77.4 291.599 79.9C288.499 82.2 286.399 85.5 285.499 89.3C297.499 92.6 305.899 103.5 305.899 116C305.799 119.8 305.099 123.7 303.499 127.2Z" fill="#9584EB"/>
<path d="M224.5 82C238.9 82 250.5 70.3 250.5 56C250.5 41.7 238.8 30 224.5 30C210.1 30 198.5 41.7 198.5 56C198.5 70.3 210.1 82 224.5 82Z" stroke="#9584EB" stroke-width="3.5" stroke-linecap="round" stroke-linejoin="round"/>
<path d="M61.1992 148.8C47.7992 148.8 35.2992 154 25.7992 163.5C18.7992 170.5 14.0992 179.2 12.1992 188.6C13.1992 189.5 14.1992 190.4 15.2992 191.3C16.8992 181.8 21.3992 173 28.3992 166C37.1992 157.2 48.8992 152.3 61.3992 152.3C73.8992 152.3 85.4992 157.2 94.3992 166C103.199 174.8 108.099 186.5 108.099 199C108.099 199.4 108.199 199.7 108.399 200H111.299C111.499 199.7 111.599 199.4 111.599 199C111.599 185.6 106.399 173.1 96.8992 163.6C87.0992 154.1 74.5992 148.8 61.1992 148.8Z" fill="#9584EB"/>
<path d="M313.5 163.6C304 154.1 291.4 148.9 278.1 148.9C264.8 148.9 252.2 154.1 242.7 163.6C233.2 173.1 228 185.7 228 199C228 199.4 228.1 199.7 228.3 200H231.2C231.4 199.7 231.5 199.4 231.5 199C231.5 186.6 236.4 174.9 245.2 166C254 157.2 265.7 152.3 278.2 152.3C290.6 152.3 302.3 157.2 311.2 166C319.6 174.4 324.4 185.4 324.8 197.2C326 196.7 327.1 196.2 328.2 195.7C327.3 183.5 322.2 172.3 313.5 163.6Z" fill="#9584EB"/>
<path d="M182 153C181.4 152.8 180.8 152.9 180.3 153.3L167 164.5L153.7 153.3C153.2 152.9 152.6 152.8 152 153C142.1 156.3 133.7 162.4 127.7 170.6C121.7 178.9 118.5 188.8 118.5 199.1C118.5 199.4 118.6 199.7 118.7 199.9H121.8C121.9 199.7 122 199.4 122 199.1C122 189.5 125 180.4 130.6 172.6C136 165.2 143.4 159.6 152.2 156.5L165.8 168C166.5 168.5 167.4 168.5 168.1 168L181.8 156.5C190.4 159.4 198 165.1 203.4 172.6C209 180.3 212 189.5 212 199.1C212 199.4 212.1 199.7 212.2 199.9H215.3C215.4 199.7 215.5 199.4 215.5 199.1C215.5 188.8 212.3 178.9 206.3 170.6C200.3 162.4 191.7 156.1 182 153Z" fill="#9584EB"/>
<path d="M167.101 165.2C166.101 165.2 165.301 166 165.301 167V199.3C165.301 199.6 165.401 199.9 165.501 200.1H168.601C168.701 199.9 168.801 199.6 168.801 199.3V167C168.901 165.9 168.101 165.2 167.101 165.2Z" fill="#9584EB"/>
</g>
<defs>
<linearGradient id="paint0_linear" x1="104" y1="-3.9279e-06" x2="218.5" y2="240" gradientUnits="userSpaceOnUse">
<stop stop-color="#CEC6F6"/>
<stop offset="1" stop-color="#DDD8F7" stop-opacity="0.2"/>
</linearGradient>
<clipPath id="clip0">
<rect width="350" height="200" fill="white"/>
</clipPath>
</defs>
</svg>

