<svg width="40" height="40" viewBox="0 0 40 40" fill="none" xmlns="http://www.w3.org/2000/svg">
<circle cx="20" cy="20" r="20" fill="#E0DAFC"/>
<g clip-path="url(#clip0)">
<path d="M20.0059 15.501C17.9379 15.501 16.2559 13.819 16.2559 11.751C16.2559 9.68298 17.9379 8.00098 20.0059 8.00098C22.0739 8.00098 23.7559 9.68298 23.7559 11.751C23.7559 13.819 22.0739 15.501 20.0059 15.501ZM20.0059 9.50098C18.7649 9.50098 17.7559 10.51 17.7559 11.751C17.7559 12.992 18.7649 14.001 20.0059 14.001C21.2469 14.001 22.2559 12.992 22.2559 11.751C22.2559 10.51 21.2469 9.50098 20.0059 9.50098Z" fill="#9584EB"/>
<path d="M21.4945 32.001C21.1606 32.001 20.8375 31.928 20.5315 31.783L14.4315 28.892C13.8875 28.634 13.4775 28.18 13.2755 27.613C13.0735 27.046 13.1045 26.435 13.3625 25.891C13.6205 25.348 14.0745 24.937 14.6415 24.735C14.8865 24.648 15.1415 24.603 15.3985 24.603C15.6915 24.603 15.9765 24.659 16.2485 24.771V22.68C15.6745 22.893 15.0735 23 14.4545 23H14.3975C14.2675 23.01 14.1375 23.015 14.0075 23.015C12.4035 23.015 10.9105 22.296 9.91055 21.042C9.89655 21.025 9.88455 21.008 9.87355 20.99C9.53955 20.49 9.42055 19.89 9.53855 19.301C9.65655 18.712 9.99655 18.203 10.4955 17.869C10.8685 17.62 11.3005 17.489 11.7455 17.489C12.4235 17.489 13.0525 17.788 13.4815 18.31C13.6835 18.442 13.9155 18.512 14.1565 18.512C14.2025 18.512 14.2475 18.51 14.2935 18.504C14.3215 18.501 14.3485 18.5 14.3755 18.5C14.6775 18.5 14.9405 18.296 15.4185 17.904C16.2765 17.202 17.4375 16.25 19.8845 16.25H20.1255C22.5855 16.25 23.7515 17.206 24.6025 17.904C25.0805 18.296 25.3435 18.5 25.6455 18.5C25.6726 18.5 25.7006 18.501 25.7265 18.504C25.7715 18.509 25.8175 18.511 25.8625 18.511C26.1065 18.511 26.3405 18.441 26.5435 18.307C26.8985 17.883 27.3925 17.606 27.9425 17.526C28.0515 17.51 28.1625 17.502 28.2715 17.502C28.7575 17.502 29.2205 17.656 29.6125 17.948C30.5635 18.657 30.8006 19.99 30.1525 20.982C30.1406 21.001 30.1265 21.019 30.1125 21.038C29.1115 22.294 27.6185 23.014 26.0145 23.014C25.8835 23.014 25.7526 23.009 25.6206 22.999H25.5765C24.9555 22.999 24.3345 22.888 23.7535 22.675V24.54C23.8925 24.514 24.0305 24.501 24.1705 24.501C25.1465 24.501 26.0055 25.122 26.3095 26.046C26.4975 26.616 26.4506 27.226 26.1796 27.763C25.9086 28.3 25.4445 28.699 24.8745 28.886C24.7996 28.911 24.7195 28.924 24.6395 28.924C24.3155 28.924 24.0295 28.716 23.9275 28.408C23.8655 28.218 23.8805 28.015 23.9705 27.836C24.0605 27.657 24.2156 27.524 24.4056 27.462C24.5965 27.399 24.7505 27.266 24.8415 27.088C24.9315 26.909 24.9466 26.706 24.8846 26.515C24.7825 26.207 24.4965 25.999 24.1705 25.999C24.0915 25.999 24.0135 26.011 23.9375 26.036L23.2615 26.284C23.1785 26.315 23.0915 26.33 23.0035 26.33C22.8495 26.33 22.7006 26.283 22.5745 26.195C22.3745 26.055 22.2545 25.825 22.2545 25.58V21.448C22.2545 21.168 22.4085 20.914 22.6555 20.784C22.7615 20.728 22.8825 20.698 23.0045 20.698C23.1565 20.698 23.3035 20.743 23.4295 20.83C24.0655 21.268 24.8095 21.499 25.5815 21.499H25.6375L25.7015 21.501C25.8125 21.51 25.9146 21.514 26.0166 21.514C27.1465 21.514 28.2015 21.012 28.9145 20.136C29.1095 19.809 29.0255 19.38 28.7175 19.151C28.5875 19.054 28.4335 19.003 28.2705 19.003C28.0306 19.003 27.8105 19.113 27.6675 19.304C27.6245 19.361 27.5755 19.411 27.5195 19.453C27.0385 19.818 26.4665 20.01 25.8645 20.01C25.7785 20.01 25.6915 20.006 25.6045 19.998C24.7745 19.983 24.2045 19.515 23.6535 19.063C22.8965 18.442 22.0505 17.747 20.1635 17.747C20.1175 17.747 20.0715 17.747 20.0245 17.748H19.9145C17.9765 17.748 17.1245 18.446 16.3735 19.063C15.8195 19.517 15.2485 19.985 14.4185 20C14.3305 20.008 14.2435 20.012 14.1565 20.012C13.5555 20.012 12.9845 19.819 12.5035 19.454C12.4445 19.409 12.3935 19.357 12.3505 19.298C12.2075 19.101 11.9865 18.989 11.7445 18.989C11.5965 18.989 11.4525 19.033 11.3275 19.116C11.1605 19.227 11.0475 19.397 11.0085 19.593C10.9715 19.78 11.0055 19.971 11.1055 20.133C11.8195 21.011 12.8735 21.514 14.0025 21.514C14.1045 21.514 14.2075 21.51 14.3105 21.501C14.3325 21.5 14.3515 21.5 14.3715 21.5H14.4195C15.1975 21.5 15.9415 21.27 16.5695 20.833C16.6955 20.746 16.8435 20.7 16.9975 20.7C17.1185 20.7 17.2385 20.73 17.3455 20.785C17.5935 20.915 17.7475 21.17 17.7475 21.45V25.958C17.7475 26.217 17.6165 26.454 17.3975 26.593C17.2775 26.668 17.1385 26.708 16.9975 26.708C16.8865 26.708 16.7745 26.683 16.6745 26.635L15.7175 26.178C15.6165 26.13 15.5095 26.105 15.3985 26.105C15.3125 26.105 15.2275 26.12 15.1445 26.149C14.9555 26.216 14.8035 26.354 14.7175 26.535C14.6315 26.717 14.6215 26.92 14.6885 27.11C14.7555 27.299 14.8925 27.451 15.0745 27.537L21.1745 30.428C21.2765 30.476 21.3845 30.501 21.4955 30.501C21.5805 30.501 21.6665 30.486 21.7485 30.457C21.9375 30.39 22.0885 30.253 22.1745 30.072C22.2605 29.891 22.2705 29.687 22.2035 29.499C22.1365 29.31 21.9995 29.159 21.8185 29.073L19.3785 27.917C19.1975 27.831 19.0605 27.68 18.9935 27.491C18.9265 27.302 18.9365 27.099 19.0225 26.918C19.1455 26.658 19.4115 26.489 19.7005 26.489C19.8125 26.489 19.9205 26.513 20.0215 26.562L22.4615 27.718C23.0045 27.975 23.4145 28.429 23.6175 28.995C23.8195 29.561 23.7885 30.172 23.5315 30.715C23.2745 31.258 22.8205 31.668 22.2545 31.871C22.0065 31.957 21.7515 32.001 21.4945 32.001Z" fill="#9584EB"/>
<path d="M17.7559 11.751C17.7559 10.51 18.7649 9.50098 20.0059 9.50098C21.2469 9.50098 22.2559 10.51 22.2559 11.751C22.2559 12.992 21.2469 14.001 20.0059 14.001C18.7649 14.001 17.7559 12.992 17.7559 11.751Z" fill="#CEC6F6"/>
</g>
<defs>
<clipPath id="clip0">
<rect width="24" height="24" fill="white" transform="translate(8 8)"/>
</clipPath>
</defs>
</svg>
