<svg width="40" height="40" viewBox="0 0 40 40" fill="none" xmlns="http://www.w3.org/2000/svg">
<circle cx="20" cy="20" r="20" fill="#FFD7E7"/>
<path d="M20 32C13.4 32 8 26.6 8 20C8 13.4 13.4 8 20 8C26.6 8 32 13.4 32 20C32 26.6 26.6 32 20 32ZM21.5 25.2C21.6 25.2 21.6 25.2 21.7 25.2C22.1 25.3 22.3 25.7 22.2 26.1L21 30.4C26 29.9 30 25.9 30.4 21L26.2 22.2C26.1 22.2 26.1 22.2 26 22.2C25.7 22.2 25.4 22 25.3 21.7C25.2 21.3 25.4 20.9 25.8 20.8L28.5 20L25.8 19.2C25.6 19.1 25.4 19 25.3 18.8C25.2 18.6 25.2 18.4 25.2 18.2C25.3 17.9 25.6 17.7 25.9 17.7C26 17.7 26 17.7 26.1 17.7L30.3 18.9C30 14 26 10 21 9.5L22.2 13.7C22.3 13.9 22.2 14.1 22.1 14.3C22 14.5 21.8 14.6 21.7 14.7C21.6 14.7 21.6 14.7 21.5 14.7C21.2 14.7 20.9 14.5 20.8 14.2L20 11.5L19.2 14.2C19.1 14.5 18.8 14.7 18.5 14.7C18.4 14.7 18.4 14.7 18.3 14.7C17.9 14.6 17.7 14.2 17.8 13.8L19 9.5C14 10 10 14 9.5 19L13.7 17.8C13.8 17.8 13.8 17.8 13.9 17.8C14.2 17.8 14.5 18 14.6 18.3C14.7 18.7 14.5 19.1 14.1 19.2L11.5 20L14.2 20.8C14.6 20.9 14.8 21.3 14.7 21.7C14.6 22 14.3 22.2 14 22.2C13.9 22.2 13.9 22.2 13.8 22.2L9.5 21C10 26 14 30 19 30.5L17.8 26.3C17.7 25.9 17.9 25.5 18.3 25.4C18.4 25.4 18.4 25.4 18.5 25.4C18.8 25.4 19.1 25.6 19.2 25.9L20 28.6L20.8 25.9C20.9 25.5 21.2 25.2 21.5 25.2Z" fill="#F2639F"/>
<path d="M23.7996 24.8C23.5996 24.8 23.4996 24.8 23.2996 24.7L19.9996 22.8L16.6996 24.6C16.5996 24.7 16.3996 24.7 16.1996 24.7C15.9996 24.7 15.8996 24.7 15.6996 24.6C15.4996 24.5 15.2996 24.3 15.1996 24C15.0996 23.7 15.1996 23.5 15.2996 23.2L17.1996 20L15.3996 16.7C15.1996 16.4 15.1996 16 15.3996 15.7C15.5996 15.4 15.8996 15.2 16.2996 15.2C16.4996 15.2 16.5996 15.2 16.7996 15.3L19.9996 17.2L23.2996 15.4C23.3996 15.3 23.5996 15.3 23.7996 15.3C23.9996 15.3 24.0996 15.3 24.2996 15.4C24.7996 15.7 24.8996 16.3 24.6996 16.8L22.7996 20L24.5996 23.3C24.7996 23.6 24.7996 24 24.5996 24.3C24.4996 24.6 24.0996 24.8 23.7996 24.8ZM18.6996 19.6C18.7996 19.8 18.7996 20.1 18.6996 20.3L17.4996 22.4L19.5996 21.2C19.6996 21.1 19.7996 21.1 19.9996 21.1C20.0996 21.1 20.2996 21.1 20.3996 21.2L22.4996 22.4L21.2996 20.3C21.1996 20.1 21.1996 19.8 21.2996 19.6L22.4996 17.5L20.3996 18.7C20.2996 18.8 20.1996 18.8 19.9996 18.8C19.7996 18.8 19.6996 18.8 19.5996 18.7L17.4996 17.5L18.6996 19.6Z" fill="#E0528D"/>
<path d="M18.7 19.6C18.8 19.8 18.8 20.1 18.7 20.3L17.5 22.4L19.6 21.2C19.7 21.1 19.8 21.1 20 21.1C20.1 21.1 20.3 21.1 20.4 21.2L22.5 22.4L21.3 20.3C21.2 20.1 21.2 19.8 21.3 19.6L22.5 17.5L20.4 18.7C20.3 18.8 20.2 18.8 20 18.8C19.8 18.8 19.7 18.8 19.6 18.7L17.5 17.5L18.7 19.6Z" fill="#FFD7E7"/>
</svg>
