<svg width="350" height="200" viewBox="0 0 350 200" fill="none" xmlns="http://www.w3.org/2000/svg">
<rect width="350" height="200" rx="40" fill="#FDD9BE"/>
<mask id="mask0" mask-type="alpha" maskUnits="userSpaceOnUse" x="0" y="0" width="350" height="200">
<rect width="350" height="200" rx="40" fill="#FB9D5A"/>
</mask>
<g mask="url(#mask0)">
<path d="M295.5 73L369.545 201.25H221.455L295.5 73Z" fill="url(#paint0_linear)"/>
<path d="M51.5 105L108.225 203.25H-5.22466L51.5 105Z" fill="url(#paint1_linear)"/>
<path d="M173.5 10L284.784 202H62.2157L173.5 10Z" fill="url(#paint2_linear)"/>
<path d="M173.5 10L202.512 60.25H144.488L173.5 10Z" fill="white"/>
<path d="M295.5 73L311.521 100.75H279.479L295.5 73Z" fill="#FBF0E9"/>
<path d="M51.5 105L63.1913 125.25H39.8087L51.5 105Z" fill="#FBF0E9"/>
</g>
<defs>
<linearGradient id="paint0_linear" x1="295.5" y1="73" x2="295.5" y2="244" gradientUnits="userSpaceOnUse">
<stop stop-color="#FB9D5A"/>
<stop offset="1" stop-color="#FDD9BE" stop-opacity="0"/>
</linearGradient>
<linearGradient id="paint1_linear" x1="51.5" y1="105" x2="51.5" y2="236" gradientUnits="userSpaceOnUse">
<stop stop-color="#FB9D5A"/>
<stop offset="1" stop-color="#FDD9BE" stop-opacity="0"/>
</linearGradient>
<linearGradient id="paint2_linear" x1="173.5" y1="203" x2="173.5" y2="56" gradientUnits="userSpaceOnUse">
<stop stop-color="#FB9D5A"/>
<stop offset="1" stop-color="#FB755A"/>
</linearGradient>
</defs>
</svg>
