<svg width="40" height="40" viewBox="0 0 40 40" fill="none" xmlns="http://www.w3.org/2000/svg">
<circle cx="20" cy="20" r="20" fill="#FFEDC9"/>
<path d="M23.5 17.2C23.8 17 24 16.8 24.2 16.5C24.4 16.2 24.5 15.9 24.5 15.6C24.5 12.9 22 12.9 20 10.8C18 12.9 15.5 12.9 15.5 15.6C15.5 15.9 15.6 16.3 15.8 16.5C16 16.8 16.2 17 16.5 17.2" stroke="#FB9D5A" stroke-width="1.5" stroke-linecap="round" stroke-linejoin="round"/>
<path d="M26.6992 14.8001C27.2992 14.3001 27.7992 13.7001 28.1992 13.1001C28.9992 14.3001 30.4992 15.1001 30.4992 16.2001C30.4992 16.5001 30.3992 16.7001 30.2992 16.9001C30.1992 17.1001 29.9992 17.3001 29.7992 17.4001V20.5001" stroke="#FB9D5A" stroke-width="1.5" stroke-linecap="round" stroke-linejoin="round"/>
<path d="M29.8008 29.5V20.5C29.8008 20.1 29.6008 19.7 29.4008 19.4C29.1008 19.1 28.7008 19 28.3008 19H26.8008" stroke="#FB9D5A" stroke-width="1.5" stroke-linecap="round" stroke-linejoin="round"/>
<path d="M10.1992 29.5V20.5C10.1992 20.1 10.3992 19.7 10.5992 19.4C10.8992 19.1 11.2992 19 11.6992 19H13.1992" stroke="#FB9D5A" stroke-width="1.5" stroke-linecap="round" stroke-linejoin="round"/>
<path d="M8.80078 22.1001H31.3008" stroke="#FB9D5A" stroke-width="1.5" stroke-linecap="round" stroke-linejoin="round"/>
<path d="M22.1996 29.5V27.3C22.1996 26.7 21.9996 26.1 21.4996 25.7C21.0996 25.3 20.4996 25 19.8996 25C19.2996 25 18.6996 25.2 18.2996 25.7C17.8996 26.1 17.5996 26.7 17.5996 27.3V29.5H22.1996Z" fill="#FBC55A" stroke="#FBC55A" stroke-width="1.5" stroke-linecap="round" stroke-linejoin="round"/>
<path d="M28.1992 10.8V9.30005" stroke="#FBC55A" stroke-width="1.5" stroke-linecap="round" stroke-linejoin="round"/>
<path d="M13.3 14.8001C12.7 14.3001 12.2 13.7001 11.8 13.1001C11 14.3001 9.5 15.1001 9.5 16.2001C9.5 16.5001 9.6 16.7001 9.7 16.9001C9.8 17.1001 10 17.3001 10.2 17.4001V20.5001" stroke="#FB9D5A" stroke-width="1.5" stroke-linecap="round" stroke-linejoin="round"/>
<path d="M11.8008 10.8V9.30005" stroke="#FBC55A" stroke-width="1.5" stroke-linecap="round" stroke-linejoin="round"/>
<path d="M19.9996 7.8C20.1996 7.8 20.3996 7.6 20.3996 7.4C20.3996 7.2 20.1996 7 19.9996 7C19.7996 7 19.5996 7.2 19.5996 7.4C19.5996 7.6 19.7996 7.8 19.9996 7.8Z" fill="#FBC55A" stroke="#FBC55A" stroke-width="1.5" stroke-linecap="round" stroke-linejoin="round"/>
<path d="M25.1992 24.3V29.5" stroke="#FB9D5A" stroke-width="1.5" stroke-linecap="round" stroke-linejoin="round"/>
<path d="M14.8008 24.3V29.5" stroke="#FB9D5A" stroke-width="1.5" stroke-linecap="round" stroke-linejoin="round"/>
</svg>

