<svg width="40" height="40" viewBox="0 0 40 40" fill="none" xmlns="http://www.w3.org/2000/svg">
<circle cx="20" cy="20" r="20" fill="#D0DEF9"/>
<rect x="11" y="20" width="18" height="10" fill="#B0C6F2"/>
<path d="M32 15.9492C32 14.9322 31.1864 14.1186 30.1695 14.1186H24.0678L24.7797 13.7119C25.2881 13.4068 25.7966 13 26.3051 12.6949C26.3051 12.6949 26.3051 12.6949 26.4068 12.5932C27.4237 11.5763 28.0339 10.5593 28.0339 9.74576C28.0339 9.0339 27.7288 8.52542 27.2203 7.91525C26.5085 7.30508 25.8983 7 25.2881 7C24.3729 7 23.4576 7.50847 22.4407 8.52542C22.4407 8.52542 22.4407 8.52542 22.339 8.62712C21.5254 9.64407 20.8136 10.8644 20.3051 12.0847L20.1017 12.5932L19.7966 12.0847C19.2881 10.8644 18.5763 9.74576 17.661 8.62712C17.661 8.62712 17.661 8.62712 17.5593 8.52542C16.5424 7.50847 15.5254 7 14.7119 7C14.1017 7 13.4915 7.30508 12.8814 7.81356C12.3729 8.42373 12.0678 9.0339 12.0678 9.64407C12.0678 10.5593 12.5763 11.4746 13.5932 12.4915C13.5932 12.4915 13.5932 12.4915 13.6949 12.5932C14.2034 13 14.7119 13.3051 15.2203 13.6102L15.9322 14.1186H9.83051C8.81356 14.1186 8 14.9322 8 15.9492V19C8 20.0169 8.81356 20.8305 9.83051 20.8305H10.0339V29.1695C10.0339 30.1864 10.8475 31 11.8644 31H11.9661H29.1525C29.5593 31 29.9661 30.6949 29.9661 30.1864V30.0847V29.9831C29.9661 29.8814 29.9661 29.8814 29.9661 29.8814V20.8305H30.1695C31.1864 20.8305 32 20.0169 32 19V15.9492ZM14.7119 11.4746C13.7966 10.5593 13.6949 9.94915 13.6949 9.64407C13.6949 9.44068 13.6949 9.23729 14.1017 8.9322C14.3051 8.72881 14.5085 8.52542 14.8136 8.52542C15.1186 8.52542 15.6271 8.72881 16.5424 9.54237C17.3559 10.661 18.0678 11.7797 18.5763 13.1017L18.7797 13.6102L18.2712 13.4068C17.0508 13 15.8305 12.2881 14.7119 11.4746ZM19.1864 29.3729H11.661V20.7288H19.1864V29.3729ZM19.1864 19.2034H9.62712V15.7458H19.1864V19.2034ZM21.4237 13.2034C21.9322 11.9831 22.6441 10.7627 23.4576 9.64407C24.3729 8.72881 24.8814 8.62712 25.1864 8.62712C25.4915 8.62712 25.6949 8.83051 25.8983 9.0339C26.2034 9.33898 26.3051 9.54237 26.3051 9.74576C26.3051 10.0508 26.1017 10.5593 25.1864 11.4746C24.0678 12.2881 22.9492 13 21.6271 13.5085L21.2203 13.7119L21.4237 13.2034ZM28.4407 29.3729H20.8136V20.7288H28.4407V29.3729ZM30.4746 19.2034H20.8136V15.7458H30.4746V19.2034Z" fill="#5081E2"/>
</svg>
