<svg width="40" height="40" viewBox="0 0 40 40" fill="none" xmlns="http://www.w3.org/2000/svg">
<circle cx="20" cy="20" r="20" fill="#E0DAFC"/>
<g clip-path="url(#clip0)">
<path d="M9.90177 15.694C9.74677 15.694 9.59877 15.647 9.47177 15.558C9.13277 15.32 9.05077 14.851 9.28777 14.513C10.1638 13.265 11.2408 12.187 12.4898 11.311C14.7118 9.75198 17.3078 8.92798 19.9978 8.92798C20.7598 8.92798 21.5308 8.99498 22.2888 9.12798C25.7398 9.73298 28.7488 11.645 30.7608 14.513C30.8758 14.677 30.9208 14.876 30.8858 15.073C30.8508 15.27 30.7418 15.442 30.5778 15.557C30.4508 15.646 30.3018 15.693 30.1478 15.693C29.9038 15.693 29.6738 15.574 29.5338 15.374C27.7508 12.834 25.0858 11.14 22.0298 10.605C21.3578 10.487 20.6748 10.428 19.9998 10.428C17.6188 10.428 15.3198 11.158 13.3518 12.539C12.2458 13.315 11.2918 14.269 10.5158 15.375C10.3758 15.574 10.1468 15.694 9.90177 15.694Z" fill="#FB5A67"/>
<path d="M12.0738 17.8689C11.9348 17.8689 11.7998 17.8309 11.6808 17.7579C11.3288 17.5409 11.2188 17.0779 11.4348 16.7259C12.2588 15.3889 13.3998 14.2469 14.7358 13.4249C16.3248 12.4469 18.1478 11.9299 20.0078 11.9299C23.5468 11.9299 26.7638 13.7229 28.6118 16.7259C28.7168 16.8969 28.7488 17.0979 28.7028 17.2929C28.6568 17.4879 28.5368 17.6529 28.3658 17.7579C28.2478 17.8309 28.1118 17.8689 27.9728 17.8689C27.7108 17.8689 27.4718 17.7359 27.3338 17.5119C25.7598 14.9559 23.0208 13.4289 20.0078 13.4289C18.4248 13.4289 16.8728 13.8689 15.5208 14.7019C14.3828 15.4019 13.4118 16.3739 12.7108 17.5119C12.5758 17.7349 12.3368 17.8689 12.0738 17.8689Z" fill="#FB755A"/>
<path d="M14.627 19.431C14.487 19.431 14.35 19.392 14.231 19.318C14.061 19.212 13.942 19.047 13.897 18.851C13.851 18.656 13.885 18.455 13.991 18.285C14.561 17.368 15.347 16.581 16.263 16.009C17.392 15.305 18.689 14.933 20.016 14.933C22.493 14.933 24.751 16.183 26.058 18.276C26.164 18.446 26.198 18.647 26.152 18.842C26.107 19.037 25.988 19.203 25.818 19.309C25.699 19.383 25.562 19.423 25.421 19.423C25.16 19.423 24.922 19.291 24.785 19.07C23.754 17.418 21.972 16.432 20.017 16.432C18.97 16.432 17.947 16.726 17.057 17.281C16.334 17.732 15.714 18.353 15.264 19.076C15.127 19.298 14.888 19.431 14.627 19.431Z" fill="#ECA313"/>
<path d="M26.7756 29.931C26.1006 29.931 25.4296 29.778 24.8266 29.489C22.5916 28.417 21.6456 25.727 22.7166 23.492C23.2356 22.409 24.1446 21.594 25.2776 21.195C25.7626 21.024 26.2656 20.938 26.7726 20.938C27.1426 20.938 27.5106 20.984 27.8686 21.075C28.3846 19.496 29.4496 18.178 30.8986 17.336C31.0126 17.27 31.1426 17.234 31.2746 17.234C31.5416 17.234 31.7896 17.377 31.9236 17.607C32.0246 17.78 32.0516 17.982 31.9996 18.176C31.9486 18.37 31.8246 18.532 31.6516 18.632C30.3316 19.399 29.4106 20.698 29.1246 22.197C29.1246 22.197 29.1236 22.2 29.1236 22.202C29.0596 22.523 29.0266 22.853 29.0246 23.182C29.0246 23.394 29.0376 23.612 29.0646 23.827C29.0696 23.866 29.0716 23.898 29.0716 23.929C29.0716 24.306 28.7896 24.626 28.4156 24.673C28.3836 24.677 28.3526 24.679 28.3216 24.679C27.9446 24.679 27.6246 24.397 27.5776 24.023C27.5426 23.744 27.5246 23.462 27.5246 23.185C27.5256 22.969 27.5366 22.756 27.5576 22.546C27.2986 22.474 27.0336 22.438 26.7666 22.438C26.4296 22.438 26.0966 22.495 25.7746 22.609C25.0196 22.874 24.4136 23.418 24.0676 24.139C23.3536 25.628 23.9846 27.42 25.4736 28.135C25.8756 28.327 26.3226 28.429 26.7676 28.429H31.2736C31.6876 28.429 32.0236 28.765 32.0236 29.179C32.0236 29.593 31.6876 29.929 31.2736 29.929H26.7756V29.931Z" fill="#9584EB"/>
<path d="M8.77539 29.931C8.36139 29.931 8.02539 29.595 8.02539 29.181C8.02539 28.767 8.36139 28.431 8.77539 28.431H13.2754C13.7264 28.431 14.1744 28.329 14.5764 28.137C16.0654 27.423 16.6964 25.63 15.9824 24.141C15.6364 23.42 15.0304 22.876 14.2764 22.611C13.9544 22.498 13.6204 22.44 13.2844 22.44C13.0164 22.44 12.7524 22.476 12.4934 22.548C12.5144 22.758 12.5254 22.969 12.5264 23.178C12.5264 23.457 12.5104 23.737 12.4764 24.011C12.4284 24.399 12.1084 24.681 11.7314 24.681C11.7004 24.681 11.6694 24.679 11.6384 24.675C11.2634 24.628 10.9804 24.308 10.9814 23.931C10.9814 23.9 10.9834 23.869 10.9874 23.838C11.0144 23.623 11.0274 23.405 11.0274 23.19C11.0264 22.857 10.9934 22.528 10.9284 22.206C10.9274 22.199 10.9254 22.192 10.9244 22.185C10.6264 20.68 9.70939 19.396 8.40039 18.635C8.04239 18.427 7.92039 17.967 8.12839 17.61C8.26239 17.379 8.51139 17.236 8.77739 17.236C8.90939 17.236 9.03939 17.271 9.15339 17.338C10.6024 18.179 11.6674 19.497 12.1834 21.077C12.5424 20.986 12.9094 20.94 13.2794 20.94C13.7864 20.94 14.2894 21.026 14.7744 21.197C15.9074 21.595 16.8164 22.411 17.3354 23.494C18.4074 25.729 17.4604 28.419 15.2254 29.491C14.6224 29.78 13.9504 29.933 13.2824 29.933H8.77539V29.931Z" fill="#9584EB"/>
</g>
<defs>
<clipPath id="clip0">
<rect width="24" height="24" fill="white" transform="translate(8 7)"/>
</clipPath>
</defs>
</svg>

