<svg width="40" height="40" viewBox="0 0 40 40" fill="none" xmlns="http://www.w3.org/2000/svg">
<circle cx="20" cy="20" r="20" fill="#FFDED8"/>
<path d="M9.49922 31C9.19922 31 9.09922 30.9 8.89922 30.7C8.79922 30.5 8.69922 30.4 8.69922 30.2C8.99922 25.6 12.0992 21.7 16.4992 20.3C16.5992 20.3 16.5992 20.3 16.6992 20.3C16.7992 20.3 16.8992 20.3 16.9992 20.4C17.0992 20.4 17.0992 20.5 17.1992 20.5L19.8992 22.6L22.5992 20.5C22.6992 20.4 22.8992 20.3 23.0992 20.3C23.1992 20.3 23.2992 20.3 23.2992 20.3C27.6992 21.7 30.7992 25.6 31.0992 30.2C31.0992 30.4 31.0992 30.6 30.8992 30.7C30.7992 30.9 30.5992 30.9 30.3992 31C30.3992 31 30.3992 31 30.2992 31C29.8992 31 29.5992 30.7 29.5992 30.3C29.3992 27.7 28.1992 25.2 26.1992 23.5L25.0992 26.7C24.9992 26.9 24.8992 27.1 24.5992 27.2C24.4992 27.2 24.3992 27.2 24.3992 27.2C24.2992 27.2 24.0992 27.2 23.9992 27.1L19.9992 24.4L15.8992 27.1C15.7992 27.2 15.5992 27.2 15.4992 27.2C15.3992 27.2 15.2992 27.2 15.2992 27.2C14.9992 27.1 14.7992 27 14.7992 26.7L13.6992 23.5C11.6992 25.2 10.3992 27.6 10.2992 30.3C10.1992 30.7 9.89922 31 9.49922 31ZM15.8992 25.3L18.6992 23.4L16.6992 21.8C16.5992 21.8 16.3992 21.9 16.2992 22C16.1992 22 16.0992 22.1 15.9992 22.1C15.8992 22.1 15.7992 22.2 15.6992 22.2C15.5992 22.3 15.3992 22.3 15.2992 22.4H15.1992C15.0992 22.4 14.9992 22.5 14.9992 22.5L15.8992 25.3ZM24.0992 25.3L24.9992 22.6C24.7992 22.5 24.4992 22.3 24.1992 22.2L24.0992 22.1C23.9992 22.1 23.7992 22 23.6992 22C23.5992 22 23.5992 21.9 23.4992 21.9L23.2992 21.8L21.2992 23.4L24.0992 25.3Z" fill="#EF5B3E"/>
<path d="M24.5 19.8C24.4 19.8 24.2 19.8 24.1 19.7C23.9 19.6 23.7 19.3 23.7 19.1C23.7 18.7 23.7 18.3 23.6 17.9C22.6 18.7 21.3 19.1 20 19.1C18.4 19.1 16.9 18.5 15.8 17.3C14.7 16.1 14 14.6 14 13V12.9C14 12.8 14 12.8 14 12.7C14.1 11.2 14.7 9.8 15.7 8.8C16.9 7.6 18.4 7 20 7C22.6 7 24.5 7.8 25.6 9.3C26.5 10.6 26.7 12 26.7 13C26.7 18.4 25.1 19.5 24.8 19.7C24.7 19.7 24.6 19.8 24.5 19.8ZM15.6 14C15.8 14.8 16.2 15.6 16.8 16.2C17.7 17 18.8 17.5 20 17.5C21.1 17.5 22.2 17.1 23.1 16.3C22.7 15.6 22.3 14.9 21.8 14.3C21.4 13.7 20.9 13 20.5 12.3C19.6 13.3 18 14.1 16.7 14.1C16.3 14.1 15.9 14.1 15.6 14ZM24.6 16.2C24.7 16.4 24.7 16.6 24.8 16.7C25 15.9 25.2 14.7 25.2 13C25.2 11.1 24.4 8.8 20.7 8.5C20.8 9.2 20.9 9.8 21.2 10.4C21.6 11.5 22.3 12.4 22.9 13.3C23.6 14.2 24.2 15.1 24.6 16.2C24.6 16.1 24.6 16.2 24.6 16.2ZM15.5 12.4C15.8 12.6 16.2 12.6 16.6 12.6C18 12.6 19.5 11.3 19.8 10.8C19.5 10.1 19.4 9.3 19.3 8.6C18.4 8.7 17.5 9.2 16.8 9.9C16.1 10.5 15.6 11.4 15.5 12.4Z" fill="#EF5B3E"/>
<path d="M15.5 12.4C15.8 12.6 16.2 12.6 16.6 12.6C18 12.6 19.5 11.3 19.8 10.8C19.5 10.1 19.4 9.29998 19.3 8.59998C18.4 8.69998 17.5 9.19998 16.8 9.89998C16.1 10.5 15.6 11.4 15.5 12.4Z" fill="#FFDED8"/>
<path d="M24.5992 16.2C24.6992 16.4 24.6992 16.6 24.7992 16.7C24.9992 15.9 25.1992 14.7 25.1992 13C25.1992 11.1 24.3992 8.8 20.6992 8.5C20.7992 9.2 20.8992 9.8 21.1992 10.4C21.5992 11.5 22.2992 12.4 22.8992 13.3C23.5992 14.2 24.1992 15.1 24.5992 16.2C24.5992 16.1 24.5992 16.2 24.5992 16.2Z" fill="#FDC9BE"/>
<path d="M15.9 25.3L18.7 23.4L16.7 21.8C16.6 21.8 16.4 21.9 16.3 22C16.2 22 16.1 22.1 16 22.1C15.9 22.1 15.8 22.2 15.7 22.2C15.6 22.3 15.4 22.3 15.3 22.4H15.2C15.1 22.4 15 22.5 15 22.5L15.9 25.3Z" fill="#FFDED8"/>
<path d="M24.1008 25.3L25.0008 22.6C24.8008 22.5 24.5008 22.3 24.2008 22.2L24.1008 22.1C24.0008 22.1 23.8008 22 23.7008 22C23.6008 22 23.6008 21.9 23.5008 21.9L23.3008 21.8L21.3008 23.4L24.1008 25.3Z" fill="#FFDED8"/>
</svg>

