<svg width="360" height="200" viewBox="0 0 360 200" fill="none" xmlns="http://www.w3.org/2000/svg">
<rect opacity="0.3" x="10" width="350" height="200" rx="40" fill="#CE64CE"/>
<path d="M231.545 88.1237L167.548 125.47L167.548 50.7775L231.545 88.1237Z" fill="url(#paint0_linear)" fill-opacity="0.9"/>
<path d="M295.773 110.685L231.776 147.634L231.776 73.7365L295.773 110.685Z" fill="url(#paint1_linear)"/>
<path d="M359.998 94.6288L296.001 131.975L296.001 57.2826L359.998 94.6288Z" fill="url(#paint2_linear)"/>
<path opacity="0.66" d="M103.092 88.665L39.0944 125.614L39.0944 51.716L103.092 88.665Z" fill="url(#paint3_linear)"/>
<path d="M39 65.5L9.75 82.3875L9.75 48.6125L39 65.5Z" fill="url(#paint4_linear)" fill-opacity="0.5"/>
<path opacity="0.66" d="M102.773 131.387L84.1935 142.114L84.1935 120.659L102.773 131.387Z" fill="url(#paint5_linear)"/>
<path d="M167.318 113.124L103.321 150.47L103.321 75.7775L167.318 113.124Z" fill="url(#paint6_linear)" fill-opacity="0.8"/>
<defs>
<linearGradient id="paint0_linear" x1="231.545" y1="88.1237" x2="146.215" y2="88.1237" gradientUnits="userSpaceOnUse">
<stop stop-color="#CE64CE"/>
<stop offset="1" stop-color="#CE64CE" stop-opacity="0.3"/>
</linearGradient>
<linearGradient id="paint1_linear" x1="295.773" y1="110.685" x2="210.444" y2="110.685" gradientUnits="userSpaceOnUse">
<stop stop-color="#CE64CE"/>
<stop offset="1" stop-color="#CE64CE" stop-opacity="0.4"/>
</linearGradient>
<linearGradient id="paint2_linear" x1="359.998" y1="94.6288" x2="295.5" y2="94.6288" gradientUnits="userSpaceOnUse">
<stop stop-color="#CE64CE"/>
<stop offset="1" stop-color="#CE64CE" stop-opacity="0.8"/>
</linearGradient>
<linearGradient id="paint3_linear" x1="103.092" y1="88.665" x2="17.7619" y2="88.6649" gradientUnits="userSpaceOnUse">
<stop stop-color="#CE64CE"/>
<stop offset="1" stop-color="#CE64CE" stop-opacity="0.1"/>
</linearGradient>
<linearGradient id="paint4_linear" x1="39" y1="65.5" x2="-8.52372e-07" y2="65.5" gradientUnits="userSpaceOnUse">
<stop stop-color="#CE64CE"/>
<stop offset="1" stop-color="#CE64CE" stop-opacity="0"/>
</linearGradient>
<linearGradient id="paint5_linear" x1="102.773" y1="131.387" x2="78.0002" y2="131.387" gradientUnits="userSpaceOnUse">
<stop stop-color="#CE64CE"/>
<stop offset="1" stop-color="#CE64CE" stop-opacity="0.1"/>
</linearGradient>
<linearGradient id="paint6_linear" x1="167.318" y1="113.124" x2="81.9885" y2="113.124" gradientUnits="userSpaceOnUse">
<stop stop-color="#CE64CE"/>
<stop offset="1" stop-color="#CE64CE" stop-opacity="0.2"/>
</linearGradient>
</defs>
</svg>
