<svg width="350" height="302" viewBox="0 0 350 302" fill="none" xmlns="http://www.w3.org/2000/svg">
<path d="M350 0H0V302H350V0Z" fill="#FDE8BE"/>
<path d="M174.601 291.9C105.501 291.9 49.3008 235.7 49.3008 166.6C49.3008 97.5001 105.501 41.3 174.601 41.3C243.701 41.3 299.901 97.5001 299.901 166.6C299.901 235.7 243.701 291.9 174.601 291.9ZM174.601 43.2001C106.601 43.2001 51.3008 98.5 51.3008 166.5C51.3008 234.5 106.601 289.8 174.601 289.8C242.601 289.8 297.901 234.5 297.901 166.5C297.901 98.5 242.601 43.2001 174.601 43.2001Z" fill="#FFF3DA"/>
<path d="M174.6 271.1C232.3 271.1 279.2 224.3 279.2 166.6C279.2 108.9 232.3 62 174.6 62C116.9 62 70 108.8 70 166.6C70 224.4 116.8 271.1 174.6 271.1Z" fill="url(#paint0_radial)"/>
<path d="M174.6 271.1C121.15 271.1 77.0252 230.964 70.6377 179.277C70.2468 176.114 73.5669 173.939 76.4 175.4L90.7018 181.715C91.4237 182.034 92.0599 182.519 92.5583 183.131L93.3364 184.086C93.774 184.623 94.3185 185.063 94.9352 185.379L98.3 187.1L98.4953 187.225C99.9313 188.144 100.8 189.732 100.8 191.436V202C100.8 203.274 101.332 204.484 102.274 205.341C105.754 208.505 114.224 216.203 114.7 216.6C115.3 217.1 117.4 220.6 117.6 221.3C117.8 222 129.8 252.7 130.5 253.8C131.009 254.6 134.904 257.94 136.99 259.701C137.787 260.374 138.902 260.506 139.838 260.048C141.359 259.305 141.804 257.346 140.758 256.015C138.447 253.074 135 248.632 135 248.3C135 247.8 135.7 243.4 136.1 241.6C136.439 240.074 142.813 232.729 144.626 230.1C145.012 229.54 144.878 228.929 144.448 228.402L142.223 225.677C140.99 224.167 140.745 222.081 141.593 220.326C143.767 215.824 147.728 207.552 147.8 206.9C147.899 206.455 147.9 205.523 147.876 204.56C147.836 202.953 147.027 201.443 145.722 200.504L121.642 183.166C120.771 182.539 119.72 182.209 118.647 182.225L101.202 182.482C100.412 182.494 99.6321 182.32 98.9273 181.963C97.1771 181.076 93.9 179.367 93.9 179C93.9 178.835 93.9 178.418 93.9 177.933C93.9 176.512 93.2954 175.158 92.2373 174.21L80.6575 163.83C78.8359 162.198 78.9542 159.957 81.1561 158.891C83.3199 157.844 85.9925 156.659 87.8881 155.835C89.3964 155.18 91.1276 155.329 92.5135 156.214L93.0145 156.534C93.5985 156.907 94.0976 157.398 94.4881 157.97C95.5632 159.546 97.7496 162.676 97.9 162.3C98.1 161.8 97.4 157.8 97.4 157.2C97.4 156.6 97.2 152.7 97.8 152.3C98.3 151.9 100.9 150.3 101.4 149.9C101.764 149.609 102.553 143.215 102.954 139.764C103.115 138.382 103.834 137.129 104.95 136.299L117.072 127.287C117.934 126.646 118.98 126.3 120.055 126.3H121.063C122.369 126.3 123.623 126.811 124.557 127.723L126.112 129.242C126.933 130.043 128.052 130.464 129.198 130.4C131.908 130.25 133.724 127.551 132.842 124.984L127.789 110.278C127.181 108.51 125.639 107.229 123.79 106.956L123.009 106.841C119.237 106.284 117.451 101.88 119.77 98.8532L125.94 90.8001C126.245 90.4024 126.488 89.961 126.662 89.4909L130.314 79.5983C130.791 78.3072 130.17 76.9093 128.852 76.5118C126.901 75.9232 126.546 73.3278 128.372 72.4224C130.498 71.368 132.677 70.3832 134.9 69.468C138.022 68.1826 139.948 72.257 138.124 75.0984C137.488 76.0905 138.004 76.2521 138.355 77.3772L138.608 78.1866C139.519 81.0995 143.352 81.7441 145.165 79.2891C145.452 78.9002 145.812 78.5708 146.225 78.3194L152.732 74.3587C153.811 73.7024 155.22 74.1797 155.677 75.3561C155.99 76.1608 155.763 77.0729 155.109 77.6371C153.177 79.3054 149.255 82.7336 148.176 83.9955C147.969 84.2385 147.856 84.3751 148.066 84.6161C148.929 85.6059 151.102 90.5721 151.055 91.8845C150.938 95.1804 150.724 99.4135 150.638 101.08C150.613 101.561 150.505 102.027 150.32 102.472L147.152 110.056C146.919 110.614 146.79 111.21 146.769 111.814L146.508 119.501C146.447 121.301 147.793 122.839 149.585 123.019C151.618 123.222 153.374 121.609 153.344 119.567L153.334 118.922C153.313 117.487 154.058 116.154 155.292 115.42C159.905 112.674 170.989 106.007 171.7 104.9C172.291 103.981 173.184 101.681 173.728 100.21C174.043 99.3556 174.1 98.4289 173.911 97.5373L172.881 92.6723C172.576 91.2314 172.891 89.7138 173.718 88.4954C175.593 85.7348 178.973 80.6826 181.009 77.6339C182.03 76.1046 181.999 74.1094 180.937 72.6081C180.213 71.5841 179.965 70.3025 180.388 69.1219C180.428 69.0113 180.465 68.9042 180.5 68.8001C180.612 68.5201 181.006 67.5187 181.49 66.0946C182.266 63.8058 184.454 62.2261 186.854 62.5139C205.259 64.7212 222.208 71.7485 236.451 82.2795C238.307 83.6517 238.98 86.2509 238.543 88.5171C238.511 88.6802 238.48 88.8454 238.449 89.0126C237.767 92.7269 233.234 94.4389 230.459 91.8774C229.043 90.5704 226.96 90.2896 225.249 91.1749L206.251 101.001C205.37 101.457 204.638 102.16 204.097 102.991C202.267 105.805 198.046 111.894 195.234 115.771C193.855 117.673 194.012 120.586 195.689 122.232C197.043 123.561 199.134 123.783 200.737 122.769L203.37 121.105C204.297 120.518 205.392 120.253 206.486 120.35L207.853 120.472C211.292 120.779 213.393 124.394 211.956 127.533L211.429 128.686C210.341 131.063 207.605 132.201 205.152 131.296L201.658 130.007C199.201 129.101 196.471 130.222 195.389 132.606C189.341 145.922 171.033 186.316 171.2 186.9C171.355 187.443 178.309 194.665 181.421 197.877C182.367 198.853 183.668 199.395 185.026 199.387L196.02 199.322C198.161 199.309 200.071 200.658 200.762 202.684C202.48 207.729 205.5 216.755 205.5 217.9C205.5 218.987 204.347 222.747 203.607 225.05C203.224 226.243 203.282 227.536 203.791 228.682L208.17 238.549C209.53 241.613 213.46 242.497 216.001 240.311L227.411 230.495C228.308 229.723 228.902 228.659 229.088 227.491L231.509 212.3C231.634 211.511 231.947 210.765 232.42 210.122L251.984 183.553C253.479 181.523 253.229 178.698 251.401 176.962L248.748 174.443C245.805 171.648 247.74 166.692 251.798 166.629C253.014 166.611 254.18 167.075 255.043 167.933C259.268 172.135 272.017 184.882 272.1 185.8C272.276 186.77 273.54 191.546 273.837 192.665C273.879 192.823 273.929 192.977 273.986 193.13C274.128 193.506 274.298 193.954 274.457 194.39C274.767 195.24 274.779 196.165 274.532 197.036C262.367 240.045 222.01 271.1 174.6 271.1Z" fill="#FFF3DA"/>
<path d="M185.999 133.2C185.599 133.7 184.099 136.5 184.099 136.5C184.099 136.5 183.099 138.7 183.799 139.9C184.499 141.1 185.499 139.9 185.499 139.9C186.499 138.8 187.999 138.1 187.999 138.1C187.999 138.1 190.599 136.2 190.599 135.8C190.599 135.4 187.699 131.9 187.999 131.1C188.299 130.3 187.299 127.4 186.999 126.6C186.699 125.8 186.899 125.1 185.399 125.4C183.899 125.7 183.299 131 184.099 131C184.899 130.9 186.399 132.6 185.999 133.2Z" fill="#FFF3DA"/>
<path d="M182.401 136C182.701 135.6 183.901 133 183.501 132.8C183.101 132.6 181.701 131.3 181.701 131.3L179.301 132V136L180.501 137.6L182.401 136Z" fill="#FFF3DA"/>
<path d="M155.1 171.1C155.1 179.6 149.2 184.5 144.8 189.2C142.2 192 140 201.2 140 201.2C140 201.2 137.9 192 135.3 189.2C130.9 184.4 125 179.5 125 171.1C125 162.7 131.7 156 140.1 156C148.5 156 155.1 162.7 155.1 171.1Z" fill="#FB755A"/>
<path d="M140.1 177.1C143.4 177.1 146.1 174.4 146.1 171.1C146.1 167.8 143.4 165.1 140.1 165.1C136.8 165.1 134.1 167.8 134.1 171.1C134.1 174.4 136.8 177.1 140.1 177.1Z" fill="#FBC55A"/>
<path d="M95 110.4C95 116.2 90.9 119.6 87.8 122.8C86 124.7 84.5 131 84.5 131C84.5 131 83 124.7 81.2 122.8C78.1 119.5 74 116.1 74 110.4C74 104.7 78.7 100 84.5 100C90.4 100 95 104.6 95 110.4Z" fill="#FB755A"/>
<path d="M84.5008 114.5C86.8008 114.5 88.7008 112.7 88.7008 110.4C88.7008 108.1 86.8008 106.3 84.5008 106.3C82.2008 106.3 80.3008 108.1 80.3008 110.4C80.3008 112.6 82.2008 114.5 84.5008 114.5Z" fill="#FBC55A"/>
<path d="M256 123.4C256 129.2 251.9 132.6 248.8 135.8C247 137.7 245.5 144 245.5 144C245.5 144 244 137.7 242.2 135.8C239.1 132.5 235 129.1 235 123.4C235 117.6 239.7 113 245.5 113C251.4 113 256 117.6 256 123.4Z" fill="#FB755A"/>
<path d="M245.501 127.5C247.801 127.5 249.701 125.7 249.701 123.4C249.701 121.1 247.801 119.3 245.501 119.3C243.201 119.3 241.301 121.1 241.301 123.4C241.401 125.6 243.201 127.5 245.501 127.5Z" fill="#FBC55A"/>
<path d="M181.1 41.1C181.1 49.6 175.2 54.5 170.8 59.2C168.2 62 166 71.2 166 71.2C166 71.2 163.9 62 161.3 59.2C156.9 54.4 151 49.5 151 41.1C151 32.7 157.7 26 166.1 26C174.5 26 181.1 32.7 181.1 41.1Z" fill="#FB755A"/>
<path d="M166.1 47.1001C169.4 47.1001 172.1 44.4001 172.1 41.1001C172.1 37.8001 169.4 35.1001 166.1 35.1001C162.8 35.1001 160.1 37.8001 160.1 41.1001C160.1 44.4001 162.8 47.1001 166.1 47.1001Z" fill="#FBC55A"/>
<path d="M18 166.6C18 80.2 88.2 10 174.6 10C260.9 10 331.2 80.2 331.2 166.6C331.2 224.4 299.8 274.9 253.1 302H257C302.6 274.1 333.2 223.8 333.2 166.6C333.1 79.1 262 8 174.6 8C87.1 8 16 79.1 16 166.6C16 223.9 46.5 274.2 92.2 302H96C49.4 274.9 18 224.3 18 166.6Z" fill="#FFF3DA"/>
<path d="M0 61.4V65.3C15.1 39.3 35.9 17 60.7 0H57.2C34.2 16.3 14.6 37.2 0 61.4Z" fill="#FFF3DA"/>
<path d="M22.4 302H25.1C15.6 291.5 7.2 280 0 267.8V271.7C6.5 282.5 14 292.6 22.4 302Z" fill="#FFF3DA"/>
<path d="M326.7 302C335.4 292.2 343.3 281.5 350 270.2V266.2C342.7 279.1 333.9 291.1 324 302H326.7Z" fill="#FFF3DA"/>
<path d="M291.9 0H288.4C313.7 17.3 334.8 40.2 350 66.9V62.9C335.3 38.1 315.4 16.6 291.9 0Z" fill="#FFF3DA"/>
<defs>
<radialGradient id="paint0_radial" cx="0" cy="0" r="1" gradientUnits="userSpaceOnUse" gradientTransform="translate(94.8935 87.3546) rotate(42.3065) scale(293.273)">
<stop stop-color="#FBC55A"/>
<stop offset="1" stop-color="#FB9D5A"/>
</radialGradient>
</defs>
</svg>
