<?xml version="1.0" encoding="utf-8"?>
<!-- Generator: Adobe Illustrator 23.0.1, SVG Export Plug-In . SVG Version: 6.00 Build 0)  -->
<svg version="1.1" id="Layer_1" xmlns="http://www.w3.org/2000/svg" xmlns:xlink="http://www.w3.org/1999/xlink" x="0px" y="0px"
	 width="200px" height="200px" viewBox="0 0 200 200" style="enable-background:new 0 0 200 200;" xml:space="preserve">
<style type="text/css">
	.st0{fill:url(#SVGID_1_);}
	.st1{fill:#5a5a5a;}
</style>
<g>
	<linearGradient id="SVGID_1_" gradientUnits="userSpaceOnUse" x1="143.9531" y1="93.9774" x2="171.1028" y2="150.8023">
		<stop  offset="0" style="stop-color:#FFF200"/>
		<stop  offset="1" style="stop-color:#F15A29"/>
	</linearGradient>
	<path class="st0" d="M192.1,96.7c-5.1-5.1-11.9-7.9-19.1-7.9c-7,0-13.5,2.6-18.6,7.4c-5-4.8-11.6-7.4-18.6-7.4
		c-4.3,0-8.5,1-12.2,2.9c1.8,1.7,3.6,3.3,5.2,5c2.3-0.9,4.7-1.3,7.2-1.3c11.2,0,20.4,9.2,20.4,20.4c0,11.2-9.2,20.4-20.4,20.4
		c-11.2,0-20.4-9.2-20.4-20.4c0-4,1.2-7.7,3.1-10.8c-1.7-1.7-3.4-3.2-5-4.7c-3.2,4.5-4.9,9.9-4.9,15.5c0,7.2,2.8,14,7.9,19.1
		l37.7,37.7l37.7-37.7c5.1-5.1,7.9-11.9,7.9-19.1C200,108.6,197.2,101.8,192.1,96.7z"/>
	<path class="st1" d="M67.1,129.5c0.3,10.7,0.4,21.4-0.2,32c-0.4,6.4-2.5,13.2-7,17.8c-3.3,3.4-7.7,5.2-12.3,5.7
		c-2,0.2-4.1,0.3-6.2,0.3c-5.4,0-11.1-0.8-15.8-2.8c-11.3-5-17.2-16.9-19.3-28.5c-4.2-23,0.9-48.1,21.2-61.8c2.6-1.7,5.2-3.3,8-4.8
		c-0.5-1.6-1-3.2-1.4-4.9c-3.2,1.6-6.3,3.5-9.2,5.5C3.1,102.7-2.5,128.1,1,152.7c1.8,12.7,7.6,25.4,18.9,32.4
		c5.6,3.5,12.1,4.6,18.7,4.9c1.5,0.1,2.9,0.1,4.4,0.1c4.4,0,8.9-0.4,13-2.2c8.6-3.7,13.6-12.2,15.3-21.2c1.1-6,0.8-12.3,0.9-18.4
		c0.1-6.3,0-12.6-0.1-18.9c-0.1,0-0.2,0-0.3,0H67.1z"/>
	<path class="st1" d="M49.1,81.7c3.8-1.2,7.7-2.1,11.6-2.7c3.1-0.5,6.1-0.7,9.1-0.7c6.9,0,13.6,1.2,20,3.3c0.4-1.5,0.9-3.1,1.3-4.9
		c-6.6-2.2-13.6-3.4-20.9-3.4c-1.6,0-3.2,0.1-4.8,0.2c-5.9,0.4-11.8,1.6-17.5,3.4C48.2,78.6,48.7,80.2,49.1,81.7z"/>
	<path class="st1" d="M121.2,101.8c1.1-1.2,2.4-2.3,3.8-3.2c-6.1-6.1-12.9-11.4-20.2-15.6c-0.5,1.7-0.9,3.4-1.5,5
		C109.7,91.7,115.7,96.4,121.2,101.8z"/>
	<path class="st1" d="M98.3,13.4c-3.6-1.8-7.2-2-7.6-2l0,0.3c-0.9-1.1-2.3-1.9-3.9-1.9H83c-1.5,0-2.7,1.2-2.7,2.7v4.8
		c0,1.5,1.2,2.7,2.7,2.7h3.8c1.5,0,2.9-0.7,3.8-1.8l0,0.1c0.9,0,8.7,0.4,8.7,8.6c0,39-5.5,65.7-14.8,71.5
		c-5.8,2.4-11.1,3.1-15.6,3.1c-8.4,0-13.9-2.7-14.5-3C45.1,93,39.5,66.3,39.5,27.1c0-7.8,7-8.5,8.6-8.6c0.9,1,2.2,1.6,3.7,1.6h3.8
		c1.5,0,2.7-1.2,2.7-2.7v-4.8c0-1.5-1.2-2.7-2.7-2.7h-3.8c-1.5,0-2.8,0.7-3.8,1.7l0-0.1c-0.4,0-3.9,0.1-7.6,2c-5.1,2.6-8,7.4-8,13.6
		c0,55.2,10,72.7,18.4,77.6l0.1,0.1c0.1,0.1,0.8,0.4,1.8,0.9c1.7,0.8,12.3,6.5,12.9,18.8c0,0.6,0.5,1.1,1.2,1.1h4.7
		c0.6,0,1.1-0.5,1.2-1.1c0.7-13.3,13.2-18.9,13.2-18.9h-0.2c0.5-0.2,1-0.4,1.5-0.6l0.4-0.2c8.4-4.9,18.4-22.4,18.4-77.6
		C106.2,20.9,103.4,16.1,98.3,13.4z"/>
	<path class="st1" d="M119.6,115.8c0,9.1,7.3,16.4,16.4,16.4c9.1,0,16.4-7.3,16.4-16.4c0-9.1-7.3-16.4-16.4-16.4
		C126.9,99.3,119.6,106.7,119.6,115.8z M147.4,115.8c0,6.3-5.1,11.4-11.4,11.4c-6.3,0-11.4-5.1-11.4-11.4c0-6.3,5.1-11.4,11.4-11.4
		C142.3,104.3,147.4,109.5,147.4,115.8z"/>
	<ellipse transform="matrix(0.7071 -0.7071 0.7071 0.7071 -42.0188 130.0719)" class="st1" cx="136" cy="115.8" rx="7.4" ry="7.4"/>
</g>
</svg>
