<?xml version="1.0" encoding="utf-8"?>
<!-- Generator: Adobe Illustrator 23.0.1, SVG Export Plug-In . SVG Version: 6.00 Build 0)  -->
<svg version="1.1" id="Layer_1" xmlns="http://www.w3.org/2000/svg" xmlns:xlink="http://www.w3.org/1999/xlink" x="0px" y="0px"
	 width="100px" height="100px" viewBox="0 0 200 200" style="enable-background:new 0 0 200 200;" xml:space="preserve">
<style type="text/css">
	.st0{fill:none;}
	.st1{fill:url(#SVGID_1_);}
</style>
<g>
	<path class="st0" d="M174.2,37.7c-19.1-19.1-50.4-19.3-69.7-0.4l-1,1L67.2,74.6c-1.5,1.5-2.3,3.4-2.3,5.5c0,2.1,0.8,4,2.3,5.5
		c3,3,8,3,11,0l2.5-2.5c3.6-3.6,8.4-5.6,13.5-5.6h13.4c2.1,0,4-0.8,5.5-2.3l22.6-22.6c2.2-2.2,5.8-2.2,8,0c2.2,2.2,2.2,5.8,0,8
		l-4.9,4.9L152.1,79c0,0,0,0,0,0l25.3,25.3C193.4,84.9,192.4,55.8,174.2,37.7z"/>
	<linearGradient id="SVGID_1_" gradientUnits="userSpaceOnUse" x1="29.8829" y1="16.0088" x2="158.5462" y2="139.1382">
		<stop  offset="0" style="stop-color:#F15A2B"/>
		<stop  offset="1" style="stop-color:#F19A2A"/>
	</linearGradient>
	<path class="st1" d="M182.3,29.7c-22.1-22.1-57.6-23.6-81.4-4.2l-0.2-0.2l-1.4,1.4c-23.9-19.4-59.3-18-81.5,4.2
		c-23.4,23.4-23.7,61.6-0.7,85.4c0.1,0.1,0.1,0.2,0.2,0.2c-3.8,6.2-3.1,14.5,2.3,19.8l0.4,0.4c2.7,2.7,6.3,4.4,10.1,4.6
		c0.3,3.8,1.9,7.4,4.6,10.1l0.4,0.4l0,0c2.8,2.8,6.5,4.4,10.2,4.6c0.3,3.7,1.8,7.3,4.6,10.2l0.4,0.4l0,0c2.8,2.8,6.5,4.4,10.2,4.6
		c0.3,3.7,1.8,7.3,4.6,10.2l0.4,0.4l0,0c3.1,3.1,7.3,4.7,11.4,4.7c4.1,0,8.2-1.6,11.4-4.7l7-7l7.4,7.4c3.4,3.4,7.8,5.2,12.6,5.2
		c4.7,0,9.2-1.8,12.6-5.2c3.2-3.2,5-7.4,5.2-11.9c4.3-0.2,8.6-1.9,11.9-5.2c3.2-3.2,5-7.4,5.2-11.9c4.5-0.2,8.7-2,11.9-5.2
		c3.3-3.3,5-7.6,5.2-11.9c4.5-0.2,8.7-2,11.9-5.2c4.7-4.7,6.2-11.4,4.5-17.4C205.9,90.2,205.3,52.8,182.3,29.7z M34.7,128.7
		c-0.9,0.9-2.1,1.4-3.4,1.4c-1.3,0-2.5-0.5-3.4-1.4l-0.4-0.4c-1.9-1.9-1.9-4.9,0-6.7l8.3-8.3c0.9-0.9,2.1-1.4,3.4-1.4
		c1.2,0,2.4,0.5,3.4,1.4l0.4,0.4c1.9,1.9,1.9,4.9,0,6.7L34.7,128.7z M49.9,143.9c-1.9,1.9-4.9,1.9-6.7,0l-0.4-0.4
		c-0.9-0.9-1.4-2.1-1.4-3.4c0-1.3,0.5-2.5,1.4-3.4l8.3-8.4c1.9-1.9,4.9-1.9,6.7,0l0.4,0.4c1.9,1.9,1.9,4.9,0,6.7L49.9,143.9z
		 M65.2,159.2c-1.9,1.9-4.9,1.9-6.7,0l-0.4-0.4c-1.9-1.9-1.9-4.9,0-6.7l8.3-8.3c1.9-1.9,4.9-1.9,6.7,0l0.5,0.5
		c0.9,0.9,1.4,2.1,1.4,3.4c0,1.3-0.5,2.5-1.4,3.4L65.2,159.2z M88.8,166.1l-8.3,8.3c-1.9,1.9-4.9,1.9-6.7,0l-0.4-0.4
		c-1.9-1.9-1.9-4.9,0-6.7l8.3-8.3c1.9-1.9,4.9-1.9,6.7,0l0.4,0.4C90.7,161.2,90.7,164.3,88.8,166.1z M171.4,123.5
		c-1.2,1.2-2.8,1.9-4.6,1.9c-1.6,0-3.1-0.6-4.3-1.7c-0.1-0.1-0.1-0.2-0.2-0.2L135,96.2l0,0c-2.2-2.2-5.8-2.2-8,0c0,0,0,0,0,0
		c0,0,0,0,0,0c-2.2,2.2-2.2,5.8,0,8l0,0c0,0,0,0,0,0l27.3,27.3c2.5,2.5,2.5,6.6,0,9.1c-1.2,1.2-2.8,1.9-4.6,1.9
		c-1.7,0-3.2-0.6-4.4-1.7c0,0-0.1-0.1-0.1-0.2l-27.3-27.3l0,0c-2.2-2.2-5.8-2.2-8,0c0,0,0,0,0,0c0,0,0,0,0,0c-2.2,2.2-2.2,5.8,0,8
		l0,0l27.3,27.3c1.2,1.2,1.9,2.8,1.9,4.6s-0.7,3.3-1.9,4.6c-2.5,2.5-6.4,2.5-9,0.1c0-0.1-0.1-0.1-0.1-0.2l-27.3-27.3l0,0
		c-2.2-2.2-5.8-2.2-8,0c0,0,0,0,0,0c0,0,0,0,0,0c-2.2,2.2-2.2,5.8,0,8l0,0l0,0l27.3,27.3c1.2,1.2,1.9,2.8,1.9,4.6s-0.7,3.3-1.9,4.6
		c-1.2,1.2-2.8,1.9-4.6,1.9c-1.7,0-3.3-0.7-4.6-1.9l-9.6-9.6c0.8-4.9-0.7-10.1-4.5-13.9l-0.4-0.4c-2.8-2.8-6.5-4.4-10.2-4.6
		c0-0.4-0.1-0.8-0.1-1.2c-0.5-3.4-2.1-6.5-4.5-9l-0.5-0.5c-2.8-2.8-6.5-4.4-10.2-4.6c-0.3-3.7-1.8-7.3-4.6-10.2l-0.4-0.4
		c-2.8-2.8-6.4-4.4-10.1-4.6c-0.3-3.7-1.8-7.3-4.6-10.1l-0.4-0.4c-6.3-6.3-16.5-6.3-22.7,0l-2.9,2.9C6.5,88.7,6.8,57.8,25.8,38.8
		c17.7-17.7,46-19.1,65.4-4.1L59.2,66.6c-3.6,3.6-5.6,8.4-5.6,13.5c0,5.1,2,9.9,5.6,13.5c7.5,7.5,19.6,7.5,27.1,0l2.5-2.5
		c1.5-1.5,3.4-2.3,5.5-2.3h13.4c5.1,0,9.9-2,13.5-5.6l9.6-9.6l13.3,13.3l0,0c0,0,0,0,0,0l27.3,27.3
		C173.9,116.9,173.9,121,171.4,123.5z M177.4,104.3L152.1,79c0,0,0,0,0,0l-13.3-13.3l4.9-4.9c2.2-2.2,2.2-5.8,0-8
		c-2.2-2.2-5.8-2.2-8,0l-22.6,22.6c-1.5,1.5-3.4,2.3-5.5,2.3H94.3c-5.1,0-9.9,2-13.5,5.6l-2.5,2.5c-3,3-8,3-11,0
		c-1.5-1.5-2.3-3.4-2.3-5.5c0-2.1,0.8-4,2.3-5.5l36.3-36.3l1-1c19.3-18.9,50.6-18.7,69.7,0.4C192.4,55.8,193.4,84.9,177.4,104.3z"/>
</g>
</svg>
