<?xml version="1.0" encoding="utf-8"?>
<!-- Generator: Adobe Illustrator 23.0.1, SVG Export Plug-In . SVG Version: 6.00 Build 0)  -->
<svg version="1.1" id="Layer_1" xmlns="http://www.w3.org/2000/svg" xmlns:xlink="http://www.w3.org/1999/xlink" x="0px" y="0px"
	 width="200px" height="200px" viewBox="0 0 200 200" style="enable-background:new 0 0 200 200;" xml:space="preserve">
<style type="text/css">
	.st0{fill:#5a5a5a;}
	.st1{fill:url(#SVGID_1_);}
	.st2{fill:url(#SVGID_2_);}
	.st3{fill:url(#SVGID_3_);}
	.st4{fill:url(#SVGID_4_);}
</style>
<path class="st0" d="M99.9,35.8c10.7,0,19.4,8.7,19.4,19.4s-8.7,19.4-19.4,19.4s-19.4-8.7-19.4-19.4C80.5,44.4,89.1,35.8,99.9,35.8
	 M99.9,29.4c-14.2,0-25.8,11.6-25.8,25.8S85.7,81,99.9,81s25.8-11.6,25.8-25.8S114.1,29.4,99.9,29.4L99.9,29.4z"/>
<g>
	<linearGradient id="SVGID_1_" gradientUnits="userSpaceOnUse" x1="50.9826" y1="99.408" x2="127.5175" y2="201.0952">
		<stop  offset="0" style="stop-color:#FFF200"/>
		<stop  offset="1" style="stop-color:#F15A29"/>
	</linearGradient>
	<path class="st1" d="M197.6,162.4c-15.4-7.8-35.4-13.5-57.6-16.6l-30.8,32c-2.4,2.5-5.8,3.9-9.3,3.9s-6.9-1.4-9.3-3.9l-30.7-31.9
		c-21.8,3.1-41.5,8.8-56.7,16.5c-1.5,0.7-2.1,2.6-1.3,4c0.7,1.5,2.6,2.1,4,1.3c8.9-4.5,19.4-8.3,31-11.3c-0.9,0.7-1.7,1.5-2.5,2.3
		c-2.8,3-4.7,8.3-1.3,10.7c4.3,3,11.8-3.2,14.9,1c1.1,1.4,0.9,3.4,1.1,5.2c0.5,4.7,4.4,8.9,9,9.8c3.2,0.6,6.5-0.2,9.6,0.7
		c2,0.6,3.8,1.8,5.5,2.9c10.8,6.6,24.4,8.3,36.6,4.7c2.4-0.7,4.8-1.7,6.6-3.4c1.4-1.3,2.4-2.9,4-3.9c3-1.9,7.5-1,9.9-3.7
		c1.8-2,1.6-4.9,1.6-7.6c0-2.7,0.7-5.8,3.2-6.7c1.2-0.4,2.5-0.2,3.7,0c3.5,0.6,7.1,1.3,10.6,0.7s7-2.9,7.9-6.4
		c0.8-3.1-0.8-6.3-3.3-8.4c15.4,3.2,29.3,7.7,40.6,13.4c0.4,0.2,0.9,0.3,1.4,0.3c1.1,0,2.1-0.6,2.7-1.6
		C199.7,165,199.1,163.2,197.6,162.4z"/>
	<path class="st0" d="M92.9,175.8c1.8,1.9,4.4,3,7.1,3s5.3-1.1,7.1-3l50.1-52.1c0.2-0.3,0.5-0.5,0.7-0.8
		C169,109.2,175,92,174.7,74.3c-0.3-19.3-8.1-37.5-21.8-51.2C139.2,9.3,121.1,1.5,101.8,1c-0.6,0-1.2,0-1.8,0
		C58.8,1,25.3,34.5,25.3,75.7c0,17.3,6,34.1,17,47.4c0.1,0.2,0.3,0.4,0.5,0.6L92.9,175.8z M31.7,75.7C31.7,38,62.3,7.4,100,7.4
		c0.5,0,1.1,0,1.6,0c36.4,0.9,66,30.7,66.7,67.1c0.3,17-5.6,32.7-15.7,44.8l0,0l-50.1,52.1c-0.7,0.7-1.6,1.1-2.5,1.1
		s-1.8-0.4-2.5-1.1l-50.1-52.1l0,0C37.6,107.4,31.7,92.2,31.7,75.7z"/>
	<linearGradient id="SVGID_2_" gradientUnits="userSpaceOnUse" x1="69.0808" y1="85.7863" x2="145.6157" y2="187.4735">
		<stop  offset="0" style="stop-color:#FFF200"/>
		<stop  offset="1" style="stop-color:#F15A29"/>
	</linearGradient>
	<path class="st2" d="M156.3,177.8c-3.3-2.1-7.4-2.6-11.4-3.1c-1.1-0.1-2.2-0.2-3.2,0.3c-2.1,1.1-2,4-2.4,6.2
		c-0.7,3.3-3.2,6.4-6.6,7.2c-0.8,0.2-1.1,0.9-1.7,1.4c-0.6,0.5-1.1,1.4-0.7,2.1c0.4,0.9,1.6,1.2,2.6,1.2c7,0.5,14-0.8,20.3-3.8
		c1.8-0.8,3.5-1.8,4.7-3.4c1.2-1.5,1.8-3.7,1-5.5C158.4,179.4,157.4,178.5,156.3,177.8z"/>
	<linearGradient id="SVGID_3_" gradientUnits="userSpaceOnUse" x1="0.3203" y1="137.539" x2="76.8551" y2="239.2262">
		<stop  offset="0" style="stop-color:#FFF200"/>
		<stop  offset="1" style="stop-color:#F15A29"/>
	</linearGradient>
	<path class="st3" d="M40.3,179.1c-3-1.6-7.1-1-9.6,1.2c-3.3,2.2-3.1,8.1,0.4,10c1.6,0.9,3.6,1,5.4,0.8c2.5-0.3,5.2-1.3,6.5-3.5
		C44.8,184.8,43.3,180.6,40.3,179.1z"/>
	<linearGradient id="SVGID_4_" gradientUnits="userSpaceOnUse" x1="4.494" y1="134.3976" x2="81.0289" y2="236.0848">
		<stop  offset="0" style="stop-color:#FFF200"/>
		<stop  offset="1" style="stop-color:#F15A29"/>
	</linearGradient>
	<path class="st4" d="M52.3,189c-1.9-0.5-3.9,0.4-5.8-0.1c-0.8-0.3-1.8,0.1-2.6,1.2c-0.7,0.9-1.4,2.5-1.4,4c0,1.9,1,2.3,1.8,2.4
		c1.7,0.2,3.5,0.4,5.2,0.6c1.5,0.2,3.1,0.3,4.6-1.5c0.2-0.2,0.4-0.5,0.5-0.8c0.2-0.4,0.3-1,0.3-1.5c0.1-1.5-0.3-2.7-0.8-3.3
		C53.6,189.3,53,189.1,52.3,189z"/>
</g>
</svg>
