<?xml version="1.0" encoding="utf-8"?>
<!-- Generator: Adobe Illustrator 23.0.1, SVG Export Plug-In . SVG Version: 6.00 Build 0)  -->
<svg version="1.1" id="Layer_1" xmlns="http://www.w3.org/2000/svg" xmlns:xlink="http://www.w3.org/1999/xlink" x="0px" y="0px"
	 width="100px" height="100px" viewBox="0 0 200 200" style="enable-background:new 0 0 200 200;" xml:space="preserve">
<style type="text/css">
	.st0{fill:url(#SVGID_1_);}
	.st1{fill:url(#SVGID_2_);}
	.st2{fill:url(#SVGID_3_);}
	.st3{fill:url(#SVGID_4_);}
	.st4{fill:url(#SVGID_5_);}
</style>
<g>
	<linearGradient id="SVGID_1_" gradientUnits="userSpaceOnUse" x1="52.6302" y1="22.7952" x2="179.5022" y2="169.9667">
		<stop  offset="0" style="stop-color:#F15A2B"/>
		<stop  offset="1" style="stop-color:#F19A2A"/>
	</linearGradient>
	<path class="st0" d="M130.8,104v89.4c11.6-2.2,22.5-6.1,32.6-11.4V71.4L130.8,104z"/>
	<linearGradient id="SVGID_2_" gradientUnits="userSpaceOnUse" x1="19.9623" y1="50.9572" x2="146.8343" y2="198.1287">
		<stop  offset="0" style="stop-color:#F15A2B"/>
		<stop  offset="1" style="stop-color:#F19A2A"/>
	</linearGradient>
	<path class="st1" d="M108.6,126.2l-7.1,7.1l-7.1-7.1l-3.2-3.2v71.1c5.8,0.9,11.8,1.4,17.9,1.4c5,0,9.9-0.3,14.7-0.9V111
		L108.6,126.2z"/>
	<linearGradient id="SVGID_3_" gradientUnits="userSpaceOnUse" x1="-0.5871" y1="68.6722" x2="126.2849" y2="215.8437">
		<stop  offset="0" style="stop-color:#F15A2B"/>
		<stop  offset="1" style="stop-color:#F19A2A"/>
	</linearGradient>
	<path class="st2" d="M67.2,99l-15.6,15.6v65.6c10,5.7,21,10,32.6,12.5V116L67.2,99z"/>
	<linearGradient id="SVGID_4_" gradientUnits="userSpaceOnUse" x1="-15.9173" y1="81.8879" x2="110.9547" y2="229.0594">
		<stop  offset="0" style="stop-color:#F15A2B"/>
		<stop  offset="1" style="stop-color:#F19A2A"/>
	</linearGradient>
	<path class="st3" d="M18.4,147.8l-1.9,1.9c7.8,10.2,17.3,19.1,28.1,26.2v-54.3L18.4,147.8z"/>
	<linearGradient id="SVGID_5_" gradientUnits="userSpaceOnUse" x1="58.292" y1="17.9143" x2="185.164" y2="165.0858">
		<stop  offset="0" style="stop-color:#F15A2B"/>
		<stop  offset="1" style="stop-color:#F19A2A"/>
	</linearGradient>
	<path class="st4" d="M67.2,84.8l34.3,34.3l65.3-65.3L178,64.9l11-30.2l11-30.2c-0.1-0.2-30.2,11-30.2,11l-30.2,11l11.2,11.2
		l-49.4,49.4L67.2,52.9L0,120.2c2.4,6.2,5.2,12.2,8.6,17.8l2.7,2.7L67.2,84.8z"/>
</g>
</svg>
