<?xml version="1.0" encoding="utf-8"?>
<!-- Generator: Adobe Illustrator 23.0.1, SVG Export Plug-In . SVG Version: 6.00 Build 0)  -->
<svg version="1.1" id="Layer_1" xmlns="http://www.w3.org/2000/svg" xmlns:xlink="http://www.w3.org/1999/xlink" x="0px" y="0px"
	 width="100px" height="100px" viewBox="0 0 200 200" style="enable-background:new 0 0 200 200;" xml:space="preserve">
<style type="text/css">
	.st0{fill:url(#SVGID_1_);}
</style>
<g>
	<linearGradient id="SVGID_1_" gradientUnits="userSpaceOnUse" x1="27.8384" y1="23.2086" x2="172.7102" y2="177.3753">
		<stop  offset="0" style="stop-color:#F15A2B"/>
		<stop  offset="1" style="stop-color:#F19A2A"/>
	</linearGradient>
	<path class="st0" d="M147,53c-9.4-30.7-38-53-71.8-53C33.6,0,0,33.6,0,75.2C0,109,22.3,137.5,53,147c9.4,30.7,38,53,71.8,53
		c41.5,0,75.2-33.6,75.2-75.2C200,91,177.7,62.5,147,53z M63.4,112c0.6-3,1.4-5.9,2.5-8.7l30.7,30.7c-2.8,1-5.7,1.8-8.7,2.5
		L63.4,112z M71.7,91.6c1.4-2.3,3-4.4,4.6-6.5l19,19l19.5,19.5c-2.1,1.7-4.2,3.2-6.5,4.6L71.7,91.6z M104.2,95.4l-19-19
		c2.1-1.7,4.2-3.2,6.5-4.6l36.7,36.7c-1.4,2.3-3,4.4-4.6,6.5L104.2,95.4z M103.4,65.9c2.8-1,5.7-1.8,8.7-2.5L136.6,88
		c-0.6,3-1.4,5.9-2.5,8.7L103.4,65.9z M137.8,71.6l-9.4-9.4c2.8,0.2,5.6,0.5,8.4,1C137.3,66,137.6,68.8,137.8,71.6z M62.2,128.4
		l9.4,9.4c-2.8-0.2-5.6-0.5-8.4-1C62.7,134,62.4,131.2,62.2,128.4z M124.8,187.6c-25.7,0-47.8-15.5-57.5-37.7
		c2.6,0.3,5.2,0.4,7.8,0.4c41.5,0,75.2-33.6,75.2-75.2c0-2.6-0.1-5.2-0.4-7.8c22.2,9.7,37.7,31.8,37.7,57.5
		C187.6,159.4,159.4,187.6,124.8,187.6z"/>
</g>
</svg>
