<?xml version="1.0" encoding="utf-8"?>
<!-- Generator: Adobe Illustrator 23.0.1, SVG Export Plug-In . SVG Version: 6.00 Build 0)  -->
<svg version="1.1" id="Layer_1" xmlns="http://www.w3.org/2000/svg" xmlns:xlink="http://www.w3.org/1999/xlink" x="0px" y="0px"
	 width="200px" height="200px" viewBox="0 0 200 200" style="enable-background:new 0 0 200 200;" xml:space="preserve">
<style type="text/css">
	.st0{fill:#5a5a5a;}
	.st1{fill:none;stroke:#000000;stroke-width:0;stroke-linecap:round;stroke-linejoin:round;}
	.st2{fill:url(#SVGID_1_);}
</style>
<g>
	<path class="st0" d="M115.2,14.8c-0.2,0-0.3,0-0.5,0c-0.7,0-1.3,0-2,0.1c-0.7,0-1.4,0-2.2,0.1c-0.7,0-1.5,0.1-2.2,0.2
		c-0.7,0.1-1.4,0.1-2.1,0.2c-0.7,0.1-1.4,0.2-2.2,0.3c-0.7,0.1-1.4,0.2-2.1,0.3c-0.7,0.1-1.4,0.2-2.1,0.4c-0.7,0.1-1.4,0.2-2,0.4
		c-0.7,0.1-1.4,0.3-2.1,0.5c-0.7,0.2-1.3,0.3-2,0.5c-0.7,0.2-1.4,0.4-2.1,0.6c-0.7,0.2-1.3,0.4-2,0.6c-0.7,0.2-1.4,0.5-2,0.7
		c-0.6,0.2-1.3,0.4-1.9,0.6c-0.7,0.2-1.4,0.5-2,0.8c-0.6,0.2-1.2,0.5-1.8,0.7c-0.7,0.3-1.3,0.6-2,0.9c-0.6,0.3-1.2,0.5-1.8,0.8
		c-0.7,0.3-1.3,0.7-2,1c-0.6,0.3-1.2,0.6-1.7,0.9c-0.6,0.3-1.3,0.7-1.9,1.1c-0.6,0.3-1.1,0.6-1.7,1c-0.6,0.4-1.2,0.8-1.9,1.2
		c-0.5,0.3-1.1,0.7-1.6,1c-0.6,0.4-1.2,0.9-1.8,1.3c-0.5,0.4-1,0.7-1.5,1.1c-0.2,0.1-0.4,0.3-0.5,0.4c-0.4,0.3-0.8,0.6-1.2,1
		c-0.2,0.1-0.4,0.3-0.5,0.4c-0.3,0.2-0.6,0.5-0.9,0.7c-0.3,0.2-0.5,0.4-0.8,0.7c-0.3,0.3-0.6,0.5-1,0.8c-0.5,0.4-0.9,0.8-1.4,1.2
		c-0.6,0.5-1.1,1-1.7,1.6c-0.4,0.4-0.9,0.8-1.3,1.2c-0.5,0.5-1.1,1.1-1.6,1.7c-0.4,0.4-0.8,0.8-1.2,1.3c-0.2,0.3-0.4,0.5-0.7,0.8
		c-0.3,0.3-0.6,0.7-0.9,1c-0.1,0.2-0.3,0.3-0.4,0.5c-0.2,0.3-0.5,0.6-0.7,0.9c-0.2,0.2-0.3,0.4-0.5,0.6c-0.3,0.4-0.6,0.8-0.9,1.2
		c-0.4,0.5-0.7,0.9-1.1,1.4c-0.5,0.6-0.9,1.3-1.4,1.9c-0.3,0.5-0.7,0.9-1,1.4c-0.4,0.6-0.9,1.3-1.3,2c-0.3,0.5-0.7,1-1,1.5
		c-0.4,0.7-0.8,1.4-1.2,2c-0.3,0.5-0.6,1-0.9,1.5c-0.4,0.7-0.7,1.4-1.1,2.1c-0.1,0.1-0.1,0.3-0.2,0.4c0,0,0,0,0,0
		c1.9,1,3.9,2.1,6,3.2c2.4-4.7,5.2-9.1,8.4-13.2c7.6,4.3,15.1,7.7,22.3,10.2c-1.4,3-2.7,6.2-3.8,9.4l1.2-0.1l3.8-0.3l2.5-0.2
		c0.9-2.3,1.9-4.6,3-6.8c5.4,1.6,10.7,2.7,15.9,3.5c0-0.1,0-0.2,0.1-0.3c0.4-1.2,1.3-2,2.4-2.4l0.3-3.7c-5-0.7-10.2-1.7-15.5-3.2
		c8.9-15.6,20.6-27.1,27.1-32.8l-0.1,28.2l0.5,0.3l0.3,1.4l2.6,12.6l3.3,1.7l0-0.5c11.1-0.3,21.1-2,29.6-4.4
		c4.5,9.6,7.7,20.4,8.2,32.2l-35.4-0.2l1.6,4.8c1.5,0.7,2.9,1.4,4.3,2l29.5,0.2c-0.6,11.7-3.9,23.2-9.8,34.6
		c-9.9-2.8-19.4-4.1-28.3-4.4l0.1-10.8c-1.7-0.9-3.4-1.8-5.2-2.8l-1.6,0.5l-0.1,13.1c-7.6,0.2-14.6,1-21.1,2.3
		c-1.6,0.3-1.1,0.2-3.2,0.7c-1.6,0.3-3.1,0.7-4.6,1.1c-0.6-1.2-1.1-2.3-1.7-3.5l-6.2,2.8c0.4,0.9,0.8,1.7,1.2,2.6
		c-10.5,3.3-18.3,7.3-22.6,9.8c-10.3-12.8-16.7-28.9-17.2-46.5l30.3,0.2c0.2,7,1.4,13.9,3.4,20.7l0.7-0.6c-0.3-0.8-0.3-1.8,0.1-2.6
		c0.6-1.3,1.9-2.2,3.3-2.2c0.4,0,0.8,0.1,1.2,0.2l0.4,0.2c-1.3-5.2-2.1-10.5-2.3-15.7l11.3,0.1c-3.1-1.9-6.4-4-9.3-6.1l-9.8,4.4
		l-2.5,1.1l-1.5-2.3l-2-3.2L59.2,96l-22.8-0.1c0.3-5.6,1.2-11,2.6-16.2c-2.1-1.1-4.2-2.2-6.1-3.2c0,0,0,0,0,0c0,0.1-0.1,0.2-0.1,0.3
		c-0.2,0.6-0.3,1.1-0.5,1.7c-0.2,0.8-0.4,1.6-0.6,2.4c-0.1,0.6-0.3,1.1-0.4,1.7c-0.2,0.8-0.3,1.7-0.5,2.5c-0.1,0.6-0.2,1.1-0.3,1.7
		c-0.1,0.9-0.2,1.7-0.3,2.6c-0.1,0.6-0.2,1.1-0.2,1.7c-0.1,0.9-0.2,1.9-0.2,2.8c0,0.5-0.1,1-0.1,1.5c-0.1,1.4-0.1,2.9-0.1,4.4
		c-0.2,47,37.8,85.4,84.8,85.7c0.2,0,0.3,0,0.5,0c0.7,0,1.3,0,2-0.1c0.7,0,1.4,0,2.1-0.1c0.7,0,1.5-0.1,2.2-0.2
		c0.7-0.1,1.4-0.1,2.1-0.2c0.7-0.1,1.5-0.2,2.2-0.3c0.7-0.1,1.4-0.2,2.1-0.3c0.7-0.1,1.4-0.2,2.2-0.4c0.7-0.1,1.4-0.2,2-0.4
		c0.7-0.1,1.4-0.3,2.1-0.5c0.7-0.2,1.3-0.3,2-0.5c0.7-0.2,1.4-0.4,2.1-0.6c0.6-0.2,1.3-0.4,1.9-0.5c0.7-0.2,1.4-0.5,2.1-0.7
		c0.6-0.2,1.3-0.4,1.9-0.6c0.7-0.3,1.4-0.5,2.1-0.8c0.6-0.2,1.2-0.5,1.8-0.7c0.7-0.3,1.3-0.6,2-0.9c0.6-0.3,1.2-0.5,1.8-0.8
		c0.7-0.3,1.3-0.7,2-1c0.6-0.3,1.1-0.6,1.7-0.9c0.7-0.4,1.3-0.7,1.9-1.1c0.5-0.3,1.1-0.6,1.6-0.9c0.6-0.4,1.3-0.8,1.9-1.2
		c0.5-0.3,1.1-0.7,1.6-1c0.6-0.4,1.2-0.9,1.8-1.3c0.5-0.4,1-0.7,1.5-1.1c0.6-0.5,1.2-0.9,1.8-1.4c0.5-0.4,1-0.7,1.4-1.1
		c0.6-0.5,1.2-1,1.7-1.5c0.5-0.4,0.9-0.8,1.4-1.2c0.6-0.5,1.1-1,1.7-1.6c0.4-0.4,0.9-0.8,1.3-1.2c0.5-0.5,1.1-1.1,1.6-1.7
		c0.4-0.4,0.8-0.8,1.2-1.3c0.5-0.6,1-1.2,1.5-1.8c0.4-0.4,0.8-0.9,1.1-1.3c0.5-0.6,1-1.2,1.5-1.8c0.4-0.5,0.7-0.9,1.1-1.4
		c0.5-0.6,0.9-1.3,1.4-1.9c0.3-0.5,0.7-0.9,1-1.4c0.4-0.6,0.9-1.3,1.3-2c0.3-0.5,0.6-1,0.9-1.5c0.4-0.7,0.8-1.4,1.2-2
		c0.3-0.5,0.6-1,0.9-1.5c0.4-0.7,0.7-1.4,1.1-2.1c0.3-0.5,0.5-1,0.8-1.6c0.3-0.7,0.7-1.4,1-2.2c0.2-0.5,0.5-1.1,0.7-1.6
		c0.3-0.7,0.6-1.5,0.9-2.2c0.2-0.5,0.4-1.1,0.7-1.6c0.3-0.7,0.5-1.5,0.8-2.3c0.2-0.6,0.4-1.1,0.6-1.7c0.2-0.8,0.5-1.6,0.7-2.3
		c0.2-0.6,0.3-1.1,0.5-1.7c0.2-0.8,0.4-1.6,0.6-2.4c0.1-0.6,0.3-1.2,0.4-1.8c0.2-0.8,0.3-1.6,0.4-2.4c0.1-0.6,0.2-1.2,0.3-1.7
		c0.1-0.9,0.2-1.7,0.3-2.6c0.1-0.6,0.2-1.1,0.2-1.7c0.1-0.9,0.2-1.9,0.2-2.8c0-0.5,0.1-1,0.1-1.5c0.1-1.4,0.1-2.9,0.1-4.4
		C200.2,53.5,162.2,15,115.2,14.8z M78.5,55.7c-6.3-2.1-12.7-5-19.2-8.5c-0.6-0.3-1.1-0.6-1.7-0.9c0.3-0.3,0.5-0.5,0.8-0.8
		c0.5-0.5,0.9-1,1.4-1.4c3.1-3,6.4-5.8,9.9-8.2c0.6-0.5,1.3-0.9,1.9-1.3c0.7-0.4,1.3-0.9,2-1.3c9.4-5.8,20.1-9.7,31.6-11.1
		C97.8,28.9,86.9,40.4,78.5,55.7z M58.2,154.3c4.4-2.4,11.7-5.9,21.3-8.9c6.3,11,14.9,21.8,25.7,32.4
		C86.8,175.6,70.4,167,58.2,154.3z M111.6,174.6c-10.7-10.2-19.1-20.6-25.3-31c7.5-1.8,16.1-3.1,25.5-3.3L111.6,174.6z M119,61.9
		l0.2-36.5c6.5,5.9,17.8,17.4,26.3,32.8C137.7,60.2,128.8,61.7,119,61.9z M126,22.4c18.5,2.6,34.9,11.7,46.8,24.9
		c-3.9,2.2-11,5.8-20.6,8.9C144.1,40.9,133.3,29.2,126,22.4z M118.4,174.2l0.2-33.9c7.8,0.3,16.2,1.5,24.9,3.8
		C137.2,154.2,128.9,164.3,118.4,174.2z M124.3,177.8c10.8-10.4,19.5-21,25.8-31.8c6.7,2.2,13.6,5.1,20.6,8.9
		C158.6,167.3,142.4,175.6,124.3,177.8z M175.4,149.7c-7.5-4.1-14.8-7.4-21.9-9.8c6.1-12,9.5-24.3,10-36.6l29.6,0.2
		C192.4,121,185.8,137,175.4,149.7z M163.6,96.5c0-0.1,0-0.2,0-0.3c-0.5-12.5-3.8-23.9-8.3-33.9c10.4-3.4,18-7.4,22-9.7
		c9.4,12.4,15.3,27.6,15.9,44.1L163.6,96.5z"/>
	<path class="st1" d="M191.4,137.3c-0.3,0.5-0.5,1-0.8,1.6"/>
	<path class="st1" d="M194.7,129.7c-0.2,0.6-0.4,1.1-0.7,1.6"/>
	<path class="st1" d="M182.8,151.3c-0.3,0.5-0.7,0.9-1.1,1.4"/>
	<path class="st1" d="M187.4,144.5c-0.3,0.5-0.6,1-0.9,1.5"/>
	<path class="st1" d="M193.1,133.5c-0.2,0.5-0.5,1.1-0.7,1.6"/>
	<path class="st1" d="M185.2,147.9c-0.3,0.5-0.7,0.9-1,1.4"/>
	<path class="st1" d="M189.5,140.9c-0.3,0.5-0.6,1-0.9,1.5"/>
	<path class="st1" d="M174.8,160.5c-0.4,0.4-0.9,0.8-1.3,1.2"/>
	<path class="st1" d="M125.4,184.5c0.7-0.1,1.4-0.2,2.1-0.3"/>
	<path class="st1" d="M123.2,184.8c-0.7,0.1-1.4,0.1-2.1,0.2"/>
	<path class="st1" d="M40,59.1c0.3-0.5,0.6-1,0.9-1.5"/>
	<path class="st1" d="M135.8,182.6c-0.7,0.2-1.3,0.3-2,0.5"/>
	<path class="st1" d="M131.7,183.5c-0.7,0.1-1.3,0.2-2,0.4"/>
	<path class="st1" d="M139.8,181.5c-0.6,0.2-1.3,0.4-1.9,0.5"/>
	<path class="st1" d="M31.4,82.4c0.1-0.6,0.3-1.1,0.4-1.7"/>
	<path class="st1" d="M32.8,76.6c-0.2,0.6-0.3,1.1-0.5,1.7"/>
	<path class="st1" d="M46.7,48.7c0.4-0.5,0.7-0.9,1.1-1.4"/>
	<path class="st1" d="M180.3,154.5c-0.4,0.4-0.8,0.9-1.1,1.3"/>
	<path class="st1" d="M42.1,55.5c0.3-0.5,0.6-1,1-1.5"/>
	<path class="st1" d="M44.3,52.1c0.3-0.5,0.7-1,1-1.4"/>
	<path class="st1" d="M165.5,168.5c-0.5,0.4-1,0.7-1.5,1.1"/>
	<path class="st1" d="M168.7,166c-0.5,0.4-1,0.7-1.4,1.1"/>
	<path class="st1" d="M162.1,170.8c-0.5,0.3-1,0.7-1.6,1"/>
	<path class="st1" d="M171.8,163.3c-0.4,0.4-0.9,0.8-1.4,1.2"/>
	<path class="st1" d="M143.8,180.1c-0.6,0.2-1.3,0.4-1.9,0.6"/>
	<path class="st1" d="M177.6,157.5c-0.4,0.4-0.8,0.9-1.2,1.3"/>
	<path class="st1" d="M158.7,173c-0.5,0.3-1.1,0.6-1.6,0.9"/>
	<path class="st1" d="M147.6,178.6c-0.6,0.2-1.2,0.5-1.8,0.7"/>
	<path class="st1" d="M151.4,176.9c-0.6,0.3-1.2,0.5-1.8,0.8"/>
	<path class="st1" d="M155.1,175.1c-0.6,0.3-1.1,0.6-1.7,0.9"/>
	<path class="st1" d="M67.4,29.2c0.5-0.4,1.1-0.7,1.6-1"/>
	<path class="st1" d="M30.2,89.2c-0.1,0.6-0.2,1.1-0.2,1.7"/>
	<path class="st1" d="M78.1,23.1c0.6-0.3,1.2-0.5,1.8-0.8"/>
	<path class="st1" d="M30.6,86.6c0.1-0.6,0.2-1.1,0.3-1.7"/>
	<path class="st1" d="M196,125.7c-0.2,0.6-0.4,1.1-0.6,1.7"/>
	<path class="st1" d="M74.5,24.9c0.6-0.3,1.1-0.6,1.7-0.9"/>
	<path class="st1" d="M89.7,18.5c0.6-0.2,1.3-0.4,2-0.6"/>
	<path class="st1" d="M97.9,16.5c0.7-0.1,1.4-0.2,2-0.4"/>
	<path class="st1" d="M85.8,19.9c0.6-0.2,1.3-0.4,1.9-0.6"/>
	<path class="st1" d="M29.8,93.7c0,0.5-0.1,1-0.1,1.5"/>
	<path class="st1" d="M93.8,17.4c0.7-0.2,1.3-0.3,2-0.5"/>
	<path class="st1" d="M104.1,15.5c-0.7,0.1-1.4,0.2-2.1,0.3"/>
	<path class="st1" d="M106.3,15.2c0.7-0.1,1.4-0.1,2.1-0.2"/>
	<path class="st1" d="M110.6,14.9c0.7,0,1.4,0,2.2-0.1"/>
	<path class="st1" d="M81.9,21.4c0.6-0.3,1.2-0.5,1.8-0.7"/>
	<path class="st1" d="M199.5,109.1c-0.1,0.6-0.1,1.1-0.2,1.7"/>
	<path class="st1" d="M118.9,185.1c-0.7,0-1.4,0-2.1,0.1"/>
	<path class="st1" d="M198.9,113.4c-0.1,0.6-0.2,1.2-0.3,1.7"/>
	<path class="st1" d="M64.1,31.5c0.5-0.4,1-0.7,1.5-1.1"/>
	<path class="st1" d="M197.2,121.7c-0.1,0.6-0.3,1.1-0.5,1.7"/>
	<path class="st1" d="M198.2,117.6c-0.1,0.6-0.3,1.2-0.4,1.8"/>
	<path class="st1" d="M72.5,26c-0.6,0.3-1.1,0.6-1.7,1"/>
	<path class="st1" d="M199.9,104.8c0,0.5-0.1,1-0.1,1.5"/>
	<linearGradient id="SVGID_1_" gradientUnits="userSpaceOnUse" x1="34.8876" y1="28.2699" x2="33.7263" y2="84.0139">
		<stop  offset="0" style="stop-color:#FFF200"/>
		<stop  offset="1" style="stop-color:#F15A29"/>
	</linearGradient>
	<path class="st2" d="M27.7,32.5c-17.1,0-25.5,2.9-27.4,9.2c-2.3,7.5,6.4,14.7,14.2,20.1c4.1,2.8,9.1,5.9,15.1,9.2
		c0.7,0.4,1.4,0.8,2.1,1.2c0.7,0.4,1.4,0.8,2.1,1.1c0,0,0,0,0,0c1.9,1.1,4,2.1,6.1,3.2C47,80.2,55.1,84.1,64,88.3
		c0.8-1.1,1.7-2.5,2.6-4.1c0.7-1.6,1.3-3,1.7-4.3c-9.9-4.6-18.2-8.7-25-12.3c-2.1-1.1-4.1-2.2-6-3.2c0,0,0,0,0,0
		c-0.7-0.4-1.4-0.8-2.1-1.1c-0.7-0.4-1.4-0.8-2.1-1.2C13.2,50.9,10,45.9,9.5,44.5c2-1.7,8.7-2.5,18.1-2.5c5.2,0,11.3,0.3,17.9,0.8
		c2.6-3.1,5.3-6,8.3-8.7c-3.9-0.4-8.2-0.8-12.4-1C36.3,32.7,31.8,32.5,27.7,32.5z"/>
	<path class="st1" d="M59.1,35.5c-0.5,0.4-0.9,0.8-1.4,1.2"/>
	<path class="st1" d="M52,42.5c0.4-0.4,0.8-0.9,1.2-1.3"/>
	<path class="st1" d="M54.8,39.5c0.4-0.4,0.9-0.8,1.3-1.2"/>
	<path class="st0" d="M76.8,74L73,74.3c0,0-0.1,1.4-0.8,3.9c-0.1,0.5-0.3,1-0.5,1.5c-0.2,0.5-0.3,1-0.5,1.5c-0.5,1.3-1,2.7-1.8,4.4
		c0,0,0,0,0,0c0,0,0,0,0,0C68.7,86.9,68,88,67.4,89c-0.1,0.2-0.3,0.4-0.4,0.6c-0.3,0.5-0.6,0.9-0.9,1.3c-0.3,0.5-0.7,0.9-1,1.3
		c-1.6,2-2.6,2.9-2.6,2.9l0.5,0.8l1.5,2.4l9.2-4.2l2.2-1c1.3,0.9,2.7,1.9,4.1,2.9c3.8,2.5,7.9,5,10.9,6.8c2.6,1.6,4.4,2.6,4.4,2.6
		l-3.2,2.8l-3.6-1.3c-0.1,0-0.1,0-0.2,0c-0.4,0-0.6,0.5-0.3,0.8l2.1,2.2l-5.7,5.1l-3-1.1c-0.1,0-0.1,0-0.2,0c-0.4,0-0.6,0.5-0.3,0.8
		l1.8,1.9l-6,5.3l-0.2,0.2l-2.2-0.8c-0.1,0-0.1,0-0.2,0c-0.4,0-0.6,0.5-0.3,0.8l1.2,1.3l-3.9,3.5l-7.7,6.7l5.4,2.5l4.9-2.2L80,131
		l2-0.9l6.1,3.1c0.1,0,0.2,0.1,0.3,0.1c0.2,0,0.4-0.1,0.5-0.2c0,0,0,0,0.1-0.1l0.1-0.2l2.2-4c0.1-0.2,0.1-0.5,0-0.6
		c0-0.1-0.1-0.1-0.2-0.2l-0.7-0.4l-1.3-0.7l7.3-3.7l5,2.3c0.1,0,0.2,0.1,0.3,0.1c0.1,0,0.1,0,0.2,0c0,0,0,0,0,0
		c0.2-0.1,0.3-0.2,0.4-0.4l0.7-1.4l1.4-2.8c0.1-0.2,0.1-0.4,0.1-0.6c-0.1-0.2-0.2-0.3-0.3-0.4l-0.4-0.2l-0.4-0.2l8.3-2.7l1.9-0.6
		c1.7,1,3.3,1.9,4.9,2.7c12.9,6.9,20.2,8.7,24.4,8.7c4,0,5-1.7,5.2-2.1c0.4-0.8,3.6-8.3-27.8-22.3l-0.1-0.3l-3.2-9.9l0.8,0.4
		c0.1,0,0.2,0.1,0.3,0.1c0.3,0,0.5-0.1,0.7-0.4c0,0,0,0,0,0l2.1-4.2c0.2-0.4,0-0.8-0.3-1l-1.8-1l-3.1-1.7l-1.3-8.1l2.1,0.9
		c0.1,0,0.2,0.1,0.2,0.1c0.2,0,0.5-0.1,0.6-0.4l1.6-3.5l0.4-0.8c0.1-0.3,0-0.6-0.3-0.8l-0.1,0l-6-3.1l-1.6-7.7l-1.3-6.4l-5.2-2.9
		l-0.8,8.8l-0.6,6.6l-1.8-0.2c0,0,0,0-0.1,0c-0.1,0-0.2,0-0.3,0.1c-0.2,0.2-0.2,0.5,0,0.7l1.9,1.3l-0.8,8.3l-2.6-0.3c0,0,0,0-0.1,0
		c-0.4,0-0.6,0.6-0.2,0.8l2.7,1.8l-0.7,7.6l-3.1-0.4c0,0,0,0-0.1,0c-0.4,0-0.6,0.6-0.2,0.8l3.2,2.2l-0.4,4.2c0,0-12.8-5.8-21.4-8.5
		l-2.1-10.3L76.8,74z"/>
</g>
</svg>
