<?xml version="1.0" encoding="utf-8"?>
<!-- Generator: Adobe Illustrator 23.0.1, SVG Export Plug-In . SVG Version: 6.00 Build 0)  -->
<svg version="1.1" id="Layer_1" xmlns="http://www.w3.org/2000/svg" xmlns:xlink="http://www.w3.org/1999/xlink" x="0px" y="0px"
	 width="200px" height="200px" viewBox="0 0 200 200" style="enable-background:new 0 0 200 200;" xml:space="preserve">
<style type="text/css">
	.st0{fill:none;}
	.st1{fill:#fefefe;}
	.st2{fill:url(#SVGID_1_);}
	.st3{fill:url(#SVGID_2_);}
</style>
<g>
	<path class="st0" d="M117.4,57.5c1.4,0.4,2.8,0.9,4.2,1.4c2.2-2.4,4-5.1,5.3-8.2c-1.3-0.3-2.6-0.6-3.9-0.9
		C121.7,52.7,119.8,55.4,117.4,57.5z"/>
	<path class="st0" d="M78.6,40.3c0-12.8,10.4-23.2,23.2-23.2s23.2,10.4,23.2,23.2c0,1.1-0.1,2.1-0.2,3.1c1.3,0.3,2.6,0.6,3.9,0.9
		c0.2-1.3,0.3-2.7,0.3-4.1c0-15-12.2-27.2-27.2-27.2S74.6,25.3,74.6,40.3c0,1.3,0.1,2.6,0.3,3.9c1.3-0.3,2.6-0.6,3.9-0.9
		C78.6,42.3,78.6,41.3,78.6,40.3z"/>
	<path class="st0" d="M85.2,56.6c-1.9-2-3.5-4.3-4.7-6.9c-1.3,0.3-2.6,0.6-3.9,0.9c1.1,2.6,2.5,5,4.3,7.1
		C82.2,57.3,83.7,56.9,85.2,56.6z"/>
	<path class="st0" d="M127.6,61.5c2.1,1.1,3,3.7,2,5.8c-0.8,1.5-2.3,2.4-3.9,2.4c-0.6,0-1.3-0.1-1.9-0.4c-2.1-1-4.1-1.9-6.2-2.6
		c-1.6-0.6-3.3-1.1-4.9-1.5c-8.8-2.2-16.9-1.8-23.3-0.7c-1.8,0.3-3.5,0.7-5,1.1c-5.7,1.6-9.2,3.4-9.3,3.5c-2.1,1.2-4.7,0.4-5.9-1.7
		c-1.2-2.1-0.4-4.7,1.7-5.9c0.3-0.2,2.6-1.4,6.3-2.7c-1.7-2.2-3.1-4.7-4.1-7.3c-5.8,1.7-11.4,4-16.6,6.7l-1.9,1L53,57.9
		c-7-5.5-13.8-7.4-20.2-5.6c-2.3,0.6-4.1,1.7-5.4,2.6c3.2,3.8,7.1,9.6,10.1,14.3l1.3,2.1l-1.7,1.9c-5.7,6.4-9.5,13.5-11.3,21
		l-0.4,1.9l-6,1.6c-6.2,1.7-9.9,8.2-8.2,14.4l4.2,15.5c0.8,3,2.8,5.5,5.5,7.1c2.7,1.6,5.9,2,8.9,1.1l6.8-1.9l1.4,1.5
		c5.3,5.6,11.8,10.5,19.4,14.4l2.4,1.2l-3.9,14.1c-0.8,2.9-0.4,5.9,1.1,8.4c1.5,2.6,3.8,4.4,6.7,5.2c4.6,1.3,9.5-0.6,12.1-4.5
		L86.3,159l2,0.3c9.8,1.3,19.7,1.1,29.2-0.4l5-0.8l-1.3,4.9c-1.5,5.8,2,11.9,7.8,13.5c4.6,1.3,9.5-0.5,12.1-4.5l17.8-26.6l0.8-0.4
		c11.3-5.4,18.3-15.3,18.3-25.9c0-1.1-0.1-2.2-0.2-3.4l-0.2-1.7l1.2-1.2c1.9-1.8,3.1-5.1,3.1-8.5c0-3.9-1.4-7.4-3.6-9l-1-0.7
		l-0.3-1.2c-4.9-19.3-22.9-34.8-46.6-41.9c-1.3,3.2-3,6.1-5.2,8.7C126,60.7,126.8,61.1,127.6,61.5z M47.3,98.4
		c-3.9,0-7.1-3.2-7.1-7.1c0-3.9,3.2-7.1,7.1-7.1s7.1,3.2,7.1,7.1C54.4,95.2,51.2,98.4,47.3,98.4z"/>
	<path class="st1" d="M47.3,84.2c-3.9,0-7.1,3.2-7.1,7.1c0,3.9,3.2,7.1,7.1,7.1s7.1-3.2,7.1-7.1C54.4,87.4,51.2,84.2,47.3,84.2z"/>
	<path class="st1" d="M195.8,123.6c-8.8-9.8-7.2-17-7.2-17l-0.2,0.4c0.1-0.8,0.2-1.7,0.2-2.6c0-5.5-2-10.5-5.4-13.5
		c-5.8-21.1-25.5-37.9-50.9-45.5c-0.4,2.2-1,4.3-1.8,6.3c23.7,7,41.7,22.5,46.6,41.9l0.3,1.2l1,0.7c2.2,1.6,3.6,5.1,3.6,9
		c0,3.5-1.2,6.7-3.1,8.5l-1.2,1.2l0.2,1.7c0.2,1.2,0.2,2.3,0.2,3.4c0,10.6-7,20.5-18.3,25.9l-0.8,0.4l-17.8,26.6
		c-2.7,4-7.5,5.8-12.1,4.5c-5.8-1.6-9.3-7.7-7.8-13.5l1.3-4.9l-5,0.8c-9.5,1.5-19.3,1.6-29.2,0.4l-2-0.3L76,174.3
		c-2.7,4-7.5,5.8-12.1,4.5c-2.9-0.8-5.2-2.6-6.7-5.2c-1.5-2.6-1.8-5.6-1.1-8.4l3.9-14.1l-2.4-1.2c-7.6-3.9-14.1-8.8-19.4-14.4
		l-1.4-1.5l-6.8,1.9c-3,0.8-6.2,0.4-8.9-1.1c-2.7-1.6-4.7-4.1-5.5-7.1l-4.2-15.5c-1.7-6.2,2-12.7,8.2-14.4l6-1.6l0.4-1.9
		c1.8-7.5,5.6-14.6,11.3-21l1.7-1.9l-1.3-2.1c-3-4.7-6.9-10.5-10.1-14.3c1.3-0.9,3.2-1.9,5.4-2.6c6.4-1.8,13.2,0.1,20.2,5.6l1.7,1.3
		l1.9-1c5.2-2.8,10.8-5,16.6-6.7c-0.8-2-1.4-4.2-1.7-6.4c-5.6,1.6-11,3.8-16.1,6.3C39,39.7,25.3,46.8,20.2,52.4l-2.2,2.5l2.5,2.2
		c2,1.8,5.8,6.8,10.3,13.7c-5.1,6.2-8.6,12.9-10.6,20l-2.2,0.6C8,94.1,2.3,104.2,5,113.9l4.2,15.5c1.3,4.7,4.4,8.7,8.6,11.1
		c4.3,2.4,9.2,3,13.9,1.8l3-0.8c4.9,5,10.8,9.4,17.4,13.1l-2.5,8.9c-1.3,4.6-0.7,9.3,1.7,13.4c2.3,4.1,6.1,7.1,10.7,8.3
		c1.6,0.4,3.1,0.6,4.7,0.6c5.8,0,11.3-2.8,14.7-7.8l8-12c8.3,0.9,16.6,0.9,24.7-0.1c0.1,7.7,5.3,14.7,13,16.9
		c7.3,2,15.1-0.9,19.4-7.2l16.8-25.1c11.2-5.6,18.7-15.1,20.7-25.8c3.3,1.7,7.8,1.8,11.3,0.9C196.4,125.4,196.4,124.3,195.8,123.6z"
		/>
	<path class="st1" d="M85.2,56.6c-1.6,0.4-3,0.7-4.3,1.1c-1.3,0.4-2.5,0.8-3.6,1.2c-3.7,1.3-6,2.6-6.3,2.7c-2.1,1.2-2.9,3.8-1.7,5.9
		c1.1,2.1,3.8,2.9,5.9,1.7c0.1,0,3.6-1.9,9.3-3.5c1.5-0.4,3.2-0.8,5-1.1c6.4-1.2,14.5-1.5,23.3,0.7c1.6,0.4,3.2,0.9,4.9,1.5
		c2,0.7,4.1,1.6,6.2,2.6c0.6,0.3,1.3,0.4,1.9,0.4c1.6,0,3.1-0.9,3.9-2.4c1.1-2.1,0.2-4.7-2-5.8c-0.8-0.4-1.7-0.8-2.5-1.2
		c-1.2-0.5-2.3-1-3.5-1.4c-1.4-0.5-2.8-1-4.2-1.4C104.9,53.8,93.6,54.7,85.2,56.6z"/>
</g>
<g>
	<linearGradient id="SVGID_1_" gradientUnits="userSpaceOnUse" x1="85.6082" y1="3.8059" x2="111.6051" y2="62.2987">
		<stop  offset="0" style="stop-color:#FFF200"/>
		<stop  offset="1" style="stop-color:#F15A29"/>
	</linearGradient>
	<path class="st2" d="M101.8,9.6c-17,0-30.7,13.8-30.7,30.7c0,1.7,0.1,3.3,0.4,4.8c0.4,2.2,1,4.3,1.7,6.4c1,2.6,2.4,5.1,4.1,7.3
		c1.1-0.4,2.3-0.8,3.6-1.2c-1.8-2.1-3.2-4.5-4.3-7.1c-0.8-2-1.4-4.2-1.7-6.4c-0.2-1.3-0.3-2.6-0.3-3.9c0-15,12.2-27.2,27.2-27.2
		S129,25.3,129,40.3c0,1.4-0.1,2.7-0.3,4.1c-0.3,2.2-0.9,4.3-1.8,6.3c-1.3,3.1-3.1,5.8-5.3,8.2c1.2,0.4,2.3,0.9,3.5,1.4
		c2.2-2.6,4-5.5,5.2-8.7c0.8-2,1.4-4.1,1.8-6.3c0.3-1.6,0.4-3.3,0.4-5C132.6,23.3,118.8,9.6,101.8,9.6z"/>
	<linearGradient id="SVGID_2_" gradientUnits="userSpaceOnUse" x1="85.6006" y1="3.8093" x2="111.5974" y2="62.3022">
		<stop  offset="0" style="stop-color:#FFF200"/>
		<stop  offset="1" style="stop-color:#F15A29"/>
	</linearGradient>
	<path class="st3" d="M124.8,43.4c0.1-1,0.2-2.1,0.2-3.1c0-12.8-10.4-23.2-23.2-23.2c-12.8,0-23.2,10.4-23.2,23.2c0,1,0.1,2,0.2,3
		c0.3,2.2,0.9,4.4,1.8,6.4c1.1,2.6,2.7,4.9,4.7,6.9c8.4-1.9,19.7-2.8,32.2,0.9c2.4-2.1,4.3-4.8,5.6-7.7
		C123.9,47.8,124.5,45.7,124.8,43.4z"/>
</g>
</svg>
