<?xml version="1.0" encoding="utf-8"?>
<!-- Generator: Adobe Illustrator 23.0.1, SVG Export Plug-In . SVG Version: 6.00 Build 0)  -->
<svg version="1.1" id="Layer_1" xmlns="http://www.w3.org/2000/svg" xmlns:xlink="http://www.w3.org/1999/xlink" x="0px" y="0px"
	 width="200px" height="200px" viewBox="0 0 200 200" style="enable-background:new 0 0 200 200;" xml:space="preserve">
<style type="text/css">
	.st0{fill:none;}
	.st1{fill:#fefefe;}
	.st2{fill:url(#SVGID_1_);}
	.st3{fill:url(#SVGID_2_);}
	.st4{fill:url(#SVGID_3_);}
</style>
<g>
	<path class="st0" d="M59.7,65.7c-0.1-0.2-0.1-0.5-0.1-0.7v-2.2H15.5c-3.6,0-6.6,2.2-7.9,5.3c-0.4,1-0.7,2.2-0.7,3.3v67.2l0,0
		c0,1.5,0.4,2.9,1,4.1c0.1,0.2,0.3,0.5,0.4,0.7c0.6,0.9,1.4,1.7,2.3,2.3c0.2,0.2,0.5,0.3,0.7,0.4c1.2,0.7,2.6,1,4.1,1h104.1
		c2.4,0,4.5-1,6.1-2.5c0.4-0.4,0.7-0.8,1.1-1.3c0.2-0.2,0.3-0.5,0.4-0.7c0.7-1.2,1-2.6,1-4.1l0,0V71.4c0-1.2-0.2-2.3-0.7-3.3
		c-1.3-3.1-4.4-5.3-7.9-5.3h-44V65c0,0.3,0,0.5-0.1,0.7c-0.3,1.3-1.5,2.4-3,2.4h-9.7C61.3,68.1,60.1,67.1,59.7,65.7z M54.4,119.6
		c0,2.9-2.3,5.2-5.2,5.2h-3.4h-8H26.7c-2.9,0-5.2-2.3-5.2-5.2v-5.3c0-0.7,0-2.5,9.9-6.6c0,0,0.1-0.1,0.2-0.1
		c0.9-0.5,0.7-1.8,0.5-2.6c-0.6-0.7-1.3-1.8-1.6-3.6c-0.1-0.5-0.3-0.9-0.6-1.3c-0.5-0.7-0.8-1.8-0.8-2.7c0-0.8,0.2-1.5,0.6-2.1
		c0.1-0.1,0.2-0.3,0.3-0.4c-0.5-1.3-1-3.1-0.2-4.6c0.3-0.5,0.7-1.1,1.6-1.5c1-1.9,3.4-3,6.6-3c3.5,0,7.7,1.4,8.5,4.6
		c0.5,1.8,0,3.5-0.5,4.6c0.1,0.1,0.2,0.2,0.3,0.4c0.4,0.6,0.5,1.3,0.5,2c0,1-0.3,2-0.9,2.8c-0.3,0.4-0.5,0.8-0.5,1.3
		c-0.3,1.8-0.9,2.9-1.5,3.6c-0.2,0.8-0.4,2.1,0.5,2.6c0.1,0.1,0.2,0.1,0.2,0.1c9.8,4.1,9.8,5.9,9.8,6.6
		C54.4,114.4,54.4,119.6,54.4,119.6z M68.1,92.5h41.4c2.2,0,4,1.8,4,4s-1.8,4-4,4H68.1c-2.2,0-4-1.8-4-4S65.9,92.5,68.1,92.5z
		 M68.1,108h32.4c2.2,0,4,1.8,4,4s-1.8,4-4,4H68.1c-2.2,0-4-1.8-4-4S65.9,108,68.1,108z"/>
	<path class="st0" d="M180.1,58c-9.3-18.2-24.3-37.1-43.3-45.6c-15.5-7-33.2-5.5-47.4,3.8c-1.2,0.8-2.4,1.6-3.5,2.5
		c0.6-0.2,1.3-0.5,1.9-0.7c11.1-3.5,22.9-1.1,32.7,4.9c14.6,9.1,26.8,25,31.4,41.6c4.5,16.5,6.8,33.5,7.8,50.6
		c0.6,10.4,1.5,21.8,0.3,32.6c2-0.4,4-0.8,6-1.5c12.3-3.8,20.9-12.6,24.5-25C196.3,100.9,189.5,76.4,180.1,58z"/>
	<path class="st1" d="M191,64.1c-15.3-38-56.2-79.3-99.7-57.5c-14,7-28.3,21.8-28.2,38.5h-0.3c-1.7,0-3.1,1.4-3.1,3.1V53v2.9H15.5
		C7,55.9,0,62.9,0,71.4v67.2c0,8.5,7,15.5,15.5,15.5h104.1c8.5,0,15.5-7,15.5-15.5V71.4c0-8.5-7-15.5-15.5-15.5H75.5V53v-4.7
		c0-1.7-1.4-3.1-3.1-3.1h-0.9c0.8-10.5,10.3-18,20.1-20.6c8.5-2.2,17-0.3,24.4,4.1c11.9,7,22.6,19.8,27.5,32.8
		c4.5,12.1,6.4,25.9,7.8,38.7c1.5,13.9,2.1,28.1,1.6,42.2c-0.1,2.1-0.3,4.2-0.5,6.3c-5.6,0.3-11.2-0.1-16.8-0.7
		c-1.5,2.6-3.7,4.9-6.4,6.5c7,1,14.4,1.6,21.7,1.4c-2,7.2-5.7,13.7-11.6,19.3c-8.2,7.7-18.8,12.6-29.6,15.1
		c-12.8,3-29.5,3.4-39.9-6.1C63,178,58.2,166.7,60,157.1h-7.3c-1.1,8.5,1.3,17.3,5.8,24.6c7.1,11.5,19.4,16.8,32.6,17.6
		c25.3,1.6,55.7-11.7,65.6-36.4c1-2.5,1.8-5.1,2.4-7.8c13.5-1.7,25.9-7.2,33.7-19.9C205.3,114.1,199.6,85.7,191,64.1z M72.4,68.1
		c1.4,0,2.7-1,3-2.4c0.1-0.2,0.1-0.5,0.1-0.7v-2.2h44.1c3.6,0,6.6,2.2,7.9,5.3c0.4,1,0.7,2.2,0.7,3.3v67.2l0,0c0,1.5-0.4,2.9-1,4.1
		c-0.1,0.2-0.3,0.5-0.4,0.7c-0.3,0.5-0.7,0.9-1.1,1.3c-1.6,1.6-3.7,2.5-6.1,2.5H15.5c-1.5,0-2.9-0.4-4.1-1c-0.2-0.1-0.5-0.3-0.7-0.4
		c-0.9-0.6-1.7-1.4-2.3-2.3c-0.2-0.2-0.3-0.5-0.4-0.7c-0.7-1.2-1-2.6-1-4.1l0,0V71.4c0-1.2,0.2-2.3,0.7-3.3c1.3-3.1,4.4-5.3,7.9-5.3
		h44.1V65c0,0.3,0,0.5,0.1,0.7c0.3,1.3,1.5,2.4,3,2.4H72.4z M190.5,121.2c-3.5,12.4-12.2,21.2-24.5,25c-2,0.6-4,1.1-6,1.5
		c1.2-10.8,0.3-22.3-0.3-32.6c-0.9-17-3.2-34.1-7.8-50.6c-4.6-16.6-16.8-32.5-31.4-41.6c-9.8-6.1-21.6-8.4-32.7-4.9
		c-0.7,0.2-1.3,0.4-1.9,0.7c1.2-0.9,2.3-1.7,3.5-2.5c14.2-9.3,31.9-10.8,47.4-3.8c19,8.6,34,27.4,43.3,45.6
		C189.5,76.4,196.3,100.9,190.5,121.2z"/>
	
		<linearGradient id="SVGID_1_" gradientUnits="userSpaceOnUse" x1="27.9296" y1="120.9491" x2="42.3569" y2="66.3315" gradientTransform="matrix(1 0 0 -1 0 200)">
		<stop  offset="0" style="stop-color:#FFF200"/>
		<stop  offset="1" style="stop-color:#F15A29"/>
	</linearGradient>
	<path class="st2" d="M44.6,107.6c0,0-0.1-0.1-0.2-0.1c-0.9-0.5-0.7-1.9-0.5-2.6c0.6-0.7,1.3-1.8,1.5-3.6c0.1-0.5,0.3-0.9,0.5-1.3
		c0.6-0.7,0.9-1.8,0.9-2.8c0-0.8-0.2-1.5-0.5-2c-0.1-0.1-0.2-0.2-0.3-0.4c0.4-1.1,0.9-2.8,0.5-4.6c-0.8-3.1-4.9-4.6-8.5-4.6
		c-3.2,0-5.6,1.1-6.6,3c-0.9,0.4-1.3,1-1.6,1.5c-0.8,1.5-0.3,3.4,0.2,4.6c-0.1,0.1-0.2,0.3-0.3,0.4c-0.4,0.6-0.6,1.3-0.6,2.1
		c0,1,0.3,2,0.8,2.7c0.3,0.4,0.5,0.9,0.6,1.3c0.3,1.8,0.9,2.9,1.6,3.6c0.2,0.8,0.4,2.1-0.5,2.6c-0.1,0-0.1,0.1-0.2,0.1
		c-9.8,4.1-9.9,5.9-9.9,6.6v5.3c0,2.9,2.3,5.2,5.2,5.2h11.1h8h3.4c2.9,0,5.2-2.3,5.2-5.2v-5.3C54.4,113.5,54.4,111.8,44.6,107.6z"/>
	
		<linearGradient id="SVGID_2_" gradientUnits="userSpaceOnUse" x1="80.5212" y1="134.8412" x2="94.9485" y2="80.2236" gradientTransform="matrix(1 0 0 -1 0 200)">
		<stop  offset="0" style="stop-color:#FFF200"/>
		<stop  offset="1" style="stop-color:#F15A29"/>
	</linearGradient>
	<path class="st3" d="M68.1,100.5h41.4c2.2,0,4-1.8,4-4s-1.8-4-4-4H68.1c-2.2,0-4,1.8-4,4S65.9,100.5,68.1,100.5z"/>
	
		<linearGradient id="SVGID_3_" gradientUnits="userSpaceOnUse" x1="72.5122" y1="132.7256" x2="86.9394" y2="78.108" gradientTransform="matrix(1 0 0 -1 0 200)">
		<stop  offset="0" style="stop-color:#FFF200"/>
		<stop  offset="1" style="stop-color:#F15A29"/>
	</linearGradient>
	<path class="st4" d="M68.1,115.9h32.4c2.2,0,4-1.8,4-4s-1.8-4-4-4H68.1c-2.2,0-4,1.8-4,4S65.9,115.9,68.1,115.9z"/>
</g>
</svg>
