<?xml version="1.0" encoding="utf-8"?>
<!-- Generator: Adobe Illustrator 23.0.1, SVG Export Plug-In . SVG Version: 6.00 Build 0)  -->
<svg version="1.1" id="Layer_1" xmlns="http://www.w3.org/2000/svg" xmlns:xlink="http://www.w3.org/1999/xlink" x="0px" y="0px"
	 width="200px" height="200px" viewBox="0 0 200 200" style="enable-background:new 0 0 200 200;" xml:space="preserve">
<style type="text/css">
	.st0{fill:url(#SVGID_1_);}
	.st1{fill:url(#SVGID_2_);}
	.st2{fill:url(#SVGID_3_);}
	.st3{fill:url(#SVGID_4_);}
	.st4{fill:url(#SVGID_5_);}
	.st5{fill:#5a5a5a;}
	.st6{fill:url(#SVGID_6_);}
	.st7{fill:url(#SVGID_7_);}
	.st8{fill:url(#SVGID_8_);}
	.st9{fill:url(#SVGID_9_);}
	.st10{fill:url(#SVGID_10_);}
	.st11{fill:url(#SVGID_11_);}
	.st12{fill:url(#SVGID_12_);}
	.st13{fill:url(#SVGID_13_);}
	.st14{fill:url(#SVGID_14_);}
	.st15{fill:url(#SVGID_15_);}
	.st16{fill:#5a5a5a;}
</style>
<g>
	<linearGradient id="SVGID_1_" gradientUnits="userSpaceOnUse" x1="49.5676" y1="70.2417" x2="64.7923" y2="143.5103">
		<stop  offset="0" style="stop-color:#FFF200"/>
		<stop  offset="1" style="stop-color:#F15A29"/>
	</linearGradient>
	<path class="st0" d="M51.1,96.5v8.8h9.5c4.4,0,8,3.6,8,8v23.3c0,4.4-3.6,8-8,8h-9.5v6.6h19.2V96.5H51.1z"/>
	<linearGradient id="SVGID_2_" gradientUnits="userSpaceOnUse" x1="20.126" y1="76.3594" x2="35.3506" y2="149.628">
		<stop  offset="0" style="stop-color:#FFF200"/>
		<stop  offset="1" style="stop-color:#F15A29"/>
	</linearGradient>
	<rect x="25.4" y="144.6" class="st1" width="19.2" height="6.6"/>
	<linearGradient id="SVGID_3_" gradientUnits="userSpaceOnUse" x1="94.0749" y1="60.9934" x2="109.2995" y2="134.262">
		<stop  offset="0" style="stop-color:#FFF200"/>
		<stop  offset="1" style="stop-color:#F15A29"/>
	</linearGradient>
	<path class="st2" d="M109,144.6c-2.7,0-5-1.3-6.5-3.3v9.9h19.2v-6.6H109z"/>
	<linearGradient id="SVGID_4_" gradientUnits="userSpaceOnUse" x1="118.7245" y1="55.8714" x2="133.9491" y2="129.14">
		<stop  offset="0" style="stop-color:#FFF200"/>
		<stop  offset="1" style="stop-color:#F15A29"/>
	</linearGradient>
	<rect x="128.3" y="144.6" class="st3" width="19.2" height="6.6"/>
	<linearGradient id="SVGID_5_" gradientUnits="userSpaceOnUse" x1="75.755" y1="64.8002" x2="90.9796" y2="138.0687">
		<stop  offset="0" style="stop-color:#FFF200"/>
		<stop  offset="1" style="stop-color:#F15A29"/>
	</linearGradient>
	<rect x="76.8" y="81" class="st4" width="19.2" height="70.2"/>
	<path class="st5" d="M178.6,163.5H103c0,0,0,0.1,0,0.1c0,1-0.8,1.8-1.8,1.8h-25c-1,0-1.8-0.8-1.8-1.8c0,0,0-0.1,0-0.1h-72
		c-0.2,0-0.4,0.2-0.4,0.4v3.1c0,0.3,0.1,0.6,0.3,0.8l1.3,1.4c1.1,1.2,2.7,1.8,4.3,1.8H173c1.6,0,3.2-0.7,4.3-1.8l1.3-1.4
		c0.2-0.2,0.3-0.5,0.3-0.8v-3.1C179,163.7,178.8,163.5,178.6,163.5z"/>
	<linearGradient id="SVGID_6_" gradientUnits="userSpaceOnUse" x1="17.9414" y1="76.8134" x2="33.166" y2="150.0819">
		<stop  offset="0" style="stop-color:#FFF200"/>
		<stop  offset="1" style="stop-color:#F15A29"/>
	</linearGradient>
	<rect x="25.9" y="123.3" class="st6" width="5.5" height="10.2"/>
	<linearGradient id="SVGID_7_" gradientUnits="userSpaceOnUse" x1="10.37" y1="78.3866" x2="25.5947" y2="151.6552">
		<stop  offset="0" style="stop-color:#FFF200"/>
		<stop  offset="1" style="stop-color:#F15A29"/>
	</linearGradient>
	<rect x="18.6" y="128.4" class="st7" width="5.5" height="5.2"/>
	<linearGradient id="SVGID_8_" gradientUnits="userSpaceOnUse" x1="32.2825" y1="73.8334" x2="47.5071" y2="147.102">
		<stop  offset="0" style="stop-color:#FFF200"/>
		<stop  offset="1" style="stop-color:#F15A29"/>
	</linearGradient>
	<rect x="40.7" y="121.3" class="st8" width="5.5" height="12.3"/>
	<linearGradient id="SVGID_9_" gradientUnits="userSpaceOnUse" x1="39.2135" y1="72.3932" x2="54.4381" y2="145.6618">
		<stop  offset="0" style="stop-color:#FFF200"/>
		<stop  offset="1" style="stop-color:#F15A29"/>
	</linearGradient>
	<rect x="48" y="122.7" class="st9" width="5.5" height="10.9"/>
	<linearGradient id="SVGID_10_" gradientUnits="userSpaceOnUse" x1="127.9166" y1="53.9614" x2="143.1413" y2="127.2299">
		<stop  offset="0" style="stop-color:#FFF200"/>
		<stop  offset="1" style="stop-color:#F15A29"/>
	</linearGradient>
	<rect x="132.6" y="74.9" class="st10" width="10.1" height="51.7"/>
	<linearGradient id="SVGID_11_" gradientUnits="userSpaceOnUse" x1="112.6053" y1="57.1429" x2="127.83" y2="130.4115">
		<stop  offset="0" style="stop-color:#FFF200"/>
		<stop  offset="1" style="stop-color:#F15A29"/>
	</linearGradient>
	<rect x="119" y="98.3" class="st11" width="10.1" height="28.3"/>
	<linearGradient id="SVGID_12_" gradientUnits="userSpaceOnUse" x1="154.8145" y1="48.3722" x2="170.0391" y2="121.6408">
		<stop  offset="0" style="stop-color:#FFF200"/>
		<stop  offset="1" style="stop-color:#F15A29"/>
	</linearGradient>
	<rect x="159.7" y="65.4" class="st12" width="10.1" height="61.2"/>
	<linearGradient id="SVGID_13_" gradientUnits="userSpaceOnUse" x1="167.1503" y1="45.8089" x2="182.375" y2="119.0775">
		<stop  offset="0" style="stop-color:#FFF200"/>
		<stop  offset="1" style="stop-color:#F15A29"/>
	</linearGradient>
	<rect x="173.2" y="71.9" class="st13" width="10.1" height="54.7"/>
	<linearGradient id="SVGID_14_" gradientUnits="userSpaceOnUse" x1="142.3503" y1="50.9622" x2="157.5749" y2="124.2308">
		<stop  offset="0" style="stop-color:#FFF200"/>
		<stop  offset="1" style="stop-color:#F15A29"/>
	</linearGradient>
	<rect x="146.1" y="60.3" class="st14" width="10.1" height="66.3"/>
	<linearGradient id="SVGID_15_" gradientUnits="userSpaceOnUse" x1="25.3238" y1="75.2794" x2="40.5485" y2="148.5479">
		<stop  offset="0" style="stop-color:#FFF200"/>
		<stop  offset="1" style="stop-color:#F15A29"/>
	</linearGradient>
	<rect x="33.3" y="120.2" class="st15" width="5.5" height="13.4"/>
	<path class="st5" d="M193,20.1h-84c-2.8,0-5,2.2-5,5v35.4H21.3c-2.8,0-5,2.2-5,5v42.8H8.8c-2.8,0-5,2.2-5,5v23.3c0,2.8,2.2,5,5,5
		h7.4v12.6c0,2.8,2.2,5,5,5h138.3c2.8,0,5-2.2,5-5v-12.6H193c2.8,0,5-2.2,5-5V25.1C198,22.3,195.7,20.1,193,20.1z M8.7,127.3
		c-1.2,0-2.3-1-2.3-2.3s1-2.3,2.3-2.3s2.3,1,2.3,2.3S9.9,127.3,8.7,127.3z M13.8,136.6v-23.3h46.8v23.3H13.8z M159.6,154.2H21.3
		v-12.6h39.4c2.8,0,5-2.2,5-5v-23.3c0-2.8-2.2-5-5-5H21.3V65.5H104v71.1c0,2.8,2.2,5,5,5h50.5V154.2z M148.8,135
		c0-1.2,1-2.3,2.3-2.3s2.3,1,2.3,2.3s-1,2.3-2.3,2.3S148.8,136.2,148.8,135z M193,129.6h-84V25.1h84V129.6z"/>
	<circle class="st16" cx="151.1" cy="135" r="2.3"/>
	<path class="st16" d="M8.7,122.7c-1.2,0-2.3,1-2.3,2.3s1,2.3,2.3,2.3s2.3-1,2.3-2.3S9.9,122.7,8.7,122.7z"/>
</g>
</svg>
