<?xml version="1.0" encoding="utf-8"?>
<!-- Generator: Adobe Illustrator 23.0.6, SVG Export Plug-In . SVG Version: 6.00 Build 0)  -->
<svg version="1.1" id="Layer_1" xmlns="http://www.w3.org/2000/svg" xmlns:xlink="http://www.w3.org/1999/xlink" x="0px" y="0px"
	 viewBox="0 0 1386 291.6" style="enable-background:new 0 0 1386 291.6;" xml:space="preserve">
<style type="text/css">
	.st0{fill:#FFFFFF;}
</style>
<title>Artboard 1 copy 6</title>
<path class="st0" d="M149.9,95.2v29.4c0,0.8,0.7,1.5,1.5,1.5h33.3c22.7,0,41.2-18.7,41.2-41.7V71.4c0-0.3-0.3-0.5-0.6-0.4
	c-0.2,0-0.3,0.1-0.4,0.3c-3.6,13.3-15.6,22.5-29.4,22.6h-44.3C150.5,93.8,149.9,94.4,149.9,95.2C149.9,95.2,149.9,95.2,149.9,95.2z"
	/>
<path class="st0" d="M97.1,126.1h29.4c0.8,0,1.5-0.7,1.5-1.5V91.3c0-22.7-18.7-41.1-41.7-41.1h-13c-0.3,0-0.5,0.3-0.4,0.6
	c0,0.2,0.1,0.3,0.3,0.4c13.3,3.6,22.5,15.6,22.6,29.4v44.3C95.8,125.5,96.4,126.1,97.1,126.1z"/>
<path class="st0" d="M128.1,179.1v-29.4c0-0.8-0.7-1.5-1.5-1.5H93.2c-22.7,0-41.2,18.7-41.2,41.7v13c0,0.3,0.3,0.5,0.6,0.4
	c0.2,0,0.3-0.1,0.4-0.3c3.6-13.3,15.6-22.5,29.4-22.6h44.3C127.5,180.4,128.1,179.8,128.1,179.1z"/>
<path class="st0" d="M180.5,148.1h-29.4c-0.8,0-1.5,0.7-1.5,1.5c0,0,0,0,0,0V183c0,22.7,18.7,41.2,41.7,41.2h13
	c0.3,0,0.5-0.3,0.4-0.6c0-0.2-0.1-0.3-0.3-0.4c-13.3-3.6-22.5-15.6-22.6-29.4v-44.3C181.8,148.8,181.3,148.2,180.5,148.1z"/>
<path class="st0" d="M276.3,3.4c0-1.2-1-2.1-2.1-2.1l0,0l-82.6,0.1c-23,0-41.7,18.4-41.7,41.2v11.8c0,0.3,0.3,0.6,0.6,0.6
	c0.3,0,0.5-0.2,0.6-0.4c4.2-12.7,16.1-21.2,29.5-21.1l62.1-0.1c0.7,0,1.4,0.6,1.4,1.3c0,0,0,0,0,0l-0.1,61
	c-0.1,13.6-9.1,25.6-22.2,29.3c-0.3,0.1-0.5,0.4-0.4,0.7c0.1,0.3,0.3,0.4,0.6,0.4h12.7c23,0,41.7-18.4,41.7-34.2L276.3,3.4z"/>
<path class="st0" d="M1.7,3.5c0-1.2,1-2.1,2.1-2.1l82.6,0.1c23,0,41.7,18.4,41.7,41.2v11.8c0,0.3-0.3,0.6-0.6,0.6
	c-0.3,0-0.5-0.2-0.6-0.4c-4.2-12.7-16.1-21.2-29.5-21.1l-62.1-0.1c-0.7,0-1.4,0.6-1.4,1.4l0,0l0.1,61c0,13.6,9.1,25.6,22.2,29.4
	c0.3,0.1,0.5,0.4,0.4,0.7c-0.1,0.3-0.3,0.4-0.6,0.4H43.4c-23,0-41.7-18.4-41.7-34.2L1.7,3.5z"/>
<path class="st0" d="M274.2,272.5c1.2,0,2.1-1,2.1-2.1l0,0l-0.1-82.6c0-23-18.4-41.7-41.2-41.7h-11.8c-0.3,0-0.6,0.3-0.6,0.6
	c0,0.3,0.2,0.5,0.4,0.6c12.7,4.2,21.2,16.1,21.1,29.4l0.1,62.1c0,0.7-0.6,1.3-1.3,1.3l-61-0.1c-13.6-0.1-25.6-9.1-29.3-22.2
	c-0.1-0.3-0.4-0.5-0.7-0.4c-0.3,0.1-0.4,0.3-0.4,0.6l0.1,12.7c0,23,18.4,41.7,34.2,41.7L274.2,272.5z"/>
<path class="st0" d="M1.7,270.9c0,1.2,0.9,2.1,2.1,2.1c0,0,0,0,0,0l82.6-0.1c23,0,41.7-18.4,41.7-41.2V220c0-0.3-0.3-0.6-0.6-0.6
	c-0.3,0-0.5,0.2-0.6,0.4c-4.2,12.7-16.1,21.2-29.4,21.1L35.4,241c-0.7,0-1.3-0.6-1.4-1.3c0,0,0,0,0,0l0.1-61
	c0.1-13.6,9.1-25.6,22.2-29.3c0.3-0.1,0.5-0.4,0.4-0.7c-0.1-0.3-0.3-0.4-0.6-0.4H43.4c-23,0-41.7,18.4-41.7,34.2L1.7,270.9z"/>
<path class="st0" d="M1370.4,98.8c2.5,0,5,0.6,7.1,1.8c2.3,1.2,4.1,3,5.4,5.3c2.6,4.4,2.6,9.9,0,14.3c-1.3,2.2-3.1,4.1-5.4,5.3
	c-4.5,2.5-9.9,2.5-14.4,0c-2.2-1.2-4.1-3.1-5.3-5.3c-2.6-4.4-2.6-9.9,0-14.3c1.3-2.2,3.1-4.1,5.4-5.3
	C1365.4,99.5,1367.8,98.8,1370.4,98.8z M1370.4,101.6c-2,0-4,0.5-5.7,1.5c-1.8,1-3.3,2.4-4.3,4.2c-2.1,3.6-2.1,7.9,0,11.5
	c1,1.8,2.5,3.3,4.3,4.3c3.6,2,8,2,11.6,0c1.8-1,3.3-2.5,4.3-4.3c2.1-3.6,2.1-8,0-11.5c-1-1.8-2.5-3.2-4.3-4.2
	C1374.4,102.2,1372.4,101.6,1370.4,101.6L1370.4,101.6z M1363.8,120.8v-15.2h3.1c2.9,0,4.6,0,4.9,0c0.8,0,1.7,0.2,2.4,0.6
	c0.6,0.3,1.1,0.8,1.4,1.5c0.4,0.7,0.6,1.4,0.6,2.2c0,1-0.4,2.1-1.1,2.8c-0.8,0.8-1.9,1.3-3,1.5c0.4,0.1,0.8,0.3,1.1,0.6
	c0.4,0.4,0.7,0.7,1,1.2c0.1,0.2,0.5,0.8,1.1,1.8l1.8,3.1h-3.9l-1.3-2.5c-0.5-1.2-1.3-2.2-2.2-3.1c-0.6-0.4-1.4-0.7-2.2-0.6h-0.8v6.2
	L1363.8,120.8z M1366.9,112.1h1.3c1.1,0.1,2.2,0,3.4-0.2c0.4-0.1,0.7-0.4,1-0.7c0.2-0.3,0.4-0.8,0.4-1.2c0-0.4-0.1-0.8-0.4-1.1
	c-0.3-0.3-0.6-0.6-1-0.7c-1.1-0.2-2.2-0.3-3.4-0.2h-1.3V112.1z"/>
<polygon class="st0" points="403.3,122.4 353.1,122.4 353.1,71.8 331.7,71.8 331.7,198.8 353.1,198.8 353.1,141.8 403.3,141.8 
	403.3,198.8 424.7,198.8 424.7,71.8 403.3,71.8 "/>
<path class="st0" d="M513.8,109.7c-3.8-4.1-8.5-7.2-13.7-9.1c-5.4-1.9-11.1-2.8-16.9-2.8c-5.9-0.1-11.8,1.1-17.3,3.4
	c-5.3,2.3-10,5.7-13.7,10.1c-4,4.7-7,10.2-8.9,16.2c-2.2,7-3.2,14.4-3.1,21.7c0,8.9,1,16.7,3,23c1.7,5.9,4.7,11.3,8.6,16
	c3.7,4.2,8.3,7.4,13.5,9.4c5.5,2,11.4,3.1,17.3,3c5.8,0,11.6-1.1,17.1-3.3c5.3-2.2,10-5.5,13.8-9.7c4.1-4.7,7.2-10.2,9.2-16.1
	c2.3-7.2,3.4-14.8,3.3-22.4c0-9.2-1.1-17.1-3.2-23.5C521,119.8,517.9,114.3,513.8,109.7z M482.7,182.8c-3.1,0.1-6.2-0.5-9.1-1.6
	c-2.6-1.1-4.9-2.9-6.5-5.3c-2-3.1-3.4-6.6-4.1-10.3c-1-5.4-1.5-10.9-1.4-16.5c-0.1-5.6,0.5-11.2,1.7-16.6c0.8-3.7,2.4-7.2,4.6-10.3
	c1.7-2.3,4-4.1,6.7-5.2c2.8-1,5.8-1.6,8.8-1.5c3.1-0.1,6.2,0.5,9.1,1.7c2.6,1.2,4.9,3,6.6,5.4c2.1,3.1,3.6,6.6,4.4,10.3
	c1.2,5.3,1.7,10.8,1.6,16.3c0.1,5.5-0.4,11-1.6,16.4c-0.8,3.7-2.3,7.2-4.5,10.3c-1.7,2.4-4.1,4.2-6.8,5.3
	C489,182.3,485.9,182.9,482.7,182.8z"/>
<path class="st0" d="M591.9,187.3c-0.3-2.4-0.8-4.8-1.5-7.2l-0.6-2l-1.8,0.9c-2,0.9-4.1,1.6-6.3,2c-2.3,0.5-4.6,0.8-6.9,0.8
	c-4.2,0-7.1-0.8-8.7-2.4c-1.1-1.1-2.4-3.7-2.4-10.2v-51.7h22.8l0.2-1.5c0.7-4.8,1.1-9.7,1.1-14.6v-1.8h-24.2V76.1l-1.9,0.2
	c-2.5,0.3-5.4,0.7-8.6,1.2s-6,1.2-8.2,1.8l-1.3,0.4v20.1h-11.4v17.8h11.4v50.4c0,11,2.3,19.3,6.9,24.6c4.6,5.3,12.3,8.1,22.7,8.1
	c3.1,0,6.2-0.4,9.3-1c3.2-0.6,6.3-1.6,9.2-3l1.1-0.5l-0.1-1.2C592.6,192.3,592.3,189.8,591.9,187.3z"/>
<path class="st0" d="M667.4,135.4c-4.3-3.2-9-5.9-13.9-8.1c-4.8-2.2-9.4-4.5-13.4-6.8c-3.6-2-7-4.4-10-7.3c-2.4-2.2-3.7-5.4-3.6-8.6
	c0-4.7,1.4-8.4,4.2-11.3s8.1-4.3,15.9-4.3c4.3,0,8.5,0.3,12.8,0.9c4.3,0.5,8.5,1.3,12.6,2.4l1.6,0.4l0.5-1.6
	c0.8-2.8,1.4-5.6,1.9-8.5c0.5-3.1,0.8-5.7,0.9-7.9l0.1-1.5l-1.4-0.4c-4.4-1.1-8.8-1.8-13.3-2.2c-4.8-0.4-9.2-0.7-13.2-0.7
	c-5.9-0.1-11.9,0.7-17.6,2.3c-5.1,1.4-9.8,3.7-14,6.9c-3.9,3.1-7.1,7-9.3,11.4c-2.3,4.9-3.5,10.2-3.4,15.6c0,6.3,1.5,11.7,4.4,15.9
	c2.9,4.2,6.6,7.8,10.8,10.8c4.4,3.1,9,5.7,13.8,7.9c4.8,2.2,9.3,4.5,13.4,6.8c3.7,2.1,7,4.7,9.9,7.7c2.5,2.7,3.8,6.2,3.7,9.9
	c0,11.1-6.4,16.6-19.7,16.6c-5.1,0-10.2-0.5-15.3-1.4c-5.1-0.9-10.1-2.4-14.8-4.5l-1.7-0.7l-0.7,1.7c-1,2.5-1.8,5.1-2.5,7.7
	c-0.7,2.8-1.3,5.6-1.7,8.5l-0.2,1.3l1.3,0.5c5.4,2.2,11.1,3.7,16.9,4.5c5.6,0.8,11.3,1.3,16.9,1.3c13.2,0,23.7-3.4,31.4-10
	c7.6-6.7,11.6-15.8,11.6-27.1c0-6.5-1.5-12.2-4.4-16.7C675.3,142.3,671.6,138.5,667.4,135.4z"/>
<path class="st0" d="M762.8,185.1c-0.7-2.7-1.4-5.3-2.1-7.6l-0.7-2.1l-1.9,1.2c-2.9,1.7-6.1,2.9-9.4,3.6c-3.5,0.8-7,1.2-10.6,1.2
	c-3.7,0.1-7.4-0.4-10.9-1.5c-2.8-0.9-5.3-2.6-7.1-5c-2.2-3-3.6-6.5-4.4-10.1c-1.1-5.5-1.6-11.2-1.5-16.8c-0.1-5.1,0.4-10.2,1.6-15.1
	c0.8-3.4,2.3-6.6,4.3-9.3c1.8-2.2,4.1-3.9,6.8-4.9c3-1.1,6.2-1.6,9.4-1.5c3.4,0,6.8,0.3,10.1,0.9c3.3,0.6,6.6,1.5,9.7,2.8l1.7,0.7
	l0.6-1.8c0.9-2.6,1.7-5.3,2.3-8.1c0.6-2.7,1-5.4,1.3-8.1l0.1-1.3l-1.2-0.5c-4-1.5-8.2-2.5-12.5-3c-4.3-0.6-8.7-0.9-13-0.9
	c-5.5,0-11,1-16.2,3c-5.2,2.1-9.9,5.3-13.6,9.5c-4.2,4.8-7.3,10.5-9.2,16.6c-2.2,6.6-3.3,14.7-3.3,24c0,16.4,3.8,28.9,11.3,37.2
	c7.5,8.3,18.7,12.6,33.4,12.6c2.1,0,4.2-0.1,6.2-0.4c2.2-0.3,4.5-0.6,6.8-1c2.3-0.4,4.6-1,6.8-1.8c2-0.7,3.9-1.5,5.7-2.5l1-0.6
	l-0.1-1.2C764,190.5,763.5,187.8,762.8,185.1z"/>
<path class="st0" d="M847.5,104.9c-2.6-2.5-5.8-4.4-9.2-5.5c-3.7-1.1-7.5-1.7-11.3-1.6c-5.2,0-10.3,0.8-15.2,2.6
	c-4.4,1.7-8.5,4.1-12.2,7V59h-1.8c-2.5,0-5.3,0.1-8.5,0.4c-3.2,0.3-5.9,0.6-8.1,0.9l-1.5,0.2v138.2h19.8v-75.9
	c3.2-2,6.6-3.7,10.2-4.9c3.8-1.3,7.9-1.9,11.9-1.8c5.5,0,9.3,1.1,11.2,3.4c1.9,2.3,3,5.7,3,9.9v69.3h20v-70.2
	c0.1-4.8-0.6-9.5-2.2-14C852.3,110.9,850.2,107.7,847.5,104.9z"/>
<path class="st0" d="M912.6,97.8c-5.6,0-11.1,1-16.2,3.2c-5,2.2-9.5,5.5-13,9.7c-3.9,4.9-6.8,10.5-8.6,16.4
	c-2.2,7.6-3.2,15.4-3.1,23.3c0,16.7,3.9,29.4,11.5,37.6c7.7,8.2,19.1,12.5,34,12.5c2.4,0,4.9-0.1,7.6-0.4c2.7-0.2,5.4-0.7,8-1.2
	c2.6-0.5,5.1-1.2,7.6-2.1c2.3-0.7,4.5-1.7,6.6-2.8l1.1-0.6l-0.2-1.2c-0.4-2.7-1-5.4-1.7-8.1c-0.7-2.6-1.5-5.2-2.5-7.7l-0.8-2
	l-1.8,1.1c-3.3,1.9-6.9,3.3-10.6,4.1c-4.2,1.1-8.6,1.7-13,1.7c-4.1,0.1-8.2-0.5-12.1-1.7c-2.8-1-5.4-2.7-7.3-5
	c-2-2.5-3.3-5.4-3.9-8.5c-0.9-4.1-1.3-8.2-1.2-12.4h55.9l0.2-1.6c0.2-2.2,0.4-4.6,0.5-7.1s0.1-4.8,0.1-6.8c0-12.7-3.1-22.7-9.2-29.8
	C934.3,101.5,924.8,97.8,912.6,97.8z M893.2,139c0.4-8.8,2.2-15.1,5.4-18.9c3.3-4,7.8-6,13.7-6c5.9,0,10,1.6,13,4.8
	c3,3.2,4.5,8.6,4.5,16v2.9c0,0.4,0,0.8,0,1.2L893.2,139z"/>
<path class="st0" d="M1033.4,59.4c-3.2,0.3-6,0.6-8.2,0.9l-1.5,0.2v39.9c-2.3-0.7-4.6-1.2-7-1.7c-3.2-0.6-6.5-1-9.8-1
	c-6.1-0.1-12.1,1-17.8,3.1c-5.4,2-10.1,5.4-13.9,9.7c-4.1,5-7.1,10.7-8.9,16.9c-2.1,6.8-3.1,15.1-3.1,24.6
	c-0.1,7.2,0.7,14.5,2.4,21.5c1.3,5.4,3.8,10.6,7.1,15.1c2.9,3.9,6.8,6.9,11.2,9c4.6,2,9.5,3,14.5,2.9c4.9,0.1,9.7-0.7,14.3-2.3
	c4-1.5,7.6-3.6,10.9-6.3v6.8h20V59h-1.8C1039.5,59,1036.6,59.1,1033.4,59.4z M1023.7,119.1v57.5c-2.9,1.8-6,3.3-9.3,4.2
	c-3.5,0.9-7.1,1.4-10.7,1.4c-2.9,0-5.8-0.4-8.5-1.4c-2.4-0.9-4.4-2.6-5.8-4.7c-1.8-3-3.1-6.3-3.7-9.7c-1-5.3-1.4-10.8-1.3-16.2
	c-0.1-5.7,0.4-11.4,1.6-17c0.8-3.8,2.3-7.3,4.5-10.4c1.8-2.4,4.3-4.2,7.1-5.3c3.2-1.1,6.7-1.7,10.1-1.6c3,0,6,0.4,8.9,1
	C1019.1,117.3,1021.4,118,1023.7,119.1z"/>
<path class="st0" d="M1128,99.5c-3.1,0.3-5.8,0.5-8.1,0.7l-1.6,0.2v76c-3,1.7-6.1,3.1-9.4,4.2c-3.8,1.1-7.8,1.7-11.7,1.7
	c-5.5,0-9.4-1.2-11.4-3.5c-2-2.3-3.1-5.8-3.1-10.1V99.1h-1.8c-2.6,0-5.5,0.1-8.6,0.4c-3.1,0.3-5.8,0.5-8.1,0.7l-1.6,0.2v69.5
	c-0.1,4.9,0.7,9.8,2.3,14.5c1.3,3.6,3.5,6.9,6.3,9.5c2.6,2.4,5.8,4.1,9.2,5.1c3.5,1,7.2,1.6,10.9,1.5c5.1,0,10.2-0.8,15-2.5
	c4.3-1.6,8.3-3.8,12-6.5v7.2h20V99.1h-1.8C1134,99.1,1131.1,99.3,1128,99.5z"/>
<path class="st0" d="M1167.5,59.4c-3.2,0.3-5.9,0.6-8.1,0.9l-1.5,0.2v138.2h19.8V59h-1.8C1173.5,59,1170.7,59.1,1167.5,59.4z"/>
<path class="st0" d="M1233.1,97.8c-5.6,0-11.1,1-16.3,3.2c-5,2.2-9.5,5.5-13,9.7c-3.9,4.9-6.8,10.5-8.6,16.4
	c-2.2,7.6-3.2,15.4-3.1,23.3c0,16.7,3.9,29.4,11.6,37.6c7.7,8.2,19.1,12.5,34,12.5c2.3,0,4.9-0.1,7.6-0.4c2.7-0.2,5.4-0.7,8-1.2
	c2.6-0.5,5.1-1.2,7.6-2.1c2.3-0.7,4.5-1.7,6.6-2.8l1.1-0.6l-0.2-1.2c-0.4-2.7-1-5.4-1.7-8.1c-0.7-2.6-1.5-5.2-2.4-7.7l-0.8-2
	l-1.8,1.1c-3.3,1.9-6.9,3.3-10.6,4.1c-4.2,1.1-8.6,1.7-13,1.7c-4.1,0.1-8.2-0.5-12.1-1.7c-2.8-1-5.4-2.7-7.3-5c-2-2.5-3.3-5.4-4-8.5
	c-0.9-4.1-1.3-8.2-1.2-12.4h55.9l0.2-1.6c0.2-2.2,0.4-4.6,0.5-7.1s0.1-4.8,0.1-6.8c0-12.7-3.1-22.7-9.2-29.8
	C1254.8,101.5,1245.3,97.8,1233.1,97.8z M1213.7,139c0.4-8.8,2.2-15.1,5.4-18.9c3.3-4,7.8-6,13.7-6s10,1.6,13,4.8
	c3,3.2,4.5,8.6,4.5,16v2.9c0,0.4,0,0.8,0,1.2L1213.7,139z"/>
<path class="st0" d="M1347,156.3c-2.3-3.6-5.2-6.7-8.7-9.2c-3.5-2.4-7.2-4.4-11.2-5.9c-3.8-1.4-7.5-2.9-10.7-4.4
	c-2.8-1.2-5.4-2.7-7.9-4.5c-1.7-1.3-2.7-3.3-2.6-5.4c0-7.6,4.1-11.1,12.9-11.1c4.1,0,8.2,0.3,12.3,0.9c3.9,0.5,7.8,1.3,11.5,2.5
	l1.8,0.6l0.4-1.8c0.6-2.5,1.2-5.1,1.6-7.8c0.4-2.5,0.7-5.1,0.8-7.7l0.1-1.4l-1.4-0.4c-3.9-1-7.8-1.8-11.8-2.2
	c-4.2-0.4-7.9-0.7-11-0.7c-4.8,0-9.6,0.6-14.3,1.9c-4.3,1.2-8.4,3.1-12,5.8c-3.5,2.6-6.3,5.9-8.3,9.8c-2.1,4.2-3.1,8.9-3,13.6
	c0,5.2,1.2,9.6,3.6,13.1c2.3,3.4,5.3,6.2,8.8,8.4c3.5,2.2,7.1,4,10.9,5.4c3.7,1.4,7.3,2.9,10.5,4.3c2.8,1.3,5.5,2.9,7.8,4.9
	c1.8,1.6,2.8,4,2.7,6.4c0,3.5-0.9,6-2.9,7.9c-1.9,1.9-5.4,2.8-10.2,2.8c-4.6,0-9.2-0.5-13.7-1.4c-4.3-0.8-8.5-2.3-12.5-4.2l-1.7-0.9
	l-0.7,1.8c-1,2.4-1.8,4.9-2.5,7.5c-0.6,2.4-1.2,4.9-1.8,7.7l-0.3,1.3l1.2,0.6c4.3,2.3,9,3.9,13.8,4.8c4.9,1,9.9,1.5,14.9,1.5
	c4.7,0,9.4-0.5,14-1.7c4.2-1.1,8.3-2.9,11.8-5.4c3.4-2.5,6.3-5.7,8.2-9.5c2.1-4.2,3.1-8.9,3-13.5
	C1350.6,164.8,1349.4,160,1347,156.3z"/>
</svg>
