<svg width="88" height="32" viewBox="0 0 88 32" fill="none" xmlns="http://www.w3.org/2000/svg">
<g clip-path="url(#clip0)">
<path d="M13.856 15.1493C11.5005 8.18789 6.17521 9.7974 3.63333 7.50626L3.52742 7.39633C3.76441 7.53994 4.01071 7.66631 4.26456 7.77452C6.75136 9.05861 11.5217 7.57223 14.0085 13.6057C14.0847 13.7933 14.1596 13.9883 14.233 14.1906C14.4363 14.7491 15.1438 13.2187 14.5126 10.9935C12.352 3.38134 5.49314 6.95657 2.66318 5.50537C1.98835 5.13011 1.36795 4.65784 0.820312 4.10254C0.820312 4.10254 4.43826 17.5503 12.5554 17.2249C13.5679 17.1853 14.0805 15.8265 13.8517 15.1493" fill="white"/>
<path d="M18.1288 29.536H19.2882C19.4249 29.5514 19.558 29.4835 19.6309 29.3612C19.7039 29.2389 19.7039 29.0837 19.6309 28.9614C19.558 28.8391 19.4249 28.7712 19.2882 28.7866H18.1125C18.0841 28.7902 18.0555 28.7811 18.0338 28.7616C18.012 28.742 17.9991 28.7138 17.9982 28.6838C17.9982 28.581 17.9982 28.4354 17.9982 28.4012C17.9982 28.3669 17.9982 28.2898 17.888 28.2898L14.5161 28.4226C14.2658 28.3922 14.015 28.4747 13.8259 28.6494C13.6368 28.8241 13.5271 29.0747 13.5242 29.339V29.5103C6.64167 28.5253 1.32263 22.4485 1.32263 15.1684C1.321 13.3246 1.66498 11.4985 2.33501 9.79393C2.05334 9.25006 1.80433 8.71903 1.57573 8.20514C0.537106 10.3644 -0.00267282 12.7498 9.9515e-06 15.1684C9.9515e-06 23.2065 5.89872 29.8658 13.5078 30.8636V30.9492C13.5225 31.2095 13.6354 31.4529 13.8216 31.6257C14.0077 31.7984 14.2518 31.8863 14.4998 31.8699L17.8716 31.9984C17.9018 32.0039 17.9327 31.9943 17.9551 31.9725C17.9775 31.9506 17.989 31.919 17.9859 31.8871C17.9859 31.8057 17.9859 31.6986 17.9859 31.6601C17.9859 31.6216 18.0268 31.5616 18.088 31.5616H19.2841C19.3859 31.5686 19.4862 31.5328 19.5628 31.4621C19.6394 31.3914 19.686 31.2916 19.6923 31.1848C19.6871 31.0778 19.6407 30.9777 19.5637 30.9074C19.4867 30.8371 19.3857 30.8027 19.2841 30.8122H18.1084C18.0268 30.8122 17.9859 30.7736 17.9859 30.7137C17.9859 30.4482 17.9859 29.7501 17.9859 29.6773C17.9848 29.6384 17.9991 29.6006 18.0253 29.5731C18.0516 29.5455 18.0876 29.5305 18.1247 29.5317" fill="white"/>
<path d="M15.5843 -7.50483e-06C11.2265 -0.0116438 7.063 1.87429 4.10352 5.20048C4.48747 5.24604 4.87372 5.26725 5.26015 5.264H5.89548C8.53449 2.7335 11.9946 1.33155 15.5843 1.33827C22.463 1.33827 28.7675 6.25497 29.9526 13.1282L30.3599 13.0435C29.0567 5.5308 23.1065 -7.50483e-06 15.5843 -7.50483e-06Z" fill="white"/>
<path d="M28.1238 23.4349C28.5262 23.2441 28.8793 22.9668 29.1566 22.6237C29.4337 22.2706 29.6418 21.8705 29.7704 21.4435C29.9078 20.9921 29.9763 20.5233 29.9737 20.0524C29.9758 19.5249 29.9202 18.9987 29.8078 18.4828C29.7103 18.0173 29.5261 17.5732 29.2644 17.1728C29.0105 16.7931 28.6642 16.4809 28.2565 16.2643C27.7673 16.0234 27.2236 15.9076 26.6763 15.9277C25.7327 15.8944 24.8357 16.3292 24.2914 17.0836C24.0223 17.4493 23.8279 17.8625 23.719 18.3003C23.6041 18.7623 23.547 19.2362 23.5489 19.7117C23.5492 20.1953 23.5992 20.6777 23.6983 21.1515C23.7908 21.607 23.9664 22.0425 24.2167 22.4372C24.4611 22.8167 24.7918 23.136 25.1831 23.37C25.6371 23.627 26.1561 23.7536 26.6804 23.735C27.1802 23.7457 27.6753 23.6386 28.1238 23.4227V23.4349ZM33.4204 27.8841C33.2638 28.6083 32.9276 29.2837 32.4415 29.8511C31.835 30.5169 31.08 31.0373 30.235 31.372C29.0026 31.8322 27.6875 32.0433 26.3693 31.9925C25.6582 31.9901 24.9498 31.9071 24.2582 31.7451C23.5674 31.5911 22.9055 31.3325 22.2964 30.9786C21.7141 30.6376 21.2134 30.1784 20.8281 29.6321C20.4255 29.0516 20.1944 28.3738 20.1603 27.6732H24.001C24.1217 28.2822 24.5099 28.8087 25.0628 29.113C25.6282 29.3917 26.2548 29.5309 26.8878 29.5185C27.9773 29.5185 28.7708 29.2076 29.2686 28.5857C29.786 27.8978 30.0373 27.0529 29.9778 26.2009V24.4529H29.9239C29.5182 25.1505 28.8925 25.7012 28.1404 26.0225C27.3752 26.3596 26.545 26.5325 25.7057 26.5294C24.7693 26.5519 23.8396 26.369 22.9849 25.9941C22.2498 25.6625 21.6058 25.1648 21.106 24.5421C20.6033 23.9023 20.238 23.1698 20.0317 22.3885C19.801 21.5377 19.6867 20.6608 19.6916 19.7807C19.6956 18.9291 19.8355 18.0835 20.1064 17.2742C20.3459 16.5 20.7314 15.7765 21.2429 15.1409C21.7554 14.5226 22.4012 14.0227 23.1342 13.6767C23.946 13.2999 24.8363 13.1125 25.7348 13.1292C26.5731 13.1138 27.4041 13.2844 28.1653 13.6281C28.9956 14.024 29.6997 14.634 30.2018 15.3923C30.1468 14.8335 30.3616 14.2816 30.7824 13.8998C31.5166 13.3482 32.147 13.9525 33.6402 13.4942V26.0671C33.6298 26.6885 33.5519 27.3071 33.4079 27.9125" fill="white"/>
<path d="M39.4363 14.0606C39.9327 14.7752 39.856 16.2868 39.856 16.2868C40.1616 15.7699 40.5326 15.2874 40.9615 14.8492C41.2936 14.4914 41.6831 14.1812 42.1167 13.9291C42.5484 13.6755 43.0159 13.4765 43.5066 13.3377C44.0049 13.1974 44.5237 13.1268 45.0453 13.1282C45.3513 13.1346 45.6549 13.1789 45.9478 13.2596V16.7304C45.7492 16.6975 45.4965 16.6646 45.2393 16.64C44.974 16.6151 44.7074 16.6028 44.4406 16.603C43.7698 16.5851 43.1028 16.7015 42.4867 16.9439C41.9809 17.1545 41.5393 17.4746 41.2007 17.8763C40.8667 18.2876 40.63 18.7576 40.5058 19.2564C40.3622 19.8178 40.2925 20.3928 40.2982 20.9692V27.0769H36.1016V13.4814C37.2252 13.9825 38.8723 13.2473 39.4318 14.0606" fill="white"/>
<path d="M53.4146 16.7786C52.8514 16.2322 52.0905 15.9564 51.3194 16.0192C50.7936 16.0005 50.2708 16.108 49.7922 16.3331C49.4189 16.5167 49.0878 16.7799 48.8207 17.1053C48.5883 17.3939 48.4134 17.7269 48.3061 18.0853C48.2181 18.3867 48.1601 18.6966 48.1332 19.0101H54.3943C54.2836 18.1897 53.9513 17.4179 53.4352 16.7828L53.4146 16.7786ZM49.0759 24.169C50.3801 25.191 52.1561 25.2935 53.5628 24.4278C54.0322 24.1501 54.3942 23.7141 54.5878 23.1932H57.9674C57.4185 24.8902 56.5953 26.0951 55.4975 26.8078C54.2743 27.5614 52.8673 27.9383 51.4429 27.8939C50.4289 27.9083 49.4211 27.7285 48.4708 27.3636C47.6254 27.0361 46.8597 26.522 46.2273 25.8575C45.6037 25.1867 45.1204 24.391 44.8072 23.5199C44.4674 22.5694 44.2986 21.563 44.3091 20.5502C44.3004 19.547 44.475 18.551 44.8236 17.6144C45.147 16.7358 45.6431 15.9356 46.2809 15.264C46.9245 14.593 47.6913 14.0609 48.5367 13.6986C49.4587 13.3104 50.447 13.117 51.4429 13.1301C52.5173 13.1042 53.5824 13.3412 54.5508 13.8216C55.4062 14.2612 56.1514 14.8986 56.7284 15.684C57.3052 16.4788 57.7248 17.3826 57.9633 18.3441C58.2172 19.3629 58.3076 20.4176 58.2309 21.4665H48.1291C48.1826 22.7138 48.4996 23.6217 49.0759 24.1817" fill="white"/>
<path d="M72.7973 16.4323C72.6519 15.7901 72.3531 15.1873 71.9237 14.6691C71.487 14.165 70.9178 13.7763 70.2724 13.5415C69.4149 13.2438 68.5041 13.1045 67.5902 13.1315C66.7166 13.1329 65.8542 13.3163 65.0653 13.6686C64.2214 14.0023 63.4732 14.5178 62.8811 15.1734C62.8056 15.2173 62.7462 15.2816 62.7107 15.358C62.7244 14.9005 62.582 14.4508 62.3045 14.0745C61.7584 13.2545 60.1683 13.9925 59.0762 13.4964V27.0687H63.1869V19.9627C63.1869 18.5795 63.4359 17.5858 63.9339 16.9817C64.4319 16.3776 65.2342 16.0755 66.3408 16.0755C67.3165 16.0755 67.995 16.3489 68.3765 16.8956C68.758 17.4423 68.9488 18.2788 68.9488 19.405V27.0769H73.0245V18.7285C73.0314 17.957 72.9494 17.1871 72.7799 16.4323" fill="white"/>
<path d="M82.9687 16.7913C82.4045 16.2455 81.6422 15.97 80.8697 16.0328C80.343 16.0141 79.8192 16.1215 79.3398 16.3464C78.9659 16.5298 78.6342 16.7927 78.3665 17.1176C78.1325 17.4051 77.9572 17.738 77.8511 18.0965C77.7587 18.3967 77.6993 18.7066 77.6737 19.0203H83.9255C83.8148 18.2007 83.4818 17.4297 82.9646 16.7956L82.9687 16.7913ZM78.6222 24.1732C79.9287 25.1941 81.708 25.2964 83.1172 24.4317C83.5874 24.1544 83.9501 23.7189 84.144 23.1986H87.5421C86.9922 24.8936 86.1674 26.0971 85.0678 26.809C83.8423 27.5618 82.4328 27.9382 81.0058 27.8939C79.9899 27.9084 78.9803 27.7288 78.0284 27.3642C77.1815 27.0369 76.4145 26.5235 75.7809 25.8598C75.1512 25.1897 74.6627 24.3934 74.3458 23.5207C74.0055 22.5712 73.8364 21.566 73.8468 20.5543C73.8306 19.5476 73.9999 18.5469 74.3458 17.6049C74.6718 16.7274 75.1702 15.9283 75.8098 15.2573C76.4508 14.5894 77.2148 14.0593 78.0572 13.6979C78.981 13.3105 79.971 13.1174 80.9687 13.13C82.045 13.1047 83.1119 13.3414 84.0822 13.8207C84.9374 14.2607 85.6825 14.8972 86.2595 15.6811C86.8388 16.474 87.2593 17.3771 87.4967 18.338C87.7524 19.3554 87.8444 20.409 87.7689 21.4569H77.6779C77.7328 22.7028 78.049 23.6068 78.6263 24.169" fill="white"/>
<path d="M16.153 14.6687C16.153 14.6687 19.2462 8.0752 20.352 7.28772C21.9497 6.15545 23.4176 7.1515 25.4364 6.56409C25.2239 6.89611 18.219 19.2063 18.219 19.2063V27.0769H13.9492V19.0914L16.153 14.6687Z" fill="white"/>
</g>
<defs>
<clipPath id="clip0">
<rect width="88" height="32" fill="white"/>
</clipPath>
</defs>
</svg>
