<svg xmlns="http://www.w3.org/2000/svg" xmlns:xlink="http://www.w3.org/1999/xlink" width="382.8" height="168.9" viewBox="0 0 382.8 168.9"><defs><path id="a" d="M-4 0h172.7v160.6h-172.7z"/></defs><clipPath id="b"><use xlink:href="#a" overflow="visible"/></clipPath><path clip-path="url(#b)" stroke="#808285" stroke-width="1.04" stroke-miterlimit="10" d="M76.4 26.4l63 55.6-52.7 35.7-58.1-39.9 116-70.2s-31.9 37.2-47.8 55.9c-8.7 10.1-26.1 30.5-26.1 30.5l70.7 48.1-116.6-15.5 29.7-56.5-48.2-46.1 155.2 80.6-82.6 16.2-69.8 34.6 8.7-61.4 110.8-38.9-79-29.9 26.8-17.3v18.5zm0 0" fill="none"/><g fill="#fff"><path d="M106.3 96l-3.2 11h-17.7l19.2-63.9h25.9l19.4 63.9h-17.4l-3.3-11h-22.9zm11.5-40.2h-.2l-7.8 27.7h15.8l-7.8-27.7zM153.3 43.1h32.4c17.8 0 25.7 6.6 25.7 24.8v13.4c0 17.5-5.6 25.7-23.4 25.7h-34.7v-63.9zm17 49h14.9c6.3 0 8.6-4.2 8.6-10.9v-13.3c0-8.3-2.6-10-8.6-10h-14.9v34.2zM248.3 106.9h-17v-49h-16.4v-14.8h50.6v14.8h-17.2v49z"/></g><g fill="#8CC641"><path d="M287.1 106.6h-4.3l-14.5-35h-.1v35h-4.3v-38.3h7.5l13.5 32.8 13.6-32.8h7.5v38.3h-4.3v-35h-.1l-14.5 35zM317.4 98.5l-3 8.1h-4.5l13.9-38.3h6.1l14.3 38.3h-4.5l-3-8.1h-19.3zm9.6-26.6l-8.4 23h17l-8.6-23zM378.4 87.5v8.3c0 9-4 11.1-12.7 11.1h-4.2c-10.2 0-14.7-1.9-14.7-13.7v-11.9c0-10.4 4.7-13.3 11.2-13.3h10.1c5.8 0 10.2 2.4 10.2 8.5v3h-4.3v-2.2c0-4.4-1.7-5.5-8-5.5h-5.4c-8.3 0-9.5 1.6-9.5 10v12.3c0 7.3 2.5 8.9 9.6 8.9h4.1c7.6 0 9.2-.9 9.2-7.1v-4.8h-12.2v-3.8h16.6z"/></g><g fill="#fff"><path d="M88.8 123.3l-.9 2.5h-1.4l4.3-11.7h1.9l4.4 11.7h-1.4l-.9-2.5h-6zm2.9-8.1l-2.6 7h5.2l-2.6-7zM98.3 114.1h6c2.3 0 2.8 1.5 2.8 3.5 0 1 0 3.6-2.9 3.6h-4.6v4.6h-1.3v-11.7zm1.3 1.2v4.8h3.4c1.8 0 2.7 0 2.7-2.3 0-2.2-.4-2.5-2-2.5h-4.1zM108.9 114.1h6c2.3 0 2.8 1.5 2.8 3.5 0 1 0 3.6-2.9 3.6h-4.6v4.6h-1.3v-11.7zm1.3 1.2v4.8h3.4c1.8 0 2.7 0 2.7-2.3 0-2.2-.4-2.5-2-2.5h-4.1zM121 124.6h6v1.2h-7.3v-11.7h1.3v10.5zM129.9 125.8h-1.3v-11.7h1.3v11.7zM135.4 125.9c-2.1 0-3.4-1.3-3.4-3.7v-4.5c0-3.3 2-3.7 4.9-3.7h1.1c2.5 0 3.2 1.1 3.2 3.4v.4h-1.3v-.3c0-1.6-.3-2.2-2.1-2.2h-.8c-2.8 0-3.7.3-3.7 2.5v3.2c0 2.7.1 3.9 2.3 3.9h1.6c2.1 0 2.8-.3 2.8-2v-.9h1.3v1.1c0 2.7-1.7 3-4.1 3h-1.8zM144.3 123.3l-.9 2.5h-1.4l4.3-11.7h1.9l4.4 11.7h-1.4l-.9-2.5h-6zm2.9-8.1l-2.6 7h5.2l-2.6-7zM157.1 125.8h-1.3v-10.5h-3.8v-1.2h8.9v1.2h-3.8v10.5zM163.7 125.8h-1.3v-11.7h1.3v11.7zM171 114c2.9 0 3.8 1 3.8 3.9v4.2c0 2.8-1 3.8-3.8 3.8h-1.6c-2.8 0-3.8-1-3.8-3.8v-4.2c0-2.9.9-3.9 3.8-3.9h1.6zm-1.5 1.2c-2 0-2.5.5-2.5 2.8v4.2c0 2.3.8 2.6 2.5 2.6h1.6c1.7 0 2.5-.3 2.5-2.6v-4.2c0-2.3-.5-2.8-2.5-2.8h-1.6zM186.9 125.8h-2.2l-6.6-10.6v10.6h-1.3v-11.7h2.2l6.6 10.7v-10.7h1.3v11.7zM194.9 114.1h5.7c1.4 0 4 .2 4 4.5v2.8c0 1.2-.2 4.4-3.7 4.4h-6v-11.7zm5.7 10.5c2.3 0 2.7-1.4 2.7-3.5v-3.1c0-.7-.2-2.8-2.5-2.8h-4.6v9.4h4.4zM207.5 119.2h5.9v1.1h-5.9v4.3h6.2v1.2h-7.5v-11.7h7.5v1.2h-6.2v3.9zM224.7 114.1l-4.2 11.7h-1.9l-4.2-11.7h1.4l3.7 10.7 3.7-10.7h1.5zM226.8 119.2h5.9v1.1h-5.9v4.3h6.2v1.2h-7.5v-11.7h7.5v1.2h-6.2v3.9zM236.3 124.6h6v1.2h-7.3v-11.7h1.3v10.5zM248.8 114c2.9 0 3.8 1 3.8 3.9v4.2c0 2.8-1 3.8-3.8 3.8h-1.6c-2.8 0-3.8-1-3.8-3.8v-4.2c0-2.9.9-3.9 3.8-3.9h1.6zm-1.5 1.2c-2 0-2.5.5-2.5 2.8v4.2c0 2.3.8 2.6 2.5 2.6h1.6c1.7 0 2.5-.3 2.5-2.6v-4.2c0-2.3-.5-2.8-2.5-2.8h-1.6zM254.4 114.1h6c2.3 0 2.8 1.5 2.8 3.5 0 1 0 3.6-2.9 3.6h-4.6v4.6h-1.3v-11.7zm1.4 1.2v4.8h3.4c1.8 0 2.7 0 2.7-2.3 0-2.2-.4-2.5-2-2.5h-4.1zM272.3 125.8h-1.3l-4.4-10.7v10.7h-1.3v-11.7h2.3l4.1 10 4.2-10h2.3v11.7h-1.3v-10.7l-4.6 10.7zM281.4 119.2h5.9v1.1h-5.9v4.3h6.2v1.2h-7.5v-11.7h7.5v1.2h-6.2v3.9zM299.6 125.8h-2.2l-6.6-10.6v10.6h-1.3v-11.7h2.2l6.6 10.7v-10.7h1.3v11.7zM306.1 125.8h-1.3v-10.5h-3.8v-1.2h8.9v1.2h-3.8v10.5zM321 125.8h-1.3v-10.5h-3.8v-1.2h8.9v1.2h-3.8v10.5zM327.5 125.8h-1.3v-11.7h5.4c2.5 0 3.6.7 3.6 3.4 0 1.6-.2 2.9-2 3.1 1.3.1 1.9.8 1.9 2.1v3.1h-1.3v-2.5c0-1.5-.4-2.2-2-2.2h-4.3v4.7zm4.1-5.9c2-.1 2.3-.7 2.3-2.6 0-1.5-.2-2.1-2.3-2.1h-4.1v4.7h4.1zM338.3 119.2h5.9v1.1h-5.9v4.3h6.2v1.2h-7.5v-11.7h7.5v1.2h-6.2v3.9zM356.5 125.8h-2.2l-6.6-10.6v10.6h-1.3v-11.7h2.2l6.6 10.7v-10.7h1.3v11.7zM358.8 114.1h5.7c1.4 0 4 .2 4 4.5v2.8c0 1.2-.2 4.4-3.7 4.4h-6v-11.7zm5.7 10.5c2.3 0 2.7-1.4 2.7-3.5v-3.1c0-.7-.2-2.8-2.5-2.8h-4.6v9.4h4.4zM370 117.4c0-3.1 1.4-3.4 4.3-3.4 2.5 0 4.4.1 4.2 3.3h-1.3c-.1-2-.5-2.1-2.9-2.1-2.6 0-3 .3-3 2 0 2.2 1.1 2 3.2 2.1 2.8.2 4.2.1 4.2 3.2 0 3.3-1.6 3.4-4.5 3.4-3 0-4.5-.4-4.3-3.7h1.3c0 2.6.5 2.6 3 2.6s3.2 0 3.2-2.3c0-2.2-1-1.9-3.1-2-2.3-.3-4.3 0-4.3-3.1z"/></g></svg>