<svg id="Layer_1" data-name="Layer 1" xmlns="http://www.w3.org/2000/svg" viewBox="0 0 213.97 30.72"><defs><style>.cls-1{fill:#f76a03;}</style></defs><path class="cls-1" d="M7.76.79A8.93,8.93,0,0,0,2.08,5c-1,2-1,2.45-1,10.76l.19,8.66a8.47,8.47,0,0,0,6.68,6.69c1,.18,14.36.28,14.36.07s-1.13-4.62-1.21-4.65-2.39-.56-5.25-1.18c-6.69-1.45-6.49-1.41-7-2.06l-.48-.58V9.22l.48-.61c.56-.67.36-.61,7.05-2.07l5.25-1.17c.05-.06,1.21-4.52,1.21-4.65S8.66.62,7.76.81Zm21.59,0c0,.33,1.06,4.45,1.17,4.54s2.59.64,5.67,1.29l6,1.45a2.3,2.3,0,0,1,.8.78c.3.52.34,1.08.34,7.08L43,23a2.42,2.42,0,0,1-.8.79c-.24.13-2.94.78-6,1.45l-5.67,1.29c-.46,1.49-.85,3-1.17,4.54,0,.2,1.34.24,7.22.19,8.12-.08,8.22-.1,10.28-1.49a8.48,8.48,0,0,0,3.2-4.19c.43-1.25.43-1.36.43-9.65l-.43-9.65a8.48,8.48,0,0,0-3.2-4.19C44.78.7,44.69.7,36.57.63c-5.88-.06-7.22,0-7.22.18ZM64,7.15a85.44,85.44,0,0,0-3.89,10l-2.64,9.07c.49,0,1,.06,1.49.05h1.47l.2-.8.73-2.55.5-1.77H72.08L72.61,23l.7,2.55.19.71H75l1.49-.05s-.37-1.42-.84-3.1A104.05,104.05,0,0,0,69.94,7.2L69,5.25H64.91Zm4.41,3.72L71.06,18s-1.82.08-4.1.08a30.3,30.3,0,0,1-4.1-.15c0-.32,1.88-5.33,2.8-7.49.7-1.66,1.06-2.25,1.3-2.25s.61.69,1.45,2.64Zm9.91,4.9V26.29h3v-21h-3ZM85,5.49a2.62,2.62,0,0,0-.82.93,1.37,1.37,0,0,0-.07,1.42A1.83,1.83,0,0,0,86.4,9a1.67,1.67,0,0,0,1.32-1.81,1.42,1.42,0,0,0-.61-1.37A1.7,1.7,0,0,0,85,5.51Zm5.41,10.24V26.26l2.29.16,4.32.17c1.88,0,2.14,0,3.13-.54a4.33,4.33,0,0,0,2.38-2.77,37.71,37.71,0,0,0,.13-5.12c-.06-4.15-.08-4.45-.47-5.2-.72-1.34-1.82-2-3.85-2.27a16.6,16.6,0,0,0-4.58.26c-.36.12-.37,0-.37-2.77V5.26h-3Zm8.47-2a1.54,1.54,0,0,1,.84.75,46.44,46.44,0,0,1,0,8.17c-.28.77-1.22,1.12-3,1.12a16.76,16.76,0,0,1-2.46-.15l-.9-.13V13.85l1.08-.18a10.53,10.53,0,0,1,4.42.05Zm21.14,2V26.27l1.82.1,3.8.24c2.55.15,4.15-.26,5.2-1.36,1.34-1.38,1.37-1.55,1.41-6.24.06-3.41,0-4.45-.2-5.21-.5-1.75-1.95-2.85-4.17-3.11a18,18,0,0,0-4.64.26c-.19.06-.24-.58-.24-2.79V5.27h-3Zm8.36-2.11a1.52,1.52,0,0,1,.76.54,65.63,65.63,0,0,1,.08,8.66c-.32.82-2.84,1.17-5.33.76l-.9-.13V13.86l1.09-.19a13.12,13.12,0,0,1,4.3,0ZM158,5.43a6.24,6.24,0,0,0-3.78,1.75c-1.49,1.49-1.58,2-1.58,8.78s.09,7.28,1.62,8.79a4.66,4.66,0,0,0,2.32,1.41,11.66,11.66,0,0,0,4.27.43,18.36,18.36,0,0,0,4.39-.35,11.64,11.64,0,0,0,1.75-.49c.15-.09.13-.42-.09-1.32a8.84,8.84,0,0,0-.43-1.32,1.94,1.94,0,0,0-1,.13,18.81,18.81,0,0,1-6.37.49c-1.81-.23-2.48-.53-3-1.25-.37-.49-.39-.69-.39-6.5s0-6,.39-6.5c.58-.73,1.23-1,3-1.25a18.08,18.08,0,0,1,6.37.49l1,.28a9.32,9.32,0,0,0,.69-2.7,10.39,10.39,0,0,0-1.56-.49A27.24,27.24,0,0,0,158,5.46Zm11.77,10.34V26.29h2.79v-21h-2.79ZM212.05,8v2.79L211,10.72l-1.49-.18a10.45,10.45,0,0,0-3.65.59,5,5,0,0,0-2,2c-.37.69-.41,1.08-.47,4.86-.07,5.08.08,5.83,1.42,7.15,1.21,1.17,2.64,1.56,5.08,1.42l3.47-.21,1.71-.11v-21h-3Zm-.32,5.68c.3.13.32.54.32,5v4.81l-.69.13a10.62,10.62,0,0,1-4.12-.1,1.87,1.87,0,0,1-.78-.59,31.9,31.9,0,0,1-.19-4.4c0-4.45,0-4.58,1-4.89a16.57,16.57,0,0,1,4.45.09Zm-102.1-3.06c-.84.11-1.66.27-2.48.46-1,.25-1.25.38-1.17.62s.18.71.31,1.23a4,4,0,0,0,.34,1,8.2,8.2,0,0,0,1.79-.2c3.11-.65,5.21-.36,5.51.76a9.54,9.54,0,0,1,.15,1.51l0,1L112.33,17c-4.73-.25-7.58,1.52-7.62,4.71a4.54,4.54,0,0,0,1.48,3.61c1.17,1.08,2.42,1.42,4.82,1.25l3.89-.2,2-.13-.11-12.52-.52-.88c-1-1.76-3.52-2.58-6.65-2.17ZM114,20.08a10.81,10.81,0,0,1,0,3.41l-2.13.2c-3.11.3-4.24-.17-4.24-1.77a1.35,1.35,0,0,1,.55-1.3,3.13,3.13,0,0,1,1.46-.58l1.15-.18a15.75,15.75,0,0,1,3.22.23Zm25.36-9.45-2.48.49c-1.25.3-1.36.37-1.26.73l.33,1.37c.21.93.25,1,.69.88,2.5-.65,4.9-.84,5.87-.49s1.06.71,1.06,2.13v1.34h-2.31c-2.92,0-4.27.37-5.55,1.53a4.14,4.14,0,0,0-1.43,3.72c.31,3,2.47,4.51,6.34,4.27l3.9-.2,2-.13-.06-6.17c-.06-5.92-.07-6.2-.46-6.93-1.07-2-3.47-2.88-6.67-2.51ZM143,19.94h.5v3.52l-1.06.13c-2.05.26-4,.2-4.57-.15a1.85,1.85,0,0,1,.06-3,8.19,8.19,0,0,1,3.61-.53L143,20Zm36.09-9.31a5.16,5.16,0,0,0-2.89,1.75c-.95,1.25-1,1.86-1,6.33s.13,5.12,1.36,6.41,1.79,1.42,4.6,1.42,3.54-.21,4.73-1.62,1.26-2,1.21-6.73c-.05-3.83-.09-4.2-.46-4.91a5.59,5.59,0,0,0-2.44-2.35,11.94,11.94,0,0,0-5.05-.34Zm4.1,3.09c.95.49,1.09,1.15,1.09,4.82,0,3.49-.13,4.14-.93,4.85-.57.52-3.2.65-4.15.18-1.12-.52-1.25-1.06-1.25-5,0-3.79.11-4.3,1.08-4.82A7.54,7.54,0,0,1,183.21,13.72ZM84.49,18.54v7.73h2.79V10.81H84.49ZM189.4,11.06c-.05.15-.07,2.94,0,6.2,0,5.36.09,6,.41,6.59,1.09,2.07,3,2.93,6,2.72l5.29-.32V10.84h-2.83V23.48l-.87.13a9.5,9.5,0,0,1-4.29-.17l-.65-.37s-.09-2.75-.15-6.07l-.09-6.07-1.36-.06c-1,0-1.38,0-1.46.21ZM21,15.56a1.3,1.3,0,0,0,0,.62c.06.31.39.34,4.77.39l4.69,0V15.3H25.81c-3.89,0-4.7,0-4.77.27Z" transform="translate(-1.04 -0.6)"/></svg>