<svg id="Layer_1" data-name="Layer 1" xmlns="http://www.w3.org/2000/svg" viewBox="0 0 52.51 32.81"><defs><style>.cls-1{fill:#252f3e;}.cls-2{fill:#f90;fill-rule:evenodd;}</style></defs><path class="cls-1" d="M15.08,12.1a5,5,0,0,0,.19,1.5,8.19,8.19,0,0,0,.54,1.22.73.73,0,0,1,.12.38.67.67,0,0,1-.32.51l-1.07.71a.67.67,0,0,1-.94-.09,5.57,5.57,0,0,1-.61-.79c-.16-.29-.33-.61-.52-1a6.2,6.2,0,0,1-5,2.32,4.59,4.59,0,0,1-3.37-1.21A4.32,4.32,0,0,1,2.9,12.42,4.34,4.34,0,0,1,4.44,9,6.13,6.13,0,0,1,8.56,7.64a14,14,0,0,1,1.79.13c.62.09,1.26.22,1.94.37V6.91a3.73,3.73,0,0,0-.79-2.69,3.85,3.85,0,0,0-2.75-.78,7.73,7.73,0,0,0-1.82.22,14.23,14.23,0,0,0-1.82.57,4,4,0,0,1-.59.22.82.82,0,0,1-.27,0C4,4.5,3.9,4.34,3.9,4V3.16A1.1,1.1,0,0,1,4,2.57a1.32,1.32,0,0,1,.48-.36,10.19,10.19,0,0,1,2.12-.76,10.14,10.14,0,0,1,2.63-.32A6.15,6.15,0,0,1,13.65,2.5a5.56,5.56,0,0,1,1.4,4.14V12.1ZM8.24,14.66a5.54,5.54,0,0,0,1.74-.3,3.71,3.71,0,0,0,1.6-1.08,2.62,2.62,0,0,0,.57-1.08,6,6,0,0,0,.17-1.46V10a14.21,14.21,0,0,0-1.55-.29,14.26,14.26,0,0,0-1.58-.1,3.84,3.84,0,0,0-2.51.68,2.32,2.32,0,0,0-.83,1.93A2.35,2.35,0,0,0,6.47,14,2.36,2.36,0,0,0,8.24,14.66Zm13.53,1.82a.94.94,0,0,1-.64-.17,1.37,1.37,0,0,1-.35-.65l-4-13A2.86,2.86,0,0,1,16.67,2c0-.27.13-.42.4-.42h1.65a.94.94,0,0,1,.66.17,1.29,1.29,0,0,1,.34.65l2.83,11.16L25.18,2.36a1.12,1.12,0,0,1,.32-.65,1.15,1.15,0,0,1,.67-.17h1.35a1,1,0,0,1,.67.17,1,1,0,0,1,.32.65l2.67,11.29L34.09,2.36a1.41,1.41,0,0,1,.34-.65,1.08,1.08,0,0,1,.65-.17h1.57a.37.37,0,0,1,.42.42,1.39,1.39,0,0,1,0,.27,2.65,2.65,0,0,1-.12.42l-4.06,13a1.31,1.31,0,0,1-.35.66,1.11,1.11,0,0,1-.64.17H30.42a1,1,0,0,1-.68-.17,1.26,1.26,0,0,1-.32-.67L26.81,4.79,24.22,15.64a1.34,1.34,0,0,1-.32.67,1,1,0,0,1-.68.17Zm21.65.46a11.25,11.25,0,0,1-2.59-.3A8.17,8.17,0,0,1,38.89,16a1.22,1.22,0,0,1-.52-.47,1.14,1.14,0,0,1-.1-.47v-.86c0-.36.13-.52.39-.52a.79.79,0,0,1,.3,0l.42.16a8.51,8.51,0,0,0,1.85.59,9.88,9.88,0,0,0,2,.21,4.55,4.55,0,0,0,2.46-.56,1.82,1.82,0,0,0,.88-1.6,1.66,1.66,0,0,0-.46-1.18,4.24,4.24,0,0,0-1.7-.88L42,9.68A5.17,5.17,0,0,1,39.28,8a4,4,0,0,1-.84-2.45,3.8,3.8,0,0,1,.45-1.87,4.47,4.47,0,0,1,1.22-1.38,5.32,5.32,0,0,1,1.75-.87A7.05,7.05,0,0,1,44,1.1a8.57,8.57,0,0,1,1.13.07c.39.05.74.12,1.09.18s.66.17,1,.27a3.13,3.13,0,0,1,.7.31,1.4,1.4,0,0,1,.51.42.9.9,0,0,1,.15.55v.79q0,.54-.39.54A1.68,1.68,0,0,1,47.5,4a7.68,7.68,0,0,0-3.23-.66A4.34,4.34,0,0,0,42,3.85a1.62,1.62,0,0,0-.8,1.5,1.57,1.57,0,0,0,.51,1.19,5.12,5.12,0,0,0,1.85.93l2.4.76A5.12,5.12,0,0,1,48.6,9.84a3.86,3.86,0,0,1,.77,2.36,4.28,4.28,0,0,1-.44,2,4.38,4.38,0,0,1-1.23,1.48,5.23,5.23,0,0,1-1.87.94A7.85,7.85,0,0,1,43.42,16.94Z"/><path class="cls-2" d="M46.61,25.13c-5.54,4.09-13.6,6.26-20.52,6.26A37.11,37.11,0,0,1,1,21.84c-.52-.47-.05-1.11.57-.74a50.62,50.62,0,0,0,25.08,6.66A50.18,50.18,0,0,0,45.8,23.85C46.73,23.43,47.52,24.45,46.61,25.13Z"/><path class="cls-2" d="M48.92,22.5c-.71-.91-4.69-.44-6.49-.22-.54.07-.62-.4-.13-.76,3.16-2.22,8.37-1.58,9-.84s-.17,6-3.14,8.46c-.45.38-.89.18-.69-.32C48.13,27.15,49.63,23.39,48.92,22.5Z"/></svg>