<?xml version="1.0" encoding="UTF-8"?>
<svg id="uuid-f4017e09-51db-47ad-b1dd-0806ad90aa7d" data-name="layer" xmlns="http://www.w3.org/2000/svg" viewBox="0 0 600.3339 107.49995">
  <path d="M82.89999,85.49995c0,.70001,.5,1.20001,1.2,1.20001h28.7c1.3,0,2.4,1.10001,2.4,2.39999v6.60001c0,1.29999-1.1,2.39999-2.4,2.39999h-38.9c-1.3,0-2.4-1.10001-2.4-2.39999V16.69997c0-1.3,1.1-2.39999,2.4-2.39999h38.7c1.3,0,2.4,1.10001,2.4,2.39999v6.60001c0,1.3-1.1,2.39999-2.4,2.39999h-28.5c-.7,0-1.2,.5-1.2,1.2v21.59999c0,.70001,.5,1.20001,1.2,1.20001h27.2c1.3,0,2.4,1.10001,2.4,2.39999v6.60001c0,1.29999-1.1,2.39999-2.4,2.39999h-27.2c-.7,0-1.2,.5-1.2,1.20001v23.19998Zm61.7-23.29999c0-.70001,.5-1.20001,1.2-1.20001h27.2c1.3,0,2.4-1.10001,2.4-2.39999v-6.60001c0-1.29999-1.1-2.39999-2.4-2.39999h-27.2c-.7,0-1.2-.5-1.2-1.20001V26.79994c0-.7,.5-1.2,1.2-1.2h28.5c1.3,0,2.4-1.10001,2.4-2.39999v-6.60001c0-1.3-1.1-2.39999-2.4-2.39999h-38.7c-1.3,0-2.4,1.10001-2.4,2.39999V95.59996c0,1.29999,1.1,2.39999,2.4,2.39999h38.9c1.3,0,2.4-1.10001,2.4-2.39999v-6.60001c0-1.29999-1.1-2.39999-2.4-2.39999h-28.7c-.7,0-1.2-.5-1.2-1.20001v-23.19998Zm138.59999,35.89999c1.10001,0,2-.60001,2.3-1.79999l10.3-59.79999c.10001-.60001,.8-.60001,1,0l11,59.79999c.2,1.20001,1.2,1.79999,2.3,1.79999h10.2c1.10001,0,2-.60001,2.3-1.79999l17-79.60001c.2-1.2-.5-2.39999-2.39999-2.39999h-6.5c-1.10001,0-2,.5-2.3,1.8l-12.8,61.40001c-.10001,.5-.39999,.70001-.7,.70001h-.2c-.39999,0-.60001-.20001-.7-.70001l-11.3-61.39999c-.2-1.2-1.2-1.8-2.3-1.8h-8.39999c-1.10001,0-2,.60001-2.3,1.8l-10.3,61.39999c-.10001,.5-.39999,.70001-.7,.70001h-.2c-.39999,0-.60001-.20001-.7-.70001l-11.7-61.39999c-.2-1.3-1.2-1.8-2.3-1.8h-6.5c-1.9,0-2.6,1.2-2.4,2.39999l15.9,79.59999c.2,1.20001,1.2,1.79999,2.3,1.79999h10.09998m159.89999-31.5c.20001-.60001,.70001-.60001,1,0l14.79999,29.70001c.60001,1.29999,1.29999,1.79999,2.39999,1.79999h8.10001c1.60001,0,2.79999-1.70001,1.89999-3.29999l-20.60001-40c-.39999-.60001-.5-1.10001-.10001-1.70001l18.79999-35.39999c.79999-1.7-.39999-3.39999-1.89999-3.39999h-7.70001c-1.10001,0-1.70001,.5-2.29999,1.8l-13.5,25.99998c-.20001,.60001-.70001,.60001-1,0l-13.5-26c-.60001-1.3-1.20001-1.8-2.29999-1.8h-7.70001c-1.60001,0-2.79999,1.7-1.89999,3.39999l18.79999,35.40001c.39999,.60001,.20001,1.10001-.10001,1.70001l-20.5,40c-.79999,1.70001,.39999,3.29999,1.89999,3.29999h7.89999c1.10001,0,1.89999-.5,2.5-1.79999l15.00006-29.70001ZM11.29999,85.39995c0,.70001,.6,1.29999,1.3,1.29999h23.7c.3,0,.7-.10001,.9-.39999l4.4-4.39999c.2-.20001,.3-.60001,.3-.89999v-14.60001c0-.29999-.1-.70001-.4-.89999l-4.3-4.29999c-.2-.20001-.6-.39999-.9-.39999H12.59999c-.7,0-1.3,.60001-1.3,1.29999v23.29999m0-37.09998c0,.70001,.6,1.29999,1.3,1.29999h22c.3,0,.7-.10001,.9-.39999l4.6-4.60001c.2-.20001,.4-.60001,.4-.89999v-12.5c0-.3-.2-.7-.4-.89999l-4.3-4.3c-.2-.2-.6-.39999-.9-.39999H12.59999c-.7,0-1.3,.60001-1.3,1.3v21.39999m34.1,5.5c-.3,.29999-.2,.79999,.1,1.10001l6.3,6.5c.5,.5,.7,1.10001,.7,1.70001v22.49997c0,.70001-.2,1.29999-.7,1.70001l-10,10.10001c-.5,.5-1.1,.70001-1.7,.70001H2.5c-1.39999,0-2.5-1.10001-2.5-2.5V16.7c0-1.39999,1.10001-2.5,2.5-2.5H38.7c.7,0,1.3,.3,1.7,.7l10,10c.5,.5,.8,1.10001,.8,1.7v19.10001c0,.60001-.2,1.10001-.5,1.5l-5.30001,6.59998m184.3,44.29999c.5,0,1-.20001,1.4-.60001l10.4-10.39999c.4-.39999,.6-.89999,.6-1.39999v-23.70001c0-.5-.2-1-.6-1.39999l-10.4-10.39999c-.4-.39999-.9-.60001-1.4-.60001h-19.7c-.5,0-1-.20001-1.4-.60001l-3.9-3.89999c-.4-.39999-.6-.89999-.6-1.39999v-12.2c0-.5,.2-1,.6-1.39999l3.9-3.89999c.4-.39999,.9-.60001,1.4-.60001h14.8c.5,0,1,.2,1.4,.60001l3.9,3.89999c.4,.39999,.6,.89999,.6,1.39999v2c0,1.09999,.9,2.00002,2,2.00002h7.4c1.1,0,2-.89999,2-2v-6.89999c0-.5-.2-1-.6-1.39999l-10.4-10.39999c-.4-.39999-.9-.60001-1.4-.60001h-24.5c-.5,0-1,.2-1.4,.60001l-10.5,10.49995c-.4,.39999-.6,.89999-.6,1.39999v21.8c0,.5,.2,1,.6,1.39999l10.4,10.39999c.4,.39999,.9,.60001,1.4,.60001h19.6c.5,0,1,.20001,1.4,.60001l3.9,3.89999c.4,.39999,.6,.89999,.6,1.39999v14c0,.5-.2,1-.6,1.39999l-3.9,3.89999c-.4,.39999-.9,.60001-1.4,.60001h-14.7c-.5,0-1-.20001-1.4-.60001l-3.9-3.89999c-.4-.39999-.6-.89999-.6-1.39999v-2c0-1.10001-.9-2-2-2h-7.4c-1.1,0-2,.89999-2,2v6.89999c0,.5,.2,1,.6,1.39999l10.4,10.39999c.4,.39999,.9,.60001,1.4,.60001h24.60001m155.9-33.49997c.60001,0,1-.5,.8-1.10001l-8.60001-37.2c-.10001-.39999-.5-.8-1-.8h-4.3c-.5,0-.89999,.3-1,.8l-8.89999,37.2c-.10001,.60001,.3,1.10001,.8,1.10001h22.2Zm11.49998,33.5c-.89999,0-1.70001-.60001-1.89999-1.5l-5.29999-20.10001c-.10001-.39999-.5-.79999-1-.79999h-28.7c-.5,0-.89999,.29999-1,.79999l-5.3,20.10001c-.2,.89999-1,1.5-1.89999,1.5h-7.60001c-1.5,0-2.60001-1.39999-2.2-2.89999l20.89999-79.10001c.3-1,1.2-1.7,2.2-1.7h17.89999c1,0,1.89999,.7,2.2,1.7l20.99998,79.10001c.39999,1.39999-.70001,2.89999-2.20001,2.89999h-7.09998M516.89999,.09996h-8.39999c-.5,0-1,.3-1.29999,.8l-27.5,51.90001c-.29999,.60001-.29999,1.39999,0,2l27.5,51.89999c.29999,.5,.79999,.79999,1.29999,.79999h8.39999c1.10001,0,1.79999-1.20001,1.29999-2.20001l-26.89999-50.69998c-.29999-.5-.29999-1.20001,0-1.70001l26.89999-50.60001c.5-1.09998-.19998-2.19998-1.29999-2.19998m45.5,0c-1.10001,0-1.79999,1.2-1.29999,2.2l26.89999,50.59999c.29999,.5,.29999,1.20001,0,1.70001l-26.89999,50.60001c-.5,1,.20001,2.20001,1.29999,2.20001h8.39999c.5,0,1-.29999,1.29999-.79999l27.5-51.89999c.29999-.60001,.29999-1.39999,0-2L572.09998,.8c-.29999-.5-.79999-.8-1.29999-.8h-8.39999m-2,25.69997c.29999,0,.60001,.2,.70001,.39999l5.10001,9.5c.29999,.60001-.10001,1.20001-.70001,1.20001h-51.5c-.60001,0-1-.70001-.70001-1.20001l5.10001-9.5c.10001-.3,.39999-.39999,.70001-.39999h41.29999m14.79999,27.19998c.29999,.5,.29999,1.20001,0,1.70001l-2.29999,4.29999c-.10001,.29999-.39999,.5-.70001,.5h-65.19998c-.29999,0-.60001-.20001-.70001-.5l-2.29999-4.29999c-.29999-.5-.29999-1.20001,0-1.70001l2.29999-4.29999c.10001-.29999,.39999-.5,.70001-.5h65.20001c.29999,0,.60001,.20001,.70001,.5l2.29996,4.29999m-56.29999,29c-.29999,0-.60001-.20001-.70001-.39999l-5.10001-9.5c-.29999-.60001,.10001-1.20001,.70001-1.20001h51.5c.60001,0,1,.70001,.70001,1.20001l-5.10001,9.5c-.10001,.29999-.39999,.39999-.70001,.39999h-41.29999m-75.80002-15.29999c.20001-.60001,.70001-.60001,1,0l14.79999,29.70001c.60001,1.29999,1.29999,1.79999,2.39999,1.79999h8.10001c1.60001,0,2.79999-1.70001,1.89999-3.29999l-20.60001-40c-.39999-.60001-.5-1.10001-.10001-1.70001l18.79999-35.39999c.79999-1.7-.39999-3.39999-1.89999-3.39999h-7.70001c-1.10001,0-1.70001,.5-2.29999,1.8l-13.5,25.99998c-.20001,.60001-.70001,.60001-1,0l-13.5-26c-.60001-1.3-1.20001-1.8-2.29999-1.8h-7.70001c-1.60001,0-2.79999,1.7-1.89999,3.39999l18.79999,35.40001c.39999,.60001,.20001,1.10001-.10001,1.70001l-20.5,40c-.79999,1.70001,.39999,3.29999,1.89999,3.29999h7.89999c1.10001,0,1.89999-.5,2.5-1.79999l15.00006-29.70001Zm103.90002,32.10001c.29999-.29999,.29999-.89999,0-1.20001l-6.70001-6.70001c-.29999-.29999-.89999-.29999-1.20001,0l-6.70001,6.70001c-.29999,.29999-.29999,.89999,0,1.20001l6.70001,6.70001c.29999,.29999,.89999,.29999,1.20001,0l6.70001-6.70001"/>
</svg>