<?xml version="1.0" encoding="utf-8"?>
<!-- Generator: Adobe Illustrator 20.1.0, SVG Export Plug-In . SVG Version: 6.00 Build 0)  -->
<svg version="1.0" id="Layer_1" xmlns="http://www.w3.org/2000/svg" xmlns:xlink="http://www.w3.org/1999/xlink" x="0px" y="0px"
	 width="98px" height="20px" viewBox="0 0 98 20" style="enable-background:new 0 0 98 20;" xml:space="preserve">
<style type="text/css">
	.st0{fill:#9FA3A5;}
</style>
<g>
	<g>
		<path class="st0" d="M2.6,2.7h2.1c1.9,0,2.8,0.6,2.8,1.9c0,1.1-0.9,1.8-2.6,1.8H2.6V2.7z M0,15h5.2c2.7,0,5.5-1,5.5-4.1
			c0-1.9-1.3-3.3-3.1-3.5v0c1.5-0.4,2.5-1.5,2.5-3.2c0-2.6-2.3-3.6-4.4-3.6H0V15z M2.6,8.6h2.5c2.1,0,3.1,0.5,3.1,2
			c0,1.9-1.8,2.1-3.2,2.1H2.6V8.6z"/>
	</g>
	<g>
		<rect x="12.4" y="0.1" class="st0" width="2.4" height="14.8"/>
	</g>
	<g>
		<path class="st0" d="M18.9,10c0-1.5,1.1-2.9,2.9-2.9s2.9,1.4,2.9,2.9c0,1.5-1.1,2.9-2.9,2.9C20,13,18.9,11.6,18.9,10 M16.5,10
			c0,3.1,2.4,5.2,5.3,5.2c3,0,5.3-2.1,5.3-5.2s-2.4-5.2-5.3-5.2C18.9,4.9,16.5,7,16.5,10"/>
	</g>
	<g>
		<path class="st0" d="M30.7,10c0-1.5,1.1-2.9,2.9-2.9c1.8,0,2.9,1.4,2.9,2.9c0,1.5-1.1,2.9-2.9,2.9C31.8,13,30.7,11.6,30.7,10
			 M28.3,10c0,3.1,2.4,5.2,5.3,5.2c3,0,5.3-2.1,5.3-5.2s-2.4-5.2-5.3-5.2C30.7,4.9,28.3,7,28.3,10"/>
	</g>
	<g>
		<path class="st0" d="M40.5,5.1h2.3v1.5h0c0.4-0.9,1.4-1.8,3-1.8c1.5,0,2.6,0.6,3.1,1.8c0.7-1.2,1.8-1.8,3.2-1.8
			c2.6,0,3.5,1.9,3.5,4.2V15h-2.5V9.4c0-1.2-0.4-2.3-1.8-2.3c-1.5,0-2.1,1.3-2.1,2.5V15h-2.5V9.1c0-1.2-0.5-2-1.7-2
			c-1.6,0-2.3,1.2-2.3,2.5V15h-2.5C40.5,15,40.5,5.1,40.5,5.1z"/>
	</g>
	<g>
		<path class="st0" d="M65.9,10c0,1.5-1.1,2.9-2.9,2.9c-1.8,0-2.9-1.4-2.9-2.9c0-1.5,1.1-3,2.9-3C64.8,7.1,65.9,8.5,65.9,10
			 M57.7,15H60v-1.5h0c0.7,1.2,2,1.7,3.4,1.7c3,0,4.9-2.3,4.9-5.2c0-2.9-1.9-5.2-4.8-5.2c-1.8,0-2.8,0.9-3.3,1.5h-0.1V0.1h-2.5
			L57.7,15L57.7,15z"/>
	</g>
	<g>
		<path class="st0" d="M71.9,9.1c0.2-1.4,1.1-2.3,2.5-2.3c1.5,0,2.5,0.9,2.5,2.3H71.9z M79.4,10.9v-0.7c0-3.4-1.9-5.3-4.6-5.3
			c-3,0-5.3,2.1-5.3,5.2s2.4,5.2,5.3,5.2c1.6,0,3-0.6,4.2-2l-1.8-1.3c-0.6,0.8-1.4,1.3-2.6,1.3c-1.4,0-2.5-0.9-2.6-2.3H79.4z"/>
	</g>
	<g>
		<path class="st0" d="M81,5.1h2.5v1.6h0c0.5-1.1,1.6-1.8,2.9-1.8c0.3,0,0.6,0.1,0.9,0.1v2.4c-0.4-0.1-0.8-0.2-1.2-0.2
			c-2.3,0-2.6,1.9-2.6,2.5V15H81L81,5.1L81,5.1z"/>
	</g>
	<g>
		<path class="st0" d="M92.8,7.1c1.8,0,2.9,1.2,2.9,2.9c0,1.6-1.1,2.9-2.9,2.9c-1.7,0-2.9-1.3-2.9-2.8C89.9,8.3,91,7.1,92.8,7.1
			 M95.7,5.1v1.5h0c-0.7-1.2-2-1.7-3.4-1.7c-3,0-4.9,2.3-4.9,5.2c0,2.8,1.9,5,4.9,5c1.2,0,2.5-0.5,3.2-1.4h0v0.7
			c0,1.9-0.7,3.3-3.1,3.3c-1.4,0-2.4-0.5-3.4-1.4l-1.5,2c1.4,1.2,3,1.6,4.9,1.6c3.8,0,5.5-2.3,5.5-5.8V5.1H95.7z"/>
	</g>
</g>
</svg>
