<?xml version="1.0" encoding="utf-8"?>
<!-- Generator: Adobe Illustrator 20.1.0, SVG Export Plug-In . SVG Version: 6.00 Build 0)  -->
<svg version="1.0" id="Layer_1" xmlns="http://www.w3.org/2000/svg" xmlns:xlink="http://www.w3.org/1999/xlink" x="0px" y="0px"
	 width="37.8px" height="43.5px" viewBox="0 0 37.8 43.5" style="enable-background:new 0 0 37.8 43.5;" xml:space="preserve">
<style type="text/css">
	.st0{fill:#9FA4A6;}
</style>
<g>
	<path class="st0" d="M30.1,28c1.3-1.8,2-3.5,2.3-5.8l2-15.5h-0.6l-1.5,11.8c-0.8-4.9-3.7-8.9-8.3-10.3l-2.4-0.7
		c-0.9-0.3-1.4-0.3-2.4-0.3c-4.4,0-8.1,2.1-10.5,5.2l0.4,0.5c2.3-3.1,6-5.1,10.1-5.1c1.3,0,2.2,0.1,3.3,0.5L24.4,9
		c4.5,1.6,7.5,6.4,7.5,11.5c0,2.6-0.6,4.6-1.9,6.6L30.1,28z"/>
	<path class="st0" d="M10.7,18.6c-0.5,0.1-1.4,0.1-2,0.1v-2.3h1.8c0.3,0,0.5,0.1,0.8,0.1c0-0.1-0.1-0.2-0.1-0.2
		c0-0.1,0.1-0.2,0.1-0.2C11,16,10.8,16,10.5,16H8.7v-2h1.1l0.9,0.1c0.3,0,0.5,0.1,0.8,0.1c0-0.1-0.1-0.2-0.1-0.2
		c0-0.1,0.1-0.2,0.1-0.3H8V19h3.6c0-0.1-0.1-0.2-0.1-0.2c0-0.1,0.1-0.2,0.1-0.3C11.3,18.6,11,18.6,10.7,18.6z"/>
	<path class="st0" d="M19.3,33.1c-0.9,0-1.3-0.1-2.2-0.2l-0.6,0.5c1,0.2,1.6,0.3,2.7,0.3c4.1,0,7.4-1.4,9.8-4.3l-0.2-0.7
		C26.5,31.6,23.3,33.1,19.3,33.1z"/>
	<path class="st0" d="M9.1,28c-1.7-2.2-2.5-4.5-2.5-7.5c0-0.2,0-0.3,0-0.5H6.1c0,0.2-0.1,0.3-0.1,0.5c0,2.7,0.7,4.9,2.1,7L9.1,28z"
		/>
	<path class="st0" d="M16.5,14.8c0-0.8-0.6-1.2-2-1.2h-2.2v5.4c0.2-0.1,0.3-0.1,0.4-0.1c0.1,0,0.3,0,0.4,0.1v-2.6h0.7l0.7,0.7l1,1.2
		c0.2,0.3,0.4,0.5,0.6,0.7c0.2-0.1,0.3-0.1,0.5-0.1c0.2,0,0.3,0,0.5,0.1l-0.2-0.2l-0.4-0.5l-1.8-2.1C15.6,16.2,16.5,15.8,16.5,14.8z
		 M14.6,16.1c-0.4,0.1-1.3,0.1-1.5,0.1V14c0.4,0,1.3-0.1,1.6,0c0.7,0.1,1,0.5,1,1C15.7,15.6,15.2,16,14.6,16.1z"/>
	<path class="st0" d="M5.3,13.9c0.9,0,1.5,0.5,1.7,0.7h0.1c0.1-0.2,0.1-0.4,0.2-0.6c-0.6-0.2-1.2-0.4-1.9-0.4c-1.9,0-3.3,1-3.3,2.8
		c0,1.7,1.2,2.8,3.1,2.8c0.7,0,1.4-0.1,1.9-0.4l0.1-0.5c-0.2,0.2-0.9,0.6-1.9,0.6C4,18.8,3,17.9,3,16.3C3,15.1,3.7,13.9,5.3,13.9z"
		/>
	<path class="st0" d="M13.6,3.4C13.6,3.4,13.6,3.4,13.6,3.4h-0.1C6.3,3.5,0.4,9.4,0.4,16.6c0,1.4,0.3,2.7,0.6,4l3,11.3h0.8l-2.2-7.9
		c1.5,2.3,3.6,4.1,6.4,4.9l1.6,0.5c1,0.3,1.8,0.4,2.9,0.4c2.4,0,4.7-0.7,6.7-1.9L16,32.7l-0.7,0.7l-6.1,6.6h0.8l6.2-6.7l0.5-0.5
		l6.1-6.6c2.1-2.3,3.8-5,4.1-8.2l2.4,10.3l0.4,1.2L31.8,40h0.7l-2.7-11.6l-0.2-1.1l-3-13.2c-0.4-1.9-0.9-3.2-2-4.7l-1.4-0.7
		c1.9,2.2,2.9,4.7,2.9,7.9c0,6.9-5.6,12.5-12.5,12.5c-1.5,0-2.9-0.3-4.2-0.8l-1.1-0.4c-4.4-1.6-7.2-6.3-7.2-11.3
		c0-6.9,5.6-12.5,12.5-12.5c3.3,0,6.1,1.1,8.3,3.2l1.4,0.4c-1.5-1.8-3.1-2.9-5.4-3.7h19.5V3.4H13.6z"/>
	<path class="st0" d="M22.1,13.7v4.1h-0.1l-4.2-4.1h-0.3v5.4c0.1-0.1,0.2-0.1,0.3-0.1c0.1,0,0.2,0,0.2,0.1v-4.3h0.1l3.8,3.8
		c0.2,0.2,0.4,0.4,0.5,0.5h0.3v-5.4c-0.1,0-0.2,0.1-0.3,0.1C22.3,13.7,22.2,13.7,22.1,13.7z"/>
	<path class="st0" d="M15.7,32.6c-2.2-0.6-3.6-1.3-5.2-2.9l-1-0.3c1.6,1.9,3.2,2.9,5.7,3.6L15.7,32.6z"/>
</g>
</svg>
