<svg id="Layer_1" xmlns="http://www.w3.org/2000/svg" width="160" height="33.7" viewBox="0 0 160 33.7"><style>.st0{fill:#b7ca9d}.st1{fill:#759c3e}.st2{fill:#4b612c}.st3{fill:#e47911}</style><g id="Layer_1_1_"><path class="st0" d="M29.8 23.2L14.9 21 0 23.2l14.9 5.3z"/><path class="st1" d="M22.3 22.4l-11.9 2.8V0l11.9 4.6z"/><path class="st1" d="M14.4 22.2l-8.9 1.5V5.6l8.9 2z"/><path class="st2" d="M11.7 25.6l3.2.9v-7.3l-3.2-.4zm-1.3-.4l-3.4-1V1.7L10.4 0zm4.5 3.3L0 23.2v3.1l14.9 7.4z"/><path class="st1" d="M29.8 26.3l-14.9 7.4v-5.2l14.9-5.3z"/><path class="st2" d="M3 22.9l2.5.8V5.5L3 6.5z"/><path class="st1" d="M25.6 18.1l-10.7 1.1v7.3l10.7-3.2z"/><path class="st0" d="M25.6 18.1H22l-10.3.7 3.2.4z"/></g><path class="st3" d="M38.6 12l4.5 11.7h-1.2L40.4 20h-5.3l-1.4 3.6h-1.1L37.3 12h1.3zm1.6 7.1l-2.3-6-2.4 6h4.7zm4-7.1l2.6 10.2L49.6 12H51l2.8 10.2L56.5 12h1.1l-3 11.7h-1.1l-3-10.5-3 10.5h-1.2L43.1 12h1.1zm15.7 9.3c.2.5.5.7.8 1 .3.3.8.5 1.2.6.5.1 1 .1 1.5.1.3 0 .7 0 1-.1.3-.1.7-.2 1-.5.3-.2.6-.5.8-.7.2-.3.3-.7.3-1.1 0-.3-.1-.6-.2-.8-.1-.2-.3-.5-.6-.6-.2-.1-.5-.3-.8-.5-.2-.1-.6-.2-.8-.2l-2.7-.7c-.3-.1-.7-.2-1-.3-.3-.1-.6-.3-.8-.6-.2-.2-.5-.5-.6-.8-.1-.3-.2-.7-.2-1.1 0-.2 0-.6.1-1 .1-.3.3-.8.6-1.1.3-.3.7-.6 1.2-.9.6-.2 1.2-.3 2-.3.6 0 1.1.1 1.7.2.6.1 1 .3 1.4.7.3.3.7.7.9 1.1.2.5.3 1 .3 1.6h-1c0-.5-.1-.8-.3-1.1-.2-.3-.5-.6-.7-.8-.3-.2-.6-.3-1-.5-.5-.1-.8-.2-1.1-.2-.3 0-.8 0-1.1.1-.3.1-.7.2-.9.3l-.7.7c-.1.3-.2.7-.2 1.1 0 .2 0 .6.1.7.1.2.2.3.3.6.1.1.3.2.6.3.2.1.5.1.7.2l2.8.7c.5.1.8.2 1.1.5.3.1.7.3 1 .6.2.2.5.6.7.9.1.3.2.8.2 1.2v.6c0 .3-.1.5-.2.7-.1.2-.2.5-.5.8-.2.2-.5.5-.8.7s-.8.3-1.2.5c-.5.1-1.1.2-1.8.2s-1.4-.1-1.9-.2c-.6-.1-1.1-.5-1.5-.7-.5-.3-.7-.8-.9-1.2-.2-.6-.3-1.1-.3-1.8h1.1c0 .2.1.7.4 1.1zm22.1-7c-.2-.3-.5-.7-.8-.9-.3-.2-.7-.5-1-.6-.3-.1-.8-.2-1.2-.2-.8 0-1.5.1-2 .5-.6.3-1 .7-1.4 1.1-.3.5-.6 1-.8 1.6-.1.6-.2 1.2-.2 1.9s.1 1.2.2 1.9c.1.6.5 1.1.8 1.7.3.5.8.9 1.4 1.1.6.3 1.2.5 2 .5.6 0 1-.1 1.5-.3.5-.2.8-.5 1.1-.8.3-.3.6-.7.8-1.1.2-.5.3-.9.3-1.5h1.1c-.1.7-.2 1.4-.5 1.9-.2.6-.6 1-1 1.5-.5.5-.9.7-1.5.9-.6.2-1.1.3-1.9.3-.9 0-1.7-.1-2.4-.5-.7-.3-1.2-.8-1.7-1.4-.5-.6-.8-1.2-1-1.9-.2-.7-.3-1.5-.3-2.3s.1-1.6.3-2.3c.2-.7.6-1.4 1-1.9.5-.6 1-1 1.7-1.4.7-.3 1.5-.5 2.4-.5.6 0 1.1.1 1.6.2.6.1 1 .5 1.5.7.5.3.8.7 1.1 1.1.3.5.5 1 .6 1.6h-1.1c-.2-.2-.3-.5-.6-.9zm4.3-2.3v11.7h-1V12h1zm7.3 3.4c.5.2.9.6 1.2 1 .3.5.6.9.8 1.4.2.6.2 1.1.2 1.7s-.1 1.1-.2 1.7c-.2.6-.5 1-.8 1.4-.3.5-.8.7-1.2.9-.5.2-1 .3-1.7.3s-1.2-.1-1.7-.3c-.5-.2-.9-.6-1.2-.9-.3-.5-.6-.9-.8-1.4-.2-.6-.2-1.1-.2-1.7s.1-1.1.2-1.7c.2-.6.5-1 .8-1.4.3-.5.8-.7 1.2-1 .5-.2 1-.3 1.7-.3.6-.1 1.1 0 1.7.3zm-3.1.8c-.3.2-.7.5-.9.8-.2.3-.5.7-.6 1.1s-.2.9-.2 1.4c0 .5.1.9.2 1.4.1.5.3.8.6 1.1s.6.6.9.8c.3.2.8.3 1.2.3.5 0 .9-.1 1.2-.3.3-.2.7-.5.9-.8.2-.3.5-.7.6-1.1.1-.5.2-.9.2-1.4 0-.5-.1-.9-.2-1.4-.1-.5-.3-.8-.6-1.1-.2-.3-.6-.6-.9-.8-.3-.2-.8-.3-1.2-.3-.4-.1-.8 0-1.2.3zm12.8 7.5v-1.5c-.2.6-.7 1-1.1 1.2-.6.3-1.1.5-1.7.5-.6 0-1-.1-1.4-.2-.3-.1-.7-.3-.9-.7-.2-.2-.5-.6-.6-1-.1-.3-.1-.8-.1-1.4v-5.5h1v5.5c0 .8.2 1.4.6 1.7.3.3.9.6 1.7.6.5 0 .8-.1 1.1-.3.3-.2.6-.5.8-.8.2-.3.3-.7.5-1.1.1-.5.1-.8.1-1.2v-4.4h1v8.4l-1 .2zm9.4 0v-1.6c-.1.2-.2.6-.5.8-.2.2-.5.5-.7.6-.2.1-.6.2-.9.3-.3.1-.6.1-.9.1-.7 0-1.2-.1-1.7-.3-.5-.2-.9-.6-1.1-1-.3-.5-.6-.9-.7-1.5-.1-.6-.5-1-.5-1.6s.1-1.1.2-1.7.3-1 .7-1.5c.3-.5.7-.7 1.1-1 .5-.2 1-.3 1.7-.3.3 0 .6 0 .9.1.3.1.6.2.8.3.2.1.5.3.7.6.2.2.3.5.5.8v-4.9h1v11.7l-.6.1zm-5.7-3c.1.5.2.8.5 1.1.2.3.5.6.9.8.5.2.8.3 1.2.3.6 0 1-.1 1.4-.3.3-.2.7-.5.9-.8.2-.3.5-.7.5-1.1.1-.5.1-.9.1-1.2 0-.5 0-.9-.1-1.2-.1-.5-.2-.8-.5-1.1-.2-.3-.6-.6-.9-.8-.3-.2-.8-.3-1.4-.3-.5 0-.9.1-1.2.3-.3.2-.7.5-.9.8-.2.3-.3.7-.5 1.1-.1.3-.1.8-.1 1.2 0 .4 0 .9.1 1.2zm8.8-8.7l2.6 10.2 2.8-10.2h1.4l2.8 10.2L128 12h1.1l-3 11.7H125l-3-10.5-3 10.5h-1.2L114.6 12h1.2zm14.3 4.5c.2-.3.5-.7.7-.9.3-.2.7-.5 1-.5.5-.1.8-.1 1.4-.1.3 0 .8 0 1.1.1s.7.2 1 .5c.3.2.6.5.7.8.2.3.2.8.2 1.4v4.4c0 .5.2.6.6.6.1 0 .2 0 .3-.1v.9h-.6c-.2 0-.5 0-.7-.1-.2-.1-.2-.2-.3-.3-.1-.1-.1-.3-.2-.5v-.6c-.2.2-.3.6-.6.7-.2.2-.5.3-.7.6-.2.1-.5.2-.8.3-.3.1-.7.1-1 .1-.3 0-.8 0-1.1-.1-.3-.1-.7-.2-.9-.5-.2-.2-.5-.5-.6-.8-.1-.3-.2-.7-.2-1.1 0-.6.1-1 .3-1.4.2-.3.6-.6 1-.8.5-.2.9-.3 1.5-.3.6-.1 1.1-.1 1.6-.2.2 0 .5 0 .6-.1.1 0 .3-.1.5-.2.1-.1.2-.2.2-.3.1-.1.1-.3.1-.6s-.1-.7-.2-.9c-.1-.2-.2-.5-.5-.6-.2-.1-.5-.2-.7-.2s-.6-.1-.9-.1c-.7 0-1.1.1-1.6.5-.5.3-.7.8-.7 1.5h-1c.2-.3.3-.8.5-1.1zm5.1 2.5c-.1.1-.2.2-.3.2-.2 0-.3.1-.5.1-.5.1-.9.1-1.4.2-.5.1-.9.1-1.2.2-.3.1-.7.3-.9.6-.2.2-.3.6-.3.9 0 .2 0 .5.1.7.1.2.2.3.5.6.2.1.3.2.6.3.2.1.5.1.7.1.3 0 .8-.1 1.1-.2.3-.1.7-.3.9-.6.2-.2.5-.5.7-.8.1-.3.2-.7.2-1.1l-.2-1.2zm6.5-3.7v.7H140v5.7c0 .3 0 .6.1.8.1.2.3.3.7.3h.9v.9h-1c-.7 0-1.1-.1-1.5-.5-.2-.2-.5-.8-.3-1.5V16h-1.5v-.9h1.5v-2.5h1v2.5l1.8.2zm6.7 1.1c-.3-.3-.9-.6-1.6-.6-.5 0-.9.1-1.2.3s-.7.5-.9.8c-.2.3-.5.7-.6 1.1s-.2.9-.2 1.4c0 .5.1.9.2 1.4.1.5.3.8.6 1.1.2.3.6.6.9.8s.8.3 1.2.3c.3 0 .6-.1.9-.2.2-.1.6-.3.8-.5.2-.2.5-.5.6-.8.1-.3.2-.6.2-1h1c-.1 1-.6 1.8-1.1 2.4-.6.6-1.4.9-2.4.9-.7 0-1.2-.1-1.7-.3-.5-.2-.9-.6-1.2-.9-.3-.5-.6-.9-.8-1.4s-.2-1.1-.2-1.7.1-1.1.2-1.7c.2-.6.5-1 .8-1.4s.8-.7 1.2-1c.5-.2 1-.3 1.7-.3.9 0 1.7.2 2.3.7.7.5 1 1.2 1.1 2.2h-1c-.1-.8-.5-1.3-.8-1.6zm4.3-4.4v4.7c.2-.6.6-.9 1-1.2.5-.3 1-.5 1.7-.5.6 0 1.1.1 1.5.2.5.1.7.3.9.7.2.2.5.6.5 1 .1.5.1.9.1 1.4v5.5h-1v-5.2c0-.3 0-.7-.1-1-.1-.3-.2-.6-.3-.8s-.3-.5-.7-.6c-.2-.1-.7-.2-1-.2-.5 0-.8.1-1.1.2-.3.1-.6.3-.8.6s-.5.6-.6.9-.2.8-.2 1.1v4.9h-1V12h1.1z"/></svg>