<svg width="81" height="24" viewBox="0 0 81 24" fill="none" xmlns="http://www.w3.org/2000/svg">
<path d="M0 9.31619V18.0777H3.4965C7.8165 18.0777 8.3295 18.0507 9.5985 17.7402C11.5155 17.2677 13.095 16.2552 14.175 14.8107C14.6475 14.1762 15.0525 13.4067 15.336 12.6237C16.065 10.5582 15.9975 7.70969 15.174 5.64419C14.148 3.06569 12.123 1.41869 9.234 0.797688C8.208 0.581688 8.235 0.581686 3.969 0.568186L0 0.554688V9.31619ZM8.181 3.74069C9.5985 4.03769 10.611 4.64518 11.3535 5.61718C12.609 7.27768 12.8385 10.2612 11.853 12.2052C11.124 13.6362 9.99 14.4732 8.2215 14.8647C7.857 14.9457 7.722 14.9592 5.616 14.9727L3.3885 14.9862V9.30269V3.61919L5.5755 3.63269C7.6545 3.64619 7.776 3.65969 8.181 3.74069ZM21.762 5.99519C21.0465 6.07619 20.331 6.29219 19.7505 6.57569C18.7515 7.06169 17.9415 7.91218 17.496 8.93818C17.334 9.30268 17.2125 9.66719 17.253 9.69419C17.2665 9.70769 17.847 9.86969 18.5625 10.0587C19.278 10.2477 19.8855 10.4097 19.926 10.4232C19.98 10.4367 20.007 10.3692 20.1015 10.1262C20.4525 9.07319 21.33 8.47919 22.5585 8.47919C23.382 8.47919 24.003 8.68168 24.435 9.12718C24.8535 9.53218 24.975 9.91018 25.0155 10.7472C25.029 11.2602 25.029 11.3142 24.975 11.3142C24.9345 11.3142 24.6105 11.2467 24.246 11.1522C23.139 10.8957 22.8825 10.8552 21.951 10.8552C20.8035 10.8552 20.0745 10.9902 19.3185 11.3412C18.144 11.8947 17.5095 12.7992 17.3475 14.1357C17.2125 15.3372 17.577 16.4442 18.4005 17.2272C19.332 18.1047 20.601 18.4557 22.0995 18.2532C23.382 18.0777 24.3135 17.5242 24.9615 16.5522L25.1505 16.2687L25.164 17.1732L25.1775 18.0777H26.6355H28.0935L28.08 13.9467L28.0665 9.81568L27.9585 9.39718C27.486 7.50718 26.298 6.46769 24.1245 6.06269C23.7465 6.00869 22.113 5.95469 21.762 5.99519ZM23.4765 13.1502C23.6655 13.1907 24.084 13.3122 24.4215 13.4202C25.0965 13.6227 25.056 13.5687 24.9885 14.0547C24.867 14.8647 24.246 15.5262 23.3685 15.7692C23.058 15.8502 22.248 15.8907 21.8835 15.8232C21.3435 15.7287 20.8845 15.4317 20.682 15.0267C20.5605 14.7837 20.5335 14.3112 20.628 14.0142C20.763 13.5687 21.195 13.2312 21.762 13.0962C22.14 13.0017 23.031 13.0287 23.4765 13.1502ZM36.2205 6.03569C35.1 6.23819 34.0335 6.84569 33.372 7.65568C33.2505 7.79069 33.1425 7.91218 33.129 7.91218C33.1155 7.92568 33.0885 7.54769 33.0885 7.06169V6.19769H31.5495H30.0105V14.6217V23.0187H31.6035H33.21L33.2235 19.7922L33.237 16.5657L33.3855 16.7817C34.0875 17.7942 35.505 18.3747 37.098 18.3072C39.0015 18.2262 40.581 17.3892 41.5665 15.9312C42.984 13.8252 42.957 10.3962 41.4855 8.24968C41.2155 7.85818 40.689 7.30469 40.2975 7.02119C39.744 6.60269 38.961 6.25169 38.1915 6.07619C37.8 5.98169 36.6255 5.96819 36.2205 6.03569ZM37.098 8.83019C37.9215 9.05969 38.637 9.65369 39.0285 10.4367C39.3255 11.0307 39.4605 11.8677 39.393 12.6237C39.258 13.9872 38.4615 15.0537 37.2735 15.4452C36.99 15.5397 36.855 15.5667 36.4095 15.5802C35.748 15.5937 35.3835 15.5262 34.8165 15.2427C34.4925 15.0807 34.3845 14.9997 34.074 14.6892C33.75 14.3652 33.6825 14.2707 33.507 13.9062C33.1695 13.2177 33.0615 12.5427 33.1425 11.7732C33.3045 10.1802 34.209 9.10019 35.6265 8.77619C35.9235 8.70869 36.7605 8.73569 37.098 8.83019ZM50.3415 6.03569C49.6665 6.15719 48.951 6.45419 48.3705 6.84569C48.0735 7.04818 47.574 7.52068 47.3715 7.77718L47.25 7.93919V7.07519V6.21119H45.6975H44.145V14.6217V23.0187H45.765H47.385V19.8057V16.5927L47.5335 16.7817C48.087 17.5107 48.924 18.0102 49.9635 18.2127C50.4495 18.3072 51.597 18.3072 52.1235 18.2127C53.2845 17.9967 54.2565 17.4972 55.053 16.7007C56.2275 15.5262 56.808 13.8792 56.7405 11.8812C56.673 10.0452 56.079 8.53319 54.972 7.46669C53.9595 6.48119 52.6635 5.96819 51.2055 5.98169C50.8815 5.98169 50.517 6.00869 50.3415 6.03569ZM51.2055 8.83019C52.38 9.15419 53.2035 10.0992 53.46 11.4087C53.5275 11.7597 53.514 12.7047 53.4465 13.0557C53.1765 14.2707 52.434 15.1077 51.327 15.4587C50.949 15.5802 50.139 15.6207 49.7205 15.5262C48.4785 15.2562 47.574 14.3247 47.304 13.0152C47.223 12.6237 47.223 11.7867 47.2905 11.3817C47.439 10.6392 47.709 10.1127 48.222 9.59968C48.6675 9.16768 49.167 8.89769 49.788 8.76269C50.058 8.70869 50.922 8.74919 51.2055 8.83019ZM63.2475 5.99519C61.8165 6.21119 60.75 6.72419 59.859 7.62869C58.9005 8.58719 58.3335 9.80219 58.158 11.2467C58.0905 11.8137 58.131 12.9342 58.239 13.4742C58.617 15.3777 59.6835 16.8222 61.3305 17.6322C63.099 18.5097 65.529 18.5367 67.2435 17.6997C67.959 17.3487 68.6205 16.8087 69.093 16.1742C69.3495 15.8367 69.8625 14.8782 69.876 14.7027C69.8895 14.6217 69.8085 14.5812 68.5935 14.0952C67.0275 13.4742 67.1625 13.5147 67.1625 13.6092C67.1625 13.7307 66.9465 14.1762 66.798 14.4192C66.4875 14.8917 66.0555 15.2157 65.5425 15.3912C64.665 15.6882 63.6795 15.6072 62.829 15.1887C62.532 15.0402 62.397 14.9457 62.127 14.6757C61.8435 14.4057 61.7625 14.2977 61.614 13.9737C61.425 13.5687 61.371 13.3797 61.317 12.9882L61.29 12.7317L65.3265 12.7182L69.39 12.7317L69.444 12.4482C69.471 12.2727 69.498 11.8542 69.498 11.3142C69.498 10.5717 69.4845 10.4097 69.417 10.0587C68.9445 7.91219 67.581 6.57569 65.4075 6.10319C65.0835 6.03569 64.8405 6.02219 64.1925 6.00869C63.7335 5.99519 63.315 5.99519 63.2475 5.99519ZM64.854 8.65468C65.448 8.80318 65.988 9.20819 66.2175 9.64019C66.3255 9.84269 66.42 10.2072 66.42 10.4232V10.5987H63.8685C62.4645 10.5987 61.317 10.5852 61.317 10.5852C61.317 10.5717 61.344 10.4772 61.398 10.3557C61.857 8.97868 63.315 8.26318 64.854 8.65468ZM76.8555 6.03569C76.059 6.19769 75.384 6.67018 74.952 7.37218L74.7495 7.69619V6.95369V6.21119H73.1565H71.5635V12.1512V18.0912H73.1565H74.7495L74.763 14.0142C74.7765 9.97768 74.7765 9.95069 74.8575 9.69419C74.979 9.34319 75.168 9.05969 75.411 8.88419C75.681 8.68169 75.924 8.60069 76.275 8.57369C77.031 8.51969 77.6655 8.92469 77.8545 9.58619C77.9085 9.76169 77.9085 9.91019 77.895 10.2612C77.8815 10.5177 77.8545 10.7742 77.841 10.8282L77.814 10.9362H79.326H80.838L80.8785 10.7337C81.0405 10.0182 81.0405 8.97868 80.8785 8.38468C80.541 7.08868 79.5825 6.19769 78.2865 5.99519C77.949 5.95469 77.1795 5.96819 76.8555 6.03569Z" fill="#797B7F"/>
</svg>
