<svg width="62" height="23" viewBox="0 0 62 23" fill="none" xmlns="http://www.w3.org/2000/svg">
<g style="mix-blend-mode:multiply">
<path d="M7.94477 4.82422C3.62429 4.82422 0 6.48117 0 11.452C0 15.3919 2.41619 17.8773 8.04715 17.8773C14.661 17.8957 15.091 13.9743 15.091 13.9743H11.8762C11.8762 13.9743 11.18 16.0915 7.84239 16.0915C5.11906 16.0915 3.15334 14.4345 3.15334 12.1148H15.4186V10.6604C15.4186 8.35904 13.801 4.82422 7.94477 4.82422ZM7.82192 6.68368C10.4224 6.68368 12.1834 8.11971 12.1834 10.2553H3.23524C3.23524 7.99083 5.54906 6.68368 7.82192 6.68368Z" fill="#7F8184"/>
<path d="M15.4189 0V15.3912C15.4189 16.2565 15.3574 17.49 15.3574 17.49H18.4084C18.4084 17.49 18.5108 16.6063 18.5108 15.7962C18.5108 15.7962 20.026 17.9135 24.1417 17.9135C28.4622 17.9135 31.4108 15.2071 31.4108 11.3409C31.4108 7.73243 28.7079 4.84197 24.1417 4.84197C19.8622 4.84197 18.5517 6.92236 18.5517 6.92236V0H15.4189ZM23.3636 6.77508C26.3122 6.77508 28.1755 8.74501 28.1755 11.3593C28.1755 14.1761 26.0255 16.0356 23.3841 16.0356C20.2512 16.0356 18.5517 13.8263 18.5517 11.3961C18.5517 9.11322 20.0669 6.77508 23.3636 6.77508Z" fill="#7F8184"/>
<path d="M39.0082 4.82422C32.4968 4.82422 32.0668 8.02765 32.0668 8.54314H35.302C35.302 8.54314 35.4658 6.66527 38.7625 6.66527C40.9125 6.66527 42.571 7.54897 42.571 9.24274V9.85029H38.7625C33.7253 9.85029 31.043 11.1758 31.043 13.8638C31.043 16.5149 33.5001 17.9509 36.8377 17.9509C41.3834 17.9509 42.8372 15.6864 42.8372 15.6864C42.8372 16.5885 42.9191 17.4722 42.9191 17.4722H45.8472C45.8472 17.4722 45.7448 16.3676 45.7448 15.668V9.62936C45.7244 5.6711 42.1615 4.82422 39.0082 4.82422ZM42.5915 11.6545V12.4646C42.5915 13.514 41.8749 16.1283 37.6363 16.1283C35.3225 16.1283 34.3192 15.0789 34.3192 13.8822C34.3192 11.6729 37.6772 11.6545 42.5915 11.6545Z" fill="#7F8184"/>
<path d="M43.9844 5.32227H47.6291L52.8711 14.7485L58.0925 5.32227H61.3892L51.8677 22.1127H48.4072L51.1511 17.4364L43.9844 5.32227Z" fill="#7F8184"/>
</g>
</svg>
