<svg id="Layer_1" xmlns="http://www.w3.org/2000/svg" width="160" height="33.7" viewBox="-319 384.3 160 33.7"><style>.st0{fill:#fff}.st1{fill:#edbe1c}.st2{fill:#42bfb1}.st3{fill:#11a5de}.st4{fill:#221f1f}.st5{fill:#d7a329}.st6{fill:#009b90}</style><path class="st0" d="M-276.6 407l.7-.1v1.4c-1.8.3-3.3.4-4.6.4-1.7 0-2.9-.5-3.6-1.5-.7-1-1.1-2.5-1.1-4.6 0-4.1 1.6-6.2 4.9-6.2 1.6 0 2.8.4 3.5 1.3.8.9 1.2 2.3 1.2 4.2l-.1 1.3h-7.7c0 1.3.2 2.3.7 2.9.5.6 1.3.9 2.5.9 1.2.1 2.4.1 3.6 0m-.7-5.1c0-1.4-.2-2.5-.7-3.1s-1.2-.9-2.3-.9c-1 0-1.8.3-2.3.9s-.8 1.6-.8 3h6.1v.1zm4.7 6.5v-16.8h1.8v16.9l-1.8-.1zm13.6-8.2v6c0 .6.5.9 1.4 1l-.1 1.5c-1.2 0-2.2-.3-2.8-.9-1.5.5-2.9.9-4.3.9-1.1 0-1.9-.3-2.5-.9-.6-.6-.8-1.5-.8-2.6s.3-2 .9-2.5c.6-.5 1.5-.9 2.7-1l3.7-.4v-1c0-.8-.2-1.4-.5-1.7-.3-.3-.8-.5-1.4-.5-1.3 0-2.6.1-3.9.2l-.7.1-.1-1.3c1.7-.3 3.2-.5 4.6-.5 1.3 0 2.3.3 2.9.9.6.5.9 1.4.9 2.7m-7.3 4.8c0 1.4.6 2.2 1.8 2.2 1.1 0 2.1-.2 3.1-.5l.5-.2v-3.9l-3.5.3c-.7.1-1.2.3-1.5.6-.2.4-.4.9-.4 1.5m14.4-7c-1.7 0-2.6.6-2.6 1.8 0 .5.2.9.6 1.2.4.2 1.3.5 2.7.7 1.4.2 2.4.6 3 1 .6.4.9 1.3.9 2.5s-.4 2.1-1.2 2.7c-.8.6-1.9.8-3.4.8-1 0-2.1-.1-3.4-.3l-.7-.2.1-1.5c1.8.3 3.1.4 4 .4.9 0 1.6-.1 2.1-.4.5-.3.7-.8.7-1.5s-.2-1.1-.6-1.4c-.4-.2-1.3-.5-2.7-.7-1.4-.2-2.4-.5-2.9-1-.6-.4-.9-1.2-.9-2.3s.4-2 1.2-2.5c.8-.5 1.8-.8 3-.8 1 0 2.2.1 3.6.3l.7.1v1.5c-1.8-.3-3.2-.4-4.2-.4m13.3.2h-3.7v5.6c0 1.3.1 2.2.3 2.7.2.4.7.6 1.4.6l2.1-.1.1 1.5c-1 .2-1.8.3-2.4.3-1.2 0-2.1-.3-2.5-.9-.5-.6-.7-1.7-.7-3.4v-6.2h-1.7v-1.6h1.7v-3.6h1.7v3.6h3.7v1.5m2.2-4.2v-2h1.8v2h-1.8m0 14.4v-11.7h1.8v11.7h-1.8m9.5-11.9c.5 0 1.4.1 2.6.3l.6.1-.1 1.4c-1.3-.1-2.2-.2-2.8-.2-1.3 0-2.2.3-2.7 1-.5.6-.7 1.8-.7 3.5s.2 2.9.7 3.6c.4.7 1.4 1 2.8 1l2.8-.2.1 1.5c-1.5.2-2.5.3-3.3.3-1.8 0-3.1-.5-3.8-1.4-.7-.9-1-2.5-1-4.8s.4-3.8 1.1-4.7c.7-1 2-1.4 3.7-1.4m9.6 1.5c-1.7 0-2.6.6-2.6 1.8 0 .5.2.9.6 1.2.4.2 1.3.5 2.7.7 1.4.2 2.4.6 3 1s.9 1.3.9 2.5-.4 2.1-1.2 2.7c-.8.6-1.9.8-3.4.8-1 0-2.1-.1-3.4-.3l-.7-.1.1-1.5c1.8.3 3.1.4 4 .4s1.6-.1 2.1-.4.7-.8.7-1.5-.2-1.1-.6-1.4c-.4-.2-1.3-.5-2.7-.7-1.4-.2-2.4-.5-2.9-1-.6-.4-.9-1.2-.9-2.3s.4-2 1.2-2.5 1.8-.8 3-.8c1 0 2.2.1 3.6.3l.7.1v1.5c-1.9-.4-3.2-.5-4.2-.5m15.2 9l.7-.1v1.4c-1.8.3-3.3.4-4.6.4-1.7 0-2.9-.5-3.6-1.5-.7-1-1.1-2.5-1.1-4.6 0-4.1 1.6-6.2 4.9-6.2 1.6 0 2.8.4 3.5 1.3.8.9 1.2 2.3 1.2 4.2l-.1 1.3h-7.7c0 1.3.2 2.3.7 2.9.5.6 1.3.9 2.5.9 1.2.1 2.4.1 3.6 0m-.7-5.1c0-1.4-.2-2.5-.7-3.1s-1.2-.9-2.3-.9c-1 0-1.8.3-2.3.9s-.8 1.6-.8 3h6.1v.1zm12.8-1.7v6c0 .6.5.9 1.4 1l-.1 1.4c-1.2 0-2.2-.3-2.8-.9-1.4.6-2.8.9-4.2.9-1.1 0-1.9-.3-2.5-.9s-.8-1.5-.8-2.6.3-2 .9-2.5c.6-.5 1.5-.9 2.7-1l3.7-.4v-1c0-.8-.2-1.4-.5-1.7-.3-.3-.8-.5-1.4-.5-1.3 0-2.6.1-3.9.2l-.7.1-.1-1.3c1.7-.3 3.2-.5 4.6-.5 1.3 0 2.3.3 2.9.9.5.6.8 1.5.8 2.8m-7.2 4.8c0 1.4.6 2.2 1.8 2.2 1.1 0 2.1-.2 3.1-.5l.5-.2v-3.9l-3.5.3c-.7.1-1.2.3-1.5.6-.2.4-.4.9-.4 1.5m10.7 3.4v-11.7h1.7v1.6c1.4-.9 2.8-1.6 4.3-1.9v1.8c-.7.1-1.3.3-2.1.6-.7.3-1.3.5-1.6.7l-.6.3v8.6h-1.7m12.3-11.9c.5 0 1.4.1 2.6.3l.6.1-.1 1.4c-1.3-.1-2.2-.2-2.8-.2-1.3 0-2.2.3-2.7 1-.5.6-.7 1.8-.7 3.5s.2 2.9.7 3.6c.4.7 1.4 1 2.8 1l2.8-.2.1 1.5c-1.5.2-2.5.3-3.3.3-1.8 0-3.1-.5-3.8-1.4s-1-2.5-1-4.8.4-3.8 1.1-4.7c.7-1 2-1.4 3.7-1.4m7.6 11.9h-1.8v-16.8h1.8v5.8c1.3-.6 2.5-.9 3.6-.9 1.6 0 2.6.4 3.2 1.3.5.8.8 2.3.8 4.5v6.2h-1.8v-6.2c0-1.6-.2-2.7-.5-3.3-.3-.6-1-.9-2-.9s-1.9.2-2.9.5l-.4.2v9.6"/><path class="st1" d="M-293.2 392.2c-2.7-3.4-6.8-5.5-11.4-5.5-2.6 0-5.1.7-7.2 1.9 2.1 1.6 3.8 4.1 4.9 6.1h-10.6 18.8c2.2 0 4.2-.9 5.5-2.5m-22.5-.2c0-.1 0-.1 0 0m1.8-1.9c.1 0 .1-.1.2-.1-.1 0-.1.1-.2.1m-1 .9l.2-.2c0 .1-.1.2-.2.2m-1.7 2.1s0-.1 0 0c.1 0 0 0 0 0m4-3.9s0-.1 0 0m-4.7 5.2c.1-.1.1-.2.2-.3-.1.1-.2.2-.2.3"/><path class="st2" d="M-317.1 408.3l-.3-.6.3.6m1.9 2.5c-.3-.3-.6-.7-.9-1.1.3.4.6.8.9 1.1m.8.9c-.2-.2-.4-.3-.5-.5l.5.5m-2-2.4c-.1-.2-.3-.4-.4-.6.1.3.2.5.4.6m3 3.2c-.2-.2-.4-.3-.6-.5.2.2.4.3.6.5m1 .7c-.2-.1-.4-.3-.6-.4.1.1.4.3.6.4m12.9-5.5h-7.1c-1 2-2.7 4.6-4.8 6.3-.2-.1-.5-.3-.7-.5 2.2 1.3 4.8 2.1 7.5 2.1 4.5 0 8.5-2 11.2-5.2-1.5-1.7-3.7-2.7-6.1-2.7"/><path class="st3" d="M-296 400.7c0-2.2-1.8-4-4.1-4h-18.3 12c.3 2 .5 2.5.5 4s-.2 3-.5 4h-12 18.4c2.2 0 4-1.8 4-4"/><path class="st4" d="M-305.9 400.7c0-1.5-.2-2-.5-4h-12c-.4 2-.6 2.6-.6 4s.2 3 .6 4h12.1c.2-1 .4-2.5.4-4"/><path class="st5" d="M-317.2 394.1c.2-.3.4-.7.6-1-.2.4-.4.7-.6 1m-.3.7c0-.1.1-.3.2-.4-.1.1-.2.3-.2.4m2.8-4c.3-.3.5-.5.8-.7-.2.2-.5.5-.8.7m2.9-2.2c-.3.2-.5.4-.8.5.3-.1.5-.3.8-.5m-3.8 3.2c.2-.3.5-.6.7-.8-.2.3-.5.6-.7.8"/><path class="st5" d="M-311.8 388.6c-.3.2-.5.3-.8.5-.4.3-.8.6-1.1.9-.1 0-.1.1-.2.1-.2.2-.5.5-.8.7 0 .1-.1.2-.2.2-.2.3-.5.6-.7.8l-.1.1c-.3.4-.6.8-.8 1.1 0 0 0 .1-.1.1-.2.4-.4.7-.6 1 0 .1-.1.2-.1.3-.1.1-.2.3-.2.3h10.6c-1.1-2-2.8-4.5-4.9-6.1"/><g><path class="st6" d="M-314.4 411.7c.1.1.2.2.4.3-.1-.1-.3-.2-.4-.3m-1.7-2c-.1-.1-.2-.3-.3-.4.1.2.2.3.3.4m1.2 1.5l-.3-.3c.1 0 .2.1.3.3m-2.6-3.8c0 .1.1.2.1.2-.1 0-.1-.1-.1-.2m5.4 6c-.1-.1-.2-.1-.3-.2.1.1.2.1.3.2m-1-.6c-.1-.1-.3-.2-.4-.3.2.1.3.2.4.3m6.5-5.1h-10.9 10.9zm-10.2 1.1c-.1-.2-.2-.3-.3-.5.1.1.2.3.3.5"/><path class="st6" d="M-313.4 412.5c.1.1.3.2.4.3.2.2.4.3.6.4.1.1.2.1.3.2.2.1.5.4.7.5 2.1-1.7 3.7-4.3 4.8-6.3h-10.9s.1 0 .1.1c.1.2.2.3.3.5.1.2.2.3.3.5.1.2.2.4.4.6.1.1.2.3.3.4.3.4.6.7.9 1.1l.3.3c.2.2.4.3.5.5.1.1.2.2.4.3.2.3.4.4.6.6"/></g></svg>