<svg id="Layer_1" xmlns="http://www.w3.org/2000/svg" width="400" height="85" viewBox="0 0 400 85"><style>.st0{fill:#9fa4a6}</style><path class="st0" d="M30.3 7.4v6.9H18.8v10.9h11.4c-.4 2.1-2.2 3.7-4.4 3.8H8.7v11.1H26c8.4-.1 15.2-7 15.4-15.4v-.3H45v.3c.2 8.4 7 15.3 15.5 15.5h17.4V29.1H60.8c-2.2-.1-4-1.6-4.4-3.8h11.4V14.4H56.2v-7H45.1v6h-3.6v-6H30.3zm244.3 6.5v10h10.8v-10h-10.8zm-179.1.5v55.2H107V46.4h24.3v-9.8H107V24.2h27.8v-9.8H95.5zm197.2 0v55.2h10.8V14.4h-10.8zm58.8 0v55.2H362v-5.2h.2c2.6 4.6 7.4 6.2 11.8 6.2 12.2 0 17.2-10.8 17.2-22 0-14.1-8-21.1-17-21.1-6.9 0-10.2 3.8-11.8 6.4h-.2V14.4h-10.7zM155.1 27.6c-17.9 0-19.6 15.8-19.6 20.7 0 16.8 8.8 22.4 20.4 22.4 7 0 15.2-3.2 18-13.1h-11.1c-.8 2.9-3.9 4.5-6.9 4.5-8.7 0-9.3-6.9-9.6-10h28.1v-1.9c-.1-18.7-11.2-22.6-19.3-22.6zm46.4 0c-6.5 0-9 4-11.2 8.2h-.2v-7.1h-10.3v40.9h10.8V48.3c0-4.5 1.5-9.8 9.9-9.8 1 0 2.2 0 3.1.2V27.8c-.7-.1-1.4-.2-2.1-.2zm29.7 0c-7.2 0-10.2 4.4-11.6 7.1h-.2v-6h-10.3v40.9h10.8V44.7c0-4.5 1.6-8 6.7-8 6.5 0 6.5 4.8 6.5 8.3v24.6h10.8V45.1c0-4.8 1.9-8.4 7.3-8.4 3.2 0 5.8 2 5.8 8.1v24.8h10.8V41.3c0-9-6.2-13.7-14.2-13.7-6.5 0-9.5 4.5-10.9 6.5-2.9-4.3-5.6-6.5-11.5-6.5zm97.1 0c-8.4 0-17.1 1.8-18.3 14.3h10.4c.3-2.4 1.2-5.7 6.6-5.7 2.8 0 7.1.2 7.1 4.8 0 2.3-2.1 3-3.8 3.2l-9.7 1.5c-6.8 1-11.9 5.1-11.9 13.1 0 8.4 6.3 11.9 12.5 11.9 7.3 0 10.8-3.4 13.2-5.9.2 2.3.4 2.9 1 4.8H347V68c-1.3-.5-2.4-1.5-2.4-6.4V39.5c0-10.1-10.6-11.9-16.3-11.9zm-53.7 1.1v40.9h10.8V28.7h-10.8zm-119.7 7.8c3.5 0 7.7 2 8.3 8.6h-16.7c.7-5.4 3.4-8.6 8.4-8.6zm216.1.4c6.8 0 9.2 6.1 9.2 12.5 0 4.8-1.9 12.4-8.8 12.4-6.8 0-9.5-5.7-9.5-11.8-.1-6.4 1.7-13.1 9.1-13.1zm-362.3 7V55h17.1c2.2.1 4 1.6 4.4 3.8H18.8v10.9h11.5v6.9h11.1v-6H45v6h11.1v-6.9h11.5v-11H56.2c.4-2.1 2.2-3.7 4.4-3.8h17.1v-11H60.3c-8.4.1-15.2 7-15.4 15.4v.3h-3.6v-.3c0-8.4-6.8-15.3-15.3-15.4H8.7zM334 49.7v5.2c0 5-4.8 8.1-9.6 8.1-2.1 0-5-1.1-5-4.9 0-4.5 3.3-5.5 7.3-6.2 4.5-.6 6.2-1.3 7.3-2.2z"/></svg>