<svg width="69" height="21" viewBox="0 0 69 21" fill="none" xmlns="http://www.w3.org/2000/svg">
<path d="M16.9203 10.6163V16.0077H14.0005L13.9766 4.44796H16.9203V5.62512C17.0639 5.41325 17.9256 4.3067 20.3668 4.44796V7.24962C20.3668 7.24962 17.04 7.01416 16.9203 10.3338C16.9203 10.3338 16.9203 10.5221 16.9203 10.6163Z" fill="#797B7F"/>
<path d="M55.8377 10.546L55.8617 15.9845H52.942L52.918 4.42475H55.8377V5.55481C55.9814 5.34294 56.843 4.23639 59.2843 4.37765V7.15576C59.2843 7.15576 55.9574 6.92034 55.8377 10.2399C55.8377 10.2635 55.8377 10.4518 55.8377 10.546Z" fill="#797B7F"/>
<path d="M30.826 14.5477C29.6533 15.7013 28.2173 16.2664 26.518 16.2664C24.8188 16.2664 23.3827 15.7013 22.21 14.5477C21.0373 13.3941 20.4629 12.0051 20.4629 10.3099C20.4629 8.61483 21.0373 7.22575 22.21 6.07214C23.3827 4.91853 24.7948 4.35352 26.518 4.35352C28.2173 4.35352 29.6533 4.91853 30.826 6.07214C31.9988 7.22575 32.5971 8.61483 32.5971 10.3099C32.5971 12.0051 31.9988 13.3941 30.826 14.5477ZM24.3162 12.5465C24.8906 13.1116 25.6564 13.4176 26.542 13.4176C27.4275 13.4176 28.1694 13.1116 28.7678 12.5465C29.3661 11.9815 29.6533 11.2046 29.6533 10.3099C29.6533 9.4153 29.3422 8.66189 28.7678 8.07333C28.1934 7.50828 27.4275 7.20224 26.542 7.20224C25.6564 7.20224 24.9384 7.50828 24.3162 8.07333C23.7418 8.63838 23.4306 9.4153 23.4306 10.3099C23.4306 11.2046 23.7178 11.958 24.3162 12.5465Z" fill="#797B7F"/>
<path d="M42.9607 11.487C43.3438 12.8996 44.4208 13.5823 46.1439 13.5823C47.2448 13.5823 48.1064 13.2292 48.6808 12.4758L51.0505 13.8178C49.9495 15.4187 48.2741 16.2192 46.0962 16.2192C44.2294 16.2192 42.7217 15.6541 41.5727 14.5241C40.4477 13.4176 39.8496 12.005 39.8496 10.2863C39.8496 8.5912 40.4001 7.17862 41.5487 6.07207C42.6496 4.96555 44.1097 4.37695 45.8808 4.37695C47.5559 4.37695 48.9202 4.942 49.9972 6.09562C51.0741 7.22568 51.6246 8.61475 51.6246 10.3099C51.6246 10.663 51.5769 11.0868 51.5049 11.487H42.9607ZM42.9131 9.22687H48.7049C48.5375 8.47349 48.2024 7.90844 47.6519 7.5082C47.1251 7.15507 46.551 6.94319 45.8808 6.94319C45.0909 6.94319 44.4448 7.15507 43.942 7.53175C43.4155 7.97909 43.0564 8.52055 42.9131 9.22687Z" fill="#797B7F"/>
<path d="M63.1602 7.86123C63.1602 8.1673 63.3756 8.40273 63.7588 8.59109C64.1415 8.77942 64.6443 8.92068 65.2188 9.08549C65.7929 9.22675 66.3674 9.41508 66.9419 9.62699C67.5164 9.83886 67.9948 10.192 68.402 10.71C68.7847 11.2044 69.0001 11.8401 69.0001 12.617C69.0001 13.747 68.5693 14.6417 67.6837 15.2538C66.7982 15.8659 65.7212 16.1955 64.4289 16.1955C62.1073 16.1955 60.5039 15.3009 59.666 13.5352L62.203 12.1226C62.5381 13.1114 63.2799 13.5822 64.4289 13.5822C65.4578 13.5822 66.0083 13.2526 66.0083 12.617C66.0083 12.3109 65.7929 12.0755 65.4102 11.8871C65.0271 11.6988 64.5246 11.534 63.9501 11.3927C63.3756 11.2279 62.8015 11.0631 62.227 10.8277C61.6525 10.5922 61.1737 10.2627 60.767 9.76825C60.3842 9.29736 60.1688 8.68525 60.1688 7.95543C60.1688 6.87243 60.5756 5.97779 61.4131 5.36568C62.251 4.73002 63.2559 4.40039 64.4766 4.40039C65.4102 4.40039 66.2237 4.6123 66.9896 5.01254C67.7554 5.41278 68.3539 6.00134 68.7847 6.75471L66.2957 8.09669C65.9366 7.34328 65.3145 6.96659 64.4766 6.96659C64.1179 6.96659 63.7828 7.06079 63.5193 7.22556C63.304 7.36683 63.1602 7.57874 63.1602 7.86123Z" fill="#797B7F"/>
<path d="M12.2778 4.44738H9.40584V5.50683C8.40062 4.80052 7.27576 4.42383 5.95943 4.42383H5.93549C5.88761 4.42383 5.83976 4.42383 5.76794 4.42383C4.57131 4.42383 3.49427 4.7299 2.5848 5.38912C1.02913 6.40147 0 8.14364 0 10.1213C0 10.7805 0.119673 11.4397 0.335074 12.0283C0.598341 12.8758 1.07701 13.6528 1.77108 14.3355C2.89595 15.442 4.2841 16.0071 5.95943 16.0071C7.27576 16.0071 8.42456 15.6539 9.40584 14.9241V15.3714C9.40584 16.2425 9.14258 16.9253 8.61604 17.3961C8.08951 17.867 7.37149 18.1024 6.43808 18.1024C5.02602 18.1024 4.02079 17.5845 3.47034 16.5486L0.981279 17.9612C1.48388 18.8558 2.20188 19.515 3.13528 19.9859C4.06867 20.4567 5.14568 20.6686 6.3663 20.6686C7.99378 20.6686 9.3819 20.2213 10.5546 19.3031C11.7034 18.3849 12.2778 17.0665 12.2778 15.3479V4.44738ZM3.78147 12.3579C3.23101 11.7928 2.96775 11.0866 2.96775 10.2154C2.96775 9.34435 3.25494 8.61453 3.82935 8.04948C4.40376 7.48447 5.12174 7.20194 5.98337 7.20194C6.84495 7.20194 7.56297 7.48447 8.13735 8.04948C8.71176 8.61453 8.99897 9.34435 8.99897 10.2154C8.99897 11.0866 8.71176 11.8164 8.13735 12.3814C7.56297 12.9465 6.84495 13.229 5.98337 13.229C5.83976 13.229 5.74404 13.229 5.60044 13.2054C4.85848 13.1113 4.26016 12.8052 3.78147 12.3579Z" fill="#797B7F"/>
<path d="M39.6813 4.40108H37.312C37.4317 3.2239 38.2216 2.65887 39.7053 2.77658V0.0220259C37.9343 -0.0956899 36.594 0.257459 35.7085 1.10501C34.8708 1.8584 34.44 2.98847 34.3682 4.42459H32.7407V6.37868L32.7168 7.32041H34.3442L34.3921 16.0079H37.312L37.2641 7.29686H39.6813V4.40108Z" fill="#797B7F"/>
</svg>
