<?xml version="1.0" encoding="utf-8"?>
<!-- Generator: Adobe Illustrator 20.1.0, SVG Export Plug-In . SVG Version: 6.00 Build 0)  -->
<svg version="1.0" id="Layer_1" xmlns="http://www.w3.org/2000/svg" xmlns:xlink="http://www.w3.org/1999/xlink" x="0px" y="0px"
	 width="257.3px" height="85px" viewBox="0 0 257.3 85" enable-background="new 0 0 257.3 85" xml:space="preserve">
<g>
	<path fill="#9FA4A6" d="M34.2,30.3V39h21c-1,12.3-11.3,17.5-20.9,17.5c-12.4,0-23.1-9.7-23.1-23.4C11.1,20,21.4,9.7,34.3,9.7
		c9.9,0,15.8,6.3,15.8,6.3l6.1-6.4c0,0-7.9-8.8-22.3-8.8C15.7,0.9,1.5,16.4,1.5,33.1c0,16.4,13.3,32.3,32.9,32.3
		c17.3,0,29.9-11.8,29.9-29.3c0-3.7-0.5-5.8-0.5-5.8H34.2z"/>
	<path fill="#9FA4A6" d="M88,23.9c-12.1,0-20.8,9.5-20.8,20.5c0,11.2,8.4,20.9,21,20.9c11.3,0,20.6-8.7,20.6-20.6
		C108.8,31,98,23.9,88,23.9z M88.1,57.2c-6.6,0-11.8-5.3-11.8-12.6c0-7.2,5.1-12.5,11.9-12.5c6,0,11.6,4.8,11.6,12.6
		C99.7,52.3,94.1,57.2,88.1,57.2z"/>
	<path fill="#9FA4A6" d="M133.3,23.9c-12.1,0-20.8,9.5-20.8,20.5c0,11.2,8.4,20.9,21,20.9c11.3,0,20.6-8.7,20.6-20.6
		C154.1,31,143.2,23.9,133.3,23.9z M133.4,57.2c-6.6,0-11.8-5.3-11.8-12.6c0-7.2,5.1-12.5,11.9-12.5c6,0,11.6,4.8,11.6,12.6
		C145,52.3,139.4,57.2,133.4,57.2z"/>
	<path fill="#9FA4A6" d="M188.9,28.7c-2.7-2.9-6.3-4.8-11.2-4.8c-11.1,0-19.9,9.8-19.9,20.7c0,12.5,10.1,20.7,19.7,20.7
		c5.9,0,9-2.3,11.4-5v4.1c0,7.1-4.3,11.4-10.9,11.4c-6.3,0-9.5-4.7-10.6-7.4l-8,3.3c2.8,6,8.5,12.2,18.6,12.2
		c11.1,0,19.5-7,19.5-21.6V25.2h-8.7V28.7z M178.4,57.2c-5.9,0-11.5-4.8-11.5-12.5c0-8,5.7-12.7,11.6-12.7c5.5,0,11.1,4.7,11.1,12.6
		C189.6,52.8,184,57.2,178.4,57.2z"/>
	<path fill="#9FA4A6" d="M237.2,57.2c-5.8,0-8.5-3.2-10.2-6.3l27.8-11.5l-1.4-3.4c-2.7-6.6-8.9-12.1-17.2-12.1
		c-10.5,0-19.3,8.4-19.3,20.7c0,13,9.8,20.8,20.3,20.8c8.8,0,14.1-4.8,17.4-9.1l-7.2-4.8C245.5,54.4,242.4,57.2,237.2,57.2z
		 M236.5,31.9c3.8,0,6.5,2,7.7,4.4L225.6,44C224.8,38,230.5,31.9,236.5,31.9z"/>
	<rect x="203.6" y="3.1" fill="#9FA4A6" width="9.1" height="61"/>
</g>
</svg>
