<svg width="160" height="38" viewBox="0 0 160 38" fill="none" xmlns="http://www.w3.org/2000/svg">
<path d="M48.3803 26.502H50.6864V21.748L52.4924 19.6733L57.4329 26.502H60.2091L54.0223 18.0987L60.1867 11.2178H57.2837L50.873 18.5166H50.6864V11.2178H48.3803V26.502ZM68.3849 21.748C68.3924 23.6959 66.9445 24.6213 65.6908 24.6213C64.3101 24.6213 63.3549 23.6212 63.3549 22.0615V15.0388H61.1234V22.3302C61.1234 25.1735 62.6832 26.6512 64.8848 26.6512C66.6087 26.6512 67.7804 25.7407 68.3103 24.5168H68.4297V26.502H70.6238V15.0388H68.3849V21.748ZM73.4859 26.502H75.6651V24.7183H75.8517C76.2547 25.4497 77.0756 26.7258 79.1652 26.7258C81.9414 26.7258 83.9564 24.5019 83.9564 20.7928C83.9564 17.0762 81.9116 14.8896 79.1428 14.8896C77.0159 14.8896 76.2472 16.1881 75.8517 16.8971H75.7173V11.2178H73.4859V26.502ZM75.6725 20.7704C75.6725 18.3748 76.7174 16.7852 78.6652 16.7852C80.6877 16.7852 81.7026 18.4942 81.7026 20.7704C81.7026 23.069 80.6578 24.8228 78.6652 24.8228C76.7472 24.8228 75.6725 23.1809 75.6725 20.7704ZM91.0874 26.7333C93.5875 26.7333 95.3562 25.5019 95.8637 23.6362L93.7517 23.2556C93.3487 24.3377 92.3785 24.89 91.1098 24.89C89.1992 24.89 87.9156 23.6511 87.8559 21.4421H96.0055V20.651C96.0055 16.509 93.5278 14.8896 90.9307 14.8896C87.7365 14.8896 85.6319 17.3225 85.6319 20.845C85.6319 24.4049 87.7067 26.7333 91.0874 26.7333ZM87.8634 19.7704C87.9529 18.1434 89.1321 16.7329 90.9456 16.7329C92.677 16.7329 93.8114 18.0166 93.8188 19.7704H87.8634ZM98.1661 26.502H100.397V19.5017C100.397 18.0016 101.554 16.9195 103.136 16.9195C103.599 16.9195 104.122 17.0016 104.301 17.0538V14.9194C104.077 14.8896 103.636 14.8672 103.353 14.8672C102.009 14.8672 100.86 15.6284 100.442 16.8598H100.323V15.0388H98.1661V26.502ZM108.148 19.6957C108.148 17.8673 109.267 16.8225 110.82 16.8225C112.335 16.8225 113.253 17.8151 113.253 19.4793V26.502H115.484V19.2106C115.484 16.3747 113.924 14.8896 111.581 14.8896C109.857 14.8896 108.73 15.6881 108.2 16.9046H108.058V15.0388H105.916V26.502H108.148V19.6957ZM123.102 26.7333C125.602 26.7333 127.371 25.5019 127.878 23.6362L125.766 23.2556C125.363 24.3377 124.393 24.89 123.124 24.89C121.214 24.89 119.93 23.6511 119.87 21.4421H128.02V20.651C128.02 16.509 125.542 14.8896 122.945 14.8896C119.751 14.8896 117.646 17.3225 117.646 20.845C117.646 24.4049 119.721 26.7333 123.102 26.7333ZM119.878 19.7704C119.967 18.1434 121.147 16.7329 122.96 16.7329C124.691 16.7329 125.826 18.0166 125.833 19.7704H119.878ZM135.531 15.0388H133.181V12.2925H130.949V15.0388H129.27V16.83H130.949V23.5989C130.942 25.681 132.531 26.6885 134.293 26.6512C135.002 26.6437 135.479 26.5094 135.74 26.4124L135.337 24.569C135.188 24.5989 134.912 24.6661 134.554 24.6661C133.83 24.6661 133.181 24.4272 133.181 23.1362V16.83H135.531V15.0388ZM142.502 26.7333C145.002 26.7333 146.771 25.5019 147.278 23.6362L145.166 23.2556C144.763 24.3377 143.793 24.89 142.524 24.89C140.614 24.89 139.33 23.6511 139.271 21.4421H147.42V20.651C147.42 16.509 144.942 14.8896 142.345 14.8896C139.151 14.8896 137.047 17.3225 137.047 20.845C137.047 24.4049 139.121 26.7333 142.502 26.7333ZM139.278 19.7704C139.368 18.1434 140.547 16.7329 142.36 16.7329C144.092 16.7329 145.226 18.0166 145.233 19.7704H139.278ZM158.171 17.8375C157.708 16.0538 156.312 14.8896 153.835 14.8896C151.245 14.8896 149.409 16.2553 149.409 18.2852C149.409 19.9122 150.394 20.9943 152.543 21.4719L154.484 21.8973C155.588 22.1436 156.103 22.6361 156.103 23.3526C156.103 24.2407 155.156 24.9347 153.693 24.9347C152.357 24.9347 151.499 24.3601 151.23 23.2332L149.073 23.5615C149.446 25.5915 151.133 26.7333 153.708 26.7333C156.476 26.7333 158.394 25.2631 158.394 23.1884C158.394 21.5689 157.365 20.5689 155.26 20.0838L153.439 19.6659C152.178 19.3674 151.633 18.942 151.64 18.1658C151.633 17.2852 152.588 16.6583 153.857 16.6583C155.245 16.6583 155.887 17.427 156.148 18.1957L158.171 17.8375Z" fill="black"/>
<path d="M35.1583 8.28316C34.938 7.57821 34.4092 7.00544 33.7484 6.65297L20.3102 0.220297C19.9578 0.0440594 19.5612 0 19.2088 0C18.8563 0 18.4598 0 18.1073 0.0881188L4.66916 6.56485C4.00827 6.87326 3.52362 7.44603 3.34738 8.19504L0.0429296 22.6906C-0.0892485 23.4396 0.086989 24.1886 0.527583 24.8054L9.82411 36.3049C10.3528 36.8336 11.1018 37.1861 11.8508 37.2302H26.6548C27.4479 37.3183 28.1969 36.9658 28.6815 36.3049L37.9781 24.8054C38.4186 24.1886 38.5949 23.4396 38.5068 22.6906L35.1583 8.28316Z" fill="#326DE6"/>
<path d="M33.0887 22.117C33.0446 22.117 33.0006 22.117 33.0006 22.0729C33.0006 22.0289 32.9125 22.0289 32.8243 22.0289C32.6481 21.9848 32.4719 21.9848 32.2956 21.9848C32.2075 21.9848 32.1194 21.9848 32.0313 21.9407H31.9872C31.5026 21.8967 30.9738 21.8086 30.4892 21.6764C30.357 21.6323 30.2248 21.5001 30.1808 21.368C30.2248 21.368 30.1808 21.368 30.1808 21.368L29.8283 21.2798C30.0045 20.0021 29.9164 18.6803 29.6521 17.4026C29.3436 16.1249 28.8149 14.8912 28.11 13.7898L28.3743 13.5254V13.4813C28.3743 13.3492 28.4184 13.1729 28.5065 13.0848C28.903 12.7323 29.2996 12.468 29.7402 12.2036C29.8283 12.1596 29.9164 12.1155 30.0045 12.0714C30.1808 11.9833 30.3129 11.8952 30.4892 11.8071C30.5332 11.763 30.5773 11.763 30.6214 11.719C30.6654 11.6749 30.6214 11.6749 30.6214 11.6308C31.0179 11.3224 31.106 10.7937 30.7976 10.3972C30.6654 10.2209 30.4011 10.0888 30.1808 10.0888C29.9605 10.0888 29.7402 10.1769 29.5639 10.3091L29.5199 10.3531C29.4758 10.3972 29.4318 10.4412 29.3877 10.4412C29.2555 10.5734 29.1233 10.7056 29.0352 10.8378C28.9912 10.9259 28.903 10.97 28.859 11.014C28.5506 11.3665 28.154 11.719 27.7575 11.9833C27.6694 12.0274 27.5813 12.0714 27.4931 12.0714C27.4491 12.0714 27.361 12.0714 27.3169 12.0274H27.2728L26.9204 12.2477C26.5679 11.8952 26.1714 11.5427 25.8189 11.1902C24.1887 9.91253 22.162 9.11946 20.0912 8.89916L20.0471 8.54669V8.59075C19.9149 8.50263 19.8709 8.37045 19.8268 8.23827C19.8268 7.75362 19.8268 7.26896 19.9149 6.74025V6.69619C19.9149 6.60807 19.959 6.51995 19.959 6.43184C20.0031 6.2556 20.0031 6.07936 20.0471 5.90312V5.63877C20.0912 5.19817 19.7387 4.75758 19.2981 4.71352C19.0337 4.66946 18.7694 4.80164 18.5491 5.02194C18.3729 5.19817 18.2847 5.41847 18.2847 5.63877V5.85906C18.2847 6.0353 18.3288 6.21154 18.3729 6.38778C18.4169 6.4759 18.4169 6.56401 18.4169 6.65213V6.69619C18.505 7.18085 18.505 7.6655 18.505 8.19421C18.461 8.32639 18.4169 8.45857 18.2847 8.54669V8.6348L18.2407 8.98728C17.756 9.03134 17.2714 9.11946 16.7427 9.20758C14.6719 9.64817 12.7773 10.7497 11.3234 12.2917L11.059 12.1155H11.0149C10.9709 12.1155 10.9268 12.1596 10.8387 12.1596C10.7506 12.1596 10.6625 12.1155 10.5743 12.0714C10.1778 11.763 9.78128 11.4105 9.47286 11.0581C9.4288 10.97 9.34069 10.9259 9.29663 10.8818C9.16445 10.7497 9.07633 10.6175 8.94415 10.4853C8.90009 10.4412 8.85603 10.4412 8.81197 10.3972C8.76791 10.3531 8.76791 10.3531 8.76791 10.3531C8.59168 10.2209 8.37138 10.1328 8.15108 10.1328C7.88673 10.1328 7.66643 10.2209 7.53425 10.4412C7.26989 10.8378 7.35801 11.3665 7.71049 11.6749C7.75455 11.6749 7.75455 11.719 7.75455 11.719C7.75455 11.719 7.84267 11.8071 7.88673 11.8071C8.0189 11.8952 8.19514 11.9833 8.37138 12.0714C8.4595 12.1155 8.54762 12.1596 8.63574 12.2036C9.07633 12.468 9.51692 12.7323 9.8694 13.0848C9.95752 13.1729 10.0456 13.3492 10.0016 13.4813V13.4373L10.2659 13.7016C10.2219 13.7898 10.1778 13.8338 10.1338 13.9219C8.76791 16.0808 8.19514 18.6363 8.59168 21.1477L8.2392 21.2358C8.2392 21.2798 8.19514 21.2798 8.19514 21.2798C8.15108 21.412 8.0189 21.5001 7.88673 21.5883C7.40207 21.7204 6.91742 21.8086 6.38871 21.8526C6.30059 21.8526 6.21247 21.8526 6.12435 21.8967C5.94811 21.8967 5.77188 21.9407 5.59564 21.9407C5.55158 21.9407 5.50752 21.9848 5.4194 21.9848C5.37534 21.9848 5.37534 21.9848 5.33128 22.0289C4.84663 22.117 4.53821 22.5576 4.62633 23.0422C4.71445 23.4388 5.11098 23.7031 5.50752 23.6591C5.59564 23.6591 5.6397 23.6591 5.72782 23.615C5.77188 23.615 5.77188 23.615 5.77188 23.5709C5.77188 23.5269 5.90405 23.5709 5.94811 23.5709C6.12435 23.5269 6.30059 23.4388 6.43277 23.3947C6.52088 23.3506 6.609 23.3066 6.69712 23.3066H6.74118C7.22583 23.1303 7.66643 22.9982 8.19514 22.91H8.2392C8.37138 22.91 8.50356 22.9541 8.59168 23.0422C8.63574 23.0422 8.63574 23.0863 8.63574 23.0863L9.03227 23.0422C9.69316 25.069 10.9268 26.8754 12.6451 28.1972C13.0417 28.5056 13.3941 28.7699 13.8347 28.9902L13.6144 29.2987C13.6144 29.3427 13.6585 29.3427 13.6585 29.3427C13.7466 29.4749 13.7466 29.6511 13.7026 29.7833C13.5263 30.2239 13.262 30.6645 12.9976 31.061V31.1051C12.9536 31.1932 12.9095 31.2373 12.8214 31.3254C12.7333 31.4135 12.6451 31.5897 12.513 31.766C12.4689 31.81 12.4689 31.8541 12.4248 31.8982C12.4248 31.8982 12.4248 31.9422 12.3808 31.9422C12.1605 32.3828 12.3367 32.9115 12.7333 33.1318C12.8214 33.1759 12.9536 33.2199 13.0417 33.2199C13.3941 33.2199 13.7026 32.9996 13.8788 32.6912C13.8788 32.6912 13.8788 32.6472 13.9229 32.6472C13.9229 32.6031 13.9669 32.559 14.011 32.515C14.055 32.3388 14.1432 32.2066 14.1872 32.0303L14.2753 31.766C14.4075 31.2813 14.6278 30.8407 14.8481 30.4001C14.9362 30.268 15.0684 30.1798 15.2006 30.1358C15.2446 30.1358 15.2446 30.1358 15.2446 30.0917L15.4209 29.7392C16.6545 30.2239 17.9323 30.4442 19.254 30.4442C20.0471 30.4442 20.8402 30.3561 21.6333 30.1358C22.1179 30.0477 22.6026 29.8714 23.0432 29.7392L23.2194 30.0477C23.2634 30.0477 23.2634 30.0477 23.2634 30.0917C23.3956 30.1358 23.5278 30.2239 23.6159 30.3561C23.8362 30.7967 24.0565 31.2373 24.1887 31.7219V31.766L24.2768 32.0303C24.3209 32.2066 24.3649 32.3828 24.4531 32.515C24.4971 32.559 24.4971 32.6031 24.5412 32.6472C24.5412 32.6472 24.5412 32.6912 24.5852 32.6912C24.7615 32.9996 25.0699 33.2199 25.4224 33.2199C25.5545 33.2199 25.6427 33.1759 25.7748 33.1318C25.9511 33.0437 26.1273 32.8675 26.1714 32.6472C26.2154 32.4269 26.2154 32.2066 26.1273 31.9863C26.1273 31.9422 26.0832 31.9422 26.0832 31.9422C26.0832 31.8982 26.0392 31.8541 25.9951 31.81C25.907 31.6338 25.8189 31.5016 25.6867 31.3694C25.6427 31.2813 25.5986 31.2373 25.5105 31.1491V31.061C25.2021 30.6645 24.9818 30.2239 24.8055 29.7833C24.7615 29.6511 24.7615 29.4749 24.8496 29.3427C24.8496 29.2987 24.8936 29.2987 24.8936 29.2987L24.7615 28.9462C27.0085 27.5803 28.7268 25.4655 29.5199 22.9541L29.8724 22.9982C29.9164 22.9982 29.9164 22.9541 29.9164 22.9541C30.0045 22.866 30.1367 22.8219 30.2689 22.8219H30.3129C30.7976 22.91 31.2823 23.0422 31.7228 23.2185H31.7669C31.855 23.2625 31.9431 23.3066 32.0313 23.3066C32.2075 23.3947 32.3397 23.4828 32.5159 23.5269C32.56 23.5269 32.604 23.5709 32.6922 23.5709C32.7362 23.5709 32.7362 23.5709 32.7803 23.615C32.8684 23.6591 32.9125 23.6591 33.0006 23.6591C33.3971 23.6591 33.7496 23.3947 33.8818 23.0422C33.8377 22.5576 33.4852 22.2051 33.0887 22.117V22.117ZM20.3555 20.7511L19.1659 21.3239L17.9763 20.7511L17.6679 19.4734L18.505 18.416H19.8268L20.6639 19.4734L20.3555 20.7511V20.7511ZM27.5372 17.8873C27.7575 18.8125 27.8016 19.7378 27.7134 20.663L23.5278 19.4734C23.1313 19.3853 22.911 18.9888 22.9991 18.5922C23.0432 18.46 23.0872 18.3719 23.1753 18.2838L26.4798 15.2878C26.9644 16.0808 27.3169 16.962 27.5372 17.8873V17.8873ZM25.158 13.6576L21.5451 16.213C21.2367 16.3893 20.7961 16.3452 20.5758 16.0368C20.4877 15.9487 20.4436 15.8605 20.4436 15.7284L20.1793 11.2784C22.1179 11.4987 23.8362 12.3358 25.158 13.6576V13.6576ZM17.1833 11.4105L18.0644 11.2343L17.8441 15.6402C17.8441 16.0368 17.4917 16.3452 17.0951 16.3452C16.963 16.3452 16.8748 16.3011 16.7427 16.2571L13.0857 13.6576C14.2313 12.5561 15.6412 11.763 17.1833 11.4105ZM11.808 15.2878L15.0684 18.1957C15.3768 18.46 15.4209 18.9006 15.1565 19.2091C15.0684 19.3412 14.9803 19.3853 14.804 19.4294L10.5303 20.663C10.3981 18.8125 10.8387 16.918 11.808 15.2878V15.2878ZM11.059 22.7338L15.4209 21.9848C15.7734 21.9848 16.1258 22.2051 16.1699 22.5576C16.2139 22.6897 16.2139 22.866 16.1258 22.9982L14.4516 27.0516C12.9095 26.0383 11.6758 24.4962 11.059 22.7338V22.7338ZM21.0605 28.1972C20.4436 28.3293 19.8268 28.4175 19.1659 28.4175C18.2407 28.4175 17.2714 28.2412 16.3902 27.9769L18.5491 24.0556C18.7694 23.7912 19.1219 23.7031 19.4303 23.8793C19.5625 23.9675 19.6506 24.0556 19.7828 24.1878L21.8976 28.0209C21.6333 28.065 21.3689 28.109 21.0605 28.1972V28.1972ZM26.4357 24.364C25.7748 25.4214 24.8496 26.3467 23.7922 27.0076L22.0738 22.866C21.9857 22.5135 22.162 22.161 22.4704 22.0289C22.6026 21.9848 22.7347 21.9407 22.8669 21.9407L27.2728 22.6897C27.0526 23.3066 26.7882 23.8793 26.4357 24.364Z" fill="white"/>
</svg>
