<svg width="69" height="69" viewBox="0 0 69 69" fill="none" xmlns="http://www.w3.org/2000/svg">
<rect width="69" height="69" rx="16" fill="#9584EB"/>
<path fill-rule="evenodd" clip-rule="evenodd" d="M34.5028 33.1044C37.4675 33.1044 39.8709 31.9027 39.8709 30.4204C39.8709 28.938 37.4675 27.7363 34.5028 27.7363C31.5381 27.7363 29.1348 28.938 29.1348 30.4204C29.1348 31.9027 31.5381 33.1044 34.5028 33.1044Z" stroke="white" stroke-width="2.25" stroke-linecap="round" stroke-linejoin="round"/>
<path fill-rule="evenodd" clip-rule="evenodd" d="M34.5028 22.368C37.4675 22.368 39.8709 21.1664 39.8709 19.684C39.8709 18.2017 37.4675 17 34.5028 17C31.5381 17 29.1348 18.2017 29.1348 19.684C29.1348 21.1664 31.5381 22.368 34.5028 22.368Z" stroke="white" stroke-width="2.25" stroke-linecap="round" stroke-linejoin="round"/>
<path fill-rule="evenodd" clip-rule="evenodd" d="M47.0302 27.7362C49.9948 27.7362 52.3982 26.5345 52.3982 25.0522C52.3982 23.5698 49.9948 22.3682 47.0302 22.3682C44.0655 22.3682 41.6621 23.5698 41.6621 25.0522C41.6621 26.5345 44.0655 27.7362 47.0302 27.7362Z" stroke="white" stroke-width="2.25" stroke-linecap="round" stroke-linejoin="round"/>
<path fill-rule="evenodd" clip-rule="evenodd" d="M22.872 27.7362C25.8366 27.7362 28.24 26.5345 28.24 25.0522C28.24 23.5698 25.8366 22.3682 22.872 22.3682C19.9073 22.3682 17.5039 23.5698 17.5039 25.0522C17.5039 26.5345 19.9073 27.7362 22.872 27.7362Z" stroke="white" stroke-width="2.25" stroke-linecap="round" stroke-linejoin="round"/>
<path d="M30.4537 21.4463L26.5977 23.1229" stroke="white" stroke-width="2.25" stroke-linecap="round" stroke-linejoin="round"/>
<path d="M42.9043 23.3365L38.5508 21.4434" stroke="white" stroke-width="2.25" stroke-linecap="round" stroke-linejoin="round"/>
<path d="M18.5316 26.6279L14.9994 28.1632C14.347 28.4479 13.9254 29.0922 13.9258 29.804V41.7927C13.926 42.494 14.3359 43.1306 14.9743 43.421L32.8929 51.5697C33.346 51.7763 33.8648 51.7847 34.3244 51.5929L53.9768 43.4031C54.6433 43.1251 55.0773 42.4737 55.0772 41.7515V29.804C55.0776 29.0922 54.656 28.4479 54.0036 28.1632L50.9653 26.8409" stroke="white" stroke-width="2.25" stroke-linecap="round" stroke-linejoin="round"/>
<path d="M33.6074 37.5771V51.7273" stroke="white" stroke-width="2.25" stroke-linecap="round" stroke-linejoin="round"/>
<path d="M54.7486 28.7686L33.6074 37.5775" stroke="white" stroke-width="2.25" stroke-linecap="round" stroke-linejoin="round"/>
<path d="M33.609 37.5774L14.25 28.7773" stroke="white" stroke-width="2.25" stroke-linecap="round" stroke-linejoin="round"/>
</svg>
