<svg width="69" height="69" viewBox="0 0 69 69" fill="none" xmlns="http://www.w3.org/2000/svg">
<rect width="69" height="69" rx="16" fill="#FBC55A"/>
<path d="M46.125 36.9753V30.4403C46.1222 27.5285 45.148 24.7118 43.3749 22.4889C41.6019 20.266 39.1443 18.7803 36.4375 18.295V16.055C36.4375 15.51 36.2334 14.9873 35.87 14.6019C35.5067 14.2165 35.0139 14 34.5 14C33.9861 14 33.4933 14.2165 33.13 14.6019C32.7666 14.9873 32.5625 15.51 32.5625 16.055V18.295C29.8557 18.7803 27.3981 20.266 25.6251 22.4889C23.852 24.7118 22.8778 27.5285 22.875 30.4403V36.9753C21.7444 37.3993 20.7651 38.1838 20.0713 39.2213C19.3776 40.2588 19.0034 41.4985 19 42.7705V46.8806C19 47.4256 19.2041 47.9483 19.5675 48.3337C19.9308 48.7191 20.4236 48.9356 20.9375 48.9356H27.0213C27.4674 50.677 28.4414 52.2142 29.793 53.3102C31.1446 54.4062 32.7987 55 34.5 55C36.2013 55 37.8554 54.4062 39.207 53.3102C40.5586 52.2142 41.5326 50.677 41.9788 48.9356H48.0625C48.5764 48.9356 49.0692 48.7191 49.4325 48.3337C49.7959 47.9483 50 47.4256 50 46.8806V42.7705C49.9966 41.4985 49.6224 40.2588 48.9287 39.2213C48.2349 38.1838 47.2556 37.3993 46.125 36.9753ZM26.75 30.4403C26.75 28.2602 27.5665 26.1693 29.0199 24.6278C30.4733 23.0862 32.4446 22.2201 34.5 22.2201C36.5554 22.2201 38.5267 23.0862 39.9801 24.6278C41.4335 26.1693 42.25 28.2602 42.25 30.4403V36.6054H26.75V30.4403ZM34.5 50.9906C33.8238 50.9863 33.1604 50.7943 32.5757 50.4338C31.9911 50.0733 31.5056 49.5568 31.1675 48.9356H37.8325C37.4944 49.5568 37.0089 50.0733 36.4243 50.4338C35.8396 50.7943 35.1762 50.9863 34.5 50.9906ZM46.125 44.8255H22.875V42.7705C22.875 42.2255 23.0791 41.7028 23.4425 41.3174C23.8058 40.932 24.2986 40.7155 24.8125 40.7155H44.1875C44.7014 40.7155 45.1942 40.932 45.5575 41.3174C45.9209 41.7028 46.125 42.2255 46.125 42.7705V44.8255Z" fill="white"/>
</svg>
