<svg width="484" height="145" viewBox="0 0 484 145" fill="none" xmlns="http://www.w3.org/2000/svg">
<rect x="339.422" y="0.208984" width="144.572" height="144.572" rx="20" fill="#FB755A"/>
<path d="M403.216 81.3901H423.026C425.063 81.3901 426.326 79.187 425.307 77.4281L415.402 60.2739C414.383 58.5149 411.845 58.5149 410.835 60.2739L400.93 77.4281C399.911 79.187 401.187 81.3901 403.211 81.3901H403.216ZM413.121 37.3291C393.528 37.3291 377.637 53.2207 377.637 72.813C377.637 92.4053 393.528 108.297 413.121 108.297C432.713 108.297 448.605 92.4053 448.605 72.813C448.605 53.2207 432.713 37.3291 413.121 37.3291ZM413.212 53.5603C423.849 53.6125 432.426 62.2723 432.373 72.9088C432.321 83.5452 423.661 92.1223 413.025 92.0701C402.388 92.0178 393.811 83.358 393.864 72.7216C393.916 62.0851 402.576 53.508 413.212 53.5603V53.5603ZM387.903 83.7237C387.685 83.7978 387.481 83.8282 387.267 83.8282C386.405 83.8282 385.591 83.2709 385.313 82.4089C384.346 79.4352 383.863 76.2395 383.863 72.9044C383.863 71.054 384.015 69.1209 384.324 67.1748C386.649 55.3671 395.718 46.2545 407.443 43.8773C408.562 43.6509 409.646 44.3693 409.873 45.4839C410.099 46.5985 409.381 47.6869 408.266 47.9133C398.178 49.9509 390.372 57.7966 388.386 67.8888C388.13 69.5433 387.995 71.263 387.995 72.8957C387.995 75.7867 388.417 78.5644 389.248 81.1245C389.597 82.2042 389.013 83.3667 387.921 83.715L387.899 83.7237H387.903ZM435.565 92.2181C430.153 98.6575 422.368 102.193 413.647 102.193C404.927 102.193 396.654 98.6052 391.029 92.3487C390.267 91.5041 390.341 90.1979 391.182 89.4491C392.026 88.6871 393.332 88.7612 394.081 89.6058C398.853 94.9131 406.154 98.0915 413.634 98.0915C421.114 98.0915 427.789 95.0699 432.404 89.5753C433.135 88.7133 434.428 88.587 435.303 89.3272C436.179 90.0586 436.279 91.3517 435.552 92.2268L435.56 92.2181H435.565ZM441.129 82.2739C440.833 83.1273 440.04 83.6541 439.183 83.6541C438.956 83.6541 438.73 83.6105 438.504 83.5409C437.433 83.1708 436.867 81.9996 437.237 80.9199C437.598 79.8706 437.925 78.7691 438.194 77.6371C438.504 76.0827 438.669 74.4196 438.669 72.7738C438.669 60.7006 430.061 50.2383 418.193 47.8959C417.083 47.6782 416.312 46.5985 416.517 45.4882C416.721 44.378 417.749 43.6378 418.85 43.8338C418.872 43.8338 418.963 43.8555 418.985 43.8642C432.765 46.581 442.775 58.7457 442.775 72.7738C442.775 74.6852 442.587 76.6226 442.209 78.5122C441.891 79.8575 441.529 81.094 441.12 82.2783H441.129V82.2739Z" fill="white"/>
<rect y="0.208984" width="144.572" height="144.572" rx="20" fill="#FBC55A"/>
<path d="M93.3513 72.7333V61.4217C93.3462 56.3817 91.562 51.5061 88.3147 47.6584C85.0675 43.8107 80.5666 41.2392 75.6093 40.3992V36.5219C75.6093 35.5785 75.2355 34.6738 74.57 34.0067C73.9046 33.3396 73.002 32.9648 72.0609 32.9648C71.1198 32.9648 70.2173 33.3396 69.5518 34.0067C68.8864 34.6738 68.5125 35.5785 68.5125 36.5219V40.3992C63.5552 41.2392 59.0544 43.8107 55.8071 47.6584C52.5599 51.5061 50.7757 56.3817 50.7706 61.4217V72.7333C48.6999 73.4671 46.9064 74.8251 45.6359 76.6209C44.3653 78.4168 43.68 80.5626 43.6738 82.7643V89.8785C43.6738 90.8219 44.0477 91.7267 44.7131 92.3938C45.3786 93.0608 46.2811 93.4356 47.2222 93.4356H58.3642C59.1813 96.4498 60.9651 99.1107 63.4405 101.008C65.9158 102.905 68.9451 103.933 72.0609 103.933C75.1768 103.933 78.2061 102.905 80.6814 101.008C83.1567 99.1107 84.9406 96.4498 85.7577 93.4356H96.8997C97.8408 93.4356 98.7433 93.0608 99.4088 92.3938C100.074 91.7267 100.448 90.8219 100.448 89.8785V82.7643C100.442 80.5626 99.7565 78.4168 98.486 76.6209C97.2155 74.8251 95.4219 73.4671 93.3513 72.7333V72.7333ZM57.8674 61.4217C57.8674 57.6481 59.3628 54.029 62.0246 51.3607C64.6864 48.6923 68.2966 47.1933 72.0609 47.1933C75.8253 47.1933 79.4355 48.6923 82.0973 51.3607C84.7591 54.029 86.2545 57.6481 86.2545 61.4217V72.093H57.8674V61.4217ZM72.0609 96.9927C70.8225 96.9852 69.6075 96.653 68.5368 96.0289C67.4661 95.4049 66.5769 94.5108 65.9577 93.4356H78.1642C77.5449 94.5108 76.6558 95.4049 75.5851 96.0289C74.5144 96.653 73.2994 96.9852 72.0609 96.9927ZM93.3513 86.3214H50.7706V82.7643C50.7706 81.8209 51.1445 80.9161 51.8099 80.249C52.4754 79.582 53.3779 79.2072 54.319 79.2072H89.8029C90.744 79.2072 91.6465 79.582 92.312 80.249C92.9774 80.9161 93.3513 81.8209 93.3513 82.7643V86.3214Z" fill="white"/>
<rect x="169.715" y="0.208984" width="144.572" height="144.572" rx="20" fill="#FB9D5A"/>
<path d="M215.72 43.1355C216.752 44.1701 218.432 44.1701 219.469 43.1355C220.501 42.1008 220.501 40.4202 219.469 39.3855L214.87 34.7877C213.838 33.7531 212.159 33.7531 211.122 34.7877C210.09 35.8224 210.09 37.503 211.122 38.5376L215.72 43.1355ZM242.874 37.4071C244.336 37.4071 245.525 36.2211 245.525 34.7574V30.1546C245.525 28.6909 244.336 27.5049 242.874 27.5049C241.412 27.5049 240.223 28.6909 240.223 30.1546V34.7524C240.223 36.216 241.412 37.4021 242.874 37.4021V37.4071ZM270.028 43.1355L274.626 38.5376C275.658 37.503 275.658 35.8224 274.626 34.7877C273.594 33.7531 271.915 33.7531 270.878 34.7877L266.285 39.3855C265.253 40.4202 265.253 42.1008 266.285 43.1355C267.317 44.1701 268.996 44.1701 270.028 43.1355V43.1355ZM265.531 84.7884L261.737 54.0219C261.464 51.786 260.285 49.7168 258.424 48.2128C256.567 46.7037 254.155 45.8659 251.656 45.8457H234.148C231.624 45.8306 229.181 46.6583 227.294 48.1673C225.407 49.6764 224.208 51.7608 223.93 54.0168L220.131 84.8238C217.718 85.2427 215.462 86.3631 213.692 88.0841C211.4 90.2998 210.095 93.333 210.095 96.5126C210.095 98.5112 210.915 100.409 212.346 101.792C213.773 103.17 215.685 103.932 217.663 103.932H268.217C270.19 103.932 272.107 103.175 273.528 101.792C274.955 100.409 275.78 98.5112 275.78 96.5126C275.78 93.333 274.474 90.3048 272.183 88.0841C270.357 86.3126 268.02 85.177 265.526 84.7884H265.531ZM231.123 68.1282C232.428 67.139 234.29 67.4015 235.276 68.7087L239.571 74.4067L248.712 58.1957C249.516 56.7674 251.327 56.2627 252.753 57.0703C254.18 57.8778 254.686 59.6846 253.881 61.1129L244.24 78.2172C244.24 78.2172 244.23 78.2324 244.23 78.2425C243.795 78.9995 243.228 79.6253 242.55 80.0998C241.817 80.6095 240.982 80.9224 240.117 80.9931C239.945 81.0133 239.773 81.0234 239.601 81.0234C238.883 81.0234 238.165 80.8618 237.502 80.5439C236.738 80.1755 236.055 79.6051 235.524 78.8935L230.547 72.292C229.56 70.9849 229.818 69.1225 231.128 68.1333L231.123 68.1282ZM269.401 97.5271C269.102 97.8198 268.677 97.9964 268.212 97.9964H217.658C217.197 97.9964 216.767 97.8198 216.469 97.5271C216.176 97.2394 216.024 96.876 216.024 96.5126C216.024 94.9682 216.656 93.4693 217.814 92.3488C218.978 91.2234 220.571 90.5773 222.251 90.5773H263.619C265.303 90.5773 266.897 91.2284 268.055 92.3488C269.214 93.4693 269.846 94.9682 269.846 96.5126C269.846 96.876 269.699 97.2444 269.401 97.5271V97.5271ZM215.644 59.6543C215.644 58.1907 214.456 57.0046 212.994 57.0046H208.401C206.939 57.0046 205.75 58.1907 205.75 59.6543C205.75 61.118 206.939 62.304 208.401 62.304H212.994C214.456 62.304 215.644 61.118 215.644 59.6543V59.6543ZM277.343 57.0046H272.744C271.283 57.0046 270.094 58.1907 270.094 59.6543C270.094 61.118 271.283 62.304 272.744 62.304H277.343C278.804 62.304 279.993 61.118 279.993 59.6543C279.993 58.1907 278.804 57.0046 277.343 57.0046Z" fill="white"/>
</svg>
