<svg width="69" height="69" viewBox="0 0 69 69" fill="none" xmlns="http://www.w3.org/2000/svg">
<rect width="69" height="69" rx="16" fill="#FB755A"/>
<path d="M29.4172 38.8344H40.5828C41.7313 38.8344 42.4429 37.5926 41.8687 36.6012L36.2859 26.9325C35.7117 25.9411 34.281 25.9411 33.7117 26.9325L28.1288 36.6012C27.5546 37.5926 28.2736 38.8344 29.4147 38.8344H29.4172ZM35 14C23.9571 14 15 22.9571 15 34C15 45.0429 23.9571 54 35 54C46.0429 54 55 45.0429 55 34C55 22.9571 46.0429 14 35 14ZM35.0515 23.1485C41.0466 23.1779 45.881 28.0589 45.8515 34.054C45.8221 40.0491 40.9411 44.8834 34.946 44.854C28.9509 44.8245 24.1166 39.9436 24.146 33.9485C24.1755 27.9534 29.0564 23.119 35.0515 23.1485ZM20.7865 40.1497C20.6638 40.1914 20.5485 40.2086 20.4282 40.2086C19.9423 40.2086 19.4834 39.8945 19.3264 39.4086C18.7816 37.7325 18.5092 35.9313 18.5092 34.0515C18.5092 33.0086 18.5951 31.919 18.7693 30.8221C20.0798 24.1669 25.1914 19.0307 31.8 17.6908C32.4307 17.5632 33.0417 17.9681 33.1693 18.5963C33.2969 19.2245 32.892 19.838 32.2638 19.9656C26.5779 21.1141 22.1779 25.5362 21.0589 31.2245C20.9141 32.1571 20.838 33.1264 20.838 34.0466C20.838 35.6761 21.0761 37.2417 21.5448 38.6847C21.7411 39.2933 21.4123 39.9485 20.7963 40.1448L20.784 40.1497H20.7865ZM47.6503 44.9374C44.6 48.5669 40.2123 50.5595 35.2969 50.5595C30.3816 50.5595 25.719 48.5374 22.5485 45.011C22.119 44.535 22.1607 43.7988 22.6344 43.3767C23.1104 42.9472 23.8466 42.989 24.2687 43.465C26.9583 46.4564 31.0736 48.2479 35.2896 48.2479C39.5055 48.2479 43.2675 46.5448 45.8687 43.4479C46.281 42.962 47.0098 42.8908 47.5031 43.308C47.9963 43.7202 48.0528 44.4491 47.6429 44.9423L47.6479 44.9374H47.6503ZM50.7865 39.3325C50.6196 39.8135 50.173 40.1104 49.6896 40.1104C49.562 40.1104 49.4344 40.0859 49.3068 40.0466C48.7031 39.838 48.384 39.1779 48.5926 38.5693C48.7963 37.9779 48.9804 37.3571 49.1325 36.719C49.3067 35.8429 49.4 34.9055 49.4 33.9779C49.4 27.173 44.5485 21.2761 37.8589 19.9558C37.2331 19.8331 36.7988 19.2245 36.9141 18.5988C37.0294 17.973 37.6086 17.5558 38.2294 17.6663C38.2417 17.6663 38.2933 17.6785 38.3055 17.6834C46.0724 19.2147 51.7141 26.0712 51.7141 33.9779C51.7141 35.0552 51.6086 36.1472 51.3951 37.2123C51.216 37.9706 51.0123 38.6675 50.7816 39.335H50.7865V39.3325Z" fill="white"/>
</svg>
