<svg width="431" height="72" viewBox="0 0 431 72" fill="none" xmlns="http://www.w3.org/2000/svg">
<path fill-rule="evenodd" clip-rule="evenodd" d="M338.016 61.4425C337.825 67.6463 343.972 74.2651 345.079 68.2124L345.079 68.2141C346.671 59.5404 351.476 47.3855 355.622 42.0197C357.624 39.4133 351.709 24.9192 347.037 34.1305C343.56 40.9318 340.773 49.2484 339.091 55.9933C337.958 54.1927 335.702 52.7693 332.887 53.1155C330.553 53.3996 328.447 53.5799 326.461 53.75C320.87 54.2287 316.232 54.6258 310.131 57.0285C312.735 49.2318 315.998 42.5742 319.896 35.3681C320.718 33.8338 321.737 32.4342 322.755 31.0361C323.649 29.809 324.542 28.5832 325.3 27.2686C327.539 23.5392 318.807 18.432 316.638 22.0845C315.998 23.1927 315.343 24.0672 314.716 24.9059C314.483 25.2169 314.254 25.523 314.031 25.8342C312.31 28.21 301.138 48.5509 298.513 61.3513C297.468 66.561 301.796 72.4278 306.147 70.714C306.72 70.494 307.288 70.2753 307.852 70.0584C317.419 66.3749 325.703 63.1855 336.339 61.9007C336.995 61.8205 337.552 61.6621 338.016 61.4425ZM352.796 19.1335C352.864 24.3398 355.806 26.6716 360.828 26.3928L360.83 26.3944C364.374 26.1977 365.016 20.4384 364.476 17.387C363.838 13.9001 363.085 11.0057 359.233 11C355.681 11.0502 352.701 14.738 352.796 19.1335ZM372.448 65.9066C370.972 69.9535 360.224 66.8794 359.468 62.5897C358.627 58.085 358.628 54.1217 358.965 50.8715C359.152 48.6689 359.499 46.8119 359.766 45.3868L359.766 45.3867C359.884 44.7596 359.985 44.2161 360.051 43.7636C360.421 41.2498 361.12 38.8422 361.815 36.4455L361.815 36.4454C362.533 33.973 363.247 31.5121 363.594 28.9579C364.392 23.3346 373.685 28.1779 372.215 33.6914C370.803 38.9076 368.967 47.1591 368.268 53.2163C369.525 51.2638 370.741 49.3483 371.923 47.4866L371.923 47.4861C374.198 43.903 376.346 40.5196 378.415 37.4575C381.691 32.5045 384.716 28.3716 387.674 25.7111C392.039 21.7253 403.192 25.436 398.522 29.2192C390.739 35.5969 376.306 55.4116 372.45 65.903L372.448 65.9066ZM399.742 48.2358C410.622 53.3049 418.324 51.8458 423.199 47.5221C426.163 44.8518 432.595 33.8845 429.971 27.987C428.357 24.3187 423.408 21.9401 420.526 22.1001C413.653 22.4817 406.345 27.0151 401.023 32.6157C394.651 39.3061 390.644 48.5933 390.681 58.6127C390.757 65.3133 398.294 67.5482 404.13 67.2242C412.482 66.7605 419.531 62.9066 423.407 59.3016C428.34 54.6795 430.176 49.0519 424.474 51.7996C418.919 54.5392 409.682 57.7054 403.537 56.4993C403.254 56.4397 402.981 56.3841 402.718 56.3305C399.636 55.7031 397.966 55.363 398.406 52.2154C398.554 50.8805 399.073 49.5249 399.742 48.2358ZM406.777 40.1072C408.407 38.7647 410.045 37.5675 411.623 36.5961C413.413 35.4652 423.291 30.4956 422.868 33.5406C422.506 36.36 419.422 39.5528 416.818 40.7288C413.853 42.0725 410.261 41.461 406.777 40.1072Z" fill="url(#paint0_radial_23947_329)"/>
<path fill-rule="evenodd" clip-rule="evenodd" d="M338.016 61.4425C337.825 67.6463 343.972 74.2651 345.079 68.2124L345.079 68.2141C346.671 59.5404 351.476 47.3855 355.622 42.0197C357.624 39.4133 351.709 24.9192 347.037 34.1305C343.56 40.9318 340.773 49.2484 339.091 55.9933C337.958 54.1927 335.702 52.7693 332.887 53.1155C330.553 53.3996 328.447 53.5799 326.461 53.75C320.87 54.2287 316.232 54.6258 310.131 57.0285C312.735 49.2318 315.998 42.5742 319.896 35.3681C320.718 33.8338 321.737 32.4342 322.755 31.0361C323.649 29.809 324.542 28.5832 325.3 27.2686C327.539 23.5392 318.807 18.432 316.638 22.0845C315.998 23.1927 315.343 24.0672 314.716 24.9059C314.483 25.2169 314.254 25.523 314.031 25.8342C312.31 28.21 301.138 48.5509 298.513 61.3513C297.468 66.561 301.796 72.4278 306.147 70.714C306.72 70.494 307.288 70.2753 307.852 70.0584C317.419 66.3749 325.703 63.1855 336.339 61.9007C336.995 61.8205 337.552 61.6621 338.016 61.4425ZM352.796 19.1335C352.864 24.3398 355.806 26.6716 360.828 26.3928L360.83 26.3944C364.374 26.1977 365.016 20.4384 364.476 17.387C363.838 13.9001 363.085 11.0057 359.233 11C355.681 11.0502 352.701 14.738 352.796 19.1335ZM372.448 65.9066C370.972 69.9535 360.224 66.8794 359.468 62.5897C358.627 58.085 358.628 54.1217 358.965 50.8715C359.152 48.6689 359.499 46.8119 359.766 45.3868L359.766 45.3867C359.884 44.7596 359.985 44.2161 360.051 43.7636C360.421 41.2498 361.12 38.8422 361.815 36.4455L361.815 36.4454C362.533 33.973 363.247 31.5121 363.594 28.9579C364.392 23.3346 373.685 28.1779 372.215 33.6914C370.803 38.9076 368.967 47.1591 368.268 53.2163C369.525 51.2638 370.741 49.3483 371.923 47.4866L371.923 47.4861C374.198 43.903 376.346 40.5196 378.415 37.4575C381.691 32.5045 384.716 28.3716 387.674 25.7111C392.039 21.7253 403.192 25.436 398.522 29.2192C390.739 35.5969 376.306 55.4116 372.45 65.903L372.448 65.9066ZM399.742 48.2358C410.622 53.3049 418.324 51.8458 423.199 47.5221C426.163 44.8518 432.595 33.8845 429.971 27.987C428.357 24.3187 423.408 21.9401 420.526 22.1001C413.653 22.4817 406.345 27.0151 401.023 32.6157C394.651 39.3061 390.644 48.5933 390.681 58.6127C390.757 65.3133 398.294 67.5482 404.13 67.2242C412.482 66.7605 419.531 62.9066 423.407 59.3016C428.34 54.6795 430.176 49.0519 424.474 51.7996C418.919 54.5392 409.682 57.7054 403.537 56.4993C403.254 56.4397 402.981 56.3841 402.718 56.3305C399.636 55.7031 397.966 55.363 398.406 52.2154C398.554 50.8805 399.073 49.5249 399.742 48.2358ZM406.777 40.1072C408.407 38.7647 410.045 37.5675 411.623 36.5961C413.413 35.4652 423.291 30.4956 422.868 33.5406C422.506 36.36 419.422 39.5528 416.818 40.7288C413.853 42.0725 410.261 41.461 406.777 40.1072Z" fill="#FF6224" fill-opacity="0.6"/>
<path d="M65.6171 31.4205C65.4909 30.2848 65.3647 28.8967 64.8599 27.3825C64.4814 25.8683 63.8504 24.2278 62.9671 22.4612C62.0838 20.6946 60.9482 18.928 59.5601 17.1614C59.0554 16.5305 58.4244 15.7733 57.6673 15.1424C58.6768 11.1044 56.4054 7.69739 56.4054 7.69739C52.6198 7.44501 50.0961 8.83307 49.2128 9.59019C49.0866 9.59019 48.9604 9.464 48.708 9.33781C48.0771 9.08544 47.4462 8.83307 46.6891 8.58069C45.9319 8.32832 45.301 8.20213 44.5439 7.94976C43.7868 7.82357 43.0297 7.69739 42.3987 7.5712C42.2725 7.5712 42.1464 7.5712 42.0202 7.5712C40.3797 2.27136 35.5846 0 35.5846 0C30.2848 3.40704 29.2753 8.07595 29.2753 8.07595C29.2753 8.07595 29.2753 8.20213 29.2753 8.32832C29.0229 8.45451 28.6444 8.45451 28.392 8.58069C28.0134 8.70688 27.6349 8.83307 27.1301 8.95925C26.7516 9.08544 26.373 9.21163 25.8683 9.464C25.1111 9.84256 24.2278 10.2211 23.4707 10.5997C22.7136 10.9782 21.9565 11.483 21.1994 11.9877C21.0732 11.9877 21.0732 11.8615 21.0732 11.8615C13.6282 9.08544 7.06646 12.4925 7.06646 12.4925C6.43553 20.316 9.96875 25.3635 10.7259 26.2468C10.5997 26.7516 10.3473 27.2563 10.2211 27.7611C9.71638 29.5277 9.21163 31.4205 8.95926 33.3133C8.95926 33.5657 8.83306 33.818 8.83306 34.0704C2.01899 37.4774 0 44.4177 0 44.4177C5.6784 50.9794 12.3663 51.358 12.3663 51.358C13.2496 52.8722 14.1329 54.2603 15.2686 55.6483C15.7733 56.1531 16.2781 56.784 16.6567 57.2887C14.6377 63.2195 16.909 68.1408 16.909 68.1408C23.2183 68.3932 27.3825 65.3647 28.2658 64.6076C28.8967 64.8599 29.5277 64.9861 30.1586 65.2385C32.0514 65.7432 34.0704 65.9956 36.0894 66.1218C36.5941 66.1218 37.0989 66.1218 37.6036 66.1218H37.856H37.9822H38.2346H38.4869C41.5154 70.4121 46.6891 71.0431 46.6891 71.0431C50.4747 67.1313 50.6008 63.2195 50.6008 62.3362C50.6008 62.21 50.6008 62.21 50.6008 62.21V62.0838C51.358 61.5791 52.1151 60.9482 52.8722 60.3172C54.3864 58.9292 55.6483 57.4149 56.784 55.7745C56.9102 55.6483 57.0364 55.5221 57.0364 55.2698C61.3267 55.5221 64.229 52.6198 64.229 52.6198C63.4719 48.2033 60.9481 46.0581 60.4434 45.6796C60.4434 45.6796 60.4434 45.6796 60.3172 45.6796C60.3172 45.4272 60.3172 45.1748 60.3172 44.9224C60.3172 44.4177 60.3172 43.913 60.3172 43.5344V42.9035V42.7773V42.6511C60.3172 42.5249 60.3172 42.5249 60.3172 42.5249V42.2725V41.894C60.3172 41.7678 60.3172 41.6416 60.3172 41.5154C60.3172 41.3892 60.3172 41.263 60.3172 41.1368V40.7583V40.3797C60.1911 39.875 60.191 39.3702 60.0648 38.9917C59.5601 37.0989 58.9291 35.3323 57.9197 33.6918C56.9102 32.0514 55.7745 30.6634 54.3865 29.4015C52.9984 28.1396 51.4841 27.2563 49.8437 26.4992C48.2033 25.7421 46.5629 25.3635 44.7963 25.1111C43.913 24.985 43.1558 24.985 42.2725 24.985H42.0202H41.894H41.7678H41.6416H41.3892C41.2631 24.985 41.1368 24.985 41.0107 24.985C40.6321 24.985 40.1273 25.1111 39.7488 25.1111C38.1084 25.3635 36.468 25.9944 35.0799 26.8778C33.6919 27.7611 32.43 28.7706 31.4205 29.9062C30.411 31.0419 29.6539 32.43 29.1491 33.818C28.6444 35.2061 28.392 36.5941 28.2658 37.9822C28.2658 38.3607 28.2658 38.6131 28.2658 38.9917C28.2658 39.1179 28.2658 39.1179 28.2658 39.244V39.4964C28.2658 39.6226 28.2658 39.875 28.2658 40.0012C28.392 40.6321 28.5182 41.3892 28.6444 42.0202C29.0229 43.282 29.6539 44.4177 30.2848 45.4272C31.0419 46.4367 31.9252 47.1938 32.8085 47.8247C33.6918 48.4557 34.7013 48.9604 35.7108 49.2128C36.7203 49.4652 37.6036 49.5914 38.6131 49.5914C38.7393 49.5914 38.8655 49.5914 38.9917 49.5914H39.1179H39.2441C39.3702 49.5914 39.4964 49.5914 39.4964 49.5914C39.4964 49.5914 39.4964 49.5914 39.6226 49.5914H39.7488H39.875C40.0012 49.5914 40.1273 49.5914 40.2535 49.5914C40.3797 49.5914 40.5059 49.5914 40.6321 49.4652C40.8845 49.4652 41.0107 49.339 41.2631 49.339C41.6416 49.2128 42.0202 49.0866 42.3987 48.8342C42.7773 48.708 43.0296 48.4557 43.4082 48.2033C43.5344 48.2033 43.5344 48.0771 43.6606 47.9509C44.0391 47.6986 44.0392 47.1938 43.7868 46.9414C43.5344 46.6891 43.1558 46.5629 42.9035 46.8152C42.7773 46.8152 42.7773 46.9414 42.6511 46.9414C42.3987 47.0676 42.1463 47.1938 41.7678 47.32C41.5154 47.4462 41.1368 47.4462 40.8845 47.5724C40.7583 47.5724 40.5059 47.5724 40.3797 47.5724C40.2535 47.5724 40.2536 47.5724 40.1274 47.5724C40.0012 47.5724 40.0012 47.5724 39.875 47.5724C39.7488 47.5724 39.7488 47.5724 39.6226 47.5724C39.4964 47.5724 39.3702 47.5724 39.3702 47.5724H39.2441H39.1179C38.9917 47.5724 38.9917 47.5724 38.8655 47.5724C38.1084 47.4462 37.4774 47.32 36.7203 46.9414C35.9632 46.6891 35.3323 46.1843 34.7013 45.6796C34.0704 45.1748 33.5657 44.4177 33.1871 43.7868C32.8086 43.1558 32.43 42.2725 32.3038 41.3892C32.1776 41.0107 32.1776 40.5059 32.1776 40.1274C32.1776 40.0012 32.1776 39.875 32.1776 39.7488V39.6226V39.4964C32.1776 39.244 32.1776 38.9917 32.3038 38.7393C32.6823 36.8465 33.5657 35.0799 35.0799 33.5656C35.4585 33.1871 35.837 32.9347 36.2156 32.5562C36.5941 32.3038 37.0989 32.0514 37.4774 31.799C37.9822 31.5467 38.4869 31.4205 38.8655 31.2943C39.3703 31.1681 39.875 31.0419 40.3797 31.0419C40.6321 31.0419 40.8845 31.0419 41.1369 31.0419C41.263 31.0419 41.2631 31.0419 41.2631 31.0419H41.5154H41.6416H41.894C42.3987 31.0419 43.0296 31.1681 43.5344 31.2943C44.6701 31.5467 45.6796 31.9252 46.6891 32.5562C48.708 33.6918 50.3485 35.4585 51.4842 37.4774C51.9889 38.4869 52.3675 39.6226 52.6198 40.7583C52.6198 41.0107 52.746 41.3892 52.746 41.6416V41.894V42.1463C52.746 42.2725 52.746 42.2725 52.746 42.3987C52.746 42.5249 52.746 42.5249 52.746 42.6511V42.9035V43.1558C52.746 43.282 52.746 43.5344 52.746 43.6606C52.746 44.0391 52.746 44.2915 52.6198 44.6701C52.6198 44.9225 52.4936 45.301 52.4936 45.5534C52.4936 45.8058 52.3675 46.1843 52.2413 46.4367C52.1151 47.0676 51.8627 47.6986 51.6103 48.2033C51.1056 49.339 50.4747 50.4747 49.7175 51.6103C48.2033 53.6293 46.1843 55.3959 43.7868 56.4054C42.6511 56.9102 41.3892 57.2887 40.1274 57.5411C39.4964 57.6673 38.8655 57.6673 38.2346 57.7935H38.1084H37.9822H37.7298H37.4774H37.3513C36.9727 57.7935 36.7203 57.7935 36.3418 57.7935C34.9537 57.6673 33.5657 57.4149 32.3038 57.0364C31.0419 56.6578 29.6539 56.1531 28.5182 55.5221C26.1206 54.2603 23.9755 52.4936 22.2089 50.3485C21.3256 49.339 20.5684 48.2033 20.0637 46.9414C19.4327 45.6796 18.928 44.4177 18.5495 43.1558C18.1709 41.894 17.9185 40.5059 17.9185 39.244V38.9917V38.8655V38.6131V37.856V37.7298V37.4774V37.3512C17.9185 37.2251 17.9185 36.9727 17.9185 36.8465C17.9185 36.2156 18.0447 35.4584 18.0447 34.8275C18.1709 34.1966 18.2971 33.4395 18.4233 32.8085C18.5494 32.1776 18.6756 31.4205 18.928 30.7895C19.3066 29.5277 19.8113 28.2658 20.3161 27.0039C21.4517 24.6064 22.8398 22.4612 24.6064 20.8208C24.985 20.4422 25.4897 19.9375 25.9945 19.5589C26.4992 19.1804 27.004 18.8018 27.5087 18.5494C28.0135 18.1709 28.5182 17.9185 29.0229 17.6661C29.2753 17.5399 29.5277 17.4138 29.7801 17.2876C29.9062 17.2876 30.0324 17.1614 30.1586 17.1614C30.2848 17.1614 30.411 17.0352 30.5372 17.0352C31.0419 16.7828 31.6728 16.6566 32.1776 16.4043C32.3038 16.4043 32.43 16.2781 32.5562 16.2781C32.6824 16.2781 32.8085 16.1519 32.9347 16.1519C33.1871 16.0257 33.5657 16.0257 33.818 15.8995C33.9442 15.8995 34.0704 15.7733 34.3228 15.7733C34.449 15.7733 34.5751 15.7733 34.8275 15.6471C34.9537 15.6471 35.0799 15.6471 35.3323 15.521H35.5846H35.837C35.9632 15.521 36.0894 15.521 36.3418 15.3948C36.468 15.3948 36.7203 15.3948 36.8465 15.2686C36.9727 15.2686 37.2251 15.2686 37.3513 15.2686C37.4774 15.2686 37.6036 15.2686 37.7298 15.2686H37.9822H38.1084H38.2346C38.3608 15.2686 38.6131 15.2686 38.7393 15.2686H38.9917H39.1179C39.244 15.2686 39.3703 15.2686 39.4964 15.2686C40.1274 15.2686 40.6321 15.2686 41.2631 15.2686C42.3987 15.2686 43.5344 15.3948 44.6701 15.6471C46.8152 16.0257 48.8342 16.7828 50.727 17.6661C52.6198 18.5494 54.2603 19.6851 55.6483 20.947C55.7745 21.0732 55.7745 21.0732 55.9007 21.1994C56.0269 21.3255 56.0269 21.3255 56.1531 21.4517C56.2792 21.5779 56.5316 21.7041 56.6578 21.9565C56.784 22.2089 57.0364 22.2088 57.1626 22.4612C57.2888 22.7136 57.5411 22.8398 57.6673 22.966C58.2982 23.5969 58.803 24.2278 59.3077 24.985C60.3172 26.2468 61.2005 27.6349 61.8315 28.8967C61.8315 29.0229 61.9576 29.0229 61.9576 29.1491C61.9576 29.2753 62.0838 29.2753 62.0838 29.4015C62.21 29.5277 62.21 29.6539 62.3362 29.9062C62.4624 30.0324 62.4624 30.1586 62.5886 30.411C62.7148 30.5372 62.7148 30.6634 62.841 30.9157C63.0933 31.5467 63.3457 32.0514 63.4719 32.5562C63.7243 33.4395 63.9767 34.1966 64.1028 34.8275C64.229 35.0799 64.4814 35.3323 64.7338 35.2061C64.9861 35.2061 65.2385 34.9537 65.2385 34.7013C65.7433 33.1871 65.7432 32.3038 65.6171 31.4205Z" fill="url(#paint1_radial_23947_329)"/>
<path d="M65.6171 31.4205C65.4909 30.2848 65.3647 28.8967 64.8599 27.3825C64.4814 25.8683 63.8504 24.2278 62.9671 22.4612C62.0838 20.6946 60.9482 18.928 59.5601 17.1614C59.0554 16.5305 58.4244 15.7733 57.6673 15.1424C58.6768 11.1044 56.4054 7.69739 56.4054 7.69739C52.6198 7.44501 50.0961 8.83307 49.2128 9.59019C49.0866 9.59019 48.9604 9.464 48.708 9.33781C48.0771 9.08544 47.4462 8.83307 46.6891 8.58069C45.9319 8.32832 45.301 8.20213 44.5439 7.94976C43.7868 7.82357 43.0297 7.69739 42.3987 7.5712C42.2725 7.5712 42.1464 7.5712 42.0202 7.5712C40.3797 2.27136 35.5846 0 35.5846 0C30.2848 3.40704 29.2753 8.07595 29.2753 8.07595C29.2753 8.07595 29.2753 8.20213 29.2753 8.32832C29.0229 8.45451 28.6444 8.45451 28.392 8.58069C28.0134 8.70688 27.6349 8.83307 27.1301 8.95925C26.7516 9.08544 26.373 9.21163 25.8683 9.464C25.1111 9.84256 24.2278 10.2211 23.4707 10.5997C22.7136 10.9782 21.9565 11.483 21.1994 11.9877C21.0732 11.9877 21.0732 11.8615 21.0732 11.8615C13.6282 9.08544 7.06646 12.4925 7.06646 12.4925C6.43553 20.316 9.96875 25.3635 10.7259 26.2468C10.5997 26.7516 10.3473 27.2563 10.2211 27.7611C9.71638 29.5277 9.21163 31.4205 8.95926 33.3133C8.95926 33.5657 8.83306 33.818 8.83306 34.0704C2.01899 37.4774 0 44.4177 0 44.4177C5.6784 50.9794 12.3663 51.358 12.3663 51.358C13.2496 52.8722 14.1329 54.2603 15.2686 55.6483C15.7733 56.1531 16.2781 56.784 16.6567 57.2887C14.6377 63.2195 16.909 68.1408 16.909 68.1408C23.2183 68.3932 27.3825 65.3647 28.2658 64.6076C28.8967 64.8599 29.5277 64.9861 30.1586 65.2385C32.0514 65.7432 34.0704 65.9956 36.0894 66.1218C36.5941 66.1218 37.0989 66.1218 37.6036 66.1218H37.856H37.9822H38.2346H38.4869C41.5154 70.4121 46.6891 71.0431 46.6891 71.0431C50.4747 67.1313 50.6008 63.2195 50.6008 62.3362C50.6008 62.21 50.6008 62.21 50.6008 62.21V62.0838C51.358 61.5791 52.1151 60.9482 52.8722 60.3172C54.3864 58.9292 55.6483 57.4149 56.784 55.7745C56.9102 55.6483 57.0364 55.5221 57.0364 55.2698C61.3267 55.5221 64.229 52.6198 64.229 52.6198C63.4719 48.2033 60.9481 46.0581 60.4434 45.6796C60.4434 45.6796 60.4434 45.6796 60.3172 45.6796C60.3172 45.4272 60.3172 45.1748 60.3172 44.9224C60.3172 44.4177 60.3172 43.913 60.3172 43.5344V42.9035V42.7773V42.6511C60.3172 42.5249 60.3172 42.5249 60.3172 42.5249V42.2725V41.894C60.3172 41.7678 60.3172 41.6416 60.3172 41.5154C60.3172 41.3892 60.3172 41.263 60.3172 41.1368V40.7583V40.3797C60.1911 39.875 60.191 39.3702 60.0648 38.9917C59.5601 37.0989 58.9291 35.3323 57.9197 33.6918C56.9102 32.0514 55.7745 30.6634 54.3865 29.4015C52.9984 28.1396 51.4841 27.2563 49.8437 26.4992C48.2033 25.7421 46.5629 25.3635 44.7963 25.1111C43.913 24.985 43.1558 24.985 42.2725 24.985H42.0202H41.894H41.7678H41.6416H41.3892C41.2631 24.985 41.1368 24.985 41.0107 24.985C40.6321 24.985 40.1273 25.1111 39.7488 25.1111C38.1084 25.3635 36.468 25.9944 35.0799 26.8778C33.6919 27.7611 32.43 28.7706 31.4205 29.9062C30.411 31.0419 29.6539 32.43 29.1491 33.818C28.6444 35.2061 28.392 36.5941 28.2658 37.9822C28.2658 38.3607 28.2658 38.6131 28.2658 38.9917C28.2658 39.1179 28.2658 39.1179 28.2658 39.244V39.4964C28.2658 39.6226 28.2658 39.875 28.2658 40.0012C28.392 40.6321 28.5182 41.3892 28.6444 42.0202C29.0229 43.282 29.6539 44.4177 30.2848 45.4272C31.0419 46.4367 31.9252 47.1938 32.8085 47.8247C33.6918 48.4557 34.7013 48.9604 35.7108 49.2128C36.7203 49.4652 37.6036 49.5914 38.6131 49.5914C38.7393 49.5914 38.8655 49.5914 38.9917 49.5914H39.1179H39.2441C39.3702 49.5914 39.4964 49.5914 39.4964 49.5914C39.4964 49.5914 39.4964 49.5914 39.6226 49.5914H39.7488H39.875C40.0012 49.5914 40.1273 49.5914 40.2535 49.5914C40.3797 49.5914 40.5059 49.5914 40.6321 49.4652C40.8845 49.4652 41.0107 49.339 41.2631 49.339C41.6416 49.2128 42.0202 49.0866 42.3987 48.8342C42.7773 48.708 43.0296 48.4557 43.4082 48.2033C43.5344 48.2033 43.5344 48.0771 43.6606 47.9509C44.0391 47.6986 44.0392 47.1938 43.7868 46.9414C43.5344 46.6891 43.1558 46.5629 42.9035 46.8152C42.7773 46.8152 42.7773 46.9414 42.6511 46.9414C42.3987 47.0676 42.1463 47.1938 41.7678 47.32C41.5154 47.4462 41.1368 47.4462 40.8845 47.5724C40.7583 47.5724 40.5059 47.5724 40.3797 47.5724C40.2535 47.5724 40.2536 47.5724 40.1274 47.5724C40.0012 47.5724 40.0012 47.5724 39.875 47.5724C39.7488 47.5724 39.7488 47.5724 39.6226 47.5724C39.4964 47.5724 39.3702 47.5724 39.3702 47.5724H39.2441H39.1179C38.9917 47.5724 38.9917 47.5724 38.8655 47.5724C38.1084 47.4462 37.4774 47.32 36.7203 46.9414C35.9632 46.6891 35.3323 46.1843 34.7013 45.6796C34.0704 45.1748 33.5657 44.4177 33.1871 43.7868C32.8086 43.1558 32.43 42.2725 32.3038 41.3892C32.1776 41.0107 32.1776 40.5059 32.1776 40.1274C32.1776 40.0012 32.1776 39.875 32.1776 39.7488V39.6226V39.4964C32.1776 39.244 32.1776 38.9917 32.3038 38.7393C32.6823 36.8465 33.5657 35.0799 35.0799 33.5656C35.4585 33.1871 35.837 32.9347 36.2156 32.5562C36.5941 32.3038 37.0989 32.0514 37.4774 31.799C37.9822 31.5467 38.4869 31.4205 38.8655 31.2943C39.3703 31.1681 39.875 31.0419 40.3797 31.0419C40.6321 31.0419 40.8845 31.0419 41.1369 31.0419C41.263 31.0419 41.2631 31.0419 41.2631 31.0419H41.5154H41.6416H41.894C42.3987 31.0419 43.0296 31.1681 43.5344 31.2943C44.6701 31.5467 45.6796 31.9252 46.6891 32.5562C48.708 33.6918 50.3485 35.4585 51.4842 37.4774C51.9889 38.4869 52.3675 39.6226 52.6198 40.7583C52.6198 41.0107 52.746 41.3892 52.746 41.6416V41.894V42.1463C52.746 42.2725 52.746 42.2725 52.746 42.3987C52.746 42.5249 52.746 42.5249 52.746 42.6511V42.9035V43.1558C52.746 43.282 52.746 43.5344 52.746 43.6606C52.746 44.0391 52.746 44.2915 52.6198 44.6701C52.6198 44.9225 52.4936 45.301 52.4936 45.5534C52.4936 45.8058 52.3675 46.1843 52.2413 46.4367C52.1151 47.0676 51.8627 47.6986 51.6103 48.2033C51.1056 49.339 50.4747 50.4747 49.7175 51.6103C48.2033 53.6293 46.1843 55.3959 43.7868 56.4054C42.6511 56.9102 41.3892 57.2887 40.1274 57.5411C39.4964 57.6673 38.8655 57.6673 38.2346 57.7935H38.1084H37.9822H37.7298H37.4774H37.3513C36.9727 57.7935 36.7203 57.7935 36.3418 57.7935C34.9537 57.6673 33.5657 57.4149 32.3038 57.0364C31.0419 56.6578 29.6539 56.1531 28.5182 55.5221C26.1206 54.2603 23.9755 52.4936 22.2089 50.3485C21.3256 49.339 20.5684 48.2033 20.0637 46.9414C19.4327 45.6796 18.928 44.4177 18.5495 43.1558C18.1709 41.894 17.9185 40.5059 17.9185 39.244V38.9917V38.8655V38.6131V37.856V37.7298V37.4774V37.3512C17.9185 37.2251 17.9185 36.9727 17.9185 36.8465C17.9185 36.2156 18.0447 35.4584 18.0447 34.8275C18.1709 34.1966 18.2971 33.4395 18.4233 32.8085C18.5494 32.1776 18.6756 31.4205 18.928 30.7895C19.3066 29.5277 19.8113 28.2658 20.3161 27.0039C21.4517 24.6064 22.8398 22.4612 24.6064 20.8208C24.985 20.4422 25.4897 19.9375 25.9945 19.5589C26.4992 19.1804 27.004 18.8018 27.5087 18.5494C28.0135 18.1709 28.5182 17.9185 29.0229 17.6661C29.2753 17.5399 29.5277 17.4138 29.7801 17.2876C29.9062 17.2876 30.0324 17.1614 30.1586 17.1614C30.2848 17.1614 30.411 17.0352 30.5372 17.0352C31.0419 16.7828 31.6728 16.6566 32.1776 16.4043C32.3038 16.4043 32.43 16.2781 32.5562 16.2781C32.6824 16.2781 32.8085 16.1519 32.9347 16.1519C33.1871 16.0257 33.5657 16.0257 33.818 15.8995C33.9442 15.8995 34.0704 15.7733 34.3228 15.7733C34.449 15.7733 34.5751 15.7733 34.8275 15.6471C34.9537 15.6471 35.0799 15.6471 35.3323 15.521H35.5846H35.837C35.9632 15.521 36.0894 15.521 36.3418 15.3948C36.468 15.3948 36.7203 15.3948 36.8465 15.2686C36.9727 15.2686 37.2251 15.2686 37.3513 15.2686C37.4774 15.2686 37.6036 15.2686 37.7298 15.2686H37.9822H38.1084H38.2346C38.3608 15.2686 38.6131 15.2686 38.7393 15.2686H38.9917H39.1179C39.244 15.2686 39.3703 15.2686 39.4964 15.2686C40.1274 15.2686 40.6321 15.2686 41.2631 15.2686C42.3987 15.2686 43.5344 15.3948 44.6701 15.6471C46.8152 16.0257 48.8342 16.7828 50.727 17.6661C52.6198 18.5494 54.2603 19.6851 55.6483 20.947C55.7745 21.0732 55.7745 21.0732 55.9007 21.1994C56.0269 21.3255 56.0269 21.3255 56.1531 21.4517C56.2792 21.5779 56.5316 21.7041 56.6578 21.9565C56.784 22.2089 57.0364 22.2088 57.1626 22.4612C57.2888 22.7136 57.5411 22.8398 57.6673 22.966C58.2982 23.5969 58.803 24.2278 59.3077 24.985C60.3172 26.2468 61.2005 27.6349 61.8315 28.8967C61.8315 29.0229 61.9576 29.0229 61.9576 29.1491C61.9576 29.2753 62.0838 29.2753 62.0838 29.4015C62.21 29.5277 62.21 29.6539 62.3362 29.9062C62.4624 30.0324 62.4624 30.1586 62.5886 30.411C62.7148 30.5372 62.7148 30.6634 62.841 30.9157C63.0933 31.5467 63.3457 32.0514 63.4719 32.5562C63.7243 33.4395 63.9767 34.1966 64.1028 34.8275C64.229 35.0799 64.4814 35.3323 64.7338 35.2061C64.9861 35.2061 65.2385 34.9537 65.2385 34.7013C65.7433 33.1871 65.7432 32.3038 65.6171 31.4205Z" fill="#FF6224" fill-opacity="0.2"/>
<path d="M125.076 38.3614C124.571 50.7277 114.855 60.4441 102.615 60.4441C89.7435 60.4441 80.2795 50.0968 80.2795 37.4781C80.2795 24.8595 90.6268 14.386 103.245 14.386C108.924 14.386 114.476 16.7835 119.271 21.2001L115.612 25.7428C111.952 22.5881 107.662 20.4429 103.372 20.4429C94.1601 20.4429 86.5889 28.0141 86.5889 37.352C86.5889 46.816 93.7815 54.1348 102.867 54.1348C111.069 54.1348 117.505 48.204 118.766 40.3804H100.217V34.9544H125.328L125.076 38.3614Z" fill="#F4F4F6"/>
<path d="M146.528 35.3327H143.121C139.336 35.3327 136.307 38.3611 136.307 42.1467V60.0652H130.25V29.5281H135.298V32.0518C136.938 30.4114 139.588 29.5281 142.49 29.5281H149.052L146.528 35.3327Z" fill="#F4F4F6"/>
<path d="M179.839 60.0641H174.665V56.1523C170.627 60.0641 164.318 61.9569 157.882 59.1808C153.087 57.0357 149.554 52.7453 148.671 47.5717C146.778 37.8553 154.349 29.0222 164.066 29.0222C168.104 29.0222 171.889 30.6626 174.539 33.3126V29.4008H179.839V60.0641ZM173.53 47.0669C174.918 40.8838 170.249 35.2054 164.192 35.2054C158.892 35.2054 154.602 39.4957 154.602 44.7955C154.602 50.7263 159.775 55.3952 165.958 54.2595C169.618 53.6286 172.646 50.7263 173.53 47.0669Z" fill="#F4F4F6"/>
<path d="M192.081 27.7604V29.527H201.798V34.953H192.081V60.1903H186.024V28.0127C186.024 21.3248 190.82 17.2869 196.876 17.2869H204.195L201.798 23.0915H196.876C194.227 23.0915 192.081 25.1104 192.081 27.7604Z" fill="#F4F4F6"/>
<path d="M234.228 60.0641H229.054V56.1523C225.016 60.0641 218.707 61.9569 212.271 59.1808C207.476 57.0357 203.943 52.7453 203.059 47.5717C201.167 37.8553 208.864 29.0222 218.58 29.0222C222.618 29.0222 226.404 30.6626 229.054 33.3126V29.4008H234.354L234.228 60.0641ZM228.044 47.0669C229.432 40.8838 224.764 35.2054 218.707 35.2054C213.407 35.2054 209.116 39.4957 209.116 44.7955C209.116 50.7263 214.29 55.3952 220.473 54.2595C224.133 53.6286 227.161 50.7263 228.044 47.0669Z" fill="#F4F4F6"/>
<path d="M266.909 42.0194V60.0641H260.852V42.0194C260.852 38.2338 257.698 35.2054 254.038 35.2054C250.126 35.2054 247.098 38.2338 247.098 42.0194V60.0641H241.041V29.527H246.088V32.1769C248.234 30.1579 251.262 29.0222 254.291 29.0222C261.357 29.0222 266.909 34.8268 266.909 42.0194Z" fill="#F4F4F6"/>
<path d="M302.87 60.0641H297.696V56.1523C293.658 60.0641 287.349 61.9569 280.913 59.1808C276.118 57.0357 272.585 52.7453 271.702 47.5717C269.809 37.8553 277.506 29.0222 287.223 29.0222C291.261 29.0222 295.046 30.6626 297.696 33.3126V29.4008H302.996L302.87 60.0641ZM296.687 47.0669C298.075 40.8838 293.406 35.2054 287.349 35.2054C282.049 35.2054 277.759 39.4957 277.759 44.7955C277.759 50.7263 282.932 55.3952 289.115 54.2595C292.649 53.6286 295.803 50.7263 296.687 47.0669Z" fill="#F4F4F6"/>
<defs>
<radialGradient id="paint0_radial_23947_329" cx="0" cy="0" r="1" gradientUnits="userSpaceOnUse" gradientTransform="translate(364.417 79.3458) rotate(-86.1287) scale(58.0304 165.455)">
<stop stop-color="#FFF61A"/>
<stop offset="1" stop-color="#FF5934"/>
</radialGradient>
<radialGradient id="paint1_radial_23947_329" cx="0" cy="0" r="1" gradientUnits="userSpaceOnUse" gradientTransform="translate(32.8171 80.901) rotate(-88.3733) scale(68.5616 82.3463)">
<stop stop-color="#FFF61A"/>
<stop offset="1" stop-color="#FF5934"/>
</radialGradient>
</defs>
</svg>
