<svg width="370" height="405" viewBox="0 0 370 405" fill="none" xmlns="http://www.w3.org/2000/svg">
<path d="M369.605 179.121C368.894 172.647 368.184 164.734 365.34 156.101C363.208 147.469 359.654 138.117 354.679 128.046C349.703 117.975 343.306 107.904 335.488 97.833C332.645 94.2362 329.091 89.9201 324.826 86.3233C330.512 63.3037 317.718 43.881 317.718 43.881C296.395 42.4423 282.179 50.3552 277.204 54.6714C276.493 54.6714 275.782 53.952 274.361 53.2327C270.807 51.794 267.253 50.3552 262.988 48.9165C258.724 47.4778 255.17 46.7584 250.905 45.3197C246.64 44.6004 242.376 43.881 238.822 43.1616C238.111 43.1616 237.4 43.1616 236.69 43.1616C227.449 12.9485 200.44 0 200.44 0C170.587 19.4227 164.901 46.0391 164.901 46.0391C164.901 46.0391 164.901 46.7584 164.901 47.4778C163.479 48.1972 161.347 48.1972 159.925 48.9165C157.793 49.6359 155.661 50.3552 152.817 51.0746C150.685 51.794 148.553 52.5133 145.71 53.952C141.445 56.1101 136.47 58.2682 132.205 60.4263C127.94 62.5844 123.676 65.4618 119.411 68.3393C118.7 68.3393 118.7 67.6199 118.7 67.6199C76.7642 51.794 39.8037 71.2167 39.8037 71.2167C36.2498 115.817 56.1515 144.591 60.4162 149.627C59.7054 152.504 58.2839 155.382 57.5731 158.259C54.73 168.33 51.8869 179.121 50.4654 189.911C50.4654 191.35 49.7545 192.789 49.7545 194.227C11.3725 213.65 0 253.215 0 253.215C31.9851 290.622 69.6565 292.78 69.6565 292.78C74.6319 301.412 79.6073 309.325 86.0043 317.238C88.8474 320.115 91.6906 323.712 93.8229 326.59C82.4505 360.4 95.2443 388.455 95.2443 388.455C130.783 389.893 154.239 372.629 159.214 368.313C162.768 369.751 166.322 370.471 169.876 371.909C180.538 374.787 191.91 376.226 203.283 376.945C206.126 376.945 208.969 376.945 211.812 376.945H213.234H213.945H215.366H216.788C233.846 401.403 262.988 405 262.988 405C284.312 382.7 285.022 360.4 285.022 355.364C285.022 354.645 285.022 354.645 285.022 354.645V353.925C289.287 351.048 293.552 347.451 297.816 343.854C306.346 335.941 313.454 327.309 319.851 317.957C320.561 317.238 321.272 316.519 321.272 315.08C345.439 316.519 361.786 299.973 361.786 299.973C357.522 274.796 343.306 262.567 340.463 260.409C340.463 260.409 340.463 260.409 339.753 260.409C339.753 258.97 339.753 257.531 339.753 256.092C339.753 253.215 339.753 250.337 339.753 248.179V244.583V243.863V243.144C339.753 242.425 339.753 242.425 339.753 242.425V240.986V238.828C339.753 238.108 339.753 237.389 339.753 236.67C339.753 235.95 339.753 235.231 339.753 234.512V232.353V230.195C339.042 227.318 339.042 224.441 338.331 222.282C335.488 211.492 331.934 201.421 326.248 192.069C320.561 182.718 314.164 174.805 306.346 167.611C298.527 160.417 289.998 155.382 280.758 151.066C271.518 146.75 262.277 144.591 252.327 143.153C247.351 142.433 243.086 142.433 238.111 142.433H236.69H235.979H235.268H234.557H233.136C232.425 142.433 231.714 142.433 231.003 142.433C228.871 142.433 226.028 143.153 223.895 143.153C214.655 144.591 205.415 148.188 197.597 153.224C189.778 158.259 182.67 164.014 176.984 170.488C171.298 176.963 167.033 184.876 164.19 192.789C161.347 200.702 159.925 208.615 159.214 216.528C159.214 218.686 159.214 220.124 159.214 222.282C159.214 223.002 159.214 223.002 159.214 223.721V225.16C159.214 225.879 159.214 227.318 159.214 228.037C159.925 231.634 160.636 235.95 161.347 239.547C163.479 246.741 167.033 253.215 170.587 258.97C174.852 264.725 179.827 269.041 184.803 272.638C189.778 276.234 195.464 279.112 201.151 280.551C206.837 281.989 211.812 282.709 217.498 282.709C218.209 282.709 218.92 282.709 219.631 282.709H220.342H221.052C221.763 282.709 222.474 282.709 222.474 282.709C222.474 282.709 222.474 282.709 223.185 282.709H223.895H224.606C225.317 282.709 226.028 282.709 226.738 282.709C227.449 282.709 228.16 282.709 228.871 281.989C230.292 281.989 231.003 281.27 232.425 281.27C234.557 280.551 236.689 279.831 238.822 278.393C240.954 277.673 242.376 276.234 244.508 274.796C245.219 274.796 245.219 274.076 245.93 273.357C248.062 271.918 248.062 269.041 246.64 267.602C245.219 266.163 243.086 265.444 241.665 266.883C240.954 266.883 240.954 267.602 240.243 267.602C238.822 268.322 237.4 269.041 235.268 269.76C233.846 270.48 231.714 270.48 230.292 271.199C229.582 271.199 228.16 271.199 227.449 271.199C226.739 271.199 226.739 271.199 226.028 271.199C225.317 271.199 225.317 271.199 224.606 271.199C223.895 271.199 223.895 271.199 223.185 271.199C222.474 271.199 221.763 271.199 221.763 271.199H221.052H220.342C219.631 271.199 219.631 271.199 218.92 271.199C214.655 270.48 211.101 269.76 206.837 267.602C202.572 266.163 199.018 263.286 195.464 260.409C191.91 257.531 189.067 253.215 186.935 249.618C184.803 246.021 182.67 240.986 181.959 235.95C181.249 233.792 181.249 230.915 181.249 228.757C181.249 228.037 181.249 227.318 181.249 226.599V225.879V225.16C181.249 223.721 181.249 222.282 181.959 220.844C184.092 210.053 189.067 199.982 197.597 191.35C199.729 189.192 201.861 187.753 203.994 185.595C206.126 184.156 208.969 182.718 211.101 181.279C213.945 179.84 216.788 179.121 218.92 178.401C221.763 177.682 224.606 176.963 227.449 176.963C228.871 176.963 230.292 176.963 231.714 176.963C232.425 176.963 232.425 176.963 232.425 176.963H233.846H234.557H235.979C238.822 176.963 242.376 177.682 245.219 178.401C251.616 179.84 257.302 181.998 262.988 185.595C274.361 192.069 283.601 202.14 289.998 213.65C292.841 219.405 294.973 225.879 296.395 232.353C296.395 233.792 297.106 235.95 297.106 237.389V238.828V240.266C297.106 240.986 297.106 240.986 297.106 241.705C297.106 242.425 297.106 242.425 297.106 243.144V244.583V246.021C297.106 246.741 297.106 248.179 297.106 248.899C297.106 251.057 297.106 252.496 296.395 254.654C296.395 256.092 295.684 258.25 295.684 259.689C295.684 261.128 294.973 263.286 294.262 264.725C293.552 268.322 292.13 271.918 290.709 274.796C287.865 281.27 284.312 287.744 280.047 294.219C271.518 305.728 260.145 315.799 246.64 321.554C240.243 324.432 233.136 326.59 226.028 328.028C222.474 328.748 218.92 328.748 215.366 329.467H214.655H213.945H212.523H211.101H210.391C211.101 329.467 210.391 329.467 210.391 329.467C208.258 329.467 206.837 329.467 204.704 329.467C196.886 328.748 189.067 327.309 181.959 325.151C174.852 322.993 167.033 320.115 160.636 316.519C147.131 309.325 135.048 299.254 125.097 287.025C120.122 281.27 115.857 274.796 113.014 267.602C109.46 260.409 106.617 253.215 104.485 246.021C102.352 238.828 100.931 230.915 100.931 223.721V222.282V221.563V220.124V215.808V215.089V213.65V212.931C100.931 212.211 100.931 210.773 100.931 210.053C100.931 206.456 101.642 202.14 101.642 198.544C102.352 194.947 103.063 190.631 103.774 187.034C104.485 183.437 105.195 179.121 106.617 175.524C108.749 168.33 111.592 161.137 114.435 153.943C120.832 140.275 128.651 128.046 138.602 118.694C140.734 116.536 143.577 113.659 146.421 111.501C149.264 109.343 152.107 107.185 154.95 105.746C157.793 103.588 160.636 102.149 163.479 100.71C164.901 99.9911 166.322 99.2718 167.744 98.5524C168.455 98.5524 169.165 97.833 169.876 97.833C170.587 97.833 171.298 97.1137 172.009 97.1137C174.852 95.675 178.406 94.9556 181.249 93.5169C181.959 93.5169 182.67 92.7975 183.381 92.7975C184.092 92.7975 184.803 92.0782 185.513 92.0782C186.935 91.3588 189.067 91.3588 190.489 90.6394C191.2 90.6394 191.91 89.9201 193.332 89.9201C194.043 89.9201 194.754 89.9201 196.175 89.2007C196.886 89.2007 197.597 89.2007 199.018 88.4814H200.44H201.861C202.572 88.4814 203.283 88.4814 204.704 87.762C205.415 87.762 206.837 87.762 207.548 87.0426C208.258 87.0426 209.68 87.0426 210.391 87.0426C211.101 87.0426 211.812 87.0426 212.523 87.0426H213.945H214.655H215.366C216.077 87.0426 217.498 87.0426 218.209 87.0426H219.631C219.631 87.0426 220.341 87.0426 219.631 87.0426H220.342C221.052 87.0426 221.763 87.0426 222.474 87.0426C226.028 87.0426 228.871 87.0426 232.425 87.0426C238.822 87.0426 245.219 87.762 251.616 89.2007C263.699 91.3588 275.072 95.675 285.733 100.71C296.395 105.746 305.635 112.22 313.454 119.414C314.164 120.133 314.164 120.133 314.875 120.853C315.586 121.572 315.586 121.572 316.297 122.291C317.007 123.011 318.429 123.73 319.14 125.169C319.851 126.607 321.272 126.607 321.983 128.046C322.694 129.485 324.115 130.204 324.826 130.924C328.38 134.52 331.223 138.117 334.066 142.433C339.752 149.627 344.728 157.54 348.282 164.734C348.282 165.453 348.993 165.453 348.993 166.172C348.993 166.892 349.703 166.892 349.703 167.611C350.414 168.33 350.414 169.05 351.125 170.488C351.836 171.208 351.836 171.927 352.546 173.366C353.257 174.085 353.257 174.805 353.968 176.243C355.39 179.84 356.811 182.718 357.522 185.595C358.944 190.631 360.365 194.947 361.076 198.544C361.787 199.982 363.208 201.421 364.63 200.702C366.051 200.702 367.473 199.263 367.473 197.824C370.316 189.192 370.316 184.156 369.605 179.121Z" fill="white"/>
</svg>
