<svg width="484" height="450" viewBox="0 0 484 450" fill="none" xmlns="http://www.w3.org/2000/svg">
<circle cx="240" cy="225" r="225" fill="url(#paint0_radial_29786_13760)"/>
<circle cx="240" cy="223" r="124.5" stroke="#FDE8BE" stroke-width="15"/>
<circle cx="242" cy="225" r="173.5" stroke="#FDE8BE" stroke-width="15"/>
<rect x="339.422" y="153.209" width="144.572" height="144.572" rx="20" fill="#FB755A"/>
<path d="M403.216 234.39H423.026C425.063 234.39 426.326 232.187 425.307 230.428L415.402 213.274C414.383 211.515 411.845 211.515 410.835 213.274L400.93 230.428C399.911 232.187 401.187 234.39 403.211 234.39H403.216ZM413.121 190.329C393.528 190.329 377.637 206.221 377.637 225.813C377.637 245.405 393.528 261.297 413.121 261.297C432.713 261.297 448.604 245.405 448.604 225.813C448.604 206.221 432.713 190.329 413.121 190.329ZM413.212 206.56C423.848 206.613 432.426 215.272 432.373 225.909C432.321 236.545 423.661 245.122 413.025 245.07C402.388 245.018 393.811 236.358 393.864 225.722C393.916 215.085 402.576 206.508 413.212 206.56ZM387.903 236.724C387.685 236.798 387.481 236.828 387.267 236.828C386.405 236.828 385.591 236.271 385.313 235.409C384.346 232.435 383.863 229.239 383.863 225.904C383.863 224.054 384.015 222.121 384.324 220.175C386.649 208.367 395.718 199.254 407.443 196.877C408.562 196.651 409.646 197.369 409.873 198.484C410.099 199.598 409.381 200.687 408.266 200.913C398.178 202.951 390.372 210.797 388.386 220.889C388.13 222.543 387.995 224.263 387.995 225.896C387.995 228.787 388.417 231.564 389.248 234.124C389.597 235.204 389.013 236.367 387.921 236.715L387.899 236.724H387.903ZM435.565 245.218C430.153 251.657 422.368 255.193 413.647 255.193C404.927 255.193 396.654 251.605 391.029 245.349C390.267 244.504 390.341 243.198 391.182 242.449C392.026 241.687 393.332 241.761 394.081 242.606C398.853 247.913 406.154 251.091 413.634 251.091C421.114 251.091 427.789 248.07 432.404 242.575C433.135 241.713 434.428 241.587 435.303 242.327C436.179 243.059 436.279 244.352 435.552 245.227L435.56 245.218H435.565ZM441.129 235.274C440.833 236.127 440.04 236.654 439.183 236.654C438.956 236.654 438.73 236.611 438.504 236.541C437.433 236.171 436.867 235 437.237 233.92C437.598 232.871 437.924 231.769 438.194 230.637C438.504 229.083 438.669 227.42 438.669 225.774C438.669 213.701 430.061 203.238 418.193 200.896C417.083 200.678 416.312 199.598 416.517 198.488C416.721 197.378 417.749 196.638 418.85 196.834C418.872 196.834 418.963 196.856 418.985 196.864C432.765 199.581 442.775 211.746 442.775 225.774C442.775 227.685 442.587 229.623 442.209 231.512C441.891 232.858 441.529 234.094 441.12 235.278H441.129V235.274Z" fill="white"/>
<rect y="153.209" width="144.572" height="144.572" rx="20" fill="#FBC55A"/>
<path d="M93.3513 225.733V214.422C93.3462 209.382 91.562 204.506 88.3147 200.658C85.0675 196.811 80.5666 194.239 75.6093 193.399V189.522C75.6093 188.579 75.2355 187.674 74.57 187.007C73.9046 186.34 73.002 185.965 72.0609 185.965C71.1198 185.965 70.2173 186.34 69.5518 187.007C68.8864 187.674 68.5125 188.579 68.5125 189.522V193.399C63.5552 194.239 59.0544 196.811 55.8071 200.658C52.5599 204.506 50.7757 209.382 50.7706 214.422V225.733C48.6999 226.467 46.9064 227.825 45.6359 229.621C44.3653 231.417 43.68 233.563 43.6738 235.764V242.879C43.6738 243.822 44.0477 244.727 44.7131 245.394C45.3786 246.061 46.2811 246.436 47.2222 246.436H58.3642C59.1813 249.45 60.9651 252.111 63.4405 254.008C65.9158 255.905 68.9451 256.933 72.0609 256.933C75.1768 256.933 78.2061 255.905 80.6814 254.008C83.1567 252.111 84.9406 249.45 85.7577 246.436H96.8997C97.8408 246.436 98.7433 246.061 99.4088 245.394C100.074 244.727 100.448 243.822 100.448 242.879V235.764C100.442 233.563 99.7565 231.417 98.486 229.621C97.2155 227.825 95.4219 226.467 93.3513 225.733ZM57.8674 214.422C57.8674 210.648 59.3628 207.029 62.0246 204.361C64.6864 201.692 68.2966 200.193 72.0609 200.193C75.8253 200.193 79.4355 201.692 82.0973 204.361C84.7591 207.029 86.2545 210.648 86.2545 214.422V225.093H57.8674V214.422ZM72.0609 249.993C70.8225 249.985 69.6075 249.653 68.5368 249.029C67.4661 248.405 66.5769 247.511 65.9577 246.436H78.1642C77.5449 247.511 76.6558 248.405 75.5851 249.029C74.5144 249.653 73.2994 249.985 72.0609 249.993ZM93.3513 239.321H50.7706V235.764C50.7706 234.821 51.1445 233.916 51.8099 233.249C52.4754 232.582 53.3779 232.207 54.319 232.207H89.8029C90.744 232.207 91.6465 232.582 92.312 233.249C92.9774 233.916 93.3513 234.821 93.3513 235.764V239.321Z" fill="white"/>
<rect x="169.715" y="153.209" width="144.572" height="144.572" rx="20" fill="#FB9D5A"/>
<path d="M215.72 196.135C216.752 197.17 218.432 197.17 219.469 196.135C220.501 195.101 220.501 193.42 219.469 192.386L214.87 187.788C213.838 186.753 212.159 186.753 211.122 187.788C210.09 188.822 210.09 190.503 211.122 191.538L215.72 196.135ZM242.874 190.407C244.336 190.407 245.525 189.221 245.525 187.757V183.155C245.525 181.691 244.336 180.505 242.874 180.505C241.412 180.505 240.223 181.691 240.223 183.155V187.752C240.223 189.216 241.412 190.402 242.874 190.402V190.407ZM270.028 196.135L274.626 191.538C275.658 190.503 275.658 188.822 274.626 187.788C273.594 186.753 271.915 186.753 270.878 187.788L266.285 192.386C265.253 193.42 265.253 195.101 266.285 196.135C267.317 197.17 268.996 197.17 270.028 196.135ZM265.531 237.788L261.737 207.022C261.464 204.786 260.285 202.717 258.424 201.213C256.567 199.704 254.155 198.866 251.656 198.846H234.148C231.624 198.831 229.181 199.658 227.294 201.167C225.407 202.676 224.208 204.761 223.93 207.017L220.131 237.824C217.718 238.243 215.462 239.363 213.692 241.084C211.4 243.3 210.095 246.333 210.095 249.513C210.095 251.511 210.915 253.409 212.346 254.792C213.773 256.17 215.685 256.932 217.663 256.932H268.217C270.19 256.932 272.107 256.175 273.528 254.792C274.955 253.409 275.78 251.511 275.78 249.513C275.78 246.333 274.474 243.305 272.183 241.084C270.357 239.313 268.02 238.177 265.526 237.788H265.531ZM231.123 221.128C232.428 220.139 234.29 220.401 235.276 221.709L239.571 227.407L248.712 211.196C249.516 209.767 251.327 209.263 252.753 210.07C254.18 210.878 254.686 212.685 253.881 214.113L244.24 231.217C244.24 231.217 244.23 231.232 244.23 231.242C243.795 232 243.228 232.625 242.55 233.1C241.817 233.609 240.982 233.922 240.117 233.993C239.945 234.013 239.773 234.023 239.601 234.023C238.883 234.023 238.165 233.862 237.502 233.544C236.738 233.175 236.055 232.605 235.524 231.894L230.547 225.292C229.56 223.985 229.818 222.123 231.128 221.133L231.123 221.128ZM269.401 250.527C269.102 250.82 268.677 250.996 268.212 250.996H217.658C217.197 250.996 216.767 250.82 216.469 250.527C216.176 250.239 216.024 249.876 216.024 249.513C216.024 247.968 216.656 246.469 217.814 245.349C218.978 244.223 220.571 243.577 222.251 243.577H263.619C265.303 243.577 266.897 244.228 268.055 245.349C269.214 246.469 269.846 247.968 269.846 249.513C269.846 249.876 269.699 250.244 269.401 250.527ZM215.644 212.654C215.644 211.191 214.456 210.005 212.994 210.005H208.401C206.939 210.005 205.75 211.191 205.75 212.654C205.75 214.118 206.939 215.304 208.401 215.304H212.994C214.456 215.304 215.644 214.118 215.644 212.654ZM277.343 210.005H272.744C271.283 210.005 270.094 211.191 270.094 212.654C270.094 214.118 271.283 215.304 272.744 215.304H277.343C278.804 215.304 279.993 214.118 279.993 212.654C279.993 211.191 278.804 210.005 277.343 210.005Z" fill="white"/>
<defs>
<radialGradient id="paint0_radial_29786_13760" cx="0" cy="0" r="1" gradientUnits="userSpaceOnUse" gradientTransform="translate(240 225) rotate(90) scale(225)">
<stop offset="0.786667" stop-color="#FDE8BE" stop-opacity="0"/>
<stop offset="1" stop-color="#FDE8BE"/>
</radialGradient>
</defs>
</svg>
