<svg width="36" height="34" viewBox="0 0 36 34" fill="none" xmlns="http://www.w3.org/2000/svg">
<path d="M36 34H0L11.9846 9.12233L19.2038 14.287L28.6202 0L36 34ZM22.8006 28.6266H22.8777C23.7687 28.6282 24.6254 28.293 25.2674 27.6919C25.5964 27.4014 25.858 27.0462 26.0351 26.6497C26.2122 26.2533 26.3008 25.8248 26.2947 25.3926C26.3093 24.9761 26.2281 24.5618 26.0568 24.1799C25.8854 23.798 25.6284 23.4583 25.3046 23.1857C24.7587 22.6527 24.0231 22.3445 23.2501 22.3247H23.191C23.0898 22.3243 22.9891 22.3377 22.8918 22.3647L24.7923 19.6155L23.2783 18.5871L22.5618 19.6155L20.7307 22.3372C20.4161 22.7883 20.1528 23.1857 19.9897 23.4619C19.8206 23.7541 19.675 24.0587 19.5544 24.3728C19.4172 24.7067 19.3467 25.063 19.3464 25.4225C19.3421 25.8497 19.4303 26.2729 19.605 26.6648C19.7797 27.0566 20.0373 27.4083 20.3608 27.6969C20.9944 28.2975 21.8443 28.633 22.7287 28.6316L22.8006 28.6266ZM14.7519 25.6675L16.8501 28.5553H19.0934L16.6253 25.2051L18.8174 22.2435L17.3624 21.2638L16.7204 22.0885L14.7493 24.7928V19.3555L12.7846 17.7972V28.5541H14.7493V25.6649L14.7519 25.6675ZM22.8032 26.8234C22.4201 26.8234 22.0527 26.6753 21.7817 26.4116C21.5108 26.148 21.3586 25.7904 21.3586 25.4175C21.3586 25.0447 21.5108 24.6871 21.7817 24.4235C22.0527 24.1598 22.4201 24.0117 22.8032 24.0117H22.8161C23.0063 24.0119 23.1946 24.0496 23.3696 24.1223C23.5446 24.1951 23.7027 24.3016 23.8343 24.4354C23.9729 24.5592 24.0832 24.7099 24.1582 24.8778C24.2331 25.0457 24.2711 25.227 24.2697 25.41C24.265 25.7854 24.1086 26.1439 23.8344 26.4079C23.5602 26.6719 23.1902 26.8203 22.8045 26.8209L22.8032 26.8234Z" fill="#7D64FF"/>
</svg>
