<svg width="69" height="69" viewBox="0 0 69 69" fill="none" xmlns="http://www.w3.org/2000/svg">
<rect width="69" height="69" rx="16" fill="#FB9D5A"/>
<path d="M19.6406 20.9993C20.2244 21.595 21.1746 21.595 21.7612 20.9993C22.3451 20.4036 22.3451 19.436 21.7612 18.8403L19.1599 16.1931C18.576 15.5974 17.6259 15.5974 17.0392 16.1931C16.4554 16.7888 16.4554 17.7564 17.0392 18.3521L19.6406 20.9993ZM35.0029 17.7012C35.8299 17.7012 36.5025 17.0184 36.5025 16.1757V13.5256C36.5025 12.6829 35.8299 12 35.0029 12C34.1758 12 33.5033 12.6829 33.5033 13.5256V16.1728C33.5033 17.0155 34.1758 17.6983 35.0029 17.6983V17.7012ZM50.3651 20.9993L52.9665 18.3521C53.5503 17.7564 53.5503 16.7888 52.9665 16.1931C52.3827 15.5974 51.4325 15.5974 50.8459 16.1931L48.2473 18.8403C47.6635 19.436 47.6635 20.4036 48.2473 20.9993C48.8312 21.595 49.7813 21.595 50.3651 20.9993ZM47.8209 44.9811L45.6746 27.2672C45.52 25.9799 44.8532 24.7885 43.8001 23.9226C42.7498 23.0538 41.3847 22.5714 39.971 22.5598H30.0662C28.6382 22.5511 27.2559 23.0276 26.1885 23.8964C25.121 24.7653 24.4428 25.9654 24.2854 27.2643L22.1361 45.0015C20.7711 45.2426 19.4947 45.8877 18.4931 46.8786C17.1966 48.1543 16.4583 49.9007 16.4583 51.7313C16.4583 52.882 16.9219 53.9746 17.7318 54.7708C18.5388 55.5641 19.6206 56.0029 20.7396 56.0029H49.3406C50.4567 56.0029 51.5413 55.567 52.3455 54.7708C53.1525 53.9746 53.619 52.882 53.619 51.7313C53.619 49.9007 52.8806 48.1572 51.5842 46.8786C50.5511 45.8587 49.2289 45.2049 47.8181 44.9811H47.8209ZM28.3549 35.389C29.0932 34.8194 30.1464 34.9705 30.7044 35.7232L33.1341 39.0038L38.3054 29.6703C38.7604 28.848 39.785 28.5574 40.592 29.0223C41.399 29.4873 41.6852 30.5275 41.2302 31.3499L35.7756 41.1977C35.7756 41.1977 35.7698 41.2064 35.7698 41.2123C35.5237 41.6481 35.2032 42.0085 34.8197 42.2816C34.4047 42.5751 33.9325 42.7553 33.4432 42.7959C33.3459 42.8076 33.2486 42.8134 33.1513 42.8134C32.7449 42.8134 32.3385 42.7204 31.9636 42.5373C31.5315 42.3252 31.1451 41.9968 30.8446 41.5871L28.0286 37.7863C27.4706 37.0337 27.6165 35.9614 28.3577 35.3919L28.3549 35.389ZM50.0102 52.3154C49.8414 52.484 49.601 52.5857 49.3377 52.5857H20.7367C20.4763 52.5857 20.233 52.484 20.0642 52.3154C19.8982 52.1498 19.8123 51.9406 19.8123 51.7313C19.8123 50.8422 20.1701 49.9791 20.8254 49.334C21.4836 48.686 22.3851 48.3141 23.3352 48.3141H46.7392C47.6922 48.3141 48.5936 48.6889 49.249 49.334C49.9043 49.9791 50.2621 50.8422 50.2621 51.7313C50.2621 51.9406 50.1791 52.1527 50.0102 52.3154ZM19.5977 30.5101C19.5977 29.6674 18.9252 28.9845 18.0981 28.9845H15.4996C14.6725 28.9845 14 29.6674 14 30.5101C14 31.3528 14.6725 32.0357 15.4996 32.0357H18.0981C18.9252 32.0357 19.5977 31.3528 19.5977 30.5101ZM54.5033 28.9845H51.9019C51.0748 28.9845 50.4023 29.6674 50.4023 30.5101C50.4023 31.3528 51.0748 32.0357 51.9019 32.0357H54.5033C55.3303 32.0357 56.0029 31.3528 56.0029 30.5101C56.0029 29.6674 55.3303 28.9845 54.5033 28.9845Z" fill="white"/>
</svg>
