<svg width="79" height="26" viewBox="0 0 79 26" fill="none" xmlns="http://www.w3.org/2000/svg">
<path d="M73.9514 21.1975C71.7693 23.485 68.8594 24.7387 65.7842 24.7387H12.2392C9.16047 24.7387 6.25234 23.485 4.06322 21.1975C1.88647 18.9135 0.685547 15.8752 0.685547 12.6382C0.685547 5.97076 5.87071 0.542969 12.2392 0.542969H65.7842C68.8594 0.542969 71.7693 1.79836 73.9514 4.08941C76.1281 6.36814 77.3272 9.41348 77.3272 12.6382C77.3272 15.8752 76.1281 18.9135 73.9514 21.1975Z" fill="#F4F4F6"/>
<path d="M73.4082 20.7319C71.2578 22.8752 68.3971 24.0603 65.3711 24.0603H12.6966C9.65829 24.0603 6.80629 22.8752 4.65774 20.7319C2.51074 18.5797 1.32567 15.7277 1.32567 12.6894C1.32567 6.41594 6.42645 1.32567 12.6965 1.32567H65.371C68.397 1.32567 71.2578 2.50023 73.4082 4.64708C75.5497 6.79921 76.7436 9.65112 76.7436 12.6894C76.7436 15.7277 75.5497 18.5797 73.4082 20.7318L73.4082 20.7319ZM74.3471 3.71166C71.9506 1.31516 68.7645 0 65.371 0H12.6966C5.69852 0 0 5.68272 0 12.6894C0 16.0759 1.32044 19.2689 3.72577 21.6602C6.12063 24.0603 9.30482 25.3842 12.6966 25.3842H65.3711C68.7646 25.3842 71.9506 24.0603 74.3471 21.6602C76.7455 19.2689 78.0606 16.0759 78.0606 12.6894C78.0606 9.29246 76.7454 6.10996 74.3471 3.71166" fill="#797B7F"/>
<path d="M65.3718 2.45508H12.6955C7.04967 2.45508 2.47461 7.03547 2.47461 12.6865C2.47461 18.3341 7.04967 22.918 12.6955 22.918H65.3718C71.0194 22.918 75.5928 18.3341 75.5928 12.6865C75.5928 7.03542 71.0194 2.45513 65.3718 2.45513" fill="#797B7F"/>
<path d="M10.627 7.01172H16.4223L16.2693 12.2268H19.7982L19.5784 7.08204H25.2225L24.7003 18.6199H19.9494L19.7984 14.5969H16.2045L16.1357 18.5513H11.2178L10.627 7.01172ZM32.5845 7.15446H47.0253L46.8742 10.3352H38.2358V12.3009H44.4338L44.358 14.5973L38.1565 14.5923V16.558H46.5822L46.505 18.6961H33.1104L32.5845 7.15446ZM27.0396 12.3809H30.5949V14.5243H27.11L27.0396 12.3809ZM48.728 14.5973H52.1392V12.3801H48.728V14.5973ZM54.6854 18.7713L54.165 7.15431H65.0646C67.1938 7.15431 68.815 8.42202 68.815 10.4722C68.815 12.7333 67.0145 13.5035 66.3762 13.5474L66.3862 13.6386C67.4535 13.8744 68.1076 14.4281 68.1076 15.84C68.1076 18.6198 65.4736 18.7816 64.0705 18.7816L54.6848 18.7717" fill="#F4F4F6"/>
<path d="M59.8711 16.6733V14.5492H61.8491C62.4434 14.5492 63.0307 14.8887 63.0307 15.5866C63.0307 16.2618 62.2817 16.6733 61.4747 16.6733H59.8711ZM59.9114 12.5789V10.1367H61.8824C62.6736 10.1367 63.4579 10.5853 63.4579 11.3973C63.4579 12.0743 62.5383 12.5983 61.7224 12.5789C61.0367 12.564 59.9114 12.5789 59.9114 12.5789Z" fill="#797B7F"/>
</svg>
