<svg viewBox="0 0 238 218" xmlns="http://www.w3.org/2000/svg"><style>.st0{fill:#fff}</style><path class="st0" d="M21.7 99c.1 0 .1 0 0 0l.4-.1.3-.1-.7.2zm.8-.1l.4-.1.3-.1-.7.2zm101.2-34.7l-.7-.1.7.1zm-1-.1h-.2.4-.2zM21 99.1h.7-.7zm-2.2.1h.6-.6zm-.7-.1h.6-.6zm2.2.1h.7-.7zm-.8 0h.6-.6zM122.1 64h.3-.3zm-81 41.6l-.2-.2.2.2c-.1 0 0 0 0 0zm.4.3l-.4-.3.2.1.2.2zm.5.3l-.5-.3.1.1.4.2zm-1.3-.9l-.2-.2.2.2zM17.5 99h.6-.6zm25.1 7.5l-.5-.2h.1l.2.1.2.1zm.2.1h.4l-.6-.2.2.2zM25.5 98l-.5.2.5-.2zm-2.2.7l.7-.2-.7.2zm.9-.3l.4-.1h.1l-.5.1zm1.5-.5l.2-.1h.1l-.3.1zm14.6 6.9l-.1-.2.1.2zm-13.1-7.6l.2-.1-.2.1zm12.8 7.2l-.1-.2.1.2zM23.5 76.7l.1.1h.1l.2.1h.1a.8.8 0 0 1-.5-.2zm99.3 4.2l.4.2-.4-.2zM22 75.3l.1.3.1.1-.2-.4zm1.4 1.4l-.5-.3.1.1.2.1.2.1zm-.9-.7l-.2-.2.1.1.1.1zm.4.4s.1 0 0 0c.1 0 .1 0 0 0l-.4-.3.1.1.3.2zm98.4 3.2l.3.3-.3-.3zm-94.7-2.1h.8-.8zm94.4 1.7l.2.3-.2-.3zm-94.5-1.7l-.8-.1.8.1zm-.8-.1h.1-.3.2zm6.7-.9zM14.9 97.8l.1.1.1.1.2.1-.4-.3zm2.6 1.2l-.6-.2h.6c-.1.2-.1.2 0 .2z"/><path class="st0" d="M14.9 97.8l-.4-.4.1.1.1.1.1.1.1.1zm1.2.8s.1 0 0 0l.2.1h.4l-.6-.1zm0-.1l-.6-.3.1.1.2.1h.1l.2.1c-.1 0 0 0 0 0zm-1.6-1.1l-.3-.4.1.1.1.1.1.2c-.1-.1 0-.1 0 0zm9.8-11.6c.1 0 .1 0 0 0h.2-.2c.1 0 .1 0 0 0zM24 77c.1 0 .1 0 0 0h.6c-.1.2-.3.1-.6 0zm.7.2h.3-.3zm.5.1H25h.2zm18.1 29.4h.4c-.2.1-.3.1-.4 0zm-18-29.4h.2c-.1.1-.2.1-.2 0zm98 4l.6.3-.6-.3zm-77.9 55.1l.6-.2h.1l-.7.2zm3.4-1.7l.1-.1.4-.3-.5.4zm-1.9 1.1l-.5.2.5-.2zm-2.5 1l.8-.3-.8.3zm74-74.5l.2.2-.2-.2zm-71.2 73.3l.3-.1.2-.1-.5.2zm-3.7 1.4l.5-.1.3-.1-.8.2zm-3.5.5h.8-.8zm-.9-.1h.9-.9zm3.5-.2l.5-.1.3-.1-.8.2zm1-30.4l.2.1h.1l-.3-.1zm-5.3 30.5h.8c-.3.1-.5.1-.8 0zm2.5.2h.8c-.2-.1-.5-.1-.8 0zm27.3 10.2l-.6-.4.2.1.3.2.1.1zm-.8-.5c.1 0 .1 0 0 0l-.5-.4.2.2.1.1h.1l.1.1zm1.4.8c0 .1.1.1 0 0l-.6-.3h.1l.3.1.2.2zm.3.1l.2.1.2.1.2.1.2.1-.8-.3c-.1-.1-.1-.1 0-.1z"/><path class="st0" d="M69.6 148.4s.1 0 0 0l.2.1h.3l-.5-.1zm-2.8-1.7zm-1.1-1.2l-.2-.3v.1l.1.1v.1h.1zm-17.2-10.6l-.5.3.5-.3zm16.7 9.9l-.2-.3v.1l.2.2zm53.1-82.6l-.2-.2.2.2c-.1 0 0 0 0 0zm-51.9 84.2l.1.1.1.1-.2-.2zm-.2-.2l-.3-.4.2.2.1.2zm-24.5-8.8h.2l.3-.1h.2l-.7.1zm-8.2-2.9l-.1-.2v.1l.1.1c-.1 0-.1 0 0 0zM44 118.6l.2-.1-.2.1zm-10.4 16.1l.1.1-.1-.1zm.3.4l.1.1-.1-.1zm-.2-.2c.1 0 .1 0 0 0 .1 0 .1 0 0 0zm87.1-71.2l.2.1.2.1h.1l-.5-.2zm-75.3 43.4l-.9-.1.9.1zm-1.6-.2c.1 0 .1 0 0 0l.3.1-.3-.1zm78-42.9h.3-.3zm-77.4 43s.1 0 0 0h-.2.2c-.1 0-.1 0 0 0zm76.8-43.2c.1.1.1.1 0 0l.2.1h.3l-.5-.1zm-83.8 73.4l.3.1h.4l-.7-.1zm-1.3-.5l-.3-.1h.1l.2.1c-.1 0-.1 0 0 0-.1 0-.1 0 0 0zm84.1-73.2c.1 0 .1 0 0 0l.1.1.2.1h.1l-.4-.2zm-84 73.3l.1.1.1.1.1.1c0-.2-.2-.3-.3-.3zm.4.2c.1 0 .1 0 0 0l.2.1h.2l.2.1h.1l-.7-.2zm-1.6-.9l.2.1.1.1-.3-.2zm.7.5l-.4-.2h.1l.1.1.2.1zm-1.2-.8l-.2-.2.2.2c-.1-.1-.1-.1 0 0-.1-.1-.1-.1 0 0zm.1.1l.3.2-.3-.2zm-.4-.4l-.2-.2.1.1.1.1zm84.6-72.8l-.2-.2.2.2zm.9.6s.1 0 0 0l.1.1h.1l.2.1-.4-.2zm1.9 16.7l.4.4-.4-.4zm-51.1 8.3l.4.4-.4-.4zm-11 7.5l.1.2-.1-.2zM70 87.3l.2.5-.2-.5zm-11.7 6.5l-.2-.2-.1-.1.1.1.2.2zm11.5-7l.1.4-.1-.4zm.4.9l.3.4-.3-.4zm-10.8 7.4l-.1-.2.1.2zm.2.5l-.1-.2.1.2zm-1.1-1.7l.1.1-.1-.1zm-1-.8l.1.1-.1-.1zm1.5 1.4zm12.5-5.4l.5.3-.5-.3zM98 87.5l.1-.1-.1.1zm-.8 1l.4-.6-.4.6zM83.9 69l.3-.2-.3.2zm13.3 19.5zM84.5 68.7l.3-.2-.3.2zm12.3 20.4zM83.6 69.2l-.4.2.4-.2zm12.9 20.6zM77.1 70.6h.8-.8zm20.1 17.9zm-26.2.2l.4.4-.4-.4zm-.8 59.9l.3.1h.2l-.5-.1zm17.6-66v.4-.4zm0-.1zm8.5 7.9zm-56 8.7zm31.8-9.7l.6.3-.6-.3zm-31.4 9zm43.7-10.5l-.2.1.2-.1zm-33 18.2l.9-.3-.9.3zm51.9-8.5l-.9-.1.9.1zm-62.1.1h.1zm46.5-14.3V83v.4zm9.9 36.4l-.2-.7.2.7zM29.4 95.9l.2-.1-.2.1zm47.9-17.7c.1 0 .1 0 0 0 .1 0 .1 0 0 0zM41.8 97.1zm34.7-18.6h.1c0-.1-.1 0-.1 0zm3.7-8.2l.6-.1-.6.1zM79 77.9zm1.1-7.5l-.6.1.6-.1zM41.8 97.1l.6-.6-.6.6zM29.3 96l-.4.3c.1-.2.3-.2.4-.3zM28 85.3zM78.1 78s.1 0 0 0c.1 0 0 0 0 0zM65.3 59v.3-.3zM33.5 91.5zm75.9 5l-.5.2.5-.2zm-65.5-1.3l-.3.2.3-.2s.1 0 0 0l.4-.3-.4.3zm112.6 14l-.4-.6.4.6zm-38.3 6.1zM50.1 63.9l.3.2-.3-.2zm.4.4l.4.2-.4-.2zm-.8-.7l.3.3-.3-.3zm12.6-.6a2 2 0 0 0-.6.4l.6-.4zm14.8 7.6l-.8-.1.8.1zm-26.2-6.1l.5.2-.5-.2zm69.5 13.2zm.1.4l.2.4-.2-.4zM70.4 83l-.1.2.1-.2zm17.3.5zm-17.1-.9s.1 0 0 0l.1-.2-.1.2zm-.6 1.1l.1-.2-.1.2zm-.1.3l-.1.2.1-.2zm-.2.6v.2-.2zm-.1 1.2v-.2.2zm51.3-6.8l-.2-.5.2.5zm-51.3 6.1v.2-.2zm77.8-2.6v.5-.5zM87.2 65.9l.1-.1v-.3c.1.1 0 .2-.1.4zm-.6 1l.1-.2.1-.1.1-.1v-.1l-.3.5zm1-2.5v-.5.5zm-1.8 3.3l.1-.1.1-.1.1-.1-.3.3zm1.8-2.9v-.3l-.1.5.1-.2zm-1.4 2.5l.1-.1.1-.1.1-.1.1-.1-.4.4zm-.9.8l.1-.1.2-.2.1-.1-.4.4zm18.1 29.5h.9-.9zM49.5 63.3l.2.3-.2-.3zm33.6 6.1l-.6.3.6-.3zm4.1-3.5l-.3.5.1-.1.1-.1.1-.3zm.3-.5V65c.1.1 0 .2 0 .4zm-2.7 3.1l.2-.1.2-.2h.1l-.5.3zm37.4 12l.4.3-.4-.3zM65.3 58.9v-.3.3zm7.7 4.7l.2-.2-.2.2zm-7.8-4v-.3.3zm-.1.3l.1-.2v-.1l-.1.3zm0 .1zm6.7 5.2zm.5-.9h.1-.1zm.4-.5zm-.7.9zm-.2.5zm133.5-33.5l.2.1.2.1.2.1.2.1h.1c-.3-.3-.6-.3-.9-.4zm-22.2 16.8h.7-.7zm-2.2-.2s.1 0 0 0h.8c-.3.1-.5 0-.8 0zm-.2 0h.2-.2zm3.1.2h.6-.6zm-3.4-.3h.2-.2zm5.9-.2s.1 0 0 0l.2-.1-.2.1zm-1.9.4s.1 0 0 0h.5-.5zm2.6-.7h.2-.2zm-6.9.4h.2c0 .1-.1.1-.2 0zm-6.6 7.7l.1-.1.1-.1.1-.1c-.2 0-.3.2-.3.3zm.3-.8v-.2c.1 0 0 .1 0 .2zm-.2.4c.1 0 .1 0 0 0l.1-.2V55l-.1.4zm6.2-7.3h.3-.3zm-.6-.2l.6.2-.6-.2zm5.9.4h.2l.2-.1-.4.1zm-3.4.1h.8c-.4.1-.6 0-.8 0zm-2.3-7.6zm1.2 0zm-1.2 0zm-1.1-5.1l.4-.2-.4.2zm.9-.4l.2-.1-.2.1zm-.4.2l.2-.1-.2.1zm9.3 11.5l.1-.1.1-.1-.2.2zm.5-.6l.1-.2v-.1l-.1.3zm-.3.4c.1-.1.1-.1 0 0l.2-.2.1-.1-.3.3zm-.6.5l.3-.2-.3.2zm-.1.1l-.3.2.3-.2zm-5.1 1.1h.6-.7.1zm-9.3 7.6s.1-.1 0 0l.2-.2.1-.1-.3.3zm3.7 19h.7-.7zm-3.6-.3h.2c-.1.1-.2 0-.2 0zm-.3-.1l.2.1h.1l-.3-.1zm.5.2c.1 0 .1 0 0 0h.9-.9zm6-39.8l.1-.1-.1.1zm-1 39.8l.4-.1.3-.1-.7.2zm-5.8-.2l.2.1h.1l-.3-.1zm5 .4h.3l.3-.1h.1l-.7.1zm-5.4-.5l.2.1h.1l-.3-.1zm7.7-.1l.5-.2-.5.2zm-15.8 11l.1-.2.1-.2.1-.2-.3.6zm-.3.5s.1-.1 0 0l.2-.3.1-.2-.3.5zm.8-1.5v-.3.3zm6.9-10.2l.7.3-.7-.3zm1.3-17.9l.1-.1.1-.1-.2.2zM164.5 85l.1-.1v-.3l-.1.4zm6.9-27.6l.4-.2-.4.2zm0 0zm3.1 17.6h.8c-.3.1-.6.1-.8 0-.1 0-.1 0 0 0zm-2.1-18.1l.2-.2-.2.2zm-.5.2l.3-.2-.3.2zm.8-.5l.2-.2-.2.2zm2.7 18.5h.6-.8.2zm5.1-.9l.4-.2.1-.1c-.2.2-.3.3-.5.3zm2.2-1.9l.1-.1.1-.1.1-.1-.3.3zm-6.5 2.9h.6-.8.2zm5.9-2.1l.2-.2.1-.2-.3.4zm.3-.4l.1-.1.1-.2.1-.2-.3.5zm-.9.9l-.4.3.4-.3zm.1-.1l.4-.3-.4.3zm9.8-45c.1 0 .1 0 0 0 .1 0 0 0 0 0zm22.3 2.1l.1-.2v-.1l-.1.3zm2.5-5.7l1.1.3-1.1-.3zm-4.9 7.1s.1 0 0 0l-.5.1h.3l.2-.1zm6-6.9c.1 0 .1.1 0 0h.2c0 .1-.1.1-.2 0zm.6.1c.1 0 .1.1 0 0h.2c0 .1-.1.1-.2 0zm-.4 0h.2-.2zm.2 0h.2-.2zm-4.4 5.9c.1 0 .1 0 0 0l.1-.1.1-.1-.2.2zm-1.1.7l-.3.1h.1l.2-.1zm-.7.2h.3-.3zm1.1-.4l-.3.1.3-.1zm6.1-6.3l-.6-.1h.5l.1.1zm-5.1 5.5l.1-.2-.1.2zm-.7.7l.1-.1-.2.1h.1c-.1 0-.1 0 0 0zm.1-.1c0-.1.1-.1 0 0 .1-.1.1-.1 0 0l.1-.1.1-.1-.2.2zm10.5-6.7l-.2.1.2-.1zm-.8.3l.1-.1-.1.1c-.1.1-.1.1 0 0zm.5-.2l-.3.1.3-.1c-.1.1 0 0 0 0zm.6-.4l-.2.2.2-.2zm.2-.2l-.2.2.2-.2zm.2-.2l-.1.2v-.1l.1-.1c-.1 0 0 0 0 0zm-2.7 1.3s.1 0 0 0h-.4.4c-.1 0 0 0 0 0zm-1 .1h-.6.6zm-.5 0h-.6.6zm-40.4 9.5c.1 0 .1 0 0 0l.2-.2-.2.2zm42-9.6s.1 0 0 0h.4c-.1-.1-.2 0-.4 0zm.6-.1l.2-.1-.2.1zm-2.8.2h-.6.6c-.1 0-.1 0 0 0-.1 0 0 0 0 0zm1.6 0s.1 0 0 0h-.4.4c-.1 0-.1 0 0 0-.1 0 0 0 0 0zm-35 3.5s.1 0 0 0h.2-.2zm.2 0h.8c-.2.1-.5.1-.8 0zm1.9.2h.9-.9zm22.6 3c.1 0 .1 0 0 0l-.4.1h.2l.2-.1zm-20-3.4h.2l.2-.1-.4.1zm-1.7.3h.9-.9zm.8-.1h.4l.2-.1-.6.1zm-9.6 5.3l.1-.1v-.2l-.1.3zm-16.6 52.2l.1-.1.2-.2.1-.1-.4.4zm16.3-51.7l.1-.1.1-.1.1-.1.1-.1v-.1l-.2.3-.2.2zm5.8-5.9c.1 0 .1.1 0 0h.2c0 .1-.1.1-.2 0zm-5.4 5.1v-.1c.1 0 0 .1 0 .1zm5-5.2h.2c-.1.1-.2.1-.2 0zm.2.1h.2-.2zm1.7.2h.7-.7zm21.3 3.2h-.6.6c-.1 0-.1 0 0 0-.1 0-.1 0 0 0zm-.7 0l-.6-.1h.6c-.1.1-.1.1 0 .1zm-1.5-.3h1-1c-.1 0-.1 0 0 0zm2.8.4h-.6.6c-.1 0-.1 0 0 0zm-17.2-4c.1-.1.1-.1 0 0 .1-.1 0-.1 0 0zm18.3 3.9s.1 0 0 0h-.5.5zm-.5 0h-.6.6zm-91.8 29.6c-.1 0-.1 0 0 0zm85-31.2zm-.8-.6zm1.4.9l-.1-.1.1.1zm1 .5l.8.3-.8-.3zm-.8-.3l.3.1.3.1-.6-.2zM78.6 147.8l-.2.1.2-.1zm29.3-22.8h.8c-.3-.1-.5 0-.8 0zm-.8.1h.8c-.3-.1-.5 0-.8 0zm-.8 0h.8-.8zm-.8 0h.9-.9zm4.8-.6l.7-.3-.7.3zm-.8.2l.4-.1.3-.1-.7.2zm-.8.2l.4-.1.3-.1-.7.2zm-4.8-.1l.3.1h.4l-.7-.1zm-1.5-.4s.1 0 0 0l.2.1h.1l-.3-.1zm.4.1h.4c-.2.1-.3.1-.4 0zm-.7-.2l.2.1h.1l-.3-.1zm1 .3l.2.1h.2l.2.1h.1l-.7-.2zm-1.3-.5l.2.1.1.1-.3-.2zm31.1 8.4l.1.1.4.3-.5-.4zm-21.7-8.4l.4-.2h.1l-.5.2zm19 4.2l.2.5-.2-.6v.1zm.7 1.7l-.3-.5.1.1.2.4zm-.4-1l.1.3-.2-.5v.1l.1.1zm.6 1.3l.3.4a2 2 0 0 0-.4-.6l.1.2zm.3.5l.1.1.2.3-.3-.4zm1.1 1.2l.4.4-.5-.5.1.1c-.1-.1-.1-.1 0 0-.1 0-.1 0 0 0zm-.2-.2l-.4-.5.4.5zm-2.4-5.2v.3l.1.3-.1-.6zm-16-4c.1 0 .1-.1 0 0l.4-.3-.4.3zm-1.2.8l.2-.1.2-.1-.4.2zm-.7.4l.4-.2-.4.2zm1.7-1l-.4.3.4-.3zm16.1 3.4v.4c.1-.1 0-.3 0-.4zm33.5-39.5l.2-.2-.2.2zM104.7 125h.7-.7zm-28.1 23.5h.1l.3-.1-.4.1zm-.5.1h.4c-.2-.1-.3 0-.4 0zm-.7.1s.1 0 0 0l.4-.1h.1l-.5.1zm1.8-.4l.5-.2-.5.2zm1.8-.7l.2-.1.7-.3-.9.4zm-4.2 1.2l.4-.1h.2l-.6.1zm-4.1-.1l.3.1h.2l-.5-.1zm2.9.2h.5-.5zm27.4-25.2l.8.4-.8-.4zm-28.6 25.2h.5-.5zm-1.1-.1h.6-.6zm.5.1h.6-.6zm1.2.1h.5-.5zm7.1-1.9l.8-.5.2-.1-1 .6zm-5.9 1.8h.5-.5zm13.5-11.5l-.2.9.1-.2.1-.3.1-.3-.1-.1zm-.5 1.7s.1 0 0 0l.1-.3.1-.3.1-.3-.3.9zm.5-1.8s.1 0 0 0l.1-.3v-.6l-.1.9zm.2-2.4v.7-.7zm0 1v-.3l-.1.9v-.3l.1-.3zm-.1-1.8v-.1l.1.8v-.5l-.1-.2zm-1 6l.1-.3.1-.3.1-.2v-.1l-.3.9zm-1.9 3l.2-.3.2-.3.2-.3.1-.1-.7 1zm-1.6 1.7l.4-.4.3-.3.1-.1-.8.8zm.8-.8l.2-.2.3-.3.3-.3-.8.8zm-2.1 1.8zm3.8-3.9l.1-.2.1-.2.1-.2.1-.2-.7 1 .3-.2zm-3.6 3.8c.1 0 .1-.1 0 0l.9-.7-.9.7zm4.2-4.7l.1-.1.1-.3.1-.3.1-.2-.4.9zm43.7-13.1l-.1-.5v.2l.1.3zm38.8-14.3h.1l.3-.1.3-.1a4 4 0 0 0-.7.2zm-.9.2l.4-.1.4-.1h.2l-1 .2zm5.9-3.5l.1-.2.2-.3.1-.2-.4.7zm-2.4 2.3l.5-.3.1-.1a2 2 0 0 0-.6.4zm2-1.7l.2-.3.2-.2-.4.5zm-2.7 2l.2-.1.5-.3-.7.4zm-6.8.9h.9-.9zm6.5-.8l-.6.3.6-.3zm-9 .1l.2.1h.1l-.3-.1zm.4.1l.2.1h.1l-.3-.1zm-1.3-.5l.9.4-.9-.4zm2.3.8s.1 0 0 0h.4l.2.1h.4c-.3.1-.6 0-1-.1zm-.7-.2s.1 0 0 0l.2.1h.1l-.3-.1zM151 128.7l.1-.2.1-.2-.2.4zm11.6-15.3h.4c-.2.1-.3.1-.4 0zm1.3-15.5zm-2.3-10zm0 0l.5-.3-.5.3zm1.2-.8l.3-.2-.3.2zm-.5.4l.3-.2-.3.2zm2.9 26.4h.6-1 .4zm9.5-5.2l.1-.2v-.6l-.2.8c.1.1.1.1.1 0zm-1.8 2.8l.5-.5-.5.5zm1.4-1.9l.1-.2.1-.2.1-.2v-.1c0 .2-.1.5-.3.7zm-40.2 23.8l-.6-.4.1.1.5.3zm33.1-19.5h.8l-.9.1.1-.1zm-1 0h.9-1 .1zm6.5-2.3l-.5.4.5-.4zm2.2-3.6v-.2c.1 0 0 .1 0 .2zm-35.4 27.3h.6-.6zm-.6-.1h.6-.6zm1.1.1h.5-.5zm-1.7-.2c.1 0 .1 0 0 0l.3.1h.2l-.5-.1zm3.4.2h1-1zm-.5.1h.5-.5zm-.6 0h.5-.5zm-6.4-2l.3.2.3.2h.1l-.7-.4zm1.4.8c.1.1.1.1 0 0l.4.2.3.1h.1c-.3 0-.5-.1-.8-.3zm-.7-.3l.2.1.3.2.2.1-.7-.4zm2.9 1.1s.1 0 0 0l.3.1h.2l-.5-.1zm5 .2l.4-.1.4-.1.2-.1-1 .3zm-6.4-.6l.2.1.2.1.2.1.2.1.2.1-1-.5zm.8.3h.5-.5zm12.6-4l.1-.2.1-.1-.2.3zm.8-1.3l.2-.3v-.1l-.2.4zm.5-1.4c.1 0 .1 0 0 0 .1-.1.1-.1 0 0l.1-.3v-.4c.1.2 0 .5-.1.7zm-1 2.3l.2-.3-.2.3zm.2-.4l.1-.3.1-.1-.2.4zm1.2-3.5l-.1.8v-.6l.1-.2zm-.7 2.6l.1-.1.1-.2v-.1l-.2.4zm-6.9 5.7h.1l.4-.1.4-.1-.9.2zm2-.8l.2-.1.6-.3a3 3 0 0 1-.8.4zm.9-.4l.6-.4.1-.1-.7.5zm-1.9.9l.7-.3-.7.3zm4.6-3.3l.2-.3-.2.3zm-1.1 1.1c.1 0 .1 0 0 0zm-.1.2l-.6.5.6-.5zm-53-75.1l.3.3-.3-.3zm-45 76.2a3 3 0 0 1-.7.5l.7-.5zM97.7 120l.2.5-.2-.5zm.4.7l.3.5a.5.5 0 0 1-.3-.5zm41.7-80.2h-.5.5zm.1 0l.6-.1-.6.1zm.6-.1l.5-.1-.5.1zm-42.1 81l.5.6-.5-.6zm1.9 1.9l.7.4-.7-.4zm40.2-77.6zM99 122.1l.4.4-.4-.4zm9.9-14.7c-.1 0-.1 0 0 0-.1 0-.1 0 0 0zm-9.3 15.3l.4.4-.4-.4zM65.5 136zm-.2.4zM138 40.6h.6-.6zm-72.2 94.8zm-.9 2zm.1-.4s.1-.1 0 0c.1-.1 0 0 0 0zm1-2c.1-.1.1-.1 0 0 .1-.1.1-.1 0 0zm.4-.6zm-10.8-7.7zm12.9 5.2s.1 0 0 0c.1 0 0 0 0 0zm-17.3 1l-.1.1.1-.1zm15.8.6c.1 0 .1 0 0 0 .1 0 .1 0 0 0zm1.2-1.3l-.4.4-.4.5.4-.5.4-.4zM86 39.5l-.2.1.2-.1zm33 23.4l.1.1.1.1-.2-.2zM80.4 34.5s.1 0 0 0c.1 0 0 0 0 0zm14.2 9.3l.1.1-.1-.1zm64.5 68l.5.3-.5-.3zm-.7-.6l.5.4-.5-.4zm-39-48.1l.2.1-.2-.1zm40.5 49.2l.7.4-.7-.4zM94.1 41zm-7.7-1.8l.4-.3c-.2 0-.3.2-.4.3zm-.4.3l.4-.3-.4.3zm-6.2-4.9c.1 0 .1 0 0 0 .1 0 .1 0 0 0zm1.5-4.3l.6-.1-.6.1zm49.2 92.1zm1.2-2.1l-.3.5-.5.8-.3.6.2-.5v-.1l.3-.5.2-.3.4-.5zm-1.5 2.9zm-22.5-26.1l-.6.2.6-.2zm-3.4.6h.8c-.3-.1-.5 0-.8 0zm53.3 12.9l.6.5-.6-.5zm-42.5 11l-.6.5.6-.5zm42-11.6l.4.4-.4-.4zm-.5-.7l.3.4-.3-.4zm-48.7-12.2l.5-.2-.5.2zm9.8-35.5l-.2-.2.1.1.1.1zm-12.3-23.1l.1.1-.1-.1-.1-.1.1.1zm68.7-21.7zm-57.5 13.9c-.1 0-.1 0 0 0-.1 0-.1 0 0 0zm-9.7 9c.1.1.1.1 0 0 .1.1.1.1 0 0 .1.1.1.1 0 0zm-61.4 67.4h.9-.9zm60.2-68.4l.1.1h.1l-.2-.1zm.4.2l.2.1-.2-.1zm68.4-22.7zm-16.4.4c.1 0 .1 0 0 0 .1 0 .1 0 0 0zm-51.3 23l-.1-.2.1.2zm12.9-13.8l-.8.3.4-.1.4-.2zm54.6-9.4l-.1.1.1-.1.1-.1v-.1l-.1.2zm-16.7-.1l.1.1-.1-.1zm-.3-.2l.2.1-.2-.1zm-39.4 10.3l1-.3-1 .3zm.1 31.1zm18.8-6.3l-.2-.3.2.3zm-19.6 8zm.5-1.3zM138 40.6h-.6.6zm-23.4-4.1l.5.2a.8.8 0 0 0-.5-.2zm-.4-.2l.4.2-.4-.2zm-1.1-.7l.3.2c-.2 0-.3-.1-.3-.2zm.3.3l.3.2-.3-.2zm-.4-.3l-.2-.2.2.2zm-.4-.5l.1.2-.1-.2zm-6.2 4.1l.1.1.1.1-.2-.2zM183 71.7v-.4c.1.1 0 .3 0 .4zm-44.5-19.2l.3.2-.3-.2zm-64.2 10l-.6.4-.4.4.2-.2.2-.2.6-.4c-.1 0 0 0 0 0l.6-.4-.6.4zm99.8-45.7zm-35.1 36l.5.2-.5-.2zM179.6 4l-.2.2-.1.1.1-.1.2-.2.2-.1-.2.1zm-129 102.4l.6-.2-.6.2zm-4.2.7l.8-.1-.8.1zM64.7 138zm124.1-92l.1-.2v-.2l-.1.4zm.2-40.1c0-.1.1-.1 0 0 .1-.1.1-.1 0 0l.1-.1-.1.1zm-14.5 30.4h.6-.6zm0 0h-.6.6zm-.4-19.2v.2-.2zm-6.4 15.8l.1.3-.1-.3zm-7.6-20.3zm-9.4 19.8l.5.1-.5-.1zm-13.5 19.2l.3.2-.3-.2zm-.3-.3l.2.2-.2-.2zm.7.6l.4.3-.4-.3zm.4.4l.3.2-.3-.2zm-9 18.5zM81 34.4h.1zm62.9-12.7zM131 20.4h.5-.8.3zm12.4-.8c.1-.1.1-.1 0 0l.1-.2.2-.2-.2.2-.1.2zm0 1.6zm-14.3-5.7l-.4.1.3-.1c0 .1 0 .1.1 0zm1.6-.1h.4-.4zm-1 .1h.4c-.2-.1-.3-.1-.4 0zm13.5 4.4s.1 0 0 0c.1 0 0 0 0 0zm16.5 10.8l-.1.2.1-.2zm-15.9-11.5zm4.3 11.7l.2.2-.2-.2zm.3.3l.2.2-.2-.2zm1 .7l.3.1-.3-.1zm.9.4l.4.1-.4-.1zm-1.7-.9l.2.2-.2-.2zm.4.2l.3.2-.3-.2zm-1-8.5h.5-.5zm0 0h-.1.1zm-2.1-.4h.5l-.8-.2.2.1.1.1zm5.4.2l.4-.1-.4.1zm-.1 0l-.8.1.8-.1zm-2.6.2h.5-.5zm-16.7-2.7h.6l-.8.1h.1l.1-.1zm2.2-.5l.4-.2-.4.2zm.6-.2l.6-.3-.6.3zm-1.3.4h.2l.3-.1-.5.1zm-12.7 5.2l-.3.2.1-.1.2-.1zm.3-.2l-.3.2h.1l.2-.2zm.2-.2l-.2.2.2-.2c-.1.1 0 .1 0 0zm11.7-4.7h.2l-.6.1h.2l.2-.1zm11.7 2zm3 .9h-.2.2zm-2.5-.6h-.1c.1-.1.1 0 .1 0zm2.7 8.1zm0-7.5h-.2.2zm-.5-.1s.1 0 0 0c.1 0 .1 0 0 0h-.1.1zm-.6-.1h.6l-.8-.2h.1l.1.2zm-18.2-2.7h-.2c0-.1.1-.1.2 0-.1 0-.1 0 0 0zm-8.7 5.6l.2-.1-.2.1zm8.8-5.6h-.1.1zm-.8-.2l.5.1-.5-.1zm1 .2h-.1.1zm.4.1h1.3l-1.7-.1.4.1c-.1 0 0 0 0 0z"/><path class="st0" d="M128.9 20.2c0 .1.1.1 0 0h.2c-.1.1-.2.1-.2 0zm-1.4-.3l.3.1-.3-.1zm-6.2 5l.1-.1.1-.1v-.1l-.2.3zm-.9.6l-.2.1.2-.1zm1.1-.9s.1-.1 0 0l.1-.2v-.1l-.1.3zm.3-.5v-.3.3zm.1-.2v-.1.1zm-.2.5l.1-.1v-.1l-.1.2zm46.4 47.5l-.3-.4.3.4zm2.8-7.1h.1-.1zm9.9-44.9h-1.1 1.1zm-4.2 26.7l.3.2-.3-.2zm12-32.7l.4.1-.4-.1zm-14.4 3.4l.1.2-.1-.2zm-15 36.3l.1.4-.1-.4zm-7-47zm14.6 51.6h-.7.7zm-7.6-5zm-19.6-.2l.6.2-.6-.2zm20.2-1.4zm-.2.4zm-56.1-30l.3-.2-.3.2zm.4-.4l-.2.2.2-.2zm64.7 50.9l.3.3-.3-.3zm-58.4-48.8h.1zm.2-.3zm26.4-16.7s.1 0 0 0c.1 0 0 0 0 0zM98.3 18.4zm5.6 3.2l.2-.2-.2.2zm6.5 1.8zm31.3 22zm-3.9-38.3l.3.1-.3-.1zm-26.5 15.3zm-.8.8zm.5-.5zM132 37v.1-.1zm36.2 35.1l.3.3-.3-.3zm-36.1-35.3v-.1.1zm1.1-1.6zm0 0zm35-3.8zm-.2.3zm-50.3-1.2zm14.7 5.5l.2-.3.3-.3.1-.1-.1.1-.3.3-.2.3zm15.2-6.1zm20.1 2.7v.2-.2zm-35.5 3.7zm15.3 44.9v.1-.1zm-.1.6v.1-.1zm.9-2.2l-.1.2.1-.2.4-.5-.4.5zm12.2 8.8l.4-.1-.4.1zm-1.8.5l.6-.1-.6.1zm.5-35.5v.2-.2zm7.6 4.8h.7-.7zm-40.8 13s.1 0 0 0c.1 0 0 0 0 0zm33.8-40.8l-.1.3.1-.3zM99.7 45.2h.6-.6zm12.5-11.5l.1-.3-.1.3zm0 .4v-.3.3zm.2-.9l-.1.2.1-.2.1-.1-.1.1zm.1-.2l.2-.3c-.1 0-.2.1-.2.3zm-37-4.4l-.1-.2.1.2zm6.4 1.6l.5-.1-.5.1zm30.3 4.3v-.2.2zM94.6 23.3l.4.1-.4-.1zm-19.1 5.4l.1.2-.1-.2zm17.3-6.8l-.1-.2v.1l.1.1zm.1.3l-.1-.2.1.2zm19.6 12.9l-.2-.3.2.3zm-.1-.3l-.1-.2.1.2c-.1 0 0 0 0 0zm-9.8-12.2l-.2.1.2-.1zm-24 7.6c.1 0 .1 0 0 0h.1-.1zm-.2 0s.1 0 0 0h.2-.2zm.4.1h.1-.1zm-4.5 8.8l.1.2-.1-.2zm0 .3c.1 0 .1 0 0 0 .1 0 .1 0 0 0zm.1 0l.1.2-.1-.2zm3.9-9.2h.2-.2zm-1-.3h.4c-.1.1-.3.1-.4 0zm-.9-.4l-.2-.1h.1l.1.1zm-.3-.2l-.2-.2h.1l.1.2zm1.7.8h.5-.5zm-1-.4l-.3-.2.1.1h.1l.1.1zm.4.2a.8.8 0 0 1-.4-.2h.1l.1.1.2.1zm-1.4-.8l-.2-.2.2.2zm18.1-14.3l-.3-.1h.1l.2.1zm-1.4-1.2v.1-.1zm0 .2l.1.1-.1-.1zm.8.7l-.2-.1.2.1c-.1 0-.1 0 0 0-.1 0-.1 0 0 0zm0 0l.3.1-.3-.1zm33-2.2h.2-.4.2zm-33.3 2l-.1-.1.1.1c-.1-.1-.1 0 0 0-.1 0-.1 0 0 0zm-.2-.2l-.1-.1.1.1c-.1-.1-.1-.1 0 0-.1 0-.1 0 0 0zm34.1-1.7h-.2c.1-.1.1-.1.2 0zm-19.8-4v.1c.1 0 0-.1 0-.1zm.1.2zm1.8 1.2l.4.1-.4-.1zm17.7 2.5h-.2.2zm1.2.1h-1 1zM74.7 40l-.2-.3.2.3zm19.6-16.8l.3.1-.3-.1zm-.7-.4l.2.1-.2-.1zm3.4-7.5h-1 1zm-3.9 7.1l.1.1-.1-.1zm-.1-.2l.1.1-.1-.1zm2.8-7h.1-.1zm-2.5 7.4l.2.2-.2-.2zm.7.4l.2.1-.2-.1zm.7-7.9s.1 0 0 0l-.4-.1h.2l.2.1c-.1-.1 0-.1 0 0zm-.7-.3h.3-.3zm.8.3h.5-.5zm.6.1s.1 0 0 0h.1-.1zm.2 0c.1 0 .1 0 0 0h.1-.1zm-.3 0h.1-.1zM76.7 41s.1 0 0 0l-.4-.1h.2l.2.1zm19.8 17.4l-.4-.3h.1l.1.1.2.2zm1.1-13.3h.2-.2zm50.1-14.8v-.1.1zM97.8 58.9h.6-.6zm.6.1s.1 0 0 0h.6-.6zm-.8-.2c.1 0 .1 0 0 0l-.5-.2.2.1.2.1h.1zm-1-.4l.1.1h.2l.2.1a.8.8 0 0 1-.5-.2zm-1.5-1.1l.1.1-.3-.3.2.2c-.1-.1-.1-.1 0 0zm3.2-12.1h-.1c0-.1 0-.1.1 0zM94.9 57l-.1-.2.1.2c-.1-.1-.1-.1 0 0-.1-.1-.1 0 0 0zm3-11.9h.2-.2zm1.1.1h-.6.6zm-4.5 11.1l-.1-.3.1.3zm.1.3c.1 0 .1.1 0 0l-.1-.3.1.3zm1.1 1.2l.3.2-.3-.2zm10.4.2s.1 0 0 0l.1-.1-.1.1zm-.8.4l.1-.1-.1.1zm-1.1.3l.2-.1.4-.1-.6.2zm13 1.8v.1l-.1-.3v.1l.1.1zm.2.5l-.1-.2.1.2c-.1-.1-.1-.1 0 0-.1 0 0 0 0 0zm-14.5-2l.3-.1.3-.1.3-.1-.9.3zm14.2 1v.2-.2zm-15.3-.8h.5-.5zm-1.7 0h.6-.6zm.6 0h.6-.6zm-1.2 0h.6-.6zm1.7 0c.1 0 .1 0 0 0h.6-.6zm1.2-.1h.6-.6zm-3.4 0h.6-.6zM75.8 40.7l-.3-.2.2.1.1.1c-.1-.1-.1 0 0 0zm4.5.6h1.1-1.1zm-1 .1s.1 0 0 0h1.1-1.1zm-1-.1h1.1-1.1zm3-.1h.6l.3-.1-.9.1zm2.9-.8c.1 0 .1 0 0 0l.8-.4-.8.4zm9.7 2.4zM82.5 41l.2-.1.3-.1-.5.2zm14.9 4h.2c0 .1-.1 0-.2 0zm-20-3.8h.8c-.2.1-.5 0-.8 0zm-2.2-.9l.1.1-.2-.2.1.1zm1.1.6l-.4-.2h.1l.2.1.1.1c-.1 0-.1 0 0 0zm-1.4-.8l.1.1-.1-.1c-.1-.1-.1-.1 0 0-.1-.1-.1 0 0 0zm1.9 1h.6-.6zm30.6-32.2l-.1-.2.1.2zm-24 31.8h.1l.4-.2-.5.2zm12.7 4l-.4-.1.1.1h.1c.1-.1.1-.1.2 0-.1-.1 0-.1 0 0zm-2.3-2.1zm2.3 2.1h.1l.2.1h.1l-.4-.1zm-.9-.5l.1.1-.1-.1zm1.8.7c.1.1.1.1 0 0h.4c-.1.1-.3.1-.4 0zm-.5-.1h.5-.5zm-.9-.3c.1 0 .1 0 0 0 .1 0 .1 0 0 0 .1 0 .1 0 0 0zm-1.1-.8l-.1-.1.1.1c-.1-.1-.1-.1 0 0zm-.4-.5v.1zm1.2 1.1s.1 0 0 0c.1 0 0 0 0 0zm-.3-.2l-.2-.1.2.1c-.1 0 0 0 0 0zm-.8-.7c0-.1-.1-.1 0 0-.1-.1 0-.1 0 0zm29.2-34.1zm90.9 6.5l-.1.1.1-.1c-.1 0-.1 0 0 0-.1 0 0 0 0 0zm.2-.4c.1 0 .1 0 0 0 .1 0 .1-.1 0 0l.1-.1v-.1l-.1.2zm-.1.2l-.1.2.1-.2c-.1.1-.1.1 0 0-.1.1 0 .1 0 0zm.1-.2l-.1.2.1-.2zm-.9.8l-.3.1.3-.1zm.3-.2l.1-.1-.1.1zm0 .1l-.2.1.2-.1c-.1 0-.1 0 0 0-.1 0-.1 0 0 0zm-3.2.6h-1.1 1.1zm1 0l.4-.1-.4.1zm.5-.1l.3-.1-.3.1zM188.3 6.5l.1-.1-.1.1zm.5-.3c0-.1.1-.1 0 0l.1-.1-.1.1zM214 23.9l.1.1-.1-.1zM188.5 6.4l.1-.1-.1.1zm.1-.1s.1 0 0 0l.1-.1-.1.1zm-.4.3l-.2.1.2-.1zm-4.6 12.9l-.3.1.3-.1zM188.9 6s.1 0 0 0l.1-.1-.1.1zm14.8 7.1c.1-.1.1-.1 0 0 .1-.1.1-.1 0 0 .1-.1.1-.1 0 0 .1-.1.1-.1 0 0zm-7.5-.2zM189 14l.5.1-.5-.1zm14.7-.8h-.1zm-.2.3zm-15.6-6.8l-.3.1.3-.1zm-64.2 57.5h.7-.7zm32.4 24.9h.8-.8zm2.6-.2l-.7.1.7-.1zm1.1 9.9l-.1.1.1-.1zM171 74l.6.3-.6-.3zm-10 14.2l.3-.1-.3.1zm-62-43h.6-.6zm25.4 19h.7-.7zm-24.1-19l.6-.1-.6.1zm70.1 28.5l.4.2-.4-.2zm-53-12.6l.1.2-.1-.2zm75.4-33.6l.1-.2-.1.2zm.2-.4l-.1.2.1-.2zm8.8 2.6s-.1-.1 0 0c-.1-.1 0 0 0 0zm-32.1 43.6l.5.3-.5-.3zm31.6-45.4v.1-.1zm14.1-3.3l.2.1-.2-.1zm-31.9 3.6l.1.1-.1-.1zm-5.4 19.3l.4.2-.4-.2zm.6.2l.5.2-.5-.2zm-1.2-.6l.5.2-.5-.2zm-.4-.2l.4.3-.4-.3zm2.2-42.6zm-22.1 5.4h-1 1zm-12-3.3l-.1.1.1-.1zm-9.3-.8zm9.3.8l.1-.1-.1.1zm7.2.1zm-.5.4zm0 0l.1-.1.1-.1-.1.1-.1.1zM116.4 9l.2-.2-.2.2zm-9-.1l.1.1-.1-.1zm15.7.8zm-14.4 0l.3.1-.3-.1zm8.4-1.3c-.1 0-.1.1 0 0-.1.1-.1 0 0 0zm5.8 1.5zm.2-.2zm64.5-2.9zm-64.7 3.3zm-6.2-1.3l.1-.1-.1.1zm.4-.4l.1-.2-.1.2zM163.9 4s.1.1 0 0c.1.1 0 0 0 0zm8.4.2l.2-.1-.2.1zm6.9.7V5v-.1zm.1-.6zm5.9 2.8h-1 1zm-10.7 9s.1 0 0 0c.1 0 0 0 0 0zm-9-11.4l.3.1-.3-.1zm13.7-.2zm-71.6 4.6l.1.1-.1-.1zM172.5 4l.1-.2-.1.2zm-9.3-.7zm-36.9 9zm33.6-3l2.2 3.2zM130.7 12l1.4 3.4zm44 4l-.1.1.1-.1.2-.2-.2.2zm-38.1 1.6l7.8 1.2zm14.5.5l5.6-2.4zm32.5 1.4l3.2 3.8z"/><path class="st0" d="M224.2 23.9l.1-.4c0-.4-.2-.7-.5-1.1s-.8-.7-1.3-1l-1.9-.8-2.3-.5h-.8l-3.9-3.4h.1l.2-.1.1-.1.1-.1.1-.1.1-.1.1-.1.1-.1.1-.2.1-.2.1-.3v-.2c0-.3-.1-.6-.4-.9l-1.2-.9-1.7-.7-2.1-.4-1.7-.1-1.5.1-1.2.3a2 2 0 0 0-.9.5l-7.9-1-.7-.7-1-.6-1.3-.5-1.6-.3h-.8l.1.1-.1-.1-2.9-2.9h.1l.2-.1h.1l.1-.1.1-.1.1-.1.2-.1.1-.1.1-.2.1-.2v-.3l.1-.2c.1-.3 0-.5-.2-.8s-.5-.5-.9-.7l-1.4-.6-1.8-.4-1.5-.1-1.4.1-1.2.2c-.4.1-.7.2-.9.4l-.2.1-.2.1-.1.1.1-.1.2-.2.2-.1-7.2-.5-.5-.5-.8-.5-1.1-.4-1.4-.3-1.9-.1-1.7.2-1.3.4-.8.6-.1.3v.6l.1.2.2.2-4.6 1.8h-.8l-1.5-.1-1.4.1c-.5.1-.9.1-1.3.3a3 3 0 0 0-1 .4l-7-.9-.3-.6-.7-.5-1.1-.4-1.3-.3-1.9-.1-1.8.2-1.5.5c-.4.2-.8.4-1 .7l-.3.4-.1.3V6l.1.2v.1l-5.5 2h-.8l-1.5-.1-1.5.1-1.4.3-1.2.4-6.9-.9V8c0-.2 0-.4-.2-.6a1 1 0 0 0-.6-.5l-1-.4-1.3-.3-1.9-.1-1.9.2a6 6 0 0 0-1.6.5c-.5.2-.9.4-1.2.7l-.3.4-.2.4V9l-6.3 2.1h-.7l-2-.1a12.3 12.3 0 0 0-3.8.7l-1.4.8c-.4.3-.6.6-.6.9v.7l.1.2v.1l.1.2.2.2.1.1.2.2h.1l.4.2h.1l.4.2.5.1.6.1h.6l.3 3.2-.8.3-.8.3-.7.4-.5.4-.4.4-.2.4-.1.4v.2-.1.3l-7.4 2.7h-.8c-.7-.1-1.5-.2-2.3-.1-.8 0-1.6.1-2.3.3a10.3 10.3 0 0 0-3.8 1.7c-.5.4-.8.8-.9 1.2-.1.3-.1.6 0 .8l.1.4.1.3v.1l.2.3.2.2.1.1.3.2.4.2h.1l.4.2 1.1.3h.6l-.3 4.3-1 .3-.9.4-.8.5-.7.5a4 4 0 0 0-1 1.4l-.1 1 .1.4.1.3v.1l.2.3.2.3.1.1.3.3.4.2.1.1.4.2.6.2.7.2.9.1h2l1-.1.8-.2.4-.1.6-.2.3-.1.6-.2.3-.1.8-.4 8.7 1.6v.4l.1.4.1.4v.1l.2.3v.1l.3.3.1.1.3.3.1.1.4.3h.1l.5.2.7.2.8.2h.8l.4 5.5-1 .4-1 .5-.8.6-.7.7a4 4 0 0 0-.9 1.7v.8l.1.4.1.3v.1l.1.2v.1l.2.3v.1l.2.2.1.1.2.3.3.2.5.3.1.1.6.3.7.3.8.2.5.1.5.1h2.2l.5-.1.6-.1.9-.2.4-.1.6-.2.4-.2.1-.1.7-.3.1-.1.7-.4 10.1 2.1v.4l.1.4v.1l.1.4.2.4.1.1.2.3v.1l.3.4.1.1.3.3.1.1.5.3.1.1.4.2.2.1.4.2.5.2.5.1.5.1.3.1h.8l1.6 7.2-1.1.5-1 .7-.9.8-.7.9a3 3 0 0 0-.4 1l-.2 1v1-.3.7l.1.3.1.3-10.1 6-.3-.1-.3-.1-.3-.1-.3-.1a11.5 11.5 0 0 0-5.2 0l-2.5.8c-.8.4-1.6.8-2.2 1.3l-11.5-2.8v-.8l-.1-.4-.1-.4v.3l-.1-.4c-.1-.6-.4-1.1-.7-1.6a4 4 0 0 0-1.4-1.2L82 78l-.3-.1-.3-.1h-.5l.2-7.7.6-.3.2-.1.4-.2.2-.1.3-.2.2-.1.3-.2.5-.3.4-.4.4-.4.4-.4.3-.4.3-.4.2-.4.1-.4.1-.4v-1.2l-.1-.4v.1l-.3-.9c-.3-.6-.7-1.1-1.3-1.5s-1.4-.7-2.3-.9c-.7-.2-1.5-.2-2.2-.2l-2.3.2c-.8.1-1.5.3-2.3.6a20 20 0 0 0-2.7 1.4l-.5.4-.2.2-.2.2.4-.4.6-.4.6-.4-7.9-2.2v-.1l.1-.4v-.4l-.1-.4-.1-.4v.3c-.1-.4-.2-.8-.5-1.2s-.6-.7-1.1-.9c-.5-.3-1-.5-1.7-.6-.9-.2-1.8-.3-2.8-.2s-2 .2-3 .5-2 .6-2.9 1.1-1.7 1-2.4 1.6l-.8.8-.5.8c-.1.3-.3.5-.3.8l-.1.8-11.5 5-.2-.1-.2-.1-.2-.1-.2-.1c-.9-.2-1.9-.3-3-.2a19 19 0 0 0-9.5 3.7c-.8.7-1.5 1.4-1.9 2.2-.4.7-.6 1.4-.6 2.1l.2.9.2.4.2.3.1.1.1.2.1.1.2.2.1.1.2.1.3.2.4.2.4.2.5.2.3.1h.5l-3.1 8.6-1.6.7-1.5.8-1.4.9-1.3 1.1c-1 .9-1.7 1.8-2.2 2.7s-.8 1.8-.8 2.6c0 .6.1 1.2.4 1.7l-.1-.1.2.4.2.3.1.1.2.2.1.1.2.2.1.1.3.2.3.2.4.2.4.2.5.2.6.2.6.1.7.1h1.4l.7-.1.7-.1.7-.1.7-.2.7-.2.2-.1.5-.2.3-.1.5-.2.3-.1.3-.1 1.1-.5.2-.1 1.1-.6 11.1 3.2c-.2.6-.4 1.3-.4 1.9 0 .7.1 1.3.3 1.9v-.1l.2.4.2.5.1.1.2.3.1.2.2.3.2.2.2.2.4.3.5.3.6.3.6.2.3.1.3.1h.1l.3.1h.1l-2.5 12-1.8.9-1.7 1.1-1.6 1.3-1.4 1.5a14.3 14.3 0 0 0-2.3 3.8 8.2 8.2 0 0 0-.6 3.7c.1.8.3 1.6.7 2.3l-.1-.1.2.4.3.4.1.1.2.3.1.2.2.3.1.1.3.3.4.3.5.3.5.3.6.2.7.2.8.2.8.1H40l.8-.1.8-.1.8-.2h.1l.8-.2h.1l.8-.3.2-.1.7-.3.3-.1.5-.2.3-.2.5-.3.3-.2.5-.3.3-.2.5-.3.2-.2.7-.5 14 4.7c-.2 1-.3 1.9-.2 2.8.1.8.2 1.6.5 2.3v-.1l.2.4.3.8.1.2.3.5.2.3.3.4.2.3.4.4.5.4h.1l.7.5.8.4.9.4.5.2h.1l.5.1h.1l.5.1.6.1h2.4l.5-.1.5-.1h.1l.5-.1h.2l.4-.1h.2l.4-.1h.1l.5-.2.7-.3.2-.1.4-.2.9-.5h.1l1-.6.3-.2.7-.5.2-.1.9-.7.2-.2.8-.7.8-.9.7-1 .7-1 .5-.9.4-.9.3-.9.2-.9.1-.9.1-.9v-.9l-.1-.8 13.9-9.8.3.1.3.1.3.1.3.1.8.2.8.1.8.1h1.6l.8-.1.8-.1.8-.2.7-.2.7-.3.2-.1.5-.2.3-.1.4-.2.3-.1.4-.2.3-.2.4-.3.2-.2.4-.3.2-.2.6-.5 14.7 4.3v.2l.1.6v.2l.1.5v.2l.2.6.2.6.1.2.2.4.1.2.3.6v.1l.3.5.1.2.3.4.1.1.4.5.1.1.4.4.2.1.4.3.1.1.6.4.6.4h.1l.7.3.7.3h.1l.8.3.5.1h.1l.5.1h.1l.5.1.5.1h2.2l1-.1 1-.2h.1l1-.3.1-.1.7-.3.2-.1.8-.4h.1l.8-.5.2-.1.6-.5.2-.1.6-.6.4-.5.3-.4.1-.1.2-.3.1-.1.2-.3v-.1l.2-.4v-.1l.2-.4v-.1l.2-.4.2-.5.1-.5.1-.5.1-.5v-.9.3c.1-.5.1-1.1 0-1.6l-.3-1.6-.4-1.2 10.7-8.8.3.1.3.1h.1l.3.1.3.1 1 .2 1 .1h2l.9-.1.9-.2h.1l.8-.3h.1l.6-.3.2-.1.6-.3h.1l.6-.4.2-.1.5-.4.1-.1.5-.5.1-.1.4-.5.4-.7.3-.7.2-.8v-.4l.1-.4v.1c.1-.9.1-1.9-.2-2.8a9 9 0 0 0-4.2-5.2c-1-.6-2.2-1.1-3.5-1.4l-.3-.1-.3-.1-.3-.1h-.3l-4-9.8.4-.2.2-.1.3-.2.2-.2.3-.2.2-.2.2-.2.3-.4.3-.4.3-.5.2-.5.1-.2v-1 .5l.1-.5-.1-1.1-.3-1-.3-.7 8.2-5.7.3.1.3.1.3.1.3.1.8.1.8.1h1.6l.8-.1.7-.1h.1l.7-.2.8-.3.5-.2.5-.3.1-.1.4-.3.1-.1.4-.4.1-.1.3-.4.3-.4.2-.5.2-.5v-.4l.1-.4v.5l.2-.5c.2-.7.1-1.4-.2-2.1s-.7-1.3-1.4-1.9a10.3 10.3 0 0 0-5.3-2.6l-.3-.1h-.9l-3.7-6.7.2-.1.1-.1.3-.2.2-.1.2-.2.1-.1.2-.2.3-.3.2-.3.2-.3.1-.4v-.8.1-.4l-.1-.7-.3-.7-.3-.4 6.5-4 .2.1.2.1h.5l.7.1.7.1h1.4l.6-.1.6-.1.6-.1.7-.2.2-.1.5-.2.2-.1.1-.1.3-.2.1-.1.3-.2.1-.1.3-.3.2-.3.2-.3.1-.4.1-.4v.5l.1-.4c.1-.5 0-1-.2-1.5s-.7-1-1.2-1.4-1.2-.8-2-1.1-1.6-.6-2.6-.7h-1.2l-3.4-4.8.1-.1.1-.1.2-.1.1-.1.2-.1.1-.1.2-.1.2-.2.2-.2.2-.3.1-.3v-.9l-.1-.5-.3-.5-.2-.3 5.5-3h.8l1 .1h1.8l.8-.1.6-.1.3-.1.4-.1.3-.1h.1l.4-.2h.1l.4-.3 9.1 1.4.2.3.1.1.3.3.3.3.1.1.4.3.5.3.1.1.2.1.5.2.2.1.8.3.9.2 1 .2.6.1h2.3l.5-.1.5-.1h.2l.5-.1h.1l.5-.2.3-.2.3-.2.1-.1.2-.1.1-.1.2-.2.1-.2.1-.3.1-.4v-.3l-.1-.5-.2-.5-.4-.5-.3-.3 4.5-2.7h.8l.6.1h2.6l.4-.1.3-.1.5-.1.5-.2h.1l.4-.2.2-.2.1-.1.2-.2.1-.2.1-.2h2.9zM180 40.8zM64.7 138zm-16.5-20.2zm2.4-11.4l.6-.2-.6.2zm-4.2.7l.8-.1-.8.1zh-.9.9zm9.6 17v.3-.6.3zm9 12.9s.1-.1 0 0c.1-.1 0 0 0 0zm-.1.4zm.4-1zm.2-.4zm.3-.6zm.2-.4c.1-.1.1-.1 0 0 .1-.1.1-.1 0 0zm.4-.6zm.6-.9c.1 0 .1 0 0 0 .1 0 .1 0 0 0zm.8-.8l-.4.5.4-.5.4-.4-.4.4zm.7-.8s.1 0 0 0c.1 0 0 0 0 0zm-17.3 1l-.1.1.1-.1zm4.4-6.5v.3l.2-.7v.1l-.2.3c.1 0 .1 0 0 0zm.2-.5l.1-.7v.3l-.1.4zm.2-1.3v.6-.6zm0-1.3v.3-.3zm-.1-.6v.3-.3zm-.2-.6l.1.2v.1l-.1-.3zm-5.4 11.6a3 3 0 0 1-.7.5l.7-.5zm47.8-13l.3.5a.5.5 0 0 1-.3-.5zm-.2-.2l-.2-.5.2.5zm2.4 2.8l.7.4-.7-.4zm-.2-.2l-.4-.4.4.4zm-.7-.5l-.4-.4.4.4zm-.5-.6l-.5-.6.5.6zm8.1-14.4zm-1 .2zm2.8-.4zm-.9-10.3l.5-.2-.5.2zm-.2 0l-.6.2.6-.2zm-3.4.6h.8c-.3-.1-.5 0-.8 0zm27.6 22.3zm-.5.7l-.2.3-.3.5v.1l-.2.5.3-.6.4-.8.3-.5-.3.5zm-1.2 2.5zm-.2.9zm-.2.9zm.7-2.6zm-15.4-.8l-.6.5.6-.5zm43.1-10.5l-.6-.5.6.5zm-.7-.7l-.4-.4.4.4zm-.6-.6l-.3-.4.3.4zm3 2.5l.7.4-.7-.4zm-.3-.2l-.5-.3.5.3zm-.7-.5l-.5-.4.5.4zm-39.2-48.4l-.2-.1.2.1zm-.4-.2s-.1 0 0 0l-.2-.1.2.1zm-1.6-1.4l-.1-.2-.1-.1.2.3zm-23-17.7l-.1-.1.1.1zm-14.3-9.4s.1 0 0 0c.1 0 0 0 0 0zm-.6.1c.1 0 .1 0 0 0 .1 0 .1 0 0 0zm1.2-.2s.1 0 0 0c.1 0 .1 0 0 0zm.3-4.1l.6-.1-.6.1zM94.1 41zm-7.4-2.2l-.4.3c.2 0 .3-.2.4-.3zm-.3.4l-.4.3.4-.3zm-.4.3l-.2.1.2-.1zm13.3-21.1zm-1 0zm5.8 2.9zm-.2.3l-.2.2.2-.2zm-.2.2l-.3.2c.2 0 .2-.1.3-.2zm6.5 1.9zm.2-.3zm.1-.2zm.5-.5zm.3-.3zm.3-.2zm26.5-15l-.3-.1.3.1zm-1.2-.5s-.1 0 0 0c-.1 0 0 0 0 0zm15.3-.1zm36.4 7.3l.4.1-.4-.1zM176 30.1l-.2-.1h-.6l-1.9-.1-1.8.1-1.5.4-1.2.6-8.9-1.4-.5-.9-1-.8-1.4-.6-1.7-.4h-.8l-2.3-4.1.7-.3.6-.3.5-.4.3-.4.2-.5v-.4l-.2-.4-.3-.4 5.6-2.5h.8l1.7.1 1.6-.1 1.4-.3 1.1-.5 8 1.1-.1-.2.1.2c.1.3.3.5.6.7l1 .7 1.4.5 1.7.4h1.9-1.1l3.1 3.8-.7.3-.5.3-.4.4-.2.5-.1.5.1.5.3.5.4.5-5.7 3zm.6 16.5l.3.2-.3-.2zM171 64.8h-.1.1zm-2.2.9l-.8.6-.6.7-.4.8a3 3 0 0 0-.1 1.8l.3.9.5.9.3.4-.3-.4-8.3 5.6-.3-.1-.3-.1-.3-.1-.3-.1a11.5 11.5 0 0 0-7.2.6c-.7.3-1.3.7-1.8 1.2l-12-2.4a3 3 0 0 0-.5-1.6l-1.1-1.4a10 10 0 0 0-1.7-1.1l-2.2-.8-.3-.1h-.9l-2-7.5 1-.5.9-.6.7-.7.6-.8c.2-.3.3-.5.3-.8l.1-.8-.1-.8-.3-.7 8.2-4.5-.6-.2.6.2.2.1.2.1.2.1h.2l2.2.2 2.1-.2 1.9-.5c.6-.2 1.1-.5 1.5-.8l10.4 2-.1-.4.1.4a3.8 3.8 0 0 0 1.8 2.4c.5.4 1.1.7 1.7.9.6.3 1.4.5 2.1.6l.3.1h1.6-.7l3.6 7.1c.2 0-.1.2-.4.3zm.2 7.1l-.3-.3.3.3zm-.5-.4l-.3-.3.3.3zm-8 16l.4-.1-.4.1zm-1.8.5l.6-.1-.6.1zm-11.3-7.1zm.1-.5zm1.2-2.2l-.4.5-.1.2.1-.2.4-.5zM126 71.2s.1 0 0 0c.1 0 0 0 0 0zm-.7.2zM132 37v.1-.1zm.6-1.3l.3-.3.1-.1-.1.1-.3.3-.2.3.2-.3zm.6-.5zm-1 1.1zm-.1.5v-.1.1zm1.5-1.9l-8.7-1.5v-.1l-.3-.9a2 2 0 0 0-.8-.8c-.3-.3-.8-.5-1.2-.7l-1.6-.4h-.8l-1-4 .8-.3.2-.1.2-.1.1-.1.2-.1.3-.2.3-.2.2-.2.2-.2.2-.3.1-.3.1-.3v-.6.2-.5l-.1-.1 6.5-2.6h.8l.9.1h1.7l.8-.1.6-.1.3-.1.4-.1.3-.1.4-.2.2-.1.6-.3 7.9 1.2.1.3v.1l.1.3.2.2.1.1.3.2.3.2.1.1.4.2.4.2h.1l.5.2.8.2.8.2h.8l2 3.8-.6.2-.7.4-.5.4-.4.5-.2.5v.4-.1.7l.1.3.2.3-6.5 3.1-.2-.1h-.6l-1.9-.2-1.9.1-1.7.4-1.9 1zm-16.5-4.3zm.6-.1zm1.1-.1zm48.9 2.5v-.2.2zm.5-1.5zm-.2.3zm.4-.5zm-8.6-.8l-.1.3-.1.2.1-.2.1-.3zm-10.5 1.4l-.3-.2.3.2zm-.4-.2l-.2-.2.2.2zm-.4-.3l-.2-.2.2.2zm-.2-.2l-.2-.2.2.2zm2 1.2l.4.1-.4-.1zm-.6-.3l-.3-.1.3.1zm2-9.2l-.4.1.4-.1zm-.5.1l-.8.1.8-.1zm-2.1.3h-.5.5zm-.5-.1h-.6.6zm-3-.5l.8.2h-.7l-.1-.2zm-2.2-3zm.4-.4zm-.4.4zm0 1.6zm-.2-.3zm1.1 1.1c-.1 0-.1 0 0 0-.1 0-.1 0 0 0zm-.4-.3zm-.3-.2zm.2-2.3l-.2.2-.1.1-.1.1.1-.2.3-.2zm-.5.7s-.1 0 0 0c-.1 0-.1 0 0 0-.1 0-.1 0 0 0-.1 0 0 0 0 0zm-.1.2zm-14.1-4.6h-.1l-.3.1.4-.1zm1-.1c-.1 0-.1 0 0 0l-.4.1.4-.1zm1-.1h-.4c.1.1.3.1.4 0zm1.4 5h-.9.9zm-.9.1h-.7.7zm-.8 0s-.1 0 0 0H129h1.8zm-2.3-.2c-.1 0-.1 0 0 0h-.2l-.5-.1.5.1c0-.1.1-.1.2 0zm.4 0c-.1 0-.1 0 0 0h-.2.2zm-.2 0c-.1 0-.1 0 0 0h-.1.1zm-.9-.2l-.3-.1.3.1zm-5.9 3.7v.1-.1zm0 .2v.2c-.1 0 0-.1 0-.2zm-.1.3l-.1.2.1-.2zm-.1.2c-.1 0-.1 0 0 0l-.1.1v.2l-.1.1-.1.1-.1.1.2-.2.2-.4zm-1.3 1.1l-.2.1.2-.1zm-.6.3l.2-.1-.2.1zm.6-.3l.3-.2-.1.1-.2.1zm.3-.2l.3-.2-.1.1-.2.1c.1 0 .1 0 0 0zm.3-.2l.2-.2-.1.1-.1.1c.1-.1.1 0 0 0zm11.5-4.8l.6-.1h-.4l-.2.1zm.9-.2l.4-.1-.3.1h-.1zm.7-.2l.4-.2-.4.2zm.6-.2l.6-.3-.6.3zm9.9 2.5zm.4.2h.1c0 .1 0 0-.1 0zm1.4.5l.8.2h.2-1c.1-.2.1-.2 0-.2zm1 .2h.2-.2zm.2 0h.2-.2c.1 0 .1 0 0 0zm.3 7.5c-.1 0-.1 0 0 0-.1-.1-.1-.1 0 0-.1-.1-.1 0 0 0zm-.2-.3v-.1.1zm-.1-.3v-.1.1zm19.9 28.2h-.7.7zm-8.3-4.6v-.2.2zm0-.4zm.6-1.6zm-.2.4zm.5-.7zm-17.7-5.9c-.1 0-.1 0 0 0-.1 0-.1 0 0 0zm-.7 0zm-.6.1zm-.6-5.1l.5-.1-.5.1zm-.1 0l-.6.1.6-.1zm-.6.1h-.5.5zm.7 5.2zm-1.9-5.1h-.6.6zm1.3 5.2zm-.9 7l.5.2-.5-.2zm-.1-.1l-.3-.2c0 .1.1.2.3.2zm-.5-.2l-.3-.2.3.2zm-.5-.3l-.4-.3.4.3zm-.4-.3l-.3-.2.3.2zm-.4-.4l-.2-.2.2.2zM126.7 71zm2.3-.2zm40.1-20.9l-.3-.1-.3-.1-.3-.1-.3-.1-2.2-.2-2.1.2a7.8 7.8 0 0 0-3.2 1.3l-10.1-1.9c-.1-.4-.2-.8-.5-1.2s-.6-.7-1.1-1c-.4-.3-.9-.6-1.5-.8l-1.9-.5h-.8l-2.2-5.4.9-.4.7-.4.6-.5.4-.6.2-.6v-.6l-.1-.6-.3-.5 6.7-3.3-.5-.1.5.1h.8l1.9.2 1.8-.1 1.6-.4 1.3-.6 9 1.4-.1-.3.1.3.6.9 1.1.9c.4.3 1 .5 1.5.7l1.9.5h1.8-.6l3.4 5.1a3 3 0 0 0-.8.4l-.6.5-.5.5-.3.6-.1.6.1.6.3.6.5.6-7 4.4zm6-13.6h-.6.6zm-14-23.8zm-1 .1zm14.1 4.7v-.2c-.1 0-.1.1 0 .2zm-.1-.5zm.4-.6l-.2.2-.1.1.1-.1.2-.2zm-16.3.4zm-.5-.2l-.1-.1.1.1zm-.2-.2l-.2-.1.2.1zm-38.6 9.9l.8-.3-.4.2-.4.1-1 .3 1-.3zm-2.3 4.6c-.1 0-.1 0 0 0-.1 0-.1 0 0 0zm-9.6 9.1zm-1.6-1.2c.1 0 .1 0 0 0 .1 0 .1 0 0 0 .1 0 0 0 0 0l-.2-.1.2.1zm1.2.7s-.1 0 0 0l-.2-.2.2.2zm-.5-.4l.2.1-.2-.1zm-.2-.1c-.1 0-.1 0 0 0l-.1-.1-.1-.1.2.2zm.9.7l-.1-.1.1.1zm-1.8-1.1zm9.2-2.1l.4.2-.4-.2zm-.5-.2l-.3-.2.3.2zm-.3-.2l-.3-.2.3.2zm-.4-.3l-.2-.2.2.2zm-.3-.3l-.1-.2.1.2zm-8.3 8.9l.9-.5.8-.5.6-.6.4-.6.2-.6v-.6l-.2-.6 8-3.5-.5-.2.5.2.2.1h.6l1.9.2 1.9-.1 1.8-.4c.6-.2 1.1-.4 1.5-.7l9 1.6c0 .3.1.7.4 1l.9.9 1.4.7 1.8.5h1.4-.6l2 5.5-.9.4-.8.5-.7.6-.5.6-.3.7-.1.7.1.7.3.7.2.3-.2-.3-8.2 4.3-.2-.1-.2-.1-.2-.1-.2-.1-2.2-.2-2.2.2c-.7.1-1.4.3-2 .6-.6.2-1.2.5-1.7.9l-10-2h-.1c0-.4 0-.9-.2-1.3s-.4-.8-.8-1.1l-1.3-.9-1.8-.6h-.9l-.7-5.8.9-.4zM118 57.5zm-.8 1.7zm.5-1.3zm.7-.8zm.4-.4zm-16.7-6.3zm-.7 0zm-.5-5.3l-.6.1.6-.1zm-.6.1h-.6.6zm-.7 0H99h.6zm25.6 19h-.7.7zm-.8 0h-.7.7zm34.3 24.7l-.7.1.7-.1zm-1.7.2h-.8.8zm2.8 9.7l-.1.1.1-.1zm1.2-10.6l.3-.1-.3.1zM171 74l.6.3-.6-.3zm-.2-.1l-.4-.2.4.2zm-.6-.3l-.5-.3.5.3zm8.5-25.9l.5.2-.5-.2zm-.2-.1l-.4-.2.4.2zm-.5-.2l-.5-.2.5.2zm-.5-.3l-.4-.3c.1.2.2.3.4.3zm1.3-6.2zm4.8-12.7l-.1-.1.1.1zm17.7-.3zm.1-.1zm.2-.4zm-8.7-.2l.1-.2-.1.2zl-.1.2.1-.2zm8.9 2.5s-.1-.1 0 0c-.1-.1 0 0 0 0zm13.7-5.1l-.2-.1.2.1zm-.8-.3zm-.6-.3l-.1-.1.1.1zm-.1-3.8zm2.3-.3zm-1.9.2zm-2.2-3.5l.3-.1-.3.1zm-.1 0l-.4.1.4-.1zm1.7-.5l-.1.1.1-.1zm.4-.3s-.1.1 0 0c.1 0 0 0 0 0zm.1-.1s.1 0 0 0c.1-.1.1-.1 0 0 .1-.1.1 0 0 0 .1 0 0 0 0 0zm.2-.2c-.1.1-.1.1 0 0l.1-.1-.1.1zm.1-.3v.1-.1zm-.5.7l-.2.1.2-.1zm-.5.3l-.3.1.3-.1zm-9.1-1l1.1.6 1.5.5c.5.1 1.1.3 1.7.3h1.9-1.1l4 3.6-.6.3-.5.3-.3.4-.1.4.1.5.2.5.4.5.6.5-4.7 2.8h-.8l-1.9-.1-1.7.1-1.4.4-1 .6-9-1.3-.7-.8-1.1-.7a11.6 11.6 0 0 0-3.3-1h-.8l-3.2-3.8-.3.1.3-.1.6-.3.5-.3.4-.4.2-.4v-.8l-.1-.3-.1-.2-.2-.2-.2-.2 4.9-2.4-.5-.1.5.1h.8l1.7.1 1.5-.1 1.3-.3c.4-.1.7-.3.9-.5l8 1c-.1.2.2.4.5.7zm-8.3-2.4zm7.6.2zm-.1.2c-.1 0-.1 0 0 0-.1 0-.1 0 0 0-.1 0-.1 0 0 0-.1 0-.1 0 0 0zm-.2.2zm-15.2-6.9l.1-.1-.1.1zm.2-.1l.1-.1-.1.1zm.2-.1s-.1 0 0 0c.1-.1.1-.1 0 0zm.1-.2l.1-.1-.1.1c.1 0 0 0 0 0zm.2-.2l-.1.1v.1l.1-.2zm-.8.7l-.2.1.2-.1zm-.3.1l-.3.1.3-.1zM179.2 5v-.1.1zm0-.5zm.1-.2zm-6.7-.4l-.1.2.1-.2zm-.1.1l-.2.1.2-.1zm-6.1.9h.6l1.5.1 1.4-.1c.4-.1.9-.1 1.2-.3.4-.1.7-.2.9-.4l7.2.9.5.6.9.5 1.2.4 1.5.3h1.8-1L187 10l-.6.2-.5.3-.3.3-.2.4c0 .1-.1.3 0 .4l.1.4.3.4.4.4-4.9 2.3h-.8l-1.7-.1-1.6.1-1.3.3-1 .5-.2.2-.1.1-.1.1.1-.1.1-.1.2-.2-7.9-1.1-.5-.7-.9-.6-1.2-.5-1.5-.3h-.8l-2.2-3.2.6-.2.5-.3.4-.3.3-.3.1-.4v-.3l-.2-.3-.3-.3 4.9-2 .2-.2zm-.6-.1l-.3-.1.3.1zm-.8-.3c-.1 0-.1 0 0 0-.1 0-.1 0 0 0zm-.5-.2c-.1 0-.1 0 0 0-.1 0-.1 0 0 0zm-.5-.2s-.1-.1 0 0c-.1-.1 0 0 0 0zm-.9-1zm.1.2zm.2.2zm-2.1 3.3zm-8.8-.4c-.1 0-.1 0 0 0-.1 0-.1 0 0 0zm-.5.4l.1-.1-.1.1s-.1 0 0 0l-.1.1.1-.1zm-.2.3zm-.1.2zm-6.5-.9l.1-.1-.1.1zl-.1.1.1-.1zm-6.5.9h.6l1.5.1 1.5-.1c.5-.1.9-.1 1.3-.3l1.1-.4 7 .9v-.1.1c0 .2.2.4.4.6l.8.6 1.2.5 1.5.3h1.8-1l2.1 3.2-.6.2-.5.3-.4.3-.3.4-.1.2-.1.2v.6l.1.2.1.2.2.2-5.7 2.4h-.8l-1.7-.1-1.6.1-1.5.3-1.2.5-7.8-1.1a1 1 0 0 0-.3-.7l-.8-.6-1.1-.5c-.4-.1-.9-.3-1.5-.3h-.8l-1.4-3.4.7-.2.6-.3.5-.3.4-.4.2-.4.1-.4-.1-.4-.2-.3 5.6-2.1h.2zm-2.8-1.7zm0 .2zm.1.2zm-12.6 3.3zm-.3.4zm-.2.2zm0 .2zm-6.2-1.3l.1-.1-.1.1zm.5-.6l-.1.2.1-.2zm-.1.2c-.1 0-.1.1 0 0-.1.1-.1 0 0 0zm-.4.4l-.2.2.2-.2zm-9.2.2l-.1-.1.1.1zm.8.5c-.1 0-.1 0 0 0-.1 0-.1 0 0 0zm.4.2l.3.1-.3-.1zm-1-.5l-.1-.1.1.1zm-.3-.3l-.1-.2v-.2l.1.2c-.1.1-.1.1 0 .2zm-.3-.5v.1c.1 0 .1 0 0-.1.1.1.1.1 0 0zm-6.3 6.2l.7-.3.6-.3.5-.4.3-.4.2-.4v-.4l-.1-.4 6.4-2.2-.4-.1.4.1h.8l1.5.1 1.5-.1 1.4-.3 1.2-.4 7 1 .2.6.6.6 1 .5 1.4.3h1.8-1l1.3 3.4-.7.2-.6.3-.5.3-.4.4-.3.4-.1.4v.4l.2.4-6.6 2.6h-.8l-1.7-.1-1.7.1-1.6.3-1.4.5-7.7-1.2-.1-.8-.6-.7-1-.5-1.4-.4h-.8l-.4-3.5c.4.2.6.1.9 0zm-8.3-.8zm0-.2v.1-.1zm0 .2l.1.1-.1-.1zm.2.2l.1.1-.1-.1zm.2.2c-.1 0-.1 0 0 0zm.1.2l.2.1-.2-.1zm.3.1l.3.1-.3-.1zm.3.2l.3.1-.3-.1c.1 0 0 0 0 0zm.6.2s-.1 0 0 0c-.1 0-.1 0 0 0-.1 0-.1 0 0 0H94l.4.1-.2-.1zm.4.1h-.2l.4.1h-.1l-.1-.1c.1 0 .1 0 0 0zm.8.2c-.1 0-.1 0 0 0-.1 0-.1 0 0 0h-.6.6c-.1 0 0 0 0 0zm.1 0s-.1 0 0 0h.1-.1zm.1 0h.1-.1c.1 0 .1 0 0 0zm.4 0h-.1H97h-1zm-2.4 7.6l.2.1-.2-.1zm.7.4l.3.1-.3-.1zm-.1-.1L94 23l.2.1zm-.6-.3l-.2-.2.2.2zm-.3-.2l-.1-.1.1.1zm-.2-.2l-.1-.1.1.1zm-.3-.7l.1.2.1.2-.1-.2v-.1c-.1.1-.1 0-.1-.1zm-8.2 7.8l.9-.4.8-.4.6-.5.5-.5.3-.5.1-.5-.1-.5 7.5-2.8-.4-.1.4.1h.8l1.7.1 1.8-.1 1.7-.4 1.4-.5.2-.1-.2.1 7.8 1.2c0 .3 0 .6.2.8.1.3.4.5.7.7l1.1.6 1.5.4h.8l1 4.4-.8.3a3 3 0 0 0-.8.4l-.6.4-.5.5-.2.3-.1.1-.1.1-.1.2v.1l-.1.3v.6l.1.2v.1l.1.2.2.3-.2-.3-7.9 3.4-.2-.1-.2-.1h-.4l-1.9-.2-2 .2-1.9.4-1.7.7-8.4-1.6h-.1v.1-1.1l-.6-.9a6 6 0 0 0-2.7-1.2h-.8l.1-4.6c0 .3.4.2.7.1zm-2.2.6l-.5.1.5-.1zm-7-1.7l.1.2-.1-.2zm.1.3l.1.2-.1-.2zm.1.2l.2.2-.2-.2zm.3.3l.2.2-.2-.2zm.3.2l.2.1-.2-.1zm.3.2l.3.2-.1-.1h-.1l-.1-.1zm.6.3l-.2-.1h-.1l.4.2-.1-.1zm.4.1h-.2l.5.1h-.1l-.2-.1zm.9.2s-.1 0 0 0h-.6l.5.1.1-.1zm.1 0h.1-.1zm.1 0h.1-.1c.1 0 .1 0 0 0zm.2.1h.1-.1zm-4.4 9.1zm-.1-.3l.1.2-.1-.2zm.1.3l.1.2-.1-.2zm.1.3l.2.2-.2-.2c.1 0 0 0 0 0zm.3.3l.2.2-.2-.2zm.4.3c-.1 0-.1 0 0 0l.2.1-.2-.1zm.2.2l.4.2h-.1l-.1-.1-.2-.1zm.7.3l-.2-.1h-.1l.4.2-.1-.1zm.4.2h-.2l.5.2h-.1l-.2-.2zm1.5.3h-1.4l.6.1.9.1H78c.1-.2.1-.2 0-.2zm1.1.1h-.7 1-.3zm1-.1h-.9 1-.1zm.8 0h-.6l1-.1h-.2l-.2.1zm.7-.1h-.3l.8-.2-.3.1-.2.1zm.9-.2l.6-.2-.3.1-.3.1zm.9-.3l.6-.2-.4.2h-.2zm.9-.3l.7-.3-.7.3zm9.6 2.5zm-.1-.3zm.2.4zm.1.2zm.3.4c-.1 0-.1-.1 0 0l.1.1-.1-.1zm-.3-.3s.1 0 0 0c.1 0 0 0 0 0zm.7.7l.1.1-.1-.1c.1.1.1 0 0 0 .1 0 .1 0 0 0zm.6.3s-.1 0 0 0c-.1 0 0 0 0 0zm-.1 0l-.1-.1.1.1zm.3.2c.1 0 .1 0 0 0 .1 0 .1 0 0 0 .1 0 .1 0 0 0zm.4.1c-.1 0-.1 0 0 0-.1 0-.1 0 0 0l-.2-.1.4.1H96zm.2.1h-.1l.4.1h-.1l-.2-.1zm.5.2c-.1-.1-.1-.1 0 0h-.2l.4.1h-.1l-.1-.1zm.8.1h-.6l.5.1h.2l-.1-.1c.1.1 0 .1 0 0zm.2.1s-.1 0 0 0h.2-.2zm.2 0h.2-.2zm.4.1h-.2c.1-.1.2 0 .2 0h.7-.7zM94.4 56l.1.3v-.1l-.1-.2zm.1.4l.2.3v-.2l-.2-.1zm.2.4l.2.3-.1-.1v-.1l-.1-.1zm.2.3l.3.3-.1-.1-.2-.2zm.5.5c-.1 0-.1 0 0 0-.1-.1-.1-.1 0 0l.3.2-.3-.2zm.3.2l.3.2-.3-.2zm.4.3l.5.3-.3-.2-.2-.1zm.8.4s-.1 0 0 0c-.1 0-.1 0 0 0-.1 0-.1 0 0 0l-.2-.1-.1-.1.5.2c-.1.1-.1.1-.2 0zm.6.3l-.2-.1-.2-.1.6.2h-.2zm1.2.3s-.1 0 0 0h-1l.7.2.5.1h-.1l-.1-.3zm.5.1H99l.5.1h-.2l-.1-.1zm.7 0h-.4.6-.2zm.5 0h-.3.5-.2zm.5 0h-.3.5-.2zm.6 0h-.3.5-.2zm.4 0h-.1l.5-.1h-.2l-.2.1zm.5-.1l.5-.1h-.3l-.2.1zm.8-.1l-.3.1.9-.2-.3.1h-.3zm1-.3l.6-.2-.4.1-.2.1zm1.1-.3l.1-.1-.1.1zm.8-.4l.1-.1-.1.1c.1 0 0 0 0 0zm11 2v.2-.2zm.1.7v-.3.3zm.1 0l.1.3-.1-.3zm.1.4l.1.2-.1-.2zm.4.7l.1.2-.1-.2c.1 0 .1 0 0 0 .1 0 .1 0 0 0zm.3.2l.2.2a.2.2 0 0 1-.2-.2zm.3.3l.2.2-.2-.2zm.3.3l.2.2-.2-.2zm1.3.8c-.1-.1-.1-.1 0 0h-.2l.4.2-.2-.2zm.4.2l-.1-.1.5.2h-.1l-.3-.1zm.6.2l-.2-.1h-.1l.5.2h-.1c.1-.1 0-.1-.1-.1zm1 .2h-.6l.5.1.3.1-.2-.2zm.1 0h.2-.2zm.8.1h-.5.5l.8.1-.8-.1zm-.1 16.8l.4.2-.4-.2zm-1.2-1l-.3-.3.3.3zm-.4-.4l-.2-.3.2.3zm2.7 2.1l-.6-.3.6.3zm-1.3-.8l-.4-.3.4.3zm-.5-.4l-.4-.4.4.4zm-1.6-2.5v-.2l.1.4-.1-.2zm0 .2l.2.4.2.5-.2-.5-.2-.4zm-11 18.4l1.3-.7 1.2-.9 1-1 .8-1.1.5-1.2.2-1.2v-1.1c0-.4-.1-.7-.3-1.1l10.3-6.3.3.1.3.1.3.1.3.1a12.2 12.2 0 0 0 5.2 0 9 9 0 0 0 2.3-.8c.7-.3 1.4-.8 1.9-1.2l12.2 2.8v-.5.5c.1.6.3 1.3.6 1.8a7 7 0 0 0 1.3 1.7c.6.5 1.2 1 2 1.4s1.6.7 2.5.9l.4.1.4.1.4.1c.2.1.2 0 .4 0l3.8 10.1a8.3 8.3 0 0 0-3 2.8l-.6 1.2-.3 1.3v1.3c.1.5.1.9.3 1.3.1.4.3.9.6 1.3l.4.6-.4-.6-10.7 8.5-.4-.1-.4-.1-.4-.1-.4-.1c-1.1-.3-2.1-.4-3.2-.4a13.6 13.6 0 0 0-5.9 1.5c-.9.5-1.7 1.1-2.4 1.8l-14.3-4c0-.9-.1-1.7-.4-2.5s-.7-1.5-1.2-2.2-1.2-1.2-1.9-1.7c-.8-.5-1.6-.9-2.6-1.1l-.3-.1-.3-.1-.3-.1-.3-.1-1.2-11.1-.5.2.5-.2zm-5.3 1.2h-.9.9zm-5.5-10.9zm-.6.5l-.1.2.1-.2zm-.5.6l-.5.6.5-.6zm-.4.6zm-.4.6zm-.3.7zm-.2.6zm-8.5-7.6v.2-.4.2zm-.1-.7v.4c.1-.1 0-.3 0-.4zm0 .9v.3-.3zm-3.3 4.9l-.2.1 11.9 3c-.1.7-.1 1.4.1 2s.5 1.3.9 1.8c.4.6 1 1.1 1.7 1.5s1.5.8 2.4 1l.3.1.3.1.3.1h.3l.9.1-.9-.1.9 11.2-1.5.8-1.3 1-1.2 1.2-1 1.4-.7 1.5-.4 1.5-.1 1.5.2 1.4.2.7-.2-.7-4.4 3-9.3 6.3-.3-.2-.3-.1-.4-.1-.4-.1c-1-.3-2.1-.5-3.2-.5a13.7 13.7 0 0 0-6.7 1.7c-1.1.6-2.1 1.2-3.1 2l-13.5-4.4.1-.3.1-.6.1-.6v-1.9l-.1-.4v-.2l-.2-.5-.1-.4v.1l-.2-.5c-.3-.7-.8-1.4-1.5-1.9-.6-.5-1.4-1-2.4-1.3l-.3-.1-.4-.1-.4-.1-.4-.1 2.1-12.2-.9.3.9-.3 1.6-.8 1.5-1 1.4-1.1 1.2-1.2c.4-.4.7-.9.9-1.3.3-.4.5-.8.6-1.3l.3-1.2.1-1.2 12.9-7-.6-.3.6.3.3.1.3.1.3.1.3.1c.8.2 1.7.3 2.6.3a14 14 0 0 0 5.5-1.1c.9-.4 1.7-.8 2.4-1.3 0 .2.1.1.1.1zM40.3 99.1zm.4-.7zm.5-.7c.1 0 .1 0 0 0 .1 0 .1 0 0 0zm1.3-1.3l-.7.7.7-.7zm-13.1-.5l.2-.1-.2.1zm-.1.1l-.4.3c.1-.2.3-.2.4-.3zM28 85.3zM78.1 78s.1 0 0 0c.1 0 0 0 0 0zm-.8.2c.1 0 .1 0 0 0 .1 0 .1 0 0 0zm1.7-.3zm1.6-.2zm-4 .7h-.1c0 .1.1 0 .1 0zm3.6-8.1l.6-.1-.6.1zm-.1.1l-.6.1.6-.1zm-2.3.2H77h.8zM59.6 95.5c-.1 0-.1-.1 0 0v-.1c-.1 0-.1.1 0 .1zm-.3-.6l.1.2-.1-.2zm-.3-.5zm-.5-.5s.1.1 0 0c.1.1.1.1 0 0 .1.1.1 0 0 0zm-1-.8l.1.1-.1-.1zm.6.4s-.1 0 0 0H58h.1l.2.2-.2-.2zm11.7-6.8zm1.2 2l-.4-.4.4.4zm-.5-.5l-.3-.4.3.4zm-.3-.5zm-.3-.5l-.1-.4.1.4zm-10.3 8.6l.1.2-.1-.2zm11.9-6.7l.5.3-.5-.3zm-.1-.1a.8.8 0 0 1-.4-.4l.4.4zm12.2-19.8l-.4.2.4-.2zm.3-.2l.3-.2-.3.2zm.6-.3l.3-.2-.3.2zm.5-.3l-.2.1.5-.3h-.1l-.2.2zm.4-.4l-.1.1.4-.4-.1.1-.2.2zm1.7-1.9l-.1.1-.1.1.3-.5-.1.3c.1-.1.1 0 0 0zm.5-1.1v.3l.1-.5-.1.2zm0-.6v.4-.4zm0-.5v.6-.6zm-.1 1.5v.3l-.1.1c-.1-.1 0-.2.1-.4zm-.6 1l-.1.1-.1.1-.1.1-.1.1-.1.1-.1.1-.1.1-.1.1.4-.4.4-.4zm-.7.9l-.1.1-.1.1-.1.1.3-.3zm-3.1 2.1l-.6.3.6-.3zm-10-5.9c-.1 0-.1 0 0 0l.1-.1-.1.1zm-.4.3zm-.3.5c-.1 0-.1 0 0 0-.1 0-.1 0 0 0zm-.4.4zm-.2.5zm-6.6-5.7v.1l.1-.3v.1l-.1.1zm.1-.4v.1-.3.2zm-.1-.5zm0 1v.2c-.1.1-.1-.1 0-.2zm-15.5 3.9l-.2-.3.2.3zm.3.4l-.3-.3.3.3zm.5.4l.4.2-.4-.2zm-.1-.1l-.3-.2.3.2zM33.9 75.9l1.4-.7 1.3-.8 1.1-.9.9-.9.6-.9.4-.9.2-.9 11.7-5.2-.5-.2.5.2.2.1.2.1.2.1.2.1c.7.2 1.5.2 2.3.2l2.4-.2 2.4-.6a14.7 14.7 0 0 0 2.2-1l9.9 2.3c-.2.5-.2 1-.2 1.5.1.5.3.9.6 1.4.3.4.7.8 1.3 1.1.5.3 1.2.6 1.9.7l.3.1.3.1h.6l.8.1-.8-.1-.5 8.2-1.3.6-1.2.7-1.1.9-1 1-.4.5-.1.1-.3.4-.3.5-.2.4-.3 1.1v1l-12.7 6.7-.3-.1-.3-.1-.3-.1-.3-.1a13.3 13.3 0 0 0-5.4 0 16.1 16.1 0 0 0-5.6 2.3l-.4.3-.3.2-.3.2.3-.2.4-.3.4-.3-10.9-3.1-.3-.1c.3-.7.5-1.3.6-2 0-.6-.1-1.2-.3-1.7s-.6-1-1.1-1.4-1.1-.7-1.9-.9l-.3-.1-.3-.1-.3-.1h-.3l2.8-8.9c.4.1.9-.1 1.4-.3zm-6.6 1.6h-.8.8zm-.8 0l-.8-.1c-.3-.1 0 0 0 0h-.1.3l.6.1zm-4.3-1.9l-.1-.3.1.3zm.2.3l-.1-.1.2.3-.1-.2zm.2.3l.3.3-.2-.1-.1-.2zm.7.4l-.2-.1-.1-.1.5.3-.2-.1zm.5.3c-.1 0-.1 0 0 0-.1 0-.1 0 0 0l-.2-.1-.1-.1.6.3H24l-.2-.1zm1 .3H24l.7.2.3.1-.2-.3c.1.1.1.1 0 0zm.2.1h.2-.2zm.3 0h.2c-.1.1-.1.1-.2 0zm-.8 8.5s-.1 0 0 0h-.2.2c-.1 0 0 0 0 0zM14.3 97.1c-.1-.1-.1-.1 0 0l-.1-.1.3.4v-.1l-.2-.2zm.4.5l-.2-.2-.1-.1.4.4-.1-.1c.1.1.1.1 0 0zm.5.5l-.1-.1-.1-.1.5.4-.3-.2zm.7.4c0-.1-.1-.1 0 0l-.2-.1-.1-.1.6.3h-.1l-.2-.1zm1.2.4c-.1 0-.1 0 0 0h-.6l-.1-.1h-.1l.7.3.6.2h-.1c-.2-.4-.3-.4-.4-.4zm.6.1h-.2l.6.1h-.2l-.2-.1zm.8.1h-.4l.7.1-.3-.1zm.7.1h-.3.7-.4zm.7 0h-.3.7-.4zm.7-.1h-.3l.7-.1h-.1l-.3.1zm.6 0H21l.7-.1h-.2l-.3.1zm.6-.1l.7-.1-.3.1h-.4zm.7-.1l.7-.2-.3.1-.4.1zm.8-.2l.7-.2-.7.2zm.9-.3l.5-.2h-.1l-.4.2zm.8-.3l.5-.2-.5.2zm.7-.2l.3-.1h-.1l-.2.1zm1.5-.7l.2-.1-.2.1zm12.7 7l.1.2-.1-.2zm.4.6l-.1-.2.1.2zm.2.3l.2.2-.2-.2zm.5.5l-.2-.1.2.1c.1 0 .1 0 0 0 .1 0 .1 0 0 0 .1 0 0 0 0 0zm.3.2l-.2-.1.4.3-.2-.2zm.4.3l-.1-.1.5.3H42c-.1-.2-.2-.2-.3-.2zm.6.3l-.2-.1H42l.5.2h-.1c.1-.1 0-.1-.1-.1zm1.1.4h-.7l.6.2.3.1c0-.3-.1-.3-.2-.3.1 0 0 0 0 0zm.2 0l.3.1h-.1l-.2-.1zm.4.1h.2-.2zm.3.1h.3l.9.1-.9-.1h-.3zm-.2 11.5h-.2.1c.1.1.1 0 .1 0zM35 136.1zm-1.7-1.8l.1.2v-.1l-.1-.1c.1.1.1 0 0 0zm.3.4l.1.1-.1-.1zm.1.2c.1 0 .1 0 0 0 .1 0 .1 0 0 0zm.2.2l.1.1-.1-.1zm.2.2l.2.2-.1-.1-.1-.1zm.4.4l-.1-.1.2.2-.1-.1c.1.1.1.1 0 0zm.2.2l.3.2-.3-.2zm.4.2l.3.2-.1-.1-.2-.1zm.4.3l-.1-.1.4.2-.1-.1c-.1.1-.1.1-.2 0 .1 0 .1 0 0 0zm.4.2l.3.2h-.1l-.2-.2zm1.2.5s-.1 0 0 0l-.2-.1h-.2l-.1-.1-.1-.1-.1-.1.5.2.7.2h-.5zm.7.2l-.2-.1h-.1l.8.2h-.2l-.3-.1zm1 .1h-.4l.8.1-.4-.1zm.8.1h-.5.8-.3zm.8 0H40h.8-.4zm.9-.1h-.4l.8-.1h-.1l-.3.1zm.7-.1h-.2l.8-.1h-.2l-.4.1zm.6-.1l.8-.2-.3.1-.5.1zm.9-.2l.8-.2-.3.1-.5.1zm.9-.2l.8-.3-.8.3zm1-.4l.7-.3H46l-.6.3zm1-.4l.5-.2-.5.2zm.8-.4l.5-.3-.2.1-.3.2zm1.6-.9l.5-.3-.4.3h-.1zm-.8.5l.5-.3-.5.3zm17.1 9.3l.2.3-.1-.2-.1-.1zm.4.8l.2.3-.1-.1-.1-.2zm.4.5l.3.4-.1-.1-.1-.1-.1-.2zm.5.6l.2.2-.1-.1-.1-.1zm.4.3zm.3.3l-.2-.2.6.5h-.1l-.1-.1h-.1l-.1-.2zm.8.6l-.3-.2-.2-.1.6.4-.1-.1zm.5.3l-.3-.1H68l.7.4h-.1c0-.2-.1-.3-.2-.3zm1.5.6s-.1 0 0 0l-.2-.1h-.1l-.2-.1-.2-.1-.2-.1-.2-.1-.1-.1.8.3.5.2h-.1c.1.1 0 .1 0 .1zm.3.1l.4.1h-.2l-.2-.1zm.6.1c-.1 0-.1 0 0 0l.5.1h-.2l-.3-.1zm.8.2h-.3l.6.1-.3-.1zm.5 0h-.3.6-.3zm.5.1h-.2.5-.3zm.6 0H73h.5-.3zm.6-.1h-.2.5-.3zm.4 0l.5-.1h-.3l-.2.1zm.6-.1l.5-.1h-.2l-.3.1zm.7-.1s-.1 0 0 0l.4-.1h-.1l-.3.1zm.6-.1l.4-.1h-.2l-.2.1zm.5-.1l.4-.1-.3.1c0-.1 0 0-.1 0zm.6-.2l.5-.2-.5.2zm1.2-.4l.2-.1-.2.1zm.6-.3l.9-.5-.7.3-.2.2zm1.1-.5l1-.6-.2.1-.8.5zm2.1-1.4l.9-.7-.9.7c.1-.1.1 0 0 0zm-.9.6l.8-.5-.8.5zm2.4-1.9l-.4.4.8-.7-.1.1-.3.2zm.6-.6l-.2.2.8-.9-.3.3-.3.4zm1.1-1.3l-.2.3-.2.3.7-1-.1.1-.2.3zm1.2-1.9l-.1.3-.1.2-.1.2-.1.2-.1.2-.1.2.7-1 .5-.9-.1.2-.5.4zm.5-1l-.1.3-.1.3.4-.9v.1c-.2 0-.2.1-.2.2zm.3-1l-.1.3-.1.2v.1l.3-.9-.1.3zm.2-.5l-.1.2.2-.9v.2l-.1.3v.2zm.2-1.1v.4l.1-.9v.3l-.1.2zm.1-.5l.1-.9v.6l-.1.3zm0-.9v-.8.8zm0-1v.2l-.1-.8v.4c.1-.1.1 0 .1.2zm13.9-10.5l-.8-.4.8.4.3.1-.1-.1c-.1.1-.2.1-.2 0zm.3.2l.3.1h-.1l-.2-.1zm.4.1s-.1 0 0 0l.2.1h-.1l-.1-.1zm1 .3c-.1 0-.1 0 0 0l-.2-.1h-.6l.3.1.8.2h-.1l-.2-.2zm.7.2h-.3l.8.1h-.2l-.3-.1zm1 .1h-.4l.8.1h-.1l-.3-.1zm.7.1h-.5.8-.3zm.8 0h-.4.8-.4zm.8-.1h-.4l.8-.1h-.1l-.3.1zm.6 0h-.2l.8-.1h-.3l-.3.1zm.6-.1l.7-.2-.3.1-.4.1zm.8-.2l.7-.2-.3.1-.4.1zm.8-.2l.7-.3-.7.3zm.9-.4l.5-.2h-.1l-.4.2zm1.2-.5l-.4.2.4-.2zm.3-.2l.4-.2-.2.1-.2.1zm1.2-.8l.4-.3-.4.3c.1-.1.1 0 0 0zm-.6.4l.4-.3-.4.3zm16.5 3.3zm.3 1.6l-.1-.3v-.2l.1.5zm-.1-.6l-.1-.3v-.3l.1.6zm.2.8l.2.6-.2-.5v-.1zm.2.7l.2.5-.1-.3-.1-.2zm.5 1.2l-.2-.4-.1-.1c.2.2.3.3.3.5zm.1.1l.4.6-.3-.4-.1-.2c.1.1.1.1 0 0zm.8 1.1l-.2-.3-.1-.1.3.4zm.1.2l.4.5-.4-.5zm.5.5l.5.5-.5-.5zm1 1l-.4-.3-.1-.1.5.4zm.1.1l.6.4-.6-.4c.1 0 .1 0 0 0zm1 .6l-.2-.1.7.4h-.1l-.4-.3zm.6.4l-.2-.1h-.1l.7.4-.2-.1-.2-.2zm.9.4l-.3-.1h-.1l.7.3h-.1l-.2-.2zm1.5.5h-.3l-.2-.1-.2-.1-.2-.1-.2-.1h-.1l.8.3.5.1h-.1c.1.1.1.1 0 0zm.4.1s-.1 0 0 0l.4.1h-.2l-.2-.1zm.5.1l.5.1h-.2l-.3-.1zm.5.1l.5.1h-.3l-.2-.1zm.8.1h-.3.5-.2zm.5.1h-.2.5-.3zm.6 0h-.2.5-.3zm.5-.1h-.2.5-.3zm.9 0h-.5l1.1-.1h-.2l-.4.1zm1-.2l-.3.1h-.1l1-.2-.2.1c-.2-.1-.3 0-.4 0zm1.2-.3l-.4.1h-.1l1-.3-.5.2zm1.3-.5l-.7.3.7-.3zm.2-.2l.8-.4-.6.3-.2.1zm.9-.4l.8-.5-.1.1-.7.4zm.9-.7l.6-.5-.6.5zm.8-.6l.6-.6-.6.6zm1-1.1l.3-.3-.3.3zm.3-.4l.2-.3-.1.1-.1.2zm.3-.4l.2-.3-.2.3zm.2-.4l.2-.4-.1.1-.1.3zm.3-.5l.2-.3v.1l-.2.2zm.2-.5l-.1.1.2-.4v.1l-.1.2zm.7-2.4v.6l.1-.8-.1.2zm-.2.8v.4l-.1.2-.1.2-.1.2v.1l.2-.5.1-.6zm10.2-14.4l-.9-.4.9.4.3.1h-.1l-.2-.1zm.4.1l.3.1h-.1l-.2-.1zm.4.1s-.1 0 0 0l.2.1h-.1l-.1-.1zm1.2.4l-.2-.1h-.8l.3.1 1 .2h-.2c.1-.2 0-.2-.1-.2zm1.2.2h-.7l1 .1-.3-.1zm3.7-.2l-.3.1h-.1l.9-.2h-.2l-.3.1zm1-.2l-.3.1h-.1l.8-.3-.4.2zm.5-.2l.6-.3-.6.3zm.9-.4l.6-.3-.5.3h-.1zm.7-.3l.6-.4-.1.1c-.2 0-.4.2-.5.3zm2.2-2l-.2.3.4-.5-.2.2zm.4-.5l-.1.2.4-.7-.1.2-.2.3zm.4-.9l-.1.2-.1.2.3-.7v.1l-.1.2zm.4-1.1l.1-.4v.1l-.1.3v.6l-.1.2v.1l.1-.9zm-1.5 2.9l-.5.5h-.1l.6-.5zm-.7.6l-.5.4.5-.4zm-4.7 2.2h-1 1zm-1 .1h-1.1 1.1zm-1 0h-.9.9zm-2.1-16zm-.9.1zm-1.4-10.1l.5-.3-.5.3zm.7-.4l.3-.2-.3.2zm.5-.4l.3-.2-.3.2zm.5-.4l.2-.2-.2.2zm.4-.4l-.1.1.3-.4-.1.1-.1.2zm.4-.6l-.1.2-.1.1.3-.4-.1.1zm.2-.3l-.1.2.3-.5-.1.2-.1.1zm.4-.9l.1-.5v.2l-.1.3v.3l-.1.1.1-.4zm7.6-9.9l-.7-.3.7.3.3.1h-.1l-.2-.1zm.4.1l.2.1h-.1l-.1-.1zm.3.1h.2-.2zm1.1.2h-.8l.3.1.8.1h-.1l-.2-.2zm3.2.1h-.4l.8-.1h-.1l-.3.1zm.7-.1h-.3l.7-.1h-.1l-.3.1zm.8-.2l-.3.1h-.1l.7-.2-.3.1zm1.2-.3l.5-.2-.5.2zm.5-.3l.5-.3-.1.1-.4.2zm1.7-1.3l-.2.2.3-.4-.1.2zm.3-.3l-.1.1.3-.4-.1.2-.1.1zm.5-.8l-.1.2-.1.1-.1.1.3-.4zm-1 1.4l-.4.3.4-.3zm-.9.7l.4-.3-.4.3zm-4.2 1.2h-.7.7zm-.8.1h-.8c.2-.1.5-.1.8 0zm-.8-.1h-.9.9zm-3.9-17.7l.4-.2-.4.2zm.5-.3l.3-.2-.3.2zm.5-.2l.2-.2-.2.2zm.3-.3l.2-.2-.2.2zm.3-.3l-.1.1.3-.3-.2.2zm.3-.3s-.1.1 0 0l.2-.2-.1.1-.1.1zm.6-1.3v.5l.1-.4c-.2.1-.1 0-.1-.1zm-.3.7l-.1.1-.1.1-.1.1c.2 0 .3-.2.3-.3zm6.2-7.3l-.6-.2.6.2.2.1h-.1l-.1-.1zm.4 0c-.1 0-.1 0 0 0h.2c-.1.1-.2.1-.2 0zm.3.1c-.1 0-.1 0 0 0h.2-.2zm.9.2h-.8.3l.7.1h-.1l-.1-.1zm2.1.1h-.5.7-.2zm.6 0h-.3l.6-.1h-.1l-.2.1zm.6-.1h-.3l.6-.1h-.1l-.2.1zm1.6-.4l.2-.1-.2.1c.1 0 0 0 0 0zm.7-.3l.2-.1h-.1l-.1.1zm1.2-.8l-.1.1.3-.3-.2.2zm.2-.2l.2-.2-.1.1-.1.1zm.4-.6l-.1.1-.1.1-.1.1.3-.3zm-.8 1l-.3.2.3-.2zm-.4.3l-.3.2.3-.2zm-2 .8l-.2.1h-.3l.5-.1zm-2.5.3h-.8.8zm-.7 0h-.8c.3-.1.5 0 .8 0zm-1.8-7.7zm-1.2 0zm-1.1-5.1l.4-.2-.4.2zm.5-.2l.2-.1-.2.1zm.4-.2l.2-.1-.2.1zm.3-.2l.2-.1-.2.1zm.2-.2l.1-.1-.1.1zm.6-.9l.1-.3-.1.3v.3-.3zm-.2.5l.2-.3v.1c-.2 0-.2.1-.2.2-.1 0-.1 0 0 0l-.1.2c-.1-.1 0-.1.1-.2zm5.2-5.8h.2-.1c0 .1-.1.1-.1 0zm.2.1h.2-.2zm.3.1h.1-.1c.1 0 0 0 0 0zm1.1.1h-.9.2l1 .1h-.1l-.2-.1zm1 .1h-.5.9-.4zm.9-.1h-.8.9-.1zm.6 0h-.5l.8-.1h-.2c.1.1 0 .1-.1.1zm.6-.1h-.2l.6-.1-.2.1h-.2zm.7-.2l.4-.1-.2.1h-.2zm.7-.2s.1 0 0 0c.1 0 .1 0 0 0zm.5-.2c0-.1.1-.1 0 0 .1-.1.1-.1 0 0zm10.2 1.7zm.8.6zm-.5-.3c.1 0 .1 0 0 0 .1 0 .1 0 0 0zm1 .6l.1.1-.1-.1zm.3.2l.5.2-.3-.1-.2-.1zm1.6.6l-.8-.3.8.3zm.6.1l-.2-.1-.2-.1-.2-.1.9.2h-.1c-.1.2-.2.1-.2.1zm1.7.4h-1.7l1 .2.7.1h-.1l.1-.3zm.6 0h-.4l.6.1h-.2c.1-.1.1-.1 0-.1zm.8.1h-.5.5c.1 0 .1 0 0 0 .1 0 .1 0 0 0zm.6-.1h-.5.6-.1c.1 0 .1 0 0 0zm.4 0h-.3.6-.3zm.5 0h-.2l.5-.1h-.1l-.2.1zm.7-.1h-.3l.5-.1-.2.1zm.3-.1l.3-.1h-.1l-.2.1zm.4-.1l.3-.1-.3.1c.1-.1.1-.1 0 0 .1 0 .1 0 0 0zm.5-.2l.3-.1h-.1l-.2.1zm.6-.3l-.1.1-.1.1.2-.2zm.4-.4l-.1.1.2-.2-.1.1c.1-.1.1 0 0 0zm.1-.1l.2-.3v.1l-.2.2c.1-.1.1-.1 0 0 .1-.1.1-.1 0 0 .1-.1.1 0 0 0zm.3-.5v.3-.3zm-.5.8l-.1.1.1-.1zm4-6.1l-1.1-.3 1.1.3h.2c0 .1 0 .1-.2 0 .1.1.1 0 0 0zm.2.1h.2-.2zm.2 0h.2-.2c.1 0 .1 0 0 0zm.8.1h-.7.2l.6.1h-.1c.1-.1.1-.1 0-.1zm.7.1h-.3.6-.3c.1 0 .1 0 0 0 .1 0 .1 0 0 0zm.6 0h-.4.6-.2zm.6 0h-.3.6-.3zm.4 0h-.3.5-.2c.1 0 .1 0 0 0 .1 0 .1 0 0 0zm.5-.1h-.2l.5-.1h-.2l-.1.1zm.6-.1c-.1.1-.1.1 0 0h-.3l.4-.1-.1.1zm.3 0l.2-.1-.2.1zm.4-.1l.2-.1-.2.1zm.4-.2l.3-.1h-.1l-.2.1zm.6-.3l.2-.2-.2.2zm-.3.2l.2-.1-.2.1zm.7-.5c-.1 0-.1 0 0 0l-.1.1.1-.1zm0-.1l.1-.2-.1.2c.1-.1.1 0 0 0zm-10.6-.6zm-11.6 3.6l-9-1.3zm-.2.2zm-33.2 3.8zm.3-.3l-8.9-1.4z"/><path class="st0" d="M112.4 33.1c0-.1.1-.1 0 0 .1-.1 0-.1 0 0zm-.2 1.1v-.1.1zM132.4 36zm0 0zm-27.9 2.2l7.9-3.4zm-16.8-.6l8.4 1.5zm54.4 2.4l2.2 5.4zm18 11.3zm-50.8 3.1l10 2zM137.2 76l12 2.7zm30.5-4.5zm-97 11l.4-.5-.4.5zm-.6 1l.3-.5-.1.2-.2.3zm.5-.9l-.2.3.2-.3c.1 0 0 0 0 0zm-.6 1.1l-.1.3-.1.2-.1.3v1-.5l.3-1.1.2-.5-.2.3zm-.4 2.4v-.5.5zm-12.7 6.7l12.7-6.7-12.7 6.7zM44.3 95l.4-.3-.4.3zm-10.5-3.4l10.9 3.1zm68.7 6zm42.9 19.4l10.7-8.5zm-27.2-1.7l14.3 4zM93 122.1l4.4-3zm-37.2 4.6l13.6 4.4zm0-4.3l-.1-.2.1.4v-.2zm.2 1.5v.6-.6zm-.1-1v-.2l.1.4-.1-.2zm-.1 3.1l-.2.6v-.4c.1.1.1 0 .2-.2-.1.1 0 0 0 0z"/><linearGradient id="i" x1="37.9" x2="214.5" y1="10.1" y2="10.1" gradientUnits="userSpaceOnUse"><stop stop-color="#7ACABE" offset="0"/><stop stop-color="#43A3DA" offset="1"/></linearGradient><path d="M161.3 6.8l.3.3.2.3v.3l-.1.4-.3.3-.4.3-.5.3-.6.2 2.2 3.2h.8l1.5.3 1.2.5.9.6.5.7 7.9 1.1 1-.5 1.3-.3 1.6-.1 1.7.1h.8l4.9-2.3a.8.8 0 0 1-.4-.4l-.3-.4-.1-.4v-.4l.2-.4.3-.3.5-.3.6-.2-2.9-3.1h-.8l-1.5-.3-1.2-.4-.9-.5-.5-.6-7.2-.9-.9.4-1.2.3-1.4.1-1.5-.1h-.8l-4.9 2.2z" fill="url(#i)"/><linearGradient id="h" x1="37.9" x2="214.5" y1="12.8" y2="12.8" gradientUnits="userSpaceOnUse"><stop stop-color="#7ACABE" offset="0"/><stop stop-color="#43A3DA" offset="1"/></linearGradient><path d="M132.9 9.4l.2.3.1.4-.1.4-.2.4-.4.4-.5.3-.6.3-.7.2 1.4 3.4h.8l1.5.3 1.1.5.8.6c.2.2.3.5.3.7l7.8 1.1 1.2-.5 1.5-.3 1.6-.1 1.7.1h.8l5.7-2.4-.2-.2-.1-.2-.1-.2v-.6l.1-.2.1-.2.3-.4.4-.3.5-.3.6-.2-2.1-3.2h-.8l-1.5-.3-1.2-.5-.8-.6-.4-.6-7-.9-1.1.4-1.3.3-1.5.1-1.5-.1h-.8l-5.6 2.1z" fill="url(#h)"/><linearGradient id="g" x1="37.9" x2="214.5" y1="15.7" y2="15.7" gradientUnits="userSpaceOnUse"><stop stop-color="#7ACABE" offset="0"/><stop stop-color="#43A3DA" offset="1"/></linearGradient><path d="M100.4 18.4h.8l1.4.4 1 .5c.3.2.5.4.6.7.1.2.2.5.1.8L112 22l1.4-.5c.5-.1 1-.3 1.6-.3l1.7-.1 1.7.1h.8l6.6-2.6-.2-.4c0-.1-.1-.3 0-.4l.1-.4.3-.4.4-.4.5-.3.6-.3.7-.2-1.3-3.4h-.8l-1.4-.3-1-.5-.6-.6-.2-.6-7-1-1.2.4-1.4.3-1.5.1-1.5-.1h-.8l-6.4 2.2.1.4v.4l-.2.4-.3.4-.5.4-.6.3-.7.3-.8.2.3 3.3z" fill="url(#g)"/><linearGradient id="f" x1="37.9" x2="214.5" y1="20.3" y2="20.3" gradientUnits="userSpaceOnUse"><stop stop-color="#7ACABE" offset="0"/><stop stop-color="#43A3DA" offset="1"/></linearGradient><path d="M203.8 14.5l-8-1-.9.5-1.3.3-1.5.1-1.7-.1h-.8l-4.9 2.4.2.2.2.2.1.2.1.3v.8l-.2.4-.4.4-.5.3-.6.3 3.2 3.8h.8l1.8.4 1.5.6 1.1.7c.3.3.6.5.7.8l9 1.3 1-.6 1.4-.4 1.7-.1 1.9.1h.8l4.7-2.8-.6-.5-.4-.5-.2-.5-.1-.5.1-.4.3-.4.5-.3.6-.3-4-3.6h-.8l-1.7-.3-1.5-.5-1.1-.6-.5-.7z" fill="url(#f)"/><linearGradient id="e" x1="37.9" x2="214.5" y1="23.7" y2="23.7" gradientUnits="userSpaceOnUse"><stop stop-color="#7ACABE" offset="0"/><stop stop-color="#43A3DA" offset="1"/></linearGradient><path d="M181.3 26.7l-.3-.5-.1-.5.1-.5.2-.5.4-.4.5-.3.7-.3-3.1-3.8h-.8l-1.7-.4-1.4-.5-1-.7-.6-.7-8-1.1-1.1.5-1.4.3-1.6.1-1.7-.1h-.8l-5.6 2.5.3.4.2.4v.4l-.2.5-.3.4-.5.4-.6.3-.7.3 2.3 4.1h.8l1.7.4 1.4.6 1 .8c.3.3.4.6.5.9l8.9 1.4 1.2-.6 1.5-.4 1.8-.1 1.9.1h.6l.2.1 5.7-3-.4-.5z" fill="url(#e)"/><linearGradient id="d" x1="37.9" x2="214.5" y1="30.9" y2="30.9" gradientUnits="userSpaceOnUse"><stop stop-color="#7ACABE" offset="0"/><stop stop-color="#43A3DA" offset="1"/></linearGradient><path d="M83.5 34.4h.8l1.6.5 1.1.7.6.9v1h.1l8.4 1.6 1.7-.7 1.9-.4 2-.2 1.9.2h.4l.2.1.2.1 7.9-3.4-.1-.2v-.8l.1-.3v-.1l.1-.2.1-.1.1-.1.2-.3.5-.5.6-.4.8-.4.8-.3-1-4.4h-.8l-1.5-.4-1.1-.6-.7-.7-.2-.8-7.8-1.2-1.4.5-1.7.4-1.8.1-1.7-.1H95l-7.5 2.8.1.5-.1.5-.3.5-.5.5-.6.5-.8.4-.9.4-1 .3.1 4.1z" fill="url(#d)"/><linearGradient id="c" x1="37.9" x2="214.5" y1="41.4" y2="41.4" gradientUnits="userSpaceOnUse"><stop stop-color="#7ACABE" offset="0"/><stop stop-color="#43A3DA" offset="1"/></linearGradient><path d="M175.4 45.3l-.3-.6-.1-.6.1-.6.3-.6.5-.5.6-.5.8-.4-3.4-5.1h-1.2a10.5 10.5 0 0 1-3.4-1.2c-.4-.3-.8-.5-1.1-.9l-.6-.9-9-1.4c-.4.2-.8.5-1.3.6l-1.6.4-1.8.1-1.9-.2h-.8l-6.7 3.3.3.5.1.6v.6l-.2.6-.4.6-.6.5-.7.4-.9.4 2.2 5.4h.8a8.7 8.7 0 0 1 3.4 1.3l1.1 1c.3.4.4.8.5 1.2l10.1 1.9 1.4-.8 1.8-.5 2.1-.2a16.4 16.4 0 0 1 2.5.3l.3.1.3.1.3.1 6.8-4c0-.6-.2-.8-.3-1z" fill="url(#c)"/><linearGradient id="b" x1="37.9" x2="214.5" y1="46.1" y2="46.1" gradientUnits="userSpaceOnUse"><stop stop-color="#7ACABE" offset="0"/><stop stop-color="#43A3DA" offset="1"/></linearGradient><path d="M104.1 50.4h.9c.7.1 1.3.3 1.8.6.5.2 1 .5 1.3.9.4.3.6.7.8 1.1s.2.8.2 1.3h.1l10 2 1.7-.9 2-.6a15 15 0 0 1 4.4 0l.2.1.2.1.2.1.2.1 8.2-4.3-.3-.7-.1-.7.1-.7.3-.7.5-.6.7-.6.8-.5.9-.4-2-5.5h-.8l-1.8-.5-1.4-.7-.9-.9-.4-1-9-1.6c-.4.3-.9.5-1.5.7l-1.8.4-1.9.1-1.9-.2h-.6l-.2-.1-8 3.5.2.6v.6l-.2.6-.4.6-.6.6-.8.5-.9.5-1 .4.8 5.8z" fill="url(#b)"/><linearGradient id="a" x1="37.9" x2="214.5" y1="65.4" y2="65.4" gradientUnits="userSpaceOnUse"><stop stop-color="#7ACABE" offset="0"/><stop stop-color="#43A3DA" offset="1"/></linearGradient><path d="M169.7 65.2l-3.6-7.1h-.9l-.3-.1c-.8-.1-1.5-.4-2.1-.6l-1.7-.9-1.2-1.1c-.3-.4-.5-.8-.6-1.3l-10.4-2-1.5.8-1.9.5-2.1.2-2.2-.2h-.2l-.2-.1-.2-.1-.2-.1-8.2 4.5.3.7.1.8-.1.8-.3.8-.6.8-.7.7-.9.6-1 .5 2 7.5h.9l.3.1c.8.2 1.5.4 2.2.8.7.3 1.2.7 1.7 1.1s.9.9 1.1 1.4c.3.5.4 1.1.5 1.6l11.9 2.7c.5-.5 1.1-.8 1.8-1.2.7-.3 1.4-.6 2.2-.7.8-.2 1.6-.3 2.4-.2a12.2 12.2 0 0 1 2.9.4l.3.1.3.1.3.1 8.3-5.6-.5-.9-.3-.9-.1-.9.2-.9.4-.8.6-.7.8-.6c-.1-.2.2-.4.5-.6z" fill="url(#a)"/><linearGradient id="l" x1="37.9" x2="214.5" y1="79" y2="79" gradientUnits="userSpaceOnUse"><stop stop-color="#7ACABE" offset="0"/><stop stop-color="#43A3DA" offset="1"/></linearGradient><path d="M29.6 85.4h.3l.3.1.3.1.3.1c.8.2 1.4.5 1.9.9s.9.8 1.1 1.4a4.1 4.1 0 0 1-.3 3.7l.3.1 10.9 3.1a17.4 17.4 0 0 1 8.4-2.6c.9 0 1.8.1 2.6.3l.3.1.3.1.3.1.3.1 12.7-6.7v-1.5l.1-.3.1-.2.1-.3.1-.2.2-.3.1-.2.2-.3.1-.2.4-.5 1-1 1.1-.9 1.2-.7 1.3-.6.5-8.2h-.6l-.3-.1-.3-.1c-.8-.2-1.4-.4-1.9-.7s-1-.7-1.3-1.1-.5-.9-.6-1.4 0-1 .2-1.5l-9.9-2.3a14.7 14.7 0 0 1-4.6 1.6l-2.4.2-2.3-.2-.2-.1-.2-.1-.2-.1-.2-.1-11.7 5.2-.2.9-.4.9-.6.9-.9.9-1.1.9-1.3.8-1.4.7-1.5.6-2.6 8.7z" fill="url(#l)"/><linearGradient id="k" x1="37.9" x2="214.5" y1="99.8" y2="99.8" gradientUnits="userSpaceOnUse"><stop stop-color="#7ACABE" offset="0"/><stop stop-color="#43A3DA" offset="1"/></linearGradient><path d="M110.7 107.5l.3.1.3.1.3.1.3.1a8 8 0 0 1 4.5 2.8c.5.7.9 1.4 1.2 2.2s.4 1.6.4 2.5l14.3 4a10.8 10.8 0 0 1 5.2-2.9 12.2 12.2 0 0 1 6.3 0l.4.1.4.1.4.1.4.1 10.7-8.5-.6-1.3-.3-1.3v-1.3c0-.4.1-.9.3-1.3.1-.4.3-.9.6-1.2l.8-1.1 1-.9 1.2-.8-3.8-10.2h-.4l-.4-.1-.4-.1-.4-.1a9.2 9.2 0 0 1-4.5-2.3 6.4 6.4 0 0 1-1.9-3.5l-12.2-2.8c-.6.5-1.2.9-1.9 1.2l-2.3.8a10.9 10.9 0 0 1-5.2 0l-.3-.1-.3-.1-.3-.1-.3-.1-10.3 6.3.3 1.1v1.1l-.2 1.2a6.1 6.1 0 0 1-1.3 2.3l-1 1-1.2.9-1.3.7 1.2 11.2z" fill="url(#k)"/><linearGradient id="j" x1="37.9" x2="214.5" y1="109.5" y2="109.5" gradientUnits="userSpaceOnUse"><stop stop-color="#7ACABE" offset="0"/><stop stop-color="#43A3DA" offset="1"/></linearGradient><path d="M81.9 89.3c-.9.4-1.8.7-2.7.8a13.3 13.3 0 0 1-5.4 0l-.3-.1-.3-.1-.3-.1-.3-.1-12.9 7-.1 1.2-.3 1.2-.6 1.3-.9 1.3-1.2 1.2-1.4 1.1-1.5 1-1.6.8L50 118l.4.1.4.1.4.1.3.1a7 7 0 0 1 2.4 1.3c.7.5 1.2 1.2 1.5 1.9l.2.5v-.1l.1.4.2.5v.2l.1.4v1.9l-.1.6-.1.6-.1.3 13.5 4.4c.9-.8 2-1.5 3.1-2a12.7 12.7 0 0 1 9.9-1.2l.4.1.4.1.3.1.3.2 9.3-6.3 4.4-3-.2-1.4.1-1.5.4-1.5.7-1.5 1-1.4 1.2-1.2 1.3-1 1.5-.8-.9-11.2h-.3l-.3-.1-.3-.1-.3-.1c-.9-.2-1.7-.6-2.4-1s-1.2-.9-1.7-1.5l-.9-1.8c-.2-.6-.2-1.3-.1-2l-11.9-3-2.3 1.1z" fill="url(#j)"/><path class="st0" d="M56 124.8v-.2l-.1.6v-.2l.1-.2zm-.1.6v-.1l-.1.7v-.1l.1-.3v-.2zm.1-1.9v-.1.4-.3zm7.5 70.5h8.7v11.4l-1.4.8c-.6.2-1.1.5-1.8.6l-2 .4-2 .1c-1.7 0-3.2-.3-4.6-.8s-2.6-1.3-3.6-2.4-1.8-2.5-2.4-4.2-.9-3.7-.9-6c0-2.4.3-4.4 1-6.1s1.6-3.1 2.7-4.2a10.7 10.7 0 0 1 7.8-3.1l3.7.2 2.4.6-.8 2.7c-1.2-.6-2.9-.9-5.1-.9-1 0-2.1.2-3.1.5-1 .4-1.9 1-2.8 1.8-.8.8-1.5 1.9-2 3.3s-.8 3-.8 5c0 1.8.2 3.4.6 4.7s1 2.4 1.8 3.3 1.7 1.5 2.7 2a9.9 9.9 0 0 0 7.5-.3v-7.2l-6-.7V194zm22.4-2.7c-.7-.2-1.4-.4-2.1-.4-1.1 0-1.9.3-2.5.9s-1 1.3-1.1 2.2v13h-3v-18.5h2.1l.6 2.3h.1c.5-.8 1-1.5 1.7-1.9a4 4 0 0 1 2.5-.7c.7 0 1.5.1 2.4.4l-.7 2.7zm3.5-1.5c.9-.6 2-1 3.3-1.3 1.2-.3 2.5-.4 3.9-.4 1.3 0 2.3.2 3.1.5s1.4.8 1.8 1.4.7 1.2.8 1.8l.2 2-.1 4.3-.1 4a21.7 21.7 0 0 0 .5 4.9h-2.2l-.8-2.6h-.2l-.8 1-1.2.9c-.5.3-1 .5-1.6.6-.6.2-1.3.3-2.1.3s-1.5-.1-2.2-.4c-.7-.2-1.3-.6-1.8-1.1s-.9-1-1.2-1.6-.4-1.4-.4-2.2c0-1.1.2-2 .7-2.7.4-.7 1.1-1.3 1.9-1.7s1.8-.7 2.9-.9 2.4-.3 3.7-.3h1l1 .1.1-2c0-1.4-.3-2.3-.8-2.9-.5-.5-1.5-.8-3-.8l-1.4.1-1.5.3-1.4.4c-.5.2-.9.3-1.2.6l-.9-2.3zm5.3 14.9a5.8 5.8 0 0 0 3.3-1l1-.9c.3-.3.5-.7.6-1v-3.1l-1.1-.1h-1.1l-2.2.1c-.7.1-1.4.2-1.9.5s-1 .6-1.3 1-.5.9-.5 1.5c0 .9.3 1.6.9 2.1.5.6 1.3.9 2.3.9zm13.4-16.3h2l.6 2.2h.1a6 6 0 0 1 5.3-2.7c2.5 0 4.3.7 5.5 2.2s1.8 3.8 1.8 7.1c0 1.6-.2 3-.6 4.2s-1 2.3-1.7 3.2-1.6 1.5-2.7 2c-1 .5-2.2.7-3.5.7l-2.2-.2a7 7 0 0 1-1.7-.6v7.7h-3v-25.8zm7.5 2.2c-1.3 0-2.3.3-3 1s-1.2 1.6-1.5 3v9.2l1.5.8c.6.2 1.3.3 2.3.3 1.7 0 3.1-.6 4.1-1.9s1.5-3.1 1.5-5.6a10.2 10.2 0 0 0-1.1-4.9 5 5 0 0 0-1.5-1.4c-.7-.4-1.5-.5-2.3-.5zM140 207v-10.6l-.2-2.5c-.1-.7-.3-1.3-.6-1.8s-.7-.8-1.2-1.1c-.5-.2-1.2-.4-2-.4-1.2 0-2.2.4-3.1 1.1-.9.8-1.5 1.7-1.8 2.9V207h-3v-26h3v9.5h.1c.6-.8 1.4-1.4 2.3-1.8.9-.5 2-.7 3.4-.7 1 0 1.9.1 2.7.4.8.2 1.4.6 1.9 1.2s.9 1.4 1.1 2.4.4 2.3.4 3.8V207h-3zm8.4-24.2a2 2 0 0 1 2.1-2.1 2 2 0 0 1 2.1 2.1c0 .6-.2 1-.6 1.4s-.9.6-1.5.6-1.1-.2-1.5-.6-.6-.8-.6-1.4zm.6 5.6h3V207h-3v-18.6zm6.8 0h2.9v-3.7l3-.9v4.5h5v2.6h-5v10.3c0 1.3.2 2.2.5 2.7s.9.8 1.6.8l1.6-.2 1.5-.5.7 2.3-2.2.8c-.8.2-1.6.3-2.6.3-1.5 0-2.6-.4-3.2-1.3s-.9-2.3-.9-4.3V191h-2.9v-2.6zm28.2 17.1c-.7.6-1.7 1.1-2.8 1.4s-2.3.5-3.6.5c-1.4 0-2.6-.2-3.7-.7a7.3 7.3 0 0 1-4.1-5.1c-.3-1.2-.5-2.5-.5-4 0-3.2.7-5.6 2.1-7.2s3.4-2.5 6-2.5c.8 0 1.7.1 2.5.3a5.4 5.4 0 0 1 3.9 3.3c.4.9.6 2.2.6 3.8l-.2 2.7h-11.9c0 1.1.1 2 .3 2.9.2.8.6 1.5 1 2.1.5.6 1.1 1 1.8 1.3a7.8 7.8 0 0 0 5.3.1c.8-.3 1.5-.6 1.9-1l1.4 2.1zm-6.4-14.9c-1.5 0-2.6.4-3.5 1.1-.9.8-1.4 2.1-1.6 3.9h9.2c0-1.9-.4-3.2-1.1-3.9s-1.7-1.1-3-1.1z"/></svg>