<?xml version="1.0" encoding="utf-8"?>
<!-- Generator: Adobe Illustrator 20.1.0, SVG Export Plug-In . SVG Version: 6.00 Build 0)  -->
<svg version="1.1" id="Layer_1" xmlns="http://www.w3.org/2000/svg" xmlns:xlink="http://www.w3.org/1999/xlink" x="0px" y="0px"
	 width="238px" height="218px" viewBox="0 0 238 218" style="enable-background:new 0 0 238 218;" xml:space="preserve">
<style type="text/css">
	.st0{fill:#FFFFFF;}
	.st1{fill:url(#SVGID_1_);}
</style>
<g>
	<path class="st0" d="M54.1,181h3.1V207h-3.1V181z"/>
	<path class="st0" d="M75.8,207v-10.6c0-1.9-0.3-3.4-0.8-4.4c-0.6-1-1.6-1.5-3.1-1.5c-1.3,0-2.4,0.4-3.2,1.1
		c-0.9,0.7-1.5,1.6-1.8,2.6V207h-3v-18.5h2.1l0.6,2.3h0.1c0.6-0.8,1.4-1.4,2.4-1.9c1-0.5,2.2-0.8,3.6-0.8c1,0,1.9,0.1,2.7,0.4
		c0.8,0.2,1.4,0.6,1.9,1.2c0.5,0.6,0.9,1.4,1.1,2.4s0.4,2.3,0.4,3.8V207H75.8z"/>
	<path class="st0" d="M95.2,183.5c-0.4-0.1-0.9-0.1-1.6-0.2c-0.7-0.1-1.4-0.1-2-0.1c-0.8,0-1.5,0.1-2,0.4s-0.8,0.6-1.1,1
		c-0.2,0.5-0.4,1-0.5,1.7c-0.1,0.7-0.1,1.4-0.1,2.2h3.8v2.6h-3.8V207h-3V191h-2.9v-2.6H85v-1c0-2.3,0.5-4,1.5-5.1
		c1-1.1,2.7-1.7,5-1.7c0.5,0,1,0,1.7,0.1s1.2,0.1,1.9,0.1c0.6,0.1,1.2,0.1,1.8,0.2c0.6,0.1,1,0.2,1.4,0.3v21.1
		c0,0.9,0.2,1.5,0.5,1.9c0.3,0.4,0.7,0.6,1.2,0.6c0.3,0,0.7,0,1.1-0.1c0.4,0,0.8-0.2,1.3-0.3l0.3,2.3c-0.2,0.1-0.4,0.2-0.7,0.3
		c-0.3,0.1-0.6,0.2-0.9,0.2c-0.3,0-0.6,0.1-1,0.1c-0.3,0-0.6,0.1-0.9,0.1c-1.1,0-2-0.3-2.8-0.9c-0.7-0.6-1.1-1.7-1.1-3.2V183.5z"/>
	<path class="st0" d="M108.4,188.4V199c0,1,0.1,1.8,0.2,2.5c0.1,0.7,0.3,1.3,0.6,1.8c0.3,0.5,0.6,0.8,1.1,1.1
		c0.5,0.2,1.1,0.4,1.8,0.4c0.7,0,1.3-0.1,1.8-0.3c0.5-0.2,1-0.5,1.4-0.9c0.4-0.4,0.8-0.8,1.1-1.3c0.3-0.5,0.6-1,0.8-1.5v-12.4h3
		v13.3c0,0.9,0,1.8,0.1,2.8c0.1,1,0.2,1.8,0.3,2.5h-2l-0.7-2.9h-0.2c-0.6,1-1.3,1.8-2.3,2.4s-2.2,1-3.7,1c-1,0-1.9-0.1-2.6-0.4
		c-0.8-0.2-1.4-0.6-1.9-1.2c-0.5-0.6-0.9-1.4-1.1-2.4s-0.4-2.3-0.4-3.8v-11.2H108.4z"/>
	<path class="st0" d="M130.5,197.5l-6.2-9h3.6l3.5,5.1l1,2.1l1.1-2.1l3.6-5.1h3.3l-6.3,8.9l6.6,9.6h-3.5l-3.9-5.6l-1.1-2.2l-1.1,2.2
		l-4,5.6h-3.3L130.5,197.5z"/>
	<path class="st0" d="M145.1,181c0.5-0.1,1-0.1,1.6-0.2c0.6,0,1.2-0.1,1.8-0.1c0.6,0,1.2,0,1.9,0c0.6,0,1.2,0,1.7,0
		c2.1,0,3.9,0.3,5.4,1c1.5,0.6,2.8,1.5,3.8,2.7c1,1.1,1.7,2.5,2.2,4.1c0.5,1.6,0.7,3.4,0.7,5.3c0,1.8-0.2,3.4-0.7,5.1
		s-1.2,3-2.2,4.3c-1,1.2-2.3,2.2-3.9,3s-3.5,1.1-5.7,1.1c-0.4,0-0.9,0-1.5,0c-0.6,0-1.3,0-1.9-0.1c-0.7,0-1.3-0.1-1.9-0.1
		c-0.6,0-1-0.1-1.2-0.1V181z M152.1,183.5c-0.3,0-0.7,0-1.1,0s-0.8,0-1.1,0s-0.7,0-1,0.1s-0.5,0-0.7,0.1v20.7c0.1,0,0.4,0,0.7,0.1
		c0.3,0,0.7,0,1.1,0c0.4,0,0.7,0,1.1,0c0.3,0,0.6,0,0.7,0c1.7,0,3.2-0.3,4.4-0.9c1.2-0.6,2.1-1.4,2.8-2.4s1.2-2.1,1.5-3.4
		c0.3-1.3,0.4-2.6,0.4-4c0-1.2-0.1-2.4-0.4-3.6c-0.3-1.2-0.7-2.3-1.4-3.3c-0.7-1-1.6-1.8-2.7-2.4S153.8,183.5,152.1,183.5z"/>
	<path class="st0" d="M184.9,187c0,0.6-0.1,1.2-0.3,1.9c-0.2,0.6-0.5,1.2-0.9,1.8s-0.9,1-1.5,1.5c-0.6,0.4-1.3,0.7-2.2,1v0.1
		c0.7,0.1,1.4,0.3,2.1,0.6c0.7,0.3,1.3,0.7,1.8,1.2c0.5,0.5,0.9,1.1,1.3,1.9c0.3,0.7,0.5,1.6,0.5,2.6c0,1.3-0.3,2.5-0.8,3.5
		c-0.6,1-1.3,1.8-2.2,2.4s-1.9,1.1-3.1,1.4c-1.2,0.3-2.3,0.4-3.6,0.4c-0.4,0-0.9,0-1.5,0c-0.6,0-1.2,0-1.8-0.1
		c-0.6,0-1.2-0.1-1.9-0.1c-0.6-0.1-1.2-0.2-1.6-0.3v-25.5c0.9-0.1,2-0.3,3.2-0.4c1.2-0.1,2.5-0.1,4-0.1c1,0,1.9,0.1,2.9,0.2
		c1,0.2,1.9,0.5,2.7,0.9c0.8,0.5,1.5,1.1,2,1.9C184.6,184.6,184.9,185.7,184.9,187z M174.3,192.4c0.4,0,0.9,0,1.5,0
		c0.6,0,1.1-0.1,1.5-0.1c0.6-0.2,1.1-0.4,1.7-0.7c0.5-0.3,1-0.6,1.4-1c0.4-0.4,0.7-0.8,1-1.3c0.2-0.5,0.4-1.1,0.4-1.6
		c0-0.8-0.2-1.5-0.5-2s-0.7-1-1.2-1.3c-0.5-0.3-1.1-0.5-1.8-0.7c-0.7-0.1-1.3-0.2-2-0.2c-0.8,0-1.6,0-2.2,0.1s-1.2,0.1-1.5,0.2v8.8
		H174.3z M176.3,204.6c0.8,0,1.6-0.1,2.3-0.3c0.7-0.2,1.4-0.5,2-0.9s1-0.9,1.4-1.5c0.3-0.6,0.5-1.3,0.5-2.1c0-1-0.2-1.8-0.6-2.4
		s-0.9-1.1-1.6-1.4s-1.4-0.6-2.2-0.7c-0.8-0.1-1.6-0.2-2.4-0.2h-3.2v9.3c0.2,0,0.4,0.1,0.7,0.1c0.3,0,0.7,0,1,0.1
		c0.4,0,0.8,0,1.1,0.1C175.7,204.6,176,204.6,176.3,204.6z"/>
</g>
<g>
	<linearGradient id="SVGID_1_" gradientUnits="userSpaceOnUse" x1="37.8613" y1="4.1387" x2="190.6618" y2="156.9392">
		<stop  offset="0" style="stop-color:#00C1FF"/>
		<stop  offset="1" style="stop-color:#0095FF"/>
	</linearGradient>
	<path class="st1" d="M199.6,101l-15.9-69.3c-0.9-3.8-4.4-7.6-8.1-8.6L102.8,0.7c-0.9-0.3-2-0.5-3-0.5c-3.2,0-6.4,1.2-8.5,3L39,51.7
		c-2.7,2.6-4.4,7.6-3.5,11.2l17,74.2c0.9,3.8,4.4,7.6,8.1,8.6l68.1,20.9c0.9,0.3,2,0.5,3,0.5c3.2,0,6.4-1.2,8.5-3l55.9-51.7
		C199,109.6,200.5,104.8,199.6,101 M110.2,17.2l49.8,15.3c2,0.6,2,1.5,0,2l-26.3,6.1c-2,0.5-4.7-0.5-6.1-1.8l-18.4-19.7
		C107.8,17.4,108.3,16.6,110.2,17.2 M141.4,106.7c0.5,2-0.8,3.2-2.7,2.6L84.7,92.6c-2-0.6-2.3-2.3-0.8-3.6l41.3-38.2
		c1.5-1.4,3-0.9,3.5,1.1L141.4,106.7z M52.5,57.7l43.8-40.7c1.5-1.4,3.8-1.4,5.3,0.2l22,23.7c1.4,1.5,1.4,3.8-0.2,5.3L79.6,86.9
		c-1.5,1.4-3.8,1.4-5.3-0.2L52.4,63C51,61.5,51.1,59.1,52.5,57.7 M63.1,122.3L51.6,71.5c-0.5-2,0.3-2.4,1.7-0.9l18.4,19.7
		c1.4,1.5,2,4.3,1.4,6.2l-7.9,25.8C64.5,124.3,63.6,124.3,63.1,122.3 M127.3,151.9l-57.1-17.6c-2-0.6-3-2.7-2.4-4.7l9.6-30.8
		c0.6-2,2.7-3,4.7-2.4l57,17.6c2,0.6,3,2.7,2.4,4.7l-9.6,30.8C131.4,151.5,129.2,152.5,127.3,151.9 M178,110.5l-38.3,35.3
		c-1.5,1.4-2.3,0.9-1.7-1.1L146,119c0.6-2,2.7-3.9,4.7-4.4l26.3-6.1C179.1,108.2,179.5,109,178,110.5 M182.3,102.9l-31.4,7.1
		c-2,0.5-4-0.8-4.4-2.7L133,49.2c-0.5-2,0.8-3.9,2.7-4.4l31.4-7.1c2-0.4,3.9,0.8,4.4,2.7L185,98.5
		C185.5,100.5,184.2,102.5,182.3,102.9"/>
</g>
</svg>
