<?xml version="1.0" encoding="utf-8"?>
<!-- Generator: Adobe Illustrator 20.1.0, SVG Export Plug-In . SVG Version: 6.00 Build 0)  -->
<svg version="1.1" id="Layer_1" xmlns="http://www.w3.org/2000/svg" xmlns:xlink="http://www.w3.org/1999/xlink" x="0px" y="0px"
	 width="238px" height="218px" viewBox="0 0 238 218" style="enable-background:new 0 0 238 218;" xml:space="preserve">
<style type="text/css">
	.st0{fill:#FFFFFF;}
	.st1{fill:#EFBF1B;}
	.st2{fill:#40BEB0;}
	.st3{fill:#0AA5DE;}
	.st4{fill:#231F20;}
	.st5{fill:#D7A229;}
	.st6{fill:#009B8F;}
</style>
<g>
	<path class="st0" d="M19.1,181h14.1v2.7h-11v8.5h10.1v2.7H22.2v9.2h11.2v2.7H19.1V181z"/>
	<path class="st0" d="M41.9,202.4c0,0.9,0.1,1.5,0.4,1.9c0.3,0.4,0.7,0.6,1.3,0.6c0.3,0,0.7,0,1-0.1c0.4,0,0.8-0.2,1.3-0.3l0.3,2.3
		c-0.4,0.2-0.9,0.4-1.6,0.5c-0.7,0.1-1.3,0.2-1.8,0.2c-1.1,0-2-0.3-2.7-0.9c-0.7-0.6-1.1-1.7-1.1-3.2V181h3V202.4z"/>
	<path class="st0" d="M49.2,189.8c0.9-0.6,2-1,3.3-1.3c1.2-0.3,2.5-0.4,3.9-0.4c1.3,0,2.3,0.2,3.1,0.5c0.8,0.3,1.4,0.8,1.8,1.4
		c0.4,0.6,0.7,1.2,0.8,1.8c0.1,0.7,0.2,1.3,0.2,2c0,1.5,0,2.9-0.1,4.3c-0.1,1.4-0.1,2.7-0.1,4c0,0.9,0,1.8,0.1,2.6
		c0.1,0.8,0.2,1.6,0.4,2.3h-2.2l-0.8-2.6h-0.2c-0.2,0.3-0.5,0.7-0.8,1c-0.3,0.3-0.7,0.6-1.2,0.9c-0.5,0.3-1,0.5-1.6,0.6
		c-0.6,0.2-1.3,0.3-2.1,0.3c-0.8,0-1.5-0.1-2.2-0.4c-0.7-0.2-1.3-0.6-1.8-1.1c-0.5-0.5-0.9-1-1.2-1.6c-0.3-0.6-0.4-1.4-0.4-2.2
		c0-1.1,0.2-2,0.7-2.7c0.4-0.7,1.1-1.3,1.9-1.7c0.8-0.4,1.8-0.7,2.9-0.9c1.1-0.2,2.4-0.3,3.7-0.3c0.3,0,0.7,0,1,0c0.3,0,0.7,0,1,0.1
		c0.1-0.7,0.1-1.4,0.1-2c0-1.4-0.3-2.3-0.8-2.9c-0.5-0.5-1.5-0.8-3-0.8c-0.4,0-0.9,0-1.4,0.1s-1,0.2-1.5,0.3c-0.5,0.1-1,0.3-1.4,0.4
		c-0.5,0.2-0.9,0.3-1.2,0.6L49.2,189.8z M54.4,204.7c0.7,0,1.3-0.1,1.9-0.3c0.5-0.2,1-0.4,1.4-0.7c0.4-0.3,0.7-0.6,1-0.9
		s0.5-0.7,0.6-1v-3.1c-0.3,0-0.7,0-1.1-0.1c-0.4,0-0.7,0-1.1,0c-0.8,0-1.5,0-2.2,0.1c-0.7,0.1-1.4,0.2-1.9,0.5s-1,0.6-1.3,1
		c-0.3,0.4-0.5,0.9-0.5,1.5c0,0.9,0.3,1.6,0.9,2.1C52.7,204.4,53.4,204.7,54.4,204.7z"/>
	<path class="st0" d="M76,201.9c0-0.7-0.2-1.3-0.7-1.7s-1-0.8-1.6-1.1c-0.7-0.3-1.4-0.6-2.1-0.8c-0.8-0.3-1.5-0.6-2.1-1
		c-0.7-0.4-1.2-0.9-1.6-1.6c-0.4-0.6-0.7-1.5-0.7-2.6c0-1.8,0.5-3.1,1.5-3.9c1-0.8,2.4-1.2,4.2-1.2c1.3,0,2.5,0.1,3.4,0.4
		c0.9,0.2,1.7,0.5,2.4,0.8l-0.7,2.4c-0.6-0.3-1.3-0.5-2.1-0.7c-0.8-0.2-1.7-0.3-2.6-0.3c-1.1,0-1.9,0.2-2.4,0.6
		c-0.5,0.4-0.8,1-0.8,1.9c0,0.6,0.2,1.1,0.7,1.5c0.4,0.4,1,0.7,1.6,1c0.7,0.3,1.4,0.6,2.1,0.8s1.5,0.6,2.1,1.1
		c0.7,0.4,1.2,1,1.6,1.7c0.4,0.7,0.7,1.6,0.7,2.7c0,0.8-0.1,1.5-0.4,2.2c-0.3,0.7-0.7,1.3-1.2,1.8c-0.5,0.5-1.2,0.9-2,1.2
		c-0.8,0.3-1.7,0.4-2.8,0.4c-1.4,0-2.6-0.1-3.6-0.4c-1-0.3-1.8-0.6-2.5-1l0.9-2.5c0.6,0.3,1.3,0.6,2.2,0.9c0.9,0.3,1.8,0.4,2.8,0.4
		c1.1,0,1.9-0.2,2.6-0.6C75.6,203.8,76,203,76,201.9z"/>
	<path class="st0" d="M81,188.4h2.9v-3.7l3-0.9v4.5h5v2.6h-5v10.3c0,1.3,0.2,2.2,0.5,2.7c0.3,0.5,0.9,0.8,1.6,0.8
		c0.6,0,1.2-0.1,1.6-0.2s0.9-0.3,1.5-0.5l0.7,2.3c-0.7,0.3-1.4,0.6-2.2,0.8c-0.8,0.2-1.6,0.3-2.6,0.3c-1.5,0-2.6-0.4-3.2-1.3
		c-0.6-0.9-0.9-2.3-0.9-4.3V191H81V188.4z"/>
	<path class="st0" d="M96,182.8c0-0.6,0.2-1.1,0.6-1.5c0.4-0.4,0.9-0.6,1.5-0.6s1.1,0.2,1.5,0.6c0.4,0.4,0.6,0.9,0.6,1.5
		c0,0.6-0.2,1-0.6,1.4c-0.4,0.4-0.9,0.6-1.5,0.6s-1.1-0.2-1.5-0.6C96.2,183.8,96,183.4,96,182.8z M96.6,188.4h3V207h-3V188.4z"/>
	<path class="st0" d="M118.5,205.7c-0.7,0.5-1.6,1-2.6,1.2c-1,0.3-2.1,0.4-3.2,0.4c-1.4,0-2.6-0.2-3.6-0.7c-1-0.5-1.8-1.1-2.4-2
		c-0.6-0.9-1.1-1.9-1.4-3.1c-0.3-1.2-0.4-2.5-0.4-4c0-3.1,0.7-5.5,2.1-7.2c1.4-1.7,3.4-2.5,6-2.5c1.2,0,2.2,0.1,3,0.3
		c0.8,0.2,1.6,0.5,2.2,0.8l-0.9,2.6c-0.6-0.3-1.2-0.6-1.9-0.8c-0.7-0.2-1.4-0.3-2.2-0.3c-3.5,0-5.3,2.4-5.3,7.1
		c0,0.9,0.1,1.8,0.3,2.7c0.2,0.9,0.5,1.6,0.9,2.3c0.4,0.7,1,1.2,1.7,1.6c0.7,0.4,1.6,0.6,2.6,0.6c0.9,0,1.7-0.1,2.4-0.4
		c0.7-0.3,1.3-0.6,1.7-0.9L118.5,205.7z"/>
	<path class="st0" d="M130.7,201.9c0-0.7-0.2-1.3-0.7-1.7s-1-0.8-1.6-1.1c-0.7-0.3-1.4-0.6-2.1-0.8c-0.8-0.3-1.5-0.6-2.1-1
		s-1.2-0.9-1.6-1.6c-0.4-0.6-0.7-1.5-0.7-2.6c0-1.8,0.5-3.1,1.5-3.9c1-0.8,2.4-1.2,4.2-1.2c1.3,0,2.5,0.1,3.4,0.4
		c0.9,0.2,1.7,0.5,2.4,0.8l-0.7,2.4c-0.6-0.3-1.3-0.5-2.1-0.7c-0.8-0.2-1.7-0.3-2.6-0.3c-1.1,0-1.9,0.2-2.4,0.6
		c-0.5,0.4-0.8,1-0.8,1.9c0,0.6,0.2,1.1,0.7,1.5c0.4,0.4,1,0.7,1.6,1c0.7,0.3,1.4,0.6,2.1,0.8c0.8,0.3,1.5,0.6,2.1,1.1
		c0.7,0.4,1.2,1,1.6,1.7c0.4,0.7,0.7,1.6,0.7,2.7c0,0.8-0.1,1.5-0.4,2.2c-0.3,0.7-0.7,1.3-1.2,1.8c-0.5,0.5-1.2,0.9-2,1.2
		c-0.8,0.3-1.7,0.4-2.8,0.4c-1.4,0-2.6-0.1-3.6-0.4c-1-0.3-1.8-0.6-2.5-1l0.9-2.5c0.6,0.3,1.3,0.6,2.2,0.9c0.9,0.3,1.8,0.4,2.8,0.4
		c1.1,0,1.9-0.2,2.6-0.6C130.4,203.8,130.7,203,130.7,201.9z"/>
	<path class="st0" d="M151.7,205.5c-0.7,0.6-1.7,1.1-2.8,1.4c-1.1,0.3-2.3,0.5-3.6,0.5c-1.4,0-2.6-0.2-3.7-0.7c-1-0.5-1.9-1.1-2.6-2
		c-0.7-0.9-1.2-1.9-1.5-3.1c-0.3-1.2-0.5-2.5-0.5-4c0-3.2,0.7-5.6,2.1-7.2s3.4-2.5,6-2.5c0.8,0,1.7,0.1,2.5,0.3
		c0.8,0.2,1.6,0.5,2.3,1.1c0.7,0.5,1.2,1.3,1.6,2.2s0.6,2.2,0.6,3.8c0,0.8-0.1,1.7-0.2,2.7h-11.9c0,1.1,0.1,2,0.3,2.9
		c0.2,0.8,0.6,1.5,1,2.1c0.5,0.6,1.1,1,1.8,1.3c0.8,0.3,1.7,0.5,2.8,0.5c0.8,0,1.7-0.1,2.5-0.4c0.8-0.3,1.5-0.6,1.9-1L151.7,205.5z
		 M145.3,190.6c-1.5,0-2.6,0.4-3.5,1.1c-0.9,0.8-1.4,2.1-1.6,3.9h9.2c0-1.9-0.4-3.2-1.1-3.9C147.7,191,146.6,190.6,145.3,190.6z"/>
	<path class="st0" d="M156.7,189.8c0.9-0.6,2-1,3.3-1.3c1.2-0.3,2.5-0.4,3.9-0.4c1.3,0,2.3,0.2,3.1,0.5c0.8,0.3,1.4,0.8,1.8,1.4
		c0.4,0.6,0.7,1.2,0.8,1.8s0.2,1.3,0.2,2c0,1.5,0,2.9-0.1,4.3s-0.1,2.7-0.1,4c0,0.9,0,1.8,0.1,2.6c0.1,0.8,0.2,1.6,0.4,2.3h-2.2
		l-0.8-2.6h-0.2c-0.2,0.3-0.5,0.7-0.8,1c-0.3,0.3-0.7,0.6-1.2,0.9c-0.5,0.3-1,0.5-1.6,0.6c-0.6,0.2-1.3,0.3-2.1,0.3
		s-1.5-0.1-2.2-0.4c-0.7-0.2-1.3-0.6-1.8-1.1c-0.5-0.5-0.9-1-1.2-1.6c-0.3-0.6-0.4-1.4-0.4-2.2c0-1.1,0.2-2,0.7-2.7s1.1-1.3,1.9-1.7
		c0.8-0.4,1.8-0.7,2.9-0.9c1.1-0.2,2.4-0.3,3.7-0.3c0.3,0,0.7,0,1,0s0.7,0,1,0.1c0.1-0.7,0.1-1.4,0.1-2c0-1.4-0.3-2.3-0.8-2.9
		c-0.5-0.5-1.5-0.8-3-0.8c-0.4,0-0.9,0-1.4,0.1s-1,0.2-1.5,0.3s-1,0.3-1.4,0.4c-0.5,0.2-0.9,0.3-1.2,0.6L156.7,189.8z M162,204.7
		c0.7,0,1.3-0.1,1.9-0.3c0.5-0.2,1-0.4,1.4-0.7c0.4-0.3,0.7-0.6,1-0.9s0.5-0.7,0.6-1v-3.1c-0.3,0-0.7,0-1.1-0.1c-0.4,0-0.7,0-1.1,0
		c-0.8,0-1.5,0-2.2,0.1c-0.7,0.1-1.4,0.2-1.9,0.5c-0.6,0.2-1,0.6-1.3,1c-0.3,0.4-0.5,0.9-0.5,1.5c0,0.9,0.3,1.6,0.9,2.1
		C160.2,204.4,161,204.7,162,204.7z"/>
	<path class="st0" d="M184.1,191.3c-0.7-0.2-1.4-0.4-2.1-0.4c-1.1,0-1.9,0.3-2.5,0.9c-0.6,0.6-1,1.3-1.1,2.2v13h-3v-18.5h2.1
		l0.6,2.3h0.1c0.5-0.8,1-1.5,1.7-1.9c0.7-0.5,1.5-0.7,2.5-0.7c0.7,0,1.5,0.1,2.4,0.4L184.1,191.3z"/>
	<path class="st0" d="M200.6,205.7c-0.7,0.5-1.6,1-2.6,1.2s-2.1,0.4-3.2,0.4c-1.4,0-2.6-0.2-3.6-0.7c-1-0.5-1.8-1.1-2.4-2
		c-0.6-0.9-1.1-1.9-1.4-3.1c-0.3-1.2-0.4-2.5-0.4-4c0-3.1,0.7-5.5,2.1-7.2c1.4-1.7,3.4-2.5,6-2.5c1.2,0,2.2,0.1,3,0.3
		c0.8,0.2,1.6,0.5,2.2,0.8l-0.9,2.6c-0.6-0.3-1.2-0.6-1.9-0.8s-1.4-0.3-2.2-0.3c-3.5,0-5.3,2.4-5.3,7.1c0,0.9,0.1,1.8,0.3,2.7
		c0.2,0.9,0.5,1.6,0.9,2.3s1,1.2,1.7,1.6c0.7,0.4,1.6,0.6,2.6,0.6c0.9,0,1.7-0.1,2.4-0.4c0.7-0.3,1.3-0.6,1.7-0.9L200.6,205.7z"/>
	<path class="st0" d="M216.5,207v-10.6c0-1-0.1-1.8-0.2-2.5s-0.3-1.3-0.6-1.8c-0.3-0.5-0.7-0.8-1.2-1.1s-1.2-0.4-2-0.4
		c-1.2,0-2.2,0.4-3.1,1.1c-0.9,0.8-1.5,1.7-1.8,2.9V207h-3V181h3v9.5h0.1c0.6-0.8,1.4-1.4,2.3-1.8c0.9-0.5,2-0.7,3.4-0.7
		c1,0,1.9,0.1,2.7,0.4c0.8,0.2,1.4,0.6,1.9,1.2c0.5,0.6,0.9,1.4,1.1,2.4s0.4,2.3,0.4,3.8V207H216.5z"/>
</g>
<g>
	<path class="st1" d="M114,47.3H51.8c0,0,0,0.1,0,0.1h111.9c12.3,0,23.4-5.6,30.8-14.4c-15.4-20.1-39.7-33-66.9-33
		c-15.4,0-29.9,4.2-42.4,11.4C97.6,20.7,107.5,33.1,114,47.3z"/>
	<path class="st2" d="M194.7,135.3c-7.4-8.7-18.3-14.2-30.6-14.2H51.7c0,0,0,0.1,0,0.1h63.7c-6,14.7-15.7,27.4-27.8,37.3
		C73,150.7,61,138.6,53.1,123.9c14.2,26.6,42.2,44.7,74.5,44.7C155,168.7,179.3,155.6,194.7,135.3z"/>
	<path class="st3" d="M117.2,108h36.9c13.1,0,23.7-10.6,23.8-23.7c0-13-10.6-23.7-23.7-23.7H117c1.8,7.1,2.9,15,2.9,23.7
		C119.9,93,118.9,100.9,117.2,108z"/>
	<path class="st4" d="M119.9,84.3c0-8.8-1.1-16.6-2.9-23.7H46.6c-2.2,7.5-3.4,15.5-3.4,23.7s1.2,16.2,3.4,23.7h70.6
		C118.9,100.9,119.9,93,119.9,84.3z"/>
	<path class="st5" d="M85.2,11.4C85.2,11.4,85.2,11.4,85.2,11.4c-14.4,8.4-26.1,20.9-33.5,35.9h0.1H114
		C107.5,33.1,97.6,20.7,85.2,11.4z"/>
	<path class="st6" d="M87.7,158.5c12.1-9.8,21.8-22.6,27.8-37.3H51.8h0c0.4,0.9,0.9,1.8,1.4,2.7C61,138.6,73,150.7,87.7,158.5z"/>
</g>
</svg>
