<svg id="Layer_1" xmlns="http://www.w3.org/2000/svg" width="160" height="33.7" viewBox="-319 384.3 160 33.7"><style>.st0{fill:url(#symbol_1_)}.st1{fill:url(#SVGID_1_)}.st2{fill:url(#SVGID_2_)}.st3{fill:url(#SVGID_3_)}.st4{fill:url(#SVGID_4_)}.st5{fill:url(#SVGID_5_)}.st6{fill:url(#SVGID_6_)}.st7{fill:url(#SVGID_7_)}</style><g id="influxdb_logo"><linearGradient id="symbol_1_" gradientUnits="userSpaceOnUse" x1="-284.247" y1="1119.15" x2="-187.976" y2="1119.15" gradientTransform="translate(0 -718)"><stop offset="0" stop-color="#588cc9"/><stop offset="1" stop-color="#32c5f4"/></linearGradient><path id="symbol_2_" class="st0" d="M-271.3 403.9l-2.7-11.5c-.1-.6-.7-1.2-1.4-1.4l-12-3.7c-.2-.1-.4-.1-.5-.1-.5 0-1.1.2-1.4.5l-8.7 8c-.4.5-.7 1.3-.6 1.9l2.8 12.3c.2.7.8 1.3 1.4 1.5l11.3 3.5c.2 0 .3.1.5.1.5 0 1.1-.2 1.4-.5l9.3-8.6c.5-.5.7-1.4.6-2zm-14.9-13.9l8.3 2.5c.3.1.3.2 0 .3l-4.4 1c-.3.1-.8-.1-1-.3l-3-3.3c-.2-.2-.2-.3.1-.2zm5.2 14.8c.1.3-.1.5-.5.4l-8.9-2.7c-.3-.1-.4-.4-.1-.6l6.9-6.4c.2-.2.5-.1.6.2l2 9.1zm-14.7-8l7.3-6.8c.2-.2.6-.2.9 0l3.6 3.9c.2.2.2.6 0 .9l-7.3 6.8c-.2.2-.6.2-.9 0l-3.6-3.9c-.3-.3-.3-.7 0-.9zm1.7 10.7l-1.9-8.4c-.1-.3 0-.4.3-.1l3 3.2c.2.2.3.7.2 1l-1.2 4.3c-.1.3-.3.3-.4 0zm10.7 4.9l-9.5-2.9c-.3-.1-.5-.5-.4-.8l1.6-5.1c.1-.3.5-.5.8-.4l9.5 2.9c.3.1.5.5.4.8l-1.7 5c-.1.4-.4.6-.7.5zm8.4-6.9l-6.3 5.9c-.2.2-.4.1-.3-.2l1.3-4.3c.1-.3.5-.7.8-.7l4.4-1c.3-.1.4.1.1.3zm.7-1.3l-5.2 1.2c-.3.1-.7-.1-.7-.5l-2.2-9.7c-.1-.3.1-.7.5-.7l5.2-1.2c.3-.1.7.1.7.5l2.2 9.7c0 .3-.2.6-.5.7z"/><g id="type_2_"><linearGradient id="SVGID_1_" gradientUnits="userSpaceOnUse" x1="-284.247" y1="1117.55" x2="-187.976" y2="1117.55" gradientTransform="translate(0 -718)"><stop offset="0" stop-color="#588cc9"/><stop offset="1" stop-color="#32c5f4"/></linearGradient><path class="st1" d="M-260.6 396.3l3.1-.4-2.2 12.4h-3l2.1-12zm.9-5.2l3.1-.4-.6 3.4-3.1.5.6-3.5z"/><linearGradient id="SVGID_2_" gradientUnits="userSpaceOnUse" x1="-284.247" y1="1120.1" x2="-187.976" y2="1120.1" gradientTransform="translate(0 -718)"><stop offset="0" stop-color="#588cc9"/><stop offset="1" stop-color="#32c5f4"/></linearGradient><path class="st2" d="M-247.9 399.6v-.3c0-.3-.1-.5-.6-.5-.8 0-2.5.8-3.6 1.4l-1.4 8.1h-3l2.1-12 2.6-.5v1.5c1.6-.9 3.5-1.5 5-1.5 1.7 0 2.2 1.1 2.2 2.4 0 .5 0 .8-.1 1.2l-1.6 8.8h-3l1.4-8.6z"/><linearGradient id="SVGID_3_" gradientUnits="userSpaceOnUse" x1="-284.247" y1="1120.1" x2="-187.976" y2="1120.1" gradientTransform="translate(0 -718)"><stop offset="0" stop-color="#588cc9"/><stop offset="1" stop-color="#32c5f4"/></linearGradient><path class="st3" d="M-235 398.5h-2.8l-1.8 10.4c-.3 2-1.1 3.2-2.7 4.6l-1.9-1.8c1-.9 1.4-1.8 1.6-3.1l1.8-10.1h-1.9l.4-2.5h1.9l.3-1.8c.5-2.5 1.5-3.6 4.6-3.6 1 0 2.3.1 3.8.5l3.1-.5-3.1 17.6h-3l2.6-14.9c-1.2-.2-2.4-.4-3.4-.4s-1.5.3-1.6 1.2l-.3 1.9h3.1l-.7 2.5z"/><linearGradient id="SVGID_4_" gradientUnits="userSpaceOnUse" x1="-284.247" y1="1120.25" x2="-187.976" y2="1120.25" gradientTransform="translate(0 -718)"><stop offset="0" stop-color="#588cc9"/><stop offset="1" stop-color="#32c5f4"/></linearGradient><path class="st4" d="M-225 404.8v.3c0 .3.1.5.6.5.8 0 2.5-.8 3.6-1.4l1.4-7.9 3.1-.4-2.1 12.4h-2.6V407c-1.6.9-3.5 1.5-5 1.5-1.7 0-2.2-1.1-2.2-2.4 0-.5 0-.8.1-1.2l1.5-8.6 3.1-.4-1.5 8.9z"/><linearGradient id="SVGID_5_" gradientUnits="userSpaceOnUse" x1="-284.247" y1="1120.1" x2="-187.976" y2="1120.1" gradientTransform="translate(0 -718)"><stop offset="0" stop-color="#588cc9"/><stop offset="1" stop-color="#32c5f4"/></linearGradient><path class="st5" d="M-211.6 402.1l-2.6-5.8 2.8-.5 1.8 4.4 3-4.1h3.2l-5 6.4 2.7 5.8h-3.1l-1.7-3.5-2.9 3.5h-3.2l5-6.2z"/><linearGradient id="SVGID_6_" gradientUnits="userSpaceOnUse" x1="-284.247" y1="1117.55" x2="-187.976" y2="1117.55" gradientTransform="translate(0 -718)"><stop offset="0" stop-color="#588cc9"/><stop offset="1" stop-color="#32c5f4"/></linearGradient><path class="st6" d="M-194.1 408.3h-2.6v-1.4c-1 .9-2.4 1.6-4.2 1.6-2.1 0-2.8-1.1-2.8-2.8 0-.4 0-.8.1-1.3l.6-3.6c.6-3.1 1.1-5.1 5.9-5.1.5 0 1.3.1 2 .2l.9-5 3.1-.4-3 17.8zm-1.3-9.8c-.6-.1-1.4-.1-1.8-.1-1.9 0-2.4.8-2.7 2.4l-.7 4.3v.3c0 .5.3.7.9.7 1.3 0 2.8-1 3.4-1.8l.9-5.8z"/><linearGradient id="SVGID_7_" gradientUnits="userSpaceOnUse" x1="-284.247" y1="1117.7" x2="-187.976" y2="1117.7" gradientTransform="translate(0 -718)"><stop offset="0" stop-color="#588cc9"/><stop offset="1" stop-color="#32c5f4"/></linearGradient><path class="st7" d="M-187.9 391.1l3.1-.4-1.1 6.2c1.4-.8 2.6-1.1 3.8-1.1 2.1 0 2.8 1.1 2.8 2.8 0 .4 0 .8-.1 1.3l-.6 3.6c-.7 3.7-1.9 5.1-6.3 5.1-1.1 0-3.4-.4-4.6-.8l3-16.7zm.3 14.7c.6.1 1.1.2 1.8.2 1.9 0 2.4-.8 2.7-2.4l.8-4.3v-.3c0-.5-.3-.7-.9-.7-.9 0-2.2.4-3.3 1.1l-1.1 6.4z"/></g></g></svg>