<?xml version="1.0" encoding="utf-8"?>
<!-- Generator: Adobe Illustrator 22.1.0, SVG Export Plug-In . SVG Version: 6.00 Build 0)  -->
<svg version="1.1" id="Layer_1" xmlns="http://www.w3.org/2000/svg" xmlns:xlink="http://www.w3.org/1999/xlink" x="0px" y="0px"
	 width="230px" height="69.5px" viewBox="0 0 230 69.5" style="enable-background:new 0 0 230 69.5;" xml:space="preserve">
<style type="text/css">
	.st0{fill:#FFFFFF;}
</style>
<g id="Background">
</g>
<g id="Logo">
	<g>
		<path class="st0" d="M7,55.4c0.7,0,1.3,0.1,1.9,0.3l0,0l0.1,0l8.1-7.9l0.3,0.4c0.4,0.6,0.9,1.1,1.3,1.6l0.2,0.2
			c0.1,0.1,0.2,0.2,0.3,0.4l0.2,0.2l0.2,0.2l0.2,0.2l0.2,0.2l0.2,0.2l0.2,0.2l0.2,0.2c3.8,3.2,8.5,5,13.4,5.1
			c4.1,0.1,8.1-0.9,11.6-3l0.6,0.6c0.7,0.8,1.5,1.5,2.2,2.3c-4.3,2.8-9.3,4.2-14.5,4c-5.8-0.1-11.3-2.2-15.8-5.9l0,0L13,60
			c0.2,0.6,0.3,1.2,0.3,1.9c0,3.6-2.9,6.5-6.5,6.5s-6.5-2.9-6.5-6.5c0-3.6,2.9-6.5,6.5-6.5L7,55.4z"/>
		<path class="st0" d="M56.5,22c2.6,4.2,3.8,9,3.7,13.9c-0.1,6-2.4,11.7-6.4,16.2l0,0l3.2,3.4c1.3-0.2,2.6,0.3,3.5,1.2
			c1.5,1.6,1.5,4.1-0.1,5.7c-1.6,1.5-4.1,1.5-5.7-0.1c-0.9-0.9-1.3-2.3-1-3.5c-1.5-1.6-4.1-4.4-5.6-6l-0.3-0.3l0.4-0.3
			c1-0.8,1.9-1.6,2.7-2.6c3.4-3.8,5.3-8.7,5.4-13.8c0.1-3.9-0.8-7.7-2.7-11L56.5,22z"/>
		<path class="st0" d="M11.4,6.8c1.1,0,2.2,0.4,3,1.2c0.9,0.9,1.3,2.3,1,3.5l6.1,6.4l-0.4,0.3c-1,0.8-1.9,1.6-2.7,2.6
			c-3.4,3.8-5.3,8.7-5.4,13.8c-0.1,3.9,0.8,7.7,2.7,11l-2.9,2.9c-2.6-4.2-3.9-9-3.7-14c0.1-6,2.5-11.7,6.4-16.2L12,14.8
			c-1.3,0.2-2.6-0.3-3.5-1.2C7,12,7.1,9.5,8.7,7.9c0.6-0.6,1.4-1,2.3-1.1C11.1,6.9,11.2,6.8,11.4,6.8z"/>
		<path class="st0" d="M63,1.7c3.6,0,6.5,2.9,6.5,6.5s-2.9,6.5-6.5,6.5c-0.7,0-1.4-0.1-2-0.3l0,0l-0.1,0l-8.8,8.3l-0.3-0.4
			c-0.5-0.6-1-1.2-1.5-1.8l-0.1-0.1L49.9,20l0,0l-0.2-0.2l0,0l-0.2-0.2l-0.2-0.1l-0.2-0.1l-0.2-0.2l-0.2-0.1l-0.2-0.2
			c-3.7-3.1-8.4-4.9-13.3-5.1c-4.1-0.1-8.1,0.9-11.5,3l-2.8-2.9c4.3-2.8,9.3-4.2,14.5-4c5.8,0.1,11.3,2.2,15.8,6h0l5.8-5.5
			c-0.2-0.6-0.3-1.3-0.3-1.9C56.6,4.6,59.5,1.7,63,1.7z"/>
	</g>
	<path class="st0" d="M34.8,16.2c0.7,0,1.5,0.1,2.2,0.1c10.5,1.3,17.9,10.8,16.6,21.3c-1.3,10.5-10.8,17.9-21.3,16.6
		c-10.5-1.3-17.9-10.8-16.6-21.3C16.9,23.2,25.1,16.2,34.8,16.2z M34.5,24.3c-4.2,0.3-7.3,3.5-7.4,7.8c0.1,3,1.6,5.6,4.3,7L30,46
		h9.9l-1.5-6.9c2.7-1.5,4.3-3.9,4.3-7c-0.1-4.4-3.5-7.7-7.8-7.8L34.5,24.3z M34.7,24.3L34.7,24.3L34.7,24.3L34.7,24.3z"/>
</g>
<g id="Font">
	<path class="st0" d="M85.6,26c-0.5,0-0.8,0.1-1.4,0.9l-8,10.4l3.5-19.5c0.1-0.7-0.2-1-0.8-1h-7.2c-0.9,0-1.1,0.4-1.2,1l-6.2,35.2
		c-0.1,0.8,0.3,1.1,0.9,1.1h7.2c0.5,0,1.1-0.5,1.2-1.1l1.9-11l4.2,11c0.3,0.8,0.7,1.1,1.2,1.1h8.7c0.6,0,0.9-0.6,0.6-1.1l-6.2-13.5
		l11-12.5c0.4-0.4,0.3-1-0.3-1H85.6z M119.1,35.9c0-5.7-3.3-10.3-10.2-10.3c-8,0-13.5,3.6-15.1,13.1l-0.5,3.2
		c-0.1,0.9-0.2,1.7-0.2,2.5c0,6.8,5.3,10.1,10.6,10.1c4,0,7.3-0.5,10.5-1.5c0.8-0.2,1.1-0.6,1.2-1.3l0.8-4.3c0-0.1,0-0.1,0-0.2
		c0-0.4-0.3-0.6-0.7-0.6c-0.1,0-0.1,0-0.2,0c-1.8,0.2-6.7,0.4-9.2,0.4c-2.4,0-3.9-0.3-3.9-2.7c0-0.4,0-0.9,0.1-1.5h15
		c0.6,0,1.1-0.4,1.2-1.1l0.5-2.9C119,37.7,119.1,36.8,119.1,35.9z M110.4,35.5c0,0.6-0.1,1.3-0.2,1.9h-7.1c0.6-2.7,1.7-4.8,4.4-4.8
		C109.7,32.7,110.4,33.9,110.4,35.5z M151.5,26.7c0-0.4-0.4-0.7-0.9-0.7h-7.9c-0.5,0-1,0.4-1.2,0.9l-6.9,17.4h-0.4
		c-0.3,0-0.3-0.2-0.4-0.8l-0.9-16.5c0-0.5-0.2-1-0.8-1h-7.7c-0.8,0-1.2,0.4-1.2,0.9c0,0,0,0.1,0,0.1l2.8,22.9
		c0.3,2.5,1.5,3.3,3.8,3.3h0.6l-0.7,1.6c-0.6,1.4-1.6,1.8-2.9,1.8c-1.8,0-4.7-0.3-6.5-0.4h0c-0.6,0-1.2,0.5-1.3,1l-0.8,4.7
		c0,0,0,0.1,0,0.1c0,0.4,0.4,0.6,0.9,0.8c1.3,0.5,4.4,0.9,6.3,0.9c7.6,0,10.3-3,12.6-8.1L151.4,27C151.4,26.9,151.5,26.8,151.5,26.7
		z"/>
	<path class="st0" d="M172.8,27.1c0-0.5-0.3-0.6-0.8-0.8c-1.3-0.3-3.6-0.8-6.4-0.8c-7.4,0-12.2,3.7-13.7,12.6l-0.6,3.6
		c-0.1,1-0.2,1.9-0.2,2.7c0,5.6,3.3,9.9,9.5,9.9c2.8,0,5-0.4,6.7-0.8c0.7-0.1,1.1-0.4,1.2-1l1-5.4c0,0,0-0.1,0-0.2
		c0-0.4-0.3-0.7-0.8-0.7c0,0,0,0-0.1,0c-1.7,0.1-3.2,0.3-5.6,0.3c-1.6,0-2.6-0.6-2.6-2.7c0-0.6,0-1.3,0.2-2.1l0.6-3.6
		c0.7-4,2.1-4.9,4.1-4.9c2.4,0,3.8,0.2,5.4,0.3c0,0,0,0,0.1,0c0.5,0,1-0.4,1.1-0.9l1-5.4C172.8,27.2,172.8,27.2,172.8,27.1z
		 M202.8,17.6c0-0.5-0.4-0.8-0.9-0.8h-7.2c-0.5,0-1,0.4-1.1,1l-1.4,8.1c-1-0.1-2.6-0.3-3.4-0.3c-8.8,0-13.1,3.7-14.7,12.6l-0.7,3.8
		c-0.1,0.9-0.2,1.7-0.2,2.5c0,5.9,4.1,10.1,10.7,10.1c4.3,0,8.4-0.7,11-1.2c1.5-0.3,1.8-0.6,1.9-1.5l6-33.9
		C202.8,17.7,202.8,17.7,202.8,17.6z M190.9,33.4l-2.3,13.2c-0.9,0.1-1.9,0.2-3.3,0.2c-2.1,0-2.8-1.2-2.8-3.1c0-0.6,0-1.2,0.2-1.9
		l0.7-3.8c0.5-2.8,1.6-4.9,4.3-4.9C188.8,33.2,189.9,33.3,190.9,33.4z M229.6,33.7c0-5.4-2.2-8.2-7.6-8.2c-1.8,0-4.4,0.4-7.8,2.6
		l0.2-1.3c0.1-0.7-0.2-1-0.8-1h-6.6c-0.5,0-1,0.4-1.1,1l-4.6,26c-0.1,0.7,0.4,1.1,1.1,1.1h6.9c0.7,0,1.2-0.5,1.3-1.1l3.3-18.6
		c0.9-0.5,2.6-1.1,4.1-1.1c1.6,0,2.3,0.4,2.3,1.9c0,0.8-0.2,1.6-0.3,2.5l-2.7,15.3c-0.1,0.5,0,1.1,0.8,1.1h7.2
		c0.6,0,1.1-0.5,1.2-1.1l2.6-15C229.4,36.6,229.6,35,229.6,33.7z"/>
	<path class="st0" d="M191,64c0-0.1-0.1-0.2-0.2-0.2h-1.3c-0.2,0-0.3,0.1-0.3,0.3l-0.3,1.6c0,0,0,0,0,0.1c0,0.1,0.1,0.2,0.2,0.2h1.3
		c0.2,0,0.3-0.1,0.3-0.3L191,64C191,64,191,64,191,64z M199.2,57.6c-1.9,0-3.4,0.8-3.9,3.5l-0.2,1.4c0,0.3-0.1,0.5-0.1,0.7
		c0,1.7,1.1,2.8,2.8,2.8c0.9,0,1.6-0.1,1.9-0.2c0.3-0.1,0.3-0.1,0.4-0.4l0.2-0.9c0-0.2,0-0.2-0.3-0.2c-0.5,0.1-1,0.1-1.9,0.1
		c-0.6,0-1.1-0.2-1.1-1.2c0-0.2,0-0.5,0.1-0.7l0.2-1.4c0.3-1.5,1-1.9,1.7-1.9c0.9,0,1.4,0,1.9,0.1c0.2,0,0.3-0.1,0.3-0.2l0.2-0.9
		c0-0.2,0-0.3-0.2-0.4C200.7,57.7,200.1,57.6,199.2,57.6z M210.9,60.5c0-1.5-0.9-2.9-2.9-2.9c-2.3,0-3.7,1.2-4.1,3.6l-0.2,1.2
		c0,0.2-0.1,0.5-0.1,0.7c0,1.5,0.9,2.9,2.9,2.9c2.3,0,3.6-1.2,4.1-3.6l0.2-1.2C210.9,61,210.9,60.8,210.9,60.5z M209,60.6
		c0,0.2,0,0.4-0.1,0.6l-0.2,1.2c-0.2,1.4-0.9,2-1.9,2c-0.9,0-1.3-0.5-1.3-1.3c0-0.2,0-0.4,0.1-0.6l0.2-1.2c0.3-1.4,1-2,1.9-2
		C208.5,59.3,209,59.8,209,60.6z M225.2,59.8c0-1.3-0.6-2.1-2-2.1c-1,0-1.8,0.2-2.6,0.7c-0.2-0.4-0.7-0.7-1.6-0.7
		c-0.9,0-1.5,0.3-2.2,0.7L217,58c0-0.2-0.1-0.3-0.2-0.3h-1.3c-0.2,0-0.3,0.1-0.3,0.3l-1.3,7.6c0,0.2,0.1,0.3,0.2,0.3h1.3
		c0.3,0,0.3-0.1,0.3-0.3l1-5.9c0.7-0.3,1.1-0.5,1.4-0.5c0.6,0,0.8,0.2,0.8,0.7c0,0.2,0,0.4-0.1,0.7l-0.9,4.9c0,0.2,0.1,0.3,0.2,0.3
		h1.3c0.3,0,0.3-0.1,0.3-0.3l0.9-4.9c0.1-0.4,0.1-0.7,0.1-1c0.6-0.3,1.2-0.4,1.5-0.4c0.6,0,0.9,0.2,0.9,0.7c0,0.2,0,0.4-0.1,0.7
		l-0.9,4.9c0,0.2,0.1,0.3,0.2,0.3h1.3c0.3,0,0.3-0.1,0.3-0.3l0.9-4.9C225.1,60.4,225.2,60.1,225.2,59.8z"/>
</g>
</svg>
