<?xml version="1.0" encoding="UTF-8"?>
<svg width="744" height="207" version="1.1" viewBox="0 0 744 207" xmlns="http://www.w3.org/2000/svg" xmlns:cc="http://creativecommons.org/ns#" xmlns:dc="http://purl.org/dc/elements/1.1/" xmlns:rdf="http://www.w3.org/1999/02/22-rdf-syntax-ns#">
 <metadata>
  <rdf:RDF>
   <cc:Work rdf:about="">
    <dc:format>image/svg+xml</dc:format>
    <dc:type rdf:resource="http://purl.org/dc/dcmitype/StillImage"/>
    <dc:title/>
   </cc:Work>
  </rdf:RDF>
 </metadata>
 <g transform="matrix(1.7 0 0 1.7 -1.53 -3.04)">
  <g transform="matrix(.719 0 0 1 .252 0)">
   <g transform="translate(.897 1.79)" style="fill:#831237">
    <path d="m0 61v-61h608v122h-608zm231 50.4c12.6-5.89 19.7-15.6 22.1-30.2 2.35-14.3-1.47-27.6-10.6-36.7-12.7-12.8-33.4-15.8-51.3-7.47-14.1 6.54-21.2 19-21.2 37-0.0261 15.6 5.21 26.3 16.8 34.2 7.66 5.27 14.1 6.84 26.7 6.48 9.84-0.279 11.7-0.643 17.5-3.34zm-27.7-11.3c-8.21-3.73-12.4-12.7-12.4-26.6 0-15.9 5.32-25.1 15.7-27.4 10.1-2.16 18.2 1.93 22.9 11.6 2.49 5.08 2.8 6.82 2.78 15.3-0.0321 11.4-1.45 16.8-5.71 21.7-6.11 6.96-15.3 9.09-23.3 5.42zm215 11.2c12.5-5.84 19.9-16.1 22-30.5 1.35-9.09-0.171-19.7-3.91-27.4-11.5-23.5-48.4-28.5-68-9.23-7.35 7.24-10.5 14.7-11.1 26.4-1.13 21.6 7.69 35.8 26.4 42.4 4.95 1.75 7.72 2.04 17 1.76 9.88-0.299 11.7-0.66 17.7-3.45zm-27.9-11.2c-8.86-4.02-12.9-13.9-12.1-29.6 0.769-14.7 5.55-22.1 15.8-24.4 9.69-2.18 18.4 2.34 22.8 11.8 2.24 4.81 2.61 6.96 2.61 15.1-6e-3 11.3-1.44 16.8-5.74 21.7-6.14 6.99-15.3 9.09-23.4 5.38zm185 12c3.24-1.64 6-2.99 6.14-3s0.25 1.11 0.25 2.49v2.5h20v-109h-28v13.2l7.5-0.65 0.284 10.7c0.156 5.91 2e-3 10.7-0.342 10.7-0.344 0-1.78-0.908-3.19-2.02-9.69-7.62-27.7-5.44-37.7 4.56-15.6 15.6-14.8 51.1 1.52 65.8 6.19 5.56 11.4 7.48 20.6 7.58 6 0.0667 8.02-0.385 13-2.91zm-16.6-11.9c-7.72-4.1-11.5-14.3-10.8-29.1 0.742-15.4 5.08-22.9 14.5-25.1 8.04-1.84 15.4 2.46 19.4 11.3 2.02 4.5 2.36 6.88 2.37 16.3 0.01 12.5-1.16 16.9-5.81 22.2-5.47 6.23-13.1 7.93-19.7 4.41zm-507 7.9v-5.95l-13.5-0.591-0.523-80.5h14v-13l-47.5 0.536v12l14.5 0.588-0.523 80.4-14.5 0.588v11.9h48zm25-22.5v-28.5l5.25-3c9.9-5.65 17.6-4.94 21 1.96 1.54 3.07 1.75 6.81 1.75 30.7l2e-3 27.2h19l0.25-19.8c0.498-39.3-0.393-48.3-5.4-54.7-6.87-8.74-22.5-8.53-35.1 0.452-3.08 2.21-5.87 4.02-6.19 4.02s-0.577-2.25-0.577-5v-5h-29v12h10v68h19zm77-5.52v-34l19.5 0.0036v-11.5l-19-1-0.307-4.23c-0.382-5.27 1.92-10.3 5.73-12.6 3.2-1.89 11.4-2.28 15.5-0.731 2.54 0.965 2.57 0.925 2.57-3.96 0-5.46 0.492-5.13-11.7-7.84-4.95-1.1-15 0.871-19.9 3.9-5.8 3.58-9.86 12-10.6 21.9-0.254 3.35-0.442 3.51-4.52 3.81l-4.25 0.308v11.9h9v68h18zm316 12c0.454-19.5 0.697-21.9 2.65-25.5 4.53-8.44 9.44-11.8 19.2-13.1l5.17-0.686v-9.87c0-11.6-0.0969-11.7-9.74-6.84-5.63 2.81-10.6 7.35-16 14.5l-2.19 2.95-0.0555-9.75-0.0556-9.75h-27v12h8v68.1l19.5-0.572zm54-32.5v-54.5h-28v6.58c0 6.55 0.0104 6.57 2.75 6.39 1.51-0.0997 3.31-0.134 4-0.0754 0.981 0.0832 1.25 10.4 1.25 48.1v48h20zm-226 22.8c4.12-16.6 7.75-30.2 8.05-30.2 0.306 0 3.62 12.9 7.37 28.8s7.03 29.5 7.3 30.5c0.423 1.5 1.77 1.75 9.32 1.75h8.82l22.6-92h8.6v-13h-33v13h4.5c3.47 0 4.5 0.368 4.5 1.61 0 2.08-13.8 59.6-14.5 60.2-0.858 0.858-1.13-0.0396-3.28-10.8-2.67-13.4-12-58.8-12.7-61.8-0.519-2.19-0.877-2.25-13.5-2.25h-13v13h10.2l-0.62 3.25c-1.26 6.6-13 58.3-13.3 58.7-0.186 0.229-0.606 0.15-0.932-0.177-0.466-0.466-16.4-60.1-16.4-61.4 0-0.176 2.25-0.32 5-0.32h5v-13h-38v13h3.97c3.93 0 3.99 0.0492 5.47 5.25 0.824 2.89 6.26 22.1 12.1 42.8s11 39 11.6 40.8l1.04 3.29 16.2-0.578z" fill="#d9b7c2" style="fill:#831237"/>
    <path d="m0 0h608v122h-608v-122z" fill="#cc9ead" style="fill:#831237"/>
   </g>
   <g transform="matrix(.591 0 0 .537 200 80.6)" style="fill:#f9f9f9">
    <g transform="matrix(3.2 0 0 2.81 -328 -141)" style="fill:#f9f9f9">
     <polygon class="st0" points="265 72.1 265 71.4 260 71.4 260 77.7 261 77.7 261 74.9 265 74.9 265 74.2 261 74.2 261 72.1" style="fill:#f9f9f9"/>
     <path class="st0" d="m274 73.3c0-0.8-0.4-1.2-0.6-1.4-0.5-0.5-1.2-0.5-1.8-0.5h-4.3v6.4h0.9v-2.5h3.1l2.2 2.5h1.2l-2.3-2.7c0.3-0.1 1.6-0.3 1.6-1.8zm-5.8 1.1v-2.3h3.5c0.4 0 0.9 0 1.2 0.5 0.1 0.2 0.2 0.4 0.2 0.7 0 0.2-0.1 0.5-0.2 0.7-0.4 0.5-1 0.5-1.5 0.5h-3.2z" style="fill:#f9f9f9"/>
     <path class="st0" d="m279 71.2c-1.9 0-3.8 1.1-3.8 3.4 0 1.3 0.7 2.1 1.3 2.6 0.7 0.5 1.7 0.7 2.6 0.7 2 0 3.8-1.1 3.8-3.3 0-2.1-1.6-3.4-3.9-3.4zm0.1 5.9c-0.9 0-1.8-0.2-2.4-0.9-0.4-0.5-0.6-1.1-0.6-1.6 0-1.9 1.5-2.5 2.8-2.6 1.7 0 3.1 0.9 3.1 2.6 0 1-0.6 2.5-2.9 2.5z" style="fill:#f9f9f9"/>
     <path class="st0" d="m290 75.5c-0.3 0.6-0.4 0.8-0.6 1.4-0.2-0.6-0.3-0.7-0.6-1.4l-2-4.1h-1.2v6.4h0.8v-4c0-1 0-1.1-0.1-1.6 0.2 0.5 0.3 0.7 0.6 1.4l2 4.1h0.8l2.2-4.5c0.2-0.5 0.3-0.6 0.5-1.1-0.1 0.5-0.1 0.7-0.1 1.9v3.7h0.8v-6.4h-1.2z" style="fill:#f9f9f9"/>
     <rect class="st0" x="298" y="71.4" width=".9" height="6.4" style="fill:#f9f9f9"/>
     <path class="st0" d="m307 72.1c-0.8-0.7-1.7-0.7-2.4-0.7h-3.2v6.4h2.5c1.1 0 2.3 0 3.2-0.9 0.4-0.4 0.9-1.1 0.9-2.3 0.1-1.3-0.5-2.1-1-2.5zm-0.4 4c-0.7 0.9-1.7 0.9-2.5 0.9h-1.9v-4.8h2.3c0.6 0 1.3 0 1.9 0.6 0.3 0.3 0.7 0.9 0.7 1.8 0 0.4-0.1 1-0.5 1.5z" style="fill:#f9f9f9"/>
     <path class="st0" d="m313 74.4v0.8h2.8c-0.1 0.4-0.1 0.7-0.5 1.2-0.6 0.6-1.5 0.8-2.1 0.8-0.4 0-1.7-0.1-2.4-1.2-0.2-0.3-0.4-0.8-0.4-1.5 0-1.6 1.3-2.5 2.9-2.5 0.7 0 1.5 0.2 2 0.7 0.2 0.2 0.3 0.3 0.4 0.5l0.9-0.3c-0.1-0.2-0.3-0.5-0.6-0.8-0.4-0.3-1.3-0.9-2.8-0.9s-2.6 0.6-3.2 1.5c-0.2 0.3-0.5 0.9-0.5 1.8 0 1.8 1.4 3.3 3.6 3.3 1.1 0 2-0.4 2.4-0.7 0.1-0.1 0.2-0.2 0.4-0.3v0.9h0.8v-3.4h-3.7z" style="fill:#f9f9f9"/>
    </g>
    <g style="fill:#f9f9f9">
     <g style="fill:#f9f9f9">
      <path class="st0" d="m-328-135v20.8h23v130h-23v20.8h80.8v-20.8h-23.3v-130h23.3v-20.8h-80.8z" style="fill:#f9f9f9;stroke-width:3"/>
      <path class="st0" d="m-197-81.3-7.03 5.34v-16.9h-51.8v20h17.6v109h34.2v-91.7l1.6-1.13c8.95-6.47 18.2-9.56 26.8-9.56 6.07 0 10.5 1.97 13.4 5.63 2.56 3.38 3.51 8.72 3.51 16.9v79.6h34.2v-83c0-32.6-11.8-48.4-36.1-48.4-12.1 0-24.3 4.5-36.4 13.8z" style="fill:#f9f9f9;stroke-width:3"/>
      <path class="st0" d="m-94.6-130c-7.35 7.88-11.2 18-11.2 29.8v5.91h-15.3v21.1h15.3v109h31.6v-109h32.6v-21.1h-32.3v-7.88c0-12.9 5.11-17.2 12.8-20 7.03-2.53 18.2-1.97 28.1 3.09v-17.2c-8.95-3.94-20.8-5.34-28.4-5.34-14.1 0-26.2 4.22-33.2 11.5z" style="fill:#f9f9f9;stroke-width:3"/>
      <path class="st0" d="m-27.9-78.2c-14.1 11.8-20.8 28.7-20.8 49.8 0 21.1 7.03 37.7 20.8 49.8 13.7 11.8 31 18 50.8 18 20.5 0 37.7-6.19 51.1-18 13.7-12.1 20.8-28.7 20.8-49.5 0-21.1-7.03-37.7-20.8-49.8-13.7-11.8-31-18-51.1-18-19.8-0.281-37.1 5.91-50.8 17.7zm15.7 50.6c0-30.7 11.8-46.4 34.8-46.4 10.9 0 19.8 4.22 26.2 12.4 6.07 7.59 8.95 18.6 8.95 31.8 0 15.2-3.2 26.7-9.27 34-6.71 7.88-15.3 11.8-25.9 11.8-11.8 0-20.8-4.5-26.8-13.2-5.11-7.59-7.99-18-7.99-30.4z" style="fill:#f9f9f9;stroke-width:3"/>
      <path class="st0" d="m289-78.2c-13.7 11.8-21.1 28.7-21.1 49.8 0 21.1 7.03 37.7 21.1 49.8 13.7 11.8 31 18 50.8 18 20.5 0 37.7-6.19 51.1-18 13.7-12.1 20.8-28.7 20.8-49.5 0-21.1-7.03-37.7-20.8-49.8-13.7-11.8-31-18-51.1-18-20.1-0.281-37.1 5.91-50.8 17.7zm15.7 50.6c0-30.7 11.8-46.4 34.8-46.4 11.2 0 19.8 4.22 26.2 12.4 6.07 7.59 8.95 18.6 8.95 31.8 0 15.2-3.2 26.7-9.27 34-6.39 7.88-15.3 11.8-25.9 11.8-11.8 0-20.8-4.5-26.8-13.2-5.11-7.59-7.99-18-7.99-30.4z" style="fill:#f9f9f9;stroke-width:3"/>
      <path class="st0" d="m460-59.9v-32.9h-47.6v20h13.7v109h34.5v-45.8c0-12.1 0.639-21.9 5.11-30.7 4.47-9 10.5-14.9 17.9-17.7 5.75-2.25 15.3-3.38 24.3-3.66v-33.5c-15.7-0.281-39.6 14.1-47.9 34.9z" style="fill:#f9f9f9;stroke-width:3"/>
      <path class="st0" d="m505-140v21.7h12.5v155h34.8v-177h-47.3z" style="fill:#f9f9f9;stroke-width:3"/>
      <path class="st0" d="m637-140v21.7h13.4v34.9c-8.95-8.16-19.8-12.4-31.6-12.4-16.3 0-30 5.91-41.2 18-11.2 11.8-16.9 28.7-16.9 49.8 0 21.1 5.75 37.7 16.9 49.8 11.2 11.8 24.9 18 41.2 18 12.1 0 24.3-5.06 31.6-12.4v9.56h35.1v-177zm-12.8 156c-10.5 0-18.5-4.5-23.6-13.2-4.79-8.16-7.35-18.3-7.35-30.7 0-30.7 10.2-46.4 30.7-46.4 9.59 0 17.6 4.22 23 12.4 5.11 7.59 7.99 18.6 7.99 31.8 0 15.2-2.88 26.7-8.31 34-5.11 8.16-12.8 12.1-22.4 12.1z" style="fill:#f9f9f9;stroke-width:3"/>
      <path class="st0" d="m235-136v23.1h15.7l-25.2 101-26.8-123v-0.281h-45.7v23.1h17.9v0.562l-24.3 100-27.5-101h16.9v-23.1h-65.5v23.1h13.7s43.1 146 44.1 148h28.1l26.2-102 25.6 102h30.4c0.959-2.53 38.3-148 38.3-148h14.4v-23.1z" style="fill:#f9f9f9;stroke-width:3"/>
     </g>
    </g>
   </g>
  </g>
 </g>
</svg>
