<svg width="715pt" height="492" viewBox="0 0 715 369" xmlns="http://www.w3.org/2000/svg"><path fill="#fff" d="M323.12 60.12c2.96-3.98 8.31-4.39 12.87-4.23 10.35.31 20.79-.74 31.06.97 7.54 1.42 14.93 5.22 19.45 11.58 5.25 7.36 5.87 17.34 2.9 25.72-1.89 5.3-5.84 9.53-10.27 12.86 6.84 2.71 12.35 8.44 14.62 15.46 3.41 10.42 1.31 22.87-6.5 30.83-6.79 7.01-16.7 9.97-26.23 10.44-13.46.17-26.92-.14-40.38.15-.05-31.63-.05-63.25-.12-94.88-.16-3.16.33-6.51 2.6-8.9m18.4 18.94c-.3 6.84-.01 13.69-.17 20.53 6.68-.24 13.41.37 20.06-.37 9.1-2.4 11.29-15.52 5.39-22.01-4.88-5-12.45-3.09-18.68-3.39-3.15-.38-6.41 2.01-6.6 5.24m-.1 43.21c-.2 7.78-.02 15.58-.12 23.37 5.22-.05 10.43.06 15.65.06 3.38-.05 7.01.08 10.06-1.65 9.96-5.19 9.39-22.6-1.32-26.65-5.68-1.79-11.78-.83-17.64-1.03-3.41-.36-6.82 2.36-6.63 5.9z"/><g fill="#083b87"><path d="M261.03 0H482c-.03 73.65-.01 147.3-.01 220.95-73.66.05-147.31.05-220.97.01 0-73.65-.02-147.31.01-220.96m62.09 60.12c-2.27 2.39-2.76 5.74-2.6 8.9.07 31.63.07 63.25.12 94.88 13.46-.29 26.92.02 40.38-.15 9.53-.47 19.44-3.43 26.23-10.44 7.81-7.96 9.91-20.41 6.5-30.83-2.27-7.02-7.78-12.75-14.62-15.46 4.43-3.33 8.38-7.56 10.27-12.86 2.97-8.38 2.35-18.36-2.9-25.72-4.52-6.36-11.91-10.16-19.45-11.58-10.27-1.71-20.71-.66-31.06-.97-4.56-.16-9.91.25-12.87 4.23m92.34 79.51c-4.42 1.22-8.1 4.94-9.19 9.4-1.73 7.1 3.3 14.94 10.62 15.89 7.32 1.35 14.66-4.8 14.76-12.21.93-8.41-8.24-15.49-16.19-13.08z"/><path d="M341.52 79.06c.19-3.23 3.45-5.62 6.6-5.24 6.23.3 13.8-1.61 18.68 3.39 5.9 6.49 3.71 19.61-5.39 22.01-6.65.74-13.38.13-20.06.37.16-6.84-.13-13.69.17-20.53zm-.1 43.21c-.19-3.54 3.22-6.26 6.63-5.9 5.86.2 11.96-.76 17.64 1.03 10.71 4.05 11.28 21.46 1.32 26.65-3.05 1.73-6.68 1.6-10.06 1.65-5.22 0-10.43-.11-15.65-.06.1-7.79-.08-15.59.12-23.37zm-52.97 128.24c4.36-1.02 9.22.69 11.69 4.49 3.96 5.56 1.23 14.52-5.46 16.47-6.39 2.55-14.33-2.52-14.46-9.44-.64-5.22 3.2-10.31 8.23-11.52zM6.58 253.52c4.09-.67 8.27-.18 12.4-.3 8.57.27 17.54-1.12 25.7 2.3 7.38 2.67 13.18 9.48 14.14 17.35 1.58 8.63-2.46 17.48-9.36 22.68 3.74 2.05 7.45 4.51 9.64 8.3 5.87 9.65 4.34 23.42-4.04 31.16-5.9 5.46-14.09 7.81-21.99 7.89-11.03.06-22.05-.01-33.07.01v-82.67c1.12-3.03 3.32-5.89 6.58-6.72m10.88 19.35c-.28 5.53-.13 11.07-.04 16.6 5.5-.34 11.06.38 16.51-.43 8.83-2.02 10.14-16.22 2.02-20.02-4.09-1.56-8.63-.74-12.92-.89-2.82-.37-5.49 1.91-5.57 4.74m-.06 36c-.2 6.24.02 12.48-.08 18.73 6.36-.23 12.79.45 19.11-.39 9.21-2.19 10.97-15.95 3.81-21.39-4.96-3.65-11.51-2.17-17.24-2.41-3.06-.32-5.81 2.42-5.6 5.46zm198.74-55.66c4.59.18 9.24-.37 13.8.36 3.78.86 5.34 4.94 5.25 8.46.01 12.64.02 25.28-.02 37.92 2.58-.26 6.12.6 7.58-2.19 4.41-6.52 8.41-13.32 12.99-19.72 7.06.3 14.12.08 21.18.12-6.95 9.9-13.12 20.4-20.72 29.82 3.1 3.43 4.86 7.75 7.06 11.75 4.1 8.19 9.37 15.69 13.85 23.66-5.7-.1-11.4.17-17.08-.12-3.18-.13-6.22-1.79-7.77-4.6-4.01-6.76-7.28-13.93-11.25-20.71-1.05-2.22-3.88-1.4-5.82-1.78 0 9.06-.01 18.13.03 27.19-6.36.02-12.72.02-19.08.01.04-30.06.05-60.11 0-90.17zM92.55 277.9c10.67-2.61 22.74-.81 31.46 6.11 10.54 8.12 14.54 22.85 11.25 35.5-2.16 9.27-8.73 17.34-17.33 21.38-8.69 4.04-18.93 4.57-28.01 1.55-9.52-3.02-17.37-10.86-20.39-20.38-4.12-12.32-1.34-27.21 8.34-36.21 4.08-3.89 9.22-6.6 14.68-7.95m3.95 15.76c-13.04 4.95-13.9 26.07-2.07 32.85 6.9 4.1 16.88 1.61 20.79-5.47 4.01-7.14 3.59-17-1.81-23.34-4.11-4.64-11.14-6.26-16.91-4.04zm70.1-15.95c10.59-2.37 22.47-.4 31 6.54 13.82 10.91 15.82 32.92 5.54 46.85-7.84 10.83-22.43 15.14-35.24 12.57-10.4-1.81-19.83-8.88-23.97-18.66-5.49-12.79-3.32-29.23 7.02-38.99 4.28-4.2 9.83-6.98 15.65-8.31m3.71 15.76c-13.49 4.5-14.62 26.01-2.72 32.96 6.61 3.96 16.03 2 20.32-4.45 4.23-6.5 4.44-15.55.35-22.18-3.56-5.96-11.45-8.63-17.95-6.33zm173.83-16.21c7.52-1.53 16.11-.66 22.23 4.33 5.22 4.53 7.31 11.72 7.31 18.44-.02 14.49.03 28.98-.02 43.46-4.69-.4-9.59.6-14.1-1.06-3.32-1.29-4.67-5.04-4.71-8.35-.12-10.39.09-20.78-.08-31.16-.07-3.17-1.02-6.92-4.28-8.19-6.35-1.96-13.71 1.11-16.97 6.86-1.96 3.43-2.91 7.4-2.89 11.34 0 10.18.08 20.35-.03 30.53-6.28-.15-12.56-.04-18.83-.07.07-21.75-.09-43.5.08-65.25 4.02.13 8.08-.22 12.08.32 3.38.54 5.62 3.57 6.29 6.76 3.9-3.73 8.49-6.98 13.92-7.96zm54.39 1.1c9.38-3.33 21.06-2.64 28.65 4.33 3.35-6.35 11.23-4.7 17.12-4.88-.02 20.08-.01 40.16 0 60.24-.1 6.95-2.02 14.13-6.7 19.43-6.72 7.81-17.43 11.38-27.56 10.52-8.56.63-17.18-1.34-24.59-5.67 2-4.02 2.8-8.74 5.75-12.22 3.32-2.3 7.41.21 10.88.89 6.37 1.25 13.87 1.66 19.26-2.6 3.4-2.72 4.26-7.27 4.25-11.39-11.52 8.45-29.53 5.86-38.25-5.46-7-8.78-8.41-20.82-6.32-31.58 1.9-9.43 8.22-18.33 17.51-21.61m9 15.38c-4.58 1.51-7.2 6.14-7.9 10.67-.83 5.65-.23 11.92 3.39 16.55 4.56 5.87 14.62 6.36 19.41.53 3.49-4.33 3.49-10.25 3.22-15.52-.18-4.7-2.35-9.83-6.93-11.76-3.52-1.42-7.58-1.71-11.19-.47zm-125.24-15.56c4.42.14 8.93-.41 13.3.46 4.05 1.13 5.82 5.55 5.67 9.43.02 18.43-.03 36.87.01 55.3-6.24.05-12.49-.03-18.73.06-.03-21.75-.08-43.5-.25-65.25z"/></g><path d="M415.46 139.63c7.95-2.41 17.12 4.67 16.19 13.08-.1 7.41-7.44 13.56-14.76 12.21-7.32-.95-12.35-8.79-10.62-15.89 1.09-4.46 4.77-8.18 9.19-9.4zm70.41 147.2c9.82-9.73 25.36-12.33 38.26-8.03 4.75 1.66 9.65 4.61 11.31 9.67.77 4.02.31 8.15.39 12.21-4.04-.15-8.13.36-12.12-.31-3.64-.92-3.44-5.89-6.83-7.04-6.61-2.46-14.67.06-18.83 5.73-3.81 5.2-4.48 12.32-2.53 18.37 2.38 7.2 10.12 11.63 17.51 11.27 7.33.07 13.69-4.31 18.85-9.11 2.52 4.25 4.97 8.54 7.73 12.64-12.83 15.59-39.3 16.95-53.66 2.73-12.94-12.47-12.96-35.62-.08-48.13zm81.56-9.31c11.07-2.24 23.44.32 31.82 8.18 13.36 12.31 13.79 35.63 1.14 48.61-9.3 9.61-24.27 12.3-36.78 8.31-8.66-2.65-16.11-9.17-19.72-17.5-4.42-9.81-3.97-21.64.98-31.17 4.46-8.58 13.11-14.63 22.56-16.43m2.04 16.2c-12.36 5.09-13.53 24.41-3.06 32 6.6 4.82 17.02 3.06 21.47-3.86 4.69-7.28 4.26-17.76-1.45-24.38-4.21-4.53-11.23-5.96-16.96-3.76zm64.44-7.62c5.93-7.33 15.98-11.17 25.2-8.54 5.57 1.11 9.75 5.39 12.28 10.28 7.59-10.53 23.25-14.59 34.49-7.63 6.92 4.42 8.24 13.14 9.12 20.63v42.54c-4.73-.14-9.71.69-14.24-1.01-3.25-1.34-4.28-5.11-4.28-8.32-.05-10.01.03-20.03.01-30.05-.13-3.08-.25-6.64-2.53-8.98-3.54-2.68-8.65-1.62-12 .87-5.47 4.22-7.66 11.45-7.6 18.15.01 9.79.03 19.58.01 29.37-6.07-.02-12.13-.01-18.19-.03.09-12.47.01-24.94.06-37.41-.07-3.8-.31-8.17-3.27-10.94-3.72-2.88-9.21-1.59-12.39 1.5-5.19 4.99-6.63 12.56-6.77 19.48-.09 9.11-.07 18.22.03 27.33-5.92.1-11.84.07-17.76.02.09-21.69.03-43.38.03-65.07 4.46.22 9.26-.78 13.45 1.18 2.65 1.18 3.36 4.18 4.35 6.63zm-174.43 36.53c6.62-2.11 14.06 3.48 13.97 10.4.2 6.44-6.07 12.05-12.45 11.01-6.04-.65-10.74-6.99-9.35-12.97.76-4.02 3.86-7.41 7.83-8.44z" fill="#01acee"/></svg>