<svg id="Layer_1" xmlns="http://www.w3.org/2000/svg" width="37.8" height="43.5" viewBox="0 0 37.8 43.5"><style>.st0{fill:#9fa4a6}</style><path class="st0" d="M592.5 348.3h1.4l3.3 4.3v-4.3h1.5v7h-1.3l-3.4-4.4v4.4h-1.5v-7m10.7 4c-.1-.7-.5-1.1-1.1-1.1-.6 0-1 .4-1.2 1.1h2.3zm-3.7.4c0-1.5 1.1-2.8 2.6-2.8 1.8 0 2.6 1.4 2.6 2.9v.4H601c.2.7.6 1 1.3 1 .5 0 .9-.2 1.3-.5l.9.8c-.5.6-1.2 1-2.2 1-1.7 0-2.8-1.2-2.8-2.8m6.2 1.1v-2.5h-.7V350h.6v-1.4h1.5v1.4h1.3v1.3h-1.3v2.3c0 .4.2.5.5.5s.5-.1.8-.2v1.2c-.3.2-.7.3-1.2.3-.9 0-1.5-.3-1.5-1.6m14.8-1.1c0-.9-.6-1.5-1.3-1.5s-1.3.6-1.3 1.5.6 1.5 1.3 1.5 1.3-.6 1.3-1.5zm-4.1-2.7h1.5v.8c.4-.5.9-.9 1.7-.9 1.2 0 2.4 1 2.4 2.8 0 1.8-1.2 2.8-2.4 2.8-.8 0-1.3-.4-1.7-.8v2.3h-1.5v-7m10.3 2.7c0-.9-.6-1.5-1.3-1.5s-1.3.6-1.3 1.5.6 1.5 1.3 1.5 1.3-.6 1.3-1.5zm-4.1-2.7h1.5v.8c.4-.5.9-.9 1.7-.9 1.2 0 2.4 1 2.4 2.8 0 1.8-1.2 2.8-2.4 2.8-.8 0-1.3-.4-1.7-.8v2.3h-1.5v-7m-9.3 2.4l-.9-2.3-.9 2.3h1.8zm-1.6-4.1h1.4l2.9 7h-1.6l-.6-1.6H611l-.6 1.6h-1.6l2.9-7m-19.2-34.8v29.6h13.8v-17.7h7.9v17.7H628v-29.6h-35.5m37.8 37.7h-.2v-1l-.4 1h-.1l-.4-1v1h-.2V350h.3l.3.9.3-.9h.3l.1 1.2zm-1.4-1h-.3v1h-.2v-1h-.3v-.2h.9v.2" transform="translate(-592.515 -313.403)"/></svg>