<svg width="159" height="56" viewBox="0 0 159 56" fill="none" xmlns="http://www.w3.org/2000/svg">
<path d="M29.495 30.4799C27.1185 32.8561 27.1185 36.7134 29.495 39.0896C31.8716 41.4659 35.7294 41.4659 38.1059 39.0896C40.4824 36.7134 40.4824 32.8561 38.1059 30.4799C35.7294 28.1037 31.8716 28.1037 29.495 30.4799ZM35.941 36.925C34.769 38.0968 32.8482 38.0968 31.6762 36.925C30.5042 35.7532 30.5042 33.8327 31.6762 32.6608C32.8482 31.489 34.769 31.489 35.941 32.6608C37.113 33.8327 37.113 35.7532 35.941 36.925ZM41.7033 31.7168H44.2588V33.0026C44.8774 32.1563 45.7401 31.5378 47.0586 31.5378C49.1584 31.5378 51.1605 33.1816 51.1605 36.1926V36.2252C51.1605 39.2361 49.191 40.8799 47.0586 40.8799C45.6913 40.8799 44.8611 40.2615 44.2588 39.5291V43.3864H41.7033V31.7168ZM48.605 36.2414V36.2089C48.605 34.7115 47.5957 33.7187 46.4075 33.7187C45.2192 33.7187 44.2263 34.7115 44.2263 36.2089V36.2414C44.2263 37.7388 45.2192 38.7316 46.4075 38.7316C47.5957 38.7153 48.605 37.755 48.605 36.2414ZM52.9674 36.2577V36.2252C52.9674 33.6699 54.7905 31.5541 57.3949 31.5541C60.3899 31.5541 61.7573 33.8815 61.7573 36.4205C61.7573 36.6158 61.741 36.8599 61.7247 37.0877H55.4904C55.7346 38.2433 56.5484 38.8455 57.6879 38.8455C58.5343 38.8455 59.1529 38.5851 59.8691 37.9341L61.3178 39.2198C60.4876 40.2615 59.2831 40.8962 57.6553 40.8962C54.9532 40.8799 52.9674 38.992 52.9674 36.2577ZM59.2831 35.4928C59.1366 34.3535 58.4692 33.5885 57.3949 33.5885C56.3368 33.5885 55.6532 34.3372 55.4578 35.4928H59.2831ZM63.5804 31.7168H66.1848V33.0189C66.7871 32.2539 67.5521 31.5541 68.8706 31.5541C70.8402 31.5541 71.9796 32.8561 71.9796 34.9557V40.8799H69.3752V35.7694C69.3752 34.5325 68.7892 33.914 67.7963 33.914C66.8033 33.914 66.1685 34.5488 66.1685 35.7694V40.8799H63.5641V31.7168H63.5804ZM38.0082 0.549297L34.2807 4.27638C33.5482 5.00878 33.5482 6.19689 34.2807 6.92929L48.8491 21.4958C49.5816 22.2282 50.7699 22.2282 51.5024 21.4958L55.2299 17.7688C55.9624 17.0364 55.9624 15.8482 55.2299 15.1159L40.6615 0.549297C39.929 -0.183099 38.7407 -0.183099 38.0082 0.549297ZM11.8827 48.1876C12.55 47.5203 12.55 46.4462 11.8827 45.7789L9.97818 43.8746C9.31079 43.2073 8.23647 43.2073 7.56909 43.8746L3.66246 47.7807L2.58814 46.7066C2.00215 46.1206 1.02549 46.1206 0.439496 46.7066C-0.146499 47.2925 -0.146499 48.269 0.439496 48.8549L6.90171 55.3163C7.4877 55.9022 8.46436 55.9022 9.05035 55.3163C9.63635 54.7304 9.63635 53.7538 9.05035 53.1679L7.97603 52.0937L11.8827 48.1876Z" fill="#F5A800"/>
<path d="M31.611 11.2423L23.3257 19.5266C22.5932 20.259 22.5932 21.4796 23.3257 22.212L28.4369 27.3225C32.0505 24.7184 37.1291 25.044 40.3847 28.2991L44.5192 24.1651C45.2517 23.4327 45.2517 22.212 44.5192 21.4796L34.2968 11.2586C33.5481 10.51 32.3435 10.51 31.611 11.2423ZM26.2882 29.4872L23.2606 26.4599C22.5607 25.7601 21.3887 25.7601 20.6887 26.4599L10.0269 37.1204C9.32697 37.8202 9.32697 38.992 10.0269 39.6919L16.0659 45.7301C16.7658 46.4299 17.9378 46.4299 18.6378 45.7301L25.4906 38.8781C24.0582 35.8672 24.3187 32.254 26.2882 29.4872ZM76.7977 31.1635H73.0864V28.6897H83.1948V31.1635H79.4835V40.88H76.7977V31.1635ZM83.2111 36.2415V36.2089C83.2111 33.6537 85.0342 31.5379 87.6386 31.5379C90.6337 31.5379 92.001 33.8653 92.001 36.4042C92.001 36.5995 91.9847 36.8437 91.9684 37.0715H85.7341C85.9783 38.2271 86.7921 38.8293 87.9316 38.8293C88.778 38.8293 89.3966 38.5689 90.1128 37.9179L91.5615 39.2036C90.7313 40.2453 89.5268 40.88 87.899 40.88C85.1969 40.88 83.2111 38.992 83.2111 36.2415ZM89.5268 35.4928C89.3803 34.3535 88.7129 33.5886 87.6386 33.5886C86.5805 33.5886 85.8969 34.3373 85.7015 35.4928H89.5268ZM93.8078 28.6897H96.3471V40.88H93.8078V28.6897ZM98.1539 36.2578V36.2252C98.1539 33.67 99.977 31.5541 102.581 31.5541C105.576 31.5541 106.944 33.8815 106.944 36.4205C106.944 36.6158 106.928 36.86 106.911 37.0878H100.677C100.921 38.2434 101.735 38.8456 102.874 38.8456C103.721 38.8456 104.339 38.5852 105.056 37.9341L106.504 39.2199C105.674 40.2615 104.47 40.8963 102.842 40.8963C100.156 40.88 98.1539 38.992 98.1539 36.2578ZM104.486 35.5091C104.339 34.3698 103.672 33.6049 102.598 33.6049C101.54 33.6049 100.856 34.3535 100.661 35.5091H104.486ZM108.767 31.7169H111.371V33.0189C111.974 32.254 112.755 31.5541 114.073 31.5541C115.262 31.5541 116.173 32.0912 116.645 33.0027C117.443 32.0587 118.403 31.5541 119.657 31.5541C121.594 31.5541 122.749 32.7097 122.749 34.9232V40.88H120.145V35.7695C120.145 34.5326 119.592 33.9141 118.631 33.9141C117.655 33.9141 117.052 34.5488 117.052 35.7695V40.88H114.448V35.7695C114.448 34.5326 113.894 33.9141 112.934 33.9141C111.957 33.9141 111.355 34.5488 111.355 35.7695V40.88H108.751V31.7169H108.767ZM124.556 36.2415V36.2089C124.556 33.6537 126.379 31.5379 128.984 31.5379C131.979 31.5379 133.346 33.8653 133.346 36.4042C133.346 36.5995 133.33 36.8437 133.314 37.0715H127.079C127.323 38.2271 128.137 38.8293 129.277 38.8293C130.123 38.8293 130.742 38.5689 131.458 37.9179L132.907 39.2036C132.076 40.2453 130.872 40.88 129.244 40.88C126.542 40.88 124.556 38.992 124.556 36.2415ZM130.872 35.4928C130.725 34.3535 130.058 33.5886 128.984 33.5886C127.926 33.5886 127.242 34.3373 127.047 35.4928H130.872ZM135.446 38.1132V33.7351H134.339V31.489H135.446V29.1291H138.067V31.489H140.248V33.7351H138.083V37.6737C138.083 38.2759 138.343 38.5689 138.929 38.5689C139.418 38.5689 139.841 38.455 140.215 38.2434V40.3429C139.662 40.6684 139.027 40.88 138.148 40.88C136.537 40.88 135.446 40.2453 135.446 38.1132ZM142.217 31.6518H144.854V33.5235C145.392 32.2377 146.254 31.4077 147.817 31.4728V34.2396H147.67C145.912 34.2396 144.838 35.2975 144.838 37.5273V40.9614H142.201V31.6518H142.217ZM156.2 31.5541H159L155.353 41.2869C154.621 43.2237 153.84 43.9398 152.228 43.9398C151.251 43.9398 150.535 43.6957 149.835 43.2888L150.731 41.3357C151.089 41.5473 151.528 41.71 151.886 41.71C152.342 41.71 152.603 41.5636 152.83 41.0916L149.103 31.5541H151.951L154.116 38.0155L156.2 31.5541Z" fill="#425CC7"/>
</svg>