<svg width="88" height="20" viewBox="0 0 88 20" fill="none" xmlns="http://www.w3.org/2000/svg">
<g style="mix-blend-mode:multiply">
<path d="M32.8302 4.2793H27.9996C27.6444 4.2793 27.3603 4.47091 27.3603 4.79027L25.3712 15.9678C25.3002 16.1594 25.5133 16.4149 25.7974 16.4149H28.1417C28.4969 16.4149 28.781 16.2233 28.781 15.9039L29.2783 12.902C29.3493 12.5826 29.6335 12.391 29.9176 12.391H31.4804C34.6772 12.391 36.5241 10.9858 37.0214 8.23934C37.2345 7.02578 37.0214 6.0677 36.3821 5.42899C35.6717 4.7264 34.464 4.2793 32.8302 4.2793ZM33.3985 8.43095C33.1143 10.0277 31.8356 10.0277 30.4859 10.0277H29.7755L30.2728 7.08965C30.2728 6.89803 30.4859 6.77029 30.699 6.77029H31.0542C31.9067 6.77029 32.7591 6.77029 33.1854 7.21739C33.3985 7.47288 33.4695 7.85611 33.3985 8.43095ZM47.3929 8.36708H45.0487C44.8356 8.36708 44.6935 8.49482 44.6225 8.68644L44.5514 9.26128L44.4093 9.06967C43.9121 8.43095 42.7755 8.17547 41.6389 8.17547C39.0815 8.17547 36.8793 9.9 36.4531 12.391C36.24 13.6046 36.5241 14.8181 37.3056 15.5846C38.0159 16.351 39.0105 16.6704 40.2181 16.6704C42.2782 16.6704 43.4148 15.4568 43.4148 15.4568L43.3438 16.0317C43.2727 16.2233 43.4858 16.4788 43.77 16.4788H45.8301C46.1853 16.4788 46.4694 16.2872 46.4694 15.9678L47.7481 8.81418C47.8192 8.5587 47.606 8.36708 47.3929 8.36708ZM44.1252 12.391C43.9121 13.6046 42.8465 14.371 41.4968 14.371C40.7864 14.371 40.2891 14.1794 39.934 13.7962C39.5788 13.4129 39.4367 12.902 39.5788 12.3271C39.7919 11.1136 40.8574 10.2832 42.2072 10.2832C42.8465 10.2832 43.4148 10.4748 43.77 10.8581C44.0542 11.3052 44.1962 11.8161 44.1252 12.391ZM59.7535 8.36708H57.4093C57.1962 8.36708 56.983 8.49482 56.841 8.62257L53.6443 12.902L52.2945 8.81418C52.2235 8.5587 51.9394 8.36708 51.6552 8.36708H49.382C49.0978 8.36708 48.8847 8.62257 49.0268 8.87805L51.5842 15.6484L49.1689 18.7143C48.9558 18.9698 49.1689 19.2891 49.5241 19.2891H51.8683C52.0814 19.2891 52.2945 19.1614 52.4366 19.0336L60.1087 8.94193C60.2508 8.68644 60.1087 8.36708 59.7535 8.36708Z" fill="#7F8184"/>
<path d="M67.4962 4.2793H62.6656C62.3104 4.2793 62.0263 4.47091 62.0263 4.79027L60.0372 15.9678C59.9662 16.1594 60.1793 16.4149 60.4634 16.4149H62.9498C63.1629 16.4149 63.376 16.2872 63.447 16.0317L64.0153 12.8381C64.0864 12.5187 64.3705 12.3271 64.6547 12.3271H66.2175C69.4142 12.3271 71.2612 10.9219 71.7585 8.17547C71.9716 6.96191 71.7585 6.00383 71.1191 5.36511C70.3377 4.7264 69.1301 4.2793 67.4962 4.2793ZM68.0645 8.43095C67.7803 10.0277 66.5016 10.0277 65.1519 10.0277H64.4416L64.9388 7.08965C64.9388 6.89803 65.1519 6.77029 65.365 6.77029H65.7202C66.5727 6.77029 67.4251 6.77029 67.8514 7.21739C68.0645 7.47288 68.1355 7.85611 68.0645 8.43095ZM81.9879 8.36708H79.6437C79.4305 8.36708 79.2885 8.49482 79.2174 8.68644L79.1464 9.26128L79.0043 9.06967C78.5071 8.43095 77.3704 8.17547 76.2338 8.17547C73.6765 8.17547 71.4743 9.9 71.0481 12.391C70.835 13.6046 71.1191 14.8181 71.9005 15.5846C72.6109 16.351 73.6054 16.6704 74.8131 16.6704C76.8732 16.6704 78.0098 15.4568 78.0098 15.4568L77.9387 16.0317C77.8677 16.2233 78.0808 16.4788 78.365 16.4788H80.4251C80.7803 16.4788 81.0644 16.2872 81.0644 15.9678L82.3431 8.81418C82.4852 8.5587 82.2721 8.36708 81.9879 8.36708ZM78.7912 12.391C78.5781 13.6046 77.5125 14.371 76.1628 14.371C75.5235 14.371 74.9552 14.1794 74.6 13.7962C74.2448 13.4129 74.1027 12.902 74.2448 12.3271C74.4579 11.1136 75.5235 10.2832 76.8732 10.2832C77.5125 10.2832 78.0808 10.4748 78.436 10.8581C78.7202 11.3052 78.8622 11.8161 78.7912 12.391ZM84.7584 4.59865L82.7693 16.0317C82.6983 16.2233 82.9114 16.4788 83.1956 16.4788H85.1846C85.5398 16.4788 85.824 16.2872 85.824 15.9678L87.813 4.79027C87.8841 4.59866 87.6709 4.34317 87.3868 4.34317H85.1136C84.9715 4.2793 84.7584 4.47091 84.7584 4.59865Z" fill="#7F8184"/>
<path d="M5.19731 18.6505L5.5525 16.5427H0.792969L3.49241 0.830287C3.49241 0.766415 3.56344 0.702544 3.56344 0.702544C3.63448 0.702544 3.70552 0.638672 3.70552 0.638672H10.3831C12.5852 0.638672 14.1481 1.08577 14.9295 1.91611C15.2847 2.29934 15.5688 2.68257 15.6399 3.12967C15.7819 3.57677 15.7819 4.15162 15.6399 4.79034V5.30131L15.9951 5.49293C16.2792 5.62067 16.5634 5.81229 16.7765 6.0039C17.1317 6.32326 17.2737 6.77036 17.4158 7.21747C17.4869 7.72844 17.4869 8.30329 17.3448 9.00588C17.2027 9.77234 16.9186 10.4749 16.4923 11.0498C16.1371 11.5607 15.7109 12.0079 15.2136 12.3272C14.7164 12.6466 14.1481 12.9021 13.4377 13.0298C12.7984 13.1575 12.088 13.2853 11.2355 13.2853H10.7383C10.3831 13.2853 10.0279 13.413 9.74373 13.6046C9.45958 13.7963 9.24647 14.1156 9.24647 14.435L9.17543 14.6266L8.53609 18.395V18.5228C8.53609 18.5866 8.53609 18.5866 8.46505 18.5866H8.39402C8.39402 18.6505 5.19731 18.6505 5.19731 18.6505Z" fill="#7F8184"/>
<path d="M16.3497 4.91797V5.23733C15.4973 9.32512 12.4426 10.6664 8.60658 10.6664H6.61751C6.12025 10.6664 5.76506 10.9858 5.69402 11.369L4.69949 17.0536L4.41534 18.6504C4.3443 18.9059 4.62845 19.1614 4.9126 19.1614H8.39346C8.81969 19.1614 9.17488 18.9059 9.24592 18.5227V18.3949L9.88526 14.6903L9.9563 14.4987C10.0273 14.1155 10.3825 13.86 10.8088 13.86H11.306C14.6448 13.86 17.2732 12.6465 18.0546 9.06963C18.4098 7.60058 18.1967 6.32315 17.3442 5.49281C17.0601 5.3012 16.7759 5.04571 16.3497 4.91797Z" fill="#C3C7C9"/>
<path d="M15.4985 4.59865C15.3565 4.53478 15.2144 4.47091 15.0723 4.47091C14.9302 4.47091 14.7882 4.40704 14.6461 4.40704C14.1488 4.34317 13.5095 4.2793 12.9412 4.2793H7.68437C7.5423 4.2793 7.40022 4.2793 7.32918 4.34317C7.04503 4.47091 6.90296 4.66253 6.83192 4.91801L5.69531 11.2413V11.4329C5.76635 10.9858 6.19258 10.7303 6.61881 10.7303H8.60787C12.4439 10.7303 15.4275 9.32515 16.351 5.30124V4.91801C16.1379 4.79027 15.8537 4.7264 15.6406 4.66253C15.5696 4.59865 15.4985 4.59865 15.4985 4.59865Z" fill="#7F7F7F"/>
<path d="M6.83059 4.91813C6.90163 4.66264 7.0437 4.47102 7.32786 4.34328C7.46993 4.27941 7.54097 4.27941 7.68305 4.27941H12.9398C13.5792 4.27941 14.1475 4.34328 14.6448 4.40715C14.7868 4.40715 14.9289 4.47102 15.071 4.47102C15.2131 4.47102 15.3551 4.5349 15.4972 4.59877C15.5682 4.59877 15.6393 4.66264 15.7103 4.66264C15.9945 4.72651 16.2076 4.85426 16.4207 4.91813C16.7049 3.44908 16.4207 2.42713 15.4972 1.46905C14.5027 0.447102 12.7267 0 10.3825 0H3.70493C3.2787 0 2.85247 0.319359 2.78143 0.70259L0.0109584 16.5428C-0.0600795 16.8622 0.224072 17.1176 0.579261 17.1176H4.69946L5.69399 11.2414L6.83059 4.91813Z" fill="#7F8184"/>
</g>
</svg>
