<svg xmlns="http://www.w3.org/2000/svg" width="213" height="50" viewBox="0 0 213 50"><style>.st0{fill:#9fa3a5}.st1{display:none}.st2{display:inline}.st3{fill:none;stroke:#939799;stroke-width:.5;stroke-miterlimit:10;stroke-dasharray:1.016,2.0319}.st4{display:inline}.st4,.st5{fill:none;stroke:#939799;stroke-width:.5;stroke-miterlimit:10;stroke-dasharray:1,2}</style><g id="Layer_1"><path class="st0" d="M24.9 0C11.1 0-.1 11.2-.1 25c0 8.5 4.3 16 10.8 20.5V25c0-7.9 6.4-14.2 14.2-14.2S39.2 17.1 39.2 25c0 7.9-6.4 14.2-14.2 14.2-3.2 0-6.1-1.1-8.5-2.8v12.1c2.6 1 5.5 1.5 8.5 1.5 13.8 0 25-11.2 25-25-.1-13.8-11.3-25-25.1-25z"/><circle class="st0" cx="24.9" cy="25" r="8.3"/><path class="st0" d="M24.9 17.5c4.5 0 8.1 3.5 8.3 7.9V25c0-4.6-3.7-8.3-8.3-8.3s-8.3 3.7-8.3 8.3v.4c.2-4.4 3.9-7.9 8.3-7.9zM65.7 33.4V16.6h7c3.8 0 6.3 2.2 6.3 5.7 0 3.4-2.6 5.8-6.3 5.8h-3.3v5.3h-3.7zm6.8-8.4c1.8 0 2.8-1 2.8-2.6s-1-2.6-2.8-2.6h-3.1V25h3.1zM87.1 33.4V16.6h11.8v3.2h-8.1v3.5h7.4v3.2h-7.4v3.7h8.1v3.2zM117 33.4l-3-5.2h-3v5.2h-3.7V16.6h7.6c3.7 0 6.1 2.3 6.1 5.8 0 2.3-1.2 4.2-3.1 5.1l3.5 5.8H117zm-2.5-8.3c1.7 0 2.8-1 2.8-2.7 0-1.7-1-2.6-2.8-2.6H111v5.3h3.5zM159 33.7c-4.5 0-7.5-2.9-7.5-7.5v-2.4c0-4.6 2.9-7.5 7.5-7.5s7.5 2.9 7.5 7.5v2.4c0 4.6-2.9 7.5-7.5 7.5zm0-14.2c-2.4 0-3.8 1.5-3.8 4.2v2.7c0 2.7 1.4 4.2 3.8 4.2s3.8-1.5 3.8-4.2v-2.7c0-2.7-1.4-4.2-3.8-4.2zM185.3 33.4l-6.7-10.3v10.3H175V16.6h3.4l6.7 10.3V16.6h3.7v16.8zM208.8 33.4l-1.1-3.4h-6l-1.1 3.4h-3.7l6-16.7h3.6l6 16.7h-3.7zm-2.1-6.5l-2-6.3-2 6.3h4zM140.2 27.5c-.3 1.9-1.6 3.1-3.5 3.1-3.2 0-3.6-2.6-3.6-4.2v-2.6c0-1.6.5-4.2 3.6-4.2 1.9 0 3.2 1.1 3.5 3.1l3.5-.5c-.5-3.4-3.2-5.7-7-5.7-4.6 0-7.3 2.8-7.3 7.5v2.3c0 4.7 2.7 7.5 7.3 7.5 3.7 0 6.5-2.3 7-5.7l-3.5-.6z"/></g><g id="Guides" class="st1"><g class="st2"><circle class="st3" cx="-712.7" cy="36.5" r="11.2"/></g><g class="st2"><circle class="st3" cx="-712.7" cy="125.8" r="11.2"/></g><g class="st2"><circle class="st3" cx="-757.3" cy="81.2" r="11.2"/></g><g class="st2"><circle class="st3" cx="-459" cy="81.6" r="11.2"/></g><g class="st2"><circle class="st3" cx="-668" cy="81.2" r="11.2"/></g><g class="st2"><circle class="st3" cx="-643.1" cy="81.2" r="11.2"/></g><g class="st2"><circle class="st3" cx="-619" cy="81.2" r="11.2"/></g><g class="st2"><circle class="st3" cx="-593.4" cy="81.2" r="11.2"/></g><g class="st2"><circle class="st3" cx="-565.8" cy="81.2" r="11.2"/></g><g class="st2"><circle class="st3" cx="-534.1" cy="81.2" r="11.2"/></g><g class="st2"><circle class="st3" cx="-504" cy="81.2" r="11.2"/></g><path class="st4" d="M-783.5 69.8l346.3.4M-783.5 92l346.3.4M-783.5 588.5l352 .5M-783.5 610.7l352 .5"/><g class="st2"><circle class="st3" cx="-712.7" cy="555" r="11.2"/></g><g class="st2"><circle class="st3" cx="-712.7" cy="644.3" r="11.2"/></g><g class="st2"><circle class="st3" cx="-757.3" cy="599.6" r="11.2"/></g><g class="st2"><circle class="st3" cx="-668" cy="599.6" r="11.2"/></g><path class="st4" d="M-643.3 47.7V110"/><g class="st2"><circle class="st3" cx="-640.8" cy="599.7" r="11.2"/><path class="st5" d="M-640.8 568.5v62.4"/></g><g class="st2"><circle class="st3" cx="-614.2" cy="599.7" r="11.2"/><path class="st5" d="M-614.2 568.5v62.4"/></g><g class="st2"><circle class="st3" cx="-585.3" cy="599.7" r="11.2"/><path class="st5" d="M-585.3 568.5v62.4"/></g><g class="st2"><circle class="st3" cx="-555.7" cy="599.7" r="11.2"/><path class="st5" d="M-555.7 568.5v62.4"/></g><g class="st2"><circle class="st3" cx="-525.2" cy="599.7" r="11.2"/><path class="st5" d="M-525.2 568.5v62.4"/></g><g class="st2"><circle class="st3" cx="-496.1" cy="599.7" r="11.2"/><path class="st5" d="M-496.1 568.5v62.4"/></g><path class="st4" d="M-484.9 568.5v62.4M-464.5 568.5v62.4"/><g class="st2"><circle class="st3" cx="-453.4" cy="599.7" r="11.2"/></g><path class="st4" d="M-619.4 47.7V110M-593.4 47.7V110M-565.8 47.7V110M-534.1 47.7V110M-504 47.7V110M-492.9 47.7V110"/><g class="st2"><path class="st5" d="M-437.2 137.4l-346.3-.4M-783.5 25.3l346.3.5M-768.5 146.9V15.4M-447.9 15.9v131.5"/></g><g class="st2"><path class="st5" d="M-431.5 656l-352-.4M-783.5 543.9l352 .5M-768.5 665.5V534M-442.2 531.6v134.3"/></g><path class="st4" d="M-470.2 47.7V110"/><g class="st2"><circle class="st3" cx="-712.7" cy="203.1" r="11.2"/></g><g class="st2"><circle class="st3" cx="-712.7" cy="292.4" r="11.2"/></g><g class="st2"><circle class="st3" cx="-757.3" cy="247.8" r="11.2"/></g><g class="st2"><circle class="st3" cx="-459" cy="248.2" r="11.2"/></g><g class="st2"><circle class="st3" cx="-668" cy="247.8" r="11.2"/></g><g class="st2"><circle class="st3" cx="-643.1" cy="247.8" r="11.2"/></g><g class="st2"><circle class="st3" cx="-619" cy="247.8" r="11.2"/></g><g class="st2"><circle class="st3" cx="-593.4" cy="247.8" r="11.2"/></g><g class="st2"><circle class="st3" cx="-565.8" cy="247.8" r="11.2"/></g><g class="st2"><circle class="st3" cx="-534.1" cy="247.8" r="11.2"/></g><g class="st2"><circle class="st3" cx="-504" cy="247.8" r="11.2"/></g><path class="st4" d="M-783.5 236.4l346.3.4M-783.5 258.6l346.3.4M-643.3 214.3v62.3M-619.4 214.3v62.3M-593.4 214.3v62.3M-565.8 214.3v62.3M-534.1 214.3v62.3M-504 214.3v62.3M-492.9 214.3v62.3"/><g class="st2"><path class="st5" d="M-437.2 304l-346.3-.4M-783.5 192l346.3.4M-768.5 313.5V182M-447.9 182.5V314"/></g><path class="st4" d="M-470.2 214.3v62.3"/><g class="st2"><circle class="st3" cx="-712.7" cy="388.1" r="11.2"/></g><g class="st2"><circle class="st3" cx="-712.7" cy="477.4" r="11.2"/></g><g class="st2"><circle class="st3" cx="-757.3" cy="432.8" r="11.2"/></g><g class="st2"><circle class="st3" cx="-459" cy="433.2" r="11.2"/></g><g class="st2"><circle class="st3" cx="-668" cy="432.8" r="11.2"/></g><g class="st2"><circle class="st3" cx="-643.1" cy="432.9" r="11.2"/></g><g class="st2"><circle class="st3" cx="-619" cy="432.9" r="11.2"/></g><g class="st2"><circle class="st3" cx="-593.4" cy="432.9" r="11.2"/></g><g class="st2"><circle class="st3" cx="-565.8" cy="432.9" r="11.2"/></g><g class="st2"><circle class="st3" cx="-534.1" cy="432.9" r="11.2"/></g><g class="st2"><circle class="st3" cx="-504" cy="432.9" r="11.2"/></g><path class="st4" d="M-783.5 421.4l346.3.5M-783.5 443.6l346.3.5M-643.3 399.3v62.3M-619.4 399.3v62.3M-593.4 399.3v62.3M-565.8 399.3v62.3M-534.1 399.3v62.3M-504 399.3v62.3M-492.9 399.3v62.3"/><g class="st2"><path class="st5" d="M-437.2 489l-346.3-.4M-783.5 377l346.3.4M-768.5 498.5V367M-447.9 367.5V499"/></g><path class="st4" d="M-470.2 399.3v62.3"/></g></svg>