<svg id="Layer_1" xmlns="http://www.w3.org/2000/svg" width="160" height="33.7" viewBox="0 0 160 33.7"><style>.st0{fill:#f15a29}</style><path class="st0" d="M49.9 14.1c0 1.6-.5 2.7-1.6 3.6-1.1.8-2.6 1.3-4.5 1.3H42v6h-1.8V9.6h4c3.8 0 5.7 1.5 5.7 4.5zM42 17.4h1.6c1.6 0 2.7-.3 3.4-.8.7-.5 1.1-1.3 1.1-2.5 0-1-.3-1.8-1-2.3-.7-.5-1.7-.7-3.1-.7h-2v6.3zm16.1-4.2c.5 0 1 0 1.4.1l-.3 1.7c-.5-.1-.9-.2-1.3-.2-.9 0-1.7.4-2.4 1.1-.7.8-1 1.7-1 2.8v6.2h-1.7V13.4h1.4l.2 2.1h.1c.4-.7.9-1.3 1.5-1.7.7-.4 1.4-.6 2.1-.6zm13.4 6c0 1.9-.5 3.3-1.4 4.4-.9 1.1-2.2 1.6-3.9 1.6-1 0-1.9-.2-2.7-.7-.8-.5-1.4-1.2-1.8-2.1s-.6-2-.6-3.2c0-1.9.5-3.3 1.4-4.4.9-1 2.2-1.6 3.9-1.6 1.6 0 2.9.5 3.8 1.6.9 1.1 1.3 2.6 1.3 4.4zm-8.7 0c0 1.5.3 2.6.9 3.4.6.8 1.5 1.2 2.6 1.2s2-.4 2.6-1.1c.6-.8.9-1.9.9-3.4s-.3-2.6-.9-3.3c-.6-.8-1.5-1.1-2.6-1.1s-2 .4-2.6 1.1c-.6.6-.9 1.7-.9 3.2zm26.4 5.7v-7.5c0-.9-.2-1.6-.6-2.1-.4-.5-1-.7-1.8-.7-1.1 0-1.9.3-2.4.9-.5.6-.8 1.6-.8 2.9v6.4h-1.7v-7.5c0-.9-.2-1.6-.6-2.1-.4-.5-1-.7-1.8-.7-1.1 0-1.9.3-2.4 1s-.8 1.7-.8 3.2v6h-1.7V13.4H76l.3 1.6h.1c.3-.6.8-1 1.4-1.3.6-.3 1.3-.5 2-.5 1.8 0 3 .6 3.5 1.9h.1c.3-.6.8-1.1 1.5-1.4.6-.3 1.4-.5 2.2-.5 1.3 0 2.3.3 2.9 1 .6.7 1 1.7 1 3.2v7.5h-1.8zm10.2.2c-1.7 0-3-.5-4-1.6-1-1-1.5-2.5-1.5-4.3 0-1.9.5-3.3 1.4-4.4s2.1-1.6 3.7-1.6c1.4 0 2.6.5 3.4 1.4.8.9 1.3 2.2 1.3 3.7v1.1h-7.9c0 1.3.4 2.4 1 3.1.6.7 1.6 1 2.7 1 1.2 0 2.5-.3 3.7-.8v1.6c-.6.3-1.2.5-1.7.6-.6.2-1.3.2-2.1.2zm-.5-10.4c-.9 0-1.7.3-2.2.9-.5.6-.9 1.4-1 2.5h6c0-1.1-.2-1.9-.7-2.5-.4-.6-1.1-.9-2.1-.9zm11.4 9c.3 0 .6 0 .9-.1.3 0 .5-.1.7-.1v1.3c-.2.1-.5.2-.8.2-.4.1-.7.1-1 .1-2.2 0-3.3-1.2-3.3-3.5v-6.8h-1.6V14l1.6-.7.7-2.5h1v2.7h3.3v1.4h-3.3v6.8c0 .7.2 1.2.5 1.6.3.2.7.4 1.3.4zm11.8 1.2v-7.4c0-.9-.2-1.6-.6-2.1-.4-.5-1.1-.7-2-.7-1.2 0-2.1.3-2.6 1-.6.7-.8 1.7-.8 3.2v6h-1.7V8.6h1.7v4.9c0 .6 0 1.1-.1 1.5h.1c.3-.6.8-1 1.5-1.3.6-.3 1.4-.5 2.2-.5 1.4 0 2.5.3 3.2 1 .7.7 1.1 1.7 1.1 3.2v7.5h-2zm10.1.2c-1.7 0-3-.5-4-1.6-1-1-1.5-2.5-1.5-4.3 0-1.9.5-3.3 1.4-4.4.9-1.1 2.1-1.6 3.7-1.6 1.4 0 2.6.5 3.4 1.4.8.9 1.3 2.2 1.3 3.7v1.1h-7.9c0 1.3.4 2.4 1 3.1.6.7 1.6 1 2.7 1 1.2 0 2.5-.3 3.7-.8v1.6c-.6.3-1.2.5-1.7.6s-1.3.2-2.1.2zm-.5-10.4c-.9 0-1.7.3-2.2.9-.5.6-.9 1.4-1 2.5h6c0-1.1-.2-1.9-.7-2.5-.4-.6-1.1-.9-2.1-.9zm9.3-1.3v7.5c0 .9.2 1.6.6 2.1.4.5 1.1.7 2 .7 1.2 0 2.1-.3 2.6-1 .6-.7.8-1.7.8-3.2v-6h1.7V25h-1.4l-.3-1.5h-.1c-.4.6-.9 1-1.5 1.3-.6.3-1.4.5-2.2.5-1.4 0-2.4-.3-3.1-1-.7-.7-1-1.7-1-3.2v-7.5h1.9zm19 8.4c0 1.1-.4 1.9-1.2 2.5-.8.6-1.9.9-3.4.9s-2.7-.2-3.6-.7v-1.6c.6.3 1.1.5 1.8.7.6.2 1.2.2 1.8.2.9 0 1.6-.1 2.1-.4.5-.3.7-.7.7-1.3 0-.4-.2-.8-.6-1.1-.4-.3-1.1-.7-2.3-1.1-1.1-.4-1.8-.7-2.3-1-.5-.3-.8-.6-1-1s-.3-.8-.3-1.4c0-.9.4-1.7 1.1-2.2.8-.5 1.8-.8 3.1-.8 1.2 0 2.4.3 3.6.8l-.6 1.4c-1.2-.5-2.2-.7-3.1-.7-.8 0-1.4.1-1.9.4-.4.3-.6.6-.6 1.1 0 .3.1.6.2.8.2.2.4.4.8.6.3.2 1 .5 2 .8 1.4.5 2.3 1 2.8 1.5.7.2.9.8.9 1.6zM16.9 0C7.6 0 0 7.6 0 16.9s7.6 16.9 16.9 16.9 16.9-7.6 16.9-16.9S26.2 0 16.9 0zm0 31.4c-2.8 0-5.1-1.8-5.1-4h10.1c0 2.2-2.2 4-5 4zm7.8-5.3H9v-2.9h15.7v2.9zm0-4.4H9c-1.9-2.2-2.3-4.1-2.3-4.1l4.7.9c-.6-.8-1.5-2.3-1.4-4.6 0 0-.2-1 1-3.6s.6-4.7.6-4.7 1.7 0 2.1 4.7c0 0 1.4-1.6 1.3-4.6s1.8-4 1.8-4-.8 1.8.3 3.7c1.1 1.8 1.1 3.6 1.2 5.6 0 .2.1.5.2.7.1.1.2.3.4.3 0 0-.9-5.6 1.9-7.4 0 0-.5 2.6.4 4.1.9 1.5 2.4 3.7 1.9 6.8-.3 1.7-.9 2.5-1.5 3.3l5.5-1.1c-.6 2.3-2.4 4-2.4 4z"/></svg>