<svg id="Layer_1" xmlns="http://www.w3.org/2000/svg" width="513" height="110.3" viewBox="0 0 513 110.3"><style>.st0{fill:#fff}</style><path class="st0" d="M53.2 28.6c-2 4.2-1.2 7.7 1.8 7.8s7.1-3.3 9.1-7.6c2-4.2 1.2-7.7-1.8-7.8-3.1 0-7.1 3.4-9.1 7.6zm24.4-15.3c0 .1 0 .1 0 0-1.8 5.2-4.7 10.9-7.7 15.3-6.2 9.2-15.1 15-19.9 13s-3.6-11.2 2.6-20.4c1.4-2.1 2.9-4 4.5-5.6 0 0 0-.1-.1-.1-2 .3-3.9.7-5.9 1.2-20.9 25.7-29.9 59.1-28.6 88.8 0 0 0 .1-.1.1C10 100.6 1 88.7.1 73.6v-.2c-1.6-26.9 19.8-54.5 47.8-61.5C58.8 9.1 69 9.8 77.6 13.3z"/><path class="st0" d="M69.7 85.8c-2 1.4-4.2 2.7-6.4 3.9 0 0-.1 0-.1-.1-.4-6.4-1.8-12.7-4.2-17.9-6.4-13.9-17.6-15-25-2.4-4.5 7.7-6.6 18.7-6 29.3v.1c7.9 2.5 16.9 2.7 26.5.3 28-7.1 49.3-34.6 47.8-61.5-1.4-23.6-20-38.8-43.4-37.4-2.3 2.3-4.4 4.6-6.4 7 0 0 0 .1.1.1C66.3 5.5 77.4 8.3 84.5 14v.1C59.7 49 62.8 68.9 69.7 85.8c0-.1 0-.1 0 0zM383.7 59.5c-3.8 3.8-6.7 11-6.7 16.7 0 5 1.9 8.1 5.1 8.1 5.2 0 9.6-5.4 11.2-13.3.3-1.8.7-3.6.9-5.2.2-1.6.4-3 .4-4-.2-3.4-1.9-5.2-5.1-5.2-2 0-4 1-5.8 2.9zm5.2 35.3l1.2-6c0-.1 0-.2-.1-.2s-.1 0-.2.1c-2.6 4.4-7.7 7.3-13.5 7.3-9.5 0-13.7-8.4-13.7-16.8 0-9.5 3.7-19 10-25.3 5.3-5.3 12-8 19.6-8 5.8 0 10 1.7 12.7 4.9 4 4.8 3.6 12 2.6 17.2l-5.1 26.8s0 .1-.1.1l-13.4-.1c.1.1.1 0 0 0zm-88.2-48.9c5.8 0 10.2 1.3 12.2 2.5v.1l-2 10.6h-.1c-2.4-1.3-6.5-2.7-10.8-2.7-3.7 0-6.1 1.5-6.1 4.1 0 1.9 1.8 3.5 5.7 5.4 5.1 2.5 10.8 6.3 10.8 13.1 0 4.4-1.5 8.1-4.4 11-3.9 3.8-10.1 5.9-17.7 5.9-5.8-.1-11.7-1.6-14.6-3.7v-.1l2-10.7v-.1h.1c3.1 2 9.3 4.1 13.9 4.1 3.5 0 5.9-1.6 5.9-4.2 0-2.4-1.7-4-5.9-6.1-6.7-3.4-10.1-7.6-10.1-12.7 0-9.9 8.5-16.5 21.1-16.5zm140.5.1c3.6 0 7.3.6 9.8 1.7 0 0 .1 0 0 .1l-2.2 11.4h-.1c-2.2-1.2-4.7-1.8-7.8-1.8-10.1 0-16.2 8.8-16.2 17.3 0 7.2 4.8 9.8 9.3 9.8 4 0 7.4-.9 11.8-3h.1v.1l-2.1 11.6c-3.3 1.6-8.4 2.5-13.6 2.5-12.3 0-20.2-7.7-20.2-19.6C410 59 423.4 46 441.2 46zm-219.4 0c3.6 0 7.3.6 9.8 1.7 0 0 .1 0 0 .1l-2.2 11.4h-.1c-2.2-1.2-4.7-1.8-7.8-1.8-10.1 0-16.1 8.8-16.1 17.3 0 7.2 4.8 9.8 9.3 9.8 4 0 7.4-.9 11.8-3h.1v.1l-2.2 11.6c-3.3 1.6-8.4 2.5-13.6 2.5-12.3 0-20.2-7.7-20.2-19.6C190.5 59 204 46 221.8 46zm-76.2-.2c.8 0 1.9.1 2.6.2v.1l-2.7 13.8h-.1c-.5-.1-1.3-.2-2.2-.2-9.6 0-13.4 9.4-14.9 17.2l-3.4 18.3s0 .1-.1.1h-14.1v-.1l9.2-48.3s0-.1.1-.1h12.5l-1.7 8.4c0 .1 0 .1.1.2.1 0 .2 0 .2-.1 3.7-6.1 8.8-9.5 14.5-9.5zm18.7 13.7c-3.8 3.8-6.7 11-6.7 16.7 0 5 1.9 8.1 5.1 8.1 5.2 0 9.6-5.4 11.2-13.3.3-1.8.7-3.6.9-5.2.3-1.6.4-3 .4-4-.2-3.4-1.9-5.2-5.1-5.2-2 0-4 1-5.8 2.9zm5.2 35.3l1.2-6c0-.1 0-.2-.1-.2s-.1 0-.2.1c-2.6 4.4-7.7 7.3-13.5 7.3-9.4 0-13.7-8.4-13.7-16.8 0-9.5 3.7-19 10-25.3 5.3-5.3 12-8 19.6-8 5.8 0 10 1.7 12.7 4.9 4 4.8 3.6 12 2.6 17.2L183 94.8s0 .1-.1.1l-13.4-.1c.1.1 0 0 0 0zm164.4-9.7c7.5 0 12.9-10.6 12.9-20 0-2.3-.5-7.7-5.7-7.7-5.3 0-9.8 6-11.5 15.2-.5 3.1-2.2 12.5 4.3 12.5zm12.3-39.2c9.4 0 15.5 7.1 15.5 18.2 0 11.7-5.6 23.6-15.7 29-9.2 4.9-17.4 2.7-20-1.1l-3.4 18.2s0 .1-.1.1h-14.2v-.1l12.1-63.5s0-.1.1-.1H333v.1l-1.2 6.5c0 .1 0 .2.1.2s.1 0 .2-.1l.1-.1c3.5-4.7 8.6-7.3 14-7.3z"/><path class="st0" d="M240.7 30h14.1v.1l-7.3 38.3v.1h.1l18.8-21.6h15.5l-19.5 21.9 11.9 25.8H259l-11.6-25.4h-.1l-4.8 25.4s0 .1-.1.1h-14.1v-.1L240.7 30c-.1.1 0 0 0 0zm239 30.3c0-2.5-2-4-5.1-4-6.1 0-10 4.9-11.1 9.5v.2h.2c8.2.1 12.9-.8 14.9-2.8.7-.8 1.1-1.7 1.1-2.9zm-3.4-14.4c10 0 16.7 5.8 16.7 14.4 0 4-1.3 7.3-3.9 9.8-4.7 4.6-13.5 6.7-26.9 6.3h-.2v.2c0 1.4.5 3.3 1.4 4.6 1.8 2.3 5.1 3.6 9.1 3.6 5.9 0 11-1.4 16.6-4.6h.1v.1L487 92.1v.1c-6.8 3.4-14.7 3.8-17.8 3.8-13.2 0-20.8-7.4-20.8-20.2 0-7.4 2.7-14.8 7.5-20.4 5.1-6.2 12.4-9.5 20.4-9.5zm16.8 44c-.3 2.9 1.9 5.3 4.8 5.3 3 0 5.6-2.4 5.9-5.4.3-2.9-1.9-5.3-4.8-5.3-3-.1-5.7 2.4-5.9 5.4zm-.9-.1c.3-3.4 3.3-6.2 6.8-6.2 3.4 0 5.9 2.8 5.6 6.2-.3 3.4-3.3 6.2-6.8 6.2-3.4 0-5.9-2.8-5.6-6.2zm4.9-3.7h2.5c.3 0 .5.1.7.1.8.3 1.2.9 1.2 1.7v.4c-.2 1-.8 1.8-1.9 2.1l1 2.9h-1l-1-2.8h-1.3l-.5 2.8h-.9l.5-2.8.4-2.2.3-2.2zm1.4.9h-.7l-.3 1.4-.3 1.4h1.6c.2 0 .4 0 .5-.1.6-.2 1.1-.7 1.2-1.3.1-.6-.2-1.1-.7-1.2-.1-.1-.3-.1-.5-.1-.2-.1-.4-.1-.8-.1z"/></svg>