<svg width="58" height="36" viewBox="0 0 58 36" fill="none" xmlns="http://www.w3.org/2000/svg">
<g style="mix-blend-mode:multiply">
<path d="M23.8109 3.92825C24.7463 3.04441 25.8716 2.34054 27.1185 1.85931C28.3654 1.37808 29.7081 1.1295 31.065 1.12865C32.8688 1.13513 34.6379 1.57483 36.1894 2.40224C37.7408 3.22965 39.0182 4.41472 39.8894 5.83488C41.4587 5.20424 43.1587 4.87935 44.8776 4.88156C51.6888 4.88156 57.2094 9.88947 57.2094 16.0659C57.2094 22.2423 51.6888 27.2522 44.8776 27.2522C44.0618 27.2528 43.248 27.18 42.4484 27.035C41.3257 28.8424 39.4764 30.195 37.2799 30.8154C35.0833 31.4358 32.706 31.277 30.6355 30.3716C29.8286 32.0766 28.4708 33.5245 26.7381 34.5276C25.0054 35.5308 22.9775 36.043 20.9173 35.9979C18.8571 35.9528 16.8593 35.3526 15.1829 34.2748C13.5065 33.1971 12.2287 31.6916 11.5149 29.9533C10.8699 30.0757 10.2124 30.137 9.55318 30.1363C7.44052 30.1138 5.39422 29.4697 3.72732 28.3024C2.06042 27.1351 0.864698 25.509 0.32307 23.6728C-0.218558 21.8366 -0.0762672 19.8915 0.728175 18.1349C1.53262 16.3783 2.95492 14.907 4.77749 13.9461C3.70351 11.7072 3.57726 9.19253 4.42255 6.8758C5.26784 4.55907 7.0263 2.60028 9.36658 1.36852C11.7069 0.136761 14.4674 -0.282911 17.1279 0.188581C19.7885 0.660072 22.1655 1.99017 23.8109 3.92825Z" fill="#7F8184"/>
<path d="M8.28237 18.6739C8.24658 18.7584 8.29579 18.7745 8.30698 18.7906C8.41199 18.8551 8.52103 18.9142 8.63356 18.9675C9.16056 19.2166 9.74957 19.3405 10.3448 19.3276C11.5191 19.3276 12.2461 18.7664 12.2461 17.8634V17.8453C12.2461 17.0086 11.4252 16.707 10.6534 16.4877L10.5528 16.4576C9.9712 16.2886 9.4679 16.1418 9.4679 15.7979V15.7778C9.4679 15.4841 9.76093 15.2669 10.2173 15.2669C10.7368 15.2763 11.2467 15.394 11.707 15.6109C11.707 15.6109 11.8211 15.6752 11.8636 15.5767C11.8859 15.5244 12.0873 15.0517 12.1007 14.9994C12.1093 14.9769 12.1083 14.9524 12.098 14.9305C12.0877 14.9086 12.0687 14.8909 12.0448 14.8808C11.5337 14.6149 10.9531 14.4761 10.3626 14.4785H10.2463C9.17264 14.4785 8.42329 15.0618 8.42329 15.8964V15.9145C8.42329 16.7954 9.24869 17.081 10.0249 17.2822L10.1479 17.3164C10.7138 17.4712 11.1992 17.606 11.1992 17.964V17.98C11.1992 18.3079 10.8838 18.5512 10.3738 18.5512C9.83825 18.5545 9.31307 18.4183 8.86172 18.159C8.77895 18.1168 8.73198 18.0846 8.66935 18.0504C8.65686 18.0406 8.64169 18.0339 8.62539 18.031C8.60909 18.0282 8.59223 18.0293 8.57655 18.0342C8.56086 18.0391 8.5469 18.0476 8.53609 18.059C8.52528 18.0703 8.518 18.084 8.515 18.0987L8.29132 18.6759L8.28237 18.6739Z" fill="white"/>
<path d="M25.4679 18.6739C25.4321 18.7584 25.4813 18.7745 25.4925 18.7906C25.5975 18.8551 25.7066 18.9142 25.8191 18.9675C26.3461 19.2166 26.9351 19.3405 27.5303 19.3276C28.7024 19.3276 29.4316 18.7664 29.4316 17.8634V17.8453C29.4316 17.0086 28.6107 16.707 27.839 16.4877L27.7383 16.4576C27.1567 16.2886 26.6535 16.1418 26.6535 15.7979V15.7778C26.6535 15.4841 26.9465 15.2669 27.4028 15.2669C27.9223 15.2763 28.4323 15.394 28.8925 15.6109C28.8925 15.6109 29.0066 15.6752 29.0491 15.5767C29.0715 15.5244 29.2728 15.0517 29.2862 14.9994C29.2948 14.9769 29.2938 14.9524 29.2835 14.9305C29.2732 14.9086 29.2543 14.8909 29.2303 14.8808C28.7192 14.6149 28.1387 14.4761 27.5482 14.4785H27.4319C26.3582 14.4785 25.6066 15.0618 25.6066 15.8964V15.9145C25.6066 16.7954 26.4342 17.081 27.2104 17.2822L27.3335 17.3164C27.8994 17.4712 28.387 17.606 28.387 17.964V17.98C28.387 18.3079 28.0694 18.5512 27.5594 18.5512C27.0238 18.5545 26.4986 18.4183 26.0473 18.159C25.9645 18.1168 25.9175 18.0866 25.8549 18.0504C25.8418 18.0422 25.8268 18.0369 25.811 18.0349C25.7952 18.0329 25.779 18.0343 25.764 18.039C25.7489 18.0437 25.7353 18.0516 25.7243 18.062C25.7132 18.0724 25.7051 18.0849 25.7006 18.0987L25.4769 18.6759L25.4679 18.6739Z" fill="white"/>
<path d="M37.1969 16.8975C37.2256 17.3188 37.1159 17.7384 36.8815 18.1042C36.769 18.2345 36.6249 18.34 36.4601 18.4125C36.2953 18.4851 36.1143 18.5228 35.9308 18.5228C35.7474 18.5228 35.5663 18.4851 35.4016 18.4125C35.2368 18.34 35.0927 18.2345 34.9802 18.1042C34.7519 17.7366 34.6463 17.3176 34.676 16.8975C34.6501 16.4813 34.758 16.0673 34.9869 15.7048C35.0887 15.5666 35.2296 15.4552 35.3951 15.3821C35.5606 15.3089 35.7447 15.2766 35.9286 15.2885C36.1143 15.2759 36.3004 15.3076 36.4681 15.3803C36.6358 15.453 36.7792 15.5643 36.8838 15.7028C37.1145 16.0647 37.2233 16.479 37.1969 16.8955V16.8975ZM38.1767 15.9482C38.087 15.6687 37.9348 15.4086 37.7293 15.1839C37.522 14.9706 37.2655 14.8004 36.9777 14.6851C36.6454 14.5604 36.2888 14.4961 35.9286 14.4961C35.5685 14.4961 35.2119 14.5604 34.8795 14.6851C34.5895 14.8054 34.3323 14.9811 34.1257 15.2C33.9202 15.4247 33.768 15.6848 33.6783 15.9643C33.4874 16.5841 33.4874 17.239 33.6783 17.8588C33.768 18.1383 33.9202 18.3984 34.1257 18.6231C34.3313 18.842 34.5889 19.0166 34.8795 19.1339C35.5526 19.378 36.3046 19.378 36.9777 19.1339C37.2684 19.0166 37.526 18.842 37.7315 18.6231C37.937 18.3984 38.0893 18.1383 38.1789 17.8588C38.3698 17.239 38.3698 16.5841 38.1789 15.9643" fill="white"/>
<path d="M46.2202 18.3807C46.2163 18.3696 46.2098 18.3594 46.2012 18.3506C46.1926 18.3419 46.1821 18.3348 46.1703 18.3299C46.1586 18.325 46.1458 18.3223 46.1328 18.3221C46.1199 18.3218 46.107 18.324 46.095 18.3284C45.9507 18.381 45.8008 18.4201 45.6476 18.4451C45.4691 18.4684 45.2889 18.4798 45.1085 18.4793C44.9033 18.4893 44.698 18.4611 44.5056 18.3964C44.3131 18.3317 44.1376 18.2318 43.9901 18.1032C43.7194 17.8518 43.5673 17.4475 43.5696 16.8964C43.547 16.4827 43.6793 16.0741 43.9454 15.736C44.0745 15.5908 44.2408 15.4759 44.4302 15.4013C44.6196 15.3267 44.8262 15.2945 45.0325 15.3076C45.3827 15.301 45.7317 15.3458 46.0659 15.4403C46.0659 15.4403 46.1442 15.4705 46.18 15.38C46.265 15.1648 46.3298 15.0119 46.4216 14.7766C46.4253 14.7663 46.4268 14.7554 46.4257 14.7446C46.4247 14.7338 46.4213 14.7233 46.4157 14.7137C46.41 14.7042 46.4023 14.6957 46.3929 14.6889C46.3836 14.6821 46.3728 14.677 46.3612 14.674C46.1488 14.6071 45.9302 14.5573 45.708 14.5252C45.4619 14.4949 45.2137 14.4808 44.9654 14.483C44.5907 14.4758 44.2187 14.5403 43.8738 14.672C43.5722 14.7892 43.3027 14.9642 43.0842 15.1849C42.8697 15.4089 42.7076 15.6695 42.6077 15.9512C42.4997 16.2574 42.4461 16.5771 42.4489 16.8984C42.4132 17.5358 42.6455 18.1619 43.0998 18.6522C43.5338 19.0867 44.1847 19.3059 45.0347 19.3059C45.5081 19.3067 45.9779 19.2311 46.4216 19.0826C46.4419 19.0732 46.4573 19.0569 46.4644 19.0374C46.4715 19.0178 46.4698 18.9965 46.4596 18.9781L46.2202 18.3747V18.3807Z" fill="white"/>
<path d="M47.932 16.4135C47.9639 16.1642 48.0555 15.9241 48.2004 15.7096C48.3031 15.5704 48.445 15.458 48.6115 15.3838C48.778 15.3097 48.9634 15.2764 49.1488 15.2872C49.3324 15.2784 49.5152 15.3138 49.6784 15.3898C49.8416 15.4659 49.9793 15.5797 50.0771 15.7197C50.2168 15.9335 50.2937 16.1757 50.3008 16.4236L47.932 16.4135ZM51.2268 15.79C51.1453 15.5307 51.0018 15.2905 50.8063 15.0861C50.6313 14.9046 50.4165 14.7574 50.1755 14.6537C49.8752 14.5402 49.5529 14.4814 49.2271 14.4807C48.8499 14.4756 48.4759 14.5442 48.131 14.6819C47.8366 14.8038 47.5761 14.9831 47.3683 15.2068C47.1616 15.4345 47.0093 15.6981 46.9209 15.9811C46.8221 16.2903 46.7732 16.6107 46.7755 16.9324C46.7725 17.2545 46.8231 17.5751 46.9254 17.8837C47.0224 18.1649 47.1865 18.4237 47.4063 18.642C47.6383 18.863 47.9238 19.033 48.2406 19.1387C48.6249 19.26 49.0303 19.3179 49.4374 19.3097C50.3947 19.3097 50.9003 19.1086 51.1083 19.012C51.1441 18.9919 51.1799 18.9597 51.1351 18.8672L50.9114 18.3222C50.907 18.3114 50.9002 18.3016 50.8914 18.2932C50.8827 18.2848 50.8722 18.2781 50.8605 18.2734C50.8489 18.2688 50.8363 18.2662 50.8235 18.2659C50.8108 18.2657 50.7981 18.2677 50.7862 18.2719C50.3595 18.4318 49.8993 18.5066 49.4374 18.4911C49.232 18.5027 49.0262 18.4777 48.8316 18.4176C48.637 18.3576 48.4575 18.2636 48.3033 18.1412C48.0572 17.922 47.9387 17.6022 47.9163 17.1476H51.2336C51.2574 17.1473 51.2804 17.1391 51.2981 17.1247C51.3158 17.1103 51.327 17.0905 51.3297 17.0692C51.392 16.6409 51.357 16.2058 51.2268 15.79Z" fill="white"/>
<path d="M21.3765 16.4135C21.4095 16.1644 21.501 15.9245 21.6449 15.7096C21.748 15.5702 21.8902 15.4578 22.0572 15.3836C22.2241 15.3095 22.4098 15.2762 22.5956 15.2873C22.7795 15.2783 22.9627 15.3136 23.1263 15.3896C23.2899 15.4656 23.4279 15.5796 23.5261 15.7197C23.6648 15.9339 23.7417 16.1759 23.7498 16.4236L21.3765 16.4135ZM24.6736 15.7901C24.5924 15.5302 24.448 15.2898 24.2509 15.0861C24.0766 14.9047 23.8626 14.7575 23.6223 14.6537C23.3213 14.5399 22.9982 14.4811 22.6716 14.4808C22.2951 14.4754 21.9218 14.544 21.5778 14.6819C21.2804 14.8013 21.0166 14.9793 20.8061 15.2028C20.5993 15.4305 20.447 15.6941 20.3587 15.9771C20.2592 16.2862 20.2095 16.6066 20.2111 16.9284C20.2077 17.2506 20.259 17.5714 20.3632 17.8797C20.4579 18.1665 20.626 18.4294 20.854 18.6474C21.082 18.8653 21.3636 19.0322 21.6762 19.1347C22.0631 19.258 22.4716 19.3173 22.8819 19.3097C23.8393 19.3097 24.3426 19.1086 24.5506 19.012C24.5864 18.9919 24.6222 18.9597 24.5775 18.8672L24.3538 18.3222C24.3493 18.3114 24.3425 18.3016 24.3338 18.2932C24.325 18.2848 24.3145 18.2781 24.3029 18.2734C24.2912 18.2688 24.2786 18.2662 24.2659 18.266C24.2531 18.2657 24.2404 18.2677 24.2285 18.2719C23.7975 18.4332 23.3327 18.508 22.8663 18.4911C22.6609 18.5027 22.4551 18.4777 22.2605 18.4176C22.0659 18.3576 21.8864 18.2636 21.7322 18.1412C21.4883 17.922 21.3676 17.6022 21.3474 17.1476H24.6625C24.6863 17.1473 24.7093 17.1391 24.727 17.1247C24.7447 17.1103 24.7559 17.0905 24.7586 17.0692C24.8223 16.6398 24.788 16.2032 24.658 15.786L24.6736 15.7901Z" fill="white"/>
<path d="M14.2114 18.3657C14.1351 18.32 14.0703 18.2604 14.0213 18.1907C13.9491 18.072 13.915 17.9377 13.9229 17.8026C13.9132 17.6917 13.9353 17.5805 13.9869 17.4794C14.0386 17.3784 14.1182 17.2909 14.2181 17.2254C14.2181 17.2254 14.5022 17.0021 15.18 17.0102C15.4795 17.0155 15.7784 17.0383 16.0747 17.0785V18.4341C15.7794 18.4872 15.4805 18.5228 15.18 18.5407C14.5089 18.5769 14.2047 18.3657 14.2069 18.3657H14.2114ZM15.5267 16.272C15.3925 16.272 15.218 16.258 15.01 16.258C14.7344 16.257 14.4599 16.2888 14.1935 16.3525C13.9451 16.4103 13.7102 16.5077 13.5001 16.6401C13.2905 16.7727 13.1207 16.9499 13.0059 17.1559C12.8912 17.362 12.835 17.5904 12.8425 17.8207C12.8361 18.057 12.8897 18.2915 12.999 18.5065C13.0965 18.6897 13.2434 18.848 13.4263 18.9671C13.6278 19.0945 13.8561 19.1835 14.0973 19.2285C14.3911 19.2868 14.6913 19.3145 14.9921 19.311C15.3294 19.3109 15.6661 19.2854 15.9987 19.2346C16.323 19.1843 16.7234 19.1119 16.833 19.0898L17.0567 19.0354C17.0799 19.0299 17.1002 19.0172 17.1141 18.9995C17.128 18.9819 17.1346 18.9605 17.1327 18.9389V16.2117C17.1327 15.6083 16.956 15.1719 16.6071 14.8964C16.2581 14.6208 15.7459 14.4941 15.0838 14.4941C14.7837 14.4963 14.4844 14.5212 14.189 14.5686C14.189 14.5686 13.471 14.6852 13.1735 14.8863C13.1534 14.8999 13.1392 14.9195 13.1335 14.9415C13.1278 14.9636 13.1308 14.9868 13.1422 15.007L13.3771 15.5721C13.3803 15.5821 13.3858 15.5913 13.3932 15.5992C13.4006 15.6072 13.4096 15.6137 13.4199 15.6184C13.4301 15.6231 13.4413 15.6259 13.4528 15.6266C13.4643 15.6273 13.4758 15.6259 13.4867 15.6224L13.5404 15.5983C13.9934 15.4026 14.4895 15.3008 14.9921 15.3006C15.2827 15.2858 15.5709 15.3564 15.813 15.5018C15.9919 15.6264 16.0859 15.8135 16.0859 16.2117V16.3384C15.7996 16.3002 15.5379 16.2801 15.5379 16.2801" fill="white"/>
<path d="M42.2811 14.7344C42.2862 14.7246 42.2889 14.7139 42.2891 14.703C42.2894 14.6922 42.2871 14.6814 42.2825 14.6714C42.2779 14.6614 42.271 14.6523 42.2623 14.6448C42.2536 14.6373 42.2432 14.6315 42.2319 14.6278C42.05 14.5821 41.8634 14.5531 41.6749 14.5413C41.3828 14.5137 41.0878 14.5568 40.8204 14.666C40.6039 14.7475 40.4121 14.8744 40.2612 15.0361V14.6841C40.2618 14.6724 40.2598 14.6608 40.2552 14.6498C40.2507 14.6388 40.2437 14.6288 40.2347 14.6204C40.2257 14.6119 40.2149 14.6052 40.2029 14.6006C40.1909 14.596 40.1781 14.5936 40.165 14.5936H39.315C39.302 14.5936 39.2891 14.596 39.2772 14.6006C39.2652 14.6052 39.2544 14.6119 39.2454 14.6204C39.2364 14.6288 39.2294 14.6388 39.2249 14.6498C39.2203 14.6608 39.2182 14.6724 39.2189 14.6841V19.1209C39.2194 19.1451 39.2305 19.1681 39.2498 19.185C39.269 19.2019 39.2948 19.2114 39.3218 19.2114H40.1919C40.2186 19.2114 40.2442 19.2019 40.2631 19.1849C40.2819 19.1679 40.2925 19.1449 40.2925 19.1209V16.8965C40.2845 16.6322 40.3215 16.3683 40.4021 16.1141C40.4608 15.95 40.5603 15.8001 40.6929 15.6757C40.8084 15.5742 40.9485 15.4985 41.1023 15.4544C41.2477 15.4169 41.3983 15.3979 41.5497 15.3981C41.6724 15.4008 41.7945 15.4143 41.9143 15.4383C41.9769 15.4383 42.0127 15.4102 42.035 15.3579C42.091 15.2211 42.2587 14.8128 42.2833 14.7324" fill="white"/>
<path d="M34.0984 12.6738C33.9911 12.6457 33.8949 12.6256 33.7696 12.6034C33.6217 12.582 33.472 12.5719 33.3222 12.5733C33.0663 12.5597 32.8099 12.5928 32.5685 12.6706C32.3271 12.7484 32.1057 12.8692 31.9175 13.0258C31.5441 13.4041 31.3098 13.8768 31.2464 14.3793L31.2062 14.5805H30.4524C30.4253 14.5798 30.399 14.5884 30.3787 14.6044C30.3584 14.6204 30.3456 14.6428 30.3428 14.6669L30.222 15.2884C30.222 15.3467 30.2399 15.385 30.3293 15.385H31.0608L30.3181 19.1097C30.2736 19.3595 30.2071 19.6056 30.1191 19.8458C30.0696 19.9963 29.9941 20.1388 29.8954 20.2682C29.82 20.3624 29.7136 20.4327 29.5912 20.4693C29.4652 20.5046 29.3338 20.5216 29.202 20.5196C29.1125 20.518 29.0235 20.5092 28.9358 20.4935C28.874 20.4824 28.814 20.4649 28.7568 20.4412C28.7337 20.4333 28.708 20.4339 28.6854 20.443C28.6628 20.452 28.645 20.4687 28.636 20.4894C28.6092 20.5538 28.4124 21.0365 28.39 21.0928C28.3844 21.1037 28.3813 21.1156 28.3809 21.1276C28.3805 21.1396 28.3827 21.1516 28.3875 21.1628C28.3923 21.1741 28.3996 21.1844 28.4088 21.193C28.4181 21.2017 28.4292 21.2087 28.4414 21.2135C28.5411 21.2448 28.6427 21.271 28.7456 21.2919C28.9048 21.3244 29.0679 21.3386 29.231 21.3341C29.5077 21.3374 29.7829 21.2986 30.0453 21.2195C30.2813 21.1383 30.4917 21.0064 30.6581 20.8354C30.8488 20.6404 30.9948 20.4135 31.0876 20.1676C31.2184 19.8411 31.3157 19.5045 31.3784 19.162L32.1255 15.3608H33.2193C33.2448 15.363 33.2703 15.3568 33.2913 15.3436C33.3122 15.3303 33.3271 15.3107 33.3334 15.2884L33.4453 14.685C33.4453 14.6247 33.4274 14.5885 33.3379 14.5885H32.2776C32.3154 14.36 32.3737 14.1347 32.4521 13.9147C32.501 13.7959 32.5772 13.6876 32.6758 13.597C32.754 13.5272 32.8489 13.4742 32.9532 13.4421C33.0691 13.4103 33.1898 13.3947 33.311 13.3959C33.4019 13.3968 33.4924 13.4049 33.5817 13.42C33.6391 13.4301 33.6958 13.4428 33.7517 13.4582C33.8613 13.4884 33.8747 13.4582 33.8971 13.4119L34.1499 12.7865C34.154 12.776 34.1557 12.765 34.1549 12.7539C34.154 12.7429 34.1507 12.7321 34.145 12.7223C34.1393 12.7125 34.1315 12.7039 34.1219 12.6969C34.1124 12.6899 34.1013 12.6848 34.0895 12.6819" fill="white"/>
<path d="M19.2842 19.1219C19.2851 19.1335 19.2833 19.1451 19.279 19.1561C19.2747 19.167 19.2679 19.1771 19.2591 19.1856C19.2503 19.1941 19.2396 19.2008 19.2278 19.2054C19.2159 19.2101 19.2031 19.2124 19.1902 19.2124H18.3111C18.2981 19.2124 18.2852 19.2101 18.2733 19.2055C18.2613 19.2009 18.2505 19.1941 18.2415 19.1857C18.2325 19.1772 18.2255 19.1672 18.2209 19.1562C18.2164 19.1453 18.2143 19.1336 18.2149 19.1219V12.7604C18.2143 12.7487 18.2164 12.7371 18.2209 12.7261C18.2255 12.7151 18.2325 12.7051 18.2415 12.6967C18.2505 12.6882 18.2613 12.6815 18.2733 12.6769C18.2852 12.6723 18.2981 12.6699 18.3111 12.6699H19.1902C19.2031 12.6699 19.2159 12.6723 19.2278 12.6769C19.2396 12.6815 19.2503 12.6883 19.2591 12.6968C19.2679 12.7053 19.2747 12.7153 19.279 12.7262C19.2833 12.7372 19.2851 12.7488 19.2842 12.7604V19.1219Z" fill="white"/>
</g>
</svg>
