<svg width="91" height="15" viewBox="0 0 91 15" fill="none" xmlns="http://www.w3.org/2000/svg">
<path fill-rule="evenodd" clip-rule="evenodd" d="M89.2291 0.504051V3.19286C87.8361 2.66699 86.5959 2.40111 85.5104 2.40111C84.8674 2.40111 84.3555 2.52016 83.9705 2.75035C83.5855 2.98252 83.3891 3.26828 83.3891 3.60563C83.3891 4.05409 83.8236 4.45292 84.6988 4.81015L87.2269 6.04045C89.2708 7.01479 90.2848 8.30857 90.2848 9.93379C90.2848 11.2851 89.747 12.3627 88.6616 13.1604C87.584 13.9661 86.1335 14.3649 84.3277 14.3649C83.4942 14.3649 82.7462 14.3292 82.0814 14.2538C81.4166 14.1824 80.6526 14.0355 79.8053 13.8251V11.0113C81.3591 11.5372 82.7739 11.8031 84.0479 11.8031C85.5679 11.8031 86.324 11.3625 86.324 10.4735C86.324 10.031 86.0144 9.67385 85.3854 9.39403L82.5775 8.19744C81.5416 7.72914 80.7717 7.16162 80.2677 6.48892C79.7716 5.81027 79.5195 5.0324 79.5195 4.1434C79.5195 2.89916 80.0434 1.89705 81.0792 1.13505C82.1231 0.378996 83.5082 0 85.2306 0C85.7902 0 86.4351 0.0495891 87.1495 0.140878C87.8698 0.238118 88.5623 0.357177 89.2291 0.504051Z" fill="#797B7F"/>
<path fill-rule="evenodd" clip-rule="evenodd" d="M9.7036 0.504051V3.19286C8.31055 2.66699 7.07231 2.40111 5.98685 2.40111C5.34192 2.40111 4.83196 2.52016 4.44697 2.75035C4.06203 2.98252 3.86556 3.26828 3.86556 3.60563C3.86556 4.05409 4.30609 4.45292 5.18121 4.81015L7.70931 6.04045C9.74525 7.01479 10.7613 8.30857 10.7613 9.93379C10.7613 11.2851 10.2215 12.3627 9.14401 13.1604C8.05855 13.9661 6.61591 14.3649 4.8042 14.3649C3.97074 14.3649 3.22063 14.3292 2.55587 14.2538C1.8911 14.1824 1.13505 14.0355 0.281802 13.8251V11.0113C1.84152 11.5372 3.25638 11.8031 4.52239 11.8031C6.04244 11.8031 6.79849 11.3625 6.79849 10.4735C6.79849 10.031 6.4909 9.67385 5.86779 9.39403L3.05992 8.19744C2.01611 7.72914 1.24617 7.16162 0.750103 6.48892C0.246052 5.81027 0 5.0324 0 4.1434C0 2.89916 0.51992 1.89705 1.5617 1.13505C2.59757 0.378996 3.98462 0 5.70708 0C6.27262 0 6.90961 0.0495891 7.6319 0.140878C8.3463 0.238118 9.03884 0.357177 9.7036 0.504051Z" fill="#797B7F"/>
<path fill-rule="evenodd" clip-rule="evenodd" d="M12.5996 0.251953H16.7172V14.1128H12.5996V0.251953Z" fill="#797B7F"/>
<path fill-rule="evenodd" clip-rule="evenodd" d="M29.983 0.251953V2.81382H23.8651V5.88758H29.1714V8.19739H23.8651V11.424H30.108V14.1128H19.9023V0.251953H29.983Z" fill="#797B7F"/>
<path fill-rule="evenodd" clip-rule="evenodd" d="M49.2063 0.251953V14.1128H45.3623V4.97081L41.374 14.2398H39.0007L35.1649 4.97081V14.1128H32.3848V0.251953H37.4112L40.8421 8.73715L44.4319 0.251953H49.2063Z" fill="#797B7F"/>
<path fill-rule="evenodd" clip-rule="evenodd" d="M62.4673 0.251953V2.81382H56.3829V5.88758H61.6891V8.19739H56.3829V11.424H62.5923V14.1128H52.3867V0.251953H62.4673Z" fill="#797B7F"/>
<path fill-rule="evenodd" clip-rule="evenodd" d="M76.9142 0.251953V14.1128H72.5467L67.6455 5.22281V14.1128H64.8672V0.251953H69.362L74.1363 8.9892V0.251953H76.9142Z" fill="#797B7F"/>
</svg>
