<svg id="Layer_1" xmlns="http://www.w3.org/2000/svg" width="473" height="79" viewBox="0 0 473 79"><style>.st0{fill:#a3a3a3;stroke:#9fa4a6}</style><path class="st0" d="M164.6 36.5c0-9-6.5-16.7-16.3-16.7s-16.5 7.8-16.5 16.7c0 8.8 6.5 16.5 16.3 16.5 4.1 0 7.3-1.2 10.2-3.5l4.3 3.9 2.4-2.7-4.3-3.5c2.5-3 3.9-6.8 3.9-10.7zm-6.5 8.3l-5.9-5.3-2.4 2.7 5.9 5.1c-2 1.4-4.5 2.4-7.3 2.4-7.3 0-12.6-5.9-12.6-13.3 0-7.3 5.3-13.3 12.6-13.3S161 29 161 36.4c0 3.3-1 6.2-2.9 8.4zm36.9-5.9c0 6.9-3.7 10.6-9.8 10.6-6.1 0-9.8-3.9-9.8-10.8V20.1h-3.7v18.8c0 9.2 5.5 13.9 13.5 13.9s13.5-4.9 13.5-14.3V20.1H195v18.8zm217.5 10.8c-7.1 0-12.4-5.9-12.4-13.3 0-7.3 5.3-13.3 12.4-13.3 4.3 0 7.3 1.8 10.2 4.5l2.4-2.7c-3.3-3.1-6.7-5.1-12.6-5.1-9.4 0-16.3 7.5-16.3 16.7S403.1 53 412.3 53c5.9 0 9.6-2.2 12.9-5.7l-2.4-2.2c-2.9 2.8-5.8 4.6-10.3 4.6zm22.9-.6V37.9h17.5v-3.3h-17.5v-11H455v-3.3h-23.3v32.3h23.5v-3.5h-19.8zm-87.6-28.7h-12v32.2h3.7V41.2h7.8c6.9 0 12.6-3.7 12.6-10.6 0-6.4-4.7-10.2-12.1-10.2zm8.4 10.4c0 4.3-3.5 7.1-8.8 7.1h-8V23.8h8.2c5.1-.2 8.6 2.3 8.6 7zm-240.7 3.8c-7.1-1.4-8.8-3.3-8.8-6.3 0-2.9 2.7-5.1 6.9-5.1 3.3 0 6.3 1 9.4 3.5l2-2.9c-3.3-2.7-6.5-3.9-11.2-3.9-6.1 0-10.6 3.7-10.6 8.8 0 5.3 3.5 7.8 10.8 9.4 6.7 1.4 8.4 3.1 8.4 6.1 0 3.3-2.9 5.5-7.1 5.5-4.5 0-7.8-1.4-11-4.5l-2.2 2.7c3.9 3.5 8 5.1 13.1 5.1 6.3 0 11-3.7 11-9.2-.3-5.1-3.6-7.5-10.7-9.2zm163.8 3.3h17.5v-3.3h-17.5v-11h19.6v-3.3h-23.3v32.3h23.5v-3.5h-19.8V37.9zm38.8-3.3c-7.1-1.4-8.8-3.3-8.8-6.3 0-2.9 2.7-5.1 6.9-5.1 3.3 0 6.3 1 9.4 3.5l2-2.9c-3.3-2.7-6.5-3.9-11.2-3.9-6.1 0-10.6 3.7-10.6 8.8 0 5.3 3.5 7.8 10.8 9.4 6.7 1.4 8.4 3.1 8.4 6.1 0 3.3-2.9 5.5-7.1 5.5-4.5 0-7.8-1.4-11-4.5l-2.2 2.7c3.9 3.5 8 5.1 13.1 5.1 6.3 0 11-3.7 11-9.2-.3-5.1-3.6-7.5-10.7-9.2zm-100-14.4l-14.7 32.4h3.7L211 44h17.5l3.7 8.6h3.9l-14.7-32.4h-3.3zm-5.7 20.6l7.3-16.3 7.3 16.3h-14.6zm162.8-20.6l-14.7 32.4h3.7l3.9-8.6h17.5l3.7 8.6h3.9l-14.7-32.4h-3.3zm-5.7 20.6l7.3-16.3 7.3 16.3h-14.6zM267.9 30c0-2.7-1-4.9-2.4-6.5-2-2-5.1-3.3-9.2-3.3h-13.9v32.2h3.7V40h9.2l9.4 12.4h4.5l-9.8-13.1c4.8-1 8.5-4 8.5-9.3zM246 36.7V23.6h10c5.1 0 8.2 2.4 8.2 6.3 0 4.1-3.5 6.5-8.4 6.5H246v.3zM14.5 40.4c1.4 1.4 3.9 1.4 5.5 0l24.3-24.3c3.1-3.1 7.8-3.1 10.8 0 1.4 1.4 3.9 1.4 5.5 0 1.4-1.4 1.4-3.9 0-5.5-5.9-5.9-15.7-5.9-21.6 0L14.5 34.8c-1.6 1.7-1.6 3.9 0 5.6zM52.2 24c1.4-1.4 1.4-3.9 0-5.5-1.4-1.4-3.9-1.4-5.5 0L22.5 43c-3.1 3.1-7.8 3.1-10.8 0-3.1-3.1-3.1-7.8 0-10.8L35.6 8.3c-3.1-3.1-7.8-3.1-10.8 0L6.4 26.7C.5 32.6.5 42.4 6.4 48.3s15.7 5.9 21.6 0L52.2 24zm2.9 2.7L30.6 51.2c-1.4 1.4-1.4 3.9 0 5.5 1.4 1.4 3.9 1.4 5.5 0l24.3-24.3c3.1-3.1 7.8-3.1 10.8 0s3.1 7.8 0 10.8L47.3 66.9c3.1 3.1 7.8 3.1 10.8 0l18.6-18.6c5.9-5.9 5.9-15.7 0-21.6-6.1-5.9-15.7-5.9-21.6 0zm13.5 8.1c-1.4-1.4-3.9-1.4-5.5 0L38.8 59.3c-3.1 3.1-7.8 3.1-10.8 0-1.4-1.4-3.9-1.4-5.5 0-1.4 1.4-1.4 3.9 0 5.5 5.9 5.9 15.7 5.9 21.6 0l24.3-24.3c1.6-1.8 1.6-4 .2-5.7z"/></svg>