<svg id="Layer_1" xmlns="http://www.w3.org/2000/svg" width="400" viewBox="0 0 400 164.8"><style>.st0{fill:#9fa4a6}</style><g transform="rotate(5.964 425.408 -16.93) scale(2.4393)" id="g3449"><path id="path3457" class="st0" d="M29 61.7c-9.6 1-11.3-5.1-11.5-7.8v-.1l5.1-.5v.1c.2 1.3 1 4.2 5.6 3.7 1.5-.2 2.6-.5 3.4-1 1-.7 1.5-1.6 1.3-2.9-.2-2-1.9-2.3-4.8-2.8l-2.7-.4c-4.2-.6-8.1-1.1-8.7-7-.1-1.1-.1-3.4 1.2-5.4 1.4-2.1 3.9-3.4 7.5-3.8 3.4-.4 6.1.4 8 2.3 2 1.9 2.5 4.4 2.6 5.3v.1l-5 .5c-.2-1.1-.9-3.9-5.4-3.4-1.1.1-2.1.5-2.8 1-.9.6-1.2 1.5-1.1 2.6.2 2.1 1.9 2.3 2.9 2.4l6.2 1c3.5.5 6.7 1.7 7.3 6.5.4 3.4-.7 6-3.3 7.8-2.3 1.3-4.8 1.6-5.8 1.8"/></g><g transform="rotate(5.964 425.408 -16.93) scale(2.4393)" id="g3459"><path id="polygon3467" class="st0" d="M35.6 33.4l20.2-2.1.5 4.8-7.5.8 2.3 21.7-5.2.6-.1-.1-2.2-21.7-7.5.8z"/></g><g transform="rotate(5.964 425.408 -16.93) scale(2.4393)" id="g3469"><path id="polygon3477" class="st0" d="M114 25.2l18.2-1.9.5 4.8-13.1 1.4.6 5.4 12-1.3.5 4.8-12 1.3.7 6.7 13.7-1.4.5 4.8h-.1l-18.8 2v-.1l-2.8-26.5z"/></g><g transform="rotate(5.964 425.408 -16.93) scale(2.4393)" id="g3479"><path id="path3487" class="st0" d="M147.8 49.2c-4 .4-7-.4-9-2.3-1.9-1.8-2.4-4.2-2.5-5.5v-.1l5.1-.5v.1c.2 1.3 1 4.2 5.6 3.7 1.5-.2 2.6-.5 3.4-1 1-.7 1.5-1.6 1.3-2.9-.2-2-1.9-2.3-4.8-2.8l-2.7-.4c-4.2-.6-8.1-1.1-8.7-7-.2-1.9-.2-8.3 8.7-9.2 3.4-.4 6.1.4 8 2.3 2 1.9 2.5 4.4 2.6 5.3v.1l-5.1.5c-.2-1.1-.9-3.9-5.4-3.4-2 .2-4.1 1.3-3.9 3.6.2 2.1 1.9 2.3 2.9 2.4l6.2 1c3.5.5 6.8 1.7 7.3 6.5.4 3.4-.8 6-3.3 7.8-2.3 1.3-4.8 1.7-5.7 1.8"/></g><g transform="rotate(5.964 425.408 -16.93) scale(2.4393)" id="g3489"><path id="path3497" class="st0" d="M98.1 50.8l-2-19.5c-.3-2.7 1.8-5.1 4.6-5.4 2.8-.3 5.2 1.5 5.7 4.3l2.3 8.1-4.4 1.6-2.8-9.1h-.2l1.9 17.6 12.1-1.3.5 4.9-14 1.5s-.3 0-.5.1c-1.7 0-3-1.4-3.2-2.8"/></g><g transform="rotate(5.964 425.408 -16.93) scale(2.4393)" id="g3499"><path id="path3507" class="st0" d="M71.4 56.5l-2.2-5.3-9 .9-1.1 5.6-5.5.6v-.1l6-27.4 6-.6 11.5 25.6-5.7.7zm-10.3-9.2l6.1-.6-4.1-10c.1 0-2 10.6-2 10.6z"/></g><g transform="rotate(5.964 425.408 -16.93) scale(2.4393)" id="g3509"><path id="path3517" class="st0" d="M83.5 55.2l-5.3.6v-.1l-2.8-26.5L86.7 28c4.8-.5 8.1 2.5 8.6 7.7.1 1.4 0 3.5-.9 5.3-1.2 2.4-3.2 3.7-6.1 4l-5.9.6c.1.1 1.1 9.6 1.1 9.6zM82 41l4.7-.5c3.8-.4 3.5-3.2 3.4-4.5-.3-2.6-1.7-3.5-4.9-3.1l-4 .4.8 7.7z"/></g><g transform="rotate(5.964 425.408 -16.93) scale(2.4393)" id="g3519"><path id="path3527" class="st0" d="M154.3 20.6c.9-.1 1.8.6 1.9 1.5.1 1-.6 1.8-1.5 1.9-.9.1-1.8-.6-1.9-1.6-.2-.9.6-1.7 1.5-1.8m.3 3.2c.8-.1 1.3-.8 1.3-1.6-.1-.8-.8-1.4-1.6-1.3-.8.1-1.4.8-1.3 1.6.2.8.8 1.4 1.6 1.3m-.9-2.4l.8-.1c.5-.1.7.1.8.5 0 .4-.2.5-.5.6l.7.8h-.3l-.6-.8h-.3l.1.9h-.3l-.4-1.9zm.4.8h.3c.3 0 .5-.1.5-.4 0-.3-.3-.3-.5-.3h-.4l.1.7z"/></g></svg>