<svg id="Assets" xmlns="http://www.w3.org/2000/svg" width="130" height="27" viewBox="0 0 130 27"><style>.st0{fill:#fdfdfd}</style><path class="st0" d="M20.3.6v15c0 5-2.2 7.1-7.4 7.1s-7.4-2.1-7.4-7.1V-.1h-5c-.4 0-.7.2-.7.7v15.2c0 8.4 5.3 11.3 13.1 11.3 7.7 0 13-2.9 13-11.3V-.1h-5c-.3 0-.6.2-.6.7zM92.8 4.3c.4 0 .6-.1.7-.4L95 .2c0-.2 0-.3-.3-.3H74.6c-1.9 0-2.6.6-2.6 1.9V25c0 1.1.5 1.6 2 1.6h18.8c.4 0 .6-.1.7-.4l1.4-3.6c.1-.2 0-.3-.2-.3H77.6v-4.7c0-1.6.9-2.4 3.3-2.4h7.5c.4 0 .6-.1.7-.4l1.4-3.4c.1-.2 0-.3-.2-.3H77.6V4.3h15.2zM57.4 12.5c2.2-1.1 3.1-3.3 3.1-5.8 0-5.9-4.8-6.8-9.8-6.8H39.3c-1.9 0-2.6.6-2.6 1.9V25c0 1.1.5 1.6 2 1.6h14c5.3 0 9-2 9-7.4 0-3.2-1.3-5.9-4.3-6.7zM42.3 4.2h8.8c2.9 0 3.8 1.1 3.8 3.4s-.8 3.4-3.8 3.4h-8.8V4.2zm9.8 18.1h-9.9v-4.9c0-1.6.9-2.4 3.3-2.4H52c3.1 0 4 1.2 4 3.7.1 2.5-.7 3.6-3.9 3.6zM129.8 26.1l-6-10.3c3-.8 5.4-2.7 5.4-7.7 0-6.5-4-8.2-10.6-8.2h-11.4c-1.9 0-2.6.6-2.6 1.9V26c0 .4.2.7.7.7h4.9v-7.8c0-1.6.9-2.4 3.3-2.4h4.9l5.4 9.7c.2.3.3.4.7.4h5.1c.3 0 .3-.3.2-.5zm-10.4-13.8h-9.3V4.2h9.3c3.5 0 4.2 1.3 4.2 4 0 2.8-.7 4.1-4.2 4.1z"/></svg>