<?xml version="1.0" encoding="utf-8"?>
<!-- Generator: Adobe Illustrator 20.1.0, SVG Export Plug-In . SVG Version: 6.00 Build 0)  -->
<svg version="1.1" id="Layer_1" xmlns="http://www.w3.org/2000/svg" xmlns:xlink="http://www.w3.org/1999/xlink" x="0px" y="0px"
	 width="300px" height="117px" viewBox="0 0 300 117" style="enable-background:new 0 0 300 117;" xml:space="preserve">
<style type="text/css">
	.st0{fill:#F9C638;}
	.st1{fill:#FFFFFF;}
</style>
<g>
	<path class="st0" d="M171.6,2.2c-5.9,3.1-8.2,8.4-8.2,22.9c0,0,3-2.9,7.5-4.5c3.3-1.2,6-3,7.6-4.2c5-3.7,5.8-8.4,5.8-16.4
		C184.4,0,176.2-0.2,171.6,2.2"/>
	<path class="st1" d="M136.4,5.6c-4.8,4.3-6.3,11.1-6.3,11.1l-16,62.2L100.7,28c-1.3-5.4-3.6-12.1-7.3-16.6C88.6,5.6,79,5.2,78,5.2
		c-1,0-10.6,0.4-15.4,6.1C59,15.9,56.6,22.5,55.3,28L42,78.9L25.9,16.7c0,0-1.4-6.8-6.3-11.1C11.8-1.4,0,0.1,0,0.1l30.7,116.2
		c0,0,10.1,0.7,15.2-1.9c6.7-3.4,9.8-6,13.9-21.8c3.6-14.1,13.6-55.5,14.6-58.5c0.5-1.5,1.1-4.9,3.6-4.9c2.6,0,3.2,3.5,3.6,4.9
		c0.9,3,11,44.4,14.6,58.5c4,15.8,7.2,18.4,13.9,21.8c5.1,2.6,15.2,1.9,15.2,1.9L156,0.1C156,0.1,144.2-1.4,136.4,5.6 M184.4,19.1
		c0,0-1.9,3-6.3,5.4c-2.8,1.6-5.5,2.6-8.4,4c-4.9,2.3-6.2,4.9-6.2,8.9v78.9c0,0,7.8,1,12.8-1.6c6.5-3.3,8-6.5,8.1-21V23.3h0V19.1
		 M261,58.5l39-58c0,0-16.5-2.8-24.6,4.6c-5.2,4.7-11,13.3-11,13.3L250,39.1c-0.7,1.1-1.6,2.2-3.1,2.2c-1.5,0-2.4-1.2-3.1-2.2
		l-14.4-20.7c0,0-5.8-8.5-11-13.3c-8.2-7.4-24.6-4.6-24.6-4.6l39,58L194,116.4c0,0,17.1,2.2,25.3-5.3c5.2-4.7,10.3-12.5,10.3-12.5
		l14.4-20.7c0.7-1.1,1.6-2.2,3.1-2.2c1.5,0,2.4,1.2,3.1,2.2l14.3,20.7c0,0,5.3,7.7,10.6,12.5c8.2,7.4,25,5.3,25,5.3L261,58.5"/>
</g>
</svg>
