<svg width="24" xmlns="http://www.w3.org/2000/svg" fill="none" viewBox="5.02 0.65 28.29 30.4"><path d="M7.66168 31.0251C9.28666 31.0251 10.4462 29.8774 10.4423 28.3037C10.4462 26.7418 9.35766 25.6059 7.8865 25.6059C7.28699 25.6059 6.73087 25.8346 6.41534 26.1423H6.36801L6.62438 23.8823H10.0518V22.8371H5.61074L5.15716 26.9074L6.27335 27.0731C6.57705 26.8009 7.12134 26.6156 7.61041 26.6156C8.56883 26.6235 9.263 27.3413 9.263 28.3273C9.263 29.2976 8.58855 29.9996 7.66168 29.9996C6.88075 29.9996 6.26152 29.5027 6.19841 28.8085H5.01517C5.0625 30.0943 6.17869 31.0251 7.66168 31.0251ZM14.6951 31.0488C16.5606 31.0488 17.6531 29.5263 17.6531 26.8798C17.6531 24.253 16.5448 22.7267 14.6951 22.7267C12.8413 22.7267 11.737 24.2491 11.733 26.8798C11.733 29.5224 12.8255 31.0448 14.6951 31.0488ZM14.6951 29.9957C13.6025 29.9957 12.9439 28.8992 12.9439 26.8798C12.9478 24.8683 13.6065 23.76 14.6951 23.76C15.7797 23.76 16.4423 24.8683 16.4423 26.8798C16.4423 28.8992 15.7836 29.9957 14.6951 29.9957ZM24.6293 25.3889H25.8796C25.6075 23.8152 24.2625 22.7267 22.5192 22.7267C20.4288 22.7267 18.9024 24.3004 18.9024 26.8798C18.9024 29.4356 20.3854 31.0251 22.5744 31.0251C24.5347 31.0251 25.9348 29.7393 25.9348 27.7002V26.7812H22.7598V27.787H24.7555C24.7279 29.0885 23.8681 29.9129 22.5744 29.9129C21.1506 29.9129 20.1133 28.8361 20.1133 26.8719C20.1133 24.9157 21.1585 23.8389 22.5271 23.8389C23.5999 23.8389 24.3256 24.4305 24.6293 25.3889ZM27.4819 30.9147H30.5781C32.4555 30.9147 33.3035 29.9799 33.3035 28.7415C33.3035 27.4912 32.4279 26.7852 31.6272 26.7418V26.6629C32.3687 26.4736 32.9879 25.9687 32.9879 24.959C32.9879 23.764 32.1597 22.8371 30.44 22.8371H27.4819V30.9147ZM28.7007 29.8695V27.2821H30.5031C31.4813 27.2821 32.0926 27.9132 32.0926 28.6823C32.0926 29.3607 31.6311 29.8695 30.4597 29.8695H28.7007ZM28.7007 26.3316V23.8744H30.3651C31.3314 23.8744 31.7928 24.3832 31.7928 25.0537C31.7928 25.8346 31.1539 26.3316 30.3335 26.3316H28.7007Z" fill="#FB755A"></path><path d="M15.8612 14.2403H22.7464" stroke="#FB755A" stroke-width="1.34882" stroke-linecap="round"></path><path d="M15.8612 11.1816H22.7464" stroke="#FB755A" stroke-width="1.34882" stroke-linecap="round"></path><path d="M15.8612 8.11987H22.7464" stroke="#FB755A" stroke-width="1.34882" stroke-linecap="round"></path><path d="M15.8612 5.05963H22.7464" stroke="#FB755A" stroke-width="1.34882" stroke-linecap="round"></path><rect x="12.8911" y="1.32559" width="12.8242" height="16.6493" stroke="#FB755A" stroke-width="1.34882" stroke-linejoin="round"></rect></svg>
