<svg width="97" height="77" viewBox="0 0 97 77" fill="none" xmlns="http://www.w3.org/2000/svg">
<rect x="1.5" y="10.5" width="89" height="65" rx="6.5" stroke="#FB755A" stroke-width="3"/>
<path d="M64 47.2442C63.9308 46.3543 63.9089 45.6216 63.6848 44.7351C63.4607 43.8486 63.1245 42.8883 62.6017 41.891C62.1161 40.8937 61.4438 39.8595 60.5848 38.8622C60.2487 38.4559 59.8752 38.0865 59.5017 37.7171C60.0993 35.427 58.7921 33.4324 58.7921 33.4324C56.5512 33.2847 55.1319 34.1342 54.609 34.5036C54.5344 34.4667 54.4223 34.4297 54.3476 34.3928C53.9741 34.245 53.5633 34.0973 53.1898 33.9865C52.779 33.8757 52.3681 33.7649 51.9573 33.6541C51.5465 33.5432 51.0983 33.4694 50.6874 33.3955C50.6127 33.3955 50.538 33.3586 50.4634 33.3586C49.4923 30.2928 46.6911 29 46.6911 29C43.5912 30.9577 42.9936 33.691 42.9936 33.691C42.9936 33.691 42.9936 33.7649 42.9563 33.8387C42.7695 33.8757 42.6201 33.9495 42.4334 33.9865C42.2093 34.0604 41.9479 34.1342 41.7238 34.245C41.4997 34.3559 41.2382 34.4297 41.0141 34.5405C40.5286 34.7252 40.0804 34.9468 39.6322 35.2054C39.1841 35.464 38.7732 35.7225 38.325 36.018C38.2504 35.9811 38.213 35.9811 38.213 35.9811C33.9179 34.3559 30.071 36.3135 30.071 36.3135C29.7349 40.8568 31.789 43.7009 32.1999 44.218C32.0878 44.5135 32.0131 44.7721 31.9011 45.0676C31.5649 46.1018 31.3409 47.136 31.1915 48.2441C31.1541 48.3919 31.1541 48.5396 31.1168 48.7243C27.1952 50.645 26 54.6342 26 54.6342C29.324 58.4018 33.2083 58.6604 33.2083 58.6604C33.6938 59.5468 34.2914 60.3595 34.9263 61.1351C35.1878 61.4676 35.4866 61.7631 35.7853 62.0586C34.5902 65.4937 35.9721 68.3378 35.9721 68.3378C39.6696 68.4856 42.0973 66.7495 42.6201 66.3432C42.9936 66.4541 43.3671 66.5649 43.7406 66.6757C44.8611 66.9712 46.0562 67.1189 47.214 67.1928C47.5128 67.1928 47.8116 67.1928 48.073 67.1928H48.2224H48.3345H48.5212H48.708C50.4634 69.6676 53.5259 70 53.5259 70C55.6922 67.7099 55.8416 65.4568 55.8416 64.9766C55.8416 64.9766 55.8416 64.9766 55.8416 64.9396C55.8416 64.9027 55.8416 64.8658 55.8416 64.8658C55.8416 64.8288 55.8416 64.7919 55.8416 64.755C56.2897 64.4225 56.7379 64.0901 57.1488 63.7207C58.0078 62.945 58.7921 62.0586 59.427 61.0982C59.5017 61.0243 59.5391 60.9135 59.6138 60.8396C62.0788 60.9874 63.8342 59.3252 63.8342 59.3252C63.4233 56.7766 61.9667 55.5577 61.6679 55.2991C61.6679 55.2991 61.6679 55.2991 61.6306 55.2622C61.5932 55.2252 61.4812 55.2622 61.4812 55.2622L61.4439 55.2252C61.4439 55.0775 61.4812 54.9297 61.4812 54.782C61.4812 54.5234 61.5185 54.2279 61.5185 53.9694V53.7477V53.6369V53.6C61.5185 53.5261 61.5185 53.5631 61.5185 53.5261V53.3414V53.1198C61.5185 53.0459 61.5185 52.9721 61.5185 52.8982C61.5185 52.8243 61.5185 52.7505 61.4812 52.6766L61.4439 52.455L61.3692 52.2703C61.3318 51.9748 61.2571 51.7162 61.2198 51.4207C60.9583 50.3126 60.5101 49.2784 59.9499 48.355C59.3897 47.4315 58.6801 46.582 57.8584 45.8802C57.0741 45.1784 56.1403 44.6243 55.2066 44.1811C54.2729 43.7748 53.2645 43.4793 52.2934 43.3685C51.8079 43.2946 51.3224 43.2946 50.8368 43.2946H50.6501H50.6127H50.538H50.4634H50.2766C50.2019 43.2946 50.1272 43.2946 50.0899 43.2946C49.8284 43.3315 49.6043 43.3685 49.3429 43.4054C48.3718 43.5901 47.4381 43.9225 46.6164 44.4027C45.7948 44.8829 45.0851 45.4739 44.5249 46.1757C43.9647 46.8775 43.5165 47.6162 43.1804 48.3919C42.8816 49.1676 42.6948 49.9802 42.6575 50.7559C42.6575 50.9405 42.6575 51.1622 42.6575 51.3468C42.6575 51.3838 42.6575 51.4577 42.6575 51.4946V51.6423C42.6575 51.7532 42.6575 51.827 42.6948 51.9378C42.7322 52.3441 42.8069 52.7135 42.9189 53.0829C43.143 53.8216 43.4792 54.4865 43.89 55.0405C44.3008 55.5946 44.8237 56.0748 45.3466 56.4441C45.8695 56.8135 46.467 57.0721 47.0273 57.2198C47.5875 57.4045 48.1477 57.4414 48.708 57.4414C48.7827 57.4414 48.8574 57.4414 48.8947 57.4414C48.9321 57.4414 48.9694 57.4414 49.0068 57.4414C49.0441 57.4414 49.0815 57.4414 49.1188 57.4414C49.1935 57.4414 49.2308 57.4414 49.3055 57.4414H49.3429H49.3802C49.4176 57.4414 49.4549 57.4414 49.4923 57.4414C49.567 57.4414 49.6043 57.4045 49.679 57.4045C49.7537 57.4045 49.7911 57.3676 49.8658 57.3676C49.9778 57.3306 50.0899 57.2937 50.2393 57.2568C50.4634 57.1829 50.6874 57.0721 50.9115 56.9982C51.0983 56.8874 51.3333 56.7257 51.4026 56.5546C51.4399 56.5177 51.296 56.4811 51.3333 56.4441C51.5201 56.2964 51.4827 56.397 51.3333 56.2123C51.2213 56.0646 51.3097 56.0378 51.1603 56.1117C51.1229 56.1486 51.0619 56.0748 50.9872 56.1117C50.8379 56.1856 50.7587 56.1754 50.5719 56.2123C50.3852 56.2492 50.2396 56.2595 50.0528 56.2964C49.8992 56.2964 49.8188 56.315 49.7067 56.315C49.6694 56.315 49.6057 56.315 49.5683 56.315C49.531 56.315 49.4326 56.315 49.3953 56.315C49.3579 56.315 49.2596 56.315 49.2222 56.315C49.1475 56.315 49.1585 56.315 49.0838 56.315H49.0146C48.9772 56.315 48.9481 56.315 48.9107 56.315C48.8734 56.315 48.7581 56.3122 48.5993 56.2808C48.0801 56.1781 47.961 56.1117 47.5875 55.927C47.1767 55.7423 46.8032 55.4838 46.4297 55.1883C46.0936 54.8928 45.7574 54.4865 45.5333 54.0802C45.3092 53.6739 45.1225 53.1937 45.0478 52.6766C45.0105 52.418 44.9731 52.1595 45.0105 51.9009C45.0105 51.827 45.0105 51.7532 45.0105 51.6793V51.6423V51.6054C45.0105 51.5685 45.0105 51.5315 45.0105 51.4946C45.0105 51.3468 45.0478 51.236 45.0851 51.0883C45.2719 50.0171 45.8321 48.9459 46.6911 48.1333C46.9152 47.9486 47.1393 47.727 47.3634 47.5793C47.6249 47.3946 47.8489 47.2838 48.1477 47.136C48.4092 47.0252 48.708 46.9144 49.0068 46.8405C49.3055 46.7667 49.6043 46.7297 49.9031 46.6928C50.0525 46.6928 50.2019 46.6928 50.3513 46.6928C50.3887 46.6928 50.426 46.6928 50.4634 46.6928H50.5754H50.6501H50.7621C51.0983 46.7297 51.3971 46.7667 51.7332 46.8405C52.3681 46.9883 53.0031 47.2099 53.6006 47.5423C54.7584 48.1703 55.7669 49.1676 56.3644 50.3865C56.6632 50.9775 56.8873 51.6423 56.9994 52.3072C57.0367 52.4919 57.0367 52.6396 57.0741 52.8243V52.9351V53.0459C57.0741 53.0829 57.0741 53.1198 57.0741 53.1568C57.0741 53.1937 57.0741 53.2306 57.0741 53.2676V53.3784V53.4892C57.0741 53.5631 57.0741 53.7108 57.0741 53.7847C57.0741 53.9694 57.0367 54.1541 57.0367 54.3387C56.9994 54.5234 56.9994 54.7081 56.962 54.8928C56.9247 55.0775 56.8873 55.2622 56.85 55.4099C56.7753 55.7793 56.6632 56.1117 56.5138 56.4441C56.2524 57.1459 55.8789 57.7739 55.4307 58.3649C54.5344 59.5468 53.3392 60.5441 51.9946 61.1351C51.3224 61.4306 50.5754 61.6523 49.8658 61.8C49.4923 61.8739 49.1188 61.9108 48.7453 61.9108H48.6706H48.5959H48.4092H48.2224H48.1104H48.073C47.8863 61.9108 47.6622 61.9108 47.4755 61.8739C46.6911 61.8 45.8695 61.6892 45.1225 61.4676C44.3382 61.2459 43.6286 60.9504 42.9189 60.5811C41.4997 59.8423 40.2672 58.8081 39.2588 57.5892C38.7732 56.9613 38.325 56.3333 37.9889 55.6315C37.6154 54.9297 37.354 54.2279 37.1299 53.4523C36.9431 52.7135 36.7938 51.9378 36.7564 51.1622V51.0144V50.9775V50.9405V50.8667V50.7559V50.7189V50.5342V50.4973V50.4234C36.7564 50.3126 36.7564 50.2387 36.7564 50.1279C36.7564 49.7586 36.7938 49.3523 36.8685 48.9829C36.9058 48.5766 36.9805 48.2072 37.0552 47.8009C37.1299 47.3946 37.2419 47.0252 37.354 46.6559C37.5781 45.9171 37.8395 45.1784 38.1757 44.4766C38.8106 43.073 39.6696 41.8541 40.678 40.8937C40.9395 40.6351 41.2009 40.4135 41.4623 40.1919C41.7238 39.9703 42.0226 39.7856 42.3214 39.6009C42.6201 39.4162 42.9189 39.2315 43.2177 39.0838C43.3671 39.0099 43.5165 38.936 43.7033 38.8622C43.7779 38.8252 43.8526 38.7883 43.9273 38.7514C44.002 38.7144 44.0767 38.6775 44.1514 38.6405C44.4876 38.4928 44.8237 38.382 45.1598 38.2712C45.2345 38.2342 45.3466 38.2342 45.4213 38.1973C45.496 38.1604 45.608 38.1604 45.6827 38.1234C45.8695 38.0865 46.0189 38.0495 46.2056 38.0126C46.2803 37.9757 46.3924 37.9757 46.467 37.9387C46.5417 37.9387 46.6538 37.9018 46.7285 37.9018C46.8032 37.9018 46.9152 37.8649 46.9899 37.8649L47.102 37.8279H47.214C47.2887 37.8279 47.4008 37.791 47.4755 37.791C47.5875 37.791 47.6622 37.7541 47.7743 37.7541C47.8489 37.7541 47.9983 37.7171 48.073 37.7171C48.1477 37.7171 48.1851 37.7171 48.2598 37.7171H48.3718H48.4465H48.5212C48.6333 37.7171 48.708 37.7171 48.82 37.7171H48.9694H49.0068H49.0815C49.1561 37.7171 49.2682 37.7171 49.3429 37.7171C49.679 37.7171 50.0152 37.7171 50.3513 37.7171C51.0236 37.7541 51.6585 37.8279 52.2934 37.9387C53.5633 38.1604 54.7584 38.5667 55.8416 39.1207C56.9247 39.6378 57.8957 40.3027 58.7174 40.9676C58.7547 41.0045 58.8294 41.0414 58.8668 41.1153C58.9041 41.1523 58.9788 41.1892 59.0162 41.2631C59.1282 41.3369 59.2029 41.4477 59.315 41.5216C59.427 41.5955 59.5017 41.7063 59.6138 41.7802C59.7258 41.891 59.8005 41.9649 59.8752 42.0757C60.2487 42.445 60.5475 42.8144 60.8463 43.2207C61.4438 43.9964 61.9294 44.7351 62.3029 45.4739C62.3402 45.5108 62.3402 45.5477 62.3776 45.6216C62.4149 45.6586 62.4149 45.6955 62.4523 45.7694C62.4896 45.8432 62.527 45.9541 62.5643 46.0279C62.6017 46.1018 62.639 46.2126 62.6764 46.2865C62.7137 46.3604 62.751 46.4712 62.7884 46.545C62.9378 46.8775 62.9964 47.0388 63.1002 47.5181C63.1694 48.2026 63.1838 48.689 63.2959 49.0953C63.3332 49.2431 63.4826 49.3539 63.632 49.3539C63.7814 49.3539 63.9308 49.1719 63.9308 49.0241C64 48.4765 64 47.9973 64 47.2442Z" fill="#FB755A"/>
<line x1="1" y1="23.5" x2="71" y2="23.5" stroke="#FB755A" stroke-width="3"/>
<line x1="81" y1="23.5" x2="89" y2="23.5" stroke="#FB755A" stroke-width="3"/>
<circle cx="9" cy="17" r="2" fill="#FB755A"/>
<circle cx="16" cy="17" r="2" fill="#FB755A"/>
<circle cx="23" cy="17" r="2" fill="#FB755A"/>
<path d="M93.5271 10.7644L75.0681 29.1956L66 31L67.8072 21.9456L86.2662 3.51445C86.7388 3.03642 87.3014 2.6565 87.9218 2.39658C88.5421 2.13666 89.2078 2.00188 89.8805 2C90.5535 2.0001 91.2197 2.13408 91.8403 2.3941C92.4609 2.65412 93.0234 3.03498 93.4949 3.51445V3.51445C93.972 3.99028 94.3505 4.55535 94.6088 5.17736C94.867 5.79936 95 6.46611 95 7.13945C95 7.81279 94.867 8.47953 94.6088 9.10154C94.3505 9.72355 93.972 10.2886 93.4949 10.7644H93.5271Z" fill="white" stroke="#FB755A" stroke-width="3" stroke-linecap="round" stroke-linejoin="round"/>
</svg>
