<svg width="60" height="60" viewBox="0 0 60 60" fill="none" xmlns="http://www.w3.org/2000/svg">
<rect width="60" height="60" rx="30" fill="#FDC9BE"/>
<g clip-path="url(#clip0_24538_367)">
<path d="M35.8054 35.7394C35.8054 35.2679 36.1589 34.7965 36.7482 34.7965H41.1089C41.5804 34.7965 42.0518 35.1501 42.0518 35.7394V38.3322C42.0518 38.8037 41.6982 39.2751 41.1089 39.2751H36.6304C36.1589 39.2751 35.6875 38.9215 35.6875 38.3322V35.7394H35.8054Z" stroke="#EF5B3E" stroke-width="1.8" stroke-linecap="round" stroke-linejoin="round"/>
<path d="M22.7233 35.7394C22.7233 35.2679 23.0769 34.7965 23.6662 34.7965H31.6805C32.1519 34.7965 32.6233 35.1501 32.6233 35.7394V38.3322C32.6233 38.8037 32.2698 39.2751 31.6805 39.2751H23.5483C23.0769 39.2751 22.6055 38.9215 22.6055 38.3322V35.7394H22.7233Z" stroke="#EF5B3E" stroke-width="1.8" stroke-linecap="round" stroke-linejoin="round"/>
<path d="M14.946 19.5928C14.946 18.65 15.771 17.825 16.7138 17.825H44.4103C45.3531 17.825 46.1781 18.65 46.1781 19.5928V41.0428C46.1781 41.9857 45.3531 42.8107 44.4103 42.8107H16.596C15.6531 42.8107 14.8281 41.9857 14.8281 41.0428V19.5928H14.946Z" stroke="#EF5B3E" stroke-width="1.8" stroke-linecap="round" stroke-linejoin="round"/>
<path d="M27.5553 31.2606C30.2661 31.2606 32.3875 29.1392 32.3875 26.4285C32.3875 23.7177 30.2661 21.5963 27.5553 21.5963C24.8446 21.5963 22.6053 23.8356 22.7232 26.4285C22.7232 29.1392 24.8446 31.2606 27.5553 31.2606Z" stroke="#EF5B3E" stroke-width="1.8" stroke-linecap="round" stroke-linejoin="round"/>
<path d="M27.4375 21.5964V26.4286L30.8554 29.8464" stroke="#EF5B3E" stroke-width="1.8" stroke-linecap="round" stroke-linejoin="round"/>
<path d="M35.8008 31.2607H41.9294" stroke="#EF5B3E" stroke-width="1.8" stroke-linecap="round" stroke-linejoin="round"/>
<path d="M18.7148 17.9429V42.9286" stroke="#EF5B3E" stroke-width="1.8" stroke-linecap="round" stroke-linejoin="round"/>
<path d="M35.8008 24.8965V27.9608" stroke="#EF5B3E" stroke-width="1.8" stroke-linecap="round" stroke-linejoin="round"/>
<path d="M41.9297 23.0106V27.9606" stroke="#EF5B3E" stroke-width="1.8" stroke-linecap="round" stroke-linejoin="round"/>
<path d="M38.8633 21.5964V27.8429" stroke="#EF5B3E" stroke-width="1.8" stroke-linecap="round" stroke-linejoin="round"/>
</g>
<defs>
<clipPath id="clip0_24538_367">
<rect width="33" height="26.7536" fill="white" transform="translate(14 17)"/>
</clipPath>
</defs>
</svg>
