<svg width="18" height="18" viewBox="0 0 18 18" fill="none" xmlns="http://www.w3.org/2000/svg">
<path fill-rule="evenodd" clip-rule="evenodd" d="M9 16.5C13.1421 16.5 16.5 13.1421 16.5 9C16.5 4.85786 13.1421 1.5 9 1.5C4.85786 1.5 1.5 4.85786 1.5 9C1.5 13.1421 4.85786 16.5 9 16.5Z" stroke="#D8D8DF" stroke-width="1.5" stroke-linecap="round" stroke-linejoin="round"/>
<path fill-rule="evenodd" clip-rule="evenodd" d="M5.71958 11.5C6.02752 11.5 6.31827 11.3581 6.50775 11.1153C6.69723 10.8726 6.7643 10.5561 6.68958 10.2573L6.18958 8.25733C6.07825 7.81227 5.67835 7.50005 5.21958 7.5H1.65091C1.08866 10.262 2.12301 13.1059 4.32824 14.8613L5.00024 11.5H5.71958Z" stroke="#D8D8DF" stroke-width="1.5" stroke-linecap="round" stroke-linejoin="round"/>
<path fill-rule="evenodd" clip-rule="evenodd" d="M14.9905 4.5H12.2811C11.8224 4.50005 11.4225 4.81227 11.3111 5.25733L10.8111 7.25733C10.7364 7.55607 10.8035 7.87257 10.993 8.11532C11.1825 8.35806 11.4732 8.49997 11.7811 8.5H12.8338L13.3611 11.6667C13.4416 12.1488 13.859 12.5022 14.3478 12.502H15.6311C16.9907 9.93749 16.7409 6.81746 14.9905 4.502V4.5Z" stroke="#D8D8DF" stroke-width="1.5" stroke-linecap="round" stroke-linejoin="round"/>
</svg>
