<svg width="14" height="14" viewBox="0 0 14 14" fill="none" xmlns="http://www.w3.org/2000/svg">
<path d="M3 9H11" stroke="#4776D1" stroke-linecap="round" stroke-linejoin="round"/>
<path d="M8.99961 13H4.99961L4.59961 9H9.39961L8.99961 13Z" stroke="#4776D1" stroke-linecap="round" stroke-linejoin="round"/>
<path d="M6.99961 6.19844C7.77281 6.19844 8.39961 5.57164 8.39961 4.79844C8.39961 4.02524 7.77281 3.39844 6.99961 3.39844C6.22641 3.39844 5.59961 4.02524 5.59961 4.79844C5.59961 5.57164 6.22641 6.19844 6.99961 6.19844Z" stroke="#4776D1" stroke-linecap="round" stroke-linejoin="round"/>
<path d="M8.73229 7.39819C8.51855 7.14723 8.25286 6.94567 7.95359 6.80745C7.65432 6.66924 7.3286 6.59766 6.99896 6.59766C6.66931 6.59766 6.3436 6.66924 6.04433 6.80745C5.74506 6.94567 5.47937 7.14723 5.26562 7.39819" stroke="#4776D1" stroke-linecap="round" stroke-linejoin="round"/>
<path d="M3 7.4H1.8C1.58783 7.4 1.38434 7.31571 1.23431 7.16569C1.08429 7.01566 1 6.81217 1 6.6V1.8C1 1.58783 1.08429 1.38434 1.23431 1.23431C1.38434 1.08429 1.58783 1 1.8 1H12.2C12.4122 1 12.6157 1.08429 12.7657 1.23431C12.9157 1.38434 13 1.58783 13 1.8V6.6C13 6.81217 12.9157 7.01566 12.7657 7.16569C12.6157 7.31571 12.4122 7.4 12.2 7.4H11" stroke="#4776D1" stroke-linecap="round" stroke-linejoin="round"/>
</svg>

