<svg width="14" height="14" viewBox="0 0 14 14" fill="none" xmlns="http://www.w3.org/2000/svg">
<path d="M8.71373 10.168V11.418C8.71373 11.639 8.62342 11.8509 8.46268 12.0072C8.30193 12.1635 8.08391 12.2513 7.85658 12.2513H6.1423C5.91497 12.2513 5.69695 12.1635 5.53621 12.0072C5.37546 11.8509 5.28516 11.639 5.28516 11.418V10.168" stroke="#EC6D13" stroke-linecap="round" stroke-linejoin="round"/>
<path d="M6.99988 1V1.83333" stroke="#EC6D13" stroke-linecap="round" stroke-linejoin="round"/>
<path d="M1 6.83203H1.85714" stroke="#EC6D13" stroke-linecap="round" stroke-linejoin="round"/>
<path d="M2.28516 2.66797L2.91373 3.25519" stroke="#EC6D13" stroke-linecap="round" stroke-linejoin="round"/>
<path d="M12.9997 6.83203H12.1426" stroke="#EC6D13" stroke-linecap="round" stroke-linejoin="round"/>
<path d="M11.7145 2.66797L11.0859 3.25519" stroke="#EC6D13" stroke-linecap="round" stroke-linejoin="round"/>
<path d="M5.23717 10.1654H8.76289C9.3996 9.85811 9.93403 9.38216 10.3046 8.7924C10.6751 8.20263 10.8667 7.52306 10.8572 6.83204C10.8391 5.84296 10.427 4.89929 9.70747 4.1998C8.98799 3.5003 8.01737 3.09958 7.00003 3.08203C5.9823 3.0996 5.01134 3.50063 4.2918 4.2006C3.57226 4.90056 3.16035 5.84479 3.14289 6.83426C3.13382 7.52491 3.32558 8.20401 3.6961 8.79334C4.06662 9.38268 4.60081 9.85828 5.23717 10.1654V10.1654Z" stroke="#EC6D13" stroke-linecap="round" stroke-linejoin="round"/>
<path d="M7 12.25V13.5" stroke="#EC6D13" stroke-linecap="round" stroke-linejoin="round"/>
<path d="M7 8.08203V10.1654" stroke="#EC6D13" stroke-linecap="round" stroke-linejoin="round"/>
<path d="M5.71289 6.83203L6.9986 8.08203L8.28432 6.83203" stroke="#EC6D13" stroke-linecap="round" stroke-linejoin="round"/>
</svg>

