<svg width="13" height="13" viewBox="0 0 13 13" fill="none" xmlns="http://www.w3.org/2000/svg">
<path d="M5.32532 8.94002C5.23831 8.98341 5.14167 9.00385 5.04456 8.9994C4.94744 8.99496 4.85307 8.96577 4.7704 8.91462C4.68772 8.86346 4.61949 8.79203 4.57217 8.70711C4.52485 8.62218 4.5 8.52657 4.5 8.42935V4.57065C4.5 4.47343 4.52485 4.37782 4.57217 4.29289C4.61949 4.20797 4.68772 4.13654 4.7704 4.08538C4.85307 4.03423 4.94744 4.00504 5.04456 4.0006C5.14167 3.99615 5.23831 4.01659 5.32532 4.05998L9.18457 5.98999C9.27934 6.0373 9.35905 6.11008 9.41477 6.20016C9.47049 6.29025 9.5 6.39408 9.5 6.5C9.5 6.60592 9.47049 6.70975 9.41477 6.79984C9.35905 6.88992 9.27934 6.9627 9.18457 7.01001L5.32532 8.94002Z" stroke="#ECA313" stroke-linecap="round" stroke-linejoin="round"/>
<circle cx="6.5" cy="6.5" r="6" stroke="#ECA313"/>
</svg>

