<svg width="49" height="49" viewBox="0 0 49 49" fill="none" xmlns="http://www.w3.org/2000/svg">
<path d="M10.4255 14.5957C6.46383 14.5957 3.12766 11.2596 3.12766 7.29787C3.12766 3.33617 6.46383 0 10.4255 0C14.3872 0 17.7234 3.33617 17.7234 7.29787C17.7234 11.2596 14.3872 14.5957 10.4255 14.5957ZM10.4255 2.08511C7.50638 2.08511 5.21276 4.37872 5.21276 7.29787C5.21276 10.217 7.50638 12.5106 10.4255 12.5106C13.3447 12.5106 15.6383 10.217 15.6383 7.29787C15.6383 4.37872 13.3447 2.08511 10.4255 2.08511Z" fill="#FF9830"/>
<path d="M10.4255 30.2341C9.79999 30.2341 9.38297 29.817 9.38297 29.1915V16.6809C9.38297 16.0553 9.79999 15.6383 10.4255 15.6383C11.051 15.6383 11.4681 16.0553 11.4681 16.6809V29.1915C11.4681 29.817 11.051 30.2341 10.4255 30.2341Z" fill="#FF9830"/>
<path d="M15.0128 49H5.8383C5.21277 49 4.79574 48.583 4.79574 47.9575L3.33617 33.3617H1.25106C0.417021 33.3617 0 32.9447 0 32.3192V26.0638C0 20.2255 4.58723 15.6383 10.4255 15.6383C16.2638 15.6383 20.8511 20.2255 20.8511 26.0638V32.3192C20.8511 32.9447 20.434 33.3617 19.8085 33.3617H17.7234L16.2638 47.9575C16.0553 48.583 15.6383 49 15.0128 49ZM6.67234 46.9149H14.1787L15.6383 32.3192C15.6383 31.6936 16.0553 31.2766 16.6809 31.2766H18.766V26.0638C18.766 21.4766 15.0128 17.7234 10.4255 17.7234C5.8383 17.7234 2.08511 21.4766 2.08511 26.0638V31.2766H4.17021C4.79574 31.2766 5.21277 31.6936 5.21277 32.3192L6.67234 46.9149Z" fill="#FF9830"/>
<path d="M47.9574 2.08511H22.9362C22.3106 2.08511 21.8936 1.66809 21.8936 1.04255C21.8936 0.417021 22.3106 0 22.9362 0H47.9574C48.583 0 49 0.417021 49 1.04255C49 1.66809 48.583 2.08511 47.9574 2.08511Z" fill="#FF9830"/>
<path d="M47.9574 35.0298H26.0638C25.4383 35.0298 25.0213 34.6128 25.0213 33.9873C25.0213 33.3617 25.4383 32.9447 26.0638 32.9447H47.9574C48.583 32.9447 49 33.3617 49 33.9873C49 34.6128 48.583 35.0298 47.9574 35.0298Z" fill="#FF9830"/>
<path d="M33.7787 23.9787C33.5702 23.9787 33.1532 23.7702 32.9447 23.7702L26.6894 17.5149C26.2723 17.0979 26.2723 16.4723 26.6894 16.0553C27.1064 15.6383 27.7319 15.6383 28.1489 16.0553L33.5702 21.4766L42.3277 10.0085C42.7447 9.59149 43.3702 9.38298 43.7872 9.8C44.2042 10.217 44.4128 10.8426 43.9957 11.2596L34.6128 23.7702C34.6128 23.7702 34.1957 23.9787 33.7787 23.9787C33.9872 23.9787 33.9872 23.9787 33.7787 23.9787Z" fill="#FF9830"/>
</svg>
