<svg width="16" height="16" viewBox="0 0 16 16" fill="none" xmlns="http://www.w3.org/2000/svg">
<circle cx="8" cy="8" r="8" fill="#EABDEA"/>
<path fill-rule="evenodd" clip-rule="evenodd" d="M4 4.8C4 4.35817 4.35817 4 4.8 4H11.45C11.8918 4 12.25 4.35817 12.25 4.8V8.93913C12.25 9.38096 11.8918 9.73913 11.45 9.73913H4.8C4.35817 9.73913 4 9.38096 4 8.93913V4.8Z" fill="#CE64CE"/>
<path fill-rule="evenodd" clip-rule="evenodd" d="M7.94556 9.24219C8.2217 9.24219 8.44556 9.46605 8.44556 9.74219V12.2531C8.44556 12.5292 8.2217 12.7531 7.94556 12.7531C7.66941 12.7531 7.44556 12.5292 7.44556 12.2531V9.74219C7.44556 9.46605 7.66941 9.24219 7.94556 9.24219Z" fill="#CE64CE"/>
<path fill-rule="evenodd" clip-rule="evenodd" d="M7.59213 9.38863C7.78739 9.19337 8.10398 9.19337 8.29924 9.38863L10.8101 11.8995C11.0054 12.0948 11.0054 12.4113 10.8101 12.6066C10.6148 12.8019 10.2983 12.8019 10.103 12.6066L7.94568 10.4493L5.78837 12.6066C5.59311 12.8019 5.27652 12.8019 5.08126 12.6066C4.886 12.4113 4.886 12.0948 5.08126 11.8995L7.59213 9.38863Z" fill="#CE64CE"/>
</svg>
