<svg width="18" height="14" viewBox="0 0 18 14" fill="none" xmlns="http://www.w3.org/2000/svg">
<path d="M17.6918 2.13364C17.153 2.36714 16.5547 2.50649 15.9684 2.60064C16.2457 2.55545 16.6538 2.08091 16.8162 1.88507C17.0658 1.59131 17.2718 1.25612 17.3867 0.894567C17.4026 0.868203 17.4144 0.830543 17.3867 0.807946C17.3511 0.792882 17.3233 0.800413 17.2956 0.815477C16.6459 1.1469 15.9724 1.38794 15.2553 1.55741C15.1959 1.57248 15.1523 1.55741 15.1127 1.52352C15.0532 1.45949 14.9978 1.39923 14.9344 1.35027C14.6333 1.10547 14.3084 0.917164 13.944 0.774049C13.4646 0.589507 12.9416 0.510416 12.4266 0.540545C11.9235 0.570675 11.4322 0.706259 10.9885 0.928464C10.5408 1.15067 10.1446 1.45949 9.8277 1.82858C9.49887 2.21273 9.2572 2.66843 9.13439 3.1505C9.01554 3.61374 9.02346 4.07322 9.09873 4.54399C9.11062 4.62308 9.09873 4.63061 9.02742 4.62308C6.22251 4.22763 3.89696 3.27102 2.01117 1.22976C1.92797 1.13937 1.88439 1.13937 1.81704 1.23729C0.992999 2.41234 1.39314 4.30296 2.42319 5.2332C2.56185 5.35749 2.70051 5.48177 2.85502 5.59475C2.79956 5.60605 2.11417 5.5345 1.5001 5.2332C1.41691 5.18424 1.37729 5.2106 1.36937 5.30099C1.36144 5.42904 1.36937 5.54579 1.39314 5.68137C1.55161 6.87525 2.41923 7.97874 3.61171 8.40808C3.75434 8.46458 3.90885 8.51354 4.06335 8.5399C3.79395 8.5964 3.51267 8.63782 2.73617 8.57756C2.64109 8.55873 2.60147 8.60769 2.64109 8.69432C3.22346 10.2083 4.48726 10.6603 5.43016 10.9164C5.55693 10.939 5.68371 10.939 5.81048 10.9653C5.80256 10.9766 5.79464 10.9766 5.78671 10.9879C5.47374 11.4436 4.38822 11.7788 3.88111 11.9483C2.96199 12.2534 1.95967 12.3927 0.989038 12.3023C0.834529 12.2797 0.798874 12.2835 0.759256 12.3023C0.715677 12.3287 0.755294 12.3626 0.802835 12.4002C1.00092 12.5245 1.19901 12.6337 1.40502 12.7392C2.02305 13.0518 2.66486 13.2966 3.33835 13.4736C6.81677 14.385 10.731 13.7146 13.3418 11.2515C15.39 9.31573 16.111 6.64551 16.111 3.97153C16.111 3.86608 16.2418 3.80959 16.317 3.75309C16.8519 3.37271 17.2797 2.917 17.6799 2.40857C17.771 2.29559 17.771 2.1939 17.771 2.15247V2.13741C17.771 2.09598 17.771 2.10728 17.6997 2.13741L17.6918 2.13364Z" fill="#67677E"/>
</svg>
