<svg width="24" height="24" viewBox="0 0 24 24" fill="none" xmlns="http://www.w3.org/2000/svg">
  <g clip-path="url(#clip0_5747_8464)">
  <path d="M22.3533 14.8212C17.2714 13.8036 16.1964 12.7287 15.1788 7.6467C15.1397 7.4511 14.8603 7.4511 14.8212 7.6467C13.8036 12.7286 12.7287 13.8036 7.6467 14.8212C7.4511 14.8603 7.4511 15.1397 7.6467 15.1788C12.7286 16.1964 13.8036 17.2713 14.8212 22.3533C14.8603 22.5489 15.1397 22.5489 15.1788 22.3533C16.1964 17.2714 17.2713 16.1964 22.3533 15.1788C22.5489 15.1397 22.5489 14.8603 22.3533 14.8212Z" fill="white" stroke="white" stroke-width="2.25"/>
  <path d="M8.92665 5.16062C6.38571 4.65182 5.84818 4.11437 5.33938 1.57335C5.31984 1.47555 5.18016 1.47555 5.16062 1.57335C4.65182 4.11429 4.11437 4.65182 1.57335 5.16062C1.47555 5.18016 1.47555 5.31984 1.57335 5.33938C4.11429 5.84818 4.65182 6.38563 5.16062 8.92665C5.18016 9.02445 5.31984 9.02445 5.33938 8.92665C5.84818 6.38571 6.38563 5.84818 8.92665 5.33938C9.02445 5.31984 9.02445 5.18016 8.92665 5.16062Z" fill="white" stroke="white" stroke-width="2.25"/>
  </g>
  <defs>
  <clipPath id="clip0_5747_8464">
  <rect width="24" height="24" fill="white"/>
  </clipPath>
  </defs>
</svg>