<svg xmlns="http://www.w3.org/2000/svg" width="15" height="15" viewBox="0 0 15 15" fill="none">
<g clip-path="url(#clip0_60587_1536)">
<path d="M5.54795 3.54949C5.80977 3.49647 5.99867 3.26447 5.99867 2.99934C5.99867 2.7342 5.80977 2.50221 5.54795 2.44918C4.05325 2.15091 3.84777 1.94543 3.54949 0.450729C3.49647 0.188909 3.26447 0 2.99934 0C2.7342 0 2.50221 0.188909 2.44918 0.450729C2.15091 1.94543 1.94543 2.15091 0.450729 2.44918C0.188909 2.50221 0 2.7342 0 2.99934C0 3.26447 0.188909 3.49647 0.450729 3.54949C1.94543 3.84777 2.15091 4.05325 2.44918 5.54795C2.50221 5.80977 2.7342 5.99867 2.99934 5.99867C3.26447 5.99867 3.49647 5.80977 3.54949 5.54795C3.84777 4.05325 4.05325 3.84777 5.54795 3.54949Z" fill="url(#paint0_linear_60587_1536)"/>
<path d="M14.4993 8.89174C11.321 8.25541 10.7444 7.68206 10.108 4.50044C10.0484 4.20548 9.79982 4 9.49823 4C9.19664 4 8.94808 4.20548 8.88842 4.50044C8.2521 7.67874 7.67875 8.25541 4.49713 8.89174C4.20217 8.95139 4 9.19996 4 9.50155C4 9.80314 4.20548 10.0517 4.50044 10.1114C7.67875 10.7477 8.25541 11.3243 8.89174 14.5027C8.95139 14.7943 9.20327 14.9998 9.50155 14.9998C9.79982 14.9998 10.0517 14.7943 10.1114 14.4993C10.7477 11.321 11.3243 10.7444 14.5027 10.108C14.7943 10.0484 14.9998 9.79651 14.9998 9.49823C14.9998 9.19996 14.7943 8.94808 14.4993 8.88842V8.89174Z" fill="url(#paint1_linear_60587_1536)"/>
</g>
<defs>
<linearGradient id="paint0_linear_60587_1536" x1="2.99934" y1="0" x2="2.99934" y2="5.99867" gradientUnits="userSpaceOnUse">
<stop stop-color="#F25B29"/>
<stop offset="1" stop-color="#FCC90B"/>
</linearGradient>
<linearGradient id="paint1_linear_60587_1536" x1="9.49989" y1="4" x2="9.49989" y2="14.9998" gradientUnits="userSpaceOnUse">
<stop stop-color="#F25B29"/>
<stop offset="1" stop-color="#FCC90B"/>
</linearGradient>
<clipPath id="clip0_60587_1536">
<rect width="15" height="15" fill="white"/>
</clipPath>
</defs>
</svg>
