<svg width="18" height="18" viewBox="0 0 18 18" fill="none" xmlns="http://www.w3.org/2000/svg">
<path d="M9 17.2373C13.4183 17.2373 17 13.613 17 9.14211C17 4.67123 13.4183 1.04688 9 1.04688C4.58173 1.04688 1 4.67123 1 9.14211C1 13.613 4.58173 17.2373 9 17.2373Z" stroke="#FF671D" stroke-linecap="round" stroke-linejoin="round"/>
<path d="M7.0731 17.0021C5.99078 15.396 5.26758 12.4775 5.26758 9.14365C5.26758 5.80985 5.99078 2.89126 7.0731 1.28516" stroke="#FF671D" stroke-linecap="round" stroke-linejoin="round"/>
<path d="M1 9.14062H17" stroke="#FF671D" stroke-linecap="round" stroke-linejoin="round"/>
<path d="M2.23145 13.4609H15.7682" stroke="#FF671D" stroke-linecap="round" stroke-linejoin="round"/>
<path d="M2.23145 4.82422H15.7682" stroke="#FF671D" stroke-linecap="round" stroke-linejoin="round"/>
<path d="M10.9277 1.28516C12.01 2.89126 12.7332 5.80985 12.7332 9.14365C12.7332 12.4775 12.01 15.396 10.9277 17.0021" stroke="#FF671D" stroke-linecap="round" stroke-linejoin="round"/>
</svg>
