<svg width="16" height="10" viewBox="0 0 16 10" fill="none" xmlns="http://www.w3.org/2000/svg">
<mask id="mask0_54239_3068" style="mask-type:luminance" maskUnits="userSpaceOnUse" x="0" y="0" width="16" height="10">
<path d="M11.9322 3.38319L15.4576 0.806923C15.7654 0.556076 16 0.614381 16 1.07811V8.93438C16 9.45506 15.7071 9.3954 15.4576 9.20557L11.9322 6.6293V3.38319ZM0 1.09709V6.95472C0.00322885 7.59065 0.258857 8.19926 0.710687 8.64677C1.16252 9.09428 1.77356 9.34404 2.40949 9.34116H10.9519C11.0674 9.34152 11.1784 9.29605 11.2605 9.21472C11.3426 9.13339 11.3891 9.02282 11.3898 8.90726V3.04964C11.3866 2.41371 11.131 1.80509 10.6791 1.35758C10.2273 0.910077 9.61627 0.660311 8.98034 0.663195H0.437966C0.322403 0.662834 0.211411 0.708303 0.129315 0.789636C0.0472196 0.870969 0.000717219 0.981532 0 1.09709Z" fill="white"/>
</mask>
<g mask="url(#mask0_54239_3068)">
<path d="M-0.678223 -0.0117188H16.6777V10.0222H-0.678223V-0.0117188Z" fill="white"/>
</g>
</svg>
