<svg width="20" height="14" viewBox="0 0 20 14" fill="none" xmlns="http://www.w3.org/2000/svg">
<g clip-path="url(#clip0_33801_16133)">
<path d="M9.62708 9.4684L7.24557 7.44666L0.433228 13.1054C0.680949 13.3291 1.01594 13.4655 1.3847 13.4655H17.8666C18.2326 13.4655 18.5676 13.3264 18.8125 13.1054L12.0058 7.44666L9.62426 9.4684H9.62708Z" fill="#67677E"/>
<path d="M18.8186 0.4976C18.5709 0.273871 18.2387 0.137451 17.8699 0.137451H1.38517C1.01922 0.137451 0.68423 0.2766 0.436508 0.500329L9.62754 8.1344L18.8186 0.4976Z" fill="#67677E"/>
<path d="M0 1.30811V12.3827L6.64626 6.90679L0 1.30811Z" fill="#67677E"/>
<path d="M12.6055 6.90651L19.2517 12.3824V1.30237L12.6055 6.90651Z" fill="#67677E"/>
</g>
<defs>
<clipPath id="clip0_33801_16133">
<rect width="19.2519" height="13.3282" fill="white" transform="translate(0 0.137451)"/>
</clipPath>
</defs>
</svg>
