<svg width="15" height="14" viewBox="0 0 15 14" fill="none" xmlns="http://www.w3.org/2000/svg">
<path d="M10.3156 0C8.41871 0 7.06378 1.65106 5.70885 2.86764C5.8895 2.86764 6.16049 2.78074 6.43148 2.78074C6.88312 2.78074 7.33476 2.86764 7.78641 3.04143C8.50904 2.34625 9.23167 1.56417 10.3156 1.56417C10.8576 1.56417 11.4899 1.82486 11.9415 2.17245C12.8448 3.04143 12.8448 4.4318 11.9415 5.30078L9.59298 7.56014C9.23167 7.90773 8.50904 8.16842 7.96706 8.16842C6.70246 8.16842 6.07016 7.38634 5.61852 6.43046L4.44424 7.56014C5.16687 8.86361 6.25082 9.81949 7.87674 9.81949C8.96068 9.81949 9.9543 9.385 10.5866 8.68981L12.9351 6.43046C13.7481 5.64838 14.2901 4.6925 14.2901 3.56282C14.1094 1.65106 12.3028 0 10.3156 0V0ZM6.43148 10.5147L5.61852 11.2968C5.2572 11.6443 4.53457 11.905 3.9926 11.905C3.45063 11.905 2.81833 11.6443 2.36668 11.2968C1.46339 10.4278 1.46339 8.9505 2.36668 8.16842L4.71523 5.90907C5.07655 5.56148 5.79918 5.30078 6.34115 5.30078C7.60575 5.30078 8.23805 6.16977 8.68969 7.03875L9.86397 5.90907C9.14134 4.6056 8.05739 3.64972 6.43148 3.64972C5.34753 3.64972 4.35391 4.08421 3.72161 4.7794L1.37307 7.03875C-0.162523 8.51601 -0.162523 10.8623 1.37307 12.2526C2.81833 13.643 5.34753 13.7299 6.70246 12.2526L8.41871 10.6016C8.14772 10.6885 7.87674 10.6885 7.60575 10.6885C7.15411 10.6885 6.79279 10.6885 6.43148 10.5147V10.5147Z" fill="#67677E"/>
</svg>
