<svg width="18" height="18" viewBox="0 0 18 18" fill="none" xmlns="http://www.w3.org/2000/svg">
<g clip-path="url(#clip0_63849_3100)">
<path d="M17.4511 4.94041C15.7571 4.60121 15.3988 4.24291 15.0596 2.5489C15.0466 2.4837 14.9534 2.4837 14.9404 2.5489C14.6012 4.24286 14.2429 4.60121 12.5489 4.94041C12.4837 4.95344 12.4837 5.04656 12.5489 5.05959C14.2429 5.39879 14.6012 5.75709 14.9404 7.4511C14.9534 7.5163 15.0466 7.5163 15.0596 7.4511C15.3988 5.75714 15.7571 5.39879 17.4511 5.05959C17.5163 5.04656 17.5163 4.95344 17.4511 4.94041Z" fill="white" stroke="white" stroke-width="0.75"/>
<path d="M12.9755 1.72021C12.1286 1.55061 11.9494 1.37146 11.7798 0.52445C11.7733 0.49185 11.7267 0.49185 11.7202 0.52445C11.5506 1.37143 11.3715 1.55061 10.5245 1.72021C10.4918 1.72672 10.4918 1.77328 10.5245 1.77979C11.3714 1.94939 11.5506 2.12854 11.7202 2.97555C11.7267 3.00815 11.7733 3.00815 11.7798 2.97555C11.9494 2.12857 12.1285 1.94939 12.9755 1.77979C13.0082 1.77328 13.0082 1.72672 12.9755 1.72021Z" fill="white" stroke="white" stroke-width="0.5"/>
</g>
<path d="M13.8034 16.8197L11.208 14.2433C12.2154 12.9862 12.7033 11.3906 12.5713 9.7845C12.4393 8.17843 11.6974 6.68402 10.4983 5.60855C9.29906 4.53307 7.7337 3.95828 6.12404 4.00236C4.51437 4.04644 2.98276 4.70604 1.84413 5.84553C0.705504 6.98503 0.0464044 8.5178 0.00235827 10.1287C-0.0416878 11.7396 0.532668 13.3061 1.60733 14.5062C2.68198 15.7063 4.17526 16.4488 5.7801 16.5809C7.38495 16.713 8.97938 16.2247 10.2355 15.2165L12.81 17.7929C12.8751 17.8585 12.9524 17.9106 13.0377 17.9462C13.1229 17.9817 13.2144 18 13.3067 18C13.3991 18 13.4905 17.9817 13.5758 17.9462C13.661 17.9106 13.7384 17.8585 13.8034 17.7929C13.9295 17.6624 14 17.4879 14 17.3063C14 17.1248 13.9295 16.9503 13.8034 16.8197ZM6.31088 15.2165C5.34233 15.2165 4.39552 14.9291 3.5902 14.3905C2.78488 13.852 2.15721 13.0866 1.78656 12.1911C1.41591 11.2956 1.31893 10.3102 1.50789 9.35957C1.69684 8.40891 2.16324 7.53567 2.84811 6.85028C3.53298 6.16489 4.40556 5.69813 5.3555 5.50903C6.30545 5.31993 7.29009 5.41699 8.18491 5.78792C9.07974 6.15885 9.84456 6.787 10.3827 7.59293C10.9208 8.39886 11.208 9.34639 11.208 10.3157C11.208 11.6154 10.692 12.862 9.77364 13.7811C8.85526 14.7001 7.60967 15.2165 6.31088 15.2165Z" fill="white"/>
<defs>
<clipPath id="clip0_63849_3100">
<rect width="8" height="8" fill="white" transform="translate(10)"/>
</clipPath>
</defs>
</svg>
