<svg xmlns="http://www.w3.org/2000/svg" width="34.922" height="38.849" viewBox="0 0 34.922 38.849"><g transform="translate(-812.269 -5180.716)"><g transform="translate(812.269 5180.716)"><path d="M1705.8,203.187h0l-11.641-10.205a5.821,5.821,0,0,0-7.76,0l-11.64,10.205a5.821,5.821,0,0,0-1.94,4.385v16.957a5.82,5.82,0,0,0,5.82,5.82h23.282a5.82,5.82,0,0,0,5.82-5.82V207.553A5.819,5.819,0,0,0,1705.8,203.187Zm-11.641,23.282h-7.76v-9.7a1.94,1.94,0,0,1,1.94-1.94h3.88a1.94,1.94,0,0,1,1.94,1.94Zm9.7-1.94a1.94,1.94,0,0,1-1.94,1.94h-3.88v-9.7a5.82,5.82,0,0,0-5.82-5.82h-3.88a5.82,5.82,0,0,0-5.82,5.82v9.7h-3.88a1.94,1.94,0,0,1-1.94-1.94V207.553a1.94,1.94,0,0,1,.66-1.455l11.641-10.186a1.94,1.94,0,0,1,2.561,0L1703.2,206.1a1.941,1.941,0,0,1,.66,1.455Z" transform="translate(-1672.814 -191.5)" fill="#1857b8"/><ellipse cx="2.465" cy="2.465" rx="2.465" ry="2.465" transform="translate(14.996 10.015)" fill="#fbca0a"/></g></g></svg>