<svg width="20" height="16" viewBox="0 0 20 16" fill="none" xmlns="http://www.w3.org/2000/svg">
<path d="M8.01228 11.9022L7.30958 12.5966C6.6733 13.2254 5.8103 13.5787 4.91046 13.5787C4.01061 13.5787 3.14762 13.2254 2.51133 12.5966C1.87504 11.9678 1.51758 11.115 1.51758 10.2257C1.51758 9.33647 1.87504 8.48363 2.51133 7.85482L6.11002 4.29773C6.71336 3.70013 7.5226 3.34944 8.37613 3.31567C9.22967 3.28191 10.0647 3.56756 10.7144 4.11558C11.3642 4.6636 11.7808 5.43366 11.8812 6.27198C11.9816 7.1103 11.7583 7.95519 11.2559 8.63792" stroke="#FF8D0B" stroke-width="1.3" stroke-linecap="round" stroke-linejoin="round"/>
<path d="M12.1246 2.26549L12.6901 1.70667C13.3264 1.07787 14.1894 0.724609 15.0892 0.724609C15.989 0.724609 16.852 1.07787 17.4883 1.70667C18.1246 2.33547 18.4821 3.18831 18.4821 4.07757C18.4821 4.96683 18.1246 5.81967 17.4883 6.44847L13.8896 10.0048C13.2862 10.6022 12.4769 10.9526 11.6235 10.9862C10.77 11.0197 9.93516 10.7339 9.28558 10.1859C8.63599 9.63782 8.21947 8.8678 8.11918 8.02956C8.01889 7.19132 8.24221 6.34654 8.74456 5.66389" stroke="#FF8D0B" stroke-width="1.3" stroke-linecap="round" stroke-linejoin="round"/>
</svg>
