<svg width="13" height="15" viewBox="0 0 13 15" fill="none" xmlns="http://www.w3.org/2000/svg">
<g clip-path="url(#clip0_25909_319)">
<path d="M6.45436 14.5925C6.14814 14.5872 5.8448 14.5085 5.57542 14.3652L1.10775 11.9952C0.413693 11.6217 -0.0145849 10.8875 -0.011696 10.0782V4.92122C-0.0153071 4.11422 0.411526 3.38072 1.10341 3.00797L5.57542 0.634965C5.85636 0.486465 6.17125 0.407715 6.4883 0.407715C6.80464 0.407715 7.12025 0.486465 7.40119 0.634965L11.8696 3.00646C12.183 3.17521 12.451 3.42646 12.6467 3.73471C12.6481 3.73696 12.6489 3.73847 12.6503 3.74072C12.8735 4.09546 12.9905 4.50422 12.9883 4.92422V10.0805C12.9919 10.8875 12.5651 11.621 11.8725 11.9937L7.40119 14.366C7.13108 14.51 6.8263 14.588 6.51936 14.5925C6.50853 14.5932 6.49625 14.594 6.4883 14.594C6.47891 14.5947 6.46592 14.594 6.45436 14.5925ZM7.02925 13.2995L11.3763 10.9932C11.7035 10.817 11.9064 10.4682 11.9042 10.0835V4.92122C11.9042 4.90247 11.9042 4.88297 11.9028 4.86421L10.0084 5.86922V7.70897C10.0084 8.01947 9.76575 8.27147 9.46675 8.27147C9.16775 8.27147 8.92508 8.01947 8.92508 7.70897V6.44372L7.02925 7.44946V13.2995ZM1.07091 4.91897V10.0805C1.06947 10.4675 1.27314 10.8177 1.60247 10.9947L5.94591 13.2995V7.45022L1.07236 4.86346C1.07164 4.88222 1.07091 4.90022 1.07091 4.91897ZM6.48758 6.47371L8.2758 5.52496L3.50841 2.99521L1.72092 3.94396L6.48758 6.47371ZM9.46675 4.89272L11.2557 3.94396L6.90791 1.63621C6.77936 1.56797 6.63419 1.53197 6.4883 1.53197C6.34241 1.53197 6.19725 1.56797 6.06869 1.63621L4.69936 2.36296L9.46675 4.89272Z" fill="#757575"/>
</g>
<defs>
<clipPath id="clip0_25909_319">
<rect width="13" height="15" fill="white"/>
</clipPath>
</defs>
</svg>
