<svg width="40" height="38" viewBox="0 0 40 38" fill="none" xmlns="http://www.w3.org/2000/svg">
<g clip-path="url(#clip0_24795_585)">
<path d="M26.3333 35.6667H35.6667C36.3739 35.6667 37.0522 35.3857 37.5523 34.8856C38.0524 34.3855 38.3333 33.7072 38.3333 33V3.66667C38.3333 2.95942 38.0524 2.28113 37.5523 1.78103C37.0522 1.28094 36.3739 1 35.6667 1H3.66667C2.95942 1 2.28113 1.28094 1.78103 1.78103C1.28094 2.28113 1 2.95942 1 3.66667V33C1 33.7072 1.28094 34.3855 1.78103 34.8856C2.28113 35.3857 2.95942 35.6667 3.66667 35.6667H13" stroke="#FF6224" stroke-width="2.5" stroke-linecap="round" stroke-linejoin="round"/>
<path d="M1 7.66675H38.3333" stroke="#FF6224" stroke-width="2.5" stroke-linecap="round" stroke-linejoin="round"/>
<path d="M19.6647 29.8002C20.9833 29.8002 22.2722 29.4093 23.3685 28.6767C24.4648 27.9442 25.3193 26.903 25.8239 25.6848C26.3285 24.4666 26.4605 23.1262 26.2033 21.833C25.9461 20.5398 25.3111 19.3519 24.3788 18.4196C23.4464 17.4872 22.2586 16.8524 20.9654 16.5952C19.6721 16.3379 18.3317 16.4699 17.1135 16.9745C15.8953 17.4791 14.8541 18.3335 14.1216 19.4298C13.3891 20.5261 12.9981 21.815 12.9981 23.1336C12.9957 24.0097 13.1666 24.8777 13.5008 25.6876C13.835 26.4975 14.3259 27.2334 14.9454 27.853C15.565 28.4725 16.3009 28.9634 17.1108 29.2976C17.9207 29.6318 18.7886 29.8026 19.6647 29.8002V29.8002Z" stroke="#FF6224" stroke-width="2.5" stroke-linecap="round" stroke-linejoin="round"/>
<path d="M19.666 16.5558V13.3557" stroke="#FF6224" stroke-width="2.5" stroke-linecap="round" stroke-linejoin="round"/>
<path d="M19.666 33.0001V29.8" stroke="#FF6224" stroke-width="2.5" stroke-linecap="round" stroke-linejoin="round"/>
<path d="M26.334 23.1333H29.534" stroke="#FF6224" stroke-width="2.5" stroke-linecap="round" stroke-linejoin="round"/>
<path d="M9.79883 23.1333H12.9988" stroke="#FF6224" stroke-width="2.5" stroke-linecap="round" stroke-linejoin="round"/>
<path d="M13.377 16.0935L15.3503 18.0668" stroke="#FF6224" stroke-width="2.5" stroke-linecap="round" stroke-linejoin="round"/>
<path d="M25.9772 16.0935L24.0039 18.0668" stroke="#FF6224" stroke-width="2.5" stroke-linecap="round" stroke-linejoin="round"/>
<path d="M13.377 30.1735L15.3503 28.2002" stroke="#FF6224" stroke-width="2.5" stroke-linecap="round" stroke-linejoin="round"/>
<path d="M25.9772 30.1735L24.0039 28.2002" stroke="#FF6224" stroke-width="2.5" stroke-linecap="round" stroke-linejoin="round"/>
<path d="M19.6673 21.8892C19.931 21.8892 20.1888 21.9673 20.4081 22.1138C20.6274 22.2603 20.7982 22.4687 20.8991 22.7123C21.0001 22.9559 21.0265 23.2241 20.975 23.4827C20.9236 23.7413 20.7966 23.9787 20.6101 24.1652C20.4237 24.3517 20.1861 24.4788 19.9275 24.5302C19.6688 24.5817 19.4007 24.5552 19.1571 24.4543C18.9134 24.3533 18.7052 24.1824 18.5587 23.9632C18.4122 23.7439 18.334 23.4862 18.334 23.2225C18.334 22.8689 18.4745 22.5298 18.7245 22.2798C18.9745 22.0297 19.3137 21.8892 19.6673 21.8892Z" stroke="#FF6224" stroke-width="2.5" stroke-linecap="round" stroke-linejoin="round"/>
</g>
<defs>
<clipPath id="clip0_24795_585">
<rect width="40" height="37.3333" fill="white"/>
</clipPath>
</defs>
</svg>
