<svg width="18" height="21" viewBox="0 0 18 21" fill="none" xmlns="http://www.w3.org/2000/svg">
<path d="M8.98661 1C10.3506 1 11.6587 1.54185 12.6232 2.50632C13.5876 3.4708 14.1295 4.77889 14.1295 6.14286C14.1295 8.61905 10.2209 14.1657 9.21517 15.5448C9.1881 15.5796 9.15345 15.6078 9.11384 15.6271C9.07423 15.6465 9.03071 15.6566 8.98661 15.6566C8.94251 15.6566 8.89899 15.6465 8.85938 15.6271C8.81976 15.6078 8.78511 15.5796 8.75805 15.5448C7.75233 14.1657 3.84375 8.61905 3.84375 6.14286C3.84375 4.77889 4.38558 3.4708 5.35005 2.50632C6.31452 1.54185 7.62264 1 8.98661 1Z" stroke="#FB755A" stroke-width="1.5" stroke-linecap="round" stroke-linejoin="round"/>
<path d="M13.5562 15.2019C15.6362 15.6133 17 16.299 17 17.0762C17 18.3409 13.419 19.3619 9 19.3619C4.58095 19.3619 1 18.3409 1 17.0762C1 16.3143 2.35619 15.6133 4.42857 15.2019" stroke="#FB755A" stroke-width="1.5" stroke-linecap="round" stroke-linejoin="round"/>
</svg>
