<svg width="40" height="40" viewBox="0 0 40 40" fill="none" xmlns="http://www.w3.org/2000/svg">
<g clip-path="url(#clip0_24107_695)">
<path d="M11.3337 3.6665C11.3337 2.33317 12.5003 1.1665 13.8337 1.1665H26.3337C27.667 1.1665 28.8337 2.33317 28.8337 3.6665V36.1665C28.8337 37.4998 27.667 38.6665 26.3337 38.6665H13.667C12.3337 38.6665 11.167 37.4998 11.167 36.1665V3.6665H11.3337Z" stroke="#FF6224" stroke-width="2.5" stroke-linecap="round" stroke-linejoin="round"/>
<path d="M1.33366 7.49984C1.33366 6.83317 1.83366 6.1665 2.66699 6.1665H5.00033C5.66699 6.1665 6.33366 6.6665 6.33366 7.49984V32.4998C6.33366 33.1665 5.83366 33.8332 5.00033 33.8332H2.50033C1.83366 33.8332 1.16699 33.3332 1.16699 32.4998V7.49984H1.33366Z" stroke="#FF6224" stroke-width="2.5" stroke-linecap="round" stroke-linejoin="round"/>
<path d="M33.667 7.49984C33.667 6.83317 34.167 6.1665 35.0003 6.1665H37.5003C38.167 6.1665 38.8337 6.6665 38.8337 7.49984V32.4998C38.8337 33.1665 38.3337 33.8332 37.5003 33.8332H35.0003C34.3337 33.8332 33.667 33.3332 33.667 32.4998V7.49984Z" stroke="#FF6224" stroke-width="2.5" stroke-linecap="round" stroke-linejoin="round"/>
</g>
<defs>
<clipPath id="clip0_24107_695">
<rect width="40" height="40" fill="white"/>
</clipPath>
</defs>
</svg>
