<svg width="14" height="14" viewBox="0 0 14 14" fill="none" xmlns="http://www.w3.org/2000/svg">
<circle cx="7" cy="7" r="7" fill="#D8D8DF"/>
<path d="M6.04836 9.13778H7.6609V9.01188C7.67058 7.98528 8.00471 7.51556 8.79403 7.03132C9.68505 6.49864 10.2419 5.77228 10.2419 4.66335C10.2419 3.0266 8.96836 2 7.11854 2C5.42368 2 4.04842 2.93944 4 4.77957H5.72392C5.7675 3.86919 6.42607 3.43337 7.10886 3.43337C7.84976 3.43337 8.44538 3.9273 8.44538 4.68756C8.44538 5.36551 7.99503 5.83039 7.40909 6.19841C6.55198 6.73108 6.05805 7.2686 6.04836 9.01188V9.13778ZM6.89579 12.1595C7.4672 12.1595 7.95629 11.6849 7.96113 11.0941C7.95629 10.513 7.4672 10.0385 6.89579 10.0385C6.30501 10.0385 5.82561 10.513 5.83045 11.0941C5.82561 11.6849 6.30501 12.1595 6.89579 12.1595Z" fill="#5C5C70"/>
</svg>