<svg width="22" height="22" viewBox="0 0 22 22" fill="none" xmlns="http://www.w3.org/2000/svg">
<path d="M4 9.52632C4 9.21053 4.18333 9 4.36667 9H14.6333C14.8167 9 15 9.21053 15 9.52632V12.4737C15 12.7895 14.8167 13 14.6333 13H4.36667C4.18333 13 4 12.7895 4 12.4737V9.52632V9.52632Z" stroke="black" stroke-width="2" stroke-linecap="round" stroke-linejoin="round"/>
<path d="M1 1.43243C1 1.21622 1.22222 1 1.66667 1H20.3333C20.6667 1 21 1.21622 21 1.54054V4.45946C21 4.78378 20.6667 5 20.3333 5H1.66667C1.22222 5 1 4.78378 1 4.45946V1.43243Z" stroke="black" stroke-width="2" stroke-linecap="round" stroke-linejoin="round"/>
<path d="M9 17.5263C9 17.2105 9.25352 17 9.50704 17H20.493C20.831 17 21 17.2105 21 17.5263V20.4737C21 20.7895 20.7465 21 20.493 21H9.50704C9.16901 21 9 20.7895 9 20.4737V17.5263V17.5263Z" stroke="black" stroke-width="2" stroke-linecap="round" stroke-linejoin="round"/>
</svg>
