<svg width="24" height="24" viewBox="0 0 24 24" fill="none" xmlns="http://www.w3.org/2000/svg">
<path d="M6.75 2.25C6.75 1.85218 6.90803 1.47076 7.18933 1.18945C7.47064 0.908149 7.85218 0.75 8.25 0.75H15.75C16.1478 0.75 16.5294 0.908149 16.8107 1.18945C17.092 1.47076 17.25 1.85218 17.25 2.25V21.75C17.25 22.1478 17.092 22.5292 16.8107 22.8105C16.5294 23.0919 16.1478 23.25 15.75 23.25H8.25C7.85218 23.25 7.47064 23.0919 7.18933 22.8105C6.90803 22.5292 6.75 22.1478 6.75 21.75V2.25Z" stroke="#F55C04" stroke-width="1.5" stroke-linecap="round" stroke-linejoin="round"/>
<path d="M0.75 4.5C0.75259 4.30189 0.832439 4.11275 0.972534 3.97266C1.11263 3.83256 1.30189 3.75259 1.5 3.75H3C3.19891 3.75 3.38968 3.82907 3.53033 3.96973C3.67099 4.11038 3.75 4.30109 3.75 4.5V19.5C3.75 19.6989 3.67099 19.8896 3.53033 20.0303C3.38968 20.1709 3.19891 20.25 3 20.25H1.5C1.30189 20.2474 1.11263 20.1674 0.972534 20.0273C0.832439 19.8872 0.75259 19.6981 0.75 19.5V4.5Z" stroke="#F55C04" stroke-width="1.5" stroke-linecap="round" stroke-linejoin="round"/>
<path d="M20.25 4.5C20.2526 4.30189 20.3324 4.11275 20.4725 3.97266C20.6126 3.83256 20.8019 3.75259 21 3.75H22.5C22.6989 3.75 22.8897 3.82907 23.0303 3.96973C23.171 4.11038 23.25 4.30109 23.25 4.5V19.5C23.25 19.6989 23.171 19.8896 23.0303 20.0303C22.8897 20.1709 22.6989 20.25 22.5 20.25H21C20.8019 20.2474 20.6126 20.1674 20.4725 20.0273C20.3324 19.8872 20.2526 19.6981 20.25 19.5V4.5Z" stroke="#F55C04" stroke-width="1.5" stroke-linecap="round" stroke-linejoin="round"/>
</svg>
