<svg width="31" height="31" viewBox="0 0 31 31" fill="none" xmlns="http://www.w3.org/2000/svg">
<path d="M24.6373 30.0145C26.0795 30.0145 27.4627 29.4273 28.4825 28.3822C29.5023 27.3371 30.0753 25.9199 30.0753 24.4419C30.0753 22.964 29.5023 21.5464 28.4825 20.5013C27.4627 19.4563 26.0795 18.8694 24.6373 18.8694C24.4826 18.8562 24.3271 18.8562 24.1723 18.8694C23.6771 17.4236 22.8033 16.1453 21.6465 15.1744C20.4898 14.2035 19.0948 13.5772 17.6141 13.3644C16.1334 13.1516 14.624 13.3604 13.2513 13.9677C11.8785 14.5751 10.6953 15.5576 9.83108 16.808C8.96682 18.0583 8.45479 19.5283 8.35115 21.0568C8.24751 22.5854 8.55621 24.1136 9.24343 25.4744C9.93064 26.8352 10.9699 27.9762 12.2475 28.7722C13.5251 29.5683 14.9917 29.9889 16.4869 29.988L24.6373 30.0145Z" stroke="#FF6224" stroke-width="1.75" stroke-linecap="round" stroke-linejoin="round"/>
<path d="M28.125 14.8984V2.98548C28.125 2.4589 27.9209 1.95371 27.5575 1.58136C27.1942 1.20901 26.7014 1 26.1875 1H2.9375C2.42364 1 1.93082 1.20901 1.56747 1.58136C1.20412 1.95371 1 2.4589 1 2.98548V24.8258C1.00339 25.3513 1.20863 25.8541 1.57125 26.2257C1.93387 26.5973 2.42469 26.8078 2.9375 26.8113H5.19792" stroke="#FF6224" stroke-width="1.75" stroke-linecap="round" stroke-linejoin="round"/>
<path d="M1 6.9563H28.125" stroke="#FF6224" stroke-width="1.75" stroke-linecap="round" stroke-linejoin="round"/>
</svg>
