<svg width="41" height="29" viewBox="0 0 41 29" fill="none" xmlns="http://www.w3.org/2000/svg">
<path d="M26.6484 10.1341L26.6492 10.1323C26.6758 10.0758 26.7109 10.03 26.7492 9.99582C26.7873 9.96175 26.8278 9.93972 26.8668 9.92743C26.9056 9.9152 26.9448 9.91198 26.9831 9.91706C27.0212 9.92212 27.061 9.9358 27.1 9.96028C27.1396 9.98529 27.1776 10.0157 27.2132 10.0514C28.4218 11.3746 29.3006 13.012 29.7606 14.8111C30.222 16.615 30.2456 18.5166 29.8293 20.3334C29.4129 22.1501 28.5716 23.8167 27.3909 25.1767C26.2105 26.5363 24.7312 27.5433 23.097 28.1091L23.0952 28.1098C23.0277 28.1333 22.9558 28.13 22.8875 28.0972L22.884 28.0955C20.8123 27.1125 19.096 25.4042 18.0225 23.2325C17.85 22.8834 17.4675 22.6904 17.0842 22.7589C16.7009 22.8273 16.409 23.1409 16.368 23.5281C16.2372 24.7627 16.3229 26.0128 16.621 27.2147C16.6243 27.2278 16.6278 27.2409 16.6317 27.2539C16.6471 27.3058 16.6555 27.3607 16.6561 27.4167C16.6558 27.4977 16.6369 27.575 16.6041 27.6413C16.571 27.708 16.5263 27.7583 16.4793 27.7922C16.4327 27.8258 16.3842 27.8432 16.3385 27.8482C16.293 27.8532 16.2455 27.8465 16.1988 27.826L16.1971 27.8253C14.7479 27.1938 13.4499 26.2063 12.409 24.9359C11.368 23.6652 10.6138 22.1473 10.2105 20.5013C9.80717 18.8552 9.76686 17.13 10.093 15.4638C10.4192 13.7976 11.102 12.2402 12.0833 10.9141L12.0834 10.9141L12.0903 10.9046C12.7188 10.0308 13.4725 9.274 14.321 8.66158C14.3428 8.64582 14.3639 8.62906 14.3842 8.61135L14.6659 8.36553L14.6788 8.35407C15.6533 7.46925 16.4465 6.3848 17.0134 5.16852C17.58 3.95298 17.9098 2.62922 17.9845 1.27705C17.9898 1.1934 18.0147 1.11614 18.0527 1.05247C18.0909 0.988494 18.1394 0.943047 18.1884 0.914651C18.2369 0.886552 18.2866 0.874503 18.3336 0.875016C18.3806 0.875529 18.4304 0.88868 18.4789 0.918154L18.9335 0.170519L18.4772 0.917138C19.9759 1.83303 21.2292 3.16333 22.1032 4.7787C22.9773 6.39435 23.4388 8.23397 23.4367 10.1096V10.1102C23.4364 10.7262 23.3858 11.3409 23.2855 11.9471C23.2246 12.3154 23.404 12.6817 23.7322 12.8594C24.0604 13.0371 24.4652 12.9871 24.7403 12.7348C25.5328 12.0078 26.1803 11.1234 26.6484 10.1341Z" stroke="#FF6224" stroke-width="1.75" stroke-linejoin="round"/>
<line x1="34.5964" y1="11.0546" x2="37.4982" y2="9.03391" stroke="#FF6224" stroke-width="1.75" stroke-linecap="round"/>
<line x1="0.875" y1="-0.875" x2="4.41102" y2="-0.875" transform="matrix(0.820625 0.571467 0.571467 -0.820625 34.3784 23.8445)" stroke="#FF6224" stroke-width="1.75" stroke-linecap="round"/>
<line x1="39.4106" y1="18.2437" x2="35.554" y2="18.2437" stroke="#FF6224" stroke-width="1.75" stroke-linecap="round"/>
<line x1="0.875" y1="-0.875" x2="4.41102" y2="-0.875" transform="matrix(-0.820625 -0.571467 -0.571467 0.820625 5.90723 12.2729)" stroke="#FF6224" stroke-width="1.75" stroke-linecap="round"/>
<line x1="5.68921" y1="25.0626" x2="2.78747" y2="27.0833" stroke="#FF6224" stroke-width="1.75" stroke-linecap="round"/>
<line x1="0.875" y1="-0.875" x2="4.73167" y2="-0.875" transform="matrix(1 0 0 -1 0 17.3689)" stroke="#FF6224" stroke-width="1.75" stroke-linecap="round"/>
</svg>
