<svg xmlns="http://www.w3.org/2000/svg" width="200.835" height="193.627" viewBox="0 0 200.835 193.627">
  <g id="Group_522" data-name="Group 522" transform="translate(-446.367 -3074.863)">
    <ellipse id="Ellipse_585" data-name="Ellipse 585" cx="30.898" cy="30.898" rx="30.898" ry="30.898" transform="translate(446.367 3074.863)" fill="#fade2a"/>
    <g id="Group_346" data-name="Group 346" transform="translate(476.922 3099.581)">
      <g id="Path_843" data-name="Path 843" transform="translate(-1686.704 -1849.037)" fill="none" stroke-linecap="round" stroke-linejoin="round">
        <path d="M1824.885,1882.2h-99.491c-5.527,0-5.527,0-5.527,5.527v121.6c0,5.527,0,5.527,5.527,5.527h71.855l33.164-33.164v-93.963C1830.412,1882.2,1830.412,1882.2,1824.885,1882.2Z" stroke="none"/>
        <path d="M 1725.8671875 1888.2001953125 L 1725.8671875 2008.854248046875 L 1794.763427734375 2008.854248046875 L 1824.412475585938 1979.204711914062 L 1824.412475585938 1888.2001953125 L 1725.8671875 1888.2001953125 M 1725.394165039062 1882.2001953125 L 1824.88525390625 1882.2001953125 C 1830.412475585938 1882.2001953125 1830.412475585938 1882.2001953125 1830.412475585938 1887.727172851562 L 1830.412475585938 1981.68994140625 L 1797.248779296875 2014.854248046875 L 1725.394165039062 2014.854248046875 C 1719.8671875 2014.854248046875 1719.8671875 2014.854248046875 1719.8671875 2009.327270507812 L 1719.8671875 1887.727172851562 C 1719.8671875 1882.2001953125 1719.8671875 1882.2001953125 1725.394165039062 1882.2001953125 Z" stroke="none" fill="#072d67"/>
      </g>
      <path id="Path_844" data-name="Path 844" d="M1782.686,1840h-99.491c-5.527,0-5.527,0-5.527,5.527v121.6c0,5.528,0,5.528,5.527,5.528h18.965s.131-108.294,0-108.163h86.053v-18.965C1788.213,1840,1788.213,1840,1782.686,1840Z" transform="translate(-1677.667 -1840)" fill="#5794f2"/>
      <path id="Path_845" data-name="Path 845" d="M1812.006,2040.608h4.973l33.164-33.164v-4.973h-38.137Z" transform="translate(-1706.434 -1874.791)" fill="#4dffba"/>
      <line id="Line_8" data-name="Line 8" x2="54.225" transform="translate(62.345 67.584)" fill="none" stroke="#072d67" stroke-linecap="round" stroke-linejoin="round" stroke-width="6"/>
      <line id="Line_9" data-name="Line 9" x2="54.225" transform="translate(62.345 86.445)" fill="none" stroke="#072d67" stroke-linecap="round" stroke-linejoin="round" stroke-width="6"/>
      <line id="Line_10" data-name="Line 10" x2="33.792" transform="translate(62.345 105.306)" fill="none" stroke="#072d67" stroke-linecap="round" stroke-linejoin="round" stroke-width="6"/>
    </g>
    <g id="Group_347" data-name="Group 347" transform="translate(452.545 3243.77)">
      <path id="Path_848" data-name="Path 848" d="M953.617,2215.838a2.809,2.809,0,1,1,2.808,2.81A2.812,2.812,0,0,1,953.617,2215.838Z" transform="translate(-934.516 -2193.928)" fill="#8936b2"/>
      <path id="Path_849" data-name="Path 849" d="M941.344,2203.566a2.809,2.809,0,1,1,2.809,2.809A2.813,2.813,0,0,1,941.344,2203.566Z" transform="translate(-931.794 -2191.206)" fill="#8936b2"/>
      <path id="Path_850" data-name="Path 850" d="M929.071,2191.293a2.809,2.809,0,1,1,2.81,2.809A2.813,2.813,0,0,1,929.071,2191.293Z" transform="translate(-929.071 -2188.484)" fill="#8936b2"/>
    </g>
    <path id="Path_851" data-name="Path 851" d="M1609.832,2357.2c-.28,0-.554.031-.832.042v9.8c.147-.006.291-.022.439-.022a10.975,10.975,0,0,1,10.975,10.974h10.214A20.8,20.8,0,0,0,1609.832,2357.2Z" transform="translate(-983.427 748.563)" fill="#fade2a"/>
  </g>
</svg>
