<svg width="80" height="80" viewBox="0 0 80 80" fill="none" xmlns="http://www.w3.org/2000/svg">
<rect width="80" height="80" rx="40" fill="#F0F0F0"/>
<rect x="11" y="11" width="58" height="58" rx="29" fill="url(#paint0_radial)"/>
<path d="M47.2207 57.9184C52.4836 57.9184 56.75 53.652 56.75 48.3891C56.75 43.1262 52.4836 38.8598 47.2207 38.8598C41.9578 38.8598 37.6914 43.1262 37.6914 48.3891C37.6914 53.652 41.9578 57.9184 47.2207 57.9184Z" stroke="white" stroke-width="2" stroke-linecap="round" stroke-linejoin="round"/>
<path d="M51.4674 45.6177L46.8616 51.7704C46.7591 51.9068 46.6286 52.0196 46.4788 52.1012C46.329 52.1828 46.1634 52.2313 45.9932 52.2433C45.8231 52.2553 45.6523 52.2307 45.4925 52.171C45.3327 52.1114 45.1875 52.0181 45.0669 51.8975L42.6846 49.5151" stroke="white" stroke-width="2" stroke-linecap="round" stroke-linejoin="round"/>
<path d="M56.5138 36.3314C56.2041 35.1234 55.6068 34.0082 54.7729 33.0809C53.9391 32.1535 52.8933 31.4416 51.7249 31.0058C50.5565 30.5699 49.3 30.423 48.0625 30.5777C46.825 30.7323 45.6433 31.1839 44.6181 31.8939C44.2 29.6705 43.1574 27.6121 41.6122 25.9596C40.067 24.3071 38.0832 23.1289 35.8929 22.5626C33.7025 21.9964 31.3962 22.0657 29.2438 22.7623C27.0913 23.4589 25.1818 24.7541 23.7386 26.4964C22.2953 28.2386 21.3781 30.3558 21.0942 32.6003C20.8103 34.8447 21.1714 37.1237 22.1353 39.1704C23.0993 41.2171 24.6261 42.947 26.5373 44.1577C28.4484 45.3684 30.6649 46.0097 32.9272 46.0068" stroke="white" stroke-width="2" stroke-linecap="round" stroke-linejoin="round"/>
<defs>
<radialGradient id="paint0_radial" cx="0" cy="0" r="1" gradientUnits="userSpaceOnUse" gradientTransform="translate(23 11) rotate(57.3808) scale(59.3633 69.3441)">
<stop stop-color="#FFBF0C"/>
<stop offset="1" stop-color="#FF800B"/>
</radialGradient>
</defs>
</svg>
