<svg width="20" height="20" viewBox="0 0 20 20" fill="none" xmlns="http://www.w3.org/2000/svg">
<path fill-rule="evenodd" clip-rule="evenodd" d="M5.82227 0C6.30551 0 6.69727 0.391751 6.69727 0.875V2.41113H13.3887V0.875C13.3887 0.391751 13.7804 0 14.2637 0C14.7469 0 15.1387 0.391751 15.1387 0.875V2.41113H17.8816C19.0307 2.41113 19.9625 3.34268 19.9625 4.49197V8.11035V17.7561C19.9625 18.9052 19.0308 19.8369 17.8816 19.8369H2.20582C1.05654 19.8369 0.125 18.9052 0.125 17.7561V8.11035V4.49197C0.125 3.34275 1.05661 2.41113 2.20582 2.41113H4.94727V0.875C4.94727 0.391751 5.33902 0 5.82227 0ZM13.3887 4.16113V5.09539C13.3887 5.57864 13.7804 5.97039 14.2637 5.97039C14.7469 5.97039 15.1387 5.57864 15.1387 5.09539V4.16113H17.8816C18.0643 4.16113 18.2125 4.30931 18.2125 4.49197V7.23535H1.875V4.49197C1.875 4.30924 2.02312 4.16113 2.20582 4.16113H4.94727V5.09539C4.94727 5.57864 5.33902 5.97039 5.82227 5.97039C6.30551 5.97039 6.69727 5.57864 6.69727 5.09539V4.16113H13.3887ZM1.875 8.98535H18.2125V17.7561C18.2125 17.9387 18.0643 18.0869 17.8816 18.0869H2.20582C2.02318 18.0869 1.875 17.9388 1.875 17.7561V8.98535Z" fill="url(#paint0_linear_25790_826)"/>
<defs>
<linearGradient id="paint0_linear_25790_826" x1="37" y1="-15.125" x2="20.8401" y2="27.9974" gradientUnits="userSpaceOnUse">
<stop stop-color="#FFF100"/>
<stop offset="1" stop-color="#F05A28"/>
</linearGradient>
</defs>
</svg>
