<svg width="23" height="23" viewBox="0 0 23 23" fill="none" xmlns="http://www.w3.org/2000/svg">
<g clip-path="url(#clip0_24005_435)">
<path d="M6.1001 3.5C5.0001 4.1 4.2001 5 3.6001 6" stroke="#FD9800" stroke-width="1.5" stroke-linecap="round" stroke-linejoin="round"/>
<path d="M5.20005 0.800049C3.10005 1.40005 1.40005 3.10005 0.800049 5.20005" stroke="#FD9800" stroke-width="1.5" stroke-linecap="round" stroke-linejoin="round"/>
<path d="M3.80005 17.2H18.8" stroke="#FD9800" stroke-width="1.5" stroke-linecap="round" stroke-linejoin="round"/>
<path d="M18.8 17.2001C18.8 17.2001 17.3 15.9001 17.3 11.2001C17.3 7.4001 14.7 4.1001 11.3 4.1001C7.90005 4.1001 5.30005 7.4001 5.30005 11.2001C5.30005 15.9001 3.80005 17.2001 3.80005 17.2001" stroke="#FD9800" stroke-width="1.5" stroke-linecap="round" stroke-linejoin="round"/>
<path d="M12.8 20.2C12.8 21 12.1 21.7 11.3 21.7C10.5 21.7 9.80005 21 9.80005 20.2" stroke="#FD9800" stroke-width="1.5" stroke-linecap="round" stroke-linejoin="round"/>
<path d="M11.2 4.19995V2.19995" stroke="#FD9800" stroke-width="1.5" stroke-linecap="round" stroke-linejoin="round"/>
<path d="M16.4001 3.5C16.9001 3.8 17.4001 4.1 17.8001 4.6C18.3001 5 18.6001 5.5 18.9001 6" stroke="#FD9800" stroke-width="1.5" stroke-linecap="round" stroke-linejoin="round"/>
<path d="M17.3 0.800049C19.5 1.40005 21.2 3.10005 21.8 5.30005" stroke="#FD9800" stroke-width="1.5" stroke-linecap="round" stroke-linejoin="round"/>
</g>
<defs>
<clipPath id="clip0_24005_435">
<rect width="22.5" height="22.5" fill="white"/>
</clipPath>
</defs>
</svg>
