<svg width="22" height="22" viewBox="0 0 22 22" fill="none" xmlns="http://www.w3.org/2000/svg">
<path d="M21 5.30622V18.8947C21 20.0431 20.1071 21 19.0357 21C17.9643 21 17.0714 20.0431 17.0714 18.8947V2.43541C17.0714 1.66986 16.4464 1 15.7321 1H2.33929C1.625 1 1 1.66986 1 2.43541V18.8947C1 20.0431 1.89286 21 2.96429 21H19.0357" stroke="#EF5B3E" stroke-width="1.5" stroke-linecap="round" stroke-linejoin="round"/>
<path d="M4.30469 13.918H13.6797" stroke="#EF5B3E" stroke-width="1.5" stroke-linecap="round" stroke-linejoin="round"/>
<path d="M4.30469 16.7891H9.66183" stroke="#EF5B3E" stroke-width="1.5" stroke-linecap="round" stroke-linejoin="round"/>
<path d="M4.30469 5.30559C4.30469 4.92281 4.57254 4.54004 5.01897 4.54004H13.0547C13.4118 4.54004 13.769 4.82712 13.769 5.30559V9.61181C13.769 9.99458 13.5011 10.3774 13.0547 10.3774H5.01897C4.66183 10.3774 4.30469 10.0903 4.30469 9.61181V5.30559V5.30559Z" stroke="#EF5B3E" stroke-width="1.5" stroke-linecap="round" stroke-linejoin="round"/>
</svg>
