<svg width="17" height="17" viewBox="0 0 17 17" fill="none" xmlns="http://www.w3.org/2000/svg">
<path d="M11.9 7.0295L7.65 4.573C7.3917 4.42387 7.0987 4.34532 6.80044 4.34524C6.50217 4.34516 6.20914 4.42356 5.95076 4.57256C5.69238 4.72156 5.47774 4.93592 5.32841 5.19411C5.17908 5.4523 5.10031 5.74523 5.1 6.0435V10.9565C5.10031 11.2546 5.179 11.5474 5.32819 11.8055C5.47739 12.0636 5.69183 12.2779 5.95 12.427C6.20844 12.5762 6.50159 12.6548 6.8 12.6548C7.09841 12.6548 7.39157 12.5762 7.65 12.427L11.9 9.9705C12.1576 9.82106 12.3715 9.60656 12.5201 9.34849C12.6687 9.09042 12.747 8.79782 12.747 8.5C12.747 8.20218 12.6687 7.90958 12.5201 7.65151C12.3715 7.39343 12.1576 7.17894 11.9 7.0295ZM11.05 8.5L6.8 10.9565V6.0435L11.05 8.5ZM8.5 0C6.81886 0 5.17547 0.498516 3.77766 1.43251C2.37984 2.3665 1.29037 3.69402 0.647028 5.24719C0.00368291 6.80036 -0.164645 8.50943 0.163329 10.1583C0.491303 11.8071 1.30085 13.3217 2.4896 14.5104C3.67834 15.6992 5.1929 16.5087 6.84174 16.8367C8.49057 17.1646 10.1996 16.9963 11.7528 16.353C13.306 15.7096 14.6335 14.6202 15.5675 13.2223C16.5015 11.8245 17 10.1811 17 8.5C17 7.38376 16.7801 6.27846 16.353 5.24719C15.9258 4.21592 15.2997 3.27889 14.5104 2.48959C13.7211 1.70029 12.7841 1.07419 11.7528 0.647024C10.7215 0.219859 9.61624 0 8.5 0ZM8.5 15.3C7.15509 15.3 5.84038 14.9012 4.72213 14.154C3.60387 13.4068 2.7323 12.3448 2.21762 11.1022C1.70295 9.85971 1.56828 8.49245 1.83066 7.17338C2.09304 5.85431 2.74068 4.64267 3.69168 3.69167C4.64267 2.74068 5.85432 2.09304 7.17339 1.83066C8.49246 1.56828 9.85971 1.70294 11.1022 2.21762C12.3448 2.73229 13.4068 3.60387 14.154 4.72212C14.9012 5.84037 15.3 7.15509 15.3 8.5C15.3 10.3035 14.5836 12.0331 13.3083 13.3083C12.0331 14.5836 10.3035 15.3 8.5 15.3Z" fill="#3B3B3B"/>
</svg>
