<svg width="32" height="32" viewBox="0 0 32 32" fill="none" xmlns="http://www.w3.org/2000/svg">
<path d="M17.3589 1.09131L18.3397 1.22221" stroke="#FF6224" stroke-width="1.75" stroke-linecap="round" stroke-linejoin="round"/>
<path d="M23.7407 3.43213L24.5384 3.99451" stroke="#FF6224" stroke-width="1.75" stroke-linecap="round" stroke-linejoin="round"/>
<path d="M28.4741 8.30981C28.631 8.58443 28.788 8.87217 28.9318 9.17294" stroke="#FF6224" stroke-width="1.75" stroke-linecap="round" stroke-linejoin="round"/>
<path d="M11.8278 29.8606C11.5079 29.7802 11.1934 29.6798 10.8862 29.5598" stroke="#FF6224" stroke-width="1.75" stroke-linecap="round" stroke-linejoin="round"/>
<path d="M5.85177 26.5001L5.15869 25.8201" stroke="#FF6224" stroke-width="1.75" stroke-linecap="round" stroke-linejoin="round"/>
<path d="M1.98036 20.9291C1.87574 20.6153 1.75804 20.3146 1.6665 20.0007" stroke="#FF6224" stroke-width="1.75" stroke-linecap="round" stroke-linejoin="round"/>
<path d="M22.6157 30.4231C24.1675 30.4231 25.6845 29.9629 26.9748 29.1007C28.2651 28.2386 29.2707 27.0133 29.8646 25.5796C30.4584 24.1459 30.6138 22.5683 30.3111 21.0462C30.0083 19.5242 29.2611 18.1261 28.1638 17.0288C27.0665 15.9315 25.6684 15.1842 24.1464 14.8815C22.6244 14.5787 21.0468 14.7341 19.6131 15.328C18.1794 15.9218 16.954 16.9276 16.0918 18.2179C15.2297 19.5082 14.7695 21.0251 14.7695 22.5769C14.7695 24.6579 15.5962 26.6536 17.0676 28.1251C18.539 29.5965 20.5348 30.4231 22.6157 30.4231Z" stroke="#FF6224" stroke-width="1.75" stroke-linecap="round" stroke-linejoin="round"/>
<path d="M26.1075 20.2886L22.3152 25.3493C22.2307 25.4627 22.1227 25.5565 21.9985 25.6242C21.8744 25.6919 21.7371 25.732 21.596 25.7417C21.4559 25.7553 21.3147 25.7364 21.1831 25.6865C21.0516 25.6366 20.9333 25.5569 20.8375 25.4539L18.876 23.4924" stroke="#FF6224" stroke-width="1.75" stroke-linecap="round" stroke-linejoin="round"/>
<path d="M10.8076 4.9231H8.19221C7.7871 4.92548 7.39532 5.06811 7.08355 5.3268C6.77179 5.58549 6.55928 5.94433 6.48221 6.34205C6.40513 6.73977 6.46824 7.15188 6.66079 7.50831C6.85335 7.86474 7.16347 8.14334 7.53836 8.29688L10.2322 9.38237C10.6157 9.53038 10.9349 9.80836 11.1341 10.1679C11.3332 10.5275 11.3997 10.9456 11.3218 11.3492C11.2439 11.7528 11.0266 12.1162 10.7079 12.3758C10.3892 12.6353 9.98936 12.7746 9.57836 12.7692H6.96297" stroke="#FF6224" stroke-width="1.75" stroke-linecap="round" stroke-linejoin="round"/>
<path d="M8.84619 4.92315V3.94238" stroke="#FF6224" stroke-width="1.75" stroke-linecap="round" stroke-linejoin="round"/>
<path d="M8.84619 13.7501V12.7693" stroke="#FF6224" stroke-width="1.75" stroke-linecap="round" stroke-linejoin="round"/>
<path d="M8.84615 16.6924C10.398 16.6924 11.9149 16.2322 13.2052 15.37C14.4955 14.5079 15.5012 13.2826 16.0951 11.8489C16.6889 10.4152 16.8443 8.83754 16.5415 7.31553C16.2388 5.79353 15.4915 4.39542 14.3942 3.29811C13.2969 2.20081 11.8989 1.45351 10.3769 1.15077C8.85486 0.848021 7.27726 1.0034 5.84357 1.59725C4.40987 2.19111 3.18446 3.19691 2.32232 4.4872C1.46017 5.7775 1 7.29441 1 8.84623C1 10.9272 1.82664 12.9229 3.29808 14.3943C4.76952 15.8658 6.76522 16.6924 8.84615 16.6924V16.6924Z" stroke="#FF6224" stroke-width="1.75" stroke-linecap="round" stroke-linejoin="round"/>
</svg>
