<svg width="27" height="24" viewBox="0 0 27 24" fill="none" xmlns="http://www.w3.org/2000/svg">
<g clip-path="url(#clip0_24005_671)">
<path d="M23.1001 5.20005C24.3001 5.20005 25.3001 4.20005 25.3001 3.00005C25.3001 1.80005 24.3001 0.800049 23.1001 0.800049C21.9001 0.800049 20.9001 1.80005 20.9001 3.00005C20.9001 4.20005 21.9001 5.20005 23.1001 5.20005Z" stroke="#FD9800" stroke-width="1.5" stroke-linecap="round" stroke-linejoin="round"/>
<path d="M23.1001 14.2C24.3001 14.2 25.3001 13.2 25.3001 12C25.3001 10.8 24.3001 9.80005 23.1001 9.80005C21.9001 9.80005 20.9001 10.8 20.9001 12C20.9001 13.2 21.9001 14.2 23.1001 14.2Z" stroke="#FD9800" stroke-width="1.5" stroke-linecap="round" stroke-linejoin="round"/>
<path d="M16.4001 12H20.9001" stroke="#FD9800" stroke-width="1.5" stroke-linecap="round" stroke-linejoin="round"/>
<path d="M16.4001 7.50005L21.3001 4.30005" stroke="#FD9800" stroke-width="1.5" stroke-linecap="round" stroke-linejoin="round"/>
<path d="M23.1001 23.2001C24.3001 23.2001 25.3001 22.2 25.3001 21C25.3001 19.8 24.3001 18.8 23.1001 18.8C21.9001 18.8 20.9001 19.8 20.9001 21C20.9001 22.2 21.9001 23.2001 23.1001 23.2001Z" stroke="#FD9800" stroke-width="1.5" stroke-linecap="round" stroke-linejoin="round"/>
<path d="M16.4001 16.5L21.3001 19.7" stroke="#FD9800" stroke-width="1.5" stroke-linecap="round" stroke-linejoin="round"/>
<path d="M5.69995 17.7C5.89995 18.3 6.49995 18.7999 7.09995 18.7999C7.69995 18.7999 8.29995 18.4 8.49995 17.7" stroke="#FD9800" stroke-width="1.5" stroke-linecap="round" stroke-linejoin="round"/>
<path d="M7.1001 4.40005V2.80005" stroke="#FD9800" stroke-width="1.5" stroke-linecap="round" stroke-linejoin="round"/>
<path d="M7.10005 4.40015C10 4.40015 12.4 6.80015 12.4 9.70015C12.4 14.7001 13.5 15.6001 13.5 15.6001H0.800049C0.800049 15.6001 1.90005 14.2001 1.90005 9.70015C1.80005 6.70015 4.20005 4.40015 7.10005 4.40015Z" stroke="#FD9800" stroke-width="1.5" stroke-linecap="round" stroke-linejoin="round"/>
</g>
<defs>
<clipPath id="clip0_24005_671">
<rect width="26.1" height="24" fill="white"/>
</clipPath>
</defs>
</svg>
