<svg width="14" height="14" viewBox="0 0 14 14" fill="none" xmlns="http://www.w3.org/2000/svg">
<path d="M6.94607 11.0541C9.21638 11.0541 11.0543 9.21624 11.0543 6.94598C11.0543 4.67572 9.21638 2.83789 6.94607 2.83789C4.67576 2.83789 2.83789 4.67572 2.83789 6.94598C2.946 9.21624 4.78387 11.0541 6.94607 11.0541Z" stroke="#757575" stroke-width="1.5" stroke-linecap="round" stroke-linejoin="round"/>
<path d="M6.94629 2.83783V1" stroke="#757575" stroke-width="1.5" stroke-linecap="round" stroke-linejoin="round"/>
<path d="M6.94629 12.9999V11.054" stroke="#757575" stroke-width="1.5" stroke-linecap="round" stroke-linejoin="round"/>
<path d="M11.0537 6.9458H12.9997" stroke="#757575" stroke-width="1.5" stroke-linecap="round" stroke-linejoin="round"/>
<path d="M1 6.9458H2.94598" stroke="#757575" stroke-width="1.5" stroke-linecap="round" stroke-linejoin="round"/>
<path d="M3.16309 2.62158L4.3523 3.81082" stroke="#757575" stroke-width="1.5" stroke-linecap="round" stroke-linejoin="round"/>
<path d="M10.8376 2.62158L9.64844 3.81082" stroke="#757575" stroke-width="1.5" stroke-linecap="round" stroke-linejoin="round"/>
<path d="M3.16309 11.2702L4.3523 9.9729" stroke="#757575" stroke-width="1.5" stroke-linecap="round" stroke-linejoin="round"/>
<path d="M10.8376 11.2702L9.64844 9.9729" stroke="#757575" stroke-width="1.5" stroke-linecap="round" stroke-linejoin="round"/>
<path d="M6.94593 6.08105C7.37837 6.08105 7.81081 6.40538 7.81081 6.94591C7.81081 7.37835 7.48648 7.81078 6.94593 7.81078C6.51349 7.81078 6.08105 7.48645 6.08105 6.94591C6.18916 6.51348 6.51349 6.08105 6.94593 6.08105Z" stroke="#757575" stroke-width="1.5" stroke-linecap="round" stroke-linejoin="round"/>
</svg>
