<svg width="18" height="17" viewBox="0 0 18 17" fill="none" xmlns="http://www.w3.org/2000/svg">
<path d="M1.50391 4C1.50391 3.73478 1.60926 3.48051 1.79679 3.29297C1.98433 3.10543 2.23869 3 2.50391 3H15.5039C15.7691 3 16.0235 3.10543 16.211 3.29297C16.3986 3.48051 16.5039 3.73478 16.5039 4V15C16.5039 15.2652 16.3986 15.5195 16.211 15.707C16.0235 15.8946 15.7691 16 15.5039 16H2.50391C2.23869 16 1.98433 15.8946 1.79679 15.707C1.60926 15.5195 1.50391 15.2652 1.50391 15V4Z" stroke="#FB755A" stroke-width="1.5" stroke-linecap="round" stroke-linejoin="round"/>
<path d="M1.50391 7H16.5039" stroke="#FB755A" stroke-width="1.5" stroke-linecap="round" stroke-linejoin="round"/>
<path d="M5.50391 4.5V1" stroke="#FB755A" stroke-width="1.5" stroke-linecap="round" stroke-linejoin="round"/>
<path d="M12.5039 4.5V1" stroke="#FB755A" stroke-width="1.5" stroke-linecap="round" stroke-linejoin="round"/>
</svg>
