<svg width="21" height="26" viewBox="0 0 21 26" fill="none" xmlns="http://www.w3.org/2000/svg">
<path d="M10.6428 25C16 25 20.2857 20.7143 20.2857 15.3572C20.2857 10.0001 16 5.71436 10.6428 5.71436C5.28571 5.71436 1 10.0001 1 15.3572C1 20.7143 5.28571 25 10.6428 25Z" fill="#FDD9BE" stroke="#FB755A" stroke-width="1.40625" stroke-linecap="round" stroke-linejoin="round"/>
<path d="M17.0713 8.17878L19.107 6.14307Z" fill="#FDD9BE"/>
<path d="M17.0713 8.17878L19.107 6.14307" stroke="#FB755A" stroke-width="1.40625" stroke-linecap="round" stroke-linejoin="round"/>
<path d="M18.5718 5.71436L19.4289 6.5715Z" fill="#FDD9BE"/>
<path d="M18.5718 5.71436L19.4289 6.5715" stroke="#FB755A" stroke-width="1.40625" stroke-linecap="round" stroke-linejoin="round"/>
<path d="M10.6431 5.71428V1Z" fill="#FDD9BE"/>
<path d="M10.6431 5.71428V1" stroke="#FB755A" stroke-width="1.40625" stroke-linecap="round" stroke-linejoin="round"/>
<path d="M12.9996 1H8.17822Z" fill="#FDD9BE"/>
<path d="M12.9996 1H8.17822" stroke="#FB755A" stroke-width="1.40625" stroke-linecap="round" stroke-linejoin="round"/>
<path d="M10.6417 16.2141L6.57031 11.8213Z" fill="#FDD9BE"/>
<path d="M10.6417 16.2141L6.57031 11.8213" stroke="#FB755A" stroke-width="1.40625" stroke-linecap="round" stroke-linejoin="round"/>
</svg>
