<svg width="23" height="23" viewBox="0 0 23 23" fill="none" xmlns="http://www.w3.org/2000/svg">
<path d="M11.5 9.34375C17.4512 9.34375 22.2812 7.42708 22.2812 5.03125C22.2812 2.63542 17.4896 0.71875 11.5 0.71875C5.51042 0.71875 0.71875 2.63542 0.71875 5.03125C0.71875 7.42708 5.54875 9.34375 11.5 9.34375Z" stroke="#FD7E00" stroke-width="1.4375" stroke-linecap="round" stroke-linejoin="round"/>
<path d="M0.71875 5.03125V11.5C0.71875 13.8767 5.51042 15.8125 11.5 15.8125C17.4896 15.8125 22.2812 13.8958 22.2812 11.5V5.03125" stroke="#FD7E00" stroke-width="1.4375" stroke-linecap="round" stroke-linejoin="round"/>
<path d="M0.71875 11.5V17.9687C0.71875 20.3454 5.51042 22.2812 11.5 22.2812C17.4896 22.2812 22.2812 20.3646 22.2812 17.9687V11.5" stroke="#FD7E00" stroke-width="1.4375" stroke-linecap="round" stroke-linejoin="round"/>
</svg>
