<svg width="40" height="40" viewBox="0 0 40 40" fill="none" xmlns="http://www.w3.org/2000/svg">
<circle cx="20" cy="20" r="20" fill="#EFEDFC"/>
<path d="M23.2 16.5016C24.4 16.5016 25.4 15.5016 25.4 14.3016C25.4 13.1016 24.4 12.1016 23.2 12.1016C22 12.1016 21 13.1016 21 14.3016C21 15.5016 22 16.5016 23.2 16.5016Z" fill="#CEC6F6" stroke="#9584EB" stroke-width="1.5" stroke-linecap="round" stroke-linejoin="round"/>
<path d="M23.2 17.3008C25.3 17.3008 27 19.0008 27 21.1008" stroke="#9584EB" stroke-width="1.5" stroke-linecap="round" stroke-linejoin="round"/>
<path d="M10.3999 12.8V10.5C10.3999 9.7 11.0999 9 11.8999 9H29.8999C30.6999 9 31.3999 9.7 31.3999 10.5V22.5C31.3999 23.3 30.6999 24 29.8999 24H22.3999" stroke="#9584EB" stroke-width="1.5" stroke-linecap="round" stroke-linejoin="round"/>
<path d="M25.3999 24.1016V27.1016" stroke="#9584EB" stroke-width="1.5" stroke-linecap="round" stroke-linejoin="round"/>
<path d="M24 27.1016H27.8" stroke="#9584EB" stroke-width="1.5" stroke-linecap="round" stroke-linejoin="round"/>
<path d="M9 31.4992C9 27.7992 12 24.6992 15.8 24.6992C19.5 24.6992 22.6 27.6992 22.6 31.4992" stroke="#9584EB" stroke-width="1.5" stroke-linecap="round" stroke-linejoin="round"/>
<path d="M12.1001 17.1016C14.1001 19.2016 17.1001 19.8016 19.7001 18.6016" stroke="#9584EB" stroke-width="1.5" stroke-linecap="round" stroke-linejoin="round"/>
<path d="M15.7001 23.3016C18.0001 23.3016 19.8001 21.5016 19.8001 19.2016C19.8001 16.9016 18.0001 15.1016 15.7001 15.1016C13.4001 15.1016 11.6001 16.9016 11.6001 19.2016C11.6001 21.5016 13.4001 23.3016 15.7001 23.3016Z" stroke="#9584EB" stroke-width="1.5" stroke-linecap="round" stroke-linejoin="round"/>
</svg>