<svg width="16" height="16" viewBox="0 0 16 16" fill="none" xmlns="http://www.w3.org/2000/svg">
<path d="M14.418 7.08268H8.91797V1.58268C8.91797 1.33957 8.82139 1.10641 8.64948 0.934501C8.47757 0.762593 8.24442 0.666016 8.0013 0.666016C7.75819 0.666016 7.52503 0.762593 7.35312 0.934501C7.18121 1.10641 7.08463 1.33957 7.08463 1.58268V7.08268H1.58464C1.34152 7.08268 1.10836 7.17926 0.936454 7.35117C0.764546 7.52308 0.667969 7.75623 0.667969 7.99935C0.667969 8.24246 0.764546 8.47562 0.936454 8.64753C1.10836 8.81944 1.34152 8.91601 1.58464 8.91601H7.08463V14.416C7.08463 14.6591 7.18121 14.8923 7.35312 15.0642C7.52503 15.2361 7.75819 15.3327 8.0013 15.3327C8.24442 15.3327 8.47757 15.2361 8.64948 15.0642C8.82139 14.8923 8.91797 14.6591 8.91797 14.416V8.91601H14.418C14.6611 8.91601 14.8942 8.81944 15.0661 8.64753C15.2381 8.47562 15.3346 8.24246 15.3346 7.99935C15.3346 7.75623 15.2381 7.52308 15.0661 7.35117C14.8942 7.17926 14.6611 7.08268 14.418 7.08268Z" fill="#5787D1"/>
</svg>
