<svg width="25" height="13" viewBox="0 0 25 13" fill="none" xmlns="http://www.w3.org/2000/svg">
<path fill-rule="evenodd" clip-rule="evenodd" d="M14.0246 6.3618L14.0331 6.37531L14.0246 6.38882C16.3622 10.2291 18.7045 11.2075 20.2246 10.9642C21.7716 10.7165 23.125 9.08101 23.125 6.37531C23.125 3.66956 21.7716 2.03403 20.2246 1.78639C18.7045 1.54306 16.3622 2.52146 14.0246 6.3618ZM12.9688 4.76287C10.3579 1.15264 7.40896 -0.320192 4.84071 0.0566618C1.97624 0.47698 0.125 3.11158 0.125 6.37531C0.125 9.63901 1.97625 12.2736 4.84071 12.6939C7.40896 13.0707 10.3579 11.5979 12.9688 7.98773C15.3505 11.5651 18.0721 13.081 20.5012 12.6922C23.2123 12.2582 24.875 9.57686 24.875 6.37531C24.875 3.17374 23.2123 0.492368 20.5012 0.058392C18.0721 -0.330447 15.3505 1.18545 12.9688 4.76287ZM1.875 6.37531C1.875 3.7317 3.31408 2.04941 5.09477 1.78812C6.84562 1.53121 9.42396 2.56719 11.9583 6.37531C9.42397 10.1834 6.84563 11.2193 5.09477 10.9624C3.31407 10.7011 1.875 9.01886 1.875 6.37531Z" fill="url(#paint0_linear_25790_821)"/>
<defs>
<linearGradient id="paint0_linear_25790_821" x1="49" y1="-8.62451" x2="-2.80005" y2="2.47455" gradientUnits="userSpaceOnUse">
<stop stop-color="#FFF100"/>
<stop offset="1" stop-color="#F15B29"/>
</linearGradient>
</defs>
</svg>
