<svg width="13" height="13" viewBox="0 0 13 13" fill="none" xmlns="http://www.w3.org/2000/svg">
<path d="M9.1 5.3755L5.85 3.497C5.65247 3.38296 5.42842 3.32289 5.20034 3.32283C4.97225 3.32277 4.74816 3.38272 4.55058 3.49667C4.35299 3.61061 4.18886 3.77453 4.07467 3.97197C3.96047 4.16941 3.90024 4.39341 3.9 4.6215V8.3785C3.90024 8.60647 3.96041 8.83037 4.0745 9.02774C4.18859 9.22511 4.35257 9.38901 4.55 9.503C4.74763 9.6171 4.9718 9.67716 5.2 9.67716C5.4282 9.67716 5.65238 9.6171 5.85 9.503L9.1 7.6245C9.297 7.51022 9.46052 7.3462 9.5742 7.14884C9.68787 6.95149 9.7477 6.72774 9.7477 6.5C9.7477 6.27225 9.68787 6.0485 9.5742 5.85115C9.46052 5.6538 9.297 5.48978 9.1 5.3755ZM8.45 6.5L5.2 8.3785V4.6215L8.45 6.5ZM6.5 0C5.21442 0 3.95772 0.381218 2.8888 1.09545C1.81988 1.80968 0.986755 2.82484 0.494786 4.01256C0.00281635 5.20028 -0.125905 6.50721 0.124899 7.76808C0.375702 9.02896 0.994767 10.1872 1.90381 11.0962C2.81285 12.0052 3.97104 12.6243 5.23191 12.8751C6.49279 13.1259 7.79972 12.9972 8.98744 12.5052C10.1752 12.0132 11.1903 11.1801 11.9046 10.1112C12.6188 9.04228 13 7.78558 13 6.5C13 5.64641 12.8319 4.80117 12.5052 4.01256C12.1786 3.22394 11.6998 2.50739 11.0962 1.90381C10.4926 1.30022 9.77606 0.821438 8.98744 0.494783C8.19883 0.168127 7.35359 0 6.5 0ZM6.5 11.7C5.47154 11.7 4.46617 11.395 3.61104 10.8236C2.7559 10.2523 2.0894 9.44013 1.69583 8.48995C1.30225 7.53978 1.19928 6.49423 1.39992 5.48553C1.60056 4.47683 2.09581 3.55028 2.82305 2.82304C3.55028 2.09581 4.47683 1.60056 5.48553 1.39992C6.49423 1.19927 7.53978 1.30225 8.48995 1.69583C9.44013 2.0894 10.2523 2.7559 10.8236 3.61103C11.395 4.46617 11.7 5.47154 11.7 6.5C11.7 7.87912 11.1521 9.20176 10.177 10.177C9.20177 11.1521 7.87913 11.7 6.5 11.7Z" fill="#757575"/>
</svg>
