<svg width="20" height="25" viewBox="0 0 20 25" fill="none" xmlns="http://www.w3.org/2000/svg">
<g clip-path="url(#clip0_17937_492)">
<path d="M9.35317 23.8706L5.46201 20.6983C5.21014 20.4968 5.02187 20.2268 4.91987 19.9208C4.81787 19.6147 4.80646 19.2856 4.88705 18.9733V18.9733C4.94826 18.7292 5.0634 18.5017 5.224 18.308C5.38459 18.1143 5.58658 17.9592 5.81508 17.8538C6.04358 17.7484 6.29279 17.6958 6.5444 17.6994C6.796 17.703 7.0436 17.763 7.26899 17.8749L8.47022 18.4805V11.5503C8.47022 11.1419 8.63248 10.7503 8.92129 10.4614C9.21011 10.1726 9.60181 10.0103 10.0103 10.0103C10.4187 10.0103 10.8104 10.1726 11.0992 10.4614C11.388 10.7503 11.5503 11.1419 11.5503 11.5503V16.1704L13.6037 16.5093C14.3288 16.6318 14.9861 17.0097 15.4568 17.5746C15.9276 18.1395 16.1807 18.8541 16.1704 19.5894V23.9117" stroke="#FD9800" stroke-width="1.54004" stroke-linecap="round" stroke-linejoin="round"/>
<path d="M17.844 14.8769C18.6038 13.6623 19.0707 12.2873 19.208 10.8613C19.3453 9.43534 19.1491 7.99696 18.635 6.65981C18.1209 5.32265 17.3029 4.12383 16.2456 3.15712C15.1884 2.1904 13.9208 1.48238 12.5431 1.08969C11.1654 0.697005 9.71525 0.630138 8.3072 0.894178C6.89916 1.15822 5.57179 1.74602 4.42995 2.61118C3.28811 3.47634 2.36306 4.59518 1.72789 5.87926C1.09272 7.16334 0.764818 8.57752 0.770082 10.0101C0.770316 11.9346 1.37749 13.8102 2.5052 15.3697" stroke="#FD9800" stroke-width="1.54004" stroke-linecap="round" stroke-linejoin="round"/>
<path d="M14.425 13.0904C14.9908 12.2827 15.3242 11.3353 15.3888 10.3512C15.4534 9.3672 15.2469 8.38405 14.7916 7.50928C14.3363 6.63451 13.6498 5.90185 12.8067 5.39022C11.9637 4.87859 10.9964 4.60767 10.0103 4.60767C9.0241 4.60767 8.05684 4.87859 7.21378 5.39022C6.37073 5.90185 5.68419 6.63451 5.22892 7.50928C4.77364 8.38405 4.56708 9.3672 4.63171 10.3512C4.69634 11.3353 5.02969 12.2827 5.59547 13.0904" stroke="#FD9800" stroke-width="1.54004" stroke-linecap="round" stroke-linejoin="round"/>
</g>
<defs>
<clipPath id="clip0_17937_492">
<rect width="20" height="24.6407" fill="white"/>
</clipPath>
</defs>
</svg>
