<svg width="42" height="41" viewBox="0 0 42 41" fill="none" xmlns="http://www.w3.org/2000/svg">
<path fill-rule="evenodd" clip-rule="evenodd" d="M20.7208 1.06204e-05C15.8017 -0.00495102 11.0417 1.72871 7.29371 4.89032C3.54569 8.05193 1.05469 12.4348 0.267096 17.2535C-0.520498 22.0723 0.4468 27.0119 2.99565 31.1871C5.54449 35.3623 9.50828 38.5003 14.1767 40.0387C15.2186 40.2278 15.5871 39.5847 15.5871 39.0424C15.5871 38.5002 15.5871 37.2643 15.5871 35.5493C9.80546 36.7978 8.58559 32.7876 8.58559 32.7876C8.20203 31.5447 7.38717 30.4769 6.28563 29.7736C4.4177 28.5126 6.43811 28.5126 6.43811 28.5126C7.0929 28.6044 7.71806 28.8428 8.26624 29.2099C8.81442 29.5769 9.27126 30.063 9.60215 30.6312C9.8833 31.1371 10.2624 31.583 10.7176 31.9432C11.1728 32.3033 11.6952 32.5708 12.2548 32.7301C12.8144 32.8895 13.4002 32.9376 13.9786 32.8717C14.557 32.8058 15.1166 32.6272 15.6253 32.3462C15.705 31.3088 16.1557 30.3338 16.896 29.5971C12.296 29.0801 7.46738 27.3146 7.46738 19.5086C7.43579 17.4695 8.19558 15.4963 9.58944 13.9978C8.96865 12.2248 9.04121 10.2851 9.79275 8.56261C9.79275 8.56261 11.5336 8.00774 15.4855 10.6686C18.879 9.74392 22.4609 9.74392 25.8544 10.6686C29.8062 8.00774 31.5344 8.56261 31.5344 8.56261C32.2964 10.2668 32.3871 12.1926 31.7885 13.9599C33.1824 15.4585 33.9422 17.4316 33.9106 19.4708C33.9106 27.365 29.0692 29.0927 24.4566 29.5593C24.9512 30.0527 25.3331 30.6459 25.5765 31.2986C25.8199 31.9513 25.919 32.6484 25.8671 33.3424C25.8671 36.0916 25.8671 38.311 25.8671 38.9794C25.8671 39.6477 26.2356 40.1648 27.2903 39.963C31.9055 38.3841 35.8099 35.2371 38.3138 31.0782C40.8176 26.9192 41.7597 22.0158 40.9737 17.2343C40.1876 12.4527 37.724 8.10077 34.0181 4.94719C30.3121 1.7936 25.6024 0.0413597 20.7208 1.06204e-05Z" fill="#EC6D13"/>
</svg>
