<svg xmlns="http://www.w3.org/2000/svg" width="41.171" height="41.05" viewBox="0 0 41.171 41.05"><path d="M1284.285,1229.6l-10.513-4.844a7.5,7.5,0,0,0,0-4.659l10.513-4.844c2.906,3.506-1.917-7.673-1.9-5.195a8.609,8.609,0,0,0,.144,1.464l-10.884,5.009a8.245,8.245,0,1,0,0,11.791l10.884,5.009a8.606,8.606,0,0,0-.144,1.464C1282.388,1239.353,1285.838,1227.689,1284.285,1229.6Zm-18.387-3.051a4.123,4.123,0,1,1,4.123-4.123A4.123,4.123,0,0,1,1265.9,1226.553Z" transform="translate(-1257.639 -1201.924)" fill="#1857b8"/><path d="M1394.437,1297.4a8.176,8.176,0,1,0,8.176,8.176A8.176,8.176,0,0,0,1394.437,1297.4Zm0,12.3a4.123,4.123,0,1,1,4.123-4.123A4.123,4.123,0,0,1,1394.437,1309.7Z" transform="translate(-1361.442 -1272.701)" fill="#fbca0a"/><path d="M1394.437,1169.4a8.176,8.176,0,1,0,8.176,8.176A8.176,8.176,0,0,0,1394.437,1169.4Zm0,12.3a4.123,4.123,0,1,1,4.123-4.123A4.123,4.123,0,0,1,1394.437,1181.7Z" transform="translate(-1361.442 -1169.4)" fill="#fa6400"/></svg>