<svg width="25" height="27" viewBox="0 0 25 27" fill="none" xmlns="http://www.w3.org/2000/svg">
<path d="M24.9733 11.9414C24.9253 11.5098 24.8773 10.9822 24.6852 10.4067C24.5411 9.83125 24.301 9.20781 23.9648 8.53641C23.6286 7.865 23.1964 7.1936 22.6681 6.52219C22.476 6.28241 22.2359 5.99467 21.9477 5.75489C22.3319 4.22025 21.4675 2.92539 21.4675 2.92539C20.0267 2.82947 19.0662 3.357 18.73 3.64475C18.682 3.64475 18.6339 3.5968 18.5379 3.54884C18.2978 3.45293 18.0576 3.35701 17.7695 3.2611C17.5293 3.16518 17.2412 3.11722 16.953 3.02131C16.6649 2.97335 16.3767 2.9254 16.1366 2.87744C16.0886 2.87744 16.0406 2.87744 15.9925 2.87744C15.3682 0.863233 13.5432 0 13.5432 0C11.5262 1.29485 11.1419 3.06927 11.1419 3.06927C11.1419 3.06927 11.1419 3.11722 11.1419 3.16518C11.0459 3.21313 10.9018 3.21314 10.8058 3.2611C10.6617 3.30905 10.5176 3.35701 10.3255 3.40496C10.1814 3.45292 10.0374 3.50089 9.84525 3.5968C9.5571 3.74068 9.22092 3.88455 8.93277 4.02842C8.64461 4.17229 8.35647 4.36412 8.06831 4.55595C8.02029 4.55595 8.02028 4.50799 8.02028 4.50799C5.18677 3.45293 2.68944 4.74778 2.68944 4.74778C2.44931 7.72114 3.79402 9.63943 4.08218 9.97513C4.03415 10.167 3.9381 10.3588 3.89008 10.5506C3.69797 11.222 3.50587 11.9414 3.40982 12.6607C3.40982 12.7567 3.36179 12.8526 3.36179 12.9485C0.76841 14.2433 0 16.881 0 16.881C2.16115 19.3748 4.70652 19.5186 4.70652 19.5186C5.0427 20.0941 5.37887 20.6217 5.8111 21.1492C6.0032 21.341 6.19531 21.5808 6.33939 21.7726C5.57098 24.0266 6.43544 25.897 6.43544 25.897C8.83672 25.9929 10.4216 24.8419 10.7577 24.5542C10.9979 24.6501 11.238 24.698 11.4781 24.794C12.1985 24.9858 12.9669 25.0817 13.7353 25.1297C13.9274 25.1297 14.1195 25.1297 14.3116 25.1297H14.4077H14.4557H14.5518H14.6478C15.8004 26.7602 17.7695 27 17.7695 27C19.2102 25.5133 19.2583 24.0266 19.2583 23.6909C19.2583 23.643 19.2583 23.643 19.2583 23.643V23.595C19.5464 23.4032 19.8346 23.1634 20.1227 22.9236C20.6991 22.3961 21.1793 21.8206 21.6115 21.1972C21.6595 21.1492 21.7076 21.1012 21.7076 21.0053C23.3405 21.1012 24.445 19.9982 24.445 19.9982C24.1569 18.3197 23.1964 17.5044 23.0043 17.3606C23.0043 17.3606 23.0043 17.3606 22.9563 17.3606C22.9563 17.2646 22.9563 17.1687 22.9563 17.0728C22.9563 16.881 22.9563 16.6892 22.9563 16.5453V16.4014V16.3535V16.2096C22.9563 16.1616 22.9563 16.1616 22.9563 16.1616V16.0657V15.9218C22.9563 15.8739 22.9563 15.8259 22.9563 15.778C22.9563 15.73 22.9563 15.6821 22.9563 15.6341V15.4902V15.3464C22.9082 15.1545 22.9082 14.9627 22.8602 14.8188C22.6681 14.0995 22.428 13.4281 22.0438 12.8046C21.6596 12.1812 21.2273 11.6536 20.699 11.1741C20.1708 10.6945 19.5944 10.3588 18.9701 10.071C18.3458 9.78331 17.7215 9.63943 17.0491 9.54352C16.7129 9.49556 16.4248 9.49556 16.0886 9.49556H15.9925H15.9445H15.8965H15.8485H15.7524C15.7044 9.49556 15.6563 9.49556 15.6083 9.49556C15.4642 9.49556 15.2721 9.54352 15.1281 9.54352C14.5037 9.63943 13.8794 9.87921 13.3511 10.2149C12.8228 10.5506 12.3426 10.9343 11.9584 11.3659C11.5742 11.7975 11.286 12.325 11.0939 12.8526C10.9018 13.3801 10.8058 13.9076 10.7577 14.4352C10.7577 14.579 10.7577 14.675 10.7577 14.8188C10.7577 14.8668 10.7577 14.8668 10.7577 14.9147V15.0107C10.7577 15.0586 10.7577 15.1545 10.7577 15.2025C10.8058 15.4423 10.8538 15.73 10.9018 15.9698C11.0459 16.4494 11.286 16.881 11.5261 17.2647C11.8143 17.6483 12.1505 17.9361 12.4867 18.1758C12.8228 18.4156 13.2071 18.6075 13.5913 18.7034C13.9755 18.7993 14.3116 18.8472 14.6958 18.8472C14.7439 18.8472 14.7919 18.8472 14.8399 18.8472H14.8879H14.936C14.984 18.8472 15.032 18.8472 15.032 18.8472C15.032 18.8472 15.032 18.8472 15.0801 18.8472H15.1281H15.1761C15.2241 18.8472 15.2722 18.8472 15.3202 18.8472C15.3682 18.8472 15.4162 18.8472 15.4643 18.7993C15.5603 18.7993 15.6083 18.7513 15.7044 18.7513C15.8485 18.7034 15.9925 18.6554 16.1366 18.5595C16.2807 18.5115 16.3767 18.4156 16.5208 18.3197C16.5688 18.3197 16.5688 18.2718 16.6169 18.2238C16.7609 18.1279 16.7609 17.9361 16.6649 17.8401C16.5688 17.7442 16.4248 17.6963 16.3287 17.7922C16.2807 17.7922 16.2807 17.8401 16.2327 17.8401C16.1366 17.8881 16.0406 17.9361 15.8965 17.984C15.8004 18.032 15.6564 18.032 15.5603 18.0799C15.5123 18.0799 15.4162 18.0799 15.3682 18.0799C15.3202 18.0799 15.3202 18.0799 15.2722 18.0799C15.2241 18.0799 15.2241 18.0799 15.1761 18.0799C15.1281 18.0799 15.1281 18.0799 15.0801 18.0799C15.032 18.0799 14.984 18.0799 14.984 18.0799H14.936H14.8879C14.8399 18.0799 14.8399 18.0799 14.7919 18.0799C14.5037 18.032 14.2636 17.984 13.9755 17.8401C13.6873 17.7442 13.4472 17.5524 13.207 17.3606C12.9669 17.1687 12.7748 16.881 12.6307 16.6412C12.4867 16.3535 12.3426 16.0657 12.2946 15.73C12.2465 15.5861 12.2465 15.3943 12.2465 15.2504C12.2465 15.2025 12.2465 15.1545 12.2465 15.1066V15.0586V15.0107C12.2465 14.9147 12.2465 14.8188 12.2946 14.7229C12.4386 14.0035 12.7748 13.3321 13.3511 12.7567C13.4952 12.6128 13.6393 12.5169 13.7834 12.373C13.9274 12.2771 14.1195 12.1812 14.2636 12.0853C14.4557 11.9893 14.6478 11.9414 14.7919 11.8934C14.984 11.8455 15.1761 11.7975 15.3682 11.7975C15.4642 11.7975 15.5603 11.7975 15.6564 11.7975C15.7044 11.7975 15.7044 11.7975 15.7044 11.7975H15.8004H15.8485H15.9445C16.1366 11.7975 16.3767 11.8455 16.5688 11.8934C17.0011 11.9893 17.3853 12.1332 17.7695 12.373C18.5379 12.8046 19.1622 13.476 19.5945 14.2433C19.7866 14.627 19.9306 15.0586 20.0267 15.4902C20.0267 15.5861 20.0747 15.73 20.0747 15.8259V15.9218V16.0178C20.0747 16.0657 20.0747 16.0657 20.0747 16.1137C20.0747 16.1616 20.0747 16.1616 20.0747 16.2096V16.3055V16.4014C20.0747 16.4494 20.0747 16.5453 20.0747 16.5932C20.0747 16.7371 20.0747 16.833 20.0267 16.9769C20.0267 17.0728 19.9787 17.2167 19.9787 17.3126C19.9787 17.4085 19.9306 17.5524 19.8826 17.6483C19.8346 17.8881 19.7385 18.1279 19.6425 18.3197C19.4504 18.7513 19.2103 19.1829 18.9221 19.6146C18.3458 20.3819 17.5774 21.0533 16.6649 21.4369C16.2327 21.6288 15.7524 21.7726 15.2722 21.8686C15.032 21.9165 14.7919 21.9165 14.5518 21.9645H14.5037H14.4557H14.3597H14.2636H14.2156C14.2636 21.9645 14.2156 21.9645 14.2156 21.9645C14.0715 21.9645 13.9755 21.9645 13.8314 21.9645C13.3031 21.9165 12.7748 21.8206 12.2946 21.6767C11.8143 21.5329 11.286 21.341 10.8538 21.1012C9.9413 20.6217 9.12487 19.9503 8.45251 19.135C8.11633 18.7513 7.82819 18.3197 7.63608 17.8401C7.39596 17.3606 7.20385 16.881 7.05977 16.4014C6.91569 15.9218 6.81964 15.3943 6.81964 14.9147V14.8188V14.7709V14.6749V14.627V14.2913V14.1954V14.1474C6.81964 14.0995 6.81964 14.0035 6.81964 13.9556C6.81964 13.7158 6.86767 13.4281 6.86767 13.1883C6.9157 12.9485 6.96372 12.6607 7.01174 12.421C7.05977 12.1812 7.10779 11.8934 7.20384 11.6536C7.34792 11.1741 7.54002 10.6945 7.73213 10.2149C8.16436 9.30373 8.69264 8.48845 9.36499 7.86501C9.50907 7.72114 9.70118 7.52931 9.89328 7.38543C10.0854 7.24156 10.2775 7.09768 10.4696 7.00177C10.6617 6.85789 10.8538 6.76199 11.0459 6.66607C11.1419 6.61812 11.238 6.57015 11.334 6.52219C11.3821 6.52219 11.4301 6.47425 11.4781 6.47425C11.5262 6.47425 11.5742 6.42629 11.6222 6.42629C11.8143 6.33037 12.0544 6.28241 12.2465 6.1865C12.2946 6.1865 12.3426 6.13854 12.3906 6.13854C12.4386 6.13854 12.4867 6.09058 12.5347 6.09058C12.6307 6.04262 12.7748 6.04263 12.8709 5.99467C12.9189 5.99467 12.9669 5.94671 13.063 5.94671C13.111 5.94671 13.159 5.94671 13.2551 5.89875C13.3031 5.89875 13.3511 5.89875 13.4472 5.85079H13.5432H13.6393C13.6873 5.85079 13.7353 5.85079 13.8314 5.80283C13.8794 5.80283 13.9755 5.80284 14.0235 5.75489C14.0715 5.75489 14.1676 5.75489 14.2156 5.75489C14.2636 5.75489 14.3116 5.75489 14.3597 5.75489H14.4557H14.5037H14.5518C14.5998 5.75489 14.6958 5.75489 14.7439 5.75489H14.8399C14.8399 5.75489 14.888 5.75489 14.8399 5.75489H14.8879C14.936 5.75489 14.984 5.75489 15.032 5.75489C15.2722 5.75489 15.4643 5.75489 15.7044 5.75489C16.1366 5.75489 16.5688 5.80284 17.0011 5.89875C17.8175 6.04262 18.5859 6.33037 19.3063 6.66607C20.0267 7.00177 20.651 7.43339 21.1793 7.91297C21.2273 7.96093 21.2273 7.96092 21.2754 8.00887C21.3234 8.05683 21.3234 8.05684 21.3714 8.10479C21.4194 8.15275 21.5155 8.20071 21.5635 8.29662C21.6115 8.34458 21.7076 8.39253 21.7556 8.48845C21.8036 8.58436 21.8997 8.63232 21.9477 8.68027C22.1878 8.92006 22.3799 9.15985 22.572 9.4476C22.9562 9.92717 23.2924 10.4547 23.5325 10.9343C23.5325 10.9822 23.5806 10.9822 23.5806 11.0302C23.5806 11.0782 23.6286 11.0781 23.6286 11.1261C23.6766 11.1741 23.6766 11.222 23.7247 11.3179C23.7727 11.4138 23.7727 11.4139 23.8207 11.5098C23.8687 11.5577 23.8687 11.6057 23.9168 11.7016C24.0128 11.9414 24.1089 12.1332 24.1569 12.325C24.2529 12.6607 24.349 12.9485 24.397 13.1883C24.445 13.2842 24.5411 13.3801 24.6371 13.3321C24.7332 13.3321 24.8292 13.2362 24.8292 13.1403C25.0213 12.6128 25.0213 12.2771 24.9733 11.9414Z" fill="url(#paint0_linear_18501_893)"/>
<path d="M24.9733 11.9414C24.9253 11.5098 24.8773 10.9822 24.6852 10.4067C24.5411 9.83125 24.301 9.20781 23.9648 8.53641C23.6286 7.865 23.1964 7.1936 22.6681 6.52219C22.476 6.28241 22.2359 5.99467 21.9477 5.75489C22.3319 4.22025 21.4675 2.92539 21.4675 2.92539C20.0267 2.82947 19.0662 3.357 18.73 3.64475C18.682 3.64475 18.6339 3.5968 18.5379 3.54884C18.2978 3.45293 18.0576 3.35701 17.7695 3.2611C17.5293 3.16518 17.2412 3.11722 16.953 3.02131C16.6649 2.97335 16.3767 2.9254 16.1366 2.87744C16.0886 2.87744 16.0406 2.87744 15.9925 2.87744C15.3682 0.863233 13.5432 0 13.5432 0C11.5262 1.29485 11.1419 3.06927 11.1419 3.06927C11.1419 3.06927 11.1419 3.11722 11.1419 3.16518C11.0459 3.21313 10.9018 3.21314 10.8058 3.2611C10.6617 3.30905 10.5176 3.35701 10.3255 3.40496C10.1814 3.45292 10.0374 3.50089 9.84525 3.5968C9.5571 3.74068 9.22092 3.88455 8.93277 4.02842C8.64461 4.17229 8.35647 4.36412 8.06831 4.55595C8.02029 4.55595 8.02028 4.50799 8.02028 4.50799C5.18677 3.45293 2.68944 4.74778 2.68944 4.74778C2.44931 7.72114 3.79402 9.63943 4.08218 9.97513C4.03415 10.167 3.9381 10.3588 3.89008 10.5506C3.69797 11.222 3.50587 11.9414 3.40982 12.6607C3.40982 12.7567 3.36179 12.8526 3.36179 12.9485C0.76841 14.2433 0 16.881 0 16.881C2.16115 19.3748 4.70652 19.5186 4.70652 19.5186C5.0427 20.0941 5.37887 20.6217 5.8111 21.1492C6.0032 21.341 6.19531 21.5808 6.33939 21.7726C5.57098 24.0266 6.43544 25.897 6.43544 25.897C8.83672 25.9929 10.4216 24.8419 10.7577 24.5542C10.9979 24.6501 11.238 24.698 11.4781 24.794C12.1985 24.9858 12.9669 25.0817 13.7353 25.1297C13.9274 25.1297 14.1195 25.1297 14.3116 25.1297H14.4077H14.4557H14.5518H14.6478C15.8004 26.7602 17.7695 27 17.7695 27C19.2102 25.5133 19.2583 24.0266 19.2583 23.6909C19.2583 23.643 19.2583 23.643 19.2583 23.643V23.595C19.5464 23.4032 19.8346 23.1634 20.1227 22.9236C20.6991 22.3961 21.1793 21.8206 21.6115 21.1972C21.6595 21.1492 21.7076 21.1012 21.7076 21.0053C23.3405 21.1012 24.445 19.9982 24.445 19.9982C24.1569 18.3197 23.1964 17.5044 23.0043 17.3606C23.0043 17.3606 23.0043 17.3606 22.9563 17.3606C22.9563 17.2646 22.9563 17.1687 22.9563 17.0728C22.9563 16.881 22.9563 16.6892 22.9563 16.5453V16.4014V16.3535V16.2096C22.9563 16.1616 22.9563 16.1616 22.9563 16.1616V16.0657V15.9218C22.9563 15.8739 22.9563 15.8259 22.9563 15.778C22.9563 15.73 22.9563 15.6821 22.9563 15.6341V15.4902V15.3464C22.9082 15.1545 22.9082 14.9627 22.8602 14.8188C22.6681 14.0995 22.428 13.4281 22.0438 12.8046C21.6596 12.1812 21.2273 11.6536 20.699 11.1741C20.1708 10.6945 19.5944 10.3588 18.9701 10.071C18.3458 9.78331 17.7215 9.63943 17.0491 9.54352C16.7129 9.49556 16.4248 9.49556 16.0886 9.49556H15.9925H15.9445H15.8965H15.8485H15.7524C15.7044 9.49556 15.6563 9.49556 15.6083 9.49556C15.4642 9.49556 15.2721 9.54352 15.1281 9.54352C14.5037 9.63943 13.8794 9.87921 13.3511 10.2149C12.8228 10.5506 12.3426 10.9343 11.9584 11.3659C11.5742 11.7975 11.286 12.325 11.0939 12.8526C10.9018 13.3801 10.8058 13.9076 10.7577 14.4352C10.7577 14.579 10.7577 14.675 10.7577 14.8188C10.7577 14.8668 10.7577 14.8668 10.7577 14.9147V15.0107C10.7577 15.0586 10.7577 15.1545 10.7577 15.2025C10.8058 15.4423 10.8538 15.73 10.9018 15.9698C11.0459 16.4494 11.286 16.881 11.5261 17.2647C11.8143 17.6483 12.1505 17.9361 12.4867 18.1758C12.8228 18.4156 13.2071 18.6075 13.5913 18.7034C13.9755 18.7993 14.3116 18.8472 14.6958 18.8472C14.7439 18.8472 14.7919 18.8472 14.8399 18.8472H14.8879H14.936C14.984 18.8472 15.032 18.8472 15.032 18.8472C15.032 18.8472 15.032 18.8472 15.0801 18.8472H15.1281H15.1761C15.2241 18.8472 15.2722 18.8472 15.3202 18.8472C15.3682 18.8472 15.4162 18.8472 15.4643 18.7993C15.5603 18.7993 15.6083 18.7513 15.7044 18.7513C15.8485 18.7034 15.9925 18.6554 16.1366 18.5595C16.2807 18.5115 16.3767 18.4156 16.5208 18.3197C16.5688 18.3197 16.5688 18.2718 16.6169 18.2238C16.7609 18.1279 16.7609 17.9361 16.6649 17.8401C16.5688 17.7442 16.4248 17.6963 16.3287 17.7922C16.2807 17.7922 16.2807 17.8401 16.2327 17.8401C16.1366 17.8881 16.0406 17.9361 15.8965 17.984C15.8004 18.032 15.6564 18.032 15.5603 18.0799C15.5123 18.0799 15.4162 18.0799 15.3682 18.0799C15.3202 18.0799 15.3202 18.0799 15.2722 18.0799C15.2241 18.0799 15.2241 18.0799 15.1761 18.0799C15.1281 18.0799 15.1281 18.0799 15.0801 18.0799C15.032 18.0799 14.984 18.0799 14.984 18.0799H14.936H14.8879C14.8399 18.0799 14.8399 18.0799 14.7919 18.0799C14.5037 18.032 14.2636 17.984 13.9755 17.8401C13.6873 17.7442 13.4472 17.5524 13.207 17.3606C12.9669 17.1687 12.7748 16.881 12.6307 16.6412C12.4867 16.3535 12.3426 16.0657 12.2946 15.73C12.2465 15.5861 12.2465 15.3943 12.2465 15.2504C12.2465 15.2025 12.2465 15.1545 12.2465 15.1066V15.0586V15.0107C12.2465 14.9147 12.2465 14.8188 12.2946 14.7229C12.4386 14.0035 12.7748 13.3321 13.3511 12.7567C13.4952 12.6128 13.6393 12.5169 13.7834 12.373C13.9274 12.2771 14.1195 12.1812 14.2636 12.0853C14.4557 11.9893 14.6478 11.9414 14.7919 11.8934C14.984 11.8455 15.1761 11.7975 15.3682 11.7975C15.4642 11.7975 15.5603 11.7975 15.6564 11.7975C15.7044 11.7975 15.7044 11.7975 15.7044 11.7975H15.8004H15.8485H15.9445C16.1366 11.7975 16.3767 11.8455 16.5688 11.8934C17.0011 11.9893 17.3853 12.1332 17.7695 12.373C18.5379 12.8046 19.1622 13.476 19.5945 14.2433C19.7866 14.627 19.9306 15.0586 20.0267 15.4902C20.0267 15.5861 20.0747 15.73 20.0747 15.8259V15.9218V16.0178C20.0747 16.0657 20.0747 16.0657 20.0747 16.1137C20.0747 16.1616 20.0747 16.1616 20.0747 16.2096V16.3055V16.4014C20.0747 16.4494 20.0747 16.5453 20.0747 16.5932C20.0747 16.7371 20.0747 16.833 20.0267 16.9769C20.0267 17.0728 19.9787 17.2167 19.9787 17.3126C19.9787 17.4085 19.9306 17.5524 19.8826 17.6483C19.8346 17.8881 19.7385 18.1279 19.6425 18.3197C19.4504 18.7513 19.2103 19.1829 18.9221 19.6146C18.3458 20.3819 17.5774 21.0533 16.6649 21.4369C16.2327 21.6288 15.7524 21.7726 15.2722 21.8686C15.032 21.9165 14.7919 21.9165 14.5518 21.9645H14.5037H14.4557H14.3597H14.2636H14.2156C14.2636 21.9645 14.2156 21.9645 14.2156 21.9645C14.0715 21.9645 13.9755 21.9645 13.8314 21.9645C13.3031 21.9165 12.7748 21.8206 12.2946 21.6767C11.8143 21.5329 11.286 21.341 10.8538 21.1012C9.9413 20.6217 9.12487 19.9503 8.45251 19.135C8.11633 18.7513 7.82819 18.3197 7.63608 17.8401C7.39596 17.3606 7.20385 16.881 7.05977 16.4014C6.91569 15.9218 6.81964 15.3943 6.81964 14.9147V14.8188V14.7709V14.6749V14.627V14.2913V14.1954V14.1474C6.81964 14.0995 6.81964 14.0035 6.81964 13.9556C6.81964 13.7158 6.86767 13.4281 6.86767 13.1883C6.9157 12.9485 6.96372 12.6607 7.01174 12.421C7.05977 12.1812 7.10779 11.8934 7.20384 11.6536C7.34792 11.1741 7.54002 10.6945 7.73213 10.2149C8.16436 9.30373 8.69264 8.48845 9.36499 7.86501C9.50907 7.72114 9.70118 7.52931 9.89328 7.38543C10.0854 7.24156 10.2775 7.09768 10.4696 7.00177C10.6617 6.85789 10.8538 6.76199 11.0459 6.66607C11.1419 6.61812 11.238 6.57015 11.334 6.52219C11.3821 6.52219 11.4301 6.47425 11.4781 6.47425C11.5262 6.47425 11.5742 6.42629 11.6222 6.42629C11.8143 6.33037 12.0544 6.28241 12.2465 6.1865C12.2946 6.1865 12.3426 6.13854 12.3906 6.13854C12.4386 6.13854 12.4867 6.09058 12.5347 6.09058C12.6307 6.04262 12.7748 6.04263 12.8709 5.99467C12.9189 5.99467 12.9669 5.94671 13.063 5.94671C13.111 5.94671 13.159 5.94671 13.2551 5.89875C13.3031 5.89875 13.3511 5.89875 13.4472 5.85079H13.5432H13.6393C13.6873 5.85079 13.7353 5.85079 13.8314 5.80283C13.8794 5.80283 13.9755 5.80284 14.0235 5.75489C14.0715 5.75489 14.1676 5.75489 14.2156 5.75489C14.2636 5.75489 14.3116 5.75489 14.3597 5.75489H14.4557H14.5037H14.5518C14.5998 5.75489 14.6958 5.75489 14.7439 5.75489H14.8399C14.8399 5.75489 14.888 5.75489 14.8399 5.75489H14.8879C14.936 5.75489 14.984 5.75489 15.032 5.75489C15.2722 5.75489 15.4643 5.75489 15.7044 5.75489C16.1366 5.75489 16.5688 5.80284 17.0011 5.89875C17.8175 6.04262 18.5859 6.33037 19.3063 6.66607C20.0267 7.00177 20.651 7.43339 21.1793 7.91297C21.2273 7.96093 21.2273 7.96092 21.2754 8.00887C21.3234 8.05683 21.3234 8.05684 21.3714 8.10479C21.4194 8.15275 21.5155 8.20071 21.5635 8.29662C21.6115 8.34458 21.7076 8.39253 21.7556 8.48845C21.8036 8.58436 21.8997 8.63232 21.9477 8.68027C22.1878 8.92006 22.3799 9.15985 22.572 9.4476C22.9562 9.92717 23.2924 10.4547 23.5325 10.9343C23.5325 10.9822 23.5806 10.9822 23.5806 11.0302C23.5806 11.0782 23.6286 11.0781 23.6286 11.1261C23.6766 11.1741 23.6766 11.222 23.7247 11.3179C23.7727 11.4138 23.7727 11.4139 23.8207 11.5098C23.8687 11.5577 23.8687 11.6057 23.9168 11.7016C24.0128 11.9414 24.1089 12.1332 24.1569 12.325C24.2529 12.6607 24.349 12.9485 24.397 13.1883C24.445 13.2842 24.5411 13.3801 24.6371 13.3321C24.7332 13.3321 24.8292 13.2362 24.8292 13.1403C25.0213 12.6128 25.0213 12.2771 24.9733 11.9414Z" fill="black"/>
<defs>
<linearGradient id="paint0_linear_18501_893" x1="12.556" y1="33.1131" x2="12.556" y2="8.417" gradientUnits="userSpaceOnUse">
<stop stop-color="#FFF100"/>
<stop offset="1" stop-color="#F05A28"/>
</linearGradient>
</defs>
</svg>
