 <svg width="14" height="16" viewBox="0 0 14 16" fill="none" xmlns="http://www.w3.org/2000/svg">
<path d="M7 7.125C7.9665 7.125 8.75 6.3415 8.75 5.375C8.75 4.4085 7.9665 3.625 7 3.625C6.0335 3.625 5.25 4.4085 5.25 5.375C5.25 6.3415 6.0335 7.125 7 7.125Z" stroke="#FF8D0B" stroke-width="1.3" stroke-linecap="round" stroke-linejoin="round"/>
<path d="M7 1.4375C8.04429 1.4375 9.04581 1.85234 9.78423 2.59077C10.5227 3.32919 10.9375 4.33071 10.9375 5.375C10.9375 7.27142 7.94383 11.5158 7.17733 12.5716C7.15691 12.5994 7.13021 12.6221 7.0994 12.6377C7.06859 12.6533 7.03454 12.6614 7 12.6614C6.96546 12.6614 6.93141 12.6533 6.9006 12.6377C6.86979 12.6221 6.84309 12.5994 6.82267 12.5716C6.05617 11.5158 3.0625 7.27142 3.0625 5.375C3.0625 4.33071 3.47734 3.32919 4.21577 2.59077C4.95419 1.85234 5.95571 1.4375 7 1.4375V1.4375Z" stroke="#FF8D0B" stroke-width="1.3" stroke-linecap="round" stroke-linejoin="round"/>
<path d="M10.4877 11.374C12.0814 11.6896 13.125 12.2164 13.125 12.8125C13.125 13.7791 10.3833 14.5625 7 14.5625C3.61667 14.5625 0.875 13.7791 0.875 12.8125C0.875 12.2175 1.91392 11.6919 3.5 11.3758" stroke="#FF8D0B" stroke-width="1.3" stroke-linecap="round" stroke-linejoin="round"/>
</svg>
