<svg xmlns="http://www.w3.org/2000/svg" width="53" height="45.795" viewBox="0 0 53 45.795"><g transform="translate(-774.5 -3600.5)"><g transform="translate(731.98 2968.359)"><path d="M81.015,633.641a14.563,14.563,0,0,0-1.622.1l-.009,0h-.01a13.013,13.013,0,0,0-10.354,7.936,13.013,13.013,0,0,0-10.354-7.936h-.01l-.009,0a14.563,14.563,0,0,0-1.622-.1A13.011,13.011,0,0,0,44.02,646.633c0,13.955,23.445,28.831,25,29.8,1.555-.971,25-15.848,25-29.8A13.011,13.011,0,0,0,81.015,633.641Z" fill="none" stroke="#5794f2" stroke-linecap="round" stroke-linejoin="round" stroke-width="3"/><path d="M129.7,693.668h-6.463v-6.463h-5.769v6.463H111v5.769h6.463V705.9h5.769v-6.463H129.7Z" transform="translate(-51.328 -41.047)" fill="#ff9830"/></g></g></svg>