<svg width="13" height="11" viewBox="0 0 13 11" fill="none" xmlns="http://www.w3.org/2000/svg">
<path d="M0.65 5.5H4.55C4.72239 5.5 4.88772 5.42757 5.00962 5.29864C5.13152 5.1697 5.2 4.99484 5.2 4.8125V0.6875C5.2 0.505164 5.13152 0.330295 5.00962 0.201364C4.88772 0.072433 4.72239 0 4.55 0H0.65C0.477609 0 0.312279 0.072433 0.190381 0.201364C0.0684819 0.330295 0 0.505164 0 0.6875V4.8125C0 4.99484 0.0684819 5.1697 0.190381 5.29864C0.312279 5.42757 0.477609 5.5 0.65 5.5ZM1.3 1.375H3.9V4.125H1.3V1.375ZM7.15 2.75H12.35C12.5224 2.75 12.6877 2.67757 12.8096 2.54864C12.9315 2.4197 13 2.24484 13 2.0625C13 1.88016 12.9315 1.7053 12.8096 1.57636C12.6877 1.44743 12.5224 1.375 12.35 1.375H7.15C6.97761 1.375 6.81228 1.44743 6.69038 1.57636C6.56848 1.7053 6.5 1.88016 6.5 2.0625C6.5 2.24484 6.56848 2.4197 6.69038 2.54864C6.81228 2.67757 6.97761 2.75 7.15 2.75ZM7.15 9.625H0.65C0.477609 9.625 0.312279 9.69743 0.190381 9.82636C0.0684819 9.95529 0 10.1302 0 10.3125C0 10.4948 0.0684819 10.6697 0.190381 10.7986C0.312279 10.9276 0.477609 11 0.65 11H7.15C7.32239 11 7.48772 10.9276 7.60962 10.7986C7.73152 10.6697 7.8 10.4948 7.8 10.3125C7.8 10.1302 7.73152 9.95529 7.60962 9.82636C7.48772 9.69743 7.32239 9.625 7.15 9.625ZM12.35 6.875H0.65C0.477609 6.875 0.312279 6.94743 0.190381 7.07636C0.0684819 7.2053 0 7.38016 0 7.5625C0 7.74484 0.0684819 7.9197 0.190381 8.04864C0.312279 8.17757 0.477609 8.25 0.65 8.25H12.35C12.5224 8.25 12.6877 8.17757 12.8096 8.04864C12.9315 7.9197 13 7.74484 13 7.5625C13 7.38016 12.9315 7.2053 12.8096 7.07636C12.6877 6.94743 12.5224 6.875 12.35 6.875ZM12.35 4.125H7.15C6.97761 4.125 6.81228 4.19743 6.69038 4.32636C6.56848 4.4553 6.5 4.63016 6.5 4.8125C6.5 4.99484 6.56848 5.1697 6.69038 5.29864C6.81228 5.42757 6.97761 5.5 7.15 5.5H12.35C12.5224 5.5 12.6877 5.42757 12.8096 5.29864C12.9315 5.1697 13 4.99484 13 4.8125C13 4.63016 12.9315 4.4553 12.8096 4.32636C12.6877 4.19743 12.5224 4.125 12.35 4.125Z" fill="#757575"/>
</svg>
