<svg width="16" height="18" viewBox="0 0 16 18" fill="none" xmlns="http://www.w3.org/2000/svg">
<path d="M10.15 8.25C10.5287 7.77662 10.7371 7.18956 10.7417 6.58333C10.7417 5.8562 10.4528 5.15884 9.93865 4.64468C9.42449 4.13052 8.72713 3.84167 8 3.84167C7.27286 3.84167 6.57551 4.13052 6.06135 4.64468C5.54719 5.15884 5.25833 5.8562 5.25833 6.58333C5.26285 7.18956 5.47126 7.77662 5.85 8.25C5.10719 8.70204 4.52441 9.37514 4.18333 10.175C4.13559 10.2765 4.10883 10.3866 4.10465 10.4986C4.10047 10.6107 4.11895 10.7225 4.15899 10.8272C4.19903 10.932 4.25981 11.0276 4.33767 11.1083C4.41554 11.189 4.5089 11.2532 4.61216 11.297C4.71542 11.3407 4.82645 11.3632 4.9386 11.363C5.05075 11.3629 5.16172 11.3401 5.26485 11.296C5.36798 11.252 5.46115 11.1875 5.53879 11.1066C5.61643 11.0257 5.67693 10.9299 5.71667 10.825C5.9082 10.3773 6.22631 9.99526 6.63194 9.72583C7.03756 9.45639 7.51305 9.31129 8 9.30833C8.48837 9.30967 8.96566 9.45401 9.37292 9.72355C9.78018 9.99308 10.0996 10.376 10.2917 10.825C10.3555 10.9756 10.4622 11.1041 10.5985 11.1945C10.7348 11.2849 10.8948 11.3332 11.0583 11.3333C11.1698 11.3313 11.28 11.3087 11.3833 11.2667C11.5866 11.1803 11.7472 11.0169 11.83 10.8122C11.9128 10.6075 11.911 10.3784 11.825 10.175C11.4817 9.37395 10.8959 8.7007 10.15 8.25ZM8 7.64167C7.78703 7.64166 7.57886 7.5784 7.4019 7.4599C7.22495 7.34141 7.08717 7.17302 7.00606 6.9761C6.92494 6.77919 6.90415 6.56261 6.94631 6.35386C6.98846 6.14511 7.09168 5.95358 7.24286 5.80358C7.39403 5.65357 7.58636 5.55185 7.79543 5.51132C8.00451 5.47078 8.22091 5.49326 8.41719 5.57591C8.61347 5.65855 8.78078 5.79763 8.89789 5.97551C9.01501 6.15338 9.07665 6.36204 9.075 6.575C9.0728 6.85866 8.95857 7.12996 8.75721 7.32976C8.55584 7.52956 8.28367 7.64168 8 7.64167ZM13 0.5H3C2.33696 0.5 1.70107 0.763392 1.23223 1.23223C0.763392 1.70107 0.5 2.33696 0.5 3V12.1667C0.5 12.8297 0.763392 13.4656 1.23223 13.9344C1.70107 14.4033 2.33696 14.6667 3 14.6667H5.15833L7.40833 16.925C7.4862 17.0022 7.57855 17.0633 7.68008 17.1048C7.78161 17.1463 7.89033 17.1673 8 17.1667C8.19862 17.1667 8.39071 17.0958 8.54167 16.9667L11.225 14.6667H13C13.663 14.6667 14.2989 14.4033 14.7678 13.9344C15.2366 13.4656 15.5 12.8297 15.5 12.1667V3C15.5 2.33696 15.2366 1.70107 14.7678 1.23223C14.2989 0.763392 13.663 0.5 13 0.5ZM13.8333 12.1667C13.8333 12.3877 13.7455 12.5996 13.5893 12.7559C13.433 12.9122 13.221 13 13 13H10.9167C10.718 13 10.526 13.0709 10.375 13.2L8.04167 15.2L6.09167 13.2417C6.0138 13.1644 5.92145 13.1033 5.81992 13.0619C5.71839 13.0204 5.60967 12.9994 5.5 13H3C2.77899 13 2.56702 12.9122 2.41074 12.7559C2.25446 12.5996 2.16667 12.3877 2.16667 12.1667V3C2.16667 2.77899 2.25446 2.56702 2.41074 2.41074C2.56702 2.25446 2.77899 2.16667 3 2.16667H13C13.221 2.16667 13.433 2.25446 13.5893 2.41074C13.7455 2.56702 13.8333 2.77899 13.8333 3V12.1667Z" fill="#5787D1"/>
</svg>
