<svg xmlns="http://www.w3.org/2000/svg" xmlns:xlink="http://www.w3.org/1999/xlink" width="427" height="411" viewBox="0 0 427 411">
  <defs>
    <filter id="Ellipse_624" x="16" y="0" width="411" height="411" filterUnits="userSpaceOnUse">
      <feOffset input="SourceAlpha"/>
      <feGaussianBlur stdDeviation="15" result="blur"/>
      <feFlood flood-color="#e1eaf9"/>
      <feComposite operator="in" in2="blur"/>
      <feComposite in="SourceGraphic"/>
    </filter>
    <linearGradient id="linear-gradient" x1="0.502" y1="2.379" x2="0.502" y2="-1.436" gradientUnits="objectBoundingBox">
      <stop offset="0" stop-color="#fff100"/>
      <stop offset="1" stop-color="#f05a28"/>
    </linearGradient>
    <linearGradient id="linear-gradient-2" x1="0.499" y1="-15.09" x2="0.499" y2="5.445" gradientUnits="objectBoundingBox">
      <stop offset="0" stop-color="#b280b8"/>
      <stop offset="1" stop-color="#8a4f9e"/>
    </linearGradient>
    <linearGradient id="linear-gradient-3" x1="0.5" y1="-0.021" x2="0.5" y2="1.282" xlink:href="#linear-gradient-2"/>
    <linearGradient id="linear-gradient-4" x1="0.501" y1="-0.934" x2="0.501" y2="1.074" xlink:href="#linear-gradient-2"/>
    <linearGradient id="linear-gradient-5" x1="0.495" y1="1.551" x2="0.495" y2="-1.006" gradientUnits="objectBoundingBox">
      <stop offset="0" stop-color="#f8ec1d"/>
      <stop offset="1" stop-color="#f05a2b"/>
    </linearGradient>
    <linearGradient id="linear-gradient-6" x1="0.5" y1="1.649" x2="0.5" y2="-0.149" xlink:href="#linear-gradient"/>
  </defs>
  <g id="Group_1722" data-name="Group 1722" transform="translate(-285 -5317)">
    <g id="Ellipse_632" data-name="Ellipse 632" transform="translate(290 5335)" fill="none" stroke="#d4e1f4" stroke-width="3">
      <circle cx="156.5" cy="156.5" r="156.5" stroke="none"/>
      <circle cx="156.5" cy="156.5" r="155" fill="none"/>
    </g>
    <g transform="matrix(1, 0, 0, 1, 285, 5317)" filter="url(#Ellipse_624)">
      <circle id="Ellipse_624-2" data-name="Ellipse 624" cx="160.5" cy="160.5" r="160.5" transform="translate(61 45)" fill="#fff"/>
    </g>
    <g id="Group_1295" data-name="Group 1295" transform="translate(-450.742 4950.614)">
      <path id="Path_1211" data-name="Path 1211" d="M831.015,730.386a3,3,0,1,1,3-3A3,3,0,0,1,831.015,730.386Z" fill="#00e5b9"/>
      <path id="Path_1212" data-name="Path 1212" d="M843.287,730.386a3,3,0,1,1,3-3A3,3,0,0,1,843.287,730.386Z" fill="#00e5b9"/>
      <path id="Path_1213" data-name="Path 1213" d="M818.742,742.659a3,3,0,1,1,3-3A3,3,0,0,1,818.742,742.659Z" fill="#00e5b9"/>
      <path id="Path_1214" data-name="Path 1214" d="M831.015,742.659a3,3,0,1,1,3-3A3,3,0,0,1,831.015,742.659Z" fill="#00e5b9"/>
      <path id="Path_1215" data-name="Path 1215" d="M843.287,742.659a3,3,0,1,1,3-3A3,3,0,0,1,843.287,742.659Z" fill="#00e5b9"/>
      <path id="Path_1216" data-name="Path 1216" d="M818.742,754.932a3,3,0,1,1,3-3A3,3,0,0,1,818.742,754.932Z" fill="#00e5b9"/>
      <path id="Path_1217" data-name="Path 1217" d="M831.015,754.932a3,3,0,1,1,3-3A3,3,0,0,1,831.015,754.932Z" fill="#00e5b9"/>
    </g>
    <path id="Path_1218" data-name="Path 1218" d="M699.015-276.341a15.017,15.017,0,0,0-15,15,15.017,15.017,0,0,0,15,15,15.017,15.017,0,0,0,15-15A15.017,15.017,0,0,0,699.015-276.341Zm0,21.818a6.817,6.817,0,0,1-6.818-6.818,6.818,6.818,0,0,1,6.818-6.818,6.819,6.819,0,0,1,6.818,6.818A6.818,6.818,0,0,1,699.015-254.523Z" transform="translate(-122.015 5596.341)" fill="#fade2a"/>
    <path id="Path_1219" data-name="Path 1219" d="M1199.015-252.341a9,9,0,0,1-9-9,9,9,0,0,1,9-9,9,9,0,0,1,9,9A9,9,0,0,1,1199.015-252.341Z" transform="translate(-905.015 5784.341)" fill="#d4e1f4"/>
    <g id="grafana_cloud_hero" transform="translate(302.861 5434.333)">
      <path id="Path_1224" data-name="Path 1224" d="M117.126,99.258l-6.855,25.689L84.658,131.8,65.9,113.044l6.855-25.689L98.369,80.5Z" transform="translate(-16.892 -19.438)" fill="#bcbec0" opacity="0.03"/>
      <path id="Path_1225" data-name="Path 1225" d="M498.571,161.943l-12.053,15.293-19.285-2.787L460,156.368,472.053,141l19.361,2.863Z" transform="translate(-114.105 -34.361)" fill="#bcbec0" opacity="0.03"/>
      <path id="Path_1227" data-name="Path 1227" d="M90.567,136.486l-5.047,18.833-18.833,5.047L52.9,146.581l5.047-18.833L76.781,122.7Z" transform="translate(-13.686 -29.847)" fill="#bcbec0" opacity="0.03"/>
      <path id="Path_1228" data-name="Path 1228" d="M160.8,97.082l-30.359,18.984-31.565-16.8L97.6,63.484,127.959,44.5l31.565,16.8Z" transform="translate(-24.712 -10.557)" fill="#bcbec0" opacity="0.03"/>
      <path id="Path_1229" data-name="Path 1229" d="M168.244,63.055l-6.7,24.86-24.785,6.629L118.6,76.389l6.629-24.86,24.86-6.629Z" transform="translate(-29.892 -10.656)" fill="#bcbec0" opacity="0.03"/>
      <path id="Path_1230" data-name="Path 1230" d="M263.167,135.459l5.5,25.086-18.984,17.327L225.2,170.113l-5.5-25.086L238.684,127.7Z" transform="translate(-54.83 -31.08)" fill="#bcbec0" opacity="0.03"/>
      <path id="Path_1232" data-name="Path 1232" d="M208.637,170l-20.114,15.971-23.881-9.341L160.8,151.171,180.914,135.2l23.881,9.341Z" transform="translate(-40.301 -32.93)" fill="#bcbec0" opacity="0.03"/>
      <path id="Path_1233" data-name="Path 1233" d="M378.575,59.517l-7.609,28.25-28.25,7.609L322,74.659l7.533-28.325L357.859,38.8Z" transform="translate(-80.065 -9.151)" fill="#bcbec0" opacity="0.03"/>
      <path id="Path_1234" data-name="Path 1234" d="M174.444,102.855l-6.629,24.86-24.785,6.629L124.8,116.189l6.7-24.86L156.289,84.7Z" transform="translate(-31.421 -20.474)" fill="#bcbec0" opacity="0.03"/>
      <path id="Path_1235" data-name="Path 1235" d="M165.244,130.455l-6.629,24.86-24.785,6.629L115.6,143.789l6.7-24.86,24.785-6.629Z" transform="translate(-29.152 -27.282)" fill="#bcbec0" opacity="0.03"/>
      <path id="Path_1236" data-name="Path 1236" d="M201.944,102.055l-6.629,24.785-24.86,6.629L152.3,115.314l6.629-24.785,24.86-6.629Z" transform="translate(-38.205 -20.276)" fill="#bcbec0" opacity="0.03"/>
      <path id="Path_1237" data-name="Path 1237" d="M211.645,63.055l-6.7,24.785-24.785,6.7L162,76.389l6.629-24.86L193.414,44.9Z" transform="translate(-40.597 -10.656)" fill="#bcbec0" opacity="0.03"/>
      <path id="Path_1238" data-name="Path 1238" d="M232.206,134.092l-9.567,47.535L176.686,197.07,140.3,165.054l9.567-47.535L195.82,102Z" transform="translate(-35.245 -24.741)" fill="#bcbec0" opacity="0.03"/>
      <path id="Path_1239" data-name="Path 1239" d="M263.906,62.917l-9.567,47.535L208.386,125.97,172,93.878l9.567-47.535L227.52,30.9Z" transform="translate(-43.064 -7.203)" fill="#bcbec0" opacity="0.03"/>
      <path id="Path_1241" data-name="Path 1241" d="M250.245,108.031l-6.629,24.785-24.86,6.629L200.6,121.289,207.3,96.5l24.785-6.7Z" transform="translate(-50.119 -21.732)" fill="#bcbec0" opacity="0.03"/>
      <path id="Path_1242" data-name="Path 1242" d="M260.548,89.477l-16.573,19.587-25.312-4.6L210,80.287,226.649,60.7l25.237,4.6Z" transform="translate(-52.438 -14.554)" fill="#bcbec0" opacity="0.03"/>
      <path id="Path_1243" data-name="Path 1243" d="M296.945,101.255l-6.629,24.86-24.785,6.629L247.3,114.589l6.7-24.86L278.789,83.1Z" transform="translate(-61.638 -20.079)" fill="#bcbec0" opacity="0.03"/>
      <path id="Path_1244" data-name="Path 1244" d="M330.2,30.475l-8.362,31.037L290.875,69.8,268.2,47.124l8.287-31.037L307.448,7.8Z" transform="translate(-66.794 -1.505)" fill="#bcbec0" opacity="0.03"/>
      <path id="Path_1246" data-name="Path 1246" d="M310.8,152.655,296.486,186.63l-36.687,4.6-22.3-29.455,14.389-34.051,36.687-4.52Z" transform="translate(-59.221 -29.97)" fill="#bcbec0" opacity="0.03"/>
      <path id="Path_1247" data-name="Path 1247" d="M347.145,79.231l-6.629,24.785-24.785,6.629L297.5,92.489,304.2,67.7,328.989,61Z" transform="translate(-74.021 -14.628)" fill="#bcbec0" opacity="0.03"/>
      <path id="Path_1248" data-name="Path 1248" d="M376.694,41.777,353.567,79.971l-44.6-.979-21.47-39.1L310.627,1.7l44.6.979Z" transform="translate(-71.554 0)" fill="#bcbec0" opacity="0.03"/>
      <path id="Path_1249" data-name="Path 1249" d="M336.3,120.232l-6.78,25.312-25.387,6.78L285.6,133.792l6.78-25.312,25.387-6.78Z" transform="translate(-71.086 -24.667)" fill="#bcbec0" opacity="0.03"/>
      <path id="Path_1250" data-name="Path 1250" d="M309.417,154.94l-34.653,40.981-52.808-9.567L203.8,135.881,238.529,94.9l52.809,9.567Z" transform="translate(-50.908 -22.99)" fill="#bcbec0" opacity="0.03"/>
      <path id="Path_1251" data-name="Path 1251" d="M368.881,144.465l-11.6,43.091-43.09,11.526L282.7,167.592l11.526-43.09,43.09-11.6Z" transform="translate(-70.37 -27.43)" fill="#bcbec0" opacity="0.03"/>
      <path id="Path_1253" data-name="Path 1253" d="M340.381,85.265l-11.526,43.09-43.09,11.526L254.2,108.392,265.8,65.3l43.09-11.6Z" transform="translate(-63.34 -12.827)" fill="#bcbec0" opacity="0.03"/>
      <path id="Path_1254" data-name="Path 1254" d="M381.486,140.077l-29.606,33.3-43.693-8.965L294.1,122.073,323.781,88.7l43.693,9.04Z" transform="translate(-73.182 -21.46)" fill="#bcbec0" opacity="0.03"/>
      <path id="Path_1255" data-name="Path 1255" d="M406.846,100.493,397.128,136.8l-36.31,9.718L334.3,119.928l9.718-36.311,36.31-9.718Z" transform="translate(-83.099 -17.81)" fill="#bcbec0" opacity="0.03"/>
      <path id="Path_1256" data-name="Path 1256" d="M408.084,122.963l16.272,33.9L403.112,187.9l-37.441-2.863-16.272-33.9L370.569,120.1Z" transform="translate(-86.823 -29.206)" fill="#bcbec0" opacity="0.03"/>
      <path id="Path_1258" data-name="Path 1258" d="M383.845,88.355l-6.629,24.785-24.86,6.7L334.2,101.689l6.629-24.86,24.86-6.629Z" transform="translate(-83.074 -16.897)" fill="#bcbec0" opacity="0.03"/>
      <path id="Path_1259" data-name="Path 1259" d="M420.849,83.477,404.2,103.064l-25.237-4.6L370.3,74.287,386.873,54.7l25.312,4.6Z" transform="translate(-91.979 -13.073)" fill="#bcbec0" opacity="0.03"/>
      <path id="Path_1264" data-name="Path 1264" d="M296.181,137.959H275.163a16.079,16.079,0,0,1-1.431-32.092,17.345,17.345,0,0,0-1.356-3.767,19.987,19.987,0,0,0,2.787,39.776H294.3l.151-.452C294.6,141.273,295.051,139.842,296.181,137.959Z" transform="translate(-63.587 -24.766)" fill="url(#linear-gradient)"/>
      <line id="Line_82" data-name="Line 82" transform="translate(247.962 111.084)" fill="none" stroke="#000" stroke-linecap="round" stroke-linejoin="round" stroke-width="1"/>
      <path id="Path_1265" data-name="Path 1265" d="M253.688,147.8a26.555,26.555,0,0,1-8.513,1.431h-10.7a10.744,10.744,0,0,1-.678,2.034,8.015,8.015,0,0,1,.678,1.883h10.7a29.282,29.282,0,0,0,11.752-2.411A24.245,24.245,0,0,1,253.688,147.8Z" transform="translate(-58.308 -36.038)" fill="url(#linear-gradient-2)"/>
      <path id="Path_1266" data-name="Path 1266" d="M144.9,123.38H129.988a16.046,16.046,0,0,1,0-32.092h.452l4.219.151-.226-4.219c0-.678-.075-1.356-.075-2.034a38.323,38.323,0,0,1,38.269-38.269,37.892,37.892,0,0,1,20.867,6.253,38.842,38.842,0,0,1,13.861,16.121l1.205,2.561,2.787-.3a23.161,23.161,0,0,1,3.164-.226,26.078,26.078,0,0,1,15.745,46.857,13.217,13.217,0,0,0,3.541,2.185,30,30,0,0,0-19.285-52.959,29.123,29.123,0,0,0-3.616.226A41.7,41.7,0,0,0,172.7,43a42.213,42.213,0,0,0-42.186,42.187,20.453,20.453,0,0,0,.075,2.185h-.527a19.963,19.963,0,0,0,0,39.927H144.9a9.445,9.445,0,0,1,.678-1.883A10.745,10.745,0,0,1,144.9,123.38Z" transform="translate(-27.795 -10.187)" fill="url(#linear-gradient-3)"/>
      <path id="Path_1267" data-name="Path 1267" d="M214.174,124.471a10.207,10.207,0,0,0,.151-1.507c0-4.068-3.089-7.684-8.136-10.245a29.747,29.747,0,0,0-4.143-1.733c-.753-.226-1.507-.527-2.335-.753-.377-.075-.829-.226-1.205-.3a25.632,25.632,0,0,0-2.561-.527c-.829-.151-1.733-.3-2.637-.452s-1.808-.226-2.787-.3c-1.431-.075-2.863-.151-4.369-.151s-2.938.075-4.369.151c-.9.075-1.883.151-2.787.3s-1.808.226-2.637.452c-.829.151-1.733.377-2.561.527-.377.075-.829.226-1.205.3a21.181,21.181,0,0,0-2.335.753,30.734,30.734,0,0,0-3.164,1.281c-5.65,2.637-9.115,6.4-9.115,10.773a9.272,9.272,0,0,0,.151,1.507,10.207,10.207,0,0,0-.151,1.507,6.5,6.5,0,0,0,.3,2.109,8.976,8.976,0,0,0,.6,1.507,4.322,4.322,0,0,0,.3.527,4.314,4.314,0,0,1-.3.527,12.551,12.551,0,0,0-.6,1.507,6.805,6.805,0,0,0-.3,2.109,9.272,9.272,0,0,0,.151,1.507,10.207,10.207,0,0,0-.151,1.507,6.5,6.5,0,0,0,.3,2.109,11.546,11.546,0,0,0,.829,2.034,8.419,8.419,0,0,0-.829,1.883,7.975,7.975,0,0,0-.377,2.335,9.276,9.276,0,0,0,.151,1.507,10.211,10.211,0,0,0-.151,1.507c0,4.821,4.369,9.04,11.225,11.6a6.63,6.63,0,0,0,1.13.377c.753.226,1.507.527,2.335.753a50.641,50.641,0,0,0,6.4,1.281c.9.151,1.808.226,2.787.3,1.431.075,2.863.151,4.369.151s2.938-.075,4.369-.151c.9-.075,1.883-.151,2.787-.3a50.64,50.64,0,0,0,6.4-1.281,21.185,21.185,0,0,0,2.335-.753c.377-.151.753-.226,1.13-.377.753-.3,1.431-.6,2.109-.9.3-.151.678-.3.979-.452,5.047-2.637,8.136-6.253,8.136-10.245a9.276,9.276,0,0,0-.151-1.507,10.207,10.207,0,0,0,.151-1.507,8.4,8.4,0,0,0-.377-2.335,10.258,10.258,0,0,0-.829-1.883,7.717,7.717,0,0,0,.829-2.034,6.806,6.806,0,0,0,.3-2.109,9.276,9.276,0,0,0-.151-1.507,10.211,10.211,0,0,0,.151-1.507,8.165,8.165,0,0,0-1.13-4.143,8.165,8.165,0,0,0,1.13-4.143A11.237,11.237,0,0,0,214.174,124.471Zm-27.949-14.389c14.615,0,26.517,5.8,26.517,12.882s-11.9,12.882-26.517,12.882-26.517-5.8-26.517-12.882S171.611,110.082,186.225,110.082Zm25.99,18.532c-2.486,5.876-13.183,10.245-25.99,10.245s-23.5-4.445-25.99-10.245c4.219,5.273,14.087,8.814,25.99,8.814C198.052,137.428,208,133.812,212.215,128.614ZM186.225,148.8c9.04,0,16.95-2.109,22-5.349a18.118,18.118,0,0,0,3.993-3.465,10.869,10.869,0,0,1-2.561,3.465c-4.445,4.068-13.259,6.855-23.429,6.855s-18.909-2.787-23.429-6.855a9.847,9.847,0,0,1-2.561-3.465,15.224,15.224,0,0,0,3.993,3.465C169.275,146.769,177.185,148.8,186.225,148.8Zm0,12.807c-12.807,0-23.5-4.445-25.99-10.245,4.219,5.273,14.087,8.814,25.99,8.814s21.771-3.616,25.99-8.814C209.729,157.24,199.032,161.61,186.225,161.61Zm26.517-15.9c0,7.081-11.9,12.882-26.517,12.882s-26.517-5.8-26.517-12.882a6.427,6.427,0,0,1,.452-2.335c.075-.151.075-.226.151-.377.075.151.226.226.3.377,4.369,4.972,14.087,8.437,25.613,8.437s21.244-3.39,25.613-8.437c.075-.151.226-.226.3-.377.075.151.075.226.151.377A6.74,6.74,0,0,1,212.742,145.715Zm-6.4-3.013c-4.9,2.787-12.129,4.52-20.189,4.52-7.759,0-14.69-1.582-19.587-4.219a16.746,16.746,0,0,1-4.671-3.465,7.732,7.732,0,0,1-2.26-5.2,6.423,6.423,0,0,1,.6-2.637c4.219,5.2,14.087,8.814,25.915,8.814s21.771-3.541,25.915-8.814a6.422,6.422,0,0,1,.6,2.637,7.881,7.881,0,0,1-2.26,5.2A15.254,15.254,0,0,1,206.339,142.7Z" transform="translate(-39.586 -26.344)" fill="url(#linear-gradient-4)"/>
      <path id="Path_1268" data-name="Path 1268" d="M364.792,131.791a15.357,15.357,0,0,0-.6-3.39,20.86,20.86,0,0,0-1.507-4.068,24.1,24.1,0,0,0-2.863-4.369,10.9,10.9,0,0,0-1.582-1.657,8.786,8.786,0,0,0-1.055-6.253,9.234,9.234,0,0,0-6.027,1.507c-.151-.075-.226-.075-.377-.151a14.656,14.656,0,0,0-1.657-.6c-.6-.151-1.13-.377-1.733-.527s-1.205-.226-1.808-.377a.453.453,0,0,1-.3-.075,11.07,11.07,0,0,0-5.424-6.328,12.217,12.217,0,0,0-5.349,6.78.583.583,0,0,1-.075.226c-.226.075-.527.151-.753.226a5.9,5.9,0,0,0-1.055.377c-.3.151-.678.226-.979.377-.678.3-1.356.6-2.034.979-.6.377-1.281.753-1.883,1.205a.233.233,0,0,0-.151-.075,15.646,15.646,0,0,0-11.677.452,16.869,16.869,0,0,0,3.089,11.526,7.405,7.405,0,0,0-.377,1.205,23.763,23.763,0,0,0-.979,4.6c0,.226-.075.452-.075.678a15.567,15.567,0,0,0-7.458,8.588,16.049,16.049,0,0,0,10.321,5.8h0a19.3,19.3,0,0,0,2.486,3.616c.377.452.829.9,1.205,1.356a12.963,12.963,0,0,0,.226,9.115,14.57,14.57,0,0,0,9.567-2.938,12.47,12.47,0,0,0,1.582.452,22.7,22.7,0,0,0,4.972.753h2.26a10.812,10.812,0,0,0,6.931,4.068c3.541-3.767,3.315-7.458,3.315-7.458l-.075-.075a12.87,12.87,0,0,0,1.959-1.582,17.546,17.546,0,0,0,3.239-3.842c.075-.151.151-.226.226-.377a8.608,8.608,0,0,0,6.027-2.185,8.97,8.97,0,0,0-3.239-5.876h-.075c0-.226.075-.527.075-.753a6.477,6.477,0,0,1,.075-1.205v-2.034l-.075-.3c-.075-.377-.151-.829-.226-1.205a15.329,15.329,0,0,0-1.808-4.445,13.671,13.671,0,0,0-3.013-3.541,15.265,15.265,0,0,0-3.767-2.411,16.831,16.831,0,0,0-4.219-1.205,19.851,19.851,0,0,0-2.109-.151h-.979a5.086,5.086,0,0,0-1.055.151,10.349,10.349,0,0,0-3.917,1.507,11.1,11.1,0,0,0-3.013,2.561,11.737,11.737,0,0,0-1.883,3.239,11.455,11.455,0,0,0-.753,3.465V138.8a10.8,10.8,0,0,0,.3,1.657,9.283,9.283,0,0,0,1.431,2.863,8.957,8.957,0,0,0,2.109,2.034,7.807,7.807,0,0,0,2.411,1.13,9.4,9.4,0,0,0,2.411.377h1.13a6515.317,6515.317,0,0,0,.6-.151c.151-.075.377-.075.527-.151a5.23,5.23,0,0,0,.979-.377,5.067,5.067,0,0,0,.829-.527c.075-.075.151-.075.226-.151a.615.615,0,0,0,.075-.9.584.584,0,0,0-.753-.151c-.075,0-.151.075-.226.075-.226.075-.452.226-.678.3s-.527.151-.753.226a3.265,3.265,0,0,0-.377.075h-1.281a5.487,5.487,0,0,1-1.808-.527,7.708,7.708,0,0,1-1.657-1.055,6.335,6.335,0,0,1-1.959-3.691,5.7,5.7,0,0,1-.075-1.13v-.3h0v-.226c0-.226.075-.377.075-.6a8.228,8.228,0,0,1,2.26-4.294,11.27,11.27,0,0,1,.979-.829,8.238,8.238,0,0,1,1.13-.6c.377-.151.829-.3,1.205-.452.452-.075.829-.151,1.281-.226h1.281a10.729,10.729,0,0,1,4.068,1.205,10.084,10.084,0,0,1,3.993,4.143,9.292,9.292,0,0,1,.9,2.787c0,.226.075.452.075.753v1.356c0,.3-.075.527-.075.829a2.23,2.23,0,0,1-.151.753c-.075.226-.075.527-.151.753a8.859,8.859,0,0,1-.527,1.507,10.242,10.242,0,0,1-1.582,2.787,13.05,13.05,0,0,1-4.972,4.068,14.737,14.737,0,0,1-3.089.979,11.239,11.239,0,0,1-1.582.151h-.829a2.825,2.825,0,0,1-.829-.075,17.8,17.8,0,0,1-3.39-.6,14.645,14.645,0,0,1-3.164-1.281,16.387,16.387,0,0,1-5.273-4.369,23.427,23.427,0,0,1-1.883-2.863,14.475,14.475,0,0,1-1.205-3.164,16.027,16.027,0,0,1-.527-3.315v-1.205h0v-.452a12.317,12.317,0,0,1,.151-1.657,13.9,13.9,0,0,1,.3-1.733c.151-.527.226-1.13.377-1.657a14.473,14.473,0,0,1,1.205-3.164,17.338,17.338,0,0,1,3.616-5.2,13.1,13.1,0,0,1,1.13-.979c.377-.3.829-.6,1.205-.9a11.347,11.347,0,0,1,1.281-.753,2.677,2.677,0,0,1,.678-.3c.151-.075.226-.075.377-.151s.226-.075.377-.151a8.03,8.03,0,0,1,1.431-.527c.151,0,.226-.075.377-.075s.226-.075.377-.075a2.677,2.677,0,0,1,.753-.151c.151,0,.226-.075.377-.075s.226-.075.377-.075.226-.075.377-.075h.377c.151,0,.226-.075.377-.075a41860.853,41860.853,0,0,0,.9-.151h3.239c.979.075,1.883.151,2.787.3a19.622,19.622,0,0,1,9.191,4.369l.226.226.226.226c.151.151.3.226.452.377l.377.377.377.377a15.07,15.07,0,0,1,1.431,1.657,33.56,33.56,0,0,1,2.109,3.239c0,.075.075.151.075.226s.075.151.075.226c.075.151.151.226.151.377.075.151.151.226.151.377.075.151.075.226.151.377.226.527.377.979.527,1.431.226.678.452,1.356.6,1.883a.567.567,0,0,0,.527.377.486.486,0,0,0,.452-.452A3.84,3.84,0,0,1,364.792,131.791Z" transform="translate(-77.129 -25.604)" fill="url(#linear-gradient-5)"/>
      <path id="Path_1269" data-name="Path 1269" d="M366.72,67.333a29.125,29.125,0,0,0-3.616.226,42.188,42.188,0,0,0-80,11.074,28.96,28.96,0,0,1,3.39,5.951A38.2,38.2,0,0,1,345.626,53.17a38.842,38.842,0,0,1,13.861,16.121l1.205,2.561,2.787-.3a23.163,23.163,0,0,1,3.164-.226,26.065,26.065,0,1,1,0,52.13H355.42a16.709,16.709,0,0,1,.226,3.917H366.72a30.02,30.02,0,0,0,0-60.04Z" transform="translate(-70.469 -10.187)" fill="url(#linear-gradient-6)"/>
    </g>
  </g>
</svg>
