<svg width="18" height="18" viewBox="0 0 18 18" fill="none" xmlns="http://www.w3.org/2000/svg">
<path d="M9.0013 3.99935C8.78029 3.99935 8.56833 4.08715 8.41205 4.24343C8.25577 4.39971 8.16797 4.61167 8.16797 4.83268V13.166C8.16797 13.387 8.25577 13.599 8.41205 13.7553C8.56833 13.9116 8.78029 13.9993 9.0013 13.9993C9.22232 13.9993 9.43428 13.9116 9.59056 13.7553C9.74684 13.599 9.83464 13.387 9.83464 13.166V4.83268C9.83464 4.61167 9.74684 4.39971 9.59056 4.24343C9.43428 4.08715 9.22232 3.99935 9.0013 3.99935ZM4.83464 8.99935C4.61362 8.99935 4.40166 9.08715 4.24538 9.24343C4.0891 9.39971 4.0013 9.61167 4.0013 9.83268V13.166C4.0013 13.387 4.0891 13.599 4.24538 13.7553C4.40166 13.9116 4.61362 13.9993 4.83464 13.9993C5.05565 13.9993 5.26761 13.9116 5.42389 13.7553C5.58017 13.599 5.66797 13.387 5.66797 13.166V9.83268C5.66797 9.61167 5.58017 9.39971 5.42389 9.24343C5.26761 9.08715 5.05565 8.99935 4.83464 8.99935ZM13.168 7.33268C12.947 7.33268 12.735 7.42048 12.5787 7.57676C12.4224 7.73304 12.3346 7.945 12.3346 8.16602V13.166C12.3346 13.387 12.4224 13.599 12.5787 13.7553C12.735 13.9116 12.947 13.9993 13.168 13.9993C13.389 13.9993 13.6009 13.9116 13.7572 13.7553C13.9135 13.599 14.0013 13.387 14.0013 13.166V8.16602C14.0013 7.945 13.9135 7.73304 13.7572 7.57676C13.6009 7.42048 13.389 7.33268 13.168 7.33268ZM14.8346 0.666016H3.16797C2.50493 0.666016 1.86904 0.929408 1.4002 1.39825C0.931361 1.86709 0.667969 2.50297 0.667969 3.16602V14.8327C0.667969 15.4957 0.931361 16.1316 1.4002 16.6005C1.86904 17.0693 2.50493 17.3327 3.16797 17.3327H14.8346C15.4977 17.3327 16.1336 17.0693 16.6024 16.6005C17.0712 16.1316 17.3346 15.4957 17.3346 14.8327V3.16602C17.3346 2.50297 17.0712 1.86709 16.6024 1.39825C16.1336 0.929408 15.4977 0.666016 14.8346 0.666016ZM15.668 14.8327C15.668 15.0537 15.5802 15.2657 15.4239 15.4219C15.2676 15.5782 15.0556 15.666 14.8346 15.666H3.16797C2.94696 15.666 2.73499 15.5782 2.57871 15.4219C2.42243 15.2657 2.33464 15.0537 2.33464 14.8327V3.16602C2.33464 2.945 2.42243 2.73304 2.57871 2.57676C2.73499 2.42048 2.94696 2.33268 3.16797 2.33268H14.8346C15.0556 2.33268 15.2676 2.42048 15.4239 2.57676C15.5802 2.73304 15.668 2.945 15.668 3.16602V14.8327Z" fill="#5787D1"/>
</svg>
