<svg xmlns="http://www.w3.org/2000/svg" width="38.781" height="32.961" viewBox="0 0 38.781 32.961"><g transform="translate(-348 -5186.403)"><g transform="translate(348 5186.403)"><path d="M470.4,1605.465a9.54,9.54,0,0,0,3.3-7.213,9.694,9.694,0,1,0-19.389,0,9.539,9.539,0,0,0,3.3,7.213,15.511,15.511,0,0,0-9.113,14.115,1.939,1.939,0,1,0,3.878,0,11.633,11.633,0,1,1,23.266,0,1.939,1.939,0,1,0,3.878,0A15.511,15.511,0,0,0,470.4,1605.465Zm-6.4-1.4a5.817,5.817,0,1,1,5.817-5.817A5.817,5.817,0,0,1,464.006,1604.069Z" transform="translate(-448.495 -1588.558)" fill="#1857b8"/><path d="M609,1646.2a1.939,1.939,0,0,0-2.742-.011l-.011.011-3.878,3.878-1.2-1.222a1.939,1.939,0,0,0-2.742-.011l-.011.011a1.939,1.939,0,0,0,0,2.734l2.6,2.6a1.939,1.939,0,0,0,2.734,0l5.177-5.177a1.939,1.939,0,0,0,.147-2.738Q609.031,1646.238,609,1646.2Z" transform="translate(-570.78 -1635.286)" fill="#fa6400"/></g></g></svg>