<svg width="24" height="24" viewBox="0 0 24 24" fill="none" xmlns="http://www.w3.org/2000/svg">
<path d="M12 0C5.37282 0 0 5.37211 0 12C0 18.6279 5.37282 24 12 24C18.6272 24 24 18.6272 24 12C24 5.37283 18.6272 0 12 0ZM12 22.4592C10.1145 22.4592 8.58589 21.1998 8.58589 19.646H15.4141C15.4141 21.1991 13.8848 22.4592 12 22.4592ZM17.6392 18.7148H6.35936V16.6685H17.632V18.7148H17.6392ZM17.599 15.6166H6.39239L6.2811 15.4873C5.12655 14.0851 4.85442 13.3534 4.59091 12.6082C4.58661 12.5837 5.99102 12.8954 6.9869 13.1194C7.40555 13.2133 7.82616 13.2982 8.24843 13.3743C7.52899 12.5313 7.10178 11.4593 7.10178 10.3637C7.10178 7.95836 8.94704 5.85604 8.28074 4.15724C8.92838 4.20966 9.62125 5.52432 9.66792 7.57997C10.3572 6.62861 10.6444 4.89033 10.6444 3.82481C10.6444 2.72123 11.3717 1.4396 12.0984 1.3958C11.45 2.46419 12.2664 3.38036 12.9916 5.65213C13.2644 6.50655 13.2285 7.94256 13.4389 8.85227C13.5085 6.96033 13.8338 4.1996 15.0343 3.24753C14.5051 4.4466 15.1133 5.94938 15.5283 6.67097C16.1989 7.83558 16.6053 8.71729 16.6053 10.3874C16.6053 11.5075 16.1924 12.56 15.4952 13.3836C16.2879 13.235 16.835 13.1007 16.835 13.1007L19.4084 12.5981C19.4084 12.5981 19.035 14.1346 17.5976 15.6166H17.599Z" fill="#FB755A"/>
</svg>
