<svg width="30" height="30" viewBox="0 0 30 30" fill="none" xmlns="http://www.w3.org/2000/svg">
<circle cx="15" cy="15" r="15" fill="#393939"/>
<path d="M21.7152 7.82904C21.6803 7.69686 21.6107 7.57628 21.5136 7.47963C21.4166 7.38297 21.2955 7.3137 21.1627 7.27888C19.5729 6.86769 17.8987 6.91198 16.333 7.40664C14.7674 7.9013 13.3738 8.82623 12.3129 10.0749L11.4488 11.0966L9.43 10.6115C8.93922 10.4412 8.40309 10.4534 7.92064 10.6459C7.43819 10.8385 7.042 11.1983 6.80524 11.6591L5.10006 14.6688C5.04031 14.7742 5.00631 14.8921 5.0008 15.013C4.99529 15.134 5.01843 15.2545 5.06834 15.3649C5.11826 15.4752 5.19355 15.5724 5.28814 15.6484C5.38272 15.7244 5.49395 15.7773 5.61282 15.8026L7.99426 16.3109C7.79252 16.9224 7.64848 17.5513 7.56399 18.1894C7.54867 18.3066 7.5606 18.4258 7.59885 18.5377C7.6371 18.6496 7.70065 18.7513 7.78461 18.8349L10.1872 21.2273C10.2592 21.299 10.3446 21.3559 10.4386 21.3947C10.5326 21.4335 10.6334 21.4534 10.7352 21.4534C10.7575 21.4534 10.7798 21.4523 10.8025 21.4504C11.4577 21.3918 12.1049 21.265 12.7335 21.0723L13.2324 23.3899C13.2579 23.5083 13.311 23.619 13.3874 23.7131C13.4637 23.8073 13.5613 23.8822 13.6721 23.9319C13.7829 23.9816 13.9039 24.0047 14.0254 23.9992C14.1468 23.9938 14.2652 23.96 14.3711 23.9005L17.3977 22.2007C17.8237 21.9429 18.1565 21.5571 18.348 21.0989C18.5395 20.6406 18.5799 20.1337 18.4634 19.6511L17.9451 17.5219L18.9039 16.644C20.1626 15.5905 21.095 14.2028 21.5927 12.6423C22.0904 11.0818 22.1329 9.41265 21.7152 7.82904ZM6.96759 14.5131L8.17363 12.3833C8.24854 12.2387 8.37617 12.1282 8.53034 12.0743C8.6845 12.0204 8.85353 12.0273 9.00276 12.0935L10.3338 12.4147L9.83002 13.0104C9.35242 13.5803 8.93935 14.201 8.59827 14.8611L6.96759 14.5131ZM16.6322 20.8584L14.5274 22.0405L14.1945 20.4935C14.8693 20.1584 15.4979 19.7382 16.065 19.2433L16.6412 18.7157L16.9539 20.0004C16.9944 20.159 16.9854 20.3262 16.9279 20.4795C16.8704 20.6329 16.7672 20.7651 16.6322 20.8584ZM17.8833 15.4831L15.0277 18.0964C13.8974 19.0697 12.5032 19.6884 11.0205 19.8746L9.15716 18.0191C9.40743 16.5389 10.0498 15.152 11.0179 14.0015L12.3186 12.4636C12.3403 12.4411 12.3605 12.4172 12.3792 12.392L13.4913 11.0773C14.3135 10.1102 15.3788 9.37775 16.5783 8.95472C17.7778 8.53168 19.0686 8.43321 20.3188 8.66936C20.5617 9.91819 20.4639 11.209 20.0355 12.4074C19.6072 13.6058 18.864 14.6679 17.8833 15.4831ZM17.168 10.7263C16.938 10.7263 16.7133 10.7942 16.5221 10.9214C16.3309 11.0486 16.1819 11.2294 16.0939 11.4409C16.0059 11.6524 15.9829 11.8852 16.0278 12.1097C16.0726 12.3343 16.1833 12.5406 16.3459 12.7025C16.5085 12.8643 16.7156 12.9746 16.9412 13.0193C17.1667 13.0639 17.4004 13.041 17.6128 12.9534C17.8253 12.8658 18.0068 12.7174 18.1346 12.527C18.2623 12.3367 18.3305 12.1129 18.3305 11.8839C18.3305 11.7319 18.3004 11.5813 18.242 11.4409C18.1836 11.3004 18.0979 11.1728 17.99 11.0653C17.882 10.9578 17.7539 10.8726 17.6128 10.8144C17.4718 10.7562 17.3206 10.7263 17.1679 10.7263L17.168 10.7263Z" fill="#F58B1C"/>
</svg>
