<svg width="37" height="42" viewBox="0 0 37 42" fill="none" xmlns="http://www.w3.org/2000/svg">
<path d="M1 3.61667C1 2.92268 1.27567 2.25732 1.76639 1.7666C2.25711 1.27588 2.92268 1 3.61667 1H32.4C33.094 1 33.7596 1.27588 34.2503 1.7666C34.741 2.25732 35.0167 2.92268 35.0167 3.61667V37.6333C35.0167 38.3273 34.741 38.9927 34.2503 39.4834C33.7596 39.9741 33.094 40.25 32.4 40.25H3.61667C2.92268 40.25 2.25711 39.9741 1.76639 39.4834C1.27567 38.9927 1 38.3273 1 37.6333V3.61667Z" stroke="#D5850E" stroke-width="2" stroke-linecap="round" stroke-linejoin="round"/>
<path d="M11.8501 11.9028C13.5324 13.634 15.7002 14.8144 18.0672 15.2878C20.4343 15.7612 22.8892 15.5054 25.1079 14.5544" stroke="#D5850E" stroke-width="2" stroke-linecap="round" stroke-linejoin="round"/>
<path d="M18.0085 22.701C19.4265 22.701 20.8127 22.2806 21.9917 21.4927C23.1708 20.7049 24.0897 19.5852 24.6324 18.2752C25.175 16.9651 25.317 15.5233 25.0404 14.1325C24.7637 12.7417 24.0809 11.4645 23.0782 10.4618C22.0755 9.45908 20.798 8.77635 19.4072 8.4997C18.0165 8.22306 16.5749 8.36505 15.2648 8.90771C13.9547 9.45036 12.8349 10.3692 12.0471 11.5482C11.2593 12.7273 10.8389 14.1135 10.8389 15.5316C10.8389 17.4331 11.5942 19.2568 12.9388 20.6014C14.2834 21.9459 16.107 22.701 18.0085 22.701V22.701Z" stroke="#D5850E" stroke-width="2" stroke-linecap="round" stroke-linejoin="round"/>
<path d="M29.7834 32.8361C28.6535 30.6921 26.9597 28.8974 24.8846 27.6454C22.8095 26.3934 20.4319 25.7314 18.0084 25.7314C15.5849 25.7314 13.2073 26.3934 11.1322 27.6454C9.05712 28.8974 7.36331 30.6921 6.2334 32.8361" stroke="#D5850E" stroke-width="2" stroke-linecap="round" stroke-linejoin="round"/>
</svg>
