<svg width="26" height="27" viewBox="0 0 26 27" fill="none" xmlns="http://www.w3.org/2000/svg">
<g opacity="0.5">
<path d="M1 25.1561L7.97851 19.4659C8.62268 18.9291 9.48157 18.7144 10.3405 18.8217L15.6012 19.3585C16.0306 19.3585 16.4601 19.3585 16.7822 19.2512L25.049 16.9966" stroke="#17171C" stroke-width="1.70019" stroke-linecap="round" stroke-linejoin="round"/>
<path d="M1 18.6079L8.30059 14.206C8.8374 13.8839 9.37421 13.7766 9.91102 13.7766H15.6012C16.0306 13.7766 16.5674 13.6692 16.8895 13.4545L25.049 9.8042" stroke="#17171C" stroke-width="1.70019" stroke-linecap="round" stroke-linejoin="round"/>
<path d="M1.00146 12.1656L9.69776 7.87115C10.3419 7.54906 11.0935 7.4417 11.845 7.65642L16.2468 8.62268C17.2131 8.8374 18.2867 8.62268 19.0382 7.87115L25.0505 2.50306V25.049H1.00146V1" stroke="#17171C" stroke-width="1.70019" stroke-linecap="round" stroke-linejoin="round"/>
</g>
</svg>
