<svg width="42" height="42" viewBox="0 0 42 42" fill="none" xmlns="http://www.w3.org/2000/svg">
<path d="M21.0002 22.3334C23.1098 22.3334 25.1722 21.7077 26.9263 20.5357C28.6804 19.3636 30.0476 17.6978 30.8549 15.7488C31.6622 13.7997 31.8735 11.6547 31.4619 9.58556C31.0503 7.51643 30.0344 5.61594 28.5427 4.12418C27.0509 2.63242 25.1503 1.61648 23.0811 1.20491C21.012 0.793332 18.8673 1.00478 16.9182 1.81211C14.9691 2.61945 13.3032 3.98638 12.1311 5.7405C10.9591 7.49463 10.3335 9.55706 10.3335 11.6667C10.3335 14.4957 11.4573 17.2089 13.4577 19.2093C15.4581 21.2097 18.1712 22.3334 21.0002 22.3334Z" stroke="#EF5B3E" stroke-width="2" stroke-linecap="round" stroke-linejoin="round"/>
<path d="M10.3335 11.6667H31.6669" stroke="#EF5B3E" stroke-width="2" stroke-linecap="round" stroke-linejoin="round"/>
<path d="M21 22.3334C23.2045 22.3334 25 17.5511 25 11.6667C25 5.78223 23.2222 1 21 1C18.7778 1 17 5.78223 17 11.6667C17 17.5511 18.7956 22.3334 21 22.3334Z" stroke="#EF5B3E" stroke-width="2" stroke-linecap="round" stroke-linejoin="round"/>
<path d="M8.55576 34.3333C9.482 34.3368 10.3884 34.0653 11.16 33.5529C11.9316 33.0405 12.5337 32.3103 12.8897 31.4553C13.2458 30.6002 13.3399 29.6586 13.1601 28.75C12.9803 27.8413 12.5346 27.0065 11.8796 26.3515C11.2246 25.6966 10.3899 25.251 9.48132 25.0711C8.5727 24.8913 7.63109 24.9855 6.77602 25.3415C5.92096 25.6976 5.19093 26.2995 4.67853 27.0711C4.16613 27.8428 3.89447 28.7491 3.89798 29.6753C3.90267 30.9092 4.39491 32.0915 5.2674 32.9639C6.13989 33.8364 7.32188 34.3286 8.55576 34.3333V34.3333Z" stroke="#EF5B3E" stroke-width="2" stroke-linecap="round" stroke-linejoin="round"/>
<path d="M16.0223 41C15.4742 39.4457 14.4573 38.0996 13.112 37.1476C11.7668 36.1955 10.1592 35.6844 8.51113 35.6844C6.86302 35.6844 5.2555 36.1955 3.91021 37.1476C2.56492 38.0996 1.5481 39.4457 1 41" stroke="#EF5B3E" stroke-width="2" stroke-linecap="round" stroke-linejoin="round"/>
<path d="M33.4451 34.3333C34.3706 34.3333 35.2753 34.0588 36.0446 33.5442C36.8139 33.0297 37.4131 32.2981 37.7665 31.4427C38.1198 30.5873 38.2114 29.6466 38.0295 28.7391C37.8477 27.8317 37.4006 26.9986 36.7449 26.3454C36.0893 25.6923 35.2545 25.2482 34.3463 25.0698C33.4382 24.8914 32.4976 24.9867 31.6435 25.3433C30.7895 25.6999 30.0605 26.3017 29.5489 27.0729C29.0373 27.8441 28.766 28.7498 28.7696 29.6753C28.7696 30.2885 28.8906 30.8959 29.1258 31.4622C29.361 32.0285 29.7057 32.5425 30.1401 32.9752C30.5745 33.408 31.09 33.7509 31.6572 33.9839C32.2244 34.2169 32.832 34.3356 33.4451 34.3333V34.3333Z" stroke="#EF5B3E" stroke-width="2" stroke-linecap="round" stroke-linejoin="round"/>
<path d="M41.0003 41C40.4522 39.4457 39.4354 38.0996 38.0901 37.1476C36.7448 36.1955 35.1373 35.6844 33.4892 35.6844C31.841 35.6844 30.2335 36.1955 28.8882 37.1476C27.543 38.0996 26.5261 39.4457 25.978 41" stroke="#EF5B3E" stroke-width="2" stroke-linecap="round" stroke-linejoin="round"/>
</svg>
