<svg xmlns="http://www.w3.org/2000/svg" width="221.095" height="195.932" viewBox="0 0 221.095 195.932">
  <g id="Group_510" data-name="Group 510" transform="translate(-1256.96 -2091)">
    <ellipse id="Ellipse_570" data-name="Ellipse 570" cx="56.136" cy="56.136" rx="56.136" ry="56.136" transform="translate(1365.782 2131.097)" fill="#edf4ff"/>
    <path id="Path_846" data-name="Path 846" d="M912.541,1926.994a7.255,7.255,0,1,1,7.255-7.255A7.263,7.263,0,0,1,912.541,1926.994Z" transform="translate(351.674 292.47)" fill="#00e5ba"/>
    <path id="Path_841" data-name="Path 841" d="M1440.3,1984.77h-5.639a27.123,27.123,0,0,0-2.31-5.573l3.988-3.985a4.543,4.543,0,0,0,0-6.424v0l-4.286-4.282a4.541,4.541,0,0,0-6.423,0l-3.992,3.988a26.963,26.963,0,0,0-5.566-2.307v-5.642a4.542,4.542,0,0,0-4.542-4.542h-6.057a4.543,4.543,0,0,0-4.543,4.542v5.642a27.012,27.012,0,0,0-5.572,2.307l-3.988-3.988a4.542,4.542,0,0,0-6.424,0l-4.285,4.282a4.543,4.543,0,0,0,0,6.424l0,0,3.988,3.988a27.1,27.1,0,0,0-2.307,5.57h-5.639a4.542,4.542,0,0,0-4.542,4.542v6.057a4.542,4.542,0,0,0,4.542,4.542h5.639a27.118,27.118,0,0,0,2.307,5.573l-3.992,3.988a4.542,4.542,0,0,0,0,6.424l0,0,4.282,4.282a4.679,4.679,0,0,0,6.426,0l3.992-3.992a27.012,27.012,0,0,0,5.572,2.313v5.636a4.543,4.543,0,0,0,4.543,4.543h6.057a4.542,4.542,0,0,0,4.542-4.543V2018.5a27.215,27.215,0,0,0,5.57-2.311l3.991,3.991a4.542,4.542,0,0,0,6.424,0l4.282-4.281a4.543,4.543,0,0,0,0-6.424v0l-3.988-3.991a26.955,26.955,0,0,0,2.31-5.573h5.639a4.542,4.542,0,0,0,4.543-4.542v-6.057A4.543,4.543,0,0,0,1440.3,1984.77Zm-31.8,22.712a15.142,15.142,0,1,1,15.142-15.142A15.141,15.141,0,0,1,1408.5,2007.482Z" transform="translate(-4.532 255.161)" fill="#00e5ba"/>
    <ellipse id="Ellipse_581" data-name="Ellipse 581" cx="36.34" cy="36.34" rx="36.34" ry="36.34" transform="translate(1273.1 2119.266)" fill="#5794f2"/>
    <g id="Group_342" data-name="Group 342" transform="translate(1297.331 2143.497)">
      <line id="Line_6" data-name="Line 6" x2="22.548" transform="translate(0 11.274)" fill="none" stroke="#fff" stroke-linecap="round" stroke-linejoin="round" stroke-width="7"/>
      <line id="Line_7" data-name="Line 7" y2="22.548" transform="translate(11.274)" fill="none" stroke="#fff" stroke-linecap="round" stroke-linejoin="round" stroke-width="6"/>
    </g>
    <g id="Group_344" data-name="Group 344" transform="translate(1273.1 2119.266)">
      <path id="Path_842" data-name="Path 842" d="M1421.032,1862.854l-15.353,15.353H1391.37V1863.9l15.353-15.353a28.617,28.617,0,0,0-37.861,37.861l-69.456,69.456a28.617,28.617,0,0,0-37.861,37.861l15.353-15.353h14.309v14.309l-15.353,15.353a28.617,28.617,0,0,0,37.861-37.861l69.456-69.456a28.617,28.617,0,0,0,37.861-37.861Z" transform="translate(-1259.009 -1846)" fill="none" stroke="#072d67" stroke-linecap="round" stroke-linejoin="round" stroke-width="6"/>
    </g>
    <path id="Path_847" data-name="Path 847" d="M257.959,2215.078l-15.306-12.37,15.306-11.224Z" transform="translate(1105.944 -100.484)" fill="#fade2a"/>
  </g>
</svg>
