<svg width="24" height="24" viewBox="0 0 24 24" fill="none" xmlns="http://www.w3.org/2000/svg">
<g clip-path="url(#clip0_24005_648)">
<path d="M0.799951 5.19995C0.799951 4.39995 1.49995 3.69995 2.29995 3.69995H21.7999C22.5999 3.69995 23.2999 4.39995 23.2999 5.19995V21.7C23.2999 22.5 22.5999 23.2 21.7999 23.2H2.19995C1.39995 23.2 0.699951 22.5 0.699951 21.7V5.19995H0.799951Z" stroke="#FD9800" stroke-width="1.5" stroke-linecap="round" stroke-linejoin="round"/>
<path d="M0.800049 9.80005H23.3" stroke="#FD9800" stroke-width="1.5" stroke-linecap="round" stroke-linejoin="round"/>
<path d="M6.80005 6.00005V0.800049" stroke="#FD9800" stroke-width="1.5" stroke-linecap="round" stroke-linejoin="round"/>
<path d="M17.2 6.00005V0.800049" stroke="#FD9800" stroke-width="1.5" stroke-linecap="round" stroke-linejoin="round"/>
<path d="M5.59995 13.5C5.39995 13.5 5.19995 13.7 5.19995 13.9C5.19995 14.1 5.39995 14.3 5.59995 14.3C5.79995 14.3 5.99995 14.1 5.99995 13.9C5.99995 13.7 5.79995 13.5 5.59995 13.5Z" fill="#FD9800" stroke="#FD9800" stroke-width="1.5" stroke-linecap="round" stroke-linejoin="round"/>
<path d="M5.59995 18.8C5.39995 18.8 5.19995 19.0001 5.19995 19.2001C5.19995 19.4001 5.39995 19.6 5.59995 19.6C5.79995 19.6 5.99995 19.4001 5.99995 19.2001C5.99995 19.0001 5.79995 18.8 5.59995 18.8Z" fill="#FD9800" stroke="#FD9800" stroke-width="1.5" stroke-linecap="round" stroke-linejoin="round"/>
<path d="M11.9999 13.5C11.7999 13.5 11.5999 13.7 11.5999 13.9C11.5999 14.1 11.7999 14.3 11.9999 14.3C12.1999 14.3 12.3999 14.1 12.3999 13.9C12.3999 13.7 12.1999 13.5 11.9999 13.5Z" fill="#FD9800" stroke="#FD9800" stroke-width="1.5" stroke-linecap="round" stroke-linejoin="round"/>
<path d="M11.9999 18.8C11.7999 18.8 11.5999 19.0001 11.5999 19.2001C11.5999 19.4001 11.7999 19.6 11.9999 19.6C12.1999 19.6 12.3999 19.4001 12.3999 19.2001C12.3999 19.0001 12.1999 18.8 11.9999 18.8Z" fill="#FD9800" stroke="#FD9800" stroke-width="1.5" stroke-linecap="round" stroke-linejoin="round"/>
<path d="M18.4 13.5C18.2 13.5 18 13.7 18 13.9C18 14.1 18.2 14.3 18.4 14.3C18.6 14.3 18.8 14.1 18.8 13.9C18.8 13.7 18.6 13.5 18.4 13.5Z" fill="#FD9800" stroke="#FD9800" stroke-width="1.5" stroke-linecap="round" stroke-linejoin="round"/>
<path d="M18.4 18.8C18.2 18.8 18 19.0001 18 19.2001C18 19.4001 18.2 19.6 18.4 19.6C18.6 19.6 18.8 19.4001 18.8 19.2001C18.8 19.0001 18.6 18.8 18.4 18.8Z" fill="#FD9800" stroke="#FD9800" stroke-width="1.5" stroke-linecap="round" stroke-linejoin="round"/>
</g>
<defs>
<clipPath id="clip0_24005_648">
<rect width="24" height="24" fill="white"/>
</clipPath>
</defs>
</svg>
