<svg xmlns="http://www.w3.org/2000/svg" width="40.574" height="40.574" viewBox="0 0 40.574 40.574"><g transform="translate(0 0)"><path d="M1364.807,660.97h0v22.316h0a11.158,11.158,0,0,0,0-22.316Z" transform="translate(-1344.52 -651.841)" fill="#fbca0a"/><path d="M1264.077,633.19a2.029,2.029,0,0,0-2.029-2.029h-2.029a2.029,2.029,0,1,0,0,4.057h2.029A2.029,2.029,0,0,0,1264.077,633.19Zm1.3,10.144-1.441,1.44a2.023,2.023,0,0,0,2.861,2.861l1.44-1.44a2.029,2.029,0,0,0-2.86-2.86Zm12.9-24.345a2.029,2.029,0,0,0,2.029-2.029v-2.029a2.029,2.029,0,1,0-4.057,0v2.029A2.029,2.029,0,0,0,1278.278,618.989Zm11.483,4.747a2.028,2.028,0,0,0,1.42-.588l1.44-1.44a2.029,2.029,0,1,0-2.86-2.86l-1.339,1.44a2.021,2.021,0,0,0,1.339,3.449Zm-24.345-.588a2.023,2.023,0,1,0,2.86-2.86l-1.44-1.44a2.037,2.037,0,0,0-2.9,2.86Zm31.121,8.014h-2.029a2.029,2.029,0,1,0,0,4.057h2.029a2.029,2.029,0,1,0,0-4.057Zm-5.356,12.172a2.029,2.029,0,0,0-2.759,2.759l1.441,1.44a2.023,2.023,0,0,0,2.86-2.861Zm-12.9-21.3a11.158,11.158,0,1,0,11.158,11.158A11.158,11.158,0,0,0,1278.278,622.032Zm0,18.259a7.1,7.1,0,1,1,7.1-7.1A7.1,7.1,0,0,1,1278.278,640.291Zm0,7.1a2.029,2.029,0,0,0-2.029,2.029v2.029a2.029,2.029,0,1,0,4.057,0V649.42A2.029,2.029,0,0,0,1278.278,647.391Z" transform="translate(-1257.991 -612.903)" fill="#1857b8"/></g></svg>