<svg xmlns="http://www.w3.org/2000/svg" width="38.782" height="38.938" viewBox="0 0 38.782 38.938"><g transform="translate(-1274.312 -5180.535)"><g transform="translate(1274.312 5180.535)"><path d="M491.815,625.967V615.882a1.947,1.947,0,0,0-3.894,0v10.085a5.841,5.841,0,0,0,0,10.981v13.979a1.947,1.947,0,0,0,3.894,0V636.947a5.841,5.841,0,0,0,0-10.981Zm-1.947,7.437a1.947,1.947,0,1,1,1.947-1.947A1.947,1.947,0,0,1,489.868,633.4Zm-11.681,4.244V615.882a1.947,1.947,0,1,0-3.894,0v21.766c-3.032,1.1-1.626,10.39,0,10.981v2.3a1.947,1.947,0,0,0,3.894,0v-2.3C481.219,647.528,479.813,638.238,478.187,637.648Zm-1.947,7.437a1.947,1.947,0,1,1,1.947-1.947A1.947,1.947,0,0,1,476.24,645.085Zm-11.681-23.012v-6.191a1.947,1.947,0,0,0-3.894,0v6.191c-3.032,1.1-1.626,10.39,0,10.98v17.872a1.947,1.947,0,0,0,3.894,0V633.053C467.591,631.953,466.185,622.663,464.559,622.073Zm-1.947,7.437a1.947,1.947,0,1,1,1.947-1.947A1.947,1.947,0,0,1,462.612,629.51Z" transform="translate(-456.883 -613.935)" fill="#1857b8"/><path d="M453.6,657.443a5.73,5.73,0,1,0,5.73,5.73A5.73,5.73,0,0,0,453.6,657.443Zm0,7.677a1.947,1.947,0,1,1,1.947-1.947A1.947,1.947,0,0,1,453.6,665.12Z" transform="translate(-447.875 -649.545)" fill="#fbca0a"/><path d="M603.6,679.443a5.73,5.73,0,1,0,5.73,5.73A5.73,5.73,0,0,0,603.6,679.443Zm0,7.677a1.947,1.947,0,1,1,1.947-1.947A1.947,1.947,0,0,1,603.6,687.12Z" transform="translate(-570.645 -667.551)" fill="#1857b8"/><path d="M528.6,743.443a5.73,5.73,0,1,0,5.73,5.73A5.73,5.73,0,0,0,528.6,743.443Zm0,7.677a1.947,1.947,0,1,1,1.947-1.947A1.947,1.947,0,0,1,528.6,751.12Z" transform="translate(-509.26 -719.932)" fill="#fa6400"/></g></g></svg>