<?xml version="1.0" encoding="utf-8"?>
<!-- Generator: Adobe Illustrator 25.0.0, SVG Export Plug-In . SVG Version: 6.00 Build 0)  -->
<svg version="1.1" id="Layer_1" xmlns="http://www.w3.org/2000/svg" xmlns:xlink="http://www.w3.org/1999/xlink" x="0px" y="0px"
	 viewBox="0 0 411 411" style="enable-background:new 0 0 411 411;" xml:space="preserve">
<style type="text/css">
	.st0{fill:none;}
	.st1{fill:none;stroke:#D4E1F4;stroke-width:3;}
	.st2{fill:url(#Ellipse_627-2_3_);}
	.st3{fill:#FFFFFF;}
	.st4{fill:#D4E1F4;}
	.st5{fill:url(#SVGID_1_);}
</style>
<g id="Ellipse_633" transform="translate(502 5951)">
	<circle class="st0" cx="-199.5" cy="-5837.5" r="101.5"/>
	<circle class="st1" cx="-199.5" cy="-5837.5" r="100"/>
</g>
<g transform="matrix(1, 0, 0, 1, 301, 5939)">
	<radialGradient id="Ellipse_627-2_3_" cx="-95.5" cy="-5733.5" r="202.5" gradientUnits="userSpaceOnUse">
		<stop  offset="0.6515" style="stop-color:#D4E1F4"/>
		<stop  offset="1" style="stop-color:#D4E1F4;stop-opacity:0"/>
	</radialGradient>
	<circle id="Ellipse_627-2_2_" class="st2" cx="-95.5" cy="-5733.5" r="202.5"/>
</g>
<g transform="matrix(1, 0, 0, 1, 301, 5939)">
	<circle id="Ellipse_627-2_1_" class="st3" cx="-95.5" cy="-5733.5" r="160.5"/>
</g>
<path id="Path_1220" class="st4" d="M38.7,75.5c0-3.8,3.1-6.8,6.8-6.8l0,0c3.8,0,6.8,3.1,6.8,6.8h8.2c0-8.3-6.7-15-15-15
	s-15,6.7-15,15H38.7z"/>
<g>
	<polygon class="st3" points="199.9,187.6 148.1,164.2 202.5,140.2 256.7,163.8 	"/>
	<polygon class="st3" points="200.5,278.1 142.2,251.7 170.6,201.2 	"/>
	<polygon class="st3" points="205.4,278.3 263.7,252.3 237.1,198.8 	"/>
	
		<linearGradient id="SVGID_1_" gradientUnits="userSpaceOnUse" x1="202.5433" y1="800.5193" x2="202.5433" y2="958.0093" gradientTransform="matrix(1 0 0 1 0 -668)">
		<stop  offset="0" style="stop-color:#F05A28"/>
		<stop  offset="1" style="stop-color:#FBCA0A"/>
	</linearGradient>
	<path class="st5" d="M143.6,169.9l56.3,25c1.6,0.7,3.4,0.7,5,0l56.3-25c3.1-1.4,4.5-5,3.1-8.1c-0.6-1.4-1.7-2.5-3.1-3.1l-56.3-25
		c-1.6-0.7-3.4-0.7-5,0l-56.3,25c-3.1,1.4-4.5,5-3.2,8.1C141,168.2,142.2,169.3,143.6,169.9L143.6,169.9z M183.8,174.1
		c-1.6,0-2.9-1.3-2.9-2.9c0-1.1,0.7-2.1,1.7-2.6l13.7-6.2c1.4-0.7,3.1-0.2,3.8,1.3c0.7,1.4,0.2,3.1-1.3,3.8c-0.1,0-0.1,0.1-0.2,0.1
		l-13.7,6.2C184.7,174,184.2,174.1,183.8,174.1z M238,161.1c0.6,1.4,0,3.1-1.5,3.8l-36,15.9c-0.4,0.2-0.8,0.2-1.2,0.2
		c-1.6,0-2.9-1.3-2.9-2.8c0-1.1,0.7-2.2,1.7-2.6l36-15.9C235.7,159,237.3,159.7,238,161.1z M166.8,161.5l34.9-15.2
		c1.4-0.7,3.1,0,3.8,1.4s0,3.1-1.4,3.8c0,0-0.1,0-0.1,0.1l-34.9,15.2c-1.5,0.6-3.1-0.2-3.7-1.6C164.9,163.7,165.5,162.1,166.8,161.5
		L166.8,161.5z M268.1,248.6L242.5,197c-1.5-3-5.2-4.3-8.3-2.8c-1.3,0.7-2.4,1.8-2.9,3.1L203,265.4c-0.1,0.2-0.2,0.3-0.4,0.3
		s-0.4-0.1-0.4-0.3l-26.1-66.8c-1.2-3.2-4.8-4.7-8-3.5c-1.3,0.5-2.5,1.5-3.1,2.8l-28,50.5c-1.6,3-0.6,6.7,2.4,8.4
		c0.2,0.1,0.3,0.2,0.5,0.3l60.1,26.4c1.6,0.7,3.4,0.7,5,0l60.2-26.4c3.1-1.4,4.5-5,3.1-8.2C268.2,248.7,268.2,248.6,268.1,248.6
		L268.1,248.6z M160,253c0.1,1.6-1.1,2.9-2.7,3c-1.6,0.1-2.9-1.1-3-2.7c0-0.1,0-0.2,0-0.3v-18.1c-0.1-1.6,1.1-2.9,2.7-3
		c1.6-0.1,2.9,1.1,3,2.7c0,0.1,0,0.2,0,0.3V253z M172,258.3c0,1.6-1.3,2.9-2.9,2.9c-1.6,0-2.9-1.3-2.9-2.9v-39.8
		c0-1.6,1.3-2.9,2.9-2.9c1.6,0,2.9,1.3,2.9,2.9l0,0V258.3z M183.9,263.7c0,1.6-1.3,2.9-2.9,2.9c-1.6,0-2.9-1.3-2.9-2.9v-18.2
		c0-1.6,1.3-2.9,2.9-2.9c1.6,0,2.9,1.3,2.9,2.9V263.7z M226.6,263.5c0,1.6-1.3,2.9-2.9,2.9c-1.6,0-2.9-1.3-2.9-2.9v-18.2
		c0-1.6,1.3-2.9,2.9-2.9c1.6,0,2.9,1.3,2.9,2.9V263.5z M238.6,258.2c0,1.6-1.3,2.9-2.9,2.9c-1.6,0-2.9-1.3-2.9-2.9v-40
		c0-1.6,1.3-2.9,2.9-2.9c1.6,0,2.9,1.3,2.9,2.9V258.2z M250.6,253c0,1.6-1.3,2.9-2.9,2.9c-1.6,0-2.9-1.3-2.9-2.9v-18.2
		c0-1.6,1.3-2.9,2.9-2.9c1.6,0,2.9,1.3,2.9,2.9l0,0V253z"/>
</g>
</svg>
