<svg xmlns="http://www.w3.org/2000/svg" width="40.009" height="40.013" viewBox="0 0 40.009 40.013"><path d="M979.726,618.944l-4.861-4.861a2,2,0,0,0-2.821,0l-11.163,11.163a2,2,0,0,0-.58,1.42v4.841a2,2,0,0,0,2,2h4.841a2,2,0,0,0,1.42-.58l11.163-11.163A2,2,0,0,0,979.726,618.944ZM966.3,629.506h-2v-2l9.162-9.162,2,2Z" transform="translate(-940.299 -613.5)" fill="#fa6400"/><path d="M887.5,650.878h0a2,2,0,0,0-2,2,14,14,0,0,1-14,14H860.317l1.28-1.26a2,2,0,0,0,.012-2.829l-.012-.012a14,14,0,0,1,9.9-23.906,2,2,0,0,0,0-4h0a18,18,0,0,0-14,29.248l-3.421,3.341a2.013,2.013,0,0,0,1.421,3.421h16a18,18,0,0,0,18-18A2,2,0,0,0,887.5,650.878Z" transform="translate(-853.498 -630.871)" fill="#1857b8"/></svg>