<svg xmlns="http://www.w3.org/2000/svg" xmlns:xlink="http://www.w3.org/1999/xlink" width="411" height="411" viewBox="0 0 411 411">
  <defs>
    <filter id="Ellipse_627" x="0" y="0" width="411" height="411" filterUnits="userSpaceOnUse">
      <feOffset input="SourceAlpha"/>
      <feGaussianBlur stdDeviation="15" result="blur"/>
      <feFlood flood-color="#e1eaf9"/>
      <feComposite operator="in" in2="blur"/>
      <feComposite in="SourceGraphic"/>
    </filter>
    <linearGradient id="linear-gradient" x1="0.5" y1="1.225" x2="0.5" y2="0.313" gradientUnits="objectBoundingBox">
      <stop offset="0" stop-color="#fff100"/>
      <stop offset="1" stop-color="#f05a28"/>
    </linearGradient>
  </defs>
  <g id="Group_1723" data-name="Group 1723" transform="translate(-301 -5939)">
    <g id="Ellipse_633" data-name="Ellipse 633" transform="translate(502 5951)" fill="none" stroke="#d4e1f4" stroke-width="3">
      <circle cx="101.5" cy="101.5" r="101.5" stroke="none"/>
      <circle cx="101.5" cy="101.5" r="100" fill="none"/>
    </g>
    <g transform="matrix(1, 0, 0, 1, 301, 5939)" filter="url(#Ellipse_627)">
      <circle id="Ellipse_627-2" data-name="Ellipse 627" cx="160.5" cy="160.5" r="160.5" transform="translate(45 45)" fill="#fff"/>
    </g>
    <path id="Path_1220" data-name="Path 1220" d="M1296.265-254.523a6.817,6.817,0,0,1-6.818-6.818,6.818,6.818,0,0,1,6.818-6.818v-8.182a15.017,15.017,0,0,0-15,15,15.017,15.017,0,0,0,15,15Z" transform="translate(85.159 4718.235) rotate(90)" fill="#d4e1f4"/>
    <path id="Path_1221" data-name="Path 1221" d="M-6776.92-7298.2v-23l19.55,11.5Z" transform="translate(7412.92 13605.199)" fill="#ff9830"/>
    <g id="grafana_enterprise" transform="translate(488.7 6059.3)">
      <g id="Group_1297" data-name="Group 1297">
        <path id="Path_1270" data-name="Path 1270" d="M-29,132.2a14.472,14.472,0,0,1-14.4,14.1c-8.2,0-14.3-6.6-14.3-14.7A14.724,14.724,0,0,1-43,116.9a15.153,15.153,0,0,1,10.2,4.4l-2.3,2.9a12.49,12.49,0,0,0-7.9-3.4,10.819,10.819,0,0,0-10.8,10.8,10.486,10.486,0,0,0,10.4,10.8,10.41,10.41,0,0,0,10.2-8.8H-45.1v-3.5H-29Z" fill="#383838"/>
        <path id="Path_1271" data-name="Path 1271" d="M-15.4,130.2h-2.2a4.439,4.439,0,0,0-4.4,4.4V146h-3.9V126.4h3.2V128a6.3,6.3,0,0,1,4.6-1.6h4.2Z" fill="#383838"/>
        <path id="Path_1272" data-name="Path 1272" d="M6,146H2.6v-2.5a9.581,9.581,0,0,1-10.7,1.9A10.145,10.145,0,0,1-14,138a10.041,10.041,0,0,1,9.9-11.9,9.532,9.532,0,0,1,6.7,2.8v-2.5H6Zm-4-8.3a6.174,6.174,0,0,0-6-7.6,6.124,6.124,0,0,0-6.1,6.1,6.152,6.152,0,0,0,7.2,6.1A6.385,6.385,0,0,0,2,137.7Z" fill="#383838"/>
        <path id="Path_1273" data-name="Path 1273" d="M13.8,125.4v1.1H20v3.4H13.8V146H10V125.5c0-4.3,3.1-6.8,7-6.8h4.7l-1.6,3.7H17A3,3,0,0,0,13.8,125.4Z" fill="#383838"/>
        <path id="Path_1274" data-name="Path 1274" d="M40.8,146H37.5v-2.5a9.581,9.581,0,0,1-10.7,1.9,10.145,10.145,0,0,1-5.9-7.4,10.041,10.041,0,0,1,9.9-11.9,9.532,9.532,0,0,1,6.7,2.8v-2.5h3.4V146Zm-4-8.3a6.136,6.136,0,1,0-4.9,4.6A6.244,6.244,0,0,0,36.8,137.7Z" fill="#383838"/>
        <path id="Path_1275" data-name="Path 1275" d="M61.7,134.5V146H57.8V134.4a4.439,4.439,0,0,0-4.4-4.4,4.375,4.375,0,0,0-4.4,4.4V146H45.1V126.4h3.2v1.7a7.69,7.69,0,0,1,5.2-2A8.345,8.345,0,0,1,61.7,134.5Z" fill="#383838"/>
        <path id="Path_1276" data-name="Path 1276" d="M84.7,146H81.4v-2.5a9.581,9.581,0,0,1-10.7,1.9,10.145,10.145,0,0,1-5.9-7.4,10.041,10.041,0,0,1,9.9-11.9,9.532,9.532,0,0,1,6.7,2.8v-2.5h3.4V146Zm-4-8.3a6.136,6.136,0,1,0-4.9,4.6A6.244,6.244,0,0,0,80.7,137.7Z" fill="#383838"/>
      </g>
      <g id="Group_1298" data-name="Group 1298">
        <path id="Path_1277" data-name="Path 1277" d="M-31,160.3a3.9,3.9,0,0,0,3.9,3.5,5.022,5.022,0,0,0,3.5-1.6l.9,1.1a5.818,5.818,0,0,1-4.4,2,5.482,5.482,0,0,1-5.4-5.6,5.209,5.209,0,0,1,5.3-5.3c3,0,5.3,2.4,5.3,5.9H-31Zm7.4-1.3a3.843,3.843,0,0,0-3.7-3.3A3.74,3.74,0,0,0-31,159Z" fill="#383838"/>
        <path id="Path_1278" data-name="Path 1278" d="M-10.9,158.7V165h-1.5v-6.3a2.9,2.9,0,0,0-2.9-2.9,2.9,2.9,0,0,0-2.9,2.9V165h-1.5V154.4h1.3v1.1a4.387,4.387,0,0,1,3.1-1.3A4.6,4.6,0,0,1-10.9,158.7Z" fill="#383838"/>
        <path id="Path_1279" data-name="Path 1279" d="M-8.4,161.6V151.1h1.5v3.4h3.7v1.3H-6.9v5.8a2.006,2.006,0,0,0,2,2h1.7v1.5H-4.9A3.418,3.418,0,0,1-8.4,161.6Z" fill="#383838"/>
        <path id="Path_1280" data-name="Path 1280" d="M-.5,160.3a3.9,3.9,0,0,0,3.9,3.5,5.022,5.022,0,0,0,3.5-1.6l.9,1.1a5.818,5.818,0,0,1-4.4,2A5.482,5.482,0,0,1-2,159.7a5.209,5.209,0,0,1,5.3-5.3c3,0,5.3,2.4,5.3,5.9H-.5ZM6.9,159a3.843,3.843,0,0,0-3.7-3.3A3.74,3.74,0,0,0-.5,159Z" fill="#383838"/>
        <path id="Path_1281" data-name="Path 1281" d="M16.2,155.9H15.1a2.679,2.679,0,0,0-2.9,2.7v6.5H10.7V154.5H12v1.1a3.465,3.465,0,0,1,2.8-1.1h1.4Z" fill="#383838"/>
        <path id="Path_1282" data-name="Path 1282" d="M19.5,163.5v5.8H18V154.5h1.3v1.8a5.4,5.4,0,1,1,4.1,8.9A5.22,5.22,0,0,1,19.5,163.5Zm0-3.7a4,4,0,0,0,8,0,3.927,3.927,0,0,0-4-3.9A3.865,3.865,0,0,0,19.5,159.8Z" fill="#383838"/>
        <path id="Path_1283" data-name="Path 1283" d="M36.7,155.9H35.6a2.679,2.679,0,0,0-2.9,2.7v6.5H31.2V154.5h1.3v1.1a3.465,3.465,0,0,1,2.8-1.1h1.4Z" fill="#383838"/>
        <path id="Path_1284" data-name="Path 1284" d="M40.4,152.5a.945.945,0,0,1-1,1,1,1,0,0,1-1-1,1.075,1.075,0,0,1,1-1A1,1,0,0,1,40.4,152.5Zm-.2,12.6H38.7V154.5h1.5Z" fill="#383838"/>
        <path id="Path_1285" data-name="Path 1285" d="M48.9,155.2l-.7,1.1a4.321,4.321,0,0,0-2.2-.7c-1.1,0-2.1.5-2.1,1.4s1.1,1.3,2.1,1.7c1.7.6,3.2,1.8,3.2,3.4a3.254,3.254,0,0,1-3.4,3.1,7.045,7.045,0,0,1-3.4-1l.6-1.3a5.715,5.715,0,0,0,2.7.8,1.774,1.774,0,0,0,2-1.7c0-.9-.8-1.4-2.4-2.1-1.2-.5-2.8-1.1-2.8-2.8s1.5-2.8,3.4-2.8A6.261,6.261,0,0,1,48.9,155.2Z" fill="#383838"/>
        <path id="Path_1286" data-name="Path 1286" d="M52.5,160.3a3.9,3.9,0,0,0,3.9,3.5,5.022,5.022,0,0,0,3.5-1.6l.9,1.1a5.818,5.818,0,0,1-4.4,2,5.482,5.482,0,0,1-5.4-5.6,5.209,5.209,0,0,1,5.3-5.3c3,0,5.3,2.4,5.3,5.9H52.5ZM60,159a3.843,3.843,0,0,0-3.7-3.3,3.74,3.74,0,0,0-3.7,3.3Z" fill="#383838"/>
      </g>
      <path id="Path_1287" data-name="Path 1287" d="M65.2,50.6a46.456,46.456,0,0,0-1.1-6.5,44.631,44.631,0,0,0-2.9-7.8A43.406,43.406,0,0,0,55.8,28c-.9-1.1-1.9-2.1-2.9-3.2C54.5,18.5,51,13,51,13a17.2,17.2,0,0,0-11.3,2.9c-.2-.1-.5-.2-.7-.3-1-.4-2.1-.8-3.2-1.2-1.1-.3-2.2-.7-3.3-.9-1.1-.3-2.3-.5-3.5-.7-.2,0-.4-.1-.6-.1A21.225,21.225,0,0,0,18.2.7C9.5,6.3,7.8,13.8,7.8,13.8a1,1,0,0,1-.1.4c-.5.1-.9.3-1.4.4a14.58,14.58,0,0,0-1.9.7c-.6.3-1.3.5-1.9.8C1.2,16.7,0,17.3-1.3,18c-1.2.7-2.4,1.4-3.5,2.2a1.238,1.238,0,0,1-.3-.2,29.057,29.057,0,0,0-22.1.9c-.9,12.5,4.7,20.3,5.8,21.7-.3.8-.5,1.5-.8,2.3a49.862,49.862,0,0,0-1.9,8.7c-.1.4-.1.9-.2,1.3-10.8,5.3-14,16.3-14,16.3,9,10.4,19.6,11,19.6,11h0A45.08,45.08,0,0,0-14.1,89c.7.9,1.5,1.7,2.3,2.6a24.344,24.344,0,0,0,.5,17.3,28.045,28.045,0,0,0,18.1-5.5l3,.9a43.611,43.611,0,0,0,9.4,1.4h4.1c4.7,6.8,13.1,7.7,13.1,7.7,5.9-6.3,6.3-12.4,6.3-13.8h0v-.3h0V99c1.2-.9,2.4-1.8,3.6-2.8A38.682,38.682,0,0,0,52.5,89c.2-.2.3-.5.5-.7a16.314,16.314,0,0,0,11.4-4.2c-1.1-7-5.1-10.4-5.9-11h0l-.1-.1-.1-.1h0l-.1-.1c0-.4.1-.8.1-1.3a17.7,17.7,0,0,0,.1-2.3V66.3a1.268,1.268,0,0,0-.1-.6l-.1-.6-.1-.6c-.1-.8-.3-1.5-.4-2.3a29.629,29.629,0,0,0-3.4-8.4A31.2,31.2,0,0,0,48.6,47a27.521,27.521,0,0,0-7.2-4.6,25.242,25.242,0,0,0-7.9-2.2,26.8,26.8,0,0,0-4-.2h-2c-.7.1-1.4.2-2,.3a22.721,22.721,0,0,0-7.4,2.8A22.416,22.416,0,0,0,12.4,48a20.028,20.028,0,0,0-3.6,6.1,21.658,21.658,0,0,0-1.4,6.5V63a2.2,2.2,0,0,0,.1.8,15.469,15.469,0,0,0,.6,3.1,17.112,17.112,0,0,0,2.7,5.4,15.923,15.923,0,0,0,4,3.8,17.623,17.623,0,0,0,4.6,2.2,12.17,12.17,0,0,0,4.5.6H26a4.331,4.331,0,0,0,.5-.1c.2,0,.3-.1.5-.1.3-.1.7-.2,1-.3.6-.2,1.2-.5,1.8-.7a9.878,9.878,0,0,0,1.5-.9c.1-.1.3-.2.4-.3a1.127,1.127,0,0,0,.2-1.6,1.4,1.4,0,0,0-1.5-.3c-.1.1-.2.1-.4.2a6.944,6.944,0,0,1-1.3.5c-.5.1-1,.3-1.5.4-.3,0-.5.1-.8.1H24.3a.6.6,0,0,1-.4-.1,14.6,14.6,0,0,1-3.4-1,10.623,10.623,0,0,1-3.1-2.1,12.61,12.61,0,0,1-2.5-3.1,10.73,10.73,0,0,1-1.3-3.8,7.412,7.412,0,0,1-.1-2.1V63h0v-.5a4.253,4.253,0,0,1,.2-1.1A14.633,14.633,0,0,1,18,53.3a8.961,8.961,0,0,1,1.9-1.5A11.252,11.252,0,0,1,22,50.6a15.546,15.546,0,0,1,2.3-.8,10.039,10.039,0,0,1,2.4-.4c.4,0,.8-.1,1.2-.1h1.2a20.236,20.236,0,0,1,2.6.4,19.055,19.055,0,0,1,5,1.9,18.2,18.2,0,0,1,9.2,13.1c.1.5.1.9.2,1.4v2.6c0,.5-.1,1-.1,1.5-.1.5-.1,1-.2,1.5l-.3,1.5c-.2,1-.6,1.9-.9,2.9a20.991,20.991,0,0,1-2.9,5.3,23.841,23.841,0,0,1-15.2,9.5,15.263,15.263,0,0,1-3,.3H21.9a8.6,8.6,0,0,1-1.6-.1,34.416,34.416,0,0,1-6.4-1.2,31.317,31.317,0,0,1-6-2.4A32.667,32.667,0,0,1-2,79.3a38.354,38.354,0,0,1-3.5-5.4A32.757,32.757,0,0,1-7.8,68a25.9,25.9,0,0,1-1-6.2V59.7h0v-1a18.164,18.164,0,0,1,.3-3.2c.1-1.1.3-2.1.5-3.2s.5-2.1.8-3.2a38.9,38.9,0,0,1,2.2-6,35.469,35.469,0,0,1,6.8-9.9A20,20,0,0,1,4,31.3a11.316,11.316,0,0,1,1.8-1.4,20.13,20.13,0,0,1,2.5-1.4c.4-.2.8-.4,1.3-.6a4.875,4.875,0,0,1,.7-.3,4.875,4.875,0,0,1,.7-.3c.9-.4,1.8-.7,2.7-1,.2-.1.5-.1.7-.2s.5-.1.7-.2a7.366,7.366,0,0,0,1.4-.4c.2-.1.5-.1.7-.2.2,0,.5-.1.7-.1s.5-.1.7-.1L19,25l.4-.1c.2,0,.5-.1.7-.1.3,0,.5-.1.8-.1.2,0,.6-.1.8-.1a.9.9,0,0,0,.5-.1h.7a2.2,2.2,0,0,0,.8-.1h4.1a45.2,45.2,0,0,1,5.3.6,33.914,33.914,0,0,1,9.6,3.2,36.245,36.245,0,0,1,7.8,5.1c.1.1.3.2.4.4.1.1.3.2.4.4.3.2.5.5.8.7s.5.5.8.7c.2.3.5.5.7.8a37.359,37.359,0,0,1,2.7,3.1,39.354,39.354,0,0,1,3.9,6.2c.1.1.1.2.2.4.1.1.1.2.2.4a2.506,2.506,0,0,0,.4.7c.1.2.2.5.3.7s.2.5.3.7c.4.9.7,1.8,1,2.7.5,1.4.8,2.6,1.1,3.6a.961.961,0,0,0,.9.7.817.817,0,0,0,.8-.9C65.3,53.4,65.3,52.1,65.2,50.6Z" fill="url(#linear-gradient)"/>
    </g>
  </g>
</svg>
