<svg width="80" height="80" viewBox="0 0 80 80" fill="none" xmlns="http://www.w3.org/2000/svg">
<rect width="80" height="80" rx="40" fill="#F0F0F0"/>
<rect x="9" y="9" width="62" height="62" rx="31" fill="url(#paint0_radial)"/>
<path d="M29.5409 29.8282C29.4115 29.8282 29.285 29.8666 29.1774 29.9385C29.0699 30.0103 28.986 30.1125 28.9365 30.232C28.887 30.3515 28.874 30.4831 28.8993 30.61C28.9245 30.7369 28.9868 30.8534 29.0783 30.9449C29.1698 31.0364 29.2863 31.0987 29.4132 31.1239C29.5401 31.1491 29.6716 31.1362 29.7912 31.0867C29.9107 31.0372 30.0129 30.9533 30.0847 30.8458C30.1566 30.7382 30.195 30.6117 30.195 30.4823C30.195 30.3089 30.1261 30.1425 30.0034 30.0198C29.8807 29.8971 29.7143 29.8282 29.5409 29.8282" stroke="white" stroke-width="2" stroke-linecap="round" stroke-linejoin="round"/>
<path d="M29.5409 44.2191C29.4115 44.2191 29.285 44.2575 29.1774 44.3293C29.0699 44.4012 28.986 44.5034 28.9365 44.6229C28.887 44.7424 28.874 44.874 28.8993 45.0008C28.9245 45.1277 28.9868 45.2443 29.0783 45.3358C29.1698 45.4273 29.2863 45.4896 29.4132 45.5148C29.5401 45.54 29.6716 45.5271 29.7912 45.4776C29.9107 45.4281 30.0129 45.3442 30.0847 45.2366C30.1566 45.1291 30.195 45.0026 30.195 44.8732C30.195 44.6997 30.1261 44.5334 30.0034 44.4107C29.8807 44.288 29.7143 44.2191 29.5409 44.2191" stroke="white" stroke-width="2" stroke-linecap="round" stroke-linejoin="round"/>
<path d="M41.6886 37.6778H30.0082C28.1495 37.6778 26.367 36.9542 25.0527 35.6661C23.7384 34.378 23 32.631 23 30.8094C23 28.9878 23.7384 27.2408 25.0527 25.9527C26.367 24.6647 28.1495 23.941 30.0082 23.941H48.6968C50.2073 23.9407 51.6775 24.4187 52.8883 25.3038C54.0991 26.1888 54.9858 27.4336 55.4161 28.8526C55.8465 30.2716 55.7975 31.7889 55.2765 33.1784C54.7555 34.5679 53.7904 35.7553 52.5249 36.5636" stroke="white" stroke-width="2" stroke-linecap="round" stroke-linejoin="round"/>
<path d="M34.7744 52.0687H30.0646C28.191 52.0687 26.3941 51.3106 25.0692 49.9612C23.7443 48.6118 23 46.7816 23 44.8732C23 42.9649 23.7443 41.1347 25.0692 39.7853C26.3941 38.4359 28.191 37.6778 30.0646 37.6778" stroke="white" stroke-width="2" stroke-linecap="round" stroke-linejoin="round"/>
<path d="M38.0449 31.1365H48.511" stroke="white" stroke-width="2" stroke-linecap="round" stroke-linejoin="round"/>
<path d="M48.5104 59.2641C53.5681 59.2641 57.6682 55.0176 57.6682 49.7792C57.6682 44.5409 53.5681 40.2943 48.5104 40.2943C43.4526 40.2943 39.3525 44.5409 39.3525 49.7792C39.3525 55.0176 43.4526 59.2641 48.5104 59.2641Z" stroke="white" stroke-width="2" stroke-linecap="round" stroke-linejoin="round"/>
<path d="M48.5107 44.8732V54.0311" stroke="white" stroke-width="2" stroke-linecap="round" stroke-linejoin="round"/>
<path d="M48.5109 54.0311L45.2402 50.7604" stroke="white" stroke-width="2" stroke-linecap="round" stroke-linejoin="round"/>
<path d="M48.5107 54.0311L51.7814 50.7604" stroke="white" stroke-width="2" stroke-linecap="round" stroke-linejoin="round"/>
<defs>
<radialGradient id="paint0_radial" cx="0" cy="0" r="1" gradientUnits="userSpaceOnUse" gradientTransform="translate(21 17) rotate(49.9392) scale(57.4891 69.0903)">
<stop stop-color="#FF891C"/>
<stop offset="1" stop-color="#F94B00"/>
</radialGradient>
</defs>
</svg>
