<svg width="23" height="23" viewBox="0 0 23 23" fill="none" xmlns="http://www.w3.org/2000/svg">
<g clip-path="url(#clip0_24005_662)">
<path d="M4.73682 5.45963C4.73682 5.09822 5.00787 4.73682 5.45963 4.73682H8.89299C9.25439 4.73682 9.6158 5.00787 9.6158 5.45963V10.1579C9.6158 10.5193 9.34475 10.8807 8.89299 10.8807H5.45963C5.09822 10.8807 4.73682 10.6097 4.73682 10.1579V5.45963Z" stroke="#FD9800" stroke-width="1.5" stroke-linecap="round" stroke-linejoin="round"/>
<path d="M4.73682 14.3139C4.73682 13.8621 5.09822 13.5911 5.45963 13.5911H8.89299C9.25439 13.5911 9.6158 13.8621 9.6158 14.3139V16.3016C9.6158 16.663 9.34475 17.0244 8.89299 17.0244H5.45963C5.09822 17.0244 4.73682 16.7534 4.73682 16.3016V14.3139Z" stroke="#FD9800" stroke-width="1.5" stroke-linecap="round" stroke-linejoin="round"/>
<path d="M12.2359 11.6034C12.2359 11.242 12.5069 10.8806 12.9587 10.8806H16.3017C16.6631 10.8806 17.0245 11.1517 17.0245 11.6034V16.3017C17.0245 16.6631 16.7534 17.0245 16.3017 17.0245H12.8683C12.5069 17.0245 12.1455 16.7535 12.1455 16.3017V11.6034H12.2359Z" stroke="#FD9800" stroke-width="1.5" stroke-linecap="round" stroke-linejoin="round"/>
<path d="M12.2359 5.45963C12.2359 5.09822 12.5069 4.73682 12.9587 4.73682H16.3017C16.6631 4.73682 17.0245 5.00787 17.0245 5.45963V7.44736C17.0245 7.89912 16.6631 8.17018 16.3017 8.17018H12.8683C12.5069 8.17018 12.1455 7.89912 12.1455 7.44736V5.45963H12.2359Z" stroke="#FD9800" stroke-width="1.5" stroke-linecap="round" stroke-linejoin="round"/>
<path d="M0.76125 2.02617C0.76125 1.30336 1.39371 0.670898 2.11652 0.670898H19.7351C20.4579 0.670898 21.0904 1.30336 21.0904 2.02617V19.6447C21.0904 20.3675 20.4579 21 19.7351 21H2.02617C1.30336 21 0.670898 20.3675 0.670898 19.6447V2.02617H0.76125Z" stroke="#FD9800" stroke-width="1.5" stroke-linecap="round" stroke-linejoin="round"/>
</g>
<defs>
<clipPath id="clip0_24005_662">
<rect width="23" height="23" fill="white"/>
</clipPath>
</defs>
</svg>
