<svg width="18" height="16" viewBox="0 0 18 16" fill="none" xmlns="http://www.w3.org/2000/svg">
<path d="M16.5013 6.74935H15.668V5.91602C15.668 5.695 15.5802 5.48304 15.4239 5.32676C15.2676 5.17048 15.0556 5.08268 14.8346 5.08268C14.6136 5.08268 14.4017 5.17048 14.2454 5.32676C14.0891 5.48304 14.0013 5.695 14.0013 5.91602V6.74935H13.168C12.947 6.74935 12.735 6.83715 12.5787 6.99343C12.4224 7.14971 12.3346 7.36167 12.3346 7.58268C12.3346 7.8037 12.4224 8.01566 12.5787 8.17194C12.735 8.32822 12.947 8.41602 13.168 8.41602H14.0013V9.24935C14.0013 9.47036 14.0891 9.68233 14.2454 9.83861C14.4017 9.99489 14.6136 10.0827 14.8346 10.0827C15.0556 10.0827 15.2676 9.99489 15.4239 9.83861C15.5802 9.68233 15.668 9.47036 15.668 9.24935V8.41602H16.5013C16.7223 8.41602 16.9343 8.32822 17.0906 8.17194C17.2468 8.01566 17.3346 7.8037 17.3346 7.58268C17.3346 7.36167 17.2468 7.14971 17.0906 6.99343C16.9343 6.83715 16.7223 6.74935 16.5013 6.74935ZM10.0846 8.18268C10.5293 7.79779 10.8859 7.32175 11.1304 6.78687C11.3748 6.25198 11.5013 5.67077 11.5013 5.08268C11.5013 3.97761 11.0623 2.91781 10.2809 2.1364C9.49951 1.355 8.4397 0.916016 7.33464 0.916016C6.22957 0.916016 5.16976 1.355 4.38836 2.1364C3.60696 2.91781 3.16797 3.97761 3.16797 5.08268C3.16796 5.67077 3.29447 6.25198 3.53891 6.78687C3.78334 7.32175 4.13999 7.79779 4.58464 8.18268C3.41809 8.71092 2.42836 9.56396 1.73379 10.6398C1.03921 11.7157 0.669195 12.9688 0.667969 14.2494C0.667969 14.4704 0.755766 14.6823 0.912046 14.8386C1.06833 14.9949 1.28029 15.0827 1.5013 15.0827C1.72232 15.0827 1.93428 14.9949 2.09056 14.8386C2.24684 14.6823 2.33464 14.4704 2.33464 14.2494C2.33464 12.9233 2.86142 11.6515 3.7991 10.7138C4.73678 9.77613 6.00855 9.24935 7.33464 9.24935C8.66072 9.24935 9.93249 9.77613 10.8702 10.7138C11.8079 11.6515 12.3346 12.9233 12.3346 14.2494C12.3346 14.4704 12.4224 14.6823 12.5787 14.8386C12.735 14.9949 12.947 15.0827 13.168 15.0827C13.389 15.0827 13.6009 14.9949 13.7572 14.8386C13.9135 14.6823 14.0013 14.4704 14.0013 14.2494C14.0001 12.9688 13.6301 11.7157 12.9355 10.6398C12.2409 9.56396 11.2512 8.71092 10.0846 8.18268ZM7.33464 7.58268C6.84018 7.58268 6.35683 7.43606 5.94571 7.16136C5.53459 6.88665 5.21416 6.49621 5.02494 6.03939C4.83572 5.58258 4.78621 5.07991 4.88267 4.59496C4.97914 4.11 5.21724 3.66455 5.56687 3.31492C5.9165 2.96528 6.36196 2.72718 6.84691 2.63072C7.33186 2.53426 7.83453 2.58376 8.29134 2.77298C8.74816 2.9622 9.13861 3.28263 9.41331 3.69376C9.68801 4.10488 9.83464 4.58823 9.83464 5.08268C9.83464 5.74572 9.57124 6.38161 9.1024 6.85045C8.63356 7.31929 7.99768 7.58268 7.33464 7.58268Z" fill="#5787D1"/>
</svg>
