<svg width="17" height="17" viewBox="0 0 17 17" fill="none" xmlns="http://www.w3.org/2000/svg">
<g clip-path="url(#clip0_24005_1057)">
<path fill-rule="evenodd" clip-rule="evenodd" d="M8.50011 4.50649e-06C6.4802 -0.00210083 4.52556 0.733532 2.9865 2.07507C1.44744 3.41661 0.424547 5.27637 0.101134 7.32106C-0.22228 9.36576 0.174927 11.4617 1.22157 13.2334C2.26821 15.005 3.89588 16.3365 5.81288 16.9893C6.24075 17.0696 6.39207 16.7967 6.39207 16.5666C6.39207 16.3365 6.39207 15.8121 6.39207 15.0844C4.01792 15.6141 3.51699 13.9125 3.51699 13.9125C3.35949 13.3851 3.02488 12.932 2.57255 12.6336C1.80552 12.0985 2.63517 12.0985 2.63517 12.0985C2.90404 12.1375 3.16075 12.2387 3.38586 12.3944C3.61096 12.5501 3.79855 12.7564 3.93443 12.9975C4.04988 13.2122 4.20553 13.4014 4.39246 13.5542C4.57938 13.707 4.7939 13.8205 5.02369 13.8881C5.25349 13.9557 5.49404 13.9762 5.73155 13.9482C5.96906 13.9202 6.19884 13.8445 6.40772 13.7252C6.44047 13.285 6.62553 12.8713 6.92952 12.5587C5.04063 12.3393 3.05782 11.5902 3.05782 8.27794C3.04485 7.41268 3.35684 6.57544 3.92921 5.93957C3.67429 5.18724 3.70409 4.36418 4.0127 3.63331C4.0127 3.63331 4.72755 3.39786 6.35033 4.52692C7.74382 4.13456 9.21466 4.13456 10.6082 4.52692C12.2309 3.39786 12.9406 3.63331 12.9406 3.63331C13.2535 4.35645 13.2907 5.1736 13.0449 5.92352C13.6173 6.55939 13.9293 7.39663 13.9163 8.26189C13.9163 11.6116 11.9283 12.3447 10.0342 12.5427C10.2373 12.752 10.3941 13.0037 10.494 13.2807C10.594 13.5577 10.6347 13.8534 10.6134 14.1479C10.6134 15.3145 10.6134 16.2562 10.6134 16.5398C10.6134 16.8234 10.7647 17.0428 11.1978 16.9572C13.093 16.2872 14.6962 14.9519 15.7244 13.1872C16.7526 11.4224 17.1394 9.3418 16.8167 7.31289C16.4939 5.28397 15.4822 3.43734 13.9605 2.0992C12.4387 0.761066 10.5047 0.0175499 8.50011 4.50649e-06V4.50649e-06Z" fill="#1866D4"/>
</g>
<defs>
<clipPath id="clip0_24005_1057">
<rect width="17" height="17" fill="white"/>
</clipPath>
</defs>
</svg>
