<svg xmlns="http://www.w3.org/2000/svg" width="49.864" height="46.389" viewBox="0 0 49.864 46.389"><g transform="translate(-1286.074 -3599.925)"><g transform="translate(29.488 2980.377)"><g transform="translate(1258.086 618.548)"><path d="M1.771,0A1.771,1.771,0,1,1,0,1.771,1.771,1.771,0,0,1,1.771,0Z" transform="translate(10.271 15.938)" fill="#fade2a"/><g transform="translate(0 5.268)"><path d="M1296.263,682.164l-.3,3.131c-.135,1.394-.666,2.122-1.379,2.122a2.559,2.559,0,0,1-1.778-1.194l-1.532-1.944a19.044,19.044,0,0,1-4.859.628h-5.083a19.045,19.045,0,0,1-4.859-.628l-1.532,1.944a2.562,2.562,0,0,1-1.78,1.194c-.713,0-1.243-.728-1.379-2.122l-.3-3.131a19.141,19.141,0,0,1-6.863-7.161l-1.594.023h-.062a4.213,4.213,0,0,1-4.21-4.149l-.146-9.329a4.215,4.215,0,0,1,4.149-4.273l1.8-.026c1.883-9.965,18.36-10.453,18.36-10.453h3.239a19.307,19.307,0,0,1,19.313,19.177A19.044,19.044,0,0,1,1296.263,682.164Z" transform="translate(-1258.603 -646.796)" fill="none" stroke="#5794f2" stroke-linecap="round" stroke-linejoin="round" stroke-width="3"/></g><path d="M1356.248,634.622a6.909,6.909,0,1,0-10.1,0Z" transform="translate(-1325.321 -622)" fill="#ff9830" fill-rule="evenodd"/><path d="M0,0H16.075" transform="translate(17.425 13.074)" fill="none" stroke="#5794f2" stroke-linecap="round" stroke-width="3"/></g></g></g></svg>