<svg xmlns="http://www.w3.org/2000/svg" width="48.642" height="43.847" viewBox="0 0 48.642 43.847"><g transform="translate(-277.924 -3600.948)"><g transform="translate(-575.076 2976.895)"><circle cx="4.581" cy="4.581" r="4.581" transform="translate(891.561 624.053)" fill="#fade2a"/><circle cx="2.727" cy="2.727" r="2.727" transform="translate(853.837 662.446)" fill="#ff9830"/><path d="M861.971,655.93l3.023-4.729,8.291.166-6.833,16.5,10.835.031,11.034-15.993,5.115.2h.02l.2,0c5.893-.2,7.984-3.341,7.984-5.972,0-.052,0-.1,0-.155s0-.1,0-.157c0-2.631-2.1-5.773-8.027-5.973l-.089,0-5.2.2-11.035-15.993-10.835.032,6.833,16.5-8.291.166-3.023-4.729-8.971.067,2.4,9.887-2.4,9.885Z" fill="#5794f2"/></g></g></svg>