<?xml version="1.0" encoding="utf-8"?>
<!-- Generator: Adobe Illustrator 23.0.6, SVG Export Plug-In . SVG Version: 6.00 Build 0)  -->
<svg width="172" height="150" version="1.1" id="Layer_1" xmlns="http://www.w3.org/2000/svg" xmlns:xlink="http://www.w3.org/1999/xlink" x="0px" y="0px"
	 viewBox="0 0 172 150" style="enable-background:new 0 0 172 150;" xml:space="preserve">
<style type="text/css">
	.st0{fill:none;}
	.st1{fill:url(#SVGID_1_);}
</style>
<g>
	<path class="st0" d="M148.4,21.7C132.3,5.6,106,5.4,89.8,21.3l-0.8,0.8L58.4,52.7c-1.3,1.3-1.9,2.9-1.9,4.6s0.7,3.4,1.9,4.6
		c2.5,2.5,6.7,2.5,9.3,0l2.1-2.1c3-3,7.1-4.7,11.4-4.7h11.3c1.8,0,3.4-0.7,4.6-1.9l19-19c1.9-1.9,4.9-1.9,6.7,0
		c1.9,1.9,1.9,4.9,0,6.7l-4.1,4.1l11.2,11.4l0,0l21.3,21.3C164.6,61.4,163.7,36.9,148.4,21.7z"/>
	
		<linearGradient id="SVGID_1_" gradientUnits="userSpaceOnUse" x1="191.9333" y1="62.2261" x2="408.5236" y2="-145.0484" gradientTransform="matrix(0.5 0 0 -0.5 -69 34.5)">
		<stop  offset="0" style="stop-color:#8AB8FF"/>
		<stop  offset="1" style="stop-color:#5794F2"/>
	</linearGradient>
	<path class="st1" d="M155.2,14.9c-18.6-18.6-48.5-19.9-68.5-3.5l-0.2-0.2l-1.2,1.2C65.3-3.9,35.5-2.7,16.8,15.9
		C-2.9,35.6-3.2,67.8,16.2,87.8c0.1,0.1,0.1,0.2,0.2,0.2c-3.2,5.2-2.6,12.2,1.9,16.7l0.3,0.3c2.3,2.3,5.3,3.7,8.5,3.9
		c0.3,3.2,1.6,6.2,3.9,8.5l0.3,0.3l0,0c2.4,2.4,5.5,3.7,8.6,3.9c0.3,3.1,1.5,6.1,3.9,8.6l0.3,0.3l0,0c2.4,2.4,5.5,3.7,8.6,3.9
		c0.3,3.1,1.5,6.1,3.9,8.6l0.3,0.3l0,0c2.6,2.6,6.1,4,9.6,4s6.9-1.3,9.6-4l5.9-5.9l6.2,6.2c2.9,2.9,6.6,4.4,10.6,4.4
		c4,0,7.7-1.5,10.6-4.4c2.7-2.7,4.2-6.2,4.4-10c3.6-0.2,7.2-1.6,10-4.4c2.7-2.7,4.2-6.2,4.4-10c3.8-0.2,7.3-1.7,10-4.4
		c2.8-2.8,4.2-6.4,4.4-10c3.8-0.2,7.3-1.7,10-4.4c4-4,5.2-9.6,3.8-14.6C175.1,65.9,174.6,34.4,155.2,14.9z M31,98.3
		c-0.8,0.8-1.8,1.2-2.9,1.2c-1.1,0-2.1-0.4-2.9-1.2l-0.3-0.3c-1.6-1.6-1.6-4.1,0-5.6l7-7c0.8-0.8,1.8-1.2,2.9-1.2c1,0,2,0.4,2.9,1.2
		l0.3,0.3c1.6,1.6,1.6,4.1,0,5.6L31,98.3z M43.8,111c-1.6,1.6-4.1,1.6-5.6,0l-0.3-0.3c-0.8-0.8-1.2-1.8-1.2-2.9
		c0-1.1,0.4-2.1,1.2-2.9l7-7.1c1.6-1.6,4.1-1.6,5.6,0l0.3,0.3c1.6,1.6,1.6,4.1,0,5.6L43.8,111z M56.7,123.9c-1.6,1.6-4.1,1.6-5.6,0
		l-0.3-0.3c-1.6-1.6-1.6-4.1,0-5.6l7-7c1.6-1.6,4.1-1.6,5.6,0l0.4,0.4c0.8,0.8,1.2,1.8,1.2,2.9c0,1.1-0.4,2.1-1.2,2.9L56.7,123.9z
		 M76.5,129.7l-7,7c-1.6,1.6-4.1,1.6-5.6,0l-0.3-0.3c-1.6-1.6-1.6-4.1,0-5.6l7-7c1.6-1.6,4.1-1.6,5.6,0l0.3,0.3
		C78.1,125.6,78.1,128.2,76.5,129.7z M146.1,93.9c-1,1-2.4,1.6-3.9,1.6c-1.3,0-2.6-0.5-3.6-1.4c-0.1-0.1-0.1-0.2-0.2-0.2l-23-23l0,0
		c-1.9-1.9-4.9-1.9-6.7,0l0,0l0,0c-1.9,1.9-1.9,4.9,0,6.7l0,0l0,0l23,23c2.1,2.1,2.1,5.6,0,7.7c-1,1-2.4,1.6-3.9,1.6
		c-1.4,0-2.7-0.5-3.7-1.4c0,0-0.1-0.1-0.1-0.2l-23-23l0,0c-1.9-1.9-4.9-1.9-6.7,0l0,0l0,0c-1.9,1.9-1.9,4.9,0,6.7l0,0l23,23
		c1,1,1.6,2.4,1.6,3.9c0,1.5-0.6,2.8-1.6,3.9c-2.1,2.1-5.4,2.1-7.6,0.1c0-0.1-0.1-0.1-0.1-0.2l-23-23l0,0c-1.9-1.9-4.9-1.9-6.7,0
		l0,0l0,0c-1.9,1.9-1.9,4.9,0,6.7l0,0l0,0l23,23c1,1,1.6,2.4,1.6,3.9c0,1.5-0.6,2.8-1.6,3.9c-1,1-2.4,1.6-3.9,1.6
		c-1.4,0-2.8-0.6-3.9-1.6l-8.1-8.1c0.7-4.1-0.6-8.5-3.8-11.7l-0.3-0.3c-2.4-2.4-5.5-3.7-8.6-3.9c0-0.3-0.1-0.7-0.1-1
		c-0.4-2.9-1.8-5.5-3.8-7.6l-0.4-0.4c-2.4-2.4-5.5-3.7-8.6-3.9c-0.3-3.1-1.5-6.1-3.9-8.6l-0.3-0.3c-2.4-2.4-5.4-3.7-8.5-3.9
		c-0.3-3.1-1.5-6.1-3.9-8.5l-0.3-0.3c-5.3-5.3-13.9-5.3-19.1,0L23,81.1C7.3,64.6,7.5,38.6,23.5,22.6c14.9-14.9,38.7-16.1,55-3.5
		L51.6,46c-3,3-4.7,7.1-4.7,11.4s1.7,8.3,4.7,11.4c6.3,6.3,16.5,6.3,22.8,0l2.1-2.1c1.3-1.3,2.9-1.9,4.6-1.9h11.3
		c4.3,0,8.3-1.7,11.4-4.7l8.1-8.1l11.2,11.2l0,0l0,0l23,23C148.2,88.3,148.2,91.8,146.1,93.9z M151.1,77.7l-21.3-21.3l0,0
		l-11.2-11.2l4.1-4.1c1.9-1.9,1.9-4.9,0-6.7s-4.9-1.9-6.7,0l-19,19c-1.3,1.3-2.9,1.9-4.6,1.9H81.2c-4.3,0-8.3,1.7-11.4,4.7l-2.1,2.1
		c-2.5,2.5-6.7,2.5-9.3,0c-1.3-1.3-1.9-2.9-1.9-4.6c0-1.8,0.7-3.4,1.9-4.6L89,22.3l0.8-0.8c16.2-15.9,42.6-15.7,58.7,0.3
		C163.7,36.9,164.6,61.4,151.1,77.7z"/>
</g>
</svg>
