<svg width="24" height="24" viewBox="0 0 24 24" fill="none" xmlns="http://www.w3.org/2000/svg">
<g clip-path="url(#clip0_24005_685)">
<path d="M9.80005 19.5C9.80005 19.1 10.1 18.7 10.6 18.7H22.6C23 18.7 23.4 19 23.4 19.5V22.5C23.4 22.9 23.1 23.2999 22.6 23.2999H10.6C10.2 23.2999 9.80005 23 9.80005 22.5V19.5Z" stroke="#FD9800" stroke-width="1.5" stroke-linecap="round" stroke-linejoin="round"/>
<path d="M9.80005 12C9.80005 11.6 10.1 11.2 10.6 11.2H22.6C23 11.2 23.4 11.5 23.4 12V15C23.4 15.4 23.1 15.8 22.6 15.8H10.6C10.2 15.8 9.80005 15.5 9.80005 15V12Z" stroke="#FD9800" stroke-width="1.5" stroke-linecap="round" stroke-linejoin="round"/>
<path d="M0.800049 1.49995C0.800049 1.09995 1.10005 0.699951 1.60005 0.699951H13.6C14 0.699951 14.4 0.999951 14.4 1.49995V4.49995C14.4 4.89995 14.1 5.29995 13.6 5.29995H1.60005C1.20005 5.29995 0.800049 4.99995 0.800049 4.49995V1.49995V1.49995Z" stroke="#FD9800" stroke-width="1.5" stroke-linecap="round" stroke-linejoin="round"/>
<path d="M6.80005 5.19995V6.69995C6.80005 7.49995 7.50005 8.19995 8.30005 8.19995H12.8C13.6 8.19995 14.3 8.89995 14.3 9.69995V11.2" stroke="#FD9800" stroke-width="1.5" stroke-linecap="round" stroke-linejoin="round"/>
<path d="M17.2 15.8V18.8" stroke="#FD9800" stroke-width="1.5" stroke-linecap="round" stroke-linejoin="round"/>
</g>
<defs>
<clipPath id="clip0_24005_685">
<rect width="24" height="24" fill="white"/>
</clipPath>
</defs>
</svg>
