<svg width="18" height="16" viewBox="0 0 18 16" fill="none" xmlns="http://www.w3.org/2000/svg">
<path d="M10.0763 9.49234L9.83464 9.74234V7.584C9.83464 7.36299 9.74684 7.15103 9.59056 6.99475C9.43428 6.83847 9.22232 6.75067 9.0013 6.75067C8.78029 6.75067 8.56833 6.83847 8.41205 6.99475C8.25577 7.15103 8.16797 7.36299 8.16797 7.584V9.74234L7.9263 9.49234C7.76938 9.33541 7.55655 9.24726 7.33464 9.24726C7.11272 9.24726 6.89989 9.33541 6.74297 9.49234C6.58605 9.64925 6.49789 9.86208 6.49789 10.084C6.49789 10.3059 6.58605 10.5187 6.74297 10.6757L8.40964 12.3423C8.48889 12.4182 8.58234 12.4777 8.68464 12.5173C8.78439 12.5614 8.89224 12.5842 9.0013 12.5842C9.11036 12.5842 9.21822 12.5614 9.31797 12.5173C9.42026 12.4777 9.51372 12.4182 9.59297 12.3423L11.2596 10.6757C11.4166 10.5187 11.5047 10.3059 11.5047 10.084C11.5047 9.86208 11.4166 9.64925 11.2596 9.49234C11.1027 9.33541 10.8899 9.24726 10.668 9.24726C10.4461 9.24726 10.2332 9.33541 10.0763 9.49234ZM14.8346 2.584H9.6013L9.33464 1.75067C9.16176 1.26169 8.84109 0.838589 8.41705 0.53997C7.99301 0.241352 7.4866 0.0820036 6.96797 0.084003H3.16797C2.50493 0.084003 1.86904 0.347395 1.4002 0.816236C0.931361 1.28508 0.667969 1.92096 0.667969 2.584V13.4173C0.667969 14.0804 0.931361 14.7163 1.4002 15.1851C1.86904 15.6539 2.50493 15.9173 3.16797 15.9173H14.8346C15.4977 15.9173 16.1336 15.6539 16.6024 15.1851C17.0712 14.7163 17.3346 14.0804 17.3346 13.4173V5.084C17.3346 4.42096 17.0712 3.78508 16.6024 3.31624C16.1336 2.84739 15.4977 2.584 14.8346 2.584ZM15.668 13.4173C15.668 13.6383 15.5802 13.8503 15.4239 14.0066C15.2676 14.1629 15.0556 14.2507 14.8346 14.2507H3.16797C2.94696 14.2507 2.73499 14.1629 2.57871 14.0066C2.42243 13.8503 2.33464 13.6383 2.33464 13.4173V2.584C2.33464 2.36299 2.42243 2.15103 2.57871 1.99475C2.73499 1.83847 2.94696 1.75067 3.16797 1.75067H6.96797C7.14267 1.75022 7.3131 1.80469 7.45516 1.90637C7.59722 2.00806 7.70373 2.15182 7.75964 2.31734L8.20964 3.684C8.26554 3.84952 8.37205 3.99328 8.51411 4.09497C8.65617 4.19665 8.8266 4.25112 9.0013 4.25067H14.8346C15.0556 4.25067 15.2676 4.33847 15.4239 4.49475C15.5802 4.65103 15.668 4.86299 15.668 5.084V13.4173Z" fill="#5787D1"/>
</svg>
