<svg width="23" height="21" viewBox="0 0 23 21" fill="none" xmlns="http://www.w3.org/2000/svg">
<g clip-path="url(#clip0_24005_694)">
<path d="M15 20.2H20.2C21 20.2 21.7 19.5 21.7 18.7V2.19995C21.7 1.39995 21 0.699951 20.2 0.699951H2.19995C1.39995 0.699951 0.699951 1.39995 0.699951 2.19995V18.7C0.699951 19.5 1.39995 20.2 2.19995 20.2H7.39995" stroke="#FD9800" stroke-width="1.5" stroke-linecap="round" stroke-linejoin="round"/>
<path d="M0.800049 4.5H21.8" stroke="#FD9800" stroke-width="1.5" stroke-linecap="round" stroke-linejoin="round"/>
<path d="M11.1999 16.9999C13.2999 16.9999 14.9999 15.2999 14.9999 13.1999C14.9999 11.0999 13.2999 9.3999 11.1999 9.3999C9.0999 9.3999 7.3999 11.0999 7.3999 13.1999C7.4999 15.2999 9.1999 16.9999 11.1999 16.9999Z" stroke="#FD9800" stroke-width="1.5" stroke-linecap="round" stroke-linejoin="round"/>
<path d="M11.2 9.39995V7.69995" stroke="#FD9800" stroke-width="1.5" stroke-linecap="round" stroke-linejoin="round"/>
<path d="M11.2 18.8V17" stroke="#FD9800" stroke-width="1.5" stroke-linecap="round" stroke-linejoin="round"/>
<path d="M15 13.2H16.8" stroke="#FD9800" stroke-width="1.5" stroke-linecap="round" stroke-linejoin="round"/>
<path d="M5.69995 13.2H7.49995" stroke="#FD9800" stroke-width="1.5" stroke-linecap="round" stroke-linejoin="round"/>
<path d="M7.69995 9.19995L8.79995 10.3" stroke="#FD9800" stroke-width="1.5" stroke-linecap="round" stroke-linejoin="round"/>
<path d="M14.8 9.19995L13.7 10.3" stroke="#FD9800" stroke-width="1.5" stroke-linecap="round" stroke-linejoin="round"/>
<path d="M7.69995 17.2L8.79995 16" stroke="#FD9800" stroke-width="1.5" stroke-linecap="round" stroke-linejoin="round"/>
<path d="M14.8 17.2L13.7 16" stroke="#FD9800" stroke-width="1.5" stroke-linecap="round" stroke-linejoin="round"/>
<path d="M11.1999 12.3999C11.5999 12.3999 11.9999 12.6999 11.9999 13.1999C11.9999 13.5999 11.6999 13.9999 11.1999 13.9999C10.7999 13.9999 10.3999 13.6999 10.3999 13.1999C10.4999 12.7999 10.7999 12.3999 11.1999 12.3999Z" stroke="#FD9800" stroke-width="1.5" stroke-linecap="round" stroke-linejoin="round"/>
<g clip-path="url(#clip1_24005_694)">
<path d="M15 20.2H20.2C21 20.2 21.7 19.5 21.7 18.7V2.19995C21.7 1.39995 21 0.699951 20.2 0.699951H2.19995C1.39995 0.699951 0.699951 1.39995 0.699951 2.19995V18.7C0.699951 19.5 1.39995 20.2 2.19995 20.2H7.39995" stroke="#FD9800" stroke-width="1.5" stroke-linecap="round" stroke-linejoin="round"/>
<path d="M0.800049 4.5H21.8" stroke="#FD9800" stroke-width="1.5" stroke-linecap="round" stroke-linejoin="round"/>
<path d="M11.1999 16.9999C13.2999 16.9999 14.9999 15.2999 14.9999 13.1999C14.9999 11.0999 13.2999 9.3999 11.1999 9.3999C9.0999 9.3999 7.3999 11.0999 7.3999 13.1999C7.4999 15.2999 9.1999 16.9999 11.1999 16.9999Z" stroke="#FD9800" stroke-width="1.5" stroke-linecap="round" stroke-linejoin="round"/>
<path d="M11.2 9.39995V7.69995" stroke="#FD9800" stroke-width="1.5" stroke-linecap="round" stroke-linejoin="round"/>
<path d="M11.2 18.8V17" stroke="#FD9800" stroke-width="1.5" stroke-linecap="round" stroke-linejoin="round"/>
<path d="M15 13.2H16.8" stroke="#FD9800" stroke-width="1.5" stroke-linecap="round" stroke-linejoin="round"/>
<path d="M5.69995 13.2H7.49995" stroke="#FD9800" stroke-width="1.5" stroke-linecap="round" stroke-linejoin="round"/>
<path d="M7.69995 9.19995L8.79995 10.3" stroke="#FD9800" stroke-width="1.5" stroke-linecap="round" stroke-linejoin="round"/>
<path d="M14.8 9.19995L13.7 10.3" stroke="#FD9800" stroke-width="1.5" stroke-linecap="round" stroke-linejoin="round"/>
<path d="M7.69995 17.2L8.79995 16" stroke="#FD9800" stroke-width="1.5" stroke-linecap="round" stroke-linejoin="round"/>
<path d="M14.8 17.2L13.7 16" stroke="#FD9800" stroke-width="1.5" stroke-linecap="round" stroke-linejoin="round"/>
<path d="M11.1999 12.3999C11.5999 12.3999 11.9999 12.6999 11.9999 13.1999C11.9999 13.5999 11.6999 13.9999 11.1999 13.9999C10.7999 13.9999 10.3999 13.6999 10.3999 13.1999C10.4999 12.7999 10.7999 12.3999 11.1999 12.3999Z" stroke="#FD9800" stroke-width="1.5" stroke-linecap="round" stroke-linejoin="round"/>
</g>
</g>
<defs>
<clipPath id="clip0_24005_694">
<rect width="22.5" height="21" fill="white"/>
</clipPath>
<clipPath id="clip1_24005_694">
<rect width="22.5" height="21" fill="white"/>
</clipPath>
</defs>
</svg>
