<svg width="24" height="24" viewBox="0 0 24 24" fill="none" xmlns="http://www.w3.org/2000/svg">
<path d="M5.25 6.75C5.25 6.35218 5.40804 5.97064 5.68935 5.68933C5.97065 5.40803 6.35218 5.25 6.75 5.25H17.25C17.6478 5.25 18.0293 5.40803 18.3107 5.68933C18.592 5.97064 18.75 6.35218 18.75 6.75V17.25C18.75 17.6478 18.592 18.0294 18.3107 18.3107C18.0293 18.592 17.6478 18.75 17.25 18.75H6.75C6.35218 18.75 5.97065 18.592 5.68935 18.3107C5.40804 18.0294 5.25 17.6478 5.25 17.25V6.75Z" stroke="#FD9800" stroke-width="1.5" stroke-linecap="round" stroke-linejoin="round"/>
<path d="M18.75 0.75V2.25" stroke="#FD9800" stroke-width="1.5" stroke-linecap="round" stroke-linejoin="round"/>
<path d="M23.25 5.25H21.75" stroke="#FD9800" stroke-width="1.5" stroke-linecap="round" stroke-linejoin="round"/>
<path d="M18.75 23.25V21.75" stroke="#FD9800" stroke-width="1.5" stroke-linecap="round" stroke-linejoin="round"/>
<path d="M23.25 18.75H21.75" stroke="#FD9800" stroke-width="1.5" stroke-linecap="round" stroke-linejoin="round"/>
<path d="M5.25 23.25V21.75" stroke="#FD9800" stroke-width="1.5" stroke-linecap="round" stroke-linejoin="round"/>
<path d="M0.75 18.75H2.25" stroke="#FD9800" stroke-width="1.5" stroke-linecap="round" stroke-linejoin="round"/>
<path d="M0.75 5.25H2.25" stroke="#FD9800" stroke-width="1.5" stroke-linecap="round" stroke-linejoin="round"/>
<path d="M5.25 0.75V2.25" stroke="#FD9800" stroke-width="1.5" stroke-linecap="round" stroke-linejoin="round"/>
</svg>
