<svg class="d-block" width="204" height="23" viewBox="0 0 204 23" fill="none" xmlns="http://www.w3.org/2000/svg">
  <path d="M171.548 16.0441C172.219 16.0441 172.812 15.9416 173.302 15.7109C173.792 15.4803 174.179 15.1727 174.489 14.7883C174.798 14.4038 175.03 13.9681 175.185 13.4555C175.34 12.9686 175.417 12.4304 175.417 11.8922V11.6102H177.429V11.8922C177.429 12.7379 177.3 13.5068 177.042 14.2501C176.785 14.9933 176.423 15.634 175.933 16.1723C175.443 16.7105 174.824 17.1462 174.102 17.4537C173.379 17.7613 172.528 17.915 171.574 17.915C169.716 17.915 168.297 17.3512 167.266 16.1979C166.234 15.0446 165.718 13.353 165.718 11.1489V7.45828C165.718 5.30542 166.234 3.63951 167.266 2.46056C168.297 1.28161 169.742 0.692139 171.574 0.692139C172.528 0.692139 173.379 0.845915 174.102 1.15347C174.824 1.46102 175.443 1.89672 175.933 2.43493C176.423 2.97315 176.81 3.61388 177.042 4.35713C177.3 5.10038 177.429 5.86926 177.429 6.71503V6.99695H175.417V6.71503C175.392 6.17681 175.314 5.66423 175.159 5.15164C175.005 4.63906 174.772 4.20336 174.463 3.81892C174.153 3.43448 173.766 3.12693 173.276 2.89626C172.812 2.6656 172.219 2.56308 171.548 2.56308C170.258 2.56308 169.303 3.02441 168.659 3.97269C168.014 4.89535 167.704 6.12556 167.704 7.63769V11.0464C167.704 12.661 168.014 13.9169 168.659 14.8139C169.303 15.5828 170.258 16.0441 171.548 16.0441Z" fill="white"/>
  <path d="M179.132 7.40677C179.132 5.2539 179.648 3.588 180.68 2.40905C181.711 1.2301 183.156 0.640625 184.988 0.640625C186.819 0.640625 188.264 1.2301 189.296 2.40905C190.328 3.588 190.843 5.2539 190.843 7.40677V11.0974C190.843 13.3015 190.328 14.993 189.296 16.1464C188.264 17.2997 186.819 17.8635 184.988 17.8635C183.156 17.8635 181.711 17.2997 180.68 16.1464C179.648 14.993 179.132 13.3015 179.132 11.0974V7.40677ZM184.988 16.0438C186.277 16.0438 187.232 15.6082 187.877 14.7368C188.522 13.8654 188.831 12.6095 188.831 10.9692V7.56054C188.831 6.04841 188.522 4.8182 187.877 3.89555C187.232 2.97289 186.277 2.48594 184.988 2.48594C183.698 2.48594 182.743 2.94726 182.098 3.89555C181.454 4.8182 181.144 6.04841 181.144 7.56054V10.9692C181.144 12.5839 181.454 13.8397 182.098 14.7368C182.743 15.5825 183.698 16.0438 184.988 16.0438Z" fill="white"/>
  <path d="M201.704 16.6847H201.988V0.973877H204V17.5561H200.002L195.178 1.81964H194.894V17.5561H192.882V0.973877H196.88L201.704 16.6847Z" fill="white"/>
  <path d="M151.607 19.4529H0V22.2977H151.607V19.4529Z" fill="#1E1ED7"/>
  <path d="M165.708 20.9761L203.965 20.9761V19.4639L165.708 19.4639V20.9761Z" fill="#1E1ED7"/>
  <path d="M6.44957 0.615104C4.51483 0.615104 3.01862 1.20458 1.90937 2.38353C0.825909 3.56248 0.28418 5.22838 0.28418 7.38125V11.0975C0.28418 13.3016 0.825909 14.9932 1.90937 16.1465C2.99283 17.2998 4.51483 17.8893 6.44957 17.8893C8.38432 17.8893 9.88053 17.2998 10.9898 16.1465C12.0732 14.9932 12.615 13.3016 12.615 11.0975V7.38125C12.615 5.22838 12.0732 3.56248 10.9898 2.38353C9.88053 1.20458 8.35853 0.615104 6.44957 0.615104ZM9.44199 11.3025C9.44199 11.8664 9.39039 12.3533 9.28721 12.8147C9.18402 13.276 9.02924 13.6604 8.79707 13.9936C8.5649 14.3268 8.25534 14.5831 7.86839 14.7625C7.48144 14.9419 7.0171 15.0444 6.42378 15.0444C5.85625 15.0444 5.36612 14.9419 4.97917 14.7625C4.59222 14.5831 4.28266 14.3268 4.05049 13.9936C3.81832 13.6604 3.63774 13.276 3.56035 12.8147C3.45717 12.3533 3.40557 11.8407 3.40557 11.3025V7.22747C3.40557 6.71488 3.45717 6.2023 3.56035 5.7666C3.66354 5.30527 3.84412 4.92083 4.07628 4.58765C4.30845 4.25447 4.61801 3.99818 5.00496 3.79314C5.39191 3.58811 5.85625 3.48559 6.39798 3.48559C6.93971 3.48559 7.40405 3.58811 7.791 3.79314C8.17795 3.99818 8.48751 4.25447 8.71968 4.58765C8.95185 4.92083 9.13243 5.30527 9.23561 5.7666C9.3388 6.22793 9.39039 6.71488 9.39039 7.22747V11.3025H9.44199ZM25.2295 7.04806C24.7652 6.53548 24.1977 6.15104 23.5785 5.86912C22.9594 5.61282 22.2887 5.45905 21.5922 5.45905C20.6635 5.45905 19.8896 5.63845 19.2705 5.99726C18.6772 6.35607 18.2128 6.86866 17.8775 7.50939H17.4389V0.948284H14.4465V17.5561H17.4647V15.8389H17.9033C18.0581 16.1208 18.2128 16.3771 18.4192 16.6078C18.6256 16.8641 18.8578 17.0691 19.1673 17.2485C19.4511 17.4279 19.8122 17.5817 20.1992 17.7099C20.5861 17.8124 21.0763 17.8636 21.618 17.8636C22.3403 17.8636 23.0368 17.7355 23.6559 17.4792C24.275 17.2229 24.8426 16.8385 25.2811 16.3259C25.7455 15.8133 26.1066 15.1726 26.3904 14.4293C26.6483 13.6861 26.8031 12.8403 26.8031 11.8664V11.4307C26.8031 10.4824 26.6741 9.63663 26.3904 8.89337C26.0808 8.17575 25.6939 7.56065 25.2295 7.04806ZM23.7591 11.8151C23.7591 12.8147 23.4754 13.6092 22.882 14.173C22.2887 14.7625 21.5406 15.0444 20.6119 15.0444C19.6832 15.0444 18.9093 14.7369 18.3418 14.1474C17.7485 13.5579 17.4647 12.7634 17.4647 11.8151V11.5332C17.4647 10.5593 17.7485 9.7904 18.3418 9.20093C18.9351 8.61145 19.6832 8.3039 20.6119 8.3039C21.5406 8.3039 22.3145 8.58582 22.882 9.1753C23.4754 9.76477 23.7591 10.5337 23.7591 11.5332V11.8151ZM37.0186 11.4307C36.2447 10.8412 35.2644 10.4824 34.052 10.3542C32.9943 10.2517 32.272 10.098 31.8851 9.94418C31.4981 9.7904 31.2917 9.50848 31.2917 9.12404C31.2917 8.86775 31.4207 8.63708 31.6787 8.45768C31.9367 8.27827 32.3236 8.17575 32.8137 8.17575C33.3813 8.17575 33.8198 8.3039 34.181 8.53457C34.5421 8.79086 34.7743 9.12404 34.9291 9.53411L37.6635 8.43205C37.5345 8.09887 37.3539 7.76569 37.1218 7.40688C36.8896 7.04806 36.58 6.71488 36.1931 6.43296C35.8061 6.15104 35.3418 5.89475 34.8001 5.71534C34.2583 5.53593 33.6134 5.43342 32.8395 5.43342C32.272 5.43342 31.7045 5.5103 31.1628 5.66408C30.621 5.81786 30.1309 6.04852 29.7181 6.35607C29.3054 6.66362 28.97 7.04806 28.7121 7.48376C28.4541 7.91946 28.3251 8.43205 28.3251 9.02152V9.1753C28.3251 10.303 28.7121 11.1488 29.5118 11.7382C30.3115 12.3277 31.3691 12.6609 32.7105 12.7634C33.2007 12.8147 33.6134 12.8659 33.9488 12.9428C34.2841 13.0197 34.5421 13.1222 34.7227 13.2504C34.9033 13.3785 35.058 13.5067 35.1096 13.6348C35.187 13.7629 35.2128 13.9167 35.2128 14.0705C35.2128 14.3524 35.0838 14.5831 34.8001 14.8138C34.5163 15.0444 34.0004 15.1469 33.2523 15.1469C32.401 15.1469 31.7819 14.9675 31.3691 14.5831C30.9564 14.1986 30.6984 13.7629 30.5694 13.2504L27.8092 14.1474C27.8866 14.5575 28.0414 14.9932 28.2735 15.4289C28.5057 15.8646 28.8411 16.249 29.2538 16.6078C29.6665 16.9666 30.2341 17.2485 30.879 17.5048C31.5239 17.7355 32.3236 17.8636 33.2523 17.8636C34.8259 17.8636 36.0125 17.5048 36.8896 16.8128C37.7409 16.1208 38.1794 15.1726 38.1794 14.0192V13.8655C38.1536 12.8659 37.7925 12.0202 37.0186 11.4307ZM49.9685 7.35562C49.4784 6.8174 48.885 6.35607 48.1627 5.99726C47.4404 5.63845 46.5633 5.45905 45.5315 5.45905C44.706 5.45905 43.9321 5.61282 43.2098 5.89474C42.4875 6.17667 41.8426 6.58674 41.3008 7.12495C40.7591 7.63754 40.3206 8.27827 40.011 9.02152C39.7014 9.76477 39.5467 10.5849 39.5467 11.4819V11.6357C39.5467 12.6096 39.7014 13.5067 39.9852 14.2755C40.269 15.0444 40.6817 15.7108 41.2234 16.249C41.7652 16.7872 42.3843 17.1973 43.1324 17.4792C43.8547 17.7611 44.6802 17.9149 45.5573 17.9149C46.3312 17.9149 47.0277 17.838 47.5952 17.6586C48.1885 17.4792 48.6787 17.2742 49.0656 16.9922C49.4784 16.7359 49.8137 16.4284 50.0459 16.0952C50.3039 15.762 50.5102 15.4545 50.6392 15.1469L48.0595 13.7117C47.879 14.0705 47.5952 14.378 47.2083 14.66C46.8213 14.9163 46.228 15.0444 45.4799 15.0444C45.0929 15.0444 44.7318 14.9932 44.3964 14.865C44.0611 14.7369 43.7515 14.5831 43.4935 14.3781C43.2356 14.173 43.0292 13.9167 42.8744 13.6092C42.7196 13.3272 42.6423 12.9941 42.6165 12.6353H51.3099V11.0462C51.3099 10.4311 51.2067 9.7904 50.9746 9.12404C50.794 8.50893 50.4328 7.89383 49.9685 7.35562ZM42.6938 10.098C42.8486 9.58537 43.1582 9.14967 43.6225 8.76523C44.1127 8.38079 44.7318 8.17575 45.4799 8.17575C46.2538 8.17575 46.8729 8.35516 47.3888 8.71397C47.879 9.07278 48.1885 9.53411 48.2917 10.098H42.6938ZM61.1126 5.45905C60.3645 5.45905 59.7196 5.63845 59.1779 5.99726C58.6362 6.35607 58.275 6.86866 58.0428 7.50939H57.6043V5.79223H52.574V8.63708H54.7151V14.7112H52.2902V17.5561H60.4677V14.7112H57.7849V10.9181C57.7849 10.0723 57.9655 9.40596 58.3524 8.94463C58.7393 8.48331 59.2553 8.25264 59.926 8.25264C60.5967 8.25264 61.0868 8.45768 61.4222 8.84212C61.7576 9.22656 61.9123 9.73914 61.9123 10.4055V10.7387L65.0079 10.4568V9.94418C65.0079 8.43205 64.6468 7.32999 63.9245 6.58674C63.2538 5.84348 62.2993 5.45905 61.1126 5.45905ZM72.1794 16.1465H71.7409L68.9548 5.79223H65.7044L69.1096 17.5561H74.8364L78.2416 5.79223H74.9912L72.1794 16.1465ZM90.5466 14.0192V5.79223H87.5284V7.22747H87.0899C86.7803 6.63799 86.3675 6.17667 85.8516 5.89474C85.3357 5.61282 84.665 5.45905 83.8137 5.45905C83.1172 5.45905 82.4465 5.58719 81.8531 5.86912C81.234 6.15104 80.6923 6.53548 80.2279 7.07369C79.7636 7.58628 79.4025 8.22701 79.1187 8.97026C78.8349 9.71351 78.7059 10.5593 78.7059 11.4819V11.8664C78.7059 12.8147 78.8349 13.6604 79.1187 14.4037C79.4025 15.1469 79.7636 15.7877 80.2537 16.3003C80.7439 16.8128 81.2856 17.2229 81.9047 17.4792C82.5238 17.7355 83.1946 17.8893 83.9169 17.8893C84.6908 17.8893 85.3615 17.7355 85.929 17.4279C86.4965 17.1204 86.9609 16.5822 87.2704 15.8389H87.709C87.709 16.3515 87.8895 16.7616 88.2249 17.0691C88.5603 17.3767 88.9988 17.5561 89.5405 17.5561H92.1202V14.7112H91.1399C90.753 14.7112 90.5466 14.4806 90.5466 14.0192ZM87.5284 11.8151C87.5284 12.8147 87.2704 13.6092 86.7287 14.173C86.2128 14.7625 85.4905 15.0444 84.6134 15.0444C83.7363 15.0444 83.0398 14.7625 82.498 14.173C81.9821 13.5835 81.6984 12.8147 81.6984 11.8151V11.5332C81.6984 10.5337 81.9563 9.73914 82.498 9.1753C83.014 8.58582 83.7363 8.3039 84.6134 8.3039C85.4905 8.3039 86.187 8.58582 86.7287 9.1753C87.2446 9.76477 87.5284 10.5337 87.5284 11.5332V11.8151ZM104.167 7.04806C103.703 6.53548 103.135 6.15104 102.516 5.86912C101.897 5.61282 101.226 5.45905 100.53 5.45905C99.6012 5.45905 98.8273 5.63845 98.2082 5.99726C97.6149 6.35607 97.1505 6.86866 96.8152 7.50939H96.3766V0.948284H93.3842V17.5561H96.4024V15.8389H96.841C96.9958 16.1208 97.1505 16.3771 97.3569 16.6078C97.5633 16.8641 97.7954 17.0691 98.105 17.2485C98.3888 17.4279 98.7499 17.5817 99.1369 17.7099C99.5238 17.8124 100.014 17.8636 100.556 17.8636C101.278 17.8636 101.975 17.7355 102.594 17.4792C103.213 17.2229 103.78 16.8385 104.219 16.3259C104.683 15.8133 105.044 15.1726 105.328 14.4293C105.586 13.6861 105.741 12.8403 105.741 11.8664V11.4307C105.741 10.4824 105.612 9.63663 105.328 8.89337C105.019 8.17575 104.632 7.56065 104.167 7.04806ZM102.697 11.8151C102.697 12.8147 102.413 13.6092 101.82 14.173C101.226 14.7625 100.478 15.0444 99.5496 15.0444C98.6209 15.0444 97.847 14.7369 97.2795 14.1474C96.6862 13.5579 96.4024 12.7634 96.4024 11.8151V11.5332C96.4024 10.5593 96.6862 9.7904 97.2795 9.20093C97.8728 8.61145 98.6209 8.3039 99.5496 8.3039C100.478 8.3039 101.252 8.58582 101.82 9.1753C102.413 9.76477 102.697 10.5337 102.697 11.5332V11.8151ZM110.926 3.89566C111.132 4.10069 111.364 4.25447 111.648 4.38261C111.906 4.51076 112.216 4.56202 112.525 4.56202C112.835 4.56202 113.119 4.51076 113.402 4.38261C113.686 4.25447 113.918 4.10069 114.125 3.89566C114.331 3.69062 114.486 3.45996 114.615 3.17804C114.744 2.89611 114.795 2.61419 114.795 2.28101C114.795 1.97346 114.744 1.66591 114.615 1.38398C114.486 1.10206 114.331 0.871397 114.125 0.666362C113.918 0.461327 113.686 0.307551 113.402 0.179404C113.119 0.0512579 112.835 0 112.525 0C112.216 0 111.906 0.0512579 111.648 0.179404C111.364 0.307551 111.132 0.461327 110.926 0.666362C110.72 0.871397 110.565 1.10206 110.436 1.38398C110.307 1.66591 110.255 1.94783 110.255 2.28101C110.255 2.58856 110.307 2.89611 110.436 3.17804C110.565 3.48559 110.72 3.71625 110.926 3.89566ZM114.073 5.79223H107.314V8.63708H111.055V14.7112H107.031V17.5561H117.504V14.7112H114.073V5.79223ZM126.069 0.948284H119.052V3.79314H123.05V14.7112H118.897V17.5561H129.938V14.7112H126.069V0.948284ZM135.072 3.89566C135.278 4.10069 135.51 4.25447 135.794 4.38261C136.052 4.51076 136.361 4.56202 136.671 4.56202C136.981 4.56202 137.264 4.51076 137.548 4.38261C137.832 4.25447 138.064 4.10069 138.27 3.89566C138.477 3.69062 138.632 3.45996 138.761 3.17804C138.89 2.89611 138.941 2.61419 138.941 2.28101C138.941 1.97346 138.89 1.66591 138.761 1.38398C138.632 1.10206 138.477 0.871397 138.27 0.666362C138.064 0.461327 137.832 0.307551 137.548 0.179404C137.264 0.0512579 136.981 0 136.671 0C136.361 0 136.052 0.0512579 135.794 0.179404C135.51 0.307551 135.278 0.461327 135.072 0.666362C134.865 0.871397 134.71 1.10206 134.581 1.38398C134.452 1.66591 134.401 1.94783 134.401 2.28101C134.401 2.58856 134.452 2.89611 134.581 3.17804C134.71 3.48559 134.865 3.71625 135.072 3.89566ZM138.219 5.79223H131.486V8.63708H135.226V14.7112H131.202V17.5561H141.676V14.7112H138.245V5.79223H138.219ZM146.5 0.948284H143.481V5.79223H139.973V8.63708H143.481V15.7108C143.481 16.249 143.662 16.6847 143.997 17.0435C144.333 17.4023 144.771 17.5561 145.313 17.5561H150.343V14.7112H147.144C146.706 14.7112 146.5 14.4806 146.5 13.9936V8.63708H150.782V5.79223H146.5V0.948284ZM160.198 11.9689C160.198 12.9684 159.991 13.7629 159.553 14.3268C159.14 14.9163 158.469 15.1982 157.566 15.1982C156.767 15.1982 156.173 14.9675 155.786 14.5062C155.399 14.0449 155.193 13.3785 155.193 12.5584V5.81786H152.175V13.1735C152.175 13.968 152.278 14.6856 152.51 15.2751C152.716 15.8646 153.026 16.3515 153.413 16.7616C153.8 17.146 154.239 17.4536 154.754 17.633C155.27 17.8124 155.812 17.9149 156.405 17.9149C158.134 17.9149 159.269 17.2229 159.811 15.8645H160.249V18.7607C160.249 19.2476 160.043 19.4783 159.604 19.4783H154.367V22.3231H161.41C161.952 22.3231 162.39 22.1437 162.726 21.8106C163.061 21.4517 163.242 21.016 163.242 20.4778V5.79223H160.198V11.9689Z" fill="white"/>
</svg>