<svg width="42" height="41" viewBox="0 0 42 41" fill="none" xmlns="http://www.w3.org/2000/svg">
<g clip-path="url(#clip0_24107_667)">
<path d="M16.9746 11.3751C18.3746 11.3751 19.5996 10.3251 19.5996 8.9251C19.5996 7.5251 18.3746 6.4751 16.9746 6.4751C15.5746 6.4751 14.3496 7.5251 14.3496 8.9251C14.3496 10.3251 15.5746 11.3751 16.9746 11.3751Z" stroke="#FF6224" stroke-width="2.5" stroke-linecap="round" stroke-linejoin="round"/>
<path d="M19.5996 8.9248H32.7246" stroke="#FF6224" stroke-width="2.5" stroke-linecap="round" stroke-linejoin="round"/>
<path d="M9.09961 8.9248H14.3496" stroke="#FF6224" stroke-width="2.5" stroke-linecap="round" stroke-linejoin="round"/>
<path d="M24.8496 21.5252C26.2496 21.5252 27.4746 20.4752 27.4746 19.0752C27.4746 17.6752 26.2496 16.6252 24.8496 16.6252C23.4496 16.6252 22.2246 17.6752 22.2246 19.0752C22.2246 20.3002 23.4496 21.5252 24.8496 21.5252Z" stroke="#FF6224" stroke-width="2.5" stroke-linecap="round" stroke-linejoin="round"/>
<path d="M22.3996 18.9004H9.09961" stroke="#FF6224" stroke-width="2.5" stroke-linecap="round" stroke-linejoin="round"/>
<path d="M32.8984 18.9004H27.6484" stroke="#FF6224" stroke-width="2.5" stroke-linecap="round" stroke-linejoin="round"/>
<path d="M23.624 31.5002C23.799 34.1252 24.674 36.7502 26.249 39.0252H15.749C17.324 36.7502 18.199 34.1252 18.374 31.5002" stroke="#FF6224" stroke-width="2.5" stroke-linecap="round" stroke-linejoin="round"/>
<path d="M11.8984 39.0254H30.2734" stroke="#FF6224" stroke-width="2.5" stroke-linecap="round" stroke-linejoin="round"/>
<path d="M1.39844 26.4248H40.7734" stroke="#FF6224" stroke-width="2.5" stroke-linecap="round" stroke-linejoin="round"/>
<path d="M1.39961 3.8501C1.39961 2.4501 2.62461 1.2251 4.02461 1.2251H38.1496C39.5496 1.2251 40.7746 2.4501 40.7746 3.8501V28.8751C40.7746 30.2751 39.5496 31.5001 38.1496 31.5001H3.84961C2.44961 31.5001 1.22461 30.2751 1.22461 28.8751V3.8501H1.39961Z" stroke="#FF6224" stroke-width="2.5" stroke-linecap="round" stroke-linejoin="round"/>
</g>
<defs>
<clipPath id="clip0_24107_667">
<rect width="42" height="40.425" fill="white"/>
</clipPath>
</defs>
</svg>
