<svg width="17" height="13" viewBox="0 0 17 13" fill="none" xmlns="http://www.w3.org/2000/svg">
<path d="M13.9893 3.91047C13.4691 2.60564 12.5711 1.52299 11.433 0.828443C10.2949 0.133894 8.9795 -0.134232 7.68841 0.0651594C6.39731 0.26455 5.20175 0.920456 4.28495 1.93235C3.36815 2.94425 2.78069 4.25631 2.61262 5.66744C1.80728 5.88655 1.10281 6.41865 0.631247 7.16401C0.15968 7.90938 -0.0466123 8.81683 0.0510351 9.7163C0.148682 10.6158 0.543566 11.4455 1.16167 12.05C1.77978 12.6545 2.57868 12.9922 3.40864 12.9999H4.72786C4.95397 12.9999 5.17082 12.9019 5.33071 12.7274C5.4906 12.5529 5.58042 12.3163 5.58042 12.0695C5.58042 11.8227 5.4906 11.5861 5.33071 11.4116C5.17082 11.2371 4.95397 11.1391 4.72786 11.1391H3.40864C2.95642 11.1391 2.52271 10.9431 2.20294 10.5941C1.88317 10.2451 1.70352 9.77184 1.70352 9.27833C1.70352 8.78482 1.88317 8.31152 2.20294 7.96256C2.52271 7.6136 2.95642 7.41755 3.40864 7.41755C3.63451 7.41755 3.85114 7.31963 4.01085 7.14533C4.17057 6.97103 4.2603 6.73463 4.2603 6.48814C4.26109 5.38751 4.61982 4.32292 5.27261 3.48394C5.9254 2.64496 6.82988 2.08607 7.82496 1.90678C8.82004 1.7275 9.84113 1.93947 10.7064 2.50494C11.5717 3.07041 12.2249 3.95268 12.5499 4.99462C12.5986 5.15415 12.6862 5.29624 12.8031 5.40576C12.9201 5.51528 13.0621 5.58812 13.214 5.61651C13.8351 5.73135 14.3952 6.09335 14.7861 6.63258C15.1769 7.1718 15.3708 7.84998 15.3302 8.53608C15.2895 9.22218 15.0173 9.8675 14.5662 10.3474C14.115 10.8272 13.5168 11.1076 12.8873 11.1342C12.8523 11.1342 12.1424 11.1342 12.1065 11.1342C11.8804 11.1342 11.6636 11.2322 11.5037 11.4067C11.3438 11.5812 11.254 11.8179 11.254 12.0646C11.254 12.3114 11.3438 12.548 11.5037 12.7225C11.6636 12.897 11.8804 12.995 12.1065 12.995H12.8774C13.8837 12.9577 14.8453 12.5325 15.5915 11.7949C16.3378 11.0573 16.8204 10.0549 16.9537 8.96586C17.087 7.87678 16.8623 6.77138 16.3197 5.84588C15.777 4.92039 14.9513 4.23468 13.9893 3.91047Z" fill="#5787D1"/>
</svg>
