<svg width="25" height="26" viewBox="0 0 25 26" fill="none" xmlns="http://www.w3.org/2000/svg">
<path d="M3.35693 20.1781C3.57122 16.4281 6.67834 13.6424 10.3212 13.7496H14.0712C17.8211 13.6424 20.9283 16.4281 21.0354 20.1781" stroke="#FB755A" stroke-width="1.5" stroke-linecap="round" stroke-linejoin="round"/>
<path d="M12.1436 7.42871V20.2858" stroke="#FB755A" stroke-width="1.5" stroke-linecap="round" stroke-linejoin="round"/>
<path d="M12.143 7.42854C13.9644 7.42854 15.3572 6.03569 15.3572 4.21427C15.3572 2.39285 13.9644 1 12.143 1C10.3216 1 8.92871 2.39285 8.92871 4.21427C8.92871 6.03569 10.4287 7.42854 12.143 7.42854Z" stroke="#FB755A" stroke-width="1.5" stroke-linecap="round" stroke-linejoin="round"/>
<path d="M3.35713 24.9999C4.64284 24.9999 5.71426 23.9285 5.71426 22.6428C5.71426 21.3571 4.64284 20.2856 3.35713 20.2856C2.07142 20.2856 1 21.3571 1 22.6428C1 23.9285 2.07142 24.9999 3.35713 24.9999Z" fill="#FDD9BE" stroke="#FB755A" stroke-width="1.5" stroke-linecap="round" stroke-linejoin="round"/>
<path d="M12.1418 24.9999C13.4275 24.9999 14.4989 23.9285 14.4989 22.6428C14.4989 21.3571 13.4275 20.2856 12.1418 20.2856C10.8561 20.2856 9.78467 21.3571 9.78467 22.6428C9.78467 23.9285 10.8561 24.9999 12.1418 24.9999Z" fill="#FDD9BE" stroke="#FB755A" stroke-width="1.5" stroke-linecap="round" stroke-linejoin="round"/>
<path d="M21.0354 24.9999C22.3211 24.9999 23.3925 23.9285 23.3925 22.6428C23.3925 21.3571 22.3211 20.2856 21.0354 20.2856C19.7496 20.2856 18.6782 21.3571 18.6782 22.6428C18.6782 23.9285 19.7496 24.9999 21.0354 24.9999Z" fill="#FDD9BE" stroke="#FB755A" stroke-width="1.5" stroke-linecap="round" stroke-linejoin="round"/>
</svg>
