<svg width="20" height="20" viewBox="0 0 20 20" fill="none" xmlns="http://www.w3.org/2000/svg">
<path d="M10 20C4.48593 20 0 15.5141 0 10C0 4.48593 4.48593 0 10 0C15.5141 0 20 4.48593 20 10C20 15.5141 15.5141 20 10 20ZM10 2.22222C5.71111 2.22222 2.22222 5.71111 2.22222 10C2.22222 14.2889 5.71111 17.7778 10 17.7778C14.2889 17.7778 17.7778 14.2889 17.7778 10C17.7778 5.71111 14.2889 2.22222 10 2.22222Z" fill="#FDBEC4"/>
<path d="M8.76595 14.708C8.28002 14.708 7.8178 14.5539 7.42965 14.2606C7.34521 14.1969 7.26817 14.1302 7.19558 14.0576L4.97484 11.8369C4.54224 11.4043 4.54224 10.6991 4.97484 10.265C5.18521 10.0546 5.46372 9.93908 5.76002 9.93908C6.05632 9.93908 6.33632 10.0546 6.54521 10.265L8.76743 12.4872L13.0726 6.74797C13.2815 6.46945 13.6134 6.30353 13.9615 6.30353C14.203 6.30353 14.4326 6.38057 14.6267 6.52427C15.1185 6.89316 15.2178 7.59093 14.8504 8.08131L10.5467 13.8191C10.1274 14.3761 9.46224 14.708 8.76595 14.708Z" fill="#FDBEC4"/>
</svg>
