<svg width="26" height="26" viewBox="0 0 26 26" fill="none" xmlns="http://www.w3.org/2000/svg">
<path d="M1 11.9717L10.1428 7.70499L18.6762 8.92404L24.1619 4.04785V24.1621H1V11.9717Z" fill="#FDD9BE"/>
<path d="M1 25.0002L7.93333 19.3469C8.57333 18.8136 9.42666 18.6002 10.28 18.7069L15.5067 19.2402C15.9333 19.2402 16.36 19.2402 16.68 19.1336L24.8933 16.8936" stroke="#FB755A" stroke-width="1.5" stroke-linecap="round" stroke-linejoin="round"/>
<path d="M1 18.4932L8.25333 14.1199C8.78666 13.7999 9.31999 13.6932 9.85332 13.6932H15.5067C15.9333 13.6932 16.4667 13.5866 16.7867 13.3732L24.8933 9.74658" stroke="#FB755A" stroke-width="1.5" stroke-linecap="round" stroke-linejoin="round"/>
<path d="M1 12.0933L9.63999 7.82666C10.28 7.50666 11.0267 7.39999 11.7733 7.61333L16.1467 8.57333C17.1066 8.78666 18.1733 8.57332 18.92 7.82666L24.8933 2.49333V24.8933H1V1" stroke="#FB755A" stroke-width="1.5" stroke-linecap="round" stroke-linejoin="round"/>
</svg>
