<svg width="26" height="25" viewBox="0 0 26 25" fill="none" xmlns="http://www.w3.org/2000/svg">
<path d="M24.1524 7.14507L13.4667 1.59269C13.0476 1.38317 12.419 1.38317 12 1.59269L1.31429 7.14507C1.10476 7.24983 1 7.45936 1 7.66888C1 7.8784 1.10476 8.08793 1.31429 8.19269L12 13.7451C12.419 13.9546 13.0476 13.9546 13.4667 13.7451L24.1524 8.19269C24.3619 8.08793 24.4667 7.8784 24.4667 7.66888C24.5714 7.45936 24.3619 7.24983 24.1524 7.14507Z" fill="#FDD9BE" stroke="#FB755A" stroke-width="1.5" stroke-linecap="round" stroke-linejoin="round"/>
<path d="M1 13.2212L12 18.564C12.419 18.7736 13.0476 18.7736 13.4667 18.564L24.5714 13.2212" stroke="#FB755A" stroke-width="1.5" stroke-linecap="round" stroke-linejoin="round"/>
<path d="M1 17.9355L12 23.2784C12.419 23.4879 13.0476 23.4879 13.4667 23.2784L24.5714 17.9355" stroke="#FB755A" stroke-width="1.5" stroke-linecap="round" stroke-linejoin="round"/>
</svg>
