<svg xmlns="http://www.w3.org/2000/svg" width="214.456" height="174.716" viewBox="0 0 214.456 174.716">
  <g id="Group_1473" data-name="Group 1473" transform="translate(-467.542 -2276)">
    <g id="Group_1445" data-name="Group 1445" transform="translate(471.042 2288.058)">
      <path id="Path_1348" data-name="Path 1348" d="M0,0H39.519V46.428H0Z" transform="translate(0 111.28)" fill="#ff9830" stroke="#5794f2" stroke-linecap="round" stroke-linejoin="round" stroke-width="7"/>
      <rect id="Rectangle_543" data-name="Rectangle 543" width="39.519" height="78.117" transform="translate(39.519 79.591)" stroke-width="7" stroke="#5794f2" stroke-linecap="round" stroke-linejoin="round" fill="none"/>
      <rect id="Rectangle_544" data-name="Rectangle 544" width="39.519" height="114.965" transform="translate(79.038 42.743)" stroke-width="7" stroke="#5794f2" stroke-linecap="round" stroke-linejoin="round" fill="#8ab8ff"/>
      <rect id="Rectangle_545" data-name="Rectangle 545" width="39.519" height="157.708" transform="translate(118.557 0)" stroke-width="7" stroke="#021e40" stroke-linecap="round" stroke-linejoin="round" fill="#fade2a"/>
      <g id="Group_1444" data-name="Group 1444" transform="translate(118.557 0)">
        <line id="Line_103" data-name="Line 103" y1="24.074" transform="translate(39.519 121.72)" fill="none" stroke="#5794f2" stroke-linecap="round" stroke-linejoin="round" stroke-width="7"/>
        <line id="Line_104" data-name="Line 104" y2="24.074" transform="translate(0 9.98)" fill="none" stroke="#5794f2" stroke-linecap="round" stroke-linejoin="round" stroke-width="7"/>
        <line id="Line_105" data-name="Line 105" y2="24.074" transform="translate(39.519 97.646)" fill="none" stroke="#5794f2" stroke-linecap="round" stroke-linejoin="round" stroke-width="7"/>
        <path id="Path_1332" data-name="Path 1332" d="M1432.469,191.5h-14.094v9.98" transform="translate(-1418.375 -191.5)" fill="none" stroke="#5794f2" stroke-linecap="round" stroke-linejoin="round" stroke-width="7"/>
        <path id="Path_1333" data-name="Path 1333" d="M1462.925,216.925V191.5H1437.5" transform="translate(-1423.406 -191.5)" fill="none" stroke="#5794f2" stroke-linecap="round" stroke-linejoin="round" stroke-width="7"/>
        <line id="Line_106" data-name="Line 106" y1="24.074" transform="translate(39.519 73.572)" fill="none" stroke="#5794f2" stroke-linecap="round" stroke-linejoin="round" stroke-width="7"/>
        <line id="Line_107" data-name="Line 107" y1="24.074" transform="translate(0 82.201)" fill="none" stroke="#5794f2" stroke-linecap="round" stroke-linejoin="round" stroke-width="7"/>
        <line id="Line_108" data-name="Line 108" y1="24.074" transform="translate(0 34.053)" fill="none" stroke="#5794f2" stroke-linecap="round" stroke-linejoin="round" stroke-width="7"/>
        <line id="Line_109" data-name="Line 109" y2="24.074" transform="translate(39.519 25.425)" fill="none" stroke="#5794f2" stroke-linecap="round" stroke-linejoin="round" stroke-width="7"/>
        <line id="Line_110" data-name="Line 110" y2="24.074" transform="translate(39.519 49.499)" fill="none" stroke="#5794f2" stroke-linecap="round" stroke-linejoin="round" stroke-width="7"/>
        <path id="Path_1334" data-name="Path 1334" d="M1467.66,389.333v11.914H1455.5" transform="translate(-1428.141 -243.54)" fill="none" stroke="#5794f2" stroke-linecap="round" stroke-linejoin="round" stroke-width="7"/>
        <path id="Path_1335" data-name="Path 1335" d="M1418.375,368.375v27.359h27.359" transform="translate(-1418.375 -238.027)" fill="none" stroke="#5794f2" stroke-linecap="round" stroke-linejoin="round" stroke-width="7"/>
        <line id="Line_111" data-name="Line 111" y1="24.074" transform="translate(0 106.275)" fill="none" stroke="#5794f2" stroke-linecap="round" stroke-linejoin="round" stroke-width="7"/>
        <line id="Line_112" data-name="Line 112" y2="24.074" transform="translate(0 58.127)" fill="none" stroke="#5794f2" stroke-linecap="round" stroke-linejoin="round" stroke-width="7"/>
        <line id="Line_113" data-name="Line 113" x2="25.425" y2="25.425" transform="translate(14.094)" fill="none" stroke="#5794f2" stroke-linecap="round" stroke-linejoin="round" stroke-width="7"/>
        <line id="Line_114" data-name="Line 114" x2="39.519" y2="39.519" transform="translate(0 9.98)" fill="none" stroke="#5794f2" stroke-linecap="round" stroke-linejoin="round" stroke-width="7"/>
        <line id="Line_115" data-name="Line 115" x2="39.519" y2="39.519" transform="translate(0 34.053)" fill="none" stroke="#5794f2" stroke-linecap="round" stroke-linejoin="round" stroke-width="7"/>
        <line id="Line_116" data-name="Line 116" x1="8.106" y1="8.106" transform="translate(31.413 89.54)" fill="none" stroke="#5794f2" stroke-linecap="round" stroke-linejoin="round" stroke-width="7"/>
        <line id="Line_117" data-name="Line 117" x2="31.413" y2="31.413" transform="translate(0 58.127)" fill="none" stroke="#5794f2" stroke-linecap="round" stroke-linejoin="round" stroke-width="7"/>
        <line id="Line_118" data-name="Line 118" x1="39.519" y1="39.519" transform="translate(0 82.201)" fill="none" stroke="#5794f2" stroke-linecap="round" stroke-linejoin="round" stroke-width="7"/>
        <line id="Line_119" data-name="Line 119" x2="39.519" y2="39.519" transform="translate(0 106.275)" fill="none" stroke="#5794f2" stroke-linecap="round" stroke-linejoin="round" stroke-width="7"/>
        <line id="Line_120" data-name="Line 120" x2="27.359" y2="27.359" transform="translate(0 130.348)" fill="none" stroke="#5794f2" stroke-linecap="round" stroke-linejoin="round" stroke-width="7"/>
      </g>
    </g>
    <path id="Path_1336" data-name="Path 1336" d="M248.3,1321h10.3v10.3H248.3ZM238,1341.6h10.3v-10.3H238Z" transform="translate(233 1008.599)" fill="#e1eaf9"/>
    <path id="Path_1337" data-name="Path 1337" d="M-1508.191,603.356a8.348,8.348,0,0,1-8.348-8.348,8.348,8.348,0,0,1,8.348-8.348,8.348,8.348,0,0,1,8.348,8.348A8.347,8.347,0,0,1-1508.191,603.356Z" transform="translate(2045.046 1689.34)" fill="#fade2a"/>
    <g id="Group_1446" data-name="Group 1446" transform="translate(660.217 2391.072)">
      <path id="Path_1338" data-name="Path 1338" d="M-2094.127,584.667a2.142,2.142,0,0,1-2.139-2.139,2.141,2.141,0,0,1,2.139-2.139,2.142,2.142,0,0,1,2.139,2.139A2.142,2.142,0,0,1-2094.127,584.667Z" transform="translate(2113.769 -580.388)" fill="#ff9830"/>
      <path id="Path_1339" data-name="Path 1339" d="M-2106.4,596.938a2.141,2.141,0,0,1-2.139-2.139,2.142,2.142,0,0,1,2.139-2.139,2.142,2.142,0,0,1,2.14,2.139A2.141,2.141,0,0,1-2106.4,596.938Z" transform="translate(2117.29 -583.909)" fill="#ff9830"/>
      <path id="Path_1340" data-name="Path 1340" d="M-2118.672,609.211a2.141,2.141,0,0,1-2.139-2.139,2.141,2.141,0,0,1,2.139-2.139,2.142,2.142,0,0,1,2.139,2.139A2.142,2.142,0,0,1-2118.672,609.211Z" transform="translate(2120.811 -587.43)" fill="#ff9830"/>
    </g>
  </g>
</svg>
