<svg width="29" height="29" viewBox="0 0 29 29" fill="none" xmlns="http://www.w3.org/2000/svg">
<path d="M14.4995 2.87006V1.07007V2.87006Z" fill="#FF6224"/>
<path d="M14.4995 2.87006V1.07007" stroke="#FF6224" stroke-width="1.86" stroke-linecap="round" stroke-linejoin="round"/>
<path d="M2.8 11.8701H1H2.8Z" fill="#FF6224"/>
<path d="M2.8 11.8701H1" stroke="#FF6224" stroke-width="1.86" stroke-linecap="round" stroke-linejoin="round"/>
<path d="M2.80029 2.87036L4.60029 4.67036L2.80029 2.87036Z" fill="#FF6224"/>
<path d="M2.80029 2.87036L4.60029 4.67036" stroke="#FF6224" stroke-width="1.86" stroke-linecap="round" stroke-linejoin="round"/>
<path d="M26.2002 11.8701H28.0002H26.2002Z" fill="#FF6224"/>
<path d="M26.2002 11.8701H28.0002" stroke="#FF6224" stroke-width="1.86" stroke-linecap="round" stroke-linejoin="round"/>
<path d="M26.1999 2.87036L24.3999 4.67036L26.1999 2.87036Z" fill="#FF6224"/>
<path d="M26.1999 2.87036L24.3999 4.67036" stroke="#FF6224" stroke-width="1.86" stroke-linecap="round" stroke-linejoin="round"/>
<path fill-rule="evenodd" clip-rule="evenodd" d="M11.4189 5.53986H17.5843H17.591V5.53989C18.7005 5.54795 19.7684 5.96299 20.5923 6.7061C21.4161 7.4492 21.9385 8.46877 22.0606 9.57148L22.0606 9.57163L23.4171 21.8139C24.3151 21.9785 25.1492 22.4122 25.8037 23.0667C26.6532 23.9162 27.1305 25.0683 27.1305 26.2697C27.1305 26.9937 26.8429 27.6881 26.331 28.2001C25.819 28.7121 25.1246 28.9997 24.4005 28.9997H4.6006C3.87658 28.9997 3.18218 28.7121 2.67019 28.2001C2.1582 27.6881 1.87061 26.9937 1.87061 26.2697C1.87061 25.0683 2.34792 23.9162 3.19742 23.0667C3.83983 22.4243 4.65534 21.9946 5.53439 21.8233L6.89191 9.57162L6.89192 9.57148C7.01512 8.4584 7.54627 7.43048 8.38277 6.68599C9.21854 5.94216 10.3 5.53381 11.4189 5.53986ZM22.5762 23.5998H6.37966C5.67918 23.6053 5.00848 23.886 4.51264 24.3819C4.01189 24.8826 3.7306 25.5616 3.7306 26.2697C3.7306 26.5005 3.82226 26.7218 3.98541 26.8849C4.14855 27.0481 4.36984 27.1397 4.6006 27.1397H24.4005C24.6313 27.1397 24.8526 27.0481 25.0157 26.8849C25.1789 26.7218 25.2705 26.5005 25.2705 26.2697C25.2705 25.5616 24.9893 24.8826 24.4885 24.3819C23.9877 23.8811 23.3086 23.5997 22.6006 23.5997H22.5886L22.5762 23.5998ZM20.2119 9.77632L21.5375 21.7397H7.41503L8.7406 9.77632L8.74062 9.77619C8.81321 9.12015 9.12626 8.51426 9.61935 8.0754C10.1125 7.63652 10.7506 7.39584 11.4106 7.39984L11.4106 7.39986H11.4163H17.5806C18.2334 7.40536 18.8616 7.64989 19.3464 8.08723C19.832 8.52524 20.14 9.12621 20.2119 9.77618L20.2119 9.77632ZM18.6103 12.3269C18.8626 11.8796 18.7045 11.3123 18.2572 11.06C17.8098 10.8077 17.2426 10.9658 16.9902 11.4131L13.238 18.0656L11.3426 15.554C11.0332 15.144 10.4501 15.0625 10.0401 15.3719C9.63009 15.6813 9.54855 16.2645 9.85795 16.6744L11.8099 19.2609C11.9858 19.4957 12.2165 19.6994 12.4978 19.8343C12.7752 19.9674 13.0848 20.0247 13.3986 19.9902C13.7095 19.9639 13.9966 19.8516 14.2407 19.6811C14.4895 19.5072 14.6861 19.2788 14.8304 19.0283L14.8304 19.0283L14.8345 19.021L18.6103 12.3269Z" fill="#FF6224"/>
</svg>
