<svg width="191" height="32" viewBox="0 0 191 32" fill="none" xmlns="http://www.w3.org/2000/svg">
<path d="M41.4382 23H43.4134V18.9283L44.9602 17.1513L49.1918 23H51.5696L46.2706 15.8026L51.5504 9.90909H49.0639L43.5732 16.1605H43.4134V9.90909H41.4382V23ZM58.5722 18.9283C58.5785 20.5966 57.3385 21.3892 56.2646 21.3892C55.0821 21.3892 54.2639 20.5327 54.2639 19.1967V13.1818H52.3527V19.4268C52.3527 21.8622 53.6886 23.1278 55.5743 23.1278C57.0508 23.1278 58.0544 22.348 58.5082 21.2997H58.6105V23H60.4898V13.1818H58.5722V18.9283ZM62.9412 23H64.8077V21.4723H64.9675C65.3126 22.0987 66.0158 23.1918 67.8055 23.1918C70.1834 23.1918 71.9092 21.2869 71.9092 18.1101C71.9092 14.9268 70.1578 13.054 67.7863 13.054C65.9646 13.054 65.3062 14.1662 64.9675 14.7734H64.8524V9.90909H62.9412V23ZM64.814 18.0909C64.814 16.0391 65.7089 14.6776 67.3773 14.6776C69.1095 14.6776 69.9788 16.1413 69.9788 18.0909C69.9788 20.0597 69.0839 21.5618 67.3773 21.5618C65.7345 21.5618 64.814 20.1555 64.814 18.0909ZM78.0169 23.1982C80.1582 23.1982 81.6731 22.1435 82.1078 20.5455L80.2988 20.2195C79.9537 21.1463 79.1227 21.6193 78.0361 21.6193C76.3997 21.6193 75.3003 20.5582 75.2491 18.6662H82.2292V17.9886C82.2292 14.4411 80.1071 13.054 77.8826 13.054C75.1469 13.054 73.3443 15.1378 73.3443 18.1548C73.3443 21.2038 75.1213 23.1982 78.0169 23.1982ZM75.2555 17.2344C75.3322 15.8409 76.3422 14.6328 77.8954 14.6328C79.3784 14.6328 80.35 15.7322 80.3564 17.2344H75.2555ZM84.0798 23H85.991V17.0043C85.991 15.7195 86.9818 14.7926 88.3369 14.7926C88.7332 14.7926 89.1807 14.8629 89.3341 14.9077V13.0795C89.1423 13.054 88.7652 13.0348 88.5223 13.0348C87.3717 13.0348 86.3873 13.6868 86.0294 14.7415H85.9271V13.1818H84.0798V23ZM92.6292 17.1705C92.6292 15.6044 93.588 14.7095 94.9176 14.7095C96.2152 14.7095 97.0014 15.5597 97.0014 16.9851V23H98.9126V16.755C98.9126 14.326 97.5767 13.054 95.5696 13.054C94.093 13.054 93.1278 13.7379 92.674 14.7798H92.5525V13.1818H90.718V23H92.6292V17.1705ZM105.437 23.1982C107.579 23.1982 109.094 22.1435 109.528 20.5455L107.719 20.2195C107.374 21.1463 106.543 21.6193 105.457 21.6193C103.82 21.6193 102.721 20.5582 102.67 18.6662H109.65V17.9886C109.65 14.4411 107.528 13.054 105.303 13.054C102.567 13.054 100.765 15.1378 100.765 18.1548C100.765 21.2038 102.542 23.1982 105.437 23.1982ZM102.676 17.2344C102.753 15.8409 103.763 14.6328 105.316 14.6328C106.799 14.6328 107.77 15.7322 107.777 17.2344H102.676ZM116.083 13.1818H114.07V10.8295H112.159V13.1818H110.72V14.7159H112.159V20.5135C112.152 22.2969 113.514 23.1598 115.022 23.1278C115.63 23.1214 116.039 23.0064 116.262 22.9233L115.917 21.3445C115.789 21.37 115.553 21.4276 115.246 21.4276C114.626 21.4276 114.07 21.223 114.07 20.1172V14.7159H116.083V13.1818ZM122.054 23.1982C124.195 23.1982 125.71 22.1435 126.145 20.5455L124.336 20.2195C123.99 21.1463 123.159 21.6193 122.073 21.6193C120.436 21.6193 119.337 20.5582 119.286 18.6662H126.266V17.9886C126.266 14.4411 124.144 13.054 121.919 13.054C119.184 13.054 117.381 15.1378 117.381 18.1548C117.381 21.2038 119.158 23.1982 122.054 23.1982ZM119.292 17.2344C119.369 15.8409 120.379 14.6328 121.932 14.6328C123.415 14.6328 124.387 15.7322 124.393 17.2344H119.292ZM135.474 15.5788C135.077 14.0511 133.882 13.054 131.76 13.054C129.542 13.054 127.97 14.2237 127.97 15.9624C127.97 17.3558 128.813 18.2827 130.654 18.6918L132.316 19.0561C133.262 19.267 133.703 19.6889 133.703 20.3026C133.703 21.0632 132.891 21.6577 131.639 21.6577C130.494 21.6577 129.759 21.1655 129.529 20.2003L127.682 20.4815C128.001 22.2202 129.446 23.1982 131.651 23.1982C134.023 23.1982 135.666 21.9389 135.666 20.1619C135.666 18.7749 134.783 17.9183 132.981 17.5028L131.421 17.1449C130.341 16.8892 129.874 16.5249 129.881 15.8601C129.874 15.1058 130.693 14.5689 131.779 14.5689C132.968 14.5689 133.518 15.2273 133.742 15.8857L135.474 15.5788Z" fill="black"/>
<path d="M30.1131 7.09455C29.9244 6.49076 29.4716 6.00018 28.9055 5.69828L17.3958 0.188685C17.0939 0.037737 16.7542 0 16.4523 0C16.1504 0 15.8108 0 15.5089 0.0754739L3.99915 5.62281C3.4331 5.88696 3.01799 6.37755 2.86704 7.01907L0.0367693 19.4345C-0.0764415 20.0761 0.0745063 20.7176 0.451876 21.2459L8.41437 31.0953C8.86722 31.5481 9.50875 31.85 10.1503 31.8877H22.8299C23.5092 31.9632 24.1507 31.6613 24.5658 31.0953L32.5283 21.2459C32.9057 20.7176 33.0566 20.0761 32.9811 19.4345L30.1131 7.09455Z" fill="#326DE6"/>
<path d="M28.3401 18.9438C28.3024 18.9438 28.2647 18.9438 28.2647 18.9061C28.2647 18.8684 28.1892 18.8684 28.1137 18.8684C27.9628 18.8306 27.8118 18.8306 27.6609 18.8306C27.5854 18.8306 27.5099 18.8306 27.4345 18.7929H27.3967C26.9816 18.7552 26.5288 18.6797 26.1137 18.5665C26.0005 18.5287 25.8872 18.4155 25.8495 18.3023C25.8872 18.3023 25.8495 18.3023 25.8495 18.3023L25.5476 18.2268C25.6986 17.1325 25.6231 16.0004 25.3967 14.906C25.1325 13.8116 24.6797 12.755 24.0759 11.8116L24.3023 11.5851V11.5474C24.3023 11.4342 24.34 11.2832 24.4155 11.2078C24.7551 10.9059 25.0948 10.6795 25.4721 10.453C25.5476 10.4153 25.6231 10.3776 25.6986 10.3398C25.8495 10.2643 25.9627 10.1889 26.1137 10.1134C26.1514 10.0757 26.1891 10.0757 26.2269 10.0379C26.2646 10.0002 26.2269 10.0002 26.2269 9.96245C26.5665 9.69829 26.642 9.24545 26.3778 8.90582C26.2646 8.75487 26.0382 8.64166 25.8495 8.64166C25.6608 8.64166 25.4721 8.71713 25.3212 8.83034L25.2834 8.86808C25.2457 8.90582 25.208 8.94355 25.1702 8.94355C25.057 9.05676 24.9438 9.16997 24.8683 9.28319C24.8306 9.35866 24.7551 9.3964 24.7174 9.43413C24.4532 9.73603 24.1136 10.0379 23.774 10.2643C23.6985 10.3021 23.623 10.3398 23.5475 10.3398C23.5098 10.3398 23.4343 10.3398 23.3966 10.3021H23.3589L23.057 10.4908C22.7551 10.1889 22.4154 9.88698 22.1135 9.58508C20.7173 8.49071 18.9814 7.81144 17.2077 7.62276L17.17 7.32086V7.3586C17.0568 7.28313 17.0191 7.16992 16.9813 7.0567C16.9813 6.6416 16.9813 6.22649 17.0568 5.77365V5.73591C17.0568 5.66044 17.0945 5.58496 17.0945 5.50949C17.1323 5.35854 17.1323 5.20759 17.17 5.05665V4.83022C17.2077 4.45285 16.9058 4.07549 16.5285 4.03775C16.3021 4.00001 16.0756 4.11322 15.8869 4.30191C15.736 4.45285 15.6605 4.64154 15.6605 4.83022V5.01891C15.6605 5.16986 15.6983 5.3208 15.736 5.47175C15.7737 5.54723 15.7737 5.6227 15.7737 5.69817V5.73591C15.8492 6.15102 15.8492 6.56612 15.8492 7.01897C15.8115 7.13218 15.7737 7.24539 15.6605 7.32086V7.39634L15.6228 7.69823C15.2077 7.73597 14.7926 7.81144 14.3397 7.88692C12.5661 8.26429 10.9434 9.20771 9.69809 10.5285L9.47167 10.3776H9.43393C9.39619 10.3776 9.35845 10.4153 9.28298 10.4153C9.20751 10.4153 9.13203 10.3776 9.05656 10.3398C8.71693 10.0757 8.37729 9.77377 8.11313 9.47187C8.0754 9.3964 7.99992 9.35866 7.96219 9.32092C7.84898 9.20771 7.7735 9.0945 7.66029 8.98129C7.62255 8.94355 7.58482 8.94355 7.54708 8.90582C7.50934 8.86808 7.50934 8.86808 7.50934 8.86808C7.3584 8.75487 7.16971 8.67939 6.98103 8.67939C6.7546 8.67939 6.56592 8.75487 6.45271 8.94355C6.22629 9.28319 6.30176 9.73603 6.60366 10.0002C6.64139 10.0002 6.64139 10.0379 6.64139 10.0379C6.64139 10.0379 6.71687 10.1134 6.7546 10.1134C6.86782 10.1889 7.01876 10.2643 7.16971 10.3398C7.24518 10.3776 7.32066 10.4153 7.39613 10.453C7.7735 10.6795 8.15087 10.9059 8.45277 11.2078C8.52824 11.2832 8.60371 11.4342 8.56598 11.5474V11.5097L8.7924 11.7361C8.75466 11.8116 8.71693 11.8493 8.67919 11.9248C7.50934 13.7739 7.01876 15.9626 7.3584 18.1136L7.0565 18.1891C7.0565 18.2268 7.01876 18.2268 7.01876 18.2268C6.98103 18.3401 6.86782 18.4155 6.7546 18.491C6.3395 18.6042 5.92439 18.6797 5.47155 18.7174C5.39607 18.7174 5.3206 18.7174 5.24513 18.7552C5.09418 18.7552 4.94323 18.7929 4.79228 18.7929C4.75455 18.7929 4.71681 18.8306 4.64133 18.8306C4.6036 18.8306 4.6036 18.8306 4.56586 18.8684C4.15075 18.9438 3.8866 19.3212 3.96207 19.7363C4.03754 20.076 4.37718 20.3024 4.71681 20.2646C4.79228 20.2646 4.83002 20.2646 4.90549 20.2269C4.94323 20.2269 4.94323 20.2269 4.94323 20.1892C4.94323 20.1514 5.05644 20.1892 5.09418 20.1892C5.24513 20.1514 5.39607 20.076 5.50928 20.0382C5.58476 20.0005 5.66023 19.9627 5.73571 19.9627H5.77344C6.18855 19.8118 6.56592 19.6986 7.01876 19.6231H7.0565C7.16971 19.6231 7.28292 19.6608 7.3584 19.7363C7.39613 19.7363 7.39613 19.7741 7.39613 19.7741L7.73577 19.7363C8.30182 21.4722 9.35845 23.0194 10.8302 24.1515C11.1698 24.4157 11.4717 24.6421 11.8491 24.8308L11.6604 25.095C11.6604 25.1327 11.6981 25.1327 11.6981 25.1327C11.7736 25.2459 11.7736 25.3969 11.7359 25.5101C11.5849 25.8874 11.3585 26.2648 11.1321 26.6044V26.6422C11.0944 26.7177 11.0566 26.7554 10.9811 26.8309C10.9057 26.9063 10.8302 27.0573 10.717 27.2082C10.6792 27.246 10.6792 27.2837 10.6415 27.3215C10.6415 27.3215 10.6415 27.3592 10.6038 27.3592C10.4151 27.7366 10.566 28.1894 10.9057 28.3781C10.9811 28.4158 11.0944 28.4536 11.1698 28.4536C11.4717 28.4536 11.7359 28.2649 11.8868 28.0007C11.8868 28.0007 11.8868 27.963 11.9246 27.963C11.9246 27.9252 11.9623 27.8875 12 27.8498C12.0378 27.6988 12.1133 27.5856 12.151 27.4347L12.2265 27.2082C12.3397 26.7931 12.5284 26.4158 12.717 26.0384C12.7925 25.9252 12.9057 25.8497 13.0189 25.812C13.0567 25.812 13.0567 25.812 13.0567 25.7742L13.2076 25.4723C14.2643 25.8874 15.3586 26.0761 16.4907 26.0761C17.17 26.0761 17.8493 26.0007 18.5285 25.812C18.9436 25.7365 19.3587 25.5856 19.7361 25.4723L19.8871 25.7365C19.9248 25.7365 19.9248 25.7365 19.9248 25.7742C20.038 25.812 20.1512 25.8874 20.2267 26.0007C20.4154 26.378 20.6041 26.7554 20.7173 27.1705V27.2082L20.7928 27.4347C20.8305 27.5856 20.8682 27.7366 20.9437 27.8498C20.9814 27.8875 20.9814 27.9252 21.0192 27.963C21.0192 27.963 21.0192 28.0007 21.0569 28.0007C21.2079 28.2649 21.472 28.4536 21.7739 28.4536C21.8871 28.4536 21.9626 28.4158 22.0758 28.3781C22.2268 28.3026 22.3777 28.1517 22.4154 27.963C22.4532 27.7743 22.4532 27.5856 22.3777 27.3969C22.3777 27.3592 22.34 27.3592 22.34 27.3592C22.34 27.3215 22.3022 27.2837 22.2645 27.246C22.189 27.095 22.1135 26.9818 22.0003 26.8686C21.9626 26.7931 21.9249 26.7554 21.8494 26.6799V26.6044C21.5852 26.2648 21.3965 25.8874 21.2456 25.5101C21.2079 25.3969 21.2079 25.2459 21.2833 25.1327C21.2833 25.095 21.3211 25.095 21.3211 25.095L21.2079 24.7931C23.1324 23.6232 24.6042 21.8119 25.2834 19.6608L25.5853 19.6986C25.6231 19.6986 25.6231 19.6608 25.6231 19.6608C25.6986 19.5854 25.8118 19.5476 25.925 19.5476H25.9627C26.3778 19.6231 26.7929 19.7363 27.1703 19.8873H27.208C27.2835 19.925 27.359 19.9627 27.4345 19.9627C27.5854 20.0382 27.6986 20.1137 27.8496 20.1514C27.8873 20.1514 27.925 20.1892 28.0005 20.1892C28.0382 20.1892 28.0382 20.1892 28.076 20.2269C28.1515 20.2646 28.1892 20.2646 28.2647 20.2646C28.6043 20.2646 28.9062 20.0382 29.0194 19.7363C28.9817 19.3212 28.6798 19.0193 28.3401 18.9438ZM17.4342 17.774L16.4153 18.2646L15.3964 17.774L15.1322 16.6796L15.8492 15.7739H16.9813L17.6983 16.6796L17.4342 17.774ZM23.5853 15.3211C23.774 16.1136 23.8117 16.9061 23.7362 17.6985L20.1512 16.6796C19.8116 16.6042 19.6229 16.2645 19.6984 15.9249C19.7361 15.8117 19.7739 15.7362 19.8493 15.6607L22.6796 13.0946C23.0947 13.7739 23.3966 14.5286 23.5853 15.3211ZM21.5475 11.6984L18.4531 13.8871C18.1889 14.038 17.8115 14.0003 17.6228 13.7361C17.5474 13.6607 17.5096 13.5852 17.5096 13.472L17.2832 9.66055C18.9436 9.84924 20.4154 10.5662 21.5475 11.6984ZM14.7171 9.77377L15.4718 9.62282L15.2832 13.3965C15.2832 13.7361 14.9813 14.0003 14.6416 14.0003C14.5284 14.0003 14.4529 13.9626 14.3397 13.9248L11.2076 11.6984C12.1887 10.7549 13.3963 10.0757 14.7171 9.77377ZM10.1132 13.0946L12.9057 15.5853C13.1699 15.8117 13.2076 16.189 12.9812 16.4532C12.9057 16.5664 12.8303 16.6042 12.6793 16.6419L9.01882 17.6985C8.90561 16.1136 9.28298 14.4909 10.1132 13.0946ZM9.47167 19.4722L13.2076 18.8306C13.5095 18.8306 13.8114 19.0193 13.8492 19.3212C13.8869 19.4344 13.8869 19.5854 13.8114 19.6986L12.3774 23.1704C11.0566 22.3024 9.99998 20.9816 9.47167 19.4722ZM18.038 24.1515C17.5096 24.2648 16.9813 24.3402 16.4153 24.3402C15.6228 24.3402 14.7926 24.1893 14.0378 23.9629L15.8869 20.6043C16.0756 20.3778 16.3775 20.3024 16.6417 20.4533C16.7549 20.5288 16.8304 20.6043 16.9436 20.7175L18.755 24.0006C18.5285 24.0383 18.3021 24.0761 18.038 24.1515ZM22.6419 20.8684C22.0758 21.7741 21.2833 22.5666 20.3776 23.1326L18.9059 19.5854C18.8304 19.2835 18.9814 18.9816 19.2455 18.8684C19.3587 18.8306 19.472 18.7929 19.5852 18.7929L23.3589 19.4344C23.1702 19.9627 22.9438 20.4533 22.6419 20.8684Z" fill="white"/>
</svg>
