<svg width="13" height="11" viewBox="0 0 13 11" fill="none" xmlns="http://www.w3.org/2000/svg">
<path d="M6.5 2.47287C6.5 2.47287 7.02 0.852717 11.6133 0.682175C11.7867 0.682175 11.96 0.682175 12.1333 0.852717C12.3067 0.937989 12.3933 1.10853 12.3933 1.36435V8.01551C12.3933 8.35659 12.0467 8.69768 11.7 8.61241C7.10666 8.78295 6.58666 10.4031 6.58666 10.4031V2.47287C6.58666 2.47287 6.06666 0.852717 1.47333 0.682175C1.3 0.682175 1.12666 0.682175 0.953329 0.852717C0.779996 0.937989 0.693329 1.10853 0.693329 1.27907V7.93024C0.693329 8.27132 1.04 8.61241 1.38666 8.52714C5.98 8.69768 6.5 10.3178 6.5 10.3178" stroke="#757575" stroke-width="1.5" stroke-linecap="round" stroke-linejoin="round"/>
</svg>
