<svg width="22" height="22" viewBox="0 0 22 22" fill="none" xmlns="http://www.w3.org/2000/svg">
<path d="M1 20.6876L6.6875 16.0501C7.2125 15.6126 7.9125 15.4376 8.6125 15.5251L12.9 15.9626C13.25 15.9626 13.6 15.9626 13.8625 15.8751L20.6 14.0376" stroke="#F55C04" stroke-width="1.5" stroke-linecap="round" stroke-linejoin="round"/>
<path d="M1 15.35L6.95 11.7625C7.3875 11.5 7.825 11.4125 8.2625 11.4125H12.9C13.25 11.4125 13.6875 11.325 13.95 11.15L20.6 8.17505" stroke="#F55C04" stroke-width="1.5" stroke-linecap="round" stroke-linejoin="round"/>
<path d="M1 10.1L8.0875 6.6C8.6125 6.3375 9.225 6.25 9.8375 6.425L13.425 7.2125C14.2125 7.3875 15.0875 7.2125 15.7 6.6L20.6 2.225V20.6H1V1" stroke="#F55C04" stroke-width="1.5" stroke-linecap="round" stroke-linejoin="round"/>
</svg>
