<svg width="24" height="26" viewBox="0 0 24 26" fill="none" xmlns="http://www.w3.org/2000/svg">
<path d="M11.7013 25.1048C15.683 25.1048 19.0189 21.8765 19.0189 17.7873C19.0189 13.6981 15.7906 10.4697 11.7013 10.4697C7.71973 10.4697 4.38379 13.6981 4.38379 17.7873C4.38379 21.8765 7.61212 25.1048 11.7013 25.1048Z" fill="#FDD9BE" stroke="#FB755A" stroke-width="1.5" stroke-linecap="round" stroke-linejoin="round"/>
<path d="M10.624 13.9131V18.0023L13.8524 20.3697" stroke="#FB755A" stroke-width="1.5" stroke-linecap="round" stroke-linejoin="round"/>
<path d="M19.1518 17.1417C21.6269 16.3884 23 14.0209 23 11.4383C23 9.28605 22.1391 7.24144 20.6326 5.8425C20.5249 6.59578 20.0945 7.24144 19.5564 7.7795C18.9108 8.20994 18.1575 8.42516 17.4042 8.31755C15.252 6.48817 14.6063 3.58267 15.7901 1C10.7323 1 7.504 4.01311 6.96595 8.31755C5.45939 8.42516 4.06045 7.45667 3.73761 5.95011C-0.351607 9.39367 0.375844 15.6351 4.35745 17.2493" stroke="#FB755A" stroke-width="1.5" stroke-linecap="round" stroke-linejoin="round"/>
</svg>
