<svg width="50" height="50" viewBox="0 0 50 50" fill="none" xmlns="http://www.w3.org/2000/svg">
<g clip-path="url(#clip0)">
<path d="M16.8085 39.1489C16.5957 39.1489 16.5957 39.1489 16.383 39.1489C12.3404 37.8723 8.0851 37.0213 3.82978 37.0213C1.48936 36.8085 -0.212769 35.1064 -0.212769 32.766V4.25532C-0.212769 2.97872 0.212763 1.91489 1.06383 1.06383C2.12766 0.425532 3.40425 0 4.46808 0C15.5319 0.638298 22.5532 3.82979 24.8936 7.44681C27.6596 3.82979 35.1064 0.638298 45.5319 0C46.5957 0 47.8723 0.425532 48.7234 1.06383C49.5745 1.70213 50 2.97872 50 4.25532V31.0638C50 31.7021 49.5745 32.1277 48.9362 32.1277C48.2979 32.1277 47.8723 31.7021 47.8723 31.0638V4.25532C47.8723 3.61702 47.6596 3.19149 47.234 2.76596C46.8085 2.34043 46.1702 2.12766 45.5319 2.12766C32.5532 2.97872 25.9574 7.65957 25.9574 10.2128C25.9574 10.8511 25.5319 11.2766 24.8936 11.2766C24.2553 11.2766 23.8298 10.8511 23.8298 10.2128C23.8298 7.23404 17.0213 2.76596 4.25532 2.12766C3.82978 2.12766 3.19149 2.34043 2.76595 2.76596C2.34042 3.19149 2.12766 3.61702 2.12766 4.25532V32.766C2.12766 33.8298 2.97872 34.8936 4.04255 34.8936C8.51064 35.1064 12.9787 35.7447 17.0213 37.234C17.6596 37.4468 17.8723 38.0851 17.6596 38.5106C17.6596 38.9362 17.234 39.1489 16.8085 39.1489Z" fill="#F2BF0C"/>
<path d="M25.1064 19.5745C24.4681 19.5745 24.0425 19.1489 24.0425 18.5106V10.2128C24.0425 9.57446 24.4681 9.14893 25.1064 9.14893C25.7447 9.14893 26.1702 9.57446 26.1702 10.2128V18.5106C26.1702 19.1489 25.5319 19.5745 25.1064 19.5745Z" fill="#F2BF0C"/>
<path d="M19.3617 14.4681C19.149 14.4681 19.149 14.4681 18.9362 14.4681C15.3192 12.9787 11.2766 12.1277 7.44683 11.4894C6.80853 11.4894 6.383 11.0638 6.383 10.4255C6.383 9.78725 7.02129 9.36172 7.65959 9.57448C11.7021 10 15.9575 11.0638 19.7873 12.3404C20.4256 12.5532 20.6383 13.1915 20.4256 13.617C20.2128 14.0426 19.7873 14.4681 19.3617 14.4681Z" fill="#F2BF0C"/>
<path d="M40.8511 20C40.4255 20 39.7872 19.5745 39.7872 19.149C39.7872 18.5107 40 18.0851 40.6383 17.8724C41.4894 17.6596 42.1277 17.6596 42.9787 17.4468C43.617 17.4468 44.0425 17.8724 44.2553 18.2979C44.2553 18.9362 43.8298 19.3617 43.4043 19.5745C42.3404 19.7873 41.7021 20 40.8511 20Z" fill="#F2BF0C"/>
<path d="M19.3617 22.5532C19.149 22.5532 19.149 22.5532 18.9362 22.5532C15.3192 21.0638 11.2766 20.2128 7.44683 19.7872C6.80853 19.5745 6.383 19.1489 6.383 18.5106C6.383 17.8723 7.02129 17.4468 7.65959 17.6596C11.7021 18.0851 15.9575 19.1489 19.7873 20.4255C20.4256 20.6383 20.6383 21.2766 20.4256 21.7021C20.2128 22.1276 19.7873 22.5532 19.3617 22.5532Z" fill="#F2BF0C"/>
<path d="M19.3617 31.0638C19.1489 31.0638 19.1489 31.0638 18.9362 31.0638C15.1064 29.7872 11.2766 28.7234 7.23405 28.2979C6.59575 28.2979 6.17022 27.6596 6.38298 27.0213C6.38298 26.383 7.02128 25.9574 7.65958 26.1702C11.9149 26.5957 15.9575 27.6596 19.7872 28.9362C20.4255 29.1489 20.6383 29.7872 20.4255 30.2128C20.2128 30.8511 19.7872 31.0638 19.3617 31.0638Z" fill="#F2BF0C"/>
<path d="M31.0638 14.4681C30.6383 14.4681 30.2128 14.2553 30 13.8298C29.7872 13.1915 30 12.766 30.6383 12.5532C34.6809 11.0638 38.7234 10.2128 42.766 9.78723C43.4043 9.78723 43.8298 10.2128 44.0426 10.6383C44.0426 11.2766 43.617 11.7021 43.1915 11.9149C39.1489 12.3404 35.3192 13.1915 31.4894 14.6809C31.4894 14.2553 31.2766 14.4681 31.0638 14.4681Z" fill="#F2BF0C"/>
<path d="M21.4893 50C21.0638 50 20.851 49.7872 20.6383 49.5745L19.5744 48.2979C18.2978 46.5958 18.5106 44.2553 20 42.5532C21.4893 41.0638 24.0425 40.8511 25.7447 42.1277L27.234 43.1915V25.7447C27.234 22.9787 29.5744 20.6383 32.3404 20.6383C35.1064 20.6383 37.4468 22.9787 37.4468 25.7447V37.0213L44.4681 38.5106C48.0851 39.3617 50.6383 42.766 50.2127 46.383L49.7872 48.9362C49.7872 49.5745 49.1489 50 48.7234 50C48.0851 50 47.6596 49.3617 47.6596 48.9362L47.8723 46.5958C48.0851 44.0426 46.383 41.4894 43.8298 40.8511L35.9574 39.1489C35.5319 38.9362 35.1064 38.5106 35.1064 38.0851V25.9575C35.1064 24.2553 33.8298 22.9787 32.1276 22.9787C30.4255 22.9787 29.1489 24.2553 29.1489 25.9575V45.5319C29.1489 45.9575 28.9361 46.383 28.5106 46.383C28.0851 46.5958 27.6595 46.5958 27.4468 46.383L24.2553 44.0426C23.4042 43.4043 22.1276 43.4043 21.4893 44.2553C20.851 44.6809 20.6383 45.9575 21.2766 46.8085L22.3404 48.0851C22.7659 48.5106 22.5532 49.1489 22.1276 49.5745C21.9149 49.7872 21.7021 50 21.4893 50Z" fill="#F2BF0C"/>
</g>
<defs>
<clipPath id="clip0">
<rect width="50" height="50" fill="white"/>
</clipPath>
</defs>
</svg>
