<svg width="26" height="28" viewBox="0 0 26 28" fill="none" xmlns="http://www.w3.org/2000/svg">
<path d="M7.39132 17.2931H6.20414L4.18869 18.6104V19.7779L6.12131 18.5158H6.16864V25.3707H7.39132V17.2931ZM12.3885 25.5048C14.2541 25.5048 15.3466 23.9823 15.3466 21.3358C15.3466 18.709 14.2383 17.1827 12.3885 17.1827C10.5348 17.1827 9.43044 18.7051 9.42649 21.3358C9.42649 23.9784 10.519 25.5008 12.3885 25.5048ZM12.3885 24.4517C11.296 24.4517 10.6373 23.3552 10.6373 21.3358C10.6413 19.3243 11.3 18.216 12.3885 18.216C13.4732 18.216 14.1358 19.3243 14.1358 21.3358C14.1358 23.3552 13.4771 24.4517 12.3885 24.4517ZM16.7616 25.3707H17.9409V23.2211L18.5286 22.6334L20.5874 25.3707H22.0349L19.416 21.9117L21.8692 19.3125H20.4572L18.0434 21.8762H17.9409V17.2931H16.7616V25.3707Z" fill="#FBC55A"/>
<path d="M3.94055 13.8212L9.11561 10.8011C9.5933 10.5162 10.2302 10.4023 10.8672 10.4592L14.7684 10.7441C15.0868 10.7441 15.4053 10.7441 15.6441 10.6872L21.7746 9.49054" stroke="#FBC55A" stroke-width="1.34882" stroke-linecap="round" stroke-linejoin="round"/>
<path d="M3.94055 10.3452L9.35445 8.00894C9.75253 7.83799 10.1506 7.78101 10.5487 7.78101H14.7684C15.0868 7.78101 15.4849 7.72403 15.7238 7.61006L21.7746 5.67267" stroke="#FBC55A" stroke-width="1.34882" stroke-linecap="round" stroke-linejoin="round"/>
<path d="M3.94205 6.92614L10.391 4.64686C10.8687 4.47591 11.426 4.41893 11.9833 4.53289L15.2475 5.04573C15.9641 5.1597 16.7603 5.04573 17.3176 4.64686L21.7761 1.79775V13.764H3.94205V1" stroke="#FBC55A" stroke-width="1.34882" stroke-linecap="round" stroke-linejoin="round"/>
</svg>
