<?xml version="1.0" encoding="UTF-8" standalone="no"?>
<svg
   xmlns:dc="http://purl.org/dc/elements/1.1/"
   xmlns:cc="http://creativecommons.org/ns#"
   xmlns:rdf="http://www.w3.org/1999/02/22-rdf-syntax-ns#"
   xmlns:svg="http://www.w3.org/2000/svg"
   xmlns="http://www.w3.org/2000/svg"
   xmlns:sodipodi="http://sodipodi.sourceforge.net/DTD/sodipodi-0.dtd"
   xmlns:inkscape="http://www.inkscape.org/namespaces/inkscape"
   width="11"
   height="11"
   viewBox="0 0 11 11"
   fill="none"
   version="1.1"
   id="svg58"
   sodipodi:docname="pagination-single_right.svg"
   inkscape:version="1.0.2 (e86c870879, 2021-01-15, custom)">
  <metadata
     id="metadata64">
    <rdf:RDF>
      <cc:Work
         rdf:about="">
        <dc:format>image/svg+xml</dc:format>
        <dc:type
           rdf:resource="http://purl.org/dc/dcmitype/StillImage" />
        <dc:title></dc:title>
      </cc:Work>
    </rdf:RDF>
  </metadata>
  <defs
     id="defs62" />
  <sodipodi:namedview
     pagecolor="#ffffff"
     bordercolor="#666666"
     borderopacity="1"
     objecttolerance="10"
     gridtolerance="10"
     guidetolerance="10"
     inkscape:pageopacity="0"
     inkscape:pageshadow="2"
     inkscape:window-width="3840"
     inkscape:window-height="2104"
     id="namedview60"
     showgrid="false"
     inkscape:zoom="38.136364"
     inkscape:cx="5.5"
     inkscape:cy="5.5"
     inkscape:window-x="0"
     inkscape:window-y="0"
     inkscape:window-maximized="1"
     inkscape:current-layer="svg58" />
  <path
     d="M1.88628 0.323181C1.78378 0.22072 1.66209 0.139444 1.52817 0.0839924C1.39424 0.0285409 1.2507 1.0796e-09 1.10574 0C0.960776 -1.0796e-09 0.817234 0.0285409 0.683308 0.0839924C0.549381 0.139444 0.427693 0.22072 0.32519 0.323181C0.222687 0.425642 0.141377 0.547281 0.0859029 0.681153C0.0304287 0.815025 0.00187617 0.958508 0.00187617 1.10341C0.00187617 1.24831 0.0304287 1.39179 0.0859029 1.52567C0.141377 1.65954 0.222687 1.78118 0.32519 1.88364L3.95309 5.49906L0.32519 9.11449C0.222148 9.21665 0.140362 9.33819 0.0845489 9.4721C0.0287357 9.60601 0 9.74965 0 9.89471C0 10.0398 0.0287357 10.1834 0.0845489 10.3173C0.140362 10.4512 0.222148 10.5728 0.32519 10.6749C0.42739 10.7779 0.54898 10.8597 0.682948 10.9155C0.816915 10.9713 0.960608 11 1.10574 11C1.25087 11 1.39456 10.9713 1.52853 10.9155C1.66249 10.8597 1.78408 10.7779 1.88628 10.6749L6.28373 6.27929C6.38678 6.17713 6.46856 6.05559 6.52438 5.92168C6.58019 5.78777 6.60892 5.64413 6.60892 5.49906C6.60892 5.35399 6.58019 5.21036 6.52438 5.07645C6.46856 4.94253 6.38678 4.82099 6.28373 4.71883L1.88628 0.323181ZM9.90064 0.00449647C9.60907 0.00449647 9.32944 0.120275 9.12327 0.326361C8.9171 0.532447 8.80128 0.81196 8.80128 1.10341V9.89471C8.80128 10.1862 8.9171 10.4657 9.12327 10.6718C9.32944 10.8779 9.60907 10.9936 9.90064 10.9936C10.1922 10.9936 10.4718 10.8779 10.678 10.6718C10.8842 10.4657 11 10.1862 11 9.89471V1.10341C11 0.81196 10.8842 0.532447 10.678 0.326361C10.4718 0.120275 10.1922 0.00449647 9.90064 0.00449647Z"
     fill="#5A5A5A"
     fill-opacity="0.8"
     id="path56" />
</svg>
