<?xml version="1.0" encoding="UTF-8" standalone="no"?>
<svg
   xmlns:dc="http://purl.org/dc/elements/1.1/"
   xmlns:cc="http://creativecommons.org/ns#"
   xmlns:rdf="http://www.w3.org/1999/02/22-rdf-syntax-ns#"
   xmlns:svg="http://www.w3.org/2000/svg"
   xmlns="http://www.w3.org/2000/svg"
   xmlns:sodipodi="http://sodipodi.sourceforge.net/DTD/sodipodi-0.dtd"
   xmlns:inkscape="http://www.inkscape.org/namespaces/inkscape"
   width="11"
   height="11"
   viewBox="0 0 11 11"
   fill="none"
   version="1.1"
   id="svg58"
   sodipodi:docname="pagination-single_left.svg"
   inkscape:version="1.0.2 (e86c870879, 2021-01-15, custom)">
  <metadata
     id="metadata64">
    <rdf:RDF>
      <cc:Work
         rdf:about="">
        <dc:format>image/svg+xml</dc:format>
        <dc:type
           rdf:resource="http://purl.org/dc/dcmitype/StillImage" />
        <dc:title></dc:title>
      </cc:Work>
    </rdf:RDF>
  </metadata>
  <defs
     id="defs62" />
  <sodipodi:namedview
     pagecolor="#ffffff"
     bordercolor="#666666"
     borderopacity="1"
     objecttolerance="10"
     gridtolerance="10"
     guidetolerance="10"
     inkscape:pageopacity="0"
     inkscape:pageshadow="2"
     inkscape:window-width="3840"
     inkscape:window-height="2104"
     id="namedview60"
     showgrid="false"
     inkscape:zoom="38.136364"
     inkscape:cx="5.5"
     inkscape:cy="5.5"
     inkscape:window-x="0"
     inkscape:window-y="0"
     inkscape:window-maximized="1"
     inkscape:current-layer="svg58" />
  <path
     d="M 9.110411,0.323181 C 9.2128172,0.22072 9.3343957,0.139444 9.4681931,0.0839924 9.6020005,0.0285409 9.745409,0 9.8902363,0 10.035068,0 10.178478,0.0285409 10.312281,0.0839924 10.446086,0.139444 10.567662,0.22072 10.670072,0.323181 c 0.102409,0.102461 0.183644,0.2241 0.239068,0.357972 0.05542,0.133872 0.08395,0.277355 0.08395,0.422257 0,0.1449 -0.02853,0.28838 -0.08395,0.42226 -0.05542,0.13387 -0.136659,0.25551 -0.239068,0.35797 L 7.0454935,5.49906 10.670072,9.11449 c 0.102947,0.10216 0.184658,0.2237 0.24042,0.35761 0.05576,0.13391 0.08447,0.27755 0.08447,0.42261 0,0.14509 -0.02871,0.28869 -0.08447,0.42259 -0.05576,0.1339 -0.137473,0.2555 -0.24042,0.3576 -0.102107,0.103 -0.223586,0.1848 -0.357431,0.2406 C 10.178797,10.9713 10.035235,11 9.8902363,11 9.7452392,11 9.6016808,10.9713 9.4678334,10.9155 9.3339961,10.8597 9.2125174,10.7779 9.110411,10.6749 L 4.7169876,6.27929 C 4.614032,6.17713 4.5323269,6.05559 4.476558,5.92168 4.4207991,5.78777 4.3920954,5.64413 4.3920954,5.49906 c 0,-0.14507 0.028704,-0.2887 0.084463,-0.42261 C 4.5323269,4.94253 4.614032,4.82099 4.7169876,4.71883 Z M 1.1033895,0.00449647 c 0.2913031,0 0.570677,0.11577853 0.7766582,0.32186453 0.2059812,0.206086 0.3216952,0.485599 0.3216952,0.777049 v 8.7913 c 0,0.29149 -0.115714,0.57099 -0.3216952,0.77709 -0.2059812,0.2061 -0.4853551,0.3218 -0.7766582,0.3218 -0.29129298,0 -0.57063696,-0.1157 -0.77664815,-0.3218 C 0.12073016,10.4657 0.0050362,10.1862 0.0050362,9.89471 v -8.7913 c 0,-0.29145 0.11569396,-0.570963 0.32170515,-0.777049 C 0.53275254,0.120275 0.81209652,0.00449647 1.1033895,0.00449647 Z"
     fill="#5a5a5a"
     fill-opacity="0.8"
     id="path56"
     style="stroke-width:0.999542" />
</svg>
