<?xml version="1.0" encoding="UTF-8" standalone="no"?>
<svg
   xmlns:dc="http://purl.org/dc/elements/1.1/"
   xmlns:cc="http://creativecommons.org/ns#"
   xmlns:rdf="http://www.w3.org/1999/02/22-rdf-syntax-ns#"
   xmlns:svg="http://www.w3.org/2000/svg"
   xmlns="http://www.w3.org/2000/svg"
   xmlns:sodipodi="http://sodipodi.sourceforge.net/DTD/sodipodi-0.dtd"
   xmlns:inkscape="http://www.inkscape.org/namespaces/inkscape"
   width="20"
   height="16"
   viewBox="0 0 20 16"
   fill="none"
   version="1.1"
   id="svg98"
   sodipodi:docname="pagination-double_left.svg"
   inkscape:version="1.0.2 (e86c870879, 2021-01-15, custom)">
  <metadata
     id="metadata104">
    <rdf:RDF>
      <cc:Work
         rdf:about="">
        <dc:format>image/svg+xml</dc:format>
        <dc:type
           rdf:resource="http://purl.org/dc/dcmitype/StillImage" />
      </cc:Work>
    </rdf:RDF>
  </metadata>
  <defs
     id="defs102" />
  <sodipodi:namedview
     pagecolor="#ffffff"
     bordercolor="#666666"
     borderopacity="1"
     objecttolerance="10"
     gridtolerance="10"
     guidetolerance="10"
     inkscape:pageopacity="0"
     inkscape:pageshadow="2"
     inkscape:window-width="2829"
     inkscape:window-height="1756"
     id="namedview100"
     showgrid="false"
     inkscape:zoom="52.4375"
     inkscape:cx="10"
     inkscape:cy="8"
     inkscape:window-x="23"
     inkscape:window-y="15"
     inkscape:window-maximized="0"
     inkscape:current-layer="svg98" />
  <path
     d="M4.29 8.71L8.29 12.71C8.38324 12.8032 8.49393 12.8772 8.61575 12.9277C8.73757 12.9781 8.86814 13.0041 9 13.0041C9.13186 13.0041 9.26243 12.9781 9.38425 12.9277C9.50607 12.8772 9.61676 12.8032 9.71 12.71C9.80324 12.6168 9.8772 12.5061 9.92766 12.3843C9.97812 12.2624 10.0041 12.1319 10.0041 12C10.0041 11.8681 9.97812 11.7376 9.92766 11.6158C9.8772 11.4939 9.80324 11.3832 9.71 11.29L7.41 9L19 9C19.2652 9 19.5196 8.89464 19.7071 8.70711C19.8946 8.51957 20 8.26522 20 8C20 7.73478 19.8946 7.48043 19.7071 7.29289C19.5196 7.10536 19.2652 7 19 7L7.41 7L9.71 4.71C9.80373 4.61704 9.87812 4.50644 9.92889 4.38458C9.97966 4.26272 10.0058 4.13201 10.0058 4C10.0058 3.86799 9.97966 3.73728 9.92889 3.61542C9.87812 3.49356 9.80373 3.38296 9.71 3.29C9.61704 3.19627 9.50643 3.12188 9.38458 3.07111C9.26272 3.02034 9.13201 2.9942 9 2.9942C8.86799 2.9942 8.73728 3.02034 8.61542 3.07111C8.49356 3.12188 8.38296 3.19627 8.29 3.29L4.29 7.29C4.19896 7.38511 4.12759 7.49725 4.08 7.62C3.97998 7.86346 3.97998 8.13654 4.08 8.38C4.12759 8.50275 4.19896 8.6149 4.29 8.71ZM1 16C1.26522 16 1.51957 15.8946 1.70711 15.7071C1.89464 15.5196 2 15.2652 2 15L2 1C2 0.734785 1.89464 0.48043 1.70711 0.292894C1.51957 0.105358 1.26522 1.63785e-06 0.999999 1.66103e-06C0.734782 1.68422e-06 0.480427 0.105358 0.292891 0.292894C0.105355 0.480431 -1.33453e-06 0.734785 -1.31134e-06 1L-8.74228e-08 15C-6.42368e-08 15.2652 0.105356 15.5196 0.292892 15.7071C0.480429 15.8946 0.734784 16 1 16V16Z"
     fill="#67677E"
     id="path96" />
</svg>
