<svg width="20" height="16" viewBox="0 0 20 16" fill="none" xmlns="http://www.w3.org/2000/svg">
<path d="M15.71 7.29L11.71 3.29C11.6168 3.19676 11.5061 3.1228 11.3842 3.07234C11.2624 3.02188 11.1319 2.99591 11 2.99591C10.8681 2.99591 10.7376 3.02188 10.6158 3.07234C10.4939 3.1228 10.3832 3.19676 10.29 3.29C10.1968 3.38324 10.1228 3.49393 10.0723 3.61575C10.0219 3.73757 9.99591 3.86814 9.99591 4C9.99591 4.13186 10.0219 4.26243 10.0723 4.38425C10.1228 4.50607 10.1968 4.61676 10.29 4.71L12.59 7H1C0.734784 7 0.48043 7.10536 0.292893 7.29289C0.105357 7.48043 0 7.73478 0 8C0 8.26522 0.105357 8.51957 0.292893 8.70711C0.48043 8.89464 0.734784 9 1 9H12.59L10.29 11.29C10.1963 11.383 10.1219 11.4936 10.0711 11.6154C10.0203 11.7373 9.9942 11.868 9.9942 12C9.9942 12.132 10.0203 12.2627 10.0711 12.3846C10.1219 12.5064 10.1963 12.617 10.29 12.71C10.383 12.8037 10.4936 12.8781 10.6154 12.9289C10.7373 12.9797 10.868 13.0058 11 13.0058C11.132 13.0058 11.2627 12.9797 11.3846 12.9289C11.5064 12.8781 11.617 12.8037 11.71 12.71L15.71 8.71C15.801 8.6149 15.8724 8.50275 15.92 8.38C16.02 8.13654 16.02 7.86346 15.92 7.62C15.8724 7.49725 15.801 7.3851 15.71 7.29ZM19 0C18.7348 0 18.4804 0.105357 18.2929 0.292893C18.1054 0.48043 18 0.734784 18 1V15C18 15.2652 18.1054 15.5196 18.2929 15.7071C18.4804 15.8946 18.7348 16 19 16C19.2652 16 19.5196 15.8946 19.7071 15.7071C19.8946 15.5196 20 15.2652 20 15V1C20 0.734784 19.8946 0.48043 19.7071 0.292893C19.5196 0.105357 19.2652 0 19 0V0Z" fill="#67677E"/>
</svg>
