<svg width="72" height="36" viewBox="0 0 72 36" fill="none" xmlns="http://www.w3.org/2000/svg">
<rect width="72" height="35.8244" rx="17.9122" fill="#FDE8BE"/>
<path d="M27.5506 13.1012C28.0405 12.2996 28.6194 11.5871 29.1984 10.9192C29.4211 10.6965 29.7328 10.6965 29.9555 10.9192L31.3361 12.3887C31.5143 12.5668 31.5143 12.8786 31.3361 13.0567C31.2025 13.1903 31.1135 13.3239 31.0244 13.4575C30.3564 14.3035 29.6883 15.5504 29.5547 16.7082C30.4009 16.7528 31.4252 16.8864 32.0042 17.6434C32.6277 18.4004 32.9395 19.202 32.9395 20.0926C32.9395 21.0277 32.5832 21.8738 31.826 22.6309C31.0689 23.3879 30.2227 23.7441 29.2429 23.7441C28.2631 23.7441 27.3724 23.3434 26.6598 22.5418C25.9027 21.7402 25.5464 20.716 25.5464 19.4692C25.5464 17.3762 26.2145 15.2387 27.5506 13.1012Z" fill="#FB9D5A"/>
<path d="M18.1599 13.1012C18.6498 12.2996 19.2288 11.5871 19.8078 10.9192C20.0305 10.6965 20.3422 10.6965 20.5649 10.9192L21.9455 12.3887C22.1237 12.5668 22.1237 12.8786 21.9455 13.0567C21.8119 13.1903 21.7228 13.3239 21.6338 13.4575C20.9657 14.3035 20.2977 15.5504 20.1641 16.7082C21.0103 16.7528 22.0346 16.8864 22.6136 17.6434C23.2371 18.4004 23.5488 19.202 23.5488 20.0926C23.5488 21.0277 23.1925 21.8738 22.4354 22.6309C21.6783 23.3879 20.8321 23.7441 19.8523 23.7441C18.8725 23.7441 17.9818 23.3434 17.2692 22.5418C16.5121 21.7402 16.1558 20.716 16.1558 19.4692C16.1558 17.3762 16.8239 15.2387 18.1599 13.1012Z" fill="#FB9D5A"/>
<path d="M44.9338 21.3949C44.4439 22.1964 43.8649 22.9089 43.286 23.5769C43.0633 23.7996 42.7515 23.7996 42.5289 23.5769L41.1482 22.1074C40.9701 21.9293 40.9701 21.6175 41.1482 21.4394C41.2818 21.3058 41.3709 21.1722 41.46 21.0386C42.128 20.1925 42.7961 18.9457 42.9297 17.7879C42.0835 17.7433 41.0592 17.6097 40.4802 16.8527C39.8567 16.0957 39.5449 15.2941 39.5449 14.4035C39.5449 13.4684 39.9012 12.6223 40.6583 11.8652C41.4154 11.1082 42.2616 10.752 43.2414 10.752C44.2212 10.752 45.112 11.1527 45.8245 11.9543C46.5816 12.7559 46.9379 13.7801 46.9379 15.0269C46.9379 17.1199 46.2699 19.2574 44.9338 21.3949Z" fill="#FB9D5A"/>
<path d="M54.3244 21.3949C53.8345 22.1964 53.2556 22.9089 52.6766 23.5769C52.4539 23.7996 52.1422 23.7996 51.9195 23.5769L50.5389 22.1074C50.3607 21.9293 50.3607 21.6175 50.5389 21.4394C50.6725 21.3058 50.7615 21.1722 50.8506 21.0386C51.5186 20.1925 52.1867 18.9457 52.3203 17.7879C51.4741 17.7433 50.4498 17.6097 49.8708 16.8527C49.2473 16.0957 48.9355 15.2941 48.9355 14.4035C48.9355 13.4684 49.2918 12.6223 50.049 11.8652C50.8061 11.1082 51.6523 10.752 52.6321 10.752C53.6119 10.752 54.5026 11.1527 55.2152 11.9543C55.9723 12.7559 56.3286 13.7801 56.3286 15.0269C56.3286 17.1199 55.6605 19.2574 54.3244 21.3949Z" fill="#FB9D5A"/>
</svg>