<svg width="49" height="49" viewBox="0 0 49 49" fill="none" xmlns="http://www.w3.org/2000/svg">
<path d="M30.8596 17.7234C27.7319 17.7234 25.0213 15.2213 25.0213 11.8851C25.0213 8.54893 27.5234 6.25531 30.8596 6.25531C34.1957 6.25531 36.6979 8.75744 36.6979 12.0936C36.6979 15.4298 33.9872 17.7234 30.8596 17.7234ZM30.8596 8.34042C28.7745 8.34042 27.1064 10.0085 27.1064 12.0936C27.1064 14.1787 28.7745 15.8468 30.8596 15.8468C32.9447 15.8468 34.6128 14.1787 34.6128 12.0936C34.6128 10.0085 32.7362 8.34042 30.8596 8.34042Z" fill="#F15B2B"/>
<path d="M38.5745 27.1064C37.9489 27.1064 37.5319 26.6894 37.5319 26.0638C37.5319 22.3107 34.4042 19.3915 30.8596 19.3915C30.234 19.3915 29.817 18.9745 29.817 18.349C29.817 17.7234 30.234 17.3064 30.8596 17.3064C35.6553 17.3064 39.617 21.2681 39.617 26.0638C39.617 26.6894 39.2 27.1064 38.5745 27.1064Z" fill="#F15B2B"/>
<path d="M44.8298 33.3617H29.1915C28.566 33.3617 28.1489 32.9447 28.1489 32.3191C28.1489 31.6936 28.566 31.2766 29.1915 31.2766H44.8298C46.0808 31.2766 46.9149 30.4426 46.9149 29.1915V4.17021C46.9149 2.91915 46.0808 2.08511 44.8298 2.08511H7.29787C6.04681 2.08511 5.21277 2.91915 5.21277 4.17021V8.75745C5.21277 9.38298 4.79574 9.8 4.17021 9.8C3.54468 9.8 3.12766 9.38298 3.12766 8.75745V4.17021C3.12766 1.8766 5.00426 0 7.29787 0H44.8298C47.1234 0 49 1.8766 49 4.17021V29.1915C49 31.4851 47.1234 33.3617 44.8298 33.3617Z" fill="#F15B2B"/>
<path d="M35.4468 39.617C34.8213 39.617 34.4043 39.2 34.4043 38.5745V32.3191C34.4043 31.6936 34.8213 31.2766 35.4468 31.2766C36.0723 31.2766 36.4894 31.6936 36.4894 32.3191V38.5745C36.4894 39.2 36.0723 39.617 35.4468 39.617Z" fill="#F15B2B"/>
<path d="M40.034 39.617H32.1106C31.4851 39.617 31.0681 39.2 31.0681 38.5745C31.0681 37.9489 31.4851 37.5319 32.1106 37.5319H40.034C40.6596 37.5319 41.0766 37.9489 41.0766 38.5745C41.0766 39.2 40.6596 39.617 40.034 39.617Z" fill="#F15B2B"/>
<path d="M29.1915 49C28.566 49 28.1489 48.583 28.1489 47.9575C28.1489 40.8681 22.3106 35.0298 15.2213 35.0298C8.13192 35.0298 2.08511 40.8681 2.08511 47.9575C2.08511 48.583 1.66809 49 1.04255 49C0.417021 49 0 48.583 0 47.9575C0 39.617 6.88085 32.9447 15.0128 32.9447C23.1447 32.9447 30.0255 39.8256 30.0255 47.9575C30.234 48.583 29.817 49 29.1915 49Z" fill="#F15B2B"/>
<path d="M17.9319 23.1447C13.7617 23.1447 9.79999 21.4766 6.88085 18.5574C6.46382 18.1404 6.46382 17.5149 6.88085 17.0979C7.29787 16.6808 8.13191 16.6808 8.54893 17.0979C12.3021 21.0596 18.3489 22.3106 23.3532 20.017C23.9787 19.8085 24.3957 20.017 24.8128 20.6425C25.0213 21.2681 24.8128 21.6851 24.1872 22.1021C22.1021 22.7276 20.017 23.1447 17.9319 23.1447Z" fill="#F15B2B"/>
<path d="M15.0128 31.6936C9.5915 31.6936 5.42128 27.3149 5.42128 22.1021C5.42128 16.8894 9.80001 12.5107 15.0128 12.5107C20.2255 12.5107 24.6043 16.8894 24.6043 22.1021C24.6043 27.3149 20.434 31.6936 15.0128 31.6936ZM15.0128 14.5958C10.8426 14.5958 7.50639 17.9319 7.50639 22.1021C7.50639 26.2724 10.8426 29.6085 15.0128 29.6085C19.183 29.6085 22.5192 26.2724 22.5192 22.1021C22.5192 17.9319 19.183 14.5958 15.0128 14.5958Z" fill="#F15B2B"/>
</svg>
