<svg width="48" height="50" viewBox="0 0 48 30" fill="none" xmlns="http://www.w3.org/2000/svg">
<path d="M22 24.001L27.8097 19.9959C28.346 19.618 29.0611 19.4669 29.7761 19.5425L34.1558 19.9203C34.5133 19.9203 34.8708 19.9203 35.1389 19.8448L42.0212 18.2578" stroke="#1866D4" stroke-width="1.5" stroke-linecap="round" stroke-linejoin="round"/>
<path d="M22 19.3919L28.0779 16.2936C28.5248 16.0669 28.9717 15.9914 29.4186 15.9914H34.1558C34.5133 15.9914 34.9602 15.9158 35.2283 15.7646L42.0212 13.1953" stroke="#1866D4" stroke-width="1.5" stroke-linecap="round" stroke-linejoin="round"/>
<path d="M22.0017 14.8591L29.2415 11.8364C29.7778 11.6097 30.4035 11.5341 31.0291 11.6853L34.6937 12.3654C35.4982 12.5165 36.392 12.3654 37.0176 11.8364L42.0229 8.05796V23.9274H22.0017V7" stroke="#1866D4" stroke-width="1.5" stroke-linecap="round" stroke-linejoin="round"/>
<rect x="1" y="1" width="46" height="28" rx="3" stroke="#1866D4" stroke-width="1.5" stroke-linecap="round" stroke-linejoin="round"/>
<line x1="5.75" y1="14.25" x2="16.25" y2="14.25" stroke="#1866D4" stroke-width="1.5" stroke-linecap="round"/>
<line x1="5.75" y1="6.25" x2="12.25" y2="6.25" stroke="#1866D4" stroke-width="1.5" stroke-linecap="round"/>
<line x1="5.75" y1="21.25" x2="12.25" y2="21.25" stroke="#1866D4" stroke-width="1.5" stroke-linecap="round"/>
<line x1="5.75" y1="17.25" x2="9.25" y2="17.25" stroke="#1866D4" stroke-width="1.5" stroke-linecap="round"/>
<line x1="5.75" y1="10.25" x2="7.25" y2="10.25" stroke="#1866D4" stroke-width="1.5" stroke-linecap="round"/>
<line x1="5.75" y1="24.25" x2="7.25" y2="24.25" stroke="#1866D4" stroke-width="1.5" stroke-linecap="round"/>
</svg>
