<svg width="38" height="50" viewBox="0 0 38 38" fill="none" xmlns="http://www.w3.org/2000/svg">
<path d="M32.2903 20.2681V8.23336C32.2903 7.595 32.0367 6.98277 31.5853 6.53138C31.1339 6.07999 30.5217 5.82642 29.8834 5.82642H25.0695" stroke="#1866D4" stroke-width="1.5" stroke-linecap="round" stroke-linejoin="round"/>
<path d="M5.8139 29.896V34.7099C5.8139 35.3483 6.06748 35.9605 6.51887 36.4119C6.97026 36.8633 7.58249 37.1168 8.22085 37.1168H29.8834C30.5217 37.1168 31.134 36.8633 31.5854 36.4119C32.0367 35.9605 32.2903 35.3483 32.2903 34.7099V29.896" stroke="#1866D4" stroke-width="1.5" stroke-linecap="round" stroke-linejoin="round"/>
<path d="M13.0347 5.82642H8.22085C7.58249 5.82642 6.97026 6.07999 6.51887 6.53138C6.06748 6.98277 5.8139 7.595 5.8139 8.23336V20.2681" stroke="#1866D4" stroke-width="1.5" stroke-linecap="round" stroke-linejoin="round"/>
<path d="M1 25.0766H10.2587C10.3701 25.0775 10.4793 25.0461 10.5732 24.9863C10.6672 24.9265 10.7419 24.8408 10.7883 24.7396L13.6124 19.1074C13.6669 19.0024 13.7502 18.9149 13.8524 18.8552C13.9547 18.7956 14.0718 18.7662 14.1901 18.7704C14.3077 18.7789 14.4203 18.8213 14.5143 18.8925C14.6082 18.9637 14.6796 19.0607 14.7196 19.1716L18.5386 29.698C18.5815 29.8101 18.6557 29.9075 18.7525 29.9786C18.8492 30.0498 18.9643 30.0916 19.0842 30.0991C19.2059 30.1005 19.3254 30.0662 19.428 30.0007C19.5306 29.9351 19.6119 29.8411 19.6619 29.7301L23.3525 21.4341C23.3986 21.3268 23.4745 21.235 23.5712 21.1695C23.6679 21.1041 23.7813 21.0679 23.8981 21.065C24.0113 21.065 24.1224 21.0965 24.2188 21.156C24.3151 21.2155 24.393 21.3007 24.4436 21.402L26.0483 24.7396C26.0974 24.8421 26.175 24.9283 26.2717 24.9881C26.3684 25.0478 26.4802 25.0786 26.5939 25.0766H37.04" stroke="#1866D4" stroke-width="1.5" stroke-linecap="round" stroke-linejoin="round"/>
<path d="M22.5823 3.41635C22.306 2.7047 21.8211 2.09317 21.1911 1.66197C20.5611 1.23077 19.8155 1 19.0521 1C18.2887 1 17.5431 1.23077 16.9131 1.66197C16.2831 2.09317 15.7982 2.7047 15.5219 3.41635H14.2382C13.9203 3.42051 13.6166 3.54863 13.3918 3.77343C13.167 3.99824 13.0389 4.30193 13.0347 4.61982V9.43372C13.0389 9.75161 13.167 10.0553 13.3918 10.2801C13.6166 10.5049 13.9203 10.633 14.2382 10.6372H23.866C24.1839 10.633 24.4876 10.5049 24.7124 10.2801C24.9372 10.0553 25.0653 9.75161 25.0695 9.43372V4.61982C25.0653 4.30193 24.9372 3.99824 24.7124 3.77343C24.4876 3.54863 24.1839 3.42051 23.866 3.41635H22.5823Z" stroke="#1866D4" stroke-width="1.5" stroke-linecap="round" stroke-linejoin="round"/>
</svg>
