<svg width="43" height="50" viewBox="0 0 43 35" fill="none" xmlns="http://www.w3.org/2000/svg">
<path d="M5.74695 12.0967H10.0106V16.3601H5.74695V12.0967Z" stroke="#67677E" stroke-width="1.5" stroke-linecap="round" stroke-linejoin="round"/>
<path d="M5.74695 20.252H10.0106V24.5156H5.74695V20.252Z" stroke="#67677E" stroke-width="1.5" stroke-linecap="round" stroke-linejoin="round"/>
<path d="M14.5441 12.0967H18.8077V16.3601H14.5441V12.0967Z" stroke="#67677E" stroke-width="1.5" stroke-linecap="round" stroke-linejoin="round"/>
<path d="M14.5441 20.252H18.8077V24.5156H14.5441V20.252Z" stroke="#67677E" stroke-width="1.5" stroke-linecap="round" stroke-linejoin="round"/>
<path d="M30.8452 11.9246V3.39743C30.8452 2.83204 30.6206 2.28979 30.2208 1.89C29.821 1.49021 29.2788 1.26563 28.7134 1.26563H3.1318C2.56641 1.26562 2.02417 1.49021 1.62438 1.89C1.22459 2.28979 1 2.83204 1 3.39743V26.8472C1 27.4126 1.22459 27.9547 1.62438 28.3545C2.02417 28.7543 2.56641 28.979 3.1318 28.979H19.1061" stroke="#67677E" stroke-width="1.5" stroke-linecap="round" stroke-linejoin="round"/>
<path d="M1 7.66113H30.8452" stroke="#67677E" stroke-width="1.5" stroke-linecap="round" stroke-linejoin="round"/>
<path d="M32.6075 23.4521C37.5107 23.4521 41.49 21.8746 41.49 19.9134C41.49 17.9521 37.5107 16.3604 32.6075 16.3604C27.7044 16.3604 23.7393 17.9521 23.7393 19.9134C23.7393 21.8746 27.6902 23.4521 32.6075 23.4521Z" stroke="#67677E" stroke-width="1.5" stroke-linecap="round" stroke-linejoin="round"/>
<path d="M23.725 19.9133V25.2286C23.725 27.1899 27.6901 28.7816 32.5933 28.7816C37.4964 28.7816 41.4758 27.1899 41.4758 25.2286V19.9133" stroke="#67677E" stroke-width="1.5" stroke-linecap="round" stroke-linejoin="round"/>
<path d="M23.725 25.2263V30.5558C23.725 32.5171 27.6901 34.1088 32.5933 34.1088C37.4964 34.1088 41.4758 32.5171 41.4758 30.5558V25.2263" stroke="#67677E" stroke-width="1.5" stroke-linecap="round" stroke-linejoin="round"/>
</svg>
