<svg width="26" height="25" viewBox="0 0 26 25" fill="none" xmlns="http://www.w3.org/2000/svg">
<path d="M5.10015 21.1667C6.59947 21.1667 7.81492 19.9512 7.81492 18.4519C7.81492 16.9526 6.59947 15.7371 5.10015 15.7371C3.60082 15.7371 2.38538 16.9526 2.38538 18.4519C2.38538 19.9512 3.60082 21.1667 5.10015 21.1667Z" stroke="#FB5A67" stroke-width="1.34867" stroke-linecap="round" stroke-linejoin="round"/>
<path d="M8.9782 24.2697C8.60331 23.5668 8.04444 22.979 7.36134 22.5691C6.67824 22.1593 5.89658 21.9427 5.09995 21.9427C4.30332 21.9427 3.52167 22.1593 2.83857 22.5691C2.15546 22.979 1.59659 23.5668 1.22171 24.2697" stroke="#FB5A67" stroke-width="1.34867" stroke-linecap="round" stroke-linejoin="round"/>
<path d="M20.6128 21.1667C22.1121 21.1667 23.3275 19.9512 23.3275 18.4519C23.3275 16.9526 22.1121 15.7371 20.6128 15.7371C19.1134 15.7371 17.898 16.9526 17.898 18.4519C17.898 19.9512 19.1134 21.1667 20.6128 21.1667Z" stroke="#FB5A67" stroke-width="1.34867" stroke-linecap="round" stroke-linejoin="round"/>
<path d="M24.4908 24.2697C24.1159 23.5668 23.557 22.979 22.8739 22.5691C22.1908 22.1593 21.4092 21.9427 20.6126 21.9427C19.8159 21.9427 19.0343 22.1593 18.3512 22.5691C17.6681 22.979 17.1092 23.5668 16.7343 24.2697" stroke="#FB5A67" stroke-width="1.34867" stroke-linecap="round" stroke-linejoin="round"/>
<path d="M12.8561 6.42954C14.3554 6.42954 15.5708 5.2141 15.5708 3.71477C15.5708 2.21544 14.3554 1 12.8561 1C11.3567 1 10.1413 2.21544 10.1413 3.71477C10.1413 5.2141 11.3567 6.42954 12.8561 6.42954Z" stroke="#FB5A67" stroke-width="1.34867" stroke-linecap="round" stroke-linejoin="round"/>
<path d="M16.2167 8.75643C15.8022 8.26978 15.287 7.87894 14.7067 7.61093C14.1264 7.34291 13.4948 7.2041 12.8555 7.2041C12.2163 7.2041 11.5847 7.34291 11.0044 7.61093C10.4241 7.87894 9.90886 8.26978 9.49438 8.75643" stroke="#FB5A67" stroke-width="1.34867" stroke-linecap="round" stroke-linejoin="round"/>
<path d="M9.80659 20.6056C11.7873 21.3607 13.9778 21.3541 15.9539 20.587" stroke="#FB5A67" stroke-width="1.34867" stroke-linecap="round" stroke-linejoin="round"/>
<path d="M7.01268 6.42938C6.16364 7.22457 5.4869 8.18561 5.02437 9.25298C4.56185 10.3203 4.32339 11.4713 4.32376 12.6346C4.32376 12.8962 4.33927 13.1517 4.36306 13.4102" stroke="#FB5A67" stroke-width="1.34867" stroke-linecap="round" stroke-linejoin="round"/>
<path d="M21.3494 13.4102C21.3722 13.1537 21.3887 12.8931 21.3887 12.6346C21.3893 11.4713 21.1509 10.3203 20.6884 9.25287C20.2259 8.18548 19.549 7.22446 18.6998 6.42938" stroke="#FB5A67" stroke-width="1.34867" stroke-linecap="round" stroke-linejoin="round"/>
</svg>
