<svg width="294" height="165" fill="none" xmlns="http://www.w3.org/2000/svg"><path fill="#010038" d="M0 0h294v165H0z"/><path fill="url(#a)" d="M0 0h294v165H0z"/><path fill="url(#b)" d="M0 0h294v165H0z"/><path fill="url(#c)" d="M0 0h294v165H0z"/><circle transform="matrix(1 0 0 -1 12 12)" fill="#7646FF" fill-opacity=".3" r="1"/><circle transform="matrix(1 0 0 -1 57 6)" fill="#7646FF" fill-opacity=".5" r="1"/><circle transform="matrix(1 0 0 -1 32 31)" fill="#7646FF" r="1"/><circle transform="matrix(1 0 0 -1 5 55)" fill="#7646FF" fill-opacity=".5" r="1"/><circle transform="matrix(1 0 0 -1 65 56)" fill="#7646FF" fill-opacity=".3" r="1"/><circle transform="matrix(1 0 0 -1 39.5 46.5)" fill="#7646FF" fill-opacity=".6" r=".5"/><circle transform="matrix(1 0 0 -1 202.5 11.5)" fill="#7646FF" fill-opacity=".6" r=".5"/><circle transform="matrix(1 0 0 -1 274.5 24.5)" fill="#7646FF" fill-opacity=".6" r=".5"/><circle transform="matrix(1 0 0 -1 290.5 74.5)" fill="#7646FF" fill-opacity=".6" r=".5"/><circle transform="matrix(1 0 0 -1 3.5 89.5)" fill="#7646FF" fill-opacity=".6" r=".5"/><circle transform="matrix(1 0 0 -1 3.5 28.5)" fill="#7646FF" fill-opacity=".6" r=".5"/><circle transform="matrix(1 0 0 -1 66.5 11.5)" fill="#7646FF" fill-opacity=".6" r=".5"/><circle transform="matrix(1 0 0 -1 130.5 5.5)" fill="#7646FF" fill-opacity=".6" r=".5"/><circle transform="matrix(1 0 0 -1 174.5 27.5)" fill="#7646FF" fill-opacity=".6" r=".5"/><circle transform="matrix(1 0 0 -1 221.5 57.5)" fill="#7646FF" fill-opacity=".6" r=".5"/><circle transform="matrix(1 0 0 -1 255.5 37.5)" fill="#7646FF" fill-opacity=".6" r=".5"/><circle transform="matrix(1 0 0 -1 116.5 55.5)" fill="#7646FF" fill-opacity=".6" r=".5"/><circle transform="matrix(1 0 0 -1 236.5 103.5)" fill="#7646FF" fill-opacity=".6" r=".5"/><circle transform="matrix(1 0 0 -1 249.5 99.5)" fill="#7646FF" fill-opacity=".6" r=".5"/><circle transform="matrix(1 0 0 -1 45.5 107.5)" fill="#7646FF" fill-opacity=".6" r=".5"/><circle transform="matrix(1 0 0 -1 114 9)" fill="#7646FF" r="1"/><circle transform="matrix(1 0 0 -1 156 20)" fill="#7646FF" fill-opacity=".5" r="1"/><circle transform="matrix(1 0 0 -1 236 4)" fill="#7646FF" fill-opacity=".5" r="1"/><circle transform="matrix(1 0 0 -1 285 29)" fill="#7646FF" r="1"/><circle transform="matrix(1 0 0 -1 256 56)" fill="#7646FF" fill-opacity=".7" r="1"/><circle transform="matrix(1 0 0 -1 274 113)" fill="#7646FF" fill-opacity=".5" r="1"/><circle transform="matrix(1 0 0 -1 78 105)" fill="#7646FF" fill-opacity=".5" r="1"/><circle transform="matrix(1 0 0 -1 132 59)" fill="#7646FF" fill-opacity=".5" r="1"/><circle transform="matrix(1 0 0 -1 13 104)" fill="#7646FF" fill-opacity=".7" r="1"/><defs><radialGradient id="b" cx="0" cy="0" r="1" gradientUnits="userSpaceOnUse" gradientTransform="matrix(0 -101 433.555 0 147 165)"><stop stop-color="#E8404E"/><stop offset=".462" stop-color="#E93B83" stop-opacity=".5"/><stop offset="1" stop-color="#4B2FD7" stop-opacity="0"/></radialGradient><radialGradient id="c" cx="0" cy="0" r="1" gradientUnits="userSpaceOnUse" gradientTransform="matrix(0 -33.3741 144.865 0 147 165)"><stop stop-color="#F2BE56"/><stop offset="1" stop-color="#F37F2D" stop-opacity="0"/></radialGradient><linearGradient id="a" x1="184.975" y1="165" x2="184.975" y2="0" gradientUnits="userSpaceOnUse"><stop stop-color="#4C34C5"/><stop offset="1" stop-color="#020041" stop-opacity="0"/></linearGradient></defs></svg>