<svg width="323" height="65" fill="none" xmlns="http://www.w3.org/2000/svg"><path d="M65.136 47.739v8.704c0 1.516-.726 2.33-1.998 2.33-1.16 0-1.998-.677-1.998-1.712h-1.45c0 1.873 1.45 3.02 3.448 3.02 2.117 0 3.472-1.301 3.472-3.638V47.74h-1.474zm9.827 8.443c0 1.712-1.308 2.497-2.355 2.497-1.165 0-1.998-.857-1.998-2.188v-5.708h-1.403v5.803c0 2.33 1.237 3.448 2.95 3.448 1.379 0 2.282-.737 2.71-1.664h.096v1.545h1.403v-9.132h-1.403v5.398zm5.208-1.76c0-1.594.987-2.497 2.331-2.497 1.302 0 2.093.85 2.093 2.283v5.707h1.403v-5.803c0-2.33-1.243-3.448-3.092-3.448-1.38 0-2.235.618-2.663 1.546h-.12v-1.427h-1.355v9.132h1.403v-5.493zm12.052 5.684c1.855 0 3.21-.928 3.639-2.307l-1.356-.38c-.356.95-1.183 1.426-2.283 1.426-1.647 0-2.782-1.064-2.848-3.02h6.63v-.595c0-3.4-2.022-4.566-3.924-4.566-2.474 0-4.115 1.95-4.115 4.756 0 2.807 1.618 4.685 4.257 4.685zm-2.848-5.494c.096-1.421 1.1-2.687 2.706-2.687 1.522 0 2.497 1.141 2.497 2.687h-5.203zm13.495 5.303h1.546l5.422-10.797V47.74h-7.801v1.308h6.279v.095l-5.446 10.773zm16.127-5.874h-8.371v1.308h8.371v-1.308zm5.374-6.302h-1.474l-3.045 2.022v1.498l2.973-1.974h.072v10.63h1.474V47.74zm3.715 12.176h1.546l5.422-10.797V47.74h-7.8v1.308h6.278v.095l-5.446 10.773zm40.355-10.868h3.828v10.868h1.475V49.047h3.829v-1.308h-9.132v1.308zm12.453 5.375c0-1.594 1.017-2.497 2.402-2.497 1.32 0 2.116.832 2.116 2.283v5.707h1.404v-5.803c0-2.348-1.249-3.448-3.116-3.448-1.439 0-2.259.6-2.687 1.546h-.119v-4.471h-1.403v12.176h1.403v-5.493zm12.15 5.684c1.855 0 3.21-.928 3.639-2.307l-1.356-.38c-.357.95-1.183 1.426-2.283 1.426-1.647 0-2.783-1.064-2.848-3.02h6.629v-.595c0-3.4-2.021-4.566-3.924-4.566-2.473 0-4.114 1.95-4.114 4.756 0 2.807 1.617 4.685 4.257 4.685zm-2.848-5.494c.095-1.421 1.1-2.687 2.705-2.687 1.522 0 2.497 1.141 2.497 2.687h-5.202zm14.802-6.873h-1.474v12.176h1.474V47.74zM209 54.422c0-1.594.987-2.497 2.331-2.497 1.302 0 2.093.85 2.093 2.283v5.707h1.403v-5.803c0-2.33-1.243-3.448-3.092-3.448-1.379 0-2.235.618-2.664 1.546h-.118v-1.427h-1.356v9.132H209v-5.493zm12.195-3.639h-1.95v-2.188h-1.403v2.188h-1.38v1.19h1.38v5.707c0 1.593 1.284 2.354 2.473 2.354.523 0 .856-.095 1.046-.166l-.285-1.26c-.119.023-.309.07-.618.07-.619 0-1.213-.19-1.213-1.379v-5.327h1.95v-1.189zm5.674 9.322c1.855 0 3.21-.927 3.638-2.306l-1.355-.38c-.357.95-1.183 1.426-2.283 1.426-1.647 0-2.783-1.064-2.848-3.02h6.629v-.595c0-3.4-2.021-4.566-3.924-4.566-2.473 0-4.114 1.95-4.114 4.756 0 2.807 1.617 4.685 4.257 4.685zm-2.848-5.493c.095-1.421 1.1-2.687 2.705-2.687 1.522 0 2.497 1.141 2.497 2.687h-5.202zm8.596 5.303h1.403v-5.779c0-1.236.975-2.14 2.307-2.14.375 0 .761.071.856.095v-1.427c-.16-.012-.529-.024-.737-.024-1.094 0-2.045.619-2.378 1.522h-.095v-1.379h-1.356v9.132zm7.465-5.493c0-1.594.987-2.497 2.331-2.497 1.302 0 2.093.85 2.093 2.283v5.707h1.403v-5.803c0-2.33-1.243-3.448-3.092-3.448-1.379 0-2.235.618-2.664 1.546h-.118v-1.427h-1.356v9.132h1.403v-5.493zm12.052 5.684c1.855 0 3.211-.928 3.639-2.307l-1.356-.38c-.357.95-1.183 1.426-2.283 1.426-1.647 0-2.782-1.064-2.848-3.02h6.629v-.595c0-3.4-2.021-4.566-3.924-4.566-2.473 0-4.114 1.95-4.114 4.756 0 2.807 1.617 4.685 4.257 4.685zm-2.848-5.494c.095-1.421 1.1-2.687 2.705-2.687 1.522 0 2.497 1.141 2.497 2.687h-5.202zm12.568-3.829h-1.95v-2.188h-1.403v2.188h-1.38v1.19h1.38v5.707c0 1.593 1.284 2.354 2.473 2.354.523 0 .856-.095 1.046-.166l-.285-1.26c-.119.023-.309.07-.618.07-.619 0-1.213-.19-1.213-1.379v-5.327h1.95v-1.189z" fill="#fff"/><circle cx="151.948" cy="54.398" r="1.942" fill="#DF745B"/><path d="M68.152 20.427c-.255 6.126-5.177 10.94-11.376 10.94-6.52 0-11.312-5.126-11.312-11.377s5.24-11.44 11.632-11.44c2.876 0 5.688 1.188 8.116 3.376l-1.853 2.25c-1.854-1.563-4.027-2.625-6.2-2.625-4.665 0-8.5 3.75-8.5 8.376 0 4.689 3.643 8.314 8.245 8.314 4.154 0 7.414-2.938 8.053-6.814h-9.395V18.74H68.28l-.128 1.688zM78.797 18.8h-1.82c-2.02 0-3.638 1.54-3.638 3.463v9.104h-3.234V15.85H72.8v1.283c.876-.834 2.291-1.283 3.841-1.283h3.504l-1.348 2.95zM95.66 31.152H92.96v-1.928c-2.109 1.928-5.404 2.861-8.764 1.493-2.504-1.058-4.35-3.172-4.81-5.722-.989-4.79 2.965-9.144 8.038-9.144 2.11 0 4.086.809 5.47 2.115v-1.928h2.767v15.114zm-3.294-6.406c.724-3.048-1.714-5.847-4.877-5.847-2.767 0-5.008 2.115-5.008 4.727 0 2.923 2.702 5.225 5.93 4.665 1.912-.31 3.493-1.742 3.954-3.545zM101.44 15.5v.864h4.88v2.655h-4.88v12.348h-3.042V15.623c0-3.272 2.408-5.248 5.451-5.248h3.676l-1.205 2.84h-2.471c-1.331 0-2.409.988-2.409 2.285zM122.974 31.152h-2.691v-1.928c-2.1 1.928-5.382 2.861-8.73 1.493-2.494-1.058-4.332-3.172-4.791-5.722-.985-4.79 3.019-9.144 8.073-9.144 2.101 0 4.07.809 5.448 2.115v-1.928h2.757l-.066 15.114zm-3.216-6.406c.722-3.048-1.706-5.847-4.857-5.847-2.757 0-4.988 2.115-4.988 4.727 0 2.923 2.691 5.225 5.907 4.665 1.903-.31 3.479-1.742 3.938-3.545zM138.555 22.348v9.019h-2.992v-9.02c0-1.892-1.558-3.405-3.365-3.405-1.932 0-3.428 1.514-3.428 3.406v9.019h-2.992V16.104h2.493v1.324c1.06-1.009 2.556-1.577 4.051-1.577 3.491 0 6.233 2.902 6.233 6.497zM156.746 31.152h-2.541v-1.928c-1.984 1.928-5.084 2.861-8.245 1.493-2.356-1.058-4.092-3.172-4.526-5.722-.93-4.79 2.852-9.144 7.625-9.144 1.984 0 3.844.809 5.146 2.115v-1.928h2.603l-.062 15.114zm-3.037-6.406c.681-3.048-1.612-5.847-4.588-5.847a4.717 4.717 0 00-4.711 4.727c0 2.923 2.542 5.225 5.579 4.665 1.736-.31 3.286-1.742 3.72-3.545z" fill="#fff"/><path d="M282.689 30.486l4.984-6.033c1.001-1.212 1.764-2.738 1.764-4.07 0-2.739-1.931-4.532-4.721-4.532-2.48 0-4.317 1.382-4.698 3.61l1.359.34c.286-1.527 1.598-2.472 3.339-2.472 1.884 0 3.195 1.212 3.195 3.053 0 .945-.667 2.205-1.598 3.368l-6.2 7.584v.654h9.515v-1.502h-6.939z" fill="#386BDF"/><path d="M282.689 30.486l4.984-6.033c1.001-1.212 1.764-2.738 1.764-4.07 0-2.739-1.931-4.532-4.721-4.532-2.48 0-4.317 1.382-4.698 3.61l1.359.34c.286-1.527 1.598-2.472 3.339-2.472 1.884 0 3.195 1.212 3.195 3.053 0 .945-.667 2.205-1.598 3.368l-6.2 7.584v.654h9.515v-1.502h-6.939z" fill="url(#paint0_linear)"/><path d="M282.689 30.486l4.984-6.033c1.001-1.212 1.764-2.738 1.764-4.07 0-2.739-1.931-4.532-4.721-4.532-2.48 0-4.317 1.382-4.698 3.61l1.359.34c.286-1.527 1.598-2.472 3.339-2.472 1.884 0 3.195 1.212 3.195 3.053 0 .945-.667 2.205-1.598 3.368l-6.2 7.584v.654h9.515v-1.502h-6.939z" fill="#fff"/><path d="M297.805 32.28c4.435 0 5.556-3.732 5.556-8.239 0-4.53-1.121-8.19-5.556-8.19-4.436 0-5.604 3.66-5.604 8.19 0 4.507 1.168 8.238 5.604 8.238zm0-1.479c-3.267 0-4.078-3.101-4.078-6.76 0-3.683.811-6.712 4.078-6.712 3.243 0 4.054 3.03 4.054 6.712 0 3.659-.811 6.76-4.054 6.76z" fill="#386BDF"/><path d="M297.805 32.28c4.435 0 5.556-3.732 5.556-8.239 0-4.53-1.121-8.19-5.556-8.19-4.436 0-5.604 3.66-5.604 8.19 0 4.507 1.168 8.238 5.604 8.238zm0-1.479c-3.267 0-4.078-3.101-4.078-6.76 0-3.683.811-6.712 4.078-6.712 3.243 0 4.054 3.03 4.054 6.712 0 3.659-.811 6.76-4.054 6.76z" fill="url(#paint1_linear)"/><path d="M297.805 32.28c4.435 0 5.556-3.732 5.556-8.239 0-4.53-1.121-8.19-5.556-8.19-4.436 0-5.604 3.66-5.604 8.19 0 4.507 1.168 8.238 5.604 8.238zm0-1.479c-3.267 0-4.078-3.101-4.078-6.76 0-3.683.811-6.712 4.078-6.712 3.243 0 4.054 3.03 4.054 6.712 0 3.659-.811 6.76-4.054 6.76z" fill="#fff"/><path d="M308.434 30.486l4.984-6.033c1.002-1.212 1.765-2.738 1.765-4.07 0-2.739-1.932-4.532-4.722-4.532-2.48 0-4.316 1.382-4.698 3.61l1.36.34c.286-1.527 1.597-2.472 3.338-2.472 1.884 0 3.196 1.212 3.196 3.053 0 .945-.668 2.205-1.598 3.368l-6.2 7.584v.654h9.515v-1.502h-6.94z" fill="#386BDF"/><path d="M308.434 30.486l4.984-6.033c1.002-1.212 1.765-2.738 1.765-4.07 0-2.739-1.932-4.532-4.722-4.532-2.48 0-4.316 1.382-4.698 3.61l1.36.34c.286-1.527 1.597-2.472 3.338-2.472 1.884 0 3.196 1.212 3.196 3.053 0 .945-.668 2.205-1.598 3.368l-6.2 7.584v.654h9.515v-1.502h-6.94z" fill="url(#paint2_linear)"/><path d="M308.434 30.486l4.984-6.033c1.002-1.212 1.765-2.738 1.765-4.07 0-2.739-1.932-4.532-4.722-4.532-2.48 0-4.316 1.382-4.698 3.61l1.36.34c.286-1.527 1.597-2.472 3.338-2.472 1.884 0 3.196 1.212 3.196 3.053 0 .945-.668 2.205-1.598 3.368l-6.2 7.584v.654h9.515v-1.502h-6.94z" fill="#fff"/><path d="M322.929 15.851l-4.841 2.254v1.526l3.41-1.478v13.835H323V15.851h-.071z" fill="#386BDF"/><path d="M322.929 15.851l-4.841 2.254v1.526l3.41-1.478v13.835H323V15.851h-.071z" fill="url(#paint3_linear)"/><path d="M322.929 15.851l-4.841 2.254v1.526l3.41-1.478v13.835H323V15.851h-.071zM172.638 32.28c3.509 0 6.567-1.598 8.531-4.128l-2.447-2.03c-1.416 1.797-3.605 2.962-6.052 2.962-4.539 0-7.983-3.927-7.983-8.62 0-4.725 3.477-8.719 7.983-8.719 2.447 0 4.636 1.165 6.052 2.962l2.447-2.03c-1.964-2.53-5.022-4.127-8.531-4.127-6.277 0-11.267 5.425-11.267 11.915 0 6.49 4.99 11.814 11.267 11.814zM193.402 32.28c6.342 0 11.267-5.326 11.267-11.815 0-6.524-4.925-11.915-11.267-11.915-6.309 0-11.202 5.391-11.202 11.915 0 6.49 4.893 11.814 11.202 11.814zm0-3.196c-4.507 0-7.887-3.927-7.887-8.62 0-4.725 3.38-8.719 7.887-8.719 4.539 0 7.951 3.994 7.951 8.72 0 4.692-3.412 8.62-7.951 8.62zM220.385 8.95v16.573L210.792 8.95h-3.219v22.93h3.316V15.174l9.689 16.707h3.122V8.95h-3.315zM227.523 31.88h3.155V8.95h-3.155v22.93zM236.025 12.95c1.191 0 2.157-.898 2.157-2.096s-.966-2.097-2.157-2.097c-1.159 0-2.157.899-2.157 2.097s.998 2.097 2.157 2.097zm-1.577 18.93h3.155V16.338h-3.155V31.88zM249.072 15.938c-1.609 0-4.024.866-4.893 2.796v-2.396h-3.155V31.88h3.155v-8.354c0-3.228 2.382-4.393 4.346-4.393 1.931 0 3.412 1.531 3.412 4.06v8.687h3.155v-8.886c.032-4.427-2.221-7.056-6.02-7.056zM272.716 24.026c0-4.893-3.251-8.088-7.532-8.088-4.282 0-7.758 3.195-7.758 8.12 0 4.926 3.412 8.221 7.758 8.221 2.865 0 5.569-1.398 6.888-3.994l-2.511-1.297c-.836 1.43-2.478 2.263-4.216 2.263-2.447 0-4.25-1.298-4.668-3.828h11.975c.032-.499.064-.965.064-1.397zm-12.007-1.232c.451-2.596 2.189-3.827 4.507-3.827 2.317 0 4.056 1.398 4.345 3.827h-8.852z" fill="#fff"/><path d="M35.625 17.113a15.81 15.81 0 00-.385-2.236 12.269 12.269 0 00-1.012-2.689 13.467 13.467 0 00-1.886-2.863 14.835 14.835 0 00-1.013-1.083c.558-2.165-.664-4.051-.664-4.051-2.095-.14-3.423.663-3.912 1.013-.07-.035-.174-.07-.244-.105-.35-.14-.734-.28-1.083-.384L24.274 4.4c-.385-.104-.804-.174-1.188-.244-.07 0-.14-.035-.21-.035C21.969 1.222 19.35 0 19.35 0c-2.899 1.851-3.458 4.435-3.458 4.435s0 .07-.035.14c-.174.035-.314.105-.489.14-.21.07-.454.14-.663.244-.21.105-.454.175-.664.28a8.826 8.826 0 00-1.292.628 23.5 23.5 0 00-1.222.768c-.07-.034-.105-.034-.105-.034-4.017-1.537-7.614.314-7.614.314-.314 4.295 1.607 6.985 1.99 7.474-.104.279-.174.523-.279.803a17.026 17.026 0 00-.663 3.003c-.035.14-.035.28-.07.454C1.118 20.465 0 24.237 0 24.237c3.108 3.562 6.74 3.807 6.74 3.807.455.838 1.014 1.606 1.607 2.34.245.314.524.593.804.873-1.118 3.247.174 5.937.174 5.937 3.458.14 5.728-1.502 6.217-1.886l1.048.314c1.048.28 2.165.42 3.248.489h1.397c1.642 2.34 4.506 2.654 4.506 2.654 2.025-2.165 2.165-4.295 2.165-4.75v-.034-.07-.105c.42-.314.838-.629 1.222-.978a13.111 13.111 0 002.13-2.48c.07-.07.106-.174.175-.244 2.306.14 3.947-1.432 3.947-1.432-.384-2.41-1.746-3.562-2.026-3.806l-.035-.035c-.034-.035-.14 0-.14 0l-.034-.035c0-.14.035-.28.035-.42 0-.244.035-.523.035-.768v-.349V22.805v-.21c0-.07 0-.14-.035-.209l-.035-.21-.07-.174c-.035-.28-.105-.524-.14-.803a10.131 10.131 0 00-1.187-2.899 9.688 9.688 0 00-1.956-2.34c-.734-.664-1.607-1.187-2.48-1.606-.873-.385-1.816-.664-2.724-.769-.454-.07-.908-.07-1.362-.07H22.527c-.244.035-.454.07-.698.105a7.99 7.99 0 00-2.55.943 7.01 7.01 0 00-1.956 1.676 9.267 9.267 0 00-1.257 2.096 7.351 7.351 0 00-.489 2.235V21.409c0 .104 0 .174.035.279.035.384.105.733.21 1.082.21.699.523 1.327.908 1.851.384.524.873.978 1.362 1.327.489.35 1.048.594 1.571.734.524.174 1.048.21 1.572.21h.733c.07 0 .105-.036.175-.036.07 0 .105-.035.175-.035.104-.035.21-.07.349-.104.21-.07.42-.175.629-.245.174-.105.384-.21.524-.314.035-.035.104-.07.14-.105a.394.394 0 00.07-.559c-.106-.14-.35-.174-.49-.104-.035.034-.07.034-.14.07-.14.07-.279.139-.454.174-.174.035-.314.105-.489.14-.104 0-.174.034-.279.034H21.584s-.035 0 0 0H21.34c-.383-.07-.802-.174-1.152-.349-.384-.174-.733-.419-1.082-.698a3.977 3.977 0 01-1.292-2.375c-.036-.244-.07-.489-.036-.733v-.28-.105c0-.14.035-.244.07-.384a5.134 5.134 0 011.502-2.794c.21-.174.42-.384.629-.523.244-.175.454-.28.733-.42a5.43 5.43 0 01.804-.279c.279-.07.558-.105.838-.14h.698c.035 0 0 0 0 0h.105c.314.035.594.07.908.14.594.14 1.188.35 1.746.664 1.083.593 2.026 1.536 2.585 2.689.28.559.489 1.187.594 1.816.035.174.035.314.07.489v.908c0 .174-.035.349-.035.524-.035.174-.035.349-.07.524-.035.174-.07.349-.105.488-.07.35-.175.664-.314.978a7.12 7.12 0 01-1.013 1.816c-.838 1.118-1.956 2.06-3.213 2.62-.63.279-1.328.488-1.991.628-.35.07-.699.105-1.048.105h-.594c.035 0 0 0 0 0h-.035c-.174 0-.384 0-.558-.035-.734-.07-1.502-.175-2.2-.384a10.628 10.628 0 01-2.061-.838c-1.328-.699-2.48-1.677-3.423-2.83-.454-.593-.873-1.187-1.188-1.85a10.504 10.504 0 01-.803-2.06c-.175-.699-.314-1.432-.35-2.166V20.535v.07V20.256v-.28c0-.349.036-.733.106-1.082.034-.384.104-.734.174-1.118.07-.384.175-.733.28-1.082.21-.699.454-1.397.768-2.061.594-1.327 1.397-2.48 2.34-3.388.244-.244.489-.454.733-.663.245-.21.524-.384.804-.559.28-.175.559-.35.838-.489.14-.07.28-.14.454-.21l.21-.104.21-.105c.313-.14.628-.244.942-.35.07-.034.175-.034.245-.069s.174-.035.244-.07c.175-.035.314-.07.489-.105.07-.035.175-.035.245-.07.07 0 .174-.034.244-.034s.175-.035.244-.035l.105-.035h.105c.07 0 .175-.035.244-.035.105 0 .175-.035.28-.035.07 0 .21-.035.28-.035h.838s.035 0 0 0H22.772c.629.035 1.222.105 1.816.21a11.62 11.62 0 013.318 1.117c1.013.489 1.92 1.118 2.69 1.746.034.035.104.07.139.14.035.035.105.07.14.14.104.07.174.174.28.244.104.07.174.175.278.245.105.104.175.174.245.279.35.35.629.698.908 1.083.559.733 1.013 1.431 1.362 2.13.035.035.035.07.07.14.035.035.035.07.07.14s.07.174.105.244c.035.07.07.174.104.244.035.07.07.175.105.245.14.314.245.628.35.908.174.454.279.873.384 1.257.035.14.174.244.314.244a.3.3 0 00.28-.279c-.035-.629-.035-1.083-.105-1.606z" fill="url(#paint4_linear)"/><defs><linearGradient id="paint0_linear" x1="271.856" y1="15.851" x2="271.856" y2="24.978" gradientUnits="userSpaceOnUse"><stop stop-color="#FB9D5A"/><stop offset="1" stop-color="#FC6754"/></linearGradient><linearGradient id="paint1_linear" x1="271.856" y1="15.851" x2="271.856" y2="24.978" gradientUnits="userSpaceOnUse"><stop stop-color="#FB9D5A"/><stop offset="1" stop-color="#FC6754"/></linearGradient><linearGradient id="paint2_linear" x1="271.856" y1="15.851" x2="271.856" y2="24.978" gradientUnits="userSpaceOnUse"><stop stop-color="#FB9D5A"/><stop offset="1" stop-color="#FC6754"/></linearGradient><linearGradient id="paint3_linear" x1="271.856" y1="15.851" x2="271.856" y2="24.978" gradientUnits="userSpaceOnUse"><stop stop-color="#FB9D5A"/><stop offset="1" stop-color="#FC6754"/></linearGradient><linearGradient id="paint4_linear" x1="17.858" y1="36.152" x2="17.858" y2="3.702" gradientUnits="userSpaceOnUse"><stop stop-color="#FAB938"/><stop offset=".635" stop-color="#FA7A28"/><stop offset="1" stop-color="#FA551F"/></linearGradient></defs></svg>