<svg xmlns="http://www.w3.org/2000/svg" width="49" height="46" viewBox="0 0 49 46" fill="none"><path fill="#FF671D" stroke="#04BC4C" stroke-width="6" d="M27.07 10.453 24.5 6.182l-2.57 4.271-3.789 6.295-7.157 1.658-4.857 1.124 3.268 3.765 4.816 5.548-.635 7.32-.43 4.966 4.59-1.945 6.764-2.866 6.765 2.866 4.59 1.945-.431-4.967-.635-7.319 4.816-5.548 3.268-3.765-4.857-1.124-7.157-1.658z"/><path fill="#FF671D" stroke="#FFED23" stroke-width="4" d="M26.214 10.969 24.5 8.12l-1.714 2.848-4.006 6.658-7.57 1.753-3.238.75 2.178 2.51 5.094 5.867-.672 7.742-.287 3.31 3.06-1.296 7.155-3.03 7.155 3.03 3.06 1.297-.287-3.311-.672-7.742 5.094-5.868 2.178-2.51-3.237-.75-7.57-1.752z"/><path fill="#FF671D" stroke="#fff" stroke-width="2" d="m25.357 11.484-.857-1.423-.857 1.423-4.225 7.021-7.983 1.85-1.619.374 1.09 1.255 5.371 6.188-.708 8.163-.144 1.656 1.53-.648 7.545-3.197 7.545 3.197 1.53.648-.144-1.656-.708-8.163 5.371-6.188 1.09-1.255-1.62-.375-7.982-1.849z"/></svg>