<svg width="272" height="36" fill="none" xmlns="http://www.w3.org/2000/svg"><path d="M58.814 19.275c-.214 5.123-4.329 9.148-9.513 9.148-5.451 0-9.46-4.286-9.46-9.514 0-5.227 4.383-9.566 9.727-9.566 2.405 0 4.757.994 6.788 2.823l-1.55 1.882c-1.55-1.307-3.367-2.196-5.184-2.196-3.902 0-7.108 3.137-7.108 7.005 0 3.92 3.046 6.953 6.894 6.953 3.474 0 6.2-2.457 6.734-5.698h-7.856v-2.248H58.92l-.107 1.411zM67.716 17.915h-1.52c-1.691 0-3.043 1.287-3.043 2.895v7.613h-2.705V15.45h2.254v1.072c.732-.697 1.916-1.072 3.212-1.072h2.93l-1.127 2.466zM81.817 28.244h-2.26V26.63c-1.763 1.613-4.518 2.393-7.328 1.249-2.094-.884-3.637-2.653-4.022-4.785-.827-4.005 2.479-7.646 6.722-7.646 1.763 0 3.416.676 4.573 1.768v-1.612h2.315v12.639zm-2.756-5.357c.607-2.549-1.432-4.89-4.077-4.89-2.314 0-4.188 1.769-4.188 3.953 0 2.445 2.26 4.37 4.96 3.901 1.597-.26 2.92-1.456 3.305-2.964zM86.651 15.155v.723h4.081v2.22h-4.08v10.325h-2.545V15.258c0-2.736 2.014-4.388 4.558-4.388h3.074l-1.007 2.375h-2.067c-1.113 0-2.014.826-2.014 1.91zM104.659 28.244h-2.251V26.63c-1.756 1.613-4.5 2.393-7.3 1.249-2.085-.884-3.622-2.653-4.006-4.785-.824-4.005 2.524-7.646 6.75-7.646 1.757 0 3.404.676 4.556 1.768v-1.612h2.306l-.055 12.639zm-2.69-5.357c.604-2.549-1.427-4.89-4.061-4.89-2.306 0-4.172 1.769-4.172 3.953 0 2.445 2.25 4.37 4.94 3.901 1.592-.26 2.909-1.456 3.293-2.964zM117.688 20.881v7.542h-2.502v-7.542c0-1.582-1.303-2.848-2.814-2.848-1.616 0-2.867 1.266-2.867 2.848v7.542h-2.502V15.66h2.085v1.107c.886-.843 2.137-1.318 3.388-1.318 2.919 0 5.212 2.426 5.212 5.432zM132.9 28.244h-2.125V26.63c-1.659 1.613-4.251 2.393-6.894 1.249-1.97-.884-3.422-2.653-3.785-4.785-.777-4.005 2.385-7.646 6.376-7.646 1.659 0 3.214.676 4.303 1.768v-1.612h2.177l-.052 12.639zm-2.54-5.357c.571-2.549-1.347-4.89-3.836-4.89a3.944 3.944 0 0 0-3.939 3.953c0 2.445 2.125 4.37 4.665 3.901 1.451-.26 2.747-1.456 3.11-2.964z" fill="#fff"/><path d="m238.214 27.687 4.168-5.045c.837-1.013 1.476-2.29 1.476-3.404 0-2.29-1.616-3.79-3.949-3.79-2.074 0-3.609 1.156-3.928 3.02l1.136.284c.24-1.277 1.336-2.067 2.792-2.067 1.576 0 2.672 1.013 2.672 2.553 0 .79-.558 1.844-1.336 2.816l-5.185 6.342v.547h7.957v-1.256h-5.803z" fill="#386BDF"/><path d="m238.214 27.687 4.168-5.045c.837-1.013 1.476-2.29 1.476-3.404 0-2.29-1.616-3.79-3.949-3.79-2.074 0-3.609 1.156-3.928 3.02l1.136.284c.24-1.277 1.336-2.067 2.792-2.067 1.576 0 2.672 1.013 2.672 2.553 0 .79-.558 1.844-1.336 2.816l-5.185 6.342v.547h7.957v-1.256h-5.803z" fill="url(#a)"/><path d="M250.855 29.186c3.709 0 4.646-3.12 4.646-6.889 0-3.789-.937-6.848-4.646-6.848-3.709 0-4.687 3.06-4.687 6.848 0 3.769.978 6.89 4.687 6.89zm0-1.236c-2.732 0-3.41-2.593-3.41-5.653 0-3.08.678-5.612 3.41-5.612 2.712 0 3.39 2.533 3.39 5.612 0 3.06-.678 5.653-3.39 5.653z" fill="#386BDF"/><path d="M250.855 29.186c3.709 0 4.646-3.12 4.646-6.889 0-3.789-.937-6.848-4.646-6.848-3.709 0-4.687 3.06-4.687 6.848 0 3.769.978 6.89 4.687 6.89zm0-1.236c-2.732 0-3.41-2.593-3.41-5.653 0-3.08.678-5.612 3.41-5.612 2.712 0 3.39 2.533 3.39 5.612 0 3.06-.678 5.653-3.39 5.653z" fill="url(#b)"/><path d="m259.743 27.687 4.168-5.045c.837-1.013 1.476-2.29 1.476-3.404 0-2.29-1.616-3.79-3.949-3.79-2.074 0-3.609 1.156-3.928 3.02l1.136.284c.24-1.277 1.336-2.067 2.792-2.067 1.575 0 2.672 1.013 2.672 2.553 0 .79-.558 1.844-1.336 2.816l-5.185 6.342v.547h7.957v-1.256h-5.803z" fill="#386BDF"/><path d="m259.743 27.687 4.168-5.045c.837-1.013 1.476-2.29 1.476-3.404 0-2.29-1.616-3.79-3.949-3.79-2.074 0-3.609 1.156-3.928 3.02l1.136.284c.24-1.277 1.336-2.067 2.792-2.067 1.575 0 2.672 1.013 2.672 2.553 0 .79-.558 1.844-1.336 2.816l-5.185 6.342v.547h7.957v-1.256h-5.803z" fill="url(#c)"/><path d="m271.515 15.466-4.049 1.885v1.276l2.852-1.236v11.57h1.256V15.466h-.059z" fill="#386BDF"/><path d="m271.515 15.466-4.049 1.885v1.276l2.852-1.236v11.57h1.256V15.466h-.059z" fill="url(#d)"/><path d="M146.189 29.186c2.934 0 5.491-1.335 7.133-3.45l-2.045-1.698c-1.185 1.503-3.015 2.477-5.061 2.477-3.796 0-6.676-3.284-6.676-7.208 0-3.952 2.907-7.292 6.676-7.292 2.046 0 3.876.974 5.061 2.477l2.045-1.698c-1.642-2.115-4.199-3.45-7.133-3.45-5.249 0-9.421 4.536-9.421 9.963s4.172 9.88 9.421 9.88zM163.552 29.186c5.303 0 9.422-4.453 9.422-9.88 0-5.454-4.119-9.963-9.422-9.963-5.276 0-9.367 4.509-9.367 9.964 0 5.427 4.091 9.88 9.367 9.88zm0-2.671c-3.768 0-6.595-3.284-6.595-7.208 0-3.952 2.827-7.292 6.595-7.292 3.796 0 6.649 3.34 6.649 7.292 0 3.924-2.853 7.208-6.649 7.208zM186.116 9.677v13.86l-8.022-13.86h-2.692v19.175h2.773v-13.97l8.103 13.97h2.611V9.677h-2.773zM192.085 28.852h2.638V9.677h-2.638v19.175zM199.195 13.023c.996 0 1.803-.751 1.803-1.753 0-1.002-.807-1.753-1.803-1.753-.969 0-1.804.751-1.804 1.753 0 1.002.835 1.753 1.804 1.753zm-1.319 15.83h2.638V15.855h-2.638v12.996zM210.105 15.522c-1.346 0-3.365.723-4.092 2.337v-2.003h-2.638v12.996h2.638v-6.985c0-2.7 1.992-3.674 3.634-3.674 1.615 0 2.854 1.28 2.854 3.396v7.263h2.638v-7.43c.027-3.702-1.858-5.9-5.034-5.9zM229.877 22.284c0-4.09-2.719-6.762-6.299-6.762-3.58 0-6.488 2.671-6.488 6.79 0 4.12 2.854 6.874 6.488 6.874 2.395 0 4.657-1.169 5.76-3.34l-2.099-1.085c-.7 1.197-2.073 1.893-3.527 1.893-2.045 0-3.553-1.086-3.903-3.2h10.014c.027-.418.054-.808.054-1.17zm-10.041-1.03c.377-2.17 1.831-3.2 3.769-3.2 1.938 0 3.391 1.17 3.634 3.2h-7.403z" fill="#fff"/><path d="M32.67 15.858c-.06-.773-.08-1.41-.272-2.18a11.276 11.276 0 0 0-.931-2.473 12.381 12.381 0 0 0-1.734-2.632c-.289-.354-.61-.675-.931-.996.514-1.99-.61-3.724-.61-3.724-1.927-.129-3.147.61-3.596.93-.065-.031-.161-.063-.225-.095a12.293 12.293 0 0 0-.996-.354l-1.06-.289c-.352-.096-.738-.16-1.09-.224-.065 0-.13-.032-.194-.032C20.197 1.124 17.788 0 17.788 0c-2.665 1.702-3.178 4.078-3.178 4.078s0 .064-.032.128c-.161.032-.29.096-.45.128-.193.065-.417.129-.61.225s-.418.16-.61.257c-.418.16-.803.353-1.188.578-.386.225-.739.45-1.124.706-.064-.032-.096-.032-.096-.032-3.693-1.413-7 .29-7 .29-.29 3.948 1.477 6.42 1.83 6.87-.096.257-.16.482-.257.739a15.651 15.651 0 0 0-.61 2.76c-.032.13-.032.258-.064.418C1.027 18.815 0 22.282 0 22.282c2.858 3.275 6.197 3.5 6.197 3.5.417.77.931 1.477 1.477 2.15.225.29.482.547.739.804-1.028 2.985.16 5.458.16 5.458 3.179.128 5.266-1.38 5.716-1.734l.963.289c.963.257 1.99.385 2.986.45h1.284c1.51 2.15 4.142 2.44 4.142 2.44 1.863-1.991 1.991-3.95 1.991-4.367v-.193c.386-.289.77-.578 1.124-.899a12.054 12.054 0 0 0 1.959-2.28c.064-.063.096-.16.16-.224 2.12.129 3.628-1.316 3.628-1.316-.353-2.216-1.605-3.275-1.862-3.5l-.032-.032c-.032-.032-.128 0-.128 0l-.033-.032c0-.129.033-.257.033-.386 0-.224.032-.481.032-.706v-.931c0-.064 0-.128-.032-.192l-.033-.193-.064-.16c-.032-.258-.096-.482-.128-.74a9.309 9.309 0 0 0-1.092-2.664 8.906 8.906 0 0 0-1.798-2.151c-.674-.61-1.477-1.092-2.28-1.477-.802-.353-1.67-.61-2.504-.707-.418-.064-.835-.064-1.253-.064h-.641c-.225.032-.418.064-.643.097-.835.16-1.637.45-2.344.867a6.443 6.443 0 0 0-1.798 1.54 8.522 8.522 0 0 0-1.156 1.927 6.758 6.758 0 0 0-.45 2.055v.77c0 .097 0 .161.033.257.032.354.096.675.192.996a5.61 5.61 0 0 0 .835 1.701c.353.482.803.9 1.252 1.22.45.321.964.546 1.445.675.482.16.964.192 1.445.192h.675c.064 0 .096-.032.16-.032s.096-.032.16-.032c.097-.032.193-.064.322-.096.192-.065.385-.16.578-.225.16-.096.362-.237.422-.386.032-.032-.092-.064-.06-.096.16-.128.129-.04 0-.201-.096-.129-.02-.152-.148-.088-.032.033-.085-.032-.15 0-.128.065-.196.056-.356.088-.16.032-.286.04-.447.073-.132 0-.2.016-.297.016h-.684c-.032 0-.132-.002-.268-.03-.446-.089-.549-.147-.87-.307-.353-.16-.674-.385-.995-.642a3.657 3.657 0 0 1-1.188-2.183c-.032-.225-.065-.45-.032-.675v-.353c0-.128.032-.225.064-.353a4.72 4.72 0 0 1 1.38-2.569c.193-.16.386-.353.578-.481.225-.16.418-.257.675-.386.224-.096.481-.192.738-.256a6.43 6.43 0 0 1 .77-.129h.739c.29.032.546.064.835.129a6.115 6.115 0 0 1 1.606.61 5.705 5.705 0 0 1 2.376 2.472c.256.514.45 1.091.546 1.67.032.16.032.288.064.449v.835c0 .16-.032.32-.032.481-.032.16-.032.321-.065.482-.032.16-.064.32-.096.45-.064.32-.16.61-.289.898a6.542 6.542 0 0 1-.931 1.67c-.77 1.027-1.798 1.894-2.954 2.408-.578.257-1.22.45-1.83.578a4.902 4.902 0 0 1-.964.096H18.977c-.161 0-.354 0-.514-.032-.675-.064-1.381-.16-2.023-.353a9.77 9.77 0 0 1-1.895-.77A10.264 10.264 0 0 1 11.4 24.85c-.418-.546-.803-1.092-1.092-1.702a9.665 9.665 0 0 1-.739-1.894c-.16-.642-.288-1.317-.32-1.99v-.9c0-.321.032-.674.096-.995.032-.353.096-.675.16-1.028.065-.353.16-.674.257-.995.193-.642.418-1.284.707-1.894.545-1.22 1.284-2.28 2.15-3.115.226-.224.45-.417.675-.61.225-.192.482-.353.739-.513.257-.16.513-.321.77-.45.129-.064.257-.128.418-.192l.192-.097.193-.096c.289-.129.578-.225.867-.321.064-.032.16-.032.225-.064.064-.033.16-.033.225-.065.16-.032.288-.064.449-.096.064-.032.16-.032.225-.064.064 0 .16-.032.224-.032.065 0 .161-.032.225-.032l.097-.032h.096c.064 0 .16-.033.225-.033.096 0 .16-.032.257-.032.064 0 .192-.032.257-.032H20.934c.578.032 1.124.097 1.67.193 1.091.192 2.119.546 3.05 1.027.931.45 1.766 1.028 2.473 1.606.032.032.096.064.128.128.032.032.096.064.128.128.097.065.161.161.257.225.097.064.16.16.257.225.096.096.16.16.225.257.321.32.578.642.835.995.514.674.93 1.316 1.252 1.959.032.032.032.064.064.128.032.032.032.064.064.128.033.065.065.161.097.225s.064.16.096.225c.032.064.064.16.096.225.129.289.18.429.268.845.06.596.072 1.018.169 1.372.032.128.16.224.289.224.128 0 .257-.158.257-.286.06-.476.06-.893.06-1.547z" fill="url(#e)" fill-opacity=".4"/><path d="M32.67 15.858c-.06-.773-.08-1.41-.272-2.18a11.276 11.276 0 0 0-.931-2.473 12.381 12.381 0 0 0-1.734-2.632c-.289-.354-.61-.675-.931-.996.514-1.99-.61-3.724-.61-3.724-1.927-.129-3.147.61-3.596.93-.065-.031-.161-.063-.225-.095a12.293 12.293 0 0 0-.996-.354l-1.06-.289c-.352-.096-.738-.16-1.09-.224-.065 0-.13-.032-.194-.032C20.197 1.124 17.788 0 17.788 0c-2.665 1.702-3.178 4.078-3.178 4.078s0 .064-.032.128c-.161.032-.29.096-.45.128-.193.065-.417.129-.61.225s-.418.16-.61.257c-.418.16-.803.353-1.188.578-.386.225-.739.45-1.124.706-.064-.032-.096-.032-.096-.032-3.693-1.413-7 .29-7 .29-.29 3.948 1.477 6.42 1.83 6.87-.096.257-.16.482-.257.739a15.651 15.651 0 0 0-.61 2.76c-.032.13-.032.258-.064.418C1.027 18.815 0 22.282 0 22.282c2.858 3.275 6.197 3.5 6.197 3.5.417.77.931 1.477 1.477 2.15.225.29.482.547.739.804-1.028 2.985.16 5.458.16 5.458 3.179.128 5.266-1.38 5.716-1.734l.963.289c.963.257 1.99.385 2.986.45h1.284c1.51 2.15 4.142 2.44 4.142 2.44 1.863-1.991 1.991-3.95 1.991-4.367v-.193c.386-.289.77-.578 1.124-.899a12.054 12.054 0 0 0 1.959-2.28c.064-.063.096-.16.16-.224 2.12.129 3.628-1.316 3.628-1.316-.353-2.216-1.605-3.275-1.862-3.5l-.032-.032c-.032-.032-.128 0-.128 0l-.033-.032c0-.129.033-.257.033-.386 0-.224.032-.481.032-.706v-.931c0-.064 0-.128-.032-.192l-.033-.193-.064-.16c-.032-.258-.096-.482-.128-.74a9.309 9.309 0 0 0-1.092-2.664 8.906 8.906 0 0 0-1.798-2.151c-.674-.61-1.477-1.092-2.28-1.477-.802-.353-1.67-.61-2.504-.707-.418-.064-.835-.064-1.253-.064h-.641c-.225.032-.418.064-.643.097-.835.16-1.637.45-2.344.867a6.443 6.443 0 0 0-1.798 1.54 8.522 8.522 0 0 0-1.156 1.927 6.758 6.758 0 0 0-.45 2.055v.77c0 .097 0 .161.033.257.032.354.096.675.192.996a5.61 5.61 0 0 0 .835 1.701c.353.482.803.9 1.252 1.22.45.321.964.546 1.445.675.482.16.964.192 1.445.192h.675c.064 0 .096-.032.16-.032s.096-.032.16-.032c.097-.032.193-.064.322-.096.192-.065.385-.16.578-.225.16-.096.362-.237.422-.386.032-.032-.092-.064-.06-.096.16-.128.129-.04 0-.201-.096-.129-.02-.152-.148-.088-.032.033-.085-.032-.15 0-.128.065-.196.056-.356.088-.16.032-.286.04-.447.073-.132 0-.2.016-.297.016h-.684c-.032 0-.132-.002-.268-.03-.446-.089-.549-.147-.87-.307-.353-.16-.674-.385-.995-.642a3.657 3.657 0 0 1-1.188-2.183c-.032-.225-.065-.45-.032-.675v-.353c0-.128.032-.225.064-.353a4.72 4.72 0 0 1 1.38-2.569c.193-.16.386-.353.578-.481.225-.16.418-.257.675-.386.224-.096.481-.192.738-.256a6.43 6.43 0 0 1 .77-.129h.739c.29.032.546.064.835.129a6.115 6.115 0 0 1 1.606.61 5.705 5.705 0 0 1 2.376 2.472c.256.514.45 1.091.546 1.67.032.16.032.288.064.449v.835c0 .16-.032.32-.032.481-.032.16-.032.321-.065.482-.032.16-.064.32-.096.45-.064.32-.16.61-.289.898a6.542 6.542 0 0 1-.931 1.67c-.77 1.027-1.798 1.894-2.954 2.408-.578.257-1.22.45-1.83.578a4.902 4.902 0 0 1-.964.096H18.977c-.161 0-.354 0-.514-.032-.675-.064-1.381-.16-2.023-.353a9.77 9.77 0 0 1-1.895-.77A10.264 10.264 0 0 1 11.4 24.85c-.418-.546-.803-1.092-1.092-1.702a9.665 9.665 0 0 1-.739-1.894c-.16-.642-.288-1.317-.32-1.99v-.9c0-.321.032-.674.096-.995.032-.353.096-.675.16-1.028.065-.353.16-.674.257-.995.193-.642.418-1.284.707-1.894.545-1.22 1.284-2.28 2.15-3.115.226-.224.45-.417.675-.61.225-.192.482-.353.739-.513.257-.16.513-.321.77-.45.129-.064.257-.128.418-.192l.192-.097.193-.096c.289-.129.578-.225.867-.321.064-.032.16-.032.225-.064.064-.033.16-.033.225-.065.16-.032.288-.064.449-.096.064-.032.16-.032.225-.064.064 0 .16-.032.224-.032.065 0 .161-.032.225-.032l.097-.032h.096c.064 0 .16-.033.225-.033.096 0 .16-.032.257-.032.064 0 .192-.032.257-.032H20.934c.578.032 1.124.097 1.67.193 1.091.192 2.119.546 3.05 1.027.931.45 1.766 1.028 2.473 1.606.032.032.096.064.128.128.032.032.096.064.128.128.097.065.161.161.257.225.097.064.16.16.257.225.096.096.16.16.225.257.321.32.578.642.835.995.514.674.93 1.316 1.252 1.959.032.032.032.064.064.128.032.032.032.064.064.128.033.065.065.161.097.225s.064.16.096.225c.032.064.064.16.096.225.129.289.18.429.268.845.06.596.072 1.018.169 1.372.032.128.16.224.289.224.128 0 .257-.158.257-.286.06-.476.06-.893.06-1.547z" fill="#9482ED" fill-opacity=".07"/><path d="M32.67 15.858c-.06-.773-.08-1.41-.272-2.18a11.276 11.276 0 0 0-.931-2.473 12.381 12.381 0 0 0-1.734-2.632c-.289-.354-.61-.675-.931-.996.514-1.99-.61-3.724-.61-3.724-1.927-.129-3.147.61-3.596.93-.065-.031-.161-.063-.225-.095a12.293 12.293 0 0 0-.996-.354l-1.06-.289c-.352-.096-.738-.16-1.09-.224-.065 0-.13-.032-.194-.032C20.197 1.124 17.788 0 17.788 0c-2.665 1.702-3.178 4.078-3.178 4.078s0 .064-.032.128c-.161.032-.29.096-.45.128-.193.065-.417.129-.61.225s-.418.16-.61.257c-.418.16-.803.353-1.188.578-.386.225-.739.45-1.124.706-.064-.032-.096-.032-.096-.032-3.693-1.413-7 .29-7 .29-.29 3.948 1.477 6.42 1.83 6.87-.096.257-.16.482-.257.739a15.651 15.651 0 0 0-.61 2.76c-.032.13-.032.258-.064.418C1.027 18.815 0 22.282 0 22.282c2.858 3.275 6.197 3.5 6.197 3.5.417.77.931 1.477 1.477 2.15.225.29.482.547.739.804-1.028 2.985.16 5.458.16 5.458 3.179.128 5.266-1.38 5.716-1.734l.963.289c.963.257 1.99.385 2.986.45h1.284c1.51 2.15 4.142 2.44 4.142 2.44 1.863-1.991 1.991-3.95 1.991-4.367v-.193c.386-.289.77-.578 1.124-.899a12.054 12.054 0 0 0 1.959-2.28c.064-.063.096-.16.16-.224 2.12.129 3.628-1.316 3.628-1.316-.353-2.216-1.605-3.275-1.862-3.5l-.032-.032c-.032-.032-.128 0-.128 0l-.033-.032c0-.129.033-.257.033-.386 0-.224.032-.481.032-.706v-.931c0-.064 0-.128-.032-.192l-.033-.193-.064-.16c-.032-.258-.096-.482-.128-.74a9.309 9.309 0 0 0-1.092-2.664 8.906 8.906 0 0 0-1.798-2.151c-.674-.61-1.477-1.092-2.28-1.477-.802-.353-1.67-.61-2.504-.707-.418-.064-.835-.064-1.253-.064h-.641c-.225.032-.418.064-.643.097-.835.16-1.637.45-2.344.867a6.443 6.443 0 0 0-1.798 1.54 8.522 8.522 0 0 0-1.156 1.927 6.758 6.758 0 0 0-.45 2.055v.77c0 .097 0 .161.033.257.032.354.096.675.192.996a5.61 5.61 0 0 0 .835 1.701c.353.482.803.9 1.252 1.22.45.321.964.546 1.445.675.482.16.964.192 1.445.192h.675c.064 0 .096-.032.16-.032s.096-.032.16-.032c.097-.032.193-.064.322-.096.192-.065.385-.16.578-.225.16-.096.362-.237.422-.386.032-.032-.092-.064-.06-.096.16-.128.129-.04 0-.201-.096-.129-.02-.152-.148-.088-.032.033-.085-.032-.15 0-.128.065-.196.056-.356.088-.16.032-.286.04-.447.073-.132 0-.2.016-.297.016h-.684c-.032 0-.132-.002-.268-.03-.446-.089-.549-.147-.87-.307-.353-.16-.674-.385-.995-.642a3.657 3.657 0 0 1-1.188-2.183c-.032-.225-.065-.45-.032-.675v-.353c0-.128.032-.225.064-.353a4.72 4.72 0 0 1 1.38-2.569c.193-.16.386-.353.578-.481.225-.16.418-.257.675-.386.224-.096.481-.192.738-.256a6.43 6.43 0 0 1 .77-.129h.739c.29.032.546.064.835.129a6.115 6.115 0 0 1 1.606.61 5.705 5.705 0 0 1 2.376 2.472c.256.514.45 1.091.546 1.67.032.16.032.288.064.449v.835c0 .16-.032.32-.032.481-.032.16-.032.321-.065.482-.032.16-.064.32-.096.45-.064.32-.16.61-.289.898a6.542 6.542 0 0 1-.931 1.67c-.77 1.027-1.798 1.894-2.954 2.408-.578.257-1.22.45-1.83.578a4.902 4.902 0 0 1-.964.096H18.977c-.161 0-.354 0-.514-.032-.675-.064-1.381-.16-2.023-.353a9.77 9.77 0 0 1-1.895-.77A10.264 10.264 0 0 1 11.4 24.85c-.418-.546-.803-1.092-1.092-1.702a9.665 9.665 0 0 1-.739-1.894c-.16-.642-.288-1.317-.32-1.99v-.9c0-.321.032-.674.096-.995.032-.353.096-.675.16-1.028.065-.353.16-.674.257-.995.193-.642.418-1.284.707-1.894.545-1.22 1.284-2.28 2.15-3.115.226-.224.45-.417.675-.61.225-.192.482-.353.739-.513.257-.16.513-.321.77-.45.129-.064.257-.128.418-.192l.192-.097.193-.096c.289-.129.578-.225.867-.321.064-.032.16-.032.225-.064.064-.033.16-.033.225-.065.16-.032.288-.064.449-.096.064-.032.16-.032.225-.064.064 0 .16-.032.224-.032.065 0 .161-.032.225-.032l.097-.032h.096c.064 0 .16-.033.225-.033.096 0 .16-.032.257-.032.064 0 .192-.032.257-.032H20.934c.578.032 1.124.097 1.67.193 1.091.192 2.119.546 3.05 1.027.931.45 1.766 1.028 2.473 1.606.032.032.096.064.128.128.032.032.096.064.128.128.097.065.161.161.257.225.097.064.16.16.257.225.096.096.16.16.225.257.321.32.578.642.835.995.514.674.93 1.316 1.252 1.959.032.032.032.064.064.128.032.032.032.064.064.128.033.065.065.161.097.225s.064.16.096.225c.032.064.064.16.096.225.129.289.18.429.268.845.06.596.072 1.018.169 1.372.032.128.16.224.289.224.128 0 .257-.158.257-.286.06-.476.06-.893.06-1.547z" fill="url(#f)"/><circle cx="21.641" cy="23.78" transform="rotate(-90 21.64 23.78)" fill="#FBC05A" r=".25"/><defs><linearGradient id="a" x1="229.155" y1="15.449" x2="229.155" y2="29.236" gradientUnits="userSpaceOnUse"><stop stop-color="#FBB15A"/><stop offset="1" stop-color="#FC6754"/></linearGradient><linearGradient id="b" x1="229.155" y1="15.449" x2="229.155" y2="29.236" gradientUnits="userSpaceOnUse"><stop stop-color="#FBB15A"/><stop offset="1" stop-color="#FC6754"/></linearGradient><linearGradient id="c" x1="229.155" y1="15.449" x2="229.155" y2="29.236" gradientUnits="userSpaceOnUse"><stop stop-color="#FBB15A"/><stop offset="1" stop-color="#FC6754"/></linearGradient><linearGradient id="d" x1="229.155" y1="15.449" x2="229.155" y2="29.236" gradientUnits="userSpaceOnUse"><stop stop-color="#FBB15A"/><stop offset="1" stop-color="#FC6754"/></linearGradient><radialGradient id="e" cx="0" cy="0" r="1" gradientUnits="userSpaceOnUse" gradientTransform="matrix(-2.06678 -19.2209 17.61943 -1.89458 21.908 32.448)"><stop stop-color="#7646FF" stop-opacity="0"/><stop offset="1" stop-color="#7646FF"/></radialGradient><radialGradient id="f" cx="0" cy="0" r="1" gradientUnits="userSpaceOnUse" gradientTransform="rotate(-111.078 18.453 4.886) scale(26.6016 24.3851)"><stop stop-color="#FBC55A"/><stop offset=".228" stop-color="#FB9D5A"/><stop offset=".474" stop-color="#FB5A67"/><stop offset="1" stop-color="#D65CD6" stop-opacity="0"/></radialGradient></defs></svg>