<svg width="359" height="48" viewBox="0 0 359 48" fill="none" xmlns="http://www.w3.org/2000/svg">
<path d="M77.6862 25.4609C77.4039 32.2275 71.968 37.5442 65.1203 37.5442C57.9196 37.5442 52.625 31.8823 52.625 24.9775C52.625 18.0728 58.4138 12.3418 65.4733 12.3418C68.6501 12.3418 71.7562 13.6537 74.4389 16.0704L72.3916 18.5561C70.3444 16.8299 67.9441 15.6561 65.5439 15.6561C60.3904 15.6561 56.1548 19.7989 56.1548 24.9085C56.1548 30.0871 60.1787 34.0918 65.2615 34.0918C69.8502 34.0918 73.4505 30.8466 74.1565 26.5656H63.779V23.5966H77.8274L77.6862 25.4609Z" fill="white"/>
<path d="M89.4443 23.6628H87.4349C85.2022 23.6628 83.4161 25.3624 83.4161 27.4869V37.5429H79.8438V20.4053H82.8207V21.8216C83.7882 20.901 85.3511 20.4053 87.0628 20.4053H90.9328L89.4443 23.6628Z" fill="white"/>
<path d="M108.07 37.3061H105.085V35.1763C102.756 37.3061 99.1172 38.3366 95.4053 36.8252C92.6395 35.6572 90.6016 33.3213 90.0921 30.5045C89.0003 25.2144 93.3673 20.4053 98.9717 20.4053C101.301 20.4053 103.484 21.2984 105.013 22.7412V20.6114H108.07V37.3061ZM104.43 30.2297C105.231 26.8633 102.538 23.7717 99.0444 23.7717C95.9875 23.7717 93.5129 26.1076 93.5129 28.9931C93.5129 32.2221 96.497 34.7641 100.063 34.1458C102.174 33.8023 103.921 32.2221 104.43 30.2297Z" fill="white"/>
<path d="M114.456 20.0171V20.9718H119.847V23.9042H114.456V37.5432H111.096V20.1535C111.096 16.5392 113.756 14.3569 117.116 14.3569H121.177L119.847 17.4939H117.116C115.646 17.4939 114.456 18.585 114.456 20.0171Z" fill="white"/>
<path d="M138.241 37.3061H135.269V35.1763C132.949 37.3061 129.324 38.3366 125.626 36.8252C122.871 35.6572 120.841 33.3213 120.333 30.5045C119.246 25.2144 123.668 20.4053 129.251 20.4053C131.571 20.4053 133.746 21.2984 135.269 22.7412V20.6114H138.314L138.241 37.3061ZM134.689 30.2297C135.486 26.8633 132.804 23.7717 129.324 23.7717C126.278 23.7717 123.813 26.1076 123.813 28.9931C123.813 32.2221 126.786 34.7641 130.339 34.1458C132.441 33.8023 134.181 32.2221 134.689 30.2297Z" fill="white"/>
<path d="M155.449 27.5808V37.5429H152.145V27.5808C152.145 25.4908 150.424 23.8189 148.427 23.8189C146.293 23.8189 144.641 25.4908 144.641 27.5808V37.5429H141.336V20.6839H144.09V22.1469C145.26 21.0323 146.912 20.4053 148.565 20.4053C152.42 20.4053 155.449 23.6099 155.449 27.5808Z" fill="white"/>
<path d="M175.542 37.3061H172.734V35.1763C170.543 37.3061 167.12 38.3366 163.627 36.8252C161.025 35.6572 159.108 33.3213 158.629 30.5045C157.602 25.2144 161.779 20.4053 167.051 20.4053C169.242 20.4053 171.297 21.2984 172.734 22.7412V20.6114H175.61L175.542 37.3061ZM172.187 30.2297C172.94 26.8633 170.406 23.7717 167.12 23.7717C164.244 23.7717 161.916 26.1076 161.916 28.9931C161.916 32.2221 164.723 34.7641 168.078 34.1458C169.995 33.8023 171.707 32.2221 172.187 30.2297Z" fill="white"/>
<path d="M314.655 36.5705L320.16 29.9064C321.267 28.5682 322.11 26.8821 322.11 25.4101C322.11 22.3858 319.976 20.4053 316.894 20.4053C314.155 20.4053 312.127 21.9308 311.705 24.3931L313.206 24.7677C313.523 23.0816 314.971 22.0379 316.894 22.0379C318.975 22.0379 320.424 23.376 320.424 25.4101C320.424 26.4539 319.686 27.8456 318.659 29.1302L311.81 37.5072V38.2299H322.32V36.5705H314.655Z" fill="#386BDF"/>
<path d="M314.655 36.5705L320.16 29.9064C321.267 28.5682 322.11 26.8821 322.11 25.4101C322.11 22.3858 319.976 20.4053 316.894 20.4053C314.155 20.4053 312.127 21.9308 311.705 24.3931L313.206 24.7677C313.523 23.0816 314.971 22.0379 316.894 22.0379C318.975 22.0379 320.424 23.376 320.424 25.4101C320.424 26.4539 319.686 27.8456 318.659 29.1302L311.81 37.5072V38.2299H322.32V36.5705H314.655Z" fill="url(#paint0_linear)"/>
<path d="M331.352 38.551C336.251 38.551 337.489 34.4294 337.489 29.4514C337.489 24.4466 336.251 20.4053 331.352 20.4053C326.453 20.4053 325.162 24.4466 325.162 29.4514C325.162 34.4294 326.453 38.551 331.352 38.551ZM331.352 36.9184C327.743 36.9184 326.848 33.4927 326.848 29.4514C326.848 25.3833 327.743 22.0379 331.352 22.0379C334.934 22.0379 335.83 25.3833 335.83 29.4514C335.83 33.4927 334.934 36.9184 331.352 36.9184Z" fill="#386BDF"/>
<path d="M331.352 38.551C336.251 38.551 337.489 34.4294 337.489 29.4514C337.489 24.4466 336.251 20.4053 331.352 20.4053C326.453 20.4053 325.162 24.4466 325.162 29.4514C325.162 34.4294 326.453 38.551 331.352 38.551ZM331.352 36.9184C327.743 36.9184 326.848 33.4927 326.848 29.4514C326.848 25.3833 327.743 22.0379 331.352 22.0379C334.934 22.0379 335.83 25.3833 335.83 29.4514C335.83 33.4927 334.934 36.9184 331.352 36.9184Z" fill="url(#paint1_linear)"/>
<path d="M343.093 36.5705L348.598 29.9064C349.704 28.5682 350.547 26.8821 350.547 25.4101C350.547 22.3858 348.414 20.4053 345.332 20.4053C342.592 20.4053 340.564 21.9308 340.143 24.3931L341.644 24.7677C341.96 23.0816 343.409 22.0379 345.332 22.0379C347.413 22.0379 348.861 23.376 348.861 25.4101C348.861 26.4539 348.124 27.8456 347.097 29.1302L340.248 37.5072V38.2299H350.758V36.5705H343.093Z" fill="#386BDF"/>
<path d="M343.093 36.5705L348.598 29.9064C349.704 28.5682 350.547 26.8821 350.547 25.4101C350.547 22.3858 348.414 20.4053 345.332 20.4053C342.592 20.4053 340.564 21.9308 340.143 24.3931L341.644 24.7677C341.96 23.0816 343.409 22.0379 345.332 22.0379C347.413 22.0379 348.861 23.376 348.861 25.4101C348.861 26.4539 348.124 27.8456 347.097 29.1302L340.248 37.5072V38.2299H350.758V36.5705H343.093Z" fill="url(#paint2_linear)"/>
<path d="M358.642 20.4282L353.295 22.9173V24.6034L357.061 22.9708V38.2528H358.721V20.4282H358.642Z" fill="#386BDF"/>
<path d="M358.642 20.4282L353.295 22.9173V24.6034L357.061 22.9708V38.2528H358.721V20.4282H358.642Z" fill="url(#paint3_linear)"/>
<path d="M193.099 38.5511C196.975 38.5511 200.353 36.7866 202.522 33.9927L199.819 31.7503C198.255 33.7354 195.837 35.022 193.135 35.022C188.121 35.022 184.317 30.6843 184.317 25.501C184.317 20.2809 188.157 15.8696 193.135 15.8696C195.837 15.8696 198.255 17.1563 199.819 19.1413L202.522 16.8989C200.353 14.1051 196.975 12.3406 193.099 12.3406C186.166 12.3406 180.654 18.3326 180.654 25.501C180.654 32.6693 186.166 38.5511 193.099 38.5511Z" fill="white"/>
<path d="M216.034 38.5511C223.039 38.5511 228.479 32.6693 228.479 25.501C228.479 18.2958 223.039 12.3406 216.034 12.3406C209.065 12.3406 203.661 18.2958 203.661 25.501C203.661 32.6693 209.065 38.5511 216.034 38.5511ZM216.034 35.022C211.056 35.022 207.323 30.6843 207.323 25.501C207.323 20.2809 211.056 15.8696 216.034 15.8696C221.048 15.8696 224.817 20.2809 224.817 25.501C224.817 30.6843 221.048 35.022 216.034 35.022Z" fill="white"/>
<path d="M245.839 12.7817V31.0886L235.243 12.7817H231.687V38.11H235.349V19.656L246.052 38.11H249.501V12.7817H245.839Z" fill="white"/>
<path d="M253.723 38.11H257.208V12.7817H253.723V38.11Z" fill="white"/>
<path d="M263.114 17.2014C264.43 17.2014 265.497 16.2089 265.497 14.8855C265.497 13.5621 264.43 12.5695 263.114 12.5695C261.834 12.5695 260.732 13.5621 260.732 14.8855C260.732 16.2089 261.834 17.2014 263.114 17.2014ZM261.372 38.11H264.857V20.9426H261.372V38.11Z" fill="white"/>
<path d="M277.526 20.5015C275.748 20.5015 273.081 21.4573 272.121 23.5894V20.9426H268.636V38.11H272.121V28.883C272.121 25.3172 274.752 24.0305 276.921 24.0305C279.055 24.0305 280.69 25.7215 280.69 28.5154V38.11H284.175V28.2948C284.21 23.4056 281.721 20.5015 277.526 20.5015Z" fill="white"/>
<path d="M303.642 29.4344C303.642 24.0305 300.051 20.5015 295.322 20.5015C290.593 20.5015 286.753 24.0305 286.753 29.4711C286.753 34.9118 290.522 38.5511 295.322 38.5511C298.486 38.5511 301.473 37.0071 302.931 34.1398L300.158 32.7061C299.233 34.2868 297.42 35.2058 295.5 35.2058C292.797 35.2058 290.806 33.7722 290.344 30.9783H303.571C303.607 30.4269 303.642 29.9123 303.642 29.4344ZM290.38 28.0742C290.877 25.2069 292.797 23.8467 295.357 23.8467C297.917 23.8467 299.838 25.3907 300.158 28.0742H290.38Z" fill="white"/>
<path d="M43.1526 20.9475C43.0739 19.9256 43.0491 19.0844 42.7946 18.0666C42.5401 17.0488 42.1584 15.9461 41.5646 14.801C41.0132 13.656 40.2498 12.4685 39.2743 11.3234C38.8926 10.8569 38.4685 10.4328 38.0443 10.0087C38.7229 7.37932 37.2385 5.08918 37.2385 5.08918C34.6937 4.91954 33.082 5.89497 32.4883 6.31907C32.4034 6.27666 32.2762 6.23425 32.1914 6.19184C31.7672 6.0222 31.3007 5.85256 30.8766 5.72533C30.41 5.5981 29.9435 5.47087 29.4769 5.34364C29.0104 5.21641 28.5014 5.13159 28.0349 5.04677C27.9501 5.04677 27.8652 5.00436 27.7804 5.00436C26.6777 1.48434 23.4967 0 23.4967 0C19.9765 2.24772 19.2979 5.38605 19.2979 5.38605C19.2979 5.38605 19.2979 5.47087 19.2554 5.55569C19.0434 5.5981 18.8737 5.68292 18.6617 5.72533C18.4072 5.81015 18.1103 5.89497 17.8558 6.0222C17.6013 6.14943 17.3044 6.23425 17.05 6.36148C16.4986 6.57353 15.9896 6.82799 15.4807 7.12486C14.9717 7.42173 14.5052 7.71859 13.9962 8.05787C13.9114 8.01546 13.869 8.01546 13.869 8.01546C8.99153 6.14943 4.623 8.39715 4.623 8.39715C4.24129 13.6136 6.57399 16.8791 7.04053 17.4729C6.9133 17.8121 6.82847 18.109 6.70123 18.4483C6.31952 19.6358 6.06504 20.8232 5.89539 22.0955C5.85297 22.2652 5.85297 22.4348 5.81056 22.6469C1.35721 24.8522 0 29.4324 0 29.4324C3.77474 33.7583 8.18568 34.0551 8.18568 34.0551C8.73705 35.073 9.41566 36.006 10.1367 36.8966C10.4336 37.2783 10.7729 37.6175 11.1122 37.9568C9.75496 41.9009 11.3242 45.1665 11.3242 45.1665C15.5231 45.3361 18.2799 43.3429 18.8737 42.8764C19.2978 43.0036 19.722 43.1308 20.1461 43.2581C21.4185 43.5973 22.7757 43.767 24.0905 43.8518C24.4298 43.8518 24.7691 43.8518 25.066 43.8518H25.2357H25.3629H25.575H25.787C27.7804 46.6933 31.2583 47.0749 31.2583 47.0749C33.7182 44.4455 33.8879 41.8585 33.8879 41.3072C33.8879 41.3072 33.8879 41.3072 33.8879 41.2648C33.8879 41.2224 33.8879 41.18 33.8879 41.18C33.8879 41.1376 33.8879 41.0952 33.8879 41.0527C34.3968 40.6711 34.9058 40.2894 35.3723 39.8653C36.3478 38.9747 37.2385 37.9568 37.9595 36.8542C38.0443 36.7694 38.0867 36.6421 38.1716 36.5573C40.9708 36.7269 42.9642 34.8185 42.9642 34.8185C42.4977 31.8922 40.8436 30.4927 40.5043 30.1958C40.5043 30.1958 40.5043 30.1958 40.4619 30.1534C40.4195 30.111 40.2922 30.1534 40.2922 30.1534L40.2498 30.111C40.2498 29.9414 40.2922 29.7717 40.2922 29.6021C40.2922 29.3052 40.3346 28.9659 40.3346 28.6691V28.4146V28.2874V28.245C40.3346 28.1601 40.3346 28.2026 40.3346 28.1601V27.9481V27.6936C40.3346 27.6088 40.3346 27.524 40.3346 27.4392C40.3346 27.3544 40.3346 27.2695 40.2922 27.1847L40.2498 26.9303L40.165 26.7182C40.1226 26.3789 40.0377 26.0821 39.9953 25.7428C39.6984 24.4705 39.1895 23.283 38.5533 22.2228C37.9171 21.1625 37.1113 20.1871 36.1782 19.3813C35.2875 18.5755 34.2272 17.9394 33.1669 17.4305C32.1065 16.9639 30.9614 16.6247 29.8587 16.4974C29.3073 16.4126 28.7559 16.4126 28.2046 16.4126H27.9925H27.9501H27.8652H27.7804H27.5684C27.4835 16.4126 27.3987 16.4126 27.3563 16.4126C27.0594 16.455 26.8049 16.4974 26.508 16.5398C25.4053 16.7519 24.345 17.1336 23.4119 17.6849C22.4788 18.2362 21.673 18.9148 21.0368 19.7206C20.4006 20.5264 19.8916 21.3746 19.5099 22.2652C19.1706 23.1558 18.9585 24.0888 18.9161 24.9794C18.9161 25.1915 18.9161 25.4459 18.9161 25.658C18.9161 25.7004 18.9161 25.7852 18.9161 25.8276V25.9972C18.9161 26.1245 18.9161 26.2093 18.9585 26.3365C19.001 26.803 19.0858 27.2271 19.213 27.6512C19.4675 28.4994 19.8492 29.2628 20.3158 29.899C20.7823 30.5351 21.3761 31.0864 21.9699 31.5105C22.5636 31.9346 23.2422 32.2315 23.8784 32.4011C24.5146 32.6132 25.1508 32.6556 25.787 32.6556C25.8718 32.6556 25.9567 32.6556 25.9991 32.6556C26.0415 32.6556 26.0839 32.6556 26.1263 32.6556C26.1687 32.6556 26.2111 32.6556 26.2536 32.6556C26.3384 32.6556 26.3808 32.6556 26.4656 32.6556H26.508H26.5504C26.5929 32.6556 26.6353 32.6556 26.6777 32.6556C26.7625 32.6556 26.8049 32.6132 26.8898 32.6132C26.9746 32.6132 27.017 32.5708 27.1018 32.5708C27.2291 32.5284 27.3563 32.486 27.5259 32.4435C27.7804 32.3587 28.0349 32.2315 28.2894 32.1467C28.5014 32.0194 28.7684 31.8338 28.847 31.6373C28.8894 31.5949 28.726 31.5529 28.7684 31.5105C28.9804 31.3409 28.938 31.4564 28.7684 31.2443C28.6411 31.0747 28.7415 31.044 28.5719 31.1288C28.5294 31.1712 28.4602 31.0864 28.3754 31.1288C28.2057 31.2137 28.1158 31.2019 27.9037 31.2443C27.6917 31.2867 27.5263 31.2985 27.3142 31.3409C27.1397 31.3409 27.0485 31.3622 26.9212 31.3622C26.8788 31.3622 26.8064 31.3622 26.764 31.3622C26.7216 31.3622 26.6099 31.3622 26.5675 31.3622C26.5251 31.3622 26.4134 31.3622 26.371 31.3622C26.2862 31.3622 26.2986 31.3622 26.2138 31.3622H26.1352C26.0928 31.3622 26.0597 31.3622 26.0173 31.3622C25.9749 31.3622 25.8439 31.359 25.6636 31.3229C25.0741 31.205 24.9388 31.1288 24.5146 30.9168C24.0481 30.7047 23.624 30.4079 23.1998 30.0686C22.8181 29.7293 22.4364 29.2628 22.1819 28.7963C21.9274 28.3298 21.7154 27.7785 21.6306 27.1847C21.5881 26.8879 21.5457 26.591 21.5881 26.2941C21.5881 26.2093 21.5881 26.1245 21.5881 26.0397V25.9972V25.9548C21.5881 25.9124 21.5881 25.87 21.5881 25.8276C21.5881 25.658 21.6306 25.5307 21.673 25.3611C21.885 24.1312 22.5212 22.9013 23.4967 21.9683C23.7512 21.7563 24.0057 21.5018 24.2602 21.3322C24.557 21.1201 24.8115 20.9929 25.1508 20.8232C25.4477 20.696 25.787 20.5688 26.1263 20.484C26.4656 20.3991 26.8049 20.3567 27.1442 20.3143C27.3139 20.3143 27.4835 20.3143 27.6532 20.3143C27.6956 20.3143 27.738 20.3143 27.7804 20.3143H27.9077H27.9925H28.1197C28.5014 20.3567 28.8407 20.3991 29.2225 20.484C29.9435 20.6536 30.6645 20.9081 31.3431 21.2898C32.6579 22.0107 33.803 23.1558 34.4817 24.5553C34.821 25.2339 35.0754 25.9972 35.2027 26.7606C35.2451 26.9727 35.2451 27.1423 35.2875 27.3544V27.4816V27.6088C35.2875 27.6512 35.2875 27.6936 35.2875 27.736C35.2875 27.7785 35.2875 27.8209 35.2875 27.8633V27.9905V28.1177C35.2875 28.2026 35.2875 28.3722 35.2875 28.457C35.2875 28.6691 35.2451 28.8811 35.2451 29.0932C35.2027 29.3052 35.2027 29.5173 35.1603 29.7293C35.1178 29.9414 35.0754 30.1534 35.033 30.323C34.9482 30.7471 34.821 31.1288 34.6513 31.5105C34.3544 32.3163 33.9303 33.0373 33.4213 33.7158C32.4034 35.073 31.0462 36.218 29.5194 36.8966C28.7559 37.2359 27.9077 37.4903 27.1018 37.66C26.6777 37.7448 26.2536 37.7872 25.8294 37.7872H25.7446H25.6598H25.4477H25.2357H25.1084H25.066C24.8539 37.7872 24.5995 37.7872 24.3874 37.7448C23.4967 37.66 22.5636 37.5327 21.7154 37.2783C20.8247 37.0238 20.0189 36.6845 19.213 36.2604C17.6013 35.4122 16.2017 34.2248 15.0566 32.8252C14.5052 32.1043 13.9962 31.3833 13.6145 30.5775C13.1904 29.7717 12.8935 28.9659 12.639 28.0753C12.427 27.2271 12.2573 26.3365 12.2149 25.4459V25.2763V25.2339V25.1915V25.1066V24.9794V24.937V24.7249V24.6825V24.5977C12.2149 24.4705 12.2149 24.3857 12.2149 24.2584C12.2149 23.8343 12.2573 23.3678 12.3421 22.9437C12.3846 22.4772 12.4694 22.0531 12.5542 21.5866C12.639 21.1201 12.7663 20.696 12.8935 20.2719C13.148 19.4237 13.4449 18.5755 13.8266 17.7697C14.5476 16.1582 15.5231 14.7586 16.6683 13.656C16.9651 13.3591 17.262 13.1046 17.5589 12.8502C17.8558 12.5957 18.1951 12.3837 18.5344 12.1716C18.8737 11.9596 19.213 11.7475 19.5523 11.5779C19.722 11.4931 19.8916 11.4083 20.1037 11.3234C20.1885 11.281 20.2733 11.2386 20.3582 11.1962C20.443 11.1538 20.5278 11.1114 20.6126 11.069C20.9944 10.8993 21.3761 10.7721 21.7578 10.6449C21.8426 10.6025 21.9699 10.6025 22.0547 10.5601C22.1395 10.5176 22.2668 10.5176 22.3516 10.4752C22.5636 10.4328 22.7333 10.3904 22.9454 10.348C23.0302 10.3056 23.1574 10.3056 23.2422 10.2632C23.3271 10.2632 23.4543 10.2208 23.5391 10.2208C23.624 10.2208 23.7512 10.1784 23.836 10.1784L23.9633 10.136H24.0905C24.1753 10.136 24.3026 10.0935 24.3874 10.0935C24.5146 10.0935 24.5995 10.0511 24.7267 10.0511C24.8115 10.0511 24.9812 10.0087 25.066 10.0087C25.1508 10.0087 25.1932 10.0087 25.2781 10.0087H25.4053H25.4901H25.575C25.7022 10.0087 25.787 10.0087 25.9143 10.0087H26.0839H26.1263H26.2111C26.296 10.0087 26.4232 10.0087 26.508 10.0087C26.8898 10.0087 27.2715 10.0087 27.6532 10.0087C28.4166 10.0511 29.1376 10.136 29.8587 10.2632C31.3007 10.5176 32.6579 10.9842 33.8879 11.6203C35.1178 12.214 36.2206 12.9774 37.1537 13.7408C37.1961 13.7832 37.2809 13.8256 37.3233 13.9104C37.3657 13.9528 37.4506 13.9953 37.493 14.0801C37.6202 14.1649 37.705 14.2921 37.8323 14.3769C37.9595 14.4618 38.0443 14.589 38.1716 14.6738C38.2988 14.801 38.3836 14.8859 38.4685 15.0131C38.8926 15.4372 39.2319 15.8613 39.5712 16.3278C40.2498 17.2184 40.8012 18.0666 41.2253 18.9148C41.2677 18.9572 41.2677 18.9996 41.3101 19.0844C41.3525 19.1268 41.3525 19.1693 41.3949 19.2541C41.4374 19.3389 41.4798 19.4661 41.5222 19.5509C41.5646 19.6358 41.607 19.763 41.6494 19.8478C41.6918 19.9326 41.7343 20.0599 41.7767 20.1447C41.9463 20.5264 42.0128 20.7117 42.1307 21.2619C42.2093 22.0479 42.2257 22.6063 42.3529 23.0728C42.3953 23.2425 42.565 23.3697 42.7346 23.3697C42.9043 23.3697 43.0739 23.1608 43.0739 22.9911C43.1526 22.3623 43.1526 21.8121 43.1526 20.9475Z" fill="url(#paint4_radial)" fill-opacity="0.4"/>
<path d="M43.1526 20.9475C43.0739 19.9256 43.0491 19.0844 42.7946 18.0666C42.5401 17.0488 42.1584 15.9461 41.5646 14.801C41.0132 13.656 40.2498 12.4685 39.2743 11.3234C38.8926 10.8569 38.4685 10.4328 38.0443 10.0087C38.7229 7.37932 37.2385 5.08918 37.2385 5.08918C34.6937 4.91954 33.082 5.89497 32.4883 6.31907C32.4034 6.27666 32.2762 6.23425 32.1914 6.19184C31.7672 6.0222 31.3007 5.85256 30.8766 5.72533C30.41 5.5981 29.9435 5.47087 29.4769 5.34364C29.0104 5.21641 28.5014 5.13159 28.0349 5.04677C27.9501 5.04677 27.8652 5.00436 27.7804 5.00436C26.6777 1.48434 23.4967 0 23.4967 0C19.9765 2.24772 19.2979 5.38605 19.2979 5.38605C19.2979 5.38605 19.2979 5.47087 19.2554 5.55569C19.0434 5.5981 18.8737 5.68292 18.6617 5.72533C18.4072 5.81015 18.1103 5.89497 17.8558 6.0222C17.6013 6.14943 17.3044 6.23425 17.05 6.36148C16.4986 6.57353 15.9896 6.82799 15.4807 7.12486C14.9717 7.42173 14.5052 7.71859 13.9962 8.05787C13.9114 8.01546 13.869 8.01546 13.869 8.01546C8.99153 6.14943 4.623 8.39715 4.623 8.39715C4.24129 13.6136 6.57399 16.8791 7.04053 17.4729C6.9133 17.8121 6.82847 18.109 6.70123 18.4483C6.31952 19.6358 6.06504 20.8232 5.89539 22.0955C5.85297 22.2652 5.85297 22.4348 5.81056 22.6469C1.35721 24.8522 0 29.4324 0 29.4324C3.77474 33.7583 8.18568 34.0551 8.18568 34.0551C8.73705 35.073 9.41566 36.006 10.1367 36.8966C10.4336 37.2783 10.7729 37.6175 11.1122 37.9568C9.75496 41.9009 11.3242 45.1665 11.3242 45.1665C15.5231 45.3361 18.2799 43.3429 18.8737 42.8764C19.2978 43.0036 19.722 43.1308 20.1461 43.2581C21.4185 43.5973 22.7757 43.767 24.0905 43.8518C24.4298 43.8518 24.7691 43.8518 25.066 43.8518H25.2357H25.3629H25.575H25.787C27.7804 46.6933 31.2583 47.0749 31.2583 47.0749C33.7182 44.4455 33.8879 41.8585 33.8879 41.3072C33.8879 41.3072 33.8879 41.3072 33.8879 41.2648C33.8879 41.2224 33.8879 41.18 33.8879 41.18C33.8879 41.1376 33.8879 41.0952 33.8879 41.0527C34.3968 40.6711 34.9058 40.2894 35.3723 39.8653C36.3478 38.9747 37.2385 37.9568 37.9595 36.8542C38.0443 36.7694 38.0867 36.6421 38.1716 36.5573C40.9708 36.7269 42.9642 34.8185 42.9642 34.8185C42.4977 31.8922 40.8436 30.4927 40.5043 30.1958C40.5043 30.1958 40.5043 30.1958 40.4619 30.1534C40.4195 30.111 40.2922 30.1534 40.2922 30.1534L40.2498 30.111C40.2498 29.9414 40.2922 29.7717 40.2922 29.6021C40.2922 29.3052 40.3346 28.9659 40.3346 28.6691V28.4146V28.2874V28.245C40.3346 28.1601 40.3346 28.2026 40.3346 28.1601V27.9481V27.6936C40.3346 27.6088 40.3346 27.524 40.3346 27.4392C40.3346 27.3544 40.3346 27.2695 40.2922 27.1847L40.2498 26.9303L40.165 26.7182C40.1226 26.3789 40.0377 26.0821 39.9953 25.7428C39.6984 24.4705 39.1895 23.283 38.5533 22.2228C37.9171 21.1625 37.1113 20.1871 36.1782 19.3813C35.2875 18.5755 34.2272 17.9394 33.1669 17.4305C32.1065 16.9639 30.9614 16.6247 29.8587 16.4974C29.3073 16.4126 28.7559 16.4126 28.2046 16.4126H27.9925H27.9501H27.8652H27.7804H27.5684C27.4835 16.4126 27.3987 16.4126 27.3563 16.4126C27.0594 16.455 26.8049 16.4974 26.508 16.5398C25.4053 16.7519 24.345 17.1336 23.4119 17.6849C22.4788 18.2362 21.673 18.9148 21.0368 19.7206C20.4006 20.5264 19.8916 21.3746 19.5099 22.2652C19.1706 23.1558 18.9585 24.0888 18.9161 24.9794C18.9161 25.1915 18.9161 25.4459 18.9161 25.658C18.9161 25.7004 18.9161 25.7852 18.9161 25.8276V25.9972C18.9161 26.1245 18.9161 26.2093 18.9585 26.3365C19.001 26.803 19.0858 27.2271 19.213 27.6512C19.4675 28.4994 19.8492 29.2628 20.3158 29.899C20.7823 30.5351 21.3761 31.0864 21.9699 31.5105C22.5636 31.9346 23.2422 32.2315 23.8784 32.4011C24.5146 32.6132 25.1508 32.6556 25.787 32.6556C25.8718 32.6556 25.9567 32.6556 25.9991 32.6556C26.0415 32.6556 26.0839 32.6556 26.1263 32.6556C26.1687 32.6556 26.2111 32.6556 26.2536 32.6556C26.3384 32.6556 26.3808 32.6556 26.4656 32.6556H26.508H26.5504C26.5929 32.6556 26.6353 32.6556 26.6777 32.6556C26.7625 32.6556 26.8049 32.6132 26.8898 32.6132C26.9746 32.6132 27.017 32.5708 27.1018 32.5708C27.2291 32.5284 27.3563 32.486 27.5259 32.4435C27.7804 32.3587 28.0349 32.2315 28.2894 32.1467C28.5014 32.0194 28.7684 31.8338 28.847 31.6373C28.8894 31.5949 28.726 31.5529 28.7684 31.5105C28.9804 31.3409 28.938 31.4564 28.7684 31.2443C28.6411 31.0747 28.7415 31.044 28.5719 31.1288C28.5294 31.1712 28.4602 31.0864 28.3754 31.1288C28.2057 31.2137 28.1158 31.2019 27.9037 31.2443C27.6917 31.2867 27.5263 31.2985 27.3142 31.3409C27.1397 31.3409 27.0485 31.3622 26.9212 31.3622C26.8788 31.3622 26.8064 31.3622 26.764 31.3622C26.7216 31.3622 26.6099 31.3622 26.5675 31.3622C26.5251 31.3622 26.4134 31.3622 26.371 31.3622C26.2862 31.3622 26.2986 31.3622 26.2138 31.3622H26.1352C26.0928 31.3622 26.0597 31.3622 26.0173 31.3622C25.9749 31.3622 25.8439 31.359 25.6636 31.3229C25.0741 31.205 24.9388 31.1288 24.5146 30.9168C24.0481 30.7047 23.624 30.4079 23.1998 30.0686C22.8181 29.7293 22.4364 29.2628 22.1819 28.7963C21.9274 28.3298 21.7154 27.7785 21.6306 27.1847C21.5881 26.8879 21.5457 26.591 21.5881 26.2941C21.5881 26.2093 21.5881 26.1245 21.5881 26.0397V25.9972V25.9548C21.5881 25.9124 21.5881 25.87 21.5881 25.8276C21.5881 25.658 21.6306 25.5307 21.673 25.3611C21.885 24.1312 22.5212 22.9013 23.4967 21.9683C23.7512 21.7563 24.0057 21.5018 24.2602 21.3322C24.557 21.1201 24.8115 20.9929 25.1508 20.8232C25.4477 20.696 25.787 20.5688 26.1263 20.484C26.4656 20.3991 26.8049 20.3567 27.1442 20.3143C27.3139 20.3143 27.4835 20.3143 27.6532 20.3143C27.6956 20.3143 27.738 20.3143 27.7804 20.3143H27.9077H27.9925H28.1197C28.5014 20.3567 28.8407 20.3991 29.2225 20.484C29.9435 20.6536 30.6645 20.9081 31.3431 21.2898C32.6579 22.0107 33.803 23.1558 34.4817 24.5553C34.821 25.2339 35.0754 25.9972 35.2027 26.7606C35.2451 26.9727 35.2451 27.1423 35.2875 27.3544V27.4816V27.6088C35.2875 27.6512 35.2875 27.6936 35.2875 27.736C35.2875 27.7785 35.2875 27.8209 35.2875 27.8633V27.9905V28.1177C35.2875 28.2026 35.2875 28.3722 35.2875 28.457C35.2875 28.6691 35.2451 28.8811 35.2451 29.0932C35.2027 29.3052 35.2027 29.5173 35.1603 29.7293C35.1178 29.9414 35.0754 30.1534 35.033 30.323C34.9482 30.7471 34.821 31.1288 34.6513 31.5105C34.3544 32.3163 33.9303 33.0373 33.4213 33.7158C32.4034 35.073 31.0462 36.218 29.5194 36.8966C28.7559 37.2359 27.9077 37.4903 27.1018 37.66C26.6777 37.7448 26.2536 37.7872 25.8294 37.7872H25.7446H25.6598H25.4477H25.2357H25.1084H25.066C24.8539 37.7872 24.5995 37.7872 24.3874 37.7448C23.4967 37.66 22.5636 37.5327 21.7154 37.2783C20.8247 37.0238 20.0189 36.6845 19.213 36.2604C17.6013 35.4122 16.2017 34.2248 15.0566 32.8252C14.5052 32.1043 13.9962 31.3833 13.6145 30.5775C13.1904 29.7717 12.8935 28.9659 12.639 28.0753C12.427 27.2271 12.2573 26.3365 12.2149 25.4459V25.2763V25.2339V25.1915V25.1066V24.9794V24.937V24.7249V24.6825V24.5977C12.2149 24.4705 12.2149 24.3857 12.2149 24.2584C12.2149 23.8343 12.2573 23.3678 12.3421 22.9437C12.3846 22.4772 12.4694 22.0531 12.5542 21.5866C12.639 21.1201 12.7663 20.696 12.8935 20.2719C13.148 19.4237 13.4449 18.5755 13.8266 17.7697C14.5476 16.1582 15.5231 14.7586 16.6683 13.656C16.9651 13.3591 17.262 13.1046 17.5589 12.8502C17.8558 12.5957 18.1951 12.3837 18.5344 12.1716C18.8737 11.9596 19.213 11.7475 19.5523 11.5779C19.722 11.4931 19.8916 11.4083 20.1037 11.3234C20.1885 11.281 20.2733 11.2386 20.3582 11.1962C20.443 11.1538 20.5278 11.1114 20.6126 11.069C20.9944 10.8993 21.3761 10.7721 21.7578 10.6449C21.8426 10.6025 21.9699 10.6025 22.0547 10.5601C22.1395 10.5176 22.2668 10.5176 22.3516 10.4752C22.5636 10.4328 22.7333 10.3904 22.9454 10.348C23.0302 10.3056 23.1574 10.3056 23.2422 10.2632C23.3271 10.2632 23.4543 10.2208 23.5391 10.2208C23.624 10.2208 23.7512 10.1784 23.836 10.1784L23.9633 10.136H24.0905C24.1753 10.136 24.3026 10.0935 24.3874 10.0935C24.5146 10.0935 24.5995 10.0511 24.7267 10.0511C24.8115 10.0511 24.9812 10.0087 25.066 10.0087C25.1508 10.0087 25.1932 10.0087 25.2781 10.0087H25.4053H25.4901H25.575C25.7022 10.0087 25.787 10.0087 25.9143 10.0087H26.0839H26.1263H26.2111C26.296 10.0087 26.4232 10.0087 26.508 10.0087C26.8898 10.0087 27.2715 10.0087 27.6532 10.0087C28.4166 10.0511 29.1376 10.136 29.8587 10.2632C31.3007 10.5176 32.6579 10.9842 33.8879 11.6203C35.1178 12.214 36.2206 12.9774 37.1537 13.7408C37.1961 13.7832 37.2809 13.8256 37.3233 13.9104C37.3657 13.9528 37.4506 13.9953 37.493 14.0801C37.6202 14.1649 37.705 14.2921 37.8323 14.3769C37.9595 14.4618 38.0443 14.589 38.1716 14.6738C38.2988 14.801 38.3836 14.8859 38.4685 15.0131C38.8926 15.4372 39.2319 15.8613 39.5712 16.3278C40.2498 17.2184 40.8012 18.0666 41.2253 18.9148C41.2677 18.9572 41.2677 18.9996 41.3101 19.0844C41.3525 19.1268 41.3525 19.1693 41.3949 19.2541C41.4374 19.3389 41.4798 19.4661 41.5222 19.5509C41.5646 19.6358 41.607 19.763 41.6494 19.8478C41.6918 19.9326 41.7343 20.0599 41.7767 20.1447C41.9463 20.5264 42.0128 20.7117 42.1307 21.2619C42.2093 22.0479 42.2257 22.6063 42.3529 23.0728C42.3953 23.2425 42.565 23.3697 42.7346 23.3697C42.9043 23.3697 43.0739 23.1608 43.0739 22.9911C43.1526 22.3623 43.1526 21.8121 43.1526 20.9475Z" fill="#9482ED" fill-opacity="0.15"/>
<path d="M43.1526 20.9475C43.0739 19.9256 43.0491 19.0844 42.7946 18.0666C42.5401 17.0488 42.1584 15.9461 41.5646 14.801C41.0132 13.656 40.2498 12.4685 39.2743 11.3234C38.8926 10.8569 38.4685 10.4328 38.0443 10.0087C38.7229 7.37932 37.2385 5.08918 37.2385 5.08918C34.6937 4.91954 33.082 5.89497 32.4883 6.31907C32.4034 6.27666 32.2762 6.23425 32.1914 6.19184C31.7672 6.0222 31.3007 5.85256 30.8766 5.72533C30.41 5.5981 29.9435 5.47087 29.4769 5.34364C29.0104 5.21641 28.5014 5.13159 28.0349 5.04677C27.9501 5.04677 27.8652 5.00436 27.7804 5.00436C26.6777 1.48434 23.4967 0 23.4967 0C19.9765 2.24772 19.2979 5.38605 19.2979 5.38605C19.2979 5.38605 19.2979 5.47087 19.2554 5.55569C19.0434 5.5981 18.8737 5.68292 18.6617 5.72533C18.4072 5.81015 18.1103 5.89497 17.8558 6.0222C17.6013 6.14943 17.3044 6.23425 17.05 6.36148C16.4986 6.57353 15.9896 6.82799 15.4807 7.12486C14.9717 7.42173 14.5052 7.71859 13.9962 8.05787C13.9114 8.01546 13.869 8.01546 13.869 8.01546C8.99153 6.14943 4.623 8.39715 4.623 8.39715C4.24129 13.6136 6.57399 16.8791 7.04053 17.4729C6.9133 17.8121 6.82847 18.109 6.70123 18.4483C6.31952 19.6358 6.06504 20.8232 5.89539 22.0955C5.85297 22.2652 5.85297 22.4348 5.81056 22.6469C1.35721 24.8522 0 29.4324 0 29.4324C3.77474 33.7583 8.18568 34.0551 8.18568 34.0551C8.73705 35.073 9.41566 36.006 10.1367 36.8966C10.4336 37.2783 10.7729 37.6175 11.1122 37.9568C9.75496 41.9009 11.3242 45.1665 11.3242 45.1665C15.5231 45.3361 18.2799 43.3429 18.8737 42.8764C19.2978 43.0036 19.722 43.1308 20.1461 43.2581C21.4185 43.5973 22.7757 43.767 24.0905 43.8518C24.4298 43.8518 24.7691 43.8518 25.066 43.8518H25.2357H25.3629H25.575H25.787C27.7804 46.6933 31.2583 47.0749 31.2583 47.0749C33.7182 44.4455 33.8879 41.8585 33.8879 41.3072C33.8879 41.3072 33.8879 41.3072 33.8879 41.2648C33.8879 41.2224 33.8879 41.18 33.8879 41.18C33.8879 41.1376 33.8879 41.0952 33.8879 41.0527C34.3968 40.6711 34.9058 40.2894 35.3723 39.8653C36.3478 38.9747 37.2385 37.9568 37.9595 36.8542C38.0443 36.7694 38.0867 36.6421 38.1716 36.5573C40.9708 36.7269 42.9642 34.8185 42.9642 34.8185C42.4977 31.8922 40.8436 30.4927 40.5043 30.1958C40.5043 30.1958 40.5043 30.1958 40.4619 30.1534C40.4195 30.111 40.2922 30.1534 40.2922 30.1534L40.2498 30.111C40.2498 29.9414 40.2922 29.7717 40.2922 29.6021C40.2922 29.3052 40.3346 28.9659 40.3346 28.6691V28.4146V28.2874V28.245C40.3346 28.1601 40.3346 28.2026 40.3346 28.1601V27.9481V27.6936C40.3346 27.6088 40.3346 27.524 40.3346 27.4392C40.3346 27.3544 40.3346 27.2695 40.2922 27.1847L40.2498 26.9303L40.165 26.7182C40.1226 26.3789 40.0377 26.0821 39.9953 25.7428C39.6984 24.4705 39.1895 23.283 38.5533 22.2228C37.9171 21.1625 37.1113 20.1871 36.1782 19.3813C35.2875 18.5755 34.2272 17.9394 33.1669 17.4305C32.1065 16.9639 30.9614 16.6247 29.8587 16.4974C29.3073 16.4126 28.7559 16.4126 28.2046 16.4126H27.9925H27.9501H27.8652H27.7804H27.5684C27.4835 16.4126 27.3987 16.4126 27.3563 16.4126C27.0594 16.455 26.8049 16.4974 26.508 16.5398C25.4053 16.7519 24.345 17.1336 23.4119 17.6849C22.4788 18.2362 21.673 18.9148 21.0368 19.7206C20.4006 20.5264 19.8916 21.3746 19.5099 22.2652C19.1706 23.1558 18.9585 24.0888 18.9161 24.9794C18.9161 25.1915 18.9161 25.4459 18.9161 25.658C18.9161 25.7004 18.9161 25.7852 18.9161 25.8276V25.9972C18.9161 26.1245 18.9161 26.2093 18.9585 26.3365C19.001 26.803 19.0858 27.2271 19.213 27.6512C19.4675 28.4994 19.8492 29.2628 20.3158 29.899C20.7823 30.5351 21.3761 31.0864 21.9699 31.5105C22.5636 31.9346 23.2422 32.2315 23.8784 32.4011C24.5146 32.6132 25.1508 32.6556 25.787 32.6556C25.8718 32.6556 25.9567 32.6556 25.9991 32.6556C26.0415 32.6556 26.0839 32.6556 26.1263 32.6556C26.1687 32.6556 26.2111 32.6556 26.2536 32.6556C26.3384 32.6556 26.3808 32.6556 26.4656 32.6556H26.508H26.5504C26.5929 32.6556 26.6353 32.6556 26.6777 32.6556C26.7625 32.6556 26.8049 32.6132 26.8898 32.6132C26.9746 32.6132 27.017 32.5708 27.1018 32.5708C27.2291 32.5284 27.3563 32.486 27.5259 32.4435C27.7804 32.3587 28.0349 32.2315 28.2894 32.1467C28.5014 32.0194 28.7684 31.8338 28.847 31.6373C28.8894 31.5949 28.726 31.5529 28.7684 31.5105C28.9804 31.3409 28.938 31.4564 28.7684 31.2443C28.6411 31.0747 28.7415 31.044 28.5719 31.1288C28.5294 31.1712 28.4602 31.0864 28.3754 31.1288C28.2057 31.2137 28.1158 31.2019 27.9037 31.2443C27.6917 31.2867 27.5263 31.2985 27.3142 31.3409C27.1397 31.3409 27.0485 31.3622 26.9212 31.3622C26.8788 31.3622 26.8064 31.3622 26.764 31.3622C26.7216 31.3622 26.6099 31.3622 26.5675 31.3622C26.5251 31.3622 26.4134 31.3622 26.371 31.3622C26.2862 31.3622 26.2986 31.3622 26.2138 31.3622H26.1352C26.0928 31.3622 26.0597 31.3622 26.0173 31.3622C25.9749 31.3622 25.8439 31.359 25.6636 31.3229C25.0741 31.205 24.9388 31.1288 24.5146 30.9168C24.0481 30.7047 23.624 30.4079 23.1998 30.0686C22.8181 29.7293 22.4364 29.2628 22.1819 28.7963C21.9274 28.3298 21.7154 27.7785 21.6306 27.1847C21.5881 26.8879 21.5457 26.591 21.5881 26.2941C21.5881 26.2093 21.5881 26.1245 21.5881 26.0397V25.9972V25.9548C21.5881 25.9124 21.5881 25.87 21.5881 25.8276C21.5881 25.658 21.6306 25.5307 21.673 25.3611C21.885 24.1312 22.5212 22.9013 23.4967 21.9683C23.7512 21.7563 24.0057 21.5018 24.2602 21.3322C24.557 21.1201 24.8115 20.9929 25.1508 20.8232C25.4477 20.696 25.787 20.5688 26.1263 20.484C26.4656 20.3991 26.8049 20.3567 27.1442 20.3143C27.3139 20.3143 27.4835 20.3143 27.6532 20.3143C27.6956 20.3143 27.738 20.3143 27.7804 20.3143H27.9077H27.9925H28.1197C28.5014 20.3567 28.8407 20.3991 29.2225 20.484C29.9435 20.6536 30.6645 20.9081 31.3431 21.2898C32.6579 22.0107 33.803 23.1558 34.4817 24.5553C34.821 25.2339 35.0754 25.9972 35.2027 26.7606C35.2451 26.9727 35.2451 27.1423 35.2875 27.3544V27.4816V27.6088C35.2875 27.6512 35.2875 27.6936 35.2875 27.736C35.2875 27.7785 35.2875 27.8209 35.2875 27.8633V27.9905V28.1177C35.2875 28.2026 35.2875 28.3722 35.2875 28.457C35.2875 28.6691 35.2451 28.8811 35.2451 29.0932C35.2027 29.3052 35.2027 29.5173 35.1603 29.7293C35.1178 29.9414 35.0754 30.1534 35.033 30.323C34.9482 30.7471 34.821 31.1288 34.6513 31.5105C34.3544 32.3163 33.9303 33.0373 33.4213 33.7158C32.4034 35.073 31.0462 36.218 29.5194 36.8966C28.7559 37.2359 27.9077 37.4903 27.1018 37.66C26.6777 37.7448 26.2536 37.7872 25.8294 37.7872H25.7446H25.6598H25.4477H25.2357H25.1084H25.066C24.8539 37.7872 24.5995 37.7872 24.3874 37.7448C23.4967 37.66 22.5636 37.5327 21.7154 37.2783C20.8247 37.0238 20.0189 36.6845 19.213 36.2604C17.6013 35.4122 16.2017 34.2248 15.0566 32.8252C14.5052 32.1043 13.9962 31.3833 13.6145 30.5775C13.1904 29.7717 12.8935 28.9659 12.639 28.0753C12.427 27.2271 12.2573 26.3365 12.2149 25.4459V25.2763V25.2339V25.1915V25.1066V24.9794V24.937V24.7249V24.6825V24.5977C12.2149 24.4705 12.2149 24.3857 12.2149 24.2584C12.2149 23.8343 12.2573 23.3678 12.3421 22.9437C12.3846 22.4772 12.4694 22.0531 12.5542 21.5866C12.639 21.1201 12.7663 20.696 12.8935 20.2719C13.148 19.4237 13.4449 18.5755 13.8266 17.7697C14.5476 16.1582 15.5231 14.7586 16.6683 13.656C16.9651 13.3591 17.262 13.1046 17.5589 12.8502C17.8558 12.5957 18.1951 12.3837 18.5344 12.1716C18.8737 11.9596 19.213 11.7475 19.5523 11.5779C19.722 11.4931 19.8916 11.4083 20.1037 11.3234C20.1885 11.281 20.2733 11.2386 20.3582 11.1962C20.443 11.1538 20.5278 11.1114 20.6126 11.069C20.9944 10.8993 21.3761 10.7721 21.7578 10.6449C21.8426 10.6025 21.9699 10.6025 22.0547 10.5601C22.1395 10.5176 22.2668 10.5176 22.3516 10.4752C22.5636 10.4328 22.7333 10.3904 22.9454 10.348C23.0302 10.3056 23.1574 10.3056 23.2422 10.2632C23.3271 10.2632 23.4543 10.2208 23.5391 10.2208C23.624 10.2208 23.7512 10.1784 23.836 10.1784L23.9633 10.136H24.0905C24.1753 10.136 24.3026 10.0935 24.3874 10.0935C24.5146 10.0935 24.5995 10.0511 24.7267 10.0511C24.8115 10.0511 24.9812 10.0087 25.066 10.0087C25.1508 10.0087 25.1932 10.0087 25.2781 10.0087H25.4053H25.4901H25.575C25.7022 10.0087 25.787 10.0087 25.9143 10.0087H26.0839H26.1263H26.2111C26.296 10.0087 26.4232 10.0087 26.508 10.0087C26.8898 10.0087 27.2715 10.0087 27.6532 10.0087C28.4166 10.0511 29.1376 10.136 29.8587 10.2632C31.3007 10.5176 32.6579 10.9842 33.8879 11.6203C35.1178 12.214 36.2206 12.9774 37.1537 13.7408C37.1961 13.7832 37.2809 13.8256 37.3233 13.9104C37.3657 13.9528 37.4506 13.9953 37.493 14.0801C37.6202 14.1649 37.705 14.2921 37.8323 14.3769C37.9595 14.4618 38.0443 14.589 38.1716 14.6738C38.2988 14.801 38.3836 14.8859 38.4685 15.0131C38.8926 15.4372 39.2319 15.8613 39.5712 16.3278C40.2498 17.2184 40.8012 18.0666 41.2253 18.9148C41.2677 18.9572 41.2677 18.9996 41.3101 19.0844C41.3525 19.1268 41.3525 19.1693 41.3949 19.2541C41.4374 19.3389 41.4798 19.4661 41.5222 19.5509C41.5646 19.6358 41.607 19.763 41.6494 19.8478C41.6918 19.9326 41.7343 20.0599 41.7767 20.1447C41.9463 20.5264 42.0128 20.7117 42.1307 21.2619C42.2093 22.0479 42.2257 22.6063 42.3529 23.0728C42.3953 23.2425 42.565 23.3697 42.7346 23.3697C42.9043 23.3697 43.0739 23.1608 43.0739 22.9911C43.1526 22.3623 43.1526 21.8121 43.1526 20.9475Z" fill="url(#paint5_radial)"/>
<ellipse cx="28.5855" cy="31.4103" rx="0.329654" ry="0.329654" transform="rotate(-90 28.5855 31.4103)" fill="#FBC05A"/>
<defs>
<linearGradient id="paint0_linear" x1="302.689" y1="20.4053" x2="302.689" y2="30.4862" gradientUnits="userSpaceOnUse">
<stop stop-color="#FB9D5A"/>
<stop offset="1" stop-color="#FC6754"/>
</linearGradient>
<linearGradient id="paint1_linear" x1="302.689" y1="20.4053" x2="302.689" y2="30.4862" gradientUnits="userSpaceOnUse">
<stop stop-color="#FB9D5A"/>
<stop offset="1" stop-color="#FC6754"/>
</linearGradient>
<linearGradient id="paint2_linear" x1="302.689" y1="20.4053" x2="302.689" y2="30.4862" gradientUnits="userSpaceOnUse">
<stop stop-color="#FB9D5A"/>
<stop offset="1" stop-color="#FC6754"/>
</linearGradient>
<linearGradient id="paint3_linear" x1="302.689" y1="20.4053" x2="302.689" y2="30.4862" gradientUnits="userSpaceOnUse">
<stop stop-color="#FB9D5A"/>
<stop offset="1" stop-color="#FC6754"/>
</linearGradient>
<radialGradient id="paint4_radial" cx="0" cy="0" r="1" gradientUnits="userSpaceOnUse" gradientTransform="translate(28.938 42.8609) rotate(-96.1373) scale(25.5353 23.4076)">
<stop stop-color="#7646FF" stop-opacity="0"/>
<stop offset="1" stop-color="#7646FF"/>
</radialGradient>
<radialGradient id="paint5_radial" cx="0" cy="0" r="1" gradientUnits="userSpaceOnUse" gradientTransform="translate(27.1177 31.5194) rotate(-110.284) scale(30.0419 27.5387)">
<stop stop-color="#FBC55A"/>
<stop offset="0.228228" stop-color="#FB9D5A"/>
<stop offset="0.474181" stop-color="#FB5A67"/>
<stop offset="1" stop-color="#D65CD6" stop-opacity="0"/>
</radialGradient>
</defs>
</svg>
