<svg width="27" height="16" viewBox="0 0 27 16" fill="none" xmlns="http://www.w3.org/2000/svg">
<path d="M1 7C0.447715 7 4.82821e-08 7.44772 0 8C1.13222e-08 8.55229 0.447715 9 1 9L1 7ZM26.7071 8.70711C27.0976 8.31658 27.0976 7.68342 26.7071 7.2929L20.3431 0.928934C19.9526 0.53841 19.3195 0.53841 18.9289 0.928934C18.5384 1.31946 18.5384 1.95262 18.9289 2.34315L24.5858 8L18.9289 13.6569C18.5384 14.0474 18.5384 14.6805 18.9289 15.0711C19.3195 15.4616 19.9526 15.4616 20.3431 15.0711L26.7071 8.70711ZM1 9L26 9L26 7L1 7L1 9Z" fill="black"/>
</svg>
