<svg width="27" height="29" viewBox="0 0 27 29" fill="none" xmlns="http://www.w3.org/2000/svg">
<path d="M26.9712 12.8259C26.9193 12.3623 26.8674 11.7957 26.66 11.1776C26.5044 10.5595 26.245 9.88988 25.882 9.16874C25.5189 8.4476 25.0521 7.72647 24.4815 7.00533C24.2741 6.74778 24.0147 6.43872 23.7035 6.18117C24.1185 4.53286 23.1849 3.1421 23.1849 3.1421C21.6288 3.03908 20.5915 3.60568 20.2284 3.91474C20.1765 3.91474 20.1247 3.86323 20.0209 3.81172C19.7616 3.7087 19.5022 3.60568 19.191 3.50266C18.8798 3.39964 18.6205 3.34813 18.3093 3.24512C17.9981 3.19361 17.6869 3.1421 17.4275 3.09059C17.3757 3.09059 17.3238 3.09059 17.2719 3.09059C16.5977 0.927176 14.6267 0 14.6267 0C12.4482 1.39076 12.0333 3.29663 12.0333 3.29663C12.0333 3.29663 12.0333 3.34813 12.0333 3.39964C11.9296 3.45115 11.774 3.45115 11.6702 3.50266C11.5146 3.55417 11.359 3.60568 11.1515 3.65719C10.9959 3.7087 10.8403 3.76021 10.6329 3.86323C10.3217 4.01776 9.95859 4.17229 9.64739 4.32682C9.33618 4.48135 9.02498 4.68739 8.71378 4.89343C8.66191 4.89343 8.66191 4.84192 8.66191 4.84192C5.60171 3.7087 2.90459 5.09947 2.90459 5.09947C2.64525 8.29307 4.09755 10.3535 4.40875 10.714C4.35688 10.9201 4.25315 11.1261 4.20128 11.3321C3.99381 12.0533 3.78634 12.8259 3.68261 13.5986C3.68261 13.7016 3.63074 13.8046 3.63074 13.9076C0.829883 15.2984 0 18.1314 0 18.1314C2.33404 20.8099 5.08304 20.9645 5.08304 20.9645C5.44611 21.5826 5.80918 22.1492 6.27599 22.7158C6.48346 22.9218 6.69094 23.1794 6.84654 23.3854C6.01666 25.8064 6.95026 27.8153 6.95026 27.8153C9.54365 27.9183 11.2553 26.6821 11.6184 26.373C11.8777 26.476 12.137 26.5275 12.3964 26.6306C13.1744 26.8366 14.0043 26.9396 14.8342 26.9911C15.0416 26.9911 15.2491 26.9911 15.4566 26.9911H15.5603H15.6122H15.7159H15.8196C17.0645 28.7425 19.191 29 19.191 29C20.7471 27.4032 20.7989 25.8064 20.7989 25.4458C20.7989 25.3943 20.7989 25.3943 20.7989 25.3943V25.3428C21.1101 25.1368 21.4213 24.8792 21.7325 24.6217C22.355 24.0551 22.8736 23.4369 23.3404 22.7673C23.3923 22.7158 23.4442 22.6643 23.4442 22.5613C25.2077 22.6643 26.4006 21.4796 26.4006 21.4796C26.0894 19.6767 25.0521 18.8011 24.8446 18.6465C24.8446 18.6465 24.8446 18.6465 24.7928 18.6465C24.7928 18.5435 24.7928 18.4405 24.7928 18.3375C24.7928 18.1314 24.7928 17.9254 24.7928 17.7709V17.5133V17.4618V17.4103C24.7928 17.3588 24.7928 17.3588 24.7928 17.3588V17.2558V17.1012C24.7928 17.0497 24.7928 16.9982 24.7928 16.9467C24.7928 16.8952 24.7928 16.8437 24.7928 16.7922V16.6377V16.4831C24.7409 16.2771 24.7409 16.071 24.689 15.9165C24.4815 15.1439 24.2222 14.4227 23.8073 13.7531C23.3923 13.0835 22.9255 12.5169 22.355 12.0018C21.7844 11.4867 21.162 11.1261 20.4877 10.8171C19.8134 10.508 19.1392 10.3535 18.413 10.2504C18.0499 10.1989 17.7387 10.1989 17.3757 10.1989H17.2719H17.2201H17.1682H17.1163H17.0126C16.9607 10.1989 16.9089 10.1989 16.857 10.1989C16.7014 10.1989 16.4939 10.2504 16.3383 10.2504C15.664 10.3535 14.9898 10.611 14.4192 10.9716C13.8487 11.3321 13.33 11.7442 12.915 12.2078C12.5001 12.6714 12.1889 13.238 11.9814 13.8046C11.774 14.3712 11.6702 14.9378 11.6184 15.5044C11.6184 15.659 11.6184 15.762 11.6184 15.9165C11.6184 15.968 11.6184 15.968 11.6184 16.0195V16.1226C11.6184 16.1741 11.6184 16.2771 11.6184 16.3286C11.6702 16.5861 11.7221 16.8952 11.774 17.1528C11.9296 17.6679 12.1889 18.1314 12.4482 18.5435C12.7594 18.9556 13.1225 19.2647 13.4856 19.5222C13.8487 19.7798 14.2636 19.9858 14.6786 20.0888C15.0935 20.1918 15.4566 20.2433 15.8715 20.2433C15.9234 20.2433 15.9752 20.2433 16.0271 20.2433H16.079H16.1308C16.1827 20.2433 16.2346 20.2433 16.2346 20.2433C16.2346 20.2433 16.2346 20.2433 16.2864 20.2433H16.3383H16.3902C16.4421 20.2433 16.4939 20.2433 16.5458 20.2433C16.5976 20.2433 16.6495 20.2433 16.7014 20.1918C16.8051 20.1918 16.857 20.1403 16.9607 20.1403C17.1163 20.0888 17.2719 20.0373 17.4275 19.9343C17.5831 19.8828 17.6869 19.7798 17.8425 19.6767C17.8943 19.6767 17.8943 19.6252 17.9462 19.5737C18.1018 19.4707 18.1018 19.2647 17.9981 19.1616C17.8944 19.0586 17.7387 19.0071 17.635 19.1101C17.5831 19.1101 17.5831 19.1616 17.5313 19.1616C17.4275 19.2131 17.3238 19.2647 17.1682 19.3162C17.0645 19.3677 16.9089 19.3677 16.8051 19.4192C16.7533 19.4192 16.6495 19.4192 16.5977 19.4192C16.5458 19.4192 16.5458 19.4192 16.4939 19.4192C16.4421 19.4192 16.4421 19.4192 16.3902 19.4192C16.3383 19.4192 16.3383 19.4192 16.2864 19.4192C16.2346 19.4192 16.1827 19.4192 16.1827 19.4192H16.1308H16.079C16.0271 19.4192 16.0271 19.4192 15.9753 19.4192C15.664 19.3677 15.4047 19.3162 15.0935 19.1616C14.7823 19.0586 14.5229 18.8526 14.2636 18.6465C14.0043 18.4405 13.7968 18.1314 13.6412 17.8739C13.4856 17.6163 13.33 17.2558 13.2781 16.8952C13.2263 16.7407 13.2263 16.5346 13.2263 16.3801C13.2263 16.3286 13.2263 16.2771 13.2263 16.2256V16.1741V16.1226C13.2263 16.0195 13.2263 15.9165 13.2781 15.8135C13.4337 15.0409 13.7968 14.3197 14.4192 13.7016C14.5748 13.5471 14.7304 13.444 14.886 13.2895C15.0416 13.1865 15.2491 13.0835 15.4047 12.9805C15.6122 12.8774 15.8196 12.8259 15.9753 12.7744C16.1827 12.7229 16.3902 12.6714 16.5977 12.6714C16.7014 12.6714 16.8051 12.6714 16.9089 12.6714C16.9607 12.6714 16.9607 12.6714 16.9607 12.6714H17.0645H17.1163H17.2201C17.4275 12.6714 17.6869 12.7229 17.8943 12.7744C18.3612 12.8774 18.7761 13.032 19.191 13.2895C20.0209 13.7531 20.6952 14.4742 21.162 15.2984C21.3695 15.7105 21.5251 16.1741 21.6288 16.6377C21.6288 16.7407 21.6807 16.8952 21.6807 16.9982V17.1012V17.2043C21.6807 17.2558 21.6807 17.2558 21.6807 17.3073C21.6807 17.3588 21.6807 17.3588 21.6807 17.4103V17.5133V17.6163C21.6807 17.6679 21.6807 17.7709 21.6807 17.8224C21.6807 17.9769 21.6807 18.0799 21.6288 18.2345C21.6288 18.3375 21.577 18.492 21.577 18.595C21.577 18.698 21.5251 18.8526 21.4732 18.9556C21.4213 19.2131 21.3176 19.4707 21.2139 19.6767C21.0064 20.1403 20.7471 20.6039 20.4359 21.0675C19.8134 21.8917 18.9836 22.6128 17.9981 23.0249C17.5313 23.2309 17.0126 23.3854 16.4939 23.4885C16.2346 23.54 15.9753 23.54 15.7159 23.5915H15.664H15.6122H15.5084H15.4047H15.3528C15.4047 23.5915 15.3528 23.5915 15.3528 23.5915C15.1972 23.5915 15.0935 23.5915 14.9379 23.5915C14.3674 23.54 13.7968 23.4369 13.2781 23.2824C12.7594 23.1279 12.1889 22.9218 11.7221 22.6643C10.7366 22.1492 9.85486 21.4281 9.12871 20.5524C8.76564 20.1403 8.45443 19.6767 8.24695 19.1616C7.98762 18.6465 7.78016 18.1314 7.62455 17.6163C7.46895 17.1012 7.36521 16.5346 7.36521 16.0195V15.9165V15.865V15.762V15.4529V15.4014V15.2984V15.2469C7.36521 15.1954 7.36521 15.0924 7.36521 15.0409C7.36521 14.7833 7.41709 14.4742 7.41709 14.2167C7.46895 13.9591 7.52081 13.6501 7.57268 13.3925C7.62455 13.135 7.67641 12.8259 7.78015 12.5684C7.93575 12.0533 8.14323 11.5382 8.3507 11.0231C8.81751 10.0444 9.38805 9.16874 10.1142 8.49911C10.2698 8.34458 10.4773 8.13854 10.6847 7.98401C10.8922 7.82948 11.0997 7.67496 11.3072 7.57194C11.5146 7.41741 11.7221 7.31439 11.9296 7.21137C12.0333 7.15986 12.137 7.10835 12.2408 7.05684C12.2926 7.05684 12.3445 7.00533 12.3964 7.00533C12.4482 7.00533 12.5001 6.95382 12.552 6.95382C12.7595 6.8508 13.0188 6.79929 13.2263 6.69627C13.2781 6.69627 13.33 6.64476 13.3819 6.64476C13.4337 6.64476 13.4856 6.59325 13.5375 6.59325C13.6412 6.54174 13.7968 6.54174 13.9005 6.49023C13.9524 6.49023 14.0043 6.43872 14.108 6.43872C14.1599 6.43872 14.2117 6.43872 14.3155 6.38721C14.3673 6.38721 14.4192 6.38721 14.5229 6.3357H14.6267H14.7304C14.7823 6.3357 14.8342 6.3357 14.9379 6.28419C14.9898 6.28419 15.0935 6.28419 15.1454 6.23268C15.1972 6.23268 15.301 6.23268 15.3528 6.23268C15.4047 6.23268 15.4566 6.23268 15.5084 6.23268H15.6122H15.664H15.7159C15.7678 6.23268 15.8715 6.23268 15.9234 6.23268H16.0271C16.0271 6.23268 16.079 6.23268 16.0271 6.23268H16.079C16.1308 6.23268 16.1827 6.23268 16.2346 6.23268C16.4939 6.23268 16.7014 6.23268 16.9607 6.23268C17.4275 6.23268 17.8943 6.28419 18.3612 6.38721C19.2429 6.54174 20.0728 6.8508 20.8508 7.21137C21.6288 7.57194 22.3031 8.03552 22.8736 8.55062C22.9255 8.60213 22.9255 8.60213 22.9774 8.65364C23.0293 8.70515 23.0292 8.70515 23.0811 8.75666C23.133 8.80817 23.2367 8.85968 23.2886 8.9627C23.3404 9.06572 23.4442 9.06572 23.4961 9.16874C23.5479 9.27176 23.6517 9.32327 23.7035 9.37478C23.9629 9.63233 24.1703 9.88988 24.3778 10.1989C24.7927 10.714 25.1558 11.2806 25.4152 11.7957C25.4152 11.8472 25.467 11.8472 25.467 11.8988C25.467 11.9503 25.5189 11.9503 25.5189 12.0018C25.5708 12.0533 25.5708 12.1048 25.6226 12.2078C25.6745 12.2593 25.6745 12.3108 25.7264 12.4139C25.7782 12.4654 25.7782 12.5169 25.8301 12.6199C25.9338 12.8774 26.0376 13.0835 26.0894 13.2895C26.1932 13.6501 26.2969 13.9591 26.3488 14.2167C26.4007 14.3197 26.5044 14.4227 26.6081 14.3712C26.7119 14.3712 26.8156 14.2682 26.8156 14.1652C27.0231 13.5471 27.0231 13.1865 26.9712 12.8259Z" fill="url(#paint0_linear)"/>
<defs>
<linearGradient id="paint0_linear" x1="13.5843" y1="35.5669" x2="13.5843" y2="9.04135" gradientUnits="userSpaceOnUse">
<stop stop-color="#FFF100"/>
<stop offset="1" stop-color="#F05A28"/>
</linearGradient>
</defs>
</svg>
