<svg width="37" height="37" viewBox="0 0 37 37" fill="none" xmlns="http://www.w3.org/2000/svg">
<g clip-path="url(#clip0)">
<path fill-rule="evenodd" clip-rule="evenodd" d="M34.1291 10.3662L30.5957 9.84438L29.3169 8.33299L31.2093 7.41193L34.3443 7.81852L35.9645 9.25111L34.1291 10.3662ZM25.9892 7.80823L25.1243 6.56555L27.0291 5.79883L29.8025 6.13632L30.9626 7.32021L29.0684 8.23216L25.9892 7.80823ZM23.5891 8.78926L20.5543 8.34181L20.0286 7.03298L22.1977 6.22775L24.9368 6.5826L25.7896 7.82763L23.5891 8.78926ZM17.8887 9.36929L14.9071 8.89598L14.7525 7.51718L17.2055 6.67138L19.904 7.04445L20.4211 8.35475L17.8887 9.36929ZM18.1251 11.1591L15.0808 12.4885L11.7412 11.8623L11.8099 10.0696L14.7219 8.98946L17.7129 9.46719L18.1251 11.1591ZM6.21332 22.629L1.85144 21.3642L2.98564 17.9199L7.47423 15.9499L11.2778 16.8221L11.1247 20.0048L6.21332 22.629ZM11.2458 20.2233L15.8132 21.4001L16.2383 25.7837L10.838 29.5174L5.41956 27.6955L6.30769 22.8853L11.2458 20.2233ZM20.2194 18.8986L24.9218 19.9778L26.4869 23.9722L22.335 27.3413L16.6913 25.7038L16.2136 21.3381L20.2194 18.8986ZM20.3788 18.7045L19.6218 15.7641L22.778 14.0593L26.7868 14.8145L28.2629 17.5471L25.0555 19.7702L20.3788 18.7045ZM22.6936 13.9273L21.8531 11.812L24.457 10.5529L27.9451 11.1103L29.2975 13.097L26.6786 14.6746L22.6936 13.9273ZM28.9517 8.31976L30.2012 9.8288L27.9989 11.0059L24.5249 10.4538L23.657 8.8604L25.8616 7.89231L28.9517 8.31976ZM22.459 13.957L19.2949 15.6477L15.3963 14.8451L15.1582 12.5837L18.2097 11.244L21.637 11.8373L22.459 13.957ZM20.3991 8.4303L23.4439 8.88216L24.2959 10.4794L21.6926 11.7297L18.2785 11.142L17.8552 9.4522L20.3991 8.4303Z" fill="url(#paint0_linear)"/>
<path d="M11.0169 27.8636C9.94646 28.0585 9.00189 28.9893 8.91222 29.9838C8.81873 31.0284 9.69687 31.7251 10.8675 31.4929C12.0258 31.2633 12.9495 30.2255 12.9419 29.2192C12.9343 28.2605 12.077 27.6708 11.0169 27.8636Z" fill="black"/>
<path d="M11.3794 19.0594C10.5516 19.1776 9.83424 19.7344 9.78132 20.3221C9.72634 20.9318 10.4046 21.3334 11.2909 21.1985C12.1705 21.065 12.8749 20.46 12.8705 19.8667C12.8661 19.2961 12.2011 18.9424 11.3794 19.0594Z" fill="black"/>
<path d="M7.31847 21.623C6.58703 21.4192 5.53661 21.7632 4.94364 22.4109C4.32686 23.085 4.42593 23.8387 5.19706 24.0745C5.97818 24.3127 7.10386 23.9143 7.68007 23.2079C8.23335 22.5293 8.05902 21.8293 7.31847 21.623Z" fill="black"/>
<path d="M17.1979 24.3724C16.3377 24.1331 15.307 24.5371 14.8692 25.3C14.4123 26.0964 14.7619 26.991 15.68 27.2714C16.612 27.5557 17.7132 27.0818 18.1098 26.2434C18.4899 25.4408 18.0701 24.6153 17.1979 24.3724Z" fill="black"/>
<path d="M16.6854 20.8975L11.4004 19.5654L5.66946 22.5997L4.50586 28.2801L10.965 30.5026L17.3249 25.9905L16.6854 20.8975ZM11.0247 28.9942L6.04782 27.3455L6.79896 22.9281L11.3654 20.4447L15.6144 21.5469L15.9816 25.6004L11.0247 28.9942Z" fill="black"/>
<path d="M7.18971 26.6297C6.77901 25.9874 5.67538 25.9354 4.68523 26.5107C3.6648 27.1034 3.10211 28.1632 3.47019 28.8834C3.85149 29.6307 5.06154 29.6937 6.12695 29.0195C7.15825 28.3669 7.61481 27.2956 7.18971 26.6297Z" fill="black"/>
<path d="M17.2768 20.522C16.7864 20.0669 15.8433 20.031 15.1413 20.4388C14.4216 20.8568 14.1988 21.5983 14.6738 22.0986C15.1636 22.6137 16.1832 22.6566 16.9193 22.1907C17.6355 21.7376 17.7819 20.9891 17.2768 20.522Z" fill="black"/>
<path d="M7.66598 15.1226C6.93395 15.2122 6.25484 15.6329 6.15077 16.0745C6.04317 16.5305 6.58763 16.8295 7.36523 16.7286C8.13753 16.6287 8.81076 16.1762 8.87279 15.7317C8.93277 15.3007 8.3933 15.0335 7.66598 15.1226Z" fill="black"/>
<path d="M3.90412 17.045C3.29233 16.8945 2.35981 17.15 1.79771 17.6289C1.21649 18.1243 1.24295 18.6746 1.8812 18.8449C2.52709 19.0174 3.51929 18.7276 4.07287 18.2122C4.60793 17.7139 4.52238 17.1976 3.90412 17.045Z" fill="black"/>
<path d="M7.63082 15.5068L2.40462 17.7691L0.9729 21.8487L6.16442 23.3883L11.9718 20.2194L12.0494 16.502L7.63082 15.5068ZM10.8832 19.9407L6.35845 22.3432L2.33847 21.1893L3.34361 18.0095L7.50764 16.1668L11.0481 16.9853L10.8832 19.9407Z" fill="black"/>
<path d="M3.35798 20.682C3.06605 20.2248 2.13794 20.1881 1.25745 20.5994C0.35432 21.0207 -0.193083 21.768 0.0632733 22.2719C0.328155 22.7919 1.33036 22.8346 2.27023 22.3651C3.18571 21.9079 3.65903 21.1538 3.35798 20.682Z" fill="black"/>
<path d="M12.6074 16.2183C12.2402 15.8779 11.4282 15.8514 10.7726 16.1574C10.1017 16.4705 9.82448 17.0221 10.1758 17.3916C10.5356 17.7708 11.4038 17.8017 12.0914 17.4583C12.7626 17.1229 12.9837 16.5673 12.6074 16.2183Z" fill="black"/>
<path d="M24.2532 27.0737C23.9928 26.2111 23.02 25.6796 22.0627 25.8545C21.0967 26.0303 20.4491 26.8679 20.6313 27.761C20.8221 28.6968 21.8405 29.3185 22.8874 29.111C23.9243 28.9055 24.5261 27.9768 24.2532 27.0737Z" fill="black"/>
<path d="M21.6839 18.5707C21.5249 18.0448 20.7887 17.7194 20.0299 17.8273C19.2656 17.9363 18.7284 18.4487 18.8387 18.9894C18.9536 19.5494 19.7139 19.9184 20.5279 19.794C21.3358 19.6708 21.8485 19.1155 21.6839 18.5707Z" fill="black"/>
<path d="M27.0326 22.6913C26.1471 22.4738 25.2687 22.8418 25.0523 23.5345C24.8274 24.2565 25.3969 25.0658 26.345 25.3189C27.3066 25.575 28.2315 25.1473 28.3914 24.3891C28.5454 23.662 27.9298 22.9121 27.0326 22.6913Z" fill="black"/>
<path d="M25.6248 19.5157L20.1889 18.293L15.5231 21.0764L15.982 26.23L22.7172 28.2238L27.5771 24.1592L25.6248 19.5157ZM22.3724 26.8709L17.1929 25.3869L16.6955 21.3766L20.3944 19.1008L24.7698 20.111L26.1933 23.8055L22.3724 26.8709Z" fill="black"/>
<path d="M26.0927 19.1694C25.5009 18.7516 24.5848 18.719 24.0198 19.0938C23.4403 19.4784 23.4253 20.1578 24.0145 20.6155C24.6213 21.0862 25.6094 21.1253 26.1912 20.6996C26.7583 20.2845 26.7012 19.5989 26.0927 19.1694Z" fill="black"/>
<path d="M23.9169 13.8951C23.749 13.5191 23.1037 13.2857 22.4672 13.3636C21.8269 13.4427 21.4106 13.8099 21.545 14.1944C21.6829 14.591 22.3482 14.85 23.0232 14.7627C23.6935 14.6751 24.0898 14.2823 23.9169 13.8951Z" fill="black"/>
<path d="M19.952 15.0382C19.3009 14.9079 18.5638 15.1299 18.2931 15.5441C18.0138 15.9713 18.3298 16.4452 19.0139 16.5916C19.7054 16.7392 20.4771 16.4899 20.7226 16.0463C20.9604 15.6162 20.61 15.1702 19.952 15.0382Z" fill="black"/>
<path d="M28.5943 16.7681C27.8528 16.6196 27.1423 16.8716 26.9956 17.3431C26.8436 17.8309 27.3463 18.3727 28.1313 18.5403C28.925 18.7099 29.6653 18.4244 29.7723 17.917C29.8758 17.4266 29.3437 16.918 28.5943 16.7681Z" fill="black"/>
<path d="M27.2887 14.5654L22.6343 13.7002L18.933 15.6655L19.7456 19.1539L25.326 20.4513L29.0961 17.7654L27.2887 14.5654ZM24.975 19.5705L20.6657 18.5948L19.9364 15.8728L22.8636 14.2755L26.5993 14.9852L27.946 17.5279L24.975 19.5705Z" fill="black"/>
<path d="M27.6671 14.3193C27.1497 14.0229 26.375 14.0003 25.9173 14.2669C25.4504 14.5392 25.4748 15.0178 25.9922 15.3373C26.5223 15.6648 27.3478 15.691 27.8153 15.3944C28.2724 15.1039 28.1969 14.6221 27.6671 14.3193Z" fill="black"/>
<path d="M19.3614 11.0871C19.2724 10.7902 18.7352 10.605 18.1567 10.6673C17.5752 10.7299 17.1498 11.0213 17.2109 11.3247C17.2738 11.6363 17.823 11.8392 18.433 11.7701C19.0395 11.7013 19.4529 11.3923 19.3614 11.0871Z" fill="black"/>
<path d="M15.6787 11.987C15.1216 11.8853 14.4405 12.0593 14.145 12.3824C13.8413 12.7143 14.0553 13.0812 14.636 13.1935C15.2219 13.3073 15.9336 13.1141 16.2129 12.7708C16.4851 12.4374 16.2408 12.0896 15.6787 11.987Z" fill="black"/>
<path d="M22.2383 11.6101L18.2539 10.9307L14.6925 12.4738L14.923 15.1453L19.5597 16.1151L23.2725 14.086L22.2383 11.6101ZM19.3936 15.456L15.7997 14.7219L15.5465 12.6349L18.3679 11.3849L21.5574 11.9396L22.3097 13.9058L19.3936 15.456Z" fill="black"/>
<path d="M16.4537 14.3961C16.0659 14.0989 15.3021 14.0763 14.7292 14.3435C14.1444 14.6169 13.9607 15.097 14.3376 15.4183C14.7244 15.7473 15.5376 15.7735 16.1332 15.4757C16.7162 15.1837 16.8509 14.7001 16.4537 14.3961Z" fill="black"/>
<path d="M22.6156 11.4187C22.2081 11.1855 21.5252 11.1679 21.0748 11.3784C20.6162 11.5924 20.5592 11.9675 20.9628 12.2171C21.3753 12.472 22.0976 12.4917 22.56 12.2603C23.0134 12.0337 23.0316 11.6565 22.6156 11.4187Z" fill="black"/>
<path d="M25.5623 10.401C25.3962 10.1208 24.8244 9.94675 24.2785 10.0055C23.7293 10.0649 23.3945 10.3392 23.5362 10.6244C23.6811 10.9175 24.2694 11.1083 24.8432 11.0433C25.4139 10.9786 25.7328 10.6885 25.5623 10.401Z" fill="black"/>
<path d="M29.6931 12.502C29.0581 12.3956 28.4639 12.5778 28.3584 12.9162C28.2496 13.2649 28.695 13.6497 29.3612 13.7676C30.0344 13.887 30.6482 13.6847 30.7247 13.3243C30.7991 12.9741 30.3337 12.6096 29.6931 12.502Z" fill="black"/>
<path d="M28.4978 10.8947L24.4438 10.2559L21.4016 11.7073L22.3503 14.2047L27.0908 15.1058L30.1501 13.2148L28.4978 10.8947ZM26.7563 14.4925L23.0838 13.809L22.2745 11.8572L24.6769 10.6827L27.9234 11.2037L29.1705 13.0458L26.7563 14.4925Z" fill="black"/>
<path d="M28.8138 10.714C28.3563 10.4947 27.6875 10.4785 27.3059 10.6764C26.917 10.878 26.9613 11.2302 27.4191 11.4642C27.8868 11.7033 28.5933 11.7218 28.9813 11.5051C29.362 11.2917 29.28 10.9374 28.8138 10.714Z" fill="black"/>
<path d="M26.8095 7.78909C26.649 7.57154 26.1351 7.43631 25.6562 7.48276C25.1753 7.52921 24.896 7.74235 25.038 7.96343C25.1832 8.1898 25.7103 8.3362 26.2107 8.28564C26.7087 8.23536 26.9742 8.01105 26.8095 7.78909Z" fill="black"/>
<path d="M23.9266 8.44352C23.4216 8.37061 22.8942 8.49644 22.7416 8.72898C22.5858 8.9674 22.8792 9.22876 23.4039 9.30784C23.9331 9.38839 24.4773 9.25081 24.6134 9.00621C24.746 8.7672 24.4358 8.51702 23.9266 8.44352Z" fill="black"/>
<path d="M30.5117 9.39485C29.9552 9.3146 29.4443 9.45277 29.3643 9.70883C29.2823 9.97166 29.6818 10.2598 30.2624 10.3477C30.8481 10.4362 31.3734 10.2848 31.4307 10.0143C31.4863 9.75117 31.0724 9.47599 30.5117 9.39485Z" fill="black"/>
<path d="M29.4135 8.16889L25.8163 7.67676L23.2354 8.79655L24.2249 10.6795L28.3531 11.3439L30.929 9.93487L29.4135 8.16889ZM28.04 10.8912L24.8346 10.3844L24.0085 8.91062L26.0453 8.00749L28.9205 8.40702L30.0738 9.80816L28.04 10.8912Z" fill="black"/>
<path d="M25.2883 10.1532C24.877 9.94508 24.2284 9.9298 23.8263 10.1177C23.417 10.3093 23.4061 10.6436 23.816 10.8653C24.234 11.0919 24.9181 11.1093 25.3288 10.9035C25.7322 10.7015 25.7075 10.3655 25.2883 10.1532Z" fill="black"/>
<path d="M29.6843 8.02935C29.2742 7.86002 28.6848 7.84738 28.357 8.00084C28.0236 8.15665 28.0777 8.428 28.4893 8.60733C28.9082 8.7899 29.5265 8.80371 29.8587 8.63761C30.1853 8.47386 30.1024 8.20134 29.6843 8.02935Z" fill="black"/>
<path d="M14.7012 8.52559C14.1684 8.57675 13.7448 8.8137 13.7586 9.06006C13.7722 9.31201 14.2372 9.47546 14.7941 9.41961C15.3482 9.36404 15.7636 9.11386 15.726 8.86632C15.6892 8.62496 15.2318 8.47444 14.7012 8.52559Z" fill="black"/>
<path d="M12.295 9.59549C11.8087 9.51376 11.1758 9.65429 10.8712 9.91388C10.5587 10.1805 10.7054 10.473 11.209 10.5624C11.7173 10.6527 12.3761 10.4989 12.6707 10.2246C12.9576 9.9571 12.785 9.67751 12.295 9.59549Z" fill="black"/>
<path d="M18.2322 9.29008L14.7511 8.74121L11.3491 9.98889L11.2218 12.1062L15.1845 12.8603L18.7679 11.2686L18.2322 9.29008ZM15.1304 12.3467L12.0506 11.7734L12.0926 10.1171L14.7899 9.10987L17.5704 9.55614L17.9409 11.126L15.1304 12.3467Z" fill="black"/>
<path d="M12.6727 11.5153C12.3669 11.2807 11.6916 11.2634 11.1495 11.4751C10.5977 11.6906 10.3772 12.0677 10.6718 12.3191C10.9731 12.5755 11.6872 12.5954 12.2502 12.3626C12.8026 12.1345 12.9849 11.7546 12.6727 11.5153Z" fill="black"/>
<path d="M18.6014 9.13355C18.2718 8.94481 17.6603 8.93129 17.2234 9.1018C16.7792 9.27555 16.6719 9.57776 16.9962 9.77826C17.3269 9.98288 17.9699 9.99846 18.4194 9.81266C18.861 9.6298 18.9371 9.32582 18.6014 9.13355Z" fill="black"/>
<path d="M17.9886 6.58222C17.9319 6.39172 17.5097 6.27324 17.0426 6.31351C16.5736 6.35467 16.2229 6.54165 16.2617 6.73539C16.3011 6.93324 16.7306 7.06112 17.2178 7.01703C17.7028 6.97322 18.0468 6.77684 17.9886 6.58222Z" fill="black"/>
<path d="M15.0242 7.15873C14.5844 7.09493 14.0408 7.20488 13.8029 7.40773C13.5595 7.61529 13.7247 7.84225 14.1789 7.91104C14.637 7.98013 15.1994 7.86106 15.4278 7.64851C15.6512 7.44007 15.4672 7.22282 15.0242 7.15873Z" fill="black"/>
<path d="M20.7383 7.98351C20.2568 7.91413 19.7226 8.03408 19.5383 8.25604C19.3493 8.48299 19.5947 8.73141 20.0939 8.80726C20.5966 8.8834 21.1487 8.75287 21.3196 8.51974C21.4862 8.29161 21.2228 8.05377 20.7383 7.98351Z" fill="black"/>
<path d="M20.2516 6.91545L17.1095 6.48535L14.2346 7.46491L14.3728 9.09389L17.905 9.66187L20.8905 8.44918L20.2516 6.91545ZM17.8077 9.27381L15.0584 8.83901L14.9055 7.56369L17.1821 6.77493L19.6887 7.1236L20.1529 8.34011L17.8077 9.27381Z" fill="black"/>
<path d="M20.5657 6.7925C20.257 6.64433 19.7128 6.63345 19.3404 6.7681C18.9626 6.90451 18.8959 7.14146 19.201 7.29786C19.5121 7.45691 20.0809 7.46867 20.4619 7.32373C20.8373 7.18056 20.8794 6.94243 20.5657 6.7925Z" fill="black"/>
<path d="M23.0531 6.13321C22.9449 5.95211 22.4995 5.83893 22.0544 5.87773C21.6067 5.91683 21.3156 6.09499 21.4071 6.27961C21.5005 6.46776 21.9556 6.58947 22.4195 6.54743C22.8814 6.50539 23.1633 6.31871 23.0531 6.13321Z" fill="black"/>
<path d="M25.3556 6.44897L22.1662 6.04004L19.6282 6.97198L20.2164 8.5157L23.8145 9.05252L26.3949 7.90538L25.3556 6.44897ZM23.6138 8.68592L20.8144 8.27522L20.3114 7.06605L22.317 6.31609L24.8626 6.64741L25.6458 7.8019L23.6138 8.68592Z" fill="black"/>
<path d="M25.6297 6.33245C25.2878 6.19163 24.7527 6.18134 24.4252 6.30952C24.0936 6.43917 24.093 6.66466 24.434 6.81312C24.7806 6.96364 25.3398 6.97511 25.6726 6.83752C26.0004 6.70199 25.9769 6.47562 25.6297 6.33245Z" fill="black"/>
<path d="M27.7759 5.71418C27.6227 5.54102 27.1564 5.43312 26.7305 5.47017C26.303 5.5075 26.0649 5.67772 26.2036 5.85353C26.345 6.03315 26.8222 6.14869 27.2649 6.10871C27.7059 6.06902 27.9323 5.89086 27.7759 5.71418Z" fill="black"/>
<path d="M31.1217 6.97962C30.6272 6.91701 30.1792 7.02549 30.1172 7.2254C30.0534 7.42972 30.4138 7.65344 30.9271 7.72106C31.4442 7.78926 31.9031 7.67196 31.9478 7.46235C31.9916 7.25715 31.6197 7.04254 31.1217 6.97962Z" fill="black"/>
<path d="M30.1116 6.01453L26.8833 5.625L24.6476 6.51343L25.6324 7.98013L29.2829 8.48843L31.5039 7.3998L30.1116 6.01453ZM28.9915 8.14153L26.1522 7.75229L25.3402 6.6028L27.1035 5.88812L29.6806 6.20386L30.7457 7.30219L28.9915 8.14153Z" fill="black"/>
<path d="M30.3487 5.90342C29.9777 5.76907 29.4515 5.75937 29.1643 5.88138C28.8732 6.00514 28.9317 6.21975 29.3042 6.36146C29.6826 6.50492 30.232 6.5158 30.5219 6.38468C30.8074 6.25562 30.7259 6.03954 30.3487 5.90342Z" fill="black"/>
<path d="M35.0216 10.2821C34.7352 10.0045 34.0884 9.83197 33.5687 9.89018C33.046 9.94869 32.8296 10.2206 33.0942 10.5037C33.3658 10.7942 34.0355 10.9826 34.5806 10.9186C35.123 10.8551 35.3161 10.5669 35.0216 10.2821Z" fill="black"/>
<path d="M35.9484 8.80678C35.3857 8.73063 34.9229 8.86175 34.9103 9.1037C34.8976 9.35153 35.3595 9.62377 35.9466 9.70667C36.5387 9.79046 37.012 9.64728 36.9997 9.3924C36.9876 9.14339 36.5152 8.88321 35.9484 8.80678Z" fill="black"/>
<path d="M34.5648 7.64429L30.9265 7.17773L28.7007 8.23991L30.1577 10.0188L34.3435 10.6444L36.4916 9.31532L34.5648 7.64429ZM33.9228 10.2179L30.6739 9.74101L29.4845 8.34839L31.2357 7.49171L34.145 7.87066L35.6258 9.19596L33.9228 10.2179Z" fill="black"/>
<path d="M34.7933 7.51141C34.35 7.35089 33.7711 7.33913 33.4904 7.48466C33.2052 7.63282 33.3278 7.88977 33.775 8.05969C34.2303 8.23285 34.8368 8.24608 35.1182 8.0885C35.3954 7.93298 35.2449 7.67486 34.7933 7.51141Z" fill="black"/>
</g>
<defs>
<linearGradient id="paint0_linear" x1="1.85129" y1="17.6582" x2="35.9647" y2="17.6582" gradientUnits="userSpaceOnUse">
<stop stop-color="#7ACBBF"/>
<stop offset="1" stop-color="#3EA4DB"/>
</linearGradient>
<clipPath id="clip0">
<rect width="37" height="37" fill="white"/>
</clipPath>
</defs>
</svg>
