<svg width="229" height="229" viewBox="0 0 229 229" fill="none" xmlns="http://www.w3.org/2000/svg">
<circle cx="114.5" cy="114.5" r="114.5" fill="white"/>
<g clip-path="url(#clip0_16657:2495)">
<path fill-rule="evenodd" clip-rule="evenodd" d="M185.188 75.8751L168.189 73.3647L162.037 66.0937L171.141 61.6627L186.223 63.6187L194.018 70.5106L185.188 75.8751ZM146.029 63.5692L141.868 57.5909L151.031 53.9023L164.374 55.526L169.954 61.2214L160.842 65.6086L146.029 63.5692ZM134.482 68.2888L119.882 66.1362L117.353 59.8396L127.788 55.9658L140.965 57.6729L145.068 63.6625L134.482 68.2888ZM107.059 71.0792L92.7145 68.8021L91.9706 62.169L103.772 58.1L116.754 59.8948L119.241 66.1984L107.059 71.0792ZM108.196 79.6895L93.5504 86.0851L77.4838 83.0726L77.8147 74.4481L91.8235 69.2519L106.213 71.5502L108.196 79.6895ZM50.8904 134.869L29.9062 128.785L35.3627 112.215L56.9564 102.737L75.2548 106.933L74.518 122.245L50.8904 134.869ZM75.1007 123.296L97.0735 128.957L99.1186 150.046L73.139 168.008L47.0718 159.243L51.3444 136.102L75.1007 123.296ZM118.271 116.923L140.893 122.115L148.423 141.331L128.449 157.539L101.298 149.661L98.9998 128.659L118.271 116.923ZM119.038 115.989L115.396 101.843L130.58 93.6417L149.866 97.2751L156.967 110.421L141.537 121.116L119.038 115.989ZM130.174 93.0067L126.131 82.8307L138.657 76.7732L155.438 79.4548L161.944 89.0127L149.345 96.6019L130.174 93.0067ZM160.281 66.0301L166.291 73.2898L155.697 78.9527L138.984 76.2966L134.809 68.631L145.415 63.9737L160.281 66.0301ZM129.045 93.1496L113.823 101.283L95.068 97.4222L93.9224 86.5433L108.603 80.0983L125.091 82.9524L129.045 93.1496ZM119.135 66.5619L133.783 68.7357L137.882 76.4196L125.358 82.4347L108.934 79.6075L106.897 71.478L119.135 66.5619Z" fill="url(#paint0_linear_16657:2495)"/>
<path d="M74.0004 160.045C68.8509 160.982 64.3067 165.46 63.8754 170.245C63.4256 175.27 67.6502 178.622 73.282 177.504C78.8544 176.4 83.2981 171.407 83.2614 166.566C83.2246 161.954 79.1005 159.117 74.0004 160.045Z" fill="black"/>
<path d="M75.7442 117.689C71.7615 118.258 68.3106 120.937 68.056 123.764C67.7915 126.697 71.0544 128.629 75.3185 127.98C79.5502 127.338 82.9389 124.427 82.9176 121.573C82.8964 118.828 79.6972 117.127 75.7442 117.689Z" fill="black"/>
<path d="M56.2081 130.018C52.6893 129.038 47.6359 130.692 44.7833 133.808C41.816 137.051 42.2926 140.678 46.0024 141.812C49.7602 142.957 55.1756 141.041 57.9477 137.642C60.6094 134.378 59.7707 131.011 56.2081 130.018Z" fill="black"/>
<path d="M103.736 143.252C99.5979 142.1 94.6393 144.044 92.5334 147.714C90.3356 151.545 92.0172 155.849 96.4341 157.198C100.917 158.566 106.216 156.286 108.123 152.252C109.952 148.391 107.932 144.42 103.736 143.252Z" fill="black"/>
<path d="M101.27 126.536L75.8448 120.128L48.2741 134.725L42.6763 162.052L73.7502 172.745L104.346 151.038L101.27 126.536ZM74.0373 165.488L50.0943 157.556L53.7079 136.305L75.6765 124.358L96.1176 129.66L97.884 149.161L74.0373 165.488Z" fill="black"/>
<path d="M55.5888 154.117C53.613 151.027 48.3037 150.776 43.5402 153.544C38.6312 156.396 35.9242 161.494 37.6949 164.959C39.5292 168.554 45.3506 168.857 50.476 165.614C55.4375 162.474 57.6339 157.32 55.5888 154.117Z" fill="black"/>
<path d="M104.115 124.721C101.756 122.532 97.2192 122.359 93.8419 124.321C90.3796 126.332 89.3076 129.899 91.5931 132.306C93.9494 134.784 98.8542 134.991 102.396 132.749C105.841 130.569 106.545 126.969 104.115 124.721Z" fill="black"/>
<path d="M57.88 98.7502C54.3584 99.1816 51.0913 101.205 50.5906 103.33C50.073 105.523 52.6923 106.962 56.4332 106.477C60.1486 105.996 63.3873 103.819 63.6858 101.681C63.9743 99.6073 61.379 98.3217 57.88 98.7502Z" fill="black"/>
<path d="M39.7824 107.998C36.8392 107.274 32.353 108.503 29.6489 110.807C26.8528 113.19 26.9801 115.838 30.0505 116.657C33.1578 117.487 37.9311 116.092 40.5942 113.613C43.1683 111.216 42.7567 108.732 39.7824 107.998Z" fill="black"/>
<path d="M57.7102 100.596L32.5679 111.479L25.6802 131.105L50.6556 138.512L78.5939 123.267L78.9673 105.383L57.7102 100.596ZM73.3567 121.926L51.589 133.484L32.2497 127.933L37.0852 112.636L57.1176 103.771L74.1501 107.708L73.3567 121.926Z" fill="black"/>
<path d="M37.1546 125.491C35.7502 123.291 31.2852 123.115 27.0493 125.093C22.7046 127.12 20.0711 130.715 21.3044 133.139C22.5787 135.641 27.4001 135.846 31.9217 133.588C36.3258 131.388 38.6029 127.761 37.1546 125.491Z" fill="black"/>
<path d="M81.6519 104.025C79.8854 102.387 75.979 102.26 72.8251 103.732C69.5977 105.238 68.264 107.892 69.9541 109.67C71.6852 111.494 75.8617 111.643 79.1697 109.991C82.3986 108.377 83.4622 105.704 81.6519 104.025Z" fill="black"/>
<path d="M137.677 156.241C136.424 152.091 131.744 149.534 127.139 150.376C122.491 151.221 119.376 155.251 120.253 159.548C121.171 164.049 126.07 167.041 131.106 166.042C136.094 165.053 138.989 160.586 137.677 156.241Z" fill="black"/>
<path d="M125.317 115.337C124.552 112.807 121.011 111.241 117.36 111.76C113.683 112.285 111.099 114.75 111.63 117.351C112.183 120.045 115.84 121.82 119.756 121.222C123.643 120.63 126.109 117.958 125.317 115.337Z" fill="black"/>
<path d="M151.048 135.16C146.788 134.113 142.562 135.884 141.521 139.216C140.439 142.689 143.179 146.583 147.74 147.801C152.366 149.033 156.816 146.975 157.585 143.327C158.326 139.83 155.364 136.222 151.048 135.16Z" fill="black"/>
<path d="M144.276 119.891L118.126 114.009L95.679 127.4L97.8867 152.192L130.289 161.784L153.669 142.23L144.276 119.891ZM128.63 155.276L103.712 148.136L101.319 128.844L119.114 117.895L140.163 122.755L147.012 140.529L128.63 155.276Z" fill="black"/>
<path d="M146.527 118.224C143.68 116.214 139.273 116.057 136.554 117.86C133.767 119.71 133.694 122.979 136.529 125.181C139.448 127.445 144.201 127.633 147 125.585C149.729 123.588 149.454 120.29 146.527 118.224Z" fill="black"/>
<path d="M136.059 92.8508C135.252 91.0419 132.147 89.9189 129.085 90.2937C126.005 90.6741 124.002 92.4406 124.648 94.2905C125.312 96.1985 128.512 97.4445 131.76 97.0244C134.984 96.603 136.891 94.7134 136.059 92.8508Z" fill="black"/>
<path d="M116.985 98.3479C113.853 97.7214 110.307 98.7892 109.005 100.782C107.661 102.837 109.181 105.117 112.472 105.821C115.799 106.531 119.511 105.332 120.692 103.198C121.837 101.128 120.151 98.9829 116.985 98.3479Z" fill="black"/>
<path d="M158.561 106.67C154.994 105.956 151.576 107.168 150.87 109.437C150.139 111.783 152.557 114.39 156.333 115.196C160.152 116.012 163.713 114.639 164.228 112.198C164.726 109.838 162.166 107.392 158.561 106.67Z" fill="black"/>
<path d="M152.281 96.0676L129.89 91.9053L112.083 101.36L115.993 118.142L142.839 124.384L160.976 111.462L152.281 96.0676ZM141.15 120.146L120.419 115.452L116.911 102.357L130.993 94.6731L148.965 98.0872L155.444 110.32L141.15 120.146Z" fill="black"/>
<path d="M154.101 94.8872C151.612 93.4616 147.885 93.3527 145.683 94.6355C143.437 95.9451 143.555 98.2476 146.044 99.785C148.594 101.361 152.565 101.486 154.814 100.059C157.013 98.662 156.65 96.344 154.101 94.8872Z" fill="black"/>
<path d="M114.144 79.3345C113.716 77.906 111.132 77.015 108.348 77.3148C105.551 77.6161 103.504 79.0177 103.798 80.4772C104.101 81.9764 106.743 82.9523 109.678 82.6199C112.595 82.289 114.584 80.8025 114.144 79.3345Z" fill="black"/>
<path d="M96.4271 83.6649C93.747 83.1755 90.47 84.0128 89.0486 85.5671C87.5876 87.1639 88.6173 88.9289 91.4105 89.4692C94.2292 90.0165 97.6533 89.0873 98.9969 87.4354C100.307 85.8316 99.1313 84.1585 96.4271 83.6649Z" fill="black"/>
<path d="M127.983 81.8593L108.815 78.5908L91.6821 86.0146L92.791 98.8664L115.098 103.532L132.959 93.7707L127.983 81.8593ZM114.298 100.361L97.0084 96.8298L95.7907 86.7896L109.364 80.7759L124.708 83.4447L128.327 92.9037L114.298 100.361Z" fill="black"/>
<path d="M100.155 95.251C98.2897 93.8211 94.6153 93.7122 91.8588 94.9978C89.0458 96.3131 88.1618 98.6227 89.975 100.169C91.8362 101.751 95.7482 101.877 98.6136 100.444C101.418 99.0399 102.066 96.7134 100.155 95.251Z" fill="black"/>
<path d="M129.799 80.9309C127.839 79.8093 124.554 79.7245 122.387 80.7371C120.18 81.7667 119.906 83.5714 121.848 84.7722C123.832 85.9984 127.307 86.0931 129.532 84.9801C131.713 83.8896 131.8 82.0751 129.799 80.9309Z" fill="black"/>
<path d="M143.975 76.0392C143.176 74.6913 140.425 73.854 137.799 74.1369C135.157 74.4226 133.546 75.7421 134.227 77.114C134.925 78.5241 137.755 79.442 140.516 79.1294C143.261 78.8183 144.795 77.4224 143.975 76.0392Z" fill="black"/>
<path d="M163.849 86.14C160.794 85.628 157.935 86.5049 157.428 88.1327C156.904 89.8101 159.047 91.6614 162.252 92.2286C165.491 92.8028 168.444 91.8298 168.812 90.0958C169.169 88.4114 166.931 86.6576 163.849 86.14Z" fill="black"/>
<path d="M158.097 78.4131L138.594 75.3398L123.958 82.3223L128.522 94.3369L151.328 98.6718L166.045 89.5749L158.097 78.4131ZM149.719 95.7215L132.051 92.4332L128.157 83.0436L139.715 77.3934L155.333 79.8996L161.333 88.7617L149.719 95.7215Z" fill="black"/>
<path d="M159.617 77.5386C157.416 76.4835 154.199 76.4058 152.363 77.3576C150.492 78.3278 150.706 80.0222 152.908 81.148C155.158 82.2978 158.556 82.3869 160.423 81.3445C162.255 80.3177 161.86 78.6135 159.617 77.5386Z" fill="black"/>
<path d="M149.976 63.4668C149.204 62.4202 146.731 61.7697 144.428 61.9931C142.114 62.2166 140.77 63.242 141.453 64.3055C142.152 65.3945 144.688 66.0989 147.095 65.8556C149.491 65.6138 150.768 64.5346 149.976 63.4668Z" fill="black"/>
<path d="M136.107 66.6199C133.677 66.2692 131.14 66.8745 130.406 67.9932C129.656 69.1402 131.068 70.3976 133.592 70.778C136.138 71.1656 138.756 70.5036 139.411 69.3269C140.049 68.1771 138.557 66.9735 136.107 66.6199Z" fill="black"/>
<path d="M167.786 71.1985C165.109 70.8124 162.651 71.4771 162.266 72.709C161.872 73.9734 163.794 75.3594 166.587 75.7823C169.404 76.208 171.932 75.4796 172.207 74.1784C172.475 72.9126 170.483 71.5888 167.786 71.1985Z" fill="black"/>
<path d="M162.503 65.2943L145.197 62.9268L132.781 68.3139L137.541 77.3726L157.401 80.5689L169.793 73.7901L162.503 65.2943ZM155.895 78.3909L140.475 75.9526L136.5 68.8626L146.299 64.5179L160.131 66.4399L165.679 73.1805L155.895 78.3909Z" fill="black"/>
<path d="M142.657 74.8478C140.678 73.8465 137.558 73.773 135.623 74.6767C133.655 75.5988 133.602 77.2069 135.574 78.2733C137.585 79.3637 140.876 79.4472 142.852 78.4572C144.792 77.4855 144.674 75.869 142.657 74.8478Z" fill="black"/>
<path d="M163.805 64.6201C161.832 63.8055 158.996 63.7446 157.42 64.4829C155.816 65.2325 156.076 66.5379 158.056 67.4006C160.071 68.2789 163.046 68.3454 164.644 67.5463C166.215 66.7585 165.816 65.4475 163.805 64.6201Z" fill="black"/>
<path d="M91.7246 67.0167C89.1619 67.2628 87.1238 68.4027 87.1903 69.5879C87.2554 70.8 89.4928 71.5864 92.1715 71.3176C94.8375 71.0503 96.8359 69.8468 96.6549 68.6559C96.4781 67.4947 94.2774 66.7706 91.7246 67.0167Z" fill="black"/>
<path d="M80.1482 72.1654C77.8089 71.7723 74.7639 72.4483 73.2987 73.6972C71.7953 74.9799 72.501 76.3872 74.9237 76.8171C77.3691 77.2513 80.5386 76.5116 81.9557 75.1921C83.3361 73.9051 82.5059 72.56 80.1482 72.1654Z" fill="black"/>
<path d="M108.712 70.6933L91.9649 68.0527L75.5985 74.0551L74.9861 84.241L94.0496 87.8687L111.289 80.2116L108.712 70.6933ZM93.7894 85.3979L78.973 82.64L79.1753 74.6717L92.1516 69.8263L105.528 71.9732L107.31 79.5257L93.7894 85.3979Z" fill="black"/>
<path d="M81.9658 81.3946C80.495 80.266 77.2463 80.1825 74.6383 81.2008C71.9836 82.2375 70.9229 84.0521 72.34 85.2613C73.7897 86.4946 77.2251 86.5908 79.9335 85.4706C82.591 84.3731 83.4678 82.5458 81.9658 81.3946Z" fill="black"/>
<path d="M110.488 69.9419C108.903 69.0339 105.961 68.9689 103.859 69.7892C101.722 70.625 101.206 72.0789 102.766 73.0435C104.357 74.0279 107.45 74.1028 109.613 73.209C111.737 72.3293 112.103 70.8669 110.488 69.9419Z" fill="black"/>
<path d="M107.539 57.6693C107.266 56.7528 105.235 56.1829 102.988 56.3766C100.732 56.5746 99.045 57.4741 99.2316 58.4062C99.4212 59.358 101.487 59.9732 103.831 59.7611C106.165 59.5504 107.819 58.6056 107.539 57.6693Z" fill="black"/>
<path d="M93.2788 60.4338C91.163 60.1269 88.5479 60.6558 87.4037 61.6317C86.2327 62.6302 87.0275 63.7221 89.2127 64.053C91.4162 64.3854 94.1217 63.8126 95.2207 62.79C96.2955 61.7873 95.4102 60.7421 93.2788 60.4338Z" fill="black"/>
<path d="M120.768 64.4041C118.451 64.0703 115.881 64.6473 114.994 65.7151C114.085 66.807 115.266 68.0021 117.667 68.367C120.086 68.7333 122.742 68.1053 123.564 66.9838C124.366 65.8863 123.098 64.7421 120.768 64.4041Z" fill="black"/>
<path d="M118.427 59.2684L103.311 57.1992L89.48 61.9117L90.1447 69.7484L107.138 72.4809L121.5 66.6468L118.427 59.2684ZM106.67 70.614L93.4429 68.5222L92.7074 62.3869L103.66 58.5923L115.718 60.2697L117.952 66.1221L106.67 70.614Z" fill="black"/>
<path d="M119.937 58.6773C118.452 57.9645 115.834 57.9122 114.042 58.5599C112.225 59.2162 111.904 60.3561 113.372 61.1085C114.868 61.8737 117.605 61.9303 119.438 61.233C121.244 60.5442 121.446 59.3986 119.937 58.6773Z" fill="black"/>
<path d="M131.904 55.5069C131.383 54.6357 129.241 54.0912 127.099 54.2778C124.945 54.466 123.545 55.323 123.985 56.2112C124.435 57.1164 126.624 57.7019 128.856 57.4997C131.078 57.2974 132.434 56.3993 131.904 55.5069Z" fill="black"/>
<path d="M142.982 57.0259L127.638 55.0586L115.428 59.542L118.259 66.9685L135.568 69.5511L147.982 64.0324L142.982 57.0259ZM134.602 67.7874L121.135 65.8116L118.715 59.9946L128.364 56.3866L140.61 57.9806L144.378 63.5346L134.602 67.7874Z" fill="black"/>
<path d="M144.299 56.4622C142.654 55.7848 140.08 55.7353 138.504 56.3519C136.909 56.9756 136.906 58.0604 138.547 58.7746C140.214 59.4987 142.904 59.5539 144.505 58.892C146.082 58.24 145.969 57.151 144.299 56.4622Z" fill="black"/>
<path d="M154.625 53.4892C153.888 52.6561 151.645 52.1371 149.595 52.3153C147.539 52.4949 146.393 53.3138 147.061 54.1595C147.741 55.0237 150.037 55.5795 152.167 55.3872C154.288 55.1962 155.377 54.3392 154.625 53.4892Z" fill="black"/>
<path d="M170.721 59.5823C168.342 59.281 166.187 59.8029 165.888 60.7646C165.581 61.7476 167.315 62.8239 169.785 63.1492C172.272 63.4773 174.48 62.913 174.695 61.9046C174.906 60.9174 173.117 59.8849 170.721 59.5823Z" fill="black"/>
<path d="M165.861 54.9365L150.331 53.0625L139.575 57.3366L144.313 64.3926L161.874 66.8379L172.56 61.6007L165.861 54.9365ZM160.473 65.169L146.813 63.2965L142.907 57.7665L151.39 54.3283L163.788 55.8473L168.912 61.1312L160.473 65.169Z" fill="black"/>
<path d="M167.003 54.4001C165.218 53.7538 162.686 53.7071 161.304 54.294C159.904 54.8895 160.186 55.9219 161.978 56.6036C163.798 57.2938 166.441 57.3461 167.836 56.7153C169.209 56.0945 168.817 55.0549 167.003 54.4001Z" fill="black"/>
<path d="M189.482 75.4561C188.104 74.121 184.993 73.2908 182.492 73.5709C179.978 73.8523 178.937 75.1605 180.21 76.5225C181.516 77.9199 184.738 78.8264 187.36 78.5181C189.97 78.2126 190.899 76.8266 189.482 75.4561Z" fill="black"/>
<path d="M193.941 68.3687C191.234 68.0023 189.008 68.6331 188.947 69.7971C188.886 70.9894 191.108 72.299 193.933 72.6979C196.781 73.101 199.058 72.4122 198.999 71.186C198.941 69.988 196.668 68.7364 193.941 68.3687Z" fill="black"/>
<path d="M187.284 62.7767L169.781 60.5322L159.073 65.6421L166.082 74.2002L186.219 77.2098L196.553 70.8157L187.284 62.7767ZM184.195 75.1577L168.566 72.8636L162.843 66.164L171.268 62.0427L185.264 63.8658L192.388 70.2415L184.195 75.1577Z" fill="black"/>
<path d="M188.384 62.1362C186.252 61.364 183.467 61.3074 182.116 62.0075C180.744 62.7203 181.334 63.9564 183.485 64.7739C185.676 65.607 188.594 65.6706 189.947 64.9125C191.281 64.1644 190.557 62.9226 188.384 62.1362Z" fill="black"/>
</g>
<defs>
<linearGradient id="paint0_linear_16657:2495" x1="29.9055" y1="110.956" x2="194.018" y2="110.956" gradientUnits="userSpaceOnUse">
<stop stop-color="#7ACBBF"/>
<stop offset="1" stop-color="#3EA4DB"/>
</linearGradient>
<clipPath id="clip0_16657:2495">
<rect width="178" height="178" fill="white" transform="translate(21 26)"/>
</clipPath>
</defs>
</svg>
