<?xml version="1.0" encoding="utf-8"?>
<!-- Generator: Adobe Illustrator 24.2.1, SVG Export Plug-In . SVG Version: 6.00 Build 0)  -->
<svg version="1.1" id="Layer_1" xmlns="http://www.w3.org/2000/svg" xmlns:xlink="http://www.w3.org/1999/xlink" x="0px" y="0px"
	 viewBox="0 0 240 160.1" style="enable-background:new 0 0 240 160.1;" xml:space="preserve">
<style type="text/css">
	.st0{fill:url(#SVGID_1_);}
	.st1{fill:#FDC9BE;stroke:#FB755A;stroke-width:3;}
	.st2{fill:none;stroke:#FDD9BE;stroke-width:3;stroke-linecap:round;stroke-linejoin:round;}
	.st3{fill:none;stroke:#ECA313;stroke-width:3;}
	.st4{fill:#9292A5;}
	.st5{fill:#FDD9BE;}
	.st6{fill:#FDE8BE;}
	.st7{fill:#FEF9EF;}
	.st8{fill:#FB9D5A;}
	.st9{fill:#FFFFFF;}
	.st10{fill:#FBC55A;}
	.st11{fill:none;stroke:#FFFFFF;stroke-width:2;stroke-miterlimit:10;}
	.st12{fill:#DF4C2F;}
	.st13{fill:#EF5B3E;}
	.st14{fill:none;stroke:#FFFFFF;stroke-width:3;stroke-linecap:round;stroke-linejoin:round;}
	.st15{fill:none;stroke:#CE64CE;stroke-width:3;stroke-linecap:round;stroke-linejoin:round;}
</style>
<linearGradient id="SVGID_1_" gradientUnits="userSpaceOnUse" x1="461.0515" y1="-217.9792" x2="388.9008" y2="-97.9467" gradientTransform="matrix(1 0 0 -1 -276 -26.5229)">
	<stop  offset="0" style="stop-color:#FB9D5A"/>
	<stop  offset="0.7999" style="stop-color:#FB9D5A;stop-opacity:0"/>
</linearGradient>
<path class="st0" d="M211.3,39.8H40.7c-1.4,0-2.6,1.2-2.6,2.6v101.7c0,1.4,1.2,2.6,2.6,2.6h170.5c1.4,0,2.6-1.2,2.6-2.6V42.4
	C213.9,40.9,212.7,39.8,211.3,39.8z"/>
<circle class="st1" cx="91.2" cy="20.1" r="1"/>
<path class="st2" d="M2,67.9h7.8"/>
<path class="st2" d="M5.9,64v7.8"/>
<g>
	<path class="st3" d="M32.5,35.8c0-0.9,0.7-1.6,1.6-1.6h10.8c0.9,0,1.6,0.7,1.6,1.6v101.7c0,0.9-0.7,1.6-1.6,1.6H34.2
		c-0.9,0-1.6-0.7-1.6-1.6V35.8z"/>
	<path class="st4" d="M43.6,43.5c0-0.2,0-0.3-0.1-0.5c-0.1-0.2-0.1-0.4-0.2-0.6c-0.1-0.2-0.3-0.4-0.4-0.6c-0.1-0.1-0.1-0.2-0.2-0.2
		c0.1-0.3,0-0.6-0.2-0.9c-0.3,0-0.6,0.1-0.9,0.2c0,0,0,0-0.1,0c-0.1,0-0.2-0.1-0.2-0.1c-0.1,0-0.2,0-0.3-0.1l-0.3-0.1h0
		c-0.1-0.4-0.4-0.7-0.8-0.9c-0.4,0.2-0.7,0.6-0.8,1c0,0,0,0,0,0l-0.1,0c0,0-0.1,0-0.2,0l-0.1,0.1c-0.1,0-0.2,0.1-0.3,0.1
		c-0.1,0-0.2,0.1-0.3,0.2c0,0,0,0,0,0c0,0,0,0,0,0c-0.6-0.2-1.2-0.2-1.7,0.1c-0.1,0.6,0.1,1.2,0.5,1.7c0,0.1,0,0.1-0.1,0.2
		c-0.1,0.2-0.1,0.4-0.2,0.7c0,0,0,0.1,0,0.1c-0.5,0.3-0.9,0.7-1.1,1.3c0.4,0.5,0.9,0.8,1.5,0.9c0.1,0.2,0.2,0.4,0.4,0.5
		c0.1,0.1,0.1,0.1,0.2,0.2c-0.2,0.4-0.1,0.9,0,1.3c0.5,0,1-0.1,1.4-0.4c0.1,0,0.2,0,0.2,0.1c0.2,0.1,0.5,0.1,0.7,0.1h0.3
		c0.3,0.3,0.6,0.5,1,0.6c0.3-0.3,0.5-0.7,0.5-1.1v0c0.1-0.1,0.2-0.1,0.3-0.2c0.2-0.2,0.3-0.4,0.5-0.6c0,0,0,0,0-0.1
		c0.1,0,0.2,0.1,0.3,0.1c0.1,0,0.2,0,0.3,0c0.1,0,0.2-0.1,0.2-0.1c0.1-0.1,0.1-0.1,0.1-0.2c0-0.1,0-0.2,0-0.3c0-0.1,0-0.2-0.1-0.3
		c0-0.1-0.1-0.1-0.2-0.2c-0.1-0.1-0.2-0.1-0.3-0.1c0,0,0-0.1,0-0.1c0,0,0-0.1,0-0.2v-0.2c0,0,0,0,0,0v0v0c0-0.1,0-0.1,0-0.2
		c-0.1-0.2-0.1-0.4-0.3-0.7c-0.1-0.2-0.3-0.4-0.4-0.5c-0.2-0.1-0.4-0.3-0.6-0.4c-0.2-0.1-0.4-0.1-0.6-0.2c-0.1,0-0.2,0-0.3,0h-0.2
		c-0.1,0-0.1,0-0.2,0c-0.2,0-0.4,0.1-0.6,0.2c-0.2,0.1-0.3,0.2-0.4,0.4c-0.1,0.1-0.2,0.3-0.3,0.5c-0.1,0.2-0.1,0.3-0.1,0.5v0.2
		c0,0.1,0,0.2,0,0.2c0,0.1,0.1,0.3,0.2,0.4c0.1,0.1,0.2,0.2,0.3,0.3c0.1,0.1,0.2,0.1,0.4,0.2c0.1,0,0.2,0.1,0.3,0h0.2c0,0,0,0,0,0h0
		h0.1l0.1-0.1c0,0,0.1,0,0.1-0.1c0,0,0,0,0,0c0,0,0,0,0,0c0,0,0,0,0,0c0,0,0,0,0,0c0,0,0,0,0,0c0,0,0,0,0,0c0,0,0,0,0,0c0,0,0,0,0,0
		c0,0,0,0,0,0c0,0,0,0,0,0c0,0,0,0,0,0c0,0-0.1,0-0.1,0l-0.1,0h-0.1h-0.2c-0.1,0-0.2,0-0.3-0.1c-0.1,0-0.2-0.1-0.2-0.2
		c-0.1-0.1-0.1-0.1-0.2-0.2c0-0.1-0.1-0.2-0.1-0.3c0-0.1,0-0.1,0-0.2v-0.1c0,0,0-0.1,0-0.1c0-0.2,0.2-0.5,0.3-0.6
		c0,0,0.1-0.1,0.1-0.1c0.1-0.1,0.2-0.1,0.3-0.2c0.1,0,0.1,0,0.2,0h0.2l0.2,0c0.1,0,0.3,0.1,0.4,0.2c0.3,0.1,0.5,0.3,0.6,0.6
		c0.1,0.1,0.1,0.3,0.1,0.4c0,0,0,0.1,0,0.1V45c0,0,0,0.1,0,0.1c0,0,0,0.1,0,0.1l0,0.1c0,0.1,0,0.2-0.1,0.2c-0.1,0.1-0.1,0.3-0.2,0.4
		c-0.2,0.3-0.4,0.5-0.7,0.6c-0.1,0.1-0.3,0.1-0.5,0.1c-0.1,0-0.2,0-0.2,0h-0.1c0,0-0.1,0-0.1,0c-0.2,0-0.3,0-0.5-0.1
		c-0.2,0-0.3-0.1-0.5-0.2c-0.3-0.2-0.6-0.4-0.8-0.6c-0.1-0.1-0.2-0.3-0.3-0.4c-0.1-0.1-0.1-0.3-0.2-0.5c0-0.2-0.1-0.3-0.1-0.5v-0.3
		c0-0.1,0-0.2,0-0.2c0-0.1,0-0.2,0-0.2c0-0.1,0-0.2,0.1-0.2c0-0.2,0.1-0.3,0.2-0.5c0.1-0.3,0.3-0.5,0.5-0.8c0.1-0.1,0.1-0.1,0.2-0.2
		c0.1,0,0.1-0.1,0.2-0.1l0.2-0.1c0,0,0.1,0,0.1,0h0c0,0,0,0,0,0l0.2-0.1h0.1c0,0,0,0,0.1,0l0.1,0h0.1c0,0,0,0,0.1,0h0.1H40H40
		c0,0,0,0,0.1,0h0.1h0.5c0.1,0,0.3,0,0.4,0c0.3,0,0.5,0.1,0.7,0.2c0.2,0.1,0.4,0.2,0.6,0.4l0,0l0,0c0,0,0,0,0.1,0.1l0.1,0.1l0.1,0.1
		c0.1,0.1,0.1,0.2,0.2,0.2c0.1,0.2,0.2,0.3,0.3,0.5c0,0,0,0,0,0c0,0,0,0,0,0l0,0.1l0,0.1c0,0,0,0,0,0.1c0,0.1,0.1,0.1,0.1,0.2
		c0,0.1,0.1,0.2,0.1,0.3c0,0,0,0,0,0c0,0,0,0,0,0c0,0,0,0,0,0c0,0,0,0,0,0c0,0,0,0,0,0c0,0,0,0,0,0C43.6,43.9,43.6,43.7,43.6,43.5z"
		/>
	<path class="st5" d="M123.8,38.2H53.7c-0.8,0-1.5,0.7-1.5,1.5v32.8c0,0.8,0.7,1.5,1.5,1.5h70.1c0.8,0,1.5-0.7,1.5-1.5V39.7
		C125.3,38.9,124.6,38.2,123.8,38.2z"/>
	<path class="st6" d="M53.2,78.9h105.6c0.5,0,1,0.7,1,1.5v27.1c0,0.8-0.4,1.5-1,1.5H53.2c-0.5,0-1-0.7-1-1.5V80.3
		C52.2,79.5,52.6,78.9,53.2,78.9z"/>
	<path class="st7" d="M53.2,113.8h105.6c0.5,0,1,0.7,1,1.5v18.4c0,0.8-0.4,1.5-1,1.5H53.2c-0.5,0-1-0.7-1-1.5v-18.4
		C52.2,114.5,52.6,113.8,53.2,113.8z"/>
	<path class="st6" d="M201.5,38.2h-69.9c-0.8,0-1.5,0.7-1.5,1.5v32.8c0,0.8,0.7,1.5,1.5,1.5h69.9c0.8,0,1.5-0.7,1.5-1.5V39.7
		C202.9,38.9,202.3,38.2,201.5,38.2z"/>
	<path class="st5" d="M200.7,78.9h-36.2c-0.8,0-1.5,0.7-1.5,1.5v52.9c0,0.8,0.7,1.5,1.5,1.5h36.2c0.8,0,1.5-0.7,1.5-1.5V80.3
		C202.1,79.5,201.5,78.9,200.7,78.9z"/>
	<path class="st8" d="M169.4,104c-0.8-1.8-1.2-3.7-1.2-5.6c0-3.7,1.5-7.2,4.1-9.9c2.6-2.6,6.2-4.1,9.9-4.1c3.7,0,7.3,1.5,9.9,4.1
		c2.6,2.6,4.1,6.2,4.1,9.9c0,1.9-0.4,3.8-1.2,5.6l-3.6-1.6c0.7-1.5,0.9-3.2,0.8-4.9c-0.1-1.7-0.7-3.3-1.6-4.7
		c-0.9-1.4-2.2-2.5-3.6-3.3c-1.5-0.8-3.1-1.2-4.8-1.2c-1.7,0-3.3,0.4-4.8,1.2c-1.5,0.8-2.7,1.9-3.6,3.3c-0.9,1.4-1.5,3-1.6,4.7
		c-0.1,1.7,0.1,3.3,0.8,4.9L169.4,104z"/>
	<path class="st9" d="M177.3,97.6h9.9v-1.4h-9.9L177.3,97.6z"/>
	<path class="st8" d="M169.4,128.3c-0.8-1.8-1.2-3.7-1.2-5.6c0-3.7,1.5-7.2,4.1-9.9c2.6-2.6,6.2-4.1,9.9-4.1c3.7,0,7.3,1.5,9.9,4.1
		c2.6,2.6,4.1,6.2,4.1,9.9c0,1.9-0.4,3.8-1.2,5.6l-3.6-1.6c0.7-1.5,0.9-3.2,0.8-4.9c-0.1-1.7-0.7-3.3-1.6-4.7
		c-0.9-1.4-2.2-2.5-3.6-3.3c-1.5-0.8-3.1-1.2-4.8-1.2c-1.7,0-3.3,0.4-4.8,1.2c-1.5,0.8-2.7,1.9-3.6,3.3c-0.9,1.4-1.5,3-1.6,4.7
		c-0.1,1.7,0.1,3.3,0.8,4.9L169.4,128.3z"/>
	<path class="st9" d="M177.3,121.8h9.9v-1.4h-9.9L177.3,121.8z"/>
	<path class="st10" d="M155.8,122.8v-4.4H56v4.4H155.8z"/>
	<path class="st6" d="M103.7,123.1v-4.6H55.8v4.6H103.7z"/>
	<path class="st10" d="M71.7,100.7H55.6v4.4h16.1V100.7z"/>
	<path class="st10" d="M92.6,95.4H76.5v9.7h16.1L92.6,95.4z"/>
	<path class="st10" d="M113.6,92.1H97.5v13.1h16.1V92.1z"/>
	<path class="st10" d="M134.6,87.3h-16.1v17.8h16.1L134.6,87.3z"/>
	<path class="st10" d="M155.8,83h-16.4v22.2h16.4V83z"/>
	<path class="st10" d="M155.8,130.4V126H56v4.4H155.8z"/>
	<path class="st6" d="M125.3,130.3v-4.6H55.8v4.6H125.3z"/>
	<path class="st11" d="M57.9,48.5h61.7"/>
	<path class="st11" d="M119.6,43.4H57.9"/>
	<path class="st11" d="M57.9,53.6h61.7"/>
	<path class="st11" d="M57.9,63.8h61.7"/>
	<path class="st11" d="M57.9,58.7h61.7"/>
	<path class="st11" d="M57.9,68.8h61.7"/>
	<path class="st10" d="M159.4,43.5h-1.8c-0.1,0-0.1,0-0.2,0c-0.1,0-0.1,0.1-0.2,0.1s-0.1,0.1-0.1,0.2c0,0.1,0,0.1-0.1,0.2v10.1
		c0,0.1,0,0.1,0.1,0.2c0,0.1,0.1,0.1,0.1,0.2c0.1,0,0.1,0.1,0.2,0.1c0.1,0,0.1,0,0.2,0h1.8c0.1,0,0.1,0,0.2,0c0.1,0,0.1-0.1,0.2-0.1
		c0.1,0,0.1-0.1,0.1-0.2c0-0.1,0-0.1,0.1-0.2V44c0-0.1,0-0.1-0.1-0.2c0-0.1-0.1-0.1-0.1-0.2c-0.1,0-0.1-0.1-0.2-0.1
		C159.6,43.5,159.5,43.5,159.4,43.5z"/>
	<path class="st10" d="M164.7,43.5H163c-0.1,0-0.1,0-0.2,0c-0.1,0-0.1,0.1-0.2,0.1c-0.1,0-0.1,0.1-0.1,0.2c0,0.1,0,0.1-0.1,0.2v10.1
		c0,0.1,0,0.1,0.1,0.2c0,0.1,0.1,0.1,0.1,0.2c0.1,0,0.1,0.1,0.2,0.1c0.1,0,0.1,0,0.2,0h1.8c0.1,0,0.1,0,0.2,0c0.1,0,0.1-0.1,0.2-0.1
		c0.1,0,0.1-0.1,0.1-0.2c0-0.1,0-0.1,0.1-0.2V44c0-0.1,0-0.1-0.1-0.2c0-0.1-0.1-0.1-0.1-0.2c-0.1,0-0.1-0.1-0.2-0.1
		C164.9,43.5,164.8,43.5,164.7,43.5z"/>
	<path class="st10" d="M170.1,43.5h-1.8c-0.1,0-0.1,0-0.2,0c-0.1,0-0.1,0.1-0.2,0.1c-0.1,0-0.1,0.1-0.1,0.2c0,0.1,0,0.1-0.1,0.2
		v10.1c0,0.1,0,0.1,0.1,0.2c0,0.1,0.1,0.1,0.1,0.2c0.1,0,0.1,0.1,0.2,0.1c0.1,0,0.1,0,0.2,0h1.8c0.1,0,0.1,0,0.2,0
		c0.1,0,0.1-0.1,0.2-0.1c0.1,0,0.1-0.1,0.1-0.2c0-0.1,0-0.1,0.1-0.2V44c0-0.1,0-0.1-0.1-0.2c0-0.1-0.1-0.1-0.1-0.2
		c-0.1,0-0.1-0.1-0.2-0.1C170.2,43.5,170.1,43.5,170.1,43.5z"/>
	<path class="st10" d="M175.4,43.5h-1.8c-0.1,0-0.1,0-0.2,0c-0.1,0-0.1,0.1-0.2,0.1c-0.1,0-0.1,0.1-0.1,0.2c0,0.1,0,0.1-0.1,0.2
		v10.1c0,0.1,0,0.1,0.1,0.2c0,0.1,0.1,0.1,0.1,0.2c0.1,0,0.1,0.1,0.2,0.1c0.1,0,0.1,0,0.2,0h1.8c0.1,0,0.1,0,0.2,0
		c0.1,0,0.1-0.1,0.2-0.1c0.1,0,0.1-0.1,0.1-0.2c0-0.1,0-0.1,0.1-0.2V44c0-0.1,0-0.1-0.1-0.2c0-0.1-0.1-0.1-0.1-0.2
		c-0.1,0-0.1-0.1-0.2-0.1C175.5,43.5,175.5,43.5,175.4,43.5z"/>
	<path class="st10" d="M159.4,57.2h-1.8c-0.1,0-0.2,0-0.2,0c-0.1,0-0.1,0.1-0.2,0.1c-0.1,0.1-0.1,0.1-0.1,0.2c0,0.1,0,0.1,0,0.2
		v10.5c0,0.1,0,0.1,0,0.2c0,0.1,0.1,0.1,0.1,0.2c0.1,0.1,0.1,0.1,0.2,0.1c0.1,0,0.1,0,0.2,0h1.8c0.1,0,0.2,0,0.2,0
		c0.1,0,0.1-0.1,0.2-0.1c0.1-0.1,0.1-0.1,0.1-0.2c0-0.1,0-0.1,0-0.2V57.8c0-0.1,0-0.1,0-0.2c0-0.1-0.1-0.1-0.1-0.2
		c-0.1-0.1-0.1-0.1-0.2-0.1C159.6,57.2,159.5,57.2,159.4,57.2z"/>
	<path class="st10" d="M164.7,57.2H163c-0.1,0-0.2,0-0.2,0c-0.1,0-0.1,0.1-0.2,0.1c-0.1,0.1-0.1,0.1-0.1,0.2c0,0.1,0,0.1,0,0.2v10.5
		c0,0.1,0,0.1,0,0.2c0,0.1,0.1,0.1,0.1,0.2c0.1,0.1,0.1,0.1,0.2,0.1c0.1,0,0.1,0,0.2,0h1.8c0.1,0,0.2,0,0.2,0c0.1,0,0.1-0.1,0.2-0.1
		c0.1-0.1,0.1-0.1,0.1-0.2c0-0.1,0-0.1,0-0.2V57.8c0-0.1,0-0.1,0-0.2c0-0.1-0.1-0.1-0.1-0.2c-0.1-0.1-0.1-0.1-0.2-0.1
		C164.9,57.2,164.8,57.2,164.7,57.2z"/>
	<path class="st10" d="M170.1,57.2h-1.8c-0.1,0-0.2,0-0.2,0c-0.1,0-0.1,0.1-0.2,0.1c-0.1,0.1-0.1,0.1-0.1,0.2c0,0.1,0,0.1,0,0.2
		v10.5c0,0.1,0,0.1,0,0.2c0,0.1,0.1,0.1,0.1,0.2c0.1,0.1,0.1,0.1,0.2,0.1c0.1,0,0.1,0,0.2,0h1.8c0.1,0,0.2,0,0.2,0
		c0.1,0,0.1-0.1,0.2-0.1c0.1-0.1,0.1-0.1,0.1-0.2c0-0.1,0-0.1,0-0.2V57.8c0-0.1,0-0.1,0-0.2s-0.1-0.1-0.1-0.2
		c-0.1-0.1-0.1-0.1-0.2-0.1C170.2,57.2,170.1,57.2,170.1,57.2z"/>
	<path class="st10" d="M175.4,57.2h-1.8c-0.1,0-0.1,0-0.2,0c-0.1,0-0.1,0.1-0.2,0.1c-0.1,0.1-0.1,0.1-0.1,0.2c0,0.1,0,0.1,0,0.2
		v10.5c0,0.1,0,0.1,0,0.2c0,0.1,0.1,0.1,0.1,0.2c0.1,0.1,0.1,0.1,0.2,0.1c0.1,0,0.1,0,0.2,0h1.8c0.1,0,0.2,0,0.2,0
		c0.1,0,0.1-0.1,0.2-0.1c0.1-0.1,0.1-0.1,0.1-0.2c0-0.1,0-0.1,0-0.2V57.8c0-0.1,0-0.1,0-0.2c0-0.1-0.1-0.1-0.1-0.2
		c-0.1-0.1-0.1-0.1-0.2-0.1C175.5,57.2,175.5,57.2,175.4,57.2z"/>
	<path class="st10" d="M138.1,43.5h-1.8c-0.1,0-0.1,0-0.2,0c-0.1,0-0.1,0.1-0.2,0.1c-0.1,0-0.1,0.1-0.1,0.2c0,0.1,0,0.1-0.1,0.2
		v10.1c0,0.1,0,0.1,0.1,0.2c0,0.1,0.1,0.1,0.1,0.2c0.1,0,0.1,0.1,0.2,0.1c0.1,0,0.1,0,0.2,0h1.8c0.1,0,0.1,0,0.2,0
		c0.1,0,0.1-0.1,0.2-0.1c0.1,0,0.1-0.1,0.1-0.2c0-0.1,0-0.1,0.1-0.2V44c0-0.1,0-0.1-0.1-0.2c0-0.1-0.1-0.1-0.1-0.2
		c-0.1,0-0.1-0.1-0.2-0.1C138.3,43.5,138.2,43.5,138.1,43.5z"/>
	<path class="st10" d="M180.7,43.5h-1.8c-0.1,0-0.1,0-0.2,0c-0.1,0-0.1,0.1-0.2,0.1c-0.1,0-0.1,0.1-0.1,0.2c0,0.1,0,0.1-0.1,0.2
		v10.1c0,0.1,0,0.1,0.1,0.2c0,0.1,0.1,0.1,0.1,0.2c0.1,0,0.1,0.1,0.2,0.1c0.1,0,0.1,0,0.2,0h1.8c0.1,0,0.1,0,0.2,0
		c0.1,0,0.1-0.1,0.2-0.1c0.1,0,0.1-0.1,0.1-0.2c0-0.1,0-0.1,0.1-0.2V44c0-0.1,0-0.1-0.1-0.2c0-0.1-0.1-0.1-0.1-0.2
		c-0.1,0-0.1-0.1-0.2-0.1S180.8,43.5,180.7,43.5z"/>
	<path class="st10" d="M143.5,43.5h-1.8c-0.1,0-0.1,0-0.2,0c-0.1,0-0.1,0.1-0.2,0.1c-0.1,0-0.1,0.1-0.1,0.2c0,0.1,0,0.1-0.1,0.2
		v10.1c0,0.1,0,0.1,0.1,0.2c0,0.1,0.1,0.1,0.1,0.2c0.1,0,0.1,0.1,0.2,0.1c0.1,0,0.1,0,0.2,0h1.8c0.1,0,0.1,0,0.2,0
		c0.1,0,0.1-0.1,0.2-0.1c0.1,0,0.1-0.1,0.1-0.2c0-0.1,0-0.1,0.1-0.2V44c0-0.1,0-0.1-0.1-0.2c0-0.1-0.1-0.1-0.1-0.2s-0.1-0.1-0.2-0.1
		C143.6,43.5,143.5,43.5,143.5,43.5z"/>
	<path class="st10" d="M186,43.5h-1.8c-0.1,0-0.1,0-0.2,0c-0.1,0-0.1,0.1-0.2,0.1c-0.1,0-0.1,0.1-0.1,0.2c0,0.1,0,0.1-0.1,0.2v10.1
		c0,0.1,0,0.1,0.1,0.2c0,0.1,0.1,0.1,0.1,0.2c0.1,0,0.1,0.1,0.2,0.1c0.1,0,0.1,0,0.2,0h1.8c0.1,0,0.1,0,0.2,0c0.1,0,0.1-0.1,0.2-0.1
		c0.1,0,0.1-0.1,0.1-0.2c0-0.1,0-0.1,0.1-0.2V44c0-0.1,0-0.1-0.1-0.2c0-0.1-0.1-0.1-0.1-0.2c-0.1,0-0.1-0.1-0.2-0.1
		C186.2,43.5,186.1,43.5,186,43.5z"/>
	<path class="st10" d="M148.8,43.5H147c-0.1,0-0.1,0-0.2,0c-0.1,0-0.1,0.1-0.2,0.1c-0.1,0-0.1,0.1-0.1,0.2c0,0.1,0,0.1-0.1,0.2v10.1
		c0,0.1,0,0.1,0.1,0.2c0,0.1,0.1,0.1,0.1,0.2c0.1,0,0.1,0.1,0.2,0.1c0.1,0,0.1,0,0.2,0h1.8c0.1,0,0.1,0,0.2,0c0.1,0,0.1-0.1,0.2-0.1
		c0.1,0,0.1-0.1,0.1-0.2c0-0.1,0-0.1,0.1-0.2V44c0-0.1,0-0.1-0.1-0.2c0-0.1-0.1-0.1-0.1-0.2c-0.1,0-0.1-0.1-0.2-0.1
		C148.9,43.5,148.9,43.5,148.8,43.5z"/>
	<path class="st10" d="M191.4,43.5h-1.8c-0.1,0-0.1,0-0.2,0c-0.1,0-0.1,0.1-0.2,0.1c-0.1,0-0.1,0.1-0.1,0.2c0,0.1,0,0.1-0.1,0.2
		v10.1c0,0.1,0,0.1,0,0.2c0,0.1,0.1,0.1,0.1,0.2c0.1,0,0.1,0.1,0.2,0.1c0.1,0,0.1,0,0.2,0h1.8c0.1,0,0.1,0,0.2,0
		c0.1,0,0.1-0.1,0.2-0.1c0.1,0,0.1-0.1,0.1-0.2c0-0.1,0-0.1,0.1-0.2V44c0-0.1,0-0.1-0.1-0.2c0-0.1-0.1-0.1-0.1-0.2
		c-0.1,0-0.1-0.1-0.2-0.1C191.5,43.5,191.4,43.5,191.4,43.5z"/>
	<path class="st10" d="M154.1,43.5h-1.8c-0.1,0-0.1,0-0.2,0c-0.1,0-0.1,0.1-0.2,0.1c-0.1,0-0.1,0.1-0.1,0.2c0,0.1,0,0.1-0.1,0.2
		v10.1c0,0.1,0,0.1,0.1,0.2c0,0.1,0.1,0.1,0.1,0.2c0.1,0,0.1,0.1,0.2,0.1c0.1,0,0.1,0,0.2,0h1.8c0.1,0,0.1,0,0.2,0
		c0.1,0,0.1-0.1,0.2-0.1c0.1,0,0.1-0.1,0.1-0.2c0-0.1,0-0.1,0.1-0.2V44c0-0.1,0-0.1-0.1-0.2c0-0.1-0.1-0.1-0.1-0.2s-0.1-0.1-0.2-0.1
		C154.2,43.5,154.2,43.5,154.1,43.5z"/>
	<path class="st10" d="M196.7,43.5h-1.8c-0.1,0-0.1,0-0.2,0c-0.1,0-0.1,0.1-0.2,0.1c-0.1,0-0.1,0.1-0.1,0.2c0,0.1,0,0.1-0.1,0.2
		v10.1c0,0.1,0,0.1,0,0.2c0,0.1,0.1,0.1,0.1,0.2c0.1,0,0.1,0.1,0.2,0.1c0.1,0,0.1,0,0.2,0h1.8c0.1,0,0.1,0,0.2,0
		c0.1,0,0.1-0.1,0.2-0.1c0.1,0,0.1-0.1,0.1-0.2c0-0.1,0-0.1,0.1-0.2V44c0-0.1,0-0.1-0.1-0.2c0-0.1-0.1-0.1-0.1-0.2
		c-0.1,0-0.1-0.1-0.2-0.1C196.8,43.5,196.8,43.5,196.7,43.5z"/>
	<path class="st10" d="M138.1,57.2h-1.8c-0.1,0-0.2,0-0.2,0c-0.1,0-0.1,0.1-0.2,0.1c-0.1,0.1-0.1,0.1-0.1,0.2c0,0.1,0,0.1,0,0.2
		v10.5c0,0.1,0,0.1,0,0.2c0,0.1,0.1,0.1,0.1,0.2c0.1,0.1,0.1,0.1,0.2,0.1c0.1,0,0.1,0,0.2,0h1.8c0.1,0,0.2,0,0.2,0
		c0.1,0,0.1-0.1,0.2-0.1c0.1-0.1,0.1-0.1,0.1-0.2c0-0.1,0-0.1,0-0.2V57.8c0-0.1,0-0.1,0-0.2c0-0.1-0.1-0.1-0.1-0.2
		c-0.1-0.1-0.1-0.1-0.2-0.1C138.3,57.2,138.2,57.2,138.1,57.2z"/>
	<path class="st10" d="M180.7,57.2h-1.8c-0.1,0-0.2,0-0.2,0c-0.1,0-0.1,0.1-0.2,0.1c-0.1,0.1-0.1,0.1-0.1,0.2c0,0.1,0,0.1,0,0.2
		v10.5c0,0.1,0,0.1,0,0.2c0,0.1,0.1,0.1,0.1,0.2c0.1,0.1,0.1,0.1,0.2,0.1c0.1,0,0.1,0,0.2,0h1.8c0.1,0,0.2,0,0.2,0
		c0.1,0,0.1-0.1,0.2-0.1c0.1-0.1,0.1-0.1,0.1-0.2c0-0.1,0-0.1,0-0.2V57.8c0-0.1,0-0.1,0-0.2s-0.1-0.1-0.1-0.2
		c-0.1-0.1-0.1-0.1-0.2-0.1C180.9,57.2,180.8,57.2,180.7,57.2z"/>
	<path class="st10" d="M143.5,57.2h-1.8c-0.1,0-0.2,0-0.2,0c-0.1,0-0.1,0.1-0.2,0.1c-0.1,0.1-0.1,0.1-0.1,0.2c0,0.1,0,0.1,0,0.2
		v10.5c0,0.1,0,0.1,0,0.2c0,0.1,0.1,0.1,0.1,0.2c0.1,0.1,0.1,0.1,0.2,0.1c0.1,0,0.1,0,0.2,0h1.8c0.1,0,0.2,0,0.2,0
		c0.1,0,0.1-0.1,0.2-0.1c0.1-0.1,0.1-0.1,0.1-0.2c0-0.1,0-0.1,0-0.2V57.8c0-0.1,0-0.1,0-0.2c0-0.1-0.1-0.1-0.1-0.2
		c-0.1-0.1-0.1-0.1-0.2-0.1C143.6,57.2,143.5,57.2,143.5,57.2z"/>
	<path class="st10" d="M186,57.2h-1.8c-0.1,0-0.2,0-0.2,0c-0.1,0-0.1,0.1-0.2,0.1c-0.1,0.1-0.1,0.1-0.1,0.2c0,0.1,0,0.1,0,0.2v10.5
		c0,0.1,0,0.1,0,0.2c0,0.1,0.1,0.1,0.1,0.2c0.1,0.1,0.1,0.1,0.2,0.1c0.1,0,0.1,0,0.2,0h1.8c0.1,0,0.2,0,0.2,0c0.1,0,0.1-0.1,0.2-0.1
		c0.1-0.1,0.1-0.1,0.1-0.2c0-0.1,0-0.1,0-0.2V57.8c0-0.1,0-0.1,0-0.2c0-0.1-0.1-0.1-0.1-0.2c-0.1-0.1-0.1-0.1-0.2-0.1
		C186.2,57.2,186.1,57.2,186,57.2z"/>
	<path class="st10" d="M148.8,57.2H147c-0.1,0-0.2,0-0.2,0c-0.1,0-0.1,0.1-0.2,0.1c-0.1,0.1-0.1,0.1-0.1,0.2c0,0.1,0,0.1,0,0.2v10.5
		c0,0.1,0,0.1,0,0.2c0,0.1,0.1,0.1,0.1,0.2c0.1,0.1,0.1,0.1,0.2,0.1c0.1,0,0.1,0,0.2,0h1.8c0.1,0,0.2,0,0.2,0c0.1,0,0.1-0.1,0.2-0.1
		c0.1-0.1,0.1-0.1,0.1-0.2c0-0.1,0-0.1,0-0.2V57.8c0-0.1,0-0.1,0-0.2c0-0.1-0.1-0.1-0.1-0.2c-0.1-0.1-0.1-0.1-0.2-0.1
		C148.9,57.2,148.9,57.2,148.8,57.2z"/>
	<path class="st10" d="M191.4,57.2h-1.8c-0.1,0-0.1,0-0.2,0c-0.1,0-0.1,0.1-0.2,0.1c-0.1,0.1-0.1,0.1-0.1,0.2c0,0.1,0,0.1,0,0.2
		v10.5c0,0.1,0,0.1,0,0.2c0,0.1,0.1,0.1,0.1,0.2c0.1,0.1,0.1,0.1,0.2,0.1c0.1,0,0.1,0,0.2,0h1.8c0.1,0,0.2,0,0.2,0
		c0.1,0,0.1-0.1,0.2-0.1c0.1-0.1,0.1-0.1,0.1-0.2c0-0.1,0-0.1,0-0.2V57.8c0-0.1,0-0.1,0-0.2c0-0.1-0.1-0.1-0.1-0.2
		c-0.1-0.1-0.1-0.1-0.2-0.1C191.5,57.2,191.4,57.2,191.4,57.2z"/>
	<path class="st10" d="M154.1,57.2h-1.8c-0.1,0-0.2,0-0.2,0c-0.1,0-0.1,0.1-0.2,0.1c-0.1,0.1-0.1,0.1-0.1,0.2c0,0.1,0,0.1,0,0.2
		v10.5c0,0.1,0,0.1,0,0.2c0,0.1,0.1,0.1,0.1,0.2c0.1,0.1,0.1,0.1,0.2,0.1c0.1,0,0.1,0,0.2,0h1.8c0.1,0,0.2,0,0.2,0
		c0.1,0,0.1-0.1,0.2-0.1c0.1-0.1,0.1-0.1,0.1-0.2c0-0.1,0-0.1,0-0.2V57.8c0-0.1,0-0.1,0-0.2c0-0.1-0.1-0.1-0.1-0.2
		c-0.1-0.1-0.1-0.1-0.2-0.1C154.3,57.2,154.2,57.2,154.1,57.2z"/>
	<path class="st10" d="M196.7,57.2h-1.8c-0.1,0-0.1,0-0.2,0c-0.1,0-0.1,0.1-0.2,0.1c-0.1,0.1-0.1,0.1-0.1,0.2c0,0.1,0,0.1,0,0.2
		v10.5c0,0.1,0,0.1,0,0.2c0,0.1,0.1,0.1,0.1,0.2c0.1,0.1,0.1,0.1,0.2,0.1c0.1,0,0.1,0,0.2,0h1.8c0.1,0,0.2,0,0.2,0
		c0.1,0,0.1-0.1,0.2-0.1c0.1-0.1,0.1-0.1,0.1-0.2c0-0.1,0-0.1,0-0.2V57.8c0-0.1,0-0.1,0-0.2c0-0.1-0.1-0.1-0.1-0.2
		c-0.1-0.1-0.1-0.1-0.2-0.1C196.8,57.2,196.8,57.2,196.7,57.2z"/>
	<path class="st12" d="M39.6,60.9c1.3,0,2.4-1.1,2.4-2.4s-1.1-2.4-2.4-2.4c-1.3,0-2.4,1.1-2.4,2.4S38.2,60.9,39.6,60.9z"/>
	<path class="st10" d="M39.6,70.9c1.3,0,2.4-1.1,2.4-2.4c0-1.3-1.1-2.4-2.4-2.4c-1.3,0-2.4,1.1-2.4,2.4
		C37.2,69.8,38.2,70.9,39.6,70.9z"/>
	<path class="st10" d="M39.6,80.9c1.3,0,2.4-1.1,2.4-2.4c0-1.3-1.1-2.4-2.4-2.4c-1.3,0-2.4,1.1-2.4,2.4
		C37.2,79.8,38.2,80.9,39.6,80.9z"/>
	<path class="st10" d="M39.6,90.8c1.3,0,2.4-1.1,2.4-2.4c0-1.3-1.1-2.4-2.4-2.4c-1.3,0-2.4,1.1-2.4,2.4
		C37.2,89.8,38.2,90.8,39.6,90.8z"/>
	<path class="st10" d="M39.6,100.8c1.3,0,2.4-1.1,2.4-2.4S40.9,96,39.6,96c-1.3,0-2.4,1.1-2.4,2.4S38.2,100.8,39.6,100.8z"/>
</g>
<path class="st3" d="M34.2,34.2h170.5c0.9,0,1.6,0.7,1.6,1.6v101.7c0,0.9-0.7,1.6-1.6,1.6H34.2c-0.9,0-1.6-0.7-1.6-1.6V35.8
	C32.5,34.9,33.3,34.2,34.2,34.2z"/>
<circle class="st13" cx="31.6" cy="32.6" r="29.5"/>
<path class="st14" d="M7.6,54.9l27.3-27.3"/>
<path class="st14" d="M25.4,27.5h-4.1"/>
<path class="st14" d="M48.6,27.5h-4.1"/>
<path class="st14" d="M44.5,18l-2.9,2.9"/>
<path class="st14" d="M34.9,18v-4.1"/>
<path class="st14" d="M34.9,41.2v-4.1"/>
<path class="st14" d="M28.3,20.9L25.4,18"/>
<path class="st14" d="M44.5,37.1l-2.9-2.9"/>
<path class="st15" d="M75.4,11.4l-7.3,4.2"/>
<path class="st15" d="M71.8,9.3l0,8.4"/>
<path class="st15" d="M68.1,11.4l7.3,4.2"/>
<path class="st2" d="M236.1,149.8l-7.3,4.2"/>
<path class="st2" d="M232.5,147.7l0,8.4"/>
<path class="st2" d="M228.8,149.8l7.3,4.2"/>
</svg>
