<svg id="Layer_1" data-name="Layer 1" xmlns="http://www.w3.org/2000/svg" xmlns:xlink="http://www.w3.org/1999/xlink" viewBox="0 0 472 279"><defs><style>.cls-1,.cls-7,.cls-8{fill:none;}.cls-2{fill:#fb955a;}.cls-3{fill:#fbaa5a;}.cls-4{fill:#fbc55a;}.cls-5{fill:#e6e6ea;}.cls-6{fill:#141414;}.cls-7{stroke:#000;}.cls-7,.cls-8{stroke-linecap:round;stroke-linejoin:round;stroke-width:1.5px;}.cls-8{stroke:#141414;}.cls-9{fill:#989898;}.cls-10{clip-path:url(#clip-path);}</style><clipPath id="clip-path"><rect class="cls-1" x="277.428" y="29.4287" width="17.1429" height="16"/></clipPath></defs><rect class="cls-2" x="257" y="198" width="215" height="81" rx="10"/><rect class="cls-3" x="257" y="99" width="215" height="81" rx="10"/><rect class="cls-4" x="257" width="215" height="81" rx="10"/><rect class="cls-5" y="87" width="148" height="56" rx="10"/><rect class="cls-5" y="155" width="148" height="56" rx="10"/><path class="cls-6" d="M58.483,109.364v7.426a2.616,2.616,0,0,1-5.2273,0v-7.426h-2.108v7.602c0,2.5,1.875,4.21,4.7216,4.21,2.8352,0,4.7216-1.71,4.7216-4.21v-7.602Zm11.2059,5.216c-.2841-1.478-1.4659-2.421-3.5113-2.421-2.1023,0-3.5341,1.034-3.5285,2.648-.0056,1.273.7785,2.113,2.4546,2.46l1.4886.313c.8012.176,1.1762.5,1.1762.994,0,.596-.6478,1.045-1.625,1.045a1.5634,1.5634,0,0,1-1.733-1.193l-2.0057.193c.2557,1.603,1.6023,2.551,3.7443,2.551,2.1819,0,3.7216-1.13,3.7273-2.784-.0057-1.244-.8068-2.005-2.4545-2.363l-1.4887-.318c-.8863-.199-1.2386-.506-1.2329-1.012-.0057-.591.6477-1,1.5057-1a1.5253,1.5253,0,0,1,1.6079,1.091Zm5.7472,6.59c2.0341,0,3.4318-.994,3.7954-2.511l-1.92-.216a1.82,1.82,0,0,1-1.8466,1.125,2.1493,2.1493,0,0,1-2.2273-2.369h6.08v-.631c0-3.062-1.8409-4.409-3.9887-4.409-2.5,0-4.1307,1.835-4.1307,4.529C71.1974,119.426,72.8054,121.17,75.4361,121.17Zm-2.1932-5.358a2.0976,2.0976,0,0,1,2.1136-2.051,1.9447,1.9447,0,0,1,1.9887,2.051ZM81.0568,121h2.0568v-5.131a1.8648,1.8648,0,0,1,1.9659-1.892,3.9167,3.9167,0,0,1,.9546.12v-1.892a4.82,4.82,0,0,0-.7386-.057,2.1789,2.1789,0,0,0-2.1535,1.579h-.0909v-1.454H81.0568Z"/><path class="cls-6" d="M311.148,36h7.233V34.233h-5.125V24.3636h-2.108Zm11.483.1761a2.6949,2.6949,0,0,0,2.562-1.375h.068V36h1.978V30.1591c0-2.3068-1.881-3-3.546-3a3.4989,3.4989,0,0,0-3.699,2.4091l1.921.2727a1.7418,1.7418,0,0,1,1.79-1.1079c.954,0,1.477.4886,1.477,1.3465v.0341c0,.5909-.62.6194-2.159.7841-1.693.1818-3.313.6875-3.313,2.6534C319.71,35.267,320.966,36.1761,322.631,36.1761Zm.534-1.5113c-.858,0-1.472-.3921-1.472-1.1478,0-.79.688-1.1193,1.608-1.25a6.27,6.27,0,0,0,1.887-.4261v1.0284A1.8587,1.8587,0,0,1,323.165,34.6648ZM329.307,36h2.057V30.8693a1.8647,1.8647,0,0,1,1.966-1.892,3.93,3.93,0,0,1,.954.1193V27.2045a4.943,4.943,0,0,0-.739-.0568,2.1783,2.1783,0,0,0-2.153,1.58h-.091V27.2727h-1.994Zm9.78,3.42c2.358,0,4.096-1.08,4.096-3.2785V27.2727h-2.028v1.4432h-.114a2.6061,2.6061,0,0,0-2.505-1.5568c-2.018,0-3.603,1.58-3.603,4.4489,0,2.8465,1.585,4.267,3.597,4.267a2.594,2.594,0,0,0,2.511-1.4432h.102v1.6534c0,1.25-.852,1.7784-2.022,1.7784a2.0808,2.0808,0,0,1-2.034-1.0625l-1.853.4489C335.609,38.4375,336.865,39.4205,339.087,39.4205Zm.017-5.1591c-1.358,0-2.074-1.0569-2.074-2.6648,0-1.5852.704-2.75,2.074-2.75,1.324,0,2.051,1.0966,2.051,2.75C341.155,33.2614,340.416,34.2614,339.104,34.2614Zm10.051,1.9091c2.034,0,3.432-.9944,3.795-2.5114l-1.92-.2159a1.8208,1.8208,0,0,1-1.847,1.125,2.1494,2.1494,0,0,1-2.227-2.3693h6.08v-.6307c0-3.0625-1.841-4.4091-3.989-4.4091-2.5,0-4.131,1.8352-4.131,4.5284C344.916,34.4261,346.524,36.1705,349.155,36.1705Zm-2.193-5.358a2.0965,2.0965,0,0,1,2.113-2.0511,1.9445,1.9445,0,0,1,1.989,2.0511Zm10.228,3.5966h-1.818l-.04.6364a22.583,22.583,0,0,1-.664,3.7954h1.386a17.019,17.019,0,0,0,1.062-3.8068Zm9.152,1.7443a2.6308,2.6308,0,0,0,2.5-1.5284h.125V36h2.023V24.3636h-2.062v4.3523h-.086a2.5875,2.5875,0,0,0-2.494-1.5568c-2.017,0-3.602,1.58-3.602,4.4886C362.746,34.5227,364.286,36.1534,366.342,36.1534Zm.574-1.6875c-1.358,0-2.074-1.1932-2.074-2.8295,0-1.625.705-2.79,2.074-2.79,1.324,0,2.051,1.0966,2.051,2.79S368.229,34.4659,366.916,34.4659ZM373.182,36h2.057V27.2727h-2.057Zm1.034-9.9659a1.119,1.119,0,1,0-1.193-1.1136A1.1546,1.1546,0,0,0,374.216,26.0341ZM384.251,29.58c-.284-1.4772-1.465-2.42-3.511-2.42-2.102,0-3.534,1.0341-3.528,2.6477-.006,1.2727.778,2.1137,2.454,2.46l1.489.3125c.801.1762,1.176.5,1.176.9944,0,.5966-.648,1.0454-1.625,1.0454a1.5635,1.5635,0,0,1-1.733-1.1932l-2.006.1932c.256,1.6023,1.603,2.5512,3.745,2.5512,2.181,0,3.721-1.1307,3.727-2.7841-.006-1.2444-.807-2.0057-2.455-2.3637l-1.488-.3182c-.887-.1988-1.239-.5056-1.233-1.0113-.006-.5909.648-1,1.505-1a1.5252,1.5252,0,0,1,1.608,1.0909Zm6.242-2.3068h-1.722V25.1818h-2.057v2.0909h-1.238v1.5909h1.238v4.8523c-.011,1.6421,1.182,2.4489,2.728,2.4034a4.1373,4.1373,0,0,0,1.21-.2045l-.347-1.608a2.5539,2.5539,0,0,1-.602.08c-.517,0-.932-.1819-.932-1.0114V28.8636h1.722ZM392.213,36h2.057V30.8693a1.8647,1.8647,0,0,1,1.966-1.892,3.93,3.93,0,0,1,.954.1193V27.2045a4.94,4.94,0,0,0-.738-.0568,2.1794,2.1794,0,0,0-2.154,1.58h-.091V27.2727h-1.994Zm6.344,0h2.057V27.2727h-2.057Zm1.034-9.9659a1.119,1.119,0,1,0-1.193-1.1136A1.1546,1.1546,0,0,0,399.591,26.0341ZM402.82,36h2.022V34.625h.12a2.6308,2.6308,0,0,0,2.5,1.5284c2.056,0,3.596-1.6307,3.596-4.5057,0-2.9091-1.585-4.4886-3.602-4.4886a2.5875,2.5875,0,0,0-2.494,1.5568h-.086V24.3636H402.82Zm2.017-4.3636c0-1.6932.727-2.79,2.051-2.79,1.369,0,2.074,1.1648,2.074,2.79,0,1.6363-.716,2.8295-2.074,2.8295C405.575,34.4659,404.837,33.33,404.837,31.6364Zm13.532.6931a1.8554,1.8554,0,0,1-1.858,1.9887,1.6243,1.6243,0,0,1-1.647-1.8068V27.2727h-2.057V32.83c0,2.0966,1.193,3.2841,2.909,3.2841a2.6937,2.6937,0,0,0,2.625-1.6647h.091V36h1.994V27.2727h-2.057Zm8.53-5.0568h-1.721V25.1818h-2.057v2.0909h-1.239v1.5909h1.239v4.8523c-.012,1.6421,1.182,2.4489,2.727,2.4034a4.13,4.13,0,0,0,1.21-.2045l-.346-1.608a2.5723,2.5723,0,0,1-.603.08c-.517,0-.931-.1819-.931-1.0114V28.8636h1.721Zm5.49,8.8978c2.034,0,3.432-.9944,3.796-2.5114l-1.921-.2159a1.82,1.82,0,0,1-1.846,1.125,2.15,2.15,0,0,1-2.228-2.3693h6.08v-.6307c0-3.0625-1.841-4.4091-3.989-4.4091-2.5,0-4.13,1.8352-4.13,4.5284C428.151,34.4261,429.759,36.1705,432.389,36.1705Zm-2.193-5.358a2.0974,2.0974,0,0,1,2.114-2.0511,1.9443,1.9443,0,0,1,1.988,2.0511Zm11.053,5.3409a2.6308,2.6308,0,0,0,2.5-1.5284h.125V36h2.022V24.3636h-2.062v4.3523h-.085a2.59,2.59,0,0,0-2.495-1.5568c-2.017,0-3.602,1.58-3.602,4.4886C437.652,34.5227,439.192,36.1534,441.249,36.1534Zm.573-1.6875c-1.358,0-2.073-1.1932-2.073-2.8295,0-1.625.704-2.79,2.073-2.79,1.324,0,2.052,1.0966,2.052,2.79S443.135,34.4659,441.822,34.4659ZM315.415,46.2727h-1.722V44.1818h-2.057v2.0909h-1.238v1.5909h1.238v4.8523c-.011,1.6421,1.182,2.4489,2.728,2.4034a4.1373,4.1373,0,0,0,1.21-.2045l-.347-1.608a2.5539,2.5539,0,0,1-.602.08c-.517,0-.932-.1819-.932-1.0114V47.8636h1.722Zm5.49,8.8978c2.034,0,3.432-.9944,3.795-2.5114l-1.92-.2159a1.8208,1.8208,0,0,1-1.847,1.125,2.1494,2.1494,0,0,1-2.227-2.3693h6.08v-.6307c0-3.0625-1.841-4.4091-3.989-4.4091-2.5,0-4.131,1.8352-4.131,4.5284C316.666,53.4261,318.274,55.1705,320.905,55.1705Zm-2.193-5.358a2.0965,2.0965,0,0,1,2.113-2.0511,1.9445,1.9445,0,0,1,1.989,2.0511Zm10.325,5.3636a2.6949,2.6949,0,0,0,2.562-1.375h.069V55h1.977V49.1591c0-2.3068-1.881-3-3.546-3-1.835,0-3.244.8182-3.698,2.4091l1.92.2727a1.7427,1.7427,0,0,1,1.79-1.1079c.954,0,1.477.4886,1.477,1.3465v.0341c0,.5909-.619.6194-2.159.7841-1.693.1818-3.313.6875-3.313,2.6534C326.116,54.267,327.372,55.1761,329.037,55.1761Zm.534-1.5113c-.858,0-1.472-.3921-1.472-1.1478,0-.79.688-1.1193,1.608-1.25a6.2625,6.2625,0,0,0,1.887-.4261v1.0284A1.8582,1.8582,0,0,1,329.571,53.6648ZM335.713,55h2.057V49.6932a1.6616,1.6616,0,0,1,1.602-1.8012,1.3945,1.3945,0,0,1,1.466,1.483V55h2.017V49.5568a1.5179,1.5179,0,0,1,1.58-1.6648,1.4068,1.4068,0,0,1,1.488,1.5682V55h2.063V49.142c0-1.9488-1.125-2.9829-2.727-2.9829a2.67,2.67,0,0,0-2.62,1.5966h-.091a2.3347,2.3347,0,0,0-2.358-1.5966,2.4223,2.4223,0,0,0-2.409,1.5966h-.102v-1.483h-1.966Zm21.257-6.42c-.284-1.4772-1.466-2.42-3.511-2.42-2.102,0-3.534,1.0341-3.529,2.6477-.005,1.2727.779,2.1137,2.455,2.46l1.489.3125c.801.1762,1.176.5,1.176.9944,0,.5966-.648,1.0454-1.625,1.0454a1.5635,1.5635,0,0,1-1.733-1.1932l-2.006.1932c.256,1.6023,1.602,2.5512,3.744,2.5512,2.182,0,3.722-1.1307,3.728-2.7841-.006-1.2444-.807-2.0057-2.455-2.3637l-1.489-.3182c-.886-.1988-1.238-.5056-1.232-1.0113-.006-.5909.647-1,1.505-1a1.5252,1.5252,0,0,1,1.608,1.0909Z"/><path class="cls-6" d="M311.148,144h2.108v-3.932h2.227c2.687,0,4.131-1.613,4.131-3.852,0-2.222-1.426-3.852-4.103-3.852h-4.363Zm2.108-5.665v-4.21h1.932c1.579,0,2.278.852,2.278,2.091a1.99,1.99,0,0,1-2.267,2.119Zm11.836,5.835c2.034,0,3.432-.994,3.796-2.511l-1.921-.216a1.8189,1.8189,0,0,1-1.846,1.125,2.15,2.15,0,0,1-2.228-2.369h6.08v-.631c0-3.062-1.841-4.409-3.989-4.409-2.5,0-4.13,1.835-4.13,4.529C320.854,142.426,322.462,144.17,325.092,144.17Zm-2.193-5.358a2.0984,2.0984,0,0,1,2.114-2.051,1.9439,1.9439,0,0,1,1.988,2.051Zm12.172-3.539h-1.722v-2.091h-2.056v2.091h-1.239v1.591h1.239v4.852c-.012,1.642,1.181,2.449,2.727,2.403a4.1278,4.1278,0,0,0,1.21-.204l-.346-1.608a2.6008,2.6008,0,0,1-.603.079c-.517,0-.932-.181-.932-1.011v-4.511h1.722Zm4.232,8.903a2.6949,2.6949,0,0,0,2.562-1.375h.068V144h1.978v-5.841c0-2.307-1.881-3-3.546-3a3.4987,3.4987,0,0,0-3.699,2.409l1.921.273a1.7409,1.7409,0,0,1,1.789-1.108c.955,0,1.478.489,1.478,1.347v.034c0,.591-.62.619-2.159.784-1.694.182-3.313.687-3.313,2.653C336.382,143.267,337.638,144.176,339.303,144.176Zm.534-1.511c-.858,0-1.472-.392-1.472-1.148,0-.79.688-1.119,1.608-1.25a6.2586,6.2586,0,0,0,1.886-.426v1.028A1.858,1.858,0,0,1,339.837,142.665ZM346.07,144h2.022v-1.375h.12a2.6312,2.6312,0,0,0,2.5,1.528c2.056,0,3.596-1.63,3.596-4.505,0-2.909-1.585-4.489-3.602-4.489a2.5872,2.5872,0,0,0-2.494,1.557h-.086v-4.352H346.07Zm2.017-4.364c0-1.693.727-2.789,2.051-2.789,1.369,0,2.074,1.164,2.074,2.789,0,1.637-.716,2.83-2.074,2.83C348.825,142.466,348.087,141.33,348.087,139.636Zm8.951,7.62a2.9766,2.9766,0,0,0,3.023-2.199l3.506-9.773-2.199-.011-2.017,6.591h-.091l-2.011-6.591h-2.182l3.165,8.909-.177.471c-.392.966-.983,1.04-1.88.785l-.478,1.596A3.7185,3.7185,0,0,0,357.038,147.256Zm12.314-11.983h-1.721v-2.091h-2.057v2.091h-1.239v1.591h1.239v4.852c-.012,1.642,1.182,2.449,2.727,2.403a4.1278,4.1278,0,0,0,1.21-.204l-.346-1.608a2.6008,2.6008,0,0,1-.603.079c-.517,0-.931-.181-.931-1.011v-4.511h1.721Zm5.49,8.897c2.034,0,3.432-.994,3.796-2.511l-1.921-.216a1.8189,1.8189,0,0,1-1.846,1.125,2.15,2.15,0,0,1-2.228-2.369h6.08v-.631c0-3.062-1.841-4.409-3.989-4.409-2.5,0-4.13,1.835-4.13,4.529C370.604,142.426,372.212,144.17,374.842,144.17Zm-2.193-5.358a2.0984,2.0984,0,0,1,2.114-2.051,1.9439,1.9439,0,0,1,1.988,2.051Zm14.712-1.232c-.284-1.478-1.466-2.421-3.512-2.421-2.102,0-3.534,1.034-3.528,2.648-.006,1.273.778,2.113,2.455,2.46l1.488.313c.801.176,1.176.5,1.176.994,0,.596-.647,1.045-1.625,1.045a1.5641,1.5641,0,0,1-1.733-1.193l-2.005.193c.255,1.603,1.602,2.551,3.744,2.551,2.182,0,3.722-1.13,3.727-2.784-.005-1.244-.807-2.005-2.454-2.363l-1.489-.318c-.886-.199-1.239-.506-1.233-1.012-.006-.591.648-1,1.506-1a1.5251,1.5251,0,0,1,1.608,1.091Z"/><path class="cls-6" d="M58.9432,181.08h2.1477a4.7066,4.7066,0,0,0-4.9091-3.875c-3.0454,0-5.33,2.238-5.33,5.988,0,3.682,2.1818,5.966,5.392,5.966a4.6251,4.6251,0,0,0,4.9432-4.852v-1.398H56.4659v1.648h2.6818a2.6427,2.6427,0,0,1-2.892,2.71c-1.9489,0-3.2841-1.46-3.2841-4.097,0-2.619,1.3579-4.073,3.2386-4.073A2.6718,2.6718,0,0,1,58.9432,181.08ZM63.2259,189h4.71c2.6648,0,3.9716-1.358,3.9716-3.17a2.7047,2.7047,0,0,0-2.4887-2.858v-.114a2.4308,2.4308,0,0,0,2.0341-2.477c0-1.733-1.25-3.017-3.7727-3.017H63.2259Zm2.1079-1.761V183.83h2.3239a1.8891,1.8891,0,0,1,2.1079,1.835c0,.926-.6363,1.574-2.1647,1.574Zm0-4.927v-3.21h2.1307c1.2386,0,1.8807.654,1.8807,1.551a1.7223,1.7223,0,0,1-1.9262,1.659Z"/><path class="cls-7" d="M26.5,117.875a4.1565,4.1565,0,1,0-4.1562-4.156A4.1563,4.1563,0,0,0,26.5,117.875Z"/><path class="cls-7" d="M31.9729,122.527a7.7157,7.7157,0,0,0-10.9456,0"/><path class="cls-7" d="M26.5,124.406a8.906,8.906,0,1,0-8.9062-8.906A8.9058,8.9058,0,0,0,26.5,124.406Z"/><rect class="cls-5" y="223" width="148" height="56" rx="10"/><path class="cls-6" d="M51.1477,247h2.108v-4.943h5.392V247h2.1137V235.364H58.6477v4.926h-5.392v-4.926h-2.108Zm17.3779-3.67a1.8551,1.8551,0,0,1-1.858,1.988,1.6246,1.6246,0,0,1-1.6477-1.807v-5.238H62.9631v5.557c0,2.096,1.1931,3.284,2.9091,3.284a2.6942,2.6942,0,0,0,2.625-1.665h.0909V247h1.9943v-8.727H68.5256Zm6.2287-1.444a1.7917,1.7917,0,0,1,1.8466-1.988A1.6428,1.6428,0,0,1,78.3,241.761V247h2.0568v-5.557c.0057-2.091-1.1875-3.284-2.9886-3.284a2.6194,2.6194,0,0,0-2.6023,1.597h-.1022v-1.483h-1.966V247h2.0569Zm10.9318,5.267a2.631,2.631,0,0,0,2.5-1.528h.125V247h2.0227V235.364H88.2713v4.352h-.0852a2.5885,2.5885,0,0,0-2.4943-1.557c-2.0171,0-3.6023,1.58-3.6023,4.489C82.09,245.523,83.6293,247.153,85.6861,247.153Zm.5738-1.687c-1.3579,0-2.0738-1.193-2.0738-2.83,0-1.625.7045-2.789,2.0738-2.789,1.3239,0,2.0512,1.096,2.0512,2.789S87.5724,245.466,86.26,245.466ZM92.5256,247h2.0568v-5.131a1.8647,1.8647,0,0,1,1.9659-1.892,3.9158,3.9158,0,0,1,.9545.12v-1.892a4.82,4.82,0,0,0-.7386-.057,2.1788,2.1788,0,0,0-2.1534,1.579H94.52v-1.454H92.5256Zm9.8484.17c2.034,0,3.431-.994,3.795-2.511l-1.92-.216a1.8211,1.8211,0,0,1-1.847,1.125,2.1488,2.1488,0,0,1-2.227-2.369h6.079v-.631c0-3.062-1.841-4.409-3.988-4.409-2.5,0-4.1311,1.835-4.1311,4.529C98.1349,245.426,99.7429,247.17,102.374,247.17Zm-2.194-5.358a2.0984,2.0984,0,0,1,2.114-2.051,1.9453,1.9453,0,0,1,1.989,2.051Zm11.053,5.341a2.6312,2.6312,0,0,0,2.5-1.528h.125V247h2.023V235.364h-2.063v4.352h-.085a2.5894,2.5894,0,0,0-2.494-1.557c-2.017,0-3.603,1.58-3.603,4.489C107.636,245.523,109.176,247.153,111.233,247.153Zm.574-1.687c-1.358,0-2.074-1.193-2.074-2.83,0-1.625.705-2.789,2.074-2.789,1.324,0,2.051,1.096,2.051,2.789S113.119,245.466,111.807,245.466Zm13.163-4.886c-.284-1.478-1.466-2.421-3.511-2.421-2.102,0-3.534,1.034-3.529,2.648-.005,1.273.779,2.113,2.455,2.46l1.489.313c.801.176,1.176.5,1.176.994,0,.596-.648,1.045-1.625,1.045a1.5635,1.5635,0,0,1-1.733-1.193l-2.006.193c.256,1.603,1.602,2.551,3.744,2.551,2.182,0,3.722-1.13,3.728-2.784-.006-1.244-.807-2.005-2.455-2.363l-1.489-.318c-.886-.199-1.238-.506-1.232-1.012-.006-.591.647-1,1.505-1a1.5251,1.5251,0,0,1,1.608,1.091ZM54.8636,266.17c2.5569,0,4.1819-1.801,4.1819-4.5,0-2.704-1.625-4.511-4.1819-4.511s-4.1818,1.807-4.1818,4.511C50.6818,264.369,52.3068,266.17,54.8636,266.17Zm.0114-1.647c-1.4148,0-2.108-1.262-2.108-2.858s.6932-2.875,2.108-2.875c1.392,0,2.0852,1.278,2.0852,2.875S56.267,264.523,54.875,264.523Zm10.3366-7.25H63.3991v-.688c0-.682.2841-1.062,1.0512-1.062a2.647,2.647,0,0,1,.767.125l.4148-1.591a5.1227,5.1227,0,0,0-1.5625-.239,2.4969,2.4969,0,0,0-2.7273,2.631v.824h-1.29v1.591h1.29V266h2.0568v-7.136h1.8125Zm5.58,8.727H72.848v-5.307a1.6613,1.6613,0,0,1,1.6023-1.801,1.3942,1.3942,0,0,1,1.4659,1.483V266h2.017v-5.443a1.5181,1.5181,0,0,1,1.58-1.665,1.407,1.407,0,0,1,1.4886,1.568V266h2.0625v-5.858c0-1.949-1.125-2.983-2.7273-2.983a2.6693,2.6693,0,0,0-2.6193,1.597h-.0909a2.3346,2.3346,0,0,0-2.3579-1.597,2.4211,2.4211,0,0,0-2.4091,1.597h-.1023v-1.483H70.7912Zm18.223.17c2.0341,0,3.4318-.994,3.7955-2.511l-1.9205-.216a1.82,1.82,0,0,1-1.8466,1.125,2.1493,2.1493,0,0,1-2.2273-2.369h6.08v-.631c0-3.062-1.8409-4.409-3.9887-4.409-2.5,0-4.1306,1.835-4.1306,4.529C84.7756,264.426,86.3835,266.17,89.0142,266.17Zm-2.1932-5.358a2.0976,2.0976,0,0,1,2.1137-2.051,1.9447,1.9447,0,0,1,1.9886,2.051Zm12.1719-3.539H97.2713v-2.091H95.2145v2.091H93.9759v1.591h1.2386v4.852c-.0114,1.642,1.1818,2.449,2.7273,2.403a4.1323,4.1323,0,0,0,1.21-.204l-.3466-1.608a2.5927,2.5927,0,0,1-.6023.079c-.517,0-.9318-.181-.9318-1.011v-4.511h1.7216Zm1.72,8.727h2.057v-5.131a1.8646,1.8646,0,0,1,1.966-1.892,3.9147,3.9147,0,0,1,.954.12v-1.892a4.8094,4.8094,0,0,0-.738-.057,2.1794,2.1794,0,0,0-2.154,1.579h-.091v-1.454h-1.994Zm6.344,0h2.057v-8.727h-2.057Zm1.034-9.966a1.119,1.119,0,1,0-1.193-1.114A1.1547,1.1547,0,0,0,108.091,256.034Zm6.945,10.136a3.4216,3.4216,0,0,0,3.738-3.153h-1.966a1.7011,1.7011,0,0,1-1.755,1.477c-1.285,0-2.114-1.074-2.114-2.858,0-1.761.847-2.818,2.114-2.818a1.71,1.71,0,0,1,1.755,1.477h1.966a3.4273,3.4273,0,0,0-3.75-3.136c-2.557,0-4.17,1.847-4.17,4.511C110.854,264.312,112.428,266.17,115.036,266.17Zm12.325-6.59c-.284-1.478-1.466-2.421-3.512-2.421-2.102,0-3.534,1.034-3.528,2.648-.006,1.273.778,2.113,2.455,2.46l1.488.313c.801.176,1.176.5,1.176.994,0,.596-.647,1.045-1.625,1.045a1.5641,1.5641,0,0,1-1.733-1.193l-2.005.193c.255,1.603,1.602,2.551,3.744,2.551,2.182,0,3.722-1.13,3.727-2.784-.005-1.244-.807-2.005-2.454-2.363l-1.489-.318c-.886-.199-1.239-.506-1.233-1.012-.006-.591.648-1,1.506-1a1.5251,1.5251,0,0,1,1.608,1.091Z"/><path class="cls-6" d="M311.148,231.364V243h2.022v-8.011h.108l3.216,7.977h1.512l3.216-7.96h.108V243h2.022V231.364h-2.579l-3.455,8.431h-.136l-3.455-8.431ZM325.557,243h2.057v-8.727h-2.057Zm1.034-9.966a1.119,1.119,0,1,0-1.193-1.114A1.1547,1.1547,0,0,0,326.591,233.034Zm5.195-1.67h-2.057V243h2.057Zm4.171,0h-2.056V243h2.056ZM338.072,243h2.057v-8.727h-2.057Zm1.035-9.966a1.119,1.119,0,1,0-1.194-1.114A1.1547,1.1547,0,0,0,339.107,233.034Zm6.944,10.136c2.557,0,4.182-1.801,4.182-4.5,0-2.704-1.625-4.511-4.182-4.511s-4.182,1.807-4.182,4.511C341.869,241.369,343.494,243.17,346.051,243.17Zm.011-1.647c-1.414,0-2.107-1.262-2.107-2.858s.693-2.875,2.107-2.875c1.393,0,2.086,1.278,2.086,2.875S347.455,241.523,346.062,241.523Zm7.974-3.637a1.7914,1.7914,0,0,1,1.846-1.988,1.6427,1.6427,0,0,1,1.699,1.863V243h2.057v-5.557c.005-2.091-1.188-3.284-2.989-3.284a2.619,2.619,0,0,0-2.602,1.597h-.102v-1.483h-1.966V243h2.057Zm14.59-1.306c-.284-1.478-1.465-2.421-3.511-2.421-2.102,0-3.534,1.034-3.528,2.648-.006,1.273.778,2.113,2.454,2.46l1.489.313c.801.176,1.176.5,1.176.994,0,.596-.648,1.045-1.625,1.045a1.5635,1.5635,0,0,1-1.733-1.193l-2.006.193c.256,1.603,1.603,2.551,3.745,2.551,2.181,0,3.721-1.13,3.727-2.784-.006-1.244-.807-2.005-2.455-2.363l-1.488-.318c-.887-.199-1.239-.506-1.233-1.012-.006-.591.648-1,1.505-1a1.5251,1.5251,0,0,1,1.608,1.091Zm9.66,6.59c2.556,0,4.181-1.801,4.181-4.5,0-2.704-1.625-4.511-4.181-4.511s-4.182,1.807-4.182,4.511C374.104,241.369,375.729,243.17,378.286,243.17Zm.011-1.647c-1.415,0-2.108-1.262-2.108-2.858s.693-2.875,2.108-2.875c1.392,0,2.085,1.278,2.085,2.875S379.689,241.523,378.297,241.523Zm10.337-7.25h-1.813v-.688c0-.682.284-1.062,1.051-1.062a2.6433,2.6433,0,0,1,.767.125l.415-1.591a5.122,5.122,0,0,0-1.563-.239,2.4967,2.4967,0,0,0-2.727,2.631v.824h-1.29v1.591h1.29V243h2.057v-7.136h1.813ZM394.213,243h2.057v-5.307a1.6613,1.6613,0,0,1,1.602-1.801,1.3944,1.3944,0,0,1,1.466,1.483V243h2.017v-5.443a1.518,1.518,0,0,1,1.58-1.665,1.4068,1.4068,0,0,1,1.488,1.568V243h2.063v-5.858c0-1.949-1.125-2.983-2.727-2.983a2.67,2.67,0,0,0-2.62,1.597h-.091a2.3346,2.3346,0,0,0-2.358-1.597,2.4218,2.4218,0,0,0-2.409,1.597h-.102v-1.483h-1.966Zm18.223.17c2.034,0,3.432-.994,3.796-2.511l-1.921-.216a1.8194,1.8194,0,0,1-1.847,1.125,2.1493,2.1493,0,0,1-2.227-2.369h6.08v-.631c0-3.062-1.841-4.409-3.989-4.409-2.5,0-4.131,1.835-4.131,4.529C408.197,241.426,409.805,243.17,412.436,243.17Zm-2.193-5.358a2.0971,2.0971,0,0,1,2.114-2.051,1.9445,1.9445,0,0,1,1.988,2.051Zm12.172-3.539h-1.722v-2.091h-2.057v2.091h-1.238v1.591h1.238v4.852c-.011,1.642,1.182,2.449,2.728,2.403a4.1347,4.1347,0,0,0,1.21-.204l-.347-1.608a2.5822,2.5822,0,0,1-.602.079c-.517,0-.932-.181-.932-1.011v-4.511h1.722Zm1.72,8.727h2.057v-5.131a1.8646,1.8646,0,0,1,1.966-1.892,3.9147,3.9147,0,0,1,.954.12v-1.892a4.8094,4.8094,0,0,0-.738-.057,2.1794,2.1794,0,0,0-2.154,1.579h-.091v-1.454h-1.994Zm6.344,0h2.057v-8.727h-2.057Zm1.034-9.966a1.119,1.119,0,1,0-1.193-1.114A1.1547,1.1547,0,0,0,431.513,233.034Zm6.944,10.136a3.4219,3.4219,0,0,0,3.739-3.153H440.23a1.7014,1.7014,0,0,1-1.756,1.477c-1.284,0-2.113-1.074-2.113-2.858,0-1.761.846-2.818,2.113-2.818a1.7106,1.7106,0,0,1,1.756,1.477h1.966a3.4273,3.4273,0,0,0-3.75-3.136c-2.557,0-4.17,1.847-4.17,4.511C434.276,241.312,435.849,243.17,438.457,243.17Zm12.326-6.59c-.284-1.478-1.466-2.421-3.512-2.421-2.102,0-3.534,1.034-3.528,2.648-.006,1.273.778,2.113,2.454,2.46l1.489.313c.801.176,1.176.5,1.176.994,0,.596-.648,1.045-1.625,1.045a1.5635,1.5635,0,0,1-1.733-1.193l-2.005.193c.255,1.603,1.602,2.551,3.744,2.551,2.182,0,3.721-1.13,3.727-2.784-.006-1.244-.807-2.005-2.454-2.363l-1.489-.318c-.886-.199-1.239-.506-1.233-1.012-.006-.591.648-1,1.506-1a1.5251,1.5251,0,0,1,1.608,1.091Z"/><path class="cls-8" d="M16,245.791A2.5873,2.5873,0,0,1,18.4444,243H31.8889a2.5873,2.5873,0,0,1,2.4444,2.791v10.418A2.5873,2.5873,0,0,1,31.8889,259H18.4444A2.5873,2.5873,0,0,1,16,256.209V245.791Z"/><path class="cls-8" d="M16,253.302l3.2593-3.535a.5392.5392,0,0,1,.8148,0l1.5481,1.768a1.0633,1.0633,0,0,0,.4889.186.5848.5848,0,0,0,.4074-.186L25.7778,248"/><path class="cls-8" d="M26.9185,252v2.047"/><path class="cls-8" d="M31.8074,252v2.047"/><path class="cls-8" d="M29.363,249.953v4"/><path class="cls-8" d="M278,229.791A2.5871,2.5871,0,0,1,280.444,227h13.445a2.5871,2.5871,0,0,1,2.444,2.791v10.418A2.5871,2.5871,0,0,1,293.889,243H280.444A2.5871,2.5871,0,0,1,278,240.209V229.791Z"/><path class="cls-8" d="M293.333,243.209A2.5871,2.5871,0,0,1,290.889,246H277.444A2.5871,2.5871,0,0,1,275,243.209V232.791A2.5871,2.5871,0,0,1,277.444,230"/><path class="cls-8" d="M290.333,246.209A2.5871,2.5871,0,0,1,287.889,249H274.445A2.5872,2.5872,0,0,1,272,246.209V235.791A2.5872,2.5872,0,0,1,274.445,233"/><path class="cls-8" d="M278,237.302l3.259-3.535a.5394.5394,0,0,1,.815,0l1.548,1.768a1.0637,1.0637,0,0,0,.489.186.5828.5828,0,0,0,.407-.186l3.26-3.535"/><path class="cls-8" d="M288.918,236v2.047"/><path class="cls-8" d="M293.807,236v2.047"/><path class="cls-8" d="M291.363,233.953v4"/><path class="cls-9" d="M154.904,248.256a.75.75,0,1,0,.192,1.488Zm93.69-10.798a.75.75,0,0,0-.136-1.052l-5.344-4.123a.75.75,0,0,0-.917,1.188l4.751,3.665-3.665,4.75a.75.75,0,0,0,1.188.917Zm-93.498,12.286.114-.015.114-.015c.039-.005.077-.01.115-.014l.116-.015.115-.015.117-.015.116-.015.117-.015c.039-.005.078-.011.118-.016l.118-.015.118-.015.119-.015c.039-.006.079-.011.119-.016l.119-.015c.04-.005.08-.011.12-.016l.121-.015c.04-.005.08-.011.121-.016l.121-.015c.041-.006.081-.011.122-.016s.081-.011.122-.016.081-.01.122-.016.082-.01.123-.016.082-.01.124-.016l.123-.015c.042-.006.083-.011.125-.017s.083-.01.124-.016.083-.01.125-.016.084-.01.126-.016.083-.011.125-.016.084-.011.127-.016.084-.011.126-.017.085-.011.127-.016.085-.011.128-.017.085-.011.128-.016.085-.011.128-.017.086-.011.128-.016.086-.011.13-.017.086-.011.129-.017.086-.011.13-.016.087-.012.13-.017.087-.011.131-.017.087-.011.131-.017.087-.011.131-.017.088-.011.132-.017.088-.011.132-.017.088-.011.133-.017.088-.011.133-.017.089-.012.133-.017l.134-.018c.045-.005.089-.011.134-.017s.09-.012.135-.017l.134-.018c.046-.006.091-.011.136-.017l.135-.018c.046-.006.091-.011.137-.017l.136-.018.137-.018c.046-.005.091-.011.137-.017l.138-.018.138-.018.138-.018.139-.018c.046-.006.092-.012.139-.017l.139-.018c.047-.006.093-.013.14-.019l.14-.018.141-.018.141-.018.141-.018.142-.018c.047-.007.094-.013.142-.019l.142-.018c.048-.006.095-.012.143-.019l.143-.018c.048-.006.096-.012.144-.019l.144-.018c.048-.006.096-.013.144-.019l.144-.018c.049-.007.097-.013.145-.019s.097-.013.146-.019.097-.012.145-.019l.146-.018c.049-.007.098-.013.147-.019s.097-.013.146-.019.098-.013.147-.019.099-.013.148-.019.098-.013.147-.019.099-.013.149-.019.099-.013.148-.02.099-.012.149-.019.099-.013.149-.019.1-.013.15-.019.099-.013.149-.02.1-.013.151-.019.1-.013.15-.02.101-.012.151-.019.101-.013.151-.019.101-.014.152-.02.101-.013.152-.02.101-.013.152-.019.101-.013.152-.02.102-.013.153-.02.102-.013.153-.019.103-.014.154-.02.103-.014.154-.02.103-.013.154-.02.103-.013.155-.02.103-.013.155-.02.103-.013.155-.02.103-.013.155-.02.104-.013.156-.02.104-.014.156-.02l.157-.021c.052-.006.104-.013.157-.02s.104-.013.157-.02.105-.014.157-.02l.158-.021c.053-.006.105-.013.158-.02l.159-.021c.052-.006.105-.013.158-.02l.159-.021c.054-.006.107-.013.16-.02l.16-.021c.053-.007.106-.013.16-.02l.16-.021.16-.021.161-.021c.054-.006.108-.013.162-.02l.161-.021.162-.021.162-.021.163-.021.162-.021.164-.021.163-.021.164-.021.164-.021c.054-.007.109-.014.164-.022l.164-.021.165-.021.165-.021c.056-.007.111-.015.166-.022l.166-.021c.055-.007.11-.014.166-.022l.166-.021c.056-.007.111-.014.167-.022l.167-.021c.055-.007.111-.014.167-.022l.167-.021c.056-.007.112-.015.168-.022s.112-.014.168-.022l.168-.021c.057-.008.113-.015.169-.022s.113-.015.169-.022.113-.014.169-.022.113-.014.17-.022l.169-.021c.057-.008.114-.015.171-.022s.113-.015.17-.022.114-.015.17-.022.114-.015.171-.022.114-.015.171-.023.115-.014.172-.022.114-.014.172-.022.114-.015.172-.022.114-.015.172-.022.115-.015.172-.022.115-.015.173-.023.115-.015.173-.022.116-.015.173-.022.116-.015.174-.023.116-.015.174-.022.116-.015.174-.023.116-.015.174-.022.117-.015.175-.023.116-.015.175-.022.116-.015.175-.023.117-.015.175-.023.117-.015.176-.022.117-.015.176-.023.117-.015.176-.023.118-.015.177-.022.117-.016.176-.023.118-.015.177-.023.118-.015.177-.023.119-.015.178-.023.118-.015.177-.023.119-.015.178-.023.119-.015.179-.023.118-.015.178-.023.119-.015.179-.023.119-.015.179-.023.119-.015.179-.023.119-.015.179-.023.12-.016.18-.023l.18-.024c.06-.007.12-.015.18-.023s.12-.015.18-.023.121-.016.181-.023l.181-.024c.06-.007.12-.015.181-.023s.121-.016.181-.023l.182-.024c.06-.008.121-.015.181-.023l.182-.024c.061-.008.122-.015.183-.023l.182-.024c.061-.008.122-.016.183-.023l.183-.024.183-.024c.061-.008.122-.015.183-.023l.184-.024.184-.024c.061-.008.122-.016.184-.023l.184-.024.184-.024.185-.024.185-.024.185-.024.186-.024.185-.024c.062-.007.124-.015.186-.023l.186-.024c.062-.008.124-.017.186-.025l.187-.024.186-.024.187-.024.187-.024.187-.024.188-.024.188-.024c.062-.009.125-.017.187-.025l.189-.024.188-.024c.063-.008.125-.016.188-.025l.189-.024.189-.024c.063-.008.126-.017.189-.025l.189-.024c.063-.008.127-.016.19-.025l.189-.024c.064-.008.127-.016.19-.025l.19-.024c.064-.008.127-.016.191-.025l.19-.024c.064-.008.127-.017.191-.025l.191-.024c.063-.009.127-.017.191-.025s.127-.017.191-.025l.191-.024c.064-.009.128-.017.192-.025s.128-.017.192-.025.127-.016.192-.025l.192-.024c.064-.009.128-.017.192-.025s.128-.017.192-.025.129-.017.193-.025.129-.017.193-.025.129-.016.193-.025.129-.016.193-.025.129-.016.194-.025.129-.016.193-.025.129-.016.194-.025.129-.016.194-.025.129-.016.194-.025.129-.016.194-.025.13-.016.194-.025.13-.017.195-.025.13-.017.195-.025.13-.017.195-.025.13-.017.195-.025.13-.017.195-.026.13-.016.195-.025.131-.017.196-.025.131-.017.196-.025.13-.017.196-.026.13-.016.196-.025.131-.017.196-.025.131-.017.196-.026.131-.016.197-.025.131-.017.197-.025.131-.017.196-.026.132-.017.197-.025.132-.017.197-.026.132-.016.198-.025.131-.017.197-.025.132-.017.198-.026.132-.017.198-.025.131-.017.197-.026.132-.017.198-.026.133-.017.199-.025.132-.017.198-.026.132-.017.198-.025.133-.017.199-.026.133-.017.199-.026.132-.017.199-.025.132-.017.199-.026.132-.017.199-.026.133-.017.199-.025.133-.018.2-.026.133-.017.199-.026.133-.017.2-.026.133-.017.2-.025.133-.018.2-.026.133-.017.2-.026.133-.017.2-.026.134-.017.2-.026.134-.017.201-.026.134-.017.201-.025.133-.018.2-.026.134-.018.201-.026.134-.018.201-.026.134-.018.201-.026.135-.017.202-.026.134-.017.201-.026.134-.017.201-.026.135-.017.202-.026.135-.018.202-.026.134-.018.202-.026.134-.018.202-.026.134-.018.202-.026.134-.018.202-.026l.202-.027c.068-.008.135-.017.203-.026s.135-.017.202-.026.135-.017.203-.026.135-.017.203-.026.135-.018.202-.026.136-.018.203-.026l.203-.027c.068-.008.136-.017.204-.026s.135-.017.203-.026.135-.018.203-.026l.204-.027c.068-.008.135-.017.203-.026s.136-.017.204-.026.136-.018.204-.026l.204-.027c.068-.009.136-.017.204-.026s.136-.018.204-.026l.204-.027c.068-.009.136-.017.204-.026l.205-.027c.068-.008.136-.017.204-.026s.136-.017.205-.026l.204-.027c.068-.008.137-.017.205-.026l.205-.027c.068-.008.136-.017.205-.026s.136-.018.205-.026l.205-.027c.068-.009.137-.018.205-.026l.205-.027c.069-.009.137-.017.205-.026l.206-.027c.068-.009.137-.018.205-.026l.206-.027c.068-.009.137-.018.206-.026l.205-.027.206-.027c.069-.008.137-.017.206-.026l.206-.027c.069-.009.137-.017.206-.026l.206-.027c.069-.009.137-.018.206-.026l.206-.027.207-.027c.069-.009.137-.017.206-.026l.207-.027.206-.027c.069-.008.138-.017.207-.026l.206-.027.207-.027c.069-.008.138-.017.207-.026l.207-.027.206-.027c.069-.009.138-.017.207-.026l.207-.027.207-.027c.069-.009.138-.018.208-.026l.207-.027.207-.027.207-.027c.069-.009.138-.018.208-.026l.207-.027.207-.027.208-.027.207-.027c.07-.008.139-.017.208-.026l.208-.027.207-.027.208-.027c.069-.009.138-.018.208-.026l.207-.027.208-.027.208-.027.208-.027.208-.027c.069-.009.139-.017.208-.026l.208-.027.208-.027.208-.027.208-.027.209-.027.208-.027c.069-.009.139-.017.208-.026l.208-.027.209-.027.208-.027.208-.027.209-.027.208-.027.208-.027c.07-.009.139-.018.209-.026l.208-.027.209-.027.208-.027.209-.027.208-.027.209-.027.208-.027.209-.027.208-.027.209-.027c.07-.009.139-.018.209-.026l.208-.027.209-.027.209-.027.208-.027.209-.027.209-.027.208-.027.209-.027.209-.027.208-.027.209-.027.209-.027c.069-.009.139-.018.208-.026l.209-.027.208-.027.209-.027.209-.027.208-.027.209-.027.209-.027.208-.027.209-.027.209-.027.208-.027.209-.027c.069-.008.139-.017.208-.026l.209-.027.208-.027.209-.027.208-.027.209-.027.208-.027.209-.027.208-.027.208-.027c.07-.008.139-.017.209-.026l.208-.027.208-.027.209-.027.208-.027.208-.027.208-.027c.07-.009.139-.018.208-.026l.208-.027.209-.027.208-.027.208-.027.208-.027.207-.027c.07-.008.139-.017.208-.026l.208-.027.208-.027.208-.027.208-.027c.069-.009.138-.017.207-.026l.208-.027.207-.027.208-.027.208-.027c.069-.008.138-.017.207-.026l.207-.027.208-.027.207-.027c.069-.008.138-.017.207-.026l.207-.027.208-.027c.069-.009.138-.018.207-.026l.207-.027.207-.027.207-.027c.069-.008.137-.017.206-.026l.207-.027.207-.027c.069-.009.138-.017.207-.026l.206-.027.207-.027c.069-.008.137-.017.206-.026l.207-.027.206-.027c.069-.008.137-.017.206-.026l.206-.027c.069-.009.138-.017.206-.026l.207-.027c.068-.009.137-.018.205-.026l.206-.027.206-.027c.069-.008.137-.017.206-.026l-.192-1.488-.206.027c-.068.009-.137.017-.206.026l-.205.027c-.069.009-.138.018-.206.026l-.206.027-.207.027c-.068.008-.137.017-.206.026l-.206.027c-.069.009-.138.018-.206.026l-.207.027-.206.027c-.069.009-.138.017-.207.026l-.206.027-.207.027c-.069.009-.138.017-.207.026l-.207.027-.206.027c-.069.009-.138.018-.207.026l-.207.027-.207.027-.207.027c-.069.008-.138.017-.208.026l-.207.027-.207.027-.207.027c-.069.008-.138.017-.208.026l-.207.027-.207.027-.208.027c-.069.009-.138.017-.207.026l-.208.027-.208.027-.207.027-.208.027c-.069.008-.139.017-.208.026l-.208.027-.208.027-.207.027-.208.027c-.07.009-.139.018-.208.026l-.208.027-.208.027-.209.027-.208.027-.208.027-.208.027c-.069.009-.139.017-.208.026l-.208.027-.209.027-.208.027-.208.027-.209.027-.208.027-.208.027c-.07.009-.139.018-.209.026l-.208.027-.209.027-.208.027-.209.027-.208.027-.209.027-.208.027-.209.027-.208.027-.209.027c-.07.009-.139.018-.209.026l-.208.027-.209.027-.209.027-.208.027-.209.027-.208.027-.209.027-.209.027-.208.027-.209.027-.209.027-.208.027c-.07.009-.14.017-.209.026l-.209.027-.208.027-.209.027-.209.027-.208.027-.209.027-.209.027-.208.027-.209.027-.208.027-.209.027-.209.027c-.069.008-.139.017-.208.026l-.209.027-.208.027-.209.027-.208.027-.209.027-.208.027-.209.027-.208.027-.208.027c-.07.008-.139.017-.209.026l-.208.027-.208.027-.209.027-.208.027-.208.027-.208.027-.209.027c-.069.008-.138.017-.208.026l-.208.027-.208.027-.208.027-.208.027-.208.027c-.069.009-.138.017-.208.026l-.208.027-.207.027-.208.027-.208.027c-.069.009-.139.018-.208.026l-.207.027-.208.027-.208.027-.207.027c-.069.009-.138.017-.208.026l-.207.027-.207.027-.208.027c-.069.009-.138.017-.207.026l-.207.027-.207.027-.208.027c-.069.009-.138.017-.207.026l-.207.027-.207.027c-.069.009-.137.018-.206.026l-.207.027-.207.027c-.069.009-.138.018-.207.026l-.206.027-.207.027c-.069.009-.138.018-.206.026l-.207.027-.206.027c-.069.009-.138.017-.207.026l-.206.027-.206.027c-.069.008-.137.017-.206.026l-.206.027c-.069.009-.137.017-.206.026l-.206.027c-.068.009-.137.018-.206.026l-.205.027c-.069.009-.137.018-.206.026l-.206.027-.205.027c-.069.008-.137.017-.205.026s-.137.018-.206.026l-.205.027c-.068.009-.137.018-.205.026l-.205.027c-.069.009-.137.018-.205.026l-.205.027c-.068.009-.137.017-.205.026l-.205.027c-.068.008-.136.017-.204.026s-.137.018-.205.026l-.204.027c-.068.009-.137.017-.205.026l-.204.027c-.068.008-.136.017-.204.026s-.136.017-.204.026l-.204.027c-.068.008-.136.017-.204.026s-.136.017-.204.026-.136.018-.204.026l-.203.027c-.068.008-.136.017-.204.026s-.135.017-.203.026-.136.018-.203.026l-.204.027c-.067.008-.135.017-.203.026s-.135.017-.203.026-.135.017-.202.026-.136.018-.203.026l-.203.027c-.067.008-.135.017-.202.026s-.135.017-.203.026-.135.017-.202.026-.135.017-.202.026-.135.017-.202.026-.135.017-.202.026-.135.017-.202.026-.135.018-.202.026-.134.018-.201.026-.135.018-.202.026-.134.018-.201.026-.135.017-.202.026-.134.017-.201.026-.134.017-.201.026-.134.017-.201.026-.133.017-.2.026-.134.017-.201.026-.134.017-.2.026-.134.017-.201.025-.133.018-.2.026-.134.018-.2.026-.134.017-.2.026-.133.017-.2.026-.133.017-.2.025-.133.018-.199.026-.133.017-.2.026-.133.017-.199.026-.133.017-.199.025-.133.018-.199.026-.133.017-.199.026-.133.017-.199.025-.132.017-.199.026-.132.017-.198.026-.132.017-.198.025-.132.017-.198.026-.133.017-.199.025-.131.017-.197.026-.132.017-.198.025-.132.017-.198.026-.131.017-.197.025-.132.017-.197.026-.132.017-.198.025-.131.017-.197.026-.131.017-.196.025-.132.017-.197.025-.131.017-.197.026-.131.017-.196.025-.131.017-.196.025-.131.017-.196.026-.131.017-.196.025-.131.017-.196.025-.13.017-.195.026-.131.016-.196.025-.13.017-.195.025-.13.017-.195.025-.13.017-.195.025-.13.017-.195.025-.13.017-.194.025-.13.017-.195.026-.129.016-.194.025-.13.016-.194.025-.129.016-.194.025-.129.016-.194.025-.129.016-.193.025-.129.016-.194.025-.129.016-.193.025l-.193.024c-.064.009-.129.017-.193.025s-.128.017-.193.025-.128.017-.192.025-.128.017-.192.025-.128.016-.192.025l-.192.024c-.064.009-.128.017-.192.025s-.128.017-.192.025-.127.016-.191.025l-.191.024c-.064.008-.128.017-.191.025s-.128.016-.191.025l-.191.024c-.063.008-.127.017-.19.025l-.191.024c-.063.008-.126.017-.19.025l-.189.024c-.064.008-.127.017-.19.025l-.19.024c-.063.008-.126.016-.189.025l-.189.024-.189.024c-.063.009-.126.017-.189.025l-.188.024-.188.024c-.063.008-.126.017-.188.025l-.188.024-.188.024-.188.024-.187.024c-.062.008-.125.017-.187.025l-.187.024-.186.024-.187.024-.186.024-.186.024-.186.024-.185.024-.186.024-.185.024c-.062.008-.123.015-.185.023l-.185.024-.184.024-.184.024-.184.024c-.062.008-.123.015-.184.023l-.184.024-.183.024c-.061.008-.122.015-.183.023l-.183.024c-.061.008-.122.016-.183.023l-.182.024-.183.024c-.06.007-.121.015-.182.023s-.121.016-.181.023l-.182.024c-.06.008-.121.016-.181.023l-.181.024c-.061.007-.121.015-.181.023s-.121.016-.181.023l-.18.024c-.06.007-.12.015-.18.023s-.12.015-.18.023-.12.015-.18.023-.119.016-.179.023-.12.016-.179.023l-.179.024c-.06.007-.119.015-.179.023s-.119.015-.178.023-.119.015-.179.023-.118.015-.178.023-.118.015-.177.023-.119.015-.178.022-.118.016-.177.023-.118.016-.177.023-.118.015-.176.023-.118.015-.177.023-.117.015-.176.022-.117.016-.176.023-.117.015-.176.023-.117.015-.175.022-.117.015-.175.023-.117.015-.175.023-.117.015-.175.022-.116.015-.174.023-.116.015-.174.022-.116.015-.174.022-.116.015-.174.023-.115.015-.173.022-.115.015-.173.023-.115.014-.173.022-.115.015-.172.022-.115.015-.172.022-.115.015-.172.023-.115.014-.172.022-.114.014-.171.022-.115.015-.172.022-.114.015-.171.022-.113.015-.17.022-.114.015-.17.022-.114.015-.17.022-.114.014-.17.022-.113.014-.17.022l-.169.021c-.056.008-.113.015-.169.022s-.112.015-.168.022-.113.015-.169.022l-.168.021c-.056.008-.112.015-.168.022s-.111.015-.167.022l-.167.021c-.056.007-.112.015-.167.022l-.167.021c-.055.007-.111.015-.166.022l-.166.021c-.056.007-.111.014-.166.022l-.166.021-.165.021c-.055.007-.11.014-.165.022l-.164.021-.164.021-.164.021-.164.021-.163.021-.164.021-.162.021-.163.021-.162.021-.162.021-.161.021-.162.021-.161.021c-.053.006-.107.013-.16.02l-.16.021-.16.021c-.054.006-.107.013-.16.02l-.16.021c-.053.007-.106.013-.159.02l-.158.021c-.053.007-.106.013-.159.02l-.158.021c-.053.006-.105.013-.158.02s-.105.014-.157.02l-.157.021c-.053.006-.105.013-.157.02s-.104.013-.157.02-.104.013-.156.02-.104.014-.156.02-.103.014-.155.02-.104.014-.155.02-.104.014-.155.02-.103.014-.155.02-.103.014-.154.02-.103.013-.154.02-.102.013-.153.02-.103.013-.154.02-.102.013-.153.019-.101.014-.152.02-.102.013-.152.02-.102.013-.152.019-.101.013-.152.02-.101.013-.151.019-.101.013-.151.02-.1.013-.15.019-.101.013-.151.02-.1.013-.149.019-.1.013-.15.019-.099.013-.149.02-.099.012-.149.019-.099.012-.148.019-.099.013-.148.019-.099.013-.148.019-.099.013-.148.019-.098.013-.147.019-.098.013-.146.019-.098.013-.147.019-.097.012-.146.019l-.145.018c-.049.007-.097.013-.146.019s-.096.013-.145.019-.096.012-.144.019l-.144.018c-.048.006-.096.013-.144.019l-.144.018c-.048.006-.095.013-.143.019l-.143.018c-.047.006-.095.012-.142.019l-.142.018-.142.018-.141.018c-.047.006-.094.013-.141.019l-.141.018-.14.018-.14.018-.139.018-.139.018-.139.018-.138.018c-.046.005-.092.011-.138.017l-.138.018-.137.018c-.046.006-.091.012-.137.017l-.136.018-.136.018c-.046.005-.091.011-.136.017l-.135.018c-.046.005-.09.011-.135.017s-.09.012-.135.017l-.134.018c-.045.005-.089.011-.134.017s-.089.011-.133.017-.089.012-.133.017-.089.012-.133.017-.088.012-.132.017-.088.012-.132.017-.088.012-.131.017-.088.012-.131.017-.087.012-.131.017-.087.011-.13.017-.087.011-.13.017-.086.011-.129.016-.087.012-.129.017-.086.011-.129.017-.086.011-.128.016-.086.011-.128.017-.085.011-.128.016-.084.011-.127.017-.084.01-.126.016-.085.011-.127.016-.083.011-.125.016-.084.011-.126.017-.083.01-.125.016-.083.01-.124.016-.083.011-.125.016-.082.011-.123.016-.083.01-.124.016-.082.01-.123.016l-.122.015c-.041.006-.082.011-.122.016s-.081.011-.122.016-.081.01-.121.016l-.121.015c-.04.005-.08.01-.121.016l-.12.015c-.039.005-.079.01-.119.016l-.119.015-.119.015c-.04.005-.079.01-.118.016l-.118.015-.118.015-.117.015-.116.015-.117.015-.115.015-.116.015-.115.015c-.038.005-.076.01-.114.014l-.114.015Z"/><path class="cls-9" d="M154.673,181.325a.75.75,0,1,0,.654,1.35Zm94.035-44.079a.7487.7487,0,0,0-.462-.954l-6.375-2.218a.75.75,0,1,0-.493,1.417l5.667,1.971-1.971,5.667a.75.75,0,0,0,1.417.493Zm-93.381,45.429c.038-.018.076-.037.114-.055s.076-.037.114-.055.077-.037.115-.056.077-.037.115-.056.077-.037.116-.056l.116-.056c.039-.019.078-.038.117-.056l.117-.057.117-.057c.04-.019.079-.038.118-.057l.119-.057.118-.058.12-.057c.039-.02.079-.039.119-.058s.08-.039.12-.058.08-.039.121-.059.08-.039.12-.058.081-.039.122-.059.081-.039.121-.059.082-.039.123-.059.081-.039.122-.059.082-.04.123-.059l.123-.06c.042-.02.083-.04.124-.06s.083-.04.124-.06.083-.04.125-.06.083-.041.125-.061.083-.04.125-.061l.126-.06c.042-.021.084-.041.126-.062s.085-.04.127-.061.085-.041.127-.061.085-.041.127-.062.086-.041.128-.062.086-.041.129-.062.085-.041.128-.062l.129-.063c.043-.02.086-.041.13-.062l.129-.063c.044-.021.087-.042.131-.063s.087-.042.13-.063.088-.042.131-.064l.132-.063c.044-.021.088-.043.132-.064s.088-.043.132-.064.088-.043.132-.064.089-.043.133-.065.089-.042.134-.064.089-.043.134-.065.089-.043.134-.065.089-.043.134-.065.09-.043.135-.065l.135-.066c.046-.021.091-.043.136-.065s.091-.044.136-.066.091-.044.137-.066.091-.044.137-.066.091-.044.137-.067.091-.044.137-.066.092-.045.138-.067.092-.045.139-.067.092-.045.138-.067.093-.045.139-.067.093-.045.14-.068.093-.045.14-.068.093-.045.14-.067.094-.046.141-.068.093-.046.14-.069.095-.045.142-.068.094-.046.141-.068.095-.046.143-.069.094-.046.142-.069.095-.046.143-.069.095-.046.143-.069.095-.047.143-.07.096-.046.144-.07l.144-.069c.049-.024.097-.047.145-.07s.097-.047.145-.07.097-.047.145-.071.097-.047.146-.07.097-.047.146-.071.097-.047.146-.071.098-.047.147-.071.098-.047.147-.071.098-.047.147-.071.099-.048.148-.072.099-.047.148-.071.099-.048.149-.072.099-.048.149-.072.099-.048.149-.072.099-.048.149-.073l.15-.072c.05-.024.1-.049.15-.073s.101-.048.151-.073.1-.048.151-.073.1-.048.151-.073.101-.049.151-.073.102-.049.152-.074.102-.049.152-.073.102-.049.153-.074.102-.049.153-.074.102-.049.153-.074.102-.05.154-.075.102-.049.154-.074.102-.05.154-.075.103-.049.154-.074.104-.05.155-.075.104-.05.155-.075.104-.051.156-.076l.156-.075c.052-.025.104-.05.156-.076s.104-.05.157-.075.104-.051.156-.076.105-.051.158-.076.104-.051.157-.077.105-.05.158-.076.105-.051.158-.076.105-.051.158-.077.106-.051.159-.077.106-.051.159-.077.106-.051.16-.077.106-.051.159-.077.107-.052.16-.078.107-.051.161-.077.107-.052.16-.078.107-.052.161-.078.108-.052.161-.078l.162-.078.162-.078c.054-.026.108-.053.162-.079l.162-.078c.055-.027.109-.053.163-.079s.109-.053.163-.079.109-.053.164-.079.109-.053.163-.079.11-.053.164-.08.11-.053.165-.079.109-.053.164-.08.11-.053.165-.08.11-.053.165-.079.11-.054.166-.081.11-.053.165-.08.111-.053.166-.08.111-.054.167-.081.111-.053.166-.08.112-.054.167-.081.112-.054.167-.081l.168-.081.168-.081.168-.081c.056-.028.112-.055.168-.082s.113-.054.169-.081.112-.055.169-.082.112-.055.169-.082.113-.055.169-.082.114-.055.17-.082.114-.055.17-.083.114-.054.171-.082.113-.055.17-.082.114-.056.171-.083.114-.055.171-.083.114-.055.172-.083.114-.055.171-.083.115-.055.172-.083.115-.056.172-.084.115-.055.173-.083.115-.056.173-.084.115-.055.173-.083.115-.056.173-.084l.174-.084c.058-.028.116-.056.173-.084s.117-.056.175-.085l.174-.084c.058-.028.116-.056.175-.084s.116-.057.174-.085.117-.056.176-.085.117-.056.175-.085.117-.056.176-.085.117-.056.176-.085.117-.057.176-.085.117-.057.176-.085.118-.057.177-.086.118-.057.177-.085.118-.058.177-.086.118-.057.177-.086.119-.057.178-.086.119-.057.178-.086.119-.058.178-.086.119-.058.179-.087.119-.057.178-.086.12-.058.179-.087.12-.057.179-.086l.18-.087c.06-.029.12-.058.179-.087l.18-.087c.06-.029.12-.058.181-.087s.12-.059.18-.088l.18-.087c.061-.029.121-.058.181-.088s.121-.058.181-.087.121-.059.182-.088.121-.058.181-.088.121-.058.182-.088.121-.058.182-.088.121-.059.182-.088.122-.059.183-.088.122-.059.182-.089.122-.059.183-.088.122-.059.184-.089.122-.059.183-.088.122-.06.183-.089.123-.06.184-.089.123-.06.184-.089.123-.06.185-.089.123-.06.184-.09.123-.059.185-.089.123-.06.185-.09.123-.059.185-.089.123-.06.185-.09l.186-.09.186-.09.186-.09.186-.09.186-.09c.062-.03.125-.06.187-.09s.124-.06.187-.091.124-.06.187-.09.125-.061.187-.091.125-.06.188-.09.125-.061.187-.091.126-.061.188-.091.126-.061.188-.091.126-.061.189-.091.125-.061.188-.092.126-.06.189-.091.126-.061.189-.091.126-.061.189-.092.126-.061.189-.091.126-.061.189-.092.127-.061.19-.092.127-.061.19-.092.127-.061.19-.092.127-.061.19-.092.127-.061.191-.092.127-.061.19-.092.128-.062.191-.092.128-.062.191-.093.128-.061.192-.092.127-.062.191-.093.128-.062.191-.093.128-.062.192-.092l.192-.093.192-.093c.064-.031.129-.062.193-.093l.192-.093c.064-.032.129-.063.193-.094s.128-.062.193-.093.128-.062.193-.093.128-.063.193-.094.129-.062.193-.093.129-.063.194-.094.129-.063.194-.094.129-.062.193-.094.13-.062.195-.094.129-.062.194-.094.129-.062.194-.094.13-.062.195-.094.13-.063.195-.094.129-.063.194-.094.13-.063.196-.095.13-.063.195-.094.13-.063.195-.095.131-.063.196-.094.13-.064.195-.095.131-.063.196-.095.131-.063.196-.095.131-.063.197-.095.131-.063.196-.095.131-.063.197-.095.131-.063.196-.095.131-.063.197-.095.131-.064.197-.096.131-.063.197-.095.132-.064.197-.095l.198-.096c.066-.032.132-.064.197-.096s.132-.063.198-.095l.198-.096.198-.096.198-.096c.066-.032.133-.064.199-.096l.198-.096c.066-.032.133-.064.199-.096l.198-.096c.067-.032.133-.064.199-.096s.133-.064.199-.097.133-.064.2-.096.132-.064.199-.096.133-.065.199-.097.133-.064.2-.096.133-.065.2-.097.133-.065.199-.097.134-.064.2-.097l.201-.096c.066-.033.133-.065.2-.097s.133-.065.2-.097.134-.065.201-.097.133-.065.2-.097.134-.065.201-.097.134-.065.201-.098.134-.064.201-.097.134-.065.201-.097.134-.065.201-.098.135-.065.202-.097.134-.065.201-.098.135-.065.202-.097.134-.065.202-.098.134-.065.201-.097.135-.065.202-.098.135-.065.202-.098.135-.065.203-.098.134-.065.202-.098.135-.065.202-.098.135-.065.203-.098.135-.065.202-.098.136-.065.203-.098.135-.065.203-.098.135-.065.203-.098.135-.066.203-.098.136-.066.203-.099.136-.065.204-.098.135-.066.203-.098.136-.066.203-.099.136-.066.204-.098l.204-.099.204-.099c.067-.032.135-.065.203-.098l.204-.099.204-.099c.069-.033.137-.065.205-.098l.204-.099.204-.099c.068-.033.137-.066.205-.099l.204-.099c.068-.033.137-.066.205-.099s.136-.066.205-.099l.204-.099c.069-.033.137-.066.205-.099s.137-.067.205-.1.137-.066.205-.099.137-.066.206-.099.136-.066.205-.099.137-.067.205-.1.137-.066.206-.099.137-.066.205-.1.137-.066.206-.099.137-.066.205-.1.137-.066.206-.099.137-.066.206-.1.137-.066.206-.099.137-.067.206-.1.137-.066.206-.1.137-.066.206-.099.137-.067.206-.1.137-.067.206-.1.138-.066.206-.1.138-.066.207-.1.137-.066.206-.099.138-.067.207-.1.137-.067.206-.1.138-.067.207-.1.138-.067.207-.1.137-.067.206-.1.138-.067.207-.1.138-.067.207-.101.138-.066.207-.1.138-.066.207-.1.138-.067.207-.1.138-.067.207-.1.138-.067.207-.1.139-.067.208-.101.138-.067.207-.1.138-.067.207-.1.138-.067.208-.101.138-.067.207-.1.138-.067.208-.1.138-.067.207-.101.138-.067.208-.1.138-.067.207-.101.139-.067.208-.1.138-.067.208-.101.138-.067.207-.1.139-.067.208-.101.139-.067.208-.1.139-.067.208-.101.138-.067.208-.101.138-.067.208-.1.138-.067.208-.101.138-.067.208-.101.138-.067.208-.1.139-.067.208-.101.139-.067.208-.101.139-.067.208-.1.139-.068.208-.101.139-.067.209-.101.139-.067.208-.101.139-.067.208-.1.139-.068.209-.101.138-.067.208-.101.139-.067.208-.101.139-.067.209-.101.139-.067.208-.1.139-.068.208-.101.139-.068.209-.101.139-.067.208-.101.139-.067.209-.101.139-.067.208-.101.139-.067.209-.101.139-.067.208-.101.139-.067.209-.101.139-.067.209-.101.139-.067.208-.1.139-.068.209-.101.139-.068.208-.101.139-.068.209-.101.139-.068.209-.101.139-.068.208-.101.139-.067.209-.101.139-.067.209-.101.139-.067.208-.101.139-.067.209-.101.139-.067.209-.101.139-.067.208-.101.139-.067.209-.101.139-.067.209-.101.139-.067.208-.101.139-.067.209-.101.139-.067.209-.101.139-.067.208-.101.139-.067.209-.101.139-.067.209-.101.139-.067.208-.101.139-.067.209-.101.139-.067.208-.101.139-.067.209-.1.139-.068.209-.101.139-.068.208-.101.139-.068.209-.101.139-.068.208-.101.139-.067.209-.101.139-.067.208-.101.139-.067.209-.101.139-.067.208-.101.139-.067.209-.101.139-.067.208-.101.139-.067.209-.1.139-.068.208-.101.139-.067.209-.101.139-.067.208-.101.139-.067.208-.101.139-.067.209-.101.139-.067.208-.1.139-.067.208-.101.139-.067.208-.101.139-.067.209-.101.138-.067.208-.1.139-.067.208-.101.139-.067.208-.101.139-.067.208-.1.139-.068.208-.101.139-.067.208-.101.139-.067.208-.1.139-.067.208-.101.139-.067.208-.101.139-.067.208-.1.138-.067.208-.101.138-.067.208-.1.138-.067.207-.101.139-.067.208-.1.138-.067.208-.101.138-.067.207-.1.139-.067.208-.101.138-.067.207-.1.139-.067.208-.1.138-.067.207-.101.138-.067.207-.1.139-.067.208-.1.138-.067.207-.101.138-.066.207-.1.138-.067.207-.1.138-.067.207-.1.138-.067.207-.1.138-.067.207-.101.138-.066.207-.1.138-.066.207-.1.138-.067.207-.1.138-.067.207-.1.137-.067.206-.1.138-.067.207-.1.138-.067.206-.1.138-.066.207-.1.137-.066.206-.1l.207-.099c.068-.034.137-.067.206-.1s.137-.067.206-.1.137-.066.206-.1.138-.066.206-.099.138-.067.206-.1.137-.067.206-.1.137-.066.206-.099.137-.067.206-.1l-.654-1.35c-.068.033-.137.066-.205.099s-.138.067-.206.1-.137.066-.206.1-.137.066-.206.099-.137.067-.206.1-.138.067-.206.1-.138.066-.206.1l-.207.099c-.069.034-.137.067-.206.1s-.138.067-.206.1-.138.067-.207.1-.138.067-.206.1-.138.067-.207.1-.138.067-.207.1-.138.067-.206.1-.138.067-.207.1-.138.067-.207.1-.138.067-.207.1-.138.067-.207.1-.138.067-.207.1-.138.067-.207.101-.138.066-.207.1-.138.067-.207.1-.139.067-.208.1-.138.067-.207.101-.138.067-.207.1-.139.067-.208.1-.138.067-.207.101-.138.067-.208.1-.138.067-.207.101-.139.067-.208.1-.138.067-.207.101-.139.067-.208.1-.139.067-.208.101-.138.067-.208.1-.138.067-.207.101-.139.067-.208.1-.139.067-.208.101-.139.067-.208.1-.139.067-.208.101-.139.067-.208.101-.139.067-.208.1-.139.067-.208.101-.139.067-.208.101-.139.067-.208.1-.139.068-.209.101-.138.067-.208.101-.139.067-.208.101-.139.067-.208.1-.139.068-.209.101-.139.067-.208.101-.139.067-.208.101-.139.067-.209.101-.139.067-.208.101-.139.067-.208.1-.139.068-.209.101-.139.067-.208.101-.139.067-.209.101-.139.067-.208.101-.139.067-.209.101-.139.067-.208.101-.139.067-.209.101-.139.067-.209.101-.139.067-.208.1-.139.068-.209.101-.139.068-.208.101-.139.068-.209.101-.139.068-.209.101-.139.067-.208.101-.139.067-.209.101-.139.067-.208.101-.14.067-.209.101-.139.067-.209.101-.139.067-.208.101-.14.067-.209.101-.139.067-.209.101-.139.067-.208.101-.14.067-.209.101-.139.067-.209.101-.139.067-.208.101-.14.067-.209.101-.139.067-.209.101-.139.067-.208.101-.14.067-.209.101-.139.067-.209.101-.139.067-.208.1-.139.068-.209.101-.139.068-.209.101-.139.068-.208.101-.139.068-.209.101-.139.068-.208.101-.139.067-.209.101-.139.067-.208.101-.139.067-.209.101-.139.067-.208.101-.139.067-.209.101-.139.067-.208.101-.139.067-.209.1-.139.068-.208.101-.139.067-.209.101-.139.067-.208.101-.139.067-.208.101-.139.067-.209.101-.139.067-.208.1-.139.068-.208.101-.139.067-.209.101-.138.067-.208.101-.139.067-.208.1-.139.068-.208.101-.139.067-.208.101-.139.067-.208.101-.139.067-.209.1-.138.067-.208.101-.138.067-.208.101-.138.067-.208.1-.138.067-.207.101-.139.067-.208.1-.139.067-.208.101-.139.067-.208.1-.138.067-.208.101-.138.067-.207.1-.139.067-.208.101-.139.067-.208.1-.138.067-.207.101-.139.067-.208.1-.138.067-.207.101-.139.067-.208.1-.138.067-.207.1-.138.067-.207.101-.139.067-.208.1-.138.067-.207.1-.138.067-.207.101-.138.066-.207.1-.138.067-.207.1-.138.067-.207.1-.138.067-.207.1-.138.067-.207.1-.138.067-.207.1-.138.067-.207.1-.138.067-.206.1-.138.067-.207.1-.138.067-.207.1-.137.067-.206.1-.138.067-.207.1-.137.067-.206.1-.137.067-.206.1-.138.066-.206.1l-.207.099c-.068.034-.137.067-.206.1s-.137.067-.206.1-.137.066-.206.099-.137.067-.206.1-.137.067-.205.1-.138.066-.206.099-.137.067-.206.1-.137.066-.205.099-.137.066-.206.1-.137.066-.205.099-.137.066-.205.099-.137.067-.206.1-.137.066-.205.099-.137.066-.205.099-.137.066-.205.099-.137.066-.205.1-.136.066-.205.099l-.204.099c-.069.033-.137.066-.205.099s-.136.066-.205.099l-.204.099c-.068.033-.136.066-.204.098s-.137.066-.205.099l-.204.099-.204.099-.204.099c-.068.032-.136.065-.204.098l-.204.099c-.068.033-.135.066-.203.098l-.204.099c-.068.033-.136.066-.203.098l-.204.099c-.068.033-.135.065-.203.098s-.135.066-.203.098-.136.066-.203.099-.136.065-.203.098-.135.065-.203.098-.135.065-.203.098-.135.066-.202.098-.136.066-.203.098-.135.066-.202.098-.135.065-.203.098-.135.065-.202.098-.135.065-.202.098-.135.065-.202.097-.135.066-.202.098-.134.065-.202.098-.134.065-.201.097-.135.065-.202.098-.134.065-.201.097-.134.065-.201.098-.134.064-.201.097-.134.065-.201.097-.134.065-.201.097-.134.065-.201.097-.134.065-.201.098-.133.064-.2.097-.134.064-.201.097-.133.064-.2.096-.133.065-.2.097-.133.065-.2.097-.133.064-.2.097-.133.064-.199.096-.133.065-.2.097-.133.064-.199.096-.133.065-.2.097-.133.064-.199.096-.133.064-.199.097-.133.064-.199.096-.132.064-.199.096l-.198.096c-.066.032-.133.064-.199.096l-.198.096-.198.096-.198.096-.198.096c-.066.031-.132.063-.198.095s-.132.064-.197.096-.132.064-.198.095-.131.064-.197.096-.132.063-.197.095-.132.064-.197.096-.132.063-.197.095-.131.063-.197.095-.131.063-.196.095-.131.063-.197.095-.131.063-.196.095-.131.063-.196.095-.131.063-.196.095-.13.063-.196.094-.13.063-.195.095-.13.063-.196.095-.13.063-.195.094-.13.063-.195.094-.13.063-.195.095-.13.063-.195.094-.129.063-.194.094-.13.063-.195.094-.129.063-.194.094-.129.063-.194.094-.129.063-.194.094-.129.062-.194.094-.129.062-.193.093-.129.063-.193.094-.129.062-.194.093-.128.063-.193.094-.128.062-.193.093l-.192.093c-.064.031-.129.062-.193.093l-.192.093-.192.093-.192.093-.192.093c-.064.031-.128.062-.191.093s-.128.062-.192.092-.127.062-.191.093-.127.062-.191.092-.127.062-.191.093-.127.061-.191.092-.127.061-.19.092-.127.061-.19.092-.127.061-.19.092-.127.061-.19.092-.127.061-.19.092-.126.061-.189.091-.127.062-.19.092-.126.061-.189.092-.126.061-.189.091-.125.061-.188.091-.126.061-.189.091-.125.061-.188.092-.126.06-.188.091-.125.06-.188.09-.125.061-.188.091-.125.061-.187.091-.125.06-.187.091-.125.06-.188.09-.124.06-.186.091-.125.06-.187.09l-.186.09c-.063.03-.125.06-.187.09l-.186.09c-.062.03-.124.06-.185.09l-.186.09c-.062.03-.124.06-.185.09s-.124.059-.186.089-.123.06-.184.09-.124.059-.185.089-.123.06-.185.089-.123.06-.184.089-.123.06-.184.09-.123.059-.184.088-.122.06-.183.089-.123.059-.184.089-.122.059-.183.089-.122.059-.183.088-.122.059-.183.089-.121.058-.182.088-.122.059-.182.088-.122.059-.182.088-.122.059-.182.088-.121.059-.182.088-.121.058-.181.088-.121.058-.181.087-.121.059-.181.088l-.18.087c-.061.029-.121.058-.181.087s-.12.059-.18.088l-.18.087-.18.087c-.059.028-.119.057-.179.086s-.119.058-.179.087-.119.058-.179.087-.119.057-.179.086-.119.058-.178.086-.119.058-.178.087-.119.057-.178.086-.119.057-.178.086-.118.057-.177.086-.119.057-.178.085-.118.057-.176.086-.118.057-.177.085-.118.057-.177.086-.117.057-.176.085-.117.057-.176.085-.117.057-.175.085-.117.057-.176.085-.117.057-.175.085-.117.056-.175.084-.116.057-.174.085-.117.056-.175.084l-.174.084c-.058.029-.116.057-.174.085s-.115.056-.173.084-.116.056-.174.083-.115.056-.173.084-.115.056-.172.084-.115.055-.173.083-.115.056-.172.084-.115.055-.172.083-.115.055-.172.083-.114.055-.171.083-.114.055-.171.083-.114.055-.171.082-.114.055-.171.083-.113.055-.17.082-.114.055-.17.083-.113.054-.17.082-.113.054-.169.082-.113.054-.17.082-.112.054-.169.081-.112.055-.168.082-.112.054-.169.081-.112.055-.168.082-.111.054-.167.081l-.168.081c-.056.027-.111.054-.167.081s-.111.054-.167.081-.111.053-.167.08-.111.054-.166.081-.111.053-.166.08-.111.054-.166.08-.11.054-.165.08-.11.054-.165.08-.11.053-.165.08-.11.053-.165.08-.109.053-.164.079-.109.053-.164.079-.109.053-.164.08-.109.052-.163.079-.109.052-.163.079-.109.052-.163.078-.108.053-.162.079-.109.052-.163.078-.108.053-.161.079l-.162.078c-.054.026-.108.052-.161.078s-.108.052-.161.078-.107.052-.161.078-.107.051-.16.077-.107.052-.16.078-.107.051-.16.077-.106.051-.159.077-.106.051-.159.077-.106.051-.159.077-.106.051-.158.076-.106.051-.159.077-.105.051-.157.076-.105.051-.158.076-.105.051-.157.076-.105.051-.157.076-.104.051-.156.076-.104.05-.156.076l-.156.075-.156.075c-.052.025-.103.05-.155.075s-.103.05-.155.075-.103.05-.155.075-.102.05-.154.075-.102.049-.154.074l-.153.075c-.051.024-.102.049-.153.074s-.102.049-.153.074-.102.049-.153.073-.101.05-.152.074-.101.049-.152.074-.101.049-.151.073-.101.049-.152.073-.1.049-.151.073-.1.049-.15.073-.1.048-.15.073l-.15.072-.15.072c-.049.025-.099.049-.149.073s-.099.048-.149.072-.099.048-.148.071-.099.048-.148.072-.099.048-.148.072-.098.047-.147.071-.098.047-.147.071-.098.047-.147.071-.098.047-.146.071-.098.047-.146.071-.098.047-.146.07-.097.047-.145.07-.097.047-.145.07-.097.047-.145.07-.096.047-.144.07-.096.047-.144.07-.096.046-.143.069-.096.046-.144.07-.095.046-.142.069-.095.046-.143.069-.095.045-.142.068-.094.046-.142.069-.094.045-.141.068-.094.046-.141.068-.094.046-.14.068-.094.046-.141.068-.093.045-.139.068-.093.045-.14.067-.093.045-.139.068-.093.044-.139.067-.092.044-.138.067-.092.044-.138.067l-.138.066c-.045.022-.091.044-.137.066s-.091.045-.137.067-.091.044-.136.066-.091.044-.136.066-.091.043-.136.065l-.135.066c-.045.021-.09.043-.135.065s-.09.043-.135.065-.089.043-.134.065-.089.043-.134.065-.089.043-.133.064-.089.043-.133.065-.088.042-.133.064-.088.042-.132.064-.088.042-.132.064-.087.042-.131.063-.087.042-.131.064-.087.042-.131.063-.087.042-.13.063-.086.042-.13.063-.086.041-.129.062l-.129.063c-.043.02-.086.041-.129.062s-.085.041-.128.062-.085.041-.128.062-.085.041-.127.061-.085.041-.127.062-.085.041-.127.061-.084.041-.126.061-.084.041-.126.061-.084.041-.125.061-.084.04-.125.06-.084.041-.125.061-.083.04-.124.06-.083.04-.124.06-.082.039-.123.059l-.123.06c-.041.02-.082.039-.123.059s-.081.039-.122.059-.081.039-.122.059-.081.039-.121.059-.081.039-.121.058-.08.039-.12.058-.08.039-.12.059l-.12.057c-.04.02-.079.039-.119.058s-.079.038-.119.058-.079.038-.118.057l-.118.057-.117.057c-.039.019-.079.037-.117.056l-.117.057c-.039.018-.078.037-.116.056l-.116.056c-.039.019-.077.037-.115.056s-.077.037-.115.055-.077.037-.115.056-.076.037-.114.055Z"/><path class="cls-9" d="M156.368,109.105a.75.75,0,1,0,.928,1.179Zm92.377-71.0157a.75.75,0,0,0-.656-.8338l-6.702-.8014a.75.75,0,1,0-.178,1.4894l5.958.7124-.713,5.9575a.75.75,0,0,0,1.49.1781ZM157.296,110.284c.037-.029.074-.059.111-.088s.075-.059.113-.088.075-.059.112-.089.076-.059.113-.089.076-.059.114-.089l.114-.09c.038-.029.076-.059.114-.089s.076-.061.115-.091.076-.06.115-.09l.115-.091c.039-.03.078-.061.116-.091s.078-.061.117-.092.078-.061.117-.092.078-.061.117-.092.078-.062.118-.092.078-.062.118-.093.079-.062.118-.093.079-.063.119-.094.079-.062.119-.094.08-.062.12-.094.08-.063.12-.094.08-.063.121-.095.08-.063.121-.095.08-.064.121-.096l.122-.095c.04-.032.081-.064.122-.096s.081-.065.122-.097l.123-.096c.041-.033.082-.065.124-.097s.082-.065.123-.098.083-.065.124-.097.083-.066.125-.098.083-.066.125-.099.083-.065.125-.098l.126-.099.126-.099.127-.1.126-.099c.043-.034.085-.067.128-.1s.085-.067.127-.101.086-.067.128-.101.086-.067.129-.101.086-.067.129-.101l.129-.102c.043-.033.086-.067.13-.101s.086-.069.13-.103.086-.068.13-.102.087-.069.131-.103.087-.069.131-.103l.131-.104c.044-.034.088-.069.132-.103s.088-.07.132-.104.089-.07.133-.105.089-.069.133-.104.089-.07.134-.105.089-.07.133-.105.09-.071.134-.106.09-.07.135-.106.09-.07.135-.106.09-.07.135-.106.09-.071.136-.107.09-.071.136-.107.09-.071.136-.107l.137-.107c.045-.036.091-.072.137-.108s.091-.072.137-.108.092-.072.138-.109l.138-.108.139-.109c.046-.037.092-.073.139-.109s.092-.073.139-.11.093-.073.139-.11.094-.073.14-.11.094-.073.141-.11.093-.074.14-.111l.141-.111c.048-.037.095-.074.142-.111s.094-.074.142-.111.094-.075.142-.112l.142-.112c.048-.037.095-.075.143-.112l.143-.113c.048-.037.096-.075.143-.113s.096-.075.144-.113.096-.075.144-.113.097-.076.145-.114.096-.076.145-.114.097-.076.145-.114.097-.076.146-.114l.145-.115c.049-.038.098-.077.147-.115s.097-.077.146-.115.098-.077.147-.116.098-.077.147-.116.099-.077.148-.116.098-.077.148-.116.099-.078.148-.116.099-.078.149-.117.099-.078.148-.117.1-.0785.15-.1177.099-.0784.149-.1176l.15-.1179.15-.1181c.05-.0394.101-.0789.151-.1184s.1-.079.151-.1186.1-.0792.151-.1189.101-.0794.151-.1191.102-.08.152-.1194.102-.08.152-.12l.153-.12.153-.12.153-.12.153-.1207c.051-.04.103-.0805.154-.1209s.103-.0807.154-.1211.103-.0809.154-.1214.103-.0811.155-.1217.103-.0812.155-.1219.103-.0813.155-.1221l.156-.1224.156-.1226.156-.1229c.052-.041.104-.082.157-.1231l.156-.1233c.053-.0412.105-.0824.158-.1236s.105-.0825.157-.1238.105-.0827.158-.1241.105-.0828.158-.1243.105-.083.158-.1245l.159-.1248.159-.125.159-.1253c.053-.0418.107-.0836.16-.1255s.106-.0837.16-.1257.106-.0839.16-.1259.107-.0841.16-.1262.107-.0842.161-.1264.107-.0844.161-.1266.108-.0846.161-.1269l.162-.1271.162-.1273.162-.1276c.054-.0426.108-.0852.163-.1278l.162-.128c.055-.0427.109-.0854.163-.1282s.109-.0856.164-.1285.109-.0857.163-.1287.11-.0859.164-.1289l.165-.1291c.054-.0431.109-.0862.164-.1293l.165-.13.165-.13.165-.13c.055-.0433.11-.0868.166-.13s.11-.0869.166-.13.11-.0871.166-.1307.111-.0872.166-.1309.111-.0873.167-.131.111-.0875.167-.1313.111-.0877.167-.1316l.168-.1317c.055-.0439.111-.0879.167-.1319l.168-.1322c.056-.044.113-.0882.169-.1323l.168-.1326c.056-.0442.113-.0885.169-.1328s.113-.0886.169-.1329.113-.0888.17-.1332.113-.0889.169-.1334.113-.0891.17-.1336.113-.0892.17-.1338l.171-.1341c.056-.0447.113-.0894.17-.1342l.171-.1344.171-.1346c.058-.0449.115-.09.172-.1348s.114-.09.172-.135.114-.09.172-.1353.114-.09.172-.1354.115-.09.172-.1356.115-.09.173-.1358.115-.0907.173-.136.115-.0908.173-.1362.116-.0909.173-.1364l.174-.1366.174-.1368.174-.137c.058-.0457.117-.0914.175-.1372l.174-.1373c.059-.0458.117-.0917.175-.1376s.117-.0918.175-.1377.117-.0919.176-.1379.117-.0921.176-.1382.117-.0921.175-.1383.118-.0923.176-.1385l.177-.1386c.059-.0463.118-.0926.176-.1389l.177-.139.177-.1393c.059-.0464.118-.0929.178-.1394l.177-.14c.059-.0465.119-.0931.178-.14s.118-.0933.178-.14.119-.0934.178-.14.119-.0935.178-.14.119-.0937.179-.1405.119-.0938.179-.1407.119-.0939.179-.1408.12-.094.179-.1411l.18-.1412.18-.1413.18-.1416.18-.1417.18-.1419c.06-.0473.121-.0946.181-.142s.12-.0948.181-.1422.12-.0949.181-.1424.121-.095.181-.1426.121-.0951.182-.1427.121-.0953.181-.1429.122-.0954.182-.1431.122-.0954.182-.1432l.183-.1434c.061-.0478.121-.0957.182-.1436l.183-.1437.183-.1439.183-.144c.061-.0481.122-.0961.184-.1442l.183-.1444c.061-.0481.123-.0963.184-.1445s.123-.0964.184-.1447.123-.0965.184-.1448.123-.0967.184-.145.123-.0968.185-.1452.123-.0968.185-.1453.123-.0969.185-.1454.123-.0971.185-.1457.124-.0971.185-.1457l.186-.146.186-.146.186-.1463.186-.1463.186-.1466c.062-.0488.124-.0977.187-.1466l.186-.1469c.063-.0489.125-.0979.187-.1469s.125-.0981.187-.1471.125-.0982.187-.1473.125-.0982.188-.1474.125-.0983.188-.1475.125-.0985.187-.1477.126-.0986.188-.1479l.189-.1479c.062-.0494.125-.0988.188-.1482s.126-.0988.188-.1482l.189-.1484.189-.1485.189-.1487.189-.1488c.063-.05.126-.0993.19-.149l.189-.149c.063-.05.127-.0995.19-.1492s.127-.1.19-.1494.127-.1.19-.15.127-.1.19-.15.127-.1.191-.15.127-.1.19-.15.127-.1.191-.15.127-.1.191-.15.127-.1.191-.15.127-.1.191-.15l.192-.1505c.063-.05.127-.1.191-.1506l.192-.1508.192-.1509.192-.151.192-.1511.192-.1513c.064-.05.129-.1009.193-.1514l.192-.1515c.065-.0505.129-.1011.193-.1516s.129-.1012.193-.1518.129-.1012.193-.1518.129-.1013.194-.152.129-.1014.193-.1521.129-.1014.194-.1522.129-.1015.193-.1523.129-.1016.194-.1525.129-.1016.194-.1525.129-.1018.194-.1527.13-.1018.194-.1527l.195-.1529c.065-.051.13-.102.194-.153l.195-.1531.195-.1533.195-.1533.195-.1534.195-.1536c.065-.0512.131-.1024.196-.1536l.195-.1538c.065-.0512.131-.1025.196-.1538s.13-.1027.196-.154.13-.1027.196-.154.13-.1028.196-.1542.13-.1028.196-.1543.131-.1029.196-.1543.131-.103.197-.1545.131-.103.196-.1546.131-.1031.197-.1546.131-.1032.197-.1548.131-.1032.196-.1549l.198-.1549c.065-.0517.131-.1034.197-.1551s.131-.1034.197-.1551.132-.1035.197-.1553l.198-.1553.198-.1554c.065-.0518.131-.1037.197-.1555l.198-.1556.198-.1557.198-.1558.198-.1559c.067-.0519.133-.1039.199-.1559l.198-.1561c.066-.052.133-.104.199-.1561l.198-.1562c.067-.0521.133-.1042.199-.1563s.133-.1043.199-.1564.133-.1043.199-.1565.133-.1043.199-.1565.133-.1044.199-.1566.133-.1045.199-.1568.133-.1045.2-.1568.133-.1045.199-.1568.133-.1046.2-.157.133-.1046.2-.157.133-.1047.199-.1571.134-.1048.2-.1572.134-.1048.2-.1572.134-.1049.2-.1573.134-.105.2-.1574l.201-.1575c.066-.0525.133-.105.2-.1576s.134-.105.2-.1576l.201-.1577.201-.1577c.066-.0526.133-.1052.2-.1578l.201-.1579.201-.158.201-.158.201-.1581.201-.1582.201-.1582.201-.1583c.068-.0528.135-.1055.202-.1583l.201-.1584c.067-.0529.135-.1057.202-.1585l.201-.1585c.068-.0529.135-.1058.202-.1586s.135-.1058.202-.1587.134-.1058.202-.1587.134-.1058.202-.1588l.201-.1588c.068-.0529.135-.1059.203-.1589s.134-.1059.202-.1589.134-.106.202-.159.135-.106.202-.159.135-.1061.202-.1591.135-.1061.203-.1592.135-.1061.202-.1592.135-.1061.203-.1592.135-.1062.202-.1593.135-.1062.203-.1593.135-.1063.203-.1594.135-.1063.202-.1595.135-.1063.203-.16.135-.1063.203-.16.135-.1064.203-.16.135-.1064.203-.16.135-.1064.203-.16.135-.1064.203-.16.135-.1065.203-.16.136-.1065.203-.16l.204-.16c.067-.0533.135-.1066.203-.16s.135-.1066.203-.16l.204-.16c.067-.0533.135-.1066.203-.16l.204-.16c.067-.0533.135-.1067.203-.16l.204-.16c.068-.0534.135-.1068.203-.16l.204-.16.204-.16c.068-.0534.135-.1068.203-.16l.204-.16.204-.16.204-.16.204-.16.204-.16.204-.16.204-.16.204-.16.204-.16.204-.16.204-.1606.204-.1605.204-.1606.204-.1606c.069-.0535.137-.107.205-.1606l.204-.1606.204-.1606c.068-.0536.136-.1071.205-.1607l.204-.1607.204-.1607c.068-.0535.136-.1071.205-.1607l.204-.1607.204-.1608c.069-.0535.137-.1071.205-.1607l.204-.1608c.068-.0536.137-.1072.205-.1608l.204-.1608c.068-.0535.136-.1071.205-.1608l.204-.1608c.068-.0536.136-.1072.205-.1608l.204-.1608c.068-.0536.136-.1072.205-.1608l.204-.1609c.068-.0536.137-.1072.205-.1608l.204-.1609c.068-.0536.137-.1072.205-.1608l.204-.1609c.069-.0536.137-.1072.205-.1608l.204-.1609c.069-.0536.137-.1073.205-.1609s.136-.1072.205-.1608l.204-.1609c.068-.0536.137-.1072.205-.1609l.204-.1608c.068-.0536.137-.1073.205-.1609l.204-.1608c.069-.0536.137-.1073.205-.1609l.204-.1608c.069-.0536.137-.1072.205-.1609l.204-.1608c.069-.0536.137-.1072.205-.1608l.204-.1608c.069-.0536.137-.1072.205-.1608l.204-.1608c.069-.0536.137-.1072.205-.1608l.204-.1608c.068-.0536.137-.1072.205-.1607l.204-.1608c.068-.0536.136-.1071.205-.1607l.204-.1607.204-.1607c.068-.0536.137-.1072.205-.1607l.204-.1607.204-.1606.204-.1607c.069-.0535.137-.1071.205-.1606l.204-.1606.204-.1606.204-.16.204-.1606c.068-.0535.137-.107.205-.16l.204-.16.204-.16.204-.16.204-.16.204-.16.204-.16c.067-.0534.135-.1069.203-.16l.204-.16.204-.16.204-.16.204-.16c.067-.0534.135-.1068.203-.16l.204-.16c.068-.0534.136-.1068.203-.16l.204-.16c.068-.0534.136-.1067.203-.16l.204-.16c.068-.0534.136-.1067.203-.16l.204-.16c.068-.0533.135-.1066.203-.16s.136-.1066.203-.16l.204-.16c.067-.0532.135-.1065.203-.16s.135-.1065.203-.16.135-.1064.203-.16.135-.1065.203-.16.135-.1064.203-.16.135-.1063.203-.1595.135-.1064.203-.16.135-.1063.202-.16.135-.1063.203-.1594.135-.1062.203-.1594.135-.1062.202-.1593.135-.1062.203-.1592.135-.1062.202-.1593.135-.1061.203-.1591.135-.1061.202-.1591.135-.1061.202-.1591.135-.106.202-.159.135-.106.203-.159.134-.1059.202-.1589.134-.1059.202-.1588.134-.1059.202-.1588l.201-.1587c.068-.0529.135-.1058.202-.1587s.135-.1058.202-.1586l-.927-1.1791c-.068.0529-.135.1057-.202.1586s-.135.1058-.202.1587-.134.1058-.202.1587-.134.1059-.202.1588-.134.1059-.202.1588-.134.106-.202.1589-.134.106-.202.159-.135.106-.202.159-.135.106-.202.1591-.135.106-.203.1591-.135.1061-.202.1592-.135.1061-.202.1592-.135.1061-.203.1592-.135.1062-.203.1594-.135.1062-.202.1593-.135.1063-.203.1594-.135.1063-.203.16-.135.1063-.203.1595-.135.1063-.202.16-.136.1064-.203.16-.136.1065-.203.16-.136.1064-.203.16l-.204.16c-.067.0532-.135.1065-.203.16s-.135.1066-.203.16-.135.1065-.203.16l-.204.16c-.067.0533-.135.1066-.203.16s-.135.1066-.203.16l-.204.16c-.068.0533-.135.1067-.203.16l-.204.16c-.068.0533-.136.1067-.203.16l-.204.16-.204.16c-.068.0534-.136.1068-.203.16l-.204.16-.204.16-.204.16-.204.16-.204.16-.204.16-.204.16-.204.16-.204.16-.204.16-.204.1606-.204.16-.204.16-.204.1606-.204.1606c-.069.0535-.137.1071-.205.1606l-.204.1607-.204.1606c-.068.0536-.136.1071-.205.1607l-.204.1607-.204.1607c-.068.0535-.137.1071-.205.1607l-.204.1607-.204.1608c-.069.0536-.137.1072-.205.1607l-.204.1608c-.068.0536-.137.1072-.205.1608l-.204.1608c-.068.0536-.137.1072-.205.1608l-.204.1608c-.068.0536-.137.1072-.205.1608l-.204.1609c-.068.0536-.137.1072-.205.1608l-.204.1608c-.069.0537-.137.1073-.205.1609l-.204.1608c-.069.0537-.137.1073-.205.1609s-.136.1072-.205.1609l-.204.1608c-.068.0536-.136.1073-.205.1609l-.204.1608c-.068.0537-.137.1073-.205.1609l-.204.1609c-.068.0536-.137.1072-.205.1608l-.204.1609c-.069.0536-.137.1072-.205.1608l-.204.1609c-.069.0536-.137.1072-.205.1608s-.136.1073-.205.1609l-.204.1608c-.068.0536-.136.1072-.205.1608l-.204.1609c-.068.0536-.136.1072-.205.1608l-.204.1608c-.068.0536-.136.1072-.205.1608l-.204.1607-.204.1608c-.069.0536-.137.1072-.205.1608l-.204.1607c-.068.0536-.136.1072-.205.1607l-.204.1607-.204.1607c-.068.0536-.137.1072-.205.1607l-.204.1607-.204.1606c-.068.0536-.136.1071-.205.1607l-.204.1606-.204.1605-.204.1606-.204.1606-.204.16-.204.16c-.069.0535-.137.107-.205.16l-.204.16-.204.16-.204.16c-.068.0535-.136.1069-.203.16l-.204.16-.204.16-.204.16-.204.16-.204.16c-.068.0534-.135.1068-.203.16l-.204.16-.204.16c-.067.0534-.135.1067-.203.16l-.204.16c-.068.0534-.135.1067-.203.16l-.204.16c-.067.0534-.135.1067-.203.16s-.136.1066-.203.16l-.204.16c-.067.0533-.135.1065-.203.16s-.135.1065-.203.16-.136.1065-.203.16-.136.1065-.203.16-.136.1065-.203.16-.136.1064-.203.16-.136.1064-.203.16-.136.1064-.203.16-.135.1064-.203.1595-.135.1063-.203.16-.135.1062-.202.1594-.135.1062-.203.1593-.135.1062-.203.1593-.135.1062-.202.1593-.135.1061-.203.1592-.134.1061-.202.1591-.135.1061-.202.1591-.135.106-.202.159-.135.106-.203.159-.134.106-.202.1589-.134.106-.202.1589-.134.1059-.202.1588-.134.1059-.202.1588l-.201.1587c-.068.0529-.135.1058-.202.1587s-.135.1057-.202.1586l-.201.1585c-.068.0528-.135.1057-.202.1585l-.201.1584c-.068.0528-.135.1056-.202.1583l-.201.1583-.201.1582-.201.1582-.201.1581-.201.158-.201.158-.201.1579-.201.1578c-.067.0526-.133.1052-.2.1577l-.201.1577c-.067.0526-.133.1051-.2.1576l-.201.1576c-.066.0525-.133.105-.2.1575s-.133.1049-.2.1574-.133.1049-.2.1573-.133.1048-.2.1572-.133.1048-.2.1572-.133.1048-.2.1571-.133.1047-.199.157-.133.1047-.2.157-.133.1046-.199.1569-.133.1045-.2.1568-.133.1044-.199.1567-.133.1044-.199.1566-.133.1044-.199.1565-.133.1044-.199.1565-.133.1043-.199.1564-.133.1042-.199.1563l-.198.1562c-.067.0521-.133.1041-.199.1561l-.198.1561c-.067.052-.133.104-.199.1559l-.198.1559-.198.1558-.198.1557-.198.1556-.198.1555c-.066.0518-.131.1036-.197.1554l-.198.1554c-.066.0517-.131.1035-.197.1552l-.198.1551c-.065.0517-.131.1034-.197.1551s-.131.1033-.197.1549-.131.1033-.197.1549-.131.1032-.196.1548-.132.1031-.197.1546-.131.1031-.197.1546-.131.103-.196.1545-.131.1029-.196.1543-.131.1029-.197.1543-.13.1028-.196.1542-.13.1027-.196.154l-.195.154c-.066.0513-.131.1026-.196.1538s-.13.1026-.196.1538l-.195.1536-.195.1536-.195.1534-.195.1533-.195.1533-.195.1531c-.065.051-.129.102-.194.153l-.195.1529c-.065.0509-.129.1018-.194.1527s-.129.1018-.194.1527-.129.1017-.194.1526-.129.1016-.194.1524-.129.1016-.194.1523-.129.1015-.193.1522-.129.1014-.194.1521-.129.1014-.193.152-.129.1013-.193.1519-.129.1011-.193.1517-.129.1011-.193.1516l-.192.1515c-.065.05-.129.101-.193.1514l-.192.1513-.192.1511c-.064.05-.129.1007-.192.151l-.192.1509-.192.1508-.192.1506c-.063.05-.127.1-.191.15s-.128.1-.191.15-.128.1-.191.15-.128.1-.191.15-.127.1-.191.15-.127.1-.191.15-.127.1-.19.15-.127.1-.19.15-.127.1-.19.15-.127.1-.19.1494-.127.1-.19.1492-.126.0994-.19.1491l-.189.1489-.189.1488-.189.1487-.189.1485-.189.1484c-.063.0494-.126.0989-.188.1483l-.189.1481c-.062.0493-.125.0986-.188.1479s-.125.0986-.188.1479-.125.0985-.188.1477-.125.0984-.187.1475-.125.0983-.188.1474-.125.0982-.187.1473-.125.0981-.187.1471-.125.098-.187.147-.124.0979-.187.1468l-.186.1467-.186.1465c-.063.0488-.125.0976-.187.1464l-.186.1462c-.062.0487-.123.0974-.185.1461l-.186.1459c-.062.0486-.123.0972-.185.1457s-.124.0971-.185.1457-.124.097-.185.1454-.124.0969-.185.1453-.123.0968-.185.1452-.123.0967-.184.145-.123.0966-.184.1448-.123.0965-.184.1447-.123.0964-.184.1445-.123.0963-.184.1444l-.183.1442-.183.144-.183.1439-.183.1437c-.061.0479-.122.0958-.182.1436l-.183.1434c-.061.0478-.121.0955-.182.1432s-.121.0954-.182.1431-.121.0953-.182.1429-.121.0952-.181.1427-.121.0951-.181.1426-.121.0949-.181.1424-.121.0948-.181.1422-.121.0947-.181.1421l-.18.1418c-.06.0473-.121.0945-.181.1418l-.18.1415c-.06.0471-.119.0943-.179.1414l-.18.1411c-.06.0471-.119.0941-.179.1411s-.12.0939-.179.1408-.12.0938-.179.1407-.119.0937-.179.14-.119.0935-.178.14-.119.0934-.178.14-.119.0933-.178.14-.119.0932-.178.14-.119.0931-.178.14l-.177.1394-.177.1393-.177.139c-.059.0463-.118.0926-.176.1389l-.177.1387c-.058.0461-.117.0923-.176.1384s-.117.0923-.176.1383-.117.0922-.175.1382-.117.092-.176.1379-.117.0919-.175.1377-.117.0918-.175.1376l-.174.1374c-.059.0457-.117.0914-.175.1371l-.174.137-.174.1368-.174.1366c-.058.0455-.115.0909-.173.1364s-.116.0908-.173.1362-.116.0907-.173.136-.116.0906-.173.1358-.115.09-.173.1356-.114.09-.172.1354-.114.09-.172.1353l-.171.135c-.058.045-.115.09-.172.1348l-.171.1346-.171.1344-.171.1343c-.056.0447-.113.0893-.17.134s-.113.0892-.17.1338-.113.0891-.17.1336-.113.0889-.17.1334-.113.0888-.169.1332-.113.0887-.169.1329-.113.0886-.169.1328-.112.0884-.169.1326l-.168.1323-.168.1322-.168.1319c-.056.044-.111.0879-.167.1318s-.112.0877-.167.1315-.112.0875-.167.1313-.112.0874-.167.1311-.111.0872-.167.1308-.11.0872-.166.1307-.11.087-.166.13l-.165.13-.165.13-.165.13-.165.13-.165.1293c-.054.0431-.109.0862-.164.1292s-.109.0859-.164.1289-.109.0858-.163.1286-.109.0857-.164.1285-.109.0855-.163.1282-.108.0854-.163.128l-.162.1278-.162.1276-.162.1273-.162.1271c-.054.0423-.107.0846-.161.1269s-.108.0844-.161.1266-.107.0843-.161.1264-.107.0842-.16.1262-.107.084-.161.1259l-.159.1258c-.054.0418-.107.0837-.16.1254l-.159.1253-.159.125-.159.1248c-.053.0415-.106.083-.158.1245s-.106.0829-.158.1243-.106.0828-.158.1241-.105.0826-.158.1238-.104.0824-.157.1236-.104.0823-.157.1233l-.156.1232-.156.1228-.156.1226-.156.1224c-.052.0408-.104.0815-.155.1221s-.104.0813-.155.1219-.103.0812-.155.1217-.103.0809-.154.1214-.103.0808-.154.1211-.103.0807-.154.1209l-.153.1207c-.052.04-.103.08-.154.12s-.102.08-.152.12l-.153.12c-.051.04-.101.08-.152.12s-.101.08-.152.1194-.101.0794-.151.1191-.101.0793-.152.1189l-.15.1186c-.051.04-.101.079-.151.1184l-.15.1181-.15.1179-.15.1176c-.049.0392-.099.0783-.149.1174s-.099.0781-.149.117-.099.078-.148.1169-.099.0777-.148.1165-.099.0776-.148.1163-.099.0774-.148.1161l-.147.1158-.147.1155-.147.1152c-.048.0384-.097.0767-.146.115s-.097.0761-.146.1151-.097.076-.145.114-.097.076-.145.114-.097.076-.145.114-.097.076-.145.114-.096.075-.144.113-.096.076-.144.113-.095.076-.143.113-.096.075-.143.113-.096.075-.143.112-.095.075-.143.112-.094.074-.142.112l-.141.111c-.048.037-.095.074-.142.111l-.141.111c-.047.037-.094.074-.14.111s-.094.073-.141.11-.093.074-.14.11-.093.073-.139.11l-.14.11c-.046.036-.092.072-.138.109s-.093.072-.139.109l-.138.108c-.046.037-.092.073-.138.109s-.092.072-.137.108l-.138.108c-.045.035-.091.071-.136.107s-.091.072-.137.107-.09.072-.136.107-.09.071-.135.107-.09.071-.135.106-.09.071-.135.106-.09.071-.135.106-.089.071-.134.106-.089.07-.134.105-.089.07-.133.105-.089.069-.133.104-.089.07-.133.105-.088.069-.132.104-.088.069-.132.103-.088.069-.131.104-.088.069-.132.103-.087.068-.13.103-.087.068-.131.102-.086.068-.13.102l-.129.102c-.043.034-.086.068-.13.102s-.085.068-.128.101-.086.068-.129.101-.085.068-.128.101-.085.067-.128.1-.084.067-.127.101-.084.066-.127.099-.084.067-.126.1l-.126.099-.126.099-.125.098c-.042.033-.084.066-.125.099s-.083.065-.125.098l-.124.097c-.041.033-.083.065-.124.097s-.082.065-.123.097-.082.065-.123.097-.082.064-.123.097-.081.064-.122.096-.081.063-.121.095-.081.064-.122.096-.08.063-.121.095-.08.063-.12.095-.08.063-.12.094-.08.063-.12.094-.08.063-.119.094-.08.062-.119.093-.079.063-.119.094-.078.062-.118.092l-.117.093c-.039.031-.079.062-.118.092l-.116.092c-.039.031-.078.061-.117.092s-.077.06-.116.091-.077.06-.115.091-.077.06-.116.09-.076.06-.114.091-.077.059-.115.089-.076.06-.113.09-.076.06-.114.089-.075.06-.113.089l-.113.089c-.037.029-.074.059-.112.088s-.074.059-.112.088Z"/><path class="cls-7" d="M286,48.1784A10.1786,10.1786,0,1,0,275.822,38,10.1786,10.1786,0,0,0,286,48.1784Z"/><g class="cls-10"><path class="cls-7" d="M280.643,41.6332a1.8572,1.8572,0,1,0-1.875-1.8571A1.8664,1.8664,0,0,0,280.643,41.6332Z"/><path class="cls-7" d="M283.321,43.7549a3.0241,3.0241,0,0,0-1.116-1.1633,3.0612,3.0612,0,0,0-3.124,0,3.02,3.02,0,0,0-1.117,1.1633"/><path class="cls-7" d="M291.357,41.6332a1.8572,1.8572,0,1,0-1.875-1.8571A1.8664,1.8664,0,0,0,291.357,41.6332Z"/><path class="cls-7" d="M294.036,43.7549a3.02,3.02,0,0,0-1.117-1.1633,3.0612,3.0612,0,0,0-3.124,0,3.02,3.02,0,0,0-1.117,1.1633"/><path class="cls-7" d="M286.178,34.558a1.8572,1.8572,0,1,0-1.875-1.8571A1.8658,1.8658,0,0,0,286.178,34.558Z"/><path class="cls-7" d="M288.857,36.6807a3.0188,3.0188,0,0,0-1.117-1.1633,3.0594,3.0594,0,0,0-3.123,0,3.0188,3.0188,0,0,0-1.117,1.1633"/></g><circle cx="277.5" cy="131.5" r="1.5"/><circle cx="281.5" cy="131.5" r="1.5"/><circle cx="281.5" cy="136.5" r="1.5"/><circle cx="281.5" cy="141.5" r="1.5"/><circle cx="281.5" cy="146.5" r="1.5"/><circle cx="289.5" cy="131.5" r="1.5"/><circle cx="289.5" cy="136.5" r="1.5"/><circle cx="289.5" cy="141.5" r="1.5"/><circle cx="289.5" cy="146.5" r="1.5"/><circle cx="277.5" cy="136.5" r="1.5"/><circle cx="277.5" cy="141.5" r="1.5"/><circle cx="277.5" cy="146.5" r="1.5"/><circle cx="285.5" cy="131.5" r="1.5"/><circle cx="285.5" cy="136.5" r="1.5"/><circle cx="285.5" cy="141.5" r="1.5"/><circle cx="285.5" cy="146.5" r="1.5"/><circle cx="293.5" cy="131.5" r="1.5"/><circle cx="293.5" cy="136.5" r="1.5"/><circle cx="293.5" cy="141.5" r="1.5"/><circle cx="293.5" cy="146.5" r="1.5"/><circle cx="21.5" cy="178.5" r="1.5"/><circle cx="21.5" cy="187.5" r="1.5"/><circle cx="31.5" cy="178.5" r="1.5"/><circle cx="31.5" cy="187.5" r="1.5"/></svg>