<?xml version="1.0" encoding="utf-8"?>
<!-- Generator: Adobe Illustrator 24.2.1, SVG Export Plug-In . SVG Version: 6.00 Build 0)  -->
<svg version="1.0" id="Layer_1" xmlns="http://www.w3.org/2000/svg" xmlns:xlink="http://www.w3.org/1999/xlink" x="0px" y="0px"
	 viewBox="0 0 326 208" style="enable-background:new 0 0 326 208;" xml:space="preserve">
<style type="text/css">
	.st0{fill:url(#SVGID_1_);}
	.st1{fill:#FBC55A;}
	.st2{fill:none;stroke:#FDE8BE;stroke-width:3;stroke-linecap:round;stroke-linejoin:round;}
	.st3{fill:none;stroke:#ECA313;stroke-width:3;stroke-linecap:round;stroke-linejoin:round;}
	.st4{fill:#FBC55A;stroke:#FBC55A;stroke-width:3;}
	.st5{fill:none;stroke:#FBC55A;stroke-width:3;stroke-linecap:round;}
	.st6{fill:none;stroke:#FB9D5A;stroke-width:3;stroke-linecap:round;}
	.st7{fill:#FBC55A;stroke:#FDE8BE;stroke-width:3;}
	.st8{fill:none;stroke:#CE64CE;stroke-width:3;stroke-linecap:round;stroke-linejoin:round;}
	.st9{fill:#EF5B3E;}
	.st10{fill:none;stroke:#FFFFFF;stroke-width:3;stroke-linecap:round;stroke-linejoin:round;}
	.st11{fill:#FFFFFF;}
</style>
<linearGradient id="SVGID_1_" gradientUnits="userSpaceOnUse" x1="448.9196" y1="-31.4394" x2="372.8568" y2="-197.3945" gradientTransform="matrix(1 0 0 -1 -233 8)">
	<stop  offset="6.080970e-02" style="stop-color:#FFC34B"/>
	<stop  offset="1" style="stop-color:#FDE8BE;stop-opacity:0"/>
</linearGradient>
<circle class="st0" cx="176.5" cy="125.4" r="81"/>
<circle class="st1" cx="161.7" cy="113.5" r="81"/>
<path class="st2" d="M161.2,195.1c16,0,31.7-4.8,45-13.7c13.3-8.9,23.7-21.6,29.8-36.4s7.7-31.1,4.6-46.8
	c-3.1-15.7-10.8-30.2-22.2-41.5S192.7,37.7,177,34.6c-15.7-3.1-32-1.5-46.8,4.6c-14.8,6.1-27.5,16.5-36.4,29.8
	c-8.9,13.3-13.7,29-13.7,45c0,21.5,8.5,42.1,23.7,57.3C119.1,186.5,139.7,195.1,161.2,195.1L161.2,195.1z"/>
<path class="st2" d="M141.7,192.7c-10.9-16.1-18.3-45.2-18.3-78.7c0-33.4,7.2-62.6,18.3-78.7"/>
<path class="st2" d="M80.2,114h162.1"/>
<path class="st2" d="M92.6,157.3h136.9"/>
<path class="st2" d="M92.6,70.8h136.9"/>
<path class="st2" d="M180.7,35.4C191.7,51.4,199,80.7,199,114c0,33.4-7.2,62.6-18.3,78.7"/>
<path class="st3" d="M161.2,195.1c16,0,31.7-4.8,45-13.7c13.3-8.9,23.7-21.6,29.8-36.4s7.7-31.1,4.6-46.8
	c-3.1-15.7-10.8-30.2-22.2-41.5S192.7,37.7,177,34.6c-15.7-3.1-32-1.5-46.8,4.6c-14.8,6.1-27.5,16.5-36.4,29.8
	c-8.9,13.3-13.7,29-13.7,45c0,21.5,8.5,42.1,23.7,57.3C119.1,186.5,139.7,195.1,161.2,195.1L161.2,195.1z"/>
<path class="st3" d="M141.7,192.7c-10.9-16.1-18.3-45.2-18.3-78.7c0-33.4,7.2-62.6,18.3-78.7"/>
<path class="st3" d="M80.2,114h162.1"/>
<path class="st3" d="M92.6,157.3h136.9"/>
<path class="st3" d="M92.6,70.8h136.9"/>
<path class="st3" d="M180.7,35.4C191.7,51.4,199,80.7,199,114c0,33.4-7.2,62.6-18.3,78.7"/>
<circle class="st4" cx="261.5" cy="80" r="1.5"/>
<line class="st5" x1="22.9" y1="97.2" x2="66.4" y2="97.2"/>
<line class="st6" x1="261" y1="155.5" x2="304.4" y2="155.5"/>
<line class="st6" x1="278.8" y1="167.4" x2="322.2" y2="167.4"/>
<line class="st5" x1="3.2" y1="109.1" x2="46.6" y2="109.1"/>
<line class="st5" x1="30.8" y1="120.9" x2="54.5" y2="120.9"/>
<circle class="st7" cx="62.9" cy="38.5" r="1.5"/>
<path class="st8" d="M242.7,197.4h11.7"/>
<path class="st8" d="M248.5,191.6v11.7"/>
<circle class="st9" cx="80.7" cy="45.4" r="44.5"/>
<path class="st10" d="M79.5,67.2c3.8,0,7.4-1.1,10.6-3.2c3.1-2.1,5.6-5,7-8.4c1.4-3.4,1.8-7.2,1.1-10.9c-0.7-3.6-2.5-7-5.2-9.6
	c-2.7-2.6-6-4.4-9.7-5.1c-3.7-0.7-7.5-0.4-11,1.1c-3.5,1.4-6.4,3.8-8.5,6.9c-2.1,3.1-3.2,6.7-3.2,10.5c0,5,2,9.8,5.6,13.3
	C69.6,65.2,74.5,67.2,79.5,67.2z"/>
<path class="st10" d="M92.2,34.3l4-3.9"/>
<path class="st10" d="M95.3,29.6l1.6,1.6"/>
<path class="st10" d="M79.5,29.6v-9.4"/>
<path class="st10" d="M84.2,20.2h-9.5"/>
<path class="st10" d="M79.5,50l-7.9-8.7"/>
<path class="st11" d="M190.1,61.5c-0.2-0.4-0.5-0.7-0.9-0.9c-0.4-0.2-0.8-0.3-1.2-0.3h-27.2c-0.4,0-0.9,0.1-1.2,0.3
	c-0.4,0.2-0.7,0.6-0.9,1l-18,36.5c-0.2,0.4-0.2,0.7-0.2,1.1c0,0.4,0.1,0.8,0.4,1.1c0.2,0.3,0.5,0.6,0.9,0.8c0.3,0.2,0.7,0.3,1.1,0.3
	h9.3l-15.4,28.5c-0.3,0.5-0.4,1.2-0.2,1.8c0.2,0.6,0.6,1.1,1.1,1.4c0.3,0.2,0.7,0.3,1.1,0.3h7.3l-13.8,30.3
	c-0.2,0.5-0.3,1.1-0.1,1.6c0.2,0.5,0.5,1,0.9,1.3c0.5,0.3,1,0.4,1.5,0.4c0.5,0,1.1-0.3,1.4-0.7l40.2-40.2c0.3-0.3,0.5-0.7,0.6-1.2
	c0.1-0.4,0-0.9-0.1-1.3c-0.2-0.4-0.5-0.8-0.9-1s-0.8-0.4-1.3-0.4h-10.1l19.8-26c0.4-0.5,0.5-1.1,0.5-1.7c-0.1-0.6-0.4-1.2-0.9-1.5
	c-0.4-0.3-0.9-0.5-1.4-0.5h-13.9l21.4-28.4c0.3-0.3,0.4-0.8,0.5-1.2C190.4,62.3,190.3,61.9,190.1,61.5z"/>
</svg>
