<?xml version="1.0" encoding="utf-8"?>
<!-- Generator: Adobe Illustrator 24.2.1, SVG Export Plug-In . SVG Version: 6.00 Build 0)  -->
<svg version="1.0" id="Layer_1" xmlns="http://www.w3.org/2000/svg" xmlns:xlink="http://www.w3.org/1999/xlink" x="0px" y="0px"
	 viewBox="0 0 412 284" style="enable-background:new 0 0 412 284;" xml:space="preserve">
<style type="text/css">
	.st0{fill:url(#SVGID_1_);}
	.st1{fill:#F4F4F6;}
	.st2{fill:#DA4E31;}
	.st3{clip-path:url(#SVGID_3_);}
	.st4{fill-rule:evenodd;clip-rule:evenodd;fill:url(#SVGID_4_);}
	.st5{fill:#A41E11;}
	.st6{fill:#D82C20;}
	.st7{fill:#FFFFFF;}
	.st8{fill:#7A0C00;}
	.st9{fill:#AD2115;}
	.st10{fill-rule:evenodd;clip-rule:evenodd;fill:#00678C;}
	.st11{fill-rule:evenodd;clip-rule:evenodd;fill:#CE8B2C;}
	.st12{fill:url(#SVGID_5_);}
	.st13{fill:url(#SVGID_6_);}
	.st14{fill:url(#SVGID_7_);}
	.st15{fill:url(#SVGID_8_);}
	.st16{opacity:0.1;enable-background:new    ;}
	.st17{opacity:0.3;fill:#FFFFFF;enable-background:new    ;}
	.st18{fill:#336791;}
	.st19{fill:#326DE6;}
	.st20{fill:#EF5B3E;}
	.st21{fill:none;stroke:#FFFFFF;stroke-width:3;stroke-linecap:round;stroke-linejoin:round;}
	.st22{fill:#BE55BE;}
	.st23{fill:none;stroke:#FB9D5A;stroke-width:3;stroke-linecap:round;stroke-dasharray:1,8;}
	.st24{fill:none;stroke:#CE64CE;stroke-width:3;stroke-linecap:round;stroke-linejoin:round;}
	.st25{fill:none;stroke:#FBC55A;stroke-width:3;stroke-linecap:round;stroke-linejoin:round;}
	.st26{fill:#FBC55A;stroke:#FDE8BE;stroke-width:3;}
	.st27{fill:#FBC55A;stroke:#FBC55A;stroke-width:3;}
</style>
<linearGradient id="SVGID_1_" gradientUnits="userSpaceOnUse" x1="421.1072" y1="129.0588" x2="372.5093" y2="-41.5287" gradientTransform="matrix(1 0 0 -1 -190 122)">
	<stop  offset="0" style="stop-color:#FFC34B"/>
	<stop  offset="1" style="stop-color:#FDE8BE;stop-opacity:0"/>
</linearGradient>
<circle class="st0" cx="205.2" cy="83.8" r="81.3"/>
<path class="st1" d="M109.2,50.5L109.2,50.5c20,0,36.3,16.2,36.3,36.3l0,0c0,20-16.2,36.3-36.3,36.3l0,0c-20,0-36.3-16.2-36.3-36.3
	l0,0C72.9,66.8,89.2,50.5,109.2,50.5z"/>
<path class="st2" d="M108.7,67.2c-10.8,0-19.6,8.8-19.6,19.6s8.8,19.6,19.6,19.6c10.8,0,19.6-8.8,19.6-19.6S119.5,67.2,108.7,67.2z
	 M108.7,103.9c-3.1,0-5.6-2.1-5.6-4.6h11.2C114.3,101.8,111.8,103.9,108.7,103.9z M117.9,97.7H99.5v-3.3h18.4L117.9,97.7L117.9,97.7
	z M117.9,92.7H99.6l-0.2-0.2c-1.9-2.3-2.3-3.5-2.8-4.7c0,0,2.3,0.5,3.9,0.8c0.7,0.2,1.4,0.3,2.1,0.4c-1.2-1.4-1.9-3.1-1.9-4.9
	c0-3.9,3-7.4,1.9-10.1c1.1,0.1,2.2,2.2,2.3,5.6c1.1-1.6,1.6-4.4,1.6-6.1c0-1.8,1.2-3.9,2.4-4c-1.1,1.7,0.3,3.2,1.5,7
	c0.4,1.4,0.4,3.7,0.7,5.2c0.1-3.1,0.6-7.6,2.6-9.2c-0.9,2,0.1,4.4,0.8,5.6c1.1,1.9,1.8,3.3,1.8,6.1c0,1.8-0.7,3.5-1.8,4.9
	c1.3-0.2,2.2-0.5,2.2-0.5l4.2-0.8C120.8,87.8,120.2,90.3,117.9,92.7L117.9,92.7z"/>
<path class="st1" d="M301.2,50.5L301.2,50.5c20,0,36.3,16.2,36.3,36.3l0,0c0,20-16.2,36.3-36.3,36.3h0c-20,0-36.3-16.2-36.3-36.3
	l0,0C265,66.8,281.2,50.5,301.2,50.5z"/>
<g>
	<defs>
		<rect id="SVGID_2_" x="280.7" y="72.1" width="41.2" height="28.4"/>
	</defs>
	<clipPath id="SVGID_3_">
		<use xlink:href="#SVGID_2_"  style="overflow:visible;"/>
	</clipPath>
	<g class="st3">
		
			<linearGradient id="SVGID_4_" gradientUnits="userSpaceOnUse" x1="473.4231" y1="36.616" x2="511.3868" y2="36.616" gradientTransform="matrix(1 0 0 -1 -190 122)">
			<stop  offset="0" style="stop-color:#7ACBBF"/>
			<stop  offset="1" style="stop-color:#3EA4DB"/>
		</linearGradient>
		<path class="st4" d="M320.7,76.2l-1.8-1.6l-3.5-0.4l-2.1,1l1.4,1.7l3.9,0.6L320.7,76.2z M313,75.1l2.1-1l-1.3-1.3l-3.1-0.4
			l-2.1,0.8l1,1.4L313,75.1z M309.3,74.7l-1-1.4l-3-0.4l-2.4,0.9l0.6,1.4l3.4,0.5L309.3,74.7z M303.4,75.2l-0.6-1.4l-3-0.4l-2.7,0.9
			l0.2,1.5l3.3,0.5L303.4,75.2z M300.4,76.5l-3.3-0.5l-3.2,1.2l-0.1,2l3.7,0.7l3.4-1.4L300.4,76.5z M293,87.9l0.2-3.5l-4.2-1l-5,2.1
			l-1.3,3.7l4.9,1.4L293,87.9z M287.7,91.1l-1,5.2l6,2l6-4.1l-0.5-4.8l-5.1-1.3L287.7,91.1z M298.7,89.4l0.6,4.7l6.3,1.8l4.6-3.7
			l-1.7-4.4l-5.2-1.2L298.7,89.4z M308.5,87.7l3.6-2.4l-1.6-3l-4.5-0.8l-3.5,1.9l0.8,3.2L308.5,87.7z M310.3,82.2l2.9-1.7l-1.5-2.2
			l-3.9-0.6L305,79l0.9,2.3L310.3,82.2z M309.4,74.7l-2.5,1.1l1,1.7l3.9,0.6l2.5-1.3l-1.4-1.7L309.4,74.7z M304.7,79l-3.8-0.6
			l-3.4,1.5l0.3,2.5l4.3,0.9l3.5-1.8L304.7,79z M300.5,76.4l0.5,1.8l3.8,0.6l2.9-1.3l-0.9-1.7l-3.4-0.5L300.5,76.4z"/>
		<path d="M292.9,96.5c1.2-0.2,2.1,0.4,2.1,1.5c-0.1,0.6-0.3,1.2-0.7,1.6c-0.4,0.4-1,0.7-1.6,0.9c-1.3,0.3-2.3-0.5-2.2-1.6
			c0.1-0.6,0.4-1.1,0.8-1.5C291.8,96.9,292.3,96.6,292.9,96.5z M293.3,86.9c0.9-0.1,1.7,0.3,1.7,0.9c0,0.6-0.8,1.3-1.8,1.5
			c-1,0.1-1.7-0.3-1.7-1C291.6,87.6,292.4,87,293.3,86.9L293.3,86.9z M288.8,89.7c0.8,0.2,1,1,0.4,1.7c-0.3,0.4-0.8,0.7-1.2,0.8
			c-0.5,0.2-1,0.2-1.5,0.1c-0.9-0.3-1-1.1-0.3-1.8c0.3-0.3,0.8-0.6,1.2-0.7C287.8,89.7,288.3,89.6,288.8,89.7L288.8,89.7z
			 M299.8,92.7c0.2,0,0.4,0.1,0.6,0.3c0.2,0.1,0.3,0.3,0.4,0.5c0.1,0.2,0.1,0.4,0.1,0.6c0,0.2-0.1,0.4-0.2,0.6
			c-0.3,0.5-0.7,0.8-1.1,1c-0.5,0.2-1,0.2-1.6,0.1c-0.2,0-0.4-0.2-0.6-0.3c-0.2-0.1-0.3-0.3-0.4-0.5c-0.1-0.2-0.1-0.4-0.1-0.7
			c0-0.2,0.1-0.4,0.2-0.6c0.3-0.4,0.7-0.7,1.1-0.9C298.8,92.6,299.3,92.6,299.8,92.7L299.8,92.7z"/>
		<path d="M299.9,94.5l-7.1,4.9l-7.2-2.4l1.3-6.2l6.4-3.3l5.9,1.4L299.9,94.5z M298.5,94l-0.4-4.4l-4.7-1.2l-5.1,2.7l-0.8,4.8
			l5.5,1.8L298.5,94z"/>
		<path d="M288.7,95.2c0.5,0.7,0,1.9-1.2,2.6s-2.5,0.7-3-0.2c-0.4-0.8,0.2-1.9,1.4-2.6C287,94.4,288.2,94.5,288.7,95.2L288.7,95.2z
			 M299.9,88.5c0.6,0.5,0.4,1.3-0.4,1.8c-0.4,0.3-0.8,0.4-1.3,0.4c-0.5,0-0.9-0.2-1.2-0.5c-0.5-0.5-0.3-1.4,0.5-1.8
			c0.4-0.2,0.8-0.3,1.2-0.3C299.1,88.1,299.5,88.3,299.9,88.5L299.9,88.5z M289.2,82.6c0.8-0.1,1.4,0.2,1.3,0.7
			c-0.1,0.5-0.8,1-1.7,1.1c-0.9,0.1-1.5-0.2-1.4-0.7C287.6,83.2,288.4,82.7,289.2,82.6z M285,84.7c0.7,0.2,0.8,0.7,0.2,1.3
			c-0.3,0.3-0.7,0.5-1.1,0.6c-0.4,0.1-0.9,0.1-1.3,0.1c-0.7-0.2-0.7-0.8-0.1-1.3c0.3-0.3,0.7-0.4,1.1-0.6
			C284.2,84.6,284.6,84.6,285,84.7L285,84.7z"/>
		<path d="M294.1,84.1l-0.1,4.1l-6.5,3.5l-5.8-1.7l1.6-4.4l5.8-2.5L294.1,84.1z M292.9,84.6l-3.9-0.9l-4.6,2l-1.1,3.5l4.5,1.3l5-2.6
			L292.9,84.6z"/>
		<path d="M284.4,88.7c0.3,0.5-0.2,1.3-1.2,1.8c-1,0.5-2.2,0.5-2.4-0.1c-0.3-0.6,0.3-1.4,1.3-1.8C283.1,88.1,284.1,88.2,284.4,88.7
			L284.4,88.7z M294.7,83.8c0.4,0.4,0.2,1-0.6,1.3c-0.7,0.4-1.7,0.3-2.1-0.1c-0.4-0.4-0.1-1,0.6-1.3c0.3-0.2,0.7-0.3,1-0.2
			C294,83.5,294.4,83.6,294.7,83.8L294.7,83.8z M307.6,95.6c0.1,0.2,0.1,0.5,0,0.8c0,0.2-0.1,0.5-0.3,0.7c-0.1,0.2-0.3,0.4-0.6,0.5
			c-0.2,0.1-0.5,0.2-0.7,0.3c-0.5,0.1-1.1,0-1.6-0.2c-0.5-0.3-0.8-0.7-1-1.2c0-0.2,0-0.5,0-0.7c0.1-0.2,0.2-0.5,0.3-0.7
			c0.1-0.2,0.3-0.4,0.6-0.5c0.2-0.1,0.5-0.2,0.7-0.2c0.5-0.1,1,0,1.5,0.2C307.1,94.8,307.5,95.2,307.6,95.6L307.6,95.6z M304.8,86.4
			c0.2,0.6-0.4,1.2-1.3,1.3c-0.9,0.1-1.8-0.3-1.9-0.9c-0.1-0.6,0.5-1.1,1.3-1.3C303.8,85.4,304.6,85.8,304.8,86.4L304.8,86.4z
			 M310.7,90.9c0.4,0.1,0.8,0.3,1.1,0.6c0.3,0.3,0.4,0.8,0.4,1.2c-0.2,0.8-1.2,1.3-2.3,1c-1.1-0.2-1.7-1.2-1.4-1.9
			c0.2-0.4,0.5-0.7,0.9-0.9C309.8,90.7,310.3,90.7,310.7,90.9z"/>
		<path d="M311.3,92.5l-5.4,4.4l-7.5-2.2l-0.5-5.6l5.2-3l6,1.3L311.3,92.5z M309.8,92.1l-1.6-4l-4.9-1.1l-4.1,2.5l0.6,4.4l5.8,1.6
			L309.8,92.1z"/>
		<path d="M309.7,87c0.2,0.1,0.3,0.2,0.4,0.3c0.1,0.1,0.2,0.3,0.2,0.5c0,0.2,0,0.3-0.1,0.5c-0.1,0.2-0.2,0.3-0.3,0.4
			c-0.4,0.2-0.8,0.3-1.2,0.3c-0.4,0-0.9-0.2-1.2-0.4c-0.1-0.1-0.3-0.2-0.4-0.4c-0.1-0.1-0.1-0.3-0.1-0.5s0-0.3,0.1-0.5
			c0.1-0.1,0.2-0.3,0.4-0.4c0.4-0.2,0.8-0.3,1.2-0.3S309.3,86.8,309.7,87L309.7,87z M307.3,81.3c0.2,0.4-0.3,0.9-1,0.9
			c-0.7,0.1-1.5-0.2-1.6-0.6c-0.1-0.4,0.3-0.8,1-0.9c0.3-0.1,0.6,0,0.9,0.1C306.8,80.9,307.1,81,307.3,81.3L307.3,81.3z M303.7,83.6
			c-0.2,0.3-0.5,0.5-0.9,0.6c-0.3,0.1-0.7,0.1-1.1,0c-0.8-0.2-1.1-0.7-0.8-1.1c0.2-0.2,0.5-0.4,0.8-0.5c0.3-0.1,0.7-0.1,1,0
			C303.6,82.7,304,83.1,303.7,83.6z M312.5,84.4c0.8,0.2,1.4,0.7,1.3,1.3c-0.1,0.5-0.9,0.9-1.8,0.7c-0.9-0.2-1.4-0.8-1.3-1.3
			C310.8,84.5,311.6,84.2,312.5,84.4L312.5,84.4z"/>
		<path d="M313,85.5l-4.2,2.9l-6.2-1.4l-0.9-3.8l4.1-2.1L311,82L313,85.5z M311.7,85.2l-1.5-2.8l-4.2-0.8l-3.3,1.7l0.8,3l4.8,1.1
			L311.7,85.2z"/>
		<path d="M311.4,81.7c0.6,0.3,0.7,0.9,0.2,1.2c-0.3,0.2-0.7,0.2-1,0.2c-0.4,0-0.7-0.1-1-0.3c-0.6-0.3-0.6-0.9-0.1-1.2
			c0.3-0.1,0.6-0.2,1-0.2C310.8,81.5,311.1,81.6,311.4,81.7L311.4,81.7z M302.2,78.2c0.1,0.3-0.4,0.7-1,0.7
			c-0.7,0.1-1.3-0.1-1.4-0.5c-0.1-0.3,0.4-0.6,1-0.7C301.5,77.7,302.1,77.9,302.2,78.2z M298.1,79.2c0.6,0.1,0.9,0.5,0.6,0.9
			c-0.2,0.2-0.5,0.4-0.8,0.4c-0.3,0.1-0.6,0.1-0.9,0c-0.6-0.1-0.9-0.5-0.5-0.9c0.2-0.2,0.5-0.3,0.8-0.4
			C297.5,79.1,297.8,79.1,298.1,79.2L298.1,79.2z"/>
		<path d="M306.5,81.5l-4.1,2.2l-5.1-1.1l-0.3-2.9l4-1.7l4.4,0.7L306.5,81.5z M305.5,81.3l-0.8-2.1l-3.5-0.6l-3.1,1.4l0.3,2.3l4,0.8
			L305.5,81.3z"/>
		<path d="M299,81.8c0.4,0.3,0.3,0.9-0.4,1.2c-0.3,0.2-0.7,0.2-1,0.2c-0.3,0-0.7-0.1-1-0.3c-0.4-0.4-0.2-0.9,0.4-1.2
			c0.3-0.1,0.6-0.2,1-0.2C298.3,81.6,298.7,81.7,299,81.8L299,81.8z M305.8,78.6c0.5,0.3,0.4,0.7-0.1,0.9c-0.3,0.1-0.6,0.2-0.9,0.2
			c-0.3,0-0.6-0.1-0.9-0.2c-0.4-0.3-0.4-0.7,0.1-0.9c0.3-0.1,0.6-0.2,0.9-0.2C305.3,78.4,305.5,78.4,305.8,78.6z M309.1,77.5
			c0.2,0.3-0.2,0.6-0.8,0.7c-0.3,0.1-0.5,0-0.8,0c-0.3-0.1-0.5-0.2-0.7-0.4c-0.2-0.3,0.2-0.6,0.8-0.7c0.3,0,0.5,0,0.8,0
			C308.7,77.2,308.9,77.3,309.1,77.5L309.1,77.5z M313.7,79.8c0.7,0.1,1.2,0.5,1.1,0.9c-0.1,0.4-0.8,0.6-1.5,0.5
			c-0.8-0.2-1.2-0.5-1.1-0.9C312.3,79.8,313,79.6,313.7,79.8L313.7,79.8z"/>
		<path d="M314.2,80.5l-3.4,2.1l-5.3-1l-1.1-2.7l3.4-1.6l4.5,0.7L314.2,80.5z M313.1,80.4l-1.4-2l-3.6-0.6l-2.7,1.3l0.9,2.1l4.1,0.7
			L313.1,80.4z"/>
		<path d="M312.7,77.8c0.5,0.2,0.6,0.6,0.2,0.9c-0.3,0.1-0.6,0.2-0.9,0.2c-0.3,0-0.6-0.1-0.9-0.2c-0.5-0.3-0.6-0.6-0.1-0.9
			c0.3-0.1,0.6-0.2,0.8-0.2C312.2,77.6,312.4,77.7,312.7,77.8L312.7,77.8z M310.5,74.6c0.2,0.2-0.1,0.5-0.6,0.5c-0.2,0-0.5,0-0.7,0
			c-0.2-0.1-0.4-0.2-0.6-0.3c-0.2-0.2,0.2-0.5,0.7-0.5c0.2,0,0.5,0,0.7,0C310.1,74.4,310.3,74.5,310.5,74.6L310.5,74.6z M307.3,75.3
			c0.6,0.1,0.9,0.4,0.8,0.6c-0.1,0.3-0.8,0.4-1.3,0.3c-0.6-0.1-0.9-0.4-0.7-0.6c0.2-0.1,0.4-0.3,0.6-0.3
			C306.8,75.3,307,75.3,307.3,75.3L307.3,75.3z M314.6,76.4c0.6,0.1,1.1,0.4,1,0.7c-0.1,0.3-0.6,0.5-1.3,0.4c-0.6-0.1-1.1-0.4-1-0.7
			C313.4,76.4,314,76.3,314.6,76.4L314.6,76.4z"/>
		<path d="M315.1,77l-2.9,1.5l-4.6-0.7l-1.1-2l2.9-1.2l4,0.5L315.1,77z M314.1,76.8l-1.3-1.5l-3.2-0.4l-2.2,1l1,1.6l3.6,0.6
			L314.1,76.8z"/>
		<path d="M308.8,77.2c0.5,0.2,0.5,0.6,0,0.8c-0.3,0.1-0.6,0.2-0.8,0.2c-0.3,0-0.6-0.1-0.8-0.2c-0.5-0.2-0.4-0.6,0-0.8
			c0.3-0.1,0.5-0.1,0.8-0.1C308.2,77,308.5,77.1,308.8,77.2L308.8,77.2z M313.7,74.9c0.5,0.2,0.6,0.5,0.2,0.6c-0.5,0.2-1,0.2-1.5,0
			c-0.5-0.2-0.5-0.5-0.1-0.7C312.7,74.7,313.2,74.7,313.7,74.9L313.7,74.9z M297,75.4c0.6-0.1,1.1,0.1,1.1,0.4c0,0.3-0.4,0.5-1,0.6
			c-0.6,0.1-1.1-0.1-1.2-0.4C295.9,75.8,296.4,75.5,297,75.4L297,75.4z M294.3,76.6c0.5,0.1,0.7,0.4,0.4,0.7
			c-0.2,0.2-0.5,0.3-0.8,0.3c-0.3,0.1-0.6,0.1-0.8,0c-0.6-0.1-0.7-0.4-0.4-0.7C293.2,76.6,293.8,76.5,294.3,76.6z"/>
		<path d="M301.5,78.4l-4,1.7l-4.4-0.8l0.1-2.3l3.8-1.4l3.9,0.6L301.5,78.4z M300.6,78.3l-0.4-1.7l-3.1-0.5l-3,1.1l-0.1,1.8l3.4,0.6
			L300.6,78.3z"/>
		<path d="M294.8,78.7c0.3,0.3,0.1,0.7-0.5,0.9c-0.3,0.1-0.6,0.2-0.9,0.2c-0.3,0-0.6-0.1-0.9-0.2c-0.3-0.3-0.1-0.7,0.5-0.9
			c0.3-0.1,0.6-0.2,0.9-0.2C294.2,78.5,294.5,78.6,294.8,78.7z M301.3,76.1c0.4,0.2,0.3,0.5-0.2,0.7c-0.3,0.1-0.5,0.1-0.8,0.1
			c-0.3,0-0.5-0.1-0.8-0.2c-0.4-0.2-0.2-0.5,0.3-0.7c0.2-0.1,0.5-0.2,0.8-0.2C300.8,75.9,301.1,76,301.3,76.1L301.3,76.1z
			 M300.7,73.3c0.1,0.2-0.3,0.4-0.9,0.5c-0.6,0.1-1-0.1-1.1-0.3c0-0.2,0.3-0.4,0.9-0.5C300.1,73,300.6,73.1,300.7,73.3z M297.4,73.9
			c0.5,0.1,0.7,0.3,0.4,0.5c-0.4,0.3-0.9,0.4-1.4,0.3c-0.5-0.1-0.7-0.3-0.4-0.5C296.4,74,296.9,73.9,297.4,73.9z M303.7,74.8
			c0.5,0.1,0.8,0.3,0.6,0.6c-0.2,0.2-0.4,0.3-0.6,0.3c-0.2,0.1-0.5,0.1-0.7,0c-0.6-0.1-0.8-0.4-0.6-0.6c0.2-0.1,0.4-0.2,0.6-0.3
			C303.2,74.8,303.5,74.8,303.7,74.8L303.7,74.8z"/>
		<path d="M303.9,75.3l-3.3,1.3l-3.9-0.6l-0.2-1.8l3.2-1.1l3.4,0.5L303.9,75.3z M303.1,75.2l-0.5-1.3l-2.8-0.4l-2.5,0.8l0.1,1.4
			l3.1,0.5L303.1,75.2z"/>
		<path d="M303.5,73.5c0.3,0.2,0.3,0.4-0.1,0.6c-0.5,0.2-1,0.2-1.4,0c-0.3-0.2-0.3-0.4,0.2-0.6C302.6,73.4,303.1,73.4,303.5,73.5z
			 M306.3,72.8c0.1,0.2-0.2,0.4-0.7,0.5c-0.5,0.1-1-0.1-1.1-0.3c-0.1-0.2,0.2-0.4,0.7-0.4C305.7,72.5,306.2,72.6,306.3,72.8
			L306.3,72.8z"/>
		<path d="M310,74.7l-2.9,1.3l-4-0.6l-0.6-1.7l2.8-1l3.5,0.4L310,74.7z M309.2,74.6l-0.9-1.3l-2.8-0.4l-2.2,0.8l0.6,1.3l3.1,0.4
			L309.2,74.6z"/>
		<path d="M309.2,73c0.4,0.2,0.4,0.4,0,0.6c-0.4,0.2-0.9,0.2-1.4,0c-0.4-0.2-0.4-0.4,0-0.5C308.3,72.9,308.7,72.9,309.2,73L309.2,73
			z M311.6,72.4c0.2,0.2-0.1,0.4-0.6,0.4c-0.4,0.1-0.8,0-1.2-0.3c-0.2-0.2,0.1-0.4,0.6-0.4C310.8,72,311.2,72.1,311.6,72.4
			L311.6,72.4z M315.3,73.7c0.6,0.1,1,0.3,0.9,0.5c0,0.2-0.6,0.4-1.1,0.3c-0.6-0.1-1-0.3-0.9-0.5C314.2,73.8,314.7,73.7,315.3,73.7z
			"/>
		<path d="M315.7,74.2l-2.5,1.2l-4.1-0.6l-1.1-1.6l2.5-1l3.6,0.5L315.7,74.2z M314.9,74.1l-1.2-1.2l-2.9-0.3l-2,0.8l0.9,1.3l3.2,0.4
			L314.9,74.1z"/>
		<path d="M314.4,72.6c0.4,0.2,0.5,0.4,0.2,0.5c-0.4,0.2-0.9,0.2-1.4,0c-0.4-0.2-0.5-0.4-0.2-0.5C313.5,72.4,314,72.4,314.4,72.6
			L314.4,72.6z M319.1,78c-0.3,0-0.6,0-0.9-0.1c-0.3-0.1-0.5-0.2-0.8-0.4c-0.3-0.3-0.1-0.6,0.5-0.7c0.6-0.1,1.2,0.1,1.6,0.4
			C319.9,77.6,319.7,78,319.1,78z M320.6,75.7c0.6,0.1,1.2,0.4,1.2,0.6c0,0.3-0.5,0.4-1.2,0.3c-0.7-0.1-1.2-0.4-1.2-0.6
			C319.5,75.8,320,75.7,320.6,75.7L320.6,75.7z"/>
		<path d="M321.2,76.3l-2.4,1.5l-4.7-0.7l-1.6-1.9l2.5-1.1l4.1,0.5L321.2,76.3z M320.3,76.2l-1.6-1.4l-3.2-0.4l-2,0.9l1.3,1.5
			l3.6,0.5L320.3,76.2z"/>
		<path d="M319.4,74.3c0.5,0.2,0.6,0.5,0.4,0.6c-0.5,0.2-1,0.2-1.5,0c-0.5-0.2-0.6-0.5-0.3-0.6C318.4,74.2,318.9,74.2,319.4,74.3z"
			/>
	</g>
</g>
<path class="st1" d="M370.1,208.3L370.1,208.3c19.9,0,36,16.1,36,36l0,0c0,19.9-16.1,36-36,36h0c-19.9,0-36-16.1-36-36l0,0
	C334.1,224.4,350.2,208.3,370.1,208.3z"/>
<path class="st5" d="M388.2,254.5c-2,1.1-12.6,5.5-14.9,6.7c-2.3,1.2-3.5,1.2-5.3,0.3c-1.8-0.9-13.1-5.4-15.1-6.4
	c-1-0.5-1.5-0.9-1.5-1.3v-3.9c0,0,14.7-3.2,17.1-4.1c2.4-0.9,3.2-0.9,5.2-0.1c2,0.7,14.1,2.9,16.1,3.7c0,0,0,3.5,0,3.9
	C389.7,253.6,389.2,254,388.2,254.5z"/>
<path class="st6" d="M388.2,250.6c-2,1.1-12.6,5.5-14.9,6.7s-3.5,1.2-5.3,0.3c-1.8-0.9-13.1-5.5-15.1-6.4c-2-1-2.1-1.7-0.1-2.4
	c2-0.8,13.2-5.2,15.6-6.1c2.4-0.9,3.2-0.9,5.2-0.1c2,0.7,12.6,5,14.5,5.7C390.2,249,390.2,249.6,388.2,250.6z"/>
<path class="st5" d="M388.2,248.2c-2,1.1-12.6,5.5-14.9,6.7c-2.3,1.2-3.5,1.2-5.3,0.3c-1.8-0.9-13.1-5.4-15.1-6.4
	c-1-0.5-1.5-0.9-1.5-1.3v-3.9c0,0,14.7-3.2,17.1-4.1c2.4-0.9,3.2-0.9,5.2-0.1c2,0.7,14.1,2.9,16.1,3.7c0,0,0,3.5,0,3.9
	C389.7,247.2,389.2,247.6,388.2,248.2z"/>
<path class="st6" d="M388.2,244.3c-2,1.1-12.6,5.5-14.9,6.7c-2.3,1.2-3.5,1.2-5.3,0.3c-1.8-0.9-13.1-5.4-15.1-6.4
	c-2-1-2.1-1.7-0.1-2.4c2-0.8,13.2-5.2,15.6-6.1c2.4-0.9,3.2-0.9,5.2-0.1c2,0.7,12.6,5,14.5,5.7C390.2,242.6,390.2,243.2,388.2,244.3
	z"/>
<path class="st5" d="M388.2,241.6c-2,1.1-12.6,5.5-14.9,6.7c-2.3,1.2-3.5,1.2-5.3,0.3c-1.8-0.9-13.1-5.4-15.1-6.4
	c-1-0.5-1.5-0.9-1.5-1.3v-3.9c0,0,14.7-3.2,17.1-4.1c2.4-0.9,3.2-0.9,5.2-0.1c2,0.7,14.1,2.9,16.1,3.7c0,0,0,3.5,0,3.8
	C389.7,240.6,389.2,241,388.2,241.6z"/>
<path class="st6" d="M388.2,237.7c-2,1.1-12.6,5.5-14.9,6.7c-2.3,1.2-3.5,1.2-5.3,0.3c-1.8-0.9-13.1-5.5-15.1-6.4
	c-2-1-2.1-1.7-0.1-2.4c2-0.8,13.2-5.2,15.6-6.1c2.4-0.9,3.2-0.9,5.2-0.1c2,0.7,12.6,5,14.5,5.7S390.2,236.6,388.2,237.7z"/>
<path class="st7" d="M375.5,233.9l-3.3,0.3l-0.7,1.8l-1.2-2l-3.8-0.3l2.9-1l-0.9-1.6l2.7,1.1l2.5-0.8l-0.7,1.7L375.5,233.9z"/>
<path class="st7" d="M371.3,242.7l-6.2-2.6l8.9-1.4L371.3,242.7z"/>
<path class="st7" d="M362.7,238.6c2.6,0,4.7-0.8,4.7-1.9c0-1-2.1-1.9-4.7-1.9c-2.6,0-4.7,0.8-4.7,1.9
	C357.9,237.8,360.1,238.6,362.7,238.6z"/>
<path class="st8" d="M379.5,234.4l5.3,2.1l-5.3,2.1L379.5,234.4z"/>
<path class="st9" d="M373.7,236.7l5.8-2.3l0,4.2l-0.6,0.2L373.7,236.7z"/>
<path class="st1" d="M287.9,208.3L287.9,208.3c19.9,0,36,16.1,36,36l0,0c0,19.9-16.1,36-36,36l0,0c-19.9,0-36-16.1-36-36l0,0
	C251.9,224.4,268,208.3,287.9,208.3z"/>
<path class="st10" d="M265.7,251.9h1.5v-6.2l2.3,5.4c0.3,0.6,0.6,0.9,1.4,0.9c0.7,0,1.1-0.2,1.4-0.9l2.3-5.4v6.2h1.5v-6.2
	c0-0.6-0.2-0.9-0.7-1c-1.1-0.4-1.9,0-2.2,0.8l-2.3,5.3l-2.2-5.3c-0.3-0.8-1.1-1.1-2.3-0.8c-0.5,0.2-0.7,0.4-0.7,1L265.7,251.9
	L265.7,251.9z M277.3,246.9h1.5v3.4c0,0.2,0.1,0.6,0.9,0.6c0.4,0,3.2,0,3.3,0v-4.1h1.5v5.6c0,1.4-1.6,1.7-2.4,1.7h-4.7v-1h4.7
	c1-0.1,0.8-0.6,0.8-0.8v-0.4h-3.2c-1.5,0-2.4-0.7-2.4-1.5L277.3,246.9L277.3,246.9z M309.6,242.9c-0.9,0-1.6,0.1-2.2,0.3
	c-0.2,0.1-0.4,0.1-0.5,0.3c0.1,0.1,0.1,0.3,0.2,0.4c0.1,0.2,0.4,0.6,0.6,0.7c0.2,0.2,0.5,0.4,0.7,0.6c0.4,0.3,1,0.5,1.4,0.7
	c0.3,0.2,0.5,0.4,0.8,0.6c0.1,0.1,0.2,0.3,0.4,0.3v0c-0.1-0.1-0.1-0.3-0.2-0.4c-0.1-0.1-0.2-0.2-0.3-0.3c-0.3-0.5-0.7-0.9-1.2-1.2
	c-0.4-0.3-1.2-0.6-1.3-1.1l0,0c0.3,0,0.6-0.1,0.8-0.2c0.4-0.1,0.7-0.1,1.1-0.2c0.2,0,0.4-0.1,0.6-0.2v-0.1c-0.2-0.2-0.4-0.5-0.6-0.7
	c-0.6-0.5-1.2-1-1.9-1.5c-0.4-0.2-0.8-0.4-1.2-0.6c-0.1-0.1-0.4-0.1-0.4-0.2c-0.2-0.3-0.3-0.6-0.5-0.9c-0.3-0.7-0.7-1.4-0.9-2.1
	c-0.2-0.5-0.3-0.9-0.6-1.4c-1.2-2-2.5-3.3-4.4-4.5c-0.4-0.3-0.9-0.4-1.5-0.5l-0.9,0c-0.2-0.1-0.4-0.3-0.5-0.4
	c-0.7-0.4-2.3-1.4-2.8-0.1c-0.3,0.8,0.5,1.5,0.7,1.9c0.2,0.3,0.4,0.6,0.6,0.9c0.1,0.2,0.1,0.4,0.2,0.6c0.2,0.5,0.4,1.1,0.6,1.6
	c0.1,0.3,0.3,0.5,0.4,0.7c0.1,0.1,0.3,0.2,0.3,0.4c-0.2,0.2-0.2,0.6-0.3,0.9c-0.4,1.4-0.3,3,0.3,4c0.2,0.3,0.6,1,1.2,0.7
	c0.5-0.2,0.4-0.9,0.5-1.5c0-0.1,0-0.2,0.1-0.3v0l0.5,1c0.4,0.6,1,1.2,1.5,1.6c0.3,0.2,0.5,0.6,0.8,0.7v0h0c-0.1-0.1-0.2-0.2-0.3-0.2
	c-0.2-0.2-0.4-0.5-0.6-0.7c-0.5-0.7-0.9-1.4-1.3-2.2c-0.2-0.4-0.3-0.8-0.5-1.2c-0.1-0.1-0.1-0.4-0.2-0.4c-0.2,0.3-0.4,0.5-0.6,0.8
	c-0.2,0.5-0.2,1.2-0.3,1.8c0,0,0,0,0,0c-0.4-0.1-0.5-0.5-0.6-0.8c-0.3-0.9-0.4-2.2-0.1-3.2c0.1-0.3,0.4-1,0.3-1.3
	c-0.1-0.2-0.3-0.4-0.4-0.5c-0.1-0.2-0.3-0.5-0.4-0.8c-0.3-0.7-0.4-1.4-0.7-2.1c-0.1-0.3-0.4-0.6-0.6-0.9c-0.2-0.3-0.5-0.6-0.6-0.9
	c-0.1-0.1-0.1-0.3,0-0.5c0-0.1,0.1-0.1,0.2-0.2c0.1-0.1,0.6,0,0.7,0.1c0.4,0.2,0.8,0.3,1.1,0.6c0.2,0.1,0.3,0.3,0.5,0.4h0.2
	c0.4,0.1,0.8,0,1.1,0.1c0.6,0.2,1.2,0.5,1.7,0.8c1.5,1,2.7,2.4,3.6,4.1c0.1,0.3,0.2,0.5,0.3,0.8c0.2,0.6,0.5,1.2,0.8,1.8
	c0.2,0.6,0.5,1.1,0.8,1.6c0.2,0.3,0.9,0.4,1.2,0.5c0.2,0.1,0.6,0.2,0.8,0.3c0.4,0.3,0.8,0.5,1.1,0.8
	C309,242.4,309.6,242.7,309.6,242.9L309.6,242.9z M297.9,232.5c-0.2,0-0.3,0-0.5,0.1v0h0c0.1,0.2,0.3,0.3,0.4,0.5l0.3,0.6l0,0
	c0.2-0.1,0.2-0.3,0.2-0.6c-0.1-0.1-0.1-0.2-0.1-0.3C298.1,232.7,298,232.6,297.9,232.5L297.9,232.5z"/>
<path class="st11" d="M285.6,251.9h4.3c0.5,0,1-0.1,1.4-0.3c0.7-0.3,1-0.7,1-1.3v-1.2c0-0.4-0.4-0.9-1.1-1.2
	c-0.4-0.1-0.8-0.2-1.3-0.2h-1.8c-0.6,0-0.9-0.2-1-0.6c0,0,0-0.1,0-0.1v-0.7c0,0,0-0.1,0-0.1c0.1-0.3,0.2-0.4,0.8-0.5h4.4v-1h-4.2
	c-0.6,0-0.9,0-1.2,0.1c-0.9,0.3-1.3,0.7-1.3,1.5v0.9c0,0.7,0.8,1.3,2,1.5c0.1,0,0.3,0,0.4,0h1.6c0.1,0,0.1,0,0.2,0
	c0.5,0,0.7,0.1,0.8,0.3c0.1,0.1,0.1,0.2,0.1,0.3v0.9c0,0.1-0.1,0.3-0.2,0.4c-0.1,0.1-0.4,0.2-0.6,0.2c-0.1,0-0.1,0-0.1,0h-4.1V251.9
	z M301.6,250.1c0,1.1,0.8,1.7,2.3,1.8c0.1,0,0.3,0,0.4,0h3.9v-1h-3.9c-0.9,0-1.2-0.2-1.2-0.8v-5.4h-1.5L301.6,250.1L301.6,250.1z
	 M293.2,250.1v-3.7c0-0.9,0.6-1.5,1.9-1.7c0.1,0,0.3,0,0.4,0h2.8c0.1,0,0.3,0,0.4,0c1.3,0.2,1.9,0.8,1.9,1.7v3.7
	c0,0.8-0.3,1.2-0.9,1.5l1.5,1.4h-1.7l-1.2-1.1l-1.2,0.1h-1.6c-0.3,0-0.6,0-0.9-0.1C293.7,251.5,293.2,251,293.2,250.1z M294.9,250.1
	c0,0,0,0.1,0,0.2c0.1,0.4,0.5,0.7,1.1,0.7h1.4l-1.2-1.2h1.7l1.1,1c0.2-0.1,0.3-0.3,0.4-0.5c0,0,0-0.1,0-0.2v-3.6c0,0,0-0.1,0-0.1
	c-0.1-0.4-0.5-0.6-1.1-0.6H296c-0.7,0-1.1,0.3-1.1,0.8V250.1z"/>
<path class="st1" d="M204.7,208.3L204.7,208.3c19.9,0,36,16.1,36,36l0,0c0,19.9-16.1,36-36,36l0,0c-19.9,0-36-16.1-36-36l0,0
	C168.7,224.4,184.8,208.3,204.7,208.3z"/>
<linearGradient id="SVGID_5_" gradientUnits="userSpaceOnUse" x1="393.6978" y1="-140.0867" x2="393.6978" y2="-105.8787" gradientTransform="matrix(1 0 0 -1 -190 122)">
	<stop  offset="0" style="stop-color:#574C4A"/>
	<stop  offset="1" style="stop-color:#80716D"/>
</linearGradient>
<path class="st12" d="M186.6,251v-12c0-9.7,1.4-11.1,11.1-11.1h12c9.7,0,11.1,1.4,11.1,11.1v12c0,9.7-1.4,11.1-11.1,11.1h-12
	C188,262.1,186.6,260.7,186.6,251z"/>
<linearGradient id="SVGID_6_" gradientUnits="userSpaceOnUse" x1="399.2963" y1="-134.0591" x2="387.4727" y2="-111.564" gradientTransform="matrix(1 0 0 -1 -190 122)">
	<stop  offset="0" style="stop-color:#268D83"/>
	<stop  offset="1" style="stop-color:#2EA19E"/>
</linearGradient>
<path class="st13" d="M194,234.3c-1.7,10.7-0.8,20.6-0.8,20.6h5.3c-0.5-2.7-2.3-14.8-0.8-14.9c0.8,0.1,4.5,10.3,4.5,10.3
	s0.8-0.1,1.6-0.1c0.8,0,1.6,0.1,1.6,0.1s3.7-10.2,4.5-10.3c1.5,0-0.3,12.2-0.8,14.9h5.3c0,0,0.9-10-0.8-20.6h-4.9
	c-0.9,0-4.5,6.2-4.9,6.2s-3.9-6.2-4.9-6.2H194L194,234.3z"/>
<radialGradient id="SVGID_7_" cx="148.5237" cy="158.6978" r="0.9798" gradientTransform="matrix(1.2696 0 0 -1.2696 12.6404 455.0153)" gradientUnits="userSpaceOnUse">
	<stop  offset="0" style="stop-color:#DB7C7C"/>
	<stop  offset="1" style="stop-color:#C83737"/>
</radialGradient>
<path class="st14" d="M202.7,253.7c0,0.3-0.1,0.6-0.4,0.9c-0.2,0.2-0.5,0.4-0.9,0.4c-0.3,0-0.6-0.1-0.9-0.4
	c-0.2-0.2-0.4-0.5-0.4-0.9s0.1-0.6,0.4-0.9c0.2-0.2,0.5-0.4,0.9-0.4c0.3,0,0.6,0.1,0.9,0.4C202.5,253.1,202.7,253.4,202.7,253.7z"/>
<radialGradient id="SVGID_8_" cx="148.4567" cy="158.6909" r="0.9798" gradientTransform="matrix(1.2695 0 0 -1.2695 17.3685 454.9954)" gradientUnits="userSpaceOnUse">
	<stop  offset="0" style="stop-color:#DB7C7C"/>
	<stop  offset="1" style="stop-color:#C83737"/>
</radialGradient>
<path class="st15" d="M207.2,253.7c0,0.3-0.1,0.6-0.4,0.9c-0.2,0.2-0.5,0.4-0.9,0.4c-0.3,0-0.6-0.1-0.9-0.4
	c-0.2-0.2-0.4-0.5-0.4-0.9s0.1-0.6,0.4-0.9c0.2-0.2,0.5-0.4,0.9-0.4c0.3,0,0.6,0.1,0.9,0.4C207.1,253.1,207.2,253.4,207.2,253.7z"/>
<path class="st16" d="M213.2,234.7c0.8,5.1,0.9,10.1,0.9,13.7c0,3.8-0.2,6.2-0.2,6.2h-4.4L209,255h5.3c0,0,0.9-10-0.8-20.6
	L213.2,234.7L213.2,234.7z M199.2,234.5c1.4,1.5,3.8,5.6,4.1,5.6C202.5,239,200.3,235.5,199.2,234.5z M197.3,239.8
	c-1.5,0,0.3,12.2,0.8,14.9h-4.6l-0.3,0.4h5.3c-0.5-2.6-2.3-14.7-0.8-14.9C197.5,239.9,197.4,239.8,197.3,239.8L197.3,239.8z
	 M209.4,239.8c-0.8,0.1-4.5,10.3-4.5,10.3s-0.8-0.1-1.6-0.1c-0.5,0-0.9,0-1.2,0.1l-0.1,0.4c0,0,0.8-0.1,1.6-0.1
	c0.8,0,1.6,0.1,1.6,0.1s3.6-10.1,4.4-10.3C209.7,239.9,209.6,239.8,209.4,239.8L209.4,239.8z"/>
<path class="st17" d="M194,234.3c-1.7,10.7-0.8,20.6-0.8,20.6l0.3-0.3c-0.2-2.4-0.6-10.9,0.8-19.9h4.9c0.1,0,0.2,0.1,0.4,0.2
	c-0.3-0.4-0.6-0.6-0.8-0.6H194L194,234.3z M208.6,234.3c-0.9,0-4.5,6.2-4.9,6.2c0.2,0.2,0.3,0.4,0.4,0.4c0.4,0,3.9-6.2,4.9-6.2h4.3
	l0.2-0.4H208.6L208.6,234.3z M198,240.5c1.2,1.8,4.1,10,4.1,10l0.1-0.4C201.4,248,198.7,240.6,198,240.5
	C198,240.5,198,240.5,198,240.5z M210.1,240.5c0.8,2-0.7,12.1-1.2,14.5l0.5-0.4C210.1,251,211.5,240.5,210.1,240.5z"/>
<path class="st1" d="M121.6,208.3L121.6,208.3c19.9,0,36,16.1,36,36l0,0c0,19.9-16.1,36-36,36h0c-19.9,0-36-16.1-36-36l0,0
	C85.5,224.4,101.7,208.3,121.6,208.3z"/>
<path d="M130.8,255.5c0.3-2.1,0.2-2.4,1.7-2.1l0.4,0c1.2,0.1,2.8-0.2,3.7-0.6c2-0.9,3.2-2.5,1.2-2.1c-4.5,0.9-4.8-0.6-4.8-0.6
	c4.8-7,6.7-15.8,5-18c-4.7-5.9-12.8-3.1-12.9-3l0,0c-0.9-0.2-1.9-0.3-3-0.3c-2,0-3.6,0.5-4.8,1.4c0,0-14.4-5.9-13.8,7.4
	c0.1,2.8,4.1,21.4,8.8,15.8c1.7-2.1,3.4-3.8,3.4-3.8c0.8,0.5,1.8,0.8,2.9,0.7l0.1-0.1c0,0.3,0,0.5,0,0.8c-1.2,1.3-0.9,1.6-3.3,2.1
	c-2.5,0.5-1,1.4-0.1,1.6c1.1,0.3,3.8,0.7,5.6-1.8l-0.1,0.3c0.5,0.4,0.4,2.7,0.5,4.4c0.1,1.7,0.2,3.2,0.5,4.1
	c0.3,0.9,0.7,3.3,3.9,2.6C128.6,263.9,130.6,263.1,130.8,255.5z"/>
<path d="M124.9,266.2c-1.4,0-2.3-0.5-2.9-1.1c-0.8-0.8-1.2-1.8-1.4-2.4l-0.1-0.3c-0.4-1.1-0.5-2.6-0.6-4.6c0-0.3,0-0.6,0-0.9
	c0-0.2,0-0.5,0-0.9c-0.5,0.2-1,0.4-1.6,0.5c-1,0.2-2.1,0.1-3.2-0.2c-0.8-0.2-1.6-0.6-2.1-1.2c-1.4,1.2-2.7,1-3.4,0.8
	c-1.2-0.4-2.4-1.6-3.4-3.5c-0.7-1.4-1.5-3.2-2.1-5.4c-1.2-3.8-1.9-7.9-2-9.2c-0.2-4.1,0.9-7.1,3.3-8.8c3.8-2.7,9.6-1.1,11.8-0.4
	c1.4-0.8,3.1-1.3,5-1.2c1,0,2,0.1,2.9,0.3c0.9-0.3,2.8-0.7,4.9-0.7c3.9,0,7.1,1.6,9.4,4.4c1.6,2,0.8,6.2,0.2,8.5
	c-0.9,3.3-2.3,6.8-4.2,9.8c0.5,0,1.2-0.1,2.2-0.3c2-0.4,2.6,0.7,2.8,1.1c0.6,1.9-2.2,3.4-3,3.8c-1.1,0.5-2.9,0.8-4.4,0.8l-0.1,0
	l-0.4,0l0,0.3l0,0.3c-0.1,3.8-0.7,6.3-1.8,7.9c-1.2,1.7-2.9,2.2-4.3,2.5C125.8,266.1,125.4,266.1,124.9,266.2z M121.9,252.2
	c0.9,0.7,1,2.1,1.1,4.6c0,0.3,0,0.6,0,0.9c0,0.8,0.1,2.8,0.4,3.7c0,0.1,0.1,0.2,0.1,0.4c0.3,1.1,0.5,1.6,2,1.3
	c1.3-0.3,1.9-0.5,2.4-1.2c0.7-1,1.2-3.2,1.2-6.3l1.5,0l-1.5-0.2l0-0.4c0.1-1.3,0.3-2.2,1.1-2.8c0.7-0.5,1.4-0.4,2.1-0.3
	c-0.7-0.5-0.9-1.1-0.9-1.3l-0.1-0.6l0.4-0.5c2.1-3.1,3.8-6.8,4.7-10.3c0.9-3.6,0.7-5.5,0.4-5.9c-3.8-4.8-10.4-2.8-11-2.6l-0.1,0.1
	l-0.6,0.1l-0.3-0.1c-0.8-0.2-1.7-0.3-2.7-0.3c-1.5,0-2.8,0.3-3.8,1.1l-0.7,0.5l-0.8-0.3c-1.7-0.7-6.9-2.1-9.6-0.2
	c-1.5,1.1-2.2,3.1-2,6.1c0,1,0.7,4.8,1.9,8.4c1.6,5.1,3,6.7,3.6,6.9c0.1,0,0.4-0.2,0.6-0.5c1.7-2.1,3.4-3.8,3.5-3.9l0.9-0.9l1.1,0.7
	c0.4,0.3,0.9,0.4,1.4,0.5l2.6-2.2l-0.4,3.8c0,0.1,0,0.2,0,0.4l0.1,0.7l-0.5,0.5l-0.1,0.1l1.4,0.6L121.9,252.2z"/>
<path class="st18" d="M137.9,250.8c-4.5,0.9-4.8-0.6-4.8-0.6c4.8-7,6.7-15.8,5-18c-4.7-5.9-12.8-3.1-12.9-3l0,0
	c-0.9-0.2-1.9-0.3-3-0.3c-2,0-3.6,0.5-4.8,1.4c0,0-14.4-5.9-13.8,7.4c0.1,2.8,4.1,21.4,8.8,15.8c1.7-2.1,3.4-3.8,3.4-3.8
	c0.8,0.5,1.8,0.8,2.9,0.7l0.1-0.1c0,0.3,0,0.5,0,0.8c-1.2,1.3-0.9,1.6-3.3,2.1c-2.5,0.5-1,1.4-0.1,1.6c1.1,0.3,3.8,0.7,5.6-1.8
	l-0.1,0.3c0.5,0.4,0.8,2.5,0.8,4.3c-0.1,1.9-0.1,3.2,0.3,4.2s0.7,3.3,3.9,2.6c2.7-0.6,4-2,4.2-4.5c0.1-1.7,0.4-1.5,0.5-3l0.2-0.7
	c0.3-2.4,0-3.1,1.7-2.8l0.4,0c1.2,0.1,2.8-0.2,3.7-0.6C138.7,252,139.9,250.4,137.9,250.8z"/>
<path class="st7" d="M125.1,265.2c-2.7,0-3.5-2.1-3.8-2.9c-0.5-1.3-0.6-6.1-0.5-10.1c0-0.1,0.1-0.3,0.2-0.3c0.1-0.1,0.2-0.1,0.4-0.1
	c0.1,0,0.3,0.1,0.4,0.2c0.1,0.1,0.1,0.2,0.1,0.4c-0.1,4.6,0.1,8.8,0.4,9.7c0.6,1.4,1.5,2.7,4,2.2c2.4-0.5,3.3-1.4,3.7-3.7
	c0.3-1.7,0.9-6.7,1-7.7c0-0.1,0.1-0.3,0.2-0.3c0.1-0.1,0.2-0.1,0.4-0.1c0.1,0,0.3,0.1,0.4,0.2c0.1,0.1,0.1,0.2,0.1,0.4
	c-0.1,1-0.7,6-1,7.8c-0.5,2.7-1.7,3.9-4.5,4.5C125.9,265.2,125.5,265.2,125.1,265.2z M110.6,255c-0.2,0-0.5,0-0.7-0.1
	c-1.7-0.6-3.4-3.4-4.9-8.3c-1.2-3.8-1.9-7.7-2-8.9c-0.2-3.8,0.8-6.4,2.9-7.9c4.2-3,11.3-0.1,11.6,0c0.1,0.1,0.2,0.2,0.3,0.3
	c0.1,0.1,0.1,0.3,0,0.4c-0.1,0.1-0.2,0.2-0.3,0.3c-0.1,0.1-0.3,0.1-0.4,0v0c-0.1,0-6.8-2.7-10.6-0.1c-1.8,1.3-2.7,3.6-2.5,7
	c0.1,1.1,0.7,4.9,1.9,8.7c1.4,4.4,2.9,7.2,4.2,7.6c0.2,0.1,0.8,0.3,1.8-0.8c1.7-2,3.3-3.7,3.3-3.7c0.1-0.1,0.2-0.1,0.4-0.1
	c0.1,0,0.3,0.1,0.4,0.1c0.1,0.1,0.2,0.2,0.2,0.3c0,0.1,0,0.3-0.1,0.4c0,0-1.6,1.6-3.3,3.6C112,254.7,111.3,255,110.6,255z
	 M133.1,250.7c-0.1,0-0.2,0-0.3-0.1c-0.1,0-0.1-0.1-0.2-0.2c0-0.1-0.1-0.2-0.1-0.3c0-0.1,0-0.2,0.1-0.3c4.8-7.1,6.5-15.6,5-17.4
	c-1.8-2.3-4.4-3.5-7.6-3.6c-2.4-0.1-4.3,0.6-4.6,0.7l-0.1,0c-0.3,0.1-0.6-0.1-0.6-0.3c-0.1-0.1-0.1-0.2,0-0.4c0-0.1,0.1-0.2,0.2-0.3
	l0.1-0.1l0,0l0,0c0.5-0.2,2.5-0.8,4.9-0.7c3.6,0,6.6,1.4,8.6,4c1,1.2,1,4,0,7.6c-1,3.7-2.8,7.7-5,11c0,0.1-0.1,0.1-0.2,0.2
	C133.2,250.7,133.2,250.7,133.1,250.7z M133.3,254c-0.8,0-1.6-0.1-2-0.4c-0.5-0.3-0.5-0.6-0.5-0.8c-0.1-2.1,1.1-2.5,1.7-2.7
	c-0.1-0.1-0.2-0.3-0.3-0.4c-0.4-0.4-0.8-1-1.2-1.9c-0.1-0.1-0.2-0.5-0.5-0.8c-1.2-2.1-3.6-6.3-2-8.5c0.7-1,2.1-1.4,4.2-1.2
	c-0.6-1.9-3.6-7.7-10.5-7.8c-2.1,0-3.8,0.6-5.1,1.9c-2.9,2.9-2.8,8.1-2.8,8.2c0,0.1,0,0.1,0,0.2c0,0.1-0.1,0.1-0.1,0.2
	c0,0-0.1,0.1-0.2,0.1c-0.1,0-0.1,0-0.2,0c-0.1,0-0.1,0-0.2,0c-0.1,0-0.1-0.1-0.2-0.1c0,0-0.1-0.1-0.1-0.2c0-0.1,0-0.1,0-0.2
	c0-0.2-0.1-5.7,3.1-8.9c1.5-1.5,3.5-2.2,5.9-2.2c4.5,0.1,7.3,2.3,9,4.2c1.8,2,2.6,4.3,2.7,5c0.1,0.6-0.4,0.7-0.4,0.7l-0.2,0
	c-2.1-0.3-3.4-0.1-3.9,0.7c-1.2,1.7,1.1,5.7,2.1,7.4c0.2,0.4,0.4,0.8,0.5,1c0.3,0.8,0.7,1.3,1.1,1.7c0.3,0.4,0.5,0.7,0.6,1.1
	c0,0.1,0.6,1,4.2,0.2c0.9-0.2,1.4,0,1.6,0.5c0.3,1-1.5,2.1-2.5,2.6C136,253.7,134.6,254,133.3,254z M131.8,252.7
	c0.1,0.1,0.7,0.3,1.8,0.3c1,0,2.1-0.3,2.8-0.6c0.8-0.4,1.4-0.8,1.7-1.1l-0.2,0c-2.3,0.5-3.9,0.4-4.8-0.2c-0.1,0-0.1-0.1-0.2-0.1
	c-0.1,0-0.2,0.1-0.3,0.1C132.3,251.2,131.7,251.3,131.8,252.7z M117.1,255.5c-0.6,0-1.2-0.1-1.8-0.2c-0.6-0.2-1.7-0.6-1.7-1.4
	c0-0.9,1.3-1.1,1.8-1.2c1.7-0.4,1.8-0.5,2.4-1.2c0.2-0.2,0.4-0.4,0.6-0.7c0.4-0.4,0.8-0.7,1.3-0.7c0.3,0,0.6,0.1,0.8,0.2
	c0.6,0.2,1,0.8,1.2,1.4c0.2,0.6,0.1,1.2-0.2,1.6C120.4,254.8,118.9,255.5,117.1,255.5z M114.7,254c0.2,0.1,0.5,0.3,0.8,0.4
	c0.5,0.1,1,0.2,1.5,0.2c1.5,0,2.6-0.6,3.5-1.8c0.2-0.2,0.1-0.6,0.1-0.7c-0.1-0.3-0.3-0.7-0.6-0.8c-0.1-0.1-0.3-0.1-0.4-0.1
	c-0.1,0-0.2,0-0.5,0.3c-0.2,0.3-0.4,0.5-0.6,0.7c-0.7,0.8-1,1.1-3,1.5C115.1,253.8,114.9,253.9,114.7,254z M118.7,251.6
	c-0.1,0-0.2,0-0.3-0.1c-0.1-0.1-0.2-0.2-0.2-0.3c0-0.1,0-0.2,0-0.3c-1.3,0-2.6-0.6-3.5-1.6c-1.2-1.3-1.8-3-1.5-4.8
	c0.3-1.9,0.2-3.6,0.1-4.6c0-0.2,0-0.4,0-0.6c0-0.2,0-0.6,1.5-1.3c0.5-0.3,1.5-0.7,2.7-0.8c1.9-0.2,3.1,0.6,3.5,2.3
	c1,4.6,0.1,6.6-0.6,8c-0.1,0.3-0.2,0.5-0.3,0.8l-0.1,0.2c-0.4,0.9-0.7,1.7-0.6,2.4c0,0.1,0,0.3-0.1,0.4
	C119,251.5,118.9,251.6,118.7,251.6L118.7,251.6z M114.2,239.6l0,0.4c0.1,1,0.2,2.7-0.1,4.8c-0.2,1.5,0.2,2.9,1.2,3.9
	c0.8,0.8,1.8,1.3,2.9,1.3h0c0.1-0.5,0.3-1,0.5-1.6l0.1-0.2c0.1-0.3,0.2-0.6,0.4-0.8c0.6-1.4,1.4-3.2,0.5-7.4
	c-0.2-0.8-0.6-1.3-1.4-1.5C116.9,238,114.7,239.1,114.2,239.6z M117.3,239.4c0,0.2,0.3,0.7,0.8,0.7c0.5,0.1,0.9-0.3,0.9-0.5
	c0-0.2-0.3-0.4-0.8-0.4C117.8,239.1,117.4,239.2,117.3,239.4z M118.3,240.3l-0.1,0c-0.3,0-0.6-0.2-0.8-0.5c-0.1-0.1-0.2-0.3-0.2-0.4
	c0-0.2,0.3-0.4,0.8-0.4c0.1,0,0.2,0,0.3,0c0.2,0,0.5,0.1,0.6,0.2c0.3,0.2,0.3,0.3,0.3,0.4C119.2,239.9,118.8,240.3,118.3,240.3z
	 M117.5,239.4c0,0.1,0.3,0.5,0.7,0.5l0.1,0c0.3,0,0.6-0.3,0.6-0.3c0-0.1-0.2-0.2-0.7-0.3c-0.1,0-0.2,0-0.3,0
	C117.7,239.3,117.6,239.4,117.5,239.4z M131.6,239c0,0.2-0.3,0.7-0.8,0.7c-0.5,0.1-0.9-0.3-0.9-0.5c0-0.2,0.3-0.4,0.8-0.4
	C131.2,238.7,131.6,238.8,131.6,239z M130.7,239.8c-0.5,0-0.8-0.3-0.9-0.6c0-0.3,0.4-0.5,0.9-0.5c0.1,0,0.2,0,0.3,0
	c0.4,0,0.7,0.1,0.7,0.3c0,0.1-0.1,0.3-0.2,0.5c-0.1,0.1-0.3,0.3-0.6,0.3L130.7,239.8z M131,238.9c-0.1,0-0.2,0-0.3,0
	c-0.5,0.1-0.7,0.2-0.7,0.3c0,0.1,0.3,0.4,0.7,0.4l0.1,0c0.3,0,0.4-0.2,0.5-0.3c0.1-0.1,0.2-0.3,0.2-0.3
	C131.5,238.9,131.3,238.9,131,238.9z M132.3,249.4c-0.1,0-0.2,0-0.3-0.1c-0.1,0-0.1-0.1-0.2-0.2c0-0.1-0.1-0.2-0.1-0.3
	c0-0.1,0-0.2,0.1-0.3c1.1-1.6,0.9-3.3,0.7-4.9c-0.1-0.7-0.2-1.4-0.1-2.1c0-0.7,0.1-1.3,0.2-1.8c0.1-0.7,0.2-1.3,0.2-2
	c0-0.1,0-0.3,0.1-0.4c0.1-0.1,0.2-0.2,0.4-0.2c0.1,0,0.3,0,0.4,0.1c0.1,0.1,0.2,0.2,0.2,0.3c0,0.8-0.1,1.5-0.2,2.2
	c-0.1,0.5-0.2,1.1-0.2,1.7c0,0.6,0.1,1.2,0.1,1.9c0.2,1.7,0.4,3.6-0.9,5.6C132.6,249.3,132.4,249.4,132.3,249.4z"/>
<path class="st1" d="M38.4,208.3L38.4,208.3c19.9,0,36,16.1,36,36l0,0c0,19.9-16.1,36-36,36l0,0c-19.9,0-36-16.1-36-36l0,0
	C2.4,224.4,18.5,208.3,38.4,208.3z"/>
<path class="st19" d="M54.5,234.3c-0.2-0.7-0.8-1.3-1.4-1.7l-13.7-6.5c-0.4-0.2-0.8-0.2-1.1-0.2s-0.8,0-1.1,0.1l-13.7,6.6
	c-0.7,0.3-1.2,0.9-1.3,1.7L18.9,249c-0.1,0.8,0,1.5,0.5,2.1l9.4,11.7c0.5,0.5,1.3,0.9,2.1,0.9h15c0.8,0.1,1.6-0.3,2.1-0.9l9.4-11.7
	c0.4-0.6,0.6-1.4,0.5-2.1L54.5,234.3z"/>
<path class="st7" d="M52.4,248.4C52.4,248.4,52.4,248.4,52.4,248.4c-0.1-0.1-0.2-0.1-0.3-0.1c-0.2,0-0.4,0-0.5,0c-0.1,0-0.2,0-0.3,0
	h0c-0.5,0-1-0.1-1.5-0.3c-0.1,0-0.3-0.2-0.3-0.3c0,0,0,0,0,0l-0.4-0.1c0.2-1.3,0.1-2.6-0.2-3.9c-0.3-1.3-0.9-2.6-1.6-3.7l0.3-0.3v0
	c0-0.1,0-0.3,0.1-0.4c0.4-0.4,0.8-0.6,1.3-0.9c0.1,0,0.2-0.1,0.3-0.1c0.2-0.1,0.3-0.2,0.5-0.3c0,0,0.1,0,0.1-0.1c0,0,0,0,0-0.1
	c0.4-0.3,0.5-0.9,0.2-1.3c-0.1-0.2-0.4-0.3-0.6-0.3c-0.2,0-0.4,0.1-0.6,0.2l0,0c0,0-0.1,0.1-0.1,0.1c-0.1,0.1-0.3,0.3-0.4,0.4
	c0,0.1-0.1,0.1-0.2,0.2c-0.3,0.4-0.7,0.7-1.1,1c-0.1,0-0.2,0.1-0.3,0.1c0,0-0.1,0-0.2,0h0l-0.4,0.2c-0.4-0.4-0.8-0.7-1.1-1.1
	c-1.7-1.3-3.7-2.1-5.8-2.3l0-0.4v0c-0.1-0.1-0.2-0.2-0.2-0.4c0-0.5,0-1,0.1-1.5v0c0-0.1,0-0.2,0-0.3c0-0.2,0-0.4,0.1-0.5v-0.3
	c0-0.4-0.3-0.9-0.8-0.9c-0.3,0-0.5,0.1-0.8,0.3c-0.2,0.2-0.3,0.4-0.3,0.6v0.2c0,0.2,0,0.4,0.1,0.5c0,0.1,0,0.2,0,0.3v0
	c0.1,0.5,0.1,1,0.1,1.5c0,0.1-0.1,0.3-0.2,0.4v0.1l0,0.4c-0.5,0-1,0.1-1.5,0.2c-2.1,0.4-4,1.6-5.5,3.1l-0.3-0.2h0c0,0-0.1,0-0.2,0
	c-0.1,0-0.2,0-0.3-0.1c-0.4-0.3-0.8-0.7-1.1-1c0-0.1-0.1-0.1-0.2-0.2c-0.1-0.1-0.2-0.3-0.4-0.4c0,0-0.1,0-0.1-0.1c0,0,0,0,0,0
	c-0.2-0.1-0.4-0.2-0.6-0.2c-0.3,0-0.5,0.1-0.6,0.3c-0.3,0.4-0.2,0.9,0.2,1.3c0,0,0,0,0,0s0.1,0.1,0.1,0.1c0.1,0.1,0.3,0.2,0.5,0.3
	c0.1,0,0.2,0.1,0.3,0.1c0.4,0.3,0.9,0.5,1.3,0.9c0.1,0.1,0.2,0.3,0.1,0.4v0l0.3,0.3c0,0.1-0.1,0.1-0.1,0.2c-1.4,2.2-2,4.8-1.6,7.3
	l-0.4,0.1c0,0,0,0,0,0c0,0.1-0.2,0.2-0.3,0.3c-0.5,0.1-1,0.2-1.5,0.3c-0.1,0-0.2,0-0.3,0c-0.2,0-0.4,0-0.5,0c0,0-0.1,0-0.2,0
	c0,0,0,0-0.1,0c-0.5,0.1-0.8,0.5-0.7,1c0.1,0.4,0.5,0.7,0.9,0.6c0.1,0,0.1,0,0.2,0c0,0,0,0,0,0c0,0,0.1,0,0.2,0
	c0.2,0,0.4-0.1,0.5-0.2c0.1,0,0.2-0.1,0.3-0.1h0c0.5-0.2,0.9-0.3,1.5-0.4h0c0.1,0,0.3,0,0.4,0.1c0,0,0,0,0,0l0.4,0
	c0.7,2.1,1.9,3.9,3.7,5.2c0.4,0.3,0.8,0.6,1.2,0.8l-0.2,0.3c0,0,0,0,0,0c0.1,0.1,0.1,0.3,0,0.4c-0.2,0.4-0.4,0.9-0.7,1.3v0
	c0,0.1-0.1,0.1-0.2,0.2c-0.1,0.1-0.2,0.3-0.3,0.4c0,0,0,0.1-0.1,0.1c0,0,0,0,0,0c-0.2,0.4,0,1,0.4,1.2c0.1,0,0.2,0.1,0.3,0.1
	c0.4,0,0.7-0.2,0.9-0.5c0,0,0,0,0,0c0,0,0-0.1,0.1-0.1c0-0.2,0.1-0.3,0.2-0.5l0.1-0.3c0.1-0.5,0.4-0.9,0.6-1.4
	c0.1-0.1,0.2-0.2,0.4-0.3c0,0,0,0,0,0l0.2-0.4c1.3,0.5,2.6,0.7,3.9,0.7c0.8,0,1.6-0.1,2.4-0.3c0.5-0.1,1-0.3,1.4-0.4l0.2,0.3
	c0,0,0,0,0,0c0.1,0,0.3,0.1,0.4,0.3c0.2,0.4,0.4,0.9,0.6,1.4v0l0.1,0.3c0,0.2,0.1,0.4,0.2,0.5c0,0,0,0.1,0.1,0.1c0,0,0,0,0,0
	c0.2,0.3,0.5,0.5,0.9,0.5c0.1,0,0.2,0,0.4-0.1c0.2-0.1,0.4-0.3,0.4-0.5c0-0.2,0-0.4,0-0.7c0,0,0,0,0,0c0,0,0-0.1-0.1-0.1
	c-0.1-0.2-0.2-0.3-0.3-0.4c0-0.1-0.1-0.1-0.2-0.2v-0.1c-0.3-0.4-0.5-0.9-0.7-1.3c0-0.1,0-0.3,0-0.4c0,0,0,0,0,0l-0.1-0.4
	c2.3-1.4,4-3.5,4.8-6.1l0.4,0c0,0,0,0,0,0c0.1-0.1,0.2-0.1,0.4-0.1h0c0.5,0.1,1,0.2,1.4,0.4h0c0.1,0,0.2,0.1,0.3,0.1
	c0.2,0.1,0.3,0.2,0.5,0.2c0,0,0.1,0,0.2,0c0,0,0,0,0.1,0c0.1,0,0.1,0,0.2,0c0.4,0,0.8-0.3,0.9-0.6C53.2,248.8,52.8,248.5,52.4,248.4
	z M39.5,247l-1.2,0.6l-1.2-0.6l-0.3-1.3l0.9-1.1H39l0.9,1.1L39.5,247z M46.8,244.1c0.2,0.9,0.3,1.9,0.2,2.8l-4.3-1.2
	c-0.4-0.1-0.6-0.5-0.5-0.9c0-0.1,0.1-0.2,0.2-0.3l3.4-3C46.2,242.3,46.6,243.2,46.8,244.1z M44.4,239.8l-3.7,2.6
	c-0.3,0.2-0.8,0.1-1-0.2c-0.1-0.1-0.1-0.2-0.1-0.3l-0.3-4.5C41.3,237.6,43,238.5,44.4,239.8z M36.3,237.5l0.9-0.2l-0.2,4.5
	c0,0.4-0.4,0.7-0.8,0.7c-0.1,0-0.2,0-0.4-0.1l-3.7-2.6C33.3,238.7,34.7,237.9,36.3,237.5z M30.8,241.5l3.3,3c0.3,0.3,0.4,0.7,0.1,1
	c-0.1,0.1-0.2,0.2-0.4,0.2l-4.3,1.3C29.4,245,29.8,243.1,30.8,241.5z M30.1,249l4.4-0.8c0.4,0,0.7,0.2,0.8,0.6c0,0.1,0,0.3,0,0.4
	l-1.7,4.1C31.9,252.4,30.7,250.8,30.1,249z M40.2,254.6c-0.6,0.1-1.3,0.2-1.9,0.2c-0.9,0-1.9-0.2-2.8-0.4l2.2-4
	c0.2-0.3,0.6-0.4,0.9-0.2c0.1,0.1,0.2,0.2,0.4,0.3l2.1,3.9C40.8,254.4,40.5,254.5,40.2,254.6z M45.7,250.7c-0.7,1.1-1.6,2-2.7,2.7
	l-1.7-4.2c-0.1-0.4,0.1-0.7,0.4-0.9c0.1,0,0.3-0.1,0.4-0.1l4.5,0.8C46.3,249.6,46,250.2,45.7,250.7z"/>
<circle class="st20" cx="205.2" cy="82.9" r="44.1"/>
<path class="st21" d="M197.8,95.8v5.6c0,1,0.4,1.9,1.1,2.6c0.7,0.7,1.6,1.1,2.6,1.1h7.3c1,0,1.9-0.4,2.6-1.1
	c0.7-0.7,1.1-1.6,1.1-2.6v-5.6"/>
<path class="st21" d="M205.1,97.8c-3.9,0-7.6-1.5-10.3-4.3c-2.7-2.8-4.3-6.5-4.3-10.4v-11c0-1,0.4-1.9,1.1-2.6
	c0.7-0.7,1.6-1.1,2.6-1.1h21.9c1,0,1.9,0.4,2.6,1.1c0.7,0.7,1.1,1.6,1.1,2.6v11c0,3.9-1.5,7.6-4.3,10.4
	C212.7,96.3,209,97.8,205.1,97.8z"/>
<path class="st21" d="M197.8,68.4v-11"/>
<path class="st21" d="M212.5,68.4v-11"/>
<path class="st21" d="M205.2,105V127"/>
<path class="st23" d="M205.2,199v-65.2"/>
<path class="st24" d="M288.5,148.4h11.6"/>
<path class="st24" d="M294.3,142.6v11.6"/>
<path class="st25" d="M89.6,21h11.6"/>
<path class="st25" d="M95.4,15.3v11.6"/>
<circle class="st26" cx="138.6" cy="188.7" r="1.5"/>
<circle class="st27" cx="284.6" cy="30.9" r="1.5"/>
</svg>
