<?xml version="1.0" encoding="utf-8"?>
<!-- Generator: Adobe Illustrator 24.2.1, SVG Export Plug-In . SVG Version: 6.00 Build 0)  -->
<svg version="1.0" id="Layer_1" xmlns="http://www.w3.org/2000/svg" xmlns:xlink="http://www.w3.org/1999/xlink" x="0px" y="0px"
	 viewBox="0 0 286 231" style="enable-background:new 0 0 286 231;" xml:space="preserve">
<style type="text/css">
	.st0{fill:url(#SVGID_1_);}
	.st1{fill:none;stroke:#FB9D5A;stroke-width:3;stroke-linecap:round;stroke-linejoin:round;}
	.st2{fill:#EC6D13;stroke:#EC6D13;stroke-width:2.9178;stroke-linecap:round;stroke-linejoin:round;}
	.st3{fill:#FB9D5A;stroke:#EC6D13;stroke-width:2.9178;stroke-linecap:round;stroke-linejoin:round;}
	.st4{fill:#FBC55A;stroke:#FBC55A;stroke-width:2.9178;stroke-linecap:round;stroke-linejoin:round;}
	.st5{fill:#FFFFFF;stroke:#EC6D13;stroke-width:2.9178;stroke-linecap:round;stroke-linejoin:round;}
	.st6{fill:#EF5B3E;}
	.st7{fill:none;stroke:#FFFFFF;stroke-width:3;stroke-linecap:round;stroke-linejoin:round;}
	.st8{fill:none;stroke:#FB9D5A;stroke-width:3;stroke-linecap:round;}
	.st9{fill:#CE64CE;stroke:#CE64CE;stroke-width:3;}
</style>
<linearGradient id="SVGID_1_" gradientUnits="userSpaceOnUse" x1="380.3245" y1="-22.0613" x2="357.0469" y2="-172.2649" gradientTransform="matrix(1 0 0 -1 -253 40.5)">
	<stop  offset="0" style="stop-color:#FBC55A"/>
	<stop  offset="1" style="stop-color:#FDD9BE;stop-opacity:0"/>
</linearGradient>
<path class="st0" d="M62.7,60.6v124.8l104.1,41.6V102.2L62.7,60.6z"/>
<path class="st1" d="M92.2,5.8l8.3,8.3"/>
<path class="st1" d="M100.4,5.8l-8.3,8.3"/>
<path class="st1" d="M242.8,217.9l8.3,8.3"/>
<path class="st1" d="M251.1,217.9l-8.3,8.3"/>
<path class="st2" d="M55.1,60.2l-29.9,41.4l29.9-12V60.2z"/>
<path class="st3" d="M157.9,19L55.1,60.2l102.8,41.4l102.8-41.4L157.9,19z"/>
<path class="st4" d="M260.7,61.2v123.7l-102.8,41.2V102.6L260.7,61.2z"/>
<path class="st2" d="M157.9,19v82.7l102.8-41.4L157.9,19z"/>
<path class="st5" d="M111.4,136.3l-23.3,9.3l23.3,9.4l23.3-9.4L111.4,136.3z"/>
<path class="st5" d="M88.1,145.6v28l23.3,9.4v-28.1L88.1,145.6z"/>
<path class="st5" d="M134.7,145.6v28l-23.3,9.4v-28.1L134.7,145.6L134.7,145.6z"/>
<path class="st5" d="M157.9,82.8l-23.3,9.3l23.3,9.4l23.3-9.4L157.9,82.8z"/>
<path class="st5" d="M134.6,92.1v28l23.3,9.3v-27.8l-23.3-9.4V92.1z"/>
<path class="st5" d="M181,92.1v28l-23.3,9.3v-27.8l23.3-9.4V92.1z"/>
<path class="st5" d="M134.6,92.1v28l23.3,9.3v-27.8l-23.3-9.4V92.1z"/>
<path class="st5" d="M206,19.6l-23.3,9.3l23.3,9.4l23.3-9.4L206,19.6z"/>
<path class="st5" d="M182.8,28.9v28l23.3,9.3v-28L182.8,28.9z"/>
<path class="st5" d="M229.3,28.9v28L206,66.3v-28L229.3,28.9z"/>
<circle class="st6" cx="45.9" cy="64.6" r="44.6"/>
<path class="st7" d="M33.5,52.5c1.1,5.9,5,10,11.9,12.1c6.8-2.1,10.7-6.1,11.9-12.1c0.1-0.4,0-0.8-0.1-1.2c-0.1-0.4-0.3-0.7-0.6-1
	c-0.3-0.3-0.6-0.6-1-0.7c-0.4-0.2-0.8-0.3-1.2-0.2H36.6c-0.4,0-0.8,0.1-1.2,0.3c-0.4,0.2-0.7,0.4-1,0.7c-0.3,0.3-0.5,0.6-0.7,1
	C33.5,51.7,33.4,52.1,33.5,52.5L33.5,52.5z"/>
<path class="st7" d="M29,43.7h32.7"/>
<path class="st7" d="M36.5,79.9c-0.4,0-0.8-0.1-1.2-0.3c-0.4-0.2-0.7-0.4-1-0.7c-0.3-0.3-0.5-0.7-0.6-1c-0.1-0.4-0.1-0.8-0.1-1.2
	c1.1-5.9,5-10,11.9-12.1c6.8,2.1,10.7,6.1,11.9,12.1c0.1,0.4,0,0.8-0.1,1.2c-0.1,0.4-0.3,0.7-0.6,1c-0.3,0.3-0.6,0.6-1,0.7
	c-0.4,0.2-0.8,0.3-1.2,0.2H36.5z"/>
<path class="st7" d="M29,85.5h32.7"/>
<line class="st8" x1="34.5" y1="119.6" x2="34.5" y2="163.2"/>
<line class="st8" x1="22.6" y1="131.5" x2="22.6" y2="175.1"/>
<circle class="st9" cx="281.8" cy="57.6" r="1.5"/>
</svg>
