<svg width="1920" height="641" viewBox="0 0 1920 641" fill="none" xmlns="http://www.w3.org/2000/svg">
<rect x="-107" width="2153" height="641" fill="#FBC55A"/>
<rect x="-107" width="2153" height="641" fill="url(#paint0_radial)" fill-opacity="0.75"/>
<path d="M0.499939 94C-124.588 94 -226 195.399 -226 320.5C-226 445.602 -124.588 547 0.499939 547C125.588 547 227 445.588 227 320.5C227 195.412 125.588 94 0.499939 94ZM0.499939 517.917C-35.0885 517.917 -63.9413 494.146 -63.9413 464.819H64.9413C64.9413 494.132 36.0748 517.917 0.499939 517.917ZM106.94 447.241H-105.967V408.617H106.804V447.241H106.94ZM106.181 388.763H-105.344L-107.444 386.324C-129.236 359.856 -134.373 346.046 -139.346 331.979C-139.428 331.518 -112.919 337.4 -94.1224 341.628C-86.2202 343.4 -78.2812 345.004 -70.3109 346.439C-83.8904 330.529 -91.954 310.295 -91.954 289.614C-91.954 244.214 -57.1245 204.533 -69.7011 172.468C-57.4769 173.457 -44.3989 198.272 -43.518 237.072C-30.5077 219.115 -25.0868 186.305 -25.0868 166.193C-25.0868 145.363 -11.3583 121.172 2.35663 120.346C-9.88112 140.512 5.52786 157.804 19.2157 200.684C24.3656 216.811 23.688 243.916 27.6588 261.087C28.9734 225.376 35.1126 173.268 57.7721 155.297C47.784 177.93 59.2628 206.295 67.0961 219.915C79.754 241.897 87.4246 258.539 87.4246 290.061C87.4246 311.203 79.632 331.071 66.4727 346.615C81.4344 343.81 91.7613 341.276 91.7613 341.276L140.333 331.789C140.333 331.789 133.286 360.791 106.154 388.763H106.181Z" fill="#FB9D5A"/>
<path d="M0.499939 94C-124.588 94 -226 195.399 -226 320.5C-226 445.602 -124.588 547 0.499939 547C125.588 547 227 445.588 227 320.5C227 195.412 125.588 94 0.499939 94ZM0.499939 517.917C-35.0885 517.917 -63.9413 494.146 -63.9413 464.819H64.9413C64.9413 494.132 36.0748 517.917 0.499939 517.917ZM106.94 447.241H-105.967V408.617H106.804V447.241H106.94ZM106.181 388.763H-105.344L-107.444 386.324C-129.236 359.856 -134.373 346.046 -139.346 331.979C-139.428 331.518 -112.919 337.4 -94.1224 341.628C-86.2202 343.4 -78.2812 345.004 -70.3109 346.439C-83.8904 330.529 -91.954 310.295 -91.954 289.614C-91.954 244.214 -57.1245 204.533 -69.7011 172.468C-57.4769 173.457 -44.3989 198.272 -43.518 237.072C-30.5077 219.115 -25.0868 186.305 -25.0868 166.193C-25.0868 145.363 -11.3583 121.172 2.35663 120.346C-9.88112 140.512 5.52786 157.804 19.2157 200.684C24.3656 216.811 23.688 243.916 27.6588 261.087C28.9734 225.376 35.1126 173.268 57.7721 155.297C47.784 177.93 59.2628 206.295 67.0961 219.915C79.754 241.897 87.4246 258.539 87.4246 290.061C87.4246 311.203 79.632 331.071 66.4727 346.615C81.4344 343.81 91.7613 341.276 91.7613 341.276L140.333 331.789C140.333 331.789 133.286 360.791 106.154 388.763H106.181Z" fill="url(#paint1_linear)"/>
<path d="M2091.55 294.35C2090.74 287.108 2089.93 278.258 2086.7 268.602C2084.27 258.947 2080.23 248.487 2074.57 237.222C2068.91 225.957 2061.63 214.693 2052.73 203.428C2049.5 199.405 2045.45 194.577 2040.6 190.554C2047.07 164.806 2032.51 143.082 2032.51 143.082C2008.25 141.472 1992.07 150.323 1986.41 155.151C1985.6 155.151 1984.8 154.346 1983.18 153.542C1979.13 151.933 1975.09 150.323 1970.24 148.714C1965.39 147.105 1961.34 146.3 1956.49 144.691C1951.64 143.886 1946.78 143.082 1942.74 142.277C1941.93 142.277 1941.12 142.277 1940.31 142.277C1929.8 108.483 1899.07 94 1899.07 94C1865.1 115.725 1858.63 145.496 1858.63 145.496C1858.63 145.496 1858.63 146.3 1858.63 147.105C1857.01 147.909 1854.59 147.909 1852.97 148.714C1850.54 149.519 1848.12 150.323 1844.88 151.128C1842.46 151.933 1840.03 152.737 1836.79 154.346C1831.94 156.76 1826.28 159.174 1821.43 161.588C1816.58 164.002 1811.72 167.22 1806.87 170.439C1806.06 170.439 1806.06 169.634 1806.06 169.634C1758.35 151.933 1716.29 173.657 1716.29 173.657C1712.25 223.544 1734.89 255.728 1739.74 261.361C1738.94 264.579 1737.32 267.798 1736.51 271.016C1733.27 282.281 1730.04 294.35 1728.42 306.419C1728.42 308.028 1727.61 309.638 1727.61 311.247C1683.94 332.972 1671 377.226 1671 377.226C1707.39 419.066 1750.26 421.48 1750.26 421.48C1755.92 431.135 1761.58 439.986 1768.86 448.837C1772.09 452.055 1775.33 456.078 1777.76 459.297C1764.82 497.114 1779.37 528.494 1779.37 528.494C1819.81 530.103 1846.5 510.792 1852.16 505.965C1856.2 507.574 1860.25 508.378 1864.29 509.988C1876.42 513.206 1889.36 514.815 1902.3 515.62C1905.54 515.62 1908.77 515.62 1912.01 515.62H1913.63H1914.43H1916.05H1917.67C1937.08 542.977 1970.24 547 1970.24 547C1994.5 522.057 1995.31 497.114 1995.31 491.481C1995.31 490.677 1995.31 490.677 1995.31 490.677V489.872C2000.16 486.654 2005.01 482.631 2009.87 478.607C2019.57 469.757 2027.66 460.101 2034.94 449.641C2035.75 448.837 2036.56 448.032 2036.56 446.423C2064.05 448.032 2082.65 429.526 2082.65 429.526C2077.8 401.364 2061.63 387.686 2058.39 385.272C2058.39 385.272 2058.39 385.272 2057.58 385.272C2057.58 383.663 2057.58 382.053 2057.58 380.444C2057.58 377.226 2057.58 374.007 2057.58 371.593V367.57V366.766V365.961C2057.58 365.156 2057.58 365.156 2057.58 365.156V363.547V361.133C2057.58 360.329 2057.58 359.524 2057.58 358.719C2057.58 357.915 2057.58 357.11 2057.58 356.306V353.892V351.478C2056.77 348.259 2056.77 345.041 2055.97 342.627C2052.73 330.558 2048.69 319.293 2042.22 308.833C2035.75 298.373 2028.47 289.522 2019.57 281.476C2010.68 273.43 2000.97 267.798 1990.46 262.97C1979.94 258.142 1969.43 255.728 1958.11 254.119C1952.45 253.314 1947.59 253.314 1941.93 253.314H1940.31H1939.51H1938.7H1937.89H1936.27C1935.46 253.314 1934.65 253.314 1933.84 253.314C1931.42 253.314 1928.18 254.119 1925.76 254.119C1915.24 255.728 1904.73 259.751 1895.83 265.384C1886.94 271.016 1878.85 277.453 1872.38 284.695C1865.91 291.936 1861.06 300.787 1857.82 309.638C1854.59 318.488 1852.97 327.339 1852.16 336.19C1852.16 338.604 1852.16 340.213 1852.16 342.627C1852.16 343.432 1852.16 343.432 1852.16 344.236V345.845C1852.16 346.65 1852.16 348.259 1852.16 349.064C1852.97 353.087 1853.78 357.915 1854.59 361.938C1857.01 369.984 1861.06 377.226 1865.1 383.663C1869.95 390.099 1875.61 394.927 1881.28 398.95C1886.94 402.973 1893.41 406.192 1899.88 407.801C1906.35 409.41 1912.01 410.215 1918.48 410.215C1919.29 410.215 1920.1 410.215 1920.9 410.215H1921.71H1922.52C1923.33 410.215 1924.14 410.215 1924.14 410.215C1924.14 410.215 1924.14 410.215 1924.95 410.215H1925.76H1926.57C1927.37 410.215 1928.18 410.215 1928.99 410.215C1929.8 410.215 1930.61 410.215 1931.42 409.41C1933.04 409.41 1933.84 408.606 1935.46 408.606C1937.89 407.801 1940.31 406.996 1942.74 405.387C1945.17 404.583 1946.78 402.973 1949.21 401.364C1950.02 401.364 1950.02 400.56 1950.83 399.755C1953.25 398.146 1953.25 394.927 1951.64 393.318C1950.02 391.709 1947.59 390.904 1945.98 392.513C1945.17 392.513 1945.17 393.318 1944.36 393.318C1942.74 394.123 1941.12 394.927 1938.7 395.732C1937.08 396.536 1934.65 396.536 1933.04 397.341C1932.23 397.341 1930.61 397.341 1929.8 397.341C1928.99 397.341 1928.99 397.341 1928.18 397.341C1927.37 397.341 1927.37 397.341 1926.57 397.341C1925.76 397.341 1925.76 397.341 1924.95 397.341C1924.14 397.341 1923.33 397.341 1923.33 397.341H1922.52H1921.71C1920.9 397.341 1920.9 397.341 1920.1 397.341C1915.24 396.536 1911.2 395.732 1906.35 393.318C1901.49 391.709 1897.45 388.49 1893.41 385.272C1889.36 382.053 1886.13 377.226 1883.7 373.203C1881.28 369.179 1878.85 363.547 1878.04 357.915C1877.23 355.501 1877.23 352.282 1877.23 349.869C1877.23 349.064 1877.23 348.259 1877.23 347.455V346.65V345.845C1877.23 344.236 1877.23 342.627 1878.04 341.018C1880.47 328.949 1886.13 317.684 1895.83 308.028C1898.26 305.615 1900.69 304.005 1903.11 301.591C1905.54 299.982 1908.77 298.373 1911.2 296.764C1914.43 295.155 1917.67 294.35 1920.1 293.545C1923.33 292.741 1926.57 291.936 1929.8 291.936C1931.42 291.936 1933.04 291.936 1934.65 291.936C1935.46 291.936 1935.46 291.936 1935.46 291.936H1937.08H1937.89H1939.51C1942.74 291.936 1946.78 292.741 1950.02 293.545C1957.3 295.155 1963.77 297.568 1970.24 301.591C1983.18 308.833 1993.69 320.098 2000.97 332.972C2004.21 339.409 2006.63 346.65 2008.25 353.892C2008.25 355.501 2009.06 357.915 2009.06 359.524V361.133V362.742C2009.06 363.547 2009.06 363.547 2009.06 364.352C2009.06 365.156 2009.06 365.156 2009.06 365.961V367.57V369.179C2009.06 369.984 2009.06 371.593 2009.06 372.398C2009.06 374.812 2009.06 376.421 2008.25 378.835C2008.25 380.444 2007.44 382.858 2007.44 384.467C2007.44 386.076 2006.63 388.49 2005.82 390.099C2005.01 394.123 2003.4 398.146 2001.78 401.364C1998.54 408.606 1994.5 415.847 1989.65 423.089C1979.94 435.963 1967 447.227 1951.64 453.664C1944.36 456.883 1936.27 459.297 1928.18 460.906C1924.14 461.71 1920.1 461.711 1916.05 462.515H1915.24H1914.43H1912.82H1911.2H1910.39C1911.2 462.515 1910.39 462.515 1910.39 462.515C1907.96 462.515 1906.35 462.515 1903.92 462.515C1895.02 461.711 1886.13 460.101 1878.04 457.687C1869.95 455.274 1861.06 452.055 1853.78 448.032C1838.41 439.986 1824.66 428.721 1813.34 415.043C1807.68 408.606 1802.83 401.364 1799.59 393.318C1795.55 385.272 1792.31 377.226 1789.89 369.179C1787.46 361.133 1785.84 352.282 1785.84 344.236V342.627V341.822V340.213V335.385V334.581V332.972V332.167C1785.84 331.362 1785.84 329.753 1785.84 328.949C1785.84 324.925 1786.65 320.098 1786.65 316.075C1787.46 312.052 1788.27 307.224 1789.08 303.201C1789.89 299.178 1790.7 294.35 1792.31 290.327C1794.74 282.281 1797.97 274.234 1801.21 266.188C1808.49 250.901 1817.38 237.222 1828.71 226.762C1831.13 224.348 1834.37 221.13 1837.6 218.716C1840.84 216.302 1844.07 213.888 1847.31 212.279C1850.54 209.865 1853.78 208.256 1857.01 206.647C1858.63 205.842 1860.25 205.037 1861.87 204.233C1862.67 204.233 1863.48 203.428 1864.29 203.428C1865.1 203.428 1865.91 202.623 1866.72 202.623C1869.95 201.014 1874 200.21 1877.23 198.6C1878.04 198.6 1878.85 197.796 1879.66 197.796C1880.47 197.796 1881.28 196.991 1882.08 196.991C1883.7 196.187 1886.13 196.187 1887.75 195.382C1888.55 195.382 1889.36 194.577 1890.98 194.577C1891.79 194.577 1892.6 194.577 1894.22 193.773C1895.02 193.773 1895.83 193.773 1897.45 192.968H1899.07H1900.69C1901.49 192.968 1902.3 192.968 1903.92 192.163C1904.73 192.163 1906.35 192.163 1907.16 191.359C1907.96 191.359 1909.58 191.359 1910.39 191.359C1911.2 191.359 1912.01 191.359 1912.82 191.359H1914.43H1915.24H1916.05C1916.86 191.359 1918.48 191.359 1919.29 191.359H1920.9C1920.9 191.359 1921.71 191.359 1920.9 191.359H1921.71C1922.52 191.359 1923.33 191.359 1924.14 191.359C1928.18 191.359 1931.42 191.359 1935.46 191.359C1942.74 191.359 1950.02 192.163 1957.3 193.773C1971.05 196.187 1983.99 201.014 1996.12 206.647C2008.25 212.279 2018.76 219.52 2027.66 227.567C2028.47 228.371 2028.47 228.371 2029.28 229.176C2030.09 229.98 2030.09 229.98 2030.89 230.785C2031.7 231.59 2033.32 232.394 2034.13 234.004C2034.94 235.613 2036.56 235.613 2037.36 237.222C2038.17 238.831 2039.79 239.636 2040.6 240.441C2044.64 244.464 2047.88 248.487 2051.11 253.314C2057.58 261.361 2063.24 270.211 2067.29 278.258C2067.29 279.062 2068.1 279.062 2068.1 279.867C2068.1 280.671 2068.91 280.671 2068.91 281.476C2069.71 282.281 2069.71 283.085 2070.52 284.695C2071.33 285.499 2071.33 286.304 2072.14 287.913C2072.95 288.718 2072.95 289.522 2073.76 291.131C2075.38 295.155 2076.99 298.373 2077.8 301.591C2079.42 307.224 2081.04 312.052 2081.85 316.075C2082.65 317.684 2084.27 319.293 2085.89 318.488C2087.51 318.488 2089.12 316.879 2089.12 315.27C2092.36 305.615 2092.36 299.982 2091.55 294.35Z" fill="#FB9D5A"/>
<path d="M2091.55 294.35C2090.74 287.108 2089.93 278.258 2086.7 268.602C2084.27 258.947 2080.23 248.487 2074.57 237.222C2068.91 225.957 2061.63 214.693 2052.73 203.428C2049.5 199.405 2045.45 194.577 2040.6 190.554C2047.07 164.806 2032.51 143.082 2032.51 143.082C2008.25 141.472 1992.07 150.323 1986.41 155.151C1985.6 155.151 1984.8 154.346 1983.18 153.542C1979.13 151.933 1975.09 150.323 1970.24 148.714C1965.39 147.105 1961.34 146.3 1956.49 144.691C1951.64 143.886 1946.78 143.082 1942.74 142.277C1941.93 142.277 1941.12 142.277 1940.31 142.277C1929.8 108.483 1899.07 94 1899.07 94C1865.1 115.725 1858.63 145.496 1858.63 145.496C1858.63 145.496 1858.63 146.3 1858.63 147.105C1857.01 147.909 1854.59 147.909 1852.97 148.714C1850.54 149.519 1848.12 150.323 1844.88 151.128C1842.46 151.933 1840.03 152.737 1836.79 154.346C1831.94 156.76 1826.28 159.174 1821.43 161.588C1816.58 164.002 1811.72 167.22 1806.87 170.439C1806.06 170.439 1806.06 169.634 1806.06 169.634C1758.35 151.933 1716.29 173.657 1716.29 173.657C1712.25 223.544 1734.89 255.728 1739.74 261.361C1738.94 264.579 1737.32 267.798 1736.51 271.016C1733.27 282.281 1730.04 294.35 1728.42 306.419C1728.42 308.028 1727.61 309.638 1727.61 311.247C1683.94 332.972 1671 377.226 1671 377.226C1707.39 419.066 1750.26 421.48 1750.26 421.48C1755.92 431.135 1761.58 439.986 1768.86 448.837C1772.09 452.055 1775.33 456.078 1777.76 459.297C1764.82 497.114 1779.37 528.494 1779.37 528.494C1819.81 530.103 1846.5 510.792 1852.16 505.965C1856.2 507.574 1860.25 508.378 1864.29 509.988C1876.42 513.206 1889.36 514.815 1902.3 515.62C1905.54 515.62 1908.77 515.62 1912.01 515.62H1913.63H1914.43H1916.05H1917.67C1937.08 542.977 1970.24 547 1970.24 547C1994.5 522.057 1995.31 497.114 1995.31 491.481C1995.31 490.677 1995.31 490.677 1995.31 490.677V489.872C2000.16 486.654 2005.01 482.631 2009.87 478.607C2019.57 469.757 2027.66 460.101 2034.94 449.641C2035.75 448.837 2036.56 448.032 2036.56 446.423C2064.05 448.032 2082.65 429.526 2082.65 429.526C2077.8 401.364 2061.63 387.686 2058.39 385.272C2058.39 385.272 2058.39 385.272 2057.58 385.272C2057.58 383.663 2057.58 382.053 2057.58 380.444C2057.58 377.226 2057.58 374.007 2057.58 371.593V367.57V366.766V365.961C2057.58 365.156 2057.58 365.156 2057.58 365.156V363.547V361.133C2057.58 360.329 2057.58 359.524 2057.58 358.719C2057.58 357.915 2057.58 357.11 2057.58 356.306V353.892V351.478C2056.77 348.259 2056.77 345.041 2055.97 342.627C2052.73 330.558 2048.69 319.293 2042.22 308.833C2035.75 298.373 2028.47 289.522 2019.57 281.476C2010.68 273.43 2000.97 267.798 1990.46 262.97C1979.94 258.142 1969.43 255.728 1958.11 254.119C1952.45 253.314 1947.59 253.314 1941.93 253.314H1940.31H1939.51H1938.7H1937.89H1936.27C1935.46 253.314 1934.65 253.314 1933.84 253.314C1931.42 253.314 1928.18 254.119 1925.76 254.119C1915.24 255.728 1904.73 259.751 1895.83 265.384C1886.94 271.016 1878.85 277.453 1872.38 284.695C1865.91 291.936 1861.06 300.787 1857.82 309.638C1854.59 318.488 1852.97 327.339 1852.16 336.19C1852.16 338.604 1852.16 340.213 1852.16 342.627C1852.16 343.432 1852.16 343.432 1852.16 344.236V345.845C1852.16 346.65 1852.16 348.259 1852.16 349.064C1852.97 353.087 1853.78 357.915 1854.59 361.938C1857.01 369.984 1861.06 377.226 1865.1 383.663C1869.95 390.099 1875.61 394.927 1881.28 398.95C1886.94 402.973 1893.41 406.192 1899.88 407.801C1906.35 409.41 1912.01 410.215 1918.48 410.215C1919.29 410.215 1920.1 410.215 1920.9 410.215H1921.71H1922.52C1923.33 410.215 1924.14 410.215 1924.14 410.215C1924.14 410.215 1924.14 410.215 1924.95 410.215H1925.76H1926.57C1927.37 410.215 1928.18 410.215 1928.99 410.215C1929.8 410.215 1930.61 410.215 1931.42 409.41C1933.04 409.41 1933.84 408.606 1935.46 408.606C1937.89 407.801 1940.31 406.996 1942.74 405.387C1945.17 404.583 1946.78 402.973 1949.21 401.364C1950.02 401.364 1950.02 400.56 1950.83 399.755C1953.25 398.146 1953.25 394.927 1951.64 393.318C1950.02 391.709 1947.59 390.904 1945.98 392.513C1945.17 392.513 1945.17 393.318 1944.36 393.318C1942.74 394.123 1941.12 394.927 1938.7 395.732C1937.08 396.536 1934.65 396.536 1933.04 397.341C1932.23 397.341 1930.61 397.341 1929.8 397.341C1928.99 397.341 1928.99 397.341 1928.18 397.341C1927.37 397.341 1927.37 397.341 1926.57 397.341C1925.76 397.341 1925.76 397.341 1924.95 397.341C1924.14 397.341 1923.33 397.341 1923.33 397.341H1922.52H1921.71C1920.9 397.341 1920.9 397.341 1920.1 397.341C1915.24 396.536 1911.2 395.732 1906.35 393.318C1901.49 391.709 1897.45 388.49 1893.41 385.272C1889.36 382.053 1886.13 377.226 1883.7 373.203C1881.28 369.179 1878.85 363.547 1878.04 357.915C1877.23 355.501 1877.23 352.282 1877.23 349.869C1877.23 349.064 1877.23 348.259 1877.23 347.455V346.65V345.845C1877.23 344.236 1877.23 342.627 1878.04 341.018C1880.47 328.949 1886.13 317.684 1895.83 308.028C1898.26 305.615 1900.69 304.005 1903.11 301.591C1905.54 299.982 1908.77 298.373 1911.2 296.764C1914.43 295.155 1917.67 294.35 1920.1 293.545C1923.33 292.741 1926.57 291.936 1929.8 291.936C1931.42 291.936 1933.04 291.936 1934.65 291.936C1935.46 291.936 1935.46 291.936 1935.46 291.936H1937.08H1937.89H1939.51C1942.74 291.936 1946.78 292.741 1950.02 293.545C1957.3 295.155 1963.77 297.568 1970.24 301.591C1983.18 308.833 1993.69 320.098 2000.97 332.972C2004.21 339.409 2006.63 346.65 2008.25 353.892C2008.25 355.501 2009.06 357.915 2009.06 359.524V361.133V362.742C2009.06 363.547 2009.06 363.547 2009.06 364.352C2009.06 365.156 2009.06 365.156 2009.06 365.961V367.57V369.179C2009.06 369.984 2009.06 371.593 2009.06 372.398C2009.06 374.812 2009.06 376.421 2008.25 378.835C2008.25 380.444 2007.44 382.858 2007.44 384.467C2007.44 386.076 2006.63 388.49 2005.82 390.099C2005.01 394.123 2003.4 398.146 2001.78 401.364C1998.54 408.606 1994.5 415.847 1989.65 423.089C1979.94 435.963 1967 447.227 1951.64 453.664C1944.36 456.883 1936.27 459.297 1928.18 460.906C1924.14 461.71 1920.1 461.711 1916.05 462.515H1915.24H1914.43H1912.82H1911.2H1910.39C1911.2 462.515 1910.39 462.515 1910.39 462.515C1907.96 462.515 1906.35 462.515 1903.92 462.515C1895.02 461.711 1886.13 460.101 1878.04 457.687C1869.95 455.274 1861.06 452.055 1853.78 448.032C1838.41 439.986 1824.66 428.721 1813.34 415.043C1807.68 408.606 1802.83 401.364 1799.59 393.318C1795.55 385.272 1792.31 377.226 1789.89 369.179C1787.46 361.133 1785.84 352.282 1785.84 344.236V342.627V341.822V340.213V335.385V334.581V332.972V332.167C1785.84 331.362 1785.84 329.753 1785.84 328.949C1785.84 324.925 1786.65 320.098 1786.65 316.075C1787.46 312.052 1788.27 307.224 1789.08 303.201C1789.89 299.178 1790.7 294.35 1792.31 290.327C1794.74 282.281 1797.97 274.234 1801.21 266.188C1808.49 250.901 1817.38 237.222 1828.71 226.762C1831.13 224.348 1834.37 221.13 1837.6 218.716C1840.84 216.302 1844.07 213.888 1847.31 212.279C1850.54 209.865 1853.78 208.256 1857.01 206.647C1858.63 205.842 1860.25 205.037 1861.87 204.233C1862.67 204.233 1863.48 203.428 1864.29 203.428C1865.1 203.428 1865.91 202.623 1866.72 202.623C1869.95 201.014 1874 200.21 1877.23 198.6C1878.04 198.6 1878.85 197.796 1879.66 197.796C1880.47 197.796 1881.28 196.991 1882.08 196.991C1883.7 196.187 1886.13 196.187 1887.75 195.382C1888.55 195.382 1889.36 194.577 1890.98 194.577C1891.79 194.577 1892.6 194.577 1894.22 193.773C1895.02 193.773 1895.83 193.773 1897.45 192.968H1899.07H1900.69C1901.49 192.968 1902.3 192.968 1903.92 192.163C1904.73 192.163 1906.35 192.163 1907.16 191.359C1907.96 191.359 1909.58 191.359 1910.39 191.359C1911.2 191.359 1912.01 191.359 1912.82 191.359H1914.43H1915.24H1916.05C1916.86 191.359 1918.48 191.359 1919.29 191.359H1920.9C1920.9 191.359 1921.71 191.359 1920.9 191.359H1921.71C1922.52 191.359 1923.33 191.359 1924.14 191.359C1928.18 191.359 1931.42 191.359 1935.46 191.359C1942.74 191.359 1950.02 192.163 1957.3 193.773C1971.05 196.187 1983.99 201.014 1996.12 206.647C2008.25 212.279 2018.76 219.52 2027.66 227.567C2028.47 228.371 2028.47 228.371 2029.28 229.176C2030.09 229.98 2030.09 229.98 2030.89 230.785C2031.7 231.59 2033.32 232.394 2034.13 234.004C2034.94 235.613 2036.56 235.613 2037.36 237.222C2038.17 238.831 2039.79 239.636 2040.6 240.441C2044.64 244.464 2047.88 248.487 2051.11 253.314C2057.58 261.361 2063.24 270.211 2067.29 278.258C2067.29 279.062 2068.1 279.062 2068.1 279.867C2068.1 280.671 2068.91 280.671 2068.91 281.476C2069.71 282.281 2069.71 283.085 2070.52 284.695C2071.33 285.499 2071.33 286.304 2072.14 287.913C2072.95 288.718 2072.95 289.522 2073.76 291.131C2075.38 295.155 2076.99 298.373 2077.8 301.591C2079.42 307.224 2081.04 312.052 2081.85 316.075C2082.65 317.684 2084.27 319.293 2085.89 318.488C2087.51 318.488 2089.12 316.879 2089.12 315.27C2092.36 305.615 2092.36 299.982 2091.55 294.35Z" fill="url(#paint2_linear)"/>
<defs>
<radialGradient id="paint0_radial" cx="0" cy="0" r="1" gradientUnits="userSpaceOnUse" gradientTransform="translate(969.5 641) rotate(-90) scale(641 2153)">
<stop stop-color="#FE9968"/>
<stop offset="1" stop-color="#FE9968" stop-opacity="0"/>
</radialGradient>
<linearGradient id="paint1_linear" x1="0.5" y1="62" x2="0.5" y2="534" gradientUnits="userSpaceOnUse">
<stop stop-color="#FB755A"/>
<stop offset="1" stop-color="#FB755A" stop-opacity="0"/>
</linearGradient>
<linearGradient id="paint2_linear" x1="1881.5" y1="46" x2="1897.65" y2="477.395" gradientUnits="userSpaceOnUse">
<stop stop-color="#FB755A"/>
<stop offset="1" stop-color="#FB755A" stop-opacity="0"/>
</linearGradient>
</defs>
</svg>
