<svg width="27" height="27" viewBox="0 0 27 27" fill="none" xmlns="http://www.w3.org/2000/svg">
<circle cx="13.4466" cy="13.4462" r="12.913" fill="white"/>
<path d="M13.5 0C6.04442 0 0 6.04362 0 13.5C0 20.9564 6.04442 27 13.5 27C20.9556 27 27 20.9556 27 13.5C27 6.04443 20.9556 0 13.5 0ZM13.5 25.2666C11.3788 25.2666 9.65913 23.8498 9.65913 22.1018H17.3409C17.3409 23.8489 15.6204 25.2666 13.5 25.2666ZM19.8441 21.0541H7.15428V18.752H19.836V21.0541H19.8441ZM19.7989 17.5687H7.19144L7.06623 17.4233C5.76736 15.8457 5.46123 15.0226 5.16478 14.1842C5.15993 14.1567 6.7399 14.5073 7.86026 14.7593C8.33125 14.8649 8.80443 14.9605 9.27948 15.046C8.47011 14.0977 7.9895 12.8918 7.9895 11.6591C7.9895 8.95315 10.0654 6.58805 9.31583 4.6769C10.0444 4.73586 10.8239 6.21486 10.8764 8.52746C11.6519 7.45719 11.975 5.50162 11.975 4.30291C11.975 3.06139 12.7932 1.61955 13.6107 1.57027C12.8813 2.77221 13.7997 3.80291 14.6155 6.35864C14.9225 7.31987 14.8821 8.93538 15.1187 9.9588C15.1971 7.83037 15.563 4.72456 16.9136 3.65347C16.3183 5.00242 17.0024 6.69305 17.4693 7.50485C18.2237 8.81502 18.6809 9.80695 18.6809 11.6858C18.6809 12.9459 18.2165 14.13 17.4321 15.0565C18.3239 14.8893 18.9394 14.7383 18.9394 14.7383L21.8344 14.1729C21.8344 14.1729 21.4144 15.9015 19.7973 17.5687H19.7989Z" fill="#DA4E31"/>
</svg>
