<svg id="Layer_1" data-name="Layer 1" xmlns="http://www.w3.org/2000/svg" xmlns:xlink="http://www.w3.org/1999/xlink" viewBox="0 0 77 32"><defs><style>.cls-1{fill:#393946;}.cls-2{fill:#fff;}.cls-3{fill:#da4e31;}.cls-4{fill:url(#linear-gradient);}</style><linearGradient id="linear-gradient" x1="63.5" y1="-4.5669" x2="63.5" y2="21.9586" gradientTransform="matrix(1, 0, 0, -1, 0, 34)" gradientUnits="userSpaceOnUse"><stop offset="0" stop-color="#fff100"/><stop offset="1" stop-color="#f05a28"/></linearGradient></defs><path class="cls-1" d="M38.7955,22.636h1.3966V18.16H44.668V16.7717H40.1921V12.2958H38.7955v4.4759H34.32V18.16h4.4759Z"/><circle class="cls-2" cx="13.4466" cy="17.4462" r="12.913"/><path class="cls-3" d="M13.5,4A13.5,13.5,0,1,0,27,17.5,13.5,13.5,0,0,0,13.5,4Zm0,25.2666c-2.1212,0-3.8409-1.4168-3.8409-3.1648h7.6818c0,1.7472-1.7205,3.1648-3.8409,3.1648Zm6.3441-4.2125H7.1543V22.752H19.836v2.3021Zm-.0452-3.4854H7.1914l-.1252-.1454a9.1923,9.1923,0,0,1-1.9014-3.2391c-.0049-.0275,1.5751.3231,2.6955.5751q.7065.1584,1.4192.2867a5.266,5.266,0,0,1-1.29-3.3869c0-2.706,2.0759-5.0711,1.3263-6.9822.7286.059,1.5081,1.538,1.5606,3.8506A8.2588,8.2588,0,0,0,11.975,8.3029c0-1.2415.8182-2.6833,1.6357-2.7326-.7294,1.2019.189,2.2326,1.0048,4.7883.307.9613.2666,2.5768.5032,3.6.0784-2.1284.4443-5.2342,1.7949-6.3053a4.6639,4.6639,0,0,0,.5557,3.8513,7.2968,7.2968,0,0,1,1.2116,4.181,5.2179,5.2179,0,0,1-1.2488,3.3707c.8918-.1672,1.5073-.3182,1.5073-.3182l2.895-.5654a8.21,8.21,0,0,1-2.0371,3.3958Z"/><path class="cls-4" d="M76.9712,15.8259a7.53,7.53,0,0,0-.3112-1.6483,9.9,9.9,0,0,0-.778-2.0089,12.7329,12.7329,0,0,0-1.4005-2.1634,5.674,5.674,0,0,0-.778-.8241,4.1258,4.1258,0,0,0-.5186-3.0391,4.2991,4.2991,0,0,0-2.9565.7726c-.0519,0-.1037-.0515-.2075-.103-.2593-.103-.5187-.206-.83-.309s-.57-.1546-.8817-.2576c-.3112-.0515-.6224-.103-.8818-.1545h-.1556A5.4818,5.4818,0,0,0,64.6267,3a5.8036,5.8036,0,0,0-2.5934,3.2966V6.4c-.1037.0515-.2593.0515-.3631.1031-.1556.0515-.3112.103-.5187.1545a3.5876,3.5876,0,0,0-.5186.206c-.3112.1546-.6743.3091-.9855.4636a9.035,9.035,0,0,0-.9336.5666.0506.0506,0,0,1-.0519-.0515A7.71,7.71,0,0,0,52.9046,8.1a8.0893,8.0893,0,0,0,1.5042,5.6145c-.0519.2061-.1556.4121-.2075.6181a16.0133,16.0133,0,0,0-.5187,2.2665c0,.103-.0519.206-.0519.309A7.5228,7.5228,0,0,0,50,21.1314a7.9643,7.9643,0,0,0,5.083,2.8331,13.0707,13.0707,0,0,0,1.193,1.7513,6.5314,6.5314,0,0,1,.57.67,6.3951,6.3951,0,0,0,.1038,4.43,7.0812,7.0812,0,0,0,4.6681-1.4423c.2593.103.5186.1545.778.2576a12.6469,12.6469,0,0,0,2.4378.36H65.82A5.2981,5.2981,0,0,0,69.191,32a5.1531,5.1531,0,0,0,1.6079-3.5542v-.103a11.3841,11.3841,0,0,0,.9336-.7211A10.8818,10.8818,0,0,0,73.34,25.7673a.2669.2669,0,0,0,.1038-.206A4.1765,4.1765,0,0,0,76.4006,24.48a4.5271,4.5271,0,0,0-1.556-2.8331h-.0518V19.4831c-.0519-.206-.0519-.4121-.1038-.5666a7.5807,7.5807,0,0,0-2.334-3.9147,7.1429,7.1429,0,0,0-1.8673-1.1847A7.2991,7.2991,0,0,0,68.413,13.25a7,7,0,0,0-1.0373-.0515H66.857c-.1556,0-.3631.0515-.5187.0515a5.1,5.1,0,0,0-1.9191.7212,7.114,7.114,0,0,0-1.5042,1.2362,4.98,4.98,0,0,0-.9336,1.5968,6.6451,6.6451,0,0,0-.363,1.7v.8242c.0518.2575.1037.5666.1556.8242a5.784,5.784,0,0,0,.6742,1.3907,4.601,4.601,0,0,0,1.0374.9787,3.6209,3.6209,0,0,0,1.193.5666,4.74,4.74,0,0,0,1.1929.1545h.6743a.1915.1915,0,0,0,.1556-.0515c.1037,0,.1556-.0515.2593-.0515a1.849,1.849,0,0,0,.4668-.206,1.8191,1.8191,0,0,0,.415-.2576c.0518,0,.0518-.0515.1037-.103a.2713.2713,0,0,0,.0519-.4121.2575.2575,0,0,0-.3631-.0515c-.0519,0-.0519.0515-.1037.0515a2.5412,2.5412,0,0,1-.3631.1546c-.1037.0515-.2593.0515-.3631.103h-.83a2.859,2.859,0,0,1-.8817-.2576,2.7876,2.7876,0,0,1-.83-.5151,2.9221,2.9221,0,0,1-.6224-.7726,2.75,2.75,0,0,1-.3631-.9787,1.7429,1.7429,0,0,1-.0518-.5151v-.2575a.65.65,0,0,1,.0518-.3091,4.0555,4.0555,0,0,1,1.1411-2.1119c.1556-.1545.3112-.2576.4668-.4121.1556-.103.3631-.206.5187-.309a3.9489,3.9489,0,0,1,.57-.2061,2.6211,2.6211,0,0,1,.6225-.103H67.22a3.055,3.055,0,0,1,.6742.103,4.0168,4.0168,0,0,1,1.2967.5151,5.2553,5.2553,0,0,1,1.971,2.0089,5.8537,5.8537,0,0,1,.4668,1.3393c0,.103.0519.2575.0519.3605v.8242a1.1265,1.1265,0,0,1-.0519.4121c0,.103-.0518.2575-.0518.36a.95.95,0,0,1-.1038.3606,2.9678,2.9678,0,0,1-.2593.7211,9.3654,9.3654,0,0,1-.778,1.3908,6.0415,6.0415,0,0,1-2.4378,1.9574,7.2891,7.2891,0,0,1-1.5042.4636c-.2593.0515-.5187.0515-.778.103h-.778a8.5989,8.5989,0,0,1-1.66-.3091,8.1547,8.1547,0,0,1-1.556-.6181,8.4929,8.4929,0,0,1-2.5934-2.1119,4.8778,4.8778,0,0,1-.8817-1.3908,9.6233,9.6233,0,0,1-.6224-1.5453,5.7043,5.7043,0,0,1-.2594-1.5968v-.9786c0-.2576.0519-.5667.0519-.8242.0519-.2576.1037-.5666.1556-.8242a4.7916,4.7916,0,0,1,.2074-.8241c.1557-.5151.3631-1.03.5706-1.5453a8.1776,8.1776,0,0,1,1.7635-2.524,5.6716,5.6716,0,0,1,.5705-.5151,4.3391,4.3391,0,0,1,.6225-.4121,3.8709,3.8709,0,0,1,.6224-.3605l.3112-.1546c.0518,0,.1037-.0515.1556-.0515s.1037-.0515.1556-.0515c.2075-.103.4668-.1545.6743-.2575.0518,0,.1037-.0515.1556-.0515s.1037-.0515.1556-.0515c.1037-.0516.2593-.0516.363-.1031.0519,0,.1038-.0515.2075-.0515a1896.2362,1896.2362,0,0,0,.4149-.103H64.73a.3943.3943,0,0,0,.2075-.0515.3137.3137,0,0,0,.2075-.0515h1.8153a6.4819,6.4819,0,0,1,1.4.1545,10.085,10.085,0,0,1,2.49.8242,8.0976,8.0976,0,0,1,2.0228,1.3392l.1038.103.1037.1031c.0519.0515.1556.103.2075.206s.1556.103.2075.206.1556.1546.2074.2061a5.2064,5.2064,0,0,1,.6743.8241,9.2832,9.2832,0,0,1,1.0374,1.5968c0,.0515.0518.0515.0518.1031s.0519.0515.0519.103c.0519.0515.0519.103.1037.206.0519.0515.0519.103.1038.2061.0518.0515.0518.103.1037.206a5.7449,5.7449,0,0,1,.2593.67c.1038.3606.2075.67.2594.9272.0519.103.1556.206.2593.1545a.2223.2223,0,0,0,.2075-.206A2.6362,2.6362,0,0,0,76.9712,15.8259Z"/></svg>