<svg xmlns="http://www.w3.org/2000/svg" width="845.062" height="238.36" viewBox="0 0 845.062 238.36"><g transform="translate(-841.001 -6520.999)"><g transform="translate(-989.029 6131.578)"><path d="M2531.775,487.76a16.7,16.7,0,1,1,16.7-16.7A16.716,16.716,0,0,1,2531.775,487.76Z" transform="translate(58.284 0)" fill="#8ab8ff"/><path d="M2541.825,487.76a16.7,16.7,0,1,1,16.7-16.7A16.723,16.723,0,0,1,2541.825,487.76Z" transform="translate(116.566 0)" fill="#8ab8ff"/><path d="M2521.73,497.81a16.7,16.7,0,1,1,16.705-16.7A16.717,16.717,0,0,1,2521.73,497.81Z" transform="translate(0.001 58.28)" fill="#8ab8ff"/><path d="M2531.775,497.81a16.7,16.7,0,1,1,16.7-16.7A16.715,16.715,0,0,1,2531.775,497.81Z" transform="translate(58.284 58.28)" fill="#8ab8ff"/><path d="M2541.825,497.81a16.7,16.7,0,1,1,16.7-16.7A16.723,16.723,0,0,1,2541.825,497.81Z" transform="translate(116.566 58.28)" fill="#8ab8ff"/><path d="M2521.73,507.855a16.7,16.7,0,1,1,16.705-16.707A16.723,16.723,0,0,1,2521.73,507.855Z" transform="translate(0.001 116.566)" fill="#8ab8ff"/><path d="M2531.775,507.855a16.7,16.7,0,1,1,16.7-16.707A16.721,16.721,0,0,1,2531.775,507.855Z" transform="translate(58.284 116.566)" fill="#8ab8ff"/></g><path d="M2897.531,454.359a85.5,85.5,0,1,0,85.5,85.5A85.593,85.593,0,0,0,2897.531,454.359Zm0,124.366A38.865,38.865,0,1,1,2936.4,539.86,38.867,38.867,0,0,1,2897.531,578.725Z" transform="translate(-1971.03 6066.64)" fill="#edf4ff"/><rect width="15" height="15" transform="translate(871.029 6744.359)" fill="#00e5b9"/></g></svg>