<svg xmlns="http://www.w3.org/2000/svg" width="147.5" height="238.5" viewBox="0 0 147.5 238.5"><g transform="translate(-1531.001 -10028.5)"><g transform="translate(-1073.029 9574.141)"><path d="M2638.609,483.328a14.485,14.485,0,1,1,14.485-14.485A14.5,14.5,0,0,1,2638.609,483.328Z" transform="translate(98.435 0)" fill="#f24965"/><path d="M2628.56,493.378a14.487,14.487,0,1,1,14.484-14.484A14.5,14.5,0,0,1,2628.56,493.378Z" transform="translate(49.221 49.216)" fill="#f24965"/><path d="M2618.515,503.423A14.487,14.487,0,1,1,2633,488.933,14.5,14.5,0,0,1,2618.515,503.423Z" transform="translate(0 98.436)" fill="#f24965"/></g><g transform="translate(-1073.029 9665.141)"><path d="M2638.609,483.328a14.485,14.485,0,1,1,14.485-14.485A14.5,14.5,0,0,1,2638.609,483.328Z" transform="translate(98.435 0)" fill="#f24965"/><path d="M2628.56,493.378a14.487,14.487,0,1,1,14.484-14.484A14.5,14.5,0,0,1,2628.56,493.378Z" transform="translate(49.221 49.216)" fill="#f24965"/><path d="M2618.515,503.423A14.487,14.487,0,1,1,2633,488.933,14.5,14.5,0,0,1,2618.515,503.423Z" transform="translate(0 98.436)" fill="#f24965"/></g></g></svg>