<svg xmlns="http://www.w3.org/2000/svg" width="172.522" height="145" viewBox="0 0 172.522 145"><g transform="translate(-1460.998 -8861.5)"><path d="M2719.159,547.3a11.131,11.131,0,0,1-7.87-19l54.095-54.1a11.457,11.457,0,0,1,15.739,0l34.2,34.21,46.225-46.231a11.129,11.129,0,1,1,15.739,15.739l-54.094,54.1a11.457,11.457,0,0,1-15.739,0l-34.2-34.2-46.226,46.225A11.088,11.088,0,0,1,2719.159,547.3Z" transform="translate(-1247.031 8402.582)" fill="#ff9830"/><path d="M3414.939,474.109a6.591,6.591,0,0,1,13.182,0h7.909a14.5,14.5,0,0,0-29,0Z" transform="translate(-1876.029 8532.391)" fill="#fbca0a"/></g></svg>