<svg width="102" height="102" viewBox="0 0 102 102" fill="none" xmlns="http://www.w3.org/2000/svg">
<circle cx="51" cy="51" r="51" fill="#FDD9BE"/>
<g clip-path="url(#clip0_17497_14126)">
<path d="M35.0191 64.511C37.8607 64.511 40.2964 62.0753 40.2964 59.2336C40.2964 56.392 37.8607 53.9563 35.0191 53.9563C32.1774 53.9563 29.7417 56.392 29.7417 59.2336C29.7417 62.2782 32.1774 64.511 35.0191 64.511Z" fill="#FBC55A" stroke="#FB9D5A" stroke-width="3.04463" stroke-linecap="round" stroke-linejoin="round"/>
<path d="M41.7167 69.1794C40.0929 67.1496 37.6572 66.1348 35.2215 66.1348C32.5829 66.1348 30.3501 67.1496 28.7263 69.1794" stroke="#FB9D5A" stroke-width="3.04463" stroke-linecap="round" stroke-linejoin="round"/>
<path d="M51.2566 64.511C54.0983 64.511 56.534 62.0753 56.534 59.2336C56.534 56.392 54.0983 53.9563 51.2566 53.9563C48.415 53.9563 45.9792 56.392 45.9792 59.2336C45.9792 62.2782 48.415 64.511 51.2566 64.511Z" fill="#FBC55A" stroke="#FB9D5A" stroke-width="3.04463" stroke-linecap="round" stroke-linejoin="round"/>
<path d="M57.9559 69.1794C56.332 67.1496 53.8963 66.1348 51.2577 66.1348C48.619 66.1348 46.3863 67.1496 44.7625 69.1794" stroke="#FB9D5A" stroke-width="3.04463" stroke-linecap="round" stroke-linejoin="round"/>
<path d="M67.4951 64.511C70.3368 64.511 72.7725 62.0753 72.7725 59.2336C72.7725 56.392 70.3368 53.9563 67.4951 53.9563C64.6535 53.9563 62.2178 56.392 62.2178 59.2336C62.2178 62.2782 64.6535 64.511 67.4951 64.511Z" fill="#FBC55A" stroke="#FB9D5A" stroke-width="3.04463" stroke-linecap="round" stroke-linejoin="round"/>
<path d="M74.1928 69.1794C72.569 67.1496 70.1333 66.1348 67.6976 66.1348C65.0589 66.1348 62.8262 67.1496 61.2024 69.1794" stroke="#FB9D5A" stroke-width="3.04463" stroke-linecap="round" stroke-linejoin="round"/>
<path d="M43.1394 44.2134C45.9811 44.2134 48.4168 41.7777 48.4168 38.9361C48.4168 36.0944 45.9811 33.6587 43.1394 33.6587C40.2978 33.6587 37.8621 36.0944 37.8621 38.9361C37.8621 41.9807 40.2978 44.2134 43.1394 44.2134Z" fill="#FBC55A" stroke="#FB9D5A" stroke-width="3.04463" stroke-linecap="round" stroke-linejoin="round"/>
<path d="M49.8371 48.8819C48.2133 46.8521 45.7776 45.8372 43.3419 45.8372C40.7032 45.8372 38.4705 46.8521 36.8467 48.8819" stroke="#FB9D5A" stroke-width="3.04463" stroke-linecap="round" stroke-linejoin="round"/>
<path d="M59.377 44.2134C62.2186 44.2134 64.6543 41.7777 64.6543 38.9361C64.6543 36.0944 62.2186 33.6587 59.377 33.6587C56.5353 33.6587 54.0996 36.0944 54.0996 38.9361C54.0996 41.9807 56.5353 44.2134 59.377 44.2134Z" fill="#FBC55A" stroke="#FB9D5A" stroke-width="3.04463" stroke-linecap="round" stroke-linejoin="round"/>
<path d="M66.0756 48.8819C64.4518 46.8521 62.0161 45.8372 59.5804 45.8372C56.9417 45.8372 54.709 46.8521 53.0852 48.8819" stroke="#FB9D5A" stroke-width="3.04463" stroke-linecap="round" stroke-linejoin="round"/>
<path d="M51.2568 17.6237V24.5248" stroke="#FBC55A" stroke-width="3.04463" stroke-linecap="round" stroke-linejoin="round"/>
<path d="M65.4648 21.6832L59.3755 26.5546" stroke="#FBC55A" stroke-width="3.04463" stroke-linecap="round" stroke-linejoin="round"/>
<path d="M37.0491 21.6832L43.1383 26.5546" stroke="#FBC55A" stroke-width="3.04463" stroke-linecap="round" stroke-linejoin="round"/>
<path d="M34.2088 28.3815C26.4958 33.6588 21.4214 42.5898 21.4214 52.7385C21.4214 69.1795 34.8178 82.5759 51.2588 82.5759C67.6998 82.5759 81.0962 69.1795 81.0962 52.7385C81.0962 42.5898 76.0218 33.6588 68.3087 28.3815" stroke="#FB9D5A" stroke-width="3.04463" stroke-linecap="round" stroke-linejoin="round"/>
</g>
<defs>
<clipPath id="clip0_17497_14126">
<rect width="62.5164" height="67.9968" fill="white" transform="translate(20 16)"/>
</clipPath>
</defs>
</svg>
