<svg width="102" height="102" viewBox="0 0 102 102" fill="none" xmlns="http://www.w3.org/2000/svg">
<circle cx="51" cy="51" r="51" fill="#FDE8BE"/>
<path d="M59.1872 80.3939H41.75L43.5855 70.2987H57.3517L59.1872 80.3939Z" stroke="#FB9D5A" stroke-width="3" stroke-linecap="round" stroke-linejoin="round"/>
<path d="M36.7012 80.3939H64.2336" stroke="#FB9D5A" stroke-width="3" stroke-linecap="round" stroke-linejoin="round"/>
<path d="M24.7705 63.645H76.3939" stroke="#FB9D5A" stroke-width="3" stroke-linecap="round" stroke-linejoin="round"/>
<path d="M38.1169 30.8354H31.6526C27.7522 30.8354 24.7695 33.8181 24.7695 37.7186V63.4155C24.7695 67.316 27.7522 70.2987 31.6526 70.2987H69.5098C73.4102 70.2987 76.3929 67.316 76.3929 63.4155V37.7186C76.3929 33.8181 73.4102 30.8354 69.5098 30.8354H63.0455" stroke="#FB9D5A" stroke-width="3" stroke-linecap="round" stroke-linejoin="round"/>
<path d="M47.334 46.5916V51.45" stroke="#FBC55A" stroke-width="3" stroke-linecap="round" stroke-linejoin="round"/>
<path d="M53.959 46.5916V56.5291" stroke="#FBC55A" stroke-width="3" stroke-linecap="round" stroke-linejoin="round"/>
<path d="M45.5667 40.4083H39.6042C39.1625 40.4083 38.9417 40.1875 38.7208 39.9667C38.5 39.7458 38.5 39.3042 38.5 39.0833C39.6042 35.7708 42.2542 33.3417 45.5667 32.2375" fill="#FBC55A"/>
<path d="M45.5667 40.4083H39.6042C39.1625 40.4083 38.9417 40.1875 38.7208 39.9667C38.5 39.7458 38.5 39.3042 38.5 39.0833C39.6042 35.7708 42.2542 33.3417 45.5667 32.2375" stroke="#FB9D5A" stroke-width="3" stroke-linecap="round" stroke-linejoin="round"/>
<path d="M55.5039 40.4083H61.6872C62.1289 40.4083 62.3497 40.1875 62.5706 39.9667C62.7914 39.7458 62.7914 39.3042 62.7914 39.0833C61.6872 35.7708 58.8164 33.1208 55.5039 32.2375" fill="#FBC55A"/>
<path d="M55.5039 40.4083H61.6872C62.1289 40.4083 62.3497 40.1875 62.5706 39.9667C62.7914 39.7458 62.7914 39.3042 62.7914 39.0833C61.6872 35.7708 58.8164 33.1208 55.5039 32.2375" stroke="#FB9D5A" stroke-width="3" stroke-linecap="round" stroke-linejoin="round"/>
<path d="M55.5039 24.0667C55.5039 20.0917 50.6456 17 50.6456 17C50.6456 17 45.5664 20.0917 45.5664 24.0667V40.6292H55.5039V24.0667Z" fill="#FBC55A" stroke="#FB9D5A" stroke-width="3" stroke-linecap="round" stroke-linejoin="round"/>
</svg>
