<svg id="Layer_1" xmlns="http://www.w3.org/2000/svg" width="238" height="218" viewBox="0 0 238 218"><style>.st0{fill:url(#SVGID_1_)}.st1{fill:url(#SVGID_2_)}.st2{fill:url(#SVGID_3_)}.st3{fill:url(#SVGID_4_)}.st4{fill:url(#SVGID_5_)}.st5{fill:url(#SVGID_6_)}.st6{fill:url(#SVGID_7_)}.st7{fill:url(#SVGID_8_)}.st8{fill:url(#SVGID_9_)}.st9{fill:url(#SVGID_10_)}.st10{fill:url(#SVGID_11_)}.st11{fill:url(#SVGID_12_)}.st12{fill:url(#SVGID_13_)}.st13{fill:url(#SVGID_14_)}.st14{fill:url(#SVGID_15_)}.st15{fill:url(#SVGID_16_)}.st16{fill:url(#SVGID_17_)}.st17{fill:url(#SVGID_18_)}</style><linearGradient id="SVGID_1_" gradientUnits="userSpaceOnUse" x1="173.472" y1="254.703" x2="173.472" y2="-19.004"><stop offset="0" stop-color="#fff200"/><stop offset="1" stop-color="#f15a29"/></linearGradient><path class="st0" d="M177 160l3.5 3.5c-7 7-14.9 12.4-23.4 16.4l-37.7 37.7c9.8 0 19.3-1.4 28.3-3.8l76.1-76.1c2.5-9 3.8-18.5 3.8-28.3L177 160z"/><linearGradient id="SVGID_2_" gradientUnits="userSpaceOnUse" x1="143.295" y1="254.703" x2="143.295" y2="-19.004"><stop offset="0" stop-color="#fff200"/><stop offset="1" stop-color="#f15a29"/></linearGradient><path class="st1" d="M113.1 96.1l46.3-46.3 26.4-26.4c-4.6-3.6-9.5-6.9-14.7-9.7l-23.9 23.9-46.3 46.3 12.2 12.2z"/><linearGradient id="SVGID_3_" gradientUnits="userSpaceOnUse" x1="39.515" y1="254.703" x2="39.515" y2="-19.004"><stop offset="0" stop-color="#fff200"/><stop offset="1" stop-color="#f15a29"/></linearGradient><path class="st2" d="M46.5 138.2L23.7 161c2.8 5.2 6.1 10.1 9.7 14.7l22-22c-3.6-4.8-6.6-10.1-8.9-15.5z"/><linearGradient id="SVGID_4_" gradientUnits="userSpaceOnUse" x1="47.407" y1="254.703" x2="47.407" y2="-19.004"><stop offset="0" stop-color="#fff200"/><stop offset="1" stop-color="#f15a29"/></linearGradient><path class="st3" d="M57.6 180.9c-2.9 0-5.9-1.1-8.1-3.4-2.4-2.4-3.5-5.5-3.3-8.7l-10.1 10.1c3.7 4.4 7.8 8.5 12.2 12.3l10.5-10.5c-.4.2-.8.2-1.2.2z"/><linearGradient id="SVGID_5_" gradientUnits="userSpaceOnUse" x1="158.7" y1="254.703" x2="158.7" y2="-19.004"><stop offset="0" stop-color="#fff200"/><stop offset="1" stop-color="#f15a29"/></linearGradient><path class="st4" d="M128.3 111.3l4.9-4.9 68.1-68.1c-3.8-4.4-7.9-8.4-12.3-12.2l-68 68-4.9 4.9 12.2 12.3z"/><linearGradient id="SVGID_6_" gradientUnits="userSpaceOnUse" x1="172.576" y1="254.703" x2="172.576" y2="-19.004"><stop offset="0" stop-color="#fff200"/><stop offset="1" stop-color="#f15a29"/></linearGradient><path class="st5" d="M143.5 126.5l45.6-45.6 24.7-24.7c-2.9-5.2-6.2-10-9.8-14.6l-27.9 27.9-44.9 44.9 12.3 12.1z"/><linearGradient id="SVGID_7_" gradientUnits="userSpaceOnUse" x1="70.378" y1="254.703" x2="70.378" y2="-19.004"><stop offset="0" stop-color="#fff200"/><stop offset="1" stop-color="#f15a29"/></linearGradient><path class="st6" d="M73.6 171.9L51.5 194c4.6 3.6 9.5 6.9 14.6 9.8l23.1-23.1c-5.4-2.2-10.6-5.2-15.6-8.8z"/><linearGradient id="SVGID_8_" gradientUnits="userSpaceOnUse" x1="119.725" y1="254.703" x2="119.725" y2="-19.004"><stop offset="0" stop-color="#fff200"/><stop offset="1" stop-color="#f15a29"/></linearGradient><path class="st7" d="M118.9 187.6l-26.7 26.7c6.8 1.7 13.9 2.8 21.2 3.2l33.7-33.7c-9.1 2.8-18.6 4.1-28.2 3.8z"/><linearGradient id="SVGID_9_" gradientUnits="userSpaceOnUse" x1="194.589" y1="254.703" x2="194.589" y2="-19.004"><stop offset="0" stop-color="#fff200"/><stop offset="1" stop-color="#f15a29"/></linearGradient><path class="st8" d="M174 157l4.9-4.9 48.5-48.5c-.4-7.3-1.5-14.4-3.2-21.2L166.6 140l-4.9 4.9L174 157z"/><linearGradient id="SVGID_10_" gradientUnits="userSpaceOnUse" x1="26.84" y1="254.703" x2="26.84" y2="-19.004"><stop offset="0" stop-color="#fff200"/><stop offset="1" stop-color="#f15a29"/></linearGradient><path class="st9" d="M43.2 80.6l-32.7 32.7c.3 7.4 1.3 14.5 3 21.4l26.1-26.1c-.4-9.4.8-18.9 3.6-28z"/><linearGradient id="SVGID_11_" gradientUnits="userSpaceOnUse" x1="107.563" y1="254.703" x2="107.563" y2="-19.004"><stop offset="0" stop-color="#fff200"/><stop offset="1" stop-color="#f15a29"/></linearGradient><path class="st10" d="M82.6 65.6l4.9-4.9 57.2-57.2c-6.9-1.7-14.1-2.7-21.4-3l-48 48-4.9 4.9 12.2 12.2z"/><linearGradient id="SVGID_12_" gradientUnits="userSpaceOnUse" x1="202.433" y1="254.703" x2="202.433" y2="-19.004"><stop offset="0" stop-color="#fff200"/><stop offset="1" stop-color="#f15a29"/></linearGradient><path class="st11" d="M190.7 97.4c2.5 2.5 3.6 5.9 3.3 9.1l29-29c-1.8-6.1-4.2-11.9-7-17.4l-34 34c3.1-.2 6.3.9 8.7 3.3z"/><linearGradient id="SVGID_13_" gradientUnits="userSpaceOnUse" x1="91.689" y1="254.703" x2="91.689" y2="-19.004"><stop offset="0" stop-color="#fff200"/><stop offset="1" stop-color="#f15a29"/></linearGradient><path class="st12" d="M93.5 182.5l-23.4 23.4c5.6 2.8 11.4 5.2 17.4 7l25.7-25.7c-6.6-.7-13.3-2.3-19.7-4.7z"/><linearGradient id="SVGID_14_" gradientUnits="userSpaceOnUse" x1="29.731" y1="254.703" x2="29.731" y2="-19.004"><stop offset="0" stop-color="#fff200"/><stop offset="1" stop-color="#f15a29"/></linearGradient><path class="st13" d="M40 114.3l-25.2 25.2c1.8 6.1 4.1 12 6.8 17.6L44.7 134c-2.4-6.4-4-13-4.7-19.7z"/><linearGradient id="SVGID_15_" gradientUnits="userSpaceOnUse" x1="145.626" y1="254.703" x2="145.626" y2="-19.004"><stop offset="0" stop-color="#fff200"/><stop offset="1" stop-color="#f15a29"/></linearGradient><path class="st14" d="M133.1 33.3c2.4 2.5 3.5 5.7 3.3 8.9L167 11.6a98.6 98.6 0 0 0-17.6-6.8l-25.3 25.3c3.3-.3 6.6.8 9 3.2z"/><linearGradient id="SVGID_16_" gradientUnits="userSpaceOnUse" x1="63.887" y1="254.703" x2="63.887" y2="-19.004"><stop offset="0" stop-color="#fff200"/><stop offset="1" stop-color="#f15a29"/></linearGradient><path class="st15" d="M63.6 46.6l3.8 3.8 50-50C107.4.5 97.8 2 88.7 4.7l-74 73.9c-2.7 9.1-4.1 18.8-4.3 28.7L46.8 71c3.9-8.8 9.6-17.1 16.8-24.4z"/><linearGradient id="SVGID_17_" gradientUnits="userSpaceOnUse" x1="48.662" y1="254.703" x2="48.662" y2="-19.004"><stop offset="0" stop-color="#fff200"/><stop offset="1" stop-color="#f15a29"/></linearGradient><path class="st16" d="M17.8 69.5L79.5 7.8C51.3 18.9 28.9 41.3 17.8 69.5z"/><linearGradient id="SVGID_18_" gradientUnits="userSpaceOnUse" x1="188.697" y1="254.703" x2="188.697" y2="-19.004"><stop offset="0" stop-color="#fff200"/><stop offset="1" stop-color="#f15a29"/></linearGradient><path class="st17" d="M220.9 146.5L156.4 211c29.9-11 53.6-34.7 64.5-64.5z"/></svg>