<svg id="Layer_1" xmlns="http://www.w3.org/2000/svg" width="238" height="218" viewBox="0 0 238 218"><style>.st0{fill:url(#SVGID_1_)}.st1{fill:url(#SVGID_2_)}.st2{fill:url(#SVGID_3_)}.st3{fill:url(#SVGID_4_)}</style><linearGradient id="SVGID_1_" gradientUnits="userSpaceOnUse" x1="97.886" y1="210.612" x2="97.886" y2="10.812"><stop offset="0" stop-color="#fff200"/><stop offset="1" stop-color="#f15a29"/></linearGradient><path class="st0" d="M39.9 170h56.9l25.7 24.3 24 22.7v-47h9.4c15.9 0 28.9-13 28.9-28.9V82.6l-14.3 14.3v44.3c0 8.1-6.6 14.6-14.6 14.6h-23.6V184l-29.8-28.2H39.9c-8.1 0-14.6-6.6-14.6-14.6v-86c0-8.1 6.6-14.6 14.6-14.6h108.3l14.3-14.3H39.9C24 26.2 11 39.2 11 55.1v86C11 157 24 170 39.9 170z"/><linearGradient id="SVGID_2_" gradientUnits="userSpaceOnUse" x1="163.079" y1="210.612" x2="163.079" y2="10.812"><stop offset="0" stop-color="#fff200"/><stop offset="1" stop-color="#f15a29"/></linearGradient><path class="st1" d="M118.3 88.9l20.8 20.8 68.8-68.8-20.8-20.8z"/><linearGradient id="SVGID_3_" gradientUnits="userSpaceOnUse" x1="209.206" y1="210.612" x2="209.206" y2="10.812"><stop offset="0" stop-color="#fff200"/><stop offset="1" stop-color="#f15a29"/></linearGradient><path class="st2" d="M191.4 15.7l20.8 20.8 4.9-4.9 5.5-5.5c5.8-5.8 5.8-15.1 0-20.8-5.8-5.8-15.1-5.8-20.8 0l-5.5 5.5-4.9 4.9z"/><linearGradient id="SVGID_4_" gradientUnits="userSpaceOnUse" x1="122.156" y1="210.612" x2="122.156" y2="10.812"><stop offset="0" stop-color="#fff200"/><stop offset="1" stop-color="#f15a29"/></linearGradient><path class="st3" d="M126.4 115.5l8.3-1.4-20.8-20.8-1.4 8.3-2.9 16.8z"/></svg>