<svg id="Layer_1" xmlns="http://www.w3.org/2000/svg" width="238" height="218" viewBox="0 0 238 218"><style>.st0{fill:url(#SVGID_1_)}.st1{fill:url(#SVGID_2_)}</style><linearGradient id="SVGID_1_" gradientUnits="userSpaceOnUse" x1="191.607" y1="265.199" x2="191.607" y2="7.207"><stop offset="0" stop-color="#fff200"/><stop offset="1" stop-color="#f15a29"/></linearGradient><path class="st0" d="M204.9 154.6c-.2-.1-.3-.3-.7-.5-2-1.1-2.6-3.3-2.6-5.6 2.6-3 5-7.8 5.8-15.3 3-3.2 4.6-8 4.6-12.6 0-3.3-.8-6.2-2.3-8.6v-.1c1.4-4.1 2.7-9.8 1.1-16-3.1-12.4-18.3-18-32-18-11.7 0-20.8 4.1-24.9 11-3.1 1.8-4.9 4.2-5.9 6.1-2.9 5.7-1.6 11.9 0 16.7-.1.1-.1.2-.2.3-1.6 2.4-2.4 5.5-2.4 8.8 0 3.3.8 6.6 2.4 9.3 4.4 2.2 8.2 4.2 11.6 6.2-.5-2.1-.9-4.7-.9-7.9-4.7 0-6.7-13.5 0-13.5 0-1.9-9-16.5 2-19.3 1.5-6.1 9.7-9 18.4-9 10.4 0 21.7 4.1 23.5 11.4 2 8-3.2 15.4-3.2 16.9 6.5 0 4.5 13.5-.2 13.5 0 14.5-6.7 16.9-6.7 16.9v1.2c0 7.3 4.2 13.9 10.9 16.9 13.6 6.1 26.2 13 26.2 15.6v11.8c0 10.3-8.3 18.6-18.6 18.6h-28.5c0 3.2-.9 6.1-2.4 8.7h30.9c15.1 0 27.3-12.2 27.3-27.3V179c-.2-3.7-.3-10.2-33.2-24.4z"/><linearGradient id="SVGID_2_" gradientUnits="userSpaceOnUse" x1="86.759" y1="265.199" x2="86.759" y2="7.207"><stop offset="0" stop-color="#fff200"/><stop offset="1" stop-color="#f15a29"/></linearGradient><path class="st1" d="M121.7 127.8c-.2-.2-.6-.4-1.1-.7-4.6-2.6-3.6-9.8-2.7-13.8 3.3-3.6 6.6-9.4 8.1-18.9.4-2.5 1.4-5 2.9-7 2.9-3.9 4.5-9.4 4.5-14.7 0-4.1-1-7.9-2.8-10.8-.4-.7-.9-1.3-1.4-1.9 2.3-5.9 4.8-14.7 2.4-24.3-4.2-16.6-26.1-24.2-44.7-24.2-16.9 0-29.8 5.9-34.9 15.8-4.5 2.2-7 5.4-8.3 8-4.1 8-1.3 17.7 1.2 24.4-.6.7-1.2 1.4-1.7 2.1-1.9 3-2.9 6.8-2.9 11 0 5.3 1.6 10.6 4.4 14.5 1.5 2.1 2.5 4.5 2.9 7 1.4 9.6 4.9 15.5 8.3 19.1 1 4 1.9 11-2.7 13.6-.4.2-.8.4-1 .6C.4 149.5.2 158.8.2 162.5v28.2c0 15.1 12.2 27.3 27.3 27.3h118.6c15.1 0 27.3-12.2 27.3-27.3v-28.2c0-3.6-.2-12.9-51.7-34.7zm43 62.9c0 10.3-8.3 18.6-18.6 18.6H27.4c-10.3 0-18.6-8.3-18.6-18.6v-28.2c0-4.5 23-16.6 45.9-26.5 6.8-2.9 11.3-9.6 11.3-17.1 0-4.2-1.2-8.4-4-11.5-2.9-3.3-6.4-10-6.4-22.9-5.5 0-8.7-12.2-5.2-17.9 2.3-3.8 3.1-8.3 1.7-12.5-2.6-7.7-4-17.5 6.5-20.1 2.4-9.5 14.9-13.8 28.3-13.8 16 0 33.4 6.3 36.2 17.6 1.5 6.2.3 12.1-1.3 16.8-1.4 4.1-.7 8.4 1.4 12.1 3.3 5.7.2 17.9-5.4 17.9 0 12.9-3.5 19.6-6.4 22.9-2.8 3.1-4 7.3-4 11.5 0 7.4 4.4 14.1 11.3 17.1 22.9 9.9 45.9 22 45.9 26.5v28.1z"/></svg>