<svg id="Layer_1" xmlns="http://www.w3.org/2000/svg" width="238" height="218" viewBox="0 0 238 218"><style>.st0{fill:url(#SVGID_1_)}.st1{fill:url(#SVGID_2_)}.st2{fill:url(#SVGID_3_)}.st3{fill:url(#SVGID_4_)}.st4{fill:url(#SVGID_5_)}.st5{fill:url(#SVGID_6_)}.st6{fill:url(#SVGID_7_)}.st7{fill:url(#SVGID_8_)}.st8{fill:url(#SVGID_9_)}.st9{fill:url(#SVGID_10_)}.st10{fill:url(#SVGID_11_)}.st11{fill:url(#SVGID_12_)}.st12{fill:url(#SVGID_13_)}</style><linearGradient id="SVGID_1_" gradientUnits="userSpaceOnUse" x1="162.912" y1="218.073" x2="162.912" y2="-36.644"><stop offset="0" stop-color="#fff200"/><stop offset="1" stop-color="#f15a29"/></linearGradient><path class="st0" d="M176.3 80.9c-9.5.9-18.5 2.8-26.9 5.9h26.9v-5.9z"/><linearGradient id="SVGID_2_" gradientUnits="userSpaceOnUse" x1="101.268" y1="218.073" x2="101.268" y2="-36.644"><stop offset="0" stop-color="#fff200"/><stop offset="1" stop-color="#f15a29"/></linearGradient><path class="st1" d="M197.6 109.6c0 53.1-43.2 96.4-96.4 96.4-53.1 0-96.4-43.2-96.4-96.4 0-53.1 43.2-96.4 96.4-96.4 17.5 0 33.9 4.7 48.1 12.9 1.8-.9 3.5-1.8 5.2-2.5C139 14 120.7 8.4 101.2 8.4 45.4 8.3 0 53.7 0 109.6c0 55.8 45.4 101.3 101.3 101.3 55.8 0 101.3-45.4 101.3-101.3 0-7.3-.8-14.3-2.2-21.1l-4.3 3.3c1 5.7 1.5 11.7 1.5 17.8z"/><linearGradient id="SVGID_3_" gradientUnits="userSpaceOnUse" x1="116.667" y1="218.073" x2="116.667" y2="-36.644"><stop offset="0" stop-color="#fff200"/><stop offset="1" stop-color="#f15a29"/></linearGradient><path class="st2" d="M116.9 146.2h1.6v-40.3c-2.1 2-3.2 3.4-3.3 3.6l-.3.5h2v36.2z"/><linearGradient id="SVGID_4_" gradientUnits="userSpaceOnUse" x1="155.577" y1="218.073" x2="155.577" y2="-36.644"><stop offset="0" stop-color="#fff200"/><stop offset="1" stop-color="#f15a29"/></linearGradient><path class="st3" d="M123.2 146.2h1.6v-35.7h4.6v35.7h1.6v-45.6h4.6v45.6h1.6v-39.4h4.6v39.4h1.6v-37.7h4.6v37.7h1.6V96.6h4.6v49.6h1.6v-38.6h4.6v38.6h1.6v-33.3h4.6v33.3h1.6v-31.8h4.6v31.8h1.6V110h4.6v36.2h1.6v-37.7h4.6v34.6c.6-1.5 1.1-3 1.6-4.5v-33.9h4.6c-.2-3.2-.5-6.3-1-9.3L176.3 107V86.8h-26.9c-6 2.2-11.6 4.9-17 8.3-6.2 3.8-10.7 7.7-13.6 10.5h4.3v40.6z"/><linearGradient id="SVGID_5_" gradientUnits="userSpaceOnUse" x1="108.918" y1="218.073" x2="108.918" y2="-36.644"><stop offset="0" stop-color="#fff200"/><stop offset="1" stop-color="#f15a29"/></linearGradient><path class="st4" d="M109.2 146.2h3v-32.8l-6.6 8.9v20.2c0 2.1 1.6 3.7 3.6 3.7z"/><linearGradient id="SVGID_6_" gradientUnits="userSpaceOnUse" x1="101.268" y1="218.073" x2="101.268" y2="-36.644"><stop offset="0" stop-color="#fff200"/><stop offset="1" stop-color="#f15a29"/></linearGradient><path class="st5" d="M37.5 174.7l.8-.8c1-.2 2.1-1.4 3.2-1.4.8 0 1.6.9 1.9.9 1.2 0 2.8-1.1 4.1-1 .4 0 .8.2 1.2.4l-6.4 6.4c.4.3.7.6 1.1 1l6.5-6.5c.5.4 1.1.8 1.6.9 1.5.5 3.1.4 4.6.4.5 0 1 .1 1.6.1l-9 9 1.2.9 9.7-9.7c2.7.3 5.2.9 7.6 1.6l-11.7 11.7c.4.3.9.5 1.3.8l12-12c1.3.4 2.6.7 3.9 1.1 1.1.3 2.5.4 3.7.6l-13.5 13.5c.5.2 1 .4 1.4.7L78 179.6c1.2.5 2 1.5 3.3 2.1 1.3.5 2.7 0 3.8.1L71 195.9c.5.2 1 .4 1.6.5L86.9 182c1.8 1 3.2 2.6 5.5 2.9h.9L80 198.2c.6.1 1.1.3 1.7.4l14-14h.1c2.3.2 4.7 1.4 7 2.2L89.6 200c.6.1 1.2.2 1.9.2l12.9-12.9c2.1.6 5.1 1.5 7.4 1.9l-11.5 11.5h2.1l11.3-11.3c1.4-.1 2.8-.6 4.2-.7 2.1 0 3.7.3 5.6.1L112.2 200l2.4-.3 11.6-11.6c5.5-1.7 10.9-3.7 15.9-6.7l-15.7 15.7 3-.9 14.3-14.3c1.2 1.9 1.4 1.7 3.4 1.8 1.2 0 2.8-.2 4.4-.4l-5.7 5.7c1.8-1 3.6-2.1 5.3-3.2l2.5-2.5h.1c.3 0 .6.1.9.1 10.9-7.9 19.9-18 26.5-29.8H21.5c4.3 7.8 9.7 14.9 16 21.1z"/><linearGradient id="SVGID_7_" gradientUnits="userSpaceOnUse" x1="54.106" y1="218.073" x2="54.106" y2="-36.644"><stop offset="0" stop-color="#fff200"/><stop offset="1" stop-color="#f15a29"/></linearGradient><path class="st6" d="M96.8 142.6v-4.7c-.5.1-1 .1-1.5.1-2.8 0-5-1-6.2-2.8-2.2.3-3-.6-3.8-1.6-.3-.4-.6-.8-1.1-1.1-2.1-1.1-4.7-1.5-7.5-2-1.4-.2-2.9-.5-4.3-.8-2.4-.6-4.9-1.3-7.4-2-2.9-.8-6-1.7-8.8-2.3l-1.3-.3c-4.8-1-9.7-2-14.1-4-.9.3-1.6.5-1.9.5-2 0-3.5-.3-4.6-.6-2-.5-3.2-.7-6.4.9l-1.2.6c-1.9 1-3.9 2.1-6.1 2.4-1.4.2-2.9-.2-4.2-.6-1.3-.4-2.6-.7-3.7-.5-.4.1-.7.3-1.1.6 1.3 7.5 3.4 14.8 6.4 21.5h75.3c1.9.3 3.5-1.3 3.5-3.3z"/><linearGradient id="SVGID_8_" gradientUnits="userSpaceOnUse" x1="24.179" y1="218.073" x2="24.179" y2="-36.644"><stop offset="0" stop-color="#fff200"/><stop offset="1" stop-color="#f15a29"/></linearGradient><path class="st7" d="M16.8 122.8c1.2.4 2.4.7 3.4.5 1.9-.3 3.7-1.3 5.5-2.2l1.2-.6c3.8-2 5.5-1.6 7.7-1.1 1 .2 2.1.5 3.5.5-.6-.4-1.1-.9-1.5-1.3-1-1-1.8-1.7-4-2-.7-.1-1.6-.1-2.4-.1-2.6 0-6.2 0-6.6-4.1-1.2-.1-2.5-.1-3.9 0s-2.9.1-4.4 0c-1.3-.2-2.6-.7-3.8-1.2-.5-.2-.9-.4-1.4-.5 0 4.1.4 8.1.9 12 .3-.2.6-.3 1-.4 1.7-.4 3.3 0 4.8.5z"/><linearGradient id="SVGID_9_" gradientUnits="userSpaceOnUse" x1="70.012" y1="218.073" x2="70.012" y2="-36.644"><stop offset="0" stop-color="#fff200"/><stop offset="1" stop-color="#f15a29"/></linearGradient><path class="st8" d="M73.4 116.5c-1.9-.1-3.9-.2-5.8-1.3-1.2-.7-2-1.4-2.5-1.9-1-.9-1.1-1.1-2.8.1-.8.5-1.1 1.3-1.4 2.2-.4 1-.9 2.1-1.9 2.9l-.6.4-.6-.4c-1.1-.8-1.9-1.7-2.6-2.4-1.6-1.6-2.3-2.4-4.6-1.8-1.2.3-1.8 1.3-2.6 2.3-.7 1-1.4 2-2.5 2.6-.2.1-1.1.5-2.2 1 3.8 1.5 7.9 2.3 12 3.2l1.3.3c2.9.6 6 1.5 9 2.3 2.4.7 4.9 1.4 7.3 1.9 1.4.3 2.8.6 4.2.8 2.9.5 5.7.9 8 2.1.9.5 1.4 1.1 1.8 1.6.5.7.8 1 2.6.7l.7-.1.3.6c1.3 2.6 4.8 2.5 6.4 2.3v-7.3l-.4 1.1c-2-.8-4.8-1.9-6.2-4.3-.1.1-.3.2-.4.2-.3.1-.7.4-.8.5l-.8.8-.7-.9c-.4-.5-.7-1.3-1.1-2.1-.3-.7-.9-2-1.2-2.2-.3-.2-.7 0-1.3.5-.5.3-1 .7-1.7.5l-.9-.3c-1.8-.5-3.9-1.2-3.6-5.1-1.4-.6-2.9-.7-4.4-.8z"/><linearGradient id="SVGID_10_" gradientUnits="userSpaceOnUse" x1="53.481" y1="218.073" x2="53.481" y2="-36.644"><stop offset="0" stop-color="#fff200"/><stop offset="1" stop-color="#f15a29"/></linearGradient><path class="st9" d="M10.2 108.7c.7.2 1.4.5 2.1.8 1.1.4 2.2.9 3.3 1 1.3.2 2.6.1 4 0 1.6-.1 3.3-.2 5 .1l.8.1v.8c0 2.9 1.6 3 4.8 3 .9 0 1.8 0 2.7.1 2.8.4 3.9 1.4 5 2.5.7.6 1.4 1.3 2.6 1.9.1 0 .2.1.3.1 1.5-.6 3.3-1.3 3.8-1.6.7-.4 1.3-1.2 1.9-2 .8-1.2 1.8-2.6 3.6-3.1 3.4-.9 4.8.6 6.4 2.3l1.7 1.7c.3-.4.6-1 .8-1.6.4-1 .9-2.2 2.1-3.1 2.8-1.9 3.8-1.2 5.2.1.5.5 1.1 1.1 2.1 1.6 1.5.8 3.2.9 5 1 1.9.1 3.8.2 5.6 1.2l.6.3-.1.7c-.4 2.9.5 3.2 2.2 3.8.2.1.5.2.7.2.1 0 .2-.1.2-.2.6-.4 1.8-1.2 3.2-.6.8.4 1.3 1.4 2.1 3.2.1.3.3.7.5 1 .1-.1.2-.1.3-.2.4-.2.8-.4 1-.6l1.1-1.2.5 1.6c.7 2.3 3.3 3.4 5.3 4.1V90.5c0-2-1.6-3.6-3.6-3.6H13c-1.8 6.9-2.8 14.3-2.8 21.8z"/><linearGradient id="SVGID_11_" gradientUnits="userSpaceOnUse" x1="84.999" y1="218.073" x2="84.999" y2="-36.644"><stop offset="0" stop-color="#fff200"/><stop offset="1" stop-color="#f15a29"/></linearGradient><path class="st10" d="M26 58.3l7.1-1c.5-1.9 2.2-3.3 4.2-3.3.9 0 1.8.3 2.5.8l11.1-7.1c0-.3-.1-.5-.1-.8 0-2.4 2-4.4 4.4-4.4 2.4 0 4.3 1.9 4.3 4.2l10.3 3.8c.8-.9 1.9-1.5 3.2-1.5 2.4 0 4.4 2 4.4 4.4v.2L88 58.4c.8-.7 1.8-1.2 3-1.2 1.3 0 2.4.6 3.2 1.5l10.3-3.8c.1-2.3 2-4.2 4.3-4.2 2.2 0 4 1.7 4.3 3.8l3.3.9c7.3-10.6 16.4-19.4 27.1-26 .1-.1.3-.2.4-.2-12.8-6.8-27.3-10.7-42.8-10.7C70 18.4 42.4 34.2 26 58.3z"/><linearGradient id="SVGID_12_" gradientUnits="userSpaceOnUse" x1="64.978" y1="218.073" x2="64.978" y2="-36.644"><stop offset="0" stop-color="#fff200"/><stop offset="1" stop-color="#f15a29"/></linearGradient><path class="st11" d="M109 59.4c-1.3 0-2.4-.6-3.2-1.5l-10.3 3.8c-.1 2.3-2 4.2-4.3 4.2-2.4 0-4.4-2-4.4-4.4v-.2l-10.6-4.8c-.8.7-1.8 1.2-3 1.2-2.4 0-4.3-1.9-4.3-4.2l-10.3-3.8c-.8.9-1.9 1.5-3.2 1.5-.9 0-1.8-.3-2.5-.8l-11.1 7.1c0 .3.1.5.1.8 0 2.4-2 4.4-4.4 4.4-1.6 0-3-.9-3.7-2.2l-10 1.4c-3.4 5.5-6.2 11.4-8.3 17.5h88.9c2.9-7.7 6.4-14.8 10.5-21.2l-2.2-.6c-1.1 1.1-2.3 1.8-3.7 1.8z"/><linearGradient id="SVGID_13_" gradientUnits="userSpaceOnUse" x1="172.546" y1="218.073" x2="172.546" y2="-36.644"><stop offset="0" stop-color="#fff200"/><stop offset="1" stop-color="#f15a29"/></linearGradient><path class="st12" d="M237.7 47.1l-51.6-40v18.3c-9 .4-64.2 5.9-78.6 78.1 0 0 24.7-32.4 78.6-32.9v16.5l51.6-40z"/></svg>