<svg id="Layer_1" xmlns="http://www.w3.org/2000/svg" width="238" height="218" viewBox="0 0 238 218"><style>.st0{fill:url(#SVGID_1_)}.st1{fill:url(#SVGID_2_)}.st2{fill:url(#SVGID_3_)}.st3{fill:url(#SVGID_4_)}</style><linearGradient id="SVGID_1_" gradientUnits="userSpaceOnUse" x1="119" y1="224.986" x2="119" y2="2.931"><stop offset="0" stop-color="#fff200"/><stop offset="1" stop-color="#f15a29"/></linearGradient><path class="st0" d="M218.8 218H233V55.5h-51.7V40.3c0-10.1-8.2-18.3-18.3-18.3s-18.3 8.2-18.3 18.3v15.1H93.3V40.3C93.3 30.2 85.1 22 75 22s-18.3 8.2-18.3 18.3v15.1H5V218h213.8zM19.2 69.6h38.6c2.6 7 9.3 12 17.2 12s14.6-5 17.2-12h53.7c2.6 7 9.3 12 17.2 12 7.9 0 14.6-5 17.2-12h38.6v134.2H19.2V69.6z"/><linearGradient id="SVGID_2_" gradientUnits="userSpaceOnUse" x1="64.428" y1="224.986" x2="64.428" y2="2.931"><stop offset="0" stop-color="#fff200"/><stop offset="1" stop-color="#f15a29"/></linearGradient><path class="st1" d="M76.1 141.1c-.1-.1-.2-.1-.4-.2-1.5-.9-1.2-3.3-.9-4.6 1.1-1.2 2.2-3.1 2.7-6.3.1-.8.5-1.7 1-2.3 1-1.3 1.5-3.1 1.5-4.9 0-1.4-.3-2.6-.9-3.6-.1-.2-.3-.4-.5-.6.8-2 1.6-4.9.8-8.1-1.4-5.5-8.7-8.1-14.9-8.1-5.6 0-9.9 2-11.6 5.2-1.5.7-2.3 1.8-2.8 2.7-1.4 2.7-.4 5.9.4 8.1-.2.2-.4.5-.6.7-.6 1-1 2.3-1 3.7 0 1.8.5 3.5 1.5 4.8.5.7.8 1.5 1 2.3.5 3.2 1.6 5.1 2.7 6.4.3 1.3.6 3.7-.9 4.5-.1.1-.3.1-.3.2-17.3 7.3-17.3 10.4-17.3 11.6v9.4c0 5 4.1 9.1 9.1 9.1h39.5c5 0 9.1-4.1 9.1-9.1v-9.4c0-1.2-.1-4.3-17.2-11.5z"/><linearGradient id="SVGID_3_" gradientUnits="userSpaceOnUse" x1="153.85" y1="224.986" x2="153.85" y2="2.931"><stop offset="0" stop-color="#fff200"/><stop offset="1" stop-color="#f15a29"/></linearGradient><path class="st2" d="M110.4 114.5h86.9v14h-86.9z"/><linearGradient id="SVGID_4_" gradientUnits="userSpaceOnUse" x1="145.878" y1="224.986" x2="145.878" y2="2.931"><stop offset="0" stop-color="#fff200"/><stop offset="1" stop-color="#f15a29"/></linearGradient><path class="st3" d="M110.4 141.7h70.9v14h-70.9z"/></svg>