<svg id="Layer_1" xmlns="http://www.w3.org/2000/svg" width="238" height="218" viewBox="0 0 238 218"><style>.st0{fill:url(#SVGID_1_)}.st1{fill:url(#SVGID_2_)}.st2{fill:url(#SVGID_3_)}.st3{fill:url(#SVGID_4_)}.st4{fill:url(#SVGID_5_)}.st5{fill:url(#SVGID_6_)}.st6{fill:url(#SVGID_7_)}.st7{fill:url(#SVGID_8_)}</style><linearGradient id="SVGID_1_" gradientUnits="userSpaceOnUse" x1="87.655" y1="242.765" x2="87.655" y2="-8.586"><stop offset="0" stop-color="#fff200"/><stop offset="1" stop-color="#f15a29"/></linearGradient><path class="st0" d="M77.6 21.7l12 20.8c1.4-1 2.7-2 4-2.8 1.6-1 3.2-2 4.8-2.8L86.6 16.5c-.9-1.6-2.7-2.6-4.5-2.6-.9 0-1.8.2-2.6.7-2.5 1.4-3.4 4.6-1.9 7.1z"/><linearGradient id="SVGID_2_" gradientUnits="userSpaceOnUse" x1="53.663" y1="242.765" x2="53.663" y2="-8.586"><stop offset="0" stop-color="#fff200"/><stop offset="1" stop-color="#f15a29"/></linearGradient><path class="st1" d="M44.1 51.9c-1.9 0-3.6 1-4.5 2.6-1.4 2.5-.6 5.7 1.9 7.1l21.9 12.6c.4-.9.8-1.8 1.3-2.6 1.1-2.1 2.2-4.1 3.4-6 .1-.2.2-.4.4-.6L46.7 52.6c-.8-.5-1.7-.7-2.6-.7z"/><linearGradient id="SVGID_3_" gradientUnits="userSpaceOnUse" x1="40.447" y1="242.765" x2="40.447" y2="-8.586"><stop offset="0" stop-color="#fff200"/><stop offset="1" stop-color="#f15a29"/></linearGradient><path class="st2" d="M30.2 114.2h25.7v-.6c-.1-1.7-.1-3.2-.1-4.6v-2.3c0-.9.1-1.9.1-2.9H30.2c-2.9 0-5.2 2.3-5.2 5.2s2.3 5.2 5.2 5.2z"/><linearGradient id="SVGID_4_" gradientUnits="userSpaceOnUse" x1="53.662" y1="242.765" x2="53.662" y2="-8.586"><stop offset="0" stop-color="#fff200"/><stop offset="1" stop-color="#f15a29"/></linearGradient><path class="st3" d="M68.4 152.9c-1.1-1.7-2-3.2-2.9-4.8-.8-1.4-1.5-2.8-2.2-4.3l-21.9 12.6c-2.5 1.4-3.4 4.6-1.9 7.1.9 1.6 2.7 2.6 4.5 2.6.9 0 1.8-.2 2.6-.7l21.8-12.5z"/><linearGradient id="SVGID_5_" gradientUnits="userSpaceOnUse" x1="87.657" y1="242.765" x2="87.657" y2="-8.586"><stop offset="0" stop-color="#fff200"/><stop offset="1" stop-color="#f15a29"/></linearGradient><path class="st4" d="M86.6 201.5l11.8-20.4c-1.4-.7-2.7-1.5-3.9-2.3-1.6-1-3.3-2.1-4.9-3.3l-12 20.8c-1.4 2.5-.6 5.7 1.9 7.1.8.5 1.7.7 2.6.7 1.9 0 3.6-1 4.5-2.6z"/><linearGradient id="SVGID_6_" gradientUnits="userSpaceOnUse" x1="133.998" y1="242.765" x2="133.998" y2="-8.586"><stop offset="0" stop-color="#fff200"/><stop offset="1" stop-color="#f15a29"/></linearGradient><path class="st5" d="M134 0c-2.9 0-5.2 2.3-5.2 5.2v22.1c2-.2 4-.4 6-.4h.2c.9 0 1.9-.1 2.9-.1h1.4V5.2c-.1-2.9-2.4-5.2-5.3-5.2z"/><linearGradient id="SVGID_7_" gradientUnits="userSpaceOnUse" x1="133.998" y1="242.765" x2="133.998" y2="-8.586"><stop offset="0" stop-color="#fff200"/><stop offset="1" stop-color="#f15a29"/></linearGradient><path class="st6" d="M134.6 191.1c-1.9-.1-3.9-.2-5.9-.4v22.1c0 2.9 2.3 5.2 5.2 5.2 2.9 0 5.2-2.3 5.2-5.2v-21.6h-1.4c-1 0-2.1-.1-3.1-.1z"/><linearGradient id="SVGID_8_" gradientUnits="userSpaceOnUse" x1="137.856" y1="242.765" x2="137.856" y2="-8.586"><stop offset="0" stop-color="#fff200"/><stop offset="1" stop-color="#f15a29"/></linearGradient><path class="st7" d="M137.9 33.9c-41.4 0-75.1 33.7-75.1 75.1s33.7 75.1 75.1 75.1S213 150.4 213 109s-33.7-75.1-75.1-75.1zM69.1 109c0-37.9 30.8-68.7 68.7-68.7v137.5c-37.8-.1-68.7-30.9-68.7-68.8z"/></svg>