<svg id="Layer_1" xmlns="http://www.w3.org/2000/svg" width="238" height="218" viewBox="0 0 238 218"><style>.st0{fill:url(#SVGID_1_)}.st1{fill:url(#SVGID_2_)}.st2{fill:url(#SVGID_3_)}.st3{fill:url(#SVGID_4_)}.st4{fill:url(#SVGID_5_)}.st5{fill:url(#SVGID_6_)}.st6{fill:url(#SVGID_7_)}.st7{fill:url(#SVGID_8_)}.st8{fill:url(#SVGID_9_)}.st9{fill:url(#SVGID_10_)}.st10{fill:url(#SVGID_11_)}.st11{fill:url(#SVGID_12_)}.st12{fill:url(#SVGID_13_)}.st13{fill:url(#SVGID_14_)}.st14{fill:url(#SVGID_15_)}.st15{fill:url(#SVGID_16_)}</style><linearGradient id="SVGID_1_" gradientUnits="userSpaceOnUse" x1="88.5" y1="283.388" x2="88.5" y2="-18.634"><stop offset="0" stop-color="#fff200"/><stop offset="1" stop-color="#f15a29"/></linearGradient><path class="st0" d="M98.9 85V20.9c0-5.7-4.7-10.4-10.4-10.4s-10.4 4.7-10.4 10.4V85c3.1-1.7 6.6-2.7 10.4-2.7s7.3 1 10.4 2.7z"/><linearGradient id="SVGID_2_" gradientUnits="userSpaceOnUse" x1="88.5" y1="283.388" x2="88.5" y2="-18.634"><stop offset="0" stop-color="#fff200"/><stop offset="1" stop-color="#f15a29"/></linearGradient><path class="st1" d="M78.1 123v84.6c0 5.7 4.7 10.4 10.4 10.4s10.4-4.7 10.4-10.4V123c-3.1 1.7-6.6 2.7-10.4 2.7s-7.3-1-10.4-2.7z"/><linearGradient id="SVGID_3_" gradientUnits="userSpaceOnUse" x1="88.5" y1="283.388" x2="88.5" y2="-18.634"><stop offset="0" stop-color="#fff200"/><stop offset="1" stop-color="#f15a29"/></linearGradient><path class="st2" d="M88.5 88.3c-8.6 0-15.7 7-15.7 15.7 0 8.6 7 15.7 15.7 15.7s15.7-7 15.7-15.7-7.1-15.7-15.7-15.7z"/><linearGradient id="SVGID_4_" gradientUnits="userSpaceOnUse" x1="88.5" y1="283.388" x2="88.5" y2="-18.634"><stop offset="0" stop-color="#fff200"/><stop offset="1" stop-color="#f15a29"/></linearGradient><path class="st3" d="M78.1 20.9c0-5.7 4.7-10.4 10.4-10.4s10.4 4.7 10.4 10.4V85c-3.1-1.7-6.6-2.7-10.4-2.7s-7.3 1-10.4 2.7V20.9zm20.8 186.7c0 5.7-4.7 10.4-10.4 10.4s-10.4-4.7-10.4-10.4V123c3.1 1.7 6.6 2.7 10.4 2.7s7.3-1 10.4-2.7v84.6zm-10.4-88c-8.6 0-15.7-7-15.7-15.7 0-8.6 7-15.7 15.7-15.7s15.7 7 15.7 15.7-7.1 15.7-15.7 15.7z"/><linearGradient id="SVGID_5_" gradientUnits="userSpaceOnUse" x1="150" y1="283.388" x2="150" y2="-18.634"><stop offset="0" stop-color="#fff200"/><stop offset="1" stop-color="#f15a29"/></linearGradient><path class="st4" d="M139.6 183.4v24.2c0 5.7 4.7 10.4 10.4 10.4s10.4-4.7 10.4-10.4v-24.2c-3.1 1.7-6.6 2.7-10.4 2.7s-7.3-1-10.4-2.7z"/><linearGradient id="SVGID_6_" gradientUnits="userSpaceOnUse" x1="150" y1="283.388" x2="150" y2="-18.634"><stop offset="0" stop-color="#fff200"/><stop offset="1" stop-color="#f15a29"/></linearGradient><path class="st5" d="M160.4 145.4V20.9c0-5.7-4.7-10.4-10.4-10.4s-10.4 4.7-10.4 10.4v124.5c3.1-1.7 6.6-2.7 10.4-2.7s7.3 1 10.4 2.7z"/><linearGradient id="SVGID_7_" gradientUnits="userSpaceOnUse" x1="150" y1="283.388" x2="150" y2="-18.634"><stop offset="0" stop-color="#fff200"/><stop offset="1" stop-color="#f15a29"/></linearGradient><path class="st6" d="M150 148.7c-8.6 0-15.7 7-15.7 15.7 0 8.6 7 15.7 15.7 15.7s15.7-7 15.7-15.7-7.1-15.7-15.7-15.7z"/><linearGradient id="SVGID_8_" gradientUnits="userSpaceOnUse" x1="150" y1="283.388" x2="150" y2="-18.634"><stop offset="0" stop-color="#fff200"/><stop offset="1" stop-color="#f15a29"/></linearGradient><path class="st7" d="M139.6 20.9c0-5.7 4.7-10.4 10.4-10.4s10.4 4.7 10.4 10.4v124.5c-3.1-1.7-6.6-2.7-10.4-2.7s-7.3 1-10.4 2.7V20.9zm20.8 186.7c0 5.7-4.7 10.4-10.4 10.4s-10.4-4.7-10.4-10.4v-24.2c3.1 1.7 6.6 2.7 10.4 2.7s7.3-1 10.4-2.7v24.2zM150 180.1c-8.6 0-15.7-7-15.7-15.7 0-8.6 7-15.7 15.7-15.7s15.7 7 15.7 15.7c0 8.6-7.1 15.7-15.7 15.7z"/><g><linearGradient id="SVGID_9_" gradientUnits="userSpaceOnUse" x1="211.5" y1="283.388" x2="211.5" y2="-18.634"><stop offset="0" stop-color="#fff200"/><stop offset="1" stop-color="#f15a29"/></linearGradient><path class="st8" d="M201.1 97.5v110.1c0 5.7 4.7 10.4 10.4 10.4s10.4-4.7 10.4-10.4V97.5c-3.1 1.7-6.6 2.7-10.4 2.7s-7.3-1-10.4-2.7z"/><linearGradient id="SVGID_10_" gradientUnits="userSpaceOnUse" x1="211.5" y1="283.388" x2="211.5" y2="-18.634"><stop offset="0" stop-color="#fff200"/><stop offset="1" stop-color="#f15a29"/></linearGradient><path class="st9" d="M221.9 59.5V20.9c0-5.7-4.7-10.4-10.4-10.4s-10.4 4.7-10.4 10.4v38.6c3.1-1.7 6.6-2.7 10.4-2.7s7.3 1 10.4 2.7z"/><linearGradient id="SVGID_11_" gradientUnits="userSpaceOnUse" x1="211.5" y1="283.388" x2="211.5" y2="-18.634"><stop offset="0" stop-color="#fff200"/><stop offset="1" stop-color="#f15a29"/></linearGradient><path class="st10" d="M211.5 62.8c-8.6 0-15.7 7-15.7 15.7 0 8.6 7 15.7 15.7 15.7s15.7-7 15.7-15.7-7.1-15.7-15.7-15.7z"/><linearGradient id="SVGID_12_" gradientUnits="userSpaceOnUse" x1="211.5" y1="283.388" x2="211.5" y2="-18.634"><stop offset="0" stop-color="#fff200"/><stop offset="1" stop-color="#f15a29"/></linearGradient><path class="st11" d="M201.1 20.9c0-5.7 4.7-10.4 10.4-10.4s10.4 4.7 10.4 10.4v38.6c-3.1-1.7-6.6-2.7-10.4-2.7s-7.3 1-10.4 2.7V20.9zm20.8 186.7c0 5.7-4.7 10.4-10.4 10.4s-10.4-4.7-10.4-10.4V97.5c3.1 1.7 6.6 2.7 10.4 2.7s7.3-1 10.4-2.7v110.1zM211.5 94.1c-8.6 0-15.7-7-15.7-15.7 0-8.6 7-15.7 15.7-15.7s15.7 7 15.7 15.7-7.1 15.7-15.7 15.7z"/></g><g><linearGradient id="SVGID_13_" gradientUnits="userSpaceOnUse" x1="26.5" y1="283.388" x2="26.5" y2="-18.634"><stop offset="0" stop-color="#fff200"/><stop offset="1" stop-color="#f15a29"/></linearGradient><path class="st12" d="M36.9 45V20.9c0-5.7-4.7-10.4-10.4-10.4s-10.4 4.7-10.4 10.4V45c3.1-1.7 6.6-2.7 10.4-2.7s7.3 1 10.4 2.7z"/><linearGradient id="SVGID_14_" gradientUnits="userSpaceOnUse" x1="26.5" y1="283.388" x2="26.5" y2="-18.634"><stop offset="0" stop-color="#fff200"/><stop offset="1" stop-color="#f15a29"/></linearGradient><path class="st13" d="M16.1 83v124.6c0 5.7 4.7 10.4 10.4 10.4s10.4-4.7 10.4-10.4V83c-3.1 1.7-6.6 2.7-10.4 2.7s-7.3-1-10.4-2.7z"/><linearGradient id="SVGID_15_" gradientUnits="userSpaceOnUse" x1="26.5" y1="283.388" x2="26.5" y2="-18.634"><stop offset="0" stop-color="#fff200"/><stop offset="1" stop-color="#f15a29"/></linearGradient><path class="st14" d="M26.5 48.3c-8.6 0-15.7 7-15.7 15.7 0 8.6 7 15.7 15.7 15.7s15.7-7 15.7-15.7-7.1-15.7-15.7-15.7z"/><linearGradient id="SVGID_16_" gradientUnits="userSpaceOnUse" x1="26.5" y1="283.388" x2="26.5" y2="-18.634"><stop offset="0" stop-color="#fff200"/><stop offset="1" stop-color="#f15a29"/></linearGradient><path class="st15" d="M16.1 20.9c0-5.7 4.7-10.4 10.4-10.4s10.4 4.7 10.4 10.4V45c-3.1-1.7-6.6-2.7-10.4-2.7s-7.3 1-10.4 2.7V20.9zm20.8 186.7c0 5.7-4.7 10.4-10.4 10.4s-10.4-4.7-10.4-10.4V83c3.1 1.7 6.6 2.7 10.4 2.7s7.3-1 10.4-2.7v124.6zm-10.4-128c-8.6 0-15.7-7-15.7-15.7 0-8.6 7-15.7 15.7-15.7s15.7 7 15.7 15.7-7.1 15.7-15.7 15.7z"/></g></svg>