<svg id="Layer_1" xmlns="http://www.w3.org/2000/svg" width="200" viewBox="0 0 125 100"><style>.st0{fill:url(#SVGID_1_)}.st1{fill:url(#SVGID_2_)}</style><linearGradient id="SVGID_1_" gradientUnits="userSpaceOnUse" x1="62.5" y1="3.296" x2="62.5" y2="97.672"><stop offset="0" stop-color="#b381b9"/><stop offset="1" stop-color="#8b4f9f"/></linearGradient><path class="st0" d="M97.1 24.1c-1.1 0-2.2.1-3.3.2C87.6 10.8 74 1.4 58.2 1.4 36.6 1.4 19 19 19 40.6c0 .7 0 1.4.1 2.1h-.5C8.3 42.7 0 51 0 61.2c0 10.3 8.3 18.6 18.6 18.6h16.1c.1-.5.3-1 .5-1.5-.3-.7-.5-1.4-.7-2.1H18.6h-.1c-8.2 0-14.9-6.7-14.9-14.9s6.7-14.9 14.9-14.9h.4l3.9.1-.2-3.9v-1.9c0-19.7 16-35.6 35.6-35.6 6.9 0 13.7 2 19.4 5.8 5.6 3.7 10.1 8.9 12.9 15l1.1 2.4 2.6-.3c1-.1 2-.2 2.9-.2 13.4 0 24.2 10.9 24.2 24.2 0 13.4-10.9 24.2-24.2 24.2h-6.7c-.1.7-.4 1.4-.7 2.1.2.5.4 1 .5 1.5h6.9c15.4 0 27.8-12.5 27.8-27.9.1-15.3-12.4-27.8-27.8-27.8z"/><linearGradient id="SVGID_2_" gradientUnits="userSpaceOnUse" x1="62.5" y1="3.296" x2="62.5" y2="97.672"><stop offset="0" stop-color="#b381b9"/><stop offset="1" stop-color="#8b4f9f"/></linearGradient><path class="st1" d="M87.7 78.3c.7-1.2 1.1-2.5 1.1-3.9 0-.5 0-1-.1-1.4.1-.5.1-.9.1-1.4 0-1.4-.4-2.7-1.1-3.9.7-1.2 1.1-2.5 1.1-3.9 0-.5 0-1-.1-1.4.1-.5.1-.9.1-1.4 0-3.8-2.9-7.2-7.6-9.6-1.2-.6-2.5-1.2-3.9-1.6-.7-.2-1.4-.5-2.2-.7-.4-.1-.8-.2-1.1-.3-.8-.2-1.6-.4-2.4-.5-.8-.1-1.6-.3-2.5-.4-.8-.1-1.7-.2-2.6-.3-1.3-.1-2.7-.2-4.1-.2s-2.7.1-4.1.2c-.9.1-1.7.2-2.6.3-.8.1-1.7.2-2.5.4-.8.1-1.6.3-2.4.5-.4.1-.8.2-1.1.3-.7.2-1.5.4-2.2.7l-3 1.2c-5.3 2.5-8.5 6-8.5 10.1 0 .5 0 1 .1 1.4-.1.5-.1.9-.1 1.4 0 .7.1 1.4.3 2 .1.5.3 1 .6 1.4.1.2.2.3.2.5-.1.2-.2.3-.2.5-.2.5-.4.9-.6 1.4-.2.7-.3 1.3-.3 2 0 .5 0 1 .1 1.4-.1.5-.1.9-.1 1.4 0 1.4.4 2.7 1.1 3.9-.7 1.2-1.1 2.5-1.1 3.9 0 .5 0 1 .1 1.4-.1.5-.1.9-.1 1.4 0 4.5 4.1 8.4 10.5 10.9.3.1.7.3 1 .4.7.2 1.4.5 2.2.7 1.9.5 3.9.9 6 1.2.8.1 1.7.2 2.6.3 1.3.1 2.7.2 4.1.2s2.7-.1 4.1-.2c.9-.1 1.7-.2 2.6-.3 2.1-.3 4.1-.7 6-1.2.7-.2 1.5-.4 2.2-.7.3-.1.7-.2 1-.4.7-.3 1.3-.5 1.9-.8.3-.1.6-.3.9-.4 4.7-2.4 7.6-5.8 7.6-9.6 0-.5 0-1-.1-1.4.1-.5.1-.9.1-1.4.1-1.6-.3-2.9-1-4.1zm-25.2 8.1c-12 0-22-4.1-24.3-9.6 3.9 4.9 13.2 8.3 24.3 8.3 11.1 0 20.4-3.4 24.3-8.3-2.3 5.5-12.3 9.6-24.3 9.6zm0-37.6c13.7 0 24.8 5.4 24.8 12s-11.1 12-24.8 12-24.8-5.4-24.8-12 11.1-12 24.8-12zm24.3 17.3c-2.3 5.5-12.3 9.6-24.3 9.6s-22-4.1-24.3-9.6c3.9 4.9 13.2 8.3 24.3 8.3 11.1 0 20.4-3.4 24.3-8.3zm-49.1 5.4c0-.9.2-1.7.5-2.5 3.9 4.9 13.2 8.2 24.3 8.2s20.3-3.3 24.3-8.2c.4.8.5 1.6.5 2.5 0 6.6-11.1 12-24.8 12s-24.8-5.3-24.8-12zm24.8 25.6c-12 0-22-4.1-24.3-9.6 3.9 4.9 13.2 8.3 24.3 8.3 11.1 0 20.4-3.4 24.3-8.3-2.3 5.4-12.3 9.6-24.3 9.6zm0-2.9c-13.7 0-24.8-5.4-24.8-12 0-.9.2-1.7.5-2.5 3.9 4.9 13.2 8.2 24.3 8.2s20.3-3.3 24.3-8.2c.4.8.5 1.6.5 2.5 0 6.6-11.1 12-24.8 12z"/></svg>