<svg id="Layer_1" xmlns="http://www.w3.org/2000/svg" width="238" height="218" viewBox="0 0 238 218"><style>.st0{fill:url(#SVGID_1_)}.st1{fill:url(#SVGID_2_)}.st2{fill:url(#SVGID_3_)}.st3{fill:url(#SVGID_4_)}.st4{fill:url(#SVGID_5_)}.st5{fill:url(#SVGID_6_)}</style><linearGradient id="SVGID_1_" gradientUnits="userSpaceOnUse" x1="119" y1="256.743" x2="119" y2="-12.309"><stop offset="0" stop-color="#fff200"/><stop offset="1" stop-color="#f15a29"/></linearGradient><path class="st0" d="M151 28l-14-14-14-14H53.4C42.8 0 34.1 8.7 34.1 19.4v149.8c0 9 6.2 16.6 14.6 18.8 1.7 6.9 7.1 12.3 14 14 2.1 8.4 9.7 14.6 18.8 14.6h103.1c10.7 0 19.4-8.7 19.4-19.4V81l-53-53zm33.6 178.7H81.5c-5.3 0-9.6-4.3-9.6-9.6V47.4c0-5.3 4.3-9.6 9.6-9.6h62.6v50.4h50.1v108.9c-.1 5.3-4.4 9.6-9.6 9.6zM43.9 19.4c0-5.3 4.3-9.6 9.6-9.6H116V14H67.4C56.7 14 48 22.7 48 33.4v143.7c-2.5-1.7-4.2-4.6-4.2-7.9V19.4zm110 59.1V44.8l33.7 33.7h-33.7zm-96 104.6V33.4c0-5.3 4.3-9.6 9.6-9.6H130V28H81.5c-10.7 0-19.4 8.7-19.4 19.4v143.7c-2.5-1.8-4.2-4.7-4.2-8z"/><linearGradient id="SVGID_2_" gradientUnits="userSpaceOnUse" x1="114.013" y1="256.743" x2="114.013" y2="-12.309"><stop offset="0" stop-color="#fff200"/><stop offset="1" stop-color="#f15a29"/></linearGradient><path class="st1" d="M95 78.5h38v9.8H95z"/><linearGradient id="SVGID_3_" gradientUnits="userSpaceOnUse" x1="133.639" y1="256.743" x2="133.639" y2="-12.309"><stop offset="0" stop-color="#fff200"/><stop offset="1" stop-color="#f15a29"/></linearGradient><path class="st2" d="M95 99.7h77.3v9.8H95z"/><linearGradient id="SVGID_4_" gradientUnits="userSpaceOnUse" x1="133.639" y1="256.743" x2="133.639" y2="-12.309"><stop offset="0" stop-color="#fff200"/><stop offset="1" stop-color="#f15a29"/></linearGradient><path class="st3" d="M95 120.8h77.3v9.8H95z"/><linearGradient id="SVGID_5_" gradientUnits="userSpaceOnUse" x1="133.639" y1="256.743" x2="133.639" y2="-12.309"><stop offset="0" stop-color="#fff200"/><stop offset="1" stop-color="#f15a29"/></linearGradient><path class="st4" d="M95 142h77.3v9.8H95z"/><linearGradient id="SVGID_6_" gradientUnits="userSpaceOnUse" x1="133.639" y1="256.743" x2="133.639" y2="-12.309"><stop offset="0" stop-color="#fff200"/><stop offset="1" stop-color="#f15a29"/></linearGradient><path class="st5" d="M95 163.2h77.3v9.8H95z"/></svg>