<svg xmlns="http://www.w3.org/2000/svg" xmlns:xlink="http://www.w3.org/1999/xlink" width="88.229" height="62.176" viewBox="0 0 88.229 62.176"><defs><linearGradient id="a" x1="235.226" y1="-281.53" x2="238.324" y2="-281.53" gradientUnits="objectBoundingBox"><stop offset="0" stop-color="#7acbbf"/><stop offset="1" stop-color="#3ea4db"/></linearGradient></defs><g transform="translate(-5.571 -15.689)"><path d="M84.572,26.951l-8.427-1.245L73.1,22.1l4.512-2.2,7.475.969,3.865,3.417Zm-19.411-6.1L63.1,17.888l4.54-1.829,6.615.806,2.765,2.822L72.5,21.862Zm-5.722,2.34L52.2,22.124,50.947,19l5.173-1.92,6.532.847L64.685,20.9ZM45.844,24.575l-7.108-1.13-.369-3.287,5.85-2.018,6.435.891,1.232,3.124Zm.565,4.267-7.26,3.17-7.964-1.492.165-4.275,6.943-2.574,7.132,1.138ZM18,56.192,7.6,53.177l2.7-8.214,10.7-4.7,9.07,2.079-.365,7.59Zm12-5.735,10.89,2.8L41.91,63.715l-12.878,8.9L16.112,68.275,18.228,56.8ZM51.4,47.3,62.615,49.87,66.347,59.4l-9.9,8.034L42.989,63.524l-1.138-10.41Zm.38-.463-1.805-7.013L57.5,35.758l9.561,1.8,3.519,6.515-7.649,5.3ZM57.3,35.443,55.3,30.4l6.209-3,8.318,1.33,3.224,4.736-6.244,3.763ZM72.226,22.072l2.978,3.6-5.251,2.807L61.67,27.16l-2.07-3.8,5.257-2.309ZM56.743,35.513,49.2,39.545l-9.3-1.914-.569-5.392,7.278-3.2,8.173,1.416ZM51.831,22.335l7.26,1.078,2.031,3.808L54.916,30.2l-8.142-1.4-1.008-4.028Z" transform="translate(2.383 0.434)" fill-rule="evenodd" fill="url(#a)"/><g transform="translate(5.571 15.689)"><path d="M20.382,40.325a6.194,6.194,0,0,0-5.02,5.055c-.222,2.49,1.873,4.151,4.664,3.6,2.761-.547,4.964-3.022,4.947-5.42C24.953,41.27,22.909,39.865,20.382,40.325Z" transform="translate(5.889 13.092)"/><path d="M20.124,30.642c-1.975.282-3.687,1.61-3.813,3.011-.13,1.456,1.488,2.414,3.6,2.09s3.778-1.76,3.767-3.174C23.667,31.206,22.083,30.364,20.124,30.642Z" transform="translate(7.013 1.779)"/><path d="M17.178,33.5a6.219,6.219,0,0,0-5.663,1.879c-1.471,1.608-1.234,3.406.606,3.967a6.146,6.146,0,0,0,5.92-2.066C19.359,35.663,18.944,33.994,17.178,33.5Z" transform="translate(0.274 5.031)"/><path d="M27.7,36.535a5.08,5.08,0,0,0-5.553,2.212,3.118,3.118,0,0,0,1.933,4.7A5.007,5.007,0,0,0,29.876,41,3.123,3.123,0,0,0,27.7,36.535Z" transform="translate(13.308 8.558)"/><path d="M39.56,34.346l-12.6-3.176L13.291,38.406,10.517,51.951l15.4,5.3L41.085,46.492Zm-13.5,19.308L14.193,49.722l1.792-10.534,10.888-5.922L37.005,35.9l.875,9.665Z" transform="translate(0.228 2.461)"/><path d="M18.4,39.592c-.98-1.532-3.611-1.655-5.972-.285-2.433,1.414-3.776,3.941-2.9,5.659.91,1.781,3.8,1.931,6.335.324C18.319,43.735,19.408,41.18,18.4,39.592Z" transform="translate(-1.25 10.886)"/><path d="M28.208,32.69a4.543,4.543,0,0,0-5.092-.2c-1.716.995-2.248,2.763-1.114,3.958,1.167,1.227,3.6,1.33,5.355.219C29.064,35.588,29.412,33.8,28.208,32.69Z" transform="translate(12.99 3.217)"/><path d="M15.954,26.314c-1.747.215-3.365,1.217-3.615,2.27-.256,1.088,1.043,1.8,2.9,1.56s3.448-1.316,3.6-2.377C18.974,26.74,17.688,26.1,15.954,26.314Z" transform="translate(2.327 -3.28)"/><path d="M13.1,28.457A6.4,6.4,0,0,0,8.08,29.85c-1.386,1.182-1.323,2.494.2,2.9a6.329,6.329,0,0,0,5.227-1.51C14.782,30.052,14.578,28.822,13.1,28.457Z" transform="translate(-3.793 -0.84)"/><path d="M22.515,26.713,10.052,32.107l-3.413,9.73,12.378,3.671,13.849-7.558.185-8.863Zm7.756,10.573L19.48,43.015,9.9,40.265l2.4-7.584,9.93-4.393,8.442,1.951Z" transform="translate(-4.318 -2.765)"/><path d="M13.579,32.867c-.7-1.088-2.909-1.177-5.01-.2-2.153,1-3.458,2.787-2.848,3.989.632,1.238,3.022,1.34,5.264.222C13.168,35.791,14.3,33.992,13.579,32.867Z" transform="translate(-5.571 3.421)"/><path d="M22.734,27.849c-.875-.812-2.811-.875-4.373-.146-1.6.747-2.261,2.062-1.425,2.944.858.9,2.928.978,4.569.159C23.106,30.006,23.634,28.681,22.734,27.849Z" transform="translate(7.328 -2.2)"/><path d="M36.894,41.023a4.567,4.567,0,0,0-5.225-2.909,3.95,3.95,0,0,0-3.413,4.547,4.5,4.5,0,0,0,5.379,3.22A3.9,3.9,0,0,0,36.894,41.023Z" transform="translate(20.941 10.509)"/><path d="M33.054,31.06c-.38-1.256-2.135-2.031-3.945-1.773s-3.1,1.482-2.842,2.77c.276,1.336,2.088,2.216,4.03,1.92C32.222,33.683,33.445,32.36,33.054,31.06Z" transform="translate(18.654 0.196)"/><path d="M37.854,34.68c-2.112-.519-4.206.358-4.721,2.009-.537,1.723.821,3.652,3.083,4.256,2.292.61,4.5-.408,4.879-2.218C41.462,36.994,39.994,35.206,37.854,34.68Z" transform="translate(26.607 6.402)"/><path d="M46.7,32.689,33.737,29.774,22.61,36.411,23.7,48.7l16.061,4.755,11.588-9.693ZM38.942,50.227l-12.35-3.537-1.186-9.563,8.82-5.427L44.66,34.108l3.393,8.811Z" transform="translate(14.406 0.824)"/><path d="M37.447,31.168a4.682,4.682,0,0,0-4.944-.18,2.1,2.1,0,0,0-.011,3.63,4.616,4.616,0,0,0,5.19.2C39.033,33.827,38.9,32.193,37.447,31.168Z" transform="translate(24.773 1.518)"/><path d="M34.907,25.649c-.4-.9-1.938-1.453-3.456-1.267s-2.52,1.064-2.2,1.981c.328.945,1.914,1.562,3.524,1.353S35.32,26.572,34.907,25.649Z" transform="translate(22.123 -5.539)"/><path d="M29.736,26.249a4.042,4.042,0,0,0-3.956,1.206c-.665,1.019.089,2.149,1.721,2.5,1.649.352,3.489-.243,4.073-1.3C32.141,27.626,31.307,26.562,29.736,26.249Z" transform="translate(17.84 -3.413)"/><path d="M39.05,28.154c-1.768-.354-3.463.248-3.813,1.373-.363,1.162.836,2.455,2.707,2.855,1.894.4,3.658-.278,3.915-1.488C42.1,29.724,40.836,28.512,39.05,28.154Z" transform="translate(29.136 -1.195)"/><path d="M46.278,26.793l-11.1-2.062-8.827,4.686,1.938,8.318L41.6,40.829l8.992-6.4ZM40.76,38.728,30.485,36.4l-1.74-6.491,6.98-3.808,8.909,1.692,3.211,6.063Z" transform="translate(18.795 -5.089)"/><path d="M38.62,25.717a4.6,4.6,0,0,0-4.173-.126c-1.112.65-1.054,1.792.18,2.553a4.52,4.52,0,0,0,4.347.137C40.064,27.588,39.884,26.439,38.62,25.717Z" transform="translate(27.355 -4.598)"/><path d="M29.6,22.418c-.213-.708-1.492-1.149-2.872-1s-2.4.845-2.255,1.568c.15.743,1.458,1.227,2.913,1.062S29.817,23.146,29.6,22.418Z" transform="translate(16.571 -9.008)"/><path d="M24.932,22.887a4.39,4.39,0,0,0-3.658.943c-.723.793-.213,1.666,1.171,1.936a4.274,4.274,0,0,0,3.76-1.008C26.855,23.962,26.273,23.132,24.932,22.887Z" transform="translate(12.456 -7.331)"/><path d="M39.692,23.313l-9.5-1.621L21.7,25.372l.55,6.372,11.058,2.311,8.853-4.838Zm-6.784,9.172-8.57-1.751-.6-4.977,6.726-2.981L38.067,24.1l1.794,4.688Z" transform="translate(13.337 -8.651)"/><path d="M26.607,25.8a4.391,4.391,0,0,0-4.112-.126c-1.393.652-1.831,1.8-.932,2.563a4.313,4.313,0,0,0,4.282.137C27.234,27.678,27.554,26.527,26.607,25.8Z" transform="translate(12.628 -4.501)"/><path d="M32.87,22.468a4.443,4.443,0,0,0-3.674-.1c-1.095.511-1.23,1.406-.267,2a4.377,4.377,0,0,0,3.808.1C33.819,23.935,33.863,23.035,32.87,22.468Z" transform="translate(21.059 -8.266)"/><path d="M36.279,21.633c-.4-.667-1.76-1.082-3.063-.943s-2.107.8-1.768,1.477c.345.7,1.747,1.154,3.115,1S36.686,22.32,36.279,21.633Z" transform="translate(24.677 -9.857)"/><path d="M39.9,23.454c-1.514-.254-2.931.18-3.183.988-.259.83.8,1.749,2.392,2.029,1.605.285,3.07-.2,3.25-1.056C42.54,24.579,41.43,23.71,39.9,23.454Z" transform="translate(30.904 -6.671)"/><path d="M45.985,22.474l-9.667-1.523-7.256,3.461,2.264,5.955,11.3,2.149,7.295-4.508Zm-4.154,8.579-8.757-1.629L31.143,24.77l5.731-2.8,7.74,1.243L47.588,27.6Z" transform="translate(21.971 -9.52)"/><path d="M39.479,21.68a4.538,4.538,0,0,0-3.6-.091c-.925.482-.821,1.321.272,1.879a4.471,4.471,0,0,0,3.726.1C40.785,23.057,40.589,22.212,39.479,21.68Z" transform="translate(29.23 -9.159)"/><path d="M37.327,18.648a3.441,3.441,0,0,0-2.75-.73c-1.147.111-1.814.619-1.475,1.145a3.337,3.337,0,0,0,2.8.769C37.086,19.712,37.718,19.176,37.327,18.648Z" transform="translate(26.603 -13.102)"/><path d="M33.412,18.988c-1.2-.174-2.461.126-2.824.68-.371.569.328,1.193,1.579,1.382s2.559-.137,2.883-.719S34.626,19.164,33.412,18.988Z" transform="translate(23.643 -11.88)"/><path d="M40.554,20.035c-1.327-.191-2.546.137-2.737.747-.2.628.758,1.314,2.142,1.525s2.648-.152,2.785-.8C42.876,20.885,41.89,20.229,40.554,20.035Z" transform="translate(32.205 -10.658)"/><path d="M45.808,19.292l-8.579-1.173-6.154,2.67,2.361,4.49,9.843,1.584L49.421,23.5Zm-3.276,6.491L34.89,24.575l-1.97-3.515,4.858-2.153,6.856.952,2.75,3.341Z" transform="translate(24.331 -12.841)"/><path d="M35.612,21.054a4.462,4.462,0,0,0-3.487-.085c-.975.456-1,1.253-.024,1.781a4.4,4.4,0,0,0,3.606.091C36.67,22.36,36.612,21.561,35.612,21.054Z" transform="translate(24.69 -9.867)"/><path d="M40.142,18.68a4.49,4.49,0,0,0-3.165-.067c-.8.371-.665,1.017.315,1.445a4.431,4.431,0,0,0,3.265.072C41.337,19.74,41.139,19.09,40.142,18.68Z" transform="translate(30.642 -12.563)"/><path d="M22.922,19.064c-1.271.124-2.281.689-2.248,1.275.033.6,1.143.991,2.47.858s2.311-.73,2.222-1.321C25.277,19.3,24.186,18.942,22.922,19.064Z" transform="translate(12.135 -11.761)"/><path d="M21.108,20.256a4.7,4.7,0,0,0-3.393.76c-.745.637-.4,1.334.8,1.547a4.6,4.6,0,0,0,3.487-.806C22.69,21.118,22.277,20.451,21.108,20.256Z" transform="translate(8.209 -10.4)"/><path d="M34.606,20.6l-8.3-1.31-8.114,2.976-.3,5.049,9.448,1.8,8.546-3.8Zm-7.4,7.288L19.864,26.52l.1-3.949,6.433-2.4,6.63,1.064.884,3.743Z" transform="translate(8.871 -11.47)"/><path d="M22.225,22.574a4.243,4.243,0,0,0-3.632-.1c-1.314.515-1.842,1.414-1.138,2.014.719.61,2.42.658,3.763.1C22.535,24.051,22.97,23.145,22.225,22.574Z" transform="translate(7.994 -8.143)"/><path d="M28.3,19.913a4.327,4.327,0,0,0-3.285-.076c-1.06.415-1.316,1.136-.543,1.614a4.265,4.265,0,0,0,3.393.083C28.916,21.1,29.1,20.372,28.3,19.913Z" transform="translate(16.06 -11.159)"/><path d="M27.542,17.275c-.135-.454-1.143-.736-2.255-.641s-1.955.545-1.862,1.006,1.117.778,2.279.671S27.681,17.74,27.542,17.275Z" transform="translate(15.353 -14.603)"/><path d="M23.777,17.573a4.2,4.2,0,0,0-2.911.593c-.58.5-.187,1.036.9,1.2a4.1,4.1,0,0,0,2.976-.626C25.274,18.242,24.835,17.725,23.777,17.573Z" transform="translate(12.049 -13.531)"/><path d="M29.96,18.481a3.535,3.535,0,0,0-2.861.65c-.45.541.135,1.134,1.325,1.314a3.436,3.436,0,0,0,2.922-.686C31.743,19.216,31.115,18.649,29.96,18.481Z" transform="translate(19.491 -12.471)"/><path d="M35.543,17.837,28.05,16.812,21.2,19.147l.328,3.884,8.425,1.353,7.119-2.891ZM29.716,23.46,23.16,22.423l-.365-3.041L28.224,17.5l5.976.832,1.108,2.9Z" transform="translate(12.749 -14.373)"/><path d="M30.149,17.3a4.318,4.318,0,0,0-2.922-.059c-.9.326-1.06.891-.332,1.264a4.279,4.279,0,0,0,3.007.061C30.8,18.228,30.9,17.658,30.149,17.3Z" transform="translate(18.892 -14.131)"/><path d="M33.014,16.763a2.879,2.879,0,0,0-2.381-.608c-1.067.093-1.762.517-1.542.958s1.308.739,2.414.639S33.277,17.206,33.014,16.763Z" transform="translate(21.957 -15.165)"/><path d="M40.774,17.3l-7.606-.975-6.052,2.222,1.4,3.68L37.1,23.507l6.154-2.735ZM36.62,22.632l-6.676-.978-1.2-2.885,4.784-1.788,6.07.791,1.868,2.752Z" transform="translate(19.689 -14.946)"/><path d="M35.572,16.787a4.43,4.43,0,0,0-2.872-.054c-.791.311-.791.847.022,1.2a4.373,4.373,0,0,0,2.954.059C36.456,17.669,36.4,17.131,35.572,16.787Z" transform="translate(25.543 -14.715)"/><path d="M38.133,16.288a3.482,3.482,0,0,0-2.492-.582c-1.019.089-1.588.5-1.256.915a3.377,3.377,0,0,0,2.531.608C37.968,17.136,38.506,16.71,38.133,16.288Z" transform="translate(28.1 -15.689)"/><path d="M41.035,17.377c-1.18-.148-2.246.111-2.4.587s.708,1.021,1.931,1.182S42.9,19.028,43,18.529,42.223,17.527,41.035,17.377Z" transform="translate(33.178 -13.759)"/><path d="M45.654,16.8l-7.7-.928-5.331,2.118,2.348,3.5,8.7,1.212,5.3-2.6Zm-2.67,5.073-6.771-.928L34.277,18.2l4.2-1.7,6.146.752,2.54,2.62Z" transform="translate(26.149 -15.48)"/><path d="M40.646,16.311a4.485,4.485,0,0,0-2.824-.052c-.7.3-.556.806.332,1.145a4.437,4.437,0,0,0,2.9.054C41.739,17.152,41.545,16.635,40.646,16.311Z" transform="translate(31.724 -15.26)"/><path d="M46.639,21.5a4.838,4.838,0,0,0-3.465-.934c-1.247.139-1.762.789-1.132,1.464a4.729,4.729,0,0,0,3.545.988C46.88,22.862,47.341,22.176,46.639,21.5Z" transform="translate(36.873 -10.008)"/><path d="M46.366,19.388c-1.34-.18-2.444.133-2.474.708-.03.591,1.071,1.24,2.47,1.438s2.542-.141,2.511-.749C48.844,20.191,47.717,19.57,46.366,19.388Z" transform="translate(39.356 -11.413)"/><path d="M51.058,18.684l-8.674-1.112-5.309,2.533,3.476,4.243,9.98,1.49,5.123-3.167Zm-1.532,6.137-7.747-1.136-2.835-3.322,4.175-2.042,6.937.9,3.532,3.161Z" transform="translate(31.364 -13.482)"/><path d="M45.636,18.1a4.554,4.554,0,0,0-3.107-.063c-.68.352-.387.965.678,1.371a4.5,4.5,0,0,0,3.2.07C47.072,19.109,46.713,18.494,45.636,18.1Z" transform="translate(37.331 -13.218)"/></g></g></svg>