<svg xmlns="http://www.w3.org/2000/svg" width="72.802" height="72.802" viewBox="0 0 72.802 72.802"><path d="M79.687,5.269a36.4,36.4,0,1,0,36.4,36.4A36.4,36.4,0,0,0,79.687,5.269Zm0,68.128c-5.719,0-10.356-3.82-10.356-8.533H90.043C90.043,69.575,85.4,73.4,79.687,73.4ZM96.793,62.039H62.577V55.831H96.771v6.207Zm-.122-9.4H62.677l-.338-.392c-3.5-4.254-4.328-6.473-5.127-8.734-.013-.074,4.247.871,7.268,1.551q1.9.428,3.827.773a14.2,14.2,0,0,1-3.478-9.132c0-7.3,5.6-13.673,3.576-18.827,1.965.159,4.066,4.147,4.208,10.383,2.091-2.886,2.962-8.159,2.962-11.391,0-3.348,2.206-7.235,4.41-7.368-1.967,3.241.51,6.02,2.709,12.911.828,2.592.719,6.948,1.357,9.707.211-5.739,1.2-14.113,4.84-17-1.605,3.637.24,8.2,1.5,10.385,2.034,3.533,3.267,6.207,3.267,11.273a14.071,14.071,0,0,1-3.367,9.089c2.4-.451,4.064-.858,4.064-.858l7.806-1.525a22.139,22.139,0,0,1-5.493,9.156Z" transform="translate(-43.286 -5.269)" fill="#da4e31"/></svg>