<svg xmlns="http://www.w3.org/2000/svg" width="69.579" height="70.623" viewBox="0 0 69.579 70.623"><path d="M77.161,56.273,70.418,26.946a5.367,5.367,0,0,0-3.4-3.662L36.254,13.8a4.127,4.127,0,0,0-1.285-.192,5.7,5.7,0,0,0-3.6,1.285L9.28,35.382A5.463,5.463,0,0,0,7.8,40.135L15,71.539A5.367,5.367,0,0,0,18.4,75.2L47.17,84.041a4.127,4.127,0,0,0,1.285.192,5.7,5.7,0,0,0,3.6-1.285l23.634-21.9a5.406,5.406,0,0,0,1.477-4.817ZM39.424,20.822l21.068,6.486c.835.259.835.643,0,.835l-11.11,2.588a3.167,3.167,0,0,1-2.588-.77l-7.772-8.35c-.643-.707-.449-1.029.388-.77ZM52.589,58.71c.216.835-.323,1.348-1.156,1.091l-22.8-7.064c-.835-.259-.964-.964-.323-1.542L45.777,35.011c.643-.578,1.285-.388,1.477.449ZM15.018,37.966l18.5-17.212a1.609,1.609,0,0,1,2.247.065l9.316,10.021a1.609,1.609,0,0,1-.065,2.247L26.451,50.3a1.609,1.609,0,0,1-2.247-.065L14.932,40.215A1.672,1.672,0,0,1,15,37.968Zm4.5,27.358-4.88-21.514c-.216-.835.129-1.029.707-.388l7.772,8.35a2.986,2.986,0,0,1,.578,2.631L20.349,65.319c-.259.835-.643.835-.835,0Zm27.08,12.524L22.447,70.4a1.588,1.588,0,0,1-1.029-1.99L25.464,55.37a1.588,1.588,0,0,1,1.99-1.029l24.083,7.45a1.588,1.588,0,0,1,1.029,1.99L48.52,76.82A1.5,1.5,0,0,1,46.594,77.848Zm21.45-17.532L51.86,75.282c-.643.578-.964.388-.707-.449L54.5,63.916a3.036,3.036,0,0,1,1.99-1.863L67.6,59.465c.9-.129,1.091.216.449.835Zm1.8-3.235L56.548,60.1a1.553,1.553,0,0,1-1.863-1.156l-5.65-24.6a1.552,1.552,0,0,1,1.156-1.863l13.294-3.019a1.553,1.553,0,0,1,1.863,1.156L71,55.219A1.553,1.553,0,0,1,69.843,57.082Z" transform="translate(-7.697 -13.611)"/></svg>