<svg xmlns="http://www.w3.org/2000/svg" width="57" height="64.014" viewBox="0 0 57 64.014"><g transform="translate(-8 -7.996)"><path d="M8,40a32.007,32.007,0,0,0,1.05,8H48a8,8,0,0,0,8-8h0a8,8,0,0,0-8-8H9.09A31.978,31.978,0,0,0,8,40Z" fill="#343741" fill-rule="evenodd"/><path d="M61.89,23.32A29.592,29.592,0,0,0,65,20a31.919,31.919,0,0,0-53.67,6H55.06A10.074,10.074,0,0,0,61.89,23.32Z" fill="#fec514" fill-rule="evenodd"/><path d="M55.06,54H11.33A31.92,31.92,0,0,0,65,60a29.592,29.592,0,0,0-3.11-3.32A10.069,10.069,0,0,0,55.06,54Z" fill="#00bfb3" fill-rule="evenodd"/></g></svg>