<svg xmlns="http://www.w3.org/2000/svg" width="66.332" height="75.061" viewBox="0 0 66.332 75.061"><g transform="translate(-43.927 -5.27)"><path d="M43.938,32.814l33.126,23.4,33.184-23.429L77.126,27.92Z" transform="translate(0.012 24.121)" fill="#b7ca9d"/><path d="M47.145,50l5.625,1.652L65.944,31.468,52.77,11.244l-5.625,2.172Z" transform="translate(3.427 6.362)" fill="#4c622c"/><path d="M49.88,11.255l19.832,4.487V48.248L49.88,51.759Z" transform="translate(6.34 6.374)" fill="#759c3f"/><path d="M59.2,61.424l-7.764-2.35V9.152L59.2,5.27,82.1,34.823Z" transform="translate(7.999 0)" fill="#4c622c"/><path d="M55.2,5.27,81.691,15.595V55.242L55.2,61.436Z" transform="translate(12.003 0)" fill="#759c3f"/><path d="M43.95,37.1,77.075,53.7V42.05L43.927,30.28Z" transform="translate(0 26.634)" fill="#4c622c"/><path d="M59.98,42.058,93.164,30.273v6.814L59.98,53.7Z" transform="translate(17.095 26.627)" fill="#759c3f"/><path d="M56.56,26.374l7.083,17.2L87.5,24.807H79.452Z" transform="translate(13.453 20.806)" fill="#b7ca9d"/><path d="M63.633,26.306l-7.083-.748V40.62l7.083,2.137Z" transform="translate(13.443 21.606)" fill="#4c622c"/><path d="M59.98,43.571l23.856-7.157v-11.6L59.98,27.1Z" transform="translate(17.095 20.808)" fill="#759c3f"/></g></svg>