<svg viewBox="0 0 298 36" fill="none" xmlns="http://www.w3.org/2000/svg">
<path d="M183.656 15.9279C183.595 15.38 183.534 14.7103 183.291 13.9798C183.108 13.2493 182.804 12.4579 182.378 11.6056C181.951 10.7533 181.404 9.90106 180.734 9.04878C180.49 8.7444 180.186 8.37914 179.821 8.07475C180.308 6.12669 179.212 4.48302 179.212 4.48302C177.386 4.36126 176.168 5.03091 175.742 5.39617C175.681 5.39617 175.62 5.33529 175.498 5.27442C175.194 5.15266 174.89 5.03091 174.524 4.90916C174.159 4.7874 173.855 4.72653 173.49 4.60477C173.124 4.5439 172.759 4.48302 172.455 4.42214C172.394 4.42214 172.333 4.42214 172.272 4.42214C171.481 1.86531 169.167 0.769531 169.167 0.769531C166.61 2.41321 166.123 4.66565 166.123 4.66565C166.123 4.66565 166.123 4.72653 166.123 4.7874C166.002 4.84828 165.819 4.84828 165.697 4.90916C165.515 4.97003 165.332 5.03091 165.089 5.09179C164.906 5.15266 164.723 5.21354 164.48 5.33529C164.114 5.51792 163.688 5.70055 163.323 5.88318C162.958 6.06582 162.593 6.30932 162.227 6.55283C162.166 6.55283 162.166 6.49195 162.166 6.49195C158.575 5.15266 155.409 6.79634 155.409 6.79634C155.105 10.5707 156.809 13.0058 157.175 13.4319C157.114 13.6754 156.992 13.9189 156.931 14.1624C156.688 15.0147 156.444 15.9279 156.322 16.841C156.322 16.9628 156.261 17.0845 156.261 17.2063C152.974 18.85 152 22.1982 152 22.1982C154.739 25.3638 157.966 25.5464 157.966 25.5464C158.392 26.2769 158.818 26.9466 159.366 27.6162C159.61 27.8597 159.853 28.1641 160.036 28.4076C159.062 31.2688 160.157 33.643 160.157 33.643C163.201 33.7648 165.21 32.3037 165.636 31.9385C165.941 32.0602 166.245 32.1211 166.55 32.2429C167.463 32.4864 168.437 32.6081 169.411 32.669C169.654 32.669 169.898 32.669 170.141 32.669H170.263H170.324H170.446H170.567C172.028 34.7388 174.524 35.0432 174.524 35.0432C176.351 33.156 176.412 31.2688 176.412 30.8427C176.412 30.7818 176.412 30.7818 176.412 30.7818V30.7209C176.777 30.4774 177.142 30.173 177.507 29.8687C178.238 29.199 178.847 28.4685 179.395 27.6771C179.455 27.6162 179.516 27.5553 179.516 27.4336C181.586 27.5553 182.986 26.1552 182.986 26.1552C182.621 24.0245 181.404 22.9896 181.16 22.8069C181.16 22.8069 181.16 22.8069 181.099 22.8069C181.099 22.6852 181.099 22.5634 181.099 22.4417C181.099 22.1982 181.099 21.9547 181.099 21.772V21.4677V21.4068V21.3459C181.099 21.285 181.099 21.285 181.099 21.285V21.1633V20.9806C181.099 20.9198 181.099 20.8589 181.099 20.798C181.099 20.7371 181.099 20.6763 181.099 20.6154V20.4327V20.2501C181.038 20.0066 181.038 19.7631 180.977 19.5805C180.734 18.6673 180.429 17.815 179.942 17.0236C179.455 16.2322 178.908 15.5626 178.238 14.9538C177.568 14.3451 176.838 13.9189 176.046 13.5537C175.255 13.1884 174.464 13.0058 173.611 12.884C173.185 12.8231 172.82 12.8231 172.394 12.8231H172.272H172.211H172.15H172.089H171.968C171.907 12.8231 171.846 12.8231 171.785 12.8231C171.602 12.8231 171.359 12.884 171.176 12.884C170.385 13.0058 169.593 13.3102 168.924 13.7363C168.254 14.1624 167.645 14.6495 167.158 15.1973C166.671 15.7452 166.306 16.4149 166.063 17.0845C165.819 17.7542 165.697 18.4238 165.636 19.0935C165.636 19.2761 165.636 19.3978 165.636 19.5805C165.636 19.6413 165.636 19.6413 165.636 19.7022V19.824C165.636 19.8849 165.636 20.0066 165.636 20.0675C165.697 20.3719 165.758 20.7371 165.819 21.0415C166.002 21.6503 166.306 22.1982 166.61 22.6852C166.976 23.1722 167.402 23.5375 167.828 23.8419C168.254 24.1462 168.741 24.3897 169.228 24.5115C169.715 24.6332 170.141 24.6941 170.628 24.6941C170.689 24.6941 170.75 24.6941 170.811 24.6941H170.872H170.933C170.994 24.6941 171.054 24.6941 171.054 24.6941C171.054 24.6941 171.054 24.6941 171.115 24.6941H171.176H171.237C171.298 24.6941 171.359 24.6941 171.42 24.6941C171.481 24.6941 171.541 24.6941 171.602 24.6332C171.724 24.6332 171.785 24.5724 171.907 24.5724C172.089 24.5115 172.272 24.4506 172.455 24.3289C172.637 24.268 172.759 24.1462 172.942 24.0245C173.003 24.0245 173.003 23.9636 173.063 23.9027C173.246 23.781 173.246 23.5375 173.124 23.4157C173.003 23.294 172.82 23.2331 172.698 23.3548C172.637 23.3548 172.637 23.4157 172.576 23.4157C172.455 23.4766 172.333 23.5375 172.15 23.5983C172.028 23.6592 171.846 23.6592 171.724 23.7201C171.663 23.7201 171.541 23.7201 171.481 23.7201C171.42 23.7201 171.42 23.7201 171.359 23.7201C171.298 23.7201 171.298 23.7201 171.237 23.7201C171.176 23.7201 171.176 23.7201 171.115 23.7201C171.054 23.7201 170.994 23.7201 170.994 23.7201H170.933H170.872C170.811 23.7201 170.811 23.7201 170.75 23.7201C170.385 23.6592 170.08 23.5983 169.715 23.4157C169.35 23.294 169.046 23.0505 168.741 22.8069C168.437 22.5634 168.193 22.1982 168.011 21.8938C167.828 21.5894 167.645 21.1633 167.584 20.7371C167.524 20.5545 167.524 20.311 167.524 20.1284C167.524 20.0675 167.524 20.0066 167.524 19.9457V19.8849V19.824C167.524 19.7022 167.524 19.5805 167.584 19.4587C167.767 18.5456 168.193 17.6933 168.924 16.9628C169.106 16.7801 169.289 16.6584 169.472 16.4758C169.654 16.354 169.898 16.2322 170.08 16.1105C170.324 15.9887 170.567 15.9279 170.75 15.867C170.994 15.8061 171.237 15.7452 171.481 15.7452C171.602 15.7452 171.724 15.7452 171.846 15.7452C171.907 15.7452 171.907 15.7452 171.907 15.7452H172.028H172.089H172.211C172.455 15.7452 172.759 15.8061 173.003 15.867C173.55 15.9887 174.037 16.1714 174.524 16.4758C175.498 17.0236 176.29 17.8759 176.838 18.85C177.081 19.337 177.264 19.8849 177.386 20.4327C177.386 20.5545 177.447 20.7371 177.447 20.8589V20.9806V21.1024C177.447 21.1633 177.447 21.1633 177.447 21.2241C177.447 21.285 177.447 21.285 177.447 21.3459V21.4677V21.5894C177.447 21.6503 177.447 21.772 177.447 21.8329C177.447 22.0155 177.447 22.1373 177.386 22.3199C177.386 22.4417 177.325 22.6243 177.325 22.7461C177.325 22.8678 177.264 23.0505 177.203 23.1722C177.142 23.4766 177.02 23.781 176.899 24.0245C176.655 24.5724 176.351 25.1203 175.985 25.6682C175.255 26.6422 174.281 27.4945 173.124 27.9815C172.576 28.225 171.968 28.4076 171.359 28.5294C171.054 28.5902 170.75 28.5902 170.446 28.6511H170.385H170.324H170.202H170.08H170.02C169.837 28.6511 169.715 28.6511 169.533 28.6511C168.863 28.5902 168.193 28.4685 167.584 28.2859C166.976 28.1032 166.306 27.8597 165.758 27.5553C164.602 26.9466 163.567 26.0943 162.714 25.0594C162.288 24.5724 161.923 24.0245 161.679 23.4157C161.375 22.8069 161.132 22.1982 160.949 21.5894C160.766 20.9806 160.645 20.311 160.645 19.7022V19.5805V19.5196V19.3978V19.0326V18.9717V18.85V18.7891C160.645 18.7282 160.645 18.6064 160.645 18.5456C160.645 18.2412 160.705 17.8759 160.705 17.5715C160.766 17.2672 160.827 16.9019 160.888 16.5975C160.949 16.2931 161.01 15.9279 161.132 15.6235C161.314 15.0147 161.558 14.4059 161.801 13.7972C162.349 12.6405 163.019 11.6056 163.871 10.8142C164.054 10.6316 164.297 10.3881 164.541 10.2054C164.784 10.0228 165.028 9.84018 165.271 9.71843C165.515 9.5358 165.758 9.41404 166.002 9.29229C166.123 9.23141 166.245 9.17053 166.367 9.10966C166.428 9.10966 166.489 9.04878 166.55 9.04878C166.61 9.04878 166.671 8.9879 166.732 8.9879C166.976 8.86615 167.28 8.80527 167.524 8.68352C167.584 8.68352 167.645 8.62264 167.706 8.62264C167.767 8.62264 167.828 8.56177 167.889 8.56177C168.011 8.50089 168.193 8.50089 168.315 8.44001C168.376 8.44001 168.437 8.37914 168.559 8.37914C168.619 8.37914 168.68 8.37914 168.802 8.31826C168.863 8.31826 168.924 8.31826 169.046 8.25738H169.167H169.289C169.35 8.25738 169.411 8.25738 169.533 8.19651C169.593 8.19651 169.715 8.19651 169.776 8.13563C169.837 8.13563 169.959 8.13563 170.02 8.13563C170.08 8.13563 170.141 8.13563 170.202 8.13563H170.324H170.385H170.446C170.507 8.13563 170.628 8.13563 170.689 8.13563H170.811H170.872C170.933 8.13563 170.994 8.13563 171.054 8.13563C171.359 8.13563 171.602 8.13563 171.907 8.13563C172.455 8.13563 173.003 8.19651 173.55 8.31826C174.585 8.50089 175.559 8.86615 176.472 9.29229C177.386 9.71843 178.177 10.2663 178.847 10.8751C178.908 10.936 178.908 10.936 178.968 10.9968C179.029 11.0577 179.029 11.0577 179.09 11.1186C179.151 11.1795 179.273 11.2403 179.334 11.3621C179.395 11.4839 179.516 11.4839 179.577 11.6056C179.638 11.7274 179.76 11.7882 179.821 11.8491C180.125 12.1535 180.369 12.4579 180.612 12.8231C181.099 13.4319 181.525 14.1016 181.83 14.7103C181.83 14.7712 181.891 14.7712 181.891 14.8321C181.891 14.893 181.951 14.893 181.951 14.9538C182.012 15.0147 182.012 15.0756 182.073 15.1973C182.134 15.2582 182.134 15.3191 182.195 15.4408C182.256 15.5017 182.256 15.5626 182.317 15.6844C182.438 15.9887 182.56 16.2322 182.621 16.4758C182.743 16.9019 182.865 17.2672 182.925 17.5715C182.986 17.6933 183.108 17.815 183.23 17.7542C183.352 17.7542 183.473 17.6324 183.473 17.5107C183.717 16.7801 183.717 16.354 183.656 15.9279Z" fill="url(#paint0_linear_4900_976)"/>
<path d="M183.656 15.9279C183.595 15.38 183.534 14.7103 183.291 13.9798C183.108 13.2493 182.804 12.4579 182.378 11.6056C181.951 10.7533 181.404 9.90106 180.734 9.04878C180.49 8.7444 180.186 8.37914 179.821 8.07475C180.308 6.12669 179.212 4.48302 179.212 4.48302C177.386 4.36126 176.168 5.03091 175.742 5.39617C175.681 5.39617 175.62 5.33529 175.498 5.27442C175.194 5.15266 174.89 5.03091 174.524 4.90916C174.159 4.7874 173.855 4.72653 173.49 4.60477C173.124 4.5439 172.759 4.48302 172.455 4.42214C172.394 4.42214 172.333 4.42214 172.272 4.42214C171.481 1.86531 169.167 0.769531 169.167 0.769531C166.61 2.41321 166.123 4.66565 166.123 4.66565C166.123 4.66565 166.123 4.72653 166.123 4.7874C166.002 4.84828 165.819 4.84828 165.697 4.90916C165.515 4.97003 165.332 5.03091 165.089 5.09179C164.906 5.15266 164.723 5.21354 164.48 5.33529C164.114 5.51792 163.688 5.70055 163.323 5.88318C162.958 6.06582 162.593 6.30932 162.227 6.55283C162.166 6.55283 162.166 6.49195 162.166 6.49195C158.575 5.15266 155.409 6.79634 155.409 6.79634C155.105 10.5707 156.809 13.0058 157.175 13.4319C157.114 13.6754 156.992 13.9189 156.931 14.1624C156.688 15.0147 156.444 15.9279 156.322 16.841C156.322 16.9628 156.261 17.0845 156.261 17.2063C152.974 18.85 152 22.1982 152 22.1982C154.739 25.3638 157.966 25.5464 157.966 25.5464C158.392 26.2769 158.818 26.9466 159.366 27.6162C159.61 27.8597 159.853 28.1641 160.036 28.4076C159.062 31.2688 160.157 33.643 160.157 33.643C163.201 33.7648 165.21 32.3037 165.636 31.9385C165.941 32.0602 166.245 32.1211 166.55 32.2429C167.463 32.4864 168.437 32.6081 169.411 32.669C169.654 32.669 169.898 32.669 170.141 32.669H170.263H170.324H170.446H170.567C172.028 34.7388 174.524 35.0432 174.524 35.0432C176.351 33.156 176.412 31.2688 176.412 30.8427C176.412 30.7818 176.412 30.7818 176.412 30.7818V30.7209C176.777 30.4774 177.142 30.173 177.507 29.8687C178.238 29.199 178.847 28.4685 179.395 27.6771C179.455 27.6162 179.516 27.5553 179.516 27.4336C181.586 27.5553 182.986 26.1552 182.986 26.1552C182.621 24.0245 181.404 22.9896 181.16 22.8069C181.16 22.8069 181.16 22.8069 181.099 22.8069C181.099 22.6852 181.099 22.5634 181.099 22.4417C181.099 22.1982 181.099 21.9547 181.099 21.772V21.4677V21.4068V21.3459C181.099 21.285 181.099 21.285 181.099 21.285V21.1633V20.9806C181.099 20.9198 181.099 20.8589 181.099 20.798C181.099 20.7371 181.099 20.6763 181.099 20.6154V20.4327V20.2501C181.038 20.0066 181.038 19.7631 180.977 19.5805C180.734 18.6673 180.429 17.815 179.942 17.0236C179.455 16.2322 178.908 15.5626 178.238 14.9538C177.568 14.3451 176.838 13.9189 176.046 13.5537C175.255 13.1884 174.464 13.0058 173.611 12.884C173.185 12.8231 172.82 12.8231 172.394 12.8231H172.272H172.211H172.15H172.089H171.968C171.907 12.8231 171.846 12.8231 171.785 12.8231C171.602 12.8231 171.359 12.884 171.176 12.884C170.385 13.0058 169.593 13.3102 168.924 13.7363C168.254 14.1624 167.645 14.6495 167.158 15.1973C166.671 15.7452 166.306 16.4149 166.063 17.0845C165.819 17.7542 165.697 18.4238 165.636 19.0935C165.636 19.2761 165.636 19.3978 165.636 19.5805C165.636 19.6413 165.636 19.6413 165.636 19.7022V19.824C165.636 19.8849 165.636 20.0066 165.636 20.0675C165.697 20.3719 165.758 20.7371 165.819 21.0415C166.002 21.6503 166.306 22.1982 166.61 22.6852C166.976 23.1722 167.402 23.5375 167.828 23.8419C168.254 24.1462 168.741 24.3897 169.228 24.5115C169.715 24.6332 170.141 24.6941 170.628 24.6941C170.689 24.6941 170.75 24.6941 170.811 24.6941H170.872H170.933C170.994 24.6941 171.054 24.6941 171.054 24.6941C171.054 24.6941 171.054 24.6941 171.115 24.6941H171.176H171.237C171.298 24.6941 171.359 24.6941 171.42 24.6941C171.481 24.6941 171.541 24.6941 171.602 24.6332C171.724 24.6332 171.785 24.5724 171.907 24.5724C172.089 24.5115 172.272 24.4506 172.455 24.3289C172.637 24.268 172.759 24.1462 172.942 24.0245C173.003 24.0245 173.003 23.9636 173.063 23.9027C173.246 23.781 173.246 23.5375 173.124 23.4157C173.003 23.294 172.82 23.2331 172.698 23.3548C172.637 23.3548 172.637 23.4157 172.576 23.4157C172.455 23.4766 172.333 23.5375 172.15 23.5983C172.028 23.6592 171.846 23.6592 171.724 23.7201C171.663 23.7201 171.541 23.7201 171.481 23.7201C171.42 23.7201 171.42 23.7201 171.359 23.7201C171.298 23.7201 171.298 23.7201 171.237 23.7201C171.176 23.7201 171.176 23.7201 171.115 23.7201C171.054 23.7201 170.994 23.7201 170.994 23.7201H170.933H170.872C170.811 23.7201 170.811 23.7201 170.75 23.7201C170.385 23.6592 170.08 23.5983 169.715 23.4157C169.35 23.294 169.046 23.0505 168.741 22.8069C168.437 22.5634 168.193 22.1982 168.011 21.8938C167.828 21.5894 167.645 21.1633 167.584 20.7371C167.524 20.5545 167.524 20.311 167.524 20.1284C167.524 20.0675 167.524 20.0066 167.524 19.9457V19.8849V19.824C167.524 19.7022 167.524 19.5805 167.584 19.4587C167.767 18.5456 168.193 17.6933 168.924 16.9628C169.106 16.7801 169.289 16.6584 169.472 16.4758C169.654 16.354 169.898 16.2322 170.08 16.1105C170.324 15.9887 170.567 15.9279 170.75 15.867C170.994 15.8061 171.237 15.7452 171.481 15.7452C171.602 15.7452 171.724 15.7452 171.846 15.7452C171.907 15.7452 171.907 15.7452 171.907 15.7452H172.028H172.089H172.211C172.455 15.7452 172.759 15.8061 173.003 15.867C173.55 15.9887 174.037 16.1714 174.524 16.4758C175.498 17.0236 176.29 17.8759 176.838 18.85C177.081 19.337 177.264 19.8849 177.386 20.4327C177.386 20.5545 177.447 20.7371 177.447 20.8589V20.9806V21.1024C177.447 21.1633 177.447 21.1633 177.447 21.2241C177.447 21.285 177.447 21.285 177.447 21.3459V21.4677V21.5894C177.447 21.6503 177.447 21.772 177.447 21.8329C177.447 22.0155 177.447 22.1373 177.386 22.3199C177.386 22.4417 177.325 22.6243 177.325 22.7461C177.325 22.8678 177.264 23.0505 177.203 23.1722C177.142 23.4766 177.02 23.781 176.899 24.0245C176.655 24.5724 176.351 25.1203 175.985 25.6682C175.255 26.6422 174.281 27.4945 173.124 27.9815C172.576 28.225 171.968 28.4076 171.359 28.5294C171.054 28.5902 170.75 28.5902 170.446 28.6511H170.385H170.324H170.202H170.08H170.02C169.837 28.6511 169.715 28.6511 169.533 28.6511C168.863 28.5902 168.193 28.4685 167.584 28.2859C166.976 28.1032 166.306 27.8597 165.758 27.5553C164.602 26.9466 163.567 26.0943 162.714 25.0594C162.288 24.5724 161.923 24.0245 161.679 23.4157C161.375 22.8069 161.132 22.1982 160.949 21.5894C160.766 20.9806 160.645 20.311 160.645 19.7022V19.5805V19.5196V19.3978V19.0326V18.9717V18.85V18.7891C160.645 18.7282 160.645 18.6064 160.645 18.5456C160.645 18.2412 160.705 17.8759 160.705 17.5715C160.766 17.2672 160.827 16.9019 160.888 16.5975C160.949 16.2931 161.01 15.9279 161.132 15.6235C161.314 15.0147 161.558 14.4059 161.801 13.7972C162.349 12.6405 163.019 11.6056 163.871 10.8142C164.054 10.6316 164.297 10.3881 164.541 10.2054C164.784 10.0228 165.028 9.84018 165.271 9.71843C165.515 9.5358 165.758 9.41404 166.002 9.29229C166.123 9.23141 166.245 9.17053 166.367 9.10966C166.428 9.10966 166.489 9.04878 166.55 9.04878C166.61 9.04878 166.671 8.9879 166.732 8.9879C166.976 8.86615 167.28 8.80527 167.524 8.68352C167.584 8.68352 167.645 8.62264 167.706 8.62264C167.767 8.62264 167.828 8.56177 167.889 8.56177C168.011 8.50089 168.193 8.50089 168.315 8.44001C168.376 8.44001 168.437 8.37914 168.559 8.37914C168.619 8.37914 168.68 8.37914 168.802 8.31826C168.863 8.31826 168.924 8.31826 169.046 8.25738H169.167H169.289C169.35 8.25738 169.411 8.25738 169.533 8.19651C169.593 8.19651 169.715 8.19651 169.776 8.13563C169.837 8.13563 169.959 8.13563 170.02 8.13563C170.08 8.13563 170.141 8.13563 170.202 8.13563H170.324H170.385H170.446C170.507 8.13563 170.628 8.13563 170.689 8.13563H170.811H170.872C170.933 8.13563 170.994 8.13563 171.054 8.13563C171.359 8.13563 171.602 8.13563 171.907 8.13563C172.455 8.13563 173.003 8.19651 173.55 8.31826C174.585 8.50089 175.559 8.86615 176.472 9.29229C177.386 9.71843 178.177 10.2663 178.847 10.8751C178.908 10.936 178.908 10.936 178.968 10.9968C179.029 11.0577 179.029 11.0577 179.09 11.1186C179.151 11.1795 179.273 11.2403 179.334 11.3621C179.395 11.4839 179.516 11.4839 179.577 11.6056C179.638 11.7274 179.76 11.7882 179.821 11.8491C180.125 12.1535 180.369 12.4579 180.612 12.8231C181.099 13.4319 181.525 14.1016 181.83 14.7103C181.83 14.7712 181.891 14.7712 181.891 14.8321C181.891 14.893 181.951 14.893 181.951 14.9538C182.012 15.0147 182.012 15.0756 182.073 15.1973C182.134 15.2582 182.134 15.3191 182.195 15.4408C182.256 15.5017 182.256 15.5626 182.317 15.6844C182.438 15.9887 182.56 16.2322 182.621 16.4758C182.743 16.9019 182.865 17.2672 182.925 17.5715C182.986 17.6933 183.108 17.815 183.23 17.7542C183.352 17.7542 183.473 17.6324 183.473 17.5107C183.717 16.7801 183.717 16.354 183.656 15.9279Z" fill="#FF7020"/>
<path d="M212.164 19.2756C211.92 25.2415 207.233 29.929 201.328 29.929C195.118 29.929 190.553 24.9371 190.553 18.8494C190.553 12.7618 195.545 7.70898 201.632 7.70898C204.372 7.70898 207.05 8.86564 209.364 10.9963L207.598 13.1879C205.833 11.666 203.763 10.6311 201.693 10.6311C197.249 10.6311 193.597 14.2837 193.597 18.7886C193.597 23.3543 197.067 26.8852 201.45 26.8852C205.407 26.8852 208.511 24.024 209.12 20.2496H200.171V17.6319H212.286L212.164 19.2756Z" fill="white"/>
<path d="M222.511 17.814H220.868C219.041 17.814 217.58 19.2751 217.58 21.1014V29.7459H214.658V15.0137H217.093V16.2312C217.885 15.4398 219.163 15.0137 220.563 15.0137H223.729L222.511 17.814Z" fill="white"/>
<path d="M238.582 29.7452H236.086V27.858C234.138 29.7452 231.094 30.6584 227.989 29.3191C225.676 28.2842 223.971 26.2144 223.545 23.7184C222.632 19.0309 226.284 14.7695 230.972 14.7695C232.92 14.7695 234.746 15.5609 236.025 16.8393V14.9522H238.582V29.7452ZM235.538 23.4749C236.207 20.492 233.955 17.7525 231.033 17.7525C228.476 17.7525 226.406 19.8223 226.406 22.3791C226.406 25.2403 228.902 27.4928 231.885 26.9449C233.651 26.6405 235.112 25.2403 235.538 23.4749Z" fill="white"/>
<path d="M244.49 14.1622V15.0144H249.178V17.6321H244.49V29.8075H241.568V14.2839C241.568 11.0574 243.882 9.10938 246.804 9.10938H250.335L249.178 11.9097H246.804C245.525 11.9097 244.49 12.8837 244.49 14.1622Z" fill="white"/>
<path d="M264.82 29.7452H262.324V27.858C260.376 29.7452 257.332 30.6584 254.227 29.3191C251.914 28.2842 250.21 26.2144 249.783 23.7184C248.87 19.0309 252.584 14.7695 257.271 14.7695C259.219 14.7695 261.046 15.5609 262.324 16.8393V14.9522H264.881L264.82 29.7452ZM261.837 23.4749C262.507 20.492 260.254 17.7525 257.332 17.7525C254.775 17.7525 252.706 19.8223 252.706 22.3791C252.706 25.2403 255.201 27.4928 258.184 26.9449C259.95 26.6405 261.411 25.2403 261.837 23.4749Z" fill="white"/>
<path d="M280.589 21.0398V29.7452H277.667V21.0398C277.667 19.2135 276.145 17.7525 274.38 17.7525C272.492 17.7525 271.031 19.2135 271.031 21.0398V29.7452H268.109V15.013H270.544V16.2915C271.579 15.3174 273.04 14.7695 274.501 14.7695C277.911 14.7695 280.589 17.5699 280.589 21.0398Z" fill="white"/>
<path d="M297.939 29.7452H295.443V27.858C293.495 29.7452 290.451 30.6584 287.347 29.3191C285.033 28.2842 283.329 26.2144 282.903 23.7184C281.989 19.0309 285.703 14.7695 290.39 14.7695C292.338 14.7695 294.165 15.5609 295.443 16.8393V14.9522H298L297.939 29.7452ZM294.956 23.4749C295.626 20.492 293.373 17.7525 290.451 17.7525C287.894 17.7525 285.825 19.8223 285.825 22.3791C285.825 25.2403 288.321 27.4928 291.304 26.9449C293.008 26.6405 294.53 25.2403 294.956 23.4749Z" fill="white"/>
<path d="M3.79351 10.0909H0.709707L7.51439 29H10.8106L17.6152 10.0909H14.5314L9.26866 25.4915H9.0563L3.79351 10.0909ZM19.6043 29H22.365V14.8182H19.6043V29ZM20.9985 12.63C21.9495 12.63 22.7435 11.8913 22.7435 10.9865C22.7435 10.0817 21.9495 9.33381 20.9985 9.33381C20.0383 9.33381 19.2534 10.0817 19.2534 10.9865C19.2534 11.8913 20.0383 12.63 20.9985 12.63ZM36.186 18.2805C35.6136 16.0739 33.887 14.6335 30.8217 14.6335C27.6179 14.6335 25.3466 16.3232 25.3466 18.8345C25.3466 20.8473 26.5653 22.1861 29.2244 22.777L31.625 23.3033C32.9914 23.608 33.6285 24.2173 33.6285 25.1037C33.6285 26.2024 32.4559 27.0611 30.6463 27.0611C28.9936 27.0611 27.9318 26.3501 27.5994 24.956L24.9311 25.3622C25.3927 27.8736 27.4794 29.2862 30.6647 29.2862C34.0902 29.2862 36.463 27.4673 36.463 24.9006C36.463 22.897 35.1889 21.6598 32.5852 21.0597L30.3323 20.5426C28.772 20.1733 28.098 19.647 28.1072 18.6868C28.098 17.5973 29.2798 16.8217 30.8494 16.8217C32.5667 16.8217 33.3608 17.7727 33.6839 18.7237L36.186 18.2805ZM47.962 23.1186C47.9713 25.5284 46.1801 26.6733 44.6289 26.6733C42.9208 26.6733 41.739 25.4361 41.739 23.5064V14.8182H38.9784V23.8388C38.9784 27.3565 40.9081 29.1847 43.6318 29.1847C45.7646 29.1847 47.2142 28.0582 47.8697 26.544H48.0174V29H50.7319V14.8182H47.962V23.1186ZM58.0484 29.3139C60.3936 29.3139 61.7139 28.1229 62.2401 27.0611H62.3509V29H65.047V19.5824C65.047 15.4553 61.797 14.6335 59.5441 14.6335C56.9774 14.6335 54.6137 15.6676 53.6904 18.2528L56.2849 18.8438C56.6911 17.8374 57.7252 16.8679 59.5811 16.8679C61.363 16.8679 62.2771 17.8004 62.2771 19.407V19.4716C62.2771 20.478 61.243 20.4595 58.6947 20.755C56.0079 21.0689 53.2565 21.7706 53.2565 24.9929C53.2565 27.7812 55.3524 29.3139 58.0484 29.3139ZM58.6485 27.098C57.0882 27.098 55.9617 26.3963 55.9617 25.0298C55.9617 23.5526 57.2728 23.0263 58.8701 22.8139C59.7657 22.6939 61.8893 22.4538 62.2863 22.0568V23.8849C62.2863 25.5653 60.9475 27.098 58.6485 27.098ZM70.9646 10.0909H68.204V29H70.9646V10.0909ZM74.1586 29H76.9193V14.8182H74.1586V29ZM75.5528 12.63C76.5038 12.63 77.2978 11.8913 77.2978 10.9865C77.2978 10.0817 76.5038 9.33381 75.5528 9.33381C74.5925 9.33381 73.8077 10.0817 73.8077 10.9865C73.8077 11.8913 74.5925 12.63 75.5528 12.63ZM79.8178 29H91.202V26.5994H83.5571V26.4702L90.9435 16.831V14.8182H80.067V17.2188H87.4996V17.348L79.8178 27.1072V29ZM99.6449 29.2862C102.738 29.2862 104.926 27.7628 105.554 25.4545L102.941 24.9837C102.442 26.3224 101.242 27.0057 99.6726 27.0057C97.3089 27.0057 95.7209 25.473 95.647 22.7401H105.729V21.7614C105.729 16.6371 102.664 14.6335 99.451 14.6335C95.4993 14.6335 92.8956 17.6435 92.8956 22.0014C92.8956 26.4055 95.4623 29.2862 99.6449 29.2862ZM95.6562 20.6719C95.767 18.6591 97.2258 16.9141 99.4694 16.9141C101.611 16.9141 103.015 18.5021 103.024 20.6719H95.6562Z" fill="white"/>
<path opacity="0.8" d="M116.695 26L114.368 18.3636H115.601L117.251 24.2102H117.331L118.962 18.3636H120.214L121.825 24.1903H121.905L123.555 18.3636H124.788L122.462 26H121.308L119.638 20.1335H119.518L117.848 26H116.695ZM126.339 26V18.3636H127.513V26H126.339ZM126.936 17.0909C126.707 17.0909 126.51 17.013 126.344 16.8572C126.182 16.7015 126.101 16.5142 126.101 16.2955C126.101 16.0767 126.182 15.8894 126.344 15.7337C126.51 15.5779 126.707 15.5 126.936 15.5C127.165 15.5 127.36 15.5779 127.523 15.7337C127.688 15.8894 127.771 16.0767 127.771 16.2955C127.771 16.5142 127.688 16.7015 127.523 16.8572C127.36 17.013 127.165 17.0909 126.936 17.0909ZM132.983 18.3636V19.358H129.025V18.3636H132.983ZM130.179 16.5341H131.352V23.8125C131.352 24.1439 131.4 24.3925 131.496 24.5582C131.596 24.7206 131.722 24.83 131.874 24.8864C132.03 24.9394 132.194 24.9659 132.366 24.9659C132.496 24.9659 132.602 24.9593 132.684 24.946C132.767 24.9295 132.834 24.9162 132.883 24.9062L133.122 25.9602C133.042 25.9901 132.931 26.0199 132.789 26.0497C132.646 26.0829 132.466 26.0994 132.247 26.0994C131.916 26.0994 131.591 26.0282 131.273 25.8857C130.958 25.7431 130.696 25.526 130.487 25.2344C130.282 24.9427 130.179 24.5748 130.179 24.1307V16.5341ZM136.085 21.4062V26H134.912V15.8182H136.085V19.5568H136.184C136.363 19.1624 136.632 18.8492 136.99 18.6172C137.351 18.3819 137.832 18.2642 138.432 18.2642C138.952 18.2642 139.408 18.3686 139.799 18.5774C140.19 18.7829 140.493 19.0994 140.709 19.527C140.927 19.9512 141.037 20.4915 141.037 21.1477V26H139.863V21.2273C139.863 20.6207 139.706 20.1518 139.391 19.8203C139.08 19.4856 138.647 19.3182 138.094 19.3182C137.709 19.3182 137.364 19.3994 137.059 19.5618C136.758 19.7242 136.519 19.9612 136.344 20.2727C136.171 20.5843 136.085 20.9621 136.085 21.4062Z" fill="white"/>
<defs>
<linearGradient id="paint0_linear_4900_976" x1="167.944" y1="44.3053" x2="167.944" y2="4.65665" gradientUnits="userSpaceOnUse">
<stop stop-color="#FFF100"/>
<stop offset="1" stop-color="#F05A28"/>
</linearGradient>
</defs>
</svg>