<svg width="100" height="100" viewBox="0 0 100 100" fill="none" xmlns="http://www.w3.org/2000/svg">
<circle cx="50" cy="50" r="50" fill="white"/>
<path d="M21.0362 41.7164H19.943C19.6429 41.7164 19.3551 41.8356 19.1429 42.0477C18.9307 42.2599 18.8115 42.5477 18.8115 42.8478C18.8115 43.1479 18.9307 43.4356 19.1429 43.6478C19.3551 43.86 19.6429 43.9792 19.943 43.9792H21.0362C21.3363 43.9792 21.6241 43.86 21.8362 43.6478C22.0484 43.4356 22.1676 43.1479 22.1676 42.8478C22.1676 42.5477 22.0484 42.2599 21.8362 42.0477C21.6241 41.8356 21.3363 41.7164 21.0362 41.7164ZM41.9557 58.22H40.8625C40.5624 58.22 40.2746 58.3392 40.0625 58.5514C39.8503 58.7635 39.7311 59.0513 39.7311 59.3514C39.7311 59.6515 39.8503 59.9393 40.0625 60.1514C40.2746 60.3636 40.5624 60.4828 40.8625 60.4828H41.9557C42.2558 60.4828 42.5436 60.3636 42.7558 60.1514C42.968 59.9393 43.0872 59.6515 43.0872 59.3514C43.0872 59.0513 42.968 58.7635 42.7558 58.5514C42.5436 58.3392 42.2558 58.22 41.9557 58.22ZM41.0391 47.4451C41.0391 47.145 40.9199 46.8573 40.7077 46.6451C40.4956 46.4329 40.2078 46.3137 39.9077 46.3137H36.1267C35.8266 46.3137 35.5389 46.4329 35.3267 46.6451C35.1145 46.8573 34.9953 47.145 34.9953 47.4451C34.9953 47.7452 35.1145 48.033 35.3267 48.2452C35.5389 48.4573 35.8266 48.5765 36.1267 48.5765H39.9077C40.2078 48.5765 40.4956 48.4573 40.7077 48.2452C40.9199 48.033 41.0391 47.7452 41.0391 47.4451ZM76.9251 40.3319L75.7746 33.8679C75.6181 32.6981 75.0288 31.6293 74.1228 30.8728C73.2169 30.1162 72.0603 29.7268 70.8812 29.7814H26.5645C26.1042 29.765 25.6464 29.8549 25.2265 30.044C24.8067 30.2331 24.436 30.5164 24.1433 30.8719C23.8505 31.2274 23.6437 31.6456 23.5386 32.0939C23.4336 32.5423 23.4333 33.0089 23.5378 33.4574L24.7503 40.3319C24.7603 40.3866 24.773 40.4408 24.7885 40.4942C24.9318 41.3344 24.5069 41.6734 24.125 41.7975C23.8748 41.8875 23.6643 42.0627 23.5305 42.2924C23.3966 42.5221 23.3479 42.7916 23.3929 43.0536C23.4379 43.3156 23.5737 43.5534 23.7766 43.7253C23.9794 43.8972 24.2363 43.9921 24.5021 43.9935H73.8984C74.3571 44.0094 74.8133 43.9197 75.2319 43.7314C75.6504 43.543 76.0202 43.2611 76.3126 42.9074C76.605 42.5536 76.8123 42.1374 76.9185 41.6909C77.0247 41.2444 77.0269 40.7794 76.9251 40.3319ZM61.8489 66.2641C61.3715 63.7578 59.9393 62.8269 58.3209 62.8269H46.6151C46.3134 62.8294 46.0249 62.9514 45.8128 63.1661C45.6008 63.3808 45.4824 63.6708 45.4837 63.9726C45.4811 64.2547 45.5839 64.5275 45.772 64.7377C45.9601 64.9479 46.2199 65.0803 46.5006 65.1088C46.8729 65.1756 47.2739 65.6626 47.527 66.8656L48.73 73.5492C48.9499 74.5551 49.5026 75.4576 50.2987 76.1107C51.0947 76.7639 52.0877 77.1296 53.1173 77.1488L60.1016 77.1153C60.5612 77.1376 61.0198 77.0538 61.4419 76.8704C61.8639 76.6869 62.238 76.4088 62.5353 76.0575C62.8326 75.7062 63.045 75.2912 63.1561 74.8447C63.2672 74.3981 63.274 73.932 63.176 73.4824L61.8489 66.2641ZM46.3717 60.564H59.0752C59.1706 60.5621 59.2653 60.5477 59.3569 60.521C60.5313 60.2728 60.5885 59.318 60.4358 58.368L58.8174 49.4836C58.3734 47.173 57.0319 46.2612 55.2703 46.2612H43.6362C43.3499 46.2643 43.0754 46.3759 42.8681 46.5734C42.6609 46.771 42.5362 47.0397 42.5192 47.3255C42.5023 47.6113 42.5943 47.893 42.7768 48.1136C42.9592 48.3342 43.2186 48.4775 43.5025 48.5145C43.8892 48.5861 44.3141 49.1065 44.5623 50.4241L45.7892 57.2222C45.8223 57.3447 45.8297 57.4727 45.8107 57.5981C45.7918 57.7236 45.747 57.8437 45.6793 57.951C45.6115 58.0582 45.5222 58.1502 45.4171 58.2212C45.3119 58.2921 45.1932 58.3405 45.0684 58.3632C44.8159 58.4506 44.6028 58.6249 44.467 58.8549C44.3311 59.0849 44.2814 59.3557 44.3267 59.6189C44.372 59.8822 44.5094 60.1208 44.7143 60.2921C44.9192 60.4635 45.1784 60.5564 45.4455 60.5544H46.3526L46.3717 60.564Z" fill="url(#paint0_linear)"/>
<defs>
<linearGradient id="paint0_linear" x1="99.2768" y1="36.1785" x2="31.7967" y2="56.9931" gradientUnits="userSpaceOnUse">
<stop stop-color="#FFF100"/>
<stop offset="1" stop-color="#F05A28"/>
</linearGradient>
</defs>
</svg>
